# File generated by PlantGL - Wed Jul 15 17:36:24 2026
v    20.701807 219.124129 0.000000
v    24.157353 218.880811 0.000000
v    22.640300 221.995060 0.000000
v    24.297833 220.875871 3.802806
v    20.842287 221.119189 3.802806
v    22.359340 218.004940 3.802806
v    23.894383 221.518628 3.539517
v    24.795737 221.864825 4.387391
v    25.755549 222.246069 4.986803
v    26.160972 222.400712 5.238364
v    27.529866 222.937505 5.631656
v    28.894756 223.441421 5.620506
v    29.575419 223.659958 5.411052
v    30.224285 223.762840 5.225052
v    24.555252 220.161978 3.539517
v    25.383470 220.658311 4.387391
v    26.275318 221.179073 4.986803
v    26.646999 221.402982 5.238364
v    27.913498 222.149975 5.631656
v    29.151640 222.914082 5.620506
v    29.743297 223.315334 5.411052
v    30.224285 223.762840 5.225052
v    23.829031 221.064769 3.802806
v    20.913098 220.618746 3.802806
v    22.757331 218.316486 3.802806
v    21.170609 218.935231 8.831485
v    24.086542 219.381254 8.831485
v    22.242309 221.683514 8.831485
v    21.977438 218.123276 8.435758
v    20.770573 217.317318 9.710122
v    19.444938 216.410057 10.642461
v    18.946875 216.079107 10.989145
v    17.117649 214.838936 11.580268
v    15.284385 213.647073 11.563510
v    14.308092 213.068875 11.230974
v    13.390849 212.703229 10.951412
v    20.554327 219.899825 8.435758
v    19.504391 218.897964 9.710122
v    18.329671 217.802308 10.642461
v    17.897993 217.388486 10.989145
v    16.288475 215.874040 11.580268
v    14.725220 214.345110 11.563510
v    13.947877 213.518552 11.230974
v    13.390849 212.703229 10.951412
v    21.248371 219.513767 8.831485
v    23.546634 219.159330 8.831485
v    22.704454 221.326903 8.831485
v    23.751269 220.486233 19.751381
v    21.453006 220.840670 19.751381
v    22.295186 218.673097 19.751381
v    22.964790 222.021466 19.177304
v    24.985754 222.611357 21.026011
v    28.039929 223.540683 22.878900
v    31.115435 224.461737 23.739011
v    32.410828 224.853523 23.728619
v    34.162220 225.336137 23.714701
v    35.301806 225.644863 23.367191
v    36.690730 225.962030 22.949985
v    38.119216 226.068695 22.544428
v    24.207613 218.822731 19.177304
v    26.096703 219.752036 21.026011
v    28.977140 221.128519 22.878900
v    31.867729 222.525507 23.739011
v    33.087829 223.111080 23.728619
v    34.705633 223.937519 23.714701
v    35.754719 224.479171 23.367191
v    36.993436 225.182937 22.949985
v    38.119216 226.068695 22.544428
v    23.480869 220.232073 19.751381
v    21.808314 220.733577 19.751381
v    22.210276 219.034350 19.751381
v    21.518771 219.767927 37.004359
v    23.191326 219.266423 37.004359
v    22.789364 220.965650 37.004359
v    22.300985 217.538370 36.200543
v    19.384409 217.110400 38.789079
v    15.663032 216.520989 40.975892
v    10.524255 215.736850 42.587791
v    9.454974 215.569333 42.579480
v    6.125467 215.132050 42.553751
v    3.273151 214.850508 41.712969
v    1.271509 214.978320 41.145113
v    21.219151 222.111645 36.200543
v    18.419944 221.187513 38.789079
v    14.828903 220.047130 40.975892
v    9.883441 218.445783 42.587791
v    8.852436 218.116465 42.579480
v    5.679891 217.015650 42.553751
v    3.003739 215.989401 41.712969
v    1.271509 214.978320 41.145113
v    22.038849 219.473607 37.004359
v    23.186175 219.863984 37.004359
v    22.274436 220.662409 37.004359
v    22.960791 220.526393 59.879739
v    21.813465 220.136016 59.879739
v    22.725204 219.337591 59.879739
v    20.399394 222.324020 58.793427
v    23.273313 225.082871 62.291691
v    26.295732 228.051117 64.750391
v    27.608116 229.305141 65.802744
v    31.955125 233.536940 67.425440
v    36.340055 237.636826 67.379437
v    38.558625 239.538286 66.523387
v    40.861653 240.967798 65.755961
v    25.080653 218.224568 58.793427
v    27.436200 221.437365 62.291691
v    29.979719 224.824990 64.750391
v    31.049625 226.291357 65.802744
v    34.670885 231.158707 67.425440
v    38.156381 236.046240 67.379437
v    39.748499 238.496294 66.523387
v    40.861653 240.967798 65.755961
v    22.851562 220.224577 59.879739
v    22.129460 220.192329 59.879739
v    22.518439 219.583094 59.879739
v    22.148078 219.775423 65.790000
v    22.870180 219.807671 65.790000
v    22.481201 220.416906 65.790000
v    23.051036 217.900854 63.057750
v    22.471972 218.151063 68.165813
v    22.233187 218.296659 69.942265
v    21.685938 218.256500 71.725610
v    20.353905 218.629894 75.129971
v    20.827543 221.383380 63.057750
v    20.810842 220.752792 68.165813
v    20.842435 220.474911 69.942265
v    20.575716 219.995374 71.725610
v    20.353905 218.629894 75.129971
mtllib usm_12_2.5D_2018-08-07_5.mtl
usemtl APPID_3776967984_2817002685664 
o vid_3 
f 3 2 1
f 4 5 6
f 1 6 5
f 1 5 3
f 3 5 4
f 4 2 3
f 2 4 6
f 6 1 2
usemtl APPID_3776967200_2817002688224 
o vid_4 
f 7 15 16
f 8 16 17
f 9 17 18
f 10 18 19
f 11 19 20
f 12 20 21
f 7 16 8
f 8 17 9
f 9 18 10
f 10 19 11
f 11 20 12
f 12 21 13
f 13 21 22
usemtl APPID_3776967984_2817002685664 
o vid_5 
f 25 24 23
f 26 27 28
f 23 28 27
f 23 27 25
f 25 27 26
f 26 24 25
f 24 26 28
f 28 23 24
usemtl APPID_3776967200_2817002688224 
o vid_6 
f 29 37 38
f 30 38 39
f 31 39 40
f 32 40 41
f 33 41 42
f 34 42 43
f 29 38 30
f 30 39 31
f 31 40 32
f 32 41 33
f 33 42 34
f 34 43 35
f 35 43 44
usemtl APPID_3776967984_2817002685664 
o vid_7 
f 47 46 45
f 48 49 50
f 45 50 49
f 45 49 47
f 47 49 48
f 48 46 47
f 46 48 50
f 50 45 46
usemtl APPID_3776967200_2817002688224 
o vid_8 
f 51 60 61
f 52 61 62
f 53 62 63
f 54 63 64
f 55 64 65
f 56 65 66
f 57 66 67
f 51 61 52
f 52 62 53
f 53 63 54
f 54 64 55
f 55 65 56
f 56 66 57
f 57 67 58
f 58 67 68
usemtl APPID_3776967984_2817002685664 
o vid_9 
f 71 70 69
f 72 73 74
f 69 74 73
f 69 73 71
f 71 73 72
f 72 70 71
f 70 72 74
f 74 69 70
usemtl APPID_3776967200_2817002688224 
o vid_10 
f 75 83 84
f 76 84 85
f 77 85 86
f 78 86 87
f 79 87 88
f 80 88 89
f 75 84 76
f 76 85 77
f 77 86 78
f 78 87 79
f 79 88 80
f 80 89 81
f 81 89 90
usemtl APPID_3776967984_2817002685664 
o vid_11 
f 93 92 91
f 94 95 96
f 91 96 95
f 91 95 93
f 93 95 94
f 94 92 93
f 92 94 96
f 96 91 92
usemtl APPID_3776967200_2817002688224 
o vid_12 
f 97 105 106
f 98 106 107
f 99 107 108
f 100 108 109
f 101 109 110
f 102 110 111
f 97 106 98
f 98 107 99
f 99 108 100
f 100 109 101
f 101 110 102
f 102 111 103
f 103 111 112
usemtl APPID_3776967984_2817002685664 
o vid_13 
f 115 114 113
f 116 117 118
f 113 118 117
f 113 117 115
f 115 117 116
f 116 114 115
f 114 116 118
f 118 113 114
usemtl APPID_3776967200_2817002688224 
o vid_14 
f 119 124 125
f 120 125 126
f 121 126 127
f 119 125 120
f 120 126 121
f 121 127 122
f 122 127 128
