# File generated by PlantGL - Wed Jul 15 17:36:43 2026
v    20.252304 258.905161 0.000000
v    24.571736 258.601013 0.000000
v    22.675420 262.493825 0.000000
v    24.747336 261.094839 2.682187
v    20.427904 261.398987 2.682187
v    22.324220 257.506175 2.682187
v    24.669590 261.321077 2.593550
v    24.802137 261.365820 2.821393
v    24.877554 260.894161 2.593550
v    24.994491 260.970951 2.821393
v    24.379104 261.505407 2.682187
v    20.256458 260.874804 2.682187
v    22.863898 257.619789 2.682187
v    20.620536 258.494593 4.602934
v    24.743182 259.125196 4.602934
v    22.135742 262.380211 4.602934
v    20.802594 258.199875 4.474864
v    20.640245 258.100867 4.784565
v    20.372659 258.736587 4.474864
v    20.240603 258.599761 4.784565
v    20.341236 259.161313 4.602934
v    24.305436 258.549955 4.602934
v    22.852788 262.288732 4.602934
v    24.658404 260.838687 7.454389
v    20.694204 261.450045 7.454389
v    22.146852 257.711268 7.454389
v    24.559293 261.258505 7.273192
v    24.738106 261.304240 7.574076
v    24.868732 260.462082 7.273192
v    25.031517 260.549069 7.574076
v    24.663782 260.511898 7.454389
v    20.974522 261.618097 7.454389
v    21.861155 257.870005 7.454389
v    20.335858 259.488102 12.006019
v    24.025118 258.381903 12.006019
v    23.138485 262.129995 12.006019
v    20.382109 258.933557 11.754992
v    20.325632 258.927199 11.847640
v    20.128748 260.004596 11.754992
v    20.075409 259.984976 11.847640
v    21.095515 258.396392 12.006019
v    24.590737 259.585640 12.006019
v    21.813207 262.017967 12.006019
v    23.904125 261.603608 16.421928
v    20.408903 260.414360 16.421928
v    23.186433 257.982033 16.421928
v    23.415340 262.180675 16.081398
v    23.473542 262.232906 16.208882
v    24.540637 261.195235 16.081398
v    24.584733 261.259819 16.208882
v    24.218802 261.097521 16.421928
v    20.689848 260.939922 16.421928
v    22.590810 257.962557 16.421928
v    20.780838 258.902479 35.676141
v    24.309792 259.060078 35.676141
v    22.408830 262.037443 35.676141
v    21.201714 257.966540 35.223809
v    21.031905 257.884921 35.530946
v    20.108912 259.678130 35.223809
v    19.963414 259.558434 35.530946
v    20.919840 258.861621 35.676141
v    24.275675 259.200887 35.676141
v    22.303945 261.937492 35.676141
v    24.079800 261.138379 53.193347
v    20.723965 260.799113 53.193347
v    22.695695 258.062508 53.193347
v    23.510349 262.260097 52.605011
v    23.726753 262.379495 53.007925
v    23.849726 262.444181 53.233848
v    24.963576 260.243133 52.605011
v    25.145336 260.410614 53.007925
v    25.245623 260.506787 53.233848
v    24.054453 261.012481 53.193347
v    20.845669 260.840111 53.193347
v    22.599338 258.147408 53.193347
v    20.945187 258.987519 80.187012
v    24.153971 259.159889 80.187012
v    22.400302 261.852592 80.187012
v    21.619068 257.500734 79.437704
v    21.107893 257.249325 80.366350
v    21.062444 257.228086 80.447918
v    19.857847 260.205033 79.437704
v    19.421216 259.839167 80.366350
v    19.383413 259.806187 80.447918
v    20.957943 259.144816 80.187012
v    24.011370 259.092287 80.187012
v    22.530147 261.762897 80.187012
v    24.041697 260.855184 115.983293
v    20.988270 260.907713 115.983293
v    22.469493 258.237103 115.983293
v    23.255132 262.907668 115.048830
v    25.180750 263.690704 118.437574
v    25.198269 263.697424 118.468084
v    25.366370 259.101156 115.048830
v    27.050230 260.320076 118.437574
v    27.065207 260.331380 118.468084
v    24.114715 260.429572 115.983293
v    21.320352 261.183754 115.983293
v    22.064393 258.386674 115.983293
v    20.884925 259.570428 146.338085
v    23.679288 258.816246 146.338085
v    22.935247 261.613326 146.338085
v    21.165317 257.054835 145.196968
v    19.928333 256.880761 147.233361
v    17.636566 256.604708 150.986586
v    16.957899 256.497770 151.674293
v    19.878373 261.892858 145.196968
v    18.718387 261.429323 147.233361
v    16.592357 260.530215 150.986586
v    15.950255 260.285820 151.674293
v    21.041526 259.394647 146.338085
v    23.753218 259.039757 146.338085
v    22.704716 261.565597 146.338085
v    23.958114 260.605353 179.402515
v    21.246422 260.960243 179.402515
v    22.294924 258.434403 179.402515
v    23.142009 263.743118 178.038044
v    26.329537 264.636577 183.434601
v    27.238275 264.871867 184.960885
v    31.289395 266.079734 189.192340
v    32.984740 266.523127 190.939199
v    32.996267 266.526460 190.946021
v    25.604053 257.812060 178.038044
v    28.487260 259.438627 183.434601
v    29.295480 259.916065 184.960885
v    33.011064 261.932236 189.192340
v    34.522024 262.819814 190.939199
v    34.532523 262.825624 190.946021
v    23.647956 260.944713 179.402515
v    21.107606 260.521958 179.402515
v    22.743898 258.533328 179.402515
v    21.351684 259.055287 201.056038
v    23.892034 259.478042 201.056038
v    22.255742 261.466672 201.056038
v    23.233216 255.940763 199.458448
v    21.083873 254.568178 203.615813
v    19.011678 253.302278 207.564050
v    16.379826 251.559844 210.723492
v    13.097286 249.543483 214.563756
v    12.476356 249.139787 214.984774
v    18.657803 261.501391 199.458448
v    16.896992 259.656611 203.615813
v    15.255727 257.866990 207.564050
v    13.039071 255.619957 210.723492
v    10.428305 252.787169 214.563756
v    9.912588 252.255606 214.984774
v    21.536143 258.991726 201.056038
v    23.854850 259.669568 201.056038
v    22.108468 261.338706 201.056038
v    23.463497 261.008274 220.272755
v    21.144790 260.330432 220.272755
v    22.891172 258.661294 220.272755
v    20.695121 264.488393 218.441145
v    24.742176 267.813187 226.979418
v    30.249279 272.470310 234.489060
v    31.247641 273.261838 235.759120
v    36.863629 277.953713 239.919137
v    27.065211 258.400059 218.441145
v    30.203646 262.593284 226.979418
v    34.607041 268.305296 234.489060
v    35.352626 269.338421 235.759120
v    39.785815 275.160778 239.919137
v    23.412132 260.929805 220.272755
v    21.238430 260.325183 220.272755
v    22.848899 258.745013 220.272755
v    21.587508 259.070195 231.610387
v    23.761210 259.674817 231.610387
v    22.150741 261.254987 231.610387
v    24.462026 255.301305 229.554180
v    21.525918 252.952543 235.683668
v    19.426815 251.340889 239.986644
v    15.798933 248.339375 244.699781
v    12.387164 245.706564 248.995742
v    7.266423 241.541254 252.748114
v    17.764709 261.872621 229.554180
v    15.472129 258.892437 235.683668
v    13.900629 256.763106 239.986644
v    10.968553 253.078877 244.699781
v    8.401009 249.617725 248.995742
v    4.333697 244.418804 252.748114
v    21.688766 259.101354 231.610387
v    23.683598 259.746930 231.610387
v    22.127097 261.151717 231.610387
v    23.310874 260.898646 239.748261
v    21.316042 260.253070 239.748261
v    22.872543 258.848283 239.748261
v    19.749545 265.115320 237.487953
v    24.814695 269.522359 248.432568
v    31.502893 275.526830 257.630757
v    41.690554 284.502469 265.877286
v    41.753356 284.544434 265.919178
v    27.869426 257.786893 237.487953
v    31.735750 263.275907 248.432568
v    37.025273 270.542723 257.630757
v    44.912773 281.594323 265.877286
v    44.948100 281.661085 265.919178
v    23.597632 260.213714 239.748261
v    21.765832 260.843876 239.748261
v    22.135996 258.942409 239.748261
v    21.402008 259.786286 243.641404
v    23.233808 259.156124 243.641404
v    22.863644 261.057591 243.641404
v    21.637452 254.384816 241.208446
v    18.897545 254.186955 245.686654
v    14.066478 253.934742 253.552408
v    10.809977 253.645563 256.824897
v    3.410418 253.241072 264.212208
v    -2.391094 252.774532 267.520806
v    -3.977414 252.862257 268.401950
v    19.594007 264.881621 241.208446
v    16.979966 264.037213 245.686654
v    12.407088 262.458732 253.552408
v    9.279921 261.505184 256.824897
v    2.268997 259.104343 264.212208
v    -3.283857 257.360494 267.520806
v    -4.721424 256.684101 268.401950
v    21.708135 259.346885 243.641404
v    23.461277 259.640938 243.641404
v    22.330048 261.012177 243.641404
v    23.291505 260.653115 246.312254
v    21.538363 260.359062 246.312254
v    22.669592 258.987823 246.312254
v    20.429396 265.449191 243.747957
v    22.062682 266.495159 246.909723
v    27.227569 269.659447 256.758286
v    29.021196 270.850227 258.913293
v    36.776612 275.627793 267.993535
v    40.580433 278.107760 270.574844
v    42.917329 279.214409 272.008906
v    27.456147 256.931587 243.747957
v    28.793488 258.336291 246.909723
v    32.881786 262.805585 256.758286
v    34.391775 264.340183 258.913293
v    40.556325 271.046145 267.993535
v    43.714079 274.309255 270.574844
v    45.244729 276.393209 272.008906
v    23.246855 260.560971 246.312254
v    21.640487 260.366465 246.312254
v    22.612118 259.072563 246.312254
v    21.752785 259.439029 248.024375
v    23.359153 259.633535 248.024375
v    22.387522 260.927437 248.024375
v    24.594700 254.203424 245.377895
v    21.451786 252.387527 251.295158
v    17.407211 250.156980 258.805188
v    13.613464 247.880850 263.233653
v    7.326440 244.393491 270.400513
v    0.948713 240.638897 274.607624
v    -2.247212 239.300532 276.529284
v    17.517350 263.628197 245.377895
v    14.897062 261.116330 251.295158
v    11.627137 257.854195 258.805188
v    8.383382 254.845651 263.233653
v    3.281178 249.780491 270.400513
v    -2.102955 244.702745 274.607624
v    -4.279436 242.006807 276.529284
v    21.810071 259.516898 248.024375
v    23.263073 259.644211 248.024375
v    22.426316 260.838891 248.024375
v    23.189569 260.483102 248.777052
v    21.736567 260.355789 248.777052
v    22.573324 259.161109 248.777052
v    20.663869 265.624076 246.102597
v    21.724442 266.190887 248.062962
v    28.087153 269.430031 259.671827
v    38.527239 274.820481 271.389723
v    41.484868 276.432296 273.304487
v    45.704758 278.037481 275.808511
v    27.157746 256.352443 246.102597
v    28.052901 257.155430 248.062962
v    33.271600 262.027938 259.671827
v    41.905599 269.997029 271.389723
v    44.431194 272.225679 273.304487
v    47.381966 275.642847 275.808511
v    23.110369 260.435580 248.777052
v    21.817322 260.310961 248.777052
v    22.571769 259.253459 248.777052
v    21.889271 259.564420 249.447000
v    23.182318 259.689039 249.447000
v    22.427871 260.746541 249.447000
v    24.791731 253.995758 246.800521
v    19.219868 250.955455 257.147962
v    17.539354 250.081481 260.227813
v    10.493852 246.085028 268.335720
v    7.394046 244.463267 271.823138
v    -3.032877 238.662943 278.605859
v    -7.129684 237.063725 281.044994
v    -8.451718 236.505777 281.333712
v    17.568157 264.120979 246.800521
v    12.880214 259.841692 257.147962
v    11.506960 258.537035 260.227813
v    5.435378 253.175447 268.335720
v    2.893191 250.772075 271.823138
v    -5.984415 242.800088 278.605859
v    -8.829713 239.446642 281.044994
v    -9.787491 238.378118 281.333712
v    24.802137 261.365820 2.821393
v    24.852820 261.382928 2.908513
v    24.930934 261.409957 3.043262
v    25.142408 261.490626 3.270143
v    25.293966 261.545880 3.431616
v    25.518175 261.632582 3.568642
v    25.803022 261.733753 3.740478
v    26.057928 261.827937 3.796233
v    26.436831 261.917847 3.874586
v    24.994491 260.970951 2.821393
v    25.039205 261.000313 2.908513
v    25.108639 261.045159 3.043262
v    25.302516 261.161951 3.270143
v    25.439449 261.247229 3.431616
v    25.645927 261.370329 3.568642
v    25.901177 261.532258 3.740478
v    26.132470 261.674917 3.796233
v    26.436831 261.917847 3.874586
v    20.640245 258.100867 4.784565
v    20.558886 258.051250 4.939766
v    20.462510 257.991469 5.124649
v    20.183357 257.805971 5.460620
v    19.994184 257.684267 5.685779
v    19.697463 257.485135 5.889473
v    19.336682 257.257252 6.132051
v    18.997904 257.037222 6.214932
v    18.492489 256.789915 6.328145
v    20.240603 258.599761 4.784565
v    20.174426 258.531194 4.939766
v    20.095051 258.450189 5.124649
v    19.853097 258.218253 5.460620
v    19.693039 258.060204 5.685779
v    19.433945 257.814099 5.889473
v    19.132812 257.511754 6.132051
v    18.844145 257.229167 6.214932
v    18.492489 256.789915 6.328145
v    24.738106 261.304240 7.574076
v    24.991797 261.369128 8.000955
v    25.106501 261.396043 8.192523
v    25.656903 261.546527 8.763680
v    25.874315 261.598104 8.986423
v    26.683172 261.812031 9.462039
v    26.961925 261.846512 9.617819
v    27.437716 261.918550 9.714641
v    25.031517 260.549069 7.574076
v    25.262469 260.672483 8.000955
v    25.365255 260.730070 8.192523
v    25.872875 260.990666 8.763680
v    26.068077 261.099404 8.986423
v    26.809188 261.487695 9.462039
v    27.038098 261.650460 9.617819
v    27.437716 261.918550 9.714641
v    20.325632 258.927199 11.847640
v    20.111932 258.903140 12.198215
v    19.603383 258.856131 13.028613
v    19.284341 258.814879 13.350623
v    18.507535 258.741152 14.128467
v    17.930471 258.671416 14.458894
v    16.949194 258.686359 15.003189
v    16.946485 258.686327 15.003734
v    20.075409 259.984976 11.847640
v    19.873578 259.910738 12.198215
v    19.397867 259.724915 13.028613
v    19.094156 259.618851 13.350623
v    18.366649 259.336725 14.128467
v    17.819501 259.140521 14.458894
v    16.948922 258.687511 15.003189
v    16.946485 258.686327 15.003734
v    23.473542 262.232906 16.208882
v    23.698451 262.434741 16.701518
v    24.214409 262.879526 17.809127
v    24.545829 263.186955 18.261619
v    25.333983 263.869762 19.301132
v    25.930775 264.414180 19.760340
v    27.010217 265.159099 20.487735
v    27.031082 265.174352 20.492935
v    24.584733 261.259819 16.208882
v    24.755129 261.509392 16.701518
v    25.127950 262.079524 17.809127
v    25.388963 262.448609 18.261619
v    25.961812 263.319962 19.301132
v    26.422730 263.983367 19.760340
v    27.018716 265.151657 20.487735
v    27.031082 265.174352 20.492935
v    21.031905 257.884921 35.530946
v    20.581588 257.668476 36.345445
v    19.925084 257.368883 37.518781
v    19.167244 256.989128 38.367269
v    18.134073 256.514582 39.500636
v    16.897258 255.907640 40.283816
v    15.540339 255.456893 41.076821
v    15.178944 255.325830 41.154169
v    19.963414 259.558434 35.530946
v    19.577568 259.241013 36.345445
v    19.029528 258.771540 37.518781
v    18.366126 258.243871 38.367269
v    17.500872 257.506328 39.500636
v    16.429819 256.639762 40.283816
v    15.449917 255.598515 41.076821
v    15.178944 255.325830 41.154169
v    23.849726 262.444181 53.233848
v    25.132226 263.118799 55.590020
v    27.413302 264.334527 58.167766
v    28.033881 264.683554 58.572511
v    30.177854 265.532042 59.851326
v    25.245623 260.506787 53.233848
v    26.291523 261.509787 55.590020
v    28.166805 263.288724 58.167766
v    28.694328 263.766907 58.572511
v    30.177854 265.532042 59.851326
v    21.062444 257.228086 80.447918
v    19.507046 256.501232 83.239428
v    18.943670 256.212525 83.873085
v    16.538642 255.081439 86.522459
v    15.348454 254.483973 87.279501
v    12.570038 253.533064 88.908207
v    19.383413 259.806187 80.447918
v    18.089706 258.677514 83.239428
v    17.597853 258.278986 83.873085
v    15.590888 256.536686 86.522459
v    14.563192 255.689719 87.279501
v    12.570038 253.533064 88.908207
v    25.198269 263.697424 118.468084
v    25.957328 263.988598 119.789961
v    28.386422 265.023336 122.432823
v    29.744539 265.548131 123.884230
v    33.384040 267.062806 126.125177
v    35.153598 267.531434 127.140436
v    37.123566 268.110893 127.553593
v    27.065207 260.331380 118.468084
v    27.714130 260.821126 119.789961
v    29.878099 262.333878 122.432823
v    31.042402 263.208115 123.884230
v    34.254409 265.493550 126.125177
v    35.588921 266.746559 127.140436
v    37.123566 268.110893 127.553593
v    16.957899 256.497770 151.674293
v    16.174319 256.374300 152.468311
v    12.671618 255.943675 155.986290
v    10.036346 255.550885 157.500897
v    5.598132 255.495524 159.962596
v    5.560472 255.494029 159.970179
v    15.950255 260.285820 151.674293
v    15.208891 260.003645 152.468311
v    11.955171 258.637022 155.986290
v    9.473034 257.668549 157.500897
v    5.593897 255.511443 159.962596
v    5.560472 255.494029 159.970179
v    32.996267 266.526460 190.946021
v    38.954977 268.249208 194.472061
v    41.134413 268.569579 195.693802
v    44.607002 269.176921 196.403106
v    34.532523 262.825624 190.946021
v    39.959543 265.829210 194.472061
v    41.725159 267.146472 195.693802
v    44.607002 269.176921 196.403106
v    12.476356 249.139787 214.984774
v    8.849812 246.781995 217.443735
v    4.468621 244.714110 220.130678
v    3.051581 243.997536 220.450174
v    9.912588 252.255606 214.984774
v    6.900535 249.151005 217.443735
v    4.027633 245.250054 220.130678
v    3.051581 243.997536 220.450174
v    36.863629 277.953713 239.919137
v    38.665524 279.459106 241.253882
v    40.021064 280.309901 242.141501
v    45.224974 283.776828 243.399634
v    39.785815 275.160778 239.919137
v    41.208208 277.028887 241.253882
v    41.996851 278.421505 242.141501
v    45.224974 283.776828 243.399634
v    7.266423 241.541254 252.748114
v    6.710917 241.089395 253.155177
v    2.083521 238.268958 256.160752
v    -0.400167 236.660916 256.756074
v    4.333697 244.418804 252.748114
v    3.892469 243.854818 253.155177
v    1.160418 239.174693 256.160752
v    -0.400167 236.660916 256.756074
v    41.753356 284.544434 265.919178
v    42.977156 285.362195 266.735504
v    49.665377 290.099376 268.384557
v    44.948100 281.661085 265.919178
v    45.636511 282.962049 266.735504
v    49.665377 290.099376 268.384557
v    -3.977414 252.862257 268.401950
v    -11.697238 253.289168 272.690034
v    -11.937839 253.295919 272.738463
v    -4.721424 256.684101 268.401950
v    -11.717341 253.392433 272.690034
v    -11.937839 253.295919 272.738463
v    42.917329 279.214409 272.008906
v    49.663276 282.408984 276.148632
v    45.244729 276.393209 272.008906
v    49.663276 282.408984 276.148632
v    -2.247212 239.300532 276.529284
v    -7.391339 237.146315 279.622369
v    -8.750494 236.533186 279.922374
v    -4.279436 242.006807 276.529284
v    -7.782677 237.667452 279.622369
v    -8.750494 236.533186 279.922374
v    45.704758 278.037481 275.808511
v    51.281572 280.158819 279.117715
v    47.381966 275.642847 275.808511
v    51.281572 280.158819 279.117715
v    -8.451718 236.505777 281.333712
v    -13.299778 234.459712 282.392475
v    -9.787491 238.378118 281.333712
v    -13.299778 234.459712 282.392475
mtllib usm_12_2.5D_2018-09-08_6.mtl
usemtl APPID_3776967088_2817002591456 
o vid_3 
f 3 2 1
f 4 5 6
f 1 6 5
f 1 5 3
f 3 5 4
f 4 2 3
f 2 4 6
f 6 1 2
usemtl APPID_3776965296_2817002592480 
o vid_4 
f 7 9 10
f 7 10 8
f 7 9 10
f 7 10 8
usemtl APPID_3776967088_2817002591456 
o vid_5 
f 13 12 11
f 14 15 16
f 11 16 15
f 11 15 13
f 13 15 14
f 14 12 13
f 12 14 16
f 16 11 12
usemtl APPID_3776965296_2817002592480 
o vid_6 
f 17 19 20
f 17 20 18
f 17 19 20
f 17 20 18
usemtl APPID_3776967088_2817002591456 
o vid_7 
f 23 22 21
f 24 25 26
f 21 26 25
f 21 25 23
f 23 25 24
f 24 22 23
f 22 24 26
f 26 21 22
usemtl APPID_3776965296_2817002592480 
o vid_8 
f 27 29 30
f 27 30 28
f 27 29 30
f 27 30 28
usemtl APPID_3776967088_2817002591456 
o vid_9 
f 33 32 31
f 34 35 36
f 31 36 35
f 31 35 33
f 33 35 34
f 34 32 33
f 32 34 36
f 36 31 32
usemtl APPID_3776965296_2817002592480 
o vid_10 
f 37 39 40
f 37 40 38
f 37 39 40
f 37 40 38
usemtl APPID_3776967088_2817002591456 
o vid_11 
f 43 42 41
f 44 45 46
f 41 46 45
f 41 45 43
f 43 45 44
f 44 42 43
f 42 44 46
f 46 41 42
usemtl APPID_3776965296_2817002592480 
o vid_12 
f 47 49 50
f 47 50 48
f 47 49 50
f 47 50 48
usemtl APPID_3776967088_2817002591456 
o vid_13 
f 53 52 51
f 54 55 56
f 51 56 55
f 51 55 53
f 53 55 54
f 54 52 53
f 52 54 56
f 56 51 52
usemtl APPID_3776965296_2817002592480 
o vid_14 
f 57 59 60
f 57 60 58
f 57 59 60
f 57 60 58
usemtl APPID_3776967088_2817002591456 
o vid_15 
f 63 62 61
f 64 65 66
f 61 66 65
f 61 65 63
f 63 65 64
f 64 62 63
f 62 64 66
f 66 61 62
usemtl APPID_3776965296_2817002592480 
o vid_16 
f 67 70 71
f 67 71 68
f 68 71 72
f 68 72 69
usemtl APPID_3776967088_2817002591456 
o vid_17 
f 75 74 73
f 76 77 78
f 73 78 77
f 73 77 75
f 75 77 76
f 76 74 75
f 74 76 78
f 78 73 74
usemtl APPID_3776965296_2817002592480 
o vid_18 
f 79 82 83
f 79 83 80
f 80 83 84
f 80 84 81
usemtl APPID_3776967088_2817002591456 
o vid_19 
f 87 86 85
f 88 89 90
f 85 90 89
f 85 89 87
f 87 89 88
f 88 86 87
f 86 88 90
f 90 85 86
usemtl APPID_3776965296_2817002592480 
o vid_20 
f 91 94 95
f 91 95 92
f 92 95 96
f 92 96 93
usemtl APPID_3776967088_2817002591456 
o vid_21 
f 99 98 97
f 100 101 102
f 97 102 101
f 97 101 99
f 99 101 100
f 100 98 99
f 98 100 102
f 102 97 98
usemtl APPID_3776965296_2817002592480 
o vid_22 
f 103 107 108
f 104 108 109
f 103 108 104
f 104 109 105
f 105 109 110
f 105 110 106
usemtl APPID_3776967088_2817002591456 
o vid_23 
f 113 112 111
f 114 115 116
f 111 116 115
f 111 115 113
f 113 115 114
f 114 112 113
f 112 114 116
f 116 111 112
usemtl APPID_3776965296_2817002592480 
o vid_24 
f 117 123 124
f 118 124 125
f 119 125 126
f 120 126 127
f 117 124 118
f 118 125 119
f 119 126 120
f 120 127 121
f 121 127 128
f 121 128 122
usemtl APPID_3776967088_2817002591456 
o vid_25 
f 131 130 129
f 132 133 134
f 129 134 133
f 129 133 131
f 131 133 132
f 132 130 131
f 130 132 134
f 134 129 130
usemtl APPID_3776965296_2817002592480 
o vid_26 
f 135 141 142
f 136 142 143
f 137 143 144
f 138 144 145
f 135 142 136
f 136 143 137
f 137 144 138
f 138 145 139
f 139 145 146
f 139 146 140
usemtl APPID_3776967088_2817002591456 
o vid_27 
f 149 148 147
f 150 151 152
f 147 152 151
f 147 151 149
f 149 151 150
f 150 148 149
f 148 150 152
f 152 147 148
usemtl APPID_3776965296_2817002592480 
o vid_28 
f 153 158 159
f 154 159 160
f 155 160 161
f 153 159 154
f 154 160 155
f 155 161 156
f 156 161 162
f 156 162 157
usemtl APPID_3776967088_2817002591456 
o vid_29 
f 165 164 163
f 166 167 168
f 163 168 167
f 163 167 165
f 165 167 166
f 166 164 165
f 164 166 168
f 168 163 164
usemtl APPID_3776965296_2817002592480 
o vid_30 
f 169 175 176
f 170 176 177
f 171 177 178
f 172 178 179
f 169 176 170
f 170 177 171
f 171 178 172
f 172 179 173
f 173 179 180
f 173 180 174
usemtl APPID_3776967088_2817002591456 
o vid_31 
f 183 182 181
f 184 185 186
f 181 186 185
f 181 185 183
f 183 185 184
f 184 182 183
f 182 184 186
f 186 181 182
usemtl APPID_3776965296_2817002592480 
o vid_32 
f 187 192 193
f 188 193 194
f 189 194 195
f 187 193 188
f 188 194 189
f 189 195 190
f 190 195 196
f 190 196 191
usemtl APPID_3776967088_2817002591456 
o vid_33 
f 199 198 197
f 200 201 202
f 197 202 201
f 197 201 199
f 199 201 200
f 200 198 199
f 198 200 202
f 202 197 198
usemtl APPID_3776965296_2817002592480 
o vid_34 
f 203 210 211
f 204 211 212
f 205 212 213
f 206 213 214
f 207 214 215
f 203 211 204
f 204 212 205
f 205 213 206
f 206 214 207
f 207 215 208
f 208 215 216
f 208 216 209
usemtl APPID_3776967088_2817002591456 
o vid_35 
f 219 218 217
f 220 221 222
f 217 222 221
f 217 221 219
f 219 221 220
f 220 218 219
f 218 220 222
f 222 217 218
usemtl APPID_3776965296_2817002592480 
o vid_36 
f 223 230 231
f 224 231 232
f 225 232 233
f 226 233 234
f 227 234 235
f 223 231 224
f 224 232 225
f 225 233 226
f 226 234 227
f 227 235 228
f 228 235 236
f 228 236 229
usemtl APPID_3776967088_2817002591456 
o vid_37 
f 239 238 237
f 240 241 242
f 237 242 241
f 237 241 239
f 239 241 240
f 240 238 239
f 238 240 242
f 242 237 238
usemtl APPID_3776965296_2817002592480 
o vid_38 
f 243 250 251
f 244 251 252
f 245 252 253
f 246 253 254
f 247 254 255
f 243 251 244
f 244 252 245
f 245 253 246
f 246 254 247
f 247 255 248
f 248 255 256
f 248 256 249
usemtl APPID_3776967088_2817002591456 
o vid_39 
f 259 258 257
f 260 261 262
f 257 262 261
f 257 261 259
f 259 261 260
f 260 258 259
f 258 260 262
f 262 257 258
usemtl APPID_3776965296_2817002592480 
o vid_40 
f 263 269 270
f 264 270 271
f 265 271 272
f 266 272 273
f 263 270 264
f 264 271 265
f 265 272 266
f 266 273 267
f 267 273 274
f 267 274 268
usemtl APPID_3776967088_2817002591456 
o vid_41 
f 277 276 275
f 278 279 280
f 275 280 279
f 275 279 277
f 277 279 278
f 278 276 277
f 276 278 280
f 280 275 276
usemtl APPID_3776965296_2817002592480 
o vid_42 
f 281 289 290
f 282 290 291
f 283 291 292
f 284 292 293
f 285 293 294
f 286 294 295
f 281 290 282
f 282 291 283
f 283 292 284
f 284 293 285
f 285 294 286
f 286 295 287
f 287 295 296
f 287 296 288
usemtl APPID_3776964400_2817002590944 
o vid_10000004 
f 297 306 307
f 298 307 308
f 299 308 309
f 300 309 310
f 301 310 311
f 302 311 312
f 303 312 313
f 297 307 298
f 298 308 299
f 299 309 300
f 300 310 301
f 301 311 302
f 302 312 303
f 303 313 304
f 304 313 314
usemtl APPID_3776964400_2817002590944 
o vid_10000006 
f 315 324 325
f 316 325 326
f 317 326 327
f 318 327 328
f 319 328 329
f 320 329 330
f 321 330 331
f 315 325 316
f 316 326 317
f 317 327 318
f 318 328 319
f 319 329 320
f 320 330 321
f 321 331 322
f 322 331 332
usemtl APPID_3776964400_2817002590944 
o vid_10000008 
f 333 341 342
f 334 342 343
f 335 343 344
f 336 344 345
f 337 345 346
f 338 346 347
f 333 342 334
f 334 343 335
f 335 344 336
f 336 345 337
f 337 346 338
f 338 347 339
f 339 347 348
usemtl APPID_3776964400_2817002590944 
o vid_10000010 
f 349 357 358
f 350 358 359
f 351 359 360
f 352 360 361
f 353 361 362
f 354 362 363
f 349 358 350
f 350 359 351
f 351 360 352
f 352 361 353
f 353 362 354
f 354 363 355
f 355 363 364
usemtl APPID_3776964400_2817002590944 
o vid_10000012 
f 365 373 374
f 366 374 375
f 367 375 376
f 368 376 377
f 369 377 378
f 370 378 379
f 365 374 366
f 366 375 367
f 367 376 368
f 368 377 369
f 369 378 370
f 370 379 371
f 371 379 380
usemtl APPID_3776964400_2817002590944 
o vid_10000014 
f 381 389 390
f 382 390 391
f 383 391 392
f 384 392 393
f 385 393 394
f 386 394 395
f 381 390 382
f 382 391 383
f 383 392 384
f 384 393 385
f 385 394 386
f 386 395 387
f 387 395 396
usemtl APPID_3776964400_2817002590944 
o vid_10000016 
f 397 402 403
f 398 403 404
f 399 404 405
f 397 403 398
f 398 404 399
f 399 405 400
f 400 405 406
usemtl APPID_3776964400_2817002590944 
o vid_10000018 
f 407 413 414
f 408 414 415
f 409 415 416
f 410 416 417
f 407 414 408
f 408 415 409
f 409 416 410
f 410 417 411
f 411 417 418
usemtl APPID_3776964400_2817002590944 
o vid_10000020 
f 419 426 427
f 420 427 428
f 421 428 429
f 422 429 430
f 423 430 431
f 419 427 420
f 420 428 421
f 421 429 422
f 422 430 423
f 423 431 424
f 424 431 432
usemtl APPID_3776964400_2817002590944 
o vid_10000022 
f 433 439 440
f 434 440 441
f 435 441 442
f 436 442 443
f 433 440 434
f 434 441 435
f 435 442 436
f 436 443 437
f 437 443 444
usemtl APPID_3776964400_2817002590944 
o vid_10000024 
f 445 449 450
f 446 450 451
f 445 450 446
f 446 451 447
f 447 451 452
usemtl APPID_3776964400_2817002590944 
o vid_10000026 
f 453 457 458
f 454 458 459
f 453 458 454
f 454 459 455
f 455 459 460
usemtl APPID_3776964400_2817002590944 
o vid_10000028 
f 461 465 466
f 462 466 467
f 461 466 462
f 462 467 463
f 463 467 468
usemtl APPID_3776964400_2817002590944 
o vid_10000030 
f 469 473 474
f 470 474 475
f 469 474 470
f 470 475 471
f 471 475 476
usemtl APPID_3776964400_2817002590944 
o vid_10000032 
f 477 480 481
f 477 481 478
f 478 481 482
usemtl APPID_3776964400_2817002590944 
o vid_10000034 
f 483 486 487
f 483 487 484
f 484 487 488
usemtl APPID_3776964400_2817002590944 
o vid_10000036 
f 489 491 492
f 489 492 490
f 489 491 492
usemtl APPID_3776964400_2817002590944 
o vid_10000038 
f 493 496 497
f 493 497 494
f 494 497 498
usemtl APPID_3776964400_2817002590944 
o vid_10000040 
f 499 501 502
f 499 502 500
f 499 501 502
usemtl APPID_3776964400_2817002590944 
o vid_10000042 
f 503 505 506
f 503 506 504
f 503 505 506
