# File generated by PlantGL - Wed Jul 15 17:35:46 2026
v    21.593612 19.558556 0.000000
v    23.335225 19.435923 0.000000
v    22.570623 21.005521 0.000000
v    23.406028 20.441444 3.802807
v    21.664415 20.564077 3.802807
v    22.429017 18.994479 3.802807
v    23.013891 21.071060 3.553831
v    23.866242 21.398436 4.355609
v    25.073864 21.878111 5.109781
v    26.449784 22.416788 5.532229
v    26.903999 22.596322 5.528479
v    27.736390 22.901682 5.521685
v    28.128794 23.043710 5.398855
v    28.717741 23.230564 5.217914
v    29.331331 23.327853 5.042025
v    23.660073 19.744558 3.553831
v    24.443264 20.213909 4.355609
v    25.565375 20.869123 5.109781
v    26.837688 21.620487 5.532229
v    27.259045 21.867473 5.528479
v    28.012597 22.334678 5.521685
v    28.366319 22.556111 5.398855
v    28.876492 22.904675 5.217914
v    29.331331 23.327853 5.042025
v    23.020026 20.416713 3.802807
v    21.878833 20.242155 3.802807
v    22.600601 19.341132 3.802807
v    21.979614 19.583287 5.005000
v    23.120807 19.757845 5.005000
v    22.399039 20.658868 5.005000
v    22.574872 18.994085 4.232021
v    21.800506 18.555466 5.849572
v    21.269452 18.225940 6.596915
v    20.450044 17.760068 7.717988
v    20.071598 17.527380 8.028015
v    19.368392 17.139013 8.584743
v    18.816660 16.948802 8.971205
v    18.569797 16.851842 9.061675
v    21.534538 20.292793 4.232021
v    20.937480 19.632829 5.849572
v    20.499991 19.186500 6.596915
v    19.866508 18.488529 7.717988
v    19.556830 18.169994 8.028015
v    19.024345 17.568506 8.584743
v    18.718300 17.071591 8.971205
v    18.569797 16.851842 9.061675
mtllib usm_20_2.5D_2018-07-15_0.mtl
usemtl APPID_3689973568_1579940232576 
o vid_3 
f 3 2 1
f 4 5 6
f 1 6 5
f 1 5 3
f 3 5 4
f 4 2 3
f 2 4 6
f 6 1 2
usemtl APPID_3689977712_1579940232064 
o vid_4 
f 7 16 17
f 8 17 18
f 9 18 19
f 10 19 20
f 11 20 21
f 12 21 22
f 13 22 23
f 7 17 8
f 8 18 9
f 9 19 10
f 10 20 11
f 11 21 12
f 12 22 13
f 13 23 14
f 14 23 24
usemtl APPID_3689973568_1579940232576 
o vid_5 
f 27 26 25
f 28 29 30
f 25 30 29
f 25 29 27
f 27 29 28
f 28 26 27
f 26 28 30
f 30 25 26
usemtl APPID_3689977712_1579940232064 
o vid_6 
f 31 39 40
f 32 40 41
f 33 41 42
f 34 42 43
f 35 43 44
f 36 44 45
f 31 40 32
f 32 41 33
f 33 42 34
f 34 43 35
f 35 44 36
f 36 45 37
f 37 45 46
