# File generated by PlantGL - Wed Jul 15 17:34:45 2026
v    21.350448 99.440103 0.000000
v    23.559391 99.284563 0.000000
v    22.589621 101.275334 0.000000
v    23.649192 100.559897 3.803278
v    21.440249 100.715437 3.803278
v    22.410019 98.724666 3.803278
v    23.262662 101.183026 3.561434
v    24.090601 101.501026 4.340248
v    25.342242 101.998185 5.121910
v    26.599120 102.492325 5.483169
v    27.224276 102.739425 5.478007
v    27.846717 102.967766 5.472927
v    28.406706 103.170451 5.297640
v    28.978786 103.351953 5.121881
v    29.522907 103.438227 4.965905
v    29.570844 103.444527 4.940519
v    23.901586 99.871425 3.561434
v    24.662346 100.327333 4.340248
v    25.825358 101.006430 5.121910
v    26.989221 101.691513 5.483169
v    27.569154 102.031451 5.478007
v    28.132640 102.380815 5.472927
v    28.637429 102.696817 5.297640
v    29.132990 103.035398 5.121881
v    29.536333 103.410665 4.965905
v    29.570844 103.444527 4.940519
v    23.222332 100.578771 3.803278
v    21.637334 100.336328 3.803278
v    22.639794 99.084901 3.803278
v    21.777308 99.421229 8.188276
v    23.362306 99.663672 8.188276
v    22.359846 100.915099 8.188276
v    22.541910 98.648938 7.818997
v    21.415704 97.896845 9.008191
v    19.973179 96.909585 10.022740
v    18.009058 95.581430 10.753348
v    17.581931 95.290158 10.749379
v    16.302809 94.463615 10.737710
v    15.158431 93.774711 10.345856
v    14.302491 93.433503 10.084979
v    21.190518 100.335957 7.818997
v    20.210752 99.401054 9.008191
v    18.932449 98.208786 10.022740
v    17.207627 96.581901 10.753348
v    16.830153 96.228645 10.749379
v    15.744357 95.160763 10.737710
v    14.822290 94.194335 10.345856
v    14.302491 93.433503 10.084979
v    21.941451 99.783053 8.188276
v    22.966886 99.624911 8.188276
v    22.591123 100.592035 8.188276
v    23.058189 100.216947 10.153000
v    22.032754 100.375089 10.153000
v    22.408517 99.407965 10.153000
v    22.598249 101.185656 9.047883
v    23.515906 101.344095 11.264336
v    25.061380 101.630345 13.678538
v    25.555220 101.690297 14.404752
v    25.946233 101.763517 14.747571
v    27.037623 101.763099 15.639412
v    23.372926 99.191820 9.047883
v    24.156833 99.694499 11.264336
v    25.490159 100.526767 13.678538
v    25.894932 100.815958 14.404752
v    26.232809 101.025938 14.747571
v    27.037623 101.763099 15.639412
mtllib usm_20_Beer_2018-07-21_2.mtl
usemtl APPID_3663598512_1579940116096 
o vid_3 
f 3 2 1
f 4 5 6
f 1 6 5
f 1 5 3
f 3 5 4
f 4 2 3
f 2 4 6
f 6 1 2
usemtl APPID_3663601536_1579940118656 
o vid_4 
f 7 17 18
f 8 18 19
f 9 19 20
f 10 20 21
f 11 21 22
f 12 22 23
f 13 23 24
f 14 24 25
f 7 18 8
f 8 19 9
f 9 20 10
f 10 21 11
f 11 22 12
f 12 23 13
f 13 24 14
f 14 25 15
f 15 25 26
usemtl APPID_3663598512_1579940116096 
o vid_5 
f 29 28 27
f 30 31 32
f 27 32 31
f 27 31 29
f 29 31 30
f 30 28 29
f 28 30 32
f 32 27 28
usemtl APPID_3663601536_1579940118656 
o vid_6 
f 33 41 42
f 34 42 43
f 35 43 44
f 36 44 45
f 37 45 46
f 38 46 47
f 33 42 34
f 34 43 35
f 35 44 36
f 36 45 37
f 37 46 38
f 38 47 39
f 39 47 48
usemtl APPID_3663598512_1579940116096 
o vid_7 
f 51 50 49
f 52 53 54
f 49 54 53
f 49 53 51
f 51 53 52
f 52 50 51
f 50 52 54
f 54 49 50
usemtl APPID_3663601536_1579940118656 
o vid_8 
f 55 61 62
f 56 62 63
f 57 63 64
f 58 64 65
f 55 62 56
f 56 63 57
f 57 64 58
f 58 65 59
f 59 65 66
