# File generated by PlantGL - Wed Jul 15 17:34:51 2026
v    20.701807 19.124129 0.000000
v    24.157353 18.880811 0.000000
v    22.640300 21.995060 0.000000
v    24.297833 20.875871 3.803278
v    20.842287 21.119189 3.803278
v    22.359340 18.004940 3.803278
v    23.911302 21.499000 3.561434
v    24.739242 21.817000 4.340248
v    25.990882 22.314159 5.121910
v    27.247760 22.808299 5.483169
v    27.872917 23.055399 5.478007
v    28.495358 23.283740 5.472927
v    29.055347 23.486425 5.297640
v    29.627426 23.667927 5.121881
v    30.171547 23.754201 4.965905
v    30.219484 23.760501 4.940519
v    24.550226 20.187399 3.561434
v    25.310986 20.643307 4.340248
v    26.473999 21.322404 5.121910
v    27.637862 22.007487 5.483169
v    28.217794 22.347425 5.478007
v    28.781281 22.696789 5.472927
v    29.286069 23.012791 5.297640
v    29.781630 23.351372 5.121881
v    30.184974 23.726639 4.965905
v    30.219484 23.760501 4.940519
v    23.788191 21.032054 3.803278
v    20.961850 20.599735 3.803278
v    22.749419 18.368211 3.803278
v    21.211449 18.967946 8.832458
v    24.037790 19.400265 8.832458
v    22.250221 21.631789 8.832458
v    21.994037 18.173202 8.463179
v    20.867831 17.421109 9.652372
v    19.170809 16.259672 10.845914
v    17.464476 15.101586 11.397530
v    16.671286 14.560683 11.390158
v    15.765136 13.975147 11.381892
v    15.052983 13.519323 11.133021
v    14.261954 13.056586 10.864650
v    13.418921 12.720522 10.607706
v    13.406923 12.716105 10.600993
v    20.606673 19.905127 8.463179
v    19.626907 18.970225 9.652372
v    18.123080 17.567611 10.845914
v    16.620491 16.155180 11.397530
v    15.919508 15.499170 11.390158
v    15.150313 14.742666 11.381892
v    14.550044 14.147169 11.133021
v    13.925814 13.476209 10.864650
v    13.413853 12.726850 10.607706
v    13.406923 12.716105 10.600993
v    21.295026 19.531894 8.832458
v    23.507608 19.190671 8.832458
v    22.696826 21.277435 8.832458
v    23.704614 20.468106 19.757518
v    21.492032 20.809329 19.757518
v    22.302814 18.722565 19.757518
v    22.942984 21.965440 19.214031
v    24.852589 22.533346 20.964228
v    27.748040 23.414375 22.720824
v    28.555626 23.667081 22.947368
v    30.651855 24.294890 23.532666
v    32.722047 24.921011 23.516059
v    33.528329 25.143190 23.509651
v    35.425310 25.657103 22.931179
v    36.740224 25.957370 22.536203
v    38.032453 26.034985 21.998240
v    24.153702 18.849337 19.214031
v    25.945801 19.719676 20.964228
v    28.676544 21.024625 22.720824
v    29.442898 21.383451 22.947368
v    31.413109 22.335600 23.532666
v    33.362974 23.271415 23.516059
v    34.107756 23.651880 23.509651
v    35.854089 24.553526 22.931179
v    37.026800 25.219790 22.536203
v    38.032453 26.034985 21.998240
v    23.434375 20.221074 19.757518
v    21.841086 20.698811 19.757518
v    22.223998 19.080114 19.757518
v    21.565265 19.778926 37.032719
v    23.158554 19.301189 37.032719
v    22.775642 20.919886 37.032719
v    22.329713 17.580463 36.261746
v    19.532303 17.169979 38.744520
v    15.291832 16.498351 41.236370
v    11.036755 15.841571 42.388023
v    9.073007 15.533924 42.372760
v    6.823145 15.238437 42.355374
v    5.087830 15.018161 41.840514
v    3.181624 14.853426 41.280214
v    1.274051 14.975231 40.739045
v    1.262770 14.976253 40.733097
v    21.263693 22.086885 36.261746
v    18.578857 21.200511 38.744520
v    14.486902 19.901056 41.236370
v    10.388542 18.581781 42.388023
v    8.495086 17.976985 42.372760
v    6.351289 17.233127 42.355374
v    4.701202 16.652566 41.840514
v    2.923220 15.945785 41.280214
v    1.272398 14.982221 40.739045
v    1.262770 14.976253 40.733097
v    22.068827 19.507839 37.032719
v    23.141541 19.872829 37.032719
v    22.289093 20.619332 37.032719
v    22.930813 20.492161 59.899000
v    21.858099 20.127171 59.899000
v    22.710547 19.380668 59.899000
v    20.332735 22.077901 57.758772
v    22.828257 24.420130 61.600050
v    25.372870 26.887269 64.285561
v    26.733205 28.167553 65.699124
v    30.795191 32.095551 67.981370
v    34.973846 35.987223 68.638729
v    37.014839 37.739869 68.217482
v    39.297341 39.181474 67.786840
v    24.845480 18.126019 57.758772
v    26.837974 20.908757 61.600050
v    28.947809 23.756638 64.285561
v    30.037418 25.274002 65.699124
v    33.395138 29.818736 67.981370
v    36.701456 34.474327 68.638729
v    38.169492 36.728721 68.217482
v    39.297341 39.181474 67.786840
mtllib usm_2_Beer_2018-08-06_0.mtl
usemtl APPID_2310829520_2287203879008 
o vid_3 
f 3 2 1
f 4 5 6
f 1 6 5
f 1 5 3
f 3 5 4
f 4 2 3
f 2 4 6
f 6 1 2
usemtl APPID_2310829632_2287203877984 
o vid_4 
f 7 17 18
f 8 18 19
f 9 19 20
f 10 20 21
f 11 21 22
f 12 22 23
f 13 23 24
f 14 24 25
f 7 18 8
f 8 19 9
f 9 20 10
f 10 21 11
f 11 22 12
f 12 23 13
f 13 24 14
f 14 25 15
f 15 25 26
usemtl APPID_2310829520_2287203879008 
o vid_5 
f 29 28 27
f 30 31 32
f 27 32 31
f 27 31 29
f 29 31 30
f 30 28 29
f 28 30 32
f 32 27 28
usemtl APPID_2310829632_2287203877984 
o vid_6 
f 33 43 44
f 34 44 45
f 35 45 46
f 36 46 47
f 37 47 48
f 38 48 49
f 39 49 50
f 40 50 51
f 33 44 34
f 34 45 35
f 35 46 36
f 36 47 37
f 37 48 38
f 38 49 39
f 39 50 40
f 40 51 41
f 41 51 52
usemtl APPID_2310829520_2287203879008 
o vid_7 
f 55 54 53
f 56 57 58
f 53 58 57
f 53 57 55
f 55 57 56
f 56 54 55
f 54 56 58
f 58 53 54
usemtl APPID_2310829632_2287203877984 
o vid_8 
f 59 69 70
f 60 70 71
f 61 71 72
f 62 72 73
f 63 73 74
f 64 74 75
f 65 75 76
f 66 76 77
f 59 70 60
f 60 71 61
f 61 72 62
f 62 73 63
f 63 74 64
f 64 75 65
f 65 76 66
f 66 77 67
f 67 77 78
usemtl APPID_2310829520_2287203879008 
o vid_9 
f 81 80 79
f 82 83 84
f 79 84 83
f 79 83 81
f 81 83 82
f 82 80 81
f 80 82 84
f 84 79 80
usemtl APPID_2310829632_2287203877984 
o vid_10 
f 85 95 96
f 86 96 97
f 87 97 98
f 88 98 99
f 89 99 100
f 90 100 101
f 91 101 102
f 92 102 103
f 85 96 86
f 86 97 87
f 87 98 88
f 88 99 89
f 89 100 90
f 90 101 91
f 91 102 92
f 92 103 93
f 93 103 104
usemtl APPID_2310829520_2287203879008 
o vid_11 
f 107 106 105
f 108 109 110
f 105 110 109
f 105 109 107
f 107 109 108
f 108 106 107
f 106 108 110
f 110 105 106
usemtl APPID_2310829632_2287203877984 
o vid_12 
f 111 119 120
f 112 120 121
f 113 121 122
f 114 122 123
f 115 123 124
f 116 124 125
f 111 120 112
f 112 121 113
f 113 122 114
f 114 123 115
f 115 124 116
f 116 125 117
f 117 125 126
