# File generated by PlantGL - Wed Jul 15 17:36:30 2026
v    20.701807 19.124129 0.000000
v    24.157353 18.880811 0.000000
v    22.640300 21.995060 0.000000
v    24.297833 20.875871 3.802806
v    20.842287 21.119189 3.802806
v    22.359340 18.004940 3.802806
v    23.894383 21.518628 3.539517
v    24.795737 21.864825 4.387391
v    25.755549 22.246069 4.986803
v    26.160972 22.400712 5.238364
v    27.529866 22.937505 5.631656
v    28.894756 23.441421 5.620506
v    29.575419 23.659958 5.411052
v    30.224285 23.762840 5.225052
v    24.555252 20.161978 3.539517
v    25.383470 20.658311 4.387391
v    26.275318 21.179073 4.986803
v    26.646999 21.402982 5.238364
v    27.913498 22.149975 5.631656
v    29.151640 22.914082 5.620506
v    29.743297 23.315334 5.411052
v    30.224285 23.762840 5.225052
v    23.995716 21.198293 3.802806
v    20.714120 20.696338 3.802806
v    22.789624 18.105369 3.802806
v    21.003924 18.801707 8.831485
v    24.285520 19.303662 8.831485
v    22.210016 21.894631 8.831485
v    21.810752 17.989752 8.435758
v    20.603887 17.183794 9.710122
v    19.278252 16.276533 10.642461
v    18.780190 15.945583 10.989145
v    16.950963 14.705412 11.580268
v    15.117699 13.513549 11.563510
v    14.141406 12.935351 11.230974
v    13.224164 12.569705 10.951412
v    20.387642 19.766300 8.435758
v    19.337705 18.764440 9.710122
v    18.162985 17.668784 10.642461
v    17.731307 17.254962 10.989145
v    16.121789 15.740516 11.580268
v    14.558534 14.211586 11.563510
v    13.781191 13.385028 11.230974
v    13.224164 12.569705 10.951412
v    20.790941 19.336039 8.831485
v    23.929266 18.852048 8.831485
v    22.779253 21.811913 8.831485
v    24.208699 20.663961 19.751381
v    21.070374 21.147952 19.751381
v    22.220387 18.188087 19.751381
v    23.422220 22.199194 19.177304
v    25.443184 22.789085 21.026011
v    28.497359 23.718411 22.878900
v    31.572865 24.639465 23.739011
v    32.868258 25.031251 23.728619
v    34.619650 25.513865 23.714701
v    35.759237 25.822591 23.367191
v    37.148160 26.139758 22.949985
v    38.576647 26.246424 22.544428
v    24.665044 19.000459 19.177304
v    26.554133 19.929764 21.026011
v    29.434571 21.306248 22.878900
v    32.325160 22.703235 23.739011
v    33.545259 23.288808 23.728619
v    35.163063 24.115248 23.714701
v    36.212150 24.656899 23.367191
v    37.450866 25.360665 22.949985
v    38.576647 26.246424 22.544428
v    24.008539 20.356896 19.751381
v    21.436379 21.128141 19.751381
v    22.054542 18.514963 19.751381
v    20.991101 19.643104 37.004359
v    23.563261 18.871859 37.004359
v    22.945098 21.485037 37.004359
v    21.773315 17.413546 36.200543
v    18.856739 16.985576 38.789079
v    15.135362 16.396165 40.975892
v    9.996585 15.612027 42.587791
v    8.927304 15.444510 42.579480
v    5.597797 15.007227 42.553751
v    2.745481 14.725685 41.712969
v    0.743839 14.853497 41.145113
v    20.691481 21.986822 36.200543
v    17.892274 21.062690 38.789079
v    14.301233 19.922307 40.975892
v    9.355771 18.320960 42.587791
v    8.324766 17.991642 42.579480
v    5.152221 16.890827 42.553751
v    2.476069 15.864577 41.712969
v    0.743839 14.853497 41.145113
v    21.698632 19.085105 37.004359
v    23.692736 19.763598 37.004359
v    22.108092 21.151296 37.004359
v    23.301008 20.914895 60.161104
v    21.306904 20.236402 60.161104
v    22.891548 18.848704 60.161104
v    20.486518 22.934160 59.074792
v    21.412710 23.873327 60.235389
v    22.269973 24.742599 61.309612
v    23.307927 25.738995 62.573056
v    27.623977 29.977686 66.084109
v    30.465229 32.812361 67.158594
v    31.933822 34.242032 67.706805
v    36.215218 38.432583 67.660802
v    40.787141 42.678720 65.823724
v    41.931918 43.653729 65.383371
v    44.924822 45.607623 63.477938
v    25.673963 18.391432 59.074792
v    26.482718 19.433440 60.235389
v    27.231284 20.397900 61.309612
v    28.082021 21.558244 62.573056
v    31.714198 26.395815 66.084109
v    34.149217 29.586235 67.158594
v    35.372623 31.230619 67.706805
v    38.961652 36.027487 67.660802
v    42.567449 41.119676 65.823724
v    43.382893 42.383087 65.383371
v    44.924822 45.607623 63.477938
v    23.265060 20.488584 60.161104
v    21.694074 20.418425 60.161104
v    22.540326 19.092991 60.161104
v    21.734580 19.511416 120.608341
v    23.305566 19.581575 120.608341
v    22.459314 20.907009 120.608341
v    24.550971 15.912521 119.191357
v    21.519282 14.220613 122.246162
v    13.056582 9.673693 128.334300
v    7.475178 6.617986 130.037826
v    -0.778651 2.205988 130.390935
v    -2.584081 1.247485 129.787837
v    -9.042865 -1.970261 127.663944
v    -15.210393 -4.076895 124.370442
v    19.655021 23.580758 119.191357
v    16.844439 21.542542 122.246162
v    9.158505 15.779020 128.334300
v    4.037805 12.001739 130.037826
v    -3.437839 6.370917 130.390935
v    -5.067090 5.136475 129.787837
v    -10.703995 0.631469 127.663944
v    -15.210393 -4.076895 124.370442
v    21.992121 19.634202 120.608341
v    23.070460 19.743219 120.608341
v    22.436879 20.622580 120.608341
v    23.007519 20.365798 156.926295
v    21.929180 20.256781 156.926295
v    22.562761 19.377420 156.926295
v    19.516933 24.269068 155.142326
v    25.135819 27.620149 160.887261
v    32.182342 31.932157 165.682046
v    42.143750 37.949760 169.318029
v    44.095044 39.139322 169.300480
v    50.654355 42.918103 169.242482
v    56.168090 45.858744 167.409517
v    60.381787 47.294046 166.149232
v    25.605128 15.819137 155.142326
v    30.562535 20.088299 160.887261
v    36.883370 25.407504 165.682046
v    45.744794 32.951796 169.318029
v    47.490864 34.426194 169.300480
v    53.151667 39.452033 169.242482
v    57.686454 43.751376 167.409517
v    60.381787 47.294046 166.149232
v    22.809559 20.201722 156.926295
v    22.170254 20.167380 156.926295
v    22.519647 19.630897 156.926295
v    22.190081 19.798278 161.809000
v    22.829386 19.832620 161.809000
v    22.479993 20.369103 161.809000
v    23.561985 16.947722 157.643323
v    22.784408 17.367525 165.237196
v    22.419722 17.627014 168.184662
v    21.678939 17.582090 170.702045
v    19.695046 18.173344 175.928863
v    20.137675 22.205644 157.643323
v    20.207217 21.324722 165.237196
v    20.297088 20.886254 168.184662
v    19.956466 20.226895 170.702045
v    19.695046 18.173344 175.928863
mtllib usm_12_2.5D_2018-08-19_0.mtl
usemtl APPID_3776988480_2817002758112 
o vid_3 
f 3 2 1
f 4 5 6
f 1 6 5
f 1 5 3
f 3 5 4
f 4 2 3
f 2 4 6
f 6 1 2
usemtl APPID_3776985008_2817002757984 
o vid_4 
f 7 15 16
f 8 16 17
f 9 17 18
f 10 18 19
f 11 19 20
f 12 20 21
f 7 16 8
f 8 17 9
f 9 18 10
f 10 19 11
f 11 20 12
f 12 21 13
f 13 21 22
usemtl APPID_3776988480_2817002758112 
o vid_5 
f 25 24 23
f 26 27 28
f 23 28 27
f 23 27 25
f 25 27 26
f 26 24 25
f 24 26 28
f 28 23 24
usemtl APPID_3776985008_2817002757984 
o vid_6 
f 29 37 38
f 30 38 39
f 31 39 40
f 32 40 41
f 33 41 42
f 34 42 43
f 29 38 30
f 30 39 31
f 31 40 32
f 32 41 33
f 33 42 34
f 34 43 35
f 35 43 44
usemtl APPID_3776988480_2817002758112 
o vid_7 
f 47 46 45
f 48 49 50
f 45 50 49
f 45 49 47
f 47 49 48
f 48 46 47
f 46 48 50
f 50 45 46
usemtl APPID_3776985008_2817002757984 
o vid_8 
f 51 60 61
f 52 61 62
f 53 62 63
f 54 63 64
f 55 64 65
f 56 65 66
f 57 66 67
f 51 61 52
f 52 62 53
f 53 63 54
f 54 64 55
f 55 65 56
f 56 66 57
f 57 67 58
f 58 67 68
usemtl APPID_3776988480_2817002758112 
o vid_9 
f 71 70 69
f 72 73 74
f 69 74 73
f 69 73 71
f 71 73 72
f 72 70 71
f 70 72 74
f 74 69 70
usemtl APPID_3776985008_2817002757984 
o vid_10 
f 75 83 84
f 76 84 85
f 77 85 86
f 78 86 87
f 79 87 88
f 80 88 89
f 75 84 76
f 76 85 77
f 77 86 78
f 78 87 79
f 79 88 80
f 80 89 81
f 81 89 90
usemtl APPID_3776988480_2817002758112 
o vid_11 
f 93 92 91
f 94 95 96
f 91 96 95
f 91 95 93
f 93 95 94
f 94 92 93
f 92 94 96
f 96 91 92
usemtl APPID_3776985008_2817002757984 
o vid_12 
f 97 108 109
f 98 109 110
f 99 110 111
f 100 111 112
f 101 112 113
f 102 113 114
f 103 114 115
f 104 115 116
f 105 116 117
f 97 109 98
f 98 110 99
f 99 111 100
f 100 112 101
f 101 113 102
f 102 114 103
f 103 115 104
f 104 116 105
f 105 117 106
f 106 117 118
usemtl APPID_3776988480_2817002758112 
o vid_13 
f 121 120 119
f 122 123 124
f 119 124 123
f 119 123 121
f 121 123 122
f 122 120 121
f 120 122 124
f 124 119 120
usemtl APPID_3776985008_2817002757984 
o vid_14 
f 125 133 134
f 126 134 135
f 127 135 136
f 128 136 137
f 129 137 138
f 130 138 139
f 125 134 126
f 126 135 127
f 127 136 128
f 128 137 129
f 129 138 130
f 130 139 131
f 131 139 140
usemtl APPID_3776988480_2817002758112 
o vid_15 
f 143 142 141
f 144 145 146
f 141 146 145
f 141 145 143
f 143 145 144
f 144 142 143
f 142 144 146
f 146 141 142
usemtl APPID_3776985008_2817002757984 
o vid_16 
f 147 155 156
f 148 156 157
f 149 157 158
f 150 158 159
f 151 159 160
f 152 160 161
f 147 156 148
f 148 157 149
f 149 158 150
f 150 159 151
f 151 160 152
f 152 161 153
f 153 161 162
usemtl APPID_3776988480_2817002758112 
o vid_17 
f 165 164 163
f 166 167 168
f 163 168 167
f 163 167 165
f 165 167 166
f 166 164 165
f 164 166 168
f 168 163 164
usemtl APPID_3776985008_2817002757984 
o vid_18 
f 169 174 175
f 170 175 176
f 171 176 177
f 169 175 170
f 170 176 171
f 171 177 172
f 172 177 178
