# File generated by PlantGL - Wed Jul 15 17:36:54 2026
v    20.252304 258.905161 0.000000
v    24.571736 258.601013 0.000000
v    22.675420 262.493825 0.000000
v    24.747336 261.094839 2.682187
v    20.427904 261.398987 2.682187
v    22.324220 257.506175 2.682187
v    24.669590 261.321077 2.593550
v    24.802137 261.365820 2.821393
v    24.877554 260.894161 2.593550
v    24.994491 260.970951 2.821393
v    24.379104 261.505407 2.682187
v    20.256458 260.874804 2.682187
v    22.863898 257.619789 2.682187
v    20.620536 258.494593 4.602934
v    24.743182 259.125196 4.602934
v    22.135742 262.380211 4.602934
v    20.802594 258.199875 4.474864
v    20.640245 258.100867 4.784565
v    20.372659 258.736587 4.474864
v    20.240603 258.599761 4.784565
v    20.341236 259.161313 4.602934
v    24.305436 258.549955 4.602934
v    22.852788 262.288732 4.602934
v    24.658404 260.838687 7.454389
v    20.694204 261.450045 7.454389
v    22.146852 257.711268 7.454389
v    24.559293 261.258505 7.273192
v    24.738106 261.304240 7.574076
v    24.868732 260.462082 7.273192
v    25.031517 260.549069 7.574076
v    24.663782 260.511898 7.454389
v    20.974522 261.618097 7.454389
v    21.861155 257.870005 7.454389
v    20.335858 259.488102 12.006019
v    24.025118 258.381903 12.006019
v    23.138485 262.129995 12.006019
v    20.382109 258.933557 11.754992
v    20.325632 258.927199 11.847640
v    20.128748 260.004596 11.754992
v    20.075409 259.984976 11.847640
v    21.095515 258.396392 12.006019
v    24.590737 259.585640 12.006019
v    21.813207 262.017967 12.006019
v    23.904125 261.603608 16.421928
v    20.408903 260.414360 16.421928
v    23.186433 257.982033 16.421928
v    23.415340 262.180675 16.081398
v    23.473542 262.232906 16.208882
v    24.540637 261.195235 16.081398
v    24.584733 261.259819 16.208882
v    24.218802 261.097521 16.421928
v    20.689848 260.939922 16.421928
v    22.590810 257.962557 16.421928
v    20.780838 258.902479 35.676141
v    24.309792 259.060078 35.676141
v    22.408830 262.037443 35.676141
v    21.201714 257.966540 35.223809
v    21.031905 257.884921 35.530946
v    20.108912 259.678130 35.223809
v    19.963414 259.558434 35.530946
v    20.919840 258.861621 35.676141
v    24.275675 259.200887 35.676141
v    22.303945 261.937492 35.676141
v    24.079800 261.138379 53.193347
v    20.723965 260.799113 53.193347
v    22.695695 258.062508 53.193347
v    23.510349 262.260097 52.605011
v    23.726753 262.379495 53.007925
v    23.849726 262.444181 53.233848
v    24.963576 260.243133 52.605011
v    25.145336 260.410614 53.007925
v    25.245623 260.506787 53.233848
v    24.054453 261.012481 53.193347
v    20.845669 260.840111 53.193347
v    22.599338 258.147408 53.193347
v    20.945187 258.987519 80.187012
v    24.153971 259.159889 80.187012
v    22.400302 261.852592 80.187012
v    21.619068 257.500734 79.437704
v    21.107893 257.249325 80.366350
v    21.062444 257.228086 80.447918
v    19.857847 260.205033 79.437704
v    19.421216 259.839167 80.366350
v    19.383413 259.806187 80.447918
v    20.957943 259.144816 80.187012
v    24.011370 259.092287 80.187012
v    22.530147 261.762897 80.187012
v    24.041697 260.855184 115.983293
v    20.988270 260.907713 115.983293
v    22.469493 258.237103 115.983293
v    23.255132 262.907668 115.048830
v    24.086673 263.245807 116.512194
v    25.366370 259.101156 115.048830
v    26.093513 259.627523 116.512194
v    24.114715 260.429572 115.983293
v    21.320352 261.183754 115.983293
v    22.064393 258.386674 115.983293
v    20.884925 259.570428 146.338085
v    23.679288 258.816246 146.338085
v    22.935247 261.613326 146.338085
v    21.165317 257.054835 145.196968
v    20.292026 256.931941 146.634629
v    19.878373 261.892858 145.196968
v    19.059441 261.565610 146.634629
v    21.041526 259.394647 146.338085
v    23.753218 259.039757 146.338085
v    22.704716 261.565597 146.338085
v    23.958114 260.605353 179.402515
v    21.246422 260.960243 179.402515
v    22.294924 258.434403 179.402515
v    23.142009 263.743118 178.038044
v    24.248730 264.053330 179.911747
v    25.604053 257.812060 178.038044
v    26.605112 258.376810 179.911747
v    23.647956 260.944713 179.402515
v    21.107606 260.521958 179.402515
v    22.743898 258.533328 179.402515
v    21.351684 259.055287 201.056038
v    23.892034 259.478042 201.056038
v    22.255742 261.466672 201.056038
v    23.233216 255.940763 199.458448
v    22.274681 255.328636 201.312493
v    18.657803 261.501391 199.458448
v    17.872540 260.678681 201.312493
v    21.536143 258.991726 201.056038
v    23.854850 259.669568 201.056038
v    22.108468 261.338706 201.056038
v    23.463497 261.008274 220.272755
v    21.144790 260.330432 220.272755
v    22.891172 258.661294 220.272755
v    20.695121 264.488393 218.441145
v    20.747093 264.530443 218.550025
v    21.169027 264.877144 219.440280
v    27.065211 258.400059 218.441145
v    27.104868 258.453878 218.550025
v    27.432140 258.891054 219.440280
v    23.412132 260.929805 220.272755
v    21.238430 260.325183 220.272755
v    22.848899 258.745013 220.272755
v    21.587508 259.070195 231.610387
v    23.761210 259.674817 231.610387
v    22.150741 261.254987 231.610387
v    24.462026 255.301305 229.554180
v    23.298891 254.370846 231.982368
v    17.764709 261.872621 229.554180
v    16.856507 260.692025 231.982368
v    21.688766 259.101354 231.610387
v    23.683598 259.746930 231.610387
v    22.127097 261.151717 231.610387
v    23.310874 260.898646 239.748261
v    21.316042 260.253070 239.748261
v    22.872543 258.848283 239.748261
v    19.749545 265.115320 237.487953
v    24.814695 269.522359 248.432568
v    26.438567 270.968286 250.810354
v    27.869426 257.786893 237.487953
v    31.735750 263.275907 248.432568
v    33.008153 265.039045 250.810354
v    23.597632 260.213714 239.748261
v    21.765832 260.843876 239.748261
v    22.135996 258.942409 239.748261
v    21.402008 259.786286 243.641404
v    23.233808 259.156124 243.641404
v    22.863644 261.057591 243.641404
v    21.637452 254.384816 241.208446
v    18.897545 254.186955 245.686654
v    14.400627 253.952187 253.008359
v    19.594007 264.881621 241.208446
v    16.979966 264.037213 245.686654
v    12.723379 262.567910 253.008359
v    21.708135 259.346885 243.641404
v    23.461277 259.640938 243.641404
v    22.330048 261.012177 243.641404
v    23.291505 260.653115 246.312254
v    21.538363 260.359062 246.312254
v    22.669592 258.987823 246.312254
v    20.429396 265.449191 243.747957
v    22.062682 266.495159 246.909723
v    27.227569 269.659447 256.758286
v    28.187805 270.296943 257.911991
v    27.456147 256.931587 243.747957
v    28.793488 258.336291 246.909723
v    32.881786 262.805585 256.758286
v    33.690174 263.627148 257.911991
v    23.246855 260.560971 246.312254
v    21.640487 260.366465 246.312254
v    22.612118 259.072563 246.312254
v    21.752785 259.439029 248.024375
v    23.359153 259.633535 248.024375
v    22.387522 260.927437 248.024375
v    24.594700 254.203424 245.377895
v    21.451786 252.387527 251.295158
v    17.407211 250.156980 258.805188
v    13.613464 247.880850 263.233653
v    12.841048 247.452397 264.114164
v    17.517350 263.628197 245.377895
v    14.897062 261.116330 251.295158
v    11.627137 257.854195 258.805188
v    8.383382 254.845651 263.233653
v    7.756532 254.223352 264.114164
v    21.810071 259.516898 248.024375
v    23.263073 259.644211 248.024375
v    22.426316 260.838891 248.024375
v    23.189569 260.483102 248.777052
v    21.736567 260.355789 248.777052
v    22.573324 259.161109 248.777052
v    20.663869 265.624076 246.102597
v    21.724442 266.190887 248.062962
v    28.087153 269.430031 259.671827
v    29.079965 269.981851 260.808791
v    31.363605 271.151467 263.366463
v    27.157746 256.352443 246.102597
v    28.052901 257.155430 248.062962
v    33.271600 262.027938 259.671827
v    34.129508 262.772367 260.808791
v    36.009181 264.518746 263.366463
v    23.110369 260.435580 248.777052
v    21.817322 260.310961 248.777052
v    22.571769 259.253459 248.777052
v    21.889271 259.564420 249.447000
v    23.182318 259.689039 249.447000
v    22.427871 260.746541 249.447000
v    24.791731 253.995758 246.800521
v    19.219868 250.955455 257.147962
v    17.539354 250.081481 260.227813
v    10.493852 246.085028 268.335720
v    7.592284 244.566982 271.600111
v    17.568157 264.120979 246.800521
v    12.880214 259.841692 257.147962
v    11.506960 258.537035 260.227813
v    5.435378 253.175447 268.335720
v    3.055769 250.925775 271.600111
v    24.802137 261.365820 2.821393
v    24.852820 261.382928 2.908513
v    24.930934 261.409957 3.043262
v    25.142408 261.490626 3.270143
v    25.293966 261.545880 3.431616
v    25.518175 261.632582 3.568642
v    25.803022 261.733753 3.740478
v    26.057928 261.827937 3.796233
v    26.436831 261.917847 3.874586
v    24.994491 260.970951 2.821393
v    25.039205 261.000313 2.908513
v    25.108639 261.045159 3.043262
v    25.302516 261.161951 3.270143
v    25.439449 261.247229 3.431616
v    25.645927 261.370329 3.568642
v    25.901177 261.532258 3.740478
v    26.132470 261.674917 3.796233
v    26.436831 261.917847 3.874586
v    20.640245 258.100867 4.784565
v    20.558886 258.051250 4.939766
v    20.462510 257.991469 5.124649
v    20.183357 257.805971 5.460620
v    19.994184 257.684267 5.685779
v    19.697463 257.485135 5.889473
v    19.336682 257.257252 6.132051
v    18.997904 257.037222 6.214932
v    18.492489 256.789915 6.328145
v    20.240603 258.599761 4.784565
v    20.174426 258.531194 4.939766
v    20.095051 258.450189 5.124649
v    19.853097 258.218253 5.460620
v    19.693039 258.060204 5.685779
v    19.433945 257.814099 5.889473
v    19.132812 257.511754 6.132051
v    18.844145 257.229167 6.214932
v    18.492489 256.789915 6.328145
v    24.738106 261.304240 7.574076
v    24.991797 261.369128 8.000955
v    25.106501 261.396043 8.192523
v    25.656903 261.546527 8.763680
v    25.874315 261.598104 8.986423
v    26.683172 261.812031 9.462039
v    26.961925 261.846512 9.617819
v    27.437716 261.918550 9.714641
v    25.031517 260.549069 7.574076
v    25.262469 260.672483 8.000955
v    25.365255 260.730070 8.192523
v    25.872875 260.990666 8.763680
v    26.068077 261.099404 8.986423
v    26.809188 261.487695 9.462039
v    27.038098 261.650460 9.617819
v    27.437716 261.918550 9.714641
v    20.325632 258.927199 11.847640
v    20.111932 258.903140 12.198215
v    19.603383 258.856131 13.028613
v    19.284341 258.814879 13.350623
v    18.507535 258.741152 14.128467
v    17.930471 258.671416 14.458894
v    16.949194 258.686359 15.003189
v    16.946485 258.686327 15.003734
v    20.075409 259.984976 11.847640
v    19.873578 259.910738 12.198215
v    19.397867 259.724915 13.028613
v    19.094156 259.618851 13.350623
v    18.366649 259.336725 14.128467
v    17.819501 259.140521 14.458894
v    16.948922 258.687511 15.003189
v    16.946485 258.686327 15.003734
v    23.473542 262.232906 16.208882
v    23.698451 262.434741 16.701518
v    24.214409 262.879526 17.809127
v    24.545829 263.186955 18.261619
v    25.333983 263.869762 19.301132
v    25.930775 264.414180 19.760340
v    27.010217 265.159099 20.487735
v    27.031082 265.174352 20.492935
v    24.584733 261.259819 16.208882
v    24.755129 261.509392 16.701518
v    25.127950 262.079524 17.809127
v    25.388963 262.448609 18.261619
v    25.961812 263.319962 19.301132
v    26.422730 263.983367 19.760340
v    27.018716 265.151657 20.487735
v    27.031082 265.174352 20.492935
v    21.031905 257.884921 35.530946
v    20.581588 257.668476 36.345445
v    19.925084 257.368883 37.518781
v    19.167244 256.989128 38.367269
v    18.134073 256.514582 39.500636
v    16.897258 255.907640 40.283816
v    15.540339 255.456893 41.076821
v    15.178944 255.325830 41.154169
v    19.963414 259.558434 35.530946
v    19.577568 259.241013 36.345445
v    19.029528 258.771540 37.518781
v    18.366126 258.243871 38.367269
v    17.500872 257.506328 39.500636
v    16.429819 256.639762 40.283816
v    15.449917 255.598515 41.076821
v    15.178944 255.325830 41.154169
v    23.849726 262.444181 53.233848
v    25.132226 263.118799 55.590020
v    27.413302 264.334527 58.167766
v    28.033881 264.683554 58.572511
v    30.177854 265.532042 59.851326
v    25.245623 260.506787 53.233848
v    26.291523 261.509787 55.590020
v    28.166805 263.288724 58.167766
v    28.694328 263.766907 58.572511
v    30.177854 265.532042 59.851326
v    21.062444 257.228086 80.447918
v    19.507046 256.501232 83.239428
v    18.943670 256.212525 83.873085
v    16.538642 255.081439 86.522459
v    15.348454 254.483973 87.279501
v    12.570038 253.533064 88.908207
v    19.383413 259.806187 80.447918
v    18.089706 258.677514 83.239428
v    17.597853 258.278986 83.873085
v    15.590888 256.536686 86.522459
v    14.563192 255.689719 87.279501
v    12.570038 253.533064 88.908207
v    24.086673 263.245807 116.512194
v    25.180750 263.690704 118.437574
v    25.957328 263.988598 119.789961
v    28.386422 265.023336 122.432823
v    29.744539 265.548131 123.884230
v    33.384040 267.062806 126.125177
v    35.153598 267.531434 127.140436
v    37.123566 268.110893 127.553593
v    26.093513 259.627523 116.512194
v    27.050230 260.320076 118.437574
v    27.714130 260.821126 119.789961
v    29.878099 262.333878 122.432823
v    31.042402 263.208115 123.884230
v    34.254409 265.493550 126.125177
v    35.588921 266.746559 127.140436
v    37.123566 268.110893 127.553593
v    20.292026 256.931941 146.634629
v    17.636566 256.604708 150.986586
v    16.174319 256.374300 152.468311
v    12.671618 255.943675 155.986290
v    10.036346 255.550885 157.500897
v    5.598132 255.495524 159.962596
v    5.560472 255.494029 159.970179
v    19.059441 261.565610 146.634629
v    16.592357 260.530215 150.986586
v    15.208891 260.003645 152.468311
v    11.955171 258.637022 155.986290
v    9.473034 257.668549 157.500897
v    5.593897 255.511443 159.962596
v    5.560472 255.494029 159.970179
v    24.248730 264.053330 179.911747
v    26.329537 264.636577 183.434601
v    27.238275 264.871867 184.960885
v    31.289395 266.079734 189.192340
v    32.984740 266.523127 190.939199
v    38.954977 268.249208 194.472061
v    41.134413 268.569579 195.693802
v    44.607002 269.176921 196.403106
v    26.605112 258.376810 179.911747
v    28.487260 259.438627 183.434601
v    29.295480 259.916065 184.960885
v    33.011064 261.932236 189.192340
v    34.522024 262.819814 190.939199
v    39.959543 265.829210 194.472061
v    41.725159 267.146472 195.693802
v    44.607002 269.176921 196.403106
v    22.274681 255.328636 201.312493
v    21.083873 254.568178 203.615813
v    19.011678 253.302278 207.564050
v    16.379826 251.559844 210.723492
v    13.097286 249.543483 214.563756
v    8.849812 246.781995 217.443735
v    4.468621 244.714110 220.130678
v    3.051581 243.997536 220.450174
v    17.872540 260.678681 201.312493
v    16.896992 259.656611 203.615813
v    15.255727 257.866990 207.564050
v    13.039071 255.619957 210.723492
v    10.428305 252.787169 214.563756
v    6.900535 249.151005 217.443735
v    4.027633 245.250054 220.130678
v    3.051581 243.997536 220.450174
v    21.169027 264.877144 219.440280
v    24.742176 267.813187 226.979418
v    30.249279 272.470310 234.489060
v    38.665524 279.459106 241.253882
v    45.224974 283.776828 243.399634
v    27.432140 258.891054 219.440280
v    30.203646 262.593284 226.979418
v    34.607041 268.305296 234.489060
v    41.208208 277.028887 241.253882
v    45.224974 283.776828 243.399634
v    23.298891 254.370846 231.982368
v    21.525918 252.952543 235.683668
v    19.426815 251.340889 239.986644
v    15.798933 248.339375 244.699781
v    12.387164 245.706564 248.995742
v    6.710917 241.089395 253.155177
v    2.083521 238.268958 256.160752
v    -0.400167 236.660916 256.756074
v    16.856507 260.692025 231.982368
v    15.472129 258.892437 235.683668
v    13.900629 256.763106 239.986644
v    10.968553 253.078877 244.699781
v    8.401009 249.617725 248.995742
v    3.892469 243.854818 253.155177
v    1.160418 239.174693 256.160752
v    -0.400167 236.660916 256.756074
v    26.438567 270.968286 250.810354
v    31.502893 275.526830 257.630757
v    32.446343 276.319759 258.859293
v    41.690554 284.502469 265.877286
v    42.977156 285.362195 266.735504
v    49.665377 290.099376 268.384557
v    33.008153 265.039045 250.810354
v    37.025273 270.542723 257.630757
v    37.717633 271.562268 258.859293
v    44.912773 281.594323 265.877286
v    45.636511 282.962049 266.735504
v    49.665377 290.099376 268.384557
v    14.400627 253.952187 253.008359
v    10.809977 253.645563 256.824897
v    3.410418 253.241072 264.212208
v    -2.391094 252.774532 267.520806
v    -11.697238 253.289168 272.690034
v    -11.937839 253.295919 272.738463
v    12.723379 262.567910 253.008359
v    9.279921 261.505184 256.824897
v    2.268997 259.104343 264.212208
v    -3.283857 257.360494 267.520806
v    -11.717341 253.392433 272.690034
v    -11.937839 253.295919 272.738463
v    28.187805 270.296943 257.911991
v    29.021196 270.850227 258.913293
v    36.776612 275.627793 267.993535
v    40.580433 278.107760 270.574844
v    49.663276 282.408984 276.148632
v    33.690174 263.627148 257.911991
v    34.391775 264.340183 258.913293
v    40.556325 271.046145 267.993535
v    43.714079 274.309255 270.574844
v    49.663276 282.408984 276.148632
v    12.841048 247.452397 264.114164
v    7.326440 244.393491 270.400513
v    0.948713 240.638897 274.607624
v    -7.391339 237.146315 279.622369
v    -8.750494 236.533186 279.922374
v    7.756532 254.223352 264.114164
v    3.281178 249.780491 270.400513
v    -2.102955 244.702745 274.607624
v    -7.782677 237.667452 279.622369
v    -8.750494 236.533186 279.922374
v    31.363605 271.151467 263.366463
v    38.527239 274.820481 271.389723
v    41.484868 276.432296 273.304487
v    51.281572 280.158819 279.117715
v    36.009181 264.518746 263.366463
v    41.905599 269.997029 271.389723
v    44.431194 272.225679 273.304487
v    51.281572 280.158819 279.117715
v    7.592284 244.566982 271.600111
v    -3.032877 238.662943 278.605859
v    -7.129684 237.063725 281.044994
v    -13.299778 234.459712 282.392475
v    3.055769 250.925775 271.600111
v    -5.984415 242.800088 278.605859
v    -8.829713 239.446642 281.044994
v    -13.299778 234.459712 282.392475
mtllib usm_12_2.5D_2018-09-27_6.mtl
usemtl APPID_3776982992_2817002676832 
o vid_3 
f 3 2 1
f 4 5 6
f 1 6 5
f 1 5 3
f 3 5 4
f 4 2 3
f 2 4 6
f 6 1 2
usemtl APPID_3776980640_2817002678752 
o vid_4 
f 7 9 10
f 7 10 8
f 7 9 10
f 7 10 8
usemtl APPID_3776982992_2817002676832 
o vid_5 
f 13 12 11
f 14 15 16
f 11 16 15
f 11 15 13
f 13 15 14
f 14 12 13
f 12 14 16
f 16 11 12
usemtl APPID_3776980640_2817002678752 
o vid_6 
f 17 19 20
f 17 20 18
f 17 19 20
f 17 20 18
usemtl APPID_3776982992_2817002676832 
o vid_7 
f 23 22 21
f 24 25 26
f 21 26 25
f 21 25 23
f 23 25 24
f 24 22 23
f 22 24 26
f 26 21 22
usemtl APPID_3776980640_2817002678752 
o vid_8 
f 27 29 30
f 27 30 28
f 27 29 30
f 27 30 28
usemtl APPID_3776982992_2817002676832 
o vid_9 
f 33 32 31
f 34 35 36
f 31 36 35
f 31 35 33
f 33 35 34
f 34 32 33
f 32 34 36
f 36 31 32
usemtl APPID_3776980640_2817002678752 
o vid_10 
f 37 39 40
f 37 40 38
f 37 39 40
f 37 40 38
usemtl APPID_3776982992_2817002676832 
o vid_11 
f 43 42 41
f 44 45 46
f 41 46 45
f 41 45 43
f 43 45 44
f 44 42 43
f 42 44 46
f 46 41 42
usemtl APPID_3776980640_2817002678752 
o vid_12 
f 47 49 50
f 47 50 48
f 47 49 50
f 47 50 48
usemtl APPID_3776982992_2817002676832 
o vid_13 
f 53 52 51
f 54 55 56
f 51 56 55
f 51 55 53
f 53 55 54
f 54 52 53
f 52 54 56
f 56 51 52
usemtl APPID_3776980640_2817002678752 
o vid_14 
f 57 59 60
f 57 60 58
f 57 59 60
f 57 60 58
usemtl APPID_3776982992_2817002676832 
o vid_15 
f 63 62 61
f 64 65 66
f 61 66 65
f 61 65 63
f 63 65 64
f 64 62 63
f 62 64 66
f 66 61 62
usemtl APPID_3776980640_2817002678752 
o vid_16 
f 67 70 71
f 67 71 68
f 68 71 72
f 68 72 69
usemtl APPID_3776982992_2817002676832 
o vid_17 
f 75 74 73
f 76 77 78
f 73 78 77
f 73 77 75
f 75 77 76
f 76 74 75
f 74 76 78
f 78 73 74
usemtl APPID_3776980640_2817002678752 
o vid_18 
f 79 82 83
f 79 83 80
f 80 83 84
f 80 84 81
usemtl APPID_3776982992_2817002676832 
o vid_19 
f 87 86 85
f 88 89 90
f 85 90 89
f 85 89 87
f 87 89 88
f 88 86 87
f 86 88 90
f 90 85 86
usemtl APPID_3776980640_2817002678752 
o vid_20 
f 91 93 94
f 91 94 92
f 91 93 94
f 91 94 92
usemtl APPID_3776982992_2817002676832 
o vid_21 
f 97 96 95
f 98 99 100
f 95 100 99
f 95 99 97
f 97 99 98
f 98 96 97
f 96 98 100
f 100 95 96
usemtl APPID_3776980640_2817002678752 
o vid_22 
f 101 103 104
f 101 104 102
f 101 103 104
f 101 104 102
usemtl APPID_3776982992_2817002676832 
o vid_23 
f 107 106 105
f 108 109 110
f 105 110 109
f 105 109 107
f 107 109 108
f 108 106 107
f 106 108 110
f 110 105 106
usemtl APPID_3776980640_2817002678752 
o vid_24 
f 111 113 114
f 111 114 112
f 111 113 114
f 111 114 112
usemtl APPID_3776982992_2817002676832 
o vid_25 
f 117 116 115
f 118 119 120
f 115 120 119
f 115 119 117
f 117 119 118
f 118 116 117
f 116 118 120
f 120 115 116
usemtl APPID_3776980640_2817002678752 
o vid_26 
f 121 123 124
f 121 124 122
f 121 123 124
f 121 124 122
usemtl APPID_3776982992_2817002676832 
o vid_27 
f 127 126 125
f 128 129 130
f 125 130 129
f 125 129 127
f 127 129 128
f 128 126 127
f 126 128 130
f 130 125 126
usemtl APPID_3776980640_2817002678752 
o vid_28 
f 131 134 135
f 131 135 132
f 132 135 136
f 132 136 133
usemtl APPID_3776982992_2817002676832 
o vid_29 
f 139 138 137
f 140 141 142
f 137 142 141
f 137 141 139
f 139 141 140
f 140 138 139
f 138 140 142
f 142 137 138
usemtl APPID_3776980640_2817002678752 
o vid_30 
f 143 145 146
f 143 146 144
f 143 145 146
f 143 146 144
usemtl APPID_3776982992_2817002676832 
o vid_31 
f 149 148 147
f 150 151 152
f 147 152 151
f 147 151 149
f 149 151 150
f 150 148 149
f 148 150 152
f 152 147 148
usemtl APPID_3776980640_2817002678752 
o vid_32 
f 153 156 157
f 153 157 154
f 154 157 158
f 154 158 155
usemtl APPID_3776982992_2817002676832 
o vid_33 
f 161 160 159
f 162 163 164
f 159 164 163
f 159 163 161
f 161 163 162
f 162 160 161
f 160 162 164
f 164 159 160
usemtl APPID_3776980640_2817002678752 
o vid_34 
f 165 168 169
f 165 169 166
f 166 169 170
f 166 170 167
usemtl APPID_3776982992_2817002676832 
o vid_35 
f 173 172 171
f 174 175 176
f 171 176 175
f 171 175 173
f 173 175 174
f 174 172 173
f 172 174 176
f 176 171 172
usemtl APPID_3776980640_2817002678752 
o vid_36 
f 177 181 182
f 178 182 183
f 177 182 178
f 178 183 179
f 179 183 184
f 179 184 180
usemtl APPID_3776982992_2817002676832 
o vid_37 
f 187 186 185
f 188 189 190
f 185 190 189
f 185 189 187
f 187 189 188
f 188 186 187
f 186 188 190
f 190 185 186
usemtl APPID_3776980640_2817002678752 
o vid_38 
f 191 196 197
f 192 197 198
f 193 198 199
f 191 197 192
f 192 198 193
f 193 199 194
f 194 199 200
f 194 200 195
usemtl APPID_3776982992_2817002676832 
o vid_39 
f 203 202 201
f 204 205 206
f 201 206 205
f 201 205 203
f 203 205 204
f 204 202 203
f 202 204 206
f 206 201 202
usemtl APPID_3776980640_2817002678752 
o vid_40 
f 207 212 213
f 208 213 214
f 209 214 215
f 207 213 208
f 208 214 209
f 209 215 210
f 210 215 216
f 210 216 211
usemtl APPID_3776982992_2817002676832 
o vid_41 
f 219 218 217
f 220 221 222
f 217 222 221
f 217 221 219
f 219 221 220
f 220 218 219
f 218 220 222
f 222 217 218
usemtl APPID_3776980640_2817002678752 
o vid_42 
f 223 228 229
f 224 229 230
f 225 230 231
f 223 229 224
f 224 230 225
f 225 231 226
f 226 231 232
f 226 232 227
usemtl APPID_3776978960_2817002682976 
o vid_10000004 
f 233 242 243
f 234 243 244
f 235 244 245
f 236 245 246
f 237 246 247
f 238 247 248
f 239 248 249
f 233 243 234
f 234 244 235
f 235 245 236
f 236 246 237
f 237 247 238
f 238 248 239
f 239 249 240
f 240 249 250
usemtl APPID_3776978960_2817002682976 
o vid_10000006 
f 251 260 261
f 252 261 262
f 253 262 263
f 254 263 264
f 255 264 265
f 256 265 266
f 257 266 267
f 251 261 252
f 252 262 253
f 253 263 254
f 254 264 255
f 255 265 256
f 256 266 257
f 257 267 258
f 258 267 268
usemtl APPID_3776978960_2817002682976 
o vid_10000008 
f 269 277 278
f 270 278 279
f 271 279 280
f 272 280 281
f 273 281 282
f 274 282 283
f 269 278 270
f 270 279 271
f 271 280 272
f 272 281 273
f 273 282 274
f 274 283 275
f 275 283 284
usemtl APPID_3776978960_2817002682976 
o vid_10000010 
f 285 293 294
f 286 294 295
f 287 295 296
f 288 296 297
f 289 297 298
f 290 298 299
f 285 294 286
f 286 295 287
f 287 296 288
f 288 297 289
f 289 298 290
f 290 299 291
f 291 299 300
usemtl APPID_3776978960_2817002682976 
o vid_10000012 
f 301 309 310
f 302 310 311
f 303 311 312
f 304 312 313
f 305 313 314
f 306 314 315
f 301 310 302
f 302 311 303
f 303 312 304
f 304 313 305
f 305 314 306
f 306 315 307
f 307 315 316
usemtl APPID_3776978960_2817002682976 
o vid_10000014 
f 317 325 326
f 318 326 327
f 319 327 328
f 320 328 329
f 321 329 330
f 322 330 331
f 317 326 318
f 318 327 319
f 319 328 320
f 320 329 321
f 321 330 322
f 322 331 323
f 323 331 332
usemtl APPID_3776978960_2817002682976 
o vid_10000016 
f 333 338 339
f 334 339 340
f 335 340 341
f 333 339 334
f 334 340 335
f 335 341 336
f 336 341 342
usemtl APPID_3776978960_2817002682976 
o vid_10000018 
f 343 349 350
f 344 350 351
f 345 351 352
f 346 352 353
f 343 350 344
f 344 351 345
f 345 352 346
f 346 353 347
f 347 353 354
usemtl APPID_3776978960_2817002682976 
o vid_10000020 
f 355 363 364
f 356 364 365
f 357 365 366
f 358 366 367
f 359 367 368
f 360 368 369
f 355 364 356
f 356 365 357
f 357 366 358
f 358 367 359
f 359 368 360
f 360 369 361
f 361 369 370
usemtl APPID_3776978960_2817002682976 
o vid_10000022 
f 371 378 379
f 372 379 380
f 373 380 381
f 374 381 382
f 375 382 383
f 371 379 372
f 372 380 373
f 373 381 374
f 374 382 375
f 375 383 376
f 376 383 384
usemtl APPID_3776978960_2817002682976 
o vid_10000024 
f 385 393 394
f 386 394 395
f 387 395 396
f 388 396 397
f 389 397 398
f 390 398 399
f 385 394 386
f 386 395 387
f 387 396 388
f 388 397 389
f 389 398 390
f 390 399 391
f 391 399 400
usemtl APPID_3776978960_2817002682976 
o vid_10000026 
f 401 409 410
f 402 410 411
f 403 411 412
f 404 412 413
f 405 413 414
f 406 414 415
f 401 410 402
f 402 411 403
f 403 412 404
f 404 413 405
f 405 414 406
f 406 415 407
f 407 415 416
usemtl APPID_3776978960_2817002682976 
o vid_10000028 
f 417 422 423
f 418 423 424
f 419 424 425
f 417 423 418
f 418 424 419
f 419 425 420
f 420 425 426
usemtl APPID_3776978960_2817002682976 
o vid_10000030 
f 427 435 436
f 428 436 437
f 429 437 438
f 430 438 439
f 431 439 440
f 432 440 441
f 427 436 428
f 428 437 429
f 429 438 430
f 430 439 431
f 431 440 432
f 432 441 433
f 433 441 442
usemtl APPID_3776978960_2817002682976 
o vid_10000032 
f 443 449 450
f 444 450 451
f 445 451 452
f 446 452 453
f 443 450 444
f 444 451 445
f 445 452 446
f 446 453 447
f 447 453 454
usemtl APPID_3776978960_2817002682976 
o vid_10000034 
f 455 461 462
f 456 462 463
f 457 463 464
f 458 464 465
f 455 462 456
f 456 463 457
f 457 464 458
f 458 465 459
f 459 465 466
usemtl APPID_3776978960_2817002682976 
o vid_10000036 
f 467 472 473
f 468 473 474
f 469 474 475
f 467 473 468
f 468 474 469
f 469 475 470
f 470 475 476
usemtl APPID_3776978960_2817002682976 
o vid_10000038 
f 477 482 483
f 478 483 484
f 479 484 485
f 477 483 478
f 478 484 479
f 479 485 480
f 480 485 486
usemtl APPID_3776978960_2817002682976 
o vid_10000040 
f 487 491 492
f 488 492 493
f 487 492 488
f 488 493 489
f 489 493 494
usemtl APPID_3776978960_2817002682976 
o vid_10000042 
f 495 499 500
f 496 500 501
f 495 500 496
f 496 501 497
f 497 501 502
