# File generated by PlantGL - Wed Jul 15 17:36:18 2026
v    20.701807 19.124129 0.000000
v    24.157353 18.880811 0.000000
v    22.640300 21.995060 0.000000
v    24.297833 20.875871 3.802807
v    20.842287 21.119189 3.802807
v    22.359340 18.004940 3.802807
v    23.810780 21.615737 3.433732
v    24.313601 21.808864 3.906719
v    25.079930 22.089439 4.622267
v    26.633237 22.681928 5.586079
v    27.007396 22.812504 5.815146
v    28.371146 23.307277 6.202260
v    28.960419 23.494907 6.366457
v    30.203162 23.752550 6.356983
v    24.580182 20.036287 3.433732
v    25.042204 20.313167 3.906719
v    25.735517 20.743631 4.622267
v    27.159548 21.601501 5.586079
v    27.493007 21.815629 5.815146
v    28.723247 22.584473 6.202260
v    29.234232 22.932815 6.366457
v    30.203162 23.752550 6.356983
v    23.827991 21.063936 3.802807
v    20.914339 20.618262 3.802807
v    22.757130 18.317802 3.802807
v    21.171649 18.936064 8.831486
v    24.085301 19.381738 8.831486
v    22.242510 21.682198 8.831486
v    22.094472 18.040205 8.312332
v    21.075084 17.359447 9.388733
v    20.504478 16.991244 9.984169
v    18.107476 15.398495 11.652640
v    15.867372 13.962528 12.367764
v    14.719845 13.283585 12.429451
v    13.475072 12.770696 12.419500
v    20.498803 20.032168 8.312332
v    19.611966 19.185939 9.388733
v    19.128100 18.709454 9.984169
v    17.050583 16.717874 11.652640
v    15.160312 14.845191 12.367764
v    14.247279 13.873516 12.429451
v    13.475072 12.770696 12.419500
v    21.249559 19.514229 8.831486
v    23.545641 19.160128 8.831486
v    22.704260 21.325644 8.831486
v    23.750081 20.485771 19.751385
v    21.453999 20.839872 19.751385
v    22.295380 18.674356 19.751385
v    22.869827 22.147514 19.042472
v    25.365465 22.875955 21.325393
v    29.158898 23.982252 23.616660
v    30.918771 24.509324 24.108043
v    32.971332 25.067056 24.675610
v    34.477000 25.481958 24.663644
v    36.261677 25.900635 24.649664
v    38.045949 26.040228 24.294972
v    24.222662 18.665633 19.042472
v    26.555452 19.813209 21.325393
v    30.100708 21.558256 23.616660
v    31.754783 22.357625 24.108043
v    33.645469 23.331986 24.675610
v    35.036291 24.042474 24.663644
v    36.635481 24.938551 24.649664
v    38.045949 26.040228 24.294972
v    23.479686 20.231793 19.751385
v    21.809148 20.732693 19.751385
v    22.210625 19.035514 19.751385
v    21.519954 19.768207 37.008838
v    23.190492 19.267307 37.008838
v    22.789015 20.964486 37.008838
v    22.377772 17.401179 36.069105
v    18.968031 16.900843 39.095338
v    17.853010 16.724240 39.750564
v    13.786367 16.137108 42.132634
v    11.010743 15.709961 42.883789
v    8.584845 15.400156 43.536375
v    6.148470 15.080173 43.517547
v    3.728785 14.856615 43.499016
v    1.376030 15.003045 42.922528
v    21.226332 22.268699 36.069105
v    17.953807 21.188306 39.095338
v    16.877838 20.846618 39.750564
v    12.979145 19.549504 42.132634
v    10.306321 18.687789 42.883789
v    7.998730 17.877860 43.536375
v    5.677212 17.072336 43.517547
v    3.413819 16.188084 43.499016
v    1.376030 15.003045 42.922528
v    22.039612 19.474478 37.008838
v    23.185039 19.864209 37.008838
v    22.274809 20.661313 37.008838
v    22.960028 20.525522 59.899430
v    21.814601 20.135791 59.899430
v    22.724831 19.338687 59.899430
v    20.290212 22.367668 58.690140
v    23.489477 25.438839 62.584431
v    24.562500 26.492629 63.457321
v    28.348226 30.110008 66.492958
v    30.978696 32.670763 67.474887
v    33.247206 34.768454 68.299354
v    35.604671 36.964059 68.274671
v    37.973218 39.005685 68.250824
v    40.546390 40.607792 67.492662
v    25.138325 18.122099 58.690140
v    27.760536 21.698605 62.584431
v    28.663539 22.901284 63.457321
v    31.749806 27.131191 66.492958
v    33.941110 30.076531 67.474887
v    35.721156 32.601978 68.299354
v    37.586522 35.228521 68.274671
v    39.297794 37.845733 68.250824
v    40.546390 40.607792 67.492662
v    22.850635 20.223985 59.899430
v    22.130436 20.191822 59.899430
v    22.518390 19.584193 59.899430
v    22.149005 19.776015 65.821000
v    22.869204 19.808178 65.821000
v    22.481251 20.415807 65.821000
v    23.040612 17.879583 62.910684
v    22.573602 18.094875 67.142543
v    22.164984 18.355590 70.252152
v    21.944446 18.340629 70.978570
v    20.535161 18.745621 74.611479
v    20.803860 21.382875 62.910684
v    20.802638 20.868630 67.142543
v    20.867194 20.388241 70.252152
v    20.760817 20.194477 70.978570
v    20.535161 18.745621 74.611479
mtllib usm_22_2.5D_2018-08-07_0.mtl
usemtl APPID_887289232_1834833442176 
o vid_3 
f 3 2 1
f 4 5 6
f 1 6 5
f 1 5 3
f 3 5 4
f 4 2 3
f 2 4 6
f 6 1 2
usemtl APPID_887291920_1834833443072 
o vid_4 
f 7 15 16
f 8 16 17
f 9 17 18
f 10 18 19
f 11 19 20
f 12 20 21
f 7 16 8
f 8 17 9
f 9 18 10
f 10 19 11
f 11 20 12
f 12 21 13
f 13 21 22
usemtl APPID_887289232_1834833442176 
o vid_5 
f 25 24 23
f 26 27 28
f 23 28 27
f 23 27 25
f 25 27 26
f 26 24 25
f 24 26 28
f 28 23 24
usemtl APPID_887291920_1834833443072 
o vid_6 
f 29 36 37
f 30 37 38
f 31 38 39
f 32 39 40
f 33 40 41
f 29 37 30
f 30 38 31
f 31 39 32
f 32 40 33
f 33 41 34
f 34 41 42
usemtl APPID_887289232_1834833442176 
o vid_7 
f 45 44 43
f 46 47 48
f 43 48 47
f 43 47 45
f 45 47 46
f 46 44 45
f 44 46 48
f 48 43 44
usemtl APPID_887291920_1834833443072 
o vid_8 
f 49 57 58
f 50 58 59
f 51 59 60
f 52 60 61
f 53 61 62
f 54 62 63
f 49 58 50
f 50 59 51
f 51 60 52
f 52 61 53
f 53 62 54
f 54 63 55
f 55 63 64
usemtl APPID_887289232_1834833442176 
o vid_9 
f 67 66 65
f 68 69 70
f 65 70 69
f 65 69 67
f 67 69 68
f 68 66 67
f 66 68 70
f 70 65 66
usemtl APPID_887291920_1834833443072 
o vid_10 
f 71 80 81
f 72 81 82
f 73 82 83
f 74 83 84
f 75 84 85
f 76 85 86
f 77 86 87
f 71 81 72
f 72 82 73
f 73 83 74
f 74 84 75
f 75 85 76
f 76 86 77
f 77 87 78
f 78 87 88
usemtl APPID_887289232_1834833442176 
o vid_11 
f 91 90 89
f 92 93 94
f 89 94 93
f 89 93 91
f 91 93 92
f 92 90 91
f 90 92 94
f 94 89 90
usemtl APPID_887291920_1834833443072 
o vid_12 
f 95 104 105
f 96 105 106
f 97 106 107
f 98 107 108
f 99 108 109
f 100 109 110
f 101 110 111
f 95 105 96
f 96 106 97
f 97 107 98
f 98 108 99
f 99 109 100
f 100 110 101
f 101 111 102
f 102 111 112
usemtl APPID_887289232_1834833442176 
o vid_13 
f 115 114 113
f 116 117 118
f 113 118 117
f 113 117 115
f 115 117 116
f 116 114 115
f 114 116 118
f 118 113 114
usemtl APPID_887291920_1834833443072 
o vid_14 
f 119 124 125
f 120 125 126
f 121 126 127
f 119 125 120
f 120 126 121
f 121 127 122
f 122 127 128
