# File generated by PlantGL - Wed Jul 15 17:35:38 2026
v    20.252304 338.905161 0.000000
v    24.571736 338.601013 0.000000
v    22.675420 342.493825 0.000000
v    24.747336 341.094839 2.682187
v    20.427904 341.398987 2.682187
v    22.324220 337.506175 2.682187
v    24.669633 341.320624 2.594034
v    24.688368 341.326948 2.626239
v    24.877224 340.894475 2.594034
v    24.893753 340.905329 2.626239
v    24.379104 341.505407 2.682187
v    20.256458 340.874804 2.682187
v    22.863898 337.619789 2.682187
v    20.620536 338.494593 4.602934
v    24.743182 339.125196 4.602934
v    22.135742 342.380211 4.602934
v    20.802528 338.200227 4.475377
v    20.739087 338.161538 4.596399
v    20.372988 338.736446 4.475377
v    20.321385 338.682979 4.596399
v    20.341236 339.161313 4.602934
v    24.305436 338.549955 4.602934
v    22.852788 342.288732 4.602934
v    24.658404 340.838687 7.454879
v    20.694204 341.450045 7.454879
v    22.146852 337.711268 7.454879
v    24.559259 341.258159 7.274158
v    24.606083 341.270135 7.352949
v    24.868473 340.462314 7.274158
v    24.911101 340.485092 7.352949
v    24.663782 340.511898 7.454879
v    20.974522 341.618097 7.454879
v    21.861155 337.870005 7.454879
v    20.335858 339.488102 12.007949
v    24.025118 338.381903 12.007949
v    23.138485 342.129995 12.007949
v    20.382163 338.933808 11.757258
v    20.108161 338.902962 12.206756
v    19.789425 338.873498 12.727214
v    20.128909 340.004395 11.757258
v    19.870127 339.909209 12.206756
v    19.571972 339.792743 12.727214
v    21.095515 338.396392 12.007949
v    24.590737 339.585640 12.007949
v    21.813207 342.017967 12.007949
v    23.904125 341.603608 16.425721
v    20.408903 340.414360 16.425721
v    23.186433 337.982033 16.425721
v    23.415420 342.180586 16.085236
v    23.646175 342.387668 16.590677
v    24.540539 341.195302 16.085236
v    24.715365 341.451362 16.590677
v    24.218802 341.097521 16.425721
v    20.689848 340.939922 16.425721
v    22.590810 337.962557 16.425721
v    20.780838 338.902479 35.686441
v    24.309792 339.060078 35.686441
v    22.408830 342.037443 35.686441
v    21.201691 337.966299 35.233658
v    20.807492 337.776826 35.946657
v    20.108684 339.678211 35.233658
v    19.770921 339.400346 35.946657
v    20.919840 338.861621 35.686441
v    24.275675 339.200887 35.686441
v    22.303945 341.937492 35.686441
v    24.079800 341.138379 53.205783
v    20.723965 340.799113 53.205783
v    22.695695 338.062508 53.205783
v    23.510033 342.261211 52.616245
v    23.716300 342.375016 53.000286
v    24.085401 342.569169 53.678387
v    24.964532 340.242481 52.616245
v    25.137779 340.402117 53.000286
v    25.438786 340.690778 53.678387
v    24.054453 341.012481 53.205783
v    20.845669 340.840111 53.205783
v    22.599338 338.147408 53.205783
v    20.945187 338.987519 80.209650
v    24.153971 339.159889 80.209650
v    22.400302 341.852592 80.209650
v    21.619395 337.498874 79.458092
v    21.129955 337.258155 80.347253
v    20.828814 337.117429 80.887717
v    19.856279 340.206084 79.458092
v    19.438212 339.855774 80.347253
v    19.187738 339.637252 80.887717
v    20.957943 339.144816 80.209650
v    24.011370 339.092287 80.209650
v    22.530147 341.762897 80.209650
v    24.041697 340.855184 116.014694
v    20.988270 340.907713 116.014694
v    22.469493 338.237103 116.014694
v    23.254725 342.910864 115.076603
v    24.314827 343.341945 116.942193
v    25.368866 339.099119 115.076603
v    26.295874 339.770165 116.942193
v    24.114715 340.429572 116.014694
v    21.320352 341.183754 116.014694
v    22.064393 338.386674 116.014694
v    20.884925 339.570428 151.644671
v    23.679288 338.816246 151.644671
v    22.935247 341.613326 151.644671
v    21.214454 336.863274 150.498216
v    18.435035 336.472141 155.073852
v    17.677223 336.380859 156.314921
v    15.902944 336.101285 158.112834
v    19.825838 342.083515 150.498216
v    17.219429 341.041985 155.073852
v    16.516420 340.744679 156.314921
v    14.837733 340.105744 158.112834
v    21.041526 339.394647 151.644671
v    23.753218 339.039757 151.644671
v    22.704716 341.565597 151.644671
v    23.958114 340.605353 179.645358
v    21.246422 340.960243 179.645358
v    22.294924 338.434403 179.645358
v    23.199474 343.611003 178.273530
v    25.108209 344.146019 181.505062
v    27.328211 344.720819 185.233696
v    29.656530 345.415022 187.665659
v    30.574538 345.655114 188.611562
v    25.551062 337.946033 178.273530
v    27.277566 338.920043 181.505062
v    29.252007 340.086399 185.233696
v    31.387482 341.245163 187.665659
v    32.205647 341.725775 188.611562
v    23.647956 340.944713 179.645358
v    21.107606 340.521958 179.645358
v    22.743898 338.533328 179.645358
v    21.351684 339.055287 201.129392
v    23.892034 339.478042 201.129392
v    22.255742 341.466672 201.129392
v    23.232109 335.937124 199.522183
v    21.207418 334.644142 203.438441
v    18.983065 333.285289 207.676591
v    16.519494 331.654267 210.634017
v    13.422752 329.752036 214.256914
v    18.654018 341.501005 199.522183
v    16.995326 339.763214 203.438441
v    15.233546 337.842184 207.676591
v    13.158623 335.738827 210.634017
v    10.695632 333.066380 214.256914
v    21.536143 338.991726 201.129392
v    23.854850 339.669568 201.129392
v    22.108468 341.338706 201.129392
v    23.463497 341.008274 220.341894
v    21.144790 340.330432 220.341894
v    22.891172 338.661294 220.341894
v    20.683734 344.504755 218.498256
v    24.699746 347.804695 226.971807
v    30.224963 352.473516 234.551235
v    31.308744 353.332767 235.929960
v    36.053553 357.296815 239.444655
v    27.082071 338.389423 218.498256
v    30.197081 342.550513 226.971807
v    34.611343 348.281151 234.551235
v    35.420719 349.402668 235.929960
v    39.166211 354.321834 239.444655
v    23.412132 340.929805 220.341894
v    21.238430 340.325183 220.341894
v    22.848899 338.745013 220.341894
v    21.587508 339.070195 232.946400
v    23.761210 339.674817 232.946400
v    22.150741 341.254987 232.946400
v    24.718681 335.042813 230.875739
v    19.682655 331.020627 241.381536
v    13.194516 325.651060 249.811728
v    4.795907 318.840755 256.234533
v    17.501389 342.124320 230.875739
v    13.575567 337.012818 241.381536
v    8.330182 330.423877 249.811728
v    1.680602 321.897450 256.234533
v    21.688766 339.101354 232.946400
v    23.683598 339.746930 232.946400
v    22.127097 341.151717 232.946400
v    23.310874 340.898646 239.814151
v    21.316042 340.253070 239.814151
v    22.872543 338.848283 239.814151
v    19.947676 344.943927 237.537100
v    23.162096 347.742821 244.485301
v    25.334573 349.559627 249.090044
v    29.308982 353.137105 254.442596
v    32.860086 356.121653 259.066749
v    38.843961 361.418408 263.609571
v    27.678682 337.966471 237.537100
v    30.134419 341.450098 244.485301
v    31.719693 343.796872 249.090044
v    34.872269 348.116078 254.442596
v    37.478281 351.953599 259.066749
v    42.135771 358.447454 263.609571
v    23.597632 340.213714 239.814151
v    21.765832 340.843876 239.814151
v    22.135996 338.942409 239.814151
v    21.402008 339.786286 243.686532
v    23.233808 339.156124 243.686532
v    22.863644 341.057591 243.686532
v    21.634516 334.367608 241.234836
v    19.080255 334.183153 245.409619
v    14.004434 333.918163 253.673870
v    11.002134 333.651556 256.690910
v    3.264466 333.228583 264.415771
v    -2.237248 332.786153 267.553395
v    -3.221842 332.840601 268.100301
v    19.584831 344.896472 241.234836
v    17.147907 344.109277 245.409619
v    12.343356 342.450826 253.673870
v    9.460294 341.571712 256.690910
v    2.129019 339.061169 264.415771
v    -3.136887 337.407435 267.553395
v    -4.029153 336.987612 268.100301
v    21.708135 339.346885 243.686532
v    23.461277 339.640938 243.686532
v    22.330048 341.012177 243.686532
v    23.291505 340.653115 246.345795
v    21.538363 340.359062 246.345795
v    22.669592 338.987823 246.345795
v    20.412431 345.480251 243.761209
v    21.995931 346.494336 246.826597
v    27.265347 349.722664 256.874478
v    28.989250 350.867155 258.945713
v    36.892141 355.735570 268.198623
v    40.622057 358.167353 270.729779
v    42.337956 358.979925 271.782759
v    27.483417 336.909028 243.761209
v    28.779993 338.270914 246.826597
v    32.951031 342.830659 256.874478
v    34.402322 344.305602 258.945713
v    40.684096 351.139083 268.198623
v    43.780497 354.338793 270.729779
v    44.904398 355.868966 271.782759
v    23.246855 340.560971 246.345795
v    21.640487 340.366465 246.345795
v    22.612118 339.072563 246.345795
v    21.752785 339.439029 248.048395
v    23.359153 339.633535 248.048395
v    22.387522 340.927437 248.048395
v    24.614619 334.165234 245.380642
v    21.481625 332.355068 251.279230
v    17.368863 330.086917 258.915869
v    13.591750 327.820766 263.324916
v    7.205928 324.278605 270.604401
v    0.835314 320.528198 274.806820
v    -1.414724 319.585945 276.159733
v    17.486230 343.657975 245.380642
v    14.874211 341.154036 251.279230
v    11.549160 337.836906 258.915869
v    8.319627 334.841553 263.324916
v    3.137243 329.696796 270.604401
v    -2.240885 324.624714 274.806820
v    -3.773200 322.726683 276.159733
v    21.810071 339.516898 248.048395
v    23.263073 339.644211 248.048395
v    22.426316 340.838891 248.048395
v    23.189569 340.483102 248.794560
v    21.736567 340.355789 248.794560
v    22.573324 339.161109 248.794560
v    20.637121 345.674668 246.098494
v    21.787551 346.289502 248.224951
v    28.119325 349.512896 259.777369
v    38.641320 354.950404 271.589951
v    41.757776 356.648775 273.607540
v    44.938187 357.858557 275.494751
v    27.196150 336.310015 246.098494
v    28.167147 337.181035 248.224951
v    33.360471 342.029850 259.777369
v    42.066687 350.059836 271.589951
v    44.727910 352.408167 273.607540
v    46.951823 354.983588 275.494751
v    23.110369 340.435580 248.794560
v    21.817322 340.310961 248.794560
v    22.571769 339.253459 248.794560
v    21.889271 339.564420 249.457000
v    23.182318 339.689039 249.457000
v    22.427871 340.746541 249.457000
v    24.843190 333.911569 246.789247
v    18.871924 330.653330 257.878414
v    17.537238 329.959208 260.324474
v    9.959819 325.661034 269.044506
v    7.321255 324.280586 272.013006
v    -3.778054 318.106225 279.233114
v    -7.264726 316.745177 281.308991
v    -7.597935 316.604551 281.381760
v    17.505294 344.197033 246.789247
v    12.481310 339.610998 257.878414
v    11.390653 338.574822 260.324474
v    4.860683 332.808448 269.044506
v    2.696766 330.762691 272.013006
v    -6.753317 322.276626 279.233114
v    -9.174867 319.422606 281.308991
v    -9.416268 319.153293 281.381760
v    24.688368 341.326948 2.626239
v    24.858329 341.384320 2.918391
v    24.929574 341.408972 3.041291
v    25.148497 341.492482 3.276164
v    25.290565 341.544277 3.427526
v    25.524121 341.634594 3.570265
v    25.796704 341.731408 3.734702
v    26.062232 341.829517 3.792780
v    26.439067 341.918936 3.870706
v    24.893753 340.905329 2.626239
v    25.043696 341.003793 2.918391
v    25.107025 341.044696 3.041291
v    25.307731 341.165601 3.276164
v    25.436089 341.245539 3.427526
v    25.651176 341.373772 3.570265
v    25.895436 341.528728 3.734702
v    26.136366 341.677332 3.792780
v    26.439067 341.918936 3.870706
v    20.739087 338.161538 4.596399
v    20.552686 338.047861 4.951983
v    20.463767 337.992705 5.122560
v    20.176371 337.801729 5.468452
v    19.997421 337.686603 5.681443
v    19.690400 337.480558 5.892208
v    19.342793 337.260996 6.125928
v    18.992261 337.033332 6.211684
v    18.488870 336.787015 6.324444
v    20.321385 338.682979 4.596399
v    20.169765 338.525883 4.951983
v    20.096532 338.451146 5.122560
v    19.847433 338.212361 5.468452
v    19.696024 338.062853 5.681443
v    19.427937 337.808205 5.892208
v    19.137800 337.516900 6.125928
v    18.839118 337.224509 6.211684
v    18.488870 336.787015 6.324444
v    24.606083 341.270135 7.352949
v    24.997205 341.370174 8.011079
v    25.104977 341.395462 8.191069
v    25.662793 341.547973 8.769920
v    25.870656 341.597285 8.982881
v    26.688333 341.813545 9.463683
v    26.954833 341.846510 9.612615
v    27.442237 341.920306 9.711800
v    24.911101 340.485092 7.352949
v    25.267165 340.675362 8.011079
v    25.363739 340.729470 8.191069
v    25.878197 340.993576 8.769920
v    26.064826 341.097538 8.982881
v    26.814017 341.490063 9.463683
v    27.032866 341.645673 9.612615
v    27.442237 341.920306 9.711800
v    19.789425 338.873498 12.727214
v    19.604500 338.856404 13.029173
v    19.280234 338.814476 13.356456
v    18.510167 338.741389 14.127552
v    17.926902 338.670904 14.461529
v    16.954140 338.685717 15.001101
v    16.943364 338.685588 15.003270
v    19.571972 339.792743 12.727214
v    19.398988 339.725172 13.029173
v    19.090304 339.617371 13.356456
v    18.369108 339.337692 14.127552
v    17.816081 339.139380 14.461529
v    16.953056 338.690301 15.001101
v    16.943364 338.685588 15.003270
v    23.646175 342.387668 16.590677
v    24.214386 342.879343 17.812738
v    24.545596 343.186577 18.264943
v    25.333819 343.869444 19.304546
v    25.930326 344.413602 19.763536
v    27.009862 345.158586 20.490994
v    27.030465 345.173647 20.496129
v    24.715365 341.451362 16.590677
v    25.127771 342.079477 17.812738
v    25.388620 342.448328 18.264943
v    25.961519 343.319757 19.304546
v    26.422216 343.982845 19.763536
v    27.018254 345.151238 20.490994
v    27.030465 345.173647 20.496129
v    20.807492 337.776826 35.946657
v    20.587114 337.670902 36.345260
v    19.923717 337.368163 37.530916
v    19.173394 336.992175 38.370987
v    18.130751 336.513278 39.514744
v    16.902943 335.910756 40.292221
v    15.533578 335.455875 41.092500
v    15.184143 335.329149 41.167288
v    19.770921 339.400346 35.946657
v    19.582094 339.245005 36.345260
v    19.028299 338.770602 37.530916
v    18.371478 338.248168 38.370987
v    17.498291 337.503863 39.514744
v    16.435038 336.643608 40.292221
v    15.446149 335.592811 41.092500
v    15.184143 335.329149 41.167288
v    24.085401 342.569169 53.678387
v    25.135363 343.121468 55.607347
v    27.421421 344.339223 58.190354
v    28.025709 344.679087 58.584473
v    30.174058 345.529306 59.865898
v    25.438786 340.690778 53.678387
v    26.295048 341.511917 55.607347
v    28.173830 343.294940 58.190354
v    28.687503 343.760569 58.584473
v    30.174058 345.529306 59.865898
v    20.828814 337.117429 80.887717
v    19.500746 336.496808 83.271232
v    18.966894 336.223231 83.871683
v    16.522771 335.073759 86.564123
v    15.367648 334.493895 87.298862
v    12.580889 333.540130 88.932459
v    19.187738 339.637252 80.887717
v    18.083113 338.673540 83.271232
v    17.617035 338.295897 83.871683
v    15.577446 336.525277 86.564123
v    14.580027 335.703262 87.298862
v    12.580889 333.540130 88.932459
v    24.314827 343.341945 116.942193
v    25.145652 343.679793 118.404297
v    25.967856 343.995190 119.836141
v    28.349735 345.009815 122.427632
v    29.770794 345.558931 123.946305
v    33.354359 347.050327 126.152811
v    35.205982 347.540689 127.215153
v    37.099941 348.097790 127.612369
v    26.295874 339.770165 116.942193
v    27.022390 340.296079 118.404297
v    27.725296 340.826567 119.836141
v    29.847204 342.309915 122.427632
v    31.065466 343.224669 123.946305
v    34.228108 345.474979 126.152811
v    35.624508 346.786096 127.215153
v    37.099941 348.097790 127.612369
v    15.902944 336.101285 158.112834
v    14.134723 335.822664 159.904609
v    12.707540 335.647205 161.338018
v    7.501023 334.871169 164.330432
v    5.693618 334.848624 165.332927
v    2.685377 334.729236 165.938673
v    14.837733 340.105744 158.112834
v    13.164778 339.468990 159.904609
v    11.839043 338.912156 161.338018
v    6.935076 336.998741 164.330432
v    5.355347 336.120288 165.332927
v    2.685377 334.729236 165.938673
v    30.574538 345.655114 188.611562
v    33.129583 346.323349 191.244243
v    36.976329 347.435499 193.520538
v    41.443055 348.092095 196.024481
v    42.394542 348.258506 196.218830
v    32.205647 341.725775 188.611562
v    34.482806 343.063437 191.244243
v    37.986311 345.002453 193.520538
v    41.604920 347.702164 196.024481
v    42.394542 348.258506 196.218830
v    13.422752 329.752036 214.256914
v    13.028251 329.509706 214.718443
v    8.983399 326.879953 217.461036
v    4.323537 324.680537 220.318885
v    3.177058 324.100782 220.577378
v    10.695632 333.066380 214.256914
v    10.381866 332.725932 214.718443
v    7.022385 329.263227 217.461036
v    3.966749 325.114152 220.318885
v    3.177058 324.100782 220.577378
v    36.053553 357.296815 239.444655
v    38.680535 359.491527 241.390580
v    40.152226 360.415223 242.354255
v    45.272177 363.826215 243.592089
v    39.166211 354.321834 239.444655
v    41.239917 357.045349 241.390580
v    42.096136 358.557293 242.354255
v    45.272177 363.826215 243.592089
v    4.795907 318.840755 256.234533
v    3.449186 317.745306 257.221382
v    2.759514 317.324945 257.669336
v    -4.117025 312.872788 259.317594
v    1.680602 321.897450 256.234533
v    0.610926 320.530168 257.221382
v    0.203738 319.832637 257.669336
v    -4.117025 312.872788 259.317594
v    38.843961 361.418408 263.609571
v    43.900203 364.841813 267.001304
v    46.727840 366.844591 267.698488
v    42.135771 358.447454 263.609571
v    45.024522 363.827083 267.001304
v    46.727840 366.844591 267.698488
v    -3.221842 332.840601 268.100301
v    -11.831099 333.316698 272.882433
v    -4.029153 336.987612 268.100301
v    -11.831099 333.316698 272.882433
v    42.337956 358.979925 271.782759
v    49.776765 362.502609 276.347668
v    44.904398 355.868966 271.782759
v    49.776765 362.502609 276.347668
v    -1.414724 319.585945 276.159733
v    -7.635825 316.980721 279.900386
v    -8.934951 316.394672 280.187141
v    -3.773200 322.726683 276.159733
v    -8.009879 317.478841 279.900386
v    -8.934951 316.394672 280.187141
v    44.938187 357.858557 275.494751
v    51.633642 360.405410 279.467741
v    46.951823 354.983588 275.494751
v    51.633642 360.405410 279.467741
v    -7.597935 316.604551 281.381760
v    -14.197401 313.819326 282.823010
v    -9.416268 319.153293 281.381760
v    -14.197401 313.819326 282.823010
mtllib usm_10_Beer_2018-09-10_8.mtl
usemtl APPID_1708030352_2419754875664 
o vid_3 
f 3 2 1
f 4 5 6
f 1 6 5
f 1 5 3
f 3 5 4
f 4 2 3
f 2 4 6
f 6 1 2
usemtl APPID_1708025424_2419754870672 
o vid_4 
f 7 9 10
f 7 10 8
f 7 9 10
f 7 10 8
usemtl APPID_1708030352_2419754875664 
o vid_5 
f 13 12 11
f 14 15 16
f 11 16 15
f 11 15 13
f 13 15 14
f 14 12 13
f 12 14 16
f 16 11 12
usemtl APPID_1708025424_2419754870672 
o vid_6 
f 17 19 20
f 17 20 18
f 17 19 20
f 17 20 18
usemtl APPID_1708030352_2419754875664 
o vid_7 
f 23 22 21
f 24 25 26
f 21 26 25
f 21 25 23
f 23 25 24
f 24 22 23
f 22 24 26
f 26 21 22
usemtl APPID_1708025424_2419754870672 
o vid_8 
f 27 29 30
f 27 30 28
f 27 29 30
f 27 30 28
usemtl APPID_1708030352_2419754875664 
o vid_9 
f 33 32 31
f 34 35 36
f 31 36 35
f 31 35 33
f 33 35 34
f 34 32 33
f 32 34 36
f 36 31 32
usemtl APPID_1708025424_2419754870672 
o vid_10 
f 37 40 41
f 37 41 38
f 38 41 42
f 38 42 39
usemtl APPID_1708030352_2419754875664 
o vid_11 
f 45 44 43
f 46 47 48
f 43 48 47
f 43 47 45
f 45 47 46
f 46 44 45
f 44 46 48
f 48 43 44
usemtl APPID_1708025424_2419754870672 
o vid_12 
f 49 51 52
f 49 52 50
f 49 51 52
f 49 52 50
usemtl APPID_1708030352_2419754875664 
o vid_13 
f 55 54 53
f 56 57 58
f 53 58 57
f 53 57 55
f 55 57 56
f 56 54 55
f 54 56 58
f 58 53 54
usemtl APPID_1708025424_2419754870672 
o vid_14 
f 59 61 62
f 59 62 60
f 59 61 62
f 59 62 60
usemtl APPID_1708030352_2419754875664 
o vid_15 
f 65 64 63
f 66 67 68
f 63 68 67
f 63 67 65
f 65 67 66
f 66 64 65
f 64 66 68
f 68 63 64
usemtl APPID_1708025424_2419754870672 
o vid_16 
f 69 72 73
f 69 73 70
f 70 73 74
f 70 74 71
usemtl APPID_1708030352_2419754875664 
o vid_17 
f 77 76 75
f 78 79 80
f 75 80 79
f 75 79 77
f 77 79 78
f 78 76 77
f 76 78 80
f 80 75 76
usemtl APPID_1708025424_2419754870672 
o vid_18 
f 81 84 85
f 81 85 82
f 82 85 86
f 82 86 83
usemtl APPID_1708030352_2419754875664 
o vid_19 
f 89 88 87
f 90 91 92
f 87 92 91
f 87 91 89
f 89 91 90
f 90 88 89
f 88 90 92
f 92 87 88
usemtl APPID_1708025424_2419754870672 
o vid_20 
f 93 95 96
f 93 96 94
f 93 95 96
f 93 96 94
usemtl APPID_1708030352_2419754875664 
o vid_21 
f 99 98 97
f 100 101 102
f 97 102 101
f 97 101 99
f 99 101 100
f 100 98 99
f 98 100 102
f 102 97 98
usemtl APPID_1708025424_2419754870672 
o vid_22 
f 103 107 108
f 104 108 109
f 103 108 104
f 104 109 105
f 105 109 110
f 105 110 106
usemtl APPID_1708030352_2419754875664 
o vid_23 
f 113 112 111
f 114 115 116
f 111 116 115
f 111 115 113
f 113 115 114
f 114 112 113
f 112 114 116
f 116 111 112
usemtl APPID_1708025424_2419754870672 
o vid_24 
f 117 122 123
f 118 123 124
f 119 124 125
f 117 123 118
f 118 124 119
f 119 125 120
f 120 125 126
f 120 126 121
usemtl APPID_1708030352_2419754875664 
o vid_25 
f 129 128 127
f 130 131 132
f 127 132 131
f 127 131 129
f 129 131 130
f 130 128 129
f 128 130 132
f 132 127 128
usemtl APPID_1708025424_2419754870672 
o vid_26 
f 133 138 139
f 134 139 140
f 135 140 141
f 133 139 134
f 134 140 135
f 135 141 136
f 136 141 142
f 136 142 137
usemtl APPID_1708030352_2419754875664 
o vid_27 
f 145 144 143
f 146 147 148
f 143 148 147
f 143 147 145
f 145 147 146
f 146 144 145
f 144 146 148
f 148 143 144
usemtl APPID_1708025424_2419754870672 
o vid_28 
f 149 154 155
f 150 155 156
f 151 156 157
f 149 155 150
f 150 156 151
f 151 157 152
f 152 157 158
f 152 158 153
usemtl APPID_1708030352_2419754875664 
o vid_29 
f 161 160 159
f 162 163 164
f 159 164 163
f 159 163 161
f 161 163 162
f 162 160 161
f 160 162 164
f 164 159 160
usemtl APPID_1708025424_2419754870672 
o vid_30 
f 165 169 170
f 166 170 171
f 165 170 166
f 166 171 167
f 167 171 172
f 167 172 168
usemtl APPID_1708030352_2419754875664 
o vid_31 
f 175 174 173
f 176 177 178
f 173 178 177
f 173 177 175
f 175 177 176
f 176 174 175
f 174 176 178
f 178 173 174
usemtl APPID_1708025424_2419754870672 
o vid_32 
f 179 185 186
f 180 186 187
f 181 187 188
f 182 188 189
f 179 186 180
f 180 187 181
f 181 188 182
f 182 189 183
f 183 189 190
f 183 190 184
usemtl APPID_1708030352_2419754875664 
o vid_33 
f 193 192 191
f 194 195 196
f 191 196 195
f 191 195 193
f 193 195 194
f 194 192 193
f 192 194 196
f 196 191 192
usemtl APPID_1708025424_2419754870672 
o vid_34 
f 197 204 205
f 198 205 206
f 199 206 207
f 200 207 208
f 201 208 209
f 197 205 198
f 198 206 199
f 199 207 200
f 200 208 201
f 201 209 202
f 202 209 210
f 202 210 203
usemtl APPID_1708030352_2419754875664 
o vid_35 
f 213 212 211
f 214 215 216
f 211 216 215
f 211 215 213
f 213 215 214
f 214 212 213
f 212 214 216
f 216 211 212
usemtl APPID_1708025424_2419754870672 
o vid_36 
f 217 224 225
f 218 225 226
f 219 226 227
f 220 227 228
f 221 228 229
f 217 225 218
f 218 226 219
f 219 227 220
f 220 228 221
f 221 229 222
f 222 229 230
f 222 230 223
usemtl APPID_1708030352_2419754875664 
o vid_37 
f 233 232 231
f 234 235 236
f 231 236 235
f 231 235 233
f 233 235 234
f 234 232 233
f 232 234 236
f 236 231 232
usemtl APPID_1708025424_2419754870672 
o vid_38 
f 237 244 245
f 238 245 246
f 239 246 247
f 240 247 248
f 241 248 249
f 237 245 238
f 238 246 239
f 239 247 240
f 240 248 241
f 241 249 242
f 242 249 250
f 242 250 243
usemtl APPID_1708030352_2419754875664 
o vid_39 
f 253 252 251
f 254 255 256
f 251 256 255
f 251 255 253
f 253 255 254
f 254 252 253
f 252 254 256
f 256 251 252
usemtl APPID_1708025424_2419754870672 
o vid_40 
f 257 263 264
f 258 264 265
f 259 265 266
f 260 266 267
f 257 264 258
f 258 265 259
f 259 266 260
f 260 267 261
f 261 267 268
f 261 268 262
usemtl APPID_1708030352_2419754875664 
o vid_41 
f 271 270 269
f 272 273 274
f 269 274 273
f 269 273 271
f 271 273 272
f 272 270 271
f 270 272 274
f 274 269 270
usemtl APPID_1708025424_2419754870672 
o vid_42 
f 275 283 284
f 276 284 285
f 277 285 286
f 278 286 287
f 279 287 288
f 280 288 289
f 275 284 276
f 276 285 277
f 277 286 278
f 278 287 279
f 279 288 280
f 280 289 281
f 281 289 290
f 281 290 282
usemtl APPID_1708068208_2419754869904 
o vid_10000004 
f 291 300 301
f 292 301 302
f 293 302 303
f 294 303 304
f 295 304 305
f 296 305 306
f 297 306 307
f 291 301 292
f 292 302 293
f 293 303 294
f 294 304 295
f 295 305 296
f 296 306 297
f 297 307 298
f 298 307 308
usemtl APPID_1708068208_2419754869904 
o vid_10000006 
f 309 318 319
f 310 319 320
f 311 320 321
f 312 321 322
f 313 322 323
f 314 323 324
f 315 324 325
f 309 319 310
f 310 320 311
f 311 321 312
f 312 322 313
f 313 323 314
f 314 324 315
f 315 325 316
f 316 325 326
usemtl APPID_1708068208_2419754869904 
o vid_10000008 
f 327 335 336
f 328 336 337
f 329 337 338
f 330 338 339
f 331 339 340
f 332 340 341
f 327 336 328
f 328 337 329
f 329 338 330
f 330 339 331
f 331 340 332
f 332 341 333
f 333 341 342
usemtl APPID_1708068208_2419754869904 
o vid_10000010 
f 343 350 351
f 344 351 352
f 345 352 353
f 346 353 354
f 347 354 355
f 343 351 344
f 344 352 345
f 345 353 346
f 346 354 347
f 347 355 348
f 348 355 356
usemtl APPID_1708068208_2419754869904 
o vid_10000012 
f 357 364 365
f 358 365 366
f 359 366 367
f 360 367 368
f 361 368 369
f 357 365 358
f 358 366 359
f 359 367 360
f 360 368 361
f 361 369 362
f 362 369 370
usemtl APPID_1708068208_2419754869904 
o vid_10000014 
f 371 379 380
f 372 380 381
f 373 381 382
f 374 382 383
f 375 383 384
f 376 384 385
f 371 380 372
f 372 381 373
f 373 382 374
f 374 383 375
f 375 384 376
f 376 385 377
f 377 385 386
usemtl APPID_1708068208_2419754869904 
o vid_10000016 
f 387 392 393
f 388 393 394
f 389 394 395
f 387 393 388
f 388 394 389
f 389 395 390
f 390 395 396
usemtl APPID_1708068208_2419754869904 
o vid_10000018 
f 397 403 404
f 398 404 405
f 399 405 406
f 400 406 407
f 397 404 398
f 398 405 399
f 399 406 400
f 400 407 401
f 401 407 408
usemtl APPID_1708068208_2419754869904 
o vid_10000020 
f 409 417 418
f 410 418 419
f 411 419 420
f 412 420 421
f 413 421 422
f 414 422 423
f 409 418 410
f 410 419 411
f 411 420 412
f 412 421 413
f 413 422 414
f 414 423 415
f 415 423 424
usemtl APPID_1708068208_2419754869904 
o vid_10000022 
f 425 431 432
f 426 432 433
f 427 433 434
f 428 434 435
f 425 432 426
f 426 433 427
f 427 434 428
f 428 435 429
f 429 435 436
usemtl APPID_1708068208_2419754869904 
o vid_10000024 
f 437 442 443
f 438 443 444
f 439 444 445
f 437 443 438
f 438 444 439
f 439 445 440
f 440 445 446
usemtl APPID_1708068208_2419754869904 
o vid_10000026 
f 447 452 453
f 448 453 454
f 449 454 455
f 447 453 448
f 448 454 449
f 449 455 450
f 450 455 456
usemtl APPID_1708068208_2419754869904 
o vid_10000028 
f 457 461 462
f 458 462 463
f 457 462 458
f 458 463 459
f 459 463 464
usemtl APPID_1708068208_2419754869904 
o vid_10000030 
f 465 469 470
f 466 470 471
f 465 470 466
f 466 471 467
f 467 471 472
usemtl APPID_1708068208_2419754869904 
o vid_10000032 
f 473 476 477
f 473 477 474
f 474 477 478
usemtl APPID_1708068208_2419754869904 
o vid_10000034 
f 479 481 482
f 479 482 480
f 479 481 482
usemtl APPID_1708068208_2419754869904 
o vid_10000036 
f 483 485 486
f 483 486 484
f 483 485 486
usemtl APPID_1708068208_2419754869904 
o vid_10000038 
f 487 490 491
f 487 491 488
f 488 491 492
usemtl APPID_1708068208_2419754869904 
o vid_10000040 
f 493 495 496
f 493 496 494
f 493 495 496
usemtl APPID_1708068208_2419754869904 
o vid_10000042 
f 497 499 500
f 497 500 498
f 497 499 500
