# File generated by PlantGL - Wed Jul 15 17:35:05 2026
v    20.252304 98.905161 0.000000
v    24.571736 98.601013 0.000000
v    22.675420 102.493825 0.000000
v    24.747336 101.094839 2.682187
v    20.427904 101.398987 2.682187
v    22.324220 97.506175 2.682187
v    24.669633 101.320624 2.594034
v    24.688368 101.326948 2.626239
v    24.877224 100.894475 2.594034
v    24.893753 100.905329 2.626239
v    24.379104 101.505407 2.682187
v    20.256458 100.874804 2.682187
v    22.863898 97.619789 2.682187
v    20.620536 98.494593 4.602934
v    24.743182 99.125196 4.602934
v    22.135742 102.380211 4.602934
v    20.802528 98.200227 4.475377
v    20.552686 98.047861 4.951983
v    20.528518 98.032870 4.998345
v    20.372988 98.736446 4.475377
v    20.169765 98.525883 4.951983
v    20.149860 98.505570 4.998345
v    20.341236 99.161313 4.602934
v    24.305436 98.549955 4.602934
v    22.852788 102.288732 4.602934
v    24.658404 100.838687 7.454879
v    20.694204 101.450045 7.454879
v    22.146852 97.711268 7.454879
v    24.559259 101.258159 7.274158
v    24.997205 101.370174 8.011079
v    25.104977 101.395462 8.191069
v    25.411195 101.479184 8.508834
v    24.868473 100.462314 7.274158
v    25.267165 100.675362 8.011079
v    25.363739 100.729470 8.191069
v    25.646155 100.874453 8.508834
v    24.663782 100.511898 7.454879
v    20.974522 101.618097 7.454879
v    21.861155 97.870005 7.454879
v    20.335858 99.488102 12.007949
v    24.025118 98.381903 12.007949
v    23.138485 102.129995 12.007949
v    20.382163 98.933808 11.757258
v    20.108161 98.902962 12.206756
v    19.604500 98.856404 13.029173
v    19.280234 98.814476 13.356456
v    18.781661 98.767156 13.855695
v    20.128909 100.004395 11.757258
v    19.870127 99.909209 12.206756
v    19.398988 99.725172 13.029173
v    19.090304 99.617371 13.356456
v    18.623372 99.436295 13.855695
v    21.095515 98.396392 12.007949
v    24.590737 99.585640 12.007949
v    21.813207 102.017967 12.007949
v    23.904125 101.603608 16.425721
v    20.408903 100.414360 16.425721
v    23.186433 97.982033 16.425721
v    23.415420 102.180586 16.085236
v    23.698369 102.434507 16.705001
v    24.214386 102.879343 17.812738
v    24.545596 103.186577 18.264943
v    25.333819 103.869444 19.304546
v    25.677192 104.182683 19.568759
v    24.540539 101.195302 16.085236
v    24.754908 101.509279 16.705001
v    25.127771 102.079477 17.812738
v    25.388620 102.448328 18.264943
v    25.961519 103.319757 19.304546
v    26.226714 103.701457 19.568759
v    24.218802 101.097521 16.425721
v    20.689848 100.939922 16.425721
v    22.590810 97.962557 16.425721
v    20.780838 98.902479 35.686441
v    24.309792 99.060078 35.686441
v    22.408830 102.037443 35.686441
v    21.201691 97.966299 35.233658
v    20.587114 97.670902 36.345260
v    19.923717 97.368163 37.530916
v    19.173394 96.992175 38.370987
v    18.130751 96.513278 39.514744
v    16.902943 95.910756 40.292221
v    16.740462 95.856782 40.387178
v    20.108684 99.678211 35.233658
v    19.582094 99.245005 36.345260
v    19.028299 98.770602 37.530916
v    18.371478 98.248168 38.370987
v    17.498291 97.503863 39.514744
v    16.435038 96.643608 40.292221
v    16.317702 96.518926 40.387178
v    20.919840 98.861621 35.686441
v    24.275675 99.200887 35.686441
v    22.303945 101.937492 35.686441
v    24.079800 101.138379 53.205783
v    20.723965 100.799113 53.205783
v    22.695695 98.062508 53.205783
v    23.510033 102.261211 52.616245
v    23.716300 102.375016 53.000286
v    25.135363 103.121468 55.607347
v    27.421421 104.339223 58.190354
v    28.025709 104.679087 58.584473
v    28.730676 104.958081 59.004964
v    24.964532 100.242481 52.616245
v    25.137779 100.402117 53.000286
v    26.295048 101.511917 55.607347
v    28.173830 103.294940 58.190354
v    28.687503 103.760569 58.584473
v    29.175307 104.340969 59.004964
v    24.054453 101.012481 53.205783
v    20.845669 100.840111 53.205783
v    22.599338 98.147408 53.205783
v    20.945187 98.987519 80.209650
v    24.153971 99.159889 80.209650
v    22.400302 101.852592 80.209650
v    21.619395 97.498874 79.458092
v    21.129955 97.258155 80.347253
v    19.500746 96.496808 83.271232
v    18.966894 96.223231 83.871683
v    16.522771 95.073759 86.564123
v    15.367648 94.493895 87.298862
v    13.905917 93.993619 88.155728
v    19.856279 100.206084 79.458092
v    19.438212 99.855774 80.347253
v    18.083113 98.673540 83.271232
v    17.617035 98.295897 83.871683
v    15.577446 96.525277 86.564123
v    14.580027 95.703262 87.298862
v    13.531424 94.568640 88.155728
v    20.957943 99.144816 80.209650
v    24.011370 99.092287 80.209650
v    22.530147 101.762897 80.209650
v    24.041697 100.855184 116.014694
v    20.988270 100.907713 116.014694
v    22.469493 98.237103 116.014694
v    23.254725 102.910864 115.076603
v    25.145652 103.679793 118.404297
v    25.967856 103.995190 119.836141
v    28.349735 105.009815 122.427632
v    29.770794 105.558931 123.946305
v    33.354359 107.050327 126.152811
v    35.205982 107.540689 127.215153
v    35.912158 107.748408 127.363258
v    25.368866 99.099119 115.076603
v    27.022390 100.296079 118.404297
v    27.725296 100.826567 119.836141
v    29.847204 102.309915 122.427632
v    31.065466 103.224669 123.946305
v    34.228108 105.474979 126.152811
v    35.624508 106.786096 127.215153
v    36.174634 107.275170 127.363258
v    24.114715 100.429572 116.014694
v    21.320352 101.183754 116.014694
v    22.064393 98.386674 116.014694
v    20.884925 99.570428 151.644671
v    23.679288 98.816246 151.644671
v    22.935247 101.613326 151.644671
v    21.214454 96.863274 150.498216
v    18.435035 96.472141 155.073852
v    17.677223 96.380859 156.314921
v    14.134723 95.822664 159.904609
v    12.707540 95.647205 161.338018
v    7.501023 94.871169 164.330432
v    5.693618 94.848624 165.332927
v    3.637374 94.767018 165.746977
v    19.825838 102.083515 150.498216
v    17.219429 101.041985 155.073852
v    16.516420 100.744679 156.314921
v    13.164778 99.468990 159.904609
v    11.839043 98.912156 161.338018
v    6.935076 96.998741 164.330432
v    5.355347 96.120288 165.332927
v    3.530324 95.169452 165.746977
v    21.041526 99.394647 151.644671
v    23.753218 99.039757 151.644671
v    22.704716 101.565597 151.644671
v    23.958114 100.605353 179.645358
v    21.246422 100.960243 179.645358
v    22.294924 98.434403 179.645358
v    23.199474 103.611003 178.273530
v    25.108209 104.146019 181.505062
v    27.328211 104.720819 185.233696
v    29.656530 105.415022 187.665659
v    33.129583 106.323349 191.244243
v    36.976329 107.435499 193.520538
v    41.443055 108.092095 196.024481
v    41.644312 108.127293 196.065589
v    25.551062 97.946033 178.273530
v    27.277566 98.920043 181.505062
v    29.252007 100.086399 185.233696
v    31.387482 101.245163 187.665659
v    34.482806 103.063437 191.244243
v    37.986311 105.002453 193.520538
v    41.604920 107.702164 196.024481
v    41.771939 107.819840 196.065589
v    23.647956 100.944713 179.645358
v    21.107606 100.521958 179.645358
v    22.743898 98.533328 179.645358
v    21.351684 99.055287 201.129392
v    23.892034 99.478042 201.129392
v    22.255742 101.466672 201.129392
v    23.232109 95.937124 199.522183
v    21.207418 94.644142 203.438441
v    18.983065 93.285289 207.676591
v    16.519494 91.654267 210.634017
v    13.028251 89.509706 214.718443
v    8.983399 86.879953 217.461036
v    4.323537 84.680537 220.318885
v    3.695383 84.362890 220.460513
v    18.654018 101.501005 199.522183
v    16.995326 99.763214 203.438441
v    15.233546 97.842184 207.676591
v    13.158623 95.738827 210.634017
v    10.381866 92.725932 214.718443
v    7.022385 89.263227 217.461036
v    3.966749 85.114152 220.318885
v    3.534078 84.558928 220.460513
v    21.536143 98.991726 201.129392
v    23.854850 99.669568 201.129392
v    22.108468 101.338706 201.129392
v    23.463497 101.008274 220.341894
v    21.144790 100.330432 220.341894
v    22.891172 98.661294 220.341894
v    20.683734 104.504755 218.498256
v    24.699746 107.804695 226.971807
v    30.224963 112.473516 234.551235
v    31.308744 113.332767 235.929960
v    38.680535 119.491527 241.390580
v    40.152226 120.415223 242.354255
v    44.926932 123.596207 243.508620
v    27.082071 98.389423 218.498256
v    30.197081 102.550513 226.971807
v    34.611343 108.281151 234.551235
v    35.420719 109.402668 235.929960
v    41.239917 117.045349 241.390580
v    42.096136 118.557293 242.354255
v    45.058012 123.470924 243.508620
v    23.412132 100.929805 220.341894
v    21.238430 100.325183 220.341894
v    22.848899 98.745013 220.341894
v    21.587508 99.070195 232.946400
v    23.761210 99.674817 232.946400
v    22.150741 101.254987 232.946400
v    24.718681 95.042813 230.875739
v    19.682655 91.020627 241.381536
v    13.194516 85.651060 249.811728
v    3.449186 77.745306 257.221382
v    -3.871556 73.031716 259.258757
v    17.501389 102.124320 230.875739
v    13.575567 97.012818 241.381536
v    8.330182 90.423877 249.811728
v    0.610926 80.530168 257.221382
v    -3.962788 73.121232 259.258757
v    21.688766 99.101354 232.946400
v    23.683598 99.746930 232.946400
v    22.127097 101.151717 232.946400
v    23.310874 100.898646 239.814151
v    21.316042 100.253070 239.814151
v    22.872543 98.848283 239.814151
v    19.947676 104.943927 237.537100
v    23.162096 107.742821 244.485301
v    25.334573 109.559627 249.090044
v    29.308982 113.137105 254.442596
v    32.860086 116.121653 259.066749
v    39.050232 121.600993 263.766166
v    43.900203 124.841813 267.001304
v    46.565314 126.729476 267.658416
v    27.678682 97.966471 237.537100
v    30.134419 101.450098 244.485301
v    31.719693 103.796872 249.090044
v    34.872269 108.116078 254.442596
v    37.478281 111.953599 259.066749
v    42.296320 118.671304 263.766166
v    45.024522 123.827083 267.001304
v    46.629937 126.671152 267.658416
v    23.478731 100.190567 239.814151
v    21.845328 100.752478 239.814151
v    22.175401 99.056955 239.814151
v    21.520909 99.809433 243.686532
v    23.154312 99.247522 243.686532
v    22.824239 100.943045 243.686532
v    21.753418 94.390754 241.234836
v    19.199156 94.206300 245.409619
v    14.123336 93.941310 253.673870
v    11.121036 93.674703 256.690910
v    3.383367 93.251730 264.415771
v    -2.118346 92.809299 267.553395
v    -11.668474 93.337427 272.858147
v    19.703732 104.919619 241.234836
v    17.266808 104.132424 245.409619
v    12.462257 102.473973 253.673870
v    9.579196 101.594859 256.690910
v    2.247920 99.084316 264.415771
v    -3.017985 97.430582 267.553395
v    -11.672574 93.358488 272.858147
v    21.917581 99.519672 243.686532
v    23.206916 99.735931 243.686532
v    22.374963 100.744398 243.686532
v    23.082059 100.480328 246.345795
v    21.792724 100.264069 246.345795
v    22.624677 99.255602 246.345795
v    20.202985 105.307465 243.761209
v    21.786485 106.321550 246.826597
v    27.055900 109.549877 256.874478
v    28.779804 110.694368 258.945713
v    36.682694 115.562783 268.198623
v    40.412611 117.994567 270.729779
v    49.567319 122.329823 276.347668
v    27.273971 96.736242 243.761209
v    28.570546 98.098127 246.826597
v    32.741585 102.657872 256.874478
v    34.192875 104.132815 258.945713
v    40.474649 110.966296 268.198623
v    43.571050 114.166007 270.729779
v    49.567319 122.329823 276.347668
v    22.932497 100.324910 246.345795
v    22.002101 100.212254 246.345795
v    22.564862 99.462836 246.345795
v    22.067143 99.675090 248.048395
v    22.997539 99.787746 248.048395
v    22.434778 100.537164 248.048395
v    24.928977 94.401295 245.380642
v    21.795982 92.591128 251.279230
v    17.683221 90.322978 258.915869
v    13.906108 88.056827 263.324916
v    7.520286 84.514666 270.604401
v    1.149672 80.764259 274.806820
v    -7.321467 77.216782 279.900386
v    -8.620593 76.630733 280.187141
v    17.800588 103.894036 245.380642
v    15.188569 101.390097 251.279230
v    11.863517 98.072967 258.915869
v    8.633985 95.077614 263.324916
v    3.451601 89.932857 270.604401
v    -1.926527 84.860775 274.806820
v    -7.695521 77.714902 279.900386
v    -8.620593 76.630733 280.187141
v    22.208096 99.795676 248.048395
v    22.822632 99.849522 248.048395
v    22.468732 100.354803 248.048395
v    22.791544 100.204324 248.578323
v    22.177008 100.150478 248.578323
v    22.530908 99.645197 248.578323
v    20.785697 104.615481 245.882258
v    22.874037 105.678618 249.692467
v    28.443976 108.202318 259.561133
v    33.111470 110.592878 264.788719
v    39.639031 112.678865 271.373715
v    41.746771 113.480618 272.624419
v    26.251524 96.811646 245.882258
v    27.964382 98.410879 249.692467
v    32.239770 102.782873 259.561133
v    36.081604 106.352270 264.788719
v    40.272927 111.773820 271.373715
v    41.746771 113.480618 272.624419
v    22.662649 100.116166 248.578323
v    22.317803 100.082931 248.578323
v    22.519008 99.800903 248.578323
v    22.336991 99.883834 248.724000
v    22.681837 99.917069 248.724000
v    22.480632 100.199097 248.724000
v    21.957120 95.400293 244.120296
v    21.056958 95.824116 252.994184
v    19.860013 96.845602 259.944186
v    18.160903 96.904513 264.464767
v    17.973855 100.983601 244.120296
v    18.081695 99.994516 252.994184
v    18.658096 98.530318 259.944186
v    18.160903 96.904513 264.464767
v    24.688368 101.326948 2.626239
v    24.858329 101.384320 2.918391
v    24.929574 101.408972 3.041291
v    25.148497 101.492482 3.276164
v    25.290565 101.544277 3.427526
v    25.524121 101.634594 3.570265
v    25.796704 101.731408 3.734702
v    26.062232 101.829517 3.792780
v    26.439067 101.918936 3.870706
v    24.893753 100.905329 2.626239
v    25.043696 101.003793 2.918391
v    25.107025 101.044696 3.041291
v    25.307731 101.165601 3.276164
v    25.436089 101.245539 3.427526
v    25.651176 101.373772 3.570265
v    25.895436 101.528728 3.734702
v    26.136366 101.677332 3.792780
v    26.439067 101.918936 3.870706
v    20.528518 98.032870 4.998345
v    20.463767 97.992705 5.122560
v    20.176371 97.801729 5.468452
v    19.997421 97.686603 5.681443
v    19.690400 97.480558 5.892208
v    19.342793 97.260996 6.125928
v    18.992261 97.033332 6.211684
v    18.488870 96.787015 6.324444
v    20.149860 98.505570 4.998345
v    20.096532 98.451146 5.122560
v    19.847433 98.212361 5.468452
v    19.696024 98.062853 5.681443
v    19.427937 97.808205 5.892208
v    19.137800 97.516900 6.125928
v    18.839118 97.224509 6.211684
v    18.488870 96.787015 6.324444
v    25.411195 101.479184 8.508834
v    25.662793 101.547973 8.769920
v    25.870656 101.597285 8.982881
v    26.688333 101.813545 9.463683
v    26.954833 101.846510 9.612615
v    27.442237 101.920306 9.711800
v    25.646155 100.874453 8.508834
v    25.878197 100.993576 8.769920
v    26.064826 101.097538 8.982881
v    26.814017 101.490063 9.463683
v    27.032866 101.645673 9.612615
v    27.442237 101.920306 9.711800
v    18.781661 98.767156 13.855695
v    18.510167 98.741389 14.127552
v    17.926902 98.670904 14.461529
v    16.954140 98.685717 15.001101
v    16.943364 98.685588 15.003270
v    18.623372 99.436295 13.855695
v    18.369108 99.337692 14.127552
v    17.816081 99.139380 14.461529
v    16.953056 98.690301 15.001101
v    16.943364 98.685588 15.003270
v    25.677192 104.182683 19.568759
v    25.930326 104.413602 19.763536
v    27.009862 105.158586 20.490994
v    27.030465 105.173647 20.496129
v    26.226714 103.701457 19.568759
v    26.422216 103.982845 19.763536
v    27.018254 105.151238 20.490994
v    27.030465 105.173647 20.496129
v    16.740462 95.856782 40.387178
v    15.533578 95.455875 41.092500
v    15.184143 95.329149 41.167288
v    16.317702 96.518926 40.387178
v    15.446149 95.592811 41.092500
v    15.184143 95.329149 41.167288
v    28.730676 104.958081 59.004964
v    30.174058 105.529306 59.865898
v    29.175307 104.340969 59.004964
v    30.174058 105.529306 59.865898
v    13.905917 93.993619 88.155728
v    12.580889 93.540130 88.932459
v    13.531424 94.568640 88.155728
v    12.580889 93.540130 88.932459
v    35.912158 107.748408 127.363258
v    37.099941 108.097790 127.612369
v    36.174634 107.275170 127.363258
v    37.099941 108.097790 127.612369
v    3.637374 94.767018 165.746977
v    2.685377 94.729236 165.938673
v    3.530324 95.169452 165.746977
v    2.685377 94.729236 165.938673
v    41.644312 108.127293 196.065589
v    42.394542 108.258506 196.218830
v    41.771939 107.819840 196.065589
v    42.394542 108.258506 196.218830
v    3.695383 84.362890 220.460513
v    3.177058 84.100782 220.577378
v    3.534078 84.558928 220.460513
v    3.177058 84.100782 220.577378
v    44.926932 123.596207 243.508620
v    45.272177 123.826215 243.592089
v    45.058012 123.470924 243.508620
v    45.272177 123.826215 243.592089
v    -3.871556 73.031716 259.258757
v    -4.117025 72.872788 259.317594
v    -3.962788 73.121232 259.258757
v    -4.117025 72.872788 259.317594
v    46.565314 126.729476 267.658416
v    46.727840 126.844591 267.698488
v    46.629937 126.671152 267.658416
v    46.727840 126.844591 267.698488
v    -11.668474 93.337427 272.858147
v    -11.712197 93.339845 272.882433
v    -11.672574 93.358488 272.858147
v    -11.712197 93.339845 272.882433
mtllib usm_24_Beer_2018-08-23_2.mtl
usemtl APPID_736408224_2612074905312 
o vid_3 
f 3 2 1
f 4 5 6
f 1 6 5
f 1 5 3
f 3 5 4
f 4 2 3
f 2 4 6
f 6 1 2
usemtl APPID_736409568_2612074903264 
o vid_4 
f 7 9 10
f 7 10 8
f 7 9 10
f 7 10 8
usemtl APPID_736408224_2612074905312 
o vid_5 
f 13 12 11
f 14 15 16
f 11 16 15
f 11 15 13
f 13 15 14
f 14 12 13
f 12 14 16
f 16 11 12
usemtl APPID_736409568_2612074903264 
o vid_6 
f 17 20 21
f 17 21 18
f 18 21 22
f 18 22 19
usemtl APPID_736408224_2612074905312 
o vid_7 
f 25 24 23
f 26 27 28
f 23 28 27
f 23 27 25
f 25 27 26
f 26 24 25
f 24 26 28
f 28 23 24
usemtl APPID_736409568_2612074903264 
o vid_8 
f 29 33 34
f 30 34 35
f 29 34 30
f 30 35 31
f 31 35 36
f 31 36 32
usemtl APPID_736408224_2612074905312 
o vid_9 
f 39 38 37
f 40 41 42
f 37 42 41
f 37 41 39
f 39 41 40
f 40 38 39
f 38 40 42
f 42 37 38
usemtl APPID_736409568_2612074903264 
o vid_10 
f 43 48 49
f 44 49 50
f 45 50 51
f 43 49 44
f 44 50 45
f 45 51 46
f 46 51 52
f 46 52 47
usemtl APPID_736408224_2612074905312 
o vid_11 
f 55 54 53
f 56 57 58
f 53 58 57
f 53 57 55
f 55 57 56
f 56 54 55
f 54 56 58
f 58 53 54
usemtl APPID_736409568_2612074903264 
o vid_12 
f 59 65 66
f 60 66 67
f 61 67 68
f 62 68 69
f 59 66 60
f 60 67 61
f 61 68 62
f 62 69 63
f 63 69 70
f 63 70 64
usemtl APPID_736408224_2612074905312 
o vid_13 
f 73 72 71
f 74 75 76
f 71 76 75
f 71 75 73
f 73 75 74
f 74 72 73
f 72 74 76
f 76 71 72
usemtl APPID_736409568_2612074903264 
o vid_14 
f 77 84 85
f 78 85 86
f 79 86 87
f 80 87 88
f 81 88 89
f 77 85 78
f 78 86 79
f 79 87 80
f 80 88 81
f 81 89 82
f 82 89 90
f 82 90 83
usemtl APPID_736408224_2612074905312 
o vid_15 
f 93 92 91
f 94 95 96
f 91 96 95
f 91 95 93
f 93 95 94
f 94 92 93
f 92 94 96
f 96 91 92
usemtl APPID_736409568_2612074903264 
o vid_16 
f 97 103 104
f 98 104 105
f 99 105 106
f 100 106 107
f 97 104 98
f 98 105 99
f 99 106 100
f 100 107 101
f 101 107 108
f 101 108 102
usemtl APPID_736408224_2612074905312 
o vid_17 
f 111 110 109
f 112 113 114
f 109 114 113
f 109 113 111
f 111 113 112
f 112 110 111
f 110 112 114
f 114 109 110
usemtl APPID_736409568_2612074903264 
o vid_18 
f 115 122 123
f 116 123 124
f 117 124 125
f 118 125 126
f 119 126 127
f 115 123 116
f 116 124 117
f 117 125 118
f 118 126 119
f 119 127 120
f 120 127 128
f 120 128 121
usemtl APPID_736408224_2612074905312 
o vid_19 
f 131 130 129
f 132 133 134
f 129 134 133
f 129 133 131
f 131 133 132
f 132 130 131
f 130 132 134
f 134 129 130
usemtl APPID_736409568_2612074903264 
o vid_20 
f 135 143 144
f 136 144 145
f 137 145 146
f 138 146 147
f 139 147 148
f 140 148 149
f 135 144 136
f 136 145 137
f 137 146 138
f 138 147 139
f 139 148 140
f 140 149 141
f 141 149 150
f 141 150 142
usemtl APPID_736408224_2612074905312 
o vid_21 
f 153 152 151
f 154 155 156
f 151 156 155
f 151 155 153
f 153 155 154
f 154 152 153
f 152 154 156
f 156 151 152
usemtl APPID_736409568_2612074903264 
o vid_22 
f 157 165 166
f 158 166 167
f 159 167 168
f 160 168 169
f 161 169 170
f 162 170 171
f 157 166 158
f 158 167 159
f 159 168 160
f 160 169 161
f 161 170 162
f 162 171 163
f 163 171 172
f 163 172 164
usemtl APPID_736408224_2612074905312 
o vid_23 
f 175 174 173
f 176 177 178
f 173 178 177
f 173 177 175
f 175 177 176
f 176 174 175
f 174 176 178
f 178 173 174
usemtl APPID_736409568_2612074903264 
o vid_24 
f 179 187 188
f 180 188 189
f 181 189 190
f 182 190 191
f 183 191 192
f 184 192 193
f 179 188 180
f 180 189 181
f 181 190 182
f 182 191 183
f 183 192 184
f 184 193 185
f 185 193 194
f 185 194 186
usemtl APPID_736408224_2612074905312 
o vid_25 
f 197 196 195
f 198 199 200
f 195 200 199
f 195 199 197
f 197 199 198
f 198 196 197
f 196 198 200
f 200 195 196
usemtl APPID_736409568_2612074903264 
o vid_26 
f 201 209 210
f 202 210 211
f 203 211 212
f 204 212 213
f 205 213 214
f 206 214 215
f 201 210 202
f 202 211 203
f 203 212 204
f 204 213 205
f 205 214 206
f 206 215 207
f 207 215 216
f 207 216 208
usemtl APPID_736408224_2612074905312 
o vid_27 
f 219 218 217
f 220 221 222
f 217 222 221
f 217 221 219
f 219 221 220
f 220 218 219
f 218 220 222
f 222 217 218
usemtl APPID_736409568_2612074903264 
o vid_28 
f 223 230 231
f 224 231 232
f 225 232 233
f 226 233 234
f 227 234 235
f 223 231 224
f 224 232 225
f 225 233 226
f 226 234 227
f 227 235 228
f 228 235 236
f 228 236 229
usemtl APPID_736408224_2612074905312 
o vid_29 
f 239 238 237
f 240 241 242
f 237 242 241
f 237 241 239
f 239 241 240
f 240 238 239
f 238 240 242
f 242 237 238
usemtl APPID_736409568_2612074903264 
o vid_30 
f 243 248 249
f 244 249 250
f 245 250 251
f 243 249 244
f 244 250 245
f 245 251 246
f 246 251 252
f 246 252 247
usemtl APPID_736408224_2612074905312 
o vid_31 
f 255 254 253
f 256 257 258
f 253 258 257
f 253 257 255
f 255 257 256
f 256 254 255
f 254 256 258
f 258 253 254
usemtl APPID_736409568_2612074903264 
o vid_32 
f 259 267 268
f 260 268 269
f 261 269 270
f 262 270 271
f 263 271 272
f 264 272 273
f 259 268 260
f 260 269 261
f 261 270 262
f 262 271 263
f 263 272 264
f 264 273 265
f 265 273 274
f 265 274 266
usemtl APPID_736408224_2612074905312 
o vid_33 
f 277 276 275
f 278 279 280
f 275 280 279
f 275 279 277
f 277 279 278
f 278 276 277
f 276 278 280
f 280 275 276
usemtl APPID_736409568_2612074903264 
o vid_34 
f 281 288 289
f 282 289 290
f 283 290 291
f 284 291 292
f 285 292 293
f 281 289 282
f 282 290 283
f 283 291 284
f 284 292 285
f 285 293 286
f 286 293 294
f 286 294 287
usemtl APPID_736408224_2612074905312 
o vid_35 
f 297 296 295
f 298 299 300
f 295 300 299
f 295 299 297
f 297 299 298
f 298 296 297
f 296 298 300
f 300 295 296
usemtl APPID_736409568_2612074903264 
o vid_36 
f 301 308 309
f 302 309 310
f 303 310 311
f 304 311 312
f 305 312 313
f 301 309 302
f 302 310 303
f 303 311 304
f 304 312 305
f 305 313 306
f 306 313 314
usemtl APPID_736408224_2612074905312 
o vid_37 
f 317 316 315
f 318 319 320
f 315 320 319
f 315 319 317
f 317 319 318
f 318 316 317
f 316 318 320
f 320 315 316
usemtl APPID_736409568_2612074903264 
o vid_38 
f 321 329 330
f 322 330 331
f 323 331 332
f 324 332 333
f 325 333 334
f 326 334 335
f 321 330 322
f 322 331 323
f 323 332 324
f 324 333 325
f 325 334 326
f 326 335 327
f 327 335 336
usemtl APPID_736408224_2612074905312 
o vid_39 
f 339 338 337
f 340 341 342
f 337 342 341
f 337 341 339
f 339 341 340
f 340 338 339
f 338 340 342
f 342 337 338
usemtl APPID_736409568_2612074903264 
o vid_40 
f 343 349 350
f 344 350 351
f 345 351 352
f 346 352 353
f 343 350 344
f 344 351 345
f 345 352 346
f 346 353 347
f 347 353 354
usemtl APPID_736408224_2612074905312 
o vid_41 
f 357 356 355
f 358 359 360
f 355 360 359
f 355 359 357
f 357 359 358
f 358 356 357
f 356 358 360
f 360 355 356
usemtl APPID_736409568_2612074903264 
o vid_42 
f 361 365 366
f 362 366 367
f 361 366 362
f 362 367 363
f 363 367 368
usemtl APPID_736407328_2612074902368 
o vid_10000004 
f 369 378 379
f 370 379 380
f 371 380 381
f 372 381 382
f 373 382 383
f 374 383 384
f 375 384 385
f 369 379 370
f 370 380 371
f 371 381 372
f 372 382 373
f 373 383 374
f 374 384 375
f 375 385 376
f 376 385 386
usemtl APPID_736407328_2612074902368 
o vid_10000006 
f 387 395 396
f 388 396 397
f 389 397 398
f 390 398 399
f 391 399 400
f 392 400 401
f 387 396 388
f 388 397 389
f 389 398 390
f 390 399 391
f 391 400 392
f 392 401 393
f 393 401 402
usemtl APPID_736407328_2612074902368 
o vid_10000008 
f 403 409 410
f 404 410 411
f 405 411 412
f 406 412 413
f 403 410 404
f 404 411 405
f 405 412 406
f 406 413 407
f 407 413 414
usemtl APPID_736407328_2612074902368 
o vid_10000010 
f 415 420 421
f 416 421 422
f 417 422 423
f 415 421 416
f 416 422 417
f 417 423 418
f 418 423 424
usemtl APPID_736407328_2612074902368 
o vid_10000012 
f 425 429 430
f 426 430 431
f 425 430 426
f 426 431 427
f 427 431 432
usemtl APPID_736407328_2612074902368 
o vid_10000014 
f 433 436 437
f 433 437 434
f 434 437 438
usemtl APPID_736407328_2612074902368 
o vid_10000016 
f 439 441 442
f 439 442 440
f 439 441 442
usemtl APPID_736407328_2612074902368 
o vid_10000018 
f 443 445 446
f 443 446 444
f 443 445 446
usemtl APPID_736407328_2612074902368 
o vid_10000020 
f 447 449 450
f 447 450 448
f 447 449 450
usemtl APPID_736407328_2612074902368 
o vid_10000022 
f 451 453 454
f 451 454 452
f 451 453 454
usemtl APPID_736407328_2612074902368 
o vid_10000024 
f 455 457 458
f 455 458 456
f 455 457 458
usemtl APPID_736407328_2612074902368 
o vid_10000026 
f 459 461 462
f 459 462 460
f 459 461 462
usemtl APPID_736407328_2612074902368 
o vid_10000028 
f 463 465 466
f 463 466 464
f 463 465 466
usemtl APPID_736407328_2612074902368 
o vid_10000030 
f 467 469 470
f 467 470 468
f 467 469 470
usemtl APPID_736407328_2612074902368 
o vid_10000032 
f 471 473 474
f 471 474 472
f 471 473 474
usemtl APPID_736407328_2612074902368 
o vid_10000034 
f 475 477 478
f 475 478 476
f 475 477 478
