# File generated by PlantGL - Wed Jul 15 17:36:04 2026
v    20.303424 138.930063 0.000000
v    24.524611 138.632833 0.000000
v    22.671426 142.437103 0.000000
v    24.696216 141.069937 2.682187
v    20.475029 141.367167 2.682187
v    22.328214 137.562897 2.682187
v    24.618475 141.296366 2.593284
v    24.798206 141.357036 2.902231
v    24.880591 141.385543 3.044348
v    25.087311 141.464398 3.266130
v    25.244753 141.521798 3.433871
v    25.463013 141.606199 3.567261
v    25.755427 141.710057 3.743662
v    26.003574 141.801744 3.797938
v    26.383617 141.891925 3.876528
v    24.826588 140.869145 2.593284
v    24.985151 140.973269 2.902231
v    25.058382 141.020568 3.044348
v    25.247901 141.134734 3.266130
v    25.390150 141.223323 3.433871
v    25.591150 141.343157 3.567261
v    25.853180 141.509387 3.743662
v    26.078340 141.648263 3.797938
v    26.383617 141.891925 3.876528
v    24.042722 141.235946 2.682187
v    20.658008 140.718219 2.682187
v    22.798730 138.045835 2.682187
v    20.956918 138.764054 4.602934
v    24.341632 139.281781 4.602934
v    22.200910 141.954165 4.602934
v    21.139020 138.469074 4.474472
v    20.900058 138.323343 4.930323
v    20.797928 138.259993 5.126243
v    20.525149 138.078730 5.454543
v    20.328089 137.951952 5.689089
v    20.039332 137.758164 5.887317
v    19.668392 137.523864 6.136725
v    19.338700 137.309736 6.217383
v    18.831740 137.061673 6.330942
v    20.708796 139.006147 4.474472
v    20.514423 138.804754 4.930323
v    20.430309 138.718912 5.126243
v    20.193880 138.492272 5.454543
v    20.027148 138.327634 5.689089
v    19.775008 138.088134 5.887317
v    19.465396 137.777275 6.136725
v    19.184472 137.502268 6.217383
v    18.831740 137.061673 6.330942
v    21.064890 139.442478 4.602934
v    23.700113 139.036075 4.602934
v    22.734457 141.521446 4.602934
v    23.934750 140.557522 7.454389
v    21.299527 140.963925 7.454389
v    22.265183 138.478554 7.454389
v    23.835686 140.977727 7.272630
v    24.261607 141.086667 7.989316
v    24.384651 141.115538 8.194812
v    24.926088 141.263571 8.756666
v    25.154984 141.317872 8.991175
v    25.953165 141.528976 9.460514
v    26.246656 141.565280 9.624529
v    26.708429 141.635195 9.718499
v    24.145375 140.180662 7.272630
v    24.533119 140.387860 7.989316
v    24.643378 140.449636 8.194812
v    25.142730 140.705986 8.756666
v    25.348243 140.820469 8.991175
v    26.079572 141.203634 9.460514
v    26.320585 141.375004 9.624529
v    26.708429 141.635195 9.718499
v    23.600206 140.260303 7.454389
v    21.724198 140.822811 7.454389
v    22.175056 138.916887 7.454389
v    21.399434 139.739697 12.006019
v    23.275442 139.177189 12.006019
v    22.824584 141.083113 12.006019
v    21.445534 139.184659 11.754202
v    21.185163 139.155347 12.181339
v    20.664311 139.107200 13.031828
v    20.358649 139.067678 13.340333
v    19.564903 138.992343 14.135140
v    19.003772 138.924533 14.456444
v    18.016987 138.939560 15.003794
v    21.191969 140.256564 11.754202
v    20.946061 140.166113 12.181339
v    20.458840 139.975794 13.031828
v    20.167867 139.874178 13.340333
v    19.424494 139.585899 14.135140
v    18.892453 139.395113 14.456444
v    18.016987 138.939560 15.003794
v    22.005147 139.435121 12.006019
v    23.236356 139.854040 12.006019
v    22.257957 140.710839 12.006019
v    22.994493 140.564879 14.901000
v    21.763284 140.145960 14.901000
v    22.741683 139.289161 14.901000
v    22.745535 141.173862 14.248977
v    22.843297 141.245502 14.588145
v    23.328363 141.551867 16.165106
v    23.640868 141.800863 16.777455
v    24.361025 142.163006 17.940615
v    24.435158 142.210007 18.016120
v    23.631000 140.398446 14.248977
v    23.689115 140.504806 14.588145
v    23.928803 141.026053 16.165106
v    24.134389 141.368678 16.777455
v    24.398349 142.130321 17.940615
v    24.435158 142.210007 18.016120
mtllib usm_22_2.5D_2018-07-15_3.mtl
usemtl APPID_887255296_1834833428480 
o vid_3 
f 3 2 1
f 4 5 6
f 1 6 5
f 1 5 3
f 3 5 4
f 4 2 3
f 2 4 6
f 6 1 2
usemtl APPID_887256080_1834833432192 
o vid_4 
f 7 16 17
f 8 17 18
f 9 18 19
f 10 19 20
f 11 20 21
f 12 21 22
f 13 22 23
f 7 17 8
f 8 18 9
f 9 19 10
f 10 20 11
f 11 21 12
f 12 22 13
f 13 23 14
f 14 23 24
usemtl APPID_887255296_1834833428480 
o vid_5 
f 27 26 25
f 28 29 30
f 25 30 29
f 25 29 27
f 27 29 28
f 28 26 27
f 26 28 30
f 30 25 26
usemtl APPID_887256080_1834833432192 
o vid_6 
f 31 40 41
f 32 41 42
f 33 42 43
f 34 43 44
f 35 44 45
f 36 45 46
f 37 46 47
f 31 41 32
f 32 42 33
f 33 43 34
f 34 44 35
f 35 45 36
f 36 46 37
f 37 47 38
f 38 47 48
usemtl APPID_887255296_1834833428480 
o vid_7 
f 51 50 49
f 52 53 54
f 49 54 53
f 49 53 51
f 51 53 52
f 52 50 51
f 50 52 54
f 54 49 50
usemtl APPID_887256080_1834833432192 
o vid_8 
f 55 63 64
f 56 64 65
f 57 65 66
f 58 66 67
f 59 67 68
f 60 68 69
f 55 64 56
f 56 65 57
f 57 66 58
f 58 67 59
f 59 68 60
f 60 69 61
f 61 69 70
usemtl APPID_887255296_1834833428480 
o vid_9 
f 73 72 71
f 74 75 76
f 71 76 75
f 71 75 73
f 73 75 74
f 74 72 73
f 72 74 76
f 76 71 72
usemtl APPID_887256080_1834833432192 
o vid_10 
f 77 84 85
f 78 85 86
f 79 86 87
f 80 87 88
f 81 88 89
f 77 85 78
f 78 86 79
f 79 87 80
f 80 88 81
f 81 89 82
f 82 89 90
usemtl APPID_887255296_1834833428480 
o vid_11 
f 93 92 91
f 94 95 96
f 91 96 95
f 91 95 93
f 93 95 94
f 94 92 93
f 92 94 96
f 96 91 92
usemtl APPID_887256080_1834833432192 
o vid_12 
f 97 103 104
f 98 104 105
f 99 105 106
f 100 106 107
f 97 104 98
f 98 105 99
f 99 106 100
f 100 107 101
f 101 107 108
