# File generated by PlantGL - Wed Jul 15 17:36:02 2026
v    20.252304 298.905161 0.000000
v    24.571736 298.601013 0.000000
v    22.675420 302.493825 0.000000
v    24.747336 301.094839 2.682187
v    20.427904 301.398987 2.682187
v    22.324220 297.506175 2.682187
v    24.669594 301.321204 2.593371
v    24.850450 301.382253 2.904252
v    24.931458 301.410284 3.043994
v    25.139707 301.489722 3.267415
v    25.295252 301.546430 3.433136
v    25.515425 301.631572 3.567695
v    25.805399 301.734563 3.742624
v    26.055720 301.827053 3.797376
v    26.435391 301.917146 3.875888
v    24.877657 300.894086 2.593371
v    25.037212 300.998862 2.904252
v    25.109219 301.045371 3.043994
v    25.300140 301.160381 3.267415
v    25.440675 301.247903 3.433136
v    25.643436 301.368787 3.567695
v    25.903280 301.533630 3.742624
v    26.130412 301.673722 3.797376
v    26.435391 301.917146 3.875888
v    24.270225 301.418189 2.682187
v    20.386430 300.824121 2.682187
v    22.842805 297.757690 2.682187
v    20.729415 298.581811 4.602934
v    24.613210 299.175879 4.602934
v    22.156835 302.242310 4.602934
v    20.911502 298.286915 4.474596
v    20.671039 298.140268 4.933312
v    20.570730 298.078047 5.125738
v    20.295934 297.895444 5.456466
v    20.101371 297.770273 5.688040
v    19.810093 297.574793 5.887998
v    19.442369 297.342525 6.135243
v    19.109801 297.126529 6.216605
v    18.603332 296.878705 6.330054
v    20.481371 298.823873 4.474596
v    20.285776 298.621213 4.933312
v    20.203162 298.536903 5.125738
v    19.964984 298.308587 5.456466
v    19.800366 298.146035 5.688040
v    19.546025 297.904444 5.887998
v    19.239097 297.596281 6.135243
v    18.955722 297.318875 6.216605
v    18.603332 296.878705 6.330054
v    20.803575 299.340948 4.602934
v    23.918698 298.860535 4.602934
v    22.777187 301.798517 4.602934
v    24.196065 300.659052 7.454389
v    21.080942 301.139465 7.454389
v    22.222453 298.201483 7.454389
v    24.096987 301.079137 7.272804
v    24.524938 301.188596 7.992906
v    24.645409 301.216864 8.194105
v    25.189611 301.365653 8.758829
v    25.414965 301.419114 8.989708
v    26.216439 301.631088 9.460983
v    26.505383 301.666830 9.622458
v    26.971480 301.737400 9.717307
v    24.406598 300.282271 7.272804
v    24.796190 300.490457 7.992906
v    24.904145 300.550941 8.194105
v    25.406046 300.808601 8.758829
v    25.608379 300.921311 8.989708
v    26.342725 301.306057 9.460983
v    26.580004 301.474773 9.622458
v    26.971480 301.737400 9.717307
v    23.862172 300.322272 7.454389
v    21.539548 301.018695 7.454389
v    22.097740 298.659032 7.454389
v    21.137468 299.677728 12.006019
v    23.460092 298.981305 12.006019
v    22.901900 301.340968 12.006019
v    21.183613 299.122838 11.754440
v    20.920295 299.093194 12.186411
v    20.403141 299.045389 13.030860
v    20.093459 299.005348 13.343424
v    19.304806 298.930496 14.133131
v    18.738886 298.862107 14.457176
v    17.753032 298.877120 15.004011
v    20.930110 300.194481 11.754440
v    20.681418 300.103006 12.186411
v    20.197657 299.914039 13.030860
v    19.902856 299.811087 13.343424
v    19.164254 299.524657 14.133131
v    18.627673 299.332243 14.457176
v    17.753032 298.877120 15.004011
v    21.835143 299.240991 12.006019
v    23.489480 299.803878 12.006019
v    22.174837 300.955132 12.006019
v    23.164497 300.759009 15.797386
v    21.510160 300.196122 15.797386
v    22.824803 299.044868 15.797386
v    22.717736 301.299611 15.456091
v    23.426241 301.910382 16.977042
v    24.662653 302.973261 18.683059
v    25.789936 303.757059 19.445215
v    23.759318 300.387481 15.456091
v    24.271270 301.170377 16.977042
v    25.161724 302.536217 18.683059
v    25.789936 303.757059 19.445215
v    23.044847 300.347984 15.797386
v    21.925943 300.298015 15.797386
v    22.528670 299.354001 15.797386
v    21.954793 299.652016 22.218000
v    23.073697 299.701985 22.218000
v    22.470970 300.645999 22.218000
v    21.977813 298.805360 21.383203
v    21.340672 298.710580 24.011448
v    21.220601 298.666789 24.266270
v    20.250763 298.564041 26.048693
v    21.196438 300.029181 21.383203
v    20.842342 299.491085 24.011448
v    20.752090 299.400591 24.266270
v    20.250763 298.564041 26.048693
mtllib usm_18_2.5D_2018-07-17_7.mtl
usemtl APPID_3458431712_1657016152816 
o vid_3 
f 3 2 1
f 4 5 6
f 1 6 5
f 1 5 3
f 3 5 4
f 4 2 3
f 2 4 6
f 6 1 2
usemtl APPID_3458432496_1657016151152 
o vid_4 
f 7 16 17
f 8 17 18
f 9 18 19
f 10 19 20
f 11 20 21
f 12 21 22
f 13 22 23
f 7 17 8
f 8 18 9
f 9 19 10
f 10 20 11
f 11 21 12
f 12 22 13
f 13 23 14
f 14 23 24
usemtl APPID_3458431712_1657016152816 
o vid_5 
f 27 26 25
f 28 29 30
f 25 30 29
f 25 29 27
f 27 29 28
f 28 26 27
f 26 28 30
f 30 25 26
usemtl APPID_3458432496_1657016151152 
o vid_6 
f 31 40 41
f 32 41 42
f 33 42 43
f 34 43 44
f 35 44 45
f 36 45 46
f 37 46 47
f 31 41 32
f 32 42 33
f 33 43 34
f 34 44 35
f 35 45 36
f 36 46 37
f 37 47 38
f 38 47 48
usemtl APPID_3458431712_1657016152816 
o vid_7 
f 51 50 49
f 52 53 54
f 49 54 53
f 49 53 51
f 51 53 52
f 52 50 51
f 50 52 54
f 54 49 50
usemtl APPID_3458432496_1657016151152 
o vid_8 
f 55 63 64
f 56 64 65
f 57 65 66
f 58 66 67
f 59 67 68
f 60 68 69
f 55 64 56
f 56 65 57
f 57 66 58
f 58 67 59
f 59 68 60
f 60 69 61
f 61 69 70
usemtl APPID_3458431712_1657016152816 
o vid_9 
f 73 72 71
f 74 75 76
f 71 76 75
f 71 75 73
f 73 75 74
f 74 72 73
f 72 74 76
f 76 71 72
usemtl APPID_3458432496_1657016151152 
o vid_10 
f 77 84 85
f 78 85 86
f 79 86 87
f 80 87 88
f 81 88 89
f 77 85 78
f 78 86 79
f 79 87 80
f 80 88 81
f 81 89 82
f 82 89 90
usemtl APPID_3458431712_1657016152816 
o vid_11 
f 93 92 91
f 94 95 96
f 91 96 95
f 91 95 93
f 93 95 94
f 94 92 93
f 92 94 96
f 96 91 92
usemtl APPID_3458432496_1657016151152 
o vid_12 
f 97 101 102
f 98 102 103
f 97 102 98
f 98 103 99
f 99 103 104
usemtl APPID_3458431712_1657016152816 
o vid_13 
f 107 106 105
f 108 109 110
f 105 110 109
f 105 109 107
f 107 109 108
f 108 106 107
f 106 108 110
f 110 105 106
usemtl APPID_3458432496_1657016151152 
o vid_14 
f 111 115 116
f 112 116 117
f 111 116 112
f 112 117 113
f 113 117 118
