# File generated by PlantGL - Wed Jul 15 17:36:05 2026
v    20.701807 19.124129 0.000000
v    24.157353 18.880811 0.000000
v    22.640300 21.995060 0.000000
v    24.297833 20.875871 3.802807
v    20.842287 21.119189 3.802807
v    22.359340 18.004940 3.802807
v    23.931823 21.471110 3.581171
v    24.285439 21.618161 3.918141
v    24.685969 21.771999 4.294907
v    25.833020 22.227615 5.011251
v    26.430248 22.470306 5.183837
v    26.981873 22.686618 5.342323
v    28.090765 23.124921 5.333167
v    29.153160 23.509588 5.009201
v    29.611835 23.655111 4.868283
v    30.176622 23.739622 4.566687
v    24.540915 20.220749 3.581171
v    24.874682 20.408546 3.918141
v    25.242713 20.629099 4.294907
v    26.308542 21.251450 5.011251
v    26.867787 21.572114 5.183837
v    27.378149 21.873131 5.342323
v    28.406824 22.476106 5.333167
v    29.364603 23.075532 5.009201
v    29.761928 23.346996 4.868283
v    30.176622 23.739622 4.566687
v    23.937505 21.151662 3.802807
v    20.783609 20.669240 3.802807
v    22.778346 18.179098 3.802807
v    21.062135 18.848338 8.831486
v    24.216031 19.330760 8.831486
v    22.221294 21.820902 8.831486
v    21.810681 18.082337 8.490083
v    21.403352 17.793886 8.929248
v    20.778065 17.376312 9.589507
v    19.209147 16.302549 10.692951
v    18.490126 15.802084 10.927484
v    17.637771 15.224208 11.202927
v    16.220436 14.257681 11.189754
v    14.750771 13.316139 10.724087
v    14.019456 12.888333 10.475974
v    13.283093 12.616911 10.066678
v    20.477979 19.746024 8.490083
v    20.107580 19.411473 8.929248
v    19.563598 18.892400 9.589507
v    18.173291 17.595666 10.692951
v    17.527959 17.003212 10.927484
v    16.777980 16.297533 11.202927
v    15.525408 15.125323 11.189754
v    14.285798 13.896591 10.724087
v    13.708690 13.276280 10.475974
v    13.283093 12.616911 10.066678
v    21.124453 19.465621 8.831486
v    23.650290 19.076087 8.831486
v    22.724717 21.458292 8.831486
v    23.875187 20.534379 19.751385
v    21.349350 20.923913 19.751385
v    22.274923 18.541708 19.751385
v    23.146937 21.977305 19.244884
v    23.771404 22.178288 19.822097
v    24.293757 22.346406 20.304923
v    24.918017 22.528619 20.875974
v    27.616422 23.349691 22.513027
v    29.427548 23.916419 23.021083
v    30.317677 24.183008 23.269620
v    32.991372 24.991656 23.248171
v    35.822293 25.768125 22.383878
v    38.162295 26.085433 21.284668
v    24.312164 18.978284 19.244884
v    24.908515 19.251632 19.822097
v    25.407349 19.480282 20.304923
v    25.990874 19.767337 20.875974
v    28.535779 20.983479 22.513027
v    30.254438 21.788198 23.021083
v    31.091056 22.192513 23.269620
v    33.609346 23.401138 23.248171
v    36.221892 24.739650 22.383878
v    38.162295 26.085433 21.284668
v    23.604361 20.261286 19.751385
v    21.721269 20.825918 19.751385
v    22.173829 18.912796 19.751385
v    21.395279 19.738714 37.009911
v    23.278371 19.174082 37.009911
v    22.825811 21.087204 37.009911
v    22.128885 17.607327 36.286180
v    21.359547 17.472825 36.973373
v    19.507830 17.201109 38.616819
v    15.527199 16.570636 40.955978
v    14.047351 16.324275 41.357613
v    11.536688 15.937904 42.037062
v    8.309131 15.432264 42.011976
v    4.624013 14.961320 41.126623
v    2.834612 14.806679 40.600656
v    1.147537 14.948994 39.806933
v    21.096186 21.972889 36.286180
v    20.348125 21.748441 36.973373
v    18.570925 21.161716 38.616819
v    14.729710 19.941886 40.955978
v    13.296326 19.499105 41.357613
v    10.878650 18.719649 42.037062
v    7.766623 17.725624 42.011976
v    4.261076 16.495574 41.126623
v    2.592042 15.832103 40.600656
v    1.147537 14.948994 39.806933
v    21.959227 19.382685 37.009911
v    23.304727 19.840491 37.009911
v    22.235506 20.776824 37.009911
v    23.040413 20.617315 60.100181
v    21.694913 20.159509 60.100181
v    22.764134 19.223176 60.100181
v    20.416142 22.507034 59.104182
v    22.646198 24.768332 61.898631
v    26.939878 28.982778 65.530759
v    30.441568 32.476362 66.855003
v    34.805132 36.745022 66.976369
v    36.172757 38.074870 66.413544
v    39.899339 41.515602 64.920659
v    41.646252 42.964321 63.708279
v    43.620608 44.118311 62.507513
v    25.259857 18.265316 59.104182
v    27.207152 20.774231 61.898631
v    30.818247 25.586429 65.530759
v    33.819276 29.518449 66.855003
v    37.474891 34.407072 66.976369
v    38.612668 35.938201 66.413544
v    41.531636 40.086174 64.920659
v    42.737203 42.008959 63.708279
v    43.620608 44.118311 62.507513
v    22.948334 20.286363 60.100181
v    22.027565 20.245243 60.100181
v    22.523561 19.468394 60.100181
v    22.051306 19.713637 85.836000
v    22.972075 19.754757 85.836000
v    22.476079 20.531606 85.836000
v    24.014074 17.111973 83.142801
v    22.364568 16.383373 86.946774
v    21.475215 16.019231 88.964784
v    16.891338 13.867802 95.800923
v    11.901623 11.527329 100.151272
v    9.095946 10.301782 101.619507
v    6.030489 9.484802 102.906545
v    20.517169 22.588969 83.142801
v    19.162089 21.399227 86.946774
v    18.457508 20.745687 88.964784
v    14.576893 17.492779 95.800923
v    10.354006 13.951269 100.151272
v    8.061592 11.921830 101.619507
v    6.030489 9.484802 102.906545
mtllib usm_24_2.5D_2018-08-10_0.mtl
usemtl APPID_736422000_2612074836448 
o vid_3 
f 3 2 1
f 4 5 6
f 1 6 5
f 1 5 3
f 3 5 4
f 4 2 3
f 2 4 6
f 6 1 2
usemtl APPID_736421888_2612074840928 
o vid_4 
f 7 17 18
f 8 18 19
f 9 19 20
f 10 20 21
f 11 21 22
f 12 22 23
f 13 23 24
f 14 24 25
f 7 18 8
f 8 19 9
f 9 20 10
f 10 21 11
f 11 22 12
f 12 23 13
f 13 24 14
f 14 25 15
f 15 25 26
usemtl APPID_736422000_2612074836448 
o vid_5 
f 29 28 27
f 30 31 32
f 27 32 31
f 27 31 29
f 29 31 30
f 30 28 29
f 28 30 32
f 32 27 28
usemtl APPID_736421888_2612074840928 
o vid_6 
f 33 43 44
f 34 44 45
f 35 45 46
f 36 46 47
f 37 47 48
f 38 48 49
f 39 49 50
f 40 50 51
f 33 44 34
f 34 45 35
f 35 46 36
f 36 47 37
f 37 48 38
f 38 49 39
f 39 50 40
f 40 51 41
f 41 51 52
usemtl APPID_736422000_2612074836448 
o vid_7 
f 55 54 53
f 56 57 58
f 53 58 57
f 53 57 55
f 55 57 56
f 56 54 55
f 54 56 58
f 58 53 54
usemtl APPID_736421888_2612074840928 
o vid_8 
f 59 69 70
f 60 70 71
f 61 71 72
f 62 72 73
f 63 73 74
f 64 74 75
f 65 75 76
f 66 76 77
f 59 70 60
f 60 71 61
f 61 72 62
f 62 73 63
f 63 74 64
f 64 75 65
f 65 76 66
f 66 77 67
f 67 77 78
usemtl APPID_736422000_2612074836448 
o vid_9 
f 81 80 79
f 82 83 84
f 79 84 83
f 79 83 81
f 81 83 82
f 82 80 81
f 80 82 84
f 84 79 80
usemtl APPID_736421888_2612074840928 
o vid_10 
f 85 95 96
f 86 96 97
f 87 97 98
f 88 98 99
f 89 99 100
f 90 100 101
f 91 101 102
f 92 102 103
f 85 96 86
f 86 97 87
f 87 98 88
f 88 99 89
f 89 100 90
f 90 101 91
f 91 102 92
f 92 103 93
f 93 103 104
usemtl APPID_736422000_2612074836448 
o vid_11 
f 107 106 105
f 108 109 110
f 105 110 109
f 105 109 107
f 107 109 108
f 108 106 107
f 106 108 110
f 110 105 106
usemtl APPID_736421888_2612074840928 
o vid_12 
f 111 120 121
f 112 121 122
f 113 122 123
f 114 123 124
f 115 124 125
f 116 125 126
f 117 126 127
f 111 121 112
f 112 122 113
f 113 123 114
f 114 124 115
f 115 125 116
f 116 126 117
f 117 127 118
f 118 127 128
usemtl APPID_736422000_2612074836448 
o vid_13 
f 131 130 129
f 132 133 134
f 129 134 133
f 129 133 131
f 131 133 132
f 132 130 131
f 130 132 134
f 134 129 130
usemtl APPID_736421888_2612074840928 
o vid_14 
f 135 142 143
f 136 143 144
f 137 144 145
f 138 145 146
f 139 146 147
f 135 143 136
f 136 144 137
f 137 145 138
f 138 146 139
f 139 147 140
f 140 147 148
