# File generated by PlantGL - Wed Jul 15 17:36:22 2026
v    20.252304 298.905161 0.000000
v    24.571736 298.601013 0.000000
v    22.675420 302.493825 0.000000
v    24.747336 301.094839 2.682187
v    20.427904 301.398987 2.682187
v    22.324220 297.506175 2.682187
v    24.669590 301.321077 2.593550
v    24.852820 301.382928 2.908513
v    24.930934 301.409957 3.043262
v    25.142408 301.490626 3.270143
v    25.293966 301.545880 3.431616
v    25.518175 301.632582 3.568642
v    25.803022 301.733753 3.740478
v    26.057928 301.827937 3.796233
v    26.369667 301.901910 3.860698
v    24.877554 300.894161 2.593550
v    25.039205 301.000313 2.908513
v    25.108639 301.045159 3.043262
v    25.302516 301.161951 3.270143
v    25.439449 301.247229 3.431616
v    25.645927 301.370329 3.568642
v    25.901177 301.532258 3.740478
v    26.132470 301.674917 3.796233
v    26.382880 301.874786 3.860698
v    24.379104 301.505407 2.682187
v    20.256458 300.874804 2.682187
v    22.863898 297.619789 2.682187
v    20.620536 298.494593 4.602934
v    24.743182 299.125196 4.602934
v    22.135742 302.380211 4.602934
v    20.802594 298.199875 4.474864
v    20.558886 298.051250 4.939766
v    20.462510 297.991469 5.124649
v    20.183357 297.805971 5.460620
v    19.994184 297.684267 5.685779
v    19.697463 297.485135 5.889473
v    19.336682 297.257252 6.132051
v    18.997904 297.037222 6.214932
v    18.532412 296.809449 6.319202
v    20.372659 298.736587 4.474864
v    20.174426 298.531194 4.939766
v    20.095051 298.450189 5.124649
v    19.853097 298.218253 5.460620
v    19.693039 298.060204 5.685779
v    19.433945 297.814099 5.889473
v    19.132812 297.511754 6.132051
v    18.844145 297.229167 6.214932
v    18.520266 296.824611 6.319202
v    20.341236 299.161313 4.602934
v    24.305436 298.549955 4.602934
v    22.852788 302.288732 4.602934
v    24.658404 300.838687 7.454389
v    20.694204 301.450045 7.454389
v    22.146852 297.711268 7.454389
v    24.559293 301.258505 7.273192
v    24.991797 301.369128 8.000955
v    25.106501 301.396043 8.192523
v    25.656903 301.546527 8.763680
v    25.874315 301.598104 8.986423
v    26.683172 301.812031 9.462039
v    26.961925 301.846512 9.617819
v    27.405934 301.913738 9.708173
v    24.868732 300.462082 7.273192
v    25.262469 300.672483 8.000955
v    25.365255 300.730070 8.192523
v    25.872875 300.990666 8.763680
v    26.068077 301.099404 8.986423
v    26.809188 301.487695 9.462039
v    27.038098 301.650460 9.617819
v    27.411022 301.900642 9.708173
v    24.663782 300.511898 7.454389
v    20.974522 301.618097 7.454389
v    21.861155 297.870005 7.454389
v    20.335858 299.488102 12.006019
v    24.025118 298.381903 12.006019
v    23.138485 302.129995 12.006019
v    20.382109 298.933557 11.754992
v    20.111932 298.903140 12.198215
v    19.603383 298.856131 13.028613
v    19.284341 298.814879 13.350623
v    18.507535 298.741152 14.128467
v    17.930471 298.671416 14.458894
v    16.966353 298.686098 14.993671
v    20.128748 300.004596 11.754992
v    19.873578 299.910738 12.198215
v    19.397867 299.724915 13.028613
v    19.094156 299.618851 13.350623
v    18.366649 299.336725 14.128467
v    17.819501 299.140521 14.458894
v    16.964145 298.695433 14.993671
v    21.095515 298.396392 12.006019
v    24.590737 299.585640 12.006019
v    21.813207 302.017967 12.006019
v    23.904125 301.603608 16.421928
v    20.408903 300.414360 16.421928
v    23.186433 297.982033 16.421928
v    23.415340 302.180675 16.081398
v    23.698451 302.434741 16.701518
v    24.214409 302.879526 17.809127
v    24.545829 303.186955 18.261619
v    25.333983 303.869762 19.301132
v    25.930775 304.414180 19.760340
v    27.010217 305.159099 20.487735
v    27.019791 305.166098 20.490121
v    24.540637 301.195235 16.081398
v    24.755129 301.509392 16.701518
v    25.127950 302.079524 17.809127
v    25.388963 302.448609 18.261619
v    25.961812 303.319962 19.301132
v    26.422730 303.983367 19.760340
v    27.018716 305.151657 20.487735
v    27.024390 305.162070 20.490121
v    24.218802 301.097521 16.421928
v    20.689848 300.939922 16.421928
v    22.590810 297.962557 16.421928
v    20.780838 298.902479 35.676141
v    24.309792 299.060078 35.676141
v    22.408830 302.037443 35.676141
v    21.201714 297.966540 35.223809
v    20.581588 297.668476 36.345445
v    19.925084 297.368883 37.518781
v    19.167244 296.989128 38.367269
v    18.134073 296.514582 39.500636
v    16.897258 295.907640 40.283816
v    15.540339 295.456893 41.076821
v    15.187117 295.328794 41.152420
v    20.108912 299.678130 35.223809
v    19.577568 299.241013 36.345445
v    19.029528 298.771540 37.518781
v    18.366126 298.243871 38.367269
v    17.500872 297.506328 39.500636
v    16.429819 296.639762 40.283816
v    15.449917 295.598515 41.076821
v    15.185072 295.331997 41.152420
v    20.919840 298.861621 35.676141
v    24.275675 299.200887 35.676141
v    22.303945 301.937492 35.676141
v    24.079800 301.138379 53.193347
v    20.723965 300.799113 53.193347
v    22.695695 298.062508 53.193347
v    23.510349 302.260097 52.605011
v    25.132226 303.118799 55.590020
v    27.413302 304.334527 58.167766
v    28.033881 304.683554 58.572511
v    30.173125 305.530170 59.848505
v    24.963576 300.243133 52.605011
v    26.291523 301.509787 55.590020
v    28.166805 303.288724 58.167766
v    28.694328 303.766907 58.572511
v    30.174582 305.528148 59.848505
v    24.022840 300.991892 53.193347
v    20.879306 300.823028 53.193347
v    22.597314 298.185080 53.193347
v    20.976800 299.008108 80.187012
v    24.120334 299.176972 80.187012
v    22.402326 301.814920 80.187012
v    21.650681 297.521322 79.437704
v    21.139506 297.269914 80.366350
v    19.538659 296.521820 83.239428
v    18.975284 296.233113 83.873085
v    16.570255 295.102028 86.522459
v    15.380067 294.504561 87.279501
v    12.604495 293.554626 88.906540
v    19.889461 300.225622 79.437704
v    19.452829 299.859755 80.366350
v    18.121319 298.698102 83.239428
v    17.629466 298.299574 83.873085
v    15.622501 296.557275 86.522459
v    14.594805 295.710308 87.279501
v    12.603692 293.555860 88.906540
v    21.230215 299.295828 80.187012
v    23.744453 299.252576 80.187012
v    22.524792 301.451596 80.187012
v    23.769425 300.704172 115.983293
v    21.255187 300.747424 115.983293
v    22.474848 298.548404 115.983293
v    22.982860 302.756655 115.048830
v    24.908478 303.539691 118.437574
v    25.685056 303.837586 119.789961
v    28.114150 304.872324 122.432823
v    29.472267 305.397118 123.884230
v    33.111768 306.911793 126.125177
v    34.881326 307.380422 127.140436
v    36.851294 307.959880 127.553593
v    25.094098 298.950144 115.048830
v    26.777958 300.169063 118.437574
v    27.441858 300.670113 119.789961
v    29.605827 302.182865 122.432823
v    30.770130 303.057102 123.884230
v    33.982137 305.342538 126.125177
v    35.316649 306.595546 127.140436
v    36.851294 307.959880 127.553593
v    23.577222 300.286595 115.983293
v    21.712920 300.789759 115.983293
v    22.209318 298.923645 115.983293
v    21.422418 299.713405 146.338085
v    23.286720 299.210241 146.338085
v    22.790322 301.076355 146.338085
v    21.702810 297.197811 145.196968
v    20.465826 297.023737 147.233361
v    18.174059 296.747685 150.986586
v    16.711812 296.517277 152.468311
v    13.209111 296.086651 155.986290
v    10.573839 295.693861 157.500897
v    6.135625 295.638500 159.962596
v    6.097965 295.637006 159.970179
v    20.415866 302.035835 145.196968
v    19.255880 301.572300 147.233361
v    17.129850 300.673191 150.986586
v    15.746384 300.146622 152.468311
v    12.492664 298.779998 155.986290
v    10.010527 297.811525 157.500897
v    6.131390 295.654420 159.962596
v    6.097965 295.637006 159.970179
v    21.754755 299.690716 146.338085
v    23.140200 299.509397 146.338085
v    22.604504 300.799887 146.338085
v    23.244885 300.309284 179.402515
v    21.859440 300.490603 179.402515
v    22.395136 299.200113 179.402515
v    22.428780 303.447049 178.038044
v    25.616308 304.340508 183.434601
v    26.525046 304.575798 184.960885
v    30.576165 305.783665 189.192340
v    32.271510 306.227058 190.939199
v    38.241747 307.953139 194.472061
v    40.421183 308.273510 195.693802
v    43.893773 308.880852 196.403106
v    24.890823 297.515991 178.038044
v    27.774031 299.142558 183.434601
v    28.582251 299.619996 184.960885
v    32.297834 301.636167 189.192340
v    33.808794 302.523745 190.939199
v    39.246313 305.533141 194.472061
v    41.011930 306.850403 195.693802
v    43.893773 308.880852 196.403106
v    22.907024 300.335057 179.402515
v    22.006050 300.185121 179.402515
v    22.586386 299.479823 179.402515
v    22.092616 299.664943 189.982000
v    22.993590 299.814879 189.982000
v    22.413254 300.520177 189.982000
v    22.760877 296.706044 186.926083
v    22.424229 296.533320 187.959645
v    19.720762 295.370130 195.862024
v    18.354216 294.602441 198.223725
v    14.425841 293.356542 204.078317
v    19.317796 300.890517 186.926083
v    19.083473 300.593433 187.959645
v    17.421427 298.164576 195.862024
v    16.404940 296.971451 198.223725
v    14.425841 293.356542 204.078317
v    26.369667 301.901910 3.860698
v    26.436831 301.917847 3.874586
v    26.382880 301.874786 3.860698
v    26.436831 301.917847 3.874586
v    18.532412 296.809449 6.319202
v    18.492489 296.789915 6.328145
v    18.520266 296.824611 6.319202
v    18.492489 296.789915 6.328145
v    27.405934 301.913738 9.708173
v    27.437716 301.918550 9.714641
v    27.411022 301.900642 9.708173
v    27.437716 301.918550 9.714641
v    16.966353 298.686098 14.993671
v    16.949194 298.686359 15.003189
v    16.946485 298.686327 15.003734
v    16.964145 298.695433 14.993671
v    16.948922 298.687511 15.003189
v    16.946485 298.686327 15.003734
v    27.019791 305.166098 20.490121
v    27.031082 305.174352 20.492935
v    27.024390 305.162070 20.490121
v    27.031082 305.174352 20.492935
v    15.187117 295.328794 41.152420
v    15.178944 295.325830 41.154169
v    15.185072 295.331997 41.152420
v    15.178944 295.325830 41.154169
v    30.173125 305.530170 59.848505
v    30.177854 305.532042 59.851326
v    30.174582 305.528148 59.848505
v    30.177854 305.532042 59.851326
v    12.604495 293.554626 88.906540
v    12.601651 293.553652 88.908207
v    12.603692 293.555860 88.906540
v    12.601651 293.553652 88.908207
mtllib usm_12_2.5D_2018-08-03_7.mtl
usemtl APPID_3777012224_2817002671968 
o vid_3 
f 3 2 1
f 4 5 6
f 1 6 5
f 1 5 3
f 3 5 4
f 4 2 3
f 2 4 6
f 6 1 2
usemtl APPID_3777009200_2817002670944 
o vid_4 
f 7 16 17
f 8 17 18
f 9 18 19
f 10 19 20
f 11 20 21
f 12 21 22
f 13 22 23
f 7 17 8
f 8 18 9
f 9 19 10
f 10 20 11
f 11 21 12
f 12 22 13
f 13 23 14
f 14 23 24
f 14 24 15
usemtl APPID_3777012224_2817002671968 
o vid_5 
f 27 26 25
f 28 29 30
f 25 30 29
f 25 29 27
f 27 29 28
f 28 26 27
f 26 28 30
f 30 25 26
usemtl APPID_3777009200_2817002670944 
o vid_6 
f 31 40 41
f 32 41 42
f 33 42 43
f 34 43 44
f 35 44 45
f 36 45 46
f 37 46 47
f 31 41 32
f 32 42 33
f 33 43 34
f 34 44 35
f 35 45 36
f 36 46 37
f 37 47 38
f 38 47 48
f 38 48 39
usemtl APPID_3777012224_2817002671968 
o vid_7 
f 51 50 49
f 52 53 54
f 49 54 53
f 49 53 51
f 51 53 52
f 52 50 51
f 50 52 54
f 54 49 50
usemtl APPID_3777009200_2817002670944 
o vid_8 
f 55 63 64
f 56 64 65
f 57 65 66
f 58 66 67
f 59 67 68
f 60 68 69
f 55 64 56
f 56 65 57
f 57 66 58
f 58 67 59
f 59 68 60
f 60 69 61
f 61 69 70
f 61 70 62
usemtl APPID_3777012224_2817002671968 
o vid_9 
f 73 72 71
f 74 75 76
f 71 76 75
f 71 75 73
f 73 75 74
f 74 72 73
f 72 74 76
f 76 71 72
usemtl APPID_3777009200_2817002670944 
o vid_10 
f 77 84 85
f 78 85 86
f 79 86 87
f 80 87 88
f 81 88 89
f 77 85 78
f 78 86 79
f 79 87 80
f 80 88 81
f 81 89 82
f 82 89 90
f 82 90 83
usemtl APPID_3777012224_2817002671968 
o vid_11 
f 93 92 91
f 94 95 96
f 91 96 95
f 91 95 93
f 93 95 94
f 94 92 93
f 92 94 96
f 96 91 92
usemtl APPID_3777009200_2817002670944 
o vid_12 
f 97 105 106
f 98 106 107
f 99 107 108
f 100 108 109
f 101 109 110
f 102 110 111
f 97 106 98
f 98 107 99
f 99 108 100
f 100 109 101
f 101 110 102
f 102 111 103
f 103 111 112
f 103 112 104
usemtl APPID_3777012224_2817002671968 
o vid_13 
f 115 114 113
f 116 117 118
f 113 118 117
f 113 117 115
f 115 117 116
f 116 114 115
f 114 116 118
f 118 113 114
usemtl APPID_3777009200_2817002670944 
o vid_14 
f 119 127 128
f 120 128 129
f 121 129 130
f 122 130 131
f 123 131 132
f 124 132 133
f 119 128 120
f 120 129 121
f 121 130 122
f 122 131 123
f 123 132 124
f 124 133 125
f 125 133 134
f 125 134 126
usemtl APPID_3777012224_2817002671968 
o vid_15 
f 137 136 135
f 138 139 140
f 135 140 139
f 135 139 137
f 137 139 138
f 138 136 137
f 136 138 140
f 140 135 136
usemtl APPID_3777009200_2817002670944 
o vid_16 
f 141 146 147
f 142 147 148
f 143 148 149
f 141 147 142
f 142 148 143
f 143 149 144
f 144 149 150
f 144 150 145
usemtl APPID_3777012224_2817002671968 
o vid_17 
f 153 152 151
f 154 155 156
f 151 156 155
f 151 155 153
f 153 155 154
f 154 152 153
f 152 154 156
f 156 151 152
usemtl APPID_3777009200_2817002670944 
o vid_18 
f 157 164 165
f 158 165 166
f 159 166 167
f 160 167 168
f 161 168 169
f 157 165 158
f 158 166 159
f 159 167 160
f 160 168 161
f 161 169 162
f 162 169 170
f 162 170 163
usemtl APPID_3777012224_2817002671968 
o vid_19 
f 173 172 171
f 174 175 176
f 171 176 175
f 171 175 173
f 173 175 174
f 174 172 173
f 172 174 176
f 176 171 172
usemtl APPID_3777009200_2817002670944 
o vid_20 
f 177 185 186
f 178 186 187
f 179 187 188
f 180 188 189
f 181 189 190
f 182 190 191
f 177 186 178
f 178 187 179
f 179 188 180
f 180 189 181
f 181 190 182
f 182 191 183
f 183 191 192
usemtl APPID_3777012224_2817002671968 
o vid_21 
f 195 194 193
f 196 197 198
f 193 198 197
f 193 197 195
f 195 197 196
f 196 194 195
f 194 196 198
f 198 193 194
usemtl APPID_3777009200_2817002670944 
o vid_22 
f 199 207 208
f 200 208 209
f 201 209 210
f 202 210 211
f 203 211 212
f 204 212 213
f 199 208 200
f 200 209 201
f 201 210 202
f 202 211 203
f 203 212 204
f 204 213 205
f 205 213 214
usemtl APPID_3777012224_2817002671968 
o vid_23 
f 217 216 215
f 218 219 220
f 215 220 219
f 215 219 217
f 217 219 218
f 218 216 217
f 216 218 220
f 220 215 216
usemtl APPID_3777009200_2817002670944 
o vid_24 
f 221 229 230
f 222 230 231
f 223 231 232
f 224 232 233
f 225 233 234
f 226 234 235
f 221 230 222
f 222 231 223
f 223 232 224
f 224 233 225
f 225 234 226
f 226 235 227
f 227 235 236
usemtl APPID_3777012224_2817002671968 
o vid_25 
f 239 238 237
f 240 241 242
f 237 242 241
f 237 241 239
f 239 241 240
f 240 238 239
f 238 240 242
f 242 237 238
usemtl APPID_3777009200_2817002670944 
o vid_26 
f 243 248 249
f 244 249 250
f 245 250 251
f 243 249 244
f 244 250 245
f 245 251 246
f 246 251 252
usemtl APPID_3777007744_2817002670048 
o vid_10000004 
f 253 255 256
f 253 256 254
f 253 255 256
usemtl APPID_3777007744_2817002670048 
o vid_10000006 
f 257 259 260
f 257 260 258
f 257 259 260
usemtl APPID_3777007744_2817002670048 
o vid_10000008 
f 261 263 264
f 261 264 262
f 261 263 264
usemtl APPID_3777007744_2817002670048 
o vid_10000010 
f 265 268 269
f 265 269 266
f 266 269 270
usemtl APPID_3777007744_2817002670048 
o vid_10000012 
f 271 273 274
f 271 274 272
f 271 273 274
usemtl APPID_3777007744_2817002670048 
o vid_10000014 
f 275 277 278
f 275 278 276
f 275 277 278
usemtl APPID_3777007744_2817002670048 
o vid_10000016 
f 279 281 282
f 279 282 280
f 279 281 282
usemtl APPID_3777007744_2817002670048 
o vid_10000018 
f 283 285 286
f 283 286 284
f 283 285 286
