# File generated by PlantGL - Wed Jul 15 17:35:23 2026
v    21.437025 9.482179 0.000000
v    23.479967 9.338328 0.000000
v    22.583075 11.179493 0.000000
v    23.563020 10.517821 3.801864
v    21.520078 10.661672 3.801864
v    22.416970 8.820507 3.801864
v    23.115091 11.213756 3.484445
v    24.201756 11.631129 4.506634
v    25.854709 12.262740 5.532560
v    26.420061 12.484435 5.694989
v    27.518211 12.882848 6.006710
v    27.965026 13.046760 6.003063
v    28.745903 13.299607 5.996804
v    29.217494 13.379955 5.993268
v    29.545133 13.431904 5.899348
v    23.834894 9.736124 3.484445
v    24.833387 10.334500 4.506634
v    26.349648 11.246717 5.532560
v    26.872710 11.555224 5.694989
v    27.863353 12.174330 6.006710
v    28.267848 12.425119 6.003063
v    28.948294 12.884131 5.996804
v    29.302262 13.205940 5.993268
v    29.545133 13.431904 5.899348
v    23.150673 10.521205 3.801864
v    21.723320 10.302877 3.801864
v    22.626075 9.175918 3.801864
v    21.849372 9.478795 7.260158
v    23.276725 9.697123 7.260158
v    22.373970 10.824082 7.260158
v    22.645359 8.704486 6.815562
v    21.684793 8.063009 7.829851
v    21.284753 7.804869 8.247300
v    19.220331 6.433112 9.684273
v    17.201443 5.135080 10.324821
v    16.214991 4.550658 10.340328
v    15.148984 4.111427 10.331806
v    21.267463 10.424591 6.815562
v    20.431800 9.627192 7.829851
v    20.092570 9.293137 8.247300
v    18.303306 7.577887 9.684273
v    16.595927 5.890980 10.324821
v    15.810292 5.055866 10.340328
v    15.148984 4.111427 10.331806
v    22.023747 9.814950 7.260158
v    22.898419 9.680058 7.260158
v    22.577902 10.504992 7.260158
v    22.976298 10.185050 8.190000
v    22.101626 10.319942 8.190000
v    22.422143 9.495008 8.190000
v    22.732529 10.982692 7.003089
v    23.025393 10.910797 8.681088
v    23.258744 10.812401 9.916933
v    23.367468 10.809340 10.198980
v    23.996743 10.581530 11.617322
v    23.335003 9.432065 7.003089
v    23.502503 9.682828 8.681088
v    23.608209 9.912960 9.916933
v    23.686346 9.988623 10.198980
v    23.996743 10.581530 11.617322
mtllib usm_6_2.5D_2018-07-19_0.mtl
usemtl APPID_2590519920_3004746552176 
o vid_3 
f 3 2 1
f 4 5 6
f 1 6 5
f 1 5 3
f 3 5 4
f 4 2 3
f 2 4 6
f 6 1 2
usemtl APPID_2590517568_3004746548336 
o vid_4 
f 7 16 17
f 8 17 18
f 9 18 19
f 10 19 20
f 11 20 21
f 12 21 22
f 13 22 23
f 7 17 8
f 8 18 9
f 9 19 10
f 10 20 11
f 11 21 12
f 12 22 13
f 13 23 14
f 14 23 24
usemtl APPID_2590519920_3004746552176 
o vid_5 
f 27 26 25
f 28 29 30
f 25 30 29
f 25 29 27
f 27 29 28
f 28 26 27
f 26 28 30
f 30 25 26
usemtl APPID_2590517568_3004746548336 
o vid_6 
f 31 38 39
f 32 39 40
f 33 40 41
f 34 41 42
f 35 42 43
f 31 39 32
f 32 40 33
f 33 41 34
f 34 42 35
f 35 43 36
f 36 43 44
usemtl APPID_2590519920_3004746552176 
o vid_7 
f 47 46 45
f 48 49 50
f 45 50 49
f 45 49 47
f 47 49 48
f 48 46 47
f 46 48 50
f 50 45 46
usemtl APPID_2590517568_3004746548336 
o vid_8 
f 51 56 57
f 52 57 58
f 53 58 59
f 51 57 52
f 52 58 53
f 53 59 54
f 54 59 60
