# File generated by PlantGL - Wed Jul 15 17:36:02 2026
v    87.751764 18.905161 0.000000
v    92.071196 18.601013 0.000000
v    90.174880 22.493825 0.000000
v    92.246796 21.094839 1.426662
v    87.927364 21.398987 1.426662
v    89.823680 17.506175 1.426662
v    92.156651 21.379837 1.293723
v    92.326338 21.438551 1.586437
v    92.391549 21.459670 1.697888
v    92.415639 20.848177 1.293723
v    92.566471 20.945598 1.586437
v    92.623298 20.983928 1.697888
v    91.878564 21.505407 1.426662
v    87.755918 20.874804 1.426662
v    90.363358 17.619789 1.426662
v    88.119996 18.494593 3.929988
v    92.242642 19.125196 3.929988
v    89.635202 22.380211 3.929988
v    88.319940 18.146855 3.743638
v    88.234273 18.093717 3.907978
v    88.160985 18.050255 4.046518
v    87.824281 18.765614 3.743638
v    87.753726 18.693610 3.907978
v    87.695317 18.631575 4.046518
v    87.840696 19.161313 3.929988
v    91.804896 18.549955 3.929988
v    90.352248 22.288732 3.929988
v    92.157864 20.838687 7.888276
v    88.193664 21.450045 7.888276
v    89.646313 17.711268 7.888276
v    92.038597 21.378319 7.632349
v    92.081829 21.389377 7.705095
v    92.434216 20.360088 7.632349
v    92.473573 20.381119 7.705095
v    92.163242 20.511898 7.888276
v    88.473982 21.618097 7.888276
v    89.360615 17.870005 7.888276
v    87.835318 19.488102 13.401149
v    91.524578 18.381903 13.401149
v    90.637945 22.129995 13.401149
v    87.872441 18.838654 13.056788
v    87.709327 18.823576 13.323133
v    87.577528 20.085350 13.056788
v    87.424946 20.025748 13.323133
v    88.594975 18.396392 13.401149
v    92.090197 19.585640 13.401149
v    89.312667 22.017967 13.401149
v    91.403585 21.603608 18.659366
v    87.908363 20.414360 18.659366
v    90.685893 17.982033 18.659366
v    90.870636 22.268994 18.205402
v    91.371126 22.700444 19.279807
v    91.620001 22.895996 19.790605
v    92.133471 21.163110 18.205402
v    92.495115 21.716150 19.279807
v    92.656121 21.988649 19.790605
v    91.718262 21.097521 18.659366
v    88.189308 20.939922 18.659366
v    90.090270 17.962557 18.659366
v    88.280298 18.902479 40.831041
v    91.809252 19.060078 40.831041
v    89.908290 22.037443 40.831041
v    88.743622 17.818075 40.244715
v    88.446720 17.682585 40.775353
v    87.491555 19.779113 40.244715
v    87.243706 19.566795 40.775353
v    88.419300 18.861621 40.831041
v    91.775135 19.200887 40.831041
v    89.803405 21.937492 40.831041
v    91.579260 21.138379 61.162729
v    88.223425 20.799113 61.162729
v    90.195155 18.062508 61.162729
v    90.935252 22.450088 60.420790
v    91.616260 22.808311 61.671919
v    92.619656 20.112269 60.420790
v    93.175030 20.644862 61.671919
v    91.553913 21.012481 61.162729
v    88.345129 20.840111 61.162729
v    90.098798 18.147408 61.162729
v    88.444647 18.987519 89.553403
v    91.653431 19.159889 89.553403
v    89.899762 21.852592 89.553403
v    89.192520 17.284243 88.633572
v    89.147674 17.263286 88.714058
v    87.189223 20.360244 88.633572
v    87.151923 20.327702 88.714058
v    88.457403 19.144816 89.553403
v    91.510830 19.092287 89.553403
v    90.029607 21.762897 89.553403
v    91.541157 20.855184 126.476465
v    88.487730 20.907713 126.476465
v    89.968953 18.237103 126.476465
v    90.695583 23.138152 125.359196
v    91.486705 23.459855 126.751430
v    92.747018 23.943310 128.946226
v    93.030108 18.929058 125.359196
v    93.721906 19.429840 126.751430
v    94.799354 20.242997 128.946226
v    91.614175 20.429572 126.476465
v    88.819812 21.183754 126.476465
v    89.563853 18.386674 126.476465
v    88.384385 19.570428 161.605463
v    91.178748 18.816246 161.605463
v    90.434707 21.613326 161.605463
v    88.722606 16.596042 160.275871
v    86.911251 16.341139 163.257825
v    84.612953 16.064300 167.021747
v    82.409863 15.717157 169.254183
v    82.247810 15.697234 169.416943
v    87.200065 22.319747 160.275871
v    85.501461 21.640978 163.257825
v    83.369372 20.739307 167.021747
v    81.284978 19.945953 169.254183
v    81.134443 19.882726 169.416943
v    88.540986 19.394647 161.605463
v    91.252678 19.039757 161.605463
v    90.204176 21.565597 161.605463
v    91.457574 20.605353 187.490999
v    88.745882 20.960243 187.490999
v    89.794384 18.434403 187.490999
v    90.644103 23.896277 185.940793
v    91.883178 24.243588 188.038575
v    95.317053 25.132683 193.805986
v    96.712511 25.548748 195.263563
v    99.426952 26.258671 198.060484
v    93.213838 17.705792 185.940793
v    94.334615 18.338081 188.038575
v    97.388660 20.142188 193.805986
v    98.668538 20.836683 195.263563
v    101.087757 22.257796 198.060484
v    91.147416 20.944713 187.490999
v    88.607066 20.521958 187.490999
v    90.243358 18.533328 187.490999
v    88.851144 19.055287 206.875468
v    91.391494 19.478042 206.875468
v    89.755202 21.466672 206.875468
v    90.871290 15.682544 205.104662
v    89.212357 14.623138 208.313454
v    86.181062 12.771326 214.089101
v    84.231982 11.480925 216.428900
v    79.704607 8.699901 221.725503
v    85.930571 21.687137 205.104662
v    84.571520 20.263276 208.313454
v    82.170608 17.645342 214.089101
v    80.529010 15.981249 216.428900
v    76.928167 12.074186 221.725503
v    89.035603 18.991726 206.875468
v    91.354310 19.669568 206.875468
v    89.607928 21.338706 206.875468
v    90.962957 21.008274 223.653479
v    88.644250 20.330432 223.653479
v    90.390632 18.661294 223.653479
v    88.032105 24.712093 221.671664
v    91.838762 27.840008 229.703489
v    92.815707 28.610664 231.726687
v    97.617173 32.690390 238.033455
v    99.485189 34.171403 240.409842
v    104.659498 38.494277 244.242687
v    94.795487 18.247861 221.671664
v    97.748112 22.192034 229.703489
v    98.473815 23.202820 231.726687
v    102.332303 28.183814 238.033455
v    103.727353 30.116874 240.409842
v    107.811886 35.481322 244.242687
v    90.911592 20.929805 223.653479
v    88.737890 20.325183 223.653479
v    90.348359 18.745013 223.653479
v    89.086968 19.070195 233.284601
v    91.260670 19.674817 233.284601
v    89.650201 21.254987 233.284601
v    92.075251 15.135795 231.111570
v    89.424471 13.015283 236.645402
v    86.745648 10.958530 242.136751
v    83.515084 8.285736 246.333715
v    79.286881 5.022894 251.657698
v    74.759132 1.339936 254.975537
v    85.096528 21.983222 231.111570
v    83.026738 19.292649 236.645402
v    81.021229 16.575250 242.136751
v    78.410268 13.294511 246.333715
v    75.228312 9.005106 251.657698
v    71.632003 4.408231 254.975537
v    89.188226 19.101354 233.284601
v    91.183058 19.746930 233.284601
v    89.626557 21.151717 233.284601
v    90.810334 20.898646 240.114814
v    88.815502 20.253070 240.114814
v    90.372003 18.848283 240.114814
v    87.176259 25.213845 237.780394
v    92.048985 29.456676 248.313144
v    98.844796 35.534281 257.943534
v    100.310755 36.766356 259.852467
v    109.149764 44.590393 266.562841
v    95.474329 17.724597 237.780394
v    99.196970 23.005413 248.313144
v    104.548246 30.386752 257.943534
v    105.624054 31.970950 259.852467
v    112.503810 41.563270 266.562841
v    91.097092 20.213714 240.114814
v    89.265292 20.843876 240.114814
v    89.635456 18.942409 240.114814
v    88.901468 19.786286 243.316826
v    90.733268 19.156124 243.316826
v    90.363104 21.057591 243.316826
v    89.171406 14.166227 240.859841
v    85.003909 13.865274 247.671359
v    81.531063 13.683969 253.325709
v    76.350514 13.223933 258.531692
v    70.782207 12.919546 264.090782
v    62.589848 12.260742 268.762879
v    61.618430 12.314462 269.302467
v    87.043443 25.097186 240.859841
v    83.067392 23.812811 247.671359
v    79.780147 22.678109 253.325709
v    74.805347 21.161174 258.531692
v    69.529496 19.354496 264.090782
v    61.688269 16.891994 268.762879
v    60.807943 16.477789 269.302467
v    89.207595 19.346885 243.316826
v    90.960737 19.640938 243.316826
v    89.829508 21.012177 243.316826
v    90.790965 20.653115 245.514376
v    89.037823 20.359062 245.514376
v    90.169052 18.987823 245.514376
v    87.846529 25.533098 242.980783
v    90.747222 27.390723 248.596034
v    94.543730 29.716668 255.835329
v    98.038057 32.036534 260.033694
v    103.933345 35.668207 266.936051
v    109.826003 39.510027 270.934864
v    111.425084 40.267280 271.916158
v    95.022337 16.834813 242.980783
v    97.397435 19.329547 248.596034
v    100.402584 22.614752 255.835329
v    103.344330 25.604440 260.033694
v    108.030320 30.701985 266.936051
v    112.922128 35.757004 270.934864
v    113.969514 37.183003 271.916158
v    90.746315 20.560971 245.514376
v    89.139947 20.366465 245.514376
v    90.111578 19.072563 245.514376
v    89.252245 19.439029 246.873426
v    90.858613 19.633535 246.873426
v    89.886982 20.927437 246.873426
v    92.145729 14.182356 244.313771
v    87.364299 11.419765 253.315921
v    85.218351 10.236294 257.300551
v    79.216039 6.635094 264.307086
v    75.524300 4.587317 268.515464
v    66.465898 -0.745402 274.490901
v    64.338816 -1.636164 275.769882
v    85.010959 23.683595 244.313771
v    81.024617 19.862199 253.315921
v    79.289679 18.131394 257.300551
v    74.157543 13.371399 264.307086
v    71.161529 10.397138 268.515464
v    63.514347 3.185123 274.490901
v    62.065767 1.390813 275.769882
v    89.309531 19.516898 246.873426
v    90.762533 19.644211 246.873426
v    89.925776 20.838891 246.873426
v    90.689029 20.483102 247.506683
v    89.236027 20.355789 247.506683
v    90.072784 19.161109 247.506683
v    88.103729 25.628327 244.973091
v    91.578489 27.485372 251.395842
v    95.103697 29.279993 257.827637
v    99.355397 31.643151 262.696663
v    104.919418 34.492887 268.928358
v    111.821315 38.254205 273.396635
v    114.870186 39.413951 275.205792
v    94.640832 16.294979 244.973091
v    97.573632 18.925808 251.395842
v    100.465009 21.625380 257.827637
v    104.138983 24.813387 262.696663
v    108.718752 29.068389 268.928358
v    114.612459 34.269148 273.396635
v    116.744393 36.738052 275.205792
v    90.609829 20.435580 247.506683
v    89.316782 20.310961 247.506683
v    90.071229 19.253459 247.506683
v    89.388731 19.564420 248.024000
v    90.681778 19.689039 248.024000
v    89.927331 20.746541 248.024000
v    91.907360 14.641197 245.567014
v    88.953422 13.029372 251.052738
v    85.144723 11.048606 258.032883
v    81.577738 9.025288 262.137740
v    75.657776 5.928075 268.797956
v    69.660383 2.591825 272.699265
v    65.746976 1.064198 275.029209
v    85.553027 23.548010 245.567014
v    83.067701 21.279334 251.052738
v    79.955372 18.322473 258.032883
v    76.881462 15.608018 262.137740
v    72.026434 11.018096 268.797956
v    66.920182 6.432741 272.699265
v    64.202257 3.229416 275.029209
v    92.391549 21.459670 1.697888
v    92.549715 21.510892 1.968208
v    92.754982 21.585728 2.186903
v    93.101868 21.699007 2.550669
v    93.447830 21.821883 2.759373
v    93.897081 21.915662 3.013906
v    93.964784 21.931727 3.027906
v    92.623298 20.983928 1.697888
v    92.761129 21.076896 1.968208
v    92.946587 21.192395 2.186903
v    93.249614 21.395710 2.550669
v    93.559628 21.592380 2.759373
v    93.910400 21.888320 3.013906
v    93.964784 21.931727 3.027906
v    88.160985 18.050255 4.046518
v    87.821052 17.848667 4.689111
v    87.735131 17.793390 4.791376
v    87.119778 17.426430 5.505587
v    86.897359 17.285942 5.655134
v    86.232869 16.982904 6.060186
v    87.695317 18.631575 4.046518
v    87.424395 18.343836 4.689111
v    87.351698 18.272051 4.791376
v    86.859278 17.751626 5.505587
v    86.673632 17.565233 5.655134
v    86.232869 16.982904 6.060186
v    92.081829 21.389377 7.705095
v    92.814963 21.563629 8.930831
v    92.969752 21.605949 9.091457
v    93.907452 21.828402 10.052153
v    94.280758 21.927134 10.271660
v    95.276181 22.050265 10.827946
v    92.473573 20.381119 7.705095
v    93.132037 20.747553 8.930831
v    93.274794 20.820840 9.091457
v    94.116706 21.289831 10.052153
v    94.458746 21.469036 10.271660
v    95.276181 22.050265 10.827946
v    87.709327 18.823576 13.323133
v    87.345620 18.789956 13.917022
v    86.796645 18.764293 14.803950
v    85.819983 18.671597 15.781917
v    85.268909 18.709904 16.312736
v    84.589361 18.720252 16.689669
v    87.424946 20.025748 13.323133
v    87.084724 19.892850 13.917022
v    86.582435 19.669830 14.803950
v    85.667755 19.315118 15.781917
v    85.192250 19.033968 16.312736
v    84.589361 18.720252 16.689669
v    91.620001 22.895996 19.790605
v    91.969851 23.170889 20.508652
v    92.909797 23.985199 21.748365
v    93.574611 24.392685 22.497655
v    94.260566 24.866060 22.959893
v    92.656121 21.988649 19.790605
v    92.882451 22.371711 20.508652
v    93.565626 23.410879 21.748365
v    93.881834 24.123645 22.497655
v    94.260566 24.866060 22.959893
v    88.446720 17.682585 40.775353
v    87.450553 17.227988 42.555751
v    87.068999 17.074414 43.219526
v    84.910281 16.082892 45.587597
v    82.768503 15.383355 46.922304
v    87.243706 19.566795 40.775353
v    86.412120 18.854424 42.555751
v    86.112244 18.572923 43.219526
v    84.304372 17.031891 45.587597
v    82.768503 15.383355 46.922304
v    91.616260 22.808311 61.671919
v    92.328254 23.182833 62.979975
v    93.004272 23.500082 64.185126
v    95.392293 24.763706 66.878371
v    95.942521 24.947675 67.435870
v    97.991978 25.758758 68.658309
v    93.175030 20.644862 61.671919
v    93.755673 21.201689 62.979975
v    94.270601 21.742518 64.185126
v    96.225169 23.607740 66.878371
v    96.573852 24.071438 67.435870
v    97.991978 25.758758 68.658309
v    89.147674 17.263286 88.714058
v    87.105063 16.308752 92.379980
v    86.577893 16.091013 93.300465
v    83.114372 14.462118 97.115870
v    79.745055 13.321765 99.179652
v    87.151923 20.327702 88.714058
v    85.452975 18.845484 92.379980
v    85.040668 18.451373 93.300465
v    82.150405 15.942260 97.115870
v    79.745055 13.321765 99.179652
v    92.747018 23.943310 128.946226
v    93.942327 24.401830 131.027822
v    94.816502 24.774208 131.978927
v    98.507105 26.200306 135.923042
v    100.347519 26.966244 137.056239
v    104.580323 28.087208 139.484749
v    94.799354 20.242997 128.946226
v    95.821229 21.014213 131.027822
v    96.599992 21.558618 131.978927
v    99.763917 23.934305 135.923042
v    101.388157 25.089999 137.056239
v    104.580323 28.087208 139.484749
v    82.247810 15.697234 169.416943
v    78.832409 15.277341 172.847241
v    75.145628 14.727823 174.966197
v    70.612925 14.671283 177.480305
v    69.853702 14.641152 177.633184
v    81.134443 19.882726 169.416943
v    77.961818 18.550163 172.847241
v    74.489275 17.195257 174.966197
v    70.527552 14.992227 177.480305
v    69.853702 14.641152 177.633184
v    99.426952 26.258671 198.060484
v    101.889718 26.902772 200.598083
v    104.709935 27.718137 202.266933
v    110.720794 28.601716 205.636481
v    101.087757 22.257796 198.060484
v    103.282673 23.547147 200.598083
v    105.851245 24.968724 202.266933
v    110.720794 28.601716 205.636481
v    79.704607 8.699901 221.725503
v    76.091957 6.354892 224.226435
v    69.909227 3.436695 228.018245
v    69.805986 3.384487 228.041522
v    76.928167 12.074186 221.725503
v    73.931333 8.980758 224.226435
v    69.877098 3.475742 228.018245
v    69.805986 3.384487 228.041522
v    104.659498 38.494277 244.242687
v    106.564347 40.085683 245.653695
v    109.102388 41.678666 247.315625
v    113.552989 44.643726 248.391633
v    107.811886 35.481322 244.242687
v    109.315550 37.456169 245.653695
v    110.792164 40.063630 247.315625
v    113.552989 44.643726 248.391633
v    74.759132 1.339936 254.975537
v    74.037020 0.752556 255.504685
v    68.301841 -2.743083 259.229785
v    66.608138 -3.839657 259.635753
v    71.632003 4.408231 254.975537
v    71.058443 3.675096 255.504685
v    67.672349 -2.125435 259.229785
v    66.608138 -3.839657 259.635753
v    109.149764 44.590393 266.562841
v    111.268380 46.031702 267.986928
v    117.436809 50.400721 269.507820
v    112.503810 41.563270 266.562841
v    113.721057 43.818090 267.986928
v    117.436809 50.400721 269.507820
v    61.618430 12.314462 269.302467
v    55.587677 12.647966 272.652333
v    52.655787 12.730231 273.242473
v    60.807943 16.477789 269.302467
v    55.342708 13.906327 272.652333
v    52.655787 12.730231 273.242473
v    111.425084 40.267280 271.916158
v    117.696276 43.237033 275.764545
v    118.917302 43.856446 276.040024
v    113.969514 37.183003 271.916158
v    118.077100 42.775410 275.764545
v    118.917302 43.856446 276.040024
v    64.338816 -1.636164 275.769882
v    61.569921 -2.795701 277.434777
v    56.742936 -4.973203 278.500233
v    62.065767 1.390813 275.769882
v    60.180101 -0.944903 277.434777
v    56.742936 -4.973203 278.500233
v    114.870186 39.413951 275.205792
v    119.169343 41.049287 277.756852
v    121.312749 41.932041 278.223257
v    116.744393 36.738052 275.205792
v    119.750592 40.219408 277.756852
v    121.312749 41.932041 278.223257
v    65.746976 1.064198 275.029209
v    61.832975 -0.463660 277.359507
v    60.566115 -0.998323 277.636175
v    64.202257 3.229416 275.029209
v    61.483920 0.025606 277.359507
v    60.566115 -0.998323 277.636175
mtllib usm_1_2.5D_2018-09-09_1.mtl
usemtl APPID_115511584_1816860424800 
o vid_3 
f 3 2 1
f 4 5 6
f 1 6 5
f 1 5 3
f 3 5 4
f 4 2 3
f 2 4 6
f 6 1 2
usemtl APPID_115508224_1816860420064 
o vid_4 
f 7 10 11
f 7 11 8
f 8 11 12
f 8 12 9
usemtl APPID_115511584_1816860424800 
o vid_5 
f 15 14 13
f 16 17 18
f 13 18 17
f 13 17 15
f 15 17 16
f 16 14 15
f 14 16 18
f 18 13 14
usemtl APPID_115508224_1816860420064 
o vid_6 
f 19 22 23
f 19 23 20
f 20 23 24
f 20 24 21
usemtl APPID_115511584_1816860424800 
o vid_7 
f 27 26 25
f 28 29 30
f 25 30 29
f 25 29 27
f 27 29 28
f 28 26 27
f 26 28 30
f 30 25 26
usemtl APPID_115508224_1816860420064 
o vid_8 
f 31 33 34
f 31 34 32
f 31 33 34
f 31 34 32
usemtl APPID_115511584_1816860424800 
o vid_9 
f 37 36 35
f 38 39 40
f 35 40 39
f 35 39 37
f 37 39 38
f 38 36 37
f 36 38 40
f 40 35 36
usemtl APPID_115508224_1816860420064 
o vid_10 
f 41 43 44
f 41 44 42
f 41 43 44
f 41 44 42
usemtl APPID_115511584_1816860424800 
o vid_11 
f 47 46 45
f 48 49 50
f 45 50 49
f 45 49 47
f 47 49 48
f 48 46 47
f 46 48 50
f 50 45 46
usemtl APPID_115508224_1816860420064 
o vid_12 
f 51 54 55
f 51 55 52
f 52 55 56
f 52 56 53
usemtl APPID_115511584_1816860424800 
o vid_13 
f 59 58 57
f 60 61 62
f 57 62 61
f 57 61 59
f 59 61 60
f 60 58 59
f 58 60 62
f 62 57 58
usemtl APPID_115508224_1816860420064 
o vid_14 
f 63 65 66
f 63 66 64
f 63 65 66
f 63 66 64
usemtl APPID_115511584_1816860424800 
o vid_15 
f 69 68 67
f 70 71 72
f 67 72 71
f 67 71 69
f 69 71 70
f 70 68 69
f 68 70 72
f 72 67 68
usemtl APPID_115508224_1816860420064 
o vid_16 
f 73 75 76
f 73 76 74
f 73 75 76
f 73 76 74
usemtl APPID_115511584_1816860424800 
o vid_17 
f 79 78 77
f 80 81 82
f 77 82 81
f 77 81 79
f 79 81 80
f 80 78 79
f 78 80 82
f 82 77 78
usemtl APPID_115508224_1816860420064 
o vid_18 
f 83 85 86
f 83 86 84
f 83 85 86
f 83 86 84
usemtl APPID_115511584_1816860424800 
o vid_19 
f 89 88 87
f 90 91 92
f 87 92 91
f 87 91 89
f 89 91 90
f 90 88 89
f 88 90 92
f 92 87 88
usemtl APPID_115508224_1816860420064 
o vid_20 
f 93 96 97
f 93 97 94
f 94 97 98
f 94 98 95
usemtl APPID_115511584_1816860424800 
o vid_21 
f 101 100 99
f 102 103 104
f 99 104 103
f 99 103 101
f 101 103 102
f 102 100 101
f 100 102 104
f 104 99 100
usemtl APPID_115508224_1816860420064 
o vid_22 
f 105 110 111
f 106 111 112
f 107 112 113
f 105 111 106
f 106 112 107
f 107 113 108
f 108 113 114
f 108 114 109
usemtl APPID_115511584_1816860424800 
o vid_23 
f 117 116 115
f 118 119 120
f 115 120 119
f 115 119 117
f 117 119 118
f 118 116 117
f 116 118 120
f 120 115 116
usemtl APPID_115508224_1816860420064 
o vid_24 
f 121 126 127
f 122 127 128
f 123 128 129
f 121 127 122
f 122 128 123
f 123 129 124
f 124 129 130
f 124 130 125
usemtl APPID_115511584_1816860424800 
o vid_25 
f 133 132 131
f 134 135 136
f 131 136 135
f 131 135 133
f 133 135 134
f 134 132 133
f 132 134 136
f 136 131 132
usemtl APPID_115508224_1816860420064 
o vid_26 
f 137 142 143
f 138 143 144
f 139 144 145
f 137 143 138
f 138 144 139
f 139 145 140
f 140 145 146
f 140 146 141
usemtl APPID_115511584_1816860424800 
o vid_27 
f 149 148 147
f 150 151 152
f 147 152 151
f 147 151 149
f 149 151 150
f 150 148 149
f 148 150 152
f 152 147 148
usemtl APPID_115508224_1816860420064 
o vid_28 
f 153 159 160
f 154 160 161
f 155 161 162
f 156 162 163
f 153 160 154
f 154 161 155
f 155 162 156
f 156 163 157
f 157 163 164
f 157 164 158
usemtl APPID_115511584_1816860424800 
o vid_29 
f 167 166 165
f 168 169 170
f 165 170 169
f 165 169 167
f 167 169 168
f 168 166 167
f 166 168 170
f 170 165 166
usemtl APPID_115508224_1816860420064 
o vid_30 
f 171 177 178
f 172 178 179
f 173 179 180
f 174 180 181
f 171 178 172
f 172 179 173
f 173 180 174
f 174 181 175
f 175 181 182
f 175 182 176
usemtl APPID_115511584_1816860424800 
o vid_31 
f 185 184 183
f 186 187 188
f 183 188 187
f 183 187 185
f 185 187 186
f 186 184 185
f 184 186 188
f 188 183 184
usemtl APPID_115508224_1816860420064 
o vid_32 
f 189 194 195
f 190 195 196
f 191 196 197
f 189 195 190
f 190 196 191
f 191 197 192
f 192 197 198
f 192 198 193
usemtl APPID_115511584_1816860424800 
o vid_33 
f 201 200 199
f 202 203 204
f 199 204 203
f 199 203 201
f 201 203 202
f 202 200 201
f 200 202 204
f 204 199 200
usemtl APPID_115508224_1816860420064 
o vid_34 
f 205 212 213
f 206 213 214
f 207 214 215
f 208 215 216
f 209 216 217
f 205 213 206
f 206 214 207
f 207 215 208
f 208 216 209
f 209 217 210
f 210 217 218
f 210 218 211
usemtl APPID_115511584_1816860424800 
o vid_35 
f 221 220 219
f 222 223 224
f 219 224 223
f 219 223 221
f 221 223 222
f 222 220 221
f 220 222 224
f 224 219 220
usemtl APPID_115508224_1816860420064 
o vid_36 
f 225 232 233
f 226 233 234
f 227 234 235
f 228 235 236
f 229 236 237
f 225 233 226
f 226 234 227
f 227 235 228
f 228 236 229
f 229 237 230
f 230 237 238
f 230 238 231
usemtl APPID_115511584_1816860424800 
o vid_37 
f 241 240 239
f 242 243 244
f 239 244 243
f 239 243 241
f 241 243 242
f 242 240 241
f 240 242 244
f 244 239 240
usemtl APPID_115508224_1816860420064 
o vid_38 
f 245 252 253
f 246 253 254
f 247 254 255
f 248 255 256
f 249 256 257
f 245 253 246
f 246 254 247
f 247 255 248
f 248 256 249
f 249 257 250
f 250 257 258
f 250 258 251
usemtl APPID_115511584_1816860424800 
o vid_39 
f 261 260 259
f 262 263 264
f 259 264 263
f 259 263 261
f 261 263 262
f 262 260 261
f 260 262 264
f 264 259 260
usemtl APPID_115508224_1816860420064 
o vid_40 
f 265 272 273
f 266 273 274
f 267 274 275
f 268 275 276
f 269 276 277
f 265 273 266
f 266 274 267
f 267 275 268
f 268 276 269
f 269 277 270
f 270 277 278
f 270 278 271
usemtl APPID_115511584_1816860424800 
o vid_41 
f 281 280 279
f 282 283 284
f 279 284 283
f 279 283 281
f 281 283 282
f 282 280 281
f 280 282 284
f 284 279 280
usemtl APPID_115508224_1816860420064 
o vid_42 
f 285 292 293
f 286 293 294
f 287 294 295
f 288 295 296
f 289 296 297
f 285 293 286
f 286 294 287
f 287 295 288
f 288 296 289
f 289 297 290
f 290 297 298
f 290 298 291
usemtl APPID_115511136_1816860419808 
o vid_10000004 
f 299 306 307
f 300 307 308
f 301 308 309
f 302 309 310
f 303 310 311
f 299 307 300
f 300 308 301
f 301 309 302
f 302 310 303
f 303 311 304
f 304 311 312
usemtl APPID_115511136_1816860419808 
o vid_10000006 
f 313 319 320
f 314 320 321
f 315 321 322
f 316 322 323
f 313 320 314
f 314 321 315
f 315 322 316
f 316 323 317
f 317 323 324
usemtl APPID_115511136_1816860419808 
o vid_10000008 
f 325 331 332
f 326 332 333
f 327 333 334
f 328 334 335
f 325 332 326
f 326 333 327
f 327 334 328
f 328 335 329
f 329 335 336
usemtl APPID_115511136_1816860419808 
o vid_10000010 
f 337 343 344
f 338 344 345
f 339 345 346
f 340 346 347
f 337 344 338
f 338 345 339
f 339 346 340
f 340 347 341
f 341 347 348
usemtl APPID_115511136_1816860419808 
o vid_10000012 
f 349 354 355
f 350 355 356
f 351 356 357
f 349 355 350
f 350 356 351
f 351 357 352
f 352 357 358
usemtl APPID_115511136_1816860419808 
o vid_10000014 
f 359 364 365
f 360 365 366
f 361 366 367
f 359 365 360
f 360 366 361
f 361 367 362
f 362 367 368
usemtl APPID_115511136_1816860419808 
o vid_10000016 
f 369 375 376
f 370 376 377
f 371 377 378
f 372 378 379
f 369 376 370
f 370 377 371
f 371 378 372
f 372 379 373
f 373 379 380
usemtl APPID_115511136_1816860419808 
o vid_10000018 
f 381 386 387
f 382 387 388
f 383 388 389
f 381 387 382
f 382 388 383
f 383 389 384
f 384 389 390
usemtl APPID_115511136_1816860419808 
o vid_10000020 
f 391 397 398
f 392 398 399
f 393 399 400
f 394 400 401
f 391 398 392
f 392 399 393
f 393 400 394
f 394 401 395
f 395 401 402
usemtl APPID_115511136_1816860419808 
o vid_10000022 
f 403 408 409
f 404 409 410
f 405 410 411
f 403 409 404
f 404 410 405
f 405 411 406
f 406 411 412
usemtl APPID_115511136_1816860419808 
o vid_10000024 
f 413 417 418
f 414 418 419
f 413 418 414
f 414 419 415
f 415 419 420
usemtl APPID_115511136_1816860419808 
o vid_10000026 
f 421 425 426
f 422 426 427
f 421 426 422
f 422 427 423
f 423 427 428
usemtl APPID_115511136_1816860419808 
o vid_10000028 
f 429 433 434
f 430 434 435
f 429 434 430
f 430 435 431
f 431 435 436
usemtl APPID_115511136_1816860419808 
o vid_10000030 
f 437 441 442
f 438 442 443
f 437 442 438
f 438 443 439
f 439 443 444
usemtl APPID_115511136_1816860419808 
o vid_10000032 
f 445 448 449
f 445 449 446
f 446 449 450
usemtl APPID_115511136_1816860419808 
o vid_10000034 
f 451 454 455
f 451 455 452
f 452 455 456
usemtl APPID_115511136_1816860419808 
o vid_10000036 
f 457 460 461
f 457 461 458
f 458 461 462
usemtl APPID_115511136_1816860419808 
o vid_10000038 
f 463 466 467
f 463 467 464
f 464 467 468
usemtl APPID_115511136_1816860419808 
o vid_10000040 
f 469 472 473
f 469 473 470
f 470 473 474
usemtl APPID_115511136_1816860419808 
o vid_10000042 
f 475 478 479
f 475 479 476
f 476 479 480
