# File generated by PlantGL - Wed Jul 15 17:36:02 2026
v    21.507148 59.516437 0.000000
v    23.414933 59.382103 0.000000
v    22.577378 61.101460 0.000000
v    23.492492 60.483563 3.802806
v    21.584707 60.617897 3.802806
v    22.422262 58.898540 3.802806
v    23.093129 61.121640 3.544786
v    23.976446 61.460910 4.375692
v    25.029635 61.879243 5.033419
v    25.313632 61.987569 5.209636
v    26.655132 62.513621 5.595059
v    27.991178 63.010595 5.584132
v    28.784953 63.270629 5.339199
v    29.420834 63.371453 5.156921
v    23.748745 59.775773 3.544786
v    24.560389 60.262174 4.375692
v    25.539003 60.833599 5.033419
v    25.799363 60.990446 5.209636
v    27.040518 61.722491 5.595059
v    28.255414 62.468164 5.584132
v    28.949471 62.932901 5.339199
v    29.420834 63.371453 5.156921
v    23.091961 60.474337 3.802806
v    21.792962 60.275641 3.802806
v    22.614537 59.250022 3.802806
v    21.907679 59.525663 6.430000
v    23.206678 59.724359 6.430000
v    22.385103 60.749978 6.430000
v    22.692824 58.862217 5.642169
v    21.617060 58.158408 7.036989
v    19.926598 57.048540 8.514458
v    19.302230 56.627770 8.803892
v    18.164976 55.904523 9.320673
v    17.646742 55.570009 9.381178
v    16.785997 55.060397 9.478836
v    16.281840 54.853432 9.530395
v    15.861739 54.682544 9.450486
v    21.431593 60.436683 5.642169
v    20.509956 59.540468 7.036989
v    19.057887 58.133000 8.514458
v    18.510988 57.615523 8.803892
v    17.556961 56.663542 9.320673
v    17.117402 56.230814 9.381178
v    16.432211 55.502048 9.478836
v    16.120199 55.055218 9.530395
v    15.861739 54.682544 9.450486
mtllib usm_18_2.5D_2018-07-17_1.mtl
usemtl APPID_3458436528_1657016143216 
o vid_3 
f 3 2 1
f 4 5 6
f 1 6 5
f 1 5 3
f 3 5 4
f 4 2 3
f 2 4 6
f 6 1 2
usemtl APPID_3458434848_1657016141808 
o vid_4 
f 7 15 16
f 8 16 17
f 9 17 18
f 10 18 19
f 11 19 20
f 12 20 21
f 7 16 8
f 8 17 9
f 9 18 10
f 10 19 11
f 11 20 12
f 12 21 13
f 13 21 22
usemtl APPID_3458436528_1657016143216 
o vid_5 
f 25 24 23
f 26 27 28
f 23 28 27
f 23 27 25
f 25 27 26
f 26 24 25
f 24 26 28
f 28 23 24
usemtl APPID_3458434848_1657016141808 
o vid_6 
f 29 38 39
f 30 39 40
f 31 40 41
f 32 41 42
f 33 42 43
f 34 43 44
f 35 44 45
f 29 39 30
f 30 40 31
f 31 41 32
f 32 42 33
f 33 43 34
f 34 44 35
f 35 45 36
f 36 45 46
