# File generated by PlantGL - Wed Jul 15 17:36:20 2026
v    20.252304 298.905161 0.000000
v    24.571736 298.601013 0.000000
v    22.675420 302.493825 0.000000
v    24.747336 301.094839 2.682187
v    20.427904 301.398987 2.682187
v    22.324220 297.506175 2.682187
v    24.669594 301.321268 2.593284
v    24.849325 301.381938 2.902231
v    24.931711 301.410445 3.044348
v    25.138431 301.489300 3.266130
v    25.295873 301.546700 3.433871
v    25.514133 301.631101 3.567261
v    25.806547 301.734959 3.743662
v    25.831871 301.744316 3.749201
v    24.877707 300.894047 2.593284
v    25.036271 300.998171 2.902231
v    25.109502 301.045470 3.044348
v    25.299021 301.159636 3.266130
v    25.441269 301.248225 3.433871
v    25.642269 301.368059 3.567261
v    25.904300 301.534289 3.743662
v    25.927278 301.548462 3.749201
v    24.379104 301.505407 2.682187
v    20.256458 300.874804 2.682187
v    22.863898 297.619789 2.682187
v    20.620536 298.494593 4.602934
v    24.743182 299.125196 4.602934
v    22.135742 302.380211 4.602934
v    20.802638 298.199614 4.474472
v    20.563676 298.053883 4.930323
v    20.461546 297.990533 5.126243
v    20.188767 297.809270 5.454543
v    19.991707 297.682492 5.689089
v    19.702949 297.488704 5.887317
v    19.332009 297.254404 6.136725
v    19.050590 297.071628 6.205573
v    20.372414 298.736687 4.474472
v    20.178040 298.535293 4.930323
v    20.093927 298.449452 5.126243
v    19.857497 298.222812 5.454543
v    19.690766 298.058174 5.689089
v    19.438626 297.818674 5.887317
v    19.129014 297.507815 6.136725
v    18.889221 297.273073 6.205573
v    20.341236 299.161313 4.602934
v    24.305436 298.549955 4.602934
v    22.852788 302.288732 4.602934
v    24.658404 300.838687 7.454389
v    20.694204 301.450045 7.454389
v    22.146852 297.711268 7.454389
v    24.559341 301.258893 7.272630
v    24.985262 301.367832 7.989316
v    25.108305 301.396704 8.194812
v    25.649742 301.544737 8.756666
v    25.878638 301.599038 8.991175
v    26.676820 301.810142 9.460514
v    26.873332 301.834450 9.570333
v    24.869029 300.461828 7.272630
v    25.256773 300.669026 7.989316
v    25.367032 300.730801 8.194812
v    25.866384 300.987152 8.756666
v    26.071898 301.101634 8.991175
v    26.803226 301.484800 9.460514
v    26.964601 301.599544 9.570333
v    24.663782 300.511898 7.454389
v    20.974522 301.618097 7.454389
v    21.861155 297.870005 7.454389
v    20.335858 299.488102 12.006019
v    24.025118 298.381903 12.006019
v    23.138485 302.129995 12.006019
v    20.381958 298.933064 11.754202
v    20.121587 298.903752 12.181339
v    19.600734 298.855605 13.031828
v    19.295073 298.816083 13.340333
v    18.501327 298.740748 14.135140
v    17.940195 298.672938 14.456444
v    17.386038 298.681377 14.763824
v    20.128393 300.004969 11.754202
v    19.882484 299.914517 12.181339
v    19.395263 299.724199 13.031828
v    19.104290 299.622583 13.340333
v    18.360918 299.334304 14.135140
v    17.828877 299.143518 14.456444
v    17.337233 298.887689 14.763824
v    21.095515 298.396392 12.006019
v    24.590737 299.585640 12.006019
v    21.813207 302.017967 12.006019
v    23.904125 301.603608 16.421928
v    20.408903 300.414360 16.421928
v    23.186433 297.982033 16.421928
v    23.415104 302.181357 16.080314
v    23.688226 302.426459 16.678555
v    24.216938 302.882238 17.813543
v    24.534903 303.177186 18.247665
v    25.340587 303.875180 19.310298
v    25.921256 304.404890 19.757101
v    26.754429 304.979860 20.318544
v    24.541344 301.195090 16.080314
v    24.748268 301.498164 16.678555
v    25.130305 302.082389 17.813543
v    25.380722 302.436490 18.247665
v    25.966311 303.327223 19.310298
v    26.414777 303.972706 19.757101
v    26.874792 304.874457 20.318544
v    24.218802 301.097521 16.421928
v    20.689848 300.939922 16.421928
v    22.590810 297.962557 16.421928
v    20.780838 298.902479 35.676141
v    24.309792 299.060078 35.676141
v    22.408830 302.037443 35.676141
v    21.201780 297.965544 35.222352
v    20.597657 297.675171 36.315045
v    19.920824 297.366301 37.524715
v    19.184693 296.997425 38.348896
v    18.123547 296.510029 39.512952
v    16.912639 295.915800 40.279727
v    15.518963 295.452844 41.094213
v    15.434639 295.422263 41.112261
v    20.108037 299.678610 35.222352
v    19.590404 299.252773 36.315045
v    19.025393 298.768761 37.524715
v    18.380995 298.256209 38.348896
v    17.492312 297.498695 39.512952
v    16.443694 296.650281 40.279727
v    15.437249 295.580828 41.094213
v    15.374023 295.517203 41.112261
v    20.919840 298.861621 35.676141
v    24.275675 299.200887 35.676141
v    22.303945 301.937492 35.676141
v    24.079800 301.138379 53.193347
v    20.723965 300.799113 53.193347
v    22.695695 298.062508 53.193347
v    23.510224 302.261348 52.603096
v    25.137670 303.122442 55.597820
v    27.426839 304.341199 58.183956
v    28.013589 304.671200 58.566637
v    30.008092 305.460534 59.756298
v    24.964723 300.242619 52.603096
v    26.296702 301.513798 55.597820
v    28.177419 303.299453 58.183956
v    28.676185 303.751569 58.566637
v    30.056285 305.393645 59.756298
v    24.054453 301.012481 53.193347
v    20.845669 300.840111 53.193347
v    22.599338 298.147408 53.193347
v    20.945187 298.987519 80.187012
v    24.153971 299.159889 80.187012
v    22.400302 301.852592 80.187012
v    21.619151 297.499120 79.435241
v    21.135527 297.261262 80.313837
v    19.499831 296.496884 83.249458
v    18.973816 296.227322 83.841094
v    16.520849 295.073691 86.543277
v    15.375287 294.498626 87.271934
v    12.696557 293.581835 88.842205
v    19.856406 300.205761 79.435241
v    19.443307 299.859614 80.313837
v    18.082812 298.672673 83.249458
v    17.623577 298.300574 83.841094
v    15.576607 296.523546 86.543277
v    14.587444 295.708335 87.271934
v    12.665802 293.629058 88.842205
v    20.957943 299.144816 80.187012
v    24.011370 299.092287 80.187012
v    22.530147 301.762897 80.187012
v    24.041697 300.855184 115.982825
v    20.988270 300.907713 115.982825
v    22.469493 298.237103 115.982825
v    23.255003 302.910004 115.045265
v    25.147530 303.679583 118.375775
v    25.966571 303.993767 119.802111
v    28.350690 305.009346 122.396039
v    29.767293 305.556741 123.909951
v    33.353268 307.049139 126.117940
v    35.199083 307.537963 127.176950
v    37.019483 308.073427 127.558738
v    25.368283 299.099810 115.045265
v    27.023207 300.297783 118.375775
v    27.723409 300.826231 119.802111
v    29.847311 302.310973 122.396039
v    31.061754 303.222859 123.909951
v    34.226522 305.474682 126.117940
v    35.618542 306.781687 127.176950
v    37.036672 308.042436 127.558738
v    24.114715 300.429572 115.982825
v    21.320352 301.183754 115.982825
v    22.064393 298.386674 115.982825
v    20.884925 299.570428 151.604723
v    23.679288 298.816246 151.604723
v    22.935247 301.613326 151.604723
v    21.214378 296.865515 150.459795
v    18.427003 296.473263 155.048529
v    17.681919 296.383514 156.268753
v    14.128406 295.823584 159.869600
v    12.718995 295.650310 161.285159
v    7.499998 294.872414 164.284747
v    5.715118 294.850149 165.274748
v    2.742837 294.732189 165.873253
v    19.826886 302.081532 150.459795
v    17.213015 301.037020 155.048529
v    16.521814 300.744708 156.268753
v    13.159753 299.465053 159.869600
v    11.850527 298.915153 161.285159
v    6.934805 296.997152 164.284747
v    5.374764 296.129646 165.274748
v    2.736709 294.755223 165.873253
v    21.173680 299.449506 151.604723
v    23.639632 299.126776 151.604723
v    22.686148 301.423718 151.604723
v    23.825960 300.550494 179.594828
v    21.360008 300.873224 179.594828
v    22.313492 298.576282 179.594828
v    23.067798 303.552617 178.225767
v    24.994725 304.092731 181.488098
v    27.188031 304.660620 185.171895
v    29.541325 305.362269 187.629946
v    32.977294 306.260898 191.170319
v    36.852944 307.381404 193.463718
v    41.271959 308.030986 195.940915
v    42.227167 308.198048 196.136024
v    25.416747 297.894003 178.225767
v    27.159706 298.877296 181.488098
v    29.110404 300.029627 185.171895
v    31.268785 301.200821 187.629946
v    34.331059 302.999680 191.170319
v    37.860889 304.953266 193.463718
v    41.440846 307.624140 195.940915
v    42.233556 308.182657 196.136024
v    23.364513 300.711489 179.594828
v    21.451306 300.393101 179.594828
v    22.683641 298.895409 179.594828
v    21.635127 299.288511 201.075527
v    23.548334 299.606899 201.075527
v    22.315999 301.104591 201.075527
v    23.513780 296.174685 199.472530
v    21.459470 294.862788 203.446078
v    19.276403 293.529156 207.605564
v    16.772552 291.871467 210.611344
v    13.338419 289.761987 214.628958
v    9.246245 287.101467 217.403637
v    4.662637 284.938042 220.214721
v    3.461503 284.330649 220.485536
v    18.941376 301.731654 199.472530
v    17.258420 299.968442 203.446078
v    15.529339 298.083068 207.605564
v    13.420491 295.945320 210.611344
v    10.689156 292.981710 214.628958
v    7.290372 289.478495 217.403637
v    4.284738 285.397314 220.214721
v    3.457400 284.335634 220.485536
v    21.924623 299.398184 201.075527
v    23.308607 299.802773 201.075527
v    22.266231 300.799043 201.075527
v    23.075017 300.601816 220.292223
v    21.691033 300.197227 220.292223
v    22.733409 299.200957 220.292223
v    20.298740 304.092324 218.454382
v    24.346759 307.418069 226.994877
v    29.868589 312.086842 234.534612
v    38.309925 319.095709 241.329133
v    44.889273 323.425591 243.491437
v    26.687467 297.986177 218.454382
v    29.826808 302.180408 226.994877
v    34.241176 307.907659 234.534612
v    40.861259 316.657224 241.329133
v    44.889273 323.425591 243.491437
v    22.901809 300.409697 220.292223
v    21.944017 300.143284 220.292223
v    22.653634 299.447018 220.292223
v    22.097831 299.590303 230.014119
v    23.055623 299.856716 230.014119
v    22.346006 300.552982 230.014119
v    24.734182 296.051857 227.950886
v    19.640135 292.118755 238.418998
v    12.480529 286.559274 247.458880
v    10.532923 284.975054 248.886045
v    3.628304 280.766631 253.370716
v    18.509957 302.158981 227.950886
v    14.674304 296.991160 238.418998
v    9.251792 289.727266 247.458880
v    7.704844 287.749926 248.886045
v    3.628304 280.766631 253.370716
v    22.269174 299.744445 230.014119
v    22.836460 299.928032 230.014119
v    22.393826 300.327522 230.014119
v    22.730466 300.255555 231.882000
v    22.163180 300.071968 231.882000
v    22.605814 299.672478 231.882000
v    21.919488 304.191196 227.870457
v    23.527128 304.388542 238.669345
v    24.147884 304.223426 241.258091
v    27.013662 305.001326 248.142073
v    26.728379 299.851032 227.870457
v    26.760398 301.470423 238.669345
v    26.532707 302.071054 241.258091
v    27.013662 305.001326 248.142073
v    25.831871 301.744316 3.749201
v    26.054694 301.826646 3.797938
v    26.434737 301.916827 3.876528
v    25.927278 301.548462 3.749201
v    26.129459 301.673165 3.797938
v    26.434737 301.916827 3.876528
v    19.050590 297.071628 6.205573
v    19.002318 297.040276 6.217383
v    18.495358 296.792213 6.330942
v    18.889221 297.273073 6.205573
v    18.848089 297.232808 6.217383
v    18.495358 296.792213 6.330942
v    26.873332 301.834450 9.570333
v    26.970310 301.846446 9.624529
v    27.432083 301.916361 9.718499
v    26.964601 301.599544 9.570333
v    27.044239 301.656170 9.624529
v    27.432083 301.916361 9.718499
v    17.386038 298.681377 14.763824
v    16.953410 298.687965 15.003794
v    17.337233 298.887689 14.763824
v    16.953410 298.687965 15.003794
v    26.754429 304.979860 20.318544
v    27.023171 305.165318 20.499638
v    26.874792 304.874457 20.318544
v    27.023171 305.165318 20.499638
v    15.434639 295.422263 41.112261
v    15.192370 295.334402 41.164113
v    15.374023 295.517203 41.112261
v    15.192370 295.334402 41.164113
v    30.008092 305.460534 59.756298
v    30.164540 305.522448 59.849614
v    30.056285 305.393645 59.756298
v    30.164540 305.522448 59.849614
v    12.696557 293.581835 88.842205
v    12.587741 293.544593 88.905993
v    12.665802 293.629058 88.842205
v    12.587741 293.544593 88.905993
v    37.019483 308.073427 127.558738
v    37.097267 308.096307 127.575052
v    37.036672 308.042436 127.558738
v    37.097267 308.096307 127.575052
v    2.742837 294.732189 165.873253
v    2.688348 294.730026 165.884225
v    2.736709 294.755223 165.873253
v    2.688348 294.730026 165.884225
v    42.227167 308.198048 196.136024
v    42.264724 308.204617 196.143695
v    42.233556 308.182657 196.136024
v    42.264724 308.204617 196.143695
v    3.461503 284.330649 220.485536
v    3.448321 284.323983 220.488508
v    3.457400 284.335634 220.485536
v    3.448321 284.323983 220.488508
mtllib usm_22_2.5D_2018-08-10_7.mtl
usemtl APPID_859027728_1834833200896 
o vid_3 
f 3 2 1
f 4 5 6
f 1 6 5
f 1 5 3
f 3 5 4
f 4 2 3
f 2 4 6
f 6 1 2
usemtl APPID_859028400_1834833198464 
o vid_4 
f 7 15 16
f 8 16 17
f 9 17 18
f 10 18 19
f 11 19 20
f 12 20 21
f 7 16 8
f 8 17 9
f 9 18 10
f 10 19 11
f 11 20 12
f 12 21 13
f 13 21 22
f 13 22 14
usemtl APPID_859027728_1834833200896 
o vid_5 
f 25 24 23
f 26 27 28
f 23 28 27
f 23 27 25
f 25 27 26
f 26 24 25
f 24 26 28
f 28 23 24
usemtl APPID_859028400_1834833198464 
o vid_6 
f 29 37 38
f 30 38 39
f 31 39 40
f 32 40 41
f 33 41 42
f 34 42 43
f 29 38 30
f 30 39 31
f 31 40 32
f 32 41 33
f 33 42 34
f 34 43 35
f 35 43 44
f 35 44 36
usemtl APPID_859027728_1834833200896 
o vid_7 
f 47 46 45
f 48 49 50
f 45 50 49
f 45 49 47
f 47 49 48
f 48 46 47
f 46 48 50
f 50 45 46
usemtl APPID_859028400_1834833198464 
o vid_8 
f 51 58 59
f 52 59 60
f 53 60 61
f 54 61 62
f 55 62 63
f 51 59 52
f 52 60 53
f 53 61 54
f 54 62 55
f 55 63 56
f 56 63 64
f 56 64 57
usemtl APPID_859027728_1834833200896 
o vid_9 
f 67 66 65
f 68 69 70
f 65 70 69
f 65 69 67
f 67 69 68
f 68 66 67
f 66 68 70
f 70 65 66
usemtl APPID_859028400_1834833198464 
o vid_10 
f 71 78 79
f 72 79 80
f 73 80 81
f 74 81 82
f 75 82 83
f 71 79 72
f 72 80 73
f 73 81 74
f 74 82 75
f 75 83 76
f 76 83 84
f 76 84 77
usemtl APPID_859027728_1834833200896 
o vid_11 
f 87 86 85
f 88 89 90
f 85 90 89
f 85 89 87
f 87 89 88
f 88 86 87
f 86 88 90
f 90 85 86
usemtl APPID_859028400_1834833198464 
o vid_12 
f 91 98 99
f 92 99 100
f 93 100 101
f 94 101 102
f 95 102 103
f 91 99 92
f 92 100 93
f 93 101 94
f 94 102 95
f 95 103 96
f 96 103 104
f 96 104 97
usemtl APPID_859027728_1834833200896 
o vid_13 
f 107 106 105
f 108 109 110
f 105 110 109
f 105 109 107
f 107 109 108
f 108 106 107
f 106 108 110
f 110 105 106
usemtl APPID_859028400_1834833198464 
o vid_14 
f 111 119 120
f 112 120 121
f 113 121 122
f 114 122 123
f 115 123 124
f 116 124 125
f 111 120 112
f 112 121 113
f 113 122 114
f 114 123 115
f 115 124 116
f 116 125 117
f 117 125 126
f 117 126 118
usemtl APPID_859027728_1834833200896 
o vid_15 
f 129 128 127
f 130 131 132
f 127 132 131
f 127 131 129
f 129 131 130
f 130 128 129
f 128 130 132
f 132 127 128
usemtl APPID_859028400_1834833198464 
o vid_16 
f 133 138 139
f 134 139 140
f 135 140 141
f 133 139 134
f 134 140 135
f 135 141 136
f 136 141 142
f 136 142 137
usemtl APPID_859027728_1834833200896 
o vid_17 
f 145 144 143
f 146 147 148
f 143 148 147
f 143 147 145
f 145 147 146
f 146 144 145
f 144 146 148
f 148 143 144
usemtl APPID_859028400_1834833198464 
o vid_18 
f 149 156 157
f 150 157 158
f 151 158 159
f 152 159 160
f 153 160 161
f 149 157 150
f 150 158 151
f 151 159 152
f 152 160 153
f 153 161 154
f 154 161 162
f 154 162 155
usemtl APPID_859027728_1834833200896 
o vid_19 
f 165 164 163
f 166 167 168
f 163 168 167
f 163 167 165
f 165 167 166
f 166 164 165
f 164 166 168
f 168 163 164
usemtl APPID_859028400_1834833198464 
o vid_20 
f 169 177 178
f 170 178 179
f 171 179 180
f 172 180 181
f 173 181 182
f 174 182 183
f 169 178 170
f 170 179 171
f 171 180 172
f 172 181 173
f 173 182 174
f 174 183 175
f 175 183 184
f 175 184 176
usemtl APPID_859027728_1834833200896 
o vid_21 
f 187 186 185
f 188 189 190
f 185 190 189
f 185 189 187
f 187 189 188
f 188 186 187
f 186 188 190
f 190 185 186
usemtl APPID_859028400_1834833198464 
o vid_22 
f 191 199 200
f 192 200 201
f 193 201 202
f 194 202 203
f 195 203 204
f 196 204 205
f 191 200 192
f 192 201 193
f 193 202 194
f 194 203 195
f 195 204 196
f 196 205 197
f 197 205 206
f 197 206 198
usemtl APPID_859027728_1834833200896 
o vid_23 
f 209 208 207
f 210 211 212
f 207 212 211
f 207 211 209
f 209 211 210
f 210 208 209
f 208 210 212
f 212 207 208
usemtl APPID_859028400_1834833198464 
o vid_24 
f 213 221 222
f 214 222 223
f 215 223 224
f 216 224 225
f 217 225 226
f 218 226 227
f 213 222 214
f 214 223 215
f 215 224 216
f 216 225 217
f 217 226 218
f 218 227 219
f 219 227 228
f 219 228 220
usemtl APPID_859027728_1834833200896 
o vid_25 
f 231 230 229
f 232 233 234
f 229 234 233
f 229 233 231
f 231 233 232
f 232 230 231
f 230 232 234
f 234 229 230
usemtl APPID_859028400_1834833198464 
o vid_26 
f 235 243 244
f 236 244 245
f 237 245 246
f 238 246 247
f 239 247 248
f 240 248 249
f 235 244 236
f 236 245 237
f 237 246 238
f 238 247 239
f 239 248 240
f 240 249 241
f 241 249 250
f 241 250 242
usemtl APPID_859027728_1834833200896 
o vid_27 
f 253 252 251
f 254 255 256
f 251 256 255
f 251 255 253
f 253 255 254
f 254 252 253
f 252 254 256
f 256 251 252
usemtl APPID_859028400_1834833198464 
o vid_28 
f 257 262 263
f 258 263 264
f 259 264 265
f 257 263 258
f 258 264 259
f 259 265 260
f 260 265 266
usemtl APPID_859027728_1834833200896 
o vid_29 
f 269 268 267
f 270 271 272
f 267 272 271
f 267 271 269
f 269 271 270
f 270 268 269
f 268 270 272
f 272 267 268
usemtl APPID_859028400_1834833198464 
o vid_30 
f 273 278 279
f 274 279 280
f 275 280 281
f 273 279 274
f 274 280 275
f 275 281 276
f 276 281 282
usemtl APPID_859027728_1834833200896 
o vid_31 
f 285 284 283
f 286 287 288
f 283 288 287
f 283 287 285
f 285 287 286
f 286 284 285
f 284 286 288
f 288 283 284
usemtl APPID_859028400_1834833198464 
o vid_32 
f 289 293 294
f 290 294 295
f 289 294 290
f 290 295 291
f 291 295 296
usemtl APPID_859030304_1834833201024 
o vid_10000004 
f 297 300 301
f 297 301 298
f 298 301 302
usemtl APPID_859030304_1834833201024 
o vid_10000006 
f 303 306 307
f 303 307 304
f 304 307 308
usemtl APPID_859030304_1834833201024 
o vid_10000008 
f 309 312 313
f 309 313 310
f 310 313 314
usemtl APPID_859030304_1834833201024 
o vid_10000010 
f 315 317 318
f 315 318 316
f 315 317 318
usemtl APPID_859030304_1834833201024 
o vid_10000012 
f 319 321 322
f 319 322 320
f 319 321 322
usemtl APPID_859030304_1834833201024 
o vid_10000014 
f 323 325 326
f 323 326 324
f 323 325 326
usemtl APPID_859030304_1834833201024 
o vid_10000016 
f 327 329 330
f 327 330 328
f 327 329 330
usemtl APPID_859030304_1834833201024 
o vid_10000018 
f 331 333 334
f 331 334 332
f 331 333 334
usemtl APPID_859030304_1834833201024 
o vid_10000020 
f 335 337 338
f 335 338 336
f 335 337 338
usemtl APPID_859030304_1834833201024 
o vid_10000022 
f 339 341 342
f 339 342 340
f 339 341 342
usemtl APPID_859030304_1834833201024 
o vid_10000024 
f 343 345 346
f 343 346 344
f 343 345 346
usemtl APPID_859030304_1834833201024 
o vid_10000026 
f 347 349 350
f 347 350 348
f 347 349 350
