# File generated by PlantGL - Wed Jul 15 17:34:59 2026
v    87.751764 18.905161 0.000000
v    92.071196 18.601013 0.000000
v    90.174880 22.493825 0.000000
v    92.246796 21.094839 1.426662
v    87.927364 21.398987 1.426662
v    89.823680 17.506175 1.426662
v    92.156657 21.379994 1.293495
v    92.212298 21.399247 1.389476
v    92.415767 20.848085 1.293495
v    92.465225 20.880030 1.389476
v    91.878564 21.505407 1.426662
v    87.755918 20.874804 1.426662
v    90.363358 17.619789 1.426662
v    88.119996 18.494593 3.929988
v    92.242642 19.125196 3.929988
v    89.635202 22.380211 3.929988
v    88.319972 18.146643 3.743310
v    88.237793 18.095669 3.900955
v    87.820150 17.847997 4.690449
v    87.738951 17.795758 4.787094
v    87.710739 17.778934 4.819837
v    87.824081 18.765691 3.743310
v    87.756400 18.696620 3.900955
v    87.423544 18.343102 4.690449
v    87.354842 18.275262 4.787094
v    87.332267 18.251403 4.819837
v    87.840696 19.161313 3.929988
v    91.804896 18.549955 3.929988
v    90.352248 22.288732 3.929988
v    92.157864 20.838687 7.889237
v    88.193664 21.450045 7.889237
v    89.646313 17.711268 7.889237
v    92.038642 21.378624 7.632846
v    92.181646 21.415200 7.873475
v    92.816458 21.564156 8.933679
v    92.963669 21.604404 9.086442
v    93.690893 21.776925 9.831499
v    92.434455 20.359895 7.632846
v    92.564641 20.429462 7.873475
v    93.133496 20.748174 8.933679
v    93.269265 20.817874 9.086442
v    93.922200 21.181594 9.831499
v    92.163242 20.511898 7.889237
v    88.473982 21.618097 7.889237
v    89.360615 17.870005 7.889237
v    87.835318 19.488102 13.403547
v    91.524578 18.381903 13.403547
v    90.637945 22.129995 13.403547
v    87.872327 18.838220 13.058547
v    87.350179 18.789954 13.911152
v    86.794474 18.763976 14.808952
v    85.916255 18.680624 15.688345
v    87.577232 20.085687 13.058547
v    87.088798 19.894895 13.911152
v    86.580352 19.669141 14.808952
v    85.757867 19.350182 15.688345
v    88.594975 18.396392 13.403547
v    92.090197 19.585640 13.403547
v    89.312667 22.017967 13.403547
v    91.403585 21.603608 18.663039
v    87.908363 20.414360 18.663039
v    90.685893 17.982033 18.663039
v    90.870401 22.269577 18.208214
v    91.366245 22.697022 19.272645
v    91.971959 23.172959 20.515835
v    92.906124 23.982261 21.747924
v    93.242755 24.188592 22.127329
v    92.134080 21.162953 18.208214
v    92.492367 21.710859 19.272645
v    92.884225 22.374074 20.515835
v    93.563198 23.406851 21.747924
v    93.723311 23.767762 22.127329
v    91.718262 21.097521 18.663039
v    88.189308 20.939922 18.663039
v    90.090270 17.962557 18.663039
v    88.280298 18.902479 40.839852
v    91.809252 19.060078 40.839852
v    89.908290 22.037443 40.839852
v    88.743754 17.817173 40.252389
v    87.457443 17.230169 42.551348
v    87.065635 17.072469 43.232962
v    84.915268 16.084782 45.591871
v    84.063815 15.814710 46.178335
v    87.490793 19.779612 40.252389
v    86.416998 18.859755 42.551348
v    86.109063 18.570690 43.232962
v    84.308185 17.035619 45.591871
v    83.704889 16.376876 46.178335
v    88.419300 18.861621 40.839852
v    91.775135 19.200887 40.839852
v    89.803405 21.937492 40.839852
v    91.579260 21.138379 61.175581
v    88.223425 20.799113 61.175581
v    90.195155 18.062508 61.175581
v    90.934974 22.451298 60.432178
v    92.319963 23.179827 62.976642
v    93.008404 23.502907 64.203939
v    95.386577 24.761319 66.886078
v    95.954096 24.951070 67.461096
v    96.844198 25.303332 67.992015
v    92.620716 20.111622 60.432178
v    93.750198 21.194775 62.976642
v    94.274588 21.745544 64.203939
v    96.221095 23.603073 66.886078
v    96.580736 24.081343 67.461096
v    97.196644 24.814165 67.992015
v    91.553913 21.012481 61.175581
v    88.345129 20.840111 61.175581
v    90.098798 18.147408 61.175581
v    88.444647 18.987519 89.573040
v    91.653431 19.159889 89.573040
v    89.899762 21.852592 89.573040
v    89.192450 17.283238 88.651365
v    87.119468 16.314512 92.371794
v    86.572060 16.088413 93.327615
v    83.126844 14.468127 97.122856
v    80.717756 13.658093 98.635417
v    87.188276 20.360587 88.651365
v    85.464067 18.856330 92.371794
v    85.035932 18.447089 93.327615
v    82.160944 15.951237 97.122856
v    80.445972 14.075408 98.635417
v    88.457403 19.144816 89.573040
v    91.510830 19.092287 89.573040
v    90.029607 21.762897 89.573040
v    91.541157 20.855184 126.500174
v    88.487730 20.907713 126.500174
v    89.968953 18.237103 126.500174
v    90.695457 23.139921 125.380631
v    91.462778 23.451946 126.730980
v    93.949075 24.405687 131.060792
v    94.790893 24.764282 131.976692
v    98.523759 26.206711 135.965973
v    100.325693 26.956634 137.075476
v    103.818541 27.881638 139.079448
v    93.031543 18.928015 125.380631
v    93.702528 19.413731 126.730980
v    95.828075 21.017896 131.060792
v    96.578012 21.542149 131.976692
v    99.778168 23.945041 135.965973
v    101.368448 25.076572 137.075476
v    104.002577 27.549825 139.079448
v    91.614175 20.429572 126.500174
v    88.819812 21.183754 126.500174
v    89.563853 18.386674 126.500174
v    88.384385 19.570428 161.628521
v    91.178748 18.816246 161.628521
v    90.434707 21.613326 161.628521
v    88.722268 16.593803 160.296189
v    86.940440 16.343056 163.229535
v    84.603971 16.061618 167.055969
v    82.441218 15.720832 169.247530
v    78.811112 15.274542 172.893470
v    75.172119 14.732147 174.984960
v    70.572681 14.674775 177.536083
v    70.534203 14.673248 177.543831
v    87.198659 22.321522 160.296189
v    85.527744 21.653818 163.229535
v    83.360245 20.737172 167.055969
v    81.314014 19.958343 169.247530
v    77.941945 18.542011 172.893470
v    74.514413 17.204667 174.984960
v    70.494362 14.969202 177.536083
v    70.460210 14.951409 177.543831
v    88.540986 19.394647 161.628521
v    91.252678 19.039757 161.628521
v    90.204176 21.565597 161.628521
v    91.457574 20.605353 187.510181
v    88.745882 20.960243 187.510181
v    89.794384 18.434403 187.510181
v    90.644329 23.898507 185.956744
v    91.845727 24.235257 187.990737
v    95.327343 25.136713 193.838331
v    96.671511 25.537485 195.242336
v    101.914451 26.908701 200.644585
v    104.673579 27.706405 202.277287
v    110.238126 28.524377 205.396642
v    93.215577 17.704378 185.956744
v    94.302274 18.317440 187.990737
v    97.398778 20.146630 193.838331
v    98.631615 20.815599 195.242336
v    103.304334 23.560476 200.644585
v    105.817268 24.951260 202.277287
v    110.325249 28.314499 205.396642
v    91.147416 20.944713 187.510181
v    88.607066 20.521958 187.510181
v    90.243358 18.533328 187.510181
v    88.851144 19.055287 206.888182
v    91.391494 19.478042 206.888182
v    89.755202 21.466672 206.888182
v    90.871564 15.680279 205.113649
v    89.253143 14.646744 208.244081
v    86.170798 12.763745 214.116997
v    84.276500 11.509614 216.391031
v    79.574472 8.621306 221.891963
v    76.131899 6.383123 224.226183
v    70.154792 3.561978 227.891887
v    85.928401 21.687843 205.113649
v    84.602538 20.298752 208.244081
v    82.161193 17.636730 214.116997
v    80.565736 16.019410 216.391031
v    76.825981 11.961623 221.891963
v    73.966727 9.014516 224.226183
v    70.047327 3.692584 227.891887
v    89.035603 18.991726 206.888182
v    91.354310 19.669568 206.888182
v    89.607928 21.338706 206.888182
v    90.962957 21.008274 223.658686
v    88.644250 20.330432 223.658686
v    90.390632 18.661294 223.658686
v    88.030842 24.715215 221.672666
v    91.801398 27.813466 229.628320
v    92.825426 28.621263 231.749023
v    97.578140 32.659565 237.991756
v    99.510975 34.191968 240.450601
v    106.531995 40.057677 245.651389
v    109.158181 41.705983 247.371037
v    113.294248 44.461497 248.371000
v    94.798663 18.246741 221.672666
v    97.723287 22.153508 229.628320
v    98.483963 23.213008 231.749023
v    102.303275 28.143427 237.991756
v    103.746731 30.143563 240.450601
v    109.289035 37.422583 245.651389
v    110.816931 40.120601 247.371037
v    113.382643 44.377012 248.371000
v    90.911592 20.929805 223.658686
v    88.737890 20.325183 223.658686
v    90.348359 18.745013 223.658686
v    89.086968 19.070195 233.284186
v    91.260670 19.674817 233.284186
v    89.650201 21.254987 233.284186
v    92.077003 15.131935 231.106515
v    89.462816 13.040697 236.563952
v    86.735239 10.946512 242.155242
v    83.554170 8.314667 246.287906
v    79.258752 4.999956 251.696523
v    74.067666 0.777427 255.500442
v    68.241279 -2.773805 259.284782
v    66.811799 -3.699309 259.627419
v    85.092636 21.984900 231.106515
v    83.051420 19.331470 236.563952
v    81.009411 16.564616 242.155242
v    78.438452 13.334139 246.287906
v    75.205912 8.976547 251.696523
v    71.082727 3.706208 255.500442
v    67.642783 -2.186569 259.284782
v    66.744592 -3.633368 259.627419
v    89.196408 19.110420 233.284186
v    91.171115 19.749483 233.284186
v    89.630317 21.140098 233.284186
v    90.802152 20.889580 240.111336
v    88.827445 20.250517 240.111336
v    90.368243 18.859902 240.111336
v    87.166163 25.208729 237.771905
v    91.999465 29.417232 248.219437
v    98.794238 35.490571 257.888772
v    100.332118 36.783092 259.891359
v    109.225865 44.655581 266.643288
v    111.324671 46.058033 268.043281
v    117.303185 50.292538 269.517347
v    95.470272 17.714030 237.771905
v    99.162794 22.952121 248.219437
v    104.509931 30.331992 257.888772
v    105.638520 31.993912 259.891359
v    112.560880 41.645634 266.643288
v    113.741498 43.876777 268.043281
v    117.342849 50.256740 269.517347
v    90.914484 20.178165 240.111336
v    89.387382 20.703507 240.111336
v    89.695974 19.118327 240.111336
v    89.084076 19.821835 243.312829
v    90.611178 19.296493 243.312829
v    90.302586 20.881673 243.312829
v    89.354041 14.192516 240.850550
v    85.201699 13.892657 247.637299
v    81.697146 13.709697 253.343275
v    76.538034 13.251564 258.527714
v    70.924917 12.944727 264.131540
v    62.755119 12.287738 268.790771
v    55.696579 12.678079 272.711536
v    52.804706 12.759222 273.293621
v    87.222603 25.141330 240.850550
v    83.261010 23.861624 247.637299
v    79.943752 22.716562 253.343275
v    74.989539 21.205905 258.527714
v    69.671231 19.384688 264.131540
v    61.851597 16.928967 268.790771
v    55.454953 13.919265 272.711536
v    52.804706 12.759222 273.293621
v    89.462983 19.557572 243.312829
v    90.650582 19.756767 243.312829
v    89.884275 20.685660 243.312829
v    90.535577 20.442428 245.510376
v    89.347978 20.243233 245.510376
v    90.114285 19.314340 245.510376
v    87.583388 25.334638 242.971313
v    90.505746 27.206137 248.628503
v    94.294814 29.527525 255.853613
v    97.817296 31.866083 260.085805
v    103.704163 35.492567 266.978301
v    109.635086 39.359336 271.003082
v    117.494105 43.081012 275.825857
v    118.749014 43.717613 276.108980
v    94.777480 16.614190 242.971313
v    97.170317 19.127557 248.628503
v    100.169577 22.406324 255.853613
v    103.135025 25.420101 260.085805
v    107.814321 30.510364 266.978301
v    112.737895 35.598210 271.003082
v    117.885496 42.606580 275.825857
v    118.749014 43.717613 276.108980
v    90.388606 20.292357 245.510376
v    89.551429 20.190988 245.510376
v    90.057805 19.516656 245.510376
v    89.609954 19.707643 246.870425
v    90.447131 19.809012 246.870425
v    89.940755 20.483344 246.870425
v    92.509910 14.439320 244.305239
v    87.715504 11.669232 253.331819
v    85.567601 10.484683 257.320079
v    79.548779 6.873577 264.345887
v    75.852690 4.823388 268.559223
v    66.770328 -0.523436 274.550465
v    61.868587 -2.576149 277.497807
v    57.025840 -4.760762 278.566742
v    85.359284 23.961674 244.305239
v    81.362125 20.129908 253.331819
v    79.625606 18.397526 257.320079
v    74.479352 13.624436 264.345887
v    71.479809 10.646671 268.559223
v    63.812400 3.415581 274.550465
v    60.474228 -0.719308 277.497807
v    57.025840 -4.760762 278.566742
v    89.747583 19.823710 246.870425
v    90.277800 19.870168 246.870425
v    89.972457 20.306121 246.870425
v    90.250977 20.176290 247.200000
v    89.720760 20.129832 247.200000
v    90.026103 19.693879 247.200000
v    89.523279 24.856881 242.299736
v    94.904047 26.856963 256.322867
v    96.871619 27.789809 259.379037
v    103.503025 29.458060 268.474126
v    94.401006 17.892707 242.299736
v    98.119653 22.265881 256.322867
v    99.668790 23.796148 259.379037
v    103.503025 29.458060 268.474126
v    92.212298 21.399247 1.389476
v    92.323739 21.437807 1.581714
v    92.550422 21.511218 1.969135
v    92.752145 21.584762 2.184055
v    93.103581 21.699527 2.552593
v    93.445320 21.820904 2.758749
v    93.900467 21.915913 3.016622
v    93.962574 21.930650 3.029465
v    92.465225 20.880030 1.389476
v    92.564283 20.944010 1.581714
v    92.761821 21.077251 1.969135
v    92.944078 21.190756 2.184055
v    93.251080 21.396738 2.552593
v    93.557310 21.591008 2.758749
v    93.912686 21.890831 3.016622
v    93.962574 21.930650 3.029465
v    87.710739 17.778934 4.819837
v    87.117516 17.425170 5.508364
v    86.900743 17.288249 5.654115
v    86.235082 16.984676 6.059881
v    87.332267 18.251403 4.819837
v    86.857555 17.749694 5.508364
v    86.676622 17.568032 5.654115
v    86.235082 16.984676 6.059881
v    93.690893 21.776925 9.831499
v    93.911027 21.829148 10.057031
v    94.275302 21.925492 10.271229
v    95.272527 22.048846 10.828522
v    93.922200 21.181594 9.831499
v    94.119847 21.291694 10.057031
v    94.453612 21.466564 10.271229
v    95.272527 22.048846 10.828522
v    85.916255 18.680624 15.688345
v    85.823652 18.671835 15.781071
v    85.263601 18.710765 16.320538
v    84.592460 18.720986 16.692806
v    85.757867 19.350182 15.688345
v    85.671141 19.316550 15.781071
v    85.187890 19.030820 16.320538
v    84.592460 18.720986 16.692806
v    93.242755 24.188592 22.127329
v    93.581053 24.395946 22.508613
v    94.257945 24.863067 22.964745
v    93.723311 23.767762 22.127329
v    93.884217 24.130460 22.508613
v    94.257945 24.863067 22.964745
v    84.063815 15.814710 46.178335
v    82.772007 15.385593 46.933288
v    83.704889 16.376876 46.178335
v    82.772007 15.385593 46.933288
v    96.844198 25.303332 67.992015
v    97.988326 25.756126 68.674453
v    97.196644 24.814165 67.992015
v    97.988326 25.756126 68.674453
v    80.717756 13.658093 98.635417
v    79.756132 13.328979 99.199120
v    80.445972 14.075408 98.635417
v    79.756132 13.328979 99.199120
v    103.818541 27.881638 139.079448
v    104.567109 28.079879 139.508928
v    104.002577 27.549825 139.079448
v    104.567109 28.079879 139.508928
v    70.534203 14.673248 177.543831
v    69.876187 14.647133 177.676331
v    70.460210 14.951409 177.543831
v    69.876187 14.647133 177.676331
v    110.238126 28.524377 205.396642
v    110.696967 28.591825 205.653858
v    110.325249 28.314499 205.396642
v    110.696967 28.591825 205.653858
v    70.154792 3.561978 227.891887
v    69.855472 3.420702 228.075457
v    69.841270 3.413520 228.078659
v    70.047327 3.692584 227.891887
v    69.851052 3.426073 228.075457
v    69.841270 3.413520 228.078659
v    113.294248 44.461497 248.371000
v    113.527066 44.616603 248.427288
v    113.382643 44.377012 248.371000
v    113.527066 44.616603 248.427288
v    66.811799 -3.699309 259.627419
v    66.630975 -3.816382 259.670761
v    66.744592 -3.633368 259.627419
v    66.630975 -3.816382 259.670761
v    117.303185 50.292538 269.517347
v    117.402939 50.363193 269.541943
v    117.342849 50.256740 269.517347
v    117.402939 50.363193 269.541943
mtllib usm_1_Beer_2018-08-23_1.mtl
usemtl APPID_92793152_1816860519392 
o vid_3 
f 3 2 1
f 4 5 6
f 1 6 5
f 1 5 3
f 3 5 4
f 4 2 3
f 2 4 6
f 6 1 2
usemtl APPID_92792144_1816860518624 
o vid_4 
f 7 9 10
f 7 10 8
f 7 9 10
f 7 10 8
usemtl APPID_92793152_1816860519392 
o vid_5 
f 13 12 11
f 14 15 16
f 11 16 15
f 11 15 13
f 13 15 14
f 14 12 13
f 12 14 16
f 16 11 12
usemtl APPID_92792144_1816860518624 
o vid_6 
f 17 22 23
f 18 23 24
f 19 24 25
f 17 23 18
f 18 24 19
f 19 25 20
f 20 25 26
f 20 26 21
usemtl APPID_92793152_1816860519392 
o vid_7 
f 29 28 27
f 30 31 32
f 27 32 31
f 27 31 29
f 29 31 30
f 30 28 29
f 28 30 32
f 32 27 28
usemtl APPID_92792144_1816860518624 
o vid_8 
f 33 38 39
f 34 39 40
f 35 40 41
f 33 39 34
f 34 40 35
f 35 41 36
f 36 41 42
f 36 42 37
usemtl APPID_92793152_1816860519392 
o vid_9 
f 45 44 43
f 46 47 48
f 43 48 47
f 43 47 45
f 45 47 46
f 46 44 45
f 44 46 48
f 48 43 44
usemtl APPID_92792144_1816860518624 
o vid_10 
f 49 53 54
f 50 54 55
f 49 54 50
f 50 55 51
f 51 55 56
f 51 56 52
usemtl APPID_92793152_1816860519392 
o vid_11 
f 59 58 57
f 60 61 62
f 57 62 61
f 57 61 59
f 59 61 60
f 60 58 59
f 58 60 62
f 62 57 58
usemtl APPID_92792144_1816860518624 
o vid_12 
f 63 68 69
f 64 69 70
f 65 70 71
f 63 69 64
f 64 70 65
f 65 71 66
f 66 71 72
f 66 72 67
usemtl APPID_92793152_1816860519392 
o vid_13 
f 75 74 73
f 76 77 78
f 73 78 77
f 73 77 75
f 75 77 76
f 76 74 75
f 74 76 78
f 78 73 74
usemtl APPID_92792144_1816860518624 
o vid_14 
f 79 84 85
f 80 85 86
f 81 86 87
f 79 85 80
f 80 86 81
f 81 87 82
f 82 87 88
f 82 88 83
usemtl APPID_92793152_1816860519392 
o vid_15 
f 91 90 89
f 92 93 94
f 89 94 93
f 89 93 91
f 91 93 92
f 92 90 91
f 90 92 94
f 94 89 90
usemtl APPID_92792144_1816860518624 
o vid_16 
f 95 101 102
f 96 102 103
f 97 103 104
f 98 104 105
f 95 102 96
f 96 103 97
f 97 104 98
f 98 105 99
f 99 105 106
f 99 106 100
usemtl APPID_92793152_1816860519392 
o vid_17 
f 109 108 107
f 110 111 112
f 107 112 111
f 107 111 109
f 109 111 110
f 110 108 109
f 108 110 112
f 112 107 108
usemtl APPID_92792144_1816860518624 
o vid_18 
f 113 118 119
f 114 119 120
f 115 120 121
f 113 119 114
f 114 120 115
f 115 121 116
f 116 121 122
f 116 122 117
usemtl APPID_92793152_1816860519392 
o vid_19 
f 125 124 123
f 126 127 128
f 123 128 127
f 123 127 125
f 125 127 126
f 126 124 125
f 124 126 128
f 128 123 124
usemtl APPID_92792144_1816860518624 
o vid_20 
f 129 136 137
f 130 137 138
f 131 138 139
f 132 139 140
f 133 140 141
f 129 137 130
f 130 138 131
f 131 139 132
f 132 140 133
f 133 141 134
f 134 141 142
f 134 142 135
usemtl APPID_92793152_1816860519392 
o vid_21 
f 145 144 143
f 146 147 148
f 143 148 147
f 143 147 145
f 145 147 146
f 146 144 145
f 144 146 148
f 148 143 144
usemtl APPID_92792144_1816860518624 
o vid_22 
f 149 157 158
f 150 158 159
f 151 159 160
f 152 160 161
f 153 161 162
f 154 162 163
f 149 158 150
f 150 159 151
f 151 160 152
f 152 161 153
f 153 162 154
f 154 163 155
f 155 163 164
f 155 164 156
usemtl APPID_92793152_1816860519392 
o vid_23 
f 167 166 165
f 168 169 170
f 165 170 169
f 165 169 167
f 167 169 168
f 168 166 167
f 166 168 170
f 170 165 166
usemtl APPID_92792144_1816860518624 
o vid_24 
f 171 178 179
f 172 179 180
f 173 180 181
f 174 181 182
f 175 182 183
f 171 179 172
f 172 180 173
f 173 181 174
f 174 182 175
f 175 183 176
f 176 183 184
f 176 184 177
usemtl APPID_92793152_1816860519392 
o vid_25 
f 187 186 185
f 188 189 190
f 185 190 189
f 185 189 187
f 187 189 188
f 188 186 187
f 186 188 190
f 190 185 186
usemtl APPID_92792144_1816860518624 
o vid_26 
f 191 198 199
f 192 199 200
f 193 200 201
f 194 201 202
f 195 202 203
f 191 199 192
f 192 200 193
f 193 201 194
f 194 202 195
f 195 203 196
f 196 203 204
f 196 204 197
usemtl APPID_92793152_1816860519392 
o vid_27 
f 207 206 205
f 208 209 210
f 205 210 209
f 205 209 207
f 207 209 208
f 208 206 207
f 206 208 210
f 210 205 206
usemtl APPID_92792144_1816860518624 
o vid_28 
f 211 219 220
f 212 220 221
f 213 221 222
f 214 222 223
f 215 223 224
f 216 224 225
f 211 220 212
f 212 221 213
f 213 222 214
f 214 223 215
f 215 224 216
f 216 225 217
f 217 225 226
f 217 226 218
usemtl APPID_92793152_1816860519392 
o vid_29 
f 229 228 227
f 230 231 232
f 227 232 231
f 227 231 229
f 229 231 230
f 230 228 229
f 228 230 232
f 232 227 228
usemtl APPID_92792144_1816860518624 
o vid_30 
f 233 241 242
f 234 242 243
f 235 243 244
f 236 244 245
f 237 245 246
f 238 246 247
f 233 242 234
f 234 243 235
f 235 244 236
f 236 245 237
f 237 246 238
f 238 247 239
f 239 247 248
f 239 248 240
usemtl APPID_92793152_1816860519392 
o vid_31 
f 251 250 249
f 252 253 254
f 249 254 253
f 249 253 251
f 251 253 252
f 252 250 251
f 250 252 254
f 254 249 250
usemtl APPID_92792144_1816860518624 
o vid_32 
f 255 262 263
f 256 263 264
f 257 264 265
f 258 265 266
f 259 266 267
f 255 263 256
f 256 264 257
f 257 265 258
f 258 266 259
f 259 267 260
f 260 267 268
f 260 268 261
usemtl APPID_92793152_1816860519392 
o vid_33 
f 271 270 269
f 272 273 274
f 269 274 273
f 269 273 271
f 271 273 272
f 272 270 271
f 270 272 274
f 274 269 270
usemtl APPID_92792144_1816860518624 
o vid_34 
f 275 283 284
f 276 284 285
f 277 285 286
f 278 286 287
f 279 287 288
f 280 288 289
f 275 284 276
f 276 285 277
f 277 286 278
f 278 287 279
f 279 288 280
f 280 289 281
f 281 289 290
usemtl APPID_92793152_1816860519392 
o vid_35 
f 293 292 291
f 294 295 296
f 291 296 295
f 291 295 293
f 293 295 294
f 294 292 293
f 292 294 296
f 296 291 292
usemtl APPID_92792144_1816860518624 
o vid_36 
f 297 305 306
f 298 306 307
f 299 307 308
f 300 308 309
f 301 309 310
f 302 310 311
f 297 306 298
f 298 307 299
f 299 308 300
f 300 309 301
f 301 310 302
f 302 311 303
f 303 311 312
usemtl APPID_92793152_1816860519392 
o vid_37 
f 315 314 313
f 316 317 318
f 313 318 317
f 313 317 315
f 315 317 316
f 316 314 315
f 314 316 318
f 318 313 314
usemtl APPID_92792144_1816860518624 
o vid_38 
f 319 327 328
f 320 328 329
f 321 329 330
f 322 330 331
f 323 331 332
f 324 332 333
f 319 328 320
f 320 329 321
f 321 330 322
f 322 331 323
f 323 332 324
f 324 333 325
f 325 333 334
usemtl APPID_92793152_1816860519392 
o vid_39 
f 337 336 335
f 338 339 340
f 335 340 339
f 335 339 337
f 337 339 338
f 338 336 337
f 336 338 340
f 340 335 336
usemtl APPID_92792144_1816860518624 
o vid_40 
f 341 345 346
f 342 346 347
f 341 346 342
f 342 347 343
f 343 347 348
usemtl APPID_92797072_1816860521440 
o vid_10000004 
f 349 357 358
f 350 358 359
f 351 359 360
f 352 360 361
f 353 361 362
f 354 362 363
f 349 358 350
f 350 359 351
f 351 360 352
f 352 361 353
f 353 362 354
f 354 363 355
f 355 363 364
usemtl APPID_92797072_1816860521440 
o vid_10000006 
f 365 369 370
f 366 370 371
f 365 370 366
f 366 371 367
f 367 371 372
usemtl APPID_92797072_1816860521440 
o vid_10000008 
f 373 377 378
f 374 378 379
f 373 378 374
f 374 379 375
f 375 379 380
usemtl APPID_92797072_1816860521440 
o vid_10000010 
f 381 385 386
f 382 386 387
f 381 386 382
f 382 387 383
f 383 387 388
usemtl APPID_92797072_1816860521440 
o vid_10000012 
f 389 392 393
f 389 393 390
f 390 393 394
usemtl APPID_92797072_1816860521440 
o vid_10000014 
f 395 397 398
f 395 398 396
f 395 397 398
usemtl APPID_92797072_1816860521440 
o vid_10000016 
f 399 401 402
f 399 402 400
f 399 401 402
usemtl APPID_92797072_1816860521440 
o vid_10000018 
f 403 405 406
f 403 406 404
f 403 405 406
usemtl APPID_92797072_1816860521440 
o vid_10000020 
f 407 409 410
f 407 410 408
f 407 409 410
usemtl APPID_92797072_1816860521440 
o vid_10000022 
f 411 413 414
f 411 414 412
f 411 413 414
usemtl APPID_92797072_1816860521440 
o vid_10000024 
f 415 417 418
f 415 418 416
f 415 417 418
usemtl APPID_92797072_1816860521440 
o vid_10000026 
f 419 422 423
f 419 423 420
f 420 423 424
usemtl APPID_92797072_1816860521440 
o vid_10000028 
f 425 427 428
f 425 428 426
f 425 427 428
usemtl APPID_92797072_1816860521440 
o vid_10000030 
f 429 431 432
f 429 432 430
f 429 431 432
usemtl APPID_92797072_1816860521440 
o vid_10000032 
f 433 435 436
f 433 436 434
f 433 435 436
