# File generated by PlantGL - Wed Jul 15 17:36:05 2026
v    21.554892 19.539695 0.000000
v    23.370920 19.411821 0.000000
v    22.573648 21.048484 0.000000
v    23.444748 20.460305 3.802807
v    21.628720 20.588179 3.802807
v    22.425992 18.951516 3.802807
v    22.957695 21.200172 3.433732
v    23.460516 21.393298 3.906719
v    24.226845 21.673874 4.622267
v    25.780152 22.266362 5.586079
v    26.154311 22.396939 5.815146
v    27.518061 22.891712 6.202260
v    28.107334 23.079342 6.366457
v    29.350077 23.336985 6.356983
v    23.727097 19.620721 3.433732
v    24.189119 19.897602 3.906719
v    24.882432 20.328065 4.622267
v    26.306464 21.185936 5.586079
v    26.639922 21.400063 5.815146
v    27.870163 22.168908 6.202260
v    28.381148 22.517250 6.366457
v    29.350077 23.336985 6.356983
v    23.052240 20.442518 3.802807
v    21.840378 20.257151 3.802807
v    22.606842 19.300331 3.802807
v    21.947400 19.557482 5.748000
v    23.159262 19.742849 5.748000
v    22.392798 20.699669 5.748000
v    22.709488 18.912709 4.686468
v    21.848363 18.395145 6.119594
v    21.449566 18.178108 6.762906
v    20.225504 17.453624 8.123731
v    19.362176 17.002340 9.047457
v    18.248304 16.594309 9.680901
v    21.484505 20.441924 4.686468
v    20.791470 19.714524 6.119594
v    20.492624 19.372712 6.762906
v    19.518444 18.336287 8.123731
v    18.889610 17.592270 9.047457
v    18.248304 16.594309 9.680901
mtllib usm_22_2.5D_2018-07-16_0.mtl
usemtl APPID_887259552_1834833430912 
o vid_3 
f 3 2 1
f 4 5 6
f 1 6 5
f 1 5 3
f 3 5 4
f 4 2 3
f 2 4 6
f 6 1 2
usemtl APPID_887262800_1834833430784 
o vid_4 
f 7 15 16
f 8 16 17
f 9 17 18
f 10 18 19
f 11 19 20
f 12 20 21
f 7 16 8
f 8 17 9
f 9 18 10
f 10 19 11
f 11 20 12
f 12 21 13
f 13 21 22
usemtl APPID_887259552_1834833430912 
o vid_5 
f 25 24 23
f 26 27 28
f 23 28 27
f 23 27 25
f 25 27 26
f 26 24 25
f 24 26 28
f 28 23 24
usemtl APPID_887262800_1834833430784 
o vid_6 
f 29 35 36
f 30 36 37
f 31 37 38
f 32 38 39
f 29 36 30
f 30 37 31
f 31 38 32
f 32 39 33
f 33 39 40
