# File generated by PlantGL - Wed Jul 15 17:35:40 2026
v    20.252304 138.905161 0.000000
v    24.571736 138.601013 0.000000
v    22.675420 142.493825 0.000000
v    24.747336 141.094839 2.682187
v    20.427904 141.398987 2.682187
v    22.324220 137.506175 2.682187
v    24.669609 141.321008 2.593590
v    24.853021 141.382921 2.908866
v    24.930838 141.409847 3.043102
v    25.142569 141.490614 3.270259
v    25.293707 141.545715 3.431284
v    25.518247 141.632546 3.568513
v    25.802532 141.733516 3.740009
v    26.057815 141.827840 3.795846
v    26.436550 141.917710 3.874165
v    24.877512 140.894218 2.593590
v    25.039323 141.000475 2.908866
v    25.108493 141.045152 3.043102
v    25.302606 141.162085 3.270259
v    25.439159 141.247127 3.431284
v    25.645943 141.370409 3.568513
v    25.900688 141.532017 3.740009
v    26.132323 141.674887 3.795846
v    26.436550 141.917710 3.874165
v    24.379104 141.505407 2.682187
v    20.256458 140.874804 2.682187
v    22.863898 137.619789 2.682187
v    20.620536 138.494593 4.602934
v    24.743182 139.125196 4.602934
v    22.135742 142.380211 4.602934
v    20.802592 138.199868 4.474847
v    20.559120 138.051386 4.939302
v    20.462467 137.991434 5.124716
v    20.183628 137.806144 5.460309
v    19.994076 137.684197 5.685919
v    19.697747 137.485328 5.889344
v    19.336480 137.257137 6.132248
v    18.998149 137.037398 6.215020
v    18.492670 136.790059 6.328247
v    20.372652 138.736587 4.474847
v    20.174610 138.531392 4.939302
v    20.095007 138.450154 5.124716
v    19.853326 138.218480 5.460309
v    19.692946 138.060114 5.685919
v    19.434195 137.814334 5.889344
v    19.132657 137.511582 6.132248
v    18.844371 137.229368 6.215020
v    18.492670 136.790059 6.328247
v    20.341236 139.161313 4.602934
v    24.305436 138.549955 4.602934
v    22.852788 142.288732 4.602934
v    24.658404 140.838687 7.454389
v    20.694204 141.450045 7.454389
v    22.146852 137.711268 7.454389
v    24.559305 141.258582 7.273071
v    24.990340 141.368830 7.998360
v    25.106892 141.396178 8.193016
v    25.655294 141.546115 8.762097
v    25.875250 141.598296 8.987448
v    26.681721 141.811592 9.461661
v    26.963741 141.846477 9.619265
v    27.436410 141.918042 9.715452
v    24.868794 140.462033 7.273071
v    25.261192 140.671719 7.998360
v    25.365635 140.730235 8.193016
v    25.871410 140.989883 8.762097
v    26.068897 141.099894 8.987448
v    26.807822 141.487040 9.461661
v    27.039414 141.651711 9.619265
v    27.436410 141.918042 9.715452
v    24.663782 140.511898 7.454389
v    20.974522 141.618097 7.454389
v    21.861155 137.870005 7.454389
v    20.335858 139.488102 12.006019
v    24.025118 138.381903 12.006019
v    23.138485 142.129995 12.006019
v    20.382049 138.933388 11.754696
v    20.115670 138.903399 12.191689
v    19.602388 138.855952 13.029815
v    19.288527 138.815370 13.346597
v    18.505208 138.741025 14.130962
v    17.934320 138.672036 14.457852
v    16.949471 138.687033 15.004129
v    20.128619 140.004720 11.754696
v    19.877036 139.912182 12.191689
v    19.396897 139.724629 13.029815
v    19.098119 139.620288 13.346597
v    18.364511 139.335796 14.130962
v    17.823220 139.141692 14.457852
v    16.949471 138.687033 15.004129
v    21.095515 138.396392 12.006019
v    24.590737 139.585640 12.006019
v    21.813207 142.017967 12.006019
v    23.904125 141.603608 16.421928
v    20.408903 140.414360 16.421928
v    23.186433 137.982033 16.421928
v    23.415244 142.181006 16.080836
v    23.692963 142.430234 16.689146
v    24.215750 142.880906 17.811417
v    24.539911 143.181600 18.253997
v    25.337447 143.872535 19.305883
v    25.925527 144.409007 19.758389
v    27.017823 145.162796 20.494445
v    27.026548 145.169174 20.496619
v    24.540978 141.195182 16.080836
v    24.751385 141.503357 16.689146
v    25.129140 142.081035 17.811417
v    25.384437 142.442036 18.253997
v    25.964105 143.323761 19.305883
v    26.418294 143.977483 19.758389
v    27.021377 145.159684 20.494445
v    27.026548 145.169174 20.496619
v    24.050900 140.990321 16.421928
v    20.866637 140.848115 16.421928
v    22.581923 138.161565 16.421928
v    20.948740 139.009679 35.676141
v    24.133003 139.151885 35.676141
v    22.417717 141.838435 35.676141
v    21.369643 138.073118 35.222862
v    20.760138 137.780159 36.325289
v    20.090199 137.474435 37.522636
v    19.346764 137.101898 38.354996
v    18.295111 136.618863 39.508639
v    17.075499 136.020363 40.280925
v    15.694295 135.561550 41.088122
v    15.355959 135.438849 41.160535
v    20.276261 139.785617 35.222862
v    19.754017 139.355987 36.325289
v    19.194762 138.876906 37.522636
v    18.543970 138.359268 38.354996
v    17.663237 137.608530 39.508639
v    16.607082 136.754018 40.280925
v    15.609643 135.694136 41.088122
v    15.355959 135.438849 41.160535
v    21.321037 139.150684 35.676141
v    23.824741 139.403802 35.676141
v    22.353682 141.445514 35.676141
v    23.678603 140.849316 53.193347
v    21.174899 140.596198 53.193347
v    22.645958 138.554486 53.193347
v    23.109053 141.971999 52.603538
v    24.735211 142.832541 55.596017
v    27.022508 144.050599 58.180213
v    27.617138 144.385032 58.568033
v    29.766476 145.235643 59.850049
v    24.563264 139.953671 52.603538
v    25.894311 141.223803 55.596017
v    27.773773 143.007903 58.180213
v    28.279237 143.466091 58.568033
v    29.766476 145.235643 59.850049
v    23.416781 140.597186 53.193347
v    21.524161 140.495519 53.193347
v    22.558518 138.907295 53.193347
v    21.582859 139.402814 80.187983
v    23.475479 139.504481 80.187983
v    22.441122 141.092705 80.187983
v    22.256770 137.914680 79.436517
v    21.770319 137.675431 80.320248
v    20.138347 136.912793 83.249186
v    19.608490 136.641263 83.845144
v    17.160658 135.490047 86.541670
v    16.010541 134.912695 87.273225
v    13.224125 133.959049 88.906620
v    20.494299 140.620900 79.436517
v    20.078785 140.272729 80.320248
v    18.721388 139.088491 83.249186
v    18.258798 138.713673 83.845144
v    16.216113 136.940366 86.541670
v    15.223017 136.121913 87.273225
v    13.224125 133.959049 88.906620
v    21.831301 139.629214 80.187983
v    23.155190 139.606439 80.187983
v    22.512969 140.764348 80.187983
v    23.168339 140.370786 104.507692
v    21.844450 140.393561 104.507692
v    22.486671 139.235652 104.507692
v    22.534210 142.150477 103.570217
v    24.681875 142.974319 107.310311
v    25.279492 143.172910 108.326630
v    28.857386 144.555456 112.150293
v    32.351949 145.464371 114.273141
v    24.342311 138.890514 103.570217
v    26.178360 140.276192 107.310311
v    26.663261 140.678008 108.326630
v    29.730561 142.981142 112.150293
v    32.351949 145.464371 114.273141
v    22.947670 140.119131 104.507692
v    22.172724 140.328284 104.507692
v    22.379065 139.552585 104.507692
v    22.051970 139.880869 110.520000
v    22.826916 139.671716 110.520000
v    22.620575 140.447415 110.520000
v    21.255086 138.126985 108.513862
v    20.808499 138.412336 112.497550
v    20.407854 138.941944 115.289237
v    19.601539 139.229040 117.383535
v    20.488981 141.007013 108.513862
v    20.243196 140.537486 112.497550
v    20.158642 139.878812 115.289237
v    19.601539 139.229040 117.383535
mtllib usm_26_2.5D_2018-07-27_3.mtl
usemtl APPID_206913440_2461221029408 
o vid_3 
f 3 2 1
f 4 5 6
f 1 6 5
f 1 5 3
f 3 5 4
f 4 2 3
f 2 4 6
f 6 1 2
usemtl APPID_206914784_2461221028896 
o vid_4 
f 7 16 17
f 8 17 18
f 9 18 19
f 10 19 20
f 11 20 21
f 12 21 22
f 13 22 23
f 7 17 8
f 8 18 9
f 9 19 10
f 10 20 11
f 11 21 12
f 12 22 13
f 13 23 14
f 14 23 24
usemtl APPID_206913440_2461221029408 
o vid_5 
f 27 26 25
f 28 29 30
f 25 30 29
f 25 29 27
f 27 29 28
f 28 26 27
f 26 28 30
f 30 25 26
usemtl APPID_206914784_2461221028896 
o vid_6 
f 31 40 41
f 32 41 42
f 33 42 43
f 34 43 44
f 35 44 45
f 36 45 46
f 37 46 47
f 31 41 32
f 32 42 33
f 33 43 34
f 34 44 35
f 35 45 36
f 36 46 37
f 37 47 38
f 38 47 48
usemtl APPID_206913440_2461221029408 
o vid_7 
f 51 50 49
f 52 53 54
f 49 54 53
f 49 53 51
f 51 53 52
f 52 50 51
f 50 52 54
f 54 49 50
usemtl APPID_206914784_2461221028896 
o vid_8 
f 55 63 64
f 56 64 65
f 57 65 66
f 58 66 67
f 59 67 68
f 60 68 69
f 55 64 56
f 56 65 57
f 57 66 58
f 58 67 59
f 59 68 60
f 60 69 61
f 61 69 70
usemtl APPID_206913440_2461221029408 
o vid_9 
f 73 72 71
f 74 75 76
f 71 76 75
f 71 75 73
f 73 75 74
f 74 72 73
f 72 74 76
f 76 71 72
usemtl APPID_206914784_2461221028896 
o vid_10 
f 77 84 85
f 78 85 86
f 79 86 87
f 80 87 88
f 81 88 89
f 77 85 78
f 78 86 79
f 79 87 80
f 80 88 81
f 81 89 82
f 82 89 90
usemtl APPID_206913440_2461221029408 
o vid_11 
f 93 92 91
f 94 95 96
f 91 96 95
f 91 95 93
f 93 95 94
f 94 92 93
f 92 94 96
f 96 91 92
usemtl APPID_206914784_2461221028896 
o vid_12 
f 97 105 106
f 98 106 107
f 99 107 108
f 100 108 109
f 101 109 110
f 102 110 111
f 97 106 98
f 98 107 99
f 99 108 100
f 100 109 101
f 101 110 102
f 102 111 103
f 103 111 112
usemtl APPID_206913440_2461221029408 
o vid_13 
f 115 114 113
f 116 117 118
f 113 118 117
f 113 117 115
f 115 117 116
f 116 114 115
f 114 116 118
f 118 113 114
usemtl APPID_206914784_2461221028896 
o vid_14 
f 119 127 128
f 120 128 129
f 121 129 130
f 122 130 131
f 123 131 132
f 124 132 133
f 119 128 120
f 120 129 121
f 121 130 122
f 122 131 123
f 123 132 124
f 124 133 125
f 125 133 134
usemtl APPID_206913440_2461221029408 
o vid_15 
f 137 136 135
f 138 139 140
f 135 140 139
f 135 139 137
f 137 139 138
f 138 136 137
f 136 138 140
f 140 135 136
usemtl APPID_206914784_2461221028896 
o vid_16 
f 141 146 147
f 142 147 148
f 143 148 149
f 141 147 142
f 142 148 143
f 143 149 144
f 144 149 150
usemtl APPID_206913440_2461221029408 
o vid_17 
f 153 152 151
f 154 155 156
f 151 156 155
f 151 155 153
f 153 155 154
f 154 152 153
f 152 154 156
f 156 151 152
usemtl APPID_206914784_2461221028896 
o vid_18 
f 157 164 165
f 158 165 166
f 159 166 167
f 160 167 168
f 161 168 169
f 157 165 158
f 158 166 159
f 159 167 160
f 160 168 161
f 161 169 162
f 162 169 170
usemtl APPID_206913440_2461221029408 
o vid_19 
f 173 172 171
f 174 175 176
f 171 176 175
f 171 175 173
f 173 175 174
f 174 172 173
f 172 174 176
f 176 171 172
usemtl APPID_206914784_2461221028896 
o vid_20 
f 177 182 183
f 178 183 184
f 179 184 185
f 177 183 178
f 178 184 179
f 179 185 180
f 180 185 186
usemtl APPID_206913440_2461221029408 
o vid_21 
f 189 188 187
f 190 191 192
f 187 192 191
f 187 191 189
f 189 191 190
f 190 188 189
f 188 190 192
f 192 187 188
usemtl APPID_206914784_2461221028896 
o vid_22 
f 193 197 198
f 194 198 199
f 193 198 194
f 194 199 195
f 195 199 200
