# File generated by PlantGL - Wed Jul 15 17:34:54 2026
v    15.077004 39.124129 0.000000
v    18.532550 38.880811 0.000000
v    17.015497 41.995060 0.000000
v    18.673030 40.875871 3.803278
v    15.217484 41.119189 3.803278
v    16.734537 38.004940 3.803278
v    18.259796 41.529201 3.526487
v    19.207373 41.893151 4.417840
v    19.908369 42.171591 4.855619
v    20.644613 42.452422 5.312451
v    21.853626 42.926520 5.659809
v    23.225201 43.428736 5.716619
v    23.528165 43.526836 5.714190
v    23.891596 43.642140 5.602534
v    24.573736 43.750298 5.406995
v    18.932743 40.147757 3.526487
v    19.803433 40.669543 4.417840
v    20.454792 41.049879 4.855619
v    21.129761 41.456497 5.312451
v    22.248338 42.116244 5.659809
v    23.489263 42.886663 5.716619
v    23.753262 43.064750 5.714190
v    24.068082 43.279843 5.602534
v    24.573736 43.750298 5.406995
v    18.370913 41.198293 3.803278
v    15.089317 40.696338 3.803278
v    17.164821 38.105369 3.803278
v    15.379121 38.801707 8.833401
v    18.660717 39.303662 8.833401
v    16.585213 41.894631 8.833401
v    16.207422 37.974842 8.413564
v    14.927027 37.119781 9.765569
v    14.006974 36.490099 10.412657
v    12.987155 35.812454 11.122518
v    11.383753 34.725386 11.640664
v    9.523121 33.524818 11.735819
v    9.078398 33.261115 11.731876
v    8.607373 32.985574 11.572072
v    7.634247 32.597651 11.275478
v    14.752975 39.790510 8.413564
v    13.639070 38.727610 9.765569
v    12.823759 37.967173 10.412657
v    11.939867 37.119843 11.122518
v    10.529050 35.792361 11.640664
v    8.951325 34.238622 11.735819
v    8.596916 33.862177 11.731876
v    8.225212 33.462648 11.572072
v    7.634247 32.597651 11.275478
v    15.166138 39.336039 8.833401
v    18.304463 38.852048 8.833401
v    17.154449 41.811913 8.833401
v    18.583896 40.663961 19.758525
v    15.445571 41.147952 19.758525
v    16.595584 38.188087 19.758525
v    17.770839 42.233465 19.144372
v    19.932886 42.864536 21.122136
v    22.204387 43.555709 22.500198
v    23.210019 43.846719 23.107130
v    26.495660 44.830751 24.024530
v    29.766019 45.738192 23.998522
v    31.353176 46.104936 23.521308
v    32.881384 46.219048 23.087440
v    19.043773 38.957233 19.144372
v    21.064739 39.951413 21.122136
v    23.207025 40.975154 22.500198
v    24.145335 41.439435 23.107130
v    27.233455 42.931838 24.024530
v    30.258592 44.470424 23.998522
v    31.677013 45.271454 23.521308
v    32.881384 46.219048 23.087440
v    18.468972 40.377059 19.758525
v    15.751496 41.191876 19.758525
v    16.404582 38.431064 19.758525
v    15.281061 39.622941 37.026288
v    17.998538 38.808124 37.026288
v    17.345452 41.568936 37.026288
v    16.097104 37.334304 36.159846
v    12.953293 36.872990 38.950059
v    10.490422 36.482907 40.397329
v    8.180350 36.149385 41.750473
v    4.016120 35.508542 42.877419
v    -0.522617 34.914701 43.014467
v    -2.698229 34.721675 42.615144
v    -4.855821 34.859445 42.003046
v    14.985214 42.034633 36.159846
v    11.967917 41.038501 38.950059
v    9.591305 40.283776 40.397329
v    7.376638 39.546945 41.750473
v    3.366636 38.254125 42.877419
v    -0.957121 36.751493 43.014467
v    -2.988631 35.949300 42.615144
v    -4.855821 34.859445 42.003046
v    16.018873 39.022349 37.026288
v    18.149759 39.747383 37.026288
v    16.456419 41.230268 37.026288
v    17.731161 40.977651 60.207278
v    15.600274 40.252617 60.207278
v    17.293615 38.769732 60.207278
v    14.780029 43.078619 59.028398
v    17.889779 46.080495 62.824758
v    22.573611 50.680376 66.634997
v    27.278358 55.283885 68.395967
v    30.286084 58.227792 68.363649
v    31.967597 59.793854 68.346044
v    34.758815 62.370971 67.227870
v    36.986077 64.267935 66.371126
v    38.476299 65.192930 65.874547
v    39.419786 65.744389 65.300736
v    20.203135 38.329520 59.028398
v    22.768467 41.808151 62.824758
v    26.710151 47.057943 66.634997
v    30.652670 52.328946 68.395967
v    33.174001 55.698797 68.363649
v    34.504514 57.572236 68.346044
v    36.690828 60.679076 67.227870
v    38.277344 63.137152 66.371126
v    38.997633 64.736390 65.874547
v    39.419786 65.744389 65.300736
v    17.707050 40.531230 60.207278
v    15.998942 40.454947 60.207278
v    16.919058 39.013823 60.207278
v    16.042984 39.468770 120.734586
v    17.751092 39.545053 120.734586
v    16.830975 40.986177 120.734586
v    19.042433 35.657641 119.187670
v    17.111355 34.579956 121.133472
v    14.047555 32.978518 124.169220
v    6.459137 28.901435 129.168981
v    3.033979 27.026230 130.214390
v    -1.143001 24.805589 131.479710
v    -7.937612 21.169698 131.420535
v    -15.017124 17.638712 129.328981
v    -18.519059 16.065811 128.204770
v    -21.972672 15.196859 126.363595
v    13.847930 43.793483 119.187670
v    12.057689 42.495213 121.133472
v    9.315665 40.389797 124.169220
v    2.423851 35.221665 129.168981
v    -0.718585 32.903649 130.214390
v    -4.490758 30.048983 131.479710
v    -10.648303 25.415292 131.420535
v    -16.830573 20.479009 129.328981
v    -19.731083 17.964132 128.204770
v    -21.972672 15.196859 126.363595
v    16.306406 39.590314 120.734586
v    17.514121 39.712411 120.734586
v    16.804524 40.697275 120.734586
v    17.443628 40.409686 163.699947
v    16.235913 40.287589 163.699947
v    16.945510 39.302725 163.699947
v    13.457844 44.908611 161.742317
v    19.613397 48.600211 168.046496
v    28.912030 54.290362 174.373724
v    38.246657 59.977447 177.297964
v    44.115683 63.555365 177.245183
v    47.522087 65.517775 177.215063
v    52.905771 68.588339 175.390849
v    57.218851 70.824323 173.968154
v    60.084926 71.800587 173.110932
v    61.716479 72.308379 172.213720
v    20.449508 35.204737 161.742317
v    25.899804 39.875178 168.046496
v    34.240815 46.894432 174.373724
v    42.590312 53.948800 177.297964
v    47.842072 58.383434 177.245183
v    50.781859 60.993470 177.215063
v    55.398720 65.128323 175.390849
v    58.885021 68.511811 173.968154
v    60.718334 70.921467 173.110932
v    61.716479 72.308379 172.213720
v    17.244171 40.240418 163.699947
v    16.482232 40.199488 163.699947
v    16.898648 39.560094 163.699947
v    16.505863 39.759582 176.342000
v    17.267802 39.800512 176.342000
v    16.851386 40.439906 176.342000
v    19.251267 35.810940 171.523350
v    15.784468 34.622857 182.603603
v    9.839977 32.312657 193.876838
v    8.649531 31.952396 196.033512
v    6.236231 30.995638 198.654115
v    1.815666 30.192346 202.920849
v    14.004513 43.867169 171.523350
v    11.516093 41.176816 182.603603
v    6.999528 36.674079 193.876838
v    6.188677 35.730961 196.033512
v    4.337808 33.910608 198.654115
v    1.815666 30.192346 202.920849
mtllib usm_4_Beer_2018-08-21_0.mtl
usemtl APPID_2966776336_2348011673456 
o vid_3 
f 3 2 1
f 4 5 6
f 1 6 5
f 1 5 3
f 3 5 4
f 4 2 3
f 2 4 6
f 6 1 2
usemtl APPID_2966779024_2348011673072 
o vid_4 
f 7 16 17
f 8 17 18
f 9 18 19
f 10 19 20
f 11 20 21
f 12 21 22
f 13 22 23
f 7 17 8
f 8 18 9
f 9 19 10
f 10 20 11
f 11 21 12
f 12 22 13
f 13 23 14
f 14 23 24
usemtl APPID_2966776336_2348011673456 
o vid_5 
f 27 26 25
f 28 29 30
f 25 30 29
f 25 29 27
f 27 29 28
f 28 26 27
f 26 28 30
f 30 25 26
usemtl APPID_2966779024_2348011673072 
o vid_6 
f 31 40 41
f 32 41 42
f 33 42 43
f 34 43 44
f 35 44 45
f 36 45 46
f 37 46 47
f 31 41 32
f 32 42 33
f 33 43 34
f 34 44 35
f 35 45 36
f 36 46 37
f 37 47 38
f 38 47 48
usemtl APPID_2966776336_2348011673456 
o vid_7 
f 51 50 49
f 52 53 54
f 49 54 53
f 49 53 51
f 51 53 52
f 52 50 51
f 50 52 54
f 54 49 50
usemtl APPID_2966779024_2348011673072 
o vid_8 
f 55 63 64
f 56 64 65
f 57 65 66
f 58 66 67
f 59 67 68
f 60 68 69
f 55 64 56
f 56 65 57
f 57 66 58
f 58 67 59
f 59 68 60
f 60 69 61
f 61 69 70
usemtl APPID_2966776336_2348011673456 
o vid_9 
f 73 72 71
f 74 75 76
f 71 76 75
f 71 75 73
f 73 75 74
f 74 72 73
f 72 74 76
f 76 71 72
usemtl APPID_2966779024_2348011673072 
o vid_10 
f 77 85 86
f 78 86 87
f 79 87 88
f 80 88 89
f 81 89 90
f 82 90 91
f 77 86 78
f 78 87 79
f 79 88 80
f 80 89 81
f 81 90 82
f 82 91 83
f 83 91 92
usemtl APPID_2966776336_2348011673456 
o vid_11 
f 95 94 93
f 96 97 98
f 93 98 97
f 93 97 95
f 95 97 96
f 96 94 95
f 94 96 98
f 98 93 94
usemtl APPID_2966779024_2348011673072 
o vid_12 
f 99 109 110
f 100 110 111
f 101 111 112
f 102 112 113
f 103 113 114
f 104 114 115
f 105 115 116
f 106 116 117
f 99 110 100
f 100 111 101
f 101 112 102
f 102 113 103
f 103 114 104
f 104 115 105
f 105 116 106
f 106 117 107
f 107 117 118
usemtl APPID_2966776336_2348011673456 
o vid_13 
f 121 120 119
f 122 123 124
f 119 124 123
f 119 123 121
f 121 123 122
f 122 120 121
f 120 122 124
f 124 119 120
usemtl APPID_2966779024_2348011673072 
o vid_14 
f 125 135 136
f 126 136 137
f 127 137 138
f 128 138 139
f 129 139 140
f 130 140 141
f 131 141 142
f 132 142 143
f 125 136 126
f 126 137 127
f 127 138 128
f 128 139 129
f 129 140 130
f 130 141 131
f 131 142 132
f 132 143 133
f 133 143 144
usemtl APPID_2966776336_2348011673456 
o vid_15 
f 147 146 145
f 148 149 150
f 145 150 149
f 145 149 147
f 147 149 148
f 148 146 147
f 146 148 150
f 150 145 146
usemtl APPID_2966779024_2348011673072 
o vid_16 
f 151 161 162
f 152 162 163
f 153 163 164
f 154 164 165
f 155 165 166
f 156 166 167
f 157 167 168
f 158 168 169
f 151 162 152
f 152 163 153
f 153 164 154
f 154 165 155
f 155 166 156
f 156 167 157
f 157 168 158
f 158 169 159
f 159 169 170
usemtl APPID_2966776336_2348011673456 
o vid_17 
f 173 172 171
f 174 175 176
f 171 176 175
f 171 175 173
f 173 175 174
f 174 172 173
f 172 174 176
f 176 171 172
usemtl APPID_2966779024_2348011673072 
o vid_18 
f 177 183 184
f 178 184 185
f 179 185 186
f 180 186 187
f 177 184 178
f 178 185 179
f 179 186 180
f 180 187 181
f 181 187 188
