# File generated by PlantGL - Wed Jul 15 17:35:49 2026
v    20.618399 179.083498 0.000000
v    24.234244 178.828893 0.000000
v    22.646817 182.087609 0.000000
v    24.381241 180.916502 2.682187
v    20.765396 181.171107 2.682187
v    22.352823 177.912391 2.682187
v    24.303514 181.142652 2.593613
v    24.487215 181.204662 2.909384
v    24.564675 181.231464 3.043005
v    24.776797 181.312380 3.270582
v    24.927443 181.367302 3.431083
v    25.152474 181.454322 3.568612
v    25.436125 181.555068 3.739725
v    25.691965 181.649597 3.795685
v    26.070599 181.739443 3.873983
v    24.511402 180.715894 2.593613
v    24.673467 180.822318 2.909384
v    24.742320 180.866790 3.043005
v    24.936792 180.983939 3.270582
v    25.072900 181.068704 3.431083
v    25.280136 181.192255 3.568612
v    25.534313 181.353504 3.739725
v    25.766453 181.496685 3.795685
v    26.070599 181.739443 3.873983
v    23.779351 181.024973 2.682187
v    20.972402 180.595620 2.682187
v    22.747707 178.379407 2.682187
v    21.220289 178.975027 4.602934
v    24.027238 179.404380 4.602934
v    22.251933 181.620593 4.602934
v    21.402341 178.680322 4.474877
v    21.158513 178.531623 4.940009
v    21.062292 178.471938 5.124596
v    20.782976 178.286332 5.460763
v    20.594015 178.164764 5.685670
v    20.297090 177.965495 5.889504
v    19.936585 177.737786 6.131896
v    19.597573 177.517605 6.214834
v    19.092210 177.270323 6.328035
v    20.972423 179.217013 4.474877
v    20.774092 179.011518 4.940009
v    20.694844 178.930643 5.124596
v    20.452749 178.698572 5.460763
v    20.292870 178.540700 5.685670
v    20.033599 178.294426 5.889504
v    19.732696 177.992312 6.131896
v    19.443830 177.709530 6.214834
v    19.092210 177.270323 6.328035
v    21.367403 179.560015 4.602934
v    23.447067 179.239290 4.602934
v    22.684991 181.200694 4.602934
v    23.632237 180.439985 7.454389
v    21.552573 180.760710 7.454389
v    22.314649 178.799306 7.454389
v    23.533136 180.859855 7.273106
v    23.964580 180.970207 7.999085
v    24.080613 180.997434 8.192872
v    24.629572 181.147523 8.762532
v    24.848812 181.199534 8.987149
v    25.655947 181.413006 9.461753
v    25.937048 181.447777 9.618844
v    26.410590 181.519474 9.715208
v    23.842608 180.063347 7.273106
v    24.235380 180.273232 7.999085
v    24.339357 180.331487 8.192872
v    24.845646 180.591399 8.762532
v    25.042490 180.701052 8.987149
v    25.782023 181.088517 9.461753
v    26.012861 181.252652 9.618844
v    26.410590 181.519474 9.715208
v    23.296940 180.188563 7.454389
v    21.937960 180.596044 7.454389
v    22.264561 179.215392 7.454389
v    21.702700 179.811437 9.328000
v    23.061680 179.403956 9.328000
v    22.735079 180.784608 9.328000
v    21.606893 179.329831 8.841650
v    21.432869 179.322695 9.259455
v    21.025645 179.330848 10.223154
v    20.598773 179.302367 10.809642
v    20.085408 179.367908 11.483033
v    19.866835 179.377152 11.652676
v    21.401269 180.199073 8.841650
v    21.242492 180.127483 9.259455
v    20.882081 179.937742 10.223154
v    20.487691 179.771948 10.809642
v    20.058101 179.483346 11.483033
v    19.866835 179.377152 11.652676
mtllib usm_24_2.5D_2018-07-13_4.mtl
usemtl APPID_736440592_2612074952928 
o vid_3 
f 3 2 1
f 4 5 6
f 1 6 5
f 1 5 3
f 3 5 4
f 4 2 3
f 2 4 6
f 6 1 2
usemtl APPID_736445744_2612074957664 
o vid_4 
f 7 16 17
f 8 17 18
f 9 18 19
f 10 19 20
f 11 20 21
f 12 21 22
f 13 22 23
f 7 17 8
f 8 18 9
f 9 19 10
f 10 20 11
f 11 21 12
f 12 22 13
f 13 23 14
f 14 23 24
usemtl APPID_736440592_2612074952928 
o vid_5 
f 27 26 25
f 28 29 30
f 25 30 29
f 25 29 27
f 27 29 28
f 28 26 27
f 26 28 30
f 30 25 26
usemtl APPID_736445744_2612074957664 
o vid_6 
f 31 40 41
f 32 41 42
f 33 42 43
f 34 43 44
f 35 44 45
f 36 45 46
f 37 46 47
f 31 41 32
f 32 42 33
f 33 43 34
f 34 44 35
f 35 45 36
f 36 46 37
f 37 47 38
f 38 47 48
usemtl APPID_736440592_2612074952928 
o vid_7 
f 51 50 49
f 52 53 54
f 49 54 53
f 49 53 51
f 51 53 52
f 52 50 51
f 50 52 54
f 54 49 50
usemtl APPID_736445744_2612074957664 
o vid_8 
f 55 63 64
f 56 64 65
f 57 65 66
f 58 66 67
f 59 67 68
f 60 68 69
f 55 64 56
f 56 65 57
f 57 66 58
f 58 67 59
f 59 68 60
f 60 69 61
f 61 69 70
usemtl APPID_736440592_2612074952928 
o vid_9 
f 73 72 71
f 74 75 76
f 71 76 75
f 71 75 73
f 73 75 74
f 74 72 73
f 72 74 76
f 76 71 72
usemtl APPID_736445744_2612074957664 
o vid_10 
f 77 83 84
f 78 84 85
f 79 85 86
f 80 86 87
f 77 84 78
f 78 85 79
f 79 86 80
f 80 87 81
f 81 87 88
