# File generated by PlantGL - Wed Jul 15 17:36:26 2026
v    21.262558 19.397289 0.000000
v    23.640414 19.229855 0.000000
v    22.596488 21.372855 0.000000
v    23.737082 20.602711 3.802806
v    21.359226 20.770145 3.802806
v    22.403152 18.627145 3.802806
v    23.333055 21.246208 3.538888
v    24.236563 21.593232 4.388787
v    25.187725 21.971040 4.982798
v    25.605130 22.130254 5.241793
v    26.977295 22.668330 5.636025
v    28.345594 23.173144 5.624849
v    29.015566 23.387744 5.418750
v    29.665982 23.490872 5.232305
v    23.994728 19.887907 3.538888
v    24.824925 20.385427 4.388787
v    25.708736 20.901495 4.982798
v    26.091402 21.132022 5.241793
v    27.360927 21.880799 5.636025
v    28.601878 22.647037 5.624849
v    29.183844 23.042296 5.418750
v    29.665982 23.490872 5.232305
v    23.295453 20.637345 3.802806
v    21.550047 20.370366 3.802806
v    22.653960 18.992289 3.802806
v    21.704187 19.362655 8.831485
v    23.449593 19.629634 8.831485
v    22.345680 21.007711 8.831485
v    22.511217 18.550512 8.435627
v    21.303952 17.744287 9.710414
v    19.979024 16.837510 10.642256
v    19.479638 16.505681 10.989861
v    17.649805 15.265098 11.581180
v    15.815909 14.072871 11.564416
v    14.840593 13.495315 11.232224
v    13.923047 13.129548 10.952569
v    21.087766 20.327487 8.435627
v    20.037481 19.325294 9.710414
v    18.863387 18.230222 10.642256
v    18.430563 17.815301 10.989861
v    16.820511 16.300353 11.581180
v    15.256763 14.770885 11.564416
v    14.480259 13.945141 11.232224
v    13.923047 13.129548 10.952569
v    21.857918 19.750598 8.831485
v    23.036759 19.568798 8.831485
v    22.604783 20.680604 8.831485
v    23.141722 20.249402 12.935000
v    21.962881 20.431202 12.935000
v    22.394857 19.319396 12.935000
v    22.430721 21.441731 11.764412
v    23.116011 21.625421 12.712789
v    24.056277 21.857718 14.004418
v    26.245980 22.456711 16.049682
v    26.709031 22.566969 16.476805
v    28.783206 23.111118 17.561793
v    29.588199 23.285702 17.976129
v    30.123136 23.409592 18.086973
v    31.577281 23.526919 18.372079
v    23.422233 18.889812 11.764412
v    24.051776 19.216982 12.712789
v    24.902227 19.680443 14.004418
v    26.921936 20.716958 16.049682
v    27.337961 20.948252 16.476805
v    29.235420 21.947225 17.561793
v    29.947118 22.361930 17.976129
v    30.425374 22.631701 18.086973
v    31.577281 23.526919 18.372079
mtllib usm_10_2.5D_2018-07-23_0.mtl
usemtl APPID_1708061152_2419758903520 
o vid_3 
f 3 2 1
f 4 5 6
f 1 6 5
f 1 5 3
f 3 5 4
f 4 2 3
f 2 4 6
f 6 1 2
usemtl APPID_1708064512_2419758905440 
o vid_4 
f 7 15 16
f 8 16 17
f 9 17 18
f 10 18 19
f 11 19 20
f 12 20 21
f 7 16 8
f 8 17 9
f 9 18 10
f 10 19 11
f 11 20 12
f 12 21 13
f 13 21 22
usemtl APPID_1708061152_2419758903520 
o vid_5 
f 25 24 23
f 26 27 28
f 23 28 27
f 23 27 25
f 25 27 26
f 26 24 25
f 24 26 28
f 28 23 24
usemtl APPID_1708064512_2419758905440 
o vid_6 
f 29 37 38
f 30 38 39
f 31 39 40
f 32 40 41
f 33 41 42
f 34 42 43
f 29 38 30
f 30 39 31
f 31 40 32
f 32 41 33
f 33 42 34
f 34 43 35
f 35 43 44
usemtl APPID_1708061152_2419758903520 
o vid_7 
f 47 46 45
f 48 49 50
f 45 50 49
f 45 49 47
f 47 49 48
f 48 46 47
f 46 48 50
f 50 45 46
usemtl APPID_1708064512_2419758905440 
o vid_8 
f 51 60 61
f 52 61 62
f 53 62 63
f 54 63 64
f 55 64 65
f 56 65 66
f 57 66 67
f 51 61 52
f 52 62 53
f 53 63 54
f 54 64 55
f 55 65 56
f 56 66 57
f 57 67 58
f 58 67 68
