# File generated by PlantGL - Wed Jul 15 17:36:20 2026
v    20.701807 59.124129 0.000000
v    24.157353 58.880811 0.000000
v    22.640300 61.995060 0.000000
v    24.297833 60.875871 3.802806
v    20.842287 61.119189 3.802806
v    22.359340 58.004940 3.802806
v    23.908410 61.502312 3.557235
v    24.749108 61.825212 4.348051
v    26.014973 62.328021 5.138596
v    27.296843 62.830635 5.508584
v    27.831408 63.041928 5.504170
v    28.564842 63.310986 5.498184
v    29.036028 63.481530 5.350693
v    29.616923 63.665828 5.172226
v    30.222124 63.761787 4.998742
v    24.551051 60.183081 3.557235
v    25.323534 60.646014 4.348051
v    26.499764 61.332829 5.138596
v    27.685705 62.032367 5.508584
v    28.181600 62.323044 5.504170
v    28.845567 62.734706 5.498184
v    29.270306 63.000597 5.350693
v    29.773504 63.344396 5.172226
v    30.222124 63.761787 4.998742
v    23.995716 61.198293 3.802806
v    20.714120 60.696338 3.802806
v    22.789624 58.105369 3.802806
v    21.003924 58.801707 8.831485
v    24.285520 59.303662 8.831485
v    22.210016 61.894631 8.831485
v    21.790568 58.004137 8.457670
v    20.650529 57.242806 9.661471
v    18.968026 56.091306 10.844800
v    17.204355 54.896062 11.428064
v    16.514495 54.425623 11.421652
v    15.482009 53.758451 11.412234
v    14.871938 53.367967 11.199037
v    14.071194 52.899546 10.927369
v    13.204741 52.554146 10.663288
v    20.397275 59.743464 8.457670
v    19.405475 58.797078 9.661471
v    17.914514 57.406465 10.844800
v    16.363148 55.946188 11.428064
v    15.753483 55.375637 11.421652
v    14.877046 54.513660 11.412234
v    14.362822 54.003525 11.199037
v    13.730925 53.324323 10.927369
v    13.204741 52.554146 10.663288
v    20.790941 59.336039 8.831485
v    23.929266 58.852048 8.831485
v    22.779253 61.811913 8.831485
v    24.208699 60.663961 19.751816
v    21.070374 61.147952 19.751816
v    22.220387 58.188087 19.751816
v    23.442396 62.168955 19.203200
v    25.371188 62.739215 20.969913
v    28.293961 63.628558 22.743084
v    28.964963 63.838525 22.931313
v    31.225850 64.515648 23.562587
v    33.165733 65.102357 23.547024
v    34.130881 65.368313 23.539354
v    35.900484 65.847718 22.999726
v    37.227806 66.150818 22.601023
v    37.973929 66.206531 22.389193
v    38.544451 66.233914 22.089285
v    24.659511 59.036387 19.203200
v    26.467353 59.917943 20.969913
v    29.223864 61.235206 22.743084
v    29.860608 61.533346 22.931313
v    31.985579 62.560285 23.562587
v    33.812708 63.437195 23.547024
v    34.704239 63.892625 23.539354
v    36.333309 64.733727 22.999726
v    37.517086 65.406279 22.601023
v    38.105101 65.868926 22.389193
v    38.544451 66.233914 22.089285
v    24.183385 60.398257 19.751816
v    21.313137 61.258882 19.751816
v    22.002938 58.342861 19.751816
v    20.816255 59.601743 37.004114
v    23.686503 58.741118 37.004114
v    22.996702 61.657139 37.004114
v    21.583292 57.399432 36.227846
v    18.766669 56.986129 38.727670
v    14.508719 56.311732 41.229792
v    10.212290 55.650657 42.396196
v    8.410964 55.368455 42.382195
v    5.968720 55.047702 42.363323
v    4.391319 54.847471 41.895315
v    2.472022 54.681604 41.331167
v    0.538979 54.805036 40.782772
v    20.515273 61.914302 36.227846
v    17.811998 61.021841 38.727670
v    13.703176 59.717029 41.229792
v    9.565922 58.383068 42.396196
v    7.829075 57.828295 42.382195
v    5.501965 57.020830 42.363323
v    4.002036 56.493100 41.895315
v    2.211843 55.781466 41.331167
v    0.538979 54.805036 40.782772
v    21.585899 58.956373 37.004114
v    23.860588 59.730335 37.004114
v    22.052973 61.313292 37.004114
v    23.413741 61.043627 60.160151
v    21.139052 60.269665 60.160151
v    22.946667 58.686708 60.160151
v    20.640398 63.038066 59.101172
v    22.479242 64.902671 61.405399
v    27.584491 69.916436 65.934127
v    30.962010 73.286136 67.211412
v    35.951618 78.165559 67.471148
v    37.057917 79.241300 67.015868
v    41.020146 82.899604 65.428582
v    45.004636 85.698764 62.963973
v    25.756658 58.557676 59.101172
v    27.362346 60.626460 61.405399
v    31.658693 66.348593 65.934127
v    34.553304 70.141182 67.211412
v    38.731742 75.730960 67.471148
v    39.652113 76.969521 67.015868
v    42.755659 81.379787 65.428582
v    45.004636 85.698764 62.963973
v    23.402074 60.576064 60.160151
v    21.549807 60.493343 60.160151
v    22.547579 58.930593 60.160151
v    21.597566 59.423936 120.593921
v    23.449833 59.506657 120.593921
v    22.452061 61.069407 120.593921
v    24.386039 55.854916 119.201099
v    20.303293 53.576441 123.314974
v    13.096986 49.707846 128.188140
v    6.897319 46.313652 130.080369
v    -0.496946 42.359039 130.209706
v    -2.985485 41.037872 129.378417
v    -9.334136 37.874995 127.290740
v    -12.234976 36.619833 125.564077
v    -15.337006 35.842266 123.884904
v    19.533360 63.455380 119.201099
v    15.748377 60.710536 123.314974
v    9.206489 55.801301 128.188140
v    3.518559 51.605603 130.080369
v    -3.180454 46.562060 130.209706
v    -5.426155 44.860549 129.378417
v    -10.966942 40.432360 127.290740
v    -13.326266 38.329056 125.564077
v    -15.337006 35.842266 123.884904
v    21.867171 59.544175 120.593921
v    23.210901 59.680022 120.593921
v    22.421388 60.775803 120.593921
v    23.132469 60.455825 169.826639
v    21.788739 60.319978 169.826639
v    22.578252 59.224197 169.826639
v    19.437373 64.652322 168.060455
v    22.345688 66.496609 171.090576
v    24.944922 68.046782 173.748119
v    33.334197 73.180466 179.456577
v    38.123306 76.163232 180.967050
v    41.729394 78.348238 182.094842
v    50.046144 83.418356 182.020048
v    58.092477 88.015675 179.292214
v    61.048115 89.547934 178.317279
v    64.875613 90.902696 176.159568
v    65.781707 91.184701 175.661296
v    25.943489 55.622350 168.060455
v    28.613559 57.797302 171.090576
v    30.906800 59.772169 173.748119
v    38.432104 66.104976 179.456577
v    42.777471 69.703622 180.967050
v    45.991618 72.432611 182.094842
v    53.433666 78.716745 182.020048
v    60.341629 84.894030 179.292214
v    62.730697 87.212644 178.317279
v    65.227380 90.414470 176.159568
v    65.781707 91.184701 175.661296
v    22.931438 60.281099 169.826639
v    22.040572 60.233243 169.826639
v    22.527449 59.485658 169.826639
v    22.068202 59.718901 189.893000
v    22.959068 59.766757 189.893000
v    22.472191 60.514342 189.893000
v    25.462865 55.847261 185.474994
v    23.719683 54.986503 188.433315
v    20.228037 53.354527 194.281853
v    13.603736 50.010862 201.834957
v    11.477349 49.029915 204.207870
v    5.188375 45.918905 208.312124
v    1.705332 44.384430 210.524598
v    -4.538568 42.390799 212.222616
v    19.899806 64.389168 185.474994
v    18.407699 63.142891 188.433315
v    15.503245 60.609300 194.281853
v    9.766588 55.902685 201.834957
v    8.009608 54.354524 204.207870
v    2.621327 49.860527 208.312124
v    -0.190473 47.295380 210.524598
v    -4.538568 42.390799 212.222616
mtllib usm_14_2.5D_2018-08-23_1.mtl
usemtl APPID_2212502160_2892720503328 
o vid_3 
f 3 2 1
f 4 5 6
f 1 6 5
f 1 5 3
f 3 5 4
f 4 2 3
f 2 4 6
f 6 1 2
usemtl APPID_2212502496_2892720503072 
o vid_4 
f 7 16 17
f 8 17 18
f 9 18 19
f 10 19 20
f 11 20 21
f 12 21 22
f 13 22 23
f 7 17 8
f 8 18 9
f 9 19 10
f 10 20 11
f 11 21 12
f 12 22 13
f 13 23 14
f 14 23 24
usemtl APPID_2212502160_2892720503328 
o vid_5 
f 27 26 25
f 28 29 30
f 25 30 29
f 25 29 27
f 27 29 28
f 28 26 27
f 26 28 30
f 30 25 26
usemtl APPID_2212502496_2892720503072 
o vid_6 
f 31 40 41
f 32 41 42
f 33 42 43
f 34 43 44
f 35 44 45
f 36 45 46
f 37 46 47
f 31 41 32
f 32 42 33
f 33 43 34
f 34 44 35
f 35 45 36
f 36 46 37
f 37 47 38
f 38 47 48
usemtl APPID_2212502160_2892720503328 
o vid_7 
f 51 50 49
f 52 53 54
f 49 54 53
f 49 53 51
f 51 53 52
f 52 50 51
f 50 52 54
f 54 49 50
usemtl APPID_2212502496_2892720503072 
o vid_8 
f 55 66 67
f 56 67 68
f 57 68 69
f 58 69 70
f 59 70 71
f 60 71 72
f 61 72 73
f 62 73 74
f 63 74 75
f 55 67 56
f 56 68 57
f 57 69 58
f 58 70 59
f 59 71 60
f 60 72 61
f 61 73 62
f 62 74 63
f 63 75 64
f 64 75 76
usemtl APPID_2212502160_2892720503328 
o vid_9 
f 79 78 77
f 80 81 82
f 77 82 81
f 77 81 79
f 79 81 80
f 80 78 79
f 78 80 82
f 82 77 78
usemtl APPID_2212502496_2892720503072 
o vid_10 
f 83 92 93
f 84 93 94
f 85 94 95
f 86 95 96
f 87 96 97
f 88 97 98
f 89 98 99
f 83 93 84
f 84 94 85
f 85 95 86
f 86 96 87
f 87 97 88
f 88 98 89
f 89 99 90
f 90 99 100
usemtl APPID_2212502160_2892720503328 
o vid_11 
f 103 102 101
f 104 105 106
f 101 106 105
f 101 105 103
f 103 105 104
f 104 102 103
f 102 104 106
f 106 101 102
usemtl APPID_2212502496_2892720503072 
o vid_12 
f 107 115 116
f 108 116 117
f 109 117 118
f 110 118 119
f 111 119 120
f 112 120 121
f 107 116 108
f 108 117 109
f 109 118 110
f 110 119 111
f 111 120 112
f 112 121 113
f 113 121 122
usemtl APPID_2212502160_2892720503328 
o vid_13 
f 125 124 123
f 126 127 128
f 123 128 127
f 123 127 125
f 125 127 126
f 126 124 125
f 124 126 128
f 128 123 124
usemtl APPID_2212502496_2892720503072 
o vid_14 
f 129 138 139
f 130 139 140
f 131 140 141
f 132 141 142
f 133 142 143
f 134 143 144
f 135 144 145
f 129 139 130
f 130 140 131
f 131 141 132
f 132 142 133
f 133 143 134
f 134 144 135
f 135 145 136
f 136 145 146
usemtl APPID_2212502160_2892720503328 
o vid_15 
f 149 148 147
f 150 151 152
f 147 152 151
f 147 151 149
f 149 151 150
f 150 148 149
f 148 150 152
f 152 147 148
usemtl APPID_2212502496_2892720503072 
o vid_16 
f 153 164 165
f 154 165 166
f 155 166 167
f 156 167 168
f 157 168 169
f 158 169 170
f 159 170 171
f 160 171 172
f 161 172 173
f 153 165 154
f 154 166 155
f 155 167 156
f 156 168 157
f 157 169 158
f 158 170 159
f 159 171 160
f 160 172 161
f 161 173 162
f 162 173 174
usemtl APPID_2212502160_2892720503328 
o vid_17 
f 177 176 175
f 178 179 180
f 175 180 179
f 175 179 177
f 177 179 178
f 178 176 177
f 176 178 180
f 180 175 176
usemtl APPID_2212502496_2892720503072 
o vid_18 
f 181 189 190
f 182 190 191
f 183 191 192
f 184 192 193
f 185 193 194
f 186 194 195
f 181 190 182
f 182 191 183
f 183 192 184
f 184 193 185
f 185 194 186
f 186 195 187
f 187 195 196
