# File generated by PlantGL - Wed Jul 15 17:36:01 2026
v    21.519577 179.522491 0.000000
v    23.403476 179.389839 0.000000
v    22.576407 181.087670 0.000000
v    23.480063 180.477509 2.075390
v    21.596164 180.610161 2.075390
v    22.423233 178.912330 2.075390
v    23.421434 180.664704 1.986487
v    23.505116 180.693659 2.130841
v    23.684575 180.751777 2.437551
v    23.781780 180.787216 2.541115
v    24.054469 180.876265 2.827074
v    24.236296 180.940845 2.936763
v    24.577369 181.012042 3.130004
v    23.591323 180.315951 1.986487
v    23.665706 180.363995 2.130841
v    23.822092 180.469478 2.437551
v    23.909916 180.524173 2.541115
v    24.148128 180.684000 2.827074
v    24.311062 180.787365 2.936763
v    24.577369 181.012042 3.130004
v    23.025823 180.421356 2.075390
v    21.871913 180.244854 2.075390
v    22.601724 179.333790 2.075390
v    21.973817 179.578644 2.322000
v    23.127727 179.755146 2.322000
v    22.397916 180.666210 2.322000
v    21.991550 179.338737 2.096158
v    21.886618 179.350157 2.855611
v    21.664396 179.330781 3.391504
v    21.743565 179.648311 2.096158
v    21.731807 179.543416 2.855611
v    21.664396 179.330781 3.391504
mtllib usm_22_2.5D_2018-07-07_4.mtl
usemtl APPID_887271760_1834833195520 
o vid_3 
f 3 2 1
f 4 5 6
f 1 6 5
f 1 5 3
f 3 5 4
f 4 2 3
f 2 4 6
f 6 1 2
usemtl APPID_887267392_1834833203072 
o vid_4 
f 7 14 15
f 8 15 16
f 9 16 17
f 10 17 18
f 11 18 19
f 7 15 8
f 8 16 9
f 9 17 10
f 10 18 11
f 11 19 12
f 12 19 20
usemtl APPID_887271760_1834833195520 
o vid_5 
f 23 22 21
f 24 25 26
f 21 26 25
f 21 25 23
f 23 25 24
f 24 22 23
f 22 24 26
f 26 21 22
usemtl APPID_887267392_1834833203072 
o vid_6 
f 27 30 31
f 27 31 28
f 28 31 32
