# File generated by PlantGL - Wed Jul 15 17:37:12 2026
v    20.701807 179.124129 0.000000
v    24.157353 178.880811 0.000000
v    22.640300 181.995060 0.000000
v    24.297833 180.875871 3.802806
v    20.842287 181.119189 3.802806
v    22.359340 178.004940 3.802806
v    23.893806 181.519368 3.538888
v    24.797314 181.866393 4.388787
v    25.612779 182.190300 4.898053
v    24.555479 180.161067 3.538888
v    25.385676 180.658587 4.388787
v    26.143399 181.101031 4.898053
v    23.995716 181.198293 3.802806
v    20.714120 180.696338 3.802806
v    22.789624 178.105369 3.802806
v    21.003924 178.801707 8.831485
v    24.285520 179.303662 8.831485
v    22.210016 181.894631 8.831485
v    21.810954 177.989564 8.435627
v    20.603689 177.183339 9.710414
v    19.278761 176.276562 10.642256
v    18.779375 175.944733 10.989861
v    17.183071 174.862477 11.505714
v    20.387503 179.766539 8.435627
v    19.337218 178.764346 9.710414
v    18.163124 177.669274 10.642256
v    17.730300 177.254353 10.989861
v    16.325728 175.932747 11.505714
v    20.790941 179.336039 8.831485
v    23.929266 178.852048 8.831485
v    22.779253 181.811913 8.831485
v    24.208699 180.663961 19.751381
v    21.070374 181.147952 19.751381
v    22.220387 178.188087 19.751381
v    23.422731 182.198634 19.178191
v    25.440576 182.787615 21.024043
v    28.494274 183.716796 22.876644
v    31.560666 184.635470 23.732856
v    32.882687 185.035309 23.722251
v    34.434000 185.462789 23.709922
v    24.665043 179.001216 19.178191
v    26.551216 179.929087 21.024043
v    29.431205 181.305356 22.876644
v    32.313463 182.697946 23.732856
v    33.558643 183.295556 23.722251
v    34.991629 184.027583 23.709922
v    24.202820 180.402854 19.751381
v    21.299438 181.273414 19.751381
v    21.997202 178.323732 19.751381
v    20.796820 179.597146 37.004736
v    23.700202 178.726586 37.004736
v    23.002438 181.676268 37.004736
v    21.577703 177.369734 36.203522
v    18.670567 176.943150 38.783679
v    14.892735 176.344797 41.003667
v    9.839313 175.573118 42.570094
v    8.694204 175.393722 42.561194
v    5.455224 174.968328 42.536165
v    4.516565 174.849178 42.257669
v    4.349838 174.834769 42.208662
v    20.496971 181.938348 36.203522
v    17.706825 181.017208 38.783679
v    14.061306 179.859524 41.003667
v    9.197735 178.285280 42.570094
v    8.093616 177.932609 42.561194
v    5.007331 176.861724 42.536165
v    4.114772 176.547690 42.257669
v    3.959261 176.485871 42.208662
v    21.401804 178.746150 37.004736
v    24.134694 179.676015 37.004736
v    21.962962 181.577834 37.004736
v    23.597836 181.253850 60.162058
v    20.864946 180.323985 60.162058
v    23.036678 178.422166 60.162058
v    20.790637 183.268845 59.080905
v    21.904148 184.397956 60.476229
v    22.661480 185.165898 61.425230
v    23.595822 186.062830 62.562554
v    27.891373 190.281389 66.056931
v    30.843620 193.226802 67.173390
v    32.179119 194.526906 67.671919
v    36.440180 198.697553 67.626135
v    41.115673 203.045348 65.746222
v    42.452318 204.175974 65.124375
v    25.965598 178.737050 59.080905
v    26.937921 179.989801 60.476229
v    27.599227 180.841834 61.425230
v    28.365041 181.886350 62.562554
v    31.979966 186.700944 66.056931
v    34.510110 190.015999 67.173390
v    35.622642 191.511358 67.671919
v    39.194625 196.285442 67.626135
v    42.887526 201.493709 65.746222
v    43.831910 202.967843 65.124375
v    23.834342 180.852054 60.162058
v    21.094659 180.729703 60.162058
v    22.570460 178.418243 60.162058
v    21.165298 179.147946 120.617660
v    23.904981 179.270297 120.617660
v    22.429180 181.581757 120.617660
v    23.972144 175.559059 119.209295
v    20.542835 173.645250 122.664751
v    12.551194 169.352662 128.296625
v    6.734564 166.168174 130.071945
v    -1.197853 161.927196 130.340751
v    -3.261650 160.831525 129.651346
v    -9.681148 157.633352 127.540372
v    -13.230272 156.195172 125.588254
v    19.090802 183.204417 119.209295
v    15.911599 180.898880 122.664751
v    8.654608 175.455652 128.296625
v    3.318100 171.519179 130.071945
v    -3.867151 166.107958 130.340751
v    -5.729556 164.696861 129.651346
v    -11.332174 160.219256 127.540372
v    -14.130329 157.604879 125.588254
v    21.282808 179.123140 120.617660
v    23.867709 179.384467 120.617660
v    22.348943 181.492393 120.617660
v    23.716832 180.876860 169.869379
v    21.131931 180.615533 169.869379
v    22.650697 178.507607 169.869379
v    20.072787 184.999929 168.098320
v    25.623983 188.364277 173.801683
v    34.036415 193.512131 179.525897
v    36.902639 195.297281 180.429897
v    42.471196 198.671389 182.171444
v    49.036773 202.673944 182.112399
v    56.940230 207.192022 180.029840
v    60.842254 209.214907 178.742734
v    62.767250 209.849339 177.985446
v    26.474361 176.115054 168.098320
v    31.422925 180.315808 173.801683
v    38.969000 186.666095 179.525897
v    41.569649 188.819841 180.429897
v    46.532968 193.033973 182.171444
v    52.408020 197.994921 182.112399
v    59.195590 204.061762 180.029840
v    62.349631 207.122788 178.742734
v    63.560792 208.747966 177.985446
v    23.686928 180.773124 169.869379
v    21.236722 180.641503 169.869379
v    22.575811 178.585373 169.869379
v    21.312712 179.226876 207.313519
v    23.762918 179.358497 207.313519
v    22.423829 181.414627 207.313519
v    25.054718 174.696429 205.163508
v    18.100328 170.980993 212.087211
v    14.475800 168.991200 214.487045
v    7.546254 165.309591 219.036227
v    0.376087 161.414143 221.218840
v    -3.058501 159.660841 222.247838
v    -9.656807 156.262780 222.190973
v    -13.717858 154.365240 222.156790
v    -17.795231 153.026660 220.929243
v    18.682215 184.481212 205.163508
v    12.472063 179.623020 212.087211
v    9.186617 177.112578 214.487045
v    3.017450 172.263430 219.036227
v    -3.444591 167.280676 221.218840
v    -6.436938 164.848328 222.247838
v    -12.212835 160.187483 222.190973
v    -15.590413 157.240492 222.156790
v    -18.463364 154.052557 220.929243
v    21.333823 179.353293 207.313519
v    23.642883 179.313571 207.313519
v    22.522754 181.333136 207.313519
v    23.665817 180.646707 229.374241
v    21.356757 180.686429 229.374241
v    22.476886 178.666864 229.374241
v    19.538044 186.486516 226.854606
v    27.975870 190.252685 234.968614
v    35.603820 193.762035 239.841945
v    40.760272 196.049311 243.112286
v    53.078707 201.651252 246.731884
v    65.356684 206.908356 246.777836
v    71.247788 209.134986 245.251774
v    75.900297 210.128310 243.904875
v    26.434194 174.052924 226.854606
v    34.096851 179.216703 234.968614
v    41.112823 183.829437 239.841945
v    45.783452 186.992638 243.112286
v    57.058172 194.476371 246.731884
v    68.018941 202.108370 246.777836
v    73.027115 205.926901 245.251774
v    76.333233 209.347738 243.904875
v    23.707812 180.321333 229.374241
v    21.617541 180.885485 229.374241
v    22.174107 178.793181 229.374241
v    21.291828 179.678667 240.625865
v    23.382099 179.114515 240.625865
v    22.825533 181.206819 240.625865
v    24.250231 171.977674 237.775345
v    13.953364 170.174114 246.954907
v    2.520924 168.037249 253.705213
v    -1.665140 167.313999 256.168028
v    -17.325995 164.457825 260.426036
v    -32.872591 161.930118 260.305323
v    -41.052993 160.947275 257.890547
v    -47.023788 161.162718 256.199005
v    20.032951 187.831744 237.775345
v    10.200877 184.280881 246.954907
v    -0.782289 180.455057 253.705213
v    -4.774446 179.002850 256.168028
v    -19.784565 173.700356 260.426036
v    -34.532326 168.169577 260.305323
v    -42.119883 164.958046 257.890547
v    -47.194495 161.804457 256.199005
v    21.422303 179.552711 240.625865
v    23.425942 179.290487 240.625865
v    22.651215 181.156802 240.625865
v    23.577337 180.447289 245.494295
v    21.573698 180.709513 245.494295
v    22.348425 178.843198 245.494295
v    19.535833 187.678431 242.381144
v    30.419230 191.127229 252.406459
v    33.250422 192.059989 254.136568
v    46.960543 196.369705 262.468427
v    55.002332 198.980093 264.729901
v    63.585425 201.524567 267.118743
v    70.538883 203.612954 267.063116
v    78.332074 205.630366 267.001727
v    85.242258 206.328814 265.588083
v    25.844949 172.479785 242.381144
v    35.971283 177.752344 252.406459
v    38.630741 179.098810 254.136568
v    51.362502 185.765394 262.468427
v    58.888843 189.617497 264.729901
v    66.750676 193.899483 267.118743
v    73.138953 197.349389 267.063116
v    80.069839 201.444094 267.001727
v    85.443225 205.844684 265.588083
v    23.336368 180.688331 245.494295
v    21.485434 180.380306 245.494295
v    22.677658 178.931363 245.494295
v    21.663272 179.311669 248.137243
v    23.514206 179.619694 248.137243
v    22.321982 181.068637 248.137243
v    28.126509 173.050213 244.855037
v    18.205195 166.234748 255.424762
v    12.730966 162.381770 259.310093
v    3.157376 155.837681 266.033130
v    -7.411139 148.468251 269.479346
v    -11.967506 145.461935 270.935974
v    -21.771328 138.942987 270.845771
v    -27.231147 135.607947 270.796981
v    -36.104059 131.610988 268.017215
v    16.763703 186.859747 244.855037
v    8.165180 178.436658 255.424762
v    3.330103 173.806900 259.310093
v    -4.935160 165.672765 266.033130
v    -14.201916 156.721272 269.479346
v    -18.029419 152.829146 270.935974
v    -26.314349 144.464247 270.845771
v    -30.638407 139.748885 270.796981
v    -36.269284 131.811789 268.017215
v    21.897032 179.369316 248.137243
v    23.347402 179.793312 248.137243
v    22.255026 180.837372 248.137243
v    23.102608 180.630684 249.045554
v    21.652238 180.206688 249.045554
v    22.744614 179.162628 249.045554
v    16.319991 185.687841 245.704981
v    23.857067 192.317347 254.519415
v    39.556311 206.022417 267.259685
v    53.776621 218.156007 272.249717
v    61.416308 224.237129 272.175207
v    68.759180 228.475226 272.112538
v    28.461224 174.083627 245.704981
v    34.743215 181.912705 254.519415
v    47.724538 198.215479 267.259685
v    59.202848 212.969788 272.249717
v    64.932376 220.876581 272.175207
v    68.834181 228.403542 272.112538
v    22.959599 180.468595 249.045554
v    21.864116 180.163883 249.045554
v    22.675746 179.367523 249.045554
v    22.040041 179.531405 249.606869
v    23.135524 179.836117 249.606869
v    22.323894 180.632477 249.606869
v    29.063880 174.058167 246.324663
v    19.922397 166.227693 256.894389
v    15.838384 162.647985 260.046422
v    6.051328 154.303649 267.502756
v    -2.608659 146.779931 270.571189
v    -7.912260 142.405991 272.405601
v    -15.841315 135.819133 272.326623
v    -22.083814 131.026721 272.266607
v    -29.747725 126.750631 269.774404
v    16.434402 186.450036 246.324663
v    8.778944 177.161495 256.894389
v    5.277440 173.010237 260.046422
v    -2.879528 163.066481 267.502756
v    -10.237429 154.265174 270.571189
v    -14.509860 148.879466 272.405601
v    -20.944952 140.826751 272.326623
v    -25.617950 134.494367 272.266607
v    -29.747725 126.750631 269.774404
v    22.187198 179.653615 249.606869
v    22.956109 179.902454 249.606869
v    22.356153 180.443931 249.606869
v    22.812442 180.346385 249.834978
v    22.043531 180.097546 249.834978
v    22.643487 179.556069 249.834978
v    16.325711 184.907231 246.721827
v    23.555420 191.642367 255.398401
v    37.423658 204.474003 266.809110
v    39.710634 206.634616 267.650641
v    50.334397 216.167290 271.459426
v    57.810444 222.506642 271.384605
v    64.377842 226.551610 271.327591
v    64.674894 226.729887 271.229507
v    28.012330 174.359719 246.721827
v    33.973351 182.239883 255.398401
v    45.320519 197.346859 266.809110
v    47.236097 199.842667 267.650641
v    55.633150 211.385013 271.459426
v    61.175284 219.469777 271.384605
v    64.527908 226.416171 271.327591
v    64.674894 226.729887 271.229507
v    22.796993 180.057852 249.834978
v    22.301132 180.228434 249.834978
v    22.401334 179.713714 249.834978
v    22.202647 179.942148 249.909000
v    22.698508 179.771566 249.909000
v    22.598306 180.286286 249.909000
v    24.677313 175.437343 244.156066
v    22.350769 175.242848 246.491876
v    14.817807 174.877324 254.004026
v    11.097846 174.617227 256.499692
v    4.960952 174.471578 260.580321
v    -0.737542 175.314508 264.243407
v    -1.272453 175.372181 264.418504
v    22.806709 185.046299 244.156066
v    20.577106 184.353835 246.491876
v    13.457139 181.866831 254.004026
v    9.911268 180.712466 256.499692
v    4.167899 178.545349 260.580321
v    -0.798240 175.626303 264.243407
v    -1.272453 175.372181 264.418504
v    25.612779 182.190300 4.898053
v    26.165882 182.403414 5.241793
v    27.538046 182.941490 5.636025
v    28.906345 183.446304 5.624849
v    29.576317 183.660904 5.418750
v    30.226733 183.764032 5.232305
v    26.143399 181.101031 4.898053
v    26.652153 181.405182 5.241793
v    27.921678 182.153960 5.636025
v    29.162629 182.920197 5.624849
v    29.744595 183.315457 5.418750
v    30.226733 183.764032 5.232305
v    17.183071 174.862477 11.505714
v    16.949542 174.704150 11.581180
v    16.748192 174.566842 11.579308
v    15.115646 173.511924 11.564416
v    14.140330 172.934367 11.232224
v    13.222784 172.568600 10.952569
v    16.325728 175.932747 11.505714
v    16.120248 175.739405 11.581180
v    15.942304 175.572877 11.579308
v    14.556500 174.209937 11.564416
v    13.779996 173.384193 11.232224
v    13.222784 172.568600 10.952569
v    34.434000 185.462789 23.709922
v    35.768061 185.824984 23.353146
v    37.154841 186.141662 22.936584
v    38.581122 186.248162 22.531653
v    34.991629 184.027583 23.709922
v    36.220275 184.661092 23.353146
v    37.457079 185.363771 22.936584
v    38.581122 186.248162 22.531653
v    4.349838 174.834769 42.208662
v    2.535591 174.677981 41.675392
v    0.540429 174.805379 41.109374
v    3.959261 176.485871 42.208662
v    2.267051 175.813187 41.675392
v    0.540429 174.805379 41.109374
v    42.452318 204.175974 65.124375
v    43.080492 204.696208 64.678576
v    43.543083 204.966587 64.397237
v    45.223648 205.948860 63.375149
v    43.831910 202.967843 65.124375
v    44.264715 203.659165 64.678576
v    44.471697 204.153385 64.397237
v    45.223648 205.948860 63.375149
v    -13.230272 156.195172 125.588254
v    -15.788716 155.553862 124.203331
v    -14.130329 157.604879 125.588254
v    -15.788716 155.553862 124.203331
v    62.767250 209.849339 177.985446
v    64.811280 210.485506 176.861408
v    63.560792 208.747966 177.985446
v    64.811280 210.485506 176.861408
v    -17.795231 153.026660 220.929243
v    -19.811004 152.444369 220.335207
v    -18.463364 154.052557 220.929243
v    -19.811004 152.444369 220.335207
v    75.900297 210.128310 243.904875
v    77.396322 210.447716 243.471777
v    76.333233 209.347738 243.904875
v    77.396322 210.447716 243.471777
v    -47.023788 161.162718 256.199005
v    -48.161117 161.203756 255.876796
v    -47.194495 161.804457 256.199005
v    -48.161117 161.203756 255.876796
v    85.242258 206.328814 265.588083
v    86.136355 206.416186 265.333742
v    85.443225 205.844684 265.588083
v    86.136355 206.416186 265.333742
v    -36.104059 131.610988 268.017215
v    -36.515837 131.440544 267.891040
v    -36.269284 131.811789 268.017215
v    -36.515837 131.440544 267.891040
v    68.759180 228.475226 272.112538
v    68.919225 228.567599 272.111172
v    68.834181 228.403542 272.112538
v    68.919225 228.567599 272.111172
mtllib usm_10_2.5D_2018-10-05_4.mtl
usemtl APPID_1693052656_2419758975840 
o vid_3 
f 3 2 1
f 4 5 6
f 1 6 5
f 1 5 3
f 3 5 4
f 4 2 3
f 2 4 6
f 6 1 2
usemtl APPID_1693052096_2419758972000 
o vid_4 
f 7 10 11
f 7 11 8
f 8 11 12
f 8 12 9
usemtl APPID_1693052656_2419758975840 
o vid_5 
f 15 14 13
f 16 17 18
f 13 18 17
f 13 17 15
f 15 17 16
f 16 14 15
f 14 16 18
f 18 13 14
usemtl APPID_1693052096_2419758972000 
o vid_6 
f 19 24 25
f 20 25 26
f 21 26 27
f 19 25 20
f 20 26 21
f 21 27 22
f 22 27 28
f 22 28 23
usemtl APPID_1693052656_2419758975840 
o vid_7 
f 31 30 29
f 32 33 34
f 29 34 33
f 29 33 31
f 31 33 32
f 32 30 31
f 30 32 34
f 34 29 30
usemtl APPID_1693052096_2419758972000 
o vid_8 
f 35 41 42
f 36 42 43
f 37 43 44
f 38 44 45
f 35 42 36
f 36 43 37
f 37 44 38
f 38 45 39
f 39 45 46
f 39 46 40
usemtl APPID_1693052656_2419758975840 
o vid_9 
f 49 48 47
f 50 51 52
f 47 52 51
f 47 51 49
f 49 51 50
f 50 48 49
f 48 50 52
f 52 47 48
usemtl APPID_1693052096_2419758972000 
o vid_10 
f 53 61 62
f 54 62 63
f 55 63 64
f 56 64 65
f 57 65 66
f 58 66 67
f 53 62 54
f 54 63 55
f 55 64 56
f 56 65 57
f 57 66 58
f 58 67 59
f 59 67 68
f 59 68 60
usemtl APPID_1693052656_2419758975840 
o vid_11 
f 71 70 69
f 72 73 74
f 69 74 73
f 69 73 71
f 71 73 72
f 72 70 71
f 70 72 74
f 74 69 70
usemtl APPID_1693052096_2419758972000 
o vid_12 
f 75 85 86
f 76 86 87
f 77 87 88
f 78 88 89
f 79 89 90
f 80 90 91
f 81 91 92
f 82 92 93
f 75 86 76
f 76 87 77
f 77 88 78
f 78 89 79
f 79 90 80
f 80 91 81
f 81 92 82
f 82 93 83
f 83 93 94
f 83 94 84
usemtl APPID_1693052656_2419758975840 
o vid_13 
f 97 96 95
f 98 99 100
f 95 100 99
f 95 99 97
f 97 99 98
f 98 96 97
f 96 98 100
f 100 95 96
usemtl APPID_1693052096_2419758972000 
o vid_14 
f 101 109 110
f 102 110 111
f 103 111 112
f 104 112 113
f 105 113 114
f 106 114 115
f 101 110 102
f 102 111 103
f 103 112 104
f 104 113 105
f 105 114 106
f 106 115 107
f 107 115 116
f 107 116 108
usemtl APPID_1693052656_2419758975840 
o vid_15 
f 119 118 117
f 120 121 122
f 117 122 121
f 117 121 119
f 119 121 120
f 120 118 119
f 118 120 122
f 122 117 118
usemtl APPID_1693052096_2419758972000 
o vid_16 
f 123 132 133
f 124 133 134
f 125 134 135
f 126 135 136
f 127 136 137
f 128 137 138
f 129 138 139
f 123 133 124
f 124 134 125
f 125 135 126
f 126 136 127
f 127 137 128
f 128 138 129
f 129 139 130
f 130 139 140
f 130 140 131
usemtl APPID_1693052656_2419758975840 
o vid_17 
f 143 142 141
f 144 145 146
f 141 146 145
f 141 145 143
f 143 145 144
f 144 142 143
f 142 144 146
f 146 141 142
usemtl APPID_1693052096_2419758972000 
o vid_18 
f 147 156 157
f 148 157 158
f 149 158 159
f 150 159 160
f 151 160 161
f 152 161 162
f 153 162 163
f 147 157 148
f 148 158 149
f 149 159 150
f 150 160 151
f 151 161 152
f 152 162 153
f 153 163 154
f 154 163 164
f 154 164 155
usemtl APPID_1693052656_2419758975840 
o vid_19 
f 167 166 165
f 168 169 170
f 165 170 169
f 165 169 167
f 167 169 168
f 168 166 167
f 166 168 170
f 170 165 166
usemtl APPID_1693052096_2419758972000 
o vid_20 
f 171 179 180
f 172 180 181
f 173 181 182
f 174 182 183
f 175 183 184
f 176 184 185
f 171 180 172
f 172 181 173
f 173 182 174
f 174 183 175
f 175 184 176
f 176 185 177
f 177 185 186
f 177 186 178
usemtl APPID_1693052656_2419758975840 
o vid_21 
f 189 188 187
f 190 191 192
f 187 192 191
f 187 191 189
f 189 191 190
f 190 188 189
f 188 190 192
f 192 187 188
usemtl APPID_1693052096_2419758972000 
o vid_22 
f 193 201 202
f 194 202 203
f 195 203 204
f 196 204 205
f 197 205 206
f 198 206 207
f 193 202 194
f 194 203 195
f 195 204 196
f 196 205 197
f 197 206 198
f 198 207 199
f 199 207 208
f 199 208 200
usemtl APPID_1693052656_2419758975840 
o vid_23 
f 211 210 209
f 212 213 214
f 209 214 213
f 209 213 211
f 211 213 212
f 212 210 211
f 210 212 214
f 214 209 210
usemtl APPID_1693052096_2419758972000 
o vid_24 
f 215 224 225
f 216 225 226
f 217 226 227
f 218 227 228
f 219 228 229
f 220 229 230
f 221 230 231
f 215 225 216
f 216 226 217
f 217 227 218
f 218 228 219
f 219 229 220
f 220 230 221
f 221 231 222
f 222 231 232
f 222 232 223
usemtl APPID_1693052656_2419758975840 
o vid_25 
f 235 234 233
f 236 237 238
f 233 238 237
f 233 237 235
f 235 237 236
f 236 234 235
f 234 236 238
f 238 233 234
usemtl APPID_1693052096_2419758972000 
o vid_26 
f 239 248 249
f 240 249 250
f 241 250 251
f 242 251 252
f 243 252 253
f 244 253 254
f 245 254 255
f 239 249 240
f 240 250 241
f 241 251 242
f 242 252 243
f 243 253 244
f 244 254 245
f 245 255 246
f 246 255 256
f 246 256 247
usemtl APPID_1693052656_2419758975840 
o vid_27 
f 259 258 257
f 260 261 262
f 257 262 261
f 257 261 259
f 259 261 260
f 260 258 259
f 258 260 262
f 262 257 258
usemtl APPID_1693052096_2419758972000 
o vid_28 
f 263 269 270
f 264 270 271
f 265 271 272
f 266 272 273
f 263 270 264
f 264 271 265
f 265 272 266
f 266 273 267
f 267 273 274
f 267 274 268
usemtl APPID_1693052656_2419758975840 
o vid_29 
f 277 276 275
f 278 279 280
f 275 280 279
f 275 279 277
f 277 279 278
f 278 276 277
f 276 278 280
f 280 275 276
usemtl APPID_1693052096_2419758972000 
o vid_30 
f 281 290 291
f 282 291 292
f 283 292 293
f 284 293 294
f 285 294 295
f 286 295 296
f 287 296 297
f 281 291 282
f 282 292 283
f 283 293 284
f 284 294 285
f 285 295 286
f 286 296 287
f 287 297 288
f 288 297 298
usemtl APPID_1693052656_2419758975840 
o vid_31 
f 301 300 299
f 302 303 304
f 299 304 303
f 299 303 301
f 301 303 302
f 302 300 301
f 300 302 304
f 304 299 300
usemtl APPID_1693052096_2419758972000 
o vid_32 
f 305 313 314
f 306 314 315
f 307 315 316
f 308 316 317
f 309 317 318
f 310 318 319
f 305 314 306
f 306 315 307
f 307 316 308
f 308 317 309
f 309 318 310
f 310 319 311
f 311 319 320
usemtl APPID_1693052656_2419758975840 
o vid_33 
f 323 322 321
f 324 325 326
f 321 326 325
f 321 325 323
f 323 325 324
f 324 322 323
f 322 324 326
f 326 321 322
usemtl APPID_1693052096_2419758972000 
o vid_34 
f 327 334 335
f 328 335 336
f 329 336 337
f 330 337 338
f 331 338 339
f 327 335 328
f 328 336 329
f 329 337 330
f 330 338 331
f 331 339 332
f 332 339 340
usemtl APPID_1692991840_2419758973792 
o vid_10000004 
f 341 347 348
f 342 348 349
f 343 349 350
f 344 350 351
f 341 348 342
f 342 349 343
f 343 350 344
f 344 351 345
f 345 351 352
usemtl APPID_1692991840_2419758973792 
o vid_10000006 
f 353 359 360
f 354 360 361
f 355 361 362
f 356 362 363
f 353 360 354
f 354 361 355
f 355 362 356
f 356 363 357
f 357 363 364
usemtl APPID_1692991840_2419758973792 
o vid_10000008 
f 365 369 370
f 366 370 371
f 365 370 366
f 366 371 367
f 367 371 372
usemtl APPID_1692991840_2419758973792 
o vid_10000010 
f 373 376 377
f 373 377 374
f 374 377 378
usemtl APPID_1692991840_2419758973792 
o vid_10000012 
f 379 383 384
f 380 384 385
f 379 384 380
f 380 385 381
f 381 385 386
usemtl APPID_1692991840_2419758973792 
o vid_10000014 
f 387 389 390
f 387 390 388
f 387 389 390
usemtl APPID_1692991840_2419758973792 
o vid_10000016 
f 391 393 394
f 391 394 392
f 391 393 394
usemtl APPID_1692991840_2419758973792 
o vid_10000018 
f 395 397 398
f 395 398 396
f 395 397 398
usemtl APPID_1692991840_2419758973792 
o vid_10000020 
f 399 401 402
f 399 402 400
f 399 401 402
usemtl APPID_1692991840_2419758973792 
o vid_10000022 
f 403 405 406
f 403 406 404
f 403 405 406
usemtl APPID_1692991840_2419758973792 
o vid_10000024 
f 407 409 410
f 407 410 408
f 407 409 410
usemtl APPID_1692991840_2419758973792 
o vid_10000026 
f 411 413 414
f 411 414 412
f 411 413 414
usemtl APPID_1692991840_2419758973792 
o vid_10000028 
f 415 417 418
f 415 418 416
f 415 417 418
