# File generated by PlantGL - Wed Jul 15 17:36:18 2026
v    20.701807 19.124129 0.000000
v    24.157353 18.880811 0.000000
v    22.640300 21.995060 0.000000
v    24.297833 20.875871 3.802807
v    20.842287 21.119189 3.802807
v    22.359340 18.004940 3.802807
v    23.911109 21.499252 3.560756
v    24.739755 21.817523 4.340235
v    25.220182 22.008352 4.640267
v    24.550305 20.187092 3.560756
v    25.311715 20.643389 4.340235
v    25.758123 20.904052 4.640267
v    23.995716 21.198293 3.802807
v    20.714120 20.696338 3.802807
v    22.789624 18.105369 3.802807
v    21.003924 18.801707 8.831486
v    24.285520 19.303662 8.831486
v    22.210016 21.894631 8.831486
v    21.785899 18.007411 8.462847
v    20.661647 17.256623 9.649978
v    18.967568 16.097200 10.841449
v    17.403285 15.035160 11.347205
v    20.399451 19.738193 8.462847
v    19.421385 18.804912 9.649978
v    17.920166 17.404731 10.841449
v    16.542312 16.109962 11.347205
v    20.790941 19.336039 8.831486
v    23.929266 18.852048 8.831486
v    22.779253 21.811913 8.831486
v    24.208699 20.663961 19.751819
v    21.070374 21.147952 19.751819
v    22.220387 18.188087 19.751819
v    23.448993 22.158237 19.210556
v    23.851624 22.287823 19.582720
v    25.350230 22.725245 20.953591
v    28.233831 23.602668 22.702998
v    29.106529 23.875749 22.947807
v    31.125443 24.480402 23.511518
v    33.258255 25.125462 23.494408
v    33.989474 25.326957 23.488596
v    34.108694 25.359255 23.452241
v    24.657142 19.048747 19.210556
v    25.041644 19.224991 19.582720
v    26.442461 19.914099 20.953591
v    29.162028 21.213707 22.702998
v    29.990170 21.601464 22.947807
v    31.887714 22.518495 23.511518
v    33.896560 23.482617 23.494408
v    34.572004 23.827662 23.488596
v    34.681756 23.884327 23.452241
v    24.202820 20.402854 19.751819
v    21.299438 21.273414 19.751819
v    21.997202 18.323732 19.751819
v    20.796820 19.597146 37.011493
v    23.700202 18.726586 37.011493
v    23.002438 21.676268 37.011493
v    21.558479 17.404050 36.245316
v    18.778470 16.996120 38.712645
v    14.564379 16.328670 41.188994
v    10.336131 15.674456 42.333482
v    8.254685 15.348369 42.317304
v    6.149488 15.071882 42.301037
v    4.546405 14.868391 41.825409
v    20.495159 21.899056 36.245316
v    17.827025 21.018197 38.712645
v    13.760525 19.726825 41.188994
v    9.687301 18.417278 42.333482
v    7.680360 17.776233 42.317304
v    5.674408 17.080204 42.301037
v    4.150058 16.543882 41.825409
v    21.401804 18.746150 37.011493
v    24.134694 19.676015 37.011493
v    21.962962 21.577834 37.011493
v    23.597836 21.253850 60.184973
v    20.864946 20.323985 60.184973
v    23.036678 18.422166 60.184973
v    20.842333 23.238154 59.139377
v    23.200908 25.629772 62.094871
v    27.690670 30.036592 65.885974
v    31.378075 33.715461 67.280450
v    35.947436 38.185497 67.403569
v    37.394581 39.592668 66.808020
v    41.306732 43.204736 65.240795
v    42.213949 43.957857 64.621718
v    25.928354 18.784245 59.139377
v    27.987873 21.437750 62.094871
v    31.763789 26.469697 65.885974
v    34.923981 30.610255 67.280450
v    38.752057 35.729446 67.403569
v    39.955990 37.349601 66.808020
v    43.020312 41.704127 65.240795
v    43.647150 42.702780 64.621718
v    23.834342 20.852054 60.184973
v    21.094659 20.729703 60.184973
v    22.570460 18.418243 60.184973
v    21.165298 19.147946 120.772946
v    23.904981 19.270297 120.772946
v    22.429180 21.581757 120.772946
v    23.937297 15.594892 119.397283
v    19.540758 13.141296 123.827345
v    12.795632 9.510548 128.273602
v    6.062937 5.824533 130.328518
v    -0.626029 2.244777 130.270262
v    -3.718762 0.602843 129.237144
v    -9.347458 -2.201355 127.386215
v    -12.801392 -3.726986 125.319960
v    -13.001456 -3.777135 125.211663
v    19.108643 23.157727 119.397283
v    15.032753 20.201918 123.827345
v    8.900698 15.610953 128.273602
v    2.723738 11.054523 130.328518
v    -3.338427 6.493045 130.270262
v    -6.129362 4.378424 129.237144
v    -11.041807 0.452405 127.386215
v    -13.879238 -2.038821 125.319960
v    -14.008919 -2.199205 125.211663
v    21.282808 19.123140 120.772946
v    23.867709 19.384467 120.772946
v    22.348943 21.492393 120.772946
v    23.716832 20.876860 170.125661
v    21.131931 20.615533 170.125661
v    22.650697 18.507607 170.125661
v    20.072365 25.014313 168.380749
v    22.796123 26.741564 171.218584
v    25.516424 28.363941 173.999910
v    33.804657 33.435794 179.639614
v    38.342489 36.262059 181.070835
v    42.100382 38.539047 182.246103
v    50.316963 43.548099 182.172210
v    58.072477 47.972707 179.544102
v    61.195244 49.591610 178.514038
v    63.414176 50.408333 177.253002
v    26.487871 16.110100 168.380749
v    28.988502 18.147034 171.218584
v    31.388558 20.213886 173.999910
v    38.823226 26.470420 179.639614
v    42.940598 29.880250 181.070835
v    46.290050 32.724120 182.246103
v    53.642465 38.932567 182.172210
v    60.294540 44.888660 179.544102
v    62.818700 47.338382 178.514038
v    64.295824 49.184675 177.253002
v    23.686928 20.773124 170.125661
v    21.236722 20.641503 170.125661
v    22.575811 18.585373 170.125661
v    21.312712 19.226876 207.577996
v    23.762918 19.358497 207.577996
v    22.423829 21.414627 207.577996
v    25.175496 14.501802 205.444219
v    18.273617 10.814420 212.315644
v    11.490358 7.090547 216.806902
v    7.826501 5.143971 219.212190
v    -2.644393 -0.544715 222.399550
v    -12.936914 -5.852343 222.310819
v    -17.754876 -8.070273 220.818530
v    -20.704203 -8.922237 219.949381
v    18.553045 24.670373 205.444219
v    12.389783 19.848865 212.315644
v    6.241112 15.150603 216.806902
v    2.979290 12.586715 219.212190
v    -6.457498 5.310190 222.399550
v    -15.473643 -1.957274 222.310819
v    -19.450307 -5.466991 220.818530
v    -21.422072 -7.819971 219.949381
v    21.333823 19.353293 207.577996
v    23.642883 19.313571 207.577996
v    22.522754 21.333136 207.577996
v    23.665817 20.646707 228.596990
v    21.356757 20.686429 228.596990
v    22.476886 18.666864 228.596990
v    19.634948 26.314380 226.081412
v    28.059190 30.074486 234.182356
v    33.424815 32.543020 237.610337
v    40.839524 35.832004 242.312918
v    50.617741 40.278753 245.186108
v    53.669301 41.573004 246.070600
v    62.790646 45.480081 245.994574
v    66.525163 46.912436 245.964071
v    73.146096 48.693333 243.994582
v    26.339478 14.226274 226.081412
v    33.989799 19.381740 234.182356
v    38.924948 22.626412 237.610337
v    45.641070 27.174932 242.312918
v    54.590799 33.115423 245.186108
v    57.304508 35.018812 246.070600
v    65.448618 40.687822 245.994574
v    68.641102 43.097448 245.964071
v    73.657594 47.771116 243.994582
v    23.707812 20.321333 228.596990
v    21.617541 20.885485 228.596990
v    22.174107 18.793181 228.596990
v    21.291828 19.678667 240.722589
v    23.382099 19.114515 240.722589
v    22.825533 21.206819 240.722589
v    24.275606 11.892666 237.863418
v    13.947485 10.083632 247.070841
v    1.645956 7.784323 254.334303
v    -1.715425 7.203558 256.311927
v    -17.423814 4.338715 260.582858
v    -33.011301 1.779664 260.461779
v    -42.149767 0.649009 257.761704
v    -47.994728 0.859911 256.105810
v    20.012735 27.918124 237.863418
v    10.150818 24.356484 247.070841
v    -1.667283 20.239822 254.334303
v    -4.872958 19.073710 256.311927
v    -19.928636 13.755122 260.582858
v    -34.727457 8.231228 260.461779
v    -43.219895 4.671954 257.761704
v    -48.187560 1.584827 256.105810
v    21.422303 19.552711 240.722589
v    23.425942 19.290487 240.722589
v    22.651215 21.156802 240.722589
v    23.577337 20.447289 245.542510
v    21.573698 20.709513 245.542510
v    22.348425 18.843198 245.542510
v    19.520168 27.700220 242.409540
v    30.472853 31.170976 252.498681
v    47.121317 36.442391 262.624707
v    54.842776 38.948799 264.796100
v    63.855906 41.620758 267.304629
v    70.465529 43.605878 267.251753
v    78.308336 45.636134 267.189972
v    85.137779 46.331696 265.918482
v    25.849320 12.453308 242.409540
v    36.040124 17.759434 252.498681
v    51.527488 25.827934 262.624707
v    58.754030 29.526597 264.796100
v    67.009764 34.023122 267.304629
v    73.082153 37.302437 267.251753
v    80.057164 41.423210 267.189972
v    85.371502 45.768658 265.918482
v    23.336368 20.688331 245.542510
v    21.485434 20.380306 245.542510
v    22.677658 18.931363 245.542510
v    21.663272 19.311669 248.156804
v    23.514206 19.619694 248.156804
v    22.321982 21.068637 248.156804
v    28.151737 13.032891 244.847124
v    18.147377 6.160378 255.505323
v    13.121894 2.623244 259.072156
v    2.968318 -4.317298 266.202487
v    -7.134079 -11.361703 269.496710
v    -12.294255 -14.766417 271.146371
v    -21.596076 -20.951564 271.060786
v    -27.702965 -24.681856 271.006214
v    -35.970664 -28.321656 268.431951
v    16.751563 26.887839 244.847124
v    8.081066 18.394245 255.505323
v    3.642342 14.144008 259.072156
v    -5.123647 5.517092 266.202487
v    -13.981699 -3.039601 269.496710
v    -18.316421 -7.447511 271.146371
v    -26.177124 -15.384088 271.060786
v    -31.013647 -20.658291 271.006214
v    -36.177499 -28.070284 268.431951
v    21.896942 19.369222 248.156804
v    23.347528 19.793281 248.156804
v    22.254989 20.837496 248.156804
v    23.102698 20.630778 249.055064
v    21.652112 20.206719 249.055064
v    22.744651 19.162504 249.055064
v    16.290320 25.703494 245.684294
v    23.516606 32.059635 254.135268
v    25.603504 33.837767 256.539224
v    39.742453 46.216365 267.433838
v    54.103423 58.448053 272.468977
v    61.299696 64.146936 272.398955
v    68.684673 68.409334 272.335927
v    28.478203 14.054693 245.684294
v    34.501158 21.560941 254.135268
v    36.183127 23.726092 256.539224
v    47.909872 38.410199 267.433838
v    59.479821 53.309459 272.468977
v    64.847546 60.756010 272.398955
v    68.771725 68.326132 272.335927
v    22.959682 20.468679 249.055064
v    21.864001 20.163912 249.055064
v    22.675777 19.367408 249.055064
v    22.039958 19.531321 249.610372
v    23.135639 19.836088 249.610372
v    22.323863 20.632592 249.610372
v    29.088900 14.045324 246.300693
v    19.870899 6.149306 256.958891
v    16.225101 2.953701 259.772711
v    5.877558 -5.868500 267.656056
v    -2.324793 -12.994628 270.562337
v    -8.215851 -17.853050 272.599939
v    -15.650885 -24.029513 272.525882
v    -22.439369 -29.241082 272.460617
v    -29.694558 -33.195182 270.152430
v    16.421087 26.474808 246.300693
v    8.701549 17.108518 256.958891
v    5.575757 13.402690 259.772711
v    -3.048346 2.889473 267.656056
v    -10.017420 -5.446729 270.562337
v    -14.763090 -11.428990 272.599939
v    -20.797242 -18.979978 272.525882
v    -25.878953 -25.866210 272.460617
v    -29.694558 -33.195182 270.152430
v    22.187125 19.653535 249.610372
v    22.956215 19.902431 249.610372
v    22.356120 20.444034 249.610372
v    22.812515 20.346465 249.836478
v    22.043425 20.097569 249.836478
v    22.643520 19.555966 249.836478
v    16.318254 24.905871 246.703508
v    23.209133 31.325355 254.973442
v    37.556698 44.591637 266.918675
v    50.562602 56.347664 271.598597
v    57.565337 62.256599 271.528679
v    64.483064 66.517341 271.468624
v    28.011740 14.352162 246.703508
v    33.693389 21.863011 254.973442
v    45.423941 37.491224 266.918675
v    55.789257 51.630457 271.598597
v    60.951599 59.200400 271.528679
v    64.483064 66.517341 271.468624
v    22.797089 20.057870 249.836478
v    22.301069 20.228507 249.836478
v    22.401303 19.713623 249.836478
v    22.202551 19.942130 249.909000
v    22.698571 19.771493 249.909000
v    22.598337 20.286377 249.909000
v    24.679694 15.459560 244.139061
v    22.676889 15.291984 246.147220
v    14.781625 14.908135 254.010438
v    11.440613 14.674354 256.248710
v    5.282445 14.527747 260.337722
v    -0.844685 15.433209 264.270853
v    -0.918245 15.441136 264.294881
v    22.817250 25.026598 244.139061
v    20.897843 24.430625 246.147220
v    13.435158 21.824696 254.010438
v    10.250434 20.788093 256.248710
v    4.486984 18.613883 260.337722
v    -0.853030 15.476078 264.270853
v    -0.918245 15.441136 264.294881
v    25.220182 22.008352 4.640267
v    25.992464 22.315107 5.122565
v    27.250441 22.809617 5.484132
v    27.871664 23.055163 5.479003
v    28.499156 23.285356 5.473882
v    29.055280 23.486643 5.299804
v    29.627848 23.668300 5.123895
v    30.177177 23.755400 4.966427
v    30.220773 23.761129 4.943339
v    25.758123 20.904052 4.640267
v    26.475720 21.323066 5.122565
v    27.640553 22.008785 5.484132
v    28.216836 22.346584 5.479003
v    28.784896 22.698783 5.473882
v    29.286200 23.012605 5.299804
v    29.782184 23.351475 5.123895
v    30.189388 23.730333 4.966427
v    30.220773 23.761129 4.943339
v    17.403285 15.035160 11.347205
v    16.457350 14.390645 11.384608
v    15.568226 13.816111 11.376498
v    14.842441 13.351562 11.122863
v    14.052785 12.889628 10.854958
v    13.228260 12.560942 10.603655
v    13.200438 12.550699 10.588088
v    16.542312 16.109962 11.347205
v    15.706876 15.327504 11.384608
v    14.952133 14.585214 11.376498
v    14.340375 13.978319 11.122863
v    13.717228 13.308523 10.854958
v    13.216506 12.575615 10.603655
v    13.200438 12.550699 10.588088
v    34.108694 25.359255 23.452241
v    35.947619 25.857440 22.891473
v    37.257152 26.156478 22.498114
v    37.765289 26.194420 22.353850
v    38.538294 26.231522 21.947502
v    34.681756 23.884327 23.452241
v    36.374643 24.758379 22.891473
v    37.542555 25.421917 22.498114
v    37.943015 25.736996 22.353850
v    38.538294 26.231522 21.947502
v    4.546405 14.868391 41.825409
v    4.299543 14.837055 41.752166
v    2.405195 14.673345 41.195352
v    0.640662 14.786016 40.694763
v    0.508996 14.797943 40.625346
v    4.150058 16.543882 41.825409
v    3.915320 16.461293 41.752166
v    2.148399 15.758909 41.195352
v    0.621363 14.867598 40.694763
v    0.508996 14.797943 40.625346
v    42.213949 43.957857 64.621718
v    43.139719 44.724550 63.964722
v    45.212390 45.936004 62.704163
v    43.647150 42.702780 64.621718
v    44.284995 43.721613 63.964722
v    45.212390 45.936004 62.704163
v    -13.001456 -3.777135 125.211663
v    -15.282727 -4.348967 123.976778
v    -15.797587 -4.451801 123.547408
v    -14.008919 -2.199205 125.211663
v    -15.487642 -4.028021 123.976778
v    -15.797587 -4.451801 123.547408
v    63.414176 50.408333 177.253002
v    65.205016 50.965700 176.268196
v    65.685154 51.115135 176.004162
v    64.295824 49.184675 177.253002
v    65.391417 50.706990 176.268196
v    65.685154 51.115135 176.004162
v    -20.704203 -8.922237 219.949381
v    -22.870034 -9.547875 219.311123
v    -21.422072 -7.819971 219.949381
v    -22.870034 -9.547875 219.311123
v    73.146096 48.693333 243.994582
v    74.913595 49.070699 243.482892
v    73.657594 47.771116 243.994582
v    74.913595 49.070699 243.482892
v    -47.994728 0.859911 256.105810
v    -49.279465 0.906268 255.741841
v    -48.187560 1.584827 256.105810
v    -49.279465 0.906268 255.741841
v    85.137779 46.331696 265.918482
v    86.177603 46.433308 265.622686
v    85.371502 45.768658 265.918482
v    86.177603 46.433308 265.622686
v    -35.970664 -28.321656 268.431951
v    -36.486146 -28.535026 268.274000
v    -36.177499 -28.070284 268.431951
v    -36.486146 -28.535026 268.274000
v    68.684673 68.409334 272.335927
v    68.870434 68.516550 272.334342
v    68.771725 68.326132 272.335927
v    68.870434 68.516550 272.334342
mtllib usm_26_2.5D_2018-10-05_0.mtl
usemtl APPID_206862032_2461221054624 
o vid_3 
f 3 2 1
f 4 5 6
f 1 6 5
f 1 5 3
f 3 5 4
f 4 2 3
f 2 4 6
f 6 1 2
usemtl APPID_206865616_2461221054496 
o vid_4 
f 7 10 11
f 7 11 8
f 8 11 12
f 8 12 9
usemtl APPID_206862032_2461221054624 
o vid_5 
f 15 14 13
f 16 17 18
f 13 18 17
f 13 17 15
f 15 17 16
f 16 14 15
f 14 16 18
f 18 13 14
usemtl APPID_206865616_2461221054496 
o vid_6 
f 19 23 24
f 20 24 25
f 19 24 20
f 20 25 21
f 21 25 26
f 21 26 22
usemtl APPID_206862032_2461221054624 
o vid_7 
f 29 28 27
f 30 31 32
f 27 32 31
f 27 31 29
f 29 31 30
f 30 28 29
f 28 30 32
f 32 27 28
usemtl APPID_206865616_2461221054496 
o vid_8 
f 33 42 43
f 34 43 44
f 35 44 45
f 36 45 46
f 37 46 47
f 38 47 48
f 39 48 49
f 33 43 34
f 34 44 35
f 35 45 36
f 36 46 37
f 37 47 38
f 38 48 39
f 39 49 40
f 40 49 50
f 40 50 41
usemtl APPID_206862032_2461221054624 
o vid_9 
f 53 52 51
f 54 55 56
f 51 56 55
f 51 55 53
f 53 55 54
f 54 52 53
f 52 54 56
f 56 51 52
usemtl APPID_206865616_2461221054496 
o vid_10 
f 57 64 65
f 58 65 66
f 59 66 67
f 60 67 68
f 61 68 69
f 57 65 58
f 58 66 59
f 59 67 60
f 60 68 61
f 61 69 62
f 62 69 70
f 62 70 63
usemtl APPID_206862032_2461221054624 
o vid_11 
f 73 72 71
f 74 75 76
f 71 76 75
f 71 75 73
f 73 75 74
f 74 72 73
f 72 74 76
f 76 71 72
usemtl APPID_206865616_2461221054496 
o vid_12 
f 77 85 86
f 78 86 87
f 79 87 88
f 80 88 89
f 81 89 90
f 82 90 91
f 77 86 78
f 78 87 79
f 79 88 80
f 80 89 81
f 81 90 82
f 82 91 83
f 83 91 92
f 83 92 84
usemtl APPID_206862032_2461221054624 
o vid_13 
f 95 94 93
f 96 97 98
f 93 98 97
f 93 97 95
f 95 97 96
f 96 94 95
f 94 96 98
f 98 93 94
usemtl APPID_206865616_2461221054496 
o vid_14 
f 99 108 109
f 100 109 110
f 101 110 111
f 102 111 112
f 103 112 113
f 104 113 114
f 105 114 115
f 99 109 100
f 100 110 101
f 101 111 102
f 102 112 103
f 103 113 104
f 104 114 105
f 105 115 106
f 106 115 116
f 106 116 107
usemtl APPID_206862032_2461221054624 
o vid_15 
f 119 118 117
f 120 121 122
f 117 122 121
f 117 121 119
f 119 121 120
f 120 118 119
f 118 120 122
f 122 117 118
usemtl APPID_206865616_2461221054496 
o vid_16 
f 123 133 134
f 124 134 135
f 125 135 136
f 126 136 137
f 127 137 138
f 128 138 139
f 129 139 140
f 130 140 141
f 123 134 124
f 124 135 125
f 125 136 126
f 126 137 127
f 127 138 128
f 128 139 129
f 129 140 130
f 130 141 131
f 131 141 142
f 131 142 132
usemtl APPID_206862032_2461221054624 
o vid_17 
f 145 144 143
f 146 147 148
f 143 148 147
f 143 147 145
f 145 147 146
f 146 144 145
f 144 146 148
f 148 143 144
usemtl APPID_206865616_2461221054496 
o vid_18 
f 149 157 158
f 150 158 159
f 151 159 160
f 152 160 161
f 153 161 162
f 154 162 163
f 149 158 150
f 150 159 151
f 151 160 152
f 152 161 153
f 153 162 154
f 154 163 155
f 155 163 164
f 155 164 156
usemtl APPID_206862032_2461221054624 
o vid_19 
f 167 166 165
f 168 169 170
f 165 170 169
f 165 169 167
f 167 169 168
f 168 166 167
f 166 168 170
f 170 165 166
usemtl APPID_206865616_2461221054496 
o vid_20 
f 171 180 181
f 172 181 182
f 173 182 183
f 174 183 184
f 175 184 185
f 176 185 186
f 177 186 187
f 171 181 172
f 172 182 173
f 173 183 174
f 174 184 175
f 175 185 176
f 176 186 177
f 177 187 178
f 178 187 188
f 178 188 179
usemtl APPID_206862032_2461221054624 
o vid_21 
f 191 190 189
f 192 193 194
f 189 194 193
f 189 193 191
f 191 193 192
f 192 190 191
f 190 192 194
f 194 189 190
usemtl APPID_206865616_2461221054496 
o vid_22 
f 195 203 204
f 196 204 205
f 197 205 206
f 198 206 207
f 199 207 208
f 200 208 209
f 195 204 196
f 196 205 197
f 197 206 198
f 198 207 199
f 199 208 200
f 200 209 201
f 201 209 210
f 201 210 202
usemtl APPID_206862032_2461221054624 
o vid_23 
f 213 212 211
f 214 215 216
f 211 216 215
f 211 215 213
f 213 215 214
f 214 212 213
f 212 214 216
f 216 211 212
usemtl APPID_206865616_2461221054496 
o vid_24 
f 217 225 226
f 218 226 227
f 219 227 228
f 220 228 229
f 221 229 230
f 222 230 231
f 217 226 218
f 218 227 219
f 219 228 220
f 220 229 221
f 221 230 222
f 222 231 223
f 223 231 232
f 223 232 224
usemtl APPID_206862032_2461221054624 
o vid_25 
f 235 234 233
f 236 237 238
f 233 238 237
f 233 237 235
f 235 237 236
f 236 234 235
f 234 236 238
f 238 233 234
usemtl APPID_206865616_2461221054496 
o vid_26 
f 239 248 249
f 240 249 250
f 241 250 251
f 242 251 252
f 243 252 253
f 244 253 254
f 245 254 255
f 239 249 240
f 240 250 241
f 241 251 242
f 242 252 243
f 243 253 244
f 244 254 245
f 245 255 246
f 246 255 256
f 246 256 247
usemtl APPID_206862032_2461221054624 
o vid_27 
f 259 258 257
f 260 261 262
f 257 262 261
f 257 261 259
f 259 261 260
f 260 258 259
f 258 260 262
f 262 257 258
usemtl APPID_206865616_2461221054496 
o vid_28 
f 263 270 271
f 264 271 272
f 265 272 273
f 266 273 274
f 267 274 275
f 263 271 264
f 264 272 265
f 265 273 266
f 266 274 267
f 267 275 268
f 268 275 276
f 268 276 269
usemtl APPID_206862032_2461221054624 
o vid_29 
f 279 278 277
f 280 281 282
f 277 282 281
f 277 281 279
f 279 281 280
f 280 278 279
f 278 280 282
f 282 277 278
usemtl APPID_206865616_2461221054496 
o vid_30 
f 283 292 293
f 284 293 294
f 285 294 295
f 286 295 296
f 287 296 297
f 288 297 298
f 289 298 299
f 283 293 284
f 284 294 285
f 285 295 286
f 286 296 287
f 287 297 288
f 288 298 289
f 289 299 290
f 290 299 300
usemtl APPID_206862032_2461221054624 
o vid_31 
f 303 302 301
f 304 305 306
f 301 306 305
f 301 305 303
f 303 305 304
f 304 302 303
f 302 304 306
f 306 301 302
usemtl APPID_206865616_2461221054496 
o vid_32 
f 307 313 314
f 308 314 315
f 309 315 316
f 310 316 317
f 307 314 308
f 308 315 309
f 309 316 310
f 310 317 311
f 311 317 318
usemtl APPID_206862032_2461221054624 
o vid_33 
f 321 320 319
f 322 323 324
f 319 324 323
f 319 323 321
f 321 323 322
f 322 320 321
f 320 322 324
f 324 319 320
usemtl APPID_206865616_2461221054496 
o vid_34 
f 325 332 333
f 326 333 334
f 327 334 335
f 328 335 336
f 329 336 337
f 325 333 326
f 326 334 327
f 327 335 328
f 328 336 329
f 329 337 330
f 330 337 338
usemtl APPID_206884208_2461221052704 
o vid_10000004 
f 339 348 349
f 340 349 350
f 341 350 351
f 342 351 352
f 343 352 353
f 344 353 354
f 345 354 355
f 339 349 340
f 340 350 341
f 341 351 342
f 342 352 343
f 343 353 344
f 344 354 345
f 345 355 346
f 346 355 356
usemtl APPID_206884208_2461221052704 
o vid_10000006 
f 357 364 365
f 358 365 366
f 359 366 367
f 360 367 368
f 361 368 369
f 357 365 358
f 358 366 359
f 359 367 360
f 360 368 361
f 361 369 362
f 362 369 370
usemtl APPID_206884208_2461221052704 
o vid_10000008 
f 371 376 377
f 372 377 378
f 373 378 379
f 371 377 372
f 372 378 373
f 373 379 374
f 374 379 380
usemtl APPID_206884208_2461221052704 
o vid_10000010 
f 381 386 387
f 382 387 388
f 383 388 389
f 381 387 382
f 382 388 383
f 383 389 384
f 384 389 390
usemtl APPID_206884208_2461221052704 
o vid_10000012 
f 391 394 395
f 391 395 392
f 392 395 396
usemtl APPID_206884208_2461221052704 
o vid_10000014 
f 397 400 401
f 397 401 398
f 398 401 402
usemtl APPID_206884208_2461221052704 
o vid_10000016 
f 403 406 407
f 403 407 404
f 404 407 408
usemtl APPID_206884208_2461221052704 
o vid_10000018 
f 409 411 412
f 409 412 410
f 409 411 412
usemtl APPID_206884208_2461221052704 
o vid_10000020 
f 413 415 416
f 413 416 414
f 413 415 416
usemtl APPID_206884208_2461221052704 
o vid_10000022 
f 417 419 420
f 417 420 418
f 417 419 420
usemtl APPID_206884208_2461221052704 
o vid_10000024 
f 421 423 424
f 421 424 422
f 421 423 424
usemtl APPID_206884208_2461221052704 
o vid_10000026 
f 425 427 428
f 425 428 426
f 425 427 428
usemtl APPID_206884208_2461221052704 
o vid_10000028 
f 429 431 432
f 429 432 430
f 429 431 432
