# File generated by PlantGL - Wed Jul 15 17:35:05 2026
v    65.251944 18.905161 0.000000
v    69.571376 18.601013 0.000000
v    67.675060 22.493825 0.000000
v    69.746976 21.094839 2.682187
v    65.427544 21.398987 2.682187
v    67.323860 17.506175 2.682187
v    69.669273 21.320624 2.594034
v    69.688008 21.326948 2.626239
v    69.876864 20.894475 2.594034
v    69.893393 20.905329 2.626239
v    69.378744 21.505407 2.682187
v    65.256098 20.874804 2.682187
v    67.863538 17.619789 2.682187
v    65.620176 18.494593 4.602934
v    69.742822 19.125196 4.602934
v    67.135382 22.380211 4.602934
v    65.802168 18.200227 4.475377
v    65.738727 18.161538 4.596399
v    65.372628 18.736446 4.475377
v    65.321025 18.682979 4.596399
v    65.340876 19.161313 4.602934
v    69.305076 18.549955 4.602934
v    67.852428 22.288732 4.602934
v    69.658044 20.838687 7.454879
v    65.693844 21.450045 7.454879
v    67.146493 17.711268 7.454879
v    69.558899 21.258159 7.274158
v    69.605723 21.270135 7.352949
v    69.868113 20.462314 7.274158
v    69.910741 20.485092 7.352949
v    69.663422 20.511898 7.454879
v    65.974162 21.618097 7.454879
v    66.860795 17.870005 7.454879
v    65.335498 19.488102 12.007949
v    69.024758 18.381903 12.007949
v    68.138125 22.129995 12.007949
v    65.381803 18.933808 11.757258
v    65.107801 18.902962 12.206756
v    64.789065 18.873498 12.727214
v    65.128549 20.004395 11.757258
v    64.869767 19.909209 12.206756
v    64.571612 19.792743 12.727214
v    66.095155 18.396392 12.007949
v    69.590377 19.585640 12.007949
v    66.812847 22.017967 12.007949
v    68.903765 21.603608 16.425721
v    65.408543 20.414360 16.425721
v    68.186073 17.982033 16.425721
v    68.415060 22.180586 16.085236
v    68.645815 22.387668 16.590677
v    69.540179 21.195302 16.085236
v    69.715005 21.451362 16.590677
v    69.218442 21.097521 16.425721
v    65.689488 20.939922 16.425721
v    67.590450 17.962557 16.425721
v    65.780478 18.902479 35.686441
v    69.309432 19.060078 35.686441
v    67.408470 22.037443 35.686441
v    66.201331 17.966299 35.233658
v    65.807132 17.776826 35.946657
v    65.108324 19.678211 35.233658
v    64.770561 19.400346 35.946657
v    65.919480 18.861621 35.686441
v    69.275315 19.200887 35.686441
v    67.303585 21.937492 35.686441
v    69.079440 21.138379 53.205783
v    65.723605 20.799113 53.205783
v    67.695335 18.062508 53.205783
v    68.509673 22.261211 52.616245
v    68.715940 22.375016 53.000286
v    70.132419 23.120109 55.602601
v    69.964172 20.242481 52.616245
v    70.137419 20.402117 53.000286
v    71.292581 21.509897 55.602601
v    69.054093 21.012481 53.205783
v    65.845309 20.840111 53.205783
v    67.598978 18.147408 53.205783
v    65.944827 18.987519 80.209650
v    69.153611 19.159889 80.209650
v    67.399942 21.852592 80.209650
v    66.619035 17.498874 79.458092
v    66.129595 17.258155 80.347253
v    64.500386 16.496808 83.271232
v    63.966534 16.223231 83.871683
v    62.562195 15.562769 85.418700
v    64.855919 20.206084 79.458092
v    64.437852 19.855774 80.347253
v    63.082753 18.673540 83.271232
v    62.616675 18.295897 83.871683
v    61.444772 17.278538 85.418700
v    65.957583 19.144816 80.209650
v    69.011010 19.092287 80.209650
v    67.529787 21.762897 80.209650
v    69.041337 20.855184 116.014694
v    65.987910 20.907713 116.014694
v    67.469133 18.237103 116.014694
v    68.254365 22.910864 115.076603
v    70.145292 23.679793 118.404297
v    70.967496 23.995190 119.836141
v    73.349375 25.009815 122.427632
v    74.770434 25.558931 123.946305
v    77.034274 26.501088 125.340218
v    70.368506 19.099119 115.076603
v    72.022030 20.296079 118.404297
v    72.724936 20.826567 119.836141
v    74.846844 22.309915 122.427632
v    76.065106 23.224669 123.946305
v    78.063037 24.646254 125.340218
v    69.114355 20.429572 116.014694
v    66.319992 21.183754 116.014694
v    67.064033 18.386674 116.014694
v    65.884565 19.570428 151.644671
v    68.678928 18.816246 151.644671
v    67.934887 21.613326 151.644671
v    66.214094 16.863274 150.498216
v    63.434675 16.472141 155.073852
v    62.676863 16.380859 156.314921
v    59.134363 15.822664 159.904609
v    57.707180 15.647205 161.338018
v    52.767270 14.910907 164.177201
v    64.825478 22.083515 150.498216
v    62.219069 21.041985 155.073852
v    61.516060 20.744679 156.314921
v    58.164418 19.468990 159.904609
v    56.838683 18.912156 161.338018
v    52.185830 17.096720 164.177201
v    66.041166 19.394647 151.644671
v    68.752858 19.039757 151.644671
v    67.704356 21.565597 151.644671
v    68.957754 20.605353 179.645358
v    66.246062 20.960243 179.645358
v    67.294564 18.434403 179.645358
v    68.199114 23.611003 178.273530
v    70.107849 24.146019 181.505062
v    72.327851 24.720819 185.233696
v    74.656170 25.415022 187.665659
v    78.129223 26.323349 191.244243
v    81.975969 27.435499 193.520538
v    82.721850 27.545141 193.938662
v    70.550702 17.946033 178.273530
v    72.277206 18.920043 181.505062
v    74.251647 20.086399 185.233696
v    76.387122 21.245163 187.665659
v    79.482446 23.063437 191.244243
v    82.985951 25.002453 193.520538
v    83.590209 25.453268 193.938662
v    68.647596 20.944713 179.645358
v    66.107246 20.521958 179.645358
v    67.743538 18.533328 179.645358
v    66.351324 19.055287 201.129392
v    68.891674 19.478042 201.129392
v    67.255382 21.466672 201.129392
v    68.231749 15.937124 199.522183
v    66.207058 14.644142 203.438441
v    63.982705 13.285289 207.676591
v    61.519134 11.654267 210.634017
v    58.027891 9.509706 214.718443
v    53.983039 6.879953 217.461036
v    52.370361 6.118782 218.450076
v    63.653658 21.501005 199.522183
v    61.994966 19.763214 203.438441
v    60.233186 17.842184 207.676591
v    58.158263 15.738827 210.634017
v    55.381506 12.725932 214.718443
v    52.022025 9.263227 217.461036
v    50.964535 7.827322 218.450076
v    66.535783 18.991726 201.129392
v    68.854490 19.669568 201.129392
v    67.108108 21.338706 201.129392
v    68.463137 21.008274 220.341894
v    66.144430 20.330432 220.341894
v    67.890812 18.661294 220.341894
v    65.683374 24.504755 218.498256
v    69.699386 27.804695 226.971807
v    75.224604 32.473516 234.551235
v    76.308384 33.332767 235.929960
v    83.680175 39.491527 241.390580
v    85.151866 40.415223 242.354255
v    86.455391 41.283652 242.669404
v    72.081711 18.389423 218.498256
v    75.196721 22.550513 226.971807
v    79.610983 28.281151 234.551235
v    80.420359 29.402668 235.929960
v    86.239557 37.045349 241.390580
v    87.095776 38.557293 242.354255
v    87.904387 39.898746 242.669404
v    68.411772 20.929805 220.341894
v    66.238070 20.325183 220.341894
v    67.848539 18.745013 220.341894
v    66.587148 19.070195 232.946400
v    68.760850 19.674817 232.946400
v    67.150381 21.254987 232.946400
v    69.718321 15.042813 230.875739
v    64.682295 11.020627 241.381536
v    58.194156 5.651060 249.811728
v    48.448826 -2.254694 257.221382
v    44.163649 -5.002934 258.531153
v    62.501029 22.124320 230.875739
v    58.575207 17.012818 241.381536
v    53.329822 10.423877 249.811728
v    45.610566 0.530168 257.221382
v    42.944200 -3.806427 258.531153
v    66.688406 19.101354 232.946400
v    68.683238 19.746930 232.946400
v    67.126737 21.151717 232.946400
v    68.310514 20.898646 239.814151
v    66.315682 20.253070 239.814151
v    67.872183 18.848283 239.814151
v    64.947316 24.943927 237.537100
v    68.161736 27.742821 244.485301
v    70.334213 29.559627 249.090044
v    74.308622 33.137105 254.442596
v    77.859726 36.121653 259.066749
v    84.049872 41.600993 263.766166
v    88.899843 44.841813 267.001304
v    88.956981 44.882283 267.015392
v    72.678322 17.966471 237.537100
v    75.134059 21.450098 244.485301
v    76.719333 23.796872 249.090044
v    79.871909 28.116078 254.442596
v    82.477921 31.953599 259.066749
v    87.295960 38.671304 263.766166
v    90.024162 43.827083 267.001304
v    90.058580 43.888057 267.015392
v    68.597272 20.213714 239.814151
v    66.765472 20.843876 239.814151
v    67.135636 18.942409 239.814151
v    66.401648 19.786286 243.686532
v    68.233448 19.156124 243.686532
v    67.863284 21.057591 243.686532
v    66.634156 14.367608 241.234836
v    64.079895 14.183153 245.409619
v    59.004074 13.918163 253.673870
v    56.001774 13.651556 256.690910
v    48.264106 13.228583 264.415771
v    42.762392 12.786153 267.553395
v    35.693051 13.177091 271.480159
v    64.584471 24.896472 241.234836
v    62.147547 24.109277 245.409619
v    57.342996 22.450826 253.673870
v    54.459934 21.571712 256.690910
v    47.128659 19.061169 264.415771
v    41.862753 17.407435 267.553395
v    35.456322 14.393128 271.480159
v    66.707775 19.346885 243.686532
v    68.460917 19.640938 243.686532
v    67.329688 21.012177 243.686532
v    68.291145 20.653115 246.345795
v    66.538003 20.359062 246.345795
v    67.669232 18.987823 246.345795
v    65.412071 25.480251 243.761209
v    66.995571 26.494336 246.826597
v    72.264987 29.722664 256.874478
v    73.988890 30.867155 258.945713
v    81.891781 35.735570 268.198623
v    85.621697 38.167353 270.729779
v    92.908050 41.617841 275.201131
v    72.483057 16.909028 243.761209
v    73.779633 18.270914 246.826597
v    77.950671 22.830659 256.874478
v    79.401962 24.305602 258.945713
v    85.683736 31.139083 268.198623
v    88.780137 34.338793 270.729779
v    93.552646 40.836482 275.201131
v    68.246495 20.560971 246.345795
v    66.640127 20.366465 246.345795
v    67.611758 19.072563 246.345795
v    66.752425 19.439029 248.048395
v    68.358793 19.633535 248.048395
v    67.387162 20.927437 248.048395
v    69.614259 14.165234 245.380642
v    66.481265 12.355068 251.279230
v    62.368503 10.086917 258.915869
v    58.591390 7.820766 263.324916
v    52.205568 4.278605 270.604401
v    45.834954 0.528198 274.806820
v    37.602539 -2.919308 279.756845
v    62.485870 23.657975 245.380642
v    59.873851 21.154036 251.279230
v    56.548800 17.836906 258.915869
v    53.319267 14.841553 263.324916
v    48.136883 9.696796 270.604401
v    42.758755 4.624714 274.806820
v    37.152336 -2.319782 279.756845
v    66.814919 19.520545 248.048395
v    68.256951 19.646897 248.048395
v    67.426511 20.832557 248.048395
v    68.184001 20.479455 248.794560
v    66.741969 20.353103 248.794560
v    67.572409 19.167443 248.794560
v    65.631553 25.671020 246.098494
v    66.781983 26.285855 248.224951
v    73.113757 29.509249 259.777369
v    83.635752 34.946757 271.589951
v    86.752208 36.645128 273.607540
v    95.815606 40.092712 278.985634
v    72.190582 16.306367 246.098494
v    73.161579 17.177387 248.224951
v    78.354903 22.026203 259.777369
v    87.061120 30.056188 271.589951
v    89.722342 32.404519 273.607540
v    96.059953 39.743845 278.985634
v    68.010001 20.364232 248.794560
v    66.928755 20.260025 248.794560
v    67.559624 19.375743 248.794560
v    66.988919 19.635768 249.457000
v    68.070165 19.739975 249.457000
v    67.439296 20.624257 249.457000
v    69.942838 13.982917 246.789247
v    63.971572 10.724678 257.878414
v    62.636886 10.030556 260.324474
v    55.059467 5.732382 269.044506
v    52.420903 4.351934 272.013006
v    41.321594 -1.822427 279.233114
v    37.834922 -3.183475 281.308991
v    30.902247 -6.109326 282.823010
v    62.604942 24.268382 246.789247
v    57.580958 19.682346 257.878414
v    56.490301 18.646170 260.324474
v    49.960331 12.879796 269.044506
v    47.796414 10.834040 272.013006
v    38.346331 2.347974 279.233114
v    35.924781 -0.506046 281.308991
v    30.902247 -6.109326 282.823010
v    69.688008 21.326948 2.626239
v    69.857969 21.384320 2.918391
v    69.929214 21.408972 3.041291
v    70.148137 21.492482 3.276164
v    70.290205 21.544277 3.427526
v    70.523761 21.634594 3.570265
v    70.796344 21.731408 3.734702
v    71.061872 21.829517 3.792780
v    71.438707 21.918936 3.870706
v    69.893393 20.905329 2.626239
v    70.043336 21.003793 2.918391
v    70.106665 21.044696 3.041291
v    70.307371 21.165601 3.276164
v    70.435729 21.245539 3.427526
v    70.650816 21.373772 3.570265
v    70.895076 21.528728 3.734702
v    71.136006 21.677332 3.792780
v    71.438707 21.918936 3.870706
v    65.738727 18.161538 4.596399
v    65.552326 18.047861 4.951983
v    65.463407 17.992705 5.122560
v    65.176011 17.801729 5.468452
v    64.997061 17.686603 5.681443
v    64.690040 17.480558 5.892208
v    64.342433 17.260996 6.125928
v    63.991901 17.033332 6.211684
v    63.488510 16.787015 6.324444
v    65.321025 18.682979 4.596399
v    65.169405 18.525883 4.951983
v    65.096172 18.451146 5.122560
v    64.847073 18.212361 5.468452
v    64.695664 18.062853 5.681443
v    64.427577 17.808205 5.892208
v    64.137440 17.516900 6.125928
v    63.838758 17.224509 6.211684
v    63.488510 16.787015 6.324444
v    69.605723 21.270135 7.352949
v    69.996845 21.370174 8.011079
v    70.104617 21.395462 8.191069
v    70.662433 21.547973 8.769920
v    70.870296 21.597285 8.982881
v    71.687973 21.813545 9.463683
v    71.954473 21.846510 9.612615
v    72.441877 21.920306 9.711800
v    69.910741 20.485092 7.352949
v    70.266805 20.675362 8.011079
v    70.363379 20.729470 8.191069
v    70.877837 20.993576 8.769920
v    71.064466 21.097538 8.982881
v    71.813657 21.490063 9.463683
v    72.032506 21.645673 9.612615
v    72.441877 21.920306 9.711800
v    64.789065 18.873498 12.727214
v    64.604140 18.856404 13.029173
v    64.279874 18.814476 13.356456
v    63.509807 18.741389 14.127552
v    62.926542 18.670904 14.461529
v    61.953780 18.685717 15.001101
v    61.943004 18.685588 15.003270
v    64.571612 19.792743 12.727214
v    64.398628 19.725172 13.029173
v    64.089944 19.617371 13.356456
v    63.368748 19.337692 14.127552
v    62.815721 19.139380 14.461529
v    61.952696 18.690301 15.001101
v    61.943004 18.685588 15.003270
v    68.645815 22.387668 16.590677
v    69.214026 22.879343 17.812738
v    69.545236 23.186577 18.264943
v    70.333459 23.869444 19.304546
v    70.929966 24.413602 19.763536
v    72.009502 25.158586 20.490994
v    72.030105 25.173647 20.496129
v    69.715005 21.451362 16.590677
v    70.127411 22.079477 17.812738
v    70.388260 22.448328 18.264943
v    70.961159 23.319757 19.304546
v    71.421856 23.982845 19.763536
v    72.017894 25.151238 20.490994
v    72.030105 25.173647 20.496129
v    65.807132 17.776826 35.946657
v    65.586754 17.670902 36.345260
v    64.923357 17.368163 37.530916
v    64.173034 16.992175 38.370987
v    63.130391 16.513278 39.514744
v    61.902583 15.910756 40.292221
v    60.533218 15.455875 41.092500
v    60.183783 15.329149 41.167288
v    64.770561 19.400346 35.946657
v    64.581734 19.245005 36.345260
v    64.027939 18.770602 37.530916
v    63.371118 18.248168 38.370987
v    62.497931 17.503863 39.514744
v    61.434678 16.643608 40.292221
v    60.445789 15.592811 41.092500
v    60.183783 15.329149 41.167288
v    70.132419 23.120109 55.602601
v    72.421061 24.339223 58.190354
v    73.025349 24.679087 58.584473
v    75.173698 25.529306 59.865898
v    71.292581 21.509897 55.602601
v    73.173470 23.294940 58.190354
v    73.687143 23.760569 58.584473
v    75.173698 25.529306 59.865898
v    62.562195 15.562769 85.418700
v    61.522411 15.073759 86.564123
v    60.367288 14.493895 87.298862
v    57.580529 13.540130 88.932459
v    61.444772 17.278538 85.418700
v    60.577086 16.525277 86.564123
v    59.579667 15.703262 87.298862
v    57.580529 13.540130 88.932459
v    77.034274 26.501088 125.340218
v    78.353999 27.050327 126.152811
v    80.205622 27.540689 127.215153
v    82.099581 28.097790 127.612369
v    78.063037 24.646254 125.340218
v    79.227748 25.474979 126.152811
v    80.624148 26.786096 127.215153
v    82.099581 28.097790 127.612369
v    52.767270 14.910907 164.177201
v    52.500663 14.871169 164.330432
v    50.693258 14.848624 165.332927
v    47.685017 14.729236 165.938673
v    52.185830 17.096720 164.177201
v    51.934716 16.998741 164.330432
v    50.354987 16.120288 165.332927
v    47.685017 14.729236 165.938673
v    82.721850 27.545141 193.938662
v    86.442695 28.092095 196.024481
v    87.394182 28.258506 196.218830
v    83.590209 25.453268 193.938662
v    86.604560 27.702164 196.024481
v    87.394182 28.258506 196.218830
v    52.370361 6.118782 218.450076
v    49.323177 4.680537 220.318885
v    48.176698 4.100782 220.577378
v    50.964535 7.827322 218.450076
v    48.966389 5.114152 220.318885
v    48.176698 4.100782 220.577378
v    86.455391 41.283652 242.669404
v    90.271817 43.826215 243.592089
v    87.904387 39.898746 242.669404
v    90.271817 43.826215 243.592089
v    44.163649 -5.002934 258.531153
v    40.882615 -7.127212 259.317594
v    42.944200 -3.806427 258.531153
v    40.882615 -7.127212 259.317594
v    88.956981 44.882283 267.015392
v    91.727480 46.844591 267.698488
v    90.058580 43.888057 267.015392
v    91.727480 46.844591 267.698488
v    35.693051 13.177091 271.480159
v    33.168541 13.316698 272.882433
v    35.456322 14.393128 271.480159
v    33.168541 13.316698 272.882433
v    92.908050 41.617841 275.201131
v    94.776405 42.502609 276.347668
v    93.552646 40.836482 275.201131
v    94.776405 42.502609 276.347668
v    37.602539 -2.919308 279.756845
v    37.363815 -3.019279 279.900386
v    36.064689 -3.605328 280.187141
v    37.152336 -2.319782 279.756845
v    36.989761 -2.521159 279.900386
v    36.064689 -3.605328 280.187141
v    95.815606 40.092712 278.985634
v    96.628074 40.401762 279.467741
v    96.059953 39.743845 278.985634
v    96.628074 40.401762 279.467741
mtllib usm_2_Beer_2018-09-02_1.mtl
usemtl APPID_2260609824_2287204128992 
o vid_3 
f 3 2 1
f 4 5 6
f 1 6 5
f 1 5 3
f 3 5 4
f 4 2 3
f 2 4 6
f 6 1 2
usemtl APPID_2260608256_2287204126688 
o vid_4 
f 7 9 10
f 7 10 8
f 7 9 10
f 7 10 8
usemtl APPID_2260609824_2287204128992 
o vid_5 
f 13 12 11
f 14 15 16
f 11 16 15
f 11 15 13
f 13 15 14
f 14 12 13
f 12 14 16
f 16 11 12
usemtl APPID_2260608256_2287204126688 
o vid_6 
f 17 19 20
f 17 20 18
f 17 19 20
f 17 20 18
usemtl APPID_2260609824_2287204128992 
o vid_7 
f 23 22 21
f 24 25 26
f 21 26 25
f 21 25 23
f 23 25 24
f 24 22 23
f 22 24 26
f 26 21 22
usemtl APPID_2260608256_2287204126688 
o vid_8 
f 27 29 30
f 27 30 28
f 27 29 30
f 27 30 28
usemtl APPID_2260609824_2287204128992 
o vid_9 
f 33 32 31
f 34 35 36
f 31 36 35
f 31 35 33
f 33 35 34
f 34 32 33
f 32 34 36
f 36 31 32
usemtl APPID_2260608256_2287204126688 
o vid_10 
f 37 40 41
f 37 41 38
f 38 41 42
f 38 42 39
usemtl APPID_2260609824_2287204128992 
o vid_11 
f 45 44 43
f 46 47 48
f 43 48 47
f 43 47 45
f 45 47 46
f 46 44 45
f 44 46 48
f 48 43 44
usemtl APPID_2260608256_2287204126688 
o vid_12 
f 49 51 52
f 49 52 50
f 49 51 52
f 49 52 50
usemtl APPID_2260609824_2287204128992 
o vid_13 
f 55 54 53
f 56 57 58
f 53 58 57
f 53 57 55
f 55 57 56
f 56 54 55
f 54 56 58
f 58 53 54
usemtl APPID_2260608256_2287204126688 
o vid_14 
f 59 61 62
f 59 62 60
f 59 61 62
f 59 62 60
usemtl APPID_2260609824_2287204128992 
o vid_15 
f 65 64 63
f 66 67 68
f 63 68 67
f 63 67 65
f 65 67 66
f 66 64 65
f 64 66 68
f 68 63 64
usemtl APPID_2260608256_2287204126688 
o vid_16 
f 69 72 73
f 69 73 70
f 70 73 74
f 70 74 71
usemtl APPID_2260609824_2287204128992 
o vid_17 
f 77 76 75
f 78 79 80
f 75 80 79
f 75 79 77
f 77 79 78
f 78 76 77
f 76 78 80
f 80 75 76
usemtl APPID_2260608256_2287204126688 
o vid_18 
f 81 86 87
f 82 87 88
f 83 88 89
f 81 87 82
f 82 88 83
f 83 89 84
f 84 89 90
f 84 90 85
usemtl APPID_2260609824_2287204128992 
o vid_19 
f 93 92 91
f 94 95 96
f 91 96 95
f 91 95 93
f 93 95 94
f 94 92 93
f 92 94 96
f 96 91 92
usemtl APPID_2260608256_2287204126688 
o vid_20 
f 97 103 104
f 98 104 105
f 99 105 106
f 100 106 107
f 97 104 98
f 98 105 99
f 99 106 100
f 100 107 101
f 101 107 108
f 101 108 102
usemtl APPID_2260609824_2287204128992 
o vid_21 
f 111 110 109
f 112 113 114
f 109 114 113
f 109 113 111
f 111 113 112
f 112 110 111
f 110 112 114
f 114 109 110
usemtl APPID_2260608256_2287204126688 
o vid_22 
f 115 121 122
f 116 122 123
f 117 123 124
f 118 124 125
f 115 122 116
f 116 123 117
f 117 124 118
f 118 125 119
f 119 125 126
f 119 126 120
usemtl APPID_2260609824_2287204128992 
o vid_23 
f 129 128 127
f 130 131 132
f 127 132 131
f 127 131 129
f 129 131 130
f 130 128 129
f 128 130 132
f 132 127 128
usemtl APPID_2260608256_2287204126688 
o vid_24 
f 133 140 141
f 134 141 142
f 135 142 143
f 136 143 144
f 137 144 145
f 133 141 134
f 134 142 135
f 135 143 136
f 136 144 137
f 137 145 138
f 138 145 146
f 138 146 139
usemtl APPID_2260609824_2287204128992 
o vid_25 
f 149 148 147
f 150 151 152
f 147 152 151
f 147 151 149
f 149 151 150
f 150 148 149
f 148 150 152
f 152 147 148
usemtl APPID_2260608256_2287204126688 
o vid_26 
f 153 160 161
f 154 161 162
f 155 162 163
f 156 163 164
f 157 164 165
f 153 161 154
f 154 162 155
f 155 163 156
f 156 164 157
f 157 165 158
f 158 165 166
f 158 166 159
usemtl APPID_2260609824_2287204128992 
o vid_27 
f 169 168 167
f 170 171 172
f 167 172 171
f 167 171 169
f 169 171 170
f 170 168 169
f 168 170 172
f 172 167 168
usemtl APPID_2260608256_2287204126688 
o vid_28 
f 173 180 181
f 174 181 182
f 175 182 183
f 176 183 184
f 177 184 185
f 173 181 174
f 174 182 175
f 175 183 176
f 176 184 177
f 177 185 178
f 178 185 186
f 178 186 179
usemtl APPID_2260609824_2287204128992 
o vid_29 
f 189 188 187
f 190 191 192
f 187 192 191
f 187 191 189
f 189 191 190
f 190 188 189
f 188 190 192
f 192 187 188
usemtl APPID_2260608256_2287204126688 
o vid_30 
f 193 198 199
f 194 199 200
f 195 200 201
f 193 199 194
f 194 200 195
f 195 201 196
f 196 201 202
f 196 202 197
usemtl APPID_2260609824_2287204128992 
o vid_31 
f 205 204 203
f 206 207 208
f 203 208 207
f 203 207 205
f 205 207 206
f 206 204 205
f 204 206 208
f 208 203 204
usemtl APPID_2260608256_2287204126688 
o vid_32 
f 209 217 218
f 210 218 219
f 211 219 220
f 212 220 221
f 213 221 222
f 214 222 223
f 209 218 210
f 210 219 211
f 211 220 212
f 212 221 213
f 213 222 214
f 214 223 215
f 215 223 224
f 215 224 216
usemtl APPID_2260609824_2287204128992 
o vid_33 
f 227 226 225
f 228 229 230
f 225 230 229
f 225 229 227
f 227 229 228
f 228 226 227
f 226 228 230
f 230 225 226
usemtl APPID_2260608256_2287204126688 
o vid_34 
f 231 238 239
f 232 239 240
f 233 240 241
f 234 241 242
f 235 242 243
f 231 239 232
f 232 240 233
f 233 241 234
f 234 242 235
f 235 243 236
f 236 243 244
f 236 244 237
usemtl APPID_2260609824_2287204128992 
o vid_35 
f 247 246 245
f 248 249 250
f 245 250 249
f 245 249 247
f 247 249 248
f 248 246 247
f 246 248 250
f 250 245 246
usemtl APPID_2260608256_2287204126688 
o vid_36 
f 251 258 259
f 252 259 260
f 253 260 261
f 254 261 262
f 255 262 263
f 251 259 252
f 252 260 253
f 253 261 254
f 254 262 255
f 255 263 256
f 256 263 264
f 256 264 257
usemtl APPID_2260609824_2287204128992 
o vid_37 
f 267 266 265
f 268 269 270
f 265 270 269
f 265 269 267
f 267 269 268
f 268 266 267
f 266 268 270
f 270 265 266
usemtl APPID_2260608256_2287204126688 
o vid_38 
f 271 278 279
f 272 279 280
f 273 280 281
f 274 281 282
f 275 282 283
f 271 279 272
f 272 280 273
f 273 281 274
f 274 282 275
f 275 283 276
f 276 283 284
f 276 284 277
usemtl APPID_2260609824_2287204128992 
o vid_39 
f 287 286 285
f 288 289 290
f 285 290 289
f 285 289 287
f 287 289 288
f 288 286 287
f 286 288 290
f 290 285 286
usemtl APPID_2260608256_2287204126688 
o vid_40 
f 291 297 298
f 292 298 299
f 293 299 300
f 294 300 301
f 291 298 292
f 292 299 293
f 293 300 294
f 294 301 295
f 295 301 302
f 295 302 296
usemtl APPID_2260609824_2287204128992 
o vid_41 
f 305 304 303
f 306 307 308
f 303 308 307
f 303 307 305
f 305 307 306
f 306 304 305
f 304 306 308
f 308 303 304
usemtl APPID_2260608256_2287204126688 
o vid_42 
f 309 317 318
f 310 318 319
f 311 319 320
f 312 320 321
f 313 321 322
f 314 322 323
f 309 318 310
f 310 319 311
f 311 320 312
f 312 321 313
f 313 322 314
f 314 323 315
f 315 323 324
usemtl APPID_2260597840_2287204126816 
o vid_10000004 
f 325 334 335
f 326 335 336
f 327 336 337
f 328 337 338
f 329 338 339
f 330 339 340
f 331 340 341
f 325 335 326
f 326 336 327
f 327 337 328
f 328 338 329
f 329 339 330
f 330 340 331
f 331 341 332
f 332 341 342
usemtl APPID_2260597840_2287204126816 
o vid_10000006 
f 343 352 353
f 344 353 354
f 345 354 355
f 346 355 356
f 347 356 357
f 348 357 358
f 349 358 359
f 343 353 344
f 344 354 345
f 345 355 346
f 346 356 347
f 347 357 348
f 348 358 349
f 349 359 350
f 350 359 360
usemtl APPID_2260597840_2287204126816 
o vid_10000008 
f 361 369 370
f 362 370 371
f 363 371 372
f 364 372 373
f 365 373 374
f 366 374 375
f 361 370 362
f 362 371 363
f 363 372 364
f 364 373 365
f 365 374 366
f 366 375 367
f 367 375 376
usemtl APPID_2260597840_2287204126816 
o vid_10000010 
f 377 384 385
f 378 385 386
f 379 386 387
f 380 387 388
f 381 388 389
f 377 385 378
f 378 386 379
f 379 387 380
f 380 388 381
f 381 389 382
f 382 389 390
usemtl APPID_2260597840_2287204126816 
o vid_10000012 
f 391 398 399
f 392 399 400
f 393 400 401
f 394 401 402
f 395 402 403
f 391 399 392
f 392 400 393
f 393 401 394
f 394 402 395
f 395 403 396
f 396 403 404
usemtl APPID_2260597840_2287204126816 
o vid_10000014 
f 405 413 414
f 406 414 415
f 407 415 416
f 408 416 417
f 409 417 418
f 410 418 419
f 405 414 406
f 406 415 407
f 407 416 408
f 408 417 409
f 409 418 410
f 410 419 411
f 411 419 420
usemtl APPID_2260597840_2287204126816 
o vid_10000016 
f 421 425 426
f 422 426 427
f 421 426 422
f 422 427 423
f 423 427 428
usemtl APPID_2260597840_2287204126816 
o vid_10000018 
f 429 433 434
f 430 434 435
f 429 434 430
f 430 435 431
f 431 435 436
usemtl APPID_2260597840_2287204126816 
o vid_10000020 
f 437 441 442
f 438 442 443
f 437 442 438
f 438 443 439
f 439 443 444
usemtl APPID_2260597840_2287204126816 
o vid_10000022 
f 445 449 450
f 446 450 451
f 445 450 446
f 446 451 447
f 447 451 452
usemtl APPID_2260597840_2287204126816 
o vid_10000024 
f 453 456 457
f 453 457 454
f 454 457 458
usemtl APPID_2260597840_2287204126816 
o vid_10000026 
f 459 462 463
f 459 463 460
f 460 463 464
usemtl APPID_2260597840_2287204126816 
o vid_10000028 
f 465 467 468
f 465 468 466
f 465 467 468
usemtl APPID_2260597840_2287204126816 
o vid_10000030 
f 469 471 472
f 469 472 470
f 469 471 472
usemtl APPID_2260597840_2287204126816 
o vid_10000032 
f 473 475 476
f 473 476 474
f 473 475 476
usemtl APPID_2260597840_2287204126816 
o vid_10000034 
f 477 479 480
f 477 480 478
f 477 479 480
usemtl APPID_2260597840_2287204126816 
o vid_10000036 
f 481 483 484
f 481 484 482
f 481 483 484
usemtl APPID_2260597840_2287204126816 
o vid_10000038 
f 485 488 489
f 485 489 486
f 486 489 490
usemtl APPID_2260597840_2287204126816 
o vid_10000040 
f 491 493 494
f 491 494 492
f 491 493 494
