# File generated by PlantGL - Wed Jul 15 17:36:41 2026
v    20.701807 59.124129 0.000000
v    24.157353 58.880811 0.000000
v    22.640300 61.995060 0.000000
v    24.297833 60.875871 3.802806
v    20.842287 61.119189 3.802806
v    22.359340 58.004940 3.802806
v    23.894383 61.518628 3.539517
v    24.795737 61.864825 4.387391
v    25.755549 62.246069 4.986803
v    26.160972 62.400712 5.238364
v    27.529866 62.937505 5.631656
v    28.894756 63.441421 5.620506
v    29.575419 63.659958 5.411052
v    30.224285 63.762840 5.225052
v    24.555252 60.161978 3.539517
v    25.383470 60.658311 4.387391
v    26.275318 61.179073 4.986803
v    26.646999 61.402982 5.238364
v    27.913498 62.149975 5.631656
v    29.151640 62.914082 5.620506
v    29.743297 63.315334 5.411052
v    30.224285 63.762840 5.225052
v    23.995716 61.198293 3.802806
v    20.714120 60.696338 3.802806
v    22.789624 58.105369 3.802806
v    21.003924 58.801707 8.831485
v    24.285520 59.303662 8.831485
v    22.210016 61.894631 8.831485
v    21.810752 57.989752 8.435758
v    20.603887 57.183794 9.710122
v    19.278252 56.276533 10.642461
v    18.780190 55.945583 10.989145
v    16.950963 54.705412 11.580268
v    15.117699 53.513549 11.563510
v    14.141406 52.935351 11.230974
v    13.224164 52.569705 10.951412
v    20.387642 59.766300 8.435758
v    19.337705 58.764440 9.710122
v    18.162985 57.668784 10.642461
v    17.731307 57.254962 10.989145
v    16.121789 55.740516 11.580268
v    14.558534 54.211586 11.563510
v    13.781191 53.385028 11.230974
v    13.224164 52.569705 10.951412
v    20.790941 59.336039 8.831485
v    23.929266 58.852048 8.831485
v    22.779253 61.811913 8.831485
v    24.208699 60.663961 19.751381
v    21.070374 61.147952 19.751381
v    22.220387 58.188087 19.751381
v    23.422220 62.199194 19.177304
v    25.443184 62.789085 21.026011
v    28.497359 63.718411 22.878900
v    31.572865 64.639465 23.739011
v    32.868258 65.031251 23.728619
v    34.619650 65.513865 23.714701
v    35.759237 65.822591 23.367191
v    37.148160 66.139758 22.949985
v    38.576647 66.246424 22.544428
v    24.665044 59.000459 19.177304
v    26.554133 59.929764 21.026011
v    29.434571 61.306248 22.878900
v    32.325160 62.703235 23.739011
v    33.545259 63.288808 23.728619
v    35.163063 64.115248 23.714701
v    36.212150 64.656899 23.367191
v    37.450866 65.360665 22.949985
v    38.576647 66.246424 22.544428
v    24.202820 60.402854 19.751381
v    21.299438 61.273414 19.751381
v    21.997202 58.323732 19.751381
v    20.796820 59.597146 37.004359
v    23.700202 58.726586 37.004359
v    23.002438 61.676268 37.004359
v    21.579035 57.367588 36.200543
v    18.662459 56.939618 38.789079
v    14.941082 56.350207 40.975892
v    9.802305 55.566069 42.587791
v    8.733024 55.398552 42.579480
v    5.403517 54.961269 42.553751
v    2.551200 54.679727 41.712969
v    0.549559 54.807539 41.145113
v    20.497200 61.940863 36.200543
v    17.697994 61.016732 38.789079
v    14.106953 59.876348 40.975892
v    9.161491 58.275002 42.587791
v    8.130485 57.945684 42.579480
v    4.957940 56.844869 42.553751
v    2.281789 55.818619 41.712969
v    0.549559 54.807539 41.145113
v    21.401804 58.746150 37.004359
v    24.134694 59.676015 37.004359
v    21.962962 61.577834 37.004359
v    23.597836 61.253850 60.161104
v    20.864946 60.323985 60.161104
v    23.036678 58.422166 60.161104
v    20.783346 63.273114 59.074792
v    21.709538 64.212282 60.235389
v    22.566801 65.081554 61.309612
v    23.604755 66.077950 62.573056
v    27.920805 70.316641 66.084109
v    30.762057 73.151316 67.158594
v    32.230650 74.580987 67.706805
v    36.512046 78.771537 67.660802
v    41.083969 83.017675 65.823724
v    42.228746 83.992684 65.383371
v    45.221650 85.946578 63.477938
v    25.970791 58.730387 59.074792
v    26.779547 59.772395 60.235389
v    27.528112 60.736855 61.309612
v    28.378850 61.897199 62.573056
v    32.011026 66.734770 66.084109
v    34.446045 69.925189 67.158594
v    35.669451 71.569574 67.706805
v    39.258480 76.366442 67.660802
v    42.864277 81.458630 65.823724
v    43.679721 82.722042 65.383371
v    45.221650 85.946578 63.477938
v    23.834342 60.852054 60.161104
v    21.094659 60.729703 60.161104
v    22.570460 58.418243 60.161104
v    21.165298 59.147946 120.608341
v    23.904981 59.270297 120.608341
v    22.429180 61.581757 120.608341
v    23.981689 55.549050 119.191357
v    20.950000 53.857142 122.246162
v    12.487300 49.310223 128.334300
v    6.905896 46.254516 130.037826
v    -1.347933 41.842518 130.390935
v    -3.153363 40.884014 129.787837
v    -9.612147 37.666269 127.663944
v    -15.779675 35.559634 124.370442
v    19.085739 63.217287 119.191357
v    16.275157 61.179072 122.246162
v    8.589223 55.415550 128.334300
v    3.468523 51.638268 130.037826
v    -4.007121 46.007447 130.390935
v    -5.636372 44.773005 129.787837
v    -11.273277 40.267998 127.663944
v    -15.779675 35.559634 124.370442
v    21.441650 59.237586 120.608341
v    23.689175 59.464805 120.608341
v    22.368635 61.297609 120.608341
v    23.557990 60.762414 169.852856
v    21.310465 60.535195 169.852856
v    22.631005 58.702391 169.852856
v    19.872218 64.936586 168.068887
v    21.673807 66.079051 169.945931
v    25.456833 68.335233 173.813822
v    33.930582 73.520610 179.579760
v    37.297107 75.617358 180.641554
v    42.422780 78.723114 182.244590
v    49.535845 83.059432 182.180621
v    57.477457 87.596426 179.921781
v    61.407923 89.634056 178.625293
v    65.366113 90.885265 176.613254
v    26.350785 55.944850 168.068887
v    28.004791 57.292149 169.945931
v    31.342463 60.166447 173.813822
v    38.943541 66.563021 179.579760
v    41.998135 69.092704 180.641554
v    46.566706 72.971674 182.244590
v    52.931665 78.346304 182.180621
v    59.749256 84.443350 179.921781
v    62.926287 87.526688 178.625293
v    65.366113 90.885265 176.613254
v    23.346504 60.551417 169.852856
v    21.598937 60.457541 169.852856
v    22.554019 58.991042 169.852856
v    21.653136 59.448583 207.293597
v    23.400703 59.542459 207.293597
v    22.445621 61.008958 207.293597
v    25.568027 54.662739 205.125785
v    18.556059 50.916541 212.106812
v    11.867839 47.244842 216.535145
v    7.940568 45.158316 219.113361
v    -2.688465 39.383716 222.348860
v    -12.918640 34.115318 222.263476
v    -17.822663 31.856012 220.821247
v    -23.019410 30.354841 219.289796
v    18.858957 64.964309 205.125785
v    12.597389 60.065895 212.106812
v    6.534865 55.433460 216.535145
v    3.038533 52.685240 219.113361
v    -6.540775 45.298820 222.348860
v    -15.495831 38.072515 222.263476
v    -19.545136 34.500817 220.821247
v    -23.019410 30.354841 219.289796
v    21.850380 59.639796 207.293597
v    23.136486 59.617671 207.293597
v    22.512594 60.742534 207.293597
v    23.149260 60.360204 229.358156
v    21.863154 60.382329 229.358156
v    22.487046 59.257466 229.358156
v    18.908471 66.389213 226.815617
v    27.423000 70.189618 235.003384
v    37.002250 74.596692 241.123358
v    40.309804 76.063842 243.221085
v    53.235237 81.941821 247.019041
v    66.130913 87.515117 246.911371
v    73.167995 90.219073 244.701641
v    79.372422 91.543736 242.905464
v    26.018296 53.570369 226.815617
v    33.750609 58.781089 235.003384
v    42.561331 64.573802 241.123358
v    45.557259 66.602806 243.221085
v    57.387548 74.455304 247.019041
v    68.943613 82.443886 246.911371
v    74.963497 86.981825 244.701641
v    79.372422 91.543736 242.905464
v    22.983902 60.128769 229.358156
v    22.146262 60.354843 229.358156
v    22.369296 59.516389 229.358156
v    22.015738 59.871231 237.952000
v    22.853378 59.645157 237.952000
v    22.630344 60.483611 237.952000
v    25.410619 53.098010 232.133067
v    15.772744 51.478841 242.223345
v    0.740873 48.950968 252.790318
v    -4.064053 48.084756 254.529495
v    -14.758155 46.446197 258.373717
v    -18.498266 45.850222 258.650774
v    -25.868546 44.965556 259.191265
v    -30.730034 45.088476 259.534422
v    -33.267200 45.165629 259.024496
v    21.596619 67.436023 232.133067
v    12.428056 64.052564 242.223345
v    -1.873091 58.777674 252.790318
v    -6.473349 57.142049 254.529495
v    -16.568175 53.250626 258.373717
v    -20.110082 51.909539 258.650774
v    -26.945808 49.015319 259.191265
v    -31.103696 46.493190 259.534422
v    -33.267200 45.165629 259.024496
mtllib usm_12_2.5D_2018-09-05_1.mtl
usemtl APPID_3776987360_2817002569184 
o vid_3 
f 3 2 1
f 4 5 6
f 1 6 5
f 1 5 3
f 3 5 4
f 4 2 3
f 2 4 6
f 6 1 2
usemtl APPID_3776987024_2817002564192 
o vid_4 
f 7 15 16
f 8 16 17
f 9 17 18
f 10 18 19
f 11 19 20
f 12 20 21
f 7 16 8
f 8 17 9
f 9 18 10
f 10 19 11
f 11 20 12
f 12 21 13
f 13 21 22
usemtl APPID_3776987360_2817002569184 
o vid_5 
f 25 24 23
f 26 27 28
f 23 28 27
f 23 27 25
f 25 27 26
f 26 24 25
f 24 26 28
f 28 23 24
usemtl APPID_3776987024_2817002564192 
o vid_6 
f 29 37 38
f 30 38 39
f 31 39 40
f 32 40 41
f 33 41 42
f 34 42 43
f 29 38 30
f 30 39 31
f 31 40 32
f 32 41 33
f 33 42 34
f 34 43 35
f 35 43 44
usemtl APPID_3776987360_2817002569184 
o vid_7 
f 47 46 45
f 48 49 50
f 45 50 49
f 45 49 47
f 47 49 48
f 48 46 47
f 46 48 50
f 50 45 46
usemtl APPID_3776987024_2817002564192 
o vid_8 
f 51 60 61
f 52 61 62
f 53 62 63
f 54 63 64
f 55 64 65
f 56 65 66
f 57 66 67
f 51 61 52
f 52 62 53
f 53 63 54
f 54 64 55
f 55 65 56
f 56 66 57
f 57 67 58
f 58 67 68
usemtl APPID_3776987360_2817002569184 
o vid_9 
f 71 70 69
f 72 73 74
f 69 74 73
f 69 73 71
f 71 73 72
f 72 70 71
f 70 72 74
f 74 69 70
usemtl APPID_3776987024_2817002564192 
o vid_10 
f 75 83 84
f 76 84 85
f 77 85 86
f 78 86 87
f 79 87 88
f 80 88 89
f 75 84 76
f 76 85 77
f 77 86 78
f 78 87 79
f 79 88 80
f 80 89 81
f 81 89 90
usemtl APPID_3776987360_2817002569184 
o vid_11 
f 93 92 91
f 94 95 96
f 91 96 95
f 91 95 93
f 93 95 94
f 94 92 93
f 92 94 96
f 96 91 92
usemtl APPID_3776987024_2817002564192 
o vid_12 
f 97 108 109
f 98 109 110
f 99 110 111
f 100 111 112
f 101 112 113
f 102 113 114
f 103 114 115
f 104 115 116
f 105 116 117
f 97 109 98
f 98 110 99
f 99 111 100
f 100 112 101
f 101 113 102
f 102 114 103
f 103 115 104
f 104 116 105
f 105 117 106
f 106 117 118
usemtl APPID_3776987360_2817002569184 
o vid_13 
f 121 120 119
f 122 123 124
f 119 124 123
f 119 123 121
f 121 123 122
f 122 120 121
f 120 122 124
f 124 119 120
usemtl APPID_3776987024_2817002564192 
o vid_14 
f 125 133 134
f 126 134 135
f 127 135 136
f 128 136 137
f 129 137 138
f 130 138 139
f 125 134 126
f 126 135 127
f 127 136 128
f 128 137 129
f 129 138 130
f 130 139 131
f 131 139 140
usemtl APPID_3776987360_2817002569184 
o vid_15 
f 143 142 141
f 144 145 146
f 141 146 145
f 141 145 143
f 143 145 144
f 144 142 143
f 142 144 146
f 146 141 142
usemtl APPID_3776987024_2817002564192 
o vid_16 
f 147 157 158
f 148 158 159
f 149 159 160
f 150 160 161
f 151 161 162
f 152 162 163
f 153 163 164
f 154 164 165
f 147 158 148
f 148 159 149
f 149 160 150
f 150 161 151
f 151 162 152
f 152 163 153
f 153 164 154
f 154 165 155
f 155 165 166
usemtl APPID_3776987360_2817002569184 
o vid_17 
f 169 168 167
f 170 171 172
f 167 172 171
f 167 171 169
f 169 171 170
f 170 168 169
f 168 170 172
f 172 167 168
usemtl APPID_3776987024_2817002564192 
o vid_18 
f 173 181 182
f 174 182 183
f 175 183 184
f 176 184 185
f 177 185 186
f 178 186 187
f 173 182 174
f 174 183 175
f 175 184 176
f 176 185 177
f 177 186 178
f 178 187 179
f 179 187 188
usemtl APPID_3776987360_2817002569184 
o vid_19 
f 191 190 189
f 192 193 194
f 189 194 193
f 189 193 191
f 191 193 192
f 192 190 191
f 190 192 194
f 194 189 190
usemtl APPID_3776987024_2817002564192 
o vid_20 
f 195 203 204
f 196 204 205
f 197 205 206
f 198 206 207
f 199 207 208
f 200 208 209
f 195 204 196
f 196 205 197
f 197 206 198
f 198 207 199
f 199 208 200
f 200 209 201
f 201 209 210
usemtl APPID_3776987360_2817002569184 
o vid_21 
f 213 212 211
f 214 215 216
f 211 216 215
f 211 215 213
f 213 215 214
f 214 212 213
f 212 214 216
f 216 211 212
usemtl APPID_3776987024_2817002564192 
o vid_22 
f 217 226 227
f 218 227 228
f 219 228 229
f 220 229 230
f 221 230 231
f 222 231 232
f 223 232 233
f 217 227 218
f 218 228 219
f 219 229 220
f 220 230 221
f 221 231 222
f 222 232 223
f 223 233 224
f 224 233 234
