# File generated by PlantGL - Wed Jul 15 17:35:30 2026
v    20.750802 19.147996 0.000000
v    24.112186 18.911308 0.000000
v    22.636472 21.940696 0.000000
v    24.248838 20.852004 3.802807
v    20.887454 21.088692 3.802807
v    22.363168 18.059304 3.802807
v    23.873760 21.459720 3.572455
v    24.660039 21.767364 4.314260
v    25.852201 22.240898 5.058777
v    26.227648 22.393466 5.167273
v    27.047663 22.715024 5.402869
v    27.945077 23.069738 5.395459
v    28.232428 23.175152 5.393114
v    29.059357 23.474455 5.134269
v    29.604252 23.647332 4.966862
v    30.143724 23.723596 4.729196
v    24.496154 20.182051 3.572455
v    25.223079 20.611538 4.314260
v    26.330825 21.258365 5.058777
v    26.682394 21.459950 5.167273
v    27.441071 21.907425 5.402869
v    28.273566 22.395406 5.395459
v    28.533701 22.556691 5.393114
v    29.279116 23.023328 5.134269
v    29.751128 23.345820 4.966862
v    30.143724 23.723596 4.729196
v    23.721220 20.978407 3.802807
v    21.041795 20.568560 3.802807
v    22.736445 18.453033 3.802807
v    21.278420 19.021593 8.831486
v    23.957845 19.431440 8.831486
v    22.263195 21.546967 8.831486
v    22.043063 18.241630 8.477650
v    20.967659 17.516366 9.617112
v    19.341606 16.403500 10.760739
v    18.915379 16.106830 10.899768
v    17.710015 15.289622 11.289287
v    16.573731 14.514752 11.278726
v    16.088842 14.201427 11.274303
v    15.037669 13.528609 10.906957
v    14.279722 13.085223 10.649809
v    13.490221 12.782831 10.306117
v    20.684152 19.938036 8.477650
v    19.741656 19.046855 9.617112
v    18.300719 17.702899 10.760739
v    17.918173 17.351699 10.899768
v    16.857586 16.353758 11.289287
v    15.853392 15.413992 11.278726
v    15.441790 15.009180 11.274303
v    14.555764 14.130199 10.906957
v    13.957639 13.487298 10.649809
v    13.490221 12.782831 10.306117
v    21.371532 19.561620 8.831486
v    23.443613 19.242064 8.831486
v    22.684316 21.196317 8.831486
v    23.628108 20.438380 19.751819
v    21.556027 20.757936 19.751819
v    22.315324 18.803683 19.751819
v    22.884535 21.906179 19.228216
v    23.658482 22.155272 19.943598
v    24.719720 22.465032 20.914381
v    27.509237 23.313828 22.606710
v    28.849963 23.733361 22.982809
v    30.304185 24.168893 23.388849
v    32.883330 24.948944 23.368159
v    35.464362 25.649041 22.636502
v    36.687967 25.928457 22.268954
v    37.928429 25.994568 21.615557
v    24.070575 18.853591 19.228216
v    24.809675 19.192371 19.943598
v    25.801664 19.680363 20.914381
v    28.432499 20.937569 22.606710
v    29.704773 21.533280 22.982809
v    31.071573 22.193816 23.388849
v    33.500809 23.359700 23.368159
v    35.877454 24.585839 22.636502
v    36.968731 25.205838 22.268954
v    37.928429 25.994568 21.615557
v    23.358133 20.203039 19.751819
v    21.894827 20.641801 19.751819
v    22.246500 19.155160 19.751819
v    21.641507 19.796961 37.016277
v    23.104813 19.358199 37.016277
v    22.753140 20.844840 37.016277
v    22.390775 17.629790 36.269841
v    19.684076 17.225264 38.673598
v    15.578561 16.575011 41.086143
v    11.460887 15.930758 42.201144
v    8.843809 15.520757 42.180803
v    7.385538 15.329235 42.169534
v    5.014354 15.028243 41.466015
v    3.168815 14.868751 40.923547
v    2.044719 14.940528 40.604646
v    1.370089 15.001640 40.248968
v    21.340384 22.070144 36.269841
v    18.739314 21.219086 38.673598
v    14.777589 19.960987 41.086143
v    10.807681 18.692076 42.201144
v    8.284281 17.886066 42.180803
v    6.894758 17.403927 42.169534
v    4.640031 16.610632 41.466015
v    2.918635 15.926345 40.923547
v    1.945837 15.358535 40.604646
v    1.370089 15.001640 40.248968
v    22.117984 19.563973 37.016277
v    23.068348 19.887334 37.016277
v    22.313127 20.548693 37.016277
v    22.881656 20.436027 49.235000
v    21.931292 20.112666 49.235000
v    22.686513 19.451307 49.235000
v    20.841037 21.876200 47.138525
v    21.809051 22.718316 49.479155
v    22.676320 23.436347 51.525709
v    25.548275 26.014494 56.140915
v    28.811808 28.902640 59.369407
v    29.510366 29.468424 59.992432
v    30.630600 30.417473 60.511101
v    32.775056 31.733527 61.369431
v    24.578478 18.603264 47.138525
v    25.285512 19.673924 49.479155
v    25.882838 20.628348 51.525709
v    28.059520 23.815356 56.140915
v    30.491827 27.431420 59.369407
v    30.960498 28.198520 59.992432
v    31.753446 29.434178 60.511101
v    32.775056 31.733527 61.369431
mtllib usm_5_2.5D_2018-08-04_0.mtl
usemtl APPID_2421837776_2003874082784 
o vid_3 
f 3 2 1
f 4 5 6
f 1 6 5
f 1 5 3
f 3 5 4
f 4 2 3
f 2 4 6
f 6 1 2
usemtl APPID_2421833856_2003874086240 
o vid_4 
f 7 17 18
f 8 18 19
f 9 19 20
f 10 20 21
f 11 21 22
f 12 22 23
f 13 23 24
f 14 24 25
f 7 18 8
f 8 19 9
f 9 20 10
f 10 21 11
f 11 22 12
f 12 23 13
f 13 24 14
f 14 25 15
f 15 25 26
usemtl APPID_2421837776_2003874082784 
o vid_5 
f 29 28 27
f 30 31 32
f 27 32 31
f 27 31 29
f 29 31 30
f 30 28 29
f 28 30 32
f 32 27 28
usemtl APPID_2421833856_2003874086240 
o vid_6 
f 33 43 44
f 34 44 45
f 35 45 46
f 36 46 47
f 37 47 48
f 38 48 49
f 39 49 50
f 40 50 51
f 33 44 34
f 34 45 35
f 35 46 36
f 36 47 37
f 37 48 38
f 38 49 39
f 39 50 40
f 40 51 41
f 41 51 52
usemtl APPID_2421837776_2003874082784 
o vid_7 
f 55 54 53
f 56 57 58
f 53 58 57
f 53 57 55
f 55 57 56
f 56 54 55
f 54 56 58
f 58 53 54
usemtl APPID_2421833856_2003874086240 
o vid_8 
f 59 69 70
f 60 70 71
f 61 71 72
f 62 72 73
f 63 73 74
f 64 74 75
f 65 75 76
f 66 76 77
f 59 70 60
f 60 71 61
f 61 72 62
f 62 73 63
f 63 74 64
f 64 75 65
f 65 76 66
f 66 77 67
f 67 77 78
usemtl APPID_2421837776_2003874082784 
o vid_9 
f 81 80 79
f 82 83 84
f 79 84 83
f 79 83 81
f 81 83 82
f 82 80 81
f 80 82 84
f 84 79 80
usemtl APPID_2421833856_2003874086240 
o vid_10 
f 85 95 96
f 86 96 97
f 87 97 98
f 88 98 99
f 89 99 100
f 90 100 101
f 91 101 102
f 92 102 103
f 85 96 86
f 86 97 87
f 87 98 88
f 88 99 89
f 89 100 90
f 90 101 91
f 91 102 92
f 92 103 93
f 93 103 104
usemtl APPID_2421837776_2003874082784 
o vid_11 
f 107 106 105
f 108 109 110
f 105 110 109
f 105 109 107
f 107 109 108
f 108 106 107
f 106 108 110
f 110 105 106
usemtl APPID_2421833856_2003874086240 
o vid_12 
f 111 119 120
f 112 120 121
f 113 121 122
f 114 122 123
f 115 123 124
f 116 124 125
f 111 120 112
f 112 121 113
f 113 122 114
f 114 123 115
f 115 124 116
f 116 125 117
f 117 125 126
