# File generated by PlantGL - Wed Jul 15 17:35:59 2026
v    21.811613 179.664752 0.000000
v    23.134257 179.571620 0.000000
v    22.553590 180.763628 0.000000
v    23.188027 180.335248 1.516000
v    21.865383 180.428380 1.516000
v    22.446050 179.236372 1.516000
v    23.244384 180.420882 1.354352
v    23.306615 180.393016 1.588770
v    23.290197 180.326838 1.354352
v    23.306615 180.393016 1.588770
mtllib usm_22_2.5D_2018-07-05_4.mtl
usemtl APPID_887253616_1834833188864 
o vid_3 
f 3 2 1
f 4 5 6
f 1 6 5
f 1 5 3
f 3 5 4
f 4 2 3
f 2 4 6
f 6 1 2
usemtl APPID_887252384_1834833192576 
o vid_4 
f 7 9 10
f 7 10 8
f 7 9 10
