# File generated by PlantGL - Wed Jul 15 17:36:19 2026
v    20.701807 19.124129 0.000000
v    24.157353 18.880811 0.000000
v    22.640300 21.995060 0.000000
v    24.297833 20.875871 3.802807
v    20.842287 21.119189 3.802807
v    22.359340 18.004940 3.802807
v    23.911109 21.499252 3.560756
v    24.306863 21.651256 3.933028
v    24.550305 20.187092 3.560756
v    24.913948 20.405015 3.933028
v    23.995716 21.198293 3.802807
v    20.714120 20.696338 3.802807
v    22.789624 18.105369 3.802807
v    21.003924 18.801707 8.831486
v    24.285520 19.303662 8.831486
v    22.210016 21.894631 8.831486
v    21.785899 18.007411 8.462847
v    20.661647 17.256623 9.649978
v    18.967568 16.097200 10.841449
v    18.434651 15.734401 11.013915
v    20.399451 19.738193 8.462847
v    19.421385 18.804912 9.649978
v    17.920166 17.404731 10.841449
v    17.449800 16.963847 11.013915
v    20.790941 19.336039 8.831486
v    23.929266 18.852048 8.831486
v    22.779253 21.811913 8.831486
v    24.208699 20.663961 19.751819
v    21.070374 21.147952 19.751819
v    22.220387 18.188087 19.751819
v    23.448993 22.158237 19.210556
v    23.851624 22.287823 19.582720
v    25.350230 22.725245 20.953591
v    28.233831 23.602668 22.702998
v    29.106529 23.875749 22.947807
v    31.125443 24.480402 23.511518
v    32.937019 25.028306 23.496985
v    24.657142 19.048747 19.210556
v    25.041644 19.224991 19.582720
v    26.442461 19.914099 20.953591
v    29.162028 21.213707 22.702998
v    29.990170 21.601464 22.947807
v    31.887714 22.518495 23.511518
v    33.593994 23.337405 23.496985
v    24.202820 20.402854 19.751819
v    21.299438 21.273414 19.751819
v    21.997202 18.323732 19.751819
v    20.796820 19.597146 37.011493
v    23.700202 18.726586 37.011493
v    23.002438 21.676268 37.011493
v    21.558479 17.404050 36.245316
v    18.778470 16.996120 38.712645
v    14.564379 16.328670 41.188994
v    10.336131 15.674456 42.333482
v    8.254685 15.348369 42.317304
v    6.149488 15.071882 42.301037
v    5.775535 15.024413 42.190087
v    20.495159 21.899056 36.245316
v    17.827025 21.018197 38.712645
v    13.760525 19.726825 41.188994
v    9.687301 18.417278 42.333482
v    7.680360 17.776233 42.317304
v    5.674408 17.080204 42.301037
v    5.318821 16.955096 42.190087
v    21.401804 18.746150 37.011493
v    24.134694 19.676015 37.011493
v    21.962962 21.577834 37.011493
v    23.597836 21.253850 60.184973
v    20.864946 20.323985 60.184973
v    23.036678 18.422166 60.184973
v    20.842333 23.238154 59.139377
v    23.200908 25.629772 62.094871
v    27.690670 30.036592 65.885974
v    31.378075 33.715461 67.280450
v    35.947436 38.185497 67.403569
v    37.394581 39.592668 66.808020
v    41.306732 43.204736 65.240795
v    41.434143 43.312045 65.175126
v    25.928354 18.784245 59.139377
v    27.987873 21.437750 62.094871
v    31.763789 26.469697 65.885974
v    34.923981 30.610255 67.280450
v    38.752057 35.729446 67.403569
v    39.955990 37.349601 66.808020
v    43.020312 41.704127 65.240795
v    43.109873 41.844582 65.175126
v    23.834342 20.852054 60.184973
v    21.094659 20.729703 60.184973
v    22.570460 18.418243 60.184973
v    21.165298 19.147946 120.772946
v    23.904981 19.270297 120.772946
v    22.429180 21.581757 120.772946
v    23.937297 15.594892 119.397283
v    19.540758 13.141296 123.827345
v    12.795632 9.510548 128.273602
v    6.062937 5.824533 130.328518
v    -0.626029 2.244777 130.270262
v    -3.718762 0.602843 129.237144
v    -9.347458 -2.201355 127.386215
v    -11.901950 -3.337824 125.855614
v    19.108643 23.157727 119.397283
v    15.032753 20.201918 123.827345
v    8.900698 15.610953 128.273602
v    2.723738 11.054523 130.328518
v    -3.338427 6.493045 130.270262
v    -6.129362 4.378424 129.237144
v    -11.041807 0.452405 127.386215
v    -13.147714 -1.386657 125.855614
v    21.282808 19.123140 120.772946
v    23.867709 19.384467 120.772946
v    22.348943 21.492393 120.772946
v    23.716832 20.876860 170.125661
v    21.131931 20.615533 170.125661
v    22.650697 18.507607 170.125661
v    20.072365 25.014313 168.380749
v    22.796123 26.741564 171.218584
v    25.516424 28.363941 173.999910
v    33.804657 33.435794 179.639614
v    38.342489 36.262059 181.070835
v    42.100382 38.539047 182.246103
v    50.316963 43.548099 182.172210
v    58.072477 47.972707 179.544102
v    61.195244 49.591610 178.514038
v    62.335057 50.072477 177.846423
v    26.487871 16.110100 168.380749
v    28.988502 18.147034 171.218584
v    31.388558 20.213886 173.999910
v    38.823226 26.470420 179.639614
v    42.940598 29.880250 181.070835
v    46.290050 32.724120 182.246103
v    53.642465 38.932567 182.172210
v    60.294540 44.888660 179.544102
v    62.818700 47.338382 178.514038
v    63.635646 48.267363 177.846423
v    23.686928 20.773124 170.125661
v    21.236722 20.641503 170.125661
v    22.575811 18.585373 170.125661
v    21.312712 19.226876 207.577996
v    23.762918 19.358497 207.577996
v    22.423829 21.414627 207.577996
v    25.175496 14.501802 205.444219
v    18.273617 10.814420 212.315644
v    11.490358 7.090547 216.806902
v    7.826501 5.143971 219.212190
v    -2.644393 -0.544715 222.399550
v    -12.936914 -5.852343 222.310819
v    -17.754876 -8.070273 220.818530
v    -19.619457 -8.608889 220.269049
v    18.553045 24.670373 205.444219
v    12.389783 19.848865 212.315644
v    6.241112 15.150603 216.806902
v    2.979290 12.586715 219.212190
v    -6.457498 5.310190 222.399550
v    -15.473643 -1.957274 222.310819
v    -19.450307 -5.466991 220.818530
v    -20.696868 -6.954558 220.269049
v    21.333823 19.353293 207.577996
v    23.642883 19.313571 207.577996
v    22.522754 21.333136 207.577996
v    23.665817 20.646707 228.596990
v    21.356757 20.686429 228.596990
v    22.476886 18.666864 228.596990
v    19.634948 26.314380 226.081412
v    28.059190 30.074486 234.182356
v    33.424815 32.543020 237.610337
v    40.839524 35.832004 242.312918
v    50.617741 40.278753 245.186108
v    53.669301 41.573004 246.070600
v    62.790646 45.480081 245.994574
v    66.525163 46.912436 245.964071
v    72.191291 48.489479 244.270998
v    26.339478 14.226274 226.081412
v    33.989799 19.381740 234.182356
v    38.924948 22.626412 237.610337
v    45.641070 27.174932 242.312918
v    54.590799 33.115423 245.186108
v    57.304508 35.018812 246.070600
v    65.448618 40.687822 245.994574
v    68.641102 43.097448 245.964071
v    72.979100 47.069079 244.270998
v    23.707812 20.321333 228.596990
v    21.617541 20.885485 228.596990
v    22.174107 18.793181 228.596990
v    21.291828 19.678667 240.722589
v    23.382099 19.114515 240.722589
v    22.825533 21.206819 240.722589
v    24.275606 11.892666 237.863418
v    13.947485 10.083632 247.070841
v    1.645956 7.784323 254.334303
v    -1.715425 7.203558 256.311927
v    -17.423814 4.338715 260.582858
v    -33.011301 1.779664 260.461779
v    -42.149767 0.649009 257.761704
v    -47.240223 0.832687 256.319564
v    20.012735 27.918124 237.863418
v    10.150818 24.356484 247.070841
v    -1.667283 20.239822 254.334303
v    -4.872958 19.073710 256.311927
v    -19.928636 13.755122 260.582858
v    -34.727457 8.231228 260.461779
v    -43.219895 4.671954 257.761704
v    -47.546302 1.983333 256.319564
v    21.422303 19.552711 240.722589
v    23.425942 19.290487 240.722589
v    22.651215 21.156802 240.722589
v    23.577337 20.447289 245.542510
v    21.573698 20.709513 245.542510
v    22.348425 18.843198 245.542510
v    19.520168 27.700220 242.409540
v    30.472853 31.170976 252.498681
v    47.121317 36.442391 262.624707
v    54.842776 38.948799 264.796100
v    63.855906 41.620758 267.304629
v    70.465529 43.605878 267.251753
v    78.308336 45.636134 267.189972
v    84.441151 46.263621 266.116650
v    25.849320 12.453308 242.409540
v    36.040124 17.759434 252.498681
v    51.527488 25.827934 262.624707
v    58.754030 29.526597 264.796100
v    67.009764 34.023122 267.304629
v    73.082153 37.302437 267.251753
v    80.057164 41.423210 267.189972
v    84.831455 45.323377 266.116650
v    23.336368 20.688331 245.542510
v    21.485434 20.380306 245.542510
v    22.677658 18.931363 245.542510
v    21.663272 19.311669 248.156804
v    23.514206 19.619694 248.156804
v    22.321982 21.068637 248.156804
v    28.151737 13.032891 244.847124
v    18.147377 6.160378 255.505323
v    13.121894 2.623244 259.072156
v    2.968318 -4.317298 266.202487
v    -7.134079 -11.361703 269.496710
v    -12.294255 -14.766417 271.146371
v    -21.596076 -20.951564 271.060786
v    -27.702965 -24.681856 271.006214
v    -35.456181 -28.108700 268.589595
v    16.751563 26.887839 244.847124
v    8.081066 18.394245 255.505323
v    3.642342 14.144008 259.072156
v    -5.123647 5.517092 266.202487
v    -13.981699 -3.039601 269.496710
v    -18.316421 -7.447511 271.146371
v    -26.177124 -15.384088 271.060786
v    -31.013647 -20.658291 271.006214
v    -35.869451 -27.606441 268.589595
v    21.830473 19.299677 248.156804
v    23.440990 19.770490 248.156804
v    22.227996 20.929832 248.156804
v    23.169167 20.700323 249.055064
v    21.558650 20.229510 249.055064
v    22.771644 19.070168 249.055064
v    16.356788 25.773039 245.684294
v    23.583075 32.129180 254.135268
v    25.669973 33.907312 256.539224
v    39.808922 46.285910 267.433838
v    54.169892 58.517598 272.468977
v    61.366165 64.216481 272.398955
v    68.282977 68.208668 272.339923
v    28.544672 14.124238 245.684294
v    34.567627 21.630486 254.135268
v    36.249596 23.795637 256.539224
v    47.976341 38.479744 267.433838
v    59.546290 53.379004 272.468977
v    64.914015 60.825555 272.398955
v    68.589424 67.915775 272.339923
v    23.021443 20.531624 249.055064
v    21.778608 20.185926 249.055064
v    22.699409 19.282449 249.055064
v    21.978197 19.468376 249.610372
v    23.221032 19.814074 249.610372
v    22.300231 20.717551 249.610372
v    29.027139 13.982379 246.300693
v    19.809138 6.086361 256.958891
v    16.163340 2.890756 259.772711
v    5.815797 -5.931445 267.656056
v    -2.386554 -13.057573 270.562337
v    -8.277611 -17.915995 272.599939
v    -15.712645 -24.092458 272.525882
v    -22.501130 -29.304027 272.460617
v    -29.618730 -33.183169 270.196790
v    16.359326 26.411863 246.300693
v    8.639789 17.045573 256.958891
v    5.513996 13.339745 259.772711
v    -3.110106 2.826528 267.656056
v    -10.079180 -5.509674 270.562337
v    -14.824850 -11.491934 272.599939
v    -20.859003 -19.042923 272.525882
v    -25.940713 -25.929155 272.460617
v    -29.683987 -33.119140 270.196790
v    22.133413 19.594022 249.610372
v    23.034611 19.885671 249.610372
v    22.331436 20.520307 249.610372
v    22.866227 20.405978 249.836478
v    21.965029 20.114329 249.836478
v    22.668204 19.479693 249.836478
v    16.371966 24.965384 246.703508
v    23.262845 31.384868 254.973442
v    37.610411 44.651151 266.918675
v    50.616314 56.407177 271.598597
v    57.619049 62.316112 271.528679
v    64.536777 66.576854 271.468624
v    28.065452 14.411675 246.703508
v    33.747101 21.922524 254.973442
v    45.477653 37.550737 266.918675
v    55.842969 51.689970 271.598597
v    61.005312 59.259913 271.528679
v    64.536777 66.576854 271.468624
v    22.867910 20.071657 249.836478
v    22.253718 20.282947 249.836478
v    22.377832 19.645396 249.836478
v    22.131730 19.928343 249.946000
v    22.745922 19.717053 249.946000
v    22.621808 20.354604 249.946000
v    23.940462 15.252848 247.086828
v    21.211807 15.006772 249.489059
v    13.432712 14.562344 256.294252
v    9.260423 14.249930 258.712713
v    2.852341 14.054672 262.395499
v    -2.791579 14.815760 265.535337
v    -3.669914 14.905460 265.762075
v    22.054459 24.940907 247.086828
v    19.432761 24.145413 249.489059
v    12.055036 21.639218 256.294252
v    8.070244 20.363669 258.712713
v    2.056881 18.140807 262.395499
v    -2.889371 15.318099 265.535337
v    -3.669914 14.905460 265.762075
v    24.306863 21.651256 3.933028
v    24.739755 21.817523 4.340235
v    25.992464 22.315107 5.122565
v    27.250441 22.809617 5.484132
v    27.871664 23.055163 5.479003
v    28.499156 23.285356 5.473882
v    29.055280 23.486643 5.299804
v    29.627848 23.668300 5.123895
v    30.177177 23.755400 4.966427
v    30.220773 23.761129 4.943339
v    24.913948 20.405015 3.933028
v    25.311715 20.643389 4.340235
v    26.475720 21.323066 5.122565
v    27.640553 22.008785 5.484132
v    28.216836 22.346584 5.479003
v    28.784896 22.698783 5.473882
v    29.286200 23.012605 5.299804
v    29.782184 23.351475 5.123895
v    30.189388 23.730333 4.966427
v    30.220773 23.761129 4.943339
v    18.434651 15.734401 11.013915
v    17.264332 14.940953 11.392109
v    16.457350 14.390645 11.384608
v    15.568226 13.816111 11.376498
v    14.842441 13.351562 11.122863
v    14.052785 12.889628 10.854958
v    13.228260 12.560942 10.603655
v    13.200438 12.550699 10.588088
v    17.449800 16.963847 11.013915
v    16.420048 15.994920 11.392109
v    15.706876 15.327504 11.384608
v    14.952133 14.585214 11.376498
v    14.340375 13.978319 11.122863
v    13.717228 13.308523 10.854958
v    13.216506 12.575615 10.603655
v    13.200438 12.550699 10.588088
v    32.937019 25.028306 23.496985
v    33.258255 25.125462 23.494408
v    33.989474 25.326957 23.488596
v    35.947619 25.857440 22.891473
v    37.257152 26.156478 22.498114
v    37.765289 26.194420 22.353850
v    38.538294 26.231522 21.947502
v    33.593994 23.337405 23.496985
v    33.896560 23.482617 23.494408
v    34.572004 23.827662 23.488596
v    36.374643 24.758379 22.891473
v    37.542555 25.421917 22.498114
v    37.943015 25.736996 22.353850
v    38.538294 26.231522 21.947502
v    5.775535 15.024413 42.190087
v    4.299543 14.837055 41.752166
v    2.405195 14.673345 41.195352
v    0.640662 14.786016 40.694763
v    0.508996 14.797943 40.625346
v    5.318821 16.955096 42.190087
v    3.915320 16.461293 41.752166
v    2.148399 15.758909 41.195352
v    0.621363 14.867598 40.694763
v    0.508996 14.797943 40.625346
v    41.434143 43.312045 65.175126
v    41.865375 43.669179 64.869092
v    43.139719 44.724550 63.964722
v    45.212390 45.936004 62.704163
v    43.109873 41.844582 65.175126
v    43.406987 42.319165 64.869092
v    44.284995 43.721613 63.964722
v    45.212390 45.936004 62.704163
v    -11.901950 -3.337824 125.855614
v    -12.801392 -3.726986 125.319960
v    -15.282727 -4.348967 123.976778
v    -15.797587 -4.451801 123.547408
v    -13.147714 -1.386657 125.855614
v    -13.879238 -2.038821 125.319960
v    -15.487642 -4.028021 123.976778
v    -15.797587 -4.451801 123.547408
v    62.335057 50.072477 177.846423
v    65.205016 50.965700 176.268196
v    65.685154 51.115135 176.004162
v    63.635646 48.267363 177.846423
v    65.391417 50.706990 176.268196
v    65.685154 51.115135 176.004162
v    -19.619457 -8.608889 220.269049
v    -22.870034 -9.547875 219.311123
v    -20.696868 -6.954558 220.269049
v    -22.870034 -9.547875 219.311123
v    72.191291 48.489479 244.270998
v    74.913595 49.070699 243.482892
v    72.979100 47.069079 244.270998
v    74.913595 49.070699 243.482892
v    -47.240223 0.832687 256.319564
v    -49.279465 0.906268 255.741841
v    -47.546302 1.983333 256.319564
v    -49.279465 0.906268 255.741841
v    84.441151 46.263621 266.116650
v    86.177603 46.433308 265.622686
v    84.831455 45.323377 266.116650
v    86.177603 46.433308 265.622686
v    -35.456181 -28.108700 268.589595
v    -36.486146 -28.535026 268.274000
v    -35.869451 -27.606441 268.589595
v    -36.486146 -28.535026 268.274000
v    68.282977 68.208668 272.339923
v    68.936903 68.586095 272.334342
v    68.589424 67.915775 272.339923
v    68.936903 68.586095 272.334342
v    -29.618730 -33.183169 270.196790
v    -29.756319 -33.258127 270.152430
v    -29.683987 -33.119140 270.196790
v    -29.756319 -33.258127 270.152430
mtllib usm_26_2.5D_2018-10-08_0.mtl
usemtl APPID_206882080_2461220930848 
o vid_3 
f 3 2 1
f 4 5 6
f 1 6 5
f 1 5 3
f 3 5 4
f 4 2 3
f 2 4 6
f 6 1 2
usemtl APPID_206884768_2461220931872 
o vid_4 
f 7 9 10
f 7 10 8
f 7 9 10
f 7 10 8
usemtl APPID_206882080_2461220930848 
o vid_5 
f 13 12 11
f 14 15 16
f 11 16 15
f 11 15 13
f 13 15 14
f 14 12 13
f 12 14 16
f 16 11 12
usemtl APPID_206884768_2461220931872 
o vid_6 
f 17 21 22
f 18 22 23
f 17 22 18
f 18 23 19
f 19 23 24
f 19 24 20
usemtl APPID_206882080_2461220930848 
o vid_7 
f 27 26 25
f 28 29 30
f 25 30 29
f 25 29 27
f 27 29 28
f 28 26 27
f 26 28 30
f 30 25 26
usemtl APPID_206884768_2461220931872 
o vid_8 
f 31 38 39
f 32 39 40
f 33 40 41
f 34 41 42
f 35 42 43
f 31 39 32
f 32 40 33
f 33 41 34
f 34 42 35
f 35 43 36
f 36 43 44
f 36 44 37
usemtl APPID_206882080_2461220930848 
o vid_9 
f 47 46 45
f 48 49 50
f 45 50 49
f 45 49 47
f 47 49 48
f 48 46 47
f 46 48 50
f 50 45 46
usemtl APPID_206884768_2461220931872 
o vid_10 
f 51 58 59
f 52 59 60
f 53 60 61
f 54 61 62
f 55 62 63
f 51 59 52
f 52 60 53
f 53 61 54
f 54 62 55
f 55 63 56
f 56 63 64
f 56 64 57
usemtl APPID_206882080_2461220930848 
o vid_11 
f 67 66 65
f 68 69 70
f 65 70 69
f 65 69 67
f 67 69 68
f 68 66 67
f 66 68 70
f 70 65 66
usemtl APPID_206884768_2461220931872 
o vid_12 
f 71 79 80
f 72 80 81
f 73 81 82
f 74 82 83
f 75 83 84
f 76 84 85
f 71 80 72
f 72 81 73
f 73 82 74
f 74 83 75
f 75 84 76
f 76 85 77
f 77 85 86
f 77 86 78
usemtl APPID_206882080_2461220930848 
o vid_13 
f 89 88 87
f 90 91 92
f 87 92 91
f 87 91 89
f 89 91 90
f 90 88 89
f 88 90 92
f 92 87 88
usemtl APPID_206884768_2461220931872 
o vid_14 
f 93 101 102
f 94 102 103
f 95 103 104
f 96 104 105
f 97 105 106
f 98 106 107
f 93 102 94
f 94 103 95
f 95 104 96
f 96 105 97
f 97 106 98
f 98 107 99
f 99 107 108
f 99 108 100
usemtl APPID_206882080_2461220930848 
o vid_15 
f 111 110 109
f 112 113 114
f 109 114 113
f 109 113 111
f 111 113 112
f 112 110 111
f 110 112 114
f 114 109 110
usemtl APPID_206884768_2461220931872 
o vid_16 
f 115 125 126
f 116 126 127
f 117 127 128
f 118 128 129
f 119 129 130
f 120 130 131
f 121 131 132
f 122 132 133
f 115 126 116
f 116 127 117
f 117 128 118
f 118 129 119
f 119 130 120
f 120 131 121
f 121 132 122
f 122 133 123
f 123 133 134
f 123 134 124
usemtl APPID_206882080_2461220930848 
o vid_17 
f 137 136 135
f 138 139 140
f 135 140 139
f 135 139 137
f 137 139 138
f 138 136 137
f 136 138 140
f 140 135 136
usemtl APPID_206884768_2461220931872 
o vid_18 
f 141 149 150
f 142 150 151
f 143 151 152
f 144 152 153
f 145 153 154
f 146 154 155
f 141 150 142
f 142 151 143
f 143 152 144
f 144 153 145
f 145 154 146
f 146 155 147
f 147 155 156
f 147 156 148
usemtl APPID_206882080_2461220930848 
o vid_19 
f 159 158 157
f 160 161 162
f 157 162 161
f 157 161 159
f 159 161 160
f 160 158 159
f 158 160 162
f 162 157 158
usemtl APPID_206884768_2461220931872 
o vid_20 
f 163 172 173
f 164 173 174
f 165 174 175
f 166 175 176
f 167 176 177
f 168 177 178
f 169 178 179
f 163 173 164
f 164 174 165
f 165 175 166
f 166 176 167
f 167 177 168
f 168 178 169
f 169 179 170
f 170 179 180
f 170 180 171
usemtl APPID_206882080_2461220930848 
o vid_21 
f 183 182 181
f 184 185 186
f 181 186 185
f 181 185 183
f 183 185 184
f 184 182 183
f 182 184 186
f 186 181 182
usemtl APPID_206884768_2461220931872 
o vid_22 
f 187 195 196
f 188 196 197
f 189 197 198
f 190 198 199
f 191 199 200
f 192 200 201
f 187 196 188
f 188 197 189
f 189 198 190
f 190 199 191
f 191 200 192
f 192 201 193
f 193 201 202
f 193 202 194
usemtl APPID_206882080_2461220930848 
o vid_23 
f 205 204 203
f 206 207 208
f 203 208 207
f 203 207 205
f 205 207 206
f 206 204 205
f 204 206 208
f 208 203 204
usemtl APPID_206884768_2461220931872 
o vid_24 
f 209 217 218
f 210 218 219
f 211 219 220
f 212 220 221
f 213 221 222
f 214 222 223
f 209 218 210
f 210 219 211
f 211 220 212
f 212 221 213
f 213 222 214
f 214 223 215
f 215 223 224
f 215 224 216
usemtl APPID_206882080_2461220930848 
o vid_25 
f 227 226 225
f 228 229 230
f 225 230 229
f 225 229 227
f 227 229 228
f 228 226 227
f 226 228 230
f 230 225 226
usemtl APPID_206884768_2461220931872 
o vid_26 
f 231 240 241
f 232 241 242
f 233 242 243
f 234 243 244
f 235 244 245
f 236 245 246
f 237 246 247
f 231 241 232
f 232 242 233
f 233 243 234
f 234 244 235
f 235 245 236
f 236 246 237
f 237 247 238
f 238 247 248
f 238 248 239
usemtl APPID_206882080_2461220930848 
o vid_27 
f 251 250 249
f 252 253 254
f 249 254 253
f 249 253 251
f 251 253 252
f 252 250 251
f 250 252 254
f 254 249 250
usemtl APPID_206884768_2461220931872 
o vid_28 
f 255 262 263
f 256 263 264
f 257 264 265
f 258 265 266
f 259 266 267
f 255 263 256
f 256 264 257
f 257 265 258
f 258 266 259
f 259 267 260
f 260 267 268
f 260 268 261
usemtl APPID_206882080_2461220930848 
o vid_29 
f 271 270 269
f 272 273 274
f 269 274 273
f 269 273 271
f 271 273 272
f 272 270 271
f 270 272 274
f 274 269 270
usemtl APPID_206884768_2461220931872 
o vid_30 
f 275 284 285
f 276 285 286
f 277 286 287
f 278 287 288
f 279 288 289
f 280 289 290
f 281 290 291
f 275 285 276
f 276 286 277
f 277 287 278
f 278 288 279
f 279 289 280
f 280 290 281
f 281 291 282
f 282 291 292
f 282 292 283
usemtl APPID_206882080_2461220930848 
o vid_31 
f 295 294 293
f 296 297 298
f 293 298 297
f 293 297 295
f 295 297 296
f 296 294 295
f 294 296 298
f 298 293 294
usemtl APPID_206884768_2461220931872 
o vid_32 
f 299 305 306
f 300 306 307
f 301 307 308
f 302 308 309
f 299 306 300
f 300 307 301
f 301 308 302
f 302 309 303
f 303 309 310
usemtl APPID_206882080_2461220930848 
o vid_33 
f 313 312 311
f 314 315 316
f 311 316 315
f 311 315 313
f 313 315 314
f 314 312 313
f 312 314 316
f 316 311 312
usemtl APPID_206884768_2461220931872 
o vid_34 
f 317 324 325
f 318 325 326
f 319 326 327
f 320 327 328
f 321 328 329
f 317 325 318
f 318 326 319
f 319 327 320
f 320 328 321
f 321 329 322
f 322 329 330
usemtl APPID_206883088_2461220932640 
o vid_10000004 
f 331 341 342
f 332 342 343
f 333 343 344
f 334 344 345
f 335 345 346
f 336 346 347
f 337 347 348
f 338 348 349
f 331 342 332
f 332 343 333
f 333 344 334
f 334 345 335
f 335 346 336
f 336 347 337
f 337 348 338
f 338 349 339
f 339 349 350
usemtl APPID_206883088_2461220932640 
o vid_10000006 
f 351 359 360
f 352 360 361
f 353 361 362
f 354 362 363
f 355 363 364
f 356 364 365
f 351 360 352
f 352 361 353
f 353 362 354
f 354 363 355
f 355 364 356
f 356 365 357
f 357 365 366
usemtl APPID_206883088_2461220932640 
o vid_10000008 
f 367 374 375
f 368 375 376
f 369 376 377
f 370 377 378
f 371 378 379
f 367 375 368
f 368 376 369
f 369 377 370
f 370 378 371
f 371 379 372
f 372 379 380
usemtl APPID_206883088_2461220932640 
o vid_10000010 
f 381 386 387
f 382 387 388
f 383 388 389
f 381 387 382
f 382 388 383
f 383 389 384
f 384 389 390
usemtl APPID_206883088_2461220932640 
o vid_10000012 
f 391 395 396
f 392 396 397
f 391 396 392
f 392 397 393
f 393 397 398
usemtl APPID_206883088_2461220932640 
o vid_10000014 
f 399 403 404
f 400 404 405
f 399 404 400
f 400 405 401
f 401 405 406
usemtl APPID_206883088_2461220932640 
o vid_10000016 
f 407 410 411
f 407 411 408
f 408 411 412
usemtl APPID_206883088_2461220932640 
o vid_10000018 
f 413 415 416
f 413 416 414
f 413 415 416
usemtl APPID_206883088_2461220932640 
o vid_10000020 
f 417 419 420
f 417 420 418
f 417 419 420
usemtl APPID_206883088_2461220932640 
o vid_10000022 
f 421 423 424
f 421 424 422
f 421 423 424
usemtl APPID_206883088_2461220932640 
o vid_10000024 
f 425 427 428
f 425 428 426
f 425 427 428
usemtl APPID_206883088_2461220932640 
o vid_10000026 
f 429 431 432
f 429 432 430
f 429 431 432
usemtl APPID_206883088_2461220932640 
o vid_10000028 
f 433 435 436
f 433 436 434
f 433 435 436
usemtl APPID_206883088_2461220932640 
o vid_10000030 
f 437 439 440
f 437 440 438
f 437 439 440
