# File generated by PlantGL - Wed Jul 15 17:35:34 2026
v    20.701807 19.124129 0.000000
v    24.157353 18.880811 0.000000
v    22.640300 21.995060 0.000000
v    24.297833 20.875871 3.802807
v    20.842287 21.119189 3.802807
v    22.359340 18.004940 3.802807
v    23.922754 21.483586 3.572455
v    24.709033 21.791231 4.314260
v    25.901196 22.264765 5.058777
v    26.276643 22.417333 5.167273
v    27.096658 22.738891 5.402869
v    27.994071 23.093605 5.395459
v    28.281423 23.199019 5.393114
v    29.108352 23.498322 5.134269
v    29.653246 23.671199 4.966862
v    30.192719 23.747463 4.729196
v    24.545148 20.205918 3.572455
v    25.272074 20.635405 4.314260
v    26.379820 21.282231 5.058777
v    26.731389 21.483817 5.167273
v    27.490066 21.931292 5.402869
v    28.322560 22.419273 5.395459
v    28.582696 22.580558 5.393114
v    29.328111 23.047195 5.134269
v    29.800123 23.369686 4.966862
v    30.192719 23.747463 4.729196
v    23.995716 21.198293 3.802807
v    20.714120 20.696338 3.802807
v    22.789624 18.105369 3.802807
v    21.003924 18.801707 8.831486
v    24.285520 19.303662 8.831486
v    22.210016 21.894631 8.831486
v    21.768567 18.021744 8.477650
v    20.693163 17.296480 9.617112
v    19.067110 16.183614 10.760739
v    18.640883 15.886944 10.899768
v    17.435519 15.069736 11.289287
v    16.299235 14.294867 11.278726
v    15.814346 13.981541 11.274303
v    14.763173 13.308723 10.906957
v    14.005226 12.865338 10.649809
v    13.215725 12.562945 10.306117
v    20.409656 19.718150 8.477650
v    19.467160 18.826969 9.617112
v    18.026223 17.483013 10.760739
v    17.643677 17.131813 10.899768
v    16.583089 16.133872 11.289287
v    15.578896 15.194106 11.278726
v    15.167293 14.789294 11.274303
v    14.281268 13.910313 10.906957
v    13.683143 13.267412 10.649809
v    13.215725 12.562945 10.306117
v    20.951174 19.398295 8.831486
v    23.795234 18.959685 8.831486
v    22.753052 21.642019 8.831486
v    24.048466 20.601705 19.751819
v    21.204406 21.040315 19.751819
v    22.246588 18.357981 19.751819
v    23.304892 22.069503 19.228216
v    24.078840 22.318596 19.943598
v    25.140077 22.628356 20.914381
v    27.929595 23.477152 22.606710
v    29.270320 23.896685 22.982809
v    30.724543 24.332217 23.388849
v    33.303688 25.112268 23.368159
v    35.884720 25.812365 22.636502
v    37.108325 26.091781 22.268954
v    38.348786 26.157892 21.615557
v    24.490932 19.016915 19.228216
v    25.230033 19.355696 19.943598
v    26.222021 19.843687 20.914381
v    28.852857 21.100893 22.606710
v    30.125131 21.696604 22.982809
v    31.491930 22.357140 23.388849
v    33.921166 23.523024 23.368159
v    36.297812 24.749163 22.636502
v    37.389088 25.369162 22.268954
v    38.348786 26.157892 21.615557
v    23.777044 20.302135 19.751819
v    21.599551 20.955041 19.751819
v    22.122864 18.742824 19.751819
v    21.222596 19.697865 37.016277
v    23.400089 19.044959 37.016277
v    22.876776 21.257176 37.016277
v    21.971864 17.530694 36.269841
v    19.265164 17.126168 38.673598
v    15.159650 16.475915 41.086143
v    11.041976 15.831662 42.201144
v    8.424897 15.421661 42.180803
v    6.966627 15.230139 42.169534
v    4.595443 14.929147 41.466015
v    2.749903 14.769655 40.923547
v    1.625807 14.841433 40.604646
v    0.951178 14.902544 40.248968
v    20.921473 21.971048 36.269841
v    18.320403 21.119990 38.673598
v    14.358678 19.861891 41.086143
v    10.388770 18.592980 42.201144
v    7.865370 17.786970 42.180803
v    6.475846 17.304831 42.169534
v    4.221119 16.511536 41.466015
v    2.499723 15.827249 40.923547
v    1.526925 15.259439 40.604646
v    0.951178 14.902544 40.248968
v    21.847889 19.255546 37.016277
v    23.470502 19.807639 37.016277
v    22.181069 20.936816 37.016277
v    23.151751 20.744454 60.201297
v    21.529138 20.192361 60.201297
v    22.818571 19.063184 60.201297
v    20.426990 22.710234 59.176179
v    23.060119 25.382764 62.477378
v    27.128473 29.386677 65.790647
v    31.177642 33.426472 67.321932
v    35.216956 37.381751 67.278521
v    37.141921 39.253543 66.486332
v    40.500249 42.354269 65.140971
v    42.733925 44.238537 63.551543
v    44.317022 45.163840 62.588734
v    44.720232 45.373997 62.216886
v    25.459850 18.302879 59.176179
v    27.761601 21.265602 62.477378
v    31.193732 25.826665 65.790647
v    34.663964 30.373445 67.321932
v    38.051717 34.899305 67.278521
v    39.653166 37.054406 66.486332
v    42.283687 40.792484 65.140971
v    43.856771 43.255243 63.551543
v    44.565112 44.946584 62.588734
v    44.720232 45.373997 62.216886
v    23.083653 20.372761 60.201297
v    21.885083 20.319234 60.201297
v    22.530724 19.308005 60.201297
v    21.915987 19.627239 109.417124
v    23.114557 19.680766 109.417124
v    22.468916 20.691995 109.417124
v    24.522358 16.322480 108.060856
v    20.132194 13.990574 112.428461
v    13.479001 10.415966 116.812033
v    11.306773 9.226714 117.475029
v    6.807505 6.834733 118.837979
v    1.715513 4.109937 118.793633
v    -4.525384 0.992485 117.230020
v    -7.595727 -0.386566 116.244360
v    -10.692983 -1.192657 114.826310
v    20.014874 23.382286 108.060856
v    16.052056 20.381051 112.428461
v    10.009615 15.849859 116.812033
v    8.016688 14.379778 117.475029
v    3.953462 11.304851 118.837979
v    -0.661102 7.832288 118.793633
v    -6.115336 3.482733 117.230020
v    -8.658376 1.277799 116.244360
v    -10.692983 -1.192657 114.826310
v    22.157554 19.753396 109.417124
v    22.884518 19.826890 109.417124
v    22.457388 20.419713 109.417124
v    22.842086 20.246604 118.621000
v    22.115122 20.173110 118.621000
v    22.542252 19.580287 118.621000
v    21.042547 23.008956 115.219255
v    22.120594 23.195674 121.355011
v    22.535312 23.217179 123.531929
v    24.897622 24.048316 130.026136
v    26.419914 24.417890 133.948720
v    29.316897 24.911720 137.650964
v    24.892747 17.665185 115.219255
v    25.411117 18.628689 121.355011
v    25.562795 19.015273 123.531929
v    27.098978 20.993010 130.026136
v    27.931426 22.320032 133.948720
v    29.316897 24.911720 137.650964
mtllib usm_5_2.5D_2018-08-14_0.mtl
usemtl APPID_2421856480_2003874097376 
o vid_3 
f 3 2 1
f 4 5 6
f 1 6 5
f 1 5 3
f 3 5 4
f 4 2 3
f 2 4 6
f 6 1 2
usemtl APPID_2421857712_2003874097632 
o vid_4 
f 7 17 18
f 8 18 19
f 9 19 20
f 10 20 21
f 11 21 22
f 12 22 23
f 13 23 24
f 14 24 25
f 7 18 8
f 8 19 9
f 9 20 10
f 10 21 11
f 11 22 12
f 12 23 13
f 13 24 14
f 14 25 15
f 15 25 26
usemtl APPID_2421856480_2003874097376 
o vid_5 
f 29 28 27
f 30 31 32
f 27 32 31
f 27 31 29
f 29 31 30
f 30 28 29
f 28 30 32
f 32 27 28
usemtl APPID_2421857712_2003874097632 
o vid_6 
f 33 43 44
f 34 44 45
f 35 45 46
f 36 46 47
f 37 47 48
f 38 48 49
f 39 49 50
f 40 50 51
f 33 44 34
f 34 45 35
f 35 46 36
f 36 47 37
f 37 48 38
f 38 49 39
f 39 50 40
f 40 51 41
f 41 51 52
usemtl APPID_2421856480_2003874097376 
o vid_7 
f 55 54 53
f 56 57 58
f 53 58 57
f 53 57 55
f 55 57 56
f 56 54 55
f 54 56 58
f 58 53 54
usemtl APPID_2421857712_2003874097632 
o vid_8 
f 59 69 70
f 60 70 71
f 61 71 72
f 62 72 73
f 63 73 74
f 64 74 75
f 65 75 76
f 66 76 77
f 59 70 60
f 60 71 61
f 61 72 62
f 62 73 63
f 63 74 64
f 64 75 65
f 65 76 66
f 66 77 67
f 67 77 78
usemtl APPID_2421856480_2003874097376 
o vid_9 
f 81 80 79
f 82 83 84
f 79 84 83
f 79 83 81
f 81 83 82
f 82 80 81
f 80 82 84
f 84 79 80
usemtl APPID_2421857712_2003874097632 
o vid_10 
f 85 95 96
f 86 96 97
f 87 97 98
f 88 98 99
f 89 99 100
f 90 100 101
f 91 101 102
f 92 102 103
f 85 96 86
f 86 97 87
f 87 98 88
f 88 99 89
f 89 100 90
f 90 101 91
f 91 102 92
f 92 103 93
f 93 103 104
usemtl APPID_2421856480_2003874097376 
o vid_11 
f 107 106 105
f 108 109 110
f 105 110 109
f 105 109 107
f 107 109 108
f 108 106 107
f 106 108 110
f 110 105 106
usemtl APPID_2421857712_2003874097632 
o vid_12 
f 111 121 122
f 112 122 123
f 113 123 124
f 114 124 125
f 115 125 126
f 116 126 127
f 117 127 128
f 118 128 129
f 111 122 112
f 112 123 113
f 113 124 114
f 114 125 115
f 115 126 116
f 116 127 117
f 117 128 118
f 118 129 119
f 119 129 130
usemtl APPID_2421856480_2003874097376 
o vid_13 
f 133 132 131
f 134 135 136
f 131 136 135
f 131 135 133
f 133 135 134
f 134 132 133
f 132 134 136
f 136 131 132
usemtl APPID_2421857712_2003874097632 
o vid_14 
f 137 146 147
f 138 147 148
f 139 148 149
f 140 149 150
f 141 150 151
f 142 151 152
f 143 152 153
f 137 147 138
f 138 148 139
f 139 149 140
f 140 150 141
f 141 151 142
f 142 152 143
f 143 153 144
f 144 153 154
usemtl APPID_2421856480_2003874097376 
o vid_15 
f 157 156 155
f 158 159 160
f 155 160 159
f 155 159 157
f 157 159 158
f 158 156 157
f 156 158 160
f 160 155 156
usemtl APPID_2421857712_2003874097632 
o vid_16 
f 161 167 168
f 162 168 169
f 163 169 170
f 164 170 171
f 161 168 162
f 162 169 163
f 163 170 164
f 164 171 165
f 165 171 172
