# File generated by PlantGL - Wed Jul 15 17:34:53 2026
v    20.252304 418.905161 0.000000
v    24.571736 418.601013 0.000000
v    22.675420 422.493825 0.000000
v    24.747336 421.094839 2.682187
v    20.427904 421.398987 2.682187
v    22.324220 417.506175 2.682187
v    24.669633 421.320624 2.594034
v    24.858329 421.384320 2.918391
v    24.929574 421.408972 3.041291
v    25.148497 421.492482 3.276164
v    25.290565 421.544277 3.427526
v    25.524121 421.634594 3.570265
v    25.796704 421.731408 3.734702
v    26.062232 421.829517 3.792780
v    26.439067 421.918936 3.870706
v    24.877224 420.894475 2.594034
v    25.043696 421.003793 2.918391
v    25.107025 421.044696 3.041291
v    25.307731 421.165601 3.276164
v    25.436089 421.245539 3.427526
v    25.651176 421.373772 3.570265
v    25.895436 421.528728 3.734702
v    26.136366 421.677332 3.792780
v    26.439067 421.918936 3.870706
v    24.379104 421.505407 2.682187
v    20.256458 420.874804 2.682187
v    22.863898 417.619789 2.682187
v    20.620536 418.494593 4.602934
v    24.743182 419.125196 4.602934
v    22.135742 422.380211 4.602934
v    20.802528 418.200227 4.475377
v    20.552686 418.047861 4.951983
v    20.463767 417.992705 5.122560
v    20.176371 417.801729 5.468452
v    19.997421 417.686603 5.681443
v    19.690400 417.480558 5.892208
v    19.342793 417.260996 6.125928
v    18.992261 417.033332 6.211684
v    18.488870 416.787015 6.324444
v    20.372988 418.736446 4.475377
v    20.169765 418.525883 4.951983
v    20.096532 418.451146 5.122560
v    19.847433 418.212361 5.468452
v    19.696024 418.062853 5.681443
v    19.427937 417.808205 5.892208
v    19.137800 417.516900 6.125928
v    18.839118 417.224509 6.211684
v    18.488870 416.787015 6.324444
v    20.341236 419.161313 4.602934
v    24.305436 418.549955 4.602934
v    22.852788 422.288732 4.602934
v    24.658404 420.838687 7.454879
v    20.694204 421.450045 7.454879
v    22.146852 417.711268 7.454879
v    24.559259 421.258159 7.274158
v    24.997205 421.370174 8.011079
v    25.104977 421.395462 8.191069
v    25.662793 421.547973 8.769920
v    25.870656 421.597285 8.982881
v    26.688333 421.813545 9.463683
v    26.954833 421.846510 9.612615
v    27.442237 421.920306 9.711800
v    24.868473 420.462314 7.274158
v    25.267165 420.675362 8.011079
v    25.363739 420.729470 8.191069
v    25.878197 420.993576 8.769920
v    26.064826 421.097538 8.982881
v    26.814017 421.490063 9.463683
v    27.032866 421.645673 9.612615
v    27.442237 421.920306 9.711800
v    24.663782 420.511898 7.454879
v    20.974522 421.618097 7.454879
v    21.861155 417.870005 7.454879
v    20.335858 419.488102 12.007949
v    24.025118 418.381903 12.007949
v    23.138485 422.129995 12.007949
v    20.382163 418.933808 11.757258
v    20.108161 418.902962 12.206756
v    19.604500 418.856404 13.029173
v    19.280234 418.814476 13.356456
v    18.510167 418.741389 14.127552
v    17.926902 418.670904 14.461529
v    16.954140 418.685717 15.001101
v    16.943364 418.685588 15.003270
v    20.128909 420.004395 11.757258
v    19.870127 419.909209 12.206756
v    19.398988 419.725172 13.029173
v    19.090304 419.617371 13.356456
v    18.369108 419.337692 14.127552
v    17.816081 419.139380 14.461529
v    16.953056 418.690301 15.001101
v    16.943364 418.685588 15.003270
v    21.095515 418.396392 12.007949
v    24.590737 419.585640 12.007949
v    21.813207 422.017967 12.007949
v    23.904125 421.603608 16.425721
v    20.408903 420.414360 16.425721
v    23.186433 417.982033 16.425721
v    23.415420 422.180586 16.085236
v    23.698369 422.434507 16.705001
v    24.214386 422.879343 17.812738
v    24.545596 423.186577 18.264943
v    25.333819 423.869444 19.304546
v    25.930326 424.413602 19.763536
v    27.009862 425.158586 20.490994
v    27.030465 425.173647 20.496129
v    24.540539 421.195302 16.085236
v    24.754908 421.509279 16.705001
v    25.127771 422.079477 17.812738
v    25.388620 422.448328 18.264943
v    25.961519 423.319757 19.304546
v    26.422216 423.982845 19.763536
v    27.018254 425.151238 20.490994
v    27.030465 425.173647 20.496129
v    24.139705 421.047020 16.425721
v    20.773132 420.896672 16.425721
v    22.586623 418.056308 16.425721
v    20.859935 418.952980 35.686441
v    24.226508 419.103328 35.686441
v    22.413017 421.943692 35.686441
v    21.280788 418.016800 35.233658
v    20.666211 417.721403 36.345260
v    20.002814 417.418664 37.530916
v    19.252491 417.042676 38.370987
v    18.209848 416.563779 39.514744
v    16.982040 415.961257 40.292221
v    15.612675 415.506376 41.092500
v    15.263240 415.379650 41.167288
v    20.187781 419.728712 35.233658
v    19.661191 419.295506 36.345260
v    19.107396 418.821103 37.530916
v    18.450575 418.298669 38.370987
v    17.577388 417.554364 39.514744
v    16.514135 416.694109 40.292221
v    15.525246 415.643312 41.092500
v    15.263240 415.379650 41.167288
v    21.239413 419.091874 35.686441
v    23.916484 419.362519 35.686441
v    22.343563 421.545608 35.686441
v    23.760227 420.908126 53.205783
v    21.083156 420.637481 53.205783
v    22.656077 418.454392 53.205783
v    23.190460 422.030958 52.616245
v    24.815790 422.891215 55.607347
v    27.101848 424.108970 58.190354
v    27.706136 424.448834 58.584473
v    29.854485 425.299053 59.865898
v    24.644960 420.012228 52.616245
v    25.975475 421.281664 55.607347
v    27.854257 423.064687 58.190354
v    28.367930 423.530316 58.584473
v    29.854485 425.299053 59.865898
v    23.497096 420.649492 53.205783
v    21.438705 420.538920 53.205783
v    22.563659 418.811588 53.205783
v    21.502544 419.350508 80.209650
v    23.560935 419.461080 80.209650
v    22.435981 421.188412 80.209650
v    22.176752 417.861862 79.458092
v    21.687312 417.621143 80.347253
v    20.058104 416.859796 83.271232
v    19.524252 416.586219 83.871683
v    17.080129 415.436747 86.564123
v    15.925006 414.856883 87.298862
v    13.138246 413.903119 88.932459
v    20.413636 420.569073 79.458092
v    19.995569 420.218762 80.347253
v    18.640470 419.036529 83.271232
v    18.174393 418.658886 83.871683
v    16.134804 416.888265 86.564123
v    15.137385 416.066251 87.298862
v    13.138246 413.903119 88.932459
v    21.751646 419.585034 80.209650
v    23.233279 419.559545 80.209650
v    22.514536 420.855421 80.209650
v    23.247994 420.414966 110.590382
v    21.766361 420.440455 110.590382
v    22.485104 419.144579 110.590382
v    22.542887 422.323047 109.652291
v    23.129708 422.561673 110.684992
v    25.269760 423.382595 114.411829
v    25.899729 423.650947 115.097236
v    29.104356 424.889258 118.521993
v    30.520964 425.478817 119.394240
v    34.074944 426.420010 121.433286
v    24.493299 418.806500 109.652291
v    25.006446 419.177959 110.684992
v    26.835987 420.558726 114.411829
v    27.397197 420.951047 115.097236
v    30.144499 423.013906 118.521993
v    31.394712 423.903469 119.394240
v    34.074944 426.420010 121.433286
v    23.031098 420.141323 110.590382
v    22.111792 420.389439 110.590382
v    22.356571 419.469238 110.590382
v    21.968542 419.858677 123.483000
v    22.887848 419.610561 123.483000
v    22.643069 420.530762 123.483000
v    21.418338 417.784984 121.344365
v    19.560235 417.978864 127.927264
v    19.080904 417.951489 128.799547
v    16.496428 418.403061 133.217052
v    20.460731 421.384926 121.344365
v    18.944538 420.293462 127.927264
v    18.514957 420.079060 128.799547
v    16.496428 418.403061 133.217052
mtllib usm_10_Beer_2018-07-28_10.mtl
usemtl APPID_1690685888_2419754900240 
o vid_3 
f 3 2 1
f 4 5 6
f 1 6 5
f 1 5 3
f 3 5 4
f 4 2 3
f 2 4 6
f 6 1 2
usemtl APPID_1690688800_2419754896784 
o vid_4 
f 7 16 17
f 8 17 18
f 9 18 19
f 10 19 20
f 11 20 21
f 12 21 22
f 13 22 23
f 7 17 8
f 8 18 9
f 9 19 10
f 10 20 11
f 11 21 12
f 12 22 13
f 13 23 14
f 14 23 24
usemtl APPID_1690685888_2419754900240 
o vid_5 
f 27 26 25
f 28 29 30
f 25 30 29
f 25 29 27
f 27 29 28
f 28 26 27
f 26 28 30
f 30 25 26
usemtl APPID_1690688800_2419754896784 
o vid_6 
f 31 40 41
f 32 41 42
f 33 42 43
f 34 43 44
f 35 44 45
f 36 45 46
f 37 46 47
f 31 41 32
f 32 42 33
f 33 43 34
f 34 44 35
f 35 45 36
f 36 46 37
f 37 47 38
f 38 47 48
usemtl APPID_1690685888_2419754900240 
o vid_7 
f 51 50 49
f 52 53 54
f 49 54 53
f 49 53 51
f 51 53 52
f 52 50 51
f 50 52 54
f 54 49 50
usemtl APPID_1690688800_2419754896784 
o vid_8 
f 55 63 64
f 56 64 65
f 57 65 66
f 58 66 67
f 59 67 68
f 60 68 69
f 55 64 56
f 56 65 57
f 57 66 58
f 58 67 59
f 59 68 60
f 60 69 61
f 61 69 70
usemtl APPID_1690685888_2419754900240 
o vid_9 
f 73 72 71
f 74 75 76
f 71 76 75
f 71 75 73
f 73 75 74
f 74 72 73
f 72 74 76
f 76 71 72
usemtl APPID_1690688800_2419754896784 
o vid_10 
f 77 85 86
f 78 86 87
f 79 87 88
f 80 88 89
f 81 89 90
f 82 90 91
f 77 86 78
f 78 87 79
f 79 88 80
f 80 89 81
f 81 90 82
f 82 91 83
f 83 91 92
usemtl APPID_1690685888_2419754900240 
o vid_11 
f 95 94 93
f 96 97 98
f 93 98 97
f 93 97 95
f 95 97 96
f 96 94 95
f 94 96 98
f 98 93 94
usemtl APPID_1690688800_2419754896784 
o vid_12 
f 99 107 108
f 100 108 109
f 101 109 110
f 102 110 111
f 103 111 112
f 104 112 113
f 99 108 100
f 100 109 101
f 101 110 102
f 102 111 103
f 103 112 104
f 104 113 105
f 105 113 114
usemtl APPID_1690685888_2419754900240 
o vid_13 
f 117 116 115
f 118 119 120
f 115 120 119
f 115 119 117
f 117 119 118
f 118 116 117
f 116 118 120
f 120 115 116
usemtl APPID_1690688800_2419754896784 
o vid_14 
f 121 129 130
f 122 130 131
f 123 131 132
f 124 132 133
f 125 133 134
f 126 134 135
f 121 130 122
f 122 131 123
f 123 132 124
f 124 133 125
f 125 134 126
f 126 135 127
f 127 135 136
usemtl APPID_1690685888_2419754900240 
o vid_15 
f 139 138 137
f 140 141 142
f 137 142 141
f 137 141 139
f 139 141 140
f 140 138 139
f 138 140 142
f 142 137 138
usemtl APPID_1690688800_2419754896784 
o vid_16 
f 143 148 149
f 144 149 150
f 145 150 151
f 143 149 144
f 144 150 145
f 145 151 146
f 146 151 152
usemtl APPID_1690685888_2419754900240 
o vid_17 
f 155 154 153
f 156 157 158
f 153 158 157
f 153 157 155
f 155 157 156
f 156 154 155
f 154 156 158
f 158 153 154
usemtl APPID_1690688800_2419754896784 
o vid_18 
f 159 166 167
f 160 167 168
f 161 168 169
f 162 169 170
f 163 170 171
f 159 167 160
f 160 168 161
f 161 169 162
f 162 170 163
f 163 171 164
f 164 171 172
usemtl APPID_1690685888_2419754900240 
o vid_19 
f 175 174 173
f 176 177 178
f 173 178 177
f 173 177 175
f 175 177 176
f 176 174 175
f 174 176 178
f 178 173 174
usemtl APPID_1690688800_2419754896784 
o vid_20 
f 179 186 187
f 180 187 188
f 181 188 189
f 182 189 190
f 183 190 191
f 179 187 180
f 180 188 181
f 181 189 182
f 182 190 183
f 183 191 184
f 184 191 192
usemtl APPID_1690685888_2419754900240 
o vid_21 
f 195 194 193
f 196 197 198
f 193 198 197
f 193 197 195
f 195 197 196
f 196 194 195
f 194 196 198
f 198 193 194
usemtl APPID_1690688800_2419754896784 
o vid_22 
f 199 203 204
f 200 204 205
f 199 204 200
f 200 205 201
f 201 205 206
