# File generated by PlantGL - Fri Sep  4 14:44:18 2026
v    17.752484 298.905161 0.000000
v    22.071916 298.601013 0.000000
v    20.175600 302.493825 0.000000
v    22.247516 301.094839 0.848509
v    17.928084 301.398987 0.848509
v    19.824400 297.506175 0.848509
v    22.074151 301.428408 0.712486
v    22.462129 301.576327 1.098328
v    22.403306 300.752709 0.712486
v    22.758939 300.967026 1.098328
v    21.879284 301.505407 0.848509
v    17.756638 300.874804 0.848509
v    20.364078 297.619789 0.848509
v    18.120716 298.494593 1.417165
v    22.243362 299.125196 1.417165
v    19.635922 302.380211 1.417165
v    18.474463 298.075510 1.221241
v    18.175273 297.876772 1.555011
v    17.788945 298.931281 1.221241
v    17.529697 298.682680 1.555011
v    17.841416 299.161313 1.417165
v    21.805616 298.549955 1.417165
v    20.352968 302.288732 1.417165
v    22.158584 300.838687 2.253766
v    18.194384 301.450045 2.253766
v    19.647032 297.711268 2.253766
v    21.884467 301.489362 1.977387
v    22.653474 301.711768 2.721273
v    22.736067 301.734192 2.800673
v    23.014152 301.813381 2.995300
v    22.395677 300.173628 1.977387
v    23.113116 300.528759 2.721273
v    23.189182 300.567979 2.800673
v    23.447784 300.697314 2.995300
v    22.163962 300.511898 2.253766
v    18.474702 301.618097 2.253766
v    19.361335 297.870005 2.253766
v    17.836038 299.488102 4.112548
v    21.525298 298.381903 4.112548
v    20.638665 302.129995 4.112548
v    18.092464 298.523291 3.730721
v    16.881003 298.348575 4.868118
v    15.183928 298.108634 6.021961
v    13.801044 297.898000 6.470333
v    17.633012 300.465546 3.730721
v    16.471670 300.078961 4.868118
v    14.846959 299.533115 6.021961
v    13.516269 299.101837 6.470333
v    18.595695 298.396392 4.112548
v    22.090917 299.585640 4.112548
v    19.313387 302.017967 4.112548
v    21.404305 301.603608 5.999272
v    17.909083 300.414360 5.999272
v    20.686613 297.982033 5.999272
v    20.322641 302.501493 5.482651
v    21.520176 303.645419 7.021579
v    22.174401 304.283510 7.637500
v    23.193831 305.249320 8.582757
v    26.266555 308.231400 9.955240
v    26.520534 308.459028 10.064121
v    22.437055 300.649867 5.482651
v    23.412978 301.987862 7.021579
v    23.959172 302.720557 7.637500
v    24.782036 303.858504 8.582757
v    27.332630 307.297821 9.955240
v    27.524758 307.579613 10.064121
v    21.718982 301.097521 5.999272
v    18.190028 300.939922 5.999272
v    20.090990 297.962557 5.999272
v    18.281018 298.902479 11.505015
v    21.809972 299.060078 11.505015
v    19.909010 302.037443 11.505015
v    19.264432 297.453626 10.820438
v    17.482886 296.528005 12.686052
v    14.582420 295.038737 14.928406
v    11.013185 293.148244 16.223035
v    9.122334 292.240904 16.892585
v    17.380527 300.404275 10.820438
v    15.791155 299.177662 12.686052
v    13.219618 297.173213 14.928406
v    10.002685 294.730931 16.223035
v    8.383900 293.397469 16.892585
v    18.420020 298.861621 11.505015
v    21.775855 299.200887 11.505015
v    19.804125 301.937492 11.505015
v    21.579980 301.138379 19.658889
v    18.224145 300.799113 19.658889
v    20.195875 298.062508 19.658889
v    20.075274 303.117586 18.770471
v    22.524833 304.570317 21.416921
v    24.616666 305.840508 23.066296
v    25.942837 306.619652 24.101634
v    33.086282 310.932986 26.776381
v    36.450173 312.812541 26.732510
v    22.981096 299.084535 18.770471
v    25.134527 300.948270 21.416921
v    27.001566 302.530456 23.066296
v    28.160441 303.541793 24.101634
v    34.513214 308.952516 26.776381
v    37.360951 311.548453 26.732510
v    21.554633 301.012481 19.658889
v    18.345849 300.840111 19.658889
v    20.099518 298.147408 19.658889
v    18.445367 298.987519 30.873903
v    21.654151 299.159889 30.873903
v    19.900482 301.852592 30.873903
v    20.202866 296.437610 29.744739
v    17.006060 294.739811 33.108328
v    14.979483 293.636319 34.663522
v    12.537661 292.352330 36.520550
v    3.993846 287.727633 39.634586
v    -0.624725 285.432531 39.871570
v    -1.495438 285.134734 39.861346
v    16.823848 301.625988 29.744739
v    13.978410 299.388674 33.108328
v    12.149708 297.981352 34.663522
v    9.988018 296.267227 36.520550
v    2.303572 290.322997 39.634586
v    -1.663051 287.026848 39.871570
v    -2.287489 286.350904 39.861346
v    18.458123 299.144816 30.873903
v    21.511550 299.092287 30.873903
v    20.030327 301.762897 30.873903
v    21.541877 300.855184 48.397355
v    18.488450 300.907713 48.397355
v    19.969673 298.237103 48.397355
v    19.472744 304.377553 46.991824
v    23.591638 306.203827 51.178667
v    28.872663 308.611456 55.090326
v    41.355325 314.258297 59.657655
v    43.513927 315.246031 59.630531
v    49.499450 317.715622 59.556815
v    52.009973 318.370714 59.151440
v    23.434367 297.234843 46.991824
v    27.164543 299.761965 51.178667
v    32.003230 302.967119 55.090326
v    43.402997 310.566393 59.657655
v    45.383869 311.874570 59.630531
v    50.648145 315.644553 59.556815
v    52.533171 317.427401 59.151440
v    21.614895 300.429572 48.397355
v    18.820532 301.183754 48.397355
v    19.564573 298.386674 48.397355
v    18.385105 299.570428 69.758548
v    21.179468 298.816246 69.758548
v    20.435427 301.613326 69.758548
v    19.793134 294.756161 68.045109
v    14.380618 293.821517 73.149157
v    6.967466 292.462291 78.228644
v    -9.013782 289.574907 83.485625
v    -12.406968 288.947883 83.446197
v    -20.049283 287.832665 83.358270
v    -24.145354 287.776012 82.631612
v    -24.519932 287.775519 82.520204
v    17.215046 304.447996 68.045109
v    12.053501 302.569875 73.149157
v    4.944782 300.066194 78.228644
v    -10.358892 294.631596 83.485625
v    -13.615153 293.489826 83.446197
v    -20.801511 290.660526 83.358270
v    -24.384367 288.674536 82.631612
v    -24.709683 288.488853 82.520204
v    18.541706 299.394647 69.758548
v    21.253398 299.039757 69.758548
v    20.204896 301.565597 69.758548
v    21.458294 300.605353 89.607729
v    18.746602 300.960243 89.607729
v    19.795104 298.434403 89.607729
v    19.234428 305.579227 87.562032
v    25.490677 307.544783 93.655820
v    27.501402 308.199571 95.081021
v    34.251771 310.289914 99.837714
v    48.741583 314.968684 104.718306
v    52.597959 316.046940 105.996659
v    57.617926 317.481667 105.937220
v    63.530481 318.349536 105.870823
v    23.410631 295.518764 87.562032
v    29.219674 298.561636 93.655820
v    31.103007 299.523312 95.081021
v    37.349284 302.828012 99.837714
v    50.892885 309.786203 104.718306
v    54.379186 311.755968 105.996659
v    58.939459 314.298098 105.937220
v    63.728477 317.872564 105.870823
v    20.973100 300.800689 89.607729
v    18.820033 300.442385 89.607729
v    20.206867 298.756926 89.607729
v    19.026900 299.199311 113.503741
v    21.179967 299.557615 113.503741
v    19.793133 301.243074 113.503741
v    23.078682 294.545583 111.111757
v    16.804087 290.257974 118.173699
v    7.856001 284.198323 125.465414
v    -4.357235 275.709966 130.232804
v    -10.785887 271.610413 132.666918
v    -13.319640 269.974097 132.632580
v    -20.508595 266.582803 132.544265
v    15.240570 304.071459 111.111757
v    9.824865 298.740016 118.173699
v    2.155431 291.126385 125.465414
v    -8.526047 280.776438 130.232804
v    -13.786884 275.257608 132.666918
v    -15.880517 273.086402 132.632580
v    -20.592771 266.685104 132.544265
v    19.333812 299.302983 113.503741
v    20.936729 299.771573 113.503741
v    19.729459 300.925444 113.503741
v    20.666188 300.697017 130.408186
v    19.063271 300.228427 130.408186
v    20.270541 299.074556 130.408186
v    15.564530 305.300752 127.669013
v    20.468874 309.593140 133.725355
v    22.199021 311.057951 135.828551
v    31.485804 319.118760 144.106064
v    42.088570 328.547906 148.654106
v    51.044817 335.897557 152.352847
v    59.369674 341.191622 152.243065
v    25.495852 295.808703 127.669013
v    29.562135 300.902083 133.725355
v    30.947231 302.696683 135.828551
v    38.579960 312.338386 144.106064
v    47.520134 323.356586 148.654106
v    54.457374 332.635940 152.352847
v    59.369674 341.191622 152.243065
v    20.488130 300.497490 130.408186
v    19.325096 300.173988 130.408186
v    20.186774 299.328522 130.408186
v    19.511870 299.502510 146.719517
v    20.674904 299.826012 146.719517
v    19.813226 300.671478 146.719517
v    25.300052 294.132486 143.647488
v    18.121041 288.013667 152.412939
v    7.267379 278.846335 162.081916
v    -6.849802 266.619575 168.068156
v    -14.834473 260.240609 171.330821
v    -17.497918 258.087610 171.291830
v    -26.512300 252.595847 171.174552
v    14.032893 305.187667 143.647488
v    8.051512 297.893750 152.412939
v    -0.908048 286.867951 162.081916
v    -12.864508 272.521120 168.068156
v    -19.090688 264.416748 171.330821
v    -21.192718 261.712896 171.291830
v    -26.512300 252.595847 171.174552
v    19.692775 299.659595 146.719517
v    20.448412 299.904138 146.719517
v    19.858813 300.436267 146.719517
v    20.307225 300.340405 154.001000
v    19.551588 300.095862 154.001000
v    20.141187 299.563733 154.001000
v    15.403842 304.960329 147.266018
v    22.096377 310.673355 159.139216
v    28.761218 316.614399 167.933929
v    31.969175 319.183618 171.953469
v    38.534199 324.778775 176.597597
v    47.262960 330.207298 181.961791
v    25.404069 295.934835 147.266018
v    30.403229 303.176181 159.139216
v    35.632044 310.413280 167.933929
v    37.859969 313.867006 171.953469
v    42.754908 320.969463 176.597597
v    47.262960 330.207298 181.961791
v    22.462129 301.576327 1.098328
v    22.774214 301.698815 1.329598
v    23.051065 301.803065 1.528727
v    24.180316 302.243880 1.917291
v    24.768496 302.450363 1.931902
v    25.099857 302.519461 1.928141
v    25.224206 302.544882 1.905659
v    22.758939 300.967026 1.098328
v    23.047765 301.137262 1.329598
v    23.300511 301.290995 1.528727
v    24.343713 301.908454 1.917291
v    24.868870 302.244313 1.931902
v    25.127537 302.462638 1.928141
v    25.224206 302.544882 1.905659
v    18.175273 297.876772 1.555011
v    17.951303 297.728000 1.804865
v    17.503511 297.423790 2.169717
v    17.221576 297.238180 2.396928
v    15.696795 296.207841 2.986792
v    14.925749 295.723761 2.976427
v    14.581997 295.567081 2.972230
v    14.316817 295.447468 2.920698
v    17.529697 298.682680 1.555011
v    17.335629 298.496581 1.804865
v    16.941018 298.125982 2.169717
v    16.698348 297.891355 2.396928
v    15.360052 296.628217 2.986792
v    14.719354 295.981415 2.976427
v    14.491425 295.680148 2.972230
v    14.316817 295.447468 2.920698
v    23.014152 301.813381 2.995300
v    23.929396 302.074007 3.635862
v    25.479703 302.535714 4.154356
v    26.431519 302.778510 4.467951
v    26.665804 302.839708 4.465194
v    27.608283 302.956091 4.454643
v    23.447784 300.697314 2.995300
v    24.298903 301.122982 3.635862
v    25.754255 301.829082 4.154356
v    26.620314 302.292595 4.467951
v    26.834460 302.405628 4.465194
v    27.608283 302.956091 4.454643
v    13.801044 297.898000 6.470333
v    12.643856 297.721742 6.845528
v    11.629066 297.608161 7.171520
v    10.946619 297.527807 7.163697
v    9.634818 297.548056 7.149120
v    13.516269 299.101837 6.470333
v    12.402757 298.740948 6.845528
v    11.444632 298.387825 7.171520
v    10.798513 298.153899 7.163697
v    9.634818 297.548056 7.149120
v    26.520534 308.459028 10.064121
v    26.693193 308.613773 10.138140
v    28.010849 309.808431 10.117891
v    29.355546 310.735988 10.099741
v    29.470583 310.814675 10.075053
v    27.524758 307.579613 10.064121
v    27.655370 307.771179 10.138140
v    28.665732 309.234939 10.117891
v    29.407762 310.690262 10.099741
v    29.470583 310.814675 10.075053
v    9.122334 292.240904 16.892585
v    8.848773 292.109633 16.989453
v    8.278951 291.832163 16.982237
v    6.046525 291.091104 16.956102
v    8.383900 293.397469 16.892585
v    8.149700 293.204548 16.989453
v    7.658207 292.804399 16.982237
v    6.046525 291.091104 16.956102
v    36.450173 312.812541 26.732510
v    36.682285 312.942154 26.729483
v    38.283888 313.575609 26.710347
v    39.503924 314.052623 26.478299
v    37.360951 311.548453 26.732510
v    37.557374 311.727601 26.729483
v    38.665240 313.046324 26.710347
v    39.503924 314.052623 26.478299
v    -1.495438 285.134734 39.861346
v    -3.638888 284.401640 39.836176
v    -4.286595 284.182949 39.715078
v    -2.287489 286.350904 39.861346
v    -3.824680 284.686918 39.836176
v    -4.286595 284.182949 39.715078
v    52.009973 318.370714 59.151440
v    53.071616 318.647177 58.957110
v    54.080462 318.902337 58.647608
v    52.533171 317.427401 59.151440
v    53.329830 318.181623 58.957110
v    54.080462 318.902337 58.647608
v    -24.519932 287.775519 82.520204
v    -25.962768 287.773621 82.091072
v    -24.709683 288.488853 82.520204
v    -25.962768 287.773621 82.091072
v    63.530481 318.349536 105.870823
v    64.572425 318.502476 105.859123
v    63.728477 317.872564 105.870823
v    64.572425 318.502476 105.859123
v    -20.508595 266.582803 132.544265
v    -20.752927 266.467543 132.541263
v    -20.592771 266.685104 132.544265
v    -20.752927 266.467543 132.541263
mtllib usm_10_2.5D_2018-08-13_7.mtl
usemtl APPID_3007500768_1759648506592 
o vid_3 
f 3 2 1
f 4 5 6
f 1 6 5
f 1 5 3
f 3 5 4
f 4 2 3
f 2 4 6
f 6 1 2
usemtl APPID_3007504576_1759648508512 
o vid_4 
f 7 9 10
f 7 10 8
f 7 9 10
f 7 10 8
usemtl APPID_3007500768_1759648506592 
o vid_5 
f 13 12 11
f 14 15 16
f 11 16 15
f 11 15 13
f 13 15 14
f 14 12 13
f 12 14 16
f 16 11 12
usemtl APPID_3007504576_1759648508512 
o vid_6 
f 17 19 20
f 17 20 18
f 17 19 20
f 17 20 18
usemtl APPID_3007500768_1759648506592 
o vid_7 
f 23 22 21
f 24 25 26
f 21 26 25
f 21 25 23
f 23 25 24
f 24 22 23
f 22 24 26
f 26 21 22
usemtl APPID_3007504576_1759648508512 
o vid_8 
f 27 31 32
f 28 32 33
f 27 32 28
f 28 33 29
f 29 33 34
f 29 34 30
usemtl APPID_3007500768_1759648506592 
o vid_9 
f 37 36 35
f 38 39 40
f 35 40 39
f 35 39 37
f 37 39 38
f 38 36 37
f 36 38 40
f 40 35 36
usemtl APPID_3007504576_1759648508512 
o vid_10 
f 41 45 46
f 42 46 47
f 41 46 42
f 42 47 43
f 43 47 48
f 43 48 44
usemtl APPID_3007500768_1759648506592 
o vid_11 
f 51 50 49
f 52 53 54
f 49 54 53
f 49 53 51
f 51 53 52
f 52 50 51
f 50 52 54
f 54 49 50
usemtl APPID_3007504576_1759648508512 
o vid_12 
f 55 61 62
f 56 62 63
f 57 63 64
f 58 64 65
f 55 62 56
f 56 63 57
f 57 64 58
f 58 65 59
f 59 65 66
f 59 66 60
usemtl APPID_3007500768_1759648506592 
o vid_13 
f 69 68 67
f 70 71 72
f 67 72 71
f 67 71 69
f 69 71 70
f 70 68 69
f 68 70 72
f 72 67 68
usemtl APPID_3007504576_1759648508512 
o vid_14 
f 73 78 79
f 74 79 80
f 75 80 81
f 73 79 74
f 74 80 75
f 75 81 76
f 76 81 82
f 76 82 77
usemtl APPID_3007500768_1759648506592 
o vid_15 
f 85 84 83
f 86 87 88
f 83 88 87
f 83 87 85
f 85 87 86
f 86 84 85
f 84 86 88
f 88 83 84
usemtl APPID_3007504576_1759648508512 
o vid_16 
f 89 95 96
f 90 96 97
f 91 97 98
f 92 98 99
f 89 96 90
f 90 97 91
f 91 98 92
f 92 99 93
f 93 99 100
f 93 100 94
usemtl APPID_3007500768_1759648506592 
o vid_17 
f 103 102 101
f 104 105 106
f 101 106 105
f 101 105 103
f 103 105 104
f 104 102 103
f 102 104 106
f 106 101 102
usemtl APPID_3007504576_1759648508512 
o vid_18 
f 107 114 115
f 108 115 116
f 109 116 117
f 110 117 118
f 111 118 119
f 107 115 108
f 108 116 109
f 109 117 110
f 110 118 111
f 111 119 112
f 112 119 120
f 112 120 113
usemtl APPID_3007500768_1759648506592 
o vid_19 
f 123 122 121
f 124 125 126
f 121 126 125
f 121 125 123
f 123 125 124
f 124 122 123
f 122 124 126
f 126 121 122
usemtl APPID_3007504576_1759648508512 
o vid_20 
f 127 134 135
f 128 135 136
f 129 136 137
f 130 137 138
f 131 138 139
f 127 135 128
f 128 136 129
f 129 137 130
f 130 138 131
f 131 139 132
f 132 139 140
f 132 140 133
usemtl APPID_3007500768_1759648506592 
o vid_21 
f 143 142 141
f 144 145 146
f 141 146 145
f 141 145 143
f 143 145 144
f 144 142 143
f 142 144 146
f 146 141 142
usemtl APPID_3007504576_1759648508512 
o vid_22 
f 147 155 156
f 148 156 157
f 149 157 158
f 150 158 159
f 151 159 160
f 152 160 161
f 147 156 148
f 148 157 149
f 149 158 150
f 150 159 151
f 151 160 152
f 152 161 153
f 153 161 162
f 153 162 154
usemtl APPID_3007500768_1759648506592 
o vid_23 
f 165 164 163
f 166 167 168
f 163 168 167
f 163 167 165
f 165 167 166
f 166 164 165
f 164 166 168
f 168 163 164
usemtl APPID_3007504576_1759648508512 
o vid_24 
f 169 177 178
f 170 178 179
f 171 179 180
f 172 180 181
f 173 181 182
f 174 182 183
f 169 178 170
f 170 179 171
f 171 180 172
f 172 181 173
f 173 182 174
f 174 183 175
f 175 183 184
f 175 184 176
usemtl APPID_3007500768_1759648506592 
o vid_25 
f 187 186 185
f 188 189 190
f 185 190 189
f 185 189 187
f 187 189 188
f 188 186 187
f 186 188 190
f 190 185 186
usemtl APPID_3007504576_1759648508512 
o vid_26 
f 191 198 199
f 192 199 200
f 193 200 201
f 194 201 202
f 195 202 203
f 191 199 192
f 192 200 193
f 193 201 194
f 194 202 195
f 195 203 196
f 196 203 204
f 196 204 197
usemtl APPID_3007500768_1759648506592 
o vid_27 
f 207 206 205
f 208 209 210
f 205 210 209
f 205 209 207
f 207 209 208
f 208 206 207
f 206 208 210
f 210 205 206
usemtl APPID_3007504576_1759648508512 
o vid_28 
f 211 218 219
f 212 219 220
f 213 220 221
f 214 221 222
f 215 222 223
f 211 219 212
f 212 220 213
f 213 221 214
f 214 222 215
f 215 223 216
f 216 223 224
usemtl APPID_3007500768_1759648506592 
o vid_29 
f 227 226 225
f 228 229 230
f 225 230 229
f 225 229 227
f 227 229 228
f 228 226 227
f 226 228 230
f 230 225 226
usemtl APPID_3007504576_1759648508512 
o vid_30 
f 231 238 239
f 232 239 240
f 233 240 241
f 234 241 242
f 235 242 243
f 231 239 232
f 232 240 233
f 233 241 234
f 234 242 235
f 235 243 236
f 236 243 244
usemtl APPID_3007500768_1759648506592 
o vid_31 
f 247 246 245
f 248 249 250
f 245 250 249
f 245 249 247
f 247 249 248
f 248 246 247
f 246 248 250
f 250 245 246
usemtl APPID_3007504576_1759648508512 
o vid_32 
f 251 257 258
f 252 258 259
f 253 259 260
f 254 260 261
f 251 258 252
f 252 259 253
f 253 260 254
f 254 261 255
f 255 261 262
usemtl APPID_3007509840_1759648505056 
o vid_10000004 
f 263 270 271
f 264 271 272
f 265 272 273
f 266 273 274
f 267 274 275
f 263 271 264
f 264 272 265
f 265 273 266
f 266 274 267
f 267 275 268
f 268 275 276
usemtl APPID_3007509840_1759648505056 
o vid_10000006 
f 277 285 286
f 278 286 287
f 279 287 288
f 280 288 289
f 281 289 290
f 282 290 291
f 277 286 278
f 278 287 279
f 279 288 280
f 280 289 281
f 281 290 282
f 282 291 283
f 283 291 292
usemtl APPID_3007509840_1759648505056 
o vid_10000008 
f 293 299 300
f 294 300 301
f 295 301 302
f 296 302 303
f 293 300 294
f 294 301 295
f 295 302 296
f 296 303 297
f 297 303 304
usemtl APPID_3007509840_1759648505056 
o vid_10000010 
f 305 310 311
f 306 311 312
f 307 312 313
f 305 311 306
f 306 312 307
f 307 313 308
f 308 313 314
usemtl APPID_3007509840_1759648505056 
o vid_10000012 
f 315 320 321
f 316 321 322
f 317 322 323
f 315 321 316
f 316 322 317
f 317 323 318
f 318 323 324
usemtl APPID_3007509840_1759648505056 
o vid_10000014 
f 325 329 330
f 326 330 331
f 325 330 326
f 326 331 327
f 327 331 332
usemtl APPID_3007509840_1759648505056 
o vid_10000016 
f 333 337 338
f 334 338 339
f 333 338 334
f 334 339 335
f 335 339 340
usemtl APPID_3007509840_1759648505056 
o vid_10000018 
f 341 344 345
f 341 345 342
f 342 345 346
usemtl APPID_3007509840_1759648505056 
o vid_10000020 
f 347 350 351
f 347 351 348
f 348 351 352
usemtl APPID_3007509840_1759648505056 
o vid_10000022 
f 353 355 356
f 353 356 354
f 353 355 356
usemtl APPID_3007509840_1759648505056 
o vid_10000024 
f 357 359 360
f 357 360 358
f 357 359 360
usemtl APPID_3007509840_1759648505056 
o vid_10000026 
f 361 363 364
f 361 364 362
f 361 363 364
