# File generated by PlantGL - Fri Sep  4 14:44:38 2026
v    138.201987 19.124129 0.000000
v    141.657533 18.880811 0.000000
v    140.140480 21.995060 0.000000
v    141.798013 20.875871 0.331061
v    138.342467 21.119189 0.331061
v    139.859520 18.004940 0.331061
v    141.399179 21.442027 -0.051354
v    141.540571 21.495735 0.091959
v    141.997960 20.212831 -0.051354
v    142.127409 20.291058 0.091959
v    141.503548 21.204422 0.331061
v    138.205166 20.699900 0.331061
v    140.291286 18.095678 0.331061
v    138.496452 18.795578 0.718770
v    141.794834 19.300100 0.718770
v    139.708714 21.904322 0.718770
v    139.260401 18.087603 0.187697
v    137.954796 17.222662 1.671637
v    137.972285 19.695631 0.187697
v    136.843236 18.610285 1.671637
v    138.272844 19.328938 0.718770
v    141.444735 18.839770 0.718770
v    140.282421 21.831292 0.718770
v    141.727156 20.671062 1.487000
v    138.555265 21.160230 1.487000
v    139.717579 18.168708 1.487000
v    141.016347 21.925626 0.767206
v    143.142736 22.537774 2.863844
v    145.111914 23.132326 4.155610
v    145.629036 23.276681 4.492151
v    146.344082 23.485910 4.680143
v    142.049826 19.265693 0.767206
v    144.031713 20.249757 2.863844
v    145.885748 21.140660 4.155610
v    146.364680 21.383307 4.492151
v    147.033416 21.711728 4.680143
v    141.731622 20.409625 1.487000
v    138.779443 21.294816 1.487000
v    139.488935 18.295559 1.487000
v    138.268378 19.590375 2.857581
v    141.220557 18.705184 2.857581
v    140.511065 21.704441 2.857581
v    138.979584 17.780244 1.905447
v    136.082051 17.365996 4.678853
v    132.909788 16.870557 6.695159
v    128.564255 16.232710 7.885621
v    138.093195 21.527305 1.905447
v    135.317161 20.599438 4.678853
v    132.259139 19.621067 6.695159
v    128.088392 18.244338 7.885621
v    138.876148 18.716648 2.857581
v    141.673341 19.668392 2.857581
v    139.450510 21.614960 2.857581
v    141.123852 21.283352 4.464214
v    138.326659 20.331608 4.464214
v    140.549490 18.385040 4.464214
v    138.864793 22.789032 3.235010
v    140.489833 24.338261 5.362431
v    141.600025 25.396149 6.815473
v    144.765878 28.491896 9.596159
v    146.703044 30.423675 10.287444
v    149.910941 33.507238 11.410204
v    150.945487 34.503221 11.106522
v    152.732537 36.136633 10.595844
v    142.914429 19.242702 3.235010
v    144.235706 21.057940 5.362431
v    145.137868 22.298004 6.815473
v    147.788848 25.844634 9.596159
v    149.448150 28.019743 10.287444
v    152.081505 31.606440 11.410204
v    152.932283 32.763352 11.106522
v    154.315633 34.750291 10.595844
v    141.375838 20.878433 4.464214
v    138.551335 20.752294 4.464214
v    140.072827 18.369272 4.464214
v    138.624162 19.121567 11.608452
v    141.448665 19.247706 11.608452
v    139.927173 21.630728 11.608452
v    140.957429 16.299579 10.059688
v    139.119933 15.242167 12.074546
v    137.670556 14.490943 13.621410
v    134.917560 13.033367 15.897928
v    131.860792 11.399509 18.074564
v    124.450803 7.344935 20.208929
v    117.843365 3.879677 18.909233
v    114.697922 2.332310 18.169826
v    113.932088 1.969702 17.673236
v    137.046068 22.425711 10.059688
v    135.313599 21.203802 12.074546
v    134.022213 20.205127 13.621410
v    131.541482 18.321118 15.897928
v    128.773007 16.235724 18.074564
v    121.976696 11.219982 20.208929
v    116.052706 6.684280 18.909233
v    113.325376 4.482048 18.169826
v    112.674164 3.939914 17.673236
v    138.735263 19.088754 11.608452
v    141.421531 19.360328 11.608452
v    139.843206 21.550918 11.608452
v    141.264737 20.911246 22.178673
v    138.578469 20.639672 22.178673
v    140.156794 18.449082 22.178673
v    138.182748 24.246432 20.274167
v    140.517692 25.935336 23.015843
v    142.989896 27.549075 25.821669
v    148.832761 31.140458 30.130010
v    158.275731 37.018755 32.940657
v    162.052729 39.373115 31.998166
v    165.807148 41.619554 31.072952
v    169.158151 43.624610 30.247153
v    172.890736 45.682187 27.747604
v    175.302344 46.726240 25.429950
v    143.452816 16.931996 20.274167
v    145.793993 18.612248 23.015843
v    148.107321 20.446496 25.821669
v    153.363573 24.852052 30.130010
v    161.928744 31.948664 32.940657
v    165.357637 34.786165 31.998166
v    168.677012 37.636411 31.072952
v    171.639716 40.180396 30.247153
v    174.773029 43.069714 27.747604
v    176.526783 45.026815 25.429950
v    141.244614 20.810576 22.178673
v    138.675713 20.672580 22.178673
v    140.079672 18.516844 22.178673
v    138.755386 19.189424 39.904756
v    141.324287 19.327420 39.904756
v    139.920328 21.483156 39.904756
v    142.263440 15.014382 37.619079
v    138.635474 12.882747 41.618191
v    136.156123 11.569119 44.276869
v    132.311628 9.468296 47.028178
v    128.930609 7.621648 49.447489
v    117.278158 1.108180 52.820665
v    107.071858 -4.375188 50.370395
v    103.758803 -6.042363 49.588078
v    101.178878 -7.292577 47.907916
v    98.984501 -8.016544 46.588264
v    98.373041 -8.192073 46.039160
v    136.355346 24.086079 37.619079
v    132.938780 21.629846 41.618191
v    130.734808 19.893382 44.276869
v    127.258871 17.226650 47.028178
v    124.202808 14.881041 49.447489
v    113.533910 6.857358 52.820665
v    104.391895 -0.260187 50.370395
v    101.527461 -2.616205 49.588078
v    99.340821 -4.470297 47.907916
v    97.791385 -6.184551 46.588264
v    97.383602 -6.672821 46.039160
v    138.765415 19.315252 39.904756
v    141.210302 19.273192 39.904756
v    140.024283 21.411556 39.904756
v    141.234585 20.684748 66.607384
v    138.789698 20.726808 66.607384
v    139.975717 18.588444 66.607384
v    138.152160 24.645699 63.930171
v    145.679983 27.972401 71.728441
v    148.541882 29.281601 73.704819
v    154.516403 31.864361 77.784791
v    159.393612 34.045167 79.132872
v    166.853466 37.149543 81.166403
v    169.075711 37.778102 81.735792
v    171.349352 38.426132 81.247091
v    142.962600 15.972590 63.930171
v    149.770612 20.597094 71.728441
v    152.396578 22.331676 73.704819
v    157.751033 26.032402 77.784791
v    162.183485 29.015093 79.132872
v    168.766905 33.699658 81.166403
v    170.476782 35.252005 81.735792
v    172.230390 36.837643 81.247091
v    141.293262 20.344016 66.607384
v    139.055443 20.947990 66.607384
v    139.651295 18.707994 66.607384
v    138.706738 19.655984 106.368040
v    140.944557 19.052010 106.368040
v    140.348705 21.292006 106.368040
v    140.792018 15.260421 103.307578
v    138.153057 14.808231 105.844507
v    131.476276 13.831614 112.222185
v    126.629693 13.041406 115.300291
v    120.527816 12.232619 119.145512
v    118.353276 11.908563 119.698831
v    112.072800 11.724891 121.247944
v    138.332455 24.506683 103.307578
v    135.817604 23.587927 105.844507
v    129.538032 21.118075 112.222185
v    124.939386 19.395794 115.300291
v    119.242124 17.065937 119.145512
v    117.193976 16.266732 119.698831
v    111.652310 13.305642 121.247944
v    138.831935 19.515124 106.368040
v    141.003948 19.230864 106.368040
v    140.164118 21.254012 106.368040
v    141.168065 20.484876 147.991690
v    138.996052 20.769136 147.991690
v    139.835882 18.745988 147.991690
v    137.853253 25.894147 144.577195
v    147.871153 29.028009 154.523041
v    150.975822 30.043461 156.574387
v    159.634686 32.675552 162.247257
v    165.312277 34.478863 163.750400
v    175.212088 37.340746 166.343947
v    178.983882 37.959949 167.286330
v    183.243854 38.668081 166.393669
v    142.658511 14.318291 144.577195
v    151.950750 19.200269 154.523041
v    154.861852 20.682025 156.574387
v    162.839231 24.955811 162.247257
v    168.124828 27.703434 163.750400
v    177.141081 32.693806 166.343947
v    180.242570 34.927774 167.286330
v    183.751702 37.444677 166.393669
v    140.919824 20.756852 147.991690
v    138.884635 20.418165 147.991690
v    140.195542 18.824983 147.991690
v    139.080176 19.243148 183.144356
v    141.115365 19.581835 183.144356
v    139.804458 21.175017 183.144356
v    144.612596 14.212007 179.426422
v    135.167996 7.775243 190.256135
v    126.145305 1.453728 197.174619
v    111.777020 -8.394732 202.461598
v    106.140219 -12.059268 204.153671
v    102.337943 -14.536585 203.196446
v    93.565600 -18.880234 201.172998
v    135.208637 25.640899 179.426422
v    127.073531 17.612672 190.256135
v    119.132767 9.976261 197.174619
v    106.701629 -2.226467 202.461598
v    102.020159 -7.052045 204.153671
v    98.856977 -10.306069 203.196446
v    92.905268 -18.077713 201.172998
v    139.227775 19.192038 183.144356
v    141.085829 19.735214 183.144356
v    139.686397 21.072748 183.144356
v    140.772225 20.807962 211.512118
v    138.914171 20.264786 211.512118
v    140.313603 18.927252 211.512118
v    134.595001 25.131062 207.561068
v    143.744672 33.119234 219.069809
v    148.496937 37.377694 223.077094
v    154.464098 42.502975 228.007812
v    161.874945 49.030208 230.499678
v    171.026304 56.675281 233.500776
v    180.095225 62.604190 231.882367
v    145.370167 14.832493 207.561068
v    152.936530 24.333941 219.069809
v    156.975796 29.273864 223.077094
v    161.826072 35.466629 228.007812
v    168.011600 43.164983 230.499678
v    175.235141 52.652607 233.500776
v    180.747997 61.980290 231.882367
v    140.731259 20.745280 211.512118
v    138.988939 20.260648 211.512118
v    140.279802 18.994071 211.512118
v    139.268741 19.254720 228.730144
v    141.011061 19.739352 228.730144
v    139.720198 21.005929 228.730144
v    145.553522 14.748788 224.632265
v    135.955986 6.588936 236.568692
v    131.825209 2.983937 240.011748
v    124.694411 -2.980085 245.838848
v    117.908242 -8.800864 248.094802
v    108.313623 -16.604876 251.207426
v    98.447832 -22.868568 250.040094
v    134.644269 25.452796 224.632265
v    126.668153 15.702029 236.568692
v    123.142251 11.503535 240.011748
v    117.314724 4.260762 245.838848
v    111.623869 -2.634724 248.094802
v    104.003474 -12.375817 251.207426
v    97.928270 -22.358781 250.040094
v    139.349705 19.279474 228.730144
v    140.949141 19.797091 228.730144
v    139.701154 20.923435 228.730144
v    140.650295 20.720526 239.394678
v    139.050859 20.202909 239.394678
v    140.298846 19.076565 239.394678
v    133.944728 25.156258 235.246654
v    143.307005 33.813700 247.329147
v    149.346773 39.545327 252.558115
v    154.249264 44.005785 256.712740
v    163.194796 52.350498 259.799579
v    172.224162 60.342591 262.834346
v    182.652847 67.664478 260.197775
v    145.748089 14.503383 235.246654
v    153.403410 24.701402 247.329147
v    158.487785 31.295300 252.558115
v    162.423871 36.627966 256.712740
v    169.810691 46.379462 259.799579
v    176.838169 56.178317 262.834346
v    183.055945 67.300671 260.197775
v    140.880529 20.171415 239.394678
v    139.411286 20.676853 239.394678
v    139.708185 19.151732 239.394678
v    139.119471 19.828585 244.883087
v    140.588714 19.323147 244.883087
v    140.291815 20.848268 244.883087
v    141.760198 12.466749 240.785208
v    129.228199 11.184213 252.721635
v    122.637678 10.423549 256.887908
v    114.531198 9.660066 261.991790
v    104.328295 8.570924 264.580897
v    92.000392 7.579894 267.693521
v    79.531415 8.037696 265.750178
v    138.805710 27.643418 240.785208
v    126.707776 24.131172 252.721635
v    120.313197 22.363988 256.887908
v    112.512309 20.030736 261.991790
v    102.645930 17.212931 264.580897
v    90.846539 13.507030 267.693521
v    79.459876 8.405180 265.750178
v    139.384513 19.492243 244.883087
v    140.747474 19.720851 244.883087
v    139.868013 20.786906 244.883087
v    140.615487 20.507757 247.346796
v    139.252526 20.279149 247.346796
v    140.131987 19.213094 247.346796
v    135.723123 24.642225 243.395746
v    139.736279 27.384819 248.001471
v    145.865307 31.357024 254.904487
v    152.490597 35.806640 259.907118
v    157.822650 39.161274 263.842490
v    161.777792 41.739743 265.030745
v    172.794174 47.184521 268.060464
v    143.744689 14.918738 243.395746
v    147.200071 18.337448 248.001471
v    152.264813 23.599747 254.904487
v    157.892588 29.258519 259.907118
v    162.199537 33.855753 263.842490
v    165.482757 37.248702 265.030745
v    172.922171 47.029366 268.060464
v    140.487358 20.365972 247.346796
v    139.439380 20.239079 247.346796
v    140.073262 19.394949 247.346796
v    139.512642 19.634028 248.969000
v    140.560620 19.760921 248.969000
v    139.926738 20.605051 248.969000
v    142.889076 16.928646 245.251066
v    141.405151 16.060481 246.875986
v    133.987844 12.059672 254.804573
v    132.662006 11.591378 256.080779
v    124.384905 8.274149 261.504415
v    137.856118 23.630943 245.251066
v    136.608588 22.447975 246.875986
v    130.698112 16.440546 254.804573
v    129.878675 15.297887 256.080779
v    124.384905 8.274149 261.504415
v    141.540571 21.495735 0.091959
v    142.498162 21.859479 1.062557
v    143.791042 22.341577 1.927651
v    144.161378 22.484100 2.027778
v    145.248981 22.870355 2.318249
v    145.936389 23.025916 2.492015
v    146.454734 23.144312 2.382108
v    142.127409 20.291058 0.091959
v    143.004109 20.820858 1.062557
v    144.180683 21.541712 1.927651
v    144.521192 21.745464 2.027778
v    145.495760 22.363760 2.318249
v    146.041986 22.809143 2.492015
v    146.454734 23.144312 2.382108
v    137.954796 17.222662 1.671637
v    136.886354 16.495836 2.504388
v    136.309267 16.120200 2.936006
v    134.855130 15.147711 3.377418
v    133.705068 14.421332 3.719757
v    131.941961 13.545081 3.311437
v    136.843236 18.610285 1.671637
v    135.900736 17.726239 2.504388
v    135.408202 17.245051 2.936006
v    134.141779 16.038227 3.377418
v    133.181900 15.074431 3.719757
v    131.941961 13.545081 3.311437
v    146.344082 23.485910 4.680143
v    148.339958 24.069920 5.204876
v    149.682658 24.424999 5.554415
v    150.446749 24.627883 5.387660
v    152.762049 24.958513 4.904210
v    147.033416 21.711728 4.680143
v    148.900028 22.628432 5.204876
v    150.130242 23.273023 5.554415
v    150.830874 23.639236 5.387660
v    152.762049 24.958513 4.904210
v    128.564255 16.232710 7.885621
v    127.175354 16.061611 8.237906
v    125.573418 15.866442 7.897510
v    122.479719 15.855476 7.258008
v    128.088392 18.244338 7.885621
v    126.770037 17.775020 8.237906
v    125.250441 17.231773 7.897510
v    122.479719 15.855476 7.258008
v    152.732537 36.136633 10.595844
v    153.708389 37.028589 10.316978
v    156.243663 38.849358 9.671765
v    156.885353 39.281772 9.229854
v    154.315633 34.750291 10.595844
v    155.071037 35.835297 10.316978
v    156.541385 38.588638 9.671765
v    156.885353 39.281772 9.229854
v    113.932088 1.969702 17.673236
v    111.386539 1.124739 16.137167
v    109.707566 0.659145 14.633253
v    112.674164 3.939914 17.673236
v    110.836461 1.986295 16.137167
v    109.707566 0.659145 14.633253
v    175.302344 46.726240 25.429950
v    178.285513 47.736854 22.711251
v    178.567750 47.788154 22.235482
v    176.526783 45.026815 25.429950
v    178.429745 47.536670 22.711251
v    178.567750 47.788154 22.235482
v    98.373041 -8.192073 46.039160
v    95.402647 -9.044771 43.371684
v    97.383602 -6.672821 46.039160
v    95.402647 -9.044771 43.371684
v    171.349352 38.426132 81.247091
v    175.201341 39.524020 80.419137
v    172.230390 36.837643 81.247091
v    175.201341 39.524020 80.419137
v    112.072800 11.724891 121.247944
v    108.498305 11.620355 122.129612
v    111.652310 13.305642 121.247944
v    108.498305 11.620355 122.129612
v    183.243854 38.668081 166.393669
v    186.125183 39.147042 165.789897
v    183.751702 37.444677 166.393669
v    186.125183 39.147042 165.789897
v    93.565600 -18.880234 201.172998
v    91.511926 -19.897116 200.699293
v    92.905268 -18.077713 201.172998
v    91.511926 -19.897116 200.699293
v    180.095225 62.604190 231.882367
v    181.761509 63.694146 231.470786
v    180.747997 61.980290 231.882367
v    181.761509 63.694146 231.470786
v    98.447832 -22.868568 250.040094
v    97.093222 -23.729496 249.708316
v    97.928270 -22.358781 250.040094
v    97.093222 -23.729496 249.708316
v    182.652847 67.664478 260.197775
v    183.635714 68.348274 259.950275
v    183.055945 67.300671 260.197775
v    183.635714 68.348274 259.950275
v    79.531415 8.037696 265.750178
v    78.706430 8.067799 265.579532
v    79.459876 8.405180 265.750178
v    78.706430 8.067799 265.579532
v    172.794174 47.184521 268.060464
v    173.188382 47.379356 268.168879
v    172.922171 47.029366 268.060464
v    173.188382 47.379356 268.168879
mtllib usm_35_2.5D_2018-10-16_3.mtl
usemtl APPID_710914352_1946549235408 
o vid_3 
f 3 2 1
f 4 5 6
f 1 6 5
f 1 5 3
f 3 5 4
f 4 2 3
f 2 4 6
f 6 1 2
usemtl APPID_710913120_1946549237072 
o vid_4 
f 7 9 10
f 7 10 8
f 7 9 10
f 7 10 8
usemtl APPID_710914352_1946549235408 
o vid_5 
f 13 12 11
f 14 15 16
f 11 16 15
f 11 15 13
f 13 15 14
f 14 12 13
f 12 14 16
f 16 11 12
usemtl APPID_710913120_1946549237072 
o vid_6 
f 17 19 20
f 17 20 18
f 17 19 20
f 17 20 18
usemtl APPID_710914352_1946549235408 
o vid_7 
f 23 22 21
f 24 25 26
f 21 26 25
f 21 25 23
f 23 25 24
f 24 22 23
f 22 24 26
f 26 21 22
usemtl APPID_710913120_1946549237072 
o vid_8 
f 27 32 33
f 28 33 34
f 29 34 35
f 27 33 28
f 28 34 29
f 29 35 30
f 30 35 36
f 30 36 31
usemtl APPID_710914352_1946549235408 
o vid_9 
f 39 38 37
f 40 41 42
f 37 42 41
f 37 41 39
f 39 41 40
f 40 38 39
f 38 40 42
f 42 37 38
usemtl APPID_710913120_1946549237072 
o vid_10 
f 43 47 48
f 44 48 49
f 43 48 44
f 44 49 45
f 45 49 50
f 45 50 46
usemtl APPID_710914352_1946549235408 
o vid_11 
f 53 52 51
f 54 55 56
f 51 56 55
f 51 55 53
f 53 55 54
f 54 52 53
f 52 54 56
f 56 51 52
usemtl APPID_710913120_1946549237072 
o vid_12 
f 57 65 66
f 58 66 67
f 59 67 68
f 60 68 69
f 61 69 70
f 62 70 71
f 57 66 58
f 58 67 59
f 59 68 60
f 60 69 61
f 61 70 62
f 62 71 63
f 63 71 72
f 63 72 64
usemtl APPID_710914352_1946549235408 
o vid_13 
f 75 74 73
f 76 77 78
f 73 78 77
f 73 77 75
f 75 77 76
f 76 74 75
f 74 76 78
f 78 73 74
usemtl APPID_710913120_1946549237072 
o vid_14 
f 79 88 89
f 80 89 90
f 81 90 91
f 82 91 92
f 83 92 93
f 84 93 94
f 85 94 95
f 79 89 80
f 80 90 81
f 81 91 82
f 82 92 83
f 83 93 84
f 84 94 85
f 85 95 86
f 86 95 96
f 86 96 87
usemtl APPID_710914352_1946549235408 
o vid_15 
f 99 98 97
f 100 101 102
f 97 102 101
f 97 101 99
f 99 101 100
f 100 98 99
f 98 100 102
f 102 97 98
usemtl APPID_710913120_1946549237072 
o vid_16 
f 103 113 114
f 104 114 115
f 105 115 116
f 106 116 117
f 107 117 118
f 108 118 119
f 109 119 120
f 110 120 121
f 103 114 104
f 104 115 105
f 105 116 106
f 106 117 107
f 107 118 108
f 108 119 109
f 109 120 110
f 110 121 111
f 111 121 122
f 111 122 112
usemtl APPID_710914352_1946549235408 
o vid_17 
f 125 124 123
f 126 127 128
f 123 128 127
f 123 127 125
f 125 127 126
f 126 124 125
f 124 126 128
f 128 123 124
usemtl APPID_710913120_1946549237072 
o vid_18 
f 129 140 141
f 130 141 142
f 131 142 143
f 132 143 144
f 133 144 145
f 134 145 146
f 135 146 147
f 136 147 148
f 137 148 149
f 129 141 130
f 130 142 131
f 131 143 132
f 132 144 133
f 133 145 134
f 134 146 135
f 135 147 136
f 136 148 137
f 137 149 138
f 138 149 150
f 138 150 139
usemtl APPID_710914352_1946549235408 
o vid_19 
f 153 152 151
f 154 155 156
f 151 156 155
f 151 155 153
f 153 155 154
f 154 152 153
f 152 154 156
f 156 151 152
usemtl APPID_710913120_1946549237072 
o vid_20 
f 157 165 166
f 158 166 167
f 159 167 168
f 160 168 169
f 161 169 170
f 162 170 171
f 157 166 158
f 158 167 159
f 159 168 160
f 160 169 161
f 161 170 162
f 162 171 163
f 163 171 172
f 163 172 164
usemtl APPID_710914352_1946549235408 
o vid_21 
f 175 174 173
f 176 177 178
f 173 178 177
f 173 177 175
f 175 177 176
f 176 174 175
f 174 176 178
f 178 173 174
usemtl APPID_710913120_1946549237072 
o vid_22 
f 179 186 187
f 180 187 188
f 181 188 189
f 182 189 190
f 183 190 191
f 179 187 180
f 180 188 181
f 181 189 182
f 182 190 183
f 183 191 184
f 184 191 192
f 184 192 185
usemtl APPID_710914352_1946549235408 
o vid_23 
f 195 194 193
f 196 197 198
f 193 198 197
f 193 197 195
f 195 197 196
f 196 194 195
f 194 196 198
f 198 193 194
usemtl APPID_710913120_1946549237072 
o vid_24 
f 199 207 208
f 200 208 209
f 201 209 210
f 202 210 211
f 203 211 212
f 204 212 213
f 199 208 200
f 200 209 201
f 201 210 202
f 202 211 203
f 203 212 204
f 204 213 205
f 205 213 214
f 205 214 206
usemtl APPID_710914352_1946549235408 
o vid_25 
f 217 216 215
f 218 219 220
f 215 220 219
f 215 219 217
f 217 219 218
f 218 216 217
f 216 218 220
f 220 215 216
usemtl APPID_710913120_1946549237072 
o vid_26 
f 221 228 229
f 222 229 230
f 223 230 231
f 224 231 232
f 225 232 233
f 221 229 222
f 222 230 223
f 223 231 224
f 224 232 225
f 225 233 226
f 226 233 234
f 226 234 227
usemtl APPID_710914352_1946549235408 
o vid_27 
f 237 236 235
f 238 239 240
f 235 240 239
f 235 239 237
f 237 239 238
f 238 236 237
f 236 238 240
f 240 235 236
usemtl APPID_710913120_1946549237072 
o vid_28 
f 241 248 249
f 242 249 250
f 243 250 251
f 244 251 252
f 245 252 253
f 241 249 242
f 242 250 243
f 243 251 244
f 244 252 245
f 245 253 246
f 246 253 254
f 246 254 247
usemtl APPID_710914352_1946549235408 
o vid_29 
f 257 256 255
f 258 259 260
f 255 260 259
f 255 259 257
f 257 259 258
f 258 256 257
f 256 258 260
f 260 255 256
usemtl APPID_710913120_1946549237072 
o vid_30 
f 261 268 269
f 262 269 270
f 263 270 271
f 264 271 272
f 265 272 273
f 261 269 262
f 262 270 263
f 263 271 264
f 264 272 265
f 265 273 266
f 266 273 274
f 266 274 267
usemtl APPID_710914352_1946549235408 
o vid_31 
f 277 276 275
f 278 279 280
f 275 280 279
f 275 279 277
f 277 279 278
f 278 276 277
f 276 278 280
f 280 275 276
usemtl APPID_710913120_1946549237072 
o vid_32 
f 281 288 289
f 282 289 290
f 283 290 291
f 284 291 292
f 285 292 293
f 281 289 282
f 282 290 283
f 283 291 284
f 284 292 285
f 285 293 286
f 286 293 294
f 286 294 287
usemtl APPID_710914352_1946549235408 
o vid_33 
f 297 296 295
f 298 299 300
f 295 300 299
f 295 299 297
f 297 299 298
f 298 296 297
f 296 298 300
f 300 295 296
usemtl APPID_710913120_1946549237072 
o vid_34 
f 301 308 309
f 302 309 310
f 303 310 311
f 304 311 312
f 305 312 313
f 301 309 302
f 302 310 303
f 303 311 304
f 304 312 305
f 305 313 306
f 306 313 314
f 306 314 307
usemtl APPID_710914352_1946549235408 
o vid_35 
f 317 316 315
f 318 319 320
f 315 320 319
f 315 319 317
f 317 319 318
f 318 316 317
f 316 318 320
f 320 315 316
usemtl APPID_710913120_1946549237072 
o vid_36 
f 321 328 329
f 322 329 330
f 323 330 331
f 324 331 332
f 325 332 333
f 321 329 322
f 322 330 323
f 323 331 324
f 324 332 325
f 325 333 326
f 326 333 334
f 326 334 327
usemtl APPID_710914352_1946549235408 
o vid_37 
f 337 336 335
f 338 339 340
f 335 340 339
f 335 339 337
f 337 339 338
f 338 336 337
f 336 338 340
f 340 335 336
usemtl APPID_710913120_1946549237072 
o vid_38 
f 341 346 347
f 342 347 348
f 343 348 349
f 341 347 342
f 342 348 343
f 343 349 344
f 344 349 350
usemtl APPID_710919616_1946549230160 
o vid_10000004 
f 351 358 359
f 352 359 360
f 353 360 361
f 354 361 362
f 355 362 363
f 351 359 352
f 352 360 353
f 353 361 354
f 354 362 355
f 355 363 356
f 356 363 364
usemtl APPID_710919616_1946549230160 
o vid_10000006 
f 365 371 372
f 366 372 373
f 367 373 374
f 368 374 375
f 365 372 366
f 366 373 367
f 367 374 368
f 368 375 369
f 369 375 376
usemtl APPID_710919616_1946549230160 
o vid_10000008 
f 377 382 383
f 378 383 384
f 379 384 385
f 377 383 378
f 378 384 379
f 379 385 380
f 380 385 386
usemtl APPID_710919616_1946549230160 
o vid_10000010 
f 387 391 392
f 388 392 393
f 387 392 388
f 388 393 389
f 389 393 394
usemtl APPID_710919616_1946549230160 
o vid_10000012 
f 395 399 400
f 396 400 401
f 395 400 396
f 396 401 397
f 397 401 402
usemtl APPID_710919616_1946549230160 
o vid_10000014 
f 403 406 407
f 403 407 404
f 404 407 408
usemtl APPID_710919616_1946549230160 
o vid_10000016 
f 409 412 413
f 409 413 410
f 410 413 414
usemtl APPID_710919616_1946549230160 
o vid_10000018 
f 415 417 418
f 415 418 416
f 415 417 418
usemtl APPID_710919616_1946549230160 
o vid_10000020 
f 419 421 422
f 419 422 420
f 419 421 422
usemtl APPID_710919616_1946549230160 
o vid_10000022 
f 423 425 426
f 423 426 424
f 423 425 426
usemtl APPID_710919616_1946549230160 
o vid_10000024 
f 427 429 430
f 427 430 428
f 427 429 430
usemtl APPID_710919616_1946549230160 
o vid_10000026 
f 431 433 434
f 431 434 432
f 431 433 434
usemtl APPID_710919616_1946549230160 
o vid_10000028 
f 435 437 438
f 435 438 436
f 435 437 438
usemtl APPID_710919616_1946549230160 
o vid_10000030 
f 439 441 442
f 439 442 440
f 439 441 442
usemtl APPID_710919616_1946549230160 
o vid_10000032 
f 443 445 446
f 443 446 444
f 443 445 446
usemtl APPID_710919616_1946549230160 
o vid_10000034 
f 447 449 450
f 447 450 448
f 447 449 450
usemtl APPID_710919616_1946549230160 
o vid_10000036 
f 451 453 454
f 451 454 452
f 451 453 454
