# File generated by PlantGL - Fri Sep  4 14:43:22 2026
v    58.238146 19.141743 0.000000
v    61.624199 18.903318 0.000000
v    60.137655 21.954939 0.000000
v    61.761854 20.858257 0.331061
v    58.375801 21.096682 0.331061
v    59.862345 18.045061 0.331061
v    61.372583 21.417361 -0.032309
v    62.416834 21.814023 1.026127
v    62.814828 21.971117 1.294829
v    63.642513 22.277885 1.848137
v    64.320032 22.538628 2.031317
v    65.353470 22.905647 2.307322
v    65.658363 22.974644 2.384394
v    66.502015 23.167345 2.205511
v    61.962143 20.207094 -0.032309
v    62.918184 20.784839 1.026127
v    63.287214 21.001388 1.294829
v    64.038974 21.464019 1.848137
v    64.661926 21.836778 2.031317
v    65.587959 22.424281 2.307322
v    65.830232 22.621827 2.384394
v    66.502015 23.167345 2.205511
v    61.238382 20.992010 0.331061
v    58.521704 20.576465 0.331061
v    60.239915 18.431525 0.331061
v    58.761618 19.007990 0.718770
v    61.478296 19.423535 0.718770
v    59.760085 21.568475 0.718770
v    59.511191 18.306890 0.211629
v    58.211502 17.445869 1.688844
v    56.901177 16.553223 2.684518
v    54.914452 15.228171 3.377654
v    54.219497 14.789238 3.584521
v    53.615373 14.406826 3.433709
v    52.129196 13.695067 3.093088
v    58.241023 19.892513 0.211629
v    57.117090 18.812085 1.688844
v    55.959974 17.728179 2.684518
v    54.233247 16.078557 3.377654
v    53.653216 15.496159 3.584521
v    53.148168 14.990065 3.433709
v    52.129196 13.695067 3.093088
v    58.847314 19.552140 0.718770
v    60.964201 19.225675 0.718770
v    60.188485 21.222185 0.718770
v    61.152686 20.447860 1.487000
v    59.035799 20.774325 1.487000
v    59.811515 18.777815 1.487000
v    60.456459 21.688266 0.796469
v    62.496390 22.275552 2.807869
v    64.875513 22.993879 4.368555
v    68.041611 23.920276 5.201797
v    68.760932 24.110502 5.389055
v    70.067707 24.457481 5.103864
v    72.288878 24.774670 4.640069
v    61.476554 19.062779 0.796469
v    63.377877 20.006811 2.807869
v    65.617886 21.083183 4.368555
v    68.578911 22.537392 5.201797
v    69.237970 22.882717 5.389055
v    70.436216 23.509028 5.103864
v    72.288878 24.774670 4.640069
v    60.885100 20.209376 1.487000
v    59.376125 20.661832 1.487000
v    59.738774 19.128793 1.487000
v    59.114900 19.790624 2.857581
v    60.623875 19.338168 2.857581
v    60.261226 20.871207 2.857581
v    59.811117 18.000092 1.940277
v    57.019605 17.600880 4.612230
v    53.754824 17.090991 6.687342
v    48.955625 16.374785 7.911911
v    46.187289 16.038027 7.561123
v    43.206760 16.027462 6.945015
v    58.935097 21.703318 1.940277
v    56.260585 20.809510 4.612230
v    53.113375 19.802605 6.687342
v    48.501938 18.292671 7.911911
v    45.876126 17.353412 7.561123
v    43.206760 16.027462 6.945015
v    59.601157 19.544552 2.857581
v    60.593851 19.882316 2.857581
v    59.804992 20.573133 2.857581
v    60.398843 20.455448 3.663000
v    59.406149 20.117684 3.663000
v    60.195008 19.426867 3.663000
v    58.757294 21.466778 1.236825
v    59.530409 22.142118 3.055905
v    60.660401 23.059914 5.621489
v    62.084574 24.318907 7.822359
v    63.181499 25.215867 9.453631
v    64.167244 26.088185 10.251263
v    66.988415 27.980231 12.256239
v    61.617918 18.961685 1.236825
v    62.185349 19.817145 3.055905
v    62.946030 21.058352 5.621489
v    64.006112 22.636186 7.822359
v    64.750501 23.841866 9.453631
v    65.485135 24.934087 10.251263
v    66.988415 27.980231 12.256239
mtllib usm_41_2.5D_2018-08-01_1.mtl
usemtl APPID_2128170768_2746616076016 
o vid_3 
f 3 2 1
f 4 5 6
f 1 6 5
f 1 5 3
f 3 5 4
f 4 2 3
f 2 4 6
f 6 1 2
usemtl APPID_2128172672_2746616079472 
o vid_4 
f 7 15 16
f 8 16 17
f 9 17 18
f 10 18 19
f 11 19 20
f 12 20 21
f 7 16 8
f 8 17 9
f 9 18 10
f 10 19 11
f 11 20 12
f 12 21 13
f 13 21 22
usemtl APPID_2128170768_2746616076016 
o vid_5 
f 25 24 23
f 26 27 28
f 23 28 27
f 23 27 25
f 25 27 26
f 26 24 25
f 24 26 28
f 28 23 24
usemtl APPID_2128172672_2746616079472 
o vid_6 
f 29 36 37
f 30 37 38
f 31 38 39
f 32 39 40
f 33 40 41
f 29 37 30
f 30 38 31
f 31 39 32
f 32 40 33
f 33 41 34
f 34 41 42
usemtl APPID_2128170768_2746616076016 
o vid_7 
f 45 44 43
f 46 47 48
f 43 48 47
f 43 47 45
f 45 47 46
f 46 44 45
f 44 46 48
f 48 43 44
usemtl APPID_2128172672_2746616079472 
o vid_8 
f 49 56 57
f 50 57 58
f 51 58 59
f 52 59 60
f 53 60 61
f 49 57 50
f 50 58 51
f 51 59 52
f 52 60 53
f 53 61 54
f 54 61 62
usemtl APPID_2128170768_2746616076016 
o vid_9 
f 65 64 63
f 66 67 68
f 63 68 67
f 63 67 65
f 65 67 66
f 66 64 65
f 64 66 68
f 68 63 64
usemtl APPID_2128172672_2746616079472 
o vid_10 
f 69 75 76
f 70 76 77
f 71 77 78
f 72 78 79
f 69 76 70
f 70 77 71
f 71 78 72
f 72 79 73
f 73 79 80
usemtl APPID_2128170768_2746616076016 
o vid_11 
f 83 82 81
f 84 85 86
f 81 86 85
f 81 85 83
f 83 85 84
f 84 82 83
f 82 84 86
f 86 81 82
usemtl APPID_2128172672_2746616079472 
o vid_12 
f 87 94 95
f 88 95 96
f 89 96 97
f 90 97 98
f 91 98 99
f 87 95 88
f 88 96 89
f 89 97 90
f 90 98 91
f 91 99 92
f 92 99 100
