# File generated by PlantGL - Fri Sep  4 14:44:30 2026
v    218.201987 19.124129 0.000000
v    221.657533 18.880811 0.000000
v    220.140480 21.995060 0.000000
v    221.798013 20.875871 0.331061
v    218.342467 21.119189 0.331061
v    219.859520 18.004940 0.331061
v    220.738657 21.084245 -2.645962
v    221.070116 21.133910 -2.341767
v    221.309076 19.913273 -2.645962
v    221.552503 20.143653 -2.341767
v    221.503548 21.204422 0.331061
v    218.205166 20.699900 0.331061
v    220.291286 18.095678 0.331061
v    218.496452 18.795578 0.771522
v    221.794834 19.300100 0.771522
v    219.708714 21.904322 0.771522
v    220.071009 18.207319 -2.205501
v    217.705226 17.287501 0.098302
v    218.266037 20.460567 -2.205501
v    216.852041 18.352580 0.098302
v    218.272844 19.328938 0.771522
v    221.444735 18.839770 0.771522
v    220.282421 21.831292 0.771522
v    221.727156 20.671062 1.487405
v    218.555265 21.160230 1.487405
v    219.717579 18.168708 1.487405
v    220.130761 22.402094 -1.489618
v    224.918583 22.718629 2.865367
v    221.718236 18.316307 -1.489618
v    225.463824 21.315308 2.865367
v    221.731622 20.409625 1.487405
v    218.779443 21.294816 1.487405
v    219.488935 18.295559 1.487405
v    218.268378 19.590375 2.987040
v    221.220557 18.705184 2.987040
v    220.511065 21.704441 2.987040
v    219.793965 16.881891 0.010017
v    214.482173 16.440805 5.024542
v    210.463407 16.731798 8.681583
v    209.607039 16.758044 9.202696
v    218.418765 22.695319 0.010017
v    213.472327 20.709762 5.024542
v    210.009872 18.649043 8.681583
v    209.256026 18.241892 9.202696
v    218.876148 18.716648 2.987040
v    221.673341 19.668392 2.987040
v    219.450510 21.614960 2.987040
v    221.123852 21.283352 4.897980
v    218.326659 20.331608 4.897980
v    220.549490 18.385040 4.897980
v    217.808084 23.042396 1.920956
v    220.753310 25.714506 5.679561
v    224.740252 29.087164 10.592522
v    226.072193 30.263295 11.702559
v    230.696482 33.350389 15.084349
v    223.304999 18.228660 1.920956
v    225.565156 21.500696 5.679561
v    228.382293 25.897771 10.592522
v    229.372406 27.373246 11.702559
v    231.822383 32.364420 15.084349
v    221.375838 20.878433 4.897980
v    218.551335 20.752294 4.897980
v    220.072827 18.369272 4.897980
v    218.624162 19.121567 12.075822
v    221.448665 19.247706 12.075822
v    219.927173 21.630728 12.075822
v    221.839322 15.686020 9.098798
v    219.798571 14.628906 11.276493
v    213.622258 11.618828 17.770364
v    209.682242 9.618105 20.540265
v    203.940332 6.914776 24.504938
v    202.388949 6.153519 24.939855
v    196.075104 3.937972 26.589590
v    216.860591 23.483911 9.098798
v    215.042860 22.077495 11.276493
v    209.713208 17.741342 17.770364
v    206.240250 15.009093 20.540265
v    201.371666 10.937925 24.504938
v    200.028253 9.850937 24.939855
v    195.361482 5.055675 26.589590
v    218.735263 19.088754 12.075822
v    221.421531 19.360328 12.075822
v    219.843206 21.550918 12.075822
v    221.264737 20.911246 22.185723
v    218.578469 20.639672 22.185723
v    220.156794 18.449082 22.185723
v    217.346306 24.876654 19.208699
v    225.223631 29.535300 27.880265
v    228.142643 31.312914 30.026542
v    234.473028 34.987978 34.614840
v    239.492743 37.986249 36.090197
v    247.324108 42.390493 38.351454
v    249.784526 43.412244 39.008297
v    253.898279 45.130275 38.086765
v    223.785856 15.939071 19.208699
v    230.698492 21.936628 27.880265
v    233.308704 24.142832 30.026542
v    238.798657 28.984349 34.614840
v    243.231729 32.796833 36.090197
v    249.888498 38.831323 38.351454
v    251.636548 40.841784 39.008297
v    254.568434 44.200153 38.086765
v    221.244614 20.810576 22.185723
v    218.675713 20.672580 22.185723
v    220.079672 18.516844 22.185723
v    218.755386 19.189424 42.482171
v    221.324287 19.327420 42.482171
v    219.920328 21.483156 42.482171
v    222.749317 14.634764 39.505148
v    214.661435 10.352078 48.176713
v    206.116377 5.684931 54.291187
v    193.695742 -0.947564 58.214609
v    189.824537 -2.890751 59.304745
v    185.630501 -5.001248 58.314400
v    178.573025 -7.565629 56.762231
v    216.204609 24.683962 39.505148
v    209.017322 19.018439 48.176713
v    201.293547 13.090238 54.291187
v    190.205172 4.412098 58.214609
v    186.862610 1.657198 59.304745
v    183.236488 -1.325314 58.314400
v    178.037414 -6.743216 56.762231
v    218.765415 19.315252 42.482171
v    221.210302 19.273192 42.482171
v    220.024283 21.411556 42.482171
v    221.234585 20.684748 70.333185
v    218.789698 20.726808 70.333185
v    219.975717 18.588444 70.333185
v    217.945202 24.840045 67.356161
v    226.168540 28.474110 75.874934
v    236.179756 32.799033 82.762301
v    246.038823 36.950303 85.455803
v    252.673505 38.826915 87.155758
v    253.173905 38.969538 87.048201
v    223.017884 15.694120 67.356161
v    230.454906 20.745894 75.874934
v    239.424661 26.948548 82.762301
v    248.166540 33.114080 85.455803
v    253.271508 37.748730 87.155758
v    253.657455 38.097709 87.048201
v    221.293262 20.344016 70.333185
v    219.055443 20.947990 70.333185
v    219.651295 18.707994 70.333185
v    218.706738 19.655984 109.502323
v    220.944557 19.052010 109.502323
v    220.348705 21.292006 109.502323
v    220.972485 14.488104 106.525300
v    211.952162 12.942460 115.196866
v    207.716557 12.160208 117.901776
v    201.371712 11.125717 121.931440
v    194.608648 9.936484 123.664134
v    185.721927 8.612159 125.925391
v    177.959801 8.372812 125.054577
v    218.105341 25.266591 106.525300
v    209.509241 22.126159 115.196866
v    205.444776 20.700541 117.901776
v    199.424514 18.445838 121.931440
v    192.964425 16.117631 123.664134
v    184.594234 12.851510 125.925391
v    177.739080 9.202571 125.054577
v    218.831935 19.515124 109.502323
v    221.003948 19.230864 109.502323
v    220.164118 21.254012 109.502323
v    221.168065 20.484876 151.379573
v    218.996052 20.769136 151.379573
v    219.835882 18.745988 151.379573
v    217.810978 26.326041 148.402550
v    224.734362 28.493688 155.276805
v    236.737332 32.393742 163.808690
v    245.313642 35.292198 166.096208
v    253.268083 37.818679 168.202147
v    258.918911 39.618285 166.948037
v    267.625343 42.144633 165.035832
v    272.607681 42.972843 163.991802
v    275.439213 43.357074 162.359892
v    222.934526 13.983426 148.402550
v    229.357701 17.356073 155.276805
v    240.594055 23.102904 163.808690
v    248.701786 27.130167 166.096208
v    256.107034 30.979652 168.202147
v    261.371113 33.710937 166.948037
v    269.307190 38.093068 165.035832
v    273.411367 41.036764 163.991802
v    275.682605 42.770745 162.359892
v    220.919824 20.756852 151.379573
v    218.884635 20.418165 151.379573
v    220.195542 18.824983 151.379573
v    219.080176 19.243148 189.501803
v    221.115365 19.581835 189.501803
v    219.804458 21.175017 189.501803
v    224.192887 14.384797 186.524780
v    220.676452 11.753198 190.699011
v    217.821155 9.806223 193.973666
v    213.125406 6.535130 197.979961
v    207.972790 2.925084 201.930920
v    194.421979 -6.768380 206.140892
v    182.609197 -14.907512 203.444566
v    177.324070 -18.350958 202.114032
v    171.316402 -21.459148 198.206867
v    168.698994 -22.537455 195.763412
v    215.297366 25.195771 186.524780
v    212.037835 22.251949 190.699011
v    209.577436 19.825044 193.973666
v    205.463271 15.847135 197.979961
v    200.928515 11.486187 201.930920
v    188.806901 0.055781 206.140892
v    178.545231 -9.968461 203.444566
v    174.148438 -14.491523 202.114032
v    169.941479 -19.788166 198.206867
v    168.379299 -22.148921 195.763412
v    219.227775 19.192038 189.501803
v    221.085829 19.735214 189.501803
v    219.686397 21.072748 189.501803
v    220.772225 20.807962 215.628123
v    218.914171 20.264786 215.628123
v    220.313603 18.927252 215.628123
v    215.183257 24.958554 212.651100
v    216.914988 26.610966 214.925968
v    221.999305 31.052017 221.322665
v    229.985565 38.209014 228.057240
v    240.307745 47.642705 231.590691
v    242.865416 49.895418 232.450697
v    251.049121 57.114568 230.142978
v    257.965745 62.904509 228.240352
v    261.289676 64.945980 226.011815
v    263.796382 66.480851 224.333187
v    264.561549 66.909149 223.576299
v    225.171240 15.412349 212.651100
v    226.743675 17.217012 214.925968
v    230.950332 22.496902 221.322665
v    237.738967 30.798552 228.057240
v    246.696366 41.536660 231.590691
v    248.831148 44.193556 232.450697
v    255.672946 52.695259 230.142978
v    261.144280 59.866564 228.240352
v    263.033394 63.279388 226.011815
v    264.453372 65.852920 224.333187
v    264.846640 66.636667 223.576299
v    220.731259 20.745280 215.628123
v    218.988939 20.260648 215.628123
v    220.279802 18.994071 215.628123
v    219.268741 19.254720 231.543571
v    221.011061 19.739352 231.543571
v    219.720198 21.005929 231.543571
v    224.829975 15.004512 228.566548
v    222.470694 12.811682 231.627745
v    217.960675 8.975379 237.238114
v    215.654022 6.961483 239.161117
v    209.881378 1.923601 243.972688
v    198.608439 -8.110860 247.786216
v    187.736715 -17.448209 245.821583
v    181.615126 -22.437546 244.155800
v    175.834711 -26.031917 240.248635
v    174.060084 -26.994906 238.505854
v    214.913688 24.734236 228.566548
v    212.766058 22.333737 231.627745
v    209.016095 17.751677 237.238114
v    207.046368 15.407194 239.161117
v    202.119021 9.539918 243.972688
v    192.300451 -1.921550 247.786216
v    183.171248 -12.968637 245.821583
v    178.299065 -19.183873 244.155800
v    174.815117 -25.031505 240.248635
v    173.886003 -26.824100 238.505854
v    219.370026 19.301991 231.543571
v    220.919481 19.803432 231.543571
v    219.710493 20.894578 231.543571
v    220.629974 20.698009 240.919247
v    219.080519 20.196568 240.919247
v    220.289507 19.105422 240.919247
v    214.865261 24.740861 237.942224
v    217.772673 27.678328 241.870207
v    220.118700 29.848784 244.898614
v    224.442080 33.921121 249.207003
v    229.225598 38.460590 253.348364
v    240.948488 49.805882 257.470627
v    251.429017 59.596478 254.936181
v    256.411324 64.015337 253.531476
v    261.926126 67.947489 249.624311
v    264.684652 69.596794 246.850131
v    225.240791 15.376645 237.942224
v    227.865751 18.569033 241.870207
v    229.785088 21.124590 244.898614
v    233.394268 25.841513 249.207003
v    237.421110 31.063903 253.348364
v    247.508963 43.884865 257.470627
v    256.177223 55.311085 254.936181
v    260.063771 60.718897 253.531476
v    263.411742 66.606678 249.624311
v    264.770500 69.519314 246.850131
v    220.715430 20.139275 240.919247
v    219.521670 20.549943 240.919247
v    219.762901 19.310782 240.919247
v    219.284570 19.860725 245.095177
v    220.478330 19.450057 245.095177
v    220.237099 20.689218 245.095177
v    221.407011 13.464551 242.118154
v    214.168113 12.721952 249.013351
v    201.649859 11.301511 257.524294
v    192.638025 10.171752 259.819272
v    184.368539 9.288999 261.917751
v    178.442404 8.651775 260.657333
v    169.406726 7.916294 258.745128
v    164.389876 8.099355 257.707406
v    160.273119 8.372791 255.351144
v    218.852621 26.585993 242.118154
v    211.863791 24.558837 249.013351
v    199.726865 21.179582 257.524294
v    190.949338 18.846232 259.819272
v    182.952606 16.562392 261.917751
v    177.220200 14.930013 260.657333
v    168.568476 12.222235 258.745128
v    163.986666 10.170574 257.707406
v    160.273119 8.372791 255.351144
v    219.583112 19.656080 245.095177
v    220.506287 19.810924 245.095177
v    219.910601 20.532996 245.095177
v    220.416888 20.343920 247.715790
v    219.493713 20.189076 247.715790
v    220.089399 19.467004 247.715790
v    215.953502 24.401125 244.738767
v    223.509389 29.564827 253.410332
v    231.198842 34.966903 259.311793
v    242.758252 42.920682 263.350103
v    246.713412 45.499162 264.538364
v    250.314634 47.852044 263.630998
v    258.977749 52.155399 261.631478
v    223.551774 15.190743 244.738767
v    230.057496 21.627420 253.410332
v    236.822634 28.149921 259.311793
v    246.828525 37.986826 263.350103
v    250.111761 41.379792 264.538364
v    253.106238 44.468151 263.630998
v    258.977749 52.155399 261.631478
v    220.299866 20.225179 247.715790
v    219.655057 20.147102 247.715790
v    220.045077 19.627719 247.715790
v    219.700134 19.774821 249.107000
v    220.344943 19.852898 249.107000
v    219.954923 20.372281 249.107000
v    222.405002 17.606851 246.129977
v    221.200601 16.902221 247.448814
v    215.261416 13.698694 253.797390
v    214.218213 13.330228 254.801542
v    207.569651 10.665672 259.158065
v    218.372433 22.976948 246.129977
v    217.359897 22.016813 247.448814
v    212.627263 17.206546 253.797390
v    211.982509 16.307473 254.801542
v    207.569651 10.665672 259.158065
v    221.070116 21.133910 -2.341767
v    222.886403 21.406062 -0.674875
v    221.552503 20.143653 -2.341767
v    222.886403 21.406062 -0.674875
v    217.705226 17.287501 0.098302
v    215.584528 16.462971 2.163443
v    216.852041 18.352580 0.098302
v    215.584528 16.462971 2.163443
v    224.918583 22.718629 2.865367
v    227.423312 22.884223 5.143659
v    225.463824 21.315308 2.865367
v    227.423312 22.884223 5.143659
v    209.607039 16.758044 9.202696
v    206.675048 16.847906 10.986857
v    209.256026 18.241892 9.202696
v    206.675048 16.847906 10.986857
v    230.696482 33.350389 15.084349
v    233.091028 34.948945 16.835505
v    231.822383 32.364420 15.084349
v    233.091028 34.948945 16.835505
v    196.075104 3.937972 26.589590
v    193.339529 2.978050 27.304364
v    195.361482 5.055675 26.589590
v    193.339529 2.978050 27.304364
v    253.898279 45.130275 38.086765
v    256.230904 46.104451 37.564229
v    254.568434 44.200153 38.086765
v    256.230904 46.104451 37.564229
v    178.573025 -7.565629 56.762231
v    176.538990 -8.304709 56.314881
v    178.037414 -6.743216 56.762231
v    176.538990 -8.304709 56.314881
v    253.173905 38.969538 87.048201
v    255.288038 39.572105 86.593786
v    253.657455 38.097709 87.048201
v    255.288038 39.572105 86.593786
v    177.959801 8.372812 125.054577
v    176.067436 8.313667 124.663216
v    177.739080 9.202571 125.054577
v    176.067436 8.313667 124.663216
v    275.439213 43.357074 162.359892
v    276.669226 43.523984 161.650993
v    275.682605 42.770745 162.359892
v    276.669226 43.523984 161.650993
v    168.698994 -22.537455 195.763412
v    167.906017 -22.864142 195.023136
v    168.379299 -22.148921 195.763412
v    167.906017 -22.864142 195.023136
v    264.561549 66.909149 223.576299
v    265.148113 67.237475 222.996081
v    264.846640 66.636667 223.576299
v    265.148113 67.237475 222.996081
v    174.060084 -26.994906 238.505854
v    173.694708 -27.193175 238.147034
v    173.886003 -26.824100 238.505854
v    173.694708 -27.193175 238.147034
v    264.684652 69.596794 246.850131
v    264.853833 69.697946 246.679991
v    264.770500 69.519314 246.850131
v    264.853833 69.697946 246.679991
mtllib usm_31_2.5D_2018-10-09_5.mtl
usemtl APPID_2440416768_1733526524784 
o vid_3 
f 3 2 1
f 4 5 6
f 1 6 5
f 1 5 3
f 3 5 4
f 4 2 3
f 2 4 6
f 6 1 2
usemtl APPID_2440416880_1733526531952 
o vid_4 
f 7 9 10
f 7 10 8
f 7 9 10
f 7 10 8
usemtl APPID_2440416768_1733526524784 
o vid_5 
f 13 12 11
f 14 15 16
f 11 16 15
f 11 15 13
f 13 15 14
f 14 12 13
f 12 14 16
f 16 11 12
usemtl APPID_2440416880_1733526531952 
o vid_6 
f 17 19 20
f 17 20 18
f 17 19 20
f 17 20 18
usemtl APPID_2440416768_1733526524784 
o vid_7 
f 23 22 21
f 24 25 26
f 21 26 25
f 21 25 23
f 23 25 24
f 24 22 23
f 22 24 26
f 26 21 22
usemtl APPID_2440416880_1733526531952 
o vid_8 
f 27 29 30
f 27 30 28
f 27 29 30
f 27 30 28
usemtl APPID_2440416768_1733526524784 
o vid_9 
f 33 32 31
f 34 35 36
f 31 36 35
f 31 35 33
f 33 35 34
f 34 32 33
f 32 34 36
f 36 31 32
usemtl APPID_2440416880_1733526531952 
o vid_10 
f 37 41 42
f 38 42 43
f 37 42 38
f 38 43 39
f 39 43 44
f 39 44 40
usemtl APPID_2440416768_1733526524784 
o vid_11 
f 47 46 45
f 48 49 50
f 45 50 49
f 45 49 47
f 47 49 48
f 48 46 47
f 46 48 50
f 50 45 46
usemtl APPID_2440416880_1733526531952 
o vid_12 
f 51 56 57
f 52 57 58
f 53 58 59
f 51 57 52
f 52 58 53
f 53 59 54
f 54 59 60
f 54 60 55
usemtl APPID_2440416768_1733526524784 
o vid_13 
f 63 62 61
f 64 65 66
f 61 66 65
f 61 65 63
f 63 65 64
f 64 62 63
f 62 64 66
f 66 61 62
usemtl APPID_2440416880_1733526531952 
o vid_14 
f 67 74 75
f 68 75 76
f 69 76 77
f 70 77 78
f 71 78 79
f 67 75 68
f 68 76 69
f 69 77 70
f 70 78 71
f 71 79 72
f 72 79 80
f 72 80 73
usemtl APPID_2440416768_1733526524784 
o vid_15 
f 83 82 81
f 84 85 86
f 81 86 85
f 81 85 83
f 83 85 84
f 84 82 83
f 82 84 86
f 86 81 82
usemtl APPID_2440416880_1733526531952 
o vid_16 
f 87 95 96
f 88 96 97
f 89 97 98
f 90 98 99
f 91 99 100
f 92 100 101
f 87 96 88
f 88 97 89
f 89 98 90
f 90 99 91
f 91 100 92
f 92 101 93
f 93 101 102
f 93 102 94
usemtl APPID_2440416768_1733526524784 
o vid_17 
f 105 104 103
f 106 107 108
f 103 108 107
f 103 107 105
f 105 107 106
f 106 104 105
f 104 106 108
f 108 103 104
usemtl APPID_2440416880_1733526531952 
o vid_18 
f 109 116 117
f 110 117 118
f 111 118 119
f 112 119 120
f 113 120 121
f 109 117 110
f 110 118 111
f 111 119 112
f 112 120 113
f 113 121 114
f 114 121 122
f 114 122 115
usemtl APPID_2440416768_1733526524784 
o vid_19 
f 125 124 123
f 126 127 128
f 123 128 127
f 123 127 125
f 125 127 126
f 126 124 125
f 124 126 128
f 128 123 124
usemtl APPID_2440416880_1733526531952 
o vid_20 
f 129 135 136
f 130 136 137
f 131 137 138
f 132 138 139
f 129 136 130
f 130 137 131
f 131 138 132
f 132 139 133
f 133 139 140
f 133 140 134
usemtl APPID_2440416768_1733526524784 
o vid_21 
f 143 142 141
f 144 145 146
f 141 146 145
f 141 145 143
f 143 145 144
f 144 142 143
f 142 144 146
f 146 141 142
usemtl APPID_2440416880_1733526531952 
o vid_22 
f 147 154 155
f 148 155 156
f 149 156 157
f 150 157 158
f 151 158 159
f 147 155 148
f 148 156 149
f 149 157 150
f 150 158 151
f 151 159 152
f 152 159 160
f 152 160 153
usemtl APPID_2440416768_1733526524784 
o vid_23 
f 163 162 161
f 164 165 166
f 161 166 165
f 161 165 163
f 163 165 164
f 164 162 163
f 162 164 166
f 166 161 162
usemtl APPID_2440416880_1733526531952 
o vid_24 
f 167 176 177
f 168 177 178
f 169 178 179
f 170 179 180
f 171 180 181
f 172 181 182
f 173 182 183
f 167 177 168
f 168 178 169
f 169 179 170
f 170 180 171
f 171 181 172
f 172 182 173
f 173 183 174
f 174 183 184
f 174 184 175
usemtl APPID_2440416768_1733526524784 
o vid_25 
f 187 186 185
f 188 189 190
f 185 190 189
f 185 189 187
f 187 189 188
f 188 186 187
f 186 188 190
f 190 185 186
usemtl APPID_2440416880_1733526531952 
o vid_26 
f 191 201 202
f 192 202 203
f 193 203 204
f 194 204 205
f 195 205 206
f 196 206 207
f 197 207 208
f 198 208 209
f 191 202 192
f 192 203 193
f 193 204 194
f 194 205 195
f 195 206 196
f 196 207 197
f 197 208 198
f 198 209 199
f 199 209 210
f 199 210 200
usemtl APPID_2440416768_1733526524784 
o vid_27 
f 213 212 211
f 214 215 216
f 211 216 215
f 211 215 213
f 213 215 214
f 214 212 213
f 212 214 216
f 216 211 212
usemtl APPID_2440416880_1733526531952 
o vid_28 
f 217 228 229
f 218 229 230
f 219 230 231
f 220 231 232
f 221 232 233
f 222 233 234
f 223 234 235
f 224 235 236
f 225 236 237
f 217 229 218
f 218 230 219
f 219 231 220
f 220 232 221
f 221 233 222
f 222 234 223
f 223 235 224
f 224 236 225
f 225 237 226
f 226 237 238
f 226 238 227
usemtl APPID_2440416768_1733526524784 
o vid_29 
f 241 240 239
f 242 243 244
f 239 244 243
f 239 243 241
f 241 243 242
f 242 240 241
f 240 242 244
f 244 239 240
usemtl APPID_2440416880_1733526531952 
o vid_30 
f 245 255 256
f 246 256 257
f 247 257 258
f 248 258 259
f 249 259 260
f 250 260 261
f 251 261 262
f 252 262 263
f 245 256 246
f 246 257 247
f 247 258 248
f 248 259 249
f 249 260 250
f 250 261 251
f 251 262 252
f 252 263 253
f 253 263 264
f 253 264 254
usemtl APPID_2440416768_1733526524784 
o vid_31 
f 267 266 265
f 268 269 270
f 265 270 269
f 265 269 267
f 267 269 268
f 268 266 267
f 266 268 270
f 270 265 266
usemtl APPID_2440416880_1733526531952 
o vid_32 
f 271 281 282
f 272 282 283
f 273 283 284
f 274 284 285
f 275 285 286
f 276 286 287
f 277 287 288
f 278 288 289
f 271 282 272
f 272 283 273
f 273 284 274
f 274 285 275
f 275 286 276
f 276 287 277
f 277 288 278
f 278 289 279
f 279 289 290
f 279 290 280
usemtl APPID_2440416768_1733526524784 
o vid_33 
f 293 292 291
f 294 295 296
f 291 296 295
f 291 295 293
f 293 295 294
f 294 292 293
f 292 294 296
f 296 291 292
usemtl APPID_2440416880_1733526531952 
o vid_34 
f 297 306 307
f 298 307 308
f 299 308 309
f 300 309 310
f 301 310 311
f 302 311 312
f 303 312 313
f 297 307 298
f 298 308 299
f 299 309 300
f 300 310 301
f 301 311 302
f 302 312 303
f 303 313 304
f 304 313 314
usemtl APPID_2440416768_1733526524784 
o vid_35 
f 317 316 315
f 318 319 320
f 315 320 319
f 315 319 317
f 317 319 318
f 318 316 317
f 316 318 320
f 320 315 316
usemtl APPID_2440416880_1733526531952 
o vid_36 
f 321 328 329
f 322 329 330
f 323 330 331
f 324 331 332
f 325 332 333
f 321 329 322
f 322 330 323
f 323 331 324
f 324 332 325
f 325 333 326
f 326 333 334
usemtl APPID_2440416768_1733526524784 
o vid_37 
f 337 336 335
f 338 339 340
f 335 340 339
f 335 339 337
f 337 339 338
f 338 336 337
f 336 338 340
f 340 335 336
usemtl APPID_2440416880_1733526531952 
o vid_38 
f 341 346 347
f 342 347 348
f 343 348 349
f 341 347 342
f 342 348 343
f 343 349 344
f 344 349 350
usemtl APPID_2440429872_1733526525040 
o vid_10000004 
f 351 353 354
f 351 354 352
f 351 353 354
usemtl APPID_2440429872_1733526525040 
o vid_10000006 
f 355 357 358
f 355 358 356
f 355 357 358
usemtl APPID_2440429872_1733526525040 
o vid_10000008 
f 359 361 362
f 359 362 360
f 359 361 362
usemtl APPID_2440429872_1733526525040 
o vid_10000010 
f 363 365 366
f 363 366 364
f 363 365 366
usemtl APPID_2440429872_1733526525040 
o vid_10000012 
f 367 369 370
f 367 370 368
f 367 369 370
usemtl APPID_2440429872_1733526525040 
o vid_10000014 
f 371 373 374
f 371 374 372
f 371 373 374
usemtl APPID_2440429872_1733526525040 
o vid_10000016 
f 375 377 378
f 375 378 376
f 375 377 378
usemtl APPID_2440429872_1733526525040 
o vid_10000018 
f 379 381 382
f 379 382 380
f 379 381 382
usemtl APPID_2440429872_1733526525040 
o vid_10000020 
f 383 385 386
f 383 386 384
f 383 385 386
usemtl APPID_2440429872_1733526525040 
o vid_10000022 
f 387 389 390
f 387 390 388
f 387 389 390
usemtl APPID_2440429872_1733526525040 
o vid_10000024 
f 391 393 394
f 391 394 392
f 391 393 394
usemtl APPID_2440429872_1733526525040 
o vid_10000026 
f 395 397 398
f 395 398 396
f 395 397 398
usemtl APPID_2440429872_1733526525040 
o vid_10000028 
f 399 401 402
f 399 402 400
f 399 401 402
usemtl APPID_2440429872_1733526525040 
o vid_10000030 
f 403 405 406
f 403 406 404
f 403 405 406
usemtl APPID_2440429872_1733526525040 
o vid_10000032 
f 407 409 410
f 407 410 408
f 407 409 410
