# File generated by PlantGL - Fri Sep  4 14:43:11 2026
v    18.386838 139.214176 0.000000
v    21.487125 138.995873 0.000000
v    20.126037 141.789952 0.000000
v    21.613162 140.785824 0.331061
v    18.512875 141.004127 0.331061
v    19.873963 138.210048 0.331061
v    21.183479 141.372167 -0.116670
v    21.709717 141.572060 0.416717
v    22.478937 141.842913 1.187494
v    23.340212 142.162131 1.763257
v    24.003231 142.385603 2.200343
v    24.522701 142.570089 2.339081
v    25.929480 142.888444 2.694692
v    21.809989 140.086049 -0.116670
v    22.291774 140.377197 0.416717
v    22.979214 140.815931 1.187494
v    23.761482 141.297337 1.763257
v    24.346148 141.681653 2.200343
v    24.811630 141.976969 2.339081
v    25.929480 142.888444 2.694692
v    21.114041 140.892407 0.331061
v    18.670132 140.518585 0.331061
v    20.215826 138.589008 0.331061
v    18.885959 139.107593 0.771522
v    21.329868 139.481415 0.771522
v    19.784174 141.410992 0.771522
v    19.719635 138.349284 0.161104
v    18.155268 137.312917 1.939150
v    17.750559 137.037214 2.246675
v    16.315452 136.103078 3.320030
v    15.520046 135.571131 3.561480
v    13.962429 134.587341 4.025136
v    13.245695 134.245850 4.220879
v    12.179082 133.735028 3.976419
v    18.327889 140.086679 0.161104
v    16.975070 138.786224 1.939150
v    16.617683 138.451448 2.246675
v    15.392842 137.254824 3.320030
v    14.700115 136.594697 3.561480
v    13.400079 135.289355 4.025136
v    12.910387 134.664434 4.220879
v    12.179082 133.735028 3.976419
v    18.990146 139.607636 0.771522
v    20.844724 139.321623 0.771522
v    20.165129 141.070741 0.771522
v    21.009854 140.392364 1.487405
v    19.155276 140.678377 1.487405
v    19.834871 138.929259 1.487405
v    20.265239 141.659228 0.674073
v    22.667954 142.350926 3.043171
v    25.493343 143.144691 4.883077
v    26.254154 143.367311 5.083101
v    28.627265 143.994883 5.700883
v    30.163532 144.211119 6.083383
v    31.230634 144.363504 5.860565
v    21.315891 138.955098 0.674073
v    23.555325 140.067041 3.043171
v    26.175469 141.389061 4.883077
v    26.887005 141.738501 5.083101
v    29.061307 142.877761 5.700883
v    30.340572 143.755460 6.083383
v    31.230634 144.363504 5.860565
v    20.741899 140.175501 1.487405
v    19.477063 140.554753 1.487405
v    19.781038 139.269746 1.487405
v    19.258101 139.824499 2.459793
v    20.522937 139.445247 2.459793
v    20.218962 140.730254 2.459793
v    19.981677 138.096478 1.400694
v    16.948971 137.662905 4.303483
v    12.969564 137.129950 6.881545
v    9.371816 136.683992 7.794248
v    6.734208 136.679938 8.444551
v    5.953294 136.677170 8.283127
v    19.130765 141.693565 1.400694
v    16.225227 140.722412 4.303483
v    12.428798 139.415948 6.881545
v    9.012555 138.202706 7.794248
v    6.652682 137.024576 8.444551
v    5.953294 136.677170 8.283127
v    19.694097 139.650682 2.459793
v    20.455470 139.909739 2.459793
v    19.850433 140.439579 2.459793
v    20.305903 140.349318 2.590000
v    19.544530 140.090261 2.590000
v    20.149567 139.560421 2.590000
v    19.569052 141.238279 -0.038482
v    19.775185 141.250604 1.300929
v    20.828723 140.950431 5.624158
v    20.833104 140.951340 5.635446
v    21.284313 139.736198 -0.038482
v    21.269333 139.942155 1.300929
v    20.832780 140.946878 5.624158
v    20.833104 140.951340 5.635446
mtllib usm_15_2.5D_2018-07-29_3.mtl
usemtl APPID_1699846480_2630217943296 
o vid_3 
f 3 2 1
f 4 5 6
f 1 6 5
f 1 5 3
f 3 5 4
f 4 2 3
f 2 4 6
f 6 1 2
usemtl APPID_1699846928_2630217942912 
o vid_4 
f 7 14 15
f 8 15 16
f 9 16 17
f 10 17 18
f 11 18 19
f 7 15 8
f 8 16 9
f 9 17 10
f 10 18 11
f 11 19 12
f 12 19 20
usemtl APPID_1699846480_2630217943296 
o vid_5 
f 23 22 21
f 24 25 26
f 21 26 25
f 21 25 23
f 23 25 24
f 24 22 23
f 22 24 26
f 26 21 22
usemtl APPID_1699846928_2630217942912 
o vid_6 
f 27 35 36
f 28 36 37
f 29 37 38
f 30 38 39
f 31 39 40
f 32 40 41
f 27 36 28
f 28 37 29
f 29 38 30
f 30 39 31
f 31 40 32
f 32 41 33
f 33 41 42
usemtl APPID_1699846480_2630217943296 
o vid_7 
f 45 44 43
f 46 47 48
f 43 48 47
f 43 47 45
f 45 47 46
f 46 44 45
f 44 46 48
f 48 43 44
usemtl APPID_1699846928_2630217942912 
o vid_8 
f 49 56 57
f 50 57 58
f 51 58 59
f 52 59 60
f 53 60 61
f 49 57 50
f 50 58 51
f 51 59 52
f 52 60 53
f 53 61 54
f 54 61 62
usemtl APPID_1699846480_2630217943296 
o vid_9 
f 65 64 63
f 66 67 68
f 63 68 67
f 63 67 65
f 65 67 66
f 66 64 65
f 64 66 68
f 68 63 64
usemtl APPID_1699846928_2630217942912 
o vid_10 
f 69 75 76
f 70 76 77
f 71 77 78
f 72 78 79
f 69 76 70
f 70 77 71
f 71 78 72
f 72 79 73
f 73 79 80
usemtl APPID_1699846480_2630217943296 
o vid_11 
f 83 82 81
f 84 85 86
f 81 86 85
f 81 85 83
f 83 85 84
f 84 82 83
f 82 84 86
f 86 81 82
usemtl APPID_1699846928_2630217942912 
o vid_12 
f 87 91 92
f 88 92 93
f 87 92 88
f 88 93 89
f 89 93 94
