# File generated by PlantGL - Fri Sep  4 14:44:08 2026
v    17.752484 378.905161 0.000000
v    22.071916 378.601013 0.000000
v    20.175600 382.493825 0.000000
v    22.247516 381.094839 0.362700
v    17.928084 381.398987 0.362700
v    19.824400 377.506175 0.362700
v    22.063627 381.445718 0.200499
v    22.311063 381.540055 0.446573
v    22.339703 381.550439 0.474837
v    22.410449 380.733751 0.200499
v    22.637257 380.870434 0.446573
v    22.663088 380.886584 0.474837
v    21.879284 381.505407 0.362700
v    17.756638 380.874804 0.362700
v    20.364078 377.619789 0.362700
v    18.120716 378.494593 0.589630
v    22.243362 379.125196 0.589630
v    19.635922 382.380211 0.589630
v    18.481086 378.071011 0.360907
v    18.193263 377.879824 0.681996
v    18.155270 377.855476 0.723861
v    17.786000 378.938726 0.360907
v    17.536602 378.699570 0.681996
v    17.504549 378.667807 0.723861
v    17.841416 379.161313 0.589630
v    21.805616 378.549955 0.589630
v    20.352968 382.288732 0.589630
v    22.158584 380.838687 1.053978
v    18.194384 381.450045 1.053978
v    19.647032 377.711268 1.053978
v    21.860201 381.543905 0.737721
v    22.284276 381.666552 1.147942
v    22.357739 381.686498 1.218567
v    22.414601 380.117009 0.737721
v    22.810238 380.312849 1.147942
v    22.877897 380.347734 1.218567
v    22.163962 380.511898 1.053978
v    18.474702 381.618097 1.053978
v    19.361335 377.870005 1.053978
v    17.836038 379.488102 1.829186
v    21.525298 378.381903 1.829186
v    20.638665 382.129995 1.829186
v    18.108706 378.469288 1.400401
v    17.337098 378.358008 2.124835
v    17.623337 380.521102 1.400401
v    16.883651 380.274877 2.124835
v    18.595695 378.396392 1.829186
v    22.090917 379.585640 1.829186
v    19.313387 382.017967 1.829186
v    21.404305 381.603608 2.769464
v    17.909083 380.414360 2.769464
v    20.686613 377.982033 2.769464
v    20.308624 382.508664 2.199416
v    21.216700 383.376090 3.366367
v    21.637099 383.764673 3.897492
v    22.995173 385.051314 5.156753
v    22.446013 380.636919 2.199416
v    23.186043 381.651505 3.366367
v    23.515763 382.119498 3.897492
v    24.611972 383.635458 5.156753
v    21.718982 381.097521 2.769464
v    18.190028 380.939922 2.769464
v    20.090990 377.962557 2.769464
v    18.281018 378.902479 5.235228
v    21.809972 379.060078 5.235228
v    19.909010 382.037443 5.235228
v    19.282446 377.433227 4.492119
v    18.573540 377.064907 5.234477
v    17.154533 376.356980 6.705718
v    14.187856 374.831067 8.951322
v    13.143981 374.278165 9.329955
v    17.369602 380.429202 4.492119
v    16.737165 379.941112 5.234477
v    15.497836 378.951767 6.705718
v    12.865194 376.902675 8.951322
v    11.924355 376.188394 9.329955
v    18.420020 378.861621 5.235228
v    21.775855 379.200887 5.235228
v    19.804125 381.937492 5.235228
v    21.579980 381.138379 9.070287
v    18.224145 380.799113 9.070287
v    20.195875 378.062508 9.070287
v    20.073406 383.112623 8.120413
v    22.692411 384.665845 10.949928
v    26.365822 386.830608 13.820352
v    31.836663 390.133995 15.868820
v    32.666697 390.591257 16.171354
v    22.975797 379.084335 8.120413
v    25.278189 381.076991 10.949928
v    28.494445 383.876249 13.820352
v    33.359746 388.020077 15.868820
v    34.056240 388.662682 16.171354
v    21.554633 381.012481 9.070287
v    18.345849 380.840111 9.070287
v    20.099518 378.147408 9.070287
v    18.445367 378.987519 15.537192
v    21.654151 379.159889 15.537192
v    19.900482 381.852592 15.537192
v    20.307633 376.284828 14.346637
v    16.937017 374.494720 17.893102
v    14.611563 373.228487 19.677656
v    12.227384 371.974808 21.490845
v    3.001877 366.981118 24.853342
v    -0.366032 365.307780 25.040329
v    16.726475 381.783585 14.346637
v    13.726332 379.424630 17.893102
v    11.627935 377.809756 19.677656
v    9.517275 376.136097 21.490845
v    1.219704 369.717590 24.853342
v    -1.672547 367.313893 25.040329
v    18.458123 379.144816 15.537192
v    21.511550 379.092287 15.537192
v    20.030327 381.762897 15.537192
v    21.541877 380.855184 23.570456
v    18.488450 380.907713 23.570456
v    19.969673 378.237103 23.570456
v    19.554181 384.222181 22.107253
v    23.842080 386.123391 26.465889
v    25.368055 386.819086 27.596180
v    29.846178 388.782648 30.887545
v    39.939277 393.353839 34.439053
v    42.417151 394.359585 35.292785
v    45.495068 395.629514 35.254878
v    23.345682 377.386194 22.107253
v    27.228915 380.017009 26.465889
v    28.627074 380.943152 27.596180
v    32.663923 383.702321 30.887545
v    41.885946 389.844041 34.439053
v    44.051150 391.413525 35.292785
v    46.758181 393.352151 35.254878
v    21.614895 380.429572 23.570456
v    18.820532 381.183754 23.570456
v    19.564573 378.386674 23.570456
v    18.385105 379.570428 38.883082
v    21.179468 378.816246 38.883082
v    20.435427 381.613326 38.883082
v    19.819289 374.671780 37.119765
v    14.249122 373.710282 42.372391
v    7.347128 372.444779 47.101633
v    -9.829052 369.350470 53.009750
v    -12.443899 368.867274 52.979366
v    -20.481986 367.694302 52.886886
v    -21.301734 367.684569 52.864169
v    17.195819 384.534220 37.119765
v    11.884116 382.601074 42.372391
v    5.265563 380.270028 47.101633
v    -11.177924 374.421299 53.009750
v    -13.687254 373.541432 52.979366
v    -21.245772 370.565611 52.886886
v    -21.962013 370.166761 52.864169
v    18.541706 379.394647 38.883082
v    21.253398 379.039757 38.883082
v    20.204896 381.565597 38.883082
v    21.458294 380.605353 56.198358
v    18.746602 380.960243 56.198358
v    19.795104 378.434403 56.198358
v    19.182638 385.696875 54.114697
v    25.554992 387.698909 60.321575
v    27.935103 388.473987 62.008597
v    34.476725 390.499688 66.618196
v    49.617418 395.388628 71.718022
v    53.157238 396.378374 72.891440
v    58.677103 397.955973 72.826082
v    61.409485 398.357044 72.795398
v    23.457382 375.399024 54.114697
v    29.374232 378.498367 60.321575
v    31.603548 379.636710 62.008597
v    37.656667 382.839216 66.618196
v    51.808644 390.109968 71.718022
v    55.008768 391.918043 72.891440
v    60.023161 394.713323 72.826082
v    62.236321 396.365198 72.795398
v    21.148136 380.944713 56.198358
v    18.607786 380.521958 56.198358
v    20.244078 378.533328 56.198358
v    18.851864 379.055287 79.438023
v    21.392214 379.478042 79.438023
v    19.755922 381.466672 79.438023
v    23.148989 374.105913 77.023703
v    16.758964 369.739428 84.215559
v    13.415351 367.403226 86.964604
v    7.822667 363.615222 91.511398
v    -8.427814 352.320927 97.854711
v    -10.871963 350.762292 98.780152
v    -17.659129 346.379094 98.688169
v    -22.448403 344.119818 98.629334
v    14.822670 384.225120 77.023703
v    9.307335 378.795599 84.215559
v    6.370955 375.964476 86.964604
v    1.576825 371.205968 91.511398
v    -12.635555 357.434711 97.854711
v    -14.635705 355.336473 98.780152
v    -20.243921 349.520463 98.688169
v    -23.383219 345.255926 98.629334
v    19.047630 379.003556 79.438023
v    21.339131 379.673445 79.438023
v    19.613239 381.322999 79.438023
v    20.952370 380.996444 104.080666
v    18.660869 380.326555 104.080666
v    20.386761 378.677001 104.080666
v    15.632386 385.808464 101.337617
v    22.249218 391.599660 109.508701
v    31.537008 399.683473 117.797927
v    45.347100 411.964928 123.721749
v    51.000250 416.604001 126.056380
v    54.816809 419.772779 125.999906
v    61.385276 423.893521 125.913753
v    25.999977 375.899442 101.337617
v    31.486117 382.771318 109.508701
v    39.141781 392.415066 117.797927
v    50.786350 406.766262 123.721749
v    55.165110 412.623356 126.056380
v    58.158109 416.579267 125.999906
v    61.977689 423.327311 125.913753
v    20.759058 380.773613 104.080666
v    18.950502 380.270557 104.080666
v    20.290439 378.955830 104.080666
v    19.240942 379.226387 126.066144
v    21.049498 379.729443 126.066144
v    19.709561 381.044170 126.066144
v    24.890938 373.990327 123.010214
v    19.042546 369.005622 130.151003
v    6.932750 358.803925 141.348035
v    -5.439577 348.088367 146.594388
v    -15.116342 340.357585 150.548470
v    -24.424188 334.520201 150.426009
v    13.898528 384.775928 123.010214
v    9.025787 378.833927 130.151003
v    -0.944096 366.532577 141.348035
v    -11.422761 353.958985 146.594388
v    -18.968380 344.137151 150.548470
v    -24.627948 334.720127 150.426009
v    19.451917 379.392725 126.066144
v    20.799958 379.828983 126.066144
v    19.748126 380.778292 126.066144
v    20.548083 380.607275 141.068083
v    19.200042 380.171017 141.068083
v    20.251874 379.221708 141.068083
v    14.623915 385.630878 137.729794
v    22.589462 392.799893 147.673998
v    33.622156 402.943140 157.761981
v    39.739131 408.704320 160.455387
v    50.794879 418.318380 165.132754
v    58.021201 423.021175 167.812512
v    60.052103 424.377640 167.785377
v    26.150814 375.227519 137.729794
v    32.468242 383.884009 147.673998
v    41.430878 395.895543 157.761981
v    46.536760 402.569263 160.455387
v    54.970623 414.549649 165.132754
v    58.910291 422.218745 167.812512
v    60.052103 424.377640 167.785377
v    20.570332 380.111028 141.068083
v    19.618681 380.438408 141.068083
v    19.810987 379.450564 141.068083
v    19.429668 379.888972 154.208305
v    20.381319 379.561592 154.208305
v    20.189013 380.549436 154.208305
v    21.341028 371.415330 150.632486
v    16.057339 370.868036 155.568623
v    9.919873 370.333974 161.284253
v    -6.054577 368.745662 172.090028
v    -20.330348 367.152548 176.694292
v    -35.984067 366.032264 181.704469
v    -39.679581 366.281681 182.855688
v    -48.074718 366.747692 182.762269
v    18.022734 388.460811 150.632486
v    12.919594 386.986071 155.568623
v    7.029989 385.178788 161.284253
v    -8.373708 380.658622 172.090028
v    -22.204578 376.780132 176.694292
v    -37.135396 371.946434 181.704469
v    -40.467472 370.328936 182.855688
v    -48.074718 366.747692 182.762269
v    19.712407 379.762745 154.208305
v    20.349265 379.869565 154.208305
v    19.938328 380.367690 154.208305
v    20.287593 380.237255 157.968000
v    19.650735 380.130435 157.968000
v    20.061672 379.632310 157.968000
v    16.721244 385.259586 150.515278
v    22.585427 388.810423 161.399268
v    24.307296 389.695131 164.433841
v    32.181820 394.151581 174.725669
v    36.610585 395.624501 179.754328
v    41.350033 397.613096 182.935927
v    24.540510 375.781321 150.515278
v    29.141227 380.863692 161.399268
v    30.337083 382.386015 164.433841
v    36.209011 389.269949 174.725669
v    38.496859 393.338020 179.754328
v    41.350033 397.613096 182.935927
v    22.339703 381.550439 0.474837
v    22.551314 381.627163 0.683668
v    23.232781 381.883775 1.173822
v    23.868664 382.131998 1.392623
v    24.541555 382.364344 1.619887
v    25.081189 382.475214 1.657547
v    22.663088 380.886584 0.474837
v    22.853944 381.005915 0.683668
v    23.476077 381.384330 1.173822
v    24.063506 381.732022 1.392623
v    24.661245 382.118641 1.619887
v    25.081189 382.475214 1.657547
v    18.155270 377.855476 0.723861
v    17.866344 377.670319 1.042236
v    17.008691 377.105691 1.733416
v    16.241188 376.587067 2.030326
v    15.387796 376.058479 2.350796
v    15.178131 375.965921 2.422030
v    14.681388 375.739509 2.415964
v    17.504549 378.667807 0.723861
v    17.260795 378.426259 1.042236
v    16.522589 377.712520 1.733416
v    15.848954 377.076716 2.030326
v    15.146848 376.359267 2.350796
v    15.010761 376.174859 2.422030
v    14.681388 375.739509 2.415964
v    22.357739 381.686498 1.218567
v    22.837513 381.816759 1.679797
v    24.203026 382.205605 2.635494
v    25.385254 382.557692 3.030886
v    26.730192 382.900769 3.474002
v    27.093574 382.941244 3.587643
v    27.792069 383.027498 3.579824
v    22.877897 380.347734 1.218567
v    23.319763 380.575563 1.679797
v    24.589603 381.210646 2.635494
v    25.699420 381.749101 3.030886
v    26.923182 382.404056 3.474002
v    27.218569 382.619537 3.587643
v    27.792069 383.027498 3.579824
v    17.337098 378.358008 2.124835
v    16.746009 378.282576 2.677680
v    14.839626 378.015635 3.973428
v    12.948032 377.727516 4.586739
v    11.077833 377.518192 5.187522
v    9.616413 377.543702 5.250871
v    16.883651 380.274877 2.124835
v    16.321413 380.077483 2.677680
v    14.497481 379.461996 3.973428
v    12.677281 378.872068 4.586739
v    10.911512 378.221284 5.187522
v    9.616413 377.543702 5.250871
v    22.995173 385.051314 5.156753
v    23.494897 385.524754 5.620119
v    25.520032 387.490148 6.524678
v    27.383119 389.159934 7.323387
v    28.994094 390.270562 7.315074
v    24.611972 383.635458 5.156753
v    25.015339 384.193280 5.620119
v    26.696355 386.460023 6.524678
v    28.105727 388.527134 7.323387
v    28.994094 390.270562 7.315074
v    13.143981 374.278165 9.329955
v    11.900607 373.619595 9.780951
v    8.960216 372.208625 10.822142
v    7.836895 371.850564 11.188590
v    6.585292 371.435092 11.173938
v    11.924355 376.188394 9.329955
v    10.803708 375.337603 9.780951
v    8.286397 373.263987 10.822142
v    7.488876 372.395645 11.188590
v    6.585292 371.435092 11.173938
v    32.666697 390.591257 16.171354
v    34.062548 391.360225 16.680121
v    35.554129 392.193129 16.660671
v    38.589134 393.393515 16.624409
v    34.056240 388.662682 16.171354
v    35.227519 389.743337 16.680121
v    36.489751 390.894561 16.660671
v    38.589134 393.393515 16.624409
v    -0.366032 365.307780 25.040329
v    -1.878191 364.554466 25.021095
v    -4.803914 363.553824 24.986740
v    -5.735634 363.239239 24.812542
v    -1.672547 367.313893 25.040329
v    -2.972970 366.235466 25.021095
v    -5.071173 363.964193 24.986740
v    -5.735634 363.239239 24.812542
v    45.495068 395.629514 35.254878
v    46.053463 395.859905 35.248001
v    50.913761 397.145963 35.192142
v    46.758181 393.352151 35.254878
v    47.249290 393.703856 35.248001
v    50.913761 397.145963 35.192142
v    -21.301734 367.684569 52.864169
v    -25.441222 367.650041 52.130877
v    -26.432246 367.648736 51.836124
v    -21.962013 370.166761 52.864169
v    -25.571554 368.140000 52.130877
v    -26.432246 367.648736 51.836124
v    61.409485 398.357044 72.795398
v    65.760666 398.995727 72.746536
v    62.236321 396.365198 72.795398
v    65.760666 398.995727 72.746536
v    -22.448403 344.119818 98.629334
v    -24.779024 343.020378 98.600702
v    -25.156680 342.844032 98.526871
v    -23.383219 345.255926 98.629334
v    -24.910906 343.180659 98.600702
v    -25.156680 342.844032 98.526871
v    61.385276 423.893521 125.913753
v    62.800847 424.781582 125.895186
v    61.977689 423.327311 125.913753
v    62.800847 424.781582 125.895186
v    -24.424188 334.520201 150.426009
v    -24.921312 334.217342 150.419541
v    -24.627948 334.720127 150.426009
v    -24.921312 334.217342 150.419541
mtllib usm_17_2.5D_2018-09-05_9.mtl
usemtl APPID_1925989072_2183767540960 
o vid_3 
f 3 2 1
f 4 5 6
f 1 6 5
f 1 5 3
f 3 5 4
f 4 2 3
f 2 4 6
f 6 1 2
usemtl APPID_1925987840_2183767544928 
o vid_4 
f 7 10 11
f 7 11 8
f 8 11 12
f 8 12 9
usemtl APPID_1925989072_2183767540960 
o vid_5 
f 15 14 13
f 16 17 18
f 13 18 17
f 13 17 15
f 15 17 16
f 16 14 15
f 14 16 18
f 18 13 14
usemtl APPID_1925987840_2183767544928 
o vid_6 
f 19 22 23
f 19 23 20
f 20 23 24
f 20 24 21
usemtl APPID_1925989072_2183767540960 
o vid_7 
f 27 26 25
f 28 29 30
f 25 30 29
f 25 29 27
f 27 29 28
f 28 26 27
f 26 28 30
f 30 25 26
usemtl APPID_1925987840_2183767544928 
o vid_8 
f 31 34 35
f 31 35 32
f 32 35 36
f 32 36 33
usemtl APPID_1925989072_2183767540960 
o vid_9 
f 39 38 37
f 40 41 42
f 37 42 41
f 37 41 39
f 39 41 40
f 40 38 39
f 38 40 42
f 42 37 38
usemtl APPID_1925987840_2183767544928 
o vid_10 
f 43 45 46
f 43 46 44
f 43 45 46
f 43 46 44
usemtl APPID_1925989072_2183767540960 
o vid_11 
f 49 48 47
f 50 51 52
f 47 52 51
f 47 51 49
f 49 51 50
f 50 48 49
f 48 50 52
f 52 47 48
usemtl APPID_1925987840_2183767544928 
o vid_12 
f 53 57 58
f 54 58 59
f 53 58 54
f 54 59 55
f 55 59 60
f 55 60 56
usemtl APPID_1925989072_2183767540960 
o vid_13 
f 63 62 61
f 64 65 66
f 61 66 65
f 61 65 63
f 63 65 64
f 64 62 63
f 62 64 66
f 66 61 62
usemtl APPID_1925987840_2183767544928 
o vid_14 
f 67 72 73
f 68 73 74
f 69 74 75
f 67 73 68
f 68 74 69
f 69 75 70
f 70 75 76
f 70 76 71
usemtl APPID_1925989072_2183767540960 
o vid_15 
f 79 78 77
f 80 81 82
f 77 82 81
f 77 81 79
f 79 81 80
f 80 78 79
f 78 80 82
f 82 77 78
usemtl APPID_1925987840_2183767544928 
o vid_16 
f 83 88 89
f 84 89 90
f 85 90 91
f 83 89 84
f 84 90 85
f 85 91 86
f 86 91 92
f 86 92 87
usemtl APPID_1925989072_2183767540960 
o vid_17 
f 95 94 93
f 96 97 98
f 93 98 97
f 93 97 95
f 95 97 96
f 96 94 95
f 94 96 98
f 98 93 94
usemtl APPID_1925987840_2183767544928 
o vid_18 
f 99 105 106
f 100 106 107
f 101 107 108
f 102 108 109
f 99 106 100
f 100 107 101
f 101 108 102
f 102 109 103
f 103 109 110
f 103 110 104
usemtl APPID_1925989072_2183767540960 
o vid_19 
f 113 112 111
f 114 115 116
f 111 116 115
f 111 115 113
f 113 115 114
f 114 112 113
f 112 114 116
f 116 111 112
usemtl APPID_1925987840_2183767544928 
o vid_20 
f 117 124 125
f 118 125 126
f 119 126 127
f 120 127 128
f 121 128 129
f 117 125 118
f 118 126 119
f 119 127 120
f 120 128 121
f 121 129 122
f 122 129 130
f 122 130 123
usemtl APPID_1925989072_2183767540960 
o vid_21 
f 133 132 131
f 134 135 136
f 131 136 135
f 131 135 133
f 133 135 134
f 134 132 133
f 132 134 136
f 136 131 132
usemtl APPID_1925987840_2183767544928 
o vid_22 
f 137 144 145
f 138 145 146
f 139 146 147
f 140 147 148
f 141 148 149
f 137 145 138
f 138 146 139
f 139 147 140
f 140 148 141
f 141 149 142
f 142 149 150
f 142 150 143
usemtl APPID_1925989072_2183767540960 
o vid_23 
f 153 152 151
f 154 155 156
f 151 156 155
f 151 155 153
f 153 155 154
f 154 152 153
f 152 154 156
f 156 151 152
usemtl APPID_1925987840_2183767544928 
o vid_24 
f 157 165 166
f 158 166 167
f 159 167 168
f 160 168 169
f 161 169 170
f 162 170 171
f 157 166 158
f 158 167 159
f 159 168 160
f 160 169 161
f 161 170 162
f 162 171 163
f 163 171 172
f 163 172 164
usemtl APPID_1925989072_2183767540960 
o vid_25 
f 175 174 173
f 176 177 178
f 173 178 177
f 173 177 175
f 175 177 176
f 176 174 175
f 174 176 178
f 178 173 174
usemtl APPID_1925987840_2183767544928 
o vid_26 
f 179 187 188
f 180 188 189
f 181 189 190
f 182 190 191
f 183 191 192
f 184 192 193
f 179 188 180
f 180 189 181
f 181 190 182
f 182 191 183
f 183 192 184
f 184 193 185
f 185 193 194
f 185 194 186
usemtl APPID_1925989072_2183767540960 
o vid_27 
f 197 196 195
f 198 199 200
f 195 200 199
f 195 199 197
f 197 199 198
f 198 196 197
f 196 198 200
f 200 195 196
usemtl APPID_1925987840_2183767544928 
o vid_28 
f 201 208 209
f 202 209 210
f 203 210 211
f 204 211 212
f 205 212 213
f 201 209 202
f 202 210 203
f 203 211 204
f 204 212 205
f 205 213 206
f 206 213 214
f 206 214 207
usemtl APPID_1925989072_2183767540960 
o vid_29 
f 217 216 215
f 218 219 220
f 215 220 219
f 215 219 217
f 217 219 218
f 218 216 217
f 216 218 220
f 220 215 216
usemtl APPID_1925987840_2183767544928 
o vid_30 
f 221 227 228
f 222 228 229
f 223 229 230
f 224 230 231
f 221 228 222
f 222 229 223
f 223 230 224
f 224 231 225
f 225 231 232
f 225 232 226
usemtl APPID_1925989072_2183767540960 
o vid_31 
f 235 234 233
f 236 237 238
f 233 238 237
f 233 237 235
f 235 237 236
f 236 234 235
f 234 236 238
f 238 233 234
usemtl APPID_1925987840_2183767544928 
o vid_32 
f 239 246 247
f 240 247 248
f 241 248 249
f 242 249 250
f 243 250 251
f 239 247 240
f 240 248 241
f 241 249 242
f 242 250 243
f 243 251 244
f 244 251 252
usemtl APPID_1925989072_2183767540960 
o vid_33 
f 255 254 253
f 256 257 258
f 253 258 257
f 253 257 255
f 255 257 256
f 256 254 255
f 254 256 258
f 258 253 254
usemtl APPID_1925987840_2183767544928 
o vid_34 
f 259 267 268
f 260 268 269
f 261 269 270
f 262 270 271
f 263 271 272
f 264 272 273
f 259 268 260
f 260 269 261
f 261 270 262
f 262 271 263
f 263 272 264
f 264 273 265
f 265 273 274
usemtl APPID_1925989072_2183767540960 
o vid_35 
f 277 276 275
f 278 279 280
f 275 280 279
f 275 279 277
f 277 279 278
f 278 276 277
f 276 278 280
f 280 275 276
usemtl APPID_1925987840_2183767544928 
o vid_36 
f 281 287 288
f 282 288 289
f 283 289 290
f 284 290 291
f 281 288 282
f 282 289 283
f 283 290 284
f 284 291 285
f 285 291 292
usemtl APPID_1925996352_2183767547232 
o vid_10000004 
f 293 299 300
f 294 300 301
f 295 301 302
f 296 302 303
f 293 300 294
f 294 301 295
f 295 302 296
f 296 303 297
f 297 303 304
usemtl APPID_1925996352_2183767547232 
o vid_10000006 
f 305 312 313
f 306 313 314
f 307 314 315
f 308 315 316
f 309 316 317
f 305 313 306
f 306 314 307
f 307 315 308
f 308 316 309
f 309 317 310
f 310 317 318
usemtl APPID_1925996352_2183767547232 
o vid_10000008 
f 319 326 327
f 320 327 328
f 321 328 329
f 322 329 330
f 323 330 331
f 319 327 320
f 320 328 321
f 321 329 322
f 322 330 323
f 323 331 324
f 324 331 332
usemtl APPID_1925996352_2183767547232 
o vid_10000010 
f 333 339 340
f 334 340 341
f 335 341 342
f 336 342 343
f 333 340 334
f 334 341 335
f 335 342 336
f 336 343 337
f 337 343 344
usemtl APPID_1925996352_2183767547232 
o vid_10000012 
f 345 350 351
f 346 351 352
f 347 352 353
f 345 351 346
f 346 352 347
f 347 353 348
f 348 353 354
usemtl APPID_1925996352_2183767547232 
o vid_10000014 
f 355 360 361
f 356 361 362
f 357 362 363
f 355 361 356
f 356 362 357
f 357 363 358
f 358 363 364
usemtl APPID_1925996352_2183767547232 
o vid_10000016 
f 365 369 370
f 366 370 371
f 365 370 366
f 366 371 367
f 367 371 372
usemtl APPID_1925996352_2183767547232 
o vid_10000018 
f 373 377 378
f 374 378 379
f 373 378 374
f 374 379 375
f 375 379 380
usemtl APPID_1925996352_2183767547232 
o vid_10000020 
f 381 384 385
f 381 385 382
f 382 385 386
usemtl APPID_1925996352_2183767547232 
o vid_10000022 
f 387 390 391
f 387 391 388
f 388 391 392
usemtl APPID_1925996352_2183767547232 
o vid_10000024 
f 393 395 396
f 393 396 394
f 393 395 396
usemtl APPID_1925996352_2183767547232 
o vid_10000026 
f 397 400 401
f 397 401 398
f 398 401 402
usemtl APPID_1925996352_2183767547232 
o vid_10000028 
f 403 405 406
f 403 406 404
f 403 405 406
usemtl APPID_1925996352_2183767547232 
o vid_10000030 
f 407 409 410
f 407 410 408
f 407 409 410
