# File generated by PlantGL - Fri Sep  4 14:41:36 2026
v    18.201987 59.124129 0.000000
v    21.657533 58.880811 0.000000
v    20.140480 61.995060 0.000000
v    21.798013 60.875871 0.231332
v    18.342467 61.119189 0.231332
v    19.859520 58.004940 0.231332
v    21.488153 61.266372 -0.140491
v    22.207628 61.519709 0.580440
v    22.574910 61.634879 0.942568
v    23.080185 61.805184 1.275665
v    23.900367 61.963241 1.783702
v    24.142838 62.018112 1.844995
v    21.914494 60.391169 -0.140491
v    22.557476 60.801530 0.580440
v    22.874565 61.019739 0.942568
v    23.320129 61.312619 1.275665
v    23.950166 61.861011 1.783702
v    24.142838 62.018112 1.844995
v    21.503548 61.204422 0.231332
v    18.205166 60.699900 0.231332
v    20.291286 58.095678 0.231332
v    18.496452 58.795578 0.322957
v    21.794834 59.300100 0.322957
v    19.708714 61.904322 0.322957
v    19.008081 58.387564 -0.175642
v    18.248456 57.910643 0.672087
v    17.692658 57.588011 1.276694
v    17.207840 57.292646 1.631343
v    16.043104 56.783008 2.404618
v    15.897363 56.713570 2.444420
v    18.209943 59.383925 -0.175642
v    17.578724 58.746707 0.672087
v    17.142563 58.274726 1.276694
v    16.748503 57.866062 1.631343
v    15.996937 56.840641 2.404618
v    15.897363 56.713570 2.444420
v    18.272844 59.328938 0.322957
v    21.444735 58.839770 0.322957
v    20.282421 61.831292 0.322957
v    21.727156 60.671062 0.466906
v    18.555265 61.160230 0.466906
v    19.717579 58.168708 0.466906
v    21.269390 61.325252 -0.189159
v    21.867571 61.481719 0.395230
v    23.243326 61.791023 1.721846
v    25.179408 62.012386 2.909050
v    21.831148 59.879419 -0.189159
v    22.378053 60.167858 0.395230
v    23.601746 60.868533 1.721846
v    25.179408 62.012386 2.909050
v    21.731622 60.409625 0.466906
v    18.779443 61.294816 0.466906
v    19.488935 58.295559 0.466906
v    18.268378 59.590375 0.678772
v    21.220557 58.705184 0.678772
v    20.511065 61.704441 0.678772
v    18.733419 58.688853 -0.168301
v    18.088084 58.612649 0.445872
v    16.174594 58.453754 2.252276
v    13.782508 58.529216 3.723403
v    18.280214 60.604704 -0.168301
v    17.669133 60.383696 0.445872
v    15.887256 59.668430 2.252276
v    13.782508 58.529216 3.723403
v    18.876148 58.716648 0.678772
v    21.673341 59.668392 0.678772
v    19.450510 61.614960 0.678772
v    21.123852 61.283352 0.919581
v    18.326659 60.331608 0.919581
v    20.549490 58.385040 0.919581
v    19.941665 61.905986 -0.153604
v    20.890641 62.766961 1.057449
v    22.444656 64.081543 2.972404
v    22.791312 64.387648 3.261307
v    25.321528 66.076775 5.111680
v    21.897020 60.193651 -0.153604
v    22.625260 61.247927 1.057449
v    23.723313 62.961802 2.972404
v    23.981004 63.345816 3.261307
v    25.321528 66.076775 5.111680
v    21.375838 60.878433 0.919581
v    18.551335 60.752294 0.919581
v    20.072827 58.369272 0.919581
v    18.624162 59.121567 1.432830
v    21.448665 59.247706 1.432830
v    19.927173 61.630728 1.432830
v    19.740482 58.090260 0.098668
v    19.451831 57.949583 0.402162
v    16.689007 56.719785 3.247294
v    15.904453 56.507999 3.984856
v    13.191583 55.653020 5.714908
v    18.158375 60.568221 0.098668
v    17.909292 60.365569 0.402162
v    15.631054 58.376794 3.247294
v    15.108783 57.754209 3.984856
v    13.191583 55.653020 5.714908
v    18.735263 59.088754 1.432830
v    21.421531 59.360328 1.432830
v    19.843206 61.550918 1.432830
v    21.264737 60.911246 2.225064
v    18.578469 60.639672 2.225064
v    20.156794 58.449082 2.225064
v    19.773718 62.175357 0.597561
v    20.908985 62.809796 1.826739
v    24.189807 64.496687 5.297429
v    28.499482 66.123897 8.112796
v    21.991863 59.096748 0.597561
v    22.953044 59.972805 1.826739
v    25.591728 62.550932 5.297429
v    28.499482 66.123897 8.112796
v    21.244614 60.810576 2.225064
v    18.675713 60.672580 2.225064
v    20.079672 58.516844 2.225064
v    18.755386 59.189424 3.124456
v    21.324287 59.327420 3.124456
v    19.920328 61.483156 3.124456
v    20.416749 57.671003 1.176340
v    19.742302 57.334729 1.888631
v    15.724475 55.502619 6.043036
v    14.867300 55.262898 6.850872
v    10.592092 53.872943 9.585160
v    18.038399 61.322886 1.176340
v    17.458130 60.842005 1.888631
v    14.157872 57.908091 6.043036
v    13.592025 57.221045 6.850872
v    10.592092 53.872943 9.585160
v    18.765415 59.315252 3.124456
v    21.210302 59.273192 3.124456
v    20.024283 61.411556 3.124456
v    21.234585 60.684748 4.412369
v    18.789698 60.726808 4.412369
v    19.975717 58.588444 4.412369
v    19.398246 62.631049 2.124203
v    20.485384 63.080024 3.235884
v    25.345063 64.892378 8.115454
v    26.072367 65.041195 8.789243
v    31.536177 66.398408 12.213487
v    21.913335 58.096404 2.124203
v    22.869838 58.780912 3.235884
v    26.980445 61.943824 8.115454
v    27.491790 62.482009 8.789243
v    31.536177 66.398408 12.213487
v    21.094653 60.291185 4.412369
v    19.200500 60.802405 4.412369
v    19.704847 58.906410 4.412369
v    18.905347 59.708815 6.256697
v    20.799500 59.197595 6.256697
v    20.295153 61.093590 6.256697
v    20.405817 57.035454 3.619517
v    19.228181 56.863200 4.744398
v    13.286925 56.203713 10.368251
v    12.260058 56.249523 11.301177
v    5.970287 56.268010 15.126819
v    18.879231 62.774364 3.619517
v    17.771654 62.338737 4.744398
v    12.287964 59.959119 10.368251
v    11.419576 59.409159 11.301177
v    5.970287 56.268010 15.126819
v    19.193827 59.665349 6.256697
v    20.692903 59.469159 6.256697
v    20.113270 60.865492 6.256697
v    20.806173 60.334651 8.910199
v    19.307097 60.530841 8.910199
v    19.886730 59.134508 8.910199
v    18.749064 63.040086 5.927758
v    19.450307 63.240760 6.617139
v    26.010371 64.874148 12.977269
v    27.807794 65.034354 14.615105
v    34.125991 65.863846 18.490997
v    21.269762 56.967729 5.927758
v    21.906971 57.322661 6.617139
v    27.695278 60.815209 12.977269
v    29.077758 61.975014 14.615105
v    34.125991 65.863846 18.490997
v    20.491120 60.404105 8.910199
v    19.404475 60.223270 8.910199
v    20.104405 59.372625 8.910199
v    19.508880 59.595895 12.877904
v    20.595525 59.776730 12.877904
v    19.895595 60.627375 12.877904
v    22.628899 57.310749 9.568242
v    21.223371 56.402379 11.149955
v    14.785182 52.551300 18.207892
v    13.762752 52.138256 19.208728
v    6.376350 48.790144 24.141346
v    17.867358 63.097583 9.568242
v    16.705316 61.893296 11.149955
v    11.686465 56.317256 18.207892
v    11.084255 55.393508 19.208728
v    6.376350 48.790144 24.141346
v    19.708347 59.694850 12.877904
v    20.410094 59.899996 12.877904
v    19.881559 60.405153 12.877904
v    20.291653 60.305150 15.302000
v    19.589906 60.100004 15.302000
v    20.118441 59.594847 15.302000
v    16.936265 61.593271 7.962295
v    19.846784 63.682679 12.887179
v    25.044798 66.096902 20.350877
v    26.707373 67.017777 22.046820
v    21.730148 57.011427 7.962295
v    23.685840 60.013428 12.887179
v    25.862603 65.315270 20.350877
v    26.707373 67.017777 22.046820
mtllib usm_26_Beer_2018-08-13_1.mtl
usemtl APPID_1692214112_1985966854256 
o vid_3 
f 3 2 1
f 4 5 6
f 1 6 5
f 1 5 3
f 3 5 4
f 4 2 3
f 2 4 6
f 6 1 2
usemtl APPID_1692216128_1985966846832 
o vid_4 
f 7 13 14
f 8 14 15
f 9 15 16
f 10 16 17
f 7 14 8
f 8 15 9
f 9 16 10
f 10 17 11
f 11 17 18
usemtl APPID_1692214112_1985966854256 
o vid_5 
f 21 20 19
f 22 23 24
f 19 24 23
f 19 23 21
f 21 23 22
f 22 20 21
f 20 22 24
f 24 19 20
usemtl APPID_1692216128_1985966846832 
o vid_6 
f 25 31 32
f 26 32 33
f 27 33 34
f 28 34 35
f 25 32 26
f 26 33 27
f 27 34 28
f 28 35 29
f 29 35 36
usemtl APPID_1692214112_1985966854256 
o vid_7 
f 39 38 37
f 40 41 42
f 37 42 41
f 37 41 39
f 39 41 40
f 40 38 39
f 38 40 42
f 42 37 38
usemtl APPID_1692216128_1985966846832 
o vid_8 
f 43 47 48
f 44 48 49
f 43 48 44
f 44 49 45
f 45 49 50
usemtl APPID_1692214112_1985966854256 
o vid_9 
f 53 52 51
f 54 55 56
f 51 56 55
f 51 55 53
f 53 55 54
f 54 52 53
f 52 54 56
f 56 51 52
usemtl APPID_1692216128_1985966846832 
o vid_10 
f 57 61 62
f 58 62 63
f 57 62 58
f 58 63 59
f 59 63 64
usemtl APPID_1692214112_1985966854256 
o vid_11 
f 67 66 65
f 68 69 70
f 65 70 69
f 65 69 67
f 67 69 68
f 68 66 67
f 66 68 70
f 70 65 66
usemtl APPID_1692216128_1985966846832 
o vid_12 
f 71 76 77
f 72 77 78
f 73 78 79
f 71 77 72
f 72 78 73
f 73 79 74
f 74 79 80
usemtl APPID_1692214112_1985966854256 
o vid_13 
f 83 82 81
f 84 85 86
f 81 86 85
f 81 85 83
f 83 85 84
f 84 82 83
f 82 84 86
f 86 81 82
usemtl APPID_1692216128_1985966846832 
o vid_14 
f 87 92 93
f 88 93 94
f 89 94 95
f 87 93 88
f 88 94 89
f 89 95 90
f 90 95 96
usemtl APPID_1692214112_1985966854256 
o vid_15 
f 99 98 97
f 100 101 102
f 97 102 101
f 97 101 99
f 99 101 100
f 100 98 99
f 98 100 102
f 102 97 98
usemtl APPID_1692216128_1985966846832 
o vid_16 
f 103 107 108
f 104 108 109
f 103 108 104
f 104 109 105
f 105 109 110
usemtl APPID_1692214112_1985966854256 
o vid_17 
f 113 112 111
f 114 115 116
f 111 116 115
f 111 115 113
f 113 115 114
f 114 112 113
f 112 114 116
f 116 111 112
usemtl APPID_1692216128_1985966846832 
o vid_18 
f 117 122 123
f 118 123 124
f 119 124 125
f 117 123 118
f 118 124 119
f 119 125 120
f 120 125 126
usemtl APPID_1692214112_1985966854256 
o vid_19 
f 129 128 127
f 130 131 132
f 127 132 131
f 127 131 129
f 129 131 130
f 130 128 129
f 128 130 132
f 132 127 128
usemtl APPID_1692216128_1985966846832 
o vid_20 
f 133 138 139
f 134 139 140
f 135 140 141
f 133 139 134
f 134 140 135
f 135 141 136
f 136 141 142
usemtl APPID_1692214112_1985966854256 
o vid_21 
f 145 144 143
f 146 147 148
f 143 148 147
f 143 147 145
f 145 147 146
f 146 144 145
f 144 146 148
f 148 143 144
usemtl APPID_1692216128_1985966846832 
o vid_22 
f 149 154 155
f 150 155 156
f 151 156 157
f 149 155 150
f 150 156 151
f 151 157 152
f 152 157 158
usemtl APPID_1692214112_1985966854256 
o vid_23 
f 161 160 159
f 162 163 164
f 159 164 163
f 159 163 161
f 161 163 162
f 162 160 161
f 160 162 164
f 164 159 160
usemtl APPID_1692216128_1985966846832 
o vid_24 
f 165 170 171
f 166 171 172
f 167 172 173
f 165 171 166
f 166 172 167
f 167 173 168
f 168 173 174
usemtl APPID_1692214112_1985966854256 
o vid_25 
f 177 176 175
f 178 179 180
f 175 180 179
f 175 179 177
f 177 179 178
f 178 176 177
f 176 178 180
f 180 175 176
usemtl APPID_1692216128_1985966846832 
o vid_26 
f 181 186 187
f 182 187 188
f 183 188 189
f 181 187 182
f 182 188 183
f 183 189 184
f 184 189 190
usemtl APPID_1692214112_1985966854256 
o vid_27 
f 193 192 191
f 194 195 196
f 191 196 195
f 191 195 193
f 193 195 194
f 194 192 193
f 192 194 196
f 196 191 192
usemtl APPID_1692216128_1985966846832 
o vid_28 
f 197 201 202
f 198 202 203
f 197 202 198
f 198 203 199
f 199 203 204
