# File generated by PlantGL - Fri Sep  4 14:43:59 2026
v    17.752484 298.905161 0.000000
v    22.071916 298.601013 0.000000
v    20.175600 302.493825 0.000000
v    22.247516 301.094839 0.362700
v    17.928084 301.398987 0.362700
v    19.824400 297.506175 0.362700
v    22.063627 301.445718 0.200499
v    22.311063 301.540055 0.446573
v    22.551314 301.627163 0.683668
v    22.711833 301.687608 0.799123
v    22.410449 300.733751 0.200499
v    22.637257 300.870434 0.446573
v    22.853944 301.005915 0.683668
v    23.000487 301.095050 0.799123
v    21.879284 301.505407 0.362700
v    17.756638 300.874804 0.362700
v    20.364078 297.619789 0.362700
v    18.120716 298.494593 0.589630
v    22.243362 299.125196 0.589630
v    19.635922 302.380211 0.589630
v    18.481086 298.071011 0.360907
v    18.193263 297.879824 0.681996
v    17.866344 297.670319 1.042236
v    17.008691 297.105691 1.733416
v    16.608345 296.835165 1.888290
v    17.786000 298.938726 0.360907
v    17.536602 298.699570 0.681996
v    17.260795 298.426259 1.042236
v    16.522589 297.712520 1.733416
v    16.171206 297.380871 1.888290
v    17.841416 299.161313 0.589630
v    21.805616 298.549955 0.589630
v    20.352968 302.288732 0.589630
v    22.158584 300.838687 1.053978
v    18.194384 301.450045 1.053978
v    19.647032 297.711268 1.053978
v    21.860201 301.543905 0.737721
v    22.284276 301.666552 1.147942
v    22.837513 301.816759 1.679797
v    24.203026 302.205605 2.635494
v    25.385254 302.557692 3.030886
v    25.819225 302.668393 3.173866
v    22.414601 300.117009 0.737721
v    22.810238 300.312849 1.147942
v    23.319763 300.575563 1.679797
v    24.589603 301.210646 2.635494
v    25.699420 301.749101 3.030886
v    26.094291 301.960436 3.173866
v    22.163962 300.511898 1.053978
v    18.474702 301.618097 1.053978
v    19.361335 297.870005 1.053978
v    17.836038 299.488102 1.829186
v    21.525298 298.381903 1.829186
v    20.638665 302.129995 1.829186
v    18.108706 298.469288 1.400401
v    17.333004 298.357417 2.128679
v    16.746009 298.282576 2.677680
v    14.839626 298.015635 3.973428
v    12.948032 297.727516 4.586739
v    11.367459 297.550609 5.094482
v    17.623337 300.521102 1.400401
v    16.879727 300.273571 2.128679
v    16.321413 300.077483 2.677680
v    14.497481 299.461996 3.973428
v    12.677281 298.872068 4.586739
v    11.184967 298.322067 5.094482
v    18.595695 298.396392 1.829186
v    22.090917 299.585640 1.829186
v    19.313387 302.017967 1.829186
v    21.404305 301.603608 2.769464
v    17.909083 300.414360 2.769464
v    20.686613 297.982033 2.769464
v    20.308624 302.508664 2.199416
v    21.216700 303.376090 3.366367
v    21.637099 303.764673 3.897492
v    23.494897 305.524754 5.620119
v    25.520032 307.490148 6.524678
v    27.383119 309.159934 7.323387
v    27.520156 309.253856 7.334968
v    22.446013 300.636919 2.199416
v    23.186043 301.651505 3.366367
v    23.515763 302.119498 3.897492
v    25.015339 304.193280 5.620119
v    26.696355 306.460023 6.524678
v    28.105727 308.527134 7.323387
v    28.180748 308.675366 7.334968
v    21.718982 301.097521 2.769464
v    18.190028 300.939922 2.769464
v    20.090990 297.962557 2.769464
v    18.281018 298.902479 5.235228
v    21.809972 299.060078 5.235228
v    19.909010 302.037443 5.235228
v    19.282446 297.433227 4.492119
v    18.573540 297.064907 5.234477
v    17.154533 296.356980 6.705718
v    14.187856 294.831067 8.951322
v    11.900607 293.619595 9.780951
v    8.960216 292.208625 10.822142
v    8.101974 291.935059 11.102116
v    17.369602 300.429202 4.492119
v    16.737165 299.941112 5.234477
v    15.497836 298.951767 6.705718
v    12.865194 296.902675 8.951322
v    10.803708 295.337603 9.780951
v    8.286397 293.263987 10.822142
v    7.677074 292.600555 11.102116
v    18.420020 298.861621 5.235228
v    21.775855 299.200887 5.235228
v    19.804125 301.937492 5.235228
v    21.579980 301.138379 9.070287
v    18.224145 300.799113 9.070287
v    20.195875 298.062508 9.070287
v    20.073406 303.112623 8.120413
v    22.692411 304.665845 10.949928
v    26.365822 306.830608 13.820352
v    31.836663 310.133995 15.868820
v    34.062548 311.360225 16.680121
v    35.554129 312.193129 16.660671
v    37.491555 312.959407 16.637523
v    22.975797 299.084335 8.120413
v    25.278189 301.076991 10.949928
v    28.494445 303.876249 13.820352
v    33.359746 308.020077 15.868820
v    35.227519 309.743337 16.680121
v    36.489751 310.894561 16.660671
v    37.829913 312.489793 16.637523
v    21.554633 301.012481 9.070287
v    18.345849 300.840111 9.070287
v    20.099518 298.147408 9.070287
v    18.445367 298.987519 15.537192
v    21.654151 299.159889 15.537192
v    19.900482 301.852592 15.537192
v    20.307633 296.284828 14.346637
v    16.937017 294.494720 17.893102
v    14.611563 293.228487 19.677656
v    12.227384 291.974808 21.490845
v    3.001877 286.981118 24.853342
v    -1.878191 284.554466 25.021095
v    -4.803914 283.553824 24.986740
v    -5.000819 283.487341 24.949926
v    16.726475 301.783585 14.346637
v    13.726332 299.424630 17.893102
v    11.627935 297.809756 19.677656
v    9.517275 296.136097 21.490845
v    1.219704 289.717590 24.853342
v    -2.972970 286.235466 25.021095
v    -5.071173 283.964193 24.986740
v    -5.211598 283.810984 24.949926
v    18.458123 299.144816 15.537192
v    21.511550 299.092287 15.537192
v    20.030327 301.762897 15.537192
v    21.541877 300.855184 23.570456
v    18.488450 300.907713 23.570456
v    19.969673 298.237103 23.570456
v    19.554181 304.222181 22.107253
v    23.842080 306.123391 26.465889
v    25.368055 306.819086 27.596180
v    29.846178 308.782648 30.887545
v    39.939277 313.353839 34.439053
v    42.417151 314.359585 35.292785
v    46.053463 315.859905 35.248001
v    50.380646 317.004898 35.198269
v    23.345682 297.386194 22.107253
v    27.228915 300.017009 26.465889
v    28.627074 300.943152 27.596180
v    32.663923 303.702321 30.887545
v    41.885946 309.844041 34.439053
v    44.051150 311.413525 35.292785
v    47.249290 313.703856 35.248001
v    50.511814 316.768406 35.198269
v    21.391940 300.370265 23.570456
v    18.983371 301.020323 23.570456
v    19.624688 298.609412 23.570456
v    18.608060 299.629735 38.883082
v    21.016629 298.979677 38.883082
v    20.375312 301.390588 38.883082
v    20.042243 294.731087 37.119765
v    14.472076 293.769589 42.372391
v    7.570082 292.504086 47.101633
v    -9.606098 289.409777 53.009750
v    -12.220944 288.926581 52.979366
v    -20.259031 287.753609 52.886886
v    -25.218268 287.709348 52.130877
v    -25.994801 287.708326 51.899918
v    17.418773 304.593527 37.119765
v    12.107071 302.660381 42.372391
v    5.488518 300.329336 47.101633
v    -10.954969 294.480606 53.009750
v    -13.464299 293.600739 52.979366
v    -21.022817 290.624918 52.886886
v    -25.348600 288.199308 52.130877
v    -26.023009 287.814370 51.899918
v    18.970898 299.572809 38.883082
v    20.884509 299.322367 38.883082
v    20.144593 301.104824 38.883082
v    21.029102 300.427191 56.198358
v    19.115491 300.677633 56.198358
v    19.855407 298.895176 56.198358
v    18.753445 305.518713 54.114697
v    25.125800 307.520747 60.321575
v    27.505910 308.295825 62.008597
v    34.047533 310.321526 66.618196
v    49.188226 315.210466 71.718022
v    52.728046 316.200212 72.891440
v    58.247911 317.777811 72.826082
v    65.331474 318.817565 72.746536
v    23.028190 295.220862 54.114697
v    28.945040 298.320205 60.321575
v    31.174356 299.458548 62.008597
v    37.227474 302.661054 66.618196
v    51.379452 309.931806 71.718022
v    54.579575 311.739880 72.891440
v    59.593969 314.535161 72.826082
v    65.331474 318.817565 72.746536
v    20.630831 300.519062 56.198358
v    19.235064 300.286784 56.198358
v    20.134106 299.194154 56.198358
v    19.369169 299.480938 79.438023
v    20.764936 299.713216 79.438023
v    19.865894 300.805846 79.438023
v    23.666294 294.531564 77.023703
v    17.276269 290.165079 84.215559
v    13.932657 287.828877 86.964604
v    8.339973 284.040873 91.511398
v    -7.910509 272.746578 97.854711
v    -10.354657 271.187943 98.780152
v    -17.141824 266.804745 98.688169
v    -24.261718 263.446030 98.600702
v    -24.639375 263.269683 98.526871
v    15.339975 304.650771 77.023703
v    9.824641 299.221250 84.215559
v    6.888261 296.390127 86.964604
v    2.094130 291.631619 91.511398
v    -12.118250 277.860362 97.854711
v    -14.118400 275.762124 98.780152
v    -19.726615 269.946114 98.688169
v    -24.393601 263.606310 98.600702
v    -24.639375 263.269683 98.526871
v    19.621093 299.603558 79.438023
v    20.532782 299.870078 79.438023
v    19.846125 300.526364 79.438023
v    20.378907 300.396442 92.762000
v    19.467218 300.129922 92.762000
v    20.153875 299.473636 92.762000
v    16.102571 304.377501 87.271465
v    22.133246 309.345340 96.397618
v    30.716544 316.667764 106.044878
v    39.725830 323.983420 111.278816
v    47.144251 328.400431 115.060481
v    24.549221 296.304455 87.271465
v    29.239345 302.553551 96.397618
v    36.166247 311.459107 106.044878
v    43.067130 320.789909 111.278816
v    47.144251 328.400431 115.060481
v    22.711833 301.687608 0.799123
v    23.232781 301.883775 1.173822
v    23.868664 302.131998 1.392623
v    24.541555 302.364344 1.619887
v    24.675014 302.390516 1.662157
v    25.081189 302.475214 1.657547
v    23.000487 301.095050 0.799123
v    23.476077 301.384330 1.173822
v    24.063506 301.732022 1.392623
v    24.661245 302.118641 1.619887
v    24.764121 302.207596 1.662157
v    25.081189 302.475214 1.657547
v    16.608345 296.835165 1.888290
v    16.241188 296.587067 2.030326
v    15.387796 296.058479 2.350796
v    15.178131 295.965921 2.422030
v    14.681388 295.739509 2.415964
v    16.171206 297.380871 1.888290
v    15.848954 297.076716 2.030326
v    15.146848 296.359267 2.350796
v    15.010761 296.174859 2.422030
v    14.681388 295.739509 2.415964
v    25.819225 302.668393 3.173866
v    26.730192 302.900769 3.474002
v    27.093574 302.941244 3.587643
v    27.792069 303.027498 3.579824
v    26.094291 301.960436 3.173866
v    26.923182 302.404056 3.474002
v    27.218569 302.619537 3.587643
v    27.792069 303.027498 3.579824
v    11.367459 297.550609 5.094482
v    11.077833 297.518192 5.187522
v    10.830694 297.524958 5.264364
v    9.616413 297.543702 5.250871
v    11.184967 298.322067 5.094482
v    10.911512 298.221284 5.187522
v    10.693598 298.104506 5.264364
v    9.616413 297.543702 5.250871
v    27.520156 309.253856 7.334968
v    28.994094 310.270562 7.315074
v    28.180748 308.675366 7.334968
v    28.994094 310.270562 7.315074
v    8.101974 291.935059 11.102116
v    7.836895 291.850564 11.188590
v    6.585292 291.435092 11.173938
v    7.677074 292.600555 11.102116
v    7.488876 292.395645 11.188590
v    6.585292 291.435092 11.173938
v    37.491555 312.959407 16.637523
v    38.589134 313.393515 16.624409
v    37.829913 312.489793 16.637523
v    38.589134 313.393515 16.624409
v    -5.000819 283.487341 24.949926
v    -5.735634 283.239239 24.812542
v    -5.211598 283.810984 24.949926
v    -5.735634 283.239239 24.812542
v    50.380646 317.004898 35.198269
v    50.913761 317.145963 35.192142
v    50.511814 316.768406 35.198269
v    50.913761 317.145963 35.192142
v    -25.994801 287.708326 51.899918
v    -26.209292 287.708044 51.836124
v    -26.023009 287.814370 51.899918
v    -26.209292 287.708044 51.836124
mtllib usm_17_2.5D_2018-08-25_7.mtl
usemtl APPID_1926272784_2183767476960 
o vid_3 
f 3 2 1
f 4 5 6
f 1 6 5
f 1 5 3
f 3 5 4
f 4 2 3
f 2 4 6
f 6 1 2
usemtl APPID_1926272896_2183767476704 
o vid_4 
f 7 11 12
f 8 12 13
f 7 12 8
f 8 13 9
f 9 13 14
f 9 14 10
usemtl APPID_1926272784_2183767476960 
o vid_5 
f 17 16 15
f 18 19 20
f 15 20 19
f 15 19 17
f 17 19 18
f 18 16 17
f 16 18 20
f 20 15 16
usemtl APPID_1926272896_2183767476704 
o vid_6 
f 21 26 27
f 22 27 28
f 23 28 29
f 21 27 22
f 22 28 23
f 23 29 24
f 24 29 30
f 24 30 25
usemtl APPID_1926272784_2183767476960 
o vid_7 
f 33 32 31
f 34 35 36
f 31 36 35
f 31 35 33
f 33 35 34
f 34 32 33
f 32 34 36
f 36 31 32
usemtl APPID_1926272896_2183767476704 
o vid_8 
f 37 43 44
f 38 44 45
f 39 45 46
f 40 46 47
f 37 44 38
f 38 45 39
f 39 46 40
f 40 47 41
f 41 47 48
f 41 48 42
usemtl APPID_1926272784_2183767476960 
o vid_9 
f 51 50 49
f 52 53 54
f 49 54 53
f 49 53 51
f 51 53 52
f 52 50 51
f 50 52 54
f 54 49 50
usemtl APPID_1926272896_2183767476704 
o vid_10 
f 55 61 62
f 56 62 63
f 57 63 64
f 58 64 65
f 55 62 56
f 56 63 57
f 57 64 58
f 58 65 59
f 59 65 66
f 59 66 60
usemtl APPID_1926272784_2183767476960 
o vid_11 
f 69 68 67
f 70 71 72
f 67 72 71
f 67 71 69
f 69 71 70
f 70 68 69
f 68 70 72
f 72 67 68
usemtl APPID_1926272896_2183767476704 
o vid_12 
f 73 80 81
f 74 81 82
f 75 82 83
f 76 83 84
f 77 84 85
f 73 81 74
f 74 82 75
f 75 83 76
f 76 84 77
f 77 85 78
f 78 85 86
f 78 86 79
usemtl APPID_1926272784_2183767476960 
o vid_13 
f 89 88 87
f 90 91 92
f 87 92 91
f 87 91 89
f 89 91 90
f 90 88 89
f 88 90 92
f 92 87 88
usemtl APPID_1926272896_2183767476704 
o vid_14 
f 93 100 101
f 94 101 102
f 95 102 103
f 96 103 104
f 97 104 105
f 93 101 94
f 94 102 95
f 95 103 96
f 96 104 97
f 97 105 98
f 98 105 106
f 98 106 99
usemtl APPID_1926272784_2183767476960 
o vid_15 
f 109 108 107
f 110 111 112
f 107 112 111
f 107 111 109
f 109 111 110
f 110 108 109
f 108 110 112
f 112 107 108
usemtl APPID_1926272896_2183767476704 
o vid_16 
f 113 120 121
f 114 121 122
f 115 122 123
f 116 123 124
f 117 124 125
f 113 121 114
f 114 122 115
f 115 123 116
f 116 124 117
f 117 125 118
f 118 125 126
f 118 126 119
usemtl APPID_1926272784_2183767476960 
o vid_17 
f 129 128 127
f 130 131 132
f 127 132 131
f 127 131 129
f 129 131 130
f 130 128 129
f 128 130 132
f 132 127 128
usemtl APPID_1926272896_2183767476704 
o vid_18 
f 133 141 142
f 134 142 143
f 135 143 144
f 136 144 145
f 137 145 146
f 138 146 147
f 133 142 134
f 134 143 135
f 135 144 136
f 136 145 137
f 137 146 138
f 138 147 139
f 139 147 148
f 139 148 140
usemtl APPID_1926272784_2183767476960 
o vid_19 
f 151 150 149
f 152 153 154
f 149 154 153
f 149 153 151
f 151 153 152
f 152 150 151
f 150 152 154
f 154 149 150
usemtl APPID_1926272896_2183767476704 
o vid_20 
f 155 163 164
f 156 164 165
f 157 165 166
f 158 166 167
f 159 167 168
f 160 168 169
f 155 164 156
f 156 165 157
f 157 166 158
f 158 167 159
f 159 168 160
f 160 169 161
f 161 169 170
f 161 170 162
usemtl APPID_1926272784_2183767476960 
o vid_21 
f 173 172 171
f 174 175 176
f 171 176 175
f 171 175 173
f 173 175 174
f 174 172 173
f 172 174 176
f 176 171 172
usemtl APPID_1926272896_2183767476704 
o vid_22 
f 177 185 186
f 178 186 187
f 179 187 188
f 180 188 189
f 181 189 190
f 182 190 191
f 177 186 178
f 178 187 179
f 179 188 180
f 180 189 181
f 181 190 182
f 182 191 183
f 183 191 192
f 183 192 184
usemtl APPID_1926272784_2183767476960 
o vid_23 
f 195 194 193
f 196 197 198
f 193 198 197
f 193 197 195
f 195 197 196
f 196 194 195
f 194 196 198
f 198 193 194
usemtl APPID_1926272896_2183767476704 
o vid_24 
f 199 207 208
f 200 208 209
f 201 209 210
f 202 210 211
f 203 211 212
f 204 212 213
f 199 208 200
f 200 209 201
f 201 210 202
f 202 211 203
f 203 212 204
f 204 213 205
f 205 213 214
usemtl APPID_1926272784_2183767476960 
o vid_25 
f 217 216 215
f 218 219 220
f 215 220 219
f 215 219 217
f 217 219 218
f 218 216 217
f 216 218 220
f 220 215 216
usemtl APPID_1926272896_2183767476704 
o vid_26 
f 221 230 231
f 222 231 232
f 223 232 233
f 224 233 234
f 225 234 235
f 226 235 236
f 227 236 237
f 221 231 222
f 222 232 223
f 223 233 224
f 224 234 225
f 225 235 226
f 226 236 227
f 227 237 228
f 228 237 238
usemtl APPID_1926272784_2183767476960 
o vid_27 
f 241 240 239
f 242 243 244
f 239 244 243
f 239 243 241
f 241 243 242
f 242 240 241
f 240 242 244
f 244 239 240
usemtl APPID_1926272896_2183767476704 
o vid_28 
f 245 250 251
f 246 251 252
f 247 252 253
f 245 251 246
f 246 252 247
f 247 253 248
f 248 253 254
usemtl APPID_1926270544_2183767477216 
o vid_10000004 
f 255 261 262
f 256 262 263
f 257 263 264
f 258 264 265
f 255 262 256
f 256 263 257
f 257 264 258
f 258 265 259
f 259 265 266
usemtl APPID_1926270544_2183767477216 
o vid_10000006 
f 267 272 273
f 268 273 274
f 269 274 275
f 267 273 268
f 268 274 269
f 269 275 270
f 270 275 276
usemtl APPID_1926270544_2183767477216 
o vid_10000008 
f 277 281 282
f 278 282 283
f 277 282 278
f 278 283 279
f 279 283 284
usemtl APPID_1926270544_2183767477216 
o vid_10000010 
f 285 289 290
f 286 290 291
f 285 290 286
f 286 291 287
f 287 291 292
usemtl APPID_1926270544_2183767477216 
o vid_10000012 
f 293 295 296
f 293 296 294
f 293 295 296
usemtl APPID_1926270544_2183767477216 
o vid_10000014 
f 297 300 301
f 297 301 298
f 298 301 302
usemtl APPID_1926270544_2183767477216 
o vid_10000016 
f 303 305 306
f 303 306 304
f 303 305 306
usemtl APPID_1926270544_2183767477216 
o vid_10000018 
f 307 309 310
f 307 310 308
f 307 309 310
usemtl APPID_1926270544_2183767477216 
o vid_10000020 
f 311 313 314
f 311 314 312
f 311 313 314
usemtl APPID_1926270544_2183767477216 
o vid_10000022 
f 315 317 318
f 315 318 316
f 315 317 318
