# File generated by PlantGL - Fri Sep  4 14:43:31 2026
v    18.201987 99.124129 0.000000
v    21.657533 98.880811 0.000000
v    20.140480 101.995060 0.000000
v    21.798013 100.875871 0.331061
v    18.342467 101.119189 0.331061
v    19.859520 98.004940 0.331061
v    21.389650 101.448576 -0.071053
v    22.393980 101.830073 0.946918
v    23.907728 102.388286 2.009892
v    25.092505 102.810274 2.326451
v    26.187809 103.058142 2.603326
v    26.357326 103.096862 2.567383
v    21.997244 100.201291 -0.071053
v    22.916734 100.756949 0.946918
v    24.289390 101.604799 2.009892
v    25.351996 102.277584 2.326451
v    26.222343 102.987249 2.603326
v    26.357326 103.096862 2.567383
v    21.503548 101.204422 0.331061
v    18.205166 100.699900 0.331061
v    20.291286 98.095678 0.331061
v    18.496452 98.795578 0.718770
v    21.794834 99.300100 0.718770
v    19.708714 101.904322 0.718770
v    19.274489 98.081324 0.163258
v    17.850834 97.138178 1.781371
v    17.151575 96.661814 2.312715
v    16.181792 96.030566 3.038041
v    15.076303 95.291244 3.373619
v    13.658793 94.395944 3.795569
v    12.032609 93.617695 3.537425
v    17.969232 99.710749 0.163258
v    16.738098 98.527269 1.781371
v    16.120600 97.948839 2.312715
v    15.292906 97.140213 3.038041
v    14.330125 96.222741 3.373619
v    13.147025 95.034813 3.795569
v    12.032609 93.617695 3.537425
v    18.272844 99.328938 0.718770
v    21.444735 98.839770 0.718770
v    20.282421 101.831292 0.718770
v    21.727156 100.671062 1.487000
v    18.555265 101.160230 1.487000
v    19.717579 98.168708 1.487000
v    21.001970 101.939081 0.737723
v    23.215457 102.576303 2.920240
v    24.761191 103.043005 3.934230
v    25.807621 103.335117 4.615243
v    28.050172 103.991307 5.204829
v    30.033029 104.515676 5.721018
v    32.648293 104.914315 5.172998
v    22.048305 99.246061 0.737723
v    24.111370 100.270432 2.920240
v    25.566721 100.969759 3.934230
v    26.535871 101.460772 4.615243
v    28.633183 102.490775 5.204829
v    30.449924 103.442686 5.721018
v    32.648293 104.914315 5.172998
v    21.731622 100.409625 1.487000
v    18.779443 101.294816 1.487000
v    19.488935 98.295559 1.487000
v    18.268378 99.590375 2.857581
v    21.220557 98.705184 2.857581
v    20.511065 101.704441 2.857581
v    18.994300 97.761495 1.870858
v    15.991506 97.332198 4.745016
v    13.321583 96.915214 6.442032
v    12.475515 96.801224 6.977166
v    8.778117 96.256164 7.920207
v    6.753874 96.011600 8.433361
v    5.813360 95.897014 8.233511
v    2.607274 95.885650 7.570778
v    18.097951 101.550660 1.870858
v    15.221070 100.589086 4.745016
v    12.647298 99.765644 6.442032
v    11.839829 99.488480 6.977166
v    8.290097 98.319190 7.920207
v    6.370821 97.630891 8.433361
v    5.478650 97.311945 8.233511
v    2.607274 95.885650 7.570778
v    18.927352 98.775119 2.857581
v    21.597103 99.683500 2.857581
v    19.475546 101.541381 2.857581
v    21.072648 101.224881 4.464214
v    18.402897 100.316500 4.464214
v    20.524454 98.458619 4.464214
v    18.786827 102.738820 3.195533
v    19.974137 103.870740 4.749900
v    21.610027 105.429560 6.890987
v    24.877555 108.624730 9.760977
v    26.236762 109.980158 10.246015
v    30.200396 113.790165 11.633282
v    33.461688 116.791024 10.698131
v    36.809936 119.195651 9.846020
v    22.874942 99.158793 3.195533
v    23.840313 100.485068 4.749900
v    25.169666 102.312327 6.890987
v    27.905786 105.972860 9.760977
v    29.070031 107.499020 10.246015
v    32.323769 111.930695 11.633282
v    34.868099 115.559408 10.698131
v    36.809936 119.195651 9.846020
v    21.098179 100.701156 4.464214
v    18.843691 100.600473 4.464214
v    20.058129 98.698371 4.464214
v    18.901821 99.298844 10.752587
v    21.156309 99.399527 10.752587
v    19.941871 101.301629 10.752587
v    21.225876 96.514860 9.159961
v    17.557632 94.613579 13.074936
v    11.819468 91.557699 17.401822
v    7.277265 89.072310 18.710153
v    3.618619 87.156846 19.752201
v    0.509535 85.526048 19.009770
v    -3.842221 83.385248 17.986793
v    -6.063765 82.600689 17.499782
v    -8.444413 81.839054 16.072308
v    17.354326 102.578639 9.159961
v    14.085942 100.051081 13.074936
v    8.899118 96.131669 17.401822
v    4.733091 93.057101 18.710153
v    1.455879 90.544218 19.752201
v    -1.331835 88.410078 19.009770
v    -5.105129 85.363266 17.986793
v    -6.751692 83.678149 17.499782
v    -8.444413 81.839054 16.072308
v    19.188115 99.415035 10.752587
v    20.912537 99.589370 10.752587
v    19.899348 100.995595 10.752587
v    20.811885 100.584965 22.165711
v    19.087463 100.410630 22.165711
v    20.100652 99.004405 22.165711
v    17.653098 104.003240 20.213715
v    20.087664 105.764202 23.072367
v    22.578686 107.390225 25.899549
v    28.565928 111.072995 30.315323
v    38.244361 117.097883 33.196057
v    42.174216 119.547526 32.215422
v    45.903429 121.778883 31.296420
v    49.397406 123.869487 30.435387
v    53.222012 125.979835 27.873510
v    58.746421 128.092526 22.711570
v    59.072440 128.151785 22.161996
v    23.054470 96.506565 20.213715
v    25.495536 98.258506 23.072367
v    27.826472 100.106715 25.899549
v    33.215113 104.620296 30.315323
v    41.993873 111.893858 33.196057
v    45.561536 114.846195 32.215422
v    48.858625 117.677306 31.296420
v    51.947736 120.329832 30.435387
v    55.160236 123.289735 27.873510
v    58.913028 127.861289 22.711570
v    59.072440 128.151785 22.161996
v    20.604496 100.393688 22.165711
v    19.356808 100.326665 22.165711
v    20.038696 99.279647 22.165711
v    19.395504 99.606312 37.466588
v    20.643192 99.673335 37.466588
v    19.961304 100.720353 37.466588
v    22.943783 95.396109 35.130721
v    20.499554 93.959986 37.824998
v    18.645233 92.977516 39.813438
v    16.667041 91.929416 41.934708
v    14.242795 90.604688 43.669618
v    9.282668 87.895561 47.218871
v    -1.413510 81.916629 50.315222
v    -11.327612 76.602840 48.581512
v    -16.489841 74.005135 47.362547
v    -21.499825 72.188506 44.296860
v    -23.652591 71.570521 42.363630
v    16.979571 104.553973 35.130721
v    14.677766 102.899163 37.824998
v    13.029402 101.600451 39.813438
v    11.270926 100.214984 41.934708
v    9.079084 98.533408 43.669618
v    4.595684 95.092280 47.218871
v    -5.197657 87.727070 50.315222
v    -14.066424 80.808202 48.581512
v    -18.529636 77.137177 47.362547
v    -22.216911 73.289571 44.296860
v    -23.652591 71.570521 42.363630
v    19.593279 99.774417 37.466588
v    20.398721 99.760561 37.466588
v    20.008000 100.465022 37.466588
v    20.406721 100.225583 43.763000
v    19.601279 100.239439 43.763000
v    19.992000 99.534978 43.763000
v    18.153730 103.492054 38.221697
v    22.419881 104.757042 48.905114
v    27.283440 106.338979 56.491314
v    28.758340 106.509372 58.565154
v    33.798766 107.653327 62.514083
v    21.984777 96.584768 38.221697
v    25.316777 99.534007 48.905114
v    29.233973 102.822215 56.491314
v    30.159468 103.983173 58.565154
v    33.798766 107.653327 62.514083
mtllib usm_19_2.5D_2018-08-22_2.mtl
usemtl APPID_3534015040_1420965814400 
o vid_3 
f 3 2 1
f 4 5 6
f 1 6 5
f 1 5 3
f 3 5 4
f 4 2 3
f 2 4 6
f 6 1 2
usemtl APPID_3534017840_1420965814272 
o vid_4 
f 7 13 14
f 8 14 15
f 9 15 16
f 10 16 17
f 7 14 8
f 8 15 9
f 9 16 10
f 10 17 11
f 11 17 18
usemtl APPID_3534015040_1420965814400 
o vid_5 
f 21 20 19
f 22 23 24
f 19 24 23
f 19 23 21
f 21 23 22
f 22 20 21
f 20 22 24
f 24 19 20
usemtl APPID_3534017840_1420965814272 
o vid_6 
f 25 32 33
f 26 33 34
f 27 34 35
f 28 35 36
f 29 36 37
f 25 33 26
f 26 34 27
f 27 35 28
f 28 36 29
f 29 37 30
f 30 37 38
usemtl APPID_3534015040_1420965814400 
o vid_7 
f 41 40 39
f 42 43 44
f 39 44 43
f 39 43 41
f 41 43 42
f 42 40 41
f 40 42 44
f 44 39 40
usemtl APPID_3534017840_1420965814272 
o vid_8 
f 45 52 53
f 46 53 54
f 47 54 55
f 48 55 56
f 49 56 57
f 45 53 46
f 46 54 47
f 47 55 48
f 48 56 49
f 49 57 50
f 50 57 58
usemtl APPID_3534015040_1420965814400 
o vid_9 
f 61 60 59
f 62 63 64
f 59 64 63
f 59 63 61
f 61 63 62
f 62 60 61
f 60 62 64
f 64 59 60
usemtl APPID_3534017840_1420965814272 
o vid_10 
f 65 73 74
f 66 74 75
f 67 75 76
f 68 76 77
f 69 77 78
f 70 78 79
f 65 74 66
f 66 75 67
f 67 76 68
f 68 77 69
f 69 78 70
f 70 79 71
f 71 79 80
usemtl APPID_3534015040_1420965814400 
o vid_11 
f 83 82 81
f 84 85 86
f 81 86 85
f 81 85 83
f 83 85 84
f 84 82 83
f 82 84 86
f 86 81 82
usemtl APPID_3534017840_1420965814272 
o vid_12 
f 87 95 96
f 88 96 97
f 89 97 98
f 90 98 99
f 91 99 100
f 92 100 101
f 87 96 88
f 88 97 89
f 89 98 90
f 90 99 91
f 91 100 92
f 92 101 93
f 93 101 102
usemtl APPID_3534015040_1420965814400 
o vid_13 
f 105 104 103
f 106 107 108
f 103 108 107
f 103 107 105
f 105 107 106
f 106 104 105
f 104 106 108
f 108 103 104
usemtl APPID_3534017840_1420965814272 
o vid_14 
f 109 118 119
f 110 119 120
f 111 120 121
f 112 121 122
f 113 122 123
f 114 123 124
f 115 124 125
f 109 119 110
f 110 120 111
f 111 121 112
f 112 122 113
f 113 123 114
f 114 124 115
f 115 125 116
f 116 125 126
usemtl APPID_3534015040_1420965814400 
o vid_15 
f 129 128 127
f 130 131 132
f 127 132 131
f 127 131 129
f 129 131 130
f 130 128 129
f 128 130 132
f 132 127 128
usemtl APPID_3534017840_1420965814272 
o vid_16 
f 133 144 145
f 134 145 146
f 135 146 147
f 136 147 148
f 137 148 149
f 138 149 150
f 139 150 151
f 140 151 152
f 141 152 153
f 133 145 134
f 134 146 135
f 135 147 136
f 136 148 137
f 137 149 138
f 138 150 139
f 139 151 140
f 140 152 141
f 141 153 142
f 142 153 154
usemtl APPID_3534015040_1420965814400 
o vid_17 
f 157 156 155
f 158 159 160
f 155 160 159
f 155 159 157
f 157 159 158
f 158 156 157
f 156 158 160
f 160 155 156
usemtl APPID_3534017840_1420965814272 
o vid_18 
f 161 172 173
f 162 173 174
f 163 174 175
f 164 175 176
f 165 176 177
f 166 177 178
f 167 178 179
f 168 179 180
f 169 180 181
f 161 173 162
f 162 174 163
f 163 175 164
f 164 176 165
f 165 177 166
f 166 178 167
f 167 179 168
f 168 180 169
f 169 181 170
f 170 181 182
usemtl APPID_3534015040_1420965814400 
o vid_19 
f 185 184 183
f 186 187 188
f 183 188 187
f 183 187 185
f 185 187 186
f 186 184 185
f 184 186 188
f 188 183 184
usemtl APPID_3534017840_1420965814272 
o vid_20 
f 189 194 195
f 190 195 196
f 191 196 197
f 189 195 190
f 190 196 191
f 191 197 192
f 192 197 198
