# File generated by PlantGL - Fri Sep  4 14:41:22 2026
v    117.752484 18.905161 0.000000
v    122.071916 18.601013 0.000000
v    120.175600 22.493825 0.000000
v    122.247516 21.094839 0.848018
v    117.928084 21.398987 0.848018
v    119.824400 17.506175 0.848018
v    122.061621 21.449878 0.686083
v    122.363977 21.565153 0.986774
v    122.548082 21.631905 1.168461
v    123.228435 21.888097 1.657813
v    123.422219 21.963742 1.724492
v    122.412489 20.729608 0.686083
v    122.689638 20.896628 0.986774
v    122.855686 21.000448 1.168461
v    123.476801 21.378244 1.657813
v    123.655818 21.484202 1.724492
v    121.879284 21.505407 0.848018
v    117.756638 20.874804 0.848018
v    120.364078 17.619789 0.848018
v    118.120716 18.494593 1.416666
v    122.243362 19.125196 1.416666
v    119.635922 22.380211 1.416666
v    118.495907 18.052637 1.186837
v    118.010760 17.730377 1.728055
v    117.880621 17.646979 1.871458
v    117.018823 17.079621 2.565979
v    115.994038 16.387144 2.962419
v    115.871017 16.310945 3.008616
v    117.771304 18.957200 1.186837
v    117.350926 18.554085 1.728055
v    117.241133 18.445287 1.871458
v    116.499359 17.728098 2.565979
v    115.599908 16.879159 2.962419
v    115.498696 16.775735 3.008616
v    117.841416 19.161313 1.416666
v    121.805616 18.549955 1.416666
v    120.352968 22.288732 1.416666
v    122.158584 20.838687 2.254254
v    118.194384 21.450045 2.254254
v    119.647032 17.711268 2.254254
v    121.869293 21.519816 1.934528
v    122.859622 21.789757 2.886938
v    124.240114 22.182869 3.853120
v    124.956609 22.396253 4.092749
v    126.000650 22.662575 4.436729
v    122.405045 20.140917 1.934528
v    123.317841 20.610408 2.886938
v    124.601612 21.252459 3.853120
v    125.274222 21.578792 4.092749
v    126.224197 22.087217 4.436729
v    122.163962 20.511898 2.254254
v    118.474702 21.618097 2.254254
v    119.361335 17.870005 2.254254
v    117.836038 19.488102 4.114020
v    121.525298 18.381903 4.114020
v    120.638665 22.129995 4.114020
v    118.107452 18.476835 3.678044
v    117.600432 18.403713 4.154066
v    116.720820 18.291563 4.976743
v    114.782468 18.020145 6.294220
v    113.225221 17.782953 6.799126
v    111.323659 17.570118 7.409984
v    111.232339 17.572618 7.438378
v    117.625597 20.513793 3.678044
v    117.139553 20.352000 4.154066
v    116.302921 20.058163 4.976743
v    114.448402 19.432354 6.294220
v    112.949930 18.946699 6.799126
v    111.154549 18.285001 7.409984
v    111.074029 18.241851 7.438378
v    118.595695 18.396392 4.114020
v    122.090917 19.585640 4.114020
v    119.313387 22.017967 4.114020
v    121.404305 21.603608 6.002274
v    117.909083 20.414360 6.002274
v    120.686613 17.982033 6.002274
v    120.272278 22.539283 5.419557
v    121.330156 23.549803 6.779014
v    123.527143 25.624357 8.916287
v    125.764649 27.795857 9.915706
v    127.525682 29.374177 10.670664
v    128.261068 29.913927 10.660458
v    122.481159 20.604931 5.419557
v    123.343269 21.786888 6.779014
v    125.109816 24.238385 8.916287
v    126.967117 26.742837 9.915706
v    128.299288 28.696718 10.670664
v    128.737292 29.496889 10.660458
v    121.718982 21.097521 6.002274
v    118.190028 20.939922 6.002274
v    120.090990 17.962557 6.002274
v    118.281018 18.902479 11.513477
v    121.809972 19.060078 11.513477
v    119.909010 22.037443 11.513477
v    119.303724 17.402613 10.750057
v    118.688409 17.082919 11.394408
v    117.116520 16.298722 13.024157
v    114.068760 14.731103 15.331137
v    111.865365 13.564046 16.130350
v    108.844610 12.114512 17.199998
v    107.527841 11.694789 17.629553
v    107.390095 11.649064 17.627940
v    117.350784 20.461386 10.750057
v    116.801843 20.037735 11.394408
v    115.428991 18.941800 13.024157
v    112.724395 16.836703 15.331137
v    110.738486 15.329010 16.130350
v    108.152374 13.198719 17.199998
v    107.217512 12.180839 17.629553
v    107.118067 12.075125 17.627940
v    118.420020 18.861621 11.513477
v    121.775855 19.200887 11.513477
v    119.804125 21.937492 11.513477
v    121.579980 21.138379 19.661518
v    118.224145 20.799113 19.661518
v    120.195875 18.062508 19.661518
v    120.020250 23.182655 18.681171
v    122.723277 24.785706 21.601461
v    126.513642 27.021161 24.563974
v    132.263323 30.492917 26.716848
v    134.454472 31.700011 27.515488
v    136.104969 32.621654 27.493967
v    138.615998 33.614800 27.463965
v    123.025401 19.011744 18.681171
v    125.401657 21.068327 21.601461
v    128.721991 23.956148 24.563974
v    133.835270 28.311180 26.716848
v    135.673895 30.007548 27.515488
v    137.070606 31.281426 27.493967
v    138.807544 33.348949 27.463965
v    121.554633 21.012481 19.661518
v    118.345849 20.840111 19.661518
v    120.099518 18.147408 19.661518
v    118.445367 18.987519 30.885372
v    121.654151 19.159889 30.885372
v    119.900482 21.852592 30.885372
v    120.262851 16.359306 29.651395
v    116.769305 14.503911 33.327206
v    111.866987 11.924212 37.056163
v    104.961879 8.186534 39.572925
v    101.592472 6.532071 40.771276
v    100.030922 5.754152 40.751415
v    96.451131 4.529808 40.709379
v    116.776486 21.712513 29.651395
v    113.666923 19.267523 33.327206
v    109.325274 15.826934 37.056163
v    103.114708 11.022810 39.572925
v    100.239114 8.610111 40.771276
v    98.896215 7.496460 40.751415
v    96.328942 4.717426 40.709379
v    118.664430 19.259242 30.885372
v    121.309301 19.213742 30.885372
v    120.026269 21.527017 30.885372
v    121.335570 20.740758 48.446724
v    118.690699 20.786258 48.446724
v    119.973731 18.472983 48.446724
v    119.211323 24.345174 46.924267
v    123.672863 26.323375 51.459409
v    126.599161 27.657479 53.626921
v    129.909697 29.109079 56.060123
v    141.951701 34.562934 60.297402
v    148.387714 37.211655 60.576873
v    152.414189 38.277080 60.530597
v    153.213162 38.485141 60.384347
v    123.268479 17.030219 46.924267
v    127.308965 19.767570 51.459409
v    129.990157 21.543596 53.626921
v    132.974472 23.583362 56.060123
v    143.977202 30.911005 60.297402
v    149.631968 34.968296 60.576873
v    152.667769 37.819882 60.530597
v    153.267320 38.387496 60.384347
v    121.146490 20.304973 48.446724
v    119.162640 20.840403 48.446724
v    119.690870 18.854624 48.446724
v    118.853510 19.695027 69.871530
v    120.837360 19.159597 69.871530
v    120.309130 21.145376 69.871530
v    120.307060 14.745333 68.030362
v    114.490970 13.741385 73.514892
v    109.424797 12.812485 76.986231
v    106.359319 12.296305 79.078720
v    89.341584 9.219753 84.621892
v    80.801026 7.967722 84.523613
v    77.329820 7.925147 84.485043
v    74.578919 7.902201 83.997733
v    117.655669 24.712740 68.030362
v    112.109454 22.694245 73.514892
v    107.251331 20.983221 76.986231
v    104.334540 19.908081 79.078720
v    88.037379 14.122665 84.621892
v    80.003519 10.965799 84.523613
v    76.969937 9.278061 84.485043
v    74.571212 7.931174 83.997733
v    119.192546 19.664818 69.871530
v    120.694003 19.468316 69.871530
v    120.113450 20.866866 69.871530
v    120.807454 20.335182 89.783161
v    119.305997 20.531684 89.783161
v    119.886550 19.133134 89.783161
v    118.429539 25.654519 87.600670
v    125.104139 27.751511 94.101946
v    127.417877 28.504975 95.741923
v    134.450091 30.682595 100.697220
v    150.102716 35.736837 105.969480
v    154.019956 36.832111 107.268009
v    159.582062 38.421783 107.202151
v    167.001604 39.510854 107.118831
v    122.895681 14.895593 87.600670
v    129.093172 18.141940 94.101946
v    131.260320 19.248539 95.741923
v    137.767395 22.691218 100.697220
v    152.397874 30.207806 105.969480
v    155.939199 32.208660 107.268009
v    160.991965 35.025331 107.202151
v    167.001604 39.510854 107.118831
v    120.456324 20.375474 89.783161
v    119.446669 20.207451 89.783161
v    120.097008 19.417075 89.783161
v    119.543676 19.624526 107.035000
v    120.553331 19.792549 107.035000
v    119.902992 20.582925 107.035000
v    123.575245 14.920273 101.957439
v    120.421707 12.806882 106.217392
v    117.400903 10.860539 110.242092
v    108.572987 4.968262 118.941251
v    100.054593 -0.915383 123.372540
v    90.967988 -6.654898 127.952963
v    83.236034 -10.250247 129.310058
v    115.703874 24.486570 101.957439
v    113.022738 21.799055 106.217392
v    110.531085 19.209620 110.242092
v    103.049034 11.681676 118.941251
v    95.635060 4.455798 123.372540
v    88.253094 -3.355411 127.952963
v    83.236034 -10.250247 129.310058
v    123.422219 21.963742 1.724492
v    123.935039 22.163927 1.900948
v    124.606829 22.395893 2.127840
v    125.149057 22.508274 2.139823
v    123.655818 21.484202 1.724492
v    124.129562 21.764605 1.900948
v    124.726323 22.150591 2.127840
v    125.149057 22.508274 2.139823
v    115.871017 16.310945 3.008616
v    115.207136 15.899740 3.257921
v    115.133280 15.853405 3.256928
v    114.414709 15.525884 3.248154
v    115.498696 16.775735 3.008616
v    114.952506 16.217609 3.257921
v    114.891168 16.155647 3.256928
v    114.414709 15.525884 3.248154
v    126.000650 22.662575 4.436729
v    126.316301 22.743093 4.540726
v    127.195609 22.841034 4.815714
v    127.366453 22.862131 4.813802
v    126.224197 22.087217 4.436729
v    126.511409 22.240932 4.540726
v    127.226181 22.762348 4.815714
v    127.366453 22.862131 4.813802
v    111.232339 17.572618 7.438378
v    110.690643 17.587449 7.606806
v    109.855822 17.600336 7.597530
v    111.074029 18.241851 7.438378
v    110.596390 17.985890 7.606806
v    109.855822 17.600336 7.597530
v    128.261068 29.913927 10.660458
v    129.323639 30.646877 10.646115
v    128.737292 29.496889 10.660458
v    129.323639 30.646877 10.646115
v    107.390095 11.649064 17.627940
v    106.411783 11.324311 17.616487
v    107.118067 12.075125 17.627940
v    106.411783 11.324311 17.616487
v    138.615998 33.614800 27.463965
v    139.237342 33.860550 27.456541
v    138.807544 33.348949 27.463965
v    139.237342 33.860550 27.456541
v    96.451131 4.529808 40.709379
v    96.019126 4.382055 40.704306
v    96.328942 4.717426 40.709379
v    96.019126 4.382055 40.704306
v    153.213162 38.485141 60.384347
v    153.430143 38.541646 60.344629
v    153.267320 38.387496 60.384347
v    153.430143 38.541646 60.344629
v    74.578919 7.902201 83.997733
v    74.518717 7.901699 83.987069
v    74.571212 7.931174 83.997733
v    74.518717 7.901699 83.987069
mtllib usm_7_Beer_2018-08-05_1.mtl
usemtl APPID_3511023520_2305607862752 
o vid_3 
f 3 2 1
f 4 5 6
f 1 6 5
f 1 5 3
f 3 5 4
f 4 2 3
f 2 4 6
f 6 1 2
usemtl APPID_3511019936_2305607854944 
o vid_4 
f 7 12 13
f 8 13 14
f 9 14 15
f 7 13 8
f 8 14 9
f 9 15 10
f 10 15 16
f 10 16 11
usemtl APPID_3511023520_2305607862752 
o vid_5 
f 19 18 17
f 20 21 22
f 17 22 21
f 17 21 19
f 19 21 20
f 20 18 19
f 18 20 22
f 22 17 18
usemtl APPID_3511019936_2305607854944 
o vid_6 
f 23 29 30
f 24 30 31
f 25 31 32
f 26 32 33
f 23 30 24
f 24 31 25
f 25 32 26
f 26 33 27
f 27 33 34
f 27 34 28
usemtl APPID_3511023520_2305607862752 
o vid_7 
f 37 36 35
f 38 39 40
f 35 40 39
f 35 39 37
f 37 39 38
f 38 36 37
f 36 38 40
f 40 35 36
usemtl APPID_3511019936_2305607854944 
o vid_8 
f 41 46 47
f 42 47 48
f 43 48 49
f 41 47 42
f 42 48 43
f 43 49 44
f 44 49 50
f 44 50 45
usemtl APPID_3511023520_2305607862752 
o vid_9 
f 53 52 51
f 54 55 56
f 51 56 55
f 51 55 53
f 53 55 54
f 54 52 53
f 52 54 56
f 56 51 52
usemtl APPID_3511019936_2305607854944 
o vid_10 
f 57 64 65
f 58 65 66
f 59 66 67
f 60 67 68
f 61 68 69
f 57 65 58
f 58 66 59
f 59 67 60
f 60 68 61
f 61 69 62
f 62 69 70
f 62 70 63
usemtl APPID_3511023520_2305607862752 
o vid_11 
f 73 72 71
f 74 75 76
f 71 76 75
f 71 75 73
f 73 75 74
f 74 72 73
f 72 74 76
f 76 71 72
usemtl APPID_3511019936_2305607854944 
o vid_12 
f 77 83 84
f 78 84 85
f 79 85 86
f 80 86 87
f 77 84 78
f 78 85 79
f 79 86 80
f 80 87 81
f 81 87 88
f 81 88 82
usemtl APPID_3511023520_2305607862752 
o vid_13 
f 91 90 89
f 92 93 94
f 89 94 93
f 89 93 91
f 91 93 92
f 92 90 91
f 90 92 94
f 94 89 90
usemtl APPID_3511019936_2305607854944 
o vid_14 
f 95 103 104
f 96 104 105
f 97 105 106
f 98 106 107
f 99 107 108
f 100 108 109
f 95 104 96
f 96 105 97
f 97 106 98
f 98 107 99
f 99 108 100
f 100 109 101
f 101 109 110
f 101 110 102
usemtl APPID_3511023520_2305607862752 
o vid_15 
f 113 112 111
f 114 115 116
f 111 116 115
f 111 115 113
f 113 115 114
f 114 112 113
f 112 114 116
f 116 111 112
usemtl APPID_3511019936_2305607854944 
o vid_16 
f 117 124 125
f 118 125 126
f 119 126 127
f 120 127 128
f 121 128 129
f 117 125 118
f 118 126 119
f 119 127 120
f 120 128 121
f 121 129 122
f 122 129 130
f 122 130 123
usemtl APPID_3511023520_2305607862752 
o vid_17 
f 133 132 131
f 134 135 136
f 131 136 135
f 131 135 133
f 133 135 134
f 134 132 133
f 132 134 136
f 136 131 132
usemtl APPID_3511019936_2305607854944 
o vid_18 
f 137 144 145
f 138 145 146
f 139 146 147
f 140 147 148
f 141 148 149
f 137 145 138
f 138 146 139
f 139 147 140
f 140 148 141
f 141 149 142
f 142 149 150
f 142 150 143
usemtl APPID_3511023520_2305607862752 
o vid_19 
f 153 152 151
f 154 155 156
f 151 156 155
f 151 155 153
f 153 155 154
f 154 152 153
f 152 154 156
f 156 151 152
usemtl APPID_3511019936_2305607854944 
o vid_20 
f 157 165 166
f 158 166 167
f 159 167 168
f 160 168 169
f 161 169 170
f 162 170 171
f 157 166 158
f 158 167 159
f 159 168 160
f 160 169 161
f 161 170 162
f 162 171 163
f 163 171 172
f 163 172 164
usemtl APPID_3511023520_2305607862752 
o vid_21 
f 175 174 173
f 176 177 178
f 173 178 177
f 173 177 175
f 175 177 176
f 176 174 175
f 174 176 178
f 178 173 174
usemtl APPID_3511019936_2305607854944 
o vid_22 
f 179 187 188
f 180 188 189
f 181 189 190
f 182 190 191
f 183 191 192
f 184 192 193
f 179 188 180
f 180 189 181
f 181 190 182
f 182 191 183
f 183 192 184
f 184 193 185
f 185 193 194
f 185 194 186
usemtl APPID_3511023520_2305607862752 
o vid_23 
f 197 196 195
f 198 199 200
f 195 200 199
f 195 199 197
f 197 199 198
f 198 196 197
f 196 198 200
f 200 195 196
usemtl APPID_3511019936_2305607854944 
o vid_24 
f 201 209 210
f 202 210 211
f 203 211 212
f 204 212 213
f 205 213 214
f 206 214 215
f 201 210 202
f 202 211 203
f 203 212 204
f 204 213 205
f 205 214 206
f 206 215 207
f 207 215 216
usemtl APPID_3511023520_2305607862752 
o vid_25 
f 219 218 217
f 220 221 222
f 217 222 221
f 217 221 219
f 219 221 220
f 220 218 219
f 218 220 222
f 222 217 218
usemtl APPID_3511019936_2305607854944 
o vid_26 
f 223 230 231
f 224 231 232
f 225 232 233
f 226 233 234
f 227 234 235
f 223 231 224
f 224 232 225
f 225 233 226
f 226 234 227
f 227 235 228
f 228 235 236
usemtl APPID_3511017136_2305607857504 
o vid_10000004 
f 237 241 242
f 238 242 243
f 237 242 238
f 238 243 239
f 239 243 244
usemtl APPID_3511017136_2305607857504 
o vid_10000006 
f 245 249 250
f 246 250 251
f 245 250 246
f 246 251 247
f 247 251 252
usemtl APPID_3511017136_2305607857504 
o vid_10000008 
f 253 257 258
f 254 258 259
f 253 258 254
f 254 259 255
f 255 259 260
usemtl APPID_3511017136_2305607857504 
o vid_10000010 
f 261 264 265
f 261 265 262
f 262 265 266
usemtl APPID_3511017136_2305607857504 
o vid_10000012 
f 267 269 270
f 267 270 268
f 267 269 270
usemtl APPID_3511017136_2305607857504 
o vid_10000014 
f 271 273 274
f 271 274 272
f 271 273 274
usemtl APPID_3511017136_2305607857504 
o vid_10000016 
f 275 277 278
f 275 278 276
f 275 277 278
usemtl APPID_3511017136_2305607857504 
o vid_10000018 
f 279 281 282
f 279 282 280
f 279 281 282
usemtl APPID_3511017136_2305607857504 
o vid_10000020 
f 283 285 286
f 283 286 284
f 283 285 286
usemtl APPID_3511017136_2305607857504 
o vid_10000022 
f 287 289 290
f 287 290 288
f 287 289 290
