# File generated by PlantGL - Fri Sep  4 14:43:39 2026
v    17.752484 178.905161 0.000000
v    22.071916 178.601013 0.000000
v    20.175600 182.493825 0.000000
v    22.247516 181.094839 0.362700
v    17.928084 181.398987 0.362700
v    19.824400 177.506175 0.362700
v    22.064918 181.443499 0.203133
v    22.333887 181.546046 0.470622
v    22.409498 180.736136 0.203133
v    22.656044 180.884713 0.470622
v    21.879284 181.505407 0.362700
v    17.756638 180.874804 0.362700
v    20.364078 177.619789 0.362700
v    18.120716 178.494593 0.589630
v    22.243362 179.125196 0.589630
v    19.635922 182.380211 0.589630
v    18.479378 178.072790 0.363993
v    18.155513 177.857662 0.725289
v    17.787363 178.936671 0.363993
v    17.506736 178.667568 0.725289
v    17.841416 179.161313 0.589630
v    21.805616 178.549955 0.589630
v    20.352968 182.288732 0.589630
v    22.158584 180.838687 1.053978
v    18.194384 181.450045 1.053978
v    19.647032 177.711268 1.053978
v    21.861454 181.541365 0.741169
v    22.340561 181.679929 1.204625
v    22.355178 181.683897 1.218676
v    22.413811 180.119728 0.741169
v    22.860790 180.340983 1.204625
v    22.874251 180.347923 1.218676
v    22.163962 180.511898 1.053978
v    18.474702 181.618097 1.053978
v    19.361335 177.870005 1.053978
v    17.836038 179.488102 1.829186
v    21.525298 178.381903 1.829186
v    20.638665 182.129995 1.829186
v    18.107732 178.472273 1.404027
v    17.340100 178.361566 2.124730
v    17.623804 180.517997 1.404027
v    16.887929 180.273041 2.124730
v    18.595695 178.396392 1.829186
v    22.090917 179.585640 1.829186
v    19.313387 182.017967 1.829186
v    21.404305 181.603608 2.769464
v    17.909083 180.414360 2.769464
v    20.686613 177.982033 2.769464
v    20.311188 182.506755 2.202932
v    21.070783 183.232345 3.179072
v    22.443782 180.639209 2.202932
v    23.062808 181.487898 3.179072
v    21.718982 181.097521 2.769464
v    18.190028 180.939922 2.769464
v    20.090990 177.962557 2.769464
v    18.281018 178.902479 5.235228
v    21.809972 179.060078 5.235228
v    19.909010 182.037443 5.235228
v    19.280808 177.435393 4.495113
v    18.530311 177.045463 5.281026
v    18.094274 176.827930 5.733113
v    17.370877 180.426804 4.495113
v    16.701335 179.910079 5.281026
v    16.320511 179.606070 5.733113
v    18.420020 178.861621 5.235228
v    21.775855 179.200887 5.235228
v    19.804125 181.937492 5.235228
v    21.579980 181.138379 9.070287
v    18.224145 180.799113 9.070287
v    20.195875 178.062508 9.070287
v    20.074833 183.110882 8.122357
v    20.848064 183.569453 8.957738
v    22.974597 179.086240 8.122357
v    23.654352 179.674548 8.957738
v    21.554633 181.012481 9.070287
v    18.345849 180.840111 9.070287
v    20.099518 178.147408 9.070287
v    18.445367 178.987519 15.537192
v    21.654151 179.159889 15.537192
v    19.900482 181.852592 15.537192
v    20.307271 176.285349 14.346896
v    20.168588 176.211695 14.492814
v    16.726805 181.783044 14.346896
v    16.603365 181.685986 14.492814
v    18.458123 179.144816 15.537192
v    21.511550 179.092287 15.537192
v    20.030327 181.762897 15.537192
v    21.541877 180.855184 23.570456
v    18.488450 180.907713 23.570456
v    19.969673 178.237103 23.570456
v    19.553001 184.223993 22.105125
v    19.790276 184.329198 22.346315
v    23.346595 177.384234 22.105125
v    23.561477 177.529813 22.346315
v    21.614895 180.429572 23.570456
v    18.820532 181.183754 23.570456
v    19.564573 178.386674 23.570456
v    18.385105 179.570428 38.883082
v    21.179468 178.816246 38.883082
v    20.435427 181.613326 38.883082
v    19.820667 174.668062 37.114529
v    18.136707 174.377384 38.702490
v    17.195168 184.538131 37.114529
v    15.589347 183.953707 38.702490
v    18.541706 179.394647 38.883082
v    21.253398 179.039757 38.883082
v    20.204896 181.565597 38.883082
v    21.458294 180.605353 56.198358
v    18.746602 180.960243 56.198358
v    19.795104 178.434403 56.198358
v    19.179160 185.703563 54.105680
v    19.551097 185.820416 54.467958
v    23.459663 175.391840 54.105680
v    23.805013 175.572740 54.467958
v    21.148136 180.944713 56.198358
v    18.607786 180.521958 56.198358
v    20.244078 178.533328 56.198358
v    18.851864 179.055287 79.449853
v    21.392214 179.478042 79.449853
v    19.755922 181.466672 79.449853
v    23.200223 174.045155 77.022189
v    16.774880 169.654536 84.253795
v    15.053803 168.452009 85.668827
v    14.772916 184.287096 77.022189
v    9.227097 178.827565 84.253795
v    7.715637 177.370285 85.668827
v    19.036323 178.991726 79.449853
v    21.355030 179.669568 79.449853
v    19.608648 181.338706 79.449853
v    20.963677 181.008274 104.131996
v    18.644970 180.330432 104.131996
v    20.391352 178.661294 104.131996
v    15.524041 185.932863 101.370931
v    22.184332 191.762095 109.595682
v    24.160368 193.528220 111.381868
v    29.608861 198.257442 116.238228
v    26.129147 175.796831 101.370931
v    31.651320 182.713842 109.595682
v    33.326306 184.767701 111.381868
v    37.804376 190.424423 116.238228
v    20.912312 180.929805 104.131996
v    18.738610 180.325183 104.131996
v    20.349079 178.745013 104.131996
v    19.087688 179.070195 126.161183
v    21.261390 179.674817 126.161183
v    19.650921 181.254987 126.161183
v    24.850707 173.725532 123.082488
v    18.108365 167.978895 131.314774
v    6.771904 158.413082 141.556916
v    6.307392 158.010772 141.753887
v    13.634545 184.730675 123.082488
v    8.016987 177.880416 131.314774
v    -1.331814 166.364338 141.556916
v    -1.725230 165.892269 141.753887
v    19.188946 179.101354 126.161183
v    21.183778 179.746930 126.161183
v    19.627277 181.151717 126.161183
v    20.811054 180.898646 141.184900
v    18.816222 180.253070 141.184900
v    20.372723 178.848283 141.184900
v    14.806974 185.991731 137.819332
v    15.977961 187.077231 139.303086
v    22.831763 193.224603 147.844794
v    31.922887 201.582806 156.157459
v    26.491069 175.446498 137.819332
v    27.451215 176.722288 139.303086
v    32.865965 184.168446 147.844794
v    40.251326 194.066149 156.157459
v    21.097812 180.213714 141.184900
v    19.266012 180.843876 141.184900
v    19.636176 178.942409 141.184900
v    18.902188 179.786286 154.329877
v    20.733988 179.156124 154.329877
v    20.363824 181.057591 154.329877
v    20.823937 171.271016 150.722829
v    15.862961 170.757148 155.357482
v    9.301871 170.186224 161.467619
v    -6.812085 168.584042 172.367762
v    -13.467812 167.841291 174.514387
v    17.489268 188.400611 150.722829
v    12.697813 187.015944 155.357482
v    6.401693 185.083917 161.467619
v    -9.136526 180.524276 172.367762
v    -15.584829 178.716026 174.514387
v    19.208315 179.346885 154.329877
v    20.961457 179.640938 154.329877
v    19.830228 181.012177 154.329877
v    20.791685 180.653115 161.616082
v    19.038543 180.359062 161.616082
v    20.169772 178.987823 161.616082
v    15.192932 187.011781 157.826012
v    25.343036 193.724525 169.115996
v    39.418617 203.284371 180.569216
v    41.139184 204.483450 181.241429
v    25.970276 173.947828 157.826012
v    34.489887 182.637004 169.115996
v    46.550817 194.638946 180.569216
v    48.055066 196.100237 181.241429
v    20.747035 180.560971 161.616082
v    19.140667 180.366465 161.616082
v    20.112298 179.072563 161.616082
v    19.252965 179.439029 167.314169
v    20.859333 179.633535 167.314169
v    19.887702 180.927437 167.314169
v    24.813652 172.501183 163.409857
v    14.052706 166.070832 175.040147
v    -0.881764 156.895296 186.838594
v    -6.953070 153.063778 189.139774
v    -7.311142 152.857201 189.271747
v    14.140961 186.713804 163.409857
v    4.964920 178.172864 175.040147
v    -8.011227 166.389466 186.838594
v    -13.383784 161.627439 189.139774
v    -13.682017 161.341176 189.271747
v    19.310251 179.516898 167.314169
v    20.763253 179.644211 167.314169
v    19.926496 180.838891 167.314169
v    20.689749 180.483102 170.622380
v    19.236747 180.355789 170.622380
v    20.073504 179.161109 170.622380
v    15.540327 187.341288 166.679228
v    26.617295 193.472386 178.425218
v    41.998750 202.234966 190.341038
v    43.956468 203.381668 191.068272
v    46.991842 205.001375 192.166636
v    25.375012 173.299818 166.679228
v    34.922728 181.614306 178.425218
v    48.414625 193.074702 190.341038
v    50.161372 194.522617 191.068272
v    52.720955 196.821634 192.166636
v    20.610549 180.435580 170.622380
v    19.317502 180.310961 170.622380
v    20.071949 179.253459 170.622380
v    19.389451 179.564420 172.799000
v    20.682498 179.689039 172.799000
v    19.928051 180.746541 172.799000
v    24.532247 172.838874 168.894688
v    13.617509 166.673172 180.524978
v    -1.536533 157.865001 192.323425
v    -8.272717 154.107584 194.788711
v    14.703430 186.615840 168.894688
v    5.321595 178.301482 180.524978
v    -7.938380 166.838414 192.323425
v    -13.683282 161.691526 194.788711
v    22.333887 181.546046 0.470622
v    22.544371 181.622644 0.678455
v    23.214771 181.875088 1.160650
v    23.893069 182.139868 1.394045
v    24.555032 182.368441 1.617618
v    25.088459 182.478755 1.635840
v    22.656044 180.884713 0.470622
v    22.846105 181.003234 0.678455
v    23.458135 181.375504 1.160650
v    24.084747 181.746387 1.394045
v    24.672779 182.126728 1.617618
v    25.088459 182.478755 1.635840
v    18.155513 177.857662 0.725289
v    17.873517 177.676775 1.036127
v    17.027439 177.119766 1.717980
v    16.209131 176.566812 2.034543
v    15.367256 176.045357 2.350689
v    14.667490 175.728375 2.390431
v    17.506736 178.667568 0.725289
v    17.268661 178.431851 1.036127
v    16.540416 177.727743 1.717980
v    15.822190 177.049852 2.034543
v    15.129560 176.342086 2.350689
v    14.667490 175.728375 2.390431
v    22.355178 181.683897 1.218676
v    22.827741 181.812201 1.672975
v    24.178367 182.196807 2.618253
v    25.425144 182.568118 3.035233
v    26.755420 182.907455 3.473518
v    27.032027 182.938264 3.560023
v    27.809501 183.034271 3.551319
v    22.874251 180.347923 1.218676
v    23.309476 180.572328 1.672975
v    24.565473 181.200488 2.618253
v    25.735885 181.768342 3.035233
v    26.946306 182.416157 3.473518
v    27.171155 182.580181 3.560023
v    27.809501 183.034271 3.551319
v    17.340100 178.361566 2.124730
v    16.756808 178.286094 2.670503
v    14.866551 178.021411 3.955291
v    12.907240 177.722978 4.590558
v    11.052860 177.515424 5.186259
v    9.599664 177.539740 5.220913
v    16.887929 180.273041 2.124730
v    16.332644 180.079176 2.670503
v    14.524140 179.468895 3.955291
v    12.638780 178.857849 4.590558
v    10.887946 178.212569 5.186259
v    9.599664 177.539740 5.220913
v    21.070783 183.232345 3.179072
v    21.630692 183.755699 3.890535
v    23.477032 185.504925 5.602538
v    25.548192 187.514986 6.527655
v    27.368875 189.146767 7.308185
v    29.003525 190.281332 7.286061
v    23.062808 181.487898 3.179072
v    23.507712 182.111963 3.890535
v    24.998040 184.172954 5.602538
v    26.717260 186.491214 6.527655
v    28.094555 188.511277 7.308185
v    29.003525 190.281332 7.286061
v    18.094274 176.827930 5.733113
v    17.161914 176.362786 6.699792
v    14.207192 174.843022 8.936347
v    11.871570 173.605929 9.783522
v    8.943028 172.200644 10.820517
v    7.888267 171.864437 11.164600
v    6.574916 171.428467 11.149224
v    16.320511 179.606070 5.733113
v    15.506209 178.956020 6.699792
v    12.884176 176.915185 8.936347
v    10.779091 175.317014 9.783522
v    8.271925 173.251754 10.820517
v    7.523079 172.436410 11.164600
v    6.574916 171.428467 11.149224
v    20.848064 183.569453 8.957738
v    22.688479 184.660925 10.946082
v    26.354066 186.821685 13.810633
v    31.849187 190.139733 15.868191
v    34.034074 191.343378 16.664549
v    35.560735 192.195870 16.644643
v    38.589529 193.393800 16.608454
v    23.654352 179.674548 8.957738
v    25.272277 181.074818 10.946082
v    28.482259 183.867922 13.810633
v    33.369154 188.030140 15.868191
v    35.202525 189.721661 16.664549
v    36.494441 190.899959 16.644643
v    38.589529 193.393800 16.608454
v    20.168588 176.211695 14.492814
v    16.937391 174.495631 17.892589
v    14.611534 173.229179 19.677451
v    12.228792 171.976255 21.489547
v    3.004249 166.983087 24.851694
v    -1.874806 164.556932 25.019014
v    -4.798675 163.556923 24.984681
v    -5.731392 163.242001 24.810297
v    16.603365 181.685986 14.492814
v    13.727316 179.424603 17.892589
v    11.628556 177.809450 19.677451
v    9.519168 176.136799 21.489547
v    1.222464 169.718963 24.851694
v    -2.969347 166.237565 25.019014
v    -5.066221 163.967731 24.984681
v    -5.731392 163.242001 24.810297
v    19.790276 184.329198 22.346315
v    23.847136 186.127968 26.470100
v    25.334474 186.806047 27.571772
v    29.860283 188.790520 30.898186
v    39.921050 193.347067 34.438318
v    42.450540 194.373763 35.309833
v    46.041861 195.855520 35.265604
v    50.909228 197.143449 35.209663
v    23.561477 177.529813 22.346315
v    27.235474 180.018875 26.470100
v    28.598232 180.921568 27.571772
v    32.678069 183.710119 30.898186
v    41.870550 189.832165 34.438318
v    44.080856 191.434342 35.309833
v    47.239428 193.696336 35.265604
v    50.909228 197.143449 35.209663
v    18.136707 174.377384 38.702490
v    14.233958 173.703709 42.382753
v    7.451765 172.460171 47.029908
v    -9.916255 169.332959 53.051702
v    -12.369589 168.879609 53.023195
v    -20.431547 167.703154 52.930440
v    -25.582532 167.656590 52.170219
v    -26.406801 167.655505 51.925063
v    15.589347 183.953707 38.702490
v    11.867691 182.599244 42.382753
v    5.364019 180.308660 47.029908
v    -11.262302 174.393168 53.051702
v    -13.616637 173.567648 53.023195
v    -21.197601 170.582990 52.930440
v    -25.690934 168.064106 52.170219
v    -26.406801 167.655505 51.925063
v    19.551097 185.820416 54.467958
v    25.579091 187.714260 60.339419
v    27.768403 188.427205 61.891202
v    34.540616 190.524312 66.663288
v    49.515510 195.359715 71.707269
v    53.305694 196.419463 72.963680
v    58.603130 197.933492 72.900956
v    65.717348 198.977746 72.821065
v    23.805013 175.572740 54.467958
v    29.402118 178.504596 60.339419
v    31.452723 179.551684 61.891202
v    37.719213 182.867078 66.663288
v    51.716219 190.058211 71.707269
v    55.142681 191.994167 72.963680
v    59.955013 194.676809 72.900956
v    65.717348 198.977746 72.821065
v    15.053803 168.452009 85.668827
v    12.961468 166.990082 87.389100
v    7.794292 163.490281 91.589960
v    -9.065631 151.772416 98.171166
v    -10.987594 150.546780 98.898889
v    -18.372501 145.777557 98.798806
v    -24.913717 142.691824 98.718448
v    -25.903177 142.229797 98.525009
v    7.715637 177.370285 85.668827
v    5.878137 175.598652 87.389100
v    1.448758 171.202185 91.589960
v    -13.296629 156.914465 98.171166
v    -14.869452 155.264510 98.898889
v    -20.971578 148.936288 98.798806
v    -25.259249 143.111759 98.718448
v    -25.903177 142.229797 98.525009
v    29.608861 198.257442 116.238228
v    31.517401 199.914030 117.939352
v    46.699170 213.415330 124.451552
v    51.058942 216.993034 126.252046
v    56.290538 221.336677 126.174632
v    64.327015 226.378378 126.069225
v    37.804376 190.424423 116.238228
v    39.372988 192.405903 117.939352
v    52.174144 208.182519 124.451552
v    55.551093 212.699576 126.252046
v    59.653784 218.122191 126.174632
v    64.327015 226.378378 126.069225
v    6.307392 158.010772 141.753887
v    -6.791494 146.665947 147.308330
v    -15.399964 139.788628 150.825890
v    -17.435531 138.143175 150.796091
v    -26.469473 132.639495 150.678558
v    -1.725230 165.892269 141.753887
v    -12.819251 152.580298 147.308330
v    -19.531848 143.842776 150.825890
v    -21.138348 141.776327 150.796091
v    -26.469473 132.639495 150.678558
v    31.922887 201.582806 156.157459
v    33.954609 203.450733 158.015208
v    40.573489 209.684625 160.929611
v    51.719577 219.377244 165.645199
v    58.468349 223.769256 168.147866
v    61.073326 225.509153 168.113061
v    40.251326 194.066149 156.157459
v    41.901838 196.278130 158.015208
v    47.426664 203.499437 160.929611
v    55.929443 215.577718 165.645199
v    59.608758 222.740003 168.147866
v    61.073326 225.509153 168.113061
v    -13.467812 167.841291 174.514387
v    -20.733029 167.030525 176.857586
v    -36.523453 165.900457 181.911518
v    -40.747679 166.185557 183.227439
v    -48.695917 166.626762 183.138993
v    -15.584829 178.716026 174.514387
v    -22.623627 176.742187 176.857586
v    -37.684837 171.866276 181.911518
v    -41.493628 170.017365 183.227439
v    -48.695917 166.626762 183.138993
v    41.139184 204.483450 181.241429
v    43.526938 206.147498 182.174309
v    57.540526 215.109174 187.484679
v    68.844358 220.295037 191.350117
v    48.055066 196.100237 181.241429
v    50.142622 198.128177 182.174309
v    61.604503 210.182950 187.484679
v    68.844358 220.295037 191.350117
v    -7.311142 152.857201 189.271747
v    -21.795604 144.500883 194.610211
v    -33.671981 139.696072 198.592163
v    -13.682017 161.341176 189.271747
v    -25.745955 149.761491 194.610211
v    -33.671981 139.696072 198.592163
v    46.991842 205.001375 192.166636
v    59.224647 211.528924 196.593130
v    71.373195 215.981928 200.614694
v    52.720955 196.821634 192.166636
v    63.036284 206.086860 196.593130
v    71.373195 215.981928 200.614694
v    -8.272717 154.107584 194.788711
v    -18.244660 148.674700 198.414035
v    -30.234808 144.161288 202.395986
v    -13.683282 161.691526 194.788711
v    -22.065394 154.030189 198.414035
v    -30.234808 144.161288 202.395986
mtllib usm_25_2.5D_2018-10-05_4.mtl
usemtl APPID_3206582112_2021840732656 
o vid_3 
f 3 2 1
f 4 5 6
f 1 6 5
f 1 5 3
f 3 5 4
f 4 2 3
f 2 4 6
f 6 1 2
usemtl APPID_3206587376_2021840731888 
o vid_4 
f 7 9 10
f 7 10 8
f 7 9 10
f 7 10 8
usemtl APPID_3206582112_2021840732656 
o vid_5 
f 13 12 11
f 14 15 16
f 11 16 15
f 11 15 13
f 13 15 14
f 14 12 13
f 12 14 16
f 16 11 12
usemtl APPID_3206587376_2021840731888 
o vid_6 
f 17 19 20
f 17 20 18
f 17 19 20
f 17 20 18
usemtl APPID_3206582112_2021840732656 
o vid_7 
f 23 22 21
f 24 25 26
f 21 26 25
f 21 25 23
f 23 25 24
f 24 22 23
f 22 24 26
f 26 21 22
usemtl APPID_3206587376_2021840731888 
o vid_8 
f 27 30 31
f 27 31 28
f 28 31 32
f 28 32 29
usemtl APPID_3206582112_2021840732656 
o vid_9 
f 35 34 33
f 36 37 38
f 33 38 37
f 33 37 35
f 35 37 36
f 36 34 35
f 34 36 38
f 38 33 34
usemtl APPID_3206587376_2021840731888 
o vid_10 
f 39 41 42
f 39 42 40
f 39 41 42
f 39 42 40
usemtl APPID_3206582112_2021840732656 
o vid_11 
f 45 44 43
f 46 47 48
f 43 48 47
f 43 47 45
f 45 47 46
f 46 44 45
f 44 46 48
f 48 43 44
usemtl APPID_3206587376_2021840731888 
o vid_12 
f 49 51 52
f 49 52 50
f 49 51 52
f 49 52 50
usemtl APPID_3206582112_2021840732656 
o vid_13 
f 55 54 53
f 56 57 58
f 53 58 57
f 53 57 55
f 55 57 56
f 56 54 55
f 54 56 58
f 58 53 54
usemtl APPID_3206587376_2021840731888 
o vid_14 
f 59 62 63
f 59 63 60
f 60 63 64
f 60 64 61
usemtl APPID_3206582112_2021840732656 
o vid_15 
f 67 66 65
f 68 69 70
f 65 70 69
f 65 69 67
f 67 69 68
f 68 66 67
f 66 68 70
f 70 65 66
usemtl APPID_3206587376_2021840731888 
o vid_16 
f 71 73 74
f 71 74 72
f 71 73 74
f 71 74 72
usemtl APPID_3206582112_2021840732656 
o vid_17 
f 77 76 75
f 78 79 80
f 75 80 79
f 75 79 77
f 77 79 78
f 78 76 77
f 76 78 80
f 80 75 76
usemtl APPID_3206587376_2021840731888 
o vid_18 
f 81 83 84
f 81 84 82
f 81 83 84
f 81 84 82
usemtl APPID_3206582112_2021840732656 
o vid_19 
f 87 86 85
f 88 89 90
f 85 90 89
f 85 89 87
f 87 89 88
f 88 86 87
f 86 88 90
f 90 85 86
usemtl APPID_3206587376_2021840731888 
o vid_20 
f 91 93 94
f 91 94 92
f 91 93 94
f 91 94 92
usemtl APPID_3206582112_2021840732656 
o vid_21 
f 97 96 95
f 98 99 100
f 95 100 99
f 95 99 97
f 97 99 98
f 98 96 97
f 96 98 100
f 100 95 96
usemtl APPID_3206587376_2021840731888 
o vid_22 
f 101 103 104
f 101 104 102
f 101 103 104
f 101 104 102
usemtl APPID_3206582112_2021840732656 
o vid_23 
f 107 106 105
f 108 109 110
f 105 110 109
f 105 109 107
f 107 109 108
f 108 106 107
f 106 108 110
f 110 105 106
usemtl APPID_3206587376_2021840731888 
o vid_24 
f 111 113 114
f 111 114 112
f 111 113 114
f 111 114 112
usemtl APPID_3206582112_2021840732656 
o vid_25 
f 117 116 115
f 118 119 120
f 115 120 119
f 115 119 117
f 117 119 118
f 118 116 117
f 116 118 120
f 120 115 116
usemtl APPID_3206587376_2021840731888 
o vid_26 
f 121 124 125
f 121 125 122
f 122 125 126
f 122 126 123
usemtl APPID_3206582112_2021840732656 
o vid_27 
f 129 128 127
f 130 131 132
f 127 132 131
f 127 131 129
f 129 131 130
f 130 128 129
f 128 130 132
f 132 127 128
usemtl APPID_3206587376_2021840731888 
o vid_28 
f 133 137 138
f 134 138 139
f 133 138 134
f 134 139 135
f 135 139 140
f 135 140 136
usemtl APPID_3206582112_2021840732656 
o vid_29 
f 143 142 141
f 144 145 146
f 141 146 145
f 141 145 143
f 143 145 144
f 144 142 143
f 142 144 146
f 146 141 142
usemtl APPID_3206587376_2021840731888 
o vid_30 
f 147 151 152
f 148 152 153
f 147 152 148
f 148 153 149
f 149 153 154
f 149 154 150
usemtl APPID_3206582112_2021840732656 
o vid_31 
f 157 156 155
f 158 159 160
f 155 160 159
f 155 159 157
f 157 159 158
f 158 156 157
f 156 158 160
f 160 155 156
usemtl APPID_3206587376_2021840731888 
o vid_32 
f 161 165 166
f 162 166 167
f 161 166 162
f 162 167 163
f 163 167 168
f 163 168 164
usemtl APPID_3206582112_2021840732656 
o vid_33 
f 171 170 169
f 172 173 174
f 169 174 173
f 169 173 171
f 171 173 172
f 172 170 171
f 170 172 174
f 174 169 170
usemtl APPID_3206587376_2021840731888 
o vid_34 
f 175 180 181
f 176 181 182
f 177 182 183
f 175 181 176
f 176 182 177
f 177 183 178
f 178 183 184
f 178 184 179
usemtl APPID_3206582112_2021840732656 
o vid_35 
f 187 186 185
f 188 189 190
f 185 190 189
f 185 189 187
f 187 189 188
f 188 186 187
f 186 188 190
f 190 185 186
usemtl APPID_3206587376_2021840731888 
o vid_36 
f 191 195 196
f 192 196 197
f 191 196 192
f 192 197 193
f 193 197 198
f 193 198 194
usemtl APPID_3206582112_2021840732656 
o vid_37 
f 201 200 199
f 202 203 204
f 199 204 203
f 199 203 201
f 201 203 202
f 202 200 201
f 200 202 204
f 204 199 200
usemtl APPID_3206587376_2021840731888 
o vid_38 
f 205 210 211
f 206 211 212
f 207 212 213
f 205 211 206
f 206 212 207
f 207 213 208
f 208 213 214
f 208 214 209
usemtl APPID_3206582112_2021840732656 
o vid_39 
f 217 216 215
f 218 219 220
f 215 220 219
f 215 219 217
f 217 219 218
f 218 216 217
f 216 218 220
f 220 215 216
usemtl APPID_3206587376_2021840731888 
o vid_40 
f 221 226 227
f 222 227 228
f 223 228 229
f 221 227 222
f 222 228 223
f 223 229 224
f 224 229 230
f 224 230 225
usemtl APPID_3206582112_2021840732656 
o vid_41 
f 233 232 231
f 234 235 236
f 231 236 235
f 231 235 233
f 233 235 234
f 234 232 233
f 232 234 236
f 236 231 232
usemtl APPID_3206587376_2021840731888 
o vid_42 
f 237 241 242
f 238 242 243
f 237 242 238
f 238 243 239
f 239 243 244
f 239 244 240
usemtl APPID_3206568000_2021840735216 
o vid_10000004 
f 245 251 252
f 246 252 253
f 247 253 254
f 248 254 255
f 245 252 246
f 246 253 247
f 247 254 248
f 248 255 249
f 249 255 256
usemtl APPID_3206568000_2021840735216 
o vid_10000006 
f 257 263 264
f 258 264 265
f 259 265 266
f 260 266 267
f 257 264 258
f 258 265 259
f 259 266 260
f 260 267 261
f 261 267 268
usemtl APPID_3206568000_2021840735216 
o vid_10000008 
f 269 276 277
f 270 277 278
f 271 278 279
f 272 279 280
f 273 280 281
f 269 277 270
f 270 278 271
f 271 279 272
f 272 280 273
f 273 281 274
f 274 281 282
usemtl APPID_3206568000_2021840735216 
o vid_10000010 
f 283 289 290
f 284 290 291
f 285 291 292
f 286 292 293
f 283 290 284
f 284 291 285
f 285 292 286
f 286 293 287
f 287 293 294
usemtl APPID_3206568000_2021840735216 
o vid_10000012 
f 295 301 302
f 296 302 303
f 297 303 304
f 298 304 305
f 295 302 296
f 296 303 297
f 297 304 298
f 298 305 299
f 299 305 306
usemtl APPID_3206568000_2021840735216 
o vid_10000014 
f 307 314 315
f 308 315 316
f 309 316 317
f 310 317 318
f 311 318 319
f 307 315 308
f 308 316 309
f 309 317 310
f 310 318 311
f 311 319 312
f 312 319 320
usemtl APPID_3206568000_2021840735216 
o vid_10000016 
f 321 328 329
f 322 329 330
f 323 330 331
f 324 331 332
f 325 332 333
f 321 329 322
f 322 330 323
f 323 331 324
f 324 332 325
f 325 333 326
f 326 333 334
usemtl APPID_3206568000_2021840735216 
o vid_10000018 
f 335 343 344
f 336 344 345
f 337 345 346
f 338 346 347
f 339 347 348
f 340 348 349
f 335 344 336
f 336 345 337
f 337 346 338
f 338 347 339
f 339 348 340
f 340 349 341
f 341 349 350
usemtl APPID_3206568000_2021840735216 
o vid_10000020 
f 351 359 360
f 352 360 361
f 353 361 362
f 354 362 363
f 355 363 364
f 356 364 365
f 351 360 352
f 352 361 353
f 353 362 354
f 354 363 355
f 355 364 356
f 356 365 357
f 357 365 366
usemtl APPID_3206568000_2021840735216 
o vid_10000022 
f 367 375 376
f 368 376 377
f 369 377 378
f 370 378 379
f 371 379 380
f 372 380 381
f 367 376 368
f 368 377 369
f 369 378 370
f 370 379 371
f 371 380 372
f 372 381 373
f 373 381 382
usemtl APPID_3206568000_2021840735216 
o vid_10000024 
f 383 391 392
f 384 392 393
f 385 393 394
f 386 394 395
f 387 395 396
f 388 396 397
f 383 392 384
f 384 393 385
f 385 394 386
f 386 395 387
f 387 396 388
f 388 397 389
f 389 397 398
usemtl APPID_3206568000_2021840735216 
o vid_10000026 
f 399 407 408
f 400 408 409
f 401 409 410
f 402 410 411
f 403 411 412
f 404 412 413
f 399 408 400
f 400 409 401
f 401 410 402
f 402 411 403
f 403 412 404
f 404 413 405
f 405 413 414
usemtl APPID_3206568000_2021840735216 
o vid_10000028 
f 415 421 422
f 416 422 423
f 417 423 424
f 418 424 425
f 415 422 416
f 416 423 417
f 417 424 418
f 418 425 419
f 419 425 426
usemtl APPID_3206568000_2021840735216 
o vid_10000030 
f 427 432 433
f 428 433 434
f 429 434 435
f 427 433 428
f 428 434 429
f 429 435 430
f 430 435 436
usemtl APPID_3206568000_2021840735216 
o vid_10000032 
f 437 443 444
f 438 444 445
f 439 445 446
f 440 446 447
f 437 444 438
f 438 445 439
f 439 446 440
f 440 447 441
f 441 447 448
usemtl APPID_3206568000_2021840735216 
o vid_10000034 
f 449 454 455
f 450 455 456
f 451 456 457
f 449 455 450
f 450 456 451
f 451 457 452
f 452 457 458
usemtl APPID_3206568000_2021840735216 
o vid_10000036 
f 459 463 464
f 460 464 465
f 459 464 460
f 460 465 461
f 461 465 466
usemtl APPID_3206568000_2021840735216 
o vid_10000038 
f 467 470 471
f 467 471 468
f 468 471 472
usemtl APPID_3206568000_2021840735216 
o vid_10000040 
f 473 476 477
f 473 477 474
f 474 477 478
usemtl APPID_3206568000_2021840735216 
o vid_10000042 
f 479 482 483
f 479 483 480
f 480 483 484
