# File generated by PlantGL - Fri Sep  4 14:41:53 2026
v    17.752484 338.905161 0.000000
v    22.071916 338.601013 0.000000
v    20.175600 342.493825 0.000000
v    22.247516 341.094839 0.848018
v    17.928084 341.398987 0.848018
v    19.824400 337.506175 0.848018
v    22.062184 341.449156 0.688716
v    22.418649 341.585061 1.043219
v    22.463190 341.601210 1.087175
v    22.412266 340.730496 0.688716
v    22.739014 340.927406 1.043219
v    22.779187 340.952523 1.087175
v    21.879284 341.505407 0.848018
v    17.756638 340.874804 0.848018
v    20.364078 337.619789 0.848018
v    18.120716 338.494593 1.416666
v    22.243362 339.125196 1.416666
v    19.635922 342.380211 1.416666
v    18.493117 338.055620 1.191176
v    17.952793 337.696709 1.793949
v    17.044720 337.099981 2.544278
v    16.568043 336.777877 2.728682
v    17.773606 338.953827 1.191176
v    17.305418 338.504865 1.793949
v    16.524880 337.748926 2.544278
v    16.106502 337.354044 2.728682
v    17.841416 339.161313 1.416666
v    21.805616 338.549955 1.416666
v    20.352968 342.288732 1.416666
v    22.158584 340.838687 2.253758
v    18.194384 341.450045 2.253758
v    19.647032 337.711268 2.253758
v    21.871433 341.515662 1.940857
v    22.050431 341.567430 2.114007
v    22.839874 341.781768 2.872938
v    24.190898 342.166488 3.818495
v    25.048301 342.421837 4.105250
v    25.186602 342.457116 4.150816
v    22.403819 340.145427 1.940857
v    22.570813 340.228089 2.114007
v    23.297879 340.602969 2.872938
v    24.554247 341.231314 3.818495
v    25.359135 341.621825 4.105250
v    25.484974 341.689174 4.150816
v    22.163962 340.511898 2.253758
v    18.474702 341.618097 2.253758
v    19.361335 337.870005 2.253758
v    17.836038 339.488102 4.113040
v    21.525298 338.381903 4.113040
v    20.638665 342.129995 4.113040
v    18.105016 338.483911 3.687377
v    17.417344 338.384736 4.333007
v    16.751926 338.299895 4.955355
v    14.859426 338.034898 6.241667
v    13.088664 337.765184 6.815801
v    11.733715 337.613530 7.251065
v    17.626590 340.506376 3.687377
v    16.967368 340.286935 4.333007
v    16.334463 340.064650 4.955355
v    14.523813 339.453645 6.241667
v    12.819885 338.901401 6.815801
v    11.540595 338.429911 7.251065
v    18.595695 338.396392 4.113040
v    22.090917 339.585640 4.113040
v    19.313387 342.017967 4.113040
v    21.404305 341.603608 6.000766
v    17.909083 340.414360 6.000766
v    20.686613 337.982033 6.000766
v    20.283419 342.530963 5.433090
v    21.509369 343.702032 7.008533
v    23.450917 345.539346 8.839565
v    25.882939 347.899625 9.925868
v    27.335678 349.201637 10.548660
v    27.744176 349.572004 10.542382
v    22.471442 340.614877 5.433090
v    23.470522 341.984620 7.008533
v    25.035606 344.151609 8.839565
v    27.054370 346.873785 9.925868
v    28.153326 348.485610 10.548660
v    28.466557 348.939403 10.542382
v    21.718982 341.097521 6.000766
v    18.190028 340.939922 6.000766
v    20.090990 337.962557 6.000766
v    18.281018 338.902479 12.885860
v    21.809972 339.060078 12.885860
v    19.909010 342.037443 12.885860
v    19.368598 337.298169 12.143674
v    17.257375 336.201260 14.354522
v    14.296559 334.673837 16.597336
v    9.912626 332.351829 18.187472
v    8.092933 331.478634 18.831824
v    6.923672 330.909272 18.817018
v    6.191115 330.666098 18.808442
v    17.283338 340.564188 12.143674
v    15.399851 339.110589 14.354522
v    12.768306 337.067448 16.597336
v    8.817090 334.067702 18.187472
v    7.259225 332.784422 18.831824
v    6.250691 331.963324 18.817018
v    5.721827 331.401116 18.808442
v    18.420020 338.861621 12.885860
v    21.775855 339.200887 12.885860
v    19.804125 341.937492 12.885860
v    21.579980 341.138379 19.685705
v    18.224145 340.799113 19.685705
v    20.195875 338.062508 19.685705
v    20.091978 343.086676 18.734440
v    22.668485 344.614693 21.518040
v    26.397472 346.804756 24.442732
v    31.431162 349.844184 26.327515
v    34.117629 351.324147 27.306692
v    35.132895 351.891074 27.293453
v    36.869415 352.577892 27.272705
v    22.957063 339.110166 18.734440
v    25.222094 341.070487 21.518040
v    28.479941 343.914455 24.442732
v    32.956478 347.727168 26.327515
v    35.210732 349.807007 27.306692
v    36.069887 350.590603 27.293453
v    37.271079 352.020415 27.272705
v    21.554633 341.012481 19.685705
v    18.345849 340.840111 19.685705
v    20.099518 338.147408 19.685705
v    18.445367 338.987519 30.882667
v    21.654151 339.159889 30.882667
v    19.900482 341.852592 30.882667
v    20.238006 336.392358 29.687393
v    16.854032 334.595156 33.247915
v    12.111439 332.087202 36.859917
v    4.664774 328.056384 39.574065
v    2.177981 326.835306 40.458509
v    -0.147794 325.676672 40.428927
v    -3.106308 324.664814 40.394187
v    16.796670 341.676425 29.687393
v    13.784636 339.308120 33.247915
v    9.573189 335.984607 36.859917
v    2.875538 330.803702 39.574065
v    0.753203 329.023008 40.458509
v    -1.246912 327.364334 40.428927
v    -3.368632 325.067604 40.394187
v    18.458123 339.144816 30.882667
v    21.511550 339.092287 30.882667
v    20.030327 341.762897 30.882667
v    21.541877 340.855184 48.444344
v    18.488450 340.907713 48.444344
v    19.969673 338.237103 48.444344
v    19.440360 344.426043 46.971997
v    23.755056 346.339135 51.357873
v    27.711742 348.142994 54.288593
v    29.777858 349.048943 55.807162
v    42.375434 354.754418 60.239933
v    49.006627 357.506653 60.158175
v    51.414821 358.143873 60.130498
v    53.317406 358.639327 59.782235
v    23.458354 337.181695 46.971997
v    27.365855 339.828951 51.357873
v    30.991129 342.230338 54.288593
v    32.853650 343.503363 55.807162
v    44.364003 351.169075 60.239933
v    50.209928 355.337130 60.158175
v    52.025610 357.042635 60.130498
v    53.453314 358.394288 59.782235
v    21.408805 340.374751 48.444344
v    18.971054 341.032686 48.444344
v    19.620141 338.592564 48.444344
v    18.591195 339.625249 69.931697
v    21.028946 338.967314 69.931697
v    20.379859 341.407436 69.931697
v    20.021144 334.746622 68.153705
v    14.404619 333.777122 73.450046
v    8.232712 332.645483 77.679033
v    -9.876946 329.392308 84.175934
v    -19.668335 327.897945 84.063089
v    -25.491309 327.842555 83.320075
v    17.408181 344.569562 68.153705
v    12.052272 342.620327 73.450046
v    6.133824 340.535858 77.679033
v    -11.198700 334.361194 84.175934
v    -20.438478 330.793150 84.063089
v    -25.519369 327.948044 83.320075
v    18.955669 339.566487 69.931697
v    20.897599 339.312339 69.931697
v    20.146733 341.121174 69.931697
v    21.044331 340.433513 94.018022
v    19.102401 340.687661 94.018022
v    19.853267 338.878826 94.018022
v    18.616319 345.888084 91.913148
v    25.053549 347.910499 98.183217
v    31.536025 350.021504 102.777995
v    34.042135 350.797555 104.543942
v    52.856158 356.872615 110.881053
v    63.408451 359.939356 110.755885
v    66.194000 360.348230 110.724604
v    70.499850 360.963012 109.954133
v    23.192959 334.862966 91.913148
v    29.170048 337.993863 98.183217
v    35.241819 341.094257 102.777995
v    37.560781 342.321144 104.543942
v    55.146214 351.355875 110.881053
v    64.768213 356.663692 110.755885
v    67.024436 358.347710 110.724604
v    70.499850 360.963012 109.954133
v    20.642821 340.528928 94.018022
v    19.220525 340.292235 94.018022
v    20.136655 339.178837 94.018022
v    19.357179 339.471072 114.176685
v    20.779475 339.707765 114.176685
v    19.863345 340.821163 114.176685
v    23.557311 334.642805 111.733819
v    17.091734 330.224693 119.010707
v    8.022349 324.061417 126.392808
v    -5.625906 314.575704 131.720352
v    -10.979742 311.161561 133.747503
v    -14.834442 308.672169 133.695262
v    -22.425850 305.091023 133.602003
v    15.428146 344.522405 111.733819
v    9.847602 339.028688 119.010707
v    2.053123 331.315984 126.392808
v    -9.883396 319.749950 131.720352
v    -14.264667 315.153821 133.747503
v    -17.449794 311.850679 133.695262
v    -22.425850 305.091023 133.602003
v    19.611029 339.593028 114.176685
v    20.546933 339.866627 114.176685
v    19.842038 340.540345 114.176685
v    20.388971 340.406972 129.250000
v    19.453067 340.133373 129.250000
v    20.157962 339.459655 129.250000
v    15.482890 344.790499 123.684130
v    17.029568 346.128323 125.843550
v    21.888461 350.184854 132.515233
v    30.922009 357.956396 141.693278
v    37.234404 363.548932 145.004210
v    46.474485 371.088703 149.666609
v    51.081241 373.866474 151.711645
v    54.292906 375.879911 151.905389
v    24.989812 335.704078 123.684130
v    26.256345 337.309656 125.843550
v    30.089067 342.346970 132.515233
v    37.444273 351.722618 141.693278
v    42.745719 358.281389 145.004210
v    49.860054 367.852881 149.666609
v    52.426721 372.580506 151.711645
v    54.292906 375.879911 151.905389
v    22.463190 341.601210 1.087175
v    23.209568 341.881186 1.644646
v    23.981245 342.182418 1.910172
v    24.615108 342.401288 2.124254
v    25.179233 342.522974 2.117831
v    22.779187 340.952523 1.087175
v    23.459730 341.367647 1.644646
v    24.172605 341.789589 1.910172
v    24.735676 342.153785 2.124254
v    25.179233 342.522974 2.117831
v    16.568043 336.777877 2.728682
v    15.956020 336.364314 2.965444
v    15.269751 335.939242 3.223156
v    15.107576 335.837499 3.220976
v    14.402572 335.516162 3.212368
v    16.106502 337.354044 2.728682
v    15.569331 336.847040 2.965444
v    15.004722 336.270092 3.223156
v    14.870036 336.134034 3.220976
v    14.402572 335.516162 3.212368
v    25.186602 342.457116 4.150816
v    26.378970 342.761274 4.543665
v    27.072461 342.838518 4.760542
v    27.414333 342.880734 4.756715
v    25.484974 341.689174 4.150816
v    26.569913 342.269831 4.543665
v    27.133638 342.681061 4.760542
v    27.414333 342.880734 4.756715
v    11.733715 337.613530 7.251065
v    11.232084 337.557384 7.412209
v    10.875106 337.567158 7.523203
v    9.786597 337.583960 7.511107
v    11.540595 338.429911 7.251065
v    11.066975 338.255356 7.412209
v    10.752211 338.086678 7.523203
v    9.786597 337.583960 7.511107
v    27.744176 349.572004 10.542382
v    29.361695 350.690334 10.520527
v    28.466557 348.939403 10.542382
v    29.361695 350.690334 10.520527
v    6.191115 330.666098 18.808442
v    4.503383 330.105852 18.788684
v    5.721827 331.401116 18.808442
v    4.503383 330.105852 18.788684
v    36.869415 352.577892 27.272705
v    38.172348 353.093219 27.257137
v    37.271079 352.020415 27.272705
v    38.172348 353.093219 27.257137
v    -3.106308 324.664814 40.394187
v    -4.033764 324.347610 40.383296
v    -3.368632 325.067604 40.394187
v    -4.033764 324.347610 40.383296
v    53.317406 358.639327 59.782235
v    53.861915 358.781123 59.682564
v    53.453314 358.394288 59.782235
v    53.861915 358.781123 59.682564
v    -25.491309 327.842555 83.320075
v    -25.662514 327.841127 83.289747
v    -25.709221 327.841066 83.275855
v    -25.519369 327.948044 83.320075
v    -25.668656 327.864219 83.289747
v    -25.709221 327.841066 83.275855
mtllib usm_12_Beer_2018-08-08_8.mtl
usemtl APPID_3599508800_2314290321664 
o vid_3 
f 3 2 1
f 4 5 6
f 1 6 5
f 1 5 3
f 3 5 4
f 4 2 3
f 2 4 6
f 6 1 2
usemtl APPID_3599502640_2314290326528 
o vid_4 
f 7 10 11
f 7 11 8
f 8 11 12
f 8 12 9
usemtl APPID_3599508800_2314290321664 
o vid_5 
f 15 14 13
f 16 17 18
f 13 18 17
f 13 17 15
f 15 17 16
f 16 14 15
f 14 16 18
f 18 13 14
usemtl APPID_3599502640_2314290326528 
o vid_6 
f 19 23 24
f 20 24 25
f 19 24 20
f 20 25 21
f 21 25 26
f 21 26 22
usemtl APPID_3599508800_2314290321664 
o vid_7 
f 29 28 27
f 30 31 32
f 27 32 31
f 27 31 29
f 29 31 30
f 30 28 29
f 28 30 32
f 32 27 28
usemtl APPID_3599502640_2314290326528 
o vid_8 
f 33 39 40
f 34 40 41
f 35 41 42
f 36 42 43
f 33 40 34
f 34 41 35
f 35 42 36
f 36 43 37
f 37 43 44
f 37 44 38
usemtl APPID_3599508800_2314290321664 
o vid_9 
f 47 46 45
f 48 49 50
f 45 50 49
f 45 49 47
f 47 49 48
f 48 46 47
f 46 48 50
f 50 45 46
usemtl APPID_3599502640_2314290326528 
o vid_10 
f 51 57 58
f 52 58 59
f 53 59 60
f 54 60 61
f 51 58 52
f 52 59 53
f 53 60 54
f 54 61 55
f 55 61 62
f 55 62 56
usemtl APPID_3599508800_2314290321664 
o vid_11 
f 65 64 63
f 66 67 68
f 63 68 67
f 63 67 65
f 65 67 66
f 66 64 65
f 64 66 68
f 68 63 64
usemtl APPID_3599502640_2314290326528 
o vid_12 
f 69 75 76
f 70 76 77
f 71 77 78
f 72 78 79
f 69 76 70
f 70 77 71
f 71 78 72
f 72 79 73
f 73 79 80
f 73 80 74
usemtl APPID_3599508800_2314290321664 
o vid_13 
f 83 82 81
f 84 85 86
f 81 86 85
f 81 85 83
f 83 85 84
f 84 82 83
f 82 84 86
f 86 81 82
usemtl APPID_3599502640_2314290326528 
o vid_14 
f 87 94 95
f 88 95 96
f 89 96 97
f 90 97 98
f 91 98 99
f 87 95 88
f 88 96 89
f 89 97 90
f 90 98 91
f 91 99 92
f 92 99 100
f 92 100 93
usemtl APPID_3599508800_2314290321664 
o vid_15 
f 103 102 101
f 104 105 106
f 101 106 105
f 101 105 103
f 103 105 104
f 104 102 103
f 102 104 106
f 106 101 102
usemtl APPID_3599502640_2314290326528 
o vid_16 
f 107 114 115
f 108 115 116
f 109 116 117
f 110 117 118
f 111 118 119
f 107 115 108
f 108 116 109
f 109 117 110
f 110 118 111
f 111 119 112
f 112 119 120
f 112 120 113
usemtl APPID_3599508800_2314290321664 
o vid_17 
f 123 122 121
f 124 125 126
f 121 126 125
f 121 125 123
f 123 125 124
f 124 122 123
f 122 124 126
f 126 121 122
usemtl APPID_3599502640_2314290326528 
o vid_18 
f 127 134 135
f 128 135 136
f 129 136 137
f 130 137 138
f 131 138 139
f 127 135 128
f 128 136 129
f 129 137 130
f 130 138 131
f 131 139 132
f 132 139 140
f 132 140 133
usemtl APPID_3599508800_2314290321664 
o vid_19 
f 143 142 141
f 144 145 146
f 141 146 145
f 141 145 143
f 143 145 144
f 144 142 143
f 142 144 146
f 146 141 142
usemtl APPID_3599502640_2314290326528 
o vid_20 
f 147 155 156
f 148 156 157
f 149 157 158
f 150 158 159
f 151 159 160
f 152 160 161
f 147 156 148
f 148 157 149
f 149 158 150
f 150 159 151
f 151 160 152
f 152 161 153
f 153 161 162
f 153 162 154
usemtl APPID_3599508800_2314290321664 
o vid_21 
f 165 164 163
f 166 167 168
f 163 168 167
f 163 167 165
f 165 167 166
f 166 164 165
f 164 166 168
f 168 163 164
usemtl APPID_3599502640_2314290326528 
o vid_22 
f 169 175 176
f 170 176 177
f 171 177 178
f 172 178 179
f 169 176 170
f 170 177 171
f 171 178 172
f 172 179 173
f 173 179 180
f 173 180 174
usemtl APPID_3599508800_2314290321664 
o vid_23 
f 183 182 181
f 184 185 186
f 181 186 185
f 181 185 183
f 183 185 184
f 184 182 183
f 182 184 186
f 186 181 182
usemtl APPID_3599502640_2314290326528 
o vid_24 
f 187 195 196
f 188 196 197
f 189 197 198
f 190 198 199
f 191 199 200
f 192 200 201
f 187 196 188
f 188 197 189
f 189 198 190
f 190 199 191
f 191 200 192
f 192 201 193
f 193 201 202
usemtl APPID_3599508800_2314290321664 
o vid_25 
f 205 204 203
f 206 207 208
f 203 208 207
f 203 207 205
f 205 207 206
f 206 204 205
f 204 206 208
f 208 203 204
usemtl APPID_3599502640_2314290326528 
o vid_26 
f 209 216 217
f 210 217 218
f 211 218 219
f 212 219 220
f 213 220 221
f 209 217 210
f 210 218 211
f 211 219 212
f 212 220 213
f 213 221 214
f 214 221 222
usemtl APPID_3599508800_2314290321664 
o vid_27 
f 225 224 223
f 226 227 228
f 223 228 227
f 223 227 225
f 225 227 226
f 226 224 225
f 224 226 228
f 228 223 224
usemtl APPID_3599502640_2314290326528 
o vid_28 
f 229 237 238
f 230 238 239
f 231 239 240
f 232 240 241
f 233 241 242
f 234 242 243
f 229 238 230
f 230 239 231
f 231 240 232
f 232 241 233
f 233 242 234
f 234 243 235
f 235 243 244
usemtl APPID_3599503200_2314290327680 
o vid_10000004 
f 245 250 251
f 246 251 252
f 247 252 253
f 245 251 246
f 246 252 247
f 247 253 248
f 248 253 254
usemtl APPID_3599503200_2314290327680 
o vid_10000006 
f 255 260 261
f 256 261 262
f 257 262 263
f 255 261 256
f 256 262 257
f 257 263 258
f 258 263 264
usemtl APPID_3599503200_2314290327680 
o vid_10000008 
f 265 269 270
f 266 270 271
f 265 270 266
f 266 271 267
f 267 271 272
usemtl APPID_3599503200_2314290327680 
o vid_10000010 
f 273 277 278
f 274 278 279
f 273 278 274
f 274 279 275
f 275 279 280
usemtl APPID_3599503200_2314290327680 
o vid_10000012 
f 281 283 284
f 281 284 282
f 281 283 284
usemtl APPID_3599503200_2314290327680 
o vid_10000014 
f 285 287 288
f 285 288 286
f 285 287 288
usemtl APPID_3599503200_2314290327680 
o vid_10000016 
f 289 291 292
f 289 292 290
f 289 291 292
usemtl APPID_3599503200_2314290327680 
o vid_10000018 
f 293 295 296
f 293 296 294
f 293 295 296
usemtl APPID_3599503200_2314290327680 
o vid_10000020 
f 297 299 300
f 297 300 298
f 297 299 300
usemtl APPID_3599503200_2314290327680 
o vid_10000022 
f 301 304 305
f 301 305 302
f 302 305 306
