# File generated by PlantGL - Fri Sep  4 14:41:22 2026
v    7.752484 58.905161 0.000000
v    12.071916 58.601013 0.000000
v    10.175600 62.493825 0.000000
v    12.247516 61.094839 0.848018
v    7.928084 61.398987 0.848018
v    9.824400 57.506175 0.848018
v    12.059916 61.453095 0.684352
v    12.358747 61.567027 0.981539
v    12.551630 61.636961 1.171886
v    13.239255 61.895892 1.666470
v    13.944650 62.171249 1.909189
v    14.623621 62.405695 2.138507
v    15.171222 62.519072 2.153745
v    12.413971 60.726281 0.684352
v    12.687890 60.891355 0.981539
v    12.861854 61.000124 1.171886
v    13.489609 61.381959 1.666470
v    14.141252 61.767658 1.909189
v    14.744393 62.157772 2.138507
v    15.171222 62.519072 2.153745
v    11.879284 61.505407 0.848018
v    7.756638 60.874804 0.848018
v    10.364078 57.619789 0.848018
v    8.120716 58.494593 1.416666
v    12.243362 59.125196 1.416666
v    9.635922 62.380211 1.416666
v    8.495813 58.052715 1.187175
v    8.004513 57.726368 1.735257
v    7.020988 57.081024 2.564288
v    5.988824 56.383561 2.963582
v    5.212234 55.902544 3.255212
v    4.411398 55.523232 3.245331
v    7.771360 58.957091 1.187175
v    7.345650 58.548865 1.735257
v    6.501201 57.729904 2.564288
v    5.595273 56.874852 2.963582
v    4.956355 56.221972 3.255212
v    4.411398 55.523232 3.245331
v    8.014160 59.228430 1.416666
v    11.661119 58.665997 1.416666
v    10.324721 62.105573 1.416666
v    11.985840 60.771570 2.253758
v    8.338881 61.334003 2.253758
v    9.675279 57.894427 2.253758
v    11.697830 61.450216 1.938126
v    12.675028 61.717858 2.878342
v    14.037845 62.105936 3.832153
v    14.838991 62.344531 4.100093
v    16.181274 62.686931 4.542334
v    16.948984 62.772441 4.782422
v    17.222562 62.806224 4.779359
v    12.231569 60.076496 1.938126
v    13.133127 60.538819 2.878342
v    14.400461 61.172648 3.832153
v    15.152538 61.537536 4.100093
v    16.373884 62.191198 4.542334
v    16.997940 62.646439 4.782422
v    17.222562 62.806224 4.779359
v    11.652669 60.390948 2.253758
v    8.835094 61.235779 2.253758
v    9.512237 58.373273 2.253758
v    8.347331 59.609052 4.112055
v    11.164906 58.764221 4.112055
v    10.487763 61.626727 4.112055
v    8.616588 58.603727 3.686252
v    7.919526 58.503197 4.340699
v    7.263085 58.419501 4.954650
v    5.369959 58.154417 6.241387
v    3.586704 57.882800 6.819572
v    1.729510 57.674931 7.416177
v    0.282956 57.701377 7.511103
v    8.137625 60.628463 3.686252
v    7.469400 60.406026 4.340699
v    6.845035 60.186740 4.954650
v    5.033786 59.575533 6.241387
v    3.317836 59.019393 6.819572
v    1.564346 58.373134 7.416177
v    0.282956 57.701377 7.511103
v    9.146922 59.025851 4.112055
v    11.270177 59.748287 4.112055
v    9.582901 61.225862 4.112055
v    10.853078 60.974149 5.805095
v    8.729823 60.251713 5.805095
v    10.417099 58.774138 5.805095
v    9.797888 61.844378 5.241654
v    10.395075 62.414832 6.009087
v    11.116125 63.081314 6.920050
v    12.952392 64.820996 8.622713
v    14.566228 66.387225 9.343559
v    16.407723 68.037659 10.133011
v    16.904468 68.371628 10.319054
v    17.982153 69.115004 10.304508
v    11.854921 60.043002 5.241654
v    12.341594 60.710234 6.009087
v    12.907114 61.512916 6.920050
v    14.389312 63.562663 8.622713
v    15.728918 65.369039 9.343559
v    17.121957 67.412193 10.133011
v    17.387467 67.948659 10.319054
v    17.982153 69.115004 10.304508
v    10.775645 60.495227 5.805095
v    9.183298 60.424115 5.805095
v    10.041057 59.080658 5.805095
v    9.224355 59.504773 10.405158
v    10.816702 59.575885 10.405158
v    9.958943 60.919342 10.405158
v    10.192436 58.086174 9.673853
v    8.095090 57.032095 11.852287
v    5.175543 55.530422 14.062217
v    3.343555 54.560086 14.726714
v    0.449876 53.171530 15.751364
v    -1.121399 52.670683 16.263943
v    -1.867260 52.423093 16.255211
v    8.344856 60.979929 9.673853
v    6.506062 59.520895 11.852287
v    3.915243 57.504356 14.062217
v    2.264082 56.250801 14.726714
v    -0.213238 54.210127 15.751364
v    -1.328792 52.995511 16.263943
v    -1.867260 52.423093 16.255211
v    9.533948 59.664208 10.405158
v    10.523830 59.764283 10.405158
v    9.942222 60.571509 10.405158
v    10.466052 60.335792 11.244000
v    9.476170 60.235717 11.244000
v    10.057778 59.428491 11.244000
v    10.010325 61.657009 9.506229
v    10.187729 61.709042 10.281218
v    10.991277 61.821988 13.472597
v    11.354183 61.942458 14.392667
v    12.740340 61.974421 17.275780
v    11.575068 59.485271 9.506229
v    11.680582 59.637080 10.281218
v    12.042082 60.363554 13.472597
v    12.271234 60.669664 14.392667
v    12.740340 61.974421 17.275780
mtllib usm_3_Beer_2018-07-20_1.mtl
usemtl APPID_726668720_2277208085616 
o vid_3 
f 3 2 1
f 4 5 6
f 1 6 5
f 1 5 3
f 3 5 4
f 4 2 3
f 2 4 6
f 6 1 2
usemtl APPID_726672528_2277208087920 
o vid_4 
f 7 14 15
f 8 15 16
f 9 16 17
f 10 17 18
f 11 18 19
f 7 15 8
f 8 16 9
f 9 17 10
f 10 18 11
f 11 19 12
f 12 19 20
usemtl APPID_726668720_2277208085616 
o vid_5 
f 23 22 21
f 24 25 26
f 21 26 25
f 21 25 23
f 23 25 24
f 24 22 23
f 22 24 26
f 26 21 22
usemtl APPID_726672528_2277208087920 
o vid_6 
f 27 33 34
f 28 34 35
f 29 35 36
f 30 36 37
f 27 34 28
f 28 35 29
f 29 36 30
f 30 37 31
f 31 37 38
usemtl APPID_726668720_2277208085616 
o vid_7 
f 41 40 39
f 42 43 44
f 39 44 43
f 39 43 41
f 41 43 42
f 42 40 41
f 40 42 44
f 44 39 40
usemtl APPID_726672528_2277208087920 
o vid_8 
f 45 52 53
f 46 53 54
f 47 54 55
f 48 55 56
f 49 56 57
f 45 53 46
f 46 54 47
f 47 55 48
f 48 56 49
f 49 57 50
f 50 57 58
usemtl APPID_726668720_2277208085616 
o vid_9 
f 61 60 59
f 62 63 64
f 59 64 63
f 59 63 61
f 61 63 62
f 62 60 61
f 60 62 64
f 64 59 60
usemtl APPID_726672528_2277208087920 
o vid_10 
f 65 72 73
f 66 73 74
f 67 74 75
f 68 75 76
f 69 76 77
f 65 73 66
f 66 74 67
f 67 75 68
f 68 76 69
f 69 77 70
f 70 77 78
usemtl APPID_726668720_2277208085616 
o vid_11 
f 81 80 79
f 82 83 84
f 79 84 83
f 79 83 81
f 81 83 82
f 82 80 81
f 80 82 84
f 84 79 80
usemtl APPID_726672528_2277208087920 
o vid_12 
f 85 93 94
f 86 94 95
f 87 95 96
f 88 96 97
f 89 97 98
f 90 98 99
f 85 94 86
f 86 95 87
f 87 96 88
f 88 97 89
f 89 98 90
f 90 99 91
f 91 99 100
usemtl APPID_726668720_2277208085616 
o vid_13 
f 103 102 101
f 104 105 106
f 101 106 105
f 101 105 103
f 103 105 104
f 104 102 103
f 102 104 106
f 106 101 102
usemtl APPID_726672528_2277208087920 
o vid_14 
f 107 114 115
f 108 115 116
f 109 116 117
f 110 117 118
f 111 118 119
f 107 115 108
f 108 116 109
f 109 117 110
f 110 118 111
f 111 119 112
f 112 119 120
usemtl APPID_726668720_2277208085616 
o vid_15 
f 123 122 121
f 124 125 126
f 121 126 125
f 121 125 123
f 123 125 124
f 124 122 123
f 122 124 126
f 126 121 122
usemtl APPID_726672528_2277208087920 
o vid_16 
f 127 132 133
f 128 133 134
f 129 134 135
f 127 133 128
f 128 134 129
f 129 135 130
f 130 135 136
