# File generated by PlantGL - Fri Sep  4 14:43:34 2026
v    297.752484 18.905161 0.000000
v    302.071916 18.601013 0.000000
v    300.175600 22.493825 0.000000
v    302.247516 21.094839 0.848509
v    297.928084 21.398987 0.848509
v    299.824400 17.506175 0.848509
v    302.061967 21.449533 0.688792
v    302.412982 21.583360 1.037875
v    302.464257 21.601951 1.088477
v    302.412430 20.730092 0.688792
v    302.734182 20.923992 1.037875
v    302.780428 20.952906 1.088477
v    301.879284 21.505407 0.848509
v    297.756638 20.874804 0.848509
v    300.364078 17.619789 0.848509
v    298.120716 18.494593 1.417165
v    302.243362 19.125196 1.417165
v    299.635922 22.380211 1.417165
v    298.493420 18.055297 1.191207
v    298.172489 17.842118 1.549230
v    297.773357 18.954192 1.191207
v    297.495271 18.687527 1.549230
v    297.841416 19.161313 1.417165
v    301.805616 18.549955 1.417165
v    300.352968 22.288732 1.417165
v    302.158584 20.838687 2.253766
v    298.194384 21.450045 2.253766
v    299.647032 17.711268 2.253766
v    301.871274 21.515974 1.940371
v    302.041794 21.565291 2.105321
v    302.268286 21.626785 2.323058
v    302.403912 20.145089 1.940371
v    302.562998 20.223836 2.105321
v    302.771593 20.331389 2.323058
v    302.163962 20.511898 2.253766
v    298.474702 21.618097 2.253766
v    299.361335 17.870005 2.253766
v    297.836038 19.488102 4.112548
v    301.525298 18.381903 4.112548
v    300.638665 22.129995 4.112548
v    298.105112 18.483651 3.686412
v    297.426459 18.385777 4.323575
v    297.072519 18.340649 4.654606
v    297.626560 20.506651 3.686412
v    296.975983 20.290089 4.323575
v    296.639337 20.171854 4.654606
v    298.595695 18.396392 4.112548
v    302.090917 19.585640 4.112548
v    299.313387 22.017967 4.112548
v    301.404305 21.603608 5.999272
v    297.909083 20.414360 5.999272
v    300.686613 17.982033 5.999272
v    300.283351 22.530987 5.431214
v    301.502715 23.695764 6.998193
v    303.453107 25.541283 8.839982
v    304.422803 26.482373 9.273112
v    302.471475 20.614812 5.431214
v    303.465187 21.977196 6.998193
v    305.037237 24.154035 8.839982
v    305.842158 25.239421 9.273112
v    301.718982 21.097521 5.999272
v    298.190028 20.939922 5.999272
v    300.090990 17.962557 5.999272
v    298.281018 18.902479 12.880915
v    301.809972 19.060078 12.880915
v    299.909010 22.037443 12.880915
v    299.368609 17.298179 12.138531
v    297.256824 16.200978 14.349967
v    294.295170 14.673231 16.593377
v    290.050558 12.425015 18.132978
v    297.283352 20.564193 12.138531
v    295.399364 19.110208 14.349967
v    292.767172 17.066444 16.593377
v    288.941524 14.162029 18.132978
v    298.420020 18.861621 12.880915
v    301.775855 19.200887 12.880915
v    299.804125 21.937492 12.880915
v    301.579980 21.138379 19.681199
v    298.224145 20.799113 19.681199
v    300.195875 18.062508 19.681199
v    300.092243 23.086321 18.730039
v    302.666816 24.613192 21.511549
v    306.397055 26.803963 24.437697
v    311.428052 29.841764 26.321471
v    313.433363 30.946481 27.052377
v    302.956810 19.110529 18.730039
v    305.220141 21.069379 21.511549
v    308.479056 23.914310 24.437697
v    312.953198 27.724983 26.321471
v    314.635884 29.277477 27.052377
v    301.554633 21.012481 19.681199
v    298.345849 20.840111 19.681199
v    300.099518 18.147408 19.681199
v    298.445367 18.987519 30.874713
v    301.654151 19.159889 30.874713
v    299.900482 21.852592 30.874713
v    300.237547 16.392992 29.679986
v    296.855121 14.596613 33.238878
v    292.114767 12.089704 36.849227
v    284.663001 8.056125 39.565234
v    282.186067 6.839888 40.446172
v    280.538776 6.019255 40.425219
v    296.797064 21.675748 29.679986
v    293.786408 19.308527 33.238878
v    289.576823 15.986639 36.849227
v    282.874583 10.802185 39.565234
v    280.760663 9.028551 40.446172
v    279.344029 7.853751 40.425219
v    298.458123 19.144816 30.874713
v    301.511550 19.092287 30.874713
v    300.030327 21.762897 30.874713
v    301.541877 20.855184 48.402209
v    298.488450 20.907713 48.402209
v    299.969673 18.237103 48.402209
v    299.442436 24.422468 46.931002
v    303.753793 26.334078 51.313482
v    307.696675 28.131645 54.233978
v    309.772015 29.041638 55.759327
v    322.359839 34.742696 60.188667
v    328.972945 37.486874 60.107135
v    329.225145 37.553607 60.104236
v    303.456421 17.185350 46.931002
v    307.360896 19.830557 51.313482
v    310.973524 22.223567 54.233978
v    312.844359 23.502275 55.759327
v    324.345802 31.162052 60.188667
v    330.175314 35.319030 60.107135
v    330.365463 35.497641 60.104236
v    301.614895 20.429572 48.402209
v    298.820532 21.183754 48.402209
v    299.564573 18.386674 48.402209
v    298.385105 19.570428 69.780616
v    301.179468 18.816246 69.780616
v    300.435427 21.613326 69.780616
v    299.810564 14.708152 68.004509
v    294.199995 13.739680 73.295234
v    288.179444 12.635792 77.420512
v    286.360009 12.329427 78.662455
v    269.943623 9.361590 84.009750
v    260.337341 7.901098 83.899054
v    258.180407 7.875578 83.835495
v    297.206319 24.498320 68.004509
v    291.856089 22.551153 73.295234
v    286.082781 20.517801 77.420512
v    284.351595 19.879680 78.662455
v    268.630321 14.298701 84.009750
v    259.568015 10.793233 83.899054
v    257.683476 9.743696 83.835495
v    298.541706 19.394647 69.780616
v    301.253398 19.039757 69.780616
v    300.204896 21.565597 69.780616
v    301.458294 20.605353 89.654928
v    298.746602 20.960243 89.654928
v    299.795104 18.434403 89.654928
v    299.161182 25.745106 87.552824
v    305.589939 27.764860 93.814640
v    308.032589 28.560304 95.545990
v    314.590396 30.591017 100.166993
v    329.912806 35.538633 105.328027
v    333.435485 36.523586 106.495763
v    339.055004 38.129668 106.429225
v    343.121987 38.726636 106.383554
v    303.476390 15.349777 87.552824
v    309.445611 18.476553 93.814640
v    311.733504 19.644807 95.545990
v    317.801599 22.855236 100.166993
v    332.123427 30.213251 105.328027
v    335.308054 32.012570 106.495763
v    340.412976 34.858316 106.429225
v    343.707129 37.317031 106.383554
v    301.148136 20.944713 89.654928
v    298.607786 20.521958 89.654928
v    300.244078 18.533328 89.654928
v    298.851864 19.055287 113.600779
v    301.392214 19.478042 113.600779
v    299.755922 21.466672 113.600779
v    303.192086 14.056338 111.161680
v    296.736480 9.645039 118.427347
v    293.375039 7.296380 121.191051
v    287.708283 3.458206 125.798064
v    271.310005 -7.938810 132.199069
v    268.821202 -9.525920 133.141418
v    261.984844 -13.940887 133.048768
v    256.172532 -16.682768 132.977365
v    294.782322 24.276958 111.161680
v    289.210383 18.791713 118.427347
v    286.258346 15.945495 121.191051
v    281.400720 11.123963 125.798064
v    267.059080 -2.772542 132.199069
v    265.022387 -4.909115 133.141418
v    259.373525 -10.767278 133.048768
v    255.563640 -15.942765 132.977365
v    299.113248 19.072211 113.600779
v    301.246864 19.695945 113.600779
v    299.639887 21.231844 113.600779
v    300.886752 20.927789 134.092227
v    298.753136 20.304055 134.092227
v    300.360113 18.768156 134.092227
v    295.401297 25.894828 131.317664
v    302.094145 31.752555 139.582621
v    304.332265 33.752923 141.605710
v    311.469268 39.947750 147.967077
v    327.016017 53.773631 154.635835
v    331.095089 57.120988 156.320405
v    336.667768 61.747822 156.237945
v    344.092530 66.405762 156.140561
v    306.096700 15.672493 131.317664
v    311.645867 22.623316 139.582621
v    313.543008 24.949581 141.605710
v    319.408850 32.359343 147.967077
v    332.517755 48.515241 154.635835
v    335.677282 52.741470 156.320405
v    340.047455 58.517623 156.237945
v    344.364972 66.145370 156.140561
v    300.696938 20.710301 134.092227
v    299.036393 20.248415 134.092227
v    300.266670 19.041284 134.092227
v    299.303062 19.289699 146.994273
v    300.963607 19.751585 146.994273
v    299.733330 20.958716 146.994273
v    304.887325 14.121991 143.900064
v    300.602225 10.469713 149.132098
v    297.287855 7.737451 153.117194
v    286.678852 -1.229781 162.467589
v    276.266378 -10.247928 166.882887
v    265.656469 -18.724200 171.218267
v    256.638981 -24.192447 171.686295
v    294.030237 24.774815 143.900064
v    290.459995 20.421130 149.132098
v    287.791168 17.055469 153.117194
v    279.027027 6.278084 162.467589
v    270.208246 -4.303773 166.882887
v    261.934993 -15.072739 171.218267
v    256.638981 -24.192447 171.686295
v    299.507143 19.453915 146.994273
v    300.719352 19.846215 146.994273
v    299.773505 20.699869 146.994273
v    300.492857 20.546085 158.339140
v    299.280648 20.153785 158.339140
v    300.226495 19.300131 158.339140
v    294.010374 26.069260 154.956197
v    300.157091 31.767243 162.744684
v    313.173824 43.693344 175.256339
v    326.245119 56.004345 181.011848
v    336.714898 65.108848 185.441309
v    347.147356 72.239165 185.300539
v    306.649602 14.661992 154.956197
v    311.689578 21.358840 162.744684
v    322.222972 35.526227 175.256339
v    333.133675 49.787224 181.011848
v    341.120533 61.132635 185.441309
v    347.147356 72.239165 185.300539
v    300.495580 20.096476 158.339140
v    299.668659 20.380947 158.339140
v    299.835761 19.522577 158.339140
v    299.504420 19.903524 163.845102
v    300.331341 19.619053 163.845102
v    300.164239 20.477423 163.845102
v    301.246357 12.319052 160.219085
v    289.647884 11.309791 171.020380
v    273.449187 9.699183 181.977846
v    256.784510 8.474877 187.313540
v    244.913208 9.276091 191.011661
v    298.273989 27.587572 160.219085
v    287.143921 24.172201 171.020380
v    271.523988 19.588581 181.977846
v    255.617019 14.472069 187.313540
v    244.913208 9.276091 191.011661
v    299.766314 19.807217 163.845102
v    300.283798 19.894014 163.845102
v    299.949888 20.298769 163.845102
v    300.233686 20.192783 164.933000
v    299.716202 20.105986 164.933000
v    300.050112 19.701231 164.933000
v    298.062325 25.408850 157.819157
v    298.571441 25.595909 160.083438
v    302.059194 26.327934 174.048146
v    303.178511 26.783661 176.948343
v    308.839780 27.292537 188.743024
v    304.941954 17.069584 157.819157
v    305.222370 17.533865 160.083438
v    306.603971 20.818901 174.048146
v    307.264139 21.831193 176.948343
v    308.839780 27.292537 188.743024
v    302.464257 21.601951 1.088477
v    303.212390 21.882588 1.647213
v    303.977804 22.181375 1.910584
v    304.621748 22.403726 2.128071
v    305.178511 22.522623 2.121738
v    302.780428 20.952906 1.088477
v    303.462573 21.369005 1.647213
v    304.169662 21.787522 1.910584
v    304.741688 22.157510 2.128071
v    305.178511 22.522623 2.121738
v    298.172489 17.842118 1.549230
v    297.959030 17.700327 1.787360
v    297.041927 17.097782 2.547120
v    295.960097 16.366758 2.965627
v    295.262996 15.934976 3.227407
v    294.403856 15.517190 3.216729
v    297.495271 18.687527 1.549230
v    297.310310 18.510161 1.787360
v    296.522125 17.746680 2.547120
v    295.572606 16.850486 2.965627
v    294.999085 16.264432 3.227407
v    294.403856 15.517190 3.216729
v    302.268286 21.626785 2.323058
v    302.841297 21.782360 2.873923
v    304.194455 22.167688 3.820973
v    305.041840 22.420053 4.104378
v    306.374609 22.760026 4.543484
v    307.081355 22.838746 4.764507
v    307.411051 22.879459 4.760816
v    302.771593 20.331389 2.323058
v    303.299329 20.603493 2.873923
v    304.557680 21.232830 3.820973
v    305.353164 21.618779 4.104378
v    306.565854 22.267808 4.543484
v    307.140354 22.686897 4.764507
v    307.411051 22.879459 4.760816
v    297.072519 18.340649 4.654606
v    296.750482 18.299590 4.955799
v    294.855880 18.034299 6.243539
v    293.095865 17.766222 6.814188
v    291.237223 17.558191 7.411259
v    290.866592 17.568338 7.526498
v    289.790759 17.584945 7.514543
v    296.639337 20.171854 4.654606
v    296.333035 20.064276 4.955799
v    294.520375 19.452593 6.243539
v    292.826788 18.903700 6.814188
v    291.071931 18.256937 7.411259
v    290.745128 18.081808 7.526498
v    289.790759 17.584945 7.514543
v    304.422803 26.482373 9.273112
v    305.877197 27.893863 9.922741
v    307.340883 29.205687 10.550226
v    307.751165 29.577671 10.543921
v    309.357853 30.685946 10.522235
v    305.842158 25.239421 9.273112
v    307.049416 26.867332 9.922741
v    308.156653 28.491305 10.550226
v    308.471252 28.947079 10.543921
v    309.357853 30.685946 10.522235
v    290.050558 12.425015 18.132978
v    288.089733 11.477434 18.828459
v    286.927334 10.911414 18.813740
v    284.506402 10.107780 18.785398
v    288.941524 14.162029 18.132978
v    287.256789 12.782024 18.828459
v    286.254174 11.965745 18.813740
v    284.506402 10.107780 18.785398
v    313.433363 30.946481 27.052377
v    314.116412 31.322770 27.301338
v    315.129271 31.888354 27.288131
v    318.168387 33.090365 27.251819
v    314.635884 29.277477 27.052377
v    315.209041 29.806288 27.301338
v    316.066160 30.588027 27.288131
v    318.168387 33.090365 27.251819
v    280.538776 6.019255 40.425219
v    279.852229 5.677237 40.416487
v    275.968038 4.348783 40.370877
v    279.344029 7.853751 40.425219
v    278.753614 7.364127 40.416487
v    275.968038 4.348783 40.370877
v    329.225145 37.553607 60.104236
v    331.393437 38.127348 60.079316
v    333.824677 38.760469 59.634285
v    330.365463 35.497641 60.104236
v    332.000269 37.033245 60.079316
v    333.824677 38.760469 59.634285
v    258.180407 7.875578 83.835495
v    254.298806 7.843201 83.147886
v    257.683476 9.743696 83.835495
v    254.298806 7.843201 83.147886
v    343.121987 38.726636 106.383554
v    346.201265 39.178625 106.348974
v    343.707129 37.317031 106.383554
v    346.201265 39.178625 106.348974
v    256.172532 -16.682768 132.977365
v    254.769300 -17.344724 132.960126
v    254.410041 -17.512479 132.889891
v    255.563640 -15.942765 132.977365
v    254.643842 -17.192252 132.960126
v    254.410041 -17.512479 132.889891
v    344.092530 66.405762 156.140561
v    344.743530 66.814168 156.132022
v    344.364972 66.145370 156.140561
v    344.743530 66.814168 156.132022
mtllib usm_40_2.5D_2018-08-17_7.mtl
usemtl APPID_647722224_2676410547696 
o vid_3 
f 3 2 1
f 4 5 6
f 1 6 5
f 1 5 3
f 3 5 4
f 4 2 3
f 2 4 6
f 6 1 2
usemtl APPID_647717968_2676410547568 
o vid_4 
f 7 10 11
f 7 11 8
f 8 11 12
f 8 12 9
usemtl APPID_647722224_2676410547696 
o vid_5 
f 15 14 13
f 16 17 18
f 13 18 17
f 13 17 15
f 15 17 16
f 16 14 15
f 14 16 18
f 18 13 14
usemtl APPID_647717968_2676410547568 
o vid_6 
f 19 21 22
f 19 22 20
f 19 21 22
f 19 22 20
usemtl APPID_647722224_2676410547696 
o vid_7 
f 25 24 23
f 26 27 28
f 23 28 27
f 23 27 25
f 25 27 26
f 26 24 25
f 24 26 28
f 28 23 24
usemtl APPID_647717968_2676410547568 
o vid_8 
f 29 32 33
f 29 33 30
f 30 33 34
f 30 34 31
usemtl APPID_647722224_2676410547696 
o vid_9 
f 37 36 35
f 38 39 40
f 35 40 39
f 35 39 37
f 37 39 38
f 38 36 37
f 36 38 40
f 40 35 36
usemtl APPID_647717968_2676410547568 
o vid_10 
f 41 44 45
f 41 45 42
f 42 45 46
f 42 46 43
usemtl APPID_647722224_2676410547696 
o vid_11 
f 49 48 47
f 50 51 52
f 47 52 51
f 47 51 49
f 49 51 50
f 50 48 49
f 48 50 52
f 52 47 48
usemtl APPID_647717968_2676410547568 
o vid_12 
f 53 57 58
f 54 58 59
f 53 58 54
f 54 59 55
f 55 59 60
f 55 60 56
usemtl APPID_647722224_2676410547696 
o vid_13 
f 63 62 61
f 64 65 66
f 61 66 65
f 61 65 63
f 63 65 64
f 64 62 63
f 62 64 66
f 66 61 62
usemtl APPID_647717968_2676410547568 
o vid_14 
f 67 71 72
f 68 72 73
f 67 72 68
f 68 73 69
f 69 73 74
f 69 74 70
usemtl APPID_647722224_2676410547696 
o vid_15 
f 77 76 75
f 78 79 80
f 75 80 79
f 75 79 77
f 77 79 78
f 78 76 77
f 76 78 80
f 80 75 76
usemtl APPID_647717968_2676410547568 
o vid_16 
f 81 86 87
f 82 87 88
f 83 88 89
f 81 87 82
f 82 88 83
f 83 89 84
f 84 89 90
f 84 90 85
usemtl APPID_647722224_2676410547696 
o vid_17 
f 93 92 91
f 94 95 96
f 91 96 95
f 91 95 93
f 93 95 94
f 94 92 93
f 92 94 96
f 96 91 92
usemtl APPID_647717968_2676410547568 
o vid_18 
f 97 103 104
f 98 104 105
f 99 105 106
f 100 106 107
f 97 104 98
f 98 105 99
f 99 106 100
f 100 107 101
f 101 107 108
f 101 108 102
usemtl APPID_647722224_2676410547696 
o vid_19 
f 111 110 109
f 112 113 114
f 109 114 113
f 109 113 111
f 111 113 112
f 112 110 111
f 110 112 114
f 114 109 110
usemtl APPID_647717968_2676410547568 
o vid_20 
f 115 122 123
f 116 123 124
f 117 124 125
f 118 125 126
f 119 126 127
f 115 123 116
f 116 124 117
f 117 125 118
f 118 126 119
f 119 127 120
f 120 127 128
f 120 128 121
usemtl APPID_647722224_2676410547696 
o vid_21 
f 131 130 129
f 132 133 134
f 129 134 133
f 129 133 131
f 131 133 132
f 132 130 131
f 130 132 134
f 134 129 130
usemtl APPID_647717968_2676410547568 
o vid_22 
f 135 142 143
f 136 143 144
f 137 144 145
f 138 145 146
f 139 146 147
f 135 143 136
f 136 144 137
f 137 145 138
f 138 146 139
f 139 147 140
f 140 147 148
f 140 148 141
usemtl APPID_647722224_2676410547696 
o vid_23 
f 151 150 149
f 152 153 154
f 149 154 153
f 149 153 151
f 151 153 152
f 152 150 151
f 150 152 154
f 154 149 150
usemtl APPID_647717968_2676410547568 
o vid_24 
f 155 163 164
f 156 164 165
f 157 165 166
f 158 166 167
f 159 167 168
f 160 168 169
f 155 164 156
f 156 165 157
f 157 166 158
f 158 167 159
f 159 168 160
f 160 169 161
f 161 169 170
f 161 170 162
usemtl APPID_647722224_2676410547696 
o vid_25 
f 173 172 171
f 174 175 176
f 171 176 175
f 171 175 173
f 173 175 174
f 174 172 173
f 172 174 176
f 176 171 172
usemtl APPID_647717968_2676410547568 
o vid_26 
f 177 185 186
f 178 186 187
f 179 187 188
f 180 188 189
f 181 189 190
f 182 190 191
f 177 186 178
f 178 187 179
f 179 188 180
f 180 189 181
f 181 190 182
f 182 191 183
f 183 191 192
f 183 192 184
usemtl APPID_647722224_2676410547696 
o vid_27 
f 195 194 193
f 196 197 198
f 193 198 197
f 193 197 195
f 195 197 196
f 196 194 195
f 194 196 198
f 198 193 194
usemtl APPID_647717968_2676410547568 
o vid_28 
f 199 207 208
f 200 208 209
f 201 209 210
f 202 210 211
f 203 211 212
f 204 212 213
f 199 208 200
f 200 209 201
f 201 210 202
f 202 211 203
f 203 212 204
f 204 213 205
f 205 213 214
f 205 214 206
usemtl APPID_647722224_2676410547696 
o vid_29 
f 217 216 215
f 218 219 220
f 215 220 219
f 215 219 217
f 217 219 218
f 218 216 217
f 216 218 220
f 220 215 216
usemtl APPID_647717968_2676410547568 
o vid_30 
f 221 228 229
f 222 229 230
f 223 230 231
f 224 231 232
f 225 232 233
f 221 229 222
f 222 230 223
f 223 231 224
f 224 232 225
f 225 233 226
f 226 233 234
usemtl APPID_647722224_2676410547696 
o vid_31 
f 237 236 235
f 238 239 240
f 235 240 239
f 235 239 237
f 237 239 238
f 238 236 237
f 236 238 240
f 240 235 236
usemtl APPID_647717968_2676410547568 
o vid_32 
f 241 247 248
f 242 248 249
f 243 249 250
f 244 250 251
f 241 248 242
f 242 249 243
f 243 250 244
f 244 251 245
f 245 251 252
usemtl APPID_647722224_2676410547696 
o vid_33 
f 255 254 253
f 256 257 258
f 253 258 257
f 253 257 255
f 255 257 256
f 256 254 255
f 254 256 258
f 258 253 254
usemtl APPID_647717968_2676410547568 
o vid_34 
f 259 264 265
f 260 265 266
f 261 266 267
f 259 265 260
f 260 266 261
f 261 267 262
f 262 267 268
usemtl APPID_647722224_2676410547696 
o vid_35 
f 271 270 269
f 272 273 274
f 269 274 273
f 269 273 271
f 271 273 272
f 272 270 271
f 270 272 274
f 274 269 270
usemtl APPID_647717968_2676410547568 
o vid_36 
f 275 280 281
f 276 281 282
f 277 282 283
f 275 281 276
f 276 282 277
f 277 283 278
f 278 283 284
usemtl APPID_647730624_2676410548080 
o vid_10000004 
f 285 290 291
f 286 291 292
f 287 292 293
f 285 291 286
f 286 292 287
f 287 293 288
f 288 293 294
usemtl APPID_647730624_2676410548080 
o vid_10000006 
f 295 301 302
f 296 302 303
f 297 303 304
f 298 304 305
f 295 302 296
f 296 303 297
f 297 304 298
f 298 305 299
f 299 305 306
usemtl APPID_647730624_2676410548080 
o vid_10000008 
f 307 314 315
f 308 315 316
f 309 316 317
f 310 317 318
f 311 318 319
f 307 315 308
f 308 316 309
f 309 317 310
f 310 318 311
f 311 319 312
f 312 319 320
usemtl APPID_647730624_2676410548080 
o vid_10000010 
f 321 328 329
f 322 329 330
f 323 330 331
f 324 331 332
f 325 332 333
f 321 329 322
f 322 330 323
f 323 331 324
f 324 332 325
f 325 333 326
f 326 333 334
usemtl APPID_647730624_2676410548080 
o vid_10000012 
f 335 340 341
f 336 341 342
f 337 342 343
f 335 341 336
f 336 342 337
f 337 343 338
f 338 343 344
usemtl APPID_647730624_2676410548080 
o vid_10000014 
f 345 349 350
f 346 350 351
f 345 350 346
f 346 351 347
f 347 351 352
usemtl APPID_647730624_2676410548080 
o vid_10000016 
f 353 357 358
f 354 358 359
f 353 358 354
f 354 359 355
f 355 359 360
usemtl APPID_647730624_2676410548080 
o vid_10000018 
f 361 364 365
f 361 365 362
f 362 365 366
usemtl APPID_647730624_2676410548080 
o vid_10000020 
f 367 370 371
f 367 371 368
f 368 371 372
usemtl APPID_647730624_2676410548080 
o vid_10000022 
f 373 375 376
f 373 376 374
f 373 375 376
usemtl APPID_647730624_2676410548080 
o vid_10000024 
f 377 379 380
f 377 380 378
f 377 379 380
usemtl APPID_647730624_2676410548080 
o vid_10000026 
f 381 384 385
f 381 385 382
f 382 385 386
usemtl APPID_647730624_2676410548080 
o vid_10000028 
f 387 389 390
f 387 390 388
f 387 389 390
