# File generated by PlantGL - Fri Sep  4 14:44:05 2026
v    17.752484 418.905161 0.000000
v    22.071916 418.601013 0.000000
v    20.175600 422.493825 0.000000
v    22.247516 421.094839 0.362700
v    17.928084 421.398987 0.362700
v    19.824400 417.506175 0.362700
v    22.060383 421.451217 0.193435
v    22.204295 421.506085 0.336555
v    22.570192 421.638749 0.697645
v    23.281335 421.906535 1.209144
v    23.796651 422.107694 1.386459
v    24.498844 422.350158 1.623619
v    24.799180 422.409054 1.718745
v    25.054795 422.462356 1.715844
v    22.412780 420.727807 0.193435
v    22.544694 420.807303 0.336555
v    22.874704 421.013638 0.697645
v    23.523929 421.408532 1.209144
v    23.999977 421.690299 1.386459
v    24.623747 422.093755 1.623619
v    24.855257 422.293939 1.718745
v    25.054795 422.462356 1.715844
v    21.879284 421.505407 0.362700
v    17.756638 420.874804 0.362700
v    20.364078 417.619789 0.362700
v    18.120716 418.494593 0.589630
v    22.243362 419.125196 0.589630
v    19.635922 422.380211 0.589630
v    18.485533 418.066435 0.352424
v    18.320646 417.956909 0.536368
v    17.846335 417.652949 1.059022
v    16.956874 417.067379 1.775837
v    16.333824 416.646366 2.016865
v    15.448781 416.098173 2.349221
v    15.034448 415.915265 2.489990
v    14.724351 415.773924 2.486204
v    17.782505 418.944065 0.352424
v    17.639631 418.807058 0.536368
v    17.239477 418.410525 1.059022
v    16.473891 417.670314 1.775837
v    15.927042 417.154175 2.016865
v    15.198897 416.410118 2.349221
v    14.929966 416.045696 2.489990
v    14.724351 415.773924 2.486204
v    17.841416 419.161313 0.589630
v    21.805616 418.549955 0.589630
v    20.352968 422.288732 0.589630
v    22.158584 420.838687 1.053978
v    18.194384 421.450045 1.053978
v    19.647032 417.711268 1.053978
v    21.856796 421.550723 0.727906
v    22.119419 421.626677 0.981951
v    22.865525 421.829249 1.699219
v    24.273416 422.230162 2.684576
v    25.265679 422.525674 3.016435
v    26.652357 422.879399 3.473303
v    27.269409 422.948128 3.666275
v    27.736122 423.005761 3.661050
v    22.416692 420.109680 0.727906
v    22.661705 420.230961 0.981951
v    23.348858 420.585262 1.699219
v    24.658108 421.240055 2.684576
v    25.589596 421.691989 3.016435
v    26.851337 422.367271 3.473303
v    27.352927 422.733173 3.666275
v    27.736122 423.005761 3.661050
v    22.048786 420.484652 1.053978
v    18.555886 421.531974 1.053978
v    19.395328 417.983374 1.053978
v    17.951214 419.515348 1.829186
v    21.444114 418.468026 1.829186
v    20.604672 422.016626 1.829186
v    18.226711 418.487973 1.389518
v    17.629130 418.401790 1.950565
v    16.828668 418.299732 2.699215
v    14.873901 418.026016 4.027849
v    13.191358 417.769739 4.573380
v    11.273693 417.555102 5.189411
v    10.752221 417.569379 5.351551
v    9.787885 417.584265 5.340835
v    17.737207 420.557268 1.389518
v    17.164349 420.366577 1.950565
v    16.402999 420.099180 2.699215
v    14.532774 419.468072 4.027849
v    12.913736 418.943340 4.573380
v    11.103151 418.276038 5.189411
v    10.643345 418.029634 5.351551
v    9.787885 417.584265 5.340835
v    18.889862 418.732308 1.829186
v    21.652923 419.672438 1.829186
v    19.457215 421.595254 1.829186
v    21.110138 421.267692 2.769464
v    18.347077 420.327562 2.769464
v    20.542785 418.404746 2.769464
v    20.006383 422.178725 2.187947
v    20.781756 422.919387 3.184363
v    21.364179 423.457733 3.920187
v    23.259354 425.253225 5.677471
v    25.130297 427.068976 6.513159
v    27.030868 428.772357 7.327937
v    28.665270 429.895070 7.409787
v    22.158835 420.293788 2.187947
v    22.790720 421.160105 3.184363
v    23.247515 421.808465 3.920187
v    24.777261 423.923970 5.677471
v    26.330287 426.018126 6.513159
v    27.768015 428.126826 7.327937
v    28.665270 429.895070 7.409787
v    21.090308 420.696130 2.769464
v    18.851979 420.596169 2.769464
v    20.057713 418.707701 2.769464
v    18.909692 419.303870 5.235228
v    21.148021 419.403831 5.235228
v    19.942287 421.292299 5.235228
v    19.916805 417.827227 4.480790
v    19.374759 417.545601 5.048415
v    17.754673 416.737359 6.728135
v    14.742770 415.188184 9.007973
v    12.650852 414.080172 9.766751
v    9.665636 412.647691 10.823815
v    8.269233 412.202585 11.279348
v    7.265529 411.869404 11.267597
v    17.993964 420.838859 4.480790
v    17.510389 420.465654 5.048415
v    16.095442 419.336115 6.728135
v    13.422666 417.255785 9.007973
v    11.537231 415.824370 9.766751
v    8.981545 413.719143 10.823815
v    7.990145 412.639705 11.279348
v    7.265529 411.869404 11.267597
v    19.244730 419.455826 5.235228
v    20.848904 419.618004 5.235228
v    19.906367 420.926170 5.235228
v    20.755270 420.544174 8.055414
v    19.151096 420.381996 8.055414
v    20.093633 419.073830 8.055414
v    19.348955 422.378011 7.095327
v    20.369658 422.983347 8.198071
v    22.014367 423.922609 9.955265
v    25.730644 426.105973 12.856554
v    28.765431 427.938430 13.992880
v    32.456130 429.971619 15.338084
v    33.685460 430.440945 15.747071
v    35.471796 431.147465 15.725728
v    22.049638 418.629678 7.095327
v    22.946947 419.406275 8.198071
v    24.358539 420.669085 9.955265
v    27.606009 423.503116 12.856554
v    30.304891 425.801782 13.992880
v    33.401812 428.659089 15.338084
v    34.236146 429.676638 15.747071
v    35.471796 431.147465 15.725728
v    20.500242 420.325791 8.055414
v    19.467735 420.270327 8.055414
v    20.032022 419.403882 8.055414
v    19.499758 419.674209 9.465000
v    20.532265 419.729673 9.465000
v    19.967978 420.596118 9.465000
v    20.319246 417.726121 7.157600
v    18.581427 417.077767 12.067937
v    15.814173 416.068970 17.204755
v    12.989830 415.434510 20.106718
v    18.049385 421.211423 7.157600
v    16.753713 419.884165 12.067937
v    14.712128 417.761125 17.204755
v    12.989830 415.434510 20.106718
mtllib usm_11_2.5D_2018-08-10_10.mtl
usemtl APPID_2962611536_1982943115232 
o vid_3 
f 3 2 1
f 4 5 6
f 1 6 5
f 1 5 3
f 3 5 4
f 4 2 3
f 2 4 6
f 6 1 2
usemtl APPID_2962607616_1982943115104 
o vid_4 
f 7 15 16
f 8 16 17
f 9 17 18
f 10 18 19
f 11 19 20
f 12 20 21
f 7 16 8
f 8 17 9
f 9 18 10
f 10 19 11
f 11 20 12
f 12 21 13
f 13 21 22
usemtl APPID_2962611536_1982943115232 
o vid_5 
f 25 24 23
f 26 27 28
f 23 28 27
f 23 27 25
f 25 27 26
f 26 24 25
f 24 26 28
f 28 23 24
usemtl APPID_2962607616_1982943115104 
o vid_6 
f 29 37 38
f 30 38 39
f 31 39 40
f 32 40 41
f 33 41 42
f 34 42 43
f 29 38 30
f 30 39 31
f 31 40 32
f 32 41 33
f 33 42 34
f 34 43 35
f 35 43 44
usemtl APPID_2962611536_1982943115232 
o vid_7 
f 47 46 45
f 48 49 50
f 45 50 49
f 45 49 47
f 47 49 48
f 48 46 47
f 46 48 50
f 50 45 46
usemtl APPID_2962607616_1982943115104 
o vid_8 
f 51 59 60
f 52 60 61
f 53 61 62
f 54 62 63
f 55 63 64
f 56 64 65
f 51 60 52
f 52 61 53
f 53 62 54
f 54 63 55
f 55 64 56
f 56 65 57
f 57 65 66
usemtl APPID_2962611536_1982943115232 
o vid_9 
f 69 68 67
f 70 71 72
f 67 72 71
f 67 71 69
f 69 71 70
f 70 68 69
f 68 70 72
f 72 67 68
usemtl APPID_2962607616_1982943115104 
o vid_10 
f 73 81 82
f 74 82 83
f 75 83 84
f 76 84 85
f 77 85 86
f 78 86 87
f 73 82 74
f 74 83 75
f 75 84 76
f 76 85 77
f 77 86 78
f 78 87 79
f 79 87 88
usemtl APPID_2962611536_1982943115232 
o vid_11 
f 91 90 89
f 92 93 94
f 89 94 93
f 89 93 91
f 91 93 92
f 92 90 91
f 90 92 94
f 94 89 90
usemtl APPID_2962607616_1982943115104 
o vid_12 
f 95 102 103
f 96 103 104
f 97 104 105
f 98 105 106
f 99 106 107
f 95 103 96
f 96 104 97
f 97 105 98
f 98 106 99
f 99 107 100
f 100 107 108
usemtl APPID_2962611536_1982943115232 
o vid_13 
f 111 110 109
f 112 113 114
f 109 114 113
f 109 113 111
f 111 113 112
f 112 110 111
f 110 112 114
f 114 109 110
usemtl APPID_2962607616_1982943115104 
o vid_14 
f 115 123 124
f 116 124 125
f 117 125 126
f 118 126 127
f 119 127 128
f 120 128 129
f 115 124 116
f 116 125 117
f 117 126 118
f 118 127 119
f 119 128 120
f 120 129 121
f 121 129 130
usemtl APPID_2962611536_1982943115232 
o vid_15 
f 133 132 131
f 134 135 136
f 131 136 135
f 131 135 133
f 133 135 134
f 134 132 133
f 132 134 136
f 136 131 132
usemtl APPID_2962607616_1982943115104 
o vid_16 
f 137 145 146
f 138 146 147
f 139 147 148
f 140 148 149
f 141 149 150
f 142 150 151
f 137 146 138
f 138 147 139
f 139 148 140
f 140 149 141
f 141 150 142
f 142 151 143
f 143 151 152
usemtl APPID_2962611536_1982943115232 
o vid_17 
f 155 154 153
f 156 157 158
f 153 158 157
f 153 157 155
f 155 157 156
f 156 154 155
f 154 156 158
f 158 153 154
usemtl APPID_2962607616_1982943115104 
o vid_18 
f 159 163 164
f 160 164 165
f 159 164 160
f 160 165 161
f 161 165 166
