# File generated by PlantGL - Fri Sep  4 14:43:34 2026
v    257.752484 18.905161 0.000000
v    262.071916 18.601013 0.000000
v    260.175600 22.493825 0.000000
v    262.247516 21.094839 0.362700
v    257.928084 21.398987 0.362700
v    259.824400 17.506175 0.362700
v    262.064221 21.444161 0.198447
v    262.244723 21.512978 0.377955
v    262.308079 21.535949 0.440479
v    262.409589 20.735179 0.198447
v    262.575043 20.834887 0.377955
v    262.632185 20.870615 0.440479
v    261.879284 21.505407 0.362700
v    257.756638 20.874804 0.362700
v    260.364078 17.619789 0.362700
v    258.120716 18.494593 0.589630
v    262.243362 19.125196 0.589630
v    259.635922 22.380211 0.589630
v    258.486431 18.065430 0.351415
v    258.330628 17.961937 0.525226
v    257.844394 17.650337 1.061018
v    256.951151 17.062277 1.780880
v    256.880493 17.014532 1.808214
v    257.781720 18.945160 0.351415
v    257.646717 18.815702 0.525226
v    257.236504 18.409201 1.061018
v    256.467663 17.665842 1.780880
v    256.405647 17.607309 1.808214
v    257.841416 19.161313 0.589630
v    261.805616 18.549955 0.589630
v    260.352968 22.288732 0.589630
v    262.158584 20.838687 1.053978
v    258.194384 21.450045 1.053978
v    259.647032 17.711268 1.053978
v    261.853576 21.556783 0.716682
v    262.898357 21.841472 1.721429
v    264.354709 22.256185 2.740703
v    265.103629 22.479226 2.991177
v    265.426127 22.561492 3.097430
v    262.418409 20.103036 0.716682
v    263.381331 20.598412 1.721429
v    264.735646 21.275743 2.740703
v    265.438696 21.616845 2.991177
v    265.732137 21.773894 3.097430
v    262.163962 20.511898 1.053978
v    258.474702 21.618097 1.053978
v    259.361335 17.870005 1.053978
v    257.836038 19.488102 1.829186
v    261.525298 18.381903 1.829186
v    260.638665 22.129995 1.829186
v    258.117611 18.443343 1.362918
v    256.633023 18.252023 2.751851
v    254.559994 17.961748 4.160866
v    253.441023 17.791312 4.523670
v    251.773117 17.604629 5.059468
v    257.619674 20.548287 1.362918
v    256.206713 20.054175 2.751851
v    254.223342 19.384885 4.160866
v    253.146605 19.035914 4.523670
v    251.571833 18.455523 5.059468
v    258.595695 18.396392 1.829186
v    262.090917 19.585640 1.829186
v    259.313387 22.017967 1.829186
v    261.404305 21.603608 2.769464
v    257.909083 20.414360 2.769464
v    260.686613 17.982033 2.769464
v    260.271978 22.535098 2.140185
v    261.752820 23.909066 4.014701
v    263.803655 25.852032 5.916321
v    264.961890 26.976099 6.433665
v    267.018565 28.819387 7.315365
v    267.200532 28.941727 7.383516
v    262.477051 20.604081 2.140185
v    263.643625 22.253258 4.014701
v    265.299018 24.542519 5.916321
v    266.260441 25.838938 6.433665
v    267.816257 28.120835 7.315365
v    267.913518 28.317354 7.383516
v    261.718982 21.097521 2.769464
v    258.190028 20.939922 2.769464
v    260.090990 17.962557 2.769464
v    258.281018 18.902479 5.235228
v    261.809972 19.060078 5.235228
v    259.909010 22.037443 5.235228
v    259.308866 17.403337 4.406076
v    256.926646 16.214876 6.875983
v    253.616464 14.512280 9.381602
v    253.038999 14.206418 9.591059
v    249.758146 12.632074 10.752808
v    248.803973 12.327930 11.064077
v    257.353605 20.465746 4.406076
v    255.273029 18.804839 6.875983
v    252.335558 16.518487 9.381602
v    251.815092 16.123351 9.591059
v    249.006306 13.809635 10.752808
v    248.328876 13.072047 11.064077
v    258.420020 18.861621 5.235228
v    261.775855 19.200887 5.235228
v    259.804125 21.937492 5.235228
v    261.579980 21.138379 9.070287
v    258.224145 20.799113 9.070287
v    260.195875 18.062508 9.070287
v    260.005579 23.192412 8.003668
v    261.338735 23.983051 9.443981
v    262.964512 24.911501 11.180948
v    267.093151 27.337134 14.404166
v    270.722624 29.528672 15.763163
v    274.822847 31.787467 17.257632
v    275.898278 32.198038 17.615418
v    276.861318 32.578933 17.603912
v    263.030013 18.994738 8.003668
v    264.202003 20.009063 9.443981
v    265.597346 21.257338 11.180948
v    269.205158 24.405836 14.404166
v    272.432904 27.154940 15.763163
v    275.873462 30.329296 17.257632
v    276.603346 31.219459 17.615418
v    277.269504 32.012404 17.603912
v    261.554633 21.012481 9.070287
v    258.345849 20.840111 9.070287
v    260.099518 18.147408 9.070287
v    258.445367 18.987519 15.537192
v    261.654151 19.159889 15.537192
v    259.900482 21.852592 15.537192
v    260.392229 16.174555 14.197616
v    256.977531 14.361036 17.790464
v    251.273021 11.367375 22.236058
v    244.393620 7.643613 24.743450
v    240.103954 5.537279 26.269098
v    235.640034 3.849121 26.215670
v    256.659825 21.905546 14.197616
v    253.620445 19.515738 17.790464
v    248.575819 15.508845 22.236058
v    242.388374 10.722607 24.743450
v    238.727392 7.650947 26.269098
v    235.378416 4.250827 26.215670
v    258.458123 19.144816 15.537192
v    261.511550 19.092287 15.537192
v    260.030327 21.762897 15.537192
v    261.541877 20.855184 23.570456
v    258.488450 20.907713 23.570456
v    259.969673 18.237103 23.570456
v    259.464952 24.356494 21.927942
v    262.527474 25.714384 25.040986
v    264.293652 26.463044 26.820715
v    271.046847 29.424177 31.784229
v    278.135876 32.634817 34.278681
v    284.815382 35.345965 36.580051
v    289.576511 36.599853 36.679949
v    263.412376 17.239383 21.927942
v    266.185875 19.118375 25.040986
v    267.756151 20.220241 26.820715
v    273.843886 24.381182 31.784229
v    280.321103 28.694905 34.278681
v    286.157755 32.925700 36.580051
v    289.742425 36.300714 36.679949
v    261.486319 20.395370 23.570456
v    258.914440 21.089505 23.570456
v    259.599241 18.515125 23.570456
v    258.513681 19.604630 36.455601
v    261.085560 18.910495 36.455601
v    260.400759 21.484875 36.455601
v    259.916934 14.878976 34.489373
v    255.340967 14.089092 38.804476
v    253.698749 13.833305 40.346435
v    244.994145 12.367582 46.288181
v    235.015936 10.563671 49.538375
v    226.734917 9.403768 52.207869
v    220.049442 9.284615 52.133474
v    257.383505 24.402924 34.489373
v    253.019870 22.814819 38.804476
v    251.467609 22.220855 40.346435
v    243.185210 19.167930 46.288181
v    233.629504 15.775700 49.538375
v    225.866655 12.667835 52.207869
v    220.005574 9.449527 52.133474
v    258.885671 19.537431 36.455601
v    260.957761 19.266248 36.455601
v    260.156567 21.196322 36.455601
v    261.114329 20.462569 56.069611
v    259.042239 20.733752 56.069611
v    259.843433 18.803678 56.069611
v    258.643010 25.985277 53.771654
v    265.670733 28.193210 60.616883
v    275.517152 31.264878 67.561084
v    290.821383 36.206624 72.715995
v    296.141318 37.694096 74.479505
v    300.744914 39.009823 74.424996
v    308.429911 40.137858 74.338695
v    263.280635 14.813248 53.771654
v    269.806007 18.231345 60.616883
v    278.933131 23.035792 67.561084
v    293.237967 30.385077 72.715995
v    298.047378 33.102401 74.479505
v    302.229408 35.433679 74.424996
v    308.454059 40.079684 74.338695
v    260.697931 20.574274 56.069611
v    259.153699 20.317289 56.069611
v    260.148370 19.108438 56.069611
v    259.302069 19.425726 79.423717
v    260.846301 19.682711 79.423717
v    259.851630 20.891562 79.423717
v    263.664784 14.420126 76.801712
v    257.936680 10.505950 83.248589
v    246.963633 3.095592 92.535665
v    235.063859 -5.174905 97.180696
v    226.483058 -10.646885 100.429690
v    217.161749 -15.248310 100.313692
v    255.230332 24.670750 76.801712
v    250.286312 19.803654 83.248589
v    240.901489 10.463083 92.535665
v    230.494161 0.378776 97.180696
v    223.472128 -6.987618 100.429690
v    217.161749 -15.248310 100.313692
v    259.564773 19.544632 79.423717
v    260.611974 19.850767 79.423717
v    259.823253 20.604602 79.423717
v    260.435227 20.455368 97.163361
v    259.388026 20.149233 97.163361
v    260.176747 19.395398 97.163361
v    255.802743 24.592624 94.242517
v    262.960184 30.652396 102.943221
v    272.817626 39.208530 111.729375
v    282.721122 47.334121 115.840142
v    290.900281 52.330282 118.819068
v    264.777679 16.014658 94.242517
v    270.507680 23.438733 102.943221
v    278.609429 33.672905 111.729375
v    286.278993 43.933618 115.840142
v    290.900281 52.330282 118.819068
v    260.269480 20.274647 97.163361
v    259.627409 20.096053 97.163361
v    260.103111 19.629300 97.163361
v    259.730520 19.725353 102.181000
v    260.372591 19.903947 102.181000
v    259.896889 20.370700 102.181000
v    262.040351 15.542265 96.248538
v    261.437843 15.244789 99.041817
v    258.822621 14.395983 109.775594
v    257.615017 13.747992 113.055443
v    252.958762 12.823750 122.884735
v    255.504321 21.955328 96.248538
v    255.218340 21.347279 99.041817
v    254.419353 18.716409 109.775594
v    253.794412 17.496717 113.055443
v    252.958762 12.823750 122.884735
v    262.308079 21.535949 0.440479
v    262.558619 21.626788 0.687727
v    263.248705 21.886645 1.184081
v    263.801750 22.102532 1.374378
v    264.483152 22.337817 1.604516
v    264.717030 22.383681 1.678593
v    265.025208 22.447944 1.675095
v    262.632185 20.870615 0.440479
v    262.858152 21.011898 0.687727
v    263.488154 21.395099 1.184081
v    263.999056 21.697497 1.374378
v    264.604356 22.089006 1.604516
v    264.784638 22.244893 1.678593
v    265.025208 22.447944 1.675095
v    256.880493 17.014532 1.808214
v    256.338115 16.648031 2.018034
v    255.449309 16.097508 2.351804
v    255.018796 15.907456 2.498070
v    254.722397 15.772359 2.494451
v    256.405647 17.607309 1.808214
v    255.929603 17.157999 2.018034
v    255.198362 16.410778 2.351804
v    254.918929 16.032125 2.498070
v    254.722397 15.772359 2.494451
v    265.426127 22.561492 3.097430
v    266.538038 22.845126 3.463771
v    267.473093 22.949276 3.756193
v    267.645558 22.970573 3.754262
v    265.732137 21.773894 3.097430
v    266.743867 22.315370 3.463771
v    267.503956 22.869844 3.756193
v    267.645558 22.970573 3.754262
v    251.773117 17.604629 5.059468
v    251.407341 17.563689 5.176970
v    250.160490 17.597826 5.564650
v    249.864525 17.602395 5.561361
v    251.571833 18.455523 5.059468
v    251.226482 18.328241 5.176970
v    250.127075 17.739083 5.564650
v    249.864525 17.602395 5.561361
v    267.200532 28.941727 7.383516
v    268.341615 29.708895 7.810880
v    268.747277 29.988716 7.805405
v    267.913518 28.317354 7.383516
v    268.523425 29.549681 7.810880
v    268.747277 29.988716 7.805405
v    248.803973 12.327930 11.064077
v    247.165891 11.805788 11.598449
v    248.328876 13.072047 11.064077
v    247.165891 11.805788 11.598449
v    276.861318 32.578933 17.603912
v    278.185407 33.102629 17.588091
v    277.269504 32.012404 17.603912
v    278.185407 33.102629 17.588091
v    235.640034 3.849121 26.215670
v    234.715075 3.532770 26.204809
v    235.378416 4.250827 26.215670
v    234.715075 3.532770 26.204809
v    289.576511 36.599853 36.679949
v    290.250849 36.778287 36.672199
v    289.742425 36.300714 36.679949
v    290.250849 36.778287 36.672199
v    220.049442 9.284615 52.133474
v    219.701486 9.280347 52.129608
v    220.005574 9.449527 52.133474
v    219.701486 9.280347 52.129608
v    308.429911 40.137858 74.338695
v    308.556991 40.156511 74.337268
v    308.454059 40.079684 74.338695
v    308.556991 40.156511 74.337268
mtllib usm_33_2.5D_2018-08-26_6.mtl
usemtl APPID_4047813632_2409227627232 
o vid_3 
f 3 2 1
f 4 5 6
f 1 6 5
f 1 5 3
f 3 5 4
f 4 2 3
f 2 4 6
f 6 1 2
usemtl APPID_4047813856_2409227628640 
o vid_4 
f 7 10 11
f 7 11 8
f 8 11 12
f 8 12 9
usemtl APPID_4047813632_2409227627232 
o vid_5 
f 15 14 13
f 16 17 18
f 13 18 17
f 13 17 15
f 15 17 16
f 16 14 15
f 14 16 18
f 18 13 14
usemtl APPID_4047813856_2409227628640 
o vid_6 
f 19 24 25
f 20 25 26
f 21 26 27
f 19 25 20
f 20 26 21
f 21 27 22
f 22 27 28
f 22 28 23
usemtl APPID_4047813632_2409227627232 
o vid_7 
f 31 30 29
f 32 33 34
f 29 34 33
f 29 33 31
f 31 33 32
f 32 30 31
f 30 32 34
f 34 29 30
usemtl APPID_4047813856_2409227628640 
o vid_8 
f 35 40 41
f 36 41 42
f 37 42 43
f 35 41 36
f 36 42 37
f 37 43 38
f 38 43 44
f 38 44 39
usemtl APPID_4047813632_2409227627232 
o vid_9 
f 47 46 45
f 48 49 50
f 45 50 49
f 45 49 47
f 47 49 48
f 48 46 47
f 46 48 50
f 50 45 46
usemtl APPID_4047813856_2409227628640 
o vid_10 
f 51 56 57
f 52 57 58
f 53 58 59
f 51 57 52
f 52 58 53
f 53 59 54
f 54 59 60
f 54 60 55
usemtl APPID_4047813632_2409227627232 
o vid_11 
f 63 62 61
f 64 65 66
f 61 66 65
f 61 65 63
f 63 65 64
f 64 62 63
f 62 64 66
f 66 61 62
usemtl APPID_4047813856_2409227628640 
o vid_12 
f 67 73 74
f 68 74 75
f 69 75 76
f 70 76 77
f 67 74 68
f 68 75 69
f 69 76 70
f 70 77 71
f 71 77 78
f 71 78 72
usemtl APPID_4047813632_2409227627232 
o vid_13 
f 81 80 79
f 82 83 84
f 79 84 83
f 79 83 81
f 81 83 82
f 82 80 81
f 80 82 84
f 84 79 80
usemtl APPID_4047813856_2409227628640 
o vid_14 
f 85 91 92
f 86 92 93
f 87 93 94
f 88 94 95
f 85 92 86
f 86 93 87
f 87 94 88
f 88 95 89
f 89 95 96
f 89 96 90
usemtl APPID_4047813632_2409227627232 
o vid_15 
f 99 98 97
f 100 101 102
f 97 102 101
f 97 101 99
f 99 101 100
f 100 98 99
f 98 100 102
f 102 97 98
usemtl APPID_4047813856_2409227628640 
o vid_16 
f 103 111 112
f 104 112 113
f 105 113 114
f 106 114 115
f 107 115 116
f 108 116 117
f 103 112 104
f 104 113 105
f 105 114 106
f 106 115 107
f 107 116 108
f 108 117 109
f 109 117 118
f 109 118 110
usemtl APPID_4047813632_2409227627232 
o vid_17 
f 121 120 119
f 122 123 124
f 119 124 123
f 119 123 121
f 121 123 122
f 122 120 121
f 120 122 124
f 124 119 120
usemtl APPID_4047813856_2409227628640 
o vid_18 
f 125 131 132
f 126 132 133
f 127 133 134
f 128 134 135
f 125 132 126
f 126 133 127
f 127 134 128
f 128 135 129
f 129 135 136
f 129 136 130
usemtl APPID_4047813632_2409227627232 
o vid_19 
f 139 138 137
f 140 141 142
f 137 142 141
f 137 141 139
f 139 141 140
f 140 138 139
f 138 140 142
f 142 137 138
usemtl APPID_4047813856_2409227628640 
o vid_20 
f 143 150 151
f 144 151 152
f 145 152 153
f 146 153 154
f 147 154 155
f 143 151 144
f 144 152 145
f 145 153 146
f 146 154 147
f 147 155 148
f 148 155 156
f 148 156 149
usemtl APPID_4047813632_2409227627232 
o vid_21 
f 159 158 157
f 160 161 162
f 157 162 161
f 157 161 159
f 159 161 160
f 160 158 159
f 158 160 162
f 162 157 158
usemtl APPID_4047813856_2409227628640 
o vid_22 
f 163 170 171
f 164 171 172
f 165 172 173
f 166 173 174
f 167 174 175
f 163 171 164
f 164 172 165
f 165 173 166
f 166 174 167
f 167 175 168
f 168 175 176
f 168 176 169
usemtl APPID_4047813632_2409227627232 
o vid_23 
f 179 178 177
f 180 181 182
f 177 182 181
f 177 181 179
f 179 181 180
f 180 178 179
f 178 180 182
f 182 177 178
usemtl APPID_4047813856_2409227628640 
o vid_24 
f 183 190 191
f 184 191 192
f 185 192 193
f 186 193 194
f 187 194 195
f 183 191 184
f 184 192 185
f 185 193 186
f 186 194 187
f 187 195 188
f 188 195 196
f 188 196 189
usemtl APPID_4047813632_2409227627232 
o vid_25 
f 199 198 197
f 200 201 202
f 197 202 201
f 197 201 199
f 199 201 200
f 200 198 199
f 198 200 202
f 202 197 198
usemtl APPID_4047813856_2409227628640 
o vid_26 
f 203 209 210
f 204 210 211
f 205 211 212
f 206 212 213
f 203 210 204
f 204 211 205
f 205 212 206
f 206 213 207
f 207 213 214
usemtl APPID_4047813632_2409227627232 
o vid_27 
f 217 216 215
f 218 219 220
f 215 220 219
f 215 219 217
f 217 219 218
f 218 216 217
f 216 218 220
f 220 215 216
usemtl APPID_4047813856_2409227628640 
o vid_28 
f 221 226 227
f 222 227 228
f 223 228 229
f 221 227 222
f 222 228 223
f 223 229 224
f 224 229 230
usemtl APPID_4047813632_2409227627232 
o vid_29 
f 233 232 231
f 234 235 236
f 231 236 235
f 231 235 233
f 233 235 234
f 234 232 233
f 232 234 236
f 236 231 232
usemtl APPID_4047813856_2409227628640 
o vid_30 
f 237 242 243
f 238 243 244
f 239 244 245
f 237 243 238
f 238 244 239
f 239 245 240
f 240 245 246
usemtl APPID_4047817664_2409227625184 
o vid_10000004 
f 247 254 255
f 248 255 256
f 249 256 257
f 250 257 258
f 251 258 259
f 247 255 248
f 248 256 249
f 249 257 250
f 250 258 251
f 251 259 252
f 252 259 260
usemtl APPID_4047817664_2409227625184 
o vid_10000006 
f 261 266 267
f 262 267 268
f 263 268 269
f 261 267 262
f 262 268 263
f 263 269 264
f 264 269 270
usemtl APPID_4047817664_2409227625184 
o vid_10000008 
f 271 275 276
f 272 276 277
f 271 276 272
f 272 277 273
f 273 277 278
usemtl APPID_4047817664_2409227625184 
o vid_10000010 
f 279 283 284
f 280 284 285
f 279 284 280
f 280 285 281
f 281 285 286
usemtl APPID_4047817664_2409227625184 
o vid_10000012 
f 287 290 291
f 287 291 288
f 288 291 292
usemtl APPID_4047817664_2409227625184 
o vid_10000014 
f 293 295 296
f 293 296 294
f 293 295 296
usemtl APPID_4047817664_2409227625184 
o vid_10000016 
f 297 299 300
f 297 300 298
f 297 299 300
usemtl APPID_4047817664_2409227625184 
o vid_10000018 
f 301 303 304
f 301 304 302
f 301 303 304
usemtl APPID_4047817664_2409227625184 
o vid_10000020 
f 305 307 308
f 305 308 306
f 305 307 308
usemtl APPID_4047817664_2409227625184 
o vid_10000022 
f 309 311 312
f 309 312 310
f 309 311 312
usemtl APPID_4047817664_2409227625184 
o vid_10000024 
f 313 315 316
f 313 316 314
f 313 315 316
