# File generated by PlantGL - Fri Sep  4 14:43:23 2026
v    17.752484 98.905161 0.000000
v    22.071916 98.601013 0.000000
v    20.175600 102.493825 0.000000
v    22.247516 101.094839 0.362700
v    17.928084 101.398987 0.362700
v    19.824400 97.506175 0.362700
v    22.064918 101.443499 0.203133
v    22.333887 101.546046 0.470622
v    22.409498 100.736136 0.203133
v    22.656044 100.884713 0.470622
v    21.879284 101.505407 0.362700
v    17.756638 100.874804 0.362700
v    20.364078 97.619789 0.362700
v    18.120716 98.494593 0.589630
v    22.243362 99.125196 0.589630
v    19.635922 102.380211 0.589630
v    18.479378 98.072790 0.363993
v    18.155513 97.857662 0.725289
v    17.787363 98.936671 0.363993
v    17.506736 98.667568 0.725289
v    17.841416 99.161313 0.589630
v    21.805616 98.549955 0.589630
v    20.352968 102.288732 0.589630
v    22.158584 100.838687 1.053978
v    18.194384 101.450045 1.053978
v    19.647032 97.711268 1.053978
v    21.861454 101.541365 0.741169
v    22.340561 101.679929 1.204625
v    22.355178 101.683897 1.218676
v    22.413811 100.119728 0.741169
v    22.860790 100.340983 1.204625
v    22.874251 100.347923 1.218676
v    22.163962 100.511898 1.053978
v    18.474702 101.618097 1.053978
v    19.361335 97.870005 1.053978
v    17.836038 99.488102 1.829186
v    21.525298 98.381903 1.829186
v    20.638665 102.129995 1.829186
v    18.107732 98.472273 1.404027
v    17.340100 98.361566 2.124730
v    17.623804 100.517997 1.404027
v    16.887929 100.273041 2.124730
v    18.595695 98.396392 1.829186
v    22.090917 99.585640 1.829186
v    19.313387 102.017967 1.829186
v    21.404305 101.603608 2.769464
v    17.909083 100.414360 2.769464
v    20.686613 97.982033 2.769464
v    20.311188 102.506755 2.202932
v    21.070783 103.232345 3.179072
v    22.443782 100.639209 2.202932
v    23.062808 101.487898 3.179072
v    21.718982 101.097521 2.769464
v    18.190028 100.939922 2.769464
v    20.090990 97.962557 2.769464
v    18.281018 98.902479 5.235228
v    21.809972 99.060078 5.235228
v    19.909010 102.037443 5.235228
v    19.280808 97.435393 4.495113
v    18.530311 97.045463 5.281026
v    18.094274 96.827930 5.733113
v    17.370877 100.426804 4.495113
v    16.701335 99.910079 5.281026
v    16.320511 99.606070 5.733113
v    18.420020 98.861621 5.235228
v    21.775855 99.200887 5.235228
v    19.804125 101.937492 5.235228
v    21.579980 101.138379 9.070287
v    18.224145 100.799113 9.070287
v    20.195875 98.062508 9.070287
v    20.074833 103.110882 8.122357
v    20.848064 103.569453 8.957738
v    22.974597 99.086240 8.122357
v    23.654352 99.674548 8.957738
v    21.554633 101.012481 9.070287
v    18.345849 100.840111 9.070287
v    20.099518 98.147408 9.070287
v    18.445367 98.987519 15.537192
v    21.654151 99.159889 15.537192
v    19.900482 101.852592 15.537192
v    20.307271 96.285349 14.346896
v    16.937391 94.495631 17.892589
v    14.611534 93.229179 19.677451
v    13.793899 92.799239 20.299270
v    16.726805 101.783044 14.346896
v    13.727316 99.424603 17.892589
v    11.628556 97.809450 19.677451
v    10.904722 97.235482 20.299270
v    18.458123 99.144816 15.537192
v    21.511550 99.092287 15.537192
v    20.030327 101.762897 15.537192
v    21.541877 100.855184 23.570456
v    18.488450 100.907713 23.570456
v    19.969673 98.237103 23.570456
v    19.553001 104.223993 22.105125
v    23.847136 106.127968 26.470100
v    25.334474 106.806047 27.571772
v    29.860283 108.790520 30.898186
v    32.655602 110.056527 31.881789
v    23.346595 97.384234 22.105125
v    27.235474 100.018875 26.470100
v    28.598232 100.921568 27.571772
v    32.678069 103.710119 30.898186
v    35.232140 105.411090 31.881789
v    21.614895 100.429572 23.570456
v    18.820532 101.183754 23.570456
v    19.564573 98.386674 23.570456
v    18.385105 99.570428 38.883082
v    21.179468 98.816246 38.883082
v    20.435427 101.613326 38.883082
v    19.820667 94.668062 37.114529
v    14.233958 93.703709 42.382753
v    7.451765 92.460171 47.029908
v    -8.131881 89.655547 52.470480
v    17.195168 104.538131 37.114529
v    11.867691 102.599244 42.382753
v    5.364019 100.308660 47.029908
v    -9.553483 94.999791 52.470480
v    18.541706 99.394647 38.883082
v    21.253398 99.039757 38.883082
v    20.204896 101.565597 38.883082
v    21.458294 100.605353 56.198358
v    18.746602 100.960243 56.198358
v    19.795104 98.434403 56.198358
v    19.179160 105.703563 54.105680
v    25.579091 107.714260 60.339419
v    27.768403 108.427205 61.891202
v    34.540616 110.524312 66.663288
v    49.381725 115.316515 71.662206
v    23.459663 95.391840 54.105680
v    29.402118 98.504596 60.339419
v    31.452723 99.551684 61.891202
v    37.719213 102.867078 66.663288
v    51.591170 109.993966 71.662206
v    21.148136 100.944713 56.198358
v    18.607786 100.521958 56.198358
v    20.244078 98.533328 56.198358
v    18.851864 99.055287 79.449853
v    21.392214 99.478042 79.449853
v    19.755922 101.466672 79.449853
v    23.200223 94.045155 77.022189
v    16.774880 89.654536 84.253795
v    12.961468 86.990082 87.389100
v    7.794292 83.490281 91.589960
v    -9.065631 71.772416 98.171166
v    -10.987594 70.546780 98.898889
v    -13.156862 69.145852 98.869490
v    14.772916 104.287096 77.022189
v    9.227097 98.827565 84.253795
v    5.878137 95.598652 87.389100
v    1.448758 91.202185 91.589960
v    -13.296629 76.914465 98.171166
v    -14.869452 75.264510 98.898889
v    -16.661911 73.405636 98.869490
v    19.036323 98.991726 79.449853
v    21.355030 99.669568 79.449853
v    19.608648 101.338706 79.449853
v    20.963677 101.008274 104.131996
v    18.644970 100.330432 104.131996
v    20.391352 98.661294 104.131996
v    15.524041 105.932863 101.370931
v    22.184332 111.762095 109.595682
v    24.160368 113.528220 111.381868
v    31.517401 119.914030 117.939352
v    46.699170 133.415330 124.451552
v    51.058942 136.993034 126.252046
v    53.538637 139.051853 126.215353
v    26.129147 95.796831 101.370931
v    31.651320 102.713842 109.595682
v    33.326306 104.767701 111.381868
v    39.372988 112.405903 117.939352
v    52.174144 128.182519 124.451552
v    55.551093 132.699576 126.252046
v    57.495705 135.269811 126.215353
v    20.912312 100.929805 104.131996
v    18.738610 100.325183 104.131996
v    20.349079 98.745013 104.131996
v    19.087688 99.070195 126.161183
v    21.261390 99.674817 126.161183
v    19.650921 101.254987 126.161183
v    24.850707 93.725532 123.082488
v    18.108365 87.978895 131.314774
v    6.771904 78.413082 141.556916
v    -6.791494 66.665947 147.308330
v    -15.399964 59.788628 150.825890
v    -16.277974 59.078887 150.813036
v    13.634545 104.730675 123.082488
v    8.016987 97.880416 131.314774
v    -1.331814 86.364338 141.556916
v    -12.819251 72.580298 147.308330
v    -19.531848 63.842776 150.825890
v    -20.224787 62.951445 150.813036
v    19.188946 99.101354 126.161183
v    21.183778 99.746930 126.161183
v    19.627277 101.151717 126.161183
v    20.811054 100.898646 141.184900
v    18.816222 100.253070 141.184900
v    20.372723 98.848283 141.184900
v    14.806974 105.991731 137.819332
v    22.831763 113.224603 147.844794
v    33.954609 123.450733 158.015208
v    40.573489 129.684625 160.929611
v    51.719577 139.377244 165.645199
v    52.415557 139.830178 165.903291
v    26.491069 95.446498 137.819332
v    32.865965 104.168446 147.844794
v    41.901838 116.278130 158.015208
v    47.426664 123.499437 160.929611
v    55.929443 135.577718 165.645199
v    56.308879 136.316342 165.903291
v    21.097812 100.213714 141.184900
v    19.266012 100.843876 141.184900
v    19.636176 98.942409 141.184900
v    18.902188 99.786286 154.329877
v    20.733988 99.156124 154.329877
v    20.363824 101.057591 154.329877
v    20.823937 91.271016 150.722829
v    15.862961 90.757148 155.357482
v    9.301871 90.186224 161.467619
v    -6.812085 88.584042 172.367762
v    -20.733029 87.030525 176.857586
v    -36.523453 85.900457 181.911518
v    -39.723389 86.116426 182.908355
v    17.489268 108.400611 150.722829
v    12.697813 107.015944 155.357482
v    6.401693 105.083917 161.467619
v    -9.136526 100.524276 172.367762
v    -22.623627 96.742187 176.857586
v    -37.684837 91.866276 181.911518
v    -40.570073 90.465688 182.908355
v    19.208315 99.346885 154.329877
v    20.961457 99.640938 154.329877
v    19.830228 101.012177 154.329877
v    20.791685 100.653115 161.616082
v    19.038543 100.359062 161.616082
v    20.169772 98.987823 161.616082
v    15.192932 107.011781 157.826012
v    25.343036 113.724525 169.115996
v    39.418617 123.284371 180.569216
v    43.526938 126.147498 182.174309
v    57.540526 135.109174 187.484679
v    63.247616 137.727417 189.436265
v    25.970276 93.947828 157.826012
v    34.489887 102.637004 169.115996
v    46.550817 114.638946 180.569216
v    50.142622 118.128177 182.174309
v    61.604503 130.182950 187.484679
v    65.259768 135.288350 189.436265
v    20.642640 100.482578 161.616082
v    19.260756 100.315253 161.616082
v    20.096605 99.202169 161.616082
v    19.357360 99.517422 167.314169
v    20.739244 99.684747 167.314169
v    19.903395 100.797831 167.314169
v    24.918047 92.579576 163.409857
v    14.157101 86.149225 175.040147
v    -0.777369 76.973689 186.838594
v    -6.848675 73.142172 189.139774
v    -21.691209 64.579277 194.610211
v    -31.894408 60.451382 198.031174
v    14.245356 106.792198 163.409857
v    5.069315 98.251257 175.040147
v    -7.906832 86.467860 186.838594
v    -13.279388 81.705832 189.139774
v    -25.641560 69.839884 194.610211
v    -32.450945 61.192511 198.031174
v    19.514414 99.659894 167.314169
v    20.537333 99.749523 167.314169
v    19.948253 100.590583 167.314169
v    20.485586 100.340106 170.622380
v    19.462667 100.250477 170.622380
v    20.051747 99.409417 170.622380
v    15.336164 107.198292 166.679228
v    26.413132 113.329390 178.425218
v    41.794588 122.091970 190.341038
v    59.020484 131.385928 196.593130
v    71.169032 135.838932 200.614694
v    25.170849 93.156821 166.679228
v    34.718565 101.471310 178.425218
v    48.210462 112.931706 190.341038
v    62.832121 125.943864 196.593130
v    71.169032 135.838932 200.614694
v    20.334431 100.238591 170.622380
v    19.626159 100.170330 170.622380
v    20.039410 99.591079 170.622380
v    19.665569 99.761409 172.799000
v    20.373841 99.829670 172.799000
v    19.960590 100.408921 172.799000
v    24.808365 93.035863 168.894688
v    13.893627 86.870161 180.524978
v    -1.260414 78.061991 192.323425
v    -17.968542 68.871690 198.414035
v    -29.958690 64.358277 202.395986
v    14.979548 106.812829 168.894688
v    5.597713 98.498471 180.524978
v    -7.662262 87.035404 192.323425
v    -21.789276 74.227178 198.414035
v    -29.958690 64.358277 202.395986
v    22.333887 101.546046 0.470622
v    22.544371 101.622644 0.678455
v    23.214771 101.875088 1.160650
v    23.893069 102.139868 1.394045
v    24.555032 102.368441 1.617618
v    25.088459 102.478755 1.635840
v    22.656044 100.884713 0.470622
v    22.846105 101.003234 0.678455
v    23.458135 101.375504 1.160650
v    24.084747 101.746387 1.394045
v    24.672779 102.126728 1.617618
v    25.088459 102.478755 1.635840
v    18.155513 97.857662 0.725289
v    17.873517 97.676775 1.036127
v    17.027439 97.119766 1.717980
v    16.209131 96.566812 2.034543
v    15.367256 96.045357 2.350689
v    14.667490 95.728375 2.390431
v    17.506736 98.667568 0.725289
v    17.268661 98.431851 1.036127
v    16.540416 97.727743 1.717980
v    15.822190 97.049852 2.034543
v    15.129560 96.342086 2.350689
v    14.667490 95.728375 2.390431
v    22.355178 101.683897 1.218676
v    22.827741 101.812201 1.672975
v    24.178367 102.196807 2.618253
v    25.425144 102.568118 3.035233
v    26.755420 102.907455 3.473518
v    27.032027 102.938264 3.560023
v    27.809501 103.034271 3.551319
v    22.874251 100.347923 1.218676
v    23.309476 100.572328 1.672975
v    24.565473 101.200488 2.618253
v    25.735885 101.768342 3.035233
v    26.946306 102.416157 3.473518
v    27.171155 102.580181 3.560023
v    27.809501 103.034271 3.551319
v    17.340100 98.361566 2.124730
v    16.756808 98.286094 2.670503
v    14.866551 98.021411 3.955291
v    12.907240 97.722978 4.590558
v    11.052860 97.515424 5.186259
v    9.599664 97.539740 5.220913
v    16.887929 100.273041 2.124730
v    16.332644 100.079176 2.670503
v    14.524140 99.468895 3.955291
v    12.638780 98.857849 4.590558
v    10.887946 98.212569 5.186259
v    9.599664 97.539740 5.220913
v    21.070783 103.232345 3.179072
v    21.630692 103.755699 3.890535
v    23.477032 105.504925 5.602538
v    25.548192 107.514986 6.527655
v    27.368875 109.146767 7.308185
v    29.003525 110.281332 7.286061
v    23.062808 101.487898 3.179072
v    23.507712 102.111963 3.890535
v    24.998040 104.172954 5.602538
v    26.717260 106.491214 6.527655
v    28.094555 108.511277 7.308185
v    29.003525 110.281332 7.286061
v    18.094274 96.827930 5.733113
v    17.161914 96.362786 6.699792
v    14.207192 94.843022 8.936347
v    11.871570 93.605929 9.783522
v    8.943028 92.200644 10.820517
v    7.888267 91.864437 11.164600
v    6.574916 91.428467 11.149224
v    16.320511 99.606070 5.733113
v    15.506209 98.956020 6.699792
v    12.884176 96.915185 8.936347
v    10.779091 95.317014 9.783522
v    8.271925 93.251754 10.820517
v    7.523079 92.436410 11.164600
v    6.574916 91.428467 11.149224
v    20.848064 103.569453 8.957738
v    22.688479 104.660925 10.946082
v    26.354066 106.821685 13.810633
v    31.849187 110.139733 15.868191
v    34.034074 111.343378 16.664549
v    35.560735 112.195870 16.644643
v    38.589529 113.393800 16.608454
v    23.654352 99.674548 8.957738
v    25.272277 101.074818 10.946082
v    28.482259 103.867922 13.810633
v    33.369154 108.030140 15.868191
v    35.202525 109.721661 16.664549
v    36.494441 110.899959 16.644643
v    38.589529 113.393800 16.608454
v    13.793899 92.799239 20.299270
v    12.228792 91.976255 21.489547
v    3.004249 86.983087 24.851694
v    -1.874806 84.556932 25.019014
v    -4.798675 83.556923 24.984681
v    -5.731392 83.242001 24.810297
v    10.904722 97.235482 20.299270
v    9.519168 96.136799 21.489547
v    1.222464 89.718963 24.851694
v    -2.969347 86.237565 25.019014
v    -5.066221 83.967731 24.984681
v    -5.731392 83.242001 24.810297
v    32.655602 110.056527 31.881789
v    39.921050 113.347067 34.438318
v    42.450540 114.373763 35.309833
v    46.041861 115.855520 35.265604
v    50.909228 117.143449 35.209663
v    35.232140 105.411090 31.881789
v    41.870550 109.832165 34.438318
v    44.080856 111.434342 35.309833
v    47.239428 113.696336 35.265604
v    50.909228 117.143449 35.209663
v    -8.131881 89.655547 52.470480
v    -9.916255 89.332959 53.051702
v    -12.369589 88.879609 53.023195
v    -20.431547 87.703154 52.930440
v    -21.348547 87.691907 52.920251
v    -25.582532 87.656590 52.170219
v    -26.406801 87.655505 51.925063
v    -9.553483 94.999791 52.470480
v    -11.262302 94.393168 53.051702
v    -13.616637 93.567648 53.023195
v    -21.197601 90.582990 52.930440
v    -21.998993 90.137134 52.920251
v    -25.690934 88.064106 52.170219
v    -26.406801 87.655505 51.925063
v    49.381725 115.316515 71.662206
v    53.305694 116.419463 72.963680
v    58.603130 117.933492 72.900956
v    65.717348 118.977746 72.821065
v    51.591170 109.993966 71.662206
v    55.142681 111.994167 72.963680
v    59.955013 114.676809 72.900956
v    65.717348 118.977746 72.821065
v    -13.156862 69.145852 98.869490
v    -18.372501 65.777557 98.798806
v    -24.913717 62.691824 98.718448
v    -25.903177 62.229797 98.525009
v    -16.661911 73.405636 98.869490
v    -20.971578 68.936288 98.798806
v    -25.259249 63.111759 98.718448
v    -25.903177 62.229797 98.525009
v    53.538637 139.051853 126.215353
v    56.290538 141.336677 126.174632
v    64.327015 146.378378 126.069225
v    57.495705 135.269811 126.215353
v    59.653784 138.122191 126.174632
v    64.327015 146.378378 126.069225
v    -16.277974 59.078887 150.813036
v    -17.435531 58.143175 150.796091
v    -26.469473 52.639495 150.678558
v    -20.224787 62.951445 150.813036
v    -21.138348 61.776327 150.796091
v    -26.469473 52.639495 150.678558
v    52.415557 139.830178 165.903291
v    58.468349 143.769256 168.147866
v    61.073326 145.509153 168.113061
v    56.308879 136.316342 165.903291
v    59.608758 142.740003 168.147866
v    61.073326 145.509153 168.113061
v    -39.723389 86.116426 182.908355
v    -40.747679 86.185557 183.227439
v    -48.695917 86.626762 183.138993
v    -40.570073 90.465688 182.908355
v    -41.493628 90.017365 183.227439
v    -48.695917 86.626762 183.138993
v    63.247616 137.727417 189.436265
v    68.844358 140.295037 191.350117
v    65.259768 135.288350 189.436265
v    68.844358 140.295037 191.350117
v    -31.894408 60.451382 198.031174
v    -33.567586 59.774466 198.592163
v    -32.450945 61.192511 198.031174
v    -33.567586 59.774466 198.592163
mtllib usm_25_2.5D_2018-09-17_2.mtl
usemtl APPID_3207271136_2021840663408 
o vid_3 
f 3 2 1
f 4 5 6
f 1 6 5
f 1 5 3
f 3 5 4
f 4 2 3
f 2 4 6
f 6 1 2
usemtl APPID_3207271920_2021840667504 
o vid_4 
f 7 9 10
f 7 10 8
f 7 9 10
f 7 10 8
usemtl APPID_3207271136_2021840663408 
o vid_5 
f 13 12 11
f 14 15 16
f 11 16 15
f 11 15 13
f 13 15 14
f 14 12 13
f 12 14 16
f 16 11 12
usemtl APPID_3207271920_2021840667504 
o vid_6 
f 17 19 20
f 17 20 18
f 17 19 20
f 17 20 18
usemtl APPID_3207271136_2021840663408 
o vid_7 
f 23 22 21
f 24 25 26
f 21 26 25
f 21 25 23
f 23 25 24
f 24 22 23
f 22 24 26
f 26 21 22
usemtl APPID_3207271920_2021840667504 
o vid_8 
f 27 30 31
f 27 31 28
f 28 31 32
f 28 32 29
usemtl APPID_3207271136_2021840663408 
o vid_9 
f 35 34 33
f 36 37 38
f 33 38 37
f 33 37 35
f 35 37 36
f 36 34 35
f 34 36 38
f 38 33 34
usemtl APPID_3207271920_2021840667504 
o vid_10 
f 39 41 42
f 39 42 40
f 39 41 42
f 39 42 40
usemtl APPID_3207271136_2021840663408 
o vid_11 
f 45 44 43
f 46 47 48
f 43 48 47
f 43 47 45
f 45 47 46
f 46 44 45
f 44 46 48
f 48 43 44
usemtl APPID_3207271920_2021840667504 
o vid_12 
f 49 51 52
f 49 52 50
f 49 51 52
f 49 52 50
usemtl APPID_3207271136_2021840663408 
o vid_13 
f 55 54 53
f 56 57 58
f 53 58 57
f 53 57 55
f 55 57 56
f 56 54 55
f 54 56 58
f 58 53 54
usemtl APPID_3207271920_2021840667504 
o vid_14 
f 59 62 63
f 59 63 60
f 60 63 64
f 60 64 61
usemtl APPID_3207271136_2021840663408 
o vid_15 
f 67 66 65
f 68 69 70
f 65 70 69
f 65 69 67
f 67 69 68
f 68 66 67
f 66 68 70
f 70 65 66
usemtl APPID_3207271920_2021840667504 
o vid_16 
f 71 73 74
f 71 74 72
f 71 73 74
f 71 74 72
usemtl APPID_3207271136_2021840663408 
o vid_17 
f 77 76 75
f 78 79 80
f 75 80 79
f 75 79 77
f 77 79 78
f 78 76 77
f 76 78 80
f 80 75 76
usemtl APPID_3207271920_2021840667504 
o vid_18 
f 81 85 86
f 82 86 87
f 81 86 82
f 82 87 83
f 83 87 88
f 83 88 84
usemtl APPID_3207271136_2021840663408 
o vid_19 
f 91 90 89
f 92 93 94
f 89 94 93
f 89 93 91
f 91 93 92
f 92 90 91
f 90 92 94
f 94 89 90
usemtl APPID_3207271920_2021840667504 
o vid_20 
f 95 100 101
f 96 101 102
f 97 102 103
f 95 101 96
f 96 102 97
f 97 103 98
f 98 103 104
f 98 104 99
usemtl APPID_3207271136_2021840663408 
o vid_21 
f 107 106 105
f 108 109 110
f 105 110 109
f 105 109 107
f 107 109 108
f 108 106 107
f 106 108 110
f 110 105 106
usemtl APPID_3207271920_2021840667504 
o vid_22 
f 111 115 116
f 112 116 117
f 111 116 112
f 112 117 113
f 113 117 118
f 113 118 114
usemtl APPID_3207271136_2021840663408 
o vid_23 
f 121 120 119
f 122 123 124
f 119 124 123
f 119 123 121
f 121 123 122
f 122 120 121
f 120 122 124
f 124 119 120
usemtl APPID_3207271920_2021840667504 
o vid_24 
f 125 130 131
f 126 131 132
f 127 132 133
f 125 131 126
f 126 132 127
f 127 133 128
f 128 133 134
f 128 134 129
usemtl APPID_3207271136_2021840663408 
o vid_25 
f 137 136 135
f 138 139 140
f 135 140 139
f 135 139 137
f 137 139 138
f 138 136 137
f 136 138 140
f 140 135 136
usemtl APPID_3207271920_2021840667504 
o vid_26 
f 141 148 149
f 142 149 150
f 143 150 151
f 144 151 152
f 145 152 153
f 141 149 142
f 142 150 143
f 143 151 144
f 144 152 145
f 145 153 146
f 146 153 154
f 146 154 147
usemtl APPID_3207271136_2021840663408 
o vid_27 
f 157 156 155
f 158 159 160
f 155 160 159
f 155 159 157
f 157 159 158
f 158 156 157
f 156 158 160
f 160 155 156
usemtl APPID_3207271920_2021840667504 
o vid_28 
f 161 168 169
f 162 169 170
f 163 170 171
f 164 171 172
f 165 172 173
f 161 169 162
f 162 170 163
f 163 171 164
f 164 172 165
f 165 173 166
f 166 173 174
f 166 174 167
usemtl APPID_3207271136_2021840663408 
o vid_29 
f 177 176 175
f 178 179 180
f 175 180 179
f 175 179 177
f 177 179 178
f 178 176 177
f 176 178 180
f 180 175 176
usemtl APPID_3207271920_2021840667504 
o vid_30 
f 181 187 188
f 182 188 189
f 183 189 190
f 184 190 191
f 181 188 182
f 182 189 183
f 183 190 184
f 184 191 185
f 185 191 192
f 185 192 186
usemtl APPID_3207271136_2021840663408 
o vid_31 
f 195 194 193
f 196 197 198
f 193 198 197
f 193 197 195
f 195 197 196
f 196 194 195
f 194 196 198
f 198 193 194
usemtl APPID_3207271920_2021840667504 
o vid_32 
f 199 205 206
f 200 206 207
f 201 207 208
f 202 208 209
f 199 206 200
f 200 207 201
f 201 208 202
f 202 209 203
f 203 209 210
f 203 210 204
usemtl APPID_3207271136_2021840663408 
o vid_33 
f 213 212 211
f 214 215 216
f 211 216 215
f 211 215 213
f 213 215 214
f 214 212 213
f 212 214 216
f 216 211 212
usemtl APPID_3207271920_2021840667504 
o vid_34 
f 217 224 225
f 218 225 226
f 219 226 227
f 220 227 228
f 221 228 229
f 217 225 218
f 218 226 219
f 219 227 220
f 220 228 221
f 221 229 222
f 222 229 230
f 222 230 223
usemtl APPID_3207271136_2021840663408 
o vid_35 
f 233 232 231
f 234 235 236
f 231 236 235
f 231 235 233
f 233 235 234
f 234 232 233
f 232 234 236
f 236 231 232
usemtl APPID_3207271920_2021840667504 
o vid_36 
f 237 243 244
f 238 244 245
f 239 245 246
f 240 246 247
f 237 244 238
f 238 245 239
f 239 246 240
f 240 247 241
f 241 247 248
f 241 248 242
usemtl APPID_3207271136_2021840663408 
o vid_37 
f 251 250 249
f 252 253 254
f 249 254 253
f 249 253 251
f 251 253 252
f 252 250 251
f 250 252 254
f 254 249 250
usemtl APPID_3207271920_2021840667504 
o vid_38 
f 255 261 262
f 256 262 263
f 257 263 264
f 258 264 265
f 255 262 256
f 256 263 257
f 257 264 258
f 258 265 259
f 259 265 266
f 259 266 260
usemtl APPID_3207271136_2021840663408 
o vid_39 
f 269 268 267
f 270 271 272
f 267 272 271
f 267 271 269
f 269 271 270
f 270 268 269
f 268 270 272
f 272 267 268
usemtl APPID_3207271920_2021840667504 
o vid_40 
f 273 278 279
f 274 279 280
f 275 280 281
f 273 279 274
f 274 280 275
f 275 281 276
f 276 281 282
usemtl APPID_3207271136_2021840663408 
o vid_41 
f 285 284 283
f 286 287 288
f 283 288 287
f 283 287 285
f 285 287 286
f 286 284 285
f 284 286 288
f 288 283 284
usemtl APPID_3207271920_2021840667504 
o vid_42 
f 289 294 295
f 290 295 296
f 291 296 297
f 289 295 290
f 290 296 291
f 291 297 292
f 292 297 298
usemtl APPID_3207273264_2021840667632 
o vid_10000004 
f 299 305 306
f 300 306 307
f 301 307 308
f 302 308 309
f 299 306 300
f 300 307 301
f 301 308 302
f 302 309 303
f 303 309 310
usemtl APPID_3207273264_2021840667632 
o vid_10000006 
f 311 317 318
f 312 318 319
f 313 319 320
f 314 320 321
f 311 318 312
f 312 319 313
f 313 320 314
f 314 321 315
f 315 321 322
usemtl APPID_3207273264_2021840667632 
o vid_10000008 
f 323 330 331
f 324 331 332
f 325 332 333
f 326 333 334
f 327 334 335
f 323 331 324
f 324 332 325
f 325 333 326
f 326 334 327
f 327 335 328
f 328 335 336
usemtl APPID_3207273264_2021840667632 
o vid_10000010 
f 337 343 344
f 338 344 345
f 339 345 346
f 340 346 347
f 337 344 338
f 338 345 339
f 339 346 340
f 340 347 341
f 341 347 348
usemtl APPID_3207273264_2021840667632 
o vid_10000012 
f 349 355 356
f 350 356 357
f 351 357 358
f 352 358 359
f 349 356 350
f 350 357 351
f 351 358 352
f 352 359 353
f 353 359 360
usemtl APPID_3207273264_2021840667632 
o vid_10000014 
f 361 368 369
f 362 369 370
f 363 370 371
f 364 371 372
f 365 372 373
f 361 369 362
f 362 370 363
f 363 371 364
f 364 372 365
f 365 373 366
f 366 373 374
usemtl APPID_3207273264_2021840667632 
o vid_10000016 
f 375 382 383
f 376 383 384
f 377 384 385
f 378 385 386
f 379 386 387
f 375 383 376
f 376 384 377
f 377 385 378
f 378 386 379
f 379 387 380
f 380 387 388
usemtl APPID_3207273264_2021840667632 
o vid_10000018 
f 389 395 396
f 390 396 397
f 391 397 398
f 392 398 399
f 389 396 390
f 390 397 391
f 391 398 392
f 392 399 393
f 393 399 400
usemtl APPID_3207273264_2021840667632 
o vid_10000020 
f 401 406 407
f 402 407 408
f 403 408 409
f 401 407 402
f 402 408 403
f 403 409 404
f 404 409 410
usemtl APPID_3207273264_2021840667632 
o vid_10000022 
f 411 418 419
f 412 419 420
f 413 420 421
f 414 421 422
f 415 422 423
f 411 419 412
f 412 420 413
f 413 421 414
f 414 422 415
f 415 423 416
f 416 423 424
usemtl APPID_3207273264_2021840667632 
o vid_10000024 
f 425 429 430
f 426 430 431
f 425 430 426
f 426 431 427
f 427 431 432
usemtl APPID_3207273264_2021840667632 
o vid_10000026 
f 433 437 438
f 434 438 439
f 433 438 434
f 434 439 435
f 435 439 440
usemtl APPID_3207273264_2021840667632 
o vid_10000028 
f 441 444 445
f 441 445 442
f 442 445 446
usemtl APPID_3207273264_2021840667632 
o vid_10000030 
f 447 450 451
f 447 451 448
f 448 451 452
usemtl APPID_3207273264_2021840667632 
o vid_10000032 
f 453 456 457
f 453 457 454
f 454 457 458
usemtl APPID_3207273264_2021840667632 
o vid_10000034 
f 459 462 463
f 459 463 460
f 460 463 464
usemtl APPID_3207273264_2021840667632 
o vid_10000036 
f 465 467 468
f 465 468 466
f 465 467 468
usemtl APPID_3207273264_2021840667632 
o vid_10000038 
f 469 471 472
f 469 472 470
f 469 471 472
