# File generated by PlantGL - Fri Sep  4 14:42:25 2026
v    18.201987 179.124129 0.000000
v    21.657533 178.880811 0.000000
v    20.140480 181.995060 0.000000
v    21.798013 180.875871 0.331061
v    18.342467 181.119189 0.331061
v    19.859520 178.004940 0.331061
v    21.383011 181.452572 -0.085637
v    22.230290 181.774414 0.773151
v    22.584556 181.899155 1.128134
v    23.805267 182.351593 1.944180
v    24.964051 182.759653 2.328973
v    26.273324 183.055942 2.659937
v    21.996298 180.193600 -0.085637
v    22.772004 180.662368 0.773151
v    23.088606 180.864428 1.128134
v    24.197338 181.546739 1.944180
v    25.232953 182.207642 2.328973
v    26.273324 183.055942 2.659937
v    21.503548 181.204422 0.331061
v    18.205166 180.699900 0.331061
v    20.291286 178.095678 0.331061
v    18.496452 178.795578 0.718770
v    21.794834 179.300100 0.718770
v    19.708714 181.904322 0.718770
v    19.285308 178.076928 0.143568
v    17.811194 177.100353 1.819033
v    17.373791 176.802376 2.151401
v    16.078418 175.959196 3.120245
v    15.264277 175.414720 3.367383
v    13.796524 174.487688 3.804288
v    13.192971 174.200122 3.969121
v    12.115514 173.684107 3.722176
v    17.967303 179.722267 0.143568
v    16.692533 178.496840 1.819033
v    16.306274 178.135018 2.151401
v    15.200694 177.054908 3.120245
v    14.491651 176.379232 3.367383
v    13.266618 175.149200 3.804288
v    12.854254 174.622962 3.969121
v    12.115514 173.684107 3.722176
v    18.272844 179.328938 0.718770
v    21.444735 178.839770 0.718770
v    20.282421 181.831292 0.718770
v    21.727156 180.671062 1.487000
v    18.555265 181.160230 1.487000
v    19.717579 178.168708 1.487000
v    20.989748 181.949782 0.711738
v    23.279998 182.609103 2.969945
v    24.437159 182.958484 3.729033
v    25.965589 183.385147 4.723730
v    27.777673 183.915378 5.200142
v    30.039705 184.513576 5.789008
v    32.530784 184.868659 5.413822
v    22.046515 179.229915 0.711738
v    24.181127 180.289811 2.969945
v    25.270625 180.813338 3.729033
v    26.686179 181.530519 4.723730
v    28.380902 182.362808 5.200142
v    30.453431 183.448743 5.789008
v    32.530784 184.868659 5.413822
v    21.731622 180.409625 1.487000
v    18.779443 181.294816 1.487000
v    19.488935 178.295559 1.487000
v    18.268378 179.590375 2.857087
v    21.220557 178.705184 2.857087
v    20.511065 181.704441 2.857087
v    19.008159 177.745038 1.836837
v    15.903336 177.301155 4.808653
v    13.742868 176.963736 6.181858
v    12.264930 176.764615 7.116646
v    9.130877 176.302601 7.916002
v    6.344666 175.965979 8.622319
v    2.756504 175.920951 7.879028
v    18.102967 181.571582 1.836837
v    15.128337 180.577336 4.808653
v    13.045671 179.911017 6.181858
v    11.635161 179.426859 7.116646
v    8.626274 178.435724 7.916002
v    5.984544 177.488335 8.622319
v    2.756504 175.920951 7.879028
v    18.876148 178.716648 2.857087
v    21.673341 179.668392 2.857087
v    19.450510 181.614960 2.857087
v    21.123852 181.283352 4.462301
v    18.326659 180.331608 4.462301
v    20.549490 178.385040 4.462301
v    18.810681 182.804979 3.151326
v    19.514876 183.476322 4.073222
v    21.728129 185.585304 6.969974
v    25.104587 188.886991 9.935641
v    30.341706 193.947085 11.773572
v    33.286117 196.637835 11.110145
v    36.745985 199.122624 10.229628
v    22.937376 179.191167 3.151326
v    23.509938 179.977783 4.073222
v    25.308467 182.449946 6.969974
v    28.135800 186.232509 9.935641
v    32.460672 192.091473 11.773572
v    34.739413 195.365160 11.110145
v    36.745985 199.122624 10.229628
v    21.375838 180.878433 4.462301
v    18.551335 180.752294 4.462301
v    20.072827 178.369272 4.462301
v    18.624162 179.121567 11.576758
v    21.448665 179.247706 11.576758
v    19.927173 181.630728 11.576758
v    21.052920 176.201634 9.931963
v    16.630647 173.896362 14.658427
v    11.344796 171.072046 18.443805
v    5.808914 168.042939 20.038353
v    2.884864 166.512069 20.871175
v    -1.187875 164.375808 19.898629
v    -5.682184 162.164881 18.842142
v    -10.326925 160.633852 16.572730
v    -10.337195 160.630566 16.566572
v    16.997402 182.553552 9.931963
v    13.045234 179.511982 14.658427
v    8.258812 175.905440 18.443805
v    3.181399 172.158260 20.038353
v    0.562197 170.149923 20.871175
v    -3.089564 167.354311 19.898629
v    -6.986461 164.207693 18.842142
v    -10.329893 160.638500 16.572730
v    -10.337195 160.630566 16.566572
v    18.852143 179.172966 11.576758
v    21.290161 179.419443 11.576758
v    19.857696 181.407590 11.576758
v    21.147857 180.827034 22.058017
v    18.709839 180.580557 22.058017
v    20.142304 178.592410 22.058017
v    17.884290 184.359598 20.043090
v    21.349339 186.643111 23.987808
v    23.097215 187.677372 25.912231
v    26.836273 189.955437 28.661858
v    29.295905 191.453300 30.470366
v    39.286400 197.672374 33.443971
v    48.552348 203.239867 31.157648
v    53.562601 206.011671 28.803746
v    58.517640 207.752050 24.706592
v    23.465686 176.613063 20.043090
v    26.728630 179.177084 23.987808
v    28.262992 180.507683 25.912231
v    31.607504 183.333347 28.661858
v    33.806935 185.192350 30.470366
v    42.868677 192.700458 33.443971
v    51.082991 199.727535 31.157648
v    55.298247 203.602732 28.803746
v    58.517640 207.752050 24.706592
v    20.935123 180.609014 22.058017
v    19.005017 180.505333 22.058017
v    20.059860 178.885653 22.058017
v    19.064877 179.390986 39.687747
v    20.994983 179.494667 39.687747
v    19.940140 181.114347 39.687747
v    22.719310 175.057135 37.277640
v    20.424548 173.708832 39.807160
v    16.236730 171.490012 44.297873
v    14.005964 170.271011 45.894319
v    8.617631 167.328006 49.749978
v    -2.110415 161.331261 52.855554
v    -12.336924 155.850336 51.231344
v    -17.982606 153.009350 49.898220
v    -23.175342 151.171106 46.735099
v    -25.125449 150.611297 44.983862
v    16.578778 184.485733 37.277640
v    14.417731 182.932115 39.807160
v    10.695050 179.999092 44.297873
v    8.678139 178.451722 45.894319
v    3.807689 174.713523 49.749978
v    -6.014830 167.326370 52.855554
v    -15.162782 160.189353 51.231344
v    -20.043983 156.174530 49.898220
v    -23.824923 152.168518 46.735099
v    -25.125449 150.611297 44.983862
v    19.265317 179.592516 39.687747
v    20.720233 179.567487 39.687747
v    20.014450 180.839996 39.687747
v    20.734683 180.407484 66.536732
v    19.279767 180.432513 66.536732
v    19.985550 179.160004 66.536732
v    17.133759 185.221243 63.721961
v    19.729898 186.369280 66.411716
v    25.048033 188.719475 71.920912
v    34.268552 192.937475 78.288441
v    37.155486 194.292508 79.094284
v    49.268769 199.708867 82.442448
v    57.344025 203.083905 80.596235
v    66.139622 205.590812 78.705692
v    22.911608 174.803919 63.721961
v    25.260139 176.398388 66.411716
v    30.069754 179.665432 71.920912
v    38.530136 185.253941 78.288441
v    41.208238 186.985492 79.094284
v    52.216901 194.393455 82.442448
v    59.355779 199.456762 80.596235
v    66.139622 205.590812 78.705692
v    20.567529 180.150966 66.536732
v    19.585495 180.416011 66.536732
v    19.846976 179.433022 66.536732
v    19.432471 179.849034 95.019316
v    20.414505 179.583989 95.019316
v    20.153024 180.566978 95.019316
v    21.870220 174.296478 91.809505
v    12.144555 172.629972 101.159142
v    7.833524 171.833790 103.912220
v    0.735356 170.676474 108.420326
v    -6.262849 169.445893 110.213263
v    -15.844466 168.018013 112.651338
v    -26.251277 167.696875 111.429341
v    18.789215 185.878936 91.809505
v    9.520945 182.492938 101.159142
v    5.384102 181.041933 103.912220
v    -1.350945 178.519529 108.420326
v    -8.035642 176.110374 110.213263
v    -17.060339 172.588859 112.651338
v    -26.251277 167.696875 111.429341
v    19.669922 179.862981 95.019316
v    20.283701 179.782653 95.019316
v    20.046377 180.354365 95.019316
v    20.330078 180.137019 102.957000
v    19.716299 180.217347 102.957000
v    19.953623 179.645635 102.957000
v    19.006433 184.141188 95.914821
v    19.786280 184.068196 100.247978
v    21.795598 183.636816 110.828698
v    26.659851 182.764573 121.983102
v    22.231258 176.372590 95.914821
v    22.730157 176.976403 100.247978
v    23.843285 178.703943 110.828698
v    26.659851 182.764573 121.983102
mtllib usm_11_Beer_2018-08-31_4.mtl
usemtl APPID_2963229360_1982942884704 
o vid_3 
f 3 2 1
f 4 5 6
f 1 6 5
f 1 5 3
f 3 5 4
f 4 2 3
f 2 4 6
f 6 1 2
usemtl APPID_2963229808_1982942890336 
o vid_4 
f 7 13 14
f 8 14 15
f 9 15 16
f 10 16 17
f 7 14 8
f 8 15 9
f 9 16 10
f 10 17 11
f 11 17 18
usemtl APPID_2963229360_1982942884704 
o vid_5 
f 21 20 19
f 22 23 24
f 19 24 23
f 19 23 21
f 21 23 22
f 22 20 21
f 20 22 24
f 24 19 20
usemtl APPID_2963229808_1982942890336 
o vid_6 
f 25 33 34
f 26 34 35
f 27 35 36
f 28 36 37
f 29 37 38
f 30 38 39
f 25 34 26
f 26 35 27
f 27 36 28
f 28 37 29
f 29 38 30
f 30 39 31
f 31 39 40
usemtl APPID_2963229360_1982942884704 
o vid_7 
f 43 42 41
f 44 45 46
f 41 46 45
f 41 45 43
f 43 45 44
f 44 42 43
f 42 44 46
f 46 41 42
usemtl APPID_2963229808_1982942890336 
o vid_8 
f 47 54 55
f 48 55 56
f 49 56 57
f 50 57 58
f 51 58 59
f 47 55 48
f 48 56 49
f 49 57 50
f 50 58 51
f 51 59 52
f 52 59 60
usemtl APPID_2963229360_1982942884704 
o vid_9 
f 63 62 61
f 64 65 66
f 61 66 65
f 61 65 63
f 63 65 64
f 64 62 63
f 62 64 66
f 66 61 62
usemtl APPID_2963229808_1982942890336 
o vid_10 
f 67 74 75
f 68 75 76
f 69 76 77
f 70 77 78
f 71 78 79
f 67 75 68
f 68 76 69
f 69 77 70
f 70 78 71
f 71 79 72
f 72 79 80
usemtl APPID_2963229360_1982942884704 
o vid_11 
f 83 82 81
f 84 85 86
f 81 86 85
f 81 85 83
f 83 85 84
f 84 82 83
f 82 84 86
f 86 81 82
usemtl APPID_2963229808_1982942890336 
o vid_12 
f 87 94 95
f 88 95 96
f 89 96 97
f 90 97 98
f 91 98 99
f 87 95 88
f 88 96 89
f 89 97 90
f 90 98 91
f 91 99 92
f 92 99 100
usemtl APPID_2963229360_1982942884704 
o vid_13 
f 103 102 101
f 104 105 106
f 101 106 105
f 101 105 103
f 103 105 104
f 104 102 103
f 102 104 106
f 106 101 102
usemtl APPID_2963229808_1982942890336 
o vid_14 
f 107 116 117
f 108 117 118
f 109 118 119
f 110 119 120
f 111 120 121
f 112 121 122
f 113 122 123
f 107 117 108
f 108 118 109
f 109 119 110
f 110 120 111
f 111 121 112
f 112 122 113
f 113 123 114
f 114 123 124
usemtl APPID_2963229360_1982942884704 
o vid_15 
f 127 126 125
f 128 129 130
f 125 130 129
f 125 129 127
f 127 129 128
f 128 126 127
f 126 128 130
f 130 125 126
usemtl APPID_2963229808_1982942890336 
o vid_16 
f 131 140 141
f 132 141 142
f 133 142 143
f 134 143 144
f 135 144 145
f 136 145 146
f 137 146 147
f 131 141 132
f 132 142 133
f 133 143 134
f 134 144 135
f 135 145 136
f 136 146 137
f 137 147 138
f 138 147 148
usemtl APPID_2963229360_1982942884704 
o vid_17 
f 151 150 149
f 152 153 154
f 149 154 153
f 149 153 151
f 151 153 152
f 152 150 151
f 150 152 154
f 154 149 150
usemtl APPID_2963229808_1982942890336 
o vid_18 
f 155 165 166
f 156 166 167
f 157 167 168
f 158 168 169
f 159 169 170
f 160 170 171
f 161 171 172
f 162 172 173
f 155 166 156
f 156 167 157
f 157 168 158
f 158 169 159
f 159 170 160
f 160 171 161
f 161 172 162
f 162 173 163
f 163 173 174
usemtl APPID_2963229360_1982942884704 
o vid_19 
f 177 176 175
f 178 179 180
f 175 180 179
f 175 179 177
f 177 179 178
f 178 176 177
f 176 178 180
f 180 175 176
usemtl APPID_2963229808_1982942890336 
o vid_20 
f 181 189 190
f 182 190 191
f 183 191 192
f 184 192 193
f 185 193 194
f 186 194 195
f 181 190 182
f 182 191 183
f 183 192 184
f 184 193 185
f 185 194 186
f 186 195 187
f 187 195 196
usemtl APPID_2963229360_1982942884704 
o vid_21 
f 199 198 197
f 200 201 202
f 197 202 201
f 197 201 199
f 199 201 200
f 200 198 199
f 198 200 202
f 202 197 198
usemtl APPID_2963229808_1982942890336 
o vid_22 
f 203 210 211
f 204 211 212
f 205 212 213
f 206 213 214
f 207 214 215
f 203 211 204
f 204 212 205
f 205 213 206
f 206 214 207
f 207 215 208
f 208 215 216
usemtl APPID_2963229360_1982942884704 
o vid_23 
f 219 218 217
f 220 221 222
f 217 222 221
f 217 221 219
f 219 221 220
f 220 218 219
f 218 220 222
f 222 217 218
usemtl APPID_2963229808_1982942890336 
o vid_24 
f 223 227 228
f 224 228 229
f 223 228 224
f 224 229 225
f 225 229 230
