# File generated by PlantGL - Fri Sep  4 14:42:56 2026
v    217.752484 18.905161 0.000000
v    222.071916 18.601013 0.000000
v    220.175600 22.493825 0.000000
v    222.247516 21.094839 0.848509
v    217.928084 21.398987 0.848509
v    219.824400 17.506175 0.848509
v    222.062176 21.449173 0.689209
v    222.418892 21.585174 1.043963
v    222.540261 21.629179 1.163737
v    223.209542 21.881202 1.645127
v    223.428864 21.966816 1.720593
v    222.412275 20.730479 0.689209
v    222.739253 20.927528 1.043963
v    222.848719 20.995970 1.163737
v    223.459726 21.367617 1.645127
v    223.662335 21.487539 1.720593
v    221.879284 21.505407 0.848509
v    217.756638 20.874804 0.848509
v    220.364078 17.619789 0.848509
v    218.120716 18.494593 1.417165
v    222.243362 19.125196 1.417165
v    219.635922 22.380211 1.417165
v    218.493090 18.055649 1.191723
v    217.952116 17.696306 1.795220
v    217.045006 17.100198 2.544541
v    215.955546 16.364018 2.966001
v    215.880571 16.317579 2.994156
v    217.773628 18.953794 1.191723
v    217.304876 18.504292 1.795220
v    216.525154 17.749158 2.544541
v    215.568938 16.846642 2.966001
v    215.507255 16.783610 2.994156
v    217.841416 19.161313 1.417165
v    221.805616 18.549955 1.417165
v    220.352968 22.288732 1.417165
v    222.158584 20.838687 2.253766
v    218.194384 21.450045 2.253766
v    219.647032 17.711268 2.253766
v    221.871470 21.515593 1.940988
v    222.052689 21.568003 2.116287
v    222.839514 21.781631 2.872701
v    224.190006 22.166199 3.817886
v    225.050046 22.422333 4.105523
v    226.019311 22.669581 4.424866
v    222.403799 20.145503 1.940988
v    222.572866 20.229191 2.116287
v    223.297521 20.602828 2.872701
v    224.553393 21.230925 3.817886
v    225.360757 21.622637 4.105523
v    226.242693 22.094647 4.424866
v    222.163962 20.511898 2.253766
v    218.474702 21.618097 2.253766
v    219.361335 17.870005 2.253766
v    217.836038 19.488102 4.112548
v    221.525298 18.381903 4.112548
v    220.638665 22.129995 4.112548
v    218.104919 18.484245 3.687127
v    217.414929 18.384735 4.334933
v    216.752608 18.300289 4.954385
v    214.861183 18.035443 6.239966
v    213.087907 17.765346 6.814915
v    211.232381 17.557664 7.410984
v    211.191039 17.558796 7.423839
v    217.626653 20.506034 3.687127
v    216.965209 20.285854 4.334933
v    216.335249 20.064604 4.954385
v    214.525628 19.453946 6.239966
v    212.819281 18.900918 6.814915
v    211.067366 18.255239 7.410984
v    211.030912 18.235704 7.423839
v    218.595695 18.396392 4.112548
v    222.090917 19.585640 4.112548
v    219.313387 22.017967 4.112548
v    221.404305 21.603608 5.999272
v    217.909083 20.414360 5.999272
v    220.686613 17.982033 5.999272
v    220.283960 22.530529 5.432010
v    221.512016 23.703609 7.010160
v    223.449093 25.536760 8.835998
v    225.883214 27.899076 9.923238
v    227.330854 29.196518 10.543844
v    227.755173 29.581229 10.537323
v    228.280625 29.943680 10.530231
v    222.470941 20.615356 5.432010
v    223.471736 21.987451 7.010160
v    225.033283 24.149459 8.835998
v    227.053789 26.873985 9.923238
v    228.148888 28.480153 10.543844
v    228.474251 28.951521 10.537323
v    228.764205 29.520202 10.530231
v    221.718982 21.097521 5.999272
v    218.190028 20.939922 5.999272
v    220.090990 17.962557 5.999272
v    218.281018 18.902479 12.880915
v    221.809972 19.060078 12.880915
v    219.909010 22.037443 12.880915
v    219.368108 17.298849 12.139383
v    217.258746 16.202907 14.348282
v    214.300627 14.676694 16.589119
v    209.909300 12.350770 18.181936
v    208.102744 11.483879 18.821637
v    206.922442 10.909141 18.806691
v    205.442576 10.417896 18.789367
v    217.283749 20.563457 12.139383
v    215.401922 19.111139 14.348282
v    212.772610 17.069936 16.589119
v    208.814730 14.065131 18.181936
v    207.268111 12.791115 18.821637
v    206.250054 11.962263 18.806691
v    205.181676 10.826527 18.789367
v    218.420020 18.861621 12.880915
v    221.775855 19.200887 12.880915
v    219.804125 21.937492 12.880915
v    221.579980 21.138379 19.681199
v    218.224145 20.799113 19.681199
v    220.195875 18.062508 19.681199
v    220.092755 23.085718 18.730905
v    222.678930 24.619470 21.524951
v    226.391670 26.800192 24.433366
v    231.436147 29.846133 26.322189
v    234.103506 31.315569 27.294400
v    235.134856 31.891479 27.280952
v    237.509067 32.830511 27.252585
v    222.956400 19.111206 18.730905
v    225.229931 21.078884 21.524951
v    228.473775 23.910396 24.433366
v    232.959905 27.731279 26.322189
v    235.198125 29.796325 27.294400
v    236.070892 30.592336 27.280952
v    237.713188 32.547206 27.252585
v    221.554633 21.012481 19.681199
v    218.345849 20.840111 19.681199
v    220.099518 18.147408 19.681199
v    218.445367 18.987519 30.874713
v    221.654151 19.159889 30.874713
v    219.900482 21.852592 30.874713
v    220.237041 16.393660 29.680814
v    216.856958 14.598525 33.237241
v    212.120024 12.093143 36.845088
v    204.656082 8.052973 39.565533
v    202.198632 6.846304 40.439541
v    199.847813 5.675193 40.409641
v    196.407980 4.498717 40.369248
v    216.797470 21.675015 29.680814
v    213.788900 19.309434 33.237241
v    209.582094 15.990056 36.845088
v    202.868903 10.797131 39.565533
v    200.771612 9.037449 40.439541
v    198.749959 7.360914 40.409641
v    196.283058 4.690532 40.369248
v    218.668453 19.261473 30.874713
v    221.305356 19.216110 30.874713
v    220.026190 21.522417 30.874713
v    221.331547 20.738527 48.403654
v    218.694644 20.783890 48.403654
v    219.973810 18.477583 48.403654
v    219.232388 24.305409 46.933173
v    223.541615 26.216075 51.313489
v    227.500567 28.020968 54.245887
v    229.556725 28.922550 55.757137
v    242.138331 34.620792 60.184289
v    248.769900 37.373557 60.102525
v    251.165439 38.007428 60.074993
v    253.397096 38.588576 59.666494
v    223.245899 17.069145 46.933173
v    227.148446 19.713045 51.313489
v    230.775796 22.115807 54.245887
v    232.629341 23.382697 55.757137
v    244.125102 31.038691 60.184289
v    249.971676 35.206784 60.102525
v    251.777817 36.903327 60.074993
v    253.452457 38.488762 59.666494
v    221.142276 20.303853 48.403654
v    219.165718 20.837314 48.403654
v    219.692006 18.858833 48.403654
v    218.857724 19.696147 69.787331
v    220.834282 19.162686 69.787331
v    220.307994 21.141167 69.787331
v    220.283179 14.833730 68.011782
v    214.674371 13.865561 73.300845
v    208.634091 12.758056 77.439642
v    190.425700 9.488536 84.011996
v    180.796348 8.023683 83.901032
v    174.760125 7.965915 83.145644
v    217.678864 24.624161 68.011782
v    212.330314 22.677605 73.300845
v    206.538087 20.637590 77.439642
v    189.111758 14.428055 84.011996
v    180.027264 10.914910 83.901032
v    174.760125 7.965915 83.145644
v    219.196352 19.666397 69.787331
v    220.690733 19.470821 69.787331
v    220.112916 20.862781 69.787331
v    220.803648 20.333603 89.667164
v    219.309267 20.529179 89.667164
v    219.887084 19.137219 89.667164
v    218.506020 25.474658 87.565382
v    224.933793 27.494103 93.826239
v    227.403442 28.298338 95.576726
v    233.932712 30.320215 100.177620
v    249.284263 35.277240 105.348470
v    252.774409 36.253098 106.505421
v    258.426596 37.868515 106.438496
v    265.571763 38.917312 106.358258
v    222.822303 15.076743 87.565382
v    228.790610 18.203040 93.826239
v    231.103791 19.384206 95.576726
v    237.145479 22.580665 100.177620
v    251.494546 29.952674 105.348470
v    254.649762 31.735376 106.505421
v    259.784360 34.597664 106.438496
v    265.571763 38.917312 106.358258
v    220.453328 20.373009 89.667164
v    219.450301 20.206089 89.667164
v    220.096371 19.420902 89.667164
v    219.546672 19.626991 106.911000
v    220.549699 19.793911 106.911000
v    219.903629 20.579098 106.911000
v    223.357798 15.133800 102.028123
v    220.923393 13.507421 105.399211
v    217.490662 11.303918 110.086694
v    209.083227 5.705283 118.583603
v    201.703468 0.613222 122.557796
v    193.007949 -4.870790 127.094739
v    190.370175 -6.043916 128.332395
v    185.648941 -8.264851 128.819080
v    215.871528 24.232072 102.028123
v    213.806777 22.156441 105.399211
v    210.983450 19.212313 110.086694
v    203.870520 12.040430 118.583603
v    197.452590 5.779432 122.557796
v    190.396658 -1.697217 127.094739
v    188.737513 -4.059696 128.332395
v    185.648941 -8.264851 128.819080
v    223.428864 21.966816 1.720593
v    223.981542 22.182559 1.910763
v    224.615058 22.401310 2.124729
v    225.179529 22.523118 2.118301
v    223.662335 21.487539 1.720593
v    224.172899 21.789736 1.910763
v    224.735661 22.153732 2.124729
v    225.179529 22.523118 2.118301
v    215.880571 16.317579 2.994156
v    215.270439 15.939665 3.223276
v    215.107234 15.837276 3.221083
v    214.402378 15.516006 3.212476
v    215.507255 16.783610 2.994156
v    215.005285 16.270671 3.223276
v    214.869743 16.133749 3.221083
v    214.402378 15.516006 3.212476
v    226.019311 22.669581 4.424866
v    226.380190 22.761636 4.543765
v    227.070225 22.838495 4.759561
v    227.415290 22.881106 4.755698
v    226.242693 22.094647 4.424866
v    226.571057 22.270388 4.543765
v    227.131974 22.679568 4.759561
v    227.415290 22.881106 4.755698
v    211.191039 17.558796 7.423839
v    210.879277 17.567331 7.520774
v    209.787542 17.584184 7.508642
v    211.030912 18.235704 7.423839
v    210.756017 18.088391 7.520774
v    209.787542 17.584184 7.508642
v    228.280625 29.943680 10.530231
v    229.359608 30.687950 10.515667
v    228.764205 29.520202 10.530231
v    229.359608 30.687950 10.515667
v    205.442576 10.417896 18.789367
v    204.504286 10.106429 18.778382
v    205.181676 10.826527 18.789367
v    204.504286 10.106429 18.778382
v    237.509067 32.830511 27.252585
v    238.171205 33.092396 27.244673
v    237.713188 32.547206 27.252585
v    238.171205 33.092396 27.244673
v    196.407980 4.498717 40.369248
v    195.966313 4.347660 40.364062
v    196.283058 4.690532 40.369248
v    195.966313 4.347660 40.364062
v    253.397096 38.588576 59.666494
v    253.618897 38.646336 59.625894
v    253.452457 38.488762 59.666494
v    253.618897 38.646336 59.625894
mtllib usm_42_2.5D_2018-08-05_5.mtl
usemtl APPID_4152149696_1941179438448 
o vid_3 
f 3 2 1
f 4 5 6
f 1 6 5
f 1 5 3
f 3 5 4
f 4 2 3
f 2 4 6
f 6 1 2
usemtl APPID_4152146784_1941179444976 
o vid_4 
f 7 12 13
f 8 13 14
f 9 14 15
f 7 13 8
f 8 14 9
f 9 15 10
f 10 15 16
f 10 16 11
usemtl APPID_4152149696_1941179438448 
o vid_5 
f 19 18 17
f 20 21 22
f 17 22 21
f 17 21 19
f 19 21 20
f 20 18 19
f 18 20 22
f 22 17 18
usemtl APPID_4152146784_1941179444976 
o vid_6 
f 23 28 29
f 24 29 30
f 25 30 31
f 23 29 24
f 24 30 25
f 25 31 26
f 26 31 32
f 26 32 27
usemtl APPID_4152149696_1941179438448 
o vid_7 
f 35 34 33
f 36 37 38
f 33 38 37
f 33 37 35
f 35 37 36
f 36 34 35
f 34 36 38
f 38 33 34
usemtl APPID_4152146784_1941179444976 
o vid_8 
f 39 45 46
f 40 46 47
f 41 47 48
f 42 48 49
f 39 46 40
f 40 47 41
f 41 48 42
f 42 49 43
f 43 49 50
f 43 50 44
usemtl APPID_4152149696_1941179438448 
o vid_9 
f 53 52 51
f 54 55 56
f 51 56 55
f 51 55 53
f 53 55 54
f 54 52 53
f 52 54 56
f 56 51 52
usemtl APPID_4152146784_1941179444976 
o vid_10 
f 57 64 65
f 58 65 66
f 59 66 67
f 60 67 68
f 61 68 69
f 57 65 58
f 58 66 59
f 59 67 60
f 60 68 61
f 61 69 62
f 62 69 70
f 62 70 63
usemtl APPID_4152149696_1941179438448 
o vid_11 
f 73 72 71
f 74 75 76
f 71 76 75
f 71 75 73
f 73 75 74
f 74 72 73
f 72 74 76
f 76 71 72
usemtl APPID_4152146784_1941179444976 
o vid_12 
f 77 84 85
f 78 85 86
f 79 86 87
f 80 87 88
f 81 88 89
f 77 85 78
f 78 86 79
f 79 87 80
f 80 88 81
f 81 89 82
f 82 89 90
f 82 90 83
usemtl APPID_4152149696_1941179438448 
o vid_13 
f 93 92 91
f 94 95 96
f 91 96 95
f 91 95 93
f 93 95 94
f 94 92 93
f 92 94 96
f 96 91 92
usemtl APPID_4152146784_1941179444976 
o vid_14 
f 97 104 105
f 98 105 106
f 99 106 107
f 100 107 108
f 101 108 109
f 97 105 98
f 98 106 99
f 99 107 100
f 100 108 101
f 101 109 102
f 102 109 110
f 102 110 103
usemtl APPID_4152149696_1941179438448 
o vid_15 
f 113 112 111
f 114 115 116
f 111 116 115
f 111 115 113
f 113 115 114
f 114 112 113
f 112 114 116
f 116 111 112
usemtl APPID_4152146784_1941179444976 
o vid_16 
f 117 124 125
f 118 125 126
f 119 126 127
f 120 127 128
f 121 128 129
f 117 125 118
f 118 126 119
f 119 127 120
f 120 128 121
f 121 129 122
f 122 129 130
f 122 130 123
usemtl APPID_4152149696_1941179438448 
o vid_17 
f 133 132 131
f 134 135 136
f 131 136 135
f 131 135 133
f 133 135 134
f 134 132 133
f 132 134 136
f 136 131 132
usemtl APPID_4152146784_1941179444976 
o vid_18 
f 137 144 145
f 138 145 146
f 139 146 147
f 140 147 148
f 141 148 149
f 137 145 138
f 138 146 139
f 139 147 140
f 140 148 141
f 141 149 142
f 142 149 150
f 142 150 143
usemtl APPID_4152149696_1941179438448 
o vid_19 
f 153 152 151
f 154 155 156
f 151 156 155
f 151 155 153
f 153 155 154
f 154 152 153
f 152 154 156
f 156 151 152
usemtl APPID_4152146784_1941179444976 
o vid_20 
f 157 165 166
f 158 166 167
f 159 167 168
f 160 168 169
f 161 169 170
f 162 170 171
f 157 166 158
f 158 167 159
f 159 168 160
f 160 169 161
f 161 170 162
f 162 171 163
f 163 171 172
f 163 172 164
usemtl APPID_4152149696_1941179438448 
o vid_21 
f 175 174 173
f 176 177 178
f 173 178 177
f 173 177 175
f 175 177 176
f 176 174 175
f 174 176 178
f 178 173 174
usemtl APPID_4152146784_1941179444976 
o vid_22 
f 179 185 186
f 180 186 187
f 181 187 188
f 182 188 189
f 179 186 180
f 180 187 181
f 181 188 182
f 182 189 183
f 183 189 190
usemtl APPID_4152149696_1941179438448 
o vid_23 
f 193 192 191
f 194 195 196
f 191 196 195
f 191 195 193
f 193 195 194
f 194 192 193
f 192 194 196
f 196 191 192
usemtl APPID_4152146784_1941179444976 
o vid_24 
f 197 205 206
f 198 206 207
f 199 207 208
f 200 208 209
f 201 209 210
f 202 210 211
f 197 206 198
f 198 207 199
f 199 208 200
f 200 209 201
f 201 210 202
f 202 211 203
f 203 211 212
usemtl APPID_4152149696_1941179438448 
o vid_25 
f 215 214 213
f 216 217 218
f 213 218 217
f 213 217 215
f 215 217 216
f 216 214 215
f 214 216 218
f 218 213 214
usemtl APPID_4152146784_1941179444976 
o vid_26 
f 219 227 228
f 220 228 229
f 221 229 230
f 222 230 231
f 223 231 232
f 224 232 233
f 219 228 220
f 220 229 221
f 221 230 222
f 222 231 223
f 223 232 224
f 224 233 225
f 225 233 234
usemtl APPID_4152146336_1941179443824 
o vid_10000004 
f 235 239 240
f 236 240 241
f 235 240 236
f 236 241 237
f 237 241 242
usemtl APPID_4152146336_1941179443824 
o vid_10000006 
f 243 247 248
f 244 248 249
f 243 248 244
f 244 249 245
f 245 249 250
usemtl APPID_4152146336_1941179443824 
o vid_10000008 
f 251 255 256
f 252 256 257
f 251 256 252
f 252 257 253
f 253 257 258
usemtl APPID_4152146336_1941179443824 
o vid_10000010 
f 259 262 263
f 259 263 260
f 260 263 264
usemtl APPID_4152146336_1941179443824 
o vid_10000012 
f 265 267 268
f 265 268 266
f 265 267 268
usemtl APPID_4152146336_1941179443824 
o vid_10000014 
f 269 271 272
f 269 272 270
f 269 271 272
usemtl APPID_4152146336_1941179443824 
o vid_10000016 
f 273 275 276
f 273 276 274
f 273 275 276
usemtl APPID_4152146336_1941179443824 
o vid_10000018 
f 277 279 280
f 277 280 278
f 277 279 280
usemtl APPID_4152146336_1941179443824 
o vid_10000020 
f 281 283 284
f 281 284 282
f 281 283 284
