# File generated by PlantGL - Fri Sep  4 14:43:45 2026
v    138.236613 19.140996 0.000000
v    141.625613 18.902364 0.000000
v    140.137775 21.956640 0.000000
v    141.763387 20.859004 0.331061
v    138.374387 21.097636 0.331061
v    139.862225 18.043360 0.331061
v    141.364553 21.425160 -0.051354
v    142.463537 21.842612 1.062557
v    143.756417 22.324710 1.927651
v    144.126752 22.467233 2.027778
v    145.214356 22.853488 2.318249
v    145.901763 23.009049 2.492015
v    146.420109 23.127445 2.382108
v    141.963335 20.195964 -0.051354
v    142.969484 20.803990 1.062557
v    144.146057 21.524845 1.927651
v    144.486567 21.728597 2.027778
v    145.461135 22.346893 2.318249
v    146.007361 22.792276 2.492015
v    146.420109 23.127445 2.382108
v    141.239664 20.993037 0.331061
v    138.520173 20.577062 0.331061
v    140.240163 18.429901 0.331061
v    138.760336 19.006963 0.718770
v    141.479827 19.422938 0.718770
v    139.759837 21.570099 0.718770
v    139.524285 18.298988 0.187697
v    138.163264 17.397335 1.734622
v    137.150238 16.707221 2.504388
v    136.573151 16.331585 2.936006
v    135.119014 15.359096 3.377418
v    133.968952 14.632717 3.719757
v    132.205845 13.756466 3.311437
v    138.236169 19.907017 0.187697
v    137.059198 18.775603 1.734622
v    136.164620 17.937624 2.504388
v    135.672086 17.456436 2.936006
v    134.405663 16.249612 3.377418
v    133.445784 15.285816 3.719757
v    132.205845 13.756466 3.311437
v    138.845841 19.551568 0.718770
v    140.965433 19.224685 0.718770
v    140.188726 21.223747 0.718770
v    141.154159 20.448432 1.487000
v    139.034567 20.775315 1.487000
v    139.811274 18.776253 1.487000
v    140.443350 21.702996 0.767206
v    142.569739 22.315144 2.863844
v    144.538917 22.909696 4.155610
v    145.056039 23.054052 4.492151
v    147.766961 23.847290 5.204876
v    149.109661 24.202369 5.554415
v    149.873752 24.405253 5.387660
v    152.189052 24.735884 4.904210
v    141.476829 19.043063 0.767206
v    143.458716 20.027127 2.863844
v    145.312751 20.918030 4.155610
v    145.791683 21.160677 4.492151
v    148.327031 22.405803 5.204876
v    149.557245 23.050393 5.554415
v    150.257877 23.416606 5.387660
v    152.189052 24.735884 4.904210
v    140.886577 20.209725 1.487000
v    139.375084 20.662936 1.487000
v    139.738339 19.127339 1.487000
v    139.113423 19.790275 2.857581
v    140.624916 19.337064 2.857581
v    140.261661 20.872661 2.857581
v    139.824629 17.980144 1.905447
v    136.927095 17.565896 4.678853
v    133.754833 17.070457 6.695159
v    129.285390 16.414344 7.917225
v    128.020398 16.261512 8.237906
v    126.418462 16.066342 7.897510
v    123.324764 16.055376 7.258008
v    138.938240 21.727205 1.905447
v    136.162206 20.799338 4.678853
v    133.104184 19.820967 6.695159
v    128.814477 18.405053 7.917225
v    127.615081 17.974920 8.237906
v    126.095485 17.431673 7.897510
v    123.324764 16.055376 7.258008
v    139.600198 19.543457 2.857581
v    140.595278 19.882033 2.857581
v    139.804523 20.574510 2.857581
v    140.399802 20.456543 3.663000
v    139.404722 20.117967 3.663000
v    140.195477 19.425490 3.663000
v    138.738967 21.463236 1.154340
v    139.241152 21.902770 2.325672
v    140.729988 23.115045 5.677362
v    141.809083 24.070153 7.332051
v    143.363094 25.342907 9.625541
v    143.861668 25.784393 10.025348
v    146.784294 27.747141 12.084328
v    141.616824 18.943051 1.154340
v    141.986258 19.498837 2.325672
v    142.991498 21.134605 5.677362
v    143.795880 22.330283 7.332051
v    144.852472 24.038636 9.625541
v    145.224316 24.591101 10.025348
v    146.784294 27.747141 12.084328
mtllib usm_35_2.5D_2018-08-01_3.mtl
usemtl APPID_929274832_1946549234512 
o vid_3 
f 3 2 1
f 4 5 6
f 1 6 5
f 1 5 3
f 3 5 4
f 4 2 3
f 2 4 6
f 6 1 2
usemtl APPID_929271584_1946549230160 
o vid_4 
f 7 14 15
f 8 15 16
f 9 16 17
f 10 17 18
f 11 18 19
f 7 15 8
f 8 16 9
f 9 17 10
f 10 18 11
f 11 19 12
f 12 19 20
usemtl APPID_929274832_1946549234512 
o vid_5 
f 23 22 21
f 24 25 26
f 21 26 25
f 21 25 23
f 23 25 24
f 24 22 23
f 22 24 26
f 26 21 22
usemtl APPID_929271584_1946549230160 
o vid_6 
f 27 34 35
f 28 35 36
f 29 36 37
f 30 37 38
f 31 38 39
f 27 35 28
f 28 36 29
f 29 37 30
f 30 38 31
f 31 39 32
f 32 39 40
usemtl APPID_929274832_1946549234512 
o vid_7 
f 43 42 41
f 44 45 46
f 41 46 45
f 41 45 43
f 43 45 44
f 44 42 43
f 42 44 46
f 46 41 42
usemtl APPID_929271584_1946549230160 
o vid_8 
f 47 55 56
f 48 56 57
f 49 57 58
f 50 58 59
f 51 59 60
f 52 60 61
f 47 56 48
f 48 57 49
f 49 58 50
f 50 59 51
f 51 60 52
f 52 61 53
f 53 61 62
usemtl APPID_929274832_1946549234512 
o vid_9 
f 65 64 63
f 66 67 68
f 63 68 67
f 63 67 65
f 65 67 66
f 66 64 65
f 64 66 68
f 68 63 64
usemtl APPID_929271584_1946549230160 
o vid_10 
f 69 76 77
f 70 77 78
f 71 78 79
f 72 79 80
f 73 80 81
f 69 77 70
f 70 78 71
f 71 79 72
f 72 80 73
f 73 81 74
f 74 81 82
usemtl APPID_929274832_1946549234512 
o vid_11 
f 85 84 83
f 86 87 88
f 83 88 87
f 83 87 85
f 85 87 86
f 86 84 85
f 84 86 88
f 88 83 84
usemtl APPID_929271584_1946549230160 
o vid_12 
f 89 96 97
f 90 97 98
f 91 98 99
f 92 99 100
f 93 100 101
f 89 97 90
f 90 98 91
f 91 99 92
f 92 100 93
f 93 101 94
f 94 101 102
