# File generated by PlantGL - Fri Sep  4 14:43:43 2026
v    58.201987 19.124129 0.000000
v    61.657533 18.880811 0.000000
v    60.140480 21.995060 0.000000
v    61.798013 20.875871 0.331061
v    58.342467 21.119189 0.331061
v    59.859520 18.004940 0.331061
v    61.368313 21.462224 -0.116704
v    61.894187 21.661979 0.416312
v    62.663877 21.932997 1.187561
v    63.524744 22.252064 1.763050
v    64.188297 22.475716 2.200489
v    64.707259 22.660022 2.339091
v    66.114147 22.978401 2.694730
v    61.994838 20.176077 -0.116704
v    62.476289 20.467023 0.416312
v    63.164149 20.906025 1.187561
v    63.946046 21.387203 1.763050
v    64.531183 21.771828 2.200489
v    64.996210 22.066856 2.339091
v    66.114147 22.978401 2.694730
v    61.503548 21.204422 0.331061
v    58.205166 20.699900 0.331061
v    60.291286 18.095678 0.331061
v    58.496452 18.795578 0.771522
v    61.794834 19.300100 0.771522
v    59.708714 21.904322 0.771522
v    59.330152 18.037259 0.161062
v    57.765678 17.000822 1.939229
v    57.361516 16.725491 2.246339
v    55.925729 15.790913 3.320202
v    55.130931 15.259373 3.561468
v    53.573209 14.275515 4.025155
v    52.855691 13.933651 4.221112
v    51.789746 13.423149 3.976805
v    57.938379 19.774688 0.161062
v    56.585468 18.474145 1.939229
v    56.228563 18.139821 2.246339
v    55.003142 16.942630 3.320202
v    54.310945 16.283007 3.561468
v    53.010820 14.977577 4.025155
v    52.520593 14.351973 4.221112
v    51.789746 13.423149 3.976805
v    58.272844 19.328938 0.771522
v    61.444735 18.839770 0.771522
v    60.282421 21.831292 0.771522
v    61.727156 20.671062 1.487405
v    58.555265 21.160230 1.487405
v    59.717579 18.168708 1.487405
v    60.982521 21.937942 0.674026
v    63.385374 22.629679 3.043261
v    66.210934 23.423475 4.883274
v    66.970911 23.645851 5.083079
v    69.344159 24.273460 5.700897
v    70.881442 24.489839 6.083650
v    71.947672 24.642099 5.861014
v    62.033189 19.233769 0.674026
v    64.272752 20.345777 3.043261
v    66.893042 21.667889 4.883274
v    67.603798 22.016946 5.083079
v    69.778226 23.156273 5.700897
v    71.058337 24.034552 6.083650
v    71.947672 24.642099 5.861014
v    61.731622 20.409625 1.487405
v    58.779443 21.294816 1.487405
v    59.488935 18.295559 1.487405
v    58.268378 19.590375 2.987040
v    61.220557 18.705184 2.987040
v    60.511065 21.704441 2.987040
v    59.040975 17.655194 1.927890
v    55.817769 17.194386 5.013017
v    53.318954 16.804124 6.601276
v    52.041894 16.632067 7.409011
v    48.494499 16.109120 8.313792
v    45.897696 15.795382 8.972093
v    41.874461 15.712299 8.137083
v    58.092051 21.666607 1.927890
v    55.004002 20.634451 5.013017
v    52.595174 19.863781 6.601276
v    51.376377 19.445429 7.409011
v    47.970657 18.323576 8.313792
v    45.508512 17.440591 8.972093
v    41.874461 15.712299 8.137083
v    58.876148 18.716648 2.987040
v    61.673341 19.668392 2.987040
v    59.450510 21.614960 2.987040
v    61.123852 21.283352 4.897980
v    58.326659 20.331608 4.897980
v    60.549490 18.385040 4.897980
v    58.739103 22.853471 3.550098
v    59.532219 23.609587 4.588406
v    61.738665 25.712084 7.476249
v    65.210177 29.106720 10.525406
v    70.685021 34.399303 12.447298
v    73.713085 37.166673 11.705729
v    77.270355 39.721414 10.800423
v    62.994888 19.126613 3.550098
v    63.639750 20.012557 4.588406
v    65.432748 22.477117 7.476249
v    68.339676 26.366168 10.525406
v    72.863639 32.491452 12.447298
v    75.207294 35.858170 11.705729
v    77.270355 39.721414 10.800423
v    61.375838 20.878433 4.897980
v    58.551335 20.752294 4.897980
v    60.072827 18.369272 4.897980
v    58.624162 19.121567 12.075822
v    61.448665 19.247706 12.075822
v    59.927173 21.630728 12.075822
v    61.109150 16.130546 10.399432
v    56.549481 13.734653 15.282471
v    51.223790 10.887956 19.074772
v    45.127148 7.552015 20.830841
v    42.606496 6.232341 21.548768
v    37.992001 3.811915 20.446854
v    33.411365 1.558520 19.370073
v    29.634551 0.321079 17.438924
v    28.736815 0.039349 16.862555
v    56.956577 22.634476 10.399432
v    52.864384 19.506402 15.282471
v    48.040894 15.873136 19.074772
v    42.449163 11.746385 20.830841
v    40.191303 10.015114 21.548768
v    36.053783 6.847630 20.446854
v    32.082035 3.640571 19.370073
v    29.370165 0.735172 17.438924
v    28.736815 0.039349 16.862555
v    58.735263 19.088754 12.075822
v    61.421531 19.360328 12.075822
v    59.843206 21.550918 12.075822
v    61.264737 20.911246 22.185723
v    58.578469 20.639672 22.185723
v    60.156794 18.449082 22.185723
v    57.992645 24.444405 20.148084
v    60.293465 25.946273 22.759398
v    62.105982 27.018784 24.754992
v    65.644952 29.153784 27.798616
v    69.581271 31.550917 30.692894
v    78.968344 37.394361 33.486895
v    87.391605 42.433620 31.802941
v    91.458396 44.726088 30.818226
v    95.723029 46.551200 28.143948
v    97.851951 47.272420 26.203763
v    63.580432 16.689001 20.148084
v    65.733390 18.396090 22.759398
v    67.324498 19.775899 24.754992
v    70.469964 22.457051 27.798616
v    73.989864 25.432141 30.692894
v    82.504280 32.486762 33.486895
v    89.950773 38.881698 31.802941
v    93.412691 42.013682 30.818226
v    96.493912 45.481275 28.143948
v    97.851951 47.272420 26.203763
v    61.140480 20.742757 22.185723
v    58.786514 20.616306 22.185723
v    60.073006 18.640937 22.185723
v    58.859520 19.257243 42.482171
v    61.213486 19.383694 42.482171
v    59.926994 21.359063 42.482171
v    62.533645 14.898675 40.061652
v    60.094982 13.465822 42.749793
v    58.270236 12.499021 44.706520
v    56.026803 11.310389 47.112215
v    53.626826 9.998923 48.829757
v    48.374806 7.130370 52.587876
v    37.418686 1.006136 55.759475
v    27.146411 -4.499500 54.031156
v    21.664729 -7.257958 52.736758
v    16.463435 -9.125450 49.559971
v    14.345004 -9.733579 47.657575
v    56.358776 24.379996 40.061652
v    54.062213 22.728954 42.749793
v    52.440139 21.450955 44.706520
v    50.445882 19.879721 47.112215
v    48.275982 18.214978 48.829757
v    43.528744 14.571348 52.587876
v    33.497402 7.027147 55.759475
v    24.308344 -0.141736 54.031156
v    19.568937 -4.039933 52.736758
v    15.757785 -8.041947 49.559971
v    14.345004 -9.733579 47.657575
v    59.061614 19.479535 42.482171
v    60.919929 19.447567 42.482171
v    60.018457 21.072898 42.482171
v    60.938386 20.520465 70.336086
v    59.080071 20.552433 70.336086
v    59.981543 18.927102 70.336086
v    57.557997 24.939399 67.526003
v    65.459423 28.431205 75.711300
v    71.980697 31.414414 80.214777
v    74.694798 32.587709 82.068224
v    83.862238 36.686857 84.602144
v    89.780026 39.149511 86.215312
v    100.489642 42.457115 83.887100
v    62.897146 15.313041 67.526003
v    70.043038 20.167057 75.711300
v    76.026700 24.119568 80.214777
v    78.459118 25.800731 82.068224
v    86.790571 31.407142 84.602144
v    92.013098 35.123336 86.215312
v    100.489642 42.457115 83.887100
v    60.780913 20.207728 70.336086
v    59.429646 20.572427 70.336086
v    59.789441 19.219845 70.336086
v    59.219087 19.792272 109.483989
v    60.570354 19.427573 109.483989
v    60.210559 20.780155 109.483989
v    61.701721 14.046772 106.295691
v    52.041242 12.391435 115.582663
v    44.728584 11.040899 120.252617
v    40.725234 10.388176 122.795178
v    30.294161 8.553951 125.467614
v    22.305207 7.363414 127.500431
v    10.408764 6.808426 125.030126
v    58.518918 26.011920 106.295691
v    49.312769 22.648617 115.582663
v    42.295578 20.187325 120.252617
v    38.497028 18.764695 122.795178
v    28.533250 15.173763 125.467614
v    21.008644 12.237597 127.500431
v    10.408764 6.808426 125.030126
v    59.477195 19.782978 109.483989
v    60.449349 19.655748 109.483989
v    60.073456 20.561273 109.483989
v    60.522805 20.217022 143.663068
v    59.550651 20.344252 143.663068
v    59.926544 19.438727 143.663068
v    57.065118 25.879327 140.127757
v    67.437485 29.124075 150.425521
v    71.472754 30.443902 153.091741
v    79.610266 32.917514 158.423046
v    86.432310 35.084325 160.229183
v    96.682411 38.047471 162.914499
v    99.587832 38.524444 163.640419
v    107.989934 39.921119 161.879790
v    62.091573 13.770606 140.127757
v    71.712603 18.825325 150.425521
v    75.496284 20.751226 153.091741
v    82.993343 24.767686 158.423046
v    89.344379 28.069158 160.229183
v    98.679658 33.236106 162.914499
v    101.068742 34.956937 163.640419
v    107.989934 39.921119 161.879790
v    60.267974 20.220495 143.663068
v    59.675058 20.121825 143.663068
v    60.056968 19.657680 143.663068
v    59.732026 19.779505 153.209000
v    60.324942 19.878175 153.209000
v    59.943032 20.342320 153.209000
v    62.704680 15.890070 145.602044
v    60.777652 15.310205 154.715995
v    59.238454 15.016808 161.466140
v    57.403974 14.208569 166.039612
v    52.377262 13.404365 176.447966
v    51.664323 13.141211 177.277277
v    56.487866 23.445538 145.602044
v    55.547750 21.666250 154.715995
v    54.963429 20.212366 161.466140
v    53.817036 18.567874 166.039612
v    52.059848 13.790126 176.447966
v    51.664323 13.141211 177.277277
mtllib usm_33_2.5D_2018-09-06_1.mtl
usemtl APPID_4047060912_2409227679200 
o vid_3 
f 3 2 1
f 4 5 6
f 1 6 5
f 1 5 3
f 3 5 4
f 4 2 3
f 2 4 6
f 6 1 2
usemtl APPID_4047064272_2409227674080 
o vid_4 
f 7 14 15
f 8 15 16
f 9 16 17
f 10 17 18
f 11 18 19
f 7 15 8
f 8 16 9
f 9 17 10
f 10 18 11
f 11 19 12
f 12 19 20
usemtl APPID_4047060912_2409227679200 
o vid_5 
f 23 22 21
f 24 25 26
f 21 26 25
f 21 25 23
f 23 25 24
f 24 22 23
f 22 24 26
f 26 21 22
usemtl APPID_4047064272_2409227674080 
o vid_6 
f 27 35 36
f 28 36 37
f 29 37 38
f 30 38 39
f 31 39 40
f 32 40 41
f 27 36 28
f 28 37 29
f 29 38 30
f 30 39 31
f 31 40 32
f 32 41 33
f 33 41 42
usemtl APPID_4047060912_2409227679200 
o vid_7 
f 45 44 43
f 46 47 48
f 43 48 47
f 43 47 45
f 45 47 46
f 46 44 45
f 44 46 48
f 48 43 44
usemtl APPID_4047064272_2409227674080 
o vid_8 
f 49 56 57
f 50 57 58
f 51 58 59
f 52 59 60
f 53 60 61
f 49 57 50
f 50 58 51
f 51 59 52
f 52 60 53
f 53 61 54
f 54 61 62
usemtl APPID_4047060912_2409227679200 
o vid_9 
f 65 64 63
f 66 67 68
f 63 68 67
f 63 67 65
f 65 67 66
f 66 64 65
f 64 66 68
f 68 63 64
usemtl APPID_4047064272_2409227674080 
o vid_10 
f 69 76 77
f 70 77 78
f 71 78 79
f 72 79 80
f 73 80 81
f 69 77 70
f 70 78 71
f 71 79 72
f 72 80 73
f 73 81 74
f 74 81 82
usemtl APPID_4047060912_2409227679200 
o vid_11 
f 85 84 83
f 86 87 88
f 83 88 87
f 83 87 85
f 85 87 86
f 86 84 85
f 84 86 88
f 88 83 84
usemtl APPID_4047064272_2409227674080 
o vid_12 
f 89 96 97
f 90 97 98
f 91 98 99
f 92 99 100
f 93 100 101
f 89 97 90
f 90 98 91
f 91 99 92
f 92 100 93
f 93 101 94
f 94 101 102
usemtl APPID_4047060912_2409227679200 
o vid_13 
f 105 104 103
f 106 107 108
f 103 108 107
f 103 107 105
f 105 107 106
f 106 104 105
f 104 106 108
f 108 103 104
usemtl APPID_4047064272_2409227674080 
o vid_14 
f 109 118 119
f 110 119 120
f 111 120 121
f 112 121 122
f 113 122 123
f 114 123 124
f 115 124 125
f 109 119 110
f 110 120 111
f 111 121 112
f 112 122 113
f 113 123 114
f 114 124 115
f 115 125 116
f 116 125 126
usemtl APPID_4047060912_2409227679200 
o vid_15 
f 129 128 127
f 130 131 132
f 127 132 131
f 127 131 129
f 129 131 130
f 130 128 129
f 128 130 132
f 132 127 128
usemtl APPID_4047064272_2409227674080 
o vid_16 
f 133 143 144
f 134 144 145
f 135 145 146
f 136 146 147
f 137 147 148
f 138 148 149
f 139 149 150
f 140 150 151
f 133 144 134
f 134 145 135
f 135 146 136
f 136 147 137
f 137 148 138
f 138 149 139
f 139 150 140
f 140 151 141
f 141 151 152
usemtl APPID_4047060912_2409227679200 
o vid_17 
f 155 154 153
f 156 157 158
f 153 158 157
f 153 157 155
f 155 157 156
f 156 154 155
f 154 156 158
f 158 153 154
usemtl APPID_4047064272_2409227674080 
o vid_18 
f 159 170 171
f 160 171 172
f 161 172 173
f 162 173 174
f 163 174 175
f 164 175 176
f 165 176 177
f 166 177 178
f 167 178 179
f 159 171 160
f 160 172 161
f 161 173 162
f 162 174 163
f 163 175 164
f 164 176 165
f 165 177 166
f 166 178 167
f 167 179 168
f 168 179 180
usemtl APPID_4047060912_2409227679200 
o vid_19 
f 183 182 181
f 184 185 186
f 181 186 185
f 181 185 183
f 183 185 184
f 184 182 183
f 182 184 186
f 186 181 182
usemtl APPID_4047064272_2409227674080 
o vid_20 
f 187 194 195
f 188 195 196
f 189 196 197
f 190 197 198
f 191 198 199
f 187 195 188
f 188 196 189
f 189 197 190
f 190 198 191
f 191 199 192
f 192 199 200
usemtl APPID_4047060912_2409227679200 
o vid_21 
f 203 202 201
f 204 205 206
f 201 206 205
f 201 205 203
f 203 205 204
f 204 202 203
f 202 204 206
f 206 201 202
usemtl APPID_4047064272_2409227674080 
o vid_22 
f 207 214 215
f 208 215 216
f 209 216 217
f 210 217 218
f 211 218 219
f 207 215 208
f 208 216 209
f 209 217 210
f 210 218 211
f 211 219 212
f 212 219 220
usemtl APPID_4047060912_2409227679200 
o vid_23 
f 223 222 221
f 224 225 226
f 221 226 225
f 221 225 223
f 223 225 224
f 224 222 223
f 222 224 226
f 226 221 222
usemtl APPID_4047064272_2409227674080 
o vid_24 
f 227 235 236
f 228 236 237
f 229 237 238
f 230 238 239
f 231 239 240
f 232 240 241
f 227 236 228
f 228 237 229
f 229 238 230
f 230 239 231
f 231 240 232
f 232 241 233
f 233 241 242
usemtl APPID_4047060912_2409227679200 
o vid_25 
f 245 244 243
f 246 247 248
f 243 248 247
f 243 247 245
f 245 247 246
f 246 244 245
f 244 246 248
f 248 243 244
usemtl APPID_4047064272_2409227674080 
o vid_26 
f 249 255 256
f 250 256 257
f 251 257 258
f 252 258 259
f 249 256 250
f 250 257 251
f 251 258 252
f 252 259 253
f 253 259 260
