# File generated by PlantGL - Fri Sep  4 14:43:39 2026
v    18.201987 99.124129 0.000000
v    21.657533 98.880811 0.000000
v    20.140480 101.995060 0.000000
v    21.798013 100.875871 0.331061
v    18.342467 101.119189 0.331061
v    19.859520 98.004940 0.331061
v    21.368330 101.462214 -0.116670
v    21.894568 101.662107 0.416717
v    22.663788 101.932960 1.187494
v    23.525063 102.252177 1.763257
v    24.188082 102.475650 2.200343
v    24.707552 102.660136 2.339081
v    26.114331 102.978491 2.694692
v    21.994840 100.176096 -0.116670
v    22.476625 100.467244 0.416717
v    23.164064 100.905978 1.187494
v    23.946332 101.387384 1.763257
v    24.530999 101.771700 2.200343
v    24.996480 102.067016 2.339081
v    26.114331 102.978491 2.694692
v    21.503548 101.204422 0.331061
v    18.205166 100.699900 0.331061
v    20.291286 98.095678 0.331061
v    18.496452 98.795578 0.771522
v    21.794834 99.300100 0.771522
v    19.708714 101.904322 0.771522
v    19.330129 98.037269 0.161104
v    17.765761 97.000902 1.939150
v    17.361053 96.725198 2.246675
v    15.925945 95.791063 3.320030
v    15.130539 95.259116 3.561480
v    13.572923 94.275325 4.025136
v    12.856188 93.933834 4.220879
v    11.789575 93.423012 3.976419
v    17.938383 99.774664 0.161104
v    16.585564 98.474209 1.939150
v    16.228176 98.139432 2.246675
v    15.003336 96.942808 3.320030
v    14.310609 96.282681 3.561480
v    13.010572 94.977339 4.025136
v    12.520880 94.352418 4.220879
v    11.789575 93.423012 3.976419
v    18.272844 99.328938 0.771522
v    21.444735 98.839770 0.771522
v    20.282421 101.831292 0.771522
v    21.727156 100.671062 1.487405
v    18.555265 101.160230 1.487405
v    19.717579 98.168708 1.487405
v    20.982541 101.937926 0.674073
v    23.385256 102.629623 3.043171
v    26.210645 103.423389 4.883077
v    26.971456 103.646008 5.083101
v    29.344567 104.273581 5.700883
v    30.880834 104.489817 6.083383
v    31.947936 104.642202 5.860565
v    22.033193 99.233795 0.674073
v    24.272627 100.345739 3.043171
v    26.892771 101.667758 4.883077
v    27.604307 102.017198 5.083101
v    29.778609 103.156459 5.700883
v    31.057874 104.034157 6.083383
v    31.947936 104.642202 5.860565
v    21.731622 100.409625 1.487405
v    18.779443 101.294816 1.487405
v    19.488935 98.295559 1.487405
v    18.268378 99.590375 2.987040
v    21.220557 98.705184 2.987040
v    20.511065 101.704441 2.987040
v    19.040953 97.655220 1.927942
v    15.817906 97.194435 5.012917
v    13.318314 96.804052 6.601670
v    12.042221 96.632126 7.408793
v    8.493968 96.109052 8.313793
v    5.898332 95.795455 8.971798
v    1.874247 95.712248 8.136607
v    18.092044 101.666573 1.927942
v    15.004147 100.634468 5.012917
v    12.594570 99.863559 6.601670
v    11.376696 99.445523 7.408793
v    7.970152 98.323399 8.313793
v    5.509113 97.440811 8.971798
v    1.874247 95.712248 8.136607
v    18.876148 98.716648 2.987040
v    21.673341 99.668392 2.987040
v    19.450510 101.614960 2.987040
v    21.123852 101.283352 4.897980
v    18.326659 100.331608 4.897980
v    20.549490 98.385040 4.897980
v    18.739141 102.853459 3.550154
v    19.532865 103.610155 4.589258
v    21.738580 105.711954 7.476143
v    25.209949 109.106450 10.525174
v    30.685404 114.399650 12.447286
v    33.713351 117.166915 11.705196
v    37.270474 119.721550 10.799927
v    22.994871 99.126649 3.550154
v    23.640227 100.013273 4.589258
v    25.432630 102.477015 7.476143
v    28.339439 106.365906 10.525174
v    32.863933 112.491877 12.447286
v    35.207499 115.858465 11.705196
v    37.270474 119.721550 10.799927
v    21.375838 100.878433 4.897980
v    18.551335 100.752294 4.897980
v    20.072827 98.369272 4.897980
v    18.624162 99.121567 12.075822
v    21.448665 99.247706 12.075822
v    19.927173 101.630728 12.075822
v    21.109092 96.130606 10.399489
v    16.549603 93.734755 15.282362
v    11.224093 90.888155 19.074534
v    5.126409 87.551643 20.830904
v    2.607105 86.232676 21.548447
v    -2.008507 83.811663 20.446265
v    -6.588988 81.558345 19.369521
v    -10.363042 80.321834 17.439488
v    -11.263087 80.039411 16.861410
v    16.956607 102.634398 10.399489
v    12.864528 99.506469 15.282362
v    8.041202 95.873328 19.074534
v    2.448514 91.745870 20.830904
v    0.191863 90.015527 21.548447
v    -3.946659 86.847275 20.446265
v    -7.918273 83.640325 19.369521
v    -10.628138 80.737038 17.439488
v    -11.263087 80.039411 16.861410
v    18.765882 99.110815 12.075822
v    21.387116 99.375815 12.075822
v    19.847002 101.513371 12.075822
v    21.234118 100.889185 22.185723
v    18.612884 100.624185 22.185723
v    20.152998 98.486629 22.185723
v    17.962086 104.422288 20.148140
v    20.263777 105.924725 22.760442
v    22.077207 106.997776 24.757041
v    25.615268 109.132257 27.799281
v    29.550365 111.528646 30.692661
v    38.938448 117.372719 33.486963
v    47.361489 122.411847 31.802357
v    51.426850 124.703509 30.817989
v    55.691259 126.528720 28.143784
v    57.821254 127.250302 26.202622
v    23.549779 96.667014 20.148140
v    25.703552 98.374749 22.760442
v    27.295462 99.755253 24.757041
v    30.440148 102.435708 27.799281
v    33.958954 105.409874 30.692661
v    42.474288 112.465255 33.486963
v    49.920587 118.860023 31.802357
v    53.381287 121.990906 30.817989
v    56.462531 125.458256 28.143784
v    57.821254 127.250302 26.202622
v    21.020012 100.664300 22.185723
v    18.914694 100.551206 22.185723
v    20.065295 98.784494 22.185723
v    18.979988 99.335700 42.482171
v    21.085306 99.448794 42.482171
v    19.934705 101.215506 42.482171
v    22.654053 94.977197 40.061704
v    20.214792 93.543993 42.750505
v    18.389416 92.576859 44.707906
v    16.147370 91.388962 47.112115
v    13.746670 90.077100 48.830174
v    8.495539 87.209033 52.587656
v    -2.461225 81.084439 55.759443
v    -12.733285 75.578917 54.030689
v    -18.213932 72.820980 52.736535
v    -23.415047 70.953425 49.559818
v    -25.534208 70.345086 47.656766
v    16.479280 104.458371 40.061704
v    14.182154 102.806924 42.750505
v    12.559521 101.528485 44.707906
v    10.566497 99.958222 47.112115
v    8.395943 98.292978 48.830174
v    3.649509 94.649964 52.587656
v    -6.382424 87.105319 55.759443
v    -15.571290 79.936587 54.030689
v    -20.309803 76.039126 52.736535
v    -24.120940 72.037302 49.559818
v    -25.534208 70.345086 47.656766
v    19.181112 99.545813 42.482171
v    20.802781 99.517916 42.482171
v    20.016107 100.936271 42.482171
v    20.818888 100.454187 70.336086
v    19.197219 100.482084 70.336086
v    19.983893 99.063729 70.336086
v    17.438633 104.872909 67.526050
v    25.339926 108.364656 75.711209
v    31.859233 111.346966 80.213329
v    34.575168 112.521053 82.068028
v    43.740316 116.619177 84.601314
v    49.660172 119.082692 86.215046
v    60.367422 122.389328 83.887372
v    22.777539 95.246988 67.526050
v    29.923311 100.100923 75.711209
v    35.905169 104.052241 80.213329
v    38.339230 105.734540 82.068028
v    46.668600 111.339550 84.601314
v    51.892952 115.057043 86.215046
v    60.367422 122.389328 83.887372
v    20.655736 100.174430 70.336086
v    19.521071 100.480669 70.336086
v    19.823193 99.344901 70.336086
v    19.344264 99.825570 109.483989
v    20.478929 99.519331 109.483989
v    20.176807 100.655099 109.483989
v    21.826836 94.080257 106.295731
v    12.166478 92.424942 115.582586
v    4.855434 91.074704 120.251510
v    0.850604 90.421739 122.795011
v    -9.578591 88.587844 125.466966
v    -17.569204 87.397060 127.500205
v    -29.463723 86.842345 125.030310
v    18.644135 106.045024 106.295731
v    9.438101 102.681763 115.582586
v    2.422459 100.221014 120.251510
v    -1.377496 98.797858 122.795011
v    -11.339480 95.207574 125.466966
v    -18.865648 92.270798 127.500205
v    -29.463723 86.842345 125.030310
v    19.590254 99.829910 109.483989
v    20.352175 99.730195 109.483989
v    20.057571 100.439895 109.483989
v    20.409746 100.170090 126.998000
v    19.647825 100.269805 126.998000
v    19.942429 99.560105 126.998000
v    17.724143 104.343946 119.785274
v    23.798519 105.688766 131.269415
v    24.715252 105.842093 132.966907
v    30.381167 107.129526 139.927711
v    34.420283 107.328667 144.555024
v    39.134109 107.942767 147.485631
v    21.469522 95.321336 119.785274
v    26.710561 98.673663 131.269415
v    27.466381 99.214630 132.966907
v    32.378396 102.318205 139.927711
v    35.371138 105.038061 144.555024
v    39.134109 107.942767 147.485631
mtllib usm_15_2.5D_2018-09-03_2.mtl
usemtl APPID_1535986720_2630218090624 
o vid_3 
f 3 2 1
f 4 5 6
f 1 6 5
f 1 5 3
f 3 5 4
f 4 2 3
f 2 4 6
f 6 1 2
usemtl APPID_1535986944_2630218090240 
o vid_4 
f 7 14 15
f 8 15 16
f 9 16 17
f 10 17 18
f 11 18 19
f 7 15 8
f 8 16 9
f 9 17 10
f 10 18 11
f 11 19 12
f 12 19 20
usemtl APPID_1535986720_2630218090624 
o vid_5 
f 23 22 21
f 24 25 26
f 21 26 25
f 21 25 23
f 23 25 24
f 24 22 23
f 22 24 26
f 26 21 22
usemtl APPID_1535986944_2630218090240 
o vid_6 
f 27 35 36
f 28 36 37
f 29 37 38
f 30 38 39
f 31 39 40
f 32 40 41
f 27 36 28
f 28 37 29
f 29 38 30
f 30 39 31
f 31 40 32
f 32 41 33
f 33 41 42
usemtl APPID_1535986720_2630218090624 
o vid_7 
f 45 44 43
f 46 47 48
f 43 48 47
f 43 47 45
f 45 47 46
f 46 44 45
f 44 46 48
f 48 43 44
usemtl APPID_1535986944_2630218090240 
o vid_8 
f 49 56 57
f 50 57 58
f 51 58 59
f 52 59 60
f 53 60 61
f 49 57 50
f 50 58 51
f 51 59 52
f 52 60 53
f 53 61 54
f 54 61 62
usemtl APPID_1535986720_2630218090624 
o vid_9 
f 65 64 63
f 66 67 68
f 63 68 67
f 63 67 65
f 65 67 66
f 66 64 65
f 64 66 68
f 68 63 64
usemtl APPID_1535986944_2630218090240 
o vid_10 
f 69 76 77
f 70 77 78
f 71 78 79
f 72 79 80
f 73 80 81
f 69 77 70
f 70 78 71
f 71 79 72
f 72 80 73
f 73 81 74
f 74 81 82
usemtl APPID_1535986720_2630218090624 
o vid_11 
f 85 84 83
f 86 87 88
f 83 88 87
f 83 87 85
f 85 87 86
f 86 84 85
f 84 86 88
f 88 83 84
usemtl APPID_1535986944_2630218090240 
o vid_12 
f 89 96 97
f 90 97 98
f 91 98 99
f 92 99 100
f 93 100 101
f 89 97 90
f 90 98 91
f 91 99 92
f 92 100 93
f 93 101 94
f 94 101 102
usemtl APPID_1535986720_2630218090624 
o vid_13 
f 105 104 103
f 106 107 108
f 103 108 107
f 103 107 105
f 105 107 106
f 106 104 105
f 104 106 108
f 108 103 104
usemtl APPID_1535986944_2630218090240 
o vid_14 
f 109 118 119
f 110 119 120
f 111 120 121
f 112 121 122
f 113 122 123
f 114 123 124
f 115 124 125
f 109 119 110
f 110 120 111
f 111 121 112
f 112 122 113
f 113 123 114
f 114 124 115
f 115 125 116
f 116 125 126
usemtl APPID_1535986720_2630218090624 
o vid_15 
f 129 128 127
f 130 131 132
f 127 132 131
f 127 131 129
f 129 131 130
f 130 128 129
f 128 130 132
f 132 127 128
usemtl APPID_1535986944_2630218090240 
o vid_16 
f 133 143 144
f 134 144 145
f 135 145 146
f 136 146 147
f 137 147 148
f 138 148 149
f 139 149 150
f 140 150 151
f 133 144 134
f 134 145 135
f 135 146 136
f 136 147 137
f 137 148 138
f 138 149 139
f 139 150 140
f 140 151 141
f 141 151 152
usemtl APPID_1535986720_2630218090624 
o vid_17 
f 155 154 153
f 156 157 158
f 153 158 157
f 153 157 155
f 155 157 156
f 156 154 155
f 154 156 158
f 158 153 154
usemtl APPID_1535986944_2630218090240 
o vid_18 
f 159 170 171
f 160 171 172
f 161 172 173
f 162 173 174
f 163 174 175
f 164 175 176
f 165 176 177
f 166 177 178
f 167 178 179
f 159 171 160
f 160 172 161
f 161 173 162
f 162 174 163
f 163 175 164
f 164 176 165
f 165 177 166
f 166 178 167
f 167 179 168
f 168 179 180
usemtl APPID_1535986720_2630218090624 
o vid_19 
f 183 182 181
f 184 185 186
f 181 186 185
f 181 185 183
f 183 185 184
f 184 182 183
f 182 184 186
f 186 181 182
usemtl APPID_1535986944_2630218090240 
o vid_20 
f 187 194 195
f 188 195 196
f 189 196 197
f 190 197 198
f 191 198 199
f 187 195 188
f 188 196 189
f 189 197 190
f 190 198 191
f 191 199 192
f 192 199 200
usemtl APPID_1535986720_2630218090624 
o vid_21 
f 203 202 201
f 204 205 206
f 201 206 205
f 201 205 203
f 203 205 204
f 204 202 203
f 202 204 206
f 206 201 202
usemtl APPID_1535986944_2630218090240 
o vid_22 
f 207 214 215
f 208 215 216
f 209 216 217
f 210 217 218
f 211 218 219
f 207 215 208
f 208 216 209
f 209 217 210
f 210 218 211
f 211 219 212
f 212 219 220
usemtl APPID_1535986720_2630218090624 
o vid_23 
f 223 222 221
f 224 225 226
f 221 226 225
f 221 225 223
f 223 225 224
f 224 222 223
f 222 224 226
f 226 221 222
usemtl APPID_1535986944_2630218090240 
o vid_24 
f 227 233 234
f 228 234 235
f 229 235 236
f 230 236 237
f 227 234 228
f 228 235 229
f 229 236 230
f 230 237 231
f 231 237 238
