# File generated by PlantGL - Fri Sep  4 14:42:43 2026
v    18.201987 179.124129 0.000000
v    21.657533 178.880811 0.000000
v    20.140480 181.995060 0.000000
v    21.798013 180.875871 0.331061
v    18.342467 181.119189 0.331061
v    19.859520 178.004940 0.331061
v    21.383011 181.452572 -0.085637
v    22.230290 181.774414 0.773151
v    22.584556 181.899155 1.128134
v    23.805267 182.351593 1.944180
v    24.964051 182.759653 2.328973
v    26.273324 183.055942 2.659937
v    21.996298 180.193600 -0.085637
v    22.772004 180.662368 0.773151
v    23.088606 180.864428 1.128134
v    24.197338 181.546739 1.944180
v    25.232953 182.207642 2.328973
v    26.273324 183.055942 2.659937
v    21.503548 181.204422 0.331061
v    18.205166 180.699900 0.331061
v    20.291286 178.095678 0.331061
v    18.496452 178.795578 0.718770
v    21.794834 179.300100 0.718770
v    19.708714 181.904322 0.718770
v    19.285308 178.076928 0.143568
v    17.811194 177.100353 1.819033
v    17.373791 176.802376 2.151401
v    16.078418 175.959196 3.120245
v    15.264277 175.414720 3.367383
v    13.796524 174.487688 3.804288
v    13.192971 174.200122 3.969121
v    12.115514 173.684107 3.722176
v    17.967303 179.722267 0.143568
v    16.692533 178.496840 1.819033
v    16.306274 178.135018 2.151401
v    15.200694 177.054908 3.120245
v    14.491651 176.379232 3.367383
v    13.266618 175.149200 3.804288
v    12.854254 174.622962 3.969121
v    12.115514 173.684107 3.722176
v    18.272844 179.328938 0.718770
v    21.444735 178.839770 0.718770
v    20.282421 181.831292 0.718770
v    21.727156 180.671062 1.487000
v    18.555265 181.160230 1.487000
v    19.717579 178.168708 1.487000
v    20.989748 181.949782 0.711738
v    23.279998 182.609103 2.969945
v    24.437159 182.958484 3.729033
v    25.965589 183.385147 4.723730
v    27.777673 183.915378 5.200142
v    30.039705 184.513576 5.789008
v    32.530784 184.868659 5.413822
v    22.046515 179.229915 0.711738
v    24.181127 180.289811 2.969945
v    25.270625 180.813338 3.729033
v    26.686179 181.530519 4.723730
v    28.380902 182.362808 5.200142
v    30.453431 183.448743 5.789008
v    32.530784 184.868659 5.413822
v    21.731622 180.409625 1.487000
v    18.779443 181.294816 1.487000
v    19.488935 178.295559 1.487000
v    18.268378 179.590375 2.857087
v    21.220557 178.705184 2.857087
v    20.511065 181.704441 2.857087
v    19.008159 177.745038 1.836837
v    15.903336 177.301155 4.808653
v    13.742868 176.963736 6.181858
v    12.264930 176.764615 7.116646
v    9.130877 176.302601 7.916002
v    6.344666 175.965979 8.622319
v    2.756504 175.920951 7.879028
v    18.102967 181.571582 1.836837
v    15.128337 180.577336 4.808653
v    13.045671 179.911017 6.181858
v    11.635161 179.426859 7.116646
v    8.626274 178.435724 7.916002
v    5.984544 177.488335 8.622319
v    2.756504 175.920951 7.879028
v    18.876148 178.716648 2.857087
v    21.673341 179.668392 2.857087
v    19.450510 181.614960 2.857087
v    21.123852 181.283352 4.462301
v    18.326659 180.331608 4.462301
v    20.549490 178.385040 4.462301
v    18.810681 182.804979 3.151326
v    19.514876 183.476322 4.073222
v    21.728129 185.585304 6.969974
v    25.104587 188.886991 9.935641
v    30.341706 193.947085 11.773572
v    33.286117 196.637835 11.110145
v    36.745985 199.122624 10.229628
v    22.937376 179.191167 3.151326
v    23.509938 179.977783 4.073222
v    25.308467 182.449946 6.969974
v    28.135800 186.232509 9.935641
v    32.460672 192.091473 11.773572
v    34.739413 195.365160 11.110145
v    36.745985 199.122624 10.229628
v    21.375838 180.878433 4.462301
v    18.551335 180.752294 4.462301
v    20.072827 178.369272 4.462301
v    18.624162 179.121567 11.576758
v    21.448665 179.247706 11.576758
v    19.927173 181.630728 11.576758
v    21.052920 176.201634 9.931963
v    16.630647 173.896362 14.658427
v    11.344796 171.072046 18.443805
v    5.808914 168.042939 20.038353
v    2.884864 166.512069 20.871175
v    -1.187875 164.375808 19.898629
v    -5.682184 162.164881 18.842142
v    -10.326925 160.633852 16.572730
v    -10.337195 160.630566 16.566572
v    16.997402 182.553552 9.931963
v    13.045234 179.511982 14.658427
v    8.258812 175.905440 18.443805
v    3.181399 172.158260 20.038353
v    0.562197 170.149923 20.871175
v    -3.089564 167.354311 19.898629
v    -6.986461 164.207693 18.842142
v    -10.329893 160.638500 16.572730
v    -10.337195 160.630566 16.566572
v    18.735263 179.088754 11.576758
v    21.421531 179.360328 11.576758
v    19.843206 181.550918 11.576758
v    21.264737 180.911246 22.058017
v    18.578469 180.639672 22.058017
v    20.156794 178.449082 22.058017
v    18.001170 184.443810 20.043090
v    21.466220 186.727324 23.987808
v    23.214095 187.761585 25.912231
v    26.953153 190.039650 28.661858
v    29.412786 191.537513 30.470366
v    39.403280 197.756586 33.443971
v    48.669229 203.324079 31.157648
v    53.679482 206.095883 28.803746
v    58.634521 207.836263 24.706592
v    23.582567 176.697276 20.043090
v    26.845510 179.261297 23.987808
v    28.379872 180.591896 25.912231
v    31.724385 183.417560 28.661858
v    33.923815 185.276563 30.470366
v    42.985557 192.784670 33.443971
v    51.199871 199.811748 31.157648
v    55.415128 203.686945 28.803746
v    58.634521 207.836263 24.706592
v    21.244614 180.810576 22.058017
v    18.675713 180.672580 22.058017
v    20.079672 178.516844 22.058017
v    18.755386 179.189424 39.687747
v    21.324287 179.327420 39.687747
v    19.920328 181.483156 39.687747
v    22.409818 174.855573 37.277640
v    20.115056 173.507271 39.807160
v    15.927239 171.288450 44.297873
v    13.696472 170.069449 45.894319
v    8.308139 167.126444 49.749978
v    -2.419906 161.129699 52.855554
v    -12.646416 155.648774 51.231344
v    -18.292098 152.807789 49.898220
v    -23.484834 150.969545 46.735099
v    -25.434941 150.409736 44.983862
v    16.269286 184.284171 37.277640
v    14.108239 182.730554 39.807160
v    10.385558 179.797530 44.297873
v    8.368647 178.250161 45.894319
v    3.498197 174.511962 49.749978
v    -6.324322 167.124808 52.855554
v    -15.472274 159.987792 51.231344
v    -20.353474 155.972969 49.898220
v    -24.134415 151.966956 46.735099
v    -25.434941 150.409736 44.983862
v    18.765415 179.315252 39.687747
v    21.210302 179.273192 39.687747
v    20.024283 181.411556 39.687747
v    21.234585 180.684748 66.536732
v    18.789698 180.726808 66.536732
v    19.975717 178.588444 66.536732
v    17.633660 185.498508 63.721961
v    20.229800 186.646544 66.411716
v    25.547934 188.996739 71.920912
v    34.768453 193.214740 78.288441
v    37.655387 194.569772 79.094284
v    49.768671 199.986132 82.442448
v    57.843927 203.361169 80.596235
v    66.639523 205.868077 78.705692
v    23.411510 175.081184 63.721961
v    25.760041 176.675652 66.411716
v    30.569655 179.942697 71.920912
v    39.030038 185.531205 78.288441
v    41.708140 187.262756 79.094284
v    52.716803 194.670720 82.442448
v    59.855680 199.734027 80.596235
v    66.639523 205.868077 78.705692
v    21.293262 180.344016 66.536732
v    19.055443 180.947990 66.536732
v    19.651295 178.707994 66.536732
v    18.706738 179.655984 106.673854
v    20.944557 179.052010 106.673854
v    20.348705 181.292006 106.673854
v    21.309264 173.483979 103.464042
v    11.583691 171.817128 112.813680
v    0.213439 169.717217 120.074863
v    -16.149285 166.816040 124.268543
v    -25.796662 165.370668 123.209591
v    -36.221035 165.044858 121.053720
v    17.898705 186.305336 103.464042
v    8.630343 182.919683 112.813680
v    -2.280494 179.092687 120.074863
v    -17.922078 173.480521 124.268543
v    -27.012536 169.941514 123.209591
v    -36.221035 165.044858 121.053720
v    18.915585 179.549848 106.673854
v    20.932050 179.285945 106.673854
v    20.152364 181.164207 106.673854
v    21.084415 180.450152 148.554672
v    19.067950 180.714055 148.554672
v    19.847636 178.835793 148.554672
v    17.388222 186.657882 144.980745
v    27.873886 189.938071 155.390991
v    38.392572 193.378448 162.340994
v    54.424292 198.446794 167.261661
v    60.106308 200.089377 168.750233
v    64.827020 201.459188 167.713416
v    76.282395 203.363406 165.312986
v    22.871056 173.449747 144.980745
v    32.597175 178.559678 155.390991
v    42.460051 183.579900 162.340994
v    57.368168 191.355001 167.261661
v    62.543065 194.219235 168.750233
v    66.846083 196.595269 167.713416
v    76.282395 203.363406 165.312986
v    20.710229 180.584393 148.554672
v    19.138787 180.322880 148.554672
v    20.150985 179.092728 148.554672
v    19.289771 179.415607 183.833557
v    20.861213 179.677120 183.833557
v    19.849015 180.907272 183.833557
v    24.745254 174.554232 179.948104
v    14.875110 167.827447 191.265771
v    10.886728 165.033091 194.324010
v    3.289819 159.944995 200.055380
v    -3.383911 155.353922 202.099341
v    -13.215478 148.962330 205.050614
v    -15.903795 147.637917 205.789487
v    -24.508792 143.377130 203.804640
v    15.570003 185.705169 179.948104
v    7.068354 177.315215 191.265771
v    3.558226 173.939623 194.324010
v    -2.897631 167.464775 200.055380
v    -8.687984 161.800110 202.099341
v    -16.853286 153.383460 205.050614
v    -18.670621 151.000517 205.789487
v    -24.508792 143.377130 203.804640
v    19.524398 179.502388 183.833557
v    20.668746 179.836922 183.833557
v    19.806856 180.660690 183.833557
v    20.475602 180.497612 211.970959
v    19.331254 180.163078 211.970959
v    20.193144 179.339310 211.970959
v    14.246046 184.801343 207.846496
v    23.797297 193.140116 219.860357
v    25.841629 194.972023 221.584213
v    35.046948 202.878604 229.190650
v    39.413828 206.724809 230.658994
v    48.966841 214.705426 233.791811
v    54.016268 217.993919 235.277484
v    60.145103 222.002936 233.763628
v    25.056560 174.468989 207.846496
v    32.955012 184.387456 219.860357
v    34.692626 186.512514 221.584213
v    42.174967 196.065865 229.190650
v    45.819821 200.602159 230.658994
v    53.360403 210.506195 233.791811
v    56.417259 215.699126 235.277484
v    60.145103 222.002936 233.763628
v    20.336112 180.342557 211.970959
v    19.535281 180.119803 211.970959
v    20.128607 179.537640 211.970959
v    19.663888 179.657443 227.624573
v    20.464719 179.880197 227.624573
v    19.871393 180.462360 227.624573
v    25.738431 175.429515 223.349705
v    17.693685 168.589850 233.354931
v    15.680990 166.961764 235.801673
v    4.305522 157.447606 245.097404
v    -5.642788 149.368406 248.546615
v    -16.728638 142.353956 251.781013
v    -17.284268 142.000823 251.644925
v    15.321362 185.650600 223.349705
v    8.635706 177.477414 233.354931
v    7.046136 175.434163 235.801673
v    -2.250277 163.880065 245.097404
v    -10.139094 153.780120 248.546615
v    -16.941750 142.563059 251.781013
v    -17.284268 142.000823 251.644925
v    19.802710 179.781403 227.624573
v    20.287956 179.938440 227.624573
v    19.909334 180.280157 227.624573
v    20.197290 180.218597 231.088000
v    19.712044 180.061560 231.088000
v    20.090666 179.719843 231.088000
v    16.430381 183.546022 222.420405
v    17.490475 184.155866 226.800146
v    20.875803 185.727740 239.736412
v    27.342279 188.135228 252.315490
v    23.892258 176.811462 222.420405
v    24.390571 177.928329 226.800146
v    25.608247 181.456573 239.736412
v    27.342279 188.135228 252.315490
mtllib usm_13_Beer_2018-09-20_4.mtl
usemtl APPID_96500288_1597823827296 
o vid_3 
f 3 2 1
f 4 5 6
f 1 6 5
f 1 5 3
f 3 5 4
f 4 2 3
f 2 4 6
f 6 1 2
usemtl APPID_96502416_1597823827168 
o vid_4 
f 7 13 14
f 8 14 15
f 9 15 16
f 10 16 17
f 7 14 8
f 8 15 9
f 9 16 10
f 10 17 11
f 11 17 18
usemtl APPID_96500288_1597823827296 
o vid_5 
f 21 20 19
f 22 23 24
f 19 24 23
f 19 23 21
f 21 23 22
f 22 20 21
f 20 22 24
f 24 19 20
usemtl APPID_96502416_1597823827168 
o vid_6 
f 25 33 34
f 26 34 35
f 27 35 36
f 28 36 37
f 29 37 38
f 30 38 39
f 25 34 26
f 26 35 27
f 27 36 28
f 28 37 29
f 29 38 30
f 30 39 31
f 31 39 40
usemtl APPID_96500288_1597823827296 
o vid_7 
f 43 42 41
f 44 45 46
f 41 46 45
f 41 45 43
f 43 45 44
f 44 42 43
f 42 44 46
f 46 41 42
usemtl APPID_96502416_1597823827168 
o vid_8 
f 47 54 55
f 48 55 56
f 49 56 57
f 50 57 58
f 51 58 59
f 47 55 48
f 48 56 49
f 49 57 50
f 50 58 51
f 51 59 52
f 52 59 60
usemtl APPID_96500288_1597823827296 
o vid_9 
f 63 62 61
f 64 65 66
f 61 66 65
f 61 65 63
f 63 65 64
f 64 62 63
f 62 64 66
f 66 61 62
usemtl APPID_96502416_1597823827168 
o vid_10 
f 67 74 75
f 68 75 76
f 69 76 77
f 70 77 78
f 71 78 79
f 67 75 68
f 68 76 69
f 69 77 70
f 70 78 71
f 71 79 72
f 72 79 80
usemtl APPID_96500288_1597823827296 
o vid_11 
f 83 82 81
f 84 85 86
f 81 86 85
f 81 85 83
f 83 85 84
f 84 82 83
f 82 84 86
f 86 81 82
usemtl APPID_96502416_1597823827168 
o vid_12 
f 87 94 95
f 88 95 96
f 89 96 97
f 90 97 98
f 91 98 99
f 87 95 88
f 88 96 89
f 89 97 90
f 90 98 91
f 91 99 92
f 92 99 100
usemtl APPID_96500288_1597823827296 
o vid_13 
f 103 102 101
f 104 105 106
f 101 106 105
f 101 105 103
f 103 105 104
f 104 102 103
f 102 104 106
f 106 101 102
usemtl APPID_96502416_1597823827168 
o vid_14 
f 107 116 117
f 108 117 118
f 109 118 119
f 110 119 120
f 111 120 121
f 112 121 122
f 113 122 123
f 107 117 108
f 108 118 109
f 109 119 110
f 110 120 111
f 111 121 112
f 112 122 113
f 113 123 114
f 114 123 124
usemtl APPID_96500288_1597823827296 
o vid_15 
f 127 126 125
f 128 129 130
f 125 130 129
f 125 129 127
f 127 129 128
f 128 126 127
f 126 128 130
f 130 125 126
usemtl APPID_96502416_1597823827168 
o vid_16 
f 131 140 141
f 132 141 142
f 133 142 143
f 134 143 144
f 135 144 145
f 136 145 146
f 137 146 147
f 131 141 132
f 132 142 133
f 133 143 134
f 134 144 135
f 135 145 136
f 136 146 137
f 137 147 138
f 138 147 148
usemtl APPID_96500288_1597823827296 
o vid_17 
f 151 150 149
f 152 153 154
f 149 154 153
f 149 153 151
f 151 153 152
f 152 150 151
f 150 152 154
f 154 149 150
usemtl APPID_96502416_1597823827168 
o vid_18 
f 155 165 166
f 156 166 167
f 157 167 168
f 158 168 169
f 159 169 170
f 160 170 171
f 161 171 172
f 162 172 173
f 155 166 156
f 156 167 157
f 157 168 158
f 158 169 159
f 159 170 160
f 160 171 161
f 161 172 162
f 162 173 163
f 163 173 174
usemtl APPID_96500288_1597823827296 
o vid_19 
f 177 176 175
f 178 179 180
f 175 180 179
f 175 179 177
f 177 179 178
f 178 176 177
f 176 178 180
f 180 175 176
usemtl APPID_96502416_1597823827168 
o vid_20 
f 181 189 190
f 182 190 191
f 183 191 192
f 184 192 193
f 185 193 194
f 186 194 195
f 181 190 182
f 182 191 183
f 183 192 184
f 184 193 185
f 185 194 186
f 186 195 187
f 187 195 196
usemtl APPID_96500288_1597823827296 
o vid_21 
f 199 198 197
f 200 201 202
f 197 202 201
f 197 201 199
f 199 201 200
f 200 198 199
f 198 200 202
f 202 197 198
usemtl APPID_96502416_1597823827168 
o vid_22 
f 203 209 210
f 204 210 211
f 205 211 212
f 206 212 213
f 203 210 204
f 204 211 205
f 205 212 206
f 206 213 207
f 207 213 214
usemtl APPID_96500288_1597823827296 
o vid_23 
f 217 216 215
f 218 219 220
f 215 220 219
f 215 219 217
f 217 219 218
f 218 216 217
f 216 218 220
f 220 215 216
usemtl APPID_96502416_1597823827168 
o vid_24 
f 221 228 229
f 222 229 230
f 223 230 231
f 224 231 232
f 225 232 233
f 221 229 222
f 222 230 223
f 223 231 224
f 224 232 225
f 225 233 226
f 226 233 234
usemtl APPID_96500288_1597823827296 
o vid_25 
f 237 236 235
f 238 239 240
f 235 240 239
f 235 239 237
f 237 239 238
f 238 236 237
f 236 238 240
f 240 235 236
usemtl APPID_96502416_1597823827168 
o vid_26 
f 241 249 250
f 242 250 251
f 243 251 252
f 244 252 253
f 245 253 254
f 246 254 255
f 241 250 242
f 242 251 243
f 243 252 244
f 244 253 245
f 245 254 246
f 246 255 247
f 247 255 256
usemtl APPID_96500288_1597823827296 
o vid_27 
f 259 258 257
f 260 261 262
f 257 262 261
f 257 261 259
f 259 261 260
f 260 258 259
f 258 260 262
f 262 257 258
usemtl APPID_96502416_1597823827168 
o vid_28 
f 263 271 272
f 264 272 273
f 265 273 274
f 266 274 275
f 267 275 276
f 268 276 277
f 263 272 264
f 264 273 265
f 265 274 266
f 266 275 267
f 267 276 268
f 268 277 269
f 269 277 278
usemtl APPID_96500288_1597823827296 
o vid_29 
f 281 280 279
f 282 283 284
f 279 284 283
f 279 283 281
f 281 283 282
f 282 280 281
f 280 282 284
f 284 279 280
usemtl APPID_96502416_1597823827168 
o vid_30 
f 285 292 293
f 286 293 294
f 287 294 295
f 288 295 296
f 289 296 297
f 285 293 286
f 286 294 287
f 287 295 288
f 288 296 289
f 289 297 290
f 290 297 298
usemtl APPID_96500288_1597823827296 
o vid_31 
f 301 300 299
f 302 303 304
f 299 304 303
f 299 303 301
f 301 303 302
f 302 300 301
f 300 302 304
f 304 299 300
usemtl APPID_96502416_1597823827168 
o vid_32 
f 305 309 310
f 306 310 311
f 305 310 306
f 306 311 307
f 307 311 312
