# File generated by PlantGL - Fri Sep  4 14:42:58 2026
v    138.201987 19.124129 0.000000
v    141.657533 18.880811 0.000000
v    140.140480 21.995060 0.000000
v    141.798013 20.875871 0.331061
v    138.342467 21.119189 0.331061
v    139.859520 18.004940 0.331061
v    141.383011 21.452572 -0.085637
v    142.230290 21.774414 0.773151
v    142.426186 21.843391 0.969444
v    141.996298 20.193600 -0.085637
v    142.772004 20.662368 0.773151
v    142.947074 20.774100 0.969444
v    141.503548 21.204422 0.331061
v    138.205166 20.699900 0.331061
v    140.291286 18.095678 0.331061
v    138.496452 18.795578 0.718770
v    141.794834 19.300100 0.718770
v    139.708714 21.904322 0.718770
v    139.285308 18.076928 0.143568
v    137.811194 17.100353 1.819033
v    137.373791 16.802376 2.151401
v    136.078418 15.959196 3.120245
v    135.583733 15.628364 3.270410
v    137.967303 19.722267 0.143568
v    136.692533 18.496840 1.819033
v    136.306274 18.135018 2.151401
v    135.200694 17.054908 3.120245
v    134.769868 16.644357 3.270410
v    138.272844 19.328938 0.718770
v    141.444735 18.839770 0.718770
v    140.282421 21.831292 0.718770
v    141.727156 20.671062 1.487000
v    138.555265 21.160230 1.487000
v    139.717579 18.168708 1.487000
v    140.989748 21.949782 0.711738
v    143.279998 22.609103 2.969945
v    144.437159 22.958484 3.729033
v    145.965589 23.385147 4.723730
v    147.777673 23.915378 5.200142
v    149.028566 24.246178 5.525782
v    142.046515 19.229915 0.711738
v    144.181127 20.289811 2.969945
v    145.270625 20.813338 3.729033
v    146.686179 21.530519 4.723730
v    148.380902 22.362808 5.200142
v    149.527001 22.963325 5.525782
v    141.731622 20.409625 1.487000
v    138.779443 21.294816 1.487000
v    139.488935 18.295559 1.487000
v    138.268378 19.590375 2.857087
v    141.220557 18.705184 2.857087
v    140.511065 21.704441 2.857087
v    139.008159 17.745038 1.836837
v    135.903336 17.301155 4.808653
v    133.742868 16.963736 6.181858
v    132.264930 16.764615 7.116646
v    129.130877 16.302601 7.916002
v    126.344666 15.965979 8.622319
v    126.028423 15.932549 8.555370
v    138.102967 21.571582 1.836837
v    135.128337 20.577336 4.808653
v    133.045671 19.911017 6.181858
v    131.635161 19.426859 7.116646
v    128.626274 18.435724 7.916002
v    125.984544 17.488335 8.622319
v    125.686840 17.376533 8.555370
v    138.876148 18.716648 2.857087
v    141.673341 19.668392 2.857087
v    139.450510 21.614960 2.857087
v    141.123852 21.283352 4.462301
v    138.326659 20.331608 4.462301
v    140.549490 18.385040 4.462301
v    138.810681 22.804979 3.151326
v    139.514876 23.476322 4.073222
v    141.728129 25.585304 6.969974
v    145.104587 28.886991 9.935641
v    150.341706 33.947085 11.773572
v    153.286117 36.637835 11.110145
v    154.167724 37.270983 10.885781
v    142.937376 19.191167 3.151326
v    143.509938 19.977783 4.073222
v    145.308467 22.449946 6.969974
v    148.135800 26.232509 9.935641
v    152.460672 32.091473 11.773572
v    154.739413 35.365160 11.110145
v    155.250707 36.322598 10.885781
v    141.375838 20.878433 4.462301
v    138.551335 20.752294 4.462301
v    140.072827 18.369272 4.462301
v    138.624162 19.121567 11.576758
v    141.448665 19.247706 11.576758
v    139.927173 21.630728 11.576758
v    141.052920 16.201634 9.931963
v    136.630647 13.896362 14.658427
v    131.344796 11.072046 18.443805
v    125.808914 8.042939 20.038353
v    122.884864 6.512069 20.871175
v    118.812125 4.375808 19.898629
v    114.317816 2.164881 18.842142
v    111.841323 1.327534 17.872845
v    136.997402 22.553552 9.931963
v    133.045234 19.511982 14.658427
v    128.258812 15.905440 18.443805
v    123.181399 12.158260 20.038353
v    120.562197 10.149923 20.871175
v    116.910436 7.354311 19.898629
v    113.013539 4.207693 18.842142
v    111.211804 2.313512 17.872845
v    138.735263 19.088754 11.576758
v    141.421531 19.360328 11.576758
v    139.843206 21.550918 11.576758
v    141.264737 20.911246 22.058017
v    138.578469 20.639672 22.058017
v    140.156794 18.449082 22.058017
v    138.001170 24.443810 20.043090
v    141.466220 26.727324 23.987808
v    143.214095 27.761585 25.912231
v    146.953153 30.039650 28.661858
v    149.412786 31.537513 30.470366
v    159.403280 37.756586 33.443971
v    168.669229 43.324079 31.157648
v    173.679482 46.095883 28.803746
v    177.197724 47.349517 26.016010
v    143.582567 16.697276 20.043090
v    146.845510 19.261297 23.987808
v    148.379872 20.591896 25.912231
v    151.724385 23.417560 28.661858
v    153.923815 25.276563 30.470366
v    162.985557 32.784670 33.443971
v    171.199871 39.811748 31.157648
v    175.415128 43.686945 28.803746
v    177.717989 46.627431 26.016010
v    141.244614 20.810576 22.058017
v    138.675713 20.672580 22.058017
v    140.079672 18.516844 22.058017
v    138.755386 19.189424 39.687747
v    141.324287 19.327420 39.687747
v    139.920328 21.483156 39.687747
v    142.409818 14.855573 37.277640
v    140.115056 13.507271 39.807160
v    135.927239 11.288450 44.297873
v    133.696472 10.069449 45.894319
v    128.308139 7.126444 49.749978
v    117.580094 1.129699 52.855554
v    107.353584 -4.351226 51.231344
v    101.707902 -7.192211 49.898220
v    96.515166 -9.030455 46.735099
v    95.762629 -9.246483 46.059305
v    136.269286 24.284171 37.277640
v    134.108239 22.730554 39.807160
v    130.385558 19.797530 44.297873
v    128.368647 18.250161 45.894319
v    123.498197 14.511962 49.749978
v    113.675678 7.124808 52.855554
v    104.527726 -0.012208 51.231344
v    99.646526 -4.027031 49.898220
v    95.865585 -8.033044 46.735099
v    95.363719 -8.633967 46.059305
v    138.765415 19.315252 39.687747
v    141.210302 19.273192 39.687747
v    140.024283 21.411556 39.687747
v    141.234585 20.684748 66.536732
v    138.789698 20.726808 66.536732
v    139.975717 18.588444 66.536732
v    137.633660 25.498508 63.721961
v    140.229800 26.646544 66.411716
v    145.547934 28.996739 71.920912
v    154.768453 33.214740 78.288441
v    157.655387 34.569772 79.094284
v    169.768671 39.986132 82.442448
v    177.843927 43.361169 80.596235
v    185.243175 45.470092 79.005826
v    143.411510 15.081184 63.721961
v    145.760041 16.675652 66.411716
v    150.569655 19.942697 71.920912
v    159.030038 25.531205 78.288441
v    161.708140 27.262756 79.094284
v    172.716803 34.670720 82.442448
v    179.855680 39.734027 80.596235
v    185.562551 44.894263 79.005826
v    141.293262 20.344016 66.536732
v    139.055443 20.947990 66.536732
v    139.651295 18.707994 66.536732
v    138.706738 19.655984 106.673854
v    140.944557 19.052010 106.673854
v    140.348705 21.292006 106.673854
v    141.309264 13.483979 103.464042
v    131.583691 11.817128 112.813680
v    120.213439 9.717217 120.074863
v    103.850715 6.816040 124.268543
v    94.203338 5.370668 123.209591
v    84.984982 5.082552 121.303137
v    137.898705 26.305336 103.464042
v    128.630343 22.919683 112.813680
v    117.719506 19.092687 120.074863
v    102.077922 13.480521 124.268543
v    92.987464 9.941514 123.209591
v    84.844316 5.611363 121.303137
v    138.831935 19.515124 106.673854
v    141.003948 19.230864 106.673854
v    140.164118 21.254012 106.673854
v    141.168065 20.484876 148.554672
v    138.996052 20.769136 148.554672
v    139.835882 18.745988 148.554672
v    137.471872 26.692606 144.980745
v    147.957536 29.972796 155.390991
v    158.476222 33.413172 162.340994
v    174.507942 38.481518 167.261661
v    180.189959 40.124101 168.750233
v    184.910671 41.493912 167.713416
v    195.358483 43.230644 165.524117
v    142.954706 13.484471 144.980745
v    152.680825 18.594403 155.390991
v    162.543701 23.614624 162.340994
v    177.451819 31.389725 167.261661
v    182.626716 34.253959 168.750233
v    186.929734 36.629993 167.713416
v    195.536071 42.802836 165.524117
v    140.919824 20.756852 148.554672
v    138.884635 20.418165 148.554672
v    140.195542 18.824983 148.554672
v    139.080176 19.243148 183.833557
v    141.115365 19.581835 183.833557
v    139.804458 21.175017 183.833557
v    144.535659 14.381772 179.948104
v    134.665515 7.654987 191.265771
v    130.677133 4.860631 194.324010
v    123.080223 -0.227464 200.055380
v    116.406494 -4.818538 202.099341
v    106.574927 -11.210130 205.050614
v    103.886610 -12.534543 205.789487
v    96.095198 -16.392481 203.992303
v    135.360408 25.532710 179.948104
v    126.858759 17.142755 191.265771
v    123.348631 13.767163 194.324010
v    116.892774 7.292315 200.055380
v    111.102420 1.627650 202.099341
v    102.937119 -6.789000 205.050614
v    101.119784 -9.171943 205.789487
v    95.833600 -16.074554 203.992303
v    139.227775 19.192038 183.833557
v    141.085829 19.735214 183.833557
v    139.686397 21.072748 183.833557
v    140.772225 20.807962 211.970959
v    138.914171 20.264786 211.970959
v    140.313603 18.927252 211.970959
v    134.542669 25.111694 207.846496
v    144.093920 33.450466 219.860357
v    146.138252 35.282373 221.584213
v    155.343571 43.188954 229.190650
v    159.710451 47.035160 230.658994
v    169.263464 55.015776 233.791811
v    174.312891 58.304269 235.277484
v    179.798422 61.892485 233.922528
v    145.353183 14.779339 207.846496
v    153.251635 24.697806 219.860357
v    154.989249 26.822865 221.584213
v    162.471590 36.376215 229.190650
v    166.116444 40.912509 230.658994
v    173.657026 50.816545 233.791811
v    176.713882 56.009476 235.277484
v    180.050439 61.651616 233.922528
v    140.731259 20.745280 211.970959
v    138.988939 20.260648 211.970959
v    140.279802 18.994071 211.970959
v    139.268741 19.254720 228.979083
v    141.011061 19.739352 228.979083
v    139.720198 21.005929 228.979083
v    145.616834 14.758390 224.704214
v    135.604775 6.246109 237.156182
v    123.799966 -3.680433 246.826721
v    120.004030 -6.936365 248.088620
v    109.995013 -15.077436 251.335680
v    103.826080 -18.980761 253.135522
v    98.847562 -22.144879 251.916158
v    134.652667 25.516279 224.704214
v    126.332058 15.344371 237.156182
v    116.631489 3.353178 246.826721
v    113.448231 -0.503906 248.088620
v    105.498707 -10.665723 251.335680
v    101.713239 -16.907670 253.135522
v    98.644237 -21.945379 251.916158
v    139.349705 19.279474 228.979083
v    140.949141 19.797091 228.979083
v    139.701154 20.923435 228.979083
v    140.650295 20.720526 239.507840
v    139.050859 20.202909 239.507840
v    140.298846 19.076565 239.507840
v    133.845352 25.176518 235.181627
v    143.609809 34.205862 247.783153
v    147.523472 37.919855 251.171431
v    155.073646 44.789269 257.569842
v    161.646357 50.920529 259.837890
v    171.423395 59.574403 263.123950
v    174.192269 61.492513 263.954417
v    182.587243 67.333025 261.840440
v    145.778399 14.406598 235.181627
v    153.762574 25.042699 247.783153
v    157.057158 29.315428 251.171431
v    163.119004 37.528102 257.569842
v    168.546453 44.692992 259.837890
v    176.155839 55.303236 263.123950
v    177.780936 58.253637 263.954417
v    182.732932 67.201537 261.840440
v    140.880529 20.171415 239.507840
v    139.411286 20.676853 239.507840
v    139.708185 19.151732 239.507840
v    139.119471 19.828585 244.936900
v    140.588714 19.323147 244.936900
v    140.291815 20.848268 244.936900
v    141.827147 12.390758 240.662032
v    128.753885 11.052828 253.114000
v    125.047482 10.625043 255.457044
v    113.409248 9.528933 262.784538
v    106.402032 8.780926 264.562702
v    93.541680 7.747092 267.809762
v    88.339375 7.947380 269.093340
v    79.936342 8.254000 267.355195
v    138.839264 27.738974 240.662032
v    126.218813 24.075032 253.114000
v    122.622606 23.081197 255.457044
v    111.423100 19.731416 262.784538
v    104.647004 17.796186 264.562702
v    92.337992 13.930224 267.809762
v    87.590732 11.793025 269.093340
v    79.916374 8.356572 267.355195
v    139.432772 19.532055 244.936900
v    140.688866 19.742739 244.936900
v    139.878362 20.725206 244.936900
v    140.567228 20.467945 247.375863
v    139.311134 20.257261 247.375863
v    140.121638 19.274794 247.375863
v    135.608045 24.604585 243.251400
v    137.668965 26.013021 245.616630
v    146.235762 31.565135 255.265261
v    150.650539 34.530147 258.598776
v    158.775601 39.641989 264.595553
v    171.866615 46.306538 268.227166
v    143.685863 14.812911 243.251400
v    145.460344 16.568560 245.616630
v    152.539543 23.923893 255.265261
v    156.289624 27.694628 258.598776
v    162.852616 34.699962 264.595553
v    171.883891 46.285596 268.227166
v    140.441798 20.331759 247.375863
v    139.491789 20.216728 247.375863
v    140.066413 19.451512 247.375863
v    139.558202 19.668241 248.981000
v    140.508211 19.783272 248.981000
v    139.933587 20.548488 248.981000
v    142.996807 16.960764 245.095547
v    134.823952 12.533183 253.842753
v    132.153525 11.589972 256.413214
v    124.962869 8.708160 261.124949
v    137.917003 23.725443 245.095547
v    131.385995 17.111445 253.842753
v    129.735532 14.809968 256.413214
v    124.962869 8.708160 261.124949
v    142.426186 21.843391 0.969444
v    142.584556 21.899155 1.128134
v    143.805267 22.351593 1.944180
v    143.997311 22.416321 2.070782
v    144.964051 22.759653 2.328973
v    146.273324 23.055942 2.659937
v    142.947074 20.774100 0.969444
v    143.088606 20.864428 1.128134
v    144.197338 21.546739 1.944180
v    144.366687 21.658056 2.070782
v    145.232953 22.207642 2.328973
v    146.273324 23.055942 2.659937
v    135.583733 15.628364 3.270410
v    135.264277 15.414720 3.367383
v    133.796524 14.487688 3.804288
v    133.192971 14.200122 3.969121
v    132.115514 13.684107 3.722176
v    134.769868 16.644357 3.270410
v    134.491651 16.379232 3.367383
v    133.266618 15.149200 3.804288
v    132.854254 14.622962 3.969121
v    132.115514 13.684107 3.722176
v    149.028566 24.246178 5.525782
v    150.039705 24.513576 5.789008
v    150.356377 24.558148 5.867853
v    152.530784 24.868659 5.413822
v    149.527001 22.963325 5.525782
v    150.453431 23.448743 5.789008
v    150.717127 23.629663 5.867853
v    152.530784 24.868659 5.413822
v    126.028423 15.932549 8.555370
v    122.756504 15.920951 7.879028
v    125.686840 17.376533 8.555370
v    122.756504 15.920951 7.879028
v    154.167724 37.270983 10.885781
v    156.745985 39.122624 10.229628
v    155.250707 36.322598 10.885781
v    156.745985 39.122624 10.229628
v    111.841323 1.327534 17.872845
v    109.673075 0.633852 16.572730
v    109.662805 0.630566 16.566572
v    111.211804 2.313512 17.872845
v    109.670107 0.638500 16.572730
v    109.662805 0.630566 16.566572
v    177.197724 47.349517 26.016010
v    178.634521 47.836263 24.706592
v    177.717989 46.627431 26.016010
v    178.634521 47.836263 24.706592
v    95.762629 -9.246483 46.059305
v    94.565059 -9.590264 44.983862
v    95.363719 -8.633967 46.059305
v    94.565059 -9.590264 44.983862
v    185.243175 45.470092 79.005826
v    186.639523 45.868077 78.705692
v    185.562551 44.894263 79.005826
v    186.639523 45.868077 78.705692
v    84.984982 5.082552 121.303137
v    83.778965 5.044858 121.053720
v    84.844316 5.611363 121.303137
v    83.778965 5.044858 121.053720
v    195.358483 43.230644 165.524117
v    196.366045 43.398130 165.312986
v    195.536071 42.802836 165.524117
v    196.366045 43.398130 165.312986
v    96.095198 -16.392481 203.992303
v    95.281613 -16.795330 203.804640
v    95.833600 -16.074554 203.992303
v    95.281613 -16.795330 203.804640
v    179.798422 61.892485 233.922528
v    180.441726 62.313286 233.763628
v    180.050439 61.651616 233.922528
v    180.441726 62.313286 233.763628
v    98.847562 -22.144879 251.916158
v    98.317451 -22.481794 251.786320
v    98.644237 -21.945379 251.916158
v    98.317451 -22.481794 251.786320
v    182.587243 67.333025 261.840440
v    182.942473 67.580164 261.750988
v    182.732932 67.201537 261.840440
v    182.942473 67.580164 261.750988
v    79.936342 8.254000 267.355195
v    79.706073 8.262402 267.307564
v    79.916374 8.356572 267.355195
v    79.706073 8.262402 267.307564
v    171.866615 46.306538 268.227166
v    171.919823 46.332835 268.241800
v    171.883891 46.285596 268.227166
v    171.919823 46.332835 268.241800
mtllib usm_33_Beer_2018-10-14_3.mtl
usemtl APPID_4047054192_2409227633248 
o vid_3 
f 3 2 1
f 4 5 6
f 1 6 5
f 1 5 3
f 3 5 4
f 4 2 3
f 2 4 6
f 6 1 2
usemtl APPID_4047058112_2409227637984 
o vid_4 
f 7 10 11
f 7 11 8
f 8 11 12
f 8 12 9
usemtl APPID_4047054192_2409227633248 
o vid_5 
f 15 14 13
f 16 17 18
f 13 18 17
f 13 17 15
f 15 17 16
f 16 14 15
f 14 16 18
f 18 13 14
usemtl APPID_4047058112_2409227637984 
o vid_6 
f 19 24 25
f 20 25 26
f 21 26 27
f 19 25 20
f 20 26 21
f 21 27 22
f 22 27 28
f 22 28 23
usemtl APPID_4047054192_2409227633248 
o vid_7 
f 31 30 29
f 32 33 34
f 29 34 33
f 29 33 31
f 31 33 32
f 32 30 31
f 30 32 34
f 34 29 30
usemtl APPID_4047058112_2409227637984 
o vid_8 
f 35 41 42
f 36 42 43
f 37 43 44
f 38 44 45
f 35 42 36
f 36 43 37
f 37 44 38
f 38 45 39
f 39 45 46
f 39 46 40
usemtl APPID_4047054192_2409227633248 
o vid_9 
f 49 48 47
f 50 51 52
f 47 52 51
f 47 51 49
f 49 51 50
f 50 48 49
f 48 50 52
f 52 47 48
usemtl APPID_4047058112_2409227637984 
o vid_10 
f 53 60 61
f 54 61 62
f 55 62 63
f 56 63 64
f 57 64 65
f 53 61 54
f 54 62 55
f 55 63 56
f 56 64 57
f 57 65 58
f 58 65 66
f 58 66 59
usemtl APPID_4047054192_2409227633248 
o vid_11 
f 69 68 67
f 70 71 72
f 67 72 71
f 67 71 69
f 69 71 70
f 70 68 69
f 68 70 72
f 72 67 68
usemtl APPID_4047058112_2409227637984 
o vid_12 
f 73 80 81
f 74 81 82
f 75 82 83
f 76 83 84
f 77 84 85
f 73 81 74
f 74 82 75
f 75 83 76
f 76 84 77
f 77 85 78
f 78 85 86
f 78 86 79
usemtl APPID_4047054192_2409227633248 
o vid_13 
f 89 88 87
f 90 91 92
f 87 92 91
f 87 91 89
f 89 91 90
f 90 88 89
f 88 90 92
f 92 87 88
usemtl APPID_4047058112_2409227637984 
o vid_14 
f 93 101 102
f 94 102 103
f 95 103 104
f 96 104 105
f 97 105 106
f 98 106 107
f 93 102 94
f 94 103 95
f 95 104 96
f 96 105 97
f 97 106 98
f 98 107 99
f 99 107 108
f 99 108 100
usemtl APPID_4047054192_2409227633248 
o vid_15 
f 111 110 109
f 112 113 114
f 109 114 113
f 109 113 111
f 111 113 112
f 112 110 111
f 110 112 114
f 114 109 110
usemtl APPID_4047058112_2409227637984 
o vid_16 
f 115 124 125
f 116 125 126
f 117 126 127
f 118 127 128
f 119 128 129
f 120 129 130
f 121 130 131
f 115 125 116
f 116 126 117
f 117 127 118
f 118 128 119
f 119 129 120
f 120 130 121
f 121 131 122
f 122 131 132
f 122 132 123
usemtl APPID_4047054192_2409227633248 
o vid_17 
f 135 134 133
f 136 137 138
f 133 138 137
f 133 137 135
f 135 137 136
f 136 134 135
f 134 136 138
f 138 133 134
usemtl APPID_4047058112_2409227637984 
o vid_18 
f 139 149 150
f 140 150 151
f 141 151 152
f 142 152 153
f 143 153 154
f 144 154 155
f 145 155 156
f 146 156 157
f 139 150 140
f 140 151 141
f 141 152 142
f 142 153 143
f 143 154 144
f 144 155 145
f 145 156 146
f 146 157 147
f 147 157 158
f 147 158 148
usemtl APPID_4047054192_2409227633248 
o vid_19 
f 161 160 159
f 162 163 164
f 159 164 163
f 159 163 161
f 161 163 162
f 162 160 161
f 160 162 164
f 164 159 160
usemtl APPID_4047058112_2409227637984 
o vid_20 
f 165 173 174
f 166 174 175
f 167 175 176
f 168 176 177
f 169 177 178
f 170 178 179
f 165 174 166
f 166 175 167
f 167 176 168
f 168 177 169
f 169 178 170
f 170 179 171
f 171 179 180
f 171 180 172
usemtl APPID_4047054192_2409227633248 
o vid_21 
f 183 182 181
f 184 185 186
f 181 186 185
f 181 185 183
f 183 185 184
f 184 182 183
f 182 184 186
f 186 181 182
usemtl APPID_4047058112_2409227637984 
o vid_22 
f 187 193 194
f 188 194 195
f 189 195 196
f 190 196 197
f 187 194 188
f 188 195 189
f 189 196 190
f 190 197 191
f 191 197 198
f 191 198 192
usemtl APPID_4047054192_2409227633248 
o vid_23 
f 201 200 199
f 202 203 204
f 199 204 203
f 199 203 201
f 201 203 202
f 202 200 201
f 200 202 204
f 204 199 200
usemtl APPID_4047058112_2409227637984 
o vid_24 
f 205 212 213
f 206 213 214
f 207 214 215
f 208 215 216
f 209 216 217
f 205 213 206
f 206 214 207
f 207 215 208
f 208 216 209
f 209 217 210
f 210 217 218
f 210 218 211
usemtl APPID_4047054192_2409227633248 
o vid_25 
f 221 220 219
f 222 223 224
f 219 224 223
f 219 223 221
f 221 223 222
f 222 220 221
f 220 222 224
f 224 219 220
usemtl APPID_4047058112_2409227637984 
o vid_26 
f 225 233 234
f 226 234 235
f 227 235 236
f 228 236 237
f 229 237 238
f 230 238 239
f 225 234 226
f 226 235 227
f 227 236 228
f 228 237 229
f 229 238 230
f 230 239 231
f 231 239 240
f 231 240 232
usemtl APPID_4047054192_2409227633248 
o vid_27 
f 243 242 241
f 244 245 246
f 241 246 245
f 241 245 243
f 243 245 244
f 244 242 243
f 242 244 246
f 246 241 242
usemtl APPID_4047058112_2409227637984 
o vid_28 
f 247 255 256
f 248 256 257
f 249 257 258
f 250 258 259
f 251 259 260
f 252 260 261
f 247 256 248
f 248 257 249
f 249 258 250
f 250 259 251
f 251 260 252
f 252 261 253
f 253 261 262
f 253 262 254
usemtl APPID_4047054192_2409227633248 
o vid_29 
f 265 264 263
f 266 267 268
f 263 268 267
f 263 267 265
f 265 267 266
f 266 264 265
f 264 266 268
f 268 263 264
usemtl APPID_4047058112_2409227637984 
o vid_30 
f 269 276 277
f 270 277 278
f 271 278 279
f 272 279 280
f 273 280 281
f 269 277 270
f 270 278 271
f 271 279 272
f 272 280 273
f 273 281 274
f 274 281 282
f 274 282 275
usemtl APPID_4047054192_2409227633248 
o vid_31 
f 285 284 283
f 286 287 288
f 283 288 287
f 283 287 285
f 285 287 286
f 286 284 285
f 284 286 288
f 288 283 284
usemtl APPID_4047058112_2409227637984 
o vid_32 
f 289 297 298
f 290 298 299
f 291 299 300
f 292 300 301
f 293 301 302
f 294 302 303
f 289 298 290
f 290 299 291
f 291 300 292
f 292 301 293
f 293 302 294
f 294 303 295
f 295 303 304
f 295 304 296
usemtl APPID_4047054192_2409227633248 
o vid_33 
f 307 306 305
f 308 309 310
f 305 310 309
f 305 309 307
f 307 309 308
f 308 306 307
f 306 308 310
f 310 305 306
usemtl APPID_4047058112_2409227637984 
o vid_34 
f 311 319 320
f 312 320 321
f 313 321 322
f 314 322 323
f 315 323 324
f 316 324 325
f 311 320 312
f 312 321 313
f 313 322 314
f 314 323 315
f 315 324 316
f 316 325 317
f 317 325 326
f 317 326 318
usemtl APPID_4047054192_2409227633248 
o vid_35 
f 329 328 327
f 330 331 332
f 327 332 331
f 327 331 329
f 329 331 330
f 330 328 329
f 328 330 332
f 332 327 328
usemtl APPID_4047058112_2409227637984 
o vid_36 
f 333 339 340
f 334 340 341
f 335 341 342
f 336 342 343
f 333 340 334
f 334 341 335
f 335 342 336
f 336 343 337
f 337 343 344
f 337 344 338
usemtl APPID_4047054192_2409227633248 
o vid_37 
f 347 346 345
f 348 349 350
f 345 350 349
f 345 349 347
f 347 349 348
f 348 346 347
f 346 348 350
f 350 345 346
usemtl APPID_4047058112_2409227637984 
o vid_38 
f 351 355 356
f 352 356 357
f 351 356 352
f 352 357 353
f 353 357 358
usemtl APPID_4047059344_2409227633632 
o vid_10000004 
f 359 365 366
f 360 366 367
f 361 367 368
f 362 368 369
f 359 366 360
f 360 367 361
f 361 368 362
f 362 369 363
f 363 369 370
usemtl APPID_4047059344_2409227633632 
o vid_10000006 
f 371 376 377
f 372 377 378
f 373 378 379
f 371 377 372
f 372 378 373
f 373 379 374
f 374 379 380
usemtl APPID_4047059344_2409227633632 
o vid_10000008 
f 381 385 386
f 382 386 387
f 381 386 382
f 382 387 383
f 383 387 388
usemtl APPID_4047059344_2409227633632 
o vid_10000010 
f 389 391 392
f 389 392 390
f 389 391 392
usemtl APPID_4047059344_2409227633632 
o vid_10000012 
f 393 395 396
f 393 396 394
f 393 395 396
usemtl APPID_4047059344_2409227633632 
o vid_10000014 
f 397 400 401
f 397 401 398
f 398 401 402
usemtl APPID_4047059344_2409227633632 
o vid_10000016 
f 403 405 406
f 403 406 404
f 403 405 406
usemtl APPID_4047059344_2409227633632 
o vid_10000018 
f 407 409 410
f 407 410 408
f 407 409 410
usemtl APPID_4047059344_2409227633632 
o vid_10000020 
f 411 413 414
f 411 414 412
f 411 413 414
usemtl APPID_4047059344_2409227633632 
o vid_10000022 
f 415 417 418
f 415 418 416
f 415 417 418
usemtl APPID_4047059344_2409227633632 
o vid_10000024 
f 419 421 422
f 419 422 420
f 419 421 422
usemtl APPID_4047059344_2409227633632 
o vid_10000026 
f 423 425 426
f 423 426 424
f 423 425 426
usemtl APPID_4047059344_2409227633632 
o vid_10000028 
f 427 429 430
f 427 430 428
f 427 429 430
usemtl APPID_4047059344_2409227633632 
o vid_10000030 
f 431 433 434
f 431 434 432
f 431 433 434
usemtl APPID_4047059344_2409227633632 
o vid_10000032 
f 435 437 438
f 435 438 436
f 435 437 438
usemtl APPID_4047059344_2409227633632 
o vid_10000034 
f 439 441 442
f 439 442 440
f 439 441 442
usemtl APPID_4047059344_2409227633632 
o vid_10000036 
f 443 445 446
f 443 446 444
f 443 445 446
