# File generated by PlantGL - Fri Sep  4 14:43:47 2026
v    377.752484 18.905161 0.000000
v    382.071916 18.601013 0.000000
v    380.175600 22.493825 0.000000
v    382.247516 21.094839 0.362700
v    377.928084 21.398987 0.362700
v    379.824400 17.506175 0.362700
v    382.065086 21.442668 0.200167
v    382.268999 21.520411 0.402958
v    382.554111 21.623785 0.684324
v    383.236971 21.880921 1.175480
v    383.817044 22.107358 1.375077
v    384.491310 22.340179 1.602805
v    384.687086 22.378571 1.664813
v    385.029280 22.449927 1.660930
v    382.408947 20.736780 0.200167
v    382.595860 20.849421 0.402958
v    382.853008 21.010200 0.684324
v    383.476413 21.389388 1.175480
v    384.012284 21.706564 1.375077
v    384.611245 22.093974 1.602805
v    384.762156 22.224464 1.664813
v    385.029280 22.449927 1.660930
v    381.879284 21.505407 0.362700
v    377.756638 20.874804 0.362700
v    380.364078 17.619789 0.362700
v    378.120716 18.494593 0.589630
v    382.243362 19.125196 0.589630
v    379.635922 22.380211 0.589630
v    378.485541 18.066334 0.353213
v    378.302893 17.945010 0.556971
v    377.848698 17.653941 1.057460
v    376.962196 17.070320 1.771889
v    376.317524 16.634696 2.021282
v    375.435426 16.088328 2.352532
v    375.049453 15.917938 2.483666
v    374.712286 15.764260 2.479549
v    377.782408 18.944095 0.353213
v    377.624145 18.792330 0.556971
v    377.240960 18.412613 1.057460
v    376.477923 17.674866 1.771889
v    375.912095 17.140815 2.021282
v    375.186374 16.399234 2.352532
v    374.935850 16.059756 2.483666
v    374.712286 15.764260 2.479549
v    377.841416 19.161313 0.589630
v    381.805616 18.549955 0.589630
v    380.352968 22.288732 0.589630
v    382.158584 20.838687 1.053978
v    378.194384 21.450045 1.053978
v    379.647032 17.711268 1.053978
v    381.854107 21.555739 0.718303
v    382.893694 21.839506 1.718222
v    384.343048 22.252227 2.732598
v    385.124558 22.484973 2.993971
v    386.552074 22.849115 3.464294
v    387.443936 22.948454 3.743209
v    387.656039 22.974646 3.740834
v    382.418095 20.104165 0.718303
v    383.376563 20.596714 1.718222
v    384.724371 21.270791 2.732598
v    385.458014 21.626735 2.993971
v    386.756914 22.321904 3.464294
v    387.481892 22.850765 3.743209
v    387.656039 22.974646 3.740834
v    381.921217 20.454475 1.053978
v    378.645805 21.436585 1.053978
v    379.432978 18.108940 1.053978
v    378.078783 19.545525 1.829186
v    381.354195 18.563415 1.829186
v    380.567022 21.891060 1.829186
v    378.360094 18.501546 1.363965
v    376.878907 18.310365 2.749780
v    374.810531 18.020742 4.155633
v    373.670819 17.847146 4.525161
v    371.641702 17.620034 5.176995
v    370.421897 17.653431 5.556266
v    370.101200 17.658382 5.552702
v    377.862535 20.604895 1.363965
v    376.452677 20.112182 2.749780
v    374.473758 19.444395 4.155633
v    373.377062 19.088955 4.525161
v    371.461249 18.382871 5.176995
v    370.385690 17.806493 5.556266
v    370.101200 17.658382 5.552702
v    378.972648 18.826843 1.829186
v    381.529660 19.696865 1.829186
v    379.497692 21.476292 1.829186
v    381.027352 21.173157 2.769464
v    378.470340 20.303135 2.769464
v    380.502308 18.523708 2.769464
v    379.895113 22.104563 2.140101
v    381.376194 23.478674 4.014866
v    383.427301 25.421896 5.916736
v    384.582384 26.542905 6.432673
v    386.639330 28.386436 7.314489
v    387.966497 29.278712 7.811546
v    388.368118 29.555746 7.806125
v    382.100003 20.173706 2.140101
v    383.266688 21.823139 4.014866
v    384.922299 24.112703 5.916736
v    385.881106 25.405593 6.432673
v    387.437127 27.687792 7.314489
v    388.146496 29.121084 7.811546
v    388.368118 29.555746 7.806125
v    380.988971 20.631430 2.769464
v    378.958680 20.540759 2.769464
v    380.052349 18.827811 2.769464
v    379.011029 19.368570 5.235228
v    381.041320 19.459241 5.235228
v    379.947651 21.172189 5.235228
v    380.038864 17.869705 4.404149
v    377.651110 16.678482 6.879796
v    374.333236 14.971931 9.391236
v    370.514599 13.113122 10.747984
v    367.916321 12.284916 11.595590
v    378.083862 20.931709 4.404149
v    375.998451 19.266943 6.879796
v    373.054155 16.975278 9.391236
v    369.761013 14.293419 10.747984
v    367.916321 12.284916 11.595590
v    379.337872 19.522935 5.235228
v    380.744214 19.665113 5.235228
v    379.917914 20.811952 5.235228
v    380.662128 20.477065 7.277991
v    379.255786 20.334887 7.277991
v    380.082086 19.188048 7.277991
v    379.365914 22.144428 6.206754
v    382.352677 23.850111 9.397788
v    384.940874 25.370712 11.418387
v    386.547666 26.218960 12.634959
v    388.841123 27.482415 13.470889
v    392.125066 28.736138 14.563427
v    381.833435 18.719705 6.206754
v    384.396860 21.012947 9.397788
v    386.658557 22.986705 11.418387
v    387.971812 24.242358 12.634959
v    389.896286 26.017932 13.470889
v    392.125066 28.736138 14.563427
v    380.408594 20.266104 7.277991
v    379.565250 20.220801 7.277991
v    380.026156 19.513095 7.277991
v    379.591406 19.733896 7.900000
v    380.434750 19.779199 7.900000
v    379.973844 20.486905 7.900000
v    379.940872 17.807750 5.505936
v    379.269722 18.169293 11.284339
v    377.843731 18.595694 15.668861
v    377.971049 20.832353 5.505936
v    378.030339 20.072327 11.284339
v    377.843731 18.595694 15.668861
mtllib usm_31_2.5D_2018-08-09_9.mtl
usemtl APPID_2655950672_1733526480368 
o vid_3 
f 3 2 1
f 4 5 6
f 1 6 5
f 1 5 3
f 3 5 4
f 4 2 3
f 2 4 6
f 6 1 2
usemtl APPID_2655946080_1733526475120 
o vid_4 
f 7 15 16
f 8 16 17
f 9 17 18
f 10 18 19
f 11 19 20
f 12 20 21
f 7 16 8
f 8 17 9
f 9 18 10
f 10 19 11
f 11 20 12
f 12 21 13
f 13 21 22
usemtl APPID_2655950672_1733526480368 
o vid_5 
f 25 24 23
f 26 27 28
f 23 28 27
f 23 27 25
f 25 27 26
f 26 24 25
f 24 26 28
f 28 23 24
usemtl APPID_2655946080_1733526475120 
o vid_6 
f 29 37 38
f 30 38 39
f 31 39 40
f 32 40 41
f 33 41 42
f 34 42 43
f 29 38 30
f 30 39 31
f 31 40 32
f 32 41 33
f 33 42 34
f 34 43 35
f 35 43 44
usemtl APPID_2655950672_1733526480368 
o vid_7 
f 47 46 45
f 48 49 50
f 45 50 49
f 45 49 47
f 47 49 48
f 48 46 47
f 46 48 50
f 50 45 46
usemtl APPID_2655946080_1733526475120 
o vid_8 
f 51 58 59
f 52 59 60
f 53 60 61
f 54 61 62
f 55 62 63
f 51 59 52
f 52 60 53
f 53 61 54
f 54 62 55
f 55 63 56
f 56 63 64
usemtl APPID_2655950672_1733526480368 
o vid_9 
f 67 66 65
f 68 69 70
f 65 70 69
f 65 69 67
f 67 69 68
f 68 66 67
f 66 68 70
f 70 65 66
usemtl APPID_2655946080_1733526475120 
o vid_10 
f 71 78 79
f 72 79 80
f 73 80 81
f 74 81 82
f 75 82 83
f 71 79 72
f 72 80 73
f 73 81 74
f 74 82 75
f 75 83 76
f 76 83 84
usemtl APPID_2655950672_1733526480368 
o vid_11 
f 87 86 85
f 88 89 90
f 85 90 89
f 85 89 87
f 87 89 88
f 88 86 87
f 86 88 90
f 90 85 86
usemtl APPID_2655946080_1733526475120 
o vid_12 
f 91 98 99
f 92 99 100
f 93 100 101
f 94 101 102
f 95 102 103
f 91 99 92
f 92 100 93
f 93 101 94
f 94 102 95
f 95 103 96
f 96 103 104
usemtl APPID_2655950672_1733526480368 
o vid_13 
f 107 106 105
f 108 109 110
f 105 110 109
f 105 109 107
f 107 109 108
f 108 106 107
f 106 108 110
f 110 105 106
usemtl APPID_2655946080_1733526475120 
o vid_14 
f 111 116 117
f 112 117 118
f 113 118 119
f 111 117 112
f 112 118 113
f 113 119 114
f 114 119 120
usemtl APPID_2655950672_1733526480368 
o vid_15 
f 123 122 121
f 124 125 126
f 121 126 125
f 121 125 123
f 123 125 124
f 124 122 123
f 122 124 126
f 126 121 122
usemtl APPID_2655946080_1733526475120 
o vid_16 
f 127 133 134
f 128 134 135
f 129 135 136
f 130 136 137
f 127 134 128
f 128 135 129
f 129 136 130
f 130 137 131
f 131 137 138
usemtl APPID_2655950672_1733526480368 
o vid_17 
f 141 140 139
f 142 143 144
f 139 144 143
f 139 143 141
f 141 143 142
f 142 140 141
f 140 142 144
f 144 139 140
usemtl APPID_2655946080_1733526475120 
o vid_18 
f 145 148 149
f 145 149 146
f 146 149 150
