# File generated by PlantGL - Fri Sep  4 14:41:34 2026
v    178.765727 19.398745 0.000000
v    181.137839 19.231715 0.000000
v    180.096435 21.369539 0.000000
v    181.234273 20.601255 0.331061
v    178.862161 20.768285 0.331061
v    179.903565 18.630461 0.331061
v    180.819272 21.177956 -0.085637
v    181.666551 21.499798 0.773151
v    182.020817 21.624539 1.128134
v    183.241528 22.076977 1.944180
v    184.400311 22.485037 2.328973
v    185.709585 22.781326 2.659937
v    181.432558 19.918984 -0.085637
v    182.208265 20.387752 0.773151
v    182.524866 20.589812 1.128134
v    183.633599 21.272123 1.944180
v    184.669214 21.933026 2.328973
v    185.709585 22.781326 2.659937
v    180.797204 20.638603 0.331061
v    179.048352 20.371097 0.331061
v    180.154444 18.990300 0.331061
v    179.202796 19.361397 0.718770
v    180.951648 19.628903 0.718770
v    179.845556 21.009700 0.718770
v    179.991651 18.642747 0.143568
v    178.517538 17.666172 1.819033
v    178.080135 17.368196 2.151401
v    176.784762 16.525015 3.120245
v    175.970621 15.980539 3.367383
v    174.502868 15.053507 3.804288
v    173.899315 14.765942 3.969121
v    172.821858 14.249926 3.722176
v    178.673647 20.288086 0.143568
v    177.398877 19.062659 1.819033
v    177.012618 18.700838 2.151401
v    175.907038 17.620727 3.120245
v    175.197995 16.945051 3.367383
v    173.972962 15.715019 3.804288
v    173.560598 15.188781 3.969121
v    172.821858 14.249926 3.722176
v    179.354104 19.749046 0.718770
v    180.540280 19.566114 0.718770
v    180.105616 20.684839 0.718770
v    180.645896 20.250954 0.982000
v    179.459720 20.433886 0.982000
v    179.894384 19.315161 0.982000
v    179.983448 21.172076 -0.598098
v    181.760929 21.577657 2.023196
v    183.447890 21.952419 3.704441
v    184.189489 21.999558 4.390876
v    185.588669 22.171398 5.060489
v    180.779118 19.124209 -0.598098
v    182.364158 20.025087 2.023196
v    183.861616 20.887586 3.704441
v    184.440504 21.353503 4.390876
v    185.588669 22.171398 5.060489
mtllib usm_29_Beer_2018-07-21_4.mtl
usemtl APPID_2425071104_1742050078592 
o vid_3 
f 3 2 1
f 4 5 6
f 1 6 5
f 1 5 3
f 3 5 4
f 4 2 3
f 2 4 6
f 6 1 2
usemtl APPID_2425070768_1742050078336 
o vid_4 
f 7 13 14
f 8 14 15
f 9 15 16
f 10 16 17
f 7 14 8
f 8 15 9
f 9 16 10
f 10 17 11
f 11 17 18
usemtl APPID_2425071104_1742050078592 
o vid_5 
f 21 20 19
f 22 23 24
f 19 24 23
f 19 23 21
f 21 23 22
f 22 20 21
f 20 22 24
f 24 19 20
usemtl APPID_2425070768_1742050078336 
o vid_6 
f 25 33 34
f 26 34 35
f 27 35 36
f 28 36 37
f 29 37 38
f 30 38 39
f 25 34 26
f 26 35 27
f 27 36 28
f 28 37 29
f 29 38 30
f 30 39 31
f 31 39 40
usemtl APPID_2425071104_1742050078592 
o vid_7 
f 43 42 41
f 44 45 46
f 41 46 45
f 41 45 43
f 43 45 44
f 44 42 43
f 42 44 46
f 46 41 42
usemtl APPID_2425070768_1742050078336 
o vid_8 
f 47 52 53
f 48 53 54
f 49 54 55
f 47 53 48
f 48 54 49
f 49 55 50
f 50 55 56
