# File generated by PlantGL - Fri Sep  4 14:42:53 2026
v    17.752484 178.905161 0.000000
v    22.071916 178.601013 0.000000
v    20.175600 182.493825 0.000000
v    22.247516 181.094839 0.362700
v    17.928084 181.398987 0.362700
v    19.824400 177.506175 0.362700
v    22.064918 181.443499 0.203133
v    22.348997 181.551806 0.485648
v    22.544371 181.622644 0.678455
v    23.214771 181.875088 1.160650
v    23.893069 182.139868 1.394045
v    24.555032 182.368441 1.617618
v    25.088459 182.478755 1.635840
v    22.409498 180.736136 0.203133
v    22.669894 180.893060 0.485648
v    22.846105 181.003234 0.678455
v    23.458135 181.375504 1.160650
v    24.084747 181.746387 1.394045
v    24.672779 182.126728 1.617618
v    25.088459 182.478755 1.635840
v    21.640424 181.314067 0.362700
v    18.041773 180.763615 0.362700
v    20.317803 177.922318 0.362700
v    18.359576 178.685933 0.589630
v    21.958227 179.236385 0.589630
v    19.682197 182.077682 0.589630
v    18.718238 178.264129 0.363993
v    18.387039 178.044130 0.733471
v    18.112377 177.868114 1.036127
v    17.266299 177.311105 1.717980
v    16.447991 176.758151 2.034543
v    15.606116 176.236697 2.350689
v    14.906350 175.919715 2.390431
v    18.026223 179.128010 0.363993
v    17.739240 178.852813 0.733471
v    17.507521 178.623190 1.036127
v    16.779276 177.919083 1.717980
v    16.061050 177.241192 2.034543
v    15.368420 176.533426 2.350689
v    14.906350 175.919715 2.390431
v    18.453054 179.398956 0.589630
v    21.293992 178.960828 0.589630
v    20.252954 181.640216 0.589630
v    21.546946 180.601044 1.053978
v    18.706008 181.039172 1.053978
v    19.747046 178.359784 1.053978
v    21.249816 181.303722 0.741169
v    21.728923 181.442285 1.204625
v    22.216102 181.574557 1.672975
v    23.566728 181.959164 2.618253
v    24.813506 182.330474 3.035233
v    26.143781 182.669811 3.473518
v    27.197863 182.796628 3.551319
v    21.802172 179.882085 0.741169
v    22.249152 180.103339 1.204625
v    22.697837 180.334685 1.672975
v    23.953834 180.962844 2.618253
v    25.124247 181.530699 3.035233
v    26.334668 182.178514 3.473518
v    27.197863 182.796628 3.551319
v    21.212681 180.286867 1.053978
v    19.145226 180.906779 1.053978
v    19.642093 178.806354 1.053978
v    18.787319 179.713133 1.829186
v    20.854774 179.093221 1.829186
v    20.357907 181.193646 1.829186
v    19.059013 178.697304 1.404027
v    18.225453 178.577089 2.186627
v    17.708090 178.511125 2.670503
v    15.817832 178.246442 3.955291
v    13.858521 177.948009 4.590558
v    12.004141 177.740455 5.186259
v    10.550945 177.764771 5.220913
v    18.575085 180.743028 1.404027
v    17.776010 180.477034 2.186627
v    17.283926 180.304207 2.670503
v    15.475421 179.693926 3.955291
v    13.590061 179.082880 4.590558
v    11.839227 178.437600 5.186259
v    10.550945 177.764771 5.220913
v    19.432453 179.351905 1.829186
v    20.845041 179.832537 1.829186
v    19.722507 180.815558 1.829186
v    20.567547 180.648095 2.611000
v    19.154959 180.167463 2.611000
v    20.277493 179.184442 2.611000
v    19.614897 181.420580 1.476505
v    20.879978 182.574538 3.272257
v    22.653726 184.240869 5.136896
v    24.648098 186.032255 6.177630
v    26.165170 187.040149 6.864929
v    21.458972 179.805695 1.476505
v    22.435926 181.211969 3.272257
v    23.853662 183.190066 5.136896
v    25.366250 185.403358 6.177630
v    26.165170 187.040149 6.864929
mtllib usm_25_2.5D_2018-08-03_4.mtl
usemtl APPID_3202205008_2021840792432 
o vid_3 
f 3 2 1
f 4 5 6
f 1 6 5
f 1 5 3
f 3 5 4
f 4 2 3
f 2 4 6
f 6 1 2
usemtl APPID_3202203104_2021840792304 
o vid_4 
f 7 14 15
f 8 15 16
f 9 16 17
f 10 17 18
f 11 18 19
f 7 15 8
f 8 16 9
f 9 17 10
f 10 18 11
f 11 19 12
f 12 19 20
usemtl APPID_3202205008_2021840792432 
o vid_5 
f 23 22 21
f 24 25 26
f 21 26 25
f 21 25 23
f 23 25 24
f 24 22 23
f 22 24 26
f 26 21 22
usemtl APPID_3202203104_2021840792304 
o vid_6 
f 27 34 35
f 28 35 36
f 29 36 37
f 30 37 38
f 31 38 39
f 27 35 28
f 28 36 29
f 29 37 30
f 30 38 31
f 31 39 32
f 32 39 40
usemtl APPID_3202205008_2021840792432 
o vid_7 
f 43 42 41
f 44 45 46
f 41 46 45
f 41 45 43
f 43 45 44
f 44 42 43
f 42 44 46
f 46 41 42
usemtl APPID_3202203104_2021840792304 
o vid_8 
f 47 54 55
f 48 55 56
f 49 56 57
f 50 57 58
f 51 58 59
f 47 55 48
f 48 56 49
f 49 57 50
f 50 58 51
f 51 59 52
f 52 59 60
usemtl APPID_3202205008_2021840792432 
o vid_9 
f 63 62 61
f 64 65 66
f 61 66 65
f 61 65 63
f 63 65 64
f 64 62 63
f 62 64 66
f 66 61 62
usemtl APPID_3202203104_2021840792304 
o vid_10 
f 67 74 75
f 68 75 76
f 69 76 77
f 70 77 78
f 71 78 79
f 67 75 68
f 68 76 69
f 69 77 70
f 70 78 71
f 71 79 72
f 72 79 80
usemtl APPID_3202205008_2021840792432 
o vid_11 
f 83 82 81
f 84 85 86
f 81 86 85
f 81 85 83
f 83 85 84
f 84 82 83
f 82 84 86
f 86 81 82
usemtl APPID_3202203104_2021840792304 
o vid_12 
f 87 92 93
f 88 93 94
f 89 94 95
f 87 93 88
f 88 94 89
f 89 95 90
f 90 95 96
