# File generated by PlantGL - Fri Sep  4 14:43:16 2026
v    58.201987 19.124129 0.000000
v    61.657533 18.880811 0.000000
v    60.140480 21.995060 0.000000
v    61.798013 20.875871 0.231332
v    58.342467 21.119189 0.231332
v    59.859520 18.004940 0.231332
v    61.488153 21.266372 -0.140491
v    62.207628 21.519709 0.580440
v    62.574910 21.634879 0.942568
v    63.080185 21.805184 1.275665
v    63.755638 21.935350 1.694054
v    61.914494 20.391169 -0.140491
v    62.557476 20.801530 0.580440
v    62.874565 21.019739 0.942568
v    63.320129 21.312619 1.275665
v    63.838990 21.764242 1.694054
v    61.503548 21.204422 0.231332
v    58.205166 20.699900 0.231332
v    60.291286 18.095678 0.231332
v    58.496452 18.795578 0.322957
v    61.794834 19.300100 0.322957
v    59.708714 21.904322 0.322957
v    59.008081 18.387564 -0.175642
v    58.248456 17.910643 0.672087
v    57.692658 17.588011 1.276694
v    57.207840 17.292646 1.631343
v    56.207445 16.854917 2.295511
v    58.209943 19.383925 -0.175642
v    57.578724 18.746707 0.672087
v    57.142563 18.274726 1.276694
v    56.748503 17.866062 1.631343
v    56.102981 16.985325 2.295511
v    58.272844 19.328938 0.322957
v    61.444735 18.839770 0.322957
v    60.282421 21.831292 0.322957
v    61.727156 20.671062 0.466906
v    58.555265 21.160230 0.466906
v    59.717579 18.168708 0.466906
v    61.269390 21.325252 -0.189159
v    61.867571 21.481719 0.395230
v    63.243326 21.791023 1.721846
v    64.888138 21.980906 2.730859
v    61.831148 19.879419 -0.189159
v    62.378053 20.167858 0.395230
v    63.601746 20.868533 1.721846
v    64.943291 21.838957 2.730859
v    61.731622 20.409625 0.466906
v    58.779443 21.294816 0.466906
v    59.488935 18.295559 0.466906
v    58.268378 19.590375 0.678772
v    61.220557 18.705184 0.678772
v    60.511065 21.704441 0.678772
v    58.733419 18.688853 -0.168301
v    58.088084 18.612649 0.445872
v    56.174594 18.453754 2.252276
v    54.023962 18.521816 3.576474
v    58.280214 20.604704 -0.168301
v    57.669133 20.383696 0.445872
v    55.887256 19.668430 2.252276
v    53.995056 18.644013 3.576474
v    58.876148 18.716648 0.678772
v    61.673341 19.668392 0.678772
v    59.450510 21.614960 0.678772
v    61.123852 21.283352 0.919581
v    58.326659 20.331608 0.919581
v    60.549490 18.385040 0.919581
v    59.941665 21.905986 -0.153604
v    60.890641 22.766961 1.057449
v    62.444656 24.081543 2.972404
v    62.791312 24.387648 3.261307
v    65.175290 25.979149 5.004734
v    61.897020 20.193651 -0.153604
v    62.625260 21.247927 1.057449
v    63.723313 22.961802 2.972404
v    63.981004 23.345816 3.261307
v    65.244050 25.918934 5.004734
v    61.375838 20.878433 0.919581
v    58.551335 20.752294 0.919581
v    60.072827 18.369272 0.919581
v    58.624162 19.121567 1.432830
v    61.448665 19.247706 1.432830
v    59.927173 21.630728 1.432830
v    59.740482 18.090260 0.098668
v    59.451831 17.949583 0.402162
v    56.689007 16.719785 3.247294
v    55.904453 16.507999 3.984856
v    53.349176 15.702687 5.614408
v    58.158375 20.568221 0.098668
v    57.909292 20.365569 0.402162
v    55.631054 18.376794 3.247294
v    55.108783 17.754209 3.984856
v    53.302955 15.775080 5.614408
v    58.735263 19.088754 1.432830
v    61.421531 19.360328 1.432830
v    59.843206 21.550918 1.432830
v    61.264737 20.911246 2.225064
v    58.578469 20.639672 2.225064
v    60.156794 18.449082 2.225064
v    59.773718 22.175357 0.597561
v    60.908985 22.809796 1.826739
v    64.189807 24.496687 5.297429
v    68.388554 26.081962 8.040666
v    61.991863 19.096748 0.597561
v    62.953044 19.972805 1.826739
v    65.591728 22.550932 5.297429
v    68.424589 26.031947 8.040666
v    61.244614 20.810576 2.225064
v    58.675713 20.672580 2.225064
v    60.079672 18.516844 2.225064
v    58.755386 19.189424 3.124456
v    61.324287 19.327420 3.124456
v    59.920328 21.483156 3.124456
v    60.416749 17.671003 1.176340
v    59.742302 17.334729 1.888631
v    55.724475 15.502619 6.043036
v    54.867300 15.262898 6.850872
v    50.690129 13.904816 9.522458
v    58.038399 21.322886 1.176340
v    57.458130 20.842005 1.888631
v    54.157872 17.908091 6.043036
v    53.592025 17.221045 6.850872
v    50.660885 13.949720 9.522458
v    58.765415 19.315252 3.124456
v    61.210302 19.273192 3.124456
v    60.024283 21.411556 3.124456
v    61.234585 20.684748 4.412369
v    58.789698 20.726808 4.412369
v    59.975717 18.588444 4.412369
v    59.398246 22.631049 2.124203
v    60.485384 23.080024 3.235884
v    65.345063 24.892378 8.115454
v    66.072367 25.041195 8.789243
v    71.456670 26.378659 12.163659
v    61.913335 18.096404 2.124203
v    62.869838 18.780912 3.235884
v    66.980445 21.943824 8.115454
v    67.491790 22.482009 8.789243
v    71.477325 26.341419 12.163659
v    61.293262 20.344016 4.412369
v    59.055443 20.947990 4.412369
v    59.651295 18.707994 4.412369
v    58.706738 19.655984 6.256697
v    60.944557 19.052010 6.256697
v    60.348705 21.292006 6.256697
v    60.207208 16.982623 3.619517
v    59.029572 16.810369 4.744398
v    53.088316 16.150881 10.368251
v    52.061450 16.196692 11.301177
v    45.840104 16.214978 15.085201
v    58.680623 22.721533 3.619517
v    57.573046 22.285906 4.744398
v    52.089355 19.906288 10.368251
v    51.220967 19.356328 11.301177
v    45.830960 16.249351 15.085201
v    58.831935 19.515124 6.256697
v    61.003948 19.230864 6.256697
v    60.164118 21.254012 6.256697
v    61.168065 20.484876 8.910199
v    58.996052 20.769136 8.910199
v    59.835882 18.745988 8.910199
v    59.110956 23.190311 5.927758
v    59.812199 23.390985 6.617139
v    66.372263 25.024373 12.977269
v    68.169687 25.184579 14.615105
v    74.428859 26.006322 18.454788
v    61.631654 17.117954 5.927758
v    62.268863 17.472886 6.617139
v    68.057171 20.965435 12.977269
v    69.439650 22.125239 14.615105
v    74.440723 25.977741 18.454788
v    60.919824 20.756852 8.910199
v    58.884635 20.418165 8.910199
v    60.195542 18.824983 8.910199
v    59.080176 19.243148 12.877904
v    61.115365 19.581835 12.877904
v    59.804458 21.175017 12.877904
v    62.200195 16.958002 9.568242
v    60.794667 16.049631 11.149955
v    54.356478 12.198553 18.207892
v    53.334048 11.785508 19.208728
v    45.991540 8.457292 24.112034
v    57.438654 22.744835 9.568242
v    56.276612 21.540549 11.149955
v    51.257761 15.964508 18.207892
v    50.655551 15.040760 19.208728
v    45.975623 8.476637 24.112034
v    59.227775 19.192038 12.877904
v    61.085829 19.735214 12.877904
v    59.686397 21.072748 12.877904
v    60.772225 20.807962 18.599862
v    58.914171 20.264786 18.599862
v    60.313603 18.927252 18.599862
v    56.971105 22.998949 14.995943
v    59.592671 25.177051 18.217313
v    65.709317 29.910242 25.493551
v    74.806503 35.505997 32.000701
v    63.132814 17.109779 14.995943
v    65.190173 19.827133 18.217313
v    69.642002 26.151504 25.493551
v    74.820768 35.492363 32.000701
v    60.731259 20.745280 18.599862
v    58.988939 20.260648 18.599862
v    60.279802 18.994071 18.599862
v    59.268741 19.254720 25.060335
v    61.011061 19.739352 25.060335
v    59.720198 21.005929 25.060335
v    63.295324 16.864358 21.209577
v    60.500341 14.603473 24.607310
v    53.861395 9.603941 32.426182
v    44.100341 3.783120 39.349211
v    56.802343 23.235182 21.209577
v    54.594944 20.397766 24.607310
v    49.722392 13.665073 32.426182
v    44.087991 3.795238 39.349211
v    59.349705 19.279474 25.060335
v    60.949141 19.797091 25.060335
v    59.701154 20.923435 25.060335
v    60.650295 20.720526 34.094583
v    59.050859 20.202909 34.094583
v    60.298846 19.076565 34.094583
v    56.352986 23.025856 30.057228
v    58.959701 25.320627 33.339609
v    65.925902 31.036774 41.817361
v    75.637645 37.338103 48.862358
v    63.382726 16.681313 30.057228
v    65.399084 19.508897 33.339609
v    70.373381 27.022796 41.817361
v    75.649212 37.327664 48.862358
v    60.880529 20.171415 34.094583
v    59.411286 20.676853 34.094583
v    59.708185 19.151732 34.094583
v    59.119471 19.828585 47.693426
v    60.588714 19.323147 47.693426
v    60.291815 20.848268 47.693426
v    61.238315 15.231953 43.539800
v    57.277914 14.924313 47.294230
v    48.416580 14.544537 55.638611
v    36.063664 15.333258 63.181113
v    59.359249 24.884376 43.539800
v    55.572662 23.683887 47.294230
v    47.215984 20.711782 55.638611
v    36.061044 15.346717 63.181113
v    59.364741 19.475932 47.693426
v    60.771485 19.711884 47.693426
v    59.863773 20.812184 47.693426
v    60.635259 20.524068 62.435049
v    59.228515 20.288116 62.435049
v    60.136227 19.187816 62.435049
v    56.549970 23.570194 58.241926
v    59.811938 25.684265 61.915823
v    67.596057 30.353941 70.455784
v    78.815175 35.530049 77.981653
v    62.849361 15.934273 58.241926
v    65.544899 18.734954 61.915823
v    71.608981 25.489603 70.455784
v    78.823157 35.520374 77.981653
v    60.599732 20.450357 62.435049
v    59.310113 20.294205 62.435049
v    60.090155 19.255438 62.435049
v    59.400268 19.549643 90.553000
v    60.689887 19.705795 90.553000
v    59.909845 20.744562 90.553000
v    63.538089 16.040214 86.399373
v    57.288888 12.384143 93.242339
v    52.371969 9.732014 98.498185
v    48.494064 7.532789 101.283195
v    38.404515 3.489182 107.894452
v    37.482476 3.084760 108.142687
v    57.183909 24.501956 86.399373
v    51.930232 19.520165 93.242339
v    48.012189 15.537852 98.498185
v    44.818820 12.427042 101.283195
v    38.122072 3.865306 107.894452
v    37.476575 3.092618 108.142687
v    63.755638 21.935350 1.694054
v    63.900367 21.963241 1.783702
v    64.142838 22.018112 1.844995
v    63.838990 21.764242 1.694054
v    63.950166 21.861011 1.783702
v    64.142838 22.018112 1.844995
v    56.207445 16.854917 2.295511
v    56.043104 16.783008 2.404618
v    55.897363 16.713570 2.444420
v    56.102981 16.985325 2.295511
v    55.996937 16.840641 2.404618
v    55.897363 16.713570 2.444420
v    64.888138 21.980906 2.730859
v    65.179408 22.012386 2.909050
v    64.943291 21.838957 2.730859
v    65.179408 22.012386 2.909050
v    54.023962 18.521816 3.576474
v    53.782508 18.529216 3.723403
v    53.995056 18.644013 3.576474
v    53.782508 18.529216 3.723403
v    65.175290 25.979149 5.004734
v    65.321528 26.076775 5.111680
v    65.244050 25.918934 5.004734
v    65.321528 26.076775 5.111680
v    53.349176 15.702687 5.614408
v    53.191583 15.653020 5.714908
v    53.302955 15.775080 5.614408
v    53.191583 15.653020 5.714908
v    68.388554 26.081962 8.040666
v    68.499482 26.123897 8.112796
v    68.424589 26.031947 8.040666
v    68.499482 26.123897 8.112796
v    50.690129 13.904816 9.522458
v    50.592092 13.872943 9.585160
v    50.660885 13.949720 9.522458
v    50.592092 13.872943 9.585160
v    71.456670 26.378659 12.163659
v    71.536177 26.398408 12.213487
v    71.477325 26.341419 12.163659
v    71.536177 26.398408 12.213487
v    45.840104 16.214978 15.085201
v    45.771678 16.215179 15.126819
v    45.830960 16.249351 15.085201
v    45.771678 16.215179 15.126819
v    74.428859 26.006322 18.454788
v    74.487883 26.014071 18.490997
v    74.440723 25.977741 18.454788
v    74.487883 26.014071 18.490997
v    45.991540 8.457292 24.112034
v    45.947646 8.437396 24.141346
v    45.975623 8.476637 24.112034
v    45.947646 8.437396 24.141346
v    74.806503 35.505997 32.000701
v    74.838962 35.525679 32.023790
v    74.820768 35.492363 32.000701
v    74.838962 35.525679 32.023790
v    44.100341 3.783120 39.349211
v    44.071656 3.766238 39.369455
v    44.087991 3.795238 39.349211
v    44.071656 3.766238 39.369455
v    75.637645 37.338103 48.862358
v    75.662821 37.354371 48.880589
v    75.649212 37.327664 48.862358
v    75.662821 37.354371 48.880589
v    36.063664 15.333258 63.181113
v    36.037352 15.335120 63.197156
v    36.061044 15.346717 63.181113
v    36.037352 15.335120 63.197156
v    78.815175 35.530049 77.981653
v    78.837139 35.540039 77.996329
v    78.823157 35.520374 77.981653
v    78.837139 35.540039 77.996329
v    37.482476 3.084760 108.142687
v    37.462802 3.076131 108.147984
v    37.476575 3.092618 108.142687
v    37.462802 3.076131 108.147984
mtllib usm_28_Beer_2018-09-20_1.mtl
usemtl APPID_3679788672_1876378766960 
o vid_3 
f 3 2 1
f 4 5 6
f 1 6 5
f 1 5 3
f 3 5 4
f 4 2 3
f 2 4 6
f 6 1 2
usemtl APPID_3679788784_1876378766704 
o vid_4 
f 7 12 13
f 8 13 14
f 9 14 15
f 7 13 8
f 8 14 9
f 9 15 10
f 10 15 16
f 10 16 11
usemtl APPID_3679788672_1876378766960 
o vid_5 
f 19 18 17
f 20 21 22
f 17 22 21
f 17 21 19
f 19 21 20
f 20 18 19
f 18 20 22
f 22 17 18
usemtl APPID_3679788784_1876378766704 
o vid_6 
f 23 28 29
f 24 29 30
f 25 30 31
f 23 29 24
f 24 30 25
f 25 31 26
f 26 31 32
f 26 32 27
usemtl APPID_3679788672_1876378766960 
o vid_7 
f 35 34 33
f 36 37 38
f 33 38 37
f 33 37 35
f 35 37 36
f 36 34 35
f 34 36 38
f 38 33 34
usemtl APPID_3679788784_1876378766704 
o vid_8 
f 39 43 44
f 40 44 45
f 39 44 40
f 40 45 41
f 41 45 46
f 41 46 42
usemtl APPID_3679788672_1876378766960 
o vid_9 
f 49 48 47
f 50 51 52
f 47 52 51
f 47 51 49
f 49 51 50
f 50 48 49
f 48 50 52
f 52 47 48
usemtl APPID_3679788784_1876378766704 
o vid_10 
f 53 57 58
f 54 58 59
f 53 58 54
f 54 59 55
f 55 59 60
f 55 60 56
usemtl APPID_3679788672_1876378766960 
o vid_11 
f 63 62 61
f 64 65 66
f 61 66 65
f 61 65 63
f 63 65 64
f 64 62 63
f 62 64 66
f 66 61 62
usemtl APPID_3679788784_1876378766704 
o vid_12 
f 67 72 73
f 68 73 74
f 69 74 75
f 67 73 68
f 68 74 69
f 69 75 70
f 70 75 76
f 70 76 71
usemtl APPID_3679788672_1876378766960 
o vid_13 
f 79 78 77
f 80 81 82
f 77 82 81
f 77 81 79
f 79 81 80
f 80 78 79
f 78 80 82
f 82 77 78
usemtl APPID_3679788784_1876378766704 
o vid_14 
f 83 88 89
f 84 89 90
f 85 90 91
f 83 89 84
f 84 90 85
f 85 91 86
f 86 91 92
f 86 92 87
usemtl APPID_3679788672_1876378766960 
o vid_15 
f 95 94 93
f 96 97 98
f 93 98 97
f 93 97 95
f 95 97 96
f 96 94 95
f 94 96 98
f 98 93 94
usemtl APPID_3679788784_1876378766704 
o vid_16 
f 99 103 104
f 100 104 105
f 99 104 100
f 100 105 101
f 101 105 106
f 101 106 102
usemtl APPID_3679788672_1876378766960 
o vid_17 
f 109 108 107
f 110 111 112
f 107 112 111
f 107 111 109
f 109 111 110
f 110 108 109
f 108 110 112
f 112 107 108
usemtl APPID_3679788784_1876378766704 
o vid_18 
f 113 118 119
f 114 119 120
f 115 120 121
f 113 119 114
f 114 120 115
f 115 121 116
f 116 121 122
f 116 122 117
usemtl APPID_3679788672_1876378766960 
o vid_19 
f 125 124 123
f 126 127 128
f 123 128 127
f 123 127 125
f 125 127 126
f 126 124 125
f 124 126 128
f 128 123 124
usemtl APPID_3679788784_1876378766704 
o vid_20 
f 129 134 135
f 130 135 136
f 131 136 137
f 129 135 130
f 130 136 131
f 131 137 132
f 132 137 138
f 132 138 133
usemtl APPID_3679788672_1876378766960 
o vid_21 
f 141 140 139
f 142 143 144
f 139 144 143
f 139 143 141
f 141 143 142
f 142 140 141
f 140 142 144
f 144 139 140
usemtl APPID_3679788784_1876378766704 
o vid_22 
f 145 150 151
f 146 151 152
f 147 152 153
f 145 151 146
f 146 152 147
f 147 153 148
f 148 153 154
f 148 154 149
usemtl APPID_3679788672_1876378766960 
o vid_23 
f 157 156 155
f 158 159 160
f 155 160 159
f 155 159 157
f 157 159 158
f 158 156 157
f 156 158 160
f 160 155 156
usemtl APPID_3679788784_1876378766704 
o vid_24 
f 161 166 167
f 162 167 168
f 163 168 169
f 161 167 162
f 162 168 163
f 163 169 164
f 164 169 170
f 164 170 165
usemtl APPID_3679788672_1876378766960 
o vid_25 
f 173 172 171
f 174 175 176
f 171 176 175
f 171 175 173
f 173 175 174
f 174 172 173
f 172 174 176
f 176 171 172
usemtl APPID_3679788784_1876378766704 
o vid_26 
f 177 182 183
f 178 183 184
f 179 184 185
f 177 183 178
f 178 184 179
f 179 185 180
f 180 185 186
f 180 186 181
usemtl APPID_3679788672_1876378766960 
o vid_27 
f 189 188 187
f 190 191 192
f 187 192 191
f 187 191 189
f 189 191 190
f 190 188 189
f 188 190 192
f 192 187 188
usemtl APPID_3679788784_1876378766704 
o vid_28 
f 193 197 198
f 194 198 199
f 193 198 194
f 194 199 195
f 195 199 200
f 195 200 196
usemtl APPID_3679788672_1876378766960 
o vid_29 
f 203 202 201
f 204 205 206
f 201 206 205
f 201 205 203
f 203 205 204
f 204 202 203
f 202 204 206
f 206 201 202
usemtl APPID_3679788784_1876378766704 
o vid_30 
f 207 211 212
f 208 212 213
f 207 212 208
f 208 213 209
f 209 213 214
f 209 214 210
usemtl APPID_3679788672_1876378766960 
o vid_31 
f 217 216 215
f 218 219 220
f 215 220 219
f 215 219 217
f 217 219 218
f 218 216 217
f 216 218 220
f 220 215 216
usemtl APPID_3679788784_1876378766704 
o vid_32 
f 221 225 226
f 222 226 227
f 221 226 222
f 222 227 223
f 223 227 228
f 223 228 224
usemtl APPID_3679788672_1876378766960 
o vid_33 
f 231 230 229
f 232 233 234
f 229 234 233
f 229 233 231
f 231 233 232
f 232 230 231
f 230 232 234
f 234 229 230
usemtl APPID_3679788784_1876378766704 
o vid_34 
f 235 239 240
f 236 240 241
f 235 240 236
f 236 241 237
f 237 241 242
f 237 242 238
usemtl APPID_3679788672_1876378766960 
o vid_35 
f 245 244 243
f 246 247 248
f 243 248 247
f 243 247 245
f 245 247 246
f 246 244 245
f 244 246 248
f 248 243 244
usemtl APPID_3679788784_1876378766704 
o vid_36 
f 249 253 254
f 250 254 255
f 249 254 250
f 250 255 251
f 251 255 256
f 251 256 252
usemtl APPID_3679788672_1876378766960 
o vid_37 
f 259 258 257
f 260 261 262
f 257 262 261
f 257 261 259
f 259 261 260
f 260 258 259
f 258 260 262
f 262 257 258
usemtl APPID_3679788784_1876378766704 
o vid_38 
f 263 269 270
f 264 270 271
f 265 271 272
f 266 272 273
f 263 270 264
f 264 271 265
f 265 272 266
f 266 273 267
f 267 273 274
f 267 274 268
usemtl APPID_3679775904_1876378761072 
o vid_10000004 
f 275 278 279
f 275 279 276
f 276 279 280
usemtl APPID_3679775904_1876378761072 
o vid_10000006 
f 281 284 285
f 281 285 282
f 282 285 286
usemtl APPID_3679775904_1876378761072 
o vid_10000008 
f 287 289 290
f 287 290 288
f 287 289 290
usemtl APPID_3679775904_1876378761072 
o vid_10000010 
f 291 293 294
f 291 294 292
f 291 293 294
usemtl APPID_3679775904_1876378761072 
o vid_10000012 
f 295 297 298
f 295 298 296
f 295 297 298
usemtl APPID_3679775904_1876378761072 
o vid_10000014 
f 299 301 302
f 299 302 300
f 299 301 302
usemtl APPID_3679775904_1876378761072 
o vid_10000016 
f 303 305 306
f 303 306 304
f 303 305 306
usemtl APPID_3679775904_1876378761072 
o vid_10000018 
f 307 309 310
f 307 310 308
f 307 309 310
usemtl APPID_3679775904_1876378761072 
o vid_10000020 
f 311 313 314
f 311 314 312
f 311 313 314
usemtl APPID_3679775904_1876378761072 
o vid_10000022 
f 315 317 318
f 315 318 316
f 315 317 318
usemtl APPID_3679775904_1876378761072 
o vid_10000024 
f 319 321 322
f 319 322 320
f 319 321 322
usemtl APPID_3679775904_1876378761072 
o vid_10000026 
f 323 325 326
f 323 326 324
f 323 325 326
usemtl APPID_3679775904_1876378761072 
o vid_10000028 
f 327 329 330
f 327 330 328
f 327 329 330
usemtl APPID_3679775904_1876378761072 
o vid_10000030 
f 331 333 334
f 331 334 332
f 331 333 334
usemtl APPID_3679775904_1876378761072 
o vid_10000032 
f 335 337 338
f 335 338 336
f 335 337 338
usemtl APPID_3679775904_1876378761072 
o vid_10000034 
f 339 341 342
f 339 342 340
f 339 341 342
usemtl APPID_3679775904_1876378761072 
o vid_10000036 
f 343 345 346
f 343 346 344
f 343 345 346
usemtl APPID_3679775904_1876378761072 
o vid_10000038 
f 347 349 350
f 347 350 348
f 347 349 350
