# File generated by PlantGL - Fri Sep  4 14:43:08 2026
v    18.860998 99.445155 0.000000
v    21.050011 99.291018 0.000000
v    20.088991 101.263827 0.000000
v    21.139002 100.554845 0.331061
v    18.949989 100.708982 0.331061
v    19.911009 98.736173 0.331061
v    20.730639 101.127550 -0.071053
v    21.734969 101.509048 0.946918
v    23.248717 102.067260 2.009892
v    24.433494 102.489249 2.326451
v    25.528798 102.737116 2.603326
v    25.698315 102.775836 2.567383
v    21.338233 99.880265 -0.071053
v    22.257723 100.435923 0.946918
v    23.630379 101.283773 2.009892
v    24.692985 101.956558 2.326451
v    25.563332 102.666223 2.603326
v    25.698315 102.775836 2.567383
v    20.717535 100.574784 0.331061
v    19.143455 100.334012 0.331061
v    20.139010 99.091204 0.331061
v    19.282465 99.425216 0.678956
v    20.856545 99.665988 0.678956
v    19.860990 100.908796 0.678956
v    20.039732 98.736889 0.123444
v    18.616078 97.793743 1.741557
v    18.272072 97.559392 2.002956
v    16.941364 96.693212 2.998228
v    16.245524 96.227852 3.209455
v    14.828013 95.332552 3.631405
v    14.144605 95.006939 3.818047
v    13.205314 94.557095 3.602768
v    18.776014 100.314460 0.123444
v    17.544880 99.130980 1.741557
v    17.241096 98.846417 2.002956
v    16.105359 97.736843 2.998228
v    15.499345 97.159348 3.209455
v    14.316245 95.971421 3.631405
v    13.849323 95.375557 3.818047
v    13.205314 94.557095 3.602768
v    19.445621 99.784604 0.678956
v    20.463728 99.627592 0.678956
v    20.090651 100.587805 0.678956
v    20.554379 100.215396 0.796000
v    19.536272 100.372408 0.796000
v    19.909349 99.412195 0.796000
v    20.173678 100.990100 -0.720153
v    20.401630 101.019574 -0.099363
v    21.224135 101.067871 2.082115
v    22.561030 100.995052 4.172890
v    20.796586 99.386882 -0.720153
v    20.984640 99.519042 -0.099363
v    21.623994 100.038729 2.082115
v    22.561030 100.995052 4.172890
mtllib usm_19_2.5D_2018-07-19_2.mtl
usemtl APPID_3534011008_1420965934080 
o vid_3 
f 3 2 1
f 4 5 6
f 1 6 5
f 1 5 3
f 3 5 4
f 4 2 3
f 2 4 6
f 6 1 2
usemtl APPID_3534004512_1420965935872 
o vid_4 
f 7 13 14
f 8 14 15
f 9 15 16
f 10 16 17
f 7 14 8
f 8 15 9
f 9 16 10
f 10 17 11
f 11 17 18
usemtl APPID_3534011008_1420965934080 
o vid_5 
f 21 20 19
f 22 23 24
f 19 24 23
f 19 23 21
f 21 23 22
f 22 20 21
f 20 22 24
f 24 19 20
usemtl APPID_3534004512_1420965935872 
o vid_6 
f 25 33 34
f 26 34 35
f 27 35 36
f 28 36 37
f 29 37 38
f 30 38 39
f 25 34 26
f 26 35 27
f 27 36 28
f 28 37 29
f 29 38 30
f 30 39 31
f 31 39 40
usemtl APPID_3534011008_1420965934080 
o vid_7 
f 43 42 41
f 44 45 46
f 41 46 45
f 41 45 43
f 43 45 44
f 44 42 43
f 42 44 46
f 46 41 42
usemtl APPID_3534004512_1420965935872 
o vid_8 
f 47 51 52
f 48 52 53
f 47 52 48
f 48 53 49
f 49 53 54
