# File generated by PlantGL - Fri Sep  4 14:43:01 2026
v    17.752484 178.905161 0.000000
v    22.071916 178.601013 0.000000
v    20.175600 182.493825 0.000000
v    22.247516 181.094839 0.362700
v    17.928084 181.398987 0.362700
v    19.824400 177.506175 0.362700
v    22.064918 181.443499 0.203133
v    22.348997 181.551806 0.485648
v    22.544371 181.622644 0.678455
v    23.214771 181.875088 1.160650
v    23.893069 182.139868 1.394045
v    24.555032 182.368441 1.617618
v    24.992578 182.458761 1.636928
v    22.409498 180.736136 0.203133
v    22.669894 180.893060 0.485648
v    22.846105 181.003234 0.678455
v    23.458135 181.375504 1.160650
v    24.084747 181.746387 1.394045
v    24.672779 182.126728 1.617618
v    25.013612 182.415582 1.636928
v    21.879284 181.505407 0.362700
v    17.756638 180.874804 0.362700
v    20.364078 177.619789 0.362700
v    18.120716 178.494593 0.589630
v    22.243362 179.125196 0.589630
v    19.635922 182.380211 0.589630
v    18.479378 178.072790 0.363993
v    18.148179 177.852790 0.733471
v    17.873517 177.676775 1.036127
v    17.027439 177.119766 1.717980
v    16.209131 176.566812 2.034543
v    15.367256 176.045357 2.350689
v    14.726492 175.755268 2.391152
v    17.787363 178.936671 0.363993
v    17.500380 178.661474 0.733471
v    17.268661 178.431851 1.036127
v    16.540416 177.727743 1.717980
v    15.822190 177.049852 2.034543
v    15.129560 176.342086 2.350689
v    14.706612 175.780085 2.391152
v    17.841416 179.161313 0.589630
v    21.805616 178.549955 0.589630
v    20.352968 182.288732 0.589630
v    22.158584 180.838687 1.053978
v    18.194384 181.450045 1.053978
v    19.647032 177.711268 1.053978
v    21.861454 181.541365 0.741169
v    22.340561 181.679929 1.204625
v    22.827741 181.812201 1.672975
v    24.178367 182.196807 2.618253
v    25.425144 182.568118 3.035233
v    26.755420 182.907455 3.473518
v    27.767475 183.029082 3.551789
v    22.413811 180.119728 0.741169
v    22.860790 180.340983 1.204625
v    23.309476 180.572328 1.672975
v    24.565473 181.200488 2.618253
v    25.735885 181.768342 3.035233
v    26.946306 182.416157 3.473518
v    27.774995 183.009725 3.551789
v    22.163962 180.511898 1.053978
v    18.474702 181.618097 1.053978
v    19.361335 177.870005 1.053978
v    17.836038 179.488102 1.829186
v    21.525298 178.381903 1.829186
v    20.638665 182.129995 1.829186
v    18.107732 178.472273 1.404027
v    17.274172 178.352058 2.186627
v    16.756808 178.286094 2.670503
v    14.866551 178.021411 3.955291
v    12.907240 177.722978 4.590558
v    11.052860 177.515424 5.186259
v    9.626459 177.539327 5.221211
v    17.623804 180.517997 1.404027
v    16.824729 180.252003 2.186627
v    16.332644 180.079176 2.670503
v    14.524140 179.468895 3.955291
v    12.638780 178.857849 4.590558
v    10.887946 178.212569 5.186259
v    9.623434 177.552115 5.221211
v    18.595695 178.396392 1.829186
v    22.090917 179.585640 1.829186
v    19.313387 182.017967 1.829186
v    21.404305 181.603608 2.769464
v    17.909083 180.414360 2.769464
v    20.686613 177.982033 2.769464
v    20.311188 182.506755 2.202932
v    21.258983 183.412120 3.420924
v    21.630692 183.755699 3.890535
v    23.477032 185.504925 5.602538
v    25.548192 187.514986 6.527655
v    27.368875 189.146767 7.308185
v    28.989646 190.271758 7.286248
v    22.443782 180.639209 2.202932
v    23.216180 181.698171 3.420924
v    23.507712 182.111963 3.890535
v    24.998040 184.172954 5.602538
v    26.717260 186.491214 6.527655
v    28.094555 188.511277 7.308185
v    28.995867 190.266311 7.286248
v    21.666887 181.064260 2.769464
v    18.244880 180.911437 2.769464
v    20.088233 178.024303 2.769464
v    18.333113 178.935740 5.235228
v    21.755120 179.088563 5.235228
v    19.911767 181.975697 5.235228
v    19.332903 177.468654 4.495113
v    18.582406 177.078724 5.281026
v    17.214009 176.396047 6.699792
v    14.259287 174.876283 8.936347
v    11.923665 173.639190 9.783522
v    8.995123 172.233905 10.820517
v    7.940362 171.897698 11.164600
v    6.637639 171.465256 11.149349
v    17.422972 180.460065 4.495113
v    16.753430 179.943340 5.281026
v    15.558304 178.989281 6.699792
v    12.936271 176.948446 8.936347
v    10.831186 175.350275 9.783522
v    8.324020 173.285015 10.820517
v    7.575174 172.469671 11.164600
v    6.634684 171.469885 11.149349
v    18.714774 179.073992 5.235228
v    21.444559 179.349966 5.235228
v    19.840666 181.576042 5.235228
v    21.285226 180.926008 9.070287
v    18.555441 180.650034 9.070287
v    20.159334 178.423958 9.070287
v    19.780079 182.898511 8.122357
v    22.393724 184.448554 10.946082
v    26.059311 186.609314 13.810633
v    31.554433 189.927362 15.868191
v    33.739320 191.131006 16.664549
v    35.265980 191.983499 16.644643
v    38.289099 193.179183 16.608522
v    22.679843 178.873869 8.122357
v    24.977523 180.862447 10.946082
v    28.187505 183.655551 13.810633
v    33.074399 187.817769 15.868191
v    34.907771 189.509289 16.664549
v    36.199687 190.687588 16.644643
v    38.290849 193.176755 16.608522
v    21.021696 180.665397 9.070287
v    18.912902 180.552116 9.070287
v    20.065402 178.782487 9.070287
v    18.978304 179.334603 15.537192
v    21.087098 179.447884 15.537192
v    19.934598 181.217513 15.537192
v    20.840209 176.632433 14.346896
v    17.470328 174.842716 17.892589
v    15.144471 173.576263 19.677451
v    12.761729 172.323339 21.489547
v    3.537186 167.330171 24.851694
v    -1.341869 164.904016 25.019014
v    -4.265738 163.904007 24.984681
v    -5.198454 163.589086 24.810297
v    17.259742 182.130129 14.346896
v    14.260253 179.771687 17.892589
v    12.161493 178.156534 19.677451
v    10.052105 176.483883 21.489547
v    1.755401 170.066047 24.851694
v    -2.436409 166.584649 25.019014
v    -4.533284 164.314815 24.984681
v    -5.198454 163.589086 24.810297
v    19.227605 179.571600 15.537192
v    20.757202 179.545287 15.537192
v    20.015192 180.883113 15.537192
v    20.772395 180.428400 23.570456
v    19.242798 180.454713 23.570456
v    19.984808 179.116887 23.570456
v    18.783518 183.797208 22.105125
v    23.077653 185.701183 26.470100
v    24.564991 186.379263 27.571772
v    29.090801 188.363735 30.898186
v    39.151567 192.920282 34.438318
v    41.681057 193.946978 35.309833
v    45.272378 195.428735 35.265604
v    50.139746 196.716664 35.209663
v    22.577112 176.957450 22.105125
v    26.465992 179.592090 26.470100
v    27.828750 180.494783 27.571772
v    31.908587 183.283335 30.898186
v    41.101067 189.405380 34.438318
v    43.311374 191.007558 35.309833
v    46.469945 193.269551 35.265604
v    50.139746 196.716664 35.209663
v    20.556645 180.148071 23.570456
v    19.593444 180.408033 23.570456
v    19.849911 179.443896 23.570456
v    19.443355 179.851929 27.635000
v    20.406556 179.591967 27.635000
v    20.150089 180.556104 27.635000
v    19.967136 176.455151 24.163568
v    16.460522 176.140952 31.063101
v    13.492824 175.759170 35.198689
v    10.852440 175.589414 38.817251
v    7.976030 175.259744 41.064739
v    3.113568 175.508105 44.701535
v    18.210203 183.060010 24.163568
v    15.010935 181.590403 31.063101
v    12.245776 180.447210 35.198689
v    9.870019 179.282641 38.817251
v    7.209975 178.139580 41.064739
v    3.113568 175.508105 44.701535
v    24.992578 182.458761 1.636928
v    25.088459 182.478755 1.635840
v    25.013612 182.415582 1.636928
v    25.088459 182.478755 1.635840
v    14.726492 175.755268 2.391152
v    14.667490 175.728375 2.390431
v    14.706612 175.780085 2.391152
v    14.667490 175.728375 2.390431
v    27.767475 183.029082 3.551789
v    27.809501 183.034271 3.551319
v    27.774995 183.009725 3.551789
v    27.809501 183.034271 3.551319
v    9.626459 177.539327 5.221211
v    9.599664 177.539740 5.220913
v    9.623434 177.552115 5.221211
v    9.599664 177.539740 5.220913
v    28.989646 190.271758 7.286248
v    29.003525 190.281332 7.286061
v    28.995867 190.266311 7.286248
v    29.003525 190.281332 7.286061
v    6.637639 171.465256 11.149349
v    6.627011 171.461728 11.149224
v    6.634684 171.469885 11.149349
v    6.627011 171.461728 11.149224
v    38.289099 193.179183 16.608522
v    38.294775 193.181428 16.608454
v    38.290849 193.176755 16.608522
v    38.294775 193.181428 16.608454
mtllib usm_25_2.5D_2018-08-16_4.mtl
usemtl APPID_3202189888_2021840838640 
o vid_3 
f 3 2 1
f 4 5 6
f 1 6 5
f 1 5 3
f 3 5 4
f 4 2 3
f 2 4 6
f 6 1 2
usemtl APPID_3202190000_2021840840816 
o vid_4 
f 7 14 15
f 8 15 16
f 9 16 17
f 10 17 18
f 11 18 19
f 7 15 8
f 8 16 9
f 9 17 10
f 10 18 11
f 11 19 12
f 12 19 20
f 12 20 13
usemtl APPID_3202189888_2021840838640 
o vid_5 
f 23 22 21
f 24 25 26
f 21 26 25
f 21 25 23
f 23 25 24
f 24 22 23
f 22 24 26
f 26 21 22
usemtl APPID_3202190000_2021840840816 
o vid_6 
f 27 34 35
f 28 35 36
f 29 36 37
f 30 37 38
f 31 38 39
f 27 35 28
f 28 36 29
f 29 37 30
f 30 38 31
f 31 39 32
f 32 39 40
f 32 40 33
usemtl APPID_3202189888_2021840838640 
o vid_7 
f 43 42 41
f 44 45 46
f 41 46 45
f 41 45 43
f 43 45 44
f 44 42 43
f 42 44 46
f 46 41 42
usemtl APPID_3202190000_2021840840816 
o vid_8 
f 47 54 55
f 48 55 56
f 49 56 57
f 50 57 58
f 51 58 59
f 47 55 48
f 48 56 49
f 49 57 50
f 50 58 51
f 51 59 52
f 52 59 60
f 52 60 53
usemtl APPID_3202189888_2021840838640 
o vid_9 
f 63 62 61
f 64 65 66
f 61 66 65
f 61 65 63
f 63 65 64
f 64 62 63
f 62 64 66
f 66 61 62
usemtl APPID_3202190000_2021840840816 
o vid_10 
f 67 74 75
f 68 75 76
f 69 76 77
f 70 77 78
f 71 78 79
f 67 75 68
f 68 76 69
f 69 77 70
f 70 78 71
f 71 79 72
f 72 79 80
f 72 80 73
usemtl APPID_3202189888_2021840838640 
o vid_11 
f 83 82 81
f 84 85 86
f 81 86 85
f 81 85 83
f 83 85 84
f 84 82 83
f 82 84 86
f 86 81 82
usemtl APPID_3202190000_2021840840816 
o vid_12 
f 87 94 95
f 88 95 96
f 89 96 97
f 90 97 98
f 91 98 99
f 87 95 88
f 88 96 89
f 89 97 90
f 90 98 91
f 91 99 92
f 92 99 100
f 92 100 93
usemtl APPID_3202189888_2021840838640 
o vid_13 
f 103 102 101
f 104 105 106
f 101 106 105
f 101 105 103
f 103 105 104
f 104 102 103
f 102 104 106
f 106 101 102
usemtl APPID_3202190000_2021840840816 
o vid_14 
f 107 115 116
f 108 116 117
f 109 117 118
f 110 118 119
f 111 119 120
f 112 120 121
f 107 116 108
f 108 117 109
f 109 118 110
f 110 119 111
f 111 120 112
f 112 121 113
f 113 121 122
f 113 122 114
usemtl APPID_3202189888_2021840838640 
o vid_15 
f 125 124 123
f 126 127 128
f 123 128 127
f 123 127 125
f 125 127 126
f 126 124 125
f 124 126 128
f 128 123 124
usemtl APPID_3202190000_2021840840816 
o vid_16 
f 129 136 137
f 130 137 138
f 131 138 139
f 132 139 140
f 133 140 141
f 129 137 130
f 130 138 131
f 131 139 132
f 132 140 133
f 133 141 134
f 134 141 142
f 134 142 135
usemtl APPID_3202189888_2021840838640 
o vid_17 
f 145 144 143
f 146 147 148
f 143 148 147
f 143 147 145
f 145 147 146
f 146 144 145
f 144 146 148
f 148 143 144
usemtl APPID_3202190000_2021840840816 
o vid_18 
f 149 157 158
f 150 158 159
f 151 159 160
f 152 160 161
f 153 161 162
f 154 162 163
f 149 158 150
f 150 159 151
f 151 160 152
f 152 161 153
f 153 162 154
f 154 163 155
f 155 163 164
usemtl APPID_3202189888_2021840838640 
o vid_19 
f 167 166 165
f 168 169 170
f 165 170 169
f 165 169 167
f 167 169 168
f 168 166 167
f 166 168 170
f 170 165 166
usemtl APPID_3202190000_2021840840816 
o vid_20 
f 171 179 180
f 172 180 181
f 173 181 182
f 174 182 183
f 175 183 184
f 176 184 185
f 171 180 172
f 172 181 173
f 173 182 174
f 174 183 175
f 175 184 176
f 176 185 177
f 177 185 186
usemtl APPID_3202189888_2021840838640 
o vid_21 
f 189 188 187
f 190 191 192
f 187 192 191
f 187 191 189
f 189 191 190
f 190 188 189
f 188 190 192
f 192 187 188
usemtl APPID_3202190000_2021840840816 
o vid_22 
f 193 199 200
f 194 200 201
f 195 201 202
f 196 202 203
f 193 200 194
f 194 201 195
f 195 202 196
f 196 203 197
f 197 203 204
usemtl APPID_3202190896_2021840837104 
o vid_10000004 
f 205 207 208
f 205 208 206
f 205 207 208
usemtl APPID_3202190896_2021840837104 
o vid_10000006 
f 209 211 212
f 209 212 210
f 209 211 212
usemtl APPID_3202190896_2021840837104 
o vid_10000008 
f 213 215 216
f 213 216 214
f 213 215 216
usemtl APPID_3202190896_2021840837104 
o vid_10000010 
f 217 219 220
f 217 220 218
f 217 219 220
usemtl APPID_3202190896_2021840837104 
o vid_10000012 
f 221 223 224
f 221 224 222
f 221 223 224
usemtl APPID_3202190896_2021840837104 
o vid_10000014 
f 225 227 228
f 225 228 226
f 225 227 228
usemtl APPID_3202190896_2021840837104 
o vid_10000016 
f 229 231 232
f 229 232 230
f 229 231 232
