# File generated by PlantGL - Fri Sep  4 14:43:33 2026
v    257.752484 18.905161 0.000000
v    262.071916 18.601013 0.000000
v    260.175600 22.493825 0.000000
v    262.247516 21.094839 0.848509
v    257.928084 21.398987 0.848509
v    259.824400 17.506175 0.848509
v    262.063684 21.446577 0.692265
v    262.462658 21.598689 1.089043
v    263.188661 21.871098 1.629845
v    264.009539 22.191536 1.912300
v    264.566019 22.383686 2.100247
v    265.067419 22.501998 2.094487
v    262.411161 20.733267 0.692265
v    262.776873 20.953658 1.089043
v    263.438899 21.357404 1.629845
v    264.197226 21.806248 1.912300
v    264.691555 22.125981 2.100247
v    265.093791 22.447860 2.094487
v    261.879284 21.505407 0.848509
v    257.756638 20.874804 0.848509
v    260.364078 17.619789 0.848509
v    258.120716 18.494593 1.417165
v    262.243362 19.125196 1.417165
v    259.635922 22.380211 1.417165
v    258.490538 18.058378 1.195701
v    257.899182 17.665569 1.855404
v    257.068756 17.118858 2.524645
v    255.920594 16.343011 2.968814
v    255.327858 15.975873 3.191401
v    255.083567 15.822612 3.188118
v    254.461676 15.539158 3.180524
v    257.775734 18.950707 1.195701
v    257.263327 18.459343 1.855404
v    256.548548 17.768263 2.524645
v    255.540809 16.817118 2.968814
v    255.053152 16.318804 3.191401
v    254.850268 16.113853 3.188118
v    254.437914 15.568822 3.180524
v    257.841416 19.161313 1.417165
v    261.805616 18.549955 1.417165
v    260.352968 22.288732 1.417165
v    262.158584 20.838687 2.253766
v    258.194384 21.450045 2.253766
v    259.647032 17.711268 2.253766
v    261.873099 21.512406 1.946055
v    262.141529 21.590039 2.205716
v    262.824899 21.775578 2.862674
v    264.153513 22.153917 3.792547
v    265.116636 22.440750 4.114660
v    266.425231 22.774557 4.545802
v    266.978948 22.836232 4.718967
v    267.396033 22.887736 4.714298
v    262.402849 20.148953 1.946055
v    262.653279 20.272915 2.205716
v    263.282654 20.597425 2.862674
v    264.518181 21.215347 3.792547
v    265.422313 21.654009 4.114660
v    266.613007 22.291266 4.545802
v    267.063113 22.619612 4.718967
v    267.405561 22.863214 4.714298
v    262.163962 20.511898 2.253766
v    258.474702 21.618097 2.253766
v    259.361335 17.870005 2.253766
v    257.836038 19.488102 4.112548
v    261.525298 18.381903 4.112548
v    260.638665 22.129995 4.112548
v    258.103233 18.489401 3.693439
v    257.312118 18.375307 4.436189
v    256.771415 18.306368 4.941894
v    254.908053 18.045451 6.208400
v    253.016366 17.757318 6.821742
v    251.188372 17.552718 7.408967
v    249.789310 17.576666 7.456847
v    257.627456 20.500669 3.693439
v    256.869070 20.248219 4.436189
v    256.354786 20.067595 4.941894
v    254.572015 19.465998 6.208400
v    252.751726 18.876041 6.821742
v    251.025805 18.239943 7.408967
v    249.785755 17.591697 7.456847
v    258.736034 18.556648 4.112548
v    261.881963 19.627049 4.112548
v    259.382004 21.816303 4.112548
v    261.263966 21.443352 5.999272
v    258.118037 20.372951 5.999272
v    260.617996 18.183697 5.999272
v    260.149460 22.365896 5.439703
v    261.446549 23.604920 7.106566
v    263.269934 25.332881 8.797530
v    265.801597 27.789861 9.928338
v    267.093584 28.947800 10.482215
v    267.654187 29.456074 10.473600
v    269.222423 30.537826 10.452433
v    262.325493 20.460309 5.439703
v    263.382547 21.909535 7.106566
v    264.854825 23.944967 8.797530
v    266.956298 26.778671 9.928338
v    267.933650 28.212142 10.482215
v    268.363513 28.834906 10.473600
v    269.228896 30.532158 10.452433
v    261.278606 20.816354 5.999272
v    258.653714 20.699129 5.999272
v    260.067680 18.484518 5.999272
v    258.721394 19.183646 11.505015
v    261.346286 19.300871 11.505015
v    259.932320 21.515482 11.505015
v    259.729267 17.702865 10.772657
v    258.642503 17.138225 11.910704
v    257.636024 16.636104 12.954230
v    254.712269 15.132268 15.167346
v    251.955239 13.671971 16.167373
v    249.057389 12.281413 17.193500
v    246.692745 11.503697 17.350978
v    257.802231 20.721067 10.772657
v    256.832695 19.972818 11.910704
v    255.953660 19.271092 12.954230
v    253.359106 17.251646 15.167346
v    250.874210 15.365123 16.167373
v    248.393319 13.321507 17.193500
v    246.692745 11.503697 17.350978
v    259.071658 19.331127 11.505015
v    261.043432 19.530469 11.505015
v    259.884910 21.138404 11.505015
v    260.928342 20.668873 19.658889
v    258.956568 20.469531 19.658889
v    260.115090 18.861596 19.658889
v    259.393866 22.683108 18.719303
v    261.984506 24.219508 21.518173
v    263.137981 24.919914 22.427669
v    265.609926 26.372217 24.357510
v    271.968824 30.211828 26.738496
v    273.197436 30.888665 27.186307
v    275.691104 32.281137 27.153791
v    278.693239 33.468523 27.117921
v    262.353262 18.575702 18.719303
v    264.630717 20.546776 21.518173
v    265.660237 21.419223 22.427669
v    267.820347 23.304327 24.357510
v    273.475412 28.120804 26.738496
v    274.506358 29.071984 27.186307
v    276.616592 30.996633 27.153791
v    278.693239 33.468523 27.117921
v    260.670538 20.436699 19.658889
v    259.286539 20.362353 19.658889
v    260.042923 19.200948 19.658889
v    259.329462 19.563301 25.541351
v    260.713461 19.637647 25.541351
v    259.957077 20.799052 25.541351
v    260.851028 17.382573 24.359692
v    257.471475 15.658236 27.879658
v    252.776119 13.189265 31.450518
v    251.211666 12.342439 32.020727
v    246.556455 10.056614 33.676383
v    242.872919 8.845703 34.881541
v    257.950199 21.836707 24.359692
v    255.006596 19.442982 27.879658
v    250.849903 16.146909 31.450518
v    249.442809 15.058464 32.020727
v    245.469856 11.725053 33.676383
v    242.872919 8.845703 34.881541
v    259.575882 19.764768 25.541351
v    260.415776 19.750319 25.541351
v    260.008342 20.484913 25.541351
v    260.424118 20.235232 27.962000
v    259.584224 20.249681 27.962000
v    259.991658 19.515087 27.962000
v    260.001404 22.543419 25.320800
v    260.424379 22.520038 28.213183
v    260.988428 22.377309 31.633788
v    261.946092 22.482831 34.729034
v    263.634913 22.077717 39.188670
v    263.760556 22.085749 39.368967
v    262.158364 18.654471 25.320800
v    262.362491 19.025668 28.213183
v    262.540071 19.579733 31.633788
v    263.136663 20.336260 34.729034
v    263.687215 21.983418 39.188670
v    263.760556 22.085749 39.368967
v    265.067419 22.501998 2.094487
v    265.187631 22.527065 2.093123
v    265.093791 22.447860 2.094487
v    265.187631 22.527065 2.093123
v    254.461676 15.539158 3.180524
v    254.391151 15.507013 3.179663
v    254.437914 15.568822 3.180524
v    254.391151 15.507013 3.179663
v    267.396033 22.887736 4.714298
v    267.449275 22.894311 4.713702
v    267.405561 22.863214 4.714298
v    267.449275 22.894311 4.713702
v    249.789310 17.576666 7.456847
v    249.757818 17.577152 7.456497
v    249.785755 17.591697 7.456847
v    249.757818 17.577152 7.456497
v    269.222423 30.537826 10.452433
v    269.236864 30.547787 10.452238
v    269.228896 30.532158 10.452433
v    269.236864 30.547787 10.452238
mtllib usm_34_2.5D_2018-07-25_6.mtl
usemtl APPID_3111208592_1493465495424 
o vid_3 
f 3 2 1
f 4 5 6
f 1 6 5
f 1 5 3
f 3 5 4
f 4 2 3
f 2 4 6
f 6 1 2
usemtl APPID_3111206352_1493465494400 
o vid_4 
f 7 13 14
f 8 14 15
f 9 15 16
f 10 16 17
f 7 14 8
f 8 15 9
f 9 16 10
f 10 17 11
f 11 17 18
f 11 18 12
usemtl APPID_3111208592_1493465495424 
o vid_5 
f 21 20 19
f 22 23 24
f 19 24 23
f 19 23 21
f 21 23 22
f 22 20 21
f 20 22 24
f 24 19 20
usemtl APPID_3111206352_1493465494400 
o vid_6 
f 25 32 33
f 26 33 34
f 27 34 35
f 28 35 36
f 29 36 37
f 25 33 26
f 26 34 27
f 27 35 28
f 28 36 29
f 29 37 30
f 30 37 38
f 30 38 31
usemtl APPID_3111208592_1493465495424 
o vid_7 
f 41 40 39
f 42 43 44
f 39 44 43
f 39 43 41
f 41 43 42
f 42 40 41
f 40 42 44
f 44 39 40
usemtl APPID_3111206352_1493465494400 
o vid_8 
f 45 53 54
f 46 54 55
f 47 55 56
f 48 56 57
f 49 57 58
f 50 58 59
f 45 54 46
f 46 55 47
f 47 56 48
f 48 57 49
f 49 58 50
f 50 59 51
f 51 59 60
f 51 60 52
usemtl APPID_3111208592_1493465495424 
o vid_9 
f 63 62 61
f 64 65 66
f 61 66 65
f 61 65 63
f 63 65 64
f 64 62 63
f 62 64 66
f 66 61 62
usemtl APPID_3111206352_1493465494400 
o vid_10 
f 67 74 75
f 68 75 76
f 69 76 77
f 70 77 78
f 71 78 79
f 67 75 68
f 68 76 69
f 69 77 70
f 70 78 71
f 71 79 72
f 72 79 80
f 72 80 73
usemtl APPID_3111208592_1493465495424 
o vid_11 
f 83 82 81
f 84 85 86
f 81 86 85
f 81 85 83
f 83 85 84
f 84 82 83
f 82 84 86
f 86 81 82
usemtl APPID_3111206352_1493465494400 
o vid_12 
f 87 94 95
f 88 95 96
f 89 96 97
f 90 97 98
f 91 98 99
f 87 95 88
f 88 96 89
f 89 97 90
f 90 98 91
f 91 99 92
f 92 99 100
f 92 100 93
usemtl APPID_3111208592_1493465495424 
o vid_13 
f 103 102 101
f 104 105 106
f 101 106 105
f 101 105 103
f 103 105 104
f 104 102 103
f 102 104 106
f 106 101 102
usemtl APPID_3111206352_1493465494400 
o vid_14 
f 107 114 115
f 108 115 116
f 109 116 117
f 110 117 118
f 111 118 119
f 107 115 108
f 108 116 109
f 109 117 110
f 110 118 111
f 111 119 112
f 112 119 120
usemtl APPID_3111208592_1493465495424 
o vid_15 
f 123 122 121
f 124 125 126
f 121 126 125
f 121 125 123
f 123 125 124
f 124 122 123
f 122 124 126
f 126 121 122
usemtl APPID_3111206352_1493465494400 
o vid_16 
f 127 135 136
f 128 136 137
f 129 137 138
f 130 138 139
f 131 139 140
f 132 140 141
f 127 136 128
f 128 137 129
f 129 138 130
f 130 139 131
f 131 140 132
f 132 141 133
f 133 141 142
usemtl APPID_3111208592_1493465495424 
o vid_17 
f 145 144 143
f 146 147 148
f 143 148 147
f 143 147 145
f 145 147 146
f 146 144 145
f 144 146 148
f 148 143 144
usemtl APPID_3111206352_1493465494400 
o vid_18 
f 149 155 156
f 150 156 157
f 151 157 158
f 152 158 159
f 149 156 150
f 150 157 151
f 151 158 152
f 152 159 153
f 153 159 160
usemtl APPID_3111208592_1493465495424 
o vid_19 
f 163 162 161
f 164 165 166
f 161 166 165
f 161 165 163
f 163 165 164
f 164 162 163
f 162 164 166
f 166 161 162
usemtl APPID_3111206352_1493465494400 
o vid_20 
f 167 173 174
f 168 174 175
f 169 175 176
f 170 176 177
f 167 174 168
f 168 175 169
f 169 176 170
f 170 177 171
f 171 177 178
usemtl APPID_3111206016_1493465492864 
o vid_10000004 
f 179 181 182
f 179 182 180
f 179 181 182
usemtl APPID_3111206016_1493465492864 
o vid_10000006 
f 183 185 186
f 183 186 184
f 183 185 186
usemtl APPID_3111206016_1493465492864 
o vid_10000008 
f 187 189 190
f 187 190 188
f 187 189 190
usemtl APPID_3111206016_1493465492864 
o vid_10000010 
f 191 193 194
f 191 194 192
f 191 193 194
usemtl APPID_3111206016_1493465492864 
o vid_10000012 
f 195 197 198
f 195 198 196
f 195 197 198
