# File generated by PlantGL - Fri Sep  4 14:41:29 2026
v    18.466273 139.252871 0.000000
v    21.413896 139.045318 0.000000
v    20.119831 141.701811 0.000000
v    21.533727 140.747129 0.331061
v    18.586104 140.954682 0.331061
v    19.880169 138.298189 0.331061
v    21.118726 141.323830 -0.085637
v    21.966005 141.645672 0.773151
v    22.320271 141.770413 1.128134
v    23.540982 142.222851 1.944180
v    24.699765 142.630910 2.328973
v    26.009039 142.927200 2.659937
v    21.732012 140.064858 -0.085637
v    22.507719 140.533626 0.773151
v    22.824320 140.735686 1.128134
v    23.933053 141.417997 1.944180
v    24.968668 142.078900 2.328973
v    26.009039 142.927200 2.659937
v    21.047616 140.839196 0.331061
v    18.749427 140.487664 0.331061
v    20.202957 138.673140 0.331061
v    18.952384 139.160804 0.718770
v    21.250573 139.512336 0.718770
v    19.797043 141.326860 0.718770
v    19.741240 138.442154 0.143568
v    18.267126 137.465579 1.819033
v    17.829723 137.167602 2.151401
v    16.534350 136.324422 3.120245
v    15.720209 135.779946 3.367383
v    14.252457 134.852914 3.804288
v    13.648904 134.565348 3.969121
v    12.571447 134.049333 3.722176
v    18.423235 140.087493 0.143568
v    17.148465 138.862066 1.819033
v    16.762206 138.500244 2.151401
v    15.656627 137.420134 3.120245
v    14.947583 136.744458 3.367383
v    13.722550 135.514426 3.804288
v    13.310187 134.988188 3.969121
v    12.571447 134.049333 3.722176
v    19.066451 139.637283 0.718770
v    20.780897 139.372881 0.718770
v    20.152652 140.989836 0.718770
v    20.933549 140.362717 1.487000
v    19.219103 140.627119 1.487000
v    19.847348 139.010164 1.487000
v    20.196142 141.641438 0.711738
v    22.486392 142.300759 2.969945
v    23.643552 142.650139 3.729033
v    25.171983 143.076802 4.723730
v    26.984067 143.607033 5.200142
v    29.246099 144.205231 5.789008
v    31.737177 144.560314 5.413822
v    21.252908 138.921570 0.711738
v    23.387520 139.981467 2.969945
v    24.477018 140.504993 3.729033
v    25.892572 141.222174 4.723730
v    27.587296 142.054463 5.200142
v    29.659825 143.140398 5.789008
v    31.737177 144.560314 5.413822
v    20.665397 140.157404 1.487000
v    19.530986 140.497549 1.487000
v    19.803617 139.345047 1.487000
v    19.334603 139.842596 2.071000
v    20.469014 139.502451 2.071000
v    20.196383 140.654953 2.071000
v    20.116464 138.390116 -0.003165
v    19.384985 138.298411 0.955482
v    17.490215 138.116587 3.421916
v    16.059349 137.941571 4.677603
v    14.223441 137.779137 6.276209
v    13.551343 137.702096 6.564670
v    10.426923 137.735433 7.866960
v    19.382828 141.491439 -0.003165
v    18.687788 141.245692 0.955482
v    16.912374 140.559313 3.421916
v    15.554746 140.074694 4.677603
v    13.840642 139.397353 6.276209
v    13.205261 139.165102 6.564670
v    10.426923 137.735433 7.866960
mtllib usm_21_Beer_2018-07-27_3.mtl
usemtl APPID_4100176752_2499637481856 
o vid_3 
f 3 2 1
f 4 5 6
f 1 6 5
f 1 5 3
f 3 5 4
f 4 2 3
f 2 4 6
f 6 1 2
usemtl APPID_4100174400_2499637487104 
o vid_4 
f 7 13 14
f 8 14 15
f 9 15 16
f 10 16 17
f 7 14 8
f 8 15 9
f 9 16 10
f 10 17 11
f 11 17 18
usemtl APPID_4100176752_2499637481856 
o vid_5 
f 21 20 19
f 22 23 24
f 19 24 23
f 19 23 21
f 21 23 22
f 22 20 21
f 20 22 24
f 24 19 20
usemtl APPID_4100174400_2499637487104 
o vid_6 
f 25 33 34
f 26 34 35
f 27 35 36
f 28 36 37
f 29 37 38
f 30 38 39
f 25 34 26
f 26 35 27
f 27 36 28
f 28 37 29
f 29 38 30
f 30 39 31
f 31 39 40
usemtl APPID_4100176752_2499637481856 
o vid_7 
f 43 42 41
f 44 45 46
f 41 46 45
f 41 45 43
f 43 45 44
f 44 42 43
f 42 44 46
f 46 41 42
usemtl APPID_4100174400_2499637487104 
o vid_8 
f 47 54 55
f 48 55 56
f 49 56 57
f 50 57 58
f 51 58 59
f 47 55 48
f 48 56 49
f 49 57 50
f 50 58 51
f 51 59 52
f 52 59 60
usemtl APPID_4100176752_2499637481856 
o vid_9 
f 63 62 61
f 64 65 66
f 61 66 65
f 61 65 63
f 63 65 64
f 64 62 63
f 62 64 66
f 66 61 62
usemtl APPID_4100174400_2499637487104 
o vid_10 
f 67 74 75
f 68 75 76
f 69 76 77
f 70 77 78
f 71 78 79
f 67 75 68
f 68 76 69
f 69 77 70
f 70 78 71
f 71 79 72
f 72 79 80
