# File generated by PlantGL - Fri Sep  4 14:44:12 2026
v    17.752484 298.905161 0.000000
v    22.071916 298.601013 0.000000
v    20.175600 302.493825 0.000000
v    22.247516 301.094839 0.362700
v    17.928084 301.398987 0.362700
v    19.824400 297.506175 0.362700
v    22.063627 301.445718 0.200499
v    22.311063 301.540055 0.446573
v    22.339703 301.550439 0.474837
v    22.410449 300.733751 0.200499
v    22.637257 300.870434 0.446573
v    22.663088 300.886584 0.474837
v    21.879284 301.505407 0.362700
v    17.756638 300.874804 0.362700
v    20.364078 297.619789 0.362700
v    18.120716 298.494593 0.589630
v    22.243362 299.125196 0.589630
v    19.635922 302.380211 0.589630
v    18.481086 298.071011 0.360907
v    18.193263 297.879824 0.681996
v    18.155270 297.855476 0.723861
v    17.786000 298.938726 0.360907
v    17.536602 298.699570 0.681996
v    17.504549 298.667807 0.723861
v    17.841416 299.161313 0.589630
v    21.805616 298.549955 0.589630
v    20.352968 302.288732 0.589630
v    22.158584 300.838687 1.053978
v    18.194384 301.450045 1.053978
v    19.647032 297.711268 1.053978
v    21.860201 301.543905 0.737721
v    22.284276 301.666552 1.147942
v    22.357739 301.686498 1.218567
v    22.414601 300.117009 0.737721
v    22.810238 300.312849 1.147942
v    22.877897 300.347734 1.218567
v    22.163962 300.511898 1.053978
v    18.474702 301.618097 1.053978
v    19.361335 297.870005 1.053978
v    17.836038 299.488102 1.829186
v    21.525298 298.381903 1.829186
v    20.638665 302.129995 1.829186
v    18.108706 298.469288 1.400401
v    17.337098 298.358008 2.124835
v    17.623337 300.521102 1.400401
v    16.883651 300.274877 2.124835
v    18.595695 298.396392 1.829186
v    22.090917 299.585640 1.829186
v    19.313387 302.017967 1.829186
v    21.404305 301.603608 2.769464
v    17.909083 300.414360 2.769464
v    20.686613 297.982033 2.769464
v    20.308624 302.508664 2.199416
v    21.071535 303.237423 3.179818
v    22.446013 300.636919 2.199416
v    23.067742 301.489313 3.179818
v    21.718982 301.097521 2.769464
v    18.190028 300.939922 2.769464
v    20.090990 297.962557 2.769464
v    18.281018 298.902479 5.235228
v    21.809972 299.060078 5.235228
v    19.909010 302.037443 5.235228
v    19.282446 297.433227 4.492119
v    18.573540 297.064907 5.234477
v    18.088177 296.822765 5.737706
v    17.369602 300.429202 4.492119
v    16.737165 299.941112 5.234477
v    16.313260 299.602713 5.737706
v    18.420020 298.861621 5.235228
v    21.775855 299.200887 5.235228
v    19.804125 301.937492 5.235228
v    21.579980 301.138379 9.070287
v    18.224145 300.799113 9.070287
v    20.195875 298.062508 9.070287
v    20.073406 303.112623 8.120413
v    22.692411 304.665845 10.949928
v    26.365822 306.830608 13.820352
v    28.540209 308.143540 14.634516
v    22.975797 299.084335 8.120413
v    25.278189 301.076991 10.949928
v    28.494445 303.876249 13.820352
v    30.428160 305.523214 14.634516
v    21.554633 301.012481 9.070287
v    18.345849 300.840111 9.070287
v    20.099518 298.147408 9.070287
v    18.445367 298.987519 15.537192
v    21.654151 299.159889 15.537192
v    19.900482 301.852592 15.537192
v    20.307633 296.284828 14.346637
v    16.937017 294.494720 17.893102
v    14.611563 293.228487 19.677656
v    12.227384 291.974808 21.490845
v    3.961184 287.500382 24.503696
v    16.726475 301.783585 14.346637
v    13.726332 299.424630 17.893102
v    11.627935 297.809756 19.677656
v    9.517275 296.136097 21.490845
v    2.082520 290.385013 24.503696
v    18.458123 299.144816 15.537192
v    21.511550 299.092287 15.537192
v    20.030327 301.762897 15.537192
v    21.541877 300.855184 23.570456
v    18.488450 300.907713 23.570456
v    19.969673 298.237103 23.570456
v    19.554181 304.222181 22.107253
v    23.842080 306.123391 26.465889
v    25.368055 306.819086 27.596180
v    29.846178 308.782648 30.887545
v    39.939277 313.353839 34.439053
v    42.074009 314.220307 35.174558
v    23.345682 297.386194 22.107253
v    27.228915 300.017009 26.465889
v    28.627074 300.943152 27.596180
v    32.663923 303.702321 30.887545
v    41.885946 309.844041 34.439053
v    43.751306 311.196179 35.174558
v    21.614895 300.429572 23.570456
v    18.820532 301.183754 23.570456
v    19.564573 298.386674 23.570456
v    18.385105 299.570428 38.883082
v    21.179468 298.816246 38.883082
v    20.435427 301.613326 38.883082
v    19.819289 294.671780 37.119765
v    14.249122 293.710282 42.372391
v    7.347128 292.444779 47.101633
v    -9.829052 289.350470 53.009750
v    -12.443899 288.867274 52.979366
v    -18.071853 288.046005 52.914615
v    17.195819 304.534220 37.119765
v    11.884116 302.601074 42.372391
v    5.265563 300.270028 47.101633
v    -11.177924 294.421299 53.009750
v    -13.687254 293.541432 52.979366
v    -18.979433 291.457878 52.914615
v    18.541706 299.394647 38.883082
v    21.253398 299.039757 38.883082
v    20.204896 301.565597 38.883082
v    21.458294 300.605353 56.198358
v    18.746602 300.960243 56.198358
v    19.795104 298.434403 56.198358
v    19.182638 305.696875 54.114697
v    25.554992 307.698909 60.321575
v    27.935103 308.473987 62.008597
v    34.476725 310.499688 66.618196
v    49.617418 315.388628 71.718022
v    53.157238 316.378374 72.891440
v    57.815194 317.709636 72.836287
v    23.457382 295.399024 54.114697
v    29.374232 298.498367 60.321575
v    31.603548 299.636710 62.008597
v    37.656667 302.839216 66.618196
v    51.808644 310.109968 71.718022
v    55.008768 311.918043 72.891440
v    59.240180 314.276849 72.836287
v    21.148136 300.944713 56.198358
v    18.607786 300.521958 56.198358
v    20.244078 298.533328 56.198358
v    18.851864 299.055287 79.438023
v    21.392214 299.478042 79.438023
v    19.755922 301.466672 79.438023
v    23.148989 294.105913 77.023703
v    16.758964 289.739428 84.215559
v    13.415351 287.403226 86.964604
v    7.822667 283.615222 91.511398
v    -8.427814 272.320927 97.854711
v    -10.871963 270.762292 98.780152
v    -17.659129 266.379094 98.688169
v    -18.434055 266.013533 98.678650
v    14.822670 304.225120 77.023703
v    9.307335 298.795599 84.215559
v    6.370955 295.964476 86.964604
v    1.576825 291.205968 91.511398
v    -12.635555 277.434711 97.854711
v    -14.635705 275.336473 98.780152
v    -20.243921 269.520463 98.688169
v    -20.751873 268.830442 98.678650
v    19.036323 298.991726 79.438023
v    21.355030 299.669568 79.438023
v    19.608648 301.338706 79.438023
v    20.963677 301.008274 104.080666
v    18.644970 300.330432 104.080666
v    20.391352 298.661294 104.080666
v    15.643693 305.820294 101.337617
v    22.260525 311.611490 109.508701
v    31.548315 319.695304 117.797927
v    45.358407 331.976758 123.721749
v    51.011557 336.615831 126.056380
v    54.828116 339.784609 125.999906
v    57.646599 341.552790 125.962938
v    26.011284 295.911272 101.337617
v    31.497424 302.783149 109.508701
v    39.153088 312.426897 117.797927
v    50.797657 326.778092 123.721749
v    55.176417 332.635187 126.056380
v    58.169416 336.591098 125.999906
v    59.808371 339.486636 125.962938
v    20.912312 300.929805 104.080666
v    18.738610 300.325183 104.080666
v    20.349079 298.745013 104.080666
v    19.087688 299.070195 126.066144
v    21.261390 299.674817 126.066144
v    19.650921 301.254987 126.066144
v    24.737685 293.834136 123.010214
v    18.889293 288.849430 130.151003
v    6.779497 278.647733 141.348035
v    -5.592830 267.932175 146.594388
v    -15.269595 260.201393 150.548470
v    -21.147856 256.453389 150.470628
v    13.745275 304.619736 123.010214
v    8.872534 298.677735 130.151003
v    -1.097349 286.376386 141.348035
v    -11.576014 273.802793 146.594388
v    -19.121633 263.980960 150.548470
v    -22.757329 258.032581 150.470628
v    19.267505 299.188397 126.066144
v    21.069116 299.771442 126.066144
v    19.663379 301.040160 126.066144
v    20.732495 300.811603 141.068083
v    18.930884 300.228558 141.068083
v    20.336621 298.959840 141.068083
v    14.808326 305.835206 137.729794
v    22.773873 313.004220 147.673998
v    33.806567 323.147467 157.761981
v    39.923542 328.908647 160.455387
v    50.979290 338.522707 165.132754
v    58.205612 343.225502 167.812512
v    58.252444 343.256781 167.811887
v    26.335225 295.431846 137.729794
v    32.652653 304.088336 147.673998
v    41.615289 316.099870 157.761981
v    46.721171 322.773591 160.455387
v    55.155035 334.753976 165.132754
v    59.094702 342.423073 167.812512
v    59.121032 342.472856 167.811887
v    20.819944 300.159621 141.068083
v    19.451792 300.630282 141.068083
v    19.728264 299.210097 141.068083
v    19.180056 299.840379 154.208305
v    20.548208 299.369718 154.208305
v    20.271736 300.789903 154.208305
v    21.091416 291.366738 150.632486
v    15.807727 290.819443 155.568623
v    9.670261 290.285381 161.284253
v    -6.304189 288.697070 172.090028
v    -20.579960 287.103956 176.694292
v    -36.233679 285.983671 181.704469
v    -39.929193 286.233088 182.855688
v    -48.324330 286.699100 182.762269
v    17.773121 308.412218 150.632486
v    12.669981 306.937478 155.568623
v    6.780377 305.130195 161.284253
v    -8.623321 300.610029 172.090028
v    -22.454190 296.731540 176.694292
v    -37.385008 291.897841 181.704469
v    -40.717085 290.280343 182.855688
v    -48.324330 286.699100 182.762269
v    19.532400 299.614245 154.208305
v    20.567874 299.787924 154.208305
v    19.899726 300.597831 154.208305
v    20.467600 300.385755 161.517678
v    19.432126 300.212076 161.517678
v    20.100274 299.402169 161.517678
v    14.882899 306.731262 157.761915
v    24.941126 313.383243 168.949703
v    38.889297 322.856555 180.299250
v    43.543091 326.099828 182.117457
v    57.429831 334.980384 187.379759
v    68.631342 340.119305 191.210207
v    25.635943 293.696765 157.761915
v    34.078436 302.307288 168.949703
v    46.030191 314.200590 180.299250
v    50.098891 318.153096 182.117457
v    61.457021 330.098752 187.379759
v    68.631342 340.119305 191.210207
v    20.324504 300.243680 161.517678
v    19.626715 300.159189 161.517678
v    20.048781 299.597132 161.517678
v    19.675496 299.756320 166.086170
v    20.373285 299.840811 166.086170
v    19.951219 300.402868 166.086170
v    24.490436 293.807231 162.218123
v    13.829442 287.436608 173.740386
v    4.340997 281.607036 181.236394
v    -1.137934 278.574846 185.429244
v    -9.624122 273.679028 188.556955
v    -21.390186 268.918847 192.501920
v    15.305071 306.039209 162.218123
v    6.214261 297.577600 173.740386
v    -2.029985 290.091154 181.236394
v    -6.469734 285.675104 185.429244
v    -13.537780 278.890773 188.556955
v    -21.390186 268.918847 192.501920
v    19.808154 299.865630 166.086170
v    20.212291 299.901041 166.086170
v    19.979556 300.233328 166.086170
v    20.191846 300.134370 167.011000
v    19.787709 300.098959 167.011000
v    20.020444 299.766672 167.011000
v    18.875301 305.434854 159.894545
v    21.677428 305.192755 175.368463
v    22.047562 305.009262 176.788653
v    26.482226 304.540169 187.868447
v    24.723186 297.085536 159.894545
v    25.453360 299.801668 175.368463
v    25.407419 300.212227 176.788653
v    26.482226 304.540169 187.868447
v    22.339703 301.550439 0.474837
v    22.551314 301.627163 0.683668
v    23.232781 301.883775 1.173822
v    23.868664 302.131998 1.392623
v    24.541555 302.364344 1.619887
v    25.081189 302.475214 1.657547
v    22.663088 300.886584 0.474837
v    22.853944 301.005915 0.683668
v    23.476077 301.384330 1.173822
v    24.063506 301.732022 1.392623
v    24.661245 302.118641 1.619887
v    25.081189 302.475214 1.657547
v    18.155270 297.855476 0.723861
v    17.866344 297.670319 1.042236
v    17.008691 297.105691 1.733416
v    16.241188 296.587067 2.030326
v    15.387796 296.058479 2.350796
v    15.178131 295.965921 2.422030
v    14.681388 295.739509 2.415964
v    17.504549 298.667807 0.723861
v    17.260795 298.426259 1.042236
v    16.522589 297.712520 1.733416
v    15.848954 297.076716 2.030326
v    15.146848 296.359267 2.350796
v    15.010761 296.174859 2.422030
v    14.681388 295.739509 2.415964
v    22.357739 301.686498 1.218567
v    22.837513 301.816759 1.679797
v    24.203026 302.205605 2.635494
v    25.385254 302.557692 3.030886
v    26.730192 302.900769 3.474002
v    27.093574 302.941244 3.587643
v    27.792069 303.027498 3.579824
v    22.877897 300.347734 1.218567
v    23.319763 300.575563 1.679797
v    24.589603 301.210646 2.635494
v    25.699420 301.749101 3.030886
v    26.923182 302.404056 3.474002
v    27.218569 302.619537 3.587643
v    27.792069 303.027498 3.579824
v    17.337098 298.358008 2.124835
v    16.746009 298.282576 2.677680
v    14.839626 298.015635 3.973428
v    12.948032 297.727516 4.586739
v    11.077833 297.518192 5.187522
v    9.616413 297.543702 5.250871
v    16.883651 300.274877 2.124835
v    16.321413 300.077483 2.677680
v    14.497481 299.461996 3.973428
v    12.677281 298.872068 4.586739
v    10.911512 298.221284 5.187522
v    9.616413 297.543702 5.250871
v    21.071535 303.237423 3.179818
v    21.637099 303.764673 3.897492
v    23.494897 305.524754 5.620119
v    25.520032 307.490148 6.524678
v    27.383119 309.159934 7.323387
v    28.994094 310.270562 7.315074
v    23.067742 301.489313 3.179818
v    23.515763 302.119498 3.897492
v    25.015339 304.193280 5.620119
v    26.696355 306.460023 6.524678
v    28.105727 308.527134 7.323387
v    28.994094 310.270562 7.315074
v    18.088177 296.822765 5.737706
v    17.154533 296.356980 6.705718
v    14.187856 294.831067 8.951322
v    11.900607 293.619595 9.780951
v    8.960216 292.208625 10.822142
v    7.836895 291.850564 11.188590
v    6.585292 291.435092 11.173938
v    16.313260 299.602713 5.737706
v    15.497836 298.951767 6.705718
v    12.865194 296.902675 8.951322
v    10.803708 295.337603 9.780951
v    8.286397 293.263987 10.822142
v    7.488876 292.395645 11.188590
v    6.585292 291.435092 11.173938
v    28.540209 308.143540 14.634516
v    31.836663 310.133995 15.868820
v    34.062548 311.360225 16.680121
v    35.554129 312.193129 16.660671
v    38.589134 313.393515 16.624409
v    30.428160 305.523214 14.634516
v    33.359746 308.020077 15.868820
v    35.227519 309.743337 16.680121
v    36.489751 310.894561 16.660671
v    38.589134 313.393515 16.624409
v    3.961184 287.500382 24.503696
v    3.001877 286.981118 24.853342
v    2.377994 286.674775 25.075231
v    -1.878191 284.554466 25.021095
v    -4.803914 283.553824 24.986740
v    -5.735634 283.239239 24.812542
v    2.082520 290.385013 24.503696
v    1.219704 289.717590 24.853342
v    0.687256 289.270852 25.075231
v    -2.972970 286.235466 25.021095
v    -5.071173 283.964193 24.986740
v    -5.735634 283.239239 24.812542
v    42.074009 314.220307 35.174558
v    46.053463 315.859905 35.248001
v    50.913761 317.145963 35.192142
v    43.751306 311.196179 35.174558
v    47.249290 313.703856 35.248001
v    50.913761 317.145963 35.192142
v    -18.071853 288.046005 52.914615
v    -20.481986 287.694302 52.886886
v    -21.219773 287.685253 52.878688
v    -25.441222 287.650041 52.130877
v    -26.432246 287.648736 51.836124
v    -18.979433 291.457878 52.914615
v    -21.245772 290.565611 52.886886
v    -21.890544 290.206891 52.878688
v    -25.571554 288.140000 52.130877
v    -26.432246 287.648736 51.836124
v    57.815194 317.709636 72.836287
v    58.677103 317.955973 72.826082
v    65.760666 318.995727 72.746536
v    59.240180 314.276849 72.836287
v    60.023161 314.713323 72.826082
v    65.760666 318.995727 72.746536
v    -18.434055 266.013533 98.678650
v    -24.779024 263.020378 98.600702
v    -25.156680 262.844032 98.526871
v    -20.751873 268.830442 98.678650
v    -24.910906 263.180659 98.600702
v    -25.156680 262.844032 98.526871
v    57.646599 341.552790 125.962938
v    62.812154 344.793412 125.895186
v    59.808371 339.486636 125.962938
v    62.812154 344.793412 125.895186
v    -21.147856 256.453389 150.470628
v    -25.074565 254.061151 150.419541
v    -22.757329 258.032581 150.470628
v    -25.074565 254.061151 150.419541
v    58.252444 343.256781 167.811887
v    60.236514 344.581967 167.785377
v    59.121032 342.472856 167.811887
v    60.236514 344.581967 167.785377
mtllib usm_17_2.5D_2018-09-09_7.mtl
usemtl APPID_1920812128_2183767557728 
o vid_3 
f 3 2 1
f 4 5 6
f 1 6 5
f 1 5 3
f 3 5 4
f 4 2 3
f 2 4 6
f 6 1 2
usemtl APPID_1920816608_2183767557088 
o vid_4 
f 7 10 11
f 7 11 8
f 8 11 12
f 8 12 9
usemtl APPID_1920812128_2183767557728 
o vid_5 
f 15 14 13
f 16 17 18
f 13 18 17
f 13 17 15
f 15 17 16
f 16 14 15
f 14 16 18
f 18 13 14
usemtl APPID_1920816608_2183767557088 
o vid_6 
f 19 22 23
f 19 23 20
f 20 23 24
f 20 24 21
usemtl APPID_1920812128_2183767557728 
o vid_7 
f 27 26 25
f 28 29 30
f 25 30 29
f 25 29 27
f 27 29 28
f 28 26 27
f 26 28 30
f 30 25 26
usemtl APPID_1920816608_2183767557088 
o vid_8 
f 31 34 35
f 31 35 32
f 32 35 36
f 32 36 33
usemtl APPID_1920812128_2183767557728 
o vid_9 
f 39 38 37
f 40 41 42
f 37 42 41
f 37 41 39
f 39 41 40
f 40 38 39
f 38 40 42
f 42 37 38
usemtl APPID_1920816608_2183767557088 
o vid_10 
f 43 45 46
f 43 46 44
f 43 45 46
f 43 46 44
usemtl APPID_1920812128_2183767557728 
o vid_11 
f 49 48 47
f 50 51 52
f 47 52 51
f 47 51 49
f 49 51 50
f 50 48 49
f 48 50 52
f 52 47 48
usemtl APPID_1920816608_2183767557088 
o vid_12 
f 53 55 56
f 53 56 54
f 53 55 56
f 53 56 54
usemtl APPID_1920812128_2183767557728 
o vid_13 
f 59 58 57
f 60 61 62
f 57 62 61
f 57 61 59
f 59 61 60
f 60 58 59
f 58 60 62
f 62 57 58
usemtl APPID_1920816608_2183767557088 
o vid_14 
f 63 66 67
f 63 67 64
f 64 67 68
f 64 68 65
usemtl APPID_1920812128_2183767557728 
o vid_15 
f 71 70 69
f 72 73 74
f 69 74 73
f 69 73 71
f 71 73 72
f 72 70 71
f 70 72 74
f 74 69 70
usemtl APPID_1920816608_2183767557088 
o vid_16 
f 75 79 80
f 76 80 81
f 75 80 76
f 76 81 77
f 77 81 82
f 77 82 78
usemtl APPID_1920812128_2183767557728 
o vid_17 
f 85 84 83
f 86 87 88
f 83 88 87
f 83 87 85
f 85 87 86
f 86 84 85
f 84 86 88
f 88 83 84
usemtl APPID_1920816608_2183767557088 
o vid_18 
f 89 94 95
f 90 95 96
f 91 96 97
f 89 95 90
f 90 96 91
f 91 97 92
f 92 97 98
f 92 98 93
usemtl APPID_1920812128_2183767557728 
o vid_19 
f 101 100 99
f 102 103 104
f 99 104 103
f 99 103 101
f 101 103 102
f 102 100 101
f 100 102 104
f 104 99 100
usemtl APPID_1920816608_2183767557088 
o vid_20 
f 105 111 112
f 106 112 113
f 107 113 114
f 108 114 115
f 105 112 106
f 106 113 107
f 107 114 108
f 108 115 109
f 109 115 116
f 109 116 110
usemtl APPID_1920812128_2183767557728 
o vid_21 
f 119 118 117
f 120 121 122
f 117 122 121
f 117 121 119
f 119 121 120
f 120 118 119
f 118 120 122
f 122 117 118
usemtl APPID_1920816608_2183767557088 
o vid_22 
f 123 129 130
f 124 130 131
f 125 131 132
f 126 132 133
f 123 130 124
f 124 131 125
f 125 132 126
f 126 133 127
f 127 133 134
f 127 134 128
usemtl APPID_1920812128_2183767557728 
o vid_23 
f 137 136 135
f 138 139 140
f 135 140 139
f 135 139 137
f 137 139 138
f 138 136 137
f 136 138 140
f 140 135 136
usemtl APPID_1920816608_2183767557088 
o vid_24 
f 141 148 149
f 142 149 150
f 143 150 151
f 144 151 152
f 145 152 153
f 141 149 142
f 142 150 143
f 143 151 144
f 144 152 145
f 145 153 146
f 146 153 154
f 146 154 147
usemtl APPID_1920812128_2183767557728 
o vid_25 
f 157 156 155
f 158 159 160
f 155 160 159
f 155 159 157
f 157 159 158
f 158 156 157
f 156 158 160
f 160 155 156
usemtl APPID_1920816608_2183767557088 
o vid_26 
f 161 169 170
f 162 170 171
f 163 171 172
f 164 172 173
f 165 173 174
f 166 174 175
f 161 170 162
f 162 171 163
f 163 172 164
f 164 173 165
f 165 174 166
f 166 175 167
f 167 175 176
f 167 176 168
usemtl APPID_1920812128_2183767557728 
o vid_27 
f 179 178 177
f 180 181 182
f 177 182 181
f 177 181 179
f 179 181 180
f 180 178 179
f 178 180 182
f 182 177 178
usemtl APPID_1920816608_2183767557088 
o vid_28 
f 183 190 191
f 184 191 192
f 185 192 193
f 186 193 194
f 187 194 195
f 183 191 184
f 184 192 185
f 185 193 186
f 186 194 187
f 187 195 188
f 188 195 196
f 188 196 189
usemtl APPID_1920812128_2183767557728 
o vid_29 
f 199 198 197
f 200 201 202
f 197 202 201
f 197 201 199
f 199 201 200
f 200 198 199
f 198 200 202
f 202 197 198
usemtl APPID_1920816608_2183767557088 
o vid_30 
f 203 209 210
f 204 210 211
f 205 211 212
f 206 212 213
f 203 210 204
f 204 211 205
f 205 212 206
f 206 213 207
f 207 213 214
f 207 214 208
usemtl APPID_1920812128_2183767557728 
o vid_31 
f 217 216 215
f 218 219 220
f 215 220 219
f 215 219 217
f 217 219 218
f 218 216 217
f 216 218 220
f 220 215 216
usemtl APPID_1920816608_2183767557088 
o vid_32 
f 221 228 229
f 222 229 230
f 223 230 231
f 224 231 232
f 225 232 233
f 221 229 222
f 222 230 223
f 223 231 224
f 224 232 225
f 225 233 226
f 226 233 234
f 226 234 227
usemtl APPID_1920812128_2183767557728 
o vid_33 
f 237 236 235
f 238 239 240
f 235 240 239
f 235 239 237
f 237 239 238
f 238 236 237
f 236 238 240
f 240 235 236
usemtl APPID_1920816608_2183767557088 
o vid_34 
f 241 249 250
f 242 250 251
f 243 251 252
f 244 252 253
f 245 253 254
f 246 254 255
f 241 250 242
f 242 251 243
f 243 252 244
f 244 253 245
f 245 254 246
f 246 255 247
f 247 255 256
usemtl APPID_1920812128_2183767557728 
o vid_35 
f 259 258 257
f 260 261 262
f 257 262 261
f 257 261 259
f 259 261 260
f 260 258 259
f 258 260 262
f 262 257 258
usemtl APPID_1920816608_2183767557088 
o vid_36 
f 263 269 270
f 264 270 271
f 265 271 272
f 266 272 273
f 263 270 264
f 264 271 265
f 265 272 266
f 266 273 267
f 267 273 274
usemtl APPID_1920812128_2183767557728 
o vid_37 
f 277 276 275
f 278 279 280
f 275 280 279
f 275 279 277
f 277 279 278
f 278 276 277
f 276 278 280
f 280 275 276
usemtl APPID_1920816608_2183767557088 
o vid_38 
f 281 287 288
f 282 288 289
f 283 289 290
f 284 290 291
f 281 288 282
f 282 289 283
f 283 290 284
f 284 291 285
f 285 291 292
usemtl APPID_1920812128_2183767557728 
o vid_39 
f 295 294 293
f 296 297 298
f 293 298 297
f 293 297 295
f 295 297 296
f 296 294 295
f 294 296 298
f 298 293 294
usemtl APPID_1920816608_2183767557088 
o vid_40 
f 299 303 304
f 300 304 305
f 299 304 300
f 300 305 301
f 301 305 306
usemtl APPID_1920822992_2183767557216 
o vid_10000004 
f 307 313 314
f 308 314 315
f 309 315 316
f 310 316 317
f 307 314 308
f 308 315 309
f 309 316 310
f 310 317 311
f 311 317 318
usemtl APPID_1920822992_2183767557216 
o vid_10000006 
f 319 326 327
f 320 327 328
f 321 328 329
f 322 329 330
f 323 330 331
f 319 327 320
f 320 328 321
f 321 329 322
f 322 330 323
f 323 331 324
f 324 331 332
usemtl APPID_1920822992_2183767557216 
o vid_10000008 
f 333 340 341
f 334 341 342
f 335 342 343
f 336 343 344
f 337 344 345
f 333 341 334
f 334 342 335
f 335 343 336
f 336 344 337
f 337 345 338
f 338 345 346
usemtl APPID_1920822992_2183767557216 
o vid_10000010 
f 347 353 354
f 348 354 355
f 349 355 356
f 350 356 357
f 347 354 348
f 348 355 349
f 349 356 350
f 350 357 351
f 351 357 358
usemtl APPID_1920822992_2183767557216 
o vid_10000012 
f 359 365 366
f 360 366 367
f 361 367 368
f 362 368 369
f 359 366 360
f 360 367 361
f 361 368 362
f 362 369 363
f 363 369 370
usemtl APPID_1920822992_2183767557216 
o vid_10000014 
f 371 378 379
f 372 379 380
f 373 380 381
f 374 381 382
f 375 382 383
f 371 379 372
f 372 380 373
f 373 381 374
f 374 382 375
f 375 383 376
f 376 383 384
usemtl APPID_1920822992_2183767557216 
o vid_10000016 
f 385 390 391
f 386 391 392
f 387 392 393
f 385 391 386
f 386 392 387
f 387 393 388
f 388 393 394
usemtl APPID_1920822992_2183767557216 
o vid_10000018 
f 395 401 402
f 396 402 403
f 397 403 404
f 398 404 405
f 395 402 396
f 396 403 397
f 397 404 398
f 398 405 399
f 399 405 406
usemtl APPID_1920822992_2183767557216 
o vid_10000020 
f 407 410 411
f 407 411 408
f 408 411 412
usemtl APPID_1920822992_2183767557216 
o vid_10000022 
f 413 418 419
f 414 419 420
f 415 420 421
f 413 419 414
f 414 420 415
f 415 421 416
f 416 421 422
usemtl APPID_1920822992_2183767557216 
o vid_10000024 
f 423 426 427
f 423 427 424
f 424 427 428
usemtl APPID_1920822992_2183767557216 
o vid_10000026 
f 429 432 433
f 429 433 430
f 430 433 434
usemtl APPID_1920822992_2183767557216 
o vid_10000028 
f 435 437 438
f 435 438 436
f 435 437 438
usemtl APPID_1920822992_2183767557216 
o vid_10000030 
f 439 441 442
f 439 442 440
f 439 441 442
usemtl APPID_1920822992_2183767557216 
o vid_10000032 
f 443 445 446
f 443 446 444
f 443 445 446
