# File generated by PlantGL - Fri Sep  4 14:42:50 2026
v    18.201987 99.124129 0.000000
v    21.657533 98.880811 0.000000
v    20.140480 101.995060 0.000000
v    21.798013 100.875871 0.331061
v    18.342467 101.119189 0.331061
v    19.859520 98.004940 0.331061
v    21.382982 101.452794 -0.085391
v    22.236258 101.776914 0.779475
v    22.583742 101.899267 1.127663
v    23.811348 102.354260 1.948318
v    24.970505 102.762595 2.330137
v    26.279004 103.058709 2.660905
v    21.996455 100.193440 -0.085391
v    22.777651 100.665526 0.779475
v    23.088192 100.863717 1.127663
v    24.203187 101.549882 1.948318
v    25.239248 102.210911 2.330137
v    26.279004 103.058709 2.660905
v    21.279475 101.024927 0.331061
v    18.472649 100.595594 0.331061
v    20.247876 98.379479 0.331061
v    18.720525 98.975073 0.718770
v    21.527351 99.404406 0.718770
v    19.752124 101.620521 0.718770
v    19.508626 98.256678 0.145052
v    18.038316 97.282623 1.816194
v    17.580136 96.970492 2.164350
v    16.310361 96.143975 3.114048
v    15.473061 95.584010 3.368216
v    14.009096 94.659370 3.803994
v    13.435177 94.385924 3.960734
v    12.332209 93.857691 3.707941
v    18.191461 99.900969 0.145052
v    16.919981 98.678704 1.816194
v    16.515373 98.299695 2.164350
v    15.431642 97.240930 3.114048
v    14.702429 96.546033 3.368216
v    13.480556 95.319175 3.803994
v    13.088440 94.818776 3.960734
v    12.332209 93.857691 3.707941
v    18.800110 99.533800 0.718770
v    21.003686 99.193965 0.718770
v    20.196204 101.272236 0.718770
v    21.199890 100.466200 1.487000
v    18.996314 100.806035 1.487000
v    19.803796 98.727764 1.487000
v    20.463996 101.743764 0.715164
v    22.744126 102.400171 2.963392
v    23.955883 102.766036 3.758296
v    25.417373 103.174012 4.709428
v    27.290081 103.721983 5.201779
v    29.542118 104.317537 5.788042
v    32.022793 104.671286 5.381212
v    21.519584 99.026928 0.715164
v    23.644763 100.082141 2.963392
v    24.785667 100.630369 3.758296
v    26.139223 101.316139 4.709428
v    27.890644 102.176273 5.201779
v    29.954015 103.257410 5.788042
v    32.022793 104.671286 5.381212
v    20.932427 100.220571 1.487000
v    19.342766 100.697220 1.487000
v    19.724807 99.082209 1.487000
v    19.067573 99.779429 2.857581
v    20.657234 99.302780 2.857581
v    20.275193 100.917791 2.857581
v    19.804920 97.936549 1.843562
v    16.719059 97.495376 4.797229
v    14.456013 97.141937 6.235632
v    13.103441 96.959707 7.091127
v    9.855627 96.480923 7.919499
v    7.220144 96.162512 8.587605
v    3.518998 96.101324 7.820189
v    18.901088 101.757350 1.843562
v    15.944623 100.769175 4.797229
v    13.763075 100.071220 6.235632
v    12.472210 99.628130 7.091127
v    9.354106 98.601019 7.919499
v    6.855288 97.704882 8.587605
v    3.518998 96.101324 7.820189
v    19.570441 99.509477 2.857581
v    20.639585 99.873253 2.857581
v    19.789974 100.617271 2.857581
v    20.429559 100.490523 4.095000
v    19.360415 100.126747 4.095000
v    20.210026 99.382729 4.095000
v    18.416243 101.548468 1.448572
v    20.317487 103.293505 4.873870
v    20.875121 103.775881 5.848933
v    23.738949 106.390901 9.294973
v    26.455970 108.827124 11.012214
v    29.666232 111.059362 12.686279
v    29.717276 111.096380 12.683716
v    21.743891 98.634393 1.448572
v    23.222823 100.749256 4.873870
v    23.627408 101.365659 5.848933
v    25.841714 104.549477 9.294973
v    27.898155 107.564180 11.012214
v    29.687316 111.040898 12.686279
v    29.717276 111.096380 12.683716
mtllib usm_21_2.5D_2018-08-02_2.mtl
usemtl APPID_4263947040_2499637615104 
o vid_3 
f 3 2 1
f 4 5 6
f 1 6 5
f 1 5 3
f 3 5 4
f 4 2 3
f 2 4 6
f 6 1 2
usemtl APPID_4263946032_2499637617408 
o vid_4 
f 7 13 14
f 8 14 15
f 9 15 16
f 10 16 17
f 7 14 8
f 8 15 9
f 9 16 10
f 10 17 11
f 11 17 18
usemtl APPID_4263947040_2499637615104 
o vid_5 
f 21 20 19
f 22 23 24
f 19 24 23
f 19 23 21
f 21 23 22
f 22 20 21
f 20 22 24
f 24 19 20
usemtl APPID_4263946032_2499637617408 
o vid_6 
f 25 33 34
f 26 34 35
f 27 35 36
f 28 36 37
f 29 37 38
f 30 38 39
f 25 34 26
f 26 35 27
f 27 36 28
f 28 37 29
f 29 38 30
f 30 39 31
f 31 39 40
usemtl APPID_4263947040_2499637615104 
o vid_7 
f 43 42 41
f 44 45 46
f 41 46 45
f 41 45 43
f 43 45 44
f 44 42 43
f 42 44 46
f 46 41 42
usemtl APPID_4263946032_2499637617408 
o vid_8 
f 47 54 55
f 48 55 56
f 49 56 57
f 50 57 58
f 51 58 59
f 47 55 48
f 48 56 49
f 49 57 50
f 50 58 51
f 51 59 52
f 52 59 60
usemtl APPID_4263947040_2499637615104 
o vid_9 
f 63 62 61
f 64 65 66
f 61 66 65
f 61 65 63
f 63 65 64
f 64 62 63
f 62 64 66
f 66 61 62
usemtl APPID_4263946032_2499637617408 
o vid_10 
f 67 74 75
f 68 75 76
f 69 76 77
f 70 77 78
f 71 78 79
f 67 75 68
f 68 76 69
f 69 77 70
f 70 78 71
f 71 79 72
f 72 79 80
usemtl APPID_4263947040_2499637615104 
o vid_11 
f 83 82 81
f 84 85 86
f 81 86 85
f 81 85 83
f 83 85 84
f 84 82 83
f 82 84 86
f 86 81 82
usemtl APPID_4263946032_2499637617408 
o vid_12 
f 87 94 95
f 88 95 96
f 89 96 97
f 90 97 98
f 91 98 99
f 87 95 88
f 88 96 89
f 89 97 90
f 90 98 91
f 91 99 92
f 92 99 100
