# File generated by PlantGL - Fri Sep  4 14:43:03 2026
v    257.752484 18.905161 0.000000
v    262.071916 18.601013 0.000000
v    260.175600 22.493825 0.000000
v    262.247516 21.094839 0.848509
v    257.928084 21.398987 0.848509
v    259.824400 17.506175 0.848509
v    262.077324 21.422976 0.719073
v    262.465027 21.570791 1.104642
v    262.884762 21.735842 1.408614
v    264.138488 22.223574 1.885477
v    264.810628 22.464714 1.877342
v    265.241600 22.553355 1.821596
v    262.400985 20.758555 0.719073
v    262.756366 20.972721 1.104642
v    263.145065 21.201484 1.408614
v    264.301940 21.888035 1.885477
v    264.906141 22.268643 1.877342
v    265.241600 22.553355 1.821596
v    261.879284 21.505407 0.848509
v    257.756638 20.874804 0.848509
v    260.364078 17.619789 0.848509
v    258.120716 18.494593 1.417165
v    262.243362 19.125196 1.417165
v    259.635922 22.380211 1.417165
v    258.469594 18.080604 1.229801
v    257.969290 17.748277 1.787927
v    257.362798 17.336253 2.282085
v    255.815243 16.292079 2.918217
v    255.594112 16.141403 2.915160
v    254.862945 15.682692 2.905333
v    254.368704 15.459353 2.824831
v    254.285900 15.422701 2.797899
v    257.792854 18.925417 1.229801
v    257.359343 18.509709 1.787927
v    256.824879 18.007767 2.282085
v    255.468111 16.725424 2.918217
v    255.272804 16.542510 2.915160
v    254.665568 15.929089 2.905333
v    254.339741 15.495509 2.824831
v    254.285900 15.422701 2.797899
v    257.902384 19.185001 1.417165
v    261.754618 18.590910 1.417165
v    260.342998 22.224089 1.417165
v    262.097616 20.814999 2.253766
v    258.245382 21.409090 2.253766
v    259.657002 17.775911 2.253766
v    261.827775 21.456819 1.988221
v    262.645503 21.693316 2.779235
v    263.791345 22.021638 3.581686
v    265.531341 22.539837 4.163621
v    266.191606 22.708262 4.381158
v    266.683177 22.836666 4.375374
v    267.588713 22.948487 4.365236
v    262.331886 20.159358 1.988221
v    263.094777 20.536989 2.779235
v    264.161708 21.068409 3.581686
v    265.795131 21.860904 4.163621
v    266.395907 22.182438 4.381158
v    266.845222 22.419602 4.375374
v    267.588713 22.948487 4.365236
v    261.764724 20.417456 2.253766
v    258.756111 21.319568 2.253766
v    259.479165 18.262977 2.253766
v    258.235276 19.582544 4.112548
v    261.243889 18.680432 4.112548
v    260.520835 21.737023 4.112548
v    258.487773 18.630177 3.744070
v    257.318666 18.461569 4.841703
v    256.893330 18.395702 5.131781
v    255.681857 18.226066 5.955206
v    252.914234 17.804515 6.852552
v    252.254222 17.730642 7.064575
v    251.260700 17.613661 7.053186
v    249.994761 17.633203 7.039119
v    258.034313 20.547102 3.744070
v    256.913572 20.174033 4.841703
v    256.503805 20.042352 5.131781
v    255.344728 19.651221 5.955206
v    252.681564 18.788088 6.852552
v    252.058406 18.558419 7.064575
v    251.117772 18.217864 7.053186
v    249.994761 17.633203 7.039119
v    259.074204 18.942812 4.112548
v    261.378449 19.726831 4.112548
v    259.547347 21.330357 4.112548
v    260.925796 21.057188 5.999272
v    258.621551 20.273169 5.999272
v    260.452653 18.669643 5.999272
v    259.855461 21.946680 5.498656
v    261.015896 23.055167 6.989908
v    261.918506 23.935518 7.839670
v    262.633585 24.612985 8.502721
v    265.920640 27.803073 9.970938
v    267.625161 29.347538 9.985121
v    268.544788 29.981887 9.972708
v    269.034837 30.317087 9.867536
v    261.948732 20.113570 5.498656
v    262.894421 21.410113 6.989908
v    263.647986 22.420986 7.839670
v    264.225182 23.219198 8.502721
v    266.953688 26.898417 9.970938
v    268.259756 28.791813 9.985121
v    268.767224 29.787096 9.972708
v    269.034837 30.317087 9.867536
v    260.864658 20.552060 5.999272
v    259.089573 20.472786 5.999272
v    260.045769 18.975154 5.999272
v    259.135342 19.447940 11.505015
v    260.910427 19.527214 11.505015
v    259.954231 21.024846 11.505015
v    260.108677 18.012382 10.839099
v    258.214410 17.028195 12.822753
v    255.557397 15.658457 14.835088
v    251.683596 13.606647 16.240189
v    249.989825 12.793877 16.839953
v    249.004651 12.314155 16.827478
v    246.833079 11.593297 16.802055
v    258.242669 20.935000 10.839099
v    256.552736 19.630777 12.822753
v    254.192078 17.796875 14.835088
v    250.700641 15.146191 16.240189
v    249.250579 13.951713 16.839953
v    248.400828 13.259888 16.827478
v    246.833079 11.593297 16.802055
v    259.452133 19.605260 11.505015
v    260.615788 19.722903 11.505015
v    259.932079 20.671837 11.505015
v    260.547867 20.394740 13.474000
v    259.384212 20.277097 13.474000
v    260.067921 19.328163 13.474000
v    259.736479 21.814256 11.769244
v    261.316046 22.591023 15.135245
v    262.288429 23.114844 16.629937
v    263.834764 23.826320 18.909911
v    264.647154 24.248857 19.606128
v    266.933077 24.995298 21.366413
v    261.637543 19.175730 11.769244
v    262.874376 20.428186 15.135245
v    263.679067 21.184750 16.629937
v    264.843446 22.426351 18.909911
v    265.501414 23.063211 19.606128
v    266.933077 24.995298 21.366413
mtllib usm_32_2.5D_2018-07-21_6.mtl
usemtl APPID_3467394560_2121046627424 
o vid_3 
f 3 2 1
f 4 5 6
f 1 6 5
f 1 5 3
f 3 5 4
f 4 2 3
f 2 4 6
f 6 1 2
usemtl APPID_3467394224_2121046626784 
o vid_4 
f 7 13 14
f 8 14 15
f 9 15 16
f 10 16 17
f 7 14 8
f 8 15 9
f 9 16 10
f 10 17 11
f 11 17 18
usemtl APPID_3467394560_2121046627424 
o vid_5 
f 21 20 19
f 22 23 24
f 19 24 23
f 19 23 21
f 21 23 22
f 22 20 21
f 20 22 24
f 24 19 20
usemtl APPID_3467394224_2121046626784 
o vid_6 
f 25 33 34
f 26 34 35
f 27 35 36
f 28 36 37
f 29 37 38
f 30 38 39
f 25 34 26
f 26 35 27
f 27 36 28
f 28 37 29
f 29 38 30
f 30 39 31
f 31 39 40
usemtl APPID_3467394560_2121046627424 
o vid_7 
f 43 42 41
f 44 45 46
f 41 46 45
f 41 45 43
f 43 45 44
f 44 42 43
f 42 44 46
f 46 41 42
usemtl APPID_3467394224_2121046626784 
o vid_8 
f 47 54 55
f 48 55 56
f 49 56 57
f 50 57 58
f 51 58 59
f 47 55 48
f 48 56 49
f 49 57 50
f 50 58 51
f 51 59 52
f 52 59 60
usemtl APPID_3467394560_2121046627424 
o vid_9 
f 63 62 61
f 64 65 66
f 61 66 65
f 61 65 63
f 63 65 64
f 64 62 63
f 62 64 66
f 66 61 62
usemtl APPID_3467394224_2121046626784 
o vid_10 
f 67 75 76
f 68 76 77
f 69 77 78
f 70 78 79
f 71 79 80
f 72 80 81
f 67 76 68
f 68 77 69
f 69 78 70
f 70 79 71
f 71 80 72
f 72 81 73
f 73 81 82
usemtl APPID_3467394560_2121046627424 
o vid_11 
f 85 84 83
f 86 87 88
f 83 88 87
f 83 87 85
f 85 87 86
f 86 84 85
f 84 86 88
f 88 83 84
usemtl APPID_3467394224_2121046626784 
o vid_12 
f 89 97 98
f 90 98 99
f 91 99 100
f 92 100 101
f 93 101 102
f 94 102 103
f 89 98 90
f 90 99 91
f 91 100 92
f 92 101 93
f 93 102 94
f 94 103 95
f 95 103 104
usemtl APPID_3467394560_2121046627424 
o vid_13 
f 107 106 105
f 108 109 110
f 105 110 109
f 105 109 107
f 107 109 108
f 108 106 107
f 106 108 110
f 110 105 106
usemtl APPID_3467394224_2121046626784 
o vid_14 
f 111 118 119
f 112 119 120
f 113 120 121
f 114 121 122
f 115 122 123
f 111 119 112
f 112 120 113
f 113 121 114
f 114 122 115
f 115 123 116
f 116 123 124
usemtl APPID_3467394560_2121046627424 
o vid_15 
f 127 126 125
f 128 129 130
f 125 130 129
f 125 129 127
f 127 129 128
f 128 126 127
f 126 128 130
f 130 125 126
usemtl APPID_3467394224_2121046626784 
o vid_16 
f 131 137 138
f 132 138 139
f 133 139 140
f 134 140 141
f 131 138 132
f 132 139 133
f 133 140 134
f 134 141 135
f 135 141 142
