# File generated by PlantGL - Fri Sep  4 14:42:14 2026
v    18.201987 219.124129 0.000000
v    21.657533 218.880811 0.000000
v    20.140480 221.995060 0.000000
v    21.798013 220.875871 0.231332
v    18.342467 221.119189 0.231332
v    19.859520 218.004940 0.231332
v    21.488153 221.266372 -0.140491
v    22.207628 221.519709 0.580440
v    22.574910 221.634879 0.942568
v    23.080185 221.805184 1.275665
v    23.900367 221.963241 1.783702
v    24.142838 222.018112 1.844995
v    21.914494 220.391169 -0.140491
v    22.557476 220.801530 0.580440
v    22.874565 221.019739 0.942568
v    23.320129 221.312619 1.275665
v    23.950166 221.861011 1.783702
v    24.142838 222.018112 1.844995
v    21.503548 221.204422 0.231332
v    18.205166 220.699900 0.231332
v    20.291286 218.095678 0.231332
v    18.496452 218.795578 0.322957
v    21.794834 219.300100 0.322957
v    19.708714 221.904322 0.322957
v    19.008081 218.387564 -0.175642
v    18.248456 217.910643 0.672087
v    17.692658 217.588011 1.276694
v    17.207840 217.292646 1.631343
v    16.043104 216.783008 2.404618
v    15.897363 216.713570 2.444420
v    18.209943 219.383925 -0.175642
v    17.578724 218.746707 0.672087
v    17.142563 218.274726 1.276694
v    16.748503 217.866062 1.631343
v    15.996937 216.840641 2.404618
v    15.897363 216.713570 2.444420
v    18.272844 219.328938 0.322957
v    21.444735 218.839770 0.322957
v    20.282421 221.831292 0.322957
v    21.727156 220.671062 0.466906
v    18.555265 221.160230 0.466906
v    19.717579 218.168708 0.466906
v    21.269390 221.325252 -0.189159
v    21.867571 221.481719 0.395230
v    23.243326 221.791023 1.721846
v    25.179408 222.012386 2.909050
v    21.831148 219.879419 -0.189159
v    22.378053 220.167858 0.395230
v    23.601746 220.868533 1.721846
v    25.179408 222.012386 2.909050
v    21.731622 220.409625 0.466906
v    18.779443 221.294816 0.466906
v    19.488935 218.295559 0.466906
v    18.268378 219.590375 0.678772
v    21.220557 218.705184 0.678772
v    20.511065 221.704441 0.678772
v    18.733419 218.688853 -0.168301
v    18.088084 218.612649 0.445872
v    16.174594 218.453754 2.252276
v    13.782508 218.529216 3.723403
v    18.280214 220.604704 -0.168301
v    17.669133 220.383696 0.445872
v    15.887256 219.668430 2.252276
v    13.782508 218.529216 3.723403
v    18.876148 218.716648 0.678772
v    21.673341 219.668392 0.678772
v    19.450510 221.614960 0.678772
v    21.123852 221.283352 0.919581
v    18.326659 220.331608 0.919581
v    20.549490 218.385040 0.919581
v    19.941665 221.905986 -0.153604
v    20.890641 222.766961 1.057449
v    22.444656 224.081543 2.972404
v    22.791312 224.387648 3.261307
v    25.321528 226.076775 5.111680
v    21.897020 220.193651 -0.153604
v    22.625260 221.247927 1.057449
v    23.723313 222.961802 2.972404
v    23.981004 223.345816 3.261307
v    25.321528 226.076775 5.111680
v    21.375838 220.878433 0.919581
v    18.551335 220.752294 0.919581
v    20.072827 218.369272 0.919581
v    18.624162 219.121567 1.432830
v    21.448665 219.247706 1.432830
v    19.927173 221.630728 1.432830
v    19.740482 218.090260 0.098668
v    19.451831 217.949583 0.402162
v    16.689007 216.719785 3.247294
v    15.904453 216.507999 3.984856
v    13.191583 215.653020 5.714908
v    18.158375 220.568221 0.098668
v    17.909292 220.365569 0.402162
v    15.631054 218.376794 3.247294
v    15.108783 217.754209 3.984856
v    13.191583 215.653020 5.714908
v    18.735263 219.088754 1.432830
v    21.421531 219.360328 1.432830
v    19.843206 221.550918 1.432830
v    21.264737 220.911246 2.225064
v    18.578469 220.639672 2.225064
v    20.156794 218.449082 2.225064
v    19.773718 222.175357 0.597561
v    20.908985 222.809796 1.826739
v    24.189807 224.496687 5.297429
v    28.499482 226.123897 8.112796
v    21.991863 219.096748 0.597561
v    22.953044 219.972805 1.826739
v    25.591728 222.550932 5.297429
v    28.499482 226.123897 8.112796
v    21.244614 220.810576 2.225064
v    18.675713 220.672580 2.225064
v    20.079672 218.516844 2.225064
v    18.755386 219.189424 3.124456
v    21.324287 219.327420 3.124456
v    19.920328 221.483156 3.124456
v    20.416749 217.671003 1.176340
v    19.742302 217.334729 1.888631
v    15.724475 215.502619 6.043036
v    14.867300 215.262898 6.850872
v    10.592092 213.872943 9.585160
v    18.038399 221.322886 1.176340
v    17.458130 220.842005 1.888631
v    14.157872 217.908091 6.043036
v    13.592025 217.221045 6.850872
v    10.592092 213.872943 9.585160
v    18.765415 219.315252 3.124456
v    21.210302 219.273192 3.124456
v    20.024283 221.411556 3.124456
v    21.234585 220.684748 4.412369
v    18.789698 220.726808 4.412369
v    19.975717 218.588444 4.412369
v    19.398246 222.631049 2.124203
v    20.485384 223.080024 3.235884
v    25.345063 224.892378 8.115454
v    26.072367 225.041195 8.789243
v    31.536177 226.398408 12.213487
v    21.913335 218.096404 2.124203
v    22.869838 218.780912 3.235884
v    26.980445 221.943824 8.115454
v    27.491790 222.482009 8.789243
v    31.536177 226.398408 12.213487
v    21.164285 220.309707 4.412369
v    19.149643 220.853447 4.412369
v    19.686072 218.836846 4.412369
v    18.835715 219.690293 6.256697
v    20.850357 219.146553 6.256697
v    20.313928 221.163154 6.256697
v    20.336185 217.016932 3.619517
v    19.158549 216.844678 4.744398
v    13.217293 216.185190 10.368251
v    12.190426 216.231001 11.301177
v    5.900655 216.249487 15.126819
v    18.809600 222.755842 3.619517
v    17.702022 222.320215 4.744398
v    12.218332 219.940597 10.368251
v    11.349944 219.390636 11.301177
v    5.900655 216.249487 15.126819
v    19.130936 219.639243 6.256697
v    20.746957 219.427747 6.256697
v    20.122107 220.933010 6.256697
v    20.869064 220.360757 8.910199
v    19.253043 220.572253 8.910199
v    19.877893 219.066990 8.910199
v    18.811955 223.066193 5.927758
v    19.513198 223.266866 6.617139
v    26.073262 224.900255 12.977269
v    27.870685 225.060461 14.615105
v    34.188882 225.889952 18.490997
v    21.332653 216.993836 5.927758
v    21.969862 217.348767 6.617139
v    27.758169 220.841316 12.977269
v    29.140649 222.001121 14.615105
v    34.188882 225.889952 18.490997
v    20.540645 220.444855 8.910199
v    19.344422 220.245785 8.910199
v    20.114933 219.309360 8.910199
v    19.459355 219.555145 12.877904
v    20.655578 219.754215 12.877904
v    19.885067 220.690640 12.877904
v    22.579374 217.269999 9.568242
v    21.173846 216.361628 11.149955
v    14.735656 212.510550 18.207892
v    13.713227 212.097505 19.208728
v    6.326825 208.749393 24.141346
v    17.817833 223.056832 9.568242
v    16.655790 221.852546 11.149955
v    11.636940 216.276506 18.207892
v    11.034729 215.352758 19.208728
v    6.326825 208.749393 24.141346
v    19.666769 219.651348 12.877904
v    20.468557 219.885740 12.877904
v    19.864674 220.462912 12.877904
v    20.333231 220.348652 16.270850
v    19.531443 220.114260 16.270850
v    20.135326 219.537088 16.270850
v    16.926238 222.162944 12.666930
v    22.563712 226.525341 19.373154
v    26.222727 228.540653 23.164538
v    30.837146 231.338667 26.446823
v    22.299692 217.027164 12.666930
v    26.402769 222.856090 19.373154
v    28.250603 226.602473 23.164538
v    30.837146 231.338667 26.446823
v    20.201294 220.205153 16.270850
v    19.721685 220.071749 16.270850
v    20.077021 219.723098 16.270850
v    19.798706 219.794847 17.253000
v    20.278315 219.928251 17.253000
v    19.922979 220.276902 17.253000
v    20.765191 218.189722 9.719293
v    18.786708 218.763443 17.624510
v    18.175517 220.730675 9.719293
v    18.786708 218.763443 17.624510
mtllib usm_10_Beer_2018-08-14_5.mtl
usemtl APPID_3001557824_1759648493664 
o vid_3 
f 3 2 1
f 4 5 6
f 1 6 5
f 1 5 3
f 3 5 4
f 4 2 3
f 2 4 6
f 6 1 2
usemtl APPID_3001551664_1759648487008 
o vid_4 
f 7 13 14
f 8 14 15
f 9 15 16
f 10 16 17
f 7 14 8
f 8 15 9
f 9 16 10
f 10 17 11
f 11 17 18
usemtl APPID_3001557824_1759648493664 
o vid_5 
f 21 20 19
f 22 23 24
f 19 24 23
f 19 23 21
f 21 23 22
f 22 20 21
f 20 22 24
f 24 19 20
usemtl APPID_3001551664_1759648487008 
o vid_6 
f 25 31 32
f 26 32 33
f 27 33 34
f 28 34 35
f 25 32 26
f 26 33 27
f 27 34 28
f 28 35 29
f 29 35 36
usemtl APPID_3001557824_1759648493664 
o vid_7 
f 39 38 37
f 40 41 42
f 37 42 41
f 37 41 39
f 39 41 40
f 40 38 39
f 38 40 42
f 42 37 38
usemtl APPID_3001551664_1759648487008 
o vid_8 
f 43 47 48
f 44 48 49
f 43 48 44
f 44 49 45
f 45 49 50
usemtl APPID_3001557824_1759648493664 
o vid_9 
f 53 52 51
f 54 55 56
f 51 56 55
f 51 55 53
f 53 55 54
f 54 52 53
f 52 54 56
f 56 51 52
usemtl APPID_3001551664_1759648487008 
o vid_10 
f 57 61 62
f 58 62 63
f 57 62 58
f 58 63 59
f 59 63 64
usemtl APPID_3001557824_1759648493664 
o vid_11 
f 67 66 65
f 68 69 70
f 65 70 69
f 65 69 67
f 67 69 68
f 68 66 67
f 66 68 70
f 70 65 66
usemtl APPID_3001551664_1759648487008 
o vid_12 
f 71 76 77
f 72 77 78
f 73 78 79
f 71 77 72
f 72 78 73
f 73 79 74
f 74 79 80
usemtl APPID_3001557824_1759648493664 
o vid_13 
f 83 82 81
f 84 85 86
f 81 86 85
f 81 85 83
f 83 85 84
f 84 82 83
f 82 84 86
f 86 81 82
usemtl APPID_3001551664_1759648487008 
o vid_14 
f 87 92 93
f 88 93 94
f 89 94 95
f 87 93 88
f 88 94 89
f 89 95 90
f 90 95 96
usemtl APPID_3001557824_1759648493664 
o vid_15 
f 99 98 97
f 100 101 102
f 97 102 101
f 97 101 99
f 99 101 100
f 100 98 99
f 98 100 102
f 102 97 98
usemtl APPID_3001551664_1759648487008 
o vid_16 
f 103 107 108
f 104 108 109
f 103 108 104
f 104 109 105
f 105 109 110
usemtl APPID_3001557824_1759648493664 
o vid_17 
f 113 112 111
f 114 115 116
f 111 116 115
f 111 115 113
f 113 115 114
f 114 112 113
f 112 114 116
f 116 111 112
usemtl APPID_3001551664_1759648487008 
o vid_18 
f 117 122 123
f 118 123 124
f 119 124 125
f 117 123 118
f 118 124 119
f 119 125 120
f 120 125 126
usemtl APPID_3001557824_1759648493664 
o vid_19 
f 129 128 127
f 130 131 132
f 127 132 131
f 127 131 129
f 129 131 130
f 130 128 129
f 128 130 132
f 132 127 128
usemtl APPID_3001551664_1759648487008 
o vid_20 
f 133 138 139
f 134 139 140
f 135 140 141
f 133 139 134
f 134 140 135
f 135 141 136
f 136 141 142
usemtl APPID_3001557824_1759648493664 
o vid_21 
f 145 144 143
f 146 147 148
f 143 148 147
f 143 147 145
f 145 147 146
f 146 144 145
f 144 146 148
f 148 143 144
usemtl APPID_3001551664_1759648487008 
o vid_22 
f 149 154 155
f 150 155 156
f 151 156 157
f 149 155 150
f 150 156 151
f 151 157 152
f 152 157 158
usemtl APPID_3001557824_1759648493664 
o vid_23 
f 161 160 159
f 162 163 164
f 159 164 163
f 159 163 161
f 161 163 162
f 162 160 161
f 160 162 164
f 164 159 160
usemtl APPID_3001551664_1759648487008 
o vid_24 
f 165 170 171
f 166 171 172
f 167 172 173
f 165 171 166
f 166 172 167
f 167 173 168
f 168 173 174
usemtl APPID_3001557824_1759648493664 
o vid_25 
f 177 176 175
f 178 179 180
f 175 180 179
f 175 179 177
f 177 179 178
f 178 176 177
f 176 178 180
f 180 175 176
usemtl APPID_3001551664_1759648487008 
o vid_26 
f 181 186 187
f 182 187 188
f 183 188 189
f 181 187 182
f 182 188 183
f 183 189 184
f 184 189 190
usemtl APPID_3001557824_1759648493664 
o vid_27 
f 193 192 191
f 194 195 196
f 191 196 195
f 191 195 193
f 193 195 194
f 194 192 193
f 192 194 196
f 196 191 192
usemtl APPID_3001551664_1759648487008 
o vid_28 
f 197 201 202
f 198 202 203
f 197 202 198
f 198 203 199
f 199 203 204
usemtl APPID_3001557824_1759648493664 
o vid_29 
f 207 206 205
f 208 209 210
f 205 210 209
f 205 209 207
f 207 209 208
f 208 206 207
f 206 208 210
f 210 205 206
usemtl APPID_3001551664_1759648487008 
o vid_30 
f 211 213 214
f 211 214 212
f 211 213 214
