# File generated by PlantGL - Fri Sep  4 14:42:42 2026
v    18.941648 59.484442 0.000000
v    20.975662 59.341219 0.000000
v    20.082690 61.174338 0.000000
v    21.058352 60.515558 0.331061
v    19.024338 60.658781 0.331061
v    19.917310 58.825662 0.331061
v    20.643321 61.092481 -0.085391
v    21.496596 61.416601 0.779475
v    21.844081 61.538954 1.127663
v    23.071687 61.993947 1.948318
v    24.230844 62.402282 2.330137
v    25.539343 62.698396 2.660905
v    21.256794 59.833127 -0.085391
v    22.037990 60.305212 0.779475
v    22.348531 60.503404 1.127663
v    23.463526 61.189569 1.948318
v    24.499587 61.850598 2.330137
v    25.539343 62.698396 2.660905
v    20.650094 60.520760 0.331061
v    19.223962 60.302618 0.331061
v    20.125944 59.176623 0.331061
v    19.349906 59.479240 0.595348
v    20.776038 59.697382 0.595348
v    19.874056 60.823377 0.595348
v    20.082129 58.830601 0.021631
v    19.042069 58.141579 1.203755
v    18.603875 57.866464 1.692773
v    17.101939 56.888828 2.816110
v    15.669473 55.989420 3.346013
v    14.000965 55.194453 3.801690
v    18.876720 60.335382 0.021631
v    17.977306 59.470782 1.203755
v    17.613184 59.103199 1.692773
v    16.331307 57.850852 2.816110
v    15.140934 56.649226 3.346013
v    14.000965 55.194453 3.801690
v    19.523093 59.814704 0.595348
v    20.398924 59.679634 0.595348
v    20.077983 60.505662 0.595348
v    20.476907 60.185296 0.628000
v    19.601076 60.320366 0.628000
v    19.922017 59.494338 0.628000
v    20.344800 60.776326 -0.883347
v    20.388260 60.760935 -0.609748
v    20.889013 60.345413 1.867108
v    20.778489 59.660111 -0.883347
v    20.800158 59.700808 -0.609748
v    20.889013 60.345413 1.867108
mtllib usm_21_2.5D_2018-07-17_1.mtl
usemtl APPID_4263950512_2499637557760 
o vid_3 
f 3 2 1
f 4 5 6
f 1 6 5
f 1 5 3
f 3 5 4
f 4 2 3
f 2 4 6
f 6 1 2
usemtl APPID_4263947600_2499637555712 
o vid_4 
f 7 13 14
f 8 14 15
f 9 15 16
f 10 16 17
f 7 14 8
f 8 15 9
f 9 16 10
f 10 17 11
f 11 17 18
usemtl APPID_4263950512_2499637557760 
o vid_5 
f 21 20 19
f 22 23 24
f 19 24 23
f 19 23 21
f 21 23 22
f 22 20 21
f 20 22 24
f 24 19 20
usemtl APPID_4263947600_2499637555712 
o vid_6 
f 25 31 32
f 26 32 33
f 27 33 34
f 28 34 35
f 25 32 26
f 26 33 27
f 27 34 28
f 28 35 29
f 29 35 36
usemtl APPID_4263950512_2499637557760 
o vid_7 
f 39 38 37
f 40 41 42
f 37 42 41
f 37 41 39
f 39 41 40
f 40 38 39
f 38 40 42
f 42 37 38
usemtl APPID_4263947600_2499637555712 
o vid_8 
f 43 46 47
f 43 47 44
f 44 47 48
