# File generated by PlantGL - Fri Sep  4 14:43:28 2026
v    18.201987 19.124129 0.000000
v    21.657533 18.880811 0.000000
v    20.140480 21.995060 0.000000
v    21.798013 20.875871 0.231332
v    18.342467 21.119189 0.231332
v    19.859520 18.004940 0.231332
v    20.975650 20.818434 -2.411551
v    21.993052 20.970881 -1.477834
v    21.245862 20.263737 -2.411551
v    21.993052 20.970881 -1.477834
v    21.503548 21.204422 0.231332
v    18.205166 20.699900 0.231332
v    20.291286 18.095678 0.231332
v    18.496452 18.795578 0.322458
v    21.794834 19.300100 0.322458
v    19.708714 21.904322 0.322458
v    19.341464 18.963458 -2.320426
v    18.106737 18.483395 -1.118046
v    18.844717 19.583576 -2.320426
v    18.106737 18.483395 -1.118046
v    18.272844 19.328938 0.322458
v    21.444735 18.839770 0.322458
v    20.282421 21.831292 0.322458
v    21.727156 20.671062 0.466406
v    18.555265 21.160230 0.466406
v    19.717579 18.168708 0.466406
v    20.814091 20.910237 -2.176477
v    22.656183 21.032022 -0.500918
v    21.215085 19.878171 -2.176477
v    22.656183 21.032022 -0.500918
v    21.731622 20.409625 0.466406
v    18.779443 21.294816 0.466406
v    19.488935 18.295559 0.466406
v    18.268378 19.590375 0.678771
v    21.220557 18.705184 0.678771
v    20.511065 21.704441 0.678771
v    19.193438 19.000664 -1.964113
v    16.576504 19.190152 0.417274
v    18.831181 20.532048 -1.964113
v    16.576504 19.190152 0.417274
v    18.876148 18.716648 0.678771
v    21.673341 19.668392 0.678771
v    19.450510 21.614960 0.678771
v    21.123852 21.283352 0.903326
v    18.326659 20.331608 0.903326
v    20.549490 18.385040 0.903326
v    19.710561 21.504839 -1.739557
v    23.154344 23.602017 1.920032
v    21.529872 19.911640 -1.739557
v    23.154344 23.602017 1.920032
v    21.375838 20.878433 0.903326
v    18.551335 20.752294 0.903326
v    20.072827 18.369272 0.903326
v    18.624162 19.121567 1.432322
v    21.448665 19.247706 1.432322
v    19.927173 21.630728 1.432322
v    20.182857 18.100841 -1.210562
v    14.712682 16.624198 3.931962
v    18.354130 20.965067 -1.210562
v    14.712682 16.624198 3.931962
v    18.735263 19.088754 1.432322
v    21.421531 19.360328 1.432322
v    19.843206 21.550918 1.432322
v    21.264737 20.911246 2.225063
v    18.578469 20.639672 2.225063
v    20.156794 18.449082 2.225063
v    19.346088 22.266451 -0.417820
v    20.982342 23.107760 1.313127
v    27.146397 25.148996 7.206492
v    21.942907 18.662273 -0.417820
v    23.258906 19.948069 1.313127
v    27.146397 25.148996 7.206492
v    21.244614 20.810576 2.225063
v    18.675713 20.672580 2.225063
v    20.079672 18.516844 2.225063
v    18.755386 19.189424 3.118961
v    21.324287 19.327420 3.118961
v    19.920328 21.483156 3.118961
v    20.693963 17.613594 0.476077
v    18.058579 16.411871 3.201047
v    12.781528 14.936070 8.174350
v    11.669209 14.574433 8.885754
v    18.097983 21.599641 0.476077
v    15.933269 19.675219 3.201047
v    12.449728 15.445539 8.174350
v    11.669209 14.574433 8.885754
v    18.765415 19.315252 3.118961
v    21.210302 19.273192 3.118961
v    20.024283 21.411556 3.118961
v    21.234585 20.684748 4.387400
v    18.789698 20.726808 4.387400
v    19.975717 18.588444 4.387400
v    19.232310 22.718688 1.744516
v    24.283595 24.602499 6.816477
v    27.118499 25.182564 9.442789
v    31.149253 26.183805 11.968917
v    21.899819 17.909233 1.744516
v    26.172498 21.196852 6.816477
v    28.165634 23.294605 9.442789
v    31.149253 26.183805 11.968917
v    21.168650 20.310868 4.387400
v    19.146455 20.856647 4.387400
v    19.684895 18.832485 4.387400
v    18.831350 19.689132 6.195783
v    20.853545 19.143353 6.195783
v    20.315105 21.167515 6.195783
v    20.341977 16.984004 3.552899
v    18.929419 16.777389 4.902177
v    12.975316 16.116475 10.538192
v    12.190543 16.151485 11.251172
v    5.604999 16.170841 15.256713
v    18.798266 22.787295 3.552899
v    17.469743 22.264766 4.902177
v    11.974194 19.880002 10.538192
v    11.310538 19.459701 11.251172
v    5.604999 16.170841 15.256713
v    19.126993 19.637606 6.195783
v    20.750346 19.425151 6.195783
v    20.122661 20.937243 6.195783
v    20.873007 20.362394 8.788408
v    19.249654 20.574849 8.788408
v    19.877339 19.062757 8.788408
v    18.968792 22.955690 6.145524
v    21.371111 23.643158 8.507206
v    26.875460 25.013684 13.843797
v    34.661309 26.086061 18.632142
v    21.365127 17.182923 6.145524
v    23.548079 18.398849 8.507206
v    28.404870 21.329339 13.843797
v    34.661309 26.086061 18.632142
v    20.543750 20.447410 8.788408
v    19.340657 20.247196 8.788408
v    20.115593 19.305394 8.788408
v    19.456250 19.552590 12.638994
v    20.659343 19.752804 12.638994
v    19.884407 20.694606 12.638994
v    22.162492 17.466774 9.996110
v    18.560314 15.138743 14.049825
v    15.235780 13.150135 17.694383
v    13.147795 11.840210 19.234204
v    6.500766 8.827240 23.673072
v    6.303062 8.729841 23.727409
v    17.930642 22.609859 9.996110
v    14.952486 19.523438 14.049825
v    12.360866 16.644098 17.694383
v    10.673360 14.847460 19.234204
v    6.436712 8.905086 23.673072
v    6.303062 8.729841 23.727409
v    19.664163 19.648621 12.638994
v    20.472222 19.884846 12.638994
v    19.863615 20.466533 12.638994
v    20.335837 20.351379 15.921271
v    19.527778 20.115154 15.921271
v    20.136385 19.533467 15.921271
v    17.511340 21.993472 13.278387
v    19.777664 23.876425 16.063237
v    23.908049 27.072605 20.976660
v    24.603596 27.634841 21.535378
v    31.009836 31.519348 26.092204
v    22.103942 17.604006 13.278387
v    23.882513 19.953137 16.063237
v    26.888698 24.223793 20.976660
v    27.418914 24.944047 21.535378
v    31.009836 31.519348 26.092204
v    20.203762 20.207669 15.921271
v    19.718272 20.072629 15.921271
v    20.077966 19.719703 15.921271
v    19.796238 19.792331 16.871000
v    20.281728 19.927371 16.871000
v    19.922034 20.280297 16.871000
v    21.072084 18.148008 11.682920
v    20.887335 18.124063 12.727916
v    18.666187 18.640611 21.195127
v    18.127982 21.036720 11.682920
v    18.107550 20.851549 12.727916
v    18.666187 18.640611 21.195127
mtllib usm_14_2.5D_2018-08-14_0.mtl
usemtl APPID_801989408_2358739801024 
o vid_3 
f 3 2 1
f 4 5 6
f 1 6 5
f 1 5 3
f 3 5 4
f 4 2 3
f 2 4 6
f 6 1 2
usemtl APPID_801987056_2358739799360 
o vid_4 
f 7 9 10
f 7 10 8
f 7 9 10
usemtl APPID_801989408_2358739801024 
o vid_5 
f 13 12 11
f 14 15 16
f 11 16 15
f 11 15 13
f 13 15 14
f 14 12 13
f 12 14 16
f 16 11 12
usemtl APPID_801987056_2358739799360 
o vid_6 
f 17 19 20
f 17 20 18
f 17 19 20
usemtl APPID_801989408_2358739801024 
o vid_7 
f 23 22 21
f 24 25 26
f 21 26 25
f 21 25 23
f 23 25 24
f 24 22 23
f 22 24 26
f 26 21 22
usemtl APPID_801987056_2358739799360 
o vid_8 
f 27 29 30
f 27 30 28
f 27 29 30
usemtl APPID_801989408_2358739801024 
o vid_9 
f 33 32 31
f 34 35 36
f 31 36 35
f 31 35 33
f 33 35 34
f 34 32 33
f 32 34 36
f 36 31 32
usemtl APPID_801987056_2358739799360 
o vid_10 
f 37 39 40
f 37 40 38
f 37 39 40
usemtl APPID_801989408_2358739801024 
o vid_11 
f 43 42 41
f 44 45 46
f 41 46 45
f 41 45 43
f 43 45 44
f 44 42 43
f 42 44 46
f 46 41 42
usemtl APPID_801987056_2358739799360 
o vid_12 
f 47 49 50
f 47 50 48
f 47 49 50
usemtl APPID_801989408_2358739801024 
o vid_13 
f 53 52 51
f 54 55 56
f 51 56 55
f 51 55 53
f 53 55 54
f 54 52 53
f 52 54 56
f 56 51 52
usemtl APPID_801987056_2358739799360 
o vid_14 
f 57 59 60
f 57 60 58
f 57 59 60
usemtl APPID_801989408_2358739801024 
o vid_15 
f 63 62 61
f 64 65 66
f 61 66 65
f 61 65 63
f 63 65 64
f 64 62 63
f 62 64 66
f 66 61 62
usemtl APPID_801987056_2358739799360 
o vid_16 
f 67 70 71
f 67 71 68
f 68 71 72
usemtl APPID_801989408_2358739801024 
o vid_17 
f 75 74 73
f 76 77 78
f 73 78 77
f 73 77 75
f 75 77 76
f 76 74 75
f 74 76 78
f 78 73 74
usemtl APPID_801987056_2358739799360 
o vid_18 
f 79 83 84
f 80 84 85
f 79 84 80
f 80 85 81
f 81 85 86
usemtl APPID_801989408_2358739801024 
o vid_19 
f 89 88 87
f 90 91 92
f 87 92 91
f 87 91 89
f 89 91 90
f 90 88 89
f 88 90 92
f 92 87 88
usemtl APPID_801987056_2358739799360 
o vid_20 
f 93 97 98
f 94 98 99
f 93 98 94
f 94 99 95
f 95 99 100
usemtl APPID_801989408_2358739801024 
o vid_21 
f 103 102 101
f 104 105 106
f 101 106 105
f 101 105 103
f 103 105 104
f 104 102 103
f 102 104 106
f 106 101 102
usemtl APPID_801987056_2358739799360 
o vid_22 
f 107 112 113
f 108 113 114
f 109 114 115
f 107 113 108
f 108 114 109
f 109 115 110
f 110 115 116
usemtl APPID_801989408_2358739801024 
o vid_23 
f 119 118 117
f 120 121 122
f 117 122 121
f 117 121 119
f 119 121 120
f 120 118 119
f 118 120 122
f 122 117 118
usemtl APPID_801987056_2358739799360 
o vid_24 
f 123 127 128
f 124 128 129
f 123 128 124
f 124 129 125
f 125 129 130
usemtl APPID_801989408_2358739801024 
o vid_25 
f 133 132 131
f 134 135 136
f 131 136 135
f 131 135 133
f 133 135 134
f 134 132 133
f 132 134 136
f 136 131 132
usemtl APPID_801987056_2358739799360 
o vid_26 
f 137 143 144
f 138 144 145
f 139 145 146
f 140 146 147
f 137 144 138
f 138 145 139
f 139 146 140
f 140 147 141
f 141 147 148
usemtl APPID_801989408_2358739801024 
o vid_27 
f 151 150 149
f 152 153 154
f 149 154 153
f 149 153 151
f 151 153 152
f 152 150 151
f 150 152 154
f 154 149 150
usemtl APPID_801987056_2358739799360 
o vid_28 
f 155 160 161
f 156 161 162
f 157 162 163
f 155 161 156
f 156 162 157
f 157 163 158
f 158 163 164
usemtl APPID_801989408_2358739801024 
o vid_29 
f 167 166 165
f 168 169 170
f 165 170 169
f 165 169 167
f 167 169 168
f 168 166 167
f 166 168 170
f 170 165 166
usemtl APPID_801987056_2358739799360 
o vid_30 
f 171 174 175
f 171 175 172
f 172 175 176
