# File generated by PlantGL - Fri Sep  4 14:42:57 2026
v    138.045013 19.047662 0.000000
v    141.802243 18.783101 0.000000
v    140.152744 22.169238 0.000000
v    141.954987 20.952338 0.362700
v    138.197757 21.216899 0.362700
v    139.847256 17.830762 0.362700
v    141.772390 21.300997 0.203135
v    142.056496 21.409315 0.485677
v    142.251837 21.480140 0.678451
v    142.922229 21.732581 1.160640
v    143.600558 21.997374 1.394046
v    144.262514 22.225944 1.617616
v    144.795935 22.336257 1.635824
v    142.116969 20.593637 0.203135
v    142.377389 20.750576 0.485677
v    142.553571 20.860732 0.678451
v    143.165593 21.232997 1.160640
v    143.792234 21.603897 1.394046
v    144.380259 21.984234 1.617616
v    144.795935 22.336257 1.635824
v    141.341045 21.074248 0.362700
v    138.399151 20.624255 0.362700
v    140.259804 18.301497 0.362700
v    138.658955 18.925752 0.589630
v    141.600849 19.375745 0.589630
v    139.740196 21.698503 0.589630
v    139.017615 18.503949 0.363996
v    138.686384 18.283928 0.733509
v    138.411761 18.107938 1.036123
v    137.565692 17.550935 1.717968
v    136.747347 16.997955 2.034546
v    135.905480 16.476506 2.350689
v    135.205719 16.159525 2.390412
v    138.325603 19.367827 0.363996
v    138.038592 19.092603 0.733509
v    137.806906 18.863013 1.036123
v    137.078669 18.158913 1.717968
v    136.360409 17.480990 2.034546
v    135.667787 16.773232 2.350689
v    135.205719 16.159525 2.390412
v    138.796927 19.532563 0.589630
v    141.006349 19.191827 0.589630
v    140.196724 21.275610 0.589630
v    141.203073 20.467437 1.053978
v    138.993651 20.808173 1.053978
v    139.803276 18.724390 1.053978
v    140.905944 21.170113 0.741172
v    141.385094 21.308689 1.204669
v    141.872222 21.440947 1.672969
v    143.222836 21.825550 2.618240
v    144.469664 22.196876 3.035236
v    145.799928 22.536210 3.473518
v    146.854004 22.663026 3.551296
v    141.458299 19.748480 0.741172
v    141.905318 19.969754 1.204669
v    142.353956 20.201075 1.672969
v    143.609943 20.829229 2.618240
v    144.780403 21.397107 3.035236
v    145.990813 22.044916 3.473518
v    146.854004 22.663026 3.551296
v    140.867951 20.205319 1.053978
v    139.388213 20.649008 1.053978
v    139.743836 19.145673 1.053978
v    139.132049 19.794681 1.497000
v    140.611787 19.350992 1.497000
v    140.256164 20.854327 1.497000
v    139.370046 18.912240 0.645598
v    138.114154 18.762826 2.012267
v    136.325047 18.522070 3.438755
v    134.411605 18.309958 4.219260
v    133.053187 18.356691 4.754814
v    138.949452 20.690227 0.645598
v    137.759725 20.261116 2.012267
v    136.052371 19.674764 3.438755
v    134.246693 19.007097 4.219260
v    133.053187 18.356691 4.754814
mtllib usm_43_2.5D_2018-07-31_3.mtl
usemtl APPID_3903011616_2215810877552 
o vid_3 
f 3 2 1
f 4 5 6
f 1 6 5
f 1 5 3
f 3 5 4
f 4 2 3
f 2 4 6
f 6 1 2
usemtl APPID_3903015760_2215810879472 
o vid_4 
f 7 14 15
f 8 15 16
f 9 16 17
f 10 17 18
f 11 18 19
f 7 15 8
f 8 16 9
f 9 17 10
f 10 18 11
f 11 19 12
f 12 19 20
usemtl APPID_3903011616_2215810877552 
o vid_5 
f 23 22 21
f 24 25 26
f 21 26 25
f 21 25 23
f 23 25 24
f 24 22 23
f 22 24 26
f 26 21 22
usemtl APPID_3903015760_2215810879472 
o vid_6 
f 27 34 35
f 28 35 36
f 29 36 37
f 30 37 38
f 31 38 39
f 27 35 28
f 28 36 29
f 29 37 30
f 30 38 31
f 31 39 32
f 32 39 40
usemtl APPID_3903011616_2215810877552 
o vid_7 
f 43 42 41
f 44 45 46
f 41 46 45
f 41 45 43
f 43 45 44
f 44 42 43
f 42 44 46
f 46 41 42
usemtl APPID_3903015760_2215810879472 
o vid_8 
f 47 54 55
f 48 55 56
f 49 56 57
f 50 57 58
f 51 58 59
f 47 55 48
f 48 56 49
f 49 57 50
f 50 58 51
f 51 59 52
f 52 59 60
usemtl APPID_3903011616_2215810877552 
o vid_9 
f 63 62 61
f 64 65 66
f 61 66 65
f 61 65 63
f 63 65 64
f 64 62 63
f 62 64 66
f 66 61 62
usemtl APPID_3903015760_2215810879472 
o vid_10 
f 67 72 73
f 68 73 74
f 69 74 75
f 67 73 68
f 68 74 69
f 69 75 70
f 70 75 76
