# File generated by PlantGL - Fri Sep  4 14:41:41 2026
v    18.170698 59.108887 0.000000
v    21.686378 58.861334 0.000000
v    20.142925 62.029779 0.000000
v    21.829302 60.891113 0.848509
v    18.313622 61.138666 0.848509
v    19.857075 57.970221 0.848509
v    21.643843 61.245650 0.688958
v    21.996950 61.380275 1.040121
v    22.122717 61.425874 1.164235
v    22.793055 61.678295 1.646385
v    23.560861 61.978016 1.910579
v    24.200892 62.199016 2.126745
v    24.760478 62.318985 2.120377
v    21.994148 60.526535 0.688958
v    22.317817 60.721590 1.040121
v    22.431249 60.792511 1.164235
v    23.043221 61.164746 1.646385
v    23.752520 61.584572 1.910579
v    24.321070 61.952311 2.126745
v    24.760478 62.318985 2.120377
v    21.235952 60.990064 0.848509
v    18.524604 60.575334 0.848509
v    20.239444 58.434602 0.848509
v    18.764048 59.009936 1.417165
v    21.475396 59.424666 1.417165
v    19.760556 61.565398 1.417165
v    19.136641 58.570759 1.191377
v    18.600115 58.214371 1.789912
v    17.686271 57.613925 2.546270
v    16.601972 56.881232 2.965733
v    15.908777 56.451870 3.226045
v    15.046745 56.032179 3.215328
v    18.416780 59.469401 1.191377
v    17.951883 59.023596 1.789912
v    17.166458 58.262837 2.546270
v    16.214771 57.364596 2.965733
v    15.644464 56.781826 3.226045
v    15.046745 56.032179 3.215328
v    18.917639 59.579464 1.417165
v    20.905376 59.272916 1.417165
v    20.176986 61.147620 1.417165
v    21.082361 60.420536 2.253766
v    19.094624 60.727084 2.253766
v    19.823014 58.852380 2.253766
v    20.795101 61.097724 1.940522
v    21.764639 61.364023 2.873623
v    23.117141 61.749165 3.820214
v    23.967553 62.002431 4.104631
v    25.299677 62.342239 4.543526
v    26.002406 62.420512 4.763292
v    26.335786 62.461680 4.759560
v    21.327659 59.727045 1.940522
v    22.222660 60.185185 2.873623
v    23.480402 60.814218 3.820214
v    24.278727 61.201544 4.104631
v    25.490829 61.850259 4.543526
v    26.062064 62.266967 4.763292
v    26.335786 62.461680 4.759560
v    20.746939 60.176693 2.253766
v    19.473510 60.558522 2.253766
v    19.779551 59.264786 2.253766
v    19.253061 59.823307 2.792000
v    20.526490 59.441478 2.792000
v    20.220449 60.735214 2.792000
v    19.337040 59.088423 1.955469
v    18.486741 59.035261 3.615567
v    17.278590 58.987396 5.262008
v    17.109767 59.017408 5.480355
v    16.160644 59.091778 6.188171
v    18.998882 60.517929 1.955469
v    18.214884 60.184490 3.615567
v    17.113336 59.685981 5.262008
v    16.975852 59.583511 5.480355
v    16.160644 59.091778 6.188171
mtllib usm_5_2.5D_2018-07-13_1.mtl
usemtl APPID_3209475808_2296721705856 
o vid_3 
f 3 2 1
f 4 5 6
f 1 6 5
f 1 5 3
f 3 5 4
f 4 2 3
f 2 4 6
f 6 1 2
usemtl APPID_3209473680_2296721704704 
o vid_4 
f 7 14 15
f 8 15 16
f 9 16 17
f 10 17 18
f 11 18 19
f 7 15 8
f 8 16 9
f 9 17 10
f 10 18 11
f 11 19 12
f 12 19 20
usemtl APPID_3209475808_2296721705856 
o vid_5 
f 23 22 21
f 24 25 26
f 21 26 25
f 21 25 23
f 23 25 24
f 24 22 23
f 22 24 26
f 26 21 22
usemtl APPID_3209473680_2296721704704 
o vid_6 
f 27 33 34
f 28 34 35
f 29 35 36
f 30 36 37
f 27 34 28
f 28 35 29
f 29 36 30
f 30 37 31
f 31 37 38
usemtl APPID_3209475808_2296721705856 
o vid_7 
f 41 40 39
f 42 43 44
f 39 44 43
f 39 43 41
f 41 43 42
f 42 40 41
f 40 42 44
f 44 39 40
usemtl APPID_3209473680_2296721704704 
o vid_8 
f 45 52 53
f 46 53 54
f 47 54 55
f 48 55 56
f 49 56 57
f 45 53 46
f 46 54 47
f 47 55 48
f 48 56 49
f 49 57 50
f 50 57 58
usemtl APPID_3209475808_2296721705856 
o vid_9 
f 61 60 59
f 62 63 64
f 59 64 63
f 59 63 61
f 61 63 62
f 62 60 61
f 60 62 64
f 64 59 60
usemtl APPID_3209473680_2296721704704 
o vid_10 
f 65 70 71
f 66 71 72
f 67 72 73
f 65 71 66
f 66 72 67
f 67 73 68
f 68 73 74
