# File generated by PlantGL - Fri Sep  4 14:43:38 2026
v    18.201987 59.124129 0.000000
v    21.657533 58.880811 0.000000
v    20.140480 61.995060 0.000000
v    21.798013 60.875871 0.231332
v    18.342467 61.119189 0.231332
v    19.859520 58.004940 0.231332
v    21.032756 60.884146 -2.134577
v    22.162506 61.053427 -1.097752
v    21.332806 60.268196 -2.134577
v    22.162506 61.053427 -1.097752
v    21.503548 61.204422 0.231332
v    18.205166 60.699900 0.231332
v    20.291286 58.095678 0.231332
v    18.496452 58.795578 0.322458
v    21.794834 59.300100 0.322458
v    19.708714 61.904322 0.322458
v    19.305881 58.879734 -2.043451
v    17.937205 58.347591 -0.710633
v    18.755244 59.567124 -2.043451
v    17.937205 58.347591 -0.710633
v    18.272844 59.328938 0.322458
v    21.444735 58.839770 0.322458
v    20.282421 61.831292 0.322458
v    21.727156 60.671062 0.466406
v    18.555265 61.160230 0.466406
v    19.717579 58.168708 0.466406
v    20.867723 60.993416 -1.899503
v    22.903167 61.127985 -0.048070
v    21.310808 59.853021 -1.899503
v    22.903167 61.127985 -0.048070
v    21.731622 60.409625 0.466406
v    18.779443 61.294816 0.466406
v    19.488935 58.295559 0.466406
v    18.268378 59.590375 0.678771
v    21.220557 58.705184 0.678771
v    20.511065 61.704441 0.678771
v    19.133496 58.906037 -1.687138
v    16.256186 59.114379 0.931188
v    18.735195 60.589789 -1.687138
v    16.256186 59.114379 0.931188
v    18.876148 58.716648 0.678771
v    21.673341 59.668392 0.678771
v    19.450510 61.614960 0.678771
v    21.123852 61.283352 0.919581
v    18.326659 60.331608 0.919581
v    20.549490 58.385040 0.919581
v    19.489284 61.805108 -1.446327
v    23.970600 64.534119 3.315814
v    21.856711 59.731914 -1.446327
v    23.970600 64.534119 3.315814
v    21.375838 60.878433 0.919581
v    18.551335 60.752294 0.919581
v    20.072827 58.369272 0.919581
v    18.624162 59.121567 1.432331
v    21.448665 59.247706 1.432331
v    19.927173 61.630728 1.432331
v    20.056239 58.150280 -0.933578
v    14.939582 56.769067 3.876602
v    18.345696 60.829401 -0.933578
v    14.939582 56.769067 3.876602
v    18.735263 59.088754 1.432331
v    21.421531 59.360328 1.432331
v    19.843206 61.550918 1.432331
v    21.264737 60.911246 2.225064
v    18.578469 60.639672 2.225064
v    20.156794 58.449082 2.225064
v    19.437197 62.277049 -0.140845
v    22.025645 63.607944 2.597402
v    26.369655 65.046469 6.750647
v    27.704434 65.551063 7.618575
v    21.981800 58.745342 -0.140845
v    24.063625 60.779390 2.597402
v    26.803266 64.444651 6.750647
v    27.704434 65.551063 7.618575
v    21.244614 60.810576 2.225064
v    18.675713 60.672580 2.225064
v    20.079672 58.516844 2.225064
v    18.755386 59.189424 3.119461
v    21.324287 59.327420 3.119461
v    19.920328 61.483156 3.119461
v    20.599485 57.611858 0.753552
v    17.023184 55.981082 4.451423
v    13.634510 55.033392 7.645045
v    11.117311 54.215000 9.254966
v    18.058194 61.513933 0.753552
v    15.120607 58.902431 4.451423
v    12.883641 56.186329 7.645045
v    11.117311 54.215000 9.254966
v    18.765415 59.315252 3.119461
v    21.210302 59.273192 3.119461
v    20.024283 61.411556 3.119461
v    21.234585 60.684748 4.390896
v    18.789698 60.726808 4.390896
v    19.975717 58.588444 4.390896
v    19.356334 62.660252 2.024988
v    20.139544 62.983708 2.825878
v    25.164336 64.857639 7.871238
v    26.292596 65.088498 8.916480
v    31.512006 66.385002 12.187555
v    21.915916 58.045387 2.024988
v    22.605012 58.538528 2.825878
v    26.855282 61.808904 7.871238
v    27.648527 62.643786 8.916480
v    31.512006 66.385002 12.187555
v    21.293262 60.344016 4.390896
v    19.055443 60.947990 4.390896
v    19.651295 58.707994 4.390896
v    18.706738 59.655984 6.207766
v    20.944557 59.052010 6.207766
v    20.348705 61.292006 6.207766
v    20.087463 57.127545 3.841857
v    17.867776 56.802870 5.962108
v    12.827252 56.243365 10.733349
v    5.784148 56.218496 15.024571
v    18.648709 62.536269 3.841857
v    16.561074 61.715170 5.962108
v    11.908745 59.696317 10.733349
v    5.784148 56.218496 15.024571
v    18.999608 59.584727 6.207766
v    20.859833 59.341272 6.207766
v    20.140559 61.074001 6.207766
v    21.000392 60.415273 8.821343
v    19.140167 60.658728 8.821343
v    19.859441 58.925999 8.821343
v    19.248429 62.850761 6.455434
v    22.435176 63.762707 9.588274
v    26.311983 64.727992 13.346926
v    27.848868 65.145501 14.341825
v    34.498598 66.018518 18.421095
v    21.488248 57.455041 6.455434
v    24.383997 59.068002 9.588274
v    27.804718 61.131997 13.346926
v    29.185470 61.925629 14.341825
v    34.498598 66.018518 18.421095
v    20.644062 60.529949 8.821343
v    19.219019 60.292800 8.821343
v    20.136919 59.177251 8.821343
v    19.355938 59.470051 12.725242
v    20.780981 59.707200 12.725242
v    19.863081 60.822749 12.725242
v    21.923514 57.426666 10.359333
v    17.025395 54.261090 15.871438
v    15.767130 53.508443 17.250825
v    11.923464 51.097069 20.085403
v    8.153542 49.388237 22.602947
v    5.536023 48.098703 23.322361
v    17.845263 62.383078 10.359333
v    13.795668 58.186267 15.871438
v    12.814795 57.096498 17.250825
v    9.708350 53.789159 20.085403
v    7.305497 50.418889 22.602947
v    5.536023 48.098703 23.322361
v    19.579947 59.560507 12.725242
v    20.590638 59.855969 12.725242
v    19.829415 60.583523 12.725242
v    20.420053 60.439493 18.356585
v    19.409362 60.144031 18.356585
v    20.170585 59.416477 18.356585
v    17.313953 62.461556 15.990676
v    18.408080 63.416789 17.366903
v    22.896429 67.145890 22.882168
v    25.228788 69.149186 24.809417
v    29.492407 72.595624 28.234290
v    36.548099 77.313911 30.332813
v    22.580471 57.427982 15.990676
v    23.485264 58.564175 17.366903
v    27.007641 63.216520 22.882168
v    28.903448 65.637060 24.809417
v    32.153611 70.052128 28.234290
v    36.548099 77.313911 30.332813
v    20.283510 60.288946 18.356585
v    19.608010 60.101054 18.356585
v    20.108480 59.610000 18.356585
v    19.716490 59.711054 21.648000
v    20.391990 59.898946 21.648000
v    19.891520 60.390000 21.648000
v    22.603840 58.320817 16.843550
v    19.685401 56.050433 21.473983
v    17.587797 54.550080 24.683495
v    15.612380 53.039338 26.769401
v    10.862624 50.414766 31.175255
v    10.182937 49.994699 31.493152
v    18.271671 62.571481 16.843550
v    16.057120 59.610452 21.473983
v    14.596872 57.484733 24.683495
v    13.123917 55.480983 26.769401
v    10.590021 50.682241 31.175255
v    10.182937 49.994699 31.493152
mtllib usm_22_2.5D_2018-08-16_1.mtl
usemtl APPID_683091024_1675719690736 
o vid_3 
f 3 2 1
f 4 5 6
f 1 6 5
f 1 5 3
f 3 5 4
f 4 2 3
f 2 4 6
f 6 1 2
usemtl APPID_683092032_1675719686256 
o vid_4 
f 7 9 10
f 7 10 8
f 7 9 10
usemtl APPID_683091024_1675719690736 
o vid_5 
f 13 12 11
f 14 15 16
f 11 16 15
f 11 15 13
f 13 15 14
f 14 12 13
f 12 14 16
f 16 11 12
usemtl APPID_683092032_1675719686256 
o vid_6 
f 17 19 20
f 17 20 18
f 17 19 20
usemtl APPID_683091024_1675719690736 
o vid_7 
f 23 22 21
f 24 25 26
f 21 26 25
f 21 25 23
f 23 25 24
f 24 22 23
f 22 24 26
f 26 21 22
usemtl APPID_683092032_1675719686256 
o vid_8 
f 27 29 30
f 27 30 28
f 27 29 30
usemtl APPID_683091024_1675719690736 
o vid_9 
f 33 32 31
f 34 35 36
f 31 36 35
f 31 35 33
f 33 35 34
f 34 32 33
f 32 34 36
f 36 31 32
usemtl APPID_683092032_1675719686256 
o vid_10 
f 37 39 40
f 37 40 38
f 37 39 40
usemtl APPID_683091024_1675719690736 
o vid_11 
f 43 42 41
f 44 45 46
f 41 46 45
f 41 45 43
f 43 45 44
f 44 42 43
f 42 44 46
f 46 41 42
usemtl APPID_683092032_1675719686256 
o vid_12 
f 47 49 50
f 47 50 48
f 47 49 50
usemtl APPID_683091024_1675719690736 
o vid_13 
f 53 52 51
f 54 55 56
f 51 56 55
f 51 55 53
f 53 55 54
f 54 52 53
f 52 54 56
f 56 51 52
usemtl APPID_683092032_1675719686256 
o vid_14 
f 57 59 60
f 57 60 58
f 57 59 60
usemtl APPID_683091024_1675719690736 
o vid_15 
f 63 62 61
f 64 65 66
f 61 66 65
f 61 65 63
f 63 65 64
f 64 62 63
f 62 64 66
f 66 61 62
usemtl APPID_683092032_1675719686256 
o vid_16 
f 67 71 72
f 68 72 73
f 67 72 68
f 68 73 69
f 69 73 74
usemtl APPID_683091024_1675719690736 
o vid_17 
f 77 76 75
f 78 79 80
f 75 80 79
f 75 79 77
f 77 79 78
f 78 76 77
f 76 78 80
f 80 75 76
usemtl APPID_683092032_1675719686256 
o vid_18 
f 81 85 86
f 82 86 87
f 81 86 82
f 82 87 83
f 83 87 88
usemtl APPID_683091024_1675719690736 
o vid_19 
f 91 90 89
f 92 93 94
f 89 94 93
f 89 93 91
f 91 93 92
f 92 90 91
f 90 92 94
f 94 89 90
usemtl APPID_683092032_1675719686256 
o vid_20 
f 95 100 101
f 96 101 102
f 97 102 103
f 95 101 96
f 96 102 97
f 97 103 98
f 98 103 104
usemtl APPID_683091024_1675719690736 
o vid_21 
f 107 106 105
f 108 109 110
f 105 110 109
f 105 109 107
f 107 109 108
f 108 106 107
f 106 108 110
f 110 105 106
usemtl APPID_683092032_1675719686256 
o vid_22 
f 111 115 116
f 112 116 117
f 111 116 112
f 112 117 113
f 113 117 118
usemtl APPID_683091024_1675719690736 
o vid_23 
f 121 120 119
f 122 123 124
f 119 124 123
f 119 123 121
f 121 123 122
f 122 120 121
f 120 122 124
f 124 119 120
usemtl APPID_683092032_1675719686256 
o vid_24 
f 125 130 131
f 126 131 132
f 127 132 133
f 125 131 126
f 126 132 127
f 127 133 128
f 128 133 134
usemtl APPID_683091024_1675719690736 
o vid_25 
f 137 136 135
f 138 139 140
f 135 140 139
f 135 139 137
f 137 139 138
f 138 136 137
f 136 138 140
f 140 135 136
usemtl APPID_683092032_1675719686256 
o vid_26 
f 141 147 148
f 142 148 149
f 143 149 150
f 144 150 151
f 141 148 142
f 142 149 143
f 143 150 144
f 144 151 145
f 145 151 152
usemtl APPID_683091024_1675719690736 
o vid_27 
f 155 154 153
f 156 157 158
f 153 158 157
f 153 157 155
f 155 157 156
f 156 154 155
f 154 156 158
f 158 153 154
usemtl APPID_683092032_1675719686256 
o vid_28 
f 159 165 166
f 160 166 167
f 161 167 168
f 162 168 169
f 159 166 160
f 160 167 161
f 161 168 162
f 162 169 163
f 163 169 170
usemtl APPID_683091024_1675719690736 
o vid_29 
f 173 172 171
f 174 175 176
f 171 176 175
f 171 175 173
f 173 175 174
f 174 172 173
f 172 174 176
f 176 171 172
usemtl APPID_683092032_1675719686256 
o vid_30 
f 177 183 184
f 178 184 185
f 179 185 186
f 180 186 187
f 177 184 178
f 178 185 179
f 179 186 180
f 180 187 181
f 181 187 188
