# File generated by PlantGL - Wed Jul 15 17:35:44 2026
v    20.702010 9.124129 0.000000
v    24.157555 8.880811 0.000000
v    22.640502 11.995060 0.000000
v    24.298035 10.875871 3.801864
v    20.842490 11.119189 3.801864
v    22.359543 8.004940 3.801864
v    23.850107 11.571806 3.484445
v    24.936772 11.989179 4.506634
v    26.589725 12.620790 5.532560
v    27.155076 12.842485 5.694989
v    28.253226 13.240898 6.006710
v    28.700041 13.404810 6.003063
v    29.480918 13.657657 5.996804
v    29.952510 13.738005 5.993268
v    30.280148 13.789954 5.899348
v    24.569910 10.094174 3.484445
v    25.568402 10.692550 4.506634
v    27.084663 11.604767 5.532560
v    27.607726 11.913274 5.694989
v    28.598368 12.532381 6.006710
v    29.002863 12.783169 6.003063
v    29.683310 13.242181 5.996804
v    30.037278 13.563990 5.993268
v    30.280148 13.789954 5.899348
v    23.995919 11.198293 3.801864
v    20.714322 10.696338 3.801864
v    22.789826 8.105369 3.801864
v    21.004126 8.801707 8.828601
v    24.285723 9.303662 8.828601
v    22.210219 11.894631 8.828601
v    21.858087 7.955026 8.384005
v    20.502184 7.049538 9.815743
v    19.935236 6.661521 10.214486
v    18.443667 5.670410 11.252716
v    17.202465 4.828905 11.653816
v    16.372674 4.296899 11.916838
v    15.247278 3.569689 11.906572
v    14.281593 2.997077 11.898011
v    13.228744 2.573212 11.576348
v    20.364242 9.819876 8.384005
v    19.184647 8.694294 9.815743
v    18.682243 8.225704 10.214486
v    17.389478 6.986414 11.252716
v    16.297356 5.958803 11.653816
v    15.597066 5.265134 11.916838
v    14.641761 4.325590 11.906572
v    13.872185 3.508165 11.898011
v    13.228744 2.573212 11.576348
v    20.791144 9.336039 8.828601
v    23.929469 8.852048 8.828601
v    22.779455 11.811913 8.828601
v    24.208901 10.663961 19.744475
v    21.070576 11.147952 19.744475
v    22.220590 8.188087 19.744475
v    23.398904 12.233603 19.139728
v    25.527838 12.855009 21.087201
v    28.094799 13.636085 22.644511
v    28.753062 13.826574 23.041795
v    31.988383 14.795534 23.945145
v    35.205048 15.698363 23.919535
v    37.138597 16.159917 23.336587
v    38.643400 16.272281 22.909363
v    24.671128 8.959197 19.139728
v    26.661143 9.938150 21.087201
v    29.082082 11.095052 22.644511
v    29.696277 11.398959 23.041795
v    32.737102 12.868506 23.945145
v    35.719516 14.374242 23.919535
v    37.457475 15.339200 23.336587
v    38.643400 16.272281 22.909363
v    24.203022 10.402854 19.744475
v    21.299640 11.273414 19.744475
v    21.997405 8.323732 19.744475
v    20.797023 9.597146 37.034948
v    23.700405 8.726586 37.034948
v    23.002640 11.676268 37.034948
v    21.579074 7.361605 36.236113
v    18.680569 6.936287 38.808610
v    14.714821 6.308171 41.139024
v    9.876169 5.567626 42.583785
v    8.503972 5.352653 42.573120
v    5.506435 4.958969 42.549956
v    4.348037 4.811926 42.206265
v    2.372944 4.641237 41.625716
v    0.383705 4.768257 41.061379
v    20.494576 11.946139 36.236113
v    17.712713 11.027733 38.808610
v    13.885861 9.812465 41.139024
v    9.228246 8.306613 42.583785
v    7.905166 7.884003 42.573120
v    5.048942 6.892945 42.549956
v    3.947437 6.505396 42.206265
v    2.105201 5.773073 41.625716
v    0.383705 4.768257 41.061379
v    21.402007 8.746150 37.034948
v    24.134896 9.676015 37.034948
v    21.963165 11.577834 37.034948
v    23.598038 11.253850 60.289242
v    20.865149 10.323985 60.289242
v    23.036880 8.422166 60.289242
v    20.944067 13.157791 59.264496
v    21.786031 14.011551 60.319549
v    22.610576 14.847647 61.352773
v    23.606038 15.803253 62.564496
v    27.677476 19.801716 65.876559
v    30.337092 22.455175 66.882354
v    31.743329 23.824142 67.407288
v    35.782076 27.777193 67.363893
v    40.074145 31.762513 65.639466
v    41.176229 32.701161 65.215536
v    43.978987 34.527321 63.432658
v    25.835500 8.874285 59.264496
v    26.570707 9.821534 60.319549
v    27.290704 10.749185 61.352773
v    28.106614 11.862027 62.564496
v    31.532936 16.425428 65.876559
v    33.812289 19.411890 66.882354
v    34.983749 20.986455 67.407288
v    38.369369 25.511459 67.363893
v    41.753554 30.291828 65.639466
v    42.538587 31.508123 65.215536
v    43.978987 34.527321 63.432658
v    23.834544 10.852054 60.289242
v    21.094861 10.729703 60.289242
v    22.570662 8.418243 60.289242
v    21.165501 9.147946 121.367487
v    23.905184 9.270297 121.367487
v    22.429383 11.581757 121.367487
v    23.583476 6.092586 120.090901
v    19.434855 3.923337 124.201907
v    13.172540 0.558739 128.327942
v    6.883547 -2.797292 130.234862
v    3.394094 -4.664547 130.204473
v    0.634778 -6.054163 130.180802
v    -2.531198 -7.631442 129.139709
v    -5.421157 -8.929473 128.211958
v    -7.828094 -9.601253 127.504466
v    -8.440810 -9.754839 127.172793
v    19.411350 12.627139 120.090901
v    15.697731 9.776572 124.201907
v    10.010286 5.511589 128.327942
v    4.319386 1.218801 130.234862
v    1.157106 -1.160886 130.204473
v    -1.264634 -3.079227 130.180802
v    -4.027740 -5.287497 129.139709
v    -6.421376 -7.362891 128.211958
v    -8.043646 -9.263645 127.504466
v    -8.440810 -9.754839 127.172793
v    21.295028 9.131798 121.367487
v    23.854404 9.390545 121.367487
v    22.350635 11.477657 121.367487
v    23.705017 10.868202 171.029150
v    21.145641 10.609455 171.029150
v    22.649410 8.522343 171.029150
v    20.694893 14.231046 169.484749
v    25.559222 17.132113 174.458200
v    31.432003 20.725868 178.454317
v    32.908819 21.602016 179.449833
v    40.285309 26.071590 181.756804
v    47.657528 30.366493 181.691402
v    52.173097 32.765243 180.191915
v    55.820939 34.007798 179.100872
v    25.942082 6.948365 169.484749
v    30.233761 10.644224 174.458200
v    35.501732 15.077407 178.454317
v    36.800310 16.200937 179.449833
v    43.375059 21.783263 181.756804
v    49.782767 27.416830 181.691402
v    53.487561 30.940872 180.191915
v    55.820939 34.007798 179.100872
v    23.489923 10.644689 171.029150
v    21.446755 10.534934 171.029150
v    22.563389 8.820376 171.029150
v    21.510122 9.355311 206.627986
v    23.553290 9.465066 206.627986
v    22.436656 11.179624 206.627986
v    24.296513 6.102506 204.813536
v    22.697969 5.248471 206.405026
v    18.385712 3.031149 210.656630
v    12.018444 -0.351726 214.836682
v    9.406968 -1.644719 216.521087
v    4.014662 -4.397403 218.136614
v    0.270338 -6.124715 219.231449
v    -4.620401 -7.662629 219.193422
v    19.661762 13.219024 204.813536
v    18.234289 12.102315 206.405026
v    14.462661 9.054872 210.656630
v    8.794074 4.599195 214.836682
v    6.555550 2.733545 216.521087
v    1.857562 -1.085244 218.136614
v    -1.236256 -3.811386 219.231449
v    -4.620401 -7.662629 219.193422
v    21.709913 9.561775 206.627986
v    23.274591 9.534858 206.627986
v    22.515563 10.903368 206.627986
v    23.290132 10.438225 229.236910
v    21.725454 10.465142 229.236910
v    22.484482 9.096632 229.236910
v    20.281564 14.545992 227.166742
v    24.352183 16.362886 231.081143
v    27.238258 17.596962 233.833328
v    37.275286 22.049143 240.199044
v    46.992906 26.163160 243.190016
v    51.941851 28.052896 243.588486
v    57.178747 29.234157 243.548803
v    25.181801 5.710983 227.166742
v    28.878459 8.202120 231.081143
v    31.453496 9.996988 233.833328
v    40.544872 16.154157 240.199044
v    49.180255 22.219422 243.190016
v    53.403772 25.417087 243.588486
v    57.178747 29.234157 243.548803
v    23.129841 10.167535 229.236910
v    22.040024 10.461671 229.236910
v    22.330203 9.370794 229.236910
v    21.870204 9.832465 241.062510
v    22.960021 9.538329 241.062510
v    22.669842 10.629206 241.062510
v    24.292697 3.477988 238.768783
v    16.007122 2.026718 246.155296
v    4.672559 -0.091852 252.847811
v    -9.154746 -2.601863 256.995102
v    -13.078354 -3.328414 256.964461
v    -21.648502 -4.696410 256.897968
v    -24.963784 -5.210908 255.910489
v    -30.619198 -5.857895 254.243538
v    -36.338888 -5.651513 252.623134
v    20.815269 16.550720 238.768783
v    12.903700 13.693449 246.155296
v    2.014564 9.900379 252.847811
v    -11.232346 5.208482 256.995102
v    -14.998375 3.889542 256.964461
v    -23.115532 0.818612 256.897968
v    -26.248276 -0.382105 255.910489
v    -31.477692 -2.630550 254.243538
v    -36.338888 -5.651513 252.623134
v    22.106593 9.836683 241.062510
v    22.838174 9.740938 241.062510
v    22.555301 10.422378 241.062510
v    22.893452 10.163317 243.711000
v    22.161871 10.259062 243.711000
v    22.444744 9.577622 243.711000
v    20.065349 14.742105 238.661908
v    26.559717 16.435427 248.676377
v    29.816111 17.387733 252.076536
v    37.448150 19.332943 259.934696
v    39.096393 19.799971 260.919004
v    44.490274 21.073720 264.083685
v    49.905388 21.440421 267.058519
v    50.109228 21.460868 267.109564
v    24.139388 4.927754 238.661908
v    29.923756 8.331463 248.676377
v    32.897260 9.965252 252.076536
v    39.663236 13.996808 259.934696
v    41.157678 14.834341 260.919004
v    45.867940 17.754926 264.083685
v    49.950832 21.330947 267.058519
v    50.109228 21.460868 267.109564
mtllib usm_6_2.5D_2018-09-09_0.mtl
usemtl APPID_2590537952_3004746561136 
o vid_3 
f 3 2 1
f 4 5 6
f 1 6 5
f 1 5 3
f 3 5 4
f 4 2 3
f 2 4 6
f 6 1 2
usemtl APPID_2590538064_3004746558448 
o vid_4 
f 7 16 17
f 8 17 18
f 9 18 19
f 10 19 20
f 11 20 21
f 12 21 22
f 13 22 23
f 7 17 8
f 8 18 9
f 9 19 10
f 10 20 11
f 11 21 12
f 12 22 13
f 13 23 14
f 14 23 24
usemtl APPID_2590537952_3004746561136 
o vid_5 
f 27 26 25
f 28 29 30
f 25 30 29
f 25 29 27
f 27 29 28
f 28 26 27
f 26 28 30
f 30 25 26
usemtl APPID_2590538064_3004746558448 
o vid_6 
f 31 40 41
f 32 41 42
f 33 42 43
f 34 43 44
f 35 44 45
f 36 45 46
f 37 46 47
f 31 41 32
f 32 42 33
f 33 43 34
f 34 44 35
f 35 45 36
f 36 46 37
f 37 47 38
f 38 47 48
usemtl APPID_2590537952_3004746561136 
o vid_7 
f 51 50 49
f 52 53 54
f 49 54 53
f 49 53 51
f 51 53 52
f 52 50 51
f 50 52 54
f 54 49 50
usemtl APPID_2590538064_3004746558448 
o vid_8 
f 55 63 64
f 56 64 65
f 57 65 66
f 58 66 67
f 59 67 68
f 60 68 69
f 55 64 56
f 56 65 57
f 57 66 58
f 58 67 59
f 59 68 60
f 60 69 61
f 61 69 70
usemtl APPID_2590537952_3004746561136 
o vid_9 
f 73 72 71
f 74 75 76
f 71 76 75
f 71 75 73
f 73 75 74
f 74 72 73
f 72 74 76
f 76 71 72
usemtl APPID_2590538064_3004746558448 
o vid_10 
f 77 86 87
f 78 87 88
f 79 88 89
f 80 89 90
f 81 90 91
f 82 91 92
f 83 92 93
f 77 87 78
f 78 88 79
f 79 89 80
f 80 90 81
f 81 91 82
f 82 92 83
f 83 93 84
f 84 93 94
usemtl APPID_2590537952_3004746561136 
o vid_11 
f 97 96 95
f 98 99 100
f 95 100 99
f 95 99 97
f 97 99 98
f 98 96 97
f 96 98 100
f 100 95 96
usemtl APPID_2590538064_3004746558448 
o vid_12 
f 101 112 113
f 102 113 114
f 103 114 115
f 104 115 116
f 105 116 117
f 106 117 118
f 107 118 119
f 108 119 120
f 109 120 121
f 101 113 102
f 102 114 103
f 103 115 104
f 104 116 105
f 105 117 106
f 106 118 107
f 107 119 108
f 108 120 109
f 109 121 110
f 110 121 122
usemtl APPID_2590537952_3004746561136 
o vid_13 
f 125 124 123
f 126 127 128
f 123 128 127
f 123 127 125
f 125 127 126
f 126 124 125
f 124 126 128
f 128 123 124
usemtl APPID_2590538064_3004746558448 
o vid_14 
f 129 139 140
f 130 140 141
f 131 141 142
f 132 142 143
f 133 143 144
f 134 144 145
f 135 145 146
f 136 146 147
f 129 140 130
f 130 141 131
f 131 142 132
f 132 143 133
f 133 144 134
f 134 145 135
f 135 146 136
f 136 147 137
f 137 147 148
usemtl APPID_2590537952_3004746561136 
o vid_15 
f 151 150 149
f 152 153 154
f 149 154 153
f 149 153 151
f 151 153 152
f 152 150 151
f 150 152 154
f 154 149 150
usemtl APPID_2590538064_3004746558448 
o vid_16 
f 155 163 164
f 156 164 165
f 157 165 166
f 158 166 167
f 159 167 168
f 160 168 169
f 155 164 156
f 156 165 157
f 157 166 158
f 158 167 159
f 159 168 160
f 160 169 161
f 161 169 170
usemtl APPID_2590537952_3004746561136 
o vid_17 
f 173 172 171
f 174 175 176
f 171 176 175
f 171 175 173
f 173 175 174
f 174 172 173
f 172 174 176
f 176 171 172
usemtl APPID_2590538064_3004746558448 
o vid_18 
f 177 185 186
f 178 186 187
f 179 187 188
f 180 188 189
f 181 189 190
f 182 190 191
f 177 186 178
f 178 187 179
f 179 188 180
f 180 189 181
f 181 190 182
f 182 191 183
f 183 191 192
usemtl APPID_2590537952_3004746561136 
o vid_19 
f 195 194 193
f 196 197 198
f 193 198 197
f 193 197 195
f 195 197 196
f 196 194 195
f 194 196 198
f 198 193 194
usemtl APPID_2590538064_3004746558448 
o vid_20 
f 199 206 207
f 200 207 208
f 201 208 209
f 202 209 210
f 203 210 211
f 199 207 200
f 200 208 201
f 201 209 202
f 202 210 203
f 203 211 204
f 204 211 212
usemtl APPID_2590537952_3004746561136 
o vid_21 
f 215 214 213
f 216 217 218
f 213 218 217
f 213 217 215
f 215 217 216
f 216 214 215
f 214 216 218
f 218 213 214
usemtl APPID_2590538064_3004746558448 
o vid_22 
f 219 228 229
f 220 229 230
f 221 230 231
f 222 231 232
f 223 232 233
f 224 233 234
f 225 234 235
f 219 229 220
f 220 230 221
f 221 231 222
f 222 232 223
f 223 233 224
f 224 234 225
f 225 235 226
f 226 235 236
usemtl APPID_2590537952_3004746561136 
o vid_23 
f 239 238 237
f 240 241 242
f 237 242 241
f 237 241 239
f 239 241 240
f 240 238 239
f 238 240 242
f 242 237 238
usemtl APPID_2590538064_3004746558448 
o vid_24 
f 243 251 252
f 244 252 253
f 245 253 254
f 246 254 255
f 247 255 256
f 248 256 257
f 243 252 244
f 244 253 245
f 245 254 246
f 246 255 247
f 247 256 248
f 248 257 249
f 249 257 258
