# File generated by PlantGL - Fri Sep  4 14:43:52 2026
v    18.500005 19.269303 0.000000
v    21.382799 19.066315 0.000000
v    20.117196 21.664382 0.000000
v    21.499995 20.730697 0.231332
v    18.617201 20.933685 0.231332
v    19.882804 18.335618 0.231332
v    20.704058 20.702472 -2.285194
v    21.769901 20.862177 -1.307020
v    20.987134 20.121364 -2.285194
v    21.769901 20.862177 -1.307020
v    21.019408 20.816600 0.231332
v    18.783100 20.474533 0.231332
v    20.197492 18.708867 0.231332
v    18.980592 19.183400 0.322458
v    21.216900 19.525467 0.322458
v    19.802508 21.291133 0.322458
v    19.808716 19.313903 -2.194069
v    18.516139 18.811348 -0.935356
v    19.288695 19.963074 -2.194069
v    18.516139 18.811348 -0.935356
v    19.098854 19.649872 0.322458
v    20.753792 19.394648 0.322458
v    20.147354 20.955479 0.322458
v    20.901146 20.350128 0.466406
v    19.246208 20.605352 0.466406
v    19.852646 19.044521 0.466406
v    20.013032 20.626003 -2.050120
v    21.938885 20.753326 -0.298373
v    20.432260 19.547009 -2.050120
v    21.938885 20.753326 -0.298373
v    20.632910 20.149719 0.466406
v    19.553885 20.473257 0.466406
v    19.813205 19.377024 0.466406
v    19.367090 19.850281 0.563000
v    20.446115 19.526743 0.563000
v    20.186795 20.622976 0.563000
v    20.249601 19.655027 -4.571804
v    19.264508 19.826015 -3.110554
v    20.068585 20.420241 -4.571804
v    19.264508 19.826015 -3.110554
mtllib usm_10_2.5D_2018-07-16_0.mtl
usemtl APPID_3007496096_1759648335328 
o vid_3 
f 3 2 1
f 4 5 6
f 1 6 5
f 1 5 3
f 3 5 4
f 4 2 3
f 2 4 6
f 6 1 2
usemtl APPID_3007490608_1759648336992 
o vid_4 
f 7 9 10
f 7 10 8
f 7 9 10
usemtl APPID_3007496096_1759648335328 
o vid_5 
f 13 12 11
f 14 15 16
f 11 16 15
f 11 15 13
f 13 15 14
f 14 12 13
f 12 14 16
f 16 11 12
usemtl APPID_3007490608_1759648336992 
o vid_6 
f 17 19 20
f 17 20 18
f 17 19 20
usemtl APPID_3007496096_1759648335328 
o vid_7 
f 23 22 21
f 24 25 26
f 21 26 25
f 21 25 23
f 23 25 24
f 24 22 23
f 22 24 26
f 26 21 22
usemtl APPID_3007490608_1759648336992 
o vid_8 
f 27 29 30
f 27 30 28
f 27 29 30
usemtl APPID_3007496096_1759648335328 
o vid_9 
f 33 32 31
f 34 35 36
f 31 36 35
f 31 35 33
f 33 35 34
f 34 32 33
f 32 34 36
f 36 31 32
usemtl APPID_3007490608_1759648336992 
o vid_10 
f 37 39 40
f 37 40 38
f 37 39 40
