# File generated by PlantGL - Fri Sep  4 14:41:14 2026
v    118.686434 59.360119 0.000000
v    121.210936 59.182359 0.000000
v    120.102630 61.457522 0.000000
v    121.313566 60.639881 0.231332
v    118.789064 60.817641 0.231332
v    119.897370 58.542478 0.231332
v    121.030009 61.012536 -0.085763
v    121.951788 61.337107 0.837883
v    122.808622 61.628044 1.403329
v    123.053823 61.675297 1.555212
v    123.773365 61.838130 1.737101
v    121.432208 60.186890 -0.085763
v    122.255987 60.712639 0.837883
v    123.013249 61.207980 1.403329
v    123.201604 61.371927 1.555212
v    123.773365 61.838130 1.737101
v    120.863511 60.691718 0.231332
v    118.969199 60.401963 0.231332
v    120.167290 58.906319 0.231332
v    119.136489 59.308282 0.322957
v    121.030801 59.598037 0.322957
v    119.832710 61.093681 0.322957
v    119.621734 58.908830 -0.122956
v    118.614894 58.276697 1.000662
v    118.453789 58.183178 1.175914
v    117.633899 57.683679 1.775671
v    117.017877 57.414134 2.184652
v    116.410894 57.124935 2.350422
v    118.852577 59.869012 -0.122956
v    118.015932 59.024415 1.000662
v    117.889505 58.887606 1.175914
v    117.223099 58.196503 1.775671
v    116.825600 57.654163 2.184652
v    116.410894 57.124935 2.350422
v    119.277936 59.719452 0.322957
v    120.603994 59.514948 0.322957
v    120.118071 60.765600 0.322957
v    120.722064 60.280548 0.396475
v    119.396006 60.485052 0.396475
v    119.881929 59.234400 0.396475
v    120.312802 60.843960 -0.216946
v    121.791242 61.180828 1.210230
v    122.186598 61.206966 1.569845
v    123.460919 61.344691 2.349438
v    120.800548 59.588617 -0.216946
v    122.118600 60.338286 1.210230
v    122.427893 60.585930 1.569845
v    123.460919 61.344691 2.349438
v    120.453365 60.107246 0.396475
v    119.680439 60.339003 0.396475
v    119.866195 59.553751 0.396475
v    119.546635 59.892754 0.422000
v    120.319561 59.660997 0.422000
v    120.133805 60.446249 0.422000
v    119.513185 59.376528 -1.169148
v    119.277961 59.829197 0.999283
v    119.285441 60.339280 -1.169148
v    119.277961 59.829197 0.999283
mtllib usm_1_Beer_2018-07-14_3.mtl
usemtl APPID_1291980976_2556943021664 
o vid_3 
f 3 2 1
f 4 5 6
f 1 6 5
f 1 5 3
f 3 5 4
f 4 2 3
f 2 4 6
f 6 1 2
usemtl APPID_1291982208_2556943022816 
o vid_4 
f 7 12 13
f 8 13 14
f 9 14 15
f 7 13 8
f 8 14 9
f 9 15 10
f 10 15 16
usemtl APPID_1291980976_2556943021664 
o vid_5 
f 19 18 17
f 20 21 22
f 17 22 21
f 17 21 19
f 19 21 20
f 20 18 19
f 18 20 22
f 22 17 18
usemtl APPID_1291982208_2556943022816 
o vid_6 
f 23 29 30
f 24 30 31
f 25 31 32
f 26 32 33
f 23 30 24
f 24 31 25
f 25 32 26
f 26 33 27
f 27 33 34
usemtl APPID_1291980976_2556943021664 
o vid_7 
f 37 36 35
f 38 39 40
f 35 40 39
f 35 39 37
f 37 39 38
f 38 36 37
f 36 38 40
f 40 35 36
usemtl APPID_1291982208_2556943022816 
o vid_8 
f 41 45 46
f 42 46 47
f 41 46 42
f 42 47 43
f 43 47 48
usemtl APPID_1291980976_2556943021664 
o vid_9 
f 51 50 49
f 52 53 54
f 49 54 53
f 49 53 51
f 51 53 52
f 52 50 51
f 50 52 54
f 54 49 50
usemtl APPID_1291982208_2556943022816 
o vid_10 
f 55 57 58
f 55 58 56
f 55 57 58
