# File generated by PlantGL - Fri Sep  4 14:42:49 2026
v    27.752484 18.905161 0.000000
v    32.071916 18.601013 0.000000
v    30.175600 22.493825 0.000000
v    32.247516 21.094839 0.848509
v    27.928084 21.398987 0.848509
v    29.824400 17.506175 0.848509
v    32.061919 21.449648 0.688896
v    32.416737 21.584925 1.041761
v    32.499693 21.615003 1.123626
v    32.412491 20.729984 0.688896
v    32.737729 20.925984 1.041761
v    32.812548 20.972764 1.123626
v    31.879284 21.505407 0.848509
v    27.756638 20.874804 0.848509
v    30.364078 17.619789 0.848509
v    28.120716 18.494593 1.417165
v    32.243362 19.125196 1.417165
v    29.635922 22.380211 1.417165
v    28.492678 18.056063 1.192603
v    28.149993 17.828434 1.574894
v    27.773942 18.953301 1.192603
v    27.477007 18.668560 1.574894
v    27.841416 19.161313 1.417165
v    31.805616 18.549955 1.417165
v    30.352968 22.288732 1.417165
v    32.158584 20.838687 2.253270
v    28.194384 21.450045 2.253270
v    29.647032 17.711268 2.253270
v    31.872470 21.513602 1.943436
v    32.102743 21.580200 2.166186
v    32.297199 21.632996 2.353127
v    32.403193 20.147646 1.943436
v    32.618024 20.253987 2.166186
v    32.797115 20.346328 2.353127
v    32.163962 20.511898 2.253270
v    28.474702 21.618097 2.253270
v    29.361335 17.870005 2.253270
v    27.836038 19.488102 4.110583
v    31.525298 18.381903 4.110583
v    30.638665 22.129995 4.110583
v    28.103427 18.488620 3.691355
v    27.306406 18.373674 4.439649
v    26.980431 18.332113 4.744525
v    27.627280 20.501454 3.691355
v    26.863232 20.247120 4.439649
v    26.553184 20.138226 4.744525
v    28.595695 18.396392 4.110583
v    32.090917 19.585640 4.110583
v    29.313387 22.017967 4.110583
v    31.404305 21.603608 5.802469
v    27.909083 20.414360 5.802469
v    30.686613 17.982033 5.802469
v    30.354088 22.470165 5.246181
v    30.976646 23.064854 6.046218
v    32.401852 20.676906 5.246181
v    32.909202 21.372485 6.046218
v    31.718982 21.097521 5.802469
v    28.190028 20.939922 5.802469
v    30.090990 17.962557 5.802469
v    28.281018 18.902479 11.491337
v    31.809972 19.060078 11.491337
v    29.909010 22.037443 11.491337
v    29.316374 17.377522 10.767441
v    28.720780 17.068075 11.391140
v    27.333347 20.483420 10.767441
v    26.801999 20.073347 11.391140
v    28.420020 18.861621 11.491337
v    31.775855 19.200887 11.491337
v    29.804125 21.937492 11.491337
v    31.579980 21.138379 18.288302
v    28.224145 20.799113 18.288302
v    30.195875 18.062508 18.288302
v    30.149981 23.009548 17.364497
v    30.442467 23.183008 17.680492
v    32.902262 19.189601 17.364497
v    33.159389 19.412137 17.680492
v    31.554633 21.012481 18.288302
v    28.345849 20.840111 18.288302
v    30.099518 18.147408 18.288302
v    28.445367 18.987519 30.794890
v    31.654151 19.159889 30.794890
v    29.900482 21.852592 30.794890
v    30.280001 16.322724 29.638746
v    27.916807 15.067650 32.125232
v    26.749962 21.742990 29.638746
v    24.646512 20.089087 32.125232
v    28.458123 19.144816 30.794890
v    31.511550 19.092287 30.794890
v    30.030327 21.762897 30.794890
v    31.541877 20.855184 44.711923
v    28.488450 20.907713 44.711923
v    29.969673 18.237103 44.711923
v    29.614877 24.119302 43.292959
v    30.462208 24.494999 44.154269
v    33.290546 17.492158 43.292959
v    34.057911 18.012033 44.154269
v    31.614895 20.429572 44.711923
v    28.820532 21.183754 44.711923
v    29.564573 18.386674 44.711923
v    28.385105 19.570428 65.907215
v    31.179468 18.816246 65.907215
v    30.435427 21.613326 65.907215
v    29.700343 15.103440 64.199330
v    28.594344 14.912527 65.242279
v    27.307066 24.100512 64.199330
v    26.252387 23.716671 65.242279
v    28.541706 19.394647 65.907215
v    31.253398 19.039757 65.907215
v    30.204896 21.565597 65.907215
v    31.458294 20.605353 85.978160
v    28.746602 20.960243 85.978160
v    29.795104 18.434403 85.978160
v    29.319045 25.380966 83.962240
v    31.118693 25.946370 85.715154
v    33.329966 15.718666 83.962240
v    35.000972 16.593967 85.715154
v    31.148136 20.944713 85.978160
v    28.607786 20.521958 85.978160
v    30.244078 18.533328 85.978160
v    28.851864 19.055287 109.789637
v    31.392214 19.478042 109.789637
v    29.755922 21.466672 109.789637
v    32.995822 14.282925 107.456094
v    32.008640 13.608355 108.567149
v    24.966871 24.040732 107.456094
v    24.114818 23.201936 108.567149
v    29.036323 18.991726 109.789637
v    31.355030 19.669568 109.789637
v    29.608648 21.338706 109.789637
v    30.963677 21.008274 131.013157
v    28.644970 20.330432 131.013157
v    30.391352 18.661294 131.013157
v    25.736993 25.740467 128.364132
v    31.833478 31.076244 135.892643
v    35.927321 16.000868 128.364132
v    40.982031 22.332341 135.892643
v    30.912312 20.929805 131.013157
v    28.738610 20.325183 131.013157
v    30.349079 18.745013 131.013157
v    29.087688 19.070195 145.637307
v    31.261390 19.674817 145.637307
v    29.650921 21.254987 145.637307
v    34.439688 14.115768 142.688246
v    29.999634 10.331418 148.109477
v    27.202216 8.025316 151.473006
v    26.226884 7.200919 152.332628
v    24.032516 24.327141 142.688246
v    20.333169 19.816021 148.109477
v    18.080607 16.975312 151.473006
v    17.274882 15.984500 152.332628
v    29.188946 19.101354 145.637307
v    31.183778 19.746930 145.637307
v    29.627277 21.151717 145.637307
v    30.811054 20.898646 155.695417
v    28.816222 20.253070 155.695417
v    30.372723 18.848283 155.695417
v    24.984809 25.845354 152.475762
v    27.021089 27.732978 155.055928
v    32.646380 32.778462 162.066574
v    36.670124 36.477816 165.745772
v    36.327284 15.608442 152.475762
v    37.996924 17.826970 155.055928
v    42.441106 23.938438 162.066574
v    45.709878 28.319177 165.745772
v    31.097812 20.213714 155.695417
v    29.266012 20.843876 155.695417
v    29.636176 18.942409 155.695417
v    28.902188 19.786286 163.858218
v    30.733988 19.156124 163.858218
v    30.363824 21.057591 163.858218
v    30.776167 11.456280 160.411050
v    23.845511 10.738390 166.885821
v    19.771751 10.383904 170.679586
v    4.372032 8.852738 181.096589
v    2.221547 8.612753 181.790170
v    27.514485 28.210956 160.411050
v    20.820655 26.276527 166.885821
v    16.911414 25.076938 170.679586
v    2.061913 20.719399 181.096589
v    -0.021552 20.135149 181.790170
v    29.208315 19.346885 163.858218
v    30.961457 19.640938 163.858218
v    29.830228 21.012177 163.858218
v    30.791685 20.653115 168.355226
v    29.038543 20.359062 168.355226
v    30.169772 18.987823 168.355226
v    25.345782 26.845766 164.735770
v    35.038968 33.256328 175.517522
v    46.735757 41.200548 185.035133
v    35.836340 14.129447 164.735770
v    43.972431 22.427469 175.517522
v    53.995048 32.401067 185.035133
v    30.747035 20.560971 168.355226
v    29.140667 20.366465 168.355226
v    30.112298 19.072563 168.355226
v    29.252965 19.439029 170.840985
v    30.859333 19.633535 170.840985
v    29.887702 20.927437 170.840985
v    34.178740 13.325457 167.114050
v    23.906675 7.187243 178.215964
v    13.498066 0.792335 186.438915
v    24.755489 25.874223 167.114050
v    15.996325 17.721307 178.215964
v    6.952574 9.508845 186.438915
v    29.310251 19.516898 170.840985
v    30.763253 19.644211 170.840985
v    29.926496 20.838891 170.840985
v    30.689749 20.483102 172.689868
v    29.236747 20.355789 172.689868
v    30.073504 19.161109 172.689868
v    25.593587 27.287753 168.926402
v    36.165786 33.139460 180.137135
v    50.846318 41.502736 191.509959
v    55.322608 44.124651 193.172770
v    35.342903 13.368168 168.926402
v    44.455536 21.303770 180.137135
v    57.332616 32.241924 191.509959
v    61.326525 35.552559 193.172770
v    30.610549 20.435580 172.689868
v    29.317502 20.310961 172.689868
v    30.071949 19.253459 172.689868
v    29.389451 19.564420 173.874000
v    30.682498 19.689039 173.874000
v    29.928051 20.746541 173.874000
v    34.527389 12.823736 170.147065
v    24.108520 6.938148 181.248979
v    9.642942 -1.469857 192.511410
v    3.884709 -4.910143 194.661440
v    2.133125 -5.864436 195.298233
v    24.687536 26.616173 170.147065
v    15.731927 18.679545 181.248979
v    3.074367 7.737257 192.511410
v    -2.052434 3.411899 194.661440
v    -3.524763 2.066175 195.298233
v    32.499693 21.615003 1.123626
v    33.211565 21.882486 1.646695
v    33.981711 22.183120 1.911694
v    34.619912 22.403488 2.127242
v    35.181894 22.524270 2.120845
v    32.812548 20.972764 1.123626
v    33.461984 21.368418 1.646695
v    34.173445 21.789523 1.911694
v    34.740369 22.156211 2.127242
v    35.181894 22.524270 2.120845
v    28.149993 17.828434 1.574894
v    27.938217 17.687762 1.811146
v    27.050441 17.104102 2.540139
v    25.945047 16.357155 2.967763
v    25.283412 15.947340 3.216224
v    24.396988 15.511689 3.205174
v    27.477007 18.668560 1.574894
v    27.293504 18.492593 1.811146
v    26.530150 17.753610 2.540139
v    25.559949 16.837894 2.967763
v    25.015606 16.281656 3.216224
v    24.396988 15.511689 3.205174
v    32.297199 21.632996 2.353127
v    32.831088 21.777949 2.866381
v    34.168869 22.158899 3.802670
v    35.086703 22.432245 4.109636
v    36.404328 22.768354 4.543753
v    37.017407 22.836642 4.735483
v    37.432903 22.887949 4.730831
v    32.797115 20.346328 2.353127
v    33.288820 20.599854 2.866381
v    34.532872 21.222040 3.802670
v    35.394490 21.640075 4.109636
v    36.593400 22.281729 4.543753
v    37.091760 22.645275 4.735483
v    37.432903 22.887949 4.730831
v    26.980431 18.332113 4.744525
v    24.907358 18.044451 6.207033
v    23.007751 17.755112 6.822943
v    21.179236 17.550453 7.410335
v    19.747909 17.574809 7.455395
v    26.553184 20.138226 4.744525
v    24.570945 19.466581 6.207033
v    22.743035 18.874154 6.822943
v    21.016623 18.237874 7.410335
v    19.747909 17.574809 7.455395
v    30.976646 23.064854 6.046218
v    31.654026 23.692766 6.903269
v    33.466982 25.410363 8.584316
v    35.177866 27.070777 9.348510
v    36.995983 28.700258 10.127940
v    38.555842 29.770112 10.242795
v    32.909202 21.372485 6.046218
v    33.442251 22.126790 6.903269
v    34.905631 24.150515 8.584316
v    36.325795 26.065517 9.348510
v    37.701149 28.082733 10.127940
v    38.555842 29.770112 10.242795
v    28.720780 17.068075 11.391140
v    27.516664 16.442463 12.652077
v    24.364613 14.825255 15.111346
v    20.699423 12.883939 16.440780
v    18.299006 11.732079 17.290767
v    15.452730 10.711983 17.256982
v    26.801999 20.073347 11.391140
v    25.727770 19.244301 12.652077
v    22.934303 17.065465 15.111346
v    19.630886 14.557525 16.440780
v    17.575854 12.864708 17.290767
v    15.452730 10.711983 17.256982
v    30.442467 23.183008 17.680492
v    32.403165 24.345816 19.798787
v    36.276242 26.616419 22.908003
v    40.842257 29.373456 24.617673
v    43.782332 30.993131 25.689286
v    47.373499 32.517647 25.645680
v    33.159389 19.412137 17.680492
v    34.883057 20.903924 19.798787
v    38.262913 23.859076 22.908003
v    42.323539 27.317554 24.617673
v    44.790600 29.593734 25.689286
v    47.373499 32.517647 25.645680
v    27.916807 15.067650 32.125232
v    27.006810 14.584358 33.082705
v    24.212000 13.062555 35.227442
v    22.438166 12.129815 36.576458
v    12.888125 6.960458 40.057241
v    8.093215 4.570442 39.996246
v    5.969550 3.844116 39.971309
v    4.357280 3.299750 39.669872
v    24.646512 20.089087 32.125232
v    23.836535 19.452218 33.082705
v    21.314610 17.511408 35.227442
v    19.744275 16.266202 36.576458
v    11.154813 9.621905 40.057241
v    7.030079 6.202854 39.996246
v    5.507078 4.554228 39.971309
v    4.357280 3.299750 39.669872
v    30.462208 24.494999 44.154269
v    33.773134 25.963030 47.519815
v    35.238658 26.631164 48.605330
v    39.595814 28.541686 51.807785
v    49.367284 32.967210 55.246121
v    51.787064 33.949376 56.079836
v    55.295818 35.397066 56.036624
v    60.009169 36.644241 55.982453
v    34.057911 18.012033 44.154269
v    37.056372 20.043431 47.519815
v    38.399143 20.932885 48.605330
v    42.326945 23.617521 51.807785
v    51.255097 29.563528 55.246121
v    53.369537 31.096215 56.079836
v    56.455491 33.306204 56.036624
v    60.009169 36.644241 55.982453
v    28.594344 14.912527 65.242279
v    24.305282 14.172168 69.286832
v    21.217372 13.605990 71.402666
v    16.756144 12.854786 74.447892
v    2.692901 10.312362 79.028700
v    -5.007570 9.198856 79.521221
v    -10.260840 9.134423 79.462849
v    -10.866065 9.129375 79.355637
v    26.252387 23.716671 65.242279
v    22.162344 22.228137 69.286832
v    19.201244 21.185242 71.402666
v    14.956402 19.620577 74.447892
v    1.488633 14.839582 79.028700
v    -5.747345 11.979901 79.521221
v    -10.338322 9.425703 79.462849
v    -10.866065 9.129375 79.355637
v    31.118693 25.946370 85.715154
v    35.484230 27.317912 89.967328
v    44.127498 29.999725 96.059241
v    56.509232 33.997795 100.229770
v    62.237198 35.599354 102.128538
v    65.163935 36.435828 102.093884
v    72.017207 37.441778 102.016924
v    35.000972 16.593967 85.715154
v    39.054455 18.717247 89.967328
v    47.056036 22.944883 96.059241
v    58.629220 28.890748 100.229770
v    63.807505 31.816487 102.128538
v    66.466231 33.298598 102.093884
v    72.017207 37.441778 102.016924
v    32.008640 13.608355 108.567149
v    26.819592 10.062531 114.407327
v    23.742121 7.912284 116.937558
v    18.180539 4.145346 121.459066
v    2.651379 -6.647621 127.520814
v    0.105893 -8.270879 128.484625
v    -6.262693 -12.383755 128.398315
v    -13.355630 -15.729754 128.311179
v    -13.512236 -15.802881 128.280563
v    24.114818 23.201936 108.567149
v    19.636067 18.792870 114.407327
v    16.933413 16.187095 116.937558
v    12.165944 11.455050 121.459066
v    -1.415581 -1.704932 127.520814
v    -3.498660 -3.890166 128.484625
v    -8.761003 -9.347489 128.398315
v    -13.410319 -15.663289 128.311179
v    -13.512236 -15.802881 128.280563
v    31.833478 31.076244 135.892643
v    34.125038 33.118930 138.061191
v    41.079915 39.155674 144.260225
v    55.763314 52.213770 150.558650
v    59.823930 55.545980 152.235598
v    64.970939 59.819393 152.159437
v    72.681304 64.656507 152.058307
v    40.982031 22.332341 135.892643
v    42.919032 24.713904 138.061191
v    48.635186 31.934580 144.260225
v    61.016120 47.193301 150.558650
v    64.161351 51.400407 152.235598
v    68.197707 56.735347 152.159437
v    72.681304 64.656507 152.058307
v    26.226884 7.200919 152.332628
v    17.090874 -0.521269 160.384779
v    6.706846 -9.514779 164.788015
v    -3.405358 -17.593434 168.920025
v    -12.021238 -22.826977 169.163740
v    17.274882 15.984500 152.332628
v    9.727586 6.703488 160.384779
v    0.932898 -3.849461 164.788015
v    -6.952262 -14.113262 168.920025
v    -12.021238 -22.826977 169.163740
v    36.670124 36.477816 165.745772
v    43.286999 42.561243 171.796054
v    50.801994 49.639128 175.105032
v    61.464848 58.911527 179.616177
v    66.516280 62.198933 181.489415
v    70.467735 64.838159 181.436619
v    45.709878 28.319177 165.745772
v    51.085232 35.523112 171.796054
v    57.358052 43.722096 175.105032
v    65.492197 55.276728 179.616177
v    68.246151 60.637674 181.489415
v    70.467735 64.838159 181.436619
v    2.221547 8.612753 181.790170
v    -11.778245 7.050437 186.305424
v    -26.868771 5.970459 191.135344
v    -38.642837 6.637095 191.356031
v    -0.021552 20.135149 181.790170
v    -13.585044 16.331638 186.305424
v    -27.978678 11.671847 191.135344
v    -38.642837 6.637095 191.356031
v    46.735757 41.200548 185.035133
v    48.480921 42.385827 186.455163
v    53.982102 46.219651 188.604438
v    67.364853 54.777907 193.675756
v    78.115998 59.710214 197.352198
v    78.161641 59.731817 197.351636
v    53.995048 32.401067 185.035133
v    55.490425 33.889130 186.455163
v    60.299974 38.561329 188.604438
v    71.245885 50.073443 193.675756
v    78.131756 59.691112 197.352198
v    78.161641 59.731817 197.351636
v    13.498066 0.792335 186.438915
v    10.394732 -1.114312 188.890594
v    -3.669811 -9.210330 194.378998
v    -15.006632 -13.796853 198.180044
v    6.952574 9.508845 186.438915
v    4.256172 7.060292 188.890594
v    -7.440694 -4.188717 194.378998
v    -15.006632 -13.796853 198.180044
v    55.322608 44.124651 193.172770
v    70.653786 52.345074 198.727721
v    82.248733 56.595158 202.566025
v    61.326525 35.552559 193.172770
v    74.291729 47.151001 198.727721
v    82.248733 56.595158 202.566025
v    2.133125 -5.864436 195.298233
v    -10.478857 -12.735658 199.883350
v    -21.924280 -17.044022 203.684396
v    -3.524763 2.066175 195.298233
v    -14.126011 -7.623475 199.883350
v    -21.924280 -17.044022 203.684396
mtllib usm_3_2.5D_2018-09-15_2.mtl
usemtl APPID_877185568_2277208187888 
o vid_3 
f 3 2 1
f 4 5 6
f 1 6 5
f 1 5 3
f 3 5 4
f 4 2 3
f 2 4 6
f 6 1 2
usemtl APPID_877185680_2277208189552 
o vid_4 
f 7 10 11
f 7 11 8
f 8 11 12
f 8 12 9
usemtl APPID_877185568_2277208187888 
o vid_5 
f 15 14 13
f 16 17 18
f 13 18 17
f 13 17 15
f 15 17 16
f 16 14 15
f 14 16 18
f 18 13 14
usemtl APPID_877185680_2277208189552 
o vid_6 
f 19 21 22
f 19 22 20
f 19 21 22
f 19 22 20
usemtl APPID_877185568_2277208187888 
o vid_7 
f 25 24 23
f 26 27 28
f 23 28 27
f 23 27 25
f 25 27 26
f 26 24 25
f 24 26 28
f 28 23 24
usemtl APPID_877185680_2277208189552 
o vid_8 
f 29 32 33
f 29 33 30
f 30 33 34
f 30 34 31
usemtl APPID_877185568_2277208187888 
o vid_9 
f 37 36 35
f 38 39 40
f 35 40 39
f 35 39 37
f 37 39 38
f 38 36 37
f 36 38 40
f 40 35 36
usemtl APPID_877185680_2277208189552 
o vid_10 
f 41 44 45
f 41 45 42
f 42 45 46
f 42 46 43
usemtl APPID_877185568_2277208187888 
o vid_11 
f 49 48 47
f 50 51 52
f 47 52 51
f 47 51 49
f 49 51 50
f 50 48 49
f 48 50 52
f 52 47 48
usemtl APPID_877185680_2277208189552 
o vid_12 
f 53 55 56
f 53 56 54
f 53 55 56
f 53 56 54
usemtl APPID_877185568_2277208187888 
o vid_13 
f 59 58 57
f 60 61 62
f 57 62 61
f 57 61 59
f 59 61 60
f 60 58 59
f 58 60 62
f 62 57 58
usemtl APPID_877185680_2277208189552 
o vid_14 
f 63 65 66
f 63 66 64
f 63 65 66
f 63 66 64
usemtl APPID_877185568_2277208187888 
o vid_15 
f 69 68 67
f 70 71 72
f 67 72 71
f 67 71 69
f 69 71 70
f 70 68 69
f 68 70 72
f 72 67 68
usemtl APPID_877185680_2277208189552 
o vid_16 
f 73 75 76
f 73 76 74
f 73 75 76
f 73 76 74
usemtl APPID_877185568_2277208187888 
o vid_17 
f 79 78 77
f 80 81 82
f 77 82 81
f 77 81 79
f 79 81 80
f 80 78 79
f 78 80 82
f 82 77 78
usemtl APPID_877185680_2277208189552 
o vid_18 
f 83 85 86
f 83 86 84
f 83 85 86
f 83 86 84
usemtl APPID_877185568_2277208187888 
o vid_19 
f 89 88 87
f 90 91 92
f 87 92 91
f 87 91 89
f 89 91 90
f 90 88 89
f 88 90 92
f 92 87 88
usemtl APPID_877185680_2277208189552 
o vid_20 
f 93 95 96
f 93 96 94
f 93 95 96
f 93 96 94
usemtl APPID_877185568_2277208187888 
o vid_21 
f 99 98 97
f 100 101 102
f 97 102 101
f 97 101 99
f 99 101 100
f 100 98 99
f 98 100 102
f 102 97 98
usemtl APPID_877185680_2277208189552 
o vid_22 
f 103 105 106
f 103 106 104
f 103 105 106
f 103 106 104
usemtl APPID_877185568_2277208187888 
o vid_23 
f 109 108 107
f 110 111 112
f 107 112 111
f 107 111 109
f 109 111 110
f 110 108 109
f 108 110 112
f 112 107 108
usemtl APPID_877185680_2277208189552 
o vid_24 
f 113 115 116
f 113 116 114
f 113 115 116
f 113 116 114
usemtl APPID_877185568_2277208187888 
o vid_25 
f 119 118 117
f 120 121 122
f 117 122 121
f 117 121 119
f 119 121 120
f 120 118 119
f 118 120 122
f 122 117 118
usemtl APPID_877185680_2277208189552 
o vid_26 
f 123 125 126
f 123 126 124
f 123 125 126
f 123 126 124
usemtl APPID_877185568_2277208187888 
o vid_27 
f 129 128 127
f 130 131 132
f 127 132 131
f 127 131 129
f 129 131 130
f 130 128 129
f 128 130 132
f 132 127 128
usemtl APPID_877185680_2277208189552 
o vid_28 
f 133 135 136
f 133 136 134
f 133 135 136
f 133 136 134
usemtl APPID_877185568_2277208187888 
o vid_29 
f 139 138 137
f 140 141 142
f 137 142 141
f 137 141 139
f 139 141 140
f 140 138 139
f 138 140 142
f 142 137 138
usemtl APPID_877185680_2277208189552 
o vid_30 
f 143 147 148
f 144 148 149
f 143 148 144
f 144 149 145
f 145 149 150
f 145 150 146
usemtl APPID_877185568_2277208187888 
o vid_31 
f 153 152 151
f 154 155 156
f 151 156 155
f 151 155 153
f 153 155 154
f 154 152 153
f 152 154 156
f 156 151 152
usemtl APPID_877185680_2277208189552 
o vid_32 
f 157 161 162
f 158 162 163
f 157 162 158
f 158 163 159
f 159 163 164
f 159 164 160
usemtl APPID_877185568_2277208187888 
o vid_33 
f 167 166 165
f 168 169 170
f 165 170 169
f 165 169 167
f 167 169 168
f 168 166 167
f 166 168 170
f 170 165 166
usemtl APPID_877185680_2277208189552 
o vid_34 
f 171 176 177
f 172 177 178
f 173 178 179
f 171 177 172
f 172 178 173
f 173 179 174
f 174 179 180
f 174 180 175
usemtl APPID_877185568_2277208187888 
o vid_35 
f 183 182 181
f 184 185 186
f 181 186 185
f 181 185 183
f 183 185 184
f 184 182 183
f 182 184 186
f 186 181 182
usemtl APPID_877185680_2277208189552 
o vid_36 
f 187 190 191
f 187 191 188
f 188 191 192
f 188 192 189
usemtl APPID_877185568_2277208187888 
o vid_37 
f 195 194 193
f 196 197 198
f 193 198 197
f 193 197 195
f 195 197 196
f 196 194 195
f 194 196 198
f 198 193 194
usemtl APPID_877185680_2277208189552 
o vid_38 
f 199 202 203
f 199 203 200
f 200 203 204
f 200 204 201
usemtl APPID_877185568_2277208187888 
o vid_39 
f 207 206 205
f 208 209 210
f 205 210 209
f 205 209 207
f 207 209 208
f 208 206 207
f 206 208 210
f 210 205 206
usemtl APPID_877185680_2277208189552 
o vid_40 
f 211 215 216
f 212 216 217
f 211 216 212
f 212 217 213
f 213 217 218
f 213 218 214
usemtl APPID_877185568_2277208187888 
o vid_41 
f 221 220 219
f 222 223 224
f 219 224 223
f 219 223 221
f 221 223 222
f 222 220 221
f 220 222 224
f 224 219 220
usemtl APPID_877185680_2277208189552 
o vid_42 
f 225 230 231
f 226 231 232
f 227 232 233
f 225 231 226
f 226 232 227
f 227 233 228
f 228 233 234
f 228 234 229
usemtl APPID_877199680_2277208192240 
o vid_10000004 
f 235 240 241
f 236 241 242
f 237 242 243
f 235 241 236
f 236 242 237
f 237 243 238
f 238 243 244
usemtl APPID_877199680_2277208192240 
o vid_10000006 
f 245 251 252
f 246 252 253
f 247 253 254
f 248 254 255
f 245 252 246
f 246 253 247
f 247 254 248
f 248 255 249
f 249 255 256
usemtl APPID_877199680_2277208192240 
o vid_10000008 
f 257 264 265
f 258 265 266
f 259 266 267
f 260 267 268
f 261 268 269
f 257 265 258
f 258 266 259
f 259 267 260
f 260 268 261
f 261 269 262
f 262 269 270
usemtl APPID_877199680_2277208192240 
o vid_10000010 
f 271 276 277
f 272 277 278
f 273 278 279
f 271 277 272
f 272 278 273
f 273 279 274
f 274 279 280
usemtl APPID_877199680_2277208192240 
o vid_10000012 
f 281 287 288
f 282 288 289
f 283 289 290
f 284 290 291
f 281 288 282
f 282 289 283
f 283 290 284
f 284 291 285
f 285 291 292
usemtl APPID_877199680_2277208192240 
o vid_10000014 
f 293 299 300
f 294 300 301
f 295 301 302
f 296 302 303
f 293 300 294
f 294 301 295
f 295 302 296
f 296 303 297
f 297 303 304
usemtl APPID_877199680_2277208192240 
o vid_10000016 
f 305 311 312
f 306 312 313
f 307 313 314
f 308 314 315
f 305 312 306
f 306 313 307
f 307 314 308
f 308 315 309
f 309 315 316
usemtl APPID_877199680_2277208192240 
o vid_10000018 
f 317 325 326
f 318 326 327
f 319 327 328
f 320 328 329
f 321 329 330
f 322 330 331
f 317 326 318
f 318 327 319
f 319 328 320
f 320 329 321
f 321 330 322
f 322 331 323
f 323 331 332
usemtl APPID_877199680_2277208192240 
o vid_10000020 
f 333 341 342
f 334 342 343
f 335 343 344
f 336 344 345
f 337 345 346
f 338 346 347
f 333 342 334
f 334 343 335
f 335 344 336
f 336 345 337
f 337 346 338
f 338 347 339
f 339 347 348
usemtl APPID_877199680_2277208192240 
o vid_10000022 
f 349 357 358
f 350 358 359
f 351 359 360
f 352 360 361
f 353 361 362
f 354 362 363
f 349 358 350
f 350 359 351
f 351 360 352
f 352 361 353
f 353 362 354
f 354 363 355
f 355 363 364
usemtl APPID_877199680_2277208192240 
o vid_10000024 
f 365 372 373
f 366 373 374
f 367 374 375
f 368 375 376
f 369 376 377
f 365 373 366
f 366 374 367
f 367 375 368
f 368 376 369
f 369 377 370
f 370 377 378
usemtl APPID_877199680_2277208192240 
o vid_10000026 
f 379 388 389
f 380 389 390
f 381 390 391
f 382 391 392
f 383 392 393
f 384 393 394
f 385 394 395
f 379 389 380
f 380 390 381
f 381 391 382
f 382 392 383
f 383 393 384
f 384 394 385
f 385 395 386
f 386 395 396
usemtl APPID_877199680_2277208192240 
o vid_10000028 
f 397 404 405
f 398 405 406
f 399 406 407
f 400 407 408
f 401 408 409
f 397 405 398
f 398 406 399
f 399 407 400
f 400 408 401
f 401 409 402
f 402 409 410
usemtl APPID_877199680_2277208192240 
o vid_10000030 
f 411 416 417
f 412 417 418
f 413 418 419
f 411 417 412
f 412 418 413
f 413 419 414
f 414 419 420
usemtl APPID_877199680_2277208192240 
o vid_10000032 
f 421 427 428
f 422 428 429
f 423 429 430
f 424 430 431
f 421 428 422
f 422 429 423
f 423 430 424
f 424 431 425
f 425 431 432
usemtl APPID_877199680_2277208192240 
o vid_10000034 
f 433 437 438
f 434 438 439
f 433 438 434
f 434 439 435
f 435 439 440
usemtl APPID_877199680_2277208192240 
o vid_10000036 
f 441 447 448
f 442 448 449
f 443 449 450
f 444 450 451
f 441 448 442
f 442 449 443
f 443 450 444
f 444 451 445
f 445 451 452
usemtl APPID_877199680_2277208192240 
o vid_10000038 
f 453 457 458
f 454 458 459
f 453 458 454
f 454 459 455
f 455 459 460
usemtl APPID_877199680_2277208192240 
o vid_10000040 
f 461 464 465
f 461 465 462
f 462 465 466
usemtl APPID_877199680_2277208192240 
o vid_10000042 
f 467 470 471
f 467 471 468
f 468 471 472
