# File generated by PlantGL - Fri Sep  4 14:44:13 2026
v    17.752484 418.905161 0.000000
v    22.071916 418.601013 0.000000
v    20.175600 422.493825 0.000000
v    22.247516 421.094839 0.362700
v    17.928084 421.398987 0.362700
v    19.824400 417.506175 0.362700
v    22.060383 421.451217 0.193435
v    22.204295 421.506085 0.336555
v    22.570192 421.638749 0.697645
v    23.281335 421.906535 1.209144
v    23.796651 422.107694 1.386459
v    24.463331 422.337895 1.611625
v    22.412780 420.727807 0.193435
v    22.544694 420.807303 0.336555
v    22.874704 421.013638 0.697645
v    23.523929 421.408532 1.209144
v    23.999977 421.690299 1.386459
v    24.592199 422.073350 1.611625
v    21.879284 421.505407 0.362700
v    17.756638 420.874804 0.362700
v    20.364078 417.619789 0.362700
v    18.120716 418.494593 0.589630
v    22.243362 419.125196 0.589630
v    19.635922 422.380211 0.589630
v    18.485533 418.066435 0.352424
v    18.320646 417.956909 0.536368
v    17.846335 417.652949 1.059022
v    16.956874 417.067379 1.775837
v    16.333824 416.646366 2.016865
v    15.448781 416.098173 2.349221
v    15.285826 416.026236 2.404585
v    17.782505 418.944065 0.352424
v    17.639631 418.807058 0.536368
v    17.239477 418.410525 1.059022
v    16.473891 417.670314 1.775837
v    15.927042 417.154175 2.016865
v    15.198897 416.410118 2.349221
v    15.093127 416.266792 2.404585
v    17.841416 419.161313 0.589630
v    21.805616 418.549955 0.589630
v    20.352968 422.288732 0.589630
v    22.158584 420.838687 1.053978
v    18.194384 421.450045 1.053978
v    19.647032 417.711268 1.053978
v    21.856796 421.550723 0.727906
v    22.119419 421.626677 0.981951
v    22.865525 421.829249 1.699219
v    24.273416 422.230162 2.684576
v    25.265679 422.525674 3.016435
v    26.652357 422.879399 3.473303
v    27.211384 422.941665 3.648129
v    22.416692 420.109680 0.727906
v    22.661705 420.230961 0.981951
v    23.348858 420.585262 1.699219
v    24.658108 421.240055 2.684576
v    25.589596 421.691989 3.016435
v    26.851337 422.367271 3.473303
v    27.305760 422.698765 3.648129
v    22.163962 420.511898 1.053978
v    18.474702 421.618097 1.053978
v    19.361335 417.870005 1.053978
v    17.836038 419.488102 1.829186
v    21.525298 418.381903 1.829186
v    20.638665 422.129995 1.829186
v    18.111534 418.460727 1.389518
v    17.513954 418.374545 1.950565
v    16.713492 418.272486 2.699215
v    14.758724 417.998770 4.027849
v    13.076182 417.742494 4.573380
v    11.158516 417.527856 5.189411
v    10.637045 417.542133 5.351551
v    10.060669 417.551031 5.345146
v    17.622031 420.530023 1.389518
v    17.049172 420.339331 1.950565
v    16.287822 420.071934 2.699215
v    14.417598 419.440826 4.027849
v    12.798559 418.916095 4.573380
v    10.987974 418.248793 5.189411
v    10.528169 418.002389 5.351551
v    10.016867 417.736195 5.345146
v    18.595695 418.396392 1.829186
v    22.090917 419.585640 1.829186
v    19.313387 422.017967 1.829186
v    21.404305 421.603608 2.769464
v    17.909083 420.414360 2.769464
v    20.686613 417.982033 2.769464
v    20.300549 422.514640 2.187947
v    21.075922 423.255302 3.184363
v    21.658345 423.793648 3.920187
v    23.553520 425.589141 5.677471
v    25.424463 427.404892 6.513159
v    27.325034 429.108273 7.327937
v    28.740787 430.080164 7.412738
v    22.453002 420.629703 2.187947
v    23.084887 421.496020 3.184363
v    23.541681 422.144381 3.920187
v    25.071428 424.259885 5.677471
v    26.624453 426.354042 6.513159
v    28.062181 428.462741 7.327937
v    28.838782 429.994348 7.412738
v    21.718982 421.097521 2.769464
v    18.190028 420.939922 2.769464
v    20.090990 417.962557 2.769464
v    18.281018 418.902479 5.235228
v    21.809972 419.060078 5.235228
v    19.909010 422.037443 5.235228
v    19.288131 417.425837 4.480790
v    18.746084 417.144211 5.048415
v    17.125999 416.335969 6.728135
v    14.114096 414.786793 9.007973
v    12.022178 413.678781 9.766751
v    9.036961 412.246301 10.823815
v    7.640558 411.801195 11.279348
v    6.814827 411.527091 11.269681
v    17.365290 420.437468 4.480790
v    16.881714 420.064264 5.048415
v    15.466767 418.934724 6.728135
v    12.793992 416.854394 9.007973
v    10.908557 415.422980 9.766751
v    8.352870 413.317752 10.823815
v    7.361470 412.238314 11.279348
v    6.765341 411.604600 11.269681
v    18.420020 418.861621 5.235228
v    21.775855 419.200887 5.235228
v    19.804125 421.937492 5.235228
v    21.579980 421.138379 9.070287
v    18.224145 420.799113 9.070287
v    20.195875 418.062508 9.070287
v    20.066637 423.120763 8.110200
v    22.713802 424.690685 10.970138
v    26.428461 426.876295 13.871427
v    31.756107 430.093219 15.866277
v    34.213459 431.446963 16.761944
v    35.503932 432.167567 16.745117
v    38.468471 433.340083 16.709696
v    22.981376 419.075338 8.110200
v    25.308523 421.089419 10.970138
v    28.557611 423.921205 13.871427
v    33.295567 427.956571 15.866277
v    35.357567 429.859031 16.761944
v    36.449613 430.855037 16.745117
v    38.500254 433.295970 16.709696
v    21.382099 420.900115 9.070287
v    18.529428 420.746875 9.070287
v    20.088473 418.353010 9.070287
v    18.617901 419.099885 15.537192
v    21.470572 419.253125 15.537192
v    19.911527 421.646990 15.537192
v    20.484806 416.391111 14.338735
v    17.091821 414.589123 17.908738
v    14.909073 413.400595 19.583778
v    12.349497 412.054686 21.530358
v    3.244767 407.126371 24.848835
v    -1.658983 404.689285 25.086521
v    -4.815586 403.609678 25.049455
v    -5.486167 403.383263 24.924080
v    16.895322 421.902654 14.338735
v    13.875267 419.528042 17.908738
v    11.905643 418.012269 19.583778
v    9.639709 416.215484 21.530358
v    1.450766 409.881005 24.848835
v    -2.761028 406.381441 25.086521
v    -5.024809 403.930933 25.049455
v    -5.503037 403.409166 24.924080
v    18.870160 419.373347 15.537192
v    21.107618 419.334856 15.537192
v    20.022223 421.291797 15.537192
v    21.129840 420.626653 23.570456
v    18.892382 420.665144 23.570456
v    19.977777 418.708203 23.570456
v    19.140347 423.996261 22.103019
v    23.440655 425.902973 26.474268
v    24.876597 426.557622 27.537871
v    29.462861 428.568602 30.908719
v    39.476491 433.103801 34.432264
v    42.072526 434.157507 35.326707
v    45.603132 435.614213 35.283225
v    50.438364 436.893639 35.227654
v    22.934910 417.154756 22.103019
v    26.829379 419.793184 26.474268
v    28.145047 420.664684 27.537871
v    32.279381 423.490484 30.908719
v    41.428793 429.583846 34.432264
v    43.697248 431.228173 35.326707
v    46.802420 433.451925 35.283225
v    50.447992 436.876280 35.227654
v    20.931018 420.247657 23.570456
v    19.320014 420.682457 23.570456
v    19.748968 419.069886 23.570456
v    19.068982 419.752343 36.455601
v    20.679986 419.317543 36.455601
v    20.251032 420.930114 36.455601
v    20.409082 415.207147 34.693132
v    14.841593 414.246111 39.943232
v    12.491338 413.815184 41.553625
v    7.047994 412.898608 45.269241
v    -6.503024 410.448786 49.683203
v    -9.270944 410.061090 50.575477
v    -14.402191 409.312304 50.516441
v    -20.457584 409.238033 50.449157
v    17.973661 424.362652 34.693132
v    12.664512 422.430436 39.943232
v    10.410774 421.636672 41.553625
v    5.231452 419.727554 45.269241
v    -7.745782 415.120697 49.683203
v    -10.340503 414.081898 50.575477
v    -15.165609 412.182233 50.516441
v    -20.457584 409.238033 50.449157
v    19.387124 419.745589 36.455601
v    20.526765 419.596439 36.455601
v    20.086112 420.657972 36.455601
v    20.612876 420.254411 48.891815
v    19.473235 420.403561 48.891815
v    19.913888 419.342028 48.891815
v    18.490731 424.977489 46.815427
v    22.870152 426.353393 51.081124
v    24.853916 426.941042 53.000640
v    33.758453 429.698452 59.275283
v    43.560511 432.863543 62.576902
v    52.336876 435.317445 65.486186
v    59.389864 436.351141 65.448876
v    22.459419 415.416928 46.815427
v    26.525793 417.546962 51.081124
v    28.342544 418.536945 53.000640
v    36.582124 422.896236 59.275283
v    45.744090 427.603308 62.576902
v    53.678236 432.086113 65.486186
v    59.389864 436.351141 65.448876
v    20.303130 420.249423 48.891815
v    19.632429 420.137807 48.891815
v    20.064441 419.612770 48.891815
v    19.696870 419.750577 52.467000
v    20.367571 419.862193 52.467000
v    19.935559 420.387230 52.467000
v    20.942828 416.128845 48.195934
v    20.549251 416.190253 52.030022
v    19.708861 416.491864 58.648955
v    18.639981 416.263017 62.886034
v    15.976987 416.689772 70.677673
v    16.382875 421.670682 48.195934
v    16.367340 421.272646 52.030022
v    16.501463 420.389903 58.648955
v    16.071057 419.385102 62.886034
v    15.976987 416.689772 70.677673
v    24.463331 422.337895 1.611625
v    24.498844 422.350158 1.623619
v    24.799180 422.409054 1.718745
v    25.054795 422.462356 1.715844
v    24.592199 422.073350 1.611625
v    24.623747 422.093755 1.623619
v    24.855257 422.293939 1.718745
v    25.054795 422.462356 1.715844
v    15.285826 416.026236 2.404585
v    15.034448 415.915265 2.489990
v    14.724351 415.773924 2.486204
v    15.093127 416.266792 2.404585
v    14.929966 416.045696 2.489990
v    14.724351 415.773924 2.486204
v    27.211384 422.941665 3.648129
v    27.269409 422.948128 3.666275
v    27.736122 423.005761 3.661050
v    27.305760 422.698765 3.648129
v    27.352927 422.733173 3.666275
v    27.736122 423.005761 3.661050
v    10.060669 417.551031 5.345146
v    9.672708 417.557019 5.340835
v    10.016867 417.736195 5.345146
v    9.672708 417.557019 5.340835
v    28.740787 430.080164 7.412738
v    28.959437 430.230986 7.409787
v    28.838782 429.994348 7.412738
v    28.959437 430.230986 7.409787
v    6.814827 411.527091 11.269681
v    6.636854 411.468013 11.267597
v    6.765341 411.604600 11.269681
v    6.636854 411.468013 11.267597
v    38.468471 433.340083 16.709696
v    38.571570 433.380860 16.708465
v    38.500254 433.295970 16.709696
v    38.571570 433.380860 16.708465
v    -5.486167 403.383263 24.924080
v    -5.544978 403.363407 24.913085
v    -5.503037 403.409166 24.924080
v    -5.544978 403.363407 24.913085
v    50.438364 436.893639 35.227654
v    50.477495 436.903993 35.227204
v    50.447992 436.876280 35.227654
v    50.477495 436.903993 35.227204
mtllib usm_11_2.5D_2018-08-20_10.mtl
usemtl APPID_2962599552_1982942921056 
o vid_3 
f 3 2 1
f 4 5 6
f 1 6 5
f 1 5 3
f 3 5 4
f 4 2 3
f 2 4 6
f 6 1 2
usemtl APPID_2962605152_1982942922336 
o vid_4 
f 7 13 14
f 8 14 15
f 9 15 16
f 10 16 17
f 7 14 8
f 8 15 9
f 9 16 10
f 10 17 11
f 11 17 18
f 11 18 12
usemtl APPID_2962599552_1982942921056 
o vid_5 
f 21 20 19
f 22 23 24
f 19 24 23
f 19 23 21
f 21 23 22
f 22 20 21
f 20 22 24
f 24 19 20
usemtl APPID_2962605152_1982942922336 
o vid_6 
f 25 32 33
f 26 33 34
f 27 34 35
f 28 35 36
f 29 36 37
f 25 33 26
f 26 34 27
f 27 35 28
f 28 36 29
f 29 37 30
f 30 37 38
f 30 38 31
usemtl APPID_2962599552_1982942921056 
o vid_7 
f 41 40 39
f 42 43 44
f 39 44 43
f 39 43 41
f 41 43 42
f 42 40 41
f 40 42 44
f 44 39 40
usemtl APPID_2962605152_1982942922336 
o vid_8 
f 45 52 53
f 46 53 54
f 47 54 55
f 48 55 56
f 49 56 57
f 45 53 46
f 46 54 47
f 47 55 48
f 48 56 49
f 49 57 50
f 50 57 58
f 50 58 51
usemtl APPID_2962599552_1982942921056 
o vid_9 
f 61 60 59
f 62 63 64
f 59 64 63
f 59 63 61
f 61 63 62
f 62 60 61
f 60 62 64
f 64 59 60
usemtl APPID_2962605152_1982942922336 
o vid_10 
f 65 73 74
f 66 74 75
f 67 75 76
f 68 76 77
f 69 77 78
f 70 78 79
f 65 74 66
f 66 75 67
f 67 76 68
f 68 77 69
f 69 78 70
f 70 79 71
f 71 79 80
f 71 80 72
usemtl APPID_2962599552_1982942921056 
o vid_11 
f 83 82 81
f 84 85 86
f 81 86 85
f 81 85 83
f 83 85 84
f 84 82 83
f 82 84 86
f 86 81 82
usemtl APPID_2962605152_1982942922336 
o vid_12 
f 87 94 95
f 88 95 96
f 89 96 97
f 90 97 98
f 91 98 99
f 87 95 88
f 88 96 89
f 89 97 90
f 90 98 91
f 91 99 92
f 92 99 100
f 92 100 93
usemtl APPID_2962599552_1982942921056 
o vid_13 
f 103 102 101
f 104 105 106
f 101 106 105
f 101 105 103
f 103 105 104
f 104 102 103
f 102 104 106
f 106 101 102
usemtl APPID_2962605152_1982942922336 
o vid_14 
f 107 115 116
f 108 116 117
f 109 117 118
f 110 118 119
f 111 119 120
f 112 120 121
f 107 116 108
f 108 117 109
f 109 118 110
f 110 119 111
f 111 120 112
f 112 121 113
f 113 121 122
f 113 122 114
usemtl APPID_2962599552_1982942921056 
o vid_15 
f 125 124 123
f 126 127 128
f 123 128 127
f 123 127 125
f 125 127 126
f 126 124 125
f 124 126 128
f 128 123 124
usemtl APPID_2962605152_1982942922336 
o vid_16 
f 129 136 137
f 130 137 138
f 131 138 139
f 132 139 140
f 133 140 141
f 129 137 130
f 130 138 131
f 131 139 132
f 132 140 133
f 133 141 134
f 134 141 142
f 134 142 135
usemtl APPID_2962599552_1982942921056 
o vid_17 
f 145 144 143
f 146 147 148
f 143 148 147
f 143 147 145
f 145 147 146
f 146 144 145
f 144 146 148
f 148 143 144
usemtl APPID_2962605152_1982942922336 
o vid_18 
f 149 157 158
f 150 158 159
f 151 159 160
f 152 160 161
f 153 161 162
f 154 162 163
f 149 158 150
f 150 159 151
f 151 160 152
f 152 161 153
f 153 162 154
f 154 163 155
f 155 163 164
f 155 164 156
usemtl APPID_2962599552_1982942921056 
o vid_19 
f 167 166 165
f 168 169 170
f 165 170 169
f 165 169 167
f 167 169 168
f 168 166 167
f 166 168 170
f 170 165 166
usemtl APPID_2962605152_1982942922336 
o vid_20 
f 171 179 180
f 172 180 181
f 173 181 182
f 174 182 183
f 175 183 184
f 176 184 185
f 171 180 172
f 172 181 173
f 173 182 174
f 174 183 175
f 175 184 176
f 176 185 177
f 177 185 186
f 177 186 178
usemtl APPID_2962599552_1982942921056 
o vid_21 
f 189 188 187
f 190 191 192
f 187 192 191
f 187 191 189
f 189 191 190
f 190 188 189
f 188 190 192
f 192 187 188
usemtl APPID_2962605152_1982942922336 
o vid_22 
f 193 201 202
f 194 202 203
f 195 203 204
f 196 204 205
f 197 205 206
f 198 206 207
f 193 202 194
f 194 203 195
f 195 204 196
f 196 205 197
f 197 206 198
f 198 207 199
f 199 207 208
usemtl APPID_2962599552_1982942921056 
o vid_23 
f 211 210 209
f 212 213 214
f 209 214 213
f 209 213 211
f 211 213 212
f 212 210 211
f 210 212 214
f 214 209 210
usemtl APPID_2962605152_1982942922336 
o vid_24 
f 215 222 223
f 216 223 224
f 217 224 225
f 218 225 226
f 219 226 227
f 215 223 216
f 216 224 217
f 217 225 218
f 218 226 219
f 219 227 220
f 220 227 228
usemtl APPID_2962599552_1982942921056 
o vid_25 
f 231 230 229
f 232 233 234
f 229 234 233
f 229 233 231
f 231 233 232
f 232 230 231
f 230 232 234
f 234 229 230
usemtl APPID_2962605152_1982942922336 
o vid_26 
f 235 240 241
f 236 241 242
f 237 242 243
f 235 241 236
f 236 242 237
f 237 243 238
f 238 243 244
usemtl APPID_2962604368_1982942923872 
o vid_10000004 
f 245 249 250
f 246 250 251
f 245 250 246
f 246 251 247
f 247 251 252
usemtl APPID_2962604368_1982942923872 
o vid_10000006 
f 253 256 257
f 253 257 254
f 254 257 258
usemtl APPID_2962604368_1982942923872 
o vid_10000008 
f 259 262 263
f 259 263 260
f 260 263 264
usemtl APPID_2962604368_1982942923872 
o vid_10000010 
f 265 267 268
f 265 268 266
f 265 267 268
usemtl APPID_2962604368_1982942923872 
o vid_10000012 
f 269 271 272
f 269 272 270
f 269 271 272
usemtl APPID_2962604368_1982942923872 
o vid_10000014 
f 273 275 276
f 273 276 274
f 273 275 276
usemtl APPID_2962604368_1982942923872 
o vid_10000016 
f 277 279 280
f 277 280 278
f 277 279 280
usemtl APPID_2962604368_1982942923872 
o vid_10000018 
f 281 283 284
f 281 284 282
f 281 283 284
usemtl APPID_2962604368_1982942923872 
o vid_10000020 
f 285 287 288
f 285 288 286
f 285 287 288
