# File generated by PlantGL - Fri Sep  4 14:43:40 2026
v    98.251986 19.148485 0.000000
v    101.611441 18.911933 0.000000
v    100.136573 21.939582 0.000000
v    101.748014 20.851515 0.331061
v    98.388559 21.088067 0.331061
v    99.863427 18.060418 0.331061
v    100.688658 21.059889 -2.645962
v    102.836404 21.381706 -0.674875
v    101.259077 19.888917 -2.645962
v    102.836404 21.381706 -0.674875
v    101.226808 20.982739 0.331061
v    98.535519 20.571078 0.331061
v    100.237673 18.446183 0.331061
v    98.773192 19.017261 0.771522
v    101.464481 19.428922 0.771522
v    99.762327 21.553817 0.771522
v    100.347749 18.429002 -2.205501
v    95.861267 16.684655 2.163443
v    98.542777 20.682250 -2.205501
v    95.861267 16.684655 2.163443
v    98.860609 19.557306 0.771522
v    100.953080 19.234605 0.771522
v    100.186311 21.208089 0.771522
v    101.139391 20.442694 1.487405
v    99.046920 20.765395 1.487405
v    99.813689 18.791911 1.487405
v    99.542996 22.173727 -1.489618
v    106.835548 22.655855 5.143659
v    101.130471 18.087940 -1.489618
v    106.835548 22.655855 5.143659
v    100.871772 20.206223 1.487405
v    99.385520 20.651865 1.487405
v    99.742708 19.141912 1.487405
v    99.128228 19.793777 2.987040
v    100.614480 19.348135 2.987040
v    100.257292 20.858088 2.987040
v    100.653815 17.085294 0.010017
v    95.342023 16.644207 5.024542
v    91.323257 16.935200 8.681583
v    87.534898 17.051308 10.986857
v    99.278615 22.898722 0.010017
v    94.332177 20.913165 5.024542
v    90.869722 18.852446 8.681583
v    87.534898 17.051308 10.986857
v    99.609807 19.554430 2.987040
v    100.580971 19.884868 2.987040
v    99.809221 20.560702 2.987040
v    100.390193 20.445570 3.663000
v    99.419029 20.115132 3.663000
v    100.190779 19.439298 3.663000
v    98.318368 21.346665 -2.408193
v    102.771320 23.164634 6.006794
v    101.556766 18.510748 -2.408193
v    102.771320 23.164634 6.006794
mtllib usm_31_2.5D_2018-08-01_2.mtl
usemtl APPID_2655967808_1733526426096 
o vid_3 
f 3 2 1
f 4 5 6
f 1 6 5
f 1 5 3
f 3 5 4
f 4 2 3
f 2 4 6
f 6 1 2
usemtl APPID_2655968144_1733526429296 
o vid_4 
f 7 9 10
f 7 10 8
f 7 9 10
usemtl APPID_2655967808_1733526426096 
o vid_5 
f 13 12 11
f 14 15 16
f 11 16 15
f 11 15 13
f 13 15 14
f 14 12 13
f 12 14 16
f 16 11 12
usemtl APPID_2655968144_1733526429296 
o vid_6 
f 17 19 20
f 17 20 18
f 17 19 20
usemtl APPID_2655967808_1733526426096 
o vid_7 
f 23 22 21
f 24 25 26
f 21 26 25
f 21 25 23
f 23 25 24
f 24 22 23
f 22 24 26
f 26 21 22
usemtl APPID_2655968144_1733526429296 
o vid_8 
f 27 29 30
f 27 30 28
f 27 29 30
usemtl APPID_2655967808_1733526426096 
o vid_9 
f 33 32 31
f 34 35 36
f 31 36 35
f 31 35 33
f 33 35 34
f 34 32 33
f 32 34 36
f 36 31 32
usemtl APPID_2655968144_1733526429296 
o vid_10 
f 37 41 42
f 38 42 43
f 37 42 38
f 38 43 39
f 39 43 44
usemtl APPID_2655967808_1733526426096 
o vid_11 
f 47 46 45
f 48 49 50
f 45 50 49
f 45 49 47
f 47 49 48
f 48 46 47
f 46 48 50
f 50 45 46
usemtl APPID_2655968144_1733526429296 
o vid_12 
f 51 53 54
f 51 54 52
f 51 53 54
