# File generated by PlantGL - Fri Sep  4 14:44:41 2026
v    457.752484 18.905161 0.000000
v    462.071916 18.601013 0.000000
v    460.175600 22.493825 0.000000
v    462.247516 21.094839 0.362700
v    457.928084 21.398987 0.362700
v    459.824400 17.506175 0.362700
v    462.060397 21.451195 0.193466
v    462.204775 21.506240 0.337050
v    462.363059 21.563630 0.493254
v    462.412771 20.727832 0.193466
v    462.545112 20.807585 0.337050
v    462.687872 20.896844 0.493254
v    461.879284 21.505407 0.362700
v    457.756638 20.874804 0.362700
v    460.364078 17.619789 0.362700
v    458.120716 18.494593 0.589630
v    462.243362 19.125196 0.589630
v    459.635922 22.380211 0.589630
v    458.485514 18.066454 0.352461
v    458.320071 17.956558 0.537026
v    458.147970 17.846268 0.726668
v    457.782520 18.944042 0.352461
v    457.639164 18.806573 0.537026
v    457.493970 18.662693 0.726668
v    457.841416 19.161313 0.589630
v    461.805616 18.549955 0.589630
v    460.352968 22.288732 0.589630
v    462.158584 20.838687 1.053978
v    458.194384 21.450045 1.053978
v    459.647032 17.711268 1.053978
v    461.856811 21.550693 0.727951
v    462.120182 21.626863 0.982718
v    462.369261 21.694490 1.222170
v    462.416683 20.109712 0.727951
v    462.662393 20.231338 0.982718
v    462.891792 20.349618 1.222170
v    462.163962 20.511898 1.053978
v    458.474702 21.618097 1.053978
v    459.361335 17.870005 1.053978
v    457.836038 19.488102 1.829186
v    461.525298 18.381903 1.829186
v    460.638665 22.129995 1.829186
v    458.111522 18.460766 1.389569
v    457.513091 18.374461 1.951413
v    457.324743 18.350447 2.127570
v    457.622036 20.529982 1.389569
v    457.048364 20.339020 1.951413
v    456.869219 20.276101 2.127570
v    458.595695 18.396392 1.829186
v    462.090917 19.585640 1.829186
v    459.313387 22.017967 1.829186
v    461.404305 21.603608 2.769464
v    457.909083 20.414360 2.769464
v    460.686613 17.982033 2.769464
v    460.300588 22.514612 2.188004
v    461.075161 23.254510 3.183392
v    462.452969 20.629738 2.188004
v    463.084202 21.495162 3.183392
v    461.718982 21.097521 2.769464
v    458.190028 20.939922 2.769464
v    460.090990 17.962557 2.769464
v    458.281018 18.902479 5.235228
v    461.809972 19.060078 5.235228
v    459.909010 22.037443 5.235228
v    459.288102 17.425873 4.480850
v    458.745155 17.143779 5.049418
v    458.072011 16.807956 5.747339
v    457.365311 20.437427 4.480850
v    456.880932 20.063602 5.049418
v    456.293023 19.594280 5.747339
v    458.420020 18.861621 5.235228
v    461.775855 19.200887 5.235228
v    459.804125 21.937492 5.235228
v    461.579980 21.138379 9.070287
v    458.224145 20.799113 9.070287
v    460.195875 18.062508 9.070287
v    460.066676 23.120717 8.110260
v    460.190266 23.194013 8.243784
v    462.981344 19.075389 8.110260
v    463.089994 19.169422 8.243784
v    461.554633 21.012481 9.070287
v    458.345849 20.840111 9.070287
v    460.099518 18.147408 9.070287
v    458.445367 18.987519 15.537192
v    461.654151 19.159889 15.537192
v    459.900482 21.852592 15.537192
v    460.312240 16.278786 14.338792
v    460.104356 16.168380 14.557522
v    456.722812 21.790242 14.338792
v    456.537777 21.644753 14.557522
v    458.458123 19.144816 15.537192
v    461.511550 19.092287 15.537192
v    460.030327 21.762897 15.537192
v    461.541877 20.855184 23.570456
v    458.488450 20.907713 23.570456
v    459.969673 18.237103 23.570456
v    459.552407 24.224759 22.103067
v    460.661830 24.716665 23.230792
v    463.346930 17.383325 22.103067
v    464.351652 18.064005 23.230792
v    461.614895 20.429572 23.570456
v    458.820532 21.183754 23.570456
v    459.564573 18.386674 23.570456
v    458.385105 19.570428 36.455601
v    461.179468 18.816246 36.455601
v    460.435427 21.613326 36.455601
v    459.725193 15.025267 34.693168
v    458.738046 14.854870 35.624040
v    457.289791 24.180700 34.693168
v    456.348450 23.838108 35.624040
v    458.541706 19.394647 36.455601
v    461.253398 19.039757 36.455601
v    460.204896 21.565597 36.455601
v    461.458294 20.605353 56.069611
v    458.746602 20.960243 56.069611
v    459.795104 18.434403 56.069611
v    459.077816 25.950758 53.993242
v    462.079096 26.893685 56.916586
v    463.563172 15.145544 53.993242
v    466.349917 16.605286 56.916586
v    461.148136 20.944713 56.069611
v    458.607786 20.521958 56.069611
v    460.244078 18.533328 56.069611
v    458.851864 19.055287 79.422298
v    461.392214 19.478042 79.422298
v    459.755922 21.466672 79.422298
v    463.100099 14.163654 77.022797
v    456.749296 9.823969 84.170509
v    453.923421 7.849514 86.493883
v    454.869914 24.166026 77.022797
v    449.388433 18.769831 84.170509
v    446.906733 16.377091 86.493883
v    459.036323 18.991726 79.422298
v    461.355030 19.669568 79.422298
v    459.608648 21.338706 79.422298
v    460.963677 21.008274 104.046430
v    458.644970 20.330432 104.046430
v    460.391352 18.661294 104.046430
v    455.772063 25.699897 101.326474
v    462.113761 31.250290 109.157797
v    468.473816 36.765977 114.898941
v    465.885207 16.034068 101.326474
v    471.143228 22.620206 109.157797
v    476.365749 29.223112 114.898941
v    460.912312 20.929805 104.046430
v    458.738610 20.325183 104.046430
v    460.349079 18.745013 104.046430
v    459.087688 19.070195 123.069539
v    461.261390 19.674817 123.069539
v    459.650921 21.254987 123.069539
v    464.288085 14.272095 120.045222
v    463.189614 13.335846 121.386436
v    456.812436 8.078704 129.054156
v    451.855657 3.888999 133.422883
v    454.191694 24.178534 120.045222
v    453.276475 23.062481 121.386436
v    448.141388 16.586616 129.054156
v    444.046572 11.551166 133.422883
v    459.188946 19.101354 123.069539
v    461.183778 19.746930 123.069539
v    459.627277 21.151717 123.069539
v    460.811054 20.898646 140.912998
v    458.816222 20.253070 140.912998
v    460.372723 18.848283 140.912998
v    454.646001 26.143505 137.614493
v    458.910613 30.096784 143.018170
v    462.458807 33.279261 147.440188
v    473.360019 43.301626 157.407947
v    476.137801 45.917837 158.631051
v    466.658500 15.301878 137.614493
v    470.155251 19.948173 143.018170
v    472.958452 23.803027 147.440188
v    481.814276 35.671415 157.407947
v    484.132910 38.702020 158.631051
v    461.097812 20.213714 140.912998
v    459.266012 20.843876 140.912998
v    459.636176 18.942409 140.912998
v    458.902188 19.786286 154.115691
v    460.733988 19.156124 154.115691
v    460.363824 21.057591 154.115691
v    460.803238 11.347934 150.586855
v    454.722496 10.718079 156.267617
v    449.534895 10.266671 161.098667
v    433.770334 8.699228 171.762465
v    424.779548 7.695896 174.662199
v    457.498935 28.321545 150.586855
v    451.625977 26.624338 156.267617
v    446.647877 25.096759 161.098667
v    431.446570 20.635984 171.762465
v    422.735980 18.193337 174.662199
v    459.208315 19.346885 154.115691
v    460.961457 19.640938 154.115691
v    459.830228 21.012177 154.115691
v    460.791685 20.653115 161.438443
v    459.038543 20.359062 161.438443
v    460.169772 18.987823 161.438443
v    455.225165 26.982525 157.735301
v    465.142469 33.541307 168.766340
v    478.895215 42.881890 179.956872
v    482.485707 45.384137 181.359653
v    465.947680 13.985034 157.735301
v    474.271887 22.474917 168.766340
v    486.056190 34.201585 179.956872
v    489.195270 37.251019 181.359653
v    460.747035 20.560971 161.438443
v    459.140667 20.366465 161.438443
v    460.112298 19.072563 161.438443
v    459.252965 19.439029 167.195389
v    460.859333 19.633535 167.195389
v    459.887702 20.927437 167.195389
v    464.776239 12.539937 163.383558
v    454.279235 6.249849 174.738363
v    439.698515 -2.708347 186.257343
v    431.975005 -7.582548 189.184751
v    431.636989 -7.777555 189.309332
v    454.167746 26.667069 163.383558
v    445.200006 18.340487 174.738363
v    432.531223 6.836200 186.257343
v    425.696615 0.778267 189.184751
v    425.415084 0.508037 189.309332
v    459.310251 19.516898 167.195389
v    460.763253 19.644211 167.195389
v    459.926496 20.838891 167.195389
v    460.689749 20.483102 170.550540
v    459.236747 20.355789 170.550540
v    460.073504 19.161109 170.550540
v    455.620839 27.238160 166.701775
v    466.432658 33.222497 178.166601
v    481.445927 41.775328 189.797192
v    484.150177 43.359299 190.801742
v    486.854275 44.802233 191.780231
v    465.305611 13.410728 166.701775
v    474.624782 21.526193 178.166601
v    487.793724 32.712261 189.797192
v    490.206554 34.712307 190.801742
v    492.486788 36.760413 191.780231
v    460.610549 20.435580 170.550540
v    459.317502 20.310961 170.550540
v    460.071949 19.253459 170.550540
v    459.389451 19.564420 173.154000
v    460.682498 19.689039 173.154000
v    459.928051 20.746541 173.154000
v    464.445916 12.948441 169.342169
v    453.789713 6.928785 180.696975
v    438.994622 -1.670748 192.215954
v    436.725810 -3.026262 193.063092
v    432.446235 -5.357847 194.618941
v    454.778942 26.498554 169.342169
v    445.619332 18.381136 180.696975
v    432.673444 7.189592 192.215954
v    430.653423 5.485349 193.063092
v    427.056143 2.197398 194.618941
v    462.363059 21.563630 0.493254
v    462.570109 21.638700 0.697584
v    463.281124 21.906438 1.208991
v    463.796985 22.107810 1.386493
v    464.499051 22.350230 1.623611
v    464.798638 22.408979 1.718499
v    465.054932 22.462423 1.715590
v    462.687872 20.896844 0.493254
v    462.874614 21.013603 0.697584
v    463.523722 21.408425 1.208991
v    464.000275 21.690491 1.386493
v    464.623931 22.093873 1.623611
v    464.854863 22.293558 1.718499
v    465.054932 22.462423 1.715590
v    458.147970 17.846268 0.726668
v    457.846425 17.653025 1.058948
v    456.957104 17.067547 1.775649
v    456.333399 16.646092 2.016930
v    455.448496 16.097986 2.349234
v    455.035087 15.915485 2.489690
v    454.724145 15.773759 2.485893
v    457.493970 18.662693 0.726668
v    457.239570 18.410596 1.058948
v    456.474106 17.670502 1.775649
v    455.926681 17.153820 2.016930
v    455.198651 16.409881 2.349234
v    454.930320 16.046272 2.489690
v    454.724145 15.773759 2.485893
v    462.369261 21.694490 1.222170
v    462.865398 21.829194 1.699131
v    464.273096 22.230053 2.684354
v    465.266241 22.525827 3.016507
v    466.652730 22.879503 3.473313
v    467.268610 22.948103 3.665919
v    467.736397 23.005868 3.660682
v    462.891792 20.349618 1.222170
v    463.348727 20.585217 1.699131
v    464.657798 21.239920 2.684354
v    465.590114 21.692256 3.016507
v    466.851683 22.367445 3.473313
v    467.352320 22.732653 3.665919
v    467.736397 23.005868 3.660682
v    457.324743 18.350447 2.127570
v    456.713645 18.272532 2.699115
v    454.759103 17.998848 4.027595
v    453.075562 17.742419 4.573450
v    451.158118 17.527806 5.189409
v    450.637953 17.542048 5.351143
v    449.672424 17.556952 5.340414
v    456.869219 20.276101 2.127570
v    456.287979 20.071962 2.699115
v    454.417971 19.440927 4.027595
v    452.797972 18.915884 4.573450
v    450.987597 18.248659 5.189409
v    450.528942 18.002872 5.351143
v    449.672424 17.556952 5.340414
v    461.075161 23.254510 3.183392
v    461.658240 23.793507 3.920075
v    463.553232 25.588826 5.677190
v    465.424945 27.405324 6.513221
v    467.325332 29.108540 7.327921
v    468.959620 30.231195 7.409322
v    463.084202 21.495162 3.183392
v    463.541555 22.144258 3.920075
v    465.071154 24.259557 5.677190
v    466.624818 26.354576 6.513221
v    468.062407 28.463072 7.327921
v    468.959620 30.231195 7.409322
v    458.072011 16.807956 5.747339
v    457.126150 16.336076 6.728017
v    454.114485 14.787023 9.007676
v    452.021509 13.678451 9.766838
v    449.036528 12.246083 10.823818
v    447.641594 11.801446 11.278871
v    446.636551 11.467819 11.267105
v    456.293023 19.594280 5.747339
v    455.466929 18.934816 6.728017
v    452.794364 16.854650 9.007676
v    450.907976 15.422512 9.766838
v    448.352491 13.317450 10.823818
v    447.362134 12.239148 11.278871
v    446.636551 11.467819 11.267105
v    460.190266 23.194013 8.243784
v    462.713676 24.690541 10.970020
v    466.428093 26.876030 13.871128
v    471.756602 30.093475 15.866301
v    474.212573 31.446458 16.761465
v    475.504251 32.167735 16.744622
v    478.571698 33.380952 16.707972
v    463.089994 19.169422 8.243784
v    465.308347 21.089345 10.970020
v    468.557242 23.920939 13.871128
v    473.295966 27.956960 15.866301
v    475.356808 29.858350 16.761465
v    476.449874 30.855286 16.744622
v    478.571698 33.380952 16.707972
v    460.104356 16.168380 14.557522
v    456.919415 14.476883 17.908626
v    454.735616 13.287782 19.584473
v    452.177325 11.942550 21.530076
v    443.071696 7.013748 24.848881
v    438.168113 4.576735 25.086054
v    435.013202 3.497706 25.049007
v    434.282322 3.250933 24.912359
v    456.537777 21.644753 14.557522
v    453.702900 19.415743 17.908626
v    451.732327 17.899240 19.584473
v    449.467531 16.103356 21.530076
v    441.277779 9.768252 24.848881
v    437.066120 6.268811 25.086054
v    434.803552 3.819616 25.049007
v    434.282322 3.250933 24.912359
v    460.661830 24.716665 23.230792
v    463.852572 26.131407 26.474172
v    465.289494 26.786502 27.538501
v    469.874571 28.796962 30.908475
v    479.889050 33.332546 34.432320
v    482.483792 34.385727 35.326317
v    486.015545 35.842906 35.282821
v    490.889746 37.132644 35.226802
v    464.351652 18.064005 23.230792
v    467.241270 20.021665 26.474172
v    468.557836 20.893761 27.538501
v    472.691099 23.718828 30.908475
v    481.841288 29.812708 34.432320
v    484.108612 31.456215 35.326317
v    487.214793 33.680690 35.282821
v    490.889746 37.132644 35.226802
v    458.738046 14.854870 35.624040
v    454.157819 14.064251 39.943160
v    451.806857 13.633194 41.554038
v    446.364384 12.716765 45.269059
v    432.812776 10.266836 49.683213
v    430.045792 9.879271 50.575186
v    424.913730 9.130366 50.516140
v    418.858461 9.056097 50.448857
v    456.348450 23.838108 35.624040
v    451.980752 22.248523 39.943160
v    449.726336 21.454521 41.554038
v    444.547843 19.545709 45.269059
v    431.570044 14.938651 49.683213
v    428.976199 13.900203 50.575186
v    424.150327 12.000236 50.516140
v    418.858461 9.056097 50.448857
v    462.079096 26.893685 56.916586
v    465.427868 27.945785 60.178398
v    471.360028 29.877580 64.383111
v    474.297444 30.787190 66.452981
v    492.856674 36.779978 72.704271
v    502.708102 39.622631 72.587506
v    506.053269 40.113648 72.549940
v    509.712251 40.636071 71.895218
v    466.349917 16.605286 56.916586
v    469.459314 18.234039 60.178398
v    475.015635 21.071232 64.383111
v    477.733696 22.509268 66.452981
v    495.080974 31.421645 72.704271
v    504.049450 36.391329 72.587506
v    506.758949 38.413667 72.549940
v    509.712251 40.636071 71.895218
v    453.923421 7.849514 86.493883
v    447.863672 3.742432 91.421567
v    432.138585 -7.186707 97.559794
v    429.270624 -9.015607 98.645706
v    422.984027 -13.075534 98.560507
v    415.527377 -16.593110 98.468903
v    446.906733 16.377091 86.493883
v    441.709550 11.221707 91.421567
v    427.956671 -2.104311 97.559794
v    425.609697 -4.566381 98.645706
v    420.415101 -9.953447 98.560507
v    415.527377 -16.593110 98.468903
v    468.473816 36.765977 114.898941
v    471.558300 39.443270 117.648209
v    483.988216 50.497319 122.980006
v    490.906562 56.174633 125.837136
v    493.319530 58.178051 125.801431
v    501.236353 63.144686 125.697593
v    476.365749 29.223112 114.898941
v    478.900861 32.425478 117.648209
v    489.381674 45.342419 122.980006
v    494.740418 52.510353 125.837136
v    496.632701 55.011425 125.801431
v    501.236353 63.144686 125.697593
v    451.855657 3.888999 133.422883
v    446.443067 -0.685978 138.193345
v    440.258627 -6.042264 140.815791
v    429.888373 -14.327075 145.053244
v    423.674482 -18.011744 147.298606
v    421.260297 -19.482520 147.267197
v    444.046572 11.551166 133.422883
v    439.575209 6.052670 138.193345
v    434.337336 -0.232375 140.815791
v    426.250958 -10.758093 145.053244
v    422.684960 -17.040839 147.298606
v    421.260297 -19.482520 147.267197
v    476.137801 45.917837 158.631051
v    483.872498 53.202645 162.036766
v    494.796489 62.702129 166.658392
v    496.631036 63.896028 167.338702
v    504.149860 68.917946 167.238243
v    484.132910 38.702020 158.631051
v    490.589117 47.140702 162.036766
v    498.922470 58.978312 166.658392
v    499.922633 60.925266 167.338702
v    504.149860 68.917946 167.238243
v    424.779548 7.695896 174.662199
v    418.555744 7.001346 176.669519
v    403.107700 5.895782 181.613868
v    400.626924 6.063213 182.386674
v    391.120057 6.590937 182.280883
v    422.735980 18.193337 174.662199
v    416.706139 16.502433 176.669519
v    401.971499 11.732245 181.613868
v    399.734696 10.646428 182.386674
v    391.120057 6.590937 182.280883
v    482.485707 45.384137 181.359653
v    484.439303 46.745617 182.122910
v    498.131479 55.501749 187.311483
v    509.176049 60.568671 191.088264
v    489.195270 37.251019 181.359653
v    490.903251 38.910225 182.122910
v    502.102245 50.688513 187.311483
v    509.176049 60.568671 191.088264
v    431.636989 -7.777555 189.309332
v    417.484043 -15.942616 194.525611
v    407.916171 -19.813477 197.733559
v    405.803852 -20.697540 197.708117
v    425.415084 0.508037 189.309332
v    413.627264 -10.806615 194.525611
v    407.241881 -18.915539 197.733559
v    405.803852 -20.697540 197.708117
v    486.854275 44.802233 191.780231
v    499.052882 51.311534 196.194351
v    510.910630 55.657947 200.119651
v    492.486788 36.760413 191.780231
v    502.773280 45.999737 196.194351
v    510.910630 55.657947 200.119651
v    432.446235 -5.357847 194.618941
v    422.035053 -11.030035 198.403952
v    410.328913 -15.436540 202.291583
v    427.056143 2.197398 194.618941
v    418.304821 -5.801401 198.403952
v    410.328913 -15.436540 202.291583
mtllib usm_29_2.5D_2018-10-06_11.mtl
usemtl APPID_2588835984_1742050133632 
o vid_3 
f 3 2 1
f 4 5 6
f 1 6 5
f 1 5 3
f 3 5 4
f 4 2 3
f 2 4 6
f 6 1 2
usemtl APPID_2588834640_1742050140288 
o vid_4 
f 7 10 11
f 7 11 8
f 8 11 12
f 8 12 9
usemtl APPID_2588835984_1742050133632 
o vid_5 
f 15 14 13
f 16 17 18
f 13 18 17
f 13 17 15
f 15 17 16
f 16 14 15
f 14 16 18
f 18 13 14
usemtl APPID_2588834640_1742050140288 
o vid_6 
f 19 22 23
f 19 23 20
f 20 23 24
f 20 24 21
usemtl APPID_2588835984_1742050133632 
o vid_7 
f 27 26 25
f 28 29 30
f 25 30 29
f 25 29 27
f 27 29 28
f 28 26 27
f 26 28 30
f 30 25 26
usemtl APPID_2588834640_1742050140288 
o vid_8 
f 31 34 35
f 31 35 32
f 32 35 36
f 32 36 33
usemtl APPID_2588835984_1742050133632 
o vid_9 
f 39 38 37
f 40 41 42
f 37 42 41
f 37 41 39
f 39 41 40
f 40 38 39
f 38 40 42
f 42 37 38
usemtl APPID_2588834640_1742050140288 
o vid_10 
f 43 46 47
f 43 47 44
f 44 47 48
f 44 48 45
usemtl APPID_2588835984_1742050133632 
o vid_11 
f 51 50 49
f 52 53 54
f 49 54 53
f 49 53 51
f 51 53 52
f 52 50 51
f 50 52 54
f 54 49 50
usemtl APPID_2588834640_1742050140288 
o vid_12 
f 55 57 58
f 55 58 56
f 55 57 58
f 55 58 56
usemtl APPID_2588835984_1742050133632 
o vid_13 
f 61 60 59
f 62 63 64
f 59 64 63
f 59 63 61
f 61 63 62
f 62 60 61
f 60 62 64
f 64 59 60
usemtl APPID_2588834640_1742050140288 
o vid_14 
f 65 68 69
f 65 69 66
f 66 69 70
f 66 70 67
usemtl APPID_2588835984_1742050133632 
o vid_15 
f 73 72 71
f 74 75 76
f 71 76 75
f 71 75 73
f 73 75 74
f 74 72 73
f 72 74 76
f 76 71 72
usemtl APPID_2588834640_1742050140288 
o vid_16 
f 77 79 80
f 77 80 78
f 77 79 80
f 77 80 78
usemtl APPID_2588835984_1742050133632 
o vid_17 
f 83 82 81
f 84 85 86
f 81 86 85
f 81 85 83
f 83 85 84
f 84 82 83
f 82 84 86
f 86 81 82
usemtl APPID_2588834640_1742050140288 
o vid_18 
f 87 89 90
f 87 90 88
f 87 89 90
f 87 90 88
usemtl APPID_2588835984_1742050133632 
o vid_19 
f 93 92 91
f 94 95 96
f 91 96 95
f 91 95 93
f 93 95 94
f 94 92 93
f 92 94 96
f 96 91 92
usemtl APPID_2588834640_1742050140288 
o vid_20 
f 97 99 100
f 97 100 98
f 97 99 100
f 97 100 98
usemtl APPID_2588835984_1742050133632 
o vid_21 
f 103 102 101
f 104 105 106
f 101 106 105
f 101 105 103
f 103 105 104
f 104 102 103
f 102 104 106
f 106 101 102
usemtl APPID_2588834640_1742050140288 
o vid_22 
f 107 109 110
f 107 110 108
f 107 109 110
f 107 110 108
usemtl APPID_2588835984_1742050133632 
o vid_23 
f 113 112 111
f 114 115 116
f 111 116 115
f 111 115 113
f 113 115 114
f 114 112 113
f 112 114 116
f 116 111 112
usemtl APPID_2588834640_1742050140288 
o vid_24 
f 117 119 120
f 117 120 118
f 117 119 120
f 117 120 118
usemtl APPID_2588835984_1742050133632 
o vid_25 
f 123 122 121
f 124 125 126
f 121 126 125
f 121 125 123
f 123 125 124
f 124 122 123
f 122 124 126
f 126 121 122
usemtl APPID_2588834640_1742050140288 
o vid_26 
f 127 130 131
f 127 131 128
f 128 131 132
f 128 132 129
usemtl APPID_2588835984_1742050133632 
o vid_27 
f 135 134 133
f 136 137 138
f 133 138 137
f 133 137 135
f 135 137 136
f 136 134 135
f 134 136 138
f 138 133 134
usemtl APPID_2588834640_1742050140288 
o vid_28 
f 139 142 143
f 139 143 140
f 140 143 144
f 140 144 141
usemtl APPID_2588835984_1742050133632 
o vid_29 
f 147 146 145
f 148 149 150
f 145 150 149
f 145 149 147
f 147 149 148
f 148 146 147
f 146 148 150
f 150 145 146
usemtl APPID_2588834640_1742050140288 
o vid_30 
f 151 155 156
f 152 156 157
f 151 156 152
f 152 157 153
f 153 157 158
f 153 158 154
usemtl APPID_2588835984_1742050133632 
o vid_31 
f 161 160 159
f 162 163 164
f 159 164 163
f 159 163 161
f 161 163 162
f 162 160 161
f 160 162 164
f 164 159 160
usemtl APPID_2588834640_1742050140288 
o vid_32 
f 165 170 171
f 166 171 172
f 167 172 173
f 165 171 166
f 166 172 167
f 167 173 168
f 168 173 174
f 168 174 169
usemtl APPID_2588835984_1742050133632 
o vid_33 
f 177 176 175
f 178 179 180
f 175 180 179
f 175 179 177
f 177 179 178
f 178 176 177
f 176 178 180
f 180 175 176
usemtl APPID_2588834640_1742050140288 
o vid_34 
f 181 186 187
f 182 187 188
f 183 188 189
f 181 187 182
f 182 188 183
f 183 189 184
f 184 189 190
f 184 190 185
usemtl APPID_2588835984_1742050133632 
o vid_35 
f 193 192 191
f 194 195 196
f 191 196 195
f 191 195 193
f 193 195 194
f 194 192 193
f 192 194 196
f 196 191 192
usemtl APPID_2588834640_1742050140288 
o vid_36 
f 197 201 202
f 198 202 203
f 197 202 198
f 198 203 199
f 199 203 204
f 199 204 200
usemtl APPID_2588835984_1742050133632 
o vid_37 
f 207 206 205
f 208 209 210
f 205 210 209
f 205 209 207
f 207 209 208
f 208 206 207
f 206 208 210
f 210 205 206
usemtl APPID_2588834640_1742050140288 
o vid_38 
f 211 216 217
f 212 217 218
f 213 218 219
f 211 217 212
f 212 218 213
f 213 219 214
f 214 219 220
f 214 220 215
usemtl APPID_2588835984_1742050133632 
o vid_39 
f 223 222 221
f 224 225 226
f 221 226 225
f 221 225 223
f 223 225 224
f 224 222 223
f 222 224 226
f 226 221 222
usemtl APPID_2588834640_1742050140288 
o vid_40 
f 227 232 233
f 228 233 234
f 229 234 235
f 227 233 228
f 228 234 229
f 229 235 230
f 230 235 236
f 230 236 231
usemtl APPID_2588835984_1742050133632 
o vid_41 
f 239 238 237
f 240 241 242
f 237 242 241
f 237 241 239
f 239 241 240
f 240 238 239
f 238 240 242
f 242 237 238
usemtl APPID_2588834640_1742050140288 
o vid_42 
f 243 248 249
f 244 249 250
f 245 250 251
f 243 249 244
f 244 250 245
f 245 251 246
f 246 251 252
f 246 252 247
usemtl APPID_2588836768_1742050132480 
o vid_10000004 
f 253 260 261
f 254 261 262
f 255 262 263
f 256 263 264
f 257 264 265
f 253 261 254
f 254 262 255
f 255 263 256
f 256 264 257
f 257 265 258
f 258 265 266
usemtl APPID_2588836768_1742050132480 
o vid_10000006 
f 267 274 275
f 268 275 276
f 269 276 277
f 270 277 278
f 271 278 279
f 267 275 268
f 268 276 269
f 269 277 270
f 270 278 271
f 271 279 272
f 272 279 280
usemtl APPID_2588836768_1742050132480 
o vid_10000008 
f 281 288 289
f 282 289 290
f 283 290 291
f 284 291 292
f 285 292 293
f 281 289 282
f 282 290 283
f 283 291 284
f 284 292 285
f 285 293 286
f 286 293 294
usemtl APPID_2588836768_1742050132480 
o vid_10000010 
f 295 302 303
f 296 303 304
f 297 304 305
f 298 305 306
f 299 306 307
f 295 303 296
f 296 304 297
f 297 305 298
f 298 306 299
f 299 307 300
f 300 307 308
usemtl APPID_2588836768_1742050132480 
o vid_10000012 
f 309 315 316
f 310 316 317
f 311 317 318
f 312 318 319
f 309 316 310
f 310 317 311
f 311 318 312
f 312 319 313
f 313 319 320
usemtl APPID_2588836768_1742050132480 
o vid_10000014 
f 321 328 329
f 322 329 330
f 323 330 331
f 324 331 332
f 325 332 333
f 321 329 322
f 322 330 323
f 323 331 324
f 324 332 325
f 325 333 326
f 326 333 334
usemtl APPID_2588836768_1742050132480 
o vid_10000016 
f 335 342 343
f 336 343 344
f 337 344 345
f 338 345 346
f 339 346 347
f 335 343 336
f 336 344 337
f 337 345 338
f 338 346 339
f 339 347 340
f 340 347 348
usemtl APPID_2588836768_1742050132480 
o vid_10000018 
f 349 357 358
f 350 358 359
f 351 359 360
f 352 360 361
f 353 361 362
f 354 362 363
f 349 358 350
f 350 359 351
f 351 360 352
f 352 361 353
f 353 362 354
f 354 363 355
f 355 363 364
usemtl APPID_2588836768_1742050132480 
o vid_10000020 
f 365 373 374
f 366 374 375
f 367 375 376
f 368 376 377
f 369 377 378
f 370 378 379
f 365 374 366
f 366 375 367
f 367 376 368
f 368 377 369
f 369 378 370
f 370 379 371
f 371 379 380
usemtl APPID_2588836768_1742050132480 
o vid_10000022 
f 381 389 390
f 382 390 391
f 383 391 392
f 384 392 393
f 385 393 394
f 386 394 395
f 381 390 382
f 382 391 383
f 383 392 384
f 384 393 385
f 385 394 386
f 386 395 387
f 387 395 396
usemtl APPID_2588836768_1742050132480 
o vid_10000024 
f 397 405 406
f 398 406 407
f 399 407 408
f 400 408 409
f 401 409 410
f 402 410 411
f 397 406 398
f 398 407 399
f 399 408 400
f 400 409 401
f 401 410 402
f 402 411 403
f 403 411 412
usemtl APPID_2588836768_1742050132480 
o vid_10000026 
f 413 419 420
f 414 420 421
f 415 421 422
f 416 422 423
f 413 420 414
f 414 421 415
f 415 422 416
f 416 423 417
f 417 423 424
usemtl APPID_2588836768_1742050132480 
o vid_10000028 
f 425 431 432
f 426 432 433
f 427 433 434
f 428 434 435
f 425 432 426
f 426 433 427
f 427 434 428
f 428 435 429
f 429 435 436
usemtl APPID_2588836768_1742050132480 
o vid_10000030 
f 437 443 444
f 438 444 445
f 439 445 446
f 440 446 447
f 437 444 438
f 438 445 439
f 439 446 440
f 440 447 441
f 441 447 448
usemtl APPID_2588836768_1742050132480 
o vid_10000032 
f 449 454 455
f 450 455 456
f 451 456 457
f 449 455 450
f 450 456 451
f 451 457 452
f 452 457 458
usemtl APPID_2588836768_1742050132480 
o vid_10000034 
f 459 464 465
f 460 465 466
f 461 466 467
f 459 465 460
f 460 466 461
f 461 467 462
f 462 467 468
usemtl APPID_2588836768_1742050132480 
o vid_10000036 
f 469 473 474
f 470 474 475
f 469 474 470
f 470 475 471
f 471 475 476
usemtl APPID_2588836768_1742050132480 
o vid_10000038 
f 477 481 482
f 478 482 483
f 477 482 478
f 478 483 479
f 479 483 484
usemtl APPID_2588836768_1742050132480 
o vid_10000040 
f 485 488 489
f 485 489 486
f 486 489 490
usemtl APPID_2588836768_1742050132480 
o vid_10000042 
f 491 494 495
f 491 495 492
f 492 495 496
