# File generated by PlantGL - Fri Sep  4 14:42:24 2026
v    58.201987 59.124129 0.000000
v    61.657533 58.880811 0.000000
v    60.140480 61.995060 0.000000
v    61.798013 60.875871 0.231332
v    58.342467 61.119189 0.231332
v    59.859520 58.004940 0.231332
v    61.002565 60.848205 -2.282826
v    62.069359 61.008053 -1.303779
v    61.285895 60.266579 -2.282826
v    62.069359 61.008053 -1.303779
v    61.503548 61.204422 0.231332
v    58.205166 60.699900 0.231332
v    60.291286 58.095678 0.231332
v    58.496452 58.795578 0.322458
v    61.794834 59.300100 0.322458
v    59.708714 61.904322 0.322458
v    59.324269 58.925368 -2.191701
v    58.030558 58.422372 -0.931883
v    58.803792 59.575109 -2.191701
v    58.030558 58.422372 -0.931883
v    58.272844 59.328938 0.322458
v    61.444735 58.839770 0.322458
v    60.282421 61.831292 0.322458
v    61.727156 60.671062 0.466406
v    58.555265 61.160230 0.466406
v    59.717579 58.168708 0.466406
v    60.839502 60.947645 -2.047752
v    62.766993 61.075076 -0.294514
v    61.259087 59.867733 -2.047752
v    62.766993 61.075076 -0.294514
v    61.731622 60.409625 0.466406
v    58.779443 61.294816 0.466406
v    59.488935 58.295559 0.466406
v    58.268378 59.590375 0.678771
v    61.220557 58.705184 0.678771
v    60.511065 61.704441 0.678771
v    59.165204 58.958277 -1.835387
v    56.432696 59.156134 0.651170
v    58.786947 60.557293 -1.835387
v    56.432696 59.156134 0.651170
v    58.876148 58.716648 0.678771
v    61.673341 59.668392 0.678771
v    59.450510 61.614960 0.678771
v    61.123852 61.283352 0.919582
v    58.326659 60.331608 0.919582
v    60.549490 58.385040 0.919582
v    59.510536 61.729497 -1.594577
v    63.804444 64.344381 2.968412
v    61.778958 59.743004 -1.594577
v    63.804444 64.344381 2.968412
v    61.375838 60.878433 0.919582
v    58.551335 60.752294 0.919582
v    60.072827 58.369272 0.919582
v    58.624162 59.121567 1.432331
v    61.448665 59.247706 1.432331
v    59.927173 61.630728 1.432331
v    60.056700 58.229243 -1.081828
v    55.153511 56.905655 3.527672
v    58.417521 60.796591 -1.081828
v    55.153511 56.905655 3.527672
v    58.735263 59.088754 1.432331
v    61.421531 59.360328 1.432331
v    59.843206 61.550918 1.432331
v    61.264737 60.911246 2.225064
v    58.578469 60.639672 2.225064
v    60.156794 58.449082 2.225064
v    59.387049 62.273295 -0.289094
v    61.479966 63.349405 1.924945
v    66.823921 65.119063 7.034223
v    67.414963 65.342498 7.418542
v    61.962365 58.698961 -0.289094
v    63.645647 60.343612 1.924945
v    67.015924 64.852578 7.034223
v    67.414963 65.342498 7.418542
v    61.244614 60.810576 2.225064
v    58.675713 60.672580 2.225064
v    60.079672 58.516844 2.225064
v    58.755386 59.189424 3.122958
v    61.324287 59.327420 3.122958
v    59.920328 61.483156 3.122958
v    60.654925 57.605308 0.608800
v    57.527696 56.179306 3.842333
v    53.188126 54.965685 7.932117
v    51.354693 54.369599 9.104723
v    58.074620 61.567287 0.608800
v    55.505902 59.283709 3.842333
v    52.641221 55.805441 7.932117
v    51.354693 54.369599 9.104723
v    58.765415 59.315252 3.122958
v    61.210302 59.273192 3.122958
v    60.024283 61.411556 3.122958
v    61.234585 60.684748 4.407375
v    58.789698 60.726808 4.407375
v    59.975717 58.588444 4.407375
v    59.277819 62.713403 1.893217
v    64.797693 64.779186 7.439015
v    66.716390 65.171780 9.216535
v    71.440205 66.345178 12.177014
v    61.919432 57.950639 1.893217
v    66.594594 61.539415 7.439015
v    67.943573 62.959200 9.216535
v    71.440205 66.345178 12.177014
v    61.091847 60.290438 4.407375
v    59.202550 60.800348 4.407375
v    59.705603 58.909214 4.407375
v    58.908153 59.709562 6.247708
v    60.797450 59.199652 6.247708
v    60.294397 61.090786 6.247708
v    60.355370 57.097972 3.733550
v    58.669822 56.851425 5.343589
v    53.005721 56.222702 10.705094
v    45.938704 56.259609 15.119752
v    58.866514 62.695045 3.733550
v    57.281242 62.071533 5.343589
v    52.053361 59.802922 10.705094
v    45.938704 56.259609 15.119752
v    59.196362 59.666401 6.247708
v    60.690724 59.470828 6.247708
v    60.112914 60.862770 6.247708
v    60.803638 60.333599 8.897715
v    59.309276 60.529172 8.897715
v    59.887086 59.137230 8.897715
v    58.972965 62.846852 6.383556
v    61.678927 63.621213 9.043744
v    66.488644 64.818783 13.706874
v    67.322806 65.045390 14.246867
v    74.389212 65.973111 18.581747
v    61.290995 57.262721 6.383556
v    63.749862 58.632334 9.043744
v    67.993742 61.193006 13.706874
v    68.743161 61.623759 14.246867
v    74.389212 65.973111 18.581747
v    60.489124 60.402462 8.897715
v    59.406895 60.222362 8.897715
v    60.103981 59.375175 8.897715
v    59.510876 59.597538 12.864914
v    60.593105 59.777638 12.864914
v    59.896019 60.624825 12.864914
v    62.164703 57.516820 10.350756
v    57.821335 54.709770 15.238571
v    55.599691 53.380868 17.674074
v    52.531862 51.456225 19.936497
v    47.402962 49.131395 23.361562
v    45.878074 48.380151 23.780671
v    57.980177 62.602391 10.350756
v    54.389231 58.880902 15.238571
v    52.657362 56.956762 17.674074
v    50.177947 54.317003 19.936497
v    46.908917 49.731822 23.361562
v    45.878074 48.380151 23.780671
v    59.710023 59.696604 12.864914
v    60.407737 59.900571 12.864914
v    59.882239 60.402826 12.864914
v    60.289977 60.303396 15.290000
v    59.592263 60.099429 15.290000
v    60.117761 59.597174 15.290000
v    57.555703 61.616156 10.167299
v    58.554972 62.397012 11.962083
v    62.247993 65.032960 18.336755
v    67.583839 67.934803 24.037764
v    61.725006 57.631266 10.167299
v    62.459889 58.664814 11.962083
v    64.926187 62.473225 18.336755
v    67.583839 67.934803 24.037764
mtllib usm_2_2.5D_2018-08-13_3.mtl
usemtl APPID_1970448096_1595404140800 
o vid_3 
f 3 2 1
f 4 5 6
f 1 6 5
f 1 5 3
f 3 5 4
f 4 2 3
f 2 4 6
f 6 1 2
usemtl APPID_1970448432_1595404137856 
o vid_4 
f 7 9 10
f 7 10 8
f 7 9 10
usemtl APPID_1970448096_1595404140800 
o vid_5 
f 13 12 11
f 14 15 16
f 11 16 15
f 11 15 13
f 13 15 14
f 14 12 13
f 12 14 16
f 16 11 12
usemtl APPID_1970448432_1595404137856 
o vid_6 
f 17 19 20
f 17 20 18
f 17 19 20
usemtl APPID_1970448096_1595404140800 
o vid_7 
f 23 22 21
f 24 25 26
f 21 26 25
f 21 25 23
f 23 25 24
f 24 22 23
f 22 24 26
f 26 21 22
usemtl APPID_1970448432_1595404137856 
o vid_8 
f 27 29 30
f 27 30 28
f 27 29 30
usemtl APPID_1970448096_1595404140800 
o vid_9 
f 33 32 31
f 34 35 36
f 31 36 35
f 31 35 33
f 33 35 34
f 34 32 33
f 32 34 36
f 36 31 32
usemtl APPID_1970448432_1595404137856 
o vid_10 
f 37 39 40
f 37 40 38
f 37 39 40
usemtl APPID_1970448096_1595404140800 
o vid_11 
f 43 42 41
f 44 45 46
f 41 46 45
f 41 45 43
f 43 45 44
f 44 42 43
f 42 44 46
f 46 41 42
usemtl APPID_1970448432_1595404137856 
o vid_12 
f 47 49 50
f 47 50 48
f 47 49 50
usemtl APPID_1970448096_1595404140800 
o vid_13 
f 53 52 51
f 54 55 56
f 51 56 55
f 51 55 53
f 53 55 54
f 54 52 53
f 52 54 56
f 56 51 52
usemtl APPID_1970448432_1595404137856 
o vid_14 
f 57 59 60
f 57 60 58
f 57 59 60
usemtl APPID_1970448096_1595404140800 
o vid_15 
f 63 62 61
f 64 65 66
f 61 66 65
f 61 65 63
f 63 65 64
f 64 62 63
f 62 64 66
f 66 61 62
usemtl APPID_1970448432_1595404137856 
o vid_16 
f 67 71 72
f 68 72 73
f 67 72 68
f 68 73 69
f 69 73 74
usemtl APPID_1970448096_1595404140800 
o vid_17 
f 77 76 75
f 78 79 80
f 75 80 79
f 75 79 77
f 77 79 78
f 78 76 77
f 76 78 80
f 80 75 76
usemtl APPID_1970448432_1595404137856 
o vid_18 
f 81 85 86
f 82 86 87
f 81 86 82
f 82 87 83
f 83 87 88
usemtl APPID_1970448096_1595404140800 
o vid_19 
f 91 90 89
f 92 93 94
f 89 94 93
f 89 93 91
f 91 93 92
f 92 90 91
f 90 92 94
f 94 89 90
usemtl APPID_1970448432_1595404137856 
o vid_20 
f 95 99 100
f 96 100 101
f 95 100 96
f 96 101 97
f 97 101 102
usemtl APPID_1970448096_1595404140800 
o vid_21 
f 105 104 103
f 106 107 108
f 103 108 107
f 103 107 105
f 105 107 106
f 106 104 105
f 104 106 108
f 108 103 104
usemtl APPID_1970448432_1595404137856 
o vid_22 
f 109 113 114
f 110 114 115
f 109 114 110
f 110 115 111
f 111 115 116
usemtl APPID_1970448096_1595404140800 
o vid_23 
f 119 118 117
f 120 121 122
f 117 122 121
f 117 121 119
f 119 121 120
f 120 118 119
f 118 120 122
f 122 117 118
usemtl APPID_1970448432_1595404137856 
o vid_24 
f 123 128 129
f 124 129 130
f 125 130 131
f 123 129 124
f 124 130 125
f 125 131 126
f 126 131 132
usemtl APPID_1970448096_1595404140800 
o vid_25 
f 135 134 133
f 136 137 138
f 133 138 137
f 133 137 135
f 135 137 136
f 136 134 135
f 134 136 138
f 138 133 134
usemtl APPID_1970448432_1595404137856 
o vid_26 
f 139 145 146
f 140 146 147
f 141 147 148
f 142 148 149
f 139 146 140
f 140 147 141
f 141 148 142
f 142 149 143
f 143 149 150
usemtl APPID_1970448096_1595404140800 
o vid_27 
f 153 152 151
f 154 155 156
f 151 156 155
f 151 155 153
f 153 155 154
f 154 152 153
f 152 154 156
f 156 151 152
usemtl APPID_1970448432_1595404137856 
o vid_28 
f 157 161 162
f 158 162 163
f 157 162 158
f 158 163 159
f 159 163 164
