# File generated by PlantGL - Fri Sep  4 14:41:24 2026
v    18.201987 39.124129 0.000000
v    21.657533 38.880811 0.000000
v    20.140480 41.995060 0.000000
v    21.798013 40.875871 0.231332
v    18.342467 41.119189 0.231332
v    19.859520 38.004940 0.231332
v    21.514455 41.248526 -0.085763
v    22.436235 41.573097 0.837883
v    23.293069 41.864034 1.403329
v    23.538269 41.911287 1.555212
v    24.257812 42.074120 1.737101
v    21.916655 40.422880 -0.085763
v    22.740434 40.948628 0.837883
v    23.497696 41.443970 1.403329
v    23.686051 41.607916 1.555212
v    24.257812 42.074120 1.737101
v    21.503548 41.204422 0.231332
v    18.205166 40.699900 0.231332
v    20.291286 38.095678 0.231332
v    18.496452 38.795578 0.322957
v    21.794834 39.300100 0.322957
v    19.708714 41.904322 0.322957
v    18.981697 38.396126 -0.122956
v    17.974857 37.763993 1.000662
v    17.813752 37.670474 1.175914
v    16.993862 37.170975 1.775671
v    16.377840 36.901430 2.184652
v    15.770857 36.612231 2.350422
v    18.212540 39.356308 -0.122956
v    17.375894 38.511711 1.000662
v    17.249468 38.374902 1.175914
v    16.583062 37.683799 1.775671
v    16.185563 37.141459 2.184652
v    15.770857 36.612231 2.350422
v    18.272844 39.328938 0.322957
v    21.444735 38.839770 0.322957
v    20.282421 41.831292 0.322957
v    21.727156 40.671062 0.466906
v    18.555265 41.160230 0.466906
v    19.717579 38.168708 0.466906
v    21.291521 41.302351 -0.146515
v    22.028690 41.495173 0.573657
v    23.134817 41.743858 1.640276
v    23.425009 41.815605 1.827019
v    25.153844 42.002453 2.884671
v    21.832012 39.911254 -0.146515
v    22.505991 40.266713 0.573657
v    23.489858 40.830066 1.640276
v    23.752367 40.973063 1.827019
v    25.153844 42.002453 2.884671
v    21.731622 40.409625 0.466906
v    18.779443 41.294816 0.466906
v    19.488935 38.295559 0.466906
v    18.268378 39.590375 0.679271
v    21.220557 38.705184 0.679271
v    20.511065 41.704441 0.679271
v    18.724437 38.699708 -0.146223
v    17.987589 38.612697 0.555044
v    16.183361 38.462876 2.258301
v    13.774051 38.527216 3.725781
v    18.277047 40.590976 -0.146223
v    17.579310 40.338627 0.555044
v    15.899180 39.664204 2.258301
v    13.774051 38.527216 3.725781
v    18.876148 38.716648 0.679271
v    21.673341 39.668392 0.679271
v    19.450510 41.614960 0.679271
v    21.123852 41.283352 0.920461
v    18.326659 40.331608 0.920461
v    20.549490 38.385040 0.920461
v    19.934501 41.907056 -0.166258
v    20.828858 42.718478 0.975093
v    22.471428 44.107970 2.999170
v    22.743619 44.348320 3.226014
v    25.305742 46.058749 5.099721
v    21.899026 40.186690 -0.166258
v    22.585353 41.180288 0.975093
v    23.745977 42.991827 2.999170
v    23.948313 43.293350 3.226014
v    25.305742 46.058749 5.099721
v    21.375838 40.878433 0.920461
v    18.551335 40.752294 0.920461
v    20.072827 38.369272 0.920461
v    18.624162 39.121567 1.433330
v    21.448665 39.247706 1.433330
v    19.927173 41.630728 1.433330
v    19.773615 38.073477 0.033845
v    16.884314 36.787381 3.009223
v    15.713075 36.471212 4.110308
v    13.264351 35.699480 5.671910
v    18.157094 40.605339 0.033845
v    15.774562 38.525521 3.009223
v    14.994878 37.596081 4.110308
v    13.264351 35.699480 5.671910
v    18.735263 39.088754 1.433330
v    21.421531 39.360328 1.433330
v    19.843206 41.550918 1.433330
v    21.264737 40.911246 2.226063
v    18.578469 40.639672 2.226063
v    20.156794 38.449082 2.226063
v    19.699012 42.211968 0.463004
v    20.283450 42.538579 1.095787
v    23.837536 44.365973 4.855557
v    24.614603 44.623300 5.598499
v    28.406114 46.056625 8.063892
v    22.002943 39.014294 0.463004
v    22.497762 39.465291 1.095787
v    25.356225 42.258153 4.855557
v    25.846299 42.913804 5.598499
v    28.406114 46.056625 8.063892
v    21.244614 40.810576 2.226063
v    18.675713 40.672580 2.226063
v    20.079672 38.516844 2.226063
v    18.755386 39.189424 3.122958
v    21.324287 39.327420 3.122958
v    19.920328 41.483156 3.122958
v    20.520554 37.630686 0.950189
v    16.434275 35.767363 5.175373
v    14.202064 35.143094 7.279098
v    10.887900 34.065593 9.398732
v    18.043498 41.434128 0.950189
v    14.687014 38.450229 5.175373
v    13.213464 36.661059 7.279098
v    10.887900 34.065593 9.398732
v    18.894937 39.387090 3.122958
v    21.083327 39.349443 3.122958
v    20.021735 41.263468 3.122958
v    21.105063 40.612910 4.399886
v    18.916673 40.650557 4.399886
v    19.978265 38.736532 4.399886
v    19.119757 42.630239 1.780450
v    24.136540 44.501183 6.817768
v    26.935117 45.073814 9.410424
v    30.942886 46.069346 11.922148
v    21.765190 37.860587 1.780450
v    26.008685 41.125750 6.817768
v    27.976280 43.196621 9.410424
v    30.942886 46.069346 11.922148
v    20.955512 40.254172 4.399886
v    19.302124 40.700412 4.399886
v    19.742363 39.045416 4.399886
v    19.044488 39.745828 6.223747
v    20.697876 39.299588 6.223747
v    20.257637 40.954584 6.223747
v    20.751199 36.805788 3.134520
v    14.049270 36.061864 9.478409
v    11.127470 36.192211 12.132915
v    5.744811 36.208032 15.406823
v    19.064855 43.145282 3.134520
v    12.879074 40.460995 9.478409
v    10.408202 38.896164 12.132915
v    5.744811 36.208032 15.406823
v    19.319498 39.717517 6.223747
v    20.584888 39.551910 6.223747
v    20.095613 40.730573 6.223747
v    20.680502 40.282483 8.842817
v    19.415112 40.448090 8.842817
v    19.904387 39.269427 8.842817
v    18.246553 43.456947 5.278802
v    26.391674 45.496369 13.179828
v    29.113702 45.738986 15.660175
v    36.004565 46.643661 19.887369
v    21.210194 36.317543 5.278802
v    28.405137 40.645941 13.179828
v    30.498772 42.402355 15.660175
v    36.004565 46.643661 19.887369
v    20.392156 40.322675 8.842817
v    19.524477 40.178280 8.842817
v    20.083367 39.499045 8.842817
v    19.607844 39.677325 11.106861
v    20.475523 39.821720 11.106861
v    19.916633 40.500955 11.106861
v    22.938631 37.460460 7.084538
v    17.954596 34.479202 12.548341
v    11.567145 31.898780 18.800885
v    8.421444 30.472894 20.901576
v    18.073914 43.372685 7.084538
v    14.188641 39.056071 12.548341
v    10.426434 33.285118 18.800885
v    8.421444 30.472894 20.901576
v    19.791431 39.781779 11.106861
v    20.293270 39.928484 11.106861
v    19.915299 40.289737 11.106861
v    20.208569 40.218221 11.835000
v    19.706730 40.071516 11.835000
v    20.084701 39.710263 11.835000
v    19.402335 41.883889 3.194223
v    21.168553 41.222631 10.770516
v    21.908982 39.488114 3.194223
v    21.168553 41.222631 10.770516
mtllib usm_4_Beer_2018-08-11_0.mtl
usemtl APPID_1857665168_2531587815776 
o vid_3 
f 3 2 1
f 4 5 6
f 1 6 5
f 1 5 3
f 3 5 4
f 4 2 3
f 2 4 6
f 6 1 2
usemtl APPID_1857661808_2531587805920 
o vid_4 
f 7 12 13
f 8 13 14
f 9 14 15
f 7 13 8
f 8 14 9
f 9 15 10
f 10 15 16
usemtl APPID_1857665168_2531587815776 
o vid_5 
f 19 18 17
f 20 21 22
f 17 22 21
f 17 21 19
f 19 21 20
f 20 18 19
f 18 20 22
f 22 17 18
usemtl APPID_1857661808_2531587805920 
o vid_6 
f 23 29 30
f 24 30 31
f 25 31 32
f 26 32 33
f 23 30 24
f 24 31 25
f 25 32 26
f 26 33 27
f 27 33 34
usemtl APPID_1857665168_2531587815776 
o vid_7 
f 37 36 35
f 38 39 40
f 35 40 39
f 35 39 37
f 37 39 38
f 38 36 37
f 36 38 40
f 40 35 36
usemtl APPID_1857661808_2531587805920 
o vid_8 
f 41 46 47
f 42 47 48
f 43 48 49
f 41 47 42
f 42 48 43
f 43 49 44
f 44 49 50
usemtl APPID_1857665168_2531587815776 
o vid_9 
f 53 52 51
f 54 55 56
f 51 56 55
f 51 55 53
f 53 55 54
f 54 52 53
f 52 54 56
f 56 51 52
usemtl APPID_1857661808_2531587805920 
o vid_10 
f 57 61 62
f 58 62 63
f 57 62 58
f 58 63 59
f 59 63 64
usemtl APPID_1857665168_2531587815776 
o vid_11 
f 67 66 65
f 68 69 70
f 65 70 69
f 65 69 67
f 67 69 68
f 68 66 67
f 66 68 70
f 70 65 66
usemtl APPID_1857661808_2531587805920 
o vid_12 
f 71 76 77
f 72 77 78
f 73 78 79
f 71 77 72
f 72 78 73
f 73 79 74
f 74 79 80
usemtl APPID_1857665168_2531587815776 
o vid_13 
f 83 82 81
f 84 85 86
f 81 86 85
f 81 85 83
f 83 85 84
f 84 82 83
f 82 84 86
f 86 81 82
usemtl APPID_1857661808_2531587805920 
o vid_14 
f 87 91 92
f 88 92 93
f 87 92 88
f 88 93 89
f 89 93 94
usemtl APPID_1857665168_2531587815776 
o vid_15 
f 97 96 95
f 98 99 100
f 95 100 99
f 95 99 97
f 97 99 98
f 98 96 97
f 96 98 100
f 100 95 96
usemtl APPID_1857661808_2531587805920 
o vid_16 
f 101 106 107
f 102 107 108
f 103 108 109
f 101 107 102
f 102 108 103
f 103 109 104
f 104 109 110
usemtl APPID_1857665168_2531587815776 
o vid_17 
f 113 112 111
f 114 115 116
f 111 116 115
f 111 115 113
f 113 115 114
f 114 112 113
f 112 114 116
f 116 111 112
usemtl APPID_1857661808_2531587805920 
o vid_18 
f 117 121 122
f 118 122 123
f 117 122 118
f 118 123 119
f 119 123 124
usemtl APPID_1857665168_2531587815776 
o vid_19 
f 127 126 125
f 128 129 130
f 125 130 129
f 125 129 127
f 127 129 128
f 128 126 127
f 126 128 130
f 130 125 126
usemtl APPID_1857661808_2531587805920 
o vid_20 
f 131 135 136
f 132 136 137
f 131 136 132
f 132 137 133
f 133 137 138
usemtl APPID_1857665168_2531587815776 
o vid_21 
f 141 140 139
f 142 143 144
f 139 144 143
f 139 143 141
f 141 143 142
f 142 140 141
f 140 142 144
f 144 139 140
usemtl APPID_1857661808_2531587805920 
o vid_22 
f 145 149 150
f 146 150 151
f 145 150 146
f 146 151 147
f 147 151 152
usemtl APPID_1857665168_2531587815776 
o vid_23 
f 155 154 153
f 156 157 158
f 153 158 157
f 153 157 155
f 155 157 156
f 156 154 155
f 154 156 158
f 158 153 154
usemtl APPID_1857661808_2531587805920 
o vid_24 
f 159 163 164
f 160 164 165
f 159 164 160
f 160 165 161
f 161 165 166
usemtl APPID_1857665168_2531587815776 
o vid_25 
f 169 168 167
f 170 171 172
f 167 172 171
f 167 171 169
f 169 171 170
f 170 168 169
f 168 170 172
f 172 167 168
usemtl APPID_1857661808_2531587805920 
o vid_26 
f 173 177 178
f 174 178 179
f 173 178 174
f 174 179 175
f 175 179 180
usemtl APPID_1857665168_2531587815776 
o vid_27 
f 183 182 181
f 184 185 186
f 181 186 185
f 181 185 183
f 183 185 184
f 184 182 183
f 182 184 186
f 186 181 182
usemtl APPID_1857661808_2531587805920 
o vid_28 
f 187 189 190
f 187 190 188
f 187 189 190
