# File generated by PlantGL - Fri Sep  4 14:41:40 2026
v    37.752484 58.905161 0.000000
v    42.071916 58.601013 0.000000
v    40.175600 62.493825 0.000000
v    42.247516 61.094839 0.848018
v    37.928084 61.398987 0.848018
v    39.824400 57.506175 0.848018
v    42.061621 61.449878 0.686083
v    42.363977 61.565153 0.986774
v    42.457091 61.598914 1.078665
v    42.412489 60.729608 0.686083
v    42.689638 60.896628 0.986774
v    42.773619 60.949136 1.078665
v    41.879284 61.505407 0.848018
v    37.756638 60.874804 0.848018
v    40.364078 57.619789 0.848018
v    38.120716 58.494593 1.416666
v    42.243362 59.125196 1.416666
v    39.635922 62.380211 1.416666
v    38.495907 58.052637 1.186837
v    38.164326 57.832384 1.556741
v    37.771304 58.957200 1.186837
v    37.483990 58.681685 1.556741
v    37.841416 59.161313 1.416666
v    41.805616 58.549955 1.416666
v    40.352968 62.288732 1.416666
v    42.158584 60.838687 2.254254
v    38.194384 61.450045 2.254254
v    39.647032 57.711268 2.254254
v    41.869293 61.519816 1.934528
v    41.929234 61.537152 1.992511
v    42.276033 61.631310 2.325905
v    42.405045 60.140917 1.934528
v    42.460966 60.168598 1.992511
v    42.780363 60.333281 2.325905
v    42.163962 60.511898 2.254254
v    38.474702 61.618097 2.254254
v    39.361335 57.870005 2.254254
v    37.836038 59.488102 4.114020
v    41.525298 58.381903 4.114020
v    40.638665 62.129995 4.114020
v    38.107452 58.476835 3.678044
v    37.600432 58.403713 4.154066
v    37.079379 58.337279 4.641393
v    37.625597 60.513793 3.678044
v    37.139553 60.352000 4.154066
v    36.643960 60.177941 4.641393
v    38.595695 58.396392 4.114020
v    42.090917 59.585640 4.114020
v    39.313387 62.017967 4.114020
v    41.404305 61.603608 6.002274
v    37.909083 60.414360 6.002274
v    40.686613 57.982033 6.002274
v    40.272278 62.539283 5.419557
v    40.590865 62.843607 5.828966
v    42.481159 60.604931 5.419557
v    42.740789 60.960885 5.828966
v    41.718982 61.097521 6.002274
v    38.190028 60.939922 6.002274
v    40.090990 57.962557 6.002274
v    38.281018 58.902479 11.513477
v    41.809972 59.060078 11.513477
v    39.909010 62.037443 11.513477
v    39.303724 57.402613 10.750057
v    38.688409 57.082919 11.394408
v    37.468935 56.474537 12.658770
v    37.350784 60.461386 10.750057
v    36.801843 60.037735 11.394408
v    35.736782 59.187506 12.658770
v    38.420020 58.861621 11.513477
v    41.775855 59.200887 11.513477
v    39.804125 61.937492 11.513477
v    41.579980 61.138379 19.661518
v    38.224145 60.799113 19.661518
v    40.195875 58.062508 19.661518
v    40.020250 63.182655 18.681171
v    42.723277 64.785706 21.601461
v    43.157883 65.049605 21.944140
v    46.235874 66.857969 24.347121
v    43.025401 59.011744 18.681171
v    45.401657 61.068327 21.601461
v    45.789559 61.397047 21.944140
v    48.479264 63.744323 24.347121
v    41.554633 61.012481 19.661518
v    38.345849 60.840111 19.661518
v    40.099518 58.147408 19.661518
v    38.445367 58.987519 30.885372
v    41.654151 59.159889 30.885372
v    39.900482 61.852592 30.885372
v    40.262851 56.359306 29.651395
v    36.769305 54.503911 33.327206
v    31.866987 51.924212 37.056163
v    28.186160 49.931811 38.397744
v    36.776486 61.712513 29.651395
v    33.666923 59.267523 33.327206
v    29.325274 55.826934 37.056163
v    26.014679 53.266055 38.397744
v    38.458123 59.144816 30.885372
v    41.511550 59.092287 30.885372
v    40.030327 61.762897 30.885372
v    41.541877 60.855184 48.446724
v    38.488450 60.907713 48.446724
v    39.969673 58.237103 48.446724
v    39.417630 64.459600 46.924267
v    43.879170 66.437801 51.459409
v    46.805469 67.771905 53.626921
v    50.116004 69.223505 56.060123
v    61.940463 74.578833 60.220853
v    43.474786 57.144645 46.924267
v    47.515272 59.881996 51.459409
v    50.196464 61.658022 53.626921
v    53.180779 63.697789 56.060123
v    63.984738 70.893053 60.220853
v    41.614895 60.429572 48.446724
v    38.820532 61.183754 48.446724
v    39.564573 58.386674 48.446724
v    38.385105 59.570428 69.871530
v    41.179468 58.816246 69.871530
v    40.435427 61.613326 69.871530
v    39.838656 54.620735 68.030362
v    34.022565 53.616786 73.514892
v    28.956392 52.687887 76.986231
v    25.890915 52.171707 79.078720
v    8.873180 49.095155 84.621892
v    4.709863 48.481880 84.573975
v    37.187264 64.588141 68.030362
v    31.641049 62.569647 73.514892
v    26.782926 60.858622 76.986231
v    23.866136 59.783482 79.078720
v    7.568975 53.998067 84.621892
v    3.651201 52.461722 84.573975
v    38.541706 59.394647 69.871530
v    41.253398 59.039757 69.871530
v    40.204896 61.565597 69.871530
v    41.458294 60.605353 89.783161
v    38.746602 60.960243 89.783161
v    39.795104 58.434403 89.783161
v    39.080380 65.924690 87.600670
v    45.754980 68.021682 94.101946
v    48.068718 68.775145 95.741923
v    55.100932 70.952765 100.697220
v    70.753557 76.007008 105.969480
v    74.670797 77.102282 107.268009
v    77.971504 78.045637 107.228927
v    43.546522 55.165764 87.600670
v    49.744013 58.412111 94.101946
v    51.911161 59.518710 95.741923
v    58.418235 62.961389 100.697220
v    73.048715 70.477977 105.969480
v    76.590039 72.478831 107.268009
v    79.588490 74.150321 107.228927
v    41.148136 60.944713 89.783161
v    38.607786 60.521958 89.783161
v    40.244078 58.533328 89.783161
v    38.851864 59.055287 113.738124
v    41.392214 59.478042 113.738124
v    39.755922 61.466672 113.738124
v    43.422001 53.787857 111.202281
v    36.710340 49.201589 118.756132
v    32.267011 46.097008 122.409341
v    27.334771 42.756332 126.419200
v    9.193953 30.148229 133.500399
v    0.227738 24.369635 133.952115
v    34.563143 64.554273 111.202281
v    28.770200 58.851462 118.756132
v    24.868042 55.089181 122.409341
v    20.640054 50.892608 126.419200
v    4.774420 35.519411 133.500399
v    -2.622710 27.833864 133.952115
v    39.036323 58.991726 113.738124
v    41.355030 59.669568 113.738124
v    39.608648 61.338706 113.738124
v    40.963677 61.008274 134.192471
v    38.644970 60.330432 134.192471
v    40.391352 58.661294 134.192471
v    35.226806 66.204330 131.304434
v    42.193382 72.301630 139.907414
v    44.878398 74.701422 142.334464
v    51.946908 80.836798 148.634782
v    68.538838 95.592169 155.751869
v    72.359567 98.727525 157.329749
v    78.604333 103.912373 157.237343
v    79.668119 104.579741 157.223391
v    46.413774 55.512172 131.304434
v    52.189894 62.747274 139.907414
v    54.465847 65.538036 142.334464
v    60.275396 72.876688 148.634782
v    74.265589 90.118718 155.751869
v    77.225011 94.077284 157.329749
v    82.122243 100.550063 157.237343
v    82.740838 101.642932 157.223391
v    40.912312 60.929805 134.192471
v    38.738610 60.325183 134.192471
v    40.349079 58.745013 134.192471
v    39.087688 59.070195 147.048688
v    41.261390 59.674817 147.048688
v    39.650921 61.254987 147.048688
v    44.905700 53.686201 143.824694
v    40.446606 49.885624 149.269172
v    36.987387 47.033953 153.428430
v    25.933396 37.690597 163.171021
v    15.091597 28.300615 167.768370
v    4.036662 19.468812 172.285594
v    0.987480 17.637797 172.859082
v    33.594177 64.784911 143.824694
v    29.878966 60.254446 149.269172
v    27.093503 56.741695 153.428430
v    17.961756 45.512260 163.171021
v    8.779361 34.494094 167.768370
v    0.159092 23.273430 172.285594
v    -1.613686 20.190025 172.859082
v    39.188946 59.101354 147.048688
v    41.183778 59.746930 147.048688
v    39.627277 61.151717 147.048688
v    40.811054 60.898646 158.345851
v    38.816222 60.253070 158.345851
v    40.372723 58.848283 158.345851
v    34.056707 66.653172 154.818115
v    40.404407 72.537465 162.861267
v    42.382610 74.311773 165.326648
v    54.041405 85.030644 175.987119
v    67.591958 97.793028 181.953653
v    78.593325 107.359797 186.608014
v    85.162122 111.898009 186.518965
v    47.225722 54.767755 154.818115
v    52.430493 61.683575 162.861267
v    53.993345 63.832749 165.326648
v    63.464607 76.525932 175.987119
v    74.775350 91.309810 181.953653
v    83.167728 103.231266 186.608014
v    87.010871 110.229460 186.518965
v    40.935446 60.182106 158.345851
v    39.374569 60.719067 158.345851
v    39.689986 59.098827 158.345851
v    39.064554 59.817894 164.722155
v    40.625431 59.280933 164.722155
v    40.310014 60.901173 164.722155
v    41.024442 51.173120 160.938525
v    28.927932 50.088556 172.209324
v    12.025120 48.407940 183.643082
v    1.679015 47.253359 186.979939
v    -14.884427 46.067969 192.281285
v    -23.722151 46.664442 195.034393
v    -25.954340 46.788350 195.009554
v    37.638407 68.566573 160.938525
v    26.018424 65.034176 172.209324
v    9.719534 60.251319 183.643082
v    -0.304137 57.440455 186.979939
v    -16.102666 52.325844 192.281285
v    -24.071238 48.457639 195.034393
v    -26.093934 47.505420 195.009554
v    39.449106 59.545530 164.722155
v    40.669029 59.750147 164.722155
v    39.881864 60.704323 164.722155
v    40.550894 60.454470 168.525440
v    39.330971 60.249853 168.525440
v    40.118136 59.295677 168.525440
v    34.715164 67.079205 164.547741
v    45.367754 74.124266 176.396640
v    60.140152 84.157376 188.416856
v    63.812488 86.716661 189.851613
v    78.519825 96.121988 195.424876
v    90.383258 101.564580 199.481673
v    45.945661 53.465955 164.547741
v    54.887039 62.585292 176.396640
v    67.545050 75.181394 188.416856
v    70.755684 78.300340 189.851613
v    82.784990 90.951890 195.424876
v    90.383258 101.564580 199.481673
v    40.403100 60.302700 168.525440
v    39.536304 60.197745 168.525440
v    40.060596 59.499555 168.525440
v    39.596900 59.697300 171.363518
v    40.463696 59.802255 171.363518
v    39.939404 60.500445 171.363518
v    45.421410 52.431410 167.264631
v    34.124182 45.680596 179.474527
v    18.445440 36.047789 191.860960
v    12.302664 32.171168 194.189229
v    -3.279561 23.181534 199.932291
v    -15.747808 18.137271 204.112686
v    34.243433 67.316911 167.264631
v    24.610096 58.350325 179.474527
v    10.987272 45.979692 191.860960
v    5.551470 41.161606 194.189229
v    -7.426781 28.704308 199.932291
v    -15.747808 18.137271 204.112686
v    39.735585 59.814803 171.363518
v    40.292593 59.863608 171.363518
v    39.971822 60.321589 171.363518
v    40.264415 60.185197 172.394000
v    39.707407 60.136392 172.394000
v    40.028178 59.678411 172.394000
v    36.258912 66.051633 164.120761
v    46.095420 71.232634 178.445420
v    58.828432 77.445934 191.703460
v    61.092698 78.086668 193.808812
v    70.465638 81.338218 198.717216
v    44.408610 54.415902 164.120761
v    52.639486 61.889346 178.445420
v    62.830445 71.732059 191.703460
v    64.206463 73.640990 193.808812
v    70.465638 81.338218 198.717216
v    42.457091 61.598914 1.078665
v    43.228435 61.888097 1.657813
v    43.935039 62.163927 1.900948
v    44.606829 62.395893 2.127840
v    45.149057 62.508274 2.139823
v    42.773619 60.949136 1.078665
v    43.476801 61.378244 1.657813
v    44.129562 61.764605 1.900948
v    44.726323 62.150591 2.127840
v    45.149057 62.508274 2.139823
v    38.164326 57.832384 1.556741
v    38.010760 57.730377 1.728055
v    37.018823 57.079621 2.565979
v    35.994038 56.387144 2.962419
v    35.207136 55.899740 3.257921
v    34.414709 55.525884 3.248154
v    37.483990 58.681685 1.556741
v    37.350926 58.554085 1.728055
v    36.499359 57.728098 2.565979
v    35.599908 56.879159 2.962419
v    34.952506 56.217609 3.257921
v    34.414709 55.525884 3.248154
v    42.276033 61.631310 2.325905
v    42.859622 61.789757 2.886938
v    44.240114 62.182869 3.853120
v    44.956609 62.396253 4.092749
v    46.316301 62.743093 4.540726
v    47.195609 62.841034 4.815714
v    47.366453 62.862131 4.813802
v    42.780363 60.333281 2.325905
v    43.317841 60.610408 2.886938
v    44.601612 61.252459 3.853120
v    45.274222 61.578792 4.092749
v    46.511409 62.240932 4.540726
v    47.226181 62.762348 4.815714
v    47.366453 62.862131 4.813802
v    37.079379 58.337279 4.641393
v    36.720820 58.291563 4.976743
v    34.782468 58.020145 6.294220
v    33.225221 57.782953 6.799126
v    31.323659 57.570118 7.409984
v    30.690643 57.587449 7.606806
v    29.855822 57.600336 7.597530
v    36.643960 60.177941 4.641393
v    36.302921 60.058163 4.976743
v    34.448402 59.432354 6.294220
v    32.949930 58.946699 6.799126
v    31.154549 58.285001 7.409984
v    30.596390 57.985890 7.606806
v    29.855822 57.600336 7.597530
v    40.590865 62.843607 5.828966
v    41.330156 63.549803 6.779014
v    43.527143 65.624357 8.916287
v    45.764649 67.795857 9.915706
v    47.525682 69.374177 10.670664
v    49.323639 70.646877 10.646115
v    42.740789 60.960885 5.828966
v    43.343269 61.786888 6.779014
v    45.109816 64.238385 8.916287
v    46.967117 66.742837 9.915706
v    48.299288 68.696718 10.670664
v    49.323639 70.646877 10.646115
v    37.468935 56.474537 12.658770
v    34.068760 54.731103 15.331137
v    31.865365 53.564046 16.130350
v    28.844610 52.114512 17.199998
v    27.527841 51.694789 17.629553
v    26.411783 51.324311 17.616487
v    35.736782 59.187506 12.658770
v    32.724395 56.836703 15.331137
v    30.738486 55.329010 16.130350
v    28.152374 53.198719 17.199998
v    27.217512 52.180839 17.629553
v    26.411783 51.324311 17.616487
v    46.235874 66.857969 24.347121
v    52.263323 70.492917 26.716848
v    54.454472 71.700011 27.515488
v    56.104969 72.621654 27.493967
v    59.237342 73.860550 27.456541
v    48.479264 63.744323 24.347121
v    53.835270 68.311180 26.716848
v    55.673895 70.007548 27.515488
v    57.070606 71.281426 27.493967
v    59.237342 73.860550 27.456541
v    28.186160 49.931811 38.397744
v    24.961879 48.186534 39.572925
v    21.592472 46.532071 40.771276
v    20.030922 45.754152 40.751415
v    16.019126 44.382055 40.704306
v    26.014679 53.266055 38.397744
v    23.114708 51.022810 39.572925
v    20.239114 48.610111 40.771276
v    18.896215 47.496460 40.751415
v    16.019126 44.382055 40.704306
v    61.940463 74.578833 60.220853
v    63.163268 75.085386 60.643756
v    68.594022 77.326081 60.576873
v    72.620497 78.391506 60.530597
v    73.636451 78.656072 60.344629
v    63.984738 70.893053 60.220853
v    65.061920 71.662162 60.643756
v    69.838275 75.082722 60.576873
v    72.874076 77.934308 60.530597
v    73.636451 78.656072 60.344629
v    4.709863 48.481880 84.573975
v    0.332622 47.843123 84.523613
v    -3.138585 47.800548 84.485043
v    -5.949688 47.777100 83.987069
v    3.651201 52.461722 84.573975
v    -0.464886 50.841201 84.523613
v    -3.498468 49.153462 84.485043
v    -5.949688 47.777100 83.987069
v    77.971504 78.045637 107.228927
v    80.232903 78.691954 107.202151
v    87.652445 79.781024 107.118831
v    79.588490 74.150321 107.228927
v    81.642805 75.295502 107.202151
v    87.652445 79.781024 107.118831
v    0.227738 24.369635 133.952115
v    -0.552639 23.865662 133.941539
v    -6.755432 20.939577 133.865338
v    -8.410412 20.166786 133.541790
v    -2.622710 27.833864 133.952115
v    -3.267533 27.165149 133.941539
v    -7.333373 21.641964 133.865338
v    -8.410412 20.166786 133.541790
v    79.668119 104.579741 157.223391
v    87.010381 109.185925 157.127089
v    82.740838 101.642932 157.223391
v    87.010381 109.185925 157.127089
v    0.987480 17.637797 172.859082
v    -5.358713 13.771554 172.776517
v    -1.613686 20.190025 172.859082
v    -5.358713 13.771554 172.776517
v    85.162122 111.898009 186.518965
v    89.385122 114.718604 186.462541
v    87.010871 110.229460 186.518965
v    89.385122 114.718604 186.462541
v    -25.954340 46.788350 195.009554
v    -27.441744 46.870915 194.993002
v    -26.093934 47.505420 195.009554
v    -27.441744 46.870915 194.993002
mtllib usm_1_Beer_2018-08-24_1.mtl
usemtl APPID_1439682096_2556942845792 
o vid_3 
f 3 2 1
f 4 5 6
f 1 6 5
f 1 5 3
f 3 5 4
f 4 2 3
f 2 4 6
f 6 1 2
usemtl APPID_1439651408_2556942846560 
o vid_4 
f 7 10 11
f 7 11 8
f 8 11 12
f 8 12 9
usemtl APPID_1439682096_2556942845792 
o vid_5 
f 15 14 13
f 16 17 18
f 13 18 17
f 13 17 15
f 15 17 16
f 16 14 15
f 14 16 18
f 18 13 14
usemtl APPID_1439651408_2556942846560 
o vid_6 
f 19 21 22
f 19 22 20
f 19 21 22
f 19 22 20
usemtl APPID_1439682096_2556942845792 
o vid_7 
f 25 24 23
f 26 27 28
f 23 28 27
f 23 27 25
f 25 27 26
f 26 24 25
f 24 26 28
f 28 23 24
usemtl APPID_1439651408_2556942846560 
o vid_8 
f 29 32 33
f 29 33 30
f 30 33 34
f 30 34 31
usemtl APPID_1439682096_2556942845792 
o vid_9 
f 37 36 35
f 38 39 40
f 35 40 39
f 35 39 37
f 37 39 38
f 38 36 37
f 36 38 40
f 40 35 36
usemtl APPID_1439651408_2556942846560 
o vid_10 
f 41 44 45
f 41 45 42
f 42 45 46
f 42 46 43
usemtl APPID_1439682096_2556942845792 
o vid_11 
f 49 48 47
f 50 51 52
f 47 52 51
f 47 51 49
f 49 51 50
f 50 48 49
f 48 50 52
f 52 47 48
usemtl APPID_1439651408_2556942846560 
o vid_12 
f 53 55 56
f 53 56 54
f 53 55 56
f 53 56 54
usemtl APPID_1439682096_2556942845792 
o vid_13 
f 59 58 57
f 60 61 62
f 57 62 61
f 57 61 59
f 59 61 60
f 60 58 59
f 58 60 62
f 62 57 58
usemtl APPID_1439651408_2556942846560 
o vid_14 
f 63 66 67
f 63 67 64
f 64 67 68
f 64 68 65
usemtl APPID_1439682096_2556942845792 
o vid_15 
f 71 70 69
f 72 73 74
f 69 74 73
f 69 73 71
f 71 73 72
f 72 70 71
f 70 72 74
f 74 69 70
usemtl APPID_1439651408_2556942846560 
o vid_16 
f 75 79 80
f 76 80 81
f 75 80 76
f 76 81 77
f 77 81 82
f 77 82 78
usemtl APPID_1439682096_2556942845792 
o vid_17 
f 85 84 83
f 86 87 88
f 83 88 87
f 83 87 85
f 85 87 86
f 86 84 85
f 84 86 88
f 88 83 84
usemtl APPID_1439651408_2556942846560 
o vid_18 
f 89 93 94
f 90 94 95
f 89 94 90
f 90 95 91
f 91 95 96
f 91 96 92
usemtl APPID_1439682096_2556942845792 
o vid_19 
f 99 98 97
f 100 101 102
f 97 102 101
f 97 101 99
f 99 101 100
f 100 98 99
f 98 100 102
f 102 97 98
usemtl APPID_1439651408_2556942846560 
o vid_20 
f 103 108 109
f 104 109 110
f 105 110 111
f 103 109 104
f 104 110 105
f 105 111 106
f 106 111 112
f 106 112 107
usemtl APPID_1439682096_2556942845792 
o vid_21 
f 115 114 113
f 116 117 118
f 113 118 117
f 113 117 115
f 115 117 116
f 116 114 115
f 114 116 118
f 118 113 114
usemtl APPID_1439651408_2556942846560 
o vid_22 
f 119 125 126
f 120 126 127
f 121 127 128
f 122 128 129
f 119 126 120
f 120 127 121
f 121 128 122
f 122 129 123
f 123 129 130
f 123 130 124
usemtl APPID_1439682096_2556942845792 
o vid_23 
f 133 132 131
f 134 135 136
f 131 136 135
f 131 135 133
f 133 135 134
f 134 132 133
f 132 134 136
f 136 131 132
usemtl APPID_1439651408_2556942846560 
o vid_24 
f 137 144 145
f 138 145 146
f 139 146 147
f 140 147 148
f 141 148 149
f 137 145 138
f 138 146 139
f 139 147 140
f 140 148 141
f 141 149 142
f 142 149 150
f 142 150 143
usemtl APPID_1439682096_2556942845792 
o vid_25 
f 153 152 151
f 154 155 156
f 151 156 155
f 151 155 153
f 153 155 154
f 154 152 153
f 152 154 156
f 156 151 152
usemtl APPID_1439651408_2556942846560 
o vid_26 
f 157 163 164
f 158 164 165
f 159 165 166
f 160 166 167
f 157 164 158
f 158 165 159
f 159 166 160
f 160 167 161
f 161 167 168
f 161 168 162
usemtl APPID_1439682096_2556942845792 
o vid_27 
f 171 170 169
f 172 173 174
f 169 174 173
f 169 173 171
f 171 173 172
f 172 170 171
f 170 172 174
f 174 169 170
usemtl APPID_1439651408_2556942846560 
o vid_28 
f 175 183 184
f 176 184 185
f 177 185 186
f 178 186 187
f 179 187 188
f 180 188 189
f 175 184 176
f 176 185 177
f 177 186 178
f 178 187 179
f 179 188 180
f 180 189 181
f 181 189 190
f 181 190 182
usemtl APPID_1439682096_2556942845792 
o vid_29 
f 193 192 191
f 194 195 196
f 191 196 195
f 191 195 193
f 193 195 194
f 194 192 193
f 192 194 196
f 196 191 192
usemtl APPID_1439651408_2556942846560 
o vid_30 
f 197 204 205
f 198 205 206
f 199 206 207
f 200 207 208
f 201 208 209
f 197 205 198
f 198 206 199
f 199 207 200
f 200 208 201
f 201 209 202
f 202 209 210
f 202 210 203
usemtl APPID_1439682096_2556942845792 
o vid_31 
f 213 212 211
f 214 215 216
f 211 216 215
f 211 215 213
f 213 215 214
f 214 212 213
f 212 214 216
f 216 211 212
usemtl APPID_1439651408_2556942846560 
o vid_32 
f 217 224 225
f 218 225 226
f 219 226 227
f 220 227 228
f 221 228 229
f 217 225 218
f 218 226 219
f 219 227 220
f 220 228 221
f 221 229 222
f 222 229 230
f 222 230 223
usemtl APPID_1439682096_2556942845792 
o vid_33 
f 233 232 231
f 234 235 236
f 231 236 235
f 231 235 233
f 233 235 234
f 234 232 233
f 232 234 236
f 236 231 232
usemtl APPID_1439651408_2556942846560 
o vid_34 
f 237 244 245
f 238 245 246
f 239 246 247
f 240 247 248
f 241 248 249
f 237 245 238
f 238 246 239
f 239 247 240
f 240 248 241
f 241 249 242
f 242 249 250
f 242 250 243
usemtl APPID_1439682096_2556942845792 
o vid_35 
f 253 252 251
f 254 255 256
f 251 256 255
f 251 255 253
f 253 255 254
f 254 252 253
f 252 254 256
f 256 251 252
usemtl APPID_1439651408_2556942846560 
o vid_36 
f 257 263 264
f 258 264 265
f 259 265 266
f 260 266 267
f 257 264 258
f 258 265 259
f 259 266 260
f 260 267 261
f 261 267 268
usemtl APPID_1439682096_2556942845792 
o vid_37 
f 271 270 269
f 272 273 274
f 269 274 273
f 269 273 271
f 271 273 272
f 272 270 271
f 270 272 274
f 274 269 270
usemtl APPID_1439651408_2556942846560 
o vid_38 
f 275 281 282
f 276 282 283
f 277 283 284
f 278 284 285
f 275 282 276
f 276 283 277
f 277 284 278
f 278 285 279
f 279 285 286
usemtl APPID_1439682096_2556942845792 
o vid_39 
f 289 288 287
f 290 291 292
f 287 292 291
f 287 291 289
f 289 291 290
f 290 288 289
f 288 290 292
f 292 287 288
usemtl APPID_1439651408_2556942846560 
o vid_40 
f 293 298 299
f 294 299 300
f 295 300 301
f 293 299 294
f 294 300 295
f 295 301 296
f 296 301 302
usemtl APPID_1439657008_2556942843232 
o vid_10000004 
f 303 308 309
f 304 309 310
f 305 310 311
f 303 309 304
f 304 310 305
f 305 311 306
f 306 311 312
usemtl APPID_1439657008_2556942843232 
o vid_10000006 
f 313 319 320
f 314 320 321
f 315 321 322
f 316 322 323
f 313 320 314
f 314 321 315
f 315 322 316
f 316 323 317
f 317 323 324
usemtl APPID_1439657008_2556942843232 
o vid_10000008 
f 325 332 333
f 326 333 334
f 327 334 335
f 328 335 336
f 329 336 337
f 325 333 326
f 326 334 327
f 327 335 328
f 328 336 329
f 329 337 330
f 330 337 338
usemtl APPID_1439657008_2556942843232 
o vid_10000010 
f 339 346 347
f 340 347 348
f 341 348 349
f 342 349 350
f 343 350 351
f 339 347 340
f 340 348 341
f 341 349 342
f 342 350 343
f 343 351 344
f 344 351 352
usemtl APPID_1439657008_2556942843232 
o vid_10000012 
f 353 359 360
f 354 360 361
f 355 361 362
f 356 362 363
f 353 360 354
f 354 361 355
f 355 362 356
f 356 363 357
f 357 363 364
usemtl APPID_1439657008_2556942843232 
o vid_10000014 
f 365 371 372
f 366 372 373
f 367 373 374
f 368 374 375
f 365 372 366
f 366 373 367
f 367 374 368
f 368 375 369
f 369 375 376
usemtl APPID_1439657008_2556942843232 
o vid_10000016 
f 377 382 383
f 378 383 384
f 379 384 385
f 377 383 378
f 378 384 379
f 379 385 380
f 380 385 386
usemtl APPID_1439657008_2556942843232 
o vid_10000018 
f 387 392 393
f 388 393 394
f 389 394 395
f 387 393 388
f 388 394 389
f 389 395 390
f 390 395 396
usemtl APPID_1439657008_2556942843232 
o vid_10000020 
f 397 402 403
f 398 403 404
f 399 404 405
f 397 403 398
f 398 404 399
f 399 405 400
f 400 405 406
usemtl APPID_1439657008_2556942843232 
o vid_10000022 
f 407 411 412
f 408 412 413
f 407 412 408
f 408 413 409
f 409 413 414
usemtl APPID_1439657008_2556942843232 
o vid_10000024 
f 415 418 419
f 415 419 416
f 416 419 420
usemtl APPID_1439657008_2556942843232 
o vid_10000026 
f 421 425 426
f 422 426 427
f 421 426 422
f 422 427 423
f 423 427 428
usemtl APPID_1439657008_2556942843232 
o vid_10000028 
f 429 431 432
f 429 432 430
f 429 431 432
usemtl APPID_1439657008_2556942843232 
o vid_10000030 
f 433 435 436
f 433 436 434
f 433 435 436
usemtl APPID_1439657008_2556942843232 
o vid_10000032 
f 437 439 440
f 437 440 438
f 437 439 440
usemtl APPID_1439657008_2556942843232 
o vid_10000034 
f 441 443 444
f 441 444 442
f 441 443 444
