# File generated by PlantGL - Fri Sep  4 14:43:40 2026
v    18.201987 179.124129 0.000000
v    21.657533 178.880811 0.000000
v    20.140480 181.995060 0.000000
v    21.798013 180.875871 0.231332
v    18.342467 181.119189 0.231332
v    19.859520 178.004940 0.231332
v    20.990308 180.834410 -2.341808
v    22.033906 180.990782 -1.384049
v    21.267477 180.265431 -2.341808
v    22.033906 180.990782 -1.384049
v    21.503548 181.204422 0.231332
v    18.205166 180.699900 0.231332
v    20.291286 178.095678 0.231332
v    18.496452 178.795578 0.322458
v    21.794834 179.300100 0.322458
v    19.708714 181.904322 0.322458
v    19.332015 178.942986 -2.250682
v    18.065988 178.450753 -1.017822
v    18.822675 179.578823 -2.250682
v    18.065988 178.450753 -1.017822
v    18.272844 179.328938 0.322458
v    21.444735 178.839770 0.322458
v    20.282421 181.831292 0.322458
v    21.727156 180.671062 0.466406
v    18.555265 181.160230 0.466406
v    19.717579 178.168708 0.466406
v    20.827957 180.930252 -2.106734
v    22.715415 181.055036 -0.389909
v    21.238827 179.872768 -2.106734
v    22.715415 181.055036 -0.389909
v    21.731622 180.409625 0.466406
v    18.779443 181.294816 0.466406
v    19.488935 178.295559 0.466406
v    18.268378 179.590375 0.678771
v    21.220557 178.705184 0.678771
v    20.511065 181.704441 0.678771
v    19.178064 178.978024 -1.894369
v    16.499625 179.171966 0.542986
v    18.807292 180.545400 -1.894369
v    16.499625 179.171966 0.542986
v    19.029238 178.891465 0.678771
v    21.445401 179.713563 0.678771
v    19.525361 181.394972 0.678771
v    20.970762 181.108535 0.903326
v    18.554599 180.286437 0.903326
v    20.474639 178.605028 0.903326
v    19.551346 181.362202 -1.669813
v    23.068633 183.504142 2.067887
v    21.409488 179.734997 -1.669813
v    23.068633 183.504142 2.067887
v    20.973448 180.621519 0.903326
v    18.975025 180.532272 0.903326
v    20.051527 178.846209 0.903326
v    19.026552 179.378481 1.432322
v    21.024975 179.467728 1.432322
v    19.948473 181.153791 1.432322
v    20.585249 178.320263 -1.140818
v    15.013335 176.816157 4.097352
v    18.722510 181.237761 -1.140818
v    15.013335 176.816157 4.097352
v    19.302774 179.497647 1.432322
v    20.783663 179.647361 1.432322
v    19.913563 180.854992 1.432322
v    20.697226 180.502353 2.225063
v    19.216337 180.352639 2.225063
v    20.086437 179.145008 2.225063
v    18.801215 181.860648 -0.348076
v    20.680338 182.826831 1.639796
v    26.440542 184.734332 7.147044
v    26.714747 184.837991 7.325343
v    21.385493 178.273875 -0.348076
v    22.896825 179.750523 1.639796
v    26.529619 184.610700 7.147044
v    26.714747 184.837991 7.325343
v    20.491661 180.320203 2.225063
v    19.476866 180.265690 2.225063
v    20.031473 179.414107 2.225063
v    19.508339 179.679797 2.586000
v    20.523134 179.734310 2.586000
v    19.968527 180.585893 2.586000
v    21.322484 179.119311 -2.624203
v    17.044934 178.075464 2.256842
v    19.729261 181.565656 -2.624203
v    17.044934 178.075464 2.256842
mtllib usm_12_2.5D_2018-07-29_4.mtl
usemtl APPID_3599640272_2314290330112 
o vid_3 
f 3 2 1
f 4 5 6
f 1 6 5
f 1 5 3
f 3 5 4
f 4 2 3
f 2 4 6
f 6 1 2
usemtl APPID_3599640384_2314290329600 
o vid_4 
f 7 9 10
f 7 10 8
f 7 9 10
usemtl APPID_3599640272_2314290330112 
o vid_5 
f 13 12 11
f 14 15 16
f 11 16 15
f 11 15 13
f 13 15 14
f 14 12 13
f 12 14 16
f 16 11 12
usemtl APPID_3599640384_2314290329600 
o vid_6 
f 17 19 20
f 17 20 18
f 17 19 20
usemtl APPID_3599640272_2314290330112 
o vid_7 
f 23 22 21
f 24 25 26
f 21 26 25
f 21 25 23
f 23 25 24
f 24 22 23
f 22 24 26
f 26 21 22
usemtl APPID_3599640384_2314290329600 
o vid_8 
f 27 29 30
f 27 30 28
f 27 29 30
usemtl APPID_3599640272_2314290330112 
o vid_9 
f 33 32 31
f 34 35 36
f 31 36 35
f 31 35 33
f 33 35 34
f 34 32 33
f 32 34 36
f 36 31 32
usemtl APPID_3599640384_2314290329600 
o vid_10 
f 37 39 40
f 37 40 38
f 37 39 40
usemtl APPID_3599640272_2314290330112 
o vid_11 
f 43 42 41
f 44 45 46
f 41 46 45
f 41 45 43
f 43 45 44
f 44 42 43
f 42 44 46
f 46 41 42
usemtl APPID_3599640384_2314290329600 
o vid_12 
f 47 49 50
f 47 50 48
f 47 49 50
usemtl APPID_3599640272_2314290330112 
o vid_13 
f 53 52 51
f 54 55 56
f 51 56 55
f 51 55 53
f 53 55 54
f 54 52 53
f 52 54 56
f 56 51 52
usemtl APPID_3599640384_2314290329600 
o vid_14 
f 57 59 60
f 57 60 58
f 57 59 60
usemtl APPID_3599640272_2314290330112 
o vid_15 
f 63 62 61
f 64 65 66
f 61 66 65
f 61 65 63
f 63 65 64
f 64 62 63
f 62 64 66
f 66 61 62
usemtl APPID_3599640384_2314290329600 
o vid_16 
f 67 71 72
f 68 72 73
f 67 72 68
f 68 73 69
f 69 73 74
usemtl APPID_3599640272_2314290330112 
o vid_17 
f 77 76 75
f 78 79 80
f 75 80 79
f 75 79 77
f 77 79 78
f 78 76 77
f 76 78 80
f 80 75 76
usemtl APPID_3599640384_2314290329600 
o vid_18 
f 81 83 84
f 81 84 82
f 81 83 84
