# File generated by PlantGL - Fri Sep  4 14:41:52 2026
v    18.201987 19.124129 0.000000
v    21.657533 18.880811 0.000000
v    20.140480 21.995060 0.000000
v    21.798013 20.875871 0.331061
v    18.342467 21.119189 0.331061
v    19.859520 18.004940 0.331061
v    21.383011 21.452572 -0.085637
v    22.230290 21.774414 0.773151
v    22.584556 21.899155 1.128134
v    23.805267 22.351593 1.944180
v    24.964051 22.759653 2.328973
v    26.273324 23.055942 2.659937
v    21.996298 20.193600 -0.085637
v    22.772004 20.662368 0.773151
v    23.088606 20.864428 1.128134
v    24.197338 21.546739 1.944180
v    25.232953 22.207642 2.328973
v    26.273324 23.055942 2.659937
v    21.503548 21.204422 0.331061
v    18.205166 20.699900 0.331061
v    20.291286 18.095678 0.331061
v    18.496452 18.795578 0.718770
v    21.794834 19.300100 0.718770
v    19.708714 21.904322 0.718770
v    19.285308 18.076928 0.143568
v    17.811194 17.100353 1.819033
v    17.373791 16.802376 2.151401
v    16.078418 15.959196 3.120245
v    15.264277 15.414720 3.367383
v    13.796524 14.487688 3.804288
v    13.192971 14.200122 3.969121
v    12.115514 13.684107 3.722176
v    17.967303 19.722267 0.143568
v    16.692533 18.496840 1.819033
v    16.306274 18.135018 2.151401
v    15.200694 17.054908 3.120245
v    14.491651 16.379232 3.367383
v    13.266618 15.149200 3.804288
v    12.854254 14.622962 3.969121
v    12.115514 13.684107 3.722176
v    18.272844 19.328938 0.718770
v    21.444735 18.839770 0.718770
v    20.282421 21.831292 0.718770
v    21.727156 20.671062 1.487000
v    18.555265 21.160230 1.487000
v    19.717579 18.168708 1.487000
v    20.989748 21.949782 0.711738
v    23.279998 22.609103 2.969945
v    24.437159 22.958484 3.729033
v    25.965589 23.385147 4.723730
v    27.777673 23.915378 5.200142
v    30.039705 24.513576 5.789008
v    32.530784 24.868659 5.413822
v    22.046515 19.229915 0.711738
v    24.181127 20.289811 2.969945
v    25.270625 20.813338 3.729033
v    26.686179 21.530519 4.723730
v    28.380902 22.362808 5.200142
v    30.453431 23.448743 5.789008
v    32.530784 24.868659 5.413822
v    21.551452 20.367005 1.487000
v    18.906439 21.160094 1.487000
v    19.542110 18.472901 1.487000
v    18.448548 19.632995 2.857087
v    21.093561 18.839906 2.857087
v    20.457890 21.527099 2.857087
v    19.188329 17.787658 1.836837
v    16.083506 17.343775 4.808653
v    13.923037 17.006356 6.181858
v    12.445100 16.807235 7.116646
v    9.311047 16.345221 7.916002
v    6.524836 16.008600 8.622319
v    2.936674 15.963572 7.879028
v    18.283137 21.614203 1.836837
v    15.308507 20.619956 4.808653
v    13.225841 19.953637 6.181858
v    11.815330 19.469479 7.116646
v    8.806444 18.478344 7.916002
v    6.164714 17.530955 8.622319
v    2.936674 15.963572 7.879028
v    19.168683 19.050701 2.857087
v    21.237776 19.754708 2.857087
v    19.593541 21.194591 2.857087
v    20.831317 20.949299 4.462301
v    18.762224 20.245292 4.462301
v    20.406459 18.805409 4.462301
v    18.518146 22.470927 3.151326
v    19.222341 23.142269 4.073222
v    21.435594 25.251252 6.969974
v    24.812052 28.552938 9.935641
v    30.049171 33.613032 11.773572
v    32.993582 36.303782 11.110145
v    36.453450 38.788571 10.229628
v    22.644841 18.857115 3.151326
v    23.217403 19.643730 4.073222
v    25.015932 22.115893 6.969974
v    27.843265 25.898457 9.935641
v    32.168137 31.757420 11.773572
v    34.446878 35.031108 11.110145
v    36.453450 38.788571 10.229628
v    20.802737 20.512525 4.462301
v    19.154772 20.438928 4.462301
v    20.042491 19.048547 4.462301
v    19.197263 19.487475 11.576758
v    20.845228 19.561072 11.576758
v    19.957509 20.951453 11.576758
v    21.626021 16.567543 9.931963
v    17.203748 14.262271 14.658427
v    11.917897 11.437954 18.443805
v    6.382015 8.408848 20.038353
v    3.457965 6.877977 20.871175
v    -0.614774 4.741716 19.898629
v    -5.109083 2.530790 18.842142
v    -9.753824 0.999761 16.572730
v    -9.764094 0.996475 16.566572
v    17.570503 22.919461 9.931963
v    13.618335 19.877891 14.658427
v    8.831913 16.271349 18.443805
v    3.754500 12.524169 20.038353
v    1.135299 10.515832 20.871175
v    -2.516463 7.720219 19.898629
v    -6.413359 4.573601 18.842142
v    -9.756792 1.004409 16.572730
v    -9.764094 0.996475 16.566572
v    19.459700 19.610713 11.576758
v    20.607283 19.726730 11.576758
v    19.933017 20.662557 11.576758
v    20.540300 20.389287 17.861123
v    19.392717 20.273270 17.861123
v    20.066983 19.337443 17.861123
v    17.512372 23.594803 15.846196
v    20.286589 25.236375 18.900629
v    22.843495 26.748527 21.715337
v    29.042716 30.523719 26.273472
v    32.331835 32.571192 27.252457
v    39.118277 36.624727 29.247077
v    45.954296 40.529869 27.585427
v    51.257667 42.744722 26.397407
v    51.919875 42.998345 25.992430
v    22.622490 16.502366 15.846196
v    25.057821 18.614285 18.900629
v    27.301597 20.561035 21.715337
v    32.845009 25.246439 26.273472
v    35.828359 27.718294 27.252457
v    41.821685 32.872612 29.247077
v    47.689942 38.120931 27.585427
v    51.469673 42.450474 26.397407
v    51.919875 42.998345 25.992430
v    20.337232 20.219628 17.861123
v    19.641180 20.182238 17.861123
v    20.021587 19.598134 17.861123
v    19.662768 19.780372 18.931000
v    20.358820 19.817762 18.931000
v    19.978413 20.401866 18.931000
v    20.844357 17.340149 14.237111
v    20.686792 17.357583 15.435647
v    19.607522 17.625314 22.853453
v    19.288326 17.831519 24.369144
v    16.953780 18.016098 30.361800
v    17.908700 21.847760 14.237111
v    17.860935 21.696600 15.435647
v    17.669402 20.601237 22.853453
v    17.728932 20.225921 24.369144
v    16.953780 18.016098 30.361800
mtllib usm_17_Beer_2018-08-15_0.mtl
usemtl APPID_1761828416_2183767597280 
o vid_3 
f 3 2 1
f 4 5 6
f 1 6 5
f 1 5 3
f 3 5 4
f 4 2 3
f 2 4 6
f 6 1 2
usemtl APPID_1761825616_2183767590496 
o vid_4 
f 7 13 14
f 8 14 15
f 9 15 16
f 10 16 17
f 7 14 8
f 8 15 9
f 9 16 10
f 10 17 11
f 11 17 18
usemtl APPID_1761828416_2183767597280 
o vid_5 
f 21 20 19
f 22 23 24
f 19 24 23
f 19 23 21
f 21 23 22
f 22 20 21
f 20 22 24
f 24 19 20
usemtl APPID_1761825616_2183767590496 
o vid_6 
f 25 33 34
f 26 34 35
f 27 35 36
f 28 36 37
f 29 37 38
f 30 38 39
f 25 34 26
f 26 35 27
f 27 36 28
f 28 37 29
f 29 38 30
f 30 39 31
f 31 39 40
usemtl APPID_1761828416_2183767597280 
o vid_7 
f 43 42 41
f 44 45 46
f 41 46 45
f 41 45 43
f 43 45 44
f 44 42 43
f 42 44 46
f 46 41 42
usemtl APPID_1761825616_2183767590496 
o vid_8 
f 47 54 55
f 48 55 56
f 49 56 57
f 50 57 58
f 51 58 59
f 47 55 48
f 48 56 49
f 49 57 50
f 50 58 51
f 51 59 52
f 52 59 60
usemtl APPID_1761828416_2183767597280 
o vid_9 
f 63 62 61
f 64 65 66
f 61 66 65
f 61 65 63
f 63 65 64
f 64 62 63
f 62 64 66
f 66 61 62
usemtl APPID_1761825616_2183767590496 
o vid_10 
f 67 74 75
f 68 75 76
f 69 76 77
f 70 77 78
f 71 78 79
f 67 75 68
f 68 76 69
f 69 77 70
f 70 78 71
f 71 79 72
f 72 79 80
usemtl APPID_1761828416_2183767597280 
o vid_11 
f 83 82 81
f 84 85 86
f 81 86 85
f 81 85 83
f 83 85 84
f 84 82 83
f 82 84 86
f 86 81 82
usemtl APPID_1761825616_2183767590496 
o vid_12 
f 87 94 95
f 88 95 96
f 89 96 97
f 90 97 98
f 91 98 99
f 87 95 88
f 88 96 89
f 89 97 90
f 90 98 91
f 91 99 92
f 92 99 100
usemtl APPID_1761828416_2183767597280 
o vid_13 
f 103 102 101
f 104 105 106
f 101 106 105
f 101 105 103
f 103 105 104
f 104 102 103
f 102 104 106
f 106 101 102
usemtl APPID_1761825616_2183767590496 
o vid_14 
f 107 116 117
f 108 117 118
f 109 118 119
f 110 119 120
f 111 120 121
f 112 121 122
f 113 122 123
f 107 117 108
f 108 118 109
f 109 119 110
f 110 120 111
f 111 121 112
f 112 122 113
f 113 123 114
f 114 123 124
usemtl APPID_1761828416_2183767597280 
o vid_15 
f 127 126 125
f 128 129 130
f 125 130 129
f 125 129 127
f 127 129 128
f 128 126 127
f 126 128 130
f 130 125 126
usemtl APPID_1761825616_2183767590496 
o vid_16 
f 131 140 141
f 132 141 142
f 133 142 143
f 134 143 144
f 135 144 145
f 136 145 146
f 137 146 147
f 131 141 132
f 132 142 133
f 133 143 134
f 134 144 135
f 135 145 136
f 136 146 137
f 137 147 138
f 138 147 148
usemtl APPID_1761828416_2183767597280 
o vid_17 
f 151 150 149
f 152 153 154
f 149 154 153
f 149 153 151
f 151 153 152
f 152 150 151
f 150 152 154
f 154 149 150
usemtl APPID_1761825616_2183767590496 
o vid_18 
f 155 160 161
f 156 161 162
f 157 162 163
f 155 161 156
f 156 162 157
f 157 163 158
f 158 163 164
