# File generated by PlantGL - Fri Sep  4 14:43:03 2026
v    19.432985 99.723789 0.000000
v    20.522713 99.647057 0.000000
v    20.044301 100.629155 0.000000
v    20.567015 100.276211 0.188000
v    19.477287 100.352943 0.188000
v    19.955699 99.370845 0.188000
v    20.375552 100.603830 -0.623429
v    20.622952 100.633009 0.091677
v    20.983200 100.568724 0.990793
v    21.175781 100.572761 1.299008
v    20.706964 99.923499 -0.623429
v    20.882443 100.100319 0.091677
v    21.053890 100.423609 0.990793
v    21.175781 100.572761 1.299008
mtllib usm_19_2.5D_2018-07-08_2.mtl
usemtl APPID_3534033296_1420965884416 
o vid_3 
f 3 2 1
f 4 5 6
f 1 6 5
f 1 5 3
f 3 5 4
f 4 2 3
f 2 4 6
f 6 1 2
usemtl APPID_3534034528_1420965891840 
o vid_4 
f 7 11 12
f 8 12 13
f 7 12 8
f 8 13 9
f 9 13 14
