# File generated by PlantGL - Wed Jul 15 17:35:36 2026
v    27.752244 58.905161 0.000000
v    32.071676 58.601013 0.000000
v    30.175360 62.493825 0.000000
v    32.247276 61.094839 1.426662
v    27.927844 61.398987 1.426662
v    29.824160 57.506175 1.426662
v    32.157131 61.379837 1.293723
v    32.326818 61.438551 1.586437
v    32.550195 61.510892 1.968208
v    32.755462 61.585728 2.186903
v    33.102348 61.699007 2.550669
v    33.448310 61.821883 2.759373
v    33.897561 61.915662 3.013906
v    33.965264 61.931727 3.027906
v    32.416119 60.848177 1.293723
v    32.566951 60.945598 1.586437
v    32.761609 61.076896 1.968208
v    32.947067 61.192395 2.186903
v    33.250094 61.395710 2.550669
v    33.560108 61.592380 2.759373
v    33.910880 61.888320 3.013906
v    33.965264 61.931727 3.027906
v    31.879044 61.505407 1.426662
v    27.756398 60.874804 1.426662
v    30.363838 57.619789 1.426662
v    28.120476 58.494593 3.929988
v    32.243122 59.125196 3.929988
v    29.635682 62.380211 3.929988
v    28.320420 58.146855 3.743638
v    28.234753 58.093717 3.907978
v    27.821532 57.848667 4.689111
v    27.120258 57.426430 5.505587
v    26.897839 57.285942 5.655134
v    26.233349 56.982904 6.060186
v    27.824761 58.765614 3.743638
v    27.754206 58.693610 3.907978
v    27.424875 58.343836 4.689111
v    26.859758 57.751626 5.505587
v    26.674112 57.565233 5.655134
v    26.233349 56.982904 6.060186
v    27.945954 59.202023 3.929988
v    31.717732 58.620340 3.929988
v    30.335594 62.177637 3.929988
v    32.053566 60.797977 7.888276
v    28.281788 61.379660 7.888276
v    29.663926 57.822363 7.888276
v    31.934299 61.337609 7.632349
v    32.082869 61.375610 7.882343
v    32.710665 61.522919 8.930831
v    32.865454 61.565239 9.091457
v    33.803154 61.787692 10.052153
v    34.176460 61.886424 10.271660
v    35.171883 62.009555 10.827946
v    32.329918 60.319378 7.632349
v    32.465171 60.391653 7.882343
v    33.027740 60.706844 8.930831
v    33.170497 60.780130 9.091457
v    34.012408 61.249121 10.052153
v    34.354448 61.428326 10.271660
v    35.171883 62.009555 10.827946
v    31.720564 60.407066 7.888276
v    28.786828 61.286727 7.888276
v    29.491888 58.306207 7.888276
v    28.278956 59.592934 13.401149
v    31.212692 58.713273 13.401149
v    30.507633 61.693793 13.401149
v    28.316078 58.943486 13.056788
v    27.789258 58.894787 13.917022
v    27.240283 58.869125 14.803950
v    26.263621 58.776429 15.781917
v    25.712547 58.814736 16.312736
v    25.032998 58.825084 16.689669
v    28.021165 60.190181 13.056788
v    27.528362 59.997682 13.917022
v    27.026073 59.774662 14.803950
v    26.111393 59.419950 15.781917
v    25.635888 59.138800 16.312736
v    25.032998 58.825084 16.689669
v    29.102465 58.975359 13.401149
v    31.335773 59.735241 13.401149
v    29.561042 61.289400 13.401149
v    30.897055 61.024641 18.659366
v    28.663747 60.264759 18.659366
v    30.438478 58.710600 18.659366
v    30.364106 61.690027 18.205402
v    30.864596 62.121478 19.279807
v    31.463321 62.591923 20.508652
v    32.403267 63.406233 21.748365
v    33.068081 63.813719 22.497655
v    33.754036 64.287094 22.959893
v    31.626941 60.584143 18.205402
v    31.988585 61.137183 19.279807
v    32.375921 61.792745 20.508652
v    33.059096 62.831912 21.748365
v    33.375304 63.544679 22.497655
v    33.754036 64.287094 22.959893
v    30.829530 60.529784 18.659366
v    29.126068 60.453710 18.659366
v    30.043682 59.016506 18.659366
v    29.169990 59.470216 36.731944
v    30.873452 59.546290 36.731944
v    29.955838 60.983494 36.731944
v    29.585062 58.461387 36.145618
v    28.876116 58.137862 37.412681
v    27.894461 57.742752 39.120429
v    26.526150 57.114272 40.621438
v    25.454038 56.821545 41.689369
v    24.552463 56.522056 42.216264
v    28.429500 60.271274 36.145618
v    27.837683 59.764298 37.412681
v    27.066167 59.040059 39.120429
v    25.920241 58.063271 40.621438
v    25.203537 57.213890 41.689369
v    24.552463 56.522056 42.216264
v    29.483960 59.628365 36.731944
v    30.579506 59.739122 36.731944
v    29.935815 60.632514 36.731944
v    30.515560 60.371635 43.143000
v    29.420014 60.260878 43.143000
v    30.063705 59.367486 43.143000
v    30.441899 61.661743 41.762672
v    31.441194 61.916584 45.506538
v    31.620064 61.898790 46.032078
v    32.992466 62.156252 48.423915
v    31.716008 59.893380 41.762672
v    32.274070 60.760618 45.506538
v    32.313812 60.935923 46.032078
v    32.992466 62.156252 48.423915
mtllib usm_1_2.5D_2018-07-21_2.mtl
usemtl APPID_115469584_1816860439776 
o vid_3 
f 3 2 1
f 4 5 6
f 1 6 5
f 1 5 3
f 3 5 4
f 4 2 3
f 2 4 6
f 6 1 2
usemtl APPID_115474960_1816860442848 
o vid_4 
f 7 15 16
f 8 16 17
f 9 17 18
f 10 18 19
f 11 19 20
f 12 20 21
f 7 16 8
f 8 17 9
f 9 18 10
f 10 19 11
f 11 20 12
f 12 21 13
f 13 21 22
usemtl APPID_115469584_1816860439776 
o vid_5 
f 25 24 23
f 26 27 28
f 23 28 27
f 23 27 25
f 25 27 26
f 26 24 25
f 24 26 28
f 28 23 24
usemtl APPID_115474960_1816860442848 
o vid_6 
f 29 35 36
f 30 36 37
f 31 37 38
f 32 38 39
f 29 36 30
f 30 37 31
f 31 38 32
f 32 39 33
f 33 39 40
usemtl APPID_115469584_1816860439776 
o vid_7 
f 43 42 41
f 44 45 46
f 41 46 45
f 41 45 43
f 43 45 44
f 44 42 43
f 42 44 46
f 46 41 42
usemtl APPID_115474960_1816860442848 
o vid_8 
f 47 54 55
f 48 55 56
f 49 56 57
f 50 57 58
f 51 58 59
f 47 55 48
f 48 56 49
f 49 57 50
f 50 58 51
f 51 59 52
f 52 59 60
usemtl APPID_115469584_1816860439776 
o vid_9 
f 63 62 61
f 64 65 66
f 61 66 65
f 61 65 63
f 63 65 64
f 64 62 63
f 62 64 66
f 66 61 62
usemtl APPID_115474960_1816860442848 
o vid_10 
f 67 73 74
f 68 74 75
f 69 75 76
f 70 76 77
f 67 74 68
f 68 75 69
f 69 76 70
f 70 77 71
f 71 77 78
usemtl APPID_115469584_1816860439776 
o vid_11 
f 81 80 79
f 82 83 84
f 79 84 83
f 79 83 81
f 81 83 82
f 82 80 81
f 80 82 84
f 84 79 80
usemtl APPID_115474960_1816860442848 
o vid_12 
f 85 91 92
f 86 92 93
f 87 93 94
f 88 94 95
f 85 92 86
f 86 93 87
f 87 94 88
f 88 95 89
f 89 95 96
usemtl APPID_115469584_1816860439776 
o vid_13 
f 99 98 97
f 100 101 102
f 97 102 101
f 97 101 99
f 99 101 100
f 100 98 99
f 98 100 102
f 102 97 98
usemtl APPID_115474960_1816860442848 
o vid_14 
f 103 109 110
f 104 110 111
f 105 111 112
f 106 112 113
f 103 110 104
f 104 111 105
f 105 112 106
f 106 113 107
f 107 113 114
usemtl APPID_115469584_1816860439776 
o vid_15 
f 117 116 115
f 118 119 120
f 115 120 119
f 115 119 117
f 117 119 118
f 118 116 117
f 116 118 120
f 120 115 116
usemtl APPID_115474960_1816860442848 
o vid_16 
f 121 125 126
f 122 126 127
f 121 126 122
f 122 127 123
f 123 127 128
