# File generated by PlantGL - Fri Sep  4 14:42:56 2026
v    18.201987 59.124129 0.000000
v    21.657533 58.880811 0.000000
v    20.140480 61.995060 0.000000
v    21.798013 60.875871 0.331061
v    18.342467 61.119189 0.331061
v    19.859520 58.004940 0.331061
v    21.394330 61.445563 -0.061071
v    22.502944 61.866673 1.062602
v    23.848409 62.365006 1.968217
v    25.176317 62.842921 2.323568
v    26.059887 63.042873 2.546920
v    26.411247 63.123128 2.472420
v    21.997756 60.206833 -0.061071
v    23.012721 60.820188 1.062602
v    24.234493 61.572441 1.968217
v    25.429366 62.323454 2.323568
v    26.131466 62.895934 2.546920
v    26.411247 63.123128 2.472420
v    21.503548 61.204422 0.331061
v    18.205166 60.699900 0.331061
v    20.291286 58.095678 0.331061
v    18.496452 58.795578 0.718770
v    21.794834 59.300100 0.718770
v    19.708714 61.904322 0.718770
v    19.266993 58.084573 0.176461
v    17.877177 57.163843 1.756114
v    17.006434 56.570659 2.417763
v    16.250808 56.078809 2.982916
v    14.954690 55.211999 3.376361
v    13.587779 54.348658 3.783249
v    11.981493 53.576749 3.414751
v    17.970766 59.702725 0.176461
v    16.768894 58.547374 1.756114
v    15.999963 57.827093 2.417763
v    15.355049 57.197035 2.982916
v    14.226247 56.121355 3.376361
v    13.085379 54.975832 3.783249
v    11.981493 53.576749 3.414751
v    18.479246 59.409132 0.718770
v    21.272084 58.978422 0.718770
v    20.248671 61.612446 0.718770
v    21.520754 60.590868 1.487000
v    18.727916 61.021578 1.487000
v    19.751329 58.387554 1.487000
v    20.803781 61.851388 0.754799
v    22.966822 62.474087 2.887577
v    24.761721 63.016020 4.065016
v    25.497640 63.221452 4.543950
v    28.015961 63.958334 5.206038
v    29.623507 64.383452 5.624524
v    32.512167 64.861425 5.016320
v    21.842899 59.176943 0.754799
v    23.858947 60.177969 2.887577
v    25.548893 60.990024 4.065016
v    26.230464 61.335337 4.543950
v    28.585684 62.492000 5.206038
v    30.058557 63.263735 5.624524
v    32.512167 64.861425 5.016320
v    21.254121 60.296670 1.487000
v    19.116016 60.937766 1.487000
v    19.629863 58.765565 1.487000
v    18.745879 59.703330 2.857581
v    20.883984 59.062234 2.857581
v    20.370137 61.234435 2.857581
v    19.462700 57.885786 1.892457
v    16.525635 57.465886 4.703701
v    13.537140 56.999148 6.603204
v    9.039198 56.341766 7.919777
v    7.494711 56.155166 8.311311
v    6.135479 55.989566 8.022487
v    2.999573 55.978451 7.374261
v    18.572394 61.649404 1.892457
v    15.758486 60.708878 4.703701
v    12.877614 59.787184 6.603204
v    8.561860 58.359634 7.919777
v    7.097463 57.834466 8.311311
v    5.808096 57.373524 8.022487
v    2.999573 55.978451 7.374261
v    19.361656 59.271061 2.857581
v    20.950452 59.811648 2.857581
v    19.687892 60.917292 2.857581
v    20.638344 60.728939 4.464214
v    19.049548 60.188352 4.464214
v    20.312108 59.082708 4.464214
v    18.370373 62.237522 3.222259
v    19.856901 63.654701 5.168348
v    21.134017 64.871649 6.839864
v    24.332711 67.999509 9.649394
v    26.086953 69.748874 10.275402
v    29.535121 73.063395 11.482257
v    33.163253 76.420345 10.438956
v    35.965556 78.432888 9.725785
v    36.395961 78.722923 9.429380
v    22.432974 58.679838 3.222259
v    23.641631 60.340353 5.168348
v    24.679438 61.766868 6.839864
v    27.357918 65.350287 9.649394
v    28.860534 67.320004 10.275402
v    31.691128 71.175345 11.482257
v    34.540036 75.214674 10.438956
v    36.165249 78.258014 9.725785
v    36.395961 78.722923 9.429380
v    20.566497 60.361692 4.464214
v    19.403517 60.309754 4.464214
v    20.029986 59.328554 4.464214
v    19.433503 59.638308 8.739573
v    20.596483 59.690246 8.739573
v    19.970014 60.671446 8.739573
v    21.855717 57.452250 5.608701
v    17.689511 55.305322 10.266438
v    13.216909 52.921596 13.620338
v    6.713663 49.528455 15.837199
v    4.732598 48.558098 16.448483
v    2.468966 47.443052 15.978588
v    -2.331295 45.742105 15.049038
v    18.469722 62.755533 5.608701
v    14.768951 59.879621 10.266438
v    10.724435 56.825411 13.620338
v    4.909710 52.353879 15.837199
v    3.195797 50.965098 16.448483
v    1.231722 49.380874 15.978588
v    -2.331295 45.742105 15.049038
v    19.676864 59.767180 8.739573
v    20.363196 59.836566 8.739573
v    19.959940 60.396254 8.739573
v    20.323136 60.232820 9.211000
v    19.636804 60.163434 9.211000
v    20.040060 59.603746 9.211000
v    19.493017 62.077831 5.551074
v    19.941299 61.695459 10.795748
v    20.381000 61.215009 13.634977
v    21.433895 61.033125 16.900981
v    21.810497 58.861354 5.551074
v    21.589691 59.407622 10.795748
v    21.273134 59.976798 13.634977
v    21.433895 61.033125 16.900981
mtllib usm_25_2.5D_2018-08-09_1.mtl
usemtl APPID_3202195264_2021840807408 
o vid_3 
f 3 2 1
f 4 5 6
f 1 6 5
f 1 5 3
f 3 5 4
f 4 2 3
f 2 4 6
f 6 1 2
usemtl APPID_3202195152_2021840808048 
o vid_4 
f 7 13 14
f 8 14 15
f 9 15 16
f 10 16 17
f 7 14 8
f 8 15 9
f 9 16 10
f 10 17 11
f 11 17 18
usemtl APPID_3202195264_2021840807408 
o vid_5 
f 21 20 19
f 22 23 24
f 19 24 23
f 19 23 21
f 21 23 22
f 22 20 21
f 20 22 24
f 24 19 20
usemtl APPID_3202195152_2021840808048 
o vid_6 
f 25 32 33
f 26 33 34
f 27 34 35
f 28 35 36
f 29 36 37
f 25 33 26
f 26 34 27
f 27 35 28
f 28 36 29
f 29 37 30
f 30 37 38
usemtl APPID_3202195264_2021840807408 
o vid_7 
f 41 40 39
f 42 43 44
f 39 44 43
f 39 43 41
f 41 43 42
f 42 40 41
f 40 42 44
f 44 39 40
usemtl APPID_3202195152_2021840808048 
o vid_8 
f 45 52 53
f 46 53 54
f 47 54 55
f 48 55 56
f 49 56 57
f 45 53 46
f 46 54 47
f 47 55 48
f 48 56 49
f 49 57 50
f 50 57 58
usemtl APPID_3202195264_2021840807408 
o vid_9 
f 61 60 59
f 62 63 64
f 59 64 63
f 59 63 61
f 61 63 62
f 62 60 61
f 60 62 64
f 64 59 60
usemtl APPID_3202195152_2021840808048 
o vid_10 
f 65 72 73
f 66 73 74
f 67 74 75
f 68 75 76
f 69 76 77
f 65 73 66
f 66 74 67
f 67 75 68
f 68 76 69
f 69 77 70
f 70 77 78
usemtl APPID_3202195264_2021840807408 
o vid_11 
f 81 80 79
f 82 83 84
f 79 84 83
f 79 83 81
f 81 83 82
f 82 80 81
f 80 82 84
f 84 79 80
usemtl APPID_3202195152_2021840808048 
o vid_12 
f 85 94 95
f 86 95 96
f 87 96 97
f 88 97 98
f 89 98 99
f 90 99 100
f 91 100 101
f 85 95 86
f 86 96 87
f 87 97 88
f 88 98 89
f 89 99 90
f 90 100 91
f 91 101 92
f 92 101 102
usemtl APPID_3202195264_2021840807408 
o vid_13 
f 105 104 103
f 106 107 108
f 103 108 107
f 103 107 105
f 105 107 106
f 106 104 105
f 104 106 108
f 108 103 104
usemtl APPID_3202195152_2021840808048 
o vid_14 
f 109 116 117
f 110 117 118
f 111 118 119
f 112 119 120
f 113 120 121
f 109 117 110
f 110 118 111
f 111 119 112
f 112 120 113
f 113 121 114
f 114 121 122
usemtl APPID_3202195264_2021840807408 
o vid_15 
f 125 124 123
f 126 127 128
f 123 128 127
f 123 127 125
f 125 127 126
f 126 124 125
f 124 126 128
f 128 123 124
usemtl APPID_3202195152_2021840808048 
o vid_16 
f 129 133 134
f 130 134 135
f 129 134 130
f 130 135 131
f 131 135 136
