# File generated by PlantGL - Fri Sep  4 14:41:41 2026
v    18.201987 19.124129 0.000000
v    21.657533 18.880811 0.000000
v    20.140480 21.995060 0.000000
v    21.798013 20.875871 0.231332
v    18.342467 21.119189 0.231332
v    19.859520 18.004940 0.231332
v    21.015967 20.863790 -2.217577
v    22.109613 21.027661 -1.213887
v    21.306428 20.267524 -2.217577
v    22.109613 21.027661 -1.213887
v    21.299035 21.040596 0.231332
v    18.449300 20.604699 0.231332
v    20.251665 18.354705 0.231332
v    18.700965 18.959404 0.322458
v    21.550700 19.395301 0.322458
v    19.748335 21.645295 0.322458
v    19.520490 19.069357 -2.126452
v    18.194775 18.553918 -0.835469
v    18.987137 19.735172 -2.126452
v    18.194775 18.553918 -0.835469
v    18.777641 19.525070 0.322458
v    21.022481 19.178871 0.322458
v    20.199878 21.296059 0.322458
v    21.222359 20.474930 0.466406
v    18.977519 20.821129 0.466406
v    19.800122 18.703941 0.466406
v    20.347273 20.771282 -1.982504
v    22.320934 20.901766 -0.187268
v    20.776908 19.665502 -1.982504
v    22.320934 20.901766 -0.187268
v    20.954954 20.225900 0.466406
v    19.326888 20.714064 0.466406
v    19.718158 19.060036 0.466406
v    19.045046 19.774100 0.678771
v    20.673112 19.285936 0.678771
v    20.281842 20.939964 0.678771
v    19.927804 19.119483 -1.770139
v    17.133181 19.321837 0.772943
v    19.540949 20.754848 -1.770139
v    17.133181 19.321837 0.772943
v    19.555821 19.492781 0.678771
v    20.661354 19.868939 0.678771
v    19.782825 20.638280 0.678771
v    20.444179 20.507219 0.875000
v    19.338646 20.131061 0.875000
v    20.217175 19.361720 0.875000
v    19.043727 20.194229 -4.083224
v    21.271719 21.452205 -1.252059
v    20.318701 19.077714 -4.083224
v    21.271719 21.452205 -1.252059
mtllib usm_8_2.5D_2018-07-20_0.mtl
usemtl APPID_3719341280_1408176021232 
o vid_3 
f 3 2 1
f 4 5 6
f 1 6 5
f 1 5 3
f 3 5 4
f 4 2 3
f 2 4 6
f 6 1 2
usemtl APPID_3719343856_1408176021104 
o vid_4 
f 7 9 10
f 7 10 8
f 7 9 10
usemtl APPID_3719341280_1408176021232 
o vid_5 
f 13 12 11
f 14 15 16
f 11 16 15
f 11 15 13
f 13 15 14
f 14 12 13
f 12 14 16
f 16 11 12
usemtl APPID_3719343856_1408176021104 
o vid_6 
f 17 19 20
f 17 20 18
f 17 19 20
usemtl APPID_3719341280_1408176021232 
o vid_7 
f 23 22 21
f 24 25 26
f 21 26 25
f 21 25 23
f 23 25 24
f 24 22 23
f 22 24 26
f 26 21 22
usemtl APPID_3719343856_1408176021104 
o vid_8 
f 27 29 30
f 27 30 28
f 27 29 30
usemtl APPID_3719341280_1408176021232 
o vid_9 
f 33 32 31
f 34 35 36
f 31 36 35
f 31 35 33
f 33 35 34
f 34 32 33
f 32 34 36
f 36 31 32
usemtl APPID_3719343856_1408176021104 
o vid_10 
f 37 39 40
f 37 40 38
f 37 39 40
usemtl APPID_3719341280_1408176021232 
o vid_11 
f 43 42 41
f 44 45 46
f 41 46 45
f 41 45 43
f 43 45 44
f 44 42 43
f 42 44 46
f 46 41 42
usemtl APPID_3719343856_1408176021104 
o vid_12 
f 47 49 50
f 47 50 48
f 47 49 50
