# File generated by PlantGL - Fri Sep  4 14:43:54 2026
v    18.201987 219.124129 0.000000
v    21.657533 218.880811 0.000000
v    20.140480 221.995060 0.000000
v    21.798013 220.875871 0.231332
v    18.342467 221.119189 0.231332
v    19.859520 218.004940 0.231332
v    20.990308 220.834410 -2.341808
v    22.033906 220.990782 -1.384049
v    21.267477 220.265431 -2.341808
v    22.033906 220.990782 -1.384049
v    21.503548 221.204422 0.231332
v    18.205166 220.699900 0.231332
v    20.291286 218.095678 0.231332
v    18.496452 218.795578 0.322458
v    21.794834 219.300100 0.322458
v    19.708714 221.904322 0.322458
v    19.332015 218.942986 -2.250682
v    18.065988 218.450753 -1.017822
v    18.822675 219.578823 -2.250682
v    18.065988 218.450753 -1.017822
v    18.272844 219.328938 0.322458
v    21.444735 218.839770 0.322458
v    20.282421 221.831292 0.322458
v    21.727156 220.671062 0.466406
v    18.555265 221.160230 0.466406
v    19.717579 218.168708 0.466406
v    20.827957 220.930252 -2.106734
v    22.715415 221.055036 -0.389909
v    21.238827 219.872768 -2.106734
v    22.715415 221.055036 -0.389909
v    21.731622 220.409625 0.466406
v    18.779443 221.294816 0.466406
v    19.488935 218.295559 0.466406
v    18.268378 219.590375 0.678771
v    21.220557 218.705184 0.678771
v    20.511065 221.704441 0.678771
v    19.178064 218.978024 -1.894369
v    16.499625 219.171966 0.542986
v    18.807292 220.545400 -1.894369
v    16.499625 219.171966 0.542986
v    18.876148 218.716648 0.678771
v    21.673341 219.668392 0.678771
v    19.450510 221.614960 0.678771
v    21.123852 221.283352 0.903326
v    18.326659 220.331608 0.903326
v    20.549490 218.385040 0.903326
v    19.704436 221.537018 -1.669813
v    23.221723 223.678959 2.067887
v    21.562578 219.909814 -1.669813
v    23.221723 223.678959 2.067887
v    21.375838 220.878433 0.903326
v    18.551335 220.752294 0.903326
v    20.072827 218.369272 0.903326
v    18.624162 219.121567 1.432322
v    21.448665 219.247706 1.432322
v    19.927173 221.630728 1.432322
v    20.182860 218.063349 -1.140818
v    14.610945 216.559242 4.097352
v    18.320120 220.980847 -1.140818
v    14.610945 216.559242 4.097352
v    18.735263 219.088754 1.432322
v    21.421531 219.360328 1.432322
v    19.843206 221.550918 1.432322
v    21.264737 220.911246 2.225063
v    18.578469 220.639672 2.225063
v    20.156794 218.449082 2.225063
v    19.368726 222.269541 -0.348076
v    21.247849 223.235725 1.639796
v    27.008053 225.143225 7.147044
v    27.282258 225.246884 7.325343
v    21.953004 218.682769 -0.348076
v    23.464337 220.159416 1.639796
v    27.097130 225.019593 7.147044
v    27.282258 225.246884 7.325343
v    21.244614 220.810576 2.225063
v    18.675713 220.672580 2.225063
v    20.079672 218.516844 2.225063
v    18.755386 219.189424 3.118961
v    21.324287 219.327420 3.118961
v    19.920328 221.483156 3.118961
v    20.670584 217.612526 0.545821
v    17.793669 216.300666 3.520533
v    12.997172 214.959259 8.040942
v    11.525342 214.480737 8.982278
v    18.087553 221.578690 0.545821
v    15.724444 219.477897 3.520533
v    12.558132 215.633392 8.040942
v    11.525342 214.480737 8.982278
v    18.824801 219.348190 3.118961
v    21.152084 219.308153 3.118961
v    20.023115 221.343657 3.118961
v    21.175199 220.651810 4.387400
v    18.847916 220.691847 4.387400
v    19.976885 218.656343 4.387400
v    19.199642 222.679171 1.814260
v    24.456544 224.639664 7.092680
v    26.849305 225.129259 9.309381
v    31.193542 226.208370 12.031974
v    21.848998 217.902445 1.814260
v    26.295600 221.323889 7.092680
v    27.977878 223.094468 9.309381
v    31.193542 226.208370 12.031974
v    21.028981 220.273715 4.387400
v    19.248465 220.754266 4.387400
v    19.722554 218.972018 4.387400
v    18.971019 219.726285 6.196282
v    20.751535 219.245734 6.196282
v    20.277446 221.027982 6.196282
v    20.452132 217.053633 3.623142
v    18.728887 216.801573 5.269191
v    12.931907 216.158100 10.756475
v    5.699400 216.195952 15.275099
v    18.928458 222.781600 3.623142
v    17.307730 222.144143 5.269191
v    11.957205 219.822311 10.756475
v    5.699400 216.195952 15.275099
v    19.253142 219.689971 6.196282
v    20.641922 219.508216 6.196282
v    20.104936 220.801813 6.196282
v    20.746858 220.310029 8.790902
v    19.358078 220.491784 8.790902
v    19.895064 219.198187 8.790902
v    18.877246 222.872585 6.217762
v    21.558894 223.639988 8.854047
v    26.570470 224.887819 13.712883
v    34.553291 226.041222 18.635383
v    21.241640 217.176766 6.217762
v    23.678413 218.534072 8.854047
v    28.100403 221.202213 13.712883
v    34.553291 226.041222 18.635383
v    20.444411 220.365672 8.790902
v    19.461114 220.202035 8.790902
v    20.094475 219.432293 8.790902
v    19.555589 219.634328 11.782194
v    20.538886 219.797965 11.782194
v    19.905525 220.567707 11.782194
v    22.096321 217.717910 9.209054
v    19.675517 216.153382 11.933309
v    15.323575 213.550217 16.704175
v    14.572430 213.078976 17.258119
v    7.928834 210.067563 21.694694
v    18.164334 222.496563 9.209054
v    16.162896 220.422367 11.933309
v    12.770367 216.653201 16.704175
v    12.163293 216.006867 17.258119
v    7.928834 210.067563 21.694694
v    19.747561 219.735879 11.782194
v    20.354955 219.913442 11.782194
v    19.897484 220.350679 11.782194
v    20.252439 220.264121 13.259000
v    19.645045 220.086558 13.259000
v    20.102516 219.649321 13.259000
v    18.231502 221.737645 8.039297
v    20.002442 222.746384 13.017080
v    22.306933 223.335860 18.161974
v    23.814358 223.990878 20.513951
v    21.815819 218.311866 8.039297
v    22.743466 220.126599 13.017080
v    23.228157 222.455383 18.161974
v    23.814358 223.990878 20.513951
mtllib usm_12_2.5D_2018-08-12_5.mtl
usemtl APPID_3599644864_2314290404992 
o vid_3 
f 3 2 1
f 4 5 6
f 1 6 5
f 1 5 3
f 3 5 4
f 4 2 3
f 2 4 6
f 6 1 2
usemtl APPID_3599640496_2314290402304 
o vid_4 
f 7 9 10
f 7 10 8
f 7 9 10
usemtl APPID_3599644864_2314290404992 
o vid_5 
f 13 12 11
f 14 15 16
f 11 16 15
f 11 15 13
f 13 15 14
f 14 12 13
f 12 14 16
f 16 11 12
usemtl APPID_3599640496_2314290402304 
o vid_6 
f 17 19 20
f 17 20 18
f 17 19 20
usemtl APPID_3599644864_2314290404992 
o vid_7 
f 23 22 21
f 24 25 26
f 21 26 25
f 21 25 23
f 23 25 24
f 24 22 23
f 22 24 26
f 26 21 22
usemtl APPID_3599640496_2314290402304 
o vid_8 
f 27 29 30
f 27 30 28
f 27 29 30
usemtl APPID_3599644864_2314290404992 
o vid_9 
f 33 32 31
f 34 35 36
f 31 36 35
f 31 35 33
f 33 35 34
f 34 32 33
f 32 34 36
f 36 31 32
usemtl APPID_3599640496_2314290402304 
o vid_10 
f 37 39 40
f 37 40 38
f 37 39 40
usemtl APPID_3599644864_2314290404992 
o vid_11 
f 43 42 41
f 44 45 46
f 41 46 45
f 41 45 43
f 43 45 44
f 44 42 43
f 42 44 46
f 46 41 42
usemtl APPID_3599640496_2314290402304 
o vid_12 
f 47 49 50
f 47 50 48
f 47 49 50
usemtl APPID_3599644864_2314290404992 
o vid_13 
f 53 52 51
f 54 55 56
f 51 56 55
f 51 55 53
f 53 55 54
f 54 52 53
f 52 54 56
f 56 51 52
usemtl APPID_3599640496_2314290402304 
o vid_14 
f 57 59 60
f 57 60 58
f 57 59 60
usemtl APPID_3599644864_2314290404992 
o vid_15 
f 63 62 61
f 64 65 66
f 61 66 65
f 61 65 63
f 63 65 64
f 64 62 63
f 62 64 66
f 66 61 62
usemtl APPID_3599640496_2314290402304 
o vid_16 
f 67 71 72
f 68 72 73
f 67 72 68
f 68 73 69
f 69 73 74
usemtl APPID_3599644864_2314290404992 
o vid_17 
f 77 76 75
f 78 79 80
f 75 80 79
f 75 79 77
f 77 79 78
f 78 76 77
f 76 78 80
f 80 75 76
usemtl APPID_3599640496_2314290402304 
o vid_18 
f 81 85 86
f 82 86 87
f 81 86 82
f 82 87 83
f 83 87 88
usemtl APPID_3599644864_2314290404992 
o vid_19 
f 91 90 89
f 92 93 94
f 89 94 93
f 89 93 91
f 91 93 92
f 92 90 91
f 90 92 94
f 94 89 90
usemtl APPID_3599640496_2314290402304 
o vid_20 
f 95 99 100
f 96 100 101
f 95 100 96
f 96 101 97
f 97 101 102
usemtl APPID_3599644864_2314290404992 
o vid_21 
f 105 104 103
f 106 107 108
f 103 108 107
f 103 107 105
f 105 107 106
f 106 104 105
f 104 106 108
f 108 103 104
usemtl APPID_3599640496_2314290402304 
o vid_22 
f 109 113 114
f 110 114 115
f 109 114 110
f 110 115 111
f 111 115 116
usemtl APPID_3599644864_2314290404992 
o vid_23 
f 119 118 117
f 120 121 122
f 117 122 121
f 117 121 119
f 119 121 120
f 120 118 119
f 118 120 122
f 122 117 118
usemtl APPID_3599640496_2314290402304 
o vid_24 
f 123 127 128
f 124 128 129
f 123 128 124
f 124 129 125
f 125 129 130
usemtl APPID_3599644864_2314290404992 
o vid_25 
f 133 132 131
f 134 135 136
f 131 136 135
f 131 135 133
f 133 135 134
f 134 132 133
f 132 134 136
f 136 131 132
usemtl APPID_3599640496_2314290402304 
o vid_26 
f 137 142 143
f 138 143 144
f 139 144 145
f 137 143 138
f 138 144 139
f 139 145 140
f 140 145 146
usemtl APPID_3599644864_2314290404992 
o vid_27 
f 149 148 147
f 150 151 152
f 147 152 151
f 147 151 149
f 149 151 150
f 150 148 149
f 148 150 152
f 152 147 148
usemtl APPID_3599640496_2314290402304 
o vid_28 
f 153 157 158
f 154 158 159
f 153 158 154
f 154 159 155
f 155 159 160
