# File generated by PlantGL - Fri Sep  4 14:44:19 2026
v    17.752484 458.905161 0.000000
v    22.071916 458.601013 0.000000
v    20.175600 462.493825 0.000000
v    22.247516 461.094839 0.848509
v    17.928084 461.398987 0.848509
v    19.824400 457.506175 0.848509
v    22.074151 461.428408 0.712486
v    22.462129 461.576327 1.098328
v    22.403306 460.752709 0.712486
v    22.758939 460.967026 1.098328
v    21.879284 461.505407 0.848509
v    17.756638 460.874804 0.848509
v    20.364078 457.619789 0.848509
v    18.120716 458.494593 1.417165
v    22.243362 459.125196 1.417165
v    19.635922 462.380211 1.417165
v    18.474463 458.075510 1.221241
v    18.175273 457.876772 1.555011
v    17.788945 458.931281 1.221241
v    17.529697 458.682680 1.555011
v    17.841416 459.161313 1.417165
v    21.805616 458.549955 1.417165
v    20.352968 462.288732 1.417165
v    22.158584 460.838687 2.253766
v    18.194384 461.450045 2.253766
v    19.647032 457.711268 2.253766
v    21.884467 461.489362 1.977387
v    22.277259 461.602962 2.357347
v    22.395677 460.173628 1.977387
v    22.762129 460.355021 2.357347
v    22.163962 460.511898 2.253766
v    18.474702 461.618097 2.253766
v    19.361335 457.870005 2.253766
v    17.836038 459.488102 4.112548
v    21.525298 458.381903 4.112548
v    20.638665 462.129995 4.112548
v    18.092464 458.523291 3.730721
v    16.881003 458.348575 4.868118
v    15.183928 458.108634 6.021961
v    14.392687 457.988116 6.278505
v    17.633012 460.465546 3.730721
v    16.471670 460.078961 4.868118
v    14.846959 459.533115 6.021961
v    14.085581 459.286352 6.278505
v    18.595695 458.396392 4.112548
v    22.090917 459.585640 4.112548
v    19.313387 462.017967 4.112548
v    21.404305 461.603608 5.999272
v    17.909083 460.414360 5.999272
v    20.686613 457.982033 5.999272
v    20.322641 462.501493 5.482651
v    21.520176 463.645419 7.021579
v    22.174401 464.283510 7.637500
v    23.193831 465.249320 8.582757
v    26.056094 468.027147 9.861234
v    22.437055 460.649867 5.482651
v    23.412978 461.987862 7.021579
v    23.959172 462.720557 7.637500
v    24.782036 463.858504 8.582757
v    27.157931 467.062251 9.861234
v    21.718982 461.097521 5.999272
v    18.190028 460.939922 5.999272
v    20.090990 457.962557 5.999272
v    18.281018 458.902479 11.505015
v    21.809972 459.060078 11.505015
v    19.909010 462.037443 11.505015
v    19.264432 457.453626 10.820438
v    17.482886 456.528005 12.686052
v    14.582420 455.038737 14.928406
v    11.013185 453.148244 16.223035
v    9.584378 452.462619 16.728975
v    17.380527 460.404275 10.820438
v    15.791155 459.177662 12.686052
v    13.219618 457.173213 14.928406
v    10.002685 454.730931 16.223035
v    8.779463 453.723311 16.728975
v    18.420020 458.861621 11.505015
v    21.775855 459.200887 11.505015
v    19.804125 461.937492 11.505015
v    21.579980 461.138379 19.658889
v    18.224145 460.799113 19.658889
v    20.195875 458.062508 19.658889
v    20.075274 463.117586 18.770471
v    22.524833 464.570317 21.416921
v    24.616666 465.840508 23.066296
v    25.942837 466.619652 24.101634
v    33.086282 470.932986 26.776381
v    36.144426 472.641811 26.736497
v    22.981096 459.084535 18.770471
v    25.134527 460.948270 21.416921
v    27.001566 462.530456 23.066296
v    28.160441 463.541793 24.101634
v    34.513214 468.952516 26.776381
v    37.102217 471.312473 26.736497
v    21.554633 461.012481 19.658889
v    18.345849 460.840111 19.658889
v    20.099518 458.147408 19.658889
v    18.445367 458.987519 30.873903
v    21.654151 459.159889 30.873903
v    19.900482 461.852592 30.873903
v    20.202866 456.437610 29.744739
v    17.006060 454.739811 33.108328
v    14.979483 453.636319 34.663522
v    12.537661 452.352330 36.520550
v    3.993846 447.727633 39.634586
v    -0.624725 445.432531 39.871570
v    -1.009132 445.301058 39.867056
v    16.823848 461.625988 29.744739
v    13.978410 459.388674 33.108328
v    12.149708 457.981352 34.663522
v    9.988018 456.267227 36.520550
v    2.303572 450.322997 39.634586
v    -1.663051 447.026848 39.871570
v    -1.938731 446.728429 39.867056
v    18.458123 459.144816 30.873903
v    21.511550 459.092287 30.873903
v    20.030327 461.762897 30.873903
v    21.541877 460.855184 48.397355
v    18.488450 460.907713 48.397355
v    19.969673 458.237103 48.397355
v    19.472744 464.377553 46.991824
v    23.591638 466.203827 51.178667
v    28.872663 468.611456 55.090326
v    41.355325 474.258297 59.657655
v    43.513927 475.246031 59.630531
v    49.499450 477.715622 59.556815
v    51.491778 478.235770 59.246294
v    23.434367 457.234843 46.991824
v    27.164543 459.761965 51.178667
v    32.003230 462.967119 55.090326
v    43.402997 470.566393 59.657655
v    45.383869 471.874570 59.630531
v    50.648145 475.644553 59.556815
v    52.144315 477.059259 59.246294
v    21.614895 460.429572 48.397355
v    18.820532 461.183754 48.397355
v    19.564573 458.386674 48.397355
v    18.385105 459.570428 69.758548
v    21.179468 458.816246 69.758548
v    20.435427 461.613326 69.758548
v    19.793134 454.756161 68.045109
v    14.380618 453.821517 73.149157
v    6.967466 452.462291 78.228644
v    -9.013782 449.574907 83.485625
v    -12.406968 448.947883 83.446197
v    -20.049283 447.832665 83.358270
v    -24.083562 447.776528 82.642559
v    17.215046 464.447996 68.045109
v    12.053501 462.569875 73.149157
v    4.944782 460.066194 78.228644
v    -10.358892 454.631596 83.485625
v    -13.615153 453.489826 83.446197
v    -20.801511 450.660526 83.358270
v    -24.330486 448.704791 82.642559
v    18.541706 459.394647 69.758548
v    21.253398 459.039757 69.758548
v    20.204896 461.565597 69.758548
v    21.458294 460.605353 89.607729
v    18.746602 460.960243 89.607729
v    19.795104 458.434403 89.607729
v    19.234428 465.579227 87.562032
v    25.490677 467.544783 93.655820
v    27.501402 468.199571 95.081021
v    34.251771 470.289914 99.837714
v    48.741583 474.968684 104.718306
v    52.597959 476.046940 105.996659
v    57.617926 477.481667 105.937220
v    63.155946 478.294560 105.875029
v    23.410631 455.518764 87.562032
v    29.219674 458.561636 93.655820
v    31.103007 459.523312 95.081021
v    37.349284 462.828012 99.837714
v    50.892885 469.786203 104.718306
v    54.379186 471.755968 105.996659
v    58.939459 474.298098 105.937220
v    63.425114 477.646137 105.875029
v    21.036811 460.853112 89.607729
v    18.742777 460.471349 89.607729
v    20.220411 458.675539 89.607729
v    18.963189 459.146888 113.503741
v    21.257223 459.528651 113.503741
v    19.779589 461.324461 113.503741
v    23.014971 454.493159 111.111757
v    16.740375 450.205550 118.173699
v    7.792289 444.145900 125.465414
v    -4.420947 435.657543 130.232804
v    -10.849598 431.557989 132.666918
v    -13.383351 429.921674 132.632580
v    -20.303005 426.657419 132.547573
v    15.176858 464.019035 111.111757
v    9.761153 458.687593 118.173699
v    2.091719 451.073961 125.465414
v    -8.589758 440.724015 130.232804
v    -13.850596 435.205185 132.666918
v    -15.944228 433.033979 132.632580
v    -20.479959 426.872477 132.547573
v    19.280337 459.247032 113.503741
v    21.011921 459.753237 113.503741
v    19.707742 460.999731 113.503741
v    20.719663 460.752968 130.408186
v    18.988079 460.246763 130.408186
v    20.292258 459.000269 130.408186
v    15.618006 465.356702 127.669013
v    20.522349 469.649091 133.725355
v    22.252497 471.113901 135.828551
v    31.539280 479.174710 144.106064
v    42.142045 488.603856 148.654106
v    51.098292 495.953507 152.352847
v    59.423150 501.247572 152.243065
v    25.549328 455.864653 127.669013
v    29.615611 460.958033 133.725355
v    31.000707 462.752633 135.828551
v    38.633435 472.394336 144.106064
v    47.573609 483.412536 148.654106
v    54.510850 492.691891 152.352847
v    59.423150 501.247572 152.243065
v    20.538755 460.549086 130.408186
v    19.255100 460.192033 130.408186
v    20.206144 459.258881 130.408186
v    19.461245 459.450914 146.719517
v    20.744900 459.807967 146.719517
v    19.793856 460.741119 146.719517
v    25.249426 454.080890 143.647488
v    18.070415 447.962071 152.412939
v    7.216754 438.794739 162.081916
v    -6.900427 426.567979 168.068156
v    -14.885098 420.189013 171.330821
v    -17.548544 418.036014 171.291830
v    -26.562926 412.544251 171.174552
v    13.982267 465.136071 143.647488
v    8.000887 457.842154 152.412939
v    -0.958674 446.816355 162.081916
v    -12.915133 432.469524 168.068156
v    -19.141313 424.365152 171.330821
v    -21.243343 421.661300 171.291830
v    -26.562926 412.544251 171.174552
v    19.647768 459.609728 146.719517
v    20.514101 459.890094 146.719517
v    19.838130 460.500177 146.719517
v    20.352232 460.390272 155.612829
v    19.485899 460.109906 155.612829
v    20.161870 459.499823 155.612829
v    14.657565 465.203263 152.238594
v    22.722639 472.437059 162.289876
v    33.874132 482.689528 172.486486
v    36.341781 485.013645 173.573032
v    47.516576 494.731228 178.300765
v    56.796590 500.770539 181.742100
v    25.721999 455.217292 152.238594
v    32.093698 463.979408 162.289876
v    41.152843 476.120282 172.486486
v    43.212606 478.812527 173.573032
v    51.737285 490.921916 178.300765
v    56.796590 500.770539 181.742100
v    20.305234 460.059421 155.612829
v    19.795923 460.234630 155.612829
v    19.898843 459.705949 155.612829
v    19.694766 459.940579 157.338000
v    20.204077 459.765370 157.338000
v    20.101157 460.294051 157.338000
v    18.883842 454.555451 150.726351
v    18.587989 454.653622 152.682803
v    16.408591 455.863155 166.425600
v    15.569052 456.022022 169.045063
v    11.542902 458.353632 180.617213
v    16.922942 464.628243 150.726351
v    16.685521 464.426258 152.682803
v    15.119011 462.487498 166.425600
v    14.400377 462.025297 169.045063
v    11.542902 458.353632 180.617213
v    22.462129 461.576327 1.098328
v    22.774214 461.698815 1.329598
v    23.051065 461.803065 1.528727
v    24.180316 462.243880 1.917291
v    24.768496 462.450363 1.931902
v    25.099857 462.519461 1.928141
v    25.224206 462.544882 1.905659
v    22.758939 460.967026 1.098328
v    23.047765 461.137262 1.329598
v    23.300511 461.290995 1.528727
v    24.343713 461.908454 1.917291
v    24.868870 462.244313 1.931902
v    25.127537 462.462638 1.928141
v    25.224206 462.544882 1.905659
v    18.175273 457.876772 1.555011
v    17.951303 457.728000 1.804865
v    17.503511 457.423790 2.169717
v    17.221576 457.238180 2.396928
v    15.696795 456.207841 2.986792
v    14.925749 455.723761 2.976427
v    14.581997 455.567081 2.972230
v    14.316817 455.447468 2.920698
v    17.529697 458.682680 1.555011
v    17.335629 458.496581 1.804865
v    16.941018 458.125982 2.169717
v    16.698348 457.891355 2.396928
v    15.360052 456.628217 2.986792
v    14.719354 455.981415 2.976427
v    14.491425 455.680148 2.972230
v    14.316817 455.447468 2.920698
v    22.277259 461.602962 2.357347
v    22.653474 461.711768 2.721273
v    23.929396 462.074007 3.635862
v    25.479703 462.535714 4.154356
v    26.431519 462.778510 4.467951
v    27.608283 462.956091 4.454643
v    22.762129 460.355021 2.357347
v    23.113116 460.528759 2.721273
v    24.298903 461.122982 3.635862
v    25.754255 461.829082 4.154356
v    26.620314 462.292595 4.467951
v    27.608283 462.956091 4.454643
v    14.392687 457.988116 6.278505
v    12.643856 457.721742 6.845528
v    11.629066 457.608161 7.171520
v    10.946619 457.527807 7.163697
v    9.634818 457.548056 7.149120
v    14.085581 459.286352 6.278505
v    12.402757 458.740948 6.845528
v    11.444632 458.387825 7.171520
v    10.798513 458.153899 7.163697
v    9.634818 457.548056 7.149120
v    26.056094 468.027147 9.861234
v    26.266555 468.231400 9.955240
v    26.693193 468.613773 10.138140
v    28.010849 469.808431 10.117891
v    29.355546 470.735988 10.099741
v    29.470583 470.814675 10.075053
v    27.157931 467.062251 9.861234
v    27.332630 467.297821 9.955240
v    27.655370 467.771179 10.138140
v    28.665732 469.234939 10.117891
v    29.407762 470.690262 10.099741
v    29.470583 470.814675 10.075053
v    9.584378 452.462619 16.728975
v    8.848773 452.109633 16.989453
v    8.278951 451.832163 16.982237
v    6.046525 451.091104 16.956102
v    8.779463 453.723311 16.728975
v    8.149700 453.204548 16.989453
v    7.658207 452.804399 16.982237
v    6.046525 451.091104 16.956102
v    36.144426 472.641811 26.736497
v    36.682285 472.942154 26.729483
v    38.283888 473.575609 26.710347
v    39.503924 474.052623 26.478299
v    37.102217 471.312473 26.736497
v    37.557374 471.727601 26.729483
v    38.665240 473.046324 26.710347
v    39.503924 474.052623 26.478299
v    -1.009132 445.301058 39.867056
v    -3.638888 444.401640 39.836176
v    -4.286595 444.182949 39.715078
v    -1.938731 446.728429 39.867056
v    -3.824680 444.686918 39.836176
v    -4.286595 444.182949 39.715078
v    51.491778 478.235770 59.246294
v    53.071616 478.647177 58.957110
v    54.080462 478.902337 58.647608
v    52.144315 477.059259 59.246294
v    53.329830 478.181623 58.957110
v    54.080462 478.902337 58.647608
v    -24.083562 447.776528 82.642559
v    -25.962768 447.773621 82.091072
v    -24.330486 448.704791 82.642559
v    -25.962768 447.773621 82.091072
v    63.155946 478.294560 105.875029
v    64.572425 478.502476 105.859123
v    63.425114 477.646137 105.875029
v    64.572425 478.502476 105.859123
v    -20.303005 426.657419 132.547573
v    -20.816638 426.415120 132.541263
v    -20.479959 426.872477 132.547573
v    -20.816638 426.415120 132.541263
mtllib usm_10_2.5D_2018-08-14_11.mtl
usemtl APPID_3007101392_1759648515680 
o vid_3 
f 3 2 1
f 4 5 6
f 1 6 5
f 1 5 3
f 3 5 4
f 4 2 3
f 2 4 6
f 6 1 2
usemtl APPID_3007103632_1759648513504 
o vid_4 
f 7 9 10
f 7 10 8
f 7 9 10
f 7 10 8
usemtl APPID_3007101392_1759648515680 
o vid_5 
f 13 12 11
f 14 15 16
f 11 16 15
f 11 15 13
f 13 15 14
f 14 12 13
f 12 14 16
f 16 11 12
usemtl APPID_3007103632_1759648513504 
o vid_6 
f 17 19 20
f 17 20 18
f 17 19 20
f 17 20 18
usemtl APPID_3007101392_1759648515680 
o vid_7 
f 23 22 21
f 24 25 26
f 21 26 25
f 21 25 23
f 23 25 24
f 24 22 23
f 22 24 26
f 26 21 22
usemtl APPID_3007103632_1759648513504 
o vid_8 
f 27 29 30
f 27 30 28
f 27 29 30
f 27 30 28
usemtl APPID_3007101392_1759648515680 
o vid_9 
f 33 32 31
f 34 35 36
f 31 36 35
f 31 35 33
f 33 35 34
f 34 32 33
f 32 34 36
f 36 31 32
usemtl APPID_3007103632_1759648513504 
o vid_10 
f 37 41 42
f 38 42 43
f 37 42 38
f 38 43 39
f 39 43 44
f 39 44 40
usemtl APPID_3007101392_1759648515680 
o vid_11 
f 47 46 45
f 48 49 50
f 45 50 49
f 45 49 47
f 47 49 48
f 48 46 47
f 46 48 50
f 50 45 46
usemtl APPID_3007103632_1759648513504 
o vid_12 
f 51 56 57
f 52 57 58
f 53 58 59
f 51 57 52
f 52 58 53
f 53 59 54
f 54 59 60
f 54 60 55
usemtl APPID_3007101392_1759648515680 
o vid_13 
f 63 62 61
f 64 65 66
f 61 66 65
f 61 65 63
f 63 65 64
f 64 62 63
f 62 64 66
f 66 61 62
usemtl APPID_3007103632_1759648513504 
o vid_14 
f 67 72 73
f 68 73 74
f 69 74 75
f 67 73 68
f 68 74 69
f 69 75 70
f 70 75 76
f 70 76 71
usemtl APPID_3007101392_1759648515680 
o vid_15 
f 79 78 77
f 80 81 82
f 77 82 81
f 77 81 79
f 79 81 80
f 80 78 79
f 78 80 82
f 82 77 78
usemtl APPID_3007103632_1759648513504 
o vid_16 
f 83 89 90
f 84 90 91
f 85 91 92
f 86 92 93
f 83 90 84
f 84 91 85
f 85 92 86
f 86 93 87
f 87 93 94
f 87 94 88
usemtl APPID_3007101392_1759648515680 
o vid_17 
f 97 96 95
f 98 99 100
f 95 100 99
f 95 99 97
f 97 99 98
f 98 96 97
f 96 98 100
f 100 95 96
usemtl APPID_3007103632_1759648513504 
o vid_18 
f 101 108 109
f 102 109 110
f 103 110 111
f 104 111 112
f 105 112 113
f 101 109 102
f 102 110 103
f 103 111 104
f 104 112 105
f 105 113 106
f 106 113 114
f 106 114 107
usemtl APPID_3007101392_1759648515680 
o vid_19 
f 117 116 115
f 118 119 120
f 115 120 119
f 115 119 117
f 117 119 118
f 118 116 117
f 116 118 120
f 120 115 116
usemtl APPID_3007103632_1759648513504 
o vid_20 
f 121 128 129
f 122 129 130
f 123 130 131
f 124 131 132
f 125 132 133
f 121 129 122
f 122 130 123
f 123 131 124
f 124 132 125
f 125 133 126
f 126 133 134
f 126 134 127
usemtl APPID_3007101392_1759648515680 
o vid_21 
f 137 136 135
f 138 139 140
f 135 140 139
f 135 139 137
f 137 139 138
f 138 136 137
f 136 138 140
f 140 135 136
usemtl APPID_3007103632_1759648513504 
o vid_22 
f 141 148 149
f 142 149 150
f 143 150 151
f 144 151 152
f 145 152 153
f 141 149 142
f 142 150 143
f 143 151 144
f 144 152 145
f 145 153 146
f 146 153 154
f 146 154 147
usemtl APPID_3007101392_1759648515680 
o vid_23 
f 157 156 155
f 158 159 160
f 155 160 159
f 155 159 157
f 157 159 158
f 158 156 157
f 156 158 160
f 160 155 156
usemtl APPID_3007103632_1759648513504 
o vid_24 
f 161 169 170
f 162 170 171
f 163 171 172
f 164 172 173
f 165 173 174
f 166 174 175
f 161 170 162
f 162 171 163
f 163 172 164
f 164 173 165
f 165 174 166
f 166 175 167
f 167 175 176
f 167 176 168
usemtl APPID_3007101392_1759648515680 
o vid_25 
f 179 178 177
f 180 181 182
f 177 182 181
f 177 181 179
f 179 181 180
f 180 178 179
f 178 180 182
f 182 177 178
usemtl APPID_3007103632_1759648513504 
o vid_26 
f 183 190 191
f 184 191 192
f 185 192 193
f 186 193 194
f 187 194 195
f 183 191 184
f 184 192 185
f 185 193 186
f 186 194 187
f 187 195 188
f 188 195 196
f 188 196 189
usemtl APPID_3007101392_1759648515680 
o vid_27 
f 199 198 197
f 200 201 202
f 197 202 201
f 197 201 199
f 199 201 200
f 200 198 199
f 198 200 202
f 202 197 198
usemtl APPID_3007103632_1759648513504 
o vid_28 
f 203 210 211
f 204 211 212
f 205 212 213
f 206 213 214
f 207 214 215
f 203 211 204
f 204 212 205
f 205 213 206
f 206 214 207
f 207 215 208
f 208 215 216
usemtl APPID_3007101392_1759648515680 
o vid_29 
f 219 218 217
f 220 221 222
f 217 222 221
f 217 221 219
f 219 221 220
f 220 218 219
f 218 220 222
f 222 217 218
usemtl APPID_3007103632_1759648513504 
o vid_30 
f 223 230 231
f 224 231 232
f 225 232 233
f 226 233 234
f 227 234 235
f 223 231 224
f 224 232 225
f 225 233 226
f 226 234 227
f 227 235 228
f 228 235 236
usemtl APPID_3007101392_1759648515680 
o vid_31 
f 239 238 237
f 240 241 242
f 237 242 241
f 237 241 239
f 239 241 240
f 240 238 239
f 238 240 242
f 242 237 238
usemtl APPID_3007103632_1759648513504 
o vid_32 
f 243 249 250
f 244 250 251
f 245 251 252
f 246 252 253
f 243 250 244
f 244 251 245
f 245 252 246
f 246 253 247
f 247 253 254
usemtl APPID_3007101392_1759648515680 
o vid_33 
f 257 256 255
f 258 259 260
f 255 260 259
f 255 259 257
f 257 259 258
f 258 256 257
f 256 258 260
f 260 255 256
usemtl APPID_3007103632_1759648513504 
o vid_34 
f 261 266 267
f 262 267 268
f 263 268 269
f 261 267 262
f 262 268 263
f 263 269 264
f 264 269 270
usemtl APPID_3007103856_1759648514912 
o vid_10000004 
f 271 278 279
f 272 279 280
f 273 280 281
f 274 281 282
f 275 282 283
f 271 279 272
f 272 280 273
f 273 281 274
f 274 282 275
f 275 283 276
f 276 283 284
usemtl APPID_3007103856_1759648514912 
o vid_10000006 
f 285 293 294
f 286 294 295
f 287 295 296
f 288 296 297
f 289 297 298
f 290 298 299
f 285 294 286
f 286 295 287
f 287 296 288
f 288 297 289
f 289 298 290
f 290 299 291
f 291 299 300
usemtl APPID_3007103856_1759648514912 
o vid_10000008 
f 301 307 308
f 302 308 309
f 303 309 310
f 304 310 311
f 301 308 302
f 302 309 303
f 303 310 304
f 304 311 305
f 305 311 312
usemtl APPID_3007103856_1759648514912 
o vid_10000010 
f 313 318 319
f 314 319 320
f 315 320 321
f 313 319 314
f 314 320 315
f 315 321 316
f 316 321 322
usemtl APPID_3007103856_1759648514912 
o vid_10000012 
f 323 329 330
f 324 330 331
f 325 331 332
f 326 332 333
f 323 330 324
f 324 331 325
f 325 332 326
f 326 333 327
f 327 333 334
usemtl APPID_3007103856_1759648514912 
o vid_10000014 
f 335 339 340
f 336 340 341
f 335 340 336
f 336 341 337
f 337 341 342
usemtl APPID_3007103856_1759648514912 
o vid_10000016 
f 343 347 348
f 344 348 349
f 343 348 344
f 344 349 345
f 345 349 350
usemtl APPID_3007103856_1759648514912 
o vid_10000018 
f 351 354 355
f 351 355 352
f 352 355 356
usemtl APPID_3007103856_1759648514912 
o vid_10000020 
f 357 360 361
f 357 361 358
f 358 361 362
usemtl APPID_3007103856_1759648514912 
o vid_10000022 
f 363 365 366
f 363 366 364
f 363 365 366
usemtl APPID_3007103856_1759648514912 
o vid_10000024 
f 367 369 370
f 367 370 368
f 367 369 370
usemtl APPID_3007103856_1759648514912 
o vid_10000026 
f 371 373 374
f 371 374 372
f 371 373 374
