# File generated by PlantGL - Fri Sep  4 14:43:52 2026
v    297.752484 18.905161 0.000000
v    302.071916 18.601013 0.000000
v    300.175600 22.493825 0.000000
v    302.247516 21.094839 0.362700
v    297.928084 21.398987 0.362700
v    299.824400 17.506175 0.362700
v    302.065086 21.442668 0.200167
v    302.268999 21.520411 0.402958
v    302.554111 21.623785 0.684324
v    303.236971 21.880921 1.175480
v    303.817044 22.107358 1.375077
v    304.491310 22.340179 1.602805
v    304.687086 22.378571 1.664813
v    304.932965 22.429843 1.662023
v    302.408947 20.736780 0.200167
v    302.595860 20.849421 0.402958
v    302.853008 21.010200 0.684324
v    303.476413 21.389388 1.175480
v    304.012284 21.706564 1.375077
v    304.611245 22.093974 1.602805
v    304.762156 22.224464 1.664813
v    304.954095 22.386468 1.662023
v    301.879284 21.505407 0.362700
v    297.756638 20.874804 0.362700
v    300.364078 17.619789 0.362700
v    298.120716 18.494593 0.589630
v    302.243362 19.125196 0.589630
v    299.635922 22.380211 0.589630
v    298.485541 18.066334 0.353213
v    298.302893 17.945010 0.556971
v    297.848698 17.653941 1.057460
v    296.962196 17.070320 1.771889
v    296.317524 16.634696 2.021282
v    295.435426 16.088328 2.352532
v    295.049453 15.917938 2.483666
v    294.770664 15.790868 2.480262
v    297.782408 18.944095 0.353213
v    297.624145 18.792330 0.556971
v    297.240960 18.412613 1.057460
v    296.477923 17.674866 1.771889
v    295.912095 17.140815 2.021282
v    295.186374 16.399234 2.352532
v    294.935850 16.059756 2.483666
v    294.750994 15.815422 2.480262
v    297.841416 19.161313 0.589630
v    301.805616 18.549955 0.589630
v    300.352968 22.288732 0.589630
v    302.158584 20.838687 1.053978
v    298.194384 21.450045 1.053978
v    299.647032 17.711268 1.053978
v    301.854107 21.555739 0.718303
v    302.893694 21.839506 1.718222
v    304.343048 22.252227 2.732598
v    305.124558 22.484973 2.993971
v    306.552074 22.849115 3.464294
v    307.443936 22.948454 3.743209
v    307.614662 22.969536 3.741298
v    302.418095 20.104165 0.718303
v    303.376563 20.596714 1.718222
v    304.724371 21.270791 2.732598
v    305.458014 21.626735 2.993971
v    306.756914 22.321904 3.464294
v    307.481892 22.850765 3.743209
v    307.622066 22.950479 3.741298
v    302.163962 20.511898 1.053978
v    298.474702 21.618097 1.053978
v    299.361335 17.870005 1.053978
v    297.836038 19.488102 1.829186
v    301.525298 18.381903 1.829186
v    300.638665 22.129995 1.829186
v    298.117349 18.444124 1.363965
v    296.636162 18.252942 2.749780
v    294.567786 17.963319 4.155633
v    293.428074 17.789723 4.525161
v    291.398956 17.562612 5.176995
v    290.179152 17.596008 5.556266
v    289.884759 17.600553 5.552994
v    297.619790 20.547472 1.363965
v    296.209931 20.054760 2.749780
v    294.231013 19.386972 4.155633
v    293.134317 19.031532 4.525161
v    291.218503 18.325448 5.176995
v    290.142944 17.749070 5.556266
v    289.881789 17.613107 5.552994
v    298.595695 18.396392 1.829186
v    302.090917 19.585640 1.829186
v    299.313387 22.017967 1.829186
v    301.404305 21.603608 2.769464
v    297.909083 20.414360 2.769464
v    300.686613 17.982033 2.769464
v    300.272066 22.535014 2.140101
v    301.753147 23.909125 4.014866
v    303.804253 25.852347 5.916736
v    304.959336 26.973355 6.432673
v    307.016282 28.816887 7.314489
v    308.343449 29.709162 7.811546
v    308.731464 29.976810 7.806309
v    302.476956 20.604157 2.140101
v    303.643640 22.253590 4.014866
v    305.299251 24.543153 5.916736
v    306.258058 25.836044 6.432673
v    307.814080 28.118243 7.314489
v    308.523448 29.551534 7.811546
v    308.737562 29.971470 7.806309
v    301.718982 21.097521 2.769464
v    298.190028 20.939922 2.769464
v    300.090990 17.962557 2.769464
v    298.281018 18.902479 5.235228
v    301.809972 19.060078 5.235228
v    299.909010 22.037443 5.235228
v    299.308853 17.403614 4.404149
v    296.921099 16.212391 6.879796
v    293.603224 14.505839 9.391236
v    289.784587 12.647030 10.747984
v    287.196163 11.821965 11.592375
v    297.353851 20.465618 4.404149
v    295.268440 18.800852 6.879796
v    292.324144 16.509187 9.391236
v    289.031001 13.827328 10.747984
v    287.193305 11.826441 11.592375
v    298.517517 18.931867 5.235228
v    301.666272 19.250198 5.235228
v    299.816212 21.817935 5.235228
v    301.482483 21.068133 9.070287
v    298.333728 20.749802 9.070287
v    300.183788 18.182065 9.070287
v    299.905926 23.124591 7.999051
v    301.167778 23.872943 9.362328
v    302.878533 24.849921 11.190084
v    307.025043 27.286055 14.427255
v    310.570420 29.426814 15.754764
v    314.688392 31.695386 17.255702
v    315.880808 32.150619 17.652408
v    318.055164 33.010606 17.626428
v    302.934134 18.921679 7.999051
v    304.043440 19.881752 9.362328
v    305.511716 21.195272 11.190084
v    309.135146 24.357399 14.427255
v    312.288104 27.042806 15.754764
v    315.743555 30.230904 17.255702
v    316.552836 31.217897 17.652408
v    318.056889 33.008212 17.626428
v    301.215789 20.791803 9.070287
v    298.706384 20.657003 9.070287
v    300.077827 18.551194 9.070287
v    298.784211 19.208197 15.537192
v    301.293616 19.342997 15.537192
v    299.922173 21.448806 15.537192
v    300.735452 16.389593 14.189382
v    297.437823 14.638249 17.659053
v    291.558785 11.555028 22.277232
v    284.815964 7.905195 24.734844
v    280.316632 5.695911 26.335060
v    275.086485 3.774658 26.272817
v    296.995282 22.132509 14.189382
v    294.060103 19.824634 17.659053
v    288.862996 15.694330 22.277232
v    282.798392 11.003114 24.734844
v    278.958474 7.781322 26.335060
v    275.086485 3.774658 26.272817
v    299.035105 19.464832 15.537192
v    300.945917 19.431960 15.537192
v    300.018978 21.103208 15.537192
v    300.964895 20.535168 23.570456
v    299.054083 20.568040 23.570456
v    299.981022 18.896792 23.570456
v    298.881979 24.045386 21.915171
v    301.753030 25.318380 24.833585
v    303.750111 26.164916 26.845987
v    310.555815 29.149074 31.848095
v    317.420857 32.258269 34.263731
v    324.152300 34.990498 36.582996
v    329.616579 36.426496 36.777747
v    302.839779 16.909568 21.915171
v    305.439877 18.671083 24.833585
v    307.215444 19.917003 26.845987
v    313.350514 24.110298 31.848095
v    319.623075 28.287723 34.263731
v    325.505110 32.551415 36.582996
v    329.616579 36.426496 36.777747
v    300.758262 20.201702 23.570456
v    299.446190 20.555823 23.570456
v    299.795548 19.242475 23.570456
v    299.241738 19.798298 33.047474
v    300.553810 19.444177 33.047474
v    300.204452 20.757525 33.047474
v    300.551154 15.430475 31.063128
v    294.255851 14.449665 36.974163
v    285.471032 12.970434 42.970663
v    281.379995 12.230836 44.303233
v    272.755179 11.022778 47.083555
v    266.766496 11.020814 48.944902
v    266.219209 11.014102 48.938820
v    298.207917 24.239430 31.063128
v    292.257322 21.962756 36.974163
v    283.898599 18.881699 42.970663
v    279.980787 17.490894 44.303233
v    271.895653 14.254002 47.083555
v    266.697498 11.280198 48.944902
v    266.219209 11.014102 48.938820
v    299.543127 19.810347 33.047474
v    300.392680 19.699163 33.047474
v    300.064192 20.490490 33.047474
v    300.456873 20.189653 38.666000
v    299.607320 20.300837 38.666000
v    299.935808 19.509510 38.666000
v    299.657400 24.249763 34.234691
v    302.827829 24.716038 43.886489
v    308.224333 25.532128 54.374677
v    313.682901 25.679914 60.155093
v    302.767748 16.756941 34.234691
v    305.336357 18.673001 43.886489
v    309.724362 21.918562 54.374677
v    313.682901 25.679914 60.155093
v    304.932965 22.429843 1.662023
v    305.029280 22.449927 1.660930
v    304.954095 22.386468 1.662023
v    305.029280 22.449927 1.660930
v    294.770664 15.790868 2.480262
v    294.712286 15.764260 2.479549
v    294.750994 15.815422 2.480262
v    294.712286 15.764260 2.479549
v    307.614662 22.969536 3.741298
v    307.656039 22.974646 3.740834
v    307.622066 22.950479 3.741298
v    307.656039 22.974646 3.740834
v    289.884759 17.600553 5.552994
v    289.858454 17.600959 5.552702
v    289.881789 17.613107 5.552994
v    289.858454 17.600959 5.552702
v    308.731464 29.976810 7.806309
v    308.745071 29.986196 7.806125
v    308.737562 29.971470 7.806309
v    308.745071 29.986196 7.806125
v    287.196163 11.821965 11.592375
v    287.186310 11.818824 11.595590
v    287.193305 11.826441 11.592375
v    287.186310 11.818824 11.595590
v    318.055164 33.010606 17.626428
v    318.060760 33.012820 17.626362
v    318.056889 33.008212 17.626428
v    318.060760 33.012820 17.626362
mtllib usm_31_2.5D_2018-08-18_7.mtl
usemtl APPID_2491052208_1733526531952 
o vid_3 
f 3 2 1
f 4 5 6
f 1 6 5
f 1 5 3
f 3 5 4
f 4 2 3
f 2 4 6
f 6 1 2
usemtl APPID_2491055232_1733526531824 
o vid_4 
f 7 15 16
f 8 16 17
f 9 17 18
f 10 18 19
f 11 19 20
f 12 20 21
f 7 16 8
f 8 17 9
f 9 18 10
f 10 19 11
f 11 20 12
f 12 21 13
f 13 21 22
f 13 22 14
usemtl APPID_2491052208_1733526531952 
o vid_5 
f 25 24 23
f 26 27 28
f 23 28 27
f 23 27 25
f 25 27 26
f 26 24 25
f 24 26 28
f 28 23 24
usemtl APPID_2491055232_1733526531824 
o vid_6 
f 29 37 38
f 30 38 39
f 31 39 40
f 32 40 41
f 33 41 42
f 34 42 43
f 29 38 30
f 30 39 31
f 31 40 32
f 32 41 33
f 33 42 34
f 34 43 35
f 35 43 44
f 35 44 36
usemtl APPID_2491052208_1733526531952 
o vid_7 
f 47 46 45
f 48 49 50
f 45 50 49
f 45 49 47
f 47 49 48
f 48 46 47
f 46 48 50
f 50 45 46
usemtl APPID_2491055232_1733526531824 
o vid_8 
f 51 58 59
f 52 59 60
f 53 60 61
f 54 61 62
f 55 62 63
f 51 59 52
f 52 60 53
f 53 61 54
f 54 62 55
f 55 63 56
f 56 63 64
f 56 64 57
usemtl APPID_2491052208_1733526531952 
o vid_9 
f 67 66 65
f 68 69 70
f 65 70 69
f 65 69 67
f 67 69 68
f 68 66 67
f 66 68 70
f 70 65 66
usemtl APPID_2491055232_1733526531824 
o vid_10 
f 71 78 79
f 72 79 80
f 73 80 81
f 74 81 82
f 75 82 83
f 71 79 72
f 72 80 73
f 73 81 74
f 74 82 75
f 75 83 76
f 76 83 84
f 76 84 77
usemtl APPID_2491052208_1733526531952 
o vid_11 
f 87 86 85
f 88 89 90
f 85 90 89
f 85 89 87
f 87 89 88
f 88 86 87
f 86 88 90
f 90 85 86
usemtl APPID_2491055232_1733526531824 
o vid_12 
f 91 98 99
f 92 99 100
f 93 100 101
f 94 101 102
f 95 102 103
f 91 99 92
f 92 100 93
f 93 101 94
f 94 102 95
f 95 103 96
f 96 103 104
f 96 104 97
usemtl APPID_2491052208_1733526531952 
o vid_13 
f 107 106 105
f 108 109 110
f 105 110 109
f 105 109 107
f 107 109 108
f 108 106 107
f 106 108 110
f 110 105 106
usemtl APPID_2491055232_1733526531824 
o vid_14 
f 111 116 117
f 112 117 118
f 113 118 119
f 111 117 112
f 112 118 113
f 113 119 114
f 114 119 120
f 114 120 115
usemtl APPID_2491052208_1733526531952 
o vid_15 
f 123 122 121
f 124 125 126
f 121 126 125
f 121 125 123
f 123 125 124
f 124 122 123
f 122 124 126
f 126 121 122
usemtl APPID_2491055232_1733526531824 
o vid_16 
f 127 135 136
f 128 136 137
f 129 137 138
f 130 138 139
f 131 139 140
f 132 140 141
f 127 136 128
f 128 137 129
f 129 138 130
f 130 139 131
f 131 140 132
f 132 141 133
f 133 141 142
f 133 142 134
usemtl APPID_2491052208_1733526531952 
o vid_17 
f 145 144 143
f 146 147 148
f 143 148 147
f 143 147 145
f 145 147 146
f 146 144 145
f 144 146 148
f 148 143 144
usemtl APPID_2491055232_1733526531824 
o vid_18 
f 149 155 156
f 150 156 157
f 151 157 158
f 152 158 159
f 149 156 150
f 150 157 151
f 151 158 152
f 152 159 153
f 153 159 160
usemtl APPID_2491052208_1733526531952 
o vid_19 
f 163 162 161
f 164 165 166
f 161 166 165
f 161 165 163
f 163 165 164
f 164 162 163
f 162 164 166
f 166 161 162
usemtl APPID_2491055232_1733526531824 
o vid_20 
f 167 174 175
f 168 175 176
f 169 176 177
f 170 177 178
f 171 178 179
f 167 175 168
f 168 176 169
f 169 177 170
f 170 178 171
f 171 179 172
f 172 179 180
usemtl APPID_2491052208_1733526531952 
o vid_21 
f 183 182 181
f 184 185 186
f 181 186 185
f 181 185 183
f 183 185 184
f 184 182 183
f 182 184 186
f 186 181 182
usemtl APPID_2491055232_1733526531824 
o vid_22 
f 187 194 195
f 188 195 196
f 189 196 197
f 190 197 198
f 191 198 199
f 187 195 188
f 188 196 189
f 189 197 190
f 190 198 191
f 191 199 192
f 192 199 200
usemtl APPID_2491052208_1733526531952 
o vid_23 
f 203 202 201
f 204 205 206
f 201 206 205
f 201 205 203
f 203 205 204
f 204 202 203
f 202 204 206
f 206 201 202
usemtl APPID_2491055232_1733526531824 
o vid_24 
f 207 211 212
f 208 212 213
f 207 212 208
f 208 213 209
f 209 213 214
usemtl APPID_2491056576_1733526527216 
o vid_10000004 
f 215 217 218
f 215 218 216
f 215 217 218
usemtl APPID_2491056576_1733526527216 
o vid_10000006 
f 219 221 222
f 219 222 220
f 219 221 222
usemtl APPID_2491056576_1733526527216 
o vid_10000008 
f 223 225 226
f 223 226 224
f 223 225 226
usemtl APPID_2491056576_1733526527216 
o vid_10000010 
f 227 229 230
f 227 230 228
f 227 229 230
usemtl APPID_2491056576_1733526527216 
o vid_10000012 
f 231 233 234
f 231 234 232
f 231 233 234
usemtl APPID_2491056576_1733526527216 
o vid_10000014 
f 235 237 238
f 235 238 236
f 235 237 238
usemtl APPID_2491056576_1733526527216 
o vid_10000016 
f 239 241 242
f 239 242 240
f 239 241 242
