# File generated by PlantGL - Fri Sep  4 14:44:20 2026
v    18.201987 139.124129 0.000000
v    21.657533 138.880811 0.000000
v    20.140480 141.995060 0.000000
v    21.798013 140.875871 0.231332
v    18.342467 141.119189 0.231332
v    19.859520 138.004940 0.231332
v    20.990308 140.834410 -2.341808
v    22.033906 140.990782 -1.384049
v    21.267477 140.265431 -2.341808
v    22.033906 140.990782 -1.384049
v    21.503548 141.204422 0.231332
v    18.205166 140.699900 0.231332
v    20.291286 138.095678 0.231332
v    18.496452 138.795578 0.322458
v    21.794834 139.300100 0.322458
v    19.708714 141.904322 0.322458
v    19.332015 138.942986 -2.250682
v    18.065988 138.450753 -1.017822
v    18.822675 139.578823 -2.250682
v    18.065988 138.450753 -1.017822
v    18.272844 139.328938 0.322458
v    21.444735 138.839770 0.322458
v    20.282421 141.831292 0.322458
v    21.727156 140.671062 0.466406
v    18.555265 141.160230 0.466406
v    19.717579 138.168708 0.466406
v    20.827957 140.930252 -2.106734
v    22.715415 141.055036 -0.389909
v    21.238827 139.872768 -2.106734
v    22.715415 141.055036 -0.389909
v    21.731622 140.409625 0.466406
v    18.779443 141.294816 0.466406
v    19.488935 138.295559 0.466406
v    18.268378 139.590375 0.678771
v    21.220557 138.705184 0.678771
v    20.511065 141.704441 0.678771
v    19.178064 138.978024 -1.894369
v    16.499625 139.171966 0.542986
v    18.807292 140.545400 -1.894369
v    16.499625 139.171966 0.542986
v    18.876148 138.716648 0.678771
v    21.673341 139.668392 0.678771
v    19.450510 141.614960 0.678771
v    21.123852 141.283352 0.903326
v    18.326659 140.331608 0.903326
v    20.549490 138.385040 0.903326
v    19.704436 141.537018 -1.669813
v    23.221723 143.678959 2.067887
v    21.562578 139.909814 -1.669813
v    23.221723 143.678959 2.067887
v    21.375838 140.878433 0.903326
v    18.551335 140.752294 0.903326
v    20.072827 138.369272 0.903326
v    18.624162 139.121567 1.432322
v    21.448665 139.247706 1.432322
v    19.927173 141.630728 1.432322
v    20.182860 138.063349 -1.140818
v    14.610945 136.559242 4.097352
v    18.320120 140.980847 -1.140818
v    14.610945 136.559242 4.097352
v    18.735263 139.088754 1.432322
v    21.421531 139.360328 1.432322
v    19.843206 141.550918 1.432322
v    21.264737 140.911246 2.225063
v    18.578469 140.639672 2.225063
v    20.156794 138.449082 2.225063
v    19.368726 142.269541 -0.348076
v    21.247849 143.235725 1.639796
v    27.008053 145.143225 7.147044
v    27.282258 145.246884 7.325343
v    21.953004 138.682769 -0.348076
v    23.464337 140.159416 1.639796
v    27.097130 145.019593 7.147044
v    27.282258 145.246884 7.325343
v    21.244614 140.810576 2.225063
v    18.675713 140.672580 2.225063
v    20.079672 138.516844 2.225063
v    18.755386 139.189424 3.118961
v    21.324287 139.327420 3.118961
v    19.920328 141.483156 3.118961
v    20.670584 137.612526 0.545821
v    17.793669 136.300666 3.520533
v    12.997172 134.959259 8.040942
v    11.525342 134.480737 8.982278
v    18.087553 141.578690 0.545821
v    15.724444 139.477897 3.520533
v    12.558132 135.633392 8.040942
v    11.525342 134.480737 8.982278
v    18.765415 139.315252 3.118961
v    21.210302 139.273192 3.118961
v    20.024283 141.411556 3.118961
v    21.234585 140.684748 4.387400
v    18.789698 140.726808 4.387400
v    19.975717 138.588444 4.387400
v    19.259028 142.712109 1.814260
v    24.515930 144.672602 7.092680
v    26.908691 145.162197 9.309381
v    31.252929 146.241308 12.031974
v    21.908384 137.935383 1.814260
v    26.354986 141.356827 7.092680
v    28.037265 143.127406 9.309381
v    31.252929 146.241308 12.031974
v    21.293262 140.344016 4.387400
v    19.055443 140.947990 4.387400
v    19.651295 138.707994 4.387400
v    18.706738 139.655984 6.196282
v    20.944557 139.052010 6.196282
v    20.348705 141.292006 6.196282
v    20.187851 136.983333 3.623142
v    18.464606 136.731273 5.269191
v    12.667626 136.087799 10.756475
v    5.435119 136.125652 15.275099
v    18.664177 142.711299 3.623142
v    17.043449 142.073842 5.269191
v    11.692924 139.752011 10.756475
v    5.435119 136.125652 15.275099
v    18.831935 139.515124 6.196282
v    21.003948 139.230864 6.196282
v    20.164118 141.254012 6.196282
v    21.168065 140.484876 8.790902
v    18.996052 140.769136 8.790902
v    19.835882 138.745988 8.790902
v    19.298453 143.047433 6.217762
v    21.980101 143.814836 8.854047
v    26.991677 145.062666 13.712883
v    34.974498 146.216069 18.635383
v    21.662847 137.351613 6.217762
v    24.099620 138.708919 8.854047
v    28.521610 141.377060 13.712883
v    34.974498 146.216069 18.635383
v    20.919824 140.756852 8.790902
v    18.884635 140.418165 8.790902
v    20.195542 138.824983 8.790902
v    19.080176 139.243148 12.648463
v    21.115365 139.581835 12.648463
v    19.804458 141.175017 12.648463
v    21.747673 137.172668 10.075323
v    17.863364 134.662301 14.446535
v    15.013762 132.957778 17.570444
v    12.535830 131.403215 19.397837
v    6.555688 128.692533 23.391359
v    5.813114 128.326700 23.595453
v    17.562156 142.259443 10.075323
v    14.350744 138.931286 14.446535
v    12.129354 136.463279 17.570444
v    10.126693 134.331106 19.397837
v    6.315103 128.984923 23.391359
v    5.813114 128.326700 23.595453
v    19.227775 139.192038 12.648463
v    21.085829 139.735214 12.648463
v    19.686397 141.072748 12.648463
v    20.772225 140.807962 18.190742
v    18.914171 140.264786 18.190742
v    20.313603 138.927252 18.190742
v    17.583408 142.826166 15.617602
v    23.682972 147.893929 23.112723
v    29.177839 152.346399 27.531534
v    31.148995 153.541636 28.933638
v    35.899898 156.635712 30.331478
v    22.932527 137.713645 15.617602
v    27.719358 144.036077 23.112723
v    31.918863 149.726614 27.531534
v    33.023765 151.749789 28.933638
v    35.899898 156.635712 30.331478
v    20.731259 140.745280 18.190742
v    18.988939 140.260648 18.190742
v    20.279802 138.994071 18.190742
v    19.268741 139.254720 24.446669
v    21.011061 139.739352 24.446669
v    19.720198 141.005929 24.446669
v    22.551295 137.076653 21.873529
v    16.395397 132.079898 29.368650
v    14.756512 130.709175 30.707903
v    9.419063 126.509262 34.950743
v    2.452911 122.116454 37.123274
v    17.028729 142.495318 21.873529
v    12.149780 136.245638 29.368650
v    10.810428 134.581018 30.707903
v    6.712635 129.164772 34.950743
v    2.452911 122.116454 37.123274
v    19.349705 139.279474 24.446669
v    20.949141 139.797091 24.446669
v    19.701154 140.923435 24.446669
v    20.650295 140.720526 33.195838
v    19.050859 140.202909 33.195838
v    20.298846 139.076565 33.195838
v    17.517002 142.545815 30.622698
v    22.661957 147.075075 37.101236
v    23.497287 147.760508 38.117819
v    27.699512 151.360615 41.574624
v    30.964172 153.470061 43.938734
v    34.147213 155.675080 44.893422
v    22.786240 137.790176 30.622698
v    26.765988 143.371068 37.101236
v    27.362465 144.272073 38.117819
v    30.514270 148.820215 41.574624
v    32.279034 152.283360 43.938734
v    34.147213 155.675080 44.893422
v    20.880529 140.171415 33.195838
v    19.411286 140.676853 33.195838
v    19.708185 139.151732 33.195838
v    19.119471 139.828585 46.374963
v    20.588714 139.323147 46.374963
v    20.291815 140.848268 46.374963
v    20.425018 137.017276 43.801823
v    18.293336 136.851689 45.822642
v    12.479889 136.602538 51.296944
v    5.187811 137.116467 55.743557
v    19.275072 142.924340 43.801823
v    17.236945 142.278178 45.822642
v    11.754576 140.328338 51.296944
v    5.187811 137.116467 55.743557
v    19.364741 139.475932 46.374963
v    20.771485 139.711884 46.374963
v    19.863773 140.812184 46.374963
v    20.635259 140.524068 60.684679
v    19.228515 140.288116 60.684679
v    20.136227 139.187816 60.684679
v    18.343158 142.132891 58.111540
v    22.973064 144.910361 63.191011
v    25.439558 145.910450 65.606660
v    29.283949 147.658962 68.175424
v    21.779092 137.967961 58.111540
v    25.385939 141.985550 63.191011
v    26.836606 144.216993 65.606660
v    29.283949 147.658962 68.175424
v    20.599732 140.450357 60.684679
v    19.310113 140.294205 60.684679
v    20.090155 139.255438 60.684679
v    19.400268 139.549643 88.110000
v    20.689887 139.705795 88.110000
v    19.909845 140.744562 88.110000
v    21.861545 137.511505 85.536860
v    19.271679 135.996314 88.372802
v    14.912949 133.645266 93.031981
v    14.021380 133.139642 93.672283
v    7.250650 130.426124 98.108858
v    18.129322 142.481636 85.536860
v    15.952032 140.417025 88.372802
v    12.478782 136.886801 93.031981
v    11.744595 136.171595 93.672283
v    7.250650 130.426124 98.108858
mtllib usm_12_2.5D_2018-09-09_3.mtl
usemtl APPID_3394668640_2314290301056 
o vid_3 
f 3 2 1
f 4 5 6
f 1 6 5
f 1 5 3
f 3 5 4
f 4 2 3
f 2 4 6
f 6 1 2
usemtl APPID_3394668080_2314290300672 
o vid_4 
f 7 9 10
f 7 10 8
f 7 9 10
usemtl APPID_3394668640_2314290301056 
o vid_5 
f 13 12 11
f 14 15 16
f 11 16 15
f 11 15 13
f 13 15 14
f 14 12 13
f 12 14 16
f 16 11 12
usemtl APPID_3394668080_2314290300672 
o vid_6 
f 17 19 20
f 17 20 18
f 17 19 20
usemtl APPID_3394668640_2314290301056 
o vid_7 
f 23 22 21
f 24 25 26
f 21 26 25
f 21 25 23
f 23 25 24
f 24 22 23
f 22 24 26
f 26 21 22
usemtl APPID_3394668080_2314290300672 
o vid_8 
f 27 29 30
f 27 30 28
f 27 29 30
usemtl APPID_3394668640_2314290301056 
o vid_9 
f 33 32 31
f 34 35 36
f 31 36 35
f 31 35 33
f 33 35 34
f 34 32 33
f 32 34 36
f 36 31 32
usemtl APPID_3394668080_2314290300672 
o vid_10 
f 37 39 40
f 37 40 38
f 37 39 40
usemtl APPID_3394668640_2314290301056 
o vid_11 
f 43 42 41
f 44 45 46
f 41 46 45
f 41 45 43
f 43 45 44
f 44 42 43
f 42 44 46
f 46 41 42
usemtl APPID_3394668080_2314290300672 
o vid_12 
f 47 49 50
f 47 50 48
f 47 49 50
usemtl APPID_3394668640_2314290301056 
o vid_13 
f 53 52 51
f 54 55 56
f 51 56 55
f 51 55 53
f 53 55 54
f 54 52 53
f 52 54 56
f 56 51 52
usemtl APPID_3394668080_2314290300672 
o vid_14 
f 57 59 60
f 57 60 58
f 57 59 60
usemtl APPID_3394668640_2314290301056 
o vid_15 
f 63 62 61
f 64 65 66
f 61 66 65
f 61 65 63
f 63 65 64
f 64 62 63
f 62 64 66
f 66 61 62
usemtl APPID_3394668080_2314290300672 
o vid_16 
f 67 71 72
f 68 72 73
f 67 72 68
f 68 73 69
f 69 73 74
usemtl APPID_3394668640_2314290301056 
o vid_17 
f 77 76 75
f 78 79 80
f 75 80 79
f 75 79 77
f 77 79 78
f 78 76 77
f 76 78 80
f 80 75 76
usemtl APPID_3394668080_2314290300672 
o vid_18 
f 81 85 86
f 82 86 87
f 81 86 82
f 82 87 83
f 83 87 88
usemtl APPID_3394668640_2314290301056 
o vid_19 
f 91 90 89
f 92 93 94
f 89 94 93
f 89 93 91
f 91 93 92
f 92 90 91
f 90 92 94
f 94 89 90
usemtl APPID_3394668080_2314290300672 
o vid_20 
f 95 99 100
f 96 100 101
f 95 100 96
f 96 101 97
f 97 101 102
usemtl APPID_3394668640_2314290301056 
o vid_21 
f 105 104 103
f 106 107 108
f 103 108 107
f 103 107 105
f 105 107 106
f 106 104 105
f 104 106 108
f 108 103 104
usemtl APPID_3394668080_2314290300672 
o vid_22 
f 109 113 114
f 110 114 115
f 109 114 110
f 110 115 111
f 111 115 116
usemtl APPID_3394668640_2314290301056 
o vid_23 
f 119 118 117
f 120 121 122
f 117 122 121
f 117 121 119
f 119 121 120
f 120 118 119
f 118 120 122
f 122 117 118
usemtl APPID_3394668080_2314290300672 
o vid_24 
f 123 127 128
f 124 128 129
f 123 128 124
f 124 129 125
f 125 129 130
usemtl APPID_3394668640_2314290301056 
o vid_25 
f 133 132 131
f 134 135 136
f 131 136 135
f 131 135 133
f 133 135 134
f 134 132 133
f 132 134 136
f 136 131 132
usemtl APPID_3394668080_2314290300672 
o vid_26 
f 137 143 144
f 138 144 145
f 139 145 146
f 140 146 147
f 137 144 138
f 138 145 139
f 139 146 140
f 140 147 141
f 141 147 148
usemtl APPID_3394668640_2314290301056 
o vid_27 
f 151 150 149
f 152 153 154
f 149 154 153
f 149 153 151
f 151 153 152
f 152 150 151
f 150 152 154
f 154 149 150
usemtl APPID_3394668080_2314290300672 
o vid_28 
f 155 160 161
f 156 161 162
f 157 162 163
f 155 161 156
f 156 162 157
f 157 163 158
f 158 163 164
usemtl APPID_3394668640_2314290301056 
o vid_29 
f 167 166 165
f 168 169 170
f 165 170 169
f 165 169 167
f 167 169 168
f 168 166 167
f 166 168 170
f 170 165 166
usemtl APPID_3394668080_2314290300672 
o vid_30 
f 171 176 177
f 172 177 178
f 173 178 179
f 171 177 172
f 172 178 173
f 173 179 174
f 174 179 180
usemtl APPID_3394668640_2314290301056 
o vid_31 
f 183 182 181
f 184 185 186
f 181 186 185
f 181 185 183
f 183 185 184
f 184 182 183
f 182 184 186
f 186 181 182
usemtl APPID_3394668080_2314290300672 
o vid_32 
f 187 193 194
f 188 194 195
f 189 195 196
f 190 196 197
f 187 194 188
f 188 195 189
f 189 196 190
f 190 197 191
f 191 197 198
usemtl APPID_3394668640_2314290301056 
o vid_33 
f 201 200 199
f 202 203 204
f 199 204 203
f 199 203 201
f 201 203 202
f 202 200 201
f 200 202 204
f 204 199 200
usemtl APPID_3394668080_2314290300672 
o vid_34 
f 205 209 210
f 206 210 211
f 205 210 206
f 206 211 207
f 207 211 212
usemtl APPID_3394668640_2314290301056 
o vid_35 
f 215 214 213
f 216 217 218
f 213 218 217
f 213 217 215
f 215 217 216
f 216 214 215
f 214 216 218
f 218 213 214
usemtl APPID_3394668080_2314290300672 
o vid_36 
f 219 223 224
f 220 224 225
f 219 224 220
f 220 225 221
f 221 225 226
usemtl APPID_3394668640_2314290301056 
o vid_37 
f 229 228 227
f 230 231 232
f 227 232 231
f 227 231 229
f 229 231 230
f 230 228 229
f 228 230 232
f 232 227 228
usemtl APPID_3394668080_2314290300672 
o vid_38 
f 233 238 239
f 234 239 240
f 235 240 241
f 233 239 234
f 234 240 235
f 235 241 236
f 236 241 242
