# File generated by PlantGL - Wed Jul 15 17:36:41 2026
v    20.701807 99.124129 0.000000
v    24.157353 98.880811 0.000000
v    22.640300 101.995060 0.000000
v    24.297833 100.875871 3.802806
v    20.842287 101.119189 3.802806
v    22.359340 98.004940 3.802806
v    23.894383 101.518628 3.539517
v    24.795737 101.864825 4.387391
v    25.755549 102.246069 4.986803
v    26.160972 102.400712 5.238364
v    27.529866 102.937505 5.631656
v    28.894756 103.441421 5.620506
v    29.575419 103.659958 5.411052
v    30.224285 103.762840 5.225052
v    24.555252 100.161978 3.539517
v    25.383470 100.658311 4.387391
v    26.275318 101.179073 4.986803
v    26.646999 101.402982 5.238364
v    27.913498 102.149975 5.631656
v    29.151640 102.914082 5.620506
v    29.743297 103.315334 5.411052
v    30.224285 103.762840 5.225052
v    23.995716 101.198293 3.802806
v    20.714120 100.696338 3.802806
v    22.789624 98.105369 3.802806
v    21.003924 98.801707 8.831485
v    24.285520 99.303662 8.831485
v    22.210016 101.894631 8.831485
v    21.810752 97.989752 8.435758
v    20.603887 97.183794 9.710122
v    19.278252 96.276533 10.642461
v    18.780190 95.945583 10.989145
v    16.950963 94.705412 11.580268
v    15.117699 93.513549 11.563510
v    14.141406 92.935351 11.230974
v    13.224164 92.569705 10.951412
v    20.387642 99.766300 8.435758
v    19.337705 98.764440 9.710122
v    18.162985 97.668784 10.642461
v    17.731307 97.254962 10.989145
v    16.121789 95.740516 11.580268
v    14.558534 94.211586 11.563510
v    13.781191 93.385028 11.230974
v    13.224164 92.569705 10.951412
v    20.790941 99.336039 8.831485
v    23.929266 98.852048 8.831485
v    22.779253 101.811913 8.831485
v    24.208699 100.663961 19.751381
v    21.070374 101.147952 19.751381
v    22.220387 98.188087 19.751381
v    23.422220 102.199194 19.177304
v    25.443184 102.789085 21.026011
v    28.497359 103.718411 22.878900
v    31.572865 104.639465 23.739011
v    32.868258 105.031251 23.728619
v    34.619650 105.513865 23.714701
v    35.759237 105.822591 23.367191
v    37.148160 106.139758 22.949985
v    38.576647 106.246424 22.544428
v    24.665044 99.000459 19.177304
v    26.554133 99.929764 21.026011
v    29.434571 101.306248 22.878900
v    32.325160 102.703235 23.739011
v    33.545259 103.288808 23.728619
v    35.163063 104.115248 23.714701
v    36.212150 104.656899 23.367191
v    37.450866 105.360665 22.949985
v    38.576647 106.246424 22.544428
v    24.202820 100.402854 19.751381
v    21.299438 101.273414 19.751381
v    21.997202 98.323732 19.751381
v    20.796820 99.597146 37.004359
v    23.700202 98.726586 37.004359
v    23.002438 101.676268 37.004359
v    21.579035 97.367588 36.200543
v    18.662459 96.939618 38.789079
v    14.941082 96.350207 40.975892
v    9.802305 95.566069 42.587791
v    8.733024 95.398552 42.579480
v    5.403517 94.961269 42.553751
v    2.551200 94.679727 41.712969
v    0.549559 94.807539 41.145113
v    20.497200 101.940863 36.200543
v    17.697994 101.016732 38.789079
v    14.106953 99.876348 40.975892
v    9.161491 98.275002 42.587791
v    8.130485 97.945684 42.579480
v    4.957940 96.844869 42.553751
v    2.281789 95.818619 41.712969
v    0.549559 94.807539 41.145113
v    21.401804 98.746150 37.004359
v    24.134694 99.676015 37.004359
v    21.962962 101.577834 37.004359
v    23.597836 101.253850 60.161104
v    20.864946 100.323985 60.161104
v    23.036678 98.422166 60.161104
v    20.783346 103.273114 59.074792
v    21.709538 104.212282 60.235389
v    22.566801 105.081554 61.309612
v    23.604755 106.077950 62.573056
v    27.920805 110.316641 66.084109
v    30.762057 113.151316 67.158594
v    32.230650 114.580987 67.706805
v    36.512046 118.771537 67.660802
v    41.083969 123.017675 65.823724
v    42.228746 123.992684 65.383371
v    45.221650 125.946578 63.477938
v    25.970791 98.730387 59.074792
v    26.779547 99.772395 60.235389
v    27.528112 100.736855 61.309612
v    28.378850 101.897199 62.573056
v    32.011026 106.734770 66.084109
v    34.446045 109.925189 67.158594
v    35.669451 111.569574 67.706805
v    39.258480 116.366442 67.660802
v    42.864277 121.458630 65.823724
v    43.679721 122.722042 65.383371
v    45.221650 125.946578 63.477938
v    23.834342 100.852054 60.161104
v    21.094659 100.729703 60.161104
v    22.570460 98.418243 60.161104
v    21.165298 99.147946 120.608341
v    23.904981 99.270297 120.608341
v    22.429180 101.581757 120.608341
v    23.981689 95.549050 119.191357
v    20.950000 93.857142 122.246162
v    12.487300 89.310223 128.334300
v    6.905896 86.254516 130.037826
v    -1.347933 81.842518 130.390935
v    -3.153363 80.884014 129.787837
v    -9.612147 77.666269 127.663944
v    -15.779675 75.559634 124.370442
v    19.085739 103.217287 119.191357
v    16.275157 101.179072 122.246162
v    8.589223 95.415550 128.334300
v    3.468523 91.638268 130.037826
v    -4.007121 86.007447 130.390935
v    -5.636372 84.773005 129.787837
v    -11.273277 80.267998 127.663944
v    -15.779675 75.559634 124.370442
v    21.406007 99.211905 120.608341
v    23.729236 99.446778 120.608341
v    22.364216 101.341317 120.608341
v    23.593633 100.788095 169.852856
v    21.270404 100.553222 169.852856
v    22.635424 98.658683 169.852856
v    19.907860 104.962267 168.068887
v    21.709449 106.104732 169.945931
v    25.492476 108.360914 173.813822
v    33.966225 113.546290 179.579760
v    37.332749 115.643038 180.641554
v    42.458423 118.748794 182.244590
v    49.571488 123.085112 182.180621
v    57.513100 127.622107 179.921781
v    61.443566 129.659737 178.625293
v    65.401755 130.910945 176.613254
v    26.386428 95.970530 168.068887
v    28.040433 97.317829 169.945931
v    31.378105 100.192127 173.813822
v    38.979184 106.588702 179.579760
v    42.033778 109.118385 180.641554
v    46.602349 112.997355 182.244590
v    52.967308 118.371984 182.180621
v    59.784899 124.469030 179.921781
v    62.961930 127.552368 178.625293
v    65.401755 130.910945 176.613254
v    23.381270 100.574059 169.852856
v    21.561945 100.476329 169.852856
v    22.556245 98.949612 169.852856
v    21.618370 99.425941 207.293597
v    23.437695 99.523671 207.293597
v    22.443395 101.050388 207.293597
v    25.533260 94.640096 205.125785
v    18.521292 90.893898 212.106812
v    11.833073 87.222199 216.535145
v    7.905801 85.135674 219.113361
v    -2.723232 79.361074 222.348860
v    -12.953407 74.092676 222.263476
v    -17.857430 71.833370 220.821247
v    -23.054177 70.332199 219.289796
v    18.824190 104.941667 205.125785
v    12.562622 100.043253 212.106812
v    6.500098 95.410817 216.535145
v    3.003766 92.662597 219.113361
v    -6.575542 85.276178 222.348860
v    -15.530598 78.049873 222.263476
v    -19.579903 74.478175 220.821247
v    -23.054177 70.332199 219.289796
v    21.816232 99.620856 207.293597
v    23.169963 99.597567 207.293597
v    22.513265 100.781577 207.293597
v    23.183408 100.379144 229.358156
v    21.829677 100.402433 229.358156
v    22.486375 99.218423 229.358156
v    18.942619 106.408153 226.815617
v    27.457148 110.208558 235.003384
v    37.036398 114.615632 241.123358
v    40.343952 116.082782 243.221085
v    53.269386 121.960761 247.019041
v    66.165061 127.534057 246.911371
v    73.202143 130.238013 244.701641
v    79.406570 131.562676 242.905464
v    26.052444 93.589309 226.815617
v    33.784758 98.800029 235.003384
v    42.595479 104.592742 241.123358
v    45.591408 106.621746 243.221085
v    57.421697 114.474244 247.019041
v    68.977761 122.462826 246.911371
v    74.997645 127.000766 244.701641
v    79.406570 131.562676 242.905464
v    23.019280 100.138180 229.358156
v    22.120423 100.380776 229.358156
v    22.359757 99.481045 229.358156
v    21.980360 99.861820 238.739183
v    22.879217 99.619224 238.739183
v    22.639883 100.518955 238.739183
v    24.800366 92.714361 235.860951
v    14.403396 90.893267 245.129754
v    11.366990 90.325725 246.922605
v    -1.397531 88.120326 254.432442
v    -9.453800 86.651050 256.622849
v    -17.262959 85.433085 258.731844
v    -24.272892 84.314135 258.677456
v    -31.662140 83.424424 258.620699
v    -38.894754 83.668665 256.972478
v    20.876403 107.465760 235.860951
v    10.948744 103.880377 245.129754
v    8.031664 102.864255 246.922605
v    -4.141578 98.436056 254.432442
v    -11.863095 95.708343 256.622849
v    -19.245297 92.885313 258.731844
v    -25.884708 90.373452 258.677456
v    -32.739402 87.474187 258.620699
v    -38.894754 83.668665 256.972478
v    22.204829 99.877546 238.739183
v    22.753364 99.805757 238.739183
v    22.541267 100.316697 238.739183
v    22.794811 100.122454 239.559000
v    22.246276 100.194243 239.559000
v    22.458373 99.683303 239.559000
v    21.555773 104.140892 233.420182
v    22.678839 103.783102 240.823265
v    23.979832 103.122815 248.624077
v    27.172817 101.939810 256.247888
v    24.765831 96.407869 233.420182
v    25.305360 97.455819 240.823265
v    25.756284 98.843345 248.624077
v    27.172817 101.939810 256.247888
mtllib usm_12_2.5D_2018-09-06_2.mtl
usemtl APPID_3787972256_2817002573792 
o vid_3 
f 3 2 1
f 4 5 6
f 1 6 5
f 1 5 3
f 3 5 4
f 4 2 3
f 2 4 6
f 6 1 2
usemtl APPID_3787971248_2817002571104 
o vid_4 
f 7 15 16
f 8 16 17
f 9 17 18
f 10 18 19
f 11 19 20
f 12 20 21
f 7 16 8
f 8 17 9
f 9 18 10
f 10 19 11
f 11 20 12
f 12 21 13
f 13 21 22
usemtl APPID_3787972256_2817002573792 
o vid_5 
f 25 24 23
f 26 27 28
f 23 28 27
f 23 27 25
f 25 27 26
f 26 24 25
f 24 26 28
f 28 23 24
usemtl APPID_3787971248_2817002571104 
o vid_6 
f 29 37 38
f 30 38 39
f 31 39 40
f 32 40 41
f 33 41 42
f 34 42 43
f 29 38 30
f 30 39 31
f 31 40 32
f 32 41 33
f 33 42 34
f 34 43 35
f 35 43 44
usemtl APPID_3787972256_2817002573792 
o vid_7 
f 47 46 45
f 48 49 50
f 45 50 49
f 45 49 47
f 47 49 48
f 48 46 47
f 46 48 50
f 50 45 46
usemtl APPID_3787971248_2817002571104 
o vid_8 
f 51 60 61
f 52 61 62
f 53 62 63
f 54 63 64
f 55 64 65
f 56 65 66
f 57 66 67
f 51 61 52
f 52 62 53
f 53 63 54
f 54 64 55
f 55 65 56
f 56 66 57
f 57 67 58
f 58 67 68
usemtl APPID_3787972256_2817002573792 
o vid_9 
f 71 70 69
f 72 73 74
f 69 74 73
f 69 73 71
f 71 73 72
f 72 70 71
f 70 72 74
f 74 69 70
usemtl APPID_3787971248_2817002571104 
o vid_10 
f 75 83 84
f 76 84 85
f 77 85 86
f 78 86 87
f 79 87 88
f 80 88 89
f 75 84 76
f 76 85 77
f 77 86 78
f 78 87 79
f 79 88 80
f 80 89 81
f 81 89 90
usemtl APPID_3787972256_2817002573792 
o vid_11 
f 93 92 91
f 94 95 96
f 91 96 95
f 91 95 93
f 93 95 94
f 94 92 93
f 92 94 96
f 96 91 92
usemtl APPID_3787971248_2817002571104 
o vid_12 
f 97 108 109
f 98 109 110
f 99 110 111
f 100 111 112
f 101 112 113
f 102 113 114
f 103 114 115
f 104 115 116
f 105 116 117
f 97 109 98
f 98 110 99
f 99 111 100
f 100 112 101
f 101 113 102
f 102 114 103
f 103 115 104
f 104 116 105
f 105 117 106
f 106 117 118
usemtl APPID_3787972256_2817002573792 
o vid_13 
f 121 120 119
f 122 123 124
f 119 124 123
f 119 123 121
f 121 123 122
f 122 120 121
f 120 122 124
f 124 119 120
usemtl APPID_3787971248_2817002571104 
o vid_14 
f 125 133 134
f 126 134 135
f 127 135 136
f 128 136 137
f 129 137 138
f 130 138 139
f 125 134 126
f 126 135 127
f 127 136 128
f 128 137 129
f 129 138 130
f 130 139 131
f 131 139 140
usemtl APPID_3787972256_2817002573792 
o vid_15 
f 143 142 141
f 144 145 146
f 141 146 145
f 141 145 143
f 143 145 144
f 144 142 143
f 142 144 146
f 146 141 142
usemtl APPID_3787971248_2817002571104 
o vid_16 
f 147 157 158
f 148 158 159
f 149 159 160
f 150 160 161
f 151 161 162
f 152 162 163
f 153 163 164
f 154 164 165
f 147 158 148
f 148 159 149
f 149 160 150
f 150 161 151
f 151 162 152
f 152 163 153
f 153 164 154
f 154 165 155
f 155 165 166
usemtl APPID_3787972256_2817002573792 
o vid_17 
f 169 168 167
f 170 171 172
f 167 172 171
f 167 171 169
f 169 171 170
f 170 168 169
f 168 170 172
f 172 167 168
usemtl APPID_3787971248_2817002571104 
o vid_18 
f 173 181 182
f 174 182 183
f 175 183 184
f 176 184 185
f 177 185 186
f 178 186 187
f 173 182 174
f 174 183 175
f 175 184 176
f 176 185 177
f 177 186 178
f 178 187 179
f 179 187 188
usemtl APPID_3787972256_2817002573792 
o vid_19 
f 191 190 189
f 192 193 194
f 189 194 193
f 189 193 191
f 191 193 192
f 192 190 191
f 190 192 194
f 194 189 190
usemtl APPID_3787971248_2817002571104 
o vid_20 
f 195 203 204
f 196 204 205
f 197 205 206
f 198 206 207
f 199 207 208
f 200 208 209
f 195 204 196
f 196 205 197
f 197 206 198
f 198 207 199
f 199 208 200
f 200 209 201
f 201 209 210
usemtl APPID_3787972256_2817002573792 
o vid_21 
f 213 212 211
f 214 215 216
f 211 216 215
f 211 215 213
f 213 215 214
f 214 212 213
f 212 214 216
f 216 211 212
usemtl APPID_3787971248_2817002571104 
o vid_22 
f 217 226 227
f 218 227 228
f 219 228 229
f 220 229 230
f 221 230 231
f 222 231 232
f 223 232 233
f 217 227 218
f 218 228 219
f 219 229 220
f 220 230 221
f 221 231 222
f 222 232 223
f 223 233 224
f 224 233 234
usemtl APPID_3787972256_2817002573792 
o vid_23 
f 237 236 235
f 238 239 240
f 235 240 239
f 235 239 237
f 237 239 238
f 238 236 237
f 236 238 240
f 240 235 236
usemtl APPID_3787971248_2817002571104 
o vid_24 
f 241 245 246
f 242 246 247
f 241 246 242
f 242 247 243
f 243 247 248
