# File generated by PlantGL - Fri Sep  4 14:43:43 2026
v    17.752484 218.905161 0.000000
v    22.071916 218.601013 0.000000
v    20.175600 222.493825 0.000000
v    22.247516 221.094839 0.848509
v    17.928084 221.398987 0.848509
v    19.824400 217.506175 0.848509
v    22.063717 221.446520 0.692330
v    22.463559 221.598964 1.089971
v    23.188222 221.870883 1.629523
v    24.010102 222.191712 1.912323
v    24.564986 222.383311 2.099731
v    25.067553 222.502065 2.093957
v    22.411137 220.733328 0.692330
v    22.777645 220.954199 1.089971
v    23.438459 221.357190 1.629523
v    24.197711 221.806583 1.912323
v    24.690623 222.125399 2.099731
v    25.093926 222.447924 2.093957
v    21.879284 221.505407 0.848509
v    17.756638 220.874804 0.848509
v    20.364078 217.619789 0.848509
v    18.120716 218.494593 1.417165
v    22.243362 219.125196 1.417165
v    19.635922 222.380211 1.417165
v    18.490485 218.058434 1.195783
v    17.899346 217.665770 1.855243
v    17.069241 217.119240 2.524238
v    15.919890 216.342590 2.968867
v    15.329030 215.976613 3.190750
v    15.083095 215.822321 3.187445
v    14.461460 215.538984 3.179854
v    17.775778 218.950644 1.195783
v    17.263558 218.459459 1.855243
v    16.549027 217.768652 2.524238
v    15.540245 216.816523 2.968867
v    15.054131 216.319786 3.190750
v    14.849881 216.113456 3.187445
v    14.437697 215.568649 3.179854
v    17.841416 219.161313 1.417165
v    21.805616 218.549955 1.417165
v    20.352968 222.288732 1.417165
v    22.158584 220.838687 2.253766
v    18.194384 221.450045 2.253766
v    19.647032 217.711268 2.253766
v    21.873131 221.512341 1.946155
v    22.143254 221.590464 2.207453
v    22.824613 221.775457 2.862477
v    24.152796 222.153673 3.792049
v    25.117917 222.441101 4.114829
v    26.426088 222.774800 4.545832
v    26.977156 222.836180 4.718169
v    27.396668 222.887984 4.713473
v    22.402830 220.149023 1.946155
v    22.654838 220.273767 2.207453
v    23.282361 220.597321 2.862477
v    24.517487 221.215043 3.792049
v    25.423495 221.654615 4.114829
v    26.613803 222.291666 4.545832
v    27.061756 222.618441 4.718169
v    27.406196 222.863460 4.713473
v    22.163962 220.511898 2.253766
v    18.474702 221.618097 2.253766
v    19.361335 217.870005 2.253766
v    17.836038 219.488102 4.112548
v    21.525298 218.381903 4.112548
v    20.638665 222.129995 4.112548
v    18.103201 218.489502 3.693557
v    17.310223 218.375139 4.438055
v    16.771767 218.306486 4.941659
v    14.908934 218.045644 6.207807
v    13.015072 217.757180 6.821853
v    11.187596 217.552637 7.408912
v    9.788807 217.576547 7.455867
v    17.627472 220.500564 3.693557
v    16.867301 220.247520 4.438055
v    16.355154 220.067647 4.941659
v    14.572888 219.466220 6.207807
v    12.750507 218.875586 6.821853
v    11.025075 218.239667 7.408912
v    9.785252 217.591578 7.455867
v    18.736025 218.556638 4.112548
v    21.881976 219.627047 4.112548
v    19.381999 221.816315 4.112548
v    21.263975 221.443362 5.999272
v    18.118024 220.372953 5.999272
v    20.618001 218.183685 5.999272
v    20.149574 222.365827 5.439840
v    21.446344 223.604546 7.106294
v    23.269251 225.332110 8.796843
v    25.802636 227.790762 9.928421
v    27.091864 228.946229 10.481115
v    27.654880 229.456689 10.472463
v    29.222727 230.538172 10.451301
v    22.325409 220.460413 5.439840
v    23.382204 221.909284 7.106294
v    24.854151 223.944188 8.796843
v    26.957053 226.779820 9.928421
v    27.932318 228.210230 10.481115
v    28.364032 228.835673 10.472463
v    29.229199 230.532504 10.451301
v    21.278616 220.816360 5.999272
v    18.653703 220.699134 5.999272
v    20.067680 218.484506 5.999272
v    18.721384 219.183640 11.505015
v    21.346297 219.300866 11.505015
v    19.932320 221.515494 11.505015
v    19.729182 217.702955 10.772811
v    18.640100 217.137110 11.913285
v    17.636405 216.636378 12.953926
v    14.713264 215.132858 15.166576
v    11.953515 213.671120 16.167589
v    9.056274 212.280855 17.193501
v    6.691969 211.503202 17.349704
v    17.802277 220.720952 10.772811
v    16.830673 219.971108 11.913285
v    15.954069 219.271322 12.953926
v    13.360060 217.252300 15.166576
v    10.872713 215.363917 16.167589
v    8.392344 213.320731 17.193501
v    6.691969 211.503202 17.349704
v    19.071648 219.331121 11.505015
v    21.043442 219.530464 11.505015
v    19.884909 221.138416 11.505015
v    20.928352 220.668879 19.658889
v    18.956558 220.469536 19.658889
v    20.115091 218.861584 19.658889
v    19.393977 222.682995 18.719470
v    21.984157 224.219122 21.517843
v    23.140613 224.921339 22.429689
v    25.608901 226.371493 24.356676
v    31.970338 230.212637 26.738612
v    33.194964 230.887278 27.184970
v    35.692131 232.281705 27.152409
v    38.693734 233.468879 27.116545
v    22.353189 218.575843 18.719470
v    24.630241 220.546567 21.517843
v    25.662422 221.421269 22.429689
v    27.819336 223.303584 24.356676
v    33.476658 228.121984 26.738612
v    34.504261 229.070079 27.184970
v    36.617455 230.997428 27.152409
v    38.693734 233.468879 27.116545
v    20.670547 220.436705 19.658889
v    19.286529 220.362358 19.658889
v    20.042924 219.200937 19.658889
v    19.329453 219.563295 25.541351
v    20.713471 219.637642 25.541351
v    19.957076 220.799063 25.541351
v    20.850996 217.382579 24.359866
v    17.471941 215.658497 27.879313
v    12.777277 213.189889 31.449646
v    11.209052 212.341022 32.021230
v    6.554528 210.055535 33.676642
v    2.871536 208.844801 34.881622
v    17.950192 221.836674 24.359866
v    15.007023 219.443303 27.879313
v    10.850943 216.147716 31.449646
v    9.440456 215.056647 32.021230
v    5.468089 211.723727 33.676642
v    2.871536 208.844801 34.881622
v    19.575873 219.764763 25.541351
v    20.415785 219.750314 25.541351
v    20.008342 220.484923 25.541351
v    20.424127 220.235237 27.962000
v    19.584215 220.249686 27.962000
v    19.991658 219.515077 27.962000
v    20.001372 222.543241 25.321092
v    20.424608 222.519890 28.214734
v    20.988411 222.377295 31.633298
v    21.946525 222.482903 34.729713
v    23.634666 222.078043 39.187209
v    23.761258 222.086139 39.368859
v    22.158196 218.654539 25.321092
v    22.362488 219.025941 28.214734
v    22.540051 219.579726 31.633298
v    23.136953 220.336590 34.729713
v    23.687361 221.983035 39.187209
v    23.761258 222.086139 39.368859
v    25.067553 222.502065 2.093957
v    25.187773 222.527134 2.092592
v    25.093926 222.447924 2.093957
v    25.187773 222.527134 2.092592
v    14.461460 215.538984 3.179854
v    14.390932 215.506838 3.178993
v    14.437697 215.568649 3.179854
v    14.390932 215.506838 3.178993
v    27.396668 222.887984 4.713473
v    27.449914 222.894559 4.712876
v    27.406196 222.863460 4.713473
v    27.449914 222.894559 4.712876
v    9.788807 217.576547 7.455867
v    9.757313 217.577033 7.455517
v    9.785252 217.591578 7.455867
v    9.757313 217.577033 7.455517
v    29.222727 230.538172 10.451301
v    29.237168 230.548134 10.451106
v    29.229199 230.532504 10.451301
v    29.237168 230.548134 10.451106
mtllib usm_16_2.5D_2018-07-25_5.mtl
usemtl APPID_428809696_2208043161088 
o vid_3 
f 3 2 1
f 4 5 6
f 1 6 5
f 1 5 3
f 3 5 4
f 4 2 3
f 2 4 6
f 6 1 2
usemtl APPID_428812944_2208043157504 
o vid_4 
f 7 13 14
f 8 14 15
f 9 15 16
f 10 16 17
f 7 14 8
f 8 15 9
f 9 16 10
f 10 17 11
f 11 17 18
f 11 18 12
usemtl APPID_428809696_2208043161088 
o vid_5 
f 21 20 19
f 22 23 24
f 19 24 23
f 19 23 21
f 21 23 22
f 22 20 21
f 20 22 24
f 24 19 20
usemtl APPID_428812944_2208043157504 
o vid_6 
f 25 32 33
f 26 33 34
f 27 34 35
f 28 35 36
f 29 36 37
f 25 33 26
f 26 34 27
f 27 35 28
f 28 36 29
f 29 37 30
f 30 37 38
f 30 38 31
usemtl APPID_428809696_2208043161088 
o vid_7 
f 41 40 39
f 42 43 44
f 39 44 43
f 39 43 41
f 41 43 42
f 42 40 41
f 40 42 44
f 44 39 40
usemtl APPID_428812944_2208043157504 
o vid_8 
f 45 53 54
f 46 54 55
f 47 55 56
f 48 56 57
f 49 57 58
f 50 58 59
f 45 54 46
f 46 55 47
f 47 56 48
f 48 57 49
f 49 58 50
f 50 59 51
f 51 59 60
f 51 60 52
usemtl APPID_428809696_2208043161088 
o vid_9 
f 63 62 61
f 64 65 66
f 61 66 65
f 61 65 63
f 63 65 64
f 64 62 63
f 62 64 66
f 66 61 62
usemtl APPID_428812944_2208043157504 
o vid_10 
f 67 74 75
f 68 75 76
f 69 76 77
f 70 77 78
f 71 78 79
f 67 75 68
f 68 76 69
f 69 77 70
f 70 78 71
f 71 79 72
f 72 79 80
f 72 80 73
usemtl APPID_428809696_2208043161088 
o vid_11 
f 83 82 81
f 84 85 86
f 81 86 85
f 81 85 83
f 83 85 84
f 84 82 83
f 82 84 86
f 86 81 82
usemtl APPID_428812944_2208043157504 
o vid_12 
f 87 94 95
f 88 95 96
f 89 96 97
f 90 97 98
f 91 98 99
f 87 95 88
f 88 96 89
f 89 97 90
f 90 98 91
f 91 99 92
f 92 99 100
f 92 100 93
usemtl APPID_428809696_2208043161088 
o vid_13 
f 103 102 101
f 104 105 106
f 101 106 105
f 101 105 103
f 103 105 104
f 104 102 103
f 102 104 106
f 106 101 102
usemtl APPID_428812944_2208043157504 
o vid_14 
f 107 114 115
f 108 115 116
f 109 116 117
f 110 117 118
f 111 118 119
f 107 115 108
f 108 116 109
f 109 117 110
f 110 118 111
f 111 119 112
f 112 119 120
usemtl APPID_428809696_2208043161088 
o vid_15 
f 123 122 121
f 124 125 126
f 121 126 125
f 121 125 123
f 123 125 124
f 124 122 123
f 122 124 126
f 126 121 122
usemtl APPID_428812944_2208043157504 
o vid_16 
f 127 135 136
f 128 136 137
f 129 137 138
f 130 138 139
f 131 139 140
f 132 140 141
f 127 136 128
f 128 137 129
f 129 138 130
f 130 139 131
f 131 140 132
f 132 141 133
f 133 141 142
usemtl APPID_428809696_2208043161088 
o vid_17 
f 145 144 143
f 146 147 148
f 143 148 147
f 143 147 145
f 145 147 146
f 146 144 145
f 144 146 148
f 148 143 144
usemtl APPID_428812944_2208043157504 
o vid_18 
f 149 155 156
f 150 156 157
f 151 157 158
f 152 158 159
f 149 156 150
f 150 157 151
f 151 158 152
f 152 159 153
f 153 159 160
usemtl APPID_428809696_2208043161088 
o vid_19 
f 163 162 161
f 164 165 166
f 161 166 165
f 161 165 163
f 163 165 164
f 164 162 163
f 162 164 166
f 166 161 162
usemtl APPID_428812944_2208043157504 
o vid_20 
f 167 173 174
f 168 174 175
f 169 175 176
f 170 176 177
f 167 174 168
f 168 175 169
f 169 176 170
f 170 177 171
f 171 177 178
usemtl APPID_428815184_2208043156352 
o vid_10000004 
f 179 181 182
f 179 182 180
f 179 181 182
usemtl APPID_428815184_2208043156352 
o vid_10000006 
f 183 185 186
f 183 186 184
f 183 185 186
usemtl APPID_428815184_2208043156352 
o vid_10000008 
f 187 189 190
f 187 190 188
f 187 189 190
usemtl APPID_428815184_2208043156352 
o vid_10000010 
f 191 193 194
f 191 194 192
f 191 193 194
usemtl APPID_428815184_2208043156352 
o vid_10000012 
f 195 197 198
f 195 198 196
f 195 197 198
