# File generated by PlantGL - Fri Sep  4 14:41:52 2026
v    137.752484 18.905161 0.000000
v    142.071916 18.601013 0.000000
v    140.175600 22.493825 0.000000
v    142.247516 21.094839 0.848018
v    137.928084 21.398987 0.848018
v    139.824400 17.506175 0.848018
v    142.062184 21.449156 0.688716
v    142.418649 21.585061 1.043219
v    142.463190 21.601210 1.087175
v    142.412266 20.730496 0.688716
v    142.739014 20.927406 1.043219
v    142.779187 20.952523 1.087175
v    141.879284 21.505407 0.848018
v    137.756638 20.874804 0.848018
v    140.364078 17.619789 0.848018
v    138.120716 18.494593 1.416666
v    142.243362 19.125196 1.416666
v    139.635922 22.380211 1.416666
v    138.493117 18.055620 1.191176
v    137.952793 17.696709 1.793949
v    137.044720 17.099981 2.544278
v    136.568043 16.777877 2.728682
v    137.773606 18.953827 1.191176
v    137.305418 18.504865 1.793949
v    136.524880 17.748926 2.544278
v    136.106502 17.354044 2.728682
v    137.841416 19.161313 1.416666
v    141.805616 18.549955 1.416666
v    140.352968 22.288732 1.416666
v    142.158584 20.838687 2.253758
v    138.194384 21.450045 2.253758
v    139.647032 17.711268 2.253758
v    141.871433 21.515662 1.940857
v    142.050431 21.567430 2.114007
v    142.839874 21.781768 2.872938
v    144.190898 22.166488 3.818495
v    145.048301 22.421837 4.105250
v    145.186602 22.457116 4.150816
v    142.403819 20.145427 1.940857
v    142.570813 20.228089 2.114007
v    143.297879 20.602969 2.872938
v    144.554247 21.231314 3.818495
v    145.359135 21.621825 4.105250
v    145.484974 21.689174 4.150816
v    142.163962 20.511898 2.253758
v    138.474702 21.618097 2.253758
v    139.361335 17.870005 2.253758
v    137.836038 19.488102 4.113040
v    141.525298 18.381903 4.113040
v    140.638665 22.129995 4.113040
v    138.105016 18.483911 3.687377
v    137.417344 18.384736 4.333007
v    136.751926 18.299895 4.955355
v    134.859426 18.034898 6.241667
v    133.088664 17.765184 6.815801
v    131.733715 17.613530 7.251065
v    137.626590 20.506376 3.687377
v    136.967368 20.286935 4.333007
v    136.334463 20.064650 4.955355
v    134.523813 19.453645 6.241667
v    132.819885 18.901401 6.815801
v    131.540595 18.429911 7.251065
v    138.595695 18.396392 4.113040
v    142.090917 19.585640 4.113040
v    139.313387 22.017967 4.113040
v    141.404305 21.603608 6.000766
v    137.909083 20.414360 6.000766
v    140.686613 17.982033 6.000766
v    140.283419 22.530963 5.433090
v    141.509369 23.702032 7.008533
v    143.450917 25.539346 8.839565
v    145.882939 27.899625 9.925868
v    147.335678 29.201637 10.548660
v    147.744176 29.572004 10.542382
v    142.471442 20.614877 5.433090
v    143.470522 21.984620 7.008533
v    145.035606 24.151609 8.839565
v    147.054370 26.873785 9.925868
v    148.153326 28.485610 10.548660
v    148.466557 28.939403 10.542382
v    141.718982 21.097521 6.000766
v    138.190028 20.939922 6.000766
v    140.090990 17.962557 6.000766
v    138.281018 18.902479 12.885860
v    141.809972 19.060078 12.885860
v    139.909010 22.037443 12.885860
v    139.368598 17.298169 12.143674
v    137.257375 16.201260 14.354522
v    134.296559 14.673837 16.597336
v    129.912626 12.351829 18.187472
v    128.092933 11.478634 18.831824
v    126.923672 10.909272 18.817018
v    126.191115 10.666098 18.808442
v    137.283338 20.564188 12.143674
v    135.399851 19.110589 14.354522
v    132.768306 17.067448 16.597336
v    128.817090 14.067702 18.187472
v    127.259225 12.784422 18.831824
v    126.250691 11.963324 18.817018
v    125.721827 11.401116 18.808442
v    138.420020 18.861621 12.885860
v    141.775855 19.200887 12.885860
v    139.804125 21.937492 12.885860
v    141.579980 21.138379 19.685705
v    138.224145 20.799113 19.685705
v    140.195875 18.062508 19.685705
v    140.091978 23.086676 18.734440
v    142.668485 24.614693 21.518040
v    146.397472 26.804756 24.442732
v    151.431162 29.844184 26.327515
v    154.117629 31.324147 27.306692
v    155.132895 31.891074 27.293453
v    156.869415 32.577892 27.272705
v    142.957063 19.110166 18.734440
v    145.222094 21.070487 21.518040
v    148.479941 23.914455 24.442732
v    152.956478 27.727168 26.327515
v    155.210732 29.807007 27.306692
v    156.069887 30.590603 27.293453
v    157.271079 32.020415 27.272705
v    141.554633 21.012481 19.685705
v    138.345849 20.840111 19.685705
v    140.099518 18.147408 19.685705
v    138.445367 18.987519 30.882667
v    141.654151 19.159889 30.882667
v    139.900482 21.852592 30.882667
v    140.238006 16.392358 29.687393
v    136.854032 14.595156 33.247915
v    132.111439 12.087202 36.859917
v    124.664774 8.056384 39.574065
v    122.177981 6.835306 40.458509
v    119.852206 5.676672 40.428927
v    116.893692 4.664814 40.394187
v    136.796670 21.676425 29.687393
v    133.784636 19.308120 33.247915
v    129.573189 15.984607 36.859917
v    122.875538 10.803702 39.574065
v    120.753203 9.023008 40.458509
v    118.753088 7.364334 40.428927
v    116.631368 5.067604 40.394187
v    138.492548 19.163909 30.882667
v    141.477802 19.112554 30.882667
v    140.029650 21.723537 30.882667
v    141.507452 20.836091 48.444344
v    138.522198 20.887446 48.444344
v    139.970350 18.276463 48.444344
v    139.405934 24.406949 46.971997
v    143.720631 26.320041 51.357873
v    147.677317 28.123901 54.288593
v    149.743432 29.029849 55.807162
v    162.341008 34.735324 60.239933
v    168.972201 37.487559 60.158175
v    171.380396 38.124779 60.130498
v    173.282981 38.620233 59.782235
v    143.423929 17.162602 46.971997
v    147.331429 19.809858 51.357873
v    150.956703 22.211245 54.288593
v    152.819224 23.484270 55.807162
v    164.329577 31.149981 60.239933
v    170.175502 35.318036 60.158175
v    171.991185 37.023541 60.130498
v    173.418889 38.375194 59.782235
v    141.326512 20.352860 48.444344
v    139.031158 20.972363 48.444344
v    139.642330 18.674777 48.444344
v    138.673488 19.647140 69.931697
v    140.968842 19.027637 69.931697
v    140.357670 21.325223 69.931697
v    140.103437 14.768513 68.153705
v    134.486912 13.799013 73.450046
v    128.315006 12.667373 77.679033
v    110.205347 9.414198 84.175934
v    100.413958 7.919835 84.063089
v    94.590985 7.864446 83.320075
v    137.490475 24.591453 68.153705
v    132.134565 22.642218 73.450046
v    126.216117 20.557749 77.679033
v    108.883593 14.383084 84.175934
v    99.643816 10.815040 84.063089
v    94.562924 7.969934 83.320075
v    139.029982 19.597335 69.931697
v    140.833727 19.361272 69.931697
v    140.136291 21.041393 69.931697
v    140.970018 20.402665 94.018022
v    139.166273 20.638728 94.018022
v    139.863709 18.958607 94.018022
v    138.542005 25.857236 91.913148
v    144.979236 27.879651 98.183217
v    151.461712 29.990656 102.777995
v    153.967822 30.766707 104.543942
v    172.781845 36.841767 110.881053
v    183.334137 39.908508 110.755885
v    186.119687 40.317382 110.724604
v    190.425537 40.932164 109.954133
v    143.118646 14.832118 91.913148
v    149.095734 17.963015 98.183217
v    155.167505 21.063409 102.777995
v    157.486468 22.290296 104.543942
v    175.071901 31.325027 110.881053
v    184.693899 36.632844 110.755885
v    186.950123 38.316862 110.724604
v    190.425537 40.932164 109.954133
v    140.584313 20.480786 94.018022
v    139.291470 20.265637 94.018022
v    140.124217 19.253577 94.018022
v    139.415687 19.519214 114.176685
v    140.708530 19.734363 114.176685
v    139.875783 20.746423 114.176685
v    143.615818 14.690947 111.733819
v    137.150242 10.272835 119.010707
v    128.080857 4.109559 126.392808
v    114.432602 -5.376154 131.720352
v    109.078766 -8.790298 133.747503
v    105.224066 -11.279689 133.695262
v    97.632658 -14.860835 133.602003
v    135.486654 24.570546 111.733819
v    129.906110 19.076830 119.010707
v    122.111630 11.364125 126.392808
v    110.175112 -0.201908 131.720352
v    105.793841 -4.798037 133.747503
v    102.608714 -8.101179 133.695262
v    97.632658 -14.860835 133.602003
v    139.660137 19.644409 114.176685
v    140.477882 19.883466 114.176685
v    139.861981 20.472126 114.176685
v    140.339863 20.355591 121.977000
v    139.522118 20.116534 121.977000
v    140.138019 19.527874 121.977000
v    136.953289 24.244124 116.493013
v    141.690999 27.841383 127.113696
v    144.071499 29.776875 131.024125
v    149.171969 33.433685 138.947399
v    150.896058 34.789340 140.517309
v    157.773112 38.595615 145.942448
v    144.377521 17.148273 116.493013
v    147.756919 22.043765 127.113696
v    149.582814 24.509331 131.024125
v    153.005302 29.769904 138.947399
v    154.281628 31.553518 140.517309
v    157.773112 38.595615 145.942448
v    142.463190 21.601210 1.087175
v    143.209568 21.881186 1.644646
v    143.981245 22.182418 1.910172
v    144.615108 22.401288 2.124254
v    145.179233 22.522974 2.117831
v    142.779187 20.952523 1.087175
v    143.459730 21.367647 1.644646
v    144.172605 21.789589 1.910172
v    144.735676 22.153785 2.124254
v    145.179233 22.522974 2.117831
v    136.568043 16.777877 2.728682
v    135.956020 16.364314 2.965444
v    135.269751 15.939242 3.223156
v    135.107576 15.837499 3.220976
v    134.402572 15.516162 3.212368
v    136.106502 17.354044 2.728682
v    135.569331 16.847040 2.965444
v    135.004722 16.270092 3.223156
v    134.870036 16.134034 3.220976
v    134.402572 15.516162 3.212368
v    145.186602 22.457116 4.150816
v    146.378970 22.761274 4.543665
v    147.072461 22.838518 4.760542
v    147.414333 22.880734 4.756715
v    145.484974 21.689174 4.150816
v    146.569913 22.269831 4.543665
v    147.133638 22.681061 4.760542
v    147.414333 22.880734 4.756715
v    131.733715 17.613530 7.251065
v    131.232084 17.557384 7.412209
v    130.875106 17.567158 7.523203
v    129.786597 17.583960 7.511107
v    131.540595 18.429911 7.251065
v    131.066975 18.255356 7.412209
v    130.752211 18.086678 7.523203
v    129.786597 17.583960 7.511107
v    147.744176 29.572004 10.542382
v    149.361695 30.690334 10.520527
v    148.466557 28.939403 10.542382
v    149.361695 30.690334 10.520527
v    126.191115 10.666098 18.808442
v    124.503383 10.105852 18.788684
v    125.721827 11.401116 18.808442
v    124.503383 10.105852 18.788684
v    156.869415 32.577892 27.272705
v    158.172348 33.093219 27.257137
v    157.271079 32.020415 27.272705
v    158.172348 33.093219 27.257137
v    116.893692 4.664814 40.394187
v    115.966236 4.347610 40.383296
v    116.631368 5.067604 40.394187
v    115.966236 4.347610 40.383296
v    173.282981 38.620233 59.782235
v    173.827490 38.762029 59.682564
v    173.418889 38.375194 59.782235
v    173.827490 38.762029 59.682564
v    94.590985 7.864446 83.320075
v    94.419780 7.863018 83.289747
v    94.373072 7.862956 83.275855
v    94.562924 7.969934 83.320075
v    94.413637 7.886110 83.289747
v    94.373072 7.862956 83.275855
mtllib usm_40_Beer_2018-08-07_3.mtl
usemtl APPID_647739808_2676410530672 
o vid_3 
f 3 2 1
f 4 5 6
f 1 6 5
f 1 5 3
f 3 5 4
f 4 2 3
f 2 4 6
f 6 1 2
usemtl APPID_647743168_2676410532208 
o vid_4 
f 7 10 11
f 7 11 8
f 8 11 12
f 8 12 9
usemtl APPID_647739808_2676410530672 
o vid_5 
f 15 14 13
f 16 17 18
f 13 18 17
f 13 17 15
f 15 17 16
f 16 14 15
f 14 16 18
f 18 13 14
usemtl APPID_647743168_2676410532208 
o vid_6 
f 19 23 24
f 20 24 25
f 19 24 20
f 20 25 21
f 21 25 26
f 21 26 22
usemtl APPID_647739808_2676410530672 
o vid_7 
f 29 28 27
f 30 31 32
f 27 32 31
f 27 31 29
f 29 31 30
f 30 28 29
f 28 30 32
f 32 27 28
usemtl APPID_647743168_2676410532208 
o vid_8 
f 33 39 40
f 34 40 41
f 35 41 42
f 36 42 43
f 33 40 34
f 34 41 35
f 35 42 36
f 36 43 37
f 37 43 44
f 37 44 38
usemtl APPID_647739808_2676410530672 
o vid_9 
f 47 46 45
f 48 49 50
f 45 50 49
f 45 49 47
f 47 49 48
f 48 46 47
f 46 48 50
f 50 45 46
usemtl APPID_647743168_2676410532208 
o vid_10 
f 51 57 58
f 52 58 59
f 53 59 60
f 54 60 61
f 51 58 52
f 52 59 53
f 53 60 54
f 54 61 55
f 55 61 62
f 55 62 56
usemtl APPID_647739808_2676410530672 
o vid_11 
f 65 64 63
f 66 67 68
f 63 68 67
f 63 67 65
f 65 67 66
f 66 64 65
f 64 66 68
f 68 63 64
usemtl APPID_647743168_2676410532208 
o vid_12 
f 69 75 76
f 70 76 77
f 71 77 78
f 72 78 79
f 69 76 70
f 70 77 71
f 71 78 72
f 72 79 73
f 73 79 80
f 73 80 74
usemtl APPID_647739808_2676410530672 
o vid_13 
f 83 82 81
f 84 85 86
f 81 86 85
f 81 85 83
f 83 85 84
f 84 82 83
f 82 84 86
f 86 81 82
usemtl APPID_647743168_2676410532208 
o vid_14 
f 87 94 95
f 88 95 96
f 89 96 97
f 90 97 98
f 91 98 99
f 87 95 88
f 88 96 89
f 89 97 90
f 90 98 91
f 91 99 92
f 92 99 100
f 92 100 93
usemtl APPID_647739808_2676410530672 
o vid_15 
f 103 102 101
f 104 105 106
f 101 106 105
f 101 105 103
f 103 105 104
f 104 102 103
f 102 104 106
f 106 101 102
usemtl APPID_647743168_2676410532208 
o vid_16 
f 107 114 115
f 108 115 116
f 109 116 117
f 110 117 118
f 111 118 119
f 107 115 108
f 108 116 109
f 109 117 110
f 110 118 111
f 111 119 112
f 112 119 120
f 112 120 113
usemtl APPID_647739808_2676410530672 
o vid_17 
f 123 122 121
f 124 125 126
f 121 126 125
f 121 125 123
f 123 125 124
f 124 122 123
f 122 124 126
f 126 121 122
usemtl APPID_647743168_2676410532208 
o vid_18 
f 127 134 135
f 128 135 136
f 129 136 137
f 130 137 138
f 131 138 139
f 127 135 128
f 128 136 129
f 129 137 130
f 130 138 131
f 131 139 132
f 132 139 140
f 132 140 133
usemtl APPID_647739808_2676410530672 
o vid_19 
f 143 142 141
f 144 145 146
f 141 146 145
f 141 145 143
f 143 145 144
f 144 142 143
f 142 144 146
f 146 141 142
usemtl APPID_647743168_2676410532208 
o vid_20 
f 147 155 156
f 148 156 157
f 149 157 158
f 150 158 159
f 151 159 160
f 152 160 161
f 147 156 148
f 148 157 149
f 149 158 150
f 150 159 151
f 151 160 152
f 152 161 153
f 153 161 162
f 153 162 154
usemtl APPID_647739808_2676410530672 
o vid_21 
f 165 164 163
f 166 167 168
f 163 168 167
f 163 167 165
f 165 167 166
f 166 164 165
f 164 166 168
f 168 163 164
usemtl APPID_647743168_2676410532208 
o vid_22 
f 169 175 176
f 170 176 177
f 171 177 178
f 172 178 179
f 169 176 170
f 170 177 171
f 171 178 172
f 172 179 173
f 173 179 180
f 173 180 174
usemtl APPID_647739808_2676410530672 
o vid_23 
f 183 182 181
f 184 185 186
f 181 186 185
f 181 185 183
f 183 185 184
f 184 182 183
f 182 184 186
f 186 181 182
usemtl APPID_647743168_2676410532208 
o vid_24 
f 187 195 196
f 188 196 197
f 189 197 198
f 190 198 199
f 191 199 200
f 192 200 201
f 187 196 188
f 188 197 189
f 189 198 190
f 190 199 191
f 191 200 192
f 192 201 193
f 193 201 202
usemtl APPID_647739808_2676410530672 
o vid_25 
f 205 204 203
f 206 207 208
f 203 208 207
f 203 207 205
f 205 207 206
f 206 204 205
f 204 206 208
f 208 203 204
usemtl APPID_647743168_2676410532208 
o vid_26 
f 209 216 217
f 210 217 218
f 211 218 219
f 212 219 220
f 213 220 221
f 209 217 210
f 210 218 211
f 211 219 212
f 212 220 213
f 213 221 214
f 214 221 222
usemtl APPID_647739808_2676410530672 
o vid_27 
f 225 224 223
f 226 227 228
f 223 228 227
f 223 227 225
f 225 227 226
f 226 224 225
f 224 226 228
f 228 223 224
usemtl APPID_647743168_2676410532208 
o vid_28 
f 229 235 236
f 230 236 237
f 231 237 238
f 232 238 239
f 229 236 230
f 230 237 231
f 231 238 232
f 232 239 233
f 233 239 240
usemtl APPID_647742496_2676410532720 
o vid_10000004 
f 241 246 247
f 242 247 248
f 243 248 249
f 241 247 242
f 242 248 243
f 243 249 244
f 244 249 250
usemtl APPID_647742496_2676410532720 
o vid_10000006 
f 251 256 257
f 252 257 258
f 253 258 259
f 251 257 252
f 252 258 253
f 253 259 254
f 254 259 260
usemtl APPID_647742496_2676410532720 
o vid_10000008 
f 261 265 266
f 262 266 267
f 261 266 262
f 262 267 263
f 263 267 268
usemtl APPID_647742496_2676410532720 
o vid_10000010 
f 269 273 274
f 270 274 275
f 269 274 270
f 270 275 271
f 271 275 276
usemtl APPID_647742496_2676410532720 
o vid_10000012 
f 277 279 280
f 277 280 278
f 277 279 280
usemtl APPID_647742496_2676410532720 
o vid_10000014 
f 281 283 284
f 281 284 282
f 281 283 284
usemtl APPID_647742496_2676410532720 
o vid_10000016 
f 285 287 288
f 285 288 286
f 285 287 288
usemtl APPID_647742496_2676410532720 
o vid_10000018 
f 289 291 292
f 289 292 290
f 289 291 292
usemtl APPID_647742496_2676410532720 
o vid_10000020 
f 293 295 296
f 293 296 294
f 293 295 296
usemtl APPID_647742496_2676410532720 
o vid_10000022 
f 297 300 301
f 297 301 298
f 298 301 302
