# File generated by PlantGL - Fri Sep  4 14:44:03 2026
v    98.201987 19.124129 0.000000
v    101.657533 18.880811 0.000000
v    100.140480 21.995060 0.000000
v    101.798013 20.875871 0.331061
v    98.342467 21.119189 0.331061
v    99.859520 18.004940 0.331061
v    101.395917 21.444246 -0.058131
v    102.514377 21.869096 1.075520
v    103.831208 22.357604 1.955945
v    104.087767 22.456340 2.025311
v    105.194645 22.849440 2.320930
v    106.022945 23.036885 2.530311
v    106.420715 23.127741 2.445970
v    101.997697 20.208895 -0.058131
v    103.021677 20.827697 1.075520
v    104.218062 21.563460 1.955945
v    104.453958 21.704614 2.025311
v    105.445797 22.333867 2.320930
v    106.103979 22.870537 2.530311
v    106.420715 23.127741 2.445970
v    101.482757 21.187767 0.331061
v    98.229985 20.690221 0.331061
v    100.287258 18.122011 0.331061
v    98.517243 18.812233 0.718770
v    101.770015 19.309779 0.718770
v    99.712742 21.877989 0.718770
v    99.286367 18.101909 0.178813
v    97.902577 17.185172 1.751616
v    97.002707 16.572145 2.435398
v    96.283786 16.104187 2.973098
v    94.955346 15.215761 3.376354
v    93.633054 14.380601 3.769961
v    91.994719 13.587343 3.393321
v    97.991913 19.717848 0.178813
v    96.795253 18.567507 1.751616
v    96.000600 17.823131 2.435398
v    95.387013 17.223679 2.973098
v    94.230062 16.121174 3.376354
v    93.126434 15.013043 3.769961
v    91.994719 13.587343 3.393321
v    98.566596 19.443071 0.718770
v    101.199017 19.037100 0.718770
v    100.234388 21.519829 0.718770
v    101.433404 20.556929 1.487000
v    98.800983 20.962900 1.487000
v    99.765612 18.480171 1.487000
v    100.717043 21.816693 0.755825
v    102.877052 22.438520 2.885613
v    104.682876 22.983751 4.070220
v    105.404215 23.185114 4.539665
v    107.934455 23.925483 5.204886
v    109.524145 24.345879 5.618724
v    112.424494 24.827362 5.007938
v    101.755490 19.143975 0.755825
v    103.768712 20.143597 2.885613
v    105.468945 20.960595 4.070220
v    106.137012 21.299067 4.539665
v    108.503380 22.461205 5.204886
v    109.959893 23.224368 5.618724
v    112.424494 24.827362 5.007938
v    101.166545 20.275953 1.487000
v    99.177745 20.872281 1.487000
v    99.655710 18.851766 1.487000
v    98.833455 19.724047 2.857581
v    100.822255 19.127719 2.857581
v    100.344290 21.148234 2.857581
v    99.550710 17.906248 1.891196
v    96.609811 17.485801 4.706111
v    93.645247 17.022799 6.590403
v    89.145415 16.365502 7.918236
v    87.566765 16.174774 8.318431
v    86.238190 16.012909 8.036121
v    83.098189 16.001779 7.387049
v    98.660245 21.670543 1.891196
v    95.842663 20.728788 4.706111
v    92.984860 19.814475 6.590403
v    88.667453 18.386004 7.918236
v    87.170665 17.849219 8.318431
v    85.910379 17.398674 8.036121
v    83.098189 16.001779 7.387049
v    99.418495 19.335966 2.857581
v    100.865823 19.828419 2.857581
v    99.715682 20.835616 2.857581
v    100.581505 20.664034 4.464214
v    99.134177 20.171581 4.464214
v    100.284318 19.164384 4.464214
v    98.310858 22.173154 3.217560
v    99.739828 23.535460 5.088296
v    101.084975 24.817235 6.848853
v    104.295773 27.956929 9.669014
v    105.974092 29.630583 10.267928
v    109.519485 33.038560 11.508812
v    113.076471 36.326502 10.486477
v    115.987274 38.416967 9.745693
v    116.330678 38.648376 9.509202
v    102.377021 18.612351 3.217560
v    103.538879 20.208571 5.088296
v    104.631970 21.711075 6.848853
v    107.320584 25.308054 9.669014
v    108.758168 27.192523 10.267928
v    111.668574 31.156569 11.508812
v    114.458463 35.116269 10.486477
v    116.146602 38.277442 9.745693
v    116.330678 38.648376 9.509202
v    100.496914 20.317266 4.464214
v    99.476783 20.271708 4.464214
v    100.026303 19.411027 4.464214
v    99.503086 19.682734 7.303000
v    100.523217 19.728292 7.303000
v    99.973697 20.588973 7.303000
v    101.350209 17.669126 4.099422
v    98.765958 16.447933 8.824164
v    98.228423 16.215990 9.787137
v    94.194838 14.292978 14.654604
v    90.366116 12.476930 17.077559
v    86.384812 11.193329 19.382849
v    85.979005 11.047995 19.408376
v    98.453737 22.205699 4.099422
v    96.258450 20.375294 8.824164
v    95.821842 19.985275 9.787137
v    92.380006 17.135443 14.654604
v    89.121409 14.426440 17.077559
v    86.281613 11.354964 19.382849
v    85.979005 11.047995 19.408376
mtllib usm_29_2.5D_2018-08-07_2.mtl
usemtl APPID_2417349808_1742050284160 
o vid_3 
f 3 2 1
f 4 5 6
f 1 6 5
f 1 5 3
f 3 5 4
f 4 2 3
f 2 4 6
f 6 1 2
usemtl APPID_2417347792_1742050285824 
o vid_4 
f 7 14 15
f 8 15 16
f 9 16 17
f 10 17 18
f 11 18 19
f 7 15 8
f 8 16 9
f 9 17 10
f 10 18 11
f 11 19 12
f 12 19 20
usemtl APPID_2417349808_1742050284160 
o vid_5 
f 23 22 21
f 24 25 26
f 21 26 25
f 21 25 23
f 23 25 24
f 24 22 23
f 22 24 26
f 26 21 22
usemtl APPID_2417347792_1742050285824 
o vid_6 
f 27 34 35
f 28 35 36
f 29 36 37
f 30 37 38
f 31 38 39
f 27 35 28
f 28 36 29
f 29 37 30
f 30 38 31
f 31 39 32
f 32 39 40
usemtl APPID_2417349808_1742050284160 
o vid_7 
f 43 42 41
f 44 45 46
f 41 46 45
f 41 45 43
f 43 45 44
f 44 42 43
f 42 44 46
f 46 41 42
usemtl APPID_2417347792_1742050285824 
o vid_8 
f 47 54 55
f 48 55 56
f 49 56 57
f 50 57 58
f 51 58 59
f 47 55 48
f 48 56 49
f 49 57 50
f 50 58 51
f 51 59 52
f 52 59 60
usemtl APPID_2417349808_1742050284160 
o vid_9 
f 63 62 61
f 64 65 66
f 61 66 65
f 61 65 63
f 63 65 64
f 64 62 63
f 62 64 66
f 66 61 62
usemtl APPID_2417347792_1742050285824 
o vid_10 
f 67 74 75
f 68 75 76
f 69 76 77
f 70 77 78
f 71 78 79
f 67 75 68
f 68 76 69
f 69 77 70
f 70 78 71
f 71 79 72
f 72 79 80
usemtl APPID_2417349808_1742050284160 
o vid_11 
f 83 82 81
f 84 85 86
f 81 86 85
f 81 85 83
f 83 85 84
f 84 82 83
f 82 84 86
f 86 81 82
usemtl APPID_2417347792_1742050285824 
o vid_12 
f 87 96 97
f 88 97 98
f 89 98 99
f 90 99 100
f 91 100 101
f 92 101 102
f 93 102 103
f 87 97 88
f 88 98 89
f 89 99 90
f 90 100 91
f 91 101 92
f 92 102 93
f 93 103 94
f 94 103 104
usemtl APPID_2417349808_1742050284160 
o vid_13 
f 107 106 105
f 108 109 110
f 105 110 109
f 105 109 107
f 107 109 108
f 108 106 107
f 106 108 110
f 110 105 106
usemtl APPID_2417347792_1742050285824 
o vid_14 
f 111 118 119
f 112 119 120
f 113 120 121
f 114 121 122
f 115 122 123
f 111 119 112
f 112 120 113
f 113 121 114
f 114 122 115
f 115 123 116
f 116 123 124
