# File generated by PlantGL - Fri Sep  4 14:44:00 2026
v    377.752484 18.905161 0.000000
v    382.071916 18.601013 0.000000
v    380.175600 22.493825 0.000000
v    382.247516 21.094839 0.848509
v    377.928084 21.398987 0.848509
v    379.824400 17.506175 0.848509
v    382.075626 21.425878 0.715515
v    382.456269 21.571002 1.094064
v    382.402223 20.755429 0.715515
v    382.751134 20.965695 1.094064
v    381.879284 21.505407 0.848509
v    377.756638 20.874804 0.848509
v    380.364078 17.619789 0.848509
v    378.120716 18.494593 1.417165
v    382.243362 19.125196 1.417165
v    379.635922 22.380211 1.417165
v    378.472219 18.077861 1.225154
v    378.177628 17.882178 1.553794
v    377.790749 18.928578 1.225154
v    377.535487 18.683798 1.553794
v    377.841416 19.161313 1.417165
v    381.805616 18.549955 1.417165
v    380.352968 22.288732 1.417165
v    382.158584 20.838687 2.253766
v    378.194384 21.450045 2.253766
v    379.647032 17.711268 2.253766
v    381.886401 21.485361 1.982307
v    382.276996 21.598325 2.360142
v    382.394403 20.177885 1.982307
v    382.758804 20.358263 2.360142
v    382.163962 20.511898 2.253766
v    378.474702 21.618097 2.253766
v    379.361335 17.870005 2.253766
v    377.836038 19.488102 4.112548
v    381.525298 18.381903 4.112548
v    380.638665 22.129995 4.112548
v    378.090684 18.528937 3.736736
v    377.059587 18.380234 4.704796
v    377.633951 20.459700 3.736736
v    376.645511 20.130671 4.704796
v    378.595695 18.396392 4.112548
v    382.090917 19.585640 4.112548
v    379.313387 22.017967 4.112548
v    381.404305 21.603608 5.999272
v    377.909083 20.414360 5.999272
v    380.686613 17.982033 5.999272
v    380.327780 22.497675 5.489799
v    380.686080 22.839935 5.950243
v    382.432592 20.654457 5.489799
v    382.724587 21.054783 5.950243
v    381.718982 21.097521 5.999272
v    378.190028 20.939922 5.999272
v    380.090990 17.962557 5.999272
v    378.281018 18.902479 11.505015
v    381.809972 19.060078 11.505015
v    379.909010 22.037443 11.505015
v    379.259997 17.459471 10.828685
v    377.362483 16.473597 12.815739
v    377.288407 16.435907 12.879267
v    377.383962 20.397793 10.828685
v    375.691132 19.091335 12.815739
v    375.625770 19.039997 12.879267
v    378.420020 18.861621 11.505015
v    381.775855 19.200887 11.505015
v    379.804125 21.937492 11.505015
v    381.579980 21.138379 19.658889
v    378.224145 20.799113 19.658889
v    380.195875 18.062508 19.658889
v    380.080364 23.111655 18.779699
v    382.504480 24.549296 21.398660
v    382.674244 24.652379 21.532515
v    382.977081 19.091242 18.779699
v    385.108144 20.935617 21.398660
v    385.259664 21.064020 21.532515
v    381.554633 21.012481 19.658889
v    378.345849 20.840111 19.658889
v    380.099518 18.147408 19.658889
v    378.445367 18.987519 30.873903
v    381.654151 19.159889 30.873903
v    379.900482 21.852592 30.873903
v    380.197497 16.444537 29.754741
v    377.029008 14.761777 33.088535
v    374.811472 13.554306 34.790273
v    372.602084 12.392538 36.470531
v    371.092803 11.575577 37.020631
v    376.828013 21.618277 29.754741
v    374.007779 19.400781 33.088535
v    372.006763 17.860850 34.790273
v    370.050842 16.309891 36.470531
v    368.693371 15.259832 37.020631
v    378.458123 19.144816 30.873903
v    381.511550 19.092287 30.873903
v    380.030327 21.762897 30.873903
v    381.541877 20.855184 48.397355
v    378.488450 20.907713 48.397355
v    379.969673 18.237103 48.397355
v    379.477481 24.370566 47.002309
v    383.565649 26.183217 51.157918
v    389.062736 28.689348 55.229615
v    399.312483 33.328659 58.911302
v    383.430947 17.242561 47.002309
v    387.133297 19.750831 51.157918
v    392.169949 23.087117 55.229615
v    401.532703 29.325655 58.911302
v    381.614895 20.429572 48.397355
v    378.820532 21.183754 48.397355
v    379.564573 18.386674 48.397355
v    378.385105 19.570428 69.758548
v    381.179468 18.816246 69.758548
v    380.435427 21.613326 69.758548
v    379.788202 14.771736 68.055721
v    374.411345 13.834840 73.128159
v    366.901446 12.457875 78.273937
v    351.162930 9.610395 83.400612
v    348.127019 9.049391 83.365335
v    377.218504 24.432029 68.055721
v    372.086786 22.573580 73.128159
v    364.885293 20.037224 78.273937
v    349.812096 14.688599 83.400612
v    346.898694 13.667049 83.365335
v    378.541706 19.394647 69.758548
v    381.253398 19.039757 69.758548
v    380.204896 21.565597 69.758548
v    381.458294 20.605353 89.607258
v    378.746602 20.960243 89.607258
v    379.795104 18.434403 89.607258
v    379.244046 25.557998 87.571909
v    385.468648 27.513611 93.634872
v    387.520703 28.181858 95.089368
v    394.185123 30.245586 99.785496
v    408.660880 34.919817 104.661354
v    411.891864 35.823212 105.732395
v    383.402387 15.540564 87.571909
v    389.182046 18.568044 93.634872
v    391.104090 19.549486 95.089368
v    397.270836 22.812109 99.785496
v    410.801300 29.763551 104.661354
v    413.722225 31.413878 105.732395
v    381.148136 20.944713 89.607258
v    378.607786 20.521958 89.607258
v    380.244078 18.533328 89.607258
v    378.851864 19.055287 113.499923
v    381.392214 19.478042 113.499923
v    379.755922 21.466672 113.499923
v    382.865483 14.446842 111.117641
v    376.933820 10.393569 117.793619
v    367.700512 4.146453 125.413080
v    355.947632 -4.021951 130.000771
v    349.723583 -7.991029 132.357416
v    375.102620 23.881265 111.117641
v    369.982906 18.841208 117.793619
v    362.074587 10.983795 125.413080
v    351.795729 1.023972 130.000771
v    346.702327 -4.319212 132.357416
v    379.036323 18.991726 113.499923
v    381.355030 19.669568 113.499923
v    379.608648 21.338706 113.499923
v    380.963677 21.008274 130.401795
v    378.644970 20.330432 130.401795
v    380.391352 18.661294 130.401795
v    375.885333 25.590594 127.671350
v    380.691456 29.797018 133.606400
v    382.499993 31.328196 135.804888
v    391.757184 39.363319 144.056025
v    402.219452 48.667520 148.543801
v    410.675282 55.606520 152.035880
v    385.770895 16.142281 127.671350
v    389.755742 21.133654 133.606400
v    391.203594 23.009564 135.804888
v    398.812001 32.620544 144.056025
v    407.633709 43.492742 148.543801
v    414.183340 52.253626 152.035880
v    380.912312 20.929805 130.401795
v    378.738610 20.325183 130.401795
v    380.349079 18.745013 130.401795
v    379.087688 19.070195 146.708709
v    381.261390 19.674817 146.708709
v    379.650921 21.254987 146.708709
v    384.853527 13.721337 143.644207
v    377.789951 7.700905 152.268714
v    366.863522 -1.525876 162.033468
v    352.907370 -13.613169 167.951425
v    344.811050 -20.081332 171.259712
v    342.291225 -22.118235 171.222824
v    341.971778 -22.312849 171.218668
v    373.630297 24.733415 143.644207
v    367.745094 17.556780 152.268714
v    358.727478 6.457098 162.033468
v    346.907402 -7.726083 167.951425
v    340.594161 -15.943779 171.259712
v    338.605479 -18.501832 171.222824
v    338.416966 -18.824917 171.218668
v    379.188946 19.101354 146.708709
v    381.183778 19.746930 146.708709
v    379.627277 21.151717 146.708709
v    380.811054 20.898646 158.167100
v    378.816222 20.253070 158.167100
v    380.372723 18.848283 158.167100
v    374.324892 26.426589 154.799097
v    380.803337 32.432082 163.007916
v    393.397712 43.978249 175.009586
v    406.874757 56.671400 180.943753
v    416.815926 65.316224 185.149574
v    420.434180 68.001242 185.098948
v    386.972917 15.011381 154.799097
v    392.284892 22.069647 163.007916
v    402.483505 35.778058 175.009586
v    413.732890 50.481737 180.943753
v    421.316499 61.254327 185.149574
v    423.617686 65.128036 185.098948
v    381.097812 20.213714 158.167100
v    379.266012 20.843876 158.167100
v    379.636176 18.942409 158.167100
v    378.902188 19.786286 164.589028
v    380.733988 19.156124 164.589028
v    380.363824 21.057591 164.589028
v    380.784511 11.480180 160.964337
v    369.197021 10.436633 171.761686
v    353.004241 8.826614 182.715148
v    342.730279 7.680084 186.028737
v    326.862614 6.544489 191.107390
v    321.026762 6.938360 192.925362
v    377.531184 28.191932 160.964337
v    366.398436 24.812462 171.761686
v    350.784209 20.230517 182.715148
v    340.830432 17.439252 186.028737
v    325.695550 12.539490 191.107390
v    320.433628 9.985182 192.925362
v    379.316252 19.435930 164.589028
v    380.830373 19.689892 164.589028
v    379.853375 20.874178 164.589028
v    380.683748 20.564070 168.430105
v    379.169627 20.310108 168.430105
v    380.146625 19.125822 168.430105
v    375.071845 26.935305 164.610171
v    385.301926 33.700941 175.989113
v    399.488414 43.336112 187.532577
v    403.136526 45.878516 188.957871
v    417.260533 54.910804 194.310083
v    427.055463 59.404428 197.659540
v    385.872179 13.843484 164.610171
v    394.458919 22.601126 175.989113
v    406.614882 34.697635 187.532577
v    409.804338 37.796007 188.957871
v    421.356532 49.945765 194.310083
v    427.629969 58.708032 197.659540
v    380.528461 20.396838 168.430105
v    379.392098 20.259242 168.430105
v    380.079441 19.343921 168.430105
v    379.471539 19.603162 171.302305
v    380.607902 19.740758 171.302305
v    379.920559 20.656079 171.302305
v    385.074534 12.613497 167.360214
v    374.209461 6.120923 179.103043
v    359.130480 -3.143398 191.015655
v    353.200252 -6.885883 193.263363
v    338.214097 -15.531636 198.786734
v    326.222800 -20.382940 202.807216
v    374.321568 26.933018 167.360214
v    365.056737 18.309433 179.103043
v    351.955028 6.412015 191.015655
v    346.707313 1.760642 193.263363
v    334.225521 -10.220125 198.786734
v    326.222800 -20.382940 202.807216
v    379.619837 19.733733 171.302305
v    380.420676 19.803903 171.302305
v    379.959487 20.462365 171.302305
v    380.380163 20.266267 172.797855
v    379.579324 20.196097 172.797855
v    380.040513 19.537635 172.797855
v    375.383825 26.900812 168.814183
v    386.574621 33.094913 180.680875
v    400.495358 41.025345 191.465095
v    415.693864 49.097633 197.615280
v    427.967251 53.596396 201.678170
v    384.907572 13.303283 168.814183
v    394.553401 21.703212 180.680875
v    406.764024 32.075258 191.465095
v    419.544670 43.599645 197.615280
v    427.967251 53.596396 201.678170
v    380.241113 20.172016 172.797855
v    379.730474 20.122802 172.797855
v    380.028414 19.705182 172.797855
v    379.758887 19.827984 173.565000
v    380.269526 19.877198 173.565000
v    379.971586 20.294818 173.565000
v    383.982432 14.155375 165.673117
v    374.042055 8.700492 178.693506
v    371.183663 7.068863 181.460105
v    359.483015 1.132665 192.420537
v    346.926331 -3.595546 198.183545
v    375.769369 25.667553 165.673117
v    367.376728 18.043223 178.693506
v    364.903767 15.871338 181.460105
v    355.483206 6.739161 192.420537
v    346.926331 -3.595546 198.183545
v    382.456269 21.571002 1.094064
v    382.824660 21.715651 1.365640
v    383.030337 21.793100 1.513577
v    384.193997 22.247347 1.913980
v    384.787394 22.456730 1.906815
v    385.027081 22.506711 1.904095
v    385.231734 22.548549 1.867093
v    382.751134 20.965695 1.094064
v    383.092118 21.166605 1.365640
v    383.279887 21.280817 1.513577
v    384.354876 21.917090 1.913980
v    384.885532 22.255269 1.906815
v    385.072637 22.413192 1.904095
v    385.231734 22.548549 1.867093
v    378.177628 17.882178 1.553794
v    377.959509 17.737292 1.797122
v    377.439459 17.383993 2.220848
v    377.245252 17.256138 2.377359
v    375.750925 16.246378 2.955442
v    374.897372 15.705253 2.943930
v    374.671355 15.602236 2.941170
v    374.302100 15.435679 2.869415
v    377.535487 18.683798 1.553794
v    377.346488 18.502561 1.797122
v    376.888200 18.072160 2.220848
v    376.721041 17.910540 2.377359
v    375.409474 16.672631 2.955442
v    374.695099 15.957761 2.943930
v    374.545235 15.759678 2.941170
v    374.302100 15.435679 2.869415
v    382.276996 21.598325 2.360142
v    382.722341 21.727124 2.790938
v    383.894384 22.061006 3.611261
v    385.531120 22.548453 4.158661
v    386.350248 22.757402 4.428539
v    386.701676 22.849199 4.424404
v    387.627380 22.963510 4.414040
v    382.758804 20.358263 2.360142
v    383.174285 20.563926 2.790938
v    384.264298 21.108934 3.611261
v    385.800785 21.854399 4.158661
v    386.546111 22.253296 4.428539
v    386.867330 22.422846 4.424404
v    387.627380 22.963510 4.414040
v    377.059587 18.380234 4.704796
v    375.228387 18.119040 5.991881
v    372.586364 17.716620 6.848504
v    371.730849 17.620865 7.123330
v    370.908848 17.524079 7.113907
v    369.617713 17.544010 7.099560
v    376.645511 20.130671 4.704796
v    374.891368 19.543731 5.991881
v    372.349064 18.719769 6.848504
v    371.541319 18.422070 7.123330
v    370.763076 18.140308 7.113907
v    369.617713 17.544010 7.099560
v    380.686080 22.839935 5.950243
v    381.508746 23.625774 7.007435
v    382.272936 24.371118 7.726881
v    383.157422 25.209082 8.547013
v    386.324755 28.282980 9.961754
v    388.051235 29.845408 10.058615
v    389.207472 30.642968 10.043009
v    389.488631 30.835284 9.982668
v    382.724587 21.054783 5.950243
v    383.395013 21.973940 7.007435
v    384.033014 22.829790 7.726881
v    384.746953 23.817104 8.547013
v    387.376080 27.362318 9.961754
v    388.697058 29.279851 10.058615
v    389.335092 30.531210 10.043009
v    389.488631 30.835284 9.982668
v    377.288407 16.435907 12.879267
v    374.635763 15.071518 14.887166
v    370.931461 13.109485 16.230786
v    368.975522 12.170911 16.923384
v    368.221639 11.803814 16.913837
v    366.016106 11.071683 16.888018
v    375.625770 19.039997 12.879267
v    373.271803 17.207808 14.887166
v    369.933134 14.673105 16.230786
v    368.258626 13.293742 16.923384
v    367.608372 12.764338 16.913837
v    366.016106 11.071683 16.888018
v    382.674244 24.652379 21.532515
v    384.770727 25.925393 23.185557
v    385.885024 26.580059 24.055486
v    392.954268 30.848589 26.702450
v    396.749439 32.980956 26.652875
v    398.069558 33.503081 26.637102
v    399.538128 34.077267 26.357784
v    385.259664 21.064020 21.532515
v    387.130854 22.649724 23.185557
v    388.104583 23.499486 24.055486
v    394.391369 28.854007 26.702450
v    397.615437 31.779018 26.652875
v    398.528595 32.865974 26.637102
v    399.538128 34.077267 26.357784
v    371.092803 11.575577 37.020631
v    363.893513 7.678661 39.644617
v    359.304352 5.396398 39.788588
v    356.596243 4.470182 39.756788
v    355.678818 4.160424 39.585262
v    368.693371 15.259832 37.020631
v    362.218212 10.251034 39.644617
v    358.275224 6.976593 39.788588
v    356.333084 4.874255 39.756788
v    355.678818 4.160424 39.585262
v    399.312483 33.328659 58.911302
v    401.194835 34.181181 59.573655
v    403.645444 35.302532 59.542861
v    409.564416 37.744664 59.469965
v    412.794966 38.589169 58.878335
v    414.120111 38.924328 58.471797
v    401.532703 29.325655 58.911302
v    403.252600 30.471079 59.573655
v    405.501436 31.956222 59.542861
v    410.707181 35.684286 59.469965
v    413.134137 37.977652 58.878335
v    414.120111 38.924328 58.471797
v    348.127019 9.049391 83.365335
v    347.442490 8.922897 83.357381
v    340.199239 7.865913 83.274045
v    336.141000 7.762751 82.551888
v    333.985708 7.759915 81.910855
v    346.898694 13.667049 83.365335
v    346.241787 13.436712 83.357381
v    339.430684 10.755151 83.274045
v    335.857552 8.828321 82.551888
v    333.985708 7.759915 81.910855
v    411.891864 35.823212 105.732395
v    412.437556 35.975789 105.913287
v    417.495210 37.421287 105.853401
v    424.414531 38.436933 105.775699
v    413.722225 31.413878 105.732395
v    414.215549 31.692607 105.913287
v    418.810058 34.253822 105.853401
v    424.414531 38.436933 105.775699
v    349.723583 -7.991029 132.357416
v    349.121529 -8.374959 132.585375
v    347.040974 -9.718596 132.557178
v    339.637836 -13.210928 132.466232
v    346.702327 -4.319212 132.357416
v    346.209641 -4.836060 132.585375
v    344.490484 -6.618914 132.557178
v    339.637836 -13.210928 132.466232
v    410.675282 55.606520 152.035880
v    411.257998 56.084707 152.276529
v    419.440538 61.265764 152.168811
v    414.183340 52.253626 152.035880
v    414.634695 52.857365 152.276529
v    419.440538 61.265764 152.168811
v    341.971778 -22.312849 171.218668
v    333.298929 -27.596543 171.105833
v    338.416966 -18.824917 171.218668
v    333.298929 -27.596543 171.105833
v    420.434180 68.001242 185.098948
v    427.706097 72.858249 185.001787
v    423.617686 65.128036 185.098948
v    427.706097 72.858249 185.001787
v    321.026762 6.938360 192.925362
v    318.771404 7.090578 193.627946
v    314.814818 7.310207 193.583918
v    320.433628 9.985182 192.925362
v    318.400075 8.998029 193.627946
v    314.814818 7.310207 193.583918
v    427.055463 59.404428 197.659540
v    428.653432 60.137529 198.205978
v    427.629969 58.708032 197.659540
v    428.653432 60.137529 198.205978
mtllib usm_30_2.5D_2018-08-27_9.mtl
usemtl APPID_1806757024_2591700228048 
o vid_3 
f 3 2 1
f 4 5 6
f 1 6 5
f 1 5 3
f 3 5 4
f 4 2 3
f 2 4 6
f 6 1 2
usemtl APPID_1806753328_2591700228432 
o vid_4 
f 7 9 10
f 7 10 8
f 7 9 10
f 7 10 8
usemtl APPID_1806757024_2591700228048 
o vid_5 
f 13 12 11
f 14 15 16
f 11 16 15
f 11 15 13
f 13 15 14
f 14 12 13
f 12 14 16
f 16 11 12
usemtl APPID_1806753328_2591700228432 
o vid_6 
f 17 19 20
f 17 20 18
f 17 19 20
f 17 20 18
usemtl APPID_1806757024_2591700228048 
o vid_7 
f 23 22 21
f 24 25 26
f 21 26 25
f 21 25 23
f 23 25 24
f 24 22 23
f 22 24 26
f 26 21 22
usemtl APPID_1806753328_2591700228432 
o vid_8 
f 27 29 30
f 27 30 28
f 27 29 30
f 27 30 28
usemtl APPID_1806757024_2591700228048 
o vid_9 
f 33 32 31
f 34 35 36
f 31 36 35
f 31 35 33
f 33 35 34
f 34 32 33
f 32 34 36
f 36 31 32
usemtl APPID_1806753328_2591700228432 
o vid_10 
f 37 39 40
f 37 40 38
f 37 39 40
f 37 40 38
usemtl APPID_1806757024_2591700228048 
o vid_11 
f 43 42 41
f 44 45 46
f 41 46 45
f 41 45 43
f 43 45 44
f 44 42 43
f 42 44 46
f 46 41 42
usemtl APPID_1806753328_2591700228432 
o vid_12 
f 47 49 50
f 47 50 48
f 47 49 50
f 47 50 48
usemtl APPID_1806757024_2591700228048 
o vid_13 
f 53 52 51
f 54 55 56
f 51 56 55
f 51 55 53
f 53 55 54
f 54 52 53
f 52 54 56
f 56 51 52
usemtl APPID_1806753328_2591700228432 
o vid_14 
f 57 60 61
f 57 61 58
f 58 61 62
f 58 62 59
usemtl APPID_1806757024_2591700228048 
o vid_15 
f 65 64 63
f 66 67 68
f 63 68 67
f 63 67 65
f 65 67 66
f 66 64 65
f 64 66 68
f 68 63 64
usemtl APPID_1806753328_2591700228432 
o vid_16 
f 69 72 73
f 69 73 70
f 70 73 74
f 70 74 71
usemtl APPID_1806757024_2591700228048 
o vid_17 
f 77 76 75
f 78 79 80
f 75 80 79
f 75 79 77
f 77 79 78
f 78 76 77
f 76 78 80
f 80 75 76
usemtl APPID_1806753328_2591700228432 
o vid_18 
f 81 86 87
f 82 87 88
f 83 88 89
f 81 87 82
f 82 88 83
f 83 89 84
f 84 89 90
f 84 90 85
usemtl APPID_1806757024_2591700228048 
o vid_19 
f 93 92 91
f 94 95 96
f 91 96 95
f 91 95 93
f 93 95 94
f 94 92 93
f 92 94 96
f 96 91 92
usemtl APPID_1806753328_2591700228432 
o vid_20 
f 97 101 102
f 98 102 103
f 97 102 98
f 98 103 99
f 99 103 104
f 99 104 100
usemtl APPID_1806757024_2591700228048 
o vid_21 
f 107 106 105
f 108 109 110
f 105 110 109
f 105 109 107
f 107 109 108
f 108 106 107
f 106 108 110
f 110 105 106
usemtl APPID_1806753328_2591700228432 
o vid_22 
f 111 116 117
f 112 117 118
f 113 118 119
f 111 117 112
f 112 118 113
f 113 119 114
f 114 119 120
f 114 120 115
usemtl APPID_1806757024_2591700228048 
o vid_23 
f 123 122 121
f 124 125 126
f 121 126 125
f 121 125 123
f 123 125 124
f 124 122 123
f 122 124 126
f 126 121 122
usemtl APPID_1806753328_2591700228432 
o vid_24 
f 127 133 134
f 128 134 135
f 129 135 136
f 130 136 137
f 127 134 128
f 128 135 129
f 129 136 130
f 130 137 131
f 131 137 138
f 131 138 132
usemtl APPID_1806757024_2591700228048 
o vid_25 
f 141 140 139
f 142 143 144
f 139 144 143
f 139 143 141
f 141 143 142
f 142 140 141
f 140 142 144
f 144 139 140
usemtl APPID_1806753328_2591700228432 
o vid_26 
f 145 150 151
f 146 151 152
f 147 152 153
f 145 151 146
f 146 152 147
f 147 153 148
f 148 153 154
f 148 154 149
usemtl APPID_1806757024_2591700228048 
o vid_27 
f 157 156 155
f 158 159 160
f 155 160 159
f 155 159 157
f 157 159 158
f 158 156 157
f 156 158 160
f 160 155 156
usemtl APPID_1806753328_2591700228432 
o vid_28 
f 161 167 168
f 162 168 169
f 163 169 170
f 164 170 171
f 161 168 162
f 162 169 163
f 163 170 164
f 164 171 165
f 165 171 172
f 165 172 166
usemtl APPID_1806757024_2591700228048 
o vid_29 
f 175 174 173
f 176 177 178
f 173 178 177
f 173 177 175
f 175 177 176
f 176 174 175
f 174 176 178
f 178 173 174
usemtl APPID_1806753328_2591700228432 
o vid_30 
f 179 186 187
f 180 187 188
f 181 188 189
f 182 189 190
f 183 190 191
f 179 187 180
f 180 188 181
f 181 189 182
f 182 190 183
f 183 191 184
f 184 191 192
f 184 192 185
usemtl APPID_1806757024_2591700228048 
o vid_31 
f 195 194 193
f 196 197 198
f 193 198 197
f 193 197 195
f 195 197 196
f 196 194 195
f 194 196 198
f 198 193 194
usemtl APPID_1806753328_2591700228432 
o vid_32 
f 199 205 206
f 200 206 207
f 201 207 208
f 202 208 209
f 199 206 200
f 200 207 201
f 201 208 202
f 202 209 203
f 203 209 210
f 203 210 204
usemtl APPID_1806757024_2591700228048 
o vid_33 
f 213 212 211
f 214 215 216
f 211 216 215
f 211 215 213
f 213 215 214
f 214 212 213
f 212 214 216
f 216 211 212
usemtl APPID_1806753328_2591700228432 
o vid_34 
f 217 223 224
f 218 224 225
f 219 225 226
f 220 226 227
f 217 224 218
f 218 225 219
f 219 226 220
f 220 227 221
f 221 227 228
f 221 228 222
usemtl APPID_1806757024_2591700228048 
o vid_35 
f 231 230 229
f 232 233 234
f 229 234 233
f 229 233 231
f 231 233 232
f 232 230 231
f 230 232 234
f 234 229 230
usemtl APPID_1806753328_2591700228432 
o vid_36 
f 235 241 242
f 236 242 243
f 237 243 244
f 238 244 245
f 235 242 236
f 236 243 237
f 237 244 238
f 238 245 239
f 239 245 246
f 239 246 240
usemtl APPID_1806757024_2591700228048 
o vid_37 
f 249 248 247
f 250 251 252
f 247 252 251
f 247 251 249
f 249 251 250
f 250 248 249
f 248 250 252
f 252 247 248
usemtl APPID_1806753328_2591700228432 
o vid_38 
f 253 259 260
f 254 260 261
f 255 261 262
f 256 262 263
f 253 260 254
f 254 261 255
f 255 262 256
f 256 263 257
f 257 263 264
usemtl APPID_1806757024_2591700228048 
o vid_39 
f 267 266 265
f 268 269 270
f 265 270 269
f 265 269 267
f 267 269 268
f 268 266 267
f 266 268 270
f 270 265 266
usemtl APPID_1806753328_2591700228432 
o vid_40 
f 271 276 277
f 272 277 278
f 273 278 279
f 271 277 272
f 272 278 273
f 273 279 274
f 274 279 280
usemtl APPID_1806757024_2591700228048 
o vid_41 
f 283 282 281
f 284 285 286
f 281 286 285
f 281 285 283
f 283 285 284
f 284 282 283
f 282 284 286
f 286 281 282
usemtl APPID_1806753328_2591700228432 
o vid_42 
f 287 292 293
f 288 293 294
f 289 294 295
f 287 293 288
f 288 294 289
f 289 295 290
f 290 295 296
usemtl APPID_1806764080_2591700222928 
o vid_10000004 
f 297 304 305
f 298 305 306
f 299 306 307
f 300 307 308
f 301 308 309
f 297 305 298
f 298 306 299
f 299 307 300
f 300 308 301
f 301 309 302
f 302 309 310
usemtl APPID_1806764080_2591700222928 
o vid_10000006 
f 311 319 320
f 312 320 321
f 313 321 322
f 314 322 323
f 315 323 324
f 316 324 325
f 311 320 312
f 312 321 313
f 313 322 314
f 314 323 315
f 315 324 316
f 316 325 317
f 317 325 326
usemtl APPID_1806764080_2591700222928 
o vid_10000008 
f 327 334 335
f 328 335 336
f 329 336 337
f 330 337 338
f 331 338 339
f 327 335 328
f 328 336 329
f 329 337 330
f 330 338 331
f 331 339 332
f 332 339 340
usemtl APPID_1806764080_2591700222928 
o vid_10000010 
f 341 347 348
f 342 348 349
f 343 349 350
f 344 350 351
f 341 348 342
f 342 349 343
f 343 350 344
f 344 351 345
f 345 351 352
usemtl APPID_1806764080_2591700222928 
o vid_10000012 
f 353 361 362
f 354 362 363
f 355 363 364
f 356 364 365
f 357 365 366
f 358 366 367
f 353 362 354
f 354 363 355
f 355 364 356
f 356 365 357
f 357 366 358
f 358 367 359
f 359 367 368
usemtl APPID_1806764080_2591700222928 
o vid_10000014 
f 369 375 376
f 370 376 377
f 371 377 378
f 372 378 379
f 369 376 370
f 370 377 371
f 371 378 372
f 372 379 373
f 373 379 380
usemtl APPID_1806764080_2591700222928 
o vid_10000016 
f 381 388 389
f 382 389 390
f 383 390 391
f 384 391 392
f 385 392 393
f 381 389 382
f 382 390 383
f 383 391 384
f 384 392 385
f 385 393 386
f 386 393 394
usemtl APPID_1806764080_2591700222928 
o vid_10000018 
f 395 400 401
f 396 401 402
f 397 402 403
f 395 401 396
f 396 402 397
f 397 403 398
f 398 403 404
usemtl APPID_1806764080_2591700222928 
o vid_10000020 
f 405 411 412
f 406 412 413
f 407 413 414
f 408 414 415
f 405 412 406
f 406 413 407
f 407 414 408
f 408 415 409
f 409 415 416
usemtl APPID_1806764080_2591700222928 
o vid_10000022 
f 417 422 423
f 418 423 424
f 419 424 425
f 417 423 418
f 418 424 419
f 419 425 420
f 420 425 426
usemtl APPID_1806764080_2591700222928 
o vid_10000024 
f 427 431 432
f 428 432 433
f 427 432 428
f 428 433 429
f 429 433 434
usemtl APPID_1806764080_2591700222928 
o vid_10000026 
f 435 439 440
f 436 440 441
f 435 440 436
f 436 441 437
f 437 441 442
usemtl APPID_1806764080_2591700222928 
o vid_10000028 
f 443 446 447
f 443 447 444
f 444 447 448
usemtl APPID_1806764080_2591700222928 
o vid_10000030 
f 449 451 452
f 449 452 450
f 449 451 452
usemtl APPID_1806764080_2591700222928 
o vid_10000032 
f 453 455 456
f 453 456 454
f 453 455 456
usemtl APPID_1806764080_2591700222928 
o vid_10000034 
f 457 460 461
f 457 461 458
f 458 461 462
usemtl APPID_1806764080_2591700222928 
o vid_10000036 
f 463 465 466
f 463 466 464
f 463 465 466
