# File generated by PlantGL - Fri Sep  4 14:44:00 2026
v    18.201987 19.124129 0.000000
v    21.657533 18.880811 0.000000
v    20.140480 21.995060 0.000000
v    21.798013 20.875871 0.331061
v    18.342467 21.119189 0.331061
v    19.859520 18.004940 0.331061
v    20.738662 21.084254 -2.645931
v    22.886429 21.406074 -0.674825
v    21.309086 19.913271 -2.645931
v    22.886429 21.406074 -0.674825
v    21.503548 21.204422 0.331061
v    18.205166 20.699900 0.331061
v    20.291286 18.095678 0.331061
v    18.496452 18.795578 0.771522
v    21.794834 19.300100 0.771522
v    19.708714 21.904322 0.771522
v    20.071010 18.207304 -2.205470
v    15.584491 16.462942 2.163509
v    18.266023 20.460571 -2.205470
v    15.584491 16.462942 2.163509
v    18.272844 19.328938 0.771522
v    21.444735 18.839770 0.771522
v    20.282421 21.831292 0.771522
v    21.727156 20.671062 1.487405
v    18.555265 21.160230 1.487405
v    19.717579 18.168708 1.487405
v    20.130764 22.402111 -1.489587
v    27.423365 22.884243 5.143735
v    21.718249 18.316297 -1.489587
v    27.423365 22.884243 5.143735
v    21.731622 20.409625 1.487405
v    18.779443 21.294816 1.487405
v    19.488935 18.295559 1.487405
v    18.268378 19.590375 2.987040
v    21.220557 18.705184 2.987040
v    20.511065 21.704441 2.987040
v    19.793954 16.881896 0.010048
v    14.482057 16.440801 5.024673
v    10.463500 16.731779 8.681523
v    6.674987 16.847891 10.986891
v    18.418758 22.695310 0.010048
v    13.472221 20.709714 5.024673
v    10.009946 18.649102 8.681523
v    6.674987 16.847891 10.986891
v    18.876148 18.716648 2.987040
v    21.673341 19.668392 2.987040
v    19.450510 21.614960 2.987040
v    21.123852 21.283352 4.897980
v    18.326659 20.331608 4.897980
v    20.549490 18.385040 4.897980
v    17.808104 23.042390 1.920988
v    20.753424 25.714584 5.679711
v    24.740195 29.087099 10.592463
v    26.072269 30.263347 11.702610
v    33.091031 34.948948 16.835502
v    23.304991 18.228679 1.920988
v    25.565219 21.500819 5.679711
v    28.382236 25.897706 10.592463
v    29.372447 27.373328 11.702610
v    33.091031 34.948948 16.835502
v    21.375838 20.878433 4.897980
v    18.551335 20.752294 4.897980
v    20.072827 18.369272 4.897980
v    18.624162 19.121567 12.075822
v    21.448665 19.247706 12.075822
v    19.927173 21.630728 12.075822
v    21.839307 15.686027 9.098829
v    19.798237 14.628748 11.276864
v    13.622334 11.618870 17.770304
v    9.681960 9.617965 20.540457
v    3.940516 6.914855 24.504808
v    2.388688 6.153380 24.939849
v    -6.660637 2.977944 27.304334
v    16.860591 23.483895 9.098829
v    15.042576 22.077259 11.276864
v    9.713277 17.741393 17.770304
v    6.240004 15.008896 20.540457
v    1.371816 10.938059 24.504808
v    0.028017 9.850759 24.939849
v    -6.660637 2.977944 27.304334
v    18.844170 19.167222 12.075822
v    21.299122 19.415411 12.075822
v    19.856708 21.417367 12.075822
v    21.155830 20.832778 22.185723
v    18.700878 20.584589 22.185723
v    20.143292 18.582633 22.185723
v    17.237415 24.798179 19.208731
v    25.114658 29.456775 27.880206
v    28.034100 31.234652 30.026799
v    34.363951 34.909406 34.614710
v    39.384145 37.907962 36.090208
v    47.215428 42.312161 38.351441
v    49.675235 43.333658 39.008121
v    56.122136 46.026084 37.563936
v    23.676946 15.860621 19.208731
v    30.589510 21.858115 27.880206
v    33.200107 24.064644 30.026799
v    38.689597 28.905753 34.614710
v    43.123092 32.718601 36.090208
v    49.779791 38.753028 38.351441
v    51.527407 40.762990 39.008121
v    56.122136 46.026084 37.563936
v    20.942969 20.614124 22.185723
v    18.996669 20.509573 22.185723
v    20.060363 18.876303 22.185723
v    19.057031 19.385876 42.482171
v    21.003331 19.490427 42.482171
v    19.939637 21.123697 42.482171
v    23.050922 14.831262 39.505179
v    14.963124 10.548621 48.176654
v    6.418132 5.881508 54.291082
v    -6.002377 -0.750920 58.214453
v    -9.873512 -2.694071 59.304569
v    -14.067534 -4.804561 58.314228
v    -23.158951 -8.107987 56.314729
v    16.506280 24.880359 39.505179
v    9.319069 19.214895 48.176654
v    1.595352 13.286738 54.291082
v    -9.492910 4.608687 58.214453
v    -12.835413 1.853836 59.304569
v    -16.461522 -1.128665 58.314228
v    -23.158951 -8.107987 56.314729
v    19.257534 19.588200 42.482171
v    20.727862 19.562906 42.482171
v    20.014604 20.848894 42.482171
v    20.742466 20.411800 70.333185
v    19.272138 20.437094 70.333185
v    19.985396 19.151106 70.333185
v    17.453243 24.566827 67.356192
v    25.673876 28.199698 75.872164
v    35.687640 32.525671 82.762171
v    45.543109 36.675335 85.454679
v    52.181492 38.552994 87.155582
v    54.792197 39.297093 86.594432
v    22.525621 15.421450 67.356192
v    29.960198 20.471562 75.872164
v    38.932192 26.675822 82.762171
v    47.670804 32.839152 85.454679
v    52.778619 37.476387 87.155582
v    54.792197 39.297093 86.594432
v    20.575682 20.153135 70.333185
v    19.579540 20.421988 70.333185
v    19.844778 19.424878 70.333185
v    19.424318 19.846865 101.953956
v    20.420460 19.578012 101.953956
v    20.155222 20.575122 101.953956
v    21.558177 15.174760 98.976964
v    14.506738 13.966486 105.755769
v    12.525305 13.676660 107.648439
v    2.562395 12.052264 113.975967
v    -6.233277 10.752148 116.456701
v    -15.637710 10.477116 118.776354
v    -15.821026 10.471387 118.738442
v    18.954792 24.961693 98.976964
v    12.234981 22.506730 105.755769
v    10.371426 21.773765 107.648439
v    0.918189 18.233347 113.975967
v    -7.360959 14.991455 116.456701
v    -15.659092 10.557495 118.776354
v    -15.821026 10.471387 118.738442
v    19.662559 19.859925 101.953956
v    20.290030 19.777805 101.953956
v    20.047412 20.362271 101.953956
v    20.337441 20.140075 110.808000
v    19.709970 20.222195 110.808000
v    19.952588 19.637729 110.808000
v    19.209687 23.303852 104.909030
v    19.594730 23.294373 106.748454
v    21.578672 23.030157 115.794629
v    21.969322 22.823102 117.265265
v    25.517913 22.290543 124.795852
v    21.781769 17.107712 104.909030
v    22.046905 17.387087 106.748454
v    23.260501 18.978634 115.794629
v    23.389675 19.401473 117.265265
v    25.517913 22.290543 124.795852
mtllib usm_13_2.5D_2018-09-01_0.mtl
usemtl APPID_96575680_1597823768032 
o vid_3 
f 3 2 1
f 4 5 6
f 1 6 5
f 1 5 3
f 3 5 4
f 4 2 3
f 2 4 6
f 6 1 2
usemtl APPID_96580160_1597823762912 
o vid_4 
f 7 9 10
f 7 10 8
f 7 9 10
usemtl APPID_96575680_1597823768032 
o vid_5 
f 13 12 11
f 14 15 16
f 11 16 15
f 11 15 13
f 13 15 14
f 14 12 13
f 12 14 16
f 16 11 12
usemtl APPID_96580160_1597823762912 
o vid_6 
f 17 19 20
f 17 20 18
f 17 19 20
usemtl APPID_96575680_1597823768032 
o vid_7 
f 23 22 21
f 24 25 26
f 21 26 25
f 21 25 23
f 23 25 24
f 24 22 23
f 22 24 26
f 26 21 22
usemtl APPID_96580160_1597823762912 
o vid_8 
f 27 29 30
f 27 30 28
f 27 29 30
usemtl APPID_96575680_1597823768032 
o vid_9 
f 33 32 31
f 34 35 36
f 31 36 35
f 31 35 33
f 33 35 34
f 34 32 33
f 32 34 36
f 36 31 32
usemtl APPID_96580160_1597823762912 
o vid_10 
f 37 41 42
f 38 42 43
f 37 42 38
f 38 43 39
f 39 43 44
usemtl APPID_96575680_1597823768032 
o vid_11 
f 47 46 45
f 48 49 50
f 45 50 49
f 45 49 47
f 47 49 48
f 48 46 47
f 46 48 50
f 50 45 46
usemtl APPID_96580160_1597823762912 
o vid_12 
f 51 56 57
f 52 57 58
f 53 58 59
f 51 57 52
f 52 58 53
f 53 59 54
f 54 59 60
usemtl APPID_96575680_1597823768032 
o vid_13 
f 63 62 61
f 64 65 66
f 61 66 65
f 61 65 63
f 63 65 64
f 64 62 63
f 62 64 66
f 66 61 62
usemtl APPID_96580160_1597823762912 
o vid_14 
f 67 74 75
f 68 75 76
f 69 76 77
f 70 77 78
f 71 78 79
f 67 75 68
f 68 76 69
f 69 77 70
f 70 78 71
f 71 79 72
f 72 79 80
usemtl APPID_96575680_1597823768032 
o vid_15 
f 83 82 81
f 84 85 86
f 81 86 85
f 81 85 83
f 83 85 84
f 84 82 83
f 82 84 86
f 86 81 82
usemtl APPID_96580160_1597823762912 
o vid_16 
f 87 95 96
f 88 96 97
f 89 97 98
f 90 98 99
f 91 99 100
f 92 100 101
f 87 96 88
f 88 97 89
f 89 98 90
f 90 99 91
f 91 100 92
f 92 101 93
f 93 101 102
usemtl APPID_96575680_1597823768032 
o vid_17 
f 105 104 103
f 106 107 108
f 103 108 107
f 103 107 105
f 105 107 106
f 106 104 105
f 104 106 108
f 108 103 104
usemtl APPID_96580160_1597823762912 
o vid_18 
f 109 116 117
f 110 117 118
f 111 118 119
f 112 119 120
f 113 120 121
f 109 117 110
f 110 118 111
f 111 119 112
f 112 120 113
f 113 121 114
f 114 121 122
usemtl APPID_96575680_1597823768032 
o vid_19 
f 125 124 123
f 126 127 128
f 123 128 127
f 123 127 125
f 125 127 126
f 126 124 125
f 124 126 128
f 128 123 124
usemtl APPID_96580160_1597823762912 
o vid_20 
f 129 135 136
f 130 136 137
f 131 137 138
f 132 138 139
f 129 136 130
f 130 137 131
f 131 138 132
f 132 139 133
f 133 139 140
usemtl APPID_96575680_1597823768032 
o vid_21 
f 143 142 141
f 144 145 146
f 141 146 145
f 141 145 143
f 143 145 144
f 144 142 143
f 142 144 146
f 146 141 142
usemtl APPID_96580160_1597823762912 
o vid_22 
f 147 154 155
f 148 155 156
f 149 156 157
f 150 157 158
f 151 158 159
f 147 155 148
f 148 156 149
f 149 157 150
f 150 158 151
f 151 159 152
f 152 159 160
usemtl APPID_96575680_1597823768032 
o vid_23 
f 163 162 161
f 164 165 166
f 161 166 165
f 161 165 163
f 163 165 164
f 164 162 163
f 162 164 166
f 166 161 162
usemtl APPID_96580160_1597823762912 
o vid_24 
f 167 172 173
f 168 173 174
f 169 174 175
f 167 173 168
f 168 174 169
f 169 175 170
f 170 175 176
