# File generated by PlantGL - Fri Sep  4 14:43:27 2026
v    19.098359 219.560781 0.000000
v    20.831195 219.438765 0.000000
v    20.070446 221.000454 0.000000
v    20.901641 220.439219 0.331061
v    19.168805 220.561235 0.331061
v    19.929554 218.999546 0.331061
v    19.842291 220.647602 -2.645931
v    21.990057 220.969422 -0.674825
v    20.412715 219.476619 -2.645931
v    21.990057 220.969422 -0.674825
v    20.519048 220.415785 0.331061
v    19.380396 220.241616 0.331061
v    20.100556 219.342599 0.331061
v    19.480952 219.584215 0.422000
v    20.619604 219.758384 0.422000
v    19.899444 220.657401 0.422000
v    20.221428 219.711184 -5.647313
v    19.437139 219.549119 -4.217834
v    19.766475 220.279126 -5.647313
v    19.437139 219.549119 -4.217834
mtllib usm_13_2.5D_2018-07-14_5.mtl
usemtl APPID_96703472_1597823757152 
o vid_3 
f 3 2 1
f 4 5 6
f 1 6 5
f 1 5 3
f 3 5 4
f 4 2 3
f 2 4 6
f 6 1 2
usemtl APPID_96703920_1597823757280 
o vid_4 
f 7 9 10
f 7 10 8
f 7 9 10
usemtl APPID_96703472_1597823757152 
o vid_5 
f 13 12 11
f 14 15 16
f 11 16 15
f 11 15 13
f 13 15 14
f 14 12 13
f 12 14 16
f 16 11 12
usemtl APPID_96703920_1597823757280 
o vid_6 
f 17 19 20
f 17 20 18
f 17 19 20
