# File generated by PlantGL - Fri Sep  4 14:43:22 2026
v    18.201987 59.124129 0.000000
v    21.657533 58.880811 0.000000
v    20.140480 61.995060 0.000000
v    21.798013 60.875871 0.331061
v    18.342467 61.119189 0.331061
v    19.859520 58.004940 0.331061
v    21.368330 61.462214 -0.116670
v    21.894568 61.662107 0.416717
v    22.663788 61.932960 1.187494
v    23.525063 62.252177 1.763257
v    24.188082 62.475650 2.200343
v    24.707552 62.660136 2.339081
v    26.114331 62.978491 2.694692
v    21.994840 60.176096 -0.116670
v    22.476625 60.467244 0.416717
v    23.164064 60.905978 1.187494
v    23.946332 61.387384 1.763257
v    24.530999 61.771700 2.200343
v    24.996480 62.067016 2.339081
v    26.114331 62.978491 2.694692
v    21.503548 61.204422 0.331061
v    18.205166 60.699900 0.331061
v    20.291286 58.095678 0.331061
v    18.496452 58.795578 0.771522
v    21.794834 59.300100 0.771522
v    19.708714 61.904322 0.771522
v    19.330129 58.037269 0.161104
v    17.765761 57.000902 1.939150
v    17.361053 56.725198 2.246675
v    15.925945 55.791063 3.320030
v    15.130539 55.259116 3.561480
v    13.572923 54.275325 4.025136
v    12.856188 53.933834 4.220879
v    11.789575 53.423012 3.976419
v    17.938383 59.774664 0.161104
v    16.585564 58.474209 1.939150
v    16.228176 58.139432 2.246675
v    15.003336 56.942808 3.320030
v    14.310609 56.282681 3.561480
v    13.010572 54.977339 4.025136
v    12.520880 54.352418 4.220879
v    11.789575 53.423012 3.976419
v    18.272844 59.328938 0.771522
v    21.444735 58.839770 0.771522
v    20.282421 61.831292 0.771522
v    21.727156 60.671062 1.487405
v    18.555265 61.160230 1.487405
v    19.717579 58.168708 1.487405
v    20.982541 61.937926 0.674073
v    23.385256 62.629623 3.043171
v    26.210645 63.423389 4.883077
v    26.971456 63.646008 5.083101
v    29.344567 64.273581 5.700883
v    30.880834 64.489817 6.083383
v    31.947936 64.642202 5.860565
v    22.033193 59.233795 0.674073
v    24.272627 60.345739 3.043171
v    26.892771 61.667758 4.883077
v    27.604307 62.017198 5.083101
v    29.778609 63.156459 5.700883
v    31.057874 64.034157 6.083383
v    31.947936 64.642202 5.860565
v    21.533289 60.362708 1.487405
v    18.919241 61.146513 1.487405
v    19.547470 58.490779 1.487405
v    18.466711 59.637292 2.987040
v    21.080759 58.853487 2.987040
v    20.452530 61.509221 2.987040
v    19.239286 57.702137 1.927942
v    16.016239 57.241352 5.012917
v    13.516647 56.850969 6.601670
v    12.240554 56.679043 7.408793
v    8.692301 56.155969 8.313793
v    6.096664 55.842372 8.971798
v    2.072579 55.759165 8.136607
v    18.290377 61.713490 1.927942
v    15.202479 60.681385 5.012917
v    12.792903 59.910476 6.601670
v    11.575028 59.492440 7.408793
v    8.168484 58.370316 8.313793
v    5.707446 57.487728 8.971798
v    2.072579 55.759165 8.136607
v    19.180471 59.064162 2.987040
v    21.220224 59.758187 2.987040
v    19.599304 61.177652 2.987040
v    20.819529 60.935838 4.897980
v    18.779776 60.241813 4.897980
v    20.400696 58.822348 4.897980
v    18.434818 62.505946 3.550154
v    19.228542 63.262641 4.589258
v    21.434257 65.364440 7.476143
v    24.905626 68.758936 10.525174
v    30.381081 74.052136 12.447286
v    33.409028 76.819401 11.705196
v    36.966151 79.374037 10.799927
v    22.690548 58.779136 3.550154
v    23.335904 59.665759 4.589258
v    25.128307 62.129502 7.476143
v    28.035115 66.018392 10.525174
v    32.559610 72.144364 12.447286
v    34.903175 75.510952 11.705196
v    36.966151 79.374037 10.799927
v    20.788306 60.503311 4.897980
v    19.169967 60.431038 4.897980
v    20.041727 59.065652 4.897980
v    19.211694 59.496689 12.075822
v    20.830033 59.568962 12.075822
v    19.958273 60.934348 12.075822
v    21.696624 56.505729 10.399489
v    17.137135 54.109878 15.282362
v    11.811625 51.263277 19.074534
v    5.713941 47.926766 20.830904
v    3.194637 46.607798 21.548447
v    -1.420975 44.186786 20.446265
v    -6.001456 41.933467 19.369521
v    -9.775509 40.696957 17.439488
v    -10.675555 40.414534 16.861410
v    17.544139 63.009520 10.399489
v    13.452060 59.881592 15.282362
v    8.628734 56.248450 19.074534
v    3.036047 52.120993 20.830904
v    0.779395 50.390649 21.548447
v    -3.359127 47.222397 20.446265
v    -7.330740 44.015447 19.369521
v    -10.040605 41.112161 17.439488
v    -10.675555 40.414534 16.861410
v    19.472966 59.620271 12.075822
v    20.592372 59.733440 12.075822
v    19.934662 60.646289 12.075822
v    20.527034 60.379729 17.953724
v    19.407628 60.266560 17.953724
v    20.065338 59.353711 17.953724
v    17.559246 63.490565 15.916141
v    18.822595 64.238120 17.307097
v    22.950565 66.679399 21.851275
v    29.219491 70.497039 26.460662
v    38.871514 76.294800 29.302342
v    44.271862 79.338245 28.298756
v    50.381096 81.889651 26.930212
v    22.538450 56.579825 15.916141
v    23.647475 57.541571 17.307097
v    27.269917 60.684482 21.851275
v    32.875659 65.422569 26.460662
v    41.430612 72.742976 29.302342
v    46.027024 76.902220 28.298756
v    50.381096 81.889651 26.930212
v    20.324177 60.211126 17.953724
v    19.655071 60.175183 17.953724
v    20.020752 59.613691 17.953724
v    19.675823 59.788874 19.033000
v    20.344929 59.824817 19.033000
v    19.979248 60.386309 19.033000
v    20.759207 57.285008 14.375089
v    20.665001 57.330109 15.442036
v    19.900121 57.806765 22.920862
v    19.621104 58.079410 24.590470
v    17.582500 58.425562 30.558796
v    17.823838 61.792176 14.375089
v    17.826996 61.687779 15.442036
v    17.953670 60.795481 22.920862
v    18.090212 60.430046 24.590470
v    17.582500 58.425562 30.558796
mtllib usm_15_2.5D_2018-08-15_1.mtl
usemtl APPID_1699848720_2630218010112 
o vid_3 
f 3 2 1
f 4 5 6
f 1 6 5
f 1 5 3
f 3 5 4
f 4 2 3
f 2 4 6
f 6 1 2
usemtl APPID_1699851296_2630218008960 
o vid_4 
f 7 14 15
f 8 15 16
f 9 16 17
f 10 17 18
f 11 18 19
f 7 15 8
f 8 16 9
f 9 17 10
f 10 18 11
f 11 19 12
f 12 19 20
usemtl APPID_1699848720_2630218010112 
o vid_5 
f 23 22 21
f 24 25 26
f 21 26 25
f 21 25 23
f 23 25 24
f 24 22 23
f 22 24 26
f 26 21 22
usemtl APPID_1699851296_2630218008960 
o vid_6 
f 27 35 36
f 28 36 37
f 29 37 38
f 30 38 39
f 31 39 40
f 32 40 41
f 27 36 28
f 28 37 29
f 29 38 30
f 30 39 31
f 31 40 32
f 32 41 33
f 33 41 42
usemtl APPID_1699848720_2630218010112 
o vid_7 
f 45 44 43
f 46 47 48
f 43 48 47
f 43 47 45
f 45 47 46
f 46 44 45
f 44 46 48
f 48 43 44
usemtl APPID_1699851296_2630218008960 
o vid_8 
f 49 56 57
f 50 57 58
f 51 58 59
f 52 59 60
f 53 60 61
f 49 57 50
f 50 58 51
f 51 59 52
f 52 60 53
f 53 61 54
f 54 61 62
usemtl APPID_1699848720_2630218010112 
o vid_9 
f 65 64 63
f 66 67 68
f 63 68 67
f 63 67 65
f 65 67 66
f 66 64 65
f 64 66 68
f 68 63 64
usemtl APPID_1699851296_2630218008960 
o vid_10 
f 69 76 77
f 70 77 78
f 71 78 79
f 72 79 80
f 73 80 81
f 69 77 70
f 70 78 71
f 71 79 72
f 72 80 73
f 73 81 74
f 74 81 82
usemtl APPID_1699848720_2630218010112 
o vid_11 
f 85 84 83
f 86 87 88
f 83 88 87
f 83 87 85
f 85 87 86
f 86 84 85
f 84 86 88
f 88 83 84
usemtl APPID_1699851296_2630218008960 
o vid_12 
f 89 96 97
f 90 97 98
f 91 98 99
f 92 99 100
f 93 100 101
f 89 97 90
f 90 98 91
f 91 99 92
f 92 100 93
f 93 101 94
f 94 101 102
usemtl APPID_1699848720_2630218010112 
o vid_13 
f 105 104 103
f 106 107 108
f 103 108 107
f 103 107 105
f 105 107 106
f 106 104 105
f 104 106 108
f 108 103 104
usemtl APPID_1699851296_2630218008960 
o vid_14 
f 109 118 119
f 110 119 120
f 111 120 121
f 112 121 122
f 113 122 123
f 114 123 124
f 115 124 125
f 109 119 110
f 110 120 111
f 111 121 112
f 112 122 113
f 113 123 114
f 114 124 115
f 115 125 116
f 116 125 126
usemtl APPID_1699848720_2630218010112 
o vid_15 
f 129 128 127
f 130 131 132
f 127 132 131
f 127 131 129
f 129 131 130
f 130 128 129
f 128 130 132
f 132 127 128
usemtl APPID_1699851296_2630218008960 
o vid_16 
f 133 140 141
f 134 141 142
f 135 142 143
f 136 143 144
f 137 144 145
f 133 141 134
f 134 142 135
f 135 143 136
f 136 144 137
f 137 145 138
f 138 145 146
usemtl APPID_1699848720_2630218010112 
o vid_17 
f 149 148 147
f 150 151 152
f 147 152 151
f 147 151 149
f 149 151 150
f 150 148 149
f 148 150 152
f 152 147 148
usemtl APPID_1699851296_2630218008960 
o vid_18 
f 153 158 159
f 154 159 160
f 155 160 161
f 153 159 154
f 154 160 155
f 155 161 156
f 156 161 162
