# File generated by PlantGL - Fri Sep  4 14:41:29 2026
v    59.039672 19.532193 0.000000
v    60.885297 19.402235 0.000000
v    60.075031 21.065572 0.000000
v    60.960328 20.467807 0.331061
v    59.114703 20.597765 0.331061
v    59.924969 18.934428 0.331061
v    60.545326 21.044508 -0.085637
v    61.392605 21.366350 0.773151
v    61.746871 21.491092 1.128134
v    62.967583 21.943529 1.944180
v    64.126366 22.351589 2.328973
v    65.435639 22.647878 2.659937
v    61.158613 19.785536 -0.085637
v    61.934319 20.254304 0.773151
v    62.250921 20.456364 1.128134
v    63.359653 21.138675 1.944180
v    64.395268 21.799578 2.328973
v    65.435639 22.647878 2.659937
v    60.568123 20.455097 0.331061
v    59.321813 20.264461 0.331061
v    60.110064 19.280442 0.331061
v    59.431877 19.544903 0.493000
v    60.678187 19.735539 0.493000
v    59.889936 20.719558 0.493000
v    60.136455 19.020284 -0.678402
v    58.904800 18.293715 1.297653
v    58.687892 18.157218 1.535240
v    57.551038 17.495253 2.749298
v    57.327408 17.407633 2.963267
v    56.012918 16.806135 3.617712
v    59.073686 20.346998 -0.678402
v    58.095815 19.303618 1.297653
v    57.915266 19.121731 1.535240
v    57.021131 18.156765 2.749298
v    56.886815 17.957650 2.963267
v    56.012918 16.806135 3.617712
mtllib usm_35_Beer_2018-07-15_1.mtl
usemtl APPID_821867520_1946543289056 
o vid_3 
f 3 2 1
f 4 5 6
f 1 6 5
f 1 5 3
f 3 5 4
f 4 2 3
f 2 4 6
f 6 1 2
usemtl APPID_821867632_1946543290976 
o vid_4 
f 7 13 14
f 8 14 15
f 9 15 16
f 10 16 17
f 7 14 8
f 8 15 9
f 9 16 10
f 10 17 11
f 11 17 18
usemtl APPID_821867520_1946543289056 
o vid_5 
f 21 20 19
f 22 23 24
f 19 24 23
f 19 23 21
f 21 23 22
f 22 20 21
f 20 22 24
f 24 19 20
usemtl APPID_821867632_1946543290976 
o vid_6 
f 25 31 32
f 26 32 33
f 27 33 34
f 28 34 35
f 25 32 26
f 26 33 27
f 27 34 28
f 28 35 29
f 29 35 36
