# File generated by PlantGL - Fri Sep  4 14:42:43 2026
v    177.752484 18.905161 0.000000
v    182.071916 18.601013 0.000000
v    180.175600 22.493825 0.000000
v    182.247516 21.094839 0.848509
v    177.928084 21.398987 0.848509
v    179.824400 17.506175 0.848509
v    182.063318 21.447215 0.691564
v    182.453082 21.595816 1.079184
v    183.193430 21.873467 1.633353
v    184.003725 22.189774 1.912166
v    184.577238 22.387805 2.105866
v    185.066316 22.501429 2.100257
v    182.411437 20.732585 0.691564
v    182.768709 20.947890 1.079184
v    183.443703 21.359698 1.633353
v    184.192254 21.802756 1.912166
v    184.701714 22.132276 2.105866
v    185.092663 22.447343 2.100257
v    181.879284 21.505407 0.848509
v    177.756638 20.874804 0.848509
v    180.364078 17.619789 0.848509
v    178.120716 18.494593 1.417165
v    182.243362 19.125196 1.417165
v    179.635922 22.380211 1.417165
v    178.491079 18.057798 1.194871
v    177.909880 17.671735 1.843244
v    177.063811 17.114952 2.528796
v    175.927730 16.347269 2.968291
v    175.315893 15.968299 3.198051
v    175.088341 15.825540 3.194993
v    174.463818 15.540886 3.187368
v    177.775286 18.951362 1.194871
v    177.271679 18.468437 1.843244
v    176.543657 17.764289 2.528796
v    175.546522 16.823152 2.968291
v    175.043150 16.308780 3.198051
v    174.854167 16.117873 3.194993
v    174.440068 15.570535 3.187368
v    177.841416 19.161313 1.417165
v    181.805616 18.549955 1.417165
v    180.352968 22.288732 1.417165
v    182.158584 20.838687 2.253766
v    178.194384 21.450045 2.253766
v    179.647032 17.711268 2.253766
v    181.872788 21.513020 1.945116
v    182.125334 21.586059 2.189413
v    182.827596 21.776727 2.864532
v    184.160263 22.156220 3.797241
v    185.104643 22.437472 4.113085
v    186.417230 22.772296 4.545543
v    186.995823 22.836743 4.726488
v    187.390135 22.885434 4.722073
v    182.403034 20.148290 1.945116
v    182.638645 20.264917 2.189413
v    183.285419 20.598398 2.864532
v    184.524715 21.218205 3.797241
v    185.411252 21.648331 4.113085
v    186.605579 22.287532 4.545543
v    187.075906 22.630628 4.726488
v    187.399656 22.860930 4.722073
v    182.163962 20.511898 2.253766
v    178.474702 21.618097 2.253766
v    179.361335 17.870005 2.253766
v    177.836038 19.488102 4.112548
v    181.525298 18.381903 4.112548
v    180.638665 22.129995 4.112548
v    178.103519 18.488509 3.692435
v    177.327666 18.376616 4.420854
v    176.768443 18.305315 4.943881
v    174.900618 18.043774 6.213421
v    173.026697 17.758347 6.821003
v    171.194324 17.553256 7.409635
v    169.792927 17.577524 7.465129
v    177.627312 20.501594 3.692435
v    176.883557 20.254015 4.420854
v    176.351658 20.067205 4.943881
v    174.564616 19.464166 6.213421
v    172.761423 18.879750 6.821003
v    171.031367 18.242128 7.409635
v    169.789372 17.592550 7.465129
v    178.734935 18.555393 4.112548
v    181.883599 19.626725 4.112548
v    179.381466 21.817882 4.112548
v    181.265065 21.444607 5.999272
v    178.116401 20.373275 5.999272
v    180.618534 18.182118 5.999272
v    180.149771 22.367746 5.438705
v    181.449174 23.608979 7.108541
v    183.276033 25.339827 8.802520
v    185.795463 27.784934 9.927865
v    187.107205 28.960579 10.490211
v    187.650585 29.453237 10.481860
v    189.221641 30.536934 10.460655
v    182.327285 20.460862 5.438705
v    183.386224 21.912673 7.108541
v    184.860905 23.951929 8.802520
v    186.952223 26.771941 9.927865
v    187.944519 28.227329 10.490211
v    188.361177 28.830961 10.481860
v    189.228115 30.531265 10.460655
v    181.279951 20.817212 5.999272
v    178.652298 20.699864 5.999272
v    180.067751 18.482923 5.999272
v    178.720049 19.182788 11.505015
v    181.347702 19.300136 11.505015
v    179.932249 21.517077 11.505015
v    179.728350 17.701454 10.771768
v    178.655009 17.143788 11.895758
v    177.632419 16.633630 12.955989
v    174.705115 15.127968 15.171791
v    171.963841 13.676016 16.166103
v    169.062474 12.283771 17.193476
v    166.695874 11.505695 17.358332
v    177.800566 20.720829 10.771768
v    176.843005 19.981822 11.895758
v    175.949898 19.268863 12.955989
v    173.352196 17.246965 15.171791
v    170.881499 15.371223 16.166103
v    168.397597 13.325127 17.193476
v    166.695874 11.505695 17.358332
v    179.070422 19.330237 11.505015
v    181.044821 19.529843 11.505015
v    179.884757 21.139920 11.505015
v    180.929578 20.669763 19.658889
v    178.955179 20.470157 19.658889
v    180.115243 18.860080 19.658889
v    179.394678 22.684508 18.718658
v    181.987096 24.221963 21.519449
v    183.129658 24.915743 22.420340
v    185.615122 26.375988 24.360736
v    191.964911 30.210099 26.738311
v    193.208208 30.895026 27.191474
v    195.689105 32.280367 27.159124
v    198.693301 33.468567 27.123230
v    182.354847 18.576029 18.718658
v    184.633867 20.548456 21.519449
v    185.653646 21.412648 22.420340
v    187.825569 23.308062 24.360736
v    193.472533 28.117640 26.738311
v    194.515802 29.080189 27.191474
v    196.615229 30.994981 27.159124
v    198.693301 33.468567 27.123230
v    180.671754 20.437491 19.658889
v    179.285244 20.363011 19.658889
v    180.043001 19.199498 19.658889
v    179.328246 19.562509 25.541351
v    180.714756 19.636989 25.541351
v    179.956999 20.800502 25.541351
v    180.849770 17.381875 24.359453
v    177.469536 15.657191 27.880130
v    172.773232 13.187722 31.451710
v    171.215388 12.344473 32.019510
v    166.559238 10.058188 33.675499
v    162.874960 8.847032 34.880900
v    177.949052 21.835838 24.359453
v    175.004856 19.441631 27.880130
v    170.847325 16.144893 31.451710
v    169.446175 15.061046 32.019510
v    165.472421 11.726963 33.675499
v    162.874960 8.847032 34.880900
v    179.574676 19.764099 25.541351
v    180.416959 19.749609 25.541351
v    180.008366 20.486292 25.541351
v    180.425324 20.235901 27.962000
v    179.583041 20.250391 27.962000
v    179.991634 19.513708 27.962000
v    179.998694 22.541364 25.318156
v    180.431403 22.523383 28.209107
v    181.006715 22.387100 31.626563
v    181.974765 22.498397 34.718266
v    183.677938 22.101760 39.171220
v    183.804555 22.110153 39.351602
v    182.155186 18.653261 25.318156
v    182.369048 19.029855 28.209107
v    182.558061 19.590062 31.626563
v    183.165050 20.352343 34.718266
v    183.730393 22.007186 39.171220
v    183.804555 22.110153 39.351602
v    185.066316 22.501429 2.100257
v    185.186414 22.526472 2.098894
v    185.092663 22.447343 2.100257
v    185.186414 22.526472 2.098894
v    174.463818 15.540886 3.187368
v    174.393329 15.508758 3.186507
v    174.440068 15.570535 3.187368
v    174.393329 15.508758 3.186507
v    187.390135 22.885434 4.722073
v    187.443340 22.892004 4.721478
v    187.399656 22.860930 4.722073
v    187.443340 22.892004 4.721478
v    169.792927 17.577524 7.465129
v    169.761444 17.578010 7.464779
v    169.789372 17.592550 7.465129
v    169.761444 17.578010 7.464779
v    189.221641 30.536934 10.460655
v    189.236085 30.546897 10.460460
v    189.228115 30.531265 10.460655
v    189.236085 30.546897 10.460460
mtllib usm_38_2.5D_2018-07-25_4.mtl
usemtl APPID_306832000_1529319869696 
o vid_3 
f 3 2 1
f 4 5 6
f 1 6 5
f 1 5 3
f 3 5 4
f 4 2 3
f 2 4 6
f 6 1 2
usemtl APPID_306834464_1529319869824 
o vid_4 
f 7 13 14
f 8 14 15
f 9 15 16
f 10 16 17
f 7 14 8
f 8 15 9
f 9 16 10
f 10 17 11
f 11 17 18
f 11 18 12
usemtl APPID_306832000_1529319869696 
o vid_5 
f 21 20 19
f 22 23 24
f 19 24 23
f 19 23 21
f 21 23 22
f 22 20 21
f 20 22 24
f 24 19 20
usemtl APPID_306834464_1529319869824 
o vid_6 
f 25 32 33
f 26 33 34
f 27 34 35
f 28 35 36
f 29 36 37
f 25 33 26
f 26 34 27
f 27 35 28
f 28 36 29
f 29 37 30
f 30 37 38
f 30 38 31
usemtl APPID_306832000_1529319869696 
o vid_7 
f 41 40 39
f 42 43 44
f 39 44 43
f 39 43 41
f 41 43 42
f 42 40 41
f 40 42 44
f 44 39 40
usemtl APPID_306834464_1529319869824 
o vid_8 
f 45 53 54
f 46 54 55
f 47 55 56
f 48 56 57
f 49 57 58
f 50 58 59
f 45 54 46
f 46 55 47
f 47 56 48
f 48 57 49
f 49 58 50
f 50 59 51
f 51 59 60
f 51 60 52
usemtl APPID_306832000_1529319869696 
o vid_9 
f 63 62 61
f 64 65 66
f 61 66 65
f 61 65 63
f 63 65 64
f 64 62 63
f 62 64 66
f 66 61 62
usemtl APPID_306834464_1529319869824 
o vid_10 
f 67 74 75
f 68 75 76
f 69 76 77
f 70 77 78
f 71 78 79
f 67 75 68
f 68 76 69
f 69 77 70
f 70 78 71
f 71 79 72
f 72 79 80
f 72 80 73
usemtl APPID_306832000_1529319869696 
o vid_11 
f 83 82 81
f 84 85 86
f 81 86 85
f 81 85 83
f 83 85 84
f 84 82 83
f 82 84 86
f 86 81 82
usemtl APPID_306834464_1529319869824 
o vid_12 
f 87 94 95
f 88 95 96
f 89 96 97
f 90 97 98
f 91 98 99
f 87 95 88
f 88 96 89
f 89 97 90
f 90 98 91
f 91 99 92
f 92 99 100
f 92 100 93
usemtl APPID_306832000_1529319869696 
o vid_13 
f 103 102 101
f 104 105 106
f 101 106 105
f 101 105 103
f 103 105 104
f 104 102 103
f 102 104 106
f 106 101 102
usemtl APPID_306834464_1529319869824 
o vid_14 
f 107 114 115
f 108 115 116
f 109 116 117
f 110 117 118
f 111 118 119
f 107 115 108
f 108 116 109
f 109 117 110
f 110 118 111
f 111 119 112
f 112 119 120
usemtl APPID_306832000_1529319869696 
o vid_15 
f 123 122 121
f 124 125 126
f 121 126 125
f 121 125 123
f 123 125 124
f 124 122 123
f 122 124 126
f 126 121 122
usemtl APPID_306834464_1529319869824 
o vid_16 
f 127 135 136
f 128 136 137
f 129 137 138
f 130 138 139
f 131 139 140
f 132 140 141
f 127 136 128
f 128 137 129
f 129 138 130
f 130 139 131
f 131 140 132
f 132 141 133
f 133 141 142
usemtl APPID_306832000_1529319869696 
o vid_17 
f 145 144 143
f 146 147 148
f 143 148 147
f 143 147 145
f 145 147 146
f 146 144 145
f 144 146 148
f 148 143 144
usemtl APPID_306834464_1529319869824 
o vid_18 
f 149 155 156
f 150 156 157
f 151 157 158
f 152 158 159
f 149 156 150
f 150 157 151
f 151 158 152
f 152 159 153
f 153 159 160
usemtl APPID_306832000_1529319869696 
o vid_19 
f 163 162 161
f 164 165 166
f 161 166 165
f 161 165 163
f 163 165 164
f 164 162 163
f 162 164 166
f 166 161 162
usemtl APPID_306834464_1529319869824 
o vid_20 
f 167 173 174
f 168 174 175
f 169 175 176
f 170 176 177
f 167 174 168
f 168 175 169
f 169 176 170
f 170 177 171
f 171 177 178
usemtl APPID_306828640_1529319863808 
o vid_10000004 
f 179 181 182
f 179 182 180
f 179 181 182
usemtl APPID_306828640_1529319863808 
o vid_10000006 
f 183 185 186
f 183 186 184
f 183 185 186
usemtl APPID_306828640_1529319863808 
o vid_10000008 
f 187 189 190
f 187 190 188
f 187 189 190
usemtl APPID_306828640_1529319863808 
o vid_10000010 
f 191 193 194
f 191 194 192
f 191 193 194
usemtl APPID_306828640_1529319863808 
o vid_10000012 
f 195 197 198
f 195 198 196
f 195 197 198
