# File generated by PlantGL - Fri Sep  4 14:43:20 2026
v    137.752484 18.905161 0.000000
v    142.071916 18.601013 0.000000
v    140.175600 22.493825 0.000000
v    142.247516 21.094839 0.848509
v    137.928084 21.398987 0.848509
v    139.824400 17.506175 0.848509
v    142.061967 21.449533 0.688792
v    142.412982 21.583360 1.037875
v    142.541356 21.629905 1.164563
v    143.212390 21.882588 1.647213
v    143.977804 22.181375 1.910584
v    144.621748 22.403726 2.128071
v    145.058649 22.497628 2.123098
v    142.412430 20.730092 0.688792
v    142.734182 20.923992 1.037875
v    142.849965 20.996384 1.164563
v    143.462573 21.369005 1.647213
v    144.169662 21.787522 1.910584
v    144.741688 22.157510 2.128071
v    145.084944 22.443648 2.123098
v    141.879284 21.505407 0.848509
v    137.756638 20.874804 0.848509
v    140.364078 17.619789 0.848509
v    138.120716 18.494593 1.417165
v    142.243362 19.125196 1.417165
v    139.635922 22.380211 1.417165
v    138.493420 18.055297 1.191207
v    137.959030 17.700327 1.787360
v    137.041927 17.097782 2.547120
v    135.960097 16.366758 2.965627
v    135.262996 15.934976 3.227407
v    134.474251 15.549276 3.217588
v    137.773357 18.954192 1.191207
v    137.310310 18.510161 1.787360
v    136.522125 17.746680 2.547120
v    135.572606 16.850486 2.965627
v    134.999085 16.264432 3.227407
v    134.450532 15.578885 3.217588
v    137.841416 19.161313 1.417165
v    141.805616 18.549955 1.417165
v    140.352968 22.288732 1.417165
v    142.158584 20.838687 2.253766
v    138.194384 21.450045 2.253766
v    139.647032 17.711268 2.253766
v    141.871274 21.515974 1.940371
v    142.841297 21.782360 2.873923
v    144.194455 22.167688 3.820973
v    145.041840 22.420053 4.104378
v    146.374609 22.760026 4.543484
v    147.081355 22.838746 4.764507
v    147.358043 22.872913 4.761409
v    142.403912 20.145089 1.940371
v    143.299329 20.603493 2.873923
v    144.557680 21.232830 3.820973
v    145.353164 21.618779 4.104378
v    146.565854 22.267808 4.543484
v    147.140354 22.686897 4.764507
v    147.367529 22.848499 4.761409
v    142.163962 20.511898 2.253766
v    138.474702 21.618097 2.253766
v    139.361335 17.870005 2.253766
v    137.836038 19.488102 4.112548
v    141.525298 18.381903 4.112548
v    140.638665 22.129995 4.112548
v    138.105112 18.483651 3.686412
v    137.426459 18.385777 4.323575
v    136.750482 18.299590 4.955799
v    134.855880 18.034299 6.243539
v    133.095865 17.766222 6.814188
v    131.237223 17.558191 7.411259
v    129.822145 17.584461 7.514892
v    137.626560 20.506651 3.686412
v    136.975983 20.290089 4.323575
v    136.333035 20.064276 4.955799
v    134.520375 19.452593 6.243539
v    132.826788 18.903700 6.814188
v    131.071931 18.256937 7.411259
v    129.818601 17.599440 7.514892
v    138.595695 18.396392 4.112548
v    142.090917 19.585640 4.112548
v    139.313387 22.017967 4.112548
v    141.404305 21.603608 5.999272
v    137.909083 20.414360 5.999272
v    140.686613 17.982033 5.999272
v    140.283351 22.530987 5.431214
v    141.502715 23.695764 6.998193
v    143.453107 25.541283 8.839982
v    145.877197 27.893863 9.922741
v    147.340883 29.205687 10.550226
v    149.343450 30.676011 10.522429
v    142.471475 20.614812 5.431214
v    143.465187 21.977196 6.998193
v    145.037237 24.154035 8.839982
v    147.049416 26.867332 9.922741
v    148.156653 28.491305 10.550226
v    149.349905 30.670359 10.522429
v    141.718982 21.097521 5.999272
v    138.190028 20.939922 5.999272
v    140.090990 17.962557 5.999272
v    138.281018 18.902479 12.880915
v    141.809972 19.060078 12.880915
v    139.909010 22.037443 12.880915
v    139.368609 17.298179 12.138531
v    137.256824 16.200978 14.349967
v    134.295170 14.673231 16.593377
v    129.916762 12.354149 18.181508
v    128.089733 11.477434 18.828459
v    126.927334 10.911414 18.813740
v    124.506402 10.107780 18.785398
v    137.283352 20.564193 12.138531
v    135.399364 19.110208 14.349967
v    132.767172 17.066444 16.593377
v    128.820935 14.070478 18.181508
v    127.256789 12.782024 18.828459
v    126.254174 11.965745 18.813740
v    124.506402 10.107780 18.785398
v    138.483640 18.907459 12.880915
v    141.704348 19.233064 12.880915
v    139.812012 21.859477 12.880915
v    141.516360 21.092541 19.681199
v    138.295652 20.766936 19.681199
v    140.187988 18.140523 19.681199
v    140.028623 23.040483 18.730039
v    142.603196 24.567353 21.511549
v    146.333435 26.758124 24.437697
v    151.364432 29.795926 26.321471
v    154.052792 31.276931 27.301338
v    155.065651 31.842516 27.288131
v    158.104767 33.044527 27.251819
v    142.893190 19.064691 18.730039
v    145.156521 21.023541 21.511549
v    148.415436 23.868472 24.437697
v    152.889578 27.679145 26.321471
v    155.145421 29.760449 27.301338
v    156.002540 30.542189 27.288131
v    158.104767 33.044527 27.251819
v    141.249122 20.813512 19.681199
v    138.670917 20.675016 19.681199
v    140.079961 18.511472 19.681199
v    138.750878 19.186488 30.874713
v    141.329083 19.324984 30.874713
v    139.920039 21.488528 30.874713
v    140.543057 16.591961 29.679986
v    137.160632 14.795582 33.238878
v    132.420278 12.288673 36.849227
v    124.968512 8.255094 39.565234
v    122.491577 7.038857 40.446172
v    120.157740 5.876206 40.416487
v    116.273549 4.547752 40.370877
v    137.102574 21.874717 29.679986
v    134.091919 19.507496 33.238878
v    129.882334 16.185608 36.849227
v    123.180094 11.001154 39.565234
v    121.066174 9.227520 40.446172
v    119.059125 7.563096 40.416487
v    116.273549 4.547752 40.370877
v    139.002045 19.446496 30.874713
v    140.978326 19.412498 30.874713
v    140.019629 21.141006 30.874713
v    140.997955 20.553504 48.402209
v    139.021674 20.587502 48.402209
v    139.980371 18.858994 48.402209
v    138.898514 24.120787 46.931002
v    143.209870 26.032398 51.313482
v    147.152753 27.829965 54.233978
v    149.228093 28.739958 55.759327
v    161.815917 34.441016 60.188667
v    168.429022 37.185193 60.107135
v    170.849515 37.825667 60.079316
v    173.280754 38.458789 59.634285
v    142.912498 16.883670 46.931002
v    146.816974 19.528876 51.313482
v    150.429601 21.921886 54.233978
v    152.300437 23.200595 55.759327
v    163.801880 30.860372 60.188667
v    169.631392 35.017350 60.107135
v    171.456347 36.731564 60.079316
v    173.280754 38.458789 59.634285
v    140.792887 20.210913 48.402209
v    139.420901 20.581204 48.402209
v    139.786212 19.207883 48.402209
v    139.207113 19.789087 65.991053
v    140.579099 19.418796 65.991053
v    140.213788 20.792117 65.991053
v    140.553300 15.224818 64.214946
v    134.942731 14.256346 69.505671
v    132.782831 13.860321 70.985634
v    127.088032 12.901404 74.872892
v    113.671953 10.475977 79.242900
v    110.640317 10.051343 80.220187
v    105.723487 9.333846 80.163618
v    99.621238 9.259001 80.095813
v    138.107599 24.418973 64.214946
v    132.757368 22.471805 69.505671
v    130.686168 21.742331 70.985634
v    125.267588 19.745021 74.872892
v    112.419579 15.184039 79.242900
v    109.577643 14.046266 80.220187
v    104.954161 12.225981 80.163618
v    99.621238 9.259001 80.095813
v    139.511860 19.797368 65.991053
v    140.419555 19.678574 65.991053
v    140.068586 20.524058 65.991053
v    140.488140 20.202632 73.987000
v    139.580445 20.321426 73.987000
v    139.931414 19.475942 73.987000
v    139.421645 24.166464 69.892056
v    143.127197 24.935352 78.285032
v    146.391710 25.774782 83.454826
v    149.220553 26.299692 87.814399
v    152.509461 27.110337 90.717515
v    158.075164 27.503188 95.304934
v    142.542308 16.648793 69.892056
v    145.703033 18.730168 78.285032
v    148.602331 20.449400 83.454826
v    150.971296 22.082154 87.814399
v    153.867433 23.838985 90.717515
v    158.075164 27.503188 95.304934
v    145.058649 22.497628 2.123098
v    145.178511 22.522623 2.121738
v    145.084944 22.443648 2.123098
v    145.178511 22.522623 2.121738
v    134.474251 15.549276 3.217588
v    134.403856 15.517190 3.216729
v    134.450532 15.578885 3.217588
v    134.403856 15.517190 3.216729
v    147.358043 22.872913 4.761409
v    147.411051 22.879459 4.760816
v    147.367529 22.848499 4.761409
v    147.411051 22.879459 4.760816
v    129.822145 17.584461 7.514892
v    129.790759 17.584945 7.514543
v    129.818601 17.599440 7.514892
v    129.790759 17.584945 7.514543
v    149.343450 30.676011 10.522429
v    149.357853 30.685946 10.522235
v    149.349905 30.670359 10.522429
v    149.357853 30.685946 10.522235
mtllib usm_40_2.5D_2018-08-01_3.mtl
usemtl APPID_647673792_2676410484336 
o vid_3 
f 3 2 1
f 4 5 6
f 1 6 5
f 1 5 3
f 3 5 4
f 4 2 3
f 2 4 6
f 6 1 2
usemtl APPID_647676816_2676410483696 
o vid_4 
f 7 14 15
f 8 15 16
f 9 16 17
f 10 17 18
f 11 18 19
f 7 15 8
f 8 16 9
f 9 17 10
f 10 18 11
f 11 19 12
f 12 19 20
f 12 20 13
usemtl APPID_647673792_2676410484336 
o vid_5 
f 23 22 21
f 24 25 26
f 21 26 25
f 21 25 23
f 23 25 24
f 24 22 23
f 22 24 26
f 26 21 22
usemtl APPID_647676816_2676410483696 
o vid_6 
f 27 33 34
f 28 34 35
f 29 35 36
f 30 36 37
f 27 34 28
f 28 35 29
f 29 36 30
f 30 37 31
f 31 37 38
f 31 38 32
usemtl APPID_647673792_2676410484336 
o vid_7 
f 41 40 39
f 42 43 44
f 39 44 43
f 39 43 41
f 41 43 42
f 42 40 41
f 40 42 44
f 44 39 40
usemtl APPID_647676816_2676410483696 
o vid_8 
f 45 52 53
f 46 53 54
f 47 54 55
f 48 55 56
f 49 56 57
f 45 53 46
f 46 54 47
f 47 55 48
f 48 56 49
f 49 57 50
f 50 57 58
f 50 58 51
usemtl APPID_647673792_2676410484336 
o vid_9 
f 61 60 59
f 62 63 64
f 59 64 63
f 59 63 61
f 61 63 62
f 62 60 61
f 60 62 64
f 64 59 60
usemtl APPID_647676816_2676410483696 
o vid_10 
f 65 72 73
f 66 73 74
f 67 74 75
f 68 75 76
f 69 76 77
f 65 73 66
f 66 74 67
f 67 75 68
f 68 76 69
f 69 77 70
f 70 77 78
f 70 78 71
usemtl APPID_647673792_2676410484336 
o vid_11 
f 81 80 79
f 82 83 84
f 79 84 83
f 79 83 81
f 81 83 82
f 82 80 81
f 80 82 84
f 84 79 80
usemtl APPID_647676816_2676410483696 
o vid_12 
f 85 91 92
f 86 92 93
f 87 93 94
f 88 94 95
f 85 92 86
f 86 93 87
f 87 94 88
f 88 95 89
f 89 95 96
f 89 96 90
usemtl APPID_647673792_2676410484336 
o vid_13 
f 99 98 97
f 100 101 102
f 97 102 101
f 97 101 99
f 99 101 100
f 100 98 99
f 98 100 102
f 102 97 98
usemtl APPID_647676816_2676410483696 
o vid_14 
f 103 110 111
f 104 111 112
f 105 112 113
f 106 113 114
f 107 114 115
f 103 111 104
f 104 112 105
f 105 113 106
f 106 114 107
f 107 115 108
f 108 115 116
usemtl APPID_647673792_2676410484336 
o vid_15 
f 119 118 117
f 120 121 122
f 117 122 121
f 117 121 119
f 119 121 120
f 120 118 119
f 118 120 122
f 122 117 118
usemtl APPID_647676816_2676410483696 
o vid_16 
f 123 130 131
f 124 131 132
f 125 132 133
f 126 133 134
f 127 134 135
f 123 131 124
f 124 132 125
f 125 133 126
f 126 134 127
f 127 135 128
f 128 135 136
usemtl APPID_647673792_2676410484336 
o vid_17 
f 139 138 137
f 140 141 142
f 137 142 141
f 137 141 139
f 139 141 140
f 140 138 139
f 138 140 142
f 142 137 138
usemtl APPID_647676816_2676410483696 
o vid_18 
f 143 150 151
f 144 151 152
f 145 152 153
f 146 153 154
f 147 154 155
f 143 151 144
f 144 152 145
f 145 153 146
f 146 154 147
f 147 155 148
f 148 155 156
usemtl APPID_647673792_2676410484336 
o vid_19 
f 159 158 157
f 160 161 162
f 157 162 161
f 157 161 159
f 159 161 160
f 160 158 159
f 158 160 162
f 162 157 158
usemtl APPID_647676816_2676410483696 
o vid_20 
f 163 171 172
f 164 172 173
f 165 173 174
f 166 174 175
f 167 175 176
f 168 176 177
f 163 172 164
f 164 173 165
f 165 174 166
f 166 175 167
f 167 176 168
f 168 177 169
f 169 177 178
usemtl APPID_647673792_2676410484336 
o vid_21 
f 181 180 179
f 182 183 184
f 179 184 183
f 179 183 181
f 181 183 182
f 182 180 181
f 180 182 184
f 184 179 180
usemtl APPID_647676816_2676410483696 
o vid_22 
f 185 193 194
f 186 194 195
f 187 195 196
f 188 196 197
f 189 197 198
f 190 198 199
f 185 194 186
f 186 195 187
f 187 196 188
f 188 197 189
f 189 198 190
f 190 199 191
f 191 199 200
usemtl APPID_647673792_2676410484336 
o vid_23 
f 203 202 201
f 204 205 206
f 201 206 205
f 201 205 203
f 203 205 204
f 204 202 203
f 202 204 206
f 206 201 202
usemtl APPID_647676816_2676410483696 
o vid_24 
f 207 213 214
f 208 214 215
f 209 215 216
f 210 216 217
f 207 214 208
f 208 215 209
f 209 216 210
f 210 217 211
f 211 217 218
usemtl APPID_647678608_2676410482416 
o vid_10000004 
f 219 221 222
f 219 222 220
f 219 221 222
usemtl APPID_647678608_2676410482416 
o vid_10000006 
f 223 225 226
f 223 226 224
f 223 225 226
usemtl APPID_647678608_2676410482416 
o vid_10000008 
f 227 229 230
f 227 230 228
f 227 229 230
usemtl APPID_647678608_2676410482416 
o vid_10000010 
f 231 233 234
f 231 234 232
f 231 233 234
usemtl APPID_647678608_2676410482416 
o vid_10000012 
f 235 237 238
f 235 238 236
f 235 237 238
