# File generated by PlantGL - Fri Sep  4 14:43:11 2026
v    17.752484 178.905161 0.000000
v    22.071916 178.601013 0.000000
v    20.175600 182.493825 0.000000
v    22.247516 181.094839 0.848509
v    17.928084 181.398987 0.848509
v    19.824400 177.506175 0.848509
v    22.062176 181.449172 0.689211
v    22.418914 181.585181 1.043985
v    22.463651 181.601401 1.088135
v    22.412274 180.730480 0.689211
v    22.739272 180.927540 1.043985
v    22.779622 180.952769 1.088135
v    21.879284 181.505407 0.848509
v    17.756638 180.874804 0.848509
v    20.364078 177.619789 0.848509
v    18.120716 178.494593 1.417165
v    22.243362 179.125196 1.417165
v    19.635922 182.380211 1.417165
v    18.493089 178.055650 1.191725
v    18.172537 177.842723 1.549324
v    17.773629 178.953792 1.191725
v    17.495873 178.687442 1.549324
v    17.841416 179.161313 1.417165
v    21.805616 178.549955 1.417165
v    20.352968 182.288732 1.417165
v    22.158584 180.838687 2.253766
v    18.194384 181.450045 2.253766
v    19.647032 177.711268 2.253766
v    21.871471 181.515591 1.940991
v    22.052737 181.568015 2.116336
v    22.268367 181.626560 2.323631
v    22.403798 180.145504 1.940991
v    22.572909 180.229214 2.116336
v    22.771501 180.331609 2.323631
v    22.163962 180.511898 2.253766
v    18.474702 181.618097 2.253766
v    19.361335 177.870005 2.253766
v    17.836038 179.488102 4.112548
v    21.525298 178.381903 4.112548
v    20.638665 182.129995 4.112548
v    18.104918 178.484247 3.687130
v    17.414870 178.384729 4.334992
v    17.073057 178.341148 4.654681
v    17.626654 180.506031 3.687130
v    16.965153 180.285833 4.334992
v    16.640041 180.171649 4.654681
v    18.595695 178.396392 4.112548
v    22.090917 179.585640 4.112548
v    19.313387 182.017967 4.112548
v    21.404305 181.603608 5.999272
v    17.909083 180.414360 5.999272
v    20.686613 177.982033 5.999272
v    20.283964 182.530526 5.432015
v    21.512071 183.703656 7.010231
v    21.600364 183.785267 7.121779
v    21.773348 183.949153 7.282177
v    22.470938 180.615359 5.432015
v    23.471775 181.987512 7.010231
v    23.541024 182.085801 7.121779
v    23.680653 182.278896 7.282177
v    21.718982 181.097521 5.999272
v    18.190028 180.939922 5.999272
v    20.090990 177.962557 5.999272
v    18.281018 178.902479 12.880915
v    21.809972 179.060078 12.880915
v    19.909010 182.037443 12.880915
v    19.368105 177.298854 12.139389
v    17.258759 176.202920 14.348271
v    14.300665 174.676718 16.589090
v    12.686470 173.821738 17.174589
v    17.283752 180.563452 12.139389
v    15.401940 179.111146 14.348271
v    12.772648 177.069961 16.589090
v    11.317782 175.965433 17.174589
v    18.420020 178.861621 12.880915
v    21.775855 179.200887 12.880915
v    19.804125 181.937492 12.880915
v    21.579980 181.138379 19.681199
v    18.224145 180.799113 19.681199
v    20.195875 178.062508 19.681199
v    20.092759 183.085712 18.730912
v    22.679033 184.619523 21.525065
v    26.391624 186.800160 24.433329
v    30.688644 189.394773 26.042278
v    22.956396 179.111211 18.730912
v    25.230014 181.078964 21.525065
v    28.473730 183.910363 24.433329
v    32.295134 187.165092 26.042278
v    21.554633 181.012481 19.681199
v    18.345849 180.840111 19.681199
v    20.099518 178.147408 19.681199
v    18.445367 178.987519 30.874713
v    21.654151 179.159889 30.874713
v    19.900482 181.852592 30.874713
v    20.237036 176.393667 29.680823
v    16.856979 174.598545 33.237223
v    16.077933 174.174347 33.835062
v    12.120082 172.093180 36.845043
v    4.655998 168.052933 39.565540
v    2.750573 167.117322 40.243216
v    16.797474 181.675008 29.680823
v    13.788927 179.309445 33.237223
v    13.085947 178.768449 33.835062
v    9.582151 175.990094 36.845043
v    2.868832 170.797070 39.565540
v    1.242663 169.432672 40.243216
v    18.458123 179.144816 30.874713
v    21.511550 179.092287 30.874713
v    20.030327 181.762897 30.874713
v    21.541877 180.855184 48.403654
v    18.488450 180.907713 48.403654
v    19.969673 178.237103 48.403654
v    19.442724 184.422059 46.933184
v    23.751919 186.332711 51.313467
v    27.711094 188.137706 54.246031
v    29.766982 189.039169 55.757083
v    42.348495 194.737369 60.184202
v    47.430480 196.850799 60.121521
v    23.456226 177.185810 46.933184
v    27.358744 179.829691 51.313467
v    30.986299 182.232589 54.246031
v    32.839600 183.499312 55.757083
v    44.335277 191.155249 60.184202
v    48.819000 194.347330 60.121521
v    21.614895 180.429572 48.403654
v    18.820532 181.183754 48.403654
v    19.564573 178.386674 48.403654
v    18.385105 179.570428 69.787331
v    21.179468 178.816246 69.787331
v    20.435427 181.613326 69.787331
v    19.810547 174.708056 68.011795
v    14.201781 173.739895 73.300820
v    8.161679 172.632422 77.439494
v    6.364396 172.329787 78.666316
v    -10.046715 169.362903 84.011893
v    -19.149597 167.974883 83.906986
v    17.206257 184.498396 68.011795
v    11.857746 182.551853 73.300820
v    6.065690 180.511899 77.439494
v    4.355581 179.881547 78.666316
v    -11.360642 174.302361 84.011893
v    -19.950072 170.984118 83.906986
v    18.541706 179.394647 69.787331
v    21.253398 179.039757 69.787331
v    20.204896 181.565597 69.787331
v    21.458294 180.605353 89.666693
v    18.746602 180.960243 89.666693
v    19.795104 178.434403 89.666693
v    19.160691 185.746350 87.564926
v    25.588419 187.765780 93.825739
v    28.057765 188.569917 95.576011
v    34.587275 190.591868 100.177074
v    49.938388 195.548753 105.347777
v    53.428843 196.524696 106.504830
v    59.080641 198.140002 106.437910
v    60.353361 198.326817 106.423618
v    23.476925 175.348552 87.564926
v    29.445190 178.474827 93.825739
v    31.758087 179.655848 95.576011
v    37.799998 182.852425 100.177074
v    52.148656 190.224224 105.347777
v    55.304151 192.007083 106.504830
v    60.438395 194.869175 106.437910
v    61.469266 195.638604 106.423618
v    21.148136 180.944713 89.666693
v    18.607786 180.521958 89.666693
v    20.244078 178.533328 89.666693
v    18.851864 179.055287 113.619407
v    21.392214 179.478042 113.619407
v    19.755922 181.466672 113.619407
v    23.201545 174.044837 111.180352
v    16.746055 169.633617 118.445888
v    13.228061 167.175573 121.338307
v    7.719791 163.444744 125.816472
v    -8.858509 151.922611 132.287748
v    -11.161373 150.454074 133.159694
v    -18.192015 145.913638 133.064411
v    -21.550352 144.329386 133.023155
v    14.772858 184.288455 111.180352
v    9.201019 178.803309 118.445888
v    6.111496 175.824533 121.338307
v    1.389727 171.137848 125.816472
v    -13.109358 157.088786 132.287748
v    -14.993889 155.111837 133.159694
v    -20.803287 149.087189 133.064411
v    -23.004628 146.096807 133.023155
v    19.036323 178.991726 113.619407
v    21.355030 179.669568 113.619407
v    19.608648 181.338706 113.619407
v    20.963677 181.008274 134.113200
v    18.644970 180.330432 134.113200
v    20.391352 178.661294 134.113200
v    15.476587 185.976847 131.338346
v    22.170140 191.835190 139.604172
v    24.422378 193.848177 141.640023
v    31.546053 200.031435 147.989510
v    47.110430 213.872993 154.665830
v    51.173321 217.207072 156.343718
v    56.763939 221.848800 156.260992
v    62.165441 225.237443 156.190146
v    26.175231 175.751415 131.338346
v    31.724982 182.702969 139.604172
v    33.634091 185.043908 141.640023
v    39.488979 192.439834 147.989510
v    52.612747 208.614049 154.665830
v    55.759741 212.823514 156.343718
v    60.143981 218.618260 156.260992
v    63.284968 224.167434 156.190146
v    20.853676 180.870045 134.113200
v    18.819681 180.304283 134.113200
v    20.326643 178.825673 134.113200
v    19.146324 179.129955 147.011877
v    21.180319 179.695717 147.011877
v    19.673357 181.174327 147.011877
v    24.731615 173.961303 143.917020
v    20.447309 170.309700 149.148085
v    17.130527 167.575451 153.136080
v    6.519301 158.606340 162.488434
v    -3.893170 149.588195 166.903731
v    -14.505302 141.110147 171.240019
v    -21.760033 136.715858 171.732064
v    13.872535 184.616083 143.917020
v    10.302953 180.263202 149.148085
v    7.632185 176.895093 153.136080
v    -1.133793 166.115450 162.488434
v    -9.952571 155.533596 166.903731
v    -18.227557 144.762373 171.240019
v    -22.483282 137.425499 171.732064
v    19.367801 179.299525 147.011877
v    20.922729 179.802737 147.011877
v    19.709470 180.897738 147.011877
v    20.632199 180.700475 158.351778
v    19.077271 180.197263 158.351778
v    20.290530 179.102262 158.351778
v    14.148749 186.224427 154.967837
v    20.286786 191.914363 162.745325
v    33.318025 203.853549 175.273965
v    46.379623 216.155417 181.025204
v    56.866593 225.274869 185.461938
v    67.287397 232.394330 185.321351
v    26.789815 174.815500 154.967837
v    31.822673 181.502891 162.745325
v    42.367602 195.686045 175.273965
v    53.270210 209.936463 181.025204
v    61.270182 221.300503 185.461938
v    67.287397 232.394330 185.321351
v    20.684188 180.133193 158.351778
v    19.542558 180.525927 158.351778
v    19.773255 179.340880 158.351778
v    19.315812 179.866807 164.743004
v    20.457442 179.474073 164.743004
v    20.226745 180.659120 164.743004
v    21.196210 171.571582 161.115678
v    9.599687 170.530417 171.920875
v    -6.604863 168.919228 182.882299
v    -16.635705 167.799829 186.117475
v    -32.514902 166.663408 191.199821
v    -40.871434 167.227404 193.803029
v    -44.559031 167.432102 193.761994
v    17.947106 188.261645 161.115678
v    6.806877 184.876578 171.920875
v    -8.818698 180.291303 182.882299
v    -18.536932 177.566090 186.117475
v    -33.682815 172.662767 191.199821
v    -41.217518 169.005177 193.803029
v    -44.559031 167.432102 193.761994
v    19.630300 179.695010 164.743004
v    20.448979 179.832326 164.743004
v    19.920720 180.472665 164.743004
v    20.369700 180.304990 168.100564
v    19.551021 180.167674 168.100564
v    20.079280 179.527335 168.100564
v    15.237452 186.095718 164.288745
v    25.445801 192.846982 175.643514
v    36.264051 200.194515 184.446263
v    39.719978 202.318860 187.162456
v    49.895890 208.826346 191.018561
v    61.264588 214.041968 194.906180
v    25.079374 174.165653 164.288745
v    33.647874 182.904690 175.643514
v    42.917698 192.129177 184.446263
v    45.660187 195.118328 187.162456
v    53.983188 203.871855 191.018561
v    61.264588 214.041968 194.906180
v    20.232125 180.174310 168.100564
v    19.732981 180.113871 168.100564
v    20.034894 179.711819 168.100564
v    19.767875 179.825690 169.470000
v    20.267019 179.886129 169.470000
v    19.965106 180.288181 169.470000
v    22.284776 174.094766 161.997045
v    19.705624 173.043711 170.741350
v    17.267685 172.369107 178.385224
v    13.070012 170.658646 187.344225
v    7.425698 169.966842 197.417278
v    6.136713 169.589635 198.798643
v    14.966136 183.840861 161.997045
v    13.237560 181.657111 170.741350
v    11.909879 179.503996 178.385224
v    9.096717 175.949808 187.344225
v    6.858400 170.722302 197.417278
v    6.136713 169.589635 198.798643
v    22.463651 181.601401 1.088135
v    23.209532 181.881197 1.645119
v    23.981556 182.182564 1.910764
v    24.615034 182.401301 2.124717
v    25.179534 182.523121 2.118289
v    22.779622 180.952769 1.088135
v    23.459716 181.367612 1.645119
v    24.172911 181.789744 1.910764
v    24.735640 182.153718 2.124717
v    25.179534 182.523121 2.118289
v    18.172537 177.842723 1.549324
v    17.952089 177.696291 1.795251
v    17.045018 177.100207 2.544531
v    15.955528 176.364007 2.966002
v    15.270467 175.939683 3.223260
v    14.402372 175.516002 3.212460
v    17.495873 178.687442 1.549324
v    17.304855 178.504269 1.795251
v    16.525166 177.749167 2.544531
v    15.568924 176.846627 2.966002
v    15.005309 176.270696 3.223260
v    14.402372 175.516002 3.212460
v    22.268367 181.626560 2.323631
v    22.839506 181.781627 2.872696
v    24.189986 182.166193 3.817872
v    25.050082 182.422343 4.105528
v    26.380214 182.761644 4.543766
v    27.070176 182.838494 4.759540
v    27.415309 182.881113 4.755676
v    22.771501 180.331609 2.323631
v    23.297513 180.602825 2.872696
v    24.553375 181.230916 3.817872
v    25.360790 181.622654 4.105528
v    26.571081 182.270399 4.543766
v    27.131937 182.679536 4.759540
v    27.415309 182.881113 4.755676
v    17.073057 178.341148 4.654681
v    16.752619 178.300292 4.954378
v    14.861209 178.035448 6.239948
v    13.087865 177.765341 6.814920
v    11.232355 177.557661 7.410984
v    9.787523 177.584179 7.508613
v    16.640041 180.171649 4.654681
v    16.335260 180.064605 4.954378
v    14.525654 179.453953 6.239948
v    12.819241 178.900903 6.814920
v    11.067341 178.255230 7.410984
v    9.787523 177.584179 7.508613
v    21.773348 183.949153 7.282177
v    23.449069 185.536734 8.835975
v    25.883250 187.899107 9.923242
v    27.330796 189.196465 10.543807
v    27.755197 189.581251 10.537285
v    29.359619 190.687963 10.515629
v    23.680653 182.278896 7.282177
v    25.033260 184.149433 8.835975
v    27.053816 186.874025 9.923242
v    28.148843 188.480088 10.543807
v    28.474269 188.951548 10.537285
v    29.359619 190.687963 10.515629
v    12.686470 173.821738 17.174589
v    9.909246 172.350745 18.181940
v    8.102834 171.483923 18.821590
v    6.922405 170.909123 18.806643
v    4.504268 170.106418 18.778334
v    11.317782 175.965433 17.174589
v    8.814684 174.065092 18.181940
v    7.268189 172.791178 18.821590
v    6.250022 171.962237 18.806643
v    4.504268 170.106418 18.778334
v    30.688644 189.394773 26.042278
v    31.436216 189.846171 26.322195
v    34.103396 191.315508 27.294341
v    35.134904 191.891505 27.280891
v    38.171229 193.092413 27.244613
v    32.295134 187.165092 26.042278
v    32.959962 187.731333 26.322195
v    35.198032 189.796240 27.294341
v    36.070932 190.592373 27.280891
v    38.171229 193.092413 27.244613
v    2.750573 167.117322 40.243216
v    2.198770 166.846373 40.439469
v    -0.152244 165.675165 40.409566
v    -4.033715 164.347642 40.363987
v    1.242663 169.432672 40.243216
v    0.771731 169.037547 40.439469
v    -1.250090 167.360873 40.409566
v    -4.033715 164.347642 40.363987
v    47.430480 196.850799 60.121521
v    48.980320 197.490254 60.102434
v    51.375508 198.124032 60.074906
v    53.829276 198.763020 59.625751
v    48.819000 194.347330 60.121521
v    50.182087 195.323497 60.102434
v    51.987963 197.019790 60.074906
v    53.829276 198.763020 59.625751
v    -19.149597 167.974883 83.906986
v    -19.675834 167.898091 83.900931
v    -21.566581 167.874900 83.879922
v    -25.712016 167.840322 83.145577
v    -19.950072 170.984118 83.906986
v    -20.444913 170.789297 83.900931
v    -22.097288 169.869995 83.879922
v    -25.712016 167.840322 83.145577
v    60.353361 198.326817 106.423618
v    66.225757 199.188791 106.357672
v    61.469266 195.638604 106.423618
v    66.225757 199.188791 106.357672
v    -21.550352 144.329386 133.023155
v    -25.192963 142.611033 132.978406
v    -25.763796 142.344484 132.866808
v    -23.004628 146.096807 133.023155
v    -25.392305 142.853299 132.978406
v    -25.763796 142.344484 132.866808
v    62.165441 225.237443 156.190146
v    64.840551 226.915679 156.155059
v    63.284968 224.167434 156.190146
v    64.840551 226.915679 156.155059
v    -21.760033 136.715858 171.732064
v    -23.524578 135.640858 171.709107
v    -22.483282 137.425499 171.732064
v    -23.524578 135.640858 171.709107
mtllib usm_24_2.5D_2018-08-20_4.mtl
usemtl APPID_2736918256_2060026140912 
o vid_3 
f 3 2 1
f 4 5 6
f 1 6 5
f 1 5 3
f 3 5 4
f 4 2 3
f 2 4 6
f 6 1 2
usemtl APPID_2736915344_2060026139760 
o vid_4 
f 7 10 11
f 7 11 8
f 8 11 12
f 8 12 9
usemtl APPID_2736918256_2060026140912 
o vid_5 
f 15 14 13
f 16 17 18
f 13 18 17
f 13 17 15
f 15 17 16
f 16 14 15
f 14 16 18
f 18 13 14
usemtl APPID_2736915344_2060026139760 
o vid_6 
f 19 21 22
f 19 22 20
f 19 21 22
f 19 22 20
usemtl APPID_2736918256_2060026140912 
o vid_7 
f 25 24 23
f 26 27 28
f 23 28 27
f 23 27 25
f 25 27 26
f 26 24 25
f 24 26 28
f 28 23 24
usemtl APPID_2736915344_2060026139760 
o vid_8 
f 29 32 33
f 29 33 30
f 30 33 34
f 30 34 31
usemtl APPID_2736918256_2060026140912 
o vid_9 
f 37 36 35
f 38 39 40
f 35 40 39
f 35 39 37
f 37 39 38
f 38 36 37
f 36 38 40
f 40 35 36
usemtl APPID_2736915344_2060026139760 
o vid_10 
f 41 44 45
f 41 45 42
f 42 45 46
f 42 46 43
usemtl APPID_2736918256_2060026140912 
o vid_11 
f 49 48 47
f 50 51 52
f 47 52 51
f 47 51 49
f 49 51 50
f 50 48 49
f 48 50 52
f 52 47 48
usemtl APPID_2736915344_2060026139760 
o vid_12 
f 53 57 58
f 54 58 59
f 53 58 54
f 54 59 55
f 55 59 60
f 55 60 56
usemtl APPID_2736918256_2060026140912 
o vid_13 
f 63 62 61
f 64 65 66
f 61 66 65
f 61 65 63
f 63 65 64
f 64 62 63
f 62 64 66
f 66 61 62
usemtl APPID_2736915344_2060026139760 
o vid_14 
f 67 71 72
f 68 72 73
f 67 72 68
f 68 73 69
f 69 73 74
f 69 74 70
usemtl APPID_2736918256_2060026140912 
o vid_15 
f 77 76 75
f 78 79 80
f 75 80 79
f 75 79 77
f 77 79 78
f 78 76 77
f 76 78 80
f 80 75 76
usemtl APPID_2736915344_2060026139760 
o vid_16 
f 81 85 86
f 82 86 87
f 81 86 82
f 82 87 83
f 83 87 88
f 83 88 84
usemtl APPID_2736918256_2060026140912 
o vid_17 
f 91 90 89
f 92 93 94
f 89 94 93
f 89 93 91
f 91 93 92
f 92 90 91
f 90 92 94
f 94 89 90
usemtl APPID_2736915344_2060026139760 
o vid_18 
f 95 101 102
f 96 102 103
f 97 103 104
f 98 104 105
f 95 102 96
f 96 103 97
f 97 104 98
f 98 105 99
f 99 105 106
f 99 106 100
usemtl APPID_2736918256_2060026140912 
o vid_19 
f 109 108 107
f 110 111 112
f 107 112 111
f 107 111 109
f 109 111 110
f 110 108 109
f 108 110 112
f 112 107 108
usemtl APPID_2736915344_2060026139760 
o vid_20 
f 113 119 120
f 114 120 121
f 115 121 122
f 116 122 123
f 113 120 114
f 114 121 115
f 115 122 116
f 116 123 117
f 117 123 124
f 117 124 118
usemtl APPID_2736918256_2060026140912 
o vid_21 
f 127 126 125
f 128 129 130
f 125 130 129
f 125 129 127
f 127 129 128
f 128 126 127
f 126 128 130
f 130 125 126
usemtl APPID_2736915344_2060026139760 
o vid_22 
f 131 137 138
f 132 138 139
f 133 139 140
f 134 140 141
f 131 138 132
f 132 139 133
f 133 140 134
f 134 141 135
f 135 141 142
f 135 142 136
usemtl APPID_2736918256_2060026140912 
o vid_23 
f 145 144 143
f 146 147 148
f 143 148 147
f 143 147 145
f 145 147 146
f 146 144 145
f 144 146 148
f 148 143 144
usemtl APPID_2736915344_2060026139760 
o vid_24 
f 149 157 158
f 150 158 159
f 151 159 160
f 152 160 161
f 153 161 162
f 154 162 163
f 149 158 150
f 150 159 151
f 151 160 152
f 152 161 153
f 153 162 154
f 154 163 155
f 155 163 164
f 155 164 156
usemtl APPID_2736918256_2060026140912 
o vid_25 
f 167 166 165
f 168 169 170
f 165 170 169
f 165 169 167
f 167 169 168
f 168 166 167
f 166 168 170
f 170 165 166
usemtl APPID_2736915344_2060026139760 
o vid_26 
f 171 179 180
f 172 180 181
f 173 181 182
f 174 182 183
f 175 183 184
f 176 184 185
f 171 180 172
f 172 181 173
f 173 182 174
f 174 183 175
f 175 184 176
f 176 185 177
f 177 185 186
f 177 186 178
usemtl APPID_2736918256_2060026140912 
o vid_27 
f 189 188 187
f 190 191 192
f 187 192 191
f 187 191 189
f 189 191 190
f 190 188 189
f 188 190 192
f 192 187 188
usemtl APPID_2736915344_2060026139760 
o vid_28 
f 193 201 202
f 194 202 203
f 195 203 204
f 196 204 205
f 197 205 206
f 198 206 207
f 193 202 194
f 194 203 195
f 195 204 196
f 196 205 197
f 197 206 198
f 198 207 199
f 199 207 208
f 199 208 200
usemtl APPID_2736918256_2060026140912 
o vid_29 
f 211 210 209
f 212 213 214
f 209 214 213
f 209 213 211
f 211 213 212
f 212 210 211
f 210 212 214
f 214 209 210
usemtl APPID_2736915344_2060026139760 
o vid_30 
f 215 222 223
f 216 223 224
f 217 224 225
f 218 225 226
f 219 226 227
f 215 223 216
f 216 224 217
f 217 225 218
f 218 226 219
f 219 227 220
f 220 227 228
f 220 228 221
usemtl APPID_2736918256_2060026140912 
o vid_31 
f 231 230 229
f 232 233 234
f 229 234 233
f 229 233 231
f 231 233 232
f 232 230 231
f 230 232 234
f 234 229 230
usemtl APPID_2736915344_2060026139760 
o vid_32 
f 235 241 242
f 236 242 243
f 237 243 244
f 238 244 245
f 235 242 236
f 236 243 237
f 237 244 238
f 238 245 239
f 239 245 246
usemtl APPID_2736918256_2060026140912 
o vid_33 
f 249 248 247
f 250 251 252
f 247 252 251
f 247 251 249
f 249 251 250
f 250 248 249
f 248 250 252
f 252 247 248
usemtl APPID_2736915344_2060026139760 
o vid_34 
f 253 260 261
f 254 261 262
f 255 262 263
f 256 263 264
f 257 264 265
f 253 261 254
f 254 262 255
f 255 263 256
f 256 264 257
f 257 265 258
f 258 265 266
usemtl APPID_2736918256_2060026140912 
o vid_35 
f 269 268 267
f 270 271 272
f 267 272 271
f 267 271 269
f 269 271 270
f 270 268 269
f 268 270 272
f 272 267 268
usemtl APPID_2736915344_2060026139760 
o vid_36 
f 273 279 280
f 274 280 281
f 275 281 282
f 276 282 283
f 273 280 274
f 274 281 275
f 275 282 276
f 276 283 277
f 277 283 284
usemtl APPID_2736918256_2060026140912 
o vid_37 
f 287 286 285
f 288 289 290
f 285 290 289
f 285 289 287
f 287 289 288
f 288 286 287
f 286 288 290
f 290 285 286
usemtl APPID_2736915344_2060026139760 
o vid_38 
f 291 297 298
f 292 298 299
f 293 299 300
f 294 300 301
f 291 298 292
f 292 299 293
f 293 300 294
f 294 301 295
f 295 301 302
usemtl APPID_2736886224_2060026140016 
o vid_10000004 
f 303 308 309
f 304 309 310
f 305 310 311
f 303 309 304
f 304 310 305
f 305 311 306
f 306 311 312
usemtl APPID_2736886224_2060026140016 
o vid_10000006 
f 313 319 320
f 314 320 321
f 315 321 322
f 316 322 323
f 313 320 314
f 314 321 315
f 315 322 316
f 316 323 317
f 317 323 324
usemtl APPID_2736886224_2060026140016 
o vid_10000008 
f 325 332 333
f 326 333 334
f 327 334 335
f 328 335 336
f 329 336 337
f 325 333 326
f 326 334 327
f 327 335 328
f 328 336 329
f 329 337 330
f 330 337 338
usemtl APPID_2736886224_2060026140016 
o vid_10000010 
f 339 345 346
f 340 346 347
f 341 347 348
f 342 348 349
f 339 346 340
f 340 347 341
f 341 348 342
f 342 349 343
f 343 349 350
usemtl APPID_2736886224_2060026140016 
o vid_10000012 
f 351 357 358
f 352 358 359
f 353 359 360
f 354 360 361
f 351 358 352
f 352 359 353
f 353 360 354
f 354 361 355
f 355 361 362
usemtl APPID_2736886224_2060026140016 
o vid_10000014 
f 363 368 369
f 364 369 370
f 365 370 371
f 363 369 364
f 364 370 365
f 365 371 366
f 366 371 372
usemtl APPID_2736886224_2060026140016 
o vid_10000016 
f 373 378 379
f 374 379 380
f 375 380 381
f 373 379 374
f 374 380 375
f 375 381 376
f 376 381 382
usemtl APPID_2736886224_2060026140016 
o vid_10000018 
f 383 387 388
f 384 388 389
f 383 388 384
f 384 389 385
f 385 389 390
usemtl APPID_2736886224_2060026140016 
o vid_10000020 
f 391 395 396
f 392 396 397
f 391 396 392
f 392 397 393
f 393 397 398
usemtl APPID_2736886224_2060026140016 
o vid_10000022 
f 399 403 404
f 400 404 405
f 399 404 400
f 400 405 401
f 401 405 406
usemtl APPID_2736886224_2060026140016 
o vid_10000024 
f 407 409 410
f 407 410 408
f 407 409 410
usemtl APPID_2736886224_2060026140016 
o vid_10000026 
f 411 414 415
f 411 415 412
f 412 415 416
usemtl APPID_2736886224_2060026140016 
o vid_10000028 
f 417 419 420
f 417 420 418
f 417 419 420
usemtl APPID_2736886224_2060026140016 
o vid_10000030 
f 421 423 424
f 421 424 422
f 421 423 424
