# File generated by PlantGL - Fri Sep  4 14:42:52 2026
v    18.201987 19.124129 0.000000
v    21.657533 18.880811 0.000000
v    20.140480 21.995060 0.000000
v    21.798013 20.875871 0.231332
v    18.342467 21.119189 0.231332
v    19.859520 18.004940 0.231332
v    21.024856 20.874446 -2.173816
v    22.137255 21.041127 -1.152915
v    21.320298 20.267955 -2.173816
v    22.137255 21.041127 -1.152915
v    21.503548 21.204422 0.231332
v    18.205166 20.699900 0.231332
v    20.291286 18.095678 0.231332
v    18.496452 18.795578 0.322458
v    21.794834 19.300100 0.322458
v    19.708714 21.904322 0.322458
v    19.310588 18.892012 -2.082691
v    17.962548 18.367893 -0.769967
v    18.768254 19.569039 -2.082691
v    17.962548 18.367893 -0.769967
v    18.272844 19.328938 0.322458
v    21.444735 18.839770 0.322458
v    20.282421 21.831292 0.322458
v    21.727156 20.671062 0.466406
v    18.555265 21.160230 0.466406
v    19.717579 18.168708 0.466406
v    20.860370 20.981000 -1.938742
v    22.866166 21.113608 -0.114278
v    21.297001 19.857216 -1.938742
v    22.866166 21.113608 -0.114278
v    21.731622 20.409625 0.466406
v    18.779443 21.294816 0.466406
v    19.488935 18.295559 0.466406
v    18.268378 19.590375 0.678771
v    21.220557 18.705184 0.678771
v    20.511065 21.704441 0.678771
v    19.141799 18.920242 -1.726378
v    16.304106 19.125715 0.855898
v    18.748982 20.580810 -1.726378
v    16.304106 19.125715 0.855898
v    18.982707 18.838330 0.678771
v    21.514682 19.699834 0.678771
v    19.502611 21.461836 0.678771
v    21.017293 21.161670 0.919581
v    18.485318 20.300166 0.919581
v    20.497389 18.538164 0.919581
v    19.388598 21.663195 -1.485567
v    23.819370 24.361426 3.222862
v    21.729323 19.613385 -1.485567
v    23.819370 24.361426 3.222862
v    21.030412 20.657889 0.919581
v    18.915046 20.563419 0.919581
v    20.054542 18.778693 0.919581
v    18.969588 19.342111 1.432331
v    21.084954 19.436581 1.432331
v    19.945458 21.221307 1.432331
v    20.401610 18.392002 -0.972818
v    15.342513 17.026327 3.783251
v    18.710310 21.040985 -0.972818
v    15.342513 17.026327 3.783251
v    19.250410 19.459919 1.432331
v    20.842519 19.620877 1.432331
v    19.907071 20.919204 1.432331
v    20.749590 20.540081 2.225064
v    19.157481 20.379123 2.225064
v    20.092929 19.080796 2.225064
v    18.908877 21.904750 -0.180085
v    21.365132 23.167676 2.418320
v    25.974956 24.694226 6.825706
v    27.111580 25.123910 7.564784
v    21.461407 18.362041 -0.180085
v    23.436913 20.292209 2.418320
v    26.344195 24.181751 6.825706
v    27.111580 25.123910 7.564784
v    20.543192 20.353763 2.225064
v    19.422036 20.293537 2.225064
v    20.034772 19.352700 2.225064
v    19.456808 19.646237 2.753830
v    20.577964 19.706463 2.753830
v    19.965228 20.647300 2.753830
v    21.068344 18.446563 0.348682
v    20.379583 18.132491 1.060857
v    14.688779 16.540979 6.424097
v    19.011202 21.605242 0.348682
v    18.445450 21.102292 1.060857
v    14.688779 16.540979 6.424097
v    19.654089 19.808144 2.753830
v    20.339107 19.796360 2.753830
v    20.006804 20.395495 2.753830
v    20.345911 20.191856 2.922000
v    19.660893 20.203640 2.922000
v    19.993196 19.604505 2.922000
v    20.235510 20.880766 -1.806443
v    20.922011 20.511383 1.043027
v    20.871868 19.733428 -1.806443
v    20.922011 20.511383 1.043027
mtllib usm_42_2.5D_2018-07-30_0.mtl
usemtl APPID_4002698784_1941179347184 
o vid_3 
f 3 2 1
f 4 5 6
f 1 6 5
f 1 5 3
f 3 5 4
f 4 2 3
f 2 4 6
f 6 1 2
usemtl APPID_4002699792_1941179342064 
o vid_4 
f 7 9 10
f 7 10 8
f 7 9 10
usemtl APPID_4002698784_1941179347184 
o vid_5 
f 13 12 11
f 14 15 16
f 11 16 15
f 11 15 13
f 13 15 14
f 14 12 13
f 12 14 16
f 16 11 12
usemtl APPID_4002699792_1941179342064 
o vid_6 
f 17 19 20
f 17 20 18
f 17 19 20
usemtl APPID_4002698784_1941179347184 
o vid_7 
f 23 22 21
f 24 25 26
f 21 26 25
f 21 25 23
f 23 25 24
f 24 22 23
f 22 24 26
f 26 21 22
usemtl APPID_4002699792_1941179342064 
o vid_8 
f 27 29 30
f 27 30 28
f 27 29 30
usemtl APPID_4002698784_1941179347184 
o vid_9 
f 33 32 31
f 34 35 36
f 31 36 35
f 31 35 33
f 33 35 34
f 34 32 33
f 32 34 36
f 36 31 32
usemtl APPID_4002699792_1941179342064 
o vid_10 
f 37 39 40
f 37 40 38
f 37 39 40
usemtl APPID_4002698784_1941179347184 
o vid_11 
f 43 42 41
f 44 45 46
f 41 46 45
f 41 45 43
f 43 45 44
f 44 42 43
f 42 44 46
f 46 41 42
usemtl APPID_4002699792_1941179342064 
o vid_12 
f 47 49 50
f 47 50 48
f 47 49 50
usemtl APPID_4002698784_1941179347184 
o vid_13 
f 53 52 51
f 54 55 56
f 51 56 55
f 51 55 53
f 53 55 54
f 54 52 53
f 52 54 56
f 56 51 52
usemtl APPID_4002699792_1941179342064 
o vid_14 
f 57 59 60
f 57 60 58
f 57 59 60
usemtl APPID_4002698784_1941179347184 
o vid_15 
f 63 62 61
f 64 65 66
f 61 66 65
f 61 65 63
f 63 65 64
f 64 62 63
f 62 64 66
f 66 61 62
usemtl APPID_4002699792_1941179342064 
o vid_16 
f 67 71 72
f 68 72 73
f 67 72 68
f 68 73 69
f 69 73 74
usemtl APPID_4002698784_1941179347184 
o vid_17 
f 77 76 75
f 78 79 80
f 75 80 79
f 75 79 77
f 77 79 78
f 78 76 77
f 76 78 80
f 80 75 76
usemtl APPID_4002699792_1941179342064 
o vid_18 
f 81 84 85
f 81 85 82
f 82 85 86
usemtl APPID_4002698784_1941179347184 
o vid_19 
f 89 88 87
f 90 91 92
f 87 92 91
f 87 91 89
f 89 91 90
f 90 88 89
f 88 90 92
f 92 87 88
usemtl APPID_4002699792_1941179342064 
o vid_20 
f 93 95 96
f 93 96 94
f 93 95 96
