# File generated by PlantGL - Fri Sep  4 14:43:09 2026
v    18.503653 19.271080 0.000000
v    21.379437 19.068585 0.000000
v    20.116911 21.660335 0.000000
v    21.496347 20.728920 0.231332
v    18.620563 20.931415 0.231332
v    19.883089 18.339665 0.231332
v    20.731090 20.737195 -2.134577
v    21.860840 20.906476 -1.097752
v    21.031140 20.121245 -2.134577
v    21.860840 20.906476 -1.097752
v    21.016358 20.814157 0.231332
v    18.786741 20.473113 0.231332
v    20.196901 18.712730 0.231332
v    18.983642 19.185843 0.322458
v    21.213259 19.526887 0.322458
v    19.803099 21.287270 0.322458
v    19.793071 19.269999 -2.043451
v    18.424396 18.737857 -0.710633
v    19.242435 19.957390 -2.043451
v    18.424396 18.737857 -0.710633
v    19.102358 19.651234 0.322458
v    20.750862 19.397002 0.322458
v    20.146781 20.951764 0.322458
v    20.897642 20.348766 0.466406
v    19.249138 20.602998 0.466406
v    19.853219 19.048236 0.466406
v    20.038210 20.671121 -1.899503
v    22.073654 20.805689 -0.048070
v    20.481294 19.530725 -1.899503
v    22.073654 20.805689 -0.048070
v    20.629397 20.148888 0.466406
v    19.556361 20.470630 0.466406
v    19.814242 19.380482 0.466406
v    19.370603 19.851112 0.563000
v    20.443639 19.529370 0.563000
v    20.185758 20.619518 0.563000
v    20.187445 19.616385 -4.265156
v    19.158883 19.801029 -2.707794
v    19.995703 20.426940 -4.265156
v    19.158883 19.801029 -2.707794
mtllib usm_22_2.5D_2018-07-16_0.mtl
usemtl APPID_683044576_1675719824624 
o vid_3 
f 3 2 1
f 4 5 6
f 1 6 5
f 1 5 3
f 3 5 4
f 4 2 3
f 2 4 6
f 6 1 2
usemtl APPID_683044800_1675719826928 
o vid_4 
f 7 9 10
f 7 10 8
f 7 9 10
usemtl APPID_683044576_1675719824624 
o vid_5 
f 13 12 11
f 14 15 16
f 11 16 15
f 11 15 13
f 13 15 14
f 14 12 13
f 12 14 16
f 16 11 12
usemtl APPID_683044800_1675719826928 
o vid_6 
f 17 19 20
f 17 20 18
f 17 19 20
usemtl APPID_683044576_1675719824624 
o vid_7 
f 23 22 21
f 24 25 26
f 21 26 25
f 21 25 23
f 23 25 24
f 24 22 23
f 22 24 26
f 26 21 22
usemtl APPID_683044800_1675719826928 
o vid_8 
f 27 29 30
f 27 30 28
f 27 29 30
usemtl APPID_683044576_1675719824624 
o vid_9 
f 33 32 31
f 34 35 36
f 31 36 35
f 31 35 33
f 33 35 34
f 34 32 33
f 32 34 36
f 36 31 32
usemtl APPID_683044800_1675719826928 
o vid_10 
f 37 39 40
f 37 40 38
f 37 39 40
