# File generated by PlantGL - Wed Jul 15 17:34:40 2026
v    21.091323 179.313875 0.000000
v    23.798271 179.123268 0.000000
v    22.609867 181.562857 0.000000
v    23.908317 180.686125 2.682187
v    21.201369 180.876732 2.682187
v    22.389773 178.437143 2.682187
v    23.830615 180.911910 2.594034
v    24.019310 180.975606 2.918391
v    24.090555 181.000258 3.041291
v    24.309478 181.083769 3.276164
v    24.451546 181.135563 3.427526
v    24.685103 181.225880 3.570265
v    24.957685 181.322694 3.734702
v    25.223213 181.420803 3.792780
v    25.600048 181.510223 3.870706
v    24.038206 180.485762 2.594034
v    24.204677 180.595079 2.918391
v    24.268006 180.635982 3.041291
v    24.468713 180.756887 3.276164
v    24.597071 180.836826 3.427526
v    24.812158 180.965058 3.570265
v    25.056417 181.120015 3.734702
v    25.297348 181.268618 3.792780
v    25.600048 181.510223 3.870706
v    23.383912 180.708205 2.682187
v    21.444451 180.411544 2.682187
v    22.671097 178.880252 2.682187
v    21.615728 179.291795 4.036533
v    23.555189 179.588456 4.036533
v    22.328543 181.119748 4.036533
v    21.778746 179.021116 3.908975
v    21.441121 178.812176 4.556158
v    20.989533 178.521232 5.093912
v    20.332104 178.106618 5.544835
v    19.831286 177.862362 5.666311
v    21.387155 179.509961 3.908975
v    21.109562 179.226079 4.556158
v    20.727070 178.848879 5.093912
v    20.178961 178.297795 5.544835
v    19.831286 177.862362 5.666311
v    21.821613 179.736492 4.036533
v    23.067128 179.544409 4.036533
v    22.610719 180.719098 4.036533
v    23.178027 180.263508 4.506000
v    21.932512 180.455591 4.506000
v    22.388921 179.280902 4.506000
v    23.242051 180.582796 4.174322
v    23.480029 180.567004 5.184854
v    23.852560 180.525588 5.901645
v    23.440824 180.071201 4.174322
v    23.605713 180.243522 5.184854
v    23.852560 180.525588 5.901645
mtllib usm_24_Beer_2018-07-10_4.mtl
usemtl APPID_710943840_2612074922592 
o vid_3 
f 3 2 1
f 4 5 6
f 1 6 5
f 1 5 3
f 3 5 4
f 4 2 3
f 2 4 6
f 6 1 2
usemtl APPID_710946976_2612074920544 
o vid_4 
f 7 16 17
f 8 17 18
f 9 18 19
f 10 19 20
f 11 20 21
f 12 21 22
f 13 22 23
f 7 17 8
f 8 18 9
f 9 19 10
f 10 20 11
f 11 21 12
f 12 22 13
f 13 23 14
f 14 23 24
usemtl APPID_710943840_2612074922592 
o vid_5 
f 27 26 25
f 28 29 30
f 25 30 29
f 25 29 27
f 27 29 28
f 28 26 27
f 26 28 30
f 30 25 26
usemtl APPID_710946976_2612074920544 
o vid_6 
f 31 36 37
f 32 37 38
f 33 38 39
f 31 37 32
f 32 38 33
f 33 39 34
f 34 39 40
usemtl APPID_710943840_2612074922592 
o vid_7 
f 43 42 41
f 44 45 46
f 41 46 45
f 41 45 43
f 43 45 44
f 44 42 43
f 42 44 46
f 46 41 42
usemtl APPID_710946976_2612074920544 
o vid_8 
f 47 50 51
f 47 51 48
f 48 51 52
