# File generated by PlantGL - Fri Sep  4 14:41:30 2026
v    28.201987 59.124129 0.000000
v    31.657533 58.880811 0.000000
v    30.140480 61.995060 0.000000
v    31.798013 60.875871 0.231332
v    28.342467 61.119189 0.231332
v    29.859520 58.004940 0.231332
v    31.507925 61.253156 -0.099049
v    32.424944 61.576051 0.819826
v    33.244404 61.851217 1.374450
v    33.625779 61.924712 1.610682
v    34.233356 62.062207 1.764268
v    31.916275 60.414884 -0.099049
v    32.735800 60.937917 0.819826
v    33.457605 61.413552 1.374450
v    33.750565 61.668547 1.610682
v    34.233356 62.062207 1.764268
v    31.503548 61.204422 0.231332
v    28.205166 60.699900 0.231332
v    30.291286 58.095678 0.231332
v    28.496452 58.795578 0.322458
v    31.794834 59.300100 0.322458
v    29.708714 61.904322 0.322458
v    28.985329 58.395313 -0.131501
v    28.020928 57.789825 0.944756
v    27.794744 57.658528 1.190804
v    27.031550 57.193570 1.749087
v    26.325645 56.884697 2.217741
v    25.795918 56.632307 2.362412
v    28.212539 59.360030 -0.131501
v    27.411159 58.551034 0.944756
v    27.233661 58.358959 1.190804
v    26.613339 57.715647 1.749087
v    26.157841 57.094175 2.217741
v    25.795918 56.632307 2.362412
v    28.272844 59.328938 0.322458
v    31.444735 58.839770 0.322458
v    30.282421 61.831292 0.322458
v    31.727156 60.671062 0.466406
v    28.555265 61.160230 0.466406
v    29.717579 58.168708 0.466406
v    31.293117 61.302492 -0.141695
v    32.074802 61.506959 0.621967
v    33.119760 61.741892 1.629602
v    33.467196 61.827791 1.853182
v    35.181039 62.013020 2.901663
v    31.833285 59.912227 -0.141695
v    32.547964 60.289151 0.621967
v    33.477424 60.821351 1.629602
v    33.791715 60.992556 1.853182
v    35.181039 62.013020 2.901663
v    31.731622 60.409625 0.466406
v    28.779443 61.294816 0.466406
v    29.488935 58.295559 0.466406
v    28.268378 59.590375 0.678771
v    31.220557 58.705184 0.678771
v    30.511065 61.704441 0.678771
v    28.711281 58.715927 -0.115367
v    27.845437 58.613683 0.708666
v    26.268001 58.482695 2.197823
v    26.016426 58.456416 2.355839
v    23.766288 58.525379 3.725082
v    28.272552 60.570581 -0.115367
v    27.452666 60.274056 0.708666
v    25.983729 59.684407 2.197823
v    25.747043 59.595185 2.355839
v    23.766288 58.525379 3.725082
v    28.876148 58.716648 0.678771
v    31.673341 59.668392 0.678771
v    29.450510 61.614960 0.678771
v    31.123852 61.283352 0.903327
v    28.326659 60.331608 0.903327
v    30.549490 58.385040 0.903327
v    30.019673 61.861560 -0.107731
v    30.831424 62.598037 0.928200
v    32.380695 63.908606 2.837310
v    34.993596 65.702301 4.771545
v    31.842690 60.265115 -0.107731
v    32.465626 61.166940 0.928200
v    33.560327 62.875584 2.837310
v    34.993596 65.702301 4.771545
v    31.375838 60.878433 0.903327
v    28.551335 60.752294 0.903327
v    30.072827 58.369272 0.903327
v    28.624162 59.121567 1.431823
v    31.448665 59.247706 1.431823
v    29.927173 61.630728 1.431823
v    29.725041 58.071852 0.176903
v    28.711470 57.577879 1.242587
v    26.196704 56.458497 3.832273
v    22.706988 55.343620 6.062844
v    28.135178 60.561960 0.176903
v    27.260549 59.850370 1.242587
v    25.186861 58.040154 3.832273
v    22.706988 55.343620 6.062844
v    28.778611 59.119986 1.431823
v    31.372809 59.382253 1.431823
v    29.848580 61.497761 1.431823
v    31.221389 60.880014 1.973816
v    28.627191 60.617747 1.973816
v    30.151420 58.502239 1.973816
v    29.888925 61.977995 0.455311
v    30.182583 62.142104 0.773260
v    33.243678 63.716019 4.011509
v    34.150448 64.016297 4.878458
v    37.146033 65.148734 6.826308
v    31.841118 59.268506 0.455311
v    32.089745 59.495114 0.773260
v    34.551709 61.900576 4.011509
v    35.123582 62.665663 4.878458
v    37.146033 65.148734 6.826308
v    31.007485 60.656141 1.973816
v    28.928023 60.544437 1.973816
v    30.064493 58.799422 1.973816
v    28.992515 59.343859 2.926417
v    31.071977 59.455563 2.926417
v    29.935507 61.200578 2.926417
v    30.589926 57.840536 1.135085
v    28.970700 57.033204 2.845165
v    25.578254 55.486264 6.352932
v    20.400861 53.748400 9.682993
v    28.263479 61.412724 1.135085
v    26.870358 60.258215 2.845165
v    24.083789 57.780968 6.352932
v    20.400861 53.748400 9.682993
v    29.193538 59.552705 2.926417
v    30.790600 59.525231 2.926417
v    30.015862 60.922064 2.926417
v    30.806462 60.447295 4.434905
v    29.209400 60.474769 4.434905
v    29.984138 59.077936 4.434905
v    29.130905 62.239698 2.374768
v    30.479539 62.796668 3.753848
v    34.854923 64.428411 8.147141
v    40.487423 65.816729 11.751014
v    31.439791 58.076831 2.374768
v    32.626368 58.925987 3.753848
v    36.327329 61.773697 8.147141
v    40.487423 65.816729 11.751014
v    30.642719 60.170967 4.434905
v    29.530578 60.471128 4.434905
v    29.826702 59.357905 4.434905
v    29.357281 59.829033 5.885030
v    30.469422 59.528872 5.885030
v    30.173298 60.642095 5.885030
v    30.557760 57.915071 3.575221
v    27.510667 57.576840 6.459527
v    23.279845 57.765586 10.303303
v    21.618497 57.770469 11.313789
v    29.448135 62.086497 3.575221
v    26.635714 60.866062 6.459527
v    23.057844 58.600155 10.303303
v    21.618497 57.770469 11.313789
v    29.602011 59.834790 5.885030
v    30.342070 59.737936 5.885030
v    30.055919 60.427274 5.885030
v    30.397989 60.165210 6.576000
v    29.657930 60.262064 6.576000
v    29.944081 59.572726 6.576000
v    29.387806 61.293961 1.433117
v    32.411429 61.001009 7.110327
v    30.484145 58.652885 1.433117
v    32.411429 61.001009 7.110327
mtllib usm_3_Beer_2018-08-06_3.mtl
usemtl APPID_876941136_2277208122224 
o vid_3 
f 3 2 1
f 4 5 6
f 1 6 5
f 1 5 3
f 3 5 4
f 4 2 3
f 2 4 6
f 6 1 2
usemtl APPID_876936432_2277208129648 
o vid_4 
f 7 12 13
f 8 13 14
f 9 14 15
f 7 13 8
f 8 14 9
f 9 15 10
f 10 15 16
usemtl APPID_876941136_2277208122224 
o vid_5 
f 19 18 17
f 20 21 22
f 17 22 21
f 17 21 19
f 19 21 20
f 20 18 19
f 18 20 22
f 22 17 18
usemtl APPID_876936432_2277208129648 
o vid_6 
f 23 29 30
f 24 30 31
f 25 31 32
f 26 32 33
f 23 30 24
f 24 31 25
f 25 32 26
f 26 33 27
f 27 33 34
usemtl APPID_876941136_2277208122224 
o vid_7 
f 37 36 35
f 38 39 40
f 35 40 39
f 35 39 37
f 37 39 38
f 38 36 37
f 36 38 40
f 40 35 36
usemtl APPID_876936432_2277208129648 
o vid_8 
f 41 46 47
f 42 47 48
f 43 48 49
f 41 47 42
f 42 48 43
f 43 49 44
f 44 49 50
usemtl APPID_876941136_2277208122224 
o vid_9 
f 53 52 51
f 54 55 56
f 51 56 55
f 51 55 53
f 53 55 54
f 54 52 53
f 52 54 56
f 56 51 52
usemtl APPID_876936432_2277208129648 
o vid_10 
f 57 62 63
f 58 63 64
f 59 64 65
f 57 63 58
f 58 64 59
f 59 65 60
f 60 65 66
usemtl APPID_876941136_2277208122224 
o vid_11 
f 69 68 67
f 70 71 72
f 67 72 71
f 67 71 69
f 69 71 70
f 70 68 69
f 68 70 72
f 72 67 68
usemtl APPID_876936432_2277208129648 
o vid_12 
f 73 77 78
f 74 78 79
f 73 78 74
f 74 79 75
f 75 79 80
usemtl APPID_876941136_2277208122224 
o vid_13 
f 83 82 81
f 84 85 86
f 81 86 85
f 81 85 83
f 83 85 84
f 84 82 83
f 82 84 86
f 86 81 82
usemtl APPID_876936432_2277208129648 
o vid_14 
f 87 91 92
f 88 92 93
f 87 92 88
f 88 93 89
f 89 93 94
usemtl APPID_876941136_2277208122224 
o vid_15 
f 97 96 95
f 98 99 100
f 95 100 99
f 95 99 97
f 97 99 98
f 98 96 97
f 96 98 100
f 100 95 96
usemtl APPID_876936432_2277208129648 
o vid_16 
f 101 106 107
f 102 107 108
f 103 108 109
f 101 107 102
f 102 108 103
f 103 109 104
f 104 109 110
usemtl APPID_876941136_2277208122224 
o vid_17 
f 113 112 111
f 114 115 116
f 111 116 115
f 111 115 113
f 113 115 114
f 114 112 113
f 112 114 116
f 116 111 112
usemtl APPID_876936432_2277208129648 
o vid_18 
f 117 121 122
f 118 122 123
f 117 122 118
f 118 123 119
f 119 123 124
usemtl APPID_876941136_2277208122224 
o vid_19 
f 127 126 125
f 128 129 130
f 125 130 129
f 125 129 127
f 127 129 128
f 128 126 127
f 126 128 130
f 130 125 126
usemtl APPID_876936432_2277208129648 
o vid_20 
f 131 135 136
f 132 136 137
f 131 136 132
f 132 137 133
f 133 137 138
usemtl APPID_876941136_2277208122224 
o vid_21 
f 141 140 139
f 142 143 144
f 139 144 143
f 139 143 141
f 141 143 142
f 142 140 141
f 140 142 144
f 144 139 140
usemtl APPID_876936432_2277208129648 
o vid_22 
f 145 149 150
f 146 150 151
f 145 150 146
f 146 151 147
f 147 151 152
usemtl APPID_876941136_2277208122224 
o vid_23 
f 155 154 153
f 156 157 158
f 153 158 157
f 153 157 155
f 155 157 156
f 156 154 155
f 154 156 158
f 158 153 154
usemtl APPID_876936432_2277208129648 
o vid_24 
f 159 161 162
f 159 162 160
f 159 161 162
