# File generated by PlantGL - Fri Sep  4 14:44:13 2026
v    98.201987 19.124129 0.000000
v    101.657533 18.880811 0.000000
v    100.140480 21.995060 0.000000
v    101.798013 20.875871 0.231332
v    98.342467 21.119189 0.231332
v    99.859520 18.004940 0.231332
v    101.002052 20.847619 -2.285310
v    102.067849 21.007317 -1.307178
v    101.285116 20.266536 -2.285310
v    102.067849 21.007317 -1.307178
v    101.503548 21.204422 0.231332
v    98.205166 20.699900 0.231332
v    100.291286 18.095678 0.231332
v    98.496452 18.795578 0.322458
v    101.794834 19.300100 0.322458
v    99.708714 21.904322 0.322458
v    99.324590 18.926116 -2.194185
v    98.032069 18.423583 -0.935525
v    98.804592 19.575259 -2.194185
v    98.032069 18.423583 -0.935525
v    98.272844 19.328938 0.322458
v    101.444735 18.839770 0.322458
v    100.282421 21.831292 0.322458
v    101.727156 20.671062 0.466406
v    98.555265 21.160230 0.466406
v    99.717579 18.168708 0.466406
v    100.839020 20.946903 -2.050236
v    102.764792 21.074221 -0.298561
v    101.258230 19.867954 -2.050236
v    102.764792 21.074221 -0.298561
v    101.731622 20.409625 0.466406
v    98.779443 21.294816 0.466406
v    99.488935 18.295559 0.466406
v    98.268378 19.590375 0.678771
v    101.220557 18.705184 0.678771
v    100.511065 21.704441 0.678771
v    99.165742 18.959120 -1.837872
v    96.435551 19.156809 0.646578
v    98.787807 20.556780 -1.837872
v    96.435551 19.156809 0.646578
v    98.876148 18.716648 0.678771
v    101.673341 19.668392 0.678771
v    99.450510 21.614960 0.678771
v    101.123852 21.283352 0.903326
v    98.326659 20.331608 0.903326
v    100.549490 18.385040 0.903326
v    99.698993 21.563508 -1.613316
v    103.277646 23.742819 2.189597
v    101.589554 19.907913 -1.613316
v    103.277646 23.742819 2.189597
v    101.375838 20.878433 0.903326
v    98.551335 20.752294 0.903326
v    100.072827 18.369272 0.903326
v    98.624162 19.121567 1.432322
v    101.448665 19.247706 1.432322
v    99.927173 21.630728 1.432322
v    100.183115 18.032581 -1.084320
v    94.527268 16.505817 4.232754
v    98.292317 20.994026 -1.084320
v    94.527268 16.505817 4.232754
v    98.735263 19.088754 1.432322
v    101.421531 19.360328 1.432322
v    99.843206 21.550918 1.432322
v    101.264737 20.911246 2.225063
v    98.578469 20.639672 2.225063
v    100.156794 18.449082 2.225063
v    99.387179 22.271886 -0.291579
v    101.461881 23.338630 1.903192
v    106.833558 25.117469 7.038974
v    107.399670 25.331479 7.407083
v    101.961070 18.699530 -0.291579
v    103.629702 20.329867 1.903192
v    107.017463 24.862224 7.038974
v    107.399670 25.331479 7.407083
v    101.244614 20.810576 2.225063
v    98.675713 20.672580 2.225063
v    100.079672 18.516844 2.225063
v    98.755386 19.189424 3.118961
v    101.324287 19.327420 3.118961
v    99.920328 21.483156 3.118961
v    100.651398 17.612040 0.602319
v    97.581592 16.212223 3.776478
v    93.171343 14.978835 7.932872
v    91.411742 14.406754 9.058257
v    98.079351 21.561339 0.602319
v    95.557800 19.319692 3.776478
v    92.646462 15.784774 7.932872
v    91.411742 14.406754 9.058257
v    98.765415 19.315252 3.118961
v    101.210302 19.273192 3.118961
v    100.024283 21.411556 3.118961
v    101.234585 20.684748 4.387400
v    98.789698 20.726808 4.387400
v    99.975717 18.588444 4.387400
v    99.282507 22.703470 1.870758
v    104.697639 24.725785 7.309353
v    106.739864 25.143655 9.201311
v    111.329323 26.283679 12.077587
v    101.913487 17.959874 1.870758
v    106.496315 21.482813 7.309353
v    107.932143 22.994005 9.201311
v    111.329323 26.283679 12.077587
v    101.293262 20.344016 4.387400
v    99.055443 20.947990 4.387400
v    99.651295 18.707994 4.387400
v    98.706738 19.655984 6.196782
v    100.944557 19.052010 6.196782
v    100.348705 21.292006 6.196782
v    100.163714 17.010502 3.680139
v    98.196492 16.722755 5.559235
v    92.526794 16.093411 10.926037
v    85.407178 16.118219 15.284399
v    98.656729 22.675728 3.680139
v    96.806539 21.948020 5.559235
v    91.573493 19.677168 10.926037
v    85.407178 16.118219 15.284399
v    98.831935 19.515124 6.196782
v    101.003948 19.230864 6.196782
v    100.164118 21.254012 6.196782
v    101.168065 20.484876 8.792898
v    98.996052 20.769136 8.792898
v    99.835882 18.745988 8.792898
v    99.326671 23.022082 6.276255
v    102.230506 23.853068 9.130969
v    106.847045 25.002539 13.606809
v    107.911240 25.291637 14.295713
v    114.984628 26.220275 18.634875
v    101.664816 17.389494 6.276255
v    104.303487 18.859260 9.130969
v    108.376915 21.317085 13.606809
v    109.332998 21.866625 14.295713
v    114.984628 26.220275 18.634875
v    100.857431 20.705515 8.792898
v    98.960291 20.389800 8.792898
v    100.182278 18.904685 8.792898
v    99.142569 19.294485 12.654445
v    101.039709 19.610200 12.654445
v    99.817722 21.095315 12.654445
v    101.779643 17.235259 10.137803
v    97.655668 14.570000 14.778723
v    95.202208 13.102434 17.468356
v    92.395274 11.341467 19.538378
v    86.969846 8.882226 23.161463
v    85.769671 8.290954 23.491327
v    97.629732 22.278761 10.137803
v    94.220173 18.745253 14.778723
v    92.307594 16.620340 17.468356
v    90.039033 14.205072 19.538378
v    86.581004 9.354797 23.161463
v    85.769671 8.290954 23.491327
v    99.400816 19.373087 12.654445
v    100.842515 19.794548 12.654445
v    99.756669 20.832366 12.654445
v    100.599184 20.626913 18.205182
v    99.157485 20.205452 18.205182
v    100.243331 19.167634 18.205182
v    97.431048 22.647957 15.688539
v    103.396686 27.604449 23.019092
v    109.298067 32.411946 27.776480
v    110.613553 33.209609 28.712200
v    115.942136 36.679905 30.280008
v    102.761388 17.553384 15.688539
v    107.443116 23.736997 23.019092
v    111.978907 29.849682 27.776480
v    112.716283 31.199885 28.712200
v    115.942136 36.679905 30.280008
v    100.453138 20.461827 18.205182
v    99.373477 20.161516 18.205182
v    100.173385 19.376657 18.205182
v    99.546862 19.538173 24.472570
v    100.626523 19.838484 24.472570
v    99.826615 20.623343 24.472570
v    102.800553 17.365530 21.955928
v    101.881645 16.584273 23.098770
v    96.791618 12.466908 29.286481
v    94.586722 10.622788 31.088265
v    89.691476 6.770833 34.979589
v    82.473589 2.137528 37.097452
v    97.312821 22.750017 21.955928
v    96.549155 21.816439 23.098770
v    92.529196 16.649138 29.286481
v    90.727281 14.409618 31.088265
v    86.968986 9.442103 34.979589
v    82.473589 2.137528 37.097452
v    99.698641 19.666095 24.472570
v    100.439850 19.905968 24.472570
v    99.861509 20.427938 24.472570
v    100.301359 20.333905 31.349721
v    99.560150 20.094032 31.349721
v    100.138491 19.572062 31.349721
v    97.255291 22.102486 28.833079
v    102.124540 26.389033 34.964448
v    103.109915 27.197586 36.163632
v    107.027257 30.553629 39.386089
v    110.439042 32.758140 41.856740
v    113.308837 34.746161 42.717476
v    102.371977 17.484528 28.833079
v    106.138461 22.766354 34.964448
v    106.842079 23.829200 36.163632
v    109.780212 28.069008 39.386089
v    111.624507 31.688223 41.856740
v    113.308837 34.746161 42.717476
v    100.270471 20.052653 31.349721
v    99.819165 20.207908 31.349721
v    99.910364 19.739438 31.349721
v    99.729529 19.947347 35.210000
v    100.180835 19.792092 35.210000
v    100.089636 20.260562 35.210000
v    100.293212 17.458977 30.155502
v    98.441642 17.807631 36.291659
v    97.110815 18.535559 40.382387
v    95.191882 19.063989 43.837206
v    99.318587 22.465451 30.155502
v    97.733023 21.447680 36.291659
v    96.772450 20.273678 40.382387
v    95.191882 19.063989 43.837206
mtllib usm_28_2.5D_2018-08-20_2.mtl
usemtl APPID_3780784128_1876378577904 
o vid_3 
f 3 2 1
f 4 5 6
f 1 6 5
f 1 5 3
f 3 5 4
f 4 2 3
f 2 4 6
f 6 1 2
usemtl APPID_3780782448_1876378572400 
o vid_4 
f 7 9 10
f 7 10 8
f 7 9 10
usemtl APPID_3780784128_1876378577904 
o vid_5 
f 13 12 11
f 14 15 16
f 11 16 15
f 11 15 13
f 13 15 14
f 14 12 13
f 12 14 16
f 16 11 12
usemtl APPID_3780782448_1876378572400 
o vid_6 
f 17 19 20
f 17 20 18
f 17 19 20
usemtl APPID_3780784128_1876378577904 
o vid_7 
f 23 22 21
f 24 25 26
f 21 26 25
f 21 25 23
f 23 25 24
f 24 22 23
f 22 24 26
f 26 21 22
usemtl APPID_3780782448_1876378572400 
o vid_8 
f 27 29 30
f 27 30 28
f 27 29 30
usemtl APPID_3780784128_1876378577904 
o vid_9 
f 33 32 31
f 34 35 36
f 31 36 35
f 31 35 33
f 33 35 34
f 34 32 33
f 32 34 36
f 36 31 32
usemtl APPID_3780782448_1876378572400 
o vid_10 
f 37 39 40
f 37 40 38
f 37 39 40
usemtl APPID_3780784128_1876378577904 
o vid_11 
f 43 42 41
f 44 45 46
f 41 46 45
f 41 45 43
f 43 45 44
f 44 42 43
f 42 44 46
f 46 41 42
usemtl APPID_3780782448_1876378572400 
o vid_12 
f 47 49 50
f 47 50 48
f 47 49 50
usemtl APPID_3780784128_1876378577904 
o vid_13 
f 53 52 51
f 54 55 56
f 51 56 55
f 51 55 53
f 53 55 54
f 54 52 53
f 52 54 56
f 56 51 52
usemtl APPID_3780782448_1876378572400 
o vid_14 
f 57 59 60
f 57 60 58
f 57 59 60
usemtl APPID_3780784128_1876378577904 
o vid_15 
f 63 62 61
f 64 65 66
f 61 66 65
f 61 65 63
f 63 65 64
f 64 62 63
f 62 64 66
f 66 61 62
usemtl APPID_3780782448_1876378572400 
o vid_16 
f 67 71 72
f 68 72 73
f 67 72 68
f 68 73 69
f 69 73 74
usemtl APPID_3780784128_1876378577904 
o vid_17 
f 77 76 75
f 78 79 80
f 75 80 79
f 75 79 77
f 77 79 78
f 78 76 77
f 76 78 80
f 80 75 76
usemtl APPID_3780782448_1876378572400 
o vid_18 
f 81 85 86
f 82 86 87
f 81 86 82
f 82 87 83
f 83 87 88
usemtl APPID_3780784128_1876378577904 
o vid_19 
f 91 90 89
f 92 93 94
f 89 94 93
f 89 93 91
f 91 93 92
f 92 90 91
f 90 92 94
f 94 89 90
usemtl APPID_3780782448_1876378572400 
o vid_20 
f 95 99 100
f 96 100 101
f 95 100 96
f 96 101 97
f 97 101 102
usemtl APPID_3780784128_1876378577904 
o vid_21 
f 105 104 103
f 106 107 108
f 103 108 107
f 103 107 105
f 105 107 106
f 106 104 105
f 104 106 108
f 108 103 104
usemtl APPID_3780782448_1876378572400 
o vid_22 
f 109 113 114
f 110 114 115
f 109 114 110
f 110 115 111
f 111 115 116
usemtl APPID_3780784128_1876378577904 
o vid_23 
f 119 118 117
f 120 121 122
f 117 122 121
f 117 121 119
f 119 121 120
f 120 118 119
f 118 120 122
f 122 117 118
usemtl APPID_3780782448_1876378572400 
o vid_24 
f 123 128 129
f 124 129 130
f 125 130 131
f 123 129 124
f 124 130 125
f 125 131 126
f 126 131 132
usemtl APPID_3780784128_1876378577904 
o vid_25 
f 135 134 133
f 136 137 138
f 133 138 137
f 133 137 135
f 135 137 136
f 136 134 135
f 134 136 138
f 138 133 134
usemtl APPID_3780782448_1876378572400 
o vid_26 
f 139 145 146
f 140 146 147
f 141 147 148
f 142 148 149
f 139 146 140
f 140 147 141
f 141 148 142
f 142 149 143
f 143 149 150
usemtl APPID_3780784128_1876378577904 
o vid_27 
f 153 152 151
f 154 155 156
f 151 156 155
f 151 155 153
f 153 155 154
f 154 152 153
f 152 154 156
f 156 151 152
usemtl APPID_3780782448_1876378572400 
o vid_28 
f 157 162 163
f 158 163 164
f 159 164 165
f 157 163 158
f 158 164 159
f 159 165 160
f 160 165 166
usemtl APPID_3780784128_1876378577904 
o vid_29 
f 169 168 167
f 170 171 172
f 167 172 171
f 167 171 169
f 169 171 170
f 170 168 169
f 168 170 172
f 172 167 168
usemtl APPID_3780782448_1876378572400 
o vid_30 
f 173 179 180
f 174 180 181
f 175 181 182
f 176 182 183
f 173 180 174
f 174 181 175
f 175 182 176
f 176 183 177
f 177 183 184
usemtl APPID_3780784128_1876378577904 
o vid_31 
f 187 186 185
f 188 189 190
f 185 190 189
f 185 189 187
f 187 189 188
f 188 186 187
f 186 188 190
f 190 185 186
usemtl APPID_3780782448_1876378572400 
o vid_32 
f 191 197 198
f 192 198 199
f 193 199 200
f 194 200 201
f 191 198 192
f 192 199 193
f 193 200 194
f 194 201 195
f 195 201 202
usemtl APPID_3780784128_1876378577904 
o vid_33 
f 205 204 203
f 206 207 208
f 203 208 207
f 203 207 205
f 205 207 206
f 206 204 205
f 204 206 208
f 208 203 204
usemtl APPID_3780782448_1876378572400 
o vid_34 
f 209 213 214
f 210 214 215
f 209 214 210
f 210 215 211
f 211 215 216
