# File generated by PlantGL - Fri Sep  4 14:42:09 2026
v    28.448895 19.244406 0.000000
v    31.429916 19.034501 0.000000
v    30.121189 21.721093 0.000000
v    31.551105 20.755594 0.848509
v    28.570084 20.965499 0.848509
v    29.878811 18.278907 0.848509
v    31.365508 21.110403 0.688896
v    31.720326 21.245681 1.041761
v    31.844556 21.290723 1.164358
v    32.515154 21.543242 1.646695
v    33.285300 21.843876 1.911694
v    33.923501 22.064244 2.127242
v    34.485483 22.185026 2.120845
v    31.716080 20.390739 0.688896
v    32.041318 20.586739 1.041761
v    32.153363 20.656794 1.164358
v    32.765573 21.029174 1.646695
v    33.477034 21.450279 1.911694
v    34.043958 21.816966 2.127242
v    34.485483 22.185026 2.120845
v    31.003335 20.803724 0.848509
v    28.802287 20.467051 0.848509
v    30.194378 18.729225 0.848509
v    28.996665 19.196276 1.417165
v    31.197713 19.532949 1.417165
v    29.805622 21.270775 1.417165
v    29.368627 18.757745 1.192603
v    28.814166 18.389444 1.811146
v    27.926390 17.805784 2.540139
v    26.820996 17.058837 2.967763
v    26.159361 16.649022 3.216224
v    25.272938 16.213371 3.205174
v    28.649892 19.654983 1.192603
v    28.169454 19.194275 1.811146
v    27.406100 18.455292 2.540139
v    26.435898 17.539576 2.967763
v    25.891556 16.983339 3.216224
v    25.272938 16.213371 3.205174
v    29.184828 19.683277 1.417165
v    30.681876 19.452402 1.417165
v    30.133295 20.864321 1.417165
v    30.815172 20.316723 1.725000
v    29.318124 20.547598 1.725000
v    29.866705 19.135679 1.725000
v    30.619521 20.861731 1.106777
v    31.398445 21.052016 2.201554
v    31.834810 21.168767 2.651563
v    32.560272 21.322167 3.384936
v    32.888182 21.402205 3.569126
v    33.825570 21.486371 4.066835
v    31.038807 19.782588 1.106777
v    31.741874 20.168110 2.201554
v    32.142596 20.376597 2.651563
v    32.781323 20.753234 3.384936
v    33.077253 20.915580 3.569126
v    33.825570 21.486371 4.066835
mtllib usm_3_2.5D_2018-07-11_2.mtl
usemtl APPID_877188256_2277208014320 
o vid_3 
f 3 2 1
f 4 5 6
f 1 6 5
f 1 5 3
f 3 5 4
f 4 2 3
f 2 4 6
f 6 1 2
usemtl APPID_877186800_2277208271728 
o vid_4 
f 7 14 15
f 8 15 16
f 9 16 17
f 10 17 18
f 11 18 19
f 7 15 8
f 8 16 9
f 9 17 10
f 10 18 11
f 11 19 12
f 12 19 20
usemtl APPID_877188256_2277208014320 
o vid_5 
f 23 22 21
f 24 25 26
f 21 26 25
f 21 25 23
f 23 25 24
f 24 22 23
f 22 24 26
f 26 21 22
usemtl APPID_877186800_2277208271728 
o vid_6 
f 27 33 34
f 28 34 35
f 29 35 36
f 30 36 37
f 27 34 28
f 28 35 29
f 29 36 30
f 30 37 31
f 31 37 38
usemtl APPID_877188256_2277208014320 
o vid_7 
f 41 40 39
f 42 43 44
f 39 44 43
f 39 43 41
f 41 43 42
f 42 40 41
f 40 42 44
f 44 39 40
usemtl APPID_877186800_2277208271728 
o vid_8 
f 45 51 52
f 46 52 53
f 47 53 54
f 48 54 55
f 45 52 46
f 46 53 47
f 47 54 48
f 48 55 49
f 49 55 56
