# File generated by PlantGL - Fri Sep  4 14:41:27 2026
v    218.624942 19.330164 0.000000
v    221.267624 19.144083 0.000000
v    220.107434 21.525753 0.000000
v    221.375058 20.669836 0.848018
v    218.732376 20.855917 0.848018
v    219.892566 18.474247 0.848018
v    221.189726 21.024153 0.688716
v    221.546191 21.160058 1.043219
v    221.667820 21.204158 1.163250
v    222.337110 21.456183 1.644646
v    223.108788 21.757416 1.910172
v    223.742651 21.976286 2.124254
v    224.306775 22.097971 2.117831
v    221.539809 20.305493 0.688716
v    221.866557 20.502403 1.043219
v    221.976256 20.570991 1.163250
v    222.587272 20.942644 1.644646
v    223.300147 21.364587 1.910172
v    223.863218 21.728782 2.124254
v    224.306775 22.097971 2.117831
v    220.856131 20.685807 0.848018
v    218.978009 20.398528 0.848018
v    220.165860 18.915665 0.848018
v    219.143869 19.314193 1.248459
v    221.021991 19.601472 1.248459
v    219.834140 21.084335 1.248459
v    219.484448 18.914946 1.022969
v    218.875670 18.523325 1.694664
v    218.030144 17.966680 2.376071
v    217.558422 17.647924 2.558558
v    216.717096 17.126810 2.874497
v    216.185965 16.892340 3.054949
v    216.034151 16.823143 3.053095
v    218.828582 19.733700 1.022969
v    218.313531 19.225075 1.694664
v    217.585762 18.521427 2.376071
v    217.171733 18.130649 2.558558
v    216.479555 17.423345 2.874497
v    216.134814 16.956195 3.054949
v    216.034151 16.823143 3.053095
v    219.353909 19.748971 1.248459
v    220.540443 19.565984 1.248459
v    220.105648 20.685046 1.248459
v    220.646091 20.251029 1.386000
v    219.459557 20.434016 1.386000
v    219.894352 19.314954 1.386000
v    220.602756 20.720093 0.798656
v    220.680163 20.724659 1.096843
v    220.961705 20.702708 2.124984
v    221.112300 20.714984 2.468574
v    221.585142 20.615884 3.429119
v    220.930812 19.875753 0.798656
v    220.990996 19.924647 1.096843
v    221.183865 20.130923 2.124984
v    221.303243 20.223541 2.468574
v    221.585142 20.615884 3.429119
mtllib usm_38_Beer_2018-07-10_5.mtl
usemtl APPID_160412176_1529319790592 
o vid_3 
f 3 2 1
f 4 5 6
f 1 6 5
f 1 5 3
f 3 5 4
f 4 2 3
f 2 4 6
f 6 1 2
usemtl APPID_160418000_1529319789056 
o vid_4 
f 7 14 15
f 8 15 16
f 9 16 17
f 10 17 18
f 11 18 19
f 7 15 8
f 8 16 9
f 9 17 10
f 10 18 11
f 11 19 12
f 12 19 20
usemtl APPID_160412176_1529319790592 
o vid_5 
f 23 22 21
f 24 25 26
f 21 26 25
f 21 25 23
f 23 25 24
f 24 22 23
f 22 24 26
f 26 21 22
usemtl APPID_160418000_1529319789056 
o vid_6 
f 27 34 35
f 28 35 36
f 29 36 37
f 30 37 38
f 31 38 39
f 27 35 28
f 28 36 29
f 29 37 30
f 30 38 31
f 31 39 32
f 32 39 40
usemtl APPID_160412176_1529319790592 
o vid_7 
f 43 42 41
f 44 45 46
f 41 46 45
f 41 45 43
f 43 45 44
f 44 42 43
f 42 44 46
f 46 41 42
usemtl APPID_160418000_1529319789056 
o vid_8 
f 47 52 53
f 48 53 54
f 49 54 55
f 47 53 48
f 48 54 49
f 49 55 50
f 50 55 56
