# File generated by PlantGL - Fri Sep  4 14:43:22 2026
v    19.008485 19.517001 0.000000
v    20.914047 19.382823 0.000000
v    20.077468 21.100176 0.000000
v    20.991515 20.482999 0.231332
v    19.085953 20.617177 0.231332
v    19.922532 18.899824 0.231332
v    20.183810 20.441539 -2.341808
v    21.227408 20.597910 -1.384049
v    20.460978 19.872559 -2.341808
v    21.227408 20.597910 -1.384049
v    20.594203 20.475988 0.231332
v    19.290681 20.276601 0.231332
v    20.115116 19.247412 0.231332
v    19.405797 19.524012 0.275000
v    20.709319 19.723399 0.275000
v    19.884884 20.752588 0.275000
v    20.492678 20.112938 -4.934816
v    19.866380 19.892963 -4.200097
v    20.217747 20.456150 -4.934816
v    19.866380 19.892963 -4.200097
mtllib usm_12_2.5D_2018-07-11_0.mtl
usemtl APPID_3394657216_2314290382720 
o vid_3 
f 3 2 1
f 4 5 6
f 1 6 5
f 1 5 3
f 3 5 4
f 4 2 3
f 2 4 6
f 6 1 2
usemtl APPID_3394662256_2314290379520 
o vid_4 
f 7 9 10
f 7 10 8
f 7 9 10
usemtl APPID_3394657216_2314290382720 
o vid_5 
f 13 12 11
f 14 15 16
f 11 16 15
f 11 15 13
f 13 15 14
f 14 12 13
f 12 14 16
f 16 11 12
usemtl APPID_3394662256_2314290379520 
o vid_6 
f 17 19 20
f 17 20 18
f 17 19 20
