# File generated by PlantGL - Fri Sep  4 14:43:04 2026
v    17.752484 138.905161 0.000000
v    22.071916 138.601013 0.000000
v    20.175600 142.493825 0.000000
v    22.247516 141.094839 0.362700
v    17.928084 141.398987 0.362700
v    19.824400 137.506175 0.362700
v    22.064918 141.443499 0.203133
v    22.348997 141.551806 0.485648
v    22.544371 141.622644 0.678455
v    23.214771 141.875088 1.160650
v    23.893069 142.139868 1.394045
v    24.120123 142.218269 1.470731
v    22.409498 140.736136 0.203133
v    22.669894 140.893060 0.485648
v    22.846105 141.003234 0.678455
v    23.458135 141.375504 1.160650
v    24.084747 141.746387 1.394045
v    24.286442 141.876844 1.470731
v    21.879284 141.505407 0.362700
v    17.756638 140.874804 0.362700
v    20.364078 137.619789 0.362700
v    18.120716 138.494593 0.589630
v    22.243362 139.125196 0.589630
v    19.635922 142.380211 0.589630
v    18.479378 138.072790 0.363993
v    18.148179 137.852790 0.733471
v    17.873517 137.676775 1.036127
v    17.027439 137.119766 1.717980
v    16.209131 136.566812 2.034543
v    15.466236 136.106665 2.313520
v    17.787363 138.936671 0.363993
v    17.500380 138.661474 0.733471
v    17.268661 138.431851 1.036127
v    16.540416 137.727743 1.717980
v    15.822190 137.049852 2.034543
v    15.210993 136.425299 2.313520
v    17.841416 139.161313 0.589630
v    21.805616 138.549955 0.589630
v    20.352968 142.288732 0.589630
v    22.158584 140.838687 1.053978
v    18.194384 141.450045 1.053978
v    19.647032 137.711268 1.053978
v    21.861454 141.541365 0.741169
v    22.340561 141.679929 1.204625
v    22.827741 141.812201 1.672975
v    24.178367 142.196807 2.618253
v    25.425144 142.568118 3.035233
v    26.755420 142.907455 3.473518
v    26.913947 142.925112 3.523095
v    22.413811 140.119728 0.741169
v    22.860790 140.340983 1.204625
v    23.309476 140.572328 1.672975
v    24.565473 141.200488 2.618253
v    25.735885 141.768342 3.035233
v    26.946306 142.416157 3.473518
v    27.075170 142.510162 3.523095
v    22.163962 140.511898 1.053978
v    18.474702 141.618097 1.053978
v    19.361335 137.870005 1.053978
v    17.836038 139.488102 1.829186
v    21.525298 138.381903 1.829186
v    20.638665 142.129995 1.829186
v    18.107732 138.472273 1.404027
v    17.274172 138.352058 2.186627
v    16.756808 138.286094 2.670503
v    14.866551 138.021411 3.955291
v    12.907240 137.722978 4.590558
v    11.052860 137.515424 5.186259
v    10.377116 137.527739 5.229552
v    17.623804 140.517997 1.404027
v    16.824729 140.252003 2.186627
v    16.332644 140.079176 2.670503
v    14.524140 139.468895 3.955291
v    12.638780 138.857849 4.590558
v    10.887946 138.212569 5.186259
v    10.289339 137.898799 5.229552
v    18.595695 138.396392 1.829186
v    22.090917 139.585640 1.829186
v    19.313387 142.017967 1.829186
v    21.404305 141.603608 2.769464
v    17.909083 140.414360 2.769464
v    20.686613 137.982033 2.769464
v    20.311188 142.506755 2.202932
v    21.258983 143.412120 3.420924
v    21.630692 143.755699 3.890535
v    23.477032 145.504925 5.602538
v    25.548192 147.514986 6.527655
v    27.368875 149.146767 7.308185
v    28.530992 149.955383 7.292439
v    22.443782 140.639209 2.202932
v    23.216180 141.698171 3.420924
v    23.507712 142.111963 3.890535
v    24.998040 144.172954 5.602538
v    26.717260 146.491214 6.527655
v    28.094555 148.511277 7.308185
v    28.742773 149.769924 7.292439
v    21.718982 141.097521 2.769464
v    18.190028 140.939922 2.769464
v    20.090990 137.962557 2.769464
v    18.281018 138.902479 5.235228
v    21.809972 139.060078 5.235228
v    19.909010 142.037443 5.235228
v    19.280808 137.435393 4.495113
v    18.530311 137.045463 5.281026
v    17.161914 136.362786 6.699792
v    14.207192 134.843022 8.936347
v    11.871570 133.605929 9.783522
v    8.943028 132.200644 10.820517
v    7.888267 131.864437 11.164600
v    6.973223 131.560686 11.153887
v    17.370877 140.426804 4.495113
v    16.701335 139.910079 5.281026
v    15.506209 138.956020 6.699792
v    12.884176 136.915185 8.936347
v    10.779091 135.317014 9.783522
v    8.271925 133.251754 10.820517
v    7.523079 132.436410 11.164600
v    6.862471 131.734151 11.153887
v    18.420020 138.861621 5.235228
v    21.775855 139.200887 5.235228
v    19.804125 141.937492 5.235228
v    21.579980 141.138379 9.070287
v    18.224145 140.799113 9.070287
v    20.195875 138.062508 9.070287
v    20.074833 143.110882 8.122357
v    22.688479 144.660925 10.946082
v    26.354066 146.821685 13.810633
v    31.849187 150.139733 15.868191
v    34.034074 151.343378 16.664549
v    35.560735 152.195870 16.644643
v    38.352373 153.300001 16.611288
v    22.974597 139.086240 8.122357
v    25.272277 141.074818 10.946082
v    28.482259 143.867922 13.810633
v    33.369154 148.030140 15.868191
v    35.202525 149.721661 16.664549
v    36.494441 150.899959 16.644643
v    38.425483 153.198531 16.611288
v    21.466477 140.955067 9.070287
v    18.439649 140.792472 9.070287
v    20.093874 138.252460 9.070287
v    18.533523 139.044933 15.537192
v    21.560351 139.207528 15.537192
v    19.906126 141.747540 15.537192
v    20.395428 136.342762 14.346896
v    17.025547 134.553045 17.892589
v    14.699690 133.286592 19.677451
v    12.316948 132.033669 21.489547
v    3.092405 127.040500 24.851694
v    -1.786650 124.614345 25.019014
v    -4.710519 123.614336 24.984681
v    -5.501165 123.347383 24.836859
v    16.814962 141.840458 14.346896
v    13.815472 139.482016 17.892589
v    11.716712 137.866863 19.677451
v    9.607325 136.194212 21.489547
v    1.310621 129.776376 24.851694
v    -2.881190 126.294978 25.019014
v    -4.978064 124.025144 24.984681
v    -5.541917 123.409957 24.836859
v    18.786474 139.326932 15.537192
v    21.189657 139.285590 15.537192
v    20.023869 141.387478 15.537192
v    21.213526 140.673068 23.570456
v    18.810343 140.714410 23.570456
v    19.976131 138.612522 23.570456
v    19.224649 144.041877 22.105125
v    23.518785 145.945851 26.470100
v    25.006122 146.623931 27.571772
v    29.531932 148.608403 30.898186
v    39.592698 153.164950 34.438318
v    42.122189 154.191647 35.309833
v    45.713510 155.673404 35.265604
v    50.484876 156.935930 35.210766
v    23.018243 137.202118 22.105125
v    26.907123 139.836759 26.470100
v    28.269881 140.739452 27.571772
v    32.349718 143.528003 30.898186
v    41.542198 149.650048 34.438318
v    43.752505 151.252226 35.309833
v    46.911076 153.514219 35.265604
v    50.508496 156.893344 35.210766
v    21.018666 140.270972 23.570456
v    19.255999 140.746705 23.570456
v    19.725335 138.982323 23.570456
v    18.981334 139.729028 38.883082
v    20.744001 139.253295 38.883082
v    20.274665 141.017677 38.883082
v    20.416895 134.826663 37.114529
v    14.830186 133.862309 42.382753
v    8.047993 132.618772 47.029908
v    -9.320027 129.491559 53.051702
v    -11.773361 129.038209 53.023195
v    -19.835319 127.861754 52.930440
v    -24.986304 127.815190 52.170219
v    -25.810573 127.814105 51.925063
v    17.791396 144.696732 37.114529
v    12.463919 142.757845 42.382753
v    5.960247 140.467260 47.029908
v    -10.666074 134.551768 53.051702
v    -13.020409 133.726249 53.023195
v    -20.601373 130.741590 52.930440
v    -25.094706 128.222706 52.170219
v    -25.810573 127.814105 51.925063
v    19.307975 139.712733 38.883082
v    20.594793 139.544322 38.883082
v    20.097232 140.742945 38.883082
v    20.692025 140.287267 52.287746
v    19.405207 140.455678 52.287746
v    19.902768 139.257055 52.287746
v    18.551440 145.051712 50.195067
v    23.015314 146.454148 54.543024
v    24.964214 147.031470 56.428806
v    33.938611 149.810513 62.752675
v    43.882582 153.021428 66.102095
v    52.727800 155.494582 69.034203
v    59.839289 156.537702 68.973883
v    22.554845 135.407519 50.195067
v    26.699635 137.578628 54.543024
v    28.484457 138.551213 56.428806
v    36.788680 142.944704 62.752675
v    46.083291 147.719925 66.102095
v    54.079683 152.237898 69.034203
v    59.839289 156.537702 68.973883
v    20.365445 140.300697 52.287746
v    19.556866 140.166136 52.287746
v    20.077688 139.533167 52.287746
v    19.634555 139.699303 59.395000
v    20.443134 139.833864 59.395000
v    19.922312 140.466833 59.395000
v    21.825998 135.775519 54.737372
v    18.605280 134.188095 64.745373
v    17.148525 133.342034 67.845094
v    12.947990 131.319878 76.288563
v    12.008858 130.776046 77.380456
v    6.336819 128.757617 83.154752
v    16.206243 142.605363 54.737372
v    14.028291 139.750636 64.745373
v    12.917528 138.484083 67.845094
v    10.124289 134.751599 76.288563
v    9.409781 133.934777 77.380456
v    6.336819 128.757617 83.154752
v    24.120123 142.218269 1.470731
v    24.555032 142.368441 1.617618
v    24.629027 142.382952 1.641054
v    25.088459 142.478755 1.635840
v    24.286442 141.876844 1.470731
v    24.672779 142.126728 1.617618
v    24.729817 142.176048 1.641054
v    25.088459 142.478755 1.635840
v    15.466236 136.106665 2.313520
v    15.367256 136.045357 2.350689
v    15.230063 135.984793 2.397300
v    14.667490 135.728375 2.390431
v    15.210993 136.425299 2.313520
v    15.129560 136.342086 2.350689
v    15.040512 136.221420 2.397300
v    14.667490 135.728375 2.390431
v    26.913947 142.925112 3.523095
v    27.032027 142.938264 3.560023
v    27.809501 143.034271 3.551319
v    27.075170 142.510162 3.523095
v    27.171155 142.580181 3.560023
v    27.809501 143.034271 3.551319
v    10.377116 137.527739 5.229552
v    9.599664 137.539740 5.220913
v    10.289339 137.898799 5.229552
v    9.599664 137.539740 5.220913
v    28.530992 149.955383 7.292439
v    29.003525 150.281332 7.286061
v    28.742773 149.769924 7.292439
v    29.003525 150.281332 7.286061
v    6.973223 131.560686 11.153887
v    6.574916 131.428467 11.149224
v    6.862471 131.734151 11.153887
v    6.574916 131.428467 11.149224
v    38.352373 153.300001 16.611288
v    38.589529 153.393800 16.608454
v    38.425483 153.198531 16.611288
v    38.589529 153.393800 16.608454
v    -5.501165 123.347383 24.836859
v    -5.643235 123.299415 24.810297
v    -5.541917 123.409957 24.836859
v    -5.643235 123.299415 24.810297
v    50.484876 156.935930 35.210766
v    50.580877 156.961333 35.209663
v    50.508496 156.893344 35.210766
v    50.580877 156.961333 35.209663
mtllib usm_25_2.5D_2018-08-21_3.mtl
usemtl APPID_3202205568_2021840852464 
o vid_3 
f 3 2 1
f 4 5 6
f 1 6 5
f 1 5 3
f 3 5 4
f 4 2 3
f 2 4 6
f 6 1 2
usemtl APPID_3202204672_2021840851440 
o vid_4 
f 7 13 14
f 8 14 15
f 9 15 16
f 10 16 17
f 7 14 8
f 8 15 9
f 9 16 10
f 10 17 11
f 11 17 18
f 11 18 12
usemtl APPID_3202205568_2021840852464 
o vid_5 
f 21 20 19
f 22 23 24
f 19 24 23
f 19 23 21
f 21 23 22
f 22 20 21
f 20 22 24
f 24 19 20
usemtl APPID_3202204672_2021840851440 
o vid_6 
f 25 31 32
f 26 32 33
f 27 33 34
f 28 34 35
f 25 32 26
f 26 33 27
f 27 34 28
f 28 35 29
f 29 35 36
f 29 36 30
usemtl APPID_3202205568_2021840852464 
o vid_7 
f 39 38 37
f 40 41 42
f 37 42 41
f 37 41 39
f 39 41 40
f 40 38 39
f 38 40 42
f 42 37 38
usemtl APPID_3202204672_2021840851440 
o vid_8 
f 43 50 51
f 44 51 52
f 45 52 53
f 46 53 54
f 47 54 55
f 43 51 44
f 44 52 45
f 45 53 46
f 46 54 47
f 47 55 48
f 48 55 56
f 48 56 49
usemtl APPID_3202205568_2021840852464 
o vid_9 
f 59 58 57
f 60 61 62
f 57 62 61
f 57 61 59
f 59 61 60
f 60 58 59
f 58 60 62
f 62 57 58
usemtl APPID_3202204672_2021840851440 
o vid_10 
f 63 70 71
f 64 71 72
f 65 72 73
f 66 73 74
f 67 74 75
f 63 71 64
f 64 72 65
f 65 73 66
f 66 74 67
f 67 75 68
f 68 75 76
f 68 76 69
usemtl APPID_3202205568_2021840852464 
o vid_11 
f 79 78 77
f 80 81 82
f 77 82 81
f 77 81 79
f 79 81 80
f 80 78 79
f 78 80 82
f 82 77 78
usemtl APPID_3202204672_2021840851440 
o vid_12 
f 83 90 91
f 84 91 92
f 85 92 93
f 86 93 94
f 87 94 95
f 83 91 84
f 84 92 85
f 85 93 86
f 86 94 87
f 87 95 88
f 88 95 96
f 88 96 89
usemtl APPID_3202205568_2021840852464 
o vid_13 
f 99 98 97
f 100 101 102
f 97 102 101
f 97 101 99
f 99 101 100
f 100 98 99
f 98 100 102
f 102 97 98
usemtl APPID_3202204672_2021840851440 
o vid_14 
f 103 111 112
f 104 112 113
f 105 113 114
f 106 114 115
f 107 115 116
f 108 116 117
f 103 112 104
f 104 113 105
f 105 114 106
f 106 115 107
f 107 116 108
f 108 117 109
f 109 117 118
f 109 118 110
usemtl APPID_3202205568_2021840852464 
o vid_15 
f 121 120 119
f 122 123 124
f 119 124 123
f 119 123 121
f 121 123 122
f 122 120 121
f 120 122 124
f 124 119 120
usemtl APPID_3202204672_2021840851440 
o vid_16 
f 125 132 133
f 126 133 134
f 127 134 135
f 128 135 136
f 129 136 137
f 125 133 126
f 126 134 127
f 127 135 128
f 128 136 129
f 129 137 130
f 130 137 138
f 130 138 131
usemtl APPID_3202205568_2021840852464 
o vid_17 
f 141 140 139
f 142 143 144
f 139 144 143
f 139 143 141
f 141 143 142
f 142 140 141
f 140 142 144
f 144 139 140
usemtl APPID_3202204672_2021840851440 
o vid_18 
f 145 153 154
f 146 154 155
f 147 155 156
f 148 156 157
f 149 157 158
f 150 158 159
f 145 154 146
f 146 155 147
f 147 156 148
f 148 157 149
f 149 158 150
f 150 159 151
f 151 159 160
f 151 160 152
usemtl APPID_3202205568_2021840852464 
o vid_19 
f 163 162 161
f 164 165 166
f 161 166 165
f 161 165 163
f 163 165 164
f 164 162 163
f 162 164 166
f 166 161 162
usemtl APPID_3202204672_2021840851440 
o vid_20 
f 167 175 176
f 168 176 177
f 169 177 178
f 170 178 179
f 171 179 180
f 172 180 181
f 167 176 168
f 168 177 169
f 169 178 170
f 170 179 171
f 171 180 172
f 172 181 173
f 173 181 182
f 173 182 174
usemtl APPID_3202205568_2021840852464 
o vid_21 
f 185 184 183
f 186 187 188
f 183 188 187
f 183 187 185
f 185 187 186
f 186 184 185
f 184 186 188
f 188 183 184
usemtl APPID_3202204672_2021840851440 
o vid_22 
f 189 197 198
f 190 198 199
f 191 199 200
f 192 200 201
f 193 201 202
f 194 202 203
f 189 198 190
f 190 199 191
f 191 200 192
f 192 201 193
f 193 202 194
f 194 203 195
f 195 203 204
usemtl APPID_3202205568_2021840852464 
o vid_23 
f 207 206 205
f 208 209 210
f 205 210 209
f 205 209 207
f 207 209 208
f 208 206 207
f 206 208 210
f 210 205 206
usemtl APPID_3202204672_2021840851440 
o vid_24 
f 211 218 219
f 212 219 220
f 213 220 221
f 214 221 222
f 215 222 223
f 211 219 212
f 212 220 213
f 213 221 214
f 214 222 215
f 215 223 216
f 216 223 224
usemtl APPID_3202205568_2021840852464 
o vid_25 
f 227 226 225
f 228 229 230
f 225 230 229
f 225 229 227
f 227 229 228
f 228 226 227
f 226 228 230
f 230 225 226
usemtl APPID_3202204672_2021840851440 
o vid_26 
f 231 237 238
f 232 238 239
f 233 239 240
f 234 240 241
f 231 238 232
f 232 239 233
f 233 240 234
f 234 241 235
f 235 241 242
usemtl APPID_3202209824_2021840858864 
o vid_10000004 
f 243 247 248
f 244 248 249
f 243 248 244
f 244 249 245
f 245 249 250
usemtl APPID_3202209824_2021840858864 
o vid_10000006 
f 251 255 256
f 252 256 257
f 251 256 252
f 252 257 253
f 253 257 258
usemtl APPID_3202209824_2021840858864 
o vid_10000008 
f 259 262 263
f 259 263 260
f 260 263 264
usemtl APPID_3202209824_2021840858864 
o vid_10000010 
f 265 267 268
f 265 268 266
f 265 267 268
usemtl APPID_3202209824_2021840858864 
o vid_10000012 
f 269 271 272
f 269 272 270
f 269 271 272
usemtl APPID_3202209824_2021840858864 
o vid_10000014 
f 273 275 276
f 273 276 274
f 273 275 276
usemtl APPID_3202209824_2021840858864 
o vid_10000016 
f 277 279 280
f 277 280 278
f 277 279 280
usemtl APPID_3202209824_2021840858864 
o vid_10000018 
f 281 283 284
f 281 284 282
f 281 283 284
usemtl APPID_3202209824_2021840858864 
o vid_10000020 
f 285 287 288
f 285 288 286
f 285 287 288
