# File generated by PlantGL - Fri Sep  4 14:43:14 2026
v    17.752484 218.905161 0.000000
v    22.071916 218.601013 0.000000
v    20.175600 222.493825 0.000000
v    22.247516 221.094839 0.848509
v    17.928084 221.398987 0.848509
v    19.824400 217.506175 0.848509
v    22.063318 221.447212 0.691549
v    22.452716 221.595674 1.078805
v    23.193535 221.873497 1.633424
v    24.003383 222.189629 1.912084
v    24.577479 222.387862 2.105980
v    25.066038 222.501299 2.100377
v    22.411435 220.732586 0.691549
v    22.768371 220.947689 1.078805
v    23.443792 221.359763 1.633424
v    24.191930 221.802576 1.912084
v    24.701907 222.132431 2.105980
v    25.092389 222.447204 2.100377
v    21.879284 221.505407 0.848509
v    17.756638 220.874804 0.848509
v    20.364078 217.619789 0.848509
v    18.120716 218.494593 1.417165
v    22.243362 219.125196 1.417165
v    19.635922 222.380211 1.417165
v    18.491111 218.057764 1.194819
v    17.910613 217.672168 1.842408
v    17.063494 217.114708 2.529059
v    15.928231 216.347578 2.968238
v    15.315130 215.967825 3.198473
v    15.088695 215.825767 3.195430
v    14.464011 215.541040 3.187802
v    17.775261 218.951400 1.194819
v    17.272262 218.469058 1.842408
v    16.543350 217.764034 2.529059
v    15.546932 216.823574 2.968238
v    15.042520 216.308139 3.198473
v    14.854465 216.118169 3.195430
v    14.440260 215.570690 3.187802
v    17.841416 219.161313 1.417165
v    21.805616 218.549955 1.417165
v    20.352968 222.288732 1.417165
v    22.158584 220.838687 2.253766
v    18.194384 221.450045 2.253766
v    19.647032 217.711268 2.253766
v    21.872752 221.513089 1.945001
v    22.123264 221.585540 2.187329
v    22.827931 221.776861 2.864761
v    24.161097 222.156496 3.797819
v    25.103068 222.437030 4.112858
v    26.416146 222.771980 4.545477
v    26.997911 222.836779 4.727414
v    27.389306 222.885111 4.723032
v    22.403054 220.148215 1.945001
v    22.636768 220.263903 2.187329
v    23.285756 220.598526 2.864761
v    24.525517 221.218565 3.797819
v    25.409792 221.647593 4.112858
v    26.604566 222.287033 4.545477
v    27.077471 222.632011 4.727414
v    27.398826 222.860608 4.723032
v    22.163962 220.511898 2.253766
v    18.474702 221.618097 2.253766
v    19.361335 217.870005 2.253766
v    17.836038 219.488102 4.112548
v    21.525298 218.381903 4.112548
v    20.638665 222.129995 4.112548
v    18.103570 218.488359 3.692223
v    17.331373 218.376994 4.417211
v    16.767806 218.305139 4.944300
v    14.899039 218.043466 6.214480
v    13.029433 217.758696 6.820662
v    11.196136 217.553502 7.409591
v    9.794273 217.577844 7.466881
v    17.627290 220.501751 3.692223
v    16.887040 220.255338 4.417211
v    16.351009 220.067077 4.944300
v    14.563067 219.463735 6.214480
v    12.764025 218.880664 6.820662
v    11.033098 218.242721 7.409591
v    9.790719 217.592868 7.466881
v    18.735635 218.556193 4.112548
v    21.882556 219.626931 4.112548
v    19.381809 221.816876 4.112548
v    21.264365 221.443807 5.999272
v    18.117444 220.373069 5.999272
v    20.618191 218.183124 5.999272
v    20.148815 222.367136 5.438355
v    21.446742 223.606960 7.106294
v    23.277112 225.341003 8.804272
v    25.791961 227.781664 9.927570
v    27.110935 228.963791 10.493017
v    27.647959 229.450685 10.484764
v    29.220010 230.535069 10.463545
v    22.326807 220.459834 5.438355
v    23.384544 221.909996 7.106294
v    24.861928 223.953154 8.804272
v    26.949444 226.768038 9.927570
v    27.947211 228.231451 10.493017
v    28.358994 228.828021 10.484764
v    29.226481 230.529402 10.463545
v    21.279094 220.816665 5.999272
v    18.653201 220.699395 5.999272
v    20.067706 218.483940 5.999272
v    18.720906 219.183335 11.505015
v    21.346799 219.300605 11.505015
v    19.932294 221.516060 11.505015
v    19.729469 217.701664 10.771227
v    18.664268 217.148227 11.886694
v    17.631903 216.633192 12.957059
v    14.702440 215.126420 15.174495
v    11.970716 213.679526 16.165343
v    9.067209 212.286254 17.193474
v    6.699418 211.507958 17.362806
v    17.801227 220.721756 10.771227
v    16.850928 219.988354 11.886694
v    15.949284 219.268579 12.957059
v    13.349665 217.245191 15.174495
v    10.887576 215.375983 16.165343
v    8.401843 213.328378 17.193474
v    6.699418 211.507958 17.362806
v    19.071210 219.330804 11.505015
v    21.043936 219.530242 11.505015
v    19.884855 221.138954 11.505015
v    20.928790 220.669196 19.658889
v    18.956064 220.469758 19.658889
v    20.115145 218.861046 19.658889
v    19.393430 222.684482 18.717867
v    21.988031 224.223231 21.521016
v    23.116068 224.908191 22.410454
v    25.619264 226.378854 24.364694
v    31.956574 230.205430 26.737596
v    33.219230 230.901021 27.197815
v    35.683055 232.276830 27.165688
v    38.689780 233.466030 27.129764
v    22.354427 218.574853 18.717867
v    24.635365 220.548941 21.521016
v    25.642180 221.402147 22.410454
v    27.829600 223.311084 24.364694
v    33.465465 228.111209 26.737596
v    34.524979 229.088746 27.197815
v    36.609958 230.990362 27.165688
v    38.689780 233.466030 27.129764
v    20.670979 220.436986 19.658889
v    19.286069 220.362592 19.658889
v    20.042952 219.200422 19.658889
v    19.329021 219.563014 25.541351
v    20.713931 219.637408 25.541351
v    19.957048 220.799578 25.541351
v    20.850739 217.382229 24.358345
v    17.467335 215.655927 27.882323
v    12.766627 213.184142 31.457253
v    11.231848 212.353379 32.016646
v    6.571331 210.064949 33.674189
v    2.883598 208.852657 34.880720
v    17.949768 221.836581 24.358345
v    15.002810 219.440129 27.882323
v    10.841380 216.140299 31.457253
v    9.460975 215.072500 32.016646
v    5.483494 211.735289 33.674189
v    2.883598 208.852657 34.880720
v    19.575445 219.764525 25.541351
v    20.416204 219.750062 25.541351
v    20.008351 220.485413 25.541351
v    20.424555 220.235475 27.962000
v    19.583796 220.249938 27.962000
v    19.991649 219.514587 27.962000
v    20.000495 222.543888 25.317536
v    20.425646 222.522532 28.200222
v    20.996220 222.381539 31.634376
v    21.954968 222.488855 34.719707
v    23.654780 222.085443 39.192146
v    23.773922 222.093162 39.362666
v    22.158281 218.653453 25.317536
v    22.365278 219.025422 28.200222
v    22.547785 219.584103 31.634376
v    23.146473 220.340600 34.719707
v    23.704289 221.996180 39.192146
v    23.773922 222.093162 39.362666
v    25.066038 222.501299 2.100377
v    25.186155 222.526346 2.099014
v    25.092389 222.447204 2.100377
v    25.186155 222.526346 2.099014
v    14.464011 215.541040 3.187802
v    14.393518 215.508910 3.186942
v    14.440260 215.570690 3.187802
v    14.393518 215.508910 3.186942
v    27.389306 222.885111 4.723032
v    27.442506 222.891680 4.722437
v    27.398826 222.860608 4.723032
v    27.442506 222.891680 4.722437
v    9.794273 217.577844 7.466881
v    9.762795 217.578330 7.466532
v    9.790719 217.592868 7.466881
v    9.762795 217.578330 7.466532
v    29.220010 230.535069 10.463545
v    29.234449 230.545029 10.463350
v    29.226481 230.529402 10.463545
v    29.234449 230.545029 10.463350
mtllib usm_18_2.5D_2018-07-25_5.mtl
usemtl APPID_2876506576_2459690785760 
o vid_3 
f 3 2 1
f 4 5 6
f 1 6 5
f 1 5 3
f 3 5 4
f 4 2 3
f 2 4 6
f 6 1 2
usemtl APPID_2876506912_2459690785120 
o vid_4 
f 7 13 14
f 8 14 15
f 9 15 16
f 10 16 17
f 7 14 8
f 8 15 9
f 9 16 10
f 10 17 11
f 11 17 18
f 11 18 12
usemtl APPID_2876506576_2459690785760 
o vid_5 
f 21 20 19
f 22 23 24
f 19 24 23
f 19 23 21
f 21 23 22
f 22 20 21
f 20 22 24
f 24 19 20
usemtl APPID_2876506912_2459690785120 
o vid_6 
f 25 32 33
f 26 33 34
f 27 34 35
f 28 35 36
f 29 36 37
f 25 33 26
f 26 34 27
f 27 35 28
f 28 36 29
f 29 37 30
f 30 37 38
f 30 38 31
usemtl APPID_2876506576_2459690785760 
o vid_7 
f 41 40 39
f 42 43 44
f 39 44 43
f 39 43 41
f 41 43 42
f 42 40 41
f 40 42 44
f 44 39 40
usemtl APPID_2876506912_2459690785120 
o vid_8 
f 45 53 54
f 46 54 55
f 47 55 56
f 48 56 57
f 49 57 58
f 50 58 59
f 45 54 46
f 46 55 47
f 47 56 48
f 48 57 49
f 49 58 50
f 50 59 51
f 51 59 60
f 51 60 52
usemtl APPID_2876506576_2459690785760 
o vid_9 
f 63 62 61
f 64 65 66
f 61 66 65
f 61 65 63
f 63 65 64
f 64 62 63
f 62 64 66
f 66 61 62
usemtl APPID_2876506912_2459690785120 
o vid_10 
f 67 74 75
f 68 75 76
f 69 76 77
f 70 77 78
f 71 78 79
f 67 75 68
f 68 76 69
f 69 77 70
f 70 78 71
f 71 79 72
f 72 79 80
f 72 80 73
usemtl APPID_2876506576_2459690785760 
o vid_11 
f 83 82 81
f 84 85 86
f 81 86 85
f 81 85 83
f 83 85 84
f 84 82 83
f 82 84 86
f 86 81 82
usemtl APPID_2876506912_2459690785120 
o vid_12 
f 87 94 95
f 88 95 96
f 89 96 97
f 90 97 98
f 91 98 99
f 87 95 88
f 88 96 89
f 89 97 90
f 90 98 91
f 91 99 92
f 92 99 100
f 92 100 93
usemtl APPID_2876506576_2459690785760 
o vid_13 
f 103 102 101
f 104 105 106
f 101 106 105
f 101 105 103
f 103 105 104
f 104 102 103
f 102 104 106
f 106 101 102
usemtl APPID_2876506912_2459690785120 
o vid_14 
f 107 114 115
f 108 115 116
f 109 116 117
f 110 117 118
f 111 118 119
f 107 115 108
f 108 116 109
f 109 117 110
f 110 118 111
f 111 119 112
f 112 119 120
usemtl APPID_2876506576_2459690785760 
o vid_15 
f 123 122 121
f 124 125 126
f 121 126 125
f 121 125 123
f 123 125 124
f 124 122 123
f 122 124 126
f 126 121 122
usemtl APPID_2876506912_2459690785120 
o vid_16 
f 127 135 136
f 128 136 137
f 129 137 138
f 130 138 139
f 131 139 140
f 132 140 141
f 127 136 128
f 128 137 129
f 129 138 130
f 130 139 131
f 131 140 132
f 132 141 133
f 133 141 142
usemtl APPID_2876506576_2459690785760 
o vid_17 
f 145 144 143
f 146 147 148
f 143 148 147
f 143 147 145
f 145 147 146
f 146 144 145
f 144 146 148
f 148 143 144
usemtl APPID_2876506912_2459690785120 
o vid_18 
f 149 155 156
f 150 156 157
f 151 157 158
f 152 158 159
f 149 156 150
f 150 157 151
f 151 158 152
f 152 159 153
f 153 159 160
usemtl APPID_2876506576_2459690785760 
o vid_19 
f 163 162 161
f 164 165 166
f 161 166 165
f 161 165 163
f 163 165 164
f 164 162 163
f 162 164 166
f 166 161 162
usemtl APPID_2876506912_2459690785120 
o vid_20 
f 167 173 174
f 168 174 175
f 169 175 176
f 170 176 177
f 167 174 168
f 168 175 169
f 169 176 170
f 170 177 171
f 171 177 178
usemtl APPID_2876510048_2459690787040 
o vid_10000004 
f 179 181 182
f 179 182 180
f 179 181 182
usemtl APPID_2876510048_2459690787040 
o vid_10000006 
f 183 185 186
f 183 186 184
f 183 185 186
usemtl APPID_2876510048_2459690787040 
o vid_10000008 
f 187 189 190
f 187 190 188
f 187 189 190
usemtl APPID_2876510048_2459690787040 
o vid_10000010 
f 191 193 194
f 191 194 192
f 191 193 194
usemtl APPID_2876510048_2459690787040 
o vid_10000012 
f 195 197 198
f 195 198 196
f 195 197 198
