# File generated by PlantGL - Fri Sep  4 14:43:48 2026
v    17.752484 258.905161 0.000000
v    22.071916 258.601013 0.000000
v    20.175600 262.493825 0.000000
v    22.247516 261.094839 0.362700
v    17.928084 261.398987 0.362700
v    19.824400 257.506175 0.362700
v    22.063684 261.445628 0.200676
v    22.314275 261.541168 0.449887
v    22.340563 261.550699 0.475829
v    22.410414 260.733852 0.200676
v    22.640113 260.872277 0.449887
v    22.663823 260.887101 0.475829
v    21.879284 261.505407 0.362700
v    17.756638 260.874804 0.362700
v    20.364078 257.619789 0.362700
v    18.120716 258.494593 0.589630
v    22.243362 259.125196 0.589630
v    19.635922 262.380211 0.589630
v    18.480901 258.071205 0.361238
v    18.188457 257.876949 0.687481
v    18.154796 257.855377 0.724573
v    17.786149 258.938503 0.361238
v    17.532747 258.695508 0.687481
v    17.504349 258.667366 0.724573
v    17.841416 259.161313 0.589630
v    21.805616 258.549955 0.589630
v    20.352968 262.288732 0.589630
v    22.158584 260.838687 1.053978
v    18.194384 261.450045 1.053978
v    19.647032 257.711268 1.053978
v    21.860394 261.543520 0.738286
v    22.293845 261.668879 1.157577
v    22.358566 261.686451 1.219796
v    22.414484 260.117423 0.738286
v    22.818868 260.317593 1.157577
v    22.878475 260.348327 1.219796
v    22.163962 260.511898 1.053978
v    18.474702 261.618097 1.053978
v    19.361335 257.870005 1.053978
v    17.836038 259.488102 1.829186
v    21.525298 258.381903 1.829186
v    20.638665 262.129995 1.829186
v    18.108475 258.469984 1.401302
v    17.336171 258.358603 2.126390
v    17.623442 260.520376 1.401302
v    16.883090 260.273929 2.126390
v    18.595695 258.396392 1.829186
v    22.090917 259.585640 1.829186
v    19.313387 262.017967 1.829186
v    21.404305 261.603608 2.769464
v    17.909083 260.414360 2.769464
v    20.686613 257.982033 2.769464
v    20.309560 262.507975 2.200784
v    21.072895 263.237139 3.181731
v    22.445207 260.637756 2.200784
v    23.067282 261.490624 3.181731
v    21.718982 261.097521 2.769464
v    18.190028 260.939922 2.769464
v    20.090990 257.962557 2.769464
v    18.281018 258.902479 5.235228
v    21.809972 259.060078 5.235228
v    19.909010 262.037443 5.235228
v    19.281571 257.434332 4.494106
v    18.541130 257.049628 5.269487
v    18.086039 256.822588 5.741331
v    17.370236 260.427943 4.494106
v    16.709666 259.918142 5.269487
v    16.312199 259.600847 5.741331
v    18.420020 258.861621 5.235228
v    21.775855 259.200887 5.235228
v    19.804125 261.937492 5.235228
v    21.579980 261.138379 9.070287
v    18.224145 260.799113 9.070287
v    20.195875 258.062508 9.070287
v    20.075076 263.110648 8.123196
v    22.686408 264.659319 10.944421
v    23.070615 264.892615 11.247361
v    26.348549 266.818447 13.806437
v    26.971810 267.194783 14.039807
v    22.974452 259.086545 8.123196
v    25.270098 261.073363 10.944421
v    25.613017 261.363962 11.247361
v    28.477441 263.863713 13.806437
v    29.031717 264.335796 14.039807
v    21.554633 261.012481 9.070287
v    18.345849 260.840111 9.070287
v    20.099518 258.147408 9.070287
v    18.445367 258.987519 15.537192
v    21.654151 259.159889 15.537192
v    19.900482 261.852592 15.537192
v    20.305707 256.287289 14.350404
v    16.945757 254.502846 17.885648
v    14.546411 253.196378 19.726906
v    12.251763 251.989777 21.472006
v    5.349245 248.253501 23.987824
v    16.727947 261.780829 14.350404
v    13.737297 259.429337 17.885648
v    11.572223 257.763151 19.726906
v    9.540824 256.152341 21.472006
v    3.332586 251.350018 23.987824
v    18.458123 259.144816 15.537192
v    21.511550 259.092287 15.537192
v    20.030327 261.762897 15.537192
v    21.541877 260.855184 23.570456
v    18.488450 260.907713 23.570456
v    19.969673 258.237103 23.570456
v    19.556625 264.218507 22.112197
v    23.830037 266.113293 26.456107
v    25.452849 266.853136 27.658125
v    29.813057 268.764995 30.862823
v    39.989414 273.373894 34.443628
v    40.472440 273.569950 34.610051
v    23.343859 257.390213 22.112197
v    27.213972 260.012139 26.456107
v    28.700857 260.997055 27.658125
v    32.631410 263.683571 30.862823
v    41.929506 269.875954 34.443628
v    42.351582 270.181903 34.610051
v    21.614895 260.429572 23.570456
v    18.820532 261.183754 23.570456
v    19.564573 258.386674 23.570456
v    18.385105 259.570428 36.455601
v    21.179468 258.816246 36.455601
v    20.435427 261.613326 36.455601
v    19.723253 255.031045 34.698583
v    14.172985 254.072982 39.932444
v    11.723182 253.623803 41.611048
v    6.403901 252.728116 45.241979
v    -7.228030 250.263667 49.682296
v    -9.863277 249.894554 50.531802
v    -11.545774 249.649033 50.512445
v    17.290979 264.174722 34.698583
v    11.998252 262.248482 39.932444
v    9.649054 261.421097 41.611048
v    4.587777 259.555491 45.241979
v    -8.466943 254.921127 49.682296
v    -10.937294 253.932119 50.531802
v    -12.519410 253.309234 50.512445
v    18.541706 259.394647 36.455601
v    21.253398 259.039757 36.455601
v    20.204896 261.565597 36.455601
v    21.458294 260.605353 56.069611
v    18.746602 260.960243 56.069611
v    19.795104 258.434403 56.069611
v    19.077979 265.950461 53.993755
v    25.426463 267.944995 60.177383
v    31.370567 269.880680 64.390563
v    34.293770 270.785890 66.450418
v    52.848418 276.777197 72.700164
v    60.796437 279.076511 72.605933
v    23.563077 255.145868 53.993755
v    29.457764 258.233602 60.177383
v    35.025271 261.076506 64.390563
v    37.730181 262.507585 66.450418
v    55.073176 271.417761 72.700164
v    62.313012 275.423084 72.605933
v    21.148136 260.944713 56.069611
v    18.607786 260.521958 56.069611
v    20.244078 258.533328 56.069611
v    18.851864 259.055287 79.427500
v    21.392214 259.478042 79.427500
v    19.755922 261.466672 79.427500
v    23.159157 254.092490 77.022593
v    16.794046 249.743029 84.186409
v    13.021376 247.107042 87.288216
v    7.897587 243.636627 91.453803
v    -8.798539 232.032604 97.971072
v    -17.698418 226.300484 98.599487
v    14.811456 264.237683 77.022593
v    9.317625 258.829330 84.186409
v    6.004444 255.634914 87.288216
v    1.612257 251.275363 91.453803
v    -12.989875 237.126451 97.971072
v    -20.328625 229.497048 98.599487
v    19.036323 258.991726 79.427500
v    21.355030 259.669568 79.427500
v    19.608648 261.338706 79.427500
v    20.963677 261.008274 104.071113
v    18.644970 260.330432 104.071113
v    20.391352 258.661294 104.071113
v    15.655662 265.809953 101.339122
v    22.245820 271.577803 109.477266
v    31.494408 279.630709 117.733075
v    45.392145 291.990107 123.694492
v    50.873645 296.488321 125.958235
v    54.830330 299.773442 125.899687
v    56.378333 300.744585 125.879383
v    26.000413 255.922761 101.339122
v    31.464436 262.766935 109.477266
v    39.090997 272.370125 117.733075
v    50.809467 286.812399 123.694492
v    55.055273 292.491651 125.958235
v    58.158161 296.592805 125.899687
v    59.058328 298.183129 125.879383
v    20.912312 260.929805 104.071113
v    18.738610 260.325183 104.071113
v    20.349079 258.745013 104.071113
v    19.087688 259.070195 123.114216
v    21.261390 259.674817 123.114216
v    19.650921 261.254987 123.114216
v    24.382555 254.181309 120.070949
v    22.535275 252.606834 122.326447
v    16.871551 247.937841 129.136331
v    6.437209 239.118241 138.332786
v    -0.744737 232.898024 141.378214
v    -11.179969 224.561302 145.642218
v    -14.613338 222.525407 146.882850
v    14.099131 264.271264 120.070949
v    12.560020 262.394415 122.326447
v    7.999428 256.643046 129.136331
v    -0.620425 246.043095 138.332786
v    -6.703130 238.744317 141.378214
v    -14.840176 228.152646 145.642218
v    -16.810501 224.681233 146.882850
v    19.225356 259.141696 123.114216
v    21.130635 259.758291 123.114216
v    19.644009 261.100013 123.114216
v    20.774644 260.858304 140.972069
v    18.869365 260.241709 140.972069
v    20.355991 258.899987 140.972069
v    14.548812 266.155535 137.647918
v    18.989278 270.271830 143.274419
v    22.419977 273.348922 147.550006
v    33.405945 283.449210 157.595263
v    44.184446 293.600778 162.341217
v    55.193370 303.174120 166.998775
v    61.456811 307.329636 167.541321
v    26.680399 255.206427 137.647918
v    30.321341 260.044315 143.274419
v    33.031717 263.771520 147.550006
v    41.956394 275.732182 157.595263
v    50.953286 287.491705 162.341217
v    59.351429 299.421351 166.998775
v    62.845087 306.076677 167.541321
v    20.876995 260.170727 140.972069
v    19.413648 260.674137 140.972069
v    19.709356 259.155136 140.972069
v    19.123005 259.829273 154.179604
v    20.586352 259.325863 154.179604
v    20.290644 260.844864 154.179604
v    21.033101 251.356331 150.619184
v    15.364337 250.769149 155.915067
v    9.662426 250.272988 161.225078
v    -6.243229 248.691517 171.984317
v    -20.987685 247.046099 176.739742
v    -36.573989 245.930640 181.728343
v    -48.638859 246.637869 182.604196
v    17.715161 268.399990 150.619184
v    12.240104 266.817770 155.915067
v    6.768465 265.138744 161.225078
v    -8.568895 260.638044 171.984317
v    -22.853844 256.632221 176.739742
v    -37.720360 251.819340 181.728343
v    -48.638859 246.637869 182.604196
v    19.491257 259.580304 154.179604
v    20.617839 259.769264 154.179604
v    19.890904 260.650432 154.179604
v    20.508743 260.419696 161.492123
v    19.382161 260.230736 161.492123
v    20.109096 259.349568 161.492123
v    14.930333 266.759424 157.752726
v    24.944731 273.382419 168.891763
v    38.832121 282.814450 180.191853
v    43.752673 286.243628 182.114280
v    57.578900 295.085486 187.353651
v    68.731600 300.202015 191.167408
v    25.672607 253.737982 157.752726
v    34.078311 262.310984 168.891763
v    45.977987 274.152460 180.191853
v    50.279905 278.331525 182.114280
v    61.588541 290.225126 187.353651
v    68.731600 300.202015 191.167408
v    20.363326 260.272832 161.492123
v    19.582057 260.178233 161.492123
v    20.054617 259.548934 161.492123
v    19.636674 259.727168 166.699245
v    20.417943 259.821767 166.699245
v    19.945383 260.451066 166.699245
v    24.814372 253.292969 162.848172
v    14.200160 246.950301 174.319874
v    -0.530666 237.899881 185.957439
v    -15.821536 229.043084 191.599925
v    -27.535970 224.303791 195.527579
v    14.901540 266.493701 162.848172
v    5.850622 258.069223 174.319874
v    -6.948584 246.446502 185.957439
v    -19.718021 234.231959 191.599925
v    -27.535970 224.303791 195.527579
v    19.772309 259.840524 166.699245
v    20.251955 259.882551 166.699245
v    19.975736 260.276924 166.699245
v    20.227691 260.159476 168.282000
v    19.748045 260.117449 168.282000
v    20.024264 259.723076 168.282000
v    17.716740 265.614527 160.735908
v    20.382619 266.779864 167.593058
v    24.022035 267.980461 176.415994
v    28.099960 269.673443 183.441510
v    35.406593 270.857234 194.300415
v    35.568252 270.904047 194.444983
v    24.496074 255.935334 160.735908
v    26.502365 258.042398 167.593058
v    28.874522 261.052323 176.415994
v    31.859284 264.306067 183.441510
v    35.469007 270.768122 194.300415
v    35.568252 270.904047 194.444983
v    22.340563 261.550699 0.475829
v    22.550813 261.626930 0.683318
v    23.231537 261.883262 1.172938
v    23.871169 262.132948 1.393028
v    24.543326 262.365041 1.620044
v    25.082587 262.475895 1.656078
v    22.663823 260.887101 0.475829
v    22.853452 261.005664 0.683318
v    23.474907 261.383667 1.172938
v    24.065798 261.733408 1.393028
v    24.662885 262.119606 1.620044
v    25.082587 262.475895 1.656078
v    18.154796 257.855377 0.724573
v    17.867111 257.671016 1.041580
v    17.010700 257.107205 1.731759
v    16.237790 256.584927 2.030761
v    15.385634 256.057104 2.350767
v    15.183695 255.967957 2.419376
v    14.679941 255.738349 2.413225
v    17.504349 258.667366 0.724573
v    17.261642 258.426856 1.041580
v    16.524505 257.714150 1.731759
v    15.846123 257.073866 2.030761
v    15.145035 256.357457 2.350767
v    15.013963 256.179844 2.419376
v    14.679941 255.738349 2.413225
v    22.358566 261.686451 1.219796
v    22.835898 261.816050 1.678680
v    24.198972 262.204201 2.632670
v    25.392243 262.559577 3.031755
v    26.734779 262.902041 3.474080
v    27.083446 262.940877 3.583119
v    27.795402 263.028793 3.575149
v    22.878475 260.348327 1.219796
v    23.318092 260.574996 1.678680
v    24.585665 261.208945 2.632670
v    25.705849 261.752430 3.031755
v    26.927425 262.406215 3.474080
v    27.210850 262.612969 3.583119
v    27.795402 263.028793 3.575149
v    17.336171 258.358603 2.126390
v    16.748706 258.283395 2.675896
v    14.846331 258.017016 3.968919
v    12.937222 257.726230 4.587910
v    11.070955 257.517345 5.187430
v    9.611545 257.542551 5.243417
v    16.883090 260.273929 2.126390
v    16.324192 260.077958 2.675896
v    14.504094 259.463765 3.968919
v    12.667041 258.868375 4.587910
v    10.904984 258.218959 5.187430
v    9.611545 257.542551 5.243417
v    21.072895 263.237139 3.181731
v    21.634534 263.761247 3.894786
v    23.487876 265.517106 5.613281
v    25.531769 267.500705 6.526219
v    27.390388 269.166486 7.323012
v    28.998588 270.275693 7.303776
v    23.067282 261.490624 3.181731
v    23.512705 262.116503 3.894786
v    25.008684 264.185311 5.613281
v    26.705271 266.473051 6.526219
v    28.111263 268.535204 7.323012
v    28.998588 270.275693 7.303776
v    18.086039 256.822588 5.741331
v    17.159683 256.360440 6.701785
v    14.200940 254.838607 8.941384
v    11.876493 253.607433 9.784505
v    8.943966 252.200236 10.822912
v    7.871810 251.858484 11.172669
v    6.573318 251.427447 11.157467
v    16.312199 259.600847 5.741331
v    15.503141 258.954983 6.701785
v    12.877540 256.911371 8.941384
v    10.782527 255.320846 9.784505
v    8.271949 253.252776 10.822912
v    7.510754 252.423985 11.172669
v    6.573318 251.427447 11.157467
v    26.971810 267.194783 14.039807
v    31.862140 270.147647 15.870911
v    34.021122 271.337021 16.657827
v    35.571512 272.202764 16.637611
v    38.597626 273.399633 16.601455
v    29.031717 264.335796 14.039807
v    33.380761 268.039922 15.870911
v    35.192395 269.711387 16.657827
v    36.504393 270.908000 16.637611
v    38.597626 273.399633 16.601455
v    5.349245 248.253501 23.987824
v    2.961937 246.961271 24.857946
v    2.435858 246.702954 25.045049
v    -1.907163 244.539386 24.989810
v    -4.714981 243.579068 24.956839
v    -5.750884 243.229307 24.763162
v    3.332586 251.350018 23.987824
v    1.185403 249.689085 24.857946
v    0.736425 249.312381 25.045049
v    -2.998478 246.215066 24.989810
v    -5.012125 244.035323 24.956839
v    -5.750884 243.229307 24.763162
v    40.472440 273.569950 34.610051
v    42.339061 274.327593 35.253180
v    46.088598 275.874629 35.207002
v    50.932475 277.156343 35.151331
v    42.351582 270.181903 34.610051
v    43.982662 271.364219 35.253180
v    47.280385 273.725865 35.207002
v    50.932475 277.156343 35.151331
v    -11.545774 249.649033 50.512445
v    -15.108818 249.129089 50.471451
v    -21.145481 249.055049 50.404375
v    -12.519410 253.309234 50.512445
v    -15.869876 251.990141 50.471451
v    -21.145481 249.055049 50.404375
v    60.796437 279.076511 72.605933
v    62.713589 279.624441 72.583233
v    66.040613 280.112795 72.545871
v    69.715754 280.637525 71.888257
v    62.313012 275.423084 72.605933
v    64.054605 276.393937 72.583233
v    66.749409 278.405306 72.545871
v    69.715754 280.637525 71.888257
v    -17.698418 226.300484 98.599487
v    -24.504632 223.034132 98.515468
v    -25.478069 222.579586 98.325162
v    -20.328625 229.497048 98.599487
v    -24.844569 223.447266 98.515468
v    -25.478069 222.579586 98.325162
v    56.378333 300.744585 125.879383
v    62.782182 304.762054 125.795390
v    59.058328 298.183129 125.879383
v    62.782182 304.762054 125.795390
v    -14.613338 222.525407 146.882850
v    -16.307697 221.520698 147.495099
v    -19.906704 219.328102 147.448276
v    -16.810501 224.681233 146.882850
v    -17.782852 222.968100 147.495099
v    -19.906704 219.328102 147.448276
v    61.456811 307.329636 167.541321
v    64.627978 309.447699 167.498950
v    62.845087 306.076677 167.541321
v    64.627978 309.447699 167.498950
mtllib usm_19_2.5D_2018-09-10_6.mtl
usemtl APPID_3627871952_1420965900800 
o vid_3 
f 3 2 1
f 4 5 6
f 1 6 5
f 1 5 3
f 3 5 4
f 4 2 3
f 2 4 6
f 6 1 2
usemtl APPID_3627870832_1420965901184 
o vid_4 
f 7 10 11
f 7 11 8
f 8 11 12
f 8 12 9
usemtl APPID_3627871952_1420965900800 
o vid_5 
f 15 14 13
f 16 17 18
f 13 18 17
f 13 17 15
f 15 17 16
f 16 14 15
f 14 16 18
f 18 13 14
usemtl APPID_3627870832_1420965901184 
o vid_6 
f 19 22 23
f 19 23 20
f 20 23 24
f 20 24 21
usemtl APPID_3627871952_1420965900800 
o vid_7 
f 27 26 25
f 28 29 30
f 25 30 29
f 25 29 27
f 27 29 28
f 28 26 27
f 26 28 30
f 30 25 26
usemtl APPID_3627870832_1420965901184 
o vid_8 
f 31 34 35
f 31 35 32
f 32 35 36
f 32 36 33
usemtl APPID_3627871952_1420965900800 
o vid_9 
f 39 38 37
f 40 41 42
f 37 42 41
f 37 41 39
f 39 41 40
f 40 38 39
f 38 40 42
f 42 37 38
usemtl APPID_3627870832_1420965901184 
o vid_10 
f 43 45 46
f 43 46 44
f 43 45 46
f 43 46 44
usemtl APPID_3627871952_1420965900800 
o vid_11 
f 49 48 47
f 50 51 52
f 47 52 51
f 47 51 49
f 49 51 50
f 50 48 49
f 48 50 52
f 52 47 48
usemtl APPID_3627870832_1420965901184 
o vid_12 
f 53 55 56
f 53 56 54
f 53 55 56
f 53 56 54
usemtl APPID_3627871952_1420965900800 
o vid_13 
f 59 58 57
f 60 61 62
f 57 62 61
f 57 61 59
f 59 61 60
f 60 58 59
f 58 60 62
f 62 57 58
usemtl APPID_3627870832_1420965901184 
o vid_14 
f 63 66 67
f 63 67 64
f 64 67 68
f 64 68 65
usemtl APPID_3627871952_1420965900800 
o vid_15 
f 71 70 69
f 72 73 74
f 69 74 73
f 69 73 71
f 71 73 72
f 72 70 71
f 70 72 74
f 74 69 70
usemtl APPID_3627870832_1420965901184 
o vid_16 
f 75 80 81
f 76 81 82
f 77 82 83
f 75 81 76
f 76 82 77
f 77 83 78
f 78 83 84
f 78 84 79
usemtl APPID_3627871952_1420965900800 
o vid_17 
f 87 86 85
f 88 89 90
f 85 90 89
f 85 89 87
f 87 89 88
f 88 86 87
f 86 88 90
f 90 85 86
usemtl APPID_3627870832_1420965901184 
o vid_18 
f 91 96 97
f 92 97 98
f 93 98 99
f 91 97 92
f 92 98 93
f 93 99 94
f 94 99 100
f 94 100 95
usemtl APPID_3627871952_1420965900800 
o vid_19 
f 103 102 101
f 104 105 106
f 101 106 105
f 101 105 103
f 103 105 104
f 104 102 103
f 102 104 106
f 106 101 102
usemtl APPID_3627870832_1420965901184 
o vid_20 
f 107 113 114
f 108 114 115
f 109 115 116
f 110 116 117
f 107 114 108
f 108 115 109
f 109 116 110
f 110 117 111
f 111 117 118
f 111 118 112
usemtl APPID_3627871952_1420965900800 
o vid_21 
f 121 120 119
f 122 123 124
f 119 124 123
f 119 123 121
f 121 123 122
f 122 120 121
f 120 122 124
f 124 119 120
usemtl APPID_3627870832_1420965901184 
o vid_22 
f 125 132 133
f 126 133 134
f 127 134 135
f 128 135 136
f 129 136 137
f 125 133 126
f 126 134 127
f 127 135 128
f 128 136 129
f 129 137 130
f 130 137 138
f 130 138 131
usemtl APPID_3627871952_1420965900800 
o vid_23 
f 141 140 139
f 142 143 144
f 139 144 143
f 139 143 141
f 141 143 142
f 142 140 141
f 140 142 144
f 144 139 140
usemtl APPID_3627870832_1420965901184 
o vid_24 
f 145 151 152
f 146 152 153
f 147 153 154
f 148 154 155
f 145 152 146
f 146 153 147
f 147 154 148
f 148 155 149
f 149 155 156
f 149 156 150
usemtl APPID_3627871952_1420965900800 
o vid_25 
f 159 158 157
f 160 161 162
f 157 162 161
f 157 161 159
f 159 161 160
f 160 158 159
f 158 160 162
f 162 157 158
usemtl APPID_3627870832_1420965901184 
o vid_26 
f 163 169 170
f 164 170 171
f 165 171 172
f 166 172 173
f 163 170 164
f 164 171 165
f 165 172 166
f 166 173 167
f 167 173 174
f 167 174 168
usemtl APPID_3627871952_1420965900800 
o vid_27 
f 177 176 175
f 178 179 180
f 175 180 179
f 175 179 177
f 177 179 178
f 178 176 177
f 176 178 180
f 180 175 176
usemtl APPID_3627870832_1420965901184 
o vid_28 
f 181 188 189
f 182 189 190
f 183 190 191
f 184 191 192
f 185 192 193
f 181 189 182
f 182 190 183
f 183 191 184
f 184 192 185
f 185 193 186
f 186 193 194
f 186 194 187
usemtl APPID_3627871952_1420965900800 
o vid_29 
f 197 196 195
f 198 199 200
f 195 200 199
f 195 199 197
f 197 199 198
f 198 196 197
f 196 198 200
f 200 195 196
usemtl APPID_3627870832_1420965901184 
o vid_30 
f 201 208 209
f 202 209 210
f 203 210 211
f 204 211 212
f 205 212 213
f 201 209 202
f 202 210 203
f 203 211 204
f 204 212 205
f 205 213 206
f 206 213 214
f 206 214 207
usemtl APPID_3627871952_1420965900800 
o vid_31 
f 217 216 215
f 218 219 220
f 215 220 219
f 215 219 217
f 217 219 218
f 218 216 217
f 216 218 220
f 220 215 216
usemtl APPID_3627870832_1420965901184 
o vid_32 
f 221 228 229
f 222 229 230
f 223 230 231
f 224 231 232
f 225 232 233
f 221 229 222
f 222 230 223
f 223 231 224
f 224 232 225
f 225 233 226
f 226 233 234
f 226 234 227
usemtl APPID_3627871952_1420965900800 
o vid_33 
f 237 236 235
f 238 239 240
f 235 240 239
f 235 239 237
f 237 239 238
f 238 236 237
f 236 238 240
f 240 235 236
usemtl APPID_3627870832_1420965901184 
o vid_34 
f 241 248 249
f 242 249 250
f 243 250 251
f 244 251 252
f 245 252 253
f 241 249 242
f 242 250 243
f 243 251 244
f 244 252 245
f 245 253 246
f 246 253 254
usemtl APPID_3627871952_1420965900800 
o vid_35 
f 257 256 255
f 258 259 260
f 255 260 259
f 255 259 257
f 257 259 258
f 258 256 257
f 256 258 260
f 260 255 256
usemtl APPID_3627870832_1420965901184 
o vid_36 
f 261 267 268
f 262 268 269
f 263 269 270
f 264 270 271
f 261 268 262
f 262 269 263
f 263 270 264
f 264 271 265
f 265 271 272
usemtl APPID_3627871952_1420965900800 
o vid_37 
f 275 274 273
f 276 277 278
f 273 278 277
f 273 277 275
f 275 277 276
f 276 274 275
f 274 276 278
f 278 273 274
usemtl APPID_3627870832_1420965901184 
o vid_38 
f 279 284 285
f 280 285 286
f 281 286 287
f 279 285 280
f 280 286 281
f 281 287 282
f 282 287 288
usemtl APPID_3627871952_1420965900800 
o vid_39 
f 291 290 289
f 292 293 294
f 289 294 293
f 289 293 291
f 291 293 292
f 292 290 291
f 290 292 294
f 294 289 290
usemtl APPID_3627870832_1420965901184 
o vid_40 
f 295 301 302
f 296 302 303
f 297 303 304
f 298 304 305
f 295 302 296
f 296 303 297
f 297 304 298
f 298 305 299
f 299 305 306
usemtl APPID_3627883488_1420965906304 
o vid_10000004 
f 307 313 314
f 308 314 315
f 309 315 316
f 310 316 317
f 307 314 308
f 308 315 309
f 309 316 310
f 310 317 311
f 311 317 318
usemtl APPID_3627883488_1420965906304 
o vid_10000006 
f 319 326 327
f 320 327 328
f 321 328 329
f 322 329 330
f 323 330 331
f 319 327 320
f 320 328 321
f 321 329 322
f 322 330 323
f 323 331 324
f 324 331 332
usemtl APPID_3627883488_1420965906304 
o vid_10000008 
f 333 340 341
f 334 341 342
f 335 342 343
f 336 343 344
f 337 344 345
f 333 341 334
f 334 342 335
f 335 343 336
f 336 344 337
f 337 345 338
f 338 345 346
usemtl APPID_3627883488_1420965906304 
o vid_10000010 
f 347 353 354
f 348 354 355
f 349 355 356
f 350 356 357
f 347 354 348
f 348 355 349
f 349 356 350
f 350 357 351
f 351 357 358
usemtl APPID_3627883488_1420965906304 
o vid_10000012 
f 359 365 366
f 360 366 367
f 361 367 368
f 362 368 369
f 359 366 360
f 360 367 361
f 361 368 362
f 362 369 363
f 363 369 370
usemtl APPID_3627883488_1420965906304 
o vid_10000014 
f 371 378 379
f 372 379 380
f 373 380 381
f 374 381 382
f 375 382 383
f 371 379 372
f 372 380 373
f 373 381 374
f 374 382 375
f 375 383 376
f 376 383 384
usemtl APPID_3627883488_1420965906304 
o vid_10000016 
f 385 390 391
f 386 391 392
f 387 392 393
f 385 391 386
f 386 392 387
f 387 393 388
f 388 393 394
usemtl APPID_3627883488_1420965906304 
o vid_10000018 
f 395 401 402
f 396 402 403
f 397 403 404
f 398 404 405
f 395 402 396
f 396 403 397
f 397 404 398
f 398 405 399
f 399 405 406
usemtl APPID_3627883488_1420965906304 
o vid_10000020 
f 407 411 412
f 408 412 413
f 407 412 408
f 408 413 409
f 409 413 414
usemtl APPID_3627883488_1420965906304 
o vid_10000022 
f 415 418 419
f 415 419 416
f 416 419 420
usemtl APPID_3627883488_1420965906304 
o vid_10000024 
f 421 425 426
f 422 426 427
f 421 426 422
f 422 427 423
f 423 427 428
usemtl APPID_3627883488_1420965906304 
o vid_10000026 
f 429 432 433
f 429 433 430
f 430 433 434
usemtl APPID_3627883488_1420965906304 
o vid_10000028 
f 435 437 438
f 435 438 436
f 435 437 438
usemtl APPID_3627883488_1420965906304 
o vid_10000030 
f 439 442 443
f 439 443 440
f 440 443 444
usemtl APPID_3627883488_1420965906304 
o vid_10000032 
f 445 447 448
f 445 448 446
f 445 447 448
