# File generated by PlantGL - Fri Sep  4 14:43:23 2026
v    17.752484 218.905161 0.000000
v    22.071916 218.601013 0.000000
v    20.175600 222.493825 0.000000
v    22.247516 221.094839 0.362700
v    17.928084 221.398987 0.362700
v    19.824400 217.506175 0.362700
v    22.064918 221.443499 0.203133
v    22.333887 221.546046 0.470622
v    22.409498 220.736136 0.203133
v    22.656044 220.884713 0.470622
v    21.879284 221.505407 0.362700
v    17.756638 220.874804 0.362700
v    20.364078 217.619789 0.362700
v    18.120716 218.494593 0.589630
v    22.243362 219.125196 0.589630
v    19.635922 222.380211 0.589630
v    18.479378 218.072790 0.363993
v    18.155513 217.857662 0.725289
v    17.787363 218.936671 0.363993
v    17.506736 218.667568 0.725289
v    17.841416 219.161313 0.589630
v    21.805616 218.549955 0.589630
v    20.352968 222.288732 0.589630
v    22.158584 220.838687 1.053978
v    18.194384 221.450045 1.053978
v    19.647032 217.711268 1.053978
v    21.861454 221.541365 0.741169
v    22.340561 221.679929 1.204625
v    22.355178 221.683897 1.218676
v    22.413811 220.119728 0.741169
v    22.860790 220.340983 1.204625
v    22.874251 220.347923 1.218676
v    22.163962 220.511898 1.053978
v    18.474702 221.618097 1.053978
v    19.361335 217.870005 1.053978
v    17.836038 219.488102 1.829186
v    21.525298 218.381903 1.829186
v    20.638665 222.129995 1.829186
v    18.107732 218.472273 1.404027
v    17.340100 218.361566 2.124730
v    17.623804 220.517997 1.404027
v    16.887929 220.273041 2.124730
v    18.595695 218.396392 1.829186
v    22.090917 219.585640 1.829186
v    19.313387 222.017967 1.829186
v    21.404305 221.603608 2.769464
v    17.909083 220.414360 2.769464
v    20.686613 217.982033 2.769464
v    20.311188 222.506755 2.202932
v    21.070783 223.232345 3.179072
v    22.443782 220.639209 2.202932
v    23.062808 221.487898 3.179072
v    21.718982 221.097521 2.769464
v    18.190028 220.939922 2.769464
v    20.090990 217.962557 2.769464
v    18.281018 218.902479 5.235228
v    21.809972 219.060078 5.235228
v    19.909010 222.037443 5.235228
v    19.280808 217.435393 4.495113
v    18.530311 217.045463 5.281026
v    18.094274 216.827930 5.733113
v    17.370877 220.426804 4.495113
v    16.701335 219.910079 5.281026
v    16.320511 219.606070 5.733113
v    18.420020 218.861621 5.235228
v    21.775855 219.200887 5.235228
v    19.804125 221.937492 5.235228
v    21.579980 221.138379 9.070287
v    18.224145 220.799113 9.070287
v    20.195875 218.062508 9.070287
v    20.074833 223.110882 8.122357
v    20.848064 223.569453 8.957738
v    22.974597 219.086240 8.122357
v    23.654352 219.674548 8.957738
v    21.554633 221.012481 9.070287
v    18.345849 220.840111 9.070287
v    20.099518 218.147408 9.070287
v    18.445367 218.987519 15.537192
v    21.654151 219.159889 15.537192
v    19.900482 221.852592 15.537192
v    20.307271 216.285349 14.346896
v    16.937391 214.495631 17.892589
v    14.611534 213.229179 19.677451
v    12.228792 211.976255 21.489547
v    12.227107 211.975343 21.490161
v    16.726805 221.783044 14.346896
v    13.727316 219.424603 17.892589
v    11.628556 217.809450 19.677451
v    9.519168 216.136799 21.489547
v    9.517653 216.135627 21.490161
v    18.458123 219.144816 15.537192
v    21.511550 219.092287 15.537192
v    20.030327 221.762897 15.537192
v    21.541877 220.855184 23.570456
v    18.488450 220.907713 23.570456
v    19.969673 218.237103 23.570456
v    19.553001 224.223993 22.105125
v    23.847136 226.127968 26.470100
v    25.334474 226.806047 27.571772
v    29.860283 228.790520 30.898186
v    34.073960 230.698905 32.380873
v    23.346595 217.384234 22.105125
v    27.235474 220.018875 26.470100
v    28.598232 220.921568 27.571772
v    32.678069 223.710119 30.898186
v    36.528088 226.274170 32.380873
v    21.614895 220.429572 23.570456
v    18.820532 221.183754 23.570456
v    19.564573 218.386674 23.570456
v    18.385105 219.570428 38.883082
v    21.179468 218.816246 38.883082
v    20.435427 221.613326 38.883082
v    19.820667 214.668062 37.114529
v    14.233958 213.703709 42.382753
v    7.451765 212.460171 47.029908
v    -9.565102 209.396442 52.937321
v    17.195168 224.538131 37.114529
v    11.867691 222.599244 42.382753
v    5.364019 220.308660 47.029908
v    -10.926017 214.512547 52.937321
v    18.541706 219.394647 38.883082
v    21.253398 219.039757 38.883082
v    20.204896 221.565597 38.883082
v    21.458294 220.605353 56.198358
v    18.746602 220.960243 56.198358
v    19.795104 218.434403 56.198358
v    19.179160 225.703563 54.105680
v    25.579091 227.714260 60.339419
v    27.768403 228.427205 61.891202
v    34.540616 230.524312 66.663288
v    49.515510 235.359715 71.707269
v    50.881230 235.741575 72.159992
v    23.459663 215.391840 54.105680
v    29.402118 218.504596 60.339419
v    31.452723 219.551684 61.891202
v    37.719213 222.867078 66.663288
v    51.716219 230.058211 71.707269
v    52.950879 230.755796 72.159992
v    21.148136 220.944713 56.198358
v    18.607786 220.521958 56.198358
v    20.244078 218.533328 56.198358
v    18.851864 219.055287 79.449853
v    21.392214 219.478042 79.449853
v    19.755922 221.466672 79.449853
v    23.200223 214.045155 77.022189
v    16.774880 209.654536 84.253795
v    12.961468 206.990082 87.389100
v    7.794292 203.490281 91.589960
v    -9.065631 191.772416 98.171166
v    -10.987594 190.546780 98.898889
v    -14.267050 188.428885 98.854444
v    14.772916 224.287096 77.022189
v    9.227097 218.827565 84.253795
v    5.878137 215.598652 87.389100
v    1.448758 211.202185 91.589960
v    -13.296629 196.914465 98.171166
v    -14.869452 195.264510 98.898889
v    -17.579257 192.454302 98.854444
v    19.036323 218.991726 79.449853
v    21.355030 219.669568 79.449853
v    19.608648 221.338706 79.449853
v    20.963677 221.008274 104.131996
v    18.644970 220.330432 104.131996
v    20.391352 218.661294 104.131996
v    15.524041 225.932863 101.370931
v    22.184332 231.762095 109.595682
v    24.160368 233.528220 111.381868
v    31.517401 239.914030 117.939352
v    46.699170 253.415330 124.451552
v    51.058942 256.993034 126.252046
v    54.294309 259.679266 126.204171
v    26.129147 215.796831 101.370931
v    31.651320 222.713842 109.595682
v    33.326306 224.767701 111.381868
v    39.372988 232.405903 117.939352
v    52.174144 248.182519 124.451552
v    55.551093 252.699576 126.252046
v    58.088313 256.053074 126.204171
v    20.912312 220.929805 104.131996
v    18.738610 220.325183 104.131996
v    20.349079 218.745013 104.131996
v    19.087688 219.070195 126.161183
v    21.261390 219.674817 126.161183
v    19.650921 221.254987 126.161183
v    24.850707 213.725532 123.082488
v    18.108365 207.978895 131.314774
v    6.771904 198.413082 141.556916
v    -6.791494 186.665947 147.308330
v    -15.399964 179.788628 150.825890
v    -16.865566 178.603907 150.804434
v    13.634545 224.730675 123.082488
v    8.016987 217.880416 131.314774
v    -1.331814 206.364338 141.556916
v    -12.819251 192.580298 147.308330
v    -19.531848 183.842776 150.825890
v    -20.688523 182.354940 150.804434
v    19.188946 219.101354 126.161183
v    21.183778 219.746930 126.161183
v    19.627277 221.151717 126.161183
v    20.811054 220.898646 141.184900
v    18.816222 220.253070 141.184900
v    20.372723 218.848283 141.184900
v    14.806974 225.991731 137.819332
v    22.831763 233.224603 147.844794
v    33.954609 243.450733 158.015208
v    40.573489 249.684625 160.929611
v    51.719577 259.377244 165.645199
v    53.033764 260.232499 166.132543
v    26.491069 215.446498 137.819332
v    32.865965 224.168446 147.844794
v    41.901838 236.278130 158.015208
v    47.426664 243.499437 160.929611
v    55.929443 255.577718 165.645199
v    56.645915 256.972428 166.132543
v    21.097812 220.213714 141.184900
v    19.266012 220.843876 141.184900
v    19.636176 218.942409 141.184900
v    18.902188 219.786286 154.329877
v    20.733988 219.156124 154.329877
v    20.363824 221.057591 154.329877
v    20.823937 211.271016 150.722829
v    15.862961 210.757148 155.357482
v    9.301871 210.186224 161.467619
v    -6.812085 208.584042 172.367762
v    -20.733029 207.030525 176.857586
v    -36.523453 205.900457 181.911518
v    -40.747679 206.185557 183.227439
v    -41.025889 206.201000 183.224344
v    17.489268 228.400611 150.722829
v    12.697813 227.015944 155.357482
v    6.401693 225.083917 161.467619
v    -9.136526 220.524276 172.367762
v    -22.623627 216.742187 176.857586
v    -37.684837 211.866276 181.911518
v    -41.493628 210.017365 183.227439
v    -41.745728 209.898684 183.224344
v    19.233055 219.367295 154.329877
v    20.931411 219.652159 154.329877
v    19.835534 220.980546 154.329877
v    20.766945 220.632705 161.616082
v    19.068589 220.347841 161.616082
v    20.164466 219.019454 161.616082
v    15.168192 226.991371 157.826012
v    25.318296 233.704115 169.115996
v    39.393877 243.263961 180.569216
v    43.502198 246.127088 182.174309
v    57.515786 255.088764 187.484679
v    64.600133 258.338852 189.907230
v    25.945536 213.927418 157.826012
v    34.465147 222.616594 169.115996
v    46.526077 234.618536 180.569216
v    50.117882 238.107767 182.174309
v    61.579763 250.162540 187.484679
v    66.117131 256.499995 189.907230
v    20.606966 220.455789 161.616082
v    19.301792 220.297753 161.616082
v    20.091242 219.246458 161.616082
v    19.393034 219.544211 167.314169
v    20.698208 219.702247 167.314169
v    19.908758 220.753542 167.314169
v    24.953721 212.606365 163.409857
v    14.192775 206.176014 175.040147
v    -0.741695 197.000478 186.838594
v    -6.813001 193.168960 189.139774
v    -21.655535 184.606065 194.610211
v    -33.531912 179.801255 198.592163
v    14.281030 226.818986 163.409857
v    5.104989 218.278046 175.040147
v    -7.871158 206.494648 186.838594
v    -13.243715 201.732621 189.139774
v    -25.605886 189.866673 194.610211
v    -33.531912 179.801255 198.592163
v    19.547352 219.682964 167.314169
v    20.500885 219.766513 167.314169
v    19.951763 220.550522 167.314169
v    20.452648 220.317036 170.622380
v    19.499115 220.233487 170.622380
v    20.048237 219.449478 170.622380
v    15.303226 227.175222 166.679228
v    26.380194 233.306320 178.425218
v    41.761649 242.068900 190.341038
v    58.987545 251.362858 196.593130
v    71.136093 255.815862 200.614694
v    25.137911 213.133751 166.679228
v    34.685627 221.448240 178.425218
v    48.177524 232.908636 190.341038
v    62.799182 245.920793 196.593130
v    71.136093 255.815862 200.614694
v    20.305274 220.217790 170.622380
v    19.658751 220.155480 170.622380
v    20.035975 219.626730 170.622380
v    19.694726 219.782210 172.799000
v    20.341249 219.844520 172.799000
v    19.964025 220.373270 172.799000
v    24.837521 213.056664 168.894688
v    13.922783 206.890962 180.524978
v    -1.231258 198.082791 192.323425
v    -17.939386 188.892490 198.414035
v    -29.929534 184.379078 202.395986
v    15.008705 226.833630 168.894688
v    5.626869 218.519272 180.524978
v    -7.633105 207.056204 192.323425
v    -21.760119 194.247979 198.414035
v    -29.929534 184.379078 202.395986
v    22.333887 221.546046 0.470622
v    22.544371 221.622644 0.678455
v    23.214771 221.875088 1.160650
v    23.893069 222.139868 1.394045
v    24.555032 222.368441 1.617618
v    25.088459 222.478755 1.635840
v    22.656044 220.884713 0.470622
v    22.846105 221.003234 0.678455
v    23.458135 221.375504 1.160650
v    24.084747 221.746387 1.394045
v    24.672779 222.126728 1.617618
v    25.088459 222.478755 1.635840
v    18.155513 217.857662 0.725289
v    17.873517 217.676775 1.036127
v    17.027439 217.119766 1.717980
v    16.209131 216.566812 2.034543
v    15.367256 216.045357 2.350689
v    14.667490 215.728375 2.390431
v    17.506736 218.667568 0.725289
v    17.268661 218.431851 1.036127
v    16.540416 217.727743 1.717980
v    15.822190 217.049852 2.034543
v    15.129560 216.342086 2.350689
v    14.667490 215.728375 2.390431
v    22.355178 221.683897 1.218676
v    22.827741 221.812201 1.672975
v    24.178367 222.196807 2.618253
v    25.425144 222.568118 3.035233
v    26.755420 222.907455 3.473518
v    27.032027 222.938264 3.560023
v    27.809501 223.034271 3.551319
v    22.874251 220.347923 1.218676
v    23.309476 220.572328 1.672975
v    24.565473 221.200488 2.618253
v    25.735885 221.768342 3.035233
v    26.946306 222.416157 3.473518
v    27.171155 222.580181 3.560023
v    27.809501 223.034271 3.551319
v    17.340100 218.361566 2.124730
v    16.756808 218.286094 2.670503
v    14.866551 218.021411 3.955291
v    12.907240 217.722978 4.590558
v    11.052860 217.515424 5.186259
v    9.599664 217.539740 5.220913
v    16.887929 220.273041 2.124730
v    16.332644 220.079176 2.670503
v    14.524140 219.468895 3.955291
v    12.638780 218.857849 4.590558
v    10.887946 218.212569 5.186259
v    9.599664 217.539740 5.220913
v    21.070783 223.232345 3.179072
v    21.630692 223.755699 3.890535
v    23.477032 225.504925 5.602538
v    25.548192 227.514986 6.527655
v    27.368875 229.146767 7.308185
v    29.003525 230.281332 7.286061
v    23.062808 221.487898 3.179072
v    23.507712 222.111963 3.890535
v    24.998040 224.172954 5.602538
v    26.717260 226.491214 6.527655
v    28.094555 228.511277 7.308185
v    29.003525 230.281332 7.286061
v    18.094274 216.827930 5.733113
v    17.161914 216.362786 6.699792
v    14.207192 214.843022 8.936347
v    11.871570 213.605929 9.783522
v    8.943028 212.200644 10.820517
v    7.888267 211.864437 11.164600
v    6.574916 211.428467 11.149224
v    16.320511 219.606070 5.733113
v    15.506209 218.956020 6.699792
v    12.884176 216.915185 8.936347
v    10.779091 215.317014 9.783522
v    8.271925 213.251754 10.820517
v    7.523079 212.436410 11.164600
v    6.574916 211.428467 11.149224
v    20.848064 223.569453 8.957738
v    22.688479 224.660925 10.946082
v    26.354066 226.821685 13.810633
v    31.849187 230.139733 15.868191
v    34.034074 231.343378 16.664549
v    35.560735 232.195870 16.644643
v    38.589529 233.393800 16.608454
v    23.654352 219.674548 8.957738
v    25.272277 221.074818 10.946082
v    28.482259 223.867922 13.810633
v    33.369154 228.030140 15.868191
v    35.202525 229.721661 16.664549
v    36.494441 230.899959 16.644643
v    38.589529 233.393800 16.608454
v    12.227107 211.975343 21.490161
v    3.004249 206.983087 24.851694
v    -1.874806 204.556932 25.019014
v    -4.798675 203.556923 24.984681
v    -5.731392 203.242001 24.810297
v    9.517653 216.135627 21.490161
v    1.222464 209.718963 24.851694
v    -2.969347 206.237565 25.019014
v    -5.066221 203.967731 24.984681
v    -5.731392 203.242001 24.810297
v    34.073960 230.698905 32.380873
v    39.921050 233.347067 34.438318
v    42.450540 234.373763 35.309833
v    46.041861 235.855520 35.265604
v    50.909228 237.143449 35.209663
v    36.528088 226.274170 32.380873
v    41.870550 229.832165 34.438318
v    44.080856 231.434342 35.309833
v    47.239428 233.696336 35.265604
v    50.909228 237.143449 35.209663
v    -9.565102 209.396442 52.937321
v    -12.369589 208.879609 53.023195
v    -20.431547 207.703154 52.930440
v    -21.348547 207.691907 52.920251
v    -25.582532 207.656590 52.170219
v    -26.406801 207.655505 51.925063
v    -10.926017 214.512547 52.937321
v    -13.616637 213.567648 53.023195
v    -21.197601 210.582990 52.930440
v    -21.998993 210.137134 52.920251
v    -25.690934 208.064106 52.170219
v    -26.406801 207.655505 51.925063
v    50.881230 235.741575 72.159992
v    53.305694 236.419463 72.963680
v    58.603130 237.933492 72.900956
v    65.717348 238.977746 72.821065
v    52.950879 230.755796 72.159992
v    55.142681 231.994167 72.963680
v    59.955013 234.676809 72.900956
v    65.717348 238.977746 72.821065
v    -14.267050 188.428885 98.854444
v    -18.372501 185.777557 98.798806
v    -24.913717 182.691824 98.718448
v    -25.903177 182.229797 98.525009
v    -17.579257 192.454302 98.854444
v    -20.971578 188.936288 98.798806
v    -25.259249 183.111759 98.718448
v    -25.903177 182.229797 98.525009
v    54.294309 259.679266 126.204171
v    56.290538 261.336677 126.174632
v    64.327015 266.378378 126.069225
v    58.088313 256.053074 126.204171
v    59.653784 258.122191 126.174632
v    64.327015 266.378378 126.069225
v    -16.865566 178.603907 150.804434
v    -17.435531 178.143175 150.796091
v    -26.469473 172.639495 150.678558
v    -20.688523 182.354940 150.804434
v    -21.138348 181.776327 150.796091
v    -26.469473 172.639495 150.678558
v    53.033764 260.232499 166.132543
v    58.468349 263.769256 168.147866
v    61.073326 265.509153 168.113061
v    56.645915 256.972428 166.132543
v    59.608758 262.740003 168.147866
v    61.073326 265.509153 168.113061
v    -41.025889 206.201000 183.224344
v    -48.695917 206.626762 183.138993
v    -41.745728 209.898684 183.224344
v    -48.695917 206.626762 183.138993
v    64.600133 258.338852 189.907230
v    68.819618 260.274627 191.350117
v    66.117131 256.499995 189.907230
v    68.819618 260.274627 191.350117
mtllib usm_25_2.5D_2018-09-16_5.mtl
usemtl APPID_3206576288_2021840668912 
o vid_3 
f 3 2 1
f 4 5 6
f 1 6 5
f 1 5 3
f 3 5 4
f 4 2 3
f 2 4 6
f 6 1 2
usemtl APPID_3206580320_2021840665328 
o vid_4 
f 7 9 10
f 7 10 8
f 7 9 10
f 7 10 8
usemtl APPID_3206576288_2021840668912 
o vid_5 
f 13 12 11
f 14 15 16
f 11 16 15
f 11 15 13
f 13 15 14
f 14 12 13
f 12 14 16
f 16 11 12
usemtl APPID_3206580320_2021840665328 
o vid_6 
f 17 19 20
f 17 20 18
f 17 19 20
f 17 20 18
usemtl APPID_3206576288_2021840668912 
o vid_7 
f 23 22 21
f 24 25 26
f 21 26 25
f 21 25 23
f 23 25 24
f 24 22 23
f 22 24 26
f 26 21 22
usemtl APPID_3206580320_2021840665328 
o vid_8 
f 27 30 31
f 27 31 28
f 28 31 32
f 28 32 29
usemtl APPID_3206576288_2021840668912 
o vid_9 
f 35 34 33
f 36 37 38
f 33 38 37
f 33 37 35
f 35 37 36
f 36 34 35
f 34 36 38
f 38 33 34
usemtl APPID_3206580320_2021840665328 
o vid_10 
f 39 41 42
f 39 42 40
f 39 41 42
f 39 42 40
usemtl APPID_3206576288_2021840668912 
o vid_11 
f 45 44 43
f 46 47 48
f 43 48 47
f 43 47 45
f 45 47 46
f 46 44 45
f 44 46 48
f 48 43 44
usemtl APPID_3206580320_2021840665328 
o vid_12 
f 49 51 52
f 49 52 50
f 49 51 52
f 49 52 50
usemtl APPID_3206576288_2021840668912 
o vid_13 
f 55 54 53
f 56 57 58
f 53 58 57
f 53 57 55
f 55 57 56
f 56 54 55
f 54 56 58
f 58 53 54
usemtl APPID_3206580320_2021840665328 
o vid_14 
f 59 62 63
f 59 63 60
f 60 63 64
f 60 64 61
usemtl APPID_3206576288_2021840668912 
o vid_15 
f 67 66 65
f 68 69 70
f 65 70 69
f 65 69 67
f 67 69 68
f 68 66 67
f 66 68 70
f 70 65 66
usemtl APPID_3206580320_2021840665328 
o vid_16 
f 71 73 74
f 71 74 72
f 71 73 74
f 71 74 72
usemtl APPID_3206576288_2021840668912 
o vid_17 
f 77 76 75
f 78 79 80
f 75 80 79
f 75 79 77
f 77 79 78
f 78 76 77
f 76 78 80
f 80 75 76
usemtl APPID_3206580320_2021840665328 
o vid_18 
f 81 86 87
f 82 87 88
f 83 88 89
f 81 87 82
f 82 88 83
f 83 89 84
f 84 89 90
f 84 90 85
usemtl APPID_3206576288_2021840668912 
o vid_19 
f 93 92 91
f 94 95 96
f 91 96 95
f 91 95 93
f 93 95 94
f 94 92 93
f 92 94 96
f 96 91 92
usemtl APPID_3206580320_2021840665328 
o vid_20 
f 97 102 103
f 98 103 104
f 99 104 105
f 97 103 98
f 98 104 99
f 99 105 100
f 100 105 106
f 100 106 101
usemtl APPID_3206576288_2021840668912 
o vid_21 
f 109 108 107
f 110 111 112
f 107 112 111
f 107 111 109
f 109 111 110
f 110 108 109
f 108 110 112
f 112 107 108
usemtl APPID_3206580320_2021840665328 
o vid_22 
f 113 117 118
f 114 118 119
f 113 118 114
f 114 119 115
f 115 119 120
f 115 120 116
usemtl APPID_3206576288_2021840668912 
o vid_23 
f 123 122 121
f 124 125 126
f 121 126 125
f 121 125 123
f 123 125 124
f 124 122 123
f 122 124 126
f 126 121 122
usemtl APPID_3206580320_2021840665328 
o vid_24 
f 127 133 134
f 128 134 135
f 129 135 136
f 130 136 137
f 127 134 128
f 128 135 129
f 129 136 130
f 130 137 131
f 131 137 138
f 131 138 132
usemtl APPID_3206576288_2021840668912 
o vid_25 
f 141 140 139
f 142 143 144
f 139 144 143
f 139 143 141
f 141 143 142
f 142 140 141
f 140 142 144
f 144 139 140
usemtl APPID_3206580320_2021840665328 
o vid_26 
f 145 152 153
f 146 153 154
f 147 154 155
f 148 155 156
f 149 156 157
f 145 153 146
f 146 154 147
f 147 155 148
f 148 156 149
f 149 157 150
f 150 157 158
f 150 158 151
usemtl APPID_3206576288_2021840668912 
o vid_27 
f 161 160 159
f 162 163 164
f 159 164 163
f 159 163 161
f 161 163 162
f 162 160 161
f 160 162 164
f 164 159 160
usemtl APPID_3206580320_2021840665328 
o vid_28 
f 165 172 173
f 166 173 174
f 167 174 175
f 168 175 176
f 169 176 177
f 165 173 166
f 166 174 167
f 167 175 168
f 168 176 169
f 169 177 170
f 170 177 178
f 170 178 171
usemtl APPID_3206576288_2021840668912 
o vid_29 
f 181 180 179
f 182 183 184
f 179 184 183
f 179 183 181
f 181 183 182
f 182 180 181
f 180 182 184
f 184 179 180
usemtl APPID_3206580320_2021840665328 
o vid_30 
f 185 191 192
f 186 192 193
f 187 193 194
f 188 194 195
f 185 192 186
f 186 193 187
f 187 194 188
f 188 195 189
f 189 195 196
f 189 196 190
usemtl APPID_3206576288_2021840668912 
o vid_31 
f 199 198 197
f 200 201 202
f 197 202 201
f 197 201 199
f 199 201 200
f 200 198 199
f 198 200 202
f 202 197 198
usemtl APPID_3206580320_2021840665328 
o vid_32 
f 203 209 210
f 204 210 211
f 205 211 212
f 206 212 213
f 203 210 204
f 204 211 205
f 205 212 206
f 206 213 207
f 207 213 214
f 207 214 208
usemtl APPID_3206576288_2021840668912 
o vid_33 
f 217 216 215
f 218 219 220
f 215 220 219
f 215 219 217
f 217 219 218
f 218 216 217
f 216 218 220
f 220 215 216
usemtl APPID_3206580320_2021840665328 
o vid_34 
f 221 229 230
f 222 230 231
f 223 231 232
f 224 232 233
f 225 233 234
f 226 234 235
f 221 230 222
f 222 231 223
f 223 232 224
f 224 233 225
f 225 234 226
f 226 235 227
f 227 235 236
f 227 236 228
usemtl APPID_3206576288_2021840668912 
o vid_35 
f 239 238 237
f 240 241 242
f 237 242 241
f 237 241 239
f 239 241 240
f 240 238 239
f 238 240 242
f 242 237 238
usemtl APPID_3206580320_2021840665328 
o vid_36 
f 243 249 250
f 244 250 251
f 245 251 252
f 246 252 253
f 243 250 244
f 244 251 245
f 245 252 246
f 246 253 247
f 247 253 254
f 247 254 248
usemtl APPID_3206576288_2021840668912 
o vid_37 
f 257 256 255
f 258 259 260
f 255 260 259
f 255 259 257
f 257 259 258
f 258 256 257
f 256 258 260
f 260 255 256
usemtl APPID_3206580320_2021840665328 
o vid_38 
f 261 267 268
f 262 268 269
f 263 269 270
f 264 270 271
f 261 268 262
f 262 269 263
f 263 270 264
f 264 271 265
f 265 271 272
usemtl APPID_3206576288_2021840668912 
o vid_39 
f 275 274 273
f 276 277 278
f 273 278 277
f 273 277 275
f 275 277 276
f 276 274 275
f 274 276 278
f 278 273 274
usemtl APPID_3206580320_2021840665328 
o vid_40 
f 279 284 285
f 280 285 286
f 281 286 287
f 279 285 280
f 280 286 281
f 281 287 282
f 282 287 288
usemtl APPID_3206576288_2021840668912 
o vid_41 
f 291 290 289
f 292 293 294
f 289 294 293
f 289 293 291
f 291 293 292
f 292 290 291
f 290 292 294
f 294 289 290
usemtl APPID_3206580320_2021840665328 
o vid_42 
f 295 300 301
f 296 301 302
f 297 302 303
f 295 301 296
f 296 302 297
f 297 303 298
f 298 303 304
usemtl APPID_3206570352_2021840666096 
o vid_10000004 
f 305 311 312
f 306 312 313
f 307 313 314
f 308 314 315
f 305 312 306
f 306 313 307
f 307 314 308
f 308 315 309
f 309 315 316
usemtl APPID_3206570352_2021840666096 
o vid_10000006 
f 317 323 324
f 318 324 325
f 319 325 326
f 320 326 327
f 317 324 318
f 318 325 319
f 319 326 320
f 320 327 321
f 321 327 328
usemtl APPID_3206570352_2021840666096 
o vid_10000008 
f 329 336 337
f 330 337 338
f 331 338 339
f 332 339 340
f 333 340 341
f 329 337 330
f 330 338 331
f 331 339 332
f 332 340 333
f 333 341 334
f 334 341 342
usemtl APPID_3206570352_2021840666096 
o vid_10000010 
f 343 349 350
f 344 350 351
f 345 351 352
f 346 352 353
f 343 350 344
f 344 351 345
f 345 352 346
f 346 353 347
f 347 353 354
usemtl APPID_3206570352_2021840666096 
o vid_10000012 
f 355 361 362
f 356 362 363
f 357 363 364
f 358 364 365
f 355 362 356
f 356 363 357
f 357 364 358
f 358 365 359
f 359 365 366
usemtl APPID_3206570352_2021840666096 
o vid_10000014 
f 367 374 375
f 368 375 376
f 369 376 377
f 370 377 378
f 371 378 379
f 367 375 368
f 368 376 369
f 369 377 370
f 370 378 371
f 371 379 372
f 372 379 380
usemtl APPID_3206570352_2021840666096 
o vid_10000016 
f 381 388 389
f 382 389 390
f 383 390 391
f 384 391 392
f 385 392 393
f 381 389 382
f 382 390 383
f 383 391 384
f 384 392 385
f 385 393 386
f 386 393 394
usemtl APPID_3206570352_2021840666096 
o vid_10000018 
f 395 400 401
f 396 401 402
f 397 402 403
f 395 401 396
f 396 402 397
f 397 403 398
f 398 403 404
usemtl APPID_3206570352_2021840666096 
o vid_10000020 
f 405 410 411
f 406 411 412
f 407 412 413
f 405 411 406
f 406 412 407
f 407 413 408
f 408 413 414
usemtl APPID_3206570352_2021840666096 
o vid_10000022 
f 415 421 422
f 416 422 423
f 417 423 424
f 418 424 425
f 415 422 416
f 416 423 417
f 417 424 418
f 418 425 419
f 419 425 426
usemtl APPID_3206570352_2021840666096 
o vid_10000024 
f 427 431 432
f 428 432 433
f 427 432 428
f 428 433 429
f 429 433 434
usemtl APPID_3206570352_2021840666096 
o vid_10000026 
f 435 439 440
f 436 440 441
f 435 440 436
f 436 441 437
f 437 441 442
usemtl APPID_3206570352_2021840666096 
o vid_10000028 
f 443 446 447
f 443 447 444
f 444 447 448
usemtl APPID_3206570352_2021840666096 
o vid_10000030 
f 449 452 453
f 449 453 450
f 450 453 454
usemtl APPID_3206570352_2021840666096 
o vid_10000032 
f 455 458 459
f 455 459 456
f 456 459 460
usemtl APPID_3206570352_2021840666096 
o vid_10000034 
f 461 463 464
f 461 464 462
f 461 463 464
usemtl APPID_3206570352_2021840666096 
o vid_10000036 
f 465 467 468
f 465 468 466
f 465 467 468
