# File generated by PlantGL - Fri Sep  4 14:42:14 2026
v    58.201987 59.124129 0.000000
v    61.657533 58.880811 0.000000
v    60.140480 61.995060 0.000000
v    61.798013 60.875871 0.231332
v    58.342467 61.119189 0.231332
v    59.859520 58.004940 0.231332
v    61.002565 60.848205 -2.282826
v    62.069359 61.008053 -1.303779
v    61.285895 60.266579 -2.282826
v    62.069359 61.008053 -1.303779
v    61.503548 61.204422 0.231332
v    58.205166 60.699900 0.231332
v    60.291286 58.095678 0.231332
v    58.496452 58.795578 0.322458
v    61.794834 59.300100 0.322458
v    59.708714 61.904322 0.322458
v    59.324269 58.925368 -2.191701
v    58.030558 58.422372 -0.931883
v    58.803792 59.575109 -2.191701
v    58.030558 58.422372 -0.931883
v    58.272844 59.328938 0.322458
v    61.444735 58.839770 0.322458
v    60.282421 61.831292 0.322458
v    61.727156 60.671062 0.466406
v    58.555265 61.160230 0.466406
v    59.717579 58.168708 0.466406
v    60.839502 60.947645 -2.047752
v    62.766993 61.075076 -0.294514
v    61.259087 59.867733 -2.047752
v    62.766993 61.075076 -0.294514
v    61.731622 60.409625 0.466406
v    58.779443 61.294816 0.466406
v    59.488935 58.295559 0.466406
v    58.268378 59.590375 0.678771
v    61.220557 58.705184 0.678771
v    60.511065 61.704441 0.678771
v    59.165204 58.958277 -1.835387
v    56.432696 59.156134 0.651170
v    58.786947 60.557293 -1.835387
v    56.432696 59.156134 0.651170
v    59.038639 58.902200 0.678771
v    61.431403 59.716337 0.678771
v    59.529958 61.381462 0.678771
v    60.961361 61.097800 0.919582
v    58.568597 60.283663 0.919582
v    60.470042 58.618538 0.919582
v    59.348045 61.543945 -1.594577
v    63.641953 64.158829 2.968412
v    61.616466 59.557452 -1.594577
v    63.641953 64.158829 2.968412
v    60.961939 60.614171 0.919582
v    58.987143 60.525978 0.919582
v    60.050918 58.859851 0.919582
v    59.038061 59.385829 1.432331
v    61.012857 59.474022 1.432331
v    59.949082 61.140149 1.432331
v    60.470599 58.493505 -1.081828
v    55.567410 57.169918 3.527672
v    58.831420 61.060854 -1.081828
v    55.567410 57.169918 3.527672
v    59.313354 59.505270 1.432331
v    60.771772 59.652712 1.432331
v    59.914874 60.842018 1.432331
v    60.686646 60.494730 2.225064
v    59.228228 60.347288 2.225064
v    60.085126 59.157982 2.225064
v    58.808958 61.856779 -0.289094
v    60.901875 62.932888 1.924945
v    66.245829 64.702547 7.034223
v    66.836871 64.925982 7.418542
v    61.384274 58.282445 -0.289094
v    63.067555 59.927095 1.924945
v    66.437833 64.436061 7.034223
v    66.836871 64.925982 7.418542
v    60.481250 60.313422 2.225064
v    59.487944 60.260064 2.225064
v    60.030806 59.426514 2.225064
v    59.518750 59.686578 2.586000
v    60.512056 59.739936 2.586000
v    59.969194 60.573486 2.586000
v    61.238220 59.027799 -2.521316
v    57.043449 58.074497 2.630708
v    59.611491 61.525590 -2.521316
v    57.043449 58.074497 2.630708
mtllib usm_2_2.5D_2018-07-29_3.mtl
usemtl APPID_1970435888_1595404368256 
o vid_3 
f 3 2 1
f 4 5 6
f 1 6 5
f 1 5 3
f 3 5 4
f 4 2 3
f 2 4 6
f 6 1 2
usemtl APPID_1970430736_1595404368128 
o vid_4 
f 7 9 10
f 7 10 8
f 7 9 10
usemtl APPID_1970435888_1595404368256 
o vid_5 
f 13 12 11
f 14 15 16
f 11 16 15
f 11 15 13
f 13 15 14
f 14 12 13
f 12 14 16
f 16 11 12
usemtl APPID_1970430736_1595404368128 
o vid_6 
f 17 19 20
f 17 20 18
f 17 19 20
usemtl APPID_1970435888_1595404368256 
o vid_7 
f 23 22 21
f 24 25 26
f 21 26 25
f 21 25 23
f 23 25 24
f 24 22 23
f 22 24 26
f 26 21 22
usemtl APPID_1970430736_1595404368128 
o vid_8 
f 27 29 30
f 27 30 28
f 27 29 30
usemtl APPID_1970435888_1595404368256 
o vid_9 
f 33 32 31
f 34 35 36
f 31 36 35
f 31 35 33
f 33 35 34
f 34 32 33
f 32 34 36
f 36 31 32
usemtl APPID_1970430736_1595404368128 
o vid_10 
f 37 39 40
f 37 40 38
f 37 39 40
usemtl APPID_1970435888_1595404368256 
o vid_11 
f 43 42 41
f 44 45 46
f 41 46 45
f 41 45 43
f 43 45 44
f 44 42 43
f 42 44 46
f 46 41 42
usemtl APPID_1970430736_1595404368128 
o vid_12 
f 47 49 50
f 47 50 48
f 47 49 50
usemtl APPID_1970435888_1595404368256 
o vid_13 
f 53 52 51
f 54 55 56
f 51 56 55
f 51 55 53
f 53 55 54
f 54 52 53
f 52 54 56
f 56 51 52
usemtl APPID_1970430736_1595404368128 
o vid_14 
f 57 59 60
f 57 60 58
f 57 59 60
usemtl APPID_1970435888_1595404368256 
o vid_15 
f 63 62 61
f 64 65 66
f 61 66 65
f 61 65 63
f 63 65 64
f 64 62 63
f 62 64 66
f 66 61 62
usemtl APPID_1970430736_1595404368128 
o vid_16 
f 67 71 72
f 68 72 73
f 67 72 68
f 68 73 69
f 69 73 74
usemtl APPID_1970435888_1595404368256 
o vid_17 
f 77 76 75
f 78 79 80
f 75 80 79
f 75 79 77
f 77 79 78
f 78 76 77
f 76 78 80
f 80 75 76
usemtl APPID_1970430736_1595404368128 
o vid_18 
f 81 83 84
f 81 84 82
f 81 83 84
