# File generated by PlantGL - Fri Sep  4 14:43:50 2026
v    98.201987 19.124129 0.000000
v    101.657533 18.880811 0.000000
v    100.140480 21.995060 0.000000
v    101.798013 20.875871 0.331061
v    98.342467 21.119189 0.331061
v    99.859520 18.004940 0.331061
v    101.389631 21.448589 -0.071093
v    102.393545 21.829929 0.946456
v    103.907969 22.388382 2.010061
v    105.092175 22.810147 2.326466
v    106.188328 23.058207 2.603556
v    106.357119 23.096761 2.567767
v    101.997242 20.201268 -0.071093
v    102.916351 20.756696 0.946456
v    104.289614 21.604929 2.010061
v    105.351692 22.277403 2.326466
v    106.222714 22.987618 2.603556
v    106.357119 23.096761 2.567767
v    101.503548 21.204422 0.331061
v    98.205166 20.699900 0.331061
v    100.291286 18.095678 0.331061
v    98.496452 18.795578 0.718770
v    101.794834 19.300100 0.718770
v    99.708714 21.904322 0.718770
v    99.274516 18.081312 0.163208
v    97.850736 17.138082 1.781465
v    97.152118 16.662156 2.312322
v    96.181535 16.030387 3.038247
v    95.076759 15.291542 3.373608
v    93.659123 14.396163 3.795596
v    92.032802 13.617850 3.537883
v    97.969227 19.710779 0.163208
v    96.737984 18.527194 1.781465
v    96.121052 17.949295 2.312322
v    95.292675 17.140001 3.038247
v    94.330515 16.223121 3.373608
v    93.147310 15.035088 3.795596
v    92.032802 13.617850 3.537883
v    98.272844 19.328938 0.718770
v    101.444735 18.839770 0.718770
v    100.282421 21.831292 0.718770
v    101.727156 20.671062 1.487000
v    98.555265 21.160230 1.487000
v    99.717579 18.168708 1.487000
v    101.001942 21.939106 0.737665
v    103.215599 22.576377 2.920351
v    104.760497 23.042827 3.933792
v    105.807970 23.335230 4.615484
v    108.049596 23.991149 5.204826
v    110.033714 24.515852 5.721343
v    112.648061 24.914225 5.173525
v    102.048302 19.246023 0.737665
v    104.111525 20.270473 2.920351
v    105.566089 20.969422 3.933792
v    106.536205 21.460925 4.615484
v    108.632651 22.490502 5.204826
v    110.450548 23.443018 5.721343
v    112.648061 24.914225 5.173525
v    101.731622 20.409625 1.487000
v    98.779443 21.294816 1.487000
v    99.488935 18.295559 1.487000
v    98.268378 19.590375 2.857581
v    101.220557 18.705184 2.857581
v    100.511065 21.704441 2.857581
v    98.994328 17.761460 1.870792
v    95.991335 17.332135 4.745141
v    93.322367 16.915299 6.441551
v    92.475106 16.801149 6.977439
v    88.778762 16.256244 7.920211
v    86.753078 16.011507 8.433731
v    85.813819 15.897074 8.234147
v    82.607521 15.885709 7.571370
v    98.097960 21.550704 1.870792
v    95.220889 20.589066 4.745141
v    92.648036 19.765918 6.441551
v    91.839429 19.488364 6.977439
v    88.290709 18.319407 7.920211
v    86.370067 17.630618 8.433731
v    85.479087 17.312097 8.234147
v    82.607521 15.885709 7.571370
v    98.876148 18.716648 2.857581
v    101.673341 19.668392 2.857581
v    99.450510 21.614960 2.857581
v    101.123852 21.283352 4.464214
v    98.326659 20.331608 4.464214
v    100.549490 18.385040 4.464214
v    98.837981 22.797306 3.195461
v    100.024507 23.928478 4.748801
v    101.661340 25.488198 6.891124
v    104.929054 28.683548 9.761276
v    106.287225 30.037943 10.245945
v    110.252217 33.849256 11.633687
v    113.512548 36.849183 10.698818
v    116.860986 39.253945 9.846660
v    102.926168 19.217216 3.195461
v    103.890901 20.542616 4.748801
v    105.221021 22.370929 6.891124
v    107.957295 26.031669 9.761276
v    109.120653 27.556665 10.245945
v    112.375506 31.989858 11.633687
v    114.919039 35.617497 10.698818
v    116.860986 39.253945 9.846660
v    101.375838 20.878433 4.464214
v    98.551335 20.752294 4.464214
v    100.072827 18.369272 4.464214
v    98.624162 19.121567 10.752587
v    101.448665 19.247706 10.752587
v    99.927173 21.630728 10.752587
v    100.948260 16.337557 9.159886
v    97.281081 14.436828 13.073723
v    91.541404 11.380159 17.402139
v    87.000622 8.895548 18.710060
v    83.340146 6.979126 19.752629
v    80.232584 5.349126 19.010561
v    75.880620 3.208224 17.987536
v    73.657153 2.422985 17.500103
v    71.278020 1.661836 16.073538
v    97.076661 22.401412 9.159886
v    93.809227 19.874588 13.073723
v    88.621051 15.954135 17.402139
v    84.456326 12.880528 18.710060
v    81.177476 10.366388 19.752629
v    78.391126 8.233293 19.010561
v    74.617653 5.186336 17.987536
v    72.969663 3.499759 17.500103
v    71.278020 1.661836 16.073538
v    98.735263 19.088754 10.752587
v    101.421531 19.360328 10.752587
v    99.843206 21.550918 10.752587
v    101.264737 20.911246 22.165711
v    98.578469 20.639672 22.165711
v    100.156794 18.449082 22.165711
v    98.105824 24.329660 20.213638
v    100.539076 26.089672 23.070747
v    103.031655 27.716712 25.899697
v    109.019181 31.399566 30.315647
v    118.697998 37.424693 33.196494
v    122.626010 39.873186 32.216320
v    126.359420 42.107054 31.296283
v    129.851511 44.196530 30.435716
v    133.676305 46.306912 27.873736
v    139.201100 48.419456 22.711592
v    139.525880 48.478489 22.164107
v    103.507414 16.832682 20.213638
v    105.947162 18.583678 23.070747
v    108.279556 20.433043 25.899697
v    113.668366 24.946865 30.315647
v    122.447474 32.220717 33.196494
v    126.013464 35.171669 32.216320
v    129.314264 38.005966 31.296283
v    132.401707 40.657060 30.435716
v    135.614299 43.617131 27.873736
v    139.367073 48.189097 22.711592
v    139.525880 48.478489 22.164107
v    101.244614 20.810576 22.165711
v    98.675713 20.672580 22.165711
v    100.079672 18.516844 22.165711
v    98.755386 19.189424 39.904431
v    101.324287 19.327420 39.904431
v    99.920328 21.483156 39.904431
v    102.319485 14.954970 37.568487
v    99.336155 13.202095 40.857016
v    96.927684 11.926021 43.439686
v    92.991323 9.789461 46.567078
v    88.673072 7.430915 49.657032
v    77.245476 1.043136 52.965116
v    67.324681 -4.274975 50.840755
v    62.920179 -6.491381 49.800713
v    57.965855 -8.393783 46.734926
v    55.169752 -9.196448 44.223967
v    96.323669 24.161361 37.568487
v    93.514176 22.141564 40.857016
v    91.373212 20.454742 43.439686
v    87.827443 17.718440 46.567078
v    83.924228 14.722619 49.657032
v    73.461205 6.853767 52.965116
v    64.585779 -0.069475 50.840755
v    60.777691 -3.201656 49.800713
v    57.034472 -6.963674 46.734926
v    55.169752 -9.196448 44.223967
v    98.912181 19.396654 39.904431
v    101.066423 19.359594 39.904431
v    100.021396 21.243752 39.904431
v    101.087819 20.603346 66.599210
v    98.933577 20.640406 66.599210
v    99.978604 18.756248 66.599210
v    97.886480 24.747701 63.870024
v    105.560441 28.138986 71.819683
v    109.911061 30.129212 74.824145
v    114.552272 32.135588 77.993606
v    121.173616 35.096271 79.823774
v    128.778289 38.260912 81.896781
v    137.302542 40.689427 80.293553
v    102.908455 15.693200 63.870024
v    109.848632 20.407480 71.819683
v    113.840588 23.044368 74.824145
v    118.000111 25.919217 77.993606
v    124.017650 29.968547 79.823774
v    130.728875 34.744054 81.896781
v    137.302542 40.689427 80.293553
v    100.937449 20.249367 66.599210
v    99.315318 20.687171 66.599210
v    99.747234 19.063462 66.599210
v    99.062551 19.750633 106.321066
v    100.684682 19.312829 106.321066
v    100.252766 20.936538 106.321066
v    101.287553 14.889167 103.207855
v    94.189728 13.672945 110.031252
v    91.839589 13.329189 112.276111
v    81.744142 11.683183 118.687814
v    72.591900 10.335786 121.392817
v    62.567071 10.042610 123.865494
v    98.578037 25.075079 103.207855
v    91.814022 22.603966 110.031252
v    89.603695 21.734610 112.276111
v    80.024702 18.147094 118.687814
v    71.412619 14.769071 121.392817
v    62.567071 10.042610 123.865494
v    99.335813 19.724289 106.321066
v    100.570866 19.562653 106.321066
v    100.093321 20.713058 106.321066
v    100.664187 20.275711 147.892763
v    99.429134 20.437347 147.892763
v    99.906679 19.286942 147.892763
v    97.200406 26.004026 144.425488
v    107.373160 29.186330 154.525074
v    113.660819 31.242852 158.679515
v    119.291841 32.954550 162.368689
v    128.661314 35.930473 164.849258
v    138.714153 38.836594 167.482895
v    149.827589 40.683949 165.159190
v    102.275400 13.778375 144.425488
v    111.711276 18.735817 154.525074
v    117.606917 21.736709 158.679515
v    122.794757 24.516033 162.368689
v    131.517340 29.050311 164.849258
v    140.672964 34.117823 167.482895
v    149.827589 40.683949 165.159190
v    100.379309 20.312104 147.892763
v    99.540055 20.172439 147.892763
v    100.080636 19.515457 147.892763
v    99.620691 19.687896 174.174389
v    100.459945 19.827561 174.174389
v    99.919364 20.484543 174.174389
v    105.580593 15.753155 166.611895
v    96.182073 9.373091 177.832705
v    94.254673 8.025706 179.378717
v    85.048622 1.877519 186.642650
v    80.806945 -1.037509 188.055843
v    71.314911 -7.200063 191.155125
v    66.264474 -9.680456 192.664330
v    60.377839 -12.602036 191.444709
v    96.907353 26.293985 166.611895
v    88.836759 18.300055 177.832705
v    87.143419 16.668210 179.378717
v    79.337427 8.818492 186.642650
v    75.660108 5.217586 188.055843
v    67.784943 -2.909995 191.155125
v    64.378373 -7.388224 192.664330
v    60.377839 -12.602036 191.444709
v    99.802217 19.793064 174.174389
v    100.278104 19.932183 174.174389
v    99.919680 20.274754 174.174389
v    100.197783 20.206936 178.709000
v    99.721896 20.067817 178.709000
v    100.080320 19.725246 178.709000
v    98.239025 23.235644 171.047397
v    98.748979 22.959385 176.174714
v    100.931665 21.358352 187.955182
v    101.305119 21.365517 189.088721
v    103.311946 18.387104 171.047397
v    103.012916 18.884046 176.174714
v    101.314844 20.992121 187.955182
v    101.305119 21.365517 189.088721
mtllib usm_37_2.5D_2018-09-09_2.mtl
usemtl APPID_3043696800_2275079343984 
o vid_3 
f 3 2 1
f 4 5 6
f 1 6 5
f 1 5 3
f 3 5 4
f 4 2 3
f 2 4 6
f 6 1 2
usemtl APPID_3043697024_2275079348208 
o vid_4 
f 7 13 14
f 8 14 15
f 9 15 16
f 10 16 17
f 7 14 8
f 8 15 9
f 9 16 10
f 10 17 11
f 11 17 18
usemtl APPID_3043696800_2275079343984 
o vid_5 
f 21 20 19
f 22 23 24
f 19 24 23
f 19 23 21
f 21 23 22
f 22 20 21
f 20 22 24
f 24 19 20
usemtl APPID_3043697024_2275079348208 
o vid_6 
f 25 32 33
f 26 33 34
f 27 34 35
f 28 35 36
f 29 36 37
f 25 33 26
f 26 34 27
f 27 35 28
f 28 36 29
f 29 37 30
f 30 37 38
usemtl APPID_3043696800_2275079343984 
o vid_7 
f 41 40 39
f 42 43 44
f 39 44 43
f 39 43 41
f 41 43 42
f 42 40 41
f 40 42 44
f 44 39 40
usemtl APPID_3043697024_2275079348208 
o vid_8 
f 45 52 53
f 46 53 54
f 47 54 55
f 48 55 56
f 49 56 57
f 45 53 46
f 46 54 47
f 47 55 48
f 48 56 49
f 49 57 50
f 50 57 58
usemtl APPID_3043696800_2275079343984 
o vid_9 
f 61 60 59
f 62 63 64
f 59 64 63
f 59 63 61
f 61 63 62
f 62 60 61
f 60 62 64
f 64 59 60
usemtl APPID_3043697024_2275079348208 
o vid_10 
f 65 73 74
f 66 74 75
f 67 75 76
f 68 76 77
f 69 77 78
f 70 78 79
f 65 74 66
f 66 75 67
f 67 76 68
f 68 77 69
f 69 78 70
f 70 79 71
f 71 79 80
usemtl APPID_3043696800_2275079343984 
o vid_11 
f 83 82 81
f 84 85 86
f 81 86 85
f 81 85 83
f 83 85 84
f 84 82 83
f 82 84 86
f 86 81 82
usemtl APPID_3043697024_2275079348208 
o vid_12 
f 87 95 96
f 88 96 97
f 89 97 98
f 90 98 99
f 91 99 100
f 92 100 101
f 87 96 88
f 88 97 89
f 89 98 90
f 90 99 91
f 91 100 92
f 92 101 93
f 93 101 102
usemtl APPID_3043696800_2275079343984 
o vid_13 
f 105 104 103
f 106 107 108
f 103 108 107
f 103 107 105
f 105 107 106
f 106 104 105
f 104 106 108
f 108 103 104
usemtl APPID_3043697024_2275079348208 
o vid_14 
f 109 118 119
f 110 119 120
f 111 120 121
f 112 121 122
f 113 122 123
f 114 123 124
f 115 124 125
f 109 119 110
f 110 120 111
f 111 121 112
f 112 122 113
f 113 123 114
f 114 124 115
f 115 125 116
f 116 125 126
usemtl APPID_3043696800_2275079343984 
o vid_15 
f 129 128 127
f 130 131 132
f 127 132 131
f 127 131 129
f 129 131 130
f 130 128 129
f 128 130 132
f 132 127 128
usemtl APPID_3043697024_2275079348208 
o vid_16 
f 133 144 145
f 134 145 146
f 135 146 147
f 136 147 148
f 137 148 149
f 138 149 150
f 139 150 151
f 140 151 152
f 141 152 153
f 133 145 134
f 134 146 135
f 135 147 136
f 136 148 137
f 137 149 138
f 138 150 139
f 139 151 140
f 140 152 141
f 141 153 142
f 142 153 154
usemtl APPID_3043696800_2275079343984 
o vid_17 
f 157 156 155
f 158 159 160
f 155 160 159
f 155 159 157
f 157 159 158
f 158 156 157
f 156 158 160
f 160 155 156
usemtl APPID_3043697024_2275079348208 
o vid_18 
f 161 171 172
f 162 172 173
f 163 173 174
f 164 174 175
f 165 175 176
f 166 176 177
f 167 177 178
f 168 178 179
f 161 172 162
f 162 173 163
f 163 174 164
f 164 175 165
f 165 176 166
f 166 177 167
f 167 178 168
f 168 179 169
f 169 179 180
usemtl APPID_3043696800_2275079343984 
o vid_19 
f 183 182 181
f 184 185 186
f 181 186 185
f 181 185 183
f 183 185 184
f 184 182 183
f 182 184 186
f 186 181 182
usemtl APPID_3043697024_2275079348208 
o vid_20 
f 187 194 195
f 188 195 196
f 189 196 197
f 190 197 198
f 191 198 199
f 187 195 188
f 188 196 189
f 189 197 190
f 190 198 191
f 191 199 192
f 192 199 200
usemtl APPID_3043696800_2275079343984 
o vid_21 
f 203 202 201
f 204 205 206
f 201 206 205
f 201 205 203
f 203 205 204
f 204 202 203
f 202 204 206
f 206 201 202
usemtl APPID_3043697024_2275079348208 
o vid_22 
f 207 213 214
f 208 214 215
f 209 215 216
f 210 216 217
f 207 214 208
f 208 215 209
f 209 216 210
f 210 217 211
f 211 217 218
usemtl APPID_3043696800_2275079343984 
o vid_23 
f 221 220 219
f 222 223 224
f 219 224 223
f 219 223 221
f 221 223 222
f 222 220 221
f 220 222 224
f 224 219 220
usemtl APPID_3043697024_2275079348208 
o vid_24 
f 225 232 233
f 226 233 234
f 227 234 235
f 228 235 236
f 229 236 237
f 225 233 226
f 226 234 227
f 227 235 228
f 228 236 229
f 229 237 230
f 230 237 238
usemtl APPID_3043696800_2275079343984 
o vid_25 
f 241 240 239
f 242 243 244
f 239 244 243
f 239 243 241
f 241 243 242
f 242 240 241
f 240 242 244
f 244 239 240
usemtl APPID_3043697024_2275079348208 
o vid_26 
f 245 253 254
f 246 254 255
f 247 255 256
f 248 256 257
f 249 257 258
f 250 258 259
f 245 254 246
f 246 255 247
f 247 256 248
f 248 257 249
f 249 258 250
f 250 259 251
f 251 259 260
usemtl APPID_3043696800_2275079343984 
o vid_27 
f 263 262 261
f 264 265 266
f 261 266 265
f 261 265 263
f 263 265 264
f 264 262 263
f 262 264 266
f 266 261 262
usemtl APPID_3043697024_2275079348208 
o vid_28 
f 267 271 272
f 268 272 273
f 267 272 268
f 268 273 269
f 269 273 274
