# File generated by PlantGL - Fri Sep  4 14:43:17 2026
v    18.201987 19.124129 0.000000
v    21.657533 18.880811 0.000000
v    20.140480 21.995060 0.000000
v    21.798013 20.875871 0.231332
v    18.342467 21.119189 0.231332
v    19.859520 18.004940 0.231332
v    21.004381 20.850285 -2.274033
v    22.074719 21.010664 -1.291734
v    21.288652 20.266726 -2.274033
v    22.074719 21.010664 -1.291734
v    21.503548 21.204422 0.231332
v    18.205166 20.699900 0.231332
v    20.291286 18.095678 0.231332
v    18.496452 18.795578 0.322458
v    21.794834 19.300100 0.322458
v    19.708714 21.904322 0.322458
v    19.323134 18.922716 -2.182908
v    18.025197 18.418078 -0.918975
v    18.800956 19.574580 -2.182908
v    18.025197 18.418078 -0.918975
v    18.272844 19.328938 0.322458
v    21.444735 18.839770 0.322458
v    20.282421 21.831292 0.322458
v    21.727156 20.671062 0.466406
v    18.555265 21.160230 0.466406
v    19.717579 18.168708 0.466406
v    20.841209 20.950276 -2.038959
v    22.774803 21.078110 -0.280169
v    21.262122 19.866944 -2.038959
v    22.774803 21.078110 -0.280169
v    21.731622 20.409625 0.466406
v    18.779443 21.294816 0.466406
v    19.488935 18.295559 0.466406
v    18.268378 19.590375 0.678771
v    21.220557 18.705184 0.678771
v    20.511065 21.704441 0.678771
v    19.163298 18.955284 -1.826595
v    16.422563 19.153737 0.667450
v    18.783903 20.559114 -1.826595
v    16.422563 19.153737 0.667450
v    18.979519 18.834689 0.678771
v    21.519429 19.698893 0.678771
v    19.501052 21.466418 0.678771
v    21.020481 21.165311 0.919581
v    18.480571 20.301107 0.919581
v    20.498948 18.533582 0.919581
v    19.405977 21.615877 -1.585784
v    23.710726 24.237363 2.988724
v    21.680126 19.624369 -1.585784
v    23.710726 24.237363 2.988724
v    21.034316 20.660381 0.919581
v    18.910935 20.565553 0.919581
v    20.054749 18.774066 0.919581
v    18.965684 19.339619 1.432330
v    21.089065 19.434447 1.432330
v    19.945251 21.225934 1.432330
v    20.398143 18.442693 -1.073035
v    15.482603 17.115771 3.548076
v    18.754836 21.016508 -1.073035
v    15.482603 17.115771 3.548076
v    19.246822 19.457333 1.432330
v    20.846552 19.619062 1.432330
v    19.906626 20.923605 1.432330
v    20.753178 20.542667 2.225063
v    19.153448 20.380938 2.225063
v    20.093374 19.076395 2.225063
v    18.879285 21.903799 -0.280302
v    20.993208 22.990709 1.955959
v    26.287131 24.743800 7.017403
v    26.911739 24.979924 7.423548
v    21.451138 18.334271 -0.280302
v    23.151315 19.995429 1.955959
v    26.490039 24.462181 7.017403
v    26.911739 24.979924 7.423548
v    20.546723 20.356063 2.225063
v    19.418279 20.295445 2.225063
v    20.034998 19.348492 2.225063
v    19.453277 19.643937 2.753331
v    20.581721 19.704555 2.753331
v    19.965002 20.651508 2.753331
v    21.097060 18.447866 0.247965
v    20.770445 18.298932 0.585683
v    14.842520 16.641105 6.172396
v    19.024005 21.630979 0.247965
v    18.755722 21.392477 0.585683
v    14.842520 16.641105 6.172396
v    19.650586 19.806202 2.753331
v    20.342541 19.794298 2.753331
v    20.006873 20.399500 2.753331
v    20.349414 20.193798 2.921000
v    19.657459 20.205702 2.921000
v    19.993127 19.600500 2.921000
v    20.230388 20.849654 -2.017646
v    20.924060 20.512519 0.718581
v    20.842763 19.745557 -2.017646
v    20.924060 20.512519 0.718581
mtllib usm_18_2.5D_2018-07-30_0.mtl
usemtl APPID_2876514304_2459690804832 
o vid_3 
f 3 2 1
f 4 5 6
f 1 6 5
f 1 5 3
f 3 5 4
f 4 2 3
f 2 4 6
f 6 1 2
usemtl APPID_2876514416_2459690807392 
o vid_4 
f 7 9 10
f 7 10 8
f 7 9 10
usemtl APPID_2876514304_2459690804832 
o vid_5 
f 13 12 11
f 14 15 16
f 11 16 15
f 11 15 13
f 13 15 14
f 14 12 13
f 12 14 16
f 16 11 12
usemtl APPID_2876514416_2459690807392 
o vid_6 
f 17 19 20
f 17 20 18
f 17 19 20
usemtl APPID_2876514304_2459690804832 
o vid_7 
f 23 22 21
f 24 25 26
f 21 26 25
f 21 25 23
f 23 25 24
f 24 22 23
f 22 24 26
f 26 21 22
usemtl APPID_2876514416_2459690807392 
o vid_8 
f 27 29 30
f 27 30 28
f 27 29 30
usemtl APPID_2876514304_2459690804832 
o vid_9 
f 33 32 31
f 34 35 36
f 31 36 35
f 31 35 33
f 33 35 34
f 34 32 33
f 32 34 36
f 36 31 32
usemtl APPID_2876514416_2459690807392 
o vid_10 
f 37 39 40
f 37 40 38
f 37 39 40
usemtl APPID_2876514304_2459690804832 
o vid_11 
f 43 42 41
f 44 45 46
f 41 46 45
f 41 45 43
f 43 45 44
f 44 42 43
f 42 44 46
f 46 41 42
usemtl APPID_2876514416_2459690807392 
o vid_12 
f 47 49 50
f 47 50 48
f 47 49 50
usemtl APPID_2876514304_2459690804832 
o vid_13 
f 53 52 51
f 54 55 56
f 51 56 55
f 51 55 53
f 53 55 54
f 54 52 53
f 52 54 56
f 56 51 52
usemtl APPID_2876514416_2459690807392 
o vid_14 
f 57 59 60
f 57 60 58
f 57 59 60
usemtl APPID_2876514304_2459690804832 
o vid_15 
f 63 62 61
f 64 65 66
f 61 66 65
f 61 65 63
f 63 65 64
f 64 62 63
f 62 64 66
f 66 61 62
usemtl APPID_2876514416_2459690807392 
o vid_16 
f 67 71 72
f 68 72 73
f 67 72 68
f 68 73 69
f 69 73 74
usemtl APPID_2876514304_2459690804832 
o vid_17 
f 77 76 75
f 78 79 80
f 75 80 79
f 75 79 77
f 77 79 78
f 78 76 77
f 76 78 80
f 80 75 76
usemtl APPID_2876514416_2459690807392 
o vid_18 
f 81 84 85
f 81 85 82
f 82 85 86
usemtl APPID_2876514304_2459690804832 
o vid_19 
f 89 88 87
f 90 91 92
f 87 92 91
f 87 91 89
f 89 91 90
f 90 88 89
f 88 90 92
f 92 87 88
usemtl APPID_2876514416_2459690807392 
o vid_20 
f 93 95 96
f 93 96 94
f 93 95 96
