# File generated by PlantGL - Fri Sep  4 14:44:12 2026
v    18.201987 19.124129 0.000000
v    21.657533 18.880811 0.000000
v    20.140480 21.995060 0.000000
v    21.798013 20.875871 0.331061
v    18.342467 21.119189 0.331061
v    19.859520 18.004940 0.331061
v    21.368313 21.462224 -0.116704
v    21.403503 21.475592 -0.081036
v    21.994838 20.176077 -0.116704
v    22.027055 20.195546 -0.081036
v    21.503548 21.204422 0.331061
v    18.205166 20.699900 0.331061
v    20.291286 18.095678 0.331061
v    18.496452 18.795578 0.771522
v    21.794834 19.300100 0.771522
v    19.708714 21.904322 0.771522
v    19.330152 18.037259 0.161062
v    17.765678 17.000822 1.939229
v    17.361516 16.725491 2.246339
v    17.331134 16.705715 2.269062
v    17.938379 19.774688 0.161062
v    16.585468 18.474145 1.939229
v    16.228563 18.139821 2.246339
v    16.202633 18.114488 2.269062
v    18.272844 19.328938 0.771522
v    21.444735 18.839770 0.771522
v    20.282421 21.831292 0.771522
v    21.727156 20.671062 1.487405
v    18.555265 21.160230 1.487405
v    19.717579 18.168708 1.487405
v    20.982521 21.937942 0.674026
v    23.385374 22.629679 3.043261
v    26.022319 23.370823 4.760524
v    22.033189 19.233769 0.674026
v    24.272752 20.345777 3.043261
v    26.718356 21.579386 4.760524
v    21.731622 20.409625 1.487405
v    18.779443 21.294816 1.487405
v    19.488935 18.295559 1.487405
v    18.268378 19.590375 2.987040
v    21.220557 18.705184 2.987040
v    20.511065 21.704441 2.987040
v    19.040975 17.655194 1.927890
v    15.817769 17.194386 5.013017
v    13.318954 16.804124 6.601276
v    12.041894 16.632067 7.409011
v    8.494499 16.109120 8.313792
v    7.460117 15.984149 8.576012
v    18.092051 21.666607 1.927890
v    15.004002 20.634451 5.013017
v    12.595174 19.863781 6.601276
v    11.376377 19.445429 7.409011
v    7.970657 18.323576 8.313792
v    6.989913 17.971858 8.576012
v    18.876148 18.716648 2.987040
v    21.673341 19.668392 2.987040
v    19.450510 21.614960 2.987040
v    21.123852 21.283352 4.897980
v    18.326659 20.331608 4.897980
v    20.549490 18.385040 4.897980
v    18.739103 22.853471 3.550098
v    19.532219 23.609587 4.588406
v    21.738665 25.712084 7.476249
v    25.210177 29.106720 10.525406
v    26.042294 29.936523 10.822350
v    30.685021 34.399303 12.447298
v    33.236439 36.731006 11.841938
v    22.994888 19.126613 3.550098
v    23.639750 20.012557 4.588406
v    25.432748 22.477117 7.476249
v    28.339676 26.366168 10.525406
v    29.052435 27.300494 10.822350
v    32.863639 32.491452 12.447298
v    34.838325 35.328210 11.841938
v    21.375838 20.878433 4.897980
v    18.551335 20.752294 4.897980
v    20.072827 18.369272 4.897980
v    18.624162 19.121567 12.075822
v    21.448665 19.247706 12.075822
v    19.927173 21.630728 12.075822
v    21.109150 16.130546 10.399432
v    16.549481 13.734653 15.282471
v    11.223790 10.887956 19.074772
v    5.127148 7.552015 20.830841
v    2.606496 6.232341 21.548768
v    -2.007999 3.811915 20.446854
v    -6.588635 1.558520 19.370073
v    -7.088247 1.382078 19.260548
v    16.956577 22.634476 10.399432
v    12.864384 19.506402 15.282471
v    8.040894 15.873136 19.074772
v    2.449163 11.746385 20.830841
v    0.191303 10.015114 21.548768
v    -3.946217 6.847630 20.446854
v    -7.917965 3.640571 19.370073
v    -8.288267 3.261598 19.260548
v    18.735263 19.088754 12.075822
v    21.421531 19.360328 12.075822
v    19.843206 21.550918 12.075822
v    21.264737 20.911246 22.185723
v    18.578469 20.639672 22.185723
v    20.156794 18.449082 22.185723
v    17.992645 24.444405 20.148084
v    20.293465 25.946273 22.759398
v    22.105982 27.018784 24.754992
v    25.644952 29.153784 27.798616
v    29.581271 31.550917 30.692894
v    38.968344 37.394361 33.486895
v    47.391605 42.433620 31.802941
v    51.458396 44.726088 30.818226
v    54.621681 46.129388 28.817481
v    23.580432 16.689001 20.148084
v    25.733390 18.396090 22.759398
v    27.324498 19.775899 24.754992
v    30.469964 22.457051 27.798616
v    33.989864 25.432141 30.692894
v    42.504280 32.486762 33.486895
v    49.950773 38.881698 31.802941
v    53.412691 42.013682 30.818226
v    55.745161 44.570087 28.817481
v    21.244614 20.810576 22.185723
v    18.675713 20.672580 22.185723
v    20.079672 18.516844 22.185723
v    18.755386 19.189424 42.482171
v    21.324287 19.327420 42.482171
v    19.920328 21.483156 42.482171
v    22.429511 14.830855 40.061652
v    19.990848 13.398003 42.749793
v    18.166102 12.431202 44.706520
v    15.922669 11.242570 47.112215
v    13.522691 9.931104 48.829757
v    8.270672 7.062550 52.587876
v    -2.685448 0.938317 55.759475
v    -12.957723 -4.567319 54.031156
v    -18.439405 -7.325777 52.736758
v    -23.051644 -8.998929 49.914217
v    16.254642 24.312177 40.061652
v    13.958079 22.661135 42.749793
v    12.336005 21.383136 44.706520
v    10.341748 19.811902 47.112215
v    8.171848 18.147159 48.829757
v    3.424610 14.503529 52.587876
v    -6.606732 6.959328 55.759475
v    -15.795790 -0.209555 54.031156
v    -20.535197 -4.107752 52.736758
v    -23.930421 -7.649594 49.914217
v    18.765415 19.315252 42.482171
v    21.210302 19.273192 42.482171
v    20.024283 21.411556 42.482171
v    21.234585 20.684748 70.336086
v    18.789698 20.726808 70.336086
v    19.975717 18.588444 70.336086
v    17.854196 25.103682 67.526003
v    25.755622 28.595488 75.711300
v    32.276896 31.578698 80.214777
v    34.990997 32.751993 82.068224
v    44.158437 36.851141 84.602144
v    50.076225 39.313795 86.215312
v    57.493142 41.682919 84.594839
v    23.193345 15.477325 67.526003
v    30.339237 20.331341 75.711300
v    36.322899 24.283851 80.214777
v    38.755317 25.965014 82.068224
v    47.086770 31.571426 84.602144
v    52.309297 35.287619 86.215312
v    58.246257 40.325070 84.594839
v    21.293262 20.344016 70.336086
v    19.055443 20.947990 70.336086
v    19.651295 18.707994 70.336086
v    18.706738 19.655984 109.483989
v    20.944557 19.052010 109.483989
v    20.348705 21.292006 109.483989
v    21.189372 13.910484 106.295691
v    11.528893 12.255147 115.582663
v    4.216235 10.904612 120.252617
v    0.212885 10.251888 122.795178
v    -10.218188 8.417663 125.467614
v    -18.207142 7.227126 127.500431
v    -27.228268 6.762005 125.624772
v    18.006569 25.875632 106.295691
v    8.800420 22.512329 115.582663
v    1.783230 20.051037 120.252617
v    -2.015321 18.628407 122.795178
v    -11.979099 15.037476 125.467614
v    -19.503705 12.101309 127.500431
v    -27.563638 8.022765 125.624772
v    18.831935 19.515124 109.483989
v    21.003948 19.230864 109.483989
v    20.164118 21.254012 109.483989
v    21.168065 20.484876 151.287302
v    18.996052 20.769136 151.287302
v    19.835882 18.745988 151.287302
v    17.509623 26.630799 147.751991
v    27.881991 29.875547 158.049755
v    38.357162 33.301691 164.971008
v    54.225560 38.319383 169.813513
v    59.764697 39.920663 171.264653
v    64.516597 41.299523 170.220987
v    73.565005 42.803633 168.324927
v    22.937588 13.554843 147.751991
v    32.558618 18.609562 158.049755
v    42.380692 23.609015 164.971008
v    57.137628 31.304217 169.813513
v    62.182398 34.096427 171.264653
v    66.513844 36.488158 170.220987
v    73.967428 41.834196 168.324927
v    20.919824 20.756852 151.287302
v    18.884635 20.418165 151.287302
v    20.195542 18.824983 151.287302
v    19.080176 19.243148 189.414318
v    21.115365 19.581835 189.414318
v    19.804458 21.175017 189.414318
v    24.798183 14.037984 185.583199
v    15.066061 7.405266 196.742602
v    5.482421 0.690736 204.091214
v    -9.362478 -9.489796 209.420753
v    -14.834028 -13.046901 211.063221
v    -19.091714 -15.820933 209.991345
v    -28.549177 -20.503821 207.809866
v    15.073612 25.856526 185.583199
v    6.690848 17.583895 196.742602
v    -1.743601 9.472721 204.091214
v    -14.592380 -3.133751 209.420753
v    -19.136606 -7.817859 211.063221
v    -22.678651 -11.461627 209.991345
v    -29.095190 -19.840237 207.809866
v    19.227775 19.192038 189.414318
v    21.085829 19.735214 189.414318
v    19.686397 21.072748 189.414318
v    20.772225 20.807962 215.575480
v    18.914171 20.264786 215.575480
v    20.313603 18.927252 215.575480
v    14.431587 25.244676 211.518033
v    23.827647 33.447958 223.336689
v    28.668817 37.786087 227.418942
v    34.836532 43.083626 232.515380
v    42.401812 49.746879 235.059173
v    51.799606 57.597824 238.141087
v    61.512971 63.948042 236.408151
v    25.491052 14.674383 211.518033
v    33.261168 24.431692 223.336689
v    37.376000 29.464031 227.418942
v    42.389292 35.864932 232.515380
v    48.703720 43.723712 235.059173
v    56.121780 53.466824 238.141087
v    62.026382 63.457340 236.408151
v    20.731259 20.745280 215.575480
v    18.988939 20.260648 215.575480
v    20.279802 18.994071 215.575480
v    19.268741 19.254720 231.513641
v    21.011061 19.739352 231.513641
v    19.720198 21.005929 231.513641
v    25.682354 14.663606 227.314029
v    15.846552 6.301179 239.546787
v    11.984630 2.930816 242.765748
v    4.297973 -3.498113 249.047081
v    -2.227694 -9.095450 251.216435
v    -12.060508 -17.093202 254.406333
v    -14.934406 -18.911629 255.244819
v    -22.585700 -23.774441 253.370824
v    14.556656 25.579987 227.314029
v    6.382527 15.587150 239.546787
v    3.086112 11.661919 242.765748
v    -3.195682 3.854558 249.047081
v    -8.668082 -2.776230 251.216435
v    -16.477659 -12.759154 254.406333
v    -18.241181 -15.667067 255.244819
v    -22.957812 -23.409330 253.370824
v    19.349705 19.279474 231.513641
v    20.949141 19.797091 231.513641
v    19.701154 20.923435 231.513641
v    20.650295 20.720526 240.904581
v    19.050859 20.202909 240.904581
v    20.298846 19.076565 240.904581
v    13.958896 25.104478 236.656483
v    23.547045 33.970787 249.030474
v    27.507968 37.729629 252.459669
v    34.801343 44.365398 258.640453
v    41.391668 50.513089 260.914580
v    50.992171 59.010708 264.141306
v    61.662170 66.426367 262.868054
v    25.695132 14.512186 236.656483
v    33.535144 24.956239 249.030474
v    36.869513 29.280564 252.459669
v    42.725181 37.213905 258.640453
v    48.167175 44.397998 260.914580
v    55.639165 54.816662 264.141306
v    61.925560 66.188649 262.868054
v    20.855451 20.166533 240.904581
v    19.428052 20.657576 240.904581
v    19.716496 19.175891 240.904581
v    19.144549 19.833467 245.088135
v    20.571948 19.342424 245.088135
v    20.283504 20.824109 245.088135
v    21.735944 12.879035 240.888524
v    9.729304 11.650265 252.324560
v    -6.200411 10.163844 262.621575
v    -20.421483 8.978789 266.214223
v    -30.979843 9.385284 268.819314
v    -33.604492 9.481055 268.276412
v    18.937888 27.252142 240.888524
v    7.347116 23.887134 252.324560
v    -7.976891 19.289299 262.621575
v    -21.603982 15.053070 266.214223
v    -31.238802 10.715509 268.819314
v    -33.635853 9.642148 268.276412
v    19.482093 19.572743 245.088135
v    20.628969 19.765108 245.088135
v    19.888938 20.662149 245.088135
v    20.517907 20.427257 247.712780
v    19.371031 20.234892 247.712780
v    20.111062 19.337851 247.712780
v    15.566322 24.585149 243.655333
v    18.643936 26.688393 247.187377
v    26.001427 31.456760 255.473989
v    31.578659 35.202490 259.685252
v    38.309051 39.436882 264.652680
v    40.950738 41.159072 265.446330
v    52.668600 46.950553 268.668969
v    23.658851 14.775644 243.655333
v    26.308718 17.397388 247.187377
v    32.388604 23.714428 255.473989
v    37.126119 28.478036 259.685252
v    42.562570 34.280901 264.652680
v    44.755473 36.547094 265.446330
v    52.668600 46.950553 268.668969
v    20.395235 20.296794 247.712780
v    19.545351 20.193887 247.712780
v    20.059414 19.509319 247.712780
v    19.604765 19.703206 249.244000
v    20.454649 19.806113 249.244000
v    19.940586 20.490681 249.244000
v    22.593605 17.568499 245.412880
v    18.579202 15.403177 249.703998
v    11.443810 12.882913 256.572283
v    9.467610 12.090907 257.867204
v    18.388195 23.168764 245.412880
v    15.189321 19.917417 249.703998
v    10.779276 13.767860 256.572283
v    9.467610 12.090907 257.867204
v    21.403503 21.475592 -0.081036
v    21.894187 21.661979 0.416312
v    22.663877 21.932997 1.187561
v    23.524744 22.252064 1.763050
v    24.188297 22.475716 2.200489
v    24.707259 22.660022 2.339091
v    26.114147 22.978401 2.694730
v    22.027055 20.195546 -0.081036
v    22.476289 20.467023 0.416312
v    23.164149 20.906025 1.187561
v    23.946046 21.387203 1.763050
v    24.531183 21.771828 2.200489
v    24.996210 22.066856 2.339091
v    26.114147 22.978401 2.694730
v    17.331134 16.705715 2.269062
v    15.925729 15.790913 3.320202
v    15.130931 15.259373 3.561468
v    13.573209 14.275515 4.025155
v    12.855691 13.933651 4.221112
v    11.789746 13.423149 3.976805
v    16.202633 18.114488 2.269062
v    15.003142 16.942630 3.320202
v    14.310945 16.283007 3.561468
v    13.010820 14.977577 4.025155
v    12.520593 14.351973 4.221112
v    11.789746 13.423149 3.976805
v    26.022319 23.370823 4.760524
v    26.970911 23.645851 5.083079
v    29.344159 24.273460 5.700897
v    30.881442 24.489839 6.083650
v    31.947672 24.642099 5.861014
v    26.718356 21.579386 4.760524
v    27.603798 22.016946 5.083079
v    29.778226 23.156273 5.700897
v    31.058337 24.034552 6.083650
v    31.947672 24.642099 5.861014
v    7.460117 15.984149 8.576012
v    5.897696 15.795382 8.972093
v    5.315879 15.724497 8.848463
v    1.874461 15.712299 8.137083
v    6.989913 17.971858 8.576012
v    5.508512 17.440591 8.972093
v    4.956601 17.243286 8.848463
v    1.874461 15.712299 8.137083
v    33.236439 36.731006 11.841938
v    33.713085 37.166673 11.705729
v    37.270355 39.721414 10.800423
v    34.838325 35.328210 11.841938
v    35.207294 35.858170 11.705729
v    37.270355 39.721414 10.800423
v    -7.088247 1.382078 19.260548
v    -7.465325 1.248909 19.177884
v    -10.365449 0.321079 17.438924
v    -11.134610 0.075004 16.977724
v    -11.263185 0.039349 16.862555
v    -8.288267 3.261598 19.260548
v    -8.567750 2.975572 19.177884
v    -10.629835 0.735172 17.438924
v    -11.176734 0.140981 16.977724
v    -11.263185 0.039349 16.862555
v    54.621681 46.129388 28.817481
v    55.723029 46.551200 28.143948
v    57.851951 47.272420 26.203763
v    55.745161 44.570087 28.817481
v    56.493912 45.481275 28.143948
v    57.851951 47.272420 26.203763
v    -23.051644 -8.998929 49.914217
v    -23.640700 -9.193269 49.559971
v    -25.759131 -9.801398 47.657575
v    -23.930421 -7.649594 49.914217
v    -24.346349 -8.109766 49.559971
v    -25.759131 -9.801398 47.657575
v    57.493142 41.682919 84.594839
v    60.785841 42.621399 83.887100
v    58.246257 40.325070 84.594839
v    60.785841 42.621399 83.887100
v    -27.228268 6.762005 125.624772
v    -30.103585 6.672138 125.030126
v    -27.563638 8.022765 125.624772
v    -30.103585 6.672138 125.030126
v    73.565005 42.803633 168.324927
v    75.848198 43.183167 167.846493
v    73.967428 41.834196 168.324927
v    75.848198 43.183167 167.846493
v    -28.549177 -20.503821 207.809866
v    -30.247308 -21.344655 207.418172
v    -29.095190 -19.840237 207.809866
v    -30.247308 -21.344655 207.418172
v    61.512971 63.948042 236.408151
v    62.823518 64.805303 236.084439
v    62.026382 63.457340 236.408151
v    62.823518 64.805303 236.084439
v    -22.585700 -23.774441 253.370824
v    -23.555876 -24.391041 253.133203
v    -22.957812 -23.409330 253.370824
v    -23.555876 -24.391041 253.133203
v    61.662170 66.426367 262.868054
v    62.304391 66.873170 262.706334
v    61.925560 66.188649 262.868054
v    62.304391 66.873170 262.706334
v    -33.604492 9.481055 268.276412
v    -33.966140 9.494251 268.201606
v    -33.635853 9.642148 268.276412
v    -33.966140 9.494251 268.201606
mtllib usm_33_2.5D_2018-10-13_0.mtl
usemtl APPID_4048060064_2409227583968 
o vid_3 
f 3 2 1
f 4 5 6
f 1 6 5
f 1 5 3
f 3 5 4
f 4 2 3
f 2 4 6
f 6 1 2
usemtl APPID_4048060176_2409227584096 
o vid_4 
f 7 9 10
f 7 10 8
f 7 9 10
f 7 10 8
usemtl APPID_4048060064_2409227583968 
o vid_5 
f 13 12 11
f 14 15 16
f 11 16 15
f 11 15 13
f 13 15 14
f 14 12 13
f 12 14 16
f 16 11 12
usemtl APPID_4048060176_2409227584096 
o vid_6 
f 17 21 22
f 18 22 23
f 17 22 18
f 18 23 19
f 19 23 24
f 19 24 20
usemtl APPID_4048060064_2409227583968 
o vid_7 
f 27 26 25
f 28 29 30
f 25 30 29
f 25 29 27
f 27 29 28
f 28 26 27
f 26 28 30
f 30 25 26
usemtl APPID_4048060176_2409227584096 
o vid_8 
f 31 34 35
f 31 35 32
f 32 35 36
f 32 36 33
usemtl APPID_4048060064_2409227583968 
o vid_9 
f 39 38 37
f 40 41 42
f 37 42 41
f 37 41 39
f 39 41 40
f 40 38 39
f 38 40 42
f 42 37 38
usemtl APPID_4048060176_2409227584096 
o vid_10 
f 43 49 50
f 44 50 51
f 45 51 52
f 46 52 53
f 43 50 44
f 44 51 45
f 45 52 46
f 46 53 47
f 47 53 54
f 47 54 48
usemtl APPID_4048060064_2409227583968 
o vid_11 
f 57 56 55
f 58 59 60
f 55 60 59
f 55 59 57
f 57 59 58
f 58 56 57
f 56 58 60
f 60 55 56
usemtl APPID_4048060176_2409227584096 
o vid_12 
f 61 68 69
f 62 69 70
f 63 70 71
f 64 71 72
f 65 72 73
f 61 69 62
f 62 70 63
f 63 71 64
f 64 72 65
f 65 73 66
f 66 73 74
f 66 74 67
usemtl APPID_4048060064_2409227583968 
o vid_13 
f 77 76 75
f 78 79 80
f 75 80 79
f 75 79 77
f 77 79 78
f 78 76 77
f 76 78 80
f 80 75 76
usemtl APPID_4048060176_2409227584096 
o vid_14 
f 81 89 90
f 82 90 91
f 83 91 92
f 84 92 93
f 85 93 94
f 86 94 95
f 81 90 82
f 82 91 83
f 83 92 84
f 84 93 85
f 85 94 86
f 86 95 87
f 87 95 96
f 87 96 88
usemtl APPID_4048060064_2409227583968 
o vid_15 
f 99 98 97
f 100 101 102
f 97 102 101
f 97 101 99
f 99 101 100
f 100 98 99
f 98 100 102
f 102 97 98
usemtl APPID_4048060176_2409227584096 
o vid_16 
f 103 112 113
f 104 113 114
f 105 114 115
f 106 115 116
f 107 116 117
f 108 117 118
f 109 118 119
f 103 113 104
f 104 114 105
f 105 115 106
f 106 116 107
f 107 117 108
f 108 118 109
f 109 119 110
f 110 119 120
f 110 120 111
usemtl APPID_4048060064_2409227583968 
o vid_17 
f 123 122 121
f 124 125 126
f 121 126 125
f 121 125 123
f 123 125 124
f 124 122 123
f 122 124 126
f 126 121 122
usemtl APPID_4048060176_2409227584096 
o vid_18 
f 127 137 138
f 128 138 139
f 129 139 140
f 130 140 141
f 131 141 142
f 132 142 143
f 133 143 144
f 134 144 145
f 127 138 128
f 128 139 129
f 129 140 130
f 130 141 131
f 131 142 132
f 132 143 133
f 133 144 134
f 134 145 135
f 135 145 146
f 135 146 136
usemtl APPID_4048060064_2409227583968 
o vid_19 
f 149 148 147
f 150 151 152
f 147 152 151
f 147 151 149
f 149 151 150
f 150 148 149
f 148 150 152
f 152 147 148
usemtl APPID_4048060176_2409227584096 
o vid_20 
f 153 160 161
f 154 161 162
f 155 162 163
f 156 163 164
f 157 164 165
f 153 161 154
f 154 162 155
f 155 163 156
f 156 164 157
f 157 165 158
f 158 165 166
f 158 166 159
usemtl APPID_4048060064_2409227583968 
o vid_21 
f 169 168 167
f 170 171 172
f 167 172 171
f 167 171 169
f 169 171 170
f 170 168 169
f 168 170 172
f 172 167 168
usemtl APPID_4048060176_2409227584096 
o vid_22 
f 173 180 181
f 174 181 182
f 175 182 183
f 176 183 184
f 177 184 185
f 173 181 174
f 174 182 175
f 175 183 176
f 176 184 177
f 177 185 178
f 178 185 186
f 178 186 179
usemtl APPID_4048060064_2409227583968 
o vid_23 
f 189 188 187
f 190 191 192
f 187 192 191
f 187 191 189
f 189 191 190
f 190 188 189
f 188 190 192
f 192 187 188
usemtl APPID_4048060176_2409227584096 
o vid_24 
f 193 200 201
f 194 201 202
f 195 202 203
f 196 203 204
f 197 204 205
f 193 201 194
f 194 202 195
f 195 203 196
f 196 204 197
f 197 205 198
f 198 205 206
f 198 206 199
usemtl APPID_4048060064_2409227583968 
o vid_25 
f 209 208 207
f 210 211 212
f 207 212 211
f 207 211 209
f 209 211 210
f 210 208 209
f 208 210 212
f 212 207 208
usemtl APPID_4048060176_2409227584096 
o vid_26 
f 213 220 221
f 214 221 222
f 215 222 223
f 216 223 224
f 217 224 225
f 213 221 214
f 214 222 215
f 215 223 216
f 216 224 217
f 217 225 218
f 218 225 226
f 218 226 219
usemtl APPID_4048060064_2409227583968 
o vid_27 
f 229 228 227
f 230 231 232
f 227 232 231
f 227 231 229
f 229 231 230
f 230 228 229
f 228 230 232
f 232 227 228
usemtl APPID_4048060176_2409227584096 
o vid_28 
f 233 240 241
f 234 241 242
f 235 242 243
f 236 243 244
f 237 244 245
f 233 241 234
f 234 242 235
f 235 243 236
f 236 244 237
f 237 245 238
f 238 245 246
f 238 246 239
usemtl APPID_4048060064_2409227583968 
o vid_29 
f 249 248 247
f 250 251 252
f 247 252 251
f 247 251 249
f 249 251 250
f 250 248 249
f 248 250 252
f 252 247 248
usemtl APPID_4048060176_2409227584096 
o vid_30 
f 253 261 262
f 254 262 263
f 255 263 264
f 256 264 265
f 257 265 266
f 258 266 267
f 253 262 254
f 254 263 255
f 255 264 256
f 256 265 257
f 257 266 258
f 258 267 259
f 259 267 268
f 259 268 260
usemtl APPID_4048060064_2409227583968 
o vid_31 
f 271 270 269
f 272 273 274
f 269 274 273
f 269 273 271
f 271 273 272
f 272 270 271
f 270 272 274
f 274 269 270
usemtl APPID_4048060176_2409227584096 
o vid_32 
f 275 282 283
f 276 283 284
f 277 284 285
f 278 285 286
f 279 286 287
f 275 283 276
f 276 284 277
f 277 285 278
f 278 286 279
f 279 287 280
f 280 287 288
f 280 288 281
usemtl APPID_4048060064_2409227583968 
o vid_33 
f 291 290 289
f 292 293 294
f 289 294 293
f 289 293 291
f 291 293 292
f 292 290 291
f 290 292 294
f 294 289 290
usemtl APPID_4048060176_2409227584096 
o vid_34 
f 295 301 302
f 296 302 303
f 297 303 304
f 298 304 305
f 295 302 296
f 296 303 297
f 297 304 298
f 298 305 299
f 299 305 306
f 299 306 300
usemtl APPID_4048060064_2409227583968 
o vid_35 
f 309 308 307
f 310 311 312
f 307 312 311
f 307 311 309
f 309 311 310
f 310 308 309
f 308 310 312
f 312 307 308
usemtl APPID_4048060176_2409227584096 
o vid_36 
f 313 320 321
f 314 321 322
f 315 322 323
f 316 323 324
f 317 324 325
f 313 321 314
f 314 322 315
f 315 323 316
f 316 324 317
f 317 325 318
f 318 325 326
usemtl APPID_4048060064_2409227583968 
o vid_37 
f 329 328 327
f 330 331 332
f 327 332 331
f 327 331 329
f 329 331 330
f 330 328 329
f 328 330 332
f 332 327 328
usemtl APPID_4048060176_2409227584096 
o vid_38 
f 333 337 338
f 334 338 339
f 333 338 334
f 334 339 335
f 335 339 340
usemtl APPID_4048069920_2409227590112 
o vid_10000004 
f 341 348 349
f 342 349 350
f 343 350 351
f 344 351 352
f 345 352 353
f 341 349 342
f 342 350 343
f 343 351 344
f 344 352 345
f 345 353 346
f 346 353 354
usemtl APPID_4048069920_2409227590112 
o vid_10000006 
f 355 361 362
f 356 362 363
f 357 363 364
f 358 364 365
f 355 362 356
f 356 363 357
f 357 364 358
f 358 365 359
f 359 365 366
usemtl APPID_4048069920_2409227590112 
o vid_10000008 
f 367 372 373
f 368 373 374
f 369 374 375
f 367 373 368
f 368 374 369
f 369 375 370
f 370 375 376
usemtl APPID_4048069920_2409227590112 
o vid_10000010 
f 377 381 382
f 378 382 383
f 377 382 378
f 378 383 379
f 379 383 384
usemtl APPID_4048069920_2409227590112 
o vid_10000012 
f 385 388 389
f 385 389 386
f 386 389 390
usemtl APPID_4048069920_2409227590112 
o vid_10000014 
f 391 396 397
f 392 397 398
f 393 398 399
f 391 397 392
f 392 398 393
f 393 399 394
f 394 399 400
usemtl APPID_4048069920_2409227590112 
o vid_10000016 
f 401 404 405
f 401 405 402
f 402 405 406
usemtl APPID_4048069920_2409227590112 
o vid_10000018 
f 407 410 411
f 407 411 408
f 408 411 412
usemtl APPID_4048069920_2409227590112 
o vid_10000020 
f 413 415 416
f 413 416 414
f 413 415 416
usemtl APPID_4048069920_2409227590112 
o vid_10000022 
f 417 419 420
f 417 420 418
f 417 419 420
usemtl APPID_4048069920_2409227590112 
o vid_10000024 
f 421 423 424
f 421 424 422
f 421 423 424
usemtl APPID_4048069920_2409227590112 
o vid_10000026 
f 425 427 428
f 425 428 426
f 425 427 428
usemtl APPID_4048069920_2409227590112 
o vid_10000028 
f 429 431 432
f 429 432 430
f 429 431 432
usemtl APPID_4048069920_2409227590112 
o vid_10000030 
f 433 435 436
f 433 436 434
f 433 435 436
usemtl APPID_4048069920_2409227590112 
o vid_10000032 
f 437 439 440
f 437 440 438
f 437 439 440
usemtl APPID_4048069920_2409227590112 
o vid_10000034 
f 441 443 444
f 441 444 442
f 441 443 444
