# File generated by PlantGL - Fri Sep  4 14:43:20 2026
v    17.752484 138.905161 0.000000
v    22.071916 138.601013 0.000000
v    20.175600 142.493825 0.000000
v    22.247516 141.094839 0.848509
v    17.928084 141.398987 0.848509
v    19.824400 137.506175 0.848509
v    22.061987 141.449497 0.688834
v    22.413578 141.583545 1.038490
v    22.541246 141.629833 1.164481
v    23.212105 141.882450 1.647004
v    23.978185 142.181497 1.910604
v    24.621079 142.403486 2.127737
v    25.058753 142.497681 2.122755
v    22.412415 140.730130 0.688834
v    22.734695 140.924348 1.038490
v    22.849841 140.996342 1.164481
v    23.462289 141.368866 1.647004
v    24.169993 141.787748 1.910604
v    24.741086 142.157132 2.127737
v    25.085050 142.443698 2.122755
v    21.879284 141.505407 0.848509
v    17.756638 140.874804 0.848509
v    20.364078 137.619789 0.848509
v    18.120716 138.494593 1.417165
v    22.243362 139.125196 1.417165
v    19.635922 142.380211 1.417165
v    18.493386 138.055333 1.191260
v    17.958322 137.699916 1.788164
v    17.042241 137.098028 2.546856
v    15.959631 136.366477 2.965666
v    15.263756 135.935455 3.226985
v    14.474099 135.549154 3.217154
v    17.773384 138.954152 1.191260
v    17.309753 138.509561 1.788164
v    16.522434 137.746933 2.546856
v    15.572229 136.850092 2.965666
v    14.999717 136.265069 3.226985
v    14.450380 135.578764 3.217154
v    17.841416 139.161313 1.417165
v    21.805616 138.549955 1.417165
v    20.352968 142.288732 1.417165
v    22.158584 140.838687 2.253766
v    18.194384 141.450045 2.253766
v    19.647032 137.711268 2.253766
v    21.871294 141.515935 1.940435
v    22.841110 141.782284 2.873795
v    24.193989 142.167532 3.820650
v    25.042704 142.420294 4.104499
v    26.375198 142.760196 4.543515
v    27.080189 142.838721 4.763989
v    27.358488 142.873087 4.760873
v    22.403900 140.145132 1.940435
v    23.299140 140.603423 2.873795
v    24.557232 141.232630 3.820650
v    25.353963 141.619184 4.104499
v    26.566403 142.268079 4.543515
v    27.139477 142.686129 4.763989
v    27.367974 142.848672 4.760873
v    22.163962 140.511898 2.253766
v    18.474702 141.618097 2.253766
v    19.361335 137.870005 2.253766
v    17.836038 139.488102 4.112548
v    21.525298 138.381903 4.112548
v    20.638665 142.129995 4.112548
v    18.105092 138.483714 3.686489
v    17.425201 138.385661 4.324814
v    16.750712 138.299664 4.955646
v    14.856454 138.034421 6.243152
v    13.094990 137.766123 6.814272
v    11.236685 137.558130 7.411234
v    9.821782 137.584374 7.514254
v    17.626570 140.506585 3.686489
v    16.974807 140.289628 4.324814
v    16.333274 140.064313 4.955646
v    14.520942 139.452740 6.243152
v    12.825961 138.903396 6.814272
v    11.071422 138.256750 7.411234
v    9.818238 137.599355 7.514254
v    18.595695 138.396392 4.112548
v    22.090917 139.585640 4.112548
v    19.313387 142.017967 4.112548
v    21.404305 141.603608 5.999272
v    17.909083 140.414360 5.999272
v    20.686613 137.982033 5.999272
v    20.283419 142.530935 5.431303
v    21.503766 143.696652 6.999546
v    23.452655 145.540775 8.839534
v    25.877880 147.894457 9.922800
v    27.339754 149.204657 10.549508
v    29.343654 150.676244 10.521690
v    22.471415 140.614872 5.431303
v    23.465928 141.978355 6.999546
v    25.036793 144.153520 8.839534
v    27.049914 146.868088 9.922800
v    28.155781 148.490049 10.549508
v    29.350109 150.670591 10.521690
v    21.644544 141.049994 5.999272
v    18.268406 140.899220 5.999272
v    20.087050 138.050786 5.999272
v    18.355456 138.950006 12.880915
v    21.731594 139.100780 12.880915
v    19.912950 141.949214 12.880915
v    19.442988 137.345784 12.138632
v    17.331491 136.248732 14.349767
v    14.370256 134.721166 16.592873
v    9.990300 132.401264 18.181565
v    8.165714 131.525722 18.827650
v    7.001176 130.958660 18.812904
v    4.580572 130.155135 18.784567
v    17.357836 140.611634 12.138632
v    15.474105 139.157846 14.349767
v    12.842254 137.114386 16.592873
v    8.894622 134.117360 18.181565
v    7.332568 132.830630 18.827650
v    6.328107 132.012848 18.812904
v    4.580572 130.155135 18.784567
v    18.735311 139.088789 12.880915
v    21.421477 139.360353 12.880915
v    19.843212 141.550859 12.880915
v    21.264689 140.911211 19.681199
v    18.578523 140.639647 19.681199
v    20.156788 138.449141 19.681199
v    19.777018 142.859076 18.730149
v    22.353065 144.386822 21.513253
v    26.081080 146.576316 24.437146
v    31.113791 149.615152 26.321563
v    33.799481 151.094687 27.300456
v    34.814691 151.661584 27.287218
v    37.853454 152.863456 27.250911
v    22.641467 138.883448 18.730149
v    24.906095 140.843420 21.513253
v    28.163094 143.686645 24.437146
v    32.638760 147.498616 26.321563
v    34.892362 149.577854 27.300456
v    35.751471 150.361408 27.287218
v    37.853454 152.863456 27.250911
v    21.001489 140.652236 19.681199
v    18.934402 140.541197 19.681199
v    20.064109 138.806567 19.681199
v    18.998511 139.347764 30.874713
v    21.065598 139.458803 30.874713
v    19.935891 141.193433 30.874713
v    20.790622 136.753327 29.680102
v    17.408525 134.957122 33.238649
v    12.668651 132.450426 36.848646
v    5.215128 128.415896 39.565294
v    2.740976 127.201026 40.445242
v    0.404704 126.037162 40.415526
v    -3.479110 124.708838 40.369921
v    17.350263 142.035893 29.680102
v    14.339900 139.668902 33.238649
v    10.130704 136.347366 36.848646
v    3.426884 131.161690 39.565294
v    1.315339 129.390049 40.445242
v    -0.693804 127.723888 40.415526
v    -3.479110 124.708838 40.369921
v    19.247647 139.582716 30.874713
v    20.737555 139.557085 30.874713
v    20.014798 140.860199 30.874713
v    20.752353 140.417284 44.780720
v    19.262445 140.442915 44.780720
v    19.985202 139.139801 44.780720
v    18.782772 143.750451 43.309630
v    23.093783 145.661908 47.691760
v    29.135594 148.325852 52.137248
v    38.491020 152.562949 55.429188
v    41.791184 153.902454 56.566233
v    44.599986 155.061349 56.531641
v    49.486482 156.354339 56.475480
v    22.537052 136.981574 43.309630
v    26.441215 139.626569 47.691760
v    31.900167 143.341392 52.137248
v    40.448182 149.034233 55.429188
v    43.331914 151.124554 56.566233
v    45.802259 152.893679 56.531641
v    49.486482 156.354339 56.475480
v    20.535655 140.142487 44.780720
v    19.608775 140.392647 44.780720
v    19.855570 139.464866 44.780720
v    19.464345 139.857513 51.219000
v    20.391225 139.607353 51.219000
v    20.144430 140.535134 51.219000
v    19.860743 136.512397 47.768176
v    16.774202 136.312542 54.905240
v    14.723113 136.075878 58.176716
v    11.622206 135.935809 63.033019
v    9.819479 135.743628 64.633847
v    5.171331 136.055483 68.575964
v    18.146315 142.957468 47.768176
v    15.368411 141.597345 54.905240
v    13.470820 140.783635 58.176716
v    10.710155 139.364491 63.033019
v    9.050203 138.635577 64.633847
v    5.171331 136.055483 68.575964
v    25.058753 142.497681 2.122755
v    25.178621 142.522676 2.121394
v    25.085050 142.443698 2.122755
v    25.178621 142.522676 2.121394
v    14.474099 135.549154 3.217154
v    14.403703 135.517068 3.216294
v    14.450380 135.578764 3.217154
v    14.403703 135.517068 3.216294
v    27.358488 142.873087 4.760873
v    27.411499 142.879633 4.760280
v    27.367974 142.848672 4.760873
v    27.411499 142.879633 4.760280
v    9.821782 137.584374 7.514254
v    9.790395 137.584859 7.513905
v    9.818238 137.599355 7.514254
v    9.790395 137.584859 7.513905
v    29.343654 150.676244 10.521690
v    29.358057 150.686179 10.521496
v    29.350109 150.670591 10.521690
v    29.358057 150.686179 10.521496
mtllib usm_22_2.5D_2018-07-29_3.mtl
usemtl APPID_589052688_1675719874032 
o vid_3 
f 3 2 1
f 4 5 6
f 1 6 5
f 1 5 3
f 3 5 4
f 4 2 3
f 2 4 6
f 6 1 2
usemtl APPID_589047984_1675719879408 
o vid_4 
f 7 14 15
f 8 15 16
f 9 16 17
f 10 17 18
f 11 18 19
f 7 15 8
f 8 16 9
f 9 17 10
f 10 18 11
f 11 19 12
f 12 19 20
f 12 20 13
usemtl APPID_589052688_1675719874032 
o vid_5 
f 23 22 21
f 24 25 26
f 21 26 25
f 21 25 23
f 23 25 24
f 24 22 23
f 22 24 26
f 26 21 22
usemtl APPID_589047984_1675719879408 
o vid_6 
f 27 33 34
f 28 34 35
f 29 35 36
f 30 36 37
f 27 34 28
f 28 35 29
f 29 36 30
f 30 37 31
f 31 37 38
f 31 38 32
usemtl APPID_589052688_1675719874032 
o vid_7 
f 41 40 39
f 42 43 44
f 39 44 43
f 39 43 41
f 41 43 42
f 42 40 41
f 40 42 44
f 44 39 40
usemtl APPID_589047984_1675719879408 
o vid_8 
f 45 52 53
f 46 53 54
f 47 54 55
f 48 55 56
f 49 56 57
f 45 53 46
f 46 54 47
f 47 55 48
f 48 56 49
f 49 57 50
f 50 57 58
f 50 58 51
usemtl APPID_589052688_1675719874032 
o vid_9 
f 61 60 59
f 62 63 64
f 59 64 63
f 59 63 61
f 61 63 62
f 62 60 61
f 60 62 64
f 64 59 60
usemtl APPID_589047984_1675719879408 
o vid_10 
f 65 72 73
f 66 73 74
f 67 74 75
f 68 75 76
f 69 76 77
f 65 73 66
f 66 74 67
f 67 75 68
f 68 76 69
f 69 77 70
f 70 77 78
f 70 78 71
usemtl APPID_589052688_1675719874032 
o vid_11 
f 81 80 79
f 82 83 84
f 79 84 83
f 79 83 81
f 81 83 82
f 82 80 81
f 80 82 84
f 84 79 80
usemtl APPID_589047984_1675719879408 
o vid_12 
f 85 91 92
f 86 92 93
f 87 93 94
f 88 94 95
f 85 92 86
f 86 93 87
f 87 94 88
f 88 95 89
f 89 95 96
f 89 96 90
usemtl APPID_589052688_1675719874032 
o vid_13 
f 99 98 97
f 100 101 102
f 97 102 101
f 97 101 99
f 99 101 100
f 100 98 99
f 98 100 102
f 102 97 98
usemtl APPID_589047984_1675719879408 
o vid_14 
f 103 110 111
f 104 111 112
f 105 112 113
f 106 113 114
f 107 114 115
f 103 111 104
f 104 112 105
f 105 113 106
f 106 114 107
f 107 115 108
f 108 115 116
usemtl APPID_589052688_1675719874032 
o vid_15 
f 119 118 117
f 120 121 122
f 117 122 121
f 117 121 119
f 119 121 120
f 120 118 119
f 118 120 122
f 122 117 118
usemtl APPID_589047984_1675719879408 
o vid_16 
f 123 130 131
f 124 131 132
f 125 132 133
f 126 133 134
f 127 134 135
f 123 131 124
f 124 132 125
f 125 133 126
f 126 134 127
f 127 135 128
f 128 135 136
usemtl APPID_589052688_1675719874032 
o vid_17 
f 139 138 137
f 140 141 142
f 137 142 141
f 137 141 139
f 139 141 140
f 140 138 139
f 138 140 142
f 142 137 138
usemtl APPID_589047984_1675719879408 
o vid_18 
f 143 150 151
f 144 151 152
f 145 152 153
f 146 153 154
f 147 154 155
f 143 151 144
f 144 152 145
f 145 153 146
f 146 154 147
f 147 155 148
f 148 155 156
usemtl APPID_589052688_1675719874032 
o vid_19 
f 159 158 157
f 160 161 162
f 157 162 161
f 157 161 159
f 159 161 160
f 160 158 159
f 158 160 162
f 162 157 158
usemtl APPID_589047984_1675719879408 
o vid_20 
f 163 170 171
f 164 171 172
f 165 172 173
f 166 173 174
f 167 174 175
f 163 171 164
f 164 172 165
f 165 173 166
f 166 174 167
f 167 175 168
f 168 175 176
usemtl APPID_589052688_1675719874032 
o vid_21 
f 179 178 177
f 180 181 182
f 177 182 181
f 177 181 179
f 179 181 180
f 180 178 179
f 178 180 182
f 182 177 178
usemtl APPID_589047984_1675719879408 
o vid_22 
f 183 189 190
f 184 190 191
f 185 191 192
f 186 192 193
f 183 190 184
f 184 191 185
f 185 192 186
f 186 193 187
f 187 193 194
usemtl APPID_589051680_1675719877616 
o vid_10000004 
f 195 197 198
f 195 198 196
f 195 197 198
usemtl APPID_589051680_1675719877616 
o vid_10000006 
f 199 201 202
f 199 202 200
f 199 201 202
usemtl APPID_589051680_1675719877616 
o vid_10000008 
f 203 205 206
f 203 206 204
f 203 205 206
usemtl APPID_589051680_1675719877616 
o vid_10000010 
f 207 209 210
f 207 210 208
f 207 209 210
usemtl APPID_589051680_1675719877616 
o vid_10000012 
f 211 213 214
f 211 214 212
f 211 213 214
