# File generated by PlantGL - Fri Sep  4 14:42:41 2026
v    18.805014 19.417883 0.000000
v    21.101621 19.256170 0.000000
v    20.093365 21.325947 0.000000
v    21.194986 20.582117 0.231332
v    18.898379 20.743830 0.231332
v    19.906635 18.674053 0.231332
v    20.421830 20.580692 -2.173816
v    21.534228 20.747373 -1.152915
v    20.717271 19.974201 -2.173816
v    21.534228 20.747373 -1.152915
v    20.764351 20.612286 0.231332
v    19.087569 20.355805 0.231332
v    20.148080 19.031910 0.231332
v    19.235649 19.387714 0.322458
v    20.912431 19.644195 0.322458
v    19.851920 20.968090 0.322458
v    20.049785 19.484148 -2.082691
v    18.701745 18.960029 -0.769967
v    19.507450 20.161175 -2.082691
v    18.701745 18.960029 -0.769967
v    19.391843 19.763709 0.322458
v    20.508713 19.591466 0.322458
v    20.099445 20.644825 0.322458
v    20.608157 20.236291 0.370000
v    19.491287 20.408534 0.370000
v    19.900555 19.355175 0.370000
v    19.959813 20.207055 -4.537589
v    20.439602 20.170801 -3.736266
v    20.110148 19.820128 -4.537589
v    20.439602 20.170801 -3.736266
mtllib usm_42_2.5D_2018-07-13_0.mtl
usemtl APPID_4152140960_1941179480560 
o vid_3 
f 3 2 1
f 4 5 6
f 1 6 5
f 1 5 3
f 3 5 4
f 4 2 3
f 2 4 6
f 6 1 2
usemtl APPID_4152141520_1941179480432 
o vid_4 
f 7 9 10
f 7 10 8
f 7 9 10
usemtl APPID_4152140960_1941179480560 
o vid_5 
f 13 12 11
f 14 15 16
f 11 16 15
f 11 15 13
f 13 15 14
f 14 12 13
f 12 14 16
f 16 11 12
usemtl APPID_4152141520_1941179480432 
o vid_6 
f 17 19 20
f 17 20 18
f 17 19 20
usemtl APPID_4152140960_1941179480560 
o vid_7 
f 23 22 21
f 24 25 26
f 21 26 25
f 21 25 23
f 23 25 24
f 24 22 23
f 22 24 26
f 26 21 22
usemtl APPID_4152141520_1941179480432 
o vid_8 
f 27 29 30
f 27 30 28
f 27 29 30
