# File generated by PlantGL - Fri Sep  4 14:43:08 2026
v    18.201987 139.124129 0.000000
v    21.657533 138.880811 0.000000
v    20.140480 141.995060 0.000000
v    21.798013 140.875871 0.331061
v    18.342467 141.119189 0.331061
v    19.859520 138.004940 0.331061
v    21.382982 141.452794 -0.085391
v    22.236258 141.776914 0.779475
v    22.583742 141.899267 1.127663
v    23.811348 142.354260 1.948318
v    24.970505 142.762595 2.330137
v    26.279004 143.058709 2.660905
v    21.996455 140.193440 -0.085391
v    22.777651 140.665526 0.779475
v    23.088192 140.863717 1.127663
v    24.203187 141.549882 1.948318
v    25.239248 142.210911 2.330137
v    26.279004 143.058709 2.660905
v    21.503548 141.204422 0.331061
v    18.205166 140.699900 0.331061
v    20.291286 138.095678 0.331061
v    18.496452 138.795578 0.718770
v    21.794834 139.300100 0.718770
v    19.708714 141.904322 0.718770
v    19.284553 138.077184 0.145052
v    17.814243 137.103129 1.816194
v    17.356062 136.790998 2.164350
v    16.086288 135.964480 3.114048
v    15.248987 135.404515 3.368216
v    13.785023 134.479875 3.803994
v    13.211104 134.206429 3.960734
v    12.108136 133.678196 3.707941
v    17.967388 139.721474 0.145052
v    16.695908 138.499209 1.816194
v    16.291300 138.120201 2.164350
v    15.207569 137.061435 3.114048
v    14.478355 136.366539 3.368216
v    13.256483 135.139681 3.803994
v    12.864367 134.639281 3.960734
v    12.108136 133.678196 3.707941
v    18.272844 139.328938 0.718770
v    21.444735 138.839770 0.718770
v    20.282421 141.831292 0.718770
v    21.727156 140.671062 1.487000
v    18.555265 141.160230 1.487000
v    19.717579 138.168708 1.487000
v    20.991261 141.948625 0.715164
v    23.271391 142.605033 2.963392
v    24.483149 142.970898 3.758296
v    25.944638 143.378874 4.709428
v    27.817346 143.926844 5.201779
v    30.069383 144.522399 5.788042
v    32.550058 144.876148 5.381212
v    22.046849 139.231790 0.715164
v    24.172029 140.287003 2.963392
v    25.312932 140.835231 3.758296
v    26.666489 141.521001 4.709428
v    28.417910 142.381135 5.201779
v    30.481281 143.462271 5.788042
v    32.550058 144.876148 5.381212
v    21.731622 140.409625 1.487000
v    18.779443 141.294816 1.487000
v    19.488935 138.295559 1.487000
v    18.268378 139.590375 2.857581
v    21.220557 138.705184 2.857581
v    20.511065 141.704441 2.857581
v    19.005726 137.747495 1.843562
v    15.919864 137.306322 4.797229
v    13.656819 136.952883 6.235632
v    12.304246 136.770653 7.091127
v    9.056433 136.291869 7.919499
v    6.420949 135.973457 8.587605
v    2.719803 135.912269 7.820189
v    18.101893 141.568296 1.843562
v    15.145428 140.580121 4.797229
v    12.963880 139.882166 6.235632
v    11.673015 139.439076 7.091127
v    8.554911 138.411965 7.919499
v    6.056093 137.515828 8.587605
v    2.719803 135.912269 7.820189
v    18.876148 138.716648 2.857581
v    21.673341 139.668392 2.857581
v    19.450510 141.614960 2.857581
v    21.123852 141.283352 4.464214
v    18.326659 140.331608 4.464214
v    20.549490 138.385040 4.464214
v    18.815987 142.804186 3.163262
v    19.647257 143.596676 4.251519
v    21.711096 145.563283 6.952714
v    25.061738 148.839726 9.895706
v    25.950820 149.726336 10.212979
v    30.431898 154.033733 11.781351
v    33.355258 156.705579 11.009000
v    36.788673 159.171370 10.135215
v    22.935890 139.196322 3.163262
v    23.611773 140.124886 4.251519
v    25.288886 142.430156 6.952714
v    28.094601 146.183799 9.895706
v    28.856156 147.182088 10.212979
v    32.534663 152.192309 11.781351
v    34.797443 155.442635 11.009000
v    36.788673 159.171370 10.135215
v    21.375838 140.878433 4.464214
v    18.551335 140.752294 4.464214
v    20.072827 138.369272 4.464214
v    18.624162 139.121567 10.752587
v    21.448665 139.247706 10.752587
v    19.927173 141.630728 10.752587
v    20.969316 136.324589 9.122654
v    17.826891 134.695844 12.476443
v    16.520617 134.019191 13.870374
v    11.342471 131.251444 17.557583
v    7.501223 129.149603 18.664011
v    2.940384 126.761800 19.963020
v    0.581996 125.524763 19.399850
v    -3.871702 123.333814 18.352910
v    -7.042339 122.214073 17.657837
v    -8.675286 121.691648 16.678697
v    17.073759 142.425970 9.122654
v    14.273876 140.260721 12.476443
v    13.110356 139.360481 13.870374
v    8.420575 135.827837 17.557583
v    4.897450 133.227738 18.664011
v    0.812105 130.095198 19.963020
v    -1.302509 128.476352 19.399850
v    -5.164193 125.358167 18.352910
v    -7.514206 122.953130 17.657837
v    -8.675286 121.691648 16.678697
v    18.850952 139.172108 10.752587
v    21.291500 139.418841 10.752587
v    19.857549 141.409051 10.752587
v    21.149048 140.827892 22.165711
v    18.708500 140.581159 22.165711
v    20.142451 138.590949 22.165711
v    17.920913 144.321527 20.171494
v    19.639473 145.564590 22.189416
v    22.764670 147.604573 25.736356
v    27.947297 150.758264 29.628568
v    39.008785 157.628299 33.434638
v    41.934199 159.451832 32.704646
v    47.950378 163.051583 31.222059
v    50.184039 164.388083 30.671611
v    54.343687 166.656158 27.996966
v    59.585621 168.521533 23.172485
v    23.441166 136.659854 20.171494
v    25.164314 137.896549 22.189416
v    28.088670 140.215284 25.736356
v    32.720740 144.133105 29.628568
v    42.738989 152.451071 33.434638
v    45.394786 154.648813 32.704646
v    50.713837 159.216121 31.222059
v    52.688672 160.911853 30.671611
v    56.156844 164.139640 27.996966
v    59.585621 168.521533 23.172485
v    20.936295 140.609778 22.165711
v    19.003770 140.505966 22.165711
v    20.059936 138.884256 22.165711
v    19.063705 139.390222 39.904430
v    20.996230 139.494034 39.904430
v    19.940064 141.115744 39.904430
v    22.678601 135.102551 37.521734
v    20.340426 133.728741 40.099107
v    16.271691 131.573014 44.462125
v    13.983510 130.322639 46.099660
v    8.739255 127.458326 49.852223
v    -1.961057 121.477084 52.949771
v    -12.072081 116.057959 51.293662
v    -17.555818 113.298467 49.998779
v    -22.682297 111.470076 46.871632
v    -24.693180 110.892820 45.065818
v    16.603855 144.430136 37.521734
v    14.401925 142.847127 40.099107
v    10.785100 139.997505 44.462125
v    8.716279 138.410310 46.099660
v    3.976059 134.772066 49.852223
v    -5.821067 127.404010 52.949771
v    -14.865800 120.347629 51.293662
v    -19.606984 116.447970 49.998779
v    -23.352122 112.498572 46.871632
v    -24.693180 110.892820 45.065818
v    19.264154 139.591872 39.904430
v    20.721373 139.566803 39.904430
v    20.014473 140.841325 39.904430
v    20.735846 140.408128 66.592971
v    19.278627 140.433197 66.592971
v    19.985527 139.158675 66.592971
v    17.371969 144.815180 63.812880
v    25.189060 148.269717 71.910813
v    32.115471 151.438259 76.694071
v    34.320520 152.391493 78.199888
v    43.936500 156.691203 80.857786
v    49.237106 158.897020 82.302713
v    51.703952 159.926484 81.738888
v    60.391178 162.402504 79.871638
v    22.693269 135.221003 63.812880
v    29.762890 140.023211 71.910813
v    36.118290 144.221273 76.694071
v    38.094487 145.587119 78.199888
v    46.833579 151.467840 80.857786
v    51.511433 154.796461 82.302713
v    53.690918 156.344031 81.738888
v    60.391178 162.402504 79.871638
v    20.568747 140.151290 66.592971
v    19.584605 140.416904 66.592971
v    19.846648 139.431806 66.592971
v    19.431253 139.848710 94.717645
v    20.415395 139.583096 94.717645
v    20.153352 140.568194 94.717645
v    21.668431 135.002770 91.549954
v    15.584413 133.960265 97.398742
v    12.047822 133.442966 100.776903
v    3.107620 131.985316 106.454901
v    0.746508 131.672357 107.942804
v    -6.015731 130.664629 109.663478
v    -16.215992 130.366323 112.179426
v    18.965020 145.165732 91.549954
v    13.167133 143.047577 97.398742
v    9.840937 141.739333 100.776903
v    1.358090 138.562344 106.454901
v    -0.846458 137.660809 107.942804
v    -7.215649 135.175496 109.663478
v    -16.215992 130.366323 112.179426
v    19.668822 139.862525 94.717645
v    20.284646 139.781929 94.717645
v    20.046532 140.355546 94.717645
v    20.331178 140.137475 102.584000
v    19.715354 140.218071 102.584000
v    19.953468 139.644454 102.584000
v    19.105102 143.854482 95.632801
v    19.359253 143.833661 97.011539
v    21.449697 143.413531 107.771780
v    22.064713 143.029464 110.330290
v    25.710946 142.370673 118.571031
v    22.097879 136.644888 95.632801
v    22.262571 136.839575 97.011539
v    23.440943 138.616624 107.771780
v    23.603167 139.323332 110.330290
v    25.710946 142.370673 118.571031
mtllib usm_21_2.5D_2018-08-31_3.mtl
usemtl APPID_4263936064_2499637487360 
o vid_3 
f 3 2 1
f 4 5 6
f 1 6 5
f 1 5 3
f 3 5 4
f 4 2 3
f 2 4 6
f 6 1 2
usemtl APPID_4263930912_2499637488768 
o vid_4 
f 7 13 14
f 8 14 15
f 9 15 16
f 10 16 17
f 7 14 8
f 8 15 9
f 9 16 10
f 10 17 11
f 11 17 18
usemtl APPID_4263936064_2499637487360 
o vid_5 
f 21 20 19
f 22 23 24
f 19 24 23
f 19 23 21
f 21 23 22
f 22 20 21
f 20 22 24
f 24 19 20
usemtl APPID_4263930912_2499637488768 
o vid_6 
f 25 33 34
f 26 34 35
f 27 35 36
f 28 36 37
f 29 37 38
f 30 38 39
f 25 34 26
f 26 35 27
f 27 36 28
f 28 37 29
f 29 38 30
f 30 39 31
f 31 39 40
usemtl APPID_4263936064_2499637487360 
o vid_7 
f 43 42 41
f 44 45 46
f 41 46 45
f 41 45 43
f 43 45 44
f 44 42 43
f 42 44 46
f 46 41 42
usemtl APPID_4263930912_2499637488768 
o vid_8 
f 47 54 55
f 48 55 56
f 49 56 57
f 50 57 58
f 51 58 59
f 47 55 48
f 48 56 49
f 49 57 50
f 50 58 51
f 51 59 52
f 52 59 60
usemtl APPID_4263936064_2499637487360 
o vid_9 
f 63 62 61
f 64 65 66
f 61 66 65
f 61 65 63
f 63 65 64
f 64 62 63
f 62 64 66
f 66 61 62
usemtl APPID_4263930912_2499637488768 
o vid_10 
f 67 74 75
f 68 75 76
f 69 76 77
f 70 77 78
f 71 78 79
f 67 75 68
f 68 76 69
f 69 77 70
f 70 78 71
f 71 79 72
f 72 79 80
usemtl APPID_4263936064_2499637487360 
o vid_11 
f 83 82 81
f 84 85 86
f 81 86 85
f 81 85 83
f 83 85 84
f 84 82 83
f 82 84 86
f 86 81 82
usemtl APPID_4263930912_2499637488768 
o vid_12 
f 87 95 96
f 88 96 97
f 89 97 98
f 90 98 99
f 91 99 100
f 92 100 101
f 87 96 88
f 88 97 89
f 89 98 90
f 90 99 91
f 91 100 92
f 92 101 93
f 93 101 102
usemtl APPID_4263936064_2499637487360 
o vid_13 
f 105 104 103
f 106 107 108
f 103 108 107
f 103 107 105
f 105 107 106
f 106 104 105
f 104 106 108
f 108 103 104
usemtl APPID_4263930912_2499637488768 
o vid_14 
f 109 119 120
f 110 120 121
f 111 121 122
f 112 122 123
f 113 123 124
f 114 124 125
f 115 125 126
f 116 126 127
f 109 120 110
f 110 121 111
f 111 122 112
f 112 123 113
f 113 124 114
f 114 125 115
f 115 126 116
f 116 127 117
f 117 127 128
usemtl APPID_4263936064_2499637487360 
o vid_15 
f 131 130 129
f 132 133 134
f 129 134 133
f 129 133 131
f 131 133 132
f 132 130 131
f 130 132 134
f 134 129 130
usemtl APPID_4263930912_2499637488768 
o vid_16 
f 135 145 146
f 136 146 147
f 137 147 148
f 138 148 149
f 139 149 150
f 140 150 151
f 141 151 152
f 142 152 153
f 135 146 136
f 136 147 137
f 137 148 138
f 138 149 139
f 139 150 140
f 140 151 141
f 141 152 142
f 142 153 143
f 143 153 154
usemtl APPID_4263936064_2499637487360 
o vid_17 
f 157 156 155
f 158 159 160
f 155 160 159
f 155 159 157
f 157 159 158
f 158 156 157
f 156 158 160
f 160 155 156
usemtl APPID_4263930912_2499637488768 
o vid_18 
f 161 171 172
f 162 172 173
f 163 173 174
f 164 174 175
f 165 175 176
f 166 176 177
f 167 177 178
f 168 178 179
f 161 172 162
f 162 173 163
f 163 174 164
f 164 175 165
f 165 176 166
f 166 177 167
f 167 178 168
f 168 179 169
f 169 179 180
usemtl APPID_4263936064_2499637487360 
o vid_19 
f 183 182 181
f 184 185 186
f 181 186 185
f 181 185 183
f 183 185 184
f 184 182 183
f 182 184 186
f 186 181 182
usemtl APPID_4263930912_2499637488768 
o vid_20 
f 187 195 196
f 188 196 197
f 189 197 198
f 190 198 199
f 191 199 200
f 192 200 201
f 187 196 188
f 188 197 189
f 189 198 190
f 190 199 191
f 191 200 192
f 192 201 193
f 193 201 202
usemtl APPID_4263936064_2499637487360 
o vid_21 
f 205 204 203
f 206 207 208
f 203 208 207
f 203 207 205
f 205 207 206
f 206 204 205
f 204 206 208
f 208 203 204
usemtl APPID_4263930912_2499637488768 
o vid_22 
f 209 216 217
f 210 217 218
f 211 218 219
f 212 219 220
f 213 220 221
f 209 217 210
f 210 218 211
f 211 219 212
f 212 220 213
f 213 221 214
f 214 221 222
usemtl APPID_4263936064_2499637487360 
o vid_23 
f 225 224 223
f 226 227 228
f 223 228 227
f 223 227 225
f 225 227 226
f 226 224 225
f 224 226 228
f 228 223 224
usemtl APPID_4263930912_2499637488768 
o vid_24 
f 229 234 235
f 230 235 236
f 231 236 237
f 229 235 230
f 230 236 231
f 231 237 232
f 232 237 238
