# File generated by PlantGL - Fri Sep  4 14:43:51 2026
v    18.201987 19.124129 0.000000
v    21.657533 18.880811 0.000000
v    20.140480 21.995060 0.000000
v    21.798013 20.875871 0.331061
v    18.342467 21.119189 0.331061
v    19.859520 18.004940 0.331061
v    21.399188 21.442020 -0.051335
v    22.498116 21.859451 1.062520
v    23.790928 22.341531 1.927570
v    24.161582 22.484177 2.027784
v    25.249131 22.870413 2.318240
v    25.936143 23.025884 2.491906
v    26.454826 23.144357 2.381928
v    21.997961 20.212842 -0.051335
v    23.004059 20.820838 1.062520
v    24.180576 21.541650 1.927570
v    24.521378 21.745577 2.027784
v    25.495897 22.363843 2.318240
v    26.041809 22.808969 2.491906
v    26.454826 23.144357 2.381928
v    21.503548 21.204422 0.331061
v    18.205166 20.699900 0.331061
v    20.291286 18.095678 0.331061
v    18.496452 18.795578 0.718770
v    21.794834 19.300100 0.718770
v    19.708714 21.904322 0.718770
v    19.260387 18.087610 0.187722
v    17.899429 17.185998 1.734575
v    16.886093 16.495673 2.504576
v    16.309395 16.120291 2.935904
v    14.854913 15.147571 3.377420
v    13.705323 14.421490 3.719619
v    11.941875 13.545013 3.311212
v    17.972288 19.695616 0.187722
v    16.795372 18.564254 1.734575
v    15.900520 17.726019 2.504576
v    15.408318 17.245156 2.935904
v    14.141596 16.038046 3.377420
v    13.182111 15.074646 3.719619
v    11.941875 13.545013 3.311212
v    18.272844 19.328938 0.718770
v    21.444735 18.839770 0.718770
v    20.282421 21.831292 0.718770
v    21.727156 20.671062 1.487000
v    18.555265 21.160230 1.487000
v    19.717579 18.168708 1.487000
v    21.016362 21.925611 0.767236
v    23.142661 22.537734 2.863786
v    25.112271 23.132417 4.155835
v    25.628852 23.276621 4.492024
v    28.340252 24.069999 5.204874
v    29.682297 24.424905 5.554243
v    30.446959 24.627941 5.387364
v    32.762161 24.958557 4.903934
v    22.049828 19.265713 0.767236
v    24.031631 20.249736 2.863786
v    25.886072 21.140834 4.155835
v    26.364503 21.383228 4.492024
v    28.900298 22.628572 5.204874
v    30.129912 23.272849 5.554243
v    30.831068 23.639336 5.387364
v    32.762161 24.958557 4.903934
v    21.608504 20.380501 1.487000
v    18.866225 21.202754 1.487000
v    19.525272 18.416745 1.487000
v    18.391496 19.619499 2.857581
v    21.133775 18.797246 2.857581
v    20.474728 21.583255 2.857581
v    19.102686 17.809389 1.905483
v    16.205265 17.395157 4.678783
v    13.032472 16.899634 6.695426
v    8.563108 16.243525 7.917221
v    7.298919 16.090789 8.237698
v    5.696284 15.895535 7.897154
v    2.602705 15.884569 7.257677
v    18.216308 21.556404 1.905483
v    15.440382 20.628573 4.678783
v    12.381848 19.650039 6.695426
v    8.092213 18.234156 7.917221
v    6.893579 17.804297 8.237698
v    5.373320 17.260813 7.897154
v    2.602705 15.884569 7.257677
v    19.131656 19.008418 2.857581
v    21.292907 19.743783 2.857581
v    19.575437 21.247799 2.857581
v    20.868344 20.991582 4.464214
v    18.707093 20.256217 4.464214
v    20.424563 18.752201 4.464214
v    18.609315 22.497254 3.235054
v    20.234841 24.046946 5.363111
v    21.344449 25.104279 6.815390
v    24.510191 28.199916 9.595977
v    26.447999 30.132336 10.287492
v    29.655058 33.215093 11.409958
v    30.690298 34.211744 11.106073
v    33.453103 36.737024 10.316557
v    35.987444 38.557123 9.671581
v    36.629875 38.990035 9.229161
v    22.658909 18.950960 3.235054
v    23.980581 20.766741 5.363111
v    24.882269 22.006154 6.815390
v    27.533156 25.552658 9.595977
v    29.193008 27.728488 10.287492
v    31.825676 31.314249 11.409958
v    32.677024 32.471936 11.106073
v    34.815703 35.543773 10.316557
v    36.285510 38.296102 9.671581
v    36.629875 38.990035 9.229161
v    20.848067 20.541466 4.464214
v    19.107043 20.463714 4.464214
v    20.044890 18.994819 4.464214
v    19.151933 19.458534 11.608452
v    20.892957 19.536286 11.608452
v    19.955110 21.005181 11.608452
v    21.485149 16.636599 10.059738
v    19.646857 15.578729 12.075470
v    18.196648 14.827073 13.623222
v    15.444481 13.369911 15.898515
v    12.388830 11.736650 18.074355
v    4.977921 7.681572 20.208985
v    -1.629314 4.216421 18.908714
v    -4.773453 2.669695 18.169614
v    -8.084642 1.462027 16.137020
v    -9.764579 0.996165 14.632243
v    17.573866 22.762609 10.059738
v    15.840646 21.540171 12.075470
v    14.548519 20.540923 13.623222
v    12.068512 18.657491 15.898515
v    9.301048 16.572860 18.074355
v    2.503894 11.556494 20.208985
v    -3.419915 7.020932 18.908714
v    -6.146115 4.819614 18.169614
v    -8.635036 2.324077 16.137020
v    -9.764579 0.996165 14.632243
v    19.418031 19.580690 11.608452
v    20.654118 19.705655 11.608452
v    19.927851 20.713655 11.608452
v    20.581969 20.419310 19.156332
v    19.345882 20.294345 19.156332
v    20.072149 19.286345 19.156332
v    17.543508 23.694110 17.251883
v    19.079236 24.696562 18.994856
v    22.534586 26.741177 22.799220
v    28.393700 30.309661 27.107433
v    36.332323 35.251447 29.470313
v    44.197759 39.956098 28.355056
v    48.866563 42.587924 27.224573
v    52.922649 44.196292 24.725098
v    54.168152 44.618234 23.590015
v    22.726547 16.500465 17.251883
v    24.163581 17.639895 18.994856
v    27.196841 20.270338 22.799220
v    32.436514 24.698557 27.107433
v    39.637134 30.664632 29.470313
v    46.589647 36.636347 28.355056
v    50.564038 40.231964 27.224573
v    53.373646 43.570344 24.725098
v    54.168152 44.618234 23.590015
v    20.378238 20.246334 19.156332
v    19.597549 20.204397 19.156332
v    20.024212 19.549269 19.156332
v    19.621762 19.753666 21.477000
v    20.402451 19.795603 21.477000
v    19.975788 20.450731 21.477000
v    21.464639 16.986478 16.896181
v    18.927761 16.296742 26.225182
v    15.559948 15.098724 33.232856
v    14.626751 15.001654 34.916193
v    10.709213 13.949220 38.858255
v    17.836041 22.558078 16.896181
v    16.179423 20.516730 26.225182
v    13.721941 17.920927 33.232856
v    13.255824 17.106671 34.916193
v    10.709213 13.949220 38.858255
mtllib usm_17_2.5D_2018-08-16_0.mtl
usemtl APPID_1926260688_2183767437920 
o vid_3 
f 3 2 1
f 4 5 6
f 1 6 5
f 1 5 3
f 3 5 4
f 4 2 3
f 2 4 6
f 6 1 2
usemtl APPID_1926255200_2183767437024 
o vid_4 
f 7 14 15
f 8 15 16
f 9 16 17
f 10 17 18
f 11 18 19
f 7 15 8
f 8 16 9
f 9 17 10
f 10 18 11
f 11 19 12
f 12 19 20
usemtl APPID_1926260688_2183767437920 
o vid_5 
f 23 22 21
f 24 25 26
f 21 26 25
f 21 25 23
f 23 25 24
f 24 22 23
f 22 24 26
f 26 21 22
usemtl APPID_1926255200_2183767437024 
o vid_6 
f 27 34 35
f 28 35 36
f 29 36 37
f 30 37 38
f 31 38 39
f 27 35 28
f 28 36 29
f 29 37 30
f 30 38 31
f 31 39 32
f 32 39 40
usemtl APPID_1926260688_2183767437920 
o vid_7 
f 43 42 41
f 44 45 46
f 41 46 45
f 41 45 43
f 43 45 44
f 44 42 43
f 42 44 46
f 46 41 42
usemtl APPID_1926255200_2183767437024 
o vid_8 
f 47 55 56
f 48 56 57
f 49 57 58
f 50 58 59
f 51 59 60
f 52 60 61
f 47 56 48
f 48 57 49
f 49 58 50
f 50 59 51
f 51 60 52
f 52 61 53
f 53 61 62
usemtl APPID_1926260688_2183767437920 
o vid_9 
f 65 64 63
f 66 67 68
f 63 68 67
f 63 67 65
f 65 67 66
f 66 64 65
f 64 66 68
f 68 63 64
usemtl APPID_1926255200_2183767437024 
o vid_10 
f 69 76 77
f 70 77 78
f 71 78 79
f 72 79 80
f 73 80 81
f 69 77 70
f 70 78 71
f 71 79 72
f 72 80 73
f 73 81 74
f 74 81 82
usemtl APPID_1926260688_2183767437920 
o vid_11 
f 85 84 83
f 86 87 88
f 83 88 87
f 83 87 85
f 85 87 86
f 86 84 85
f 84 86 88
f 88 83 84
usemtl APPID_1926255200_2183767437024 
o vid_12 
f 89 99 100
f 90 100 101
f 91 101 102
f 92 102 103
f 93 103 104
f 94 104 105
f 95 105 106
f 96 106 107
f 89 100 90
f 90 101 91
f 91 102 92
f 92 103 93
f 93 104 94
f 94 105 95
f 95 106 96
f 96 107 97
f 97 107 108
usemtl APPID_1926260688_2183767437920 
o vid_13 
f 111 110 109
f 112 113 114
f 109 114 113
f 109 113 111
f 111 113 112
f 112 110 111
f 110 112 114
f 114 109 110
usemtl APPID_1926255200_2183767437024 
o vid_14 
f 115 125 126
f 116 126 127
f 117 127 128
f 118 128 129
f 119 129 130
f 120 130 131
f 121 131 132
f 122 132 133
f 115 126 116
f 116 127 117
f 117 128 118
f 118 129 119
f 119 130 120
f 120 131 121
f 121 132 122
f 122 133 123
f 123 133 134
usemtl APPID_1926260688_2183767437920 
o vid_15 
f 137 136 135
f 138 139 140
f 135 140 139
f 135 139 137
f 137 139 138
f 138 136 137
f 136 138 140
f 140 135 136
usemtl APPID_1926255200_2183767437024 
o vid_16 
f 141 150 151
f 142 151 152
f 143 152 153
f 144 153 154
f 145 154 155
f 146 155 156
f 147 156 157
f 141 151 142
f 142 152 143
f 143 153 144
f 144 154 145
f 145 155 146
f 146 156 147
f 147 157 148
f 148 157 158
usemtl APPID_1926260688_2183767437920 
o vid_17 
f 161 160 159
f 162 163 164
f 159 164 163
f 159 163 161
f 161 163 162
f 162 160 161
f 160 162 164
f 164 159 160
usemtl APPID_1926255200_2183767437024 
o vid_18 
f 165 170 171
f 166 171 172
f 167 172 173
f 165 171 166
f 166 172 167
f 167 173 168
f 168 173 174
