# File generated by PlantGL - Fri Sep  4 14:41:45 2026
v    17.752484 98.905161 0.000000
v    22.071916 98.601013 0.000000
v    20.175600 102.493825 0.000000
v    22.247516 101.094839 0.362700
v    17.928084 101.398987 0.362700
v    19.824400 97.506175 0.362700
v    22.062188 101.448144 0.197284
v    22.261606 101.524173 0.395604
v    22.559950 101.632345 0.690029
v    23.254924 101.894042 1.189898
v    23.834764 102.120389 1.389415
v    24.109061 102.215102 1.482057
v    22.411472 100.731123 0.197284
v    22.594265 100.841281 0.395604
v    22.863348 101.009521 0.690029
v    23.497811 101.395436 1.189898
v    24.033468 101.712485 1.389415
v    24.277129 101.870086 1.482057
v    21.879284 101.505407 0.362700
v    17.756638 100.874804 0.362700
v    20.364078 97.619789 0.362700
v    18.120716 98.494593 0.589630
v    22.243362 99.125196 0.589630
v    19.635922 102.380211 0.589630
v    18.483330 98.068689 0.356738
v    18.255033 97.917043 0.611421
v    17.856582 97.661697 1.050484
v    16.983300 97.086779 1.754260
v    16.285636 96.615347 2.024152
v    15.492516 96.124091 2.321989
v    17.784224 98.941423 0.356738
v    17.586405 98.751728 0.611421
v    17.250251 98.418615 1.050484
v    16.498591 97.691868 1.754260
v    15.886254 97.113919 2.024152
v    15.233735 96.447142 2.321989
v    17.841416 99.161313 0.589630
v    21.805616 98.549955 0.589630
v    20.352968 102.288732 0.589630
v    22.158584 100.838687 1.053978
v    18.194384 101.450045 1.053978
v    19.647032 97.711268 1.053978
v    21.858364 101.547584 0.732433
v    22.195510 101.645090 1.058564
v    22.852604 101.823495 1.690262
v    24.240949 102.218843 2.661940
v    25.320903 102.540470 3.023126
v    26.688330 102.889284 3.473651
v    26.879207 102.910545 3.533345
v    22.415730 100.113055 0.732433
v    22.730267 100.268751 1.058564
v    23.335442 100.580783 1.690262
v    24.626516 101.226486 2.661940
v    25.640323 101.718359 3.023126
v    26.884548 102.384266 3.473651
v    27.039708 102.497453 3.533345
v    22.163962 100.511898 1.053978
v    18.474702 101.618097 1.053978
v    19.361335 97.870005 1.053978
v    17.836038 99.488102 1.828692
v    21.525298 98.381903 1.828692
v    20.638665 102.129995 1.828692
v    18.110292 98.464631 1.393341
v    17.447858 98.369096 2.015277
v    16.726249 98.277090 2.690179
v    14.790675 98.006062 4.005767
v    13.032748 97.738303 4.575740
v    11.133913 97.525774 5.185722
v    10.713399 97.537287 5.316471
v    10.433110 97.541613 5.313356
v    17.622669 100.525976 1.393341
v    16.987640 100.314589 2.015277
v    16.301290 100.073533 2.690179
v    14.449429 99.448622 4.005767
v    12.757852 98.900381 4.575740
v    10.965045 98.239631 5.185722
v    10.594259 98.040931 5.316471
v    10.345615 97.911483 5.313356
v    18.595695 98.396392 1.828692
v    22.090917 99.585640 1.828692
v    19.313387 102.017967 1.828692
v    21.404305 101.603608 2.768206
v    17.909083 100.414360 2.768206
v    20.686613 97.982033 2.768206
v    20.303728 102.512190 2.190180
v    21.111699 103.283991 3.228487
v    21.652733 103.784081 3.912021
v    23.536533 105.568796 5.658758
v    25.444345 107.420329 6.510913
v    27.333508 109.113485 7.320801
v    28.488856 109.906782 7.386234
v    22.450154 100.632531 2.190180
v    23.108604 101.535270 3.228487
v    23.532938 102.137556 3.912021
v    25.053502 104.240362 5.658758
v    26.637132 106.375787 6.510913
v    28.066230 108.471829 7.320801
v    28.700156 109.721744 7.386234
v    21.718982 101.097521 2.768206
v    18.190028 100.939922 2.768206
v    20.090990 97.962557 2.768206
v    18.281018 98.902479 5.227761
v    21.809972 99.060078 5.227761
v    19.909010 102.037443 5.227761
v    19.286113 97.428752 4.475161
v    18.737313 97.143617 5.049858
v    17.129329 96.341412 6.717031
v    14.124763 94.796011 8.991315
v    12.027480 93.685157 9.752039
v    9.049536 92.256167 10.806528
v    7.668167 91.815852 11.257156
v    7.051594 91.611180 11.249938
v    17.367085 100.434410 4.475161
v    16.877484 100.056556 5.049858
v    15.473107 98.935454 6.717031
v    12.806843 96.860192 8.991315
v    10.916572 95.425107 9.752039
v    8.367112 93.325007 10.806528
v    7.386385 92.257191 11.257156
v    6.941256 91.783997 11.249938
v    18.420020 98.861621 5.227761
v    21.775855 99.200887 5.227761
v    19.804125 101.937492 5.227761
v    21.579980 101.138379 9.039957
v    18.224145 100.799113 9.039957
v    20.195875 98.062508 9.039957
v    20.069433 103.116779 8.079027
v    22.718921 104.688079 10.941475
v    26.437605 106.874544 13.845309
v    31.681576 110.040944 15.808829
v    34.231846 111.445875 16.738363
v    35.428487 112.114084 16.722760
v    38.261670 113.234646 16.688909
v    22.978481 99.079251 8.079027
v    25.307671 101.095100 10.941475
v    28.558844 103.930433 13.845309
v    33.222387 107.902421 15.808829
v    35.362356 109.876817 16.738363
v    36.374998 110.800401 16.722760
v    38.334777 113.133180 16.688909
v    21.461627 100.951909 9.039957
v    18.444809 100.789852 9.039957
v    20.093564 98.258239 9.039957
v    18.538373 99.048091 15.458380
v    21.555191 99.210148 15.458380
v    19.906436 101.741761 15.458380
v    20.401348 96.345972 14.255206
v    16.995008 94.536892 17.839259
v    15.034677 93.469471 19.343618
v    12.231927 91.995694 21.475133
v    3.357229 87.191894 24.709769
v    -1.553104 84.753498 25.048920
v    -5.031029 83.563994 25.008081
v    -5.316584 83.467579 24.954692
v    16.820291 101.844574 14.255206
v    13.788350 99.460616 17.839259
v    12.019426 98.099297 19.343618
v    9.538215 96.131806 21.475133
v    1.556167 89.957369 24.709769
v    -2.659486 86.452314 25.048920
v    -5.153705 83.752360 25.008081
v    -5.357350 83.530175 24.954692
v    18.791284 99.329600 15.458380
v    21.184942 99.288421 15.458380
v    20.023774 101.381979 15.458380
v    21.208716 100.670400 25.898850
v    18.815058 100.711579 25.898850
v    19.976226 98.618021 25.898850
v    19.075219 104.298181 24.421527
v    23.404495 106.217737 28.822223
v    27.968602 108.298521 32.202860
v    29.443029 108.945026 33.286546
v    42.083172 114.669779 37.734295
v    49.453261 117.759167 37.643258
v    54.227326 119.009234 37.049521
v    23.156547 96.939643 24.421527
v    27.077251 99.595844 28.822223
v    31.259069 102.365886 32.202860
v    32.588207 103.274346 33.286546
v    44.137453 110.965960 37.734295
v    50.660628 115.582313 37.643258
v    54.248908 118.970324 37.049521
v    21.013629 100.269632 25.898850
v    19.259678 100.743013 25.898850
v    19.726693 98.987356 25.898850
v    18.986371 99.730368 38.707917
v    20.740322 99.256987 38.707917
v    20.273307 101.012644 38.707917
v    20.362580 95.053998 36.929097
v    14.743442 94.084047 42.227902
v    11.218283 93.437697 44.643339
v    6.881937 92.707522 47.603320
v    -8.120711 89.995268 52.490120
v    -16.158529 88.830853 52.883031
v    -21.240109 88.768527 52.826567
v    -22.254412 88.760066 52.646888
v    17.857212 104.472456 36.929097
v    12.498811 102.522314 42.227902
v    9.118418 101.331744 44.643339
v    4.992401 99.810878 47.603320
v    -9.374997 94.710520 52.490120
v    -16.929029 91.727406 52.883031
v    -21.369962 89.256685 52.826567
v    -22.254412 88.760066 52.646888
v    19.312524 99.714621 38.707917
v    20.590883 99.547317 38.707917
v    20.096593 100.738061 38.707917
v    20.687476 100.285379 51.981687
v    19.409117 100.452683 51.981687
v    19.903407 99.261939 51.981687
v    18.554340 105.030435 49.881305
v    22.605751 106.303286 53.827510
v    24.993566 107.010627 56.137991
v    34.001000 109.799901 62.485140
v    43.424958 112.842903 65.659404
v    52.302738 115.325161 68.602307
v    59.413284 116.360863 68.736268
v    22.541824 95.424595 49.881305
v    26.303635 97.395093 53.827510
v    28.490420 98.586715 56.137991
v    36.825212 102.996380 62.485140
v    45.633768 107.521884 65.659404
v    53.659597 112.056489 68.602307
v    59.413284 116.360863 68.736268
v    20.361864 100.297750 51.981687
v    19.561209 100.164508 51.981687
v    20.076927 99.537742 51.981687
v    19.638136 99.702250 59.071000
v    20.438791 99.835492 59.071000
v    19.923073 100.462258 59.071000
v    21.799938 95.758424 54.420195
v    18.692531 94.266160 64.498891
v    17.329375 93.483032 67.498955
v    13.159051 91.510314 76.156818
v    6.706975 89.062190 83.031741
v    16.184450 102.583083 54.420195
v    14.121698 99.821221 64.498891
v    13.090714 98.634395 67.498955
v    10.351806 94.922036 76.156818
v    6.706975 89.062190 83.031741
v    24.109061 102.215102 1.482057
v    24.520992 102.357340 1.621183
v    24.731671 102.398654 1.687912
v    25.067995 102.468787 1.684095
v    24.277129 101.870086 1.482057
v    24.643054 102.106767 1.621183
v    24.805454 102.247192 1.687912
v    25.067995 102.468787 1.684095
v    15.492516 96.124091 2.321989
v    15.416692 96.077127 2.350463
v    15.107758 95.940746 2.455423
v    14.701375 95.755519 2.450461
v    15.233735 96.447142 2.321989
v    15.171354 96.383397 2.350463
v    14.970833 96.111677 2.455423
v    14.701375 95.755519 2.450461
v    26.879207 102.910545 3.533345
v    27.188305 102.944973 3.630010
v    27.762004 103.015817 3.623587
v    27.039708 102.497453 3.533345
v    27.290968 102.680744 3.630010
v    27.762004 103.015817 3.623587
v    10.433110 97.541613 5.313356
v    9.658152 97.553576 5.304745
v    10.345615 97.911483 5.313356
v    9.658152 97.553576 5.304745
v    28.488856 109.906782 7.386234
v    28.960316 110.231990 7.379870
v    28.700156 109.721744 7.386234
v    28.960316 110.231990 7.379870
v    7.051594 91.611180 11.249938
v    6.654775 91.479455 11.245292
v    6.941256 91.783997 11.249938
v    6.654775 91.479455 11.245292
v    38.261670 113.234646 16.688909
v    38.498817 113.328441 16.686075
v    38.334777 113.133180 16.688909
v    38.498817 113.328441 16.686075
v    -5.316584 83.467579 24.954692
v    -5.458704 83.419594 24.928121
v    -5.357350 83.530175 24.954692
v    -5.458704 83.419594 24.928121
v    54.227326 119.009234 37.049521
v    54.313790 119.031750 37.033694
v    54.248908 118.970324 37.049521
v    54.313790 119.031750 37.033694
mtllib usm_25_Beer_2018-08-21_2.mtl
usemtl APPID_3202197952_2021840775536 
o vid_3 
f 3 2 1
f 4 5 6
f 1 6 5
f 1 5 3
f 3 5 4
f 4 2 3
f 2 4 6
f 6 1 2
usemtl APPID_3202194928_2021840772848 
o vid_4 
f 7 13 14
f 8 14 15
f 9 15 16
f 10 16 17
f 7 14 8
f 8 15 9
f 9 16 10
f 10 17 11
f 11 17 18
f 11 18 12
usemtl APPID_3202197952_2021840775536 
o vid_5 
f 21 20 19
f 22 23 24
f 19 24 23
f 19 23 21
f 21 23 22
f 22 20 21
f 20 22 24
f 24 19 20
usemtl APPID_3202194928_2021840772848 
o vid_6 
f 25 31 32
f 26 32 33
f 27 33 34
f 28 34 35
f 25 32 26
f 26 33 27
f 27 34 28
f 28 35 29
f 29 35 36
f 29 36 30
usemtl APPID_3202197952_2021840775536 
o vid_7 
f 39 38 37
f 40 41 42
f 37 42 41
f 37 41 39
f 39 41 40
f 40 38 39
f 38 40 42
f 42 37 38
usemtl APPID_3202194928_2021840772848 
o vid_8 
f 43 50 51
f 44 51 52
f 45 52 53
f 46 53 54
f 47 54 55
f 43 51 44
f 44 52 45
f 45 53 46
f 46 54 47
f 47 55 48
f 48 55 56
f 48 56 49
usemtl APPID_3202197952_2021840775536 
o vid_9 
f 59 58 57
f 60 61 62
f 57 62 61
f 57 61 59
f 59 61 60
f 60 58 59
f 58 60 62
f 62 57 58
usemtl APPID_3202194928_2021840772848 
o vid_10 
f 63 71 72
f 64 72 73
f 65 73 74
f 66 74 75
f 67 75 76
f 68 76 77
f 63 72 64
f 64 73 65
f 65 74 66
f 66 75 67
f 67 76 68
f 68 77 69
f 69 77 78
f 69 78 70
usemtl APPID_3202197952_2021840775536 
o vid_11 
f 81 80 79
f 82 83 84
f 79 84 83
f 79 83 81
f 81 83 82
f 82 80 81
f 80 82 84
f 84 79 80
usemtl APPID_3202194928_2021840772848 
o vid_12 
f 85 92 93
f 86 93 94
f 87 94 95
f 88 95 96
f 89 96 97
f 85 93 86
f 86 94 87
f 87 95 88
f 88 96 89
f 89 97 90
f 90 97 98
f 90 98 91
usemtl APPID_3202197952_2021840775536 
o vid_13 
f 101 100 99
f 102 103 104
f 99 104 103
f 99 103 101
f 101 103 102
f 102 100 101
f 100 102 104
f 104 99 100
usemtl APPID_3202194928_2021840772848 
o vid_14 
f 105 113 114
f 106 114 115
f 107 115 116
f 108 116 117
f 109 117 118
f 110 118 119
f 105 114 106
f 106 115 107
f 107 116 108
f 108 117 109
f 109 118 110
f 110 119 111
f 111 119 120
f 111 120 112
usemtl APPID_3202197952_2021840775536 
o vid_15 
f 123 122 121
f 124 125 126
f 121 126 125
f 121 125 123
f 123 125 124
f 124 122 123
f 122 124 126
f 126 121 122
usemtl APPID_3202194928_2021840772848 
o vid_16 
f 127 134 135
f 128 135 136
f 129 136 137
f 130 137 138
f 131 138 139
f 127 135 128
f 128 136 129
f 129 137 130
f 130 138 131
f 131 139 132
f 132 139 140
f 132 140 133
usemtl APPID_3202197952_2021840775536 
o vid_17 
f 143 142 141
f 144 145 146
f 141 146 145
f 141 145 143
f 143 145 144
f 144 142 143
f 142 144 146
f 146 141 142
usemtl APPID_3202194928_2021840772848 
o vid_18 
f 147 155 156
f 148 156 157
f 149 157 158
f 150 158 159
f 151 159 160
f 152 160 161
f 147 156 148
f 148 157 149
f 149 158 150
f 150 159 151
f 151 160 152
f 152 161 153
f 153 161 162
f 153 162 154
usemtl APPID_3202197952_2021840775536 
o vid_19 
f 165 164 163
f 166 167 168
f 163 168 167
f 163 167 165
f 165 167 166
f 166 164 165
f 164 166 168
f 168 163 164
usemtl APPID_3202194928_2021840772848 
o vid_20 
f 169 176 177
f 170 177 178
f 171 178 179
f 172 179 180
f 173 180 181
f 169 177 170
f 170 178 171
f 171 179 172
f 172 180 173
f 173 181 174
f 174 181 182
f 174 182 175
usemtl APPID_3202197952_2021840775536 
o vid_21 
f 185 184 183
f 186 187 188
f 183 188 187
f 183 187 185
f 185 187 186
f 186 184 185
f 184 186 188
f 188 183 184
usemtl APPID_3202194928_2021840772848 
o vid_22 
f 189 197 198
f 190 198 199
f 191 199 200
f 192 200 201
f 193 201 202
f 194 202 203
f 189 198 190
f 190 199 191
f 191 200 192
f 192 201 193
f 193 202 194
f 194 203 195
f 195 203 204
usemtl APPID_3202197952_2021840775536 
o vid_23 
f 207 206 205
f 208 209 210
f 205 210 209
f 205 209 207
f 207 209 208
f 208 206 207
f 206 208 210
f 210 205 206
usemtl APPID_3202194928_2021840772848 
o vid_24 
f 211 218 219
f 212 219 220
f 213 220 221
f 214 221 222
f 215 222 223
f 211 219 212
f 212 220 213
f 213 221 214
f 214 222 215
f 215 223 216
f 216 223 224
usemtl APPID_3202197952_2021840775536 
o vid_25 
f 227 226 225
f 228 229 230
f 225 230 229
f 225 229 227
f 227 229 228
f 228 226 227
f 226 228 230
f 230 225 226
usemtl APPID_3202194928_2021840772848 
o vid_26 
f 231 236 237
f 232 237 238
f 233 238 239
f 231 237 232
f 232 238 233
f 233 239 234
f 234 239 240
usemtl APPID_3202205456_2021840775792 
o vid_10000004 
f 241 245 246
f 242 246 247
f 241 246 242
f 242 247 243
f 243 247 248
usemtl APPID_3202205456_2021840775792 
o vid_10000006 
f 249 253 254
f 250 254 255
f 249 254 250
f 250 255 251
f 251 255 256
usemtl APPID_3202205456_2021840775792 
o vid_10000008 
f 257 260 261
f 257 261 258
f 258 261 262
usemtl APPID_3202205456_2021840775792 
o vid_10000010 
f 263 265 266
f 263 266 264
f 263 265 266
usemtl APPID_3202205456_2021840775792 
o vid_10000012 
f 267 269 270
f 267 270 268
f 267 269 270
usemtl APPID_3202205456_2021840775792 
o vid_10000014 
f 271 273 274
f 271 274 272
f 271 273 274
usemtl APPID_3202205456_2021840775792 
o vid_10000016 
f 275 277 278
f 275 278 276
f 275 277 278
usemtl APPID_3202205456_2021840775792 
o vid_10000018 
f 279 281 282
f 279 282 280
f 279 281 282
usemtl APPID_3202205456_2021840775792 
o vid_10000020 
f 283 285 286
f 283 286 284
f 283 285 286
