# File generated by PlantGL - Fri Sep  4 14:41:41 2026
v    17.752484 118.905161 0.000000
v    22.071916 118.601013 0.000000
v    20.175600 122.493825 0.000000
v    22.247516 121.094839 0.848018
v    17.928084 121.398987 0.848018
v    19.824400 117.506175 0.848018
v    22.060936 121.451059 0.684702
v    22.344289 121.559090 0.966496
v    22.551712 121.634296 1.171194
v    23.237867 121.892673 1.664720
v    23.922506 122.159928 1.900297
v    24.600025 122.393873 2.129124
v    25.145521 122.506552 2.151201
v    22.412996 120.728339 0.684702
v    22.672727 120.884863 0.966496
v    22.859806 121.001832 1.171194
v    23.486219 121.382850 1.664720
v    24.118688 121.757200 1.900297
v    24.720538 122.146479 2.129124
v    25.145521 122.506552 2.151201
v    21.879284 121.505407 0.848018
v    17.756638 120.874804 0.848018
v    20.364078 117.619789 0.848018
v    18.120716 118.494593 1.416666
v    22.243362 119.125196 1.416666
v    19.635922 122.380211 1.416666
v    18.496921 118.051557 1.185219
v    18.032720 117.743210 1.703071
v    17.877003 117.643420 1.874659
v    17.009140 117.072070 2.574067
v    16.008670 116.396023 2.961101
v    15.183752 115.885072 3.270879
v    14.419717 115.529896 3.261500
v    17.770471 118.958426 1.185219
v    17.368242 118.572715 1.703071
v    17.236871 118.442533 1.874659
v    16.489876 117.720296 2.574067
v    15.611766 116.891500 2.961101
v    14.933088 116.197991 3.270879
v    14.419717 115.529896 3.261500
v    18.150761 119.281504 1.416666
v    21.546855 118.757760 1.416666
v    20.302384 121.960736 1.416666
v    21.849239 120.718496 2.253758
v    18.453145 121.242240 2.253758
v    19.697616 118.039264 2.253758
v    21.559401 121.400675 1.932231
v    22.555510 121.671619 2.890007
v    23.943780 122.066946 3.861632
v    24.622386 122.269046 4.088589
v    25.989738 122.617840 4.539090
v    26.918837 122.721327 4.829650
v    27.043760 122.736753 4.828251
v    22.096006 120.019582 1.932231
v    23.013743 120.492235 2.890007
v    24.304747 121.137903 3.861632
v    24.941788 121.446979 4.088589
v    26.185945 122.112849 4.539090
v    26.941192 122.663791 4.829650
v    27.043760 122.736753 4.828251
v    21.515728 120.358554 2.253758
v    18.931619 121.133381 2.253758
v    19.552653 118.508064 2.253758
v    18.484272 119.641446 4.113040
v    21.068381 118.866619 4.113040
v    20.447347 121.491936 4.113040
v    18.756192 118.628626 3.675181
v    18.279154 118.559828 4.123056
v    17.363452 118.443076 4.979488
v    15.416731 118.170487 6.302652
v    13.894568 117.938639 6.796183
v    11.984797 117.724885 7.409678
v    11.305454 117.743484 7.620904
v    10.512689 117.755722 7.612095
v    18.273589 120.668752 3.675181
v    17.816285 120.516526 4.123056
v    16.945326 120.210633 4.979488
v    15.082801 119.582122 6.302652
v    13.618089 119.107408 6.796183
v    11.814958 118.442853 7.409678
v    11.215949 118.121852 7.620904
v    10.512689 117.755722 7.612095
v    19.235790 119.127331 4.113040
v    21.137858 119.774509 4.113040
v    19.626352 121.098159 4.113040
v    20.764210 120.872669 6.001020
v    18.862142 120.225491 6.001020
v    20.373648 118.901841 6.001020
v    19.630812 121.809373 5.416505
v    20.669020 122.801105 6.750685
v    22.896116 124.903625 8.924028
v    25.110916 127.053089 9.913304
v    26.908238 128.663933 10.683819
v    28.679526 129.911349 10.659690
v    21.842266 119.872768 5.416505
v    22.688346 121.032748 6.750685
v    24.478643 123.517781 8.924028
v    26.317095 125.996818 9.913304
v    27.676718 127.990962 10.683819
v    28.679526 129.911349 10.659690
v    20.666863 120.425773 6.001020
v    19.297838 120.364634 6.001020
v    20.035299 119.209593 6.001020
v    19.333137 119.574227 9.607000
v    20.702162 119.635366 9.607000
v    19.964701 120.790407 9.607000
v    20.127546 118.333009 8.077080
v    18.220993 117.422480 10.676927
v    16.791119 116.706586 12.116977
v    15.429793 116.109160 13.446990
v    14.183779 115.521937 14.111148
v    11.905412 114.831837 15.225211
v    18.541465 120.817193 8.077080
v    16.913180 119.470829 10.676927
v    15.662051 118.474978 12.116977
v    14.547235 117.491458 13.446990
v    13.490199 116.608250 14.111148
v    11.905412 114.831837 15.225211
mtllib usm_4_2.5D_2018-07-19_1.mtl
usemtl APPID_1857652176_2531593534352 
o vid_3 
f 3 2 1
f 4 5 6
f 1 6 5
f 1 5 3
f 3 5 4
f 4 2 3
f 2 4 6
f 6 1 2
usemtl APPID_1857654528_2531593535120 
o vid_4 
f 7 14 15
f 8 15 16
f 9 16 17
f 10 17 18
f 11 18 19
f 7 15 8
f 8 16 9
f 9 17 10
f 10 18 11
f 11 19 12
f 12 19 20
usemtl APPID_1857652176_2531593534352 
o vid_5 
f 23 22 21
f 24 25 26
f 21 26 25
f 21 25 23
f 23 25 24
f 24 22 23
f 22 24 26
f 26 21 22
usemtl APPID_1857654528_2531593535120 
o vid_6 
f 27 34 35
f 28 35 36
f 29 36 37
f 30 37 38
f 31 38 39
f 27 35 28
f 28 36 29
f 29 37 30
f 30 38 31
f 31 39 32
f 32 39 40
usemtl APPID_1857652176_2531593534352 
o vid_7 
f 43 42 41
f 44 45 46
f 41 46 45
f 41 45 43
f 43 45 44
f 44 42 43
f 42 44 46
f 46 41 42
usemtl APPID_1857654528_2531593535120 
o vid_8 
f 47 54 55
f 48 55 56
f 49 56 57
f 50 57 58
f 51 58 59
f 47 55 48
f 48 56 49
f 49 57 50
f 50 58 51
f 51 59 52
f 52 59 60
usemtl APPID_1857652176_2531593534352 
o vid_9 
f 63 62 61
f 64 65 66
f 61 66 65
f 61 65 63
f 63 65 64
f 64 62 63
f 62 64 66
f 66 61 62
usemtl APPID_1857654528_2531593535120 
o vid_10 
f 67 75 76
f 68 76 77
f 69 77 78
f 70 78 79
f 71 79 80
f 72 80 81
f 67 76 68
f 68 77 69
f 69 78 70
f 70 79 71
f 71 80 72
f 72 81 73
f 73 81 82
usemtl APPID_1857652176_2531593534352 
o vid_11 
f 85 84 83
f 86 87 88
f 83 88 87
f 83 87 85
f 85 87 86
f 86 84 85
f 84 86 88
f 88 83 84
usemtl APPID_1857654528_2531593535120 
o vid_12 
f 89 95 96
f 90 96 97
f 91 97 98
f 92 98 99
f 89 96 90
f 90 97 91
f 91 98 92
f 92 99 93
f 93 99 100
usemtl APPID_1857652176_2531593534352 
o vid_13 
f 103 102 101
f 104 105 106
f 101 106 105
f 101 105 103
f 103 105 104
f 104 102 103
f 102 104 106
f 106 101 102
usemtl APPID_1857654528_2531593535120 
o vid_14 
f 107 113 114
f 108 114 115
f 109 115 116
f 110 116 117
f 107 114 108
f 108 115 109
f 109 116 110
f 110 117 111
f 111 117 118
