# File generated by PlantGL - Fri Sep  4 14:41:18 2026
v    18.201987 39.124129 0.000000
v    21.657533 38.880811 0.000000
v    20.140480 41.995060 0.000000
v    21.798013 40.875871 0.231332
v    18.342467 41.119189 0.231332
v    19.859520 38.004940 0.231332
v    21.514455 41.248526 -0.085763
v    22.436235 41.573097 0.837883
v    23.293069 41.864034 1.403329
v    23.538269 41.911287 1.555212
v    24.257812 42.074120 1.737101
v    21.916655 40.422880 -0.085763
v    22.740434 40.948628 0.837883
v    23.497696 41.443970 1.403329
v    23.686051 41.607916 1.555212
v    24.257812 42.074120 1.737101
v    21.503548 41.204422 0.231332
v    18.205166 40.699900 0.231332
v    20.291286 38.095678 0.231332
v    18.496452 38.795578 0.322957
v    21.794834 39.300100 0.322957
v    19.708714 41.904322 0.322957
v    18.981697 38.396126 -0.122956
v    17.974857 37.763993 1.000662
v    17.813752 37.670474 1.175914
v    16.993862 37.170975 1.775671
v    16.377840 36.901430 2.184652
v    15.770857 36.612231 2.350422
v    18.212540 39.356308 -0.122956
v    17.375894 38.511711 1.000662
v    17.249468 38.374902 1.175914
v    16.583062 37.683799 1.775671
v    16.185563 37.141459 2.184652
v    15.770857 36.612231 2.350422
v    18.272844 39.328938 0.322957
v    21.444735 38.839770 0.322957
v    20.282421 41.831292 0.322957
v    21.727156 40.671062 0.466906
v    18.555265 41.160230 0.466906
v    19.717579 38.168708 0.466906
v    21.291521 41.302351 -0.146515
v    22.028690 41.495173 0.573657
v    23.134817 41.743858 1.640276
v    23.425009 41.815605 1.827019
v    25.153844 42.002453 2.884671
v    21.832012 39.911254 -0.146515
v    22.505991 40.266713 0.573657
v    23.489858 40.830066 1.640276
v    23.752367 40.973063 1.827019
v    25.153844 42.002453 2.884671
v    21.671108 40.395310 0.466906
v    18.822098 41.249567 0.466906
v    19.506795 38.355123 0.466906
v    18.328892 39.604690 0.679271
v    21.177902 38.750433 0.679271
v    20.493205 41.644877 0.679271
v    18.784951 38.714023 -0.146223
v    18.048103 38.627012 0.555044
v    16.243875 38.477190 2.258301
v    13.834565 38.541531 3.725781
v    18.337561 40.605291 -0.146223
v    17.639824 40.352942 0.555044
v    15.959694 39.678519 2.258301
v    13.834565 38.541531 3.725781
v    19.091025 38.962020 0.679271
v    21.353404 39.731794 0.679271
v    19.555571 41.306185 0.679271
v    20.908975 41.037980 0.920461
v    18.646596 40.268206 0.920461
v    20.444429 38.693815 0.920461
v    19.719625 41.661684 -0.166258
v    20.613982 42.473105 0.975093
v    22.256552 43.862598 2.999170
v    22.528742 44.102948 3.226014
v    25.090866 45.813376 5.099721
v    21.684149 39.941318 -0.166258
v    22.370476 40.934916 0.975093
v    23.531101 42.746455 2.999170
v    23.733437 43.047978 3.226014
v    25.090866 45.813376 5.099721
v    20.897808 40.573225 0.920461
v    19.054669 40.490912 0.920461
v    20.047523 38.935863 0.920461
v    19.102192 39.426775 1.433330
v    20.945331 39.509088 1.433330
v    19.952477 41.064137 1.433330
v    20.251645 38.378686 0.033845
v    17.362344 37.092590 3.009223
v    16.191105 36.776420 4.110308
v    13.742381 36.004689 5.671910
v    18.635124 40.910548 0.033845
v    16.252592 38.830729 3.009223
v    15.472908 37.901290 4.110308
v    13.742381 36.004689 5.671910
v    19.372306 39.547745 1.433330
v    20.705511 39.682529 1.433330
v    19.922183 40.769726 1.433330
v    20.627694 40.452255 2.098718
v    19.294489 40.317471 2.098718
v    20.077817 39.230274 2.098718
v    19.119374 41.673301 0.335658
v    22.544745 43.434515 3.959263
v    24.126078 43.958175 5.471153
v    27.003219 45.045836 7.341986
v    21.308493 38.634978 0.335658
v    24.063434 41.326694 3.959263
v    25.060736 42.660946 5.471153
v    27.003219 45.045836 7.341986
v    20.423236 40.275639 2.098718
v    19.549672 40.228713 2.098718
v    20.027093 39.495648 2.098718
v    19.576764 39.724361 2.332000
v    20.450328 39.771287 2.332000
v    19.972907 40.504352 2.332000
v    20.619175 38.899139 -2.093268
v    17.965218 38.674814 2.918951
v    19.243509 41.011432 -2.093268
v    17.965218 38.674814 2.918951
mtllib usm_4_Beer_2018-07-28_0.mtl
usemtl APPID_1763757008_2531587837280 
o vid_3 
f 3 2 1
f 4 5 6
f 1 6 5
f 1 5 3
f 3 5 4
f 4 2 3
f 2 4 6
f 6 1 2
usemtl APPID_1763756112_2531587839712 
o vid_4 
f 7 12 13
f 8 13 14
f 9 14 15
f 7 13 8
f 8 14 9
f 9 15 10
f 10 15 16
usemtl APPID_1763757008_2531587837280 
o vid_5 
f 19 18 17
f 20 21 22
f 17 22 21
f 17 21 19
f 19 21 20
f 20 18 19
f 18 20 22
f 22 17 18
usemtl APPID_1763756112_2531587839712 
o vid_6 
f 23 29 30
f 24 30 31
f 25 31 32
f 26 32 33
f 23 30 24
f 24 31 25
f 25 32 26
f 26 33 27
f 27 33 34
usemtl APPID_1763757008_2531587837280 
o vid_7 
f 37 36 35
f 38 39 40
f 35 40 39
f 35 39 37
f 37 39 38
f 38 36 37
f 36 38 40
f 40 35 36
usemtl APPID_1763756112_2531587839712 
o vid_8 
f 41 46 47
f 42 47 48
f 43 48 49
f 41 47 42
f 42 48 43
f 43 49 44
f 44 49 50
usemtl APPID_1763757008_2531587837280 
o vid_9 
f 53 52 51
f 54 55 56
f 51 56 55
f 51 55 53
f 53 55 54
f 54 52 53
f 52 54 56
f 56 51 52
usemtl APPID_1763756112_2531587839712 
o vid_10 
f 57 61 62
f 58 62 63
f 57 62 58
f 58 63 59
f 59 63 64
usemtl APPID_1763757008_2531587837280 
o vid_11 
f 67 66 65
f 68 69 70
f 65 70 69
f 65 69 67
f 67 69 68
f 68 66 67
f 66 68 70
f 70 65 66
usemtl APPID_1763756112_2531587839712 
o vid_12 
f 71 76 77
f 72 77 78
f 73 78 79
f 71 77 72
f 72 78 73
f 73 79 74
f 74 79 80
usemtl APPID_1763757008_2531587837280 
o vid_13 
f 83 82 81
f 84 85 86
f 81 86 85
f 81 85 83
f 83 85 84
f 84 82 83
f 82 84 86
f 86 81 82
usemtl APPID_1763756112_2531587839712 
o vid_14 
f 87 91 92
f 88 92 93
f 87 92 88
f 88 93 89
f 89 93 94
usemtl APPID_1763757008_2531587837280 
o vid_15 
f 97 96 95
f 98 99 100
f 95 100 99
f 95 99 97
f 97 99 98
f 98 96 97
f 96 98 100
f 100 95 96
usemtl APPID_1763756112_2531587839712 
o vid_16 
f 101 105 106
f 102 106 107
f 101 106 102
f 102 107 103
f 103 107 108
usemtl APPID_1763757008_2531587837280 
o vid_17 
f 111 110 109
f 112 113 114
f 109 114 113
f 109 113 111
f 111 113 112
f 112 110 111
f 110 112 114
f 114 109 110
usemtl APPID_1763756112_2531587839712 
o vid_18 
f 115 117 118
f 115 118 116
f 115 117 118
