# File generated by PlantGL - Wed Jul 15 17:34:44 2026
v    21.436225 139.481888 0.000000
v    23.480316 139.337955 0.000000
v    22.582919 141.180157 0.000000
v    23.563415 140.518112 3.803278
v    21.519324 140.662045 3.803278
v    22.416721 138.819843 3.803278
v    23.176885 141.141242 3.561434
v    24.004824 141.459241 4.340248
v    25.256465 141.956401 5.121910
v    26.513343 142.450540 5.483169
v    27.138499 142.697641 5.478007
v    27.760940 142.925981 5.472927
v    28.320929 143.128666 5.297640
v    28.893009 143.310168 5.121881
v    29.437130 143.396442 4.965905
v    29.485066 143.402742 4.940519
v    23.815809 139.829640 3.561434
v    24.576569 140.285548 4.340248
v    25.739581 140.964645 5.121910
v    26.903444 141.649728 5.483169
v    27.483377 141.989666 5.478007
v    28.046863 142.339030 5.472927
v    28.551652 142.655032 5.297640
v    29.047213 142.993613 5.121881
v    29.450556 143.368880 4.965905
v    29.485066 143.402742 4.940519
v    23.150968 140.521604 3.803278
v    21.722524 140.303108 3.803278
v    22.625968 139.175287 3.803278
v    21.848672 139.478396 7.264036
v    23.277116 139.696892 7.264036
v    22.373672 140.824713 7.264036
v    22.580270 138.747305 6.894757
v    21.454064 137.995212 8.083951
v    20.591349 137.404773 8.690711
v    19.748352 136.844622 9.277492
v    18.278098 135.847825 9.752612
v    16.639536 134.790237 9.816363
v    15.836462 134.317851 9.651697
v    14.980522 133.976642 9.390820
v    21.294886 140.351923 6.894757
v    20.315120 139.417020 8.083951
v    19.550620 138.703974 8.690711
v    18.819982 138.003559 9.277492
v    17.526320 136.786312 9.752612
v    16.136597 135.418083 9.816363
v    15.500322 134.737474 9.651697
v    14.980522 133.976642 9.390820
v    22.022976 139.814729 7.264036
v    22.898692 139.679676 7.264036
v    22.577793 140.505595 7.264036
v    22.976664 140.185271 8.196000
v    22.100948 140.320324 8.196000
v    22.421847 139.494405 8.196000
v    22.730502 140.969379 7.128944
v    23.119881 140.876003 9.339390
v    23.197502 140.843794 9.746963
v    23.554759 140.834344 10.669411
v    24.122301 140.630392 11.943308
v    23.324467 139.440654 7.128944
v    23.548661 139.772425 9.339390
v    23.584174 139.848591 9.746963
v    23.841335 140.096764 10.669411
v    24.122301 140.630392 11.943308
mtllib usm_20_Beer_2018-07-19_3.mtl
usemtl APPID_3663592016_1579940102784 
o vid_3 
f 3 2 1
f 4 5 6
f 1 6 5
f 1 5 3
f 3 5 4
f 4 2 3
f 2 4 6
f 6 1 2
usemtl APPID_3663590784_1579940109184 
o vid_4 
f 7 17 18
f 8 18 19
f 9 19 20
f 10 20 21
f 11 21 22
f 12 22 23
f 13 23 24
f 14 24 25
f 7 18 8
f 8 19 9
f 9 20 10
f 10 21 11
f 11 22 12
f 12 23 13
f 13 24 14
f 14 25 15
f 15 25 26
usemtl APPID_3663592016_1579940102784 
o vid_5 
f 29 28 27
f 30 31 32
f 27 32 31
f 27 31 29
f 29 31 30
f 30 28 29
f 28 30 32
f 32 27 28
usemtl APPID_3663590784_1579940109184 
o vid_6 
f 33 41 42
f 34 42 43
f 35 43 44
f 36 44 45
f 37 45 46
f 38 46 47
f 33 42 34
f 34 43 35
f 35 44 36
f 36 45 37
f 37 46 38
f 38 47 39
f 39 47 48
usemtl APPID_3663592016_1579940102784 
o vid_7 
f 51 50 49
f 52 53 54
f 49 54 53
f 49 53 51
f 51 53 52
f 52 50 51
f 50 52 54
f 54 49 50
usemtl APPID_3663590784_1579940109184 
o vid_8 
f 55 60 61
f 56 61 62
f 57 62 63
f 55 61 56
f 56 62 57
f 57 63 58
f 58 63 64
