# File generated by PlantGL - Fri Sep  4 14:43:37 2026
v    18.201987 99.124129 0.000000
v    21.657533 98.880811 0.000000
v    20.140480 101.995060 0.000000
v    21.798013 100.875871 0.231332
v    18.342467 101.119189 0.231332
v    19.859520 98.004940 0.231332
v    20.990308 100.834410 -2.341808
v    22.033906 100.990782 -1.384049
v    21.267477 100.265431 -2.341808
v    22.033906 100.990782 -1.384049
v    21.503548 101.204422 0.231332
v    18.205166 100.699900 0.231332
v    20.291286 98.095678 0.231332
v    18.496452 98.795578 0.322458
v    21.794834 99.300100 0.322458
v    19.708714 101.904322 0.322458
v    19.332015 98.942986 -2.250682
v    18.065988 98.450753 -1.017822
v    18.822675 99.578823 -2.250682
v    18.065988 98.450753 -1.017822
v    18.299213 99.339183 0.322458
v    21.422678 98.857484 0.322458
v    20.278109 101.803333 0.322458
v    21.700787 100.660817 0.466406
v    18.577322 101.142516 0.466406
v    19.721891 98.196667 0.466406
v    20.801588 100.920006 -2.106734
v    22.689047 101.044791 -0.389909
v    21.212459 99.862523 -2.106734
v    22.689047 101.044791 -0.389909
v    21.434619 100.339367 0.466406
v    18.988790 101.072733 0.466406
v    19.576591 98.587900 0.466406
v    18.565381 99.660633 0.678771
v    21.011210 98.927267 0.678771
v    20.423409 101.412100 0.678771
v    19.475066 99.048282 -1.894369
v    16.796628 99.242224 0.542986
v    19.104295 100.615658 -1.894369
v    16.796628 99.242224 0.542986
v    19.244510 99.137289 0.678771
v    21.124875 99.777082 0.678771
v    19.630615 101.085629 0.678771
v    20.755490 100.862711 0.903326
v    18.875125 100.222918 0.903326
v    20.369385 98.914371 0.903326
v    19.336074 101.116378 -1.669813
v    22.853361 103.258318 2.067887
v    21.194216 99.489173 -1.669813
v    22.853361 103.258318 2.067887
v    20.709909 100.453257 0.903326
v    19.252514 100.388171 0.903326
v    20.037577 99.158573 0.903326
v    19.290091 99.546743 1.432322
v    20.747486 99.611829 1.432322
v    19.962423 100.841427 1.432322
v    20.848789 98.488526 -1.140818
v    15.276875 96.984419 4.097352
v    18.986050 101.406024 -1.140818
v    15.276875 96.984419 4.097352
v    19.545032 99.672195 1.432322
v    20.511371 99.769889 1.432322
v    19.943596 100.557916 1.432322
v    20.454968 100.327805 1.617000
v    19.488629 100.230111 1.617000
v    20.056404 99.442084 1.617000
v    19.355331 100.558946 -3.634731
v    21.345094 100.969143 -0.495400
v    20.326134 99.211548 -3.634731
v    21.345094 100.969143 -0.495400
mtllib usm_12_2.5D_2018-07-25_2.mtl
usemtl APPID_3394663376_2314290323968 
o vid_3 
f 3 2 1
f 4 5 6
f 1 6 5
f 1 5 3
f 3 5 4
f 4 2 3
f 2 4 6
f 6 1 2
usemtl APPID_3394665280_2314290320512 
o vid_4 
f 7 9 10
f 7 10 8
f 7 9 10
usemtl APPID_3394663376_2314290323968 
o vid_5 
f 13 12 11
f 14 15 16
f 11 16 15
f 11 15 13
f 13 15 14
f 14 12 13
f 12 14 16
f 16 11 12
usemtl APPID_3394665280_2314290320512 
o vid_6 
f 17 19 20
f 17 20 18
f 17 19 20
usemtl APPID_3394663376_2314290323968 
o vid_7 
f 23 22 21
f 24 25 26
f 21 26 25
f 21 25 23
f 23 25 24
f 24 22 23
f 22 24 26
f 26 21 22
usemtl APPID_3394665280_2314290320512 
o vid_8 
f 27 29 30
f 27 30 28
f 27 29 30
usemtl APPID_3394663376_2314290323968 
o vid_9 
f 33 32 31
f 34 35 36
f 31 36 35
f 31 35 33
f 33 35 34
f 34 32 33
f 32 34 36
f 36 31 32
usemtl APPID_3394665280_2314290320512 
o vid_10 
f 37 39 40
f 37 40 38
f 37 39 40
usemtl APPID_3394663376_2314290323968 
o vid_11 
f 43 42 41
f 44 45 46
f 41 46 45
f 41 45 43
f 43 45 44
f 44 42 43
f 42 44 46
f 46 41 42
usemtl APPID_3394665280_2314290320512 
o vid_12 
f 47 49 50
f 47 50 48
f 47 49 50
usemtl APPID_3394663376_2314290323968 
o vid_13 
f 53 52 51
f 54 55 56
f 51 56 55
f 51 55 53
f 53 55 54
f 54 52 53
f 52 54 56
f 56 51 52
usemtl APPID_3394665280_2314290320512 
o vid_14 
f 57 59 60
f 57 60 58
f 57 59 60
usemtl APPID_3394663376_2314290323968 
o vid_15 
f 63 62 61
f 64 65 66
f 61 66 65
f 61 65 63
f 63 65 64
f 64 62 63
f 62 64 66
f 66 61 62
usemtl APPID_3394665280_2314290320512 
o vid_16 
f 67 69 70
f 67 70 68
f 67 69 70
