# File generated by PlantGL - Fri Sep  4 14:44:21 2026
v    17.752484 258.905161 0.000000
v    22.071916 258.601013 0.000000
v    20.175600 262.493825 0.000000
v    22.247516 261.094839 0.848509
v    17.928084 261.398987 0.848509
v    19.824400 257.506175 0.848509
v    22.074151 261.428408 0.712486
v    22.462129 261.576327 1.098328
v    22.403306 260.752709 0.712486
v    22.758939 260.967026 1.098328
v    21.879284 261.505407 0.848509
v    17.756638 260.874804 0.848509
v    20.364078 257.619789 0.848509
v    18.120716 258.494593 1.417165
v    22.243362 259.125196 1.417165
v    19.635922 262.380211 1.417165
v    18.474463 258.075510 1.221241
v    18.175273 257.876772 1.555011
v    17.788945 258.931281 1.221241
v    17.529697 258.682680 1.555011
v    17.841416 259.161313 1.417165
v    21.805616 258.549955 1.417165
v    20.352968 262.288732 1.417165
v    22.158584 260.838687 2.253766
v    18.194384 261.450045 2.253766
v    19.647032 257.711268 2.253766
v    21.884467 261.489362 1.977387
v    22.277259 261.602962 2.357347
v    22.395677 260.173628 1.977387
v    22.762129 260.355021 2.357347
v    22.163962 260.511898 2.253766
v    18.474702 261.618097 2.253766
v    19.361335 257.870005 2.253766
v    17.836038 259.488102 4.112548
v    21.525298 258.381903 4.112548
v    20.638665 262.129995 4.112548
v    18.092464 258.523291 3.730721
v    16.881003 258.348575 4.868118
v    16.725367 258.324473 4.974262
v    16.187894 258.249214 5.339576
v    17.633012 260.465546 3.730721
v    16.471670 260.078961 4.868118
v    16.321731 260.030777 4.974262
v    15.807503 259.857251 5.339576
v    18.595695 258.396392 4.112548
v    22.090917 259.585640 4.112548
v    19.313387 262.017967 4.112548
v    21.404305 261.603608 5.999272
v    17.909083 260.414360 5.999272
v    20.686613 257.982033 5.999272
v    20.322641 262.501493 5.482651
v    21.520176 263.645419 7.021579
v    22.174401 264.283510 7.637500
v    23.193831 265.249320 8.582757
v    25.007428 267.009417 9.392830
v    22.437055 260.649867 5.482651
v    23.412978 261.987862 7.021579
v    23.959172 262.720557 7.637500
v    24.782036 263.858504 8.582757
v    26.287459 265.888474 9.392830
v    21.718982 261.097521 5.999272
v    18.190028 260.939922 5.999272
v    20.090990 257.962557 5.999272
v    18.281018 258.902479 11.505015
v    21.809972 259.060078 11.505015
v    19.909010 262.037443 11.505015
v    19.264432 257.453626 10.820438
v    17.482886 256.528005 12.686052
v    14.582420 255.038737 14.928406
v    11.032008 253.158214 16.216208
v    17.380527 260.404275 10.820438
v    15.791155 259.177662 12.686052
v    13.219618 257.173213 14.928406
v    10.019650 254.743810 16.216208
v    18.420020 258.861621 11.505015
v    21.775855 259.200887 11.505015
v    19.804125 261.937492 11.505015
v    21.579980 261.138379 19.658889
v    18.224145 260.799113 19.658889
v    20.195875 258.062508 19.658889
v    20.075274 263.117586 18.770471
v    22.524833 264.570317 21.416921
v    24.616666 265.840508 23.066296
v    25.942837 266.619652 24.101634
v    33.086282 270.932986 26.776381
v    35.305739 272.173485 26.747433
v    22.981096 259.084535 18.770471
v    25.134527 260.948270 21.416921
v    27.001566 262.530456 23.066296
v    28.160441 263.541793 24.101634
v    34.513214 268.952516 26.776381
v    36.392489 270.665162 26.747433
v    21.554633 261.012481 19.658889
v    18.345849 260.840111 19.658889
v    20.099518 258.147408 19.658889
v    18.445367 258.987519 30.873903
v    21.654151 259.159889 30.873903
v    19.900482 261.852592 30.873903
v    20.202866 256.437610 29.744739
v    17.006060 254.739811 33.108328
v    14.979483 253.636319 34.663522
v    12.537661 252.352330 36.520550
v    3.993846 247.727633 39.634586
v    -0.053401 245.717148 39.878837
v    16.823848 261.625988 29.744739
v    13.978410 259.388674 33.108328
v    12.149708 257.981352 34.663522
v    9.988018 256.267227 36.520550
v    2.303572 250.322997 39.634586
v    -1.171725 247.434300 39.878837
v    18.458123 259.144816 30.873903
v    21.511550 259.092287 30.873903
v    20.030327 261.762897 30.873903
v    21.541877 260.855184 48.397355
v    18.488450 260.907713 48.397355
v    19.969673 258.237103 48.397355
v    19.472744 264.377553 46.991824
v    23.591638 266.203827 51.178667
v    28.872663 268.611456 55.090326
v    41.355325 274.258297 59.657655
v    43.513927 275.246031 59.630531
v    49.499450 277.715622 59.556815
v    50.087084 277.869972 59.503420
v    23.434367 257.234843 46.991824
v    27.164543 259.761965 51.178667
v    32.003230 262.967119 55.090326
v    43.402997 270.566393 59.657655
v    45.383869 271.874570 59.630531
v    50.648145 275.644553 59.556815
v    51.090230 276.061323 59.503420
v    21.614895 260.429572 48.397355
v    18.820532 261.183754 48.397355
v    19.564573 258.386674 48.397355
v    18.385105 259.570428 69.758548
v    21.179468 258.816246 69.758548
v    20.435427 261.613326 69.758548
v    19.793134 254.756161 68.045109
v    14.380618 253.821517 73.149157
v    6.967466 252.462291 78.228644
v    -9.013782 249.574907 83.485625
v    -12.406968 248.947883 83.446197
v    -20.049283 247.832665 83.358270
v    -22.720512 247.787897 82.884017
v    17.215046 264.447996 68.045109
v    12.053501 262.569875 73.149157
v    4.944782 260.066194 78.228644
v    -10.358892 254.631596 83.485625
v    -13.615153 253.489826 83.446197
v    -20.801511 250.660526 83.358270
v    -23.141936 249.372163 82.884017
v    18.541706 259.394647 69.758548
v    21.253398 259.039757 69.758548
v    20.204896 261.565597 69.758548
v    21.458294 260.605353 89.607729
v    18.746602 260.960243 89.607729
v    19.795104 258.434403 89.607729
v    19.234428 265.579227 87.562032
v    25.490677 267.544783 93.655820
v    27.501402 268.199571 95.081021
v    34.251771 270.289914 99.837714
v    48.741583 274.968684 104.718306
v    52.597959 276.046940 105.996659
v    57.617926 277.481667 105.937220
v    61.954805 278.118251 105.888518
v    23.410631 255.518764 87.562032
v    29.219674 258.561636 93.655820
v    31.103007 259.523312 95.081021
v    37.349284 262.828012 99.837714
v    50.892885 269.786203 104.718306
v    54.379186 271.755968 105.996659
v    58.939459 274.298098 105.937220
v    62.452219 276.919980 105.888518
v    21.148136 260.944713 89.607729
v    18.607786 260.521958 89.607729
v    20.244078 258.533328 89.607729
v    18.851864 259.055287 113.503741
v    21.392214 259.478042 113.503741
v    19.755922 261.466672 113.503741
v    22.903646 254.401559 111.111757
v    16.629051 250.113950 118.173699
v    7.680965 244.054299 125.465414
v    -4.532272 235.565942 130.232804
v    -10.960923 231.466389 132.666918
v    -13.494676 229.830074 132.632580
v    -19.495695 226.999172 132.558858
v    15.065533 263.927435 111.111757
v    9.649828 258.595993 118.173699
v    1.980395 250.982361 125.465414
v    -8.701083 240.632414 130.232804
v    -13.961921 235.113584 132.666918
v    -16.055553 232.942379 132.632580
v    -19.989133 227.598861 132.558858
v    19.111104 259.069968 113.503741
v    21.249879 259.695210 113.503741
v    19.639017 261.234822 113.503741
v    20.888896 260.930032 130.408186
v    18.750121 260.304790 130.408186
v    20.360983 258.765178 130.408186
v    15.787239 265.533767 127.669013
v    20.691582 269.826155 133.725355
v    22.421729 271.290966 135.828551
v    31.708512 279.351774 144.106064
v    42.311278 288.780921 148.654106
v    51.267525 296.130571 152.352847
v    59.239432 301.203212 152.247694
v    25.718560 256.041717 127.669013
v    29.784843 261.135098 133.725355
v    31.169940 262.929697 135.828551
v    38.802668 272.571401 144.106064
v    47.742842 283.589600 148.654106
v    54.680082 292.868955 152.352847
v    59.387141 301.062037 152.247694
v    20.698967 260.712370 130.408186
v    19.033586 260.249139 130.408186
v    20.267447 259.038492 130.408186
v    19.301033 259.287630 146.719517
v    20.966414 259.750861 146.719517
v    19.732553 260.961508 146.719517
v    25.089214 253.917606 143.647488
v    17.910203 247.798787 152.412939
v    7.056542 238.631455 162.081916
v    -7.060640 226.404694 168.068156
v    -15.045311 220.025729 171.330821
v    -17.708756 217.872730 171.291830
v    -26.723138 212.380967 171.174552
v    13.822055 264.972787 143.647488
v    7.840675 257.678870 152.412939
v    -1.118886 246.653071 162.081916
v    -13.075345 232.306240 168.068156
v    -19.301525 224.201868 171.330821
v    -21.403555 221.498016 171.291830
v    -26.723138 212.380967 171.174552
v    19.505338 259.451916 146.719517
v    20.721986 259.845652 146.719517
v    19.772676 260.702432 146.719517
v    20.494662 260.548084 158.181033
v    19.278014 260.154348 158.181033
v    20.227324 259.297568 158.181033
v    14.001099 266.082102 154.806797
v    20.440402 272.051311 162.966019
v    33.110071 283.665475 175.054689
v    46.546022 296.319922 180.970762
v    56.574317 305.040510 185.213444
v    67.412864 312.533347 185.066472
v    26.663325 254.654078 154.806797
v    31.943205 261.669698 162.966019
v    42.201764 275.459959 175.054689
v    53.416848 290.118803 180.970762
v    61.066920 300.985806 185.213444
v    67.412864 312.533347 185.066472
v    20.498022 260.096951 158.181033
v    19.667026 260.382824 158.181033
v    19.834951 259.520224 158.181033
v    19.501978 259.903049 163.705897
v    20.332974 259.617176 163.705897
v    20.165049 260.479776 163.705897
v    21.247831 252.299844 160.076203
v    9.637594 251.289560 170.888453
v    -6.577532 249.677318 181.857031
v    -23.397037 248.436378 187.242622
v    -35.280380 249.238404 190.944494
v    18.268149 267.605930 160.076203
v    7.126793 264.187095 170.888453
v    -8.508981 259.598827 181.857031
v    -24.565712 254.439652 187.242622
v    -35.280380 249.238404 190.944494
v    19.764553 259.805764 163.705897
v    20.285937 259.893215 163.705897
v    19.949510 260.301021 163.705897
v    20.235447 260.194236 164.801000
v    19.714063 260.106785 164.801000
v    20.050490 259.698979 164.801000
v    18.034000 265.398821 157.640778
v    18.537387 265.592101 159.793167
v    22.185420 266.431066 173.886674
v    23.290242 266.890754 176.675785
v    29.071547 267.483737 188.460505
v    24.926723 257.043682 157.640778
v    25.212159 257.501155 159.793167
v    26.729214 260.923223 173.886674
v    27.390517 261.920531 176.675785
v    29.071547 267.483737 188.460505
v    22.462129 261.576327 1.098328
v    22.774214 261.698815 1.329598
v    23.051065 261.803065 1.528727
v    24.180316 262.243880 1.917291
v    24.768496 262.450363 1.931902
v    25.099857 262.519461 1.928141
v    25.224206 262.544882 1.905659
v    22.758939 260.967026 1.098328
v    23.047765 261.137262 1.329598
v    23.300511 261.290995 1.528727
v    24.343713 261.908454 1.917291
v    24.868870 262.244313 1.931902
v    25.127537 262.462638 1.928141
v    25.224206 262.544882 1.905659
v    18.175273 257.876772 1.555011
v    17.951303 257.728000 1.804865
v    17.503511 257.423790 2.169717
v    17.221576 257.238180 2.396928
v    15.696795 256.207841 2.986792
v    14.925749 255.723761 2.976427
v    14.581997 255.567081 2.972230
v    14.316817 255.447468 2.920698
v    17.529697 258.682680 1.555011
v    17.335629 258.496581 1.804865
v    16.941018 258.125982 2.169717
v    16.698348 257.891355 2.396928
v    15.360052 256.628217 2.986792
v    14.719354 255.981415 2.976427
v    14.491425 255.680148 2.972230
v    14.316817 255.447468 2.920698
v    22.277259 261.602962 2.357347
v    22.653474 261.711768 2.721273
v    23.929396 262.074007 3.635862
v    25.479703 262.535714 4.154356
v    26.431519 262.778510 4.467951
v    27.608283 262.956091 4.454643
v    22.762129 260.355021 2.357347
v    23.113116 260.528759 2.721273
v    24.298903 261.122982 3.635862
v    25.754255 261.829082 4.154356
v    26.620314 262.292595 4.467951
v    27.608283 262.956091 4.454643
v    16.187894 258.249214 5.339576
v    15.183928 258.108634 6.021961
v    12.643856 257.721742 6.845528
v    11.629066 257.608161 7.171520
v    10.946619 257.527807 7.163697
v    9.634818 257.548056 7.149120
v    15.807503 259.857251 5.339576
v    14.846959 259.533115 6.021961
v    12.402757 258.740948 6.845528
v    11.444632 258.387825 7.171520
v    10.798513 258.153899 7.163697
v    9.634818 257.548056 7.149120
v    25.007428 267.009417 9.392830
v    26.266555 268.231400 9.955240
v    26.693193 268.613773 10.138140
v    28.010849 269.808431 10.117891
v    29.355546 270.735988 10.099741
v    29.470583 270.814675 10.075053
v    26.287459 265.888474 9.392830
v    27.332630 267.297821 9.955240
v    27.655370 267.771179 10.138140
v    28.665732 269.234939 10.117891
v    29.407762 270.690262 10.099741
v    29.470583 270.814675 10.075053
v    11.032008 253.158214 16.216208
v    8.848773 252.109633 16.989453
v    8.278951 251.832163 16.982237
v    6.046525 251.091104 16.956102
v    10.019650 254.743810 16.216208
v    8.149700 253.204548 16.989453
v    7.658207 252.804399 16.982237
v    6.046525 251.091104 16.956102
v    35.305739 272.173485 26.747433
v    36.682285 272.942154 26.729483
v    38.283888 273.575609 26.710347
v    39.503924 274.052623 26.478299
v    36.392489 270.665162 26.747433
v    37.557374 271.727601 26.729483
v    38.665240 273.046324 26.710347
v    39.503924 274.052623 26.478299
v    -0.053401 245.717148 39.878837
v    -0.624725 245.432531 39.871570
v    -3.638888 244.401640 39.836176
v    -4.286595 244.182949 39.715078
v    -1.171725 247.434300 39.878837
v    -1.663051 247.026848 39.871570
v    -3.824680 244.686918 39.836176
v    -4.286595 244.182949 39.715078
v    50.087084 277.869972 59.503420
v    53.071616 278.647177 58.957110
v    54.080462 278.902337 58.647608
v    51.090230 276.061323 59.503420
v    53.329830 278.181623 58.957110
v    54.080462 278.902337 58.647608
v    -22.720512 247.787897 82.884017
v    -24.145354 247.776012 82.631612
v    -25.962768 247.773621 82.091072
v    -23.141936 249.372163 82.884017
v    -24.384367 248.674536 82.631612
v    -25.962768 247.773621 82.091072
v    61.954805 278.118251 105.888518
v    64.572425 278.502476 105.859123
v    62.452219 276.919980 105.888518
v    64.572425 278.502476 105.859123
v    -19.495695 226.999172 132.558858
v    -20.927963 226.323519 132.541263
v    -19.989133 227.598861 132.558858
v    -20.927963 226.323519 132.541263
v    59.239432 301.203212 152.247694
v    59.592383 301.424636 152.243065
v    59.387141 301.062037 152.247694
v    59.592383 301.424636 152.243065
mtllib usm_10_2.5D_2018-08-17_6.mtl
usemtl APPID_2913487584_1759648530272 
o vid_3 
f 3 2 1
f 4 5 6
f 1 6 5
f 1 5 3
f 3 5 4
f 4 2 3
f 2 4 6
f 6 1 2
usemtl APPID_2913487472_1759648530784 
o vid_4 
f 7 9 10
f 7 10 8
f 7 9 10
f 7 10 8
usemtl APPID_2913487584_1759648530272 
o vid_5 
f 13 12 11
f 14 15 16
f 11 16 15
f 11 15 13
f 13 15 14
f 14 12 13
f 12 14 16
f 16 11 12
usemtl APPID_2913487472_1759648530784 
o vid_6 
f 17 19 20
f 17 20 18
f 17 19 20
f 17 20 18
usemtl APPID_2913487584_1759648530272 
o vid_7 
f 23 22 21
f 24 25 26
f 21 26 25
f 21 25 23
f 23 25 24
f 24 22 23
f 22 24 26
f 26 21 22
usemtl APPID_2913487472_1759648530784 
o vid_8 
f 27 29 30
f 27 30 28
f 27 29 30
f 27 30 28
usemtl APPID_2913487584_1759648530272 
o vid_9 
f 33 32 31
f 34 35 36
f 31 36 35
f 31 35 33
f 33 35 34
f 34 32 33
f 32 34 36
f 36 31 32
usemtl APPID_2913487472_1759648530784 
o vid_10 
f 37 41 42
f 38 42 43
f 37 42 38
f 38 43 39
f 39 43 44
f 39 44 40
usemtl APPID_2913487584_1759648530272 
o vid_11 
f 47 46 45
f 48 49 50
f 45 50 49
f 45 49 47
f 47 49 48
f 48 46 47
f 46 48 50
f 50 45 46
usemtl APPID_2913487472_1759648530784 
o vid_12 
f 51 56 57
f 52 57 58
f 53 58 59
f 51 57 52
f 52 58 53
f 53 59 54
f 54 59 60
f 54 60 55
usemtl APPID_2913487584_1759648530272 
o vid_13 
f 63 62 61
f 64 65 66
f 61 66 65
f 61 65 63
f 63 65 64
f 64 62 63
f 62 64 66
f 66 61 62
usemtl APPID_2913487472_1759648530784 
o vid_14 
f 67 71 72
f 68 72 73
f 67 72 68
f 68 73 69
f 69 73 74
f 69 74 70
usemtl APPID_2913487584_1759648530272 
o vid_15 
f 77 76 75
f 78 79 80
f 75 80 79
f 75 79 77
f 77 79 78
f 78 76 77
f 76 78 80
f 80 75 76
usemtl APPID_2913487472_1759648530784 
o vid_16 
f 81 87 88
f 82 88 89
f 83 89 90
f 84 90 91
f 81 88 82
f 82 89 83
f 83 90 84
f 84 91 85
f 85 91 92
f 85 92 86
usemtl APPID_2913487584_1759648530272 
o vid_17 
f 95 94 93
f 96 97 98
f 93 98 97
f 93 97 95
f 95 97 96
f 96 94 95
f 94 96 98
f 98 93 94
usemtl APPID_2913487472_1759648530784 
o vid_18 
f 99 105 106
f 100 106 107
f 101 107 108
f 102 108 109
f 99 106 100
f 100 107 101
f 101 108 102
f 102 109 103
f 103 109 110
f 103 110 104
usemtl APPID_2913487584_1759648530272 
o vid_19 
f 113 112 111
f 114 115 116
f 111 116 115
f 111 115 113
f 113 115 114
f 114 112 113
f 112 114 116
f 116 111 112
usemtl APPID_2913487472_1759648530784 
o vid_20 
f 117 124 125
f 118 125 126
f 119 126 127
f 120 127 128
f 121 128 129
f 117 125 118
f 118 126 119
f 119 127 120
f 120 128 121
f 121 129 122
f 122 129 130
f 122 130 123
usemtl APPID_2913487584_1759648530272 
o vid_21 
f 133 132 131
f 134 135 136
f 131 136 135
f 131 135 133
f 133 135 134
f 134 132 133
f 132 134 136
f 136 131 132
usemtl APPID_2913487472_1759648530784 
o vid_22 
f 137 144 145
f 138 145 146
f 139 146 147
f 140 147 148
f 141 148 149
f 137 145 138
f 138 146 139
f 139 147 140
f 140 148 141
f 141 149 142
f 142 149 150
f 142 150 143
usemtl APPID_2913487584_1759648530272 
o vid_23 
f 153 152 151
f 154 155 156
f 151 156 155
f 151 155 153
f 153 155 154
f 154 152 153
f 152 154 156
f 156 151 152
usemtl APPID_2913487472_1759648530784 
o vid_24 
f 157 165 166
f 158 166 167
f 159 167 168
f 160 168 169
f 161 169 170
f 162 170 171
f 157 166 158
f 158 167 159
f 159 168 160
f 160 169 161
f 161 170 162
f 162 171 163
f 163 171 172
f 163 172 164
usemtl APPID_2913487584_1759648530272 
o vid_25 
f 175 174 173
f 176 177 178
f 173 178 177
f 173 177 175
f 175 177 176
f 176 174 175
f 174 176 178
f 178 173 174
usemtl APPID_2913487472_1759648530784 
o vid_26 
f 179 186 187
f 180 187 188
f 181 188 189
f 182 189 190
f 183 190 191
f 179 187 180
f 180 188 181
f 181 189 182
f 182 190 183
f 183 191 184
f 184 191 192
f 184 192 185
usemtl APPID_2913487584_1759648530272 
o vid_27 
f 195 194 193
f 196 197 198
f 193 198 197
f 193 197 195
f 195 197 196
f 196 194 195
f 194 196 198
f 198 193 194
usemtl APPID_2913487472_1759648530784 
o vid_28 
f 199 206 207
f 200 207 208
f 201 208 209
f 202 209 210
f 203 210 211
f 199 207 200
f 200 208 201
f 201 209 202
f 202 210 203
f 203 211 204
f 204 211 212
f 204 212 205
usemtl APPID_2913487584_1759648530272 
o vid_29 
f 215 214 213
f 216 217 218
f 213 218 217
f 213 217 215
f 215 217 216
f 216 214 215
f 214 216 218
f 218 213 214
usemtl APPID_2913487472_1759648530784 
o vid_30 
f 219 226 227
f 220 227 228
f 221 228 229
f 222 229 230
f 223 230 231
f 219 227 220
f 220 228 221
f 221 229 222
f 222 230 223
f 223 231 224
f 224 231 232
usemtl APPID_2913487584_1759648530272 
o vid_31 
f 235 234 233
f 236 237 238
f 233 238 237
f 233 237 235
f 235 237 236
f 236 234 235
f 234 236 238
f 238 233 234
usemtl APPID_2913487472_1759648530784 
o vid_32 
f 239 245 246
f 240 246 247
f 241 247 248
f 242 248 249
f 239 246 240
f 240 247 241
f 241 248 242
f 242 249 243
f 243 249 250
usemtl APPID_2913487584_1759648530272 
o vid_33 
f 253 252 251
f 254 255 256
f 251 256 255
f 251 255 253
f 253 255 254
f 254 252 253
f 252 254 256
f 256 251 252
usemtl APPID_2913487472_1759648530784 
o vid_34 
f 257 262 263
f 258 263 264
f 259 264 265
f 257 263 258
f 258 264 259
f 259 265 260
f 260 265 266
usemtl APPID_2913487584_1759648530272 
o vid_35 
f 269 268 267
f 270 271 272
f 267 272 271
f 267 271 269
f 269 271 270
f 270 268 269
f 268 270 272
f 272 267 268
usemtl APPID_2913487472_1759648530784 
o vid_36 
f 273 278 279
f 274 279 280
f 275 280 281
f 273 279 274
f 274 280 275
f 275 281 276
f 276 281 282
usemtl APPID_3007360176_1759648531936 
o vid_10000004 
f 283 290 291
f 284 291 292
f 285 292 293
f 286 293 294
f 287 294 295
f 283 291 284
f 284 292 285
f 285 293 286
f 286 294 287
f 287 295 288
f 288 295 296
usemtl APPID_3007360176_1759648531936 
o vid_10000006 
f 297 305 306
f 298 306 307
f 299 307 308
f 300 308 309
f 301 309 310
f 302 310 311
f 297 306 298
f 298 307 299
f 299 308 300
f 300 309 301
f 301 310 302
f 302 311 303
f 303 311 312
usemtl APPID_3007360176_1759648531936 
o vid_10000008 
f 313 319 320
f 314 320 321
f 315 321 322
f 316 322 323
f 313 320 314
f 314 321 315
f 315 322 316
f 316 323 317
f 317 323 324
usemtl APPID_3007360176_1759648531936 
o vid_10000010 
f 325 331 332
f 326 332 333
f 327 333 334
f 328 334 335
f 325 332 326
f 326 333 327
f 327 334 328
f 328 335 329
f 329 335 336
usemtl APPID_3007360176_1759648531936 
o vid_10000012 
f 337 343 344
f 338 344 345
f 339 345 346
f 340 346 347
f 337 344 338
f 338 345 339
f 339 346 340
f 340 347 341
f 341 347 348
usemtl APPID_3007360176_1759648531936 
o vid_10000014 
f 349 353 354
f 350 354 355
f 349 354 350
f 350 355 351
f 351 355 356
usemtl APPID_3007360176_1759648531936 
o vid_10000016 
f 357 361 362
f 358 362 363
f 357 362 358
f 358 363 359
f 359 363 364
usemtl APPID_3007360176_1759648531936 
o vid_10000018 
f 365 369 370
f 366 370 371
f 365 370 366
f 366 371 367
f 367 371 372
usemtl APPID_3007360176_1759648531936 
o vid_10000020 
f 373 376 377
f 373 377 374
f 374 377 378
usemtl APPID_3007360176_1759648531936 
o vid_10000022 
f 379 382 383
f 379 383 380
f 380 383 384
usemtl APPID_3007360176_1759648531936 
o vid_10000024 
f 385 387 388
f 385 388 386
f 385 387 388
usemtl APPID_3007360176_1759648531936 
o vid_10000026 
f 389 391 392
f 389 392 390
f 389 391 392
usemtl APPID_3007360176_1759648531936 
o vid_10000028 
f 393 395 396
f 393 396 394
f 393 395 396
