# File generated by PlantGL - Fri Sep  4 14:41:03 2026
v    9.172725 59.597007 0.000000
v    10.762639 59.485055 0.000000
v    10.064636 60.917937 0.000000
v    10.827275 60.402993 0.592000
v    9.237361 60.514945 0.592000
v    9.935364 59.082063 0.592000
v    10.717707 60.663460 0.266536
v    11.094595 60.785518 0.863942
v    11.604661 60.935061 1.441014
v    11.678722 60.942005 1.517682
v    12.066100 61.006465 1.748608
v    10.964830 60.156159 0.266536
v    11.293263 60.377686 0.863942
v    11.725432 60.687137 1.441014
v    11.776554 60.741173 1.517682
v    12.066100 61.006465 1.748608
mtllib usm_3_Beer_2018-07-06_1.mtl
usemtl APPID_726671856_2277208051952 
o vid_3 
f 3 2 1
f 4 5 6
f 1 6 5
f 1 5 3
f 3 5 4
f 4 2 3
f 2 4 6
f 6 1 2
usemtl APPID_726667264_2277208050288 
o vid_4 
f 7 12 13
f 8 13 14
f 9 14 15
f 7 13 8
f 8 14 9
f 9 15 10
f 10 15 16
