# File generated by PlantGL - Fri Sep  4 14:41:48 2026
v    17.752484 218.905161 0.000000
v    22.071916 218.601013 0.000000
v    20.175600 222.493825 0.000000
v    22.247516 221.094839 0.362700
v    17.928084 221.398987 0.362700
v    19.824400 217.506175 0.362700
v    22.062188 221.448144 0.197284
v    22.261606 221.524173 0.395604
v    22.559950 221.632345 0.690029
v    23.092455 221.832863 1.073040
v    22.411472 220.731123 0.197284
v    22.594265 220.841281 0.395604
v    22.863348 221.009521 0.690029
v    23.349488 221.305218 1.073040
v    21.879284 221.505407 0.362700
v    17.756638 220.874804 0.362700
v    20.364078 217.619789 0.362700
v    18.120716 218.494593 0.589630
v    22.243362 219.125196 0.589630
v    19.635922 222.380211 0.589630
v    18.483330 218.068689 0.356738
v    18.255033 217.917043 0.611421
v    17.856582 217.661697 1.050484
v    16.983300 217.086779 1.754260
v    16.358611 216.664658 1.995922
v    17.784224 218.941423 0.356738
v    17.586405 218.751728 0.611421
v    17.250251 218.418615 1.050484
v    16.498591 217.691868 1.754260
v    15.950303 217.174372 1.995922
v    17.841416 219.161313 0.589630
v    21.805616 218.549955 0.589630
v    20.352968 222.288732 0.589630
v    22.158584 220.838687 1.053978
v    18.194384 221.450045 1.053978
v    19.647032 217.711268 1.053978
v    21.858364 221.547584 0.732433
v    22.195510 221.645090 1.058564
v    22.852604 221.823495 1.690262
v    24.240949 222.218843 2.661940
v    25.320903 222.540470 3.023126
v    26.147399 222.751299 3.295431
v    22.415730 220.113055 0.732433
v    22.730267 220.268751 1.058564
v    23.335442 220.580783 1.690262
v    24.626516 221.226486 2.661940
v    25.640323 221.718359 3.023126
v    26.392353 222.120844 3.295431
v    22.163962 220.511898 1.053978
v    18.474702 221.618097 1.053978
v    19.361335 217.870005 1.053978
v    17.836038 219.488102 1.828692
v    21.525298 218.381903 1.828692
v    20.638665 222.129995 1.828692
v    18.110292 218.464631 1.393341
v    17.447858 218.369096 2.015277
v    16.726249 218.277090 2.690179
v    14.790675 218.006062 4.005767
v    13.032748 217.738303 4.575740
v    11.191501 217.532219 5.167222
v    17.622669 220.525976 1.393341
v    16.987640 220.314589 2.015277
v    16.301290 220.073533 2.690179
v    14.449429 219.448622 4.005767
v    12.757852 218.900381 4.575740
v    11.019418 218.259671 5.167222
v    18.595695 218.396392 1.828692
v    22.090917 219.585640 1.828692
v    19.313387 222.017967 1.828692
v    21.404305 221.603608 2.768206
v    17.909083 220.414360 2.768206
v    20.686613 217.982033 2.768206
v    20.303728 222.512190 2.190180
v    21.111699 223.283991 3.228487
v    21.652733 223.784081 3.912021
v    23.536533 225.568796 5.658758
v    25.444345 227.420329 6.510913
v    27.333508 229.113485 7.320801
v    27.695496 229.359531 7.396942
v    22.450154 220.632531 2.190180
v    23.108604 221.535270 3.228487
v    23.532938 222.137556 3.912021
v    25.053502 224.240362 5.658758
v    26.637132 226.375787 6.510913
v    28.066230 228.471829 7.320801
v    28.262365 228.863116 7.396942
v    21.718982 221.097521 2.768206
v    18.190028 220.939922 2.768206
v    20.090990 217.962557 2.768206
v    18.281018 218.902479 5.227761
v    21.809972 219.060078 5.227761
v    19.909010 222.037443 5.227761
v    19.286113 217.428752 4.475161
v    18.737313 217.143617 5.049858
v    17.129329 216.341412 6.717031
v    14.124763 214.796011 8.991315
v    12.027480 213.685157 9.752039
v    9.049536 212.256167 10.806528
v    7.877888 211.882701 11.188741
v    17.367085 220.434410 4.475161
v    16.877484 220.056556 5.049858
v    15.473107 218.935454 6.717031
v    12.806843 216.860192 8.991315
v    10.916572 215.425107 9.752039
v    8.367112 213.325007 10.806528
v    7.535280 212.419308 11.188741
v    18.420020 218.861621 5.227761
v    21.775855 219.200887 5.227761
v    19.804125 221.937492 5.227761
v    21.579980 221.138379 9.039957
v    18.224145 220.799113 9.039957
v    20.195875 218.062508 9.039957
v    20.069433 223.116779 8.079027
v    22.718921 224.688079 10.941475
v    26.437605 226.874544 13.845309
v    31.681576 230.040944 15.808829
v    34.231846 231.445875 16.738363
v    35.428487 232.114084 16.722760
v    37.661646 232.997329 16.696078
v    22.978481 219.079251 8.079027
v    25.307671 221.095100 10.941475
v    28.558844 223.930433 13.845309
v    33.222387 227.902421 15.808829
v    35.362356 229.876817 16.738363
v    36.374998 230.800401 16.722760
v    37.919727 232.639134 16.696078
v    21.554633 221.012481 9.039957
v    18.345849 220.840111 9.039957
v    20.099518 218.147408 9.039957
v    18.445367 218.987519 15.458380
v    21.654151 219.159889 15.458380
v    19.900482 221.852592 15.458380
v    20.308342 216.285400 14.255206
v    16.902002 214.476320 17.839259
v    14.941671 213.408900 19.343618
v    12.138921 211.935122 21.475133
v    3.264223 207.131322 24.709769
v    -1.646110 204.692927 25.048920
v    -5.005429 203.543987 25.009473
v    16.727285 221.784002 14.255206
v    13.695344 219.400045 17.839259
v    11.926420 218.038725 19.343618
v    9.445209 216.071235 21.475133
v    1.463161 209.896798 24.709769
v    -2.752492 206.391743 25.048920
v    -5.161652 203.783863 25.009473
v    18.531989 219.185784 15.458380
v    21.439137 219.135773 15.458380
v    20.028874 221.678443 15.458380
v    21.468011 220.814216 25.898850
v    18.560863 220.864227 25.898850
v    19.971126 218.321557 25.898850
v    19.334514 224.441996 24.421527
v    23.663790 226.361552 28.822223
v    28.227897 228.442336 32.202860
v    29.702324 229.088841 33.286546
v    42.342467 234.813595 37.734295
v    49.712557 237.902982 37.643258
v    54.222631 239.084303 37.097844
v    23.415843 217.083458 24.421527
v    27.336547 219.739659 28.822223
v    31.518365 222.509702 32.202860
v    32.847502 223.418161 33.286546
v    44.396748 231.109775 37.734295
v    50.919924 235.726128 37.643258
v    54.310104 238.926592 37.097844
v    21.285203 220.341872 25.898850
v    19.061328 220.942083 25.898850
v    19.653468 218.716045 25.898850
v    18.714797 219.658128 38.707917
v    20.938672 219.057917 38.707917
v    20.346532 221.283955 38.707917
v    20.091005 214.981758 36.929097
v    14.471867 214.011806 42.227902
v    10.946709 213.365457 44.643339
v    6.610363 212.635282 47.603320
v    -8.392285 209.923027 52.490120
v    -16.430103 208.758613 52.883031
v    -21.511684 208.696286 52.826567
v    -22.392111 208.688942 52.670604
v    17.585638 224.400215 36.929097
v    12.227236 222.450073 42.227902
v    8.846844 221.259504 44.643339
v    4.720826 219.738638 47.603320
v    -9.646571 214.638279 52.490120
v    -17.200604 211.655165 52.883031
v    -21.641537 209.184445 52.826567
v    -22.409250 208.753373 52.670604
v    19.067284 219.612820 38.707917
v    20.801665 219.385835 38.707917
v    20.131050 221.001345 38.707917
v    20.932716 220.387180 55.895628
v    19.198335 220.614165 55.895628
v    19.868950 218.998655 55.895628
v    18.658662 225.471707 53.795245
v    25.082152 227.489806 60.051932
v    34.079166 230.304180 66.399081
v    48.620059 234.999443 71.296877
v    52.921200 236.202057 72.722666
v    57.717300 237.572802 72.665878
v    64.857706 238.620899 72.585693
v    22.927981 215.186925 53.795245
v    28.892312 218.311139 60.051932
v    37.237524 222.695703 66.399081
v    50.828869 229.678424 71.296877
v    54.717254 231.875367 72.722666
v    59.074159 234.304130 72.665878
v    64.857706 238.620899 72.585693
v    20.554944 220.456621 55.895628
v    19.327083 220.252285 55.895628
v    20.117973 219.291094 55.895628
v    19.445056 219.543379 74.997961
v    20.672917 219.747715 74.997961
v    19.882027 220.708906 74.997961
v    23.550161 214.829378 72.565900
v    17.383251 210.615354 79.506643
v    8.069716 204.312033 87.160056
v    -4.072772 195.872847 91.899830
v    -10.893039 191.523560 94.482224
v    -13.172343 190.051570 94.451334
v    -20.730177 186.486262 94.358487
v    15.609850 224.479459 72.565900
v    10.287090 219.239516 79.506643
v    2.308169 211.314201 87.160056
v    -8.311433 201.024209 91.899830
v    -13.892747 195.169187 94.482224
v    -15.776129 193.216022 94.451334
v    -20.730177 186.486262 94.358487
v    19.684787 219.670200 74.997961
v    20.443221 219.891918 74.997961
v    19.871991 220.437882 74.997961
v    20.315213 220.329800 83.736000
v    19.556779 220.108082 83.736000
v    20.128009 219.562118 83.736000
v    17.272583 224.344768 78.392053
v    21.032791 226.927992 89.593914
v    22.366734 227.957900 92.401615
v    27.441821 231.321389 102.407793
v    34.356730 235.021129 109.376680
v    24.463627 217.471791 78.392053
v    26.874218 221.344937 89.593914
v    27.842768 222.724077 92.401615
v    30.973383 227.946032 102.407793
v    34.356730 235.021129 109.376680
v    23.092455 221.832863 1.073040
v    23.254924 221.894042 1.189898
v    23.834764 222.120389 1.389415
v    24.520992 222.357340 1.621183
v    24.731671 222.398654 1.687912
v    25.067995 222.468787 1.684095
v    23.349488 221.305218 1.073040
v    23.497811 221.395436 1.189898
v    24.033468 221.712485 1.389415
v    24.643054 222.106767 1.621183
v    24.805454 222.247192 1.687912
v    25.067995 222.468787 1.684095
v    16.358611 216.664658 1.995922
v    16.285636 216.615347 2.024152
v    15.416692 216.077127 2.350463
v    15.107758 215.940746 2.455423
v    14.701375 215.755519 2.450461
v    15.950303 217.174372 1.995922
v    15.886254 217.113919 2.024152
v    15.171354 216.383397 2.350463
v    14.970833 216.111677 2.455423
v    14.701375 215.755519 2.450461
v    26.147399 222.751299 3.295431
v    26.688330 222.889284 3.473651
v    27.188305 222.944973 3.630010
v    27.762004 223.015817 3.623587
v    26.392353 222.120844 3.295431
v    26.884548 222.384266 3.473651
v    27.290968 222.680744 3.630010
v    27.762004 223.015817 3.623587
v    11.191501 217.532219 5.167222
v    10.713399 217.537287 5.316471
v    9.658152 217.553576 5.304745
v    11.019418 218.259671 5.167222
v    10.594259 218.040931 5.316471
v    9.658152 217.553576 5.304745
v    27.695496 229.359531 7.396942
v    28.960316 230.231990 7.379870
v    28.262365 228.863116 7.396942
v    28.960316 230.231990 7.379870
v    7.877888 211.882701 11.188741
v    7.668167 211.815852 11.257156
v    6.654775 211.479455 11.245292
v    7.535280 212.419308 11.188741
v    7.386385 212.257191 11.257156
v    6.654775 211.479455 11.245292
v    37.661646 232.997329 16.696078
v    38.498817 233.328441 16.686075
v    37.919727 232.639134 16.696078
v    38.498817 233.328441 16.686075
v    -5.005429 203.543987 25.009473
v    -5.124035 203.503422 25.008081
v    -5.551710 203.359022 24.928121
v    -5.161652 203.783863 25.009473
v    -5.246711 203.691788 25.008081
v    -5.551710 203.359022 24.928121
v    54.222631 239.084303 37.097844
v    54.573085 239.175565 37.033694
v    54.310104 238.926592 37.097844
v    54.573085 239.175565 37.033694
v    -22.392111 208.688942 52.670604
v    -22.525986 208.687826 52.646888
v    -22.409250 208.753373 52.670604
v    -22.525986 208.687826 52.646888
mtllib usm_25_Beer_2018-08-24_5.mtl
usemtl APPID_3202204448_2021840784624 
o vid_3 
f 3 2 1
f 4 5 6
f 1 6 5
f 1 5 3
f 3 5 4
f 4 2 3
f 2 4 6
f 6 1 2
usemtl APPID_3202206128_2021840780016 
o vid_4 
f 7 11 12
f 8 12 13
f 7 12 8
f 8 13 9
f 9 13 14
f 9 14 10
usemtl APPID_3202204448_2021840784624 
o vid_5 
f 17 16 15
f 18 19 20
f 15 20 19
f 15 19 17
f 17 19 18
f 18 16 17
f 16 18 20
f 20 15 16
usemtl APPID_3202206128_2021840780016 
o vid_6 
f 21 26 27
f 22 27 28
f 23 28 29
f 21 27 22
f 22 28 23
f 23 29 24
f 24 29 30
f 24 30 25
usemtl APPID_3202204448_2021840784624 
o vid_7 
f 33 32 31
f 34 35 36
f 31 36 35
f 31 35 33
f 33 35 34
f 34 32 33
f 32 34 36
f 36 31 32
usemtl APPID_3202206128_2021840780016 
o vid_8 
f 37 43 44
f 38 44 45
f 39 45 46
f 40 46 47
f 37 44 38
f 38 45 39
f 39 46 40
f 40 47 41
f 41 47 48
f 41 48 42
usemtl APPID_3202204448_2021840784624 
o vid_9 
f 51 50 49
f 52 53 54
f 49 54 53
f 49 53 51
f 51 53 52
f 52 50 51
f 50 52 54
f 54 49 50
usemtl APPID_3202206128_2021840780016 
o vid_10 
f 55 61 62
f 56 62 63
f 57 63 64
f 58 64 65
f 55 62 56
f 56 63 57
f 57 64 58
f 58 65 59
f 59 65 66
f 59 66 60
usemtl APPID_3202204448_2021840784624 
o vid_11 
f 69 68 67
f 70 71 72
f 67 72 71
f 67 71 69
f 69 71 70
f 70 68 69
f 68 70 72
f 72 67 68
usemtl APPID_3202206128_2021840780016 
o vid_12 
f 73 80 81
f 74 81 82
f 75 82 83
f 76 83 84
f 77 84 85
f 73 81 74
f 74 82 75
f 75 83 76
f 76 84 77
f 77 85 78
f 78 85 86
f 78 86 79
usemtl APPID_3202204448_2021840784624 
o vid_13 
f 89 88 87
f 90 91 92
f 87 92 91
f 87 91 89
f 89 91 90
f 90 88 89
f 88 90 92
f 92 87 88
usemtl APPID_3202206128_2021840780016 
o vid_14 
f 93 100 101
f 94 101 102
f 95 102 103
f 96 103 104
f 97 104 105
f 93 101 94
f 94 102 95
f 95 103 96
f 96 104 97
f 97 105 98
f 98 105 106
f 98 106 99
usemtl APPID_3202204448_2021840784624 
o vid_15 
f 109 108 107
f 110 111 112
f 107 112 111
f 107 111 109
f 109 111 110
f 110 108 109
f 108 110 112
f 112 107 108
usemtl APPID_3202206128_2021840780016 
o vid_16 
f 113 120 121
f 114 121 122
f 115 122 123
f 116 123 124
f 117 124 125
f 113 121 114
f 114 122 115
f 115 123 116
f 116 124 117
f 117 125 118
f 118 125 126
f 118 126 119
usemtl APPID_3202204448_2021840784624 
o vid_17 
f 129 128 127
f 130 131 132
f 127 132 131
f 127 131 129
f 129 131 130
f 130 128 129
f 128 130 132
f 132 127 128
usemtl APPID_3202206128_2021840780016 
o vid_18 
f 133 140 141
f 134 141 142
f 135 142 143
f 136 143 144
f 137 144 145
f 133 141 134
f 134 142 135
f 135 143 136
f 136 144 137
f 137 145 138
f 138 145 146
f 138 146 139
usemtl APPID_3202204448_2021840784624 
o vid_19 
f 149 148 147
f 150 151 152
f 147 152 151
f 147 151 149
f 149 151 150
f 150 148 149
f 148 150 152
f 152 147 148
usemtl APPID_3202206128_2021840780016 
o vid_20 
f 153 160 161
f 154 161 162
f 155 162 163
f 156 163 164
f 157 164 165
f 153 161 154
f 154 162 155
f 155 163 156
f 156 164 157
f 157 165 158
f 158 165 166
f 158 166 159
usemtl APPID_3202204448_2021840784624 
o vid_21 
f 169 168 167
f 170 171 172
f 167 172 171
f 167 171 169
f 169 171 170
f 170 168 169
f 168 170 172
f 172 167 168
usemtl APPID_3202206128_2021840780016 
o vid_22 
f 173 181 182
f 174 182 183
f 175 183 184
f 176 184 185
f 177 185 186
f 178 186 187
f 173 182 174
f 174 183 175
f 175 184 176
f 176 185 177
f 177 186 178
f 178 187 179
f 179 187 188
f 179 188 180
usemtl APPID_3202204448_2021840784624 
o vid_23 
f 191 190 189
f 192 193 194
f 189 194 193
f 189 193 191
f 191 193 192
f 192 190 191
f 190 192 194
f 194 189 190
usemtl APPID_3202206128_2021840780016 
o vid_24 
f 195 202 203
f 196 203 204
f 197 204 205
f 198 205 206
f 199 206 207
f 195 203 196
f 196 204 197
f 197 205 198
f 198 206 199
f 199 207 200
f 200 207 208
usemtl APPID_3202204448_2021840784624 
o vid_25 
f 211 210 209
f 212 213 214
f 209 214 213
f 209 213 211
f 211 213 212
f 212 210 211
f 210 212 214
f 214 209 210
usemtl APPID_3202206128_2021840780016 
o vid_26 
f 215 222 223
f 216 223 224
f 217 224 225
f 218 225 226
f 219 226 227
f 215 223 216
f 216 224 217
f 217 225 218
f 218 226 219
f 219 227 220
f 220 227 228
usemtl APPID_3202204448_2021840784624 
o vid_27 
f 231 230 229
f 232 233 234
f 229 234 233
f 229 233 231
f 231 233 232
f 232 230 231
f 230 232 234
f 234 229 230
usemtl APPID_3202206128_2021840780016 
o vid_28 
f 235 240 241
f 236 241 242
f 237 242 243
f 235 241 236
f 236 242 237
f 237 243 238
f 238 243 244
usemtl APPID_3202188880_2021840781808 
o vid_10000004 
f 245 251 252
f 246 252 253
f 247 253 254
f 248 254 255
f 245 252 246
f 246 253 247
f 247 254 248
f 248 255 249
f 249 255 256
usemtl APPID_3202188880_2021840781808 
o vid_10000006 
f 257 262 263
f 258 263 264
f 259 264 265
f 257 263 258
f 258 264 259
f 259 265 260
f 260 265 266
usemtl APPID_3202188880_2021840781808 
o vid_10000008 
f 267 271 272
f 268 272 273
f 267 272 268
f 268 273 269
f 269 273 274
usemtl APPID_3202188880_2021840781808 
o vid_10000010 
f 275 278 279
f 275 279 276
f 276 279 280
usemtl APPID_3202188880_2021840781808 
o vid_10000012 
f 281 283 284
f 281 284 282
f 281 283 284
usemtl APPID_3202188880_2021840781808 
o vid_10000014 
f 285 288 289
f 285 289 286
f 286 289 290
usemtl APPID_3202188880_2021840781808 
o vid_10000016 
f 291 293 294
f 291 294 292
f 291 293 294
usemtl APPID_3202188880_2021840781808 
o vid_10000018 
f 295 298 299
f 295 299 296
f 296 299 300
usemtl APPID_3202188880_2021840781808 
o vid_10000020 
f 301 303 304
f 301 304 302
f 301 303 304
usemtl APPID_3202188880_2021840781808 
o vid_10000022 
f 305 307 308
f 305 308 306
f 305 307 308
