# File generated by PlantGL - Fri Sep  4 14:42:28 2026
v    117.752484 18.905161 0.000000
v    122.071916 18.601013 0.000000
v    120.175600 22.493825 0.000000
v    122.247516 21.094839 0.848018
v    117.928084 21.398987 0.848018
v    119.824400 17.506175 0.848018
v    122.061684 21.449770 0.686205
v    122.365692 21.565676 0.988541
v    122.456303 21.598529 1.077961
v    122.412442 20.729723 0.686205
v    122.691107 20.897656 0.988541
v    122.772830 20.948753 1.077961
v    121.879284 21.505407 0.848018
v    117.756638 20.874804 0.848018
v    120.364078 17.619789 0.848018
v    118.120716 18.494593 1.416666
v    122.243362 19.125196 1.416666
v    119.635922 22.380211 1.416666
v    118.495819 18.052731 1.186976
v    118.165119 17.833063 1.555896
v    117.771376 18.957094 1.186976
v    117.484826 18.682311 1.555896
v    117.841416 19.161313 1.416666
v    121.805616 18.549955 1.416666
v    120.352968 22.288732 1.416666
v    122.158584 20.838687 2.253758
v    118.194384 21.450045 2.253758
v    119.647032 17.711268 2.253758
v    121.869338 21.519729 1.934179
v    121.931872 21.537814 1.994670
v    122.274952 21.630963 2.324490
v    122.405019 20.141012 1.934179
v    122.463360 20.169891 1.994670
v    122.779332 20.332808 2.324490
v    122.163962 20.511898 2.253758
v    118.474702 21.618097 2.253758
v    119.361335 17.870005 2.253758
v    117.836038 19.488102 4.113040
v    121.525298 18.381903 4.113040
v    120.638665 22.129995 4.113040
v    118.107412 18.476958 3.677205
v    117.598202 18.403520 4.155284
v    117.080938 18.337569 4.639067
v    117.625617 20.513666 3.677205
v    117.137474 20.351174 4.155284
v    116.645484 20.178380 4.639067
v    118.595695 18.396392 4.113040
v    122.090917 19.585640 4.113040
v    119.313387 22.017967 4.113040
v    121.404305 21.603608 6.001020
v    117.909083 20.414360 6.001020
v    120.686613 17.982033 6.001020
v    120.272370 22.539214 5.418419
v    121.331478 23.550910 6.779458
v    121.627852 23.824854 7.153891
v    123.526563 25.623697 8.914455
v    123.729116 25.820275 9.004928
v    122.481079 20.605012 5.418419
v    123.344192 21.788345 6.779458
v    123.576637 22.118271 7.153891
v    125.109239 24.237723 8.914455
v    125.277373 24.464442 9.004928
v    121.718982 21.097521 6.001020
v    118.190028 20.939922 6.001020
v    120.090990 17.962557 6.001020
v    118.281018 18.902479 11.510985
v    121.809972 19.060078 11.510985
v    119.909010 22.037443 11.510985
v    119.303579 17.402832 10.747626
v    118.689476 17.083768 11.390708
v    117.116540 16.299048 13.021543
v    114.069026 14.731556 15.328337
v    112.542732 13.923134 15.881952
v    117.350922 20.461162 10.747626
v    116.803062 20.038346 11.390708
v    115.429295 18.941680 13.021543
v    112.724918 16.836753 15.328337
v    111.349277 15.792372 15.881952
v    118.420020 18.861621 11.510985
v    121.775855 19.200887 11.510985
v    119.804125 21.937492 11.510985
v    121.579980 21.138379 19.659504
v    118.224145 20.799113 19.659504
v    120.195875 18.062508 19.659504
v    120.020475 23.182338 18.679129
v    122.723579 24.785436 21.599502
v    126.514102 27.020885 24.562100
v    132.258166 30.489248 26.712871
v    133.810819 31.344598 27.278789
v    123.025172 19.012058 18.679129
v    125.401496 21.068700 21.599502
v    128.721875 23.956672 24.562100
v    133.830157 28.307449 26.712871
v    135.133011 29.509500 27.278789
v    121.554633 21.012481 19.659504
v    118.345849 20.840111 19.659504
v    120.099518 18.147408 19.659504
v    118.445367 18.987519 30.877941
v    121.654151 19.159889 30.877941
v    119.900482 21.852592 30.877941
v    120.262405 16.360012 29.643805
v    116.768408 14.504378 33.320089
v    111.865332 11.924540 37.049527
v    104.975378 8.195065 39.560766
v    101.589094 6.532316 40.765119
v    101.084370 6.280877 40.758700
v    116.776951 21.711819 29.643805
v    113.666988 19.266514 33.320089
v    109.324905 15.825287 37.049527
v    103.127969 11.031706 39.560766
v    100.237971 8.606923 40.765119
v    99.803920 8.246969 40.758700
v    118.458123 19.144816 30.877941
v    121.511550 19.092287 30.877941
v    120.030327 21.762897 30.877941
v    121.541877 20.855184 48.423413
v    118.488450 20.907713 48.423413
v    119.969673 18.237103 48.423413
v    119.418065 24.458767 46.900621
v    123.880590 26.437404 51.436764
v    126.785963 27.761969 53.588776
v    130.118967 29.223421 56.038493
v    142.138809 34.667238 60.267974
v    148.395879 37.241957 60.558773
v    123.474309 17.145455 46.900621
v    127.515687 19.883410 51.436764
v    130.177707 21.646736 53.588776
v    133.182277 23.700347 56.038493
v    144.164756 31.014503 60.267974
v    149.661996 34.959177 60.558773
v    121.614895 20.429572 48.423413
v    118.820532 21.183754 48.423413
v    119.564573 18.386674 48.423413
v    118.385105 19.570428 69.825309
v    121.179468 18.816246 69.825309
v    120.435427 21.613326 69.825309
v    119.838071 14.623087 67.983582
v    114.020215 13.618834 73.469777
v    109.002444 12.698809 76.907951
v    105.885905 12.174031 79.035294
v    88.863003 9.096544 84.580149
v    80.380108 7.855268 84.482541
v    78.812882 7.836045 84.465127
v    117.187926 24.585810 67.983582
v    111.640027 22.566702 73.469777
v    106.828318 20.872025 76.907951
v    103.862943 19.778977 79.035294
v    87.560834 13.991804 84.580149
v    79.582359 10.854255 84.482541
v    78.212717 10.092253 84.465127
v    118.541706 19.394647 69.825309
v    121.253398 19.039757 69.825309
v    120.204896 21.565597 69.825309
v    121.458294 20.605353 89.719947
v    118.746602 20.960243 89.719947
v    119.795104 18.434403 89.719947
v    119.081162 25.922653 87.536631
v    125.758284 28.020437 94.040363
v    128.019857 28.756913 95.643365
v    135.108080 30.951877 100.638130
v    150.705609 35.988329 105.891832
v    154.686322 37.101350 107.211402
v    160.185565 38.673056 107.146288
v    163.815681 39.205899 107.105523
v    123.545631 15.167756 87.536631
v    129.745464 18.415330 94.040363
v    131.863751 19.496979 95.643365
v    138.422652 22.967078 100.638130
v    153.001635 30.457209 105.891832
v    156.600341 32.490484 107.211402
v    161.596000 35.275320 107.146288
v    164.536302 37.469926 107.105523
v    121.148136 20.944713 89.719947
v    118.607786 20.521958 89.719947
v    120.244078 18.533328 89.719947
v    118.851864 19.055287 113.671638
v    121.392214 19.478042 113.671638
v    119.755922 21.466672 113.671638
v    123.421872 13.788140 111.134670
v    116.707236 9.199838 118.691871
v    112.297321 6.118604 122.317608
v    107.327110 2.752210 126.358337
v    89.218987 -9.833169 133.426773
v    79.469996 -16.116940 133.884606
v    73.884627 -18.751763 133.815991
v    114.563396 24.554092 111.134670
v    108.767884 18.848753 118.691871
v    104.895071 15.114764 122.317608
v    100.634533 10.885884 126.358337
v    84.797494 -4.459606 133.426773
v    76.753898 -12.815990 133.884606
v    73.092771 -17.789399 133.815991
v    119.052246 19.008386 113.671638
v    121.332640 19.675028 113.671638
v    119.615114 21.316586 113.671638
v    120.947754 20.991614 134.136405
v    118.667360 20.324972 134.136405
v    120.384886 18.683414 134.136405
v    115.210182 26.188196 131.246922
v    122.180243 32.288545 139.854206
v    124.838126 34.664087 142.256730
v    131.939051 40.827598 148.585939
v    148.506478 55.561178 155.692516
v    152.363189 58.726062 157.285256
v    158.575485 63.883952 157.193331
v    165.888700 68.471912 157.097410
v    126.398408 15.494836 131.246922
v    132.177416 22.733557 139.854206
v    134.430371 25.496117 142.256730
v    140.266560 32.868422 148.585939
v    154.236093 50.084990 155.692516
v    157.223386 54.080836 157.285256
v    162.095155 60.519960 157.193331
v    166.347808 68.033111 157.097410
v    120.754688 20.769159 134.136405
v    118.956545 20.269000 134.136405
v    120.288767 18.961841 134.136405
v    119.245312 19.230841 147.008689
v    121.043455 19.731000 147.008689
v    119.711233 21.038159 147.008689
v    125.065010 13.845369 143.782928
v    120.621488 10.058063 149.208394
v    117.142077 7.189748 153.391929
v    106.082025 -2.158731 163.139862
v    95.257563 -11.533698 167.729859
v    84.196567 -20.370344 172.249560
v    75.195772 -25.826756 172.756180
v    113.750291 24.947216 143.782928
v    110.048054 20.432571 149.208394
v    107.246332 16.899316 153.391929
v    98.109578 5.663724 163.139862
v    88.941866 -5.336824 167.729859
v    80.316871 -16.563639 172.249560
v    75.032375 -25.666433 172.756180
v    119.455802 19.397030 147.008689
v    120.794287 19.830196 147.008689
v    119.749911 20.772775 147.008689
v    120.544198 20.602970 158.324356
v    119.205713 20.169804 158.324356
v    120.250089 19.227225 158.324356
v    113.786816 26.360035 154.794548
v    120.127872 32.238169 162.829281
v    133.783430 44.748149 175.975991
v    147.328549 57.505414 181.940132
v    158.350323 67.089930 186.603126
v    169.133899 74.440250 186.457789
v    126.961701 14.469320 154.794548
v    132.161025 21.377901 162.829281
v    143.209955 36.240438 175.975991
v    154.516161 51.018386 181.940132
v    162.924108 62.961957 186.603126
v    169.133899 74.440250 186.457789
v    120.565073 20.110004 158.324356
v    119.622197 20.434365 158.324356
v    119.812730 19.455630 158.324356
v    119.434927 19.889996 164.712505
v    120.377803 19.565635 164.712505
v    120.187270 20.544370 164.712505
v    121.395975 11.240143 160.926536
v    109.291977 10.154958 172.204302
v    92.378716 8.473302 183.645129
v    82.030147 7.318447 186.982779
v    65.456467 6.132324 192.287403
v    56.609208 6.729441 195.043481
v    52.891582 6.935805 195.002112
v    118.007950 28.643817 160.926536
v    106.380793 25.109188 172.204302
v    90.071827 20.323374 183.645129
v    80.045769 17.511840 186.982779
v    64.237475 12.394067 192.287403
v    56.260305 8.521690 195.043481
v    52.891582 6.935805 195.002112
v    119.716200 19.765874 164.712505
v    120.344659 19.871285 164.712505
v    119.939141 20.362841 164.712505
v    120.283800 20.234126 166.728000
v    119.655341 20.128715 166.728000
v    120.060859 19.637159 166.728000
v    116.529032 25.671426 158.848773
v    122.947889 29.508559 171.359169
v    124.275513 30.176923 173.811815
v    132.951338 35.031583 185.663636
v    136.933797 36.314307 190.374793
v    142.645240 38.681601 194.397600
v    124.908308 15.514334 158.848773
v    129.895529 21.086851 171.359169
v    130.804051 22.263237 173.811815
v    137.219233 29.858176 185.663636
v    139.235523 33.524228 190.374793
v    142.645240 38.681601 194.397600
v    122.456303 21.598529 1.077961
v    123.227599 21.887687 1.657200
v    123.936109 22.164261 1.900991
v    124.607391 22.396051 2.127711
v    125.149327 22.508406 2.138813
v    122.772830 20.948753 1.077961
v    123.475963 21.377838 1.657200
v    124.130485 21.765241 1.900991
v    124.726794 22.150936 2.127711
v    125.149327 22.508406 2.138813
v    118.165119 17.833063 1.555896
v    118.008885 17.729284 1.730188
v    117.019654 17.080271 2.565284
v    115.992796 16.386393 2.962526
v    115.209143 15.901001 3.256808
v    114.414294 15.525552 3.247008
v    117.484826 18.682311 1.555896
v    117.349450 18.552494 1.730188
v    116.500174 17.728766 2.565284
v    115.598904 16.878111 2.962526
v    114.954175 16.219292 3.256808
v    114.414294 15.525552 3.247008
v    122.274952 21.630963 2.324490
v    122.859195 21.789588 2.886152
v    124.239051 22.182518 3.851888
v    124.958617 22.396817 4.092544
v    126.317683 22.743498 4.540315
v    127.192949 22.840988 4.814039
v    127.367518 22.862545 4.812085
v    122.779332 20.332808 2.324490
v    123.317411 20.610245 2.886152
v    124.600591 21.252000 3.851888
v    125.276084 21.579732 4.092544
v    126.512701 22.241567 4.540315
v    127.224188 22.760587 4.814039
v    127.367518 22.862545 4.812085
v    117.080938 18.337569 4.639067
v    116.721241 18.291707 4.975483
v    114.783518 18.020379 6.292531
v    113.223718 17.782797 6.798265
v    111.322774 17.570032 7.408925
v    110.693155 17.587270 7.604690
v    109.855263 17.600204 7.595380
v    116.645484 20.178380 4.639067
v    116.303362 20.058222 4.975483
v    114.449445 19.432617 6.292531
v    112.948517 18.946165 6.798265
v    111.153720 18.284682 7.408925
v    110.598555 17.987176 7.604690
v    109.855263 17.600204 7.595380
v    123.729116 25.820275 9.004928
v    125.765486 27.796572 9.914506
v    127.524230 29.372841 10.668483
v    129.323855 30.647123 10.643909
v    125.277373 24.464442 9.004928
v    126.967714 26.743761 9.914506
v    128.298155 28.695103 10.668483
v    129.323855 30.647123 10.643909
v    112.542732 13.923134 15.881952
v    111.867315 13.565391 16.126939
v    108.846802 12.115973 17.196501
v    107.528465 11.695751 17.626567
v    106.414245 11.325883 17.613523
v    111.349277 15.792372 15.881952
v    110.740527 15.330212 16.126939
v    108.154623 13.200093 17.196501
v    107.218647 12.181001 17.626567
v    106.414245 11.325883 17.613523
v    133.810819 31.344598 27.278789
v    134.455316 31.699648 27.513698
v    136.099646 32.617848 27.492257
v    139.232108 33.856779 27.454830
v    135.133011 29.509500 27.278789
v    135.673819 30.008464 27.513698
v    137.065311 31.277581 27.492257
v    139.232108 33.856779 27.454830
v    101.084370 6.280877 40.758700
v    100.044553 5.762870 40.745474
v    96.032240 4.390596 40.698359
v    99.803920 8.246969 40.758700
v    98.909700 7.505402 40.745474
v    96.032240 4.390596 40.698359
v    148.395879 37.241957 60.558773
v    152.630853 38.389067 60.509953
v    153.618993 38.646389 60.329077
v    149.661996 34.959177 60.558773
v    152.877491 37.944385 60.509953
v    153.618993 38.646389 60.329077
v    78.812882 7.836045 84.465127
v    76.844835 7.811907 84.443259
v    74.094932 7.788969 83.956126
v    78.212717 10.092253 84.465127
v    76.492787 9.135367 84.443259
v    74.094932 7.788969 83.956126
v    163.815681 39.205899 107.105523
v    167.607911 39.762538 107.062937
v    164.536302 37.469926 107.105523
v    167.607911 39.762538 107.062937
v    73.884627 -18.751763 133.815991
v    73.215998 -19.067181 133.807777
v    71.608087 -19.817993 133.493431
v    73.092771 -17.789399 133.815991
v    72.654494 -18.384770 133.807777
v    71.608087 -19.817993 133.493431
v    165.888700 68.471912 157.097410
v    166.985738 69.160142 157.083021
v    166.347808 68.033111 157.097410
v    166.985738 69.160142 157.083021
v    75.195772 -25.826756 172.756180
v    74.797124 -26.069622 172.750994
v    75.032375 -25.666433 172.756180
v    74.797124 -26.069622 172.750994
mtllib usm_1_2.5D_2018-08-18_2.mtl
usemtl APPID_1439679184_2556943060064 
o vid_3 
f 3 2 1
f 4 5 6
f 1 6 5
f 1 5 3
f 3 5 4
f 4 2 3
f 2 4 6
f 6 1 2
usemtl APPID_1439680864_2556943060704 
o vid_4 
f 7 10 11
f 7 11 8
f 8 11 12
f 8 12 9
usemtl APPID_1439679184_2556943060064 
o vid_5 
f 15 14 13
f 16 17 18
f 13 18 17
f 13 17 15
f 15 17 16
f 16 14 15
f 14 16 18
f 18 13 14
usemtl APPID_1439680864_2556943060704 
o vid_6 
f 19 21 22
f 19 22 20
f 19 21 22
f 19 22 20
usemtl APPID_1439679184_2556943060064 
o vid_7 
f 25 24 23
f 26 27 28
f 23 28 27
f 23 27 25
f 25 27 26
f 26 24 25
f 24 26 28
f 28 23 24
usemtl APPID_1439680864_2556943060704 
o vid_8 
f 29 32 33
f 29 33 30
f 30 33 34
f 30 34 31
usemtl APPID_1439679184_2556943060064 
o vid_9 
f 37 36 35
f 38 39 40
f 35 40 39
f 35 39 37
f 37 39 38
f 38 36 37
f 36 38 40
f 40 35 36
usemtl APPID_1439680864_2556943060704 
o vid_10 
f 41 44 45
f 41 45 42
f 42 45 46
f 42 46 43
usemtl APPID_1439679184_2556943060064 
o vid_11 
f 49 48 47
f 50 51 52
f 47 52 51
f 47 51 49
f 49 51 50
f 50 48 49
f 48 50 52
f 52 47 48
usemtl APPID_1439680864_2556943060704 
o vid_12 
f 53 58 59
f 54 59 60
f 55 60 61
f 53 59 54
f 54 60 55
f 55 61 56
f 56 61 62
f 56 62 57
usemtl APPID_1439679184_2556943060064 
o vid_13 
f 65 64 63
f 66 67 68
f 63 68 67
f 63 67 65
f 65 67 66
f 66 64 65
f 64 66 68
f 68 63 64
usemtl APPID_1439680864_2556943060704 
o vid_14 
f 69 74 75
f 70 75 76
f 71 76 77
f 69 75 70
f 70 76 71
f 71 77 72
f 72 77 78
f 72 78 73
usemtl APPID_1439679184_2556943060064 
o vid_15 
f 81 80 79
f 82 83 84
f 79 84 83
f 79 83 81
f 81 83 82
f 82 80 81
f 80 82 84
f 84 79 80
usemtl APPID_1439680864_2556943060704 
o vid_16 
f 85 90 91
f 86 91 92
f 87 92 93
f 85 91 86
f 86 92 87
f 87 93 88
f 88 93 94
f 88 94 89
usemtl APPID_1439679184_2556943060064 
o vid_17 
f 97 96 95
f 98 99 100
f 95 100 99
f 95 99 97
f 97 99 98
f 98 96 97
f 96 98 100
f 100 95 96
usemtl APPID_1439680864_2556943060704 
o vid_18 
f 101 107 108
f 102 108 109
f 103 109 110
f 104 110 111
f 101 108 102
f 102 109 103
f 103 110 104
f 104 111 105
f 105 111 112
f 105 112 106
usemtl APPID_1439679184_2556943060064 
o vid_19 
f 115 114 113
f 116 117 118
f 113 118 117
f 113 117 115
f 115 117 116
f 116 114 115
f 114 116 118
f 118 113 114
usemtl APPID_1439680864_2556943060704 
o vid_20 
f 119 125 126
f 120 126 127
f 121 127 128
f 122 128 129
f 119 126 120
f 120 127 121
f 121 128 122
f 122 129 123
f 123 129 130
f 123 130 124
usemtl APPID_1439679184_2556943060064 
o vid_21 
f 133 132 131
f 134 135 136
f 131 136 135
f 131 135 133
f 133 135 134
f 134 132 133
f 132 134 136
f 136 131 132
usemtl APPID_1439680864_2556943060704 
o vid_22 
f 137 144 145
f 138 145 146
f 139 146 147
f 140 147 148
f 141 148 149
f 137 145 138
f 138 146 139
f 139 147 140
f 140 148 141
f 141 149 142
f 142 149 150
f 142 150 143
usemtl APPID_1439679184_2556943060064 
o vid_23 
f 153 152 151
f 154 155 156
f 151 156 155
f 151 155 153
f 153 155 154
f 154 152 153
f 152 154 156
f 156 151 152
usemtl APPID_1439680864_2556943060704 
o vid_24 
f 157 165 166
f 158 166 167
f 159 167 168
f 160 168 169
f 161 169 170
f 162 170 171
f 157 166 158
f 158 167 159
f 159 168 160
f 160 169 161
f 161 170 162
f 162 171 163
f 163 171 172
f 163 172 164
usemtl APPID_1439679184_2556943060064 
o vid_25 
f 175 174 173
f 176 177 178
f 173 178 177
f 173 177 175
f 175 177 176
f 176 174 175
f 174 176 178
f 178 173 174
usemtl APPID_1439680864_2556943060704 
o vid_26 
f 179 186 187
f 180 187 188
f 181 188 189
f 182 189 190
f 183 190 191
f 179 187 180
f 180 188 181
f 181 189 182
f 182 190 183
f 183 191 184
f 184 191 192
f 184 192 185
usemtl APPID_1439679184_2556943060064 
o vid_27 
f 195 194 193
f 196 197 198
f 193 198 197
f 193 197 195
f 195 197 196
f 196 194 195
f 194 196 198
f 198 193 194
usemtl APPID_1439680864_2556943060704 
o vid_28 
f 199 207 208
f 200 208 209
f 201 209 210
f 202 210 211
f 203 211 212
f 204 212 213
f 199 208 200
f 200 209 201
f 201 210 202
f 202 211 203
f 203 212 204
f 204 213 205
f 205 213 214
f 205 214 206
usemtl APPID_1439679184_2556943060064 
o vid_29 
f 217 216 215
f 218 219 220
f 215 220 219
f 215 219 217
f 217 219 218
f 218 216 217
f 216 218 220
f 220 215 216
usemtl APPID_1439680864_2556943060704 
o vid_30 
f 221 228 229
f 222 229 230
f 223 230 231
f 224 231 232
f 225 232 233
f 221 229 222
f 222 230 223
f 223 231 224
f 224 232 225
f 225 233 226
f 226 233 234
f 226 234 227
usemtl APPID_1439679184_2556943060064 
o vid_31 
f 237 236 235
f 238 239 240
f 235 240 239
f 235 239 237
f 237 239 238
f 238 236 237
f 236 238 240
f 240 235 236
usemtl APPID_1439680864_2556943060704 
o vid_32 
f 241 247 248
f 242 248 249
f 243 249 250
f 244 250 251
f 241 248 242
f 242 249 243
f 243 250 244
f 244 251 245
f 245 251 252
usemtl APPID_1439679184_2556943060064 
o vid_33 
f 255 254 253
f 256 257 258
f 253 258 257
f 253 257 255
f 255 257 256
f 256 254 255
f 254 256 258
f 258 253 254
usemtl APPID_1439680864_2556943060704 
o vid_34 
f 259 266 267
f 260 267 268
f 261 268 269
f 262 269 270
f 263 270 271
f 259 267 260
f 260 268 261
f 261 269 262
f 262 270 263
f 263 271 264
f 264 271 272
usemtl APPID_1439679184_2556943060064 
o vid_35 
f 275 274 273
f 276 277 278
f 273 278 277
f 273 277 275
f 275 277 276
f 276 274 275
f 274 276 278
f 278 273 274
usemtl APPID_1439680864_2556943060704 
o vid_36 
f 279 285 286
f 280 286 287
f 281 287 288
f 282 288 289
f 279 286 280
f 280 287 281
f 281 288 282
f 282 289 283
f 283 289 290
usemtl APPID_1439654096_2556943058912 
o vid_10000004 
f 291 296 297
f 292 297 298
f 293 298 299
f 291 297 292
f 292 298 293
f 293 299 294
f 294 299 300
usemtl APPID_1439654096_2556943058912 
o vid_10000006 
f 301 307 308
f 302 308 309
f 303 309 310
f 304 310 311
f 301 308 302
f 302 309 303
f 303 310 304
f 304 311 305
f 305 311 312
usemtl APPID_1439654096_2556943058912 
o vid_10000008 
f 313 320 321
f 314 321 322
f 315 322 323
f 316 323 324
f 317 324 325
f 313 321 314
f 314 322 315
f 315 323 316
f 316 324 317
f 317 325 318
f 318 325 326
usemtl APPID_1439654096_2556943058912 
o vid_10000010 
f 327 334 335
f 328 335 336
f 329 336 337
f 330 337 338
f 331 338 339
f 327 335 328
f 328 336 329
f 329 337 330
f 330 338 331
f 331 339 332
f 332 339 340
usemtl APPID_1439654096_2556943058912 
o vid_10000012 
f 341 345 346
f 342 346 347
f 341 346 342
f 342 347 343
f 343 347 348
usemtl APPID_1439654096_2556943058912 
o vid_10000014 
f 349 354 355
f 350 355 356
f 351 356 357
f 349 355 350
f 350 356 351
f 351 357 352
f 352 357 358
usemtl APPID_1439654096_2556943058912 
o vid_10000016 
f 359 363 364
f 360 364 365
f 359 364 360
f 360 365 361
f 361 365 366
usemtl APPID_1439654096_2556943058912 
o vid_10000018 
f 367 370 371
f 367 371 368
f 368 371 372
usemtl APPID_1439654096_2556943058912 
o vid_10000020 
f 373 376 377
f 373 377 374
f 374 377 378
usemtl APPID_1439654096_2556943058912 
o vid_10000022 
f 379 382 383
f 379 383 380
f 380 383 384
usemtl APPID_1439654096_2556943058912 
o vid_10000024 
f 385 387 388
f 385 388 386
f 385 387 388
usemtl APPID_1439654096_2556943058912 
o vid_10000026 
f 389 392 393
f 389 393 390
f 390 393 394
usemtl APPID_1439654096_2556943058912 
o vid_10000028 
f 395 397 398
f 395 398 396
f 395 397 398
usemtl APPID_1439654096_2556943058912 
o vid_10000030 
f 399 401 402
f 399 402 400
f 399 401 402
