# File generated by PlantGL - Fri Sep  4 14:41:37 2026
v    7.752484 58.905161 0.000000
v    12.071916 58.601013 0.000000
v    10.175600 62.493825 0.000000
v    12.247516 61.094839 0.848018
v    7.928084 61.398987 0.848018
v    9.824400 57.506175 0.848018
v    12.059916 61.453095 0.684352
v    12.358747 61.567027 0.981539
v    12.506902 61.620744 1.127747
v    12.413971 60.726281 0.684352
v    12.687890 60.891355 0.981539
v    12.821513 60.974902 1.127747
v    11.879284 61.505407 0.848018
v    7.756638 60.874804 0.848018
v    10.364078 57.619789 0.848018
v    8.120716 58.494593 1.416666
v    12.243362 59.125196 1.416666
v    9.635922 62.380211 1.416666
v    8.495813 58.052715 1.187175
v    8.139192 57.815829 1.585013
v    7.771360 58.957091 1.187175
v    7.462348 58.660770 1.585013
v    7.841416 59.161313 1.416666
v    11.805616 58.549955 1.416666
v    10.352968 62.288732 1.416666
v    12.158584 60.838687 2.253758
v    8.194384 61.450045 2.253758
v    9.647032 57.711268 2.253758
v    11.870574 61.517333 1.938126
v    12.002029 61.555351 2.065287
v    12.308263 61.638496 2.359685
v    12.404313 60.143614 1.938126
v    12.526953 60.204320 2.065287
v    12.808990 60.349741 2.359685
v    12.163962 60.511898 2.253758
v    8.474702 61.618097 2.253758
v    9.361335 57.870005 2.253758
v    7.836038 59.488102 4.112055
v    11.525298 58.381903 4.112055
v    10.638665 62.129995 4.112055
v    8.105295 58.482778 3.686252
v    7.408232 58.382248 4.340699
v    6.968041 58.326124 4.752398
v    7.626332 60.507514 3.686252
v    6.958107 60.285077 4.340699
v    6.539424 60.138030 4.752398
v    8.595695 58.396392 4.112055
v    12.090917 59.585640 4.112055
v    9.313387 62.017967 4.112055
v    11.404305 61.603608 5.805095
v    7.909083 60.414360 5.805095
v    10.686613 57.982033 5.805095
v    10.349115 62.473837 5.241654
v    10.946302 63.044290 6.009087
v    10.980116 63.075546 6.051808
v    12.406148 60.672461 5.241654
v    12.892821 61.339692 6.009087
v    12.919342 61.377335 6.051808
v    11.718982 61.097521 5.805095
v    8.190028 60.939922 5.805095
v    10.090990 57.962557 5.805095
v    8.281018 58.902479 11.500271
v    11.809972 59.060078 11.500271
v    9.909010 62.037443 11.500271
v    9.320978 57.371301 10.768967
v    7.613959 56.484401 12.556537
v    7.236973 56.296326 12.947400
v    6.678247 56.008945 13.370323
v    7.329641 60.490214 10.768967
v    5.806757 59.314915 12.556537
v    5.477505 59.052076 12.947400
v    4.981690 58.666162 13.370323
v    8.420020 58.861621 11.500271
v    11.775855 59.200887 11.500271
v    9.804125 61.937492 11.500271
v    11.579980 61.138379 18.299270
v    8.224145 60.799113 18.299270
v    10.195875 58.062508 18.299270
v    10.144139 63.016770 17.368249
v    12.326790 64.311209 19.726337
v    12.715474 64.533178 20.141603
v    16.319241 66.650442 22.955056
v    17.549017 67.393003 23.415526
v    12.907263 59.181773 17.368249
v    14.826052 60.842431 19.726337
v    15.159645 61.140863 20.141603
v    18.308798 63.889094 22.955056
v    19.402458 64.820575 23.415526
v    11.554633 61.012481 18.299270
v    8.345849 60.840111 18.299270
v    10.099518 58.147408 18.299270
v    8.445367 58.987519 30.832753
v    11.654151 59.159889 30.832753
v    9.900482 61.852592 30.832753
v    10.286208 56.314045 29.670150
v    6.994730 54.565967 33.133350
v    4.267126 53.080759 35.226513
v    2.399812 52.098864 36.646622
v    -6.188521 47.450071 39.776883
v    6.744534 61.752176 29.670150
v    3.814830 59.448606 33.133350
v    1.353549 57.554466 35.226513
v    -0.299542 56.243638 36.646622
v    -8.024028 50.268435 39.776883
v    8.458123 59.144816 30.832753
v    11.511550 59.092287 30.832753
v    10.030327 61.762897 30.832753
v    11.541877 60.855184 44.797288
v    8.488450 60.907713 44.797288
v    9.969673 58.237103 44.797288
v    9.609864 64.127591 43.373273
v    13.782924 65.977883 47.615176
v    15.209561 66.628289 48.671887
v    19.626675 68.565100 51.918411
v    29.382182 72.983395 55.351129
v    31.372608 73.791290 56.036914
v    13.294924 57.483516 43.373273
v    17.074156 60.043872 47.615176
v    18.381297 60.909724 48.671887
v    22.363149 63.631303 51.918411
v    31.276716 69.567597 55.351129
v    33.015979 70.828331 56.036914
v    11.614895 60.429572 44.797288
v    8.820532 61.183754 44.797288
v    9.564573 58.386674 44.797288
v    8.385105 59.570428 66.080215
v    11.179468 58.816246 66.080215
v    10.435427 61.613326 66.080215
v    9.703665 55.091776 64.369376
v    4.299272 54.158893 69.465678
v    1.155014 53.582383 71.620122
v    -3.262729 52.838502 74.635665
v    -17.408950 50.281077 79.243501
v    -19.093254 50.045160 79.786458
v    -22.839232 49.498522 79.743360
v    7.304154 64.112285 64.369376
v    2.150533 62.236672 69.465678
v    -0.864602 61.174745 71.620122
v    -5.068068 59.625331 74.635665
v    -18.615301 54.816127 79.243501
v    -20.194213 54.184008 79.786458
v    -23.716698 52.797191 79.743360
v    8.541706 59.394647 66.080215
v    11.253398 59.039757 66.080215
v    10.204896 61.565597 66.080215
v    11.458294 60.605353 86.202330
v    8.746602 60.960243 86.202330
v    9.795104 58.434403 86.202330
v    9.316215 65.387748 84.186219
v    15.481986 67.324878 90.191878
v    24.125587 70.008121 96.284369
v    36.603887 74.037372 100.487425
v    42.235471 75.611982 102.354243
v    44.451522 76.245339 102.328004
v    13.332771 55.711873 84.186219
v    19.057804 58.710739 90.191878
v    27.060632 62.937602 96.284369
v    38.724077 68.929840 100.487425
v    43.815229 71.806349 102.354243
v    45.828349 72.928565 102.328004
v    11.148136 60.944713 86.202330
v    8.607786 60.521958 86.202330
v    10.244078 58.533328 86.202330
v    8.851864 59.055287 110.017921
v    11.392214 59.478042 110.017921
v    9.755922 61.466672 110.017921
v    12.995213 54.283311 107.687517
v    6.827291 50.068594 114.629400
v    3.672430 47.864274 117.223259
v    -1.799219 44.158249 121.671653
v    -17.401358 33.314561 127.761887
v    -19.846649 31.755198 128.687761
v    -26.307870 27.582497 128.600196
v    -26.863905 27.320195 128.593365
v    4.967133 64.040060 107.687517
v    -0.356501 58.799257 114.629400
v    -3.127119 56.127955 117.223259
v    -7.817497 51.472428 121.671653
v    -21.462847 38.250601 127.761887
v    -23.463932 36.151383 128.687761
v    -28.802820 30.614679 128.600196
v    -29.167293 30.119565 128.593365
v    9.036323 58.991726 110.017921
v    11.355030 59.669568 110.017921
v    9.608648 61.338706 110.017921
v    10.963677 61.008274 131.192999
v    8.644970 60.330432 131.192999
v    10.391352 58.661294 131.192999
v    5.738700 65.739517 128.550840
v    12.112163 71.317711 136.421389
v    14.260415 73.237757 138.363244
v    21.039661 79.122056 144.405735
v    35.864021 92.305509 150.764625
v    39.728175 95.476501 152.360439
v    45.056092 99.900115 152.281600
v    47.437536 101.394119 152.250365
v    15.926295 56.002531 128.550840
v    21.210652 62.621657 136.421389
v    23.031617 64.854514 138.363244
v    28.603422 71.892848 144.405735
v    41.103214 87.298052 150.764625
v    44.096271 91.301610 152.360439
v    48.274498 96.824063 152.281600
v    49.659314 99.270613 152.250365
v    10.912312 60.929805 131.192999
v    8.738610 60.325183 131.192999
v    10.349079 58.745013 131.192999
v    9.087688 59.070195 145.756900
v    11.261390 59.674817 145.756900
v    9.650921 61.254987 145.756900
v    14.430930 54.123279 142.818589
v    9.878175 50.242873 148.377425
v    7.221834 48.053070 151.571326
v    -2.852649 39.537640 160.450615
v    -13.365377 30.432663 164.908425
v    -23.440721 22.383456 169.025372
v    -27.914354 19.670231 169.248515
v    4.040193 64.318527 142.818589
v    0.246946 59.692902 148.377425
v    -1.892016 56.995454 151.571326
v    -10.214589 46.761073 160.450615
v    -19.118278 36.077331 164.908425
v    -26.974695 25.850943 169.025372
v    -29.602473 21.326591 169.248515
v    9.239191 59.157025 145.756900
v    11.110442 59.762607 145.756900
v    9.650367 61.080367 145.756900
v    10.760809 60.842975 155.762689
v    8.889558 60.237393 155.762689
v    10.349633 58.919633 155.762689
v    4.955343 65.772333 152.557543
v    7.043264 67.707827 155.203142
v    12.581373 72.675115 162.105136
v    23.174042 82.413812 171.790772
v    30.733716 89.533776 175.119422
v    41.348519 98.764391 179.610239
v    46.283928 101.976290 181.440451
v    48.212816 103.264619 181.414679
v    16.257656 55.571668 152.557543
v    17.969639 57.846458 155.203142
v    22.344944 63.863210 162.105136
v    30.950117 75.395680 171.790772
v    37.260230 83.643408 175.119422
v    45.357720 95.145972 179.610239
v    48.048420 100.383785 181.440451
v    49.132878 102.434236 181.414679
v    10.858269 60.167082 155.762689
v    9.426168 60.659742 155.762689
v    9.715562 59.173176 155.762689
v    9.141731 59.832918 163.883974
v    10.573832 59.340258 163.883974
v    10.284438 60.826824 163.883974
v    11.004794 51.552280 160.454647
v    4.181271 50.845486 166.829331
v    0.057105 50.486615 170.670037
v    -15.262912 48.963373 181.033127
v    -31.236961 47.180738 186.185124
v    -46.249385 46.106349 190.990047
v    -57.957920 46.770430 191.240589
v    7.762428 68.207731 160.454647
v    1.172071 66.303205 166.829331
v    -2.785540 65.088773 170.670037
v    -17.558187 60.753787 181.033127
v    -33.034409 56.413904 186.185124
v    -47.353547 51.778230 190.990047
v    -57.957920 46.770430 191.240589
v    9.504762 59.591444 163.883974
v    10.601439 59.775389 163.883974
v    9.893799 60.633167 163.883974
v    10.495238 60.408556 168.360888
v    9.398561 60.224611 168.360888
v    10.106201 59.366833 168.360888
v    5.090520 66.553595 164.761894
v    14.728907 72.927916 175.482694
v    28.094868 82.005803 186.358500
v    33.399554 85.702687 188.431006
v    46.706647 94.212560 193.473653
v    57.440597 99.136979 197.144215
v    15.500977 53.934371 164.761894
v    23.591072 62.185482 175.482694
v    35.043951 73.582346 186.358500
v    39.681708 78.087660 188.431006
v    50.565739 89.534693 193.473653
v    57.440597 99.136979 197.144215
v    10.350583 60.263264 168.360888
v    9.596716 60.171982 168.360888
v    10.052701 59.564754 168.360888
v    9.649417 59.736736 170.517977
v    10.403284 59.828018 170.517977
v    9.947299 60.435246 170.517977
v    14.179260 54.147770 166.813180
v    3.968209 48.046017 177.849150
v    -3.870859 43.229799 184.042128
v    -10.407859 39.612045 189.044683
v    -17.072553 35.767076 191.501056
v    -28.342035 31.207797 195.279525
v    5.545328 65.645414 166.813180
v    -3.161807 57.540925 177.849150
v    -9.972957 51.355847 184.042128
v    -15.270092 46.086988 189.044683
v    -20.821037 40.758861 191.501056
v    -28.342035 31.207797 195.279525
v    9.784074 59.848765 170.517977
v    10.238936 59.888620 170.517977
v    9.976990 60.262615 170.517977
v    10.215926 60.151235 171.355000
v    9.761064 60.111380 171.355000
v    10.023010 59.737385 171.355000
v    7.965295 65.669362 164.218054
v    10.554146 66.651713 172.590370
v    12.940357 67.258614 179.773084
v    17.103425 68.822945 188.327008
v    22.549317 69.362467 197.800040
v    23.854224 69.703537 199.157891
v    14.632557 56.150180 164.218054
v    16.440554 58.247394 172.590370
v    17.826454 60.282490 179.773084
v    20.719412 63.660220 188.327008
v    23.087709 68.593778 197.800040
v    23.854224 69.703537 199.157891
v    12.506902 61.620744 1.127747
v    13.239255 61.895892 1.666470
v    13.944650 62.171249 1.909189
v    14.623621 62.405695 2.138507
v    15.171222 62.519072 2.153745
v    12.821513 60.974902 1.127747
v    13.489609 61.381959 1.666470
v    14.141252 61.767658 1.909189
v    14.744393 62.157772 2.138507
v    15.171222 62.519072 2.153745
v    8.139192 57.815829 1.585013
v    8.004513 57.726368 1.735257
v    7.020988 57.081024 2.564288
v    5.988824 56.383561 2.963582
v    5.212234 55.902544 3.255212
v    4.411398 55.523232 3.245331
v    7.462348 58.660770 1.585013
v    7.345650 58.548865 1.735257
v    6.501201 57.729904 2.564288
v    5.595273 56.874852 2.963582
v    4.956355 56.221972 3.255212
v    4.411398 55.523232 3.245331
v    12.308263 61.638496 2.359685
v    12.847772 61.784975 2.878342
v    14.210589 62.173054 3.832153
v    15.011735 62.411648 4.100093
v    16.354018 62.754048 4.542334
v    17.121728 62.839559 4.782422
v    17.395306 62.873341 4.779359
v    12.808990 60.349741 2.359685
v    13.305871 60.605936 2.878342
v    14.573205 61.239765 3.832153
v    15.325282 61.604654 4.100093
v    16.546628 62.258316 4.542334
v    17.170684 62.713556 4.782422
v    17.395306 62.873341 4.779359
v    6.968041 58.326124 4.752398
v    4.858666 58.033468 6.241387
v    3.075410 57.761851 6.819572
v    1.218216 57.553982 7.416177
v    -0.228338 57.580428 7.511103
v    6.539424 60.138030 4.752398
v    4.522492 59.454584 6.241387
v    2.806543 58.898444 6.819572
v    1.053052 58.252184 7.416177
v    -0.228338 57.580428 7.511103
v    10.980116 63.075546 6.051808
v    11.667352 63.710772 6.920050
v    13.503619 65.450455 8.622713
v    15.117455 67.016683 9.343559
v    16.958950 68.667118 10.133011
v    17.455695 69.001087 10.319054
v    18.533380 69.744462 10.304508
v    12.919342 61.377335 6.051808
v    13.458341 62.142374 6.920050
v    14.940538 64.192122 8.622713
v    16.280145 65.998497 9.343559
v    17.673184 68.041652 10.133011
v    17.938693 68.578118 10.319054
v    18.533380 69.744462 10.304508
v    6.678247 56.008945 13.370323
v    4.317425 54.794654 15.157330
v    0.758688 52.909722 16.448151
v    -1.813766 51.675309 17.359056
v    -4.534810 50.719939 17.326880
v    4.981690 58.666162 13.370323
v    2.886686 57.035536 15.157330
v    -0.320785 54.600437 16.448151
v    -2.523100 52.786297 17.359056
v    -4.534810 50.719939 17.326880
v    17.549017 67.393003 23.415526
v    20.806797 69.360105 24.635348
v    23.887077 71.057018 25.758063
v    24.408859 71.348382 25.751260
v    27.383625 72.524943 25.715717
v    19.402458 64.820575 23.415526
v    22.299650 67.288144 24.635348
v    24.884359 69.672870 25.758063
v    25.325910 70.075588 25.751260
v    27.383625 72.524943 25.715717
v    -6.188521 47.450071 39.776883
v    -7.134766 46.937876 40.121769
v    -11.925403 44.551823 40.086815
v    -14.171676 43.783562 40.060438
v    -15.683755 43.273026 39.777734
v    -8.024028 50.268435 39.776883
v    -8.875096 49.610100 40.121769
v    -12.994478 46.193354 40.086815
v    -14.605409 44.449546 40.060438
v    -15.683755 43.273026 39.777734
v    31.372608 73.791290 56.036914
v    31.862405 73.990094 56.205670
v    35.329375 75.420545 56.162972
v    40.059505 76.672160 56.108609
v    33.015979 70.828331 56.036914
v    33.443971 71.138568 56.205670
v    36.493176 73.322239 56.162972
v    40.059505 76.672160 56.108609
v    -22.839232 49.498522 79.743360
v    -25.125632 49.164875 79.717054
v    -30.323630 49.101121 79.659296
v    -30.993280 49.095535 79.540671
v    -23.716698 52.797191 79.743360
v    -25.866687 51.950731 79.717054
v    -30.409360 49.423407 79.659296
v    -30.993280 49.095535 79.540671
v    44.451522 76.245339 102.328004
v    45.264060 76.477565 102.318383
v    52.117983 77.483612 102.241415
v    45.828349 72.928565 102.328004
v    46.566481 73.340038 102.318383
v    52.117983 77.483612 102.241415
v    -26.863905 27.320195 128.593365
v    -33.279621 24.293666 128.514549
v    -33.546159 24.169206 128.462441
v    -29.167293 30.119565 128.593365
v    -33.372700 24.406787 128.514549
v    -33.546159 24.169206 128.462441
v    47.437536 101.394119 152.250365
v    52.746475 104.724693 152.180732
v    49.659314 99.270613 152.250365
v    52.746475 104.724693 152.180732
v    -27.914354 19.670231 169.248515
v    -32.032942 17.161095 169.194931
v    -29.602473 21.326591 169.248515
v    -32.032942 17.161095 169.194931
v    48.212816 103.264619 181.414679
v    50.314466 104.668337 181.386599
v    49.132878 102.434236 181.414679
v    50.314466 104.668337 181.386599
mtllib usm_3_Beer_2018-08-22_1.mtl
usemtl APPID_726660656_2277208157680 
o vid_3 
f 3 2 1
f 4 5 6
f 1 6 5
f 1 5 3
f 3 5 4
f 4 2 3
f 2 4 6
f 6 1 2
usemtl APPID_726660992_2277208155632 
o vid_4 
f 7 10 11
f 7 11 8
f 8 11 12
f 8 12 9
usemtl APPID_726660656_2277208157680 
o vid_5 
f 15 14 13
f 16 17 18
f 13 18 17
f 13 17 15
f 15 17 16
f 16 14 15
f 14 16 18
f 18 13 14
usemtl APPID_726660992_2277208155632 
o vid_6 
f 19 21 22
f 19 22 20
f 19 21 22
f 19 22 20
usemtl APPID_726660656_2277208157680 
o vid_7 
f 25 24 23
f 26 27 28
f 23 28 27
f 23 27 25
f 25 27 26
f 26 24 25
f 24 26 28
f 28 23 24
usemtl APPID_726660992_2277208155632 
o vid_8 
f 29 32 33
f 29 33 30
f 30 33 34
f 30 34 31
usemtl APPID_726660656_2277208157680 
o vid_9 
f 37 36 35
f 38 39 40
f 35 40 39
f 35 39 37
f 37 39 38
f 38 36 37
f 36 38 40
f 40 35 36
usemtl APPID_726660992_2277208155632 
o vid_10 
f 41 44 45
f 41 45 42
f 42 45 46
f 42 46 43
usemtl APPID_726660656_2277208157680 
o vid_11 
f 49 48 47
f 50 51 52
f 47 52 51
f 47 51 49
f 49 51 50
f 50 48 49
f 48 50 52
f 52 47 48
usemtl APPID_726660992_2277208155632 
o vid_12 
f 53 56 57
f 53 57 54
f 54 57 58
f 54 58 55
usemtl APPID_726660656_2277208157680 
o vid_13 
f 61 60 59
f 62 63 64
f 59 64 63
f 59 63 61
f 61 63 62
f 62 60 61
f 60 62 64
f 64 59 60
usemtl APPID_726660992_2277208155632 
o vid_14 
f 65 69 70
f 66 70 71
f 65 70 66
f 66 71 67
f 67 71 72
f 67 72 68
usemtl APPID_726660656_2277208157680 
o vid_15 
f 75 74 73
f 76 77 78
f 73 78 77
f 73 77 75
f 75 77 76
f 76 74 75
f 74 76 78
f 78 73 74
usemtl APPID_726660992_2277208155632 
o vid_16 
f 79 84 85
f 80 85 86
f 81 86 87
f 79 85 80
f 80 86 81
f 81 87 82
f 82 87 88
f 82 88 83
usemtl APPID_726660656_2277208157680 
o vid_17 
f 91 90 89
f 92 93 94
f 89 94 93
f 89 93 91
f 91 93 92
f 92 90 91
f 90 92 94
f 94 89 90
usemtl APPID_726660992_2277208155632 
o vid_18 
f 95 100 101
f 96 101 102
f 97 102 103
f 95 101 96
f 96 102 97
f 97 103 98
f 98 103 104
f 98 104 99
usemtl APPID_726660656_2277208157680 
o vid_19 
f 107 106 105
f 108 109 110
f 105 110 109
f 105 109 107
f 107 109 108
f 108 106 107
f 106 108 110
f 110 105 106
usemtl APPID_726660992_2277208155632 
o vid_20 
f 111 117 118
f 112 118 119
f 113 119 120
f 114 120 121
f 111 118 112
f 112 119 113
f 113 120 114
f 114 121 115
f 115 121 122
f 115 122 116
usemtl APPID_726660656_2277208157680 
o vid_21 
f 125 124 123
f 126 127 128
f 123 128 127
f 123 127 125
f 125 127 126
f 126 124 125
f 124 126 128
f 128 123 124
usemtl APPID_726660992_2277208155632 
o vid_22 
f 129 136 137
f 130 137 138
f 131 138 139
f 132 139 140
f 133 140 141
f 129 137 130
f 130 138 131
f 131 139 132
f 132 140 133
f 133 141 134
f 134 141 142
f 134 142 135
usemtl APPID_726660656_2277208157680 
o vid_23 
f 145 144 143
f 146 147 148
f 143 148 147
f 143 147 145
f 145 147 146
f 146 144 145
f 144 146 148
f 148 143 144
usemtl APPID_726660992_2277208155632 
o vid_24 
f 149 155 156
f 150 156 157
f 151 157 158
f 152 158 159
f 149 156 150
f 150 157 151
f 151 158 152
f 152 159 153
f 153 159 160
f 153 160 154
usemtl APPID_726660656_2277208157680 
o vid_25 
f 163 162 161
f 164 165 166
f 161 166 165
f 161 165 163
f 163 165 164
f 164 162 163
f 162 164 166
f 166 161 162
usemtl APPID_726660992_2277208155632 
o vid_26 
f 167 175 176
f 168 176 177
f 169 177 178
f 170 178 179
f 171 179 180
f 172 180 181
f 167 176 168
f 168 177 169
f 169 178 170
f 170 179 171
f 171 180 172
f 172 181 173
f 173 181 182
f 173 182 174
usemtl APPID_726660656_2277208157680 
o vid_27 
f 185 184 183
f 186 187 188
f 183 188 187
f 183 187 185
f 185 187 186
f 186 184 185
f 184 186 188
f 188 183 184
usemtl APPID_726660992_2277208155632 
o vid_28 
f 189 197 198
f 190 198 199
f 191 199 200
f 192 200 201
f 193 201 202
f 194 202 203
f 189 198 190
f 190 199 191
f 191 200 192
f 192 201 193
f 193 202 194
f 194 203 195
f 195 203 204
f 195 204 196
usemtl APPID_726660656_2277208157680 
o vid_29 
f 207 206 205
f 208 209 210
f 205 210 209
f 205 209 207
f 207 209 208
f 208 206 207
f 206 208 210
f 210 205 206
usemtl APPID_726660992_2277208155632 
o vid_30 
f 211 218 219
f 212 219 220
f 213 220 221
f 214 221 222
f 215 222 223
f 211 219 212
f 212 220 213
f 213 221 214
f 214 222 215
f 215 223 216
f 216 223 224
f 216 224 217
usemtl APPID_726660656_2277208157680 
o vid_31 
f 227 226 225
f 228 229 230
f 225 230 229
f 225 229 227
f 227 229 228
f 228 226 227
f 226 228 230
f 230 225 226
usemtl APPID_726660992_2277208155632 
o vid_32 
f 231 239 240
f 232 240 241
f 233 241 242
f 234 242 243
f 235 243 244
f 236 244 245
f 231 240 232
f 232 241 233
f 233 242 234
f 234 243 235
f 235 244 236
f 236 245 237
f 237 245 246
f 237 246 238
usemtl APPID_726660656_2277208157680 
o vid_33 
f 249 248 247
f 250 251 252
f 247 252 251
f 247 251 249
f 249 251 250
f 250 248 249
f 248 250 252
f 252 247 248
usemtl APPID_726660992_2277208155632 
o vid_34 
f 253 260 261
f 254 261 262
f 255 262 263
f 256 263 264
f 257 264 265
f 253 261 254
f 254 262 255
f 255 263 256
f 256 264 257
f 257 265 258
f 258 265 266
usemtl APPID_726660656_2277208157680 
o vid_35 
f 269 268 267
f 270 271 272
f 267 272 271
f 267 271 269
f 269 271 270
f 270 268 269
f 268 270 272
f 272 267 268
usemtl APPID_726660992_2277208155632 
o vid_36 
f 273 279 280
f 274 280 281
f 275 281 282
f 276 282 283
f 273 280 274
f 274 281 275
f 275 282 276
f 276 283 277
f 277 283 284
usemtl APPID_726660656_2277208157680 
o vid_37 
f 287 286 285
f 288 289 290
f 285 290 289
f 285 289 287
f 287 289 288
f 288 286 287
f 286 288 290
f 290 285 286
usemtl APPID_726660992_2277208155632 
o vid_38 
f 291 297 298
f 292 298 299
f 293 299 300
f 294 300 301
f 291 298 292
f 292 299 293
f 293 300 294
f 294 301 295
f 295 301 302
usemtl APPID_726660656_2277208157680 
o vid_39 
f 305 304 303
f 306 307 308
f 303 308 307
f 303 307 305
f 305 307 306
f 306 304 305
f 304 306 308
f 308 303 304
usemtl APPID_726660992_2277208155632 
o vid_40 
f 309 315 316
f 310 316 317
f 311 317 318
f 312 318 319
f 309 316 310
f 310 317 311
f 311 318 312
f 312 319 313
f 313 319 320
usemtl APPID_876928368_2277208154864 
o vid_10000004 
f 321 326 327
f 322 327 328
f 323 328 329
f 321 327 322
f 322 328 323
f 323 329 324
f 324 329 330
usemtl APPID_876928368_2277208154864 
o vid_10000006 
f 331 337 338
f 332 338 339
f 333 339 340
f 334 340 341
f 331 338 332
f 332 339 333
f 333 340 334
f 334 341 335
f 335 341 342
usemtl APPID_876928368_2277208154864 
o vid_10000008 
f 343 350 351
f 344 351 352
f 345 352 353
f 346 353 354
f 347 354 355
f 343 351 344
f 344 352 345
f 345 353 346
f 346 354 347
f 347 355 348
f 348 355 356
usemtl APPID_876928368_2277208154864 
o vid_10000010 
f 357 362 363
f 358 363 364
f 359 364 365
f 357 363 358
f 358 364 359
f 359 365 360
f 360 365 366
usemtl APPID_876928368_2277208154864 
o vid_10000012 
f 367 374 375
f 368 375 376
f 369 376 377
f 370 377 378
f 371 378 379
f 367 375 368
f 368 376 369
f 369 377 370
f 370 378 371
f 371 379 372
f 372 379 380
usemtl APPID_876928368_2277208154864 
o vid_10000014 
f 381 386 387
f 382 387 388
f 383 388 389
f 381 387 382
f 382 388 383
f 383 389 384
f 384 389 390
usemtl APPID_876928368_2277208154864 
o vid_10000016 
f 391 396 397
f 392 397 398
f 393 398 399
f 391 397 392
f 392 398 393
f 393 399 394
f 394 399 400
usemtl APPID_876928368_2277208154864 
o vid_10000018 
f 401 406 407
f 402 407 408
f 403 408 409
f 401 407 402
f 402 408 403
f 403 409 404
f 404 409 410
usemtl APPID_876928368_2277208154864 
o vid_10000020 
f 411 415 416
f 412 416 417
f 411 416 412
f 412 417 413
f 413 417 418
usemtl APPID_876928368_2277208154864 
o vid_10000022 
f 419 423 424
f 420 424 425
f 419 424 420
f 420 425 421
f 421 425 426
usemtl APPID_876928368_2277208154864 
o vid_10000024 
f 427 430 431
f 427 431 428
f 428 431 432
usemtl APPID_876928368_2277208154864 
o vid_10000026 
f 433 436 437
f 433 437 434
f 434 437 438
usemtl APPID_876928368_2277208154864 
o vid_10000028 
f 439 441 442
f 439 442 440
f 439 441 442
usemtl APPID_876928368_2277208154864 
o vid_10000030 
f 443 445 446
f 443 446 444
f 443 445 446
usemtl APPID_876928368_2277208154864 
o vid_10000032 
f 447 449 450
f 447 450 448
f 447 449 450
