# File generated by PlantGL - Fri Sep  4 14:43:38 2026
v    18.649787 339.342267 0.000000
v    21.244720 339.159548 0.000000
v    20.105493 341.498186 0.000000
v    21.350213 340.657733 0.362700
v    18.755280 340.840452 0.362700
v    19.894507 338.501814 0.362700
v    21.166324 341.008612 0.200499
v    21.413760 341.102950 0.446573
v    21.654011 341.190058 0.683668
v    22.335479 341.446669 1.173822
v    22.971362 341.694893 1.392623
v    23.644252 341.927239 1.619887
v    24.183887 342.038108 1.657547
v    21.513146 340.296645 0.200499
v    21.739955 340.433328 0.446573
v    21.956642 340.568809 0.683668
v    22.578775 340.947224 1.173822
v    23.166203 341.294916 1.392623
v    23.763943 341.681536 1.619887
v    24.183887 342.038108 1.657547
v    20.835357 340.669165 0.362700
v    19.002807 340.388858 0.362700
v    20.161836 338.941977 0.362700
v    19.164643 339.330835 0.532810
v    20.997193 339.611142 0.532810
v    19.838164 341.058023 0.532810
v    19.500805 338.937473 0.304087
v    18.882496 338.541233 0.985416
v    18.024843 337.976604 1.676596
v    17.711536 337.764893 1.797800
v    16.858143 337.236305 2.118270
v    16.171543 336.933202 2.351542
v    18.854136 339.744746 0.304087
v    18.332497 339.227828 0.985416
v    17.594290 338.514088 1.676596
v    17.319301 338.254542 1.797800
v    16.617196 337.537094 2.118270
v    16.171543 336.933202 2.351542
v    19.377771 339.758242 0.532810
v    20.520484 339.582013 0.532810
v    20.101746 340.659746 0.532810
v    20.622229 340.241758 0.593000
v    19.479516 340.417987 0.593000
v    19.898254 339.340254 0.593000
v    20.604062 340.690891 0.008118
v    20.901186 340.635991 1.357556
v    21.328312 340.516097 2.349512
v    20.912060 339.898177 0.008118
v    21.094176 340.139279 1.357556
v    21.328312 340.516097 2.349512
mtllib usm_17_2.5D_2018-07-26_8.mtl
usemtl APPID_1925998032_2183767563744 
o vid_3 
f 3 2 1
f 4 5 6
f 1 6 5
f 1 5 3
f 3 5 4
f 4 2 3
f 2 4 6
f 6 1 2
usemtl APPID_1925995568_2183767560544 
o vid_4 
f 7 14 15
f 8 15 16
f 9 16 17
f 10 17 18
f 11 18 19
f 7 15 8
f 8 16 9
f 9 17 10
f 10 18 11
f 11 19 12
f 12 19 20
usemtl APPID_1925998032_2183767563744 
o vid_5 
f 23 22 21
f 24 25 26
f 21 26 25
f 21 25 23
f 23 25 24
f 24 22 23
f 22 24 26
f 26 21 22
usemtl APPID_1925995568_2183767560544 
o vid_6 
f 27 33 34
f 28 34 35
f 29 35 36
f 30 36 37
f 27 34 28
f 28 35 29
f 29 36 30
f 30 37 31
f 31 37 38
usemtl APPID_1925998032_2183767563744 
o vid_7 
f 41 40 39
f 42 43 44
f 39 44 43
f 39 43 41
f 41 43 42
f 42 40 41
f 40 42 44
f 44 39 40
usemtl APPID_1925995568_2183767560544 
o vid_8 
f 45 48 49
f 45 49 46
f 46 49 50
