# File generated by PlantGL - Fri Sep  4 14:42:50 2026
v    58.201987 19.124129 0.000000
v    61.657533 18.880811 0.000000
v    60.140480 21.995060 0.000000
v    61.798013 20.875871 0.331061
v    58.342467 21.119189 0.331061
v    59.859520 18.004940 0.331061
v    61.383011 21.452572 -0.085637
v    62.230290 21.774414 0.773151
v    62.584556 21.899155 1.128134
v    63.805267 22.351593 1.944180
v    64.964051 22.759653 2.328973
v    66.273324 23.055942 2.659937
v    61.996298 20.193600 -0.085637
v    62.772004 20.662368 0.773151
v    63.088606 20.864428 1.128134
v    64.197338 21.546739 1.944180
v    65.232953 22.207642 2.328973
v    66.273324 23.055942 2.659937
v    61.503548 21.204422 0.331061
v    58.205166 20.699900 0.331061
v    60.291286 18.095678 0.331061
v    58.496452 18.795578 0.718770
v    61.794834 19.300100 0.718770
v    59.708714 21.904322 0.718770
v    59.285308 18.076928 0.143568
v    57.811194 17.100353 1.819033
v    57.373791 16.802376 2.151401
v    56.078418 15.959196 3.120245
v    55.264277 15.414720 3.367383
v    53.796524 14.487688 3.804288
v    53.192971 14.200122 3.969121
v    52.115514 13.684107 3.722176
v    57.967303 19.722267 0.143568
v    56.692533 18.496840 1.819033
v    56.306274 18.135018 2.151401
v    55.200694 17.054908 3.120245
v    54.491651 16.379232 3.367383
v    53.266618 15.149200 3.804288
v    52.854254 14.622962 3.969121
v    52.115514 13.684107 3.722176
v    58.272844 19.328938 0.718770
v    61.444735 18.839770 0.718770
v    60.282421 21.831292 0.718770
v    61.727156 20.671062 1.487000
v    58.555265 21.160230 1.487000
v    59.717579 18.168708 1.487000
v    60.989748 21.949782 0.711738
v    63.279998 22.609103 2.969945
v    64.437159 22.958484 3.729033
v    65.965589 23.385147 4.723730
v    67.777673 23.915378 5.200142
v    70.039705 24.513576 5.789008
v    72.530784 24.868659 5.413822
v    62.046515 19.229915 0.711738
v    64.181127 20.289811 2.969945
v    65.270625 20.813338 3.729033
v    66.686179 21.530519 4.723730
v    68.380902 22.362808 5.200142
v    70.453431 23.448743 5.789008
v    72.530784 24.868659 5.413822
v    61.731622 20.409625 1.487000
v    58.779443 21.294816 1.487000
v    59.488935 18.295559 1.487000
v    58.268378 19.590375 2.857087
v    61.220557 18.705184 2.857087
v    60.511065 21.704441 2.857087
v    59.008159 17.745038 1.836837
v    55.903336 17.301155 4.808653
v    53.742868 16.963736 6.181858
v    52.264930 16.764615 7.116646
v    49.130877 16.302601 7.916002
v    46.344666 15.965979 8.622319
v    42.756504 15.920951 7.879028
v    58.102967 21.571582 1.836837
v    55.128337 20.577336 4.808653
v    53.045671 19.911017 6.181858
v    51.635161 19.426859 7.116646
v    48.626274 18.435724 7.916002
v    45.984544 17.488335 8.622319
v    42.756504 15.920951 7.879028
v    58.876148 18.716648 2.857087
v    61.673341 19.668392 2.857087
v    59.450510 21.614960 2.857087
v    61.123852 21.283352 4.462301
v    58.326659 20.331608 4.462301
v    60.549490 18.385040 4.462301
v    58.810681 22.804979 3.151326
v    59.514876 23.476322 4.073222
v    61.728129 25.585304 6.969974
v    65.104587 28.886991 9.935641
v    70.341706 33.947085 11.773572
v    73.286117 36.637835 11.110145
v    76.745985 39.122624 10.229628
v    62.937376 19.191167 3.151326
v    63.509938 19.977783 4.073222
v    65.308467 22.449946 6.969974
v    68.135800 26.232509 9.935641
v    72.460672 32.091473 11.773572
v    74.739413 35.365160 11.110145
v    76.745985 39.122624 10.229628
v    61.375838 20.878433 4.462301
v    58.551335 20.752294 4.462301
v    60.072827 18.369272 4.462301
v    58.624162 19.121567 11.576758
v    61.448665 19.247706 11.576758
v    59.927173 21.630728 11.576758
v    61.052920 16.201634 9.931963
v    56.630647 13.896362 14.658427
v    51.344796 11.072046 18.443805
v    45.808914 8.042939 20.038353
v    42.884864 6.512069 20.871175
v    38.812125 4.375808 19.898629
v    34.317816 2.164881 18.842142
v    29.673075 0.633852 16.572730
v    29.662805 0.630566 16.566572
v    56.997402 22.553552 9.931963
v    53.045234 19.511982 14.658427
v    48.258812 15.905440 18.443805
v    43.181399 12.158260 20.038353
v    40.562197 10.149923 20.871175
v    36.910436 7.354311 19.898629
v    33.013539 4.207693 18.842142
v    29.670107 0.638500 16.572730
v    29.662805 0.630566 16.566572
v    58.735263 19.088754 11.576758
v    61.421531 19.360328 11.576758
v    59.843206 21.550918 11.576758
v    61.264737 20.911246 22.058017
v    58.578469 20.639672 22.058017
v    60.156794 18.449082 22.058017
v    58.001170 24.443810 20.043090
v    61.466220 26.727324 23.987808
v    63.214095 27.761585 25.912231
v    66.953153 30.039650 28.661858
v    69.412786 31.537513 30.470366
v    79.403280 37.756586 33.443971
v    88.669229 43.324079 31.157648
v    93.679482 46.095883 28.803746
v    98.634521 47.836263 24.706592
v    63.582567 16.697276 20.043090
v    66.845510 19.261297 23.987808
v    68.379872 20.591896 25.912231
v    71.724385 23.417560 28.661858
v    73.923815 25.276563 30.470366
v    82.985557 32.784670 33.443971
v    91.199871 39.811748 31.157648
v    95.415128 43.686945 28.803746
v    98.634521 47.836263 24.706592
v    61.244614 20.810576 22.058017
v    58.675713 20.672580 22.058017
v    60.079672 18.516844 22.058017
v    58.755386 19.189424 39.687747
v    61.324287 19.327420 39.687747
v    59.920328 21.483156 39.687747
v    62.409818 14.855573 37.277640
v    60.115056 13.507271 39.807160
v    55.927239 11.288450 44.297873
v    53.696472 10.069449 45.894319
v    48.308139 7.126444 49.749978
v    37.580094 1.129699 52.855554
v    27.353584 -4.351226 51.231344
v    21.707902 -7.192211 49.898220
v    16.515166 -9.030455 46.735099
v    14.565059 -9.590264 44.983862
v    56.269286 24.284171 37.277640
v    54.108239 22.730554 39.807160
v    50.385558 19.797530 44.297873
v    48.368647 18.250161 45.894319
v    43.498197 14.511962 49.749978
v    33.675678 7.124808 52.855554
v    24.527726 -0.012208 51.231344
v    19.646526 -4.027031 49.898220
v    15.865585 -8.033044 46.735099
v    14.565059 -9.590264 44.983862
v    58.765415 19.315252 39.687747
v    61.210302 19.273192 39.687747
v    60.024283 21.411556 39.687747
v    61.234585 20.684748 66.536732
v    58.789698 20.726808 66.536732
v    59.975717 18.588444 66.536732
v    57.633660 25.498508 63.721961
v    60.229800 26.646544 66.411716
v    65.547934 28.996739 71.920912
v    74.768453 33.214740 78.288441
v    77.655387 34.569772 79.094284
v    89.768671 39.986132 82.442448
v    97.843927 43.361169 80.596235
v    106.639523 45.868077 78.705692
v    63.411510 15.081184 63.721961
v    65.760041 16.675652 66.411716
v    70.569655 19.942697 71.920912
v    79.030038 25.531205 78.288441
v    81.708140 27.262756 79.094284
v    92.716803 34.670720 82.442448
v    99.855680 39.734027 80.596235
v    106.639523 45.868077 78.705692
v    61.101543 20.293017 66.536732
v    59.195468 20.807456 66.536732
v    59.702989 18.899527 66.536732
v    58.898457 19.706983 106.673854
v    60.804532 19.192544 106.673854
v    60.297011 21.100473 106.673854
v    61.500983 13.534978 103.464042
v    51.775410 11.868127 112.813680
v    40.405158 9.768216 120.074863
v    24.042434 6.867038 124.268543
v    14.395057 5.421666 123.209591
v    3.970684 5.095857 121.053720
v    58.090424 26.356334 103.464042
v    48.822062 22.970681 112.813680
v    37.911226 19.143686 120.074863
v    22.269641 13.531520 124.268543
v    13.179184 9.992512 123.209591
v    3.970684 5.095857 121.053720
v    59.187604 19.662766 106.673854
v    60.698251 19.465062 106.673854
v    60.114145 20.872172 106.673854
v    60.812396 20.337234 148.554672
v    59.301749 20.534938 148.554672
v    59.885855 19.127828 148.554672
v    57.116203 26.544964 144.980745
v    67.601867 29.825153 155.390991
v    78.120553 33.265530 162.340994
v    94.152273 38.333876 167.261661
v    99.834289 39.976459 168.750233
v    104.555001 41.346270 167.713416
v    116.010376 43.250488 165.312986
v    62.599036 13.336829 144.980745
v    72.325156 18.446760 155.390991
v    82.188032 23.466982 162.340994
v    97.096149 31.242083 167.261661
v    102.271046 34.106317 168.750233
v    106.574064 36.482351 167.713416
v    116.010376 43.250488 165.312986
v    60.496020 20.408137 148.554672
v    59.398533 20.225497 148.554672
v    60.105447 19.366366 148.554672
v    59.503980 19.591863 183.833557
v    60.601467 19.774503 183.833557
v    59.894553 20.633634 183.833557
v    64.959463 14.730488 179.948104
v    55.089319 8.003703 191.265771
v    51.100937 5.209347 194.324010
v    43.504027 0.121251 200.055380
v    36.830298 -4.469822 202.099341
v    26.998731 -10.861414 205.050614
v    24.310413 -12.185827 205.789487
v    15.705417 -16.446614 203.804640
v    55.784212 25.881425 179.948104
v    47.282563 17.491471 191.265771
v    43.772435 14.115879 194.324010
v    37.316578 7.641031 200.055380
v    31.526224 1.976366 202.099341
v    23.360923 -6.440284 205.050614
v    21.543588 -8.823227 205.789487
v    15.705417 -16.446614 203.804640
v    59.704234 19.690546 183.833557
v    60.415878 19.898586 183.833557
v    59.879888 20.410868 183.833557
v    60.295766 20.309454 203.503000
v    59.584122 20.101414 203.503000
v    60.120112 19.589132 203.503000
v    54.531471 23.469806 195.114813
v    56.150135 24.832027 197.900753
v    62.794221 30.099107 209.025487
v    66.438519 33.149031 213.216026
v    73.105660 38.357738 220.644498
v    84.867718 46.018544 226.611371
v    63.713481 14.693926 195.114813
v    65.001132 16.372519 197.900753
v    69.962460 23.247927 209.025487
v    72.844513 27.026381 213.216026
v    77.746485 33.922181 220.644498
v    84.867718 46.018544 226.611371
mtllib usm_29_Beer_2018-09-13_1.mtl
usemtl APPID_2589943056_1742050148352 
o vid_3 
f 3 2 1
f 4 5 6
f 1 6 5
f 1 5 3
f 3 5 4
f 4 2 3
f 2 4 6
f 6 1 2
usemtl APPID_2589940928_1742050148096 
o vid_4 
f 7 13 14
f 8 14 15
f 9 15 16
f 10 16 17
f 7 14 8
f 8 15 9
f 9 16 10
f 10 17 11
f 11 17 18
usemtl APPID_2589943056_1742050148352 
o vid_5 
f 21 20 19
f 22 23 24
f 19 24 23
f 19 23 21
f 21 23 22
f 22 20 21
f 20 22 24
f 24 19 20
usemtl APPID_2589940928_1742050148096 
o vid_6 
f 25 33 34
f 26 34 35
f 27 35 36
f 28 36 37
f 29 37 38
f 30 38 39
f 25 34 26
f 26 35 27
f 27 36 28
f 28 37 29
f 29 38 30
f 30 39 31
f 31 39 40
usemtl APPID_2589943056_1742050148352 
o vid_7 
f 43 42 41
f 44 45 46
f 41 46 45
f 41 45 43
f 43 45 44
f 44 42 43
f 42 44 46
f 46 41 42
usemtl APPID_2589940928_1742050148096 
o vid_8 
f 47 54 55
f 48 55 56
f 49 56 57
f 50 57 58
f 51 58 59
f 47 55 48
f 48 56 49
f 49 57 50
f 50 58 51
f 51 59 52
f 52 59 60
usemtl APPID_2589943056_1742050148352 
o vid_9 
f 63 62 61
f 64 65 66
f 61 66 65
f 61 65 63
f 63 65 64
f 64 62 63
f 62 64 66
f 66 61 62
usemtl APPID_2589940928_1742050148096 
o vid_10 
f 67 74 75
f 68 75 76
f 69 76 77
f 70 77 78
f 71 78 79
f 67 75 68
f 68 76 69
f 69 77 70
f 70 78 71
f 71 79 72
f 72 79 80
usemtl APPID_2589943056_1742050148352 
o vid_11 
f 83 82 81
f 84 85 86
f 81 86 85
f 81 85 83
f 83 85 84
f 84 82 83
f 82 84 86
f 86 81 82
usemtl APPID_2589940928_1742050148096 
o vid_12 
f 87 94 95
f 88 95 96
f 89 96 97
f 90 97 98
f 91 98 99
f 87 95 88
f 88 96 89
f 89 97 90
f 90 98 91
f 91 99 92
f 92 99 100
usemtl APPID_2589943056_1742050148352 
o vid_13 
f 103 102 101
f 104 105 106
f 101 106 105
f 101 105 103
f 103 105 104
f 104 102 103
f 102 104 106
f 106 101 102
usemtl APPID_2589940928_1742050148096 
o vid_14 
f 107 116 117
f 108 117 118
f 109 118 119
f 110 119 120
f 111 120 121
f 112 121 122
f 113 122 123
f 107 117 108
f 108 118 109
f 109 119 110
f 110 120 111
f 111 121 112
f 112 122 113
f 113 123 114
f 114 123 124
usemtl APPID_2589943056_1742050148352 
o vid_15 
f 127 126 125
f 128 129 130
f 125 130 129
f 125 129 127
f 127 129 128
f 128 126 127
f 126 128 130
f 130 125 126
usemtl APPID_2589940928_1742050148096 
o vid_16 
f 131 140 141
f 132 141 142
f 133 142 143
f 134 143 144
f 135 144 145
f 136 145 146
f 137 146 147
f 131 141 132
f 132 142 133
f 133 143 134
f 134 144 135
f 135 145 136
f 136 146 137
f 137 147 138
f 138 147 148
usemtl APPID_2589943056_1742050148352 
o vid_17 
f 151 150 149
f 152 153 154
f 149 154 153
f 149 153 151
f 151 153 152
f 152 150 151
f 150 152 154
f 154 149 150
usemtl APPID_2589940928_1742050148096 
o vid_18 
f 155 165 166
f 156 166 167
f 157 167 168
f 158 168 169
f 159 169 170
f 160 170 171
f 161 171 172
f 162 172 173
f 155 166 156
f 156 167 157
f 157 168 158
f 158 169 159
f 159 170 160
f 160 171 161
f 161 172 162
f 162 173 163
f 163 173 174
usemtl APPID_2589943056_1742050148352 
o vid_19 
f 177 176 175
f 178 179 180
f 175 180 179
f 175 179 177
f 177 179 178
f 178 176 177
f 176 178 180
f 180 175 176
usemtl APPID_2589940928_1742050148096 
o vid_20 
f 181 189 190
f 182 190 191
f 183 191 192
f 184 192 193
f 185 193 194
f 186 194 195
f 181 190 182
f 182 191 183
f 183 192 184
f 184 193 185
f 185 194 186
f 186 195 187
f 187 195 196
usemtl APPID_2589943056_1742050148352 
o vid_21 
f 199 198 197
f 200 201 202
f 197 202 201
f 197 201 199
f 199 201 200
f 200 198 199
f 198 200 202
f 202 197 198
usemtl APPID_2589940928_1742050148096 
o vid_22 
f 203 209 210
f 204 210 211
f 205 211 212
f 206 212 213
f 203 210 204
f 204 211 205
f 205 212 206
f 206 213 207
f 207 213 214
usemtl APPID_2589943056_1742050148352 
o vid_23 
f 217 216 215
f 218 219 220
f 215 220 219
f 215 219 217
f 217 219 218
f 218 216 217
f 216 218 220
f 220 215 216
usemtl APPID_2589940928_1742050148096 
o vid_24 
f 221 228 229
f 222 229 230
f 223 230 231
f 224 231 232
f 225 232 233
f 221 229 222
f 222 230 223
f 223 231 224
f 224 232 225
f 225 233 226
f 226 233 234
usemtl APPID_2589943056_1742050148352 
o vid_25 
f 237 236 235
f 238 239 240
f 235 240 239
f 235 239 237
f 237 239 238
f 238 236 237
f 236 238 240
f 240 235 236
usemtl APPID_2589940928_1742050148096 
o vid_26 
f 241 249 250
f 242 250 251
f 243 251 252
f 244 252 253
f 245 253 254
f 246 254 255
f 241 250 242
f 242 251 243
f 243 252 244
f 244 253 245
f 245 254 246
f 246 255 247
f 247 255 256
usemtl APPID_2589943056_1742050148352 
o vid_27 
f 259 258 257
f 260 261 262
f 257 262 261
f 257 261 259
f 259 261 260
f 260 258 259
f 258 260 262
f 262 257 258
usemtl APPID_2589940928_1742050148096 
o vid_28 
f 263 269 270
f 264 270 271
f 265 271 272
f 266 272 273
f 263 270 264
f 264 271 265
f 265 272 266
f 266 273 267
f 267 273 274
