# File generated by PlantGL - Fri Sep  4 14:41:12 2026
v    8.310347 19.176915 0.000000
v    11.557639 18.948260 0.000000
v    10.132014 21.874825 0.000000
v    11.689653 20.823085 0.231332
v    8.442361 21.051740 0.231332
v    9.867986 18.125175 0.231332
v    11.399565 21.200371 -0.099049
v    12.316584 21.523265 0.819826
v    13.136045 21.798431 1.374450
v    13.517419 21.871926 1.610682
v    14.124997 22.009421 1.764268
v    11.807915 20.362098 -0.099049
v    12.627440 20.885131 0.819826
v    13.349246 21.360766 1.374450
v    13.642205 21.615762 1.610682
v    14.124997 22.009421 1.764268
v    11.178005 20.943645 0.231332
v    8.593777 20.548360 0.231332
v    10.228218 18.507995 0.231332
v    8.821995 19.056355 0.322458
v    11.406223 19.451640 0.322458
v    9.771782 21.492005 0.322458
v    9.310872 18.656090 -0.131501
v    8.346471 18.050602 0.944756
v    8.120286 17.919305 1.190804
v    7.357093 17.454347 1.749087
v    6.651188 17.145474 2.217741
v    6.121461 16.893084 2.362412
v    8.538082 19.620808 -0.131501
v    7.736702 18.811811 0.944756
v    7.559204 18.619736 1.190804
v    6.938882 17.976424 1.749087
v    6.483384 17.354952 2.217741
v    6.121461 16.893084 2.362412
v    8.916670 19.579087 0.322458
v    10.906186 19.272265 0.322458
v    10.177144 21.148648 0.322458
v    11.083330 20.420913 0.466406
v    9.093814 20.727735 0.466406
v    9.822856 18.851352 0.466406
v    10.649291 21.052343 -0.141695
v    11.430977 21.256810 0.621967
v    12.475935 21.491743 1.629602
v    12.823370 21.577642 1.853182
v    14.537214 21.762870 2.901663
v    11.189459 19.662077 -0.141695
v    11.904139 20.039002 0.621967
v    12.833598 20.571201 1.629602
v    13.147889 20.742406 1.853182
v    14.537214 21.762870 2.901663
v    10.815565 20.192927 0.466406
v    9.425138 20.609837 0.466406
v    9.759297 19.197236 0.466406
v    9.184435 19.807073 0.639349
v    10.574862 19.390163 0.639349
v    10.240703 20.802764 0.639349
v    9.619994 18.963669 -0.154789
v    9.030847 18.894099 0.405908
v    7.236934 18.745134 2.099428
v    4.996924 18.816494 3.482045
v    9.195951 20.756236 -0.154789
v    8.638077 20.554471 0.405908
v    6.967551 19.883903 2.099428
v    4.996924 18.816494 3.482045
v    9.646286 19.596086 0.639349
v    10.526657 19.895632 0.639349
v    9.827057 20.508282 0.639349
v    10.353714 20.403914 0.716000
v    9.473343 20.104368 0.716000
v    10.172943 19.491718 0.716000
v    9.718284 20.868755 -1.323553
v    9.821489 20.926859 -0.980416
v    11.048945 21.197815 2.129802
v    10.898330 19.835371 -1.323553
v    10.942309 19.945340 -0.980416
v    11.048945 21.197815 2.129802
mtllib usm_9_Beer_2018-07-18_0.mtl
usemtl APPID_2995600480_1179966651536 
o vid_3 
f 3 2 1
f 4 5 6
f 1 6 5
f 1 5 3
f 3 5 4
f 4 2 3
f 2 4 6
f 6 1 2
usemtl APPID_2995603728_1179966648720 
o vid_4 
f 7 12 13
f 8 13 14
f 9 14 15
f 7 13 8
f 8 14 9
f 9 15 10
f 10 15 16
usemtl APPID_2995600480_1179966651536 
o vid_5 
f 19 18 17
f 20 21 22
f 17 22 21
f 17 21 19
f 19 21 20
f 20 18 19
f 18 20 22
f 22 17 18
usemtl APPID_2995603728_1179966648720 
o vid_6 
f 23 29 30
f 24 30 31
f 25 31 32
f 26 32 33
f 23 30 24
f 24 31 25
f 25 32 26
f 26 33 27
f 27 33 34
usemtl APPID_2995600480_1179966651536 
o vid_7 
f 37 36 35
f 38 39 40
f 35 40 39
f 35 39 37
f 37 39 38
f 38 36 37
f 36 38 40
f 40 35 36
usemtl APPID_2995603728_1179966648720 
o vid_8 
f 41 46 47
f 42 47 48
f 43 48 49
f 41 47 42
f 42 48 43
f 43 49 44
f 44 49 50
usemtl APPID_2995600480_1179966651536 
o vid_9 
f 53 52 51
f 54 55 56
f 51 56 55
f 51 55 53
f 53 55 54
f 54 52 53
f 52 54 56
f 56 51 52
usemtl APPID_2995603728_1179966648720 
o vid_10 
f 57 61 62
f 58 62 63
f 57 62 58
f 58 63 59
f 59 63 64
usemtl APPID_2995600480_1179966651536 
o vid_11 
f 67 66 65
f 68 69 70
f 65 70 69
f 65 69 67
f 67 69 68
f 68 66 67
f 66 68 70
f 70 65 66
usemtl APPID_2995603728_1179966648720 
o vid_12 
f 71 74 75
f 71 75 72
f 72 75 76
