# File generated by PlantGL - Fri Sep  4 14:43:33 2026
v    18.201987 19.124129 0.000000
v    21.657533 18.880811 0.000000
v    20.140480 21.995060 0.000000
v    21.798013 20.875871 0.331061
v    18.342467 21.119189 0.331061
v    19.859520 18.004940 0.331061
v    21.389631 21.448589 -0.071093
v    22.393545 21.829929 0.946456
v    23.907969 22.388382 2.010061
v    25.092175 22.810147 2.326466
v    26.188328 23.058207 2.603556
v    26.357119 23.096761 2.567767
v    21.997242 20.201268 -0.071093
v    22.916351 20.756696 0.946456
v    24.289614 21.604929 2.010061
v    25.351692 22.277403 2.326466
v    26.222714 22.987618 2.603556
v    26.357119 23.096761 2.567767
v    21.503548 21.204422 0.331061
v    18.205166 20.699900 0.331061
v    20.291286 18.095678 0.331061
v    18.496452 18.795578 0.718770
v    21.794834 19.300100 0.718770
v    19.708714 21.904322 0.718770
v    19.274516 18.081312 0.163208
v    17.850736 17.138082 1.781465
v    17.152118 16.662156 2.312322
v    16.181535 16.030387 3.038247
v    15.076759 15.291542 3.373608
v    13.659123 14.396163 3.795596
v    12.032802 13.617850 3.537883
v    17.969227 19.710779 0.163208
v    16.737984 18.527194 1.781465
v    16.121052 17.949295 2.312322
v    15.292675 17.140001 3.038247
v    14.330515 16.223121 3.373608
v    13.147310 15.035088 3.795596
v    12.032802 13.617850 3.537883
v    18.272844 19.328938 0.718770
v    21.444735 18.839770 0.718770
v    20.282421 21.831292 0.718770
v    21.727156 20.671062 1.487000
v    18.555265 21.160230 1.487000
v    19.717579 18.168708 1.487000
v    21.001942 21.939106 0.737665
v    23.215599 22.576377 2.920351
v    24.760497 23.042827 3.933792
v    25.807970 23.335230 4.615484
v    28.049596 23.991149 5.204826
v    30.033714 24.515852 5.721343
v    32.648061 24.914225 5.173525
v    22.048302 19.246023 0.737665
v    24.111525 20.270473 2.920351
v    25.566089 20.969422 3.933792
v    26.536205 21.460925 4.615484
v    28.632651 22.490502 5.204826
v    30.450548 23.443018 5.721343
v    32.648061 24.914225 5.173525
v    21.731622 20.409625 1.487000
v    18.779443 21.294816 1.487000
v    19.488935 18.295559 1.487000
v    18.268378 19.590375 2.857581
v    21.220557 18.705184 2.857581
v    20.511065 21.704441 2.857581
v    18.994328 17.761460 1.870792
v    15.991335 17.332135 4.745141
v    13.322367 16.915299 6.441551
v    12.475106 16.801149 6.977439
v    8.778762 16.256244 7.920211
v    6.753078 16.011507 8.433731
v    5.813819 15.897074 8.234147
v    2.607521 15.885709 7.571370
v    18.097960 21.550704 1.870792
v    15.220889 20.589066 4.745141
v    12.648036 19.765918 6.441551
v    11.839429 19.488364 6.977439
v    8.290709 18.319407 7.920211
v    6.370067 17.630618 8.433731
v    5.479087 17.312097 8.234147
v    2.607521 15.885709 7.571370
v    19.025152 18.886799 2.857581
v    21.451484 19.712358 2.857581
v    19.523364 21.400843 2.857581
v    20.974848 21.113201 4.464214
v    18.548516 20.287642 4.464214
v    20.476636 18.599157 4.464214
v    18.688977 22.627155 3.195461
v    19.875503 23.758327 4.748801
v    21.512336 25.318047 6.891124
v    24.780049 28.513397 9.761276
v    26.138221 29.867792 10.245945
v    30.103213 33.679105 11.633687
v    33.363544 36.679032 10.698818
v    36.711981 39.083794 9.846660
v    22.777164 19.047065 3.195461
v    23.741897 20.372464 4.748801
v    25.072017 22.200778 6.891124
v    27.808291 25.861518 9.761276
v    28.971649 27.386514 10.245945
v    32.226502 31.819707 11.633687
v    34.770035 35.447346 10.698818
v    36.711981 39.083794 9.846660
v    20.978450 20.624713 4.464214
v    18.969758 20.535006 4.464214
v    20.051792 18.840281 4.464214
v    19.021550 19.375287 10.752587
v    21.030242 19.464994 10.752587
v    19.948208 21.159719 10.752587
v    21.345648 16.591277 9.159886
v    17.678469 14.690549 13.073723
v    11.938792 11.633880 17.402139
v    7.398010 9.149269 18.710060
v    3.737534 7.232847 19.752629
v    0.629972 5.602847 19.010561
v    -3.721992 3.461945 17.987536
v    -5.945459 2.676706 17.500103
v    -8.324592 1.915556 16.073538
v    17.474049 22.655133 9.159886
v    14.206615 20.128309 13.073723
v    9.018439 16.207856 17.402139
v    4.853714 13.134249 18.710060
v    1.574864 10.620109 19.752629
v    -1.211486 8.487014 19.010561
v    -4.984959 5.440057 17.987536
v    -6.632949 3.753480 17.500103
v    -8.324592 1.915556 16.073538
v    19.298176 19.494334 10.752587
v    20.788831 19.645036 10.752587
v    19.912993 20.860630 10.752587
v    20.701824 20.505666 22.165711
v    19.211169 20.354964 22.165711
v    20.087007 19.139370 22.165711
v    17.542910 23.924079 20.213638
v    19.976162 25.684091 23.070747
v    22.468742 27.311131 25.899697
v    28.456267 30.993985 30.315647
v    38.135084 37.019112 33.196494
v    42.063096 39.467606 32.216320
v    45.796506 41.701474 31.296283
v    49.288598 43.790949 30.435716
v    53.113391 45.901332 27.873736
v    58.638186 48.013875 22.711592
v    58.962966 48.072909 22.164107
v    22.944500 16.427101 20.213638
v    25.384248 18.178097 23.070747
v    27.716642 20.027462 25.899697
v    33.105453 24.541285 30.315647
v    41.884561 31.815136 33.196494
v    45.450551 34.766088 32.216320
v    48.751350 37.600385 31.296283
v    51.838794 40.251480 30.435716
v    55.051385 43.211550 27.873736
v    58.804160 47.783517 22.711592
v    58.962966 48.072909 22.164107
v    20.496186 20.323150 22.165711
v    19.472051 20.268135 22.165711
v    20.031763 19.408715 22.165711
v    19.503814 19.676850 31.492000
v    20.527949 19.731865 31.492000
v    19.968237 20.591285 31.492000
v    23.295406 15.952354 26.769996
v    19.154978 13.803644 32.033137
v    17.471122 12.930356 34.173238
v    10.500111 9.166420 40.170598
v    5.121738 6.172683 42.312134
v    -1.186165 2.815703 44.794446
v    -4.636033 0.960744 44.317380
v    -11.077447 -2.293577 43.440578
v    -15.621977 -3.961379 42.863880
v    -18.089844 -4.806647 41.654338
v    17.630493 24.650653 26.769996
v    13.991098 21.732623 32.033137
v    12.511520 20.545672 34.173238
v    6.250289 15.691890 40.170598
v    1.337467 11.983314 42.312134
v    -4.283432 7.571463 44.794446
v    -7.374935 5.166244 44.317380
v    -12.955928 0.590773 43.440578
v    -16.318880 -2.891306 42.863880
v    -18.089844 -4.806647 41.654338
mtllib usm_37_2.5D_2018-08-19_0.mtl
usemtl APPID_3043689408_2275079475184 
o vid_3 
f 3 2 1
f 4 5 6
f 1 6 5
f 1 5 3
f 3 5 4
f 4 2 3
f 2 4 6
f 6 1 2
usemtl APPID_3043689520_2275079474672 
o vid_4 
f 7 13 14
f 8 14 15
f 9 15 16
f 10 16 17
f 7 14 8
f 8 15 9
f 9 16 10
f 10 17 11
f 11 17 18
usemtl APPID_3043689408_2275079475184 
o vid_5 
f 21 20 19
f 22 23 24
f 19 24 23
f 19 23 21
f 21 23 22
f 22 20 21
f 20 22 24
f 24 19 20
usemtl APPID_3043689520_2275079474672 
o vid_6 
f 25 32 33
f 26 33 34
f 27 34 35
f 28 35 36
f 29 36 37
f 25 33 26
f 26 34 27
f 27 35 28
f 28 36 29
f 29 37 30
f 30 37 38
usemtl APPID_3043689408_2275079475184 
o vid_7 
f 41 40 39
f 42 43 44
f 39 44 43
f 39 43 41
f 41 43 42
f 42 40 41
f 40 42 44
f 44 39 40
usemtl APPID_3043689520_2275079474672 
o vid_8 
f 45 52 53
f 46 53 54
f 47 54 55
f 48 55 56
f 49 56 57
f 45 53 46
f 46 54 47
f 47 55 48
f 48 56 49
f 49 57 50
f 50 57 58
usemtl APPID_3043689408_2275079475184 
o vid_9 
f 61 60 59
f 62 63 64
f 59 64 63
f 59 63 61
f 61 63 62
f 62 60 61
f 60 62 64
f 64 59 60
usemtl APPID_3043689520_2275079474672 
o vid_10 
f 65 73 74
f 66 74 75
f 67 75 76
f 68 76 77
f 69 77 78
f 70 78 79
f 65 74 66
f 66 75 67
f 67 76 68
f 68 77 69
f 69 78 70
f 70 79 71
f 71 79 80
usemtl APPID_3043689408_2275079475184 
o vid_11 
f 83 82 81
f 84 85 86
f 81 86 85
f 81 85 83
f 83 85 84
f 84 82 83
f 82 84 86
f 86 81 82
usemtl APPID_3043689520_2275079474672 
o vid_12 
f 87 95 96
f 88 96 97
f 89 97 98
f 90 98 99
f 91 99 100
f 92 100 101
f 87 96 88
f 88 97 89
f 89 98 90
f 90 99 91
f 91 100 92
f 92 101 93
f 93 101 102
usemtl APPID_3043689408_2275079475184 
o vid_13 
f 105 104 103
f 106 107 108
f 103 108 107
f 103 107 105
f 105 107 106
f 106 104 105
f 104 106 108
f 108 103 104
usemtl APPID_3043689520_2275079474672 
o vid_14 
f 109 118 119
f 110 119 120
f 111 120 121
f 112 121 122
f 113 122 123
f 114 123 124
f 115 124 125
f 109 119 110
f 110 120 111
f 111 121 112
f 112 122 113
f 113 123 114
f 114 124 115
f 115 125 116
f 116 125 126
usemtl APPID_3043689408_2275079475184 
o vid_15 
f 129 128 127
f 130 131 132
f 127 132 131
f 127 131 129
f 129 131 130
f 130 128 129
f 128 130 132
f 132 127 128
usemtl APPID_3043689520_2275079474672 
o vid_16 
f 133 144 145
f 134 145 146
f 135 146 147
f 136 147 148
f 137 148 149
f 138 149 150
f 139 150 151
f 140 151 152
f 141 152 153
f 133 145 134
f 134 146 135
f 135 147 136
f 136 148 137
f 137 149 138
f 138 150 139
f 139 151 140
f 140 152 141
f 141 153 142
f 142 153 154
usemtl APPID_3043689408_2275079475184 
o vid_17 
f 157 156 155
f 158 159 160
f 155 160 159
f 155 159 157
f 157 159 158
f 158 156 157
f 156 158 160
f 160 155 156
usemtl APPID_3043689520_2275079474672 
o vid_18 
f 161 171 172
f 162 172 173
f 163 173 174
f 164 174 175
f 165 175 176
f 166 176 177
f 167 177 178
f 168 178 179
f 161 172 162
f 162 173 163
f 163 174 164
f 164 175 165
f 165 176 166
f 166 177 167
f 167 178 168
f 168 179 169
f 169 179 180
