# File generated by PlantGL - Fri Sep  4 14:41:41 2026
v    137.752484 18.905161 0.000000
v    142.071916 18.601013 0.000000
v    140.175600 22.493825 0.000000
v    142.247516 21.094839 0.848018
v    137.928084 21.398987 0.848018
v    139.824400 17.506175 0.848018
v    142.062184 21.449156 0.688716
v    142.418649 21.585061 1.043219
v    142.540278 21.629160 1.163250
v    143.209568 21.881186 1.644646
v    143.981245 22.182418 1.910172
v    144.496101 22.360196 2.084060
v    142.412266 20.730496 0.688716
v    142.739014 20.927406 1.043219
v    142.848714 20.995994 1.163250
v    143.459730 21.367647 1.644646
v    144.172605 21.789589 1.910172
v    144.629959 22.085407 2.084060
v    141.879284 21.505407 0.848018
v    137.756638 20.874804 0.848018
v    140.364078 17.619789 0.848018
v    138.120716 18.494593 1.416666
v    142.243362 19.125196 1.416666
v    139.635922 22.380211 1.416666
v    138.493117 18.055620 1.191176
v    137.952793 17.696709 1.793949
v    137.044720 17.099981 2.544278
v    135.956020 16.364314 2.965444
v    135.269751 15.939242 3.223156
v    135.058173 15.814981 3.220373
v    137.773606 18.953827 1.191176
v    137.305418 18.504865 1.793949
v    136.524880 17.748926 2.544278
v    135.569331 16.847040 2.965444
v    135.004722 16.270092 3.223156
v    134.837278 16.090737 3.220373
v    137.841416 19.161313 1.416666
v    141.805616 18.549955 1.416666
v    140.352968 22.288732 1.416666
v    142.158584 20.838687 2.253758
v    138.194384 21.450045 2.253758
v    139.647032 17.711268 2.253758
v    141.871433 21.515662 1.940857
v    142.839874 21.781768 2.872938
v    144.190898 22.166488 3.818495
v    145.048301 22.421837 4.105250
v    146.378970 22.761274 4.543665
v    146.787855 22.806817 4.671537
v    142.403819 20.145427 1.940857
v    143.297879 20.602969 2.872938
v    144.554247 21.231314 3.818495
v    145.359135 21.621825 4.105250
v    146.569913 22.269831 4.543665
v    146.902288 22.512294 4.671537
v    142.163962 20.511898 2.253758
v    138.474702 21.618097 2.253758
v    139.361335 17.870005 2.253758
v    137.836038 19.488102 4.113040
v    141.525298 18.381903 4.113040
v    140.638665 22.129995 4.113040
v    138.105016 18.483911 3.687377
v    137.417344 18.384736 4.333007
v    136.751926 18.299895 4.955355
v    134.859426 18.034898 6.241667
v    133.088664 17.765184 6.815801
v    131.232084 17.557384 7.412209
v    130.270352 17.576493 7.516483
v    137.626590 20.506376 3.687377
v    136.967368 20.286935 4.333007
v    136.334463 20.064650 4.955355
v    134.523813 19.453645 6.241667
v    132.819885 18.901401 6.815801
v    131.066975 18.255356 7.412209
v    130.215735 17.807378 7.516483
v    138.595695 18.396392 4.113040
v    142.090917 19.585640 4.113040
v    139.313387 22.017967 4.113040
v    141.404305 21.603608 6.000766
v    137.909083 20.414360 6.000766
v    140.686613 17.982033 6.000766
v    140.283419 22.530963 5.433090
v    141.509369 23.702032 7.008533
v    143.450917 25.539346 8.839565
v    145.882939 27.899625 9.925868
v    147.335678 29.201637 10.548660
v    149.098104 30.508511 10.524085
v    142.471442 20.614877 5.433090
v    143.470522 21.984620 7.008533
v    145.035606 24.151609 8.839565
v    147.054370 26.873785 9.925868
v    148.153326 28.485610 10.548660
v    149.216240 30.405057 10.524085
v    141.718982 21.097521 6.000766
v    138.190028 20.939922 6.000766
v    140.090990 17.962557 6.000766
v    138.281018 18.902479 12.885860
v    141.809972 19.060078 12.885860
v    139.909010 22.037443 12.885860
v    139.368598 17.298169 12.143674
v    137.257375 16.201260 14.354522
v    134.296559 14.673837 16.597336
v    129.912626 12.351829 18.187472
v    128.092933 11.478634 18.831824
v    126.923672 10.909272 18.817018
v    124.692852 10.168747 18.790902
v    137.283338 20.564188 12.143674
v    135.399851 19.110589 14.354522
v    132.768306 17.067448 16.597336
v    128.817090 14.067702 18.187472
v    127.259225 12.784422 18.831824
v    126.250691 11.963324 18.817018
v    124.640168 10.251262 18.790902
v    138.420020 18.861621 12.885860
v    141.775855 19.200887 12.885860
v    139.804125 21.937492 12.885860
v    141.579980 21.138379 19.685705
v    138.224145 20.799113 19.685705
v    140.195875 18.062508 19.685705
v    140.091978 23.086676 18.734440
v    142.668485 24.614693 21.518040
v    146.397472 26.804756 24.442732
v    151.431162 29.844184 26.327515
v    154.117629 31.324147 27.306692
v    155.132895 31.891074 27.293453
v    158.048344 33.044174 27.258619
v    142.957063 19.110166 18.734440
v    145.222094 21.070487 21.518040
v    148.479941 23.914455 24.442732
v    152.956478 27.727168 26.327515
v    155.210732 29.807007 27.306692
v    156.069887 30.590603 27.293453
v    158.086572 32.991118 27.258619
v    141.330980 20.866823 19.685705
v    138.583820 20.719251 19.685705
v    140.085201 18.413926 19.685705
v    138.669020 19.133177 30.882667
v    141.416180 19.280749 30.882667
v    139.914799 21.586074 30.882667
v    140.461660 16.538016 29.687393
v    137.077685 14.740814 33.247915
v    132.335093 12.232860 36.859917
v    124.888428 8.202042 39.574065
v    122.401634 6.980964 40.458509
v    120.075859 5.822330 40.428927
v    116.267663 4.519868 40.384209
v    137.020323 21.822083 29.687393
v    134.008289 19.453778 33.247915
v    129.796843 16.130265 36.859917
v    123.099191 10.949360 39.574065
v    120.976857 9.168666 40.458509
v    118.976741 7.509992 40.428927
v    116.245666 4.553645 40.384209
v    138.920859 19.401467 30.882667
v    141.057915 19.364703 30.882667
v    140.021226 21.233830 30.882667
v    141.079141 20.598533 48.444344
v    138.942085 20.635297 48.444344
v    139.978774 18.766170 48.444344
v    138.977623 24.169391 46.971997
v    143.292320 26.082483 51.357873
v    147.249005 27.886343 54.288593
v    149.315121 28.792291 55.807162
v    161.912697 34.497766 60.239933
v    168.543890 37.250002 60.158175
v    170.952084 37.887221 60.130498
v    173.399179 38.524472 59.682564
v    142.995617 16.925044 46.971997
v    146.903118 19.572300 51.357873
v    150.528392 21.973687 54.288593
v    152.390913 23.246712 55.807162
v    163.901266 30.912424 60.239933
v    169.747191 35.080478 60.158175
v    171.562874 36.785983 60.130498
v    173.399179 38.524472 59.682564
v    140.877917 20.233531 48.444344
v    139.358797 20.643533 48.444344
v    139.763285 19.122936 48.444344
v    139.122083 19.766469 69.931697
v    140.641203 19.356467 69.931697
v    140.236715 20.877064 69.931697
v    140.552031 14.887842 68.153705
v    134.935507 13.918341 73.450046
v    128.763600 12.786702 77.679033
v    110.653941 9.533527 84.175934
v    100.862552 8.039164 84.063089
v    94.868374 7.982347 83.289747
v    94.821667 7.982285 83.275855
v    137.939069 24.710782 68.153705
v    132.583160 22.761547 73.450046
v    126.664711 20.677077 77.679033
v    109.332187 14.502413 84.175934
v    100.092410 10.934369 84.063089
v    94.862231 8.005438 83.289747
v    94.821667 7.982285 83.275855
v    139.435075 19.765494 69.931697
v    140.485551 19.628014 69.931697
v    140.079374 20.606493 69.931697
v    140.564925 20.234506 82.195000
v    139.514449 20.371986 82.195000
v    139.920626 19.393507 82.195000
v    138.674833 24.791022 77.985341
v    144.251944 26.355906 85.155338
v    152.345204 28.763664 92.800947
v    157.608593 30.435141 95.494184
v    166.026560 32.723952 99.729444
v    170.603799 33.271222 101.901497
v    172.701220 33.574616 102.175407
v    142.457346 15.678958 77.985341
v    147.503150 18.523756 85.155338
v    154.922330 22.555372 92.800947
v    159.822128 25.102740 95.494184
v    167.386322 29.448289 99.729444
v    171.005531 32.303451 101.901497
v    172.701220 33.574616 102.175407
v    144.496101 22.360196 2.084060
v    144.615108 22.401288 2.124254
v    145.179233 22.522974 2.117831
v    144.629959 22.085407 2.084060
v    144.735676 22.153785 2.124254
v    145.179233 22.522974 2.117831
v    135.058173 15.814981 3.220373
v    134.402572 15.516162 3.212368
v    134.837278 16.090737 3.220373
v    134.402572 15.516162 3.212368
v    146.787855 22.806817 4.671537
v    147.072461 22.838518 4.760542
v    147.414333 22.880734 4.756715
v    146.902288 22.512294 4.671537
v    147.133638 22.681061 4.760542
v    147.414333 22.880734 4.756715
v    130.270352 17.576493 7.516483
v    129.786597 17.583960 7.511107
v    130.215735 17.807378 7.516483
v    129.786597 17.583960 7.511107
v    149.098104 30.508511 10.524085
v    149.361695 30.690334 10.520527
v    149.216240 30.405057 10.524085
v    149.361695 30.690334 10.520527
v    124.692852 10.168747 18.790902
v    124.503383 10.105852 18.788684
v    124.640168 10.251262 18.790902
v    124.503383 10.105852 18.788684
v    158.048344 33.044174 27.258619
v    158.172348 33.093219 27.257137
v    158.086572 32.991118 27.258619
v    158.172348 33.093219 27.257137
v    116.267663 4.519868 40.384209
v    116.189890 4.493268 40.383296
v    116.245666 4.553645 40.384209
v    116.189890 4.493268 40.383296
mtllib usm_42_Beer_2018-08-02_3.mtl
usemtl APPID_4002700352_1941179503344 
o vid_3 
f 3 2 1
f 4 5 6
f 1 6 5
f 1 5 3
f 3 5 4
f 4 2 3
f 2 4 6
f 6 1 2
usemtl APPID_4002702032_1941179507184 
o vid_4 
f 7 13 14
f 8 14 15
f 9 15 16
f 10 16 17
f 7 14 8
f 8 15 9
f 9 16 10
f 10 17 11
f 11 17 18
f 11 18 12
usemtl APPID_4002700352_1941179503344 
o vid_5 
f 21 20 19
f 22 23 24
f 19 24 23
f 19 23 21
f 21 23 22
f 22 20 21
f 20 22 24
f 24 19 20
usemtl APPID_4002702032_1941179507184 
o vid_6 
f 25 31 32
f 26 32 33
f 27 33 34
f 28 34 35
f 25 32 26
f 26 33 27
f 27 34 28
f 28 35 29
f 29 35 36
f 29 36 30
usemtl APPID_4002700352_1941179503344 
o vid_7 
f 39 38 37
f 40 41 42
f 37 42 41
f 37 41 39
f 39 41 40
f 40 38 39
f 38 40 42
f 42 37 38
usemtl APPID_4002702032_1941179507184 
o vid_8 
f 43 49 50
f 44 50 51
f 45 51 52
f 46 52 53
f 43 50 44
f 44 51 45
f 45 52 46
f 46 53 47
f 47 53 54
f 47 54 48
usemtl APPID_4002700352_1941179503344 
o vid_9 
f 57 56 55
f 58 59 60
f 55 60 59
f 55 59 57
f 57 59 58
f 58 56 57
f 56 58 60
f 60 55 56
usemtl APPID_4002702032_1941179507184 
o vid_10 
f 61 68 69
f 62 69 70
f 63 70 71
f 64 71 72
f 65 72 73
f 61 69 62
f 62 70 63
f 63 71 64
f 64 72 65
f 65 73 66
f 66 73 74
f 66 74 67
usemtl APPID_4002700352_1941179503344 
o vid_11 
f 77 76 75
f 78 79 80
f 75 80 79
f 75 79 77
f 77 79 78
f 78 76 77
f 76 78 80
f 80 75 76
usemtl APPID_4002702032_1941179507184 
o vid_12 
f 81 87 88
f 82 88 89
f 83 89 90
f 84 90 91
f 81 88 82
f 82 89 83
f 83 90 84
f 84 91 85
f 85 91 92
f 85 92 86
usemtl APPID_4002700352_1941179503344 
o vid_13 
f 95 94 93
f 96 97 98
f 93 98 97
f 93 97 95
f 95 97 96
f 96 94 95
f 94 96 98
f 98 93 94
usemtl APPID_4002702032_1941179507184 
o vid_14 
f 99 106 107
f 100 107 108
f 101 108 109
f 102 109 110
f 103 110 111
f 99 107 100
f 100 108 101
f 101 109 102
f 102 110 103
f 103 111 104
f 104 111 112
f 104 112 105
usemtl APPID_4002700352_1941179503344 
o vid_15 
f 115 114 113
f 116 117 118
f 113 118 117
f 113 117 115
f 115 117 116
f 116 114 115
f 114 116 118
f 118 113 114
usemtl APPID_4002702032_1941179507184 
o vid_16 
f 119 126 127
f 120 127 128
f 121 128 129
f 122 129 130
f 123 130 131
f 119 127 120
f 120 128 121
f 121 129 122
f 122 130 123
f 123 131 124
f 124 131 132
f 124 132 125
usemtl APPID_4002700352_1941179503344 
o vid_17 
f 135 134 133
f 136 137 138
f 133 138 137
f 133 137 135
f 135 137 136
f 136 134 135
f 134 136 138
f 138 133 134
usemtl APPID_4002702032_1941179507184 
o vid_18 
f 139 146 147
f 140 147 148
f 141 148 149
f 142 149 150
f 143 150 151
f 139 147 140
f 140 148 141
f 141 149 142
f 142 150 143
f 143 151 144
f 144 151 152
f 144 152 145
usemtl APPID_4002700352_1941179503344 
o vid_19 
f 155 154 153
f 156 157 158
f 153 158 157
f 153 157 155
f 155 157 156
f 156 154 155
f 154 156 158
f 158 153 154
usemtl APPID_4002702032_1941179507184 
o vid_20 
f 159 167 168
f 160 168 169
f 161 169 170
f 162 170 171
f 163 171 172
f 164 172 173
f 159 168 160
f 160 169 161
f 161 170 162
f 162 171 163
f 163 172 164
f 164 173 165
f 165 173 174
usemtl APPID_4002700352_1941179503344 
o vid_21 
f 177 176 175
f 178 179 180
f 175 180 179
f 175 179 177
f 177 179 178
f 178 176 177
f 176 178 180
f 180 175 176
usemtl APPID_4002702032_1941179507184 
o vid_22 
f 181 188 189
f 182 189 190
f 183 190 191
f 184 191 192
f 185 192 193
f 181 189 182
f 182 190 183
f 183 191 184
f 184 192 185
f 185 193 186
f 186 193 194
usemtl APPID_4002700352_1941179503344 
o vid_23 
f 197 196 195
f 198 199 200
f 195 200 199
f 195 199 197
f 197 199 198
f 198 196 197
f 196 198 200
f 200 195 196
usemtl APPID_4002702032_1941179507184 
o vid_24 
f 201 208 209
f 202 209 210
f 203 210 211
f 204 211 212
f 205 212 213
f 201 209 202
f 202 210 203
f 203 211 204
f 204 212 205
f 205 213 206
f 206 213 214
usemtl APPID_4002702704_1941179504496 
o vid_10000004 
f 215 218 219
f 215 219 216
f 216 219 220
usemtl APPID_4002702704_1941179504496 
o vid_10000006 
f 221 223 224
f 221 224 222
f 221 223 224
usemtl APPID_4002702704_1941179504496 
o vid_10000008 
f 225 228 229
f 225 229 226
f 226 229 230
usemtl APPID_4002702704_1941179504496 
o vid_10000010 
f 231 233 234
f 231 234 232
f 231 233 234
usemtl APPID_4002702704_1941179504496 
o vid_10000012 
f 235 237 238
f 235 238 236
f 235 237 238
usemtl APPID_4002702704_1941179504496 
o vid_10000014 
f 239 241 242
f 239 242 240
f 239 241 242
usemtl APPID_4002702704_1941179504496 
o vid_10000016 
f 243 245 246
f 243 246 244
f 243 245 246
usemtl APPID_4002702704_1941179504496 
o vid_10000018 
f 247 249 250
f 247 250 248
f 247 249 250
