# File generated by PlantGL - Fri Sep  4 14:42:09 2026
v    19.328923 19.673096 0.000000
v    20.618646 19.582282 0.000000
v    20.052432 20.744622 0.000000
v    20.671077 20.326904 0.188000
v    19.381354 20.417718 0.188000
v    19.947568 19.255378 0.188000
v    19.822839 20.030015 -4.831487
v    20.101411 20.049401 -4.452306
v    19.914428 19.841999 -4.831487
v    20.101411 20.049401 -4.452306
mtllib usm_26_2.5D_2018-07-08_0.mtl
usemtl APPID_1692216240_1985966969456 
o vid_3 
f 3 2 1
f 4 5 6
f 1 6 5
f 1 5 3
f 3 5 4
f 4 2 3
f 2 4 6
f 6 1 2
usemtl APPID_1692215456_1985966977008 
o vid_4 
f 7 9 10
f 7 10 8
f 7 9 10
