# File generated by PlantGL - Fri Sep  4 14:42:32 2026
v    118.201987 59.124129 0.000000
v    121.657533 58.880811 0.000000
v    120.140480 61.995060 0.000000
v    121.798013 60.875871 0.231332
v    118.342467 61.119189 0.231332
v    119.859520 58.004940 0.231332
v    120.843222 60.693634 -3.012091
v    121.681878 60.819298 -2.242418
v    121.065960 60.236391 -3.012091
v    121.681878 60.819298 -2.242418
v    121.503548 61.204422 0.231332
v    118.205166 60.699900 0.231332
v    120.291286 58.095678 0.231332
v    118.496452 58.795578 0.322957
v    121.794834 59.300100 0.322957
v    119.708714 61.904322 0.322957
v    119.432630 59.127496 -2.920467
v    118.418664 58.733266 -1.933065
v    119.024698 59.636741 -2.920467
v    118.418664 58.733266 -1.933065
v    118.272844 59.328938 0.322957
v    121.444735 58.839770 0.322957
v    120.282421 61.831292 0.322957
v    121.727156 60.671062 0.466906
v    118.555265 61.160230 0.466906
v    119.717579 58.168708 0.466906
v    120.687491 60.756430 -2.776518
v    122.205107 60.856763 -1.396101
v    121.017853 59.906158 -2.776518
v    122.205107 60.856763 -1.396101
v    121.731622 60.409625 0.466906
v    118.779443 61.294816 0.466906
v    119.488935 58.295559 0.466906
v    118.268378 59.590375 0.679271
v    121.220557 58.705184 0.679271
v    120.511065 61.704441 0.679271
v    119.332338 59.168079 -2.564153
v    117.150914 59.326032 -0.579077
v    119.030367 60.444610 -2.564153
v    117.150914 59.326032 -0.579077
v    118.876148 58.716648 0.679271
v    121.673341 59.668392 0.679271
v    119.450510 61.614960 0.679271
v    121.123852 61.283352 0.920461
v    118.326659 60.331608 0.920461
v    120.549490 58.385040 0.920461
v    119.576244 61.391563 -2.322963
v    123.095276 63.534566 1.416592
v    121.435308 59.763551 -2.322963
v    123.095276 63.534566 1.416592
v    121.375838 60.878433 0.920461
v    118.551335 60.752294 0.920461
v    120.072827 58.369272 0.920461
v    118.624162 59.121567 1.433330
v    121.448665 59.247706 1.433330
v    119.927173 61.630728 1.433330
v    120.086787 58.574103 -1.810094
v    116.067253 57.489053 1.968680
v    118.743022 60.678763 -1.810094
v    116.067253 57.489053 1.968680
v    118.735263 59.088754 1.433330
v    121.421531 59.360328 1.433330
v    119.843206 61.550918 1.433330
v    121.264737 60.911246 2.225064
v    118.578469 60.639672 2.225064
v    120.156794 58.449082 2.225064
v    119.197740 62.175192 -1.018359
v    126.269055 64.516869 5.742423
v    121.809382 58.550442 -1.018359
v    126.269055 64.516869 5.742423
v    121.244614 60.810576 2.225064
v    118.675713 60.672580 2.225064
v    120.079672 58.516844 2.225064
v    118.755386 59.189424 3.120959
v    121.324287 59.327420 3.120959
v    119.920328 61.483156 3.120959
v    120.891583 57.628456 -0.122465
v    120.377257 57.393926 0.409345
v    112.703018 55.247718 7.641854
v    118.191484 61.774376 -0.122465
v    117.769015 61.398802 0.409345
v    112.703018 55.247718 7.641854
v    118.765415 59.315252 3.120959
v    121.210302 59.273192 3.120959
v    120.024283 61.411556 3.120959
v    121.234585 60.684748 4.395390
v    118.789698 60.726808 4.395390
v    119.975717 58.588444 4.395390
v    119.018668 62.745740 1.151967
v    122.086397 63.889809 4.232253
v    128.959371 65.296125 10.599511
v    130.026881 65.561295 11.268534
v    121.809645 57.713675 1.151967
v    124.404514 59.710300 4.232253
v    129.236696 64.796115 10.599511
v    130.026881 65.561295 11.268534
v    121.293262 60.344016 4.395390
v    119.055443 60.947990 4.395390
v    119.651295 58.707994 4.395390
v    118.706738 59.655984 6.215755
v    120.944557 59.052010 6.215755
v    120.348705 61.292006 6.215755
v    120.471266 56.672097 2.972332
v    114.145662 55.969946 8.960000
v    110.337396 56.139841 12.419876
v    105.541451 56.153937 15.336925
v    118.755494 63.122216 2.972332
v    112.917056 60.588657 8.960000
v    109.696529 58.549060 12.419876
v    105.541451 56.153937 15.336925
v    118.831935 59.515124 6.215755
v    121.003948 59.230864 6.215755
v    120.164118 61.254012 6.215755
v    121.168065 60.484876 8.830832
v    118.996052 60.769136 8.830832
v    119.835882 58.745988 8.830832
v    118.880561 63.548431 5.587408
v    120.746708 64.082463 7.421988
v    127.880819 65.858784 14.338669
v    136.883438 67.008490 20.088847
v    121.722606 56.701950 5.587408
v    123.418346 57.646494 7.421988
v    129.713166 61.444662 14.338669
v    136.883438 67.008490 20.088847
v    120.919824 60.756852 8.830832
v    118.884635 60.418165 8.830832
v    120.195542 58.824983 8.830832
v    119.080176 59.243148 12.726769
v    121.115365 59.581835 12.726769
v    119.804458 61.175017 12.726769
v    122.374434 56.716090 9.483346
v    118.264533 54.059926 14.108429
v    113.865525 51.428607 18.930890
v    111.669796 50.051088 20.550168
v    103.295592 46.255224 26.142438
v    117.234825 62.962400 9.483346
v    113.836901 59.440950 14.108429
v    110.407681 55.631021 18.930890
v    108.633096 53.741673 20.550168
v    103.295592 46.255224 26.142438
v    119.313473 59.281702 12.726769
v    120.965328 59.764599 12.726769
v    119.721199 60.953699 12.726769
v    120.686527 60.718298 18.337227
v    119.034672 60.235401 18.337227
v    120.278801 59.046301 18.337227
v    116.795215 63.139730 15.093804
v    123.526069 68.731995 23.364652
v    124.515239 69.497435 24.541348
v    130.040388 73.963612 28.979579
v    134.115948 76.434882 31.878569
v    138.332668 79.181067 33.119238
v    123.281403 56.940433 15.093804
v    128.563660 63.917222 23.364652
v    129.283599 64.939985 24.541348
v    133.495428 70.661392 28.979579
v    135.779922 74.844508 31.878569
v    138.332668 79.181067 33.119238
v    120.535847 60.546122 18.337227
v    119.259121 60.190996 18.337227
v    120.205032 59.262881 18.337227
v    119.464153 59.453878 24.678407
v    120.740879 59.809004 24.678407
v    119.794968 60.737119 24.678407
v    123.465888 56.841783 21.434983
v    115.694314 50.555292 30.882528
v    108.520351 44.888185 36.595177
v    106.218470 43.533378 38.219749
v    99.953938 39.569564 40.047483
v    116.776532 63.405286 21.434983
v    110.638764 55.515728 30.882528
v    105.108918 48.235436 36.595177
v    103.798069 45.908242 38.219749
v    99.953938 39.569564 40.047483
v    119.625089 59.584599 24.678407
v    120.547203 59.883018 24.678407
v    119.827708 60.532383 24.678407
v    120.374911 60.415401 33.554898
v    119.452797 60.116982 33.554898
v    120.172292 59.467617 33.554898
v    116.404779 62.734792 30.311474
v    123.072219 68.604341 38.707129
v    123.936561 69.313580 39.759019
v    129.449158 74.036301 44.293752
v    133.319184 76.536902 47.096240
v    137.603934 79.505119 48.381363
v    123.087892 56.703089 30.311474
v    128.245320 63.935468 38.707129
v    128.862514 64.867766 39.759019
v    132.997139 70.834146 44.293752
v    135.089144 74.939462 47.096240
v    137.603934 79.505119 48.381363
v    120.370064 60.072041 33.554898
v    119.752578 60.284464 33.554898
v    119.877358 59.643495 33.554898
v    119.629936 59.927959 41.753377
v    120.247422 59.715536 41.753377
v    120.122642 60.356505 41.753377
v    121.279977 56.361677 38.509953
v    118.392097 56.137350 41.247642
v    111.266551 55.831965 47.957498
v    101.839685 56.464678 53.709689
v    119.821662 63.852782 38.509953
v    117.060524 62.977399 41.247642
v    110.340781 60.587479 47.957498
v    101.839685 56.464678 53.709689
v    119.832276 59.861633 41.753377
v    120.203691 59.923930 41.753377
v    119.964033 60.214436 41.753377
v    120.167724 60.138367 44.173000
v    119.796309 60.076070 44.173000
v    120.035967 59.785564 44.173000
v    119.586650 61.726522 37.904979
v    120.969599 60.799888 44.891582
v    121.616483 59.266024 37.904979
v    120.969599 60.799888 44.891582
mtllib usm_1_2.5D_2018-08-22_3.mtl
usemtl APPID_1439657792_2556943065056 
o vid_3 
f 3 2 1
f 4 5 6
f 1 6 5
f 1 5 3
f 3 5 4
f 4 2 3
f 2 4 6
f 6 1 2
usemtl APPID_1439659360_2556943063264 
o vid_4 
f 7 9 10
f 7 10 8
f 7 9 10
usemtl APPID_1439657792_2556943065056 
o vid_5 
f 13 12 11
f 14 15 16
f 11 16 15
f 11 15 13
f 13 15 14
f 14 12 13
f 12 14 16
f 16 11 12
usemtl APPID_1439659360_2556943063264 
o vid_6 
f 17 19 20
f 17 20 18
f 17 19 20
usemtl APPID_1439657792_2556943065056 
o vid_7 
f 23 22 21
f 24 25 26
f 21 26 25
f 21 25 23
f 23 25 24
f 24 22 23
f 22 24 26
f 26 21 22
usemtl APPID_1439659360_2556943063264 
o vid_8 
f 27 29 30
f 27 30 28
f 27 29 30
usemtl APPID_1439657792_2556943065056 
o vid_9 
f 33 32 31
f 34 35 36
f 31 36 35
f 31 35 33
f 33 35 34
f 34 32 33
f 32 34 36
f 36 31 32
usemtl APPID_1439659360_2556943063264 
o vid_10 
f 37 39 40
f 37 40 38
f 37 39 40
usemtl APPID_1439657792_2556943065056 
o vid_11 
f 43 42 41
f 44 45 46
f 41 46 45
f 41 45 43
f 43 45 44
f 44 42 43
f 42 44 46
f 46 41 42
usemtl APPID_1439659360_2556943063264 
o vid_12 
f 47 49 50
f 47 50 48
f 47 49 50
usemtl APPID_1439657792_2556943065056 
o vid_13 
f 53 52 51
f 54 55 56
f 51 56 55
f 51 55 53
f 53 55 54
f 54 52 53
f 52 54 56
f 56 51 52
usemtl APPID_1439659360_2556943063264 
o vid_14 
f 57 59 60
f 57 60 58
f 57 59 60
usemtl APPID_1439657792_2556943065056 
o vid_15 
f 63 62 61
f 64 65 66
f 61 66 65
f 61 65 63
f 63 65 64
f 64 62 63
f 62 64 66
f 66 61 62
usemtl APPID_1439659360_2556943063264 
o vid_16 
f 67 69 70
f 67 70 68
f 67 69 70
usemtl APPID_1439657792_2556943065056 
o vid_17 
f 73 72 71
f 74 75 76
f 71 76 75
f 71 75 73
f 73 75 74
f 74 72 73
f 72 74 76
f 76 71 72
usemtl APPID_1439659360_2556943063264 
o vid_18 
f 77 80 81
f 77 81 78
f 78 81 82
usemtl APPID_1439657792_2556943065056 
o vid_19 
f 85 84 83
f 86 87 88
f 83 88 87
f 83 87 85
f 85 87 86
f 86 84 85
f 84 86 88
f 88 83 84
usemtl APPID_1439659360_2556943063264 
o vid_20 
f 89 93 94
f 90 94 95
f 89 94 90
f 90 95 91
f 91 95 96
usemtl APPID_1439657792_2556943065056 
o vid_21 
f 99 98 97
f 100 101 102
f 97 102 101
f 97 101 99
f 99 101 100
f 100 98 99
f 98 100 102
f 102 97 98
usemtl APPID_1439659360_2556943063264 
o vid_22 
f 103 107 108
f 104 108 109
f 103 108 104
f 104 109 105
f 105 109 110
usemtl APPID_1439657792_2556943065056 
o vid_23 
f 113 112 111
f 114 115 116
f 111 116 115
f 111 115 113
f 113 115 114
f 114 112 113
f 112 114 116
f 116 111 112
usemtl APPID_1439659360_2556943063264 
o vid_24 
f 117 121 122
f 118 122 123
f 117 122 118
f 118 123 119
f 119 123 124
usemtl APPID_1439657792_2556943065056 
o vid_25 
f 127 126 125
f 128 129 130
f 125 130 129
f 125 129 127
f 127 129 128
f 128 126 127
f 126 128 130
f 130 125 126
usemtl APPID_1439659360_2556943063264 
o vid_26 
f 131 136 137
f 132 137 138
f 133 138 139
f 131 137 132
f 132 138 133
f 133 139 134
f 134 139 140
usemtl APPID_1439657792_2556943065056 
o vid_27 
f 143 142 141
f 144 145 146
f 141 146 145
f 141 145 143
f 143 145 144
f 144 142 143
f 142 144 146
f 146 141 142
usemtl APPID_1439659360_2556943063264 
o vid_28 
f 147 153 154
f 148 154 155
f 149 155 156
f 150 156 157
f 147 154 148
f 148 155 149
f 149 156 150
f 150 157 151
f 151 157 158
usemtl APPID_1439657792_2556943065056 
o vid_29 
f 161 160 159
f 162 163 164
f 159 164 163
f 159 163 161
f 161 163 162
f 162 160 161
f 160 162 164
f 164 159 160
usemtl APPID_1439659360_2556943063264 
o vid_30 
f 165 170 171
f 166 171 172
f 167 172 173
f 165 171 166
f 166 172 167
f 167 173 168
f 168 173 174
usemtl APPID_1439657792_2556943065056 
o vid_31 
f 177 176 175
f 178 179 180
f 175 180 179
f 175 179 177
f 177 179 178
f 178 176 177
f 176 178 180
f 180 175 176
usemtl APPID_1439659360_2556943063264 
o vid_32 
f 181 187 188
f 182 188 189
f 183 189 190
f 184 190 191
f 181 188 182
f 182 189 183
f 183 190 184
f 184 191 185
f 185 191 192
usemtl APPID_1439657792_2556943065056 
o vid_33 
f 195 194 193
f 196 197 198
f 193 198 197
f 193 197 195
f 195 197 196
f 196 194 195
f 194 196 198
f 198 193 194
usemtl APPID_1439659360_2556943063264 
o vid_34 
f 199 203 204
f 200 204 205
f 199 204 200
f 200 205 201
f 201 205 206
usemtl APPID_1439657792_2556943065056 
o vid_35 
f 209 208 207
f 210 211 212
f 207 212 211
f 207 211 209
f 209 211 210
f 210 208 209
f 208 210 212
f 212 207 208
usemtl APPID_1439659360_2556943063264 
o vid_36 
f 213 215 216
f 213 216 214
f 213 215 216
