# File generated by PlantGL - Wed Jul 15 17:35:42 2026
v    20.252304 58.905161 0.000000
v    24.571736 58.601013 0.000000
v    22.675420 62.493825 0.000000
v    24.747336 61.094839 2.682187
v    20.427904 61.398987 2.682187
v    22.324220 57.506175 2.682187
v    24.669610 61.321008 2.593586
v    24.852944 61.382894 2.908727
v    24.854697 61.383500 2.911749
v    24.877512 60.894220 2.593586
v    25.039254 61.000432 2.908727
v    25.040812 61.001438 2.911749
v    24.379104 61.505407 2.682187
v    20.256458 60.874804 2.682187
v    22.863898 57.619789 2.682187
v    20.620536 58.494593 4.602934
v    24.743182 59.125196 4.602934
v    22.135742 62.380211 4.602934
v    20.802593 58.199861 4.474835
v    20.565011 58.054971 4.928053
v    20.372645 58.736590 4.474835
v    20.179394 58.536359 4.928053
v    20.341236 59.161313 4.602934
v    24.305436 58.549955 4.602934
v    22.852788 62.288732 4.602934
v    24.658404 60.838687 7.454389
v    20.694204 61.450045 7.454389
v    22.146852 57.711268 7.454389
v    24.559308 61.258600 7.273045
v    24.835372 61.329210 7.737571
v    24.868807 60.462021 7.273045
v    25.120127 60.596319 7.737571
v    24.663782 60.511898 7.454389
v    20.974522 61.618097 7.454389
v    21.861155 57.870005 7.454389
v    20.335858 59.488102 12.006019
v    24.025118 58.381903 12.006019
v    23.138485 62.129995 12.006019
v    20.382039 58.933359 11.754649
v    20.195738 58.912386 12.060275
v    20.128598 60.004741 11.754649
v    19.952645 59.940021 12.060275
v    21.095515 58.396392 12.006019
v    24.590737 59.585640 12.006019
v    21.813207 62.017967 12.006019
v    23.904125 61.603608 16.421928
v    20.408903 60.414360 16.421928
v    23.186433 57.982033 16.421928
v    23.415229 62.181054 16.080757
v    23.588191 62.336272 16.459611
v    24.541027 61.195174 16.080757
v    24.672068 61.387104 16.459611
v    24.218802 61.097521 16.421928
v    20.689848 60.939922 16.421928
v    22.590810 57.962557 16.421928
v    20.780838 58.902479 35.676141
v    24.309792 59.060078 35.676141
v    22.408830 62.037443 35.676141
v    21.201745 57.965835 35.222738
v    20.888594 57.815319 35.789143
v    20.108286 59.678455 35.222738
v    19.839968 59.457720 35.789143
v    20.919840 58.861621 35.676141
v    24.275675 59.200887 35.676141
v    22.303945 61.937492 35.676141
v    24.079800 61.138379 53.193347
v    20.723965 60.799113 53.193347
v    22.695695 58.062508 53.193347
v    23.510238 62.261182 52.603356
v    23.708624 62.370639 52.972723
v    23.990701 62.519017 53.490947
v    24.964570 60.242685 52.603356
v    25.131197 60.396221 52.972723
v    25.361236 60.616824 53.490947
v    24.054453 61.012481 53.193347
v    20.845669 60.840111 53.193347
v    22.599338 58.147408 53.193347
v    20.945187 58.987519 80.188468
v    24.153971 59.159889 80.188468
v    22.400302 61.852592 80.188468
v    21.619103 57.499222 79.436744
v    21.135595 57.261421 80.315128
v    19.508774 56.501190 83.234822
v    19.856479 60.205676 79.436744
v    19.443480 59.859612 80.315128
v    18.090366 58.679111 83.234822
v    20.957943 59.144816 80.188468
v    24.011370 59.092287 80.188468
v    22.530147 61.762897 80.188468
v    24.041697 60.855184 115.985726
v    20.988270 60.907713 115.985726
v    22.469493 58.237103 115.985726
v    23.254908 62.910356 115.047900
v    25.145928 63.679323 118.375758
v    25.967268 63.994388 119.806097
v    28.349317 65.009086 122.397774
v    29.699849 65.530950 123.841075
v    25.368532 59.099543 115.047900
v    27.022138 60.296562 118.375758
v    27.724305 60.826493 119.806097
v    29.846364 62.309947 122.397774
v    31.004164 63.179301 123.841075
v    24.114715 60.429572 115.985726
v    21.320352 61.183754 115.985726
v    22.064393 58.386674 115.985726
v    20.884925 59.570428 151.611461
v    23.679288 58.816246 151.611461
v    22.935247 61.613326 151.611461
v    21.214406 56.864536 150.465849
v    18.430805 56.472815 155.048369
v    17.679808 56.382354 156.278276
v    14.131513 55.823246 159.873837
v    12.713856 55.648958 161.297677
v    9.899559 55.229485 162.915178
v    19.826423 62.082396 150.465849
v    17.216092 61.039298 155.048369
v    16.519406 60.744666 156.278276
v    13.162281 59.466890 159.873837
v    11.845395 58.913773 161.297677
v    9.194636 57.879507 162.915178
v    21.041526 59.394647 151.611461
v    23.753218 59.039757 151.611461
v    22.704716 61.565597 151.611461
v    23.958114 60.605353 179.608490
v    21.246422 60.960243 179.608490
v    22.294924 58.434403 179.608490
v    23.199751 63.608992 178.238228
v    25.118652 64.146857 181.486971
v    27.323676 64.717779 185.190449
v    29.665955 65.416145 187.636995
v    33.118198 66.319029 191.194136
v    36.171395 67.201753 193.000852
v    25.549833 57.947648 178.238228
v    27.285533 58.926846 181.486971
v    29.246653 60.085334 185.190449
v    31.394931 61.251045 187.636995
v    34.471709 63.058425 191.194136
v    37.252472 64.597439 193.000852
v    23.647956 60.944713 179.608490
v    21.107606 60.521958 179.608490
v    22.743898 58.533328 179.608490
v    21.351684 59.055287 201.094812
v    23.892034 59.478042 201.094812
v    22.255742 61.466672 201.094812
v    23.231267 55.939396 199.490013
v    21.187731 54.634380 203.442721
v    18.988926 53.291134 207.632193
v    16.499769 51.643173 210.620335
v    13.043807 49.520284 214.663486
v    8.968731 46.870881 217.426572
v    8.640326 46.715876 217.627979
v    18.656086 61.499741 199.490013
v    16.981956 59.745776 203.442721
v    15.240411 57.846810 207.632193
v    13.143938 55.721608 210.620335
v    10.395241 52.739159 214.663486
v    7.010658 49.250581 217.426572
v    6.795311 48.958174 217.627979
v    21.536143 58.991726 201.094812
v    23.854850 59.669568 201.094812
v    22.108468 61.338706 201.094812
v    23.463497 61.008274 220.314152
v    21.144790 60.330432 220.314152
v    22.891172 58.661294 220.314152
v    20.685684 64.501372 218.473850
v    24.720716 67.816677 226.987219
v    30.244176 72.485672 234.543584
v    31.289988 73.314820 235.874008
v    38.691725 79.498598 241.356810
v    39.640246 80.093930 241.977909
v    27.078603 58.391217 218.473850
v    30.208102 62.572003 226.987219
v    34.622618 68.300893 234.543584
v    35.403639 69.383120 235.874008
v    41.246475 77.056847 241.356810
v    41.798318 78.031312 241.977909
v    23.412132 60.929805 220.314152
v    21.238430 60.325183 220.314152
v    22.848899 58.745013 220.314152
v    21.587508 59.070195 232.927222
v    23.761210 59.674817 232.927222
v    22.150741 61.254987 232.927222
v    24.716056 55.047367 230.860851
v    19.690235 51.033743 241.344879
v    13.171914 45.638106 249.815071
v    3.437520 37.739299 257.192131
v    1.189977 36.307904 257.987528
v    17.505992 62.121782 230.860851
v    13.588536 57.020645 241.344879
v    8.317660 50.401033 249.815071
v    0.605141 40.518390 257.192131
v    -0.783313 38.244069 257.987528
v    21.688766 59.101354 232.927222
v    23.683598 59.746930 232.927222
v    22.127097 61.151717 232.927222
v    23.310874 60.898646 239.800600
v    21.316042 60.253070 239.800600
v    22.872543 58.848283 239.800600
v    19.950475 64.939091 237.528756
v    23.198997 67.767679 244.550671
v    25.324232 69.544977 249.055282
v    29.344811 73.164014 254.470012
v    32.830644 76.093706 259.009173
v    39.075253 81.621253 263.749936
v    42.279276 83.762228 265.887157
v    27.673586 57.968761 237.528756
v    30.155375 61.489346 244.550671
v    31.706177 63.785088 249.055282
v    34.895376 68.154468 254.470012
v    37.453488 71.921455 259.009173
v    42.313918 78.698264 263.749936
v    44.116242 82.104313 265.887157
v    23.597632 60.213714 239.800600
v    21.765832 60.843876 239.800600
v    22.135996 58.942409 239.800600
v    21.402008 59.786286 243.676510
v    23.233808 59.156124 243.676510
v    22.863644 61.057591 243.676510
v    21.635155 54.374694 241.230829
v    19.034532 54.186891 245.481387
v    14.023997 53.925309 253.639343
v    10.957971 53.653044 256.720421
v    3.310848 53.235020 264.354886
v    -2.265055 52.786624 267.534820
v    -7.425681 53.072009 270.401362
v    19.588081 64.890142 241.230829
v    17.106925 64.088660 245.481387
v    12.364171 62.451540 253.639343
v    9.419914 61.553766 256.720421
v    2.174429 59.072602 264.354886
v    -3.162486 57.396567 267.534820
v    -7.839188 55.196120 270.401362
v    21.708135 59.346885 243.676510
v    23.461277 59.640938 243.676510
v    22.330048 61.012177 243.676510
v    23.291505 60.653115 246.339281
v    21.538363 60.359062 246.339281
v    22.669592 58.987823 246.339281
v    20.417149 65.471092 243.761345
v    22.026261 66.501578 246.876312
v    27.251982 69.703137 256.840875
v    29.011174 70.871055 258.954509
v    36.852967 75.701833 268.135884
v    40.622519 78.159457 270.693938
v    46.366782 80.879681 274.218969
v    27.475321 56.915401 243.761345
v    28.792867 58.299314 246.876312
v    32.929319 62.821249 256.840875
v    34.410318 64.326385 258.954509
v    40.643528 71.107036 268.135884
v    43.772833 74.340748 270.693938
v    47.535284 79.463260 274.218969
v    23.246855 60.560971 246.339281
v    21.640487 60.366465 246.339281
v    22.612118 59.072563 246.339281
v    21.752785 59.439029 248.043891
v    23.359153 59.633535 248.043891
v    22.387522 60.927437 248.043891
v    24.613033 54.171214 245.383193
v    21.416379 52.324267 251.401634
v    17.387442 50.102344 258.882627
v    13.523943 47.784365 263.392513
v    7.253694 44.306312 270.540251
v    0.780548 40.495544 274.810305
v    -6.113313 37.608586 278.955479
v    17.491530 63.654785 245.383193
v    14.826438 61.099968 251.401634
v    11.569156 57.850446 258.882627
v    8.265762 54.786586 263.392513
v    3.177171 49.734941 270.540251
v    -2.287515 44.581227 274.810305
v    -6.982356 38.765874 278.955479
v    21.810071 59.516898 248.043891
v    23.263073 59.644211 248.043891
v    22.426316 60.838891 248.043891
v    23.189569 60.483102 248.791059
v    21.736567 60.355789 248.791059
v    22.573324 59.161109 248.791059
v    20.647771 65.655334 246.102187
v    21.745898 66.242215 248.131967
v    28.110655 69.482401 259.744564
v    38.606060 74.903280 271.525627
v    41.632478 76.552583 273.484925
v    49.492189 79.542302 278.148769
v    27.181620 56.326631 246.102187
v    28.108472 57.158051 248.131967
v    33.328849 62.032125 259.744564
v    42.010350 70.042805 271.525627
v    44.594687 72.323290 273.484925
v    50.090616 78.687898 278.148769
v    23.082495 60.415694 248.791059
v    21.848481 60.296764 248.791059
v    22.568484 59.287542 248.791059
v    21.917145 59.584306 249.455000
v    23.151159 59.703236 249.455000
v    22.431156 60.712458 249.455000
v    24.847802 53.968061 246.794302
v    19.087123 50.824730 257.492390
v    17.558576 50.029788 260.293736
v    10.262277 45.891074 268.690258
v    7.363633 44.374558 271.951359
v    -3.383011 38.396378 278.942059
v    -7.213713 36.901036 281.222762
v    -12.797884 34.544305 282.442283
v    17.560213 64.183011 246.794302
v    12.713408 59.758710 257.492390
v    11.464335 58.572032 260.293736
v    5.176624 53.019588 268.690258
v    2.799413 50.772184 271.951359
v    -6.350407 42.555751 278.942059
v    -9.010891 39.420125 281.222762
v    -13.056471 34.906763 282.442283
v    24.854697 61.383500 2.911749
v    24.930851 61.409851 3.043117
v    25.142475 61.490577 3.270160
v    25.293736 61.545723 3.431316
v    25.518144 61.632502 3.568464
v    25.802584 61.733528 3.740054
v    26.057717 61.827796 3.795858
v    26.436468 61.917670 3.874181
v    25.040812 61.001438 2.911749
v    25.108504 61.045159 3.043117
v    25.302520 61.162034 3.270160
v    25.439183 61.247145 3.431316
v    25.645845 61.370354 3.568464
v    25.900730 61.532051 3.740054
v    26.132228 61.674837 3.795858
v    26.436468 61.917670 3.874181
v    20.565011 58.054971 4.928053
v    20.462437 57.991405 5.124765
v    20.183799 57.806249 5.460116
v    19.993999 57.684142 5.686021
v    19.697921 57.485442 5.889274
v    19.336336 57.257050 6.132393
v    18.998291 57.037497 6.215094
v    18.492763 56.790134 6.328332
v    20.179394 58.536359 4.928053
v    20.094972 58.450131 5.124765
v    19.853465 58.218624 5.460116
v    19.692877 58.060051 5.686021
v    19.434345 57.814479 5.889274
v    19.132540 57.511460 6.132393
v    18.844498 57.229485 6.215094
v    18.492763 56.790134 6.328332
v    24.835372 61.329210 7.737571
v    24.990033 61.368768 7.997814
v    25.106976 61.396208 8.193122
v    25.654957 61.546030 8.761766
v    25.875451 61.598338 8.987667
v    26.681420 61.811502 9.461586
v    26.964129 61.846472 9.619576
v    27.436141 61.917938 9.715629
v    25.120127 60.596319 7.737571
v    25.260925 60.671557 7.997814
v    25.365717 60.730269 8.193122
v    25.871104 60.989718 8.761766
v    26.069074 61.099998 8.987667
v    26.807539 61.486903 9.461586
v    27.039697 61.651977 9.619576
v    27.436141 61.917938 9.715629
v    20.195738 58.912386 12.060275
v    19.602228 58.855922 13.030009
v    19.289190 58.815446 13.345960
v    18.504833 58.741002 14.131365
v    17.934926 58.672132 14.457693
v    16.949890 58.687132 15.004074
v    19.952645 59.940021 12.060275
v    19.396741 59.724584 13.030009
v    19.098745 59.620517 13.345960
v    18.364166 59.335648 14.131365
v    17.823805 59.141877 14.457693
v    16.949890 58.687132 15.004074
v    23.588191 62.336272 16.459611
v    24.215938 62.881102 17.811740
v    24.539089 63.180860 18.252941
v    25.337933 63.872929 19.306554
v    25.924803 64.408295 19.758128
v    27.018892 65.163322 20.495392
v    27.025926 65.168464 20.497145
v    24.672068 61.387104 16.459611
v    25.129310 62.081247 17.811740
v    25.383811 62.441124 18.252941
v    25.964430 63.324296 19.306554
v    26.417685 63.976671 19.758128
v    27.021757 65.160813 20.495392
v    27.025926 65.168464 20.497145
v    20.888594 57.815319 35.789143
v    20.593618 57.673538 36.322673
v    19.921934 57.367018 37.523140
v    19.180368 56.995418 38.353407
v    18.126314 56.511280 39.509683
v    16.908934 55.913875 40.280556
v    15.524575 55.454014 41.089597
v    15.189231 55.332398 41.161370
v    19.839968 59.457720 35.789143
v    19.587223 59.249796 36.322673
v    19.026511 58.769467 37.523140
v    18.377355 58.253130 38.353407
v    17.494611 57.500678 39.509683
v    16.440388 56.647730 40.280556
v    15.440672 55.585427 41.089597
v    15.189231 55.332398 41.161370
v    23.990701 62.519017 53.490947
v    25.136927 63.121952 55.596761
v    27.424996 64.340300 58.181758
v    28.016406 64.672921 58.567478
v    30.166409 65.523795 59.849890
v    25.361236 60.616824 53.490947
v    26.296002 61.513248 55.596761
v    28.175983 63.297989 58.181758
v    28.678710 63.753696 58.567478
v    30.166409 65.523795 59.849890
v    19.508774 56.501190 83.234822
v    18.974047 56.227564 83.842194
v    16.521112 55.073948 86.544340
v    15.375764 54.498991 87.272861
v    12.588391 53.545016 88.906818
v    18.090366 58.679111 83.234822
v    17.623890 58.300687 83.842194
v    15.576948 56.523683 86.544340
v    14.587970 55.708625 87.272861
v    12.588391 53.545016 88.906818
v    29.699849 65.530950 123.841075
v    33.352716 67.049125 126.121629
v    35.202701 67.539053 127.183031
v    37.097368 68.096362 127.580395
v    31.004164 63.179301 123.841075
v    34.226218 65.474221 126.121629
v    35.621383 66.784179 127.183031
v    37.097368 68.096362 127.580395
v    9.899559 55.229485 162.915178
v    7.500800 54.871947 164.293850
v    5.705468 54.849553 165.289648
v    2.687404 54.729775 165.897373
v    9.194636 57.879507 162.915178
v    6.935269 56.997954 164.293850
v    5.366093 56.125369 165.289648
v    2.687404 54.729775 165.897373
v    36.171395 67.201753 193.000852
v    36.981086 67.435846 193.479983
v    41.421039 68.088506 195.968917
v    42.395633 68.258958 196.167986
v    37.252472 64.597439 193.000852
v    37.989916 65.005578 193.479983
v    41.586834 67.689106 195.968917
v    42.395633 68.258958 196.167986
v    8.640326 46.715876 217.627979
v    4.355977 44.693699 220.255530
v    3.166835 44.092370 220.523642
v    6.795311 48.958174 217.627979
v    3.985912 45.143450 220.255530
v    3.166835 44.092370 220.523642
v    39.640246 80.093930 241.977909
v    40.111785 80.389888 242.286677
v    45.276408 83.830642 243.535311
v    41.798318 78.031312 241.977909
v    42.072656 78.515748 242.286677
v    45.276408 83.830642 243.535311
v    1.189977 36.307904 257.987528
v    -4.119333 32.870436 259.260132
v    -0.783313 38.244069 257.987528
v    -4.119333 32.870436 259.260132
v    42.279276 83.762228 265.887157
v    43.836038 84.802478 266.925583
v    46.743133 86.861536 267.642359
v    44.116242 82.104313 265.887157
v    44.991951 83.759234 266.925583
v    46.743133 86.861536 267.642359
v    -7.425681 53.072009 270.401362
v    -11.835366 53.315867 272.850783
v    -7.839188 55.196120 270.401362
v    -11.835366 53.315867 272.850783
v    46.366782 80.879681 274.218969
v    49.753673 82.483559 276.297373
v    47.535284 79.463260 274.218969
v    49.753673 82.483559 276.297373
v    -6.113313 37.608586 278.955479
v    -7.537222 37.012293 279.811654
v    -8.978005 36.362341 280.129676
v    -6.982356 38.765874 278.955479
v    -7.952063 37.564728 279.811654
v    -8.978005 36.362341 280.129676
v    49.492189 79.542302 278.148769
v    51.481993 80.299195 279.329491
v    50.090616 78.687898 278.148769
v    51.481993 80.299195 279.329491
v    -12.797884 34.544305 282.442283
v    -13.736399 34.148216 282.647244
v    -13.056471 34.906763 282.442283
v    -13.736399 34.148216 282.647244
mtllib usm_5_2.5D_2018-09-04_1.mtl
usemtl APPID_2421832848_2003874049376 
o vid_3 
f 3 2 1
f 4 5 6
f 1 6 5
f 1 5 3
f 3 5 4
f 4 2 3
f 2 4 6
f 6 1 2
usemtl APPID_2421835536_2003874054112 
o vid_4 
f 7 10 11
f 7 11 8
f 8 11 12
f 8 12 9
usemtl APPID_2421832848_2003874049376 
o vid_5 
f 15 14 13
f 16 17 18
f 13 18 17
f 13 17 15
f 15 17 16
f 16 14 15
f 14 16 18
f 18 13 14
usemtl APPID_2421835536_2003874054112 
o vid_6 
f 19 21 22
f 19 22 20
f 19 21 22
f 19 22 20
usemtl APPID_2421832848_2003874049376 
o vid_7 
f 25 24 23
f 26 27 28
f 23 28 27
f 23 27 25
f 25 27 26
f 26 24 25
f 24 26 28
f 28 23 24
usemtl APPID_2421835536_2003874054112 
o vid_8 
f 29 31 32
f 29 32 30
f 29 31 32
f 29 32 30
usemtl APPID_2421832848_2003874049376 
o vid_9 
f 35 34 33
f 36 37 38
f 33 38 37
f 33 37 35
f 35 37 36
f 36 34 35
f 34 36 38
f 38 33 34
usemtl APPID_2421835536_2003874054112 
o vid_10 
f 39 41 42
f 39 42 40
f 39 41 42
f 39 42 40
usemtl APPID_2421832848_2003874049376 
o vid_11 
f 45 44 43
f 46 47 48
f 43 48 47
f 43 47 45
f 45 47 46
f 46 44 45
f 44 46 48
f 48 43 44
usemtl APPID_2421835536_2003874054112 
o vid_12 
f 49 51 52
f 49 52 50
f 49 51 52
f 49 52 50
usemtl APPID_2421832848_2003874049376 
o vid_13 
f 55 54 53
f 56 57 58
f 53 58 57
f 53 57 55
f 55 57 56
f 56 54 55
f 54 56 58
f 58 53 54
usemtl APPID_2421835536_2003874054112 
o vid_14 
f 59 61 62
f 59 62 60
f 59 61 62
f 59 62 60
usemtl APPID_2421832848_2003874049376 
o vid_15 
f 65 64 63
f 66 67 68
f 63 68 67
f 63 67 65
f 65 67 66
f 66 64 65
f 64 66 68
f 68 63 64
usemtl APPID_2421835536_2003874054112 
o vid_16 
f 69 72 73
f 69 73 70
f 70 73 74
f 70 74 71
usemtl APPID_2421832848_2003874049376 
o vid_17 
f 77 76 75
f 78 79 80
f 75 80 79
f 75 79 77
f 77 79 78
f 78 76 77
f 76 78 80
f 80 75 76
usemtl APPID_2421835536_2003874054112 
o vid_18 
f 81 84 85
f 81 85 82
f 82 85 86
f 82 86 83
usemtl APPID_2421832848_2003874049376 
o vid_19 
f 89 88 87
f 90 91 92
f 87 92 91
f 87 91 89
f 89 91 90
f 90 88 89
f 88 90 92
f 92 87 88
usemtl APPID_2421835536_2003874054112 
o vid_20 
f 93 98 99
f 94 99 100
f 95 100 101
f 93 99 94
f 94 100 95
f 95 101 96
f 96 101 102
f 96 102 97
usemtl APPID_2421832848_2003874049376 
o vid_21 
f 105 104 103
f 106 107 108
f 103 108 107
f 103 107 105
f 105 107 106
f 106 104 105
f 104 106 108
f 108 103 104
usemtl APPID_2421835536_2003874054112 
o vid_22 
f 109 115 116
f 110 116 117
f 111 117 118
f 112 118 119
f 109 116 110
f 110 117 111
f 111 118 112
f 112 119 113
f 113 119 120
f 113 120 114
usemtl APPID_2421832848_2003874049376 
o vid_23 
f 123 122 121
f 124 125 126
f 121 126 125
f 121 125 123
f 123 125 124
f 124 122 123
f 122 124 126
f 126 121 122
usemtl APPID_2421835536_2003874054112 
o vid_24 
f 127 133 134
f 128 134 135
f 129 135 136
f 130 136 137
f 127 134 128
f 128 135 129
f 129 136 130
f 130 137 131
f 131 137 138
f 131 138 132
usemtl APPID_2421832848_2003874049376 
o vid_25 
f 141 140 139
f 142 143 144
f 139 144 143
f 139 143 141
f 141 143 142
f 142 140 141
f 140 142 144
f 144 139 140
usemtl APPID_2421835536_2003874054112 
o vid_26 
f 145 152 153
f 146 153 154
f 147 154 155
f 148 155 156
f 149 156 157
f 145 153 146
f 146 154 147
f 147 155 148
f 148 156 149
f 149 157 150
f 150 157 158
f 150 158 151
usemtl APPID_2421832848_2003874049376 
o vid_27 
f 161 160 159
f 162 163 164
f 159 164 163
f 159 163 161
f 161 163 162
f 162 160 161
f 160 162 164
f 164 159 160
usemtl APPID_2421835536_2003874054112 
o vid_28 
f 165 171 172
f 166 172 173
f 167 173 174
f 168 174 175
f 165 172 166
f 166 173 167
f 167 174 168
f 168 175 169
f 169 175 176
f 169 176 170
usemtl APPID_2421832848_2003874049376 
o vid_29 
f 179 178 177
f 180 181 182
f 177 182 181
f 177 181 179
f 179 181 180
f 180 178 179
f 178 180 182
f 182 177 178
usemtl APPID_2421835536_2003874054112 
o vid_30 
f 183 188 189
f 184 189 190
f 185 190 191
f 183 189 184
f 184 190 185
f 185 191 186
f 186 191 192
f 186 192 187
usemtl APPID_2421832848_2003874049376 
o vid_31 
f 195 194 193
f 196 197 198
f 193 198 197
f 193 197 195
f 195 197 196
f 196 194 195
f 194 196 198
f 198 193 194
usemtl APPID_2421835536_2003874054112 
o vid_32 
f 199 206 207
f 200 207 208
f 201 208 209
f 202 209 210
f 203 210 211
f 199 207 200
f 200 208 201
f 201 209 202
f 202 210 203
f 203 211 204
f 204 211 212
f 204 212 205
usemtl APPID_2421832848_2003874049376 
o vid_33 
f 215 214 213
f 216 217 218
f 213 218 217
f 213 217 215
f 215 217 216
f 216 214 215
f 214 216 218
f 218 213 214
usemtl APPID_2421835536_2003874054112 
o vid_34 
f 219 226 227
f 220 227 228
f 221 228 229
f 222 229 230
f 223 230 231
f 219 227 220
f 220 228 221
f 221 229 222
f 222 230 223
f 223 231 224
f 224 231 232
f 224 232 225
usemtl APPID_2421832848_2003874049376 
o vid_35 
f 235 234 233
f 236 237 238
f 233 238 237
f 233 237 235
f 235 237 236
f 236 234 235
f 234 236 238
f 238 233 234
usemtl APPID_2421835536_2003874054112 
o vid_36 
f 239 246 247
f 240 247 248
f 241 248 249
f 242 249 250
f 243 250 251
f 239 247 240
f 240 248 241
f 241 249 242
f 242 250 243
f 243 251 244
f 244 251 252
f 244 252 245
usemtl APPID_2421832848_2003874049376 
o vid_37 
f 255 254 253
f 256 257 258
f 253 258 257
f 253 257 255
f 255 257 256
f 256 254 255
f 254 256 258
f 258 253 254
usemtl APPID_2421835536_2003874054112 
o vid_38 
f 259 266 267
f 260 267 268
f 261 268 269
f 262 269 270
f 263 270 271
f 259 267 260
f 260 268 261
f 261 269 262
f 262 270 263
f 263 271 264
f 264 271 272
f 264 272 265
usemtl APPID_2421832848_2003874049376 
o vid_39 
f 275 274 273
f 276 277 278
f 273 278 277
f 273 277 275
f 275 277 276
f 276 274 275
f 274 276 278
f 278 273 274
usemtl APPID_2421835536_2003874054112 
o vid_40 
f 279 285 286
f 280 286 287
f 281 287 288
f 282 288 289
f 279 286 280
f 280 287 281
f 281 288 282
f 282 289 283
f 283 289 290
f 283 290 284
usemtl APPID_2421832848_2003874049376 
o vid_41 
f 293 292 291
f 294 295 296
f 291 296 295
f 291 295 293
f 293 295 294
f 294 292 293
f 292 294 296
f 296 291 292
usemtl APPID_2421835536_2003874054112 
o vid_42 
f 297 305 306
f 298 306 307
f 299 307 308
f 300 308 309
f 301 309 310
f 302 310 311
f 297 306 298
f 298 307 299
f 299 308 300
f 300 309 301
f 301 310 302
f 302 311 303
f 303 311 312
f 303 312 304
usemtl APPID_2421835760_2003874050400 
o vid_10000004 
f 313 321 322
f 314 322 323
f 315 323 324
f 316 324 325
f 317 325 326
f 318 326 327
f 313 322 314
f 314 323 315
f 315 324 316
f 316 325 317
f 317 326 318
f 318 327 319
f 319 327 328
usemtl APPID_2421835760_2003874050400 
o vid_10000006 
f 329 337 338
f 330 338 339
f 331 339 340
f 332 340 341
f 333 341 342
f 334 342 343
f 329 338 330
f 330 339 331
f 331 340 332
f 332 341 333
f 333 342 334
f 334 343 335
f 335 343 344
usemtl APPID_2421835760_2003874050400 
o vid_10000008 
f 345 353 354
f 346 354 355
f 347 355 356
f 348 356 357
f 349 357 358
f 350 358 359
f 345 354 346
f 346 355 347
f 347 356 348
f 348 357 349
f 349 358 350
f 350 359 351
f 351 359 360
usemtl APPID_2421835760_2003874050400 
o vid_10000010 
f 361 367 368
f 362 368 369
f 363 369 370
f 364 370 371
f 361 368 362
f 362 369 363
f 363 370 364
f 364 371 365
f 365 371 372
usemtl APPID_2421835760_2003874050400 
o vid_10000012 
f 373 380 381
f 374 381 382
f 375 382 383
f 376 383 384
f 377 384 385
f 373 381 374
f 374 382 375
f 375 383 376
f 376 384 377
f 377 385 378
f 378 385 386
usemtl APPID_2421835760_2003874050400 
o vid_10000014 
f 387 395 396
f 388 396 397
f 389 397 398
f 390 398 399
f 391 399 400
f 392 400 401
f 387 396 388
f 388 397 389
f 389 398 390
f 390 399 391
f 391 400 392
f 392 401 393
f 393 401 402
usemtl APPID_2421835760_2003874050400 
o vid_10000016 
f 403 408 409
f 404 409 410
f 405 410 411
f 403 409 404
f 404 410 405
f 405 411 406
f 406 411 412
usemtl APPID_2421835760_2003874050400 
o vid_10000018 
f 413 418 419
f 414 419 420
f 415 420 421
f 413 419 414
f 414 420 415
f 415 421 416
f 416 421 422
usemtl APPID_2421835760_2003874050400 
o vid_10000020 
f 423 427 428
f 424 428 429
f 423 428 424
f 424 429 425
f 425 429 430
usemtl APPID_2421835760_2003874050400 
o vid_10000022 
f 431 435 436
f 432 436 437
f 431 436 432
f 432 437 433
f 433 437 438
usemtl APPID_2421835760_2003874050400 
o vid_10000024 
f 439 443 444
f 440 444 445
f 439 444 440
f 440 445 441
f 441 445 446
usemtl APPID_2421835760_2003874050400 
o vid_10000026 
f 447 450 451
f 447 451 448
f 448 451 452
usemtl APPID_2421835760_2003874050400 
o vid_10000028 
f 453 456 457
f 453 457 454
f 454 457 458
usemtl APPID_2421835760_2003874050400 
o vid_10000030 
f 459 461 462
f 459 462 460
f 459 461 462
usemtl APPID_2421835760_2003874050400 
o vid_10000032 
f 463 466 467
f 463 467 464
f 464 467 468
usemtl APPID_2421835760_2003874050400 
o vid_10000034 
f 469 471 472
f 469 472 470
f 469 471 472
usemtl APPID_2421835760_2003874050400 
o vid_10000036 
f 473 475 476
f 473 476 474
f 473 475 476
usemtl APPID_2421835760_2003874050400 
o vid_10000038 
f 477 480 481
f 477 481 478
f 478 481 482
usemtl APPID_2421835760_2003874050400 
o vid_10000040 
f 483 485 486
f 483 486 484
f 483 485 486
usemtl APPID_2421835760_2003874050400 
o vid_10000042 
f 487 489 490
f 487 490 488
f 487 489 490
