# File generated by PlantGL - Fri Sep  4 14:43:50 2026
v    18.802379 139.416599 0.000000
v    21.104050 139.254530 0.000000
v    20.093571 141.328871 0.000000
v    21.197621 140.583401 0.231332
v    18.895950 140.745470 0.231332
v    19.906429 138.671129 0.231332
v    20.401684 140.555175 -2.285194
v    21.467527 140.714881 -1.307020
v    20.684761 139.974067 -2.285194
v    21.467527 140.714881 -1.307020
v    20.766554 140.614051 0.231332
v    19.084939 140.356830 0.231332
v    20.148507 139.029119 0.231332
v    19.233446 139.385949 0.322458
v    20.915061 139.643170 0.322458
v    19.851493 140.970881 0.322458
v    20.061569 139.516452 -2.194069
v    18.768992 139.013897 -0.935356
v    19.541548 140.165623 -2.194069
v    18.768992 139.013897 -0.935356
v    19.389312 139.762726 0.322458
v    20.510830 139.589765 0.322458
v    20.099859 140.647509 0.322458
v    20.610688 140.237274 0.370000
v    19.489170 140.410235 0.370000
v    19.900141 139.352491 0.370000
v    19.921634 140.182674 -4.765386
v    20.385936 140.149950 -4.001399
v    20.065523 139.812336 -4.765386
v    20.385936 140.149950 -4.001399
mtllib usm_10_2.5D_2018-07-13_3.mtl
usemtl APPID_3007496544_1759648582624 
o vid_3 
f 3 2 1
f 4 5 6
f 1 6 5
f 1 5 3
f 3 5 4
f 4 2 3
f 2 4 6
f 6 1 2
usemtl APPID_3007498560_1759648582240 
o vid_4 
f 7 9 10
f 7 10 8
f 7 9 10
usemtl APPID_3007496544_1759648582624 
o vid_5 
f 13 12 11
f 14 15 16
f 11 16 15
f 11 15 13
f 13 15 14
f 14 12 13
f 12 14 16
f 16 11 12
usemtl APPID_3007498560_1759648582240 
o vid_6 
f 17 19 20
f 17 20 18
f 17 19 20
usemtl APPID_3007496544_1759648582624 
o vid_7 
f 23 22 21
f 24 25 26
f 21 26 25
f 21 25 23
f 23 25 24
f 24 22 23
f 22 24 26
f 26 21 22
usemtl APPID_3007498560_1759648582240 
o vid_8 
f 27 29 30
f 27 30 28
f 27 29 30
