# File generated by PlantGL - Fri Sep  4 14:42:58 2026
v    58.201987 19.124129 0.000000
v    61.657533 18.880811 0.000000
v    60.140480 21.995060 0.000000
v    61.798013 20.875871 0.231332
v    58.342467 21.119189 0.231332
v    59.859520 18.004940 0.231332
v    61.024856 20.874446 -2.173816
v    62.137255 21.041127 -1.152915
v    61.320298 20.267955 -2.173816
v    62.137255 21.041127 -1.152915
v    61.503548 21.204422 0.231332
v    58.205166 20.699900 0.231332
v    60.291286 18.095678 0.231332
v    58.496452 18.795578 0.322458
v    61.794834 19.300100 0.322458
v    59.708714 21.904322 0.322458
v    59.310588 18.892012 -2.082691
v    57.962548 18.367893 -0.769967
v    58.768254 19.569039 -2.082691
v    57.962548 18.367893 -0.769967
v    58.272844 19.328938 0.322458
v    61.444735 18.839770 0.322458
v    60.282421 21.831292 0.322458
v    61.727156 20.671062 0.466406
v    58.555265 21.160230 0.466406
v    59.717579 18.168708 0.466406
v    60.860370 20.981000 -1.938742
v    62.866166 21.113608 -0.114278
v    61.297001 19.857216 -1.938742
v    62.866166 21.113608 -0.114278
v    61.731622 20.409625 0.466406
v    58.779443 21.294816 0.466406
v    59.488935 18.295559 0.466406
v    58.268378 19.590375 0.678771
v    61.220557 18.705184 0.678771
v    60.511065 21.704441 0.678771
v    59.141799 18.920242 -1.726378
v    56.304106 19.125715 0.855898
v    58.748982 20.580810 -1.726378
v    56.304106 19.125715 0.855898
v    58.876148 18.716648 0.678771
v    61.673341 19.668392 0.678771
v    59.450510 21.614960 0.678771
v    61.123852 21.283352 0.919581
v    58.326659 20.331608 0.919581
v    60.549490 18.385040 0.919581
v    59.495157 21.784877 -1.485567
v    63.925929 24.483108 3.222862
v    61.835882 19.735067 -1.485567
v    63.925929 24.483108 3.222862
v    61.375838 20.878433 0.919581
v    58.551335 20.752294 0.919581
v    60.072827 18.369272 0.919581
v    58.624162 19.121567 1.432331
v    61.448665 19.247706 1.432331
v    59.927173 21.630728 1.432331
v    60.056184 18.171457 -0.972818
v    54.997087 16.805783 3.783251
v    58.364884 20.820440 -0.972818
v    54.997087 16.805783 3.783251
v    58.741782 19.093451 1.432331
v    61.414203 19.363626 1.432331
v    59.844015 21.542923 1.432331
v    61.258218 20.906549 2.225064
v    58.585797 20.636374 2.225064
v    60.155985 18.457077 2.225064
v    59.417505 22.271218 -0.180085
v    61.873761 23.534144 2.418320
v    66.483584 25.060694 6.825706
v    67.620208 25.490378 7.564784
v    61.970036 18.728509 -0.180085
v    63.945541 20.658677 2.418320
v    66.852823 24.548219 6.825706
v    67.620208 25.490378 7.564784
v    61.043728 20.679745 2.225064
v    58.889460 20.564022 2.225064
v    60.066813 18.756233 2.225064
v    58.956272 19.320255 3.119461
v    61.110540 19.435978 3.119461
v    59.933187 21.243767 3.119461
v    60.814470 17.741840 0.714313
v    57.363486 16.168208 4.282607
v    53.716042 15.148149 7.720103
v    51.387894 14.391222 9.209113
v    58.264005 21.658001 0.714313
v    55.429354 19.138009 4.282607
v    53.021566 16.214496 7.720103
v    51.387894 14.391222 9.209113
v    59.157587 19.532765 3.119461
v    60.825844 19.504066 3.119461
v    60.016569 20.963168 3.119461
v    60.842413 20.467235 4.391396
v    59.174156 20.495934 4.391396
v    59.983431 19.036832 4.391396
v    58.944095 22.455518 1.986247
v    59.555808 22.708149 2.611770
v    64.663939 24.613159 7.740809
v    66.014546 24.889514 8.992038
v    71.087773 26.149706 12.171498
v    61.523960 17.804083 1.986247
v    62.062167 18.189243 2.611770
v    66.382930 21.513860 7.740809
v    67.332501 22.513272 8.992038
v    71.087773 26.149706 12.171498
v    60.680379 20.180985 4.391396
v    59.503073 20.498733 4.391396
v    59.816548 19.320282 4.391396
v    59.319621 19.819015 6.209762
v    60.496927 19.501267 6.209762
v    60.183452 20.679718 6.209762
v    60.717539 17.270097 3.804613
v    58.652918 16.968104 5.776744
v    53.335165 16.377826 10.810404
v    46.400138 16.382353 15.031079
v    59.266338 22.725614 3.804613
v    57.324544 21.961876 5.776744
v    52.416337 19.831986 10.810404
v    46.400138 16.382353 15.031079
v    59.567997 19.820671 6.209762
v    60.371305 19.715539 6.209762
v    60.060698 20.463790 6.209762
v    60.432003 20.179329 7.293000
v    59.628695 20.284461 7.293000
v    59.939302 19.536210 7.293000
v    58.779660 21.993193 2.387748
v    61.485959 22.535494 6.496248
v    64.608565 22.538742 10.874601
v    66.480003 22.689917 12.676554
v    60.549966 17.728528 2.387748
v    62.844729 19.262219 6.496248
v    65.051663 21.471319 10.874601
v    66.480003 22.689917 12.676554
mtllib usm_42_2.5D_2018-08-07_1.mtl
usemtl APPID_4152138832_1941179438960 
o vid_3 
f 3 2 1
f 4 5 6
f 1 6 5
f 1 5 3
f 3 5 4
f 4 2 3
f 2 4 6
f 6 1 2
usemtl APPID_4152139168_1941179441520 
o vid_4 
f 7 9 10
f 7 10 8
f 7 9 10
usemtl APPID_4152138832_1941179438960 
o vid_5 
f 13 12 11
f 14 15 16
f 11 16 15
f 11 15 13
f 13 15 14
f 14 12 13
f 12 14 16
f 16 11 12
usemtl APPID_4152139168_1941179441520 
o vid_6 
f 17 19 20
f 17 20 18
f 17 19 20
usemtl APPID_4152138832_1941179438960 
o vid_7 
f 23 22 21
f 24 25 26
f 21 26 25
f 21 25 23
f 23 25 24
f 24 22 23
f 22 24 26
f 26 21 22
usemtl APPID_4152139168_1941179441520 
o vid_8 
f 27 29 30
f 27 30 28
f 27 29 30
usemtl APPID_4152138832_1941179438960 
o vid_9 
f 33 32 31
f 34 35 36
f 31 36 35
f 31 35 33
f 33 35 34
f 34 32 33
f 32 34 36
f 36 31 32
usemtl APPID_4152139168_1941179441520 
o vid_10 
f 37 39 40
f 37 40 38
f 37 39 40
usemtl APPID_4152138832_1941179438960 
o vid_11 
f 43 42 41
f 44 45 46
f 41 46 45
f 41 45 43
f 43 45 44
f 44 42 43
f 42 44 46
f 46 41 42
usemtl APPID_4152139168_1941179441520 
o vid_12 
f 47 49 50
f 47 50 48
f 47 49 50
usemtl APPID_4152138832_1941179438960 
o vid_13 
f 53 52 51
f 54 55 56
f 51 56 55
f 51 55 53
f 53 55 54
f 54 52 53
f 52 54 56
f 56 51 52
usemtl APPID_4152139168_1941179441520 
o vid_14 
f 57 59 60
f 57 60 58
f 57 59 60
usemtl APPID_4152138832_1941179438960 
o vid_15 
f 63 62 61
f 64 65 66
f 61 66 65
f 61 65 63
f 63 65 64
f 64 62 63
f 62 64 66
f 66 61 62
usemtl APPID_4152139168_1941179441520 
o vid_16 
f 67 71 72
f 68 72 73
f 67 72 68
f 68 73 69
f 69 73 74
usemtl APPID_4152138832_1941179438960 
o vid_17 
f 77 76 75
f 78 79 80
f 75 80 79
f 75 79 77
f 77 79 78
f 78 76 77
f 76 78 80
f 80 75 76
usemtl APPID_4152139168_1941179441520 
o vid_18 
f 81 85 86
f 82 86 87
f 81 86 82
f 82 87 83
f 83 87 88
usemtl APPID_4152138832_1941179438960 
o vid_19 
f 91 90 89
f 92 93 94
f 89 94 93
f 89 93 91
f 91 93 92
f 92 90 91
f 90 92 94
f 94 89 90
usemtl APPID_4152139168_1941179441520 
o vid_20 
f 95 100 101
f 96 101 102
f 97 102 103
f 95 101 96
f 96 102 97
f 97 103 98
f 98 103 104
usemtl APPID_4152138832_1941179438960 
o vid_21 
f 107 106 105
f 108 109 110
f 105 110 109
f 105 109 107
f 107 109 108
f 108 106 107
f 106 108 110
f 110 105 106
usemtl APPID_4152139168_1941179441520 
o vid_22 
f 111 115 116
f 112 116 117
f 111 116 112
f 112 117 113
f 113 117 118
usemtl APPID_4152138832_1941179438960 
o vid_23 
f 121 120 119
f 122 123 124
f 119 124 123
f 119 123 121
f 121 123 122
f 122 120 121
f 120 122 124
f 124 119 120
usemtl APPID_4152139168_1941179441520 
o vid_24 
f 125 129 130
f 126 130 131
f 125 130 126
f 126 131 127
f 127 131 132
