# File generated by PlantGL - Fri Sep  4 14:43:09 2026
v    98.201987 19.124129 0.000000
v    101.657533 18.880811 0.000000
v    100.140480 21.995060 0.000000
v    101.798013 20.875871 0.331061
v    98.342467 21.119189 0.331061
v    99.859520 18.004940 0.331061
v    101.382963 21.452807 -0.085431
v    102.235815 21.776765 0.779005
v    102.583846 21.899311 1.127740
v    103.810978 22.354128 1.948078
v    104.970165 22.762462 2.330150
v    106.278792 23.058605 2.660950
v    101.996453 20.193417 -0.085431
v    102.777261 20.665268 0.779005
v    103.088291 20.863772 1.127740
v    104.202855 21.549672 1.948078
v    105.238934 22.210725 2.330150
v    106.278792 23.058605 2.660950
v    101.503548 21.204422 0.331061
v    98.205166 20.699900 0.331061
v    100.291286 18.095678 0.331061
v    98.496452 18.795578 0.718770
v    101.794834 19.300100 0.718770
v    99.708714 21.904322 0.718770
v    99.284579 18.077173 0.145004
v    97.814145 17.103036 1.816286
v    97.356610 16.791345 2.163953
v    96.086034 15.964305 3.114250
v    95.249451 15.404821 3.368200
v    93.785363 14.480102 3.804015
v    93.210520 14.206216 3.961007
v    92.108342 13.678361 3.708395
v    97.967383 19.721502 0.145004
v    96.695796 18.499134 1.816286
v    96.291758 18.120659 2.163953
v    95.207343 17.061226 3.114250
v    94.478754 16.366925 3.368200
v    93.256779 15.139963 3.804015
v    92.864032 14.638758 3.961007
v    92.108342 13.678361 3.708395
v    98.272844 19.328938 0.718770
v    101.444735 18.839770 0.718770
v    100.282421 21.831292 0.718770
v    101.727156 20.671062 1.487000
v    98.555265 21.160230 1.487000
v    99.717579 18.168708 1.487000
v    100.991235 21.948649 0.715108
v    103.271528 22.605103 2.963498
v    104.482466 22.970721 3.757864
v    105.944975 23.378981 4.709659
v    107.816774 23.926686 5.201771
v    110.068973 24.522283 5.788077
v    112.549817 24.876054 5.381723
v    102.046846 19.231755 0.715108
v    104.172178 20.287044 2.963498
v    105.312309 20.834901 3.757864
v    106.666809 21.521149 4.709659
v    108.417381 22.380866 5.201771
v    110.480900 23.462079 5.788077
v    112.549817 24.876054 5.381723
v    101.731622 20.409625 1.487000
v    98.779443 21.294816 1.487000
v    99.488935 18.295559 1.487000
v    98.268378 19.590375 2.857581
v    101.220557 18.705184 2.857581
v    100.511065 21.704441 2.857581
v    99.005751 17.747463 1.843500
v    95.919704 17.306264 4.797346
v    93.657566 16.952967 6.235172
v    92.303862 16.770584 7.091382
v    89.057052 16.291948 7.919498
v    86.420204 15.973372 8.587951
v    82.720051 15.912328 7.820747
v    98.101902 21.568335 1.843500
v    95.145259 20.580101 4.797346
v    92.964585 19.882426 6.235172
v    91.672641 19.438966 7.091382
v    88.555500 18.412172 7.919498
v    86.055388 17.515570 8.587951
v    82.720051 15.912328 7.820747
v    98.876148 18.716648 2.857581
v    101.673341 19.668392 2.857581
v    99.450510 21.614960 2.857581
v    101.123852 21.283352 4.464214
v    98.326659 20.331608 4.464214
v    100.549490 18.385040 4.464214
v    98.815942 22.804201 3.163197
v    99.646509 23.596021 4.250535
v    101.711195 25.563436 6.952838
v    105.062004 28.840041 9.895977
v    105.950158 29.725727 10.212918
v    110.431460 34.033338 11.781368
v    113.354958 36.705308 11.009619
v    116.788543 39.171222 10.135791
v    102.935911 19.196279 3.163197
v    103.611223 20.124058 4.250535
v    105.289024 22.430274 6.952838
v    108.094879 26.184104 9.895977
v    108.855639 27.181352 10.212918
v    112.534329 32.191822 11.781368
v    114.797214 35.442301 11.009619
v    116.788543 39.171222 10.135791
v    101.270573 20.811225 4.464214
v    98.662173 20.694736 4.464214
v    100.067255 18.494039 4.464214
v    98.729427 19.188775 10.752587
v    101.337827 19.305264 10.752587
v    99.932745 21.505961 10.752587
v    101.074619 16.391774 9.122588
v    97.933113 14.763506 12.475396
v    96.625741 14.086283 13.870500
v    91.447385 11.318425 17.557858
v    87.607362 9.217254 18.663933
v    83.044944 6.828624 19.963392
v    80.687868 5.592275 19.400536
v    76.233990 3.401238 18.353553
v    73.061692 2.280910 17.658116
v    71.430052 1.758904 16.679759
v    97.179018 22.493223 9.122588
v    94.379954 20.328607 12.475396
v    93.215456 19.427610 13.870500
v    88.525485 15.894824 17.557858
v    85.003484 13.295554 18.663933
v    80.916724 10.161929 19.963392
v    78.803286 8.543983 19.400536
v    74.941447 5.425672 18.353553
v    72.590203 3.019375 17.658116
v    71.430052 1.758904 16.679759
v    99.029643 19.300855 10.752587
v    101.090656 19.509218 10.752587
v    99.879702 21.189926 10.752587
v    100.970357 20.699145 22.165711
v    98.909344 20.490782 22.165711
v    100.120298 18.810074 22.165711
v    97.742117 24.192893 20.171430
v    99.459620 25.435192 22.188112
v    102.584917 27.475240 25.735164
v    107.766151 30.628061 29.626788
v    118.830736 37.499987 33.434997
v    121.754669 39.322596 32.705375
v    127.774230 42.924371 31.221955
v    130.004772 44.259005 30.672275
v    134.166176 46.528067 27.997153
v    139.407016 48.392847 23.173786
v    103.262550 16.530972 20.171430
v    104.984638 17.766907 22.188112
v    107.909088 20.085715 25.735164
v    112.539891 24.002489 29.626788
v    122.560915 32.322795 33.434997
v    125.215365 34.519424 32.705375
v    130.537407 39.089300 31.221955
v    132.509484 40.782663 30.672275
v    135.979150 44.011804 27.997153
v    139.407016 48.392847 23.173786
v    100.760447 20.495254 22.165711
v    99.190874 20.410940 22.165711
v    100.048679 19.093807 22.165711
v    99.239553 19.504746 39.904430
v    100.809126 19.589060 39.904430
v    99.951321 20.906193 39.904430
v    102.854505 15.217020 37.521675
v    100.517384 13.843829 40.097887
v    96.447407 11.687444 44.462237
v    94.160494 10.437761 46.098864
v    88.914787 7.572656 49.852466
v    78.215721 1.592110 52.949653
v    68.104463 -3.827139 51.294310
v    62.619029 -6.587485 49.999025
v    57.492309 -8.415744 46.871803
v    55.482704 -8.992633 45.067135
v    96.779675 24.544734 37.521675
v    94.578738 22.962438 40.097887
v    90.960809 20.111947 44.462237
v    88.893134 18.525631 46.098864
v    84.151602 14.886380 49.852466
v    74.355616 7.519181 52.949653
v    65.310675 0.462636 51.294310
v    60.568024 -3.438229 49.999025
v    56.822909 -7.387901 46.871803
v    55.482704 -8.992633 45.067135
v    99.438585 19.688618 39.904430
v    100.550373 19.669492 39.904430
v    100.011042 20.641891 39.904430
v    100.561415 20.311382 60.503119
v    99.449627 20.330508 60.503119
v    99.988958 19.358109 60.503119
v    97.327791 24.483561 57.722979
v    105.145023 27.938160 65.821057
v    108.910136 29.660542 68.421177
v    114.312234 31.995847 72.110245
v    120.289843 34.668687 73.762482
v    128.036493 37.892412 75.874192
v    136.713231 40.362572 74.632492
v    102.388560 15.359116 57.722979
v    109.458308 20.161410 65.821057
v    112.913026 22.443425 68.421177
v    117.754468 25.789582 72.110245
v    123.186973 29.445230 73.762482
v    130.023495 34.309895 75.874192
v    136.713231 40.362572 74.632492
v    100.386026 20.102685 60.503119
v    99.718059 20.282966 60.503119
v    99.895915 19.614349 60.503119
v    99.613974 19.897315 67.485000
v    100.281941 19.717034 67.485000
v    100.104085 20.385651 67.485000
v    100.548950 16.242053 61.160201
v    99.454038 16.333520 65.467193
v    97.181108 16.739897 74.176397
v    92.048812 17.884935 84.238826
v    98.609242 23.534020 61.160201
v    97.704486 22.910630 65.467193
v    95.933872 21.428645 74.176397
v    92.048812 17.884935 84.238826
mtllib usm_39_2.5D_2018-08-26_2.mtl
usemtl APPID_2856264016_2442503437024 
o vid_3 
f 3 2 1
f 4 5 6
f 1 6 5
f 1 5 3
f 3 5 4
f 4 2 3
f 2 4 6
f 6 1 2
usemtl APPID_2856265248_2442503441632 
o vid_4 
f 7 13 14
f 8 14 15
f 9 15 16
f 10 16 17
f 7 14 8
f 8 15 9
f 9 16 10
f 10 17 11
f 11 17 18
usemtl APPID_2856264016_2442503437024 
o vid_5 
f 21 20 19
f 22 23 24
f 19 24 23
f 19 23 21
f 21 23 22
f 22 20 21
f 20 22 24
f 24 19 20
usemtl APPID_2856265248_2442503441632 
o vid_6 
f 25 33 34
f 26 34 35
f 27 35 36
f 28 36 37
f 29 37 38
f 30 38 39
f 25 34 26
f 26 35 27
f 27 36 28
f 28 37 29
f 29 38 30
f 30 39 31
f 31 39 40
usemtl APPID_2856264016_2442503437024 
o vid_7 
f 43 42 41
f 44 45 46
f 41 46 45
f 41 45 43
f 43 45 44
f 44 42 43
f 42 44 46
f 46 41 42
usemtl APPID_2856265248_2442503441632 
o vid_8 
f 47 54 55
f 48 55 56
f 49 56 57
f 50 57 58
f 51 58 59
f 47 55 48
f 48 56 49
f 49 57 50
f 50 58 51
f 51 59 52
f 52 59 60
usemtl APPID_2856264016_2442503437024 
o vid_9 
f 63 62 61
f 64 65 66
f 61 66 65
f 61 65 63
f 63 65 64
f 64 62 63
f 62 64 66
f 66 61 62
usemtl APPID_2856265248_2442503441632 
o vid_10 
f 67 74 75
f 68 75 76
f 69 76 77
f 70 77 78
f 71 78 79
f 67 75 68
f 68 76 69
f 69 77 70
f 70 78 71
f 71 79 72
f 72 79 80
usemtl APPID_2856264016_2442503437024 
o vid_11 
f 83 82 81
f 84 85 86
f 81 86 85
f 81 85 83
f 83 85 84
f 84 82 83
f 82 84 86
f 86 81 82
usemtl APPID_2856265248_2442503441632 
o vid_12 
f 87 95 96
f 88 96 97
f 89 97 98
f 90 98 99
f 91 99 100
f 92 100 101
f 87 96 88
f 88 97 89
f 89 98 90
f 90 99 91
f 91 100 92
f 92 101 93
f 93 101 102
usemtl APPID_2856264016_2442503437024 
o vid_13 
f 105 104 103
f 106 107 108
f 103 108 107
f 103 107 105
f 105 107 106
f 106 104 105
f 104 106 108
f 108 103 104
usemtl APPID_2856265248_2442503441632 
o vid_14 
f 109 119 120
f 110 120 121
f 111 121 122
f 112 122 123
f 113 123 124
f 114 124 125
f 115 125 126
f 116 126 127
f 109 120 110
f 110 121 111
f 111 122 112
f 112 123 113
f 113 124 114
f 114 125 115
f 115 126 116
f 116 127 117
f 117 127 128
usemtl APPID_2856264016_2442503437024 
o vid_15 
f 131 130 129
f 132 133 134
f 129 134 133
f 129 133 131
f 131 133 132
f 132 130 131
f 130 132 134
f 134 129 130
usemtl APPID_2856265248_2442503441632 
o vid_16 
f 135 145 146
f 136 146 147
f 137 147 148
f 138 148 149
f 139 149 150
f 140 150 151
f 141 151 152
f 142 152 153
f 135 146 136
f 136 147 137
f 137 148 138
f 138 149 139
f 139 150 140
f 140 151 141
f 141 152 142
f 142 153 143
f 143 153 154
usemtl APPID_2856264016_2442503437024 
o vid_17 
f 157 156 155
f 158 159 160
f 155 160 159
f 155 159 157
f 157 159 158
f 158 156 157
f 156 158 160
f 160 155 156
usemtl APPID_2856265248_2442503441632 
o vid_18 
f 161 171 172
f 162 172 173
f 163 173 174
f 164 174 175
f 165 175 176
f 166 176 177
f 167 177 178
f 168 178 179
f 161 172 162
f 162 173 163
f 163 174 164
f 164 175 165
f 165 176 166
f 166 177 167
f 167 178 168
f 168 179 169
f 169 179 180
usemtl APPID_2856264016_2442503437024 
o vid_19 
f 183 182 181
f 184 185 186
f 181 186 185
f 181 185 183
f 183 185 184
f 184 182 183
f 182 184 186
f 186 181 182
usemtl APPID_2856265248_2442503441632 
o vid_20 
f 187 194 195
f 188 195 196
f 189 196 197
f 190 197 198
f 191 198 199
f 187 195 188
f 188 196 189
f 189 197 190
f 190 198 191
f 191 199 192
f 192 199 200
usemtl APPID_2856264016_2442503437024 
o vid_21 
f 203 202 201
f 204 205 206
f 201 206 205
f 201 205 203
f 203 205 204
f 204 202 203
f 202 204 206
f 206 201 202
usemtl APPID_2856265248_2442503441632 
o vid_22 
f 207 211 212
f 208 212 213
f 207 212 208
f 208 213 209
f 209 213 214
