# File generated by PlantGL - Fri Sep  4 14:43:17 2026
v    18.201987 19.124129 0.000000
v    21.657533 18.880811 0.000000
v    20.140480 21.995060 0.000000
v    21.798013 20.875871 0.231332
v    18.342467 21.119189 0.231332
v    19.859520 18.004940 0.231332
v    21.004366 20.850267 -2.274107
v    22.074674 21.010642 -1.291835
v    21.288628 20.266725 -2.274107
v    22.074674 21.010642 -1.291835
v    21.503548 21.204422 0.231332
v    18.205166 20.699900 0.231332
v    20.291286 18.095678 0.231332
v    18.496452 18.795578 0.322458
v    21.794834 19.300100 0.322458
v    19.708714 21.904322 0.322458
v    19.323143 18.922739 -2.182982
v    18.025242 18.418114 -0.919083
v    18.800980 19.574584 -2.182982
v    18.025242 18.418114 -0.919083
v    18.272844 19.328938 0.322458
v    21.444735 18.839770 0.322458
v    20.282421 21.831292 0.322458
v    21.727156 20.671062 0.466406
v    18.555265 21.160230 0.466406
v    19.717579 18.168708 0.466406
v    20.841194 20.950254 -2.039033
v    22.774737 21.078085 -0.280290
v    21.262097 19.866950 -2.039033
v    22.774737 21.078085 -0.280290
v    21.731622 20.409625 0.466406
v    18.779443 21.294816 0.466406
v    19.488935 18.295559 0.466406
v    18.268378 19.590375 0.678771
v    21.220557 18.705184 0.678771
v    20.511065 21.704441 0.678771
v    19.163314 18.955309 -1.826669
v    16.422648 19.153757 0.667313
v    18.783928 20.559099 -1.826669
v    16.422648 19.153757 0.667313
v    18.876148 18.716648 0.678771
v    21.673341 19.668392 0.678771
v    19.450510 21.614960 0.678771
v    21.123852 21.283352 0.919581
v    18.326659 20.331608 0.919581
v    20.549490 18.385040 0.919581
v    19.509358 21.733881 -1.585858
v    23.814015 24.355311 2.988553
v    21.783458 19.742415 -1.585858
v    23.814015 24.355311 2.988553
v    21.235173 20.788623 0.919581
v    18.699446 20.675380 0.919581
v    20.065381 18.535997 0.919581
v    18.764827 19.211377 1.432330
v    21.300554 19.324620 1.432330
v    19.934619 21.464003 1.432330
v    20.197286 18.314490 -1.073109
v    15.281850 16.987596 3.547904
v    18.554014 20.888251 -1.073109
v    15.281850 16.987596 3.547904
v    19.062184 19.324301 1.432330
v    21.054080 19.525677 1.432330
v    19.883736 21.150022 1.432330
v    20.937816 20.675699 2.225063
v    18.945920 20.474323 2.225063
v    20.116264 18.849978 2.225063
v    19.063898 22.036829 -0.280376
v    21.177567 23.123608 1.955616
v    26.471997 24.876866 7.017545
v    27.096224 25.112846 7.423442
v    21.635766 18.467281 -0.280376
v    23.335737 20.128238 1.955616
v    26.674781 24.595419 7.017545
v    27.096224 25.112846 7.423442
v    20.728424 20.474398 2.225063
v    19.224948 20.393634 2.225063
v    20.046629 19.131968 2.225063
v    19.271576 19.525602 3.118961
v    20.775052 19.606366 3.118961
v    19.953371 20.868032 3.118961
v    21.164056 17.947705 0.613522
v    18.052962 16.529061 3.830372
v    13.722638 15.318025 7.911443
v    11.902175 14.726156 9.075753
v    18.593644 21.894494 0.613522
v    16.038180 19.622697 3.830372
v    13.179602 16.151840 7.911443
v    11.902175 14.726156 9.075753
v    19.470350 19.706236 3.118961
v    20.519232 19.688192 3.118961
v    20.010418 20.605572 3.118961
v    20.529650 20.293764 3.867179
v    19.480768 20.311808 3.867179
v    19.989582 19.394428 3.867179
v    18.839423 21.847055 1.361740
v    20.930222 22.626792 3.461098
v    26.541678 23.774981 8.659661
v    27.020764 23.893987 8.959911
v    20.952369 18.037464 1.361740
v    22.720892 19.398257 3.461098
v    26.666138 23.550582 8.659661
v    27.020764 23.893987 8.959911
v    20.352751 20.093834 3.867179
v    19.742362 20.258574 3.867179
v    19.904887 19.647592 3.867179
v    19.647249 19.906166 4.082000
v    20.257638 19.741426 4.082000
v    20.095113 20.352408 4.082000
v    19.560957 18.930508 -0.806954
v    18.892851 19.705491 3.210978
v    19.087601 20.710001 -0.806954
v    18.892851 19.705491 3.210978
mtllib usm_36_2.5D_2018-08-02_0.mtl
usemtl APPID_269280672_2560076489600 
o vid_3 
f 3 2 1
f 4 5 6
f 1 6 5
f 1 5 3
f 3 5 4
f 4 2 3
f 2 4 6
f 6 1 2
usemtl APPID_269282352_2560076494976 
o vid_4 
f 7 9 10
f 7 10 8
f 7 9 10
usemtl APPID_269280672_2560076489600 
o vid_5 
f 13 12 11
f 14 15 16
f 11 16 15
f 11 15 13
f 13 15 14
f 14 12 13
f 12 14 16
f 16 11 12
usemtl APPID_269282352_2560076494976 
o vid_6 
f 17 19 20
f 17 20 18
f 17 19 20
usemtl APPID_269280672_2560076489600 
o vid_7 
f 23 22 21
f 24 25 26
f 21 26 25
f 21 25 23
f 23 25 24
f 24 22 23
f 22 24 26
f 26 21 22
usemtl APPID_269282352_2560076494976 
o vid_8 
f 27 29 30
f 27 30 28
f 27 29 30
usemtl APPID_269280672_2560076489600 
o vid_9 
f 33 32 31
f 34 35 36
f 31 36 35
f 31 35 33
f 33 35 34
f 34 32 33
f 32 34 36
f 36 31 32
usemtl APPID_269282352_2560076494976 
o vid_10 
f 37 39 40
f 37 40 38
f 37 39 40
usemtl APPID_269280672_2560076489600 
o vid_11 
f 43 42 41
f 44 45 46
f 41 46 45
f 41 45 43
f 43 45 44
f 44 42 43
f 42 44 46
f 46 41 42
usemtl APPID_269282352_2560076494976 
o vid_12 
f 47 49 50
f 47 50 48
f 47 49 50
usemtl APPID_269280672_2560076489600 
o vid_13 
f 53 52 51
f 54 55 56
f 51 56 55
f 51 55 53
f 53 55 54
f 54 52 53
f 52 54 56
f 56 51 52
usemtl APPID_269282352_2560076494976 
o vid_14 
f 57 59 60
f 57 60 58
f 57 59 60
usemtl APPID_269280672_2560076489600 
o vid_15 
f 63 62 61
f 64 65 66
f 61 66 65
f 61 65 63
f 63 65 64
f 64 62 63
f 62 64 66
f 66 61 62
usemtl APPID_269282352_2560076494976 
o vid_16 
f 67 71 72
f 68 72 73
f 67 72 68
f 68 73 69
f 69 73 74
usemtl APPID_269280672_2560076489600 
o vid_17 
f 77 76 75
f 78 79 80
f 75 80 79
f 75 79 77
f 77 79 78
f 78 76 77
f 76 78 80
f 80 75 76
usemtl APPID_269282352_2560076494976 
o vid_18 
f 81 85 86
f 82 86 87
f 81 86 82
f 82 87 83
f 83 87 88
usemtl APPID_269280672_2560076489600 
o vid_19 
f 91 90 89
f 92 93 94
f 89 94 93
f 89 93 91
f 91 93 92
f 92 90 91
f 90 92 94
f 94 89 90
usemtl APPID_269282352_2560076494976 
o vid_20 
f 95 99 100
f 96 100 101
f 95 100 96
f 96 101 97
f 97 101 102
usemtl APPID_269280672_2560076489600 
o vid_21 
f 105 104 103
f 106 107 108
f 103 108 107
f 103 107 105
f 105 107 106
f 106 104 105
f 104 106 108
f 108 103 104
usemtl APPID_269282352_2560076494976 
o vid_22 
f 109 111 112
f 109 112 110
f 109 111 112
