# File generated by PlantGL - Fri Sep  4 14:41:56 2026
v    18.201987 139.124129 0.000000
v    21.657533 138.880811 0.000000
v    20.140480 141.995060 0.000000
v    21.798013 140.875871 0.331061
v    18.342467 141.119189 0.331061
v    19.859520 138.004940 0.331061
v    21.383011 141.452572 -0.085637
v    22.230290 141.774414 0.773151
v    22.584556 141.899155 1.128134
v    23.805267 142.351593 1.944180
v    24.964051 142.759653 2.328973
v    26.273324 143.055942 2.659937
v    21.996298 140.193600 -0.085637
v    22.772004 140.662368 0.773151
v    23.088606 140.864428 1.128134
v    24.197338 141.546739 1.944180
v    25.232953 142.207642 2.328973
v    26.273324 143.055942 2.659937
v    21.503548 141.204422 0.331061
v    18.205166 140.699900 0.331061
v    20.291286 138.095678 0.331061
v    18.496452 138.795578 0.718770
v    21.794834 139.300100 0.718770
v    19.708714 141.904322 0.718770
v    19.285308 138.076928 0.143568
v    17.811194 137.100353 1.819033
v    17.373791 136.802376 2.151401
v    16.078418 135.959196 3.120245
v    15.264277 135.414720 3.367383
v    13.796524 134.487688 3.804288
v    13.192971 134.200122 3.969121
v    12.115514 133.684107 3.722176
v    17.967303 139.722267 0.143568
v    16.692533 138.496840 1.819033
v    16.306274 138.135018 2.151401
v    15.200694 137.054908 3.120245
v    14.491651 136.379232 3.367383
v    13.266618 135.149200 3.804288
v    12.854254 134.622962 3.969121
v    12.115514 133.684107 3.722176
v    18.272844 139.328938 0.718770
v    21.444735 138.839770 0.718770
v    20.282421 141.831292 0.718770
v    21.727156 140.671062 1.487000
v    18.555265 141.160230 1.487000
v    19.717579 138.168708 1.487000
v    20.989748 141.949782 0.711738
v    23.279998 142.609103 2.969945
v    24.437159 142.958484 3.729033
v    25.965589 143.385147 4.723730
v    27.777673 143.915378 5.200142
v    30.039705 144.513576 5.789008
v    32.530784 144.868659 5.413822
v    22.046515 139.229915 0.711738
v    24.181127 140.289811 2.969945
v    25.270625 140.813338 3.729033
v    26.686179 141.530519 4.723730
v    28.380902 142.362808 5.200142
v    30.453431 143.448743 5.789008
v    32.530784 144.868659 5.413822
v    21.659045 140.392457 1.487000
v    18.830600 141.240546 1.487000
v    19.510355 138.366997 1.487000
v    18.340955 139.607543 2.857087
v    21.169400 138.759454 2.857087
v    20.489645 141.633003 2.857087
v    19.080736 137.762206 1.836837
v    15.975913 137.318323 4.808653
v    13.815445 136.980904 6.181858
v    12.337507 136.781783 7.116646
v    9.203454 136.319770 7.916002
v    6.417243 135.983148 8.622319
v    2.829081 135.938120 7.879028
v    18.175544 141.588751 1.836837
v    15.200914 140.594504 4.808653
v    13.118248 139.928185 6.181858
v    11.707738 139.444027 7.116646
v    8.698851 138.452893 7.916002
v    6.057121 137.505504 8.622319
v    2.829081 135.938120 7.879028
v    19.098854 138.970961 2.857087
v    21.341747 139.734104 2.857087
v    19.559399 141.294935 2.857087
v    20.901146 141.029039 4.462301
v    18.658253 140.265896 4.462301
v    20.440601 138.705065 4.462301
v    18.587976 142.550667 3.151326
v    19.292171 143.222009 4.073222
v    21.505424 145.330992 6.969974
v    24.881881 148.632678 9.935641
v    30.119001 153.692772 11.773572
v    33.063412 156.383522 11.110145
v    36.523279 158.868311 10.229628
v    22.714670 138.936855 3.151326
v    23.287232 139.723470 4.073222
v    25.085761 142.195633 6.969974
v    27.913094 145.978197 9.935641
v    32.237966 151.837160 11.773572
v    34.516708 155.110848 11.110145
v    36.523279 158.868311 10.229628
v    20.888224 140.567105 4.462301
v    19.064760 140.485672 4.462301
v    20.047016 138.947223 4.462301
v    19.111776 139.432895 11.576758
v    20.935240 139.514328 11.576758
v    19.952984 141.052777 11.576758
v    21.540535 136.512962 9.931963
v    17.118261 134.207690 14.658427
v    11.832411 131.383374 18.443805
v    6.296529 128.354267 20.038353
v    3.372478 126.823397 20.871175
v    -0.700261 124.687136 19.898629
v    -5.194569 122.476209 18.842142
v    -9.839311 120.945180 16.572730
v    -9.849581 120.941894 16.566572
v    17.485016 142.864880 9.931963
v    13.532848 139.823310 14.658427
v    8.746426 136.216768 18.443805
v    3.669014 132.469588 20.038353
v    1.049812 130.461251 20.871175
v    -2.601950 127.665639 19.898629
v    -6.498846 124.519021 18.842142
v    -9.842279 120.949828 16.572730
v    -9.849581 120.941894 16.566572
v    19.381117 139.554093 11.576758
v    20.695608 139.686985 11.576758
v    19.923275 140.758922 11.576758
v    20.618883 140.445907 20.438483
v    19.304392 140.313015 20.438483
v    20.076725 139.241078 20.438483
v    17.410481 143.901907 18.423556
v    18.838581 144.834104 20.044378
v    22.697157 147.117319 24.292697
v    28.896195 150.892766 28.850832
v    37.028169 155.954912 31.271261
v    45.347565 160.930813 30.238077
v    50.564934 163.871867 28.974767
v    52.923101 164.793333 27.526302
v    54.878784 165.542353 26.330296
v    55.958360 165.908083 25.346429
v    22.881548 136.308500 18.423556
v    24.217872 137.368077 20.044378
v    27.605101 140.305483 24.292697
v    33.148697 144.990631 28.850832
v    40.524693 151.102014 31.271261
v    47.878208 157.418482 30.238077
v    52.319573 161.436568 28.974767
v    53.940128 163.381781 27.526302
v    55.269699 164.999794 26.330296
v    55.958360 165.908083 25.346429
v    20.414565 140.269993 20.438483
v    19.558897 140.224028 20.438483
v    20.026538 139.505980 20.438483
v    19.585435 139.730007 24.162000
v    20.441103 139.775972 24.162000
v    19.973462 140.494020 24.162000
v    22.081249 136.603032 19.262493
v    19.825774 135.617570 24.942077
v    18.323002 135.038254 28.627598
v    14.250568 133.165884 35.076646
v    12.966463 132.642437 37.057006
v    9.306082 130.916329 40.132727
v    3.153218 129.028252 44.878542
v    17.734665 143.277078 19.262493
v    15.921359 141.612679 24.942077
v    14.783871 140.472482 28.627598
v    11.424710 137.504902 35.076646
v    10.426737 136.542107 37.057006
v    7.367962 133.892252 40.132727
v    3.153218 129.028252 44.878542
mtllib usm_17_Beer_2018-08-17_3.mtl
usemtl APPID_1761825504_2183767607264 
o vid_3 
f 3 2 1
f 4 5 6
f 1 6 5
f 1 5 3
f 3 5 4
f 4 2 3
f 2 4 6
f 6 1 2
usemtl APPID_1761824944_2183767607136 
o vid_4 
f 7 13 14
f 8 14 15
f 9 15 16
f 10 16 17
f 7 14 8
f 8 15 9
f 9 16 10
f 10 17 11
f 11 17 18
usemtl APPID_1761825504_2183767607264 
o vid_5 
f 21 20 19
f 22 23 24
f 19 24 23
f 19 23 21
f 21 23 22
f 22 20 21
f 20 22 24
f 24 19 20
usemtl APPID_1761824944_2183767607136 
o vid_6 
f 25 33 34
f 26 34 35
f 27 35 36
f 28 36 37
f 29 37 38
f 30 38 39
f 25 34 26
f 26 35 27
f 27 36 28
f 28 37 29
f 29 38 30
f 30 39 31
f 31 39 40
usemtl APPID_1761825504_2183767607264 
o vid_7 
f 43 42 41
f 44 45 46
f 41 46 45
f 41 45 43
f 43 45 44
f 44 42 43
f 42 44 46
f 46 41 42
usemtl APPID_1761824944_2183767607136 
o vid_8 
f 47 54 55
f 48 55 56
f 49 56 57
f 50 57 58
f 51 58 59
f 47 55 48
f 48 56 49
f 49 57 50
f 50 58 51
f 51 59 52
f 52 59 60
usemtl APPID_1761825504_2183767607264 
o vid_9 
f 63 62 61
f 64 65 66
f 61 66 65
f 61 65 63
f 63 65 64
f 64 62 63
f 62 64 66
f 66 61 62
usemtl APPID_1761824944_2183767607136 
o vid_10 
f 67 74 75
f 68 75 76
f 69 76 77
f 70 77 78
f 71 78 79
f 67 75 68
f 68 76 69
f 69 77 70
f 70 78 71
f 71 79 72
f 72 79 80
usemtl APPID_1761825504_2183767607264 
o vid_11 
f 83 82 81
f 84 85 86
f 81 86 85
f 81 85 83
f 83 85 84
f 84 82 83
f 82 84 86
f 86 81 82
usemtl APPID_1761824944_2183767607136 
o vid_12 
f 87 94 95
f 88 95 96
f 89 96 97
f 90 97 98
f 91 98 99
f 87 95 88
f 88 96 89
f 89 97 90
f 90 98 91
f 91 99 92
f 92 99 100
usemtl APPID_1761825504_2183767607264 
o vid_13 
f 103 102 101
f 104 105 106
f 101 106 105
f 101 105 103
f 103 105 104
f 104 102 103
f 102 104 106
f 106 101 102
usemtl APPID_1761824944_2183767607136 
o vid_14 
f 107 116 117
f 108 117 118
f 109 118 119
f 110 119 120
f 111 120 121
f 112 121 122
f 113 122 123
f 107 117 108
f 108 118 109
f 109 119 110
f 110 120 111
f 111 121 112
f 112 122 113
f 113 123 114
f 114 123 124
usemtl APPID_1761825504_2183767607264 
o vid_15 
f 127 126 125
f 128 129 130
f 125 130 129
f 125 129 127
f 127 129 128
f 128 126 127
f 126 128 130
f 130 125 126
usemtl APPID_1761824944_2183767607136 
o vid_16 
f 131 141 142
f 132 142 143
f 133 143 144
f 134 144 145
f 135 145 146
f 136 146 147
f 137 147 148
f 138 148 149
f 131 142 132
f 132 143 133
f 133 144 134
f 134 145 135
f 135 146 136
f 136 147 137
f 137 148 138
f 138 149 139
f 139 149 150
usemtl APPID_1761825504_2183767607264 
o vid_17 
f 153 152 151
f 154 155 156
f 151 156 155
f 151 155 153
f 153 155 154
f 154 152 153
f 152 154 156
f 156 151 152
usemtl APPID_1761824944_2183767607136 
o vid_18 
f 157 164 165
f 158 165 166
f 159 166 167
f 160 167 168
f 161 168 169
f 157 165 158
f 158 166 159
f 159 167 160
f 160 168 161
f 161 169 162
f 162 169 170
