# File generated by PlantGL - Fri Sep  4 14:43:14 2026
v    297.752484 18.905161 0.000000
v    302.071916 18.601013 0.000000
v    300.175600 22.493825 0.000000
v    302.247516 21.094839 0.848509
v    297.928084 21.398987 0.848509
v    299.824400 17.506175 0.848509
v    302.063299 21.447244 0.691513
v    302.452202 21.595517 1.078275
v    303.193785 21.873619 1.633607
v    304.003060 22.189528 1.912070
v    304.578065 22.388074 2.106273
v    305.065958 22.501258 2.100678
v    302.411449 20.732552 0.691513
v    302.767930 20.947381 1.078275
v    303.444042 21.359884 1.633607
v    304.191650 21.802384 1.912070
v    304.702436 22.132762 2.106273
v    305.092308 22.447166 2.100678
v    301.879284 21.505407 0.848509
v    297.756638 20.874804 0.848509
v    300.364078 17.619789 0.848509
v    298.120716 18.494593 1.417165
v    302.243362 19.125196 1.417165
v    299.635922 22.380211 1.417165
v    298.491141 18.057732 1.194772
v    297.911229 17.672526 1.841708
v    297.063218 17.114491 2.529291
v    295.928633 16.347819 2.968207
v    295.314462 15.967404 3.198844
v    295.088966 15.825934 3.195813
v    294.464136 15.541140 3.188184
v    297.775236 18.951436 1.194772
v    297.272745 18.469581 1.841708
v    296.543078 17.763812 2.529291
v    295.547256 16.823914 2.968207
v    295.041963 16.307580 3.198844
v    294.854688 16.118397 3.195813
v    294.440385 15.570790 3.188184
v    297.841416 19.161313 1.417165
v    301.805616 18.549955 1.417165
v    300.352968 22.288732 1.417165
v    302.158584 20.838687 2.253766
v    298.194384 21.450045 2.253766
v    299.647032 17.711268 2.253766
v    301.872733 21.513125 1.944944
v    302.122273 21.585295 2.186331
v    302.828095 21.776930 2.864874
v    304.161507 22.156635 3.798104
v    305.102329 22.436827 4.112758
v    306.415650 22.771839 4.545458
v    306.998937 22.836807 4.727871
v    307.388936 22.884967 4.723504
v    302.403065 20.148176 1.944944
v    302.635871 20.263414 2.186331
v    303.285924 20.598586 2.864874
v    304.525913 21.218740 3.798104
v    305.409110 21.647244 4.112758
v    306.604104 22.286802 4.545458
v    307.078246 22.632683 4.727871
v    307.398456 22.860465 4.723504
v    302.163962 20.511898 2.253766
v    298.474702 21.618097 2.253766
v    299.361335 17.870005 2.253766
v    297.836038 19.488102 4.112548
v    301.525298 18.381903 4.112548
v    300.638665 22.129995 4.112548
v    298.103588 18.488302 3.692155
v    297.332469 18.377092 4.416131
v    296.767603 18.305071 4.944435
v    294.898532 18.043356 6.214822
v    293.030186 17.758778 6.820596
v    291.196591 17.553550 7.409620
v    289.794570 17.577915 7.467446
v    297.627281 20.501811 3.692155
v    296.888063 20.255742 4.416131
v    296.350797 20.067046 4.944435
v    294.562564 19.463606 6.214822
v    292.764734 18.880928 6.820596
v    291.033526 18.242881 7.409620
v    289.791016 17.592938 7.467446
v    298.595695 18.396392 4.112548
v    302.090917 19.585640 4.112548
v    299.313387 22.017967 4.112548
v    301.404305 21.603608 5.999272
v    297.909083 20.414360 5.999272
v    300.686613 17.982033 5.999272
v    300.288693 22.526982 5.438275
v    301.585753 23.765977 7.105100
v    303.417453 25.501255 8.804670
v    305.931301 27.940945 9.927521
v    307.251878 29.124508 10.493655
v    307.787500 29.610132 10.485424
v    309.359776 30.694671 10.464202
v    302.466801 20.619579 5.438275
v    303.523830 22.068772 7.105100
v    305.002263 24.113412 8.804670
v    307.088948 26.927175 9.927521
v    308.087927 28.392366 10.493655
v    308.498636 28.987379 10.485424
v    309.366247 30.689004 10.464202
v    301.550141 20.989721 5.999272
v    298.367807 20.847601 5.999272
v    300.082053 18.162679 5.999272
v    298.449859 19.010279 11.505015
v    301.632193 19.152399 11.505015
v    299.917947 21.837321 11.505015
v    299.458466 17.528552 10.771137
v    298.394624 16.975821 11.885180
v    297.360628 16.459972 12.957238
v    294.430805 14.953015 15.174946
v    291.700677 13.506967 16.165215
v    288.796813 12.113524 17.193472
v    286.428824 11.335191 17.363552
v    297.530147 20.548763 10.771137
v    296.581062 19.816297 11.885180
v    295.677992 19.095385 12.957238
v    293.078054 17.071748 15.174946
v    290.617404 15.203632 16.165215
v    288.131365 13.155776 17.193472
v    286.428824 11.335191 17.363552
v    298.822081 19.151306 11.505015
v    301.323950 19.404239 11.505015
v    299.853969 21.444455 11.505015
v    301.177919 20.848694 19.658889
v    298.676050 20.595761 19.658889
v    300.146031 18.555545 19.658889
v    299.642499 22.864051 18.717768
v    302.237372 24.402961 21.521211
v    303.363644 25.086850 22.409257
v    305.869006 26.558786 24.365188
v    312.204812 30.384453 26.737528
v    313.469829 31.081345 27.198607
v    315.931581 32.455996 27.166507
v    318.938622 33.645322 27.130579
v    302.603605 18.754272 18.717768
v    304.884782 20.728567 21.521211
v    305.890021 21.580438 22.409257
v    308.079334 23.491026 24.365188
v    313.713862 28.290012 26.737528
v    314.775357 29.269377 27.198607
v    316.858582 31.169393 27.166507
v    318.938622 33.645322 27.130579
v    300.916111 20.596633 19.658889
v    299.025245 20.495059 19.658889
v    300.058643 18.908308 19.658889
v    299.083889 19.403367 30.873903
v    300.974755 19.504941 30.873903
v    299.941357 21.091692 30.873903
v    300.872293 16.813108 29.690791
v    297.522753 15.034194 33.215082
v    296.486270 14.469818 34.010479
v    292.831020 12.547769 36.790328
v    285.129945 8.379241 39.597204
v    283.006833 7.336740 40.352302
v    280.350554 6.013458 40.318516
v    276.504127 4.697920 40.273349
v    297.437962 22.086417 29.690791
v    294.456578 19.742211 33.215082
v    293.521297 19.022443 34.010479
v    290.285388 16.456509 36.790328
v    283.358915 11.098603 39.597204
v    281.546962 9.578327 40.352302
v    279.262620 7.683947 40.318516
v    276.504127 4.697920 40.273349
v    299.332324 19.629681 30.873903
v    300.654544 19.606935 30.873903
v    300.013132 20.763384 30.873903
v    300.667676 20.370319 41.825068
v    299.345456 20.393065 41.825068
v    299.986868 19.236616 41.825068
v    298.839911 23.449731 40.367047
v    301.222050 24.505947 42.788484
v    303.129183 25.314355 44.710247
v    309.123837 27.942885 49.116244
v    314.980487 30.595376 51.177053
v    320.909730 33.002001 53.219926
v    325.713650 34.261781 53.460926
v    302.312201 17.189275 40.367047
v    304.469528 18.650822 42.788484
v    306.165124 19.840626 44.710247
v    311.569066 23.534197 49.116244
v    316.920262 27.098008 51.177053
v    322.101323 30.853587 53.219926
v    325.713650 34.261781 53.460926
v    300.446968 20.118896 41.825068
v    299.673549 20.327637 41.825068
v    299.879483 19.553467 41.825068
v    299.553032 19.881104 45.080000
v    300.326451 19.672363 45.080000
v    300.120517 20.446533 45.080000
v    299.359617 17.128225 41.877820
v    298.989817 17.231543 44.373991
v    298.179235 17.634706 49.502730
v    297.300762 17.746409 52.271495
v    295.308568 18.752050 57.897646
v    298.017398 22.174045 41.877820
v    297.747807 21.900645 44.373991
v    297.244671 21.148025 49.502730
v    296.537802 20.614611 52.271495
v    295.308568 18.752050 57.897646
v    305.065958 22.501258 2.100678
v    305.186070 22.526305 2.099315
v    305.092308 22.447166 2.100678
v    305.186070 22.526305 2.099315
v    294.464136 15.541140 3.188184
v    294.393645 15.509011 3.187323
v    294.440385 15.570790 3.188184
v    294.393645 15.509011 3.187323
v    307.388936 22.884967 4.723504
v    307.442134 22.891536 4.722909
v    307.398456 22.860465 4.723504
v    307.442134 22.891536 4.722909
v    289.794570 17.577915 7.467446
v    289.763093 17.578400 7.467096
v    289.791016 17.592938 7.467446
v    289.763093 17.578400 7.467096
v    309.359776 30.694671 10.464202
v    309.374215 30.704631 10.464007
v    309.366247 30.689004 10.464202
v    309.374215 30.704631 10.464007
mtllib usm_36_2.5D_2018-07-28_7.mtl
usemtl APPID_175080272_2560076478336 
o vid_3 
f 3 2 1
f 4 5 6
f 1 6 5
f 1 5 3
f 3 5 4
f 4 2 3
f 2 4 6
f 6 1 2
usemtl APPID_175076800_2560076476928 
o vid_4 
f 7 13 14
f 8 14 15
f 9 15 16
f 10 16 17
f 7 14 8
f 8 15 9
f 9 16 10
f 10 17 11
f 11 17 18
f 11 18 12
usemtl APPID_175080272_2560076478336 
o vid_5 
f 21 20 19
f 22 23 24
f 19 24 23
f 19 23 21
f 21 23 22
f 22 20 21
f 20 22 24
f 24 19 20
usemtl APPID_175076800_2560076476928 
o vid_6 
f 25 32 33
f 26 33 34
f 27 34 35
f 28 35 36
f 29 36 37
f 25 33 26
f 26 34 27
f 27 35 28
f 28 36 29
f 29 37 30
f 30 37 38
f 30 38 31
usemtl APPID_175080272_2560076478336 
o vid_7 
f 41 40 39
f 42 43 44
f 39 44 43
f 39 43 41
f 41 43 42
f 42 40 41
f 40 42 44
f 44 39 40
usemtl APPID_175076800_2560076476928 
o vid_8 
f 45 53 54
f 46 54 55
f 47 55 56
f 48 56 57
f 49 57 58
f 50 58 59
f 45 54 46
f 46 55 47
f 47 56 48
f 48 57 49
f 49 58 50
f 50 59 51
f 51 59 60
f 51 60 52
usemtl APPID_175080272_2560076478336 
o vid_9 
f 63 62 61
f 64 65 66
f 61 66 65
f 61 65 63
f 63 65 64
f 64 62 63
f 62 64 66
f 66 61 62
usemtl APPID_175076800_2560076476928 
o vid_10 
f 67 74 75
f 68 75 76
f 69 76 77
f 70 77 78
f 71 78 79
f 67 75 68
f 68 76 69
f 69 77 70
f 70 78 71
f 71 79 72
f 72 79 80
f 72 80 73
usemtl APPID_175080272_2560076478336 
o vid_11 
f 83 82 81
f 84 85 86
f 81 86 85
f 81 85 83
f 83 85 84
f 84 82 83
f 82 84 86
f 86 81 82
usemtl APPID_175076800_2560076476928 
o vid_12 
f 87 94 95
f 88 95 96
f 89 96 97
f 90 97 98
f 91 98 99
f 87 95 88
f 88 96 89
f 89 97 90
f 90 98 91
f 91 99 92
f 92 99 100
f 92 100 93
usemtl APPID_175080272_2560076478336 
o vid_13 
f 103 102 101
f 104 105 106
f 101 106 105
f 101 105 103
f 103 105 104
f 104 102 103
f 102 104 106
f 106 101 102
usemtl APPID_175076800_2560076476928 
o vid_14 
f 107 114 115
f 108 115 116
f 109 116 117
f 110 117 118
f 111 118 119
f 107 115 108
f 108 116 109
f 109 117 110
f 110 118 111
f 111 119 112
f 112 119 120
usemtl APPID_175080272_2560076478336 
o vid_15 
f 123 122 121
f 124 125 126
f 121 126 125
f 121 125 123
f 123 125 124
f 124 122 123
f 122 124 126
f 126 121 122
usemtl APPID_175076800_2560076476928 
o vid_16 
f 127 135 136
f 128 136 137
f 129 137 138
f 130 138 139
f 131 139 140
f 132 140 141
f 127 136 128
f 128 137 129
f 129 138 130
f 130 139 131
f 131 140 132
f 132 141 133
f 133 141 142
usemtl APPID_175080272_2560076478336 
o vid_17 
f 145 144 143
f 146 147 148
f 143 148 147
f 143 147 145
f 145 147 146
f 146 144 145
f 144 146 148
f 148 143 144
usemtl APPID_175076800_2560076476928 
o vid_18 
f 149 157 158
f 150 158 159
f 151 159 160
f 152 160 161
f 153 161 162
f 154 162 163
f 149 158 150
f 150 159 151
f 151 160 152
f 152 161 153
f 153 162 154
f 154 163 155
f 155 163 164
usemtl APPID_175080272_2560076478336 
o vid_19 
f 167 166 165
f 168 169 170
f 165 170 169
f 165 169 167
f 167 169 168
f 168 166 167
f 166 168 170
f 170 165 166
usemtl APPID_175076800_2560076476928 
o vid_20 
f 171 178 179
f 172 179 180
f 173 180 181
f 174 181 182
f 175 182 183
f 171 179 172
f 172 180 173
f 173 181 174
f 174 182 175
f 175 183 176
f 176 183 184
usemtl APPID_175080272_2560076478336 
o vid_21 
f 187 186 185
f 188 189 190
f 185 190 189
f 185 189 187
f 187 189 188
f 188 186 187
f 186 188 190
f 190 185 186
usemtl APPID_175076800_2560076476928 
o vid_22 
f 191 196 197
f 192 197 198
f 193 198 199
f 191 197 192
f 192 198 193
f 193 199 194
f 194 199 200
usemtl APPID_175081616_2560076480128 
o vid_10000004 
f 201 203 204
f 201 204 202
f 201 203 204
usemtl APPID_175081616_2560076480128 
o vid_10000006 
f 205 207 208
f 205 208 206
f 205 207 208
usemtl APPID_175081616_2560076480128 
o vid_10000008 
f 209 211 212
f 209 212 210
f 209 211 212
usemtl APPID_175081616_2560076480128 
o vid_10000010 
f 213 215 216
f 213 216 214
f 213 215 216
usemtl APPID_175081616_2560076480128 
o vid_10000012 
f 217 219 220
f 217 220 218
f 217 219 220
