# File generated by PlantGL - Fri Sep  4 14:43:40 2026
v    18.201987 19.124129 0.000000
v    21.657533 18.880811 0.000000
v    20.140480 21.995060 0.000000
v    21.798013 20.875871 0.231332
v    18.342467 21.119189 0.231332
v    19.859520 18.004940 0.231332
v    21.024856 20.874446 -2.173816
v    21.527263 20.949726 -1.712734
v    21.320298 20.267955 -2.173816
v    21.689270 20.617153 -1.712734
v    21.503548 21.204422 0.231332
v    18.205166 20.699900 0.231332
v    20.291286 18.095678 0.231332
v    18.496452 18.795578 0.322458
v    21.794834 19.300100 0.322458
v    19.708714 21.904322 0.322458
v    19.310588 18.892012 -2.082691
v    18.586769 18.610590 -1.377834
v    18.768254 19.569039 -2.082691
v    18.335636 18.924093 -1.377834
v    18.272844 19.328938 0.322458
v    21.444735 18.839770 0.322458
v    20.282421 21.831292 0.322458
v    21.727156 20.671062 0.466406
v    18.555265 21.160230 0.466406
v    19.717579 18.168708 0.466406
v    20.860370 20.981000 -1.938742
v    22.118471 21.064176 -0.794378
v    21.297001 19.857216 -1.938742
v    22.281233 20.645266 -0.794378
v    21.731622 20.409625 0.466406
v    18.779443 21.294816 0.466406
v    19.488935 18.295559 0.466406
v    18.268378 19.590375 0.678771
v    21.220557 18.705184 0.678771
v    20.511065 21.704441 0.678771
v    19.141799 18.920242 -1.726378
v    17.113987 19.067073 0.118913
v    18.748982 20.580810 -1.726378
v    17.001877 19.541001 0.118913
v    18.876148 18.716648 0.678771
v    21.673341 19.668392 0.678771
v    19.450510 21.614960 0.678771
v    21.123852 21.283352 0.919581
v    18.326659 20.331608 0.919581
v    20.549490 18.385040 0.919581
v    19.495157 21.784877 -1.485567
v    23.117466 23.990774 2.363737
v    21.835882 19.735067 -1.485567
v    23.544568 23.616755 2.363737
v    21.375838 20.878433 0.919581
v    18.551335 20.752294 0.919581
v    20.072827 18.369272 0.919581
v    18.624162 19.121567 1.432331
v    21.448665 19.247706 1.432331
v    19.927173 21.630728 1.432331
v    20.056184 18.171457 -0.972818
v    15.897299 17.048790 2.936959
v    18.364884 20.820440 -0.972818
v    15.596350 17.520148 2.936959
v    18.735263 19.088754 1.432331
v    21.421531 19.360328 1.432331
v    19.843206 21.550918 1.432331
v    21.264737 20.911246 2.225064
v    18.578469 20.639672 2.225064
v    20.156794 18.449082 2.225064
v    19.424025 22.275915 -0.180085
v    21.880280 23.538841 2.418320
v    26.446809 25.051054 6.784312
v    21.976555 18.733206 -0.180085
v    23.952061 20.663374 2.418320
v    26.832038 24.516386 6.784312
v    21.244614 20.810576 2.225064
v    18.675713 20.672580 2.225064
v    20.079672 18.516844 2.225064
v    18.755386 19.189424 3.119461
v    21.324287 19.327420 3.119461
v    19.920328 21.483156 3.119461
v    20.613583 17.611009 0.714313
v    17.162599 16.037377 4.282607
v    13.515155 15.017319 7.720103
v    12.367581 14.644219 8.454055
v    18.063118 21.527170 0.714313
v    15.228467 19.007178 4.282607
v    12.820679 16.083665 7.720103
v    12.015421 15.184950 8.454055
v    18.765415 19.315252 3.119461
v    21.210302 19.273192 3.119461
v    20.024283 21.411556 3.119461
v    21.234585 20.684748 4.391396
v    18.789698 20.726808 4.391396
v    19.975717 18.588444 4.391396
v    19.336267 22.673032 1.986247
v    19.947980 22.925662 2.611770
v    25.056111 24.830673 7.740809
v    26.406718 25.107027 8.992038
v    30.373127 26.092285 11.477840
v    21.916132 18.021597 1.986247
v    22.454339 18.406757 2.611770
v    26.775101 21.731373 7.740809
v    27.724673 22.730786 8.992038
v    30.660663 25.573865 11.477840
v    21.293262 20.344016 4.391396
v    19.055443 20.947990 4.391396
v    19.651295 18.707994 4.391396
v    18.706738 19.655984 6.209762
v    20.944557 19.052010 6.209762
v    20.348705 21.292006 6.209762
v    20.104655 17.107067 3.804613
v    18.040035 16.805073 5.776744
v    12.722282 16.214795 10.810404
v    6.806149 16.216328 14.411355
v    18.653455 22.562583 3.804613
v    16.711661 21.798846 5.776744
v    11.803454 19.668956 10.810404
v    6.669997 16.728164 14.411355
v    18.831935 19.515124 6.209762
v    21.003948 19.230864 6.209762
v    20.164118 21.254012 6.209762
v    21.168065 20.484876 8.825833
v    18.996052 20.769136 8.825833
v    19.835882 18.745988 8.825833
v    19.396157 22.938808 6.420685
v    22.436194 23.808770 9.409297
v    26.579655 24.840449 13.426476
v    27.907697 25.201224 14.286181
v    33.764786 25.970179 17.879206
v    21.654901 17.497497 6.420685
v    24.417337 19.036202 9.409297
v    28.073342 21.242161 13.426476
v    29.266467 21.927950 14.286181
v    33.946276 25.532970 17.879206
v    20.919824 20.756852 8.825833
v    18.884635 20.418165 8.825833
v    20.195542 18.824983 8.825833
v    19.080176 19.243148 12.733222
v    21.115365 19.581835 12.733222
v    19.804458 21.175017 12.733222
v    21.667557 17.193559 10.328074
v    16.951203 14.145455 15.635628
v    15.402087 13.218832 17.333864
v    11.804989 10.962146 19.986606
v    7.629849 9.069636 22.774753
v    6.138585 8.334957 23.184621
v    17.567227 22.176803 10.328074
v    13.667909 18.135733 15.635628
v    12.460305 16.794061 17.333864
v    9.553136 13.698886 19.986606
v    6.892008 9.966355 22.774753
v    5.883896 8.644488 23.184621
v    19.227775 19.192038 12.733222
v    21.085829 19.735214 12.733222
v    19.686397 21.072748 12.733222
v    20.772225 20.807962 18.369047
v    18.914171 20.264786 18.369047
v    20.313603 18.927252 18.369047
v    17.644717 22.834786 15.963899
v    18.409015 23.502061 16.925257
v    23.328002 27.588953 22.969689
v    25.289475 29.273691 24.590472
v    30.045120 33.117850 28.410578
v    36.109797 37.105232 30.201865
v    22.938366 17.775281 15.963899
v    23.570406 18.568964 16.925257
v    27.430741 23.667683 22.969689
v    29.025081 25.703314 24.590472
v    32.650317 30.627885 28.410578
v    36.359448 36.866623 30.201865
v    20.731259 20.745280 18.369047
v    18.988939 20.260648 18.369047
v    20.279802 18.994071 18.369047
v    19.268741 19.254720 24.739659
v    21.011061 19.739352 24.739659
v    19.720198 21.005929 24.739659
v    22.481558 17.077001 22.334511
v    20.380775 15.290910 24.947249
v    16.767038 12.367728 29.340302
v    13.221096 9.401991 32.237952
v    10.021729 6.884483 34.781190
v    8.001694 5.241441 35.436516
v    2.040447 1.469527 37.175764
v    17.030402 22.425601 22.334511
v    15.284528 20.291277 24.947249
v    12.430501 16.622679 29.340302
v    9.532638 13.021054 32.237952
v    7.076344 9.774455 34.781190
v    5.471959 7.723582 35.436516
v    1.813934 1.691778 37.175764
v    19.349705 19.279474 24.739659
v    20.949141 19.797091 24.739659
v    19.701154 20.923435 24.739659
v    20.650295 20.720526 33.660433
v    19.050859 20.202909 33.660433
v    20.298846 19.076565 33.660433
v    17.608387 22.528794 31.255285
v    23.172062 27.426665 38.261075
v    28.274391 31.812846 42.465305
v    29.982125 32.916291 43.701964
v    33.876734 35.614242 44.870072
v    22.759968 17.879343 31.255285
v    27.063607 23.914433 38.261075
v    30.905383 29.438300 42.465305
v    31.828526 31.249861 43.701964
v    34.114336 35.399800 44.870072
v    20.880529 20.171415 33.660433
v    19.411286 20.676853 33.660433
v    19.708185 19.151732 33.660433
v    19.119471 19.828585 47.111858
v    20.588714 19.323147 47.111858
v    20.291815 20.848268 47.111858
v    20.326440 17.269361 44.706709
v    18.942009 17.161819 46.019139
v    13.495215 16.928382 51.148178
v    12.877368 16.998060 51.712500
v    7.580706 17.372928 54.942145
v    19.278257 22.653685 44.706709
v    17.954587 22.234032 46.019139
v    12.817989 20.407168 51.148178
v    12.271400 20.110807 51.712500
v    7.502165 17.776380 54.942145
v    19.364741 19.475932 47.111858
v    20.771485 19.711884 47.111858
v    19.863773 20.812184 47.111858
v    20.635259 20.524068 61.713096
v    19.228515 20.288116 61.713096
v    20.136227 19.187816 61.713096
v    18.850573 21.594177 59.307947
v    19.939976 22.247707 60.503132
v    24.724196 24.187564 65.188728
v    21.346643 18.568520 59.307947
v    22.195323 19.513847 60.503132
v    25.009158 23.842142 65.188728
v    20.599732 20.450357 61.713096
v    19.310113 20.294205 61.713096
v    20.090155 19.255438 61.713096
v    19.400268 19.549643 89.631000
v    20.689887 19.705795 89.631000
v    19.909845 20.744562 89.631000
v    21.329799 18.138698 87.225851
v    18.286236 16.497036 90.479209
v    14.387871 15.120109 94.231642
v    13.232230 14.656961 94.988885
v    18.583355 21.796086 87.225851
v    16.158094 19.331043 90.479209
v    13.748701 15.971281 94.231642
v    12.981666 14.990633 94.988885
v    21.527263 20.949726 -1.712734
v    22.137255 21.041127 -1.152915
v    21.689270 20.617153 -1.712734
v    22.137255 21.041127 -1.152915
v    18.586769 18.610590 -1.377834
v    17.962548 18.367893 -0.769967
v    18.335636 18.924093 -1.377834
v    17.962548 18.367893 -0.769967
v    22.118471 21.064176 -0.794378
v    22.866166 21.113608 -0.114278
v    22.281233 20.645266 -0.794378
v    22.866166 21.113608 -0.114278
v    17.113987 19.067073 0.118913
v    16.304106 19.125715 0.855898
v    17.001877 19.541001 0.118913
v    16.304106 19.125715 0.855898
v    23.117466 23.990774 2.363737
v    23.925929 24.483108 3.222862
v    23.544568 23.616755 2.363737
v    23.925929 24.483108 3.222862
v    15.897299 17.048790 2.936959
v    14.997087 16.805783 3.783251
v    15.596350 17.520148 2.936959
v    14.997087 16.805783 3.783251
v    26.446809 25.051054 6.784312
v    27.626728 25.495075 7.564784
v    26.832038 24.516386 6.784312
v    27.626728 25.495075 7.564784
v    12.367581 14.644219 8.454055
v    11.187007 14.260391 9.209113
v    12.015421 15.184950 8.454055
v    11.187007 14.260391 9.209113
v    30.373127 26.092285 11.477840
v    31.479944 26.367220 12.171498
v    30.660663 25.573865 11.477840
v    31.479944 26.367220 12.171498
v    6.806149 16.216328 14.411355
v    5.787255 16.219322 15.031079
v    6.669997 16.728164 14.411355
v    5.787255 16.219322 15.031079
v    33.764786 25.970179 17.879206
v    34.667715 26.088721 18.433107
v    33.946276 25.532970 17.879206
v    34.667715 26.088721 18.433107
v    6.138585 8.334957 23.184621
v    5.352478 7.947678 23.400679
v    5.883896 8.644488 23.184621
v    5.352478 7.947678 23.400679
v    36.109797 37.105232 30.201865
v    36.742444 37.517250 30.388007
v    36.359448 36.866623 30.201865
v    36.742444 37.517250 30.388007
v    2.040447 1.469527 37.175764
v    1.454182 1.098574 37.346813
v    1.813934 1.691778 37.175764
v    1.454182 1.098574 37.346813
v    33.876734 35.614242 44.870072
v    34.451924 36.012699 45.042589
v    34.114336 35.399800 44.870072
v    34.451924 36.012699 45.042589
v    7.580706 17.372928 54.942145
v    6.791958 17.428751 55.423086
v    7.502165 17.776380 54.942145
v    6.791958 17.428751 55.423086
v    24.724196 24.187564 65.188728
v    25.416102 24.468111 65.866371
v    25.009158 23.842142 65.188728
v    25.416102 24.468111 65.866371
v    13.232230 14.656961 94.988885
v    12.487098 14.358333 95.477139
v    12.981666 14.990633 94.988885
v    12.487098 14.358333 95.477139
mtllib usm_42_2.5D_2018-09-29_0.mtl
usemtl APPID_4153026944_1941179481328 
o vid_3 
f 3 2 1
f 4 5 6
f 1 6 5
f 1 5 3
f 3 5 4
f 4 2 3
f 2 4 6
f 6 1 2
usemtl APPID_4153028736_1941179483504 
o vid_4 
f 7 9 10
f 7 10 8
f 7 9 10
f 7 10 8
usemtl APPID_4153026944_1941179481328 
o vid_5 
f 13 12 11
f 14 15 16
f 11 16 15
f 11 15 13
f 13 15 14
f 14 12 13
f 12 14 16
f 16 11 12
usemtl APPID_4153028736_1941179483504 
o vid_6 
f 17 19 20
f 17 20 18
f 17 19 20
f 17 20 18
usemtl APPID_4153026944_1941179481328 
o vid_7 
f 23 22 21
f 24 25 26
f 21 26 25
f 21 25 23
f 23 25 24
f 24 22 23
f 22 24 26
f 26 21 22
usemtl APPID_4153028736_1941179483504 
o vid_8 
f 27 29 30
f 27 30 28
f 27 29 30
f 27 30 28
usemtl APPID_4153026944_1941179481328 
o vid_9 
f 33 32 31
f 34 35 36
f 31 36 35
f 31 35 33
f 33 35 34
f 34 32 33
f 32 34 36
f 36 31 32
usemtl APPID_4153028736_1941179483504 
o vid_10 
f 37 39 40
f 37 40 38
f 37 39 40
f 37 40 38
usemtl APPID_4153026944_1941179481328 
o vid_11 
f 43 42 41
f 44 45 46
f 41 46 45
f 41 45 43
f 43 45 44
f 44 42 43
f 42 44 46
f 46 41 42
usemtl APPID_4153028736_1941179483504 
o vid_12 
f 47 49 50
f 47 50 48
f 47 49 50
f 47 50 48
usemtl APPID_4153026944_1941179481328 
o vid_13 
f 53 52 51
f 54 55 56
f 51 56 55
f 51 55 53
f 53 55 54
f 54 52 53
f 52 54 56
f 56 51 52
usemtl APPID_4153028736_1941179483504 
o vid_14 
f 57 59 60
f 57 60 58
f 57 59 60
f 57 60 58
usemtl APPID_4153026944_1941179481328 
o vid_15 
f 63 62 61
f 64 65 66
f 61 66 65
f 61 65 63
f 63 65 64
f 64 62 63
f 62 64 66
f 66 61 62
usemtl APPID_4153028736_1941179483504 
o vid_16 
f 67 70 71
f 67 71 68
f 68 71 72
f 68 72 69
usemtl APPID_4153026944_1941179481328 
o vid_17 
f 75 74 73
f 76 77 78
f 73 78 77
f 73 77 75
f 75 77 76
f 76 74 75
f 74 76 78
f 78 73 74
usemtl APPID_4153028736_1941179483504 
o vid_18 
f 79 83 84
f 80 84 85
f 79 84 80
f 80 85 81
f 81 85 86
f 81 86 82
usemtl APPID_4153026944_1941179481328 
o vid_19 
f 89 88 87
f 90 91 92
f 87 92 91
f 87 91 89
f 89 91 90
f 90 88 89
f 88 90 92
f 92 87 88
usemtl APPID_4153028736_1941179483504 
o vid_20 
f 93 98 99
f 94 99 100
f 95 100 101
f 93 99 94
f 94 100 95
f 95 101 96
f 96 101 102
f 96 102 97
usemtl APPID_4153026944_1941179481328 
o vid_21 
f 105 104 103
f 106 107 108
f 103 108 107
f 103 107 105
f 105 107 106
f 106 104 105
f 104 106 108
f 108 103 104
usemtl APPID_4153028736_1941179483504 
o vid_22 
f 109 113 114
f 110 114 115
f 109 114 110
f 110 115 111
f 111 115 116
f 111 116 112
usemtl APPID_4153026944_1941179481328 
o vid_23 
f 119 118 117
f 120 121 122
f 117 122 121
f 117 121 119
f 119 121 120
f 120 118 119
f 118 120 122
f 122 117 118
usemtl APPID_4153028736_1941179483504 
o vid_24 
f 123 128 129
f 124 129 130
f 125 130 131
f 123 129 124
f 124 130 125
f 125 131 126
f 126 131 132
f 126 132 127
usemtl APPID_4153026944_1941179481328 
o vid_25 
f 135 134 133
f 136 137 138
f 133 138 137
f 133 137 135
f 135 137 136
f 136 134 135
f 134 136 138
f 138 133 134
usemtl APPID_4153028736_1941179483504 
o vid_26 
f 139 145 146
f 140 146 147
f 141 147 148
f 142 148 149
f 139 146 140
f 140 147 141
f 141 148 142
f 142 149 143
f 143 149 150
f 143 150 144
usemtl APPID_4153026944_1941179481328 
o vid_27 
f 153 152 151
f 154 155 156
f 151 156 155
f 151 155 153
f 153 155 154
f 154 152 153
f 152 154 156
f 156 151 152
usemtl APPID_4153028736_1941179483504 
o vid_28 
f 157 163 164
f 158 164 165
f 159 165 166
f 160 166 167
f 157 164 158
f 158 165 159
f 159 166 160
f 160 167 161
f 161 167 168
f 161 168 162
usemtl APPID_4153026944_1941179481328 
o vid_29 
f 171 170 169
f 172 173 174
f 169 174 173
f 169 173 171
f 171 173 172
f 172 170 171
f 170 172 174
f 174 169 170
usemtl APPID_4153028736_1941179483504 
o vid_30 
f 175 182 183
f 176 183 184
f 177 184 185
f 178 185 186
f 179 186 187
f 175 183 176
f 176 184 177
f 177 185 178
f 178 186 179
f 179 187 180
f 180 187 188
f 180 188 181
usemtl APPID_4153026944_1941179481328 
o vid_31 
f 191 190 189
f 192 193 194
f 189 194 193
f 189 193 191
f 191 193 192
f 192 190 191
f 190 192 194
f 194 189 190
usemtl APPID_4153028736_1941179483504 
o vid_32 
f 195 200 201
f 196 201 202
f 197 202 203
f 195 201 196
f 196 202 197
f 197 203 198
f 198 203 204
f 198 204 199
usemtl APPID_4153026944_1941179481328 
o vid_33 
f 207 206 205
f 208 209 210
f 205 210 209
f 205 209 207
f 207 209 208
f 208 206 207
f 206 208 210
f 210 205 206
usemtl APPID_4153028736_1941179483504 
o vid_34 
f 211 216 217
f 212 217 218
f 213 218 219
f 211 217 212
f 212 218 213
f 213 219 214
f 214 219 220
f 214 220 215
usemtl APPID_4153026944_1941179481328 
o vid_35 
f 223 222 221
f 224 225 226
f 221 226 225
f 221 225 223
f 223 225 224
f 224 222 223
f 222 224 226
f 226 221 222
usemtl APPID_4153028736_1941179483504 
o vid_36 
f 227 230 231
f 227 231 228
f 228 231 232
f 228 232 229
usemtl APPID_4153026944_1941179481328 
o vid_37 
f 235 234 233
f 236 237 238
f 233 238 237
f 233 237 235
f 235 237 236
f 236 234 235
f 234 236 238
f 238 233 234
usemtl APPID_4153028736_1941179483504 
o vid_38 
f 239 243 244
f 240 244 245
f 239 244 240
f 240 245 241
f 241 245 246
f 241 246 242
usemtl APPID_4153035904_1941179481584 
o vid_10000004 
f 247 249 250
f 247 250 248
f 247 249 250
usemtl APPID_4153035904_1941179481584 
o vid_10000006 
f 251 253 254
f 251 254 252
f 251 253 254
usemtl APPID_4153035904_1941179481584 
o vid_10000008 
f 255 257 258
f 255 258 256
f 255 257 258
usemtl APPID_4153035904_1941179481584 
o vid_10000010 
f 259 261 262
f 259 262 260
f 259 261 262
usemtl APPID_4153035904_1941179481584 
o vid_10000012 
f 263 265 266
f 263 266 264
f 263 265 266
usemtl APPID_4153035904_1941179481584 
o vid_10000014 
f 267 269 270
f 267 270 268
f 267 269 270
usemtl APPID_4153035904_1941179481584 
o vid_10000016 
f 271 273 274
f 271 274 272
f 271 273 274
usemtl APPID_4153035904_1941179481584 
o vid_10000018 
f 275 277 278
f 275 278 276
f 275 277 278
usemtl APPID_4153035904_1941179481584 
o vid_10000020 
f 279 281 282
f 279 282 280
f 279 281 282
usemtl APPID_4153035904_1941179481584 
o vid_10000022 
f 283 285 286
f 283 286 284
f 283 285 286
usemtl APPID_4153035904_1941179481584 
o vid_10000024 
f 287 289 290
f 287 290 288
f 287 289 290
usemtl APPID_4153035904_1941179481584 
o vid_10000026 
f 291 293 294
f 291 294 292
f 291 293 294
usemtl APPID_4153035904_1941179481584 
o vid_10000028 
f 295 297 298
f 295 298 296
f 295 297 298
usemtl APPID_4153035904_1941179481584 
o vid_10000030 
f 299 301 302
f 299 302 300
f 299 301 302
usemtl APPID_4153035904_1941179481584 
o vid_10000032 
f 303 305 306
f 303 306 304
f 303 305 306
usemtl APPID_4153035904_1941179481584 
o vid_10000034 
f 307 309 310
f 307 310 308
f 307 309 310
usemtl APPID_4153035904_1941179481584 
o vid_10000036 
f 311 313 314
f 311 314 312
f 311 313 314
usemtl APPID_4153035904_1941179481584 
o vid_10000038 
f 315 317 318
f 315 318 316
f 315 317 318
