# File generated by PlantGL - Fri Sep  4 14:43:24 2026
v    18.201987 59.124129 0.000000
v    21.657533 58.880811 0.000000
v    20.140480 61.995060 0.000000
v    21.798013 60.875871 0.331061
v    18.342467 61.119189 0.331061
v    19.859520 58.004940 0.331061
v    21.408764 61.434958 -0.032266
v    22.452892 61.831573 1.026045
v    22.851492 61.988907 1.295157
v    23.678419 62.295394 1.847958
v    24.356611 62.556396 2.031320
v    25.389927 62.923371 2.307292
v    25.693979 62.992178 2.384152
v    26.538343 63.185041 2.205118
v    21.998302 60.224736 -0.032266
v    22.954230 60.802413 1.026045
v    23.323823 61.019292 1.295157
v    24.074894 61.481499 1.847958
v    24.698465 61.854628 2.031320
v    25.624388 62.442062 2.307292
v    25.865993 62.639063 2.384152
v    26.538343 63.185041 2.205118
v    21.503548 61.204422 0.331061
v    18.205166 60.699900 0.331061
v    20.291286 58.095678 0.331061
v    18.496452 58.795578 0.718770
v    21.794834 59.300100 0.718770
v    19.708714 61.904322 0.718770
v    19.245992 58.094494 0.211682
v    17.946439 57.233562 1.688743
v    16.635469 56.340477 2.684907
v    14.648843 55.015477 3.377651
v    13.954880 54.577170 3.584223
v    13.349892 54.194211 3.433195
v    11.863870 53.482526 3.092609
v    17.975865 59.680066 0.211682
v    16.852050 58.599750 1.688743
v    15.694364 57.515311 2.684907
v    13.967709 55.865774 3.377651
v    13.388505 55.284207 3.584223
v    12.882735 54.777389 3.433195
v    11.863870 53.482526 3.092609
v    18.379388 59.370334 0.718770
v    21.355612 58.911342 0.718770
v    20.264999 61.718324 0.718770
v    21.620612 60.629666 1.487000
v    18.644388 61.088658 1.487000
v    19.735001 58.281676 1.487000
v    20.924416 61.870040 0.796532
v    22.964161 62.457273 2.807748
v    25.344154 63.175862 4.369005
v    28.510117 64.102235 5.201786
v    29.228111 64.292110 5.388699
v    30.536040 64.639395 5.103257
v    32.757008 64.956555 4.639503
v    21.944482 59.244630 0.796532
v    23.845631 60.188576 2.807748
v    26.086460 61.265341 4.369005
v    29.047368 62.719477 5.201786
v    29.705211 63.064165 5.388699
v    30.904514 63.691028 5.103257
v    32.757008 64.956555 4.639503
v    21.354236 60.320352 1.487000
v    19.045449 61.012627 1.487000
v    19.600315 58.667021 1.487000
v    18.645764 59.679648 2.857581
v    20.954551 58.987373 2.857581
v    20.399685 61.332979 2.857581
v    19.341949 57.889157 1.940350
v    16.550660 57.489976 4.612091
v    13.286137 56.980128 6.687038
v    8.485809 56.263727 7.911897
v    5.717679 55.926993 7.560423
v    2.737387 55.916429 6.944363
v    18.465952 61.592289 1.940350
v    15.791652 60.698553 4.612091
v    12.644692 59.691728 6.687038
v    8.032157 58.181462 7.911897
v    5.406541 57.242274 7.560423
v    2.737387 55.916429 6.944363
v    19.296680 59.196863 2.857581
v    21.047198 59.792476 2.857581
v    19.656123 61.010662 2.857581
v    20.703320 60.803137 4.464214
v    18.952802 60.207524 4.464214
v    20.343877 58.989338 4.464214
v    18.471190 62.300791 3.275466
v    20.550143 64.282757 5.997128
v    24.177929 67.816073 9.427255
v    26.714349 70.345441 10.332386
v    29.140671 72.677721 11.181596
v    30.822762 74.297112 10.687832
v    33.494731 76.739365 9.924274
v    35.160391 77.935599 9.500373
v    36.492711 78.833404 8.582849
v    22.482388 58.788121 3.275466
v    24.172731 61.110400 5.997128
v    27.196507 65.172656 9.427255
v    29.369107 68.020627 10.332386
v    31.360869 70.733457 11.181596
v    32.744168 72.614505 10.687832
v    34.812531 75.585346 9.924274
v    35.778541 77.394276 9.500373
v    36.492711 78.833404 8.582849
v    20.646042 60.412479 4.464214
v    19.319762 60.353249 4.464214
v    20.034197 59.234272 4.464214
v    19.353958 59.587521 10.015455
v    20.680238 59.646751 10.015455
v    19.965803 60.765728 10.015455
v    21.546143 56.961935 8.512397
v    18.105622 55.178684 12.184332
v    12.668739 52.283563 16.290745
v    8.410261 49.953423 17.517352
v    4.928777 48.130711 18.508940
v    2.023387 46.606756 17.815150
v    -2.083631 44.586352 16.849704
v    -4.211655 43.834821 16.383195
v    -6.430278 43.125022 15.052874
v    17.894661 62.681035 8.512397
v    14.829177 60.310387 12.184332
v    9.914968 56.596631 16.290745
v    6.009168 53.714112 17.517352
v    2.890649 51.322911 18.508940
v    0.285573 49.328591 17.815150
v    -3.275514 46.453128 16.849704
v    -4.852762 44.838949 16.383195
v    -6.430278 43.125022 15.052874
v    19.603742 59.714495 10.015455
v    20.445383 59.799583 10.015455
v    19.950875 60.485922 10.015455
v    20.396258 60.285505 11.790000
v    19.554617 60.200417 11.790000
v    20.049125 59.514078 11.790000
v    18.602492 62.581173 8.052671
v    19.292126 62.881866 10.365567
v    20.885553 63.473341 15.519685
v    22.519999 64.270578 18.752278
v    24.428057 65.084209 22.402582
v    25.454856 65.613943 23.468304
v    29.812504 67.069932 27.559284
v    22.006061 57.857290 8.052671
v    22.509593 58.416277 10.365567
v    23.575050 59.740534 15.519685
v    24.848672 61.038566 18.752278
v    26.224456 62.590951 22.402582
v    27.051980 63.397262 23.468304
v    29.812504 67.069932 27.559284
mtllib usm_23_2.5D_2018-08-11_1.mtl
usemtl APPID_2431405184_2600884116320 
o vid_3 
f 3 2 1
f 4 5 6
f 1 6 5
f 1 5 3
f 3 5 4
f 4 2 3
f 2 4 6
f 6 1 2
usemtl APPID_2431402608_2600884120160 
o vid_4 
f 7 15 16
f 8 16 17
f 9 17 18
f 10 18 19
f 11 19 20
f 12 20 21
f 7 16 8
f 8 17 9
f 9 18 10
f 10 19 11
f 11 20 12
f 12 21 13
f 13 21 22
usemtl APPID_2431405184_2600884116320 
o vid_5 
f 25 24 23
f 26 27 28
f 23 28 27
f 23 27 25
f 25 27 26
f 26 24 25
f 24 26 28
f 28 23 24
usemtl APPID_2431402608_2600884120160 
o vid_6 
f 29 36 37
f 30 37 38
f 31 38 39
f 32 39 40
f 33 40 41
f 29 37 30
f 30 38 31
f 31 39 32
f 32 40 33
f 33 41 34
f 34 41 42
usemtl APPID_2431405184_2600884116320 
o vid_7 
f 45 44 43
f 46 47 48
f 43 48 47
f 43 47 45
f 45 47 46
f 46 44 45
f 44 46 48
f 48 43 44
usemtl APPID_2431402608_2600884120160 
o vid_8 
f 49 56 57
f 50 57 58
f 51 58 59
f 52 59 60
f 53 60 61
f 49 57 50
f 50 58 51
f 51 59 52
f 52 60 53
f 53 61 54
f 54 61 62
usemtl APPID_2431405184_2600884116320 
o vid_9 
f 65 64 63
f 66 67 68
f 63 68 67
f 63 67 65
f 65 67 66
f 66 64 65
f 64 66 68
f 68 63 64
usemtl APPID_2431402608_2600884120160 
o vid_10 
f 69 75 76
f 70 76 77
f 71 77 78
f 72 78 79
f 69 76 70
f 70 77 71
f 71 78 72
f 72 79 73
f 73 79 80
usemtl APPID_2431405184_2600884116320 
o vid_11 
f 83 82 81
f 84 85 86
f 81 86 85
f 81 85 83
f 83 85 84
f 84 82 83
f 82 84 86
f 86 81 82
usemtl APPID_2431402608_2600884120160 
o vid_12 
f 87 96 97
f 88 97 98
f 89 98 99
f 90 99 100
f 91 100 101
f 92 101 102
f 93 102 103
f 87 97 88
f 88 98 89
f 89 99 90
f 90 100 91
f 91 101 92
f 92 102 93
f 93 103 94
f 94 103 104
usemtl APPID_2431405184_2600884116320 
o vid_13 
f 107 106 105
f 108 109 110
f 105 110 109
f 105 109 107
f 107 109 108
f 108 106 107
f 106 108 110
f 110 105 106
usemtl APPID_2431402608_2600884120160 
o vid_14 
f 111 120 121
f 112 121 122
f 113 122 123
f 114 123 124
f 115 124 125
f 116 125 126
f 117 126 127
f 111 121 112
f 112 122 113
f 113 123 114
f 114 124 115
f 115 125 116
f 116 126 117
f 117 127 118
f 118 127 128
usemtl APPID_2431405184_2600884116320 
o vid_15 
f 131 130 129
f 132 133 134
f 129 134 133
f 129 133 131
f 131 133 132
f 132 130 131
f 130 132 134
f 134 129 130
usemtl APPID_2431402608_2600884120160 
o vid_16 
f 135 142 143
f 136 143 144
f 137 144 145
f 138 145 146
f 139 146 147
f 135 143 136
f 136 144 137
f 137 145 138
f 138 146 139
f 139 147 140
f 140 147 148
