# File generated by PlantGL - Fri Sep  4 14:44:35 2026
v    17.752484 338.905161 0.000000
v    22.071916 338.601013 0.000000
v    20.175600 342.493825 0.000000
v    22.247516 341.094839 0.362700
v    17.928084 341.398987 0.362700
v    19.824400 337.506175 0.362700
v    22.060383 341.451217 0.193435
v    22.204295 341.506085 0.336555
v    22.363098 341.563662 0.493272
v    22.412780 340.727807 0.193435
v    22.544694 340.807303 0.336555
v    22.687922 340.896855 0.493272
v    21.879284 341.505407 0.362700
v    17.756638 340.874804 0.362700
v    20.364078 337.619789 0.362700
v    18.120716 338.494593 0.589630
v    22.243362 339.125196 0.589630
v    19.635922 342.380211 0.589630
v    18.485533 338.066435 0.352424
v    18.320646 337.956909 0.536368
v    18.147978 337.846255 0.726635
v    17.782505 338.944065 0.352424
v    17.639631 338.807058 0.536368
v    17.493959 338.662704 0.726635
v    17.841416 339.161313 0.589630
v    21.805616 338.549955 0.589630
v    20.352968 342.288732 0.589630
v    22.158584 340.838687 1.053978
v    18.194384 341.450045 1.053978
v    19.647032 337.711268 1.053978
v    21.856796 341.550723 0.727906
v    22.119419 341.626677 0.981951
v    22.369270 341.694513 1.222145
v    22.416692 340.109680 0.727906
v    22.661705 340.230961 0.981951
v    22.891814 340.349607 1.222145
v    22.163962 340.511898 1.053978
v    18.474702 341.618097 1.053978
v    19.361335 337.870005 1.053978
v    17.836038 339.488102 1.829186
v    21.525298 338.381903 1.829186
v    20.638665 342.129995 1.829186
v    18.111534 338.460727 1.389518
v    17.513954 338.374545 1.950565
v    17.324724 338.350418 2.127546
v    17.622031 340.530023 1.389518
v    17.049172 340.339331 1.950565
v    16.869189 340.276118 2.127546
v    18.595695 338.396392 1.829186
v    22.090917 339.585640 1.829186
v    19.313387 342.017967 1.829186
v    21.404305 341.603608 2.769464
v    17.909083 340.414360 2.769464
v    20.686613 337.982033 2.769464
v    20.300549 342.514640 2.187947
v    21.075154 343.254569 3.183376
v    22.453002 340.629703 2.187947
v    23.084260 341.495162 3.183376
v    21.718982 341.097521 2.769464
v    18.190028 340.939922 2.769464
v    20.090990 337.962557 2.769464
v    18.281018 338.902479 5.235228
v    21.809972 339.060078 5.235228
v    19.909010 342.037443 5.235228
v    19.288131 337.425837 4.480790
v    18.746084 337.144211 5.048415
v    18.071972 336.807904 5.747341
v    17.365290 340.437468 4.480790
v    16.881714 340.064264 5.048415
v    16.292959 339.594266 5.747341
v    18.420020 338.861621 5.235228
v    21.775855 339.200887 5.235228
v    19.804125 341.937492 5.235228
v    21.579980 341.138379 9.070287
v    18.224145 340.799113 9.070287
v    20.195875 338.062508 9.070287
v    20.066637 343.120763 8.110200
v    20.190353 343.194134 8.243860
v    22.981376 339.075338 8.110200
v    23.090135 339.169466 8.243860
v    21.554633 341.012481 9.070287
v    18.345849 340.840111 9.070287
v    20.099518 338.147408 9.070287
v    18.445367 338.987519 15.537192
v    21.654151 339.159889 15.537192
v    19.900482 341.852592 15.537192
v    20.312272 336.278745 14.338735
v    17.724583 334.904444 17.061428
v    16.722787 341.790288 14.338735
v    14.419517 339.979270 17.061428
v    18.458123 339.144816 15.537192
v    21.511550 339.092287 15.537192
v    20.030327 341.762897 15.537192
v    21.541877 340.855184 23.570456
v    18.488450 340.907713 23.570456
v    19.969673 338.237103 23.570456
v    19.552384 344.224793 22.103019
v    23.852692 346.131505 26.474268
v    25.288634 346.786153 27.537871
v    28.988972 348.408673 30.257574
v    23.346947 337.383288 22.103019
v    27.241416 340.021715 26.474268
v    28.557084 340.893216 27.537871
v    31.892791 343.173157 30.257574
v    21.614895 340.429572 23.570456
v    18.820532 341.183754 23.570456
v    19.564573 338.386674 23.570456
v    18.385105 339.570428 36.455601
v    21.179468 338.816246 36.455601
v    20.435427 341.613326 36.455601
v    19.725205 335.025232 34.693132
v    14.157716 334.064196 39.943232
v    11.807461 333.633269 41.553625
v    6.364118 332.716692 45.269241
v    0.159287 331.594952 47.290335
v    17.289784 344.180737 34.693132
v    11.980635 342.248520 39.943232
v    9.726897 341.454757 41.553625
v    4.547576 339.545639 45.269241
v    -1.394527 337.436221 47.290335
v    18.541706 339.394647 36.455601
v    21.253398 339.039757 36.455601
v    20.204896 341.565597 36.455601
v    21.458294 340.605353 56.069611
v    18.746602 340.960243 56.069611
v    19.795104 338.434403 56.069611
v    19.077809 345.950771 53.993223
v    25.427921 347.945817 60.178436
v    31.359656 349.877474 64.382849
v    34.297583 350.787242 66.453079
v    50.020823 355.864287 71.749125
v    23.563177 335.145529 53.993223
v    29.459374 338.234054 60.178436
v    35.015297 341.071043 64.382849
v    37.733830 342.509329 66.453079
v    52.430314 350.059828 71.749125
v    21.148136 340.944713 56.069611
v    18.607786 340.521958 56.069611
v    20.244078 338.533328 56.069611
v    18.851864 339.055287 79.422298
v    21.392214 339.478042 79.422298
v    19.755922 341.466672 79.422298
v    23.099963 334.163819 77.022798
v    16.749164 329.824137 84.170507
v    13.797969 327.762120 86.596915
v    7.863519 323.742633 91.421561
v    -7.859032 312.815256 97.558798
v    -8.511391 312.399247 97.805804
v    14.870050 344.165861 77.022798
v    9.388572 338.769669 84.170507
v    6.796815 336.270817 86.596915
v    1.709718 331.221519 91.421561
v    -12.040943 317.897650 97.558798
v    -12.574796 317.337616 97.805804
v    19.036323 338.991726 79.422298
v    21.355030 339.669568 79.422298
v    19.608648 341.338706 79.422298
v    20.963677 341.008274 104.046430
v    18.644970 340.330432 104.046430
v    20.391352 338.661294 104.046430
v    15.772283 345.699689 101.326499
v    22.111904 351.248264 109.155257
v    31.558408 359.442906 117.648085
v    43.985601 370.494534 122.978713
v    47.976560 373.769584 124.626895
v    25.884989 336.034278 101.326499
v    31.141288 342.618259 109.155257
v    38.900492 352.425570 117.648085
v    49.379010 365.339681 122.978713
v    52.470287 369.474619 124.626895
v    20.912312 340.929805 104.046430
v    18.738610 340.325183 104.046430
v    20.349079 338.745013 104.046430
v    19.087688 339.070195 123.069539
v    21.261390 339.674817 123.069539
v    19.650921 341.254987 123.069539
v    24.288012 334.272161 120.045272
v    16.812489 328.078869 129.054057
v    6.443291 319.314332 138.193097
v    0.258749 313.957957 140.815586
v    -6.822217 308.300963 143.708983
v    14.191761 344.178463 120.045272
v    8.141552 336.586672 129.054057
v    -0.424486 326.052899 138.193097
v    -5.662445 319.767751 140.815586
v    -11.183946 312.580631 143.708983
v    19.188946 339.101354 123.069539
v    21.183778 339.746930 123.069539
v    19.627277 341.151717 123.069539
v    20.811054 340.898646 140.912998
v    18.816222 340.253070 140.912998
v    20.372723 338.848283 140.912998
v    14.646077 346.143444 137.614567
v    18.911281 350.097271 143.018994
v    22.458697 353.279050 147.440042
v    33.359665 363.301191 157.407578
v    43.872796 373.202824 162.036685
v    53.533527 381.603779 166.123861
v    26.658431 335.301948 137.614567
v    30.155668 339.948888 143.018994
v    32.958254 343.802896 147.440042
v    41.813880 355.671018 157.407578
v    50.589265 367.141017 162.036685
v    57.958941 377.609714 166.123861
v    21.097812 340.213714 140.912998
v    19.266012 340.843876 140.912998
v    19.636176 338.942409 140.912998
v    18.902188 339.786286 154.115691
v    20.733988 339.156124 154.115691
v    20.363824 341.057591 154.115691
v    20.803210 331.348041 150.586950
v    14.721260 330.718061 156.268841
v    9.535175 330.266785 161.098479
v    -6.228960 328.699385 171.761988
v    -21.444923 327.001350 176.669485
v    -36.892549 325.895815 181.613700
v    -37.176888 325.915005 181.702277
v    17.498949 348.321435 150.586950
v    11.624825 346.623891 156.268841
v    6.648181 345.096758 161.098479
v    -8.552716 340.636103 171.761988
v    -23.294478 336.502180 176.669485
v    -38.028720 331.732120 181.613700
v    -38.285095 331.607667 181.702277
v    19.208315 339.346885 154.115691
v    20.961457 339.640938 154.115691
v    19.830228 341.012177 154.115691
v    20.791685 340.653115 161.438443
v    19.038543 340.359062 161.438443
v    20.169772 338.987823 161.438443
v    15.225162 346.982540 157.735414
v    25.142166 353.541124 168.766118
v    38.894495 362.881424 179.956311
v    44.441137 366.746930 182.123347
v    58.132898 375.502797 187.311762
v    60.336154 376.513586 188.065184
v    25.947695 333.985029 157.735414
v    34.271650 342.474654 168.766118
v    46.055595 354.200967 179.956311
v    50.904889 358.911776 182.123347
v    62.103544 370.689707 187.311762
v    63.514681 372.660677 188.065184
v    20.747035 340.560971 161.438443
v    19.140667 340.366465 161.438443
v    20.112298 339.072563 161.438443
v    19.252965 339.439029 167.195389
v    20.859333 339.633535 167.195389
v    19.887702 340.927437 167.195389
v    24.776185 332.539996 163.383681
v    14.279542 326.250080 174.738120
v    -0.300707 317.292173 186.256727
v    -8.026516 312.416521 189.185007
v    -22.517010 304.056723 194.525694
v    -26.690141 302.368405 195.924875
v    14.167786 346.667000 163.383681
v    5.200314 338.340718 174.738120
v    -7.468061 326.836803 186.256727
v    -14.304704 320.777066 189.185007
v    -26.373665 309.192558 194.525694
v    -29.158718 305.655764 195.924875
v    19.310251 339.516898 167.195389
v    20.763253 339.644211 167.195389
v    19.926496 340.838891 167.195389
v    20.689749 340.483102 170.550540
v    19.236747 340.355789 170.550540
v    20.073504 339.161109 170.550540
v    15.620937 347.238035 166.701902
v    26.432400 353.222176 178.166350
v    41.445174 361.774724 189.796557
v    44.150611 363.359391 190.801548
v    59.052825 371.311364 196.193980
v    65.168897 373.553187 198.218599
v    25.305527 333.410863 166.701902
v    34.624392 341.526060 178.166350
v    47.792900 352.711760 189.796557
v    50.206789 354.712684 190.801548
v    62.773100 365.999741 196.193980
v    66.970240 370.981321 198.218599
v    20.610549 340.435580 170.550540
v    19.317502 340.310961 170.550540
v    20.071949 339.253459 170.550540
v    19.389451 339.564420 173.154000
v    20.682498 339.689039 173.154000
v    19.928051 340.746541 173.154000
v    24.445548 332.948941 169.342292
v    13.789690 326.929479 180.696731
v    -1.004924 318.330224 192.215339
v    -17.960218 308.973465 198.401745
v    -26.220161 305.864202 201.144888
v    14.779295 346.498043 169.342292
v    5.619981 338.380888 180.696731
v    -7.325489 327.189705 192.215339
v    -21.690330 314.201931 198.401745
v    -27.318192 307.403303 201.144888
v    22.363098 341.563662 0.493272
v    22.570192 341.638749 0.697645
v    23.281335 341.906535 1.209144
v    23.796651 342.107694 1.386459
v    24.498844 342.350158 1.623619
v    24.799180 342.409054 1.718745
v    25.054795 342.462356 1.715844
v    22.687922 340.896855 0.493272
v    22.874704 341.013638 0.697645
v    23.523929 341.408532 1.209144
v    23.999977 341.690299 1.386459
v    24.623747 342.093755 1.623619
v    24.855257 342.293939 1.718745
v    25.054795 342.462356 1.715844
v    18.147978 337.846255 0.726635
v    17.846335 337.652949 1.059022
v    16.956874 337.067379 1.775837
v    16.333824 336.646366 2.016865
v    15.448781 336.098173 2.349221
v    15.034448 335.915265 2.489990
v    14.724351 335.773924 2.486204
v    17.493959 338.662704 0.726635
v    17.239477 338.410525 1.059022
v    16.473891 337.670314 1.775837
v    15.927042 337.154175 2.016865
v    15.198897 336.410118 2.349221
v    14.929966 336.045696 2.489990
v    14.724351 335.773924 2.486204
v    22.369270 341.694513 1.222145
v    22.865525 341.829249 1.699219
v    24.273416 342.230162 2.684576
v    25.265679 342.525674 3.016435
v    26.652357 342.879399 3.473303
v    27.269409 342.948128 3.666275
v    27.736122 343.005761 3.661050
v    22.891814 340.349607 1.222145
v    23.348858 340.585262 1.699219
v    24.658108 341.240055 2.684576
v    25.589596 341.691989 3.016435
v    26.851337 342.367271 3.473303
v    27.352927 342.733173 3.666275
v    27.736122 343.005761 3.661050
v    17.324724 338.350418 2.127546
v    16.713492 338.272486 2.699215
v    14.758724 337.998770 4.027849
v    13.076182 337.742494 4.573380
v    11.158516 337.527856 5.189411
v    10.637045 337.542133 5.351551
v    9.672708 337.557019 5.340835
v    16.869189 340.276118 2.127546
v    16.287822 340.071934 2.699215
v    14.417598 339.440826 4.027849
v    12.798559 338.916095 4.573380
v    10.987974 338.248793 5.189411
v    10.528169 338.002389 5.351551
v    9.672708 337.557019 5.340835
v    21.075154 343.254569 3.183376
v    21.658345 343.793648 3.920187
v    23.553520 345.589141 5.677471
v    25.424463 347.404892 6.513159
v    27.325034 349.108273 7.327937
v    28.959437 350.230986 7.409787
v    23.084260 341.495162 3.183376
v    23.541681 342.144381 3.920187
v    25.071428 344.259885 5.677471
v    26.624453 346.354042 6.513159
v    28.062181 348.462741 7.327937
v    28.959437 350.230986 7.409787
v    18.071972 336.807904 5.747341
v    17.125999 336.335969 6.728135
v    14.114096 334.786793 9.007973
v    12.022178 333.678781 9.766751
v    9.036961 332.246301 10.823815
v    7.640558 331.801195 11.279348
v    6.636854 331.468013 11.267597
v    16.292959 339.594266 5.747341
v    15.466767 338.934724 6.728135
v    12.793992 336.854394 9.007973
v    10.908557 335.422980 9.766751
v    8.352870 333.317752 10.823815
v    7.361470 332.238314 11.279348
v    6.636854 331.468013 11.267597
v    20.190353 343.194134 8.243860
v    22.713802 344.690685 10.970138
v    26.428461 346.876295 13.871427
v    31.756107 350.093219 15.866277
v    34.213459 351.446963 16.761944
v    35.503932 352.167567 16.745117
v    38.571570 353.380860 16.708465
v    23.090135 339.169466 8.243860
v    25.308523 341.089419 10.970138
v    28.557611 343.921205 13.871427
v    33.295567 347.956571 15.866277
v    35.357567 349.859031 16.761944
v    36.449613 350.855037 16.745117
v    38.571570 353.380860 16.708465
v    17.724583 334.904444 17.061428
v    14.736539 333.288229 19.583778
v    12.176963 331.942320 21.530358
v    3.072233 327.014006 24.848835
v    -1.831517 324.576919 25.086521
v    -4.988120 323.497312 25.049455
v    -5.717512 323.251041 24.913085
v    14.419517 339.979270 17.061428
v    11.733109 337.899903 19.583778
v    9.467175 336.103118 21.530358
v    1.278232 329.768639 24.848835
v    -2.933562 326.269075 25.086521
v    -5.197343 323.818567 25.049455
v    -5.717512 323.251041 24.913085
v    28.988972 348.408673 30.257574
v    29.874898 348.797133 30.908719
v    39.888528 353.332332 34.432264
v    42.484563 354.386038 35.326707
v    46.015169 355.842745 35.283225
v    50.889532 357.132525 35.227204
v    31.892791 343.173157 30.257574
v    32.691418 343.719015 30.908719
v    41.840830 349.812378 34.432264
v    44.109284 351.456705 35.326707
v    47.214457 353.680457 35.283225
v    50.889532 357.132525 35.227204
v    0.159287 331.594952 47.290335
v    -7.186901 330.266871 49.683203
v    -9.954820 329.879175 50.575477
v    -15.086067 329.130389 50.516441
v    -21.141461 329.056118 50.449157
v    -1.394527 337.436221 47.290335
v    -8.429658 334.938782 49.683203
v    -11.024380 333.899982 50.575477
v    -15.849486 332.000317 50.516441
v    -21.141461 329.056118 50.449157
v    50.020823 355.864287 71.749125
v    52.856987 356.780086 72.704427
v    62.707928 359.622576 72.587668
v    66.053746 360.113689 72.550095
v    69.712152 360.636030 71.895475
v    52.430314 350.059828 71.749125
v    55.081271 351.421790 72.704427
v    64.049288 356.391244 72.587668
v    66.759315 358.413976 72.550095
v    69.712152 360.636030 71.895475
v    -8.511391 312.399247 97.805804
v    -10.729596 310.984696 98.645695
v    -17.013466 306.926531 98.560534
v    -24.470111 303.408957 98.468930
v    -12.574796 317.337616 97.805804
v    -14.390048 315.433345 98.645695
v    -19.582390 310.048616 98.560534
v    -24.470111 303.408957 98.468930
v    47.976560 373.769584 124.626895
v    50.906594 376.174020 125.836937
v    53.316709 378.175069 125.801274
v    61.233459 383.141659 125.697437
v    52.470287 369.474619 124.626895
v    54.739803 372.510357 125.836937
v    56.629849 375.008472 125.801274
v    61.233459 383.141659 125.697437
v    -6.822217 308.300963 143.708983
v    -10.111335 305.673282 145.052969
v    -16.324886 301.988815 147.298208
v    -18.739279 300.517913 147.266797
v    -11.183946 312.580631 143.708983
v    -13.748690 309.242205 145.052969
v    -17.314493 302.959804 147.298208
v    -18.739279 300.517913 147.266797
v    53.533527 381.603779 166.123861
v    54.796543 382.702096 166.658207
v    56.629995 383.895282 167.338111
v    64.149746 388.917819 167.237639
v    57.958941 377.609714 166.123861
v    58.922432 378.978363 166.658207
v    59.921998 380.924154 167.338111
v    64.149746 388.917819 167.237639
v    -37.176888 325.915005 181.702277
v    -39.371412 326.063117 182.385910
v    -48.879957 326.590934 182.280101
v    -38.285095 331.607667 181.702277
v    -40.263797 330.647141 182.385910
v    -48.879957 326.590934 182.280101
v    60.336154 376.513586 188.065184
v    69.177133 380.569566 191.088429
v    63.514681 372.660677 188.065184
v    69.177133 380.569566 191.088429
v    -26.690141 302.368405 195.924875
v    -32.081692 300.187152 197.732572
v    -34.196944 299.301862 197.707095
v    -29.158718 305.655764 195.924875
v    -32.756918 301.086338 197.732572
v    -34.196944 299.301862 197.707095
v    65.168897 373.553187 198.218599
v    70.910182 375.657633 200.119150
v    66.970240 370.981321 198.218599
v    70.910182 375.657633 200.119150
v    -26.220161 305.864202 201.144888
v    -29.665980 304.567104 202.289251
v    -27.318192 307.403303 201.144888
v    -29.665980 304.567104 202.289251
mtllib usm_11_2.5D_2018-09-25_8.mtl
usemtl APPID_2962601456_1982942885088 
o vid_3 
f 3 2 1
f 4 5 6
f 1 6 5
f 1 5 3
f 3 5 4
f 4 2 3
f 2 4 6
f 6 1 2
usemtl APPID_2962606160_1982942876640 
o vid_4 
f 7 10 11
f 7 11 8
f 8 11 12
f 8 12 9
usemtl APPID_2962601456_1982942885088 
o vid_5 
f 15 14 13
f 16 17 18
f 13 18 17
f 13 17 15
f 15 17 16
f 16 14 15
f 14 16 18
f 18 13 14
usemtl APPID_2962606160_1982942876640 
o vid_6 
f 19 22 23
f 19 23 20
f 20 23 24
f 20 24 21
usemtl APPID_2962601456_1982942885088 
o vid_7 
f 27 26 25
f 28 29 30
f 25 30 29
f 25 29 27
f 27 29 28
f 28 26 27
f 26 28 30
f 30 25 26
usemtl APPID_2962606160_1982942876640 
o vid_8 
f 31 34 35
f 31 35 32
f 32 35 36
f 32 36 33
usemtl APPID_2962601456_1982942885088 
o vid_9 
f 39 38 37
f 40 41 42
f 37 42 41
f 37 41 39
f 39 41 40
f 40 38 39
f 38 40 42
f 42 37 38
usemtl APPID_2962606160_1982942876640 
o vid_10 
f 43 46 47
f 43 47 44
f 44 47 48
f 44 48 45
usemtl APPID_2962601456_1982942885088 
o vid_11 
f 51 50 49
f 52 53 54
f 49 54 53
f 49 53 51
f 51 53 52
f 52 50 51
f 50 52 54
f 54 49 50
usemtl APPID_2962606160_1982942876640 
o vid_12 
f 55 57 58
f 55 58 56
f 55 57 58
f 55 58 56
usemtl APPID_2962601456_1982942885088 
o vid_13 
f 61 60 59
f 62 63 64
f 59 64 63
f 59 63 61
f 61 63 62
f 62 60 61
f 60 62 64
f 64 59 60
usemtl APPID_2962606160_1982942876640 
o vid_14 
f 65 68 69
f 65 69 66
f 66 69 70
f 66 70 67
usemtl APPID_2962601456_1982942885088 
o vid_15 
f 73 72 71
f 74 75 76
f 71 76 75
f 71 75 73
f 73 75 74
f 74 72 73
f 72 74 76
f 76 71 72
usemtl APPID_2962606160_1982942876640 
o vid_16 
f 77 79 80
f 77 80 78
f 77 79 80
f 77 80 78
usemtl APPID_2962601456_1982942885088 
o vid_17 
f 83 82 81
f 84 85 86
f 81 86 85
f 81 85 83
f 83 85 84
f 84 82 83
f 82 84 86
f 86 81 82
usemtl APPID_2962606160_1982942876640 
o vid_18 
f 87 89 90
f 87 90 88
f 87 89 90
f 87 90 88
usemtl APPID_2962601456_1982942885088 
o vid_19 
f 93 92 91
f 94 95 96
f 91 96 95
f 91 95 93
f 93 95 94
f 94 92 93
f 92 94 96
f 96 91 92
usemtl APPID_2962606160_1982942876640 
o vid_20 
f 97 101 102
f 98 102 103
f 97 102 98
f 98 103 99
f 99 103 104
f 99 104 100
usemtl APPID_2962601456_1982942885088 
o vid_21 
f 107 106 105
f 108 109 110
f 105 110 109
f 105 109 107
f 107 109 108
f 108 106 107
f 106 108 110
f 110 105 106
usemtl APPID_2962606160_1982942876640 
o vid_22 
f 111 116 117
f 112 117 118
f 113 118 119
f 111 117 112
f 112 118 113
f 113 119 114
f 114 119 120
f 114 120 115
usemtl APPID_2962601456_1982942885088 
o vid_23 
f 123 122 121
f 124 125 126
f 121 126 125
f 121 125 123
f 123 125 124
f 124 122 123
f 122 124 126
f 126 121 122
usemtl APPID_2962606160_1982942876640 
o vid_24 
f 127 132 133
f 128 133 134
f 129 134 135
f 127 133 128
f 128 134 129
f 129 135 130
f 130 135 136
f 130 136 131
usemtl APPID_2962601456_1982942885088 
o vid_25 
f 139 138 137
f 140 141 142
f 137 142 141
f 137 141 139
f 139 141 140
f 140 138 139
f 138 140 142
f 142 137 138
usemtl APPID_2962606160_1982942876640 
o vid_26 
f 143 149 150
f 144 150 151
f 145 151 152
f 146 152 153
f 143 150 144
f 144 151 145
f 145 152 146
f 146 153 147
f 147 153 154
f 147 154 148
usemtl APPID_2962601456_1982942885088 
o vid_27 
f 157 156 155
f 158 159 160
f 155 160 159
f 155 159 157
f 157 159 158
f 158 156 157
f 156 158 160
f 160 155 156
usemtl APPID_2962606160_1982942876640 
o vid_28 
f 161 166 167
f 162 167 168
f 163 168 169
f 161 167 162
f 162 168 163
f 163 169 164
f 164 169 170
f 164 170 165
usemtl APPID_2962601456_1982942885088 
o vid_29 
f 173 172 171
f 174 175 176
f 171 176 175
f 171 175 173
f 173 175 174
f 174 172 173
f 172 174 176
f 176 171 172
usemtl APPID_2962606160_1982942876640 
o vid_30 
f 177 182 183
f 178 183 184
f 179 184 185
f 177 183 178
f 178 184 179
f 179 185 180
f 180 185 186
f 180 186 181
usemtl APPID_2962601456_1982942885088 
o vid_31 
f 189 188 187
f 190 191 192
f 187 192 191
f 187 191 189
f 189 191 190
f 190 188 189
f 188 190 192
f 192 187 188
usemtl APPID_2962606160_1982942876640 
o vid_32 
f 193 199 200
f 194 200 201
f 195 201 202
f 196 202 203
f 193 200 194
f 194 201 195
f 195 202 196
f 196 203 197
f 197 203 204
f 197 204 198
usemtl APPID_2962601456_1982942885088 
o vid_33 
f 207 206 205
f 208 209 210
f 205 210 209
f 205 209 207
f 207 209 208
f 208 206 207
f 206 208 210
f 210 205 206
usemtl APPID_2962606160_1982942876640 
o vid_34 
f 211 218 219
f 212 219 220
f 213 220 221
f 214 221 222
f 215 222 223
f 211 219 212
f 212 220 213
f 213 221 214
f 214 222 215
f 215 223 216
f 216 223 224
f 216 224 217
usemtl APPID_2962601456_1982942885088 
o vid_35 
f 227 226 225
f 228 229 230
f 225 230 229
f 225 229 227
f 227 229 228
f 228 226 227
f 226 228 230
f 230 225 226
usemtl APPID_2962606160_1982942876640 
o vid_36 
f 231 237 238
f 232 238 239
f 233 239 240
f 234 240 241
f 231 238 232
f 232 239 233
f 233 240 234
f 234 241 235
f 235 241 242
f 235 242 236
usemtl APPID_2962601456_1982942885088 
o vid_37 
f 245 244 243
f 246 247 248
f 243 248 247
f 243 247 245
f 245 247 246
f 246 244 245
f 244 246 248
f 248 243 244
usemtl APPID_2962606160_1982942876640 
o vid_38 
f 249 255 256
f 250 256 257
f 251 257 258
f 252 258 259
f 249 256 250
f 250 257 251
f 251 258 252
f 252 259 253
f 253 259 260
f 253 260 254
usemtl APPID_2962601456_1982942885088 
o vid_39 
f 263 262 261
f 264 265 266
f 261 266 265
f 261 265 263
f 263 265 264
f 264 262 263
f 262 264 266
f 266 261 262
usemtl APPID_2962606160_1982942876640 
o vid_40 
f 267 273 274
f 268 274 275
f 269 275 276
f 270 276 277
f 267 274 268
f 268 275 269
f 269 276 270
f 270 277 271
f 271 277 278
f 271 278 272
usemtl APPID_2962601456_1982942885088 
o vid_41 
f 281 280 279
f 282 283 284
f 279 284 283
f 279 283 281
f 281 283 282
f 282 280 281
f 280 282 284
f 284 279 280
usemtl APPID_2962606160_1982942876640 
o vid_42 
f 285 290 291
f 286 291 292
f 287 292 293
f 285 291 286
f 286 292 287
f 287 293 288
f 288 293 294
f 288 294 289
usemtl APPID_2962599664_1982942885216 
o vid_10000004 
f 295 302 303
f 296 303 304
f 297 304 305
f 298 305 306
f 299 306 307
f 295 303 296
f 296 304 297
f 297 305 298
f 298 306 299
f 299 307 300
f 300 307 308
usemtl APPID_2962599664_1982942885216 
o vid_10000006 
f 309 316 317
f 310 317 318
f 311 318 319
f 312 319 320
f 313 320 321
f 309 317 310
f 310 318 311
f 311 319 312
f 312 320 313
f 313 321 314
f 314 321 322
usemtl APPID_2962599664_1982942885216 
o vid_10000008 
f 323 330 331
f 324 331 332
f 325 332 333
f 326 333 334
f 327 334 335
f 323 331 324
f 324 332 325
f 325 333 326
f 326 334 327
f 327 335 328
f 328 335 336
usemtl APPID_2962599664_1982942885216 
o vid_10000010 
f 337 344 345
f 338 345 346
f 339 346 347
f 340 347 348
f 341 348 349
f 337 345 338
f 338 346 339
f 339 347 340
f 340 348 341
f 341 349 342
f 342 349 350
usemtl APPID_2962599664_1982942885216 
o vid_10000012 
f 351 357 358
f 352 358 359
f 353 359 360
f 354 360 361
f 351 358 352
f 352 359 353
f 353 360 354
f 354 361 355
f 355 361 362
usemtl APPID_2962599664_1982942885216 
o vid_10000014 
f 363 370 371
f 364 371 372
f 365 372 373
f 366 373 374
f 367 374 375
f 363 371 364
f 364 372 365
f 365 373 366
f 366 374 367
f 367 375 368
f 368 375 376
usemtl APPID_2962599664_1982942885216 
o vid_10000016 
f 377 384 385
f 378 385 386
f 379 386 387
f 380 387 388
f 381 388 389
f 377 385 378
f 378 386 379
f 379 387 380
f 380 388 381
f 381 389 382
f 382 389 390
usemtl APPID_2962599664_1982942885216 
o vid_10000018 
f 391 398 399
f 392 399 400
f 393 400 401
f 394 401 402
f 395 402 403
f 391 399 392
f 392 400 393
f 393 401 394
f 394 402 395
f 395 403 396
f 396 403 404
usemtl APPID_2962599664_1982942885216 
o vid_10000020 
f 405 411 412
f 406 412 413
f 407 413 414
f 408 414 415
f 405 412 406
f 406 413 407
f 407 414 408
f 408 415 409
f 409 415 416
usemtl APPID_2962599664_1982942885216 
o vid_10000022 
f 417 422 423
f 418 423 424
f 419 424 425
f 417 423 418
f 418 424 419
f 419 425 420
f 420 425 426
usemtl APPID_2962599664_1982942885216 
o vid_10000024 
f 427 432 433
f 428 433 434
f 429 434 435
f 427 433 428
f 428 434 429
f 429 435 430
f 430 435 436
usemtl APPID_2962599664_1982942885216 
o vid_10000026 
f 437 441 442
f 438 442 443
f 437 442 438
f 438 443 439
f 439 443 444
usemtl APPID_2962599664_1982942885216 
o vid_10000028 
f 445 449 450
f 446 450 451
f 445 450 446
f 446 451 447
f 447 451 452
usemtl APPID_2962599664_1982942885216 
o vid_10000030 
f 453 457 458
f 454 458 459
f 453 458 454
f 454 459 455
f 455 459 460
usemtl APPID_2962599664_1982942885216 
o vid_10000032 
f 461 465 466
f 462 466 467
f 461 466 462
f 462 467 463
f 463 467 468
usemtl APPID_2962599664_1982942885216 
o vid_10000034 
f 469 472 473
f 469 473 470
f 470 473 474
usemtl APPID_2962599664_1982942885216 
o vid_10000036 
f 475 477 478
f 475 478 476
f 475 477 478
usemtl APPID_2962599664_1982942885216 
o vid_10000038 
f 479 482 483
f 479 483 480
f 480 483 484
usemtl APPID_2962599664_1982942885216 
o vid_10000040 
f 485 487 488
f 485 488 486
f 485 487 488
usemtl APPID_2962599664_1982942885216 
o vid_10000042 
f 489 491 492
f 489 492 490
f 489 491 492
