# File generated by PlantGL - Fri Sep  4 14:41:16 2026
v    19.264507 19.641717 0.000000
v    20.678029 19.542186 0.000000
v    20.057465 20.816097 0.000000
v    20.735493 20.358283 0.257918
v    19.321971 20.457814 0.257918
v    19.942535 19.183903 0.257918
v    20.270476 20.797805 -0.579651
v    21.440660 21.204288 0.680466
v    22.497756 21.558240 1.435189
v    22.860118 21.625760 1.677809
v    23.743469 21.823566 1.935884
v    20.794931 19.721190 -0.579651
v    21.836331 20.392042 0.680466
v    22.766659 21.006229 1.435189
v    23.043194 21.249936 1.677809
v    23.743469 21.823566 1.935884
v    20.380110 20.304489 0.257918
v    19.546250 20.176941 0.257918
v    20.073640 19.518570 0.257918
v    19.619890 19.695511 0.275000
v    20.453750 19.823059 0.275000
v    19.926360 20.481430 0.275000
v    19.798545 19.266823 -0.821295
v    19.782294 19.282608 -0.615229
v    19.497507 19.597477 1.245432
v    19.240530 19.963425 -0.821295
v    19.252388 19.944121 -0.615229
v    19.497507 19.597477 1.245432
mtllib usm_15_Beer_2018-07-11_0.mtl
usemtl APPID_1535986608_2630217912320 
o vid_3 
f 3 2 1
f 4 5 6
f 1 6 5
f 1 5 3
f 3 5 4
f 4 2 3
f 2 4 6
f 6 1 2
usemtl APPID_1535981680_2630217909632 
o vid_4 
f 7 12 13
f 8 13 14
f 9 14 15
f 7 13 8
f 8 14 9
f 9 15 10
f 10 15 16
usemtl APPID_1535986608_2630217912320 
o vid_5 
f 19 18 17
f 20 21 22
f 17 22 21
f 17 21 19
f 19 21 20
f 20 18 19
f 18 20 22
f 22 17 18
usemtl APPID_1535981680_2630217909632 
o vid_6 
f 23 26 27
f 23 27 24
f 24 27 28
