# File generated by PlantGL - Wed Jul 15 17:36:32 2026
v    20.252304 338.905161 0.000000
v    24.571736 338.601013 0.000000
v    22.675420 342.493825 0.000000
v    24.747336 341.094839 2.682187
v    20.427904 341.398987 2.682187
v    22.324220 337.506175 2.682187
v    24.669594 341.321206 2.593366
v    24.802107 341.365938 2.821149
v    24.877659 340.894085 2.593366
v    24.994565 340.970854 2.821149
v    24.379104 341.505407 2.682187
v    20.256458 340.874804 2.682187
v    22.863898 337.619789 2.682187
v    20.620536 338.494593 4.602934
v    24.743182 339.125196 4.602934
v    22.135742 342.380211 4.602934
v    20.802624 338.199693 4.474590
v    20.562245 338.053097 4.933143
v    20.461834 337.990813 5.125766
v    20.398768 337.948905 5.201669
v    20.372488 338.736657 4.474590
v    20.176961 338.534069 4.933143
v    20.094263 338.449673 5.125766
v    20.039601 338.397274 5.201669
v    20.341236 339.161313 4.602934
v    24.305436 338.549955 4.602934
v    22.852788 342.288732 4.602934
v    24.658404 340.838687 7.454389
v    20.694204 341.450045 7.454389
v    22.146852 337.711268 7.454389
v    24.559327 341.258780 7.272793
v    24.987150 341.368206 7.992678
v    25.107784 341.396512 8.194150
v    25.547447 341.516719 8.650392
v    24.868943 340.461901 7.272793
v    25.258418 340.670025 7.992678
v    25.366518 340.730590 8.194150
v    25.772007 340.938755 8.650392
v    24.663782 340.511898 7.454389
v    20.974522 341.618097 7.454389
v    21.861155 337.870005 7.454389
v    20.335858 339.488102 12.006019
v    24.025118 338.381903 12.006019
v    23.138485 342.129995 12.006019
v    20.382000 338.933203 11.754423
v    20.118889 338.903582 12.186055
v    19.601476 338.855753 13.030928
v    19.292075 338.815748 13.343207
v    18.648044 338.754622 13.988098
v    20.128492 340.004863 11.754423
v    19.879996 339.913460 12.186055
v    19.395993 339.724398 13.030928
v    19.101460 339.621540 13.343207
v    18.498301 339.387636 13.988098
v    21.095515 338.396392 12.006019
v    24.590737 339.585640 12.006019
v    21.813207 342.017967 12.006019
v    23.904125 341.603608 16.421928
v    20.408903 340.414360 16.421928
v    23.186433 337.982033 16.421928
v    23.415170 342.181170 16.080609
v    23.690996 342.428699 16.684772
v    24.216252 342.881500 17.812343
v    24.537860 343.179826 18.251437
v    25.338794 343.873706 19.307806
v    25.800509 344.294900 19.663079
v    24.541151 341.195131 16.080609
v    24.750123 341.501204 16.684772
v    25.129663 342.081611 17.812343
v    25.382948 342.439768 18.251437
v    25.965087 343.325251 19.307806
v    26.321681 343.838502 19.663079
v    24.218802 341.097521 16.421928
v    20.689848 340.939922 16.421928
v    22.590810 337.962557 16.421928
v    20.780838 338.902479 35.676141
v    24.309792 339.060078 35.676141
v    22.408830 342.037443 35.676141
v    21.201762 337.965808 35.222737
v    20.593421 337.673409 36.323058
v    19.921949 337.366984 37.523147
v    19.180096 336.995241 38.353735
v    18.126327 336.511234 39.509698
v    16.908592 335.913655 40.280796
v    16.641498 335.824930 40.436890
v    20.108269 339.678482 35.222737
v    19.587022 339.249672 36.323058
v    19.026486 338.769494 37.523147
v    18.377080 338.252958 38.353735
v    17.494575 337.500710 39.509698
v    16.440045 336.647512 40.280796
v    16.247162 336.442554 40.436890
v    20.919840 338.861621 35.676141
v    24.275675 339.200887 35.676141
v    22.303945 341.937492 35.676141
v    24.079800 341.138379 53.193347
v    20.723965 340.799113 53.193347
v    22.695695 338.062508 53.193347
v    23.510256 342.261026 52.603589
v    23.711143 342.371862 52.977610
v    25.136269 343.121504 55.595813
v    27.423355 344.339481 58.179789
v    28.018810 344.674378 58.568148
v    28.871082 345.011669 59.076502
v    24.964428 340.242752 52.603589
v    25.133154 340.398223 52.977610
v    26.295369 341.512766 55.595813
v    28.174687 343.296692 58.179789
v    28.680853 343.755516 58.568148
v    29.270584 344.457191 59.076502
v    24.054453 341.012481 53.193347
v    20.845669 340.840111 53.193347
v    22.599338 338.147408 53.193347
v    20.945187 338.987519 80.186527
v    24.153971 339.159889 80.186527
v    22.400302 341.852592 80.186527
v    21.619128 337.499530 79.435375
v    21.128616 337.258284 80.326482
v    19.501641 336.497981 83.246453
v    18.966286 336.223633 83.848594
v    16.525315 335.075643 86.537562
v    15.368599 334.494980 87.273314
v    13.706719 333.926204 88.247507
v    19.856770 340.205575 79.435375
v    19.437789 339.854498 80.326482
v    18.084547 338.673885 83.246453
v    17.617157 338.295179 83.848594
v    15.580198 336.526841 86.537562
v    14.581404 335.703693 87.273314
v    13.389221 334.413712 88.247507
v    20.957943 339.144816 80.186527
v    24.011370 339.092287 80.186527
v    22.530147 341.762897 80.186527
v    24.041697 340.855184 115.982326
v    20.988270 340.907713 115.982326
v    22.469493 338.237103 115.982326
v    23.255076 342.909355 115.045527
v    25.155075 343.681974 118.389187
v    25.964348 343.992410 119.798512
v    28.358633 345.012320 122.403501
v    29.761767 345.554510 123.903018
v    33.359800 347.051926 126.118431
v    35.188052 347.536099 127.167365
v    36.148035 347.818474 127.368700
v    25.367772 339.100215 115.045527
v    27.029229 340.302918 118.389187
v    27.721081 340.825063 119.798512
v    29.854040 342.316137 122.403501
v    31.056936 343.219352 123.903018
v    34.232345 345.478747 126.118431
v    35.611121 346.773316 127.167365
v    36.358967 347.438169 127.368700
v    24.114715 340.429572 115.982326
v    21.320352 341.183754 115.982326
v    22.064393 338.386674 115.982326
v    20.884925 339.570428 146.338022
v    23.679288 338.816246 146.338022
v    22.935247 341.613326 146.338022
v    21.164810 337.053032 145.194012
v    19.963812 336.884022 147.171163
v    17.626905 336.602532 150.998313
v    16.213739 336.379858 152.430304
v    12.648894 335.941592 156.010698
v    10.072088 335.557517 157.491702
v    6.280419 335.510221 159.594788
v    19.877038 341.894171 145.194012
v    18.750797 341.444121 147.171163
v    16.582892 340.527303 150.998313
v    15.245862 340.018408 152.430304
v    11.934416 338.627538 156.010698
v    9.507347 337.680552 157.491702
v    6.193311 335.837687 159.594788
v    21.041526 339.394647 146.338022
v    23.753218 339.039757 146.338022
v    22.704716 341.565597 146.338022
v    23.958114 340.605353 179.404395
v    21.246422 340.960243 179.404395
v    22.294924 338.434403 179.404395
v    23.142079 343.745961 178.036419
v    26.292426 344.628998 183.370028
v    27.249230 344.876732 184.977041
v    31.249680 346.069492 189.155571
v    33.011292 346.530216 190.970711
v    38.921400 348.238913 194.467991
v    41.186093 348.571817 195.737525
v    44.048778 349.072489 196.322252
v    25.606115 337.810103 178.036419
v    28.455691 339.417696 183.370028
v    29.306660 339.920387 184.977041
v    32.975771 341.911342 189.155571
v    34.545791 342.833612 190.970711
v    39.928546 345.812700 194.467991
v    41.763232 347.181491 195.737525
v    44.138925 348.855325 196.322252
v    23.647956 340.944713 179.404395
v    21.107606 340.521958 179.404395
v    22.743898 338.533328 179.404395
v    21.351684 339.055287 201.060925
v    23.892034 339.478042 201.060925
v    22.255742 341.466672 201.060925
v    23.233975 335.937691 199.459186
v    21.124714 334.590702 203.539024
v    19.000781 333.293195 207.585839
v    16.423201 331.586693 210.680128
v    13.069433 329.526579 214.603722
v    8.886661 326.807157 217.439831
v    4.410364 324.694382 220.185102
v    3.432225 324.199754 220.405639
v    18.654934 341.502727 199.459186
v    16.926960 339.692350 203.539024
v    15.244716 337.858046 207.585839
v    13.073770 335.657350 210.680128
v    10.406354 332.763094 214.603722
v    6.932322 329.182319 217.439831
v    3.997056 325.196687 220.185102
v    3.323317 324.332113 220.405639
v    21.536143 338.991726 201.060925
v    23.854850 339.669568 201.060925
v    22.108468 341.338706 201.060925
v    23.463497 341.008274 220.281142
v    21.144790 340.330432 220.281142
v    22.891172 338.661294 220.281142
v    20.687969 344.497416 218.444730
v    24.744748 347.830210 227.003533
v    30.266012 352.499253 234.533176
v    38.704076 359.506114 241.316195
v    45.092546 363.709726 243.422757
v    27.074548 338.393321 218.444730
v    30.220535 342.596623 227.003533
v    34.635198 348.323320 234.533176
v    41.253425 357.069525 241.316195
v    45.163928 363.641501 243.422757
v    23.278948 340.794068 220.281142
v    21.422573 340.277711 220.281142
v    22.797939 338.928221 220.281142
v    21.720692 339.205932 232.892751
v    23.577067 339.722289 232.892751
v    22.201701 341.071779 232.892751
v    24.843782 335.190640 230.831110
v    19.829361 331.186303 241.291141
v    13.306730 325.786619 249.767278
v    3.590536 317.901733 257.119853
v    -3.902880 313.072852 259.160873
v    17.646814 342.252205 230.831110
v    13.738427 337.162644 241.291141
v    8.463586 330.538645 249.767278
v    0.764640 320.674463 257.119853
v    -3.921064 313.090695 259.160873
v    21.933894 339.372955 232.892751
v    23.325819 339.823416 232.892751
v    22.239746 340.803628 232.892751
v    23.065746 340.627045 239.768064
v    21.673821 340.176584 239.768064
v    22.759894 339.196372 239.768064
v    19.716558 344.654920 237.501745
v    22.931424 347.454202 244.450911
v    25.077757 349.249144 249.000239
v    29.054224 352.828475 254.355562
v    32.567089 355.780886 258.929922
v    38.753877 361.257252 263.626790
v    43.551607 364.463164 266.827081
v    46.398245 366.479401 267.528950
v    27.414808 337.707028 237.501745
v    29.870885 341.191138 244.450911
v    31.437082 343.509670 249.000239
v    34.591291 347.831113 254.355562
v    37.169241 351.627311 258.929922
v    41.984666 358.341372 263.626790
v    44.683481 363.441616 266.827081
v    46.398245 366.479401 267.528950
v    23.094303 340.115730 239.768064
v    22.102354 340.456972 239.768064
v    22.302804 339.427298 239.768064
v    21.905337 339.884270 243.650966
v    22.897286 339.543028 243.650966
v    22.696836 340.572702 243.650966
v    22.135889 334.496726 241.211505
v    19.629045 334.315696 245.308789
v    14.543753 334.050211 253.588461
v    11.603269 333.789093 256.543381
v    3.857076 333.365654 264.276752
v    -1.559415 332.930077 267.365773
v    -11.105386 333.457975 272.668216
v    20.098026 344.964862 241.211505
v    17.706340 344.192281 245.308789
v    12.892824 342.530736 253.588461
v    10.069123 341.669722 256.543381
v    2.729772 339.156414 264.276752
v    -2.454564 337.528296 267.365773
v    -11.105386 333.457975 272.668216
v    22.194811 339.748377 243.650966
v    22.870236 339.861666 243.650966
v    22.434413 340.389957 243.650966
v    22.804829 340.251623 245.531000
v    22.129404 340.138334 245.531000
v    22.565227 339.610043 245.531000
v    21.343964 345.091597 240.489383
v    23.570571 346.368309 245.808866
v    27.262562 348.226266 254.282705
v    31.999050 351.036955 261.024279
v    36.503398 352.700731 266.639928
v    39.597382 354.104943 268.994995
v    27.278905 337.897451 240.489383
v    28.955555 339.840803 245.808866
v    31.481382 343.112347 254.282705
v    35.141102 347.228261 261.024279
v    37.630692 351.334261 266.639928
v    39.597382 354.104943 268.994995
v    24.802107 341.365938 2.821149
v    24.850391 341.382236 2.904146
v    24.931471 341.410291 3.044011
v    25.139639 341.489699 3.267346
v    25.295283 341.546443 3.433172
v    25.515355 341.631546 3.567670
v    25.805456 341.734582 3.742674
v    26.055662 341.827030 3.797402
v    26.435352 341.917127 3.875918
v    24.994565 340.970854 2.821149
v    25.037162 340.998826 2.904146
v    25.109233 341.045376 3.044011
v    25.300080 341.160342 3.267346
v    25.440703 341.247919 3.433172
v    25.643373 341.368748 3.567670
v    25.903330 341.533663 3.742674
v    26.130358 341.673692 3.797402
v    26.435352 341.917127 3.875918
v    20.398768 337.948905 5.201669
v    20.187152 337.808285 5.456357
v    19.992448 337.683024 5.688099
v    19.701312 337.487640 5.887959
v    19.333407 337.255257 6.135327
v    19.001002 337.039366 6.216648
v    18.494504 336.791529 6.330104
v    20.039601 338.397274 5.201669
v    19.856184 338.221451 5.456357
v    19.691446 338.058781 5.688099
v    19.437230 337.817308 5.887959
v    19.130151 337.508993 6.135327
v    18.846914 337.231722 6.216648
v    18.494504 336.791529 6.330104
v    25.547447 341.516719 8.650392
v    25.651811 341.545253 8.758691
v    25.877388 341.598767 8.989801
v    26.678653 341.810687 9.460953
v    26.967885 341.846464 9.622588
v    27.433708 341.916992 9.717382
v    25.772007 340.938755 8.650392
v    25.868259 340.988167 8.758691
v    26.070793 341.100990 8.989801
v    26.804947 341.485636 9.460953
v    27.042463 341.654519 9.622588
v    27.433708 341.916992 9.717382
v    18.648044 338.754622 13.988098
v    18.503066 338.740862 14.133271
v    17.937482 338.672514 14.457124
v    16.951563 338.687528 15.003994
v    18.498301 339.387636 13.988098
v    18.362523 339.334981 14.133271
v    17.826262 339.142681 14.457124
v    16.951563 338.687528 15.003994
v    25.800509 344.294900 19.663079
v    25.923827 344.407396 19.757967
v    27.020779 345.164399 20.497161
v    27.025190 345.167624 20.498260
v    26.321681 343.838502 19.663079
v    26.416923 343.975585 19.757967
v    27.022576 345.162826 20.497161
v    27.025190 345.167624 20.498260
v    16.641498 335.824930 40.436890
v    15.524608 335.453918 41.089618
v    15.188841 335.332148 41.161481
v    16.247162 336.442554 40.436890
v    15.440599 335.585497 41.089618
v    15.188841 335.332148 41.161481
v    28.871082 345.011669 59.076502
v    30.167965 345.524917 59.850054
v    29.270584 344.457191 59.076502
v    30.167965 345.524917 59.850054
v    13.706719 333.926204 88.247507
v    12.583347 333.541731 88.906028
v    13.389221 334.413712 88.247507
v    12.583347 333.541731 88.906028
v    36.148035 347.818474 127.368700
v    37.102568 348.099247 127.568892
v    36.358967 347.438169 127.368700
v    37.102568 348.099247 127.568892
v    6.280419 335.510221 159.594788
v    5.588915 335.501595 159.978338
v    6.193311 335.837687 159.594788
v    5.588915 335.501595 159.978338
v    44.048778 349.072489 196.322252
v    44.578690 349.165168 196.430491
v    44.138925 348.855325 196.322252
v    44.578690 349.165168 196.430491
v    3.432225 324.199754 220.405639
v    3.082268 324.022786 220.484543
v    3.323317 324.332113 220.405639
v    3.082268 324.022786 220.484543
v    45.092546 363.709726 243.422757
v    45.280555 363.834981 243.468211
v    45.163928 363.641501 243.422757
v    45.280555 363.834981 243.468211
v    -3.902880 313.072852 259.160873
v    -3.951807 313.041175 259.172600
v    -3.921064 313.090695 259.160873
v    -3.951807 313.041175 259.172600
mtllib usm_16_2.5D_2018-08-17_8.mtl
usemtl APPID_341702192_2040474581744 
o vid_3 
f 3 2 1
f 4 5 6
f 1 6 5
f 1 5 3
f 3 5 4
f 4 2 3
f 2 4 6
f 6 1 2
usemtl APPID_341701296_2040474581616 
o vid_4 
f 7 9 10
f 7 10 8
f 7 9 10
f 7 10 8
usemtl APPID_341702192_2040474581744 
o vid_5 
f 13 12 11
f 14 15 16
f 11 16 15
f 11 15 13
f 13 15 14
f 14 12 13
f 12 14 16
f 16 11 12
usemtl APPID_341701296_2040474581616 
o vid_6 
f 17 21 22
f 18 22 23
f 17 22 18
f 18 23 19
f 19 23 24
f 19 24 20
usemtl APPID_341702192_2040474581744 
o vid_7 
f 27 26 25
f 28 29 30
f 25 30 29
f 25 29 27
f 27 29 28
f 28 26 27
f 26 28 30
f 30 25 26
usemtl APPID_341701296_2040474581616 
o vid_8 
f 31 35 36
f 32 36 37
f 31 36 32
f 32 37 33
f 33 37 38
f 33 38 34
usemtl APPID_341702192_2040474581744 
o vid_9 
f 41 40 39
f 42 43 44
f 39 44 43
f 39 43 41
f 41 43 42
f 42 40 41
f 40 42 44
f 44 39 40
usemtl APPID_341701296_2040474581616 
o vid_10 
f 45 50 51
f 46 51 52
f 47 52 53
f 45 51 46
f 46 52 47
f 47 53 48
f 48 53 54
f 48 54 49
usemtl APPID_341702192_2040474581744 
o vid_11 
f 57 56 55
f 58 59 60
f 55 60 59
f 55 59 57
f 57 59 58
f 58 56 57
f 56 58 60
f 60 55 56
usemtl APPID_341701296_2040474581616 
o vid_12 
f 61 67 68
f 62 68 69
f 63 69 70
f 64 70 71
f 61 68 62
f 62 69 63
f 63 70 64
f 64 71 65
f 65 71 72
f 65 72 66
usemtl APPID_341702192_2040474581744 
o vid_13 
f 75 74 73
f 76 77 78
f 73 78 77
f 73 77 75
f 75 77 76
f 76 74 75
f 74 76 78
f 78 73 74
usemtl APPID_341701296_2040474581616 
o vid_14 
f 79 86 87
f 80 87 88
f 81 88 89
f 82 89 90
f 83 90 91
f 79 87 80
f 80 88 81
f 81 89 82
f 82 90 83
f 83 91 84
f 84 91 92
f 84 92 85
usemtl APPID_341702192_2040474581744 
o vid_15 
f 95 94 93
f 96 97 98
f 93 98 97
f 93 97 95
f 95 97 96
f 96 94 95
f 94 96 98
f 98 93 94
usemtl APPID_341701296_2040474581616 
o vid_16 
f 99 105 106
f 100 106 107
f 101 107 108
f 102 108 109
f 99 106 100
f 100 107 101
f 101 108 102
f 102 109 103
f 103 109 110
f 103 110 104
usemtl APPID_341702192_2040474581744 
o vid_17 
f 113 112 111
f 114 115 116
f 111 116 115
f 111 115 113
f 113 115 114
f 114 112 113
f 112 114 116
f 116 111 112
usemtl APPID_341701296_2040474581616 
o vid_18 
f 117 124 125
f 118 125 126
f 119 126 127
f 120 127 128
f 121 128 129
f 117 125 118
f 118 126 119
f 119 127 120
f 120 128 121
f 121 129 122
f 122 129 130
f 122 130 123
usemtl APPID_341702192_2040474581744 
o vid_19 
f 133 132 131
f 134 135 136
f 131 136 135
f 131 135 133
f 133 135 134
f 134 132 133
f 132 134 136
f 136 131 132
usemtl APPID_341701296_2040474581616 
o vid_20 
f 137 145 146
f 138 146 147
f 139 147 148
f 140 148 149
f 141 149 150
f 142 150 151
f 137 146 138
f 138 147 139
f 139 148 140
f 140 149 141
f 141 150 142
f 142 151 143
f 143 151 152
f 143 152 144
usemtl APPID_341702192_2040474581744 
o vid_21 
f 155 154 153
f 156 157 158
f 153 158 157
f 153 157 155
f 155 157 156
f 156 154 155
f 154 156 158
f 158 153 154
usemtl APPID_341701296_2040474581616 
o vid_22 
f 159 166 167
f 160 167 168
f 161 168 169
f 162 169 170
f 163 170 171
f 159 167 160
f 160 168 161
f 161 169 162
f 162 170 163
f 163 171 164
f 164 171 172
f 164 172 165
usemtl APPID_341702192_2040474581744 
o vid_23 
f 175 174 173
f 176 177 178
f 173 178 177
f 173 177 175
f 175 177 176
f 176 174 175
f 174 176 178
f 178 173 174
usemtl APPID_341701296_2040474581616 
o vid_24 
f 179 187 188
f 180 188 189
f 181 189 190
f 182 190 191
f 183 191 192
f 184 192 193
f 179 188 180
f 180 189 181
f 181 190 182
f 182 191 183
f 183 192 184
f 184 193 185
f 185 193 194
f 185 194 186
usemtl APPID_341702192_2040474581744 
o vid_25 
f 197 196 195
f 198 199 200
f 195 200 199
f 195 199 197
f 197 199 198
f 198 196 197
f 196 198 200
f 200 195 196
usemtl APPID_341701296_2040474581616 
o vid_26 
f 201 209 210
f 202 210 211
f 203 211 212
f 204 212 213
f 205 213 214
f 206 214 215
f 201 210 202
f 202 211 203
f 203 212 204
f 204 213 205
f 205 214 206
f 206 215 207
f 207 215 216
f 207 216 208
usemtl APPID_341702192_2040474581744 
o vid_27 
f 219 218 217
f 220 221 222
f 217 222 221
f 217 221 219
f 219 221 220
f 220 218 219
f 218 220 222
f 222 217 218
usemtl APPID_341701296_2040474581616 
o vid_28 
f 223 228 229
f 224 229 230
f 225 230 231
f 223 229 224
f 224 230 225
f 225 231 226
f 226 231 232
f 226 232 227
usemtl APPID_341702192_2040474581744 
o vid_29 
f 235 234 233
f 236 237 238
f 233 238 237
f 233 237 235
f 235 237 236
f 236 234 235
f 234 236 238
f 238 233 234
usemtl APPID_341701296_2040474581616 
o vid_30 
f 239 244 245
f 240 245 246
f 241 246 247
f 239 245 240
f 240 246 241
f 241 247 242
f 242 247 248
f 242 248 243
usemtl APPID_341702192_2040474581744 
o vid_31 
f 251 250 249
f 252 253 254
f 249 254 253
f 249 253 251
f 251 253 252
f 252 250 251
f 250 252 254
f 254 249 250
usemtl APPID_341701296_2040474581616 
o vid_32 
f 255 263 264
f 256 264 265
f 257 265 266
f 258 266 267
f 259 267 268
f 260 268 269
f 255 264 256
f 256 265 257
f 257 266 258
f 258 267 259
f 259 268 260
f 260 269 261
f 261 269 270
usemtl APPID_341702192_2040474581744 
o vid_33 
f 273 272 271
f 274 275 276
f 271 276 275
f 271 275 273
f 273 275 274
f 274 272 273
f 272 274 276
f 276 271 272
usemtl APPID_341701296_2040474581616 
o vid_34 
f 277 284 285
f 278 285 286
f 279 286 287
f 280 287 288
f 281 288 289
f 277 285 278
f 278 286 279
f 279 287 280
f 280 288 281
f 281 289 282
f 282 289 290
usemtl APPID_341702192_2040474581744 
o vid_35 
f 293 292 291
f 294 295 296
f 291 296 295
f 291 295 293
f 293 295 294
f 294 292 293
f 292 294 296
f 296 291 292
usemtl APPID_341701296_2040474581616 
o vid_36 
f 297 303 304
f 298 304 305
f 299 305 306
f 300 306 307
f 297 304 298
f 298 305 299
f 299 306 300
f 300 307 301
f 301 307 308
usemtl APPID_341692672_2040474585840 
o vid_10000004 
f 309 318 319
f 310 319 320
f 311 320 321
f 312 321 322
f 313 322 323
f 314 323 324
f 315 324 325
f 309 319 310
f 310 320 311
f 311 321 312
f 312 322 313
f 313 323 314
f 314 324 315
f 315 325 316
f 316 325 326
usemtl APPID_341692672_2040474585840 
o vid_10000006 
f 327 334 335
f 328 335 336
f 329 336 337
f 330 337 338
f 331 338 339
f 327 335 328
f 328 336 329
f 329 337 330
f 330 338 331
f 331 339 332
f 332 339 340
usemtl APPID_341692672_2040474585840 
o vid_10000008 
f 341 347 348
f 342 348 349
f 343 349 350
f 344 350 351
f 341 348 342
f 342 349 343
f 343 350 344
f 344 351 345
f 345 351 352
usemtl APPID_341692672_2040474585840 
o vid_10000010 
f 353 357 358
f 354 358 359
f 353 358 354
f 354 359 355
f 355 359 360
usemtl APPID_341692672_2040474585840 
o vid_10000012 
f 361 365 366
f 362 366 367
f 361 366 362
f 362 367 363
f 363 367 368
usemtl APPID_341692672_2040474585840 
o vid_10000014 
f 369 372 373
f 369 373 370
f 370 373 374
usemtl APPID_341692672_2040474585840 
o vid_10000016 
f 375 377 378
f 375 378 376
f 375 377 378
usemtl APPID_341692672_2040474585840 
o vid_10000018 
f 379 381 382
f 379 382 380
f 379 381 382
usemtl APPID_341692672_2040474585840 
o vid_10000020 
f 383 385 386
f 383 386 384
f 383 385 386
usemtl APPID_341692672_2040474585840 
o vid_10000022 
f 387 389 390
f 387 390 388
f 387 389 390
usemtl APPID_341692672_2040474585840 
o vid_10000024 
f 391 393 394
f 391 394 392
f 391 393 394
usemtl APPID_341692672_2040474585840 
o vid_10000026 
f 395 397 398
f 395 398 396
f 395 397 398
usemtl APPID_341692672_2040474585840 
o vid_10000028 
f 399 401 402
f 399 402 400
f 399 401 402
usemtl APPID_341692672_2040474585840 
o vid_10000030 
f 403 405 406
f 403 406 404
f 403 405 406
