# File generated by PlantGL - Fri Sep  4 14:43:03 2026
v    18.201987 59.124129 0.000000
v    21.657533 58.880811 0.000000
v    20.140480 61.995060 0.000000
v    21.798013 60.875871 0.231332
v    18.342467 61.119189 0.231332
v    19.859520 58.004940 0.231332
v    21.024882 60.874477 -2.173690
v    22.137336 61.041166 -1.152738
v    21.320338 60.267956 -2.173690
v    22.137336 61.041166 -1.152738
v    21.503548 61.204422 0.231332
v    18.205166 60.699900 0.231332
v    20.291286 58.095678 0.231332
v    18.496452 58.795578 0.322458
v    21.794834 59.300100 0.322458
v    19.708714 61.904322 0.322458
v    19.310573 58.891972 -2.082564
v    17.962467 58.367828 -0.769777
v    18.768212 59.569032 -2.082564
v    17.962467 58.367828 -0.769777
v    18.272844 59.328938 0.322458
v    21.444735 58.839770 0.322458
v    20.282421 61.831292 0.322458
v    21.727156 60.671062 0.466406
v    18.555265 61.160230 0.466406
v    19.717579 58.168708 0.466406
v    20.860394 60.981040 -1.938616
v    22.866285 61.113654 -0.114065
v    21.297045 59.857203 -1.938616
v    22.866285 61.113654 -0.114065
v    21.731622 60.409625 0.466406
v    18.779443 61.294816 0.466406
v    19.488935 58.295559 0.466406
v    18.268378 59.590375 0.678771
v    21.220557 58.705184 0.678771
v    20.511065 61.704441 0.678771
v    19.141772 58.920196 -1.726251
v    16.303953 59.125679 0.856139
v    18.748938 60.580839 -1.726251
v    16.303953 59.125679 0.856139
v    18.876148 58.716648 0.678771
v    21.673341 59.668392 0.678771
v    19.450510 61.614960 0.678771
v    21.123852 61.283352 0.919581
v    18.326659 60.331608 0.919581
v    20.549490 58.385040 0.919581
v    19.495138 61.784943 -1.485441
v    23.926072 64.483272 3.223161
v    21.835949 59.735057 -1.485441
v    23.926072 64.483272 3.223161
v    21.375838 60.878433 0.919581
v    18.551335 60.752294 0.919581
v    20.072827 58.369272 0.919581
v    18.624162 59.121567 1.432331
v    21.448665 59.247706 1.432331
v    19.927173 61.630728 1.432331
v    20.056184 58.171389 -0.972691
v    14.996902 56.805665 3.783551
v    18.364822 60.820469 -0.972691
v    14.996902 56.805665 3.783551
v    18.735263 59.088754 1.432331
v    21.421531 59.360328 1.432331
v    19.843206 61.550918 1.432331
v    21.264737 60.911246 2.225064
v    18.578469 60.639672 2.225064
v    20.156794 58.449082 2.225064
v    19.424067 62.275919 -0.179958
v    21.880751 63.539065 2.418900
v    26.489715 65.065331 6.825464
v    27.626980 65.495257 7.564960
v    21.976572 58.733245 -0.179958
v    23.952423 60.663750 2.418900
v    26.859162 64.552567 6.825464
v    27.626980 65.495257 7.564960
v    21.237778 60.806124 2.225064
v    18.682987 60.668886 2.225064
v    20.079235 58.524991 2.225064
v    18.762222 59.193876 3.119461
v    21.317013 59.331114 3.119461
v    19.920765 61.475009 3.119461
v    20.620374 57.615463 0.714439
v    17.168978 56.041642 4.283160
v    13.522378 55.021820 7.719861
v    11.193609 54.264691 9.209268
v    18.069937 61.531581 0.714439
v    15.234947 59.011287 4.283160
v    12.827717 56.088451 7.719861
v    11.193609 54.264691 9.209268
v    18.965100 59.426005 3.119461
v    21.014544 59.390748 3.119461
v    20.020355 61.183247 3.119461
v    21.034900 60.573995 4.391396
v    18.985456 60.609252 4.391396
v    19.979645 58.816753 4.391396
v    19.136646 62.562240 1.986374
v    19.748929 62.815105 2.612480
v    24.856791 64.720016 7.741249
v    26.206662 64.996220 8.991796
v    31.280382 66.256534 12.171565
v    21.716447 57.910919 1.986374
v    22.255156 58.296438 2.612480
v    26.575691 61.620880 7.741249
v    27.524745 62.619747 8.991796
v    31.280382 66.256534 12.171565
v    20.882014 60.234621 4.391396
v    19.355805 60.646536 4.391396
v    19.762181 59.118843 4.391396
v    19.117986 59.765379 6.209762
v    20.644195 59.353464 6.209762
v    20.237819 60.881157 6.209762
v    20.515820 57.216631 3.804740
v    18.451630 56.914701 5.776459
v    13.133832 56.324418 10.810162
v    6.199548 56.328995 15.030377
v    19.064715 62.671788 3.804740
v    17.123326 61.908210 5.776459
v    12.215078 59.778302 10.810162
v    6.199548 56.328995 15.030377
v    19.385881 59.745073 6.209762
v    20.527833 59.595621 6.209762
v    20.086286 60.659306 6.209762
v    20.614119 60.254927 8.825335
v    19.472167 60.404379 8.825335
v    19.913714 59.340694 8.825335
v    18.842274 62.708801 6.420313
v    21.882796 63.578902 9.409401
v    26.025385 64.610364 13.425735
v    27.354114 64.971325 14.285884
v    34.113777 65.858775 18.432593
v    21.100959 57.267635 6.420313
v    23.863835 58.806584 9.409401
v    27.519070 61.012080 13.425735
v    28.712813 61.698223 14.285884
v    34.113777 65.858775 18.432593
v    20.339882 60.279663 8.825335
v    19.587864 60.154515 8.825335
v    20.072254 59.565822 8.825335
v    19.660118 59.720337 10.367000
v    20.412136 59.845485 10.367000
v    19.927746 60.434178 10.367000
v    21.909071 58.287939 5.461788
v    18.459142 56.437459 11.309543
v    16.658209 55.889830 13.957366
v    13.487063 54.641003 17.238597
v    18.687633 62.203042 5.461788
v    16.207408 59.174054 11.309543
v    15.323208 57.512294 13.957366
v    13.487063 54.641003 17.238597
mtllib usm_24_2.5D_2018-08-10_1.mtl
usemtl APPID_2744336496_2060026114032 
o vid_3 
f 3 2 1
f 4 5 6
f 1 6 5
f 1 5 3
f 3 5 4
f 4 2 3
f 2 4 6
f 6 1 2
usemtl APPID_2744340640_2060026107760 
o vid_4 
f 7 9 10
f 7 10 8
f 7 9 10
usemtl APPID_2744336496_2060026114032 
o vid_5 
f 13 12 11
f 14 15 16
f 11 16 15
f 11 15 13
f 13 15 14
f 14 12 13
f 12 14 16
f 16 11 12
usemtl APPID_2744340640_2060026107760 
o vid_6 
f 17 19 20
f 17 20 18
f 17 19 20
usemtl APPID_2744336496_2060026114032 
o vid_7 
f 23 22 21
f 24 25 26
f 21 26 25
f 21 25 23
f 23 25 24
f 24 22 23
f 22 24 26
f 26 21 22
usemtl APPID_2744340640_2060026107760 
o vid_8 
f 27 29 30
f 27 30 28
f 27 29 30
usemtl APPID_2744336496_2060026114032 
o vid_9 
f 33 32 31
f 34 35 36
f 31 36 35
f 31 35 33
f 33 35 34
f 34 32 33
f 32 34 36
f 36 31 32
usemtl APPID_2744340640_2060026107760 
o vid_10 
f 37 39 40
f 37 40 38
f 37 39 40
usemtl APPID_2744336496_2060026114032 
o vid_11 
f 43 42 41
f 44 45 46
f 41 46 45
f 41 45 43
f 43 45 44
f 44 42 43
f 42 44 46
f 46 41 42
usemtl APPID_2744340640_2060026107760 
o vid_12 
f 47 49 50
f 47 50 48
f 47 49 50
usemtl APPID_2744336496_2060026114032 
o vid_13 
f 53 52 51
f 54 55 56
f 51 56 55
f 51 55 53
f 53 55 54
f 54 52 53
f 52 54 56
f 56 51 52
usemtl APPID_2744340640_2060026107760 
o vid_14 
f 57 59 60
f 57 60 58
f 57 59 60
usemtl APPID_2744336496_2060026114032 
o vid_15 
f 63 62 61
f 64 65 66
f 61 66 65
f 61 65 63
f 63 65 64
f 64 62 63
f 62 64 66
f 66 61 62
usemtl APPID_2744340640_2060026107760 
o vid_16 
f 67 71 72
f 68 72 73
f 67 72 68
f 68 73 69
f 69 73 74
usemtl APPID_2744336496_2060026114032 
o vid_17 
f 77 76 75
f 78 79 80
f 75 80 79
f 75 79 77
f 77 79 78
f 78 76 77
f 76 78 80
f 80 75 76
usemtl APPID_2744340640_2060026107760 
o vid_18 
f 81 85 86
f 82 86 87
f 81 86 82
f 82 87 83
f 83 87 88
usemtl APPID_2744336496_2060026114032 
o vid_19 
f 91 90 89
f 92 93 94
f 89 94 93
f 89 93 91
f 91 93 92
f 92 90 91
f 90 92 94
f 94 89 90
usemtl APPID_2744340640_2060026107760 
o vid_20 
f 95 100 101
f 96 101 102
f 97 102 103
f 95 101 96
f 96 102 97
f 97 103 98
f 98 103 104
usemtl APPID_2744336496_2060026114032 
o vid_21 
f 107 106 105
f 108 109 110
f 105 110 109
f 105 109 107
f 107 109 108
f 108 106 107
f 106 108 110
f 110 105 106
usemtl APPID_2744340640_2060026107760 
o vid_22 
f 111 115 116
f 112 116 117
f 111 116 112
f 112 117 113
f 113 117 118
usemtl APPID_2744336496_2060026114032 
o vid_23 
f 121 120 119
f 122 123 124
f 119 124 123
f 119 123 121
f 121 123 122
f 122 120 121
f 120 122 124
f 124 119 120
usemtl APPID_2744340640_2060026107760 
o vid_24 
f 125 130 131
f 126 131 132
f 127 132 133
f 125 131 126
f 126 132 127
f 127 133 128
f 128 133 134
usemtl APPID_2744336496_2060026114032 
o vid_25 
f 137 136 135
f 138 139 140
f 135 140 139
f 135 139 137
f 137 139 138
f 138 136 137
f 136 138 140
f 140 135 136
usemtl APPID_2744340640_2060026107760 
o vid_26 
f 141 145 146
f 142 146 147
f 141 146 142
f 142 147 143
f 143 147 148
