# File generated by PlantGL - Fri Sep  4 14:44:08 2026
v    18.201987 59.124129 0.000000
v    21.657533 58.880811 0.000000
v    20.140480 61.995060 0.000000
v    21.798013 60.875871 0.331061
v    18.342467 61.119189 0.331061
v    19.859520 58.004940 0.331061
v    21.395942 61.444229 -0.058081
v    22.514257 61.869024 1.075425
v    23.830912 62.357484 1.955736
v    24.088296 62.456538 2.025325
v    25.195032 62.849588 2.320906
v    26.022308 63.036801 2.530028
v    26.420952 63.127856 2.445502
v    21.997699 60.208925 -0.058081
v    23.021546 60.827647 1.075425
v    24.217785 61.563300 1.955736
v    24.454440 61.704909 2.025325
v    25.446152 62.334081 2.320906
v    26.103520 62.870087 2.530028
v    26.420952 63.127856 2.445502
v    21.503548 61.204422 0.331061
v    18.205166 60.699900 0.331061
v    20.291286 58.095678 0.331061
v    18.496452 58.795578 0.718770
v    21.794834 59.300100 0.718770
v    19.708714 61.904322 0.718770
v    19.265540 58.085270 0.178873
v    17.881905 57.168636 1.751500
v    16.981264 56.555083 2.435869
v    16.263310 56.087754 2.972846
v    14.934013 55.198755 3.376362
v    13.612895 54.364337 3.769619
v    11.973709 53.570513 3.392763
v    17.971130 59.701155 0.178873
v    16.774604 58.550943 1.751500
v    15.979269 57.805929 2.435869
v    15.366507 57.207283 2.972846
v    14.208810 56.104067 3.376362
v    13.106162 54.996920 3.769619
v    11.973709 53.570513 3.392763
v    18.272844 59.328938 0.718770
v    21.444735 58.839770 0.718770
v    20.282421 61.831292 0.718770
v    21.727156 60.671062 1.487000
v    18.555265 61.160230 1.487000
v    19.717579 58.168708 1.487000
v    21.010829 61.930793 0.755896
v    23.170629 62.552560 2.885478
v    24.977460 63.098095 4.070745
v    25.697539 63.299106 4.539370
v    28.228892 64.039801 5.204884
v    29.817057 64.459794 5.618324
v    32.718509 64.941597 5.007296
v    22.049245 59.258155 0.755896
v    24.062272 60.257681 2.885478
v    25.763452 61.075134 4.070745
v    26.430353 61.413015 4.539370
v    28.797761 62.575664 5.204884
v    30.252877 63.338095 5.618324
v    32.718509 64.941597 5.007296
v    21.610028 60.380861 1.487000
v    18.865150 61.203894 1.487000
v    19.524822 58.415244 1.487000
v    18.389972 59.619139 2.857581
v    21.134850 58.796106 2.857581
v    20.475178 61.584756 2.857581
v    19.107193 57.801384 1.891276
v    16.166536 57.380971 4.705959
v    13.200825 56.917790 6.590980
v    8.701164 56.260500 7.918226
v    7.124252 56.069982 8.317980
v    5.794165 55.907933 8.035349
v    2.654423 55.896803 7.386330
v    18.216751 61.565580 1.891276
v    15.399402 60.623903 4.705959
v    12.540492 59.709236 6.590980
v    8.223242 58.280835 7.918226
v    6.728102 57.744641 8.317980
v    5.466381 57.293583 8.035349
v    2.654423 55.896803 7.386330
v    19.130666 59.007288 2.857581
v    21.294380 59.743491 2.857581
v    19.574953 61.249221 2.857581
v    20.869334 60.992712 4.464214
v    18.705620 60.256509 4.464214
v    20.425047 58.750779 4.464214
v    18.598746 62.501813 3.217646
v    20.028671 63.865029 5.089633
v    21.372669 65.145710 6.848687
v    24.583243 68.285186 9.668652
v    26.262824 69.960097 10.268017
v    29.806566 73.366487 11.508322
v    33.364720 76.655564 10.485642
v    36.273688 78.744710 9.745326
v    36.618547 78.977100 9.507833
v    22.664823 58.941085 3.217646
v    23.827457 60.538372 5.089633
v    24.919615 62.039593 6.848687
v    27.608042 65.636322 9.668652
v    29.046707 67.522207 10.268017
v    31.955756 71.484407 11.508322
v    34.746617 75.445415 10.485642
v    36.433690 78.604593 9.745326
v    36.618547 78.977100 9.507833
v    20.849278 60.542240 4.464214
v    19.105767 60.464377 4.464214
v    20.044954 58.993384 4.464214
v    19.150722 59.457760 10.752587
v    20.894233 59.535623 10.752587
v    19.955046 61.006616 10.752587
v    21.461689 56.681890 9.183005
v    17.469681 54.612799 13.443521
v    12.191439 51.796367 17.305614
v    7.217621 49.074809 18.738266
v    4.114873 47.450382 19.621984
v    0.543478 45.577089 18.769156
v    -3.745313 43.467265 17.760980
v    -5.382123 42.889210 17.402156
v    -8.223266 41.980250 15.698562
v    17.605079 62.722268 9.183005
v    14.048223 59.971625 13.443521
v    9.272156 56.368667 17.305614
v    4.710258 53.001943 18.738266
v    1.930989 50.870870 19.621984
v    -1.271250 48.419390 18.769156
v    -4.989947 45.416662 17.760980
v    -6.203118 44.175086 17.402156
v    -8.223266 41.980250 15.698562
v    19.416917 59.579888 10.752587
v    20.655369 59.705092 10.752587
v    19.927713 60.715021 10.752587
v    20.583083 60.420112 19.150795
v    19.344631 60.294908 19.150795
v    20.072287 59.284979 19.150795
v    17.484333 63.766470 17.221856
v    19.700053 65.212789 19.736585
v    21.454679 66.251045 21.668441
v    24.772177 68.253600 24.497294
v    28.453588 70.495500 27.204145
v    37.391020 76.059043 29.864314
v    45.365379 80.829798 28.242108
v    49.162085 82.970018 27.322791
v    53.194919 84.703735 24.791174
v    55.255845 85.401919 22.912958
v    22.776454 56.421427 17.221856
v    24.849780 58.065376 19.736585
v    26.390070 59.401115 21.668441
v    29.339796 61.914109 24.497294
v    32.631753 64.696539 27.204145
v    40.738329 71.413243 29.864314
v    47.788026 77.467356 28.242108
v    51.020030 80.391338 27.322791
v    53.941181 83.667983 24.791174
v    55.255845 85.401919 22.912958
v    20.379334 60.247048 19.150795
v    19.596383 60.204989 19.150795
v    20.024283 59.547963 19.150795
v    19.620666 59.752952 21.477000
v    20.403617 59.795011 21.477000
v    19.975717 60.452037 21.477000
v    21.482579 56.975540 16.837061
v    18.880599 56.255260 26.270043
v    15.556811 55.071927 33.113441
v    14.474352 54.955527 35.049347
v    10.682051 53.931530 38.835732
v    17.833291 62.578909 16.837061
v    16.122413 60.490368 26.270043
v    13.696164 57.928893 33.113441
v    13.152014 56.985937 35.049347
v    10.682051 53.931530 38.835732
mtllib usm_11_2.5D_2018-08-16_1.mtl
usemtl APPID_2962642896_1982942887392 
o vid_3 
f 3 2 1
f 4 5 6
f 1 6 5
f 1 5 3
f 3 5 4
f 4 2 3
f 2 4 6
f 6 1 2
usemtl APPID_2962649168_1982942890080 
o vid_4 
f 7 14 15
f 8 15 16
f 9 16 17
f 10 17 18
f 11 18 19
f 7 15 8
f 8 16 9
f 9 17 10
f 10 18 11
f 11 19 12
f 12 19 20
usemtl APPID_2962642896_1982942887392 
o vid_5 
f 23 22 21
f 24 25 26
f 21 26 25
f 21 25 23
f 23 25 24
f 24 22 23
f 22 24 26
f 26 21 22
usemtl APPID_2962649168_1982942890080 
o vid_6 
f 27 34 35
f 28 35 36
f 29 36 37
f 30 37 38
f 31 38 39
f 27 35 28
f 28 36 29
f 29 37 30
f 30 38 31
f 31 39 32
f 32 39 40
usemtl APPID_2962642896_1982942887392 
o vid_7 
f 43 42 41
f 44 45 46
f 41 46 45
f 41 45 43
f 43 45 44
f 44 42 43
f 42 44 46
f 46 41 42
usemtl APPID_2962649168_1982942890080 
o vid_8 
f 47 54 55
f 48 55 56
f 49 56 57
f 50 57 58
f 51 58 59
f 47 55 48
f 48 56 49
f 49 57 50
f 50 58 51
f 51 59 52
f 52 59 60
usemtl APPID_2962642896_1982942887392 
o vid_9 
f 63 62 61
f 64 65 66
f 61 66 65
f 61 65 63
f 63 65 64
f 64 62 63
f 62 64 66
f 66 61 62
usemtl APPID_2962649168_1982942890080 
o vid_10 
f 67 74 75
f 68 75 76
f 69 76 77
f 70 77 78
f 71 78 79
f 67 75 68
f 68 76 69
f 69 77 70
f 70 78 71
f 71 79 72
f 72 79 80
usemtl APPID_2962642896_1982942887392 
o vid_11 
f 83 82 81
f 84 85 86
f 81 86 85
f 81 85 83
f 83 85 84
f 84 82 83
f 82 84 86
f 86 81 82
usemtl APPID_2962649168_1982942890080 
o vid_12 
f 87 96 97
f 88 97 98
f 89 98 99
f 90 99 100
f 91 100 101
f 92 101 102
f 93 102 103
f 87 97 88
f 88 98 89
f 89 99 90
f 90 100 91
f 91 101 92
f 92 102 93
f 93 103 94
f 94 103 104
usemtl APPID_2962642896_1982942887392 
o vid_13 
f 107 106 105
f 108 109 110
f 105 110 109
f 105 109 107
f 107 109 108
f 108 106 107
f 106 108 110
f 110 105 106
usemtl APPID_2962649168_1982942890080 
o vid_14 
f 111 120 121
f 112 121 122
f 113 122 123
f 114 123 124
f 115 124 125
f 116 125 126
f 117 126 127
f 111 121 112
f 112 122 113
f 113 123 114
f 114 124 115
f 115 125 116
f 116 126 117
f 117 127 118
f 118 127 128
usemtl APPID_2962642896_1982942887392 
o vid_15 
f 131 130 129
f 132 133 134
f 129 134 133
f 129 133 131
f 131 133 132
f 132 130 131
f 130 132 134
f 134 129 130
usemtl APPID_2962649168_1982942890080 
o vid_16 
f 135 145 146
f 136 146 147
f 137 147 148
f 138 148 149
f 139 149 150
f 140 150 151
f 141 151 152
f 142 152 153
f 135 146 136
f 136 147 137
f 137 148 138
f 138 149 139
f 139 150 140
f 140 151 141
f 141 152 142
f 142 153 143
f 143 153 154
usemtl APPID_2962642896_1982942887392 
o vid_17 
f 157 156 155
f 158 159 160
f 155 160 159
f 155 159 157
f 157 159 158
f 158 156 157
f 156 158 160
f 160 155 156
usemtl APPID_2962649168_1982942890080 
o vid_18 
f 161 166 167
f 162 167 168
f 163 168 169
f 161 167 162
f 162 168 163
f 163 169 164
f 164 169 170
