# File generated by PlantGL - Fri Sep  4 14:44:27 2026
v    17.752484 418.905161 0.000000
v    22.071916 418.601013 0.000000
v    20.175600 422.493825 0.000000
v    22.247516 421.094839 0.848509
v    17.928084 421.398987 0.848509
v    19.824400 417.506175 0.848509
v    22.074151 421.428408 0.712486
v    22.462129 421.576327 1.098328
v    22.403306 420.752709 0.712486
v    22.758939 420.967026 1.098328
v    21.879284 421.505407 0.848509
v    17.756638 420.874804 0.848509
v    20.364078 417.619789 0.848509
v    18.120716 418.494593 1.417165
v    22.243362 419.125196 1.417165
v    19.635922 422.380211 1.417165
v    18.474463 418.075510 1.221241
v    18.175273 417.876772 1.555011
v    17.788945 418.931281 1.221241
v    17.529697 418.682680 1.555011
v    17.841416 419.161313 1.417165
v    21.805616 418.549955 1.417165
v    20.352968 422.288732 1.417165
v    22.158584 420.838687 2.253766
v    18.194384 421.450045 2.253766
v    19.647032 417.711268 2.253766
v    21.884467 421.489362 1.977387
v    22.277259 421.602962 2.357347
v    22.395677 420.173628 1.977387
v    22.762129 420.355021 2.357347
v    22.163962 420.511898 2.253766
v    18.474702 421.618097 2.253766
v    19.361335 417.870005 2.253766
v    17.836038 419.488102 4.112548
v    21.525298 418.381903 4.112548
v    20.638665 422.129995 4.112548
v    18.092464 418.523291 3.730721
v    17.052862 418.373360 4.706766
v    17.633012 420.465546 3.730721
v    16.636419 420.133803 4.706766
v    18.595695 418.396392 4.112548
v    22.090917 419.585640 4.112548
v    19.313387 422.017967 4.112548
v    21.404305 421.603608 5.999272
v    17.909083 420.414360 5.999272
v    20.686613 417.982033 5.999272
v    20.322641 422.501493 5.482651
v    20.689427 422.851859 5.954001
v    22.437055 420.649867 5.482651
v    22.735965 421.059674 5.954001
v    21.718982 421.097521 5.999272
v    18.190028 420.939922 5.999272
v    20.090990 417.962557 5.999272
v    18.281018 418.902479 11.505015
v    21.809972 419.060078 11.505015
v    19.909010 422.037443 11.505015
v    19.264432 417.453626 10.820438
v    17.482886 416.528005 12.686052
v    17.315422 416.444459 12.859680
v    17.293233 416.433046 12.876476
v    17.380527 420.404275 10.820438
v    15.791155 419.177662 12.686052
v    15.644896 419.060905 12.859680
v    15.625205 419.045579 12.876476
v    18.420020 418.861621 11.505015
v    21.775855 419.200887 11.505015
v    19.804125 421.937492 11.505015
v    21.579980 421.138379 19.658889
v    18.224145 420.799113 19.658889
v    20.195875 418.062508 19.658889
v    20.075274 423.117586 18.770471
v    22.524833 424.570317 21.416921
v    24.550688 425.800445 23.014273
v    22.981096 419.084535 18.770471
v    25.134527 420.948270 21.416921
v    26.942678 422.480553 23.014273
v    21.554633 421.012481 19.658889
v    18.345849 420.840111 19.658889
v    20.099518 418.147408 19.658889
v    18.445367 418.987519 30.873903
v    21.654151 419.159889 30.873903
v    19.900482 421.852592 30.873903
v    20.202866 416.437610 29.744739
v    17.006060 414.739811 33.108328
v    14.979483 413.636319 34.663522
v    12.537661 412.352330 36.520550
v    9.495031 410.705379 37.629523
v    16.823848 421.625988 29.744739
v    13.978410 419.388674 33.108328
v    12.149708 417.981352 34.663522
v    9.988018 416.267227 36.520550
v    7.251427 414.150363 37.629523
v    18.458123 419.144816 30.873903
v    21.511550 419.092287 30.873903
v    20.030327 421.762897 30.873903
v    21.541877 420.855184 48.397355
v    18.488450 420.907713 48.397355
v    19.969673 418.237103 48.397355
v    19.472744 424.377553 46.991824
v    23.591638 426.203827 51.178667
v    28.872663 428.611456 55.090326
v    40.667058 433.946579 59.415471
v    23.434367 417.234843 46.991824
v    27.164543 419.761965 51.178667
v    32.003230 422.967119 55.090326
v    42.774131 430.147578 59.415471
v    21.614895 420.429572 48.397355
v    18.820532 421.183754 48.397355
v    19.564573 418.386674 48.397355
v    18.385105 419.570428 69.758548
v    21.179468 418.816246 69.758548
v    20.435427 421.613326 69.758548
v    19.793134 414.756161 68.045109
v    14.380618 413.821517 73.149157
v    6.967466 412.462291 78.228644
v    -9.013782 409.574907 83.485625
v    -12.406968 408.947883 83.446197
v    -13.595887 408.774388 83.432518
v    17.215046 424.447996 68.045109
v    12.053501 422.569875 73.149157
v    4.944782 420.066194 78.228644
v    -10.358892 414.631596 83.485625
v    -13.615153 413.489826 83.446197
v    -14.733139 413.049671 83.432518
v    18.541706 419.394647 69.758548
v    21.253398 419.039757 69.758548
v    20.204896 421.565597 69.758548
v    21.458294 420.605353 89.607729
v    18.746602 420.960243 89.607729
v    19.795104 418.434403 89.607729
v    19.234428 425.579227 87.562032
v    25.490677 427.544783 93.655820
v    27.501402 428.199571 95.081021
v    34.251771 430.289914 99.837714
v    48.741583 434.968684 104.718306
v    52.597959 436.046940 105.996659
v    53.525619 436.312069 105.985675
v    23.410631 415.518764 87.562032
v    29.219674 418.561636 93.655820
v    31.103007 419.523312 95.081021
v    37.349284 422.828012 99.837714
v    50.892885 429.786203 104.718306
v    54.379186 431.755968 105.996659
v    55.221897 432.225738 105.985675
v    21.148136 420.944713 89.607729
v    18.607786 420.521958 89.607729
v    20.244078 418.533328 89.607729
v    18.851864 419.055287 113.503741
v    21.392214 419.478042 113.503741
v    19.755922 421.466672 113.503741
v    22.903646 414.401559 111.111757
v    16.629051 410.113950 118.173699
v    7.680965 404.054299 125.465414
v    -4.532272 395.565942 130.232804
v    -10.960923 391.466389 132.666918
v    -11.780287 390.937238 132.655814
v    15.065533 423.927435 111.111757
v    9.649828 418.595993 118.173699
v    1.980395 410.982361 125.465414
v    -8.701083 400.632414 130.232804
v    -13.961921 395.113584 132.666918
v    -14.638959 394.411461 132.655814
v    19.036323 418.991726 113.503741
v    21.355030 419.669568 113.503741
v    19.608648 421.338706 113.503741
v    20.963677 421.008274 130.408186
v    18.644970 420.330432 130.408186
v    20.391352 418.661294 130.408186
v    15.862020 425.612009 127.669013
v    20.766363 429.904397 133.725355
v    22.496511 431.369208 135.828551
v    31.783294 439.430016 144.106064
v    42.386059 448.859163 148.654106
v    51.342306 456.208813 152.352847
v    51.494711 456.335351 152.350591
v    25.793342 416.119960 127.669013
v    29.859625 421.213340 133.725355
v    31.244721 423.007940 135.828551
v    38.877449 432.649643 144.106064
v    47.817623 443.667843 148.654106
v    54.754864 452.947197 152.352847
v    54.874382 453.105167 152.350591
v    20.912312 420.929805 130.408186
v    18.738610 420.325183 130.408186
v    20.349079 418.745013 130.408186
v    19.087688 419.070195 146.719517
v    21.261390 419.674817 146.719517
v    19.650921 421.254987 146.719517
v    24.875870 413.700171 143.647488
v    17.696859 407.581352 152.412939
v    6.843197 398.414020 162.081916
v    -7.273984 386.187259 168.068156
v    -15.258655 379.808294 171.330821
v    -17.922100 377.655295 171.291830
v    -19.175437 376.891734 171.275524
v    13.608711 424.755352 143.647488
v    7.627330 417.461435 152.412939
v    -1.332230 406.435636 162.081916
v    -13.288689 392.088805 168.068156
v    -19.514869 383.984433 171.330821
v    -21.616899 381.280581 171.291830
v    -22.356520 380.012970 171.275524
v    19.188946 419.101354 146.719517
v    21.183778 419.746930 146.719517
v    19.627277 421.151717 146.719517
v    20.811054 420.898646 158.181033
v    18.816222 420.253070 158.181033
v    20.372723 418.848283 158.181033
v    14.317491 426.432665 154.806797
v    20.756794 432.401873 162.966019
v    33.426464 444.016037 175.054689
v    46.862415 456.670484 180.970762
v    56.890710 465.391072 185.213444
v    61.590735 468.783912 185.148489
v    26.979717 415.004640 154.806797
v    32.259598 422.020260 162.966019
v    42.518156 435.810521 175.054689
v    53.733240 450.469365 180.970762
v    61.383313 461.336369 185.213444
v    64.278062 466.358522 185.148489
v    21.068015 420.207914 158.181033
v    19.285934 420.820971 158.181033
v    19.646051 418.971115 158.181033
v    18.931985 419.792086 164.602048
v    20.714066 419.179029 164.602048
v    20.353949 421.028885 164.602048
v    20.815662 411.480907 160.972355
v    9.211950 410.437107 171.784604
v    -7.003176 408.824866 182.753183
v    -17.196671 407.687316 186.040819
v    -33.086234 406.550153 191.126481
v    -40.414087 407.044722 193.409237
v    17.560333 428.202943 160.972355
v    6.412452 424.817623 171.784604
v    -9.223322 420.229355 182.753183
v    -19.099139 417.459952 186.040819
v    -34.254909 412.553428 191.126481
v    -40.862099 409.346082 193.409237
v    19.353504 419.466661 164.602048
v    20.785133 419.706787 164.602048
v    19.861363 420.826551 164.602048
v    20.646496 420.533339 168.440627
v    19.214867 420.293213 168.440627
v    20.138637 419.173449 168.440627
v    15.032184 426.907042 164.616706
v    25.272945 433.679741 176.007527
v    39.474244 443.324972 187.563042
v    43.071273 445.831775 188.968378
v    57.210026 454.873493 194.326178
v    68.614819 460.105674 198.226141
v    25.836893 413.809919 164.616706
v    34.432597 422.576703 176.007527
v    46.601251 434.685841 187.563042
v    49.746046 437.740828 188.968378
v    61.310300 449.903270 194.326178
v    68.614819 460.105674 198.226141
v    20.493310 420.370442 168.440627
v    19.432533 420.241998 168.440627
v    20.074157 419.387560 168.440627
v    19.506690 419.629558 171.309825
v    20.567467 419.758002 171.309825
v    19.925843 420.612440 171.309825
v    25.113427 412.635306 167.364413
v    14.239202 406.137263 179.117134
v    -0.852482 396.865137 191.039782
v    -6.770724 393.130216 193.282947
v    -21.769504 384.477180 198.810971
v    -33.770902 379.621789 202.834839
v    14.353358 426.964287 167.364413
v    5.080722 418.333437 179.117134
v    -8.032023 406.425998 191.039782
v    -13.269133 401.784025 193.282947
v    -25.761439 389.793165 198.810971
v    -33.770902 379.621789 202.834839
v    19.652292 419.756465 171.309825
v    20.384762 419.820644 171.309825
v    19.962946 420.422891 171.309825
v    20.347708 420.243535 172.803360
v    19.615238 420.179356 172.803360
v    20.037054 419.577109 172.803360
v    15.348107 426.882353 168.816600
v    26.547577 433.081256 180.692491
v    40.469177 441.012179 191.477379
v    55.678075 449.089751 197.635820
v    67.960977 453.592002 201.701860
v    24.878017 413.276024 168.816600
v    34.531323 421.682464 180.692491
v    46.742703 432.055153 191.477379
v    59.531866 443.587501 197.635820
v    67.960977 453.592002 201.701860
v    20.212384 420.151520 172.803360
v    19.762588 420.108170 172.803360
v    20.025028 419.740310 172.803360
v    19.787616 419.848480 173.258000
v    20.237412 419.891830 173.258000
v    19.974972 420.259690 173.258000
v    22.718956 414.431888 165.496993
v    18.898448 412.567181 173.521749
v    15.267991 411.137749 180.766615
v    9.814763 408.650427 188.706445
v    2.611558 407.054697 197.869912
v    1.229598 406.608747 198.921416
v    15.619692 424.382864 165.496993
v    12.613262 421.377071 173.521749
v    10.080262 418.409344 180.766615
v    5.953809 414.062293 188.706445
v    2.100972 407.770380 197.869912
v    1.229598 406.608747 198.921416
v    22.462129 421.576327 1.098328
v    22.774214 421.698815 1.329598
v    23.051065 421.803065 1.528727
v    24.180316 422.243880 1.917291
v    24.768496 422.450363 1.931902
v    25.099857 422.519461 1.928141
v    25.224206 422.544882 1.905659
v    22.758939 420.967026 1.098328
v    23.047765 421.137262 1.329598
v    23.300511 421.290995 1.528727
v    24.343713 421.908454 1.917291
v    24.868870 422.244313 1.931902
v    25.127537 422.462638 1.928141
v    25.224206 422.544882 1.905659
v    18.175273 417.876772 1.555011
v    17.951303 417.728000 1.804865
v    17.503511 417.423790 2.169717
v    17.221576 417.238180 2.396928
v    15.696795 416.207841 2.986792
v    14.925749 415.723761 2.976427
v    14.581997 415.567081 2.972230
v    14.316817 415.447468 2.920698
v    17.529697 418.682680 1.555011
v    17.335629 418.496581 1.804865
v    16.941018 418.125982 2.169717
v    16.698348 417.891355 2.396928
v    15.360052 416.628217 2.986792
v    14.719354 415.981415 2.976427
v    14.491425 415.680148 2.972230
v    14.316817 415.447468 2.920698
v    22.277259 421.602962 2.357347
v    22.653474 421.711768 2.721273
v    23.929396 422.074007 3.635862
v    25.479703 422.535714 4.154356
v    26.431519 422.778510 4.467951
v    27.608283 422.956091 4.454643
v    22.762129 420.355021 2.357347
v    23.113116 420.528759 2.721273
v    24.298903 421.122982 3.635862
v    25.754255 421.829082 4.154356
v    26.620314 422.292595 4.467951
v    27.608283 422.956091 4.454643
v    17.052862 418.373360 4.706766
v    15.183928 418.108634 6.021961
v    12.643856 417.721742 6.845528
v    11.629066 417.608161 7.171520
v    10.946619 417.527807 7.163697
v    9.634818 417.548056 7.149120
v    16.636419 420.133803 4.706766
v    14.846959 419.533115 6.021961
v    12.402757 418.740948 6.845528
v    11.444632 418.387825 7.171520
v    10.798513 418.153899 7.163697
v    9.634818 417.548056 7.149120
v    20.689427 422.851859 5.954001
v    21.520176 423.645419 7.021579
v    22.174401 424.283510 7.637500
v    23.193831 425.249320 8.582757
v    26.266555 428.231400 9.955240
v    26.693193 428.613773 10.138140
v    28.010849 429.808431 10.117891
v    29.355546 430.735988 10.099741
v    29.470583 430.814675 10.075053
v    22.735965 421.059674 5.954001
v    23.412978 421.987862 7.021579
v    23.959172 422.720557 7.637500
v    24.782036 423.858504 8.582757
v    27.332630 427.297821 9.955240
v    27.655370 427.771179 10.138140
v    28.665732 429.234939 10.117891
v    29.407762 430.690262 10.099741
v    29.470583 430.814675 10.075053
v    17.293233 416.433046 12.876476
v    14.582420 415.038737 14.928406
v    11.013185 413.148244 16.223035
v    8.848773 412.109633 16.989453
v    8.278951 411.832163 16.982237
v    6.046525 411.091104 16.956102
v    15.625205 419.045579 12.876476
v    13.219618 417.173213 14.928406
v    10.002685 414.730931 16.223035
v    8.149700 413.204548 16.989453
v    7.658207 412.804399 16.982237
v    6.046525 411.091104 16.956102
v    24.550688 425.800445 23.014273
v    25.942837 426.619652 24.101634
v    33.086282 430.932986 26.776381
v    36.682285 432.942154 26.729483
v    38.283888 433.575609 26.710347
v    39.503924 434.052623 26.478299
v    26.942678 422.480553 23.014273
v    28.160441 423.541793 24.101634
v    34.513214 428.952516 26.776381
v    37.557374 431.727601 26.729483
v    38.665240 433.046324 26.710347
v    39.503924 434.052623 26.478299
v    9.495031 410.705379 37.629523
v    3.993846 407.727633 39.634586
v    3.191054 407.333442 39.920104
v    -0.624725 405.432531 39.871570
v    -3.638888 404.401640 39.836176
v    -4.286595 404.182949 39.715078
v    7.251427 414.150363 37.629523
v    2.303572 410.322997 39.634586
v    1.618435 409.748150 39.920104
v    -1.663051 407.026848 39.871570
v    -3.824680 404.686918 39.836176
v    -4.286595 404.182949 39.715078
v    40.667058 433.946579 59.415471
v    41.355325 434.258297 59.657655
v    43.513927 435.246031 59.630531
v    49.499450 437.715622 59.556815
v    53.071616 438.647177 58.957110
v    54.080462 438.902337 58.647608
v    42.774131 430.147578 59.415471
v    43.402997 430.566393 59.657655
v    45.383869 431.874570 59.630531
v    50.648145 435.644553 59.556815
v    53.329830 438.181623 58.957110
v    54.080462 438.902337 58.647608
v    -13.595887 408.774388 83.432518
v    -20.049283 407.832665 83.358270
v    -24.145354 407.776012 82.631612
v    -25.962768 407.773621 82.091072
v    -14.733139 413.049671 83.432518
v    -20.801511 410.660526 83.358270
v    -24.384367 408.674536 82.631612
v    -25.962768 407.773621 82.091072
v    53.525619 436.312069 105.985675
v    57.617926 437.481667 105.937220
v    64.572425 438.502476 105.859123
v    55.221897 432.225738 105.985675
v    58.939459 434.298098 105.937220
v    64.572425 438.502476 105.859123
v    -11.780287 390.937238 132.655814
v    -13.494676 389.830074 132.632580
v    -20.927963 386.323519 132.541263
v    -14.638959 394.411461 132.655814
v    -16.055553 392.942379 132.632580
v    -20.927963 386.323519 132.541263
v    51.494711 456.335351 152.350591
v    59.667164 461.502879 152.243065
v    54.874382 453.105167 152.350591
v    59.667164 461.502879 152.243065
v    -19.175437 376.891734 171.275524
v    -26.936482 372.163532 171.174552
v    -22.356520 380.012970 171.275524
v    -26.936482 372.163532 171.174552
v    61.590735 468.783912 185.148489
v    67.729256 472.883909 185.066472
v    64.278062 466.358522 185.148489
v    67.729256 472.883909 185.066472
v    -40.414087 407.044722 193.409237
v    -41.286600 407.103609 193.681041
v    -45.145964 407.317842 193.638095
v    -40.862099 409.346082 193.409237
v    -41.648804 408.964190 193.681041
v    -45.145964 407.317842 193.638095
mtllib usm_10_2.5D_2018-08-26_10.mtl
usemtl APPID_3007511632_1759648329824 
o vid_3 
f 3 2 1
f 4 5 6
f 1 6 5
f 1 5 3
f 3 5 4
f 4 2 3
f 2 4 6
f 6 1 2
usemtl APPID_3007508384_1759648327136 
o vid_4 
f 7 9 10
f 7 10 8
f 7 9 10
f 7 10 8
usemtl APPID_3007511632_1759648329824 
o vid_5 
f 13 12 11
f 14 15 16
f 11 16 15
f 11 15 13
f 13 15 14
f 14 12 13
f 12 14 16
f 16 11 12
usemtl APPID_3007508384_1759648327136 
o vid_6 
f 17 19 20
f 17 20 18
f 17 19 20
f 17 20 18
usemtl APPID_3007511632_1759648329824 
o vid_7 
f 23 22 21
f 24 25 26
f 21 26 25
f 21 25 23
f 23 25 24
f 24 22 23
f 22 24 26
f 26 21 22
usemtl APPID_3007508384_1759648327136 
o vid_8 
f 27 29 30
f 27 30 28
f 27 29 30
f 27 30 28
usemtl APPID_3007511632_1759648329824 
o vid_9 
f 33 32 31
f 34 35 36
f 31 36 35
f 31 35 33
f 33 35 34
f 34 32 33
f 32 34 36
f 36 31 32
usemtl APPID_3007508384_1759648327136 
o vid_10 
f 37 39 40
f 37 40 38
f 37 39 40
f 37 40 38
usemtl APPID_3007511632_1759648329824 
o vid_11 
f 43 42 41
f 44 45 46
f 41 46 45
f 41 45 43
f 43 45 44
f 44 42 43
f 42 44 46
f 46 41 42
usemtl APPID_3007508384_1759648327136 
o vid_12 
f 47 49 50
f 47 50 48
f 47 49 50
f 47 50 48
usemtl APPID_3007511632_1759648329824 
o vid_13 
f 53 52 51
f 54 55 56
f 51 56 55
f 51 55 53
f 53 55 54
f 54 52 53
f 52 54 56
f 56 51 52
usemtl APPID_3007508384_1759648327136 
o vid_14 
f 57 61 62
f 58 62 63
f 57 62 58
f 58 63 59
f 59 63 64
f 59 64 60
usemtl APPID_3007511632_1759648329824 
o vid_15 
f 67 66 65
f 68 69 70
f 65 70 69
f 65 69 67
f 67 69 68
f 68 66 67
f 66 68 70
f 70 65 66
usemtl APPID_3007508384_1759648327136 
o vid_16 
f 71 74 75
f 71 75 72
f 72 75 76
f 72 76 73
usemtl APPID_3007511632_1759648329824 
o vid_17 
f 79 78 77
f 80 81 82
f 77 82 81
f 77 81 79
f 79 81 80
f 80 78 79
f 78 80 82
f 82 77 78
usemtl APPID_3007508384_1759648327136 
o vid_18 
f 83 88 89
f 84 89 90
f 85 90 91
f 83 89 84
f 84 90 85
f 85 91 86
f 86 91 92
f 86 92 87
usemtl APPID_3007511632_1759648329824 
o vid_19 
f 95 94 93
f 96 97 98
f 93 98 97
f 93 97 95
f 95 97 96
f 96 94 95
f 94 96 98
f 98 93 94
usemtl APPID_3007508384_1759648327136 
o vid_20 
f 99 103 104
f 100 104 105
f 99 104 100
f 100 105 101
f 101 105 106
f 101 106 102
usemtl APPID_3007511632_1759648329824 
o vid_21 
f 109 108 107
f 110 111 112
f 107 112 111
f 107 111 109
f 109 111 110
f 110 108 109
f 108 110 112
f 112 107 108
usemtl APPID_3007508384_1759648327136 
o vid_22 
f 113 119 120
f 114 120 121
f 115 121 122
f 116 122 123
f 113 120 114
f 114 121 115
f 115 122 116
f 116 123 117
f 117 123 124
f 117 124 118
usemtl APPID_3007511632_1759648329824 
o vid_23 
f 127 126 125
f 128 129 130
f 125 130 129
f 125 129 127
f 127 129 128
f 128 126 127
f 126 128 130
f 130 125 126
usemtl APPID_3007508384_1759648327136 
o vid_24 
f 131 138 139
f 132 139 140
f 133 140 141
f 134 141 142
f 135 142 143
f 131 139 132
f 132 140 133
f 133 141 134
f 134 142 135
f 135 143 136
f 136 143 144
f 136 144 137
usemtl APPID_3007511632_1759648329824 
o vid_25 
f 147 146 145
f 148 149 150
f 145 150 149
f 145 149 147
f 147 149 148
f 148 146 147
f 146 148 150
f 150 145 146
usemtl APPID_3007508384_1759648327136 
o vid_26 
f 151 157 158
f 152 158 159
f 153 159 160
f 154 160 161
f 151 158 152
f 152 159 153
f 153 160 154
f 154 161 155
f 155 161 162
f 155 162 156
usemtl APPID_3007511632_1759648329824 
o vid_27 
f 165 164 163
f 166 167 168
f 163 168 167
f 163 167 165
f 165 167 166
f 166 164 165
f 164 166 168
f 168 163 164
usemtl APPID_3007508384_1759648327136 
o vid_28 
f 169 176 177
f 170 177 178
f 171 178 179
f 172 179 180
f 173 180 181
f 169 177 170
f 170 178 171
f 171 179 172
f 172 180 173
f 173 181 174
f 174 181 182
f 174 182 175
usemtl APPID_3007511632_1759648329824 
o vid_29 
f 185 184 183
f 186 187 188
f 183 188 187
f 183 187 185
f 185 187 186
f 186 184 185
f 184 186 188
f 188 183 184
usemtl APPID_3007508384_1759648327136 
o vid_30 
f 189 196 197
f 190 197 198
f 191 198 199
f 192 199 200
f 193 200 201
f 189 197 190
f 190 198 191
f 191 199 192
f 192 200 193
f 193 201 194
f 194 201 202
f 194 202 195
usemtl APPID_3007511632_1759648329824 
o vid_31 
f 205 204 203
f 206 207 208
f 203 208 207
f 203 207 205
f 205 207 206
f 206 204 205
f 204 206 208
f 208 203 204
usemtl APPID_3007508384_1759648327136 
o vid_32 
f 209 215 216
f 210 216 217
f 211 217 218
f 212 218 219
f 209 216 210
f 210 217 211
f 211 218 212
f 212 219 213
f 213 219 220
f 213 220 214
usemtl APPID_3007511632_1759648329824 
o vid_33 
f 223 222 221
f 224 225 226
f 221 226 225
f 221 225 223
f 223 225 224
f 224 222 223
f 222 224 226
f 226 221 222
usemtl APPID_3007508384_1759648327136 
o vid_34 
f 227 233 234
f 228 234 235
f 229 235 236
f 230 236 237
f 227 234 228
f 228 235 229
f 229 236 230
f 230 237 231
f 231 237 238
f 231 238 232
usemtl APPID_3007511632_1759648329824 
o vid_35 
f 241 240 239
f 242 243 244
f 239 244 243
f 239 243 241
f 241 243 242
f 242 240 241
f 240 242 244
f 244 239 240
usemtl APPID_3007508384_1759648327136 
o vid_36 
f 245 251 252
f 246 252 253
f 247 253 254
f 248 254 255
f 245 252 246
f 246 253 247
f 247 254 248
f 248 255 249
f 249 255 256
usemtl APPID_3007511632_1759648329824 
o vid_37 
f 259 258 257
f 260 261 262
f 257 262 261
f 257 261 259
f 259 261 260
f 260 258 259
f 258 260 262
f 262 257 258
usemtl APPID_3007508384_1759648327136 
o vid_38 
f 263 269 270
f 264 270 271
f 265 271 272
f 266 272 273
f 263 270 264
f 264 271 265
f 265 272 266
f 266 273 267
f 267 273 274
usemtl APPID_3007511632_1759648329824 
o vid_39 
f 277 276 275
f 278 279 280
f 275 280 279
f 275 279 277
f 277 279 278
f 278 276 277
f 276 278 280
f 280 275 276
usemtl APPID_3007508384_1759648327136 
o vid_40 
f 281 286 287
f 282 287 288
f 283 288 289
f 281 287 282
f 282 288 283
f 283 289 284
f 284 289 290
usemtl APPID_3007511632_1759648329824 
o vid_41 
f 293 292 291
f 294 295 296
f 291 296 295
f 291 295 293
f 293 295 294
f 294 292 293
f 292 294 296
f 296 291 292
usemtl APPID_3007508384_1759648327136 
o vid_42 
f 297 303 304
f 298 304 305
f 299 305 306
f 300 306 307
f 297 304 298
f 298 305 299
f 299 306 300
f 300 307 301
f 301 307 308
usemtl APPID_3007509280_1759648323040 
o vid_10000004 
f 309 316 317
f 310 317 318
f 311 318 319
f 312 319 320
f 313 320 321
f 309 317 310
f 310 318 311
f 311 319 312
f 312 320 313
f 313 321 314
f 314 321 322
usemtl APPID_3007509280_1759648323040 
o vid_10000006 
f 323 331 332
f 324 332 333
f 325 333 334
f 326 334 335
f 327 335 336
f 328 336 337
f 323 332 324
f 324 333 325
f 325 334 326
f 326 335 327
f 327 336 328
f 328 337 329
f 329 337 338
usemtl APPID_3007509280_1759648323040 
o vid_10000008 
f 339 345 346
f 340 346 347
f 341 347 348
f 342 348 349
f 339 346 340
f 340 347 341
f 341 348 342
f 342 349 343
f 343 349 350
usemtl APPID_3007509280_1759648323040 
o vid_10000010 
f 351 357 358
f 352 358 359
f 353 359 360
f 354 360 361
f 351 358 352
f 352 359 353
f 353 360 354
f 354 361 355
f 355 361 362
usemtl APPID_3007509280_1759648323040 
o vid_10000012 
f 363 372 373
f 364 373 374
f 365 374 375
f 366 375 376
f 367 376 377
f 368 377 378
f 369 378 379
f 363 373 364
f 364 374 365
f 365 375 366
f 366 376 367
f 367 377 368
f 368 378 369
f 369 379 370
f 370 379 380
usemtl APPID_3007509280_1759648323040 
o vid_10000014 
f 381 387 388
f 382 388 389
f 383 389 390
f 384 390 391
f 381 388 382
f 382 389 383
f 383 390 384
f 384 391 385
f 385 391 392
usemtl APPID_3007509280_1759648323040 
o vid_10000016 
f 393 399 400
f 394 400 401
f 395 401 402
f 396 402 403
f 393 400 394
f 394 401 395
f 395 402 396
f 396 403 397
f 397 403 404
usemtl APPID_3007509280_1759648323040 
o vid_10000018 
f 405 411 412
f 406 412 413
f 407 413 414
f 408 414 415
f 405 412 406
f 406 413 407
f 407 414 408
f 408 415 409
f 409 415 416
usemtl APPID_3007509280_1759648323040 
o vid_10000020 
f 417 423 424
f 418 424 425
f 419 425 426
f 420 426 427
f 417 424 418
f 418 425 419
f 419 426 420
f 420 427 421
f 421 427 428
usemtl APPID_3007509280_1759648323040 
o vid_10000022 
f 429 433 434
f 430 434 435
f 429 434 430
f 430 435 431
f 431 435 436
usemtl APPID_3007509280_1759648323040 
o vid_10000024 
f 437 440 441
f 437 441 438
f 438 441 442
usemtl APPID_3007509280_1759648323040 
o vid_10000026 
f 443 446 447
f 443 447 444
f 444 447 448
usemtl APPID_3007509280_1759648323040 
o vid_10000028 
f 449 451 452
f 449 452 450
f 449 451 452
usemtl APPID_3007509280_1759648323040 
o vid_10000030 
f 453 455 456
f 453 456 454
f 453 455 456
usemtl APPID_3007509280_1759648323040 
o vid_10000032 
f 457 459 460
f 457 460 458
f 457 459 460
usemtl APPID_3007509280_1759648323040 
o vid_10000034 
f 461 464 465
f 461 465 462
f 462 465 466
