# File generated by PlantGL - Fri Sep  4 14:43:08 2026
v    138.201987 19.124129 0.000000
v    141.657533 18.880811 0.000000
v    140.140480 21.995060 0.000000
v    141.798013 20.875871 0.331061
v    138.342467 21.119189 0.331061
v    139.859520 18.004940 0.331061
v    141.382963 21.452807 -0.085431
v    142.235815 21.776765 0.779005
v    142.583846 21.899311 1.127740
v    143.810978 22.354128 1.948078
v    144.970165 22.762462 2.330150
v    146.278792 23.058605 2.660950
v    141.996453 20.193417 -0.085431
v    142.777261 20.665268 0.779005
v    143.088291 20.863772 1.127740
v    144.202855 21.549672 1.948078
v    145.238934 22.210725 2.330150
v    146.278792 23.058605 2.660950
v    141.503548 21.204422 0.331061
v    138.205166 20.699900 0.331061
v    140.291286 18.095678 0.331061
v    138.496452 18.795578 0.718770
v    141.794834 19.300100 0.718770
v    139.708714 21.904322 0.718770
v    139.284579 18.077173 0.145004
v    137.814145 17.103036 1.816286
v    137.356610 16.791345 2.163953
v    136.086034 15.964305 3.114250
v    135.249451 15.404821 3.368200
v    133.785363 14.480102 3.804015
v    133.210520 14.206216 3.961007
v    132.108342 13.678361 3.708395
v    137.967383 19.721502 0.145004
v    136.695796 18.499134 1.816286
v    136.291758 18.120659 2.163953
v    135.207343 17.061226 3.114250
v    134.478754 16.366925 3.368200
v    133.256779 15.139963 3.804015
v    132.864032 14.638758 3.961007
v    132.108342 13.678361 3.708395
v    138.272844 19.328938 0.718770
v    141.444735 18.839770 0.718770
v    140.282421 21.831292 0.718770
v    141.727156 20.671062 1.487000
v    138.555265 21.160230 1.487000
v    139.717579 18.168708 1.487000
v    140.991235 21.948649 0.715108
v    143.271528 22.605103 2.963498
v    144.482466 22.970721 3.757864
v    145.944975 23.378981 4.709659
v    147.816774 23.926686 5.201771
v    150.068973 24.522283 5.788077
v    152.549817 24.876054 5.381723
v    142.046846 19.231755 0.715108
v    144.172178 20.287044 2.963498
v    145.312309 20.834901 3.757864
v    146.666809 21.521149 4.709659
v    148.417381 22.380866 5.201771
v    150.480900 23.462079 5.788077
v    152.549817 24.876054 5.381723
v    141.731622 20.409625 1.487000
v    138.779443 21.294816 1.487000
v    139.488935 18.295559 1.487000
v    138.268378 19.590375 2.857581
v    141.220557 18.705184 2.857581
v    140.511065 21.704441 2.857581
v    139.005751 17.747463 1.843500
v    135.919704 17.306264 4.797346
v    133.657566 16.952967 6.235172
v    132.303862 16.770584 7.091382
v    129.057052 16.291948 7.919498
v    126.420204 15.973372 8.587951
v    122.720051 15.912328 7.820747
v    138.101902 21.568335 1.843500
v    135.145259 20.580101 4.797346
v    132.964585 19.882426 6.235172
v    131.672641 19.438966 7.091382
v    128.555500 18.412172 7.919498
v    126.055388 17.515570 8.587951
v    122.720051 15.912328 7.820747
v    138.876148 18.716648 2.857581
v    141.673341 19.668392 2.857581
v    139.450510 21.614960 2.857581
v    141.123852 21.283352 4.464214
v    138.326659 20.331608 4.464214
v    140.549490 18.385040 4.464214
v    138.815942 22.804201 3.163197
v    139.646509 23.596021 4.250535
v    141.711195 25.563436 6.952838
v    145.062004 28.840041 9.895977
v    145.950158 29.725727 10.212918
v    150.431460 34.033338 11.781368
v    153.354958 36.705308 11.009619
v    156.788543 39.171222 10.135791
v    142.935911 19.196279 3.163197
v    143.611223 20.124058 4.250535
v    145.289024 22.430274 6.952838
v    148.094879 26.184104 9.895977
v    148.855639 27.181352 10.212918
v    152.534329 32.191822 11.781368
v    154.797214 35.442301 11.009619
v    156.788543 39.171222 10.135791
v    141.180972 20.754017 4.464214
v    138.756517 20.645743 4.464214
v    140.062512 18.600240 4.464214
v    138.819028 19.245983 10.752587
v    141.243483 19.354257 10.752587
v    139.937488 21.399760 10.752587
v    141.164221 16.448982 9.122588
v    138.022714 14.820713 12.475396
v    136.715342 14.143491 13.870500
v    131.536986 11.375633 17.557858
v    127.696964 9.274462 18.663933
v    123.134545 6.885832 19.963392
v    120.777469 5.649483 19.400536
v    116.323592 3.458445 18.353553
v    113.151293 2.338118 17.658116
v    111.519653 1.816111 16.679759
v    137.268620 22.550431 9.122588
v    134.469556 20.385815 12.475396
v    133.305057 19.484818 13.870500
v    128.615086 15.952032 17.557858
v    125.093086 13.352761 18.663933
v    121.006325 10.219137 19.963392
v    118.892888 8.601191 19.400536
v    115.031048 5.482880 18.353553
v    112.679804 3.076583 17.658116
v    111.519653 1.816111 16.679759
v    139.112009 19.360200 10.752587
v    140.998079 19.550877 10.752587
v    139.889913 21.088923 10.752587
v    140.887991 20.639800 22.165711
v    139.001921 20.449123 22.165711
v    140.110087 18.911077 22.165711
v    137.659751 24.133548 20.171430
v    139.377254 25.375847 22.188112
v    142.502552 27.415896 25.735164
v    147.683785 30.568716 29.626788
v    158.748370 37.440642 33.434997
v    161.672303 39.263251 32.705375
v    167.691864 42.865026 31.221955
v    169.922406 44.199660 30.672275
v    174.083810 46.468723 27.997153
v    179.324650 48.333503 23.173786
v    143.180184 16.471627 20.171430
v    144.902272 17.707562 22.188112
v    147.826722 20.026370 25.735164
v    152.457525 23.943144 29.626788
v    162.478549 32.263450 33.434997
v    165.132999 34.460079 32.705375
v    170.455041 39.029956 31.221955
v    172.427118 40.723319 30.672275
v    175.896784 43.952460 27.997153
v    179.324650 48.333503 23.173786
v    140.679392 20.442465 22.165711
v    139.277118 20.367138 22.165711
v    140.043490 19.190397 22.165711
v    139.320608 19.557535 39.904430
v    140.722882 19.632862 39.904430
v    139.956510 20.809603 39.904430
v    142.935560 15.269809 37.521675
v    140.598440 13.896618 40.097887
v    136.528463 11.740233 44.462237
v    134.241549 10.490550 46.098864
v    128.995842 7.625445 49.852466
v    118.296776 1.644898 52.949653
v    108.185518 -3.774350 51.294310
v    102.700085 -6.534696 49.999025
v    97.573365 -8.362955 46.871803
v    95.563759 -8.939844 45.067135
v    136.860731 24.597522 37.521675
v    134.659793 23.015227 40.097887
v    131.041865 20.164735 44.462237
v    128.974189 18.578419 46.098864
v    124.232657 14.939168 49.852466
v    114.436672 7.571970 52.949653
v    105.391731 0.515424 51.294310
v    100.649080 -3.385441 49.999025
v    96.903965 -7.335112 46.871803
v    95.563759 -8.939844 45.067135
v    139.518987 19.733212 39.904430
v    140.471552 19.716825 39.904430
v    140.009461 20.549964 39.904430
v    140.481013 20.266788 54.063000
v    139.528448 20.283175 54.063000
v    139.990539 19.450036 54.063000
v    137.098515 23.815411 48.421271
v    142.566731 26.142245 55.748579
v    143.943047 26.682698 57.565640
v    152.011372 30.077128 64.800892
v    159.385293 33.094123 68.117744
v    167.314900 35.254141 71.301873
v    167.708109 35.367985 71.270836
v    141.700359 15.518398 48.421271
v    146.569622 18.925129 55.748579
v    147.756844 19.806513 57.565640
v    154.908502 24.853671 64.800892
v    161.372295 29.511606 68.117744
v    167.403333 35.094700 71.301873
v    167.708109 35.367985 71.270836
mtllib usm_39_2.5D_2018-08-24_3.mtl
usemtl APPID_2856265360_2442503432672 
o vid_3 
f 3 2 1
f 4 5 6
f 1 6 5
f 1 5 3
f 3 5 4
f 4 2 3
f 2 4 6
f 6 1 2
usemtl APPID_2856262336_2442503433440 
o vid_4 
f 7 13 14
f 8 14 15
f 9 15 16
f 10 16 17
f 7 14 8
f 8 15 9
f 9 16 10
f 10 17 11
f 11 17 18
usemtl APPID_2856265360_2442503432672 
o vid_5 
f 21 20 19
f 22 23 24
f 19 24 23
f 19 23 21
f 21 23 22
f 22 20 21
f 20 22 24
f 24 19 20
usemtl APPID_2856262336_2442503433440 
o vid_6 
f 25 33 34
f 26 34 35
f 27 35 36
f 28 36 37
f 29 37 38
f 30 38 39
f 25 34 26
f 26 35 27
f 27 36 28
f 28 37 29
f 29 38 30
f 30 39 31
f 31 39 40
usemtl APPID_2856265360_2442503432672 
o vid_7 
f 43 42 41
f 44 45 46
f 41 46 45
f 41 45 43
f 43 45 44
f 44 42 43
f 42 44 46
f 46 41 42
usemtl APPID_2856262336_2442503433440 
o vid_8 
f 47 54 55
f 48 55 56
f 49 56 57
f 50 57 58
f 51 58 59
f 47 55 48
f 48 56 49
f 49 57 50
f 50 58 51
f 51 59 52
f 52 59 60
usemtl APPID_2856265360_2442503432672 
o vid_9 
f 63 62 61
f 64 65 66
f 61 66 65
f 61 65 63
f 63 65 64
f 64 62 63
f 62 64 66
f 66 61 62
usemtl APPID_2856262336_2442503433440 
o vid_10 
f 67 74 75
f 68 75 76
f 69 76 77
f 70 77 78
f 71 78 79
f 67 75 68
f 68 76 69
f 69 77 70
f 70 78 71
f 71 79 72
f 72 79 80
usemtl APPID_2856265360_2442503432672 
o vid_11 
f 83 82 81
f 84 85 86
f 81 86 85
f 81 85 83
f 83 85 84
f 84 82 83
f 82 84 86
f 86 81 82
usemtl APPID_2856262336_2442503433440 
o vid_12 
f 87 95 96
f 88 96 97
f 89 97 98
f 90 98 99
f 91 99 100
f 92 100 101
f 87 96 88
f 88 97 89
f 89 98 90
f 90 99 91
f 91 100 92
f 92 101 93
f 93 101 102
usemtl APPID_2856265360_2442503432672 
o vid_13 
f 105 104 103
f 106 107 108
f 103 108 107
f 103 107 105
f 105 107 106
f 106 104 105
f 104 106 108
f 108 103 104
usemtl APPID_2856262336_2442503433440 
o vid_14 
f 109 119 120
f 110 120 121
f 111 121 122
f 112 122 123
f 113 123 124
f 114 124 125
f 115 125 126
f 116 126 127
f 109 120 110
f 110 121 111
f 111 122 112
f 112 123 113
f 113 124 114
f 114 125 115
f 115 126 116
f 116 127 117
f 117 127 128
usemtl APPID_2856265360_2442503432672 
o vid_15 
f 131 130 129
f 132 133 134
f 129 134 133
f 129 133 131
f 131 133 132
f 132 130 131
f 130 132 134
f 134 129 130
usemtl APPID_2856262336_2442503433440 
o vid_16 
f 135 145 146
f 136 146 147
f 137 147 148
f 138 148 149
f 139 149 150
f 140 150 151
f 141 151 152
f 142 152 153
f 135 146 136
f 136 147 137
f 137 148 138
f 138 149 139
f 139 150 140
f 140 151 141
f 141 152 142
f 142 153 143
f 143 153 154
usemtl APPID_2856265360_2442503432672 
o vid_17 
f 157 156 155
f 158 159 160
f 155 160 159
f 155 159 157
f 157 159 158
f 158 156 157
f 156 158 160
f 160 155 156
usemtl APPID_2856262336_2442503433440 
o vid_18 
f 161 171 172
f 162 172 173
f 163 173 174
f 164 174 175
f 165 175 176
f 166 176 177
f 167 177 178
f 168 178 179
f 161 172 162
f 162 173 163
f 163 174 164
f 164 175 165
f 165 176 166
f 166 177 167
f 167 178 168
f 168 179 169
f 169 179 180
usemtl APPID_2856265360_2442503432672 
o vid_19 
f 183 182 181
f 184 185 186
f 181 186 185
f 181 185 183
f 183 185 184
f 184 182 183
f 182 184 186
f 186 181 182
usemtl APPID_2856262336_2442503433440 
o vid_20 
f 187 194 195
f 188 195 196
f 189 196 197
f 190 197 198
f 191 198 199
f 187 195 188
f 188 196 189
f 189 197 190
f 190 198 191
f 191 199 192
f 192 199 200
