# File generated by PlantGL - Fri Sep  4 14:43:36 2026
v    18.201987 19.124129 0.000000
v    21.657533 18.880811 0.000000
v    20.140480 21.995060 0.000000
v    21.798013 20.875871 0.331061
v    18.342467 21.119189 0.331061
v    19.859520 18.004940 0.331061
v    21.389631 21.448589 -0.071093
v    22.393545 21.829929 0.946456
v    23.907969 22.388382 2.010061
v    25.092175 22.810147 2.326466
v    26.188328 23.058207 2.603556
v    26.357119 23.096761 2.567767
v    21.997242 20.201268 -0.071093
v    22.916351 20.756696 0.946456
v    24.289614 21.604929 2.010061
v    25.351692 22.277403 2.326466
v    26.222714 22.987618 2.603556
v    26.357119 23.096761 2.567767
v    21.503548 21.204422 0.331061
v    18.205166 20.699900 0.331061
v    20.291286 18.095678 0.331061
v    18.496452 18.795578 0.718770
v    21.794834 19.300100 0.718770
v    19.708714 21.904322 0.718770
v    19.274516 18.081312 0.163208
v    17.850736 17.138082 1.781465
v    17.152118 16.662156 2.312322
v    16.181535 16.030387 3.038247
v    15.076759 15.291542 3.373608
v    13.659123 14.396163 3.795596
v    12.032802 13.617850 3.537883
v    17.969227 19.710779 0.163208
v    16.737984 18.527194 1.781465
v    16.121052 17.949295 2.312322
v    15.292675 17.140001 3.038247
v    14.330515 16.223121 3.373608
v    13.147310 15.035088 3.795596
v    12.032802 13.617850 3.537883
v    18.272844 19.328938 0.718770
v    21.444735 18.839770 0.718770
v    20.282421 21.831292 0.718770
v    21.727156 20.671062 1.487000
v    18.555265 21.160230 1.487000
v    19.717579 18.168708 1.487000
v    21.001942 21.939106 0.737665
v    23.215599 22.576377 2.920351
v    24.760497 23.042827 3.933792
v    25.807970 23.335230 4.615484
v    28.049596 23.991149 5.204826
v    30.033714 24.515852 5.721343
v    32.648061 24.914225 5.173525
v    22.048302 19.246023 0.737665
v    24.111525 20.270473 2.920351
v    25.566089 20.969422 3.933792
v    26.536205 21.460925 4.615484
v    28.632651 22.490502 5.204826
v    30.450548 23.443018 5.721343
v    32.648061 24.914225 5.173525
v    21.731622 20.409625 1.487000
v    18.779443 21.294816 1.487000
v    19.488935 18.295559 1.487000
v    18.268378 19.590375 2.857581
v    21.220557 18.705184 2.857581
v    20.511065 21.704441 2.857581
v    18.994328 17.761460 1.870792
v    15.991335 17.332135 4.745141
v    13.322367 16.915299 6.441551
v    12.475106 16.801149 6.977439
v    8.778762 16.256244 7.920211
v    6.753078 16.011507 8.433731
v    5.813819 15.897074 8.234147
v    2.607521 15.885709 7.571370
v    18.097960 21.550704 1.870792
v    15.220889 20.589066 4.745141
v    12.648036 19.765918 6.441551
v    11.839429 19.488364 6.977439
v    8.290709 18.319407 7.920211
v    6.370067 17.630618 8.433731
v    5.479087 17.312097 8.234147
v    2.607521 15.885709 7.571370
v    18.927353 18.775120 2.857581
v    21.597101 19.683500 2.857581
v    19.475546 21.541380 2.857581
v    21.072647 21.224880 4.464214
v    18.402899 20.316500 4.464214
v    20.524454 18.458620 4.464214
v    18.786777 22.738835 3.195461
v    19.973302 23.870007 4.748801
v    21.610136 25.429726 6.891124
v    24.877849 28.625076 9.761276
v    26.236020 29.979472 10.245945
v    30.201012 33.790785 11.633687
v    33.461344 36.790712 10.698818
v    36.809781 39.195474 9.846660
v    22.874964 19.158745 3.195461
v    23.839697 20.484144 4.748801
v    25.169817 22.312457 6.891124
v    27.906091 25.973197 9.761276
v    29.069448 27.498194 10.245945
v    32.324301 31.931387 11.633687
v    34.867834 35.559026 10.698818
v    36.809781 39.195474 9.846660
v    21.098178 20.701155 4.464214
v    18.843692 20.600472 4.464214
v    20.058129 18.698372 4.464214
v    18.901822 19.298845 10.752587
v    21.156308 19.399528 10.752587
v    19.941871 21.301628 10.752587
v    21.225920 16.514835 9.159886
v    17.558741 14.614106 13.073723
v    11.819064 11.557437 17.402139
v    7.278282 9.072826 18.710060
v    3.617806 7.156404 19.752629
v    0.510244 5.526404 19.010561
v    -3.841719 3.385502 17.987536
v    -6.065187 2.600263 17.500103
v    -8.444320 1.839114 16.073538
v    17.354321 22.578690 9.159886
v    14.086887 20.051866 13.073723
v    8.898711 16.131413 17.402139
v    4.733986 13.057806 18.710060
v    1.455136 10.543666 19.752629
v    -1.331214 8.410571 19.010561
v    -5.104687 5.363614 17.987536
v    -6.752677 3.677037 17.500103
v    -8.444320 1.839114 16.073538
v    19.188116 19.415036 10.752587
v    20.912536 19.589370 10.752587
v    19.899348 20.995594 10.752587
v    20.811884 20.584964 22.165711
v    19.087464 20.410630 22.165711
v    20.100652 19.004406 22.165711
v    17.652970 24.003378 20.213638
v    20.086222 25.763390 23.070747
v    22.578802 27.390429 25.899697
v    28.566327 31.073283 30.315647
v    38.245144 37.098410 33.196494
v    42.173156 39.546904 32.216320
v    45.906566 41.780772 31.296283
v    49.398657 43.870248 30.435716
v    53.223451 45.980630 27.873736
v    58.748246 48.093174 22.711592
v    59.073026 48.152207 22.164107
v    23.054560 16.506400 20.213638
v    25.494308 18.257396 23.070747
v    27.826702 20.106760 25.899697
v    33.215513 24.620583 30.315647
v    41.994621 31.894434 33.196494
v    45.560610 34.845387 32.216320
v    48.861410 37.679683 31.296283
v    51.948854 40.330778 30.435716
v    55.161445 43.290848 27.873736
v    58.914220 47.862815 22.711592
v    59.073026 48.152207 22.164107
v    20.604495 20.393687 22.165711
v    19.356809 20.326664 22.165711
v    20.038696 19.279648 22.165711
v    19.395505 19.606313 37.466588
v    20.643191 19.673336 37.466588
v    19.961304 20.720352 37.466588
v    22.943857 15.396038 35.130644
v    20.501023 13.960735 37.823384
v    18.648157 12.979036 39.810264
v    16.666869 11.929295 41.934855
v    14.244300 10.605483 43.668564
v    9.282253 7.895308 47.219190
v    -1.412274 1.917299 50.315064
v    -11.326682 -3.396653 48.582366
v    -16.491155 -5.995487 47.362870
v    -21.501455 -7.811940 44.297084
v    -23.652532 -8.429440 42.365371
v    16.979536 24.554070 35.130644
v    14.679045 22.900204 37.823384
v    13.031974 21.602511 39.810264
v    11.270746 20.214875 41.934855
v    9.080420 18.534462 43.668564
v    4.595285 15.092003 47.219190
v    -5.196545 7.727930 50.315064
v    -14.065585 0.808847 48.582366
v    -18.530736 -2.863773 47.362870
v    -22.217979 -6.711740 44.297084
v    -23.652532 -8.429440 42.365371
v    19.593280 19.774418 37.466588
v    20.398720 19.760562 37.466588
v    20.008000 20.465021 37.466588
v    20.406720 20.225582 43.763000
v    19.601280 20.239438 43.763000
v    19.992000 19.534979 43.763000
v    18.153733 23.492048 38.221551
v    22.419960 24.757049 48.905270
v    27.282922 26.338753 56.490576
v    28.758649 26.509239 58.565593
v    33.798131 27.652975 62.513813
v    21.984774 16.584773 38.221551
v    25.316826 19.534070 48.905270
v    29.233507 22.821895 56.490576
v    30.159518 23.983505 58.565593
v    33.798131 27.652975 62.513813
mtllib usm_37_2.5D_2018-08-22_0.mtl
usemtl APPID_2879108560_2275079482096 
o vid_3 
f 3 2 1
f 4 5 6
f 1 6 5
f 1 5 3
f 3 5 4
f 4 2 3
f 2 4 6
f 6 1 2
usemtl APPID_2879102848_2275079481968 
o vid_4 
f 7 13 14
f 8 14 15
f 9 15 16
f 10 16 17
f 7 14 8
f 8 15 9
f 9 16 10
f 10 17 11
f 11 17 18
usemtl APPID_2879108560_2275079482096 
o vid_5 
f 21 20 19
f 22 23 24
f 19 24 23
f 19 23 21
f 21 23 22
f 22 20 21
f 20 22 24
f 24 19 20
usemtl APPID_2879102848_2275079481968 
o vid_6 
f 25 32 33
f 26 33 34
f 27 34 35
f 28 35 36
f 29 36 37
f 25 33 26
f 26 34 27
f 27 35 28
f 28 36 29
f 29 37 30
f 30 37 38
usemtl APPID_2879108560_2275079482096 
o vid_7 
f 41 40 39
f 42 43 44
f 39 44 43
f 39 43 41
f 41 43 42
f 42 40 41
f 40 42 44
f 44 39 40
usemtl APPID_2879102848_2275079481968 
o vid_8 
f 45 52 53
f 46 53 54
f 47 54 55
f 48 55 56
f 49 56 57
f 45 53 46
f 46 54 47
f 47 55 48
f 48 56 49
f 49 57 50
f 50 57 58
usemtl APPID_2879108560_2275079482096 
o vid_9 
f 61 60 59
f 62 63 64
f 59 64 63
f 59 63 61
f 61 63 62
f 62 60 61
f 60 62 64
f 64 59 60
usemtl APPID_2879102848_2275079481968 
o vid_10 
f 65 73 74
f 66 74 75
f 67 75 76
f 68 76 77
f 69 77 78
f 70 78 79
f 65 74 66
f 66 75 67
f 67 76 68
f 68 77 69
f 69 78 70
f 70 79 71
f 71 79 80
usemtl APPID_2879108560_2275079482096 
o vid_11 
f 83 82 81
f 84 85 86
f 81 86 85
f 81 85 83
f 83 85 84
f 84 82 83
f 82 84 86
f 86 81 82
usemtl APPID_2879102848_2275079481968 
o vid_12 
f 87 95 96
f 88 96 97
f 89 97 98
f 90 98 99
f 91 99 100
f 92 100 101
f 87 96 88
f 88 97 89
f 89 98 90
f 90 99 91
f 91 100 92
f 92 101 93
f 93 101 102
usemtl APPID_2879108560_2275079482096 
o vid_13 
f 105 104 103
f 106 107 108
f 103 108 107
f 103 107 105
f 105 107 106
f 106 104 105
f 104 106 108
f 108 103 104
usemtl APPID_2879102848_2275079481968 
o vid_14 
f 109 118 119
f 110 119 120
f 111 120 121
f 112 121 122
f 113 122 123
f 114 123 124
f 115 124 125
f 109 119 110
f 110 120 111
f 111 121 112
f 112 122 113
f 113 123 114
f 114 124 115
f 115 125 116
f 116 125 126
usemtl APPID_2879108560_2275079482096 
o vid_15 
f 129 128 127
f 130 131 132
f 127 132 131
f 127 131 129
f 129 131 130
f 130 128 129
f 128 130 132
f 132 127 128
usemtl APPID_2879102848_2275079481968 
o vid_16 
f 133 144 145
f 134 145 146
f 135 146 147
f 136 147 148
f 137 148 149
f 138 149 150
f 139 150 151
f 140 151 152
f 141 152 153
f 133 145 134
f 134 146 135
f 135 147 136
f 136 148 137
f 137 149 138
f 138 150 139
f 139 151 140
f 140 152 141
f 141 153 142
f 142 153 154
usemtl APPID_2879108560_2275079482096 
o vid_17 
f 157 156 155
f 158 159 160
f 155 160 159
f 155 159 157
f 157 159 158
f 158 156 157
f 156 158 160
f 160 155 156
usemtl APPID_2879102848_2275079481968 
o vid_18 
f 161 172 173
f 162 173 174
f 163 174 175
f 164 175 176
f 165 176 177
f 166 177 178
f 167 178 179
f 168 179 180
f 169 180 181
f 161 173 162
f 162 174 163
f 163 175 164
f 164 176 165
f 165 177 166
f 166 178 167
f 167 179 168
f 168 180 169
f 169 181 170
f 170 181 182
usemtl APPID_2879108560_2275079482096 
o vid_19 
f 185 184 183
f 186 187 188
f 183 188 187
f 183 187 185
f 185 187 186
f 186 184 185
f 184 186 188
f 188 183 184
usemtl APPID_2879102848_2275079481968 
o vid_20 
f 189 194 195
f 190 195 196
f 191 196 197
f 189 195 190
f 190 196 191
f 191 197 192
f 192 197 198
