# File generated by PlantGL - Fri Sep  4 14:41:41 2026
v    17.752484 218.905161 0.000000
v    22.071916 218.601013 0.000000
v    20.175600 222.493825 0.000000
v    22.247516 221.094839 0.848018
v    17.928084 221.398987 0.848018
v    19.824400 217.506175 0.848018
v    22.062184 221.449156 0.688716
v    22.418649 221.585061 1.043219
v    22.540278 221.629160 1.163250
v    23.209568 221.881186 1.644646
v    23.981245 222.182418 1.910172
v    24.496101 222.360196 2.084060
v    22.412266 220.730496 0.688716
v    22.739014 220.927406 1.043219
v    22.848714 220.995994 1.163250
v    23.459730 221.367647 1.644646
v    24.172605 221.789589 1.910172
v    24.629959 222.085407 2.084060
v    21.879284 221.505407 0.848018
v    17.756638 220.874804 0.848018
v    20.364078 217.619789 0.848018
v    18.120716 218.494593 1.416666
v    22.243362 219.125196 1.416666
v    19.635922 222.380211 1.416666
v    18.493117 218.055620 1.191176
v    17.952793 217.696709 1.793949
v    17.044720 217.099981 2.544278
v    15.956020 216.364314 2.965444
v    15.269751 215.939242 3.223156
v    15.058173 215.814981 3.220373
v    17.773606 218.953827 1.191176
v    17.305418 218.504865 1.793949
v    16.524880 217.748926 2.544278
v    15.569331 216.847040 2.965444
v    15.004722 216.270092 3.223156
v    14.837278 216.090737 3.220373
v    17.841416 219.161313 1.416666
v    21.805616 218.549955 1.416666
v    20.352968 222.288732 1.416666
v    22.158584 220.838687 2.253758
v    18.194384 221.450045 2.253758
v    19.647032 217.711268 2.253758
v    21.871433 221.515662 1.940857
v    22.839874 221.781768 2.872938
v    24.190898 222.166488 3.818495
v    25.048301 222.421837 4.105250
v    26.378970 222.761274 4.543665
v    26.787855 222.806817 4.671537
v    22.403819 220.145427 1.940857
v    23.297879 220.602969 2.872938
v    24.554247 221.231314 3.818495
v    25.359135 221.621825 4.105250
v    26.569913 222.269831 4.543665
v    26.902288 222.512294 4.671537
v    22.163962 220.511898 2.253758
v    18.474702 221.618097 2.253758
v    19.361335 217.870005 2.253758
v    17.836038 219.488102 4.113040
v    21.525298 218.381903 4.113040
v    20.638665 222.129995 4.113040
v    18.105016 218.483911 3.687377
v    17.417344 218.384736 4.333007
v    16.751926 218.299895 4.955355
v    14.859426 218.034898 6.241667
v    13.088664 217.765184 6.815801
v    11.232084 217.557384 7.412209
v    10.270352 217.576493 7.516483
v    17.626590 220.506376 3.687377
v    16.967368 220.286935 4.333007
v    16.334463 220.064650 4.955355
v    14.523813 219.453645 6.241667
v    12.819885 218.901401 6.815801
v    11.066975 218.255356 7.412209
v    10.215735 217.807378 7.516483
v    18.595695 218.396392 4.113040
v    22.090917 219.585640 4.113040
v    19.313387 222.017967 4.113040
v    21.404305 221.603608 6.000766
v    17.909083 220.414360 6.000766
v    20.686613 217.982033 6.000766
v    20.283419 222.530963 5.433090
v    21.509369 223.702032 7.008533
v    23.450917 225.539346 8.839565
v    25.882939 227.899625 9.925868
v    27.335678 229.201637 10.548660
v    29.098104 230.508511 10.524085
v    22.471442 220.614877 5.433090
v    23.470522 221.984620 7.008533
v    25.035606 224.151609 8.839565
v    27.054370 226.873785 9.925868
v    28.153326 228.485610 10.548660
v    29.216240 230.405057 10.524085
v    21.718982 221.097521 6.000766
v    18.190028 220.939922 6.000766
v    20.090990 217.962557 6.000766
v    18.281018 218.902479 12.885860
v    21.809972 219.060078 12.885860
v    19.909010 222.037443 12.885860
v    19.368598 217.298169 12.143674
v    17.257375 216.201260 14.354522
v    14.296559 214.673837 16.597336
v    9.912626 212.351829 18.187472
v    8.092933 211.478634 18.831824
v    6.923672 210.909272 18.817018
v    4.692852 210.168747 18.790902
v    17.283338 220.564188 12.143674
v    15.399851 219.110589 14.354522
v    12.768306 217.067448 16.597336
v    8.817090 214.067702 18.187472
v    7.259225 212.784422 18.831824
v    6.250691 211.963324 18.817018
v    4.640168 210.251262 18.790902
v    18.420020 218.861621 12.885860
v    21.775855 219.200887 12.885860
v    19.804125 221.937492 12.885860
v    21.579980 221.138379 19.685705
v    18.224145 220.799113 19.685705
v    20.195875 218.062508 19.685705
v    20.091978 223.086676 18.734440
v    22.668485 224.614693 21.518040
v    26.397472 226.804756 24.442732
v    31.431162 229.844184 26.327515
v    34.117629 231.324147 27.306692
v    35.132895 231.891074 27.293453
v    38.048344 233.044174 27.258619
v    22.957063 219.110166 18.734440
v    25.222094 221.070487 21.518040
v    28.479941 223.914455 24.442732
v    32.956478 227.727168 26.327515
v    35.210732 229.807007 27.306692
v    36.069887 230.590603 27.293453
v    38.086572 232.991118 27.258619
v    21.330980 220.866823 19.685705
v    18.583820 220.719251 19.685705
v    20.085201 218.413926 19.685705
v    18.669020 219.133177 30.882667
v    21.416180 219.280749 30.882667
v    19.914799 221.586074 30.882667
v    20.461660 216.538016 29.687393
v    17.077685 214.740814 33.247915
v    12.335093 212.232860 36.859917
v    4.888428 208.202042 39.574065
v    2.401634 206.980964 40.458509
v    0.075859 205.822330 40.428927
v    -3.732337 204.519868 40.384209
v    17.020323 221.822083 29.687393
v    14.008289 219.453778 33.247915
v    9.796843 216.130265 36.859917
v    3.099191 210.949360 39.574065
v    0.976857 209.168666 40.458509
v    -1.023259 207.509992 40.428927
v    -3.754334 204.553645 40.384209
v    18.920859 219.401467 30.882667
v    21.057915 219.364703 30.882667
v    20.021226 221.233830 30.882667
v    21.079141 220.598533 48.444344
v    18.942085 220.635297 48.444344
v    19.978774 218.766170 48.444344
v    18.977623 224.169391 46.971997
v    23.292320 226.082483 51.357873
v    27.249005 227.886343 54.288593
v    29.315121 228.792291 55.807162
v    41.912697 234.497766 60.239933
v    48.543890 237.250002 60.158175
v    50.952084 237.887221 60.130498
v    53.399179 238.524472 59.682564
v    22.995617 216.925044 46.971997
v    26.903118 219.572300 51.357873
v    30.528392 221.973687 54.288593
v    32.390913 223.246712 55.807162
v    43.901266 230.912424 60.239933
v    49.747191 235.080478 60.158175
v    51.562874 236.785983 60.130498
v    53.399179 238.524472 59.682564
v    20.877917 220.233531 48.444344
v    19.358797 220.643533 48.444344
v    19.763285 219.122936 48.444344
v    19.122083 219.766469 69.931697
v    20.641203 219.356467 69.931697
v    20.236715 220.877064 69.931697
v    20.552031 214.887842 68.153705
v    14.935507 213.918341 73.450046
v    8.763600 212.786702 77.679033
v    -9.346059 209.533527 84.175934
v    -19.137448 208.039164 84.063089
v    -25.131626 207.982347 83.289747
v    -25.178333 207.982285 83.275855
v    17.939069 224.710782 68.153705
v    12.583160 222.761547 73.450046
v    6.664711 220.677077 77.679033
v    -10.667813 214.502413 84.175934
v    -19.907590 210.934369 84.063089
v    -25.137769 208.005438 83.289747
v    -25.178333 207.982285 83.275855
v    19.435075 219.765494 69.931697
v    20.485551 219.628014 69.931697
v    20.079374 220.606493 69.931697
v    20.564925 220.234506 82.195000
v    19.514449 220.371986 82.195000
v    19.920626 219.393507 82.195000
v    18.674833 224.791022 77.985341
v    24.251944 226.355906 85.155338
v    32.345204 228.763664 92.800947
v    37.608593 230.435141 95.494184
v    46.026560 232.723952 99.729444
v    50.603799 233.271222 101.901497
v    52.701220 233.574616 102.175407
v    22.457346 215.678958 77.985341
v    27.503150 218.523756 85.155338
v    34.922330 222.555372 92.800947
v    39.822128 225.102740 95.494184
v    47.386322 229.448289 99.729444
v    51.005531 232.303451 101.901497
v    52.701220 233.574616 102.175407
v    24.496101 222.360196 2.084060
v    24.615108 222.401288 2.124254
v    25.179233 222.522974 2.117831
v    24.629959 222.085407 2.084060
v    24.735676 222.153785 2.124254
v    25.179233 222.522974 2.117831
v    15.058173 215.814981 3.220373
v    14.402572 215.516162 3.212368
v    14.837278 216.090737 3.220373
v    14.402572 215.516162 3.212368
v    26.787855 222.806817 4.671537
v    27.072461 222.838518 4.760542
v    27.414333 222.880734 4.756715
v    26.902288 222.512294 4.671537
v    27.133638 222.681061 4.760542
v    27.414333 222.880734 4.756715
v    10.270352 217.576493 7.516483
v    9.786597 217.583960 7.511107
v    10.215735 217.807378 7.516483
v    9.786597 217.583960 7.511107
v    29.098104 230.508511 10.524085
v    29.361695 230.690334 10.520527
v    29.216240 230.405057 10.524085
v    29.361695 230.690334 10.520527
v    4.692852 210.168747 18.790902
v    4.503383 210.105852 18.788684
v    4.640168 210.251262 18.790902
v    4.503383 210.105852 18.788684
v    38.048344 233.044174 27.258619
v    38.172348 233.093219 27.257137
v    38.086572 232.991118 27.258619
v    38.172348 233.093219 27.257137
v    -3.732337 204.519868 40.384209
v    -3.810110 204.493268 40.383296
v    -3.754334 204.553645 40.384209
v    -3.810110 204.493268 40.383296
mtllib usm_18_Beer_2018-08-02_5.mtl
usemtl APPID_2969676032_2459690721504 
o vid_3 
f 3 2 1
f 4 5 6
f 1 6 5
f 1 5 3
f 3 5 4
f 4 2 3
f 2 4 6
f 6 1 2
usemtl APPID_2969679280_2459690725216 
o vid_4 
f 7 13 14
f 8 14 15
f 9 15 16
f 10 16 17
f 7 14 8
f 8 15 9
f 9 16 10
f 10 17 11
f 11 17 18
f 11 18 12
usemtl APPID_2969676032_2459690721504 
o vid_5 
f 21 20 19
f 22 23 24
f 19 24 23
f 19 23 21
f 21 23 22
f 22 20 21
f 20 22 24
f 24 19 20
usemtl APPID_2969679280_2459690725216 
o vid_6 
f 25 31 32
f 26 32 33
f 27 33 34
f 28 34 35
f 25 32 26
f 26 33 27
f 27 34 28
f 28 35 29
f 29 35 36
f 29 36 30
usemtl APPID_2969676032_2459690721504 
o vid_7 
f 39 38 37
f 40 41 42
f 37 42 41
f 37 41 39
f 39 41 40
f 40 38 39
f 38 40 42
f 42 37 38
usemtl APPID_2969679280_2459690725216 
o vid_8 
f 43 49 50
f 44 50 51
f 45 51 52
f 46 52 53
f 43 50 44
f 44 51 45
f 45 52 46
f 46 53 47
f 47 53 54
f 47 54 48
usemtl APPID_2969676032_2459690721504 
o vid_9 
f 57 56 55
f 58 59 60
f 55 60 59
f 55 59 57
f 57 59 58
f 58 56 57
f 56 58 60
f 60 55 56
usemtl APPID_2969679280_2459690725216 
o vid_10 
f 61 68 69
f 62 69 70
f 63 70 71
f 64 71 72
f 65 72 73
f 61 69 62
f 62 70 63
f 63 71 64
f 64 72 65
f 65 73 66
f 66 73 74
f 66 74 67
usemtl APPID_2969676032_2459690721504 
o vid_11 
f 77 76 75
f 78 79 80
f 75 80 79
f 75 79 77
f 77 79 78
f 78 76 77
f 76 78 80
f 80 75 76
usemtl APPID_2969679280_2459690725216 
o vid_12 
f 81 87 88
f 82 88 89
f 83 89 90
f 84 90 91
f 81 88 82
f 82 89 83
f 83 90 84
f 84 91 85
f 85 91 92
f 85 92 86
usemtl APPID_2969676032_2459690721504 
o vid_13 
f 95 94 93
f 96 97 98
f 93 98 97
f 93 97 95
f 95 97 96
f 96 94 95
f 94 96 98
f 98 93 94
usemtl APPID_2969679280_2459690725216 
o vid_14 
f 99 106 107
f 100 107 108
f 101 108 109
f 102 109 110
f 103 110 111
f 99 107 100
f 100 108 101
f 101 109 102
f 102 110 103
f 103 111 104
f 104 111 112
f 104 112 105
usemtl APPID_2969676032_2459690721504 
o vid_15 
f 115 114 113
f 116 117 118
f 113 118 117
f 113 117 115
f 115 117 116
f 116 114 115
f 114 116 118
f 118 113 114
usemtl APPID_2969679280_2459690725216 
o vid_16 
f 119 126 127
f 120 127 128
f 121 128 129
f 122 129 130
f 123 130 131
f 119 127 120
f 120 128 121
f 121 129 122
f 122 130 123
f 123 131 124
f 124 131 132
f 124 132 125
usemtl APPID_2969676032_2459690721504 
o vid_17 
f 135 134 133
f 136 137 138
f 133 138 137
f 133 137 135
f 135 137 136
f 136 134 135
f 134 136 138
f 138 133 134
usemtl APPID_2969679280_2459690725216 
o vid_18 
f 139 146 147
f 140 147 148
f 141 148 149
f 142 149 150
f 143 150 151
f 139 147 140
f 140 148 141
f 141 149 142
f 142 150 143
f 143 151 144
f 144 151 152
f 144 152 145
usemtl APPID_2969676032_2459690721504 
o vid_19 
f 155 154 153
f 156 157 158
f 153 158 157
f 153 157 155
f 155 157 156
f 156 154 155
f 154 156 158
f 158 153 154
usemtl APPID_2969679280_2459690725216 
o vid_20 
f 159 167 168
f 160 168 169
f 161 169 170
f 162 170 171
f 163 171 172
f 164 172 173
f 159 168 160
f 160 169 161
f 161 170 162
f 162 171 163
f 163 172 164
f 164 173 165
f 165 173 174
usemtl APPID_2969676032_2459690721504 
o vid_21 
f 177 176 175
f 178 179 180
f 175 180 179
f 175 179 177
f 177 179 178
f 178 176 177
f 176 178 180
f 180 175 176
usemtl APPID_2969679280_2459690725216 
o vid_22 
f 181 188 189
f 182 189 190
f 183 190 191
f 184 191 192
f 185 192 193
f 181 189 182
f 182 190 183
f 183 191 184
f 184 192 185
f 185 193 186
f 186 193 194
usemtl APPID_2969676032_2459690721504 
o vid_23 
f 197 196 195
f 198 199 200
f 195 200 199
f 195 199 197
f 197 199 198
f 198 196 197
f 196 198 200
f 200 195 196
usemtl APPID_2969679280_2459690725216 
o vid_24 
f 201 208 209
f 202 209 210
f 203 210 211
f 204 211 212
f 205 212 213
f 201 209 202
f 202 210 203
f 203 211 204
f 204 212 205
f 205 213 206
f 206 213 214
usemtl APPID_2969679840_2459690721376 
o vid_10000004 
f 215 218 219
f 215 219 216
f 216 219 220
usemtl APPID_2969679840_2459690721376 
o vid_10000006 
f 221 223 224
f 221 224 222
f 221 223 224
usemtl APPID_2969679840_2459690721376 
o vid_10000008 
f 225 228 229
f 225 229 226
f 226 229 230
usemtl APPID_2969679840_2459690721376 
o vid_10000010 
f 231 233 234
f 231 234 232
f 231 233 234
usemtl APPID_2969679840_2459690721376 
o vid_10000012 
f 235 237 238
f 235 238 236
f 235 237 238
usemtl APPID_2969679840_2459690721376 
o vid_10000014 
f 239 241 242
f 239 242 240
f 239 241 242
usemtl APPID_2969679840_2459690721376 
o vid_10000016 
f 243 245 246
f 243 246 244
f 243 245 246
usemtl APPID_2969679840_2459690721376 
o vid_10000018 
f 247 249 250
f 247 250 248
f 247 249 250
