# File generated by PlantGL - Fri Sep  4 14:42:32 2026
v    19.328319 59.672802 0.000000
v    20.619202 59.581906 0.000000
v    20.052479 60.745292 0.000000
v    20.671681 60.327198 0.188000
v    19.380798 60.418094 0.188000
v    19.947521 59.254708 0.188000
v    19.785292 60.006788 -5.057433
v    20.052574 60.025610 -4.694752
v    19.872994 59.826752 -5.057433
v    20.052574 60.025610 -4.694752
mtllib usm_20_2.5D_2018-07-08_1.mtl
usemtl APPID_3718616176_1872025175792 
o vid_3 
f 3 2 1
f 4 5 6
f 1 6 5
f 1 5 3
f 3 5 4
f 4 2 3
f 2 4 6
f 6 1 2
usemtl APPID_3718615616_1872025174256 
o vid_4 
f 7 9 10
f 7 10 8
f 7 9 10
