# File generated by PlantGL - Fri Sep  4 14:42:21 2026
v    17.752484 58.905161 0.000000
v    22.071916 58.601013 0.000000
v    20.175600 62.493825 0.000000
v    22.247516 61.094839 0.848509
v    17.928084 61.398987 0.848509
v    19.824400 57.506175 0.848509
v    22.062214 61.449102 0.689256
v    22.419211 61.585210 1.044288
v    22.462071 61.600750 1.086585
v    22.412243 60.730552 0.689256
v    22.739478 60.927756 1.044288
v    22.778135 60.951925 1.086585
v    21.879284 61.505407 0.848509
v    17.756638 60.874804 0.848509
v    20.364078 57.619789 0.848509
v    18.120716 58.494593 1.417165
v    22.243362 59.125196 1.417165
v    19.635922 62.380211 1.417165
v    18.493094 58.055646 1.191709
v    17.952369 57.696469 1.794928
v    17.044918 57.100141 2.544610
v    16.568527 56.778230 2.728903
v    17.773626 58.953798 1.191709
v    17.305090 58.504504 1.794928
v    16.525080 57.749085 2.544610
v    16.106952 57.354439 2.728903
v    17.841416 59.161313 1.417165
v    21.805616 58.549955 1.417165
v    20.352968 62.288732 1.417165
v    22.158584 60.838687 2.253766
v    18.194384 61.450045 2.253766
v    19.647032 57.711268 2.253766
v    21.871435 61.515657 1.940865
v    22.050388 61.567413 2.113972
v    22.839875 61.781762 2.872945
v    24.190898 62.166482 3.818501
v    25.048243 62.421814 4.105237
v    25.186139 62.456989 4.150669
v    22.403817 60.145432 1.940865
v    22.570770 60.228073 2.113972
v    23.297876 60.602974 2.872945
v    24.554243 61.231318 3.818501
v    25.359075 61.621803 4.105237
v    25.484548 61.688955 4.150669
v    22.163962 60.511898 2.253766
v    18.474702 61.618097 2.253766
v    19.361335 57.870005 2.253766
v    17.836038 59.488102 4.112548
v    21.525298 58.381903 4.112548
v    20.638665 62.129995 4.112548
v    18.104986 58.484058 3.686826
v    17.420477 58.385338 4.329487
v    16.751697 58.300069 4.954979
v    14.858936 58.035036 6.241468
v    13.092164 57.765930 6.814308
v    11.737000 57.614251 7.249641
v    17.626629 60.506231 3.686826
v    16.970438 60.287800 4.329487
v    16.334336 60.064392 4.954979
v    14.523437 59.453303 6.241468
v    12.823348 58.902303 6.814308
v    11.543855 58.430738 7.249641
v    18.595695 58.396392 4.112548
v    22.090917 59.585640 4.112548
v    19.313387 62.017967 4.112548
v    21.404305 61.603608 5.999272
v    17.909083 60.414360 5.999272
v    20.686613 57.982033 5.999272
v    20.283557 62.530828 5.431444
v    21.505108 63.697695 7.001235
v    23.451983 65.539945 8.838831
v    25.878553 67.894932 9.922698
v    27.338039 69.202992 10.548382
v    27.740526 69.567909 10.542197
v    22.471290 60.614995 5.431444
v    23.466785 61.979823 7.001235
v    25.036059 64.152745 8.838831
v    27.050297 66.868818 9.922698
v    28.154357 68.488130 10.548382
v    28.462979 68.935245 10.542197
v    21.718982 61.097521 5.999272
v    18.190028 60.939922 5.999272
v    20.090990 57.962557 5.999272
v    18.281018 58.902479 12.880915
v    21.809972 59.060078 12.880915
v    19.909010 62.037443 12.880915
v    19.368615 57.298181 12.138440
v    17.256571 56.200846 14.350147
v    14.294530 54.672948 16.593833
v    9.918644 52.355202 18.181049
v    8.088257 51.476875 18.829189
v    6.928995 50.912383 18.814509
v    6.195359 50.668851 18.805921
v    17.283356 60.564198 12.138440
v    15.399138 59.110034 14.350147
v    12.766646 57.065982 16.593833
v    8.822682 54.071741 18.181049
v    7.255661 52.780920 18.829189
v    6.255752 51.966843 18.814509
v    5.726110 51.403808 18.805921
v    18.420020 58.861621 12.880915
v    21.775855 59.200887 12.880915
v    19.804125 61.937492 12.880915
v    21.579980 61.138379 19.681199
v    18.224145 60.799113 19.681199
v    20.195875 58.062508 19.681199
v    20.091900 63.086726 18.729457
v    22.658673 64.608971 21.502541
v    26.400673 66.806496 24.440606
v    31.422609 69.838826 26.320988
v    34.125084 71.327607 27.305999
v    35.125515 71.886252 27.292954
v    36.863929 72.573818 27.272183
v    22.957086 59.110075 18.729457
v    25.213560 61.062991 21.502541
v    28.482605 63.916941 24.440606
v    32.948688 67.720750 26.320988
v    35.216374 69.812982 27.305999
v    36.062976 70.585130 27.292954
v    37.265478 72.016500 27.272183
v    21.554633 61.012481 19.681199
v    18.345849 60.840111 19.681199
v    20.099518 58.147408 19.681199
v    18.445367 58.987519 30.874713
v    21.654151 59.159889 30.874713
v    19.900482 61.852592 30.874713
v    20.238182 56.392183 29.678718
v    16.852165 54.593896 33.241389
v    12.106543 52.084687 36.855570
v    4.676742 48.062997 39.563572
v    2.166559 46.830435 40.456334
v    -0.137709 45.682515 40.427026
v    -3.099182 44.669645 40.392251
v    16.796581 61.676657 29.678718
v    13.782729 59.306922 33.241389
v    9.568909 55.981145 36.855570
v    2.886425 50.811974 39.563572
v    0.744130 49.014532 40.456334
v    -1.237490 47.371195 40.427026
v    -3.361333 45.072169 40.392251
v    18.458123 59.144816 30.874713
v    21.511550 59.092287 30.874713
v    20.030327 61.762897 30.874713
v    21.541877 60.855184 48.426282
v    18.488450 60.907713 48.426282
v    19.969673 58.237103 48.426282
v    19.440350 64.425908 46.952907
v    23.758057 66.340334 51.341843
v    27.682725 68.129597 54.248848
v    29.785330 69.051545 55.794236
v    42.391695 74.761000 60.230100
v    48.985568 77.495963 60.148812
v    51.441302 78.145762 60.120588
v    53.301037 78.630057 59.780169
v    23.458235 57.181759 46.952907
v    27.368461 59.830861 51.341843
v    30.964400 62.212817 54.248848
v    32.859814 63.508324 55.794236
v    44.378197 71.179384 60.230100
v    50.189709 75.324926 60.148812
v    52.041234 77.064099 60.120588
v    53.436783 78.385310 59.780169
v    21.405713 60.373928 48.426282
v    18.973312 61.030419 48.426282
v    19.620975 58.595653 48.426282
v    18.594287 59.626072 69.890458
v    21.026688 58.969581 69.890458
v    20.379025 61.404347 69.890458
v    20.023714 54.749796 68.111075
v    14.402793 53.779536 73.411561
v    8.305981 52.661666 77.589093
v    -9.898084 49.392435 84.145845
v    -19.600701 47.914722 84.034031
v    -25.430224 47.858877 83.306828
v    17.411988 64.568085 68.111075
v    12.051887 62.617325 73.411561
v    6.205449 60.558218 77.589093
v    -11.216981 54.350581 84.145845
v    -20.371446 50.812194 84.034031
v    -25.458249 47.964229 83.306828
v    18.958461 59.567646 69.890458
v    20.895199 59.314177 69.890458
v    20.146340 61.118176 69.890458
v    21.041539 60.432354 93.949327
v    19.104801 60.685823 93.949327
v    19.853660 58.881824 93.949327
v    18.614386 65.884516 91.842645
v    25.057145 67.908669 98.118099
v    31.452235 69.991217 102.650938
v    34.053999 70.796888 104.484288
v    52.884181 76.877166 110.826843
v    63.333404 79.909852 110.702915
v    66.241394 80.336699 110.670259
v    70.432660 80.935121 109.920291
v    23.189068 54.864116 91.842645
v    29.171290 57.997702 98.118099
v    35.161211 61.056301 102.650938
v    37.568685 62.330016 104.484288
v    55.169222 71.372508 110.826843
v    64.694334 76.631375 110.702915
v    67.049732 78.389416 110.670259
v    70.432660 80.935121 109.920291
v    20.640622 60.527119 93.949327
v    19.223190 60.291236 93.949327
v    20.136187 59.181645 93.949327
v    19.359378 59.472881 114.099891
v    20.776810 59.708764 114.099891
v    19.863813 60.818355 114.099891
v    23.560145 54.644097 111.654762
v    17.088580 50.221893 118.938390
v    8.010191 44.053643 126.327328
v    -5.589184 34.601901 131.635791
v    -11.011401 31.144151 133.688834
v    -14.803344 28.695289 133.637444
v    -22.401783 25.110826 133.544098
v    15.429959 64.524937 111.654762
v    9.844247 59.026133 118.938390
v    2.043152 51.305551 126.327328
v    -9.850617 39.780940 131.635791
v    -14.287847 35.126108 133.688834
v    -17.421118 31.876742 133.637444
v    -22.401783 25.110826 133.544098
v    19.612874 59.594959 114.099891
v    20.544339 59.867260 114.099891
v    19.842787 60.537782 114.099891
v    20.387126 60.405041 129.183000
v    19.455661 60.132740 129.183000
v    20.157213 59.462218 129.183000
v    15.497709 64.808689 123.611575
v    16.995255 66.101514 125.740306
v    21.852412 70.147294 132.529487
v    30.834690 77.863540 141.827994
v    37.082217 83.395133 145.194749
v    46.300653 90.910164 149.973131
v    50.956686 93.711594 152.095581
v    54.108435 95.686903 152.319769
v    25.007313 55.719705 123.611575
v    26.231115 57.274166 125.740306
v    30.053175 62.309259 132.529487
v    37.355459 71.631191 141.827994
v    42.598958 78.122404 145.194749
v    49.689555 87.671156 149.973131
v    52.277630 92.449077 152.095581
v    54.108435 95.686903 152.319769
v    22.462071 61.600750 1.086585
v    23.209242 61.881011 1.644894
v    23.981515 62.182476 1.910625
v    24.614338 62.400986 2.124356
v    25.179177 62.522947 2.117924
v    22.778135 60.951925 1.086585
v    23.459391 61.367499 1.644894
v    24.172817 61.789767 1.910625
v    24.734963 62.153364 2.124356
v    25.179177 62.522947 2.117924
v    16.568527 56.778230 2.728903
v    15.955758 56.364164 2.965954
v    15.270232 55.939552 3.223386
v    15.107411 55.837403 3.221198
v    14.402512 55.516114 3.212591
v    16.106952 57.354439 2.728903
v    15.569126 56.846817 2.965954
v    15.005129 56.270495 3.223386
v    14.869906 56.133894 3.221198
v    14.402512 55.516114 3.212591
v    25.186139 62.456989 4.150669
v    26.378909 62.761250 4.543651
v    27.072461 62.838501 4.760547
v    27.414268 62.880709 4.756721
v    25.484548 61.688955 4.150669
v    26.569852 62.269808 4.543651
v    27.133627 62.681074 4.760547
v    27.414268 62.880709 4.756721
v    11.737000 57.614251 7.249641
v    11.235328 57.558101 7.410798
v    10.873887 57.567997 7.523180
v    9.789852 57.584730 7.511135
v    11.543855 58.430738 7.249641
v    11.070196 58.256169 7.410798
v    10.751497 58.085381 7.523180
v    9.789852 57.584730 7.511135
v    27.740526 69.567909 10.542197
v    29.357958 70.686067 10.520345
v    28.462979 68.935245 10.542197
v    29.357958 70.686067 10.520345
v    6.195359 50.668851 18.805921
v    4.507765 50.108650 18.786164
v    5.726110 51.403808 18.805921
v    4.507765 50.108650 18.786164
v    36.863929 72.573818 27.272183
v    38.166489 73.088998 27.256620
v    37.265478 72.016500 27.272183
v    38.166489 73.088998 27.256620
v    -3.099182 44.669645 40.392251
v    -4.026024 44.352651 40.381367
v    -3.361333 45.072169 40.392251
v    -4.026024 44.352651 40.381367
v    53.301037 78.630057 59.780169
v    53.844898 78.771684 59.680617
v    53.436783 78.385310 59.780169
v    53.844898 78.771684 59.680617
v    -25.430224 47.858877 83.306828
v    -25.649126 47.857051 83.268050
v    -25.458249 47.964229 83.306828
v    -25.649126 47.857051 83.268050
mtllib usm_2_2.5D_2018-08-08_1.mtl
usemtl APPID_1970433200_1595404397696 
o vid_3 
f 3 2 1
f 4 5 6
f 1 6 5
f 1 5 3
f 3 5 4
f 4 2 3
f 2 4 6
f 6 1 2
usemtl APPID_1970431184_1595404393216 
o vid_4 
f 7 10 11
f 7 11 8
f 8 11 12
f 8 12 9
usemtl APPID_1970433200_1595404397696 
o vid_5 
f 15 14 13
f 16 17 18
f 13 18 17
f 13 17 15
f 15 17 16
f 16 14 15
f 14 16 18
f 18 13 14
usemtl APPID_1970431184_1595404393216 
o vid_6 
f 19 23 24
f 20 24 25
f 19 24 20
f 20 25 21
f 21 25 26
f 21 26 22
usemtl APPID_1970433200_1595404397696 
o vid_7 
f 29 28 27
f 30 31 32
f 27 32 31
f 27 31 29
f 29 31 30
f 30 28 29
f 28 30 32
f 32 27 28
usemtl APPID_1970431184_1595404393216 
o vid_8 
f 33 39 40
f 34 40 41
f 35 41 42
f 36 42 43
f 33 40 34
f 34 41 35
f 35 42 36
f 36 43 37
f 37 43 44
f 37 44 38
usemtl APPID_1970433200_1595404397696 
o vid_9 
f 47 46 45
f 48 49 50
f 45 50 49
f 45 49 47
f 47 49 48
f 48 46 47
f 46 48 50
f 50 45 46
usemtl APPID_1970431184_1595404393216 
o vid_10 
f 51 57 58
f 52 58 59
f 53 59 60
f 54 60 61
f 51 58 52
f 52 59 53
f 53 60 54
f 54 61 55
f 55 61 62
f 55 62 56
usemtl APPID_1970433200_1595404397696 
o vid_11 
f 65 64 63
f 66 67 68
f 63 68 67
f 63 67 65
f 65 67 66
f 66 64 65
f 64 66 68
f 68 63 64
usemtl APPID_1970431184_1595404393216 
o vid_12 
f 69 75 76
f 70 76 77
f 71 77 78
f 72 78 79
f 69 76 70
f 70 77 71
f 71 78 72
f 72 79 73
f 73 79 80
f 73 80 74
usemtl APPID_1970433200_1595404397696 
o vid_13 
f 83 82 81
f 84 85 86
f 81 86 85
f 81 85 83
f 83 85 84
f 84 82 83
f 82 84 86
f 86 81 82
usemtl APPID_1970431184_1595404393216 
o vid_14 
f 87 94 95
f 88 95 96
f 89 96 97
f 90 97 98
f 91 98 99
f 87 95 88
f 88 96 89
f 89 97 90
f 90 98 91
f 91 99 92
f 92 99 100
f 92 100 93
usemtl APPID_1970433200_1595404397696 
o vid_15 
f 103 102 101
f 104 105 106
f 101 106 105
f 101 105 103
f 103 105 104
f 104 102 103
f 102 104 106
f 106 101 102
usemtl APPID_1970431184_1595404393216 
o vid_16 
f 107 114 115
f 108 115 116
f 109 116 117
f 110 117 118
f 111 118 119
f 107 115 108
f 108 116 109
f 109 117 110
f 110 118 111
f 111 119 112
f 112 119 120
f 112 120 113
usemtl APPID_1970433200_1595404397696 
o vid_17 
f 123 122 121
f 124 125 126
f 121 126 125
f 121 125 123
f 123 125 124
f 124 122 123
f 122 124 126
f 126 121 122
usemtl APPID_1970431184_1595404393216 
o vid_18 
f 127 134 135
f 128 135 136
f 129 136 137
f 130 137 138
f 131 138 139
f 127 135 128
f 128 136 129
f 129 137 130
f 130 138 131
f 131 139 132
f 132 139 140
f 132 140 133
usemtl APPID_1970433200_1595404397696 
o vid_19 
f 143 142 141
f 144 145 146
f 141 146 145
f 141 145 143
f 143 145 144
f 144 142 143
f 142 144 146
f 146 141 142
usemtl APPID_1970431184_1595404393216 
o vid_20 
f 147 155 156
f 148 156 157
f 149 157 158
f 150 158 159
f 151 159 160
f 152 160 161
f 147 156 148
f 148 157 149
f 149 158 150
f 150 159 151
f 151 160 152
f 152 161 153
f 153 161 162
f 153 162 154
usemtl APPID_1970433200_1595404397696 
o vid_21 
f 165 164 163
f 166 167 168
f 163 168 167
f 163 167 165
f 165 167 166
f 166 164 165
f 164 166 168
f 168 163 164
usemtl APPID_1970431184_1595404393216 
o vid_22 
f 169 175 176
f 170 176 177
f 171 177 178
f 172 178 179
f 169 176 170
f 170 177 171
f 171 178 172
f 172 179 173
f 173 179 180
f 173 180 174
usemtl APPID_1970433200_1595404397696 
o vid_23 
f 183 182 181
f 184 185 186
f 181 186 185
f 181 185 183
f 183 185 184
f 184 182 183
f 182 184 186
f 186 181 182
usemtl APPID_1970431184_1595404393216 
o vid_24 
f 187 195 196
f 188 196 197
f 189 197 198
f 190 198 199
f 191 199 200
f 192 200 201
f 187 196 188
f 188 197 189
f 189 198 190
f 190 199 191
f 191 200 192
f 192 201 193
f 193 201 202
usemtl APPID_1970433200_1595404397696 
o vid_25 
f 205 204 203
f 206 207 208
f 203 208 207
f 203 207 205
f 205 207 206
f 206 204 205
f 204 206 208
f 208 203 204
usemtl APPID_1970431184_1595404393216 
o vid_26 
f 209 216 217
f 210 217 218
f 211 218 219
f 212 219 220
f 213 220 221
f 209 217 210
f 210 218 211
f 211 219 212
f 212 220 213
f 213 221 214
f 214 221 222
usemtl APPID_1970433200_1595404397696 
o vid_27 
f 225 224 223
f 226 227 228
f 223 228 227
f 223 227 225
f 225 227 226
f 226 224 225
f 224 226 228
f 228 223 224
usemtl APPID_1970431184_1595404393216 
o vid_28 
f 229 237 238
f 230 238 239
f 231 239 240
f 232 240 241
f 233 241 242
f 234 242 243
f 229 238 230
f 230 239 231
f 231 240 232
f 232 241 233
f 233 242 234
f 234 243 235
f 235 243 244
usemtl APPID_1970429392_1595404397952 
o vid_10000004 
f 245 250 251
f 246 251 252
f 247 252 253
f 245 251 246
f 246 252 247
f 247 253 248
f 248 253 254
usemtl APPID_1970429392_1595404397952 
o vid_10000006 
f 255 260 261
f 256 261 262
f 257 262 263
f 255 261 256
f 256 262 257
f 257 263 258
f 258 263 264
usemtl APPID_1970429392_1595404397952 
o vid_10000008 
f 265 269 270
f 266 270 271
f 265 270 266
f 266 271 267
f 267 271 272
usemtl APPID_1970429392_1595404397952 
o vid_10000010 
f 273 277 278
f 274 278 279
f 273 278 274
f 274 279 275
f 275 279 280
usemtl APPID_1970429392_1595404397952 
o vid_10000012 
f 281 283 284
f 281 284 282
f 281 283 284
usemtl APPID_1970429392_1595404397952 
o vid_10000014 
f 285 287 288
f 285 288 286
f 285 287 288
usemtl APPID_1970429392_1595404397952 
o vid_10000016 
f 289 291 292
f 289 292 290
f 289 291 292
usemtl APPID_1970429392_1595404397952 
o vid_10000018 
f 293 295 296
f 293 296 294
f 293 295 296
usemtl APPID_1970429392_1595404397952 
o vid_10000020 
f 297 299 300
f 297 300 298
f 297 299 300
usemtl APPID_1970429392_1595404397952 
o vid_10000022 
f 301 303 304
f 301 304 302
f 301 303 304
