# File generated by PlantGL - Fri Sep  4 14:44:36 2026
v    17.752484 418.905161 0.000000
v    22.071916 418.601013 0.000000
v    20.175600 422.493825 0.000000
v    22.247516 421.094839 0.848509
v    17.928084 421.398987 0.848509
v    19.824400 417.506175 0.848509
v    22.074151 421.428408 0.712486
v    22.462129 421.576327 1.098328
v    22.403306 420.752709 0.712486
v    22.758939 420.967026 1.098328
v    21.879284 421.505407 0.848509
v    17.756638 420.874804 0.848509
v    20.364078 417.619789 0.848509
v    18.120716 418.494593 1.417165
v    22.243362 419.125196 1.417165
v    19.635922 422.380211 1.417165
v    18.474463 418.075510 1.221241
v    18.175273 417.876772 1.555011
v    17.788945 418.931281 1.221241
v    17.529697 418.682680 1.555011
v    17.841416 419.161313 1.417165
v    21.805616 418.549955 1.417165
v    20.352968 422.288732 1.417165
v    22.158584 420.838687 2.253766
v    18.194384 421.450045 2.253766
v    19.647032 417.711268 2.253766
v    21.884467 421.489362 1.977387
v    22.277259 421.602962 2.357347
v    22.395677 420.173628 1.977387
v    22.762129 420.355021 2.357347
v    22.163962 420.511898 2.253766
v    18.474702 421.618097 2.253766
v    19.361335 417.870005 2.253766
v    17.836038 419.488102 4.112548
v    21.525298 418.381903 4.112548
v    20.638665 422.129995 4.112548
v    18.092464 418.523291 3.730721
v    17.052862 418.373360 4.706766
v    17.633012 420.465546 3.730721
v    16.636419 420.133803 4.706766
v    18.595695 418.396392 4.112548
v    22.090917 419.585640 4.112548
v    19.313387 422.017967 4.112548
v    21.404305 421.603608 5.999272
v    17.909083 420.414360 5.999272
v    20.686613 417.982033 5.999272
v    20.322641 422.501493 5.482651
v    20.689427 422.851859 5.954001
v    22.437055 420.649867 5.482651
v    22.735965 421.059674 5.954001
v    21.718982 421.097521 5.999272
v    18.190028 420.939922 5.999272
v    20.090990 417.962557 5.999272
v    18.281018 418.902479 11.505015
v    21.809972 419.060078 11.505015
v    19.909010 422.037443 11.505015
v    19.264432 417.453626 10.820438
v    17.482886 416.528005 12.686052
v    17.315422 416.444459 12.859680
v    17.293233 416.433046 12.876476
v    17.380527 420.404275 10.820438
v    15.791155 419.177662 12.686052
v    15.644896 419.060905 12.859680
v    15.625205 419.045579 12.876476
v    18.420020 418.861621 11.505015
v    21.775855 419.200887 11.505015
v    19.804125 421.937492 11.505015
v    21.579980 421.138379 19.658889
v    18.224145 420.799113 19.658889
v    20.195875 418.062508 19.658889
v    20.075274 423.117586 18.770471
v    20.346201 423.278262 19.063175
v    22.981096 419.084535 18.770471
v    23.219271 419.290669 19.063175
v    21.554633 421.012481 19.658889
v    18.345849 420.840111 19.658889
v    20.099518 418.147408 19.658889
v    18.445367 418.987519 30.873903
v    21.654151 419.159889 30.873903
v    19.900482 421.852592 30.873903
v    20.202866 416.437610 29.744739
v    18.033802 415.285637 32.026967
v    16.823848 421.625988 29.744739
v    14.893191 420.107949 32.026967
v    18.458123 419.144816 30.873903
v    21.511550 419.092287 30.873903
v    20.030327 421.762897 30.873903
v    21.541877 420.855184 48.397355
v    18.488450 420.907713 48.397355
v    19.969673 418.237103 48.397355
v    19.472744 424.377553 46.991824
v    19.697396 424.477161 47.220182
v    23.434367 417.234843 46.991824
v    23.637817 417.372677 47.220182
v    21.614895 420.429572 48.397355
v    18.820532 421.183754 48.397355
v    19.564573 418.386674 48.397355
v    18.385105 419.570428 69.758548
v    21.179468 418.816246 69.758548
v    20.435427 421.613326 69.758548
v    19.793134 414.756161 68.045109
v    19.139336 414.642946 68.661721
v    17.215046 424.447996 68.045109
v    16.591407 424.221405 68.661721
v    18.541706 419.394647 69.758548
v    21.253398 419.039757 69.758548
v    20.204896 421.565597 69.758548
v    21.458294 420.605353 89.607729
v    18.746602 420.960243 89.607729
v    19.795104 418.434403 89.607729
v    19.234428 425.579227 87.562032
v    24.684360 427.291459 92.870442
v    23.410631 415.518764 87.562032
v    28.470994 418.169466 92.870442
v    21.148136 420.944713 89.607729
v    18.607786 420.521958 89.607729
v    20.244078 418.533328 89.607729
v    18.851864 419.055287 113.503741
v    21.392214 419.478042 113.503741
v    19.755922 421.466672 113.503741
v    22.903646 414.401559 111.111757
v    16.629051 410.113950 118.173699
v    10.870857 406.214859 122.872065
v    15.065533 423.927435 111.111757
v    9.649828 418.595993 118.173699
v    4.714817 413.696466 122.872065
v    19.036323 418.991726 113.503741
v    21.355030 419.669568 113.503741
v    19.608648 421.338706 113.503741
v    20.963677 421.008274 130.408186
v    18.644970 420.330432 130.408186
v    20.391352 418.661294 130.408186
v    15.862020 425.612009 127.669013
v    20.766363 429.904397 133.725355
v    22.496511 431.369208 135.828551
v    31.783294 439.430016 144.106064
v    32.711944 440.255874 144.504407
v    25.793342 416.119960 127.669013
v    29.859625 421.213340 133.725355
v    31.244721 423.007940 135.828551
v    38.877449 432.649643 144.106064
v    39.660480 433.614679 144.504407
v    20.912312 420.929805 130.408186
v    18.738610 420.325183 130.408186
v    20.349079 418.745013 130.408186
v    19.087688 419.070195 146.719517
v    21.261390 419.674817 146.719517
v    19.650921 421.254987 146.719517
v    24.875870 413.700171 143.647488
v    17.696859 407.581352 152.412939
v    6.843197 398.414020 162.081916
v    -1.564928 391.131820 165.647292
v    13.608711 424.755352 143.647488
v    7.627330 417.461435 152.412939
v    -1.332230 406.435636 162.081916
v    -8.453440 397.890732 165.647292
v    19.188946 419.101354 146.719517
v    21.183778 419.746930 146.719517
v    19.627277 421.151717 146.719517
v    20.811054 420.898646 158.181033
v    18.816222 420.253070 158.181033
v    20.372723 418.848283 158.181033
v    14.317491 426.432665 154.806797
v    20.756794 432.401873 162.966019
v    22.274970 433.763568 164.858080
v    33.426464 444.016037 175.054689
v    44.679040 454.614106 180.009386
v    26.979717 415.004640 154.806797
v    32.259598 422.020260 162.966019
v    33.459011 423.669648 164.858080
v    42.518156 435.810521 175.054689
v    51.910762 448.087268 180.009386
v    21.097812 420.213714 158.181033
v    19.266012 420.843876 158.181033
v    19.636176 418.942409 158.181033
v    18.902188 419.786286 164.602048
v    20.733988 419.156124 164.602048
v    20.363824 421.057591 164.602048
v    20.785864 411.475107 160.972355
v    18.728318 411.261982 162.894560
v    9.182153 410.431306 171.784604
v    -7.032974 408.819065 182.753183
v    -17.226469 407.681515 186.040819
v    -18.827603 407.566927 186.553283
v    17.530536 428.197142 160.972355
v    15.543298 427.622856 162.894560
v    6.382655 424.811822 171.784604
v    -9.253119 420.223554 182.753183
v    -19.128937 417.454151 186.040819
v    -20.656130 416.959738 186.553283
v    19.208315 419.346885 164.602048
v    20.961457 419.640938 164.602048
v    19.830228 421.012177 164.602048
v    20.791685 420.653115 168.440627
v    19.038543 420.359062 168.440627
v    20.169772 418.987823 168.440627
v    15.177373 427.026818 164.616706
v    25.418134 433.799517 176.007527
v    39.619433 443.444748 187.563042
v    43.216462 445.951551 188.968378
v    48.555237 449.365692 190.991476
v    25.982082 413.929695 164.616706
v    34.577786 422.696479 176.007527
v    46.746440 434.805618 187.563042
v    49.891235 437.860605 188.968378
v    54.257883 442.453127 190.991476
v    20.747035 420.560971 168.440627
v    19.140667 420.366465 168.440627
v    20.112298 419.072563 168.440627
v    19.252965 419.439029 171.309825
v    20.859333 419.633535 171.309825
v    19.887702 420.927437 171.309825
v    24.859703 412.444776 167.364413
v    13.985477 405.946733 179.117134
v    -1.106206 396.674607 191.039782
v    -7.024449 392.939686 193.282947
v    -16.623894 387.401613 196.820965
v    14.099633 426.773758 167.364413
v    4.826998 418.142908 179.117134
v    -8.285748 406.235468 191.039782
v    -13.522858 401.593495 193.282947
v    -21.518122 393.919165 196.820965
v    19.310251 419.516898 171.309825
v    20.763253 419.644211 171.309825
v    19.926496 420.838891 171.309825
v    20.689749 420.483102 172.803360
v    19.236747 420.355789 172.803360
v    20.073504 419.161109 172.803360
v    15.690148 427.121920 168.816600
v    26.889619 433.320822 180.692491
v    40.811219 441.251745 191.477379
v    54.313524 448.418663 197.018282
v    25.220058 413.515591 168.816600
v    34.873364 421.922031 180.692491
v    47.084744 432.294720 191.477379
v    58.434821 442.534481 197.018282
v    20.610549 420.435580 172.803360
v    19.317502 420.310961 172.803360
v    20.071949 419.253459 172.803360
v    19.389451 419.564420 174.154000
v    20.682498 419.689039 174.154000
v    19.928051 420.746541 174.154000
v    24.920883 412.299211 170.208588
v    13.898571 406.058337 181.961309
v    -1.414996 397.157444 193.883957
v    -9.327821 392.429886 196.838477
v    -24.533396 384.145630 202.366501
v    -24.656889 384.099144 202.407513
v    14.319603 427.158933 170.208588
v    4.831681 418.767317 181.961309
v    -8.567879 407.183579 193.883957
v    -15.613007 401.239776 196.838477
v    -28.394350 389.557495 202.366501
v    -28.478491 389.455851 202.407513
v    22.462129 421.576327 1.098328
v    22.774214 421.698815 1.329598
v    23.051065 421.803065 1.528727
v    24.180316 422.243880 1.917291
v    24.768496 422.450363 1.931902
v    25.099857 422.519461 1.928141
v    25.224206 422.544882 1.905659
v    22.758939 420.967026 1.098328
v    23.047765 421.137262 1.329598
v    23.300511 421.290995 1.528727
v    24.343713 421.908454 1.917291
v    24.868870 422.244313 1.931902
v    25.127537 422.462638 1.928141
v    25.224206 422.544882 1.905659
v    18.175273 417.876772 1.555011
v    17.951303 417.728000 1.804865
v    17.503511 417.423790 2.169717
v    17.221576 417.238180 2.396928
v    15.696795 416.207841 2.986792
v    14.925749 415.723761 2.976427
v    14.581997 415.567081 2.972230
v    14.316817 415.447468 2.920698
v    17.529697 418.682680 1.555011
v    17.335629 418.496581 1.804865
v    16.941018 418.125982 2.169717
v    16.698348 417.891355 2.396928
v    15.360052 416.628217 2.986792
v    14.719354 415.981415 2.976427
v    14.491425 415.680148 2.972230
v    14.316817 415.447468 2.920698
v    22.277259 421.602962 2.357347
v    22.653474 421.711768 2.721273
v    23.929396 422.074007 3.635862
v    25.479703 422.535714 4.154356
v    26.431519 422.778510 4.467951
v    27.608283 422.956091 4.454643
v    22.762129 420.355021 2.357347
v    23.113116 420.528759 2.721273
v    24.298903 421.122982 3.635862
v    25.754255 421.829082 4.154356
v    26.620314 422.292595 4.467951
v    27.608283 422.956091 4.454643
v    17.052862 418.373360 4.706766
v    15.183928 418.108634 6.021961
v    12.643856 417.721742 6.845528
v    11.629066 417.608161 7.171520
v    10.946619 417.527807 7.163697
v    9.634818 417.548056 7.149120
v    16.636419 420.133803 4.706766
v    14.846959 419.533115 6.021961
v    12.402757 418.740948 6.845528
v    11.444632 418.387825 7.171520
v    10.798513 418.153899 7.163697
v    9.634818 417.548056 7.149120
v    20.689427 422.851859 5.954001
v    21.520176 423.645419 7.021579
v    22.174401 424.283510 7.637500
v    23.193831 425.249320 8.582757
v    26.266555 428.231400 9.955240
v    26.693193 428.613773 10.138140
v    28.010849 429.808431 10.117891
v    29.355546 430.735988 10.099741
v    29.470583 430.814675 10.075053
v    22.735965 421.059674 5.954001
v    23.412978 421.987862 7.021579
v    23.959172 422.720557 7.637500
v    24.782036 423.858504 8.582757
v    27.332630 427.297821 9.955240
v    27.655370 427.771179 10.138140
v    28.665732 429.234939 10.117891
v    29.407762 430.690262 10.099741
v    29.470583 430.814675 10.075053
v    17.293233 416.433046 12.876476
v    14.582420 415.038737 14.928406
v    11.013185 413.148244 16.223035
v    8.848773 412.109633 16.989453
v    8.278951 411.832163 16.982237
v    6.046525 411.091104 16.956102
v    15.625205 419.045579 12.876476
v    13.219618 417.173213 14.928406
v    10.002685 414.730931 16.223035
v    8.149700 413.204548 16.989453
v    7.658207 412.804399 16.982237
v    6.046525 411.091104 16.956102
v    20.346201 423.278262 19.063175
v    22.524833 424.570317 21.416921
v    24.616666 425.840508 23.066296
v    25.942837 426.619652 24.101634
v    33.086282 430.932986 26.776381
v    36.682285 432.942154 26.729483
v    38.283888 433.575609 26.710347
v    39.503924 434.052623 26.478299
v    23.219271 419.290669 19.063175
v    25.134527 420.948270 21.416921
v    27.001566 422.530456 23.066296
v    28.160441 423.541793 24.101634
v    34.513214 428.952516 26.776381
v    37.557374 431.727601 26.729483
v    38.665240 433.046324 26.710347
v    39.503924 434.052623 26.478299
v    18.033802 415.285637 32.026967
v    17.006060 414.739811 33.108328
v    14.979483 413.636319 34.663522
v    12.537661 412.352330 36.520550
v    3.993846 407.727633 39.634586
v    -0.624725 405.432531 39.871570
v    -3.638888 404.401640 39.836176
v    -4.286595 404.182949 39.715078
v    14.893191 420.107949 32.026967
v    13.978410 419.388674 33.108328
v    12.149708 417.981352 34.663522
v    9.988018 416.267227 36.520550
v    2.303572 410.322997 39.634586
v    -1.663051 407.026848 39.871570
v    -3.824680 404.686918 39.836176
v    -4.286595 404.182949 39.715078
v    19.697396 424.477161 47.220182
v    23.591638 426.203827 51.178667
v    28.872663 428.611456 55.090326
v    41.355325 434.258297 59.657655
v    43.513927 435.246031 59.630531
v    49.499450 437.715622 59.556815
v    53.071616 438.647177 58.957110
v    54.080462 438.902337 58.647608
v    23.637817 417.372677 47.220182
v    27.164543 419.761965 51.178667
v    32.003230 422.967119 55.090326
v    43.402997 430.566393 59.657655
v    45.383869 431.874570 59.630531
v    50.648145 435.644553 59.556815
v    53.329830 438.181623 58.957110
v    54.080462 438.902337 58.647608
v    19.139336 414.642946 68.661721
v    14.380618 413.821517 73.149157
v    6.967466 412.462291 78.228644
v    -9.013782 409.574907 83.485625
v    -12.406968 408.947883 83.446197
v    -20.049283 407.832665 83.358270
v    -24.145354 407.776012 82.631612
v    -25.962768 407.773621 82.091072
v    16.591407 424.221405 68.661721
v    12.053501 422.569875 73.149157
v    4.944782 420.066194 78.228644
v    -10.358892 414.631596 83.485625
v    -13.615153 413.489826 83.446197
v    -20.801511 410.660526 83.358270
v    -24.384367 408.674536 82.631612
v    -25.962768 407.773621 82.091072
v    24.684360 427.291459 92.870442
v    27.501402 428.199571 95.081021
v    34.251771 430.289914 99.837714
v    48.741583 434.968684 104.718306
v    52.597959 436.046940 105.996659
v    57.617926 437.481667 105.937220
v    64.572425 438.502476 105.859123
v    28.470994 418.169466 92.870442
v    31.103007 419.523312 95.081021
v    37.349284 422.828012 99.837714
v    50.892885 429.786203 104.718306
v    54.379186 431.755968 105.996659
v    58.939459 434.298098 105.937220
v    64.572425 438.502476 105.859123
v    10.870857 406.214859 122.872065
v    7.680965 404.054299 125.465414
v    -4.532272 395.565942 130.232804
v    -10.960923 391.466389 132.666918
v    -13.494676 389.830074 132.632580
v    -20.927963 386.323519 132.541263
v    4.714817 413.696466 122.872065
v    1.980395 410.982361 125.465414
v    -8.701083 400.632414 130.232804
v    -13.961921 395.113584 132.666918
v    -16.055553 392.942379 132.632580
v    -20.927963 386.323519 132.541263
v    32.711944 440.255874 144.504407
v    42.386059 448.859163 148.654106
v    51.342306 456.208813 152.352847
v    59.667164 461.502879 152.243065
v    39.660480 433.614679 144.504407
v    47.817623 443.667843 148.654106
v    54.754864 452.947197 152.352847
v    59.667164 461.502879 152.243065
v    -1.564928 391.131820 165.647292
v    -7.273984 386.187259 168.068156
v    -15.258655 379.808294 171.330821
v    -17.922100 377.655295 171.291830
v    -26.936482 372.163532 171.174552
v    -8.453440 397.890732 165.647292
v    -13.288689 392.088805 168.068156
v    -19.514869 383.984433 171.330821
v    -21.616899 381.280581 171.291830
v    -26.936482 372.163532 171.174552
v    44.679040 454.614106 180.009386
v    46.862415 456.670484 180.970762
v    56.890710 465.391072 185.213444
v    58.088111 466.444465 185.195288
v    67.729256 472.883909 185.066472
v    51.910762 448.087268 180.009386
v    53.733240 450.469365 180.970762
v    61.383313 461.336369 185.213444
v    62.308820 462.635153 185.195288
v    67.729256 472.883909 185.066472
v    -18.827603 407.566927 186.553283
v    -33.116031 406.544353 191.126481
v    -41.316397 407.097809 193.681041
v    -45.175761 407.312041 193.638095
v    -20.656130 416.959738 186.553283
v    -34.284706 412.547627 191.126481
v    -41.678602 408.958390 193.681041
v    -45.175761 407.312041 193.638095
v    48.555237 449.365692 190.991476
v    57.355215 454.993269 194.326178
v    68.760008 460.225451 198.226141
v    54.257883 442.453127 190.991476
v    61.455489 450.023047 194.326178
v    68.760008 460.225451 198.226141
v    -16.623894 387.401613 196.820965
v    -22.023228 384.286650 198.810971
v    -34.024627 379.431260 202.834839
v    -21.518122 393.919165 196.820965
v    -26.015164 389.602636 198.810971
v    -34.024627 379.431260 202.834839
v    54.313524 448.418663 197.018282
v    56.020117 449.329318 197.635820
v    68.303018 453.831568 201.701860
v    58.434821 442.534481 197.018282
v    59.873908 443.827068 197.635820
v    68.303018 453.831568 201.701860
v    -24.656889 384.099144 202.407513
v    -34.758696 380.296554 205.762342
v    -36.729839 379.527578 205.738834
v    -28.478491 389.455851 202.407513
v    -35.361296 381.141214 205.762342
v    -36.729839 379.527578 205.738834
mtllib usm_10_2.5D_2018-09-09_10.mtl
usemtl APPID_3001548976_1759648410464 
o vid_3 
f 3 2 1
f 4 5 6
f 1 6 5
f 1 5 3
f 3 5 4
f 4 2 3
f 2 4 6
f 6 1 2
usemtl APPID_3001549424_1759648407776 
o vid_4 
f 7 9 10
f 7 10 8
f 7 9 10
f 7 10 8
usemtl APPID_3001548976_1759648410464 
o vid_5 
f 13 12 11
f 14 15 16
f 11 16 15
f 11 15 13
f 13 15 14
f 14 12 13
f 12 14 16
f 16 11 12
usemtl APPID_3001549424_1759648407776 
o vid_6 
f 17 19 20
f 17 20 18
f 17 19 20
f 17 20 18
usemtl APPID_3001548976_1759648410464 
o vid_7 
f 23 22 21
f 24 25 26
f 21 26 25
f 21 25 23
f 23 25 24
f 24 22 23
f 22 24 26
f 26 21 22
usemtl APPID_3001549424_1759648407776 
o vid_8 
f 27 29 30
f 27 30 28
f 27 29 30
f 27 30 28
usemtl APPID_3001548976_1759648410464 
o vid_9 
f 33 32 31
f 34 35 36
f 31 36 35
f 31 35 33
f 33 35 34
f 34 32 33
f 32 34 36
f 36 31 32
usemtl APPID_3001549424_1759648407776 
o vid_10 
f 37 39 40
f 37 40 38
f 37 39 40
f 37 40 38
usemtl APPID_3001548976_1759648410464 
o vid_11 
f 43 42 41
f 44 45 46
f 41 46 45
f 41 45 43
f 43 45 44
f 44 42 43
f 42 44 46
f 46 41 42
usemtl APPID_3001549424_1759648407776 
o vid_12 
f 47 49 50
f 47 50 48
f 47 49 50
f 47 50 48
usemtl APPID_3001548976_1759648410464 
o vid_13 
f 53 52 51
f 54 55 56
f 51 56 55
f 51 55 53
f 53 55 54
f 54 52 53
f 52 54 56
f 56 51 52
usemtl APPID_3001549424_1759648407776 
o vid_14 
f 57 61 62
f 58 62 63
f 57 62 58
f 58 63 59
f 59 63 64
f 59 64 60
usemtl APPID_3001548976_1759648410464 
o vid_15 
f 67 66 65
f 68 69 70
f 65 70 69
f 65 69 67
f 67 69 68
f 68 66 67
f 66 68 70
f 70 65 66
usemtl APPID_3001549424_1759648407776 
o vid_16 
f 71 73 74
f 71 74 72
f 71 73 74
f 71 74 72
usemtl APPID_3001548976_1759648410464 
o vid_17 
f 77 76 75
f 78 79 80
f 75 80 79
f 75 79 77
f 77 79 78
f 78 76 77
f 76 78 80
f 80 75 76
usemtl APPID_3001549424_1759648407776 
o vid_18 
f 81 83 84
f 81 84 82
f 81 83 84
f 81 84 82
usemtl APPID_3001548976_1759648410464 
o vid_19 
f 87 86 85
f 88 89 90
f 85 90 89
f 85 89 87
f 87 89 88
f 88 86 87
f 86 88 90
f 90 85 86
usemtl APPID_3001549424_1759648407776 
o vid_20 
f 91 93 94
f 91 94 92
f 91 93 94
f 91 94 92
usemtl APPID_3001548976_1759648410464 
o vid_21 
f 97 96 95
f 98 99 100
f 95 100 99
f 95 99 97
f 97 99 98
f 98 96 97
f 96 98 100
f 100 95 96
usemtl APPID_3001549424_1759648407776 
o vid_22 
f 101 103 104
f 101 104 102
f 101 103 104
f 101 104 102
usemtl APPID_3001548976_1759648410464 
o vid_23 
f 107 106 105
f 108 109 110
f 105 110 109
f 105 109 107
f 107 109 108
f 108 106 107
f 106 108 110
f 110 105 106
usemtl APPID_3001549424_1759648407776 
o vid_24 
f 111 113 114
f 111 114 112
f 111 113 114
f 111 114 112
usemtl APPID_3001548976_1759648410464 
o vid_25 
f 117 116 115
f 118 119 120
f 115 120 119
f 115 119 117
f 117 119 118
f 118 116 117
f 116 118 120
f 120 115 116
usemtl APPID_3001549424_1759648407776 
o vid_26 
f 121 124 125
f 121 125 122
f 122 125 126
f 122 126 123
usemtl APPID_3001548976_1759648410464 
o vid_27 
f 129 128 127
f 130 131 132
f 127 132 131
f 127 131 129
f 129 131 130
f 130 128 129
f 128 130 132
f 132 127 128
usemtl APPID_3001549424_1759648407776 
o vid_28 
f 133 138 139
f 134 139 140
f 135 140 141
f 133 139 134
f 134 140 135
f 135 141 136
f 136 141 142
f 136 142 137
usemtl APPID_3001548976_1759648410464 
o vid_29 
f 145 144 143
f 146 147 148
f 143 148 147
f 143 147 145
f 145 147 146
f 146 144 145
f 144 146 148
f 148 143 144
usemtl APPID_3001549424_1759648407776 
o vid_30 
f 149 153 154
f 150 154 155
f 149 154 150
f 150 155 151
f 151 155 156
f 151 156 152
usemtl APPID_3001548976_1759648410464 
o vid_31 
f 159 158 157
f 160 161 162
f 157 162 161
f 157 161 159
f 159 161 160
f 160 158 159
f 158 160 162
f 162 157 158
usemtl APPID_3001549424_1759648407776 
o vid_32 
f 163 168 169
f 164 169 170
f 165 170 171
f 163 169 164
f 164 170 165
f 165 171 166
f 166 171 172
f 166 172 167
usemtl APPID_3001548976_1759648410464 
o vid_33 
f 175 174 173
f 176 177 178
f 173 178 177
f 173 177 175
f 175 177 176
f 176 174 175
f 174 176 178
f 178 173 174
usemtl APPID_3001549424_1759648407776 
o vid_34 
f 179 185 186
f 180 186 187
f 181 187 188
f 182 188 189
f 179 186 180
f 180 187 181
f 181 188 182
f 182 189 183
f 183 189 190
f 183 190 184
usemtl APPID_3001548976_1759648410464 
o vid_35 
f 193 192 191
f 194 195 196
f 191 196 195
f 191 195 193
f 193 195 194
f 194 192 193
f 192 194 196
f 196 191 192
usemtl APPID_3001549424_1759648407776 
o vid_36 
f 197 202 203
f 198 203 204
f 199 204 205
f 197 203 198
f 198 204 199
f 199 205 200
f 200 205 206
f 200 206 201
usemtl APPID_3001548976_1759648410464 
o vid_37 
f 209 208 207
f 210 211 212
f 207 212 211
f 207 211 209
f 209 211 210
f 210 208 209
f 208 210 212
f 212 207 208
usemtl APPID_3001549424_1759648407776 
o vid_38 
f 213 218 219
f 214 219 220
f 215 220 221
f 213 219 214
f 214 220 215
f 215 221 216
f 216 221 222
f 216 222 217
usemtl APPID_3001548976_1759648410464 
o vid_39 
f 225 224 223
f 226 227 228
f 223 228 227
f 223 227 225
f 225 227 226
f 226 224 225
f 224 226 228
f 228 223 224
usemtl APPID_3001549424_1759648407776 
o vid_40 
f 229 233 234
f 230 234 235
f 229 234 230
f 230 235 231
f 231 235 236
f 231 236 232
usemtl APPID_3001548976_1759648410464 
o vid_41 
f 239 238 237
f 240 241 242
f 237 242 241
f 237 241 239
f 239 241 240
f 240 238 239
f 238 240 242
f 242 237 238
usemtl APPID_3001549424_1759648407776 
o vid_42 
f 243 249 250
f 244 250 251
f 245 251 252
f 246 252 253
f 243 250 244
f 244 251 245
f 245 252 246
f 246 253 247
f 247 253 254
f 247 254 248
usemtl APPID_3001556480_1759648410080 
o vid_10000004 
f 255 262 263
f 256 263 264
f 257 264 265
f 258 265 266
f 259 266 267
f 255 263 256
f 256 264 257
f 257 265 258
f 258 266 259
f 259 267 260
f 260 267 268
usemtl APPID_3001556480_1759648410080 
o vid_10000006 
f 269 277 278
f 270 278 279
f 271 279 280
f 272 280 281
f 273 281 282
f 274 282 283
f 269 278 270
f 270 279 271
f 271 280 272
f 272 281 273
f 273 282 274
f 274 283 275
f 275 283 284
usemtl APPID_3001556480_1759648410080 
o vid_10000008 
f 285 291 292
f 286 292 293
f 287 293 294
f 288 294 295
f 285 292 286
f 286 293 287
f 287 294 288
f 288 295 289
f 289 295 296
usemtl APPID_3001556480_1759648410080 
o vid_10000010 
f 297 303 304
f 298 304 305
f 299 305 306
f 300 306 307
f 297 304 298
f 298 305 299
f 299 306 300
f 300 307 301
f 301 307 308
usemtl APPID_3001556480_1759648410080 
o vid_10000012 
f 309 318 319
f 310 319 320
f 311 320 321
f 312 321 322
f 313 322 323
f 314 323 324
f 315 324 325
f 309 319 310
f 310 320 311
f 311 321 312
f 312 322 313
f 313 323 314
f 314 324 315
f 315 325 316
f 316 325 326
usemtl APPID_3001556480_1759648410080 
o vid_10000014 
f 327 333 334
f 328 334 335
f 329 335 336
f 330 336 337
f 327 334 328
f 328 335 329
f 329 336 330
f 330 337 331
f 331 337 338
usemtl APPID_3001556480_1759648410080 
o vid_10000016 
f 339 347 348
f 340 348 349
f 341 349 350
f 342 350 351
f 343 351 352
f 344 352 353
f 339 348 340
f 340 349 341
f 341 350 342
f 342 351 343
f 343 352 344
f 344 353 345
f 345 353 354
usemtl APPID_3001556480_1759648410080 
o vid_10000018 
f 355 363 364
f 356 364 365
f 357 365 366
f 358 366 367
f 359 367 368
f 360 368 369
f 355 364 356
f 356 365 357
f 357 366 358
f 358 367 359
f 359 368 360
f 360 369 361
f 361 369 370
usemtl APPID_3001556480_1759648410080 
o vid_10000020 
f 371 379 380
f 372 380 381
f 373 381 382
f 374 382 383
f 375 383 384
f 376 384 385
f 371 380 372
f 372 381 373
f 373 382 374
f 374 383 375
f 375 384 376
f 376 385 377
f 377 385 386
usemtl APPID_3001556480_1759648410080 
o vid_10000022 
f 387 395 396
f 388 396 397
f 389 397 398
f 390 398 399
f 391 399 400
f 392 400 401
f 387 396 388
f 388 397 389
f 389 398 390
f 390 399 391
f 391 400 392
f 392 401 393
f 393 401 402
usemtl APPID_3001556480_1759648410080 
o vid_10000024 
f 403 410 411
f 404 411 412
f 405 412 413
f 406 413 414
f 407 414 415
f 403 411 404
f 404 412 405
f 405 413 406
f 406 414 407
f 407 415 408
f 408 415 416
usemtl APPID_3001556480_1759648410080 
o vid_10000026 
f 417 423 424
f 418 424 425
f 419 425 426
f 420 426 427
f 417 424 418
f 418 425 419
f 419 426 420
f 420 427 421
f 421 427 428
usemtl APPID_3001556480_1759648410080 
o vid_10000028 
f 429 433 434
f 430 434 435
f 429 434 430
f 430 435 431
f 431 435 436
usemtl APPID_3001556480_1759648410080 
o vid_10000030 
f 437 442 443
f 438 443 444
f 439 444 445
f 437 443 438
f 438 444 439
f 439 445 440
f 440 445 446
usemtl APPID_3001556480_1759648410080 
o vid_10000032 
f 447 452 453
f 448 453 454
f 449 454 455
f 447 453 448
f 448 454 449
f 449 455 450
f 450 455 456
usemtl APPID_3001556480_1759648410080 
o vid_10000034 
f 457 461 462
f 458 462 463
f 457 462 458
f 458 463 459
f 459 463 464
usemtl APPID_3001556480_1759648410080 
o vid_10000036 
f 465 468 469
f 465 469 466
f 466 469 470
usemtl APPID_3001556480_1759648410080 
o vid_10000038 
f 471 474 475
f 471 475 472
f 472 475 476
usemtl APPID_3001556480_1759648410080 
o vid_10000040 
f 477 480 481
f 477 481 478
f 478 481 482
usemtl APPID_3001556480_1759648410080 
o vid_10000042 
f 483 486 487
f 483 487 484
f 484 487 488
