# File generated by PlantGL - Fri Sep  4 14:44:14 2026
v    18.201987 19.124129 0.000000
v    21.657533 18.880811 0.000000
v    20.140480 21.995060 0.000000
v    21.798013 20.875871 0.331061
v    18.342467 21.119189 0.331061
v    19.859520 18.004940 0.331061
v    20.738662 21.084254 -2.645931
v    22.886429 21.406074 -0.674825
v    21.309086 19.913271 -2.645931
v    22.886429 21.406074 -0.674825
v    21.503548 21.204422 0.331061
v    18.205166 20.699900 0.331061
v    20.291286 18.095678 0.331061
v    18.496452 18.795578 0.771522
v    21.794834 19.300100 0.771522
v    19.708714 21.904322 0.771522
v    20.071010 18.207304 -2.205470
v    15.584491 16.462942 2.163509
v    18.266023 20.460571 -2.205470
v    15.584491 16.462942 2.163509
v    18.272844 19.328938 0.771522
v    21.444735 18.839770 0.771522
v    20.282421 21.831292 0.771522
v    21.727156 20.671062 1.487405
v    18.555265 21.160230 1.487405
v    19.717579 18.168708 1.487405
v    20.130764 22.402111 -1.489587
v    27.423365 22.884243 5.143735
v    21.718249 18.316297 -1.489587
v    27.423365 22.884243 5.143735
v    21.731622 20.409625 1.487405
v    18.779443 21.294816 1.487405
v    19.488935 18.295559 1.487405
v    18.268378 19.590375 2.987040
v    21.220557 18.705184 2.987040
v    20.511065 21.704441 2.987040
v    19.793954 16.881896 0.010048
v    14.482057 16.440801 5.024673
v    10.463500 16.731779 8.681523
v    6.674987 16.847891 10.986891
v    18.418758 22.695310 0.010048
v    13.472221 20.709714 5.024673
v    10.009946 18.649102 8.681523
v    6.674987 16.847891 10.986891
v    18.876148 18.716648 2.987040
v    21.673341 19.668392 2.987040
v    19.450510 21.614960 2.987040
v    21.123852 21.283352 4.897980
v    18.326659 20.331608 4.897980
v    20.549490 18.385040 4.897980
v    17.808104 23.042390 1.920988
v    20.753424 25.714584 5.679711
v    24.740195 29.087099 10.592463
v    26.072269 30.263347 11.702610
v    33.091031 34.948948 16.835502
v    23.304991 18.228679 1.920988
v    25.565219 21.500819 5.679711
v    28.382236 25.897706 10.592463
v    29.372447 27.373328 11.702610
v    33.091031 34.948948 16.835502
v    21.375838 20.878433 4.897980
v    18.551335 20.752294 4.897980
v    20.072827 18.369272 4.897980
v    18.624162 19.121567 12.075822
v    21.448665 19.247706 12.075822
v    19.927173 21.630728 12.075822
v    21.839307 15.686027 9.098829
v    19.798237 14.628748 11.276864
v    13.622334 11.618870 17.770304
v    9.681960 9.617965 20.540457
v    3.940516 6.914855 24.504808
v    2.388688 6.153380 24.939849
v    -6.660637 2.977944 27.304334
v    16.860591 23.483895 9.098829
v    15.042576 22.077259 11.276864
v    9.713277 17.741393 17.770304
v    6.240004 15.008896 20.540457
v    1.371816 10.938059 24.504808
v    0.028017 9.850759 24.939849
v    -6.660637 2.977944 27.304334
v    18.735263 19.088754 12.075822
v    21.421531 19.360328 12.075822
v    19.843206 21.550918 12.075822
v    21.264737 20.911246 22.185723
v    18.578469 20.639672 22.185723
v    20.156794 18.449082 22.185723
v    17.346322 24.876647 19.208731
v    25.223566 29.535243 27.880206
v    28.143007 31.313120 30.026799
v    34.472859 34.987874 34.614710
v    39.493052 37.986431 36.090208
v    47.324335 42.390629 38.351441
v    49.784143 43.412126 39.008121
v    56.231043 46.104552 37.563936
v    23.785854 15.939089 19.208731
v    30.698418 21.936583 27.880206
v    33.309015 24.143112 30.026799
v    38.798505 28.984221 34.614710
v    43.231999 32.797069 36.090208
v    49.888699 38.831496 38.351441
v    51.636315 40.841458 39.008121
v    56.231043 46.104552 37.563936
v    21.244614 20.810576 22.185723
v    18.675713 20.672580 22.185723
v    20.079672 18.516844 22.185723
v    18.755386 19.189424 42.482171
v    21.324287 19.327420 42.482171
v    19.920328 21.483156 42.482171
v    22.749276 14.634810 39.505179
v    14.661479 10.352169 48.176654
v    6.116486 5.685056 54.291082
v    -6.304023 -0.947371 58.214453
v    -10.175158 -2.890523 59.304569
v    -14.369180 -5.001013 58.314228
v    -23.460596 -8.304439 56.314729
v    16.204634 24.683907 39.505179
v    9.017423 19.018443 48.176654
v    1.293706 13.090287 54.291082
v    -9.794556 4.412235 58.214453
v    -13.137059 1.657384 59.304569
v    -16.763168 -1.325117 58.314228
v    -23.460596 -8.304439 56.314729
v    18.765415 19.315252 42.482171
v    21.210302 19.273192 42.482171
v    20.024283 21.411556 42.482171
v    21.234585 20.684748 70.333185
v    18.789698 20.726808 70.333185
v    19.975717 18.588444 70.333185
v    17.945361 24.839775 67.356192
v    26.165995 28.472646 75.872164
v    36.179759 32.798619 82.762171
v    46.035228 36.948283 85.454679
v    52.673610 38.825942 87.155582
v    55.284316 39.570041 86.594432
v    23.017740 15.694398 67.356192
v    30.452317 20.744510 75.872164
v    39.424311 26.948770 82.762171
v    48.162923 33.112100 85.454679
v    53.270738 37.749335 87.155582
v    55.284316 39.570041 86.594432
v    21.220345 20.324619 70.333185
v    19.108699 20.894540 70.333185
v    19.670956 18.780840 70.333185
v    18.779655 19.675381 109.502323
v    20.891301 19.105460 109.502323
v    20.329044 21.219160 109.502323
v    21.045332 14.507724 106.525331
v    12.025104 12.962095 115.196806
v    7.791774 12.180264 117.900263
v    1.444752 11.145418 121.931310
v    -5.315679 9.956648 123.663330
v    -14.202307 8.632337 125.924563
v    -23.856675 8.333854 124.663612
v    18.178309 25.285760 106.525331
v    9.582299 22.145360 115.196806
v    5.520016 20.720508 117.900263
v    -0.502310 18.465031 121.931310
v    -6.959885 16.137730 123.663330
v    -15.329989 12.871644 125.924563
v    -23.856675 8.333854 124.663612
v    19.080303 19.618224 109.502323
v    20.790476 19.394407 109.502323
v    20.129221 20.987369 109.502323
v    20.919697 20.381776 151.379573
v    19.209524 20.605593 151.379573
v    19.870779 19.012631 151.379573
v    17.562658 26.222851 148.402581
v    24.485634 28.390370 155.276431
v    36.488813 32.290488 163.808560
v    45.064589 35.188763 166.095936
v    53.019395 37.715361 168.201971
v    58.669712 39.514804 166.947974
v    67.376053 42.041125 165.035789
v    72.358817 42.869406 163.991670
v    76.419894 43.420483 161.651131
v    22.686128 13.880423 148.402581
v    29.108925 17.252872 155.276431
v    40.345472 22.999806 163.808560
v    48.452697 27.026818 166.095936
v    55.858285 30.876479 168.201971
v    61.121888 33.607517 166.947974
v    69.057883 37.989602 165.035789
v    73.162411 40.933550 163.991670
v    76.419894 43.420483 161.651131
v    20.580517 20.477663 151.379573
v    19.296073 20.263911 151.379573
v    20.123410 19.258426 151.379573
v    19.419483 19.522337 189.501803
v    20.703927 19.736089 189.501803
v    19.876590 20.741574 189.501803
v    24.532134 14.664043 186.524811
v    21.015886 12.032583 190.698821
v    18.160773 10.085734 193.973265
v    13.464942 6.814590 197.979735
v    8.312202 3.204456 201.930790
v    -5.238265 -6.488761 206.140655
v    -17.050921 -14.627806 203.444474
v    -22.336204 -18.071354 202.113900
v    -28.343829 -21.179488 198.206776
v    -31.753994 -22.584391 195.023250
v    15.636717 25.474891 186.524811
v    12.377359 22.531225 190.698821
v    9.917118 20.104477 193.973265
v    5.802888 16.126498 197.979735
v    1.268022 11.765444 201.930790
v    -10.853284 0.335329 206.140655
v    -21.114845 -9.688806 203.444474
v    -25.511768 -14.212003 202.113900
v    -29.718663 -19.508614 198.206776
v    -31.753994 -22.584391 195.023250
v    19.633295 19.616325 189.501803
v    20.515625 19.874262 189.501803
v    19.851080 20.509414 189.501803
v    20.366705 20.383675 214.213697
v    19.484375 20.125738 214.213697
v    20.148920 19.490586 214.213697
v    14.892397 24.424691 211.236705
v    20.923435 29.692684 218.824494
v    29.771477 37.601488 226.642684
v    37.196389 44.387295 229.184353
v    42.703499 49.237778 231.036095
v    47.913043 53.833311 229.567058
v    54.864416 59.652340 227.654873
v    58.220938 61.847921 226.825794
v    62.502778 64.469719 223.958439
v    24.651073 15.097652 211.236705
v    29.641027 21.360680 218.824494
v    37.141741 30.557218 226.642684
v    43.584943 38.281313 229.184353
v    48.181501 44.002074 231.036095
v    52.536821 49.414048 229.567058
v    58.035641 56.621381 227.654873
v    60.077235 60.073730 226.825794
v    62.502778 64.469719 223.958439
v    20.232992 20.237460 214.213697
v    19.677858 20.083047 214.213697
v    20.089150 19.679493 214.213697
v    19.767008 19.762540 220.841000
v    20.322142 19.916953 220.841000
v    19.910850 20.320507 220.841000
v    23.170242 16.787928 214.823786
v    19.553613 14.565214 226.710624
v    18.114380 13.511982 229.700293
v    14.143972 10.893150 237.600193
v    7.502338 7.262701 244.013690
v    16.728302 23.108670 214.823786
v    14.574671 19.450483 226.710624
v    13.548961 17.991508 229.700293
v    11.006003 13.972082 237.600193
v    7.502338 7.262701 244.013690
mtllib usm_13_2.5D_2018-09-17_0.mtl
usemtl APPID_96542144_1597823842016 
o vid_3 
f 3 2 1
f 4 5 6
f 1 6 5
f 1 5 3
f 3 5 4
f 4 2 3
f 2 4 6
f 6 1 2
usemtl APPID_96542480_1597823843680 
o vid_4 
f 7 9 10
f 7 10 8
f 7 9 10
usemtl APPID_96542144_1597823842016 
o vid_5 
f 13 12 11
f 14 15 16
f 11 16 15
f 11 15 13
f 13 15 14
f 14 12 13
f 12 14 16
f 16 11 12
usemtl APPID_96542480_1597823843680 
o vid_6 
f 17 19 20
f 17 20 18
f 17 19 20
usemtl APPID_96542144_1597823842016 
o vid_7 
f 23 22 21
f 24 25 26
f 21 26 25
f 21 25 23
f 23 25 24
f 24 22 23
f 22 24 26
f 26 21 22
usemtl APPID_96542480_1597823843680 
o vid_8 
f 27 29 30
f 27 30 28
f 27 29 30
usemtl APPID_96542144_1597823842016 
o vid_9 
f 33 32 31
f 34 35 36
f 31 36 35
f 31 35 33
f 33 35 34
f 34 32 33
f 32 34 36
f 36 31 32
usemtl APPID_96542480_1597823843680 
o vid_10 
f 37 41 42
f 38 42 43
f 37 42 38
f 38 43 39
f 39 43 44
usemtl APPID_96542144_1597823842016 
o vid_11 
f 47 46 45
f 48 49 50
f 45 50 49
f 45 49 47
f 47 49 48
f 48 46 47
f 46 48 50
f 50 45 46
usemtl APPID_96542480_1597823843680 
o vid_12 
f 51 56 57
f 52 57 58
f 53 58 59
f 51 57 52
f 52 58 53
f 53 59 54
f 54 59 60
usemtl APPID_96542144_1597823842016 
o vid_13 
f 63 62 61
f 64 65 66
f 61 66 65
f 61 65 63
f 63 65 64
f 64 62 63
f 62 64 66
f 66 61 62
usemtl APPID_96542480_1597823843680 
o vid_14 
f 67 74 75
f 68 75 76
f 69 76 77
f 70 77 78
f 71 78 79
f 67 75 68
f 68 76 69
f 69 77 70
f 70 78 71
f 71 79 72
f 72 79 80
usemtl APPID_96542144_1597823842016 
o vid_15 
f 83 82 81
f 84 85 86
f 81 86 85
f 81 85 83
f 83 85 84
f 84 82 83
f 82 84 86
f 86 81 82
usemtl APPID_96542480_1597823843680 
o vid_16 
f 87 95 96
f 88 96 97
f 89 97 98
f 90 98 99
f 91 99 100
f 92 100 101
f 87 96 88
f 88 97 89
f 89 98 90
f 90 99 91
f 91 100 92
f 92 101 93
f 93 101 102
usemtl APPID_96542144_1597823842016 
o vid_17 
f 105 104 103
f 106 107 108
f 103 108 107
f 103 107 105
f 105 107 106
f 106 104 105
f 104 106 108
f 108 103 104
usemtl APPID_96542480_1597823843680 
o vid_18 
f 109 116 117
f 110 117 118
f 111 118 119
f 112 119 120
f 113 120 121
f 109 117 110
f 110 118 111
f 111 119 112
f 112 120 113
f 113 121 114
f 114 121 122
usemtl APPID_96542144_1597823842016 
o vid_19 
f 125 124 123
f 126 127 128
f 123 128 127
f 123 127 125
f 125 127 126
f 126 124 125
f 124 126 128
f 128 123 124
usemtl APPID_96542480_1597823843680 
o vid_20 
f 129 135 136
f 130 136 137
f 131 137 138
f 132 138 139
f 129 136 130
f 130 137 131
f 131 138 132
f 132 139 133
f 133 139 140
usemtl APPID_96542144_1597823842016 
o vid_21 
f 143 142 141
f 144 145 146
f 141 146 145
f 141 145 143
f 143 145 144
f 144 142 143
f 142 144 146
f 146 141 142
usemtl APPID_96542480_1597823843680 
o vid_22 
f 147 154 155
f 148 155 156
f 149 156 157
f 150 157 158
f 151 158 159
f 147 155 148
f 148 156 149
f 149 157 150
f 150 158 151
f 151 159 152
f 152 159 160
usemtl APPID_96542144_1597823842016 
o vid_23 
f 163 162 161
f 164 165 166
f 161 166 165
f 161 165 163
f 163 165 164
f 164 162 163
f 162 164 166
f 166 161 162
usemtl APPID_96542480_1597823843680 
o vid_24 
f 167 176 177
f 168 177 178
f 169 178 179
f 170 179 180
f 171 180 181
f 172 181 182
f 173 182 183
f 167 177 168
f 168 178 169
f 169 179 170
f 170 180 171
f 171 181 172
f 172 182 173
f 173 183 174
f 174 183 184
usemtl APPID_96542144_1597823842016 
o vid_25 
f 187 186 185
f 188 189 190
f 185 190 189
f 185 189 187
f 187 189 188
f 188 186 187
f 186 188 190
f 190 185 186
usemtl APPID_96542480_1597823843680 
o vid_26 
f 191 201 202
f 192 202 203
f 193 203 204
f 194 204 205
f 195 205 206
f 196 206 207
f 197 207 208
f 198 208 209
f 191 202 192
f 192 203 193
f 193 204 194
f 194 205 195
f 195 206 196
f 196 207 197
f 197 208 198
f 198 209 199
f 199 209 210
usemtl APPID_96542144_1597823842016 
o vid_27 
f 213 212 211
f 214 215 216
f 211 216 215
f 211 215 213
f 213 215 214
f 214 212 213
f 212 214 216
f 216 211 212
usemtl APPID_96542480_1597823843680 
o vid_28 
f 217 226 227
f 218 227 228
f 219 228 229
f 220 229 230
f 221 230 231
f 222 231 232
f 223 232 233
f 217 227 218
f 218 228 219
f 219 229 220
f 220 230 221
f 221 231 222
f 222 232 223
f 223 233 224
f 224 233 234
usemtl APPID_96542144_1597823842016 
o vid_29 
f 237 236 235
f 238 239 240
f 235 240 239
f 235 239 237
f 237 239 238
f 238 236 237
f 236 238 240
f 240 235 236
usemtl APPID_96542480_1597823843680 
o vid_30 
f 241 246 247
f 242 247 248
f 243 248 249
f 241 247 242
f 242 248 243
f 243 249 244
f 244 249 250
