# File generated by PlantGL - Fri Sep  4 14:42:42 2026
v    18.008338 219.029796 0.000000
v    21.836052 218.760272 0.000000
v    20.155610 222.209932 0.000000
v    21.991662 220.970204 0.848509
v    18.163948 221.239728 0.848509
v    19.844390 217.790068 0.848509
v    21.806322 221.324537 0.689211
v    22.163060 221.460546 1.043985
v    22.284404 221.504542 1.163735
v    22.953678 221.756562 1.645119
v    23.725702 222.057929 1.910764
v    24.359180 222.276667 2.124717
v    24.923680 222.398486 2.118289
v    22.156421 220.605845 0.689211
v    22.483418 220.802906 1.043985
v    22.592861 220.871333 1.163735
v    23.203862 221.242978 1.645119
v    23.917058 221.665109 1.910764
v    24.479786 222.029084 2.124717
v    24.923680 222.398486 2.118289
v    21.371711 221.098814 0.848509
v    18.362544 220.638530 0.848509
v    20.265745 218.262657 0.848509
v    18.628289 218.901186 1.417165
v    21.637456 219.361470 1.417165
v    19.734255 221.737343 1.417165
v    19.000662 218.462243 1.191725
v    18.459662 218.102883 1.795251
v    17.552591 217.506800 2.544531
v    16.463101 216.770600 2.966002
v    15.778040 216.346276 3.223260
v    14.909945 215.922594 3.212460
v    18.281202 219.360385 1.191725
v    17.812428 218.910862 1.795251
v    17.032739 218.155760 2.544531
v    16.076497 217.253220 2.966002
v    15.512882 216.677288 3.223260
v    14.909945 215.922594 3.212460
v    18.761703 219.518877 1.417165
v    21.035813 219.168165 1.417165
v    20.202484 221.312958 1.417165
v    21.238297 220.481123 2.253766
v    18.964187 220.831835 2.253766
v    19.797516 218.687042 2.253766
v    20.951183 221.158026 1.940991
v    21.919219 221.424063 2.872696
v    23.269699 221.808628 3.817872
v    24.129795 222.064779 4.105528
v    25.459927 222.404079 4.543766
v    26.149889 222.480930 4.759540
v    26.495021 222.523549 4.755676
v    21.483511 219.787940 1.940991
v    22.377226 220.245260 2.872696
v    23.633087 220.873352 3.817872
v    24.440503 221.265089 4.105528
v    25.650793 221.912834 4.543766
v    26.211650 222.321971 4.759540
v    26.495021 222.523549 4.755676
v    20.903263 220.213672 2.253766
v    19.363323 220.675412 2.253766
v    19.733414 219.110916 2.253766
v    19.096737 219.786328 3.118815
v    20.636677 219.324588 3.118815
v    20.266586 220.889084 3.118815
v    19.319941 218.975565 2.693397
v    17.964992 218.802809 3.960645
v    16.760770 218.634188 4.779141
v    16.066253 218.568949 5.246215
v    15.005519 218.450224 5.586965
v    13.610089 218.488430 6.020842
v    18.933030 220.611166 2.693397
v    17.644286 220.158540 3.960645
v    16.492146 219.769750 4.779141
v    15.842009 219.516904 5.246215
v    14.840505 219.147794 5.586965
v    13.610089 218.488430 6.020842
v    19.633250 219.581199 3.118815
v    20.546067 219.891785 3.118815
v    19.820683 220.527015 3.118815
v    20.366750 220.418801 3.456000
v    19.453933 220.108215 3.456000
v    20.179317 219.472985 3.456000
v    19.965975 221.198775 2.451361
v    20.011561 221.194091 2.933546
v    20.257077 221.124590 4.924679
v    20.392549 221.173674 5.513284
v    21.013034 221.156806 7.361029
v    21.192785 220.124439 2.451361
v    21.182126 220.169008 2.933546
v    21.080840 220.403208 4.924679
v    21.111621 220.543971 5.513284
v    21.013034 221.156806 7.361029
mtllib usm_24_2.5D_2018-07-14_5.mtl
usemtl APPID_2736915232_2060026016624 
o vid_3 
f 3 2 1
f 4 5 6
f 1 6 5
f 1 5 3
f 3 5 4
f 4 2 3
f 2 4 6
f 6 1 2
usemtl APPID_2736917472_2060026019184 
o vid_4 
f 7 14 15
f 8 15 16
f 9 16 17
f 10 17 18
f 11 18 19
f 7 15 8
f 8 16 9
f 9 17 10
f 10 18 11
f 11 19 12
f 12 19 20
usemtl APPID_2736915232_2060026016624 
o vid_5 
f 23 22 21
f 24 25 26
f 21 26 25
f 21 25 23
f 23 25 24
f 24 22 23
f 22 24 26
f 26 21 22
usemtl APPID_2736917472_2060026019184 
o vid_6 
f 27 33 34
f 28 34 35
f 29 35 36
f 30 36 37
f 27 34 28
f 28 35 29
f 29 36 30
f 30 37 31
f 31 37 38
usemtl APPID_2736915232_2060026016624 
o vid_7 
f 41 40 39
f 42 43 44
f 39 44 43
f 39 43 41
f 41 43 42
f 42 40 41
f 40 42 44
f 44 39 40
usemtl APPID_2736917472_2060026019184 
o vid_8 
f 45 52 53
f 46 53 54
f 47 54 55
f 48 55 56
f 49 56 57
f 45 53 46
f 46 54 47
f 47 55 48
f 48 56 49
f 49 57 50
f 50 57 58
usemtl APPID_2736915232_2060026016624 
o vid_9 
f 61 60 59
f 62 63 64
f 59 64 63
f 59 63 61
f 61 63 62
f 62 60 61
f 60 62 64
f 64 59 60
usemtl APPID_2736917472_2060026019184 
o vid_10 
f 65 71 72
f 66 72 73
f 67 73 74
f 68 74 75
f 65 72 66
f 66 73 67
f 67 74 68
f 68 75 69
f 69 75 76
usemtl APPID_2736915232_2060026016624 
o vid_11 
f 79 78 77
f 80 81 82
f 77 82 81
f 77 81 79
f 79 81 80
f 80 78 79
f 78 80 82
f 82 77 78
usemtl APPID_2736917472_2060026019184 
o vid_12 
f 83 88 89
f 84 89 90
f 85 90 91
f 83 89 84
f 84 90 85
f 85 91 86
f 86 91 92
