# File generated by PlantGL - Fri Sep  4 14:41:36 2026
v    17.752484 178.905161 0.000000
v    22.071916 178.601013 0.000000
v    20.175600 182.493825 0.000000
v    22.247516 181.094839 0.362700
v    17.928084 181.398987 0.362700
v    19.824400 177.506175 0.362700
v    22.062188 181.448144 0.197284
v    22.261606 181.524173 0.395604
v    22.559950 181.632345 0.690029
v    23.254924 181.894042 1.189898
v    23.834764 182.120389 1.389415
v    24.520992 182.357340 1.621183
v    24.731671 182.398654 1.687912
v    25.067995 182.468787 1.684095
v    22.411472 180.731123 0.197284
v    22.594265 180.841281 0.395604
v    22.863348 181.009521 0.690029
v    23.497811 181.395436 1.189898
v    24.033468 181.712485 1.389415
v    24.643054 182.106767 1.621183
v    24.805454 182.247192 1.687912
v    25.067995 182.468787 1.684095
v    21.639231 181.313111 0.362700
v    18.043197 180.763060 0.362700
v    20.317572 177.923829 0.362700
v    18.360769 178.686889 0.589630
v    21.956803 179.236940 0.589630
v    19.682428 182.076171 0.589630
v    18.723383 178.260985 0.356738
v    18.495086 178.109338 0.611421
v    18.096635 177.853993 1.050484
v    17.223353 177.279074 1.754260
v    16.525690 176.807643 2.024152
v    15.656745 176.269422 2.350463
v    15.347811 176.133042 2.455423
v    14.941428 175.947814 2.450461
v    18.024277 179.133718 0.356738
v    17.826458 178.944023 0.611421
v    17.490304 178.610910 1.050484
v    16.738644 177.884163 1.754260
v    16.126307 177.306215 2.024152
v    15.411407 176.575692 2.350463
v    15.210887 176.303972 2.455423
v    14.941428 175.947814 2.450461
v    18.454425 179.399489 0.589630
v    21.292846 178.961748 0.589630
v    20.252729 181.638763 0.589630
v    21.545575 180.600511 1.053978
v    18.707154 181.038252 1.053978
v    19.747271 178.361237 1.053978
v    21.245356 181.309408 0.732433
v    21.582501 181.406914 1.058564
v    22.239595 181.585319 1.690262
v    23.627941 181.980667 2.661940
v    24.707894 182.302295 3.023126
v    26.075321 182.651108 3.473651
v    26.575297 182.706798 3.630010
v    27.148995 182.777641 3.623587
v    21.802721 179.874879 0.732433
v    22.117258 180.030575 1.058564
v    22.722433 180.342607 1.690262
v    24.013507 180.988310 2.661940
v    25.027314 181.480183 3.023126
v    26.271539 182.146090 3.473651
v    26.677960 182.442568 3.630010
v    27.148995 182.777641 3.623587
v    21.211307 180.286542 1.053978
v    19.146194 180.905752 1.053978
v    19.642499 178.807706 1.053978
v    18.788693 179.713458 1.828692
v    20.853806 179.094248 1.828692
v    20.357501 181.192294 1.828692
v    19.062947 178.689987 1.393341
v    18.400513 178.594452 2.015277
v    17.678904 178.502447 2.690179
v    15.743330 178.231418 4.005767
v    13.985404 177.963660 4.575740
v    12.086568 177.751130 5.185722
v    10.610807 177.778932 5.304745
v    18.575324 180.751332 1.393341
v    17.940296 180.539946 2.015277
v    17.253945 180.298889 2.690179
v    15.402084 179.673978 4.005767
v    13.710507 179.125737 4.575740
v    11.917701 178.464987 5.185722
v    10.610807 177.778932 5.304745
v    19.433344 179.352923 1.828692
v    20.843713 179.832800 1.828692
v    19.722943 180.814277 1.828692
v    20.566656 180.647077 2.610000
v    19.156287 180.167200 2.610000
v    20.277057 179.185723 2.610000
v    19.614908 181.419925 1.452473
v    20.901879 182.592982 3.290072
v    22.674972 184.257918 5.165643
v    24.520953 185.901764 6.150575
v    26.067355 186.928451 6.857418
v    21.458321 179.805619 1.452473
v    22.451320 181.236112 3.290072
v    23.867759 183.213376 5.165643
v    25.253675 185.260108 6.150575
v    26.067355 186.928451 6.857418
mtllib usm_23_Beer_2018-08-03_4.mtl
usemtl APPID_2429268400_2600884095712 
o vid_3 
f 3 2 1
f 4 5 6
f 1 6 5
f 1 5 3
f 3 5 4
f 4 2 3
f 2 4 6
f 6 1 2
usemtl APPID_2429272768_2600884096352 
o vid_4 
f 7 15 16
f 8 16 17
f 9 17 18
f 10 18 19
f 11 19 20
f 12 20 21
f 7 16 8
f 8 17 9
f 9 18 10
f 10 19 11
f 11 20 12
f 12 21 13
f 13 21 22
usemtl APPID_2429268400_2600884095712 
o vid_5 
f 25 24 23
f 26 27 28
f 23 28 27
f 23 27 25
f 25 27 26
f 26 24 25
f 24 26 28
f 28 23 24
usemtl APPID_2429272768_2600884096352 
o vid_6 
f 29 37 38
f 30 38 39
f 31 39 40
f 32 40 41
f 33 41 42
f 34 42 43
f 29 38 30
f 30 39 31
f 31 40 32
f 32 41 33
f 33 42 34
f 34 43 35
f 35 43 44
usemtl APPID_2429268400_2600884095712 
o vid_7 
f 47 46 45
f 48 49 50
f 45 50 49
f 45 49 47
f 47 49 48
f 48 46 47
f 46 48 50
f 50 45 46
usemtl APPID_2429272768_2600884096352 
o vid_8 
f 51 59 60
f 52 60 61
f 53 61 62
f 54 62 63
f 55 63 64
f 56 64 65
f 51 60 52
f 52 61 53
f 53 62 54
f 54 63 55
f 55 64 56
f 56 65 57
f 57 65 66
usemtl APPID_2429268400_2600884095712 
o vid_9 
f 69 68 67
f 70 71 72
f 67 72 71
f 67 71 69
f 69 71 70
f 70 68 69
f 68 70 72
f 72 67 68
usemtl APPID_2429272768_2600884096352 
o vid_10 
f 73 80 81
f 74 81 82
f 75 82 83
f 76 83 84
f 77 84 85
f 73 81 74
f 74 82 75
f 75 83 76
f 76 84 77
f 77 85 78
f 78 85 86
usemtl APPID_2429268400_2600884095712 
o vid_11 
f 89 88 87
f 90 91 92
f 87 92 91
f 87 91 89
f 89 91 90
f 90 88 89
f 88 90 92
f 92 87 88
usemtl APPID_2429272768_2600884096352 
o vid_12 
f 93 98 99
f 94 99 100
f 95 100 101
f 93 99 94
f 94 100 95
f 95 101 96
f 96 101 102
