# File generated by PlantGL - Fri Sep  4 14:44:34 2026
v    17.752484 378.905161 0.000000
v    22.071916 378.601013 0.000000
v    20.175600 382.493825 0.000000
v    22.247516 381.094839 0.848509
v    17.928084 381.398987 0.848509
v    19.824400 377.506175 0.848509
v    22.074151 381.428408 0.712486
v    22.462129 381.576327 1.098328
v    22.403306 380.752709 0.712486
v    22.758939 380.967026 1.098328
v    21.879284 381.505407 0.848509
v    17.756638 380.874804 0.848509
v    20.364078 377.619789 0.848509
v    18.120716 378.494593 1.417165
v    22.243362 379.125196 1.417165
v    19.635922 382.380211 1.417165
v    18.474463 378.075510 1.221241
v    18.175273 377.876772 1.555011
v    17.788945 378.931281 1.221241
v    17.529697 378.682680 1.555011
v    17.841416 379.161313 1.417165
v    21.805616 378.549955 1.417165
v    20.352968 382.288732 1.417165
v    22.158584 380.838687 2.253766
v    18.194384 381.450045 2.253766
v    19.647032 377.711268 2.253766
v    21.884467 381.489362 1.977387
v    22.277259 381.602962 2.357347
v    22.395677 380.173628 1.977387
v    22.762129 380.355021 2.357347
v    22.163962 380.511898 2.253766
v    18.474702 381.618097 2.253766
v    19.361335 377.870005 2.253766
v    17.836038 379.488102 4.112548
v    21.525298 378.381903 4.112548
v    20.638665 382.129995 4.112548
v    18.092464 378.523291 3.730721
v    17.052862 378.373360 4.706766
v    17.633012 380.465546 3.730721
v    16.636419 380.133803 4.706766
v    18.595695 378.396392 4.112548
v    22.090917 379.585640 4.112548
v    19.313387 382.017967 4.112548
v    21.404305 381.603608 5.999272
v    17.909083 380.414360 5.999272
v    20.686613 377.982033 5.999272
v    20.322641 382.501493 5.482651
v    20.689427 382.851859 5.954001
v    22.437055 380.649867 5.482651
v    22.735965 381.059674 5.954001
v    21.718982 381.097521 5.999272
v    18.190028 380.939922 5.999272
v    20.090990 377.962557 5.999272
v    18.281018 378.902479 11.505015
v    21.809972 379.060078 11.505015
v    19.909010 382.037443 11.505015
v    19.264432 377.453626 10.820438
v    17.482886 376.528005 12.686052
v    17.315422 376.444459 12.859680
v    17.293233 376.433046 12.876476
v    17.380527 380.404275 10.820438
v    15.791155 379.177662 12.686052
v    15.644896 379.060905 12.859680
v    15.625205 379.045579 12.876476
v    18.420020 378.861621 11.505015
v    21.775855 379.200887 11.505015
v    19.804125 381.937492 11.505015
v    21.579980 381.138379 19.658889
v    18.224145 380.799113 19.658889
v    20.195875 378.062508 19.658889
v    20.075274 383.117586 18.770471
v    20.346201 383.278262 19.063175
v    22.981096 379.084535 18.770471
v    23.219271 379.290669 19.063175
v    21.554633 381.012481 19.658889
v    18.345849 380.840111 19.658889
v    20.099518 378.147408 19.658889
v    18.445367 378.987519 30.873903
v    21.654151 379.159889 30.873903
v    19.900482 381.852592 30.873903
v    20.202866 376.437610 29.744739
v    18.033802 375.285637 32.026967
v    16.823848 381.625988 29.744739
v    14.893191 380.107949 32.026967
v    18.458123 379.144816 30.873903
v    21.511550 379.092287 30.873903
v    20.030327 381.762897 30.873903
v    21.541877 380.855184 48.397355
v    18.488450 380.907713 48.397355
v    19.969673 378.237103 48.397355
v    19.472744 384.377553 46.991824
v    19.697396 384.477161 47.220182
v    23.434367 377.234843 46.991824
v    23.637817 377.372677 47.220182
v    21.614895 380.429572 48.397355
v    18.820532 381.183754 48.397355
v    19.564573 378.386674 48.397355
v    18.385105 379.570428 69.758548
v    21.179468 378.816246 69.758548
v    20.435427 381.613326 69.758548
v    19.793134 374.756161 68.045109
v    14.380618 373.821517 73.149157
v    10.156044 373.046927 76.043833
v    17.215046 384.447996 68.045109
v    12.053501 382.569875 73.149157
v    8.002416 381.143088 76.043833
v    18.541706 379.394647 69.758548
v    21.253398 379.039757 69.758548
v    20.204896 381.565597 69.758548
v    21.458294 380.605353 89.607729
v    18.746602 380.960243 89.607729
v    19.795104 378.434403 89.607729
v    19.234428 385.579227 87.562032
v    25.490677 387.544783 93.655820
v    27.501402 388.199571 95.081021
v    32.546772 389.761938 98.636275
v    23.410631 375.518764 87.562032
v    29.219674 378.561636 93.655820
v    31.103007 379.523312 95.081021
v    35.771608 381.993315 98.636275
v    21.148136 380.944713 89.607729
v    18.607786 380.521958 89.607729
v    20.244078 378.533328 89.607729
v    18.851864 379.055287 113.503741
v    21.392214 379.478042 113.503741
v    19.755922 381.466672 113.503741
v    22.903646 374.401559 111.111757
v    16.629051 370.113950 118.173699
v    7.680965 364.054299 125.465414
v    4.852114 362.088211 126.569645
v    15.065533 383.927435 111.111757
v    9.649828 378.595993 118.173699
v    1.980395 370.982361 125.465414
v    -0.493668 368.585088 126.569645
v    19.036323 378.991726 113.503741
v    21.355030 379.669568 113.503741
v    19.608648 381.338706 113.503741
v    20.963677 381.008274 130.408186
v    18.644970 380.330432 130.408186
v    20.391352 378.661294 130.408186
v    15.862020 385.612009 127.669013
v    20.766363 389.904397 133.725355
v    22.496511 391.369208 135.828551
v    31.783294 399.430016 144.106064
v    37.609217 404.611069 146.605086
v    25.793342 376.119960 127.669013
v    29.859625 381.213340 133.725355
v    31.244721 383.007940 135.828551
v    38.877449 392.649643 144.106064
v    43.789825 398.703836 146.605086
v    20.912312 380.929805 130.408186
v    18.738610 380.325183 130.408186
v    20.349079 378.745013 130.408186
v    19.087688 379.070195 146.719517
v    21.261390 379.674817 146.719517
v    19.650921 381.254987 146.719517
v    24.875870 373.700171 143.647488
v    17.696859 367.581352 152.412939
v    6.843197 358.414020 162.081916
v    -5.852111 347.418730 167.465226
v    13.608711 384.755352 143.647488
v    7.627330 377.461435 152.412939
v    -1.332230 366.435636 162.081916
v    -12.084443 353.533808 167.465226
v    19.188946 379.101354 146.719517
v    21.183778 379.746930 146.719517
v    19.627277 381.151717 146.719517
v    20.811054 380.898646 158.181033
v    18.816222 380.253070 158.181033
v    20.372723 378.848283 158.181033
v    14.317491 386.432665 154.806797
v    20.756794 392.401873 162.966019
v    22.274970 393.763568 164.858080
v    33.426464 404.016037 175.054689
v    46.862415 416.670484 180.970762
v    49.169073 418.676350 181.946643
v    26.979717 375.004640 154.806797
v    32.259598 382.020260 162.966019
v    33.459011 383.669648 164.858080
v    42.518156 395.810521 175.054689
v    53.733240 410.469365 180.970762
v    55.492872 412.968939 181.946643
v    21.097812 380.213714 158.181033
v    19.266012 380.843876 158.181033
v    19.636176 378.942409 158.181033
v    18.902188 379.786286 164.602048
v    20.733988 379.156124 164.602048
v    20.363824 381.057591 164.602048
v    20.785864 371.475107 160.972355
v    18.728318 371.261982 162.894560
v    9.182153 370.431306 171.784604
v    -7.032974 368.819065 182.753183
v    -17.226469 367.681515 186.040819
v    -24.897917 367.132495 188.496166
v    17.530536 388.197142 160.972355
v    15.543298 387.622856 162.894560
v    6.382655 384.811822 171.784604
v    -9.253119 380.223554 182.753183
v    -19.128937 377.454151 186.040819
v    -26.446112 375.085291 188.496166
v    19.208315 379.346885 164.602048
v    20.961457 379.640938 164.602048
v    19.830228 381.012177 164.602048
v    20.791685 380.653115 168.440627
v    19.038543 380.359062 168.440627
v    20.169772 378.987823 168.440627
v    15.177373 387.026818 164.616706
v    25.418134 393.799517 176.007527
v    39.619433 403.444748 187.563042
v    43.216462 405.951551 188.968378
v    53.708254 412.661041 192.944183
v    25.982082 373.929695 164.616706
v    34.577786 382.696479 176.007527
v    46.746440 394.805618 187.563042
v    49.891235 397.860605 188.968378
v    58.472597 406.885857 192.944183
v    20.747035 380.560971 168.440627
v    19.140667 380.366465 168.440627
v    20.112298 379.072563 168.440627
v    19.252965 379.439029 171.309825
v    20.859333 379.633535 171.309825
v    19.887702 380.927437 171.309825
v    24.859703 372.444776 167.364413
v    13.985477 365.946733 179.117134
v    -1.106206 356.674607 191.039782
v    -7.024449 352.939686 193.282947
v    -21.262562 344.725491 198.530616
v    14.099633 386.773758 167.364413
v    4.826998 378.142908 179.117134
v    -8.285748 366.235468 191.039782
v    -13.522858 361.593495 193.282947
v    -25.381614 350.210755 198.530616
v    19.310251 379.516898 171.309825
v    20.763253 379.644211 171.309825
v    19.926496 380.838891 171.309825
v    20.689749 380.483102 172.803360
v    19.236747 380.355789 172.803360
v    20.073504 379.161109 172.803360
v    15.690148 387.121920 168.816600
v    26.889619 393.320822 180.692491
v    40.811219 401.251745 191.477379
v    56.020117 409.329318 197.635820
v    58.541258 410.253432 198.470400
v    25.220058 373.515591 168.816600
v    34.873364 381.922031 180.692491
v    47.084744 392.294720 191.477379
v    59.873908 403.827068 197.635820
v    61.604034 405.880553 198.470400
v    20.580333 380.414024 172.803360
v    19.351278 380.295572 172.803360
v    20.068388 379.290405 172.803360
v    19.419667 379.585976 174.154000
v    20.648722 379.704428 174.154000
v    19.931612 380.709595 174.154000
v    24.951098 372.320768 170.208588
v    13.928786 366.079894 181.961309
v    -1.384780 357.179001 193.883957
v    -9.297606 352.451442 196.838477
v    -24.503181 344.167187 202.366501
v    -28.807382 342.546970 203.795934
v    14.349818 387.180489 170.208588
v    4.861897 378.788873 181.961309
v    -8.537664 367.205135 193.883957
v    -15.582792 361.261333 196.838477
v    -28.364135 349.579052 202.366501
v    -31.296776 346.036332 203.795934
v    22.462129 381.576327 1.098328
v    22.774214 381.698815 1.329598
v    23.051065 381.803065 1.528727
v    24.180316 382.243880 1.917291
v    24.768496 382.450363 1.931902
v    25.099857 382.519461 1.928141
v    25.224206 382.544882 1.905659
v    22.758939 380.967026 1.098328
v    23.047765 381.137262 1.329598
v    23.300511 381.290995 1.528727
v    24.343713 381.908454 1.917291
v    24.868870 382.244313 1.931902
v    25.127537 382.462638 1.928141
v    25.224206 382.544882 1.905659
v    18.175273 377.876772 1.555011
v    17.951303 377.728000 1.804865
v    17.503511 377.423790 2.169717
v    17.221576 377.238180 2.396928
v    15.696795 376.207841 2.986792
v    14.925749 375.723761 2.976427
v    14.581997 375.567081 2.972230
v    14.316817 375.447468 2.920698
v    17.529697 378.682680 1.555011
v    17.335629 378.496581 1.804865
v    16.941018 378.125982 2.169717
v    16.698348 377.891355 2.396928
v    15.360052 376.628217 2.986792
v    14.719354 375.981415 2.976427
v    14.491425 375.680148 2.972230
v    14.316817 375.447468 2.920698
v    22.277259 381.602962 2.357347
v    22.653474 381.711768 2.721273
v    23.929396 382.074007 3.635862
v    25.479703 382.535714 4.154356
v    26.431519 382.778510 4.467951
v    27.608283 382.956091 4.454643
v    22.762129 380.355021 2.357347
v    23.113116 380.528759 2.721273
v    24.298903 381.122982 3.635862
v    25.754255 381.829082 4.154356
v    26.620314 382.292595 4.467951
v    27.608283 382.956091 4.454643
v    17.052862 378.373360 4.706766
v    15.183928 378.108634 6.021961
v    12.643856 377.721742 6.845528
v    11.629066 377.608161 7.171520
v    10.946619 377.527807 7.163697
v    9.634818 377.548056 7.149120
v    16.636419 380.133803 4.706766
v    14.846959 379.533115 6.021961
v    12.402757 378.740948 6.845528
v    11.444632 378.387825 7.171520
v    10.798513 378.153899 7.163697
v    9.634818 377.548056 7.149120
v    20.689427 382.851859 5.954001
v    21.520176 383.645419 7.021579
v    22.174401 384.283510 7.637500
v    23.193831 385.249320 8.582757
v    26.266555 388.231400 9.955240
v    26.693193 388.613773 10.138140
v    28.010849 389.808431 10.117891
v    29.355546 390.735988 10.099741
v    29.470583 390.814675 10.075053
v    22.735965 381.059674 5.954001
v    23.412978 381.987862 7.021579
v    23.959172 382.720557 7.637500
v    24.782036 383.858504 8.582757
v    27.332630 387.297821 9.955240
v    27.655370 387.771179 10.138140
v    28.665732 389.234939 10.117891
v    29.407762 390.690262 10.099741
v    29.470583 390.814675 10.075053
v    17.293233 376.433046 12.876476
v    14.582420 375.038737 14.928406
v    11.013185 373.148244 16.223035
v    8.848773 372.109633 16.989453
v    8.278951 371.832163 16.982237
v    6.046525 371.091104 16.956102
v    15.625205 379.045579 12.876476
v    13.219618 377.173213 14.928406
v    10.002685 374.730931 16.223035
v    8.149700 373.204548 16.989453
v    7.658207 372.804399 16.982237
v    6.046525 371.091104 16.956102
v    20.346201 383.278262 19.063175
v    22.524833 384.570317 21.416921
v    24.616666 385.840508 23.066296
v    25.942837 386.619652 24.101634
v    33.086282 390.932986 26.776381
v    36.682285 392.942154 26.729483
v    38.283888 393.575609 26.710347
v    39.503924 394.052623 26.478299
v    23.219271 379.290669 19.063175
v    25.134527 380.948270 21.416921
v    27.001566 382.530456 23.066296
v    28.160441 383.541793 24.101634
v    34.513214 388.952516 26.776381
v    37.557374 391.727601 26.729483
v    38.665240 393.046324 26.710347
v    39.503924 394.052623 26.478299
v    18.033802 375.285637 32.026967
v    17.006060 374.739811 33.108328
v    14.979483 373.636319 34.663522
v    12.537661 372.352330 36.520550
v    3.993846 367.727633 39.634586
v    -0.624725 365.432531 39.871570
v    -3.638888 364.401640 39.836176
v    -4.286595 364.182949 39.715078
v    14.893191 380.107949 32.026967
v    13.978410 379.388674 33.108328
v    12.149708 377.981352 34.663522
v    9.988018 376.267227 36.520550
v    2.303572 370.322997 39.634586
v    -1.663051 367.026848 39.871570
v    -3.824680 364.686918 39.836176
v    -4.286595 364.182949 39.715078
v    19.697396 384.477161 47.220182
v    23.591638 386.203827 51.178667
v    28.872663 388.611456 55.090326
v    41.355325 394.258297 59.657655
v    43.513927 395.246031 59.630531
v    49.499450 397.715622 59.556815
v    53.071616 398.647177 58.957110
v    54.080462 398.902337 58.647608
v    23.637817 377.372677 47.220182
v    27.164543 379.761965 51.178667
v    32.003230 382.967119 55.090326
v    43.402997 390.566393 59.657655
v    45.383869 391.874570 59.630531
v    50.648145 395.644553 59.556815
v    53.329830 398.181623 58.957110
v    54.080462 398.902337 58.647608
v    10.156044 373.046927 76.043833
v    6.967466 372.462291 78.228644
v    -9.013782 369.574907 83.485625
v    -12.406968 368.947883 83.446197
v    -20.049283 367.832665 83.358270
v    -24.145354 367.776012 82.631612
v    -25.962768 367.773621 82.091072
v    8.002416 381.143088 76.043833
v    4.944782 380.066194 78.228644
v    -10.358892 374.631596 83.485625
v    -13.615153 373.489826 83.446197
v    -20.801511 370.660526 83.358270
v    -24.384367 368.674536 82.631612
v    -25.962768 367.773621 82.091072
v    32.546772 389.761938 98.636275
v    34.251771 390.289914 99.837714
v    48.741583 394.968684 104.718306
v    52.597959 396.046940 105.996659
v    57.617926 397.481667 105.937220
v    64.572425 398.502476 105.859123
v    35.771608 381.993315 98.636275
v    37.349284 382.828012 99.837714
v    50.892885 389.786203 104.718306
v    54.379186 391.755968 105.996659
v    58.939459 394.298098 105.937220
v    64.572425 398.502476 105.859123
v    4.852114 362.088211 126.569645
v    -4.532272 355.565942 130.232804
v    -10.960923 351.466389 132.666918
v    -13.494676 349.830074 132.632580
v    -20.927963 346.323519 132.541263
v    -0.493668 368.585088 126.569645
v    -8.701083 360.632414 130.232804
v    -13.961921 355.113584 132.666918
v    -16.055553 352.942379 132.632580
v    -20.927963 346.323519 132.541263
v    37.609217 404.611069 146.605086
v    42.386059 408.859163 148.654106
v    51.342306 416.208813 152.352847
v    59.667164 421.502879 152.243065
v    43.789825 398.703836 146.605086
v    47.817623 403.667843 148.654106
v    54.754864 412.947197 152.352847
v    59.667164 421.502879 152.243065
v    -5.852111 347.418730 167.465226
v    -7.273984 346.187259 168.068156
v    -15.258655 339.808294 171.330821
v    -17.922100 337.655295 171.291830
v    -26.936482 332.163532 171.174552
v    -12.084443 353.533808 167.465226
v    -13.288689 352.088805 168.068156
v    -19.514869 343.984433 171.330821
v    -21.616899 341.280581 171.291830
v    -26.936482 332.163532 171.174552
v    49.169073 418.676350 181.946643
v    56.890710 425.391072 185.213444
v    58.088111 426.444465 185.195288
v    67.729256 432.883909 185.066472
v    55.492872 412.968939 181.946643
v    61.383313 421.336369 185.213444
v    62.308820 422.635153 185.195288
v    67.729256 432.883909 185.066472
v    -24.897917 367.132495 188.496166
v    -33.116031 366.544353 191.126481
v    -41.316397 367.097809 193.681041
v    -45.175761 367.312041 193.638095
v    -26.446112 375.085291 188.496166
v    -34.284706 372.547627 191.126481
v    -41.678602 368.958390 193.681041
v    -45.175761 367.312041 193.638095
v    53.708254 412.661041 192.944183
v    57.355215 414.993269 194.326178
v    68.760008 420.225451 198.226141
v    58.472597 406.885857 192.944183
v    61.455489 410.023047 194.326178
v    68.760008 420.225451 198.226141
v    -21.262562 344.725491 198.530616
v    -22.023228 344.286650 198.810971
v    -34.024627 339.431260 202.834839
v    -25.381614 350.210755 198.530616
v    -26.015164 349.602636 198.810971
v    -34.024627 339.431260 202.834839
v    58.541258 410.253432 198.470400
v    68.303018 413.831568 201.701860
v    61.604034 405.880553 198.470400
v    68.303018 413.831568 201.701860
v    -28.807382 342.546970 203.795934
v    -34.728480 340.318110 205.762342
v    -36.699624 339.549134 205.738834
v    -31.296776 346.036332 203.795934
v    -35.331080 341.162770 205.762342
v    -36.699624 339.549134 205.738834
mtllib usm_10_2.5D_2018-09-06_9.mtl
usemtl APPID_3001563088_1759648392288 
o vid_3 
f 3 2 1
f 4 5 6
f 1 6 5
f 1 5 3
f 3 5 4
f 4 2 3
f 2 4 6
f 6 1 2
usemtl APPID_3001565216_1759648392032 
o vid_4 
f 7 9 10
f 7 10 8
f 7 9 10
f 7 10 8
usemtl APPID_3001563088_1759648392288 
o vid_5 
f 13 12 11
f 14 15 16
f 11 16 15
f 11 15 13
f 13 15 14
f 14 12 13
f 12 14 16
f 16 11 12
usemtl APPID_3001565216_1759648392032 
o vid_6 
f 17 19 20
f 17 20 18
f 17 19 20
f 17 20 18
usemtl APPID_3001563088_1759648392288 
o vid_7 
f 23 22 21
f 24 25 26
f 21 26 25
f 21 25 23
f 23 25 24
f 24 22 23
f 22 24 26
f 26 21 22
usemtl APPID_3001565216_1759648392032 
o vid_8 
f 27 29 30
f 27 30 28
f 27 29 30
f 27 30 28
usemtl APPID_3001563088_1759648392288 
o vid_9 
f 33 32 31
f 34 35 36
f 31 36 35
f 31 35 33
f 33 35 34
f 34 32 33
f 32 34 36
f 36 31 32
usemtl APPID_3001565216_1759648392032 
o vid_10 
f 37 39 40
f 37 40 38
f 37 39 40
f 37 40 38
usemtl APPID_3001563088_1759648392288 
o vid_11 
f 43 42 41
f 44 45 46
f 41 46 45
f 41 45 43
f 43 45 44
f 44 42 43
f 42 44 46
f 46 41 42
usemtl APPID_3001565216_1759648392032 
o vid_12 
f 47 49 50
f 47 50 48
f 47 49 50
f 47 50 48
usemtl APPID_3001563088_1759648392288 
o vid_13 
f 53 52 51
f 54 55 56
f 51 56 55
f 51 55 53
f 53 55 54
f 54 52 53
f 52 54 56
f 56 51 52
usemtl APPID_3001565216_1759648392032 
o vid_14 
f 57 61 62
f 58 62 63
f 57 62 58
f 58 63 59
f 59 63 64
f 59 64 60
usemtl APPID_3001563088_1759648392288 
o vid_15 
f 67 66 65
f 68 69 70
f 65 70 69
f 65 69 67
f 67 69 68
f 68 66 67
f 66 68 70
f 70 65 66
usemtl APPID_3001565216_1759648392032 
o vid_16 
f 71 73 74
f 71 74 72
f 71 73 74
f 71 74 72
usemtl APPID_3001563088_1759648392288 
o vid_17 
f 77 76 75
f 78 79 80
f 75 80 79
f 75 79 77
f 77 79 78
f 78 76 77
f 76 78 80
f 80 75 76
usemtl APPID_3001565216_1759648392032 
o vid_18 
f 81 83 84
f 81 84 82
f 81 83 84
f 81 84 82
usemtl APPID_3001563088_1759648392288 
o vid_19 
f 87 86 85
f 88 89 90
f 85 90 89
f 85 89 87
f 87 89 88
f 88 86 87
f 86 88 90
f 90 85 86
usemtl APPID_3001565216_1759648392032 
o vid_20 
f 91 93 94
f 91 94 92
f 91 93 94
f 91 94 92
usemtl APPID_3001563088_1759648392288 
o vid_21 
f 97 96 95
f 98 99 100
f 95 100 99
f 95 99 97
f 97 99 98
f 98 96 97
f 96 98 100
f 100 95 96
usemtl APPID_3001565216_1759648392032 
o vid_22 
f 101 104 105
f 101 105 102
f 102 105 106
f 102 106 103
usemtl APPID_3001563088_1759648392288 
o vid_23 
f 109 108 107
f 110 111 112
f 107 112 111
f 107 111 109
f 109 111 110
f 110 108 109
f 108 110 112
f 112 107 108
usemtl APPID_3001565216_1759648392032 
o vid_24 
f 113 117 118
f 114 118 119
f 113 118 114
f 114 119 115
f 115 119 120
f 115 120 116
usemtl APPID_3001563088_1759648392288 
o vid_25 
f 123 122 121
f 124 125 126
f 121 126 125
f 121 125 123
f 123 125 124
f 124 122 123
f 122 124 126
f 126 121 122
usemtl APPID_3001565216_1759648392032 
o vid_26 
f 127 131 132
f 128 132 133
f 127 132 128
f 128 133 129
f 129 133 134
f 129 134 130
usemtl APPID_3001563088_1759648392288 
o vid_27 
f 137 136 135
f 138 139 140
f 135 140 139
f 135 139 137
f 137 139 138
f 138 136 137
f 136 138 140
f 140 135 136
usemtl APPID_3001565216_1759648392032 
o vid_28 
f 141 146 147
f 142 147 148
f 143 148 149
f 141 147 142
f 142 148 143
f 143 149 144
f 144 149 150
f 144 150 145
usemtl APPID_3001563088_1759648392288 
o vid_29 
f 153 152 151
f 154 155 156
f 151 156 155
f 151 155 153
f 153 155 154
f 154 152 153
f 152 154 156
f 156 151 152
usemtl APPID_3001565216_1759648392032 
o vid_30 
f 157 161 162
f 158 162 163
f 157 162 158
f 158 163 159
f 159 163 164
f 159 164 160
usemtl APPID_3001563088_1759648392288 
o vid_31 
f 167 166 165
f 168 169 170
f 165 170 169
f 165 169 167
f 167 169 168
f 168 166 167
f 166 168 170
f 170 165 166
usemtl APPID_3001565216_1759648392032 
o vid_32 
f 171 177 178
f 172 178 179
f 173 179 180
f 174 180 181
f 171 178 172
f 172 179 173
f 173 180 174
f 174 181 175
f 175 181 182
f 175 182 176
usemtl APPID_3001563088_1759648392288 
o vid_33 
f 185 184 183
f 186 187 188
f 183 188 187
f 183 187 185
f 185 187 186
f 186 184 185
f 184 186 188
f 188 183 184
usemtl APPID_3001565216_1759648392032 
o vid_34 
f 189 195 196
f 190 196 197
f 191 197 198
f 192 198 199
f 189 196 190
f 190 197 191
f 191 198 192
f 192 199 193
f 193 199 200
f 193 200 194
usemtl APPID_3001563088_1759648392288 
o vid_35 
f 203 202 201
f 204 205 206
f 201 206 205
f 201 205 203
f 203 205 204
f 204 202 203
f 202 204 206
f 206 201 202
usemtl APPID_3001565216_1759648392032 
o vid_36 
f 207 212 213
f 208 213 214
f 209 214 215
f 207 213 208
f 208 214 209
f 209 215 210
f 210 215 216
f 210 216 211
usemtl APPID_3001563088_1759648392288 
o vid_37 
f 219 218 217
f 220 221 222
f 217 222 221
f 217 221 219
f 219 221 220
f 220 218 219
f 218 220 222
f 222 217 218
usemtl APPID_3001565216_1759648392032 
o vid_38 
f 223 228 229
f 224 229 230
f 225 230 231
f 223 229 224
f 224 230 225
f 225 231 226
f 226 231 232
f 226 232 227
usemtl APPID_3001563088_1759648392288 
o vid_39 
f 235 234 233
f 236 237 238
f 233 238 237
f 233 237 235
f 235 237 236
f 236 234 235
f 234 236 238
f 238 233 234
usemtl APPID_3001565216_1759648392032 
o vid_40 
f 239 244 245
f 240 245 246
f 241 246 247
f 239 245 240
f 240 246 241
f 241 247 242
f 242 247 248
f 242 248 243
usemtl APPID_3001563088_1759648392288 
o vid_41 
f 251 250 249
f 252 253 254
f 249 254 253
f 249 253 251
f 251 253 252
f 252 250 251
f 250 252 254
f 254 249 250
usemtl APPID_3001565216_1759648392032 
o vid_42 
f 255 261 262
f 256 262 263
f 257 263 264
f 258 264 265
f 255 262 256
f 256 263 257
f 257 264 258
f 258 265 259
f 259 265 266
f 259 266 260
usemtl APPID_3001566784_1759648388704 
o vid_10000004 
f 267 274 275
f 268 275 276
f 269 276 277
f 270 277 278
f 271 278 279
f 267 275 268
f 268 276 269
f 269 277 270
f 270 278 271
f 271 279 272
f 272 279 280
usemtl APPID_3001566784_1759648388704 
o vid_10000006 
f 281 289 290
f 282 290 291
f 283 291 292
f 284 292 293
f 285 293 294
f 286 294 295
f 281 290 282
f 282 291 283
f 283 292 284
f 284 293 285
f 285 294 286
f 286 295 287
f 287 295 296
usemtl APPID_3001566784_1759648388704 
o vid_10000008 
f 297 303 304
f 298 304 305
f 299 305 306
f 300 306 307
f 297 304 298
f 298 305 299
f 299 306 300
f 300 307 301
f 301 307 308
usemtl APPID_3001566784_1759648388704 
o vid_10000010 
f 309 315 316
f 310 316 317
f 311 317 318
f 312 318 319
f 309 316 310
f 310 317 311
f 311 318 312
f 312 319 313
f 313 319 320
usemtl APPID_3001566784_1759648388704 
o vid_10000012 
f 321 330 331
f 322 331 332
f 323 332 333
f 324 333 334
f 325 334 335
f 326 335 336
f 327 336 337
f 321 331 322
f 322 332 323
f 323 333 324
f 324 334 325
f 325 335 326
f 326 336 327
f 327 337 328
f 328 337 338
usemtl APPID_3001566784_1759648388704 
o vid_10000014 
f 339 345 346
f 340 346 347
f 341 347 348
f 342 348 349
f 339 346 340
f 340 347 341
f 341 348 342
f 342 349 343
f 343 349 350
usemtl APPID_3001566784_1759648388704 
o vid_10000016 
f 351 359 360
f 352 360 361
f 353 361 362
f 354 362 363
f 355 363 364
f 356 364 365
f 351 360 352
f 352 361 353
f 353 362 354
f 354 363 355
f 355 364 356
f 356 365 357
f 357 365 366
usemtl APPID_3001566784_1759648388704 
o vid_10000018 
f 367 375 376
f 368 376 377
f 369 377 378
f 370 378 379
f 371 379 380
f 372 380 381
f 367 376 368
f 368 377 369
f 369 378 370
f 370 379 371
f 371 380 372
f 372 381 373
f 373 381 382
usemtl APPID_3001566784_1759648388704 
o vid_10000020 
f 383 391 392
f 384 392 393
f 385 393 394
f 386 394 395
f 387 395 396
f 388 396 397
f 383 392 384
f 384 393 385
f 385 394 386
f 386 395 387
f 387 396 388
f 388 397 389
f 389 397 398
usemtl APPID_3001566784_1759648388704 
o vid_10000022 
f 399 406 407
f 400 407 408
f 401 408 409
f 402 409 410
f 403 410 411
f 399 407 400
f 400 408 401
f 401 409 402
f 402 410 403
f 403 411 404
f 404 411 412
usemtl APPID_3001566784_1759648388704 
o vid_10000024 
f 413 419 420
f 414 420 421
f 415 421 422
f 416 422 423
f 413 420 414
f 414 421 415
f 415 422 416
f 416 423 417
f 417 423 424
usemtl APPID_3001566784_1759648388704 
o vid_10000026 
f 425 430 431
f 426 431 432
f 427 432 433
f 425 431 426
f 426 432 427
f 427 433 428
f 428 433 434
usemtl APPID_3001566784_1759648388704 
o vid_10000028 
f 435 439 440
f 436 440 441
f 435 440 436
f 436 441 437
f 437 441 442
usemtl APPID_3001566784_1759648388704 
o vid_10000030 
f 443 448 449
f 444 449 450
f 445 450 451
f 443 449 444
f 444 450 445
f 445 451 446
f 446 451 452
usemtl APPID_3001566784_1759648388704 
o vid_10000032 
f 453 457 458
f 454 458 459
f 453 458 454
f 454 459 455
f 455 459 460
usemtl APPID_3001566784_1759648388704 
o vid_10000034 
f 461 465 466
f 462 466 467
f 461 466 462
f 462 467 463
f 463 467 468
usemtl APPID_3001566784_1759648388704 
o vid_10000036 
f 469 472 473
f 469 473 470
f 470 473 474
usemtl APPID_3001566784_1759648388704 
o vid_10000038 
f 475 478 479
f 475 479 476
f 476 479 480
usemtl APPID_3001566784_1759648388704 
o vid_10000040 
f 481 483 484
f 481 484 482
f 481 483 484
usemtl APPID_3001566784_1759648388704 
o vid_10000042 
f 485 488 489
f 485 489 486
f 486 489 490
