# File generated by PlantGL - Fri Sep  4 14:43:37 2026
v    18.201987 59.124129 0.000000
v    21.657533 58.880811 0.000000
v    20.140480 61.995060 0.000000
v    21.798013 60.875871 0.331061
v    18.342467 61.119189 0.331061
v    19.859520 58.004940 0.331061
v    21.408764 61.434958 -0.032266
v    22.452892 61.831573 1.026045
v    22.851492 61.988907 1.295157
v    23.678419 62.295394 1.847958
v    24.356611 62.556396 2.031320
v    25.389927 62.923371 2.307292
v    25.693979 62.992178 2.384152
v    26.538343 63.185041 2.205118
v    21.998302 60.224736 -0.032266
v    22.954230 60.802413 1.026045
v    23.323823 61.019292 1.295157
v    24.074894 61.481499 1.847958
v    24.698465 61.854628 2.031320
v    25.624388 62.442062 2.307292
v    25.865993 62.639063 2.384152
v    26.538343 63.185041 2.205118
v    21.503548 61.204422 0.331061
v    18.205166 60.699900 0.331061
v    20.291286 58.095678 0.331061
v    18.496452 58.795578 0.718770
v    21.794834 59.300100 0.718770
v    19.708714 61.904322 0.718770
v    19.245992 58.094494 0.211682
v    17.946439 57.233562 1.688743
v    16.635469 56.340477 2.684907
v    14.648843 55.015477 3.377651
v    13.954880 54.577170 3.584223
v    13.349892 54.194211 3.433195
v    11.863870 53.482526 3.092609
v    17.975865 59.680066 0.211682
v    16.852050 58.599750 1.688743
v    15.694364 57.515311 2.684907
v    13.967709 55.865774 3.377651
v    13.388505 55.284207 3.584223
v    12.882735 54.777389 3.433195
v    11.863870 53.482526 3.092609
v    18.272844 59.328938 0.718770
v    21.444735 58.839770 0.718770
v    20.282421 61.831292 0.718770
v    21.727156 60.671062 1.487000
v    18.555265 61.160230 1.487000
v    19.717579 58.168708 1.487000
v    21.030960 61.911436 0.796532
v    23.070705 62.498669 2.807748
v    25.450698 63.217258 4.369005
v    28.616661 64.143631 5.201786
v    29.334655 64.333506 5.388699
v    30.642584 64.680792 5.103257
v    32.863552 64.997951 4.639503
v    22.051027 59.286026 0.796532
v    23.952176 60.229972 2.807748
v    26.193004 61.306737 4.369005
v    29.153912 62.760873 5.201786
v    29.811755 63.105561 5.388699
v    31.011058 63.732425 5.103257
v    32.863552 64.997951 4.639503
v    21.731622 60.409625 1.487000
v    18.779443 61.294816 1.487000
v    19.488935 58.295559 1.487000
v    18.268378 59.590375 2.857581
v    21.220557 58.705184 2.857581
v    20.511065 61.704441 2.857581
v    18.964564 57.799884 1.940350
v    16.173274 57.400704 4.612091
v    12.908752 56.890855 6.687038
v    8.108423 56.174455 7.911897
v    5.340293 55.837720 7.560423
v    2.360001 55.827156 6.944363
v    18.088566 61.503017 1.940350
v    15.414267 60.609280 4.612091
v    12.267307 59.602456 6.687038
v    7.654772 58.092189 7.911897
v    5.029156 57.153002 7.560423
v    2.360001 55.827156 6.944363
v    18.876148 58.716648 2.857581
v    21.673341 59.668392 2.857581
v    19.450510 61.614960 2.857581
v    21.123852 61.283352 4.464214
v    18.326659 60.331608 4.464214
v    20.549490 58.385040 4.464214
v    18.891721 62.781006 3.275466
v    20.970674 64.762972 5.997128
v    24.598461 68.296287 9.427255
v    27.134881 70.825655 10.332386
v    29.561202 73.157935 11.181596
v    31.243293 74.777326 10.687832
v    33.915262 77.219579 9.924274
v    35.580922 78.415814 9.500373
v    36.913242 79.313619 8.582849
v    22.902920 59.268336 3.275466
v    24.593262 61.590614 5.997128
v    27.617038 65.652871 9.427255
v    29.789639 68.500841 10.332386
v    31.781401 71.213672 11.181596
v    33.164700 73.094720 10.687832
v    35.233063 76.065561 9.924274
v    36.199072 77.874490 9.500373
v    36.913242 79.313619 8.582849
v    21.225241 60.782281 4.464214
v    18.709904 60.669949 4.464214
v    20.064855 58.547770 4.464214
v    18.774759 59.217719 11.608453
v    21.290096 59.330051 11.608453
v    19.935145 61.452230 11.608453
v    21.057737 56.449929 10.105395
v    18.497929 54.968862 12.916378
v    17.029525 54.207776 14.483548
v    14.292305 52.743990 16.432891
v    12.254796 51.654931 17.883742
v    4.553764 47.441105 20.101938
v    -2.416184 43.772216 18.436074
v    -4.196184 42.896564 18.017646
v    -6.282611 41.905424 16.737634
v    -10.065001 40.804355 13.712159
v    17.224669 62.453436 10.105395
v    14.803924 60.754562 12.916378
v    13.495585 59.742776 14.483548
v    11.015859 57.875692 16.432891
v    9.170514 56.485659 17.883742
v    2.107264 51.272913 20.101938
v    -4.153998 46.494051 18.436074
v    -5.697389 45.247813 18.017646
v    -7.474494 43.772199 16.737634
v    -10.065001 40.804355 13.712159
v    19.071314 59.330880 11.608453
v    21.043818 59.530295 11.608453
v    19.884868 61.138825 11.608453
v    20.928686 60.669120 22.178674
v    18.956182 60.469705 22.178674
v    20.115132 58.861175 22.178674
v    17.929506 63.914307 20.324559
v    21.150609 66.244185 24.106758
v    28.234727 70.713386 29.919634
v    37.427687 76.436384 32.655917
v    42.448282 79.565930 31.403105
v    48.005271 82.890927 30.033678
v    49.879974 83.983504 28.757844
v    53.919466 86.122761 25.281292
v    56.754975 87.083352 22.697162
v    57.871114 87.286226 20.815678
v    23.057607 56.796910 20.324559
v    26.287310 59.114853 24.106758
v    32.769155 64.419960 29.919634
v    41.107874 71.328578 32.655917
v    45.665749 75.100342 31.403105
v    50.578819 79.319047 30.033678
v    52.208646 80.751492 28.757844
v    55.516590 83.906080 25.281292
v    57.325360 86.291703 22.697162
v    57.871114 87.286226 20.815678
v    20.719438 60.468546 22.178674
v    19.234508 60.388779 22.178674
v    20.046054 59.142675 22.178674
v    19.280562 59.531454 39.904761
v    20.765492 59.611221 39.904761
v    19.953946 60.857325 39.904761
v    22.705857 55.454705 37.673383
v    18.169726 52.727388 42.705802
v    13.677995 50.295627 46.408329
v    9.747776 48.148520 49.220794
v    -1.627856 41.789788 52.513836
v    -12.992078 35.652782 49.781926
v    -18.584273 32.909417 46.885215
v    -24.060383 31.304940 42.192346
v    16.936958 64.312673 37.673383
v    12.608364 61.266689 42.705802
v    8.568040 58.141807 46.408329
v    5.015108 55.415387 49.220794
v    -5.400337 47.582316 52.513836
v    -15.608375 39.670026 49.781926
v    -20.378665 35.664651 46.885215
v    -24.060383 31.304940 42.192346
v    19.479263 59.711179 39.904761
v    20.510495 59.693439 39.904761
v    20.010242 60.595382 39.904761
v    20.520737 60.288821 56.986539
v    19.489505 60.306561 56.986539
v    19.989758 59.404618 56.986539
v    17.653453 63.896059 54.366640
v    24.315065 66.839965 61.267581
v    33.708093 70.886742 67.924653
v    41.616544 74.196656 70.082786
v    48.283730 76.082462 71.791069
v    49.749553 76.500248 71.476003
v    22.062608 55.946457 54.366640
v    28.087237 60.038829 61.267581
v    36.493710 65.864341 67.924653
v    43.489019 70.820628 70.082786
v    48.618997 75.477983 71.791069
v    49.749553 76.500248 71.476003
v    20.343414 60.091350 56.986539
v    19.749181 60.251730 56.986539
v    19.907405 59.656919 56.986539
v    19.656586 59.908650 60.156000
v    20.250819 59.748270 60.156000
v    20.092595 60.343081 60.156000
v    19.792852 57.452481 54.346240
v    19.609927 57.608270 56.152393
v    18.333294 59.556646 65.833341
v    18.554482 62.107899 54.346240
v    18.473138 61.881814 56.152393
v    18.333294 59.556646 65.833341
mtllib usm_23_2.5D_2018-08-25_1.mtl
usemtl APPID_2429270864_2600884183392 
o vid_3 
f 3 2 1
f 4 5 6
f 1 6 5
f 1 5 3
f 3 5 4
f 4 2 3
f 2 4 6
f 6 1 2
usemtl APPID_2429268288_2600884180064 
o vid_4 
f 7 15 16
f 8 16 17
f 9 17 18
f 10 18 19
f 11 19 20
f 12 20 21
f 7 16 8
f 8 17 9
f 9 18 10
f 10 19 11
f 11 20 12
f 12 21 13
f 13 21 22
usemtl APPID_2429270864_2600884183392 
o vid_5 
f 25 24 23
f 26 27 28
f 23 28 27
f 23 27 25
f 25 27 26
f 26 24 25
f 24 26 28
f 28 23 24
usemtl APPID_2429268288_2600884180064 
o vid_6 
f 29 36 37
f 30 37 38
f 31 38 39
f 32 39 40
f 33 40 41
f 29 37 30
f 30 38 31
f 31 39 32
f 32 40 33
f 33 41 34
f 34 41 42
usemtl APPID_2429270864_2600884183392 
o vid_7 
f 45 44 43
f 46 47 48
f 43 48 47
f 43 47 45
f 45 47 46
f 46 44 45
f 44 46 48
f 48 43 44
usemtl APPID_2429268288_2600884180064 
o vid_8 
f 49 56 57
f 50 57 58
f 51 58 59
f 52 59 60
f 53 60 61
f 49 57 50
f 50 58 51
f 51 59 52
f 52 60 53
f 53 61 54
f 54 61 62
usemtl APPID_2429270864_2600884183392 
o vid_9 
f 65 64 63
f 66 67 68
f 63 68 67
f 63 67 65
f 65 67 66
f 66 64 65
f 64 66 68
f 68 63 64
usemtl APPID_2429268288_2600884180064 
o vid_10 
f 69 75 76
f 70 76 77
f 71 77 78
f 72 78 79
f 69 76 70
f 70 77 71
f 71 78 72
f 72 79 73
f 73 79 80
usemtl APPID_2429270864_2600884183392 
o vid_11 
f 83 82 81
f 84 85 86
f 81 86 85
f 81 85 83
f 83 85 84
f 84 82 83
f 82 84 86
f 86 81 82
usemtl APPID_2429268288_2600884180064 
o vid_12 
f 87 96 97
f 88 97 98
f 89 98 99
f 90 99 100
f 91 100 101
f 92 101 102
f 93 102 103
f 87 97 88
f 88 98 89
f 89 99 90
f 90 100 91
f 91 101 92
f 92 102 93
f 93 103 94
f 94 103 104
usemtl APPID_2429270864_2600884183392 
o vid_13 
f 107 106 105
f 108 109 110
f 105 110 109
f 105 109 107
f 107 109 108
f 108 106 107
f 106 108 110
f 110 105 106
usemtl APPID_2429268288_2600884180064 
o vid_14 
f 111 121 122
f 112 122 123
f 113 123 124
f 114 124 125
f 115 125 126
f 116 126 127
f 117 127 128
f 118 128 129
f 111 122 112
f 112 123 113
f 113 124 114
f 114 125 115
f 115 126 116
f 116 127 117
f 117 128 118
f 118 129 119
f 119 129 130
usemtl APPID_2429270864_2600884183392 
o vid_15 
f 133 132 131
f 134 135 136
f 131 136 135
f 131 135 133
f 133 135 134
f 134 132 133
f 132 134 136
f 136 131 132
usemtl APPID_2429268288_2600884180064 
o vid_16 
f 137 147 148
f 138 148 149
f 139 149 150
f 140 150 151
f 141 151 152
f 142 152 153
f 143 153 154
f 144 154 155
f 137 148 138
f 138 149 139
f 139 150 140
f 140 151 141
f 141 152 142
f 142 153 143
f 143 154 144
f 144 155 145
f 145 155 156
usemtl APPID_2429270864_2600884183392 
o vid_17 
f 159 158 157
f 160 161 162
f 157 162 161
f 157 161 159
f 159 161 160
f 160 158 159
f 158 160 162
f 162 157 158
usemtl APPID_2429268288_2600884180064 
o vid_18 
f 163 171 172
f 164 172 173
f 165 173 174
f 166 174 175
f 167 175 176
f 168 176 177
f 163 172 164
f 164 173 165
f 165 174 166
f 166 175 167
f 167 176 168
f 168 177 169
f 169 177 178
usemtl APPID_2429270864_2600884183392 
o vid_19 
f 181 180 179
f 182 183 184
f 179 184 183
f 179 183 181
f 181 183 182
f 182 180 181
f 180 182 184
f 184 179 180
usemtl APPID_2429268288_2600884180064 
o vid_20 
f 185 191 192
f 186 192 193
f 187 193 194
f 188 194 195
f 185 192 186
f 186 193 187
f 187 194 188
f 188 195 189
f 189 195 196
usemtl APPID_2429270864_2600884183392 
o vid_21 
f 199 198 197
f 200 201 202
f 197 202 201
f 197 201 199
f 199 201 200
f 200 198 199
f 198 200 202
f 202 197 198
usemtl APPID_2429268288_2600884180064 
o vid_22 
f 203 206 207
f 203 207 204
f 204 207 208
