# File generated by PlantGL - Fri Sep  4 14:43:48 2026
v    18.201987 99.124129 0.000000
v    21.657533 98.880811 0.000000
v    20.140480 101.995060 0.000000
v    21.798013 100.875871 0.231332
v    18.342467 101.119189 0.231332
v    19.859520 98.004940 0.231332
v    21.014213 100.861719 -2.226163
v    22.104251 101.025050 -1.225784
v    21.303716 100.267420 -2.226163
v    22.104251 101.025050 -1.225784
v    21.503548 101.204422 0.231332
v    18.205166 100.699900 0.231332
v    20.291286 98.095678 0.231332
v    18.496452 98.795578 0.322458
v    21.794834 99.300100 0.322458
v    19.708714 101.904322 0.322458
v    19.317050 98.908163 -2.135038
v    17.995633 98.394395 -0.848239
v    18.785426 99.571820 -2.135038
v    17.995633 98.394395 -0.848239
v    18.272844 99.328938 0.322458
v    21.444735 98.839770 0.322458
v    20.282421 101.831292 0.322458
v    21.727156 100.671062 0.466406
v    18.555265 101.160230 0.466406
v    19.717579 98.168708 0.466406
v    20.850428 100.964780 -1.991089
v    22.817897 101.094854 -0.201487
v    21.278716 99.862469 -1.991089
v    22.817897 101.094854 -0.201487
v    21.731622 100.409625 0.466406
v    18.779443 101.294816 0.466406
v    19.488935 98.295559 0.466406
v    18.268378 99.590375 0.678771
v    21.220557 98.705184 0.678771
v    20.511065 101.704441 0.678771
v    19.152978 98.938762 -1.778725
v    16.366670 99.140515 0.756791
v    18.767274 100.569261 -1.778725
v    16.366670 99.140515 0.756791
v    18.924473 98.771831 0.678771
v    21.601389 99.682651 0.678771
v    19.474138 101.545518 0.678771
v    21.075527 101.228169 0.919581
v    18.398611 100.317349 0.919581
v    20.525862 98.454482 0.919581
v    19.454393 101.702947 -1.537914
v    23.818777 104.360749 3.099967
v    21.760047 99.683850 -1.537914
v    23.818777 104.360749 3.099967
v    21.101704 100.703406 0.919581
v    18.839980 100.602400 0.919581
v    20.058316 98.694193 0.919581
v    18.898296 99.296594 1.432331
v    21.160020 99.397600 1.432331
v    19.941684 101.305807 1.432331
v    20.330441 98.374429 -1.025165
v    15.346961 97.029167 3.659816
v    18.664420 100.983818 -1.025165
v    15.346961 97.029167 3.659816
v    19.184876 99.412701 1.432331
v    20.916178 99.587731 1.432331
v    19.898946 100.999568 1.432331
v    20.815124 100.587299 2.225064
v    19.083822 100.412269 2.225064
v    20.101054 99.000432 2.225064
v    18.957188 101.949971 -0.232432
v    21.233529 103.120391 2.175646
v    26.201902 104.765675 6.925836
v    27.069695 105.093732 7.490110
v    21.519596 98.393553 -0.232432
v    23.350401 100.182341 2.175646
v    26.483810 104.374410 6.925836
v    27.069695 105.093732 7.490110
v    20.607684 100.395764 2.225064
v    19.353416 100.328388 2.225064
v    20.038900 99.275848 2.225064
v    19.392316 99.604236 2.920162
v    20.646584 99.671612 2.920162
v    19.961100 100.724152 2.920162
v    21.149707 98.208351 0.462667
v    19.205385 97.321750 2.473083
v    13.743124 95.794152 7.620935
v    13.341609 95.663612 7.877731
v    18.826231 101.775978 0.462667
v    17.229157 100.356186 2.473083
v    13.623354 95.978056 7.620935
v    13.341609 95.663612 7.877731
v    19.590117 99.772663 2.920162
v    20.401821 99.758699 2.920162
v    20.008062 100.468638 2.920162
v    20.409883 100.227337 3.255000
v    19.598179 100.241301 3.255000
v    19.991938 99.531362 3.255000
v    19.435484 101.202645 -1.739126
v    22.054218 101.139349 3.624667
v    20.721315 98.884322 -1.739126
v    22.054218 101.139349 3.624667
mtllib usm_16_2.5D_2018-07-31_2.mtl
usemtl APPID_408808528_2208043186304 
o vid_3 
f 3 2 1
f 4 5 6
f 1 6 5
f 1 5 3
f 3 5 4
f 4 2 3
f 2 4 6
f 6 1 2
usemtl APPID_408812112_2208043181952 
o vid_4 
f 7 9 10
f 7 10 8
f 7 9 10
usemtl APPID_408808528_2208043186304 
o vid_5 
f 13 12 11
f 14 15 16
f 11 16 15
f 11 15 13
f 13 15 14
f 14 12 13
f 12 14 16
f 16 11 12
usemtl APPID_408812112_2208043181952 
o vid_6 
f 17 19 20
f 17 20 18
f 17 19 20
usemtl APPID_408808528_2208043186304 
o vid_7 
f 23 22 21
f 24 25 26
f 21 26 25
f 21 25 23
f 23 25 24
f 24 22 23
f 22 24 26
f 26 21 22
usemtl APPID_408812112_2208043181952 
o vid_8 
f 27 29 30
f 27 30 28
f 27 29 30
usemtl APPID_408808528_2208043186304 
o vid_9 
f 33 32 31
f 34 35 36
f 31 36 35
f 31 35 33
f 33 35 34
f 34 32 33
f 32 34 36
f 36 31 32
usemtl APPID_408812112_2208043181952 
o vid_10 
f 37 39 40
f 37 40 38
f 37 39 40
usemtl APPID_408808528_2208043186304 
o vid_11 
f 43 42 41
f 44 45 46
f 41 46 45
f 41 45 43
f 43 45 44
f 44 42 43
f 42 44 46
f 46 41 42
usemtl APPID_408812112_2208043181952 
o vid_12 
f 47 49 50
f 47 50 48
f 47 49 50
usemtl APPID_408808528_2208043186304 
o vid_13 
f 53 52 51
f 54 55 56
f 51 56 55
f 51 55 53
f 53 55 54
f 54 52 53
f 52 54 56
f 56 51 52
usemtl APPID_408812112_2208043181952 
o vid_14 
f 57 59 60
f 57 60 58
f 57 59 60
usemtl APPID_408808528_2208043186304 
o vid_15 
f 63 62 61
f 64 65 66
f 61 66 65
f 61 65 63
f 63 65 64
f 64 62 63
f 62 64 66
f 66 61 62
usemtl APPID_408812112_2208043181952 
o vid_16 
f 67 71 72
f 68 72 73
f 67 72 68
f 68 73 69
f 69 73 74
usemtl APPID_408808528_2208043186304 
o vid_17 
f 77 76 75
f 78 79 80
f 75 80 79
f 75 79 77
f 77 79 78
f 78 76 77
f 76 78 80
f 80 75 76
usemtl APPID_408812112_2208043181952 
o vid_18 
f 81 85 86
f 82 86 87
f 81 86 82
f 82 87 83
f 83 87 88
usemtl APPID_408808528_2208043186304 
o vid_19 
f 91 90 89
f 92 93 94
f 89 94 93
f 89 93 91
f 91 93 92
f 92 90 91
f 90 92 94
f 94 89 90
usemtl APPID_408812112_2208043181952 
o vid_20 
f 95 97 98
f 95 98 96
f 95 97 98
