# File generated by PlantGL - Fri Sep  4 14:43:20 2026
v    18.201987 99.124129 0.000000
v    21.657533 98.880811 0.000000
v    20.140480 101.995060 0.000000
v    21.798013 100.875871 0.331061
v    18.342467 101.119189 0.331061
v    19.859520 98.004940 0.331061
v    21.368330 101.462214 -0.116670
v    21.894568 101.662107 0.416717
v    22.663788 101.932960 1.187494
v    23.525063 102.252177 1.763257
v    24.188082 102.475650 2.200343
v    24.707552 102.660136 2.339081
v    26.114331 102.978491 2.694692
v    21.994840 100.176096 -0.116670
v    22.476625 100.467244 0.416717
v    23.164064 100.905978 1.187494
v    23.946332 101.387384 1.763257
v    24.530999 101.771700 2.200343
v    24.996480 102.067016 2.339081
v    26.114331 102.978491 2.694692
v    21.503548 101.204422 0.331061
v    18.205166 100.699900 0.331061
v    20.291286 98.095678 0.331061
v    18.496452 98.795578 0.771522
v    21.794834 99.300100 0.771522
v    19.708714 101.904322 0.771522
v    19.330129 98.037269 0.161104
v    17.765761 97.000902 1.939150
v    17.361053 96.725198 2.246675
v    15.925945 95.791063 3.320030
v    15.130539 95.259116 3.561480
v    13.572923 94.275325 4.025136
v    12.856188 93.933834 4.220879
v    11.789575 93.423012 3.976419
v    17.938383 99.774664 0.161104
v    16.585564 98.474209 1.939150
v    16.228176 98.139432 2.246675
v    15.003336 96.942808 3.320030
v    14.310609 96.282681 3.561480
v    13.010572 94.977339 4.025136
v    12.520880 94.352418 4.220879
v    11.789575 93.423012 3.976419
v    18.397518 99.377378 0.771522
v    21.340448 98.923520 0.771522
v    20.262035 101.699101 0.771522
v    21.602482 100.622622 1.487405
v    18.659552 101.076480 1.487405
v    19.737965 98.300899 1.487405
v    20.857868 101.889486 0.674073
v    23.260582 102.581183 3.043171
v    26.085972 103.374948 4.883077
v    26.846783 103.597568 5.083101
v    29.219894 104.225141 5.700883
v    30.756160 104.441377 6.083383
v    31.823263 104.593762 5.860565
v    21.908520 99.185355 0.674073
v    24.147953 100.297299 3.043171
v    26.768097 101.619318 4.883077
v    27.479634 101.968758 5.083101
v    29.653936 103.108019 5.700883
v    30.933200 103.985717 6.083383
v    31.823263 104.593762 5.860565
v    21.336060 100.316053 1.487405
v    19.058260 100.999036 1.487405
v    19.605680 98.684912 1.487405
v    18.663940 99.683947 2.987040
v    20.941740 99.000964 2.987040
v    20.394320 101.315088 2.987040
v    19.436514 97.748793 1.927942
v    16.213468 97.288007 5.012917
v    13.713876 96.897625 6.601670
v    12.437782 96.725698 7.408793
v    8.889530 96.202624 8.313793
v    6.293893 95.889027 8.971798
v    2.269808 95.805821 8.136607
v    18.487606 101.760146 1.927942
v    15.399708 100.728041 5.012917
v    12.990132 99.957131 6.601670
v    11.772257 99.539095 7.408793
v    8.365713 98.416972 8.313793
v    5.904675 97.534383 8.971798
v    2.269808 95.805821 8.136607
v    19.308476 99.210333 2.987040
v    21.029633 99.795956 2.987040
v    19.661890 100.993710 2.987040
v    20.691524 100.789667 4.897980
v    18.970367 100.204044 4.897980
v    20.338110 99.006290 4.897980
v    18.306813 102.359774 3.550154
v    19.100537 103.116469 4.589258
v    21.306252 105.218269 7.476143
v    24.777621 108.612765 10.525174
v    30.253076 113.905965 12.447286
v    33.281023 116.673229 11.705196
v    36.838146 119.227865 10.799927
v    22.562543 98.632964 3.550154
v    23.207899 99.519587 4.589258
v    25.000302 101.983330 7.476143
v    27.907111 105.872221 10.525174
v    32.431605 111.998192 12.447286
v    34.775171 115.364780 11.705196
v    36.838146 119.227865 10.799927
v    20.631600 100.403259 4.897980
v    19.334968 100.345353 4.897980
v    20.033432 99.251389 4.897980
v    19.368400 99.596741 10.485077
v    20.665032 99.654647 10.485077
v    19.966568 100.748611 10.485077
v    21.708783 96.832176 8.808745
v    19.789315 95.837300 10.857319
v    17.133251 94.461452 13.691618
v    11.807699 91.614917 17.483790
v    9.589166 90.400987 18.122814
v    3.146845 87.028144 19.957702
v    -2.092409 84.429282 18.723648
v    -7.228350 82.615475 17.597738
v    17.845392 102.883177 8.808745
v    16.135157 101.560591 10.857319
v    13.769356 99.730122 13.691618
v    8.946071 96.096915 17.483790
v    6.911272 94.595213 18.122814
v    1.140599 90.170407 19.957702
v    -3.421694 86.511262 18.723648
v    -7.228350 82.615475 17.597738
v    19.617017 99.724060 10.485077
v    20.430462 99.806297 10.485077
v    19.952520 100.469643 10.485077
v    20.382983 100.275940 11.790000
v    19.569538 100.193703 11.790000
v    20.047480 99.530357 11.790000
v    18.822894 102.407646 7.709260
v    20.204578 102.845229 12.952760
v    21.065120 103.036468 16.037535
v    22.374650 103.561252 18.835004
v    25.085310 103.960892 23.805562
v    25.823087 104.195548 24.565507
v    21.911225 98.121288 7.709260
v    22.763675 99.293404 12.952760
v    23.217484 100.049159 16.037535
v    24.129811 101.125227 18.835004
v    25.366955 103.569990 23.805562
v    25.823087 104.195548 24.565507
mtllib usm_15_2.5D_2018-08-11_2.mtl
usemtl APPID_1699839984_2630217991040 
o vid_3 
f 3 2 1
f 4 5 6
f 1 6 5
f 1 5 3
f 3 5 4
f 4 2 3
f 2 4 6
f 6 1 2
usemtl APPID_1699833264_2630217987968 
o vid_4 
f 7 14 15
f 8 15 16
f 9 16 17
f 10 17 18
f 11 18 19
f 7 15 8
f 8 16 9
f 9 17 10
f 10 18 11
f 11 19 12
f 12 19 20
usemtl APPID_1699839984_2630217991040 
o vid_5 
f 23 22 21
f 24 25 26
f 21 26 25
f 21 25 23
f 23 25 24
f 24 22 23
f 22 24 26
f 26 21 22
usemtl APPID_1699833264_2630217987968 
o vid_6 
f 27 35 36
f 28 36 37
f 29 37 38
f 30 38 39
f 31 39 40
f 32 40 41
f 27 36 28
f 28 37 29
f 29 38 30
f 30 39 31
f 31 40 32
f 32 41 33
f 33 41 42
usemtl APPID_1699839984_2630217991040 
o vid_7 
f 45 44 43
f 46 47 48
f 43 48 47
f 43 47 45
f 45 47 46
f 46 44 45
f 44 46 48
f 48 43 44
usemtl APPID_1699833264_2630217987968 
o vid_8 
f 49 56 57
f 50 57 58
f 51 58 59
f 52 59 60
f 53 60 61
f 49 57 50
f 50 58 51
f 51 59 52
f 52 60 53
f 53 61 54
f 54 61 62
usemtl APPID_1699839984_2630217991040 
o vid_9 
f 65 64 63
f 66 67 68
f 63 68 67
f 63 67 65
f 65 67 66
f 66 64 65
f 64 66 68
f 68 63 64
usemtl APPID_1699833264_2630217987968 
o vid_10 
f 69 76 77
f 70 77 78
f 71 78 79
f 72 79 80
f 73 80 81
f 69 77 70
f 70 78 71
f 71 79 72
f 72 80 73
f 73 81 74
f 74 81 82
usemtl APPID_1699839984_2630217991040 
o vid_11 
f 85 84 83
f 86 87 88
f 83 88 87
f 83 87 85
f 85 87 86
f 86 84 85
f 84 86 88
f 88 83 84
usemtl APPID_1699833264_2630217987968 
o vid_12 
f 89 96 97
f 90 97 98
f 91 98 99
f 92 99 100
f 93 100 101
f 89 97 90
f 90 98 91
f 91 99 92
f 92 100 93
f 93 101 94
f 94 101 102
usemtl APPID_1699839984_2630217991040 
o vid_13 
f 105 104 103
f 106 107 108
f 103 108 107
f 103 107 105
f 105 107 106
f 106 104 105
f 104 106 108
f 108 103 104
usemtl APPID_1699833264_2630217987968 
o vid_14 
f 109 117 118
f 110 118 119
f 111 119 120
f 112 120 121
f 113 121 122
f 114 122 123
f 109 118 110
f 110 119 111
f 111 120 112
f 112 121 113
f 113 122 114
f 114 123 115
f 115 123 124
usemtl APPID_1699839984_2630217991040 
o vid_15 
f 127 126 125
f 128 129 130
f 125 130 129
f 125 129 127
f 127 129 128
f 128 126 127
f 126 128 130
f 130 125 126
usemtl APPID_1699833264_2630217987968 
o vid_16 
f 131 137 138
f 132 138 139
f 133 139 140
f 134 140 141
f 131 138 132
f 132 139 133
f 133 140 134
f 134 141 135
f 135 141 142
