# File generated by PlantGL - Fri Sep  4 14:43:37 2026
v    138.201987 19.124129 0.000000
v    141.657533 18.880811 0.000000
v    140.140480 21.995060 0.000000
v    141.798013 20.875871 0.331061
v    138.342467 21.119189 0.331061
v    139.859520 18.004940 0.331061
v    141.382963 21.452807 -0.085431
v    142.235815 21.776765 0.779005
v    142.583846 21.899311 1.127740
v    143.618456 22.282773 1.819378
v    141.996453 20.193417 -0.085431
v    142.777261 20.665268 0.779005
v    143.088291 20.863772 1.127740
v    144.027993 21.442063 1.819378
v    141.503548 21.204422 0.331061
v    138.205166 20.699900 0.331061
v    140.291286 18.095678 0.331061
v    138.496452 18.795578 0.718770
v    141.794834 19.300100 0.718770
v    139.708714 21.904322 0.718770
v    139.284579 18.077173 0.145004
v    137.814145 17.103036 1.816286
v    137.356610 16.791345 2.163953
v    136.086034 15.964305 3.114250
v    135.249451 15.404821 3.368200
v    134.392093 14.863313 3.623409
v    137.967383 19.721502 0.145004
v    136.695796 18.499134 1.816286
v    136.291758 18.120659 2.163953
v    135.207343 17.061226 3.114250
v    134.478754 16.366925 3.368200
v    133.763176 15.648426 3.623409
v    138.272844 19.328938 0.718770
v    141.444735 18.839770 0.718770
v    140.282421 21.831292 0.718770
v    141.727156 20.671062 1.487000
v    138.555265 21.160230 1.487000
v    139.717579 18.168708 1.487000
v    140.991235 21.948649 0.715108
v    143.271528 22.605103 2.963498
v    144.482466 22.970721 3.757864
v    145.944975 23.378981 4.709659
v    147.816774 23.926686 5.201771
v    150.068973 24.522283 5.788077
v    150.218669 24.543353 5.825348
v    142.046846 19.231755 0.715108
v    144.172178 20.287044 2.963498
v    145.312309 20.834901 3.757864
v    146.666809 21.521149 4.709659
v    148.417381 22.380866 5.201771
v    150.480900 23.462079 5.788077
v    150.605554 23.547604 5.825348
v    141.731622 20.409625 1.487000
v    138.779443 21.294816 1.487000
v    139.488935 18.295559 1.487000
v    138.268378 19.590375 2.857581
v    141.220557 18.705184 2.857581
v    140.511065 21.704441 2.857581
v    139.005751 17.747463 1.843500
v    135.919704 17.306264 4.797346
v    133.657566 16.952967 6.235172
v    132.303862 16.770584 7.091382
v    129.057052 16.291948 7.919498
v    126.420204 15.973372 8.587951
v    124.992807 15.920384 8.290550
v    138.101902 21.568335 1.843500
v    135.145259 20.580101 4.797346
v    132.964585 19.882426 6.235172
v    131.672641 19.438966 7.091382
v    128.555500 18.412172 7.919498
v    126.055388 17.515570 8.587951
v    124.755535 16.923412 8.290550
v    138.876148 18.716648 2.857581
v    141.673341 19.668392 2.857581
v    139.450510 21.614960 2.857581
v    141.123852 21.283352 4.464214
v    138.326659 20.331608 4.464214
v    140.549490 18.385040 4.464214
v    138.815942 22.804201 3.163197
v    139.646509 23.596021 4.250535
v    141.711195 25.563436 6.952838
v    145.062004 28.840041 9.895977
v    145.950158 29.725727 10.212918
v    150.431460 34.033338 11.781368
v    153.354958 36.705308 11.009619
v    155.292794 38.097013 10.516450
v    142.935911 19.196279 3.163197
v    143.611223 20.124058 4.250535
v    145.289024 22.430274 6.952838
v    148.094879 26.184104 9.895977
v    148.855639 27.181352 10.212918
v    152.534329 32.191822 11.781368
v    154.797214 35.442301 11.009619
v    155.921074 37.546818 10.516450
v    141.375838 20.878433 4.464214
v    138.551335 20.752294 4.464214
v    140.072827 18.369272 4.464214
v    138.624162 19.121567 10.752587
v    141.448665 19.247706 10.752587
v    139.927173 21.630728 10.752587
v    140.969354 16.324565 9.122588
v    137.827847 14.696297 12.475396
v    136.520475 14.019074 13.870500
v    131.342120 11.251216 17.557858
v    127.502097 9.150045 18.663933
v    122.939678 6.761415 19.963392
v    120.582603 5.525066 19.400536
v    116.128725 3.334029 18.353553
v    112.956426 2.213701 17.658116
v    112.491613 2.064994 17.379407
v    137.073753 22.426014 9.122588
v    134.274689 20.261398 12.475396
v    133.110190 19.360401 13.870500
v    128.420220 15.827615 17.557858
v    124.898219 13.228345 18.663933
v    120.811458 10.094720 19.963392
v    118.698021 8.476774 19.400536
v    114.836181 5.358463 18.353553
v    112.484937 2.952167 17.658116
v    112.154439 2.593090 17.379407
v    138.735263 19.088754 10.752587
v    141.421531 19.360328 10.752587
v    139.843206 21.550918 10.752587
v    141.264737 20.911246 22.165711
v    138.578469 20.639672 22.165711
v    140.156794 18.449082 22.165711
v    138.036498 24.404995 20.171430
v    139.754001 25.647294 22.188112
v    142.879298 27.687342 25.735164
v    148.060531 30.840163 29.626788
v    159.125116 37.712088 33.434997
v    162.049049 39.534697 32.705375
v    168.068610 43.136473 31.221955
v    170.299152 44.471107 30.672275
v    174.460556 46.740169 27.997153
v    179.018225 48.373510 23.796392
v    143.556930 16.743073 20.171430
v    145.279018 17.979008 22.188112
v    148.203468 20.297817 25.735164
v    152.834271 24.214591 29.626788
v    162.855295 32.534897 33.434997
v    165.509746 34.731526 32.705375
v    170.831787 39.301402 31.221955
v    172.803864 40.994765 30.672275
v    176.273530 44.223906 27.997153
v    179.265601 48.030171 23.796392
v    141.244614 20.810576 22.165711
v    138.675713 20.672580 22.165711
v    140.079672 18.516844 22.165711
v    138.755386 19.189424 39.904430
v    141.324287 19.327420 39.904430
v    139.920328 21.483156 39.904430
v    142.370337 14.901698 37.521675
v    140.033217 13.528507 40.097887
v    138.302209 12.611372 41.954095
v    135.963240 11.372122 44.462237
v    133.676326 10.122439 46.098864
v    128.430619 7.257334 49.852466
v    117.731553 1.276788 52.949653
v    107.620295 -4.142461 51.294310
v    102.134862 -6.902807 49.999025
v    97.008142 -8.731066 46.871803
v    95.563882 -9.145663 45.574827
v    136.295508 24.229412 37.521675
v    134.094571 22.647116 40.097887
v    132.555824 21.434770 41.954095
v    130.476642 19.796625 44.462237
v    128.408967 18.210309 46.098864
v    123.667434 14.571058 49.852466
v    113.871449 7.203859 52.949653
v    104.826508 0.147314 51.294310
v    100.083857 -3.753552 49.999025
v    96.338742 -7.703223 46.871803
v    95.375566 -8.856509 45.574827
v    138.765415 19.315252 39.904430
v    141.210302 19.273192 39.904430
v    140.024283 21.411556 39.904430
v    141.234585 20.684748 66.592971
v    138.789698 20.726808 66.592971
v    139.975717 18.588444 66.592971
v    137.870570 25.092018 63.812830
v    145.687802 28.546617 71.910908
v    152.616210 31.716073 76.695546
v    154.819404 32.668505 78.200096
v    164.437713 36.969256 80.858638
v    169.736228 39.174203 82.302995
v    172.205323 40.204606 81.738656
v    180.197989 42.482663 80.020697
v    143.192120 15.497391 63.812830
v    150.261869 20.299685 71.910908
v    156.619101 24.498957 76.695546
v    158.593636 25.863655 78.200096
v    167.334844 31.745799 80.858638
v    172.010854 35.073108 82.302995
v    174.192325 36.622088 81.738656
v    180.356886 42.196175 80.020697
v    141.293262 20.344016 66.592971
v    139.055443 20.947990 66.592971
v    139.651295 18.707994 66.592971
v    138.706738 19.655984 106.256849
v    140.944557 19.052010 106.256849
v    140.348705 21.292006 106.256849
v    141.110255 14.184767 103.089119
v    131.512093 12.540108 112.316183
v    127.370087 11.775143 114.961319
v    120.251848 10.614554 119.482173
v    113.474574 9.422822 121.218507
v    104.018571 8.013662 123.624620
v    94.345514 7.715673 122.603024
v    138.074188 25.598290 103.089119
v    128.927424 22.256683 112.316183
v    124.952776 20.862568 114.961319
v    118.198685 18.333032 119.482173
v    111.725022 15.999933 121.218507
v    102.818638 12.524585 123.624620
v    94.275978 7.977081 122.603024
v    138.831935 19.515124 106.256849
v    141.003948 19.230864 106.256849
v    140.164118 21.254012 106.256849
v    141.168065 20.484876 147.748111
v    138.996052 20.769136 147.748111
v    139.835882 18.745988 147.748111
v    137.566507 26.501759 144.223395
v    147.907789 29.736782 154.490297
v    156.878525 32.670866 160.417525
v    160.001966 33.620319 162.463853
v    172.491480 37.587225 165.770453
v    179.725391 39.678437 167.665589
v    182.736803 40.552259 167.004189
v    193.602396 42.358439 164.727345
v    142.886365 13.686233 144.223395
v    152.478560 18.725803 154.490297
v    160.889997 23.007239 160.417525
v    163.767612 24.548887 162.463853
v    175.394821 30.593083 165.770453
v    181.983106 34.239608 167.665589
v    184.728065 35.755315 167.004189
v    193.678546 42.174993 164.727345
v    140.919824 20.756852 147.748111
v    138.884635 20.418165 147.748111
v    140.195542 18.824983 147.748111
v    139.080176 19.243148 182.880813
v    141.115365 19.581835 182.880813
v    139.804458 21.175017 182.880813
v    144.678710 14.182656 179.050853
v    134.949533 7.551944 190.206879
v    127.332618 2.215350 196.047431
v    123.590050 -0.291267 198.870953
v    112.761126 -7.740833 202.187525
v    104.980414 -12.799144 204.523165
v    92.207798 -19.424786 201.536382
v    135.192567 25.711428 179.050853
v    126.812340 17.441301 190.206879
v    120.108783 10.994677 196.047431
v    116.928347 7.804885 198.870953
v    107.532806 -1.386710 202.187525
v    101.070779 -8.047656 204.523165
v    92.109425 -19.305230 201.536382
v    139.227775 19.192038 182.880813
v    141.085829 19.735214 182.880813
v    139.686397 21.072748 182.880813
v    140.772225 20.807962 211.303238
v    138.914171 20.264786 211.303238
v    140.313603 18.927252 211.303238
v    134.493256 25.183095 207.239192
v    143.904598 33.399719 219.077071
v    147.794102 36.885068 222.356845
v    154.951047 43.032271 228.270691
v    161.420145 48.730043 230.445898
v    170.833224 56.593757 233.532824
v    181.727235 63.712631 232.194975
v    145.426746 14.733204 207.239192
v    153.209499 24.506383 219.077071
v    156.515447 28.549477 222.356845
v    162.332812 35.977008 228.270691
v    167.732302 42.697079 230.445898
v    175.162428 52.456038 233.532824
v    181.781525 63.660742 232.194975
v    140.631822 20.643936 211.303238
v    139.126424 20.225205 211.303238
v    140.241755 19.130858 211.303238
v    139.368178 19.356064 228.584330
v    140.873576 19.774795 228.584330
v    139.758245 20.869142 228.584330
v    145.711036 14.839114 224.373019
v    135.847834 6.453393 236.639854
v    133.185576 4.129996 238.858879
v    124.242882 -3.349450 246.166612
v    119.097070 -7.763228 247.877256
v    109.236866 -15.783259 251.076040
v    104.762023 -18.614666 252.381616
v    97.721164 -23.089514 250.657132
v    134.731588 25.611997 224.373019
v    126.534689 15.591322 236.639854
v    124.262269 12.885422 238.858879
v    116.954000 3.802300 246.166612
v    112.638742 -1.426405 247.877256
v    104.807410 -11.437138 251.076040
v    102.061493 -15.964944 252.381616
v    97.721164 -23.089514 250.657132
v    139.539741 19.490034 228.584330
v    140.671773 19.856387 228.584330
v    139.788486 20.653579 228.584330
v    140.460259 20.509966 239.303904
v    139.328227 20.143613 239.303904
v    140.211514 19.346421 239.303904
v    133.698423 24.952238 235.042329
v    143.316990 33.846675 247.455576
v    147.912644 38.207865 251.434293
v    154.593552 44.286390 257.096042
v    161.923850 51.124354 259.625511
v    171.554810 59.648931 262.862474
v    182.908887 67.542950 260.964995
v    145.570308 14.237519 235.042329
v    153.435192 24.714705 247.455576
v    157.303887 29.731996 251.434293
v    162.667822 36.999129 257.096042
v    168.720852 44.989863 259.625511
v    176.216546 55.441579 262.862474
v    182.908887 67.542950 260.964995
v    140.485629 20.094539 239.303904
v    139.675313 20.373297 239.303904
v    139.839059 19.532164 239.303904
v    139.514371 19.905461 244.835346
v    140.324687 19.626703 244.835346
v    140.160941 20.467836 244.835346
v    142.195934 12.505563 240.624035
v    129.317043 11.187525 252.890870
v    124.714269 10.656283 255.800565
v    114.204410 9.666445 262.417628
v    106.209497 8.813003 264.446431
v    93.540351 7.794540 267.645215
v    89.538378 7.948615 268.632632
v    79.900682 8.300287 266.639100
v    139.224186 27.770896 240.624035
v    126.791374 24.161429 252.890870
v    122.325445 22.927240 255.800565
v    112.211778 19.902235 262.417628
v    104.480563 17.694225 264.446431
v    92.354558 13.885742 267.645215
v    88.702638 12.241661 268.632632
v    79.900682 8.300287 266.639100
v    139.748902 19.792852 244.835346
v    140.304945 19.886117 244.835346
v    139.946154 20.321031 244.835346
v    140.251098 20.207148 246.684000
v    139.695055 20.113883 246.684000
v    140.053846 19.678969 246.684000
v    135.057704 23.481043 238.455809
v    144.568159 29.467846 251.521746
v    153.307829 34.860219 259.517563
v    156.546904 36.259672 262.181326
v    164.226154 39.985804 265.228713
v    142.478199 14.486156 238.455809
v    150.163525 22.685323 251.521746
v    157.118752 30.240739 259.517563
v    159.108348 33.154772 262.181326
v    164.226154 39.985804 265.228713
v    143.618456 22.282773 1.819378
v    143.810978 22.354128 1.948078
v    143.995804 22.416425 2.069923
v    144.970165 22.762462 2.330150
v    146.278792 23.058605 2.660950
v    144.027993 21.442063 1.819378
v    144.202855 21.549672 1.948078
v    144.365839 21.656806 2.069923
v    145.238934 22.210725 2.330150
v    146.278792 23.058605 2.660950
v    134.392093 14.863313 3.623409
v    133.785363 14.480102 3.804015
v    133.210520 14.206216 3.961007
v    132.108342 13.678361 3.708395
v    133.763176 15.648426 3.623409
v    133.256779 15.139963 3.804015
v    132.864032 14.638758 3.961007
v    132.108342 13.678361 3.708395
v    150.218669 24.543353 5.825348
v    152.549817 24.876054 5.381723
v    150.605554 23.547604 5.825348
v    152.549817 24.876054 5.381723
v    124.992807 15.920384 8.290550
v    122.720051 15.912328 7.820747
v    124.755535 16.923412 8.290550
v    122.720051 15.912328 7.820747
v    155.292794 38.097013 10.516450
v    156.788543 39.171222 10.135791
v    155.921074 37.546818 10.516450
v    156.788543 39.171222 10.135791
v    112.491613 2.064994 17.379407
v    111.324787 1.691695 16.679759
v    112.154439 2.593090 17.379407
v    111.324787 1.691695 16.679759
v    179.018225 48.373510 23.796392
v    179.701396 48.604949 23.173786
v    179.265601 48.030171 23.796392
v    179.701396 48.604949 23.173786
v    95.563882 -9.145663 45.574827
v    94.998536 -9.307955 45.067135
v    95.375566 -8.856509 45.574827
v    94.998536 -9.307955 45.067135
v    180.197989 42.482663 80.020697
v    180.892705 42.680670 79.871373
v    180.356886 42.196175 80.020697
v    180.892705 42.680670 79.871373
v    94.345514 7.715673 122.603024
v    93.749341 7.697040 122.479729
v    94.275978 7.977081 122.603024
v    93.749341 7.697040 122.479729
v    193.602396 42.358439 164.727345
v    194.034443 42.430258 164.636811
v    193.678546 42.174993 164.727345
v    194.034443 42.430258 164.636811
v    92.207798 -19.424786 201.536382
v    91.901852 -19.576276 201.465811
v    92.109425 -19.305230 201.536382
v    91.901852 -19.576276 201.465811
v    181.727235 63.712631 232.194975
v    181.865818 63.803282 232.160745
v    181.781525 63.660742 232.194975
v    181.865818 63.803282 232.160745
mtllib usm_39_2.5D_2018-10-01_3.mtl
usemtl APPID_2788130384_2442503561312 
o vid_3 
f 3 2 1
f 4 5 6
f 1 6 5
f 1 5 3
f 3 5 4
f 4 2 3
f 2 4 6
f 6 1 2
usemtl APPID_2788133856_2442503559776 
o vid_4 
f 7 11 12
f 8 12 13
f 7 12 8
f 8 13 9
f 9 13 14
f 9 14 10
usemtl APPID_2788130384_2442503561312 
o vid_5 
f 17 16 15
f 18 19 20
f 15 20 19
f 15 19 17
f 17 19 18
f 18 16 17
f 16 18 20
f 20 15 16
usemtl APPID_2788133856_2442503559776 
o vid_6 
f 21 27 28
f 22 28 29
f 23 29 30
f 24 30 31
f 21 28 22
f 22 29 23
f 23 30 24
f 24 31 25
f 25 31 32
f 25 32 26
usemtl APPID_2788130384_2442503561312 
o vid_7 
f 35 34 33
f 36 37 38
f 33 38 37
f 33 37 35
f 35 37 36
f 36 34 35
f 34 36 38
f 38 33 34
usemtl APPID_2788133856_2442503559776 
o vid_8 
f 39 46 47
f 40 47 48
f 41 48 49
f 42 49 50
f 43 50 51
f 39 47 40
f 40 48 41
f 41 49 42
f 42 50 43
f 43 51 44
f 44 51 52
f 44 52 45
usemtl APPID_2788130384_2442503561312 
o vid_9 
f 55 54 53
f 56 57 58
f 53 58 57
f 53 57 55
f 55 57 56
f 56 54 55
f 54 56 58
f 58 53 54
usemtl APPID_2788133856_2442503559776 
o vid_10 
f 59 66 67
f 60 67 68
f 61 68 69
f 62 69 70
f 63 70 71
f 59 67 60
f 60 68 61
f 61 69 62
f 62 70 63
f 63 71 64
f 64 71 72
f 64 72 65
usemtl APPID_2788130384_2442503561312 
o vid_11 
f 75 74 73
f 76 77 78
f 73 78 77
f 73 77 75
f 75 77 76
f 76 74 75
f 74 76 78
f 78 73 74
usemtl APPID_2788133856_2442503559776 
o vid_12 
f 79 87 88
f 80 88 89
f 81 89 90
f 82 90 91
f 83 91 92
f 84 92 93
f 79 88 80
f 80 89 81
f 81 90 82
f 82 91 83
f 83 92 84
f 84 93 85
f 85 93 94
f 85 94 86
usemtl APPID_2788130384_2442503561312 
o vid_13 
f 97 96 95
f 98 99 100
f 95 100 99
f 95 99 97
f 97 99 98
f 98 96 97
f 96 98 100
f 100 95 96
usemtl APPID_2788133856_2442503559776 
o vid_14 
f 101 111 112
f 102 112 113
f 103 113 114
f 104 114 115
f 105 115 116
f 106 116 117
f 107 117 118
f 108 118 119
f 101 112 102
f 102 113 103
f 103 114 104
f 104 115 105
f 105 116 106
f 106 117 107
f 107 118 108
f 108 119 109
f 109 119 120
f 109 120 110
usemtl APPID_2788130384_2442503561312 
o vid_15 
f 123 122 121
f 124 125 126
f 121 126 125
f 121 125 123
f 123 125 124
f 124 122 123
f 122 124 126
f 126 121 122
usemtl APPID_2788133856_2442503559776 
o vid_16 
f 127 137 138
f 128 138 139
f 129 139 140
f 130 140 141
f 131 141 142
f 132 142 143
f 133 143 144
f 134 144 145
f 127 138 128
f 128 139 129
f 129 140 130
f 130 141 131
f 131 142 132
f 132 143 133
f 133 144 134
f 134 145 135
f 135 145 146
f 135 146 136
usemtl APPID_2788130384_2442503561312 
o vid_17 
f 149 148 147
f 150 151 152
f 147 152 151
f 147 151 149
f 149 151 150
f 150 148 149
f 148 150 152
f 152 147 148
usemtl APPID_2788133856_2442503559776 
o vid_18 
f 153 164 165
f 154 165 166
f 155 166 167
f 156 167 168
f 157 168 169
f 158 169 170
f 159 170 171
f 160 171 172
f 161 172 173
f 153 165 154
f 154 166 155
f 155 167 156
f 156 168 157
f 157 169 158
f 158 170 159
f 159 171 160
f 160 172 161
f 161 173 162
f 162 173 174
f 162 174 163
usemtl APPID_2788130384_2442503561312 
o vid_19 
f 177 176 175
f 178 179 180
f 175 180 179
f 175 179 177
f 177 179 178
f 178 176 177
f 176 178 180
f 180 175 176
usemtl APPID_2788133856_2442503559776 
o vid_20 
f 181 189 190
f 182 190 191
f 183 191 192
f 184 192 193
f 185 193 194
f 186 194 195
f 181 190 182
f 182 191 183
f 183 192 184
f 184 193 185
f 185 194 186
f 186 195 187
f 187 195 196
f 187 196 188
usemtl APPID_2788130384_2442503561312 
o vid_21 
f 199 198 197
f 200 201 202
f 197 202 201
f 197 201 199
f 199 201 200
f 200 198 199
f 198 200 202
f 202 197 198
usemtl APPID_2788133856_2442503559776 
o vid_22 
f 203 210 211
f 204 211 212
f 205 212 213
f 206 213 214
f 207 214 215
f 203 211 204
f 204 212 205
f 205 213 206
f 206 214 207
f 207 215 208
f 208 215 216
f 208 216 209
usemtl APPID_2788130384_2442503561312 
o vid_23 
f 219 218 217
f 220 221 222
f 217 222 221
f 217 221 219
f 219 221 220
f 220 218 219
f 218 220 222
f 222 217 218
usemtl APPID_2788133856_2442503559776 
o vid_24 
f 223 231 232
f 224 232 233
f 225 233 234
f 226 234 235
f 227 235 236
f 228 236 237
f 223 232 224
f 224 233 225
f 225 234 226
f 226 235 227
f 227 236 228
f 228 237 229
f 229 237 238
f 229 238 230
usemtl APPID_2788130384_2442503561312 
o vid_25 
f 241 240 239
f 242 243 244
f 239 244 243
f 239 243 241
f 241 243 242
f 242 240 241
f 240 242 244
f 244 239 240
usemtl APPID_2788133856_2442503559776 
o vid_26 
f 245 252 253
f 246 253 254
f 247 254 255
f 248 255 256
f 249 256 257
f 245 253 246
f 246 254 247
f 247 255 248
f 248 256 249
f 249 257 250
f 250 257 258
f 250 258 251
usemtl APPID_2788130384_2442503561312 
o vid_27 
f 261 260 259
f 262 263 264
f 259 264 263
f 259 263 261
f 261 263 262
f 262 260 261
f 260 262 264
f 264 259 260
usemtl APPID_2788133856_2442503559776 
o vid_28 
f 265 272 273
f 266 273 274
f 267 274 275
f 268 275 276
f 269 276 277
f 265 273 266
f 266 274 267
f 267 275 268
f 268 276 269
f 269 277 270
f 270 277 278
f 270 278 271
usemtl APPID_2788130384_2442503561312 
o vid_29 
f 281 280 279
f 282 283 284
f 279 284 283
f 279 283 281
f 281 283 282
f 282 280 281
f 280 282 284
f 284 279 280
usemtl APPID_2788133856_2442503559776 
o vid_30 
f 285 293 294
f 286 294 295
f 287 295 296
f 288 296 297
f 289 297 298
f 290 298 299
f 285 294 286
f 286 295 287
f 287 296 288
f 288 297 289
f 289 298 290
f 290 299 291
f 291 299 300
usemtl APPID_2788130384_2442503561312 
o vid_31 
f 303 302 301
f 304 305 306
f 301 306 305
f 301 305 303
f 303 305 304
f 304 302 303
f 302 304 306
f 306 301 302
usemtl APPID_2788133856_2442503559776 
o vid_32 
f 307 314 315
f 308 315 316
f 309 316 317
f 310 317 318
f 311 318 319
f 307 315 308
f 308 316 309
f 309 317 310
f 310 318 311
f 311 319 312
f 312 319 320
usemtl APPID_2788130384_2442503561312 
o vid_33 
f 323 322 321
f 324 325 326
f 321 326 325
f 321 325 323
f 323 325 324
f 324 322 323
f 322 324 326
f 326 321 322
usemtl APPID_2788133856_2442503559776 
o vid_34 
f 327 335 336
f 328 336 337
f 329 337 338
f 330 338 339
f 331 339 340
f 332 340 341
f 327 336 328
f 328 337 329
f 329 338 330
f 330 339 331
f 331 340 332
f 332 341 333
f 333 341 342
usemtl APPID_2788130384_2442503561312 
o vid_35 
f 345 344 343
f 346 347 348
f 343 348 347
f 343 347 345
f 345 347 346
f 346 344 345
f 344 346 348
f 348 343 344
usemtl APPID_2788133856_2442503559776 
o vid_36 
f 349 354 355
f 350 355 356
f 351 356 357
f 349 355 350
f 350 356 351
f 351 357 352
f 352 357 358
usemtl APPID_2788138448_2442503559648 
o vid_10000004 
f 359 364 365
f 360 365 366
f 361 366 367
f 359 365 360
f 360 366 361
f 361 367 362
f 362 367 368
usemtl APPID_2788138448_2442503559648 
o vid_10000006 
f 369 373 374
f 370 374 375
f 369 374 370
f 370 375 371
f 371 375 376
usemtl APPID_2788138448_2442503559648 
o vid_10000008 
f 377 379 380
f 377 380 378
f 377 379 380
usemtl APPID_2788138448_2442503559648 
o vid_10000010 
f 381 383 384
f 381 384 382
f 381 383 384
usemtl APPID_2788138448_2442503559648 
o vid_10000012 
f 385 387 388
f 385 388 386
f 385 387 388
usemtl APPID_2788138448_2442503559648 
o vid_10000014 
f 389 391 392
f 389 392 390
f 389 391 392
usemtl APPID_2788138448_2442503559648 
o vid_10000016 
f 393 395 396
f 393 396 394
f 393 395 396
usemtl APPID_2788138448_2442503559648 
o vid_10000018 
f 397 399 400
f 397 400 398
f 397 399 400
usemtl APPID_2788138448_2442503559648 
o vid_10000020 
f 401 403 404
f 401 404 402
f 401 403 404
usemtl APPID_2788138448_2442503559648 
o vid_10000022 
f 405 407 408
f 405 408 406
f 405 407 408
usemtl APPID_2788138448_2442503559648 
o vid_10000024 
f 409 411 412
f 409 412 410
f 409 411 412
usemtl APPID_2788138448_2442503559648 
o vid_10000026 
f 413 415 416
f 413 416 414
f 413 415 416
usemtl APPID_2788138448_2442503559648 
o vid_10000028 
f 417 419 420
f 417 420 418
f 417 419 420
