# File generated by PlantGL - Fri Sep  4 14:43:31 2026
v    18.201987 59.124129 0.000000
v    21.657533 58.880811 0.000000
v    20.140480 61.995060 0.000000
v    21.798013 60.875871 0.331061
v    18.342467 61.119189 0.331061
v    19.859520 58.004940 0.331061
v    21.394330 61.445563 -0.061071
v    22.502944 61.866673 1.062602
v    23.848409 62.365006 1.968217
v    25.176317 62.842921 2.323568
v    25.875363 63.001116 2.500276
v    21.997756 60.206833 -0.061071
v    23.012721 60.820188 1.062602
v    24.234493 61.572441 1.968217
v    25.429366 62.323454 2.323568
v    25.984840 62.776378 2.500276
v    21.503548 61.204422 0.331061
v    18.205166 60.699900 0.331061
v    20.291286 58.095678 0.331061
v    18.496452 58.795578 0.718770
v    21.794834 59.300100 0.718770
v    19.708714 61.904322 0.718770
v    19.266993 58.084573 0.176461
v    17.877177 57.163843 1.756114
v    17.006434 56.570659 2.417763
v    16.250808 56.078809 2.982916
v    14.954690 55.211999 3.376361
v    13.587779 54.348658 3.783249
v    12.342563 53.749672 3.497506
v    17.970766 59.702725 0.176461
v    16.768894 58.547374 1.756114
v    15.999963 57.827093 2.417763
v    15.355049 57.197035 2.982916
v    14.226247 56.121355 3.376361
v    13.085379 54.975832 3.783249
v    12.229055 53.891372 3.497506
v    18.272844 59.328938 0.718770
v    21.444735 58.839770 0.718770
v    20.282421 61.831292 0.718770
v    21.727156 60.671062 1.487000
v    18.555265 61.160230 1.487000
v    19.717579 58.168708 1.487000
v    21.010183 61.931582 0.754799
v    23.173223 62.554282 2.887577
v    24.968122 63.096214 4.065016
v    25.704041 63.301646 4.543950
v    28.222362 64.038529 5.206038
v    29.829908 64.463646 5.624524
v    32.438484 64.901623 5.074803
v    22.049300 59.257137 0.754799
v    24.065348 60.258163 2.887577
v    25.755294 61.070218 4.065016
v    26.436865 61.415531 4.543950
v    28.792086 62.572194 5.206038
v    30.264958 63.343930 5.624524
v    32.484952 64.782026 5.074803
v    21.731622 60.409625 1.487000
v    18.779443 61.294816 1.487000
v    19.488935 58.295559 1.487000
v    18.268378 59.590375 2.857581
v    21.220557 58.705184 2.857581
v    20.511065 61.704441 2.857581
v    18.985199 57.772831 1.892457
v    16.048134 57.352931 4.703701
v    13.059639 56.886192 6.603204
v    8.561697 56.228811 7.919777
v    7.017210 56.042210 8.311311
v    5.657979 55.876610 8.022487
v    2.720445 55.866198 7.415266
v    18.094893 61.536448 1.892457
v    15.280985 60.595922 4.703701
v    12.400113 59.674228 6.603204
v    8.084359 58.246679 7.919777
v    6.619962 57.721510 8.311311
v    5.330595 57.260569 8.022487
v    2.699735 55.953745 7.415266
v    18.876148 58.716648 2.857581
v    21.673341 59.668392 2.857581
v    19.450510 61.614960 2.857581
v    21.123852 61.283352 4.464214
v    18.326659 60.331608 4.464214
v    20.549490 58.385040 4.464214
v    18.855881 62.791935 3.222259
v    20.342409 64.209113 5.168348
v    21.619525 65.426062 6.839864
v    24.818219 68.553922 9.649394
v    26.572460 70.303286 10.275402
v    30.020629 73.617807 11.482257
v    33.648761 76.974758 10.438956
v    36.451064 78.987301 9.725785
v    36.785636 79.212757 9.495377
v    22.918482 59.234250 3.222259
v    24.127139 60.894765 5.168348
v    25.164946 62.321280 6.839864
v    27.843426 65.904700 9.649394
v    29.346042 67.874417 10.275402
v    32.176636 71.729758 11.482257
v    35.025544 75.769087 10.438956
v    36.650757 78.812427 9.725785
v    36.830099 79.173820 9.495377
v    21.375838 60.878433 4.464214
v    18.551335 60.752294 4.464214
v    20.072827 58.369272 4.464214
v    18.624162 59.121567 11.608452
v    21.448665 59.247706 11.608452
v    19.927173 61.630728 11.608452
v    20.969321 56.287133 10.048190
v    19.308185 55.331210 11.869667
v    18.043258 54.675588 13.219674
v    16.756511 54.008656 14.592969
v    15.105604 53.125798 15.768682
v    11.799913 51.358889 18.122569
v    4.592542 47.415183 20.198571
v    -2.061703 43.925634 19.026187
v    -5.497449 42.235456 18.218538
v    -8.852716 41.049151 16.170788
v    -10.254150 40.660521 14.915476
v    17.039782 62.441736 10.048190
v    15.473592 61.337104 11.869667
v    14.346550 60.465522 13.219674
v    13.200066 59.578905 14.592969
v    11.704462 58.452805 15.768682
v    8.710540 56.197591 18.122569
v    2.100068 51.318999 20.198571
v    -3.865656 46.751058 19.026187
v    -6.844700 44.345576 18.218538
v    -9.332791 41.801063 16.170788
v    -10.275076 40.693296 14.915476
v    18.735263 59.088754 11.608452
v    21.421531 59.360328 11.608452
v    19.843206 61.550918 11.608452
v    21.264737 60.911246 22.178673
v    18.578469 60.639672 22.178673
v    20.156794 58.449082 22.178673
v    18.167754 64.262727 20.265041
v    20.345744 65.838104 22.822423
v    23.003753 67.573129 25.839128
v    28.872850 71.169934 30.162872
v    38.368236 77.080707 32.992234
v    41.925022 79.297800 32.104693
v    46.180057 81.843779 31.056110
v    49.305808 83.714057 30.285821
v    53.060565 85.775550 27.774294
v    58.501064 87.812486 22.713804
v    58.604857 87.831352 22.538840
v    23.463527 56.912615 20.265041
v    25.647332 58.479921 22.822423
v    28.134524 60.452027 25.839128
v    33.404223 64.880749 30.162872
v    42.016792 72.016801 32.992234
v    45.245770 74.688867 32.104693
v    49.007750 77.919166 31.056110
v    51.771304 80.292146 30.285821
v    54.915350 83.201256 27.774294
v    58.569721 87.717196 22.713804
v    58.620472 87.809679 22.538840
v    21.244614 60.810576 22.178673
v    18.675713 60.672580 22.178673
v    20.079672 58.516844 22.178673
v    18.755386 59.189424 39.904758
v    21.324287 59.327420 39.904758
v    19.920328 61.483156 39.904758
v    22.270725 55.006195 37.613422
v    18.681862 52.897535 41.569432
v    16.146942 51.554465 44.287696
v    12.350195 49.479735 47.004835
v    8.903530 47.597231 49.471120
v    -2.777774 41.067635 52.852648
v    -12.943561 35.607515 50.412276
v    -16.332429 33.902189 49.612057
v    -18.858686 32.677983 47.966847
v    -24.622292 30.926393 43.462856
v    16.350804 64.096052 37.613422
v    12.971062 61.666292 41.569432
v    10.717693 59.890910 44.287696
v    7.284927 57.257299 47.004835
v    4.169527 54.866147 49.471120
v    -6.525788 46.822596 52.852648
v    -15.630159 39.732705 50.412276
v    -18.560142 37.322773 49.612057
v    -20.701295 35.507251 47.966847
v    -24.633811 30.944079 43.462856
v    18.765415 59.315252 39.904758
v    21.210302 59.273192 39.904758
v    20.024283 61.411556 39.904758
v    21.234585 60.684748 66.655851
v    18.789698 60.726808 66.655851
v    19.975717 58.588444 66.655851
v    18.109207 64.722387 63.977371
v    25.640590 68.050663 71.779329
v    29.510524 69.820996 74.451838
v    34.469858 71.964896 77.838544
v    40.507983 74.664796 79.507507
v    47.971365 77.770640 81.542000
v    56.287499 80.138780 80.213158
v    23.004913 55.895547 63.977371
v    29.816145 60.522238 71.779329
v    33.367043 62.867785 74.451838
v    37.811672 65.939685 77.838544
v    43.299175 69.632342 79.507507
v    49.885709 74.319123 81.542000
v    56.297963 80.119914 80.213158
v    21.293262 60.344016 66.655851
v    19.055443 60.947990 66.655851
v    19.651295 58.707994 66.655851
v    18.706738 59.655984 106.596264
v    20.944557 59.052010 106.596264
v    20.348705 61.292006 106.596264
v    20.793349 55.251218 103.539533
v    17.992898 54.771357 106.231709
v    11.490020 53.820177 112.443274
v    6.456574 52.999501 115.640058
v    0.556415 52.217452 119.358163
v    -1.837117 51.860761 119.967205
v    -11.637797 51.574141 122.384595
v    18.329038 64.515331 103.539533
v    15.660291 63.540352 106.231709
v    9.544277 61.134830 112.443274
v    4.768327 59.346145 115.640058
v    -0.740593 57.093309 119.358163
v    -2.995004 56.213618 119.967205
v    -11.642770 51.592838 122.384595
v    18.831935 59.515124 106.596264
v    21.003948 59.230864 106.596264
v    20.164118 61.254012 106.596264
v    21.168065 60.484876 148.385322
v    18.996052 60.769136 148.385322
v    19.835882 58.745988 148.385322
v    17.908270 65.768310 144.979708
v    27.900115 68.894020 154.899686
v    39.645722 72.501554 162.603811
v    43.597517 73.756719 163.650049
v    53.471580 76.611158 166.236851
v    59.046631 77.526396 167.629778
v    64.312572 78.401749 166.526320
v    22.608238 54.446098 144.979708
v    31.876308 59.315378 154.899686
v    42.723799 65.086474 162.603811
v    46.402753 66.998912 163.650049
v    55.395555 71.976304 166.236851
v    59.979834 75.278310 167.629778
v    64.317629 78.389567 166.526320
v    20.911220 60.749773 148.385322
v    18.895067 60.414253 148.385322
v    20.193713 58.835973 148.385322
v    19.088780 59.250227 183.515475
v    21.104933 59.585747 183.515475
v    19.806287 61.164027 183.515475
v    24.573703 54.270591 179.811203
v    15.163808 47.857479 190.601122
v    6.627391 41.876659 197.146736
v    4.196257 40.248387 198.980867
v    -7.626049 32.115442 202.601682
v    -13.775319 28.117745 204.447590
v    -17.026002 25.999811 203.629228
v    -27.794379 20.667820 201.145371
v    15.258634 65.591453 179.811203
v    7.153421 57.592725 190.601122
v    -0.359379 50.367876 197.146736
v    -2.425358 48.295820 198.980867
v    -12.682790 38.261041 202.601682
v    -17.789876 32.996747 204.447590
v    -20.494178 30.214781 203.629228
v    -27.800121 20.674800 201.145371
v    19.355658 59.325839 183.515475
v    20.906012 59.779064 183.515475
v    19.738331 60.895097 183.515475
v    20.644342 60.674161 211.766931
v    19.093988 60.220936 211.766931
v    20.261669 59.104903 211.766931
v    14.488074 64.984252 207.833426
v    23.597114 72.936950 219.291060
v    28.414591 77.253847 223.353335
v    34.267169 82.280710 228.189371
v    41.744821 88.866783 230.703700
v    50.855542 96.477907 233.691471
v    61.543906 103.466473 231.608613
v    25.228340 54.719038 207.833426
v    32.761104 64.178293 219.291060
v    36.855798 69.186003 223.353335
v    41.612937 75.259853 228.189371
v    47.854225 83.027604 230.703700
v    55.045688 92.473096 233.691471
v    61.543906 103.466473 231.608613
v    20.495901 60.505409 211.766931
v    19.314353 60.176758 211.766931
v    20.189747 59.317833 211.766931
v    19.504099 59.494591 228.884261
v    20.685647 59.823242 228.884261
v    19.810253 60.682167 228.884261
v    25.777761 54.991432 224.806463
v    16.227254 46.871565 236.684400
v    11.847968 43.049689 240.334590
v    5.026236 37.344162 245.909129
v    -2.037084 31.285657 248.257218
v    -11.584689 23.519887 251.354590
v    -22.752703 16.427533 249.672375
v    14.882611 65.681602 224.806463
v    6.945580 55.978616 236.684400
v    3.207559 51.527539 240.334590
v    -2.367389 44.598685 245.909129
v    -8.290663 37.421583 248.257218
v    -15.873717 27.728222 251.354590
v    -22.752703 16.427533 249.672375
v    19.660613 59.623960 228.884261
v    20.495354 59.894102 228.884261
v    19.844033 60.481938 228.884261
v    20.339387 60.376040 239.475624
v    19.504646 60.105898 239.475624
v    20.155967 59.518062 239.475624
v    13.645894 64.809041 235.348561
v    22.960861 73.422735 247.369997
v    29.245866 79.387087 252.811280
v    33.841869 83.568693 256.706172
v    43.060903 92.168536 259.887388
v    51.717430 99.830621 262.796844
v    63.401174 108.088403 259.834348
v    25.433230 54.170630 235.348561
v    33.049867 64.317116 247.369997
v    38.340685 71.178750 252.811280
v    42.030701 76.178035 256.706172
v    49.643365 86.227674 259.887388
v    56.380666 95.621916 262.796844
v    63.401174 108.088403 259.834348
v    20.321962 60.062677 239.475624
v    19.784739 60.247489 239.475624
v    19.893299 59.689834 239.475624
v    19.678038 59.937323 242.668000
v    20.215261 59.752511 242.668000
v    20.106701 60.310166 242.668000
v    22.068521 54.575043 234.347625
v    13.416859 54.255658 247.922383
v    4.798984 53.979966 257.205775
v    0.564174 54.519828 261.465169
v    -6.066151 54.925625 264.945695
v    19.882401 65.804749 234.347625
v    11.742738 62.855317 247.922383
v    3.650785 59.878057 257.205775
v    -0.072249 57.789018 261.465169
v    -6.066151 54.925625 264.945695
v    25.875363 63.001116 2.500276
v    26.059887 63.042873 2.546920
v    26.411247 63.123128 2.472420
v    25.984840 62.776378 2.500276
v    26.131466 62.895934 2.546920
v    26.411247 63.123128 2.472420
v    12.342563 53.749672 3.497506
v    11.981493 53.576749 3.414751
v    12.229055 53.891372 3.497506
v    11.981493 53.576749 3.414751
v    32.438484 64.901623 5.074803
v    32.718568 64.941620 5.016320
v    32.484952 64.782026 5.074803
v    32.718568 64.941620 5.016320
v    2.720445 55.866198 7.415266
v    2.522072 55.865495 7.374261
v    2.699735 55.953745 7.415266
v    2.522072 55.865495 7.374261
v    36.785636 79.212757 9.495377
v    36.881469 79.277336 9.429380
v    36.830099 79.173820 9.495377
v    36.881469 79.277336 9.429380
v    -10.254150 40.660521 14.915476
v    -10.318021 40.642809 14.858265
v    -10.275076 40.693296 14.915476
v    -10.318021 40.642809 14.858265
v    58.604857 87.831352 22.538840
v    58.635413 87.836906 22.487330
v    58.620472 87.809679 22.538840
v    58.635413 87.836906 22.487330
v    -24.622292 30.926393 43.462856
v    -24.656872 30.916466 43.431803
v    -24.633811 30.944079 43.462856
v    -24.656872 30.916466 43.431803
v    56.287499 80.138780 80.213158
v    56.333247 80.151819 80.203325
v    56.297963 80.119914 80.213158
v    56.333247 80.151819 80.203325
v    -11.637797 51.574141 122.384595
v    -11.680077 51.572904 122.395023
v    -11.642770 51.592838 122.384595
v    -11.680077 51.572904 122.395023
v    64.312572 78.401749 166.526320
v    64.341264 78.406519 166.520307
v    64.317629 78.389567 166.526320
v    64.341264 78.406519 166.520307
v    -27.794379 20.667820 201.145371
v    -27.812239 20.658977 201.141251
v    -27.800121 20.674800 201.145371
v    -27.812239 20.658977 201.141251
mtllib usm_25_2.5D_2018-09-26_1.mtl
usemtl APPID_3164113920_2021840696688 
o vid_3 
f 3 2 1
f 4 5 6
f 1 6 5
f 1 5 3
f 3 5 4
f 4 2 3
f 2 4 6
f 6 1 2
usemtl APPID_3164113360_2021840702576 
o vid_4 
f 7 12 13
f 8 13 14
f 9 14 15
f 7 13 8
f 8 14 9
f 9 15 10
f 10 15 16
f 10 16 11
usemtl APPID_3164113920_2021840696688 
o vid_5 
f 19 18 17
f 20 21 22
f 17 22 21
f 17 21 19
f 19 21 20
f 20 18 19
f 18 20 22
f 22 17 18
usemtl APPID_3164113360_2021840702576 
o vid_6 
f 23 30 31
f 24 31 32
f 25 32 33
f 26 33 34
f 27 34 35
f 23 31 24
f 24 32 25
f 25 33 26
f 26 34 27
f 27 35 28
f 28 35 36
f 28 36 29
usemtl APPID_3164113920_2021840696688 
o vid_7 
f 39 38 37
f 40 41 42
f 37 42 41
f 37 41 39
f 39 41 40
f 40 38 39
f 38 40 42
f 42 37 38
usemtl APPID_3164113360_2021840702576 
o vid_8 
f 43 50 51
f 44 51 52
f 45 52 53
f 46 53 54
f 47 54 55
f 43 51 44
f 44 52 45
f 45 53 46
f 46 54 47
f 47 55 48
f 48 55 56
f 48 56 49
usemtl APPID_3164113920_2021840696688 
o vid_9 
f 59 58 57
f 60 61 62
f 57 62 61
f 57 61 59
f 59 61 60
f 60 58 59
f 58 60 62
f 62 57 58
usemtl APPID_3164113360_2021840702576 
o vid_10 
f 63 70 71
f 64 71 72
f 65 72 73
f 66 73 74
f 67 74 75
f 63 71 64
f 64 72 65
f 65 73 66
f 66 74 67
f 67 75 68
f 68 75 76
f 68 76 69
usemtl APPID_3164113920_2021840696688 
o vid_11 
f 79 78 77
f 80 81 82
f 77 82 81
f 77 81 79
f 79 81 80
f 80 78 79
f 78 80 82
f 82 77 78
usemtl APPID_3164113360_2021840702576 
o vid_12 
f 83 92 93
f 84 93 94
f 85 94 95
f 86 95 96
f 87 96 97
f 88 97 98
f 89 98 99
f 83 93 84
f 84 94 85
f 85 95 86
f 86 96 87
f 87 97 88
f 88 98 89
f 89 99 90
f 90 99 100
f 90 100 91
usemtl APPID_3164113920_2021840696688 
o vid_13 
f 103 102 101
f 104 105 106
f 101 106 105
f 101 105 103
f 103 105 104
f 104 102 103
f 102 104 106
f 106 101 102
usemtl APPID_3164113360_2021840702576 
o vid_14 
f 107 118 119
f 108 119 120
f 109 120 121
f 110 121 122
f 111 122 123
f 112 123 124
f 113 124 125
f 114 125 126
f 115 126 127
f 107 119 108
f 108 120 109
f 109 121 110
f 110 122 111
f 111 123 112
f 112 124 113
f 113 125 114
f 114 126 115
f 115 127 116
f 116 127 128
f 116 128 117
usemtl APPID_3164113920_2021840696688 
o vid_15 
f 131 130 129
f 132 133 134
f 129 134 133
f 129 133 131
f 131 133 132
f 132 130 131
f 130 132 134
f 134 129 130
usemtl APPID_3164113360_2021840702576 
o vid_16 
f 135 146 147
f 136 147 148
f 137 148 149
f 138 149 150
f 139 150 151
f 140 151 152
f 141 152 153
f 142 153 154
f 143 154 155
f 135 147 136
f 136 148 137
f 137 149 138
f 138 150 139
f 139 151 140
f 140 152 141
f 141 153 142
f 142 154 143
f 143 155 144
f 144 155 156
f 144 156 145
usemtl APPID_3164113920_2021840696688 
o vid_17 
f 159 158 157
f 160 161 162
f 157 162 161
f 157 161 159
f 159 161 160
f 160 158 159
f 158 160 162
f 162 157 158
usemtl APPID_3164113360_2021840702576 
o vid_18 
f 163 173 174
f 164 174 175
f 165 175 176
f 166 176 177
f 167 177 178
f 168 178 179
f 169 179 180
f 170 180 181
f 163 174 164
f 164 175 165
f 165 176 166
f 166 177 167
f 167 178 168
f 168 179 169
f 169 180 170
f 170 181 171
f 171 181 182
f 171 182 172
usemtl APPID_3164113920_2021840696688 
o vid_19 
f 185 184 183
f 186 187 188
f 183 188 187
f 183 187 185
f 185 187 186
f 186 184 185
f 184 186 188
f 188 183 184
usemtl APPID_3164113360_2021840702576 
o vid_20 
f 189 196 197
f 190 197 198
f 191 198 199
f 192 199 200
f 193 200 201
f 189 197 190
f 190 198 191
f 191 199 192
f 192 200 193
f 193 201 194
f 194 201 202
f 194 202 195
usemtl APPID_3164113920_2021840696688 
o vid_21 
f 205 204 203
f 206 207 208
f 203 208 207
f 203 207 205
f 205 207 206
f 206 204 205
f 204 206 208
f 208 203 204
usemtl APPID_3164113360_2021840702576 
o vid_22 
f 209 216 217
f 210 217 218
f 211 218 219
f 212 219 220
f 213 220 221
f 209 217 210
f 210 218 211
f 211 219 212
f 212 220 213
f 213 221 214
f 214 221 222
f 214 222 215
usemtl APPID_3164113920_2021840696688 
o vid_23 
f 225 224 223
f 226 227 228
f 223 228 227
f 223 227 225
f 225 227 226
f 226 224 225
f 224 226 228
f 228 223 224
usemtl APPID_3164113360_2021840702576 
o vid_24 
f 229 236 237
f 230 237 238
f 231 238 239
f 232 239 240
f 233 240 241
f 229 237 230
f 230 238 231
f 231 239 232
f 232 240 233
f 233 241 234
f 234 241 242
f 234 242 235
usemtl APPID_3164113920_2021840696688 
o vid_25 
f 245 244 243
f 246 247 248
f 243 248 247
f 243 247 245
f 245 247 246
f 246 244 245
f 244 246 248
f 248 243 244
usemtl APPID_3164113360_2021840702576 
o vid_26 
f 249 257 258
f 250 258 259
f 251 259 260
f 252 260 261
f 253 261 262
f 254 262 263
f 249 258 250
f 250 259 251
f 251 260 252
f 252 261 253
f 253 262 254
f 254 263 255
f 255 263 264
f 255 264 256
usemtl APPID_3164113920_2021840696688 
o vid_27 
f 267 266 265
f 268 269 270
f 265 270 269
f 265 269 267
f 267 269 268
f 268 266 267
f 266 268 270
f 270 265 266
usemtl APPID_3164113360_2021840702576 
o vid_28 
f 271 278 279
f 272 279 280
f 273 280 281
f 274 281 282
f 275 282 283
f 271 279 272
f 272 280 273
f 273 281 274
f 274 282 275
f 275 283 276
f 276 283 284
usemtl APPID_3164113920_2021840696688 
o vid_29 
f 287 286 285
f 288 289 290
f 285 290 289
f 285 289 287
f 287 289 288
f 288 286 287
f 286 288 290
f 290 285 286
usemtl APPID_3164113360_2021840702576 
o vid_30 
f 291 298 299
f 292 299 300
f 293 300 301
f 294 301 302
f 295 302 303
f 291 299 292
f 292 300 293
f 293 301 294
f 294 302 295
f 295 303 296
f 296 303 304
usemtl APPID_3164113920_2021840696688 
o vid_31 
f 307 306 305
f 308 309 310
f 305 310 309
f 305 309 307
f 307 309 308
f 308 306 307
f 306 308 310
f 310 305 306
usemtl APPID_3164113360_2021840702576 
o vid_32 
f 311 318 319
f 312 319 320
f 313 320 321
f 314 321 322
f 315 322 323
f 311 319 312
f 312 320 313
f 313 321 314
f 314 322 315
f 315 323 316
f 316 323 324
usemtl APPID_3164113920_2021840696688 
o vid_33 
f 327 326 325
f 328 329 330
f 325 330 329
f 325 329 327
f 327 329 328
f 328 326 327
f 326 328 330
f 330 325 326
usemtl APPID_3164113360_2021840702576 
o vid_34 
f 331 336 337
f 332 337 338
f 333 338 339
f 331 337 332
f 332 338 333
f 333 339 334
f 334 339 340
usemtl APPID_3164102048_2021840696176 
o vid_10000004 
f 341 344 345
f 341 345 342
f 342 345 346
usemtl APPID_3164102048_2021840696176 
o vid_10000006 
f 347 349 350
f 347 350 348
f 347 349 350
usemtl APPID_3164102048_2021840696176 
o vid_10000008 
f 351 353 354
f 351 354 352
f 351 353 354
usemtl APPID_3164102048_2021840696176 
o vid_10000010 
f 355 357 358
f 355 358 356
f 355 357 358
usemtl APPID_3164102048_2021840696176 
o vid_10000012 
f 359 361 362
f 359 362 360
f 359 361 362
usemtl APPID_3164102048_2021840696176 
o vid_10000014 
f 363 365 366
f 363 366 364
f 363 365 366
usemtl APPID_3164102048_2021840696176 
o vid_10000016 
f 367 369 370
f 367 370 368
f 367 369 370
usemtl APPID_3164102048_2021840696176 
o vid_10000018 
f 371 373 374
f 371 374 372
f 371 373 374
usemtl APPID_3164102048_2021840696176 
o vid_10000020 
f 375 377 378
f 375 378 376
f 375 377 378
usemtl APPID_3164102048_2021840696176 
o vid_10000022 
f 379 381 382
f 379 382 380
f 379 381 382
usemtl APPID_3164102048_2021840696176 
o vid_10000024 
f 383 385 386
f 383 386 384
f 383 385 386
usemtl APPID_3164102048_2021840696176 
o vid_10000026 
f 387 389 390
f 387 390 388
f 387 389 390
