# File generated by PlantGL - Fri Sep  4 14:43:35 2026
v    18.899913 19.464111 0.000000
v    21.014137 19.315241 0.000000
v    20.085951 21.220648 0.000000
v    21.100087 20.535889 0.331061
v    18.985863 20.684759 0.331061
v    19.914049 18.779352 0.331061
v    20.701253 21.102044 -0.051354
v    21.800237 21.519497 1.062557
v    23.093117 22.001594 1.927651
v    23.463452 22.144118 2.027778
v    24.551056 22.530373 2.318249
v    25.238463 22.685934 2.492015
v    25.756808 22.804330 2.382108
v    21.300035 19.872848 -0.051354
v    22.306183 20.480875 1.062557
v    23.482757 21.201729 1.927651
v    23.823266 21.405481 2.027778
v    24.797835 22.023778 2.318249
v    25.344061 22.469160 2.492015
v    25.756808 22.804330 2.382108
v    20.684994 20.548717 0.331061
v    19.182300 20.318864 0.331061
v    20.132706 19.132420 0.331061
v    19.315006 19.451283 0.639641
v    20.817700 19.681136 0.639641
v    19.867294 20.867580 0.639641
v    20.043652 18.787379 0.108568
v    18.682631 17.885726 1.655493
v    18.273465 17.606986 1.966405
v    17.082877 16.832012 2.856877
v    16.325061 16.325204 3.086917
v    14.969913 15.469293 3.490303
v    14.419484 15.207039 3.640628
v    13.417817 14.727321 3.411053
v    18.826142 20.307266 0.108568
v    17.649171 19.175852 1.655493
v    17.287847 18.837389 1.966405
v    16.271700 17.844650 2.856877
v    15.611711 17.215720 3.086917
v    14.480661 16.080055 3.490303
v    14.104592 15.600135 3.640628
v    13.417817 14.727321 3.411053
v    19.483002 19.799128 0.639641
v    20.432460 19.652703 0.639641
v    20.084539 20.548170 0.639641
v    20.516998 20.200872 0.717000
v    19.567540 20.347297 0.717000
v    19.915461 19.451830 0.717000
v    20.245983 20.912905 -0.721048
v    20.799837 20.879712 1.340721
v    21.079207 20.763661 2.233640
v    21.752934 20.681078 3.509816
v    20.797805 19.492644 -0.721048
v    21.183962 19.891065 1.340721
v    21.311695 20.165290 2.233640
v    21.752934 20.681078 3.509816
mtllib usm_35_2.5D_2018-07-18_0.mtl
usemtl APPID_929268784_1946549157584 
o vid_3 
f 3 2 1
f 4 5 6
f 1 6 5
f 1 5 3
f 3 5 4
f 4 2 3
f 2 4 6
f 6 1 2
usemtl APPID_929265088_1946549157840 
o vid_4 
f 7 14 15
f 8 15 16
f 9 16 17
f 10 17 18
f 11 18 19
f 7 15 8
f 8 16 9
f 9 17 10
f 10 18 11
f 11 19 12
f 12 19 20
usemtl APPID_929268784_1946549157584 
o vid_5 
f 23 22 21
f 24 25 26
f 21 26 25
f 21 25 23
f 23 25 24
f 24 22 23
f 22 24 26
f 26 21 22
usemtl APPID_929265088_1946549157840 
o vid_6 
f 27 35 36
f 28 36 37
f 29 37 38
f 30 38 39
f 31 39 40
f 32 40 41
f 27 36 28
f 28 37 29
f 29 38 30
f 30 39 31
f 31 40 32
f 32 41 33
f 33 41 42
usemtl APPID_929268784_1946549157584 
o vid_7 
f 45 44 43
f 46 47 48
f 43 48 47
f 43 47 45
f 45 47 46
f 46 44 45
f 44 46 48
f 48 43 44
usemtl APPID_929265088_1946549157840 
o vid_8 
f 49 53 54
f 50 54 55
f 49 54 50
f 50 55 51
f 51 55 56
