# File generated by PlantGL - Fri Sep  4 14:41:24 2026
v    17.752484 118.905161 0.000000
v    22.071916 118.601013 0.000000
v    20.175600 122.493825 0.000000
v    22.247516 121.094839 0.848018
v    17.928084 121.398987 0.848018
v    19.824400 117.506175 0.848018
v    22.061621 121.449878 0.686083
v    22.363977 121.565153 0.986774
v    22.457091 121.598914 1.078665
v    22.412489 120.729608 0.686083
v    22.689638 120.896628 0.986774
v    22.773619 120.949136 1.078665
v    21.879284 121.505407 0.848018
v    17.756638 120.874804 0.848018
v    20.364078 117.619789 0.848018
v    18.120716 118.494593 1.416666
v    22.243362 119.125196 1.416666
v    19.635922 122.380211 1.416666
v    18.495907 118.052637 1.186837
v    18.010760 117.730377 1.728055
v    17.880621 117.646979 1.871458
v    17.018823 117.079621 2.565979
v    16.988059 117.058833 2.577880
v    17.771304 118.957200 1.186837
v    17.350926 118.554085 1.728055
v    17.241133 118.445287 1.871458
v    16.499359 117.728098 2.565979
v    16.472357 117.702612 2.577880
v    17.841416 119.161313 1.416666
v    21.805616 118.549955 1.416666
v    20.352968 122.288732 1.416666
v    22.158584 120.838687 2.254254
v    18.194384 121.450045 2.254254
v    19.647032 117.711268 2.254254
v    21.869293 121.519816 1.934528
v    22.859622 121.789757 2.886938
v    24.240114 122.182869 3.853120
v    24.769874 122.340640 4.030296
v    22.405045 120.140917 1.934528
v    23.317841 120.610408 2.886938
v    24.601612 121.252459 3.853120
v    25.098925 121.493742 4.030296
v    22.163962 120.511898 2.254254
v    18.474702 121.618097 2.254254
v    19.361335 117.870005 2.254254
v    17.836038 119.488102 4.114020
v    21.525298 118.381903 4.114020
v    20.638665 122.129995 4.114020
v    18.107452 118.476835 3.678044
v    17.600432 118.403713 4.154066
v    16.720820 118.291563 4.976743
v    14.782468 118.020145 6.294220
v    13.225221 117.782953 6.799126
v    12.209364 117.669252 7.125460
v    17.625597 120.513793 3.678044
v    17.139553 120.352000 4.154066
v    16.302921 120.058163 4.976743
v    14.448402 119.432354 6.294220
v    12.949930 118.946699 6.799126
v    11.990797 118.593205 7.125460
v    18.595695 118.396392 4.114020
v    22.090917 119.585640 4.114020
v    19.313387 122.017967 4.114020
v    21.404305 121.603608 6.002274
v    17.909083 120.414360 6.002274
v    20.686613 117.982033 6.002274
v    20.272278 122.539283 5.419557
v    21.330156 123.549803 6.779014
v    21.628054 123.825157 7.155373
v    23.527143 125.624357 8.916287
v    25.764649 127.795857 9.915706
v    27.522133 129.370997 10.669142
v    22.481159 120.604931 5.419557
v    23.343269 121.786888 6.779014
v    23.576911 122.118512 7.155373
v    25.109816 124.238385 8.916287
v    26.967117 126.742837 9.915706
v    28.296603 128.692781 10.669142
v    21.718982 121.097521 6.002274
v    18.190028 120.939922 6.002274
v    20.090990 117.962557 6.002274
v    18.281018 118.902479 11.513477
v    21.809972 119.060078 11.513477
v    19.909010 122.037443 11.513477
v    19.303724 117.402613 10.750057
v    18.688409 117.082919 11.394408
v    17.116520 116.298722 13.024157
v    14.068760 114.731103 15.331137
v    11.865365 113.564046 16.130350
v    8.844610 112.114512 17.199998
v    8.412840 111.976884 17.340850
v    17.350784 120.461386 10.750057
v    16.801843 120.037735 11.394408
v    15.428991 118.941800 13.024157
v    12.724395 116.836703 15.331137
v    10.738486 115.329010 16.130350
v    8.152374 113.198719 17.199998
v    7.845832 112.864955 17.340850
v    18.420020 118.861621 11.513477
v    21.775855 119.200887 11.513477
v    19.804125 121.937492 11.513477
v    21.579980 121.138379 19.661518
v    18.224145 120.799113 19.661518
v    20.195875 118.062508 19.661518
v    20.020250 123.182655 18.681171
v    22.723277 124.785706 21.601461
v    26.513642 127.021161 24.563974
v    32.263323 130.492917 26.716848
v    34.454472 131.700011 27.515488
v    36.104969 132.621654 27.493967
v    37.591433 133.209571 27.476206
v    23.025401 119.011744 18.681171
v    25.401657 121.068327 21.601461
v    28.721991 123.956148 24.563974
v    33.835270 128.311180 26.716848
v    35.673895 130.007548 27.515488
v    37.070606 131.281426 27.493967
v    38.098828 132.505346 27.476206
v    21.554633 121.012481 19.661518
v    18.345849 120.840111 19.661518
v    20.099518 118.147408 19.661518
v    18.445367 118.987519 30.885372
v    21.654151 119.159889 30.885372
v    19.900482 121.852592 30.885372
v    20.262851 116.359306 29.651395
v    16.769305 114.503911 33.327206
v    11.866987 111.924212 37.056163
v    4.961879 108.186534 39.572925
v    1.592472 106.532071 40.771276
v    0.030922 105.754152 40.751415
v    -2.725244 104.811500 40.719050
v    16.776486 121.712513 29.651395
v    13.666923 119.267523 33.327206
v    9.325274 115.826934 37.056163
v    3.114708 111.022810 39.572925
v    0.239114 108.610111 40.771276
v    -1.103785 107.496460 40.751415
v    -3.080390 105.356815 40.719050
v    18.458123 119.144816 30.885372
v    21.511550 119.092287 30.885372
v    20.030327 121.762897 30.885372
v    21.541877 120.855184 48.446724
v    18.488450 120.907713 48.446724
v    19.969673 118.237103 48.446724
v    19.417630 124.459600 46.924267
v    23.879170 126.437801 51.459409
v    26.805469 127.771905 53.626921
v    30.116004 129.223505 56.060123
v    42.158008 134.677360 60.297402
v    48.594022 137.326081 60.576873
v    52.620497 138.391506 60.530597
v    52.855045 138.452585 60.487663
v    23.474786 117.144645 46.924267
v    27.515272 119.881996 51.459409
v    30.196464 121.658022 53.626921
v    33.180779 123.697789 56.060123
v    44.183509 131.025431 60.297402
v    49.838275 135.082722 60.576873
v    52.874076 137.934308 60.530597
v    53.050082 138.100938 60.487663
v    21.597870 120.425043 48.446724
v    18.832967 121.171274 48.446724
v    19.569163 118.403683 48.446724
v    18.402130 119.574957 69.871530
v    21.167033 118.828726 69.871530
v    20.430837 121.596317 69.871530
v    19.855681 114.625264 68.030362
v    14.039590 113.621315 73.514892
v    8.973417 112.692416 76.986231
v    5.907940 112.176236 79.078720
v    -11.109795 109.099684 84.621892
v    -19.650353 107.847652 84.523613
v    -23.121559 107.805077 84.485043
v    -25.483647 107.785374 84.066610
v    17.204289 124.592670 68.030362
v    11.658074 122.574176 73.514892
v    6.799951 120.863151 76.986231
v    3.883161 119.788011 79.078720
v    -12.414000 114.002596 84.621892
v    -20.447860 110.845730 84.523613
v    -23.481443 109.157991 84.485043
v    -25.541131 108.001474 84.066610
v    18.784938 119.495615 69.871530
v    21.044341 119.199918 69.871530
v    20.170721 121.304467 69.871530
v    21.215062 120.504385 89.783161
v    18.955659 120.800082 89.783161
v    19.829279 118.695533 89.783161
v    18.837147 125.823722 87.600670
v    25.511748 127.920713 94.101946
v    27.825485 128.674177 95.741923
v    34.857699 130.851797 100.697220
v    50.510324 135.906039 105.969480
v    54.427564 137.001313 107.268009
v    59.989670 138.590986 107.202151
v    67.286322 139.662018 107.120211
v    23.303289 115.064796 87.600670
v    29.500780 118.311143 94.101946
v    31.667928 119.417741 95.741923
v    38.175003 122.860421 100.697220
v    52.805482 130.377009 105.969480
v    56.346807 132.377862 107.268009
v    61.399573 135.194534 107.202151
v    67.309674 139.605762 107.120211
v    20.777239 120.639531 89.783161
v    19.057531 120.353344 89.783161
v    20.165230 119.007126 89.783161
v    19.222761 119.360469 113.738124
v    20.942469 119.646656 113.738124
v    19.834770 120.992874 113.738124
v    23.792898 114.093040 111.202281
v    17.081237 109.506771 118.756132
v    12.637908 106.402191 122.409341
v    7.705668 103.061515 126.419200
v    -10.435150 90.453412 133.500399
v    -20.181742 84.170845 133.941539
v    -26.384536 81.244759 133.865338
v    -28.039516 80.471968 133.541790
v    14.934040 124.859455 111.202281
v    9.141097 119.156644 118.756132
v    5.238939 115.394364 122.409341
v    1.010951 111.197791 126.419200
v    -14.854683 95.824594 133.500399
v    -22.896636 87.470331 133.941539
v    -26.962476 81.947146 133.865338
v    -28.039516 80.471968 133.541790
v    19.498206 119.474984 113.738124
v    20.705574 119.827942 113.738124
v    19.796220 120.697074 113.738124
v    20.501794 120.525016 134.192471
v    19.294426 120.172058 134.192471
v    20.203780 119.302926 134.192471
v    14.764922 125.721072 131.304434
v    21.731498 131.818371 139.907414
v    24.416515 134.218164 142.334464
v    31.485025 140.353539 148.634782
v    48.076955 155.108910 155.751869
v    51.897684 158.244266 157.329749
v    58.142450 163.429114 157.237343
v    66.548498 168.702667 157.127089
v    25.951891 115.028914 131.304434
v    31.728010 122.264015 139.907414
v    34.003964 125.054777 142.334464
v    39.813512 132.393430 148.634782
v    53.803705 149.635460 155.751869
v    56.763128 153.594026 157.329749
v    61.660360 160.066805 157.237343
v    66.548498 168.702667 157.127089
v    20.332499 120.338874 134.192471
v    19.540277 120.118515 134.192471
v    20.127224 119.542611 134.192471
v    19.667501 119.661126 140.304000
v    20.459723 119.881485 140.304000
v    19.872776 120.457389 140.304000
v    23.559665 115.333059 133.902951
v    17.517842 110.731373 145.806988
v    15.528400 109.129285 148.702771
v    8.159575 103.854645 158.891355
v    -0.933848 98.664755 165.320090
v    15.266300 123.470395 133.902951
v    10.780183 117.342272 145.806988
v    9.216164 115.322764 148.702771
v    4.082415 107.855098 158.891355
v    -0.933848 98.664755 165.320090
v    22.457091 121.598914 1.078665
v    23.228435 121.888097 1.657813
v    23.935039 122.163927 1.900948
v    24.606829 122.395893 2.127840
v    25.149057 122.508274 2.139823
v    22.773619 120.949136 1.078665
v    23.476801 121.378244 1.657813
v    24.129562 121.764605 1.900948
v    24.726323 122.150591 2.127840
v    25.149057 122.508274 2.139823
v    16.988059 117.058833 2.577880
v    15.994038 116.387144 2.962419
v    15.207136 115.899740 3.257921
v    14.414709 115.525884 3.248154
v    16.472357 117.702612 2.577880
v    15.599908 116.879159 2.962419
v    14.952506 116.217609 3.257921
v    14.414709 115.525884 3.248154
v    24.769874 122.340640 4.030296
v    24.956609 122.396253 4.092749
v    26.316301 122.743093 4.540726
v    27.195609 122.841034 4.815714
v    27.366453 122.862131 4.813802
v    25.098925 121.493742 4.030296
v    25.274222 121.578792 4.092749
v    26.511409 122.240932 4.540726
v    27.226181 122.762348 4.815714
v    27.366453 122.862131 4.813802
v    12.209364 117.669252 7.125460
v    11.323659 117.570118 7.409984
v    10.690643 117.587449 7.606806
v    9.855822 117.600336 7.597530
v    11.990797 118.593205 7.125460
v    11.154549 118.285001 7.409984
v    10.596390 117.985890 7.606806
v    9.855822 117.600336 7.597530
v    27.522133 129.370997 10.669142
v    27.675491 129.510003 10.668361
v    29.323639 130.646877 10.646115
v    28.296603 128.692781 10.669142
v    28.414160 128.863139 10.668361
v    29.323639 130.646877 10.646115
v    8.412840 111.976884 17.340850
v    7.527841 111.694789 17.629553
v    6.411783 111.324311 17.616487
v    7.845832 112.864955 17.340850
v    7.217512 112.180839 17.629553
v    6.411783 111.324311 17.616487
v    37.591433 133.209571 27.476206
v    39.237342 133.860550 27.456541
v    38.098828 132.505346 27.476206
v    39.237342 133.860550 27.456541
v    -2.725244 104.811500 40.719050
v    -3.980874 104.382055 40.704306
v    -3.080390 105.356815 40.719050
v    -3.980874 104.382055 40.704306
v    52.855045 138.452585 60.487663
v    53.636451 138.656072 60.344629
v    53.050082 138.100938 60.487663
v    53.636451 138.656072 60.344629
v    -25.483647 107.785374 84.066610
v    -25.932662 107.781629 83.987069
v    -25.541131 108.001474 84.066610
v    -25.932662 107.781629 83.987069
v    67.286322 139.662018 107.120211
v    67.409212 139.680056 107.118831
v    67.309674 139.605762 107.120211
v    67.409212 139.680056 107.118831
mtllib usm_4_Beer_2018-08-10_1.mtl
usemtl APPID_1857654304_2531587588576 
o vid_3 
f 3 2 1
f 4 5 6
f 1 6 5
f 1 5 3
f 3 5 4
f 4 2 3
f 2 4 6
f 6 1 2
usemtl APPID_1857658448_2531587596000 
o vid_4 
f 7 10 11
f 7 11 8
f 8 11 12
f 8 12 9
usemtl APPID_1857654304_2531587588576 
o vid_5 
f 15 14 13
f 16 17 18
f 13 18 17
f 13 17 15
f 15 17 16
f 16 14 15
f 14 16 18
f 18 13 14
usemtl APPID_1857658448_2531587596000 
o vid_6 
f 19 24 25
f 20 25 26
f 21 26 27
f 19 25 20
f 20 26 21
f 21 27 22
f 22 27 28
f 22 28 23
usemtl APPID_1857654304_2531587588576 
o vid_7 
f 31 30 29
f 32 33 34
f 29 34 33
f 29 33 31
f 31 33 32
f 32 30 31
f 30 32 34
f 34 29 30
usemtl APPID_1857658448_2531587596000 
o vid_8 
f 35 39 40
f 36 40 41
f 35 40 36
f 36 41 37
f 37 41 42
f 37 42 38
usemtl APPID_1857654304_2531587588576 
o vid_9 
f 45 44 43
f 46 47 48
f 43 48 47
f 43 47 45
f 45 47 46
f 46 44 45
f 44 46 48
f 48 43 44
usemtl APPID_1857658448_2531587596000 
o vid_10 
f 49 55 56
f 50 56 57
f 51 57 58
f 52 58 59
f 49 56 50
f 50 57 51
f 51 58 52
f 52 59 53
f 53 59 60
f 53 60 54
usemtl APPID_1857654304_2531587588576 
o vid_11 
f 63 62 61
f 64 65 66
f 61 66 65
f 61 65 63
f 63 65 64
f 64 62 63
f 62 64 66
f 66 61 62
usemtl APPID_1857658448_2531587596000 
o vid_12 
f 67 73 74
f 68 74 75
f 69 75 76
f 70 76 77
f 67 74 68
f 68 75 69
f 69 76 70
f 70 77 71
f 71 77 78
f 71 78 72
usemtl APPID_1857654304_2531587588576 
o vid_13 
f 81 80 79
f 82 83 84
f 79 84 83
f 79 83 81
f 81 83 82
f 82 80 81
f 80 82 84
f 84 79 80
usemtl APPID_1857658448_2531587596000 
o vid_14 
f 85 92 93
f 86 93 94
f 87 94 95
f 88 95 96
f 89 96 97
f 85 93 86
f 86 94 87
f 87 95 88
f 88 96 89
f 89 97 90
f 90 97 98
f 90 98 91
usemtl APPID_1857654304_2531587588576 
o vid_15 
f 101 100 99
f 102 103 104
f 99 104 103
f 99 103 101
f 101 103 102
f 102 100 101
f 100 102 104
f 104 99 100
usemtl APPID_1857658448_2531587596000 
o vid_16 
f 105 112 113
f 106 113 114
f 107 114 115
f 108 115 116
f 109 116 117
f 105 113 106
f 106 114 107
f 107 115 108
f 108 116 109
f 109 117 110
f 110 117 118
f 110 118 111
usemtl APPID_1857654304_2531587588576 
o vid_17 
f 121 120 119
f 122 123 124
f 119 124 123
f 119 123 121
f 121 123 122
f 122 120 121
f 120 122 124
f 124 119 120
usemtl APPID_1857658448_2531587596000 
o vid_18 
f 125 132 133
f 126 133 134
f 127 134 135
f 128 135 136
f 129 136 137
f 125 133 126
f 126 134 127
f 127 135 128
f 128 136 129
f 129 137 130
f 130 137 138
f 130 138 131
usemtl APPID_1857654304_2531587588576 
o vid_19 
f 141 140 139
f 142 143 144
f 139 144 143
f 139 143 141
f 141 143 142
f 142 140 141
f 140 142 144
f 144 139 140
usemtl APPID_1857658448_2531587596000 
o vid_20 
f 145 153 154
f 146 154 155
f 147 155 156
f 148 156 157
f 149 157 158
f 150 158 159
f 145 154 146
f 146 155 147
f 147 156 148
f 148 157 149
f 149 158 150
f 150 159 151
f 151 159 160
f 151 160 152
usemtl APPID_1857654304_2531587588576 
o vid_21 
f 163 162 161
f 164 165 166
f 161 166 165
f 161 165 163
f 163 165 164
f 164 162 163
f 162 164 166
f 166 161 162
usemtl APPID_1857658448_2531587596000 
o vid_22 
f 167 175 176
f 168 176 177
f 169 177 178
f 170 178 179
f 171 179 180
f 172 180 181
f 167 176 168
f 168 177 169
f 169 178 170
f 170 179 171
f 171 180 172
f 172 181 173
f 173 181 182
f 173 182 174
usemtl APPID_1857654304_2531587588576 
o vid_23 
f 185 184 183
f 186 187 188
f 183 188 187
f 183 187 185
f 185 187 186
f 186 184 185
f 184 186 188
f 188 183 184
usemtl APPID_1857658448_2531587596000 
o vid_24 
f 189 197 198
f 190 198 199
f 191 199 200
f 192 200 201
f 193 201 202
f 194 202 203
f 189 198 190
f 190 199 191
f 191 200 192
f 192 201 193
f 193 202 194
f 194 203 195
f 195 203 204
f 195 204 196
usemtl APPID_1857654304_2531587588576 
o vid_25 
f 207 206 205
f 208 209 210
f 205 210 209
f 205 209 207
f 207 209 208
f 208 206 207
f 206 208 210
f 210 205 206
usemtl APPID_1857658448_2531587596000 
o vid_26 
f 211 219 220
f 212 220 221
f 213 221 222
f 214 222 223
f 215 223 224
f 216 224 225
f 211 220 212
f 212 221 213
f 213 222 214
f 214 223 215
f 215 224 216
f 216 225 217
f 217 225 226
usemtl APPID_1857654304_2531587588576 
o vid_27 
f 229 228 227
f 230 231 232
f 227 232 231
f 227 231 229
f 229 231 230
f 230 228 229
f 228 230 232
f 232 227 228
usemtl APPID_1857658448_2531587596000 
o vid_28 
f 233 241 242
f 234 242 243
f 235 243 244
f 236 244 245
f 237 245 246
f 238 246 247
f 233 242 234
f 234 243 235
f 235 244 236
f 236 245 237
f 237 246 238
f 238 247 239
f 239 247 248
usemtl APPID_1857654304_2531587588576 
o vid_29 
f 251 250 249
f 252 253 254
f 249 254 253
f 249 253 251
f 251 253 252
f 252 250 251
f 250 252 254
f 254 249 250
usemtl APPID_1857658448_2531587596000 
o vid_30 
f 255 260 261
f 256 261 262
f 257 262 263
f 255 261 256
f 256 262 257
f 257 263 258
f 258 263 264
usemtl APPID_1857656320_2531587591648 
o vid_10000004 
f 265 270 271
f 266 271 272
f 267 272 273
f 265 271 266
f 266 272 267
f 267 273 268
f 268 273 274
usemtl APPID_1857656320_2531587591648 
o vid_10000006 
f 275 279 280
f 276 280 281
f 275 280 276
f 276 281 277
f 277 281 282
usemtl APPID_1857656320_2531587591648 
o vid_10000008 
f 283 288 289
f 284 289 290
f 285 290 291
f 283 289 284
f 284 290 285
f 285 291 286
f 286 291 292
usemtl APPID_1857656320_2531587591648 
o vid_10000010 
f 293 297 298
f 294 298 299
f 293 298 294
f 294 299 295
f 295 299 300
usemtl APPID_1857656320_2531587591648 
o vid_10000012 
f 301 304 305
f 301 305 302
f 302 305 306
usemtl APPID_1857656320_2531587591648 
o vid_10000014 
f 307 310 311
f 307 311 308
f 308 311 312
usemtl APPID_1857656320_2531587591648 
o vid_10000016 
f 313 315 316
f 313 316 314
f 313 315 316
usemtl APPID_1857656320_2531587591648 
o vid_10000018 
f 317 319 320
f 317 320 318
f 317 319 320
usemtl APPID_1857656320_2531587591648 
o vid_10000020 
f 321 323 324
f 321 324 322
f 321 323 324
usemtl APPID_1857656320_2531587591648 
o vid_10000022 
f 325 327 328
f 325 328 326
f 325 327 328
usemtl APPID_1857656320_2531587591648 
o vid_10000024 
f 329 331 332
f 329 332 330
f 329 331 332
