# File generated by PlantGL - Fri Sep  4 14:43:47 2026
v    17.752484 258.905161 0.000000
v    22.071916 258.601013 0.000000
v    20.175600 262.493825 0.000000
v    22.247516 261.094839 0.848509
v    17.928084 261.398987 0.848509
v    19.824400 257.506175 0.848509
v    22.077420 261.422811 0.719274
v    22.448837 261.564417 1.088646
v    22.400914 260.758733 0.719274
v    22.741368 260.963902 1.088646
v    21.879284 261.505407 0.848509
v    17.756638 260.874804 0.848509
v    20.364078 257.619789 0.848509
v    18.120716 258.494593 1.417165
v    22.243362 259.125196 1.417165
v    19.635922 262.380211 1.417165
v    18.469448 258.080756 1.230059
v    18.180832 257.889042 1.552033
v    17.792970 258.925242 1.230059
v    17.542885 258.685427 1.552033
v    17.841416 259.161313 1.417165
v    21.805616 258.549955 1.417165
v    20.352968 262.288732 1.417165
v    22.158584 260.838687 2.253766
v    18.194384 261.450045 2.253766
v    19.647032 257.711268 2.253766
v    21.888871 261.480241 1.988545
v    22.276901 261.592464 2.363899
v    22.392768 260.183329 1.988545
v    22.754778 260.362523 2.363899
v    22.163962 260.511898 2.253766
v    18.474702 261.618097 2.253766
v    19.361335 257.870005 2.253766
v    17.836038 259.488102 4.112548
v    21.525298 258.381903 4.112548
v    20.638665 262.129995 4.112548
v    18.088419 258.536099 3.744464
v    17.067719 258.388895 4.702762
v    17.635135 260.452283 3.744464
v    16.656661 260.126571 4.702762
v    18.595695 258.396392 4.112548
v    22.090917 259.585640 4.112548
v    19.313387 262.017967 4.112548
v    21.404305 261.603608 5.999272
v    17.909083 260.414360 5.999272
v    20.686613 257.982033 5.999272
v    20.334291 262.492863 5.499120
v    20.681653 262.824675 5.945507
v    22.426964 260.660277 5.499120
v    22.710043 261.048381 5.945507
v    21.718982 261.097521 5.999272
v    18.190028 260.939922 5.999272
v    20.090990 257.962557 5.999272
v    18.281018 258.902479 11.505015
v    21.809972 259.060078 11.505015
v    19.909010 262.037443 11.505015
v    19.254065 257.467300 10.839629
v    17.361306 256.483896 12.821705
v    17.280985 256.441097 12.883044
v    17.388568 260.389117 10.839629
v    15.699979 259.085933 12.821705
v    15.627354 259.031080 12.883044
v    18.420020 258.861621 11.505015
v    21.775855 259.200887 11.505015
v    19.804125 261.937492 11.505015
v    21.579980 261.138379 19.658889
v    18.224145 260.799113 19.658889
v    20.195875 258.062508 19.658889
v    20.087164 263.103754 18.792201
v    20.319650 263.241632 19.043374
v    22.971739 259.100193 18.792201
v    23.176120 259.277079 19.043374
v    21.554633 261.012481 19.658889
v    18.345849 260.840111 19.658889
v    20.099518 258.147408 19.658889
v    18.445367 258.987519 30.873903
v    21.654151 259.159889 30.873903
v    19.900482 261.852592 30.873903
v    20.190228 256.453870 29.768631
v    18.051324 255.317915 32.019124
v    16.833610 261.607854 29.768631
v    14.929798 260.110923 32.019124
v    18.458123 259.144816 30.873903
v    21.511550 259.092287 30.873903
v    20.030327 261.762897 30.873903
v    21.541877 260.855184 48.397837
v    18.488450 260.907713 48.397837
v    19.969673 258.237103 48.397837
v    19.488629 264.352691 47.017797
v    23.528377 266.153854 51.128705
v    29.158649 268.720704 55.299051
v    33.662764 270.763748 56.884423
v    23.421686 257.261482 47.017797
v    27.088653 259.734761 51.128705
v    32.247334 263.151879 55.299051
v    36.365371 265.891013 56.884423
v    21.614895 260.429572 48.397837
v    18.820532 261.183754 48.397837
v    19.564573 258.386674 48.397837
v    18.385105 259.570428 69.759043
v    21.179468 258.816246 69.759043
v    20.435427 261.613326 69.759043
v    19.780901 254.794777 68.071980
v    14.457034 253.854479 73.097458
v    7.016662 252.490262 78.195597
v    -5.782940 250.167605 82.365518
v    17.223616 264.408406 68.071980
v    12.136195 262.579237 73.097458
v    5.001373 260.066362 78.195597
v    -7.260575 255.722493 82.365518
v    18.541706 259.394647 69.759043
v    21.253398 259.039757 69.759043
v    20.204896 261.565597 69.759043
v    21.458294 260.605353 89.605866
v    18.746602 260.960243 89.605866
v    19.795104 258.434403 89.605866
v    19.259942 265.522723 87.586626
v    25.435278 267.462857 93.601602
v    27.522514 268.142561 95.081034
v    34.082460 270.173937 99.703545
v    45.721373 273.932150 103.623870
v    23.388628 255.576727 87.586626
v    29.122542 258.580245 93.601602
v    31.077539 259.578513 95.081034
v    37.147613 262.789990 99.703545
v    48.026484 268.379143 103.623870
v    21.148136 260.944713 89.605866
v    18.607786 260.521958 89.605866
v    20.244078 258.533328 89.605866
v    18.851864 259.055287 113.493186
v    21.392214 259.478042 113.493186
v    19.755922 261.466672 113.493186
v    22.800223 254.524342 111.126933
v    17.467415 250.880283 117.128910
v    7.730186 244.301885 125.326187
v    -3.220348 236.691123 129.600686
v    -4.406603 235.934647 130.049844
v    15.166101 263.802302 111.126933
v    10.563268 259.271084 117.128910
v    2.232825 250.982981 125.326187
v    -7.344315 241.703095 129.600686
v    -8.315078 240.684726 130.049844
v    19.036323 258.991726 113.493186
v    21.355030 259.669568 113.493186
v    19.608648 261.338706 113.493186
v    20.963677 261.008274 130.390000
v    18.644970 260.330432 130.390000
v    20.391352 258.661294 130.390000
v    15.923422 265.555738 127.675116
v    20.595087 269.644481 133.444126
v    22.502084 271.259020 135.762302
v    31.706520 279.248352 143.966418
v    41.970833 288.376509 148.369282
v    46.851749 292.381873 150.384997
v    25.734352 256.178754 127.675116
v    29.607717 261.030488 133.444126
v    31.134393 263.008526 135.762302
v    38.699441 272.564735 143.966418
v    47.354235 283.231221 148.369282
v    51.134846 288.288222 150.384997
v    20.912312 260.929805 130.390000
v    18.738610 260.325183 130.390000
v    20.349079 258.745013 130.390000
v    19.087688 259.070195 146.689036
v    21.261390 259.674817 146.689036
v    19.650921 261.254987 146.689036
v    24.816270 253.756403 143.639326
v    17.899797 247.861351 152.084222
v    6.911350 238.584503 161.939825
v    -6.831402 226.682033 167.767292
v    -15.025289 220.135925 171.115446
v    13.666065 264.696831 143.639326
v    7.903425 257.669654 152.084222
v    -1.163071 246.507014 161.939825
v    -12.802410 232.540703 167.767292
v    -19.191729 224.223979 171.115446
v    19.188946 259.101354 146.689036
v    21.183778 259.746930 146.689036
v    19.627277 261.151717 146.689036
v    20.811054 260.898646 158.144639
v    18.816222 260.253070 158.144639
v    20.372723 258.848283 158.144639
v    14.342586 266.411960 154.790488
v    20.894159 272.485242 163.091967
v    33.335296 283.892938 174.917855
v    46.885767 296.655244 180.884352
v    56.651943 305.147894 185.016140
v    57.332604 305.746694 185.005819
v    26.956556 255.027487 154.790488
v    32.328493 262.165426 163.091967
v    42.405019 275.707251 174.917855
v    53.715693 290.491038 180.884352
v    61.165809 301.074000 185.016140
v    61.691912 301.812292 185.005819
v    21.097812 260.213714 158.144639
v    19.266012 260.843876 158.144639
v    19.636176 258.942409 158.144639
v    18.902188 259.786286 164.568994
v    20.733988 259.156124 164.568994
v    20.363824 261.057591 164.568994
v    20.779942 251.498799 160.957196
v    18.535590 251.266324 163.053919
v    9.234065 250.456936 171.716137
v    -6.901114 248.852644 182.630637
v    -17.300380 247.692131 185.984638
v    -33.111601 246.560575 191.045227
v    -34.544873 246.657309 191.491716
v    17.533934 268.172959 160.957196
v    15.366273 267.546533 163.053919
v    6.440391 264.807538 171.716137
v    -9.118293 260.241892 182.630637
v    -19.193468 257.416584 185.984638
v    -34.274514 252.534251 191.045227
v    -35.566830 251.906919 191.491716
v    19.208315 259.346885 164.568994
v    20.961457 259.640938 164.568994
v    19.830228 261.012177 164.568994
v    20.791685 260.653115 168.413077
v    19.038543 260.359062 168.413077
v    20.169772 258.987823 168.413077
v    15.187023 267.016934 164.605215
v    25.384777 273.761191 175.948199
v    39.526435 283.365915 187.455186
v    43.329925 286.016602 188.941184
v    57.409299 295.020348 194.276483
v    61.584431 296.935775 195.704204
v    25.974212 253.941048 164.605215
v    34.533818 262.671015 175.948199
v    46.651367 274.729299 187.455186
v    49.976666 277.959634 188.941184
v    61.492354 290.070999 194.276483
v    64.166434 293.805953 195.704204
v    20.649389 260.487646 168.413077
v    19.252992 260.318564 168.413077
v    20.097619 259.193790 168.413077
v    19.350611 259.512354 171.288783
v    20.747008 259.681436 171.288783
v    19.902381 260.806210 171.288783
v    24.945389 252.532253 167.358209
v    14.112060 246.058648 179.066729
v    -0.922864 236.821395 190.944536
v    -6.977447 233.000431 193.239378
v    -21.919817 224.379939 198.746611
v    -31.283285 220.591773 201.886026
v    14.207534 266.831651 167.358209
v    4.969772 258.233261 179.066729
v    -8.093657 246.370605 190.944536
v    -13.451416 241.621693 193.239378
v    -25.896739 229.675931 198.746611
v    -32.145707 221.740244 201.886026
v    19.508182 259.655530 171.288783
v    20.544229 259.746309 171.288783
v    19.947589 260.598162 171.288783
v    20.491818 260.344470 172.787345
v    19.455771 260.253691 172.787345
v    20.052411 259.401838 172.787345
v    15.502132 266.970936 168.814995
v    26.661121 273.147432 180.647959
v    40.665183 281.125332 191.496729
v    55.837691 289.186723 197.586272
v    68.076193 293.672700 201.637615
v    25.013907 253.390500 168.814995
v    34.632320 261.766554 180.647959
v    46.916031 272.200683 191.496729
v    59.677551 283.704362 197.586272
v    68.076193 293.672700 201.637615
v    20.339947 260.242526 172.787345
v    19.619993 260.173139 172.787345
v    20.040060 259.584335 172.787345
v    19.660053 259.757474 174.147000
v    20.380007 259.826861 174.147000
v    19.959940 260.415665 174.147000
v    25.157097 252.538630 170.216427
v    14.173719 246.324762 181.924946
v    -1.082255 237.457344 193.802754
v    -8.671577 232.923064 196.636483
v    -23.819966 224.669965 202.143717
v    -34.337065 220.711048 205.636465
v    -35.956554 220.079258 205.617151
v    14.622857 267.304383 170.216427
v    5.173140 258.940794 181.924946
v    -8.176026 247.400621 193.802754
v    -14.933125 241.699821 196.636483
v    -27.666399 230.061477 202.143717
v    -34.832161 221.405019 205.636465
v    -35.956554 220.079258 205.617151
v    22.448837 261.564417 1.088646
v    22.888130 261.736971 1.411021
v    23.004585 261.780823 1.494783
v    24.135361 262.222233 1.883871
v    24.811915 262.465153 1.875681
v    25.239808 262.553140 1.819457
v    25.242075 262.553587 1.818770
v    22.741368 260.963902 1.088646
v    23.148030 261.203440 1.411021
v    23.254346 261.268107 1.494783
v    24.298957 261.886400 1.883871
v    24.907280 262.269385 1.875681
v    25.240325 262.552077 1.819457
v    25.242075 262.553587 1.818770
v    18.180832 257.889042 1.552033
v    17.969835 257.748887 1.787416
v    17.358528 257.333593 2.285496
v    15.818819 256.294619 2.916148
v    15.591181 256.139509 2.913000
v    14.861022 255.681430 2.903187
v    14.375176 255.461915 2.822890
v    14.285055 255.422025 2.793578
v    17.542885 258.685427 1.552033
v    17.360057 258.510107 1.787416
v    16.821352 258.004181 2.285496
v    15.471371 256.728359 2.916148
v    15.270316 256.540063 2.913000
v    14.663917 255.927488 2.903187
v    14.343654 255.501266 2.822890
v    14.285055 255.422025 2.793578
v    22.276901 261.592464 2.363899
v    22.705602 261.716450 2.778595
v    23.850011 262.044467 3.580068
v    25.595647 262.564346 4.163889
v    26.247230 262.730557 4.378566
v    26.746459 262.860961 4.372692
v    27.650891 262.972646 4.362567
v    22.754778 260.362523 2.363899
v    23.154730 260.560499 2.778595
v    24.220399 261.091177 3.580068
v    25.859115 261.886240 4.163889
v    26.451993 262.203547 4.378566
v    26.908306 262.444405 4.372692
v    27.650891 262.972646 4.362567
v    17.067719 258.388895 4.702762
v    16.487246 258.300569 5.136444
v    15.285528 258.132299 5.953238
v    12.511164 257.709721 6.852770
v    11.861643 257.637022 7.061423
v    10.858916 257.518958 7.049928
v    9.594329 257.538478 7.035876
v    16.656661 260.126571 4.702762
v    16.098137 259.945461 5.136444
v    14.948393 259.557479 5.953238
v    12.278743 258.692243 6.852770
v    11.665490 258.466226 7.061423
v    10.716141 258.122516 7.049928
v    9.594329 257.538478 7.035876
v    20.681653 262.824675 5.945507
v    21.493651 263.600323 6.988990
v    22.403547 264.487780 7.845611
v    23.109716 265.156806 8.500400
v    26.403082 268.353019 9.971436
v    28.106454 269.896545 9.981270
v    29.013637 270.522309 9.969025
v    29.514678 270.865028 9.861495
v    22.710043 261.048381 5.945507
v    23.371776 261.955619 6.988990
v    24.131423 262.974651 7.845611
v    24.701428 263.762918 8.500400
v    27.435173 267.449201 9.971436
v    28.740462 269.341334 9.981270
v    29.241062 270.323150 9.969025
v    29.514678 270.865028 9.861495
v    17.280985 256.441097 12.883044
v    14.706497 255.115106 14.832438
v    10.824080 253.058733 16.240664
v    9.143640 252.252360 16.835708
v    8.146708 251.766912 16.823084
v    5.976863 251.046627 16.797682
v    15.627354 259.031080 12.883044
v    13.341109 257.253631 14.832438
v    9.841907 254.597052 16.240664
v    8.403258 253.411975 16.835708
v    7.543364 252.711893 16.823084
v    5.976863 251.046627 16.797682
v    20.319650 263.241632 19.043374
v    22.476810 264.520953 21.373921
v    24.981140 266.041618 23.348543
v    25.806589 266.526581 23.992970
v    32.775314 270.734416 26.602295
v    36.842470 273.035004 26.549064
v    39.586488 274.112111 26.194064
v    23.176120 259.277079 19.043374
v    25.072500 260.918343 21.373921
v    27.307708 262.812526 23.348543
v    28.029027 263.442013 23.992970
v    34.226419 268.720396 26.602295
v    37.696155 271.850157 26.549064
v    39.586488 274.112111 26.194064
v    18.051324 255.317915 32.019124
v    17.061063 254.791995 33.061050
v    14.574533 253.438055 34.969212
v    12.691767 252.448035 36.401072
v    3.750018 247.607940 39.660146
v    -0.798511 245.343371 39.673292
v    -3.076517 244.564258 39.646543
v    -4.373517 244.126340 39.404051
v    14.929798 260.110923 32.019124
v    14.048378 259.417879 33.061050
v    11.804634 257.691150 34.969212
v    10.137864 256.369475 36.401072
v    2.095509 250.148389 39.660146
v    -1.814867 246.903954 39.673292
v    -3.448555 245.135512 39.646543
v    -4.373517 244.126340 39.404051
v    33.662764 270.763748 56.884423
v    40.965051 274.070973 59.453914
v    43.835747 275.384547 59.417842
v    49.235538 277.612468 59.351340
v    52.398733 278.506672 58.766074
v    54.178841 278.956902 58.219958
v    36.365371 265.891013 56.884423
v    43.037441 270.334505 59.453914
v    45.671775 272.074233 59.417842
v    50.420898 275.475291 59.351340
v    52.854352 277.685203 58.766074
v    54.178841 278.956902 58.219958
v    -5.782940 250.167605 82.365518
v    -8.574497 249.662933 83.274809
v    -12.783508 248.885153 83.225901
v    -19.431482 247.915036 83.149415
v    -20.457553 247.767279 82.961106
v    -23.433430 247.742456 82.433943
v    -26.093084 247.738956 81.642901
v    -7.260575 255.722493 82.365518
v    -9.933930 254.773465 83.274809
v    -13.973095 253.357179 83.225901
v    -20.224436 250.895999 83.149415
v    -21.188309 250.514419 82.961106
v    -23.783208 249.057381 82.433943
v    -26.093084 247.738956 81.642901
v    45.721373 273.932150 103.623870
v    48.502795 274.830273 104.560734
v    52.189475 275.861081 105.782834
v    57.270085 277.313140 105.722677
v    64.134640 278.320747 105.645590
v    48.026484 268.379143 103.623870
v    50.626274 269.714817 104.560734
v    53.959164 271.597905 105.782834
v    58.574526 274.170745 105.722677
v    64.134640 278.320747 105.645590
v    -4.406603 235.934647 130.049844
v    -10.746162 231.891908 132.450225
v    -12.032933 231.060902 132.432786
v    -19.386260 227.592068 132.342452
v    -8.315078 240.684726 130.049844
v    -13.503008 235.242379 132.450225
v    -14.566263 234.139728 132.432786
v    -19.386260 227.592068 132.342452
v    46.851749 292.381873 150.384997
v    51.101553 295.869336 152.140076
v    59.087358 300.896240 152.035193
v    51.134846 288.288222 150.384997
v    54.426617 292.691343 152.140076
v    59.087358 300.896240 152.035193
v    -15.025289 220.135925 171.115446
v    -17.389513 218.224942 171.087143
v    -26.338404 212.773077 170.970717
v    -19.191729 224.223979 171.115446
v    -21.057469 221.823890 171.087143
v    -26.338404 212.773077 170.970717
v    57.332604 305.746694 185.005819
v    58.053629 306.381003 184.994886
v    67.637385 312.782116 184.866837
v    61.691912 301.812292 185.005819
v    62.249214 302.594366 184.994886
v    67.637385 312.782116 184.866837
v    -34.544873 246.657309 191.491716
v    -41.006463 247.093412 193.504616
v    -45.124567 247.322007 193.458791
v    -35.566830 251.906919 191.491716
v    -41.392951 249.078731 193.504616
v    -45.124567 247.322007 193.458791
v    61.584431 296.935775 195.704204
v    68.766197 300.230556 198.160067
v    64.166434 293.805953 195.704204
v    68.766197 300.230556 198.160067
v    -31.283285 220.591773 201.886026
v    -33.876079 219.542809 202.755347
v    -32.145707 221.740244 201.886026
v    -33.876079 219.542809 202.755347
mtllib usm_14_2.5D_2018-08-30_6.mtl
usemtl APPID_773026752_2358739611328 
o vid_3 
f 3 2 1
f 4 5 6
f 1 6 5
f 1 5 3
f 3 5 4
f 4 2 3
f 2 4 6
f 6 1 2
usemtl APPID_773025296_2358739612224 
o vid_4 
f 7 9 10
f 7 10 8
f 7 9 10
f 7 10 8
usemtl APPID_773026752_2358739611328 
o vid_5 
f 13 12 11
f 14 15 16
f 11 16 15
f 11 15 13
f 13 15 14
f 14 12 13
f 12 14 16
f 16 11 12
usemtl APPID_773025296_2358739612224 
o vid_6 
f 17 19 20
f 17 20 18
f 17 19 20
f 17 20 18
usemtl APPID_773026752_2358739611328 
o vid_7 
f 23 22 21
f 24 25 26
f 21 26 25
f 21 25 23
f 23 25 24
f 24 22 23
f 22 24 26
f 26 21 22
usemtl APPID_773025296_2358739612224 
o vid_8 
f 27 29 30
f 27 30 28
f 27 29 30
f 27 30 28
usemtl APPID_773026752_2358739611328 
o vid_9 
f 33 32 31
f 34 35 36
f 31 36 35
f 31 35 33
f 33 35 34
f 34 32 33
f 32 34 36
f 36 31 32
usemtl APPID_773025296_2358739612224 
o vid_10 
f 37 39 40
f 37 40 38
f 37 39 40
f 37 40 38
usemtl APPID_773026752_2358739611328 
o vid_11 
f 43 42 41
f 44 45 46
f 41 46 45
f 41 45 43
f 43 45 44
f 44 42 43
f 42 44 46
f 46 41 42
usemtl APPID_773025296_2358739612224 
o vid_12 
f 47 49 50
f 47 50 48
f 47 49 50
f 47 50 48
usemtl APPID_773026752_2358739611328 
o vid_13 
f 53 52 51
f 54 55 56
f 51 56 55
f 51 55 53
f 53 55 54
f 54 52 53
f 52 54 56
f 56 51 52
usemtl APPID_773025296_2358739612224 
o vid_14 
f 57 60 61
f 57 61 58
f 58 61 62
f 58 62 59
usemtl APPID_773026752_2358739611328 
o vid_15 
f 65 64 63
f 66 67 68
f 63 68 67
f 63 67 65
f 65 67 66
f 66 64 65
f 64 66 68
f 68 63 64
usemtl APPID_773025296_2358739612224 
o vid_16 
f 69 71 72
f 69 72 70
f 69 71 72
f 69 72 70
usemtl APPID_773026752_2358739611328 
o vid_17 
f 75 74 73
f 76 77 78
f 73 78 77
f 73 77 75
f 75 77 76
f 76 74 75
f 74 76 78
f 78 73 74
usemtl APPID_773025296_2358739612224 
o vid_18 
f 79 81 82
f 79 82 80
f 79 81 82
f 79 82 80
usemtl APPID_773026752_2358739611328 
o vid_19 
f 85 84 83
f 86 87 88
f 83 88 87
f 83 87 85
f 85 87 86
f 86 84 85
f 84 86 88
f 88 83 84
usemtl APPID_773025296_2358739612224 
o vid_20 
f 89 93 94
f 90 94 95
f 89 94 90
f 90 95 91
f 91 95 96
f 91 96 92
usemtl APPID_773026752_2358739611328 
o vid_21 
f 99 98 97
f 100 101 102
f 97 102 101
f 97 101 99
f 99 101 100
f 100 98 99
f 98 100 102
f 102 97 98
usemtl APPID_773025296_2358739612224 
o vid_22 
f 103 107 108
f 104 108 109
f 103 108 104
f 104 109 105
f 105 109 110
f 105 110 106
usemtl APPID_773026752_2358739611328 
o vid_23 
f 113 112 111
f 114 115 116
f 111 116 115
f 111 115 113
f 113 115 114
f 114 112 113
f 112 114 116
f 116 111 112
usemtl APPID_773025296_2358739612224 
o vid_24 
f 117 122 123
f 118 123 124
f 119 124 125
f 117 123 118
f 118 124 119
f 119 125 120
f 120 125 126
f 120 126 121
usemtl APPID_773026752_2358739611328 
o vid_25 
f 129 128 127
f 130 131 132
f 127 132 131
f 127 131 129
f 129 131 130
f 130 128 129
f 128 130 132
f 132 127 128
usemtl APPID_773025296_2358739612224 
o vid_26 
f 133 138 139
f 134 139 140
f 135 140 141
f 133 139 134
f 134 140 135
f 135 141 136
f 136 141 142
f 136 142 137
usemtl APPID_773026752_2358739611328 
o vid_27 
f 145 144 143
f 146 147 148
f 143 148 147
f 143 147 145
f 145 147 146
f 146 144 145
f 144 146 148
f 148 143 144
usemtl APPID_773025296_2358739612224 
o vid_28 
f 149 155 156
f 150 156 157
f 151 157 158
f 152 158 159
f 149 156 150
f 150 157 151
f 151 158 152
f 152 159 153
f 153 159 160
f 153 160 154
usemtl APPID_773026752_2358739611328 
o vid_29 
f 163 162 161
f 164 165 166
f 161 166 165
f 161 165 163
f 163 165 164
f 164 162 163
f 162 164 166
f 166 161 162
usemtl APPID_773025296_2358739612224 
o vid_30 
f 167 172 173
f 168 173 174
f 169 174 175
f 167 173 168
f 168 174 169
f 169 175 170
f 170 175 176
f 170 176 171
usemtl APPID_773026752_2358739611328 
o vid_31 
f 179 178 177
f 180 181 182
f 177 182 181
f 177 181 179
f 179 181 180
f 180 178 179
f 178 180 182
f 182 177 178
usemtl APPID_773025296_2358739612224 
o vid_32 
f 183 189 190
f 184 190 191
f 185 191 192
f 186 192 193
f 183 190 184
f 184 191 185
f 185 192 186
f 186 193 187
f 187 193 194
f 187 194 188
usemtl APPID_773026752_2358739611328 
o vid_33 
f 197 196 195
f 198 199 200
f 195 200 199
f 195 199 197
f 197 199 198
f 198 196 197
f 196 198 200
f 200 195 196
usemtl APPID_773025296_2358739612224 
o vid_34 
f 201 208 209
f 202 209 210
f 203 210 211
f 204 211 212
f 205 212 213
f 201 209 202
f 202 210 203
f 203 211 204
f 204 212 205
f 205 213 206
f 206 213 214
f 206 214 207
usemtl APPID_773026752_2358739611328 
o vid_35 
f 217 216 215
f 218 219 220
f 215 220 219
f 215 219 217
f 217 219 218
f 218 216 217
f 216 218 220
f 220 215 216
usemtl APPID_773025296_2358739612224 
o vid_36 
f 221 227 228
f 222 228 229
f 223 229 230
f 224 230 231
f 221 228 222
f 222 229 223
f 223 230 224
f 224 231 225
f 225 231 232
f 225 232 226
usemtl APPID_773026752_2358739611328 
o vid_37 
f 235 234 233
f 236 237 238
f 233 238 237
f 233 237 235
f 235 237 236
f 236 234 235
f 234 236 238
f 238 233 234
usemtl APPID_773025296_2358739612224 
o vid_38 
f 239 245 246
f 240 246 247
f 241 247 248
f 242 248 249
f 239 246 240
f 240 247 241
f 241 248 242
f 242 249 243
f 243 249 250
f 243 250 244
usemtl APPID_773026752_2358739611328 
o vid_39 
f 253 252 251
f 254 255 256
f 251 256 255
f 251 255 253
f 253 255 254
f 254 252 253
f 252 254 256
f 256 251 252
usemtl APPID_773025296_2358739612224 
o vid_40 
f 257 262 263
f 258 263 264
f 259 264 265
f 257 263 258
f 258 264 259
f 259 265 260
f 260 265 266
usemtl APPID_773026752_2358739611328 
o vid_41 
f 269 268 267
f 270 271 272
f 267 272 271
f 267 271 269
f 269 271 270
f 270 268 269
f 268 270 272
f 272 267 268
usemtl APPID_773025296_2358739612224 
o vid_42 
f 273 280 281
f 274 281 282
f 275 282 283
f 276 283 284
f 277 284 285
f 273 281 274
f 274 282 275
f 275 283 276
f 276 284 277
f 277 285 278
f 278 285 286
usemtl APPID_773021936_2358739618112 
o vid_10000004 
f 287 294 295
f 288 295 296
f 289 296 297
f 290 297 298
f 291 298 299
f 287 295 288
f 288 296 289
f 289 297 290
f 290 298 291
f 291 299 292
f 292 299 300
usemtl APPID_773021936_2358739618112 
o vid_10000006 
f 301 309 310
f 302 310 311
f 303 311 312
f 304 312 313
f 305 313 314
f 306 314 315
f 301 310 302
f 302 311 303
f 303 312 304
f 304 313 305
f 305 314 306
f 306 315 307
f 307 315 316
usemtl APPID_773021936_2358739618112 
o vid_10000008 
f 317 324 325
f 318 325 326
f 319 326 327
f 320 327 328
f 321 328 329
f 317 325 318
f 318 326 319
f 319 327 320
f 320 328 321
f 321 329 322
f 322 329 330
usemtl APPID_773021936_2358739618112 
o vid_10000010 
f 331 338 339
f 332 339 340
f 333 340 341
f 334 341 342
f 335 342 343
f 331 339 332
f 332 340 333
f 333 341 334
f 334 342 335
f 335 343 336
f 336 343 344
usemtl APPID_773021936_2358739618112 
o vid_10000012 
f 345 353 354
f 346 354 355
f 347 355 356
f 348 356 357
f 349 357 358
f 350 358 359
f 345 354 346
f 346 355 347
f 347 356 348
f 348 357 349
f 349 358 350
f 350 359 351
f 351 359 360
usemtl APPID_773021936_2358739618112 
o vid_10000014 
f 361 367 368
f 362 368 369
f 363 369 370
f 364 370 371
f 361 368 362
f 362 369 363
f 363 370 364
f 364 371 365
f 365 371 372
usemtl APPID_773021936_2358739618112 
o vid_10000016 
f 373 380 381
f 374 381 382
f 375 382 383
f 376 383 384
f 377 384 385
f 373 381 374
f 374 382 375
f 375 383 376
f 376 384 377
f 377 385 378
f 378 385 386
usemtl APPID_773021936_2358739618112 
o vid_10000018 
f 387 395 396
f 388 396 397
f 389 397 398
f 390 398 399
f 391 399 400
f 392 400 401
f 387 396 388
f 388 397 389
f 389 398 390
f 390 399 391
f 391 400 392
f 392 401 393
f 393 401 402
usemtl APPID_773021936_2358739618112 
o vid_10000020 
f 403 409 410
f 404 410 411
f 405 411 412
f 406 412 413
f 403 410 404
f 404 411 405
f 405 412 406
f 406 413 407
f 407 413 414
usemtl APPID_773021936_2358739618112 
o vid_10000022 
f 415 422 423
f 416 423 424
f 417 424 425
f 418 425 426
f 419 426 427
f 415 423 416
f 416 424 417
f 417 425 418
f 418 426 419
f 419 427 420
f 420 427 428
usemtl APPID_773021936_2358739618112 
o vid_10000024 
f 429 434 435
f 430 435 436
f 431 436 437
f 429 435 430
f 430 436 431
f 431 437 432
f 432 437 438
usemtl APPID_773021936_2358739618112 
o vid_10000026 
f 439 443 444
f 440 444 445
f 439 444 440
f 440 445 441
f 441 445 446
usemtl APPID_773021936_2358739618112 
o vid_10000028 
f 447 450 451
f 447 451 448
f 448 451 452
usemtl APPID_773021936_2358739618112 
o vid_10000030 
f 453 456 457
f 453 457 454
f 454 457 458
usemtl APPID_773021936_2358739618112 
o vid_10000032 
f 459 462 463
f 459 463 460
f 460 463 464
usemtl APPID_773021936_2358739618112 
o vid_10000034 
f 465 468 469
f 465 469 466
f 466 469 470
usemtl APPID_773021936_2358739618112 
o vid_10000036 
f 471 473 474
f 471 474 472
f 471 473 474
usemtl APPID_773021936_2358739618112 
o vid_10000038 
f 475 477 478
f 475 478 476
f 475 477 478
