# File generated by PlantGL - Fri Sep  4 14:43:10 2026
v    18.201987 19.124129 0.000000
v    21.657533 18.880811 0.000000
v    20.140480 21.995060 0.000000
v    21.798013 20.875871 0.331061
v    18.342467 21.119189 0.331061
v    19.859520 18.004940 0.331061
v    21.381380 21.453999 -0.088548
v    21.482737 21.492500 0.014186
v    21.996415 20.191436 -0.088548
v    22.089211 20.247513 0.014186
v    21.503548 21.204422 0.331061
v    18.205166 20.699900 0.331061
v    20.291286 18.095678 0.331061
v    18.496452 18.795578 0.718770
v    21.794834 19.300100 0.718770
v    19.708714 21.904322 0.718770
v    19.286098 18.076527 0.142301
v    17.808736 17.097800 1.821458
v    17.386574 16.810206 2.142245
v    17.291195 16.748122 2.213582
v    17.967085 19.723126 0.142301
v    16.689506 18.494999 1.821458
v    16.316704 18.145784 2.142245
v    16.235300 18.066255 2.213582
v    18.272844 19.328938 0.718770
v    21.444735 18.839770 0.718770
v    20.282421 21.831292 0.718770
v    21.727156 20.671062 1.487000
v    18.555265 21.160230 1.487000
v    19.717579 18.168708 1.487000
v    20.990356 21.949585 0.713447
v    23.275556 22.607452 2.966675
v    24.465010 22.966583 3.746948
v    25.954946 23.382500 4.716593
v    26.935025 23.669279 4.974264
v    22.046829 19.230470 0.713447
v    24.176734 20.288030 2.966675
v    25.296638 20.826167 3.746948
v    26.676541 21.525286 4.716593
v    27.593144 21.975435 4.974264
v    21.731622 20.409625 1.487000
v    18.779443 21.294816 1.487000
v    19.488935 18.295559 1.487000
v    18.268378 19.590375 2.857581
v    21.220557 18.705184 2.857581
v    20.511065 21.704441 2.857581
v    19.005756 17.747191 1.843701
v    15.920319 17.306079 4.796962
v    13.650262 16.951545 6.239822
v    12.305235 16.770331 7.090545
v    9.049461 16.290374 7.920947
v    7.899137 16.151395 8.212559
v    18.101784 21.568581 1.843701
v    15.145726 20.580542 4.796962
v    12.957418 19.880424 6.239822
v    11.673755 19.439806 7.090545
v    8.548009 18.410178 7.920947
v    7.457336 18.019036 8.212559
v    18.876148 18.716648 2.857581
v    21.673341 19.668392 2.857581
v    19.450510 21.614960 2.857581
v    21.123852 21.283352 4.464214
v    18.326659 20.331608 4.464214
v    20.549490 18.385040 4.464214
v    18.817629 22.803893 3.166240
v    19.685939 23.631695 4.302988
v    21.706102 25.556684 6.947019
v    25.049076 28.825628 9.883276
v    25.987010 29.760955 10.217981
v    30.457833 34.058493 11.782764
v    33.005062 36.386644 11.084362
v    22.935383 19.197911 3.166240
v    23.641383 20.167850 4.302988
v    25.283003 22.424335 6.947019
v    28.082298 26.169388 9.883276
v    28.885696 27.222529 10.217981
v    32.555785 32.221283 11.782764
v    34.527501 35.053420 11.084362
v    21.375838 20.878433 4.464214
v    18.551335 20.752294 4.464214
v    20.072827 18.369272 4.464214
v    18.624162 19.121567 11.608452
v    21.448665 19.247706 11.608452
v    19.927173 21.630728 11.608452
v    21.033327 16.220627 9.985414
v    16.621901 13.896082 14.713048
v    11.465719 11.139955 18.384658
v    5.408314 7.825483 20.129426
v    3.124425 6.629766 20.779918
v    -1.501104 4.203551 19.675369
v    -5.935960 2.021872 18.632857
v    -6.605789 1.785315 18.486016
v    17.006386 22.527786 9.985414
v    13.041299 19.504166 14.713048
v    8.371302 15.986558 18.384658
v    2.815557 11.886365 20.129426
v    0.769776 10.317712 20.779918
v    -3.377637 7.142653 19.675369
v    -7.222983 4.037660 18.632857
v    -7.719447 3.529572 18.486016
v    18.735263 19.088754 11.608452
v    21.421531 19.360328 11.608452
v    19.843206 21.550918 11.608452
v    21.264737 20.911246 22.178673
v    18.578469 20.639672 22.178673
v    20.156794 18.449082 22.178673
v    18.054920 24.385344 20.196352
v    22.166680 27.140240 24.902439
v    26.332125 29.661074 28.320315
v    39.063859 37.547699 33.380378
v    40.975302 38.739181 32.903407
v    48.973716 43.524994 30.932332
v    53.991246 46.290901 28.206323
v    55.969187 46.977690 26.517062
v    23.544121 16.766769 20.196352
v    27.458921 19.795029 24.902439
v    31.168690 22.948305 28.320315
v    42.679968 32.528826 33.380378
v    44.415245 33.964814 32.903407
v    51.486839 40.036978 30.932332
v    55.698805 43.920944 28.206323
v    56.976391 45.579771 26.517062
v    21.244614 20.810576 22.178673
v    18.675713 20.672580 22.178673
v    20.079672 18.516844 22.178673
v    18.755386 19.189424 39.904756
v    21.324287 19.327420 39.904756
v    19.920328 21.483156 39.904756
v    22.348328 14.925998 37.539913
v    19.851460 13.458947 40.292215
v    17.951192 12.452132 42.329926
v    15.994352 11.415345 44.428300
v    13.513452 10.059658 46.203754
v    8.518384 7.331447 49.778009
v    -2.340746 1.261429 52.921531
v    -12.378088 -4.118445 51.150141
v    -17.572967 -6.732580 49.923466
v    -22.420715 -8.502027 46.953300
v    16.308834 24.199456 37.539913
v    13.957457 22.509007 40.292215
v    12.268250 21.178116 42.329926
v    10.528754 19.807603 44.428300
v    8.285689 18.086728 46.203754
v    3.770707 14.621360 49.778009
v    -6.171832 7.143945 52.921531
v    -15.150874 0.139081 51.150141
v    -19.642314 -3.555161 49.923466
v    -23.220837 -7.273464 46.953300
v    18.765415 19.315252 39.904756
v    21.210302 19.273192 39.904756
v    20.024283 21.411556 39.904756
v    21.234585 20.684748 66.654886
v    18.789698 20.726808 66.654886
v    19.975717 18.588444 66.654886
v    17.914951 25.026644 63.899304
v    25.663132 28.450728 71.925849
v    32.174528 31.429418 76.422505
v    34.718078 32.528985 78.159484
v    43.841915 36.608636 80.681352
v    49.508858 38.966903 82.226141
v    51.537357 39.813436 81.762505
v    57.145029 41.411726 80.557181
v    23.160162 15.569655 63.899304
v    30.167462 20.329529 71.925849
v    36.142060 24.276053 76.422505
v    38.421628 25.851573 78.159484
v    46.713455 31.431320 80.681352
v    51.714607 34.989990 82.226141
v    53.506807 36.262564 81.762505
v    57.831877 40.173355 80.557181
v    21.293262 20.344016 66.654886
v    19.055443 20.947990 66.654886
v    19.651295 18.707994 66.654886
v    18.706738 19.655984 106.566641
v    20.944557 19.052010 106.566641
v    20.348705 21.292006 106.566641
v    21.009240 14.529065 103.430414
v    11.506534 12.900763 112.565713
v    0.337217 11.073525 119.660435
v    -1.989905 10.664319 120.256643
v    -11.351865 9.269173 122.638825
v    -18.041433 9.073537 124.288843
v    -18.687502 9.053344 124.155229
v    18.157590 25.249306 103.430414
v    9.101794 21.940932 112.565713
v    -1.499186 17.977137 119.660435
v    -3.722057 17.176018 120.256643
v    -12.539864 13.735233 122.638825
v    -18.442498 10.581266 124.288843
v    -19.013211 10.277787 124.155229
v    18.831935 19.515124 106.566641
v    21.003948 19.230864 106.566641
v    20.164118 21.254012 106.566641
v    21.168065 20.484876 144.109260
v    18.996052 20.769136 144.109260
v    19.835882 18.745988 144.109260
v    17.770864 26.038327 140.622802
v    27.999899 29.238237 150.778265
v    31.571823 30.406516 153.138339
v    40.007937 32.970896 158.665274
v    46.267136 34.958937 160.322398
v    56.375593 37.881136 162.970606
v    59.737382 38.433030 163.810549
v    65.290151 39.356062 162.646987
v    22.702449 14.158150 140.622802
v    32.190529 19.143019 150.778265
v    35.539753 20.847781 153.138339
v    43.311913 25.011623 158.665274
v    49.138964 28.040711 160.322398
v    58.345241 33.136258 162.970606
v    61.109589 35.127387 163.810549
v    65.683656 38.408109 162.646987
v    20.919824 20.756852 144.109260
v    18.884635 20.418165 144.109260
v    20.195542 18.824983 144.109260
v    19.080176 19.243148 183.236268
v    21.115365 19.581835 183.236268
v    19.804458 21.175017 183.236268
v    24.764065 14.058765 179.450585
v    15.147363 7.504708 190.477641
v    5.115374 0.476055 198.170040
v    -9.630427 -9.647062 203.203947
v    -14.375776 -12.732057 204.628421
v    -19.249782 -15.907643 203.401387
v    -28.726790 -20.600209 201.215400
v    15.087433 25.819045 179.450585
v    6.804086 17.644524 190.477641
v    -2.024949 9.153888 198.170040
v    -14.798304 -3.366397 203.203947
v    -18.739406 -7.428817 204.628421
v    -22.794179 -11.600038 203.401387
v    -29.223978 -19.995963 201.215400
v    19.227775 19.192038 183.236268
v    21.085829 19.735214 183.236268
v    19.686397 21.072748 183.236268
v    20.772225 20.807962 211.669031
v    18.914171 20.264786 211.669031
v    20.313603 18.927252 211.669031
v    14.528866 25.168678 207.654017
v    23.826662 33.286170 219.349073
v    28.204376 37.208999 223.040523
v    34.728874 42.812985 228.431773
v    41.738127 48.986507 230.788605
v    51.037639 56.755347 233.838288
v    60.728058 63.089032 232.399034
v    25.410734 14.768127 207.654017
v    33.099590 24.423394 219.349073
v    36.820499 28.973975 223.040523
v    42.123794 35.745149 228.431773
v    47.974129 43.026330 230.788605
v    55.314612 52.667549 233.838288
v    61.203735 62.634395 232.399034
v    20.731259 20.745280 211.669031
v    18.988939 20.260648 211.669031
v    20.279802 18.994071 211.669031
v    19.268741 19.254720 228.812271
v    21.011061 19.739352 228.812271
v    19.720198 21.005929 228.812271
v    25.585002 14.742762 224.653043
v    15.843781 6.460749 236.768170
v    12.506311 3.548083 239.549993
v    4.396509 -3.234753 246.177109
v    -1.503559 -8.295487 248.138493
v    -11.241820 -16.216333 251.297717
v    -14.729399 -18.423060 252.315250
v    -21.691598 -22.847915 250.610031
v    14.637646 25.484155 224.653043
v    6.542120 15.587410 236.768170
v    3.693361 12.195228 239.549993
v    -2.934240 3.958078 246.177109
v    -7.882016 -2.037034 248.138493
v    -15.616496 -11.923961 251.297717
v    -17.756594 -15.452819 252.315250
v    -22.048433 -22.497794 250.610031
v    19.349705 19.279474 228.812271
v    20.949141 19.797091 228.812271
v    19.701154 20.923435 228.812271
v    20.650295 20.720526 239.426284
v    19.050859 20.202909 239.426284
v    20.298846 19.076565 239.426284
v    13.915543 25.159057 235.217842
v    23.414184 33.942598 247.476320
v    28.676051 38.936011 252.031815
v    34.534523 44.266255 256.996588
v    42.609621 51.798995 259.783066
v    52.120501 60.217287 262.979670
v    62.713659 67.584850 260.731008
v    25.753856 14.474637 235.217842
v    33.520680 24.821194 247.476320
v    37.950204 30.565819 252.031815
v    42.653824 36.938350 256.996588
v    49.321877 45.740989 259.783066
v    56.724115 56.062393 262.979670
v    62.970519 67.353026 260.731008
v    20.880529 20.171415 239.426284
v    19.411286 20.676853 239.426284
v    19.708185 19.151732 239.426284
v    19.119471 19.828585 244.896186
v    20.588714 19.323147 244.896186
v    20.291815 20.848268 244.896186
v    21.780886 12.453344 240.736958
v    9.061271 11.151607 252.852085
v    3.639859 10.525879 256.279292
v    -5.860905 9.631080 262.261024
v    -14.761705 8.680935 264.519706
v    -27.274168 7.675068 267.678930
v    -40.317094 8.156864 266.305077
v    18.819859 27.663605 240.736958
v    6.540807 24.098777 252.852085
v    1.280578 22.645078 256.279292
v    -7.862034 19.910516 262.261024
v    -16.469257 17.452322 264.519706
v    -28.445296 13.690939 267.678930
v    -40.354993 8.351543 266.305077
v    19.457037 19.552073 244.896186
v    20.659398 19.753744 244.896186
v    19.883565 20.694184 244.896186
v    20.542963 20.447927 247.353313
v    19.340602 20.246256 247.353313
v    20.116435 19.305816 247.353313
v    15.631383 24.576614 243.338299
v    18.846313 26.773701 247.027936
v    25.954140 31.380262 255.033355
v    31.672248 35.220605 259.350990
v    38.128457 39.282496 264.116056
v    40.973147 41.137030 264.970694
v    52.568463 46.867943 268.159631
v    23.662838 14.841140 243.338299
v    26.430937 17.579862 247.027936
v    32.304512 23.682544 255.033355
v    37.161692 28.566476 259.350990
v    42.376673 34.132944 264.116056
v    44.738092 36.573283 264.970694
v    52.568463 46.867943 268.159631
v    20.418890 20.314557 247.353313
v    19.518140 20.205491 247.353313
v    20.062970 19.479952 247.353313
v    19.581110 19.685443 248.971000
v    20.481860 19.794509 248.971000
v    19.937030 20.520048 248.971000
v    22.976165 16.987900 245.185316
v    22.003870 16.419063 246.249993
v    14.451403 12.345350 254.323058
v    12.488613 11.652080 256.212372
v    4.756718 8.553355 261.278757
v    17.937306 23.698053 245.185316
v    17.119902 22.922951 246.249993
v    11.101725 16.806053 254.323058
v    9.888618 15.114444 256.212372
v    4.756718 8.553355 261.278757
v    21.482737 21.492500 0.014186
v    22.204560 21.766686 0.745813
v    22.591665 21.902991 1.133703
v    23.785713 22.345546 1.931924
v    24.014785 22.422755 2.082936
v    24.947701 22.754074 2.332094
v    26.266122 23.052433 2.665370
v    22.089211 20.247513 0.014186
v    22.750058 20.646871 0.745813
v    23.096009 20.867661 1.133703
v    24.180523 21.535069 1.931924
v    24.382524 21.667849 2.082936
v    25.218482 22.198207 2.332094
v    26.266122 23.052433 2.665370
v    17.291195 16.748122 2.213582
v    16.071884 15.954452 3.125537
v    15.274634 15.421272 3.367547
v    13.803647 14.492197 3.805415
v    13.177996 14.194103 3.976283
v    12.119092 13.686973 3.733590
v    16.235300 18.066255 2.213582
v    15.194638 17.049567 3.125537
v    14.500306 16.387910 3.367547
v    13.272573 15.155167 3.805415
v    12.845112 14.609662 3.976283
v    12.119092 13.686973 3.733590
v    26.935025 23.669279 4.974264
v    27.803086 23.923281 5.202485
v    30.060130 24.520160 5.790052
v    30.333812 24.558682 5.858193
v    32.546068 24.874597 5.396259
v    27.593144 21.975435 4.974264
v    28.404985 22.374135 5.202485
v    30.472944 23.457675 5.790052
v    30.700841 23.614035 5.858193
v    32.546068 24.874597 5.396259
v    7.899137 16.151395 8.212559
v    6.422799 15.973028 8.586817
v    6.007952 15.922486 8.498666
v    2.713629 15.910809 7.817693
v    7.457336 18.019036 8.212559
v    6.057554 17.517040 8.586817
v    5.664030 17.376358 8.498666
v    2.713629 15.910809 7.817693
v    33.005062 36.386644 11.084362
v    33.374932 36.724715 10.978666
v    36.800489 39.184863 10.106880
v    34.527501 35.053420 11.084362
v    34.813816 35.464662 10.978666
v    36.800489 39.184863 10.106880
v    -6.605789 1.785315 18.486016
v    -9.266539 0.933836 16.893241
v    -10.165267 0.646308 16.354349
v    -10.425619 0.574111 16.121143
v    -7.719447 3.529572 18.486016
v    -9.611540 1.474191 16.893241
v    -10.250566 0.779906 16.354349
v    -10.425619 0.574111 16.121143
v    55.969187 46.977690 26.517062
v    58.750748 47.920005 23.982098
v    56.976391 45.579771 26.517062
v    58.750748 47.920005 23.982098
v    -22.420715 -8.502027 46.953300
v    -22.642784 -8.575292 46.819752
v    -24.848892 -9.208590 44.838621
v    -23.220837 -7.273464 46.953300
v    -23.377639 -7.446945 46.819752
v    -24.848892 -9.208590 44.838621
v    57.145029 41.411726 80.557181
v    60.148001 42.267629 79.911716
v    57.831877 40.173355 80.557181
v    60.148001 42.267629 79.911716
v    -18.687502 9.053344 124.155229
v    -21.479993 8.966066 123.577712
v    -19.013211 10.277787 124.155229
v    -21.479993 8.966066 123.577712
v    65.290151 39.356062 162.646987
v    67.522746 39.727185 162.179156
v    65.683656 38.408109 162.646987
v    67.522746 39.727185 162.179156
v    -28.726790 -20.600209 201.215400
v    -30.273074 -21.365856 200.858731
v    -29.223978 -19.995963 201.215400
v    -30.273074 -21.365856 200.858731
v    60.728058 63.089032 232.399034
v    61.942284 63.883287 232.099113
v    61.203735 62.634395 232.399034
v    61.942284 63.883287 232.099113
v    -21.691598 -22.847915 250.610031
v    -22.621943 -23.439199 250.382166
v    -22.048433 -22.497794 250.610031
v    -22.621943 -23.439199 250.382166
v    62.713659 67.584850 260.731008
v    63.339958 68.020576 260.573297
v    62.970519 67.353026 260.731008
v    63.339958 68.020576 260.573297
v    -40.317094 8.156864 266.305077
v    -40.754141 8.172811 266.214675
v    -40.354993 8.351543 266.305077
v    -40.754141 8.172811 266.214675
mtllib usm_45_2.5D_2018-10-13_0.mtl
usemtl APPID_1912372656_1410673792736 
o vid_3 
f 3 2 1
f 4 5 6
f 1 6 5
f 1 5 3
f 3 5 4
f 4 2 3
f 2 4 6
f 6 1 2
usemtl APPID_1912374112_1410673799008 
o vid_4 
f 7 9 10
f 7 10 8
f 7 9 10
f 7 10 8
usemtl APPID_1912372656_1410673792736 
o vid_5 
f 13 12 11
f 14 15 16
f 11 16 15
f 11 15 13
f 13 15 14
f 14 12 13
f 12 14 16
f 16 11 12
usemtl APPID_1912374112_1410673799008 
o vid_6 
f 17 21 22
f 18 22 23
f 17 22 18
f 18 23 19
f 19 23 24
f 19 24 20
usemtl APPID_1912372656_1410673792736 
o vid_7 
f 27 26 25
f 28 29 30
f 25 30 29
f 25 29 27
f 27 29 28
f 28 26 27
f 26 28 30
f 30 25 26
usemtl APPID_1912374112_1410673799008 
o vid_8 
f 31 36 37
f 32 37 38
f 33 38 39
f 31 37 32
f 32 38 33
f 33 39 34
f 34 39 40
f 34 40 35
usemtl APPID_1912372656_1410673792736 
o vid_9 
f 43 42 41
f 44 45 46
f 41 46 45
f 41 45 43
f 43 45 44
f 44 42 43
f 42 44 46
f 46 41 42
usemtl APPID_1912374112_1410673799008 
o vid_10 
f 47 53 54
f 48 54 55
f 49 55 56
f 50 56 57
f 47 54 48
f 48 55 49
f 49 56 50
f 50 57 51
f 51 57 58
f 51 58 52
usemtl APPID_1912372656_1410673792736 
o vid_11 
f 61 60 59
f 62 63 64
f 59 64 63
f 59 63 61
f 61 63 62
f 62 60 61
f 60 62 64
f 64 59 60
usemtl APPID_1912374112_1410673799008 
o vid_12 
f 65 72 73
f 66 73 74
f 67 74 75
f 68 75 76
f 69 76 77
f 65 73 66
f 66 74 67
f 67 75 68
f 68 76 69
f 69 77 70
f 70 77 78
f 70 78 71
usemtl APPID_1912372656_1410673792736 
o vid_13 
f 81 80 79
f 82 83 84
f 79 84 83
f 79 83 81
f 81 83 82
f 82 80 81
f 80 82 84
f 84 79 80
usemtl APPID_1912374112_1410673799008 
o vid_14 
f 85 93 94
f 86 94 95
f 87 95 96
f 88 96 97
f 89 97 98
f 90 98 99
f 85 94 86
f 86 95 87
f 87 96 88
f 88 97 89
f 89 98 90
f 90 99 91
f 91 99 100
f 91 100 92
usemtl APPID_1912372656_1410673792736 
o vid_15 
f 103 102 101
f 104 105 106
f 101 106 105
f 101 105 103
f 103 105 104
f 104 102 103
f 102 104 106
f 106 101 102
usemtl APPID_1912374112_1410673799008 
o vid_16 
f 107 115 116
f 108 116 117
f 109 117 118
f 110 118 119
f 111 119 120
f 112 120 121
f 107 116 108
f 108 117 109
f 109 118 110
f 110 119 111
f 111 120 112
f 112 121 113
f 113 121 122
f 113 122 114
usemtl APPID_1912372656_1410673792736 
o vid_17 
f 125 124 123
f 126 127 128
f 123 128 127
f 123 127 125
f 125 127 126
f 126 124 125
f 124 126 128
f 128 123 124
usemtl APPID_1912374112_1410673799008 
o vid_18 
f 129 139 140
f 130 140 141
f 131 141 142
f 132 142 143
f 133 143 144
f 134 144 145
f 135 145 146
f 136 146 147
f 129 140 130
f 130 141 131
f 131 142 132
f 132 143 133
f 133 144 134
f 134 145 135
f 135 146 136
f 136 147 137
f 137 147 148
f 137 148 138
usemtl APPID_1912372656_1410673792736 
o vid_19 
f 151 150 149
f 152 153 154
f 149 154 153
f 149 153 151
f 151 153 152
f 152 150 151
f 150 152 154
f 154 149 150
usemtl APPID_1912374112_1410673799008 
o vid_20 
f 155 163 164
f 156 164 165
f 157 165 166
f 158 166 167
f 159 167 168
f 160 168 169
f 155 164 156
f 156 165 157
f 157 166 158
f 158 167 159
f 159 168 160
f 160 169 161
f 161 169 170
f 161 170 162
usemtl APPID_1912372656_1410673792736 
o vid_21 
f 173 172 171
f 174 175 176
f 171 176 175
f 171 175 173
f 173 175 174
f 174 172 173
f 172 174 176
f 176 171 172
usemtl APPID_1912374112_1410673799008 
o vid_22 
f 177 184 185
f 178 185 186
f 179 186 187
f 180 187 188
f 181 188 189
f 177 185 178
f 178 186 179
f 179 187 180
f 180 188 181
f 181 189 182
f 182 189 190
f 182 190 183
usemtl APPID_1912372656_1410673792736 
o vid_23 
f 193 192 191
f 194 195 196
f 191 196 195
f 191 195 193
f 193 195 194
f 194 192 193
f 192 194 196
f 196 191 192
usemtl APPID_1912374112_1410673799008 
o vid_24 
f 197 205 206
f 198 206 207
f 199 207 208
f 200 208 209
f 201 209 210
f 202 210 211
f 197 206 198
f 198 207 199
f 199 208 200
f 200 209 201
f 201 210 202
f 202 211 203
f 203 211 212
f 203 212 204
usemtl APPID_1912372656_1410673792736 
o vid_25 
f 215 214 213
f 216 217 218
f 213 218 217
f 213 217 215
f 215 217 216
f 216 214 215
f 214 216 218
f 218 213 214
usemtl APPID_1912374112_1410673799008 
o vid_26 
f 219 226 227
f 220 227 228
f 221 228 229
f 222 229 230
f 223 230 231
f 219 227 220
f 220 228 221
f 221 229 222
f 222 230 223
f 223 231 224
f 224 231 232
f 224 232 225
usemtl APPID_1912372656_1410673792736 
o vid_27 
f 235 234 233
f 236 237 238
f 233 238 237
f 233 237 235
f 235 237 236
f 236 234 235
f 234 236 238
f 238 233 234
usemtl APPID_1912374112_1410673799008 
o vid_28 
f 239 246 247
f 240 247 248
f 241 248 249
f 242 249 250
f 243 250 251
f 239 247 240
f 240 248 241
f 241 249 242
f 242 250 243
f 243 251 244
f 244 251 252
f 244 252 245
usemtl APPID_1912372656_1410673792736 
o vid_29 
f 255 254 253
f 256 257 258
f 253 258 257
f 253 257 255
f 255 257 256
f 256 254 255
f 254 256 258
f 258 253 254
usemtl APPID_1912374112_1410673799008 
o vid_30 
f 259 267 268
f 260 268 269
f 261 269 270
f 262 270 271
f 263 271 272
f 264 272 273
f 259 268 260
f 260 269 261
f 261 270 262
f 262 271 263
f 263 272 264
f 264 273 265
f 265 273 274
f 265 274 266
usemtl APPID_1912372656_1410673792736 
o vid_31 
f 277 276 275
f 278 279 280
f 275 280 279
f 275 279 277
f 277 279 278
f 278 276 277
f 276 278 280
f 280 275 276
usemtl APPID_1912374112_1410673799008 
o vid_32 
f 281 288 289
f 282 289 290
f 283 290 291
f 284 291 292
f 285 292 293
f 281 289 282
f 282 290 283
f 283 291 284
f 284 292 285
f 285 293 286
f 286 293 294
f 286 294 287
usemtl APPID_1912372656_1410673792736 
o vid_33 
f 297 296 295
f 298 299 300
f 295 300 299
f 295 299 297
f 297 299 298
f 298 296 297
f 296 298 300
f 300 295 296
usemtl APPID_1912374112_1410673799008 
o vid_34 
f 301 308 309
f 302 309 310
f 303 310 311
f 304 311 312
f 305 312 313
f 301 309 302
f 302 310 303
f 303 311 304
f 304 312 305
f 305 313 306
f 306 313 314
f 306 314 307
usemtl APPID_1912372656_1410673792736 
o vid_35 
f 317 316 315
f 318 319 320
f 315 320 319
f 315 319 317
f 317 319 318
f 318 316 317
f 316 318 320
f 320 315 316
usemtl APPID_1912374112_1410673799008 
o vid_36 
f 321 328 329
f 322 329 330
f 323 330 331
f 324 331 332
f 325 332 333
f 321 329 322
f 322 330 323
f 323 331 324
f 324 332 325
f 325 333 326
f 326 333 334
usemtl APPID_1912372656_1410673792736 
o vid_37 
f 337 336 335
f 338 339 340
f 335 340 339
f 335 339 337
f 337 339 338
f 338 336 337
f 336 338 340
f 340 335 336
usemtl APPID_1912374112_1410673799008 
o vid_38 
f 341 346 347
f 342 347 348
f 343 348 349
f 341 347 342
f 342 348 343
f 343 349 344
f 344 349 350
usemtl APPID_1912369744_1410673797216 
o vid_10000004 
f 351 358 359
f 352 359 360
f 353 360 361
f 354 361 362
f 355 362 363
f 351 359 352
f 352 360 353
f 353 361 354
f 354 362 355
f 355 363 356
f 356 363 364
usemtl APPID_1912369744_1410673797216 
o vid_10000006 
f 365 371 372
f 366 372 373
f 367 373 374
f 368 374 375
f 365 372 366
f 366 373 367
f 367 374 368
f 368 375 369
f 369 375 376
usemtl APPID_1912369744_1410673797216 
o vid_10000008 
f 377 382 383
f 378 383 384
f 379 384 385
f 377 383 378
f 378 384 379
f 379 385 380
f 380 385 386
usemtl APPID_1912369744_1410673797216 
o vid_10000010 
f 387 391 392
f 388 392 393
f 387 392 388
f 388 393 389
f 389 393 394
usemtl APPID_1912369744_1410673797216 
o vid_10000012 
f 395 398 399
f 395 399 396
f 396 399 400
usemtl APPID_1912369744_1410673797216 
o vid_10000014 
f 401 405 406
f 402 406 407
f 401 406 402
f 402 407 403
f 403 407 408
usemtl APPID_1912369744_1410673797216 
o vid_10000016 
f 409 411 412
f 409 412 410
f 409 411 412
usemtl APPID_1912369744_1410673797216 
o vid_10000018 
f 413 416 417
f 413 417 414
f 414 417 418
usemtl APPID_1912369744_1410673797216 
o vid_10000020 
f 419 421 422
f 419 422 420
f 419 421 422
usemtl APPID_1912369744_1410673797216 
o vid_10000022 
f 423 425 426
f 423 426 424
f 423 425 426
usemtl APPID_1912369744_1410673797216 
o vid_10000024 
f 427 429 430
f 427 430 428
f 427 429 430
usemtl APPID_1912369744_1410673797216 
o vid_10000026 
f 431 433 434
f 431 434 432
f 431 433 434
usemtl APPID_1912369744_1410673797216 
o vid_10000028 
f 435 437 438
f 435 438 436
f 435 437 438
usemtl APPID_1912369744_1410673797216 
o vid_10000030 
f 439 441 442
f 439 442 440
f 439 441 442
usemtl APPID_1912369744_1410673797216 
o vid_10000032 
f 443 445 446
f 443 446 444
f 443 445 446
usemtl APPID_1912369744_1410673797216 
o vid_10000034 
f 447 449 450
f 447 450 448
f 447 449 450
