# File generated by PlantGL - Fri Sep  4 14:41:55 2026
v    18.201987 19.124129 0.000000
v    21.657533 18.880811 0.000000
v    20.140480 21.995060 0.000000
v    21.798013 20.875871 0.331061
v    18.342467 21.119189 0.331061
v    19.859520 18.004940 0.331061
v    21.383011 21.452572 -0.085637
v    22.230290 21.774414 0.773151
v    22.584556 21.899155 1.128134
v    23.805267 22.351593 1.944180
v    24.964051 22.759653 2.328973
v    26.273324 23.055942 2.659937
v    21.996298 20.193600 -0.085637
v    22.772004 20.662368 0.773151
v    23.088606 20.864428 1.128134
v    24.197338 21.546739 1.944180
v    25.232953 22.207642 2.328973
v    26.273324 23.055942 2.659937
v    21.503548 21.204422 0.331061
v    18.205166 20.699900 0.331061
v    20.291286 18.095678 0.331061
v    18.496452 18.795578 0.718770
v    21.794834 19.300100 0.718770
v    19.708714 21.904322 0.718770
v    19.285308 18.076928 0.143568
v    17.811194 17.100353 1.819033
v    17.373791 16.802376 2.151401
v    16.078418 15.959196 3.120245
v    15.264277 15.414720 3.367383
v    13.796524 14.487688 3.804288
v    13.192971 14.200122 3.969121
v    12.115514 13.684107 3.722176
v    17.967303 19.722267 0.143568
v    16.692533 18.496840 1.819033
v    16.306274 18.135018 2.151401
v    15.200694 17.054908 3.120245
v    14.491651 16.379232 3.367383
v    13.266618 15.149200 3.804288
v    12.854254 14.622962 3.969121
v    12.115514 13.684107 3.722176
v    18.272844 19.328938 0.718770
v    21.444735 18.839770 0.718770
v    20.282421 21.831292 0.718770
v    21.727156 20.671062 1.487000
v    18.555265 21.160230 1.487000
v    19.717579 18.168708 1.487000
v    20.989748 21.949782 0.711738
v    23.279998 22.609103 2.969945
v    24.437159 22.958484 3.729033
v    25.965589 23.385147 4.723730
v    27.777673 23.915378 5.200142
v    30.039705 24.513576 5.789008
v    32.530784 24.868659 5.413822
v    22.046515 19.229915 0.711738
v    24.181127 20.289811 2.969945
v    25.270625 20.813338 3.729033
v    26.686179 21.530519 4.723730
v    28.380902 22.362808 5.200142
v    30.453431 23.448743 5.789008
v    32.530784 24.868659 5.413822
v    21.731622 20.409625 1.487000
v    18.779443 21.294816 1.487000
v    19.488935 18.295559 1.487000
v    18.268378 19.590375 2.857087
v    21.220557 18.705184 2.857087
v    20.511065 21.704441 2.857087
v    19.008159 17.745038 1.836837
v    15.903336 17.301155 4.808653
v    13.742868 16.963736 6.181858
v    12.264930 16.764615 7.116646
v    9.130877 16.302601 7.916002
v    6.344666 15.965979 8.622319
v    2.756504 15.920951 7.879028
v    18.102967 21.571582 1.836837
v    15.128337 20.577336 4.808653
v    13.045671 19.911017 6.181858
v    11.635161 19.426859 7.116646
v    8.626274 18.435724 7.916002
v    5.984544 17.488335 8.622319
v    2.756504 15.920951 7.879028
v    18.876148 18.716648 2.857087
v    21.673341 19.668392 2.857087
v    19.450510 21.614960 2.857087
v    21.123852 21.283352 4.462301
v    18.326659 20.331608 4.462301
v    20.549490 18.385040 4.462301
v    18.810681 22.804979 3.151326
v    19.514876 23.476322 4.073222
v    21.728129 25.585304 6.969974
v    25.104587 28.886991 9.935641
v    30.341706 33.947085 11.773572
v    33.286117 36.637835 11.110145
v    36.745985 39.122624 10.229628
v    22.937376 19.191167 3.151326
v    23.509938 19.977783 4.073222
v    25.308467 22.449946 6.969974
v    28.135800 26.232509 9.935641
v    32.460672 32.091473 11.773572
v    34.739413 35.365160 11.110145
v    36.745985 39.122624 10.229628
v    21.375838 20.878433 4.462301
v    18.551335 20.752294 4.462301
v    20.072827 18.369272 4.462301
v    18.624162 19.121567 11.576758
v    21.448665 19.247706 11.576758
v    19.927173 21.630728 11.576758
v    21.052920 16.201634 9.931963
v    16.630647 13.896362 14.658427
v    11.344796 11.072046 18.443805
v    5.808914 8.042939 20.038353
v    2.884864 6.512069 20.871175
v    -1.187875 4.375808 19.898629
v    -5.682184 2.164881 18.842142
v    -10.326925 0.633852 16.572730
v    -10.337195 0.630566 16.566572
v    16.997402 22.553552 9.931963
v    13.045234 19.511982 14.658427
v    8.258812 15.905440 18.443805
v    3.181399 12.158260 20.038353
v    0.562197 10.149923 20.871175
v    -3.089564 7.354311 19.898629
v    -6.986461 4.207693 18.842142
v    -10.329893 0.638500 16.572730
v    -10.337195 0.630566 16.566572
v    18.735263 19.088754 11.576758
v    21.421531 19.360328 11.576758
v    19.843206 21.550918 11.576758
v    21.264737 20.911246 22.058017
v    18.578469 20.639672 22.058017
v    20.156794 18.449082 22.058017
v    18.001170 24.443810 20.043090
v    21.466220 26.727324 23.987808
v    23.214095 27.761585 25.912231
v    26.953153 30.039650 28.661858
v    29.412786 31.537513 30.470366
v    39.403280 37.756586 33.443971
v    48.669229 43.324079 31.157648
v    53.679482 46.095883 28.803746
v    58.634521 47.836263 24.706592
v    23.582567 16.697276 20.043090
v    26.845510 19.261297 23.987808
v    28.379872 20.591896 25.912231
v    31.724385 23.417560 28.661858
v    33.923815 25.276563 30.470366
v    42.985557 32.784670 33.443971
v    51.199871 39.811748 31.157648
v    55.415128 43.686945 28.803746
v    58.634521 47.836263 24.706592
v    21.170349 20.762210 22.058017
v    18.754733 20.632447 22.058017
v    20.074918 18.605343 22.058017
v    18.829651 19.237790 39.687747
v    21.245267 19.367553 39.687747
v    19.925082 21.394657 39.687747
v    22.484083 14.903940 37.277640
v    20.189321 13.555637 39.807160
v    16.001504 11.336817 44.297873
v    13.770737 10.117816 45.894319
v    8.382404 7.174810 49.749978
v    -2.345641 1.178065 52.855554
v    -12.572151 -4.302860 51.231344
v    -18.217833 -7.143845 49.898220
v    -23.410569 -8.982089 46.735099
v    -25.360676 -9.541898 44.983862
v    16.343552 24.332538 37.277640
v    14.182504 22.778920 39.807160
v    10.459824 19.845897 44.297873
v    8.442913 18.298527 45.894319
v    3.572463 14.560328 49.749978
v    -6.250056 7.173175 52.855554
v    -15.398008 0.036158 51.231344
v    -20.279209 -3.978665 49.898220
v    -24.060150 -7.984677 46.735099
v    -25.360676 -9.541898 44.983862
v    19.031986 19.463102 39.687747
v    20.948974 19.430124 39.687747
v    20.019040 21.106774 39.687747
v    20.968014 20.536898 66.536732
v    19.051026 20.569876 66.536732
v    19.980960 18.893226 66.536732
v    17.367090 25.350657 63.721961
v    19.963229 26.498694 66.411716
v    25.281364 28.848889 71.920912
v    34.501883 33.066890 78.288441
v    37.388817 34.421922 79.094284
v    49.502100 39.838281 82.442448
v    57.577356 43.213319 80.596235
v    66.372953 45.720227 78.705692
v    23.144939 14.933334 63.721961
v    25.493470 16.527802 66.411716
v    30.303085 19.794847 71.920912
v    38.763467 25.383355 78.288441
v    41.441569 27.114906 79.094284
v    52.450232 34.522870 82.442448
v    59.589109 39.586176 80.596235
v    66.372953 45.720227 78.705692
v    20.811950 20.215984 66.536732
v    19.406978 20.595177 66.536732
v    19.781072 19.188839 66.536732
v    19.188050 19.784016 106.673854
v    20.593022 19.404823 106.673854
v    20.218928 20.811161 106.673854
v    21.790577 13.612011 103.464042
v    12.065003 11.945160 112.813680
v    0.694752 9.845249 120.074863
v    -15.667973 6.944072 124.268543
v    -25.315350 5.498700 123.209591
v    -35.739722 5.172891 121.053720
v    18.380017 26.433368 103.464042
v    9.111655 23.047715 112.813680
v    -1.799181 19.220719 120.074863
v    -17.440766 13.608553 124.268543
v    -26.531223 10.069546 123.209591
v    -35.739722 5.172891 121.053720
v    19.449163 19.771342 106.673854
v    20.473442 19.637290 106.673854
v    20.077395 20.591368 106.673854
v    20.550837 20.228658 144.613139
v    19.526558 20.362710 144.613139
v    19.922605 19.408632 144.613139
v    16.941412 26.227365 141.039212
v    27.427076 29.507554 151.449458
v    35.162386 32.037564 156.560403
v    39.701693 33.417407 159.534339
v    50.801297 36.942851 162.472960
v    59.717035 39.520254 164.808700
v    72.631301 41.847799 162.087851
v    22.250710 13.437277 141.039212
v    31.976830 18.547208 151.449458
v    39.229865 22.239016 156.560403
v    43.411912 24.479498 159.534339
v    53.745174 29.851059 162.472960
v    61.865183 34.345372 164.808700
v    72.631301 41.847799 162.087851
v    20.290049 20.238659 144.613139
v    19.648291 20.131860 144.613139
v    20.061660 19.629481 144.613139
v    19.709951 19.761341 154.393000
v    20.351709 19.868140 154.393000
v    19.938340 20.370519 154.393000
v    22.819546 16.417093 146.552609
v    21.465484 15.800583 150.924630
v    17.796555 14.450981 162.150786
v    11.096534 12.674021 173.261022
v    17.027144 23.456760 146.552609
v    16.161411 22.246771 150.924630
v    14.130514 18.906423 162.150786
v    11.096534 12.674021 173.261022
mtllib usm_45_Beer_2018-09-06_0.mtl
usemtl APPID_1761369136_1410673721952 
o vid_3 
f 3 2 1
f 4 5 6
f 1 6 5
f 1 5 3
f 3 5 4
f 4 2 3
f 2 4 6
f 6 1 2
usemtl APPID_1761363312_1410673720032 
o vid_4 
f 7 13 14
f 8 14 15
f 9 15 16
f 10 16 17
f 7 14 8
f 8 15 9
f 9 16 10
f 10 17 11
f 11 17 18
usemtl APPID_1761369136_1410673721952 
o vid_5 
f 21 20 19
f 22 23 24
f 19 24 23
f 19 23 21
f 21 23 22
f 22 20 21
f 20 22 24
f 24 19 20
usemtl APPID_1761363312_1410673720032 
o vid_6 
f 25 33 34
f 26 34 35
f 27 35 36
f 28 36 37
f 29 37 38
f 30 38 39
f 25 34 26
f 26 35 27
f 27 36 28
f 28 37 29
f 29 38 30
f 30 39 31
f 31 39 40
usemtl APPID_1761369136_1410673721952 
o vid_7 
f 43 42 41
f 44 45 46
f 41 46 45
f 41 45 43
f 43 45 44
f 44 42 43
f 42 44 46
f 46 41 42
usemtl APPID_1761363312_1410673720032 
o vid_8 
f 47 54 55
f 48 55 56
f 49 56 57
f 50 57 58
f 51 58 59
f 47 55 48
f 48 56 49
f 49 57 50
f 50 58 51
f 51 59 52
f 52 59 60
usemtl APPID_1761369136_1410673721952 
o vid_9 
f 63 62 61
f 64 65 66
f 61 66 65
f 61 65 63
f 63 65 64
f 64 62 63
f 62 64 66
f 66 61 62
usemtl APPID_1761363312_1410673720032 
o vid_10 
f 67 74 75
f 68 75 76
f 69 76 77
f 70 77 78
f 71 78 79
f 67 75 68
f 68 76 69
f 69 77 70
f 70 78 71
f 71 79 72
f 72 79 80
usemtl APPID_1761369136_1410673721952 
o vid_11 
f 83 82 81
f 84 85 86
f 81 86 85
f 81 85 83
f 83 85 84
f 84 82 83
f 82 84 86
f 86 81 82
usemtl APPID_1761363312_1410673720032 
o vid_12 
f 87 94 95
f 88 95 96
f 89 96 97
f 90 97 98
f 91 98 99
f 87 95 88
f 88 96 89
f 89 97 90
f 90 98 91
f 91 99 92
f 92 99 100
usemtl APPID_1761369136_1410673721952 
o vid_13 
f 103 102 101
f 104 105 106
f 101 106 105
f 101 105 103
f 103 105 104
f 104 102 103
f 102 104 106
f 106 101 102
usemtl APPID_1761363312_1410673720032 
o vid_14 
f 107 116 117
f 108 117 118
f 109 118 119
f 110 119 120
f 111 120 121
f 112 121 122
f 113 122 123
f 107 117 108
f 108 118 109
f 109 119 110
f 110 120 111
f 111 121 112
f 112 122 113
f 113 123 114
f 114 123 124
usemtl APPID_1761369136_1410673721952 
o vid_15 
f 127 126 125
f 128 129 130
f 125 130 129
f 125 129 127
f 127 129 128
f 128 126 127
f 126 128 130
f 130 125 126
usemtl APPID_1761363312_1410673720032 
o vid_16 
f 131 140 141
f 132 141 142
f 133 142 143
f 134 143 144
f 135 144 145
f 136 145 146
f 137 146 147
f 131 141 132
f 132 142 133
f 133 143 134
f 134 144 135
f 135 145 136
f 136 146 137
f 137 147 138
f 138 147 148
usemtl APPID_1761369136_1410673721952 
o vid_17 
f 151 150 149
f 152 153 154
f 149 154 153
f 149 153 151
f 151 153 152
f 152 150 151
f 150 152 154
f 154 149 150
usemtl APPID_1761363312_1410673720032 
o vid_18 
f 155 165 166
f 156 166 167
f 157 167 168
f 158 168 169
f 159 169 170
f 160 170 171
f 161 171 172
f 162 172 173
f 155 166 156
f 156 167 157
f 157 168 158
f 158 169 159
f 159 170 160
f 160 171 161
f 161 172 162
f 162 173 163
f 163 173 174
usemtl APPID_1761369136_1410673721952 
o vid_19 
f 177 176 175
f 178 179 180
f 175 180 179
f 175 179 177
f 177 179 178
f 178 176 177
f 176 178 180
f 180 175 176
usemtl APPID_1761363312_1410673720032 
o vid_20 
f 181 189 190
f 182 190 191
f 183 191 192
f 184 192 193
f 185 193 194
f 186 194 195
f 181 190 182
f 182 191 183
f 183 192 184
f 184 193 185
f 185 194 186
f 186 195 187
f 187 195 196
usemtl APPID_1761369136_1410673721952 
o vid_21 
f 199 198 197
f 200 201 202
f 197 202 201
f 197 201 199
f 199 201 200
f 200 198 199
f 198 200 202
f 202 197 198
usemtl APPID_1761363312_1410673720032 
o vid_22 
f 203 209 210
f 204 210 211
f 205 211 212
f 206 212 213
f 203 210 204
f 204 211 205
f 205 212 206
f 206 213 207
f 207 213 214
usemtl APPID_1761369136_1410673721952 
o vid_23 
f 217 216 215
f 218 219 220
f 215 220 219
f 215 219 217
f 217 219 218
f 218 216 217
f 216 218 220
f 220 215 216
usemtl APPID_1761363312_1410673720032 
o vid_24 
f 221 228 229
f 222 229 230
f 223 230 231
f 224 231 232
f 225 232 233
f 221 229 222
f 222 230 223
f 223 231 224
f 224 232 225
f 225 233 226
f 226 233 234
usemtl APPID_1761369136_1410673721952 
o vid_25 
f 237 236 235
f 238 239 240
f 235 240 239
f 235 239 237
f 237 239 238
f 238 236 237
f 236 238 240
f 240 235 236
usemtl APPID_1761363312_1410673720032 
o vid_26 
f 241 245 246
f 242 246 247
f 241 246 242
f 242 247 243
f 243 247 248
