# File generated by PlantGL - Fri Sep  4 14:43:21 2026
v    19.128810 19.575615 0.000000
v    20.803123 19.457720 0.000000
v    20.068067 20.966665 0.000000
v    20.871190 20.424385 0.214398
v    19.196877 20.542280 0.214398
v    19.931933 19.033335 0.214398
v    20.128476 20.325811 -2.243221
v    20.908882 20.442746 -1.527006
v    20.335743 19.900326 -2.243221
v    20.908882 20.442746 -1.527006
v    20.493584 20.395387 0.214398
v    19.410793 20.229763 0.214398
v    20.095623 19.374850 0.214398
v    19.506416 19.604613 0.241000
v    20.589207 19.770237 0.241000
v    19.904377 20.625150 0.241000
v    19.850430 19.708168 -4.746959
v    19.595593 19.676048 -4.199639
v    19.682559 19.917731 -4.746959
v    19.595593 19.676048 -4.199639
mtllib usm_34_2.5D_2018-07-10_0.mtl
usemtl APPID_3111201424_1493461341280 
o vid_3 
f 3 2 1
f 4 5 6
f 1 6 5
f 1 5 3
f 3 5 4
f 4 2 3
f 2 4 6
f 6 1 2
usemtl APPID_3111198064_1493461346656 
o vid_4 
f 7 9 10
f 7 10 8
f 7 9 10
usemtl APPID_3111201424_1493461341280 
o vid_5 
f 13 12 11
f 14 15 16
f 11 16 15
f 11 15 13
f 13 15 14
f 14 12 13
f 12 14 16
f 16 11 12
usemtl APPID_3111198064_1493461346656 
o vid_6 
f 17 19 20
f 17 20 18
f 17 19 20
