# File generated by PlantGL - Fri Sep  4 14:43:23 2026
v    138.201987 19.124129 0.000000
v    141.657533 18.880811 0.000000
v    140.140480 21.995060 0.000000
v    141.798013 20.875871 0.331061
v    138.342467 21.119189 0.331061
v    139.859520 18.004940 0.331061
v    141.368313 21.462224 -0.116704
v    141.894187 21.661979 0.416312
v    142.663877 21.932997 1.187561
v    143.524744 22.252064 1.763050
v    144.188297 22.475716 2.200489
v    144.707259 22.660022 2.339091
v    146.114147 22.978401 2.694730
v    141.994838 20.176077 -0.116704
v    142.476289 20.467023 0.416312
v    143.164149 20.906025 1.187561
v    143.946046 21.387203 1.763050
v    144.531183 21.771828 2.200489
v    144.996210 22.066856 2.339091
v    146.114147 22.978401 2.694730
v    141.503548 21.204422 0.331061
v    138.205166 20.699900 0.331061
v    140.291286 18.095678 0.331061
v    138.496452 18.795578 0.771522
v    141.794834 19.300100 0.771522
v    139.708714 21.904322 0.771522
v    139.330152 18.037259 0.161062
v    137.765678 17.000822 1.939229
v    137.361516 16.725491 2.246339
v    135.925729 15.790913 3.320202
v    135.130931 15.259373 3.561468
v    133.573209 14.275515 4.025155
v    132.855691 13.933651 4.221112
v    131.789746 13.423149 3.976805
v    137.938379 19.774688 0.161062
v    136.585468 18.474145 1.939229
v    136.228563 18.139821 2.246339
v    135.003142 16.942630 3.320202
v    134.310945 16.283007 3.561468
v    133.010820 14.977577 4.025155
v    132.520593 14.351973 4.221112
v    131.789746 13.423149 3.976805
v    138.348018 19.358146 0.771522
v    141.381853 18.890269 0.771522
v    140.270129 21.751585 0.771522
v    141.651982 20.641854 1.487405
v    138.618147 21.109731 1.487405
v    139.729871 18.248415 1.487405
v    140.907347 21.908734 0.674026
v    143.310201 22.600472 3.043261
v    146.135760 23.394267 4.883274
v    146.895737 23.616643 5.083079
v    149.268985 24.244252 5.700897
v    150.806269 24.460631 6.083650
v    151.872498 24.612891 5.861014
v    141.958015 19.204561 0.674026
v    144.197578 20.316570 3.043261
v    146.817868 21.638682 4.883274
v    147.528625 21.987739 5.083079
v    149.703053 23.127065 5.700897
v    150.983164 24.005345 6.083650
v    151.872498 24.612891 5.861014
v    141.385688 20.327792 1.487405
v    139.023280 21.036144 1.487405
v    139.591033 18.636063 1.487405
v    138.614312 19.672208 2.987040
v    140.976720 18.963856 2.987040
v    140.408967 21.363937 2.987040
v    139.386909 17.737026 1.927890
v    136.163704 17.276218 5.013017
v    133.664888 16.885957 6.601276
v    132.387828 16.713900 7.409011
v    128.840433 16.190953 8.313792
v    126.243630 15.877215 8.972093
v    122.220395 15.794132 8.137083
v    138.437986 21.748440 1.927890
v    135.349936 20.716284 5.013017
v    132.941109 19.945614 6.601276
v    131.722311 19.527261 7.409011
v    128.316591 18.405409 8.313792
v    125.854446 17.522424 8.972093
v    122.220395 15.794132 8.137083
v    139.276267 19.173553 2.987040
v    141.077590 19.786453 2.987040
v    139.646142 21.039994 2.987040
v    140.723733 20.826447 4.897980
v    138.922410 20.213547 4.897980
v    140.353858 18.960006 4.897980
v    138.338984 22.396566 3.550098
v    139.132100 23.152682 4.588406
v    141.338546 25.255179 7.476249
v    144.810058 28.649815 10.525406
v    150.284902 33.942398 12.447298
v    153.312966 36.709768 11.705729
v    156.870236 39.264509 10.800423
v    142.594769 18.669708 3.550098
v    143.239631 19.555652 4.588406
v    145.032629 22.020212 7.476249
v    147.939557 25.909263 10.525406
v    152.463520 32.034547 12.447298
v    154.807176 35.401265 11.705729
v    156.870236 39.264509 10.800423
v    140.671031 20.428434 4.897980
v    139.293449 20.366913 4.897980
v    140.035519 19.204653 4.897980
v    139.328969 19.571566 11.221167
v    140.706551 19.633087 11.221167
v    139.964481 20.795347 11.221167
v    141.747886 16.684028 9.544778
v    138.388897 14.943036 13.129698
v    137.172410 14.312893 14.427816
v    131.846677 11.466261 18.220117
v    127.728339 9.212801 19.406359
v    123.207012 6.845685 20.694114
v    120.610440 5.483714 20.074068
v    116.029804 3.230319 18.997287
v    112.955027 2.144432 18.323230
v    111.108737 1.553753 17.216165
v    137.727455 22.980992 9.544778
v    134.734614 20.666522 13.129698
v    133.651069 19.828160 14.427816
v    128.827621 16.194830 18.220117
v    125.050354 13.407171 19.406359
v    121.000401 10.301769 20.694114
v    118.672223 8.519429 20.074068
v    114.700474 5.312370 18.997287
v    112.421512 2.980047 18.323230
v    111.108737 1.553753 17.216165
v    139.580771 19.697944 11.221167
v    140.471203 19.787965 11.221167
v    139.948027 20.514091 11.221167
v    140.419229 20.302056 13.280000
v    139.528797 20.212035 13.280000
v    140.051973 19.485909 13.280000
v    138.345937 22.651162 9.139817
v    138.847095 22.896954 10.455610
v    141.446892 24.030716 17.083879
v    142.866571 24.763275 19.420869
v    145.886571 26.155683 24.248754
v    151.317114 28.154007 28.594848
v    141.991239 17.591774 9.139817
v    142.383032 17.989355 10.455610
v    144.281453 20.096570 17.083879
v    145.425739 21.211354 19.420869
v    147.702521 23.635290 24.248754
v    151.317114 28.154007 28.594848
mtllib usm_33_2.5D_2018-08-12_3.mtl
usemtl APPID_4047068864_2409227567584 
o vid_3 
f 3 2 1
f 4 5 6
f 1 6 5
f 1 5 3
f 3 5 4
f 4 2 3
f 2 4 6
f 6 1 2
usemtl APPID_4047068080_2409227575264 
o vid_4 
f 7 14 15
f 8 15 16
f 9 16 17
f 10 17 18
f 11 18 19
f 7 15 8
f 8 16 9
f 9 17 10
f 10 18 11
f 11 19 12
f 12 19 20
usemtl APPID_4047068864_2409227567584 
o vid_5 
f 23 22 21
f 24 25 26
f 21 26 25
f 21 25 23
f 23 25 24
f 24 22 23
f 22 24 26
f 26 21 22
usemtl APPID_4047068080_2409227575264 
o vid_6 
f 27 35 36
f 28 36 37
f 29 37 38
f 30 38 39
f 31 39 40
f 32 40 41
f 27 36 28
f 28 37 29
f 29 38 30
f 30 39 31
f 31 40 32
f 32 41 33
f 33 41 42
usemtl APPID_4047068864_2409227567584 
o vid_7 
f 45 44 43
f 46 47 48
f 43 48 47
f 43 47 45
f 45 47 46
f 46 44 45
f 44 46 48
f 48 43 44
usemtl APPID_4047068080_2409227575264 
o vid_8 
f 49 56 57
f 50 57 58
f 51 58 59
f 52 59 60
f 53 60 61
f 49 57 50
f 50 58 51
f 51 59 52
f 52 60 53
f 53 61 54
f 54 61 62
usemtl APPID_4047068864_2409227567584 
o vid_9 
f 65 64 63
f 66 67 68
f 63 68 67
f 63 67 65
f 65 67 66
f 66 64 65
f 64 66 68
f 68 63 64
usemtl APPID_4047068080_2409227575264 
o vid_10 
f 69 76 77
f 70 77 78
f 71 78 79
f 72 79 80
f 73 80 81
f 69 77 70
f 70 78 71
f 71 79 72
f 72 80 73
f 73 81 74
f 74 81 82
usemtl APPID_4047068864_2409227567584 
o vid_11 
f 85 84 83
f 86 87 88
f 83 88 87
f 83 87 85
f 85 87 86
f 86 84 85
f 84 86 88
f 88 83 84
usemtl APPID_4047068080_2409227575264 
o vid_12 
f 89 96 97
f 90 97 98
f 91 98 99
f 92 99 100
f 93 100 101
f 89 97 90
f 90 98 91
f 91 99 92
f 92 100 93
f 93 101 94
f 94 101 102
usemtl APPID_4047068864_2409227567584 
o vid_13 
f 105 104 103
f 106 107 108
f 103 108 107
f 103 107 105
f 105 107 106
f 106 104 105
f 104 106 108
f 108 103 104
usemtl APPID_4047068080_2409227575264 
o vid_14 
f 109 119 120
f 110 120 121
f 111 121 122
f 112 122 123
f 113 123 124
f 114 124 125
f 115 125 126
f 116 126 127
f 109 120 110
f 110 121 111
f 111 122 112
f 112 123 113
f 113 124 114
f 114 125 115
f 115 126 116
f 116 127 117
f 117 127 128
usemtl APPID_4047068864_2409227567584 
o vid_15 
f 131 130 129
f 132 133 134
f 129 134 133
f 129 133 131
f 131 133 132
f 132 130 131
f 130 132 134
f 134 129 130
usemtl APPID_4047068080_2409227575264 
o vid_16 
f 135 141 142
f 136 142 143
f 137 143 144
f 138 144 145
f 135 142 136
f 136 143 137
f 137 144 138
f 138 145 139
f 139 145 146
