# File generated by PlantGL - Fri Sep  4 14:44:40 2026
v    138.201987 19.124129 0.000000
v    141.657533 18.880811 0.000000
v    140.140480 21.995060 0.000000
v    141.798013 20.875871 0.231332
v    138.342467 21.119189 0.231332
v    139.859520 18.004940 0.231332
v    141.002052 20.847619 -2.285310
v    141.532329 20.927075 -1.798650
v    141.285116 20.266536 -2.285310
v    141.674557 20.635104 -1.798650
v    141.503548 21.204422 0.231332
v    138.205166 20.699900 0.231332
v    140.291286 18.095678 0.231332
v    138.496452 18.795578 0.322458
v    141.794834 19.300100 0.322458
v    139.708714 21.904322 0.322458
v    139.324590 18.926116 -2.194185
v    138.581560 18.637225 -1.470620
v    138.804592 19.575259 -2.194185
v    138.360492 18.913196 -1.470620
v    138.272844 19.328938 0.322458
v    141.444735 18.839770 0.322458
v    140.282421 21.831292 0.322458
v    141.727156 20.671062 0.466406
v    138.555265 21.160230 0.466406
v    139.717579 18.168708 0.466406
v    140.839020 20.946903 -2.050236
v    142.111292 21.031016 -0.892982
v    141.258230 19.867954 -2.050236
v    142.253549 20.664881 -0.892982
v    141.731622 20.409625 0.466406
v    138.779443 21.294816 0.466406
v    139.488935 18.295559 0.466406
v    138.268378 19.590375 0.678771
v    141.220557 18.705184 0.678771
v    140.511065 21.704441 0.678771
v    139.165742 18.959120 -1.837872
v    137.136073 19.106085 0.009109
v    138.787807 20.556780 -1.837872
v    137.039101 19.516019 0.009109
v    138.876148 18.716648 0.678771
v    141.673341 19.668392 0.678771
v    139.450510 21.614960 0.678771
v    141.123852 21.283352 0.903326
v    138.326659 20.331608 0.903326
v    140.549490 18.385040 0.903326
v    139.698993 21.563508 -1.613316
v    142.605981 23.333792 1.475841
v    141.589554 19.907913 -1.613316
v    142.960814 23.023059 1.475841
v    141.375838 20.878433 0.903326
v    138.551335 20.752294 0.903326
v    140.072827 18.369272 0.903326
v    138.624162 19.121567 1.432322
v    141.448665 19.247706 1.432322
v    139.927173 21.630728 1.432322
v    140.183115 18.032581 -1.084320
v    135.396160 16.740369 3.415907
v    138.292317 20.994026 -1.084320
v    135.105682 17.195328 3.415907
v    138.735263 19.088754 1.432322
v    141.421531 19.360328 1.432322
v    139.843206 21.550918 1.432322
v    141.264737 20.911246 2.225063
v    138.578469 20.639672 2.225063
v    140.156794 18.449082 2.225063
v    139.387179 22.271886 -0.291579
v    141.461881 23.338630 1.903192
v    146.401776 24.974484 6.626154
v    141.961070 18.699530 -0.291579
v    143.629702 20.329867 1.903192
v    146.745151 24.497908 6.626154
v    141.244614 20.810576 2.225063
v    138.675713 20.672580 2.225063
v    140.079672 18.516844 2.225063
v    138.755386 19.189424 3.118961
v    141.324287 19.327420 3.118961
v    139.920328 21.483156 3.118961
v    140.651398 17.612040 0.602319
v    137.581592 16.212223 3.776478
v    133.171343 14.978835 7.932872
v    132.458363 14.747031 8.388872
v    138.079351 21.561339 0.602319
v    135.557800 19.319692 3.776478
v    132.646462 15.784774 7.932872
v    132.146161 15.226408 8.388872
v    138.765415 19.315252 3.118961
v    141.210302 19.273192 3.118961
v    140.024283 21.411556 3.118961
v    141.234585 20.684748 4.387400
v    138.789698 20.726808 4.387400
v    139.975717 18.588444 4.387400
v    139.282507 22.703470 1.870758
v    144.697639 24.725785 7.309353
v    146.739864 25.143655 9.201311
v    150.351000 26.040663 11.464459
v    141.913487 17.959874 1.870758
v    146.496315 21.482813 7.309353
v    147.932143 22.994005 9.201311
v    150.605155 25.582428 11.464459
v    141.293262 20.344016 4.387400
v    139.055443 20.947990 4.387400
v    139.651295 18.707994 4.387400
v    138.706738 19.655984 6.196782
v    140.944557 19.052010 6.196782
v    140.348705 21.292006 6.196782
v    140.163714 17.010502 3.680139
v    138.196492 16.722755 5.559235
v    132.526794 16.093411 10.926037
v    126.285585 16.115638 14.750123
v    138.656729 22.675728 3.680139
v    136.806539 21.948020 5.559235
v    131.573493 19.677168 10.926037
v    126.168206 16.556901 14.750123
v    138.831935 19.515124 6.196782
v    141.003948 19.230864 6.196782
v    140.164118 21.254012 6.196782
v    141.168065 20.484876 8.792898
v    138.996052 20.769136 8.792898
v    139.835882 18.745988 8.792898
v    139.326671 23.022082 6.276255
v    142.230506 23.853068 9.130969
v    146.847045 25.002539 13.606809
v    147.911240 25.291637 14.295713
v    154.206247 26.118084 18.157378
v    141.664816 17.389494 6.276255
v    144.303487 18.859260 9.130969
v    148.376915 21.317085 13.606809
v    149.332998 21.866625 14.295713
v    154.362702 25.741183 18.157378
v    140.919824 20.756852 8.792898
v    138.884635 20.418165 8.792898
v    140.195542 18.824983 8.792898
v    139.080176 19.243148 12.654445
v    141.115365 19.581835 12.654445
v    139.804458 21.175017 12.654445
v    141.717250 17.183922 10.137803
v    137.593276 14.518662 14.778723
v    135.139816 13.051096 17.468356
v    132.332881 11.290129 19.538378
v    126.907454 8.830888 23.161463
v    126.392161 8.577027 23.303090
v    137.567340 22.227423 10.137803
v    134.157781 18.693915 14.778723
v    132.245201 16.569002 17.468356
v    129.976641 14.153734 19.538378
v    126.518611 9.303459 23.161463
v    126.170267 8.846700 23.303090
v    139.227775 19.192038 12.654445
v    141.085829 19.735214 12.654445
v    139.686397 21.072748 12.654445
v    140.772225 20.807962 18.205182
v    138.914171 20.264786 18.205182
v    140.313603 18.927252 18.205182
v    137.604089 22.829006 15.688539
v    143.569727 27.785498 23.019092
v    149.471108 32.592995 27.776480
v    150.786594 33.390657 28.712200
v    155.572423 36.507480 30.120316
v    142.934429 17.734433 15.688539
v    147.616157 23.918046 23.019092
v    152.151948 30.030731 27.776480
v    152.889324 31.380933 28.712200
v    155.786601 36.302775 30.120316
v    140.731259 20.745280 18.205182
v    138.988939 20.260648 18.205182
v    140.279802 18.994071 18.205182
v    139.268741 19.254720 24.472570
v    141.011061 19.739352 24.472570
v    139.720198 21.005929 24.472570
v    142.522432 17.082077 21.955928
v    141.603525 16.300820 23.098770
v    136.513498 12.183455 29.286481
v    134.308601 10.339335 31.088265
v    129.413355 6.487380 34.979589
v    122.696901 2.171351 36.951155
v    137.034701 22.466564 21.955928
v    136.271035 21.532986 23.098770
v    132.251076 16.365685 29.286481
v    130.449161 14.126165 31.088265
v    126.690865 9.158650 34.979589
v    122.503165 2.361442 36.951155
v    139.349705 19.279474 24.472570
v    140.949141 19.797091 24.472570
v    139.701154 20.923435 24.472570
v    140.650295 20.720526 33.239147
v    139.050859 20.202909 33.239147
v    140.298846 19.076565 33.239147
v    137.559462 22.529508 30.722505
v    142.824032 27.164068 37.351663
v    147.785610 31.393882 41.660412
v    150.665880 33.254957 43.746166
v    153.633289 35.310600 44.636180
v    142.765679 17.830747 30.722505
v    146.837953 23.541389 37.351663
v    150.538564 28.909261 41.660412
v    152.095541 31.964646 43.746166
v    153.837162 35.126599 44.636180
v    140.880529 20.171415 33.239147
v    139.411286 20.676853 33.239147
v    139.708185 19.151732 33.239147
v    139.119471 19.828585 46.446943
v    140.588714 19.323147 46.446943
v    140.291815 20.848268 46.446943
v    140.386765 17.128254 43.930301
v    138.738813 17.000243 45.492546
v    133.039525 16.755985 50.859349
v    126.651977 17.226522 54.887630
v    139.281244 22.807116 43.930301
v    137.705617 22.307584 45.492546
v    132.330906 20.396034 50.859349
v    126.586337 17.563701 54.887630
v    139.364741 19.475932 46.446943
v    140.771485 19.711884 46.446943
v    139.863773 20.812184 46.446943
v    140.635259 20.524068 60.787063
v    139.228515 20.288116 60.787063
v    140.136227 19.187816 60.787063
v    138.537076 21.923510 58.270420
v    141.765668 23.860335 61.812510
v    145.633871 25.428776 65.600973
v    147.076935 26.085112 66.565206
v    141.610386 18.198141 58.270420
v    144.125565 20.999744 61.812510
v    146.400645 24.499317 65.600973
v    147.319301 25.791323 66.565206
v    140.599732 20.450357 60.787063
v    139.310113 20.294205 60.787063
v    140.090155 19.255438 60.787063
v    139.400268 19.549643 88.267000
v    140.689887 19.705795 88.267000
v    139.909845 20.744562 88.267000
v    141.698117 17.701923 85.750358
v    140.538418 17.023446 87.020246
v    135.517697 14.315327 92.387048
v    134.796850 14.060720 93.080911
v    129.540777 11.954234 96.524994
v    138.266614 22.271592 85.750358
v    137.291659 21.347093 87.020246
v    133.290902 17.280708 92.387048
v    132.845381 16.659454 93.080911
v    129.356761 12.199284 96.524994
v    141.532329 20.927075 -1.798650
v    142.067849 21.007317 -1.307178
v    141.674557 20.635104 -1.798650
v    142.067849 21.007317 -1.307178
v    138.581560 18.637225 -1.470620
v    138.032069 18.423583 -0.935525
v    138.360492 18.913196 -1.470620
v    138.032069 18.423583 -0.935525
v    142.111292 21.031016 -0.892982
v    142.764792 21.074221 -0.298561
v    142.253549 20.664881 -0.892982
v    142.764792 21.074221 -0.298561
v    137.136073 19.106085 0.009109
v    136.435551 19.156809 0.646578
v    137.039101 19.516019 0.009109
v    136.435551 19.156809 0.646578
v    142.605981 23.333792 1.475841
v    143.277646 23.742819 2.189597
v    142.960814 23.023059 1.475841
v    143.277646 23.742819 2.189597
v    135.396160 16.740369 3.415907
v    134.527268 16.505817 4.232754
v    135.105682 17.195328 3.415907
v    134.527268 16.505817 4.232754
v    146.401776 24.974484 6.626154
v    146.833558 25.117469 7.038974
v    147.399670 25.331479 7.407083
v    146.745151 24.497908 6.626154
v    147.017463 24.862224 7.038974
v    147.399670 25.331479 7.407083
v    132.458363 14.747031 8.388872
v    131.411742 14.406754 9.058257
v    132.146161 15.226408 8.388872
v    131.411742 14.406754 9.058257
v    150.351000 26.040663 11.464459
v    151.329323 26.283679 12.077587
v    150.605155 25.582428 11.464459
v    151.329323 26.283679 12.077587
v    126.285585 16.115638 14.750123
v    125.407178 16.118219 15.284399
v    126.168206 16.556901 14.750123
v    125.407178 16.118219 15.284399
v    154.206247 26.118084 18.157378
v    154.984628 26.220275 18.634875
v    154.362702 25.741183 18.157378
v    154.984628 26.220275 18.634875
v    126.392161 8.577027 23.303090
v    125.707278 8.239616 23.491327
v    126.170267 8.846700 23.303090
v    125.707278 8.239616 23.491327
v    155.572423 36.507480 30.120316
v    156.115177 36.860954 30.280008
v    155.786601 36.302775 30.120316
v    156.115177 36.860954 30.280008
v    122.696901 2.171351 36.951155
v    122.195469 1.854075 37.097452
v    122.503165 2.361442 36.951155
v    122.195469 1.854075 37.097452
v    153.633289 35.310600 44.636180
v    154.126828 35.652494 44.784207
v    153.837162 35.126599 44.636180
v    154.126828 35.652494 44.784207
v    126.651977 17.226522 54.887630
v    125.992793 17.273175 55.289568
v    126.586337 17.563701 54.887630
v    125.992793 17.273175 55.289568
v    147.076935 26.085112 66.565206
v    147.743877 26.388452 67.010847
v    147.319301 25.791323 66.565206
v    147.743877 26.388452 67.010847
v    129.540777 11.954234 96.524994
v    128.993549 11.734920 96.883570
v    129.356761 12.199284 96.524994
v    128.993549 11.734920 96.883570
mtllib usm_28_2.5D_2018-09-28_3.mtl
usemtl APPID_3773868736_1876378563568 
o vid_3 
f 3 2 1
f 4 5 6
f 1 6 5
f 1 5 3
f 3 5 4
f 4 2 3
f 2 4 6
f 6 1 2
usemtl APPID_3773867392_1876378568304 
o vid_4 
f 7 9 10
f 7 10 8
f 7 9 10
f 7 10 8
usemtl APPID_3773868736_1876378563568 
o vid_5 
f 13 12 11
f 14 15 16
f 11 16 15
f 11 15 13
f 13 15 14
f 14 12 13
f 12 14 16
f 16 11 12
usemtl APPID_3773867392_1876378568304 
o vid_6 
f 17 19 20
f 17 20 18
f 17 19 20
f 17 20 18
usemtl APPID_3773868736_1876378563568 
o vid_7 
f 23 22 21
f 24 25 26
f 21 26 25
f 21 25 23
f 23 25 24
f 24 22 23
f 22 24 26
f 26 21 22
usemtl APPID_3773867392_1876378568304 
o vid_8 
f 27 29 30
f 27 30 28
f 27 29 30
f 27 30 28
usemtl APPID_3773868736_1876378563568 
o vid_9 
f 33 32 31
f 34 35 36
f 31 36 35
f 31 35 33
f 33 35 34
f 34 32 33
f 32 34 36
f 36 31 32
usemtl APPID_3773867392_1876378568304 
o vid_10 
f 37 39 40
f 37 40 38
f 37 39 40
f 37 40 38
usemtl APPID_3773868736_1876378563568 
o vid_11 
f 43 42 41
f 44 45 46
f 41 46 45
f 41 45 43
f 43 45 44
f 44 42 43
f 42 44 46
f 46 41 42
usemtl APPID_3773867392_1876378568304 
o vid_12 
f 47 49 50
f 47 50 48
f 47 49 50
f 47 50 48
usemtl APPID_3773868736_1876378563568 
o vid_13 
f 53 52 51
f 54 55 56
f 51 56 55
f 51 55 53
f 53 55 54
f 54 52 53
f 52 54 56
f 56 51 52
usemtl APPID_3773867392_1876378568304 
o vid_14 
f 57 59 60
f 57 60 58
f 57 59 60
f 57 60 58
usemtl APPID_3773868736_1876378563568 
o vid_15 
f 63 62 61
f 64 65 66
f 61 66 65
f 61 65 63
f 63 65 64
f 64 62 63
f 62 64 66
f 66 61 62
usemtl APPID_3773867392_1876378568304 
o vid_16 
f 67 70 71
f 67 71 68
f 68 71 72
f 68 72 69
usemtl APPID_3773868736_1876378563568 
o vid_17 
f 75 74 73
f 76 77 78
f 73 78 77
f 73 77 75
f 75 77 76
f 76 74 75
f 74 76 78
f 78 73 74
usemtl APPID_3773867392_1876378568304 
o vid_18 
f 79 83 84
f 80 84 85
f 79 84 80
f 80 85 81
f 81 85 86
f 81 86 82
usemtl APPID_3773868736_1876378563568 
o vid_19 
f 89 88 87
f 90 91 92
f 87 92 91
f 87 91 89
f 89 91 90
f 90 88 89
f 88 90 92
f 92 87 88
usemtl APPID_3773867392_1876378568304 
o vid_20 
f 93 97 98
f 94 98 99
f 93 98 94
f 94 99 95
f 95 99 100
f 95 100 96
usemtl APPID_3773868736_1876378563568 
o vid_21 
f 103 102 101
f 104 105 106
f 101 106 105
f 101 105 103
f 103 105 104
f 104 102 103
f 102 104 106
f 106 101 102
usemtl APPID_3773867392_1876378568304 
o vid_22 
f 107 111 112
f 108 112 113
f 107 112 108
f 108 113 109
f 109 113 114
f 109 114 110
usemtl APPID_3773868736_1876378563568 
o vid_23 
f 117 116 115
f 118 119 120
f 115 120 119
f 115 119 117
f 117 119 118
f 118 116 117
f 116 118 120
f 120 115 116
usemtl APPID_3773867392_1876378568304 
o vid_24 
f 121 126 127
f 122 127 128
f 123 128 129
f 121 127 122
f 122 128 123
f 123 129 124
f 124 129 130
f 124 130 125
usemtl APPID_3773868736_1876378563568 
o vid_25 
f 133 132 131
f 134 135 136
f 131 136 135
f 131 135 133
f 133 135 134
f 134 132 133
f 132 134 136
f 136 131 132
usemtl APPID_3773867392_1876378568304 
o vid_26 
f 137 143 144
f 138 144 145
f 139 145 146
f 140 146 147
f 137 144 138
f 138 145 139
f 139 146 140
f 140 147 141
f 141 147 148
f 141 148 142
usemtl APPID_3773868736_1876378563568 
o vid_27 
f 151 150 149
f 152 153 154
f 149 154 153
f 149 153 151
f 151 153 152
f 152 150 151
f 150 152 154
f 154 149 150
usemtl APPID_3773867392_1876378568304 
o vid_28 
f 155 160 161
f 156 161 162
f 157 162 163
f 155 161 156
f 156 162 157
f 157 163 158
f 158 163 164
f 158 164 159
usemtl APPID_3773868736_1876378563568 
o vid_29 
f 167 166 165
f 168 169 170
f 165 170 169
f 165 169 167
f 167 169 168
f 168 166 167
f 166 168 170
f 170 165 166
usemtl APPID_3773867392_1876378568304 
o vid_30 
f 171 177 178
f 172 178 179
f 173 179 180
f 174 180 181
f 171 178 172
f 172 179 173
f 173 180 174
f 174 181 175
f 175 181 182
f 175 182 176
usemtl APPID_3773868736_1876378563568 
o vid_31 
f 185 184 183
f 186 187 188
f 183 188 187
f 183 187 185
f 185 187 186
f 186 184 185
f 184 186 188
f 188 183 184
usemtl APPID_3773867392_1876378568304 
o vid_32 
f 189 194 195
f 190 195 196
f 191 196 197
f 189 195 190
f 190 196 191
f 191 197 192
f 192 197 198
f 192 198 193
usemtl APPID_3773868736_1876378563568 
o vid_33 
f 201 200 199
f 202 203 204
f 199 204 203
f 199 203 201
f 201 203 202
f 202 200 201
f 200 202 204
f 204 199 200
usemtl APPID_3773867392_1876378568304 
o vid_34 
f 205 209 210
f 206 210 211
f 205 210 206
f 206 211 207
f 207 211 212
f 207 212 208
usemtl APPID_3773868736_1876378563568 
o vid_35 
f 215 214 213
f 216 217 218
f 213 218 217
f 213 217 215
f 215 217 216
f 216 214 215
f 214 216 218
f 218 213 214
usemtl APPID_3773867392_1876378568304 
o vid_36 
f 219 223 224
f 220 224 225
f 219 224 220
f 220 225 221
f 221 225 226
f 221 226 222
usemtl APPID_3773868736_1876378563568 
o vid_37 
f 229 228 227
f 230 231 232
f 227 232 231
f 227 231 229
f 229 231 230
f 230 228 229
f 228 230 232
f 232 227 228
usemtl APPID_3773867392_1876378568304 
o vid_38 
f 233 238 239
f 234 239 240
f 235 240 241
f 233 239 234
f 234 240 235
f 235 241 236
f 236 241 242
f 236 242 237
usemtl APPID_3773870416_1876378570992 
o vid_10000004 
f 243 245 246
f 243 246 244
f 243 245 246
usemtl APPID_3773870416_1876378570992 
o vid_10000006 
f 247 249 250
f 247 250 248
f 247 249 250
usemtl APPID_3773870416_1876378570992 
o vid_10000008 
f 251 253 254
f 251 254 252
f 251 253 254
usemtl APPID_3773870416_1876378570992 
o vid_10000010 
f 255 257 258
f 255 258 256
f 255 257 258
usemtl APPID_3773870416_1876378570992 
o vid_10000012 
f 259 261 262
f 259 262 260
f 259 261 262
usemtl APPID_3773870416_1876378570992 
o vid_10000014 
f 263 265 266
f 263 266 264
f 263 265 266
usemtl APPID_3773870416_1876378570992 
o vid_10000016 
f 267 270 271
f 267 271 268
f 268 271 272
usemtl APPID_3773870416_1876378570992 
o vid_10000018 
f 273 275 276
f 273 276 274
f 273 275 276
usemtl APPID_3773870416_1876378570992 
o vid_10000020 
f 277 279 280
f 277 280 278
f 277 279 280
usemtl APPID_3773870416_1876378570992 
o vid_10000022 
f 281 283 284
f 281 284 282
f 281 283 284
usemtl APPID_3773870416_1876378570992 
o vid_10000024 
f 285 287 288
f 285 288 286
f 285 287 288
usemtl APPID_3773870416_1876378570992 
o vid_10000026 
f 289 291 292
f 289 292 290
f 289 291 292
usemtl APPID_3773870416_1876378570992 
o vid_10000028 
f 293 295 296
f 293 296 294
f 293 295 296
usemtl APPID_3773870416_1876378570992 
o vid_10000030 
f 297 299 300
f 297 300 298
f 297 299 300
usemtl APPID_3773870416_1876378570992 
o vid_10000032 
f 301 303 304
f 301 304 302
f 301 303 304
usemtl APPID_3773870416_1876378570992 
o vid_10000034 
f 305 307 308
f 305 308 306
f 305 307 308
usemtl APPID_3773870416_1876378570992 
o vid_10000036 
f 309 311 312
f 309 312 310
f 309 311 312
usemtl APPID_3773870416_1876378570992 
o vid_10000038 
f 313 315 316
f 313 316 314
f 313 315 316
