# File generated by PlantGL - Fri Sep  4 14:42:15 2026
v    18.201987 19.124129 0.000000
v    21.657533 18.880811 0.000000
v    20.140480 21.995060 0.000000
v    21.798013 20.875871 0.331061
v    18.342467 21.119189 0.331061
v    19.859520 18.004940 0.331061
v    21.383011 21.452572 -0.085637
v    22.230290 21.774414 0.773151
v    22.584556 21.899155 1.128134
v    23.805267 22.351593 1.944180
v    24.964051 22.759653 2.328973
v    26.273324 23.055942 2.659937
v    21.996298 20.193600 -0.085637
v    22.772004 20.662368 0.773151
v    23.088606 20.864428 1.128134
v    24.197338 21.546739 1.944180
v    25.232953 22.207642 2.328973
v    26.273324 23.055942 2.659937
v    21.503548 21.204422 0.331061
v    18.205166 20.699900 0.331061
v    20.291286 18.095678 0.331061
v    18.496452 18.795578 0.718770
v    21.794834 19.300100 0.718770
v    19.708714 21.904322 0.718770
v    19.285308 18.076928 0.143568
v    17.811194 17.100353 1.819033
v    17.373791 16.802376 2.151401
v    16.078418 15.959196 3.120245
v    15.264277 15.414720 3.367383
v    13.796524 14.487688 3.804288
v    13.192971 14.200122 3.969121
v    12.115514 13.684107 3.722176
v    17.967303 19.722267 0.143568
v    16.692533 18.496840 1.819033
v    16.306274 18.135018 2.151401
v    15.200694 17.054908 3.120245
v    14.491651 16.379232 3.367383
v    13.266618 15.149200 3.804288
v    12.854254 14.622962 3.969121
v    12.115514 13.684107 3.722176
v    18.272844 19.328938 0.718770
v    21.444735 18.839770 0.718770
v    20.282421 21.831292 0.718770
v    21.727156 20.671062 1.487000
v    18.555265 21.160230 1.487000
v    19.717579 18.168708 1.487000
v    20.989748 21.949782 0.711738
v    23.279998 22.609103 2.969945
v    24.437159 22.958484 3.729033
v    25.965589 23.385147 4.723730
v    27.777673 23.915378 5.200142
v    30.039705 24.513576 5.789008
v    32.530784 24.868659 5.413822
v    22.046515 19.229915 0.711738
v    24.181127 20.289811 2.969945
v    25.270625 20.813338 3.729033
v    26.686179 21.530519 4.723730
v    28.380902 22.362808 5.200142
v    30.453431 23.448743 5.789008
v    32.530784 24.868659 5.413822
v    21.731622 20.409625 1.487000
v    18.779443 21.294816 1.487000
v    19.488935 18.295559 1.487000
v    18.268378 19.590375 2.857087
v    21.220557 18.705184 2.857087
v    20.511065 21.704441 2.857087
v    19.008159 17.745038 1.836837
v    15.903336 17.301155 4.808653
v    13.742868 16.963736 6.181858
v    12.264930 16.764615 7.116646
v    9.130877 16.302601 7.916002
v    6.344666 15.965979 8.622319
v    2.756504 15.920951 7.879028
v    18.102967 21.571582 1.836837
v    15.128337 20.577336 4.808653
v    13.045671 19.911017 6.181858
v    11.635161 19.426859 7.116646
v    8.626274 18.435724 7.916002
v    5.984544 17.488335 8.622319
v    2.756504 15.920951 7.879028
v    18.898256 18.741893 2.857087
v    21.640425 19.674915 2.857087
v    19.461319 21.583192 2.857087
v    21.101744 21.258107 4.462301
v    18.359575 20.325085 4.462301
v    20.538681 18.416808 4.462301
v    18.788574 22.779734 3.151326
v    19.492769 23.451077 4.073222
v    21.706022 25.560060 6.969974
v    25.082479 28.861746 9.935641
v    30.319599 33.921840 11.773572
v    33.264010 36.612590 11.110145
v    36.723878 39.097379 10.229628
v    22.915269 19.165923 3.151326
v    23.487831 19.952538 4.073222
v    25.286360 22.424701 6.969974
v    28.113693 26.207265 9.935641
v    32.438565 32.066228 11.773572
v    34.717306 35.339915 11.110145
v    36.723878 39.097379 10.229628
v    21.133800 20.723899 4.462301
v    18.806186 20.619950 4.462301
v    20.060015 18.656151 4.462301
v    18.866200 19.276101 11.576758
v    21.193814 19.380050 11.576758
v    19.939985 21.343849 11.576758
v    21.294959 16.356169 9.931963
v    16.872685 14.050897 14.658427
v    11.586835 11.226580 18.443805
v    6.050953 8.197474 20.038353
v    3.126902 6.666603 20.871175
v    -0.945837 4.530342 19.898629
v    -5.440145 2.319416 18.842142
v    -10.084887 0.788387 16.572730
v    -10.095157 0.785101 16.566572
v    17.239440 22.708087 9.931963
v    13.287273 19.666517 14.658427
v    8.500850 16.059975 18.443805
v    3.423438 12.312795 20.038353
v    0.804236 10.304458 20.871175
v    -2.847526 7.508845 19.898629
v    -6.744422 4.362227 18.842142
v    -10.087854 0.793035 16.572730
v    -10.095157 0.785101 16.566572
v    19.155371 19.391443 11.576758
v    20.949340 19.572809 11.576758
v    19.895289 21.035748 11.576758
v    20.844629 20.608557 22.058017
v    19.050660 20.427191 22.058017
v    20.104711 18.964252 22.058017
v    17.581061 24.141121 20.043090
v    21.046111 26.424635 23.987808
v    22.793986 27.458895 25.912231
v    26.533044 29.736960 28.661858
v    28.992677 31.234823 30.470366
v    38.983171 37.453897 33.443971
v    48.249120 43.021390 31.157648
v    53.259373 45.793194 28.803746
v    58.214412 47.533573 24.706592
v    23.162458 16.394586 20.043090
v    26.425401 18.958607 23.987808
v    27.959763 20.289206 25.912231
v    31.304276 23.114870 28.661858
v    33.503706 24.973873 30.470366
v    42.565448 32.481981 33.443971
v    50.779762 39.509058 31.157648
v    54.995019 43.384255 28.803746
v    58.214412 47.533573 24.706592
v    20.636719 20.414674 22.058017
v    19.322523 20.344078 22.058017
v    20.040759 19.241249 22.058017
v    19.363281 19.585326 39.687747
v    20.677477 19.655922 39.687747
v    19.959241 20.758751 39.687747
v    23.017714 15.251476 37.277640
v    20.722952 13.903173 39.807160
v    16.535134 11.684353 44.297873
v    14.304368 10.465351 45.894319
v    8.916035 7.522346 49.749978
v    -1.812011 1.525601 52.855554
v    -12.038520 -3.955324 51.231344
v    -17.684202 -6.796309 49.898220
v    -22.876938 -8.634553 46.735099
v    -24.827045 -9.194362 44.983862
v    16.877182 24.680074 37.277640
v    14.716135 23.126456 39.807160
v    10.993454 20.193432 44.297873
v    8.976543 18.646063 45.894319
v    4.106093 14.907864 49.749978
v    -5.716426 7.520711 52.855554
v    -14.864378 0.383694 51.231344
v    -19.745579 -3.631129 49.898220
v    -23.526519 -7.637142 46.735099
v    -24.827045 -9.194362 44.983862
v    19.561316 19.756689 39.687747
v    20.430055 19.741744 39.687747
v    20.008628 20.501567 39.687747
v    20.438684 20.243311 48.528000
v    19.569945 20.258256 48.528000
v    19.991372 19.498433 48.528000
v    17.608284 23.768363 42.783477
v    19.556868 24.531636 46.473627
v    23.150230 25.793098 53.152540
v    26.913016 27.291924 57.822024
v    30.520122 28.570670 62.209205
v    32.857273 29.502608 63.726600
v    40.667532 31.463010 68.457132
v    21.930365 15.975754 42.783477
v    23.609621 17.224620 46.473627
v    26.582393 19.604990 53.152540
v    29.846234 22.003402 57.822024
v    32.840946 24.386279 62.209205
v    34.869026 25.875466 63.726600
v    40.667532 31.463010 68.457132
mtllib usm_29_Beer_2018-08-23_0.mtl
usemtl APPID_2588961504_1742050273792 
o vid_3 
f 3 2 1
f 4 5 6
f 1 6 5
f 1 5 3
f 3 5 4
f 4 2 3
f 2 4 6
f 6 1 2
usemtl APPID_2588961168_1742050279168 
o vid_4 
f 7 13 14
f 8 14 15
f 9 15 16
f 10 16 17
f 7 14 8
f 8 15 9
f 9 16 10
f 10 17 11
f 11 17 18
usemtl APPID_2588961504_1742050273792 
o vid_5 
f 21 20 19
f 22 23 24
f 19 24 23
f 19 23 21
f 21 23 22
f 22 20 21
f 20 22 24
f 24 19 20
usemtl APPID_2588961168_1742050279168 
o vid_6 
f 25 33 34
f 26 34 35
f 27 35 36
f 28 36 37
f 29 37 38
f 30 38 39
f 25 34 26
f 26 35 27
f 27 36 28
f 28 37 29
f 29 38 30
f 30 39 31
f 31 39 40
usemtl APPID_2588961504_1742050273792 
o vid_7 
f 43 42 41
f 44 45 46
f 41 46 45
f 41 45 43
f 43 45 44
f 44 42 43
f 42 44 46
f 46 41 42
usemtl APPID_2588961168_1742050279168 
o vid_8 
f 47 54 55
f 48 55 56
f 49 56 57
f 50 57 58
f 51 58 59
f 47 55 48
f 48 56 49
f 49 57 50
f 50 58 51
f 51 59 52
f 52 59 60
usemtl APPID_2588961504_1742050273792 
o vid_9 
f 63 62 61
f 64 65 66
f 61 66 65
f 61 65 63
f 63 65 64
f 64 62 63
f 62 64 66
f 66 61 62
usemtl APPID_2588961168_1742050279168 
o vid_10 
f 67 74 75
f 68 75 76
f 69 76 77
f 70 77 78
f 71 78 79
f 67 75 68
f 68 76 69
f 69 77 70
f 70 78 71
f 71 79 72
f 72 79 80
usemtl APPID_2588961504_1742050273792 
o vid_11 
f 83 82 81
f 84 85 86
f 81 86 85
f 81 85 83
f 83 85 84
f 84 82 83
f 82 84 86
f 86 81 82
usemtl APPID_2588961168_1742050279168 
o vid_12 
f 87 94 95
f 88 95 96
f 89 96 97
f 90 97 98
f 91 98 99
f 87 95 88
f 88 96 89
f 89 97 90
f 90 98 91
f 91 99 92
f 92 99 100
usemtl APPID_2588961504_1742050273792 
o vid_13 
f 103 102 101
f 104 105 106
f 101 106 105
f 101 105 103
f 103 105 104
f 104 102 103
f 102 104 106
f 106 101 102
usemtl APPID_2588961168_1742050279168 
o vid_14 
f 107 116 117
f 108 117 118
f 109 118 119
f 110 119 120
f 111 120 121
f 112 121 122
f 113 122 123
f 107 117 108
f 108 118 109
f 109 119 110
f 110 120 111
f 111 121 112
f 112 122 113
f 113 123 114
f 114 123 124
usemtl APPID_2588961504_1742050273792 
o vid_15 
f 127 126 125
f 128 129 130
f 125 130 129
f 125 129 127
f 127 129 128
f 128 126 127
f 126 128 130
f 130 125 126
usemtl APPID_2588961168_1742050279168 
o vid_16 
f 131 140 141
f 132 141 142
f 133 142 143
f 134 143 144
f 135 144 145
f 136 145 146
f 137 146 147
f 131 141 132
f 132 142 133
f 133 143 134
f 134 144 135
f 135 145 136
f 136 146 137
f 137 147 138
f 138 147 148
usemtl APPID_2588961504_1742050273792 
o vid_17 
f 151 150 149
f 152 153 154
f 149 154 153
f 149 153 151
f 151 153 152
f 152 150 151
f 150 152 154
f 154 149 150
usemtl APPID_2588961168_1742050279168 
o vid_18 
f 155 165 166
f 156 166 167
f 157 167 168
f 158 168 169
f 159 169 170
f 160 170 171
f 161 171 172
f 162 172 173
f 155 166 156
f 156 167 157
f 157 168 158
f 158 169 159
f 159 170 160
f 160 171 161
f 161 172 162
f 162 173 163
f 163 173 174
usemtl APPID_2588961504_1742050273792 
o vid_19 
f 177 176 175
f 178 179 180
f 175 180 179
f 175 179 177
f 177 179 178
f 178 176 177
f 176 178 180
f 180 175 176
usemtl APPID_2588961168_1742050279168 
o vid_20 
f 181 188 189
f 182 189 190
f 183 190 191
f 184 191 192
f 185 192 193
f 181 189 182
f 182 190 183
f 183 191 184
f 184 192 185
f 185 193 186
f 186 193 194
