# File generated by PlantGL - Fri Sep  4 14:42:32 2026
v    38.201987 19.124129 0.000000
v    41.657533 18.880811 0.000000
v    40.140480 21.995060 0.000000
v    41.798013 20.875871 0.231332
v    38.342467 21.119189 0.231332
v    39.859520 18.004940 0.231332
v    40.843222 20.693634 -3.012091
v    41.681878 20.819298 -2.242418
v    41.065960 20.236391 -3.012091
v    41.681878 20.819298 -2.242418
v    41.503548 21.204422 0.231332
v    38.205166 20.699900 0.231332
v    40.291286 18.095678 0.231332
v    38.496452 18.795578 0.322957
v    41.794834 19.300100 0.322957
v    39.708714 21.904322 0.322957
v    39.432630 19.127496 -2.920467
v    38.418664 18.733266 -1.933065
v    39.024698 19.636741 -2.920467
v    38.418664 18.733266 -1.933065
v    38.272844 19.328938 0.322957
v    41.444735 18.839770 0.322957
v    40.282421 21.831292 0.322957
v    41.727156 20.671062 0.466906
v    38.555265 21.160230 0.466906
v    39.717579 18.168708 0.466906
v    40.687491 20.756430 -2.776518
v    42.205107 20.856763 -1.396101
v    41.017853 19.906158 -2.776518
v    42.205107 20.856763 -1.396101
v    41.731622 20.409625 0.466906
v    38.779443 21.294816 0.466906
v    39.488935 18.295559 0.466906
v    38.268378 19.590375 0.679271
v    41.220557 18.705184 0.679271
v    40.511065 21.704441 0.679271
v    39.332338 19.168079 -2.564153
v    37.150914 19.326032 -0.579077
v    39.030367 20.444610 -2.564153
v    37.150914 19.326032 -0.579077
v    38.876148 18.716648 0.679271
v    41.673341 19.668392 0.679271
v    39.450510 21.614960 0.679271
v    41.123852 21.283352 0.920461
v    38.326659 20.331608 0.920461
v    40.549490 18.385040 0.920461
v    39.576244 21.391563 -2.322963
v    43.095276 23.534566 1.416592
v    41.435308 19.763551 -2.322963
v    43.095276 23.534566 1.416592
v    41.375838 20.878433 0.920461
v    38.551335 20.752294 0.920461
v    40.072827 18.369272 0.920461
v    38.624162 19.121567 1.433330
v    41.448665 19.247706 1.433330
v    39.927173 21.630728 1.433330
v    40.086787 18.574103 -1.810094
v    36.067253 17.489053 1.968680
v    38.743022 20.678763 -1.810094
v    36.067253 17.489053 1.968680
v    38.735263 19.088754 1.433330
v    41.421531 19.360328 1.433330
v    39.843206 21.550918 1.433330
v    41.264737 20.911246 2.225064
v    38.578469 20.639672 2.225064
v    40.156794 18.449082 2.225064
v    39.197740 22.175192 -1.018359
v    46.269055 24.516869 5.742423
v    41.809382 18.550442 -1.018359
v    46.269055 24.516869 5.742423
v    41.244614 20.810576 2.225064
v    38.675713 20.672580 2.225064
v    40.079672 18.516844 2.225064
v    38.755386 19.189424 3.120959
v    41.324287 19.327420 3.120959
v    39.920328 21.483156 3.120959
v    40.891583 17.628456 -0.122465
v    40.377257 17.393926 0.409345
v    32.703018 15.247718 7.641854
v    38.191484 21.774376 -0.122465
v    37.769015 21.398802 0.409345
v    32.703018 15.247718 7.641854
v    38.765415 19.315252 3.120959
v    41.210302 19.273192 3.120959
v    40.024283 21.411556 3.120959
v    41.234585 20.684748 4.395390
v    38.789698 20.726808 4.395390
v    39.975717 18.588444 4.395390
v    39.018668 22.745740 1.151967
v    42.086397 23.889809 4.232253
v    48.959371 25.296125 10.599511
v    50.026881 25.561295 11.268534
v    41.809645 17.713675 1.151967
v    44.404514 19.710300 4.232253
v    49.236696 24.796115 10.599511
v    50.026881 25.561295 11.268534
v    41.293262 20.344016 4.395390
v    39.055443 20.947990 4.395390
v    39.651295 18.707994 4.395390
v    38.706738 19.655984 6.215755
v    40.944557 19.052010 6.215755
v    40.348705 21.292006 6.215755
v    40.471266 16.672097 2.972332
v    34.145662 15.969946 8.960000
v    30.337396 16.139841 12.419876
v    25.541451 16.153937 15.336925
v    38.755494 23.122216 2.972332
v    32.917056 20.588657 8.960000
v    29.696529 18.549060 12.419876
v    25.541451 16.153937 15.336925
v    38.831935 19.515124 6.215755
v    41.003948 19.230864 6.215755
v    40.164118 21.254012 6.215755
v    41.168065 20.484876 8.830832
v    38.996052 20.769136 8.830832
v    39.835882 18.745988 8.830832
v    38.880561 23.548431 5.587408
v    40.746708 24.082463 7.421988
v    47.880819 25.858784 14.338669
v    56.883438 27.008490 20.088847
v    41.722606 16.701950 5.587408
v    43.418346 17.646494 7.421988
v    49.713166 21.444662 14.338669
v    56.883438 27.008490 20.088847
v    40.919824 20.756852 8.830832
v    38.884635 20.418165 8.830832
v    40.195542 18.824983 8.830832
v    39.080176 19.243148 12.726769
v    41.115365 19.581835 12.726769
v    39.804458 21.175017 12.726769
v    42.374434 16.716090 9.483346
v    38.264533 14.059926 14.108429
v    33.865525 11.428607 18.930890
v    31.669796 10.051088 20.550168
v    23.295592 6.255224 26.142438
v    37.234825 22.962400 9.483346
v    33.836901 19.440950 14.108429
v    30.407681 15.631021 18.930890
v    28.633096 13.741673 20.550168
v    23.295592 6.255224 26.142438
v    39.313473 19.281702 12.726769
v    40.965328 19.764599 12.726769
v    39.721199 20.953699 12.726769
v    40.686527 20.718298 18.337227
v    39.034672 20.235401 18.337227
v    40.278801 19.046301 18.337227
v    36.795215 23.139730 15.093804
v    43.526069 28.731995 23.364652
v    44.515239 29.497435 24.541348
v    50.040388 33.963612 28.979579
v    54.115948 36.434882 31.878569
v    58.332668 39.181067 33.119238
v    43.281403 16.940433 15.093804
v    48.563660 23.917222 23.364652
v    49.283599 24.939985 24.541348
v    53.495428 30.661392 28.979579
v    55.779922 34.844508 31.878569
v    58.332668 39.181067 33.119238
v    40.535847 20.546122 18.337227
v    39.259121 20.190996 18.337227
v    40.205032 19.262881 18.337227
v    39.464153 19.453878 24.678407
v    40.740879 19.809004 24.678407
v    39.794968 20.737119 24.678407
v    43.465888 16.841783 21.434983
v    35.694314 10.555292 30.882528
v    28.520351 4.888185 36.595177
v    26.218470 3.533378 38.219749
v    19.953938 -0.430436 40.047483
v    36.776532 23.405286 21.434983
v    30.638764 15.515728 30.882528
v    25.108918 8.235436 36.595177
v    23.798069 5.908242 38.219749
v    19.953938 -0.430436 40.047483
v    39.625089 19.584599 24.678407
v    40.547203 19.883018 24.678407
v    39.827708 20.532383 24.678407
v    40.374911 20.415401 33.554898
v    39.452797 20.116982 33.554898
v    40.172292 19.467617 33.554898
v    36.404779 22.734792 30.311474
v    43.072219 28.604341 38.707129
v    43.936561 29.313580 39.759019
v    49.449158 34.036301 44.293752
v    53.319184 36.536902 47.096240
v    57.603934 39.505119 48.381363
v    43.087892 16.703089 30.311474
v    48.245320 23.935468 38.707129
v    48.862514 24.867766 39.759019
v    52.997139 30.834146 44.293752
v    55.089144 34.939462 47.096240
v    57.603934 39.505119 48.381363
v    40.370064 20.072041 33.554898
v    39.752578 20.284464 33.554898
v    39.877358 19.643495 33.554898
v    39.629936 19.927959 41.753377
v    40.247422 19.715536 41.753377
v    40.122642 20.356505 41.753377
v    41.279977 16.361677 38.509953
v    38.392097 16.137350 41.247642
v    31.266551 15.831965 47.957498
v    21.839685 16.464678 53.709689
v    39.821662 23.852782 38.509953
v    37.060524 22.977399 41.247642
v    30.340781 20.587479 47.957498
v    21.839685 16.464678 53.709689
v    39.832276 19.861633 41.753377
v    40.203691 19.923930 41.753377
v    39.964033 20.214436 41.753377
v    40.167724 20.138367 44.173000
v    39.796309 20.076070 44.173000
v    40.035967 19.785564 44.173000
v    39.586650 21.726522 37.904979
v    40.969599 20.799888 44.891582
v    41.616483 19.266024 37.904979
v    40.969599 20.799888 44.891582
mtllib usm_1_2.5D_2018-08-22_0.mtl
usemtl APPID_1291980640_2556943068128 
o vid_3 
f 3 2 1
f 4 5 6
f 1 6 5
f 1 5 3
f 3 5 4
f 4 2 3
f 2 4 6
f 6 1 2
usemtl APPID_1291979968_2556943068640 
o vid_4 
f 7 9 10
f 7 10 8
f 7 9 10
usemtl APPID_1291980640_2556943068128 
o vid_5 
f 13 12 11
f 14 15 16
f 11 16 15
f 11 15 13
f 13 15 14
f 14 12 13
f 12 14 16
f 16 11 12
usemtl APPID_1291979968_2556943068640 
o vid_6 
f 17 19 20
f 17 20 18
f 17 19 20
usemtl APPID_1291980640_2556943068128 
o vid_7 
f 23 22 21
f 24 25 26
f 21 26 25
f 21 25 23
f 23 25 24
f 24 22 23
f 22 24 26
f 26 21 22
usemtl APPID_1291979968_2556943068640 
o vid_8 
f 27 29 30
f 27 30 28
f 27 29 30
usemtl APPID_1291980640_2556943068128 
o vid_9 
f 33 32 31
f 34 35 36
f 31 36 35
f 31 35 33
f 33 35 34
f 34 32 33
f 32 34 36
f 36 31 32
usemtl APPID_1291979968_2556943068640 
o vid_10 
f 37 39 40
f 37 40 38
f 37 39 40
usemtl APPID_1291980640_2556943068128 
o vid_11 
f 43 42 41
f 44 45 46
f 41 46 45
f 41 45 43
f 43 45 44
f 44 42 43
f 42 44 46
f 46 41 42
usemtl APPID_1291979968_2556943068640 
o vid_12 
f 47 49 50
f 47 50 48
f 47 49 50
usemtl APPID_1291980640_2556943068128 
o vid_13 
f 53 52 51
f 54 55 56
f 51 56 55
f 51 55 53
f 53 55 54
f 54 52 53
f 52 54 56
f 56 51 52
usemtl APPID_1291979968_2556943068640 
o vid_14 
f 57 59 60
f 57 60 58
f 57 59 60
usemtl APPID_1291980640_2556943068128 
o vid_15 
f 63 62 61
f 64 65 66
f 61 66 65
f 61 65 63
f 63 65 64
f 64 62 63
f 62 64 66
f 66 61 62
usemtl APPID_1291979968_2556943068640 
o vid_16 
f 67 69 70
f 67 70 68
f 67 69 70
usemtl APPID_1291980640_2556943068128 
o vid_17 
f 73 72 71
f 74 75 76
f 71 76 75
f 71 75 73
f 73 75 74
f 74 72 73
f 72 74 76
f 76 71 72
usemtl APPID_1291979968_2556943068640 
o vid_18 
f 77 80 81
f 77 81 78
f 78 81 82
usemtl APPID_1291980640_2556943068128 
o vid_19 
f 85 84 83
f 86 87 88
f 83 88 87
f 83 87 85
f 85 87 86
f 86 84 85
f 84 86 88
f 88 83 84
usemtl APPID_1291979968_2556943068640 
o vid_20 
f 89 93 94
f 90 94 95
f 89 94 90
f 90 95 91
f 91 95 96
usemtl APPID_1291980640_2556943068128 
o vid_21 
f 99 98 97
f 100 101 102
f 97 102 101
f 97 101 99
f 99 101 100
f 100 98 99
f 98 100 102
f 102 97 98
usemtl APPID_1291979968_2556943068640 
o vid_22 
f 103 107 108
f 104 108 109
f 103 108 104
f 104 109 105
f 105 109 110
usemtl APPID_1291980640_2556943068128 
o vid_23 
f 113 112 111
f 114 115 116
f 111 116 115
f 111 115 113
f 113 115 114
f 114 112 113
f 112 114 116
f 116 111 112
usemtl APPID_1291979968_2556943068640 
o vid_24 
f 117 121 122
f 118 122 123
f 117 122 118
f 118 123 119
f 119 123 124
usemtl APPID_1291980640_2556943068128 
o vid_25 
f 127 126 125
f 128 129 130
f 125 130 129
f 125 129 127
f 127 129 128
f 128 126 127
f 126 128 130
f 130 125 126
usemtl APPID_1291979968_2556943068640 
o vid_26 
f 131 136 137
f 132 137 138
f 133 138 139
f 131 137 132
f 132 138 133
f 133 139 134
f 134 139 140
usemtl APPID_1291980640_2556943068128 
o vid_27 
f 143 142 141
f 144 145 146
f 141 146 145
f 141 145 143
f 143 145 144
f 144 142 143
f 142 144 146
f 146 141 142
usemtl APPID_1291979968_2556943068640 
o vid_28 
f 147 153 154
f 148 154 155
f 149 155 156
f 150 156 157
f 147 154 148
f 148 155 149
f 149 156 150
f 150 157 151
f 151 157 158
usemtl APPID_1291980640_2556943068128 
o vid_29 
f 161 160 159
f 162 163 164
f 159 164 163
f 159 163 161
f 161 163 162
f 162 160 161
f 160 162 164
f 164 159 160
usemtl APPID_1291979968_2556943068640 
o vid_30 
f 165 170 171
f 166 171 172
f 167 172 173
f 165 171 166
f 166 172 167
f 167 173 168
f 168 173 174
usemtl APPID_1291980640_2556943068128 
o vid_31 
f 177 176 175
f 178 179 180
f 175 180 179
f 175 179 177
f 177 179 178
f 178 176 177
f 176 178 180
f 180 175 176
usemtl APPID_1291979968_2556943068640 
o vid_32 
f 181 187 188
f 182 188 189
f 183 189 190
f 184 190 191
f 181 188 182
f 182 189 183
f 183 190 184
f 184 191 185
f 185 191 192
usemtl APPID_1291980640_2556943068128 
o vid_33 
f 195 194 193
f 196 197 198
f 193 198 197
f 193 197 195
f 195 197 196
f 196 194 195
f 194 196 198
f 198 193 194
usemtl APPID_1291979968_2556943068640 
o vid_34 
f 199 203 204
f 200 204 205
f 199 204 200
f 200 205 201
f 201 205 206
usemtl APPID_1291980640_2556943068128 
o vid_35 
f 209 208 207
f 210 211 212
f 207 212 211
f 207 211 209
f 209 211 210
f 210 208 209
f 208 210 212
f 212 207 208
usemtl APPID_1291979968_2556943068640 
o vid_36 
f 213 215 216
f 213 216 214
f 213 215 216
