# File generated by PlantGL - Fri Sep  4 14:41:44 2026
v    18.201987 39.124129 0.000000
v    21.657533 38.880811 0.000000
v    20.140480 41.995060 0.000000
v    21.798013 40.875871 0.231332
v    18.342467 41.119189 0.231332
v    19.859520 38.004940 0.231332
v    20.886446 40.731889 -2.819834
v    21.776092 40.865193 -2.003364
v    21.122726 40.246845 -2.819834
v    21.776092 40.865193 -2.003364
v    21.503548 41.204422 0.231332
v    18.205166 40.699900 0.231332
v    20.291286 38.095678 0.231332
v    18.496452 38.795578 0.322957
v    21.794834 39.300100 0.322957
v    19.708714 41.904322 0.322957
v    19.401500 39.077408 -2.728209
v    18.326523 38.659456 -1.681395
v    18.969022 39.617294 -2.728209
v    18.326523 38.659456 -1.681395
v    18.272844 39.328938 0.322957
v    21.444735 38.839770 0.322957
v    20.282421 41.831292 0.322957
v    21.727156 40.671062 0.466906
v    18.555265 41.160230 0.466906
v    19.717579 38.168708 0.466906
v    20.729580 40.801657 -2.584261
v    22.336748 40.907910 -1.122387
v    21.079436 39.901211 -2.584261
v    22.336748 40.907910 -1.122387
v    21.731622 40.409625 0.466906
v    18.779443 41.294816 0.466906
v    19.488935 38.295559 0.466906
v    18.268378 39.590375 0.679271
v    21.220557 38.705184 0.679271
v    20.511065 41.704441 0.679271
v    19.286851 39.118791 -2.371896
v    16.980729 39.285774 -0.273345
v    18.967619 40.468294 -2.371896
v    16.980729 39.285774 -0.273345
v    18.920858 38.767703 0.679271
v    21.606772 39.681584 0.679271
v    19.472370 41.550713 0.679271
v    21.079142 41.232297 0.904206
v    18.393228 40.318416 0.904206
v    20.527630 38.449287 0.904206
v    19.688770 41.276736 -2.146960
v    22.751241 43.141705 1.107423
v    21.306638 39.859943 -2.146960
v    22.751241 43.141705 1.107423
v    21.106130 40.706232 0.904206
v    18.835320 40.604820 0.904206
v    20.058550 38.688947 0.904206
v    18.893870 39.293768 1.433321
v    21.164680 39.395180 1.433321
v    19.941450 41.311053 1.433321
v    20.459824 38.481128 -1.617845
v    15.541715 37.153512 3.005681
v    18.815658 41.056288 -1.617845
v    15.541715 37.153512 3.005681
v    19.180807 39.409769 1.433321
v    20.920751 39.585673 1.433321
v    19.898442 41.004557 1.433321
v    20.819193 40.590231 2.225064
v    19.079249 40.414327 2.225064
v    20.101558 38.995443 2.225064
v    18.768276 41.926990 -0.826102
v    26.096427 44.392490 6.201802
v    21.437997 38.221630 -0.826102
v    26.096427 44.392490 6.201802
v    20.611688 40.398372 2.225064
v    19.349156 40.330551 2.225064
v    20.039156 39.271077 2.225064
v    19.388312 39.601628 2.920662
v    20.650844 39.669449 2.920662
v    19.960844 40.728923 2.920662
v    21.321728 38.250124 -0.130505
v    14.296288 36.285362 6.490550
v    18.933993 41.916418 -0.130505
v    14.296288 36.285362 6.490550
v    19.586145 39.770460 2.920662
v    20.405715 39.756361 2.920662
v    20.008140 40.473179 2.920662
v    20.413855 40.229540 3.256000
v    19.594285 40.243639 3.256000
v    19.991860 39.526821 3.256000
v    19.419576 40.950242 -2.950642
v    21.678848 40.931154 1.520985
v    20.498775 39.004472 -2.950642
v    21.678848 40.931154 1.520985
mtllib usm_4_2.5D_2018-07-31_0.mtl
usemtl APPID_1857655200_2531593547920 
o vid_3 
f 3 2 1
f 4 5 6
f 1 6 5
f 1 5 3
f 3 5 4
f 4 2 3
f 2 4 6
f 6 1 2
usemtl APPID_1857653184_2531593554576 
o vid_4 
f 7 9 10
f 7 10 8
f 7 9 10
usemtl APPID_1857655200_2531593547920 
o vid_5 
f 13 12 11
f 14 15 16
f 11 16 15
f 11 15 13
f 13 15 14
f 14 12 13
f 12 14 16
f 16 11 12
usemtl APPID_1857653184_2531593554576 
o vid_6 
f 17 19 20
f 17 20 18
f 17 19 20
usemtl APPID_1857655200_2531593547920 
o vid_7 
f 23 22 21
f 24 25 26
f 21 26 25
f 21 25 23
f 23 25 24
f 24 22 23
f 22 24 26
f 26 21 22
usemtl APPID_1857653184_2531593554576 
o vid_8 
f 27 29 30
f 27 30 28
f 27 29 30
usemtl APPID_1857655200_2531593547920 
o vid_9 
f 33 32 31
f 34 35 36
f 31 36 35
f 31 35 33
f 33 35 34
f 34 32 33
f 32 34 36
f 36 31 32
usemtl APPID_1857653184_2531593554576 
o vid_10 
f 37 39 40
f 37 40 38
f 37 39 40
usemtl APPID_1857655200_2531593547920 
o vid_11 
f 43 42 41
f 44 45 46
f 41 46 45
f 41 45 43
f 43 45 44
f 44 42 43
f 42 44 46
f 46 41 42
usemtl APPID_1857653184_2531593554576 
o vid_12 
f 47 49 50
f 47 50 48
f 47 49 50
usemtl APPID_1857655200_2531593547920 
o vid_13 
f 53 52 51
f 54 55 56
f 51 56 55
f 51 55 53
f 53 55 54
f 54 52 53
f 52 54 56
f 56 51 52
usemtl APPID_1857653184_2531593554576 
o vid_14 
f 57 59 60
f 57 60 58
f 57 59 60
usemtl APPID_1857655200_2531593547920 
o vid_15 
f 63 62 61
f 64 65 66
f 61 66 65
f 61 65 63
f 63 65 64
f 64 62 63
f 62 64 66
f 66 61 62
usemtl APPID_1857653184_2531593554576 
o vid_16 
f 67 69 70
f 67 70 68
f 67 69 70
usemtl APPID_1857655200_2531593547920 
o vid_17 
f 73 72 71
f 74 75 76
f 71 76 75
f 71 75 73
f 73 75 74
f 74 72 73
f 72 74 76
f 76 71 72
usemtl APPID_1857653184_2531593554576 
o vid_18 
f 77 79 80
f 77 80 78
f 77 79 80
usemtl APPID_1857655200_2531593547920 
o vid_19 
f 83 82 81
f 84 85 86
f 81 86 85
f 81 85 83
f 83 85 84
f 84 82 83
f 82 84 86
f 86 81 82
usemtl APPID_1857653184_2531593554576 
o vid_20 
f 87 89 90
f 87 90 88
f 87 89 90
