# File generated by PlantGL - Fri Sep  4 14:43:16 2026
v    297.752484 18.905161 0.000000
v    302.071916 18.601013 0.000000
v    300.175600 22.493825 0.000000
v    302.247516 21.094839 0.848509
v    297.928084 21.398987 0.848509
v    299.824400 17.506175 0.848509
v    302.063299 21.447244 0.691513
v    302.452202 21.595517 1.078275
v    303.193785 21.873619 1.633607
v    304.003060 22.189528 1.912070
v    304.578065 22.388074 2.106273
v    305.065958 22.501258 2.100678
v    302.411449 20.732552 0.691513
v    302.767930 20.947381 1.078275
v    303.444042 21.359884 1.633607
v    304.191650 21.802384 1.912070
v    304.702436 22.132762 2.106273
v    305.092308 22.447166 2.100678
v    301.879284 21.505407 0.848509
v    297.756638 20.874804 0.848509
v    300.364078 17.619789 0.848509
v    298.120716 18.494593 1.417165
v    302.243362 19.125196 1.417165
v    299.635922 22.380211 1.417165
v    298.491141 18.057732 1.194772
v    297.911229 17.672526 1.841708
v    297.063218 17.114491 2.529291
v    295.928633 16.347819 2.968207
v    295.314462 15.967404 3.198844
v    295.088966 15.825934 3.195813
v    294.464136 15.541140 3.188184
v    297.775236 18.951436 1.194772
v    297.272745 18.469581 1.841708
v    296.543078 17.763812 2.529291
v    295.547256 16.823914 2.968207
v    295.041963 16.307580 3.198844
v    294.854688 16.118397 3.195813
v    294.440385 15.570790 3.188184
v    297.841416 19.161313 1.417165
v    301.805616 18.549955 1.417165
v    300.352968 22.288732 1.417165
v    302.158584 20.838687 2.253766
v    298.194384 21.450045 2.253766
v    299.647032 17.711268 2.253766
v    301.872733 21.513125 1.944944
v    302.122273 21.585295 2.186331
v    302.828095 21.776930 2.864874
v    304.161507 22.156635 3.798104
v    305.102329 22.436827 4.112758
v    306.415650 22.771839 4.545458
v    306.998937 22.836807 4.727871
v    307.388936 22.884967 4.723504
v    302.403065 20.148176 1.944944
v    302.635871 20.263414 2.186331
v    303.285924 20.598586 2.864874
v    304.525913 21.218740 3.798104
v    305.409110 21.647244 4.112758
v    306.604104 22.286802 4.545458
v    307.078246 22.632683 4.727871
v    307.398456 22.860465 4.723504
v    302.163962 20.511898 2.253766
v    298.474702 21.618097 2.253766
v    299.361335 17.870005 2.253766
v    297.836038 19.488102 4.112548
v    301.525298 18.381903 4.112548
v    300.638665 22.129995 4.112548
v    298.103588 18.488302 3.692155
v    297.332469 18.377092 4.416131
v    296.767603 18.305071 4.944435
v    294.898532 18.043356 6.214822
v    293.030186 17.758778 6.820596
v    291.196591 17.553550 7.409620
v    289.794570 17.577915 7.467446
v    297.627281 20.501811 3.692155
v    296.888063 20.255742 4.416131
v    296.350797 20.067046 4.944435
v    294.562564 19.463606 6.214822
v    292.764734 18.880928 6.820596
v    291.033526 18.242881 7.409620
v    289.791016 17.592938 7.467446
v    298.595695 18.396392 4.112548
v    302.090917 19.585640 4.112548
v    299.313387 22.017967 4.112548
v    301.404305 21.603608 5.999272
v    297.909083 20.414360 5.999272
v    300.686613 17.982033 5.999272
v    300.288693 22.526982 5.438275
v    301.585753 23.765977 7.105100
v    303.417453 25.501255 8.804670
v    305.931301 27.940945 9.927521
v    307.251878 29.124508 10.493655
v    307.787500 29.610132 10.485424
v    309.359776 30.694671 10.464202
v    302.466801 20.619579 5.438275
v    303.523830 22.068772 7.105100
v    305.002263 24.113412 8.804670
v    307.088948 26.927175 9.927521
v    308.087927 28.392366 10.493655
v    308.498636 28.987379 10.485424
v    309.366247 30.689004 10.464202
v    301.718982 21.097521 5.999272
v    298.190028 20.939922 5.999272
v    300.090990 17.962557 5.999272
v    298.281018 18.902479 11.505015
v    301.809972 19.060078 11.505015
v    299.909010 22.037443 11.505015
v    299.289624 17.420752 10.771137
v    298.225783 16.868021 11.885180
v    297.191786 16.352172 12.957238
v    294.261963 14.845215 15.174946
v    291.531835 13.399166 16.165215
v    288.627971 12.005723 17.193472
v    286.259982 11.227391 17.363552
v    297.361306 20.440963 10.771137
v    296.412220 19.708497 11.885180
v    295.509150 18.987584 12.957238
v    292.909213 16.963947 15.174946
v    290.448562 15.095832 16.165215
v    287.962523 13.047975 17.193472
v    286.259982 11.227391 17.363552
v    298.563196 18.964780 11.505015
v    301.614929 19.273302 11.505015
v    299.821875 21.761919 11.505015
v    301.436804 21.035220 19.658889
v    298.385071 20.726698 19.658889
v    300.178125 18.238081 19.658889
v    299.901383 23.050578 18.717768
v    302.496256 24.589488 21.521211
v    303.622528 25.273376 22.409257
v    306.127890 26.745312 24.365188
v    312.463696 30.570980 26.737528
v    313.728714 31.267872 27.198607
v    316.190465 32.642523 27.166507
v    319.197506 33.831848 27.130579
v    302.862489 18.940798 18.717768
v    305.143666 20.915094 21.521211
v    306.148906 21.766964 22.409257
v    308.338218 23.677553 24.365188
v    313.972746 28.476539 26.737528
v    315.034241 29.455904 27.198607
v    317.117466 31.355920 27.166507
v    319.197506 33.831848 27.130579
v    301.170842 20.762531 19.658889
v    298.754208 20.632714 19.658889
v    300.074950 18.604755 19.658889
v    298.829158 19.237469 30.873903
v    301.245792 19.367286 30.873903
v    299.925050 21.395245 30.873903
v    300.617562 16.647211 29.690791
v    297.268022 14.868296 33.215082
v    296.231539 14.303921 34.010479
v    292.576289 12.381871 36.790328
v    284.875214 8.213343 39.597204
v    282.752102 7.170842 40.352302
v    280.095823 5.847560 40.318516
v    276.249396 4.532022 40.273349
v    297.183231 21.920519 29.690791
v    294.201847 19.576313 33.215082
v    293.266566 18.856545 34.010479
v    290.030656 16.290612 36.790328
v    283.104184 10.932705 39.597204
v    281.292231 9.412429 40.352302
v    279.007889 7.518049 40.318516
v    276.249396 4.532022 40.273349
v    299.079683 19.489557 30.873903
v    300.902215 19.458204 30.873903
v    300.018102 21.052240 30.873903
v    300.920317 20.510443 48.399763
v    299.097785 20.541796 48.399763
v    299.981898 18.947760 48.399763
v    298.826805 24.068991 46.941742
v    303.099519 25.963468 51.284942
v    307.314810 27.885226 54.407211
v    309.061408 28.651073 55.690939
v    321.536409 34.301033 60.080579
v    328.461419 37.190458 59.995114
v    330.454396 37.717809 59.972209
v    333.263881 38.449430 59.457941
v    302.830589 16.850264 46.941742
v    306.700070 19.471762 51.284942
v    310.562288 22.030101 54.407211
v    312.136777 23.106257 55.690939
v    323.535133 30.697381 60.080579
v    329.653012 35.042045 59.995114
v    331.155637 36.453489 59.972209
v    333.263881 38.449430 59.457941
v    300.711573 20.189283 48.399763
v    299.480290 20.521599 48.399763
v    299.808137 19.289119 48.399763
v    299.288427 19.810717 62.190355
v    300.519710 19.478401 62.190355
v    300.191863 20.710881 62.190355
v    300.549691 15.561594 60.428945
v    296.270027 14.822857 64.464636
v    287.182156 13.308887 70.998695
v    278.009016 11.650521 73.986654
v    270.827403 10.644609 76.301740
v    264.278289 10.497805 76.228774
v    298.271795 24.124914 60.428945
v    294.190715 22.639641 64.464636
v    285.551732 19.438159 70.998695
v    276.767006 16.319622 73.986654
v    270.034769 13.624364 76.301740
v    264.278289 10.497805 76.228774
v    299.585289 19.827849 62.190355
v    300.356443 19.726925 62.190355
v    300.058269 20.445226 62.190355
v    300.414711 20.172151 66.000000
v    299.643557 20.273075 66.000000
v    299.941731 19.554774 66.000000
v    300.103523 23.516502 62.163684
v    300.934099 23.485362 66.585000
v    301.857962 23.290228 71.142641
v    303.529826 23.368110 75.807442
v    306.013441 22.665249 81.807081
v    306.399262 22.656400 82.313421
v    302.563434 17.590579 62.163684
v    303.127788 18.200769 66.585000
v    303.641866 18.992807 71.142641
v    304.877396 20.121815 75.807442
v    306.133130 22.376919 81.807081
v    306.399262 22.656400 82.313421
v    305.065958 22.501258 2.100678
v    305.186070 22.526305 2.099315
v    305.092308 22.447166 2.100678
v    305.186070 22.526305 2.099315
v    294.464136 15.541140 3.188184
v    294.393645 15.509011 3.187323
v    294.440385 15.570790 3.188184
v    294.393645 15.509011 3.187323
v    307.388936 22.884967 4.723504
v    307.442134 22.891536 4.722909
v    307.398456 22.860465 4.723504
v    307.442134 22.891536 4.722909
v    289.794570 17.577915 7.467446
v    289.763093 17.578400 7.467096
v    289.791016 17.592938 7.467446
v    289.763093 17.578400 7.467096
v    309.359776 30.694671 10.464202
v    309.374215 30.704631 10.464007
v    309.366247 30.689004 10.464202
v    309.374215 30.704631 10.464007
mtllib usm_36_2.5D_2018-07-31_7.mtl
usemtl APPID_269262976_2560076481664 
o vid_3 
f 3 2 1
f 4 5 6
f 1 6 5
f 1 5 3
f 3 5 4
f 4 2 3
f 2 4 6
f 6 1 2
usemtl APPID_269264096_2560076483712 
o vid_4 
f 7 13 14
f 8 14 15
f 9 15 16
f 10 16 17
f 7 14 8
f 8 15 9
f 9 16 10
f 10 17 11
f 11 17 18
f 11 18 12
usemtl APPID_269262976_2560076481664 
o vid_5 
f 21 20 19
f 22 23 24
f 19 24 23
f 19 23 21
f 21 23 22
f 22 20 21
f 20 22 24
f 24 19 20
usemtl APPID_269264096_2560076483712 
o vid_6 
f 25 32 33
f 26 33 34
f 27 34 35
f 28 35 36
f 29 36 37
f 25 33 26
f 26 34 27
f 27 35 28
f 28 36 29
f 29 37 30
f 30 37 38
f 30 38 31
usemtl APPID_269262976_2560076481664 
o vid_7 
f 41 40 39
f 42 43 44
f 39 44 43
f 39 43 41
f 41 43 42
f 42 40 41
f 40 42 44
f 44 39 40
usemtl APPID_269264096_2560076483712 
o vid_8 
f 45 53 54
f 46 54 55
f 47 55 56
f 48 56 57
f 49 57 58
f 50 58 59
f 45 54 46
f 46 55 47
f 47 56 48
f 48 57 49
f 49 58 50
f 50 59 51
f 51 59 60
f 51 60 52
usemtl APPID_269262976_2560076481664 
o vid_9 
f 63 62 61
f 64 65 66
f 61 66 65
f 61 65 63
f 63 65 64
f 64 62 63
f 62 64 66
f 66 61 62
usemtl APPID_269264096_2560076483712 
o vid_10 
f 67 74 75
f 68 75 76
f 69 76 77
f 70 77 78
f 71 78 79
f 67 75 68
f 68 76 69
f 69 77 70
f 70 78 71
f 71 79 72
f 72 79 80
f 72 80 73
usemtl APPID_269262976_2560076481664 
o vid_11 
f 83 82 81
f 84 85 86
f 81 86 85
f 81 85 83
f 83 85 84
f 84 82 83
f 82 84 86
f 86 81 82
usemtl APPID_269264096_2560076483712 
o vid_12 
f 87 94 95
f 88 95 96
f 89 96 97
f 90 97 98
f 91 98 99
f 87 95 88
f 88 96 89
f 89 97 90
f 90 98 91
f 91 99 92
f 92 99 100
f 92 100 93
usemtl APPID_269262976_2560076481664 
o vid_13 
f 103 102 101
f 104 105 106
f 101 106 105
f 101 105 103
f 103 105 104
f 104 102 103
f 102 104 106
f 106 101 102
usemtl APPID_269264096_2560076483712 
o vid_14 
f 107 114 115
f 108 115 116
f 109 116 117
f 110 117 118
f 111 118 119
f 107 115 108
f 108 116 109
f 109 117 110
f 110 118 111
f 111 119 112
f 112 119 120
usemtl APPID_269262976_2560076481664 
o vid_15 
f 123 122 121
f 124 125 126
f 121 126 125
f 121 125 123
f 123 125 124
f 124 122 123
f 122 124 126
f 126 121 122
usemtl APPID_269264096_2560076483712 
o vid_16 
f 127 135 136
f 128 136 137
f 129 137 138
f 130 138 139
f 131 139 140
f 132 140 141
f 127 136 128
f 128 137 129
f 129 138 130
f 130 139 131
f 131 140 132
f 132 141 133
f 133 141 142
usemtl APPID_269262976_2560076481664 
o vid_17 
f 145 144 143
f 146 147 148
f 143 148 147
f 143 147 145
f 145 147 146
f 146 144 145
f 144 146 148
f 148 143 144
usemtl APPID_269264096_2560076483712 
o vid_18 
f 149 157 158
f 150 158 159
f 151 159 160
f 152 160 161
f 153 161 162
f 154 162 163
f 149 158 150
f 150 159 151
f 151 160 152
f 152 161 153
f 153 162 154
f 154 163 155
f 155 163 164
usemtl APPID_269262976_2560076481664 
o vid_19 
f 167 166 165
f 168 169 170
f 165 170 169
f 165 169 167
f 167 169 168
f 168 166 167
f 166 168 170
f 170 165 166
usemtl APPID_269264096_2560076483712 
o vid_20 
f 171 179 180
f 172 180 181
f 173 181 182
f 174 182 183
f 175 183 184
f 176 184 185
f 171 180 172
f 172 181 173
f 173 182 174
f 174 183 175
f 175 184 176
f 176 185 177
f 177 185 186
usemtl APPID_269262976_2560076481664 
o vid_21 
f 189 188 187
f 190 191 192
f 187 192 191
f 187 191 189
f 189 191 190
f 190 188 189
f 188 190 192
f 192 187 188
usemtl APPID_269264096_2560076483712 
o vid_22 
f 193 199 200
f 194 200 201
f 195 201 202
f 196 202 203
f 193 200 194
f 194 201 195
f 195 202 196
f 196 203 197
f 197 203 204
usemtl APPID_269262976_2560076481664 
o vid_23 
f 207 206 205
f 208 209 210
f 205 210 209
f 205 209 207
f 207 209 208
f 208 206 207
f 206 208 210
f 210 205 206
usemtl APPID_269264096_2560076483712 
o vid_24 
f 211 217 218
f 212 218 219
f 213 219 220
f 214 220 221
f 211 218 212
f 212 219 213
f 213 220 214
f 214 221 215
f 215 221 222
usemtl APPID_269257488_2560076485504 
o vid_10000004 
f 223 225 226
f 223 226 224
f 223 225 226
usemtl APPID_269257488_2560076485504 
o vid_10000006 
f 227 229 230
f 227 230 228
f 227 229 230
usemtl APPID_269257488_2560076485504 
o vid_10000008 
f 231 233 234
f 231 234 232
f 231 233 234
usemtl APPID_269257488_2560076485504 
o vid_10000010 
f 235 237 238
f 235 238 236
f 235 237 238
usemtl APPID_269257488_2560076485504 
o vid_10000012 
f 239 241 242
f 239 242 240
f 239 241 242
