# File generated by PlantGL - Fri Sep  4 14:41:33 2026
v    17.752484 98.905161 0.000000
v    22.071916 98.601013 0.000000
v    20.175600 102.493825 0.000000
v    22.247516 101.094839 0.848018
v    17.928084 101.398987 0.848018
v    19.824400 97.506175 0.848018
v    22.062184 101.449156 0.688716
v    22.418649 101.585061 1.043219
v    22.540278 101.629160 1.163250
v    23.209568 101.881186 1.644646
v    23.428373 101.966599 1.719935
v    22.412266 100.730496 0.688716
v    22.739014 100.927406 1.043219
v    22.848714 100.995994 1.163250
v    23.459730 101.367647 1.644646
v    23.661862 101.487287 1.719935
v    21.879284 101.505407 0.848018
v    17.756638 100.874804 0.848018
v    20.364078 97.619789 0.848018
v    18.120716 98.494593 1.416666
v    22.243362 99.125196 1.416666
v    19.635922 102.380211 1.416666
v    18.493117 98.055620 1.191176
v    17.952793 97.696709 1.793949
v    17.044720 97.099981 2.544278
v    15.956020 96.364314 2.965444
v    15.880862 96.317762 2.993668
v    17.773606 98.953827 1.191176
v    17.305418 98.504865 1.793949
v    16.524880 97.748926 2.544278
v    15.569331 96.847040 2.965444
v    15.507497 96.783855 2.993668
v    17.841416 99.161313 1.416666
v    21.805616 98.549955 1.416666
v    20.352968 102.288732 1.416666
v    22.158584 100.838687 2.253758
v    18.194384 101.450045 2.253758
v    19.647032 97.711268 2.253758
v    21.871433 101.515662 1.940857
v    22.050431 101.567430 2.114007
v    22.839874 101.781768 2.872938
v    24.190898 102.166488 3.818495
v    25.048301 102.421837 4.105250
v    26.018505 102.669324 4.424903
v    22.403819 100.145427 1.940857
v    22.570813 100.228089 2.114007
v    23.297879 100.602969 2.872938
v    24.554247 101.231314 3.818495
v    25.359135 101.621825 4.105250
v    26.241925 102.094293 4.424903
v    22.163962 100.511898 2.253758
v    18.474702 101.618097 2.253758
v    19.361335 97.870005 2.253758
v    17.836038 99.488102 4.113040
v    21.525298 98.381903 4.113040
v    20.638665 102.129995 4.113040
v    18.105016 98.483911 3.687377
v    17.417344 98.384736 4.333007
v    16.751926 98.299895 4.955355
v    14.859426 98.034898 6.241667
v    13.088664 97.765184 6.815801
v    11.232084 97.557384 7.412209
v    11.189976 97.558537 7.425301
v    17.626590 100.506376 3.687377
v    16.967368 100.286935 4.333007
v    16.334463 100.064650 4.955355
v    14.523813 99.453645 6.241667
v    12.819885 98.901401 6.815801
v    11.066975 98.255356 7.412209
v    11.029846 98.235459 7.425301
v    18.595695 98.396392 4.113040
v    22.090917 99.585640 4.113040
v    19.313387 102.017967 4.113040
v    21.404305 101.603608 6.000766
v    17.909083 100.414360 6.000766
v    20.686613 97.982033 6.000766
v    20.283419 102.530963 5.433090
v    21.509369 103.702032 7.008533
v    23.450917 105.539346 8.839565
v    25.882939 107.899625 9.925868
v    27.335678 109.201637 10.548660
v    27.756088 109.582804 10.542199
v    28.282900 109.946193 10.535088
v    22.471442 100.614877 5.433090
v    23.470522 101.984620 7.008533
v    25.035606 104.151609 8.839565
v    27.054370 106.873785 9.925868
v    28.153326 108.485610 10.548660
v    28.475691 108.952636 10.542199
v    28.766396 109.522788 10.535088
v    21.718982 101.097521 6.000766
v    18.190028 100.939922 6.000766
v    20.090990 97.962557 6.000766
v    18.281018 98.902479 12.885860
v    21.809972 99.060078 12.885860
v    19.909010 102.037443 12.885860
v    19.368598 97.298169 12.143674
v    17.257375 96.201260 14.354522
v    14.296559 94.673837 16.597336
v    9.912626 92.351829 18.187472
v    8.092933 91.478634 18.831824
v    6.923672 90.909272 18.817018
v    5.441415 90.417234 18.799666
v    17.283338 100.564188 12.143674
v    15.399851 99.110589 14.354522
v    12.768306 97.067448 16.597336
v    8.817090 94.067702 18.187472
v    7.259225 92.784422 18.831824
v    6.250691 91.963324 18.817018
v    5.180587 90.825753 18.799666
v    18.420020 98.861621 12.885860
v    21.775855 99.200887 12.885860
v    19.804125 101.937492 12.885860
v    21.579980 101.138379 19.685705
v    18.224145 100.799113 19.685705
v    20.195875 98.062508 19.685705
v    20.091978 103.086676 18.734440
v    22.668485 104.614693 21.518040
v    26.397472 106.804756 24.442732
v    31.431162 109.844184 26.327515
v    34.117629 111.324147 27.306692
v    35.132895 111.891074 27.293453
v    37.510516 112.831456 27.265045
v    22.957063 99.110166 18.734440
v    25.222094 101.070487 21.518040
v    28.479941 103.914455 24.442732
v    32.956478 107.727168 26.327515
v    35.210732 109.807007 27.306692
v    36.069887 110.590603 27.293453
v    37.714543 112.548282 27.265045
v    21.554633 101.012481 19.685705
v    18.345849 100.840111 19.685705
v    20.099518 98.147408 19.685705
v    18.445367 98.987519 30.882667
v    21.654151 99.159889 30.882667
v    19.900482 101.852592 30.882667
v    20.238006 96.392358 29.687393
v    16.854032 94.595156 33.247915
v    12.111439 92.087202 36.859917
v    4.664774 88.056384 39.574065
v    2.177981 86.835306 40.458509
v    -0.147794 85.676672 40.428927
v    -3.592376 84.498571 40.388479
v    16.796670 101.676425 29.687393
v    13.784636 99.308120 33.247915
v    9.573189 95.984607 36.859917
v    2.875538 90.803702 39.574065
v    0.753203 89.023008 40.458509
v    -1.246912 87.364334 40.428927
v    -3.717219 84.690264 40.388479
v    18.669261 99.261921 30.882667
v    21.304565 99.216586 30.882667
v    20.026174 101.521494 30.882667
v    21.330739 100.738079 48.444344
v    18.695435 100.783414 48.444344
v    19.973826 98.478506 48.444344
v    19.229222 104.308938 46.971997
v    23.543919 106.222029 51.357873
v    27.500604 108.025889 54.288593
v    29.566720 108.931837 55.807162
v    42.164296 114.637312 60.239933
v    48.795489 117.389548 60.158175
v    51.203683 118.026768 60.130498
v    53.429328 118.606350 59.723100
v    23.247216 97.064590 46.971997
v    27.154717 99.711846 51.357873
v    30.779991 102.113233 54.288593
v    32.642512 103.386258 55.807162
v    44.152865 111.051970 60.239933
v    49.998790 115.220025 60.158175
v    51.814472 116.925530 60.130498
v    53.484602 118.506694 59.723100
v    21.141431 100.303628 48.444344
v    19.166335 100.836694 48.444344
v    19.692234 98.859678 48.444344
v    18.858569 99.696372 69.931697
v    20.833665 99.163306 69.931697
v    20.307766 101.140322 69.931697
v    20.288518 94.817746 68.153705
v    14.671993 93.848245 73.450046
v    8.500086 92.716606 77.679033
v    -9.609572 89.463431 84.175934
v    -19.400961 87.969068 84.063089
v    -25.395140 87.912250 83.289747
v    -25.441847 87.912189 83.275855
v    17.675555 104.640685 68.153705
v    12.319646 102.691451 73.450046
v    6.401198 100.606981 77.679033
v    -10.931326 94.432317 84.175934
v    -20.171104 90.864273 84.063089
v    -25.401282 87.935342 83.289747
v    -25.441847 87.912189 83.275855
v    19.197115 99.666714 69.931697
v    20.690077 99.471324 69.931697
v    20.112808 100.861962 69.931697
v    20.802885 100.333286 94.018022
v    19.309923 100.528676 94.018022
v    19.887192 99.138038 94.018022
v    18.374873 105.787857 91.913148
v    24.812103 107.810273 98.183217
v    31.294579 109.921277 102.777995
v    33.800689 110.697328 104.543942
v    52.614712 116.772388 110.881053
v    63.167005 119.839129 110.755885
v    65.952554 120.248003 110.724604
v    70.258404 120.862785 109.954133
v    22.951513 94.762739 91.913148
v    28.928601 97.893636 98.183217
v    35.000372 100.994030 102.777995
v    37.319335 102.220917 104.543942
v    54.904768 111.255648 110.881053
v    64.526766 116.563465 110.755885
v    66.782990 118.247484 110.724604
v    70.258404 120.862785 109.954133
v    20.452727 100.372514 94.018022
v    19.451030 100.205816 94.018022
v    20.096243 99.421670 94.018022
v    19.547273 99.627486 107.312000
v    20.548970 99.794184 107.312000
v    19.903757 100.578330 107.312000
v    23.116751 95.418270 102.421761
v    17.222202 91.637410 110.510806
v    8.818642 86.044016 119.046828
v    5.682430 83.880466 120.747361
v    -3.017551 78.395382 125.317657
v    -10.060316 75.265672 128.644392
v    16.104253 103.940754 102.421761
v    11.259001 98.884655 110.510806
v    4.151959 91.715566 119.046828
v    1.424940 89.054712 120.747361
v    -5.632903 81.573892 125.317657
v    -10.060316 75.265672 128.644392
v    23.428373 101.966599 1.719935
v    23.981245 102.182418 1.910172
v    24.615108 102.401288 2.124254
v    25.179233 102.522974 2.117831
v    23.661862 101.487287 1.719935
v    24.172605 101.789589 1.910172
v    24.735676 102.153785 2.124254
v    25.179233 102.522974 2.117831
v    15.880862 96.317762 2.993668
v    15.269751 95.939242 3.223156
v    15.107576 95.837499 3.220976
v    14.402572 95.516162 3.212368
v    15.507497 96.783855 2.993668
v    15.004722 96.270092 3.223156
v    14.870036 96.134034 3.220976
v    14.402572 95.516162 3.212368
v    26.018505 102.669324 4.424903
v    26.378970 102.761274 4.543665
v    27.072461 102.838518 4.760542
v    27.414333 102.880734 4.756715
v    26.241925 102.094293 4.424903
v    26.569913 102.269831 4.543665
v    27.133638 102.681061 4.760542
v    27.414333 102.880734 4.756715
v    11.189976 97.558537 7.425301
v    10.875106 97.567158 7.523203
v    9.786597 97.583960 7.511107
v    11.029846 98.235459 7.425301
v    10.752211 98.086678 7.523203
v    9.786597 97.583960 7.511107
v    28.282900 109.946193 10.535088
v    29.361695 110.690334 10.520527
v    28.766396 109.522788 10.535088
v    29.361695 110.690334 10.520527
v    5.441415 90.417234 18.799666
v    4.503383 90.105852 18.788684
v    5.180587 90.825753 18.799666
v    4.503383 90.105852 18.788684
v    37.510516 112.831456 27.265045
v    38.172348 113.093219 27.257137
v    37.714543 112.548282 27.265045
v    38.172348 113.093219 27.257137
v    -3.592376 84.498571 40.388479
v    -4.033764 84.347610 40.383296
v    -3.717219 84.690264 40.388479
v    -4.033764 84.347610 40.383296
v    53.429328 118.606350 59.723100
v    53.650778 118.664018 59.682564
v    53.484602 118.506694 59.723100
v    53.650778 118.664018 59.682564
mtllib usm_26_Beer_2018-08-05_2.mtl
usemtl APPID_1692215232_1985966836464 
o vid_3 
f 3 2 1
f 4 5 6
f 1 6 5
f 1 5 3
f 3 5 4
f 4 2 3
f 2 4 6
f 6 1 2
usemtl APPID_1692209520_1985966837360 
o vid_4 
f 7 12 13
f 8 13 14
f 9 14 15
f 7 13 8
f 8 14 9
f 9 15 10
f 10 15 16
f 10 16 11
usemtl APPID_1692215232_1985966836464 
o vid_5 
f 19 18 17
f 20 21 22
f 17 22 21
f 17 21 19
f 19 21 20
f 20 18 19
f 18 20 22
f 22 17 18
usemtl APPID_1692209520_1985966837360 
o vid_6 
f 23 28 29
f 24 29 30
f 25 30 31
f 23 29 24
f 24 30 25
f 25 31 26
f 26 31 32
f 26 32 27
usemtl APPID_1692215232_1985966836464 
o vid_7 
f 35 34 33
f 36 37 38
f 33 38 37
f 33 37 35
f 35 37 36
f 36 34 35
f 34 36 38
f 38 33 34
usemtl APPID_1692209520_1985966837360 
o vid_8 
f 39 45 46
f 40 46 47
f 41 47 48
f 42 48 49
f 39 46 40
f 40 47 41
f 41 48 42
f 42 49 43
f 43 49 50
f 43 50 44
usemtl APPID_1692215232_1985966836464 
o vid_9 
f 53 52 51
f 54 55 56
f 51 56 55
f 51 55 53
f 53 55 54
f 54 52 53
f 52 54 56
f 56 51 52
usemtl APPID_1692209520_1985966837360 
o vid_10 
f 57 64 65
f 58 65 66
f 59 66 67
f 60 67 68
f 61 68 69
f 57 65 58
f 58 66 59
f 59 67 60
f 60 68 61
f 61 69 62
f 62 69 70
f 62 70 63
usemtl APPID_1692215232_1985966836464 
o vid_11 
f 73 72 71
f 74 75 76
f 71 76 75
f 71 75 73
f 73 75 74
f 74 72 73
f 72 74 76
f 76 71 72
usemtl APPID_1692209520_1985966837360 
o vid_12 
f 77 84 85
f 78 85 86
f 79 86 87
f 80 87 88
f 81 88 89
f 77 85 78
f 78 86 79
f 79 87 80
f 80 88 81
f 81 89 82
f 82 89 90
f 82 90 83
usemtl APPID_1692215232_1985966836464 
o vid_13 
f 93 92 91
f 94 95 96
f 91 96 95
f 91 95 93
f 93 95 94
f 94 92 93
f 92 94 96
f 96 91 92
usemtl APPID_1692209520_1985966837360 
o vid_14 
f 97 104 105
f 98 105 106
f 99 106 107
f 100 107 108
f 101 108 109
f 97 105 98
f 98 106 99
f 99 107 100
f 100 108 101
f 101 109 102
f 102 109 110
f 102 110 103
usemtl APPID_1692215232_1985966836464 
o vid_15 
f 113 112 111
f 114 115 116
f 111 116 115
f 111 115 113
f 113 115 114
f 114 112 113
f 112 114 116
f 116 111 112
usemtl APPID_1692209520_1985966837360 
o vid_16 
f 117 124 125
f 118 125 126
f 119 126 127
f 120 127 128
f 121 128 129
f 117 125 118
f 118 126 119
f 119 127 120
f 120 128 121
f 121 129 122
f 122 129 130
f 122 130 123
usemtl APPID_1692215232_1985966836464 
o vid_17 
f 133 132 131
f 134 135 136
f 131 136 135
f 131 135 133
f 133 135 134
f 134 132 133
f 132 134 136
f 136 131 132
usemtl APPID_1692209520_1985966837360 
o vid_18 
f 137 144 145
f 138 145 146
f 139 146 147
f 140 147 148
f 141 148 149
f 137 145 138
f 138 146 139
f 139 147 140
f 140 148 141
f 141 149 142
f 142 149 150
f 142 150 143
usemtl APPID_1692215232_1985966836464 
o vid_19 
f 153 152 151
f 154 155 156
f 151 156 155
f 151 155 153
f 153 155 154
f 154 152 153
f 152 154 156
f 156 151 152
usemtl APPID_1692209520_1985966837360 
o vid_20 
f 157 165 166
f 158 166 167
f 159 167 168
f 160 168 169
f 161 169 170
f 162 170 171
f 157 166 158
f 158 167 159
f 159 168 160
f 160 169 161
f 161 170 162
f 162 171 163
f 163 171 172
f 163 172 164
usemtl APPID_1692215232_1985966836464 
o vid_21 
f 175 174 173
f 176 177 178
f 173 178 177
f 173 177 175
f 175 177 176
f 176 174 175
f 174 176 178
f 178 173 174
usemtl APPID_1692209520_1985966837360 
o vid_22 
f 179 186 187
f 180 187 188
f 181 188 189
f 182 189 190
f 183 190 191
f 179 187 180
f 180 188 181
f 181 189 182
f 182 190 183
f 183 191 184
f 184 191 192
usemtl APPID_1692215232_1985966836464 
o vid_23 
f 195 194 193
f 196 197 198
f 193 198 197
f 193 197 195
f 195 197 196
f 196 194 195
f 194 196 198
f 198 193 194
usemtl APPID_1692209520_1985966837360 
o vid_24 
f 199 207 208
f 200 208 209
f 201 209 210
f 202 210 211
f 203 211 212
f 204 212 213
f 199 208 200
f 200 209 201
f 201 210 202
f 202 211 203
f 203 212 204
f 204 213 205
f 205 213 214
usemtl APPID_1692215232_1985966836464 
o vid_25 
f 217 216 215
f 218 219 220
f 215 220 219
f 215 219 217
f 217 219 218
f 218 216 217
f 216 218 220
f 220 215 216
usemtl APPID_1692209520_1985966837360 
o vid_26 
f 221 227 228
f 222 228 229
f 223 229 230
f 224 230 231
f 221 228 222
f 222 229 223
f 223 230 224
f 224 231 225
f 225 231 232
usemtl APPID_1692213776_1985966830064 
o vid_10000004 
f 233 237 238
f 234 238 239
f 233 238 234
f 234 239 235
f 235 239 240
usemtl APPID_1692213776_1985966830064 
o vid_10000006 
f 241 245 246
f 242 246 247
f 241 246 242
f 242 247 243
f 243 247 248
usemtl APPID_1692213776_1985966830064 
o vid_10000008 
f 249 253 254
f 250 254 255
f 249 254 250
f 250 255 251
f 251 255 256
usemtl APPID_1692213776_1985966830064 
o vid_10000010 
f 257 260 261
f 257 261 258
f 258 261 262
usemtl APPID_1692213776_1985966830064 
o vid_10000012 
f 263 265 266
f 263 266 264
f 263 265 266
usemtl APPID_1692213776_1985966830064 
o vid_10000014 
f 267 269 270
f 267 270 268
f 267 269 270
usemtl APPID_1692213776_1985966830064 
o vid_10000016 
f 271 273 274
f 271 274 272
f 271 273 274
usemtl APPID_1692213776_1985966830064 
o vid_10000018 
f 275 277 278
f 275 278 276
f 275 277 278
usemtl APPID_1692213776_1985966830064 
o vid_10000020 
f 279 281 282
f 279 282 280
f 279 281 282
