# File generated by PlantGL - Fri Sep  4 14:42:27 2026
v    137.752484 18.905161 0.000000
v    142.071916 18.601013 0.000000
v    140.175600 22.493825 0.000000
v    142.247516 21.094839 0.848509
v    137.928084 21.398987 0.848509
v    139.824400 17.506175 0.848509
v    142.062184 21.449159 0.689227
v    142.419150 21.585256 1.044229
v    142.463786 21.601440 1.088278
v    142.412269 20.730494 0.689227
v    142.739477 20.927681 1.044229
v    142.779735 20.952852 1.088278
v    141.879284 21.505407 0.848509
v    137.756638 20.874804 0.848509
v    140.364078 17.619789 0.848509
v    138.120716 18.494593 1.417165
v    142.243362 19.125196 1.417165
v    139.635922 22.380211 1.417165
v    138.493075 18.055665 1.191747
v    137.951788 17.696115 1.795593
v    137.045151 17.100311 2.544420
v    136.567670 16.777663 2.729135
v    137.773641 18.953775 1.191747
v    137.304618 18.504014 1.795593
v    136.525297 17.749275 2.544420
v    136.106213 17.353726 2.729135
v    137.841416 19.161313 1.417165
v    141.805616 18.549955 1.417165
v    140.352968 22.288732 1.417165
v    142.158584 20.838687 2.253766
v    138.194384 21.450045 2.253766
v    139.647032 17.711268 2.253766
v    141.871480 21.515572 1.941021
v    142.053284 21.568152 2.116886
v    142.839417 21.781592 2.872635
v    144.189764 22.166119 3.817719
v    145.050497 22.422459 4.105587
v    145.187515 22.457411 4.150730
v    142.403793 20.145525 1.941021
v    142.573405 20.229483 2.116886
v    143.297423 20.602791 2.872635
v    144.553161 21.230821 3.817719
v    145.361174 21.622848 4.105587
v    145.485847 21.689573 4.150730
v    142.163962 20.511898 2.253766
v    138.474702 21.618097 2.253766
v    139.361335 17.870005 2.253766
v    137.836038 19.488102 4.112548
v    141.525298 18.381903 4.112548
v    140.638665 22.129995 4.112548
v    138.104908 18.484280 3.687172
v    137.414171 18.384662 4.335679
v    136.752743 18.300330 4.954295
v    134.861519 18.035512 6.239740
v    133.087367 17.765282 6.814973
v    131.734739 17.613887 7.249491
v    137.626659 20.505998 3.687172
v    136.964499 20.285579 4.335679
v    136.335389 20.064627 4.954295
v    134.525960 19.454034 6.239740
v    132.818769 18.900733 6.814973
v    131.541670 18.430051 7.249491
v    138.595695 18.396392 4.112548
v    142.090917 19.585640 4.112548
v    139.313387 22.017967 4.112548
v    141.404305 21.603608 5.999272
v    137.909083 20.414360 5.999272
v    140.686613 17.982033 5.999272
v    140.284005 22.530495 5.432070
v    141.512728 23.704213 7.011077
v    143.448789 25.536421 8.835698
v    145.883682 27.899486 9.923283
v    147.330097 29.195830 10.543364
v    147.742438 29.569681 10.537027
v    142.470902 20.615395 5.432070
v    143.472241 21.988236 7.011077
v    145.032987 24.149114 8.835698
v    147.054134 26.874503 9.923283
v    148.148306 28.479312 10.543364
v    148.464484 28.937374 10.537027
v    141.718982 21.097521 5.999272
v    138.190028 20.939922 5.999272
v    140.090990 17.962557 5.999272
v    138.281018 18.902479 12.880915
v    141.809972 19.060078 12.880915
v    139.909010 22.037443 12.880915
v    139.368064 17.298907 12.139461
v    137.258924 16.203080 14.348128
v    134.301129 14.677008 16.588730
v    129.908573 12.350432 18.181992
v    128.103938 11.484463 18.821013
v    126.921948 10.908903 18.806046
v    126.192079 10.666622 18.797501
v    137.283783 20.563393 12.139461
v    135.402155 19.111228 14.348128
v    132.773106 17.070260 16.588730
v    128.814118 14.064613 18.181992
v    127.269144 12.791952 18.821013
v    126.249630 11.961915 18.806046
v    125.722707 11.401771 18.797501
v    138.420020 18.861621 12.880915
v    141.775855 19.200887 12.880915
v    139.804125 21.937492 12.880915
v    141.579980 21.138379 19.681199
v    138.224145 20.799113 19.681199
v    140.195875 18.062508 19.681199
v    140.092813 23.085648 18.731004
v    142.680320 24.620190 21.526488
v    146.391052 26.799759 24.432869
v    151.437076 29.846634 26.322271
v    154.102025 31.314743 27.293604
v    155.135497 31.891837 27.280128
v    156.868116 32.577111 27.259427
v    142.956353 19.111283 18.731004
v    145.231054 21.079974 21.526488
v    148.473169 23.909947 24.432869
v    152.960674 27.732001 26.322271
v    155.196873 29.795182 27.293604
v    156.071434 30.592830 27.280128
v    157.269927 32.019429 27.259427
v    141.554633 21.012481 19.681199
v    138.345849 20.840111 19.681199
v    140.099518 18.147408 19.681199
v    138.445367 18.987519 30.874713
v    141.654151 19.159889 30.874713
v    139.900482 21.852592 30.874713
v    140.236970 16.393751 29.680938
v    136.857240 14.598803 33.236995
v    132.120820 12.093649 36.844467
v    124.654914 8.052416 39.565628
v    122.200528 6.847251 40.438546
v    119.847014 5.674798 40.408611
v    116.893870 4.664777 40.373934
v    136.797525 21.674914 29.680938
v    133.789268 19.309579 33.236995
v    129.582879 15.990580 36.844467
v    122.867921 10.796289 39.565628
v    120.773245 9.038800 40.438546
v    118.749275 7.360344 40.408611
v    116.631406 5.067783 40.373934
v    138.492100 19.163661 30.874713
v    141.478241 19.112290 30.874713
v    140.029659 21.724049 30.874713
v    141.507900 20.836339 48.405579
v    138.521759 20.887710 48.405579
v    139.970341 18.275951 48.405579
v    139.408701 24.403315 46.935251
v    143.717482 26.313784 51.315113
v    147.682170 28.121292 54.251760
v    149.731921 29.020064 55.758301
v    162.312224 34.717716 60.184995
v    168.950519 37.473588 60.103145
v    171.337705 38.105249 60.075709
v    173.253614 38.604173 59.725008
v    143.422311 17.166873 46.935251
v    147.324454 19.810499 51.315113
v    150.957060 22.216743 54.251760
v    152.804829 23.479685 55.758301
v    164.299399 31.134886 60.184995
v    170.152170 35.307040 60.103145
v    171.952013 36.997667 60.075709
v    173.389716 38.358785 59.725008
v    141.326981 20.352985 48.405579
v    139.030815 20.972707 48.405579
v    139.642204 18.674308 48.405579
v    138.673019 19.647015 69.797393
v    140.969185 19.027293 69.797393
v    140.357796 21.325692 69.797393
v    140.098664 14.783834 68.022027
v    134.490435 13.815766 73.310545
v    128.434393 12.705370 77.460142
v    110.244328 9.438958 84.020591
v    100.596200 7.970602 83.909408
v    94.780910 7.914758 83.189693
v    137.493944 24.575785 68.022027
v    132.145946 22.629429 73.310545
v    126.338604 20.584091 77.460142
v    108.929723 14.380965 84.020591
v    99.827195 10.861531 83.909408
v    94.752746 8.020637 83.189693
v    139.029558 19.597160 69.797393
v    140.834091 19.360993 69.797393
v    140.136351 21.041847 69.797393
v    140.970442 20.402840 89.686232
v    139.165909 20.639007 89.686232
v    139.863649 18.958153 89.686232
v    138.672366 25.545015 87.584666
v    145.099478 27.564252 93.844880
v    147.590466 28.375437 95.610492
v    154.097344 30.390379 100.195607
v    169.472155 35.354916 105.374292
v    172.936704 36.323616 106.522758
v    178.614759 37.946427 106.455527
v    185.759191 38.995115 106.375297
v    142.989573 15.144873 87.584666
v    148.957266 18.270849 93.844880
v    151.290434 19.462221 95.610492
v    157.311403 22.647718 100.195607
v    171.682211 30.030896 105.374292
v    174.814287 31.800524 106.522758
v    179.972383 34.675912 106.455527
v    185.759191 38.995115 106.375297
v    140.584647 20.481061 89.686232
v    139.291066 20.265788 89.686232
v    140.124288 19.253151 89.686232
v    139.415353 19.518939 113.647490
v    140.708934 19.734212 113.647490
v    139.875712 20.746849 113.647490
v    143.766098 14.507171 111.208668
v    137.311224 10.096373 118.473510
v    133.769293 7.621604 121.385609
v    128.286096 3.907757 125.843391
v    111.681433 -7.632698 132.324958
v    102.347499 -13.642184 133.090230
v    95.380458 -16.928793 133.004641
v    94.776888 -17.210629 132.886643
v    135.335259 24.753404 111.208668
v    129.763952 19.268782 118.473510
v    126.653408 16.269738 121.385609
v    121.953131 11.604386 125.843391
v    107.430990 -2.467017 132.324958
v    99.736477 -10.468935 133.090230
v    95.169683 -16.672633 133.004641
v    94.776888 -17.210629 132.886643
v    139.659857 19.644116 113.647490
v    140.478276 19.883370 113.647490
v    139.861867 20.472515 113.647490
v    140.340143 20.355884 121.595000
v    139.521724 20.116630 121.595000
v    140.138133 19.527485 121.595000
v    136.940566 24.250378 116.119534
v    141.680560 27.852377 126.713471
v    144.199983 29.901773 130.840803
v    149.152284 33.454850 138.513568
v    151.061245 34.956315 140.246819
v    157.931761 38.761606 145.651870
v    144.384344 17.135846 116.119534
v    147.768373 22.033833 126.713471
v    149.701776 24.643330 130.840803
v    153.027336 29.751197 138.513568
v    154.440964 31.726084 140.246819
v    157.931761 38.761606 145.651870
v    142.463786 21.601440 1.088278
v    143.209424 21.881146 1.645040
v    143.981714 22.182617 1.910777
v    144.614780 22.401212 2.124590
v    145.179589 22.523148 2.118159
v    142.779735 20.952852 1.088278
v    143.459609 21.367558 1.645040
v    144.173051 21.789836 1.910777
v    144.735412 22.153573 2.124590
v    145.179589 22.523148 2.118159
v    136.567670 16.777663 2.729135
v    135.955328 16.363887 2.966020
v    135.270789 15.939885 3.223082
v    135.107085 15.837182 3.220882
v    134.402305 15.515948 3.212276
v    136.106213 17.353726 2.729135
v    135.568762 16.846459 2.966020
v    135.005577 16.270965 3.223082
v    134.869619 16.133624 3.220882
v    134.402305 15.515948 3.212276
v    145.187515 22.457411 4.150730
v    146.380498 22.761726 4.543782
v    147.069621 22.838483 4.759293
v    147.415526 22.881198 4.755421
v    145.485847 21.689573 4.150730
v    146.571346 22.270530 4.543782
v    147.131520 22.679169 4.759293
v    147.415526 22.881198 4.755421
v    131.734739 17.613887 7.249491
v    131.232038 17.557622 7.410979
v    130.880082 17.567258 7.520412
v    129.787300 17.584127 7.508269
v    131.541670 18.430051 7.249491
v    131.067041 18.255123 7.410979
v    130.756704 18.088818 7.520412
v    129.787300 17.584127 7.508269
v    147.742438 29.569681 10.537027
v    149.359756 30.688120 10.515173
v    148.464484 28.937374 10.537027
v    149.359756 30.688120 10.515173
v    126.192079 10.666622 18.797501
v    124.504046 10.106276 18.777740
v    125.722707 11.401771 18.797501
v    124.504046 10.106276 18.777740
v    156.868116 32.577111 27.259427
v    158.171528 33.092628 27.243854
v    157.269927 32.019429 27.259427
v    158.171528 33.092628 27.243854
v    116.893870 4.664777 40.373934
v    115.965918 4.347403 40.363037
v    116.631406 5.067783 40.373934
v    115.965918 4.347403 40.363037
v    173.253614 38.604173 59.725008
v    173.798898 38.746171 59.625195
v    173.389716 38.358785 59.725008
v    173.798898 38.746171 59.625195
v    94.780910 7.914758 83.189693
v    94.560914 7.912923 83.150722
v    94.752746 8.020637 83.189693
v    94.560914 7.912923 83.150722
mtllib usm_44_2.5D_2018-08-07_3.mtl
usemtl APPID_3790433648_2353137048096 
o vid_3 
f 3 2 1
f 4 5 6
f 1 6 5
f 1 5 3
f 3 5 4
f 4 2 3
f 2 4 6
f 6 1 2
usemtl APPID_3790431744_2353137048352 
o vid_4 
f 7 10 11
f 7 11 8
f 8 11 12
f 8 12 9
usemtl APPID_3790433648_2353137048096 
o vid_5 
f 15 14 13
f 16 17 18
f 13 18 17
f 13 17 15
f 15 17 16
f 16 14 15
f 14 16 18
f 18 13 14
usemtl APPID_3790431744_2353137048352 
o vid_6 
f 19 23 24
f 20 24 25
f 19 24 20
f 20 25 21
f 21 25 26
f 21 26 22
usemtl APPID_3790433648_2353137048096 
o vid_7 
f 29 28 27
f 30 31 32
f 27 32 31
f 27 31 29
f 29 31 30
f 30 28 29
f 28 30 32
f 32 27 28
usemtl APPID_3790431744_2353137048352 
o vid_8 
f 33 39 40
f 34 40 41
f 35 41 42
f 36 42 43
f 33 40 34
f 34 41 35
f 35 42 36
f 36 43 37
f 37 43 44
f 37 44 38
usemtl APPID_3790433648_2353137048096 
o vid_9 
f 47 46 45
f 48 49 50
f 45 50 49
f 45 49 47
f 47 49 48
f 48 46 47
f 46 48 50
f 50 45 46
usemtl APPID_3790431744_2353137048352 
o vid_10 
f 51 57 58
f 52 58 59
f 53 59 60
f 54 60 61
f 51 58 52
f 52 59 53
f 53 60 54
f 54 61 55
f 55 61 62
f 55 62 56
usemtl APPID_3790433648_2353137048096 
o vid_11 
f 65 64 63
f 66 67 68
f 63 68 67
f 63 67 65
f 65 67 66
f 66 64 65
f 64 66 68
f 68 63 64
usemtl APPID_3790431744_2353137048352 
o vid_12 
f 69 75 76
f 70 76 77
f 71 77 78
f 72 78 79
f 69 76 70
f 70 77 71
f 71 78 72
f 72 79 73
f 73 79 80
f 73 80 74
usemtl APPID_3790433648_2353137048096 
o vid_13 
f 83 82 81
f 84 85 86
f 81 86 85
f 81 85 83
f 83 85 84
f 84 82 83
f 82 84 86
f 86 81 82
usemtl APPID_3790431744_2353137048352 
o vid_14 
f 87 94 95
f 88 95 96
f 89 96 97
f 90 97 98
f 91 98 99
f 87 95 88
f 88 96 89
f 89 97 90
f 90 98 91
f 91 99 92
f 92 99 100
f 92 100 93
usemtl APPID_3790433648_2353137048096 
o vid_15 
f 103 102 101
f 104 105 106
f 101 106 105
f 101 105 103
f 103 105 104
f 104 102 103
f 102 104 106
f 106 101 102
usemtl APPID_3790431744_2353137048352 
o vid_16 
f 107 114 115
f 108 115 116
f 109 116 117
f 110 117 118
f 111 118 119
f 107 115 108
f 108 116 109
f 109 117 110
f 110 118 111
f 111 119 112
f 112 119 120
f 112 120 113
usemtl APPID_3790433648_2353137048096 
o vid_17 
f 123 122 121
f 124 125 126
f 121 126 125
f 121 125 123
f 123 125 124
f 124 122 123
f 122 124 126
f 126 121 122
usemtl APPID_3790431744_2353137048352 
o vid_18 
f 127 134 135
f 128 135 136
f 129 136 137
f 130 137 138
f 131 138 139
f 127 135 128
f 128 136 129
f 129 137 130
f 130 138 131
f 131 139 132
f 132 139 140
f 132 140 133
usemtl APPID_3790433648_2353137048096 
o vid_19 
f 143 142 141
f 144 145 146
f 141 146 145
f 141 145 143
f 143 145 144
f 144 142 143
f 142 144 146
f 146 141 142
usemtl APPID_3790431744_2353137048352 
o vid_20 
f 147 155 156
f 148 156 157
f 149 157 158
f 150 158 159
f 151 159 160
f 152 160 161
f 147 156 148
f 148 157 149
f 149 158 150
f 150 159 151
f 151 160 152
f 152 161 153
f 153 161 162
f 153 162 154
usemtl APPID_3790433648_2353137048096 
o vid_21 
f 165 164 163
f 166 167 168
f 163 168 167
f 163 167 165
f 165 167 166
f 166 164 165
f 164 166 168
f 168 163 164
usemtl APPID_3790431744_2353137048352 
o vid_22 
f 169 175 176
f 170 176 177
f 171 177 178
f 172 178 179
f 169 176 170
f 170 177 171
f 171 178 172
f 172 179 173
f 173 179 180
f 173 180 174
usemtl APPID_3790433648_2353137048096 
o vid_23 
f 183 182 181
f 184 185 186
f 181 186 185
f 181 185 183
f 183 185 184
f 184 182 183
f 182 184 186
f 186 181 182
usemtl APPID_3790431744_2353137048352 
o vid_24 
f 187 195 196
f 188 196 197
f 189 197 198
f 190 198 199
f 191 199 200
f 192 200 201
f 187 196 188
f 188 197 189
f 189 198 190
f 190 199 191
f 191 200 192
f 192 201 193
f 193 201 202
usemtl APPID_3790433648_2353137048096 
o vid_25 
f 205 204 203
f 206 207 208
f 203 208 207
f 203 207 205
f 205 207 206
f 206 204 205
f 204 206 208
f 208 203 204
usemtl APPID_3790431744_2353137048352 
o vid_26 
f 209 217 218
f 210 218 219
f 211 219 220
f 212 220 221
f 213 221 222
f 214 222 223
f 209 218 210
f 210 219 211
f 211 220 212
f 212 221 213
f 213 222 214
f 214 223 215
f 215 223 224
usemtl APPID_3790433648_2353137048096 
o vid_27 
f 227 226 225
f 228 229 230
f 225 230 229
f 225 229 227
f 227 229 228
f 228 226 227
f 226 228 230
f 230 225 226
usemtl APPID_3790431744_2353137048352 
o vid_28 
f 231 237 238
f 232 238 239
f 233 239 240
f 234 240 241
f 231 238 232
f 232 239 233
f 233 240 234
f 234 241 235
f 235 241 242
usemtl APPID_3790433312_2353137050656 
o vid_10000004 
f 243 248 249
f 244 249 250
f 245 250 251
f 243 249 244
f 244 250 245
f 245 251 246
f 246 251 252
usemtl APPID_3790433312_2353137050656 
o vid_10000006 
f 253 258 259
f 254 259 260
f 255 260 261
f 253 259 254
f 254 260 255
f 255 261 256
f 256 261 262
usemtl APPID_3790433312_2353137050656 
o vid_10000008 
f 263 267 268
f 264 268 269
f 263 268 264
f 264 269 265
f 265 269 270
usemtl APPID_3790433312_2353137050656 
o vid_10000010 
f 271 275 276
f 272 276 277
f 271 276 272
f 272 277 273
f 273 277 278
usemtl APPID_3790433312_2353137050656 
o vid_10000012 
f 279 281 282
f 279 282 280
f 279 281 282
usemtl APPID_3790433312_2353137050656 
o vid_10000014 
f 283 285 286
f 283 286 284
f 283 285 286
usemtl APPID_3790433312_2353137050656 
o vid_10000016 
f 287 289 290
f 287 290 288
f 287 289 290
usemtl APPID_3790433312_2353137050656 
o vid_10000018 
f 291 293 294
f 291 294 292
f 291 293 294
usemtl APPID_3790433312_2353137050656 
o vid_10000020 
f 295 297 298
f 295 298 296
f 295 297 298
usemtl APPID_3790433312_2353137050656 
o vid_10000022 
f 299 301 302
f 299 302 300
f 299 301 302
