# File generated by PlantGL - Fri Sep  4 14:43:09 2026
v    19.479461 19.746428 0.000000
v    20.479869 19.675986 0.000000
v    20.040670 20.577586 0.000000
v    20.520539 20.253572 0.158000
v    19.520131 20.324014 0.158000
v    19.959330 19.422414 0.158000
v    20.517603 20.304915 -0.562403
v    20.574133 20.279679 -0.357910
v    20.559158 20.219610 -0.562403
v    20.574133 20.279679 -0.357910
mtllib usm_41_2.5D_2018-07-07_0.mtl
usemtl APPID_2128174576_2746615971952 
o vid_3 
f 3 2 1
f 4 5 6
f 1 6 5
f 1 5 3
f 3 5 4
f 4 2 3
f 2 4 6
f 6 1 2
usemtl APPID_2128176480_2746615969136 
o vid_4 
f 7 9 10
f 7 10 8
f 7 9 10
