# File generated by PlantGL - Fri Sep  4 14:41:47 2026
v    38.201987 19.124129 0.000000
v    41.657533 18.880811 0.000000
v    40.140480 21.995060 0.000000
v    41.798013 20.875871 0.231332
v    38.342467 21.119189 0.231332
v    39.859520 18.004940 0.231332
v    40.886409 20.731855 -2.819999
v    41.776009 20.865152 -2.003571
v    41.122677 20.246837 -2.819999
v    41.776009 20.865152 -2.003571
v    41.503548 21.204422 0.231332
v    38.205166 20.699900 0.231332
v    40.291286 18.095678 0.231332
v    38.496452 18.795578 0.322957
v    41.794834 19.300100 0.322957
v    39.708714 21.904322 0.322957
v    39.401526 19.077451 -2.728374
v    38.326604 18.659521 -1.681613
v    38.969071 19.617310 -2.728374
v    38.326604 18.659521 -1.681613
v    38.272844 19.328938 0.322957
v    41.444735 18.839770 0.322957
v    40.282421 21.831292 0.322957
v    41.727156 20.671062 0.466906
v    38.555265 21.160230 0.466906
v    39.717579 18.168708 0.466906
v    40.729545 20.801617 -2.584426
v    42.336632 20.907865 -1.122625
v    41.079382 19.901216 -2.584426
v    42.336632 20.907865 -1.122625
v    41.731622 20.409625 0.466906
v    38.779443 21.294816 0.466906
v    39.488935 18.295559 0.466906
v    38.268378 19.590375 0.679271
v    41.220557 18.705184 0.679271
v    40.511065 21.704441 0.679271
v    39.286890 19.118835 -2.372060
v    36.980880 19.285810 -0.273612
v    38.967673 20.468272 -2.372060
v    36.980880 19.285810 -0.273612
v    38.876148 18.716648 0.679271
v    41.673341 19.668392 0.679271
v    39.450510 21.614960 0.679271
v    41.123852 21.283352 0.904206
v    38.326659 20.331608 0.904206
v    40.549490 18.385040 0.904206
v    39.733484 21.327722 -2.147125
v    42.795815 23.192606 1.107109
v    41.351278 19.910994 -2.147125
v    42.795815 23.192606 1.107109
v    41.375838 20.878433 0.904206
v    38.551335 20.752294 0.904206
v    40.072827 18.369272 0.904206
v    38.624162 19.121567 1.433321
v    41.448665 19.247706 1.433321
v    39.927173 21.630728 1.433321
v    40.190121 18.309006 -1.618010
v    35.272218 16.981446 3.005322
v    38.546024 20.884059 -1.618010
v    35.272218 16.981446 3.005322
v    38.735263 19.088754 1.433321
v    41.421531 19.360328 1.433321
v    39.843206 21.550918 1.433321
v    41.264737 20.911246 2.225064
v    38.578469 20.639672 2.225064
v    40.156794 18.449082 2.225064
v    39.213767 22.247999 -0.826267
v    46.541729 24.713331 6.201398
v    41.883517 18.542597 -0.826267
v    46.541729 24.713331 6.201398
v    41.172617 20.763687 2.225064
v    38.752319 20.633673 2.225064
v    40.075063 18.602640 2.225064
v    38.827383 19.236313 3.119460
v    41.247681 19.366327 3.119460
v    39.924937 21.397360 3.119460
v    40.899365 17.672133 0.068129
v    39.717823 17.133355 1.289836
v    32.498092 15.114257 8.093998
v    38.234577 21.763832 0.068129
v    37.264054 20.901042 1.289836
v    32.498092 15.114257 8.093998
v    39.029736 19.461854 3.119460
v    40.951180 19.428800 3.119460
v    40.019084 21.109346 3.119460
v    40.970264 20.538146 4.388399
v    39.048820 20.571200 4.388399
v    39.980916 18.890654 4.388399
v    38.822211 22.591337 1.337068
v    42.530551 23.974314 5.060586
v    48.105230 25.114979 10.225079
v    50.128185 25.617482 11.492893
v    41.574641 17.628772 1.337068
v    44.711376 20.042337 5.060586
v    48.630766 24.167449 10.225079
v    50.128185 25.617482 11.492893
v    40.814306 20.216611 4.388399
v    39.405257 20.596905 4.388399
v    39.780437 19.186485 4.388399
v    39.185694 19.783389 6.196783
v    40.594743 19.403095 6.196783
v    40.219563 20.813515 6.196783
v    40.880567 16.845210 3.145452
v    34.024567 16.084184 9.635181
v    31.384791 16.201950 12.033464
v    25.783834 16.218412 15.440147
v    39.196712 23.175347 3.145452
v    32.868726 20.429351 9.635181
v    30.636353 19.015564 12.033464
v    25.783834 16.218412 15.440147
v    39.447034 19.770458 6.196783
v    40.475272 19.635889 6.196783
v    40.077694 20.593653 6.196783
v    40.552966 20.229542 8.225117
v    39.524728 20.364111 8.225117
v    39.922306 19.406347 8.225117
v    38.456696 22.977339 5.173786
v    45.702719 24.801394 12.206217
v    47.739104 24.982899 14.061798
v    53.976472 25.801779 17.888105
v    41.018907 16.804978 5.173786
v    47.426545 20.648700 12.206217
v    48.992822 21.962697 14.061798
v    53.976472 25.801779 17.888105
v    40.291725 20.240038 8.225117
v    39.646259 20.132622 8.225117
v    40.062017 19.627340 8.225117
v    39.708275 19.759962 9.183000
v    40.353741 19.867378 9.183000
v    39.937983 20.372660 9.183000
v    41.470074 18.003705 3.019995
v    40.809125 17.754420 4.995107
v    36.936009 17.478877 14.345024
v    38.324177 21.827000 3.019995
v    37.952274 21.226430 4.995107
v    36.936009 17.478877 14.345024
mtllib usm_7_2.5D_2018-08-09_0.mtl
usemtl APPID_3511007616_2305620159952 
o vid_3 
f 3 2 1
f 4 5 6
f 1 6 5
f 1 5 3
f 3 5 4
f 4 2 3
f 2 4 6
f 6 1 2
usemtl APPID_3511003248_2305620160848 
o vid_4 
f 7 9 10
f 7 10 8
f 7 9 10
usemtl APPID_3511007616_2305620159952 
o vid_5 
f 13 12 11
f 14 15 16
f 11 16 15
f 11 15 13
f 13 15 14
f 14 12 13
f 12 14 16
f 16 11 12
usemtl APPID_3511003248_2305620160848 
o vid_6 
f 17 19 20
f 17 20 18
f 17 19 20
usemtl APPID_3511007616_2305620159952 
o vid_7 
f 23 22 21
f 24 25 26
f 21 26 25
f 21 25 23
f 23 25 24
f 24 22 23
f 22 24 26
f 26 21 22
usemtl APPID_3511003248_2305620160848 
o vid_8 
f 27 29 30
f 27 30 28
f 27 29 30
usemtl APPID_3511007616_2305620159952 
o vid_9 
f 33 32 31
f 34 35 36
f 31 36 35
f 31 35 33
f 33 35 34
f 34 32 33
f 32 34 36
f 36 31 32
usemtl APPID_3511003248_2305620160848 
o vid_10 
f 37 39 40
f 37 40 38
f 37 39 40
usemtl APPID_3511007616_2305620159952 
o vid_11 
f 43 42 41
f 44 45 46
f 41 46 45
f 41 45 43
f 43 45 44
f 44 42 43
f 42 44 46
f 46 41 42
usemtl APPID_3511003248_2305620160848 
o vid_12 
f 47 49 50
f 47 50 48
f 47 49 50
usemtl APPID_3511007616_2305620159952 
o vid_13 
f 53 52 51
f 54 55 56
f 51 56 55
f 51 55 53
f 53 55 54
f 54 52 53
f 52 54 56
f 56 51 52
usemtl APPID_3511003248_2305620160848 
o vid_14 
f 57 59 60
f 57 60 58
f 57 59 60
usemtl APPID_3511007616_2305620159952 
o vid_15 
f 63 62 61
f 64 65 66
f 61 66 65
f 61 65 63
f 63 65 64
f 64 62 63
f 62 64 66
f 66 61 62
usemtl APPID_3511003248_2305620160848 
o vid_16 
f 67 69 70
f 67 70 68
f 67 69 70
usemtl APPID_3511007616_2305620159952 
o vid_17 
f 73 72 71
f 74 75 76
f 71 76 75
f 71 75 73
f 73 75 74
f 74 72 73
f 72 74 76
f 76 71 72
usemtl APPID_3511003248_2305620160848 
o vid_18 
f 77 80 81
f 77 81 78
f 78 81 82
usemtl APPID_3511007616_2305620159952 
o vid_19 
f 85 84 83
f 86 87 88
f 83 88 87
f 83 87 85
f 85 87 86
f 86 84 85
f 84 86 88
f 88 83 84
usemtl APPID_3511003248_2305620160848 
o vid_20 
f 89 93 94
f 90 94 95
f 89 94 90
f 90 95 91
f 91 95 96
usemtl APPID_3511007616_2305620159952 
o vid_21 
f 99 98 97
f 100 101 102
f 97 102 101
f 97 101 99
f 99 101 100
f 100 98 99
f 98 100 102
f 102 97 98
usemtl APPID_3511003248_2305620160848 
o vid_22 
f 103 107 108
f 104 108 109
f 103 108 104
f 104 109 105
f 105 109 110
usemtl APPID_3511007616_2305620159952 
o vid_23 
f 113 112 111
f 114 115 116
f 111 116 115
f 111 115 113
f 113 115 114
f 114 112 113
f 112 114 116
f 116 111 112
usemtl APPID_3511003248_2305620160848 
o vid_24 
f 117 121 122
f 118 122 123
f 117 122 118
f 118 123 119
f 119 123 124
usemtl APPID_3511007616_2305620159952 
o vid_25 
f 127 126 125
f 128 129 130
f 125 130 129
f 125 129 127
f 127 129 128
f 128 126 127
f 126 128 130
f 130 125 126
usemtl APPID_3511003248_2305620160848 
o vid_26 
f 131 134 135
f 131 135 132
f 132 135 136
