# File generated by PlantGL - Wed Jul 15 17:36:53 2026
v    20.701807 139.124129 0.000000
v    24.157353 138.880811 0.000000
v    22.640300 141.995060 0.000000
v    24.297833 140.875871 3.802806
v    20.842287 141.119189 3.802806
v    22.359340 138.004940 3.802806
v    23.893806 141.519368 3.538888
v    24.797314 141.866393 4.388787
v    25.748476 142.244200 4.982798
v    26.165882 142.403414 5.241793
v    27.538046 142.941490 5.636025
v    28.906345 143.446304 5.624849
v    29.576317 143.660904 5.418750
v    30.226733 143.764032 5.232305
v    24.555479 140.161067 3.538888
v    25.385676 140.658587 4.388787
v    26.269487 141.174655 4.982798
v    26.652153 141.405182 5.241793
v    27.921678 142.153960 5.636025
v    29.162629 142.920197 5.624849
v    29.744595 143.315457 5.418750
v    30.226733 143.764032 5.232305
v    23.995716 141.198293 3.802806
v    20.714120 140.696338 3.802806
v    22.789624 138.105369 3.802806
v    21.003924 138.801707 8.831485
v    24.285520 139.303662 8.831485
v    22.210016 141.894631 8.831485
v    21.810954 137.989564 8.435627
v    20.603689 137.183339 9.710414
v    19.278761 136.276562 10.642256
v    18.779375 135.944733 10.989861
v    16.949542 134.704150 11.581180
v    15.115646 133.511924 11.564416
v    14.140330 132.934367 11.232224
v    13.222784 132.568600 10.952569
v    20.387503 139.766539 8.435627
v    19.337218 138.764346 9.710414
v    18.163124 137.669274 10.642256
v    17.730300 137.254353 10.989861
v    16.120248 135.739405 11.581180
v    14.556500 134.209937 11.564416
v    13.779996 133.384193 11.232224
v    13.222784 132.568600 10.952569
v    20.790941 139.336039 8.831485
v    23.929266 138.852048 8.831485
v    22.779253 141.811913 8.831485
v    24.208699 140.663961 19.751381
v    21.070374 141.147952 19.751381
v    22.220387 138.188087 19.751381
v    23.422731 142.198634 19.178191
v    25.440576 142.787615 21.024043
v    28.494274 143.716796 22.876644
v    31.560666 144.635470 23.732856
v    32.882687 145.035309 23.722251
v    34.602478 145.509215 23.708583
v    35.768061 145.824984 23.353146
v    37.154841 146.141662 22.936584
v    38.581122 146.248162 22.531653
v    24.665043 139.001216 19.178191
v    26.551216 139.929087 21.024043
v    29.431205 141.305356 22.876644
v    32.313463 142.697946 23.732856
v    33.558643 143.295556 23.722251
v    35.147256 144.107084 23.708583
v    36.220275 144.661092 23.353146
v    37.457079 145.363771 22.936584
v    38.581122 146.248162 22.531653
v    24.202820 140.402854 19.751381
v    21.299438 141.273414 19.751381
v    21.997202 138.323732 19.751381
v    20.796820 139.597146 37.004736
v    23.700202 138.726586 37.004736
v    23.002438 141.676268 37.004736
v    21.577703 137.369734 36.203522
v    18.670567 136.943150 38.783679
v    14.892735 136.344797 41.003667
v    9.839313 135.573118 42.570094
v    8.694204 135.393722 42.561194
v    5.455224 134.968328 42.536165
v    4.516565 134.849178 42.257669
v    2.535591 134.677981 41.675392
v    0.540429 134.805379 41.109374
v    20.496971 141.938348 36.203522
v    17.706825 141.017208 38.783679
v    14.061306 139.859524 41.003667
v    9.197735 138.285280 42.570094
v    8.093616 137.932609 42.561194
v    5.007331 136.861724 42.536165
v    4.114772 136.547690 42.257669
v    2.267051 135.813187 41.675392
v    0.540429 134.805379 41.109374
v    21.401804 138.746150 37.004736
v    24.134694 139.676015 37.004736
v    21.962962 141.577834 37.004736
v    23.597836 141.253850 60.162058
v    20.864946 140.323985 60.162058
v    23.036678 138.422166 60.162058
v    20.790637 143.268845 59.080905
v    21.904148 144.397956 60.476229
v    23.595822 146.062830 62.562554
v    27.891373 150.281389 66.056931
v    30.843620 153.226802 67.173390
v    32.179119 154.526906 67.671919
v    36.440180 158.697553 67.626135
v    41.115673 163.045348 65.746222
v    45.223648 165.948860 63.375149
v    25.965598 138.737050 59.080905
v    26.937921 139.989801 60.476229
v    28.365041 141.886350 62.562554
v    31.979966 146.700944 66.056931
v    34.510110 150.015999 67.173390
v    35.622642 151.511358 67.671919
v    39.194625 156.285442 67.626135
v    42.887526 161.493709 65.746222
v    45.223648 165.948860 63.375149
v    23.834342 140.852054 60.162058
v    21.094659 140.729703 60.162058
v    22.570460 138.418243 60.162058
v    21.165298 139.147946 120.617660
v    23.904981 139.270297 120.617660
v    22.429180 141.581757 120.617660
v    23.972144 135.559059 119.209295
v    20.542835 133.645250 122.664751
v    12.551194 129.352662 128.296625
v    6.734564 126.168174 130.071945
v    -1.197853 121.927196 130.340751
v    -3.261650 120.831525 129.651346
v    -9.681148 117.633352 127.540372
v    -15.788716 115.553862 124.203331
v    19.090802 143.204417 119.209295
v    15.911599 140.898880 122.664751
v    8.654608 135.455652 128.296625
v    3.318100 131.519179 130.071945
v    -3.867151 126.107958 130.340751
v    -5.729556 124.696861 129.651346
v    -11.332174 120.219256 127.540372
v    -15.788716 115.553862 124.203331
v    21.441341 139.237363 120.617660
v    23.689522 139.464649 120.617660
v    22.368597 141.297988 120.617660
v    23.558299 140.762637 169.869379
v    21.310118 140.535351 169.869379
v    22.631043 138.702012 169.869379
v    19.914255 144.885706 168.098320
v    25.465451 148.250054 173.801683
v    33.877882 153.397908 179.525897
v    36.744106 155.183058 180.429897
v    42.312663 158.557166 182.171444
v    48.878241 162.559721 182.112399
v    56.781697 167.077799 180.029840
v    60.683722 169.100684 178.742734
v    64.652747 170.371283 176.861408
v    26.315828 136.000831 168.098320
v    31.264392 140.201585 173.801683
v    38.810467 146.551872 179.525897
v    41.411117 148.705618 180.429897
v    46.374435 152.919750 182.171444
v    52.249488 157.880698 182.112399
v    59.037057 163.947539 180.029840
v    62.191098 167.008565 178.742734
v    64.652747 170.371283 176.861408
v    23.346805 140.551613 169.869379
v    21.598617 140.457704 169.869379
v    22.554038 138.990683 169.869379
v    21.652835 139.448387 207.313519
v    23.401023 139.542296 207.313519
v    22.445602 141.009317 207.313519
v    25.394841 134.917940 205.163508
v    18.440451 131.202503 212.087211
v    14.815923 129.212710 214.487045
v    7.886376 125.531101 219.036227
v    0.716210 121.635653 221.218840
v    -2.718379 119.882352 222.247838
v    -9.316684 116.484291 222.190973
v    -13.377735 114.586751 222.156790
v    -19.470881 112.665880 220.335207
v    19.022338 144.702722 205.163508
v    12.812186 139.844531 212.087211
v    9.526740 137.334088 214.487045
v    3.357572 132.484941 219.036227
v    -3.104468 127.502186 221.218840
v    -6.096816 125.069838 222.247838
v    -11.872713 120.408994 222.190973
v    -15.250291 117.462002 222.156790
v    -19.470881 112.665880 220.335207
v    21.850084 139.639632 207.313519
v    23.136776 139.617497 207.313519
v    22.512600 140.742872 207.313519
v    23.149556 140.360368 229.374241
v    21.862864 140.382503 229.374241
v    22.487040 139.257128 229.374241
v    19.021783 146.200178 226.854606
v    27.459609 149.966347 234.968614
v    35.087559 153.475697 239.841945
v    40.244011 155.762973 243.112286
v    52.562446 161.364914 246.731884
v    64.840423 166.622018 246.777836
v    70.731527 168.848647 245.251774
v    76.880061 170.161377 243.471777
v    25.917933 133.766586 226.854606
v    33.580590 138.930365 234.968614
v    40.596562 143.543098 239.841945
v    45.267191 146.706300 243.112286
v    56.541911 154.190033 246.731884
v    67.502680 161.822032 246.777836
v    72.510854 165.640562 245.251774
v    76.880061 170.161377 243.471777
v    22.984208 140.128850 229.374241
v    22.146038 140.355067 229.374241
v    22.369213 139.516082 229.374241
v    22.015432 139.871150 237.965000
v    22.853602 139.644933 237.965000
v    22.630427 140.483918 237.965000
v    25.390325 133.130033 232.202928
v    15.832778 131.523137 242.183601
v    0.934243 129.009896 252.629412
v    -4.330261 128.060630 254.527192
v    -14.418968 126.514320 258.139065
v    -18.659522 125.838560 258.447646
v    -25.959503 124.962236 258.973530
v    -30.211986 125.069649 259.268401
v    -33.276796 125.163077 258.648478
v    21.594918 147.398150 232.202928
v    12.502164 144.043951 242.183601
v    -1.676000 138.822610 252.629412
v    -6.716360 137.030719 254.527192
v    -16.239970 133.360032 258.139065
v    -20.255819 131.839538 258.447646
v    -27.026393 128.973008 258.973530
v    -30.663471 126.766923 259.268401
v    -33.276796 125.163077 258.648478
mtllib usm_10_2.5D_2018-09-05_3.mtl
usemtl APPID_1693038320_2419758913120 
o vid_3 
f 3 2 1
f 4 5 6
f 1 6 5
f 1 5 3
f 3 5 4
f 4 2 3
f 2 4 6
f 6 1 2
usemtl APPID_1693044256_2419758912608 
o vid_4 
f 7 15 16
f 8 16 17
f 9 17 18
f 10 18 19
f 11 19 20
f 12 20 21
f 7 16 8
f 8 17 9
f 9 18 10
f 10 19 11
f 11 20 12
f 12 21 13
f 13 21 22
usemtl APPID_1693038320_2419758913120 
o vid_5 
f 25 24 23
f 26 27 28
f 23 28 27
f 23 27 25
f 25 27 26
f 26 24 25
f 24 26 28
f 28 23 24
usemtl APPID_1693044256_2419758912608 
o vid_6 
f 29 37 38
f 30 38 39
f 31 39 40
f 32 40 41
f 33 41 42
f 34 42 43
f 29 38 30
f 30 39 31
f 31 40 32
f 32 41 33
f 33 42 34
f 34 43 35
f 35 43 44
usemtl APPID_1693038320_2419758913120 
o vid_7 
f 47 46 45
f 48 49 50
f 45 50 49
f 45 49 47
f 47 49 48
f 48 46 47
f 46 48 50
f 50 45 46
usemtl APPID_1693044256_2419758912608 
o vid_8 
f 51 60 61
f 52 61 62
f 53 62 63
f 54 63 64
f 55 64 65
f 56 65 66
f 57 66 67
f 51 61 52
f 52 62 53
f 53 63 54
f 54 64 55
f 55 65 56
f 56 66 57
f 57 67 58
f 58 67 68
usemtl APPID_1693038320_2419758913120 
o vid_9 
f 71 70 69
f 72 73 74
f 69 74 73
f 69 73 71
f 71 73 72
f 72 70 71
f 70 72 74
f 74 69 70
usemtl APPID_1693044256_2419758912608 
o vid_10 
f 75 84 85
f 76 85 86
f 77 86 87
f 78 87 88
f 79 88 89
f 80 89 90
f 81 90 91
f 75 85 76
f 76 86 77
f 77 87 78
f 78 88 79
f 79 89 80
f 80 90 81
f 81 91 82
f 82 91 92
usemtl APPID_1693038320_2419758913120 
o vid_11 
f 95 94 93
f 96 97 98
f 93 98 97
f 93 97 95
f 95 97 96
f 96 94 95
f 94 96 98
f 98 93 94
usemtl APPID_1693044256_2419758912608 
o vid_12 
f 99 108 109
f 100 109 110
f 101 110 111
f 102 111 112
f 103 112 113
f 104 113 114
f 105 114 115
f 99 109 100
f 100 110 101
f 101 111 102
f 102 112 103
f 103 113 104
f 104 114 105
f 105 115 106
f 106 115 116
usemtl APPID_1693038320_2419758913120 
o vid_13 
f 119 118 117
f 120 121 122
f 117 122 121
f 117 121 119
f 119 121 120
f 120 118 119
f 118 120 122
f 122 117 118
usemtl APPID_1693044256_2419758912608 
o vid_14 
f 123 131 132
f 124 132 133
f 125 133 134
f 126 134 135
f 127 135 136
f 128 136 137
f 123 132 124
f 124 133 125
f 125 134 126
f 126 135 127
f 127 136 128
f 128 137 129
f 129 137 138
usemtl APPID_1693038320_2419758913120 
o vid_15 
f 141 140 139
f 142 143 144
f 139 144 143
f 139 143 141
f 141 143 142
f 142 140 141
f 140 142 144
f 144 139 140
usemtl APPID_1693044256_2419758912608 
o vid_16 
f 145 154 155
f 146 155 156
f 147 156 157
f 148 157 158
f 149 158 159
f 150 159 160
f 151 160 161
f 145 155 146
f 146 156 147
f 147 157 148
f 148 158 149
f 149 159 150
f 150 160 151
f 151 161 152
f 152 161 162
usemtl APPID_1693038320_2419758913120 
o vid_17 
f 165 164 163
f 166 167 168
f 163 168 167
f 163 167 165
f 165 167 166
f 166 164 165
f 164 166 168
f 168 163 164
usemtl APPID_1693044256_2419758912608 
o vid_18 
f 169 178 179
f 170 179 180
f 171 180 181
f 172 181 182
f 173 182 183
f 174 183 184
f 175 184 185
f 169 179 170
f 170 180 171
f 171 181 172
f 172 182 173
f 173 183 174
f 174 184 175
f 175 185 176
f 176 185 186
usemtl APPID_1693038320_2419758913120 
o vid_19 
f 189 188 187
f 190 191 192
f 187 192 191
f 187 191 189
f 189 191 190
f 190 188 189
f 188 190 192
f 192 187 188
usemtl APPID_1693044256_2419758912608 
o vid_20 
f 193 201 202
f 194 202 203
f 195 203 204
f 196 204 205
f 197 205 206
f 198 206 207
f 193 202 194
f 194 203 195
f 195 204 196
f 196 205 197
f 197 206 198
f 198 207 199
f 199 207 208
usemtl APPID_1693038320_2419758913120 
o vid_21 
f 211 210 209
f 212 213 214
f 209 214 213
f 209 213 211
f 211 213 212
f 212 210 211
f 210 212 214
f 214 209 210
usemtl APPID_1693044256_2419758912608 
o vid_22 
f 215 224 225
f 216 225 226
f 217 226 227
f 218 227 228
f 219 228 229
f 220 229 230
f 221 230 231
f 215 225 216
f 216 226 217
f 217 227 218
f 218 228 219
f 219 229 220
f 220 230 221
f 221 231 222
f 222 231 232
