# File generated by PlantGL - Fri Sep  4 14:43:34 2026
v    58.942117 19.484671 0.000000
v    60.975230 19.341511 0.000000
v    60.082653 21.173818 0.000000
v    61.057883 20.515329 0.331061
v    59.024770 20.658489 0.331061
v    59.917347 18.826182 0.331061
v    60.659049 21.081485 -0.051354
v    61.758032 21.498938 1.062557
v    63.050912 21.981035 1.927651
v    63.421248 22.123559 2.027778
v    64.508851 22.509814 2.318249
v    65.196259 22.665375 2.492015
v    65.714604 22.783771 2.382108
v    61.257830 19.852289 -0.051354
v    62.263979 20.460316 1.062557
v    63.440553 21.181170 1.927651
v    63.781062 21.384922 2.027778
v    64.755630 22.003219 2.318249
v    65.301856 22.448601 2.492015
v    65.714604 22.783771 2.382108
v    60.649702 20.520446 0.331061
v    59.224430 20.302435 0.331061
v    60.125868 19.177119 0.331061
v    59.350298 19.479554 0.595348
v    60.775570 19.697565 0.595348
v    59.874132 20.822881 0.595348
v    60.062434 18.836262 0.064276
v    58.701412 17.934609 1.611201
v    57.097149 16.886524 2.812585
v    56.665002 16.597515 2.943766
v    55.309855 15.741604 3.347152
v    54.397443 15.306882 3.596336
v    53.760529 15.001851 3.450360
v    58.877946 20.314925 0.064276
v    57.700975 19.183511 1.611201
v    56.328013 17.846680 2.812585
v    55.951652 17.488031 2.943766
v    54.820602 16.352366 3.347152
v    54.197218 15.556834 3.596336
v    53.760529 15.001851 3.450360
v    59.523543 19.814879 0.595348
v    60.398548 19.679936 0.595348
v    60.077909 20.505184 0.595348
v    60.476457 20.185121 0.628000
v    59.601452 20.320064 0.628000
v    59.922091 19.494816 0.628000
v    60.341057 20.770113 -0.781070
v    60.432810 20.737109 -0.199035
v    60.897069 20.348544 2.111188
v    60.771533 19.662168 -0.781070
v    60.816935 19.748462 -0.199035
v    60.897069 20.348544 2.111188
mtllib usm_35_2.5D_2018-07-17_1.mtl
usemtl APPID_929260832_1946549149776 
o vid_3 
f 3 2 1
f 4 5 6
f 1 6 5
f 1 5 3
f 3 5 4
f 4 2 3
f 2 4 6
f 6 1 2
usemtl APPID_929259712_1946549151952 
o vid_4 
f 7 14 15
f 8 15 16
f 9 16 17
f 10 17 18
f 11 18 19
f 7 15 8
f 8 16 9
f 9 17 10
f 10 18 11
f 11 19 12
f 12 19 20
usemtl APPID_929260832_1946549149776 
o vid_5 
f 23 22 21
f 24 25 26
f 21 26 25
f 21 25 23
f 23 25 24
f 24 22 23
f 22 24 26
f 26 21 22
usemtl APPID_929259712_1946549151952 
o vid_6 
f 27 34 35
f 28 35 36
f 29 36 37
f 30 37 38
f 31 38 39
f 27 35 28
f 28 36 29
f 29 37 30
f 30 38 31
f 31 39 32
f 32 39 40
usemtl APPID_929260832_1946549149776 
o vid_7 
f 43 42 41
f 44 45 46
f 41 46 45
f 41 45 43
f 43 45 44
f 44 42 43
f 42 44 46
f 46 41 42
usemtl APPID_929259712_1946549151952 
o vid_8 
f 47 50 51
f 47 51 48
f 48 51 52
