# File generated by PlantGL - Fri Sep  4 14:43:13 2026
v    17.752484 218.905161 0.000000
v    22.071916 218.601013 0.000000
v    20.175600 222.493825 0.000000
v    22.247516 221.094839 0.848509
v    17.928084 221.398987 0.848509
v    19.824400 217.506175 0.848509
v    22.063377 221.447113 0.691680
v    22.454722 221.596317 1.080872
v    22.473981 221.603299 1.099878
v    22.411393 220.732694 0.691680
v    22.770113 220.948872 1.080872
v    22.787483 220.959732 1.099878
v    21.879284 221.505407 0.848509
v    17.756638 220.874804 0.848509
v    20.364078 217.619789 0.848509
v    18.120716 218.494593 1.417165
v    22.243362 219.125196 1.417165
v    19.635922 222.380211 1.417165
v    18.490984 218.057900 1.195019
v    18.157716 217.836526 1.566804
v    17.775365 218.951247 1.195019
v    17.486590 218.674331 1.566804
v    17.841416 219.161313 1.417165
v    21.805616 218.549955 1.417165
v    20.352968 222.288732 1.417165
v    22.158584 220.838687 2.253766
v    18.194384 221.450045 2.253766
v    19.647032 217.711268 2.253766
v    21.872847 221.512904 1.945297
v    22.128476 221.586835 2.192576
v    22.283862 221.629023 2.341956
v    22.402999 220.148416 1.945297
v    22.641486 220.266467 2.192576
v    22.784595 220.340254 2.341956
v    22.163962 220.511898 2.253766
v    18.474702 221.618097 2.253766
v    19.361335 217.870005 2.253766
v    17.836038 219.488102 4.112548
v    21.525298 218.381903 4.112548
v    20.638665 222.129995 4.112548
v    18.103460 218.488691 3.692651
v    17.324210 218.376308 4.424260
v    17.063564 218.343076 4.668035
v    17.627340 220.501405 3.692651
v    16.880329 220.252742 4.424260
v    16.632418 220.165672 4.668035
v    18.595695 218.396392 4.112548
v    22.090917 219.585640 4.112548
v    19.313387 222.017967 4.112548
v    21.404305 221.603608 5.999272
v    17.909083 220.414360 5.999272
v    20.686613 217.982033 5.999272
v    20.289203 222.526601 5.438955
v    20.590014 222.813946 5.825521
v    22.466356 220.620034 5.438955
v    22.711500 220.956127 5.825521
v    21.718982 221.097521 5.999272
v    18.190028 220.939922 5.999272
v    20.090990 217.962557 5.999272
v    18.281018 218.902479 11.505015
v    21.809972 219.060078 11.505015
v    19.909010 222.037443 11.505015
v    19.289183 217.421321 10.772050
v    18.211593 216.861448 11.900489
v    17.444725 216.478866 12.695586
v    17.361637 220.440323 10.772050
v    16.400286 219.698391 11.900489
v    15.730520 219.163723 12.695586
v    18.420020 218.861621 11.505015
v    21.775855 219.200887 11.505015
v    19.804125 221.937492 11.505015
v    21.579980 221.138379 19.658889
v    18.224145 220.799113 19.658889
v    20.195875 218.062508 19.658889
v    20.045266 223.152903 18.718965
v    22.393335 224.545444 21.255767
v    23.005098 219.044891 18.718965
v    25.069307 220.831407 21.255767
v    21.554633 221.012481 19.658889
v    18.345849 220.840111 19.658889
v    20.099518 218.147408 19.658889
v    18.445367 218.987519 30.873903
v    21.654151 219.159889 30.873903
v    19.900482 221.852592 30.873903
v    20.232923 216.398360 29.692327
v    18.416764 215.433812 31.603239
v    16.800103 221.669349 29.692327
v    15.183562 220.398294 31.603239
v    18.458123 219.144816 30.873903
v    21.511550 219.092287 30.873903
v    20.030327 221.762897 30.873903
v    21.541877 220.855184 48.400726
v    18.488450 220.907713 48.400726
v    19.969673 218.237103 48.400726
v    19.449188 224.412534 46.944633
v    23.716252 226.304505 51.282090
v    27.972423 228.244901 54.434639
v    29.669895 228.989207 55.682260
v    33.184252 230.580868 56.918874
v    23.451568 217.196338 46.944633
v    27.315931 219.814369 51.282090
v    31.215606 222.397519 54.434639
v    32.745810 223.443407 55.682260
v    35.956863 225.581917 56.918874
v    21.614895 220.429572 48.400726
v    18.820532 221.183754 48.400726
v    19.564573 218.386674 48.400726
v    18.385105 219.570428 69.771046
v    21.179468 218.816246 69.771046
v    20.435427 221.613326 69.771046
v    19.805763 214.721433 68.012004
v    14.249101 213.762266 73.251895
v    7.853218 212.589559 77.634350
v    6.486094 212.359356 78.567546
v    -5.304547 210.227785 82.408101
v    17.208751 224.484410 68.012004
v    11.909927 222.555951 73.251895
v    5.776700 220.395837 77.634350
v    4.475887 219.916352 78.567546
v    -6.815508 215.907960 82.408101
v    18.541706 219.394647 69.771046
v    21.253398 219.039757 69.771046
v    20.204896 221.565597 69.771046
v    21.458294 220.605353 89.630700
v    18.746602 220.960243 89.630700
v    19.795104 218.434403 89.630700
v    19.190841 225.677207 87.547541
v    25.561659 227.678758 93.752922
v    27.699552 228.374958 95.268260
v    34.482661 230.475439 100.048024
v    46.894601 234.483263 104.228727
v    23.449245 215.418720 87.547541
v    29.364668 218.517316 93.752922
v    31.367113 219.539812 95.268260
v    37.643685 222.860540 100.048024
v    49.245102 228.820911 104.228727
v    21.148136 220.944713 89.630700
v    18.607786 220.521958 89.630700
v    20.244078 218.533328 89.630700
v    18.851864 219.055287 113.546653
v    21.392214 219.478042 113.546653
v    19.755922 221.466672 113.546653
v    23.023183 214.259269 111.128254
v    16.622363 209.885407 118.332259
v    7.646273 203.780871 125.640424
v    -6.115882 194.215995 131.012428
v    -7.820965 193.128662 131.658033
v    14.948928 224.072136 111.128254
v    9.424276 218.633443 118.332259
v    1.705403 211.000975 125.640424
v    -10.330731 199.338418 131.012428
v    -11.726073 197.874648 131.658033
v    19.036323 218.991726 113.546653
v    21.355030 219.669568 113.546653
v    19.608648 221.338706 113.546653
v    20.963677 221.008274 130.462198
v    18.644970 220.330432 130.462198
v    20.391352 218.661294 130.462198
v    15.816781 225.653944 127.709917
v    20.988348 230.180213 134.096254
v    22.479154 231.442388 135.908501
v    31.810377 239.541769 144.225624
v    42.778815 249.296112 148.930522
v    47.881145 253.483173 151.037676
v    25.837280 216.076662 127.709917
v    30.125124 221.447567 134.096254
v    31.318611 222.993909 135.908501
v    38.987864 232.681750 144.225624
v    48.236370 244.079950 148.930522
v    52.188482 249.366353 151.037676
v    20.912312 220.929805 130.462198
v    18.738610 220.325183 130.462198
v    20.349079 218.745013 130.462198
v    19.087688 219.070195 146.778346
v    21.261390 219.674817 146.778346
v    19.650921 221.254987 146.778346
v    24.905722 213.670733 143.707791
v    17.414489 207.285802 152.854459
v    6.887757 198.385974 162.133374
v    -7.728146 185.727275 168.331091
v    -15.184411 179.770454 171.377841
v    -16.099764 179.030528 171.364441
v    13.578711 224.784639 143.707791
v    7.337195 217.173503 152.854459
v    -1.361117 206.479655 162.133374
v    -13.739966 191.625989 168.331091
v    -19.554112 184.057945 171.377841
v    -20.276522 183.128705 171.364441
v    19.188946 219.101354 146.778346
v    21.183778 219.746930 146.778346
v    19.627277 221.151717 146.778346
v    20.811054 220.898646 158.234233
v    18.816222 220.253070 158.234233
v    20.372723 218.848283 158.234233
v    14.340729 226.413249 154.876083
v    20.835061 232.433469 163.105031
v    33.357175 243.914093 175.027452
v    46.839789 256.612489 180.964071
v    56.705053 265.191306 185.137779
v    57.397859 265.800789 185.127274
v    26.958028 215.025771 154.876083
v    32.283030 222.101346 163.105031
v    42.423828 235.731177 175.027452
v    53.677861 250.440932 180.964071
v    61.203565 261.131268 185.137779
v    61.739055 261.882734 185.127274
v    21.097812 220.213714 158.234233
v    19.266012 220.843876 158.234233
v    19.636176 218.942409 158.234233
v    18.902188 219.786286 164.643719
v    20.733988 219.156124 164.643719
v    20.363824 221.057591 164.643719
v    20.774014 211.524939 161.043386
v    18.534902 211.293007 163.135213
v    9.264792 210.486353 171.768176
v    -6.819172 208.887153 182.648031
v    -17.187878 207.730051 185.992177
v    -32.948911 206.602086 191.036702
v    -34.728508 206.722194 191.591078
v    17.538245 228.146503 161.043386
v    15.375645 227.521541 163.135213
v    6.479909 224.791796 171.768176
v    -9.029390 220.240642 182.648031
v    -19.074957 217.423637 185.992177
v    -34.108133 212.556801 191.036702
v    -35.712714 211.777885 191.591078
v    19.233055 219.367295 164.643719
v    20.931411 219.652159 164.643719
v    19.835534 220.980546 164.643719
v    20.766945 220.632705 168.470234
v    19.068589 220.347841 168.470234
v    20.164466 219.019454 168.470234
v    15.194447 226.960238 164.686291
v    25.328142 233.662130 175.958024
v    39.380969 243.206521 187.392729
v    43.208968 245.874289 188.888303
v    57.199902 254.821478 194.190088
v    62.092637 257.066120 195.863199
v    25.919960 213.959112 164.686291
v    34.425799 222.634241 175.958024
v    46.467231 234.616781 187.392729
v    49.813957 237.867932 188.888303
v    61.257309 249.903218 194.190088
v    64.390998 254.280120 195.863199
v    20.606966 220.455789 168.470234
v    19.301792 220.297753 168.470234
v    20.091242 219.246458 168.470234
v    19.393034 219.544211 171.328394
v    20.698208 219.702247 171.328394
v    19.908758 220.753542 171.328394
v    24.940163 212.623733 167.429820
v    14.195032 206.202833 179.043017
v    -0.717488 197.040783 190.824123
v    -6.686284 193.273957 193.086450
v    -21.507004 184.723648 198.548847
v    -33.365926 179.925899 202.524946
v    14.293929 226.801123 167.429820
v    5.131374 218.272735 179.043017
v    -7.825701 206.506656 190.824123
v    -13.107547 201.825031 193.086450
v    -25.451549 189.976524 198.548847
v    -33.365926 179.925899 202.524946
v    19.547352 219.682964 171.328394
v    20.500885 219.766513 171.328394
v    19.951763 220.550522 171.328394
v    20.452648 220.317036 172.815379
v    19.499115 220.233487 172.815379
v    20.048237 219.449478 172.815379
v    15.521474 226.864320 168.877829
v    26.582704 232.986706 180.607131
v    40.223140 240.757454 191.174204
v    55.229006 248.724604 197.295025
v    67.360294 253.171281 201.310876
v    24.920322 213.445115 168.877829
v    34.454472 221.747791 180.607131
v    46.419228 231.910990 191.174204
v    59.035228 243.290272 197.295025
v    67.360294 253.171281 201.310876
v    20.305274 220.217790 172.815379
v    19.658751 220.155480 172.815379
v    20.035975 219.626730 172.815379
v    19.694726 219.782210 174.006000
v    20.341249 219.844520 174.006000
v    19.964025 220.373270 174.006000
v    25.054072 212.752416 170.107427
v    14.155376 206.595776 181.720623
v    -0.976393 197.800551 193.501729
v    -6.722364 194.367592 195.647181
v    -21.747424 186.181684 201.109578
v    -33.719950 181.674905 205.085677
v    14.791482 227.137399 170.107427
v    5.423436 218.835261 181.720623
v    -7.817050 207.389041 193.501729
v    -12.932934 203.072894 195.647181
v    -25.562542 191.529301 201.109578
v    -33.719950 181.674905 205.085677
v    22.473981 221.603299 1.099878
v    23.192634 221.873078 1.632769
v    24.004752 222.190096 1.912210
v    24.575368 222.387128 2.104932
v    25.186680 222.526602 2.097933
v    22.787483 220.959732 1.099878
v    23.442907 221.359312 1.632769
v    24.193141 221.803366 1.912210
v    24.700028 222.131222 2.104932
v    25.186680 222.526602 2.097933
v    18.157716 217.836526 1.566804
v    17.907921 217.670599 1.845469
v    17.064689 217.115644 2.528060
v    15.926450 216.346502 2.968390
v    15.318016 215.969641 3.196872
v    15.087480 215.825009 3.193774
v    14.392928 215.508437 3.185293
v    17.486590 218.674331 1.566804
v    17.270143 218.466773 1.845469
v    16.544524 217.764995 2.528060
v    15.545495 216.822071 2.968390
v    15.044922 216.310559 3.196872
v    14.853461 216.117148 3.193774
v    14.392928 215.508437 3.185293
v    22.283862 221.629023 2.341956
v    22.827076 221.776508 2.864174
v    24.158962 222.155779 3.796337
v    25.106982 222.438115 4.113399
v    26.418801 222.772743 4.545603
v    26.992570 222.836652 4.725039
v    27.444514 222.892461 4.719980
v    22.784595 220.340254 2.341956
v    23.284887 220.598208 2.864174
v    24.523458 221.217652 3.796337
v    25.413412 221.649436 4.113399
v    26.607039 222.288262 4.545603
v    27.073445 222.628499 4.725039
v    27.444514 222.892461 4.719980
v    17.063564 218.343076 4.668035
v    16.769085 218.305530 4.943454
v    14.902220 218.044123 6.212342
v    13.024329 217.758091 6.821210
v    11.192897 217.553106 7.409539
v    9.760511 217.577790 7.462996
v    16.632418 220.165672 4.668035
v    16.352328 220.067301 4.943454
v    14.566204 219.464572 6.212342
v    12.759191 218.878918 6.821210
v    11.030025 218.241623 7.409539
v    9.760511 217.577790 7.462996
v    20.590014 222.813946 5.825521
v    21.588024 223.767280 7.108045
v    23.414011 225.497404 8.801267
v    25.936586 227.945564 9.928017
v    27.243291 229.116695 10.488204
v    27.791076 229.613346 10.479786
v    29.375867 230.706517 10.458395
v    22.711500 220.956127 5.825521
v    23.524822 222.071196 7.108045
v    24.998900 224.109492 8.801267
v    27.092829 226.933023 9.928017
v    28.081315 228.382824 10.488204
v    28.501350 228.991348 10.479786
v    29.375867 230.706517 10.458395
v    17.444725 216.478866 12.695586
v    14.267925 214.848751 15.170382
v    11.521665 213.394158 16.166502
v    8.621413 212.002448 17.193480
v    6.255434 211.224487 17.356001
v    15.730520 219.163723 12.695586
v    12.914930 216.967867 15.170382
v    10.439740 215.088714 16.166502
v    7.956793 213.043404 17.193480
v    6.255434 211.224487 17.356001
v    22.393335 224.545444 21.255767
v    23.784886 225.386967 22.424059
v    26.263620 226.843259 24.359201
v    32.618081 230.680191 26.738525
v    33.854044 231.361077 27.189015
v    36.341380 232.750014 27.156581
v    39.344595 233.937826 27.120698
v    25.069307 220.831407 21.255767
v    26.308049 221.885016 22.424059
v    28.474093 223.775298 24.359201
v    34.125211 228.588414 26.738525
v    35.162326 229.545285 27.189015
v    37.267201 231.465048 27.156581
v    39.344595 233.937826 27.120698
v    18.416764 215.433812 31.603239
v    16.887733 214.621755 33.212042
v    15.822392 214.041667 34.029584
v    12.202366 212.138139 36.782646
v    4.476530 207.956208 39.598546
v    2.391798 206.932552 40.339994
v    -0.298318 205.592414 40.305778
v    -4.139750 204.278584 40.260670
v    15.183562 220.398294 31.603239
v    13.822590 219.328187 33.212042
v    12.861270 218.588379 34.029584
v    9.656542 216.047172 36.782646
v    2.707800 210.672039 39.598546
v    0.928602 209.179245 40.339994
v    -1.384839 207.260734 40.305778
v    -4.139750 204.278584 40.260670
v    33.184252 230.580868 56.918874
v    42.128397 234.631695 60.066094
v    49.100279 237.542937 59.980038
v    51.029361 238.053381 59.957867
v    53.895517 238.799760 59.433226
v    35.956863 225.581917 56.918874
v    44.129092 231.024491 60.066094
v    50.290296 235.397365 59.980038
v    51.744747 236.763558 59.957867
v    53.895517 238.799760 59.433226
v    -5.304547 210.227785 82.408101
v    -9.772559 209.420035 83.863463
v    -11.790602 209.047122 83.840014
v    -19.809200 207.876994 83.747758
v    -21.162673 207.860394 83.732719
v    -25.373887 207.825267 82.986721
v    -25.770576 207.824745 82.868737
v    -6.815508 215.907960 82.408101
v    -11.094334 214.388997 83.863463
v    -13.030942 213.709948 83.840014
v    -20.571134 210.741342 83.747758
v    -21.753971 210.083268 83.732719
v    -25.426056 208.021389 82.986721
v    -25.770576 207.824745 82.868737
v    46.894601 234.483263 104.228727
v    49.341745 235.273447 105.052997
v    53.163146 236.341924 106.319756
v    58.385702 237.834552 106.257918
v    65.467557 238.874055 106.178391
v    49.245102 228.820911 104.228727
v    51.532443 229.996060 105.052997
v    54.987125 231.947961 106.319756
v    59.731436 234.592683 106.257918
v    65.467557 238.874055 106.178391
v    -7.820965 193.128662 131.658033
v    -11.157749 191.000794 132.921457
v    -15.244020 188.361853 132.866078
v    -22.759395 184.816574 132.773753
v    -11.726073 197.874648 131.658033
v    -14.456704 195.010106 132.921457
v    -17.833177 191.508528 132.866078
v    -22.759395 184.816574 132.773753
v    47.881145 253.483173 151.037676
v    51.450806 256.412498 152.511870
v    52.146326 256.989968 152.501578
v    60.157234 262.015628 152.396507
v    52.188482 249.366353 151.037676
v    54.953434 253.064794 152.511870
v    55.498871 253.785709 152.501578
v    60.157234 262.015628 152.396507
v    -16.099764 179.030528 171.364441
v    -18.394666 177.175440 171.330846
v    -27.404723 171.686312 171.213624
v    -20.276522 183.128705 171.364441
v    -22.087693 180.798987 171.330846
v    -27.404723 171.686312 171.213624
v    57.397859 265.800789 185.127274
v    58.017087 266.345545 185.117885
v    67.612273 272.754291 184.989683
v    61.739055 261.882734 185.127274
v    62.217676 262.554393 185.117885
v    67.612273 272.754291 184.989683
v    -34.728508 206.722194 191.591078
v    -40.816179 207.133061 193.487496
v    -44.923868 207.361078 193.441786
v    -35.712714 211.777885 191.591078
v    -41.201689 209.113358 193.487496
v    -44.923868 207.361078 193.441786
v    62.092637 257.066120 195.863199
v    68.485461 259.998958 198.049277
v    64.390998 254.280120 195.863199
v    68.485461 259.998958 198.049277
mtllib usm_20_2.5D_2018-08-29_5.mtl
usemtl APPID_3718623456_1872025166576 
o vid_3 
f 3 2 1
f 4 5 6
f 1 6 5
f 1 5 3
f 3 5 4
f 4 2 3
f 2 4 6
f 6 1 2
usemtl APPID_3718621216_1872025167088 
o vid_4 
f 7 10 11
f 7 11 8
f 8 11 12
f 8 12 9
usemtl APPID_3718623456_1872025166576 
o vid_5 
f 15 14 13
f 16 17 18
f 13 18 17
f 13 17 15
f 15 17 16
f 16 14 15
f 14 16 18
f 18 13 14
usemtl APPID_3718621216_1872025167088 
o vid_6 
f 19 21 22
f 19 22 20
f 19 21 22
f 19 22 20
usemtl APPID_3718623456_1872025166576 
o vid_7 
f 25 24 23
f 26 27 28
f 23 28 27
f 23 27 25
f 25 27 26
f 26 24 25
f 24 26 28
f 28 23 24
usemtl APPID_3718621216_1872025167088 
o vid_8 
f 29 32 33
f 29 33 30
f 30 33 34
f 30 34 31
usemtl APPID_3718623456_1872025166576 
o vid_9 
f 37 36 35
f 38 39 40
f 35 40 39
f 35 39 37
f 37 39 38
f 38 36 37
f 36 38 40
f 40 35 36
usemtl APPID_3718621216_1872025167088 
o vid_10 
f 41 44 45
f 41 45 42
f 42 45 46
f 42 46 43
usemtl APPID_3718623456_1872025166576 
o vid_11 
f 49 48 47
f 50 51 52
f 47 52 51
f 47 51 49
f 49 51 50
f 50 48 49
f 48 50 52
f 52 47 48
usemtl APPID_3718621216_1872025167088 
o vid_12 
f 53 55 56
f 53 56 54
f 53 55 56
f 53 56 54
usemtl APPID_3718623456_1872025166576 
o vid_13 
f 59 58 57
f 60 61 62
f 57 62 61
f 57 61 59
f 59 61 60
f 60 58 59
f 58 60 62
f 62 57 58
usemtl APPID_3718621216_1872025167088 
o vid_14 
f 63 66 67
f 63 67 64
f 64 67 68
f 64 68 65
usemtl APPID_3718623456_1872025166576 
o vid_15 
f 71 70 69
f 72 73 74
f 69 74 73
f 69 73 71
f 71 73 72
f 72 70 71
f 70 72 74
f 74 69 70
usemtl APPID_3718621216_1872025167088 
o vid_16 
f 75 77 78
f 75 78 76
f 75 77 78
f 75 78 76
usemtl APPID_3718623456_1872025166576 
o vid_17 
f 81 80 79
f 82 83 84
f 79 84 83
f 79 83 81
f 81 83 82
f 82 80 81
f 80 82 84
f 84 79 80
usemtl APPID_3718621216_1872025167088 
o vid_18 
f 85 87 88
f 85 88 86
f 85 87 88
f 85 88 86
usemtl APPID_3718623456_1872025166576 
o vid_19 
f 91 90 89
f 92 93 94
f 89 94 93
f 89 93 91
f 91 93 92
f 92 90 91
f 90 92 94
f 94 89 90
usemtl APPID_3718621216_1872025167088 
o vid_20 
f 95 100 101
f 96 101 102
f 97 102 103
f 95 101 96
f 96 102 97
f 97 103 98
f 98 103 104
f 98 104 99
usemtl APPID_3718623456_1872025166576 
o vid_21 
f 107 106 105
f 108 109 110
f 105 110 109
f 105 109 107
f 107 109 108
f 108 106 107
f 106 108 110
f 110 105 106
usemtl APPID_3718621216_1872025167088 
o vid_22 
f 111 116 117
f 112 117 118
f 113 118 119
f 111 117 112
f 112 118 113
f 113 119 114
f 114 119 120
f 114 120 115
usemtl APPID_3718623456_1872025166576 
o vid_23 
f 123 122 121
f 124 125 126
f 121 126 125
f 121 125 123
f 123 125 124
f 124 122 123
f 122 124 126
f 126 121 122
usemtl APPID_3718621216_1872025167088 
o vid_24 
f 127 132 133
f 128 133 134
f 129 134 135
f 127 133 128
f 128 134 129
f 129 135 130
f 130 135 136
f 130 136 131
usemtl APPID_3718623456_1872025166576 
o vid_25 
f 139 138 137
f 140 141 142
f 137 142 141
f 137 141 139
f 139 141 140
f 140 138 139
f 138 140 142
f 142 137 138
usemtl APPID_3718621216_1872025167088 
o vid_26 
f 143 148 149
f 144 149 150
f 145 150 151
f 143 149 144
f 144 150 145
f 145 151 146
f 146 151 152
f 146 152 147
usemtl APPID_3718623456_1872025166576 
o vid_27 
f 155 154 153
f 156 157 158
f 153 158 157
f 153 157 155
f 155 157 156
f 156 154 155
f 154 156 158
f 158 153 154
usemtl APPID_3718621216_1872025167088 
o vid_28 
f 159 165 166
f 160 166 167
f 161 167 168
f 162 168 169
f 159 166 160
f 160 167 161
f 161 168 162
f 162 169 163
f 163 169 170
f 163 170 164
usemtl APPID_3718623456_1872025166576 
o vid_29 
f 173 172 171
f 174 175 176
f 171 176 175
f 171 175 173
f 173 175 174
f 174 172 173
f 172 174 176
f 176 171 172
usemtl APPID_3718621216_1872025167088 
o vid_30 
f 177 183 184
f 178 184 185
f 179 185 186
f 180 186 187
f 177 184 178
f 178 185 179
f 179 186 180
f 180 187 181
f 181 187 188
f 181 188 182
usemtl APPID_3718623456_1872025166576 
o vid_31 
f 191 190 189
f 192 193 194
f 189 194 193
f 189 193 191
f 191 193 192
f 192 190 191
f 190 192 194
f 194 189 190
usemtl APPID_3718621216_1872025167088 
o vid_32 
f 195 201 202
f 196 202 203
f 197 203 204
f 198 204 205
f 195 202 196
f 196 203 197
f 197 204 198
f 198 205 199
f 199 205 206
f 199 206 200
usemtl APPID_3718623456_1872025166576 
o vid_33 
f 209 208 207
f 210 211 212
f 207 212 211
f 207 211 209
f 209 211 210
f 210 208 209
f 208 210 212
f 212 207 208
usemtl APPID_3718621216_1872025167088 
o vid_34 
f 213 220 221
f 214 221 222
f 215 222 223
f 216 223 224
f 217 224 225
f 213 221 214
f 214 222 215
f 215 223 216
f 216 224 217
f 217 225 218
f 218 225 226
f 218 226 219
usemtl APPID_3718623456_1872025166576 
o vid_35 
f 229 228 227
f 230 231 232
f 227 232 231
f 227 231 229
f 229 231 230
f 230 228 229
f 228 230 232
f 232 227 228
usemtl APPID_3718621216_1872025167088 
o vid_36 
f 233 239 240
f 234 240 241
f 235 241 242
f 236 242 243
f 233 240 234
f 234 241 235
f 235 242 236
f 236 243 237
f 237 243 244
f 237 244 238
usemtl APPID_3718623456_1872025166576 
o vid_37 
f 247 246 245
f 248 249 250
f 245 250 249
f 245 249 247
f 247 249 248
f 248 246 247
f 246 248 250
f 250 245 246
usemtl APPID_3718621216_1872025167088 
o vid_38 
f 251 257 258
f 252 258 259
f 253 259 260
f 254 260 261
f 251 258 252
f 252 259 253
f 253 260 254
f 254 261 255
f 255 261 262
usemtl APPID_3718623456_1872025166576 
o vid_39 
f 265 264 263
f 266 267 268
f 263 268 267
f 263 267 265
f 265 267 266
f 266 264 265
f 264 266 268
f 268 263 264
usemtl APPID_3718621216_1872025167088 
o vid_40 
f 269 274 275
f 270 275 276
f 271 276 277
f 269 275 270
f 270 276 271
f 271 277 272
f 272 277 278
usemtl APPID_3718623456_1872025166576 
o vid_41 
f 281 280 279
f 282 283 284
f 279 284 283
f 279 283 281
f 281 283 282
f 282 280 281
f 280 282 284
f 284 279 280
usemtl APPID_3718621216_1872025167088 
o vid_42 
f 285 291 292
f 286 292 293
f 287 293 294
f 288 294 295
f 285 292 286
f 286 293 287
f 287 294 288
f 288 295 289
f 289 295 296
usemtl APPID_3718620544_1872025165808 
o vid_10000004 
f 297 302 303
f 298 303 304
f 299 304 305
f 297 303 298
f 298 304 299
f 299 305 300
f 300 305 306
usemtl APPID_3718620544_1872025165808 
o vid_10000006 
f 307 314 315
f 308 315 316
f 309 316 317
f 310 317 318
f 311 318 319
f 307 315 308
f 308 316 309
f 309 317 310
f 310 318 311
f 311 319 312
f 312 319 320
usemtl APPID_3718620544_1872025165808 
o vid_10000008 
f 321 328 329
f 322 329 330
f 323 330 331
f 324 331 332
f 325 332 333
f 321 329 322
f 322 330 323
f 323 331 324
f 324 332 325
f 325 333 326
f 326 333 334
usemtl APPID_3718620544_1872025165808 
o vid_10000010 
f 335 341 342
f 336 342 343
f 337 343 344
f 338 344 345
f 335 342 336
f 336 343 337
f 337 344 338
f 338 345 339
f 339 345 346
usemtl APPID_3718620544_1872025165808 
o vid_10000012 
f 347 354 355
f 348 355 356
f 349 356 357
f 350 357 358
f 351 358 359
f 347 355 348
f 348 356 349
f 349 357 350
f 350 358 351
f 351 359 352
f 352 359 360
usemtl APPID_3718620544_1872025165808 
o vid_10000014 
f 361 366 367
f 362 367 368
f 363 368 369
f 361 367 362
f 362 368 363
f 363 369 364
f 364 369 370
usemtl APPID_3718620544_1872025165808 
o vid_10000016 
f 371 378 379
f 372 379 380
f 373 380 381
f 374 381 382
f 375 382 383
f 371 379 372
f 372 380 373
f 373 381 374
f 374 382 375
f 375 383 376
f 376 383 384
usemtl APPID_3718620544_1872025165808 
o vid_10000018 
f 385 393 394
f 386 394 395
f 387 395 396
f 388 396 397
f 389 397 398
f 390 398 399
f 385 394 386
f 386 395 387
f 387 396 388
f 388 397 389
f 389 398 390
f 390 399 391
f 391 399 400
usemtl APPID_3718620544_1872025165808 
o vid_10000020 
f 401 406 407
f 402 407 408
f 403 408 409
f 401 407 402
f 402 408 403
f 403 409 404
f 404 409 410
usemtl APPID_3718620544_1872025165808 
o vid_10000022 
f 411 418 419
f 412 419 420
f 413 420 421
f 414 421 422
f 415 422 423
f 411 419 412
f 412 420 413
f 413 421 414
f 414 422 415
f 415 423 416
f 416 423 424
usemtl APPID_3718620544_1872025165808 
o vid_10000024 
f 425 430 431
f 426 431 432
f 427 432 433
f 425 431 426
f 426 432 427
f 427 433 428
f 428 433 434
usemtl APPID_3718620544_1872025165808 
o vid_10000026 
f 435 439 440
f 436 440 441
f 435 440 436
f 436 441 437
f 437 441 442
usemtl APPID_3718620544_1872025165808 
o vid_10000028 
f 443 447 448
f 444 448 449
f 443 448 444
f 444 449 445
f 445 449 450
usemtl APPID_3718620544_1872025165808 
o vid_10000030 
f 451 454 455
f 451 455 452
f 452 455 456
usemtl APPID_3718620544_1872025165808 
o vid_10000032 
f 457 460 461
f 457 461 458
f 458 461 462
usemtl APPID_3718620544_1872025165808 
o vid_10000034 
f 463 466 467
f 463 467 464
f 464 467 468
usemtl APPID_3718620544_1872025165808 
o vid_10000036 
f 469 471 472
f 469 472 470
f 469 471 472
