# File generated by PlantGL - Fri Sep  4 14:42:56 2026
v    28.201987 59.124129 0.000000
v    31.657533 58.880811 0.000000
v    30.140480 61.995060 0.000000
v    31.798013 60.875871 0.231333
v    28.342467 61.119189 0.231333
v    29.859520 58.004940 0.231333
v    31.519742 61.246769 -0.071993
v    32.400882 61.558495 0.811542
v    32.628323 61.642793 0.963587
v    32.907711 61.736961 1.147769
v    31.918530 60.428126 -0.071993
v    32.707144 60.929792 0.811542
v    32.913722 61.056919 0.963587
v    33.160093 61.218865 1.147769
v    31.503548 61.204422 0.231333
v    28.205166 60.699900 0.231333
v    30.291286 58.095678 0.231333
v    28.496452 58.795578 0.322458
v    31.794834 59.300100 0.322458
v    29.708714 61.904322 0.322458
v    28.971350 58.397947 -0.099472
v    27.870070 57.706521 1.129538
v    26.926773 57.130022 1.820284
v    28.212058 59.345813 -0.099472
v    27.296938 58.421995 1.129538
v    26.528454 57.627266 1.820284
v    28.272844 59.328938 0.322458
v    31.444735 58.839770 0.322458
v    30.282421 61.831292 0.322458
v    31.727156 60.671062 0.466406
v    28.555265 61.160230 0.466406
v    29.717579 58.168708 0.466406
v    31.310981 61.285654 -0.105211
v    32.236549 61.527757 0.799016
v    33.025527 61.705139 1.559814
v    33.576064 61.841253 1.914094
v    34.052962 61.892795 2.205847
v    31.835094 59.936709 -0.105211
v    32.681323 60.383013 0.799016
v    33.383096 60.784841 1.559814
v    33.881113 61.056128 1.914094
v    34.267710 61.340085 2.205847
v    31.731622 60.409625 0.466406
v    28.779443 61.294816 0.466406
v    29.488935 58.295559 0.466406
v    28.268378 59.590375 0.678272
v    31.220557 58.705184 0.678272
v    30.511065 61.704441 0.678272
v    28.694300 58.737565 -0.075959
v    27.673158 58.616983 0.895874
v    26.375417 58.509220 2.120989
v    25.903563 58.459931 2.417363
v    24.817283 58.493224 3.078381
v    28.267065 60.543629 -0.075959
v    27.300125 60.193918 0.895874
v    26.091645 59.708820 2.120989
v    25.647718 59.541475 2.417363
v    24.691485 59.025014 3.078381
v    28.876148 58.716648 0.678272
v    31.673341 59.668392 0.678272
v    29.450510 61.614960 0.678272
v    31.123852 61.283352 0.902327
v    28.326659 60.331608 0.902327
v    30.549490 58.385040 0.902327
v    30.047041 61.853667 -0.066925
v    30.982477 62.702359 1.126849
v    32.304835 63.820976 2.756342
v    32.710704 64.179366 3.094593
v    34.126821 65.124741 4.130213
v    31.831255 60.291203 -0.066925
v    32.549106 61.330437 1.126849
v    33.483472 62.788825 2.756342
v    33.785179 63.238431 3.094593
v    34.535447 64.766901 4.130213
v    31.375838 60.878433 0.902327
v    28.551335 60.752294 0.902327
v    30.072827 58.369272 0.902327
v    28.624162 59.121567 1.430323
v    31.448665 59.247706 1.430323
v    29.927173 61.630728 1.430323
v    29.700655 58.087576 0.217207
v    28.541584 57.522692 1.435873
v    26.293619 56.522070 3.750809
v    25.988956 56.378633 3.961173
v    23.670244 55.647876 5.439863
v    28.139180 60.533221 0.217207
v    27.138996 59.719481 1.435873
v    25.285314 58.101319 3.750809
v    25.026989 57.885304 3.961173
v    23.388343 56.089402 5.439863
v    28.735263 59.088754 1.430323
v    31.421531 59.360328 1.430323
v    29.843206 61.550918 1.430323
v    31.264737 60.911246 1.970317
v    28.578469 60.639672 1.970317
v    30.156794 58.449082 1.970317
v    29.955093 61.997216 0.491544
v    30.398163 62.244823 0.971265
v    33.379165 63.777557 4.124785
v    34.084305 64.011065 4.798959
v    36.296257 64.847261 6.237259
v    31.880296 59.325186 0.491544
v    32.255424 59.667092 0.971265
v    34.652971 62.009615 4.124785
v    35.097682 62.604578 4.798959
v    36.591068 64.438087 6.237259
v    31.244614 60.810576 1.970317
v    28.675713 60.672580 1.970317
v    30.079672 58.516844 1.970317
v    28.755386 59.189424 2.918424
v    31.324287 59.327420 2.918424
v    29.920328 61.483156 2.918424
v    30.330419 57.701540 1.162790
v    28.608020 56.842766 2.981832
v    25.421517 55.389736 6.276654
v    24.920754 55.148421 6.623913
v    20.938617 53.853749 9.170762
v    28.031421 61.231580 1.162790
v    26.549533 60.003509 2.981832
v    23.932128 57.676648 6.276654
v    23.508938 57.316222 6.623913
v    20.714654 54.197637 9.170762
v    28.765415 59.315252 2.918424
v    31.210302 59.273192 2.918424
v    30.024283 61.411556 2.918424
v    31.234585 60.684748 4.416927
v    28.789698 60.726808 4.416927
v    29.975717 58.588444 4.416927
v    29.577028 62.462659 2.386908
v    31.014057 63.056135 3.856379
v    35.325474 64.664022 8.185443
v    40.192279 65.867524 11.272599
v    31.865150 58.337229 2.386908
v    33.129500 59.242041 3.856379
v    36.776355 62.048119 8.185443
v    40.374237 65.539459 11.272599
v    31.293262 60.344016 4.416927
v    29.055443 60.947990 4.416927
v    29.651295 58.707994 4.416927
v    28.706738 59.655984 6.282148
v    30.944557 59.052010 6.282148
v    30.348705 61.292006 6.282148
v    29.953646 57.540829 3.996026
v    25.412387 57.036743 8.294675
v    22.814266 57.152650 10.655113
v    20.058371 57.160751 12.331338
v    28.737921 62.111120 3.996026
v    24.546406 60.292234 8.294675
v    22.349260 58.900756 10.655113
v    19.961626 57.524445 12.331338
v    28.831935 59.515124 6.282148
v    31.003948 59.230864 6.282148
v    30.164118 61.254012 6.282148
v    31.168065 60.484876 8.973070
v    28.996052 60.769136 8.973070
v    29.835882 58.745988 8.973070
v    29.446410 62.740566 6.465619
v    35.379692 64.233432 12.223739
v    37.075958 64.384622 13.769398
v    41.566798 64.974207 16.524300
v    31.549988 57.673049 6.465619
v    36.796257 60.820930 12.223739
v    38.100932 61.915462 13.769398
v    41.689109 64.679561 16.524300
v    30.919824 60.756852 8.973070
v    28.884635 60.418165 8.973070
v    30.195542 58.824983 8.973070
v    29.080176 59.243148 12.100616
v    31.115365 59.581835 12.100616
v    29.804458 61.175017 12.100616
v    31.543988 57.468197 9.422073
v    25.903143 54.073350 15.618430
v    24.262709 53.410642 17.224217
v    19.709266 51.346655 20.264994
v    27.812927 62.002658 9.422073
v    23.395320 57.121177 15.618430
v    22.429105 55.639073 17.224217
v    19.526856 51.568342 20.264994
v    29.227775 59.192038 12.100616
v    31.085829 59.735214 12.100616
v    29.686397 61.072748 12.100616
v    30.772225 60.807962 16.655379
v    28.914171 60.264786 16.655379
v    30.313603 58.927252 16.655379
v    27.863624 62.472874 13.868626
v    29.606047 63.920549 16.009709
v    34.601779 67.786353 21.952530
v    40.962962 71.641746 26.487790
v    32.566927 57.977602 13.868626
v    33.934351 59.783691 16.009709
v    37.570354 64.949081 21.952530
v    41.134228 71.478055 26.487790
v    30.731259 60.745280 16.655379
v    28.988939 60.260648 16.655379
v    30.279802 58.994071 16.655379
v    29.268741 59.254720 24.135231
v    31.011061 59.739352 24.135231
v    29.720198 61.005929 24.135231
v    32.506198 57.222472 21.311444
v    27.747787 53.373353 27.096026
v    25.675466 51.812769 29.536656
v    22.192089 49.071781 32.305659
v    17.064385 46.053792 35.924580
v    15.418154 45.012158 36.404883
v    27.175378 62.452999 21.311444
v    23.417320 57.622348 27.096026
v    21.896372 55.520764 29.536656
v    19.222030 51.985962 32.305659
v    16.301964 46.801869 35.924580
v    15.291781 45.136153 36.404883
v    29.349705 59.279474 24.135231
v    30.949141 59.797091 24.135231
v    29.701154 60.923435 24.135231
v    30.650295 60.720526 32.636983
v    29.050859 60.202909 32.636983
v    30.298846 59.076565 32.636983
v    27.517433 62.462194 29.850230
v    30.788621 65.341919 33.969317
v    34.074002 68.037753 37.967571
v    35.901793 69.603648 39.471136
v    42.242041 73.700372 44.062440
v    32.703012 57.782059 29.850230
v    35.233356 61.330418 33.969317
v    37.579321 64.874102 37.967571
v    38.950222 66.852352 39.471136
v    42.377546 73.578075 44.062440
v    30.880529 60.171415 32.636983
v    29.411286 60.676853 32.636983
v    29.708185 59.151732 32.636983
v    29.119471 59.828585 45.720871
v    30.588714 59.323147 45.720871
v    30.291815 60.848268 45.720871
v    30.331543 57.656996 43.042327
v    27.716368 57.544916 45.504937
v    21.870385 58.204193 50.844471
v    21.578532 58.224849 51.022430
v    29.428401 62.296272 43.042327
v    26.962162 61.419138 45.504937
v    21.790411 58.615006 50.844471
v    21.527619 58.486375 51.022430
v    29.364741 59.475932 45.720871
v    30.771485 59.711884 45.720871
v    29.863773 60.812184 45.720871
v    30.635259 60.524068 60.722011
v    29.228515 60.288116 60.722011
v    30.136227 59.187816 60.722011
v    29.667028 60.557996 58.214560
v    31.339911 61.236300 59.852958
v    30.484536 59.567039 58.214560
v    31.468441 61.080500 59.852958
v    30.599732 60.450357 60.722011
v    29.310113 60.294205 60.722011
v    30.090155 59.255438 60.722011
v    29.400268 59.549643 84.062000
v    30.689887 59.705795 84.062000
v    29.909845 60.744562 84.062000
v    30.360330 59.372386 81.775878
v    28.438322 58.693521 83.625937
v    29.497763 60.521051 81.775878
v    28.309861 58.864591 83.625937
v    32.907711 61.736961 1.147769
v    33.387006 61.898509 1.463738
v    34.332995 62.110744 1.722983
v    33.160093 61.218865 1.147769
v    33.582747 61.496686 1.463738
v    34.332995 62.110744 1.722983
v    26.926773 57.130022 1.820284
v    26.875415 57.098733 1.857853
v    26.534752 56.949674 2.084022
v    25.689163 56.546790 2.314956
v    26.528454 57.627266 1.820284
v    26.486710 57.583975 1.857853
v    26.266891 57.284059 2.084022
v    25.689163 56.546790 2.314956
v    34.052962 61.892795 2.205847
v    35.110664 62.007109 2.852919
v    35.197161 62.019283 2.874455
v    34.267710 61.340085 2.205847
v    35.125134 61.969866 2.852919
v    35.197161 62.019283 2.874455
v    24.817283 58.493224 3.078381
v    23.766500 58.525429 3.717799
v    24.691485 59.025014 3.078381
v    23.766500 58.525429 3.717799
v    34.126821 65.124741 4.130213
v    34.995879 65.704909 4.765764
v    34.535447 64.766901 4.130213
v    34.995879 65.704909 4.765764
v    23.670244 55.647876 5.439863
v    22.709088 55.344961 6.052812
v    23.388343 56.089402 5.439863
v    22.709088 55.344961 6.052812
v    36.296257 64.847261 6.237259
v    37.203769 65.190332 6.827360
v    36.591068 64.438087 6.237259
v    37.203769 65.190332 6.827360
v    20.938617 53.853749 9.170762
v    20.187808 53.609646 9.650955
v    20.714654 54.197637 9.170762
v    20.187808 53.609646 9.650955
v    40.192279 65.867524 11.272599
v    40.892692 66.041507 11.711557
v    40.374237 65.539459 11.272599
v    40.892692 66.041507 11.711557
v    20.058371 57.160751 12.331338
v    19.334377 57.162878 12.771694
v    19.961626 57.524445 12.331338
v    19.334377 57.162878 12.771694
v    41.566798 64.974207 16.524300
v    42.175306 65.054096 16.897589
v    41.689109 64.679561 16.524300
v    42.175306 65.054096 16.897589
v    19.709266 51.346655 20.264994
v    19.206241 51.118643 20.600913
v    19.526856 51.568342 20.264994
v    19.206241 51.118643 20.600913
v    40.962962 71.641746 26.487790
v    41.352677 71.878055 26.764998
v    41.134228 71.478055 26.487790
v    41.352677 71.878055 26.764998
v    15.418154 45.012158 36.404883
v    15.091072 44.805200 36.500312
v    15.291781 45.136153 36.404883
v    15.091072 44.805200 36.500312
v    42.242041 73.700372 44.062440
v    42.531042 73.887109 44.271720
v    42.537647 73.891684 44.273701
v    42.377546 73.578075 44.062440
v    42.533770 73.884647 44.271720
v    42.537647 73.891684 44.273701
v    21.578532 58.224849 51.022430
v    21.067248 58.261035 51.334185
v    21.527619 58.486375 51.022430
v    21.067248 58.261035 51.334185
v    31.339911 61.236300 59.852958
v    31.651989 61.362839 60.158603
v    31.468441 61.080500 59.852958
v    31.651989 61.362839 60.158603
v    28.438322 58.693521 83.625937
v    28.101991 58.574727 83.949678
v    28.309861 58.864591 83.625937
v    28.101991 58.574727 83.949678
mtllib usm_3_2.5D_2018-09-25_3.mtl
usemtl APPID_877196208_2277208221040 
o vid_3 
f 3 2 1
f 4 5 6
f 1 6 5
f 1 5 3
f 3 5 4
f 4 2 3
f 2 4 6
f 6 1 2
usemtl APPID_877193520_2277208226416 
o vid_4 
f 7 11 12
f 8 12 13
f 7 12 8
f 8 13 9
f 9 13 14
f 9 14 10
usemtl APPID_877196208_2277208221040 
o vid_5 
f 17 16 15
f 18 19 20
f 15 20 19
f 15 19 17
f 17 19 18
f 18 16 17
f 16 18 20
f 20 15 16
usemtl APPID_877193520_2277208226416 
o vid_6 
f 21 24 25
f 21 25 22
f 22 25 26
f 22 26 23
usemtl APPID_877196208_2277208221040 
o vid_7 
f 29 28 27
f 30 31 32
f 27 32 31
f 27 31 29
f 29 31 30
f 30 28 29
f 28 30 32
f 32 27 28
usemtl APPID_877193520_2277208226416 
o vid_8 
f 33 38 39
f 34 39 40
f 35 40 41
f 33 39 34
f 34 40 35
f 35 41 36
f 36 41 42
f 36 42 37
usemtl APPID_877196208_2277208221040 
o vid_9 
f 45 44 43
f 46 47 48
f 43 48 47
f 43 47 45
f 45 47 46
f 46 44 45
f 44 46 48
f 48 43 44
usemtl APPID_877193520_2277208226416 
o vid_10 
f 49 54 55
f 50 55 56
f 51 56 57
f 49 55 50
f 50 56 51
f 51 57 52
f 52 57 58
f 52 58 53
usemtl APPID_877196208_2277208221040 
o vid_11 
f 61 60 59
f 62 63 64
f 59 64 63
f 59 63 61
f 61 63 62
f 62 60 61
f 60 62 64
f 64 59 60
usemtl APPID_877193520_2277208226416 
o vid_12 
f 65 70 71
f 66 71 72
f 67 72 73
f 65 71 66
f 66 72 67
f 67 73 68
f 68 73 74
f 68 74 69
usemtl APPID_877196208_2277208221040 
o vid_13 
f 77 76 75
f 78 79 80
f 75 80 79
f 75 79 77
f 77 79 78
f 78 76 77
f 76 78 80
f 80 75 76
usemtl APPID_877193520_2277208226416 
o vid_14 
f 81 86 87
f 82 87 88
f 83 88 89
f 81 87 82
f 82 88 83
f 83 89 84
f 84 89 90
f 84 90 85
usemtl APPID_877196208_2277208221040 
o vid_15 
f 93 92 91
f 94 95 96
f 91 96 95
f 91 95 93
f 93 95 94
f 94 92 93
f 92 94 96
f 96 91 92
usemtl APPID_877193520_2277208226416 
o vid_16 
f 97 102 103
f 98 103 104
f 99 104 105
f 97 103 98
f 98 104 99
f 99 105 100
f 100 105 106
f 100 106 101
usemtl APPID_877196208_2277208221040 
o vid_17 
f 109 108 107
f 110 111 112
f 107 112 111
f 107 111 109
f 109 111 110
f 110 108 109
f 108 110 112
f 112 107 108
usemtl APPID_877193520_2277208226416 
o vid_18 
f 113 118 119
f 114 119 120
f 115 120 121
f 113 119 114
f 114 120 115
f 115 121 116
f 116 121 122
f 116 122 117
usemtl APPID_877196208_2277208221040 
o vid_19 
f 125 124 123
f 126 127 128
f 123 128 127
f 123 127 125
f 125 127 126
f 126 124 125
f 124 126 128
f 128 123 124
usemtl APPID_877193520_2277208226416 
o vid_20 
f 129 133 134
f 130 134 135
f 129 134 130
f 130 135 131
f 131 135 136
f 131 136 132
usemtl APPID_877196208_2277208221040 
o vid_21 
f 139 138 137
f 140 141 142
f 137 142 141
f 137 141 139
f 139 141 140
f 140 138 139
f 138 140 142
f 142 137 138
usemtl APPID_877193520_2277208226416 
o vid_22 
f 143 147 148
f 144 148 149
f 143 148 144
f 144 149 145
f 145 149 150
f 145 150 146
usemtl APPID_877196208_2277208221040 
o vid_23 
f 153 152 151
f 154 155 156
f 151 156 155
f 151 155 153
f 153 155 154
f 154 152 153
f 152 154 156
f 156 151 152
usemtl APPID_877193520_2277208226416 
o vid_24 
f 157 161 162
f 158 162 163
f 157 162 158
f 158 163 159
f 159 163 164
f 159 164 160
usemtl APPID_877196208_2277208221040 
o vid_25 
f 167 166 165
f 168 169 170
f 165 170 169
f 165 169 167
f 167 169 168
f 168 166 167
f 166 168 170
f 170 165 166
usemtl APPID_877193520_2277208226416 
o vid_26 
f 171 175 176
f 172 176 177
f 171 176 172
f 172 177 173
f 173 177 178
f 173 178 174
usemtl APPID_877196208_2277208221040 
o vid_27 
f 181 180 179
f 182 183 184
f 179 184 183
f 179 183 181
f 181 183 182
f 182 180 181
f 180 182 184
f 184 179 180
usemtl APPID_877193520_2277208226416 
o vid_28 
f 185 189 190
f 186 190 191
f 185 190 186
f 186 191 187
f 187 191 192
f 187 192 188
usemtl APPID_877196208_2277208221040 
o vid_29 
f 195 194 193
f 196 197 198
f 193 198 197
f 193 197 195
f 195 197 196
f 196 194 195
f 194 196 198
f 198 193 194
usemtl APPID_877193520_2277208226416 
o vid_30 
f 199 205 206
f 200 206 207
f 201 207 208
f 202 208 209
f 199 206 200
f 200 207 201
f 201 208 202
f 202 209 203
f 203 209 210
f 203 210 204
usemtl APPID_877196208_2277208221040 
o vid_31 
f 213 212 211
f 214 215 216
f 211 216 215
f 211 215 213
f 213 215 214
f 214 212 213
f 212 214 216
f 216 211 212
usemtl APPID_877193520_2277208226416 
o vid_32 
f 217 222 223
f 218 223 224
f 219 224 225
f 217 223 218
f 218 224 219
f 219 225 220
f 220 225 226
f 220 226 221
usemtl APPID_877196208_2277208221040 
o vid_33 
f 229 228 227
f 230 231 232
f 227 232 231
f 227 231 229
f 229 231 230
f 230 228 229
f 228 230 232
f 232 227 228
usemtl APPID_877193520_2277208226416 
o vid_34 
f 233 237 238
f 234 238 239
f 233 238 234
f 234 239 235
f 235 239 240
f 235 240 236
usemtl APPID_877196208_2277208221040 
o vid_35 
f 243 242 241
f 244 245 246
f 241 246 245
f 241 245 243
f 243 245 244
f 244 242 243
f 242 244 246
f 246 241 242
usemtl APPID_877193520_2277208226416 
o vid_36 
f 247 249 250
f 247 250 248
f 247 249 250
f 247 250 248
usemtl APPID_877196208_2277208221040 
o vid_37 
f 253 252 251
f 254 255 256
f 251 256 255
f 251 255 253
f 253 255 254
f 254 252 253
f 252 254 256
f 256 251 252
usemtl APPID_877193520_2277208226416 
o vid_38 
f 257 259 260
f 257 260 258
f 257 259 260
f 257 260 258
usemtl APPID_877199568_2277208226544 
o vid_10000004 
f 261 264 265
f 261 265 262
f 262 265 266
usemtl APPID_877199568_2277208226544 
o vid_10000006 
f 267 271 272
f 268 272 273
f 267 272 268
f 268 273 269
f 269 273 274
usemtl APPID_877199568_2277208226544 
o vid_10000008 
f 275 278 279
f 275 279 276
f 276 279 280
usemtl APPID_877199568_2277208226544 
o vid_10000010 
f 281 283 284
f 281 284 282
f 281 283 284
usemtl APPID_877199568_2277208226544 
o vid_10000012 
f 285 287 288
f 285 288 286
f 285 287 288
usemtl APPID_877199568_2277208226544 
o vid_10000014 
f 289 291 292
f 289 292 290
f 289 291 292
usemtl APPID_877199568_2277208226544 
o vid_10000016 
f 293 295 296
f 293 296 294
f 293 295 296
usemtl APPID_877199568_2277208226544 
o vid_10000018 
f 297 299 300
f 297 300 298
f 297 299 300
usemtl APPID_877199568_2277208226544 
o vid_10000020 
f 301 303 304
f 301 304 302
f 301 303 304
usemtl APPID_877199568_2277208226544 
o vid_10000022 
f 305 307 308
f 305 308 306
f 305 307 308
usemtl APPID_877199568_2277208226544 
o vid_10000024 
f 309 311 312
f 309 312 310
f 309 311 312
usemtl APPID_877199568_2277208226544 
o vid_10000026 
f 313 315 316
f 313 316 314
f 313 315 316
usemtl APPID_877199568_2277208226544 
o vid_10000028 
f 317 319 320
f 317 320 318
f 317 319 320
usemtl APPID_877199568_2277208226544 
o vid_10000030 
f 321 323 324
f 321 324 322
f 321 323 324
usemtl APPID_877199568_2277208226544 
o vid_10000032 
f 325 328 329
f 325 329 326
f 326 329 330
usemtl APPID_877199568_2277208226544 
o vid_10000034 
f 331 333 334
f 331 334 332
f 331 333 334
usemtl APPID_877199568_2277208226544 
o vid_10000036 
f 335 337 338
f 335 338 336
f 335 337 338
usemtl APPID_877199568_2277208226544 
o vid_10000038 
f 339 341 342
f 339 342 340
f 339 341 342
