# File generated by PlantGL - Fri Sep  4 14:41:47 2026
v    217.752484 18.905161 0.000000
v    222.071916 18.601013 0.000000
v    220.175600 22.493825 0.000000
v    222.247516 21.094839 0.848018
v    217.928084 21.398987 0.848018
v    219.824400 17.506175 0.848018
v    222.062184 21.449156 0.688716
v    222.418649 21.585061 1.043219
v    222.463190 21.601210 1.087175
v    222.412266 20.730496 0.688716
v    222.739014 20.927406 1.043219
v    222.779187 20.952523 1.087175
v    221.879284 21.505407 0.848018
v    217.756638 20.874804 0.848018
v    220.364078 17.619789 0.848018
v    218.120716 18.494593 1.416666
v    222.243362 19.125196 1.416666
v    219.635922 22.380211 1.416666
v    218.493117 18.055620 1.191176
v    217.952793 17.696709 1.793949
v    217.044720 17.099981 2.544278
v    216.568043 16.777877 2.728682
v    217.773606 18.953827 1.191176
v    217.305418 18.504865 1.793949
v    216.524880 17.748926 2.544278
v    216.106502 17.354044 2.728682
v    217.841416 19.161313 1.416666
v    221.805616 18.549955 1.416666
v    220.352968 22.288732 1.416666
v    222.158584 20.838687 2.253758
v    218.194384 21.450045 2.253758
v    219.647032 17.711268 2.253758
v    221.871433 21.515662 1.940857
v    222.050431 21.567430 2.114007
v    222.839874 21.781768 2.872938
v    224.190898 22.166488 3.818495
v    225.048301 22.421837 4.105250
v    225.186602 22.457116 4.150816
v    222.403819 20.145427 1.940857
v    222.570813 20.228089 2.114007
v    223.297879 20.602969 2.872938
v    224.554247 21.231314 3.818495
v    225.359135 21.621825 4.105250
v    225.484974 21.689174 4.150816
v    222.163962 20.511898 2.253758
v    218.474702 21.618097 2.253758
v    219.361335 17.870005 2.253758
v    217.836038 19.488102 4.113040
v    221.525298 18.381903 4.113040
v    220.638665 22.129995 4.113040
v    218.105016 18.483911 3.687377
v    217.417344 18.384736 4.333007
v    216.751926 18.299895 4.955355
v    214.859426 18.034898 6.241667
v    213.088664 17.765184 6.815801
v    211.733715 17.613530 7.251065
v    217.626590 20.506376 3.687377
v    216.967368 20.286935 4.333007
v    216.334463 20.064650 4.955355
v    214.523813 19.453645 6.241667
v    212.819885 18.901401 6.815801
v    211.540595 18.429911 7.251065
v    218.595695 18.396392 4.113040
v    222.090917 19.585640 4.113040
v    219.313387 22.017967 4.113040
v    221.404305 21.603608 6.000766
v    217.909083 20.414360 6.000766
v    220.686613 17.982033 6.000766
v    220.283419 22.530963 5.433090
v    221.509369 23.702032 7.008533
v    223.450917 25.539346 8.839565
v    225.882939 27.899625 9.925868
v    227.335678 29.201637 10.548660
v    227.744176 29.572004 10.542382
v    222.471442 20.614877 5.433090
v    223.470522 21.984620 7.008533
v    225.035606 24.151609 8.839565
v    227.054370 26.873785 9.925868
v    228.153326 28.485610 10.548660
v    228.466557 28.939403 10.542382
v    221.718982 21.097521 6.000766
v    218.190028 20.939922 6.000766
v    220.090990 17.962557 6.000766
v    218.281018 18.902479 12.885860
v    221.809972 19.060078 12.885860
v    219.909010 22.037443 12.885860
v    219.368598 17.298169 12.143674
v    217.257375 16.201260 14.354522
v    214.296559 14.673837 16.597336
v    209.912626 12.351829 18.187472
v    208.092933 11.478634 18.831824
v    206.923672 10.909272 18.817018
v    206.191115 10.666098 18.808442
v    217.283338 20.564188 12.143674
v    215.399851 19.110589 14.354522
v    212.768306 17.067448 16.597336
v    208.817090 14.067702 18.187472
v    207.259225 12.784422 18.831824
v    206.250691 11.963324 18.817018
v    205.721827 11.401116 18.808442
v    218.420020 18.861621 12.885860
v    221.775855 19.200887 12.885860
v    219.804125 21.937492 12.885860
v    221.579980 21.138379 19.685705
v    218.224145 20.799113 19.685705
v    220.195875 18.062508 19.685705
v    220.091978 23.086676 18.734440
v    222.668485 24.614693 21.518040
v    226.397472 26.804756 24.442732
v    231.431162 29.844184 26.327515
v    234.117629 31.324147 27.306692
v    235.132895 31.891074 27.293453
v    236.869415 32.577892 27.272705
v    222.957063 19.110166 18.734440
v    225.222094 21.070487 21.518040
v    228.479941 23.914455 24.442732
v    232.956478 27.727168 26.327515
v    235.210732 29.807007 27.306692
v    236.069887 30.590603 27.293453
v    237.271079 32.020415 27.272705
v    221.554633 21.012481 19.685705
v    218.345849 20.840111 19.685705
v    220.099518 18.147408 19.685705
v    218.445367 18.987519 30.882667
v    221.654151 19.159889 30.882667
v    219.900482 21.852592 30.882667
v    220.238006 16.392358 29.687393
v    216.854032 14.595156 33.247915
v    212.111439 12.087202 36.859917
v    204.664774 8.056384 39.574065
v    202.177981 6.835306 40.458509
v    199.852206 5.676672 40.428927
v    196.893692 4.664814 40.394187
v    216.796670 21.676425 29.687393
v    213.784636 19.308120 33.247915
v    209.573189 15.984607 36.859917
v    202.875538 10.803702 39.574065
v    200.753203 9.023008 40.458509
v    198.753088 7.364334 40.428927
v    196.631368 5.067604 40.394187
v    218.458123 19.144816 30.882667
v    221.511550 19.092287 30.882667
v    220.030327 21.762897 30.882667
v    221.541877 20.855184 48.444344
v    218.488450 20.907713 48.444344
v    219.969673 18.237103 48.444344
v    219.440360 24.426043 46.971997
v    223.755056 26.339135 51.357873
v    227.711742 28.142994 54.288593
v    229.777858 29.048943 55.807162
v    242.375434 34.754418 60.239933
v    249.006627 37.506653 60.158175
v    251.414821 38.143873 60.130498
v    253.317406 38.639327 59.782235
v    223.458354 17.181695 46.971997
v    227.365855 19.828951 51.357873
v    230.991129 22.230338 54.288593
v    232.853650 23.503363 55.807162
v    244.364003 31.169075 60.239933
v    250.209928 35.337130 60.158175
v    252.025610 37.042635 60.130498
v    253.453314 38.394288 59.782235
v    221.408805 20.374751 48.444344
v    218.971054 21.032686 48.444344
v    219.620141 18.592564 48.444344
v    218.591195 19.625249 69.931697
v    221.028946 18.967314 69.931697
v    220.379859 21.407436 69.931697
v    220.021144 14.746622 68.153705
v    214.404619 13.777122 73.450046
v    208.232712 12.645483 77.679033
v    190.123054 9.392308 84.175934
v    180.331665 7.897945 84.063089
v    174.508691 7.842555 83.320075
v    217.408181 24.569562 68.153705
v    212.052272 22.620327 73.450046
v    206.133824 20.535858 77.679033
v    188.801300 14.361194 84.175934
v    179.561522 10.793150 84.063089
v    174.480631 7.948044 83.320075
v    218.955669 19.566487 69.931697
v    220.897599 19.312339 69.931697
v    220.146733 21.121174 69.931697
v    221.044331 20.433513 94.018022
v    219.102401 20.687661 94.018022
v    219.853267 18.878826 94.018022
v    218.616319 25.888084 91.913148
v    225.053549 27.910499 98.183217
v    231.536025 30.021504 102.777995
v    234.042135 30.797555 104.543942
v    252.856158 36.872615 110.881053
v    263.408451 39.939356 110.755885
v    266.194000 40.348230 110.724604
v    270.499850 40.963012 109.954133
v    223.192959 14.862966 91.913148
v    229.170048 17.993863 98.183217
v    235.241819 21.094257 102.777995
v    237.560781 22.321144 104.543942
v    255.146214 31.355875 110.881053
v    264.768213 36.663692 110.755885
v    267.024436 38.347710 110.724604
v    270.499850 40.963012 109.954133
v    220.642821 20.528928 94.018022
v    219.220525 20.292235 94.018022
v    220.136655 19.178837 94.018022
v    219.357179 19.471072 114.176685
v    220.779475 19.707765 114.176685
v    219.863345 20.821163 114.176685
v    223.557311 14.642805 111.733819
v    217.091734 10.224693 119.010707
v    208.022349 4.061417 126.392808
v    194.374094 -5.424296 131.720352
v    189.020258 -8.838439 133.747503
v    185.165558 -11.327831 133.695262
v    177.574150 -14.908977 133.602003
v    215.428146 24.522405 111.733819
v    209.847602 19.028688 119.010707
v    202.053123 11.315984 126.392808
v    190.116604 -0.250050 131.720352
v    185.735333 -4.846179 133.747503
v    182.550206 -8.149321 133.695262
v    177.574150 -14.908977 133.602003
v    219.611029 19.593028 114.176685
v    220.546933 19.866627 114.176685
v    219.842038 20.540345 114.176685
v    220.388971 20.406972 129.250000
v    219.453067 20.133373 129.250000
v    220.157962 19.459655 129.250000
v    215.482890 24.790499 123.684130
v    217.029568 26.128323 125.843550
v    221.888461 30.184854 132.515233
v    230.922009 37.956396 141.693278
v    237.234404 43.548932 145.004210
v    246.474485 51.088703 149.666609
v    251.081241 53.866474 151.711645
v    254.292906 55.879911 151.905389
v    224.989812 15.704078 123.684130
v    226.256345 17.309656 125.843550
v    230.089067 22.346970 132.515233
v    237.444273 31.722618 141.693278
v    242.745719 38.281389 145.004210
v    249.860054 47.852881 149.666609
v    252.426721 52.580506 151.711645
v    254.292906 55.879911 151.905389
v    222.463190 21.601210 1.087175
v    223.209568 21.881186 1.644646
v    223.981245 22.182418 1.910172
v    224.615108 22.401288 2.124254
v    225.179233 22.522974 2.117831
v    222.779187 20.952523 1.087175
v    223.459730 21.367647 1.644646
v    224.172605 21.789589 1.910172
v    224.735676 22.153785 2.124254
v    225.179233 22.522974 2.117831
v    216.568043 16.777877 2.728682
v    215.956020 16.364314 2.965444
v    215.269751 15.939242 3.223156
v    215.107576 15.837499 3.220976
v    214.402572 15.516162 3.212368
v    216.106502 17.354044 2.728682
v    215.569331 16.847040 2.965444
v    215.004722 16.270092 3.223156
v    214.870036 16.134034 3.220976
v    214.402572 15.516162 3.212368
v    225.186602 22.457116 4.150816
v    226.378970 22.761274 4.543665
v    227.072461 22.838518 4.760542
v    227.414333 22.880734 4.756715
v    225.484974 21.689174 4.150816
v    226.569913 22.269831 4.543665
v    227.133638 22.681061 4.760542
v    227.414333 22.880734 4.756715
v    211.733715 17.613530 7.251065
v    211.232084 17.557384 7.412209
v    210.875106 17.567158 7.523203
v    209.786597 17.583960 7.511107
v    211.540595 18.429911 7.251065
v    211.066975 18.255356 7.412209
v    210.752211 18.086678 7.523203
v    209.786597 17.583960 7.511107
v    227.744176 29.572004 10.542382
v    229.361695 30.690334 10.520527
v    228.466557 28.939403 10.542382
v    229.361695 30.690334 10.520527
v    206.191115 10.666098 18.808442
v    204.503383 10.105852 18.788684
v    205.721827 11.401116 18.808442
v    204.503383 10.105852 18.788684
v    236.869415 32.577892 27.272705
v    238.172348 33.093219 27.257137
v    237.271079 32.020415 27.272705
v    238.172348 33.093219 27.257137
v    196.893692 4.664814 40.394187
v    195.966236 4.347610 40.383296
v    196.631368 5.067604 40.394187
v    195.966236 4.347610 40.383296
v    253.317406 38.639327 59.782235
v    253.861915 38.781123 59.682564
v    253.453314 38.394288 59.782235
v    253.861915 38.781123 59.682564
v    174.508691 7.842555 83.320075
v    174.337486 7.841127 83.289747
v    174.290779 7.841066 83.275855
v    174.480631 7.948044 83.320075
v    174.331344 7.864219 83.289747
v    174.290779 7.841066 83.275855
mtllib usm_42_Beer_2018-08-08_5.mtl
usemtl APPID_4152061328_1941179262448 
o vid_3 
f 3 2 1
f 4 5 6
f 1 6 5
f 1 5 3
f 3 5 4
f 4 2 3
f 2 4 6
f 6 1 2
usemtl APPID_4152063232_1941179265008 
o vid_4 
f 7 10 11
f 7 11 8
f 8 11 12
f 8 12 9
usemtl APPID_4152061328_1941179262448 
o vid_5 
f 15 14 13
f 16 17 18
f 13 18 17
f 13 17 15
f 15 17 16
f 16 14 15
f 14 16 18
f 18 13 14
usemtl APPID_4152063232_1941179265008 
o vid_6 
f 19 23 24
f 20 24 25
f 19 24 20
f 20 25 21
f 21 25 26
f 21 26 22
usemtl APPID_4152061328_1941179262448 
o vid_7 
f 29 28 27
f 30 31 32
f 27 32 31
f 27 31 29
f 29 31 30
f 30 28 29
f 28 30 32
f 32 27 28
usemtl APPID_4152063232_1941179265008 
o vid_8 
f 33 39 40
f 34 40 41
f 35 41 42
f 36 42 43
f 33 40 34
f 34 41 35
f 35 42 36
f 36 43 37
f 37 43 44
f 37 44 38
usemtl APPID_4152061328_1941179262448 
o vid_9 
f 47 46 45
f 48 49 50
f 45 50 49
f 45 49 47
f 47 49 48
f 48 46 47
f 46 48 50
f 50 45 46
usemtl APPID_4152063232_1941179265008 
o vid_10 
f 51 57 58
f 52 58 59
f 53 59 60
f 54 60 61
f 51 58 52
f 52 59 53
f 53 60 54
f 54 61 55
f 55 61 62
f 55 62 56
usemtl APPID_4152061328_1941179262448 
o vid_11 
f 65 64 63
f 66 67 68
f 63 68 67
f 63 67 65
f 65 67 66
f 66 64 65
f 64 66 68
f 68 63 64
usemtl APPID_4152063232_1941179265008 
o vid_12 
f 69 75 76
f 70 76 77
f 71 77 78
f 72 78 79
f 69 76 70
f 70 77 71
f 71 78 72
f 72 79 73
f 73 79 80
f 73 80 74
usemtl APPID_4152061328_1941179262448 
o vid_13 
f 83 82 81
f 84 85 86
f 81 86 85
f 81 85 83
f 83 85 84
f 84 82 83
f 82 84 86
f 86 81 82
usemtl APPID_4152063232_1941179265008 
o vid_14 
f 87 94 95
f 88 95 96
f 89 96 97
f 90 97 98
f 91 98 99
f 87 95 88
f 88 96 89
f 89 97 90
f 90 98 91
f 91 99 92
f 92 99 100
f 92 100 93
usemtl APPID_4152061328_1941179262448 
o vid_15 
f 103 102 101
f 104 105 106
f 101 106 105
f 101 105 103
f 103 105 104
f 104 102 103
f 102 104 106
f 106 101 102
usemtl APPID_4152063232_1941179265008 
o vid_16 
f 107 114 115
f 108 115 116
f 109 116 117
f 110 117 118
f 111 118 119
f 107 115 108
f 108 116 109
f 109 117 110
f 110 118 111
f 111 119 112
f 112 119 120
f 112 120 113
usemtl APPID_4152061328_1941179262448 
o vid_17 
f 123 122 121
f 124 125 126
f 121 126 125
f 121 125 123
f 123 125 124
f 124 122 123
f 122 124 126
f 126 121 122
usemtl APPID_4152063232_1941179265008 
o vid_18 
f 127 134 135
f 128 135 136
f 129 136 137
f 130 137 138
f 131 138 139
f 127 135 128
f 128 136 129
f 129 137 130
f 130 138 131
f 131 139 132
f 132 139 140
f 132 140 133
usemtl APPID_4152061328_1941179262448 
o vid_19 
f 143 142 141
f 144 145 146
f 141 146 145
f 141 145 143
f 143 145 144
f 144 142 143
f 142 144 146
f 146 141 142
usemtl APPID_4152063232_1941179265008 
o vid_20 
f 147 155 156
f 148 156 157
f 149 157 158
f 150 158 159
f 151 159 160
f 152 160 161
f 147 156 148
f 148 157 149
f 149 158 150
f 150 159 151
f 151 160 152
f 152 161 153
f 153 161 162
f 153 162 154
usemtl APPID_4152061328_1941179262448 
o vid_21 
f 165 164 163
f 166 167 168
f 163 168 167
f 163 167 165
f 165 167 166
f 166 164 165
f 164 166 168
f 168 163 164
usemtl APPID_4152063232_1941179265008 
o vid_22 
f 169 175 176
f 170 176 177
f 171 177 178
f 172 178 179
f 169 176 170
f 170 177 171
f 171 178 172
f 172 179 173
f 173 179 180
f 173 180 174
usemtl APPID_4152061328_1941179262448 
o vid_23 
f 183 182 181
f 184 185 186
f 181 186 185
f 181 185 183
f 183 185 184
f 184 182 183
f 182 184 186
f 186 181 182
usemtl APPID_4152063232_1941179265008 
o vid_24 
f 187 195 196
f 188 196 197
f 189 197 198
f 190 198 199
f 191 199 200
f 192 200 201
f 187 196 188
f 188 197 189
f 189 198 190
f 190 199 191
f 191 200 192
f 192 201 193
f 193 201 202
usemtl APPID_4152061328_1941179262448 
o vid_25 
f 205 204 203
f 206 207 208
f 203 208 207
f 203 207 205
f 205 207 206
f 206 204 205
f 204 206 208
f 208 203 204
usemtl APPID_4152063232_1941179265008 
o vid_26 
f 209 216 217
f 210 217 218
f 211 218 219
f 212 219 220
f 213 220 221
f 209 217 210
f 210 218 211
f 211 219 212
f 212 220 213
f 213 221 214
f 214 221 222
usemtl APPID_4152061328_1941179262448 
o vid_27 
f 225 224 223
f 226 227 228
f 223 228 227
f 223 227 225
f 225 227 226
f 226 224 225
f 224 226 228
f 228 223 224
usemtl APPID_4152063232_1941179265008 
o vid_28 
f 229 237 238
f 230 238 239
f 231 239 240
f 232 240 241
f 233 241 242
f 234 242 243
f 229 238 230
f 230 239 231
f 231 240 232
f 232 241 233
f 233 242 234
f 234 243 235
f 235 243 244
usemtl APPID_4152064128_1941179265264 
o vid_10000004 
f 245 250 251
f 246 251 252
f 247 252 253
f 245 251 246
f 246 252 247
f 247 253 248
f 248 253 254
usemtl APPID_4152064128_1941179265264 
o vid_10000006 
f 255 260 261
f 256 261 262
f 257 262 263
f 255 261 256
f 256 262 257
f 257 263 258
f 258 263 264
usemtl APPID_4152064128_1941179265264 
o vid_10000008 
f 265 269 270
f 266 270 271
f 265 270 266
f 266 271 267
f 267 271 272
usemtl APPID_4152064128_1941179265264 
o vid_10000010 
f 273 277 278
f 274 278 279
f 273 278 274
f 274 279 275
f 275 279 280
usemtl APPID_4152064128_1941179265264 
o vid_10000012 
f 281 283 284
f 281 284 282
f 281 283 284
usemtl APPID_4152064128_1941179265264 
o vid_10000014 
f 285 287 288
f 285 288 286
f 285 287 288
usemtl APPID_4152064128_1941179265264 
o vid_10000016 
f 289 291 292
f 289 292 290
f 289 291 292
usemtl APPID_4152064128_1941179265264 
o vid_10000018 
f 293 295 296
f 293 296 294
f 293 295 296
usemtl APPID_4152064128_1941179265264 
o vid_10000020 
f 297 299 300
f 297 300 298
f 297 299 300
usemtl APPID_4152064128_1941179265264 
o vid_10000022 
f 301 304 305
f 301 305 302
f 302 305 306
