# File generated by PlantGL - Fri Sep  4 14:43:17 2026
v    138.908961 19.468519 0.000000
v    141.005795 19.320873 0.000000
v    140.085244 21.210608 0.000000
v    141.091039 20.531481 0.316043
v    138.994205 20.679127 0.316043
v    139.914756 18.789392 0.316043
v    140.928289 20.839100 0.154671
v    141.415388 21.015709 0.635371
v    142.093373 21.271009 1.123020
v    142.815295 21.522650 1.367177
v    143.334919 21.624548 1.531758
v    141.232940 20.213705 0.154671
v    141.672264 20.488388 0.635371
v    142.291217 20.864869 1.123020
v    142.934374 21.278202 1.367177
v    143.334919 21.624548 1.531758
v    140.618645 20.495568 0.316043
v    139.261503 20.287979 0.316043
v    140.119852 19.216453 0.316043
v    139.381355 19.504432 0.379000
v    140.738497 19.712021 0.379000
v    139.880148 20.783547 0.379000
v    139.571371 19.165130 -0.062825
v    139.254738 19.002547 0.786467
v    138.765121 18.764798 1.683256
v    138.616607 18.731258 1.908576
v    138.253062 18.600610 2.243279
v    139.091705 19.763924 -0.062825
v    138.863935 19.490409 0.786467
v    138.525053 19.064488 1.683256
v    138.459908 18.926875 1.908576
v    138.253062 18.600610 2.243279
mtllib usm_41_2.5D_2018-07-24_3.mtl
usemtl APPID_2128194736_2746616046832 
o vid_3 
f 3 2 1
f 4 5 6
f 1 6 5
f 1 5 3
f 3 5 4
f 4 2 3
f 2 4 6
f 6 1 2
usemtl APPID_2128193616_2746616046704 
o vid_4 
f 7 12 13
f 8 13 14
f 9 14 15
f 7 13 8
f 8 14 9
f 9 15 10
f 10 15 16
usemtl APPID_2128194736_2746616046832 
o vid_5 
f 19 18 17
f 20 21 22
f 17 22 21
f 17 21 19
f 19 21 20
f 20 18 19
f 18 20 22
f 22 17 18
usemtl APPID_2128193616_2746616046704 
o vid_6 
f 23 28 29
f 24 29 30
f 25 30 31
f 23 29 24
f 24 30 25
f 25 31 26
f 26 31 32
