# File generated by PlantGL - Fri Sep  4 14:41:26 2026
v    17.752484 118.905161 0.000000
v    22.071916 118.601013 0.000000
v    20.175600 122.493825 0.000000
v    22.247516 121.094839 0.848018
v    17.928084 121.398987 0.848018
v    19.824400 117.506175 0.848018
v    22.061621 121.449878 0.686083
v    22.363977 121.565153 0.986774
v    22.457091 121.598914 1.078665
v    22.412489 120.729608 0.686083
v    22.689638 120.896628 0.986774
v    22.773619 120.949136 1.078665
v    21.879284 121.505407 0.848018
v    17.756638 120.874804 0.848018
v    20.364078 117.619789 0.848018
v    18.120716 118.494593 1.416666
v    22.243362 119.125196 1.416666
v    19.635922 122.380211 1.416666
v    18.495907 118.052637 1.186837
v    18.164326 117.832384 1.556741
v    17.771304 118.957200 1.186837
v    17.483990 118.681685 1.556741
v    17.841416 119.161313 1.416666
v    21.805616 118.549955 1.416666
v    20.352968 122.288732 1.416666
v    22.158584 120.838687 2.254254
v    18.194384 121.450045 2.254254
v    19.647032 117.711268 2.254254
v    21.869293 121.519816 1.934528
v    21.929234 121.537152 1.992511
v    22.276033 121.631310 2.325905
v    22.405045 120.140917 1.934528
v    22.460966 120.168598 1.992511
v    22.780363 120.333281 2.325905
v    22.163962 120.511898 2.254254
v    18.474702 121.618097 2.254254
v    19.361335 117.870005 2.254254
v    17.836038 119.488102 4.114020
v    21.525298 118.381903 4.114020
v    20.638665 122.129995 4.114020
v    18.107452 118.476835 3.678044
v    17.600432 118.403713 4.154066
v    16.720820 118.291563 4.976743
v    16.207834 118.219732 5.325415
v    17.625597 120.513793 3.678044
v    17.139553 120.352000 4.154066
v    16.302921 120.058163 4.976743
v    15.812121 119.892542 5.325415
v    18.595695 118.396392 4.114020
v    22.090917 119.585640 4.114020
v    19.313387 122.017967 4.114020
v    21.404305 121.603608 6.002274
v    17.909083 120.414360 6.002274
v    20.686613 117.982033 6.002274
v    20.272278 122.539283 5.419557
v    21.330156 123.549803 6.779014
v    21.628054 123.825157 7.155373
v    23.527143 125.624357 8.916287
v    24.896375 126.953197 9.527877
v    22.481159 120.604931 5.419557
v    23.343269 121.786888 6.779014
v    23.576911 122.118512 7.155373
v    25.109816 124.238385 8.916287
v    26.246383 125.770973 9.527877
v    21.718982 121.097521 6.002274
v    18.190028 120.939922 6.002274
v    20.090990 117.962557 6.002274
v    18.281018 118.902479 11.513477
v    21.809972 119.060078 11.513477
v    19.909010 122.037443 11.513477
v    19.303724 117.402613 10.750057
v    18.688409 117.082919 11.394408
v    17.116520 116.298722 13.024157
v    14.068760 114.731103 15.331137
v    11.865365 113.564046 16.130350
v    11.282905 113.284548 16.336599
v    17.350784 120.461386 10.750057
v    16.801843 120.037735 11.394408
v    15.428991 118.941800 13.024157
v    12.724395 116.836703 15.331137
v    10.738486 115.329010 16.130350
v    10.239834 114.918248 16.336599
v    18.420020 118.861621 11.513477
v    21.775855 119.200887 11.513477
v    19.804125 121.937492 11.513477
v    21.579980 121.138379 19.661518
v    18.224145 120.799113 19.661518
v    20.195875 118.062508 19.661518
v    20.020250 123.182655 18.681171
v    22.723277 124.785706 21.601461
v    26.513642 127.021161 24.563974
v    32.263323 130.492917 26.716848
v    34.454472 131.700011 27.515488
v    35.030335 132.021575 27.507980
v    23.025401 119.011744 18.681171
v    25.401657 121.068327 21.601461
v    28.721991 123.956148 24.563974
v    33.835270 128.311180 26.716848
v    35.673895 130.007548 27.515488
v    36.161212 130.452008 27.507980
v    21.554633 121.012481 19.661518
v    18.345849 120.840111 19.661518
v    20.099518 118.147408 19.661518
v    18.445367 118.987519 30.885372
v    21.654151 119.159889 30.885372
v    19.900482 121.852592 30.885372
v    20.262851 116.359306 29.651395
v    16.769305 114.503911 33.327206
v    11.866987 111.924212 37.056163
v    4.961879 108.186534 39.572925
v    1.592472 106.532071 40.771276
v    0.267181 105.871850 40.754420
v    16.776486 121.712513 29.651395
v    13.666923 119.267523 33.327206
v    9.325274 115.826934 37.056163
v    3.114708 111.022810 39.572925
v    0.239114 108.610111 40.771276
v    -0.900607 107.664953 40.754420
v    18.458123 119.144816 30.885372
v    21.511550 119.092287 30.885372
v    20.030327 121.762897 30.885372
v    21.541877 120.855184 48.446724
v    18.488450 120.907713 48.446724
v    19.969673 118.237103 48.446724
v    19.417630 124.459600 46.924267
v    23.879170 126.437801 51.459409
v    26.805469 127.771905 53.626921
v    30.116004 129.223505 56.060123
v    42.158008 134.677360 60.297402
v    48.594022 137.326081 60.576873
v    49.617940 137.597015 60.565105
v    23.474786 117.144645 46.924267
v    27.515272 119.881996 51.459409
v    30.196464 121.658022 53.626921
v    33.180779 123.697789 56.060123
v    44.183509 131.025431 60.297402
v    49.838275 135.082722 60.576873
v    50.610269 135.807870 60.565105
v    21.614895 120.429572 48.446724
v    18.820532 121.183754 48.446724
v    19.564573 118.386674 48.446724
v    18.385105 119.570428 69.871530
v    21.179468 118.816246 69.871530
v    20.435427 121.613326 69.871530
v    19.838656 114.620735 68.030362
v    14.022565 113.616786 73.514892
v    8.956392 112.687887 76.986231
v    5.890915 112.171707 79.078720
v    -11.126820 109.095155 84.621892
v    -19.667378 107.843123 84.523613
v    -22.703017 107.805891 84.489883
v    17.187264 124.588141 68.030362
v    11.641049 122.569647 73.514892
v    6.782926 120.858622 76.986231
v    3.866136 119.783482 79.078720
v    -12.431025 113.998067 84.621892
v    -20.464886 110.841201 84.523613
v    -23.117814 109.365240 84.489883
v    18.541706 119.394647 69.871530
v    21.253398 119.039757 69.871530
v    20.204896 121.565597 69.871530
v    21.458294 120.605353 89.783161
v    18.746602 120.960243 89.783161
v    19.795104 118.434403 89.783161
v    19.080380 125.924690 87.600670
v    25.754980 128.021682 94.101946
v    28.068718 128.775145 95.741923
v    35.100932 130.952765 100.697220
v    50.753557 136.007008 105.969480
v    54.670797 137.102282 107.268009
v    60.232903 138.691954 107.202151
v    65.231305 139.425640 107.146020
v    23.546522 115.165764 87.600670
v    29.744013 118.412111 94.101946
v    31.911161 119.518710 95.741923
v    38.418235 122.961389 100.697220
v    53.048715 130.477977 105.969480
v    56.590039 132.478831 107.268009
v    61.642805 135.295502 107.202151
v    65.691383 138.317312 107.146020
v    21.148136 120.944713 89.783161
v    18.607786 120.521958 89.783161
v    20.244078 118.533328 89.783161
v    18.851864 119.055287 113.738124
v    21.392214 119.478042 113.738124
v    19.755922 121.466672 113.738124
v    23.422001 113.787857 111.202281
v    16.710340 109.201589 118.756132
v    12.267011 106.097008 122.409341
v    7.334771 102.756332 126.419200
v    -10.806047 90.148229 133.500399
v    -20.552639 83.865662 133.941539
v    -26.755432 80.939577 133.865338
v    -27.178115 80.742205 133.782704
v    14.563143 124.554273 111.202281
v    8.770200 118.851462 118.756132
v    4.868042 115.089181 122.409341
v    0.640054 110.892608 126.419200
v    -15.225580 95.519411 133.500399
v    -23.267533 87.165149 133.941539
v    -27.333373 81.641964 133.865338
v    -27.608449 81.265202 133.782704
v    19.169471 119.131036 113.738124
v    21.167809 119.715223 113.738124
v    19.662720 121.153741 113.738124
v    20.830529 120.868964 134.192471
v    18.832191 120.284777 134.192471
v    20.337280 118.846259 134.192471
v    15.093657 126.065020 131.304434
v    22.060233 132.162319 139.907414
v    24.745250 134.562111 142.334464
v    31.813760 140.697487 148.634782
v    48.405689 155.452858 155.751869
v    52.226419 158.588214 157.329749
v    58.471184 163.773062 157.237343
v    66.584345 168.862871 157.130930
v    26.280626 115.372862 131.304434
v    32.056745 122.607963 139.907414
v    34.332699 125.398725 142.334464
v    40.142247 132.737377 148.634782
v    54.132440 149.979407 155.751869
v    57.091862 153.937974 157.329749
v    61.989095 160.410753 157.237343
v    66.706918 168.745720 157.130930
v    20.643711 120.656054 134.192471
v    19.109985 120.229443 134.192471
v    20.246304 119.114503 134.192471
v    19.356289 119.343946 147.048688
v    20.890015 119.770557 147.048688
v    19.753696 120.885497 147.048688
v    25.174300 113.959952 143.824694
v    20.715207 110.159374 149.269172
v    17.255987 107.307704 153.428430
v    6.201996 97.964347 163.171021
v    -4.639803 88.574366 167.768370
v    -15.694737 79.742562 172.285594
v    -25.090113 74.045304 172.776517
v    13.862777 125.058662 143.824694
v    10.147567 120.528197 149.269172
v    7.362104 117.015445 153.428430
v    -1.769644 105.786011 163.171021
v    -10.952039 94.767844 167.768370
v    -19.572308 83.547181 172.285594
v    -25.090113 74.045304 172.776517
v    19.554461 119.506344 147.048688
v    20.650288 119.860980 147.048688
v    19.795251 120.632676 147.048688
v    20.445539 120.493656 158.345851
v    19.349712 120.139020 158.345851
v    20.204749 119.367324 158.345851
v    13.691191 126.248182 154.818115
v    20.038891 132.132475 162.861267
v    33.675889 144.625654 175.987119
v    47.226443 157.388037 181.953653
v    58.227809 166.954807 186.608014
v    69.019606 174.313614 186.462541
v    26.860206 114.362765 154.818115
v    32.064977 121.278584 162.861267
v    43.099091 136.120942 175.987119
v    54.409834 150.904819 181.953653
v    62.802213 162.826275 186.608014
v    69.019606 174.313614 186.462541
v    20.431531 120.084007 158.345851
v    19.711482 120.331713 158.345851
v    19.856987 119.584280 158.345851
v    19.568469 119.915993 162.791000
v    20.288518 119.668287 162.791000
v    20.143013 120.415720 162.791000
v    21.057292 112.811642 155.217708
v    10.315344 112.023400 167.811470
v    2.572112 111.320681 174.466739
v    -5.250862 111.000134 181.126520
v    -11.755460 110.570554 184.070373
v    -23.625002 111.507391 189.292612
v    18.283516 127.060031 155.217708
v    8.030333 123.761089 167.811470
v    0.588960 121.507776 174.466739
v    -6.782968 118.870286 181.126520
v    -12.973699 116.828428 184.070373
v    -23.625002 111.507391 189.292612
v    22.457091 121.598914 1.078665
v    23.228435 121.888097 1.657813
v    23.935039 122.163927 1.900948
v    24.606829 122.395893 2.127840
v    25.149057 122.508274 2.139823
v    22.773619 120.949136 1.078665
v    23.476801 121.378244 1.657813
v    24.129562 121.764605 1.900948
v    24.726323 122.150591 2.127840
v    25.149057 122.508274 2.139823
v    18.164326 117.832384 1.556741
v    18.010760 117.730377 1.728055
v    17.018823 117.079621 2.565979
v    15.994038 116.387144 2.962419
v    15.207136 115.899740 3.257921
v    14.414709 115.525884 3.248154
v    17.483990 118.681685 1.556741
v    17.350926 118.554085 1.728055
v    16.499359 117.728098 2.565979
v    15.599908 116.879159 2.962419
v    14.952506 116.217609 3.257921
v    14.414709 115.525884 3.248154
v    22.276033 121.631310 2.325905
v    22.859622 121.789757 2.886938
v    24.240114 122.182869 3.853120
v    24.956609 122.396253 4.092749
v    26.316301 122.743093 4.540726
v    27.195609 122.841034 4.815714
v    27.366453 122.862131 4.813802
v    22.780363 120.333281 2.325905
v    23.317841 120.610408 2.886938
v    24.601612 121.252459 3.853120
v    25.274222 121.578792 4.092749
v    26.511409 122.240932 4.540726
v    27.226181 122.762348 4.815714
v    27.366453 122.862131 4.813802
v    16.207834 118.219732 5.325415
v    14.782468 118.020145 6.294220
v    13.225221 117.782953 6.799126
v    11.323659 117.570118 7.409984
v    10.690643 117.587449 7.606806
v    9.855822 117.600336 7.597530
v    15.812121 119.892542 5.325415
v    14.448402 119.432354 6.294220
v    12.949930 118.946699 6.799126
v    11.154549 118.285001 7.409984
v    10.596390 117.985890 7.606806
v    9.855822 117.600336 7.597530
v    24.896375 126.953197 9.527877
v    25.764649 127.795857 9.915706
v    27.525682 129.374177 10.670664
v    29.323639 130.646877 10.646115
v    26.246383 125.770973 9.527877
v    26.967117 126.742837 9.915706
v    28.299288 128.696718 10.670664
v    29.323639 130.646877 10.646115
v    11.282905 113.284548 16.336599
v    8.844610 112.114512 17.199998
v    7.527841 111.694789 17.629553
v    6.411783 111.324311 17.616487
v    10.239834 114.918248 16.336599
v    8.152374 113.198719 17.199998
v    7.217512 112.180839 17.629553
v    6.411783 111.324311 17.616487
v    35.030335 132.021575 27.507980
v    36.104969 132.621654 27.493967
v    39.237342 133.860550 27.456541
v    36.161212 130.452008 27.507980
v    37.070606 131.281426 27.493967
v    39.237342 133.860550 27.456541
v    0.267181 105.871850 40.754420
v    0.030922 105.754152 40.751415
v    -3.980874 104.382055 40.704306
v    -0.900607 107.664953 40.754420
v    -1.103785 107.496460 40.751415
v    -3.980874 104.382055 40.704306
v    49.617940 137.597015 60.565105
v    52.620497 138.391506 60.530597
v    53.636451 138.656072 60.344629
v    50.610269 135.807870 60.565105
v    52.874076 137.934308 60.530597
v    53.636451 138.656072 60.344629
v    -22.703017 107.805891 84.489883
v    -23.138585 107.800548 84.485043
v    -25.949688 107.777100 83.987069
v    -23.117814 109.365240 84.489883
v    -23.498468 109.153462 84.485043
v    -25.949688 107.777100 83.987069
v    65.231305 139.425640 107.146020
v    67.652445 139.781024 107.118831
v    65.691383 138.317312 107.146020
v    67.652445 139.781024 107.118831
v    -27.178115 80.742205 133.782704
v    -28.410412 80.166786 133.541790
v    -27.608449 81.265202 133.782704
v    -28.410412 80.166786 133.541790
v    66.584345 168.862871 157.130930
v    66.877233 169.046614 157.127089
v    66.706918 168.745720 157.130930
v    66.877233 169.046614 157.127089
mtllib usm_4_Beer_2018-08-16_1.mtl
usemtl APPID_1857652400_2531587818080 
o vid_3 
f 3 2 1
f 4 5 6
f 1 6 5
f 1 5 3
f 3 5 4
f 4 2 3
f 2 4 6
f 6 1 2
usemtl APPID_1857658224_2531587824224 
o vid_4 
f 7 10 11
f 7 11 8
f 8 11 12
f 8 12 9
usemtl APPID_1857652400_2531587818080 
o vid_5 
f 15 14 13
f 16 17 18
f 13 18 17
f 13 17 15
f 15 17 16
f 16 14 15
f 14 16 18
f 18 13 14
usemtl APPID_1857658224_2531587824224 
o vid_6 
f 19 21 22
f 19 22 20
f 19 21 22
f 19 22 20
usemtl APPID_1857652400_2531587818080 
o vid_7 
f 25 24 23
f 26 27 28
f 23 28 27
f 23 27 25
f 25 27 26
f 26 24 25
f 24 26 28
f 28 23 24
usemtl APPID_1857658224_2531587824224 
o vid_8 
f 29 32 33
f 29 33 30
f 30 33 34
f 30 34 31
usemtl APPID_1857652400_2531587818080 
o vid_9 
f 37 36 35
f 38 39 40
f 35 40 39
f 35 39 37
f 37 39 38
f 38 36 37
f 36 38 40
f 40 35 36
usemtl APPID_1857658224_2531587824224 
o vid_10 
f 41 45 46
f 42 46 47
f 41 46 42
f 42 47 43
f 43 47 48
f 43 48 44
usemtl APPID_1857652400_2531587818080 
o vid_11 
f 51 50 49
f 52 53 54
f 49 54 53
f 49 53 51
f 51 53 52
f 52 50 51
f 50 52 54
f 54 49 50
usemtl APPID_1857658224_2531587824224 
o vid_12 
f 55 60 61
f 56 61 62
f 57 62 63
f 55 61 56
f 56 62 57
f 57 63 58
f 58 63 64
f 58 64 59
usemtl APPID_1857652400_2531587818080 
o vid_13 
f 67 66 65
f 68 69 70
f 65 70 69
f 65 69 67
f 67 69 68
f 68 66 67
f 66 68 70
f 70 65 66
usemtl APPID_1857658224_2531587824224 
o vid_14 
f 71 77 78
f 72 78 79
f 73 79 80
f 74 80 81
f 71 78 72
f 72 79 73
f 73 80 74
f 74 81 75
f 75 81 82
f 75 82 76
usemtl APPID_1857652400_2531587818080 
o vid_15 
f 85 84 83
f 86 87 88
f 83 88 87
f 83 87 85
f 85 87 86
f 86 84 85
f 84 86 88
f 88 83 84
usemtl APPID_1857658224_2531587824224 
o vid_16 
f 89 95 96
f 90 96 97
f 91 97 98
f 92 98 99
f 89 96 90
f 90 97 91
f 91 98 92
f 92 99 93
f 93 99 100
f 93 100 94
usemtl APPID_1857652400_2531587818080 
o vid_17 
f 103 102 101
f 104 105 106
f 101 106 105
f 101 105 103
f 103 105 104
f 104 102 103
f 102 104 106
f 106 101 102
usemtl APPID_1857658224_2531587824224 
o vid_18 
f 107 113 114
f 108 114 115
f 109 115 116
f 110 116 117
f 107 114 108
f 108 115 109
f 109 116 110
f 110 117 111
f 111 117 118
f 111 118 112
usemtl APPID_1857652400_2531587818080 
o vid_19 
f 121 120 119
f 122 123 124
f 119 124 123
f 119 123 121
f 121 123 122
f 122 120 121
f 120 122 124
f 124 119 120
usemtl APPID_1857658224_2531587824224 
o vid_20 
f 125 132 133
f 126 133 134
f 127 134 135
f 128 135 136
f 129 136 137
f 125 133 126
f 126 134 127
f 127 135 128
f 128 136 129
f 129 137 130
f 130 137 138
f 130 138 131
usemtl APPID_1857652400_2531587818080 
o vid_21 
f 141 140 139
f 142 143 144
f 139 144 143
f 139 143 141
f 141 143 142
f 142 140 141
f 140 142 144
f 144 139 140
usemtl APPID_1857658224_2531587824224 
o vid_22 
f 145 152 153
f 146 153 154
f 147 154 155
f 148 155 156
f 149 156 157
f 145 153 146
f 146 154 147
f 147 155 148
f 148 156 149
f 149 157 150
f 150 157 158
f 150 158 151
usemtl APPID_1857652400_2531587818080 
o vid_23 
f 161 160 159
f 162 163 164
f 159 164 163
f 159 163 161
f 161 163 162
f 162 160 161
f 160 162 164
f 164 159 160
usemtl APPID_1857658224_2531587824224 
o vid_24 
f 165 173 174
f 166 174 175
f 167 175 176
f 168 176 177
f 169 177 178
f 170 178 179
f 165 174 166
f 166 175 167
f 167 176 168
f 168 177 169
f 169 178 170
f 170 179 171
f 171 179 180
f 171 180 172
usemtl APPID_1857652400_2531587818080 
o vid_25 
f 183 182 181
f 184 185 186
f 181 186 185
f 181 185 183
f 183 185 184
f 184 182 183
f 182 184 186
f 186 181 182
usemtl APPID_1857658224_2531587824224 
o vid_26 
f 187 195 196
f 188 196 197
f 189 197 198
f 190 198 199
f 191 199 200
f 192 200 201
f 187 196 188
f 188 197 189
f 189 198 190
f 190 199 191
f 191 200 192
f 192 201 193
f 193 201 202
f 193 202 194
usemtl APPID_1857652400_2531587818080 
o vid_27 
f 205 204 203
f 206 207 208
f 203 208 207
f 203 207 205
f 205 207 206
f 206 204 205
f 204 206 208
f 208 203 204
usemtl APPID_1857658224_2531587824224 
o vid_28 
f 209 217 218
f 210 218 219
f 211 219 220
f 212 220 221
f 213 221 222
f 214 222 223
f 209 218 210
f 210 219 211
f 211 220 212
f 212 221 213
f 213 222 214
f 214 223 215
f 215 223 224
f 215 224 216
usemtl APPID_1857652400_2531587818080 
o vid_29 
f 227 226 225
f 228 229 230
f 225 230 229
f 225 229 227
f 227 229 228
f 228 226 227
f 226 228 230
f 230 225 226
usemtl APPID_1857658224_2531587824224 
o vid_30 
f 231 238 239
f 232 239 240
f 233 240 241
f 234 241 242
f 235 242 243
f 231 239 232
f 232 240 233
f 233 241 234
f 234 242 235
f 235 243 236
f 236 243 244
usemtl APPID_1857652400_2531587818080 
o vid_31 
f 247 246 245
f 248 249 250
f 245 250 249
f 245 249 247
f 247 249 248
f 248 246 247
f 246 248 250
f 250 245 246
usemtl APPID_1857658224_2531587824224 
o vid_32 
f 251 257 258
f 252 258 259
f 253 259 260
f 254 260 261
f 251 258 252
f 252 259 253
f 253 260 254
f 254 261 255
f 255 261 262
usemtl APPID_1857652400_2531587818080 
o vid_33 
f 265 264 263
f 266 267 268
f 263 268 267
f 263 267 265
f 265 267 266
f 266 264 265
f 264 266 268
f 268 263 264
usemtl APPID_1857658224_2531587824224 
o vid_34 
f 269 275 276
f 270 276 277
f 271 277 278
f 272 278 279
f 269 276 270
f 270 277 271
f 271 278 272
f 272 279 273
f 273 279 280
usemtl APPID_1857655424_2531587818336 
o vid_10000004 
f 281 286 287
f 282 287 288
f 283 288 289
f 281 287 282
f 282 288 283
f 283 289 284
f 284 289 290
usemtl APPID_1857655424_2531587818336 
o vid_10000006 
f 291 297 298
f 292 298 299
f 293 299 300
f 294 300 301
f 291 298 292
f 292 299 293
f 293 300 294
f 294 301 295
f 295 301 302
usemtl APPID_1857655424_2531587818336 
o vid_10000008 
f 303 310 311
f 304 311 312
f 305 312 313
f 306 313 314
f 307 314 315
f 303 311 304
f 304 312 305
f 305 313 306
f 306 314 307
f 307 315 308
f 308 315 316
usemtl APPID_1857655424_2531587818336 
o vid_10000010 
f 317 323 324
f 318 324 325
f 319 325 326
f 320 326 327
f 317 324 318
f 318 325 319
f 319 326 320
f 320 327 321
f 321 327 328
usemtl APPID_1857655424_2531587818336 
o vid_10000012 
f 329 333 334
f 330 334 335
f 329 334 330
f 330 335 331
f 331 335 336
usemtl APPID_1857655424_2531587818336 
o vid_10000014 
f 337 341 342
f 338 342 343
f 337 342 338
f 338 343 339
f 339 343 344
usemtl APPID_1857655424_2531587818336 
o vid_10000016 
f 345 348 349
f 345 349 346
f 346 349 350
usemtl APPID_1857655424_2531587818336 
o vid_10000018 
f 351 354 355
f 351 355 352
f 352 355 356
usemtl APPID_1857655424_2531587818336 
o vid_10000020 
f 357 360 361
f 357 361 358
f 358 361 362
usemtl APPID_1857655424_2531587818336 
o vid_10000022 
f 363 366 367
f 363 367 364
f 364 367 368
usemtl APPID_1857655424_2531587818336 
o vid_10000024 
f 369 371 372
f 369 372 370
f 369 371 372
usemtl APPID_1857655424_2531587818336 
o vid_10000026 
f 373 375 376
f 373 376 374
f 373 375 376
usemtl APPID_1857655424_2531587818336 
o vid_10000028 
f 377 379 380
f 377 380 378
f 377 379 380
