# File generated by PlantGL - Fri Sep  4 14:43:37 2026
v    18.386906 139.214209 0.000000
v    21.487062 138.995915 0.000000
v    20.126032 141.789876 0.000000
v    21.613094 140.785791 0.331061
v    18.512938 141.004085 0.331061
v    19.873968 138.210124 0.331061
v    20.553743 140.994174 -2.645931
v    22.701510 141.315994 -0.674825
v    21.124167 139.823191 -2.645931
v    22.701510 141.315994 -0.674825
v    21.113984 140.892361 0.331061
v    18.670201 140.518558 0.331061
v    20.215815 138.589081 0.331061
v    18.886016 139.107639 0.771522
v    21.329799 139.481442 0.771522
v    19.784185 141.410919 0.771522
v    20.460574 138.519365 -2.205470
v    15.974055 136.775004 2.163509
v    18.655587 140.772632 -2.205470
v    15.974055 136.775004 2.163509
v    18.990212 139.607661 0.771522
v    20.844669 139.321667 0.771522
v    20.165119 141.070671 0.771522
v    21.009788 140.392339 1.487405
v    19.155331 140.678333 1.487405
v    19.834881 138.929329 1.487405
v    19.413396 142.123388 -1.489587
v    26.705997 142.605520 5.143735
v    21.000881 138.037574 -1.489587
v    26.705997 142.605520 5.143735
v    20.741833 140.175485 1.487405
v    19.477109 140.554704 1.487405
v    19.781058 139.269811 1.487405
v    19.258167 139.824515 2.459793
v    20.522891 139.445296 2.459793
v    20.218942 140.730189 2.459793
v    20.675673 137.572886 -0.517200
v    18.506199 137.392735 1.530863
v    11.227651 137.919764 8.154275
v    11.208615 137.920347 8.165859
v    19.516617 142.472601 -0.517200
v    17.496363 141.661648 1.530863
v    11.225372 137.929398 8.154275
v    11.208615 137.920347 8.165859
v    19.694140 139.650731 2.459793
v    20.455406 139.909752 2.459793
v    19.850454 140.439517 2.459793
v    20.305860 140.349269 2.590000
v    19.544594 140.090248 2.590000
v    20.149546 139.560483 2.590000
v    20.153367 141.021751 -3.215388
v    20.746420 140.852354 -0.780507
v    20.992583 140.286836 -3.215388
v    20.746420 140.852354 -0.780507
mtllib usm_13_2.5D_2018-07-29_3.mtl
usemtl APPID_96696080_1597823834976 
o vid_3 
f 3 2 1
f 4 5 6
f 1 6 5
f 1 5 3
f 3 5 4
f 4 2 3
f 2 4 6
f 6 1 2
usemtl APPID_96696304_1597823829344 
o vid_4 
f 7 9 10
f 7 10 8
f 7 9 10
usemtl APPID_96696080_1597823834976 
o vid_5 
f 13 12 11
f 14 15 16
f 11 16 15
f 11 15 13
f 13 15 14
f 14 12 13
f 12 14 16
f 16 11 12
usemtl APPID_96696304_1597823829344 
o vid_6 
f 17 19 20
f 17 20 18
f 17 19 20
usemtl APPID_96696080_1597823834976 
o vid_7 
f 23 22 21
f 24 25 26
f 21 26 25
f 21 25 23
f 23 25 24
f 24 22 23
f 22 24 26
f 26 21 22
usemtl APPID_96696304_1597823829344 
o vid_8 
f 27 29 30
f 27 30 28
f 27 29 30
usemtl APPID_96696080_1597823834976 
o vid_9 
f 33 32 31
f 34 35 36
f 31 36 35
f 31 35 33
f 33 35 34
f 34 32 33
f 32 34 36
f 36 31 32
usemtl APPID_96696304_1597823829344 
o vid_10 
f 37 41 42
f 38 42 43
f 37 42 38
f 38 43 39
f 39 43 44
usemtl APPID_96696080_1597823834976 
o vid_11 
f 47 46 45
f 48 49 50
f 45 50 49
f 45 49 47
f 47 49 48
f 48 46 47
f 46 48 50
f 50 45 46
usemtl APPID_96696304_1597823829344 
o vid_12 
f 51 53 54
f 51 54 52
f 51 53 54
