# File generated by PlantGL - Fri Sep  4 14:43:11 2026
v    17.752484 298.905161 0.000000
v    22.071916 298.601013 0.000000
v    20.175600 302.493825 0.000000
v    22.247516 301.094839 0.848509
v    17.928084 301.398987 0.848509
v    19.824400 297.506175 0.848509
v    22.061987 301.449497 0.688834
v    22.413578 301.583545 1.038490
v    22.541246 301.629833 1.164481
v    23.212105 301.882450 1.647004
v    23.978185 302.181497 1.910604
v    24.621079 302.403486 2.127737
v    25.178621 302.522676 2.121394
v    22.412415 300.730130 0.688834
v    22.734695 300.924348 1.038490
v    22.849841 300.996342 1.164481
v    23.462289 301.368866 1.647004
v    24.169993 301.787748 1.910604
v    24.741086 302.157132 2.127737
v    25.178621 302.522676 2.121394
v    21.879284 301.505407 0.848509
v    17.756638 300.874804 0.848509
v    20.364078 297.619789 0.848509
v    18.120716 298.494593 1.417165
v    22.243362 299.125196 1.417165
v    19.635922 302.380211 1.417165
v    18.493386 298.055333 1.191260
v    17.958322 297.699916 1.788164
v    17.042241 297.098028 2.546856
v    15.959631 296.366477 2.965666
v    15.263756 295.935455 3.226985
v    14.403703 295.517068 3.216294
v    17.773384 298.954152 1.191260
v    17.309753 298.509561 1.788164
v    16.522434 297.746933 2.546856
v    15.572229 296.850092 2.965666
v    14.999717 296.265069 3.226985
v    14.403703 295.517068 3.216294
v    18.157427 299.284094 1.417165
v    21.541279 298.762238 1.417165
v    20.301294 301.953668 1.417165
v    21.842573 300.715906 2.253766
v    18.458721 301.237762 2.253766
v    19.698706 298.046332 2.253766
v    21.555283 301.393153 1.940435
v    22.525099 301.659503 2.873795
v    23.877978 302.044751 3.820650
v    24.726693 302.297512 4.104499
v    26.059187 302.637415 4.543515
v    26.764178 302.715940 4.763989
v    27.095488 302.756852 4.760280
v    22.087889 300.022350 1.940435
v    22.983129 300.480642 2.873795
v    24.241220 301.109849 3.820650
v    25.037952 301.496403 4.104499
v    26.250392 302.145298 4.543515
v    26.823466 302.563347 4.763989
v    27.095488 302.756852 4.760280
v    21.509045 300.356973 2.253766
v    18.936330 301.128384 2.253766
v    19.554626 298.514642 2.253766
v    18.490955 299.643027 4.112548
v    21.063670 298.871616 4.112548
v    20.445374 301.485358 4.112548
v    18.760009 298.638639 3.686489
v    18.080119 298.540586 4.324814
v    17.405630 298.454589 4.955646
v    15.511371 298.189346 6.243152
v    13.749907 297.921048 6.814272
v    11.891602 297.713055 7.411234
v    10.445313 297.739783 7.513905
v    18.281487 300.661510 3.686489
v    17.629724 300.444553 4.324814
v    16.988192 300.219237 4.955646
v    15.175860 299.607665 6.243152
v    13.480879 299.058321 6.814272
v    11.726339 298.411675 7.411234
v    10.445313 297.739783 7.513905
v    19.240127 299.132284 4.112548
v    21.131401 299.775789 4.112548
v    19.628472 301.091927 4.112548
v    20.759873 300.867716 5.999272
v    18.868599 300.224211 5.999272
v    20.371528 298.908073 5.999272
v    19.638987 301.795044 5.431303
v    20.859334 302.960761 6.999546
v    22.808223 304.804883 8.839534
v    25.233449 307.158565 9.922800
v    26.695323 308.468765 10.549508
v    28.713625 309.950288 10.521496
v    21.826983 299.878981 5.431303
v    22.821497 301.242464 6.999546
v    24.392361 303.417629 8.839534
v    26.405483 306.132197 9.922800
v    27.511349 307.754158 10.549508
v    28.713625 309.950288 10.521496
v    20.661555 300.422384 5.999272
v    19.303427 300.361731 5.999272
v    20.035018 299.215885 5.999272
v    19.338445 299.577616 9.600000
v    20.696573 299.638269 9.600000
v    19.964982 300.784115 9.600000
v    20.119732 298.335911 8.116195
v    18.302070 297.473066 10.669788
v    16.618718 296.633321 12.416088
v    15.637931 296.205398 13.402735
v    14.048550 295.458207 14.282398
v    11.851623 294.797494 15.397184
v    18.540810 300.808883 8.116195
v    16.993188 299.523091 10.669788
v    15.523040 298.349417 12.416088
v    14.722124 297.639773 13.402735
v    13.375481 296.512395 14.282398
v    11.851623 294.797494 15.397184
mtllib usm_22_2.5D_2018-07-19_7.mtl
usemtl APPID_683059024_1675719843056 
o vid_3 
f 3 2 1
f 4 5 6
f 1 6 5
f 1 5 3
f 3 5 4
f 4 2 3
f 2 4 6
f 6 1 2
usemtl APPID_683060592_1675719841648 
o vid_4 
f 7 14 15
f 8 15 16
f 9 16 17
f 10 17 18
f 11 18 19
f 7 15 8
f 8 16 9
f 9 17 10
f 10 18 11
f 11 19 12
f 12 19 20
usemtl APPID_683059024_1675719843056 
o vid_5 
f 23 22 21
f 24 25 26
f 21 26 25
f 21 25 23
f 23 25 24
f 24 22 23
f 22 24 26
f 26 21 22
usemtl APPID_683060592_1675719841648 
o vid_6 
f 27 33 34
f 28 34 35
f 29 35 36
f 30 36 37
f 27 34 28
f 28 35 29
f 29 36 30
f 30 37 31
f 31 37 38
usemtl APPID_683059024_1675719843056 
o vid_7 
f 41 40 39
f 42 43 44
f 39 44 43
f 39 43 41
f 41 43 42
f 42 40 41
f 40 42 44
f 44 39 40
usemtl APPID_683060592_1675719841648 
o vid_8 
f 45 52 53
f 46 53 54
f 47 54 55
f 48 55 56
f 49 56 57
f 45 53 46
f 46 54 47
f 47 55 48
f 48 56 49
f 49 57 50
f 50 57 58
usemtl APPID_683059024_1675719843056 
o vid_9 
f 61 60 59
f 62 63 64
f 59 64 63
f 59 63 61
f 61 63 62
f 62 60 61
f 60 62 64
f 64 59 60
usemtl APPID_683060592_1675719841648 
o vid_10 
f 65 72 73
f 66 73 74
f 67 74 75
f 68 75 76
f 69 76 77
f 65 73 66
f 66 74 67
f 67 75 68
f 68 76 69
f 69 77 70
f 70 77 78
usemtl APPID_683059024_1675719843056 
o vid_11 
f 81 80 79
f 82 83 84
f 79 84 83
f 79 83 81
f 81 83 82
f 82 80 81
f 80 82 84
f 84 79 80
usemtl APPID_683060592_1675719841648 
o vid_12 
f 85 91 92
f 86 92 93
f 87 93 94
f 88 94 95
f 85 92 86
f 86 93 87
f 87 94 88
f 88 95 89
f 89 95 96
usemtl APPID_683059024_1675719843056 
o vid_13 
f 99 98 97
f 100 101 102
f 97 102 101
f 97 101 99
f 99 101 100
f 100 98 99
f 98 100 102
f 102 97 98
usemtl APPID_683060592_1675719841648 
o vid_14 
f 103 109 110
f 104 110 111
f 105 111 112
f 106 112 113
f 103 110 104
f 104 111 105
f 105 112 106
f 106 113 107
f 107 113 114
