# File generated by PlantGL - Fri Sep  4 14:43:50 2026
v    18.201987 19.124129 0.000000
v    21.657533 18.880811 0.000000
v    20.140480 21.995060 0.000000
v    21.798013 20.875871 0.331061
v    18.342467 21.119189 0.331061
v    19.859520 18.004940 0.331061
v    20.738662 21.084254 -2.645931
v    22.886429 21.406074 -0.674825
v    21.309086 19.913271 -2.645931
v    22.886429 21.406074 -0.674825
v    21.503548 21.204422 0.331061
v    18.205166 20.699900 0.331061
v    20.291286 18.095678 0.331061
v    18.496452 18.795578 0.771522
v    21.794834 19.300100 0.771522
v    19.708714 21.904322 0.771522
v    20.071010 18.207304 -2.205470
v    15.584491 16.462942 2.163509
v    18.266023 20.460571 -2.205470
v    15.584491 16.462942 2.163509
v    18.272844 19.328938 0.771522
v    21.444735 18.839770 0.771522
v    20.282421 21.831292 0.771522
v    21.727156 20.671062 1.487405
v    18.555265 21.160230 1.487405
v    19.717579 18.168708 1.487405
v    20.130764 22.402111 -1.489587
v    27.423365 22.884243 5.143735
v    21.718249 18.316297 -1.489587
v    27.423365 22.884243 5.143735
v    21.696606 20.401342 1.487405
v    18.804125 21.268633 1.487405
v    19.499269 18.330025 1.487405
v    18.303394 19.598658 2.987040
v    21.195875 18.731367 2.987040
v    20.500731 21.669975 2.987040
v    19.828970 16.890179 0.010048
v    14.517072 16.449084 5.024673
v    10.498516 16.740062 8.681523
v    6.710003 16.856174 10.986891
v    18.453773 22.703594 0.010048
v    13.507236 20.717997 5.024673
v    10.044962 18.657385 8.681523
v    6.710003 16.856174 10.986891
v    19.074476 18.943123 2.987040
v    21.378045 19.726911 2.987040
v    19.547480 21.329966 2.987040
v    20.925524 21.056877 4.897980
v    18.621955 20.273089 4.897980
v    20.452520 18.670034 4.897980
v    17.609777 22.815915 1.920988
v    20.555096 25.488110 5.679711
v    24.541868 28.860624 10.592463
v    25.873941 30.036872 11.702610
v    32.892704 34.722473 16.835502
v    23.106664 18.002204 1.920988
v    25.366892 21.274344 5.679711
v    28.183909 25.671231 10.592463
v    29.174120 27.146853 11.702610
v    32.892704 34.722473 16.835502
v    20.918068 20.586160 4.897980
v    19.033337 20.501990 4.897980
v    20.048596 18.911850 4.897980
v    19.081932 19.413840 12.075822
v    20.966663 19.498010 12.075822
v    19.951404 21.088150 12.075822
v    22.297078 15.978300 9.098829
v    20.256008 14.921021 11.276864
v    14.080105 11.911143 17.770304
v    10.139730 9.910238 20.540457
v    4.398287 7.207128 24.504808
v    2.846459 6.445653 24.939849
v    -6.202866 3.270217 27.304334
v    17.318361 23.776168 9.098829
v    15.500346 22.369532 11.276864
v    10.171048 18.033667 17.770304
v    6.697774 15.301169 20.540457
v    1.829586 11.230332 24.504808
v    0.485788 10.143033 24.939849
v    -6.202866 3.270217 27.304334
v    19.353683 19.534327 12.075822
v    20.726443 19.673109 12.075822
v    19.919874 20.792564 12.075822
v    20.646317 20.465673 22.185723
v    19.273557 20.326891 22.185723
v    20.080126 19.207436 22.185723
v    16.727902 24.431074 19.208731
v    24.605145 29.089670 27.880206
v    27.524587 30.867547 30.026799
v    33.854438 34.542301 34.614710
v    38.874632 37.540857 36.090208
v    46.705915 41.945056 38.351441
v    49.165722 42.966553 39.008121
v    55.612623 45.658978 37.563936
v    23.167434 15.493515 19.208731
v    30.079998 21.491010 27.880206
v    32.690594 23.697539 30.026799
v    38.180085 28.538648 34.614710
v    42.613579 32.351496 36.090208
v    49.270278 38.385923 38.351441
v    51.017895 40.395885 39.008121
v    55.612623 45.658978 37.563936
v    20.441563 20.287575 22.185723
v    19.530171 20.238617 22.185723
v    20.028266 19.473808 22.185723
v    19.558437 19.712425 27.612000
v    20.469829 19.761383 27.612000
v    19.971734 20.526192 27.612000
v    22.648741 16.435552 21.536556
v    16.936636 13.964546 32.519666
v    15.609757 13.324344 34.227266
v    10.043540 10.898179 41.225128
v    2.162275 8.382883 46.530713
v    17.810951 23.863830 21.536556
v    13.241277 19.638656 32.519666
v    12.119224 18.683950 34.227266
v    7.649552 14.574075 41.225128
v    2.162275 8.382883 46.530713
mtllib usm_13_2.5D_2018-08-18_0.mtl
usemtl APPID_81344_1597823694304 
o vid_3 
f 3 2 1
f 4 5 6
f 1 6 5
f 1 5 3
f 3 5 4
f 4 2 3
f 2 4 6
f 6 1 2
usemtl APPID_80448_1597823692768 
o vid_4 
f 7 9 10
f 7 10 8
f 7 9 10
usemtl APPID_81344_1597823694304 
o vid_5 
f 13 12 11
f 14 15 16
f 11 16 15
f 11 15 13
f 13 15 14
f 14 12 13
f 12 14 16
f 16 11 12
usemtl APPID_80448_1597823692768 
o vid_6 
f 17 19 20
f 17 20 18
f 17 19 20
usemtl APPID_81344_1597823694304 
o vid_7 
f 23 22 21
f 24 25 26
f 21 26 25
f 21 25 23
f 23 25 24
f 24 22 23
f 22 24 26
f 26 21 22
usemtl APPID_80448_1597823692768 
o vid_8 
f 27 29 30
f 27 30 28
f 27 29 30
usemtl APPID_81344_1597823694304 
o vid_9 
f 33 32 31
f 34 35 36
f 31 36 35
f 31 35 33
f 33 35 34
f 34 32 33
f 32 34 36
f 36 31 32
usemtl APPID_80448_1597823692768 
o vid_10 
f 37 41 42
f 38 42 43
f 37 42 38
f 38 43 39
f 39 43 44
usemtl APPID_81344_1597823694304 
o vid_11 
f 47 46 45
f 48 49 50
f 45 50 49
f 45 49 47
f 47 49 48
f 48 46 47
f 46 48 50
f 50 45 46
usemtl APPID_80448_1597823692768 
o vid_12 
f 51 56 57
f 52 57 58
f 53 58 59
f 51 57 52
f 52 58 53
f 53 59 54
f 54 59 60
usemtl APPID_81344_1597823694304 
o vid_13 
f 63 62 61
f 64 65 66
f 61 66 65
f 61 65 63
f 63 65 64
f 64 62 63
f 62 64 66
f 66 61 62
usemtl APPID_80448_1597823692768 
o vid_14 
f 67 74 75
f 68 75 76
f 69 76 77
f 70 77 78
f 71 78 79
f 67 75 68
f 68 76 69
f 69 77 70
f 70 78 71
f 71 79 72
f 72 79 80
usemtl APPID_81344_1597823694304 
o vid_15 
f 83 82 81
f 84 85 86
f 81 86 85
f 81 85 83
f 83 85 84
f 84 82 83
f 82 84 86
f 86 81 82
usemtl APPID_80448_1597823692768 
o vid_16 
f 87 95 96
f 88 96 97
f 89 97 98
f 90 98 99
f 91 99 100
f 92 100 101
f 87 96 88
f 88 97 89
f 89 98 90
f 90 99 91
f 91 100 92
f 92 101 93
f 93 101 102
usemtl APPID_81344_1597823694304 
o vid_17 
f 105 104 103
f 106 107 108
f 103 108 107
f 103 107 105
f 105 107 106
f 106 104 105
f 104 106 108
f 108 103 104
usemtl APPID_80448_1597823692768 
o vid_18 
f 109 114 115
f 110 115 116
f 111 116 117
f 109 115 110
f 110 116 111
f 111 117 112
f 112 117 118
