# File generated by PlantGL - Fri Sep  4 14:41:43 2026
v    18.201987 9.124129 0.000000
v    21.657533 8.880811 0.000000
v    20.140480 11.995060 0.000000
v    21.798013 10.875871 0.231333
v    18.342467 11.119189 0.231333
v    19.859520 8.004940 0.231333
v    21.519742 11.246769 -0.071993
v    22.400882 11.558495 0.811542
v    22.628323 11.642793 0.963587
v    23.387006 11.898509 1.463738
v    24.332995 12.110744 1.722983
v    21.918530 10.428126 -0.071993
v    22.707144 10.929792 0.811542
v    22.913722 11.056919 0.963587
v    23.582747 11.496686 1.463738
v    24.332995 12.110744 1.722983
v    21.503548 11.204422 0.231333
v    18.205166 10.699900 0.231333
v    20.291286 8.095678 0.231333
v    18.496452 8.795578 0.322458
v    21.794834 9.300100 0.322458
v    19.708714 11.904322 0.322458
v    18.971350 8.397947 -0.099472
v    17.870070 7.706521 1.129538
v    16.875415 7.098733 1.857853
v    16.534752 6.949674 2.084022
v    15.689163 6.546790 2.314956
v    18.212058 9.345813 -0.099472
v    17.296938 8.421995 1.129538
v    16.486710 7.583975 1.857853
v    16.266891 7.284059 2.084022
v    15.689163 6.546790 2.314956
v    18.272844 9.328938 0.322458
v    21.444735 8.839770 0.322458
v    20.282421 11.831292 0.322458
v    21.727156 10.671062 0.466406
v    18.555265 11.160230 0.466406
v    19.717579 8.168708 0.466406
v    21.310981 11.285654 -0.105211
v    22.236549 11.527757 0.799016
v    23.025527 11.705139 1.559814
v    23.576064 11.841253 1.914094
v    25.110664 12.007109 2.852919
v    25.197161 12.019283 2.874455
v    21.835094 9.936709 -0.105211
v    22.681323 10.383013 0.799016
v    23.383096 10.784841 1.559814
v    23.881113 11.056128 1.914094
v    25.125134 11.969866 2.852919
v    25.197161 12.019283 2.874455
v    21.688488 10.399422 0.466406
v    18.809847 11.262562 0.466406
v    19.501665 8.338016 0.466406
v    18.311512 9.600578 0.678272
v    21.190153 8.737438 0.678272
v    20.498335 11.661984 0.678272
v    18.737434 8.747768 -0.075959
v    17.716292 8.627187 0.895874
v    16.418551 8.519423 2.120989
v    15.946697 8.470135 2.417363
v    13.809634 8.535633 3.717799
v    18.310199 10.553832 -0.075959
v    17.343259 10.204122 0.895874
v    16.134779 9.719024 2.120989
v    15.690852 9.551679 2.417363
v    13.809634 8.535633 3.717799
v    19.079745 8.949140 0.678272
v    21.370199 9.728466 0.678272
v    19.550056 11.322395 0.678272
v    20.920255 11.050860 0.902327
v    18.629801 10.271534 0.902327
v    20.449944 8.677605 0.902327
v    19.843445 11.621176 -0.066925
v    20.778881 12.469867 1.126849
v    22.101238 13.588484 2.756342
v    22.507108 13.946875 3.094593
v    24.792283 15.472417 4.765764
v    21.627659 10.058711 -0.066925
v    22.345509 11.097945 1.126849
v    23.279876 12.556333 2.756342
v    23.581583 13.005940 3.094593
v    24.792283 15.472417 4.765764
v    20.911617 10.582042 0.902327
v    19.040129 10.498463 0.902327
v    20.048254 8.919496 0.902327
v    19.088383 9.417958 1.430323
v    20.959871 9.501537 1.430323
v    19.951746 11.080504 1.430323
v    20.164877 8.383967 0.217207
v    19.005805 7.819084 1.435873
v    16.757840 6.818462 3.750809
v    13.173309 5.641353 6.052812
v    18.603401 10.829613 0.217207
v    17.603217 10.015873 1.435873
v    15.749535 8.397711 3.750809
v    13.173309 5.641353 6.052812
v    19.359612 9.538599 1.430323
v    20.719779 9.676108 1.430323
v    19.920609 10.785292 1.430323
v    20.640388 10.461401 1.970317
v    19.280221 10.323892 1.970317
v    20.079391 9.214708 1.970317
v    19.330743 11.547370 0.491544
v    19.773813 11.794978 0.971265
v    22.754815 13.327711 4.124785
v    23.459955 13.561220 4.798959
v    26.579419 14.740487 6.827360
v    21.255947 8.875341 0.491544
v    21.631074 9.217247 0.971265
v    24.028621 11.559770 4.124785
v    24.473332 12.154732 4.798959
v    26.579419 14.740487 6.827360
v    20.435728 10.283775 1.970317
v    19.536380 10.235464 1.970317
v    20.027892 9.480761 1.970317
v    19.564272 9.716225 2.327000
v    20.463620 9.764536 2.327000
v    19.972108 10.519239 2.327000
v    20.767696 8.657953 -1.254617
v    19.732997 8.282475 0.771546
v    17.086773 7.952472 5.303276
v    16.724996 7.867099 5.731364
v    19.082973 11.244793 -1.254617
v    18.321181 10.450276 0.771546
v    16.949363 8.163462 5.303276
v    16.724996 7.867099 5.731364
mtllib usm_6_2.5D_2018-07-28_0.mtl
usemtl APPID_2824978224_2481027121920 
o vid_3 
f 3 2 1
f 4 5 6
f 1 6 5
f 1 5 3
f 3 5 4
f 4 2 3
f 2 4 6
f 6 1 2
usemtl APPID_2824971392_2481027122432 
o vid_4 
f 7 12 13
f 8 13 14
f 9 14 15
f 7 13 8
f 8 14 9
f 9 15 10
f 10 15 16
usemtl APPID_2824978224_2481027121920 
o vid_5 
f 19 18 17
f 20 21 22
f 17 22 21
f 17 21 19
f 19 21 20
f 20 18 19
f 18 20 22
f 22 17 18
usemtl APPID_2824971392_2481027122432 
o vid_6 
f 23 28 29
f 24 29 30
f 25 30 31
f 23 29 24
f 24 30 25
f 25 31 26
f 26 31 32
usemtl APPID_2824978224_2481027121920 
o vid_7 
f 35 34 33
f 36 37 38
f 33 38 37
f 33 37 35
f 35 37 36
f 36 34 35
f 34 36 38
f 38 33 34
usemtl APPID_2824971392_2481027122432 
o vid_8 
f 39 45 46
f 40 46 47
f 41 47 48
f 42 48 49
f 39 46 40
f 40 47 41
f 41 48 42
f 42 49 43
f 43 49 50
usemtl APPID_2824978224_2481027121920 
o vid_9 
f 53 52 51
f 54 55 56
f 51 56 55
f 51 55 53
f 53 55 54
f 54 52 53
f 52 54 56
f 56 51 52
usemtl APPID_2824971392_2481027122432 
o vid_10 
f 57 62 63
f 58 63 64
f 59 64 65
f 57 63 58
f 58 64 59
f 59 65 60
f 60 65 66
usemtl APPID_2824978224_2481027121920 
o vid_11 
f 69 68 67
f 70 71 72
f 67 72 71
f 67 71 69
f 69 71 70
f 70 68 69
f 68 70 72
f 72 67 68
usemtl APPID_2824971392_2481027122432 
o vid_12 
f 73 78 79
f 74 79 80
f 75 80 81
f 73 79 74
f 74 80 75
f 75 81 76
f 76 81 82
usemtl APPID_2824978224_2481027121920 
o vid_13 
f 85 84 83
f 86 87 88
f 83 88 87
f 83 87 85
f 85 87 86
f 86 84 85
f 84 86 88
f 88 83 84
usemtl APPID_2824971392_2481027122432 
o vid_14 
f 89 93 94
f 90 94 95
f 89 94 90
f 90 95 91
f 91 95 96
usemtl APPID_2824978224_2481027121920 
o vid_15 
f 99 98 97
f 100 101 102
f 97 102 101
f 97 101 99
f 99 101 100
f 100 98 99
f 98 100 102
f 102 97 98
usemtl APPID_2824971392_2481027122432 
o vid_16 
f 103 108 109
f 104 109 110
f 105 110 111
f 103 109 104
f 104 110 105
f 105 111 106
f 106 111 112
usemtl APPID_2824978224_2481027121920 
o vid_17 
f 115 114 113
f 116 117 118
f 113 118 117
f 113 117 115
f 115 117 116
f 116 114 115
f 114 116 118
f 118 113 114
usemtl APPID_2824971392_2481027122432 
o vid_18 
f 119 123 124
f 120 124 125
f 119 124 120
f 120 125 121
f 121 125 126
