# File generated by PlantGL - Fri Sep  4 14:43:32 2026
v    17.752484 298.905161 0.000000
v    22.071916 298.601013 0.000000
v    20.175600 302.493825 0.000000
v    22.247516 301.094839 0.848509
v    17.928084 301.398987 0.848509
v    19.824400 297.506175 0.848509
v    22.077420 301.422811 0.719274
v    22.448837 301.564417 1.088646
v    22.400914 300.758733 0.719274
v    22.741368 300.963902 1.088646
v    21.879284 301.505407 0.848509
v    17.756638 300.874804 0.848509
v    20.364078 297.619789 0.848509
v    18.120716 298.494593 1.417165
v    22.243362 299.125196 1.417165
v    19.635922 302.380211 1.417165
v    18.469448 298.080756 1.230059
v    18.180832 297.889042 1.552033
v    17.792970 298.925242 1.230059
v    17.542885 298.685427 1.552033
v    17.841416 299.161313 1.417165
v    21.805616 298.549955 1.417165
v    20.352968 302.288732 1.417165
v    22.158584 300.838687 2.253766
v    18.194384 301.450045 2.253766
v    19.647032 297.711268 2.253766
v    21.888871 301.480241 1.988545
v    22.276901 301.592464 2.363899
v    22.392768 300.183329 1.988545
v    22.754778 300.362523 2.363899
v    22.163962 300.511898 2.253766
v    18.474702 301.618097 2.253766
v    19.361335 297.870005 2.253766
v    17.836038 299.488102 4.112548
v    21.525298 298.381903 4.112548
v    20.638665 302.129995 4.112548
v    18.088419 298.536099 3.744464
v    16.920560 298.367672 4.840924
v    16.487246 298.300569 5.136444
v    15.353826 298.141862 5.906817
v    17.635135 300.452283 3.744464
v    16.515591 300.079612 4.840924
v    16.098137 299.945461 5.136444
v    15.013737 299.579529 5.906817
v    18.595695 298.396392 4.112548
v    22.090917 299.585640 4.112548
v    19.313387 302.017967 4.112548
v    21.404305 301.603608 5.999272
v    17.909083 300.414360 5.999272
v    20.686613 297.982033 5.999272
v    20.334291 302.492863 5.499120
v    21.493651 303.600323 6.988990
v    22.403547 304.487780 7.845611
v    23.109716 305.156806 8.500400
v    25.506851 307.483226 9.571120
v    22.426964 300.660277 5.499120
v    23.371776 301.955619 6.988990
v    24.131423 302.974651 7.845611
v    24.701428 303.762918 8.500400
v    26.691233 306.446044 9.571120
v    21.718982 301.097521 5.999272
v    18.190028 300.939922 5.999272
v    20.090990 297.962557 5.999272
v    18.281018 298.902479 11.505015
v    21.809972 299.060078 11.505015
v    19.909010 302.037443 11.505015
v    19.254065 297.467300 10.839629
v    17.361306 296.483896 12.821705
v    14.706497 295.115106 14.832438
v    10.824080 293.058733 16.240664
v    10.314738 292.814321 16.421022
v    17.388568 300.389117 10.839629
v    15.699979 299.085933 12.821705
v    13.341109 297.253631 14.832438
v    9.841907 294.597052 16.240664
v    9.405852 294.237855 16.421022
v    18.420020 298.861621 11.505015
v    21.775855 299.200887 11.505015
v    19.804125 301.937492 11.505015
v    21.579980 301.138379 19.658889
v    18.224145 300.799113 19.658889
v    20.195875 298.062508 19.658889
v    20.087164 303.103754 18.792201
v    22.476810 304.520953 21.373921
v    24.981140 306.041618 23.348543
v    25.806589 306.526581 23.992970
v    32.775314 310.734416 26.602295
v    35.819782 312.463931 26.562400
v    22.971739 299.100193 18.792201
v    25.072500 300.918343 21.373921
v    27.307708 302.812526 23.348543
v    28.029027 303.442013 23.992970
v    34.226419 308.720396 26.602295
v    36.830719 311.060832 26.562400
v    21.554633 301.012481 19.658889
v    18.345849 300.840111 19.658889
v    20.099518 298.147408 19.658889
v    18.445367 298.987519 30.873903
v    21.654151 299.159889 30.873903
v    19.900482 301.852592 30.873903
v    20.190228 296.453870 29.768631
v    17.061063 294.791995 33.061050
v    14.574533 293.438055 34.969212
v    12.691767 292.448035 36.401072
v    3.750018 287.607940 39.660146
v    -0.519683 285.482275 39.676839
v    16.833610 301.607854 29.768631
v    14.048378 299.417879 33.061050
v    11.804634 297.691150 34.969212
v    10.137864 296.369475 36.401072
v    2.095509 290.148389 39.660146
v    -1.575081 287.102806 39.676839
v    18.458123 299.144816 30.873903
v    21.511550 299.092287 30.873903
v    20.030327 301.762897 30.873903
v    21.541877 300.855184 48.397837
v    18.488450 300.907713 48.397837
v    19.969673 298.237103 48.397837
v    19.488629 304.352691 47.017797
v    23.528377 306.153854 51.128705
v    29.158649 308.720704 55.299051
v    40.965051 314.070973 59.453914
v    43.835747 315.384547 59.417842
v    49.235538 317.612468 59.351340
v    50.830481 318.098282 59.053138
v    23.421686 297.261482 47.017797
v    27.088653 299.734761 51.128705
v    32.247334 303.151879 55.299051
v    43.037441 310.334505 59.453914
v    45.671775 312.074233 59.417842
v    50.420898 315.475291 59.351340
v    51.677531 316.571070 59.053138
v    21.614895 300.429572 48.397837
v    18.820532 301.183754 48.397837
v    19.564573 298.386674 48.397837
v    18.385105 299.570428 69.759043
v    21.179468 298.816246 69.759043
v    20.435427 301.613326 69.759043
v    19.780901 294.794777 68.071980
v    14.457034 293.854479 73.097458
v    7.016662 292.490262 78.195597
v    -8.574497 289.662933 83.274809
v    -12.783508 288.885153 83.225901
v    -19.431482 287.915036 83.149415
v    -23.433430 287.742456 82.433943
v    -23.515131 287.742349 82.409643
v    17.223616 304.408406 68.071980
v    12.136195 302.579237 73.097458
v    5.001373 300.066362 78.195597
v    -9.933930 294.773465 83.274809
v    -13.973095 293.357179 83.225901
v    -20.224436 290.895999 83.149415
v    -23.783208 289.057381 82.433943
v    -23.854164 289.016881 82.409643
v    18.541706 299.394647 69.759043
v    21.253398 299.039757 69.759043
v    20.204896 301.565597 69.759043
v    21.458294 300.605353 89.605866
v    18.746602 300.960243 89.605866
v    19.795104 298.434403 89.605866
v    19.259942 305.522723 87.586626
v    25.435278 307.462857 93.601602
v    27.522514 308.142561 95.081034
v    34.082460 310.173937 99.703545
v    48.502795 314.830273 104.560734
v    52.189475 315.861081 105.782834
v    57.270085 317.313140 105.722677
v    62.085607 318.019982 105.668600
v    23.388628 295.576727 87.586626
v    29.122542 298.580245 93.601602
v    31.077539 299.578513 95.081034
v    37.147613 302.789990 99.703545
v    50.626274 309.714817 104.560734
v    53.959164 311.597905 105.782834
v    58.574526 314.170745 105.722677
v    62.474976 317.081994 105.668600
v    21.148136 300.944713 89.605866
v    18.607786 300.521958 89.605866
v    20.244078 298.533328 89.605866
v    18.851864 299.055287 113.493186
v    21.392214 299.478042 113.493186
v    19.755922 301.466672 113.493186
v    22.800223 294.524342 111.126933
v    17.467415 290.880283 117.128910
v    7.730186 284.301885 125.326187
v    -3.220348 276.691123 129.600686
v    -10.746162 271.891908 132.450225
v    -18.386198 268.063834 132.354737
v    15.166101 303.802302 111.126933
v    10.563268 299.271084 117.128910
v    2.232825 290.982981 125.326187
v    -7.344315 281.703095 129.600686
v    -13.503008 275.242379 132.450225
v    -18.730735 268.482558 132.354737
v    19.167963 299.129458 113.493186
v    21.169930 299.714706 113.493186
v    19.662107 301.155836 113.493186
v    20.832037 300.870542 130.390000
v    18.830070 300.285294 130.390000
v    20.337893 298.844164 130.390000
v    15.791781 305.418005 127.675116
v    20.463446 309.506749 133.444126
v    22.370443 311.121287 135.762302
v    31.574880 319.110620 143.966418
v    41.839193 328.238777 148.369282
v    50.969913 335.731603 152.140076
v    58.955717 340.758508 152.035193
v    25.602712 296.041022 127.675116
v    29.476077 300.892756 133.444126
v    31.002753 302.870793 135.762302
v    38.567801 312.427002 143.966418
v    47.222595 323.093489 148.369282
v    54.294977 332.553611 152.140076
v    58.955717 340.758508 152.035193
v    20.645139 300.657510 130.390000
v    19.108010 300.229952 130.390000
v    20.246850 299.112538 130.390000
v    19.354861 299.342490 146.689036
v    20.891990 299.770048 146.689036
v    19.753150 300.887462 146.689036
v    25.083442 294.028699 143.639326
v    18.166970 288.133647 152.084222
v    7.178522 278.856799 161.939825
v    -6.564230 266.954328 167.767292
v    -14.773019 260.396314 171.121535
v    -26.071232 253.045373 170.970717
v    13.933237 304.969126 143.639326
v    8.170597 297.941949 152.084222
v    -0.895899 286.779309 161.939825
v    -12.535238 272.812998 167.767292
v    -18.936178 264.481148 171.121535
v    -26.071232 253.045373 170.970717
v    19.553192 299.504938 146.689036
v    20.652141 299.860584 146.689036
v    19.794667 300.634478 146.689036
v    20.446808 300.495062 158.144639
v    19.347859 300.139416 158.144639
v    20.205333 299.365522 158.144639
v    13.978340 306.008376 154.790488
v    20.529913 312.081659 163.091967
v    32.971050 323.489355 174.917855
v    46.521521 336.251660 180.884352
v    56.287697 344.744311 185.016140
v    67.273139 352.378532 184.866837
v    26.592310 294.623903 154.790488
v    31.964247 301.761842 163.091967
v    42.040773 315.303667 174.917855
v    53.351447 330.087454 180.884352
v    60.801563 340.670416 185.016140
v    67.273139 352.378532 184.866837
v    20.433249 300.084342 158.144639
v    19.710333 300.333034 158.144639
v    19.856418 299.582624 158.144639
v    19.566751 299.915658 162.620000
v    20.289667 299.666966 162.620000
v    20.143582 300.417376 162.620000
v    21.023767 293.095857 155.389517
v    10.679067 292.325776 167.332351
v    2.803242 291.605763 173.997666
v    -4.271705 291.308944 179.928547
v    -11.026852 290.859879 182.923813
v    -22.394715 291.746895 187.824392
v    18.359056 306.783996 155.389517
v    8.480924 303.617238 167.332351
v    0.910154 301.330216 173.997666
v    -5.759472 298.951338 179.928547
v    -12.189766 296.833555 182.923813
v    -22.394715 291.746895 187.824392
v    22.448837 301.564417 1.088646
v    22.888130 301.736971 1.411021
v    23.004585 301.780823 1.494783
v    24.135361 302.222233 1.883871
v    24.811915 302.465153 1.875681
v    25.239808 302.553140 1.819457
v    25.242075 302.553587 1.818770
v    22.741368 300.963902 1.088646
v    23.148030 301.203440 1.411021
v    23.254346 301.268107 1.494783
v    24.298957 301.886400 1.883871
v    24.907280 302.269385 1.875681
v    25.240325 302.552077 1.819457
v    25.242075 302.553587 1.818770
v    18.180832 297.889042 1.552033
v    17.969835 297.748887 1.787416
v    17.358528 297.333593 2.285496
v    15.818819 296.294619 2.916148
v    15.591181 296.139509 2.913000
v    14.861022 295.681430 2.903187
v    14.375176 295.461915 2.822890
v    14.285055 295.422025 2.793578
v    17.542885 298.685427 1.552033
v    17.360057 298.510107 1.787416
v    16.821352 298.004181 2.285496
v    15.471371 296.728359 2.916148
v    15.270316 296.540063 2.913000
v    14.663917 295.927488 2.903187
v    14.343654 295.501266 2.822890
v    14.285055 295.422025 2.793578
v    22.276901 301.592464 2.363899
v    22.705602 301.716450 2.778595
v    23.850011 302.044467 3.580068
v    25.595647 302.564346 4.163889
v    26.247230 302.730557 4.378566
v    26.746459 302.860961 4.372692
v    27.650891 302.972646 4.362567
v    22.754778 300.362523 2.363899
v    23.154730 300.560499 2.778595
v    24.220399 301.091177 3.580068
v    25.859115 301.886240 4.163889
v    26.451993 302.203547 4.378566
v    26.908306 302.444405 4.372692
v    27.650891 302.972646 4.362567
v    15.353826 298.141862 5.906817
v    12.511164 297.709721 6.852770
v    11.861643 297.637022 7.061423
v    10.858916 297.518958 7.049928
v    9.594329 297.538478 7.035876
v    15.013737 299.579529 5.906817
v    12.278743 298.692243 6.852770
v    11.665490 298.466226 7.061423
v    10.716141 298.122516 7.049928
v    9.594329 297.538478 7.035876
v    25.506851 307.483226 9.571120
v    26.403082 308.353019 9.971436
v    28.106454 309.896545 9.981270
v    29.013637 310.522309 9.969025
v    29.514678 310.865028 9.861495
v    26.691233 306.446044 9.571120
v    27.435173 307.449201 9.971436
v    28.740462 309.341334 9.981270
v    29.241062 310.323150 9.969025
v    29.514678 310.865028 9.861495
v    10.314738 292.814321 16.421022
v    9.143640 292.252360 16.835708
v    8.146708 291.766912 16.823084
v    5.976863 291.046627 16.797682
v    9.405852 294.237855 16.421022
v    8.403258 293.411975 16.835708
v    7.543364 292.711893 16.823084
v    5.976863 291.046627 16.797682
v    35.819782 312.463931 26.562400
v    36.842470 313.035004 26.549064
v    37.778828 313.405346 26.537877
v    39.586488 314.112111 26.194064
v    36.830719 311.060832 26.562400
v    37.696155 311.850157 26.549064
v    38.343856 312.621133 26.537877
v    39.586488 314.112111 26.194064
v    -0.519683 285.482275 39.676839
v    -0.798511 285.343371 39.673292
v    -3.076517 284.564258 39.646543
v    -4.373517 284.126340 39.404051
v    -1.575081 287.102806 39.676839
v    -1.814867 286.903954 39.673292
v    -3.448555 285.135512 39.646543
v    -4.373517 284.126340 39.404051
v    50.830481 318.098282 59.053138
v    52.398733 318.506672 58.766074
v    54.178841 318.956902 58.219958
v    51.677531 316.571070 59.053138
v    52.854352 317.685203 58.766074
v    54.178841 318.956902 58.219958
v    -23.515131 287.742349 82.409643
v    -26.093084 287.738956 81.642901
v    -23.854164 289.016881 82.409643
v    -26.093084 287.738956 81.642901
v    62.085607 318.019982 105.668600
v    64.134640 318.320747 105.645590
v    62.474976 317.081994 105.668600
v    64.134640 318.320747 105.645590
v    -18.386198 268.063834 132.354737
v    -19.386260 267.592068 132.342452
v    -18.730735 268.482558 132.354737
v    -19.386260 267.592068 132.342452
mtllib usm_14_2.5D_2018-08-16_7.mtl
usemtl APPID_801987840_2358739815744 
o vid_3 
f 3 2 1
f 4 5 6
f 1 6 5
f 1 5 3
f 3 5 4
f 4 2 3
f 2 4 6
f 6 1 2
usemtl APPID_801989856_2358739815616 
o vid_4 
f 7 9 10
f 7 10 8
f 7 9 10
f 7 10 8
usemtl APPID_801987840_2358739815744 
o vid_5 
f 13 12 11
f 14 15 16
f 11 16 15
f 11 15 13
f 13 15 14
f 14 12 13
f 12 14 16
f 16 11 12
usemtl APPID_801989856_2358739815616 
o vid_6 
f 17 19 20
f 17 20 18
f 17 19 20
f 17 20 18
usemtl APPID_801987840_2358739815744 
o vid_7 
f 23 22 21
f 24 25 26
f 21 26 25
f 21 25 23
f 23 25 24
f 24 22 23
f 22 24 26
f 26 21 22
usemtl APPID_801989856_2358739815616 
o vid_8 
f 27 29 30
f 27 30 28
f 27 29 30
f 27 30 28
usemtl APPID_801987840_2358739815744 
o vid_9 
f 33 32 31
f 34 35 36
f 31 36 35
f 31 35 33
f 33 35 34
f 34 32 33
f 32 34 36
f 36 31 32
usemtl APPID_801989856_2358739815616 
o vid_10 
f 37 41 42
f 38 42 43
f 37 42 38
f 38 43 39
f 39 43 44
f 39 44 40
usemtl APPID_801987840_2358739815744 
o vid_11 
f 47 46 45
f 48 49 50
f 45 50 49
f 45 49 47
f 47 49 48
f 48 46 47
f 46 48 50
f 50 45 46
usemtl APPID_801989856_2358739815616 
o vid_12 
f 51 56 57
f 52 57 58
f 53 58 59
f 51 57 52
f 52 58 53
f 53 59 54
f 54 59 60
f 54 60 55
usemtl APPID_801987840_2358739815744 
o vid_13 
f 63 62 61
f 64 65 66
f 61 66 65
f 61 65 63
f 63 65 64
f 64 62 63
f 62 64 66
f 66 61 62
usemtl APPID_801989856_2358739815616 
o vid_14 
f 67 72 73
f 68 73 74
f 69 74 75
f 67 73 68
f 68 74 69
f 69 75 70
f 70 75 76
f 70 76 71
usemtl APPID_801987840_2358739815744 
o vid_15 
f 79 78 77
f 80 81 82
f 77 82 81
f 77 81 79
f 79 81 80
f 80 78 79
f 78 80 82
f 82 77 78
usemtl APPID_801989856_2358739815616 
o vid_16 
f 83 89 90
f 84 90 91
f 85 91 92
f 86 92 93
f 83 90 84
f 84 91 85
f 85 92 86
f 86 93 87
f 87 93 94
f 87 94 88
usemtl APPID_801987840_2358739815744 
o vid_17 
f 97 96 95
f 98 99 100
f 95 100 99
f 95 99 97
f 97 99 98
f 98 96 97
f 96 98 100
f 100 95 96
usemtl APPID_801989856_2358739815616 
o vid_18 
f 101 107 108
f 102 108 109
f 103 109 110
f 104 110 111
f 101 108 102
f 102 109 103
f 103 110 104
f 104 111 105
f 105 111 112
f 105 112 106
usemtl APPID_801987840_2358739815744 
o vid_19 
f 115 114 113
f 116 117 118
f 113 118 117
f 113 117 115
f 115 117 116
f 116 114 115
f 114 116 118
f 118 113 114
usemtl APPID_801989856_2358739815616 
o vid_20 
f 119 126 127
f 120 127 128
f 121 128 129
f 122 129 130
f 123 130 131
f 119 127 120
f 120 128 121
f 121 129 122
f 122 130 123
f 123 131 124
f 124 131 132
f 124 132 125
usemtl APPID_801987840_2358739815744 
o vid_21 
f 135 134 133
f 136 137 138
f 133 138 137
f 133 137 135
f 135 137 136
f 136 134 135
f 134 136 138
f 138 133 134
usemtl APPID_801989856_2358739815616 
o vid_22 
f 139 147 148
f 140 148 149
f 141 149 150
f 142 150 151
f 143 151 152
f 144 152 153
f 139 148 140
f 140 149 141
f 141 150 142
f 142 151 143
f 143 152 144
f 144 153 145
f 145 153 154
f 145 154 146
usemtl APPID_801987840_2358739815744 
o vid_23 
f 157 156 155
f 158 159 160
f 155 160 159
f 155 159 157
f 157 159 158
f 158 156 157
f 156 158 160
f 160 155 156
usemtl APPID_801989856_2358739815616 
o vid_24 
f 161 169 170
f 162 170 171
f 163 171 172
f 164 172 173
f 165 173 174
f 166 174 175
f 161 170 162
f 162 171 163
f 163 172 164
f 164 173 165
f 165 174 166
f 166 175 167
f 167 175 176
f 167 176 168
usemtl APPID_801987840_2358739815744 
o vid_25 
f 179 178 177
f 180 181 182
f 177 182 181
f 177 181 179
f 179 181 180
f 180 178 179
f 178 180 182
f 182 177 178
usemtl APPID_801989856_2358739815616 
o vid_26 
f 183 189 190
f 184 190 191
f 185 191 192
f 186 192 193
f 183 190 184
f 184 191 185
f 185 192 186
f 186 193 187
f 187 193 194
f 187 194 188
usemtl APPID_801987840_2358739815744 
o vid_27 
f 197 196 195
f 198 199 200
f 195 200 199
f 195 199 197
f 197 199 198
f 198 196 197
f 196 198 200
f 200 195 196
usemtl APPID_801989856_2358739815616 
o vid_28 
f 201 208 209
f 202 209 210
f 203 210 211
f 204 211 212
f 205 212 213
f 201 209 202
f 202 210 203
f 203 211 204
f 204 212 205
f 205 213 206
f 206 213 214
usemtl APPID_801987840_2358739815744 
o vid_29 
f 217 216 215
f 218 219 220
f 215 220 219
f 215 219 217
f 217 219 218
f 218 216 217
f 216 218 220
f 220 215 216
usemtl APPID_801989856_2358739815616 
o vid_30 
f 221 227 228
f 222 228 229
f 223 229 230
f 224 230 231
f 221 228 222
f 222 229 223
f 223 230 224
f 224 231 225
f 225 231 232
usemtl APPID_801987840_2358739815744 
o vid_31 
f 235 234 233
f 236 237 238
f 233 238 237
f 233 237 235
f 235 237 236
f 236 234 235
f 234 236 238
f 238 233 234
usemtl APPID_801989856_2358739815616 
o vid_32 
f 239 245 246
f 240 246 247
f 241 247 248
f 242 248 249
f 239 246 240
f 240 247 241
f 241 248 242
f 242 249 243
f 243 249 250
usemtl APPID_801987840_2358739815744 
o vid_33 
f 253 252 251
f 254 255 256
f 251 256 255
f 251 255 253
f 253 255 254
f 254 252 253
f 252 254 256
f 256 251 252
usemtl APPID_801989856_2358739815616 
o vid_34 
f 257 263 264
f 258 264 265
f 259 265 266
f 260 266 267
f 257 264 258
f 258 265 259
f 259 266 260
f 260 267 261
f 261 267 268
usemtl APPID_801997584_2358739820096 
o vid_10000004 
f 269 276 277
f 270 277 278
f 271 278 279
f 272 279 280
f 273 280 281
f 269 277 270
f 270 278 271
f 271 279 272
f 272 280 273
f 273 281 274
f 274 281 282
usemtl APPID_801997584_2358739820096 
o vid_10000006 
f 283 291 292
f 284 292 293
f 285 293 294
f 286 294 295
f 287 295 296
f 288 296 297
f 283 292 284
f 284 293 285
f 285 294 286
f 286 295 287
f 287 296 288
f 288 297 289
f 289 297 298
usemtl APPID_801997584_2358739820096 
o vid_10000008 
f 299 306 307
f 300 307 308
f 301 308 309
f 302 309 310
f 303 310 311
f 299 307 300
f 300 308 301
f 301 309 302
f 302 310 303
f 303 311 304
f 304 311 312
usemtl APPID_801997584_2358739820096 
o vid_10000010 
f 313 318 319
f 314 319 320
f 315 320 321
f 313 319 314
f 314 320 315
f 315 321 316
f 316 321 322
usemtl APPID_801997584_2358739820096 
o vid_10000012 
f 323 328 329
f 324 329 330
f 325 330 331
f 323 329 324
f 324 330 325
f 325 331 326
f 326 331 332
usemtl APPID_801997584_2358739820096 
o vid_10000014 
f 333 337 338
f 334 338 339
f 333 338 334
f 334 339 335
f 335 339 340
usemtl APPID_801997584_2358739820096 
o vid_10000016 
f 341 345 346
f 342 346 347
f 341 346 342
f 342 347 343
f 343 347 348
usemtl APPID_801997584_2358739820096 
o vid_10000018 
f 349 353 354
f 350 354 355
f 349 354 350
f 350 355 351
f 351 355 356
usemtl APPID_801997584_2358739820096 
o vid_10000020 
f 357 360 361
f 357 361 358
f 358 361 362
usemtl APPID_801997584_2358739820096 
o vid_10000022 
f 363 365 366
f 363 366 364
f 363 365 366
usemtl APPID_801997584_2358739820096 
o vid_10000024 
f 367 369 370
f 367 370 368
f 367 369 370
usemtl APPID_801997584_2358739820096 
o vid_10000026 
f 371 373 374
f 371 374 372
f 371 373 374
