# File generated by PlantGL - Wed Jul 15 17:35:20 2026
v    21.851563 9.684114 0.000000
v    23.097818 9.596360 0.000000
v    22.550687 10.719526 0.000000
v    23.148482 10.315886 2.381000
v    21.902227 10.403640 2.381000
v    22.449358 9.280474 2.381000
v    22.785970 10.825777 1.731435
v    23.455209 11.040158 2.832908
v    23.582811 11.074712 3.038539
v    24.533112 11.374962 4.078713
v    24.945545 11.480721 4.518807
v    25.116773 11.531739 4.626220
v    25.824516 11.619470 5.037333
v    23.326516 9.716130 1.731435
v    23.907858 10.110947 2.832908
v    24.013724 10.190123 3.038539
v    24.835934 10.753321 4.078713
v    25.173444 11.012884 4.518807
v    25.319165 11.116263 4.626220
v    25.824516 11.619470 5.037333
mtllib usm_6_2.5D_2018-07-10_0.mtl
usemtl APPID_2590513984_3004746538096 
o vid_3 
f 3 2 1
f 4 5 6
f 1 6 5
f 1 5 3
f 3 5 4
f 4 2 3
f 2 4 6
f 6 1 2
usemtl APPID_2590508496_3004746533232 
o vid_4 
f 7 14 15
f 8 15 16
f 9 16 17
f 10 17 18
f 11 18 19
f 7 15 8
f 8 16 9
f 9 17 10
f 10 18 11
f 11 19 12
f 12 19 20
