# File generated by PlantGL - Fri Sep  4 14:42:38 2026
v    58.201987 19.124129 0.000000
v    61.657533 18.880811 0.000000
v    60.140480 21.995060 0.000000
v    61.798013 20.875871 0.331061
v    58.342467 21.119189 0.331061
v    59.859520 18.004940 0.331061
v    61.381380 21.453999 -0.088548
v    62.204560 21.766686 0.745813
v    62.591665 21.902991 1.133703
v    63.785713 22.345546 1.931924
v    64.014785 22.422755 2.082936
v    64.947701 22.754074 2.332094
v    66.266122 23.052433 2.665370
v    61.996415 20.191436 -0.088548
v    62.750058 20.646871 0.745813
v    63.096009 20.867661 1.133703
v    64.180523 21.535069 1.931924
v    64.382524 21.667849 2.082936
v    65.218482 22.198207 2.332094
v    66.266122 23.052433 2.665370
v    61.503548 21.204422 0.331061
v    58.205166 20.699900 0.331061
v    60.291286 18.095678 0.331061
v    58.496452 18.795578 0.718770
v    61.794834 19.300100 0.718770
v    59.708714 21.904322 0.718770
v    59.286098 18.076527 0.142301
v    57.808736 17.097800 1.821458
v    57.386574 16.810206 2.142245
v    56.071884 15.954452 3.125537
v    55.274634 15.421272 3.367547
v    53.803647 14.492197 3.805415
v    53.177996 14.194103 3.976283
v    52.119092 13.686973 3.733590
v    57.967085 19.723126 0.142301
v    56.689506 18.494999 1.821458
v    56.316704 18.145784 2.142245
v    55.194638 17.049567 3.125537
v    54.500306 16.387910 3.367547
v    53.272573 15.155167 3.805415
v    52.845112 14.609662 3.976283
v    52.119092 13.686973 3.733590
v    58.272844 19.328938 0.718770
v    61.444735 18.839770 0.718770
v    60.282421 21.831292 0.718770
v    61.727156 20.671062 1.487000
v    58.555265 21.160230 1.487000
v    59.717579 18.168708 1.487000
v    60.990356 21.949585 0.713447
v    63.275556 22.607452 2.966675
v    64.465010 22.966583 3.746948
v    65.954946 23.382500 4.716593
v    67.803086 23.923281 5.202485
v    70.060130 24.520160 5.790052
v    72.546068 24.874597 5.396259
v    62.046829 19.230470 0.713447
v    64.176734 20.288030 2.966675
v    65.296638 20.826167 3.746948
v    66.676541 21.525286 4.716593
v    68.404985 22.374135 5.202485
v    70.472944 23.457675 5.790052
v    72.546068 24.874597 5.396259
v    61.720854 20.407078 1.487000
v    58.787033 21.286764 1.487000
v    59.492113 18.306158 1.487000
v    58.279146 19.592922 2.857581
v    61.212967 18.713236 2.857581
v    60.507887 21.693842 2.857581
v    59.016524 17.749738 1.843701
v    55.931087 17.308626 4.796962
v    53.661030 16.954092 6.239822
v    52.316002 16.772878 7.090545
v    49.060229 16.292921 7.920947
v    46.433567 15.975575 8.586817
v    42.724397 15.913356 7.817693
v    58.112552 21.571128 1.843701
v    55.156494 20.583089 4.796962
v    52.968186 19.882972 6.239822
v    51.684523 19.442354 7.090545
v    48.558777 18.412725 7.920947
v    46.068322 17.519587 8.586817
v    42.724397 15.913356 7.817693
v    59.058739 18.925152 2.857581
v    61.401476 19.722268 2.857581
v    59.539785 21.352580 2.857581
v    60.941261 21.074848 4.464214
v    58.598524 20.277732 4.464214
v    60.460215 18.647420 4.464214
v    58.635039 22.595389 3.166240
v    59.503349 23.423191 4.302988
v    61.523512 25.348180 6.947019
v    64.866486 28.617124 9.883276
v    65.804419 29.552450 10.217981
v    70.275242 33.849989 11.782764
v    73.192342 36.516211 10.978666
v    76.617899 38.976359 10.106880
v    62.752792 18.989407 3.166240
v    63.458792 19.959346 4.302988
v    65.100413 22.215831 6.947019
v    67.899707 25.960884 9.883276
v    68.703106 27.014025 10.217981
v    72.373194 32.012779 11.782764
v    74.631226 35.256157 10.978666
v    76.617899 38.976359 10.106880
v    60.937333 20.598461 4.464214
v    59.013051 20.512524 4.464214
v    60.049615 18.889015 4.464214
v    59.062667 19.401539 11.608452
v    60.986949 19.487476 11.608452
v    59.950385 21.110985 11.608452
v    61.471832 16.500600 9.985414
v    57.060406 14.176055 14.713048
v    51.904224 11.419928 18.384658
v    45.846819 8.105456 20.129426
v    43.562930 6.909738 20.779918
v    38.937401 4.483524 19.675369
v    34.502545 2.301845 18.632857
v    31.171966 1.213809 16.893241
v    30.012886 0.854084 16.121143
v    57.444891 22.807759 9.985414
v    53.479804 19.784139 14.713048
v    48.809806 16.266531 18.384658
v    43.254062 12.166338 20.129426
v    41.208281 10.597685 20.779918
v    37.060868 7.422626 19.675369
v    33.215522 4.317633 18.632857
v    30.826965 1.754163 16.893241
v    30.012886 0.854084 16.121143
v    59.335973 19.521567 11.608452
v    60.746349 19.664152 11.608452
v    59.917678 20.814281 11.608452
v    60.664027 20.478433 22.178673
v    59.253651 20.335848 22.178673
v    60.082322 19.185719 22.178673
v    57.454210 23.952531 20.196352
v    61.565970 26.707426 24.902439
v    65.731415 29.228260 28.320315
v    78.463148 37.114886 33.380378
v    88.373006 43.092180 30.932332
v    93.390535 45.858088 28.206323
v    98.150037 47.487191 23.982098
v    62.943411 16.333956 20.196352
v    66.858211 19.362216 24.902439
v    70.567980 22.515492 28.320315
v    82.079258 32.096013 33.380378
v    90.886129 39.604165 30.932332
v    95.098095 43.488131 28.206323
v    98.150037 47.487191 23.982098
v    60.458991 20.298926 22.178673
v    59.511627 20.248035 22.178673
v    60.029382 19.453039 22.178673
v    59.541009 19.701074 27.612000
v    60.488373 19.751965 27.612000
v    59.970618 20.546961 27.612000
v    62.702016 16.320748 22.788298
v    57.772655 13.892617 31.161248
v    54.049594 11.935911 35.429244
v    51.482926 10.668725 38.326113
v    45.526637 7.542306 41.820077
v    40.181156 4.928095 44.901190
v    32.233524 1.916619 45.097781
v    57.727493 23.958976 22.788298
v    53.513533 20.432367 31.161248
v    50.218507 17.818427 35.429244
v    48.021705 15.983323 38.326113
v    42.753851 11.799833 41.820077
v    38.201446 7.967880 44.901190
v    32.233524 1.916619 45.097781
mtllib usm_45_2.5D_2018-08-18_1.mtl
usemtl APPID_1924925552_1410673662944 
o vid_3 
f 3 2 1
f 4 5 6
f 1 6 5
f 1 5 3
f 3 5 4
f 4 2 3
f 2 4 6
f 6 1 2
usemtl APPID_1924922976_1410673660640 
o vid_4 
f 7 14 15
f 8 15 16
f 9 16 17
f 10 17 18
f 11 18 19
f 7 15 8
f 8 16 9
f 9 17 10
f 10 18 11
f 11 19 12
f 12 19 20
usemtl APPID_1924925552_1410673662944 
o vid_5 
f 23 22 21
f 24 25 26
f 21 26 25
f 21 25 23
f 23 25 24
f 24 22 23
f 22 24 26
f 26 21 22
usemtl APPID_1924922976_1410673660640 
o vid_6 
f 27 35 36
f 28 36 37
f 29 37 38
f 30 38 39
f 31 39 40
f 32 40 41
f 27 36 28
f 28 37 29
f 29 38 30
f 30 39 31
f 31 40 32
f 32 41 33
f 33 41 42
usemtl APPID_1924925552_1410673662944 
o vid_7 
f 45 44 43
f 46 47 48
f 43 48 47
f 43 47 45
f 45 47 46
f 46 44 45
f 44 46 48
f 48 43 44
usemtl APPID_1924922976_1410673660640 
o vid_8 
f 49 56 57
f 50 57 58
f 51 58 59
f 52 59 60
f 53 60 61
f 49 57 50
f 50 58 51
f 51 59 52
f 52 60 53
f 53 61 54
f 54 61 62
usemtl APPID_1924925552_1410673662944 
o vid_9 
f 65 64 63
f 66 67 68
f 63 68 67
f 63 67 65
f 65 67 66
f 66 64 65
f 64 66 68
f 68 63 64
usemtl APPID_1924922976_1410673660640 
o vid_10 
f 69 76 77
f 70 77 78
f 71 78 79
f 72 79 80
f 73 80 81
f 69 77 70
f 70 78 71
f 71 79 72
f 72 80 73
f 73 81 74
f 74 81 82
usemtl APPID_1924925552_1410673662944 
o vid_11 
f 85 84 83
f 86 87 88
f 83 88 87
f 83 87 85
f 85 87 86
f 86 84 85
f 84 86 88
f 88 83 84
usemtl APPID_1924922976_1410673660640 
o vid_12 
f 89 97 98
f 90 98 99
f 91 99 100
f 92 100 101
f 93 101 102
f 94 102 103
f 89 98 90
f 90 99 91
f 91 100 92
f 92 101 93
f 93 102 94
f 94 103 95
f 95 103 104
usemtl APPID_1924925552_1410673662944 
o vid_13 
f 107 106 105
f 108 109 110
f 105 110 109
f 105 109 107
f 107 109 108
f 108 106 107
f 106 108 110
f 110 105 106
usemtl APPID_1924922976_1410673660640 
o vid_14 
f 111 120 121
f 112 121 122
f 113 122 123
f 114 123 124
f 115 124 125
f 116 125 126
f 117 126 127
f 111 121 112
f 112 122 113
f 113 123 114
f 114 124 115
f 115 125 116
f 116 126 117
f 117 127 118
f 118 127 128
usemtl APPID_1924925552_1410673662944 
o vid_15 
f 131 130 129
f 132 133 134
f 129 134 133
f 129 133 131
f 131 133 132
f 132 130 131
f 130 132 134
f 134 129 130
usemtl APPID_1924922976_1410673660640 
o vid_16 
f 135 142 143
f 136 143 144
f 137 144 145
f 138 145 146
f 139 146 147
f 135 143 136
f 136 144 137
f 137 145 138
f 138 146 139
f 139 147 140
f 140 147 148
usemtl APPID_1924925552_1410673662944 
o vid_17 
f 151 150 149
f 152 153 154
f 149 154 153
f 149 153 151
f 151 153 152
f 152 150 151
f 150 152 154
f 154 149 150
usemtl APPID_1924922976_1410673660640 
o vid_18 
f 155 162 163
f 156 163 164
f 157 164 165
f 158 165 166
f 159 166 167
f 155 163 156
f 156 164 157
f 157 165 158
f 158 166 159
f 159 167 160
f 160 167 168
