# File generated by PlantGL - Fri Sep  4 14:43:02 2026
v    17.752484 218.905161 0.000000
v    22.071916 218.601013 0.000000
v    20.175600 222.493825 0.000000
v    22.247516 221.094839 0.362700
v    17.928084 221.398987 0.362700
v    19.824400 217.506175 0.362700
v    22.064918 221.443499 0.203133
v    22.348997 221.551806 0.485648
v    22.544371 221.622644 0.678455
v    23.214771 221.875088 1.160650
v    23.893069 222.139868 1.394045
v    24.555032 222.368441 1.617618
v    24.992578 222.458761 1.636928
v    22.409498 220.736136 0.203133
v    22.669894 220.893060 0.485648
v    22.846105 221.003234 0.678455
v    23.458135 221.375504 1.160650
v    24.084747 221.746387 1.394045
v    24.672779 222.126728 1.617618
v    25.013612 222.415582 1.636928
v    21.879284 221.505407 0.362700
v    17.756638 220.874804 0.362700
v    20.364078 217.619789 0.362700
v    18.120716 218.494593 0.589630
v    22.243362 219.125196 0.589630
v    19.635922 222.380211 0.589630
v    18.479378 218.072790 0.363993
v    18.148179 217.852790 0.733471
v    17.873517 217.676775 1.036127
v    17.027439 217.119766 1.717980
v    16.209131 216.566812 2.034543
v    15.367256 216.045357 2.350689
v    14.726492 215.755268 2.391152
v    17.787363 218.936671 0.363993
v    17.500380 218.661474 0.733471
v    17.268661 218.431851 1.036127
v    16.540416 217.727743 1.717980
v    15.822190 217.049852 2.034543
v    15.129560 216.342086 2.350689
v    14.706612 215.780085 2.391152
v    17.841416 219.161313 0.589630
v    21.805616 218.549955 0.589630
v    20.352968 222.288732 0.589630
v    22.158584 220.838687 1.053978
v    18.194384 221.450045 1.053978
v    19.647032 217.711268 1.053978
v    21.861454 221.541365 0.741169
v    22.340561 221.679929 1.204625
v    22.827741 221.812201 1.672975
v    24.178367 222.196807 2.618253
v    25.425144 222.568118 3.035233
v    26.755420 222.907455 3.473518
v    27.767475 223.029082 3.551789
v    22.413811 220.119728 0.741169
v    22.860790 220.340983 1.204625
v    23.309476 220.572328 1.672975
v    24.565473 221.200488 2.618253
v    25.735885 221.768342 3.035233
v    26.946306 222.416157 3.473518
v    27.774995 223.009725 3.551789
v    22.163962 220.511898 1.053978
v    18.474702 221.618097 1.053978
v    19.361335 217.870005 1.053978
v    17.836038 219.488102 1.829186
v    21.525298 218.381903 1.829186
v    20.638665 222.129995 1.829186
v    18.107732 218.472273 1.404027
v    17.274172 218.352058 2.186627
v    16.756808 218.286094 2.670503
v    14.866551 218.021411 3.955291
v    12.907240 217.722978 4.590558
v    11.052860 217.515424 5.186259
v    9.626459 217.539327 5.221211
v    17.623804 220.517997 1.404027
v    16.824729 220.252003 2.186627
v    16.332644 220.079176 2.670503
v    14.524140 219.468895 3.955291
v    12.638780 218.857849 4.590558
v    10.887946 218.212569 5.186259
v    9.623434 217.552115 5.221211
v    18.595695 218.396392 1.829186
v    22.090917 219.585640 1.829186
v    19.313387 222.017967 1.829186
v    21.404305 221.603608 2.769464
v    17.909083 220.414360 2.769464
v    20.686613 217.982033 2.769464
v    20.311188 222.506755 2.202932
v    21.258983 223.412120 3.420924
v    21.630692 223.755699 3.890535
v    23.477032 225.504925 5.602538
v    25.548192 227.514986 6.527655
v    27.368875 229.146767 7.308185
v    28.989646 230.271758 7.286248
v    22.443782 220.639209 2.202932
v    23.216180 221.698171 3.420924
v    23.507712 222.111963 3.890535
v    24.998040 224.172954 5.602538
v    26.717260 226.491214 6.527655
v    28.094555 228.511277 7.308185
v    28.995867 230.266311 7.286248
v    21.718982 221.097521 2.769464
v    18.190028 220.939922 2.769464
v    20.090990 217.962557 2.769464
v    18.281018 218.902479 5.235228
v    21.809972 219.060078 5.235228
v    19.909010 222.037443 5.235228
v    19.280808 217.435393 4.495113
v    18.530311 217.045463 5.281026
v    17.161914 216.362786 6.699792
v    14.207192 214.843022 8.936347
v    11.871570 213.605929 9.783522
v    8.943028 212.200644 10.820517
v    7.888267 211.864437 11.164600
v    6.585544 211.431995 11.149349
v    17.370877 220.426804 4.495113
v    16.701335 219.910079 5.281026
v    15.506209 218.956020 6.699792
v    12.884176 216.915185 8.936347
v    10.779091 215.317014 9.783522
v    8.271925 213.251754 10.820517
v    7.523079 212.436410 11.164600
v    6.582589 211.436624 11.149349
v    18.620206 219.005855 5.235228
v    21.550852 219.302136 5.235228
v    19.828942 221.692009 5.235228
v    21.379794 220.994145 9.070287
v    18.449148 220.697864 9.070287
v    20.171058 218.307991 9.070287
v    19.874647 222.966647 8.122357
v    22.488293 224.516691 10.946082
v    26.153880 226.677451 13.810633
v    31.649001 229.995499 15.868191
v    33.833888 231.199143 16.664549
v    35.360549 232.051636 16.644643
v    38.383667 233.247320 16.608522
v    22.774411 218.942005 8.122357
v    25.072091 220.930584 10.946082
v    28.282073 223.723687 13.810633
v    33.168968 227.885906 15.868191
v    35.002339 229.577426 16.664549
v    36.294255 230.755725 16.644643
v    38.385417 233.244891 16.608522
v    21.114747 220.725998 9.070287
v    18.813894 220.602401 9.070287
v    20.071359 218.671602 9.070287
v    18.885253 219.274002 15.537192
v    21.186106 219.397599 15.537192
v    19.928641 221.328398 15.537192
v    20.747157 216.571832 14.346896
v    17.377276 214.782114 17.892589
v    15.051420 213.515662 19.677451
v    12.668678 212.262738 21.489547
v    3.444135 207.269570 24.851694
v    -1.434920 204.843415 25.019014
v    -4.358789 203.843406 24.984681
v    -5.291506 203.528484 24.810297
v    17.166691 222.069527 14.346896
v    14.167202 219.711086 17.892589
v    12.068441 218.095933 19.677451
v    9.959054 216.423282 21.489547
v    1.662350 210.005446 24.851694
v    -2.529461 206.524048 25.019014
v    -4.626335 204.254214 24.984681
v    -5.291506 203.528484 24.810297
v    19.135318 219.520414 15.537192
v    20.847675 219.490956 15.537192
v    20.017007 220.988630 15.537192
v    20.864682 220.479586 23.570456
v    19.152325 220.509044 23.570456
v    19.982993 219.011370 23.570456
v    18.875806 223.848395 22.105125
v    23.169941 225.752369 26.470100
v    24.657279 226.430449 27.571772
v    29.183089 228.414921 30.898186
v    39.243855 232.971468 34.438318
v    41.773345 233.998165 35.309833
v    45.364666 235.479922 35.265604
v    50.232033 236.767851 35.209663
v    22.669400 217.008636 22.105125
v    26.558279 219.643277 26.470100
v    27.921038 220.545970 27.571772
v    32.000874 223.334521 30.898186
v    41.193355 229.456566 34.438318
v    43.403661 231.058744 35.309833
v    46.562233 233.320737 35.265604
v    50.232033 236.767851 35.209663
v    20.653303 220.173783 23.570456
v    19.522848 220.478886 23.570456
v    19.823849 219.347332 23.570456
v    19.346697 219.826217 32.709000
v    20.477152 219.521114 32.709000
v    20.176151 220.652668 32.709000
v    20.649411 215.506770 29.167463
v    15.958888 214.723118 34.144159
v    7.864997 213.402814 40.568817
v    -2.011723 211.634865 44.456059
v    -8.211902 210.782589 46.870562
v    -15.705061 210.502234 47.223100
v    18.331096 224.222039 29.167463
v    13.871142 222.571607 34.144159
v    6.190993 219.695919 40.568817
v    -3.258770 216.322905 44.456059
v    -9.062951 213.981947 46.870562
v    -15.705061 210.502234 47.223100
v    24.992578 222.458761 1.636928
v    25.088459 222.478755 1.635840
v    25.013612 222.415582 1.636928
v    25.088459 222.478755 1.635840
v    14.726492 215.755268 2.391152
v    14.667490 215.728375 2.390431
v    14.706612 215.780085 2.391152
v    14.667490 215.728375 2.390431
v    27.767475 223.029082 3.551789
v    27.809501 223.034271 3.551319
v    27.774995 223.009725 3.551789
v    27.809501 223.034271 3.551319
v    9.626459 217.539327 5.221211
v    9.599664 217.539740 5.220913
v    9.623434 217.552115 5.221211
v    9.599664 217.539740 5.220913
v    28.989646 230.271758 7.286248
v    29.003525 230.281332 7.286061
v    28.995867 230.266311 7.286248
v    29.003525 230.281332 7.286061
v    6.585544 211.431995 11.149349
v    6.574916 211.428467 11.149224
v    6.582589 211.436624 11.149349
v    6.574916 211.428467 11.149224
v    38.383667 233.247320 16.608522
v    38.389344 233.249565 16.608454
v    38.385417 233.244891 16.608522
v    38.389344 233.249565 16.608454
mtllib usm_25_2.5D_2018-08-17_5.mtl
usemtl APPID_3099112224_2021840838128 
o vid_3 
f 3 2 1
f 4 5 6
f 1 6 5
f 1 5 3
f 3 5 4
f 4 2 3
f 2 4 6
f 6 1 2
usemtl APPID_3099109088_2021840838000 
o vid_4 
f 7 14 15
f 8 15 16
f 9 16 17
f 10 17 18
f 11 18 19
f 7 15 8
f 8 16 9
f 9 17 10
f 10 18 11
f 11 19 12
f 12 19 20
f 12 20 13
usemtl APPID_3099112224_2021840838128 
o vid_5 
f 23 22 21
f 24 25 26
f 21 26 25
f 21 25 23
f 23 25 24
f 24 22 23
f 22 24 26
f 26 21 22
usemtl APPID_3099109088_2021840838000 
o vid_6 
f 27 34 35
f 28 35 36
f 29 36 37
f 30 37 38
f 31 38 39
f 27 35 28
f 28 36 29
f 29 37 30
f 30 38 31
f 31 39 32
f 32 39 40
f 32 40 33
usemtl APPID_3099112224_2021840838128 
o vid_7 
f 43 42 41
f 44 45 46
f 41 46 45
f 41 45 43
f 43 45 44
f 44 42 43
f 42 44 46
f 46 41 42
usemtl APPID_3099109088_2021840838000 
o vid_8 
f 47 54 55
f 48 55 56
f 49 56 57
f 50 57 58
f 51 58 59
f 47 55 48
f 48 56 49
f 49 57 50
f 50 58 51
f 51 59 52
f 52 59 60
f 52 60 53
usemtl APPID_3099112224_2021840838128 
o vid_9 
f 63 62 61
f 64 65 66
f 61 66 65
f 61 65 63
f 63 65 64
f 64 62 63
f 62 64 66
f 66 61 62
usemtl APPID_3099109088_2021840838000 
o vid_10 
f 67 74 75
f 68 75 76
f 69 76 77
f 70 77 78
f 71 78 79
f 67 75 68
f 68 76 69
f 69 77 70
f 70 78 71
f 71 79 72
f 72 79 80
f 72 80 73
usemtl APPID_3099112224_2021840838128 
o vid_11 
f 83 82 81
f 84 85 86
f 81 86 85
f 81 85 83
f 83 85 84
f 84 82 83
f 82 84 86
f 86 81 82
usemtl APPID_3099109088_2021840838000 
o vid_12 
f 87 94 95
f 88 95 96
f 89 96 97
f 90 97 98
f 91 98 99
f 87 95 88
f 88 96 89
f 89 97 90
f 90 98 91
f 91 99 92
f 92 99 100
f 92 100 93
usemtl APPID_3099112224_2021840838128 
o vid_13 
f 103 102 101
f 104 105 106
f 101 106 105
f 101 105 103
f 103 105 104
f 104 102 103
f 102 104 106
f 106 101 102
usemtl APPID_3099109088_2021840838000 
o vid_14 
f 107 115 116
f 108 116 117
f 109 117 118
f 110 118 119
f 111 119 120
f 112 120 121
f 107 116 108
f 108 117 109
f 109 118 110
f 110 119 111
f 111 120 112
f 112 121 113
f 113 121 122
f 113 122 114
usemtl APPID_3099112224_2021840838128 
o vid_15 
f 125 124 123
f 126 127 128
f 123 128 127
f 123 127 125
f 125 127 126
f 126 124 125
f 124 126 128
f 128 123 124
usemtl APPID_3099109088_2021840838000 
o vid_16 
f 129 136 137
f 130 137 138
f 131 138 139
f 132 139 140
f 133 140 141
f 129 137 130
f 130 138 131
f 131 139 132
f 132 140 133
f 133 141 134
f 134 141 142
f 134 142 135
usemtl APPID_3099112224_2021840838128 
o vid_17 
f 145 144 143
f 146 147 148
f 143 148 147
f 143 147 145
f 145 147 146
f 146 144 145
f 144 146 148
f 148 143 144
usemtl APPID_3099109088_2021840838000 
o vid_18 
f 149 157 158
f 150 158 159
f 151 159 160
f 152 160 161
f 153 161 162
f 154 162 163
f 149 158 150
f 150 159 151
f 151 160 152
f 152 161 153
f 153 162 154
f 154 163 155
f 155 163 164
usemtl APPID_3099112224_2021840838128 
o vid_19 
f 167 166 165
f 168 169 170
f 165 170 169
f 165 169 167
f 167 169 168
f 168 166 167
f 166 168 170
f 170 165 166
usemtl APPID_3099109088_2021840838000 
o vid_20 
f 171 179 180
f 172 180 181
f 173 181 182
f 174 182 183
f 175 183 184
f 176 184 185
f 171 180 172
f 172 181 173
f 173 182 174
f 174 183 175
f 175 184 176
f 176 185 177
f 177 185 186
usemtl APPID_3099112224_2021840838128 
o vid_21 
f 189 188 187
f 190 191 192
f 187 192 191
f 187 191 189
f 189 191 190
f 190 188 189
f 188 190 192
f 192 187 188
usemtl APPID_3099109088_2021840838000 
o vid_22 
f 193 199 200
f 194 200 201
f 195 201 202
f 196 202 203
f 193 200 194
f 194 201 195
f 195 202 196
f 196 203 197
f 197 203 204
usemtl APPID_3099109760_2021840838768 
o vid_10000004 
f 205 207 208
f 205 208 206
f 205 207 208
usemtl APPID_3099109760_2021840838768 
o vid_10000006 
f 209 211 212
f 209 212 210
f 209 211 212
usemtl APPID_3099109760_2021840838768 
o vid_10000008 
f 213 215 216
f 213 216 214
f 213 215 216
usemtl APPID_3099109760_2021840838768 
o vid_10000010 
f 217 219 220
f 217 220 218
f 217 219 220
usemtl APPID_3099109760_2021840838768 
o vid_10000012 
f 221 223 224
f 221 224 222
f 221 223 224
usemtl APPID_3099109760_2021840838768 
o vid_10000014 
f 225 227 228
f 225 228 226
f 225 227 228
usemtl APPID_3099109760_2021840838768 
o vid_10000016 
f 229 231 232
f 229 232 230
f 229 231 232
