# File generated by PlantGL - Fri Sep  4 14:43:32 2026
v    18.201987 59.124129 0.000000
v    21.657533 58.880811 0.000000
v    20.140480 61.995060 0.000000
v    21.798013 60.875871 0.331061
v    18.342467 61.119189 0.331061
v    19.859520 58.004940 0.331061
v    21.382982 61.452794 -0.085391
v    22.236258 61.776914 0.779475
v    22.583742 61.899267 1.127663
v    23.386869 62.196934 1.664553
v    21.996455 60.193440 -0.085391
v    22.777651 60.665526 0.779475
v    23.088192 60.863717 1.127663
v    23.817646 61.312622 1.664553
v    21.503548 61.204422 0.331061
v    18.205166 60.699900 0.331061
v    20.291286 58.095678 0.331061
v    18.496452 58.795578 0.718770
v    21.794834 59.300100 0.718770
v    19.708714 61.904322 0.718770
v    19.284553 58.077184 0.145052
v    17.814243 57.103129 1.816194
v    17.356062 56.790998 2.164350
v    16.086288 55.964480 3.114048
v    15.248987 55.404515 3.368216
v    14.658364 55.031478 3.544027
v    17.967388 59.721474 0.145052
v    16.695908 58.499209 1.816194
v    16.291300 58.120201 2.164350
v    15.207569 57.061435 3.114048
v    14.478355 56.366539 3.368216
v    13.985402 55.871574 3.544027
v    18.272844 59.328938 0.718770
v    21.444735 58.839770 0.718770
v    20.282421 61.831292 0.718770
v    21.727156 60.671062 1.487000
v    18.555265 61.160230 1.487000
v    19.717579 58.168708 1.487000
v    20.991261 61.948625 0.715164
v    23.271391 62.605033 2.963392
v    24.483149 62.970898 3.758296
v    25.944638 63.378874 4.709428
v    27.817346 63.926844 5.201779
v    30.020977 64.509597 5.775441
v    22.046849 59.231790 0.715164
v    24.172029 60.287003 2.963392
v    25.312932 60.835231 3.758296
v    26.666489 61.521001 4.709428
v    28.417910 62.381135 5.201779
v    30.436929 63.439032 5.775441
v    21.731622 60.409625 1.487000
v    18.779443 61.294816 1.487000
v    19.488935 58.295559 1.487000
v    18.268378 59.590375 2.857581
v    21.220557 58.705184 2.857581
v    20.511065 61.704441 2.857581
v    19.005726 57.747495 1.843562
v    15.919864 57.306322 4.797229
v    13.656819 56.952883 6.235632
v    12.304246 56.770653 7.091127
v    9.056433 56.291869 7.919499
v    6.420949 55.973457 8.587605
v    5.229475 55.921165 8.338966
v    18.101893 61.568296 1.843562
v    15.145428 60.580121 4.797229
v    12.963880 59.882166 6.235632
v    11.673015 59.439076 7.091127
v    8.554911 58.411965 7.919499
v    6.056093 57.515828 8.587605
v    4.967469 57.028750 8.338966
v    18.876148 58.716648 2.857581
v    21.673341 59.668392 2.857581
v    19.450510 61.614960 2.857581
v    21.123852 61.283352 4.464214
v    18.326659 60.331608 4.464214
v    20.549490 58.385040 4.464214
v    18.815987 62.804186 3.163262
v    19.647257 63.596676 4.251519
v    21.711096 65.563283 6.952714
v    25.061738 68.839726 9.895706
v    25.950820 69.726336 10.212979
v    30.431898 74.033733 11.781351
v    33.355258 76.705579 11.009000
v    35.071942 77.938458 10.572113
v    22.935890 59.196322 3.163262
v    23.611773 60.124886 4.251519
v    25.288886 62.430156 6.952714
v    28.094601 66.183799 9.895706
v    28.856156 67.182088 10.212979
v    32.534663 72.192309 11.781351
v    34.797443 75.442635 11.009000
v    35.793044 77.306977 10.572113
v    21.375838 60.878433 4.464214
v    18.551335 60.752294 4.464214
v    20.072827 58.369272 4.464214
v    18.624162 59.121567 10.752587
v    21.448665 59.247706 10.752587
v    19.927173 61.630728 10.752587
v    20.969316 56.324589 9.122654
v    17.826891 54.695844 12.476443
v    16.520617 54.019191 13.870374
v    11.342471 51.251444 17.557583
v    7.501223 49.149603 18.664011
v    2.940384 46.761800 19.963020
v    0.581996 45.524763 19.399850
v    -3.871702 43.333814 18.352910
v    -7.042339 42.214073 17.657837
v    -7.312738 42.127565 17.495702
v    17.073759 62.425970 9.122654
v    14.273876 60.260721 12.476443
v    13.110356 59.360481 13.870374
v    8.420575 55.827837 17.557583
v    4.897450 53.227738 18.664011
v    0.812105 50.095198 19.963020
v    -1.302509 48.476352 19.399850
v    -5.164193 45.358167 18.352910
v    -7.514206 42.953130 17.657837
v    -7.706469 42.744242 17.495702
v    18.735263 59.088754 10.752587
v    21.421531 59.360328 10.752587
v    19.843206 61.550918 10.752587
v    21.264737 60.911246 22.165711
v    18.578469 60.639672 22.165711
v    20.156794 58.449082 22.165711
v    18.036602 64.404881 20.171494
v    19.755162 65.647945 22.189416
v    22.880359 67.687928 25.736356
v    28.062986 70.841619 29.628568
v    39.124474 77.711653 33.434638
v    42.049889 79.535186 32.704646
v    48.066067 83.134937 31.222059
v    50.299729 84.471438 30.671611
v    54.459376 86.739512 27.996966
v    58.894871 88.331688 23.907430
v    23.556855 56.743208 20.171494
v    25.280003 57.979904 22.189416
v    28.204360 60.298638 25.736356
v    32.836429 64.216459 29.628568
v    42.854679 72.534425 33.434638
v    45.510475 74.732167 32.704646
v    50.829526 79.299476 31.222059
v    52.804361 80.995207 30.671611
v    56.272533 84.222995 27.996966
v    59.186883 87.926399 23.907430
v    21.244614 60.810576 22.165711
v    18.675713 60.672580 22.165711
v    20.079672 58.516844 22.165711
v    18.755386 59.189424 39.904430
v    21.324287 59.327420 39.904430
v    19.920328 61.483156 39.904430
v    22.370281 54.901753 37.521734
v    20.032107 53.527943 40.099107
v    18.299999 52.610225 41.956494
v    15.963372 51.372216 44.462125
v    13.675191 50.121840 46.099660
v    8.430935 47.257528 49.852223
v    -2.269376 41.276285 52.949771
v    -12.380400 35.857161 51.293662
v    -17.864137 33.097668 49.998779
v    -22.990617 31.269277 46.871632
v    -24.331868 30.884250 45.667161
v    16.295536 64.229338 37.521734
v    14.093606 62.646329 40.099107
v    12.553882 61.433212 41.956494
v    10.476781 59.796707 44.462125
v    8.407960 58.209512 46.099660
v    3.667740 54.571268 49.852223
v    -6.129386 47.203212 52.949771
v    -15.174119 40.146830 51.293662
v    -19.915304 36.247172 49.998779
v    -23.660442 32.297773 46.871632
v    -24.554922 31.226743 45.667161
v    18.765415 59.315252 39.904430
v    21.210302 59.273192 39.904430
v    20.024283 61.411556 39.904430
v    21.234585 60.684748 66.592971
v    18.789698 60.726808 66.592971
v    19.975717 58.588444 66.592971
v    17.870707 65.091800 63.812880
v    25.687799 68.546337 71.910813
v    32.614210 71.714879 76.694071
v    34.819258 72.668113 78.199888
v    44.435239 76.967822 80.857786
v    49.735844 79.173639 82.302713
v    52.202690 80.203103 81.738888
v    60.065822 82.444241 80.048771
v    23.192008 55.497623 63.812880
v    30.261629 60.299831 71.910813
v    36.617029 64.497892 76.694071
v    38.593226 65.863739 78.199888
v    47.332318 71.744459 80.857786
v    52.010172 75.073081 82.302713
v    54.189657 76.620651 81.738888
v    60.254311 82.104400 80.048771
v    21.293262 60.344016 66.592971
v    19.055443 60.947990 66.592971
v    19.651295 58.707994 66.592971
v    18.706738 59.655984 106.256849
v    20.944557 59.052010 106.256849
v    20.348705 61.292006 106.256849
v    21.110222 54.184849 103.089158
v    11.512179 52.540211 112.316107
v    7.370412 51.775291 114.961091
v    0.252073 50.614685 119.482008
v    -6.524901 49.423006 121.218265
v    -15.980786 48.013863 123.624348
v    -25.540057 47.719431 122.626373
v    18.074199 65.598202 103.089158
v    8.927550 62.256636 112.316107
v    4.953131 60.862602 114.961091
v    -1.801054 58.333030 119.482008
v    -8.274431 56.000034 121.218265
v    -17.180704 52.524730 123.624348
v    -25.622850 48.030674 122.626373
v    18.831935 59.515124 106.256849
v    21.003948 59.230864 106.256849
v    20.164118 61.254012 106.256849
v    21.168065 60.484876 147.748568
v    18.996052 60.769136 147.748568
v    19.835882 58.745988 147.748568
v    17.566565 66.501642 144.223880
v    27.907763 69.736639 154.490699
v    36.877513 72.670401 160.417276
v    40.001852 73.620126 162.464191
v    52.490214 77.586667 165.770486
v    59.725130 79.678169 167.665885
v    62.735445 80.551673 167.004726
v    73.515867 82.343695 164.745729
v    22.886323 53.686356 144.223880
v    32.478441 58.725886 154.490699
v    40.888953 63.006852 160.417276
v    43.767394 64.548942 162.464191
v    55.393532 70.592581 165.770486
v    61.982731 74.239612 167.665885
v    64.726691 75.754767 167.004726
v    73.607014 82.124124 164.745729
v    20.919824 60.756852 147.748568
v    18.884635 60.418165 147.748568
v    20.195542 58.824983 147.748568
v    19.080176 59.243148 182.880833
v    21.115365 59.581835 182.880833
v    19.804458 61.175017 182.880833
v    24.678671 54.182695 179.050890
v    14.949539 47.552013 190.206865
v    7.332879 42.215598 196.047222
v    3.590103 39.708842 198.870900
v    -7.238518 32.259485 202.187379
v    -15.019453 27.201027 204.523086
v    -27.729285 20.606516 201.550790
v    15.192598 65.711383 179.050890
v    6.812409 57.441293 190.206865
v    0.109076 50.994885 196.047222
v    -3.071536 47.804917 198.870900
v    -12.466814 38.613578 202.187379
v    -18.929027 31.952441 204.523086
v    -27.847743 20.750480 201.550790
v    19.227775 59.192038 182.880833
v    21.085829 59.735214 182.880833
v    19.686397 61.072748 182.880833
v    20.772225 60.807962 211.303740
v    18.914171 60.264786 211.303740
v    20.313603 58.927252 211.303740
v    14.493261 65.183093 207.239702
v    23.904584 73.399701 219.077556
v    27.794181 76.885134 222.357409
v    34.951008 83.032235 228.271157
v    41.420211 88.730098 230.446400
v    50.833270 96.593796 233.533319
v    61.678231 103.680586 232.207511
v    25.426744 54.733209 207.239702
v    33.209481 64.506368 219.077556
v    36.515509 68.549559 222.357409
v    42.332778 75.976968 228.271157
v    47.732355 82.697147 230.446400
v    55.162466 92.456086 233.533319
v    61.751729 103.610340 232.207511
v    20.659788 60.672439 211.303740
v    19.087757 60.235173 211.303740
v    20.252455 59.092388 211.303740
v    19.340212 59.327561 228.584337
v    20.912243 59.764827 228.584337
v    19.747545 60.907612 228.584337
v    25.683069 54.810612 224.373029
v    15.819873 46.424895 236.639856
v    13.157574 44.101462 238.858917
v    4.214929 36.622056 246.166610
v    -0.930930 32.208239 247.877269
v    -10.791129 24.188212 251.076051
v    -15.265913 21.356842 252.381610
v    -22.267164 16.907167 250.666827
v    14.703622 65.583494 224.373029
v    6.506727 55.562825 236.639856
v    4.234272 52.856883 238.858917
v    -3.073957 43.773810 246.166610
v    -7.389255 38.545058 247.877269
v    -15.220583 28.534331 251.076051
v    -17.966463 24.006584 252.381610
v    -22.282376 16.922093 250.666827
v    19.514871 59.462478 228.584337
v    20.708072 59.848627 228.584337
v    19.777057 60.688895 228.584337
v    20.485129 60.537522 239.304895
v    19.291928 60.151373 239.304895
v    20.222943 59.311105 239.304895
v    13.723319 64.979770 235.043321
v    23.341884 73.874207 247.456567
v    27.937220 78.235094 251.435008
v    34.618453 84.313915 257.097032
v    41.948383 91.151535 259.626374
v    51.579342 99.676112 262.863337
v    62.933415 107.570128 260.966092
v    25.595152 54.265097 235.043321
v    33.460035 64.742283 247.456567
v    37.328463 69.759226 251.435008
v    42.692658 77.026712 257.097032
v    48.745384 85.017045 259.626374
v    56.241078 95.468761 262.863337
v    62.933415 107.570128 260.966092
v    20.519303 60.101094 239.304895
v    19.652798 60.399183 239.304895
v    19.827899 59.499723 239.304895
v    19.480697 59.898906 244.835349
v    20.347202 59.600817 244.835349
v    20.172101 60.500277 244.835349
v    22.162258 52.499010 240.624041
v    9.283374 51.180973 252.890869
v    4.680580 50.649728 255.800577
v    -5.829250 49.659893 262.417622
v    -13.824185 48.806448 264.446431
v    -26.493324 47.787986 267.645213
v    -30.495267 47.942060 268.632622
v    -40.132986 48.293733 266.639086
v    19.190511 67.764338 240.624041
v    6.757706 64.154873 252.890869
v    2.291758 62.920679 255.800577
v    -7.821882 59.895682 262.417622
v    -15.553118 57.687666 264.446431
v    -27.679116 53.879185 267.645213
v    -31.331009 52.235116 268.632622
v    -40.132986 48.293733 266.639086
v    19.724607 59.772810 244.835349
v    20.334449 59.875098 244.835349
v    19.940944 60.352092 244.835349
v    20.275393 60.227190 246.923275
v    19.665551 60.124902 246.923275
v    20.059056 59.647908 246.923275
v    15.490584 64.179926 242.859238
v    25.990381 71.004829 254.697092
v    28.620261 72.771084 256.682865
v    37.699715 78.483377 263.384040
v    49.346228 84.209702 266.885176
v    23.246619 54.778307 242.859238
v    31.942811 63.789483 254.697092
v    34.176732 66.035708 256.682865
v    41.510630 73.863907 263.384040
v    49.346228 84.209702 266.885176
v    20.166283 60.124867 246.923275
v    19.808720 60.081572 246.923275
v    20.024997 59.793561 246.923275
v    19.833717 59.875133 247.165000
v    20.191280 59.918428 247.165000
v    19.975003 60.206439 247.165000
v    21.095469 57.477556 239.656937
v    18.248067 58.684420 251.298976
v    17.883093 61.755415 239.656937
v    18.248067 58.684420 251.298976
v    23.386869 62.196934 1.664553
v    23.811348 62.354260 1.948318
v    23.995554 62.416347 2.069753
v    24.970505 62.762595 2.330137
v    26.279004 63.058709 2.660905
v    23.817646 61.312622 1.664553
v    24.203187 61.549882 1.948318
v    24.365624 61.656656 2.069753
v    25.239248 62.210911 2.330137
v    26.279004 63.058709 2.660905
v    14.658364 55.031478 3.544027
v    13.785023 54.479875 3.803994
v    13.211104 54.206429 3.960734
v    12.108136 53.678196 3.707941
v    13.985402 55.871574 3.544027
v    13.256483 55.139681 3.803994
v    12.864367 54.639281 3.960734
v    12.108136 53.678196 3.707941
v    30.020977 64.509597 5.775441
v    30.312185 64.556574 5.848495
v    32.550058 64.876148 5.381212
v    30.436929 63.439032 5.775441
v    30.683465 63.600989 5.848495
v    32.550058 64.876148 5.381212
v    5.229475 55.921165 8.338966
v    2.719803 55.912269 7.820189
v    4.967469 57.028750 8.338966
v    2.719803 55.912269 7.820189
v    35.071942 77.938458 10.572113
v    36.788673 79.171370 10.135215
v    35.793044 77.306977 10.572113
v    36.788673 79.171370 10.135215
v    -7.312738 42.127565 17.495702
v    -8.675286 41.691648 16.678697
v    -7.706469 42.744242 17.495702
v    -8.675286 41.691648 16.678697
v    58.894871 88.331688 23.907430
v    59.701310 88.604887 23.172485
v    59.186883 87.926399 23.907430
v    59.701310 88.604887 23.172485
v    -24.331868 30.884250 45.667161
v    -25.001499 30.692022 45.065818
v    -24.554922 31.226743 45.667161
v    -25.001499 30.692022 45.065818
v    60.065822 82.444241 80.048771
v    60.889917 82.679124 79.871638
v    60.254311 82.104400 80.048771
v    60.889917 82.679124 79.871638
v    -25.540057 47.719431 122.626373
v    -26.249885 47.697246 122.479573
v    -25.622850 48.030674 122.626373
v    -26.249885 47.697246 122.479573
v    73.515867 82.343695 164.745729
v    74.032995 82.429657 164.637367
v    73.607014 82.124124 164.745729
v    74.032995 82.429657 164.637367
v    -27.729285 20.606516 201.550790
v    -28.097694 20.424097 201.465812
v    -27.847743 20.750480 201.550790
v    -28.097694 20.424097 201.465812
v    61.678231 103.680586 232.207511
v    61.865843 103.803307 232.161170
v    61.751729 103.610340 232.207511
v    61.865843 103.803307 232.161170
v    -22.267164 16.907167 250.666827
v    -22.306825 16.881961 250.657113
v    -22.282376 16.922093 250.666827
v    -22.306825 16.881961 250.657113
mtllib usm_21_2.5D_2018-10-02_1.mtl
usemtl APPID_4100168352_2499637582720 
o vid_3 
f 3 2 1
f 4 5 6
f 1 6 5
f 1 5 3
f 3 5 4
f 4 2 3
f 2 4 6
f 6 1 2
usemtl APPID_4100169360_2499637588224 
o vid_4 
f 7 11 12
f 8 12 13
f 7 12 8
f 8 13 9
f 9 13 14
f 9 14 10
usemtl APPID_4100168352_2499637582720 
o vid_5 
f 17 16 15
f 18 19 20
f 15 20 19
f 15 19 17
f 17 19 18
f 18 16 17
f 16 18 20
f 20 15 16
usemtl APPID_4100169360_2499637588224 
o vid_6 
f 21 27 28
f 22 28 29
f 23 29 30
f 24 30 31
f 21 28 22
f 22 29 23
f 23 30 24
f 24 31 25
f 25 31 32
f 25 32 26
usemtl APPID_4100168352_2499637582720 
o vid_7 
f 35 34 33
f 36 37 38
f 33 38 37
f 33 37 35
f 35 37 36
f 36 34 35
f 34 36 38
f 38 33 34
usemtl APPID_4100169360_2499637588224 
o vid_8 
f 39 45 46
f 40 46 47
f 41 47 48
f 42 48 49
f 39 46 40
f 40 47 41
f 41 48 42
f 42 49 43
f 43 49 50
f 43 50 44
usemtl APPID_4100168352_2499637582720 
o vid_9 
f 53 52 51
f 54 55 56
f 51 56 55
f 51 55 53
f 53 55 54
f 54 52 53
f 52 54 56
f 56 51 52
usemtl APPID_4100169360_2499637588224 
o vid_10 
f 57 64 65
f 58 65 66
f 59 66 67
f 60 67 68
f 61 68 69
f 57 65 58
f 58 66 59
f 59 67 60
f 60 68 61
f 61 69 62
f 62 69 70
f 62 70 63
usemtl APPID_4100168352_2499637582720 
o vid_11 
f 73 72 71
f 74 75 76
f 71 76 75
f 71 75 73
f 73 75 74
f 74 72 73
f 72 74 76
f 76 71 72
usemtl APPID_4100169360_2499637588224 
o vid_12 
f 77 85 86
f 78 86 87
f 79 87 88
f 80 88 89
f 81 89 90
f 82 90 91
f 77 86 78
f 78 87 79
f 79 88 80
f 80 89 81
f 81 90 82
f 82 91 83
f 83 91 92
f 83 92 84
usemtl APPID_4100168352_2499637582720 
o vid_13 
f 95 94 93
f 96 97 98
f 93 98 97
f 93 97 95
f 95 97 96
f 96 94 95
f 94 96 98
f 98 93 94
usemtl APPID_4100169360_2499637588224 
o vid_14 
f 99 109 110
f 100 110 111
f 101 111 112
f 102 112 113
f 103 113 114
f 104 114 115
f 105 115 116
f 106 116 117
f 99 110 100
f 100 111 101
f 101 112 102
f 102 113 103
f 103 114 104
f 104 115 105
f 105 116 106
f 106 117 107
f 107 117 118
f 107 118 108
usemtl APPID_4100168352_2499637582720 
o vid_15 
f 121 120 119
f 122 123 124
f 119 124 123
f 119 123 121
f 121 123 122
f 122 120 121
f 120 122 124
f 124 119 120
usemtl APPID_4100169360_2499637588224 
o vid_16 
f 125 135 136
f 126 136 137
f 127 137 138
f 128 138 139
f 129 139 140
f 130 140 141
f 131 141 142
f 132 142 143
f 125 136 126
f 126 137 127
f 127 138 128
f 128 139 129
f 129 140 130
f 130 141 131
f 131 142 132
f 132 143 133
f 133 143 144
f 133 144 134
usemtl APPID_4100168352_2499637582720 
o vid_17 
f 147 146 145
f 148 149 150
f 145 150 149
f 145 149 147
f 147 149 148
f 148 146 147
f 146 148 150
f 150 145 146
usemtl APPID_4100169360_2499637588224 
o vid_18 
f 151 162 163
f 152 163 164
f 153 164 165
f 154 165 166
f 155 166 167
f 156 167 168
f 157 168 169
f 158 169 170
f 159 170 171
f 151 163 152
f 152 164 153
f 153 165 154
f 154 166 155
f 155 167 156
f 156 168 157
f 157 169 158
f 158 170 159
f 159 171 160
f 160 171 172
f 160 172 161
usemtl APPID_4100168352_2499637582720 
o vid_19 
f 175 174 173
f 176 177 178
f 173 178 177
f 173 177 175
f 175 177 176
f 176 174 175
f 174 176 178
f 178 173 174
usemtl APPID_4100169360_2499637588224 
o vid_20 
f 179 187 188
f 180 188 189
f 181 189 190
f 182 190 191
f 183 191 192
f 184 192 193
f 179 188 180
f 180 189 181
f 181 190 182
f 182 191 183
f 183 192 184
f 184 193 185
f 185 193 194
f 185 194 186
usemtl APPID_4100168352_2499637582720 
o vid_21 
f 197 196 195
f 198 199 200
f 195 200 199
f 195 199 197
f 197 199 198
f 198 196 197
f 196 198 200
f 200 195 196
usemtl APPID_4100169360_2499637588224 
o vid_22 
f 201 208 209
f 202 209 210
f 203 210 211
f 204 211 212
f 205 212 213
f 201 209 202
f 202 210 203
f 203 211 204
f 204 212 205
f 205 213 206
f 206 213 214
f 206 214 207
usemtl APPID_4100168352_2499637582720 
o vid_23 
f 217 216 215
f 218 219 220
f 215 220 219
f 215 219 217
f 217 219 218
f 218 216 217
f 216 218 220
f 220 215 216
usemtl APPID_4100169360_2499637588224 
o vid_24 
f 221 229 230
f 222 230 231
f 223 231 232
f 224 232 233
f 225 233 234
f 226 234 235
f 221 230 222
f 222 231 223
f 223 232 224
f 224 233 225
f 225 234 226
f 226 235 227
f 227 235 236
f 227 236 228
usemtl APPID_4100168352_2499637582720 
o vid_25 
f 239 238 237
f 240 241 242
f 237 242 241
f 237 241 239
f 239 241 240
f 240 238 239
f 238 240 242
f 242 237 238
usemtl APPID_4100169360_2499637588224 
o vid_26 
f 243 250 251
f 244 251 252
f 245 252 253
f 246 253 254
f 247 254 255
f 243 251 244
f 244 252 245
f 245 253 246
f 246 254 247
f 247 255 248
f 248 255 256
f 248 256 249
usemtl APPID_4100168352_2499637582720 
o vid_27 
f 259 258 257
f 260 261 262
f 257 262 261
f 257 261 259
f 259 261 260
f 260 258 259
f 258 260 262
f 262 257 258
usemtl APPID_4100169360_2499637588224 
o vid_28 
f 263 270 271
f 264 271 272
f 265 272 273
f 266 273 274
f 267 274 275
f 263 271 264
f 264 272 265
f 265 273 266
f 266 274 267
f 267 275 268
f 268 275 276
f 268 276 269
usemtl APPID_4100168352_2499637582720 
o vid_29 
f 279 278 277
f 280 281 282
f 277 282 281
f 277 281 279
f 279 281 280
f 280 278 279
f 278 280 282
f 282 277 278
usemtl APPID_4100169360_2499637588224 
o vid_30 
f 283 291 292
f 284 292 293
f 285 293 294
f 286 294 295
f 287 295 296
f 288 296 297
f 283 292 284
f 284 293 285
f 285 294 286
f 286 295 287
f 287 296 288
f 288 297 289
f 289 297 298
f 289 298 290
usemtl APPID_4100168352_2499637582720 
o vid_31 
f 301 300 299
f 302 303 304
f 299 304 303
f 299 303 301
f 301 303 302
f 302 300 301
f 300 302 304
f 304 299 300
usemtl APPID_4100169360_2499637588224 
o vid_32 
f 305 312 313
f 306 313 314
f 307 314 315
f 308 315 316
f 309 316 317
f 305 313 306
f 306 314 307
f 307 315 308
f 308 316 309
f 309 317 310
f 310 317 318
usemtl APPID_4100168352_2499637582720 
o vid_33 
f 321 320 319
f 322 323 324
f 319 324 323
f 319 323 321
f 321 323 322
f 322 320 321
f 320 322 324
f 324 319 320
usemtl APPID_4100169360_2499637588224 
o vid_34 
f 325 333 334
f 326 334 335
f 327 335 336
f 328 336 337
f 329 337 338
f 330 338 339
f 325 334 326
f 326 335 327
f 327 336 328
f 328 337 329
f 329 338 330
f 330 339 331
f 331 339 340
usemtl APPID_4100168352_2499637582720 
o vid_35 
f 343 342 341
f 344 345 346
f 341 346 345
f 341 345 343
f 343 345 344
f 344 342 343
f 342 344 346
f 346 341 342
usemtl APPID_4100169360_2499637588224 
o vid_36 
f 347 352 353
f 348 353 354
f 349 354 355
f 347 353 348
f 348 354 349
f 349 355 350
f 350 355 356
usemtl APPID_4100168352_2499637582720 
o vid_37 
f 359 358 357
f 360 361 362
f 357 362 361
f 357 361 359
f 359 361 360
f 360 358 359
f 358 360 362
f 362 357 358
usemtl APPID_4100169360_2499637588224 
o vid_38 
f 363 365 366
f 363 366 364
f 363 365 366
usemtl APPID_4263946816_2499637582336 
o vid_10000004 
f 367 372 373
f 368 373 374
f 369 374 375
f 367 373 368
f 368 374 369
f 369 375 370
f 370 375 376
usemtl APPID_4263946816_2499637582336 
o vid_10000006 
f 377 381 382
f 378 382 383
f 377 382 378
f 378 383 379
f 379 383 384
usemtl APPID_4263946816_2499637582336 
o vid_10000008 
f 385 388 389
f 385 389 386
f 386 389 390
usemtl APPID_4263946816_2499637582336 
o vid_10000010 
f 391 393 394
f 391 394 392
f 391 393 394
usemtl APPID_4263946816_2499637582336 
o vid_10000012 
f 395 397 398
f 395 398 396
f 395 397 398
usemtl APPID_4263946816_2499637582336 
o vid_10000014 
f 399 401 402
f 399 402 400
f 399 401 402
usemtl APPID_4263946816_2499637582336 
o vid_10000016 
f 403 405 406
f 403 406 404
f 403 405 406
usemtl APPID_4263946816_2499637582336 
o vid_10000018 
f 407 409 410
f 407 410 408
f 407 409 410
usemtl APPID_4263946816_2499637582336 
o vid_10000020 
f 411 413 414
f 411 414 412
f 411 413 414
usemtl APPID_4263946816_2499637582336 
o vid_10000022 
f 415 417 418
f 415 418 416
f 415 417 418
usemtl APPID_4263946816_2499637582336 
o vid_10000024 
f 419 421 422
f 419 422 420
f 419 421 422
usemtl APPID_4263946816_2499637582336 
o vid_10000026 
f 423 425 426
f 423 426 424
f 423 425 426
usemtl APPID_4263946816_2499637582336 
o vid_10000028 
f 427 429 430
f 427 430 428
f 427 429 430
usemtl APPID_4263946816_2499637582336 
o vid_10000030 
f 431 433 434
f 431 434 432
f 431 433 434
