# File generated by PlantGL - Fri Sep  4 14:43:22 2026
v    19.480210 139.746793 0.000000
v    20.479178 139.676452 0.000000
v    20.040612 140.576755 0.000000
v    20.519790 140.253207 0.158000
v    19.520822 140.323548 0.158000
v    19.959388 139.423245 0.158000
v    20.668678 140.332348 -5.741984
v    20.675715 140.329163 -5.716347
v    20.673886 140.321658 -5.741984
v    20.675715 140.329163 -5.716347
mtllib usm_13_2.5D_2018-07-07_3.mtl
usemtl APPID_96694400_1597823724640 
o vid_3 
f 3 2 1
f 4 5 6
f 1 6 5
f 1 5 3
f 3 5 4
f 4 2 3
f 2 4 6
f 6 1 2
usemtl APPID_96691040_1597823726176 
o vid_4 
f 7 9 10
f 7 10 8
f 7 9 10
