# File generated by PlantGL - Fri Sep  4 14:43:09 2026
v    18.567062 139.301969 0.000000
v    21.320982 139.108055 0.000000
v    20.111956 141.589976 0.000000
v    21.432938 140.698031 0.331061
v    18.679018 140.891945 0.331061
v    19.888044 138.410024 0.331061
v    21.003255 141.284374 -0.116670
v    21.529493 141.484267 0.416717
v    22.298713 141.755120 1.187494
v    23.159988 142.074338 1.763257
v    23.823007 142.297810 2.200343
v    24.342477 142.482296 2.339081
v    25.749256 142.800651 2.694692
v    21.629765 139.998256 -0.116670
v    22.111550 140.289404 0.416717
v    22.798990 140.728138 1.187494
v    23.581257 141.209544 1.763257
v    24.165924 141.593860 2.200343
v    24.631405 141.889176 2.339081
v    25.749256 142.800651 2.694692
v    20.963333 140.771681 0.331061
v    18.850038 140.448430 0.331061
v    20.186629 138.779889 0.331061
v    19.036667 139.228319 0.771522
v    21.149962 139.551570 0.771522
v    19.813371 141.220111 0.771522
v    19.870344 138.470010 0.161104
v    18.305976 137.433643 1.939150
v    17.901268 137.157939 2.246675
v    16.466160 136.223804 3.320030
v    15.670754 135.691857 3.561480
v    14.113138 134.708066 4.025136
v    13.396403 134.366575 4.220879
v    12.329790 133.855753 3.976419
v    18.478598 140.207405 0.161104
v    17.125779 138.906949 1.939150
v    16.768391 138.572173 2.246675
v    15.543551 137.375549 3.320030
v    14.850824 136.715422 3.561480
v    13.550787 135.410080 4.025136
v    13.061095 134.785159 4.220879
v    12.329790 133.855753 3.976419
v    19.163268 139.674900 0.771522
v    20.699911 139.437919 0.771522
v    20.136821 140.887181 0.771522
v    20.836732 140.325100 1.364753
v    19.300089 140.562081 1.364753
v    19.863179 139.112819 1.364753
v    20.111338 141.542496 0.551421
v    22.139354 142.126325 2.551063
v    25.344690 143.014449 4.760425
v    27.722993 143.643541 5.379572
v    30.057149 143.972083 5.960731
v    30.319712 144.009578 5.905906
v    21.123549 138.937302 0.551421
v    23.013748 139.875840 2.551063
v    25.977878 141.384774 4.760425
v    28.157035 142.526419 5.379572
v    30.100710 143.859968 5.960731
v    30.319712 144.009578 5.905906
v    20.568330 140.134442 1.364753
v    19.599405 140.424967 1.364753
v    19.832265 139.440591 1.364753
v    19.431670 139.865558 1.621000
v    20.400595 139.575033 1.621000
v    20.167735 140.559409 1.621000
v    19.866853 138.648042 -0.528478
v    19.195970 138.640673 1.109268
v    18.148434 138.696849 3.627509
v    17.833701 138.685700 4.100327
v    15.830650 139.013716 6.968870
v    19.275234 141.149013 -0.528478
v    18.672153 140.855020 1.109268
v    17.760811 140.335459 3.627509
v    17.474441 140.204414 4.100327
v    15.830650 139.013716 6.968870
mtllib usm_15_2.5D_2018-07-25_3.mtl
usemtl APPID_1699830912_2630217917696 
o vid_3 
f 3 2 1
f 4 5 6
f 1 6 5
f 1 5 3
f 3 5 4
f 4 2 3
f 2 4 6
f 6 1 2
usemtl APPID_1699829008_2630217917568 
o vid_4 
f 7 14 15
f 8 15 16
f 9 16 17
f 10 17 18
f 11 18 19
f 7 15 8
f 8 16 9
f 9 17 10
f 10 18 11
f 11 19 12
f 12 19 20
usemtl APPID_1699830912_2630217917696 
o vid_5 
f 23 22 21
f 24 25 26
f 21 26 25
f 21 25 23
f 23 25 24
f 24 22 23
f 22 24 26
f 26 21 22
usemtl APPID_1699829008_2630217917568 
o vid_6 
f 27 35 36
f 28 36 37
f 29 37 38
f 30 38 39
f 31 39 40
f 32 40 41
f 27 36 28
f 28 37 29
f 29 38 30
f 30 39 31
f 31 40 32
f 32 41 33
f 33 41 42
usemtl APPID_1699830912_2630217917696 
o vid_7 
f 45 44 43
f 46 47 48
f 43 48 47
f 43 47 45
f 45 47 46
f 46 44 45
f 44 46 48
f 48 43 44
usemtl APPID_1699829008_2630217917568 
o vid_8 
f 49 55 56
f 50 56 57
f 51 57 58
f 52 58 59
f 49 56 50
f 50 57 51
f 51 58 52
f 52 59 53
f 53 59 60
usemtl APPID_1699830912_2630217917696 
o vid_9 
f 63 62 61
f 64 65 66
f 61 66 65
f 61 65 63
f 63 65 64
f 64 62 63
f 62 64 66
f 66 61 62
usemtl APPID_1699829008_2630217917568 
o vid_10 
f 67 72 73
f 68 73 74
f 69 74 75
f 67 73 68
f 68 74 69
f 69 75 70
f 70 75 76
