# File generated by PlantGL - Fri Sep  4 14:43:51 2026
v    18.004624 339.027987 0.000000
v    21.839476 338.757960 0.000000
v    20.155900 342.214053 0.000000
v    21.995376 340.972013 0.848509
v    18.160524 341.242040 0.848509
v    19.844100 337.785947 0.848509
v    21.822012 341.305582 0.712486
v    22.229446 341.460920 1.117677
v    22.522074 341.575989 1.329598
v    22.798925 341.680240 1.528727
v    23.928177 342.121054 1.917291
v    24.516356 342.327538 1.931902
v    24.847717 342.396635 1.928141
v    24.972066 342.422056 1.905659
v    22.151167 340.629883 0.712486
v    22.524634 340.854948 1.117677
v    22.795625 341.014436 1.329598
v    23.048371 341.168170 1.528727
v    24.091573 341.785629 1.917291
v    24.616730 342.121488 1.931902
v    24.875397 342.339813 1.928141
v    24.972066 342.422056 1.905659
v    21.374817 341.101301 0.848509
v    18.358837 340.639975 0.848509
v    20.266347 338.258723 0.848509
v    18.625183 338.898699 1.417165
v    21.641163 339.360025 1.417165
v    19.733653 341.741277 1.417165
v    18.978930 338.479615 1.221241
v    18.455771 338.132106 1.804865
v    18.007979 337.827895 2.169717
v    17.726044 337.642286 2.396928
v    16.201262 336.611946 2.986792
v    15.430217 336.127866 2.976427
v    15.086465 335.971186 2.972230
v    14.821284 335.851573 2.920698
v    18.293412 339.335386 1.221241
v    17.840096 338.900687 1.804865
v    17.445485 338.530087 2.169717
v    17.202816 338.295460 2.396928
v    15.864519 337.032322 2.986792
v    15.223822 336.385521 2.976427
v    14.995892 336.084253 2.972230
v    14.821284 335.851573 2.920698
v    18.758136 339.517491 1.417165
v    21.038796 339.165769 1.417165
v    20.203067 341.316740 1.417165
v    21.241864 340.482509 2.253766
v    18.961204 340.834231 2.253766
v    19.796933 338.683260 2.253766
v    20.967747 341.133183 1.977387
v    21.736754 341.355589 2.721273
v    23.012675 341.717828 3.635862
v    24.562983 342.179535 4.154356
v    25.514799 342.422331 4.467951
v    26.691563 342.599912 4.454643
v    21.478957 339.817449 1.977387
v    22.196395 340.172580 2.721273
v    23.382183 340.766803 3.635862
v    24.837535 341.472903 4.154356
v    25.703594 341.936416 4.467951
v    26.691563 342.599912 4.454643
v    20.906839 340.214518 2.253766
v    19.360803 340.678086 2.253766
v    19.732359 339.107396 2.253766
v    19.093161 339.785482 3.118815
v    20.639197 339.321914 3.118815
v    20.267641 340.892604 3.118815
v    19.311565 338.981402 2.736988
v    18.095453 338.826347 3.874385
v    16.397850 338.588641 5.028228
v    14.481636 338.364036 5.644542
v    13.229190 338.398326 6.033962
v    18.928157 340.602195 2.736988
v    17.771466 340.195948 3.874385
v    16.147284 339.647867 5.028228
v    14.333531 338.990127 5.644542
v    13.229190 338.398326 6.033962
v    19.630929 339.578549 3.118815
v    20.549522 339.891100 3.118815
v    19.819549 340.530350 3.118815
v    20.369071 340.421451 3.456000
v    19.450478 340.108900 3.456000
v    20.180451 339.469650 3.456000
v    19.980486 341.148135 2.538361
v    20.061084 341.145231 3.344804
v    20.247090 341.103610 4.789817
v    20.458135 341.183815 5.684352
v    21.032239 341.178738 7.364170
v    21.140673 340.132141 2.538361
v    21.127160 340.211652 3.344804
v    21.061361 340.390540 4.789817
v    21.113019 340.610323 5.684352
v    21.032239 341.178738 7.364170
mtllib usm_10_2.5D_2018-07-14_8.mtl
usemtl APPID_3007471344_1759648321888 
o vid_3 
f 3 2 1
f 4 5 6
f 1 6 5
f 1 5 3
f 3 5 4
f 4 2 3
f 2 4 6
f 6 1 2
usemtl APPID_3007472576_1759648329440 
o vid_4 
f 7 15 16
f 8 16 17
f 9 17 18
f 10 18 19
f 11 19 20
f 12 20 21
f 7 16 8
f 8 17 9
f 9 18 10
f 10 19 11
f 11 20 12
f 12 21 13
f 13 21 22
usemtl APPID_3007471344_1759648321888 
o vid_5 
f 25 24 23
f 26 27 28
f 23 28 27
f 23 27 25
f 25 27 26
f 26 24 25
f 24 26 28
f 28 23 24
usemtl APPID_3007472576_1759648329440 
o vid_6 
f 29 37 38
f 30 38 39
f 31 39 40
f 32 40 41
f 33 41 42
f 34 42 43
f 29 38 30
f 30 39 31
f 31 40 32
f 32 41 33
f 33 42 34
f 34 43 35
f 35 43 44
usemtl APPID_3007471344_1759648321888 
o vid_7 
f 47 46 45
f 48 49 50
f 45 50 49
f 45 49 47
f 47 49 48
f 48 46 47
f 46 48 50
f 50 45 46
usemtl APPID_3007472576_1759648329440 
o vid_8 
f 51 57 58
f 52 58 59
f 53 59 60
f 54 60 61
f 51 58 52
f 52 59 53
f 53 60 54
f 54 61 55
f 55 61 62
usemtl APPID_3007471344_1759648321888 
o vid_9 
f 65 64 63
f 66 67 68
f 63 68 67
f 63 67 65
f 65 67 66
f 66 64 65
f 64 66 68
f 68 63 64
usemtl APPID_3007472576_1759648329440 
o vid_10 
f 69 74 75
f 70 75 76
f 71 76 77
f 69 75 70
f 70 76 71
f 71 77 72
f 72 77 78
usemtl APPID_3007471344_1759648321888 
o vid_11 
f 81 80 79
f 82 83 84
f 79 84 83
f 79 83 81
f 81 83 82
f 82 80 81
f 80 82 84
f 84 79 80
usemtl APPID_3007472576_1759648329440 
o vid_12 
f 85 90 91
f 86 91 92
f 87 92 93
f 85 91 86
f 86 92 87
f 87 93 88
f 88 93 94
