# File generated by PlantGL - Fri Sep  4 14:43:23 2026
v    19.330002 19.673622 0.000000
v    20.617651 19.582954 0.000000
v    20.052347 20.743424 0.000000
v    20.669998 20.326378 0.241000
v    19.382349 20.417046 0.241000
v    19.947653 19.256576 0.241000
v    19.575314 20.130110 -5.827968
v    20.379502 20.184868 -4.727231
v    19.840663 19.585393 -5.827968
v    20.379502 20.184868 -4.727231
mtllib usm_13_2.5D_2018-07-10_0.mtl
usemtl APPID_96702800_1597823746272 
o vid_3 
f 3 2 1
f 4 5 6
f 1 6 5
f 1 5 3
f 3 5 4
f 4 2 3
f 2 4 6
f 6 1 2
usemtl APPID_96703696_1597823745120 
o vid_4 
f 7 9 10
f 7 10 8
f 7 9 10
