# File generated by PlantGL - Fri Sep  4 14:42:43 2026
v    18.503699 59.271103 0.000000
v    21.379394 59.068614 0.000000
v    20.116907 61.660283 0.000000
v    21.496301 60.728897 0.231332
v    18.620606 60.931386 0.231332
v    19.883093 58.339717 0.231332
v    20.723170 60.727503 -2.173690
v    21.835624 60.894192 -1.152738
v    21.018626 60.120982 -2.173690
v    21.835624 60.894192 -1.152738
v    21.016319 60.814125 0.231332
v    18.786787 60.473095 0.231332
v    20.196894 58.712780 0.231332
v    18.983681 59.185875 0.322458
v    21.213213 59.526905 0.322458
v    19.803106 61.287220 0.322458
v    19.797802 59.282269 -2.082564
v    18.449697 58.758124 -0.769777
v    19.255441 59.959329 -2.082564
v    18.449697 58.758124 -0.769777
v    19.102402 59.651251 0.322458
v    20.750824 59.397032 0.322458
v    20.146773 60.951717 0.322458
v    20.897598 60.348749 0.466406
v    19.249176 60.602968 0.466406
v    19.853227 59.048283 0.466406
v    20.030836 60.658727 -1.938616
v    22.036726 60.791341 -0.114065
v    20.467487 59.534890 -1.938616
v    22.036726 60.791341 -0.114065
v    20.629353 60.148877 0.466406
v    19.556392 60.470597 0.466406
v    19.814255 59.380526 0.466406
v    19.370647 59.851123 0.563000
v    20.443608 59.529403 0.563000
v    20.185745 60.619474 0.563000
v    20.197651 59.625273 -4.344982
v    19.184837 59.807169 -2.811059
v    20.008810 60.423567 -4.344982
v    19.184837 59.807169 -2.811059
mtllib usm_24_2.5D_2018-07-16_1.mtl
usemtl APPID_2736916800_2060026027760 
o vid_3 
f 3 2 1
f 4 5 6
f 1 6 5
f 1 5 3
f 3 5 4
f 4 2 3
f 2 4 6
f 6 1 2
usemtl APPID_2736916912_2060026026608 
o vid_4 
f 7 9 10
f 7 10 8
f 7 9 10
usemtl APPID_2736916800_2060026027760 
o vid_5 
f 13 12 11
f 14 15 16
f 11 16 15
f 11 15 13
f 13 15 14
f 14 12 13
f 12 14 16
f 16 11 12
usemtl APPID_2736916912_2060026026608 
o vid_6 
f 17 19 20
f 17 20 18
f 17 19 20
usemtl APPID_2736916800_2060026027760 
o vid_7 
f 23 22 21
f 24 25 26
f 21 26 25
f 21 25 23
f 23 25 24
f 24 22 23
f 22 24 26
f 26 21 22
usemtl APPID_2736916912_2060026026608 
o vid_8 
f 27 29 30
f 27 30 28
f 27 29 30
usemtl APPID_2736916800_2060026027760 
o vid_9 
f 33 32 31
f 34 35 36
f 31 36 35
f 31 35 33
f 33 35 34
f 34 32 33
f 32 34 36
f 36 31 32
usemtl APPID_2736916912_2060026026608 
o vid_10 
f 37 39 40
f 37 40 38
f 37 39 40
