# File generated by PlantGL - Fri Sep  4 14:43:41 2026
v    297.861404 18.958220 0.000000
v    301.971506 18.668812 0.000000
v    300.167090 22.372969 0.000000
v    302.138596 21.041780 0.848509
v    298.028494 21.331188 0.848509
v    299.832910 17.627031 0.848509
v    301.965178 21.375440 0.712378
v    302.372935 21.530901 1.117890
v    302.663520 21.645167 1.328332
v    302.942880 21.750362 1.529266
v    304.070409 22.190505 1.917236
v    304.658927 22.397090 1.932793
v    304.993520 22.466861 1.928995
v    305.115041 22.491704 1.907024
v    302.294426 20.699552 0.712378
v    302.668189 20.924795 1.117890
v    302.937288 21.083170 1.328332
v    303.192324 21.238297 1.529266
v    304.233935 21.854814 1.917236
v    304.759380 22.190877 1.932793
v    305.020570 22.411330 1.928995
v    305.115041 22.491704 1.907024
v    301.494571 21.197231 0.848509
v    298.215882 20.695721 0.848509
v    300.289547 18.107048 0.848509
v    298.505429 18.802769 1.417165
v    301.784118 19.304279 1.417165
v    299.710453 21.892952 1.417165
v    298.859256 18.383601 1.221103
v    298.335728 18.035847 1.805138
v    297.890468 17.733357 2.167927
v    297.605455 17.545721 2.397618
v    296.079600 16.514657 2.987897
v    295.311446 16.032575 2.977572
v    294.963564 15.874013 2.973325
v    294.702032 15.756045 2.922502
v    298.173593 19.239552 1.221103
v    297.719958 18.804547 1.805138
v    297.327579 18.436043 2.167927
v    297.082260 18.198856 2.397618
v    295.743021 16.934828 2.987897
v    295.104906 16.290411 2.977572
v    294.874237 15.985524 2.973325
v    294.702032 15.756045 2.922502
v    298.620584 19.464047 1.417165
v    301.153857 19.073367 1.417165
v    300.225560 21.462586 1.417165
v    301.379416 20.535953 2.253766
v    298.846143 20.926633 2.253766
v    299.774440 18.537414 2.253766
v    301.105233 21.186766 1.977215
v    301.871637 21.408420 2.718583
v    303.151452 21.771725 3.636722
v    304.698724 22.232528 4.154201
v    305.655192 22.476511 4.469328
v    306.828433 22.653091 4.456062
v    301.616554 19.870745 1.977215
v    302.331564 20.224675 2.718583
v    303.520944 20.820740 3.636722
v    304.973447 21.525457 4.154201
v    305.843739 21.991235 4.469328
v    306.828433 22.653091 4.456062
v    301.044734 20.247138 2.253766
v    299.263605 20.781197 2.253766
v    299.691661 18.971665 2.253766
v    298.955266 19.752862 3.589841
v    300.736395 19.218803 3.589841
v    300.308339 21.028335 3.589841
v    299.195643 18.855958 3.207807
v    298.628347 18.774143 3.740421
v    297.981046 18.691613 4.345823
v    296.282518 18.453777 5.500294
v    294.758089 18.221583 5.994560
v    293.091799 18.035081 6.529839
v    292.703798 18.045704 6.650479
v    291.797672 18.059692 6.640411
v    298.768318 20.662405 3.207807
v    298.224491 20.481377 3.740421
v    297.608818 20.265144 4.345823
v    295.983751 19.716764 5.500294
v    294.516859 19.241344 5.994560
v    292.943613 18.661514 6.529839
v    292.601494 18.478177 6.650479
v    291.797672 18.059692 6.640411
v    299.541442 19.476362 3.589841
v    300.682763 19.864696 3.589841
v    299.775795 20.658942 3.589841
v    300.458558 20.523638 4.413000
v    299.317237 20.135304 4.413000
v    300.224205 19.341058 4.413000
v    299.842852 21.263656 3.413332
v    300.521121 21.773001 5.512167
v    300.861993 22.060315 6.259465
v    301.672016 22.648234 7.914317
v    301.923894 22.857910 8.218662
v    303.077916 23.514743 9.398150
v    301.273343 20.010952 3.413332
v    301.688745 20.750495 5.512167
v    301.928572 21.126295 6.259465
v    302.404477 22.006807 7.914317
v    302.579087 22.284147 8.218662
v    303.077916 23.514743 9.398150
mtllib usm_28_2.5D_2018-07-15_7.mtl
usemtl APPID_3780793648_1876378632688 
o vid_3 
f 3 2 1
f 4 5 6
f 1 6 5
f 1 5 3
f 3 5 4
f 4 2 3
f 2 4 6
f 6 1 2
usemtl APPID_3780790848_1876378635120 
o vid_4 
f 7 15 16
f 8 16 17
f 9 17 18
f 10 18 19
f 11 19 20
f 12 20 21
f 7 16 8
f 8 17 9
f 9 18 10
f 10 19 11
f 11 20 12
f 12 21 13
f 13 21 22
usemtl APPID_3780793648_1876378632688 
o vid_5 
f 25 24 23
f 26 27 28
f 23 28 27
f 23 27 25
f 25 27 26
f 26 24 25
f 24 26 28
f 28 23 24
usemtl APPID_3780790848_1876378635120 
o vid_6 
f 29 37 38
f 30 38 39
f 31 39 40
f 32 40 41
f 33 41 42
f 34 42 43
f 29 38 30
f 30 39 31
f 31 40 32
f 32 41 33
f 33 42 34
f 34 43 35
f 35 43 44
usemtl APPID_3780793648_1876378632688 
o vid_7 
f 47 46 45
f 48 49 50
f 45 50 49
f 45 49 47
f 47 49 48
f 48 46 47
f 46 48 50
f 50 45 46
usemtl APPID_3780790848_1876378635120 
o vid_8 
f 51 57 58
f 52 58 59
f 53 59 60
f 54 60 61
f 51 58 52
f 52 59 53
f 53 60 54
f 54 61 55
f 55 61 62
usemtl APPID_3780793648_1876378632688 
o vid_9 
f 65 64 63
f 66 67 68
f 63 68 67
f 63 67 65
f 65 67 66
f 66 64 65
f 64 66 68
f 68 63 64
usemtl APPID_3780790848_1876378635120 
o vid_10 
f 69 77 78
f 70 78 79
f 71 79 80
f 72 80 81
f 73 81 82
f 74 82 83
f 69 78 70
f 70 79 71
f 71 80 72
f 72 81 73
f 73 82 74
f 74 83 75
f 75 83 84
usemtl APPID_3780793648_1876378632688 
o vid_11 
f 87 86 85
f 88 89 90
f 85 90 89
f 85 89 87
f 87 89 88
f 88 86 87
f 86 88 90
f 90 85 86
usemtl APPID_3780790848_1876378635120 
o vid_12 
f 91 97 98
f 92 98 99
f 93 99 100
f 94 100 101
f 91 98 92
f 92 99 93
f 93 100 94
f 94 101 95
f 95 101 102
