# File generated by PlantGL - Fri Sep  4 14:42:52 2026
v    17.752484 178.905161 0.000000
v    22.071916 178.601013 0.000000
v    20.175600 182.493825 0.000000
v    22.247516 181.094839 0.362700
v    17.928084 181.398987 0.362700
v    19.824400 177.506175 0.362700
v    22.068658 181.436554 0.207595
v    22.377572 181.554330 0.514809
v    22.534449 181.611210 0.669625
v    23.186103 181.856595 1.138336
v    23.887952 182.130568 1.379835
v    24.531404 182.352749 1.597156
v    25.051974 182.460982 1.599690
v    22.406335 180.743361 0.207595
v    22.689496 180.914005 0.514809
v    22.830987 181.002470 0.669625
v    23.425902 181.364330 1.138336
v    24.074269 181.748091 1.379835
v    24.645858 182.117796 1.597156
v    25.051974 182.460982 1.599690
v    21.750425 181.402184 0.362700
v    17.910461 180.814821 0.362700
v    20.339114 177.782996 0.362700
v    18.249575 178.597816 0.589630
v    22.089539 179.185179 0.589630
v    19.660886 182.217004 0.589630
v    18.609458 178.174658 0.362511
v    18.293088 177.964509 0.715445
v    17.999406 177.776304 1.039061
v    17.147769 177.215636 1.725393
v    16.346093 176.673920 2.035523
v    15.498686 176.149040 2.353746
v    14.795363 175.830808 2.402581
v    17.915167 179.041381 0.362511
v    17.641034 178.778506 0.715445
v    17.393267 178.532981 1.039061
v    16.660238 177.824248 1.725393
v    15.956609 177.160134 2.035523
v    15.259429 176.447718 2.353746
v    14.795363 175.830808 2.402581
v    18.326705 179.349865 0.589630
v    21.399681 178.875951 0.589630
v    20.273614 181.774184 0.589630
v    21.673295 180.650135 1.053978
v    18.600319 181.124049 1.053978
v    19.726386 178.225816 1.053978
v    21.372446 181.360070 0.729491
v    21.649541 181.440209 0.997534
v    22.376175 181.637494 1.696084
v    23.777224 182.036459 2.676652
v    24.785107 182.336623 3.013735
v    26.165046 182.688629 3.468383
v    26.757238 182.754589 3.653581
v    27.244542 182.814764 3.648125
v    21.930677 179.923312 0.729491
v    22.189191 180.051276 0.997534
v    22.858412 180.396331 1.696084
v    24.161299 181.047941 2.676652
v    25.107449 181.506989 3.013735
v    26.363059 182.178989 3.468383
v    26.844441 182.530150 3.653581
v    27.244542 182.814764 3.648125
v    21.339345 180.316830 1.053978
v    19.055945 181.001492 1.053978
v    19.604710 178.681678 1.053978
v    18.660655 179.683170 1.829186
v    20.944055 178.998508 1.829186
v    20.395290 181.318322 1.829186
v    18.938955 178.647894 1.376856
v    18.572161 178.594995 1.721226
v    17.499699 178.458256 2.724271
v    15.488636 178.176658 4.091169
v    14.079920 177.962089 4.547917
v    12.107028 177.741270 5.181689
v    11.234467 177.765160 5.452991
v    10.594358 177.775041 5.445878
v    18.445614 180.733411 1.376856
v    18.093994 180.616365 1.721226
v    17.073934 180.258105 2.724271
v    15.149849 179.608822 4.091169
v    13.794303 179.169489 4.547917
v    11.931575 178.482969 5.181689
v    11.162197 178.070669 5.452991
v    10.594358 177.775041 5.445878
v    19.350254 179.258040 1.829186
v    20.967430 179.808283 1.829186
v    19.682317 180.933677 1.829186
v    20.649746 180.741960 2.679943
v    19.032570 180.191717 2.679943
v    20.317683 179.066323 2.679943
v    19.601078 181.601534 2.064727
v    21.051647 182.942326 3.897352
v    23.056651 184.841870 5.756475
v    23.468982 185.242037 5.940649
v    25.479694 187.044132 6.802645
v    27.155017 188.170478 7.430095
v    21.640166 179.815871 2.064727
v    22.777849 181.430664 3.897352
v    24.396247 183.668765 5.756475
v    24.738513 184.130289 5.940649
v    26.259560 186.361191 6.802645
v    27.155017 188.170478 7.430095
v    20.526751 180.336316 2.679943
v    19.445367 180.288022 2.679943
v    20.027882 179.375662 2.679943
v    19.473249 179.663684 3.137000
v    20.554633 179.711978 3.137000
v    19.972118 180.624338 3.137000
v    19.817824 178.543250 1.591056
v    18.775075 178.360477 5.019581
v    18.649390 178.321606 5.293340
v    17.315460 178.285998 7.761055
v    18.601851 180.447757 1.591056
v    17.997247 179.578743 5.019581
v    17.909096 179.481085 5.293340
v    17.315460 178.285998 7.761055
mtllib usm_21_2.5D_2018-08-04_4.mtl
usemtl APPID_4263961264_2499637615616 
o vid_3 
f 3 2 1
f 4 5 6
f 1 6 5
f 1 5 3
f 3 5 4
f 4 2 3
f 2 4 6
f 6 1 2
usemtl APPID_4263960368_2499637614592 
o vid_4 
f 7 14 15
f 8 15 16
f 9 16 17
f 10 17 18
f 11 18 19
f 7 15 8
f 8 16 9
f 9 17 10
f 10 18 11
f 11 19 12
f 12 19 20
usemtl APPID_4263961264_2499637615616 
o vid_5 
f 23 22 21
f 24 25 26
f 21 26 25
f 21 25 23
f 23 25 24
f 24 22 23
f 22 24 26
f 26 21 22
usemtl APPID_4263960368_2499637614592 
o vid_6 
f 27 34 35
f 28 35 36
f 29 36 37
f 30 37 38
f 31 38 39
f 27 35 28
f 28 36 29
f 29 37 30
f 30 38 31
f 31 39 32
f 32 39 40
usemtl APPID_4263961264_2499637615616 
o vid_7 
f 43 42 41
f 44 45 46
f 41 46 45
f 41 45 43
f 43 45 44
f 44 42 43
f 42 44 46
f 46 41 42
usemtl APPID_4263960368_2499637614592 
o vid_8 
f 47 55 56
f 48 56 57
f 49 57 58
f 50 58 59
f 51 59 60
f 52 60 61
f 47 56 48
f 48 57 49
f 49 58 50
f 50 59 51
f 51 60 52
f 52 61 53
f 53 61 62
usemtl APPID_4263961264_2499637615616 
o vid_9 
f 65 64 63
f 66 67 68
f 63 68 67
f 63 67 65
f 65 67 66
f 66 64 65
f 64 66 68
f 68 63 64
usemtl APPID_4263960368_2499637614592 
o vid_10 
f 69 77 78
f 70 78 79
f 71 79 80
f 72 80 81
f 73 81 82
f 74 82 83
f 69 78 70
f 70 79 71
f 71 80 72
f 72 81 73
f 73 82 74
f 74 83 75
f 75 83 84
usemtl APPID_4263961264_2499637615616 
o vid_11 
f 87 86 85
f 88 89 90
f 85 90 89
f 85 89 87
f 87 89 88
f 88 86 87
f 86 88 90
f 90 85 86
usemtl APPID_4263960368_2499637614592 
o vid_12 
f 91 97 98
f 92 98 99
f 93 99 100
f 94 100 101
f 91 98 92
f 92 99 93
f 93 100 94
f 94 101 95
f 95 101 102
usemtl APPID_4263961264_2499637615616 
o vid_13 
f 105 104 103
f 106 107 108
f 103 108 107
f 103 107 105
f 105 107 106
f 106 104 105
f 104 106 108
f 108 103 104
usemtl APPID_4263960368_2499637614592 
o vid_14 
f 109 113 114
f 110 114 115
f 109 114 110
f 110 115 111
f 111 115 116
