# File generated by PlantGL - Fri Sep  4 14:43:37 2026
v    17.752484 298.905161 0.000000
v    22.071916 298.601013 0.000000
v    20.175600 302.493825 0.000000
v    22.247516 301.094839 0.362700
v    17.928084 301.398987 0.362700
v    19.824400 297.506175 0.362700
v    22.063684 301.445628 0.200676
v    22.314275 301.541168 0.449887
v    22.340563 301.550699 0.475829
v    22.410414 300.733852 0.200676
v    22.640113 300.872277 0.449887
v    22.663823 300.887101 0.475829
v    21.879284 301.505407 0.362700
v    17.756638 300.874804 0.362700
v    20.364078 297.619789 0.362700
v    18.120716 298.494593 0.589630
v    22.243362 299.125196 0.589630
v    19.635922 302.380211 0.589630
v    18.480901 298.071205 0.361238
v    18.188457 297.876949 0.687481
v    17.867111 297.671016 1.041580
v    17.236427 297.255810 1.549846
v    17.786149 298.938503 0.361238
v    17.532747 298.695508 0.687481
v    17.261642 298.426856 1.041580
v    16.718795 297.902001 1.549846
v    17.841416 299.161313 0.589630
v    21.805616 298.549955 0.589630
v    20.352968 302.288732 0.589630
v    22.158584 300.838687 1.053978
v    18.194384 301.450045 1.053978
v    19.647032 297.711268 1.053978
v    21.860394 301.543520 0.738286
v    22.293845 301.668879 1.157577
v    22.835898 301.816050 1.678680
v    24.198972 302.204201 2.632670
v    25.151261 302.487808 2.951159
v    22.414484 300.117423 0.738286
v    22.818868 300.317593 1.157577
v    23.318092 300.574996 1.678680
v    24.585665 301.208945 2.632670
v    25.479626 301.642673 2.951159
v    22.163962 300.511898 1.053978
v    18.474702 301.618097 1.053978
v    19.361335 297.870005 1.053978
v    17.836038 299.488102 1.829186
v    21.525298 298.381903 1.829186
v    20.638665 302.129995 1.829186
v    18.108475 298.469984 1.401302
v    17.317866 298.355963 2.143576
v    16.748706 298.283395 2.675896
v    14.846331 298.017016 3.968919
v    12.937222 297.726230 4.587910
v    11.983176 297.619447 4.894388
v    17.623442 300.520376 1.401302
v    16.865542 300.268088 2.143576
v    16.324192 300.077958 2.675896
v    14.504094 299.463765 3.968919
v    12.667041 298.868375 4.587910
v    11.766268 298.536390 4.894388
v    18.595695 298.396392 1.829186
v    22.090917 299.585640 1.829186
v    19.313387 302.017967 1.829186
v    21.404305 301.603608 2.769464
v    17.909083 300.414360 2.769464
v    20.686613 297.982033 2.769464
v    20.309560 302.507975 2.200784
v    21.233749 303.390792 3.388440
v    21.634534 303.761247 3.894786
v    23.487876 305.517106 5.613281
v    25.531769 307.500705 6.526219
v    27.218127 309.012098 7.249164
v    22.445207 300.637756 2.200784
v    23.198368 301.670343 3.388440
v    23.512705 302.116503 3.894786
v    25.008684 304.185311 5.613281
v    26.705271 306.473051 6.526219
v    27.980953 308.344080 7.249164
v    21.718982 301.097521 2.769464
v    18.190028 300.939922 2.769464
v    20.090990 297.962557 2.769464
v    18.281018 298.902479 5.235228
v    21.809972 299.060078 5.235228
v    19.909010 302.037443 5.235228
v    19.281571 297.434332 4.494106
v    18.541130 297.049628 5.269487
v    17.159683 296.360440 6.701785
v    14.200940 294.838607 8.941384
v    11.876493 293.607433 9.784505
v    8.943966 292.200236 10.822912
v    8.596959 292.089627 10.936112
v    17.370236 300.427943 4.494106
v    16.709666 299.918142 5.269487
v    15.503141 298.954983 6.701785
v    12.877540 296.911371 8.941384
v    10.782527 295.320846 9.784505
v    8.271949 293.252776 10.822912
v    8.025586 292.984535 10.936112
v    18.420020 298.861621 5.235228
v    21.775855 299.200887 5.235228
v    19.804125 301.937492 5.235228
v    21.579980 301.138379 9.070287
v    18.224145 300.799113 9.070287
v    20.195875 298.062508 9.070287
v    20.075076 303.110648 8.123196
v    22.686408 304.659319 10.944421
v    26.348549 306.818447 13.806437
v    31.862140 310.147647 15.870911
v    34.021122 311.337021 16.657827
v    35.571512 312.202764 16.637611
v    36.892448 312.725212 16.621829
v    22.974452 299.086545 8.123196
v    25.270098 301.073363 10.944421
v    28.477441 303.863713 13.806437
v    33.380761 308.039922 15.870911
v    35.192395 309.711387 16.657827
v    36.504393 310.908000 16.637611
v    37.418115 311.995629 16.621829
v    21.554633 301.012481 9.070287
v    18.345849 300.840111 9.070287
v    20.099518 298.147408 9.070287
v    18.445367 298.987519 15.537192
v    21.654151 299.159889 15.537192
v    19.900482 301.852592 15.537192
v    20.305707 296.287289 14.350404
v    16.945757 294.502846 17.885648
v    14.546411 293.196378 19.726906
v    12.251763 291.989777 21.472006
v    2.961937 286.961271 24.857946
v    -1.907163 284.539386 24.989810
v    -4.525701 283.643805 24.959061
v    16.727947 301.780829 14.350404
v    13.737297 299.429337 17.885648
v    11.572223 297.763151 19.726906
v    9.540824 296.152341 21.472006
v    1.185403 289.689085 24.857946
v    -2.998478 286.215066 24.989810
v    -4.876382 284.182264 24.959061
v    18.458123 299.144816 15.537192
v    21.511550 299.092287 15.537192
v    20.030327 301.762897 15.537192
v    21.541877 300.855184 23.570456
v    18.488450 300.907713 23.570456
v    19.969673 298.237103 23.570456
v    19.556625 304.218507 22.112197
v    23.830037 306.113293 26.456107
v    25.452849 306.853136 27.658125
v    29.813057 308.764995 30.862823
v    39.989414 313.373894 34.443628
v    42.339061 314.327593 35.253180
v    46.088598 315.874629 35.207002
v    50.010786 316.912459 35.161924
v    23.343859 297.390213 22.112197
v    27.213972 300.012139 26.456107
v    28.700857 300.997055 27.658125
v    32.631410 303.683571 30.862823
v    41.929506 309.875954 34.443628
v    43.982662 311.364219 35.253180
v    47.280385 313.725865 35.207002
v    50.237559 316.503594 35.161924
v    21.559134 300.414739 23.570456
v    18.861258 301.142880 23.570456
v    19.579608 298.442381 23.570456
v    18.440866 299.585261 36.455601
v    21.138742 298.857120 36.455601
v    20.420392 301.557619 36.455601
v    19.779014 295.045878 34.698583
v    14.228746 294.087815 39.932444
v    11.778943 293.638635 41.611048
v    6.459662 292.742949 45.241979
v    -7.172269 290.278500 49.682296
v    -9.807517 289.909387 50.531802
v    -15.053058 289.143922 50.471451
v    -20.558791 289.076393 50.410274
v    17.346740 304.189555 34.698583
v    12.054013 302.263315 39.932444
v    9.704814 301.435930 41.611048
v    4.643538 299.570324 45.241979
v    -8.411182 294.935960 49.682296
v    -10.881534 293.946952 50.531802
v    -15.814115 292.004973 50.471451
v    -20.625727 289.328025 50.410274
v    18.819917 299.510135 36.455601
v    21.014276 299.222951 36.455601
v    20.165806 301.266914 36.455601
v    21.180083 300.489865 56.069611
v    18.985724 300.777049 56.069611
v    19.834194 298.733086 56.069611
v    18.799767 305.834973 53.993755
v    25.148252 307.829507 60.177383
v    31.092356 309.765192 64.390563
v    34.015559 310.670401 66.450418
v    52.570206 316.661709 72.700164
v    62.435378 319.508953 72.583233
v    65.762401 319.997306 72.545871
v    69.258110 320.496418 71.920364
v    23.284866 295.030380 53.993755
v    29.179552 298.118113 60.177383
v    34.747060 300.961018 64.390563
v    37.451969 302.392096 66.450418
v    54.794964 311.302273 72.700164
v    63.776393 316.278448 72.583233
v    66.471197 318.289817 72.545871
v    69.292715 320.413052 71.920364
v    20.749700 300.616870 56.069611
v    19.090925 300.340824 56.069611
v    20.159376 299.042306 56.069611
v    19.250300 299.383130 79.427500
v    20.909075 299.659176 79.427500
v    19.840624 300.957694 79.427500
v    23.557594 294.420333 77.022593
v    17.192482 290.070872 84.186409
v    13.419812 287.434885 87.288216
v    8.296023 283.964470 91.453803
v    -8.400103 272.360446 97.971072
v    -17.619457 266.422007 98.595157
v    -24.106196 263.361974 98.515468
v    -25.079632 262.907429 98.325162
v    15.209893 304.565526 77.022593
v    9.716062 299.157173 84.186409
v    6.402881 295.962757 87.288216
v    2.010694 291.603205 91.453803
v    -12.591439 277.454293 97.971072
v    -20.194171 269.551128 98.595157
v    -24.446132 263.775109 98.515468
v    -25.079632 262.907429 98.325162
v    19.521321 299.499169 79.427500
v    20.673072 299.835868 79.427500
v    19.805607 300.664964 79.427500
v    20.478679 300.500831 101.023440
v    19.326928 300.164132 101.023440
v    20.194393 299.335036 101.023440
v    15.470007 305.016407 98.291449
v    19.429747 308.482058 103.181306
v    22.101877 310.744389 106.429592
v    31.364311 318.784062 114.685402
v    40.735451 327.117912 118.705140
v    50.004370 334.724146 122.533007
v    57.915363 339.670008 122.820397
v    25.216071 295.701421 98.291449
v    28.499166 299.813789 103.181306
v    30.638382 302.585463 106.429592
v    38.251097 312.201886 114.685402
v    46.152773 321.940203 118.705140
v    53.332200 331.543509 122.533007
v    57.915363 339.670008 122.820397
v    20.310616 300.316572 101.023440
v    19.570533 300.110715 101.023440
v    20.118851 299.572713 101.023440
v    19.689384 299.683428 110.420000
v    20.429467 299.889285 110.420000
v    19.881149 300.427287 110.420000
v    22.791450 295.669891 104.464777
v    18.866826 292.885630 114.391537
v    17.987120 292.367060 116.458748
v    12.415478 288.609181 126.054274
v    9.656905 287.524736 129.997793
v    5.788031 285.515523 133.390441
v    15.617660 302.708714 104.464777
v    12.908433 298.731923 114.391537
v    12.406663 297.842528 116.458748
v    8.755271 292.200526 126.054274
v    7.723409 289.421856 129.997793
v    5.788031 285.515523 133.390441
v    22.340563 301.550699 0.475829
v    22.550813 301.626930 0.683318
v    23.231537 301.883262 1.172938
v    23.871169 302.132948 1.393028
v    24.543326 302.365041 1.620044
v    25.082587 302.475895 1.656078
v    22.663823 300.887101 0.475829
v    22.853452 301.005664 0.683318
v    23.474907 301.383667 1.172938
v    24.065798 301.733408 1.393028
v    24.662885 302.119606 1.620044
v    25.082587 302.475895 1.656078
v    17.236427 297.255810 1.549846
v    17.010700 297.107205 1.731759
v    16.237790 296.584927 2.030761
v    15.385634 296.057104 2.350767
v    15.183695 295.967957 2.419376
v    14.679941 295.738349 2.413225
v    16.718795 297.902001 1.549846
v    16.524505 297.714150 1.731759
v    15.846123 297.073866 2.030761
v    15.145035 296.357457 2.350767
v    15.013963 296.179844 2.419376
v    14.679941 295.738349 2.413225
v    25.151261 302.487808 2.951159
v    25.392243 302.559577 3.031755
v    26.734779 302.902041 3.474080
v    27.083446 302.940877 3.583119
v    27.795402 303.028793 3.575149
v    25.479626 301.642673 2.951159
v    25.705849 301.752430 3.031755
v    26.927425 302.406215 3.474080
v    27.210850 302.612969 3.583119
v    27.795402 303.028793 3.575149
v    11.983176 297.619447 4.894388
v    11.070955 297.517345 5.187430
v    10.846747 297.523484 5.257142
v    9.611545 297.542551 5.243417
v    11.766268 298.536390 4.894388
v    10.904984 298.218959 5.187430
v    10.707289 298.113017 5.257142
v    9.611545 297.542551 5.243417
v    27.218127 309.012098 7.249164
v    27.390388 309.166486 7.323012
v    28.998588 310.275693 7.303776
v    27.980953 308.344080 7.249164
v    28.111263 308.535204 7.323012
v    28.998588 310.275693 7.303776
v    8.596959 292.089627 10.936112
v    7.871810 291.858484 11.172669
v    6.573318 291.427447 11.157467
v    8.025586 292.984535 10.936112
v    7.510754 292.423985 11.172669
v    6.573318 291.427447 11.157467
v    36.892448 312.725212 16.621829
v    38.597626 313.399633 16.601455
v    37.418115 311.995629 16.621829
v    38.597626 313.399633 16.601455
v    -4.525701 283.643805 24.959061
v    -4.714981 283.579068 24.956839
v    -5.750884 283.229307 24.763162
v    -4.876382 284.182264 24.959061
v    -5.012125 284.035323 24.956839
v    -5.750884 283.229307 24.763162
v    50.010786 316.912459 35.161924
v    50.932475 317.156343 35.151331
v    50.237559 316.503594 35.161924
v    50.932475 317.156343 35.151331
v    -20.558791 289.076393 50.410274
v    -21.089721 289.069881 50.404375
v    -20.625727 289.328025 50.410274
v    -21.089721 289.069881 50.404375
v    69.258110 320.496418 71.920364
v    69.437542 320.522037 71.888257
v    69.292715 320.413052 71.920364
v    69.437542 320.522037 71.888257
mtllib usm_19_2.5D_2018-08-27_7.mtl
usemtl APPID_3534031728_1420965850240 
o vid_3 
f 3 2 1
f 4 5 6
f 1 6 5
f 1 5 3
f 3 5 4
f 4 2 3
f 2 4 6
f 6 1 2
usemtl APPID_3534028592_1420965850368 
o vid_4 
f 7 10 11
f 7 11 8
f 8 11 12
f 8 12 9
usemtl APPID_3534031728_1420965850240 
o vid_5 
f 15 14 13
f 16 17 18
f 13 18 17
f 13 17 15
f 15 17 16
f 16 14 15
f 14 16 18
f 18 13 14
usemtl APPID_3534028592_1420965850368 
o vid_6 
f 19 23 24
f 20 24 25
f 19 24 20
f 20 25 21
f 21 25 26
f 21 26 22
usemtl APPID_3534031728_1420965850240 
o vid_7 
f 29 28 27
f 30 31 32
f 27 32 31
f 27 31 29
f 29 31 30
f 30 28 29
f 28 30 32
f 32 27 28
usemtl APPID_3534028592_1420965850368 
o vid_8 
f 33 38 39
f 34 39 40
f 35 40 41
f 33 39 34
f 34 40 35
f 35 41 36
f 36 41 42
f 36 42 37
usemtl APPID_3534031728_1420965850240 
o vid_9 
f 45 44 43
f 46 47 48
f 43 48 47
f 43 47 45
f 45 47 46
f 46 44 45
f 44 46 48
f 48 43 44
usemtl APPID_3534028592_1420965850368 
o vid_10 
f 49 55 56
f 50 56 57
f 51 57 58
f 52 58 59
f 49 56 50
f 50 57 51
f 51 58 52
f 52 59 53
f 53 59 60
f 53 60 54
usemtl APPID_3534031728_1420965850240 
o vid_11 
f 63 62 61
f 64 65 66
f 61 66 65
f 61 65 63
f 63 65 64
f 64 62 63
f 62 64 66
f 66 61 62
usemtl APPID_3534028592_1420965850368 
o vid_12 
f 67 73 74
f 68 74 75
f 69 75 76
f 70 76 77
f 67 74 68
f 68 75 69
f 69 76 70
f 70 77 71
f 71 77 78
f 71 78 72
usemtl APPID_3534031728_1420965850240 
o vid_13 
f 81 80 79
f 82 83 84
f 79 84 83
f 79 83 81
f 81 83 82
f 82 80 81
f 80 82 84
f 84 79 80
usemtl APPID_3534028592_1420965850368 
o vid_14 
f 85 92 93
f 86 93 94
f 87 94 95
f 88 95 96
f 89 96 97
f 85 93 86
f 86 94 87
f 87 95 88
f 88 96 89
f 89 97 90
f 90 97 98
f 90 98 91
usemtl APPID_3534031728_1420965850240 
o vid_15 
f 101 100 99
f 102 103 104
f 99 104 103
f 99 103 101
f 101 103 102
f 102 100 101
f 100 102 104
f 104 99 100
usemtl APPID_3534028592_1420965850368 
o vid_16 
f 105 112 113
f 106 113 114
f 107 114 115
f 108 115 116
f 109 116 117
f 105 113 106
f 106 114 107
f 107 115 108
f 108 116 109
f 109 117 110
f 110 117 118
f 110 118 111
usemtl APPID_3534031728_1420965850240 
o vid_17 
f 121 120 119
f 122 123 124
f 119 124 123
f 119 123 121
f 121 123 122
f 122 120 121
f 120 122 124
f 124 119 120
usemtl APPID_3534028592_1420965850368 
o vid_18 
f 125 132 133
f 126 133 134
f 127 134 135
f 128 135 136
f 129 136 137
f 125 133 126
f 126 134 127
f 127 135 128
f 128 136 129
f 129 137 130
f 130 137 138
f 130 138 131
usemtl APPID_3534031728_1420965850240 
o vid_19 
f 141 140 139
f 142 143 144
f 139 144 143
f 139 143 141
f 141 143 142
f 142 140 141
f 140 142 144
f 144 139 140
usemtl APPID_3534028592_1420965850368 
o vid_20 
f 145 153 154
f 146 154 155
f 147 155 156
f 148 156 157
f 149 157 158
f 150 158 159
f 145 154 146
f 146 155 147
f 147 156 148
f 148 157 149
f 149 158 150
f 150 159 151
f 151 159 160
f 151 160 152
usemtl APPID_3534031728_1420965850240 
o vid_21 
f 163 162 161
f 164 165 166
f 161 166 165
f 161 165 163
f 163 165 164
f 164 162 163
f 162 164 166
f 166 161 162
usemtl APPID_3534028592_1420965850368 
o vid_22 
f 167 175 176
f 168 176 177
f 169 177 178
f 170 178 179
f 171 179 180
f 172 180 181
f 167 176 168
f 168 177 169
f 169 178 170
f 170 179 171
f 171 180 172
f 172 181 173
f 173 181 182
f 173 182 174
usemtl APPID_3534031728_1420965850240 
o vid_23 
f 185 184 183
f 186 187 188
f 183 188 187
f 183 187 185
f 185 187 186
f 186 184 185
f 184 186 188
f 188 183 184
usemtl APPID_3534028592_1420965850368 
o vid_24 
f 189 197 198
f 190 198 199
f 191 199 200
f 192 200 201
f 193 201 202
f 194 202 203
f 189 198 190
f 190 199 191
f 191 200 192
f 192 201 193
f 193 202 194
f 194 203 195
f 195 203 204
f 195 204 196
usemtl APPID_3534031728_1420965850240 
o vid_25 
f 207 206 205
f 208 209 210
f 205 210 209
f 205 209 207
f 207 209 208
f 208 206 207
f 206 208 210
f 210 205 206
usemtl APPID_3534028592_1420965850368 
o vid_26 
f 211 219 220
f 212 220 221
f 213 221 222
f 214 222 223
f 215 223 224
f 216 224 225
f 211 220 212
f 212 221 213
f 213 222 214
f 214 223 215
f 215 224 216
f 216 225 217
f 217 225 226
usemtl APPID_3534031728_1420965850240 
o vid_27 
f 229 228 227
f 230 231 232
f 227 232 231
f 227 231 229
f 229 231 230
f 230 228 229
f 228 230 232
f 232 227 228
usemtl APPID_3534028592_1420965850368 
o vid_28 
f 233 240 241
f 234 241 242
f 235 242 243
f 236 243 244
f 237 244 245
f 233 241 234
f 234 242 235
f 235 243 236
f 236 244 237
f 237 245 238
f 238 245 246
usemtl APPID_3534031728_1420965850240 
o vid_29 
f 249 248 247
f 250 251 252
f 247 252 251
f 247 251 249
f 249 251 250
f 250 248 249
f 248 250 252
f 252 247 248
usemtl APPID_3534028592_1420965850368 
o vid_30 
f 253 259 260
f 254 260 261
f 255 261 262
f 256 262 263
f 253 260 254
f 254 261 255
f 255 262 256
f 256 263 257
f 257 263 264
usemtl APPID_3534031392_1420965846144 
o vid_10000004 
f 265 271 272
f 266 272 273
f 267 273 274
f 268 274 275
f 265 272 266
f 266 273 267
f 267 274 268
f 268 275 269
f 269 275 276
usemtl APPID_3534031392_1420965846144 
o vid_10000006 
f 277 283 284
f 278 284 285
f 279 285 286
f 280 286 287
f 277 284 278
f 278 285 279
f 279 286 280
f 280 287 281
f 281 287 288
usemtl APPID_3534031392_1420965846144 
o vid_10000008 
f 289 294 295
f 290 295 296
f 291 296 297
f 289 295 290
f 290 296 291
f 291 297 292
f 292 297 298
usemtl APPID_3534031392_1420965846144 
o vid_10000010 
f 299 303 304
f 300 304 305
f 299 304 300
f 300 305 301
f 301 305 306
usemtl APPID_3534031392_1420965846144 
o vid_10000012 
f 307 310 311
f 307 311 308
f 308 311 312
usemtl APPID_3534031392_1420965846144 
o vid_10000014 
f 313 316 317
f 313 317 314
f 314 317 318
usemtl APPID_3534031392_1420965846144 
o vid_10000016 
f 319 321 322
f 319 322 320
f 319 321 322
usemtl APPID_3534031392_1420965846144 
o vid_10000018 
f 323 326 327
f 323 327 324
f 324 327 328
usemtl APPID_3534031392_1420965846144 
o vid_10000020 
f 329 331 332
f 329 332 330
f 329 331 332
usemtl APPID_3534031392_1420965846144 
o vid_10000022 
f 333 335 336
f 333 336 334
f 333 335 336
usemtl APPID_3534031392_1420965846144 
o vid_10000024 
f 337 339 340
f 337 340 338
f 337 339 340
