# File generated by PlantGL - Fri Sep  4 14:44:22 2026
v    17.752484 378.905161 0.000000
v    22.071916 378.601013 0.000000
v    20.175600 382.493825 0.000000
v    22.247516 381.094839 0.362700
v    17.928084 381.398987 0.362700
v    19.824400 377.506175 0.362700
v    22.063627 381.445718 0.200499
v    22.311063 381.540055 0.446573
v    22.339703 381.550439 0.474837
v    22.410449 380.733751 0.200499
v    22.637257 380.870434 0.446573
v    22.663088 380.886584 0.474837
v    21.879284 381.505407 0.362700
v    17.756638 380.874804 0.362700
v    20.364078 377.619789 0.362700
v    18.120716 378.494593 0.589630
v    22.243362 379.125196 0.589630
v    19.635922 382.380211 0.589630
v    18.481086 378.071011 0.360907
v    18.193263 377.879824 0.681996
v    18.155270 377.855476 0.723861
v    17.786000 378.938726 0.360907
v    17.536602 378.699570 0.681996
v    17.504549 378.667807 0.723861
v    17.841416 379.161313 0.589630
v    21.805616 378.549955 0.589630
v    20.352968 382.288732 0.589630
v    22.158584 380.838687 1.053978
v    18.194384 381.450045 1.053978
v    19.647032 377.711268 1.053978
v    21.860201 381.543905 0.737721
v    22.284276 381.666552 1.147942
v    22.357739 381.686498 1.218567
v    22.414601 380.117009 0.737721
v    22.810238 380.312849 1.147942
v    22.877897 380.347734 1.218567
v    22.163962 380.511898 1.053978
v    18.474702 381.618097 1.053978
v    19.361335 377.870005 1.053978
v    17.836038 379.488102 1.829186
v    21.525298 378.381903 1.829186
v    20.638665 382.129995 1.829186
v    18.108706 378.469288 1.400401
v    17.337098 378.358008 2.124835
v    17.623337 380.521102 1.400401
v    16.883651 380.274877 2.124835
v    18.595695 378.396392 1.829186
v    22.090917 379.585640 1.829186
v    19.313387 382.017967 1.829186
v    21.404305 381.603608 2.769464
v    17.909083 380.414360 2.769464
v    20.686613 377.982033 2.769464
v    20.308624 382.508664 2.199416
v    21.071535 383.237423 3.179818
v    22.446013 380.636919 2.199416
v    23.067742 381.489313 3.179818
v    21.718982 381.097521 2.769464
v    18.190028 380.939922 2.769464
v    20.090990 377.962557 2.769464
v    18.281018 378.902479 5.235228
v    21.809972 379.060078 5.235228
v    19.909010 382.037443 5.235228
v    19.282446 377.433227 4.492119
v    18.573540 377.064907 5.234477
v    18.088177 376.822765 5.737706
v    17.369602 380.429202 4.492119
v    16.737165 379.941112 5.234477
v    16.313260 379.602713 5.737706
v    18.420020 378.861621 5.235228
v    21.775855 379.200887 5.235228
v    19.804125 381.937492 5.235228
v    21.579980 381.138379 9.070287
v    18.224145 380.799113 9.070287
v    20.195875 378.062508 9.070287
v    20.073406 383.112623 8.120413
v    21.489079 383.952199 9.649875
v    22.975797 379.084335 8.120413
v    24.220329 380.161442 9.649875
v    21.554633 381.012481 9.070287
v    18.345849 380.840111 9.070287
v    20.099518 378.147408 9.070287
v    18.445367 378.987519 15.537192
v    21.654151 379.159889 15.537192
v    19.900482 381.852592 15.537192
v    20.307633 376.284828 14.346637
v    19.218212 375.706245 15.492894
v    16.726475 381.783585 14.346637
v    15.756795 381.021145 15.492894
v    18.458123 379.144816 15.537192
v    21.511550 379.092287 15.537192
v    20.030327 381.762897 15.537192
v    21.541877 380.855184 23.570456
v    18.488450 380.907713 23.570456
v    19.969673 378.237103 23.570456
v    19.554181 384.222181 22.107253
v    23.842080 386.123391 26.465889
v    25.368055 386.819086 27.596180
v    27.705806 387.844140 29.314398
v    23.345682 377.386194 22.107253
v    27.228915 380.017009 26.465889
v    28.627074 380.943152 27.596180
v    30.734463 382.383543 29.314398
v    21.614895 380.429572 23.570456
v    18.820532 381.183754 23.570456
v    19.564573 378.386674 23.570456
v    18.385105 379.570428 38.883082
v    21.179468 378.816246 38.883082
v    20.435427 381.613326 38.883082
v    19.819289 374.671780 37.119765
v    14.249122 373.710282 42.372391
v    7.347128 372.444779 47.101633
v    -3.888505 370.424432 51.074741
v    17.195819 384.534220 37.119765
v    11.884116 382.601074 42.372391
v    5.265563 380.270028 47.101633
v    -5.488915 376.440870 51.074741
v    18.541706 379.394647 38.883082
v    21.253398 379.039757 38.883082
v    20.204896 381.565597 38.883082
v    21.458294 380.605353 56.198358
v    18.746602 380.960243 56.198358
v    19.795104 378.434403 56.198358
v    19.182638 385.696875 54.114697
v    25.554992 387.698909 60.321575
v    27.935103 388.473987 62.008597
v    34.476725 390.499688 66.618196
v    45.263526 393.982753 70.251505
v    23.457382 375.399024 54.114697
v    29.374232 378.498367 60.321575
v    31.603548 379.636710 62.008597
v    37.656667 382.839216 66.618196
v    47.739070 388.019174 70.251505
v    21.148136 380.944713 56.198358
v    18.607786 380.521958 56.198358
v    20.244078 378.533328 56.198358
v    18.851864 379.055287 79.438023
v    21.392214 379.478042 79.438023
v    19.755922 381.466672 79.438023
v    23.148989 374.105913 77.023703
v    16.758964 369.739428 84.215559
v    13.415351 367.403226 86.964604
v    7.822667 363.615222 91.511398
v    -8.277084 352.425687 97.795874
v    14.822670 384.225120 77.023703
v    9.307335 378.795599 84.215559
v    6.370955 375.964476 86.964604
v    1.576825 371.205968 91.511398
v    -12.503729 357.562446 97.795874
v    19.036323 378.991726 79.438023
v    21.355030 379.669568 79.438023
v    19.608648 381.338706 79.438023
v    20.963677 381.008274 104.080666
v    18.644970 380.330432 104.080666
v    20.391352 378.661294 104.080666
v    15.643693 385.820294 101.337617
v    22.260525 391.611490 109.508701
v    31.548315 399.695304 117.797927
v    45.358407 411.976758 123.721749
v    48.836876 414.831250 125.158283
v    26.011284 375.911272 101.337617
v    31.497424 382.783149 109.508701
v    39.153088 392.426897 117.797927
v    50.797657 406.778092 123.721749
v    53.491974 410.382051 125.158283
v    20.912312 380.929805 104.080666
v    18.738610 380.325183 104.080666
v    20.349079 378.745013 104.080666
v    19.087688 379.070195 126.066144
v    21.261390 379.674817 126.066144
v    19.650921 381.254987 126.066144
v    24.737685 373.834136 123.010214
v    18.889293 368.849430 130.151003
v    17.257253 367.504029 132.113316
v    6.779497 358.647733 141.348035
v    -5.592830 347.932175 146.594388
v    -12.409005 342.486722 149.379587
v    13.745275 384.619736 123.010214
v    8.872534 378.677735 130.151003
v    7.558369 377.020440 132.113316
v    -1.097349 366.376386 141.348035
v    -11.576014 353.802793 146.594388
v    -16.891041 346.884434 149.379587
v    19.188946 379.101354 126.066144
v    21.183778 379.746930 126.066144
v    19.627277 381.151717 126.066144
v    20.811054 380.898646 141.068083
v    18.816222 380.253070 141.068083
v    20.372723 378.848283 141.068083
v    14.886885 385.922249 137.729794
v    22.852432 393.091264 147.673998
v    33.885127 403.234511 157.761981
v    40.002102 408.995691 160.455387
v    49.543485 417.292862 164.492070
v    26.413784 375.518890 137.729794
v    32.731212 384.175380 147.673998
v    41.693848 396.186914 157.761981
v    46.799731 402.860634 160.455387
v    54.078363 413.200003 164.492070
v    21.097812 380.213714 141.068083
v    19.266012 380.843876 141.068083
v    19.636176 378.942409 141.068083
v    18.902188 379.786286 154.208305
v    20.733988 379.156124 154.208305
v    20.363824 381.057591 154.208305
v    20.813547 371.312644 150.632486
v    15.529859 370.765350 155.568623
v    9.392393 370.231288 161.284253
v    -6.582058 368.642976 172.090028
v    -20.857828 367.049862 176.694292
v    -36.511547 365.929578 181.704469
v    -36.566571 365.933292 181.721610
v    17.495253 388.358125 150.632486
v    12.392113 386.883385 155.568623
v    6.502509 385.076101 161.284253
v    -8.901189 380.555935 172.090028
v    -22.732059 376.677446 176.694292
v    -37.662876 371.843748 181.704469
v    -37.712488 371.819664 181.721610
v    19.208315 379.346885 154.208305
v    20.961457 379.640938 154.208305
v    19.830228 381.012177 154.208305
v    20.791685 380.653115 161.517678
v    19.038543 380.359062 161.517678
v    20.169772 378.987823 161.517678
v    15.206983 386.998622 157.761915
v    25.265211 393.650603 168.949703
v    39.213381 403.123914 180.299250
v    43.867176 406.367187 182.117457
v    57.753915 415.247743 187.379759
v    59.856630 416.212407 188.098799
v    25.960027 373.964125 157.761915
v    34.402520 382.574648 168.949703
v    46.354276 394.467949 180.299250
v    50.422976 398.420456 182.117457
v    61.781106 410.366111 187.379759
v    63.127848 412.247140 188.098799
v    20.747035 380.560971 161.517678
v    19.140667 380.366465 161.517678
v    20.112298 379.072563 161.517678
v    19.252965 379.439029 167.249721
v    20.859333 379.633535 167.249721
v    19.887702 380.927437 167.249721
v    24.803248 372.510698 163.381674
v    14.142254 366.140075 174.903937
v    -0.653499 357.049765 186.592795
v    -7.385167 352.801501 189.144270
v    -22.089838 344.318142 194.563895
v    -26.502263 342.533013 196.043308
v    14.147198 386.701159 163.381674
v    5.056388 378.239551 174.903937
v    -7.799231 366.565603 186.592795
v    -13.756150 361.285619 189.144270
v    -26.003496 349.529887 194.563895
v    -28.948249 345.790287 196.043308
v    19.310251 379.516898 167.249721
v    20.763253 379.644211 167.249721
v    19.926496 380.838891 167.249721
v    20.689749 380.483102 170.584192
v    19.236747 380.355789 170.584192
v    20.073504 379.161109 170.584192
v    15.554358 387.325882 166.677976
v    26.527566 393.399548 178.313938
v    41.764939 402.080047 190.118139
v    44.339125 403.587835 191.074374
v    59.464283 411.658774 196.547479
v    66.458918 414.222631 198.862931
v    25.365329 373.318270 166.677976
v    34.823608 381.554874 178.313938
v    48.189124 392.907918 190.118139
v    50.485906 394.811769 191.074374
v    63.240215 406.267687 196.547479
v    68.040266 411.964861 198.862931
v    20.527666 380.376449 170.584192
v    19.410153 380.268747 170.584192
v    20.062182 379.354804 170.584192
v    19.472334 379.623551 173.170000
v    20.589847 379.731253 173.170000
v    19.937818 380.645196 173.170000
v    24.622368 372.883372 169.301953
v    13.809011 366.774940 180.824216
v    -1.204274 358.048583 192.513074
v    -3.853043 356.466063 193.502082
v    -18.760454 348.344252 198.921707
v    -29.111651 344.447785 202.359359
v    14.774833 386.686576 169.301953
v    5.480140 378.449446 180.824216
v    -7.656671 367.092852 192.513074
v    -10.014984 365.103201 193.502082
v    -22.545699 353.649997 198.921707
v    -29.598424 345.130090 202.359359
v    22.339703 381.550439 0.474837
v    22.551314 381.627163 0.683668
v    23.232781 381.883775 1.173822
v    23.868664 382.131998 1.392623
v    24.541555 382.364344 1.619887
v    25.081189 382.475214 1.657547
v    22.663088 380.886584 0.474837
v    22.853944 381.005915 0.683668
v    23.476077 381.384330 1.173822
v    24.063506 381.732022 1.392623
v    24.661245 382.118641 1.619887
v    25.081189 382.475214 1.657547
v    18.155270 377.855476 0.723861
v    17.866344 377.670319 1.042236
v    17.008691 377.105691 1.733416
v    16.241188 376.587067 2.030326
v    15.387796 376.058479 2.350796
v    15.178131 375.965921 2.422030
v    14.681388 375.739509 2.415964
v    17.504549 378.667807 0.723861
v    17.260795 378.426259 1.042236
v    16.522589 377.712520 1.733416
v    15.848954 377.076716 2.030326
v    15.146848 376.359267 2.350796
v    15.010761 376.174859 2.422030
v    14.681388 375.739509 2.415964
v    22.357739 381.686498 1.218567
v    22.837513 381.816759 1.679797
v    24.203026 382.205605 2.635494
v    25.385254 382.557692 3.030886
v    26.730192 382.900769 3.474002
v    27.093574 382.941244 3.587643
v    27.792069 383.027498 3.579824
v    22.877897 380.347734 1.218567
v    23.319763 380.575563 1.679797
v    24.589603 381.210646 2.635494
v    25.699420 381.749101 3.030886
v    26.923182 382.404056 3.474002
v    27.218569 382.619537 3.587643
v    27.792069 383.027498 3.579824
v    17.337098 378.358008 2.124835
v    16.746009 378.282576 2.677680
v    14.839626 378.015635 3.973428
v    12.948032 377.727516 4.586739
v    11.077833 377.518192 5.187522
v    9.616413 377.543702 5.250871
v    16.883651 380.274877 2.124835
v    16.321413 380.077483 2.677680
v    14.497481 379.461996 3.973428
v    12.677281 378.872068 4.586739
v    10.911512 378.221284 5.187522
v    9.616413 377.543702 5.250871
v    21.071535 383.237423 3.179818
v    21.637099 383.764673 3.897492
v    23.494897 385.524754 5.620119
v    25.520032 387.490148 6.524678
v    27.383119 389.159934 7.323387
v    28.994094 390.270562 7.315074
v    23.067742 381.489313 3.179818
v    23.515763 382.119498 3.897492
v    25.015339 384.193280 5.620119
v    26.696355 386.460023 6.524678
v    28.105727 388.527134 7.323387
v    28.994094 390.270562 7.315074
v    18.088177 376.822765 5.737706
v    17.154533 376.356980 6.705718
v    14.187856 374.831067 8.951322
v    11.900607 373.619595 9.780951
v    8.960216 372.208625 10.822142
v    7.836895 371.850564 11.188590
v    6.585292 371.435092 11.173938
v    16.313260 379.602713 5.737706
v    15.497836 378.951767 6.705718
v    12.865194 376.902675 8.951322
v    10.803708 375.337603 9.780951
v    8.286397 373.263987 10.822142
v    7.488876 372.395645 11.188590
v    6.585292 371.435092 11.173938
v    21.489079 383.952199 9.649875
v    22.692411 384.665845 10.949928
v    26.365822 386.830608 13.820352
v    31.836663 390.133995 15.868820
v    34.062548 391.360225 16.680121
v    35.554129 392.193129 16.660671
v    38.589134 393.393515 16.624409
v    24.220329 380.161442 9.649875
v    25.278189 381.076991 10.949928
v    28.494445 383.876249 13.820352
v    33.359746 388.020077 15.868820
v    35.227519 389.743337 16.680121
v    36.489751 390.894561 16.660671
v    38.589134 393.393515 16.624409
v    19.218212 375.706245 15.492894
v    16.937017 374.494720 17.893102
v    14.611563 373.228487 19.677656
v    12.227384 371.974808 21.490845
v    3.001877 366.981118 24.853342
v    -1.878191 364.554466 25.021095
v    -4.803914 363.553824 24.986740
v    -5.735634 363.239239 24.812542
v    15.756795 381.021145 15.492894
v    13.726332 379.424630 17.893102
v    11.627935 377.809756 19.677656
v    9.517275 376.136097 21.490845
v    1.219704 369.717590 24.853342
v    -2.972970 366.235466 25.021095
v    -5.071173 363.964193 24.986740
v    -5.735634 363.239239 24.812542
v    27.705806 387.844140 29.314398
v    29.846178 388.782648 30.887545
v    39.939277 393.353839 34.439053
v    42.417151 394.359585 35.292785
v    46.053463 395.859905 35.248001
v    50.913761 397.145963 35.192142
v    30.734463 382.383543 29.314398
v    32.663923 383.702321 30.887545
v    41.885946 389.844041 34.439053
v    44.051150 391.413525 35.292785
v    47.249290 393.703856 35.248001
v    50.913761 397.145963 35.192142
v    -3.888505 370.424432 51.074741
v    -9.829052 369.350470 53.009750
v    -12.443899 368.867274 52.979366
v    -20.481986 367.694302 52.886886
v    -25.441222 367.650041 52.130877
v    -26.432246 367.648736 51.836124
v    -5.488915 376.440870 51.074741
v    -11.177924 374.421299 53.009750
v    -13.687254 373.541432 52.979366
v    -21.245772 370.565611 52.886886
v    -25.571554 368.140000 52.130877
v    -26.432246 367.648736 51.836124
v    45.263526 393.982753 70.251505
v    49.617418 395.388628 71.718022
v    53.157238 396.378374 72.891440
v    58.677103 397.955973 72.826082
v    65.760666 398.995727 72.746536
v    47.739070 388.019174 70.251505
v    51.808644 390.109968 71.718022
v    55.008768 391.918043 72.891440
v    60.023161 394.713323 72.826082
v    65.760666 398.995727 72.746536
v    -8.277084 352.425687 97.795874
v    -10.871963 350.762292 98.780152
v    -17.659129 346.379094 98.688169
v    -24.779024 343.020378 98.600702
v    -25.156680 342.844032 98.526871
v    -12.503729 357.562446 97.795874
v    -14.635705 355.336473 98.780152
v    -20.243921 349.520463 98.688169
v    -24.910906 343.180659 98.600702
v    -25.156680 342.844032 98.526871
v    48.836876 414.831250 125.158283
v    51.011557 416.615831 126.056380
v    54.828116 419.784609 125.999906
v    62.812154 424.793412 125.895186
v    53.491974 410.382051 125.158283
v    55.176417 412.635187 126.056380
v    58.169416 416.591098 125.999906
v    62.812154 424.793412 125.895186
v    -12.409005 342.486722 149.379587
v    -15.269595 340.201393 150.548470
v    -16.107423 339.524134 150.536205
v    -25.074565 334.061151 150.419541
v    -16.891041 346.884434 149.379587
v    -19.121633 343.980960 150.548470
v    -19.782860 343.130421 150.536205
v    -25.074565 334.061151 150.419541
v    49.543485 417.292862 164.492070
v    51.057849 418.609750 165.132754
v    58.284172 423.312546 167.812512
v    60.315073 424.669011 167.785377
v    54.078363 413.200003 164.492070
v    55.233594 414.841020 165.132754
v    59.173262 422.510116 167.812512
v    60.315073 424.669011 167.785377
v    -36.566571 365.933292 181.721610
v    -40.207062 366.178994 182.855688
v    -48.602198 366.645006 182.762269
v    -37.712488 371.819664 181.721610
v    -40.994953 370.226249 182.855688
v    -48.602198 366.645006 182.762269
v    59.856630 416.212407 188.098799
v    68.955427 420.386665 191.210207
v    63.127848 412.247140 188.098799
v    68.955427 420.386665 191.210207
v    -26.502263 342.533013 196.043308
v    -33.048819 339.884481 198.238259
v    -33.889794 339.532510 198.228130
v    -28.948249 345.790287 196.043308
v    -33.317273 340.241977 198.238259
v    -33.889794 339.532510 198.228130
v    66.458918 414.222631 198.862931
v    71.499032 416.070065 200.531373
v    68.040266 411.964861 198.862931
v    71.499032 416.070065 200.531373
v    -29.111651 344.447785 202.359359
v    -30.639233 343.872762 202.866672
v    -29.598424 345.130090 202.359359
v    -30.639233 343.872762 202.866672
mtllib usm_17_2.5D_2018-09-22_9.mtl
usemtl APPID_1912831120_2183767393888 
o vid_3 
f 3 2 1
f 4 5 6
f 1 6 5
f 1 5 3
f 3 5 4
f 4 2 3
f 2 4 6
f 6 1 2
usemtl APPID_1912831680_2183767398240 
o vid_4 
f 7 10 11
f 7 11 8
f 8 11 12
f 8 12 9
usemtl APPID_1912831120_2183767393888 
o vid_5 
f 15 14 13
f 16 17 18
f 13 18 17
f 13 17 15
f 15 17 16
f 16 14 15
f 14 16 18
f 18 13 14
usemtl APPID_1912831680_2183767398240 
o vid_6 
f 19 22 23
f 19 23 20
f 20 23 24
f 20 24 21
usemtl APPID_1912831120_2183767393888 
o vid_7 
f 27 26 25
f 28 29 30
f 25 30 29
f 25 29 27
f 27 29 28
f 28 26 27
f 26 28 30
f 30 25 26
usemtl APPID_1912831680_2183767398240 
o vid_8 
f 31 34 35
f 31 35 32
f 32 35 36
f 32 36 33
usemtl APPID_1912831120_2183767393888 
o vid_9 
f 39 38 37
f 40 41 42
f 37 42 41
f 37 41 39
f 39 41 40
f 40 38 39
f 38 40 42
f 42 37 38
usemtl APPID_1912831680_2183767398240 
o vid_10 
f 43 45 46
f 43 46 44
f 43 45 46
f 43 46 44
usemtl APPID_1912831120_2183767393888 
o vid_11 
f 49 48 47
f 50 51 52
f 47 52 51
f 47 51 49
f 49 51 50
f 50 48 49
f 48 50 52
f 52 47 48
usemtl APPID_1912831680_2183767398240 
o vid_12 
f 53 55 56
f 53 56 54
f 53 55 56
f 53 56 54
usemtl APPID_1912831120_2183767393888 
o vid_13 
f 59 58 57
f 60 61 62
f 57 62 61
f 57 61 59
f 59 61 60
f 60 58 59
f 58 60 62
f 62 57 58
usemtl APPID_1912831680_2183767398240 
o vid_14 
f 63 66 67
f 63 67 64
f 64 67 68
f 64 68 65
usemtl APPID_1912831120_2183767393888 
o vid_15 
f 71 70 69
f 72 73 74
f 69 74 73
f 69 73 71
f 71 73 72
f 72 70 71
f 70 72 74
f 74 69 70
usemtl APPID_1912831680_2183767398240 
o vid_16 
f 75 77 78
f 75 78 76
f 75 77 78
f 75 78 76
usemtl APPID_1912831120_2183767393888 
o vid_17 
f 81 80 79
f 82 83 84
f 79 84 83
f 79 83 81
f 81 83 82
f 82 80 81
f 80 82 84
f 84 79 80
usemtl APPID_1912831680_2183767398240 
o vid_18 
f 85 87 88
f 85 88 86
f 85 87 88
f 85 88 86
usemtl APPID_1912831120_2183767393888 
o vid_19 
f 91 90 89
f 92 93 94
f 89 94 93
f 89 93 91
f 91 93 92
f 92 90 91
f 90 92 94
f 94 89 90
usemtl APPID_1912831680_2183767398240 
o vid_20 
f 95 99 100
f 96 100 101
f 95 100 96
f 96 101 97
f 97 101 102
f 97 102 98
usemtl APPID_1912831120_2183767393888 
o vid_21 
f 105 104 103
f 106 107 108
f 103 108 107
f 103 107 105
f 105 107 106
f 106 104 105
f 104 106 108
f 108 103 104
usemtl APPID_1912831680_2183767398240 
o vid_22 
f 109 113 114
f 110 114 115
f 109 114 110
f 110 115 111
f 111 115 116
f 111 116 112
usemtl APPID_1912831120_2183767393888 
o vid_23 
f 119 118 117
f 120 121 122
f 117 122 121
f 117 121 119
f 119 121 120
f 120 118 119
f 118 120 122
f 122 117 118
usemtl APPID_1912831680_2183767398240 
o vid_24 
f 123 128 129
f 124 129 130
f 125 130 131
f 123 129 124
f 124 130 125
f 125 131 126
f 126 131 132
f 126 132 127
usemtl APPID_1912831120_2183767393888 
o vid_25 
f 135 134 133
f 136 137 138
f 133 138 137
f 133 137 135
f 135 137 136
f 136 134 135
f 134 136 138
f 138 133 134
usemtl APPID_1912831680_2183767398240 
o vid_26 
f 139 144 145
f 140 145 146
f 141 146 147
f 139 145 140
f 140 146 141
f 141 147 142
f 142 147 148
f 142 148 143
usemtl APPID_1912831120_2183767393888 
o vid_27 
f 151 150 149
f 152 153 154
f 149 154 153
f 149 153 151
f 151 153 152
f 152 150 151
f 150 152 154
f 154 149 150
usemtl APPID_1912831680_2183767398240 
o vid_28 
f 155 160 161
f 156 161 162
f 157 162 163
f 155 161 156
f 156 162 157
f 157 163 158
f 158 163 164
f 158 164 159
usemtl APPID_1912831120_2183767393888 
o vid_29 
f 167 166 165
f 168 169 170
f 165 170 169
f 165 169 167
f 167 169 168
f 168 166 167
f 166 168 170
f 170 165 166
usemtl APPID_1912831680_2183767398240 
o vid_30 
f 171 177 178
f 172 178 179
f 173 179 180
f 174 180 181
f 171 178 172
f 172 179 173
f 173 180 174
f 174 181 175
f 175 181 182
f 175 182 176
usemtl APPID_1912831120_2183767393888 
o vid_31 
f 185 184 183
f 186 187 188
f 183 188 187
f 183 187 185
f 185 187 186
f 186 184 185
f 184 186 188
f 188 183 184
usemtl APPID_1912831680_2183767398240 
o vid_32 
f 189 194 195
f 190 195 196
f 191 196 197
f 189 195 190
f 190 196 191
f 191 197 192
f 192 197 198
f 192 198 193
usemtl APPID_1912831120_2183767393888 
o vid_33 
f 201 200 199
f 202 203 204
f 199 204 203
f 199 203 201
f 201 203 202
f 202 200 201
f 200 202 204
f 204 199 200
usemtl APPID_1912831680_2183767398240 
o vid_34 
f 205 212 213
f 206 213 214
f 207 214 215
f 208 215 216
f 209 216 217
f 205 213 206
f 206 214 207
f 207 215 208
f 208 216 209
f 209 217 210
f 210 217 218
f 210 218 211
usemtl APPID_1912831120_2183767393888 
o vid_35 
f 221 220 219
f 222 223 224
f 219 224 223
f 219 223 221
f 221 223 222
f 222 220 221
f 220 222 224
f 224 219 220
usemtl APPID_1912831680_2183767398240 
o vid_36 
f 225 231 232
f 226 232 233
f 227 233 234
f 228 234 235
f 225 232 226
f 226 233 227
f 227 234 228
f 228 235 229
f 229 235 236
f 229 236 230
usemtl APPID_1912831120_2183767393888 
o vid_37 
f 239 238 237
f 240 241 242
f 237 242 241
f 237 241 239
f 239 241 240
f 240 238 239
f 238 240 242
f 242 237 238
usemtl APPID_1912831680_2183767398240 
o vid_38 
f 243 249 250
f 244 250 251
f 245 251 252
f 246 252 253
f 243 250 244
f 244 251 245
f 245 252 246
f 246 253 247
f 247 253 254
f 247 254 248
usemtl APPID_1912831120_2183767393888 
o vid_39 
f 257 256 255
f 258 259 260
f 255 260 259
f 255 259 257
f 257 259 258
f 258 256 257
f 256 258 260
f 260 255 256
usemtl APPID_1912831680_2183767398240 
o vid_40 
f 261 267 268
f 262 268 269
f 263 269 270
f 264 270 271
f 261 268 262
f 262 269 263
f 263 270 264
f 264 271 265
f 265 271 272
f 265 272 266
usemtl APPID_1912831120_2183767393888 
o vid_41 
f 275 274 273
f 276 277 278
f 273 278 277
f 273 277 275
f 275 277 276
f 276 274 275
f 274 276 278
f 278 273 274
usemtl APPID_1912831680_2183767398240 
o vid_42 
f 279 285 286
f 280 286 287
f 281 287 288
f 282 288 289
f 279 286 280
f 280 287 281
f 281 288 282
f 282 289 283
f 283 289 290
f 283 290 284
usemtl APPID_1912839856_2183767394016 
o vid_10000004 
f 291 297 298
f 292 298 299
f 293 299 300
f 294 300 301
f 291 298 292
f 292 299 293
f 293 300 294
f 294 301 295
f 295 301 302
usemtl APPID_1912839856_2183767394016 
o vid_10000006 
f 303 310 311
f 304 311 312
f 305 312 313
f 306 313 314
f 307 314 315
f 303 311 304
f 304 312 305
f 305 313 306
f 306 314 307
f 307 315 308
f 308 315 316
usemtl APPID_1912839856_2183767394016 
o vid_10000008 
f 317 324 325
f 318 325 326
f 319 326 327
f 320 327 328
f 321 328 329
f 317 325 318
f 318 326 319
f 319 327 320
f 320 328 321
f 321 329 322
f 322 329 330
usemtl APPID_1912839856_2183767394016 
o vid_10000010 
f 331 337 338
f 332 338 339
f 333 339 340
f 334 340 341
f 331 338 332
f 332 339 333
f 333 340 334
f 334 341 335
f 335 341 342
usemtl APPID_1912839856_2183767394016 
o vid_10000012 
f 343 349 350
f 344 350 351
f 345 351 352
f 346 352 353
f 343 350 344
f 344 351 345
f 345 352 346
f 346 353 347
f 347 353 354
usemtl APPID_1912839856_2183767394016 
o vid_10000014 
f 355 362 363
f 356 363 364
f 357 364 365
f 358 365 366
f 359 366 367
f 355 363 356
f 356 364 357
f 357 365 358
f 358 366 359
f 359 367 360
f 360 367 368
usemtl APPID_1912839856_2183767394016 
o vid_10000016 
f 369 376 377
f 370 377 378
f 371 378 379
f 372 379 380
f 373 380 381
f 369 377 370
f 370 378 371
f 371 379 372
f 372 380 373
f 373 381 374
f 374 381 382
usemtl APPID_1912839856_2183767394016 
o vid_10000018 
f 383 391 392
f 384 392 393
f 385 393 394
f 386 394 395
f 387 395 396
f 388 396 397
f 383 392 384
f 384 393 385
f 385 394 386
f 386 395 387
f 387 396 388
f 388 397 389
f 389 397 398
usemtl APPID_1912839856_2183767394016 
o vid_10000020 
f 399 405 406
f 400 406 407
f 401 407 408
f 402 408 409
f 399 406 400
f 400 407 401
f 401 408 402
f 402 409 403
f 403 409 410
usemtl APPID_1912839856_2183767394016 
o vid_10000022 
f 411 417 418
f 412 418 419
f 413 419 420
f 414 420 421
f 411 418 412
f 412 419 413
f 413 420 414
f 414 421 415
f 415 421 422
usemtl APPID_1912839856_2183767394016 
o vid_10000024 
f 423 428 429
f 424 429 430
f 425 430 431
f 423 429 424
f 424 430 425
f 425 431 426
f 426 431 432
usemtl APPID_1912839856_2183767394016 
o vid_10000026 
f 433 438 439
f 434 439 440
f 435 440 441
f 433 439 434
f 434 440 435
f 435 441 436
f 436 441 442
usemtl APPID_1912839856_2183767394016 
o vid_10000028 
f 443 447 448
f 444 448 449
f 443 448 444
f 444 449 445
f 445 449 450
usemtl APPID_1912839856_2183767394016 
o vid_10000030 
f 451 455 456
f 452 456 457
f 451 456 452
f 452 457 453
f 453 457 458
usemtl APPID_1912839856_2183767394016 
o vid_10000032 
f 459 463 464
f 460 464 465
f 459 464 460
f 460 465 461
f 461 465 466
usemtl APPID_1912839856_2183767394016 
o vid_10000034 
f 467 470 471
f 467 471 468
f 468 471 472
usemtl APPID_1912839856_2183767394016 
o vid_10000036 
f 473 475 476
f 473 476 474
f 473 475 476
usemtl APPID_1912839856_2183767394016 
o vid_10000038 
f 477 480 481
f 477 481 478
f 478 481 482
usemtl APPID_1912839856_2183767394016 
o vid_10000040 
f 483 485 486
f 483 486 484
f 483 485 486
usemtl APPID_1912839856_2183767394016 
o vid_10000042 
f 487 489 490
f 487 490 488
f 487 489 490
