# File generated by PlantGL - Fri Sep  4 14:43:11 2026
v    18.201987 139.124129 0.000000
v    21.657533 138.880811 0.000000
v    20.140480 141.995060 0.000000
v    21.798013 140.875871 0.331061
v    18.342467 141.119189 0.331061
v    19.859520 138.004940 0.331061
v    21.383011 141.452572 -0.085637
v    22.230290 141.774414 0.773151
v    22.584556 141.899155 1.128134
v    23.761715 142.335451 1.915065
v    21.996298 140.193600 -0.085637
v    22.772004 140.662368 0.773151
v    23.088606 140.864428 1.128134
v    24.157781 141.522395 1.915065
v    21.503548 141.204422 0.331061
v    18.205166 140.699900 0.331061
v    20.291286 138.095678 0.331061
v    18.496452 138.795578 0.718770
v    21.794834 139.300100 0.718770
v    19.708714 141.904322 0.718770
v    19.285308 138.076928 0.143568
v    17.811194 137.100353 1.819033
v    17.373791 136.802376 2.151401
v    16.078418 135.959196 3.120245
v    15.264277 135.414720 3.367383
v    14.240962 134.768394 3.671993
v    17.967303 139.722267 0.143568
v    16.692533 138.496840 1.819033
v    16.306274 138.135018 2.151401
v    15.200694 137.054908 3.120245
v    14.491651 136.379232 3.367383
v    13.637560 135.521656 3.671993
v    18.272844 139.328938 0.718770
v    21.444735 138.839770 0.718770
v    20.282421 141.831292 0.718770
v    21.727156 140.671062 1.487000
v    18.555265 141.160230 1.487000
v    19.717579 138.168708 1.487000
v    20.989748 141.949782 0.711738
v    23.279998 142.609103 2.969945
v    24.437159 142.958484 3.729033
v    25.965589 143.385147 4.723730
v    27.777673 143.915378 5.200142
v    30.039705 144.513576 5.789008
v    30.306229 144.551090 5.855367
v    22.046515 139.229915 0.711738
v    24.181127 140.289811 2.969945
v    25.270625 140.813338 3.729033
v    26.686179 141.530519 4.723730
v    28.380902 142.362808 5.200142
v    30.453431 143.448743 5.789008
v    30.675368 143.601013 5.855367
v    21.731622 140.409625 1.487000
v    18.779443 141.294816 1.487000
v    19.488935 138.295559 1.487000
v    18.268378 139.590375 2.857087
v    21.220557 138.705184 2.857087
v    20.511065 141.704441 2.857087
v    19.008159 137.745038 1.836837
v    15.903336 137.301155 4.808653
v    13.742868 136.963736 6.181858
v    12.264930 136.764615 7.116646
v    9.130877 136.302601 7.916002
v    6.344666 135.965979 8.622319
v    4.897637 135.928541 8.321624
v    18.102967 141.571582 1.836837
v    15.128337 140.577336 4.808653
v    13.045671 139.911017 6.181858
v    11.635161 139.426859 7.116646
v    8.626274 138.435724 7.916002
v    5.984544 137.488335 8.622319
v    4.674106 136.873479 8.321624
v    18.876148 138.716648 2.857087
v    21.673341 139.668392 2.857087
v    19.450510 141.614960 2.857087
v    21.123852 141.283352 4.462301
v    18.326659 140.331608 4.462301
v    20.549490 138.385040 4.462301
v    18.810681 142.804979 3.151326
v    19.514876 143.476322 4.073222
v    21.728129 145.585304 6.969974
v    25.104587 148.886991 9.935641
v    30.341706 153.947085 11.773572
v    33.286117 156.637835 11.110145
v    35.350633 158.120518 10.584737
v    22.937376 139.191167 3.151326
v    23.509938 139.977783 4.073222
v    25.308467 142.449946 6.969974
v    28.135800 146.232509 9.935641
v    32.460672 152.091473 11.773572
v    34.739413 155.365160 11.110145
v    35.936742 157.607253 10.584737
v    21.375838 140.878433 4.462301
v    18.551335 140.752294 4.462301
v    20.072827 138.369272 4.462301
v    18.624162 139.121567 11.576758
v    21.448665 139.247706 11.576758
v    19.927173 141.630728 11.576758
v    21.052920 136.201634 9.931963
v    16.630647 133.896362 14.658427
v    11.344796 131.072046 18.443805
v    5.808914 128.042939 20.038353
v    2.884864 126.512069 20.871175
v    -1.187875 124.375808 19.898629
v    -5.682184 122.164881 18.842142
v    -9.285463 120.967045 17.197207
v    16.997402 142.553552 9.931963
v    13.045234 139.511982 14.658427
v    8.258812 135.905440 18.443805
v    3.181399 132.158260 20.038353
v    0.562197 130.149923 20.871175
v    -3.089564 127.354311 19.898629
v    -6.986461 124.207693 18.842142
v    -9.589378 121.443049 17.197207
v    18.735263 139.088754 11.576758
v    21.421531 139.360328 11.576758
v    19.843206 141.550918 11.576758
v    21.264737 140.911246 22.058017
v    18.578469 140.639672 22.058017
v    20.156794 138.449082 22.058017
v    18.001170 144.443810 20.043090
v    21.466220 146.727324 23.987808
v    23.214095 147.761585 25.912231
v    26.953153 150.039650 28.661858
v    29.412786 151.537513 30.470366
v    39.403280 157.756586 33.443971
v    48.669229 163.324079 31.157648
v    53.679482 166.095883 28.803746
v    57.975491 167.613002 25.307196
v    23.582567 136.697276 20.043090
v    26.845510 139.261297 23.987808
v    28.379872 140.591896 25.912231
v    31.724385 143.417560 28.661858
v    33.923815 145.276563 30.470366
v    42.985557 152.784670 33.443971
v    51.199871 159.811748 31.157648
v    55.415128 163.686945 28.803746
v    58.214126 167.281796 25.307196
v    21.244614 140.810576 22.058017
v    18.675713 140.672580 22.058017
v    20.079672 138.516844 22.058017
v    18.755386 139.189424 39.687747
v    21.324287 139.327420 39.687747
v    19.920328 141.483156 39.687747
v    22.409818 134.855573 37.277640
v    20.115056 133.507271 39.807160
v    15.927239 131.288450 44.297873
v    13.696472 130.069449 45.894319
v    8.308139 127.126444 49.749978
v    -2.419906 121.129699 52.855554
v    -12.646416 115.648774 51.231344
v    -18.292098 112.807789 49.898220
v    -23.484834 110.969545 46.735099
v    -24.896674 110.564254 45.467237
v    16.269286 144.284171 37.277640
v    14.108239 142.730554 39.807160
v    10.385558 139.797530 44.297873
v    8.368647 138.250161 45.894319
v    3.498197 134.511962 49.749978
v    -6.324322 127.124808 52.855554
v    -15.472274 119.987792 51.231344
v    -20.353474 115.972969 49.898220
v    -24.134415 111.966956 46.735099
v    -25.075971 110.839558 45.467237
v    18.765415 139.315252 39.687747
v    21.210302 139.273192 39.687747
v    20.024283 141.411556 39.687747
v    21.234585 140.684748 66.536732
v    18.789698 140.726808 66.536732
v    19.975717 138.588444 66.536732
v    17.633660 145.498508 63.721961
v    20.229800 146.646544 66.411716
v    25.547934 148.996739 71.920912
v    34.768453 153.214740 78.288441
v    37.655387 154.569772 79.094284
v    49.768671 159.986132 82.442448
v    57.843927 163.361169 80.596235
v    66.018003 165.690932 78.839283
v    23.411510 135.081184 63.721961
v    25.760041 136.675652 66.411716
v    30.569655 139.942697 71.920912
v    39.030038 145.531205 78.288441
v    41.708140 147.262756 79.094284
v    52.716803 154.670720 82.442448
v    59.855680 159.734027 80.596235
v    66.160159 165.434629 78.839283
v    21.293262 140.344016 66.536732
v    19.055443 140.947990 66.536732
v    19.651295 138.707994 66.536732
v    18.706738 139.655984 106.673854
v    20.944557 139.052010 106.673854
v    20.348705 141.292006 106.673854
v    21.309264 133.483979 103.464042
v    11.583691 131.817128 112.813680
v    0.213439 129.717217 120.074863
v    -16.149285 126.816040 124.268543
v    -25.796662 125.370668 123.209591
v    -35.693047 125.061360 121.162913
v    17.898705 146.305336 103.464042
v    8.630343 142.919683 112.813680
v    -2.280494 139.092687 120.074863
v    -17.922078 133.480521 124.268543
v    -27.012536 129.941514 123.209591
v    -35.754630 125.292871 121.162913
v    18.831935 139.515124 106.673854
v    21.003948 139.230864 106.673854
v    20.164118 141.254012 106.673854
v    21.168065 140.484876 148.554672
v    18.996052 140.769136 148.554672
v    19.835882 138.745988 148.554672
v    17.471872 146.692606 144.980745
v    27.957536 149.972796 155.390991
v    38.476222 153.413172 162.340994
v    54.507942 158.481518 167.261661
v    60.189959 160.124101 168.750233
v    64.910671 161.493912 167.713416
v    75.931685 163.325927 165.404005
v    22.954706 133.484471 144.980745
v    32.680825 138.594403 155.390991
v    42.543701 143.614624 162.340994
v    57.451819 151.389725 167.261661
v    62.626716 154.253959 168.750233
v    66.929734 156.629993 167.713416
v    76.008243 163.141499 165.404005
v    20.919824 140.756852 148.554672
v    18.884635 140.418165 148.554672
v    20.195542 138.824983 148.554672
v    19.080176 139.243148 183.833557
v    21.115365 139.581835 183.833557
v    19.804458 141.175017 183.833557
v    24.535659 134.381772 179.948104
v    14.665515 127.654987 191.265771
v    10.677133 124.860631 194.324010
v    3.080223 119.772536 200.055380
v    -3.593506 115.181462 202.099341
v    -13.425073 108.789870 205.050614
v    -16.113390 107.465457 205.789487
v    -24.372819 103.375779 203.884350
v    15.360408 145.532710 179.948104
v    6.858759 137.142755 191.265771
v    3.348631 133.767163 194.324010
v    -3.107226 127.292315 200.055380
v    -8.897580 121.627650 202.099341
v    -17.062881 113.211000 205.050614
v    -18.880216 110.828057 205.789487
v    -24.483932 103.510818 203.884350
v    19.227775 139.192038 183.833557
v    21.085829 139.735214 183.833557
v    19.686397 141.072748 183.833557
v    20.772225 140.807962 211.970959
v    18.914171 140.264786 211.970959
v    20.313603 138.927252 211.970959
v    14.542669 145.111694 207.846496
v    24.093920 153.450466 219.860357
v    26.138252 155.282373 221.584213
v    35.343571 163.188954 229.190650
v    39.710451 167.035160 230.658994
v    49.263464 175.015776 233.791811
v    54.312891 178.304269 235.277484
v    60.174056 182.138197 233.829744
v    25.353183 134.779339 207.846496
v    33.251635 144.697806 219.860357
v    34.989249 146.822865 221.584213
v    42.471590 156.376215 229.190650
v    46.116444 160.912509 230.658994
v    53.657026 170.816545 233.791811
v    56.713882 176.009476 235.277484
v    60.278917 182.037974 233.829744
v    20.731259 140.745280 211.970959
v    18.988939 140.260648 211.970959
v    20.279802 138.994071 211.970959
v    19.268741 139.254720 228.979083
v    21.011061 139.739352 228.979083
v    19.720198 141.005929 228.979083
v    25.616834 134.758390 224.704214
v    15.604775 126.246109 237.156182
v    3.799966 116.319567 246.826721
v    0.004030 113.063635 248.088620
v    -10.004987 104.922564 251.335680
v    -16.173920 101.019239 253.135522
v    -21.474734 97.650284 251.837219
v    14.652667 145.516279 224.704214
v    6.332058 135.344371 237.156182
v    -3.368511 123.353178 246.826721
v    -6.551769 119.496094 248.088620
v    -14.501293 109.334277 251.335680
v    -18.286761 103.092330 253.135522
v    -21.554442 97.728492 251.837219
v    19.370026 139.301991 228.979083
v    20.919481 139.803432 228.979083
v    19.710493 140.894578 228.979083
v    20.629974 140.698009 239.507840
v    19.080519 140.196568 239.507840
v    20.289507 139.105422 239.507840
v    13.825030 145.154001 235.181627
v    23.589487 154.183346 247.783153
v    27.503150 157.897339 251.171431
v    35.053325 164.766753 257.569842
v    41.626035 170.898012 259.837890
v    51.403074 179.551887 263.123950
v    54.171948 181.469996 263.954417
v    62.823616 187.489094 261.775801
v    25.758077 134.384082 235.181627
v    33.742252 145.020182 247.783153
v    37.036836 149.292911 251.171431
v    43.098682 157.505585 257.569842
v    48.526132 164.670476 259.837890
v    56.135517 175.280720 263.123950
v    57.760615 178.231121 263.954417
v    62.864027 187.452622 261.775801
v    20.715430 140.139275 239.507840
v    19.521670 140.549943 239.507840
v    19.762901 139.310782 239.507840
v    19.284570 139.860725 244.936900
v    20.478330 139.450057 244.936900
v    20.237099 140.689218 244.936900
v    21.992246 132.422899 240.662032
v    8.918984 131.084969 253.114000
v    5.212581 130.657184 255.457044
v    -6.425653 129.561074 262.784538
v    -13.432869 128.813066 264.562702
v    -26.293221 127.779232 267.809762
v    -31.495525 127.979520 269.093340
v    -40.128828 128.294543 267.307564
v    19.004363 147.771114 240.662032
v    6.383913 144.107173 253.114000
v    2.787705 143.113337 255.457044
v    -8.411801 139.763556 262.784538
v    -15.187896 137.828326 264.562702
v    -27.496909 133.962364 267.809762
v    -32.244169 131.825166 269.093340
v    -40.128828 128.294543 267.307564
v    19.583112 139.656080 244.936900
v    20.506287 139.810924 244.936900
v    19.910601 140.532996 244.936900
v    20.416888 140.343920 247.375863
v    19.493713 140.189076 247.375863
v    20.089399 139.467004 247.375863
v    15.457706 144.480560 243.251400
v    17.518626 145.888996 245.616630
v    26.085423 151.441110 255.265261
v    30.500200 154.406122 258.598776
v    38.625262 159.517964 264.595553
v    51.769484 166.208810 268.241800
v    23.535524 134.688886 243.251400
v    25.310005 136.444535 245.616630
v    32.389204 143.799868 255.265261
v    36.139285 147.570603 258.598776
v    42.702276 154.575937 264.595553
v    51.769484 166.208810 268.241800
v    20.299866 140.225179 247.375863
v    19.655057 140.147102 247.375863
v    20.045077 139.627719 247.375863
v    19.700134 139.774821 248.981000
v    20.344943 139.852898 248.981000
v    19.954923 140.372281 248.981000
v    23.138738 137.067345 245.095547
v    14.965883 132.639764 253.842753
v    12.295457 131.696553 256.413214
v    5.104800 128.814740 261.124949
v    18.058934 143.832024 245.095547
v    11.527927 137.218026 253.842753
v    9.877463 134.916549 256.413214
v    5.104800 128.814740 261.124949
v    23.761715 142.335451 1.915065
v    23.997311 142.416321 2.070782
v    24.964051 142.759653 2.328973
v    26.273324 143.055942 2.659937
v    24.157781 141.522395 1.915065
v    24.366687 141.658056 2.070782
v    25.232953 142.207642 2.328973
v    26.273324 143.055942 2.659937
v    14.240962 134.768394 3.671993
v    13.796524 134.487688 3.804288
v    13.192971 134.200122 3.969121
v    12.115514 133.684107 3.722176
v    13.637560 135.521656 3.671993
v    13.266618 135.149200 3.804288
v    12.854254 134.622962 3.969121
v    12.115514 133.684107 3.722176
v    30.306229 144.551090 5.855367
v    32.530784 144.868659 5.413822
v    30.675368 143.601013 5.855367
v    32.530784 144.868659 5.413822
v    4.897637 135.928541 8.321624
v    2.756504 135.920951 7.879028
v    4.674106 136.873479 8.321624
v    2.756504 135.920951 7.879028
v    35.350633 158.120518 10.584737
v    36.745985 159.122624 10.229628
v    35.936742 157.607253 10.584737
v    36.745985 159.122624 10.229628
v    -9.285463 120.967045 17.197207
v    -10.326925 120.633852 16.572730
v    -10.337195 120.630566 16.566572
v    -9.589378 121.443049 17.197207
v    -10.329893 120.638500 16.572730
v    -10.337195 120.630566 16.566572
v    57.975491 167.613002 25.307196
v    58.634521 167.836263 24.706592
v    58.214126 167.281796 25.307196
v    58.634521 167.836263 24.706592
v    -24.896674 110.564254 45.467237
v    -25.434941 110.409736 44.983862
v    -25.075971 110.839558 45.467237
v    -25.434941 110.409736 44.983862
v    66.018003 165.690932 78.839283
v    66.639523 165.868077 78.705692
v    66.160159 165.434629 78.839283
v    66.639523 165.868077 78.705692
v    -35.693047 125.061360 121.162913
v    -36.221035 125.044858 121.053720
v    -35.754630 125.292871 121.162913
v    -36.221035 125.044858 121.053720
v    75.931685 163.325927 165.404005
v    76.366045 163.398130 165.312986
v    76.008243 163.141499 165.404005
v    76.366045 163.398130 165.312986
v    -24.372819 103.375779 203.884350
v    -24.718387 103.204670 203.804640
v    -24.483932 103.510818 203.884350
v    -24.718387 103.204670 203.804640
v    60.174056 182.138197 233.829744
v    60.441726 182.313286 233.763628
v    60.278917 182.037974 233.829744
v    60.441726 182.313286 233.763628
v    -21.474734 97.650284 251.837219
v    -21.682549 97.518206 251.786320
v    -21.554442 97.728492 251.837219
v    -21.682549 97.518206 251.786320
v    62.823616 187.489094 261.775801
v    62.922151 187.557647 261.750988
v    62.864027 187.452622 261.775801
v    62.922151 187.557647 261.750988
mtllib usm_17_Beer_2018-10-08_3.mtl
usemtl APPID_1912849568_2183767411040 
o vid_3 
f 3 2 1
f 4 5 6
f 1 6 5
f 1 5 3
f 3 5 4
f 4 2 3
f 2 4 6
f 6 1 2
usemtl APPID_1912851248_2183767415392 
o vid_4 
f 7 11 12
f 8 12 13
f 7 12 8
f 8 13 9
f 9 13 14
f 9 14 10
usemtl APPID_1912849568_2183767411040 
o vid_5 
f 17 16 15
f 18 19 20
f 15 20 19
f 15 19 17
f 17 19 18
f 18 16 17
f 16 18 20
f 20 15 16
usemtl APPID_1912851248_2183767415392 
o vid_6 
f 21 27 28
f 22 28 29
f 23 29 30
f 24 30 31
f 21 28 22
f 22 29 23
f 23 30 24
f 24 31 25
f 25 31 32
f 25 32 26
usemtl APPID_1912849568_2183767411040 
o vid_7 
f 35 34 33
f 36 37 38
f 33 38 37
f 33 37 35
f 35 37 36
f 36 34 35
f 34 36 38
f 38 33 34
usemtl APPID_1912851248_2183767415392 
o vid_8 
f 39 46 47
f 40 47 48
f 41 48 49
f 42 49 50
f 43 50 51
f 39 47 40
f 40 48 41
f 41 49 42
f 42 50 43
f 43 51 44
f 44 51 52
f 44 52 45
usemtl APPID_1912849568_2183767411040 
o vid_9 
f 55 54 53
f 56 57 58
f 53 58 57
f 53 57 55
f 55 57 56
f 56 54 55
f 54 56 58
f 58 53 54
usemtl APPID_1912851248_2183767415392 
o vid_10 
f 59 66 67
f 60 67 68
f 61 68 69
f 62 69 70
f 63 70 71
f 59 67 60
f 60 68 61
f 61 69 62
f 62 70 63
f 63 71 64
f 64 71 72
f 64 72 65
usemtl APPID_1912849568_2183767411040 
o vid_11 
f 75 74 73
f 76 77 78
f 73 78 77
f 73 77 75
f 75 77 76
f 76 74 75
f 74 76 78
f 78 73 74
usemtl APPID_1912851248_2183767415392 
o vid_12 
f 79 86 87
f 80 87 88
f 81 88 89
f 82 89 90
f 83 90 91
f 79 87 80
f 80 88 81
f 81 89 82
f 82 90 83
f 83 91 84
f 84 91 92
f 84 92 85
usemtl APPID_1912849568_2183767411040 
o vid_13 
f 95 94 93
f 96 97 98
f 93 98 97
f 93 97 95
f 95 97 96
f 96 94 95
f 94 96 98
f 98 93 94
usemtl APPID_1912851248_2183767415392 
o vid_14 
f 99 107 108
f 100 108 109
f 101 109 110
f 102 110 111
f 103 111 112
f 104 112 113
f 99 108 100
f 100 109 101
f 101 110 102
f 102 111 103
f 103 112 104
f 104 113 105
f 105 113 114
f 105 114 106
usemtl APPID_1912849568_2183767411040 
o vid_15 
f 117 116 115
f 118 119 120
f 115 120 119
f 115 119 117
f 117 119 118
f 118 116 117
f 116 118 120
f 120 115 116
usemtl APPID_1912851248_2183767415392 
o vid_16 
f 121 130 131
f 122 131 132
f 123 132 133
f 124 133 134
f 125 134 135
f 126 135 136
f 127 136 137
f 121 131 122
f 122 132 123
f 123 133 124
f 124 134 125
f 125 135 126
f 126 136 127
f 127 137 128
f 128 137 138
f 128 138 129
usemtl APPID_1912849568_2183767411040 
o vid_17 
f 141 140 139
f 142 143 144
f 139 144 143
f 139 143 141
f 141 143 142
f 142 140 141
f 140 142 144
f 144 139 140
usemtl APPID_1912851248_2183767415392 
o vid_18 
f 145 155 156
f 146 156 157
f 147 157 158
f 148 158 159
f 149 159 160
f 150 160 161
f 151 161 162
f 152 162 163
f 145 156 146
f 146 157 147
f 147 158 148
f 148 159 149
f 149 160 150
f 150 161 151
f 151 162 152
f 152 163 153
f 153 163 164
f 153 164 154
usemtl APPID_1912849568_2183767411040 
o vid_19 
f 167 166 165
f 168 169 170
f 165 170 169
f 165 169 167
f 167 169 168
f 168 166 167
f 166 168 170
f 170 165 166
usemtl APPID_1912851248_2183767415392 
o vid_20 
f 171 179 180
f 172 180 181
f 173 181 182
f 174 182 183
f 175 183 184
f 176 184 185
f 171 180 172
f 172 181 173
f 173 182 174
f 174 183 175
f 175 184 176
f 176 185 177
f 177 185 186
f 177 186 178
usemtl APPID_1912849568_2183767411040 
o vid_21 
f 189 188 187
f 190 191 192
f 187 192 191
f 187 191 189
f 189 191 190
f 190 188 189
f 188 190 192
f 192 187 188
usemtl APPID_1912851248_2183767415392 
o vid_22 
f 193 199 200
f 194 200 201
f 195 201 202
f 196 202 203
f 193 200 194
f 194 201 195
f 195 202 196
f 196 203 197
f 197 203 204
f 197 204 198
usemtl APPID_1912849568_2183767411040 
o vid_23 
f 207 206 205
f 208 209 210
f 205 210 209
f 205 209 207
f 207 209 208
f 208 206 207
f 206 208 210
f 210 205 206
usemtl APPID_1912851248_2183767415392 
o vid_24 
f 211 218 219
f 212 219 220
f 213 220 221
f 214 221 222
f 215 222 223
f 211 219 212
f 212 220 213
f 213 221 214
f 214 222 215
f 215 223 216
f 216 223 224
f 216 224 217
usemtl APPID_1912849568_2183767411040 
o vid_25 
f 227 226 225
f 228 229 230
f 225 230 229
f 225 229 227
f 227 229 228
f 228 226 227
f 226 228 230
f 230 225 226
usemtl APPID_1912851248_2183767415392 
o vid_26 
f 231 239 240
f 232 240 241
f 233 241 242
f 234 242 243
f 235 243 244
f 236 244 245
f 231 240 232
f 232 241 233
f 233 242 234
f 234 243 235
f 235 244 236
f 236 245 237
f 237 245 246
f 237 246 238
usemtl APPID_1912849568_2183767411040 
o vid_27 
f 249 248 247
f 250 251 252
f 247 252 251
f 247 251 249
f 249 251 250
f 250 248 249
f 248 250 252
f 252 247 248
usemtl APPID_1912851248_2183767415392 
o vid_28 
f 253 261 262
f 254 262 263
f 255 263 264
f 256 264 265
f 257 265 266
f 258 266 267
f 253 262 254
f 254 263 255
f 255 264 256
f 256 265 257
f 257 266 258
f 258 267 259
f 259 267 268
f 259 268 260
usemtl APPID_1912849568_2183767411040 
o vid_29 
f 271 270 269
f 272 273 274
f 269 274 273
f 269 273 271
f 271 273 272
f 272 270 271
f 270 272 274
f 274 269 270
usemtl APPID_1912851248_2183767415392 
o vid_30 
f 275 282 283
f 276 283 284
f 277 284 285
f 278 285 286
f 279 286 287
f 275 283 276
f 276 284 277
f 277 285 278
f 278 286 279
f 279 287 280
f 280 287 288
f 280 288 281
usemtl APPID_1912849568_2183767411040 
o vid_31 
f 291 290 289
f 292 293 294
f 289 294 293
f 289 293 291
f 291 293 292
f 292 290 291
f 290 292 294
f 294 289 290
usemtl APPID_1912851248_2183767415392 
o vid_32 
f 295 303 304
f 296 304 305
f 297 305 306
f 298 306 307
f 299 307 308
f 300 308 309
f 295 304 296
f 296 305 297
f 297 306 298
f 298 307 299
f 299 308 300
f 300 309 301
f 301 309 310
f 301 310 302
usemtl APPID_1912849568_2183767411040 
o vid_33 
f 313 312 311
f 314 315 316
f 311 316 315
f 311 315 313
f 313 315 314
f 314 312 313
f 312 314 316
f 316 311 312
usemtl APPID_1912851248_2183767415392 
o vid_34 
f 317 325 326
f 318 326 327
f 319 327 328
f 320 328 329
f 321 329 330
f 322 330 331
f 317 326 318
f 318 327 319
f 319 328 320
f 320 329 321
f 321 330 322
f 322 331 323
f 323 331 332
usemtl APPID_1912849568_2183767411040 
o vid_35 
f 335 334 333
f 336 337 338
f 333 338 337
f 333 337 335
f 335 337 336
f 336 334 335
f 334 336 338
f 338 333 334
usemtl APPID_1912851248_2183767415392 
o vid_36 
f 339 345 346
f 340 346 347
f 341 347 348
f 342 348 349
f 339 346 340
f 340 347 341
f 341 348 342
f 342 349 343
f 343 349 350
usemtl APPID_1912849568_2183767411040 
o vid_37 
f 353 352 351
f 354 355 356
f 351 356 355
f 351 355 353
f 353 355 354
f 354 352 353
f 352 354 356
f 356 351 352
usemtl APPID_1912851248_2183767415392 
o vid_38 
f 357 361 362
f 358 362 363
f 357 362 358
f 358 363 359
f 359 363 364
usemtl APPID_1912848448_2183767415520 
o vid_10000004 
f 365 369 370
f 366 370 371
f 365 370 366
f 366 371 367
f 367 371 372
usemtl APPID_1912848448_2183767415520 
o vid_10000006 
f 373 377 378
f 374 378 379
f 373 378 374
f 374 379 375
f 375 379 380
usemtl APPID_1912848448_2183767415520 
o vid_10000008 
f 381 383 384
f 381 384 382
f 381 383 384
usemtl APPID_1912848448_2183767415520 
o vid_10000010 
f 385 387 388
f 385 388 386
f 385 387 388
usemtl APPID_1912848448_2183767415520 
o vid_10000012 
f 389 391 392
f 389 392 390
f 389 391 392
usemtl APPID_1912848448_2183767415520 
o vid_10000014 
f 393 396 397
f 393 397 394
f 394 397 398
usemtl APPID_1912848448_2183767415520 
o vid_10000016 
f 399 401 402
f 399 402 400
f 399 401 402
usemtl APPID_1912848448_2183767415520 
o vid_10000018 
f 403 405 406
f 403 406 404
f 403 405 406
usemtl APPID_1912848448_2183767415520 
o vid_10000020 
f 407 409 410
f 407 410 408
f 407 409 410
usemtl APPID_1912848448_2183767415520 
o vid_10000022 
f 411 413 414
f 411 414 412
f 411 413 414
usemtl APPID_1912848448_2183767415520 
o vid_10000024 
f 415 417 418
f 415 418 416
f 415 417 418
usemtl APPID_1912848448_2183767415520 
o vid_10000026 
f 419 421 422
f 419 422 420
f 419 421 422
usemtl APPID_1912848448_2183767415520 
o vid_10000028 
f 423 425 426
f 423 426 424
f 423 425 426
usemtl APPID_1912848448_2183767415520 
o vid_10000030 
f 427 429 430
f 427 430 428
f 427 429 430
usemtl APPID_1912848448_2183767415520 
o vid_10000032 
f 431 433 434
f 431 434 432
f 431 433 434
