# File generated by PlantGL - Fri Sep  4 14:43:25 2026
v    18.201987 19.124129 0.000000
v    21.657533 18.880811 0.000000
v    20.140480 21.995060 0.000000
v    21.798013 20.875871 0.331061
v    18.342467 21.119189 0.331061
v    19.859520 18.004940 0.331061
v    21.382982 21.452794 -0.085391
v    22.236258 21.776914 0.779475
v    22.583742 21.899267 1.127663
v    23.811348 22.354260 1.948318
v    24.970505 22.762595 2.330137
v    25.413092 22.862752 2.442017
v    21.996455 20.193440 -0.085391
v    22.777651 20.665526 0.779475
v    23.088192 20.863717 1.127663
v    24.203187 21.549882 1.948318
v    25.239248 22.210911 2.330137
v    25.590936 22.497670 2.442017
v    21.503548 21.204422 0.331061
v    18.205166 20.699900 0.331061
v    20.291286 18.095678 0.331061
v    18.496452 18.795578 0.718770
v    21.794834 19.300100 0.718770
v    19.708714 21.904322 0.718770
v    19.284553 18.077184 0.145052
v    17.814243 17.103129 1.816194
v    17.356062 16.790998 2.164350
v    16.086288 15.964480 3.114048
v    15.248987 15.404515 3.368216
v    13.785023 14.479875 3.803994
v    13.211104 14.206429 3.960734
v    12.815114 14.016782 3.869975
v    17.967388 19.721474 0.145052
v    16.695908 18.499209 1.816194
v    16.291300 18.120201 2.164350
v    15.207569 17.061435 3.114048
v    14.478355 16.366539 3.368216
v    13.256483 15.139681 3.803994
v    12.864367 14.639281 3.960734
v    12.592863 14.294230 3.869975
v    18.272844 19.328938 0.718770
v    21.444735 18.839770 0.718770
v    20.282421 21.831292 0.718770
v    21.727156 20.671062 1.487000
v    18.555265 21.160230 1.487000
v    19.717579 18.168708 1.487000
v    20.991261 21.948625 0.715164
v    23.271391 22.605033 2.963392
v    24.483149 22.970898 3.758296
v    25.944638 23.378874 4.709428
v    27.817346 23.926844 5.201779
v    30.069383 24.522399 5.788042
v    31.965116 24.792616 5.503352
v    22.046849 19.231790 0.715164
v    24.172029 20.287003 2.963392
v    25.312932 20.835231 3.758296
v    26.666489 21.521001 4.709428
v    28.417910 22.381135 5.201779
v    30.481281 23.462271 5.788042
v    32.062162 24.542843 5.503352
v    21.731622 20.409625 1.487000
v    18.779443 21.294816 1.487000
v    19.488935 18.295559 1.487000
v    18.268378 19.590375 2.857581
v    21.220557 18.705184 2.857581
v    20.511065 21.704441 2.857581
v    19.005726 17.747495 1.843562
v    15.919864 17.306322 4.797229
v    13.656819 16.952883 6.235632
v    12.304246 16.770653 7.091127
v    9.056433 16.291869 7.919499
v    6.420949 15.973457 8.587605
v    3.145892 15.913780 7.908266
v    18.101893 21.568296 1.843562
v    15.145428 20.580121 4.797229
v    12.963880 19.882166 6.235632
v    11.673015 19.439076 7.091127
v    8.554911 18.411965 7.919499
v    6.056093 17.515828 8.587605
v    3.101409 16.101824 7.908266
v    18.876148 18.716648 2.857581
v    21.673341 19.668392 2.857581
v    19.450510 21.614960 2.857581
v    21.123852 21.283352 4.464214
v    18.326659 20.331608 4.464214
v    20.549490 18.385040 4.464214
v    18.815987 22.804186 3.163262
v    19.647257 23.596676 4.251519
v    21.711096 25.563283 6.952714
v    25.061738 28.839726 9.895706
v    25.950820 29.726336 10.212979
v    30.431898 34.033733 11.781351
v    33.355258 36.705579 11.009000
v    36.558152 39.005816 10.193881
v    22.935890 19.196322 3.163262
v    23.611773 20.124886 4.251519
v    25.288886 22.430156 6.952714
v    28.094601 26.183799 9.895706
v    28.856156 27.182088 10.212979
v    32.534663 32.192309 11.781351
v    34.797443 35.442635 11.009000
v    36.654981 38.921021 10.193881
v    21.375838 20.878433 4.464214
v    18.551335 20.752294 4.464214
v    20.072827 18.369272 4.464214
v    18.624162 19.121567 10.752587
v    21.448665 19.247706 10.752587
v    19.927173 21.630728 10.752587
v    20.969316 16.324589 9.122654
v    17.826891 14.695844 12.476443
v    16.520617 14.019191 13.870374
v    11.342471 11.251444 17.557583
v    7.501223 9.149603 18.664011
v    2.940384 6.761800 19.963020
v    0.581996 5.524763 19.399850
v    -3.871702 3.333814 18.352910
v    -7.042339 2.214073 17.657837
v    -8.509805 1.744590 16.777922
v    17.073759 22.425970 9.122654
v    14.273876 20.260721 12.476443
v    13.110356 19.360481 13.870374
v    8.420575 15.827837 17.557583
v    4.897450 13.227738 18.664011
v    0.812105 10.095198 19.963020
v    -1.302509 8.476352 19.399850
v    -5.164193 5.358167 18.352910
v    -7.514206 2.953130 17.657837
v    -8.557623 1.819485 16.777922
v    18.735263 19.088754 10.752587
v    21.421531 19.360328 10.752587
v    19.843206 21.550918 10.752587
v    21.264737 20.911246 22.165711
v    18.578469 20.639672 22.165711
v    20.156794 18.449082 22.165711
v    18.036602 24.404881 20.171494
v    19.755162 25.647945 22.189416
v    22.880359 27.687928 25.736356
v    28.062986 30.841619 29.628568
v    39.124474 37.711653 33.434638
v    42.049889 39.535186 32.704646
v    48.066067 43.134937 31.222059
v    50.299729 44.471438 30.671611
v    54.459376 46.739512 27.996966
v    59.609429 48.573760 23.256221
v    23.556855 16.743208 20.171494
v    25.280003 17.979904 22.189416
v    28.204360 20.298638 25.736356
v    32.836429 24.216459 29.628568
v    42.854679 32.534425 33.434638
v    45.510475 34.732167 32.704646
v    50.829526 39.299476 31.222059
v    52.804361 40.995207 30.671611
v    56.272533 44.222995 27.996966
v    59.642699 48.527584 23.256221
v    21.244614 20.810576 22.165711
v    18.675713 20.672580 22.165711
v    20.079672 18.516844 22.165711
v    18.755386 19.189424 39.904430
v    21.324287 19.327420 39.904430
v    19.920328 21.483156 39.904430
v    22.370281 14.901753 37.521734
v    20.032107 13.527943 40.099107
v    15.963372 11.372216 44.462125
v    13.675191 10.121840 46.099660
v    8.430935 7.257528 49.852223
v    -2.269376 1.276285 52.949771
v    -12.380400 -4.142839 51.293662
v    -17.864137 -6.902332 49.998779
v    -22.990617 -8.730723 46.871632
v    -24.926947 -9.286577 45.132767
v    16.295536 24.229338 37.521734
v    14.093606 22.646329 40.099107
v    10.476781 19.796707 44.462125
v    8.407960 18.209512 46.099660
v    3.667740 14.571268 49.852223
v    -6.129386 7.203212 52.949771
v    -15.174119 0.146830 51.293662
v    -19.915304 -3.752828 49.998779
v    -23.660442 -7.702227 46.871632
v    -24.951780 -9.248446 45.132767
v    18.765415 19.315252 39.904430
v    21.210302 19.273192 39.904430
v    20.024283 21.411556 39.904430
v    21.234585 20.684748 66.592971
v    18.789698 20.726808 66.592971
v    19.975717 18.588444 66.592971
v    17.870707 25.091800 63.812880
v    25.687799 28.546337 71.910813
v    32.614210 31.714879 76.694071
v    34.819258 32.668113 78.199888
v    44.435239 36.967822 80.857786
v    49.735844 39.173639 82.302713
v    52.202690 40.203103 81.738888
v    60.799383 42.653320 79.891098
v    23.192008 15.497623 63.812880
v    30.261629 20.299831 71.910813
v    36.617029 24.497892 76.694071
v    38.593226 25.863739 78.199888
v    47.332318 31.744459 80.857786
v    52.010172 35.073081 82.302713
v    54.189657 36.620651 81.738888
v    60.820090 42.615985 79.891098
v    21.293262 20.344016 66.592971
v    19.055443 20.947990 66.592971
v    19.651295 18.707994 66.592971
v    18.706738 19.655984 106.256849
v    20.944557 19.052010 106.256849
v    20.348705 21.292006 106.256849
v    21.110222 14.184849 103.089158
v    11.512179 12.540211 112.316107
v    7.370412 11.775291 114.961091
v    0.252073 10.614685 119.482008
v    -6.524901 9.423006 121.218265
v    -15.980786 8.013863 123.624348
v    -26.174041 7.699616 122.495258
v    18.074199 25.598202 103.089158
v    8.927550 22.256636 112.316107
v    4.953131 20.862602 114.961091
v    -1.801054 18.333030 119.482008
v    -8.274431 16.000034 121.218265
v    -17.180704 12.524730 123.624348
v    -26.182887 7.732872 122.495258
v    18.831935 19.515124 106.256849
v    21.003948 19.230864 106.256849
v    20.164118 21.254012 106.256849
v    21.168065 20.484876 147.748568
v    18.996052 20.769136 147.748568
v    19.835882 18.745988 147.748568
v    17.566565 26.501642 144.223880
v    27.907763 29.736639 154.490699
v    36.877513 32.670401 160.417276
v    40.001852 33.620126 162.464191
v    52.490214 37.586667 165.770486
v    59.725130 39.678169 167.665885
v    62.735445 40.551673 167.004726
v    73.979841 42.420821 164.648505
v    22.886323 13.686356 144.223880
v    32.478441 18.725886 154.490699
v    40.888953 23.006852 160.417276
v    43.767394 24.548942 162.464191
v    55.393532 30.592581 165.770486
v    61.982731 34.239612 167.665885
v    64.726691 35.754767 167.004726
v    73.989210 42.398252 164.648505
v    20.848912 20.698505 147.748568
v    18.970621 20.385927 147.748568
v    20.180467 18.915568 147.748568
v    19.151088 19.301495 182.880833
v    21.029379 19.614073 182.880833
v    19.819533 21.084432 182.880833
v    24.749583 14.241042 179.050890
v    15.020450 7.610361 190.206865
v    7.403790 2.273945 196.047222
v    3.661015 -0.232811 198.870900
v    -7.167606 -7.682167 202.187379
v    -14.948542 -12.740625 204.523086
v    -27.991571 -19.500120 201.473934
v    15.263510 25.769731 179.050890
v    6.883320 17.499640 190.206865
v    0.179988 11.053233 196.047222
v    -3.000624 7.863264 198.870900
v    -12.395902 -1.328074 202.187379
v    -18.858116 -7.989211 204.523086
v    -28.002893 -19.486360 201.473934
v    19.407968 19.380570 182.880833
v    20.832459 19.797000 182.880833
v    19.759574 20.822430 182.880833
v    20.592032 20.619430 211.303740
v    19.167541 20.203000 211.303740
v    20.240426 19.177570 211.303740
v    14.313068 24.994561 207.239702
v    23.724391 33.211169 219.077556
v    27.613989 36.696602 222.357409
v    34.770815 42.843703 228.271157
v    41.240018 48.541567 230.446400
v    50.653077 56.405265 233.533319
v    61.685650 63.614776 232.161170
v    25.246551 14.544678 207.239702
v    33.029288 24.317836 219.077556
v    36.335316 28.361027 222.357409
v    42.152585 35.788436 228.271157
v    47.552162 42.508615 230.446400
v    54.982273 52.267554 233.533319
v    61.685650 63.614776 232.161170
v    20.446366 20.454925 211.303740
v    19.382841 20.159102 211.303740
v    20.170793 19.385974 211.303740
v    19.553634 19.545075 228.584337
v    20.617159 19.840898 228.584337
v    19.829207 20.614026 228.584337
v    25.896491 15.028126 224.373029
v    16.033295 6.642409 236.639856
v    13.370996 4.318976 238.858917
v    4.428350 -3.160430 246.166610
v    -0.717508 -7.574247 247.877269
v    -10.577707 -15.594274 251.076051
v    -15.052491 -18.425644 252.381610
v    -22.093403 -22.900525 250.657113
v    14.917043 25.801008 224.373029
v    6.720149 15.780339 236.639856
v    4.447694 13.074397 238.858917
v    -2.860536 3.991324 246.166610
v    -7.175833 -1.237428 247.877269
v    -15.007161 -11.248155 251.076051
v    -17.753041 -15.775902 252.381610
v    -22.093403 -22.900525 250.657113
v    19.704663 19.672768 228.584337
v    20.431060 19.907847 228.584337
v    19.864277 20.419385 228.584337
v    20.295337 20.327232 238.047287
v    19.568940 20.092153 238.047287
v    20.135723 19.580615 238.047287
v    13.967018 24.378243 233.785712
v    22.817305 32.562240 245.207456
v    34.980536 43.605543 255.839424
v    45.606952 53.058717 259.419889
v    54.638131 59.314975 262.128606
v    56.908429 60.894457 261.556912
v    24.971869 14.446046 233.785712
v    32.208548 24.086372 245.207456
v    41.950991 37.314506 255.839424
v    50.268687 48.851366 259.419889
v    55.569234 58.474628 262.128606
v    56.908429 60.894457 261.556912
v    20.262316 20.051066 238.047287
v    19.824617 20.201640 238.047287
v    19.913066 19.747294 238.047287
v    19.737684 19.948934 239.974000
v    20.175383 19.798360 239.974000
v    20.086934 20.252706 239.974000
v    20.588758 15.263858 231.569162
v    19.899228 15.371485 234.335589
v    16.675750 16.191838 247.012843
v    16.156052 16.537123 248.885112
v    10.845724 18.217910 259.513372
v    18.769096 24.611133 231.569162
v    18.170295 24.252703 234.335589
v    15.489958 22.283037 247.012843
v    15.137739 21.768013 248.885112
v    10.845724 18.217910 259.513372
v    25.413092 22.862752 2.442017
v    26.279004 23.058709 2.660905
v    25.590936 22.497670 2.442017
v    26.279004 23.058709 2.660905
v    12.815114 14.016782 3.869975
v    12.108136 13.678196 3.707941
v    12.592863 14.294230 3.869975
v    12.108136 13.678196 3.707941
v    31.965116 24.792616 5.503352
v    32.550058 24.876148 5.381212
v    32.062162 24.542843 5.503352
v    32.550058 24.876148 5.381212
v    3.145892 15.913780 7.908266
v    2.719803 15.912269 7.820189
v    3.101409 16.101824 7.908266
v    2.719803 15.912269 7.820189
v    36.558152 39.005816 10.193881
v    36.788673 39.171370 10.135215
v    36.654981 38.921021 10.193881
v    36.788673 39.171370 10.135215
v    -8.509805 1.744590 16.777922
v    -8.675286 1.691648 16.678697
v    -8.557623 1.819485 16.777922
v    -8.675286 1.691648 16.678697
v    59.609429 48.573760 23.256221
v    59.701310 48.604887 23.172485
v    59.642699 48.527584 23.256221
v    59.701310 48.604887 23.172485
v    -24.926947 -9.286577 45.132767
v    -25.001499 -9.307978 45.065818
v    -24.951780 -9.248446 45.132767
v    -25.001499 -9.307978 45.065818
v    60.799383 42.653320 79.891098
v    60.889917 42.679124 79.871638
v    60.820090 42.615985 79.891098
v    60.889917 42.679124 79.871638
v    -26.174041 7.699616 122.495258
v    -26.249885 7.697246 122.479573
v    -26.182887 7.732872 122.495258
v    -26.249885 7.697246 122.479573
v    73.979841 42.420821 164.648505
v    74.032995 42.429657 164.637367
v    73.989210 42.398252 164.648505
v    74.032995 42.429657 164.637367
v    -27.991571 -19.500120 201.473934
v    -28.026783 -19.517555 201.465812
v    -28.002893 -19.486360 201.473934
v    -28.026783 -19.517555 201.465812
mtllib usm_21_2.5D_2018-09-24_0.mtl
usemtl APPID_4100168352_2499637556480 
o vid_3 
f 3 2 1
f 4 5 6
f 1 6 5
f 1 5 3
f 3 5 4
f 4 2 3
f 2 4 6
f 6 1 2
usemtl APPID_4100165440_2499637556352 
o vid_4 
f 7 13 14
f 8 14 15
f 9 15 16
f 10 16 17
f 7 14 8
f 8 15 9
f 9 16 10
f 10 17 11
f 11 17 18
f 11 18 12
usemtl APPID_4100168352_2499637556480 
o vid_5 
f 21 20 19
f 22 23 24
f 19 24 23
f 19 23 21
f 21 23 22
f 22 20 21
f 20 22 24
f 24 19 20
usemtl APPID_4100165440_2499637556352 
o vid_6 
f 25 33 34
f 26 34 35
f 27 35 36
f 28 36 37
f 29 37 38
f 30 38 39
f 25 34 26
f 26 35 27
f 27 36 28
f 28 37 29
f 29 38 30
f 30 39 31
f 31 39 40
f 31 40 32
usemtl APPID_4100168352_2499637556480 
o vid_7 
f 43 42 41
f 44 45 46
f 41 46 45
f 41 45 43
f 43 45 44
f 44 42 43
f 42 44 46
f 46 41 42
usemtl APPID_4100165440_2499637556352 
o vid_8 
f 47 54 55
f 48 55 56
f 49 56 57
f 50 57 58
f 51 58 59
f 47 55 48
f 48 56 49
f 49 57 50
f 50 58 51
f 51 59 52
f 52 59 60
f 52 60 53
usemtl APPID_4100168352_2499637556480 
o vid_9 
f 63 62 61
f 64 65 66
f 61 66 65
f 61 65 63
f 63 65 64
f 64 62 63
f 62 64 66
f 66 61 62
usemtl APPID_4100165440_2499637556352 
o vid_10 
f 67 74 75
f 68 75 76
f 69 76 77
f 70 77 78
f 71 78 79
f 67 75 68
f 68 76 69
f 69 77 70
f 70 78 71
f 71 79 72
f 72 79 80
f 72 80 73
usemtl APPID_4100168352_2499637556480 
o vid_11 
f 83 82 81
f 84 85 86
f 81 86 85
f 81 85 83
f 83 85 84
f 84 82 83
f 82 84 86
f 86 81 82
usemtl APPID_4100165440_2499637556352 
o vid_12 
f 87 95 96
f 88 96 97
f 89 97 98
f 90 98 99
f 91 99 100
f 92 100 101
f 87 96 88
f 88 97 89
f 89 98 90
f 90 99 91
f 91 100 92
f 92 101 93
f 93 101 102
f 93 102 94
usemtl APPID_4100168352_2499637556480 
o vid_13 
f 105 104 103
f 106 107 108
f 103 108 107
f 103 107 105
f 105 107 106
f 106 104 105
f 104 106 108
f 108 103 104
usemtl APPID_4100165440_2499637556352 
o vid_14 
f 109 119 120
f 110 120 121
f 111 121 122
f 112 122 123
f 113 123 124
f 114 124 125
f 115 125 126
f 116 126 127
f 109 120 110
f 110 121 111
f 111 122 112
f 112 123 113
f 113 124 114
f 114 125 115
f 115 126 116
f 116 127 117
f 117 127 128
f 117 128 118
usemtl APPID_4100168352_2499637556480 
o vid_15 
f 131 130 129
f 132 133 134
f 129 134 133
f 129 133 131
f 131 133 132
f 132 130 131
f 130 132 134
f 134 129 130
usemtl APPID_4100165440_2499637556352 
o vid_16 
f 135 145 146
f 136 146 147
f 137 147 148
f 138 148 149
f 139 149 150
f 140 150 151
f 141 151 152
f 142 152 153
f 135 146 136
f 136 147 137
f 137 148 138
f 138 149 139
f 139 150 140
f 140 151 141
f 141 152 142
f 142 153 143
f 143 153 154
f 143 154 144
usemtl APPID_4100168352_2499637556480 
o vid_17 
f 157 156 155
f 158 159 160
f 155 160 159
f 155 159 157
f 157 159 158
f 158 156 157
f 156 158 160
f 160 155 156
usemtl APPID_4100165440_2499637556352 
o vid_18 
f 161 171 172
f 162 172 173
f 163 173 174
f 164 174 175
f 165 175 176
f 166 176 177
f 167 177 178
f 168 178 179
f 161 172 162
f 162 173 163
f 163 174 164
f 164 175 165
f 165 176 166
f 166 177 167
f 167 178 168
f 168 179 169
f 169 179 180
f 169 180 170
usemtl APPID_4100168352_2499637556480 
o vid_19 
f 183 182 181
f 184 185 186
f 181 186 185
f 181 185 183
f 183 185 184
f 184 182 183
f 182 184 186
f 186 181 182
usemtl APPID_4100165440_2499637556352 
o vid_20 
f 187 195 196
f 188 196 197
f 189 197 198
f 190 198 199
f 191 199 200
f 192 200 201
f 187 196 188
f 188 197 189
f 189 198 190
f 190 199 191
f 191 200 192
f 192 201 193
f 193 201 202
f 193 202 194
usemtl APPID_4100168352_2499637556480 
o vid_21 
f 205 204 203
f 206 207 208
f 203 208 207
f 203 207 205
f 205 207 206
f 206 204 205
f 204 206 208
f 208 203 204
usemtl APPID_4100165440_2499637556352 
o vid_22 
f 209 216 217
f 210 217 218
f 211 218 219
f 212 219 220
f 213 220 221
f 209 217 210
f 210 218 211
f 211 219 212
f 212 220 213
f 213 221 214
f 214 221 222
f 214 222 215
usemtl APPID_4100168352_2499637556480 
o vid_23 
f 225 224 223
f 226 227 228
f 223 228 227
f 223 227 225
f 225 227 226
f 226 224 225
f 224 226 228
f 228 223 224
usemtl APPID_4100165440_2499637556352 
o vid_24 
f 229 237 238
f 230 238 239
f 231 239 240
f 232 240 241
f 233 241 242
f 234 242 243
f 229 238 230
f 230 239 231
f 231 240 232
f 232 241 233
f 233 242 234
f 234 243 235
f 235 243 244
f 235 244 236
usemtl APPID_4100168352_2499637556480 
o vid_25 
f 247 246 245
f 248 249 250
f 245 250 249
f 245 249 247
f 247 249 248
f 248 246 247
f 246 248 250
f 250 245 246
usemtl APPID_4100165440_2499637556352 
o vid_26 
f 251 258 259
f 252 259 260
f 253 260 261
f 254 261 262
f 255 262 263
f 251 259 252
f 252 260 253
f 253 261 254
f 254 262 255
f 255 263 256
f 256 263 264
f 256 264 257
usemtl APPID_4100168352_2499637556480 
o vid_27 
f 267 266 265
f 268 269 270
f 265 270 269
f 265 269 267
f 267 269 268
f 268 266 267
f 266 268 270
f 270 265 266
usemtl APPID_4100165440_2499637556352 
o vid_28 
f 271 278 279
f 272 279 280
f 273 280 281
f 274 281 282
f 275 282 283
f 271 279 272
f 272 280 273
f 273 281 274
f 274 282 275
f 275 283 276
f 276 283 284
usemtl APPID_4100168352_2499637556480 
o vid_29 
f 287 286 285
f 288 289 290
f 285 290 289
f 285 289 287
f 287 289 288
f 288 286 287
f 286 288 290
f 290 285 286
usemtl APPID_4100165440_2499637556352 
o vid_30 
f 291 299 300
f 292 300 301
f 293 301 302
f 294 302 303
f 295 303 304
f 296 304 305
f 291 300 292
f 292 301 293
f 293 302 294
f 294 303 295
f 295 304 296
f 296 305 297
f 297 305 306
usemtl APPID_4100168352_2499637556480 
o vid_31 
f 309 308 307
f 310 311 312
f 307 312 311
f 307 311 309
f 309 311 310
f 310 308 309
f 308 310 312
f 312 307 308
usemtl APPID_4100165440_2499637556352 
o vid_32 
f 313 319 320
f 314 320 321
f 315 321 322
f 316 322 323
f 313 320 314
f 314 321 315
f 315 322 316
f 316 323 317
f 317 323 324
usemtl APPID_4100168352_2499637556480 
o vid_33 
f 327 326 325
f 328 329 330
f 325 330 329
f 325 329 327
f 327 329 328
f 328 326 327
f 326 328 330
f 330 325 326
usemtl APPID_4100165440_2499637556352 
o vid_34 
f 331 336 337
f 332 337 338
f 333 338 339
f 331 337 332
f 332 338 333
f 333 339 334
f 334 339 340
usemtl APPID_4100169920_2499637556736 
o vid_10000004 
f 341 343 344
f 341 344 342
f 341 343 344
usemtl APPID_4100169920_2499637556736 
o vid_10000006 
f 345 347 348
f 345 348 346
f 345 347 348
usemtl APPID_4100169920_2499637556736 
o vid_10000008 
f 349 351 352
f 349 352 350
f 349 351 352
usemtl APPID_4100169920_2499637556736 
o vid_10000010 
f 353 355 356
f 353 356 354
f 353 355 356
usemtl APPID_4100169920_2499637556736 
o vid_10000012 
f 357 359 360
f 357 360 358
f 357 359 360
usemtl APPID_4100169920_2499637556736 
o vid_10000014 
f 361 363 364
f 361 364 362
f 361 363 364
usemtl APPID_4100169920_2499637556736 
o vid_10000016 
f 365 367 368
f 365 368 366
f 365 367 368
usemtl APPID_4100169920_2499637556736 
o vid_10000018 
f 369 371 372
f 369 372 370
f 369 371 372
usemtl APPID_4100169920_2499637556736 
o vid_10000020 
f 373 375 376
f 373 376 374
f 373 375 376
usemtl APPID_4100169920_2499637556736 
o vid_10000022 
f 377 379 380
f 377 380 378
f 377 379 380
usemtl APPID_4100169920_2499637556736 
o vid_10000024 
f 381 383 384
f 381 384 382
f 381 383 384
usemtl APPID_4100169920_2499637556736 
o vid_10000026 
f 385 387 388
f 385 388 386
f 385 387 388
