# File generated by PlantGL - Fri Sep  4 14:43:29 2026
v    217.752484 18.905161 0.000000
v    222.071916 18.601013 0.000000
v    220.175600 22.493825 0.000000
v    222.247516 21.094839 0.362700
v    217.928084 21.398987 0.362700
v    219.824400 17.506175 0.362700
v    222.063705 21.445593 0.200720
v    222.314930 21.541374 0.450562
v    222.550696 21.626856 0.683230
v    223.231234 21.883118 1.172717
v    223.871603 22.133093 1.393061
v    224.543577 22.365122 1.620015
v    225.082735 22.475967 1.655713
v    222.410399 20.733890 0.200720
v    222.640680 20.872666 0.450562
v    222.853322 21.005617 0.683230
v    223.474607 21.383517 1.172717
v    224.066179 21.733661 1.393061
v    224.663104 22.119754 1.620015
v    225.082735 22.475967 1.655713
v    221.879284 21.505407 0.362700
v    217.756638 20.874804 0.362700
v    220.364078 17.619789 0.362700
v    218.120716 18.494593 0.589630
v    222.243362 19.125196 0.589630
v    219.635922 22.380211 0.589630
v    218.480871 18.071236 0.361292
v    218.187659 17.876469 0.688393
v    217.867238 17.671129 1.041472
v    217.011031 17.107452 1.731487
v    216.237221 16.584566 2.030837
v    215.385267 16.056869 2.350767
v    214.679691 15.738149 2.412775
v    217.786173 18.938467 0.361292
v    217.532105 18.694834 0.688393
v    217.261781 18.426955 1.041472
v    216.524819 17.714419 1.731487
v    215.845647 17.073389 2.030837
v    215.144726 16.357151 2.350767
v    214.679691 15.738149 2.412775
v    217.841416 19.161313 0.589630
v    221.805616 18.549955 0.589630
v    220.352968 22.288732 0.589630
v    222.158584 20.838687 1.053978
v    218.194384 21.450045 1.053978
v    219.647032 17.711268 1.053978
v    221.860418 21.543473 0.738351
v    222.294916 21.669136 1.158656
v    222.835714 21.815965 1.678551
v    224.198507 22.204037 2.632345
v    225.393009 22.559779 3.031842
v    226.735269 22.902173 3.474076
v    227.082284 22.940825 3.582599
v    227.795746 23.028927 3.574611
v    222.414470 20.117474 0.738351
v    222.819832 20.318127 1.158656
v    223.317899 20.574934 1.678551
v    224.585211 21.208753 2.632345
v    225.706550 21.752798 3.031842
v    226.927875 22.406449 3.474076
v    227.209958 22.612224 3.582599
v    227.795746 23.028927 3.574611
v    222.163962 20.511898 1.053978
v    218.474702 21.618097 1.053978
v    219.361335 17.870005 1.053978
v    217.836038 19.488102 1.829186
v    221.525298 18.381903 1.829186
v    220.638665 22.129995 1.829186
v    218.108455 18.470045 1.401377
v    217.316636 18.355849 2.144787
v    216.748930 18.283467 2.675748
v    214.846888 18.017134 3.968544
v    212.936362 17.726132 4.587995
v    211.070422 17.517284 5.187409
v    209.611181 17.542465 5.242797
v    217.623452 20.520313 1.401377
v    216.864391 20.267639 2.144787
v    216.324424 20.077995 2.675748
v    214.504645 19.463909 3.968544
v    212.666228 18.868077 4.587995
v    210.904480 18.218775 5.187409
v    209.611181 17.542465 5.242797
v    218.595695 18.396392 1.829186
v    222.090917 19.585640 1.829186
v    219.313387 22.017967 1.829186
v    221.404305 21.603608 2.769464
v    217.909083 20.414360 2.769464
v    220.686613 17.982033 2.769464
v    220.309619 22.507931 2.200867
v    221.234765 23.391662 3.389753
v    221.634381 23.761035 3.894621
v    223.487451 25.516637 5.612864
v    225.532455 27.501314 6.526298
v    227.390801 29.166851 7.322974
v    228.998829 30.275969 7.303087
v    222.445155 20.637809 2.200867
v    223.199096 21.671466 3.389753
v    223.512515 22.116323 3.894621
v    225.008275 24.184827 5.612864
v    226.705784 26.473811 6.526298
v    228.111570 28.535661 7.322974
v    228.998829 30.275969 7.303087
v    221.472667 20.940256 2.769464
v    218.449381 20.805239 2.769464
v    220.077952 18.254505 2.769464
v    218.527333 19.059744 5.235228
v    221.550619 19.194761 5.235228
v    219.922048 21.745495 5.235228
v    219.527842 17.591654 4.494195
v    218.786080 17.206264 5.270960
v    217.406223 16.517869 6.701609
v    214.447836 14.996220 8.940939
v    212.121841 13.764225 9.784621
v    209.189666 12.357198 10.822903
v    208.119671 12.016134 11.171955
v    206.819216 11.584446 11.156731
v    217.616585 20.585144 4.494195
v    216.954836 20.074433 5.270960
v    215.749700 19.112383 6.701609
v    213.124414 17.069017 8.940939
v    211.028007 15.477433 9.784621
v    208.517730 13.409611 10.822903
v    207.758069 12.582490 11.171955
v    206.819216 11.584446 11.156731
v    218.893289 19.202612 5.235228
v    221.243913 19.440254 5.235228
v    219.862797 21.357133 5.235228
v    221.106711 20.797388 9.070287
v    218.756087 20.559746 9.070287
v    220.137203 18.642867 9.070287
v    219.601865 22.769586 8.123287
v    222.212948 24.318110 10.944242
v    225.874722 26.477053 13.805984
v    231.389619 29.807042 15.870947
v    233.546512 30.995265 16.657102
v    235.098724 31.862025 16.636862
v    238.124549 33.058780 16.600709
v    222.501135 18.745630 8.123287
v    224.796562 20.732259 10.944242
v    228.003614 23.522321 13.805984
v    232.908095 27.699518 15.870947
v    234.717976 29.369366 16.657102
v    236.031515 30.567385 16.636862
v    238.124549 33.058780 16.600709
v    220.846045 20.551001 9.070287
v    219.099797 20.457196 9.070287
v    220.054158 18.991803 9.070287
v    219.153955 19.448999 15.537192
v    220.900203 19.542804 15.537192
v    219.945842 21.008197 15.537192
v    221.014247 16.748831 14.350491
v    217.654543 14.964518 17.885476
v    215.253567 13.657163 19.727984
v    212.960907 12.451607 21.471573
v    203.669683 7.422344 24.858023
v    198.800838 5.000570 24.989092
v    195.995638 4.041148 24.956152
v    194.957432 3.690609 24.762045
v    217.436573 22.242240 14.350491
v    214.446141 19.890920 17.885476
v    212.279597 18.223603 19.727984
v    210.249957 16.614188 21.471573
v    201.893278 10.149959 24.858023
v    197.709603 6.676128 24.989092
v    195.697833 4.498418 24.956152
v    194.957432 3.690609 24.762045
v    219.401815 19.668224 15.537192
v    220.586419 19.647845 15.537192
v    220.011766 20.683931 15.537192
v    220.598185 20.331776 19.657000
v    219.413581 20.352155 19.657000
v    219.988234 19.316069 19.657000
v    218.969472 23.261658 16.740406
v    222.704382 24.770426 21.696310
v    228.100415 27.066860 26.976548
v    230.774045 28.262576 28.394775
v    236.397070 30.499261 31.311957
v    240.417359 31.450296 33.244867
v    240.848757 31.563524 33.301278
v    222.221257 17.398766 16.740406
v    225.478773 19.768267 21.696310
v    230.284027 23.129860 26.976548
v    232.714035 24.764819 28.394775
v    237.588795 28.350609 31.311957
v    240.524282 31.257515 33.244867
v    240.848757 31.563524 33.301278
mtllib usm_37_2.5D_2018-08-14_5.mtl
usemtl APPID_3043695456_2275079460336 
o vid_3 
f 3 2 1
f 4 5 6
f 1 6 5
f 1 5 3
f 3 5 4
f 4 2 3
f 2 4 6
f 6 1 2
usemtl APPID_3043695792_2275079458928 
o vid_4 
f 7 14 15
f 8 15 16
f 9 16 17
f 10 17 18
f 11 18 19
f 7 15 8
f 8 16 9
f 9 17 10
f 10 18 11
f 11 19 12
f 12 19 20
usemtl APPID_3043695456_2275079460336 
o vid_5 
f 23 22 21
f 24 25 26
f 21 26 25
f 21 25 23
f 23 25 24
f 24 22 23
f 22 24 26
f 26 21 22
usemtl APPID_3043695792_2275079458928 
o vid_6 
f 27 34 35
f 28 35 36
f 29 36 37
f 30 37 38
f 31 38 39
f 27 35 28
f 28 36 29
f 29 37 30
f 30 38 31
f 31 39 32
f 32 39 40
usemtl APPID_3043695456_2275079460336 
o vid_7 
f 43 42 41
f 44 45 46
f 41 46 45
f 41 45 43
f 43 45 44
f 44 42 43
f 42 44 46
f 46 41 42
usemtl APPID_3043695792_2275079458928 
o vid_8 
f 47 55 56
f 48 56 57
f 49 57 58
f 50 58 59
f 51 59 60
f 52 60 61
f 47 56 48
f 48 57 49
f 49 58 50
f 50 59 51
f 51 60 52
f 52 61 53
f 53 61 62
usemtl APPID_3043695456_2275079460336 
o vid_9 
f 65 64 63
f 66 67 68
f 63 68 67
f 63 67 65
f 65 67 66
f 66 64 65
f 64 66 68
f 68 63 64
usemtl APPID_3043695792_2275079458928 
o vid_10 
f 69 76 77
f 70 77 78
f 71 78 79
f 72 79 80
f 73 80 81
f 69 77 70
f 70 78 71
f 71 79 72
f 72 80 73
f 73 81 74
f 74 81 82
usemtl APPID_3043695456_2275079460336 
o vid_11 
f 85 84 83
f 86 87 88
f 83 88 87
f 83 87 85
f 85 87 86
f 86 84 85
f 84 86 88
f 88 83 84
usemtl APPID_3043695792_2275079458928 
o vid_12 
f 89 96 97
f 90 97 98
f 91 98 99
f 92 99 100
f 93 100 101
f 89 97 90
f 90 98 91
f 91 99 92
f 92 100 93
f 93 101 94
f 94 101 102
usemtl APPID_3043695456_2275079460336 
o vid_13 
f 105 104 103
f 106 107 108
f 103 108 107
f 103 107 105
f 105 107 106
f 106 104 105
f 104 106 108
f 108 103 104
usemtl APPID_3043695792_2275079458928 
o vid_14 
f 109 117 118
f 110 118 119
f 111 119 120
f 112 120 121
f 113 121 122
f 114 122 123
f 109 118 110
f 110 119 111
f 111 120 112
f 112 121 113
f 113 122 114
f 114 123 115
f 115 123 124
usemtl APPID_3043695456_2275079460336 
o vid_15 
f 127 126 125
f 128 129 130
f 125 130 129
f 125 129 127
f 127 129 128
f 128 126 127
f 126 128 130
f 130 125 126
usemtl APPID_3043695792_2275079458928 
o vid_16 
f 131 138 139
f 132 139 140
f 133 140 141
f 134 141 142
f 135 142 143
f 131 139 132
f 132 140 133
f 133 141 134
f 134 142 135
f 135 143 136
f 136 143 144
usemtl APPID_3043695456_2275079460336 
o vid_17 
f 147 146 145
f 148 149 150
f 145 150 149
f 145 149 147
f 147 149 148
f 148 146 147
f 146 148 150
f 150 145 146
usemtl APPID_3043695792_2275079458928 
o vid_18 
f 151 159 160
f 152 160 161
f 153 161 162
f 154 162 163
f 155 163 164
f 156 164 165
f 151 160 152
f 152 161 153
f 153 162 154
f 154 163 155
f 155 164 156
f 156 165 157
f 157 165 166
usemtl APPID_3043695456_2275079460336 
o vid_19 
f 169 168 167
f 170 171 172
f 167 172 171
f 167 171 169
f 169 171 170
f 170 168 169
f 168 170 172
f 172 167 168
usemtl APPID_3043695792_2275079458928 
o vid_20 
f 173 180 181
f 174 181 182
f 175 182 183
f 176 183 184
f 177 184 185
f 173 181 174
f 174 182 175
f 175 183 176
f 176 184 177
f 177 185 178
f 178 185 186
