# File generated by PlantGL - Fri Sep  4 14:42:57 2026
v    98.201987 19.124129 0.000000
v    101.657533 18.880811 0.000000
v    100.140480 21.995060 0.000000
v    101.798013 20.875871 0.231332
v    98.342467 21.119189 0.231332
v    99.859520 18.004940 0.231332
v    100.990203 20.834293 -2.342312
v    102.033606 20.990636 -1.384731
v    101.267320 20.265420 -2.342312
v    102.033606 20.990636 -1.384731
v    101.503548 21.204422 0.231332
v    98.205166 20.699900 0.231332
v    100.291286 18.095678 0.231332
v    98.496452 18.795578 0.322458
v    101.794834 19.300100 0.322458
v    99.708714 21.904322 0.322458
v    99.332083 18.943135 -2.251186
v    98.066287 18.450993 -1.018552
v    98.822836 19.578856 -2.251186
v    98.066287 18.450993 -1.018552
v    98.272844 19.328938 0.322458
v    101.444735 18.839770 0.322458
v    100.282421 21.831292 0.322458
v    101.727156 20.671062 0.466406
v    98.555265 21.160230 0.466406
v    99.717579 18.168708 0.466406
v    100.827858 20.930105 -2.107238
v    102.714981 21.054867 -0.390718
v    101.238655 19.872809 -2.107238
v    102.714981 21.054867 -0.390718
v    101.731622 20.409625 0.466406
v    98.779443 21.294816 0.466406
v    99.488935 18.295559 0.466406
v    98.268378 19.590375 0.678771
v    101.220557 18.705184 0.678771
v    100.511065 21.704441 0.678771
v    99.178174 18.978191 -1.894873
v    96.500189 19.172100 0.542069
v    98.807465 20.545301 -1.894873
v    96.500189 19.172100 0.542069
v    98.876148 18.716648 0.678771
v    101.673341 19.668392 0.678771
v    99.450510 21.614960 0.678771
v    101.123852 21.283352 0.903326
v    98.326659 20.331608 0.903326
v    100.549490 18.385040 0.903326
v    99.704483 21.536784 -1.670317
v    103.221229 23.678395 2.066809
v    101.562339 19.909829 -1.670317
v    103.221229 23.678395 2.066809
v    101.375838 20.878433 0.903326
v    98.551335 20.752294 0.903326
v    100.072827 18.369272 0.903326
v    98.624162 19.121567 1.432322
v    101.448665 19.247706 1.432322
v    99.927173 21.630728 1.432322
v    100.182858 18.063622 -1.141322
v    94.611687 16.559716 4.096149
v    98.320368 20.980731 -1.141322
v    94.611687 16.559716 4.096149
v    98.735263 19.088754 1.432322
v    101.421531 19.360328 1.432322
v    99.843206 21.550918 1.432322
v    101.264737 20.911246 2.225063
v    98.578469 20.639672 2.225063
v    100.156794 18.449082 2.225063
v    99.368379 22.269773 -0.348580
v    101.247621 23.236018 1.639418
v    107.009229 25.143984 7.148009
v    107.283175 25.247545 7.326139
v    101.953115 18.682366 -0.348580
v    103.464543 20.159107 1.639418
v    107.098222 25.020469 7.148009
v    107.283175 25.247545 7.326139
v    101.244614 20.810576 2.225063
v    98.675713 20.672580 2.225063
v    100.079672 18.516844 2.225063
v    98.755386 19.189424 3.118961
v    101.324287 19.327420 3.118961
v    99.920328 21.483156 3.118961
v    100.671214 17.611826 0.545317
v    97.790886 16.298410 3.523557
v    92.996575 14.957615 8.041906
v    91.520896 14.477842 8.985704
v    98.087168 21.579549 0.545317
v    95.721256 19.476264 3.523557
v    92.556387 15.633511 8.041906
v    91.520896 14.477842 8.985704
v    98.765415 19.315252 3.118961
v    101.210302 19.273192 3.118961
v    100.024283 21.411556 3.118961
v    101.234585 20.684748 4.388898
v    98.789698 20.726808 4.388898
v    99.975717 18.588444 4.388898
v    99.258142 22.713405 1.815254
v    104.522545 24.676696 7.101206
v    106.908761 25.164952 9.311843
v    111.261867 26.246265 12.039994
v    101.909015 17.933945 1.815254
v    106.361962 21.360272 7.101206
v    108.039639 23.126007 9.311843
v    111.261867 26.246265 12.039994
v    101.097426 20.291922 4.388898
v    99.198475 20.804437 4.388898
v    99.704099 18.903641 4.388898
v    98.902574 19.708078 6.201773
v    100.801525 19.195563 6.201773
v    100.295901 21.096359 6.201773
v    100.384449 17.033132 3.628129
v    98.645030 16.778706 5.289627
v    92.846915 16.135107 10.777986
v    85.610411 16.172281 15.294065
v    98.859534 22.765763 3.628129
v    97.223595 22.122323 5.289627
v    91.872021 19.800036 10.777986
v    85.610411 16.172281 15.294065
v    99.191323 19.664310 6.201773
v    100.695055 19.467510 6.201773
v    100.113622 20.868180 6.201773
v    100.808677 20.335690 8.804376
v    99.304945 20.532490 8.804376
v    99.886378 19.131820 8.804376
v    98.937592 22.901414 6.230732
v    101.643993 23.675900 8.891351
v    106.631984 24.917858 13.727321
v    107.411219 25.129545 14.231757
v    114.644817 26.079216 18.669201
v    101.304662 17.199148 6.230732
v    103.763927 18.568983 8.891351
v    108.165107 21.224568 13.727321
v    108.865179 21.626957 14.231757
v    114.644817 26.079216 18.669201
v    100.493091 20.405727 8.804376
v    99.402084 20.224166 8.804376
v    100.104824 19.370107 8.804376
v    99.506909 19.594273 12.680373
v    100.597916 19.775834 12.680373
v    99.895176 20.629893 12.680373
v    102.177912 17.519761 10.106729
v    98.258396 14.986640 14.517562
v    95.443595 13.302934 17.603318
v    92.924535 11.722569 19.461042
v    86.988105 9.031701 23.425374
v    86.195149 8.641047 23.643315
v    97.985607 22.614786 10.106729
v    94.745087 19.256462 14.517562
v    92.550827 16.818596 17.603318
v    90.514926 14.651034 19.461042
v    86.731197 9.343929 23.425374
v    86.195149 8.641047 23.643315
v    99.706692 19.693118 12.680373
v    100.412421 19.899429 12.680373
v    99.880887 20.407453 12.680373
v    100.293308 20.306882 15.044000
v    99.587579 20.100571 15.044000
v    100.119113 19.592547 15.044000
v    97.496066 21.571661 9.805254
v    98.232265 22.151857 11.075058
v    102.106519 24.948371 17.503442
v    102.873860 25.309315 18.585829
v    107.584066 27.935041 23.302285
v    101.683252 17.569678 9.805254
v    102.229573 18.331354 11.075058
v    104.848080 22.328072 17.503442
v    105.173965 23.110946 18.585829
v    107.584066 27.935041 23.302285
mtllib usm_38_2.5D_2018-08-13_2.mtl
usemtl APPID_306824272_1529319923456 
o vid_3 
f 3 2 1
f 4 5 6
f 1 6 5
f 1 5 3
f 3 5 4
f 4 2 3
f 2 4 6
f 6 1 2
usemtl APPID_306826400_1529319925632 
o vid_4 
f 7 9 10
f 7 10 8
f 7 9 10
usemtl APPID_306824272_1529319923456 
o vid_5 
f 13 12 11
f 14 15 16
f 11 16 15
f 11 15 13
f 13 15 14
f 14 12 13
f 12 14 16
f 16 11 12
usemtl APPID_306826400_1529319925632 
o vid_6 
f 17 19 20
f 17 20 18
f 17 19 20
usemtl APPID_306824272_1529319923456 
o vid_7 
f 23 22 21
f 24 25 26
f 21 26 25
f 21 25 23
f 23 25 24
f 24 22 23
f 22 24 26
f 26 21 22
usemtl APPID_306826400_1529319925632 
o vid_8 
f 27 29 30
f 27 30 28
f 27 29 30
usemtl APPID_306824272_1529319923456 
o vid_9 
f 33 32 31
f 34 35 36
f 31 36 35
f 31 35 33
f 33 35 34
f 34 32 33
f 32 34 36
f 36 31 32
usemtl APPID_306826400_1529319925632 
o vid_10 
f 37 39 40
f 37 40 38
f 37 39 40
usemtl APPID_306824272_1529319923456 
o vid_11 
f 43 42 41
f 44 45 46
f 41 46 45
f 41 45 43
f 43 45 44
f 44 42 43
f 42 44 46
f 46 41 42
usemtl APPID_306826400_1529319925632 
o vid_12 
f 47 49 50
f 47 50 48
f 47 49 50
usemtl APPID_306824272_1529319923456 
o vid_13 
f 53 52 51
f 54 55 56
f 51 56 55
f 51 55 53
f 53 55 54
f 54 52 53
f 52 54 56
f 56 51 52
usemtl APPID_306826400_1529319925632 
o vid_14 
f 57 59 60
f 57 60 58
f 57 59 60
usemtl APPID_306824272_1529319923456 
o vid_15 
f 63 62 61
f 64 65 66
f 61 66 65
f 61 65 63
f 63 65 64
f 64 62 63
f 62 64 66
f 66 61 62
usemtl APPID_306826400_1529319925632 
o vid_16 
f 67 71 72
f 68 72 73
f 67 72 68
f 68 73 69
f 69 73 74
usemtl APPID_306824272_1529319923456 
o vid_17 
f 77 76 75
f 78 79 80
f 75 80 79
f 75 79 77
f 77 79 78
f 78 76 77
f 76 78 80
f 80 75 76
usemtl APPID_306826400_1529319925632 
o vid_18 
f 81 85 86
f 82 86 87
f 81 86 82
f 82 87 83
f 83 87 88
usemtl APPID_306824272_1529319923456 
o vid_19 
f 91 90 89
f 92 93 94
f 89 94 93
f 89 93 91
f 91 93 92
f 92 90 91
f 90 92 94
f 94 89 90
usemtl APPID_306826400_1529319925632 
o vid_20 
f 95 99 100
f 96 100 101
f 95 100 96
f 96 101 97
f 97 101 102
usemtl APPID_306824272_1529319923456 
o vid_21 
f 105 104 103
f 106 107 108
f 103 108 107
f 103 107 105
f 105 107 106
f 106 104 105
f 104 106 108
f 108 103 104
usemtl APPID_306826400_1529319925632 
o vid_22 
f 109 113 114
f 110 114 115
f 109 114 110
f 110 115 111
f 111 115 116
usemtl APPID_306824272_1529319923456 
o vid_23 
f 119 118 117
f 120 121 122
f 117 122 121
f 117 121 119
f 119 121 120
f 120 118 119
f 118 120 122
f 122 117 118
usemtl APPID_306826400_1529319925632 
o vid_24 
f 123 128 129
f 124 129 130
f 125 130 131
f 123 129 124
f 124 130 125
f 125 131 126
f 126 131 132
usemtl APPID_306824272_1529319923456 
o vid_25 
f 135 134 133
f 136 137 138
f 133 138 137
f 133 137 135
f 135 137 136
f 136 134 135
f 134 136 138
f 138 133 134
usemtl APPID_306826400_1529319925632 
o vid_26 
f 139 145 146
f 140 146 147
f 141 147 148
f 142 148 149
f 139 146 140
f 140 147 141
f 141 148 142
f 142 149 143
f 143 149 150
usemtl APPID_306824272_1529319923456 
o vid_27 
f 153 152 151
f 154 155 156
f 151 156 155
f 151 155 153
f 153 155 154
f 154 152 153
f 152 154 156
f 156 151 152
usemtl APPID_306826400_1529319925632 
o vid_28 
f 157 162 163
f 158 163 164
f 159 164 165
f 157 163 158
f 158 164 159
f 159 165 160
f 160 165 166
