# File generated by PlantGL - Fri Sep  4 14:43:00 2026
v    139.328441 19.672862 0.000000
v    140.619090 19.581982 0.000000
v    140.052469 20.745156 0.000000
v    140.671559 20.327138 0.188000
v    139.380910 20.418018 0.188000
v    139.947531 19.254844 0.188000
v    139.807037 20.020355 -4.918883
v    140.081345 20.039626 -4.546433
v    139.897081 19.835511 -4.918883
v    140.081345 20.039626 -4.546433
mtllib usm_36_2.5D_2018-07-08_3.mtl
usemtl APPID_269258720_2560064632048 
o vid_3 
f 3 2 1
f 4 5 6
f 1 6 5
f 1 5 3
f 3 5 4
f 4 2 3
f 2 4 6
f 6 1 2
usemtl APPID_269259840_2560064632688 
o vid_4 
f 7 9 10
f 7 10 8
f 7 9 10
