# File generated by PlantGL - Fri Sep  4 14:43:29 2026
v    17.752484 218.905161 0.000000
v    22.071916 218.601013 0.000000
v    20.175600 222.493825 0.000000
v    22.247516 221.094839 0.362700
v    17.928084 221.398987 0.362700
v    19.824400 217.506175 0.362700
v    22.063684 221.445628 0.200676
v    22.314275 221.541168 0.449887
v    22.550813 221.626930 0.683318
v    23.231537 221.883262 1.172938
v    23.871169 222.132948 1.393028
v    24.482038 222.343879 1.599344
v    22.410414 220.733852 0.200676
v    22.640113 220.872277 0.449887
v    22.853452 221.005664 0.683318
v    23.474907 221.383667 1.172938
v    24.065798 221.733408 1.393028
v    24.608442 222.084392 1.599344
v    21.879284 221.505407 0.362700
v    17.756638 220.874804 0.362700
v    20.364078 217.619789 0.362700
v    18.120716 218.494593 0.589630
v    22.243362 219.125196 0.589630
v    19.635922 222.380211 0.589630
v    18.480901 218.071205 0.361238
v    18.188457 217.876949 0.687481
v    17.867111 217.671016 1.041580
v    17.010700 217.107205 1.731759
v    16.237790 216.584927 2.030761
v    15.385634 216.057104 2.350767
v    15.253170 215.998627 2.395772
v    17.786149 218.938503 0.361238
v    17.532747 218.695508 0.687481
v    17.261642 218.426856 1.041580
v    16.524505 217.714150 1.731759
v    15.846123 217.073866 2.030761
v    15.145035 216.357457 2.350767
v    15.059057 216.240950 2.395772
v    17.841416 219.161313 0.589630
v    21.805616 218.549955 0.589630
v    20.352968 222.288732 0.589630
v    22.158584 220.838687 1.053978
v    18.194384 221.450045 1.053978
v    19.647032 217.711268 1.053978
v    21.860394 221.543520 0.738286
v    22.293845 221.668879 1.157577
v    22.835898 221.816050 1.678680
v    24.198972 222.204201 2.632670
v    25.392243 222.559577 3.031755
v    26.734779 222.902041 3.474080
v    27.083446 222.940877 3.583119
v    27.264425 222.963225 3.581093
v    22.414484 220.117423 0.738286
v    22.818868 220.317593 1.157577
v    23.318092 220.574996 1.678680
v    24.585665 221.208945 2.632670
v    25.705849 221.752430 3.031755
v    26.927425 222.406215 3.474080
v    27.210850 222.612969 3.583119
v    27.359443 222.718672 3.581093
v    22.163962 220.511898 1.053978
v    18.474702 221.618097 1.053978
v    19.361335 217.870005 1.053978
v    17.836038 219.488102 1.829186
v    21.525298 218.381903 1.829186
v    20.638665 222.129995 1.829186
v    18.108475 218.469984 1.401302
v    17.317866 218.355963 2.143576
v    16.748706 218.283395 2.675896
v    14.846331 218.017016 3.968919
v    12.937222 217.726230 4.587910
v    11.070955 217.517345 5.187430
v    10.001387 217.536533 5.247749
v    17.623442 220.520376 1.401302
v    16.865542 220.268088 2.143576
v    16.324192 220.077958 2.675896
v    14.504094 219.463765 3.968919
v    12.667041 218.868375 4.587910
v    10.904984 218.218959 5.187430
v    9.957373 217.722595 5.247749
v    18.595695 218.396392 1.829186
v    22.090917 219.585640 1.829186
v    19.313387 222.017967 1.829186
v    21.404305 221.603608 2.769464
v    17.909083 220.414360 2.769464
v    20.686613 217.982033 2.769464
v    20.309560 222.507975 2.200784
v    21.233749 223.390792 3.388440
v    21.634534 223.761247 3.894786
v    23.487876 225.517106 5.613281
v    25.531769 227.500705 6.526219
v    27.390388 229.166486 7.323012
v    28.779197 230.124360 7.306737
v    22.445207 220.637756 2.200784
v    23.198368 221.670343 3.388440
v    23.512705 222.116503 3.894786
v    25.008684 224.185311 5.613281
v    26.705271 226.473051 6.526219
v    28.111263 228.535204 7.323012
v    28.877524 230.038253 7.306737
v    21.718982 221.097521 2.769464
v    18.190028 220.939922 2.769464
v    20.090990 217.962557 2.769464
v    18.281018 218.902479 5.235228
v    21.809972 219.060078 5.235228
v    19.909010 222.037443 5.235228
v    19.281571 217.434332 4.494106
v    18.541130 217.049628 5.269487
v    17.159683 216.360440 6.701785
v    14.200940 214.838607 8.941384
v    11.876493 213.607433 9.784505
v    8.943966 212.200236 10.822912
v    7.871810 211.858484 11.172669
v    6.752076 211.486786 11.159560
v    17.370236 220.427943 4.494106
v    16.709666 219.918142 5.269487
v    15.503141 218.954983 6.701785
v    12.877540 216.911371 8.941384
v    10.782527 215.320846 9.784505
v    8.271949 213.252776 10.822912
v    7.510754 212.423985 11.172669
v    6.702371 211.564636 11.159560
v    18.420020 218.861621 5.235228
v    21.775855 219.200887 5.235228
v    19.804125 221.937492 5.235228
v    21.579980 221.138379 9.070287
v    18.224145 220.799113 9.070287
v    20.195875 218.062508 9.070287
v    20.075076 223.110648 8.123196
v    22.686408 224.659319 10.944421
v    26.348549 226.818447 13.806437
v    31.862140 230.147647 15.870911
v    34.021122 231.337021 16.657827
v    35.571512 232.202764 16.637611
v    38.494368 233.358793 16.602689
v    22.974452 219.086545 8.123196
v    25.270098 221.073363 10.944421
v    28.477441 223.863713 13.806437
v    33.380761 228.039922 15.870911
v    35.192395 229.711387 16.657827
v    36.504393 230.908000 16.637611
v    38.526200 233.314613 16.602689
v    21.381018 220.899411 9.070287
v    18.530578 220.746291 9.070287
v    20.088404 218.354297 9.070287
v    18.618982 219.100589 15.537192
v    21.469422 219.253709 15.537192
v    19.911596 221.645703 15.537192
v    20.479321 216.400359 14.350404
v    17.119372 214.615916 17.885648
v    14.720025 213.309447 19.726906
v    12.425377 212.102846 21.472006
v    3.135551 207.074341 24.857946
v    -1.733549 204.652455 24.989810
v    -4.541366 203.692137 24.956839
v    -5.518378 203.362260 24.774173
v    16.901562 221.893898 14.350404
v    13.910912 219.542407 17.885648
v    11.745838 217.876220 19.726906
v    9.714438 216.265410 21.472006
v    1.359017 209.802154 24.857946
v    -2.824863 206.328135 24.989810
v    -4.838510 204.148393 24.956839
v    -5.535271 203.388198 24.774173
v    18.871231 219.373941 15.537192
v    21.106567 219.335487 15.537192
v    20.022202 221.290572 15.537192
v    21.128769 220.626059 23.570456
v    18.893433 220.664513 23.570456
v    19.977798 218.709428 23.570456
v    19.143516 223.989381 22.112197
v    23.416928 225.884167 26.456107
v    25.039740 226.624010 27.658125
v    29.399948 228.535869 30.862823
v    39.576305 233.144768 34.443628
v    41.925952 234.098468 35.253180
v    45.675489 235.645504 35.207002
v    50.480254 236.916867 35.151781
v    22.930751 217.161088 22.112197
v    26.800863 219.783014 26.456107
v    28.287749 220.767929 27.658125
v    32.218302 223.454445 30.862823
v    41.516397 229.646828 34.443628
v    43.569554 231.135093 35.253180
v    46.867277 233.496739 35.207002
v    50.489877 236.899517 35.151781
v    20.929896 220.247358 23.570456
v    19.320834 220.681634 23.570456
v    19.749270 219.071008 23.570456
v    19.070104 219.752642 36.455601
v    20.679166 219.318366 36.455601
v    20.250730 220.928992 36.455601
v    20.408252 215.213259 34.698583
v    14.857984 214.255196 39.932444
v    12.408181 213.806017 41.611048
v    7.088900 212.910330 45.241979
v    -6.543031 210.445881 49.682296
v    -9.178278 210.076768 50.531802
v    -14.423819 209.311303 50.471451
v    -20.460482 209.237262 50.404375
v    17.975978 224.356936 34.698583
v    12.683251 222.430696 39.932444
v    10.334053 221.603311 41.611048
v    5.272776 219.737705 45.241979
v    -7.781944 215.103341 49.682296
v    -10.252295 214.114333 50.531802
v    -15.184877 212.172355 50.471451
v    -20.460482 209.237262 50.404375
v    19.388137 219.746009 36.455601
v    20.525894 219.597107 36.455601
v    20.085969 220.656884 36.455601
v    20.611863 220.253991 48.891815
v    19.474106 220.402893 48.891815
v    19.914031 219.343116 48.891815
v    18.488892 224.979157 46.815959
v    22.905509 226.366747 51.117886
v    24.850191 226.942819 52.999587
v    33.752447 229.699523 59.272622
v    43.601722 232.879860 62.590145
v    52.375838 235.333133 65.498684
v    59.429441 236.367570 65.444006
v    22.459301 215.414448 46.815959
v    26.560213 217.562573 51.117886
v    28.341173 218.533053 52.999587
v    36.578641 222.891227 59.272622
v    45.784741 227.620973 62.590145
v    53.716854 232.102629 65.498684
v    59.429441 236.367570 65.444006
v    20.302332 220.248766 48.891815
v    19.633396 220.137444 48.891815
v    20.064272 219.613790 48.891815
v    19.697668 219.751234 52.467000
v    20.366604 219.862556 52.467000
v    19.935728 220.386210 52.467000
v    20.940508 216.118460 48.191500
v    20.558180 216.187996 52.015237
v    19.730946 216.505652 58.670492
v    18.675723 216.286527 62.900991
v    16.027359 216.731218 70.716261
v    16.372238 221.670405 48.191500
v    16.366845 221.281843 52.015237
v    16.519246 220.408919 58.670492
v    16.101010 219.415648 62.900991
v    16.027359 216.731218 70.716261
v    24.482038 222.343879 1.599344
v    24.543326 222.365041 1.620044
v    24.671814 222.390238 1.660740
v    25.082587 222.475895 1.656078
v    24.608442 222.084392 1.599344
v    24.662885 222.119606 1.620044
v    24.761929 222.205248 1.660740
v    25.082587 222.475895 1.656078
v    15.253170 215.998627 2.395772
v    15.183695 215.967957 2.419376
v    14.679941 215.738349 2.413225
v    15.059057 216.240950 2.395772
v    15.013963 216.179844 2.419376
v    14.679941 215.738349 2.413225
v    27.264425 222.963225 3.581093
v    27.795402 223.028793 3.575149
v    27.359443 222.718672 3.581093
v    27.795402 223.028793 3.575149
v    10.001387 217.536533 5.247749
v    9.611545 217.542551 5.243417
v    9.957373 217.722595 5.247749
v    9.611545 217.542551 5.243417
v    28.779197 230.124360 7.306737
v    28.998588 230.275693 7.303776
v    28.877524 230.038253 7.306737
v    28.998588 230.275693 7.303776
v    6.752076 211.486786 11.159560
v    6.573318 211.427447 11.157467
v    6.702371 211.564636 11.159560
v    6.573318 211.427447 11.157467
v    38.494368 233.358793 16.602689
v    38.597626 233.399633 16.601455
v    38.526200 233.314613 16.602689
v    38.597626 233.399633 16.601455
v    -5.518378 203.362260 24.774173
v    -5.577269 203.342376 24.763162
v    -5.535271 203.388198 24.774173
v    -5.577269 203.342376 24.763162
v    50.480254 236.916867 35.151781
v    50.519367 236.927217 35.151331
v    50.489877 236.899517 35.151781
v    50.519367 236.927217 35.151331
mtllib usm_19_2.5D_2018-08-20_5.mtl
usemtl APPID_3534022320_1420965811456 
o vid_3 
f 3 2 1
f 4 5 6
f 1 6 5
f 1 5 3
f 3 5 4
f 4 2 3
f 2 4 6
f 6 1 2
usemtl APPID_3534022544_1420965813632 
o vid_4 
f 7 13 14
f 8 14 15
f 9 15 16
f 10 16 17
f 7 14 8
f 8 15 9
f 9 16 10
f 10 17 11
f 11 17 18
f 11 18 12
usemtl APPID_3534022320_1420965811456 
o vid_5 
f 21 20 19
f 22 23 24
f 19 24 23
f 19 23 21
f 21 23 22
f 22 20 21
f 20 22 24
f 24 19 20
usemtl APPID_3534022544_1420965813632 
o vid_6 
f 25 32 33
f 26 33 34
f 27 34 35
f 28 35 36
f 29 36 37
f 25 33 26
f 26 34 27
f 27 35 28
f 28 36 29
f 29 37 30
f 30 37 38
f 30 38 31
usemtl APPID_3534022320_1420965811456 
o vid_7 
f 41 40 39
f 42 43 44
f 39 44 43
f 39 43 41
f 41 43 42
f 42 40 41
f 40 42 44
f 44 39 40
usemtl APPID_3534022544_1420965813632 
o vid_8 
f 45 53 54
f 46 54 55
f 47 55 56
f 48 56 57
f 49 57 58
f 50 58 59
f 45 54 46
f 46 55 47
f 47 56 48
f 48 57 49
f 49 58 50
f 50 59 51
f 51 59 60
f 51 60 52
usemtl APPID_3534022320_1420965811456 
o vid_9 
f 63 62 61
f 64 65 66
f 61 66 65
f 61 65 63
f 63 65 64
f 64 62 63
f 62 64 66
f 66 61 62
usemtl APPID_3534022544_1420965813632 
o vid_10 
f 67 74 75
f 68 75 76
f 69 76 77
f 70 77 78
f 71 78 79
f 67 75 68
f 68 76 69
f 69 77 70
f 70 78 71
f 71 79 72
f 72 79 80
f 72 80 73
usemtl APPID_3534022320_1420965811456 
o vid_11 
f 83 82 81
f 84 85 86
f 81 86 85
f 81 85 83
f 83 85 84
f 84 82 83
f 82 84 86
f 86 81 82
usemtl APPID_3534022544_1420965813632 
o vid_12 
f 87 94 95
f 88 95 96
f 89 96 97
f 90 97 98
f 91 98 99
f 87 95 88
f 88 96 89
f 89 97 90
f 90 98 91
f 91 99 92
f 92 99 100
f 92 100 93
usemtl APPID_3534022320_1420965811456 
o vid_13 
f 103 102 101
f 104 105 106
f 101 106 105
f 101 105 103
f 103 105 104
f 104 102 103
f 102 104 106
f 106 101 102
usemtl APPID_3534022544_1420965813632 
o vid_14 
f 107 115 116
f 108 116 117
f 109 117 118
f 110 118 119
f 111 119 120
f 112 120 121
f 107 116 108
f 108 117 109
f 109 118 110
f 110 119 111
f 111 120 112
f 112 121 113
f 113 121 122
f 113 122 114
usemtl APPID_3534022320_1420965811456 
o vid_15 
f 125 124 123
f 126 127 128
f 123 128 127
f 123 127 125
f 125 127 126
f 126 124 125
f 124 126 128
f 128 123 124
usemtl APPID_3534022544_1420965813632 
o vid_16 
f 129 136 137
f 130 137 138
f 131 138 139
f 132 139 140
f 133 140 141
f 129 137 130
f 130 138 131
f 131 139 132
f 132 140 133
f 133 141 134
f 134 141 142
f 134 142 135
usemtl APPID_3534022320_1420965811456 
o vid_17 
f 145 144 143
f 146 147 148
f 143 148 147
f 143 147 145
f 145 147 146
f 146 144 145
f 144 146 148
f 148 143 144
usemtl APPID_3534022544_1420965813632 
o vid_18 
f 149 157 158
f 150 158 159
f 151 159 160
f 152 160 161
f 153 161 162
f 154 162 163
f 149 158 150
f 150 159 151
f 151 160 152
f 152 161 153
f 153 162 154
f 154 163 155
f 155 163 164
f 155 164 156
usemtl APPID_3534022320_1420965811456 
o vid_19 
f 167 166 165
f 168 169 170
f 165 170 169
f 165 169 167
f 167 169 168
f 168 166 167
f 166 168 170
f 170 165 166
usemtl APPID_3534022544_1420965813632 
o vid_20 
f 171 179 180
f 172 180 181
f 173 181 182
f 174 182 183
f 175 183 184
f 176 184 185
f 171 180 172
f 172 181 173
f 173 182 174
f 174 183 175
f 175 184 176
f 176 185 177
f 177 185 186
f 177 186 178
usemtl APPID_3534022320_1420965811456 
o vid_21 
f 189 188 187
f 190 191 192
f 187 192 191
f 187 191 189
f 189 191 190
f 190 188 189
f 188 190 192
f 192 187 188
usemtl APPID_3534022544_1420965813632 
o vid_22 
f 193 201 202
f 194 202 203
f 195 203 204
f 196 204 205
f 197 205 206
f 198 206 207
f 193 202 194
f 194 203 195
f 195 204 196
f 196 205 197
f 197 206 198
f 198 207 199
f 199 207 208
usemtl APPID_3534022320_1420965811456 
o vid_23 
f 211 210 209
f 212 213 214
f 209 214 213
f 209 213 211
f 211 213 212
f 212 210 211
f 210 212 214
f 214 209 210
usemtl APPID_3534022544_1420965813632 
o vid_24 
f 215 222 223
f 216 223 224
f 217 224 225
f 218 225 226
f 219 226 227
f 215 223 216
f 216 224 217
f 217 225 218
f 218 226 219
f 219 227 220
f 220 227 228
usemtl APPID_3534022320_1420965811456 
o vid_25 
f 231 230 229
f 232 233 234
f 229 234 233
f 229 233 231
f 231 233 232
f 232 230 231
f 230 232 234
f 234 229 230
usemtl APPID_3534022544_1420965813632 
o vid_26 
f 235 240 241
f 236 241 242
f 237 242 243
f 235 241 236
f 236 242 237
f 237 243 238
f 238 243 244
usemtl APPID_3534020864_1420965815424 
o vid_10000004 
f 245 249 250
f 246 250 251
f 245 250 246
f 246 251 247
f 247 251 252
usemtl APPID_3534020864_1420965815424 
o vid_10000006 
f 253 256 257
f 253 257 254
f 254 257 258
usemtl APPID_3534020864_1420965815424 
o vid_10000008 
f 259 261 262
f 259 262 260
f 259 261 262
usemtl APPID_3534020864_1420965815424 
o vid_10000010 
f 263 265 266
f 263 266 264
f 263 265 266
usemtl APPID_3534020864_1420965815424 
o vid_10000012 
f 267 269 270
f 267 270 268
f 267 269 270
usemtl APPID_3534020864_1420965815424 
o vid_10000014 
f 271 273 274
f 271 274 272
f 271 273 274
usemtl APPID_3534020864_1420965815424 
o vid_10000016 
f 275 277 278
f 275 278 276
f 275 277 278
usemtl APPID_3534020864_1420965815424 
o vid_10000018 
f 279 281 282
f 279 282 280
f 279 281 282
usemtl APPID_3534020864_1420965815424 
o vid_10000020 
f 283 285 286
f 283 286 284
f 283 285 286
