# File generated by PlantGL - Fri Sep  4 14:42:10 2026
v    17.752484 58.905161 0.000000
v    22.071916 58.601013 0.000000
v    20.175600 62.493825 0.000000
v    22.247516 61.094839 0.848509
v    17.928084 61.398987 0.848509
v    19.824400 57.506175 0.848509
v    22.062214 61.449102 0.689256
v    22.419211 61.585210 1.044288
v    22.540157 61.629062 1.163645
v    23.209242 61.881011 1.644894
v    23.981515 62.182476 1.910625
v    24.614338 62.400986 2.124356
v    25.179177 62.522947 2.117924
v    22.412243 60.730552 0.689256
v    22.739478 60.927756 1.044288
v    22.848562 60.995959 1.163645
v    23.459391 61.367499 1.644894
v    24.172817 61.789767 1.910625
v    24.734963 62.153364 2.124356
v    25.179177 62.522947 2.117924
v    21.879284 61.505407 0.848509
v    17.756638 60.874804 0.848509
v    20.364078 57.619789 0.848509
v    18.120716 58.494593 1.417165
v    22.243362 59.125196 1.417165
v    19.635922 62.380211 1.417165
v    18.493094 58.055646 1.191709
v    17.952369 57.696469 1.794928
v    17.044918 57.100141 2.544610
v    15.955758 56.364164 2.965954
v    15.270232 55.939552 3.223386
v    14.402512 55.516114 3.212591
v    17.773626 58.953798 1.191709
v    17.305090 58.504504 1.794928
v    16.525080 57.749085 2.544610
v    15.569126 56.846817 2.965954
v    15.005129 56.270495 3.223386
v    14.402512 55.516114 3.212591
v    17.915367 59.190045 1.417165
v    21.743758 58.599632 1.417165
v    20.340875 62.210323 1.417165
v    22.084633 60.809955 2.253766
v    18.256242 61.400368 2.253766
v    19.659125 57.789677 2.253766
v    21.797485 61.486925 1.940865
v    22.765924 61.753030 2.872945
v    24.116947 62.137750 3.818501
v    24.974292 62.393081 4.105237
v    26.304959 62.732518 4.543651
v    26.998510 62.809768 4.760547
v    27.340318 62.851977 4.756721
v    22.329866 60.116699 1.940865
v    23.223926 60.574241 2.872945
v    24.480292 61.202586 3.818501
v    25.285125 61.593070 4.105237
v    26.495902 62.241075 4.543651
v    27.059676 62.652341 4.760547
v    27.340318 62.851977 4.756721
v    21.751708 60.414377 2.253766
v    18.765285 61.309835 2.253766
v    19.483007 58.275788 2.253766
v    18.248292 59.585623 4.112548
v    21.234715 58.690165 4.112548
v    20.516993 61.724212 4.112548
v    18.517240 58.581579 3.686826
v    17.832731 58.482860 4.329487
v    17.163951 58.397590 4.954979
v    15.271190 58.132557 6.241468
v    13.504418 57.863451 6.814308
v    11.647582 57.655622 7.410798
v    10.202106 57.682251 7.511135
v    18.038883 60.603752 3.686826
v    17.382692 60.385321 4.329487
v    16.746590 60.161913 4.954979
v    14.935691 59.550824 6.241468
v    13.235602 58.999824 6.814308
v    11.482450 58.353690 7.410798
v    10.202106 57.682251 7.511135
v    19.082651 58.952458 4.112548
v    21.365873 59.729323 4.112548
v    19.551476 61.318219 4.112548
v    20.917349 61.047542 5.999272
v    18.634127 60.270677 5.999272
v    20.448524 58.681781 5.999272
v    19.796602 61.974763 5.431444
v    21.018153 63.141630 7.001235
v    22.965028 64.983880 8.838831
v    25.391598 67.338867 9.922698
v    26.851084 68.646927 10.548382
v    28.871003 70.130001 10.520345
v    21.984335 60.058930 5.431444
v    22.979830 61.423758 7.001235
v    24.549104 63.596679 8.838831
v    26.563342 66.312752 9.922698
v    27.667402 67.932064 10.548382
v    28.871003 70.130001 10.520345
v    20.854319 60.545458 5.999272
v    19.100460 60.467133 5.999272
v    20.045221 58.987409 5.999272
v    19.145681 59.454542 11.505015
v    20.899540 59.532867 11.505015
v    19.954779 61.012591 11.505015
v    20.158388 57.967541 10.762541
v    19.225121 57.482652 11.739847
v    18.034544 56.888687 12.974248
v    15.070403 55.364078 15.217934
v    12.493625 53.999253 16.152580
v    9.555747 52.589489 17.192881
v    8.757482 52.335040 17.453290
v    7.168894 51.807705 17.434692
v    18.222911 60.998964 10.762541
v    17.390315 60.356400 11.739847
v    16.350492 59.526318 12.974248
v    13.720100 57.478977 15.217934
v    11.397663 55.715793 16.152580
v    8.882504 53.643949 17.192881
v    8.315762 53.026881 17.453290
v    7.168894 51.807705 17.434692
v    19.461636 59.612107 11.505015
v    20.605107 59.727709 11.505015
v    19.933257 60.660183 11.505015
v    20.538364 60.387893 13.474000
v    19.394893 60.272291 13.474000
v    20.066743 59.339817 13.474000
v    19.748433 61.852531 11.611205
v    21.392483 62.640568 15.359781
v    23.840972 63.755712 19.193833
v    26.221211 64.482397 21.291136
v    21.677634 59.174953 11.611205
v    22.945569 60.485009 15.359781
v    24.778434 62.454590 19.193833
v    26.221211 64.482397 21.291136
mtllib usm_2_2.5D_2018-07-21_1.mtl
usemtl APPID_1970446976_1595404355840 
o vid_3 
f 3 2 1
f 4 5 6
f 1 6 5
f 1 5 3
f 3 5 4
f 4 2 3
f 2 4 6
f 6 1 2
usemtl APPID_1970447424_1595404352384 
o vid_4 
f 7 14 15
f 8 15 16
f 9 16 17
f 10 17 18
f 11 18 19
f 7 15 8
f 8 16 9
f 9 17 10
f 10 18 11
f 11 19 12
f 12 19 20
usemtl APPID_1970446976_1595404355840 
o vid_5 
f 23 22 21
f 24 25 26
f 21 26 25
f 21 25 23
f 23 25 24
f 24 22 23
f 22 24 26
f 26 21 22
usemtl APPID_1970447424_1595404352384 
o vid_6 
f 27 33 34
f 28 34 35
f 29 35 36
f 30 36 37
f 27 34 28
f 28 35 29
f 29 36 30
f 30 37 31
f 31 37 38
usemtl APPID_1970446976_1595404355840 
o vid_7 
f 41 40 39
f 42 43 44
f 39 44 43
f 39 43 41
f 41 43 42
f 42 40 41
f 40 42 44
f 44 39 40
usemtl APPID_1970447424_1595404352384 
o vid_8 
f 45 52 53
f 46 53 54
f 47 54 55
f 48 55 56
f 49 56 57
f 45 53 46
f 46 54 47
f 47 55 48
f 48 56 49
f 49 57 50
f 50 57 58
usemtl APPID_1970446976_1595404355840 
o vid_9 
f 61 60 59
f 62 63 64
f 59 64 63
f 59 63 61
f 61 63 62
f 62 60 61
f 60 62 64
f 64 59 60
usemtl APPID_1970447424_1595404352384 
o vid_10 
f 65 72 73
f 66 73 74
f 67 74 75
f 68 75 76
f 69 76 77
f 65 73 66
f 66 74 67
f 67 75 68
f 68 76 69
f 69 77 70
f 70 77 78
usemtl APPID_1970446976_1595404355840 
o vid_11 
f 81 80 79
f 82 83 84
f 79 84 83
f 79 83 81
f 81 83 82
f 82 80 81
f 80 82 84
f 84 79 80
usemtl APPID_1970447424_1595404352384 
o vid_12 
f 85 91 92
f 86 92 93
f 87 93 94
f 88 94 95
f 85 92 86
f 86 93 87
f 87 94 88
f 88 95 89
f 89 95 96
usemtl APPID_1970446976_1595404355840 
o vid_13 
f 99 98 97
f 100 101 102
f 97 102 101
f 97 101 99
f 99 101 100
f 100 98 99
f 98 100 102
f 102 97 98
usemtl APPID_1970447424_1595404352384 
o vid_14 
f 103 111 112
f 104 112 113
f 105 113 114
f 106 114 115
f 107 115 116
f 108 116 117
f 103 112 104
f 104 113 105
f 105 114 106
f 106 115 107
f 107 116 108
f 108 117 109
f 109 117 118
usemtl APPID_1970446976_1595404355840 
o vid_15 
f 121 120 119
f 122 123 124
f 119 124 123
f 119 123 121
f 121 123 122
f 122 120 121
f 120 122 124
f 124 119 120
usemtl APPID_1970447424_1595404352384 
o vid_16 
f 125 129 130
f 126 130 131
f 125 130 126
f 126 131 127
f 127 131 132
