# File generated by PlantGL - Fri Sep  4 14:41:55 2026
v    17.752484 218.905161 0.000000
v    22.071916 218.601013 0.000000
v    20.175600 222.493825 0.000000
v    22.247516 221.094839 0.848018
v    17.928084 221.398987 0.848018
v    19.824400 217.506175 0.848018
v    22.062184 221.449156 0.688716
v    22.418649 221.585061 1.043219
v    22.463190 221.601210 1.087175
v    22.412266 220.730496 0.688716
v    22.739014 220.927406 1.043219
v    22.779187 220.952523 1.087175
v    21.879284 221.505407 0.848018
v    17.756638 220.874804 0.848018
v    20.364078 217.619789 0.848018
v    18.120716 218.494593 1.416666
v    22.243362 219.125196 1.416666
v    19.635922 222.380211 1.416666
v    18.493117 218.055620 1.191176
v    18.179227 217.847118 1.541345
v    17.773606 218.953827 1.191176
v    17.501621 218.693011 1.541345
v    17.841416 219.161313 1.416666
v    21.805616 218.549955 1.416666
v    20.352968 222.288732 1.416666
v    22.158584 220.838687 2.253758
v    18.194384 221.450045 2.253758
v    19.647032 217.711268 2.253758
v    21.871433 221.515662 1.940857
v    22.050431 221.567430 2.114007
v    22.260965 221.624591 2.316404
v    22.403819 220.145427 1.940857
v    22.570813 220.228089 2.114007
v    22.764712 220.328065 2.316404
v    22.163962 220.511898 2.253758
v    18.474702 221.618097 2.253758
v    19.361335 217.870005 2.253758
v    17.836038 219.488102 4.113040
v    21.525298 218.381903 4.113040
v    20.638665 222.129995 4.113040
v    18.105016 218.483911 3.687377
v    17.417344 218.384736 4.333007
v    16.751926 218.299895 4.955355
v    14.859426 218.034898 6.241667
v    14.464537 217.974751 6.369702
v    17.626590 220.506376 3.687377
v    16.967368 220.286935 4.333007
v    16.334463 220.064650 4.955355
v    14.523813 219.453645 6.241667
v    14.143828 219.330492 6.369702
v    18.595695 218.396392 4.113040
v    22.090917 219.585640 4.113040
v    19.313387 222.017967 4.113040
v    21.404305 221.603608 6.000766
v    17.909083 220.414360 6.000766
v    20.686613 217.982033 6.000766
v    20.283419 222.530963 5.433090
v    21.509369 223.702032 7.008533
v    23.450917 225.539346 8.839565
v    25.882939 227.899625 9.925868
v    25.972698 227.980071 9.964348
v    22.471442 220.614877 5.433090
v    23.470522 221.984620 7.008533
v    25.035606 224.151609 8.839565
v    27.054370 226.873785 9.925868
v    27.122270 226.973372 9.964348
v    21.718982 221.097521 6.000766
v    18.190028 220.939922 6.000766
v    20.090990 217.962557 6.000766
v    18.281018 218.902479 12.885860
v    21.809972 219.060078 12.885860
v    19.909010 222.037443 12.885860
v    19.368598 217.298169 12.143674
v    17.257375 216.201260 14.354522
v    14.296559 214.673837 16.597336
v    9.912626 212.351829 18.187472
v    8.092933 211.478634 18.831824
v    7.999510 211.433142 18.830641
v    17.283338 220.564188 12.143674
v    15.399851 219.110589 14.354522
v    12.768306 217.067448 16.597336
v    8.817090 214.067702 18.187472
v    7.259225 212.784422 18.831824
v    7.178643 212.718817 18.830641
v    18.420020 218.861621 12.885860
v    21.775855 219.200887 12.885860
v    19.804125 221.937492 12.885860
v    21.579980 221.138379 19.685705
v    18.224145 220.799113 19.685705
v    20.195875 218.062508 19.685705
v    20.091978 223.086676 18.734440
v    22.668485 224.614693 21.518040
v    26.397472 226.804756 24.442732
v    31.431162 229.844184 26.327515
v    34.117629 231.324147 27.306692
v    34.851496 231.733940 27.297122
v    22.957063 219.110166 18.734440
v    25.222094 221.070487 21.518040
v    28.479941 223.914455 24.442732
v    32.956478 227.727168 26.327515
v    35.210732 229.807007 27.306692
v    35.831757 230.373416 27.297122
v    21.554633 221.012481 19.685705
v    18.345849 220.840111 19.685705
v    20.099518 218.147408 19.685705
v    18.445367 218.987519 30.882667
v    21.654151 219.159889 30.882667
v    19.900482 221.852592 30.882667
v    20.238006 216.392358 29.687393
v    16.854032 214.595156 33.247915
v    12.111439 212.087202 36.859917
v    4.664774 208.056384 39.574065
v    2.177981 206.835306 40.458509
v    -0.147794 205.676672 40.428927
v    -0.759094 205.467598 40.421749
v    16.796670 221.676425 29.687393
v    13.784636 219.308120 33.247915
v    9.573189 215.984607 36.859917
v    2.875538 210.803702 39.574065
v    0.753203 209.023008 40.458509
v    -1.246912 207.364334 40.428927
v    -1.685310 206.889775 40.421749
v    18.458123 219.144816 30.882667
v    21.511550 219.092287 30.882667
v    20.030327 221.762897 30.882667
v    21.541877 220.855184 48.444344
v    18.488450 220.907713 48.444344
v    19.969673 218.237103 48.444344
v    19.440360 224.426043 46.971997
v    23.755056 226.339135 51.357873
v    27.711742 228.142994 54.288593
v    29.777858 229.048943 55.807162
v    42.375434 234.754418 60.239933
v    49.006627 237.506653 60.158175
v    51.262484 238.103564 60.132249
v    23.458354 217.181695 46.971997
v    27.365855 219.828951 51.357873
v    30.991129 222.230338 54.288593
v    32.853650 223.503363 55.807162
v    44.364003 231.169075 60.239933
v    50.209928 235.337130 60.158175
v    51.910754 236.934748 60.132249
v    21.614895 220.429572 48.444344
v    18.820532 221.183754 48.444344
v    19.564573 218.386674 48.444344
v    18.385105 219.570428 69.931697
v    21.179468 218.816246 69.931697
v    20.435427 221.613326 69.931697
v    19.815054 214.691801 68.153705
v    14.198529 213.722301 73.450046
v    8.026623 212.590662 77.679033
v    -10.083036 209.337487 84.175934
v    -19.874425 207.843123 84.063089
v    -24.052582 207.801454 83.611447
v    17.202091 224.514741 68.153705
v    11.846182 222.565506 73.450046
v    5.927734 220.481037 77.679033
v    -11.404790 214.306373 84.175934
v    -20.644567 210.738329 84.063089
v    -24.291215 208.698552 83.611447
v    18.541706 219.394647 69.931697
v    21.253398 219.039757 69.931697
v    20.204896 221.565597 69.931697
v    21.458294 220.605353 94.018022
v    18.746602 220.960243 94.018022
v    19.795104 218.434403 94.018022
v    19.030282 226.059924 91.913148
v    25.467512 228.082340 98.183217
v    31.949989 230.193345 102.777995
v    34.456098 230.969395 104.543942
v    53.270121 237.044455 110.881053
v    63.822414 240.111196 110.755885
v    66.607963 240.520070 110.724604
v    69.713735 240.963507 110.168870
v    23.606922 215.034807 91.913148
v    29.584011 218.165703 98.183217
v    35.655782 221.266097 102.777995
v    37.974745 222.492984 104.543942
v    55.560177 231.527716 110.881053
v    65.182176 236.835533 110.755885
v    67.438399 238.519551 110.724604
v    69.945184 240.405945 110.168870
v    21.034685 220.851363 94.018022
v    18.745355 220.470382 94.018022
v    20.219960 218.678254 94.018022
v    18.965315 219.148637 114.176685
v    21.254645 219.529618 114.176685
v    19.780040 221.321746 114.176685
v    23.165446 214.320370 111.733819
v    16.699869 209.902258 119.010707
v    7.630484 203.738982 126.392808
v    -6.017770 194.253269 131.720352
v    -11.371606 190.839125 133.747503
v    -15.226306 188.349734 133.695262
v    -22.325810 185.000637 133.608046
v    15.036281 224.199969 111.733819
v    9.455737 218.706253 119.010707
v    1.661258 210.993548 126.392808
v    -10.275261 199.427515 131.720352
v    -14.656531 194.831386 133.747503
v    -17.841659 191.528244 133.695262
v    -22.495278 185.206597 133.608046
v    19.282121 219.248899 114.176685
v    21.009412 219.753849 114.176685
v    19.708467 220.997252 114.176685
v    20.717879 220.751101 134.519744
v    18.990588 220.246151 134.519744
v    20.291533 219.002748 134.519744
v    15.230455 225.719542 131.740352
v    21.934954 231.587466 140.019695
v    24.077466 233.502383 141.956362
v    31.327803 239.795582 148.418746
v    46.786997 253.543599 155.049947
v    50.992219 256.994477 156.786615
v    56.450228 261.526104 156.705852
v    64.540047 266.601269 156.599745
v    25.929317 215.493902 131.740352
v    31.488143 222.456824 140.019695
v    33.304243 224.683716 141.956362
v    39.263233 232.211144 148.418746
v    52.298311 248.276055 155.049947
v    55.555551 252.632987 156.786615
v    59.835797 258.290282 156.705852
v    64.540047 266.601269 156.599745
v    20.537066 220.547364 134.519744
v    19.257436 220.191431 134.519744
v    20.205498 219.261205 134.519744
v    19.462934 219.452636 147.351462
v    20.742564 219.808569 147.351462
v    19.794502 220.738795 147.351462
v    25.059394 214.273553 144.251353
v    20.747543 210.598474 149.516050
v    17.445721 207.876557 153.486058
v    6.816488 198.892226 162.854283
v    -3.639851 189.836087 167.288182
v    -14.269992 181.343652 171.631828
v    -23.305792 175.863839 172.090186
v    14.178504 224.949732 144.251353
v    10.585973 220.568867 149.516050
v    7.927251 217.215948 153.486058
v    -0.853603 206.418013 162.854283
v    -9.709535 195.791576 167.288182
v    -17.998564 185.002075 171.631828
v    -23.305792 175.863839 172.090186
v    19.649270 219.611392 147.351462
v    20.511909 219.890563 147.351462
v    19.838821 220.498045 147.351462
v    20.350730 220.388608 156.068789
v    19.488091 220.109437 156.068789
v    20.161179 219.501955 156.068789
v    14.655291 225.200784 152.678935
v    22.757695 232.468063 162.776741
v    33.960804 242.767986 173.020546
v    36.130287 244.811280 173.975806
v    47.356806 254.573842 178.725422
v    56.679773 260.641106 182.182684
v    25.719765 215.214777 152.678935
v    32.120956 224.017449 162.776741
v    41.222032 236.214518 173.020546
v    43.032915 238.581459 173.975806
v    51.597051 250.746898 178.725422
v    56.679773 260.641106 182.182684
v    20.303202 220.059025 156.068789
v    19.797282 220.233068 156.068789
v    19.899516 219.707907 156.068789
v    19.696798 219.940975 157.771000
v    20.202718 219.766932 157.771000
v    20.100484 220.292093 157.771000
v    18.859937 214.536388 151.171007
v    18.566110 214.643616 153.238787
v    16.523303 215.868919 166.907275
v    15.674212 216.038964 169.640099
v    11.747243 218.393411 181.256862
v    16.893631 224.636946 151.171007
v    16.661486 224.427326 153.238787
v    15.227508 222.525186 166.907275
v    14.504213 222.049041 169.640099
v    11.747243 218.393411 181.256862
v    22.463190 221.601210 1.087175
v    23.209568 221.881186 1.644646
v    23.981245 222.182418 1.910172
v    24.615108 222.401288 2.124254
v    25.179233 222.522974 2.117831
v    22.779187 220.952523 1.087175
v    23.459730 221.367647 1.644646
v    24.172605 221.789589 1.910172
v    24.735676 222.153785 2.124254
v    25.179233 222.522974 2.117831
v    18.179227 217.847118 1.541345
v    17.952793 217.696709 1.793949
v    17.044720 217.099981 2.544278
v    15.956020 216.364314 2.965444
v    15.269751 215.939242 3.223156
v    14.402572 215.516162 3.212368
v    17.501621 218.693011 1.541345
v    17.305418 218.504865 1.793949
v    16.524880 217.748926 2.544278
v    15.569331 216.847040 2.965444
v    15.004722 216.270092 3.223156
v    14.402572 215.516162 3.212368
v    22.260965 221.624591 2.316404
v    22.839874 221.781768 2.872938
v    24.190898 222.166488 3.818495
v    25.048301 222.421837 4.105250
v    26.378970 222.761274 4.543665
v    27.072461 222.838518 4.760542
v    27.414333 222.880734 4.756715
v    22.764712 220.328065 2.316404
v    23.297879 220.602969 2.872938
v    24.554247 221.231314 3.818495
v    25.359135 221.621825 4.105250
v    26.569913 222.269831 4.543665
v    27.133638 222.681061 4.760542
v    27.414333 222.880734 4.756715
v    14.464537 217.974751 6.369702
v    13.088664 217.765184 6.815801
v    11.232084 217.557384 7.412209
v    10.875106 217.567158 7.523203
v    9.786597 217.583960 7.511107
v    14.143828 219.330492 6.369702
v    12.819885 218.901401 6.815801
v    11.066975 218.255356 7.412209
v    10.752211 218.086678 7.523203
v    9.786597 217.583960 7.511107
v    25.972698 227.980071 9.964348
v    27.335678 229.201637 10.548660
v    27.756088 229.582804 10.542199
v    29.361695 230.690334 10.520527
v    27.122270 226.973372 9.964348
v    28.153326 228.485610 10.548660
v    28.475691 228.952636 10.542199
v    29.361695 230.690334 10.520527
v    7.999510 211.433142 18.830641
v    6.923672 210.909272 18.817018
v    4.503383 210.105852 18.788684
v    7.178643 212.718817 18.830641
v    6.250691 211.963324 18.817018
v    4.503383 210.105852 18.788684
v    34.851496 231.733940 27.297122
v    35.132895 231.891074 27.293453
v    38.172348 233.093219 27.257137
v    35.831757 230.373416 27.297122
v    36.069887 230.590603 27.293453
v    38.172348 233.093219 27.257137
v    -0.759094 205.467598 40.421749
v    -4.033764 204.347610 40.383296
v    -1.685310 206.889775 40.421749
v    -4.033764 204.347610 40.383296
v    51.262484 238.103564 60.132249
v    51.414821 238.143873 60.130498
v    53.861915 238.781123 59.682564
v    51.910754 236.934748 60.132249
v    52.025610 237.042635 60.130498
v    53.861915 238.781123 59.682564
v    -24.052582 207.801454 83.611447
v    -25.868603 207.786306 83.289747
v    -25.915311 207.786245 83.275855
v    -24.291215 208.698552 83.611447
v    -25.874746 207.809398 83.289747
v    -25.915311 207.786245 83.275855
v    69.713735 240.963507 110.168870
v    70.913813 241.134852 109.954133
v    69.945184 240.405945 110.168870
v    70.913813 241.134852 109.954133
v    -22.325810 185.000637 133.608046
v    -22.817715 184.768588 133.602003
v    -22.495278 185.206597 133.608046
v    -22.817715 184.768588 133.602003
mtllib usm_18_Beer_2018-08-14_5.mtl
usemtl APPID_2876511728_2459690769632 
o vid_3 
f 3 2 1
f 4 5 6
f 1 6 5
f 1 5 3
f 3 5 4
f 4 2 3
f 2 4 6
f 6 1 2
usemtl APPID_2876506912_2459690770656 
o vid_4 
f 7 10 11
f 7 11 8
f 8 11 12
f 8 12 9
usemtl APPID_2876511728_2459690769632 
o vid_5 
f 15 14 13
f 16 17 18
f 13 18 17
f 13 17 15
f 15 17 16
f 16 14 15
f 14 16 18
f 18 13 14
usemtl APPID_2876506912_2459690770656 
o vid_6 
f 19 21 22
f 19 22 20
f 19 21 22
f 19 22 20
usemtl APPID_2876511728_2459690769632 
o vid_7 
f 25 24 23
f 26 27 28
f 23 28 27
f 23 27 25
f 25 27 26
f 26 24 25
f 24 26 28
f 28 23 24
usemtl APPID_2876506912_2459690770656 
o vid_8 
f 29 32 33
f 29 33 30
f 30 33 34
f 30 34 31
usemtl APPID_2876511728_2459690769632 
o vid_9 
f 37 36 35
f 38 39 40
f 35 40 39
f 35 39 37
f 37 39 38
f 38 36 37
f 36 38 40
f 40 35 36
usemtl APPID_2876506912_2459690770656 
o vid_10 
f 41 46 47
f 42 47 48
f 43 48 49
f 41 47 42
f 42 48 43
f 43 49 44
f 44 49 50
f 44 50 45
usemtl APPID_2876511728_2459690769632 
o vid_11 
f 53 52 51
f 54 55 56
f 51 56 55
f 51 55 53
f 53 55 54
f 54 52 53
f 52 54 56
f 56 51 52
usemtl APPID_2876506912_2459690770656 
o vid_12 
f 57 62 63
f 58 63 64
f 59 64 65
f 57 63 58
f 58 64 59
f 59 65 60
f 60 65 66
f 60 66 61
usemtl APPID_2876511728_2459690769632 
o vid_13 
f 69 68 67
f 70 71 72
f 67 72 71
f 67 71 69
f 69 71 70
f 70 68 69
f 68 70 72
f 72 67 68
usemtl APPID_2876506912_2459690770656 
o vid_14 
f 73 79 80
f 74 80 81
f 75 81 82
f 76 82 83
f 73 80 74
f 74 81 75
f 75 82 76
f 76 83 77
f 77 83 84
f 77 84 78
usemtl APPID_2876511728_2459690769632 
o vid_15 
f 87 86 85
f 88 89 90
f 85 90 89
f 85 89 87
f 87 89 88
f 88 86 87
f 86 88 90
f 90 85 86
usemtl APPID_2876506912_2459690770656 
o vid_16 
f 91 97 98
f 92 98 99
f 93 99 100
f 94 100 101
f 91 98 92
f 92 99 93
f 93 100 94
f 94 101 95
f 95 101 102
f 95 102 96
usemtl APPID_2876511728_2459690769632 
o vid_17 
f 105 104 103
f 106 107 108
f 103 108 107
f 103 107 105
f 105 107 106
f 106 104 105
f 104 106 108
f 108 103 104
usemtl APPID_2876506912_2459690770656 
o vid_18 
f 109 116 117
f 110 117 118
f 111 118 119
f 112 119 120
f 113 120 121
f 109 117 110
f 110 118 111
f 111 119 112
f 112 120 113
f 113 121 114
f 114 121 122
f 114 122 115
usemtl APPID_2876511728_2459690769632 
o vid_19 
f 125 124 123
f 126 127 128
f 123 128 127
f 123 127 125
f 125 127 126
f 126 124 125
f 124 126 128
f 128 123 124
usemtl APPID_2876506912_2459690770656 
o vid_20 
f 129 136 137
f 130 137 138
f 131 138 139
f 132 139 140
f 133 140 141
f 129 137 130
f 130 138 131
f 131 139 132
f 132 140 133
f 133 141 134
f 134 141 142
f 134 142 135
usemtl APPID_2876511728_2459690769632 
o vid_21 
f 145 144 143
f 146 147 148
f 143 148 147
f 143 147 145
f 145 147 146
f 146 144 145
f 144 146 148
f 148 143 144
usemtl APPID_2876506912_2459690770656 
o vid_22 
f 149 155 156
f 150 156 157
f 151 157 158
f 152 158 159
f 149 156 150
f 150 157 151
f 151 158 152
f 152 159 153
f 153 159 160
f 153 160 154
usemtl APPID_2876511728_2459690769632 
o vid_23 
f 163 162 161
f 164 165 166
f 161 166 165
f 161 165 163
f 163 165 164
f 164 162 163
f 162 164 166
f 166 161 162
usemtl APPID_2876506912_2459690770656 
o vid_24 
f 167 175 176
f 168 176 177
f 169 177 178
f 170 178 179
f 171 179 180
f 172 180 181
f 167 176 168
f 168 177 169
f 169 178 170
f 170 179 171
f 171 180 172
f 172 181 173
f 173 181 182
f 173 182 174
usemtl APPID_2876511728_2459690769632 
o vid_25 
f 185 184 183
f 186 187 188
f 183 188 187
f 183 187 185
f 185 187 186
f 186 184 185
f 184 186 188
f 188 183 184
usemtl APPID_2876506912_2459690770656 
o vid_26 
f 189 196 197
f 190 197 198
f 191 198 199
f 192 199 200
f 193 200 201
f 189 197 190
f 190 198 191
f 191 199 192
f 192 200 193
f 193 201 194
f 194 201 202
f 194 202 195
usemtl APPID_2876511728_2459690769632 
o vid_27 
f 205 204 203
f 206 207 208
f 203 208 207
f 203 207 205
f 205 207 206
f 206 204 205
f 204 206 208
f 208 203 204
usemtl APPID_2876506912_2459690770656 
o vid_28 
f 209 217 218
f 210 218 219
f 211 219 220
f 212 220 221
f 213 221 222
f 214 222 223
f 209 218 210
f 210 219 211
f 211 220 212
f 212 221 213
f 213 222 214
f 214 223 215
f 215 223 224
usemtl APPID_2876511728_2459690769632 
o vid_29 
f 227 226 225
f 228 229 230
f 225 230 229
f 225 229 227
f 227 229 228
f 228 226 227
f 226 228 230
f 230 225 226
usemtl APPID_2876506912_2459690770656 
o vid_30 
f 231 238 239
f 232 239 240
f 233 240 241
f 234 241 242
f 235 242 243
f 231 239 232
f 232 240 233
f 233 241 234
f 234 242 235
f 235 243 236
f 236 243 244
usemtl APPID_2876511728_2459690769632 
o vid_31 
f 247 246 245
f 248 249 250
f 245 250 249
f 245 249 247
f 247 249 248
f 248 246 247
f 246 248 250
f 250 245 246
usemtl APPID_2876506912_2459690770656 
o vid_32 
f 251 257 258
f 252 258 259
f 253 259 260
f 254 260 261
f 251 258 252
f 252 259 253
f 253 260 254
f 254 261 255
f 255 261 262
usemtl APPID_2876511728_2459690769632 
o vid_33 
f 265 264 263
f 266 267 268
f 263 268 267
f 263 267 265
f 265 267 266
f 266 264 265
f 264 266 268
f 268 263 264
usemtl APPID_2876506912_2459690770656 
o vid_34 
f 269 274 275
f 270 275 276
f 271 276 277
f 269 275 270
f 270 276 271
f 271 277 272
f 272 277 278
usemtl APPID_2876509936_2459690769376 
o vid_10000004 
f 279 284 285
f 280 285 286
f 281 286 287
f 279 285 280
f 280 286 281
f 281 287 282
f 282 287 288
usemtl APPID_2876509936_2459690769376 
o vid_10000006 
f 289 295 296
f 290 296 297
f 291 297 298
f 292 298 299
f 289 296 290
f 290 297 291
f 291 298 292
f 292 299 293
f 293 299 300
usemtl APPID_2876509936_2459690769376 
o vid_10000008 
f 301 308 309
f 302 309 310
f 303 310 311
f 304 311 312
f 305 312 313
f 301 309 302
f 302 310 303
f 303 311 304
f 304 312 305
f 305 313 306
f 306 313 314
usemtl APPID_2876509936_2459690769376 
o vid_10000010 
f 315 320 321
f 316 321 322
f 317 322 323
f 315 321 316
f 316 322 317
f 317 323 318
f 318 323 324
usemtl APPID_2876509936_2459690769376 
o vid_10000012 
f 325 329 330
f 326 330 331
f 325 330 326
f 326 331 327
f 327 331 332
usemtl APPID_2876509936_2459690769376 
o vid_10000014 
f 333 336 337
f 333 337 334
f 334 337 338
usemtl APPID_2876509936_2459690769376 
o vid_10000016 
f 339 342 343
f 339 343 340
f 340 343 344
usemtl APPID_2876509936_2459690769376 
o vid_10000018 
f 345 347 348
f 345 348 346
f 345 347 348
usemtl APPID_2876509936_2459690769376 
o vid_10000020 
f 349 352 353
f 349 353 350
f 350 353 354
usemtl APPID_2876509936_2459690769376 
o vid_10000022 
f 355 358 359
f 355 359 356
f 356 359 360
usemtl APPID_2876509936_2459690769376 
o vid_10000024 
f 361 363 364
f 361 364 362
f 361 363 364
usemtl APPID_2876509936_2459690769376 
o vid_10000026 
f 365 367 368
f 365 368 366
f 365 367 368
