# File generated by PlantGL - Fri Sep  4 14:42:48 2026
v    177.752484 18.905161 0.000000
v    182.071916 18.601013 0.000000
v    180.175600 22.493825 0.000000
v    182.247516 21.094839 0.848509
v    177.928084 21.398987 0.848509
v    179.824400 17.506175 0.848509
v    182.062176 21.449173 0.689209
v    182.418892 21.585174 1.043963
v    182.540261 21.629179 1.163737
v    183.209542 21.881202 1.645127
v    183.981542 22.182559 1.910763
v    184.615058 22.401310 2.124729
v    185.179529 22.523118 2.118301
v    182.412275 20.730479 0.689209
v    182.739253 20.927528 1.043963
v    182.848719 20.995970 1.163737
v    183.459726 21.367617 1.645127
v    184.172899 21.789736 1.910763
v    184.735661 22.153732 2.124729
v    185.179529 22.523118 2.118301
v    181.879284 21.505407 0.848509
v    177.756638 20.874804 0.848509
v    180.364078 17.619789 0.848509
v    178.120716 18.494593 1.417165
v    182.243362 19.125196 1.417165
v    179.635922 22.380211 1.417165
v    178.493090 18.055649 1.191723
v    177.952116 17.696306 1.795220
v    177.045006 17.100198 2.544541
v    175.955546 16.364018 2.966001
v    175.270439 15.939665 3.223276
v    174.402378 15.516006 3.212476
v    177.773628 18.953794 1.191723
v    177.304876 18.504292 1.795220
v    176.525154 17.749158 2.544541
v    175.568938 16.846642 2.966001
v    175.005285 16.270671 3.223276
v    174.402378 15.516006 3.212476
v    177.841416 19.161313 1.417165
v    181.805616 18.549955 1.417165
v    180.352968 22.288732 1.417165
v    182.158584 20.838687 2.253766
v    178.194384 21.450045 2.253766
v    179.647032 17.711268 2.253766
v    181.871470 21.515593 1.940988
v    182.839514 21.781631 2.872701
v    184.190006 22.166199 3.817886
v    185.050046 22.422333 4.105523
v    186.380190 22.761636 4.543765
v    187.070225 22.838495 4.759561
v    187.415290 22.881106 4.755698
v    182.403799 20.145503 1.940988
v    183.297521 20.602828 2.872701
v    184.553393 21.230925 3.817886
v    185.360757 21.622637 4.105523
v    186.571057 22.270388 4.543765
v    187.131974 22.679568 4.759561
v    187.415290 22.881106 4.755698
v    182.004750 20.474235 2.253766
v    178.586925 21.499047 2.253766
v    179.408325 18.026718 2.253766
v    177.995250 19.525765 4.112548
v    181.413075 18.500953 4.112548
v    180.591675 21.973282 4.112548
v    178.264131 18.521907 3.687127
v    177.574141 18.422397 4.334933
v    176.911820 18.337952 4.954385
v    175.020395 18.073105 6.239966
v    173.247119 17.803008 6.814915
v    171.391593 17.595326 7.410984
v    169.946753 17.621846 7.508642
v    177.785865 20.543697 3.687127
v    177.124420 20.323517 4.334933
v    176.494461 20.102266 4.954385
v    174.684840 19.491608 6.239966
v    172.978493 18.938580 6.814915
v    171.226578 18.292901 7.410984
v    169.946753 17.621846 7.508642
v    178.918439 18.764940 4.112548
v    181.610374 19.680870 4.112548
v    179.471188 21.554190 4.112548
v    181.081561 21.235060 5.999272
v    178.389626 20.319130 5.999272
v    180.528812 18.445810 5.999272
v    179.961217 22.161981 5.432010
v    181.189273 23.335062 7.010160
v    183.126350 25.168212 8.835998
v    185.560471 27.530528 9.923238
v    187.008111 28.827971 10.543844
v    189.036864 30.319403 10.515667
v    182.148197 20.246808 5.432010
v    183.148993 21.618904 7.010160
v    184.710540 23.780912 8.835998
v    186.731046 26.505437 9.923238
v    187.826145 28.111605 10.543844
v    189.036864 30.319403 10.515667
v    181.055328 20.673797 5.999272
v    178.888811 20.577042 5.999272
v    180.055861 18.749161 5.999272
v    178.944672 19.326203 12.880915
v    181.111189 19.422958 12.880915
v    179.944139 21.250839 12.880915
v    180.031763 17.722574 12.139383
v    177.922401 16.626631 14.348282
v    174.964282 15.100419 16.589119
v    170.572955 12.774495 18.181936
v    168.766398 11.907604 18.821637
v    167.586097 11.332866 18.806691
v    165.167941 10.530154 18.778382
v    177.947404 20.987182 12.139383
v    176.065577 19.534864 14.348282
v    173.436265 17.493661 16.589119
v    169.478385 14.488855 18.181936
v    167.931766 13.214839 18.821637
v    166.913709 12.385988 18.806691
v    165.167941 10.530154 18.778382
v    179.276881 19.478991 12.880915
v    180.812766 19.634265 12.880915
v    179.910353 20.886743 12.880915
v    180.723119 20.521009 17.793489
v    179.187234 20.365735 17.793489
v    180.089647 19.113257 17.793489
v    179.354764 22.303364 16.843195
v    179.974360 22.670821 17.512593
v    181.997372 23.826123 19.673961
v    185.675742 25.987217 22.545657
v    188.173655 27.495500 23.480959
v    191.826709 29.507951 24.812442
v    193.612896 30.189870 25.406691
v    194.787542 30.654459 25.392656
v    181.980668 18.658818 16.843195
v    182.525361 19.130234 17.512593
v    184.261635 20.683506 19.673961
v    187.475980 23.488629 22.545657
v    189.697412 25.380646 23.480959
v    192.762744 28.208808 24.812442
v    193.975012 29.687282 25.406691
v    194.787542 30.654459 25.392656
v    180.468607 20.305188 17.793489
v    179.501396 20.253231 17.793489
v    180.029997 19.441581 17.793489
v    179.531393 19.694812 19.363000
v    180.498604 19.746769 19.363000
v    179.970003 20.558419 19.363000
v    180.095775 17.942936 17.115969
v    179.644536 17.814454 18.849422
v    178.710554 17.678332 22.163378
v    177.901175 17.432747 24.035857
v    176.025945 17.411831 27.684630
v    178.157325 20.919366 17.115969
v    177.857357 20.558612 18.849422
v    177.355206 19.759428 22.163378
v    176.803321 19.118467 24.035857
v    176.025945 17.411831 27.684630
mtllib usm_42_2.5D_2018-07-23_4.mtl
usemtl APPID_4152164256_1941179258736 
o vid_3 
f 3 2 1
f 4 5 6
f 1 6 5
f 1 5 3
f 3 5 4
f 4 2 3
f 2 4 6
f 6 1 2
usemtl APPID_4152164368_1941179520880 
o vid_4 
f 7 14 15
f 8 15 16
f 9 16 17
f 10 17 18
f 11 18 19
f 7 15 8
f 8 16 9
f 9 17 10
f 10 18 11
f 11 19 12
f 12 19 20
usemtl APPID_4152164256_1941179258736 
o vid_5 
f 23 22 21
f 24 25 26
f 21 26 25
f 21 25 23
f 23 25 24
f 24 22 23
f 22 24 26
f 26 21 22
usemtl APPID_4152164368_1941179520880 
o vid_6 
f 27 33 34
f 28 34 35
f 29 35 36
f 30 36 37
f 27 34 28
f 28 35 29
f 29 36 30
f 30 37 31
f 31 37 38
usemtl APPID_4152164256_1941179258736 
o vid_7 
f 41 40 39
f 42 43 44
f 39 44 43
f 39 43 41
f 41 43 42
f 42 40 41
f 40 42 44
f 44 39 40
usemtl APPID_4152164368_1941179520880 
o vid_8 
f 45 52 53
f 46 53 54
f 47 54 55
f 48 55 56
f 49 56 57
f 45 53 46
f 46 54 47
f 47 55 48
f 48 56 49
f 49 57 50
f 50 57 58
usemtl APPID_4152164256_1941179258736 
o vid_9 
f 61 60 59
f 62 63 64
f 59 64 63
f 59 63 61
f 61 63 62
f 62 60 61
f 60 62 64
f 64 59 60
usemtl APPID_4152164368_1941179520880 
o vid_10 
f 65 72 73
f 66 73 74
f 67 74 75
f 68 75 76
f 69 76 77
f 65 73 66
f 66 74 67
f 67 75 68
f 68 76 69
f 69 77 70
f 70 77 78
usemtl APPID_4152164256_1941179258736 
o vid_11 
f 81 80 79
f 82 83 84
f 79 84 83
f 79 83 81
f 81 83 82
f 82 80 81
f 80 82 84
f 84 79 80
usemtl APPID_4152164368_1941179520880 
o vid_12 
f 85 91 92
f 86 92 93
f 87 93 94
f 88 94 95
f 85 92 86
f 86 93 87
f 87 94 88
f 88 95 89
f 89 95 96
usemtl APPID_4152164256_1941179258736 
o vid_13 
f 99 98 97
f 100 101 102
f 97 102 101
f 97 101 99
f 99 101 100
f 100 98 99
f 98 100 102
f 102 97 98
usemtl APPID_4152164368_1941179520880 
o vid_14 
f 103 110 111
f 104 111 112
f 105 112 113
f 106 113 114
f 107 114 115
f 103 111 104
f 104 112 105
f 105 113 106
f 106 114 107
f 107 115 108
f 108 115 116
usemtl APPID_4152164256_1941179258736 
o vid_15 
f 119 118 117
f 120 121 122
f 117 122 121
f 117 121 119
f 119 121 120
f 120 118 119
f 118 120 122
f 122 117 118
usemtl APPID_4152164368_1941179520880 
o vid_16 
f 123 131 132
f 124 132 133
f 125 133 134
f 126 134 135
f 127 135 136
f 128 136 137
f 123 132 124
f 124 133 125
f 125 134 126
f 126 135 127
f 127 136 128
f 128 137 129
f 129 137 138
usemtl APPID_4152164256_1941179258736 
o vid_17 
f 141 140 139
f 142 143 144
f 139 144 143
f 139 143 141
f 141 143 142
f 142 140 141
f 140 142 144
f 144 139 140
usemtl APPID_4152164368_1941179520880 
o vid_18 
f 145 150 151
f 146 151 152
f 147 152 153
f 145 151 146
f 146 152 147
f 147 153 148
f 148 153 154
