# File generated by PlantGL - Fri Sep  4 14:42:42 2026
v    18.201987 19.124129 0.000000
v    21.657533 18.880811 0.000000
v    20.140480 21.995060 0.000000
v    21.798013 20.875871 0.331061
v    18.342467 21.119189 0.331061
v    19.859520 18.004940 0.331061
v    21.381402 21.453984 -0.088499
v    22.205100 21.766868 0.746386
v    22.591540 21.902939 1.133609
v    23.786167 22.345708 1.932217
v    24.014482 22.422663 2.082732
v    24.948119 22.754237 2.332082
v    26.266386 23.052562 2.665319
v    21.996418 20.191463 -0.088499
v    22.750535 20.647184 0.746386
v    23.095890 20.867595 1.133609
v    24.180931 21.535326 1.932217
v    24.382265 21.667668 2.082732
v    25.218868 22.198435 2.332082
v    26.266386 23.052562 2.665319
v    21.503548 21.204422 0.331061
v    18.205166 20.699900 0.331061
v    20.291286 18.095678 0.331061
v    18.496452 18.795578 0.718770
v    21.794834 19.300100 0.718770
v    19.708714 21.904322 0.718770
v    19.286066 18.076540 0.142360
v    17.808857 17.097914 1.821343
v    17.385893 16.809774 2.142740
v    16.072198 15.954668 3.125287
v    15.274056 15.420891 3.367568
v    13.803222 14.491912 3.805391
v    13.178719 14.194366 3.975945
v    12.118833 13.686765 3.733027
v    17.967090 19.723092 0.142360
v    16.689644 18.495092 1.821343
v    16.316134 18.145214 2.142740
v    15.194918 17.049826 3.125287
v    14.499808 16.387429 3.367568
v    13.272202 15.154814 3.805391
v    12.845526 14.610310 3.975945
v    12.118833 13.686765 3.733027
v    18.272844 19.328938 0.718770
v    21.444735 18.839770 0.718770
v    20.282421 21.831292 0.718770
v    21.727156 20.671062 1.487000
v    18.555265 21.160230 1.487000
v    19.717579 18.168708 1.487000
v    20.990389 21.949556 0.713518
v    23.275380 22.607362 2.966540
v    24.465889 22.966812 3.747505
v    25.954516 23.382364 4.716298
v    27.803824 23.923487 5.202496
v    30.060662 24.520311 5.790010
v    32.546384 24.874720 5.395604
v    22.046834 19.230515 0.713518
v    24.176544 20.287977 2.966540
v    25.297441 20.826592 3.747505
v    26.676132 21.525096 4.716298
v    28.405668 22.374482 5.202496
v    30.473438 23.457923 5.790010
v    32.546384 24.874720 5.395604
v    21.731622 20.409625 1.487000
v    18.779443 21.294816 1.487000
v    19.488935 18.295559 1.487000
v    18.268378 19.590375 2.857581
v    21.220557 18.705184 2.857581
v    20.511065 21.704441 2.857581
v    19.005722 17.747233 1.843783
v    15.920533 17.306156 4.796806
v    13.649260 16.951432 6.240439
v    12.305745 16.770422 7.090205
v    9.048628 16.290267 7.920949
v    6.423792 15.973142 8.586357
v    2.713290 15.910729 7.816948
v    18.101772 21.568528 1.843783
v    15.145951 20.580569 4.796806
v    12.956472 19.880076 6.240439
v    11.674252 19.439954 7.090205
v    8.547217 18.409901 7.920949
v    6.058493 17.517384 8.586357
v    2.713290 15.910729 7.816948
v    18.876148 18.716648 2.857581
v    21.673341 19.668392 2.857581
v    19.450510 21.614960 2.857581
v    21.123852 21.283352 4.464214
v    18.326659 20.331608 4.464214
v    20.549490 18.385040 4.464214
v    18.817692 22.803873 3.166331
v    19.686995 23.632621 4.304379
v    21.705963 25.556471 6.946845
v    25.048702 28.825187 9.882896
v    25.987948 29.761821 10.218070
v    30.458457 34.059058 11.782743
v    33.375364 36.725107 10.977794
v    36.800681 39.185082 10.106070
v    22.935354 19.197971 3.166331
v    23.642162 20.169019 4.304379
v    25.282811 22.424169 6.946845
v    28.081909 26.168959 9.882896
v    28.886431 27.223573 10.218070
v    32.556262 32.221977 11.782743
v    34.814147 35.465141 10.977794
v    36.800681 39.185082 10.106070
v    21.375838 20.878433 4.464214
v    18.551335 20.752294 4.464214
v    20.072827 18.369272 4.464214
v    18.624162 19.121567 11.608452
v    21.448665 19.247706 11.608452
v    19.927173 21.630728 11.608452
v    21.033226 16.220731 9.985513
v    16.622112 13.896259 14.712860
v    11.466244 11.140299 18.384246
v    5.407036 7.824841 20.129533
v    3.125481 6.630346 20.779361
v    -1.501981 4.203117 19.674350
v    -5.936567 2.021570 18.631902
v    -9.262371 0.935144 16.894215
v    -10.425446 0.574221 16.119162
v    17.006438 22.527650 9.985513
v    13.041549 19.504284 14.712860
v    8.371835 15.986889 18.384246
v    2.814436 11.885476 20.129533
v    0.770747 10.318426 20.779361
v    -3.378400 7.142040 19.674350
v    -7.223512 4.037236 18.631902
v    -9.608599 1.477421 16.894215
v    -10.425446 0.574221 16.119162
v    18.735263 19.088754 11.608452
v    21.421531 19.360328 11.608452
v    19.843206 21.550918 11.608452
v    21.264737 20.911246 22.178673
v    18.578469 20.639672 22.178673
v    20.156794 18.449082 22.178673
v    18.055091 24.385158 20.196456
v    22.168443 27.141217 24.904418
v    26.336205 29.663497 28.323275
v    39.062806 37.546990 33.379790
v    48.969516 43.522463 30.932511
v    53.991679 46.291119 28.204441
v    58.750634 47.919923 23.979940
v    23.543999 16.766990 20.196456
v    27.460406 19.796392 24.904418
v    31.172281 22.951408 28.323275
v    42.678962 32.528052 33.379790
v    51.483109 40.033796 30.932511
v    55.699149 43.921286 28.204441
v    58.750634 47.919923 23.979940
v    21.244614 20.810576 22.178673
v    18.675713 20.672580 22.178673
v    20.079672 18.516844 22.178673
v    18.755386 19.189424 39.904756
v    21.324287 19.327420 39.904756
v    19.920328 21.483156 39.904756
v    22.348224 14.926101 37.540020
v    19.849472 13.457943 40.294399
v    17.947236 12.450086 42.334219
v    15.994591 11.415521 44.428095
v    13.511424 10.058596 46.205171
v    8.518961 7.331808 49.777562
v    -2.342387 1.260550 52.921727
v    -12.379299 -4.119097 51.148970
v    -17.571135 -6.731701 49.923013
v    -22.640516 -8.574647 46.819440
v    -24.848908 -9.208600 44.836257
v    16.308886 24.199319 37.540020
v    13.955735 22.507594 40.294399
v    12.264779 21.175325 42.334219
v    10.529012 19.807750 44.428095
v    8.283897 18.085303 46.205171
v    3.771270 14.621742 49.777562
v    -6.173300 7.142799 52.921727
v    -15.151959 0.138237 51.148970
v    -19.640769 -3.553841 49.923013
v    -23.376132 -7.445132 46.819440
v    -24.848908 -9.208600 44.836257
v    18.875227 19.376158 39.904756
v    21.102650 19.337839 39.904756
v    20.022123 21.286003 39.904756
v    21.124773 20.623842 66.654886
v    18.897350 20.662161 66.654886
v    19.977877 18.713997 66.654886
v    17.805259 24.965587 63.899411
v    25.553139 28.389537 71.925645
v    32.064512 31.368218 76.422285
v    34.607730 32.467640 78.159037
v    43.731478 36.547252 80.680880
v    49.397932 38.905315 82.225536
v    60.036933 42.206026 79.911139
v    23.050285 15.508931 63.899411
v    30.057312 20.268620 71.925645
v    36.031890 24.215130 76.422285
v    38.311160 25.790444 78.159037
v    46.602906 31.370137 80.680880
v    51.603627 34.928500 82.225536
v    60.036933 42.206026 79.911139
v    20.976159 20.259664 66.654886
v    19.287045 20.715546 66.654886
v    19.736796 19.024790 66.654886
v    19.023841 19.740336 106.566641
v    20.712955 19.284454 106.566641
v    20.263204 20.975210 106.566641
v    21.326247 14.613663 103.430519
v    11.823859 12.985415 112.565512
v    0.654911 11.158259 119.659996
v    -1.671011 10.749263 120.255896
v    -11.032657 9.354165 122.637999
v    -17.723167 9.158501 124.288249
v    -21.160436 9.051070 123.577385
v    18.474732 25.333396 103.430519
v    9.419238 22.025133 112.565512
v    -1.181381 18.061450 119.659996
v    -3.403105 17.260744 120.255896
v    -12.220616 13.820075 122.637999
v    -18.124082 10.665664 124.288249
v    -21.160436 9.051070 123.577385
v    19.300850 19.709776 106.566641
v    20.600916 19.539631 106.566641
v    20.098233 20.750593 106.566641
v    20.699150 20.290224 144.109260
v    19.399084 20.460369 144.109260
v    19.901767 19.249407 144.109260
v    17.302264 25.842993 140.622904
v    27.531001 29.042809 150.778071
v    31.095880 30.208784 153.133490
v    39.538748 32.775217 158.664850
v    45.789786 34.760665 160.319813
v    55.897949 37.682779 162.967944
v    59.268095 38.236045 163.809975
v    67.044706 39.528746 162.180416
v    22.233272 13.964204 140.622904
v    31.721076 18.948928 150.778071
v    35.063695 20.650327 153.133490
v    42.842077 24.817503 158.664850
v    48.661530 27.842641 160.319813
v    57.867539 32.938040 162.967944
v    60.638759 34.934119 163.809975
v    67.044706 39.528746 162.180416
v    20.406841 20.334758 144.109260
v    19.506670 20.184956 144.109260
v    20.086489 19.480286 144.109260
v    19.593159 19.665242 177.559569
v    20.493330 19.815044 177.559569
v    19.913511 20.519714 177.559569
v    25.002897 14.813997 173.773983
v    15.386442 8.260109 184.800755
v    9.924811 4.433559 188.988663
v    4.124725 0.548902 193.364447
v    -4.194809 -5.174374 195.912469
v    -13.773677 -11.401684 198.787885
v    -24.792158 -16.856031 196.546662
v    15.874523 25.907964 173.773983
v    7.591389 17.733654 184.800755
v    2.784672 13.111169 188.988663
v    -2.144244 8.167754 193.364447
v    -9.362553 1.106130 195.912469
v    -17.317984 -7.094190 198.787885
v    -24.792158 -16.856031 196.546662
v    19.779102 19.768880 177.559569
v    20.310605 19.924257 177.559569
v    19.910293 20.306863 177.559569
v    20.220898 20.231120 185.662000
v    19.689395 20.075743 185.662000
v    20.089707 19.693137 185.662000
v    17.181851 23.530442 177.725925
v    17.536186 23.664404 179.655137
v    20.012360 24.294183 191.886286
v    20.749671 24.213274 194.432539
v    25.086231 25.321611 204.117419
v    23.654235 17.344337 177.725925
v    23.772043 17.704366 179.655137
v    24.289234 20.206480 191.886286
v    24.175075 20.939379 194.432539
v    25.086231 25.321611 204.117419
mtllib usm_27_2.5D_2018-09-10_0.mtl
usemtl APPID_156853728_1602177851776 
o vid_3 
f 3 2 1
f 4 5 6
f 1 6 5
f 1 5 3
f 3 5 4
f 4 2 3
f 2 4 6
f 6 1 2
usemtl APPID_156853840_1602177849600 
o vid_4 
f 7 14 15
f 8 15 16
f 9 16 17
f 10 17 18
f 11 18 19
f 7 15 8
f 8 16 9
f 9 17 10
f 10 18 11
f 11 19 12
f 12 19 20
usemtl APPID_156853728_1602177851776 
o vid_5 
f 23 22 21
f 24 25 26
f 21 26 25
f 21 25 23
f 23 25 24
f 24 22 23
f 22 24 26
f 26 21 22
usemtl APPID_156853840_1602177849600 
o vid_6 
f 27 35 36
f 28 36 37
f 29 37 38
f 30 38 39
f 31 39 40
f 32 40 41
f 27 36 28
f 28 37 29
f 29 38 30
f 30 39 31
f 31 40 32
f 32 41 33
f 33 41 42
usemtl APPID_156853728_1602177851776 
o vid_7 
f 45 44 43
f 46 47 48
f 43 48 47
f 43 47 45
f 45 47 46
f 46 44 45
f 44 46 48
f 48 43 44
usemtl APPID_156853840_1602177849600 
o vid_8 
f 49 56 57
f 50 57 58
f 51 58 59
f 52 59 60
f 53 60 61
f 49 57 50
f 50 58 51
f 51 59 52
f 52 60 53
f 53 61 54
f 54 61 62
usemtl APPID_156853728_1602177851776 
o vid_9 
f 65 64 63
f 66 67 68
f 63 68 67
f 63 67 65
f 65 67 66
f 66 64 65
f 64 66 68
f 68 63 64
usemtl APPID_156853840_1602177849600 
o vid_10 
f 69 76 77
f 70 77 78
f 71 78 79
f 72 79 80
f 73 80 81
f 69 77 70
f 70 78 71
f 71 79 72
f 72 80 73
f 73 81 74
f 74 81 82
usemtl APPID_156853728_1602177851776 
o vid_11 
f 85 84 83
f 86 87 88
f 83 88 87
f 83 87 85
f 85 87 86
f 86 84 85
f 84 86 88
f 88 83 84
usemtl APPID_156853840_1602177849600 
o vid_12 
f 89 97 98
f 90 98 99
f 91 99 100
f 92 100 101
f 93 101 102
f 94 102 103
f 89 98 90
f 90 99 91
f 91 100 92
f 92 101 93
f 93 102 94
f 94 103 95
f 95 103 104
usemtl APPID_156853728_1602177851776 
o vid_13 
f 107 106 105
f 108 109 110
f 105 110 109
f 105 109 107
f 107 109 108
f 108 106 107
f 106 108 110
f 110 105 106
usemtl APPID_156853840_1602177849600 
o vid_14 
f 111 120 121
f 112 121 122
f 113 122 123
f 114 123 124
f 115 124 125
f 116 125 126
f 117 126 127
f 111 121 112
f 112 122 113
f 113 123 114
f 114 124 115
f 115 125 116
f 116 126 117
f 117 127 118
f 118 127 128
usemtl APPID_156853728_1602177851776 
o vid_15 
f 131 130 129
f 132 133 134
f 129 134 133
f 129 133 131
f 131 133 132
f 132 130 131
f 130 132 134
f 134 129 130
usemtl APPID_156853840_1602177849600 
o vid_16 
f 135 142 143
f 136 143 144
f 137 144 145
f 138 145 146
f 139 146 147
f 135 143 136
f 136 144 137
f 137 145 138
f 138 146 139
f 139 147 140
f 140 147 148
usemtl APPID_156853728_1602177851776 
o vid_17 
f 151 150 149
f 152 153 154
f 149 154 153
f 149 153 151
f 151 153 152
f 152 150 151
f 150 152 154
f 154 149 150
usemtl APPID_156853840_1602177849600 
o vid_18 
f 155 166 167
f 156 167 168
f 157 168 169
f 158 169 170
f 159 170 171
f 160 171 172
f 161 172 173
f 162 173 174
f 163 174 175
f 155 167 156
f 156 168 157
f 157 169 158
f 158 170 159
f 159 171 160
f 160 172 161
f 161 173 162
f 162 174 163
f 163 175 164
f 164 175 176
usemtl APPID_156853728_1602177851776 
o vid_19 
f 179 178 177
f 180 181 182
f 177 182 181
f 177 181 179
f 179 181 180
f 180 178 179
f 178 180 182
f 182 177 178
usemtl APPID_156853840_1602177849600 
o vid_20 
f 183 190 191
f 184 191 192
f 185 192 193
f 186 193 194
f 187 194 195
f 183 191 184
f 184 192 185
f 185 193 186
f 186 194 187
f 187 195 188
f 188 195 196
usemtl APPID_156853728_1602177851776 
o vid_21 
f 199 198 197
f 200 201 202
f 197 202 201
f 197 201 199
f 199 201 200
f 200 198 199
f 198 200 202
f 202 197 198
usemtl APPID_156853840_1602177849600 
o vid_22 
f 203 210 211
f 204 211 212
f 205 212 213
f 206 213 214
f 207 214 215
f 203 211 204
f 204 212 205
f 205 213 206
f 206 214 207
f 207 215 208
f 208 215 216
usemtl APPID_156853728_1602177851776 
o vid_23 
f 219 218 217
f 220 221 222
f 217 222 221
f 217 221 219
f 219 221 220
f 220 218 219
f 218 220 222
f 222 217 218
usemtl APPID_156853840_1602177849600 
o vid_24 
f 223 231 232
f 224 232 233
f 225 233 234
f 226 234 235
f 227 235 236
f 228 236 237
f 223 232 224
f 224 233 225
f 225 234 226
f 226 235 227
f 227 236 228
f 228 237 229
f 229 237 238
usemtl APPID_156853728_1602177851776 
o vid_25 
f 241 240 239
f 242 243 244
f 239 244 243
f 239 243 241
f 241 243 242
f 242 240 241
f 240 242 244
f 244 239 240
usemtl APPID_156853840_1602177849600 
o vid_26 
f 245 252 253
f 246 253 254
f 247 254 255
f 248 255 256
f 249 256 257
f 245 253 246
f 246 254 247
f 247 255 248
f 248 256 249
f 249 257 250
f 250 257 258
usemtl APPID_156853728_1602177851776 
o vid_27 
f 261 260 259
f 262 263 264
f 259 264 263
f 259 263 261
f 261 263 262
f 262 260 261
f 260 262 264
f 264 259 260
usemtl APPID_156853840_1602177849600 
o vid_28 
f 265 270 271
f 266 271 272
f 267 272 273
f 265 271 266
f 266 272 267
f 267 273 268
f 268 273 274
