# File generated by PlantGL - Fri Sep  4 14:42:15 2026
v    38.201987 19.124129 0.000000
v    41.657533 18.880811 0.000000
v    40.140480 21.995060 0.000000
v    41.798013 20.875871 0.231332
v    38.342467 21.119189 0.231332
v    39.859520 18.004940 0.231332
v    40.843222 20.693634 -3.012091
v    41.681878 20.819298 -2.242418
v    41.065960 20.236391 -3.012091
v    41.681878 20.819298 -2.242418
v    41.503548 21.204422 0.231332
v    38.205166 20.699900 0.231332
v    40.291286 18.095678 0.231332
v    38.496452 18.795578 0.322957
v    41.794834 19.300100 0.322957
v    39.708714 21.904322 0.322957
v    39.432630 19.127496 -2.920467
v    38.418664 18.733266 -1.933065
v    39.024698 19.636741 -2.920467
v    38.418664 18.733266 -1.933065
v    38.272844 19.328938 0.322957
v    41.444735 18.839770 0.322957
v    40.282421 21.831292 0.322957
v    41.727156 20.671062 0.466906
v    38.555265 21.160230 0.466906
v    39.717579 18.168708 0.466906
v    40.687491 20.756430 -2.776518
v    42.205107 20.856763 -1.396101
v    41.017853 19.906158 -2.776518
v    42.205107 20.856763 -1.396101
v    41.731622 20.409625 0.466906
v    38.779443 21.294816 0.466906
v    39.488935 18.295559 0.466906
v    38.268378 19.590375 0.679271
v    41.220557 18.705184 0.679271
v    40.511065 21.704441 0.679271
v    39.332338 19.168079 -2.564153
v    37.150914 19.326032 -0.579077
v    39.030367 20.444610 -2.564153
v    37.150914 19.326032 -0.579077
v    38.981205 18.836615 0.679271
v    41.516918 19.699390 0.679271
v    39.501876 21.463994 0.679271
v    41.018795 21.163385 0.920461
v    38.483082 20.300610 0.920461
v    40.498124 18.536006 0.920461
v    39.471187 21.271596 -2.322963
v    42.990219 23.414599 1.416592
v    41.330251 19.643584 -2.322963
v    42.990219 23.414599 1.416592
v    41.032251 20.659063 0.920461
v    38.913110 20.564424 0.920461
v    40.054640 18.776513 0.920461
v    38.967749 19.340937 1.433330
v    41.086890 19.435576 1.433330
v    39.945360 21.223487 1.433330
v    40.430374 18.793474 -1.810094
v    36.410840 17.708424 1.968680
v    39.086609 20.898134 -1.810094
v    36.410840 17.708424 1.968680
v    39.248720 19.458701 1.433330
v    40.844419 19.620022 1.433330
v    39.906861 20.921277 1.433330
v    40.751280 20.541299 2.225064
v    39.155581 20.379978 2.225064
v    40.093139 19.078723 2.225064
v    38.684283 21.805245 -1.018359
v    45.755597 24.146922 5.742423
v    41.295924 18.180494 -1.018359
v    45.755597 24.146922 5.742423
v    40.544856 20.354846 2.225064
v    39.420266 20.294436 2.225064
v    40.034878 19.350718 2.225064
v    39.455144 19.645154 2.754330
v    40.579734 19.705564 2.754330
v    39.965122 20.649282 2.754330
v    41.133151 18.787724 -0.489094
v    35.884915 17.319982 4.457053
v    39.349434 21.526567 -0.489094
v    35.884915 17.319982 4.457053
v    39.652439 19.807229 2.754330
v    40.340725 19.795389 2.754330
v    40.006836 20.397382 2.754330
v    40.347561 20.192771 2.923000
v    39.659275 20.204611 2.923000
v    39.993164 19.602618 2.923000
v    40.368814 20.773017 -3.461576
v    40.901309 20.499901 -1.304368
v    40.851046 19.903565 -3.461576
v    40.901309 20.499901 -1.304368
mtllib usm_1_2.5D_2018-07-30_0.mtl
usemtl APPID_1439672464_2556943018720 
o vid_3 
f 3 2 1
f 4 5 6
f 1 6 5
f 1 5 3
f 3 5 4
f 4 2 3
f 2 4 6
f 6 1 2
usemtl APPID_1439676160_2556943018336 
o vid_4 
f 7 9 10
f 7 10 8
f 7 9 10
usemtl APPID_1439672464_2556943018720 
o vid_5 
f 13 12 11
f 14 15 16
f 11 16 15
f 11 15 13
f 13 15 14
f 14 12 13
f 12 14 16
f 16 11 12
usemtl APPID_1439676160_2556943018336 
o vid_6 
f 17 19 20
f 17 20 18
f 17 19 20
usemtl APPID_1439672464_2556943018720 
o vid_7 
f 23 22 21
f 24 25 26
f 21 26 25
f 21 25 23
f 23 25 24
f 24 22 23
f 22 24 26
f 26 21 22
usemtl APPID_1439676160_2556943018336 
o vid_8 
f 27 29 30
f 27 30 28
f 27 29 30
usemtl APPID_1439672464_2556943018720 
o vid_9 
f 33 32 31
f 34 35 36
f 31 36 35
f 31 35 33
f 33 35 34
f 34 32 33
f 32 34 36
f 36 31 32
usemtl APPID_1439676160_2556943018336 
o vid_10 
f 37 39 40
f 37 40 38
f 37 39 40
usemtl APPID_1439672464_2556943018720 
o vid_11 
f 43 42 41
f 44 45 46
f 41 46 45
f 41 45 43
f 43 45 44
f 44 42 43
f 42 44 46
f 46 41 42
usemtl APPID_1439676160_2556943018336 
o vid_12 
f 47 49 50
f 47 50 48
f 47 49 50
usemtl APPID_1439672464_2556943018720 
o vid_13 
f 53 52 51
f 54 55 56
f 51 56 55
f 51 55 53
f 53 55 54
f 54 52 53
f 52 54 56
f 56 51 52
usemtl APPID_1439676160_2556943018336 
o vid_14 
f 57 59 60
f 57 60 58
f 57 59 60
usemtl APPID_1439672464_2556943018720 
o vid_15 
f 63 62 61
f 64 65 66
f 61 66 65
f 61 65 63
f 63 65 64
f 64 62 63
f 62 64 66
f 66 61 62
usemtl APPID_1439676160_2556943018336 
o vid_16 
f 67 69 70
f 67 70 68
f 67 69 70
usemtl APPID_1439672464_2556943018720 
o vid_17 
f 73 72 71
f 74 75 76
f 71 76 75
f 71 75 73
f 73 75 74
f 74 72 73
f 72 74 76
f 76 71 72
usemtl APPID_1439676160_2556943018336 
o vid_18 
f 77 79 80
f 77 80 78
f 77 79 80
usemtl APPID_1439672464_2556943018720 
o vid_19 
f 83 82 81
f 84 85 86
f 81 86 85
f 81 85 83
f 83 85 84
f 84 82 83
f 82 84 86
f 86 81 82
usemtl APPID_1439676160_2556943018336 
o vid_20 
f 87 89 90
f 87 90 88
f 87 89 90
