# File generated by PlantGL - Fri Sep  4 14:41:29 2026
v    18.524693 139.281329 0.000000
v    21.360041 139.081682 0.000000
v    20.115267 141.636989 0.000000
v    21.475307 140.718671 0.362700
v    18.639959 140.918318 0.362700
v    19.884733 138.363011 0.362700
v    21.289979 141.071976 0.197284
v    21.489397 141.148005 0.395604
v    21.787742 141.256177 0.690029
v    22.482715 141.517874 1.189898
v    23.062556 141.744221 1.389415
v    23.748783 141.981172 1.621183
v    23.959463 142.022486 1.687912
v    24.295787 142.092619 1.684095
v    21.639264 140.354955 0.197284
v    21.822057 140.465112 0.395604
v    22.091139 140.633353 0.690029
v    22.725603 141.019268 1.189898
v    23.261259 141.336317 1.389415
v    23.870845 141.730599 1.621183
v    24.033245 141.871024 1.687912
v    24.295787 142.092619 1.684095
v    20.939956 140.752955 0.362700
v    18.877944 140.437548 0.362700
v    20.182100 138.809497 0.362700
v    19.060044 139.247045 0.589630
v    21.122056 139.562452 0.589630
v    19.817900 141.190503 0.589630
v    19.422658 138.821141 0.356738
v    19.194361 138.669495 0.611421
v    18.795910 138.414149 1.050484
v    17.922628 137.839231 1.754260
v    17.224965 137.367799 2.024152
v    16.356020 136.829579 2.350463
v    16.047087 136.693198 2.455423
v    15.640703 136.507971 2.450461
v    18.723552 139.693875 0.356738
v    18.525734 139.504180 0.611421
v    18.189579 139.171067 1.050484
v    17.437919 138.444320 1.754260
v    16.825582 137.866372 2.024152
v    16.110682 137.135849 2.350463
v    15.910162 136.864129 2.455423
v    15.640703 136.507971 2.450461
v    19.257627 139.711561 0.589630
v    20.620982 139.501305 0.589630
v    20.121391 140.787134 0.589630
v    20.742373 140.288439 0.707000
v    19.379018 140.498695 0.707000
v    19.878609 139.212866 0.707000
v    20.618115 140.795770 0.076196
v    21.058824 140.884500 0.965458
v    21.246662 140.906562 1.333021
v    21.864359 141.014998 2.197517
v    22.290260 140.997619 2.746680
v    22.617055 141.016820 2.993065
v    20.993236 139.830298 0.076196
v    21.378244 140.062388 0.965458
v    21.531703 140.172933 1.333021
v    22.060576 140.509980 2.197517
v    22.363022 140.810348 2.746680
v    22.617055 141.016820 2.993065
mtllib usm_25_Beer_2018-07-27_3.mtl
usemtl APPID_3099105616_2021840694256 
o vid_3 
f 3 2 1
f 4 5 6
f 1 6 5
f 1 5 3
f 3 5 4
f 4 2 3
f 2 4 6
f 6 1 2
usemtl APPID_3099110096_2021840694128 
o vid_4 
f 7 15 16
f 8 16 17
f 9 17 18
f 10 18 19
f 11 19 20
f 12 20 21
f 7 16 8
f 8 17 9
f 9 18 10
f 10 19 11
f 11 20 12
f 12 21 13
f 13 21 22
usemtl APPID_3099105616_2021840694256 
o vid_5 
f 25 24 23
f 26 27 28
f 23 28 27
f 23 27 25
f 25 27 26
f 26 24 25
f 24 26 28
f 28 23 24
usemtl APPID_3099110096_2021840694128 
o vid_6 
f 29 37 38
f 30 38 39
f 31 39 40
f 32 40 41
f 33 41 42
f 34 42 43
f 29 38 30
f 30 39 31
f 31 40 32
f 32 41 33
f 33 42 34
f 34 43 35
f 35 43 44
usemtl APPID_3099105616_2021840694256 
o vid_7 
f 47 46 45
f 48 49 50
f 45 50 49
f 45 49 47
f 47 49 48
f 48 46 47
f 46 48 50
f 50 45 46
usemtl APPID_3099110096_2021840694128 
o vid_8 
f 51 57 58
f 52 58 59
f 53 59 60
f 54 60 61
f 51 58 52
f 52 59 53
f 53 60 54
f 54 61 55
f 55 61 62
