# File generated by PlantGL - Fri Sep  4 14:43:25 2026
v    97.752484 18.905161 0.000000
v    102.071916 18.601013 0.000000
v    100.175600 22.493825 0.000000
v    102.247516 21.094839 0.848509
v    97.928084 21.398987 0.848509
v    99.824400 17.506175 0.848509
v    102.061967 21.449533 0.688792
v    102.412982 21.583360 1.037875
v    102.464257 21.601951 1.088477
v    102.412430 20.730092 0.688792
v    102.734182 20.923992 1.037875
v    102.780428 20.952906 1.088477
v    101.879284 21.505407 0.848509
v    97.756638 20.874804 0.848509
v    100.364078 17.619789 0.848509
v    98.120716 18.494593 1.417165
v    102.243362 19.125196 1.417165
v    99.635922 22.380211 1.417165
v    98.493420 18.055297 1.191207
v    97.959030 17.700327 1.787360
v    97.041927 17.097782 2.547120
v    96.568754 16.778045 2.730167
v    97.773357 18.954192 1.191207
v    97.310310 18.510161 1.787360
v    96.522125 17.746680 2.547120
v    96.106822 17.354701 2.730167
v    97.841416 19.161313 1.417165
v    101.805616 18.549955 1.417165
v    100.352968 22.288732 1.417165
v    102.158584 20.838687 2.253766
v    98.194384 21.450045 2.253766
v    99.647032 17.711268 2.253766
v    101.871274 21.515974 1.940371
v    102.041794 21.565291 2.105321
v    102.841297 21.782360 2.873923
v    104.194455 22.167688 3.820973
v    105.041840 22.420053 4.104378
v    105.184658 22.456484 4.151432
v    102.403912 20.145089 1.940371
v    102.562998 20.223836 2.105321
v    103.299329 20.603493 2.873923
v    104.557680 21.232830 3.820973
v    105.353164 21.618779 4.104378
v    105.483115 21.688328 4.151432
v    102.163962 20.511898 2.253766
v    98.474702 21.618097 2.253766
v    99.361335 17.870005 2.253766
v    97.836038 19.488102 4.112548
v    101.525298 18.381903 4.112548
v    100.638665 22.129995 4.112548
v    98.105112 18.483651 3.686412
v    97.426459 18.385777 4.323575
v    96.750482 18.299590 4.955799
v    94.855880 18.034299 6.243539
v    93.095865 17.766222 6.814188
v    91.737029 17.614132 7.250701
v    97.626560 20.506651 3.686412
v    96.975983 20.290089 4.323575
v    96.333035 20.064276 4.955799
v    94.520375 19.452593 6.243539
v    92.826788 18.903700 6.814188
v    91.543828 18.430858 7.250701
v    98.595695 18.396392 4.112548
v    102.090917 19.585640 4.112548
v    99.313387 22.017967 4.112548
v    101.404305 21.603608 5.999272
v    97.909083 20.414360 5.999272
v    100.686613 17.982033 5.999272
v    100.283351 22.530987 5.431214
v    101.502715 23.695764 6.998193
v    103.453107 25.541283 8.839982
v    105.877197 27.893863 9.922741
v    107.340883 29.205687 10.550226
v    107.740376 29.567889 10.544087
v    102.471475 20.614812 5.431214
v    103.465187 21.977196 6.998193
v    105.037237 24.154035 8.839982
v    107.049416 26.867332 9.922741
v    108.156653 28.491305 10.550226
v    108.462980 28.935094 10.544087
v    101.718982 21.097521 5.999272
v    98.190028 20.939922 5.999272
v    100.090990 17.962557 5.999272
v    98.281018 18.902479 12.880915
v    101.809972 19.060078 12.880915
v    99.909010 22.037443 12.880915
v    99.368609 17.298179 12.138531
v    97.256824 16.200978 14.349967
v    94.295170 14.673231 16.593377
v    89.916762 12.354149 18.181508
v    88.089733 11.477434 18.828459
v    86.927334 10.911414 18.813740
v    86.194225 10.668056 18.805157
v    97.283352 20.564193 12.138531
v    95.399364 19.110208 14.349967
v    92.767172 17.066444 16.593377
v    88.820935 14.070478 18.181508
v    87.256789 12.782024 18.828459
v    86.254174 11.965745 18.813740
v    85.724912 11.403114 18.805157
v    98.420020 18.861621 12.880915
v    101.775855 19.200887 12.880915
v    99.804125 21.937492 12.880915
v    101.579980 21.138379 19.681199
v    98.224145 20.799113 19.681199
v    100.195875 18.062508 19.681199
v    100.092243 23.086321 18.730039
v    102.666816 24.613192 21.511549
v    106.397055 26.803963 24.437697
v    111.428052 29.841764 26.321471
v    114.116412 31.322770 27.301338
v    115.129271 31.888354 27.288131
v    116.865177 32.574928 27.267390
v    102.956810 19.110529 18.730039
v    105.220141 21.069379 21.511549
v    108.479056 23.914310 24.437697
v    112.953198 27.724983 26.321471
v    115.209041 29.806288 27.301338
v    116.066160 30.588027 27.288131
v    117.266926 32.017333 27.267390
v    101.554633 21.012481 19.681199
v    98.345849 20.840111 19.681199
v    100.099518 18.147408 19.681199
v    98.445367 18.987519 30.874713
v    101.654151 19.159889 30.874713
v    99.900482 21.852592 30.874713
v    100.237547 16.392992 29.679986
v    96.855121 14.596613 33.238878
v    92.114767 12.089704 36.849227
v    84.663001 8.056125 39.565234
v    82.186067 6.839888 40.446172
v    79.852229 5.677237 40.416487
v    76.895762 4.666079 40.381771
v    96.797064 21.675748 29.679986
v    93.786408 19.308527 33.238878
v    89.576823 15.986639 36.849227
v    82.874583 10.802185 39.565234
v    80.760663 9.028551 40.446172
v    78.753614 7.364127 40.416487
v    76.633362 5.068986 40.381771
v    98.458123 19.144816 30.874713
v    101.511550 19.092287 30.874713
v    100.030327 21.762897 30.874713
v    101.541877 20.855184 48.402209
v    98.488450 20.907713 48.402209
v    99.969673 18.237103 48.402209
v    99.442436 24.422468 46.931002
v    103.753793 26.334078 51.313482
v    107.696675 28.131645 54.233978
v    109.772015 29.041638 55.759327
v    122.359839 34.742696 60.188667
v    128.972945 37.486874 60.107135
v    131.393437 38.127348 60.079316
v    133.279554 38.618513 59.734068
v    103.456421 17.185350 46.931002
v    107.360896 19.830557 51.313482
v    110.973524 22.223567 54.233978
v    112.844359 23.502275 55.759327
v    124.345802 31.162052 60.188667
v    130.175314 35.319030 60.107135
v    132.000269 37.033245 60.079316
v    133.415615 38.373198 59.734068
v    101.408414 20.374647 48.402209
v    98.971340 21.032399 48.402209
v    99.620247 18.592955 48.402209
v    98.591586 19.625353 69.780616
v    101.028660 18.967601 69.780616
v    100.379753 21.407045 69.780616
v    100.017045 14.763077 68.004509
v    94.406476 13.794605 73.295234
v    88.385925 12.690717 77.420512
v    70.150104 9.416515 84.009750
v    60.543822 7.956023 83.899054
v    54.725237 7.899961 83.186850
v    97.412800 24.553246 68.004509
v    92.062570 22.606078 73.295234
v    86.289262 20.572726 77.420512
v    68.836802 14.353627 84.009750
v    59.774496 10.848159 83.899054
v    54.697079 8.005817 83.186850
v    98.956022 19.566634 69.780616
v    100.897295 19.312572 69.780616
v    100.146683 21.120794 69.780616
v    101.043978 20.433366 89.654928
v    99.102705 20.687428 89.654928
v    99.853317 18.879206 89.654928
v    98.746865 25.573119 87.552824
v    105.175622 27.592873 93.814640
v    107.618272 28.388316 95.545990
v    114.176079 30.419030 100.166993
v    129.498489 35.366646 105.328027
v    133.021168 36.351599 106.495763
v    138.640688 37.957680 106.429225
v    145.786949 39.006638 106.348974
v    103.062074 15.177790 87.552824
v    109.031295 18.304566 93.814640
v    111.319187 19.472819 95.545990
v    117.387282 22.683249 100.166993
v    131.709111 30.041264 105.328027
v    134.893738 31.840583 106.495763
v    139.998660 34.686329 106.429225
v    145.786949 39.006638 106.348974
v    100.642542 20.528699 89.654928
v    99.220862 20.292109 89.654928
v    100.136595 19.179192 89.654928
v    99.357458 19.471301 113.600779
v    100.779138 19.707891 113.600779
v    99.863405 20.820808 113.600779
v    103.697680 14.472352 111.161680
v    97.242074 10.061053 118.427347
v    93.880633 7.712394 121.191051
v    88.213877 3.874220 125.798064
v    71.815598 -7.522796 132.199069
v    69.326796 -9.109906 133.141418
v    62.490438 -13.524872 133.048768
v    55.274894 -16.928710 132.960126
v    54.915635 -17.096465 132.889891
v    95.287915 24.692972 111.161680
v    89.715977 19.207727 118.427347
v    86.763940 16.361509 121.191051
v    81.906314 11.539977 125.798064
v    67.564673 -2.356528 132.199069
v    65.527980 -4.493101 133.141418
v    59.879119 -10.351264 133.048768
v    55.149436 -16.776237 132.960126
v    54.915635 -17.096465 132.889891
v    99.611263 19.593273 113.600779
v    100.546605 19.866707 113.600779
v    99.842132 20.540020 113.600779
v    100.388737 20.406727 128.806000
v    99.453395 20.133293 128.806000
v    100.157868 19.459980 128.806000
v    95.486408 24.791788 123.249778
v    97.106543 26.192810 125.516906
v    101.872271 30.170419 132.075439
v    110.882567 37.920553 141.251644
v    117.285824 43.593144 144.621855
v    126.506007 51.115796 149.290234
v    130.979528 53.812501 151.282862
v    134.316090 55.904168 151.488703
v    104.990940 15.707651 123.249778
v    106.317286 17.389467 125.516906
v    110.075379 22.330143 132.075439
v    117.410250 31.681597 141.251644
v    122.787561 38.334754 144.621855
v    129.885694 47.885597 149.290234
v    132.377402 52.476457 151.282862
v    134.316090 55.904168 151.488703
v    102.464257 21.601951 1.088477
v    103.212390 21.882588 1.647213
v    103.977804 22.181375 1.910584
v    104.621748 22.403726 2.128071
v    105.178511 22.522623 2.121738
v    102.780428 20.952906 1.088477
v    103.462573 21.369005 1.647213
v    104.169662 21.787522 1.910584
v    104.741688 22.157510 2.128071
v    105.178511 22.522623 2.121738
v    96.568754 16.778045 2.730167
v    95.960097 16.366758 2.965627
v    95.262996 15.934976 3.227407
v    95.110324 15.839194 3.225355
v    94.403856 15.517190 3.216729
v    96.106822 17.354701 2.730167
v    95.572606 16.850486 2.965627
v    94.999085 16.264432 3.227407
v    94.872290 16.136345 3.225355
v    94.403856 15.517190 3.216729
v    105.184658 22.456484 4.151432
v    106.374609 22.760026 4.543484
v    107.081355 22.838746 4.764507
v    107.411051 22.879459 4.760816
v    105.483115 21.688328 4.151432
v    106.565854 22.267808 4.543484
v    107.140354 22.686897 4.764507
v    107.411051 22.879459 4.760816
v    91.737029 17.614132 7.250701
v    91.237223 17.558191 7.411259
v    90.866592 17.568338 7.526498
v    89.790759 17.584945 7.514543
v    91.543828 18.430858 7.250701
v    91.071931 18.256937 7.411259
v    90.745128 18.081808 7.526498
v    89.790759 17.584945 7.514543
v    107.740376 29.567889 10.544087
v    109.357853 30.685946 10.522235
v    108.462980 28.935094 10.544087
v    109.357853 30.685946 10.522235
v    86.194225 10.668056 18.805157
v    84.506402 10.107780 18.785398
v    85.724912 11.403114 18.805157
v    84.506402 10.107780 18.785398
v    116.865177 32.574928 27.267390
v    118.168387 33.090365 27.251819
v    117.266926 32.017333 27.267390
v    118.168387 33.090365 27.251819
v    76.895762 4.666079 40.381771
v    75.968038 4.348783 40.370877
v    76.633362 5.068986 40.381771
v    75.968038 4.348783 40.370877
v    133.279554 38.618513 59.734068
v    133.824677 38.760469 59.634285
v    133.415615 38.373198 59.734068
v    133.824677 38.760469 59.634285
v    54.725237 7.899961 83.186850
v    54.505287 7.898126 83.147886
v    54.697079 8.005817 83.186850
v    54.505287 7.898126 83.147886
mtllib usm_40_2.5D_2018-08-08_2.mtl
usemtl APPID_647693696_2676410504688 
o vid_3 
f 3 2 1
f 4 5 6
f 1 6 5
f 1 5 3
f 3 5 4
f 4 2 3
f 2 4 6
f 6 1 2
usemtl APPID_647695600_2676410504560 
o vid_4 
f 7 10 11
f 7 11 8
f 8 11 12
f 8 12 9
usemtl APPID_647693696_2676410504688 
o vid_5 
f 15 14 13
f 16 17 18
f 13 18 17
f 13 17 15
f 15 17 16
f 16 14 15
f 14 16 18
f 18 13 14
usemtl APPID_647695600_2676410504560 
o vid_6 
f 19 23 24
f 20 24 25
f 19 24 20
f 20 25 21
f 21 25 26
f 21 26 22
usemtl APPID_647693696_2676410504688 
o vid_7 
f 29 28 27
f 30 31 32
f 27 32 31
f 27 31 29
f 29 31 30
f 30 28 29
f 28 30 32
f 32 27 28
usemtl APPID_647695600_2676410504560 
o vid_8 
f 33 39 40
f 34 40 41
f 35 41 42
f 36 42 43
f 33 40 34
f 34 41 35
f 35 42 36
f 36 43 37
f 37 43 44
f 37 44 38
usemtl APPID_647693696_2676410504688 
o vid_9 
f 47 46 45
f 48 49 50
f 45 50 49
f 45 49 47
f 47 49 48
f 48 46 47
f 46 48 50
f 50 45 46
usemtl APPID_647695600_2676410504560 
o vid_10 
f 51 57 58
f 52 58 59
f 53 59 60
f 54 60 61
f 51 58 52
f 52 59 53
f 53 60 54
f 54 61 55
f 55 61 62
f 55 62 56
usemtl APPID_647693696_2676410504688 
o vid_11 
f 65 64 63
f 66 67 68
f 63 68 67
f 63 67 65
f 65 67 66
f 66 64 65
f 64 66 68
f 68 63 64
usemtl APPID_647695600_2676410504560 
o vid_12 
f 69 75 76
f 70 76 77
f 71 77 78
f 72 78 79
f 69 76 70
f 70 77 71
f 71 78 72
f 72 79 73
f 73 79 80
f 73 80 74
usemtl APPID_647693696_2676410504688 
o vid_13 
f 83 82 81
f 84 85 86
f 81 86 85
f 81 85 83
f 83 85 84
f 84 82 83
f 82 84 86
f 86 81 82
usemtl APPID_647695600_2676410504560 
o vid_14 
f 87 94 95
f 88 95 96
f 89 96 97
f 90 97 98
f 91 98 99
f 87 95 88
f 88 96 89
f 89 97 90
f 90 98 91
f 91 99 92
f 92 99 100
f 92 100 93
usemtl APPID_647693696_2676410504688 
o vid_15 
f 103 102 101
f 104 105 106
f 101 106 105
f 101 105 103
f 103 105 104
f 104 102 103
f 102 104 106
f 106 101 102
usemtl APPID_647695600_2676410504560 
o vid_16 
f 107 114 115
f 108 115 116
f 109 116 117
f 110 117 118
f 111 118 119
f 107 115 108
f 108 116 109
f 109 117 110
f 110 118 111
f 111 119 112
f 112 119 120
f 112 120 113
usemtl APPID_647693696_2676410504688 
o vid_17 
f 123 122 121
f 124 125 126
f 121 126 125
f 121 125 123
f 123 125 124
f 124 122 123
f 122 124 126
f 126 121 122
usemtl APPID_647695600_2676410504560 
o vid_18 
f 127 134 135
f 128 135 136
f 129 136 137
f 130 137 138
f 131 138 139
f 127 135 128
f 128 136 129
f 129 137 130
f 130 138 131
f 131 139 132
f 132 139 140
f 132 140 133
usemtl APPID_647693696_2676410504688 
o vid_19 
f 143 142 141
f 144 145 146
f 141 146 145
f 141 145 143
f 143 145 144
f 144 142 143
f 142 144 146
f 146 141 142
usemtl APPID_647695600_2676410504560 
o vid_20 
f 147 155 156
f 148 156 157
f 149 157 158
f 150 158 159
f 151 159 160
f 152 160 161
f 147 156 148
f 148 157 149
f 149 158 150
f 150 159 151
f 151 160 152
f 152 161 153
f 153 161 162
f 153 162 154
usemtl APPID_647693696_2676410504688 
o vid_21 
f 165 164 163
f 166 167 168
f 163 168 167
f 163 167 165
f 165 167 166
f 166 164 165
f 164 166 168
f 168 163 164
usemtl APPID_647695600_2676410504560 
o vid_22 
f 169 175 176
f 170 176 177
f 171 177 178
f 172 178 179
f 169 176 170
f 170 177 171
f 171 178 172
f 172 179 173
f 173 179 180
f 173 180 174
usemtl APPID_647693696_2676410504688 
o vid_23 
f 183 182 181
f 184 185 186
f 181 186 185
f 181 185 183
f 183 185 184
f 184 182 183
f 182 184 186
f 186 181 182
usemtl APPID_647695600_2676410504560 
o vid_24 
f 187 195 196
f 188 196 197
f 189 197 198
f 190 198 199
f 191 199 200
f 192 200 201
f 187 196 188
f 188 197 189
f 189 198 190
f 190 199 191
f 191 200 192
f 192 201 193
f 193 201 202
usemtl APPID_647693696_2676410504688 
o vid_25 
f 205 204 203
f 206 207 208
f 203 208 207
f 203 207 205
f 205 207 206
f 206 204 205
f 204 206 208
f 208 203 204
usemtl APPID_647695600_2676410504560 
o vid_26 
f 209 218 219
f 210 219 220
f 211 220 221
f 212 221 222
f 213 222 223
f 214 223 224
f 215 224 225
f 209 219 210
f 210 220 211
f 211 221 212
f 212 222 213
f 213 223 214
f 214 224 215
f 215 225 216
f 216 225 226
usemtl APPID_647693696_2676410504688 
o vid_27 
f 229 228 227
f 230 231 232
f 227 232 231
f 227 231 229
f 229 231 230
f 230 228 229
f 228 230 232
f 232 227 228
usemtl APPID_647695600_2676410504560 
o vid_28 
f 233 241 242
f 234 242 243
f 235 243 244
f 236 244 245
f 237 245 246
f 238 246 247
f 233 242 234
f 234 243 235
f 235 244 236
f 236 245 237
f 237 246 238
f 238 247 239
f 239 247 248
usemtl APPID_647701872_2676410510960 
o vid_10000004 
f 249 254 255
f 250 255 256
f 251 256 257
f 249 255 250
f 250 256 251
f 251 257 252
f 252 257 258
usemtl APPID_647701872_2676410510960 
o vid_10000006 
f 259 264 265
f 260 265 266
f 261 266 267
f 259 265 260
f 260 266 261
f 261 267 262
f 262 267 268
usemtl APPID_647701872_2676410510960 
o vid_10000008 
f 269 273 274
f 270 274 275
f 269 274 270
f 270 275 271
f 271 275 276
usemtl APPID_647701872_2676410510960 
o vid_10000010 
f 277 281 282
f 278 282 283
f 277 282 278
f 278 283 279
f 279 283 284
usemtl APPID_647701872_2676410510960 
o vid_10000012 
f 285 287 288
f 285 288 286
f 285 287 288
usemtl APPID_647701872_2676410510960 
o vid_10000014 
f 289 291 292
f 289 292 290
f 289 291 292
usemtl APPID_647701872_2676410510960 
o vid_10000016 
f 293 295 296
f 293 296 294
f 293 295 296
usemtl APPID_647701872_2676410510960 
o vid_10000018 
f 297 299 300
f 297 300 298
f 297 299 300
usemtl APPID_647701872_2676410510960 
o vid_10000020 
f 301 303 304
f 301 304 302
f 301 303 304
usemtl APPID_647701872_2676410510960 
o vid_10000022 
f 305 307 308
f 305 308 306
f 305 307 308
