# File generated by PlantGL - Fri Sep  4 14:43:16 2026
v    18.513174 19.275718 0.000000
v    21.370660 19.074511 0.000000
v    20.116167 21.649770 0.000000
v    21.486826 20.724282 0.331061
v    18.629340 20.925489 0.331061
v    19.883833 18.350230 0.331061
v    21.078445 21.297000 -0.071093
v    22.082358 21.678339 0.946456
v    23.596783 22.236793 2.010061
v    24.780989 22.658558 2.326466
v    25.877142 22.906618 2.603556
v    26.045932 22.945172 2.567767
v    21.686056 20.049679 -0.071093
v    22.605165 20.605107 0.946456
v    23.978428 21.453340 2.010061
v    25.040506 22.125814 2.326466
v    25.911528 22.836029 2.603556
v    26.045932 22.945172 2.567767
v    21.008396 20.807779 0.331061
v    18.796245 20.469407 0.331061
v    20.195359 18.722814 0.331061
v    18.991604 19.192221 0.718770
v    21.203755 19.530593 0.718770
v    19.804641 21.277186 0.718770
v    19.769668 18.477955 0.163208
v    18.345888 17.534725 1.781465
v    17.647270 17.058799 2.312322
v    16.676687 16.427030 3.038247
v    15.571911 15.688185 3.373608
v    14.154275 14.792806 3.795596
v    12.527954 14.014493 3.537883
v    18.464379 20.107422 0.163208
v    17.233136 18.923837 1.781465
v    16.616204 18.345938 2.312322
v    15.787827 17.536644 3.038247
v    14.825667 16.619764 3.373608
v    13.642462 15.431731 3.795596
v    12.527954 14.014493 3.537883
v    19.111503 19.654787 0.718770
v    20.743211 19.403146 0.718770
v    20.145285 20.942067 0.718770
v    20.888497 20.345213 1.487000
v    19.256789 20.596854 1.487000
v    19.854715 19.057933 1.487000
v    20.163283 21.613257 0.737665
v    22.376940 22.250528 2.920351
v    23.921838 22.716978 3.933792
v    24.969311 23.009381 4.615484
v    27.210937 23.665300 5.204826
v    29.195055 24.190003 5.721343
v    31.809402 24.588376 5.173525
v    21.209643 18.920174 0.737665
v    23.272866 19.944624 2.920351
v    24.727430 20.643573 3.933792
v    25.697546 21.135075 4.615484
v    27.793992 22.164653 5.204826
v    29.611889 23.117169 5.721343
v    31.809402 24.588376 5.173525
v    20.620228 20.146719 1.487000
v    19.562824 20.463774 1.487000
v    19.816948 19.389507 1.487000
v    19.379772 19.853281 1.868000
v    20.437176 19.536226 1.868000
v    20.183052 20.610493 1.868000
v    19.969252 18.588806 -0.146026
v    18.107446 18.462998 3.025131
v    17.848894 18.458258 3.460466
v    16.140785 18.339977 5.369957
v    14.998048 18.453199 6.597373
v    13.614087 18.489375 7.385938
v    19.340240 21.247851 -0.146026
v    17.619393 20.526161 3.025131
v    17.386120 20.414558 3.460466
v    15.806053 19.755001 5.369957
v    14.835159 19.141787 6.597373
v    13.614087 18.489375 7.385938
mtllib usm_37_2.5D_2018-07-26_0.mtl
usemtl APPID_3043678320_2275079370224 
o vid_3 
f 3 2 1
f 4 5 6
f 1 6 5
f 1 5 3
f 3 5 4
f 4 2 3
f 2 4 6
f 6 1 2
usemtl APPID_3043681792_2275079371120 
o vid_4 
f 7 13 14
f 8 14 15
f 9 15 16
f 10 16 17
f 7 14 8
f 8 15 9
f 9 16 10
f 10 17 11
f 11 17 18
usemtl APPID_3043678320_2275079370224 
o vid_5 
f 21 20 19
f 22 23 24
f 19 24 23
f 19 23 21
f 21 23 22
f 22 20 21
f 20 22 24
f 24 19 20
usemtl APPID_3043681792_2275079371120 
o vid_6 
f 25 32 33
f 26 33 34
f 27 34 35
f 28 35 36
f 29 36 37
f 25 33 26
f 26 34 27
f 27 35 28
f 28 36 29
f 29 37 30
f 30 37 38
usemtl APPID_3043678320_2275079370224 
o vid_7 
f 41 40 39
f 42 43 44
f 39 44 43
f 39 43 41
f 41 43 42
f 42 40 41
f 40 42 44
f 44 39 40
usemtl APPID_3043681792_2275079371120 
o vid_8 
f 45 52 53
f 46 53 54
f 47 54 55
f 48 55 56
f 49 56 57
f 45 53 46
f 46 54 47
f 47 55 48
f 48 56 49
f 49 57 50
f 50 57 58
usemtl APPID_3043678320_2275079370224 
o vid_9 
f 61 60 59
f 62 63 64
f 59 64 63
f 59 63 61
f 61 63 62
f 62 60 61
f 60 62 64
f 64 59 60
usemtl APPID_3043681792_2275079371120 
o vid_10 
f 65 71 72
f 66 72 73
f 67 73 74
f 68 74 75
f 65 72 66
f 66 73 67
f 67 74 68
f 68 75 69
f 69 75 76
