# File generated by PlantGL - Fri Sep  4 14:42:44 2026
v    18.323916 19.183525 0.000000
v    21.545131 18.956706 0.000000
v    20.130954 21.859769 0.000000
v    21.676084 20.816475 0.231332
v    18.454869 21.043294 0.231332
v    19.869046 18.140231 0.231332
v    20.902953 20.815081 -2.173690
v    22.015407 20.981771 -1.152738
v    21.198409 20.208561 -2.173690
v    22.015407 20.981771 -1.152738
v    21.166658 20.934556 0.231332
v    18.607322 20.543078 0.231332
v    20.226020 18.522366 0.231332
v    18.833342 19.065444 0.322458
v    21.392678 19.456922 0.322458
v    19.773980 21.477634 0.322458
v    19.647462 19.161839 -2.082564
v    18.299357 18.637694 -0.769777
v    19.105101 19.838899 -2.082564
v    18.299357 18.637694 -0.769777
v    18.929704 19.584152 0.322458
v    20.895283 19.281021 0.322458
v    20.175013 21.134828 0.322458
v    21.070296 20.415848 0.466406
v    19.104717 20.718979 0.466406
v    19.824987 18.865172 0.466406
v    20.203534 20.725826 -1.938616
v    22.209425 20.858441 -0.114065
v    20.640185 19.601989 -1.938616
v    22.209425 20.858441 -0.114065
v    20.802497 20.189835 0.466406
v    19.434349 20.600065 0.466406
v    19.763154 19.210099 0.466406
v    19.197503 19.810165 0.639349
v    20.565651 19.399935 0.639349
v    20.236846 20.789901 0.639349
v    20.039598 19.272294 -1.765673
v    17.653972 19.445034 0.405226
v    19.709360 20.668321 -1.765673
v    17.653972 19.445034 0.405226
v    19.654767 19.605771 0.639349
v    20.514029 19.898134 0.639349
v    19.831204 20.496095 0.639349
v    20.345233 20.394229 0.716000
v    19.485971 20.101866 0.716000
v    20.168796 19.503905 0.716000
v    20.047157 20.556146 -4.114370
v    20.558844 20.638157 -2.717141
v    20.545062 20.120123 -4.114370
v    20.558844 20.638157 -2.717141
mtllib usm_24_2.5D_2018-07-18_0.mtl
usemtl APPID_2736896864_2060026035696 
o vid_3 
f 3 2 1
f 4 5 6
f 1 6 5
f 1 5 3
f 3 5 4
f 4 2 3
f 2 4 6
f 6 1 2
usemtl APPID_2736895072_2060026035184 
o vid_4 
f 7 9 10
f 7 10 8
f 7 9 10
usemtl APPID_2736896864_2060026035696 
o vid_5 
f 13 12 11
f 14 15 16
f 11 16 15
f 11 15 13
f 13 15 14
f 14 12 13
f 12 14 16
f 16 11 12
usemtl APPID_2736895072_2060026035184 
o vid_6 
f 17 19 20
f 17 20 18
f 17 19 20
usemtl APPID_2736896864_2060026035696 
o vid_7 
f 23 22 21
f 24 25 26
f 21 26 25
f 21 25 23
f 23 25 24
f 24 22 23
f 22 24 26
f 26 21 22
usemtl APPID_2736895072_2060026035184 
o vid_8 
f 27 29 30
f 27 30 28
f 27 29 30
usemtl APPID_2736896864_2060026035696 
o vid_9 
f 33 32 31
f 34 35 36
f 31 36 35
f 31 35 33
f 33 35 34
f 34 32 33
f 32 34 36
f 36 31 32
usemtl APPID_2736895072_2060026035184 
o vid_10 
f 37 39 40
f 37 40 38
f 37 39 40
usemtl APPID_2736896864_2060026035696 
o vid_11 
f 43 42 41
f 44 45 46
f 41 46 45
f 41 45 43
f 43 45 44
f 44 42 43
f 42 44 46
f 46 41 42
usemtl APPID_2736895072_2060026035184 
o vid_12 
f 47 49 50
f 47 50 48
f 47 49 50
