# File generated by PlantGL - Fri Sep  4 14:42:25 2026
v    19.039273 19.531998 0.000000
v    20.885665 19.401987 0.000000
v    20.075062 21.066015 0.000000
v    20.960727 20.468002 0.331061
v    19.114335 20.598013 0.331061
v    19.924938 18.933985 0.331061
v    20.544094 21.046129 -0.088548
v    21.367274 21.358817 0.745813
v    21.754380 21.495122 1.133703
v    22.948428 21.937677 1.931924
v    23.177499 22.014886 2.082936
v    24.110415 22.346205 2.332094
v    25.428836 22.644564 2.665370
v    21.159130 19.783567 -0.088548
v    21.912773 20.239002 0.745813
v    22.258723 20.459792 1.133703
v    23.343237 21.127200 1.931924
v    23.545238 21.259980 2.082936
v    24.381196 21.790338 2.332094
v    25.428836 22.644564 2.665370
v    20.568457 20.455365 0.331061
v    19.321414 20.264616 0.331061
v    20.110129 19.280019 0.331061
v    19.431543 19.544635 0.493000
v    20.678586 19.735384 0.493000
v    19.889871 20.719981 0.493000
v    20.136662 19.021156 -0.680923
v    18.900624 18.291650 1.297954
v    18.701139 18.166085 1.516002
v    17.560755 17.501840 2.731327
v    17.315732 17.405758 2.965304
v    16.022473 16.813789 3.607421
v    19.074583 20.347009 -0.680923
v    18.092888 19.299993 1.297954
v    17.926811 19.132723 1.516002
v    17.029681 18.164810 2.731327
v    16.882436 17.946665 2.965304
v    16.022473 16.813789 3.607421
mtllib usm_45_2.5D_2018-07-15_0.mtl
usemtl APPID_1761371488_1410673842016 
o vid_3 
f 3 2 1
f 4 5 6
f 1 6 5
f 1 5 3
f 3 5 4
f 4 2 3
f 2 4 6
f 6 1 2
usemtl APPID_1761369584_1410673840480 
o vid_4 
f 7 14 15
f 8 15 16
f 9 16 17
f 10 17 18
f 11 18 19
f 7 15 8
f 8 16 9
f 9 17 10
f 10 18 11
f 11 19 12
f 12 19 20
usemtl APPID_1761371488_1410673842016 
o vid_5 
f 23 22 21
f 24 25 26
f 21 26 25
f 21 25 23
f 23 25 24
f 24 22 23
f 22 24 26
f 26 21 22
usemtl APPID_1761369584_1410673840480 
o vid_6 
f 27 33 34
f 28 34 35
f 29 35 36
f 30 36 37
f 27 34 28
f 28 35 29
f 29 36 30
f 30 37 31
f 31 37 38
