# File generated by PlantGL - Fri Sep  4 14:43:06 2026
v    19.207911 19.614148 0.000000
v    20.730203 19.506957 0.000000
v    20.061886 20.878895 0.000000
v    20.792089 20.385852 0.281304
v    19.269797 20.493043 0.281304
v    19.938114 19.121105 0.281304
v    20.431716 20.885661 -0.082024
v    21.135545 21.153013 0.631365
v    21.479770 21.274219 0.976287
v    22.503181 21.653530 1.660438
v    22.712153 21.723964 1.798200
v    23.507856 22.006553 2.010712
v    24.649437 22.264893 2.299285
v    20.963502 19.793996 -0.082024
v    21.607876 20.183398 0.631365
v    21.915504 20.379731 0.976287
v    22.845036 20.951762 1.660438
v    23.029312 21.072892 1.798200
v    23.742317 21.525244 2.010712
v    24.649437 22.264893 2.299285
v    20.427437 20.342400 0.281304
v    19.489754 20.198972 0.281304
v    20.082808 19.458628 0.281304
v    19.572563 19.657600 0.322000
v    20.510246 19.801028 0.322000
v    19.917192 20.541372 0.322000
v    19.895838 19.189598 -0.678744
v    19.846583 19.179144 -0.411417
v    19.536438 19.149964 1.135681
v    19.454068 19.172388 1.434449
v    18.890924 19.111571 2.683808
v    19.186402 20.075227 -0.678744
v    19.165449 20.029441 -0.411417
v    19.069281 19.733142 1.135681
v    19.073186 19.647864 1.434449
v    18.890924 19.111571 2.683808
mtllib usm_23_2.5D_2018-07-12_0.mtl
usemtl APPID_2431420976_2600883985888 
o vid_3 
f 3 2 1
f 4 5 6
f 1 6 5
f 1 5 3
f 3 5 4
f 4 2 3
f 2 4 6
f 6 1 2
usemtl APPID_2431422320_2600883985632 
o vid_4 
f 7 14 15
f 8 15 16
f 9 16 17
f 10 17 18
f 11 18 19
f 7 15 8
f 8 16 9
f 9 17 10
f 10 18 11
f 11 19 12
f 12 19 20
usemtl APPID_2431420976_2600883985888 
o vid_5 
f 23 22 21
f 24 25 26
f 21 26 25
f 21 25 23
f 23 25 24
f 24 22 23
f 22 24 26
f 26 21 22
usemtl APPID_2431422320_2600883985632 
o vid_6 
f 27 32 33
f 28 33 34
f 29 34 35
f 27 33 28
f 28 34 29
f 29 35 30
f 30 35 36
