# File generated by PlantGL - Fri Sep  4 14:43:48 2026
v    178.201987 19.124129 0.000000
v    181.657533 18.880811 0.000000
v    180.140480 21.995060 0.000000
v    181.798013 20.875871 0.331061
v    178.342467 21.119189 0.331061
v    179.859520 18.004940 0.331061
v    180.738657 21.084245 -2.645962
v    182.886403 21.406062 -0.674875
v    181.309076 19.913273 -2.645962
v    182.886403 21.406062 -0.674875
v    181.503548 21.204422 0.331061
v    178.205166 20.699900 0.331061
v    180.291286 18.095678 0.331061
v    178.496452 18.795578 0.771522
v    181.794834 19.300100 0.771522
v    179.708714 21.904322 0.771522
v    180.071009 18.207319 -2.205501
v    175.584528 16.462971 2.163443
v    178.266037 20.460567 -2.205501
v    175.584528 16.462971 2.163443
v    178.397620 19.377418 0.771522
v    181.340362 18.923589 0.771522
v    180.262018 21.698993 0.771522
v    181.602380 20.622582 1.487405
v    178.659638 21.076411 1.487405
v    179.737982 18.301007 1.487405
v    180.005985 22.353614 -1.489618
v    187.298537 22.835743 5.143659
v    181.593460 18.267827 -1.489618
v    187.298537 22.835743 5.143659
v    181.335958 20.316028 1.487405
v    179.058333 20.998959 1.487405
v    179.605710 18.685013 1.487405
v    178.664042 19.683972 2.987040
v    180.941667 19.001041 2.987040
v    180.394290 21.314987 2.987040
v    180.189629 16.975488 0.010017
v    174.877837 16.534401 5.024542
v    170.859071 16.825394 8.681583
v    167.070712 16.941502 10.986857
v    178.814429 22.788916 0.010017
v    173.867991 20.803359 5.024542
v    170.405536 18.742640 8.681583
v    167.070712 16.941502 10.986857
v    179.308543 19.210409 2.987040
v    181.029534 19.795976 2.987040
v    179.661923 20.993615 2.987040
v    180.691457 20.789591 4.897980
v    178.970466 20.204024 4.897980
v    180.338077 19.006385 4.897980
v    177.375690 22.548635 1.920956
v    180.320916 25.220745 5.679561
v    184.307857 28.593403 10.592522
v    185.639798 29.769534 11.702559
v    192.658634 34.455184 16.835505
v    182.872605 17.734899 1.920956
v    185.132762 21.006935 5.679561
v    187.949899 25.404009 10.592522
v    188.940011 26.879485 11.702559
v    192.658634 34.455184 16.835505
v    180.631519 20.403207 4.897980
v    179.335053 20.345308 4.897980
v    180.033428 19.251485 4.897980
v    179.368481 19.596793 10.485077
v    180.664947 19.654692 10.485077
v    179.966572 20.748515 10.485077
v    182.327324 16.562702 7.508054
v    174.856584 12.921775 15.362905
v    167.868809 9.652253 20.456927
v    164.015605 8.437890 22.914194
v    159.298364 6.782596 24.146755
v    177.861228 23.557683 7.508054
v    171.414592 18.312763 15.362905
v    165.508113 13.349671 20.456927
v    162.785032 10.365264 22.914194
v    159.298364 6.782596 24.146755
v    179.617092 19.724114 10.485077
v    180.430378 19.806335 10.485077
v    179.952530 20.469551 10.485077
v    180.382908 20.275886 11.790000
v    179.569622 20.193665 11.790000
v    180.047470 19.530449 11.790000
v    178.682418 22.588448 5.828048
v    180.355524 22.959565 11.831082
v    182.516225 22.727036 17.997047
v    184.110618 22.961710 20.922361
v    182.038262 17.930803 5.828048
v    182.919914 19.400395 11.831082
v    183.383309 21.523593 17.997047
v    184.110618 22.961710 20.922361
mtllib usm_31_2.5D_2018-08-11_4.mtl
usemtl APPID_2655941376_1733526488816 
o vid_3 
f 3 2 1
f 4 5 6
f 1 6 5
f 1 5 3
f 3 5 4
f 4 2 3
f 2 4 6
f 6 1 2
usemtl APPID_2655941488_1733526487792 
o vid_4 
f 7 9 10
f 7 10 8
f 7 9 10
usemtl APPID_2655941376_1733526488816 
o vid_5 
f 13 12 11
f 14 15 16
f 11 16 15
f 11 15 13
f 13 15 14
f 14 12 13
f 12 14 16
f 16 11 12
usemtl APPID_2655941488_1733526487792 
o vid_6 
f 17 19 20
f 17 20 18
f 17 19 20
usemtl APPID_2655941376_1733526488816 
o vid_7 
f 23 22 21
f 24 25 26
f 21 26 25
f 21 25 23
f 23 25 24
f 24 22 23
f 22 24 26
f 26 21 22
usemtl APPID_2655941488_1733526487792 
o vid_8 
f 27 29 30
f 27 30 28
f 27 29 30
usemtl APPID_2655941376_1733526488816 
o vid_9 
f 33 32 31
f 34 35 36
f 31 36 35
f 31 35 33
f 33 35 34
f 34 32 33
f 32 34 36
f 36 31 32
usemtl APPID_2655941488_1733526487792 
o vid_10 
f 37 41 42
f 38 42 43
f 37 42 38
f 38 43 39
f 39 43 44
usemtl APPID_2655941376_1733526488816 
o vid_11 
f 47 46 45
f 48 49 50
f 45 50 49
f 45 49 47
f 47 49 48
f 48 46 47
f 46 48 50
f 50 45 46
usemtl APPID_2655941488_1733526487792 
o vid_12 
f 51 56 57
f 52 57 58
f 53 58 59
f 51 57 52
f 52 58 53
f 53 59 54
f 54 59 60
usemtl APPID_2655941376_1733526488816 
o vid_13 
f 63 62 61
f 64 65 66
f 61 66 65
f 61 65 63
f 63 65 64
f 64 62 63
f 62 64 66
f 66 61 62
usemtl APPID_2655941488_1733526487792 
o vid_14 
f 67 72 73
f 68 73 74
f 69 74 75
f 67 73 68
f 68 74 69
f 69 75 70
f 70 75 76
usemtl APPID_2655941376_1733526488816 
o vid_15 
f 79 78 77
f 80 81 82
f 77 82 81
f 77 81 79
f 79 81 80
f 80 78 79
f 78 80 82
f 82 77 78
usemtl APPID_2655941488_1733526487792 
o vid_16 
f 83 87 88
f 84 88 89
f 83 88 84
f 84 89 85
f 85 89 90
