# File generated by PlantGL - Fri Sep  4 14:43:06 2026
v    18.687844 19.360806 0.000000
v    21.209636 19.183237 0.000000
v    20.102520 21.455957 0.000000
v    21.312156 20.639194 0.231332
v    18.790364 20.816763 0.231332
v    19.897480 18.544043 0.231332
v    20.546880 20.647446 -2.134672
v    21.676587 20.816720 -1.097886
v    20.846918 20.031519 -2.134672
v    21.676587 20.816720 -1.097886
v    20.862332 20.690774 0.231332
v    18.970607 20.401414 0.231332
v    20.167062 18.907812 0.231332
v    19.137668 19.309226 0.322458
v    21.029393 19.598586 0.322458
v    19.832938 21.092188 0.322458
v    19.947109 19.393412 -2.043546
v    18.578484 18.861290 -0.710777
v    19.396492 20.080777 -2.043546
v    18.578484 18.861290 -0.710777
v    19.279291 19.719979 0.322458
v    20.602860 19.515858 0.322458
v    20.117849 20.764163 0.322458
v    20.720709 20.280021 0.395975
v    19.397140 20.484142 0.395975
v    19.882151 19.235837 0.395975
v    19.954428 20.362551 -1.970029
v    21.133800 20.440522 -0.897277
v    20.211159 19.701786 -1.970029
v    21.133800 20.440522 -0.897277
v    20.452007 20.106925 0.395975
v    19.681397 20.337987 0.395975
v    19.866596 19.555088 0.395975
v    19.547993 19.893075 0.422000
v    20.318603 19.662013 0.422000
v    20.133404 20.444912 0.422000
v    19.151938 19.646143 -4.134217
v    19.083450 19.783185 -3.480353
v    19.083279 19.936387 -4.134217
v    19.083450 19.783185 -3.480353
mtllib usm_40_2.5D_2018-07-14_0.mtl
usemtl APPID_647745520_2676410401136 
o vid_3 
f 3 2 1
f 4 5 6
f 1 6 5
f 1 5 3
f 3 5 4
f 4 2 3
f 2 4 6
f 6 1 2
usemtl APPID_647739584_2676410399984 
o vid_4 
f 7 9 10
f 7 10 8
f 7 9 10
usemtl APPID_647745520_2676410401136 
o vid_5 
f 13 12 11
f 14 15 16
f 11 16 15
f 11 15 13
f 13 15 14
f 14 12 13
f 12 14 16
f 16 11 12
usemtl APPID_647739584_2676410399984 
o vid_6 
f 17 19 20
f 17 20 18
f 17 19 20
usemtl APPID_647745520_2676410401136 
o vid_7 
f 23 22 21
f 24 25 26
f 21 26 25
f 21 25 23
f 23 25 24
f 24 22 23
f 22 24 26
f 26 21 22
usemtl APPID_647739584_2676410399984 
o vid_8 
f 27 29 30
f 27 30 28
f 27 29 30
usemtl APPID_647745520_2676410401136 
o vid_9 
f 33 32 31
f 34 35 36
f 31 36 35
f 31 35 33
f 33 35 34
f 34 32 33
f 32 34 36
f 36 31 32
usemtl APPID_647739584_2676410399984 
o vid_10 
f 37 39 40
f 37 40 38
f 37 39 40
