# File generated by PlantGL - Fri Sep  4 14:43:28 2026
v    18.907524 139.467819 0.000000
v    21.007120 139.319979 0.000000
v    20.085356 141.212202 0.000000
v    21.092476 140.532181 0.331061
v    18.992880 140.680021 0.331061
v    19.914644 138.787798 0.331061
v    20.033125 140.740564 -2.645931
v    22.180892 141.062384 -0.674825
v    20.603549 139.569581 -2.645931
v    22.180892 141.062384 -0.674825
v    20.678629 140.543618 0.331061
v    19.189899 140.315901 0.331061
v    20.131472 139.140481 0.331061
v    19.321371 139.456382 0.639641
v    20.810101 139.684099 0.639641
v    19.868528 140.859519 0.639641
v    20.629028 139.201296 -2.337352
v    17.469340 137.972807 0.739558
v    19.357843 140.788187 -2.337352
v    17.469340 137.972807 0.739558
v    19.490314 139.801969 0.639641
v    20.426344 139.657614 0.639641
v    20.083343 140.540417 0.639641
v    20.509686 140.198031 0.717000
v    19.573656 140.342386 0.717000
v    19.916657 139.459583 0.717000
v    20.488549 140.480707 -5.211818
v    20.828138 140.321761 -4.049764
v    20.684942 139.975236 -5.211818
v    20.828138 140.321761 -4.049764
mtllib usm_13_2.5D_2018-07-18_3.mtl
usemtl APPID_96679616_1597823773920 
o vid_3 
f 3 2 1
f 4 5 6
f 1 6 5
f 1 5 3
f 3 5 4
f 4 2 3
f 2 4 6
f 6 1 2
usemtl APPID_96676144_1597823773408 
o vid_4 
f 7 9 10
f 7 10 8
f 7 9 10
usemtl APPID_96679616_1597823773920 
o vid_5 
f 13 12 11
f 14 15 16
f 11 16 15
f 11 15 13
f 13 15 14
f 14 12 13
f 12 14 16
f 16 11 12
usemtl APPID_96676144_1597823773408 
o vid_6 
f 17 19 20
f 17 20 18
f 17 19 20
usemtl APPID_96679616_1597823773920 
o vid_7 
f 23 22 21
f 24 25 26
f 21 26 25
f 21 25 23
f 23 25 24
f 24 22 23
f 22 24 26
f 26 21 22
usemtl APPID_96676144_1597823773408 
o vid_8 
f 27 29 30
f 27 30 28
f 27 29 30
