# File generated by PlantGL - Fri Sep  4 14:43:51 2026
v    17.752484 338.905161 0.000000
v    22.071916 338.601013 0.000000
v    20.175600 342.493825 0.000000
v    22.247516 341.094839 0.362700
v    17.928084 341.398987 0.362700
v    19.824400 337.506175 0.362700
v    22.065075 341.442687 0.200143
v    22.268631 341.520295 0.402578
v    22.554176 341.623826 0.684372
v    23.237140 341.881001 1.175603
v    23.816798 342.107276 1.375057
v    24.491166 342.340132 1.602820
v    24.687518 342.378637 1.665011
v    24.932883 342.429802 1.662226
v    22.408955 340.736759 0.200143
v    22.595541 340.849203 0.402578
v    22.853080 341.010226 0.684372
v    23.476580 341.389472 1.175603
v    24.012067 341.706421 1.375057
v    24.611119 342.093889 1.602820
v    24.762474 342.224764 1.665011
v    24.954011 342.386428 1.662226
v    21.879284 341.505407 0.362700
v    17.756638 340.874804 0.362700
v    20.364078 337.619789 0.362700
v    18.120716 338.494593 0.589630
v    22.243362 339.125196 0.589630
v    19.635922 342.380211 0.589630
v    18.485557 338.066319 0.353183
v    18.303356 337.945292 0.556441
v    17.848625 337.653880 1.057520
v    16.962010 337.070184 1.772041
v    16.317865 336.634916 2.021230
v    15.435654 336.088478 2.352522
v    15.048938 335.917760 2.483909
v    14.770826 335.790998 2.480513
v    17.782396 338.944113 0.353183
v    17.624521 338.792721 0.556441
v    17.240885 338.412556 1.057520
v    16.477749 337.674714 1.772041
v    15.912384 337.141100 2.021230
v    15.186570 336.399424 2.352522
v    14.935563 336.059292 2.483909
v    14.751157 335.815552 2.480513
v    17.841416 339.161313 0.589630
v    21.805616 338.549955 0.589630
v    20.352968 342.288732 0.589630
v    22.158584 340.838687 1.053978
v    18.194384 341.450045 1.053978
v    19.647032 337.711268 1.053978
v    21.854095 341.555760 0.718267
v    22.893798 341.839548 1.718293
v    24.343306 342.252313 2.732777
v    25.124076 342.484839 2.993903
v    26.551744 342.849019 3.464276
v    27.444582 342.948467 3.743495
v    27.614411 342.969438 3.741594
v    22.418101 340.104141 0.718267
v    23.376668 340.596753 1.718293
v    24.724619 341.270902 2.732777
v    25.457568 341.626510 2.993903
v    26.756606 342.321752 3.464276
v    27.482377 342.851191 3.743495
v    27.621815 342.950382 3.741594
v    22.163962 340.511898 1.053978
v    18.474702 341.618097 1.053978
v    19.361335 337.870005 1.053978
v    17.836038 339.488102 1.829186
v    21.525298 338.381903 1.829186
v    20.638665 342.129995 1.829186
v    18.117358 338.444097 1.363925
v    16.636040 338.252912 2.749860
v    14.567486 337.963263 4.155834
v    13.428627 337.789797 4.525086
v    11.399334 337.562666 5.176976
v    10.178432 337.596093 5.556588
v    9.885050 337.600622 5.553328
v    17.619786 340.547499 1.363925
v    16.209809 340.054733 2.749860
v    14.230719 339.386888 4.155834
v    13.134844 339.031714 4.525086
v    11.218865 338.325568 5.176976
v    10.142338 337.748671 5.556588
v    9.882080 337.613176 5.553328
v    18.595695 338.396392 1.829186
v    22.090917 339.585640 1.829186
v    19.313387 342.017967 1.829186
v    21.404305 341.603608 2.769464
v    17.909083 340.414360 2.769464
v    20.686613 337.982033 2.769464
v    20.272041 342.535031 2.140059
v    21.753232 343.909227 4.014950
v    23.804477 345.852580 5.916949
v    24.958910 346.972958 6.432596
v    27.015995 348.816614 7.314472
v    28.344121 349.709534 7.811888
v    28.731261 349.976579 7.806662
v    22.476976 340.604135 2.140059
v    23.643730 342.253688 4.014950
v    25.299453 344.543406 5.916949
v    26.257720 345.835569 6.432596
v    27.813847 348.117923 7.314472
v    28.523728 349.552249 7.811888
v    28.737359 349.971238 7.806662
v    21.718982 341.097521 2.769464
v    18.190028 340.939922 2.769464
v    20.090990 337.962557 2.769464
v    18.281018 338.902479 5.235228
v    21.809972 339.060078 5.235228
v    19.909010 342.037443 5.235228
v    19.308863 337.403604 4.404107
v    16.920988 336.212320 6.879879
v    13.602946 334.505682 9.391446
v    9.784960 332.647226 10.747956
v    7.196404 331.822119 11.592391
v    17.353846 340.465631 4.404107
v    15.268330 338.800782 6.879879
v    12.323885 336.509001 9.391446
v    9.031336 333.827583 10.747956
v    7.193546 331.826595 11.592391
v    18.429814 338.868677 5.235228
v    21.764847 339.205840 5.235228
v    19.805339 341.925482 5.235228
v    21.570186 341.131323 9.070287
v    18.235153 340.794160 9.070287
v    20.194661 338.074518 9.070287
v    19.993607 343.187806 7.999013
v    21.254948 343.935855 9.361739
v    22.966324 344.913188 11.190158
v    27.112978 347.349406 14.427442
v    30.657761 349.489806 15.754728
v    34.775877 351.758457 17.255718
v    35.969142 352.214015 17.652707
v    38.142731 353.073699 17.626737
v    23.021854 338.984840 7.999013
v    24.130710 339.944525 9.361739
v    25.599519 341.258522 11.190158
v    29.223075 344.420759 14.427442
v    32.375504 347.105715 15.754728
v    35.831076 350.293924 17.255718
v    36.640934 351.281621 17.652707
v    38.144456 353.071305 17.626737
v    21.302085 340.848004 9.070287
v    18.614564 340.703636 9.070287
v    20.083351 338.448359 9.070287
v    18.697915 339.151996 15.537192
v    21.385436 339.296364 15.537192
v    19.916649 341.551641 15.537192
v    20.649173 336.333369 14.189355
v    17.351899 334.582212 17.658653
v    11.472313 331.498711 22.277371
v    4.729898 327.849098 24.734835
v    0.229914 325.639494 26.335283
v    -4.999754 323.718492 26.273046
v    16.908972 342.076332 14.189355
v    13.974109 339.768705 17.658653
v    8.776523 335.638014 22.277371
v    2.712286 330.947081 24.734835
v    -1.128190 327.724821 26.335283
v    -4.999754 323.718492 26.273046
v    18.949517 339.417362 15.537192
v    21.029821 339.381574 15.537192
v    20.020662 341.201064 15.537192
v    21.050483 340.582638 23.570456
v    18.970179 340.618426 23.570456
v    19.979338 338.798936 23.570456
v    18.967562 344.092863 21.915158
v    21.838392 345.365759 24.833348
v    23.835734 346.212406 26.846013
v    30.641492 349.196588 31.848161
v    37.506273 352.305665 34.263705
v    44.237769 355.037916 36.582988
v    49.702076 356.473916 36.777856
v    22.925370 336.957030 21.915158
v    25.525268 338.718410 24.833348
v    27.301067 339.964493 26.846013
v    33.436186 344.157821 31.848161
v    39.708509 348.335087 34.263705
v    45.590590 352.598812 36.582988
v    49.702076 356.473916 36.777856
v    20.847902 340.225547 23.570456
v    19.380719 340.621531 23.570456
v    19.771378 339.152921 23.570456
v    19.152098 339.774453 36.455601
v    20.619281 339.378469 36.455601
v    20.228622 340.847079 36.455601
v    20.560435 335.034748 34.471261
v    16.280327 334.295934 38.507371
v    14.283514 333.984917 40.382277
v    5.498724 332.505691 46.378757
v    -4.132240 330.764557 49.515843
v    -12.757027 329.556503 52.296156
v    -19.566111 329.475171 52.279348
v    18.019353 344.587467 34.471261
v    13.937848 343.102040 38.507371
v    12.050417 342.379825 40.382277
v    3.691721 339.298778 46.378757
v    -5.531443 336.024598 49.515843
v    -13.616550 332.787716 52.296156
v    -19.566111 329.475171 52.279348
v    19.462179 339.776745 36.455601
v    20.462255 339.645861 36.455601
v    20.075566 340.577394 36.455601
v    20.537821 340.223255 45.612000
v    19.537745 340.354139 45.612000
v    19.924434 339.422606 45.612000
v    18.875519 344.782614 40.993220
v    24.344082 346.202879 49.449059
v    31.758142 348.328939 57.827515
v    40.418882 350.594184 63.607843
v    47.271903 351.320850 67.628952
v    22.593080 335.827017 40.993220
v    27.459830 338.697048 49.449059
v    34.199983 342.446548 57.827515
v    41.918891 346.980665 63.607843
v    47.271903 351.320850 67.628952
v    24.932883 342.429802 1.662226
v    25.029194 342.449885 1.661133
v    24.954011 342.386428 1.662226
v    25.029194 342.449885 1.661133
v    14.770826 335.790998 2.480513
v    14.712450 335.764391 2.479800
v    14.751157 335.815552 2.480513
v    14.712450 335.764391 2.479800
v    27.614411 342.969438 3.741594
v    27.655787 342.974548 3.741131
v    27.621815 342.950382 3.741594
v    27.655787 342.974548 3.741131
v    9.885050 337.600622 5.553328
v    9.858746 337.601028 5.553035
v    9.882080 337.613176 5.553328
v    9.858746 337.601028 5.553035
v    28.731261 349.976579 7.806662
v    28.744867 349.985964 7.806479
v    28.737359 349.971238 7.806662
v    28.744867 349.985964 7.806479
v    7.196404 331.822119 11.592391
v    7.186551 331.818978 11.595605
v    7.193546 331.826595 11.592391
v    7.186551 331.818978 11.595605
v    38.142731 353.073699 17.626737
v    38.148327 353.075912 17.626670
v    38.144456 353.071305 17.626737
v    38.148327 353.075912 17.626670
mtllib usm_13_2.5D_2018-08-19_8.mtl
usemtl APPID_96697088_1597823706848 
o vid_3 
f 3 2 1
f 4 5 6
f 1 6 5
f 1 5 3
f 3 5 4
f 4 2 3
f 2 4 6
f 6 1 2
usemtl APPID_96697536_1597823709792 
o vid_4 
f 7 15 16
f 8 16 17
f 9 17 18
f 10 18 19
f 11 19 20
f 12 20 21
f 7 16 8
f 8 17 9
f 9 18 10
f 10 19 11
f 11 20 12
f 12 21 13
f 13 21 22
f 13 22 14
usemtl APPID_96697088_1597823706848 
o vid_5 
f 25 24 23
f 26 27 28
f 23 28 27
f 23 27 25
f 25 27 26
f 26 24 25
f 24 26 28
f 28 23 24
usemtl APPID_96697536_1597823709792 
o vid_6 
f 29 37 38
f 30 38 39
f 31 39 40
f 32 40 41
f 33 41 42
f 34 42 43
f 29 38 30
f 30 39 31
f 31 40 32
f 32 41 33
f 33 42 34
f 34 43 35
f 35 43 44
f 35 44 36
usemtl APPID_96697088_1597823706848 
o vid_7 
f 47 46 45
f 48 49 50
f 45 50 49
f 45 49 47
f 47 49 48
f 48 46 47
f 46 48 50
f 50 45 46
usemtl APPID_96697536_1597823709792 
o vid_8 
f 51 58 59
f 52 59 60
f 53 60 61
f 54 61 62
f 55 62 63
f 51 59 52
f 52 60 53
f 53 61 54
f 54 62 55
f 55 63 56
f 56 63 64
f 56 64 57
usemtl APPID_96697088_1597823706848 
o vid_9 
f 67 66 65
f 68 69 70
f 65 70 69
f 65 69 67
f 67 69 68
f 68 66 67
f 66 68 70
f 70 65 66
usemtl APPID_96697536_1597823709792 
o vid_10 
f 71 78 79
f 72 79 80
f 73 80 81
f 74 81 82
f 75 82 83
f 71 79 72
f 72 80 73
f 73 81 74
f 74 82 75
f 75 83 76
f 76 83 84
f 76 84 77
usemtl APPID_96697088_1597823706848 
o vid_11 
f 87 86 85
f 88 89 90
f 85 90 89
f 85 89 87
f 87 89 88
f 88 86 87
f 86 88 90
f 90 85 86
usemtl APPID_96697536_1597823709792 
o vid_12 
f 91 98 99
f 92 99 100
f 93 100 101
f 94 101 102
f 95 102 103
f 91 99 92
f 92 100 93
f 93 101 94
f 94 102 95
f 95 103 96
f 96 103 104
f 96 104 97
usemtl APPID_96697088_1597823706848 
o vid_13 
f 107 106 105
f 108 109 110
f 105 110 109
f 105 109 107
f 107 109 108
f 108 106 107
f 106 108 110
f 110 105 106
usemtl APPID_96697536_1597823709792 
o vid_14 
f 111 116 117
f 112 117 118
f 113 118 119
f 111 117 112
f 112 118 113
f 113 119 114
f 114 119 120
f 114 120 115
usemtl APPID_96697088_1597823706848 
o vid_15 
f 123 122 121
f 124 125 126
f 121 126 125
f 121 125 123
f 123 125 124
f 124 122 123
f 122 124 126
f 126 121 122
usemtl APPID_96697536_1597823709792 
o vid_16 
f 127 135 136
f 128 136 137
f 129 137 138
f 130 138 139
f 131 139 140
f 132 140 141
f 127 136 128
f 128 137 129
f 129 138 130
f 130 139 131
f 131 140 132
f 132 141 133
f 133 141 142
f 133 142 134
usemtl APPID_96697088_1597823706848 
o vid_17 
f 145 144 143
f 146 147 148
f 143 148 147
f 143 147 145
f 145 147 146
f 146 144 145
f 144 146 148
f 148 143 144
usemtl APPID_96697536_1597823709792 
o vid_18 
f 149 155 156
f 150 156 157
f 151 157 158
f 152 158 159
f 149 156 150
f 150 157 151
f 151 158 152
f 152 159 153
f 153 159 160
usemtl APPID_96697088_1597823706848 
o vid_19 
f 163 162 161
f 164 165 166
f 161 166 165
f 161 165 163
f 163 165 164
f 164 162 163
f 162 164 166
f 166 161 162
usemtl APPID_96697536_1597823709792 
o vid_20 
f 167 174 175
f 168 175 176
f 169 176 177
f 170 177 178
f 171 178 179
f 167 175 168
f 168 176 169
f 169 177 170
f 170 178 171
f 171 179 172
f 172 179 180
usemtl APPID_96697088_1597823706848 
o vid_21 
f 183 182 181
f 184 185 186
f 181 186 185
f 181 185 183
f 183 185 184
f 184 182 183
f 182 184 186
f 186 181 182
usemtl APPID_96697536_1597823709792 
o vid_22 
f 187 194 195
f 188 195 196
f 189 196 197
f 190 197 198
f 191 198 199
f 187 195 188
f 188 196 189
f 189 197 190
f 190 198 191
f 191 199 192
f 192 199 200
usemtl APPID_96697088_1597823706848 
o vid_23 
f 203 202 201
f 204 205 206
f 201 206 205
f 201 205 203
f 203 205 204
f 204 202 203
f 202 204 206
f 206 201 202
usemtl APPID_96697536_1597823709792 
o vid_24 
f 207 212 213
f 208 213 214
f 209 214 215
f 207 213 208
f 208 214 209
f 209 215 210
f 210 215 216
usemtl APPID_96699104_1597823712864 
o vid_10000004 
f 217 219 220
f 217 220 218
f 217 219 220
usemtl APPID_96699104_1597823712864 
o vid_10000006 
f 221 223 224
f 221 224 222
f 221 223 224
usemtl APPID_96699104_1597823712864 
o vid_10000008 
f 225 227 228
f 225 228 226
f 225 227 228
usemtl APPID_96699104_1597823712864 
o vid_10000010 
f 229 231 232
f 229 232 230
f 229 231 232
usemtl APPID_96699104_1597823712864 
o vid_10000012 
f 233 235 236
f 233 236 234
f 233 235 236
usemtl APPID_96699104_1597823712864 
o vid_10000014 
f 237 239 240
f 237 240 238
f 237 239 240
usemtl APPID_96699104_1597823712864 
o vid_10000016 
f 241 243 244
f 241 244 242
f 241 243 244
