# File generated by PlantGL - Wed Jul 15 17:35:10 2026
v    20.701807 139.124129 0.000000
v    24.157353 138.880811 0.000000
v    22.640300 141.995060 0.000000
v    24.297833 140.875871 3.803278
v    20.842287 141.119189 3.803278
v    22.359340 138.004940 3.803278
v    23.911302 141.499000 3.561434
v    24.739242 141.817000 4.340248
v    25.990882 142.314159 5.121910
v    27.247760 142.808299 5.483169
v    27.872917 143.055399 5.478007
v    28.495358 143.283740 5.472927
v    29.055347 143.486425 5.297640
v    29.627426 143.667927 5.121881
v    30.171547 143.754201 4.965905
v    30.219484 143.760501 4.940519
v    24.550226 140.187399 3.561434
v    25.310986 140.643307 4.340248
v    26.473999 141.322404 5.121910
v    27.637862 142.007487 5.483169
v    28.217794 142.347425 5.478007
v    28.781281 142.696789 5.472927
v    29.286069 143.012791 5.297640
v    29.781630 143.351372 5.121881
v    30.184974 143.726639 4.965905
v    30.219484 143.760501 4.940519
v    23.995716 141.198293 3.803278
v    20.714120 140.696338 3.803278
v    22.789624 138.105369 3.803278
v    21.003924 138.801707 8.832458
v    24.285520 139.303662 8.832458
v    22.210016 141.894631 8.832458
v    21.786512 138.006963 8.463179
v    20.660306 137.254870 9.652372
v    18.963283 136.093433 10.845914
v    17.256950 134.935347 11.397530
v    16.463760 134.394444 11.390158
v    15.557610 133.808908 11.381892
v    14.845457 133.353084 11.133021
v    14.054429 132.890347 10.864650
v    13.211395 132.554283 10.607706
v    13.199398 132.549866 10.600993
v    20.399147 139.738888 8.463179
v    19.419382 138.803986 9.652372
v    17.915554 137.401372 10.845914
v    16.412965 135.988941 11.397530
v    15.711982 135.332931 11.390158
v    14.942787 134.576426 11.381892
v    14.342518 133.980930 11.133021
v    13.718288 133.309970 10.864650
v    13.206327 132.560611 10.607706
v    13.199398 132.549866 10.600993
v    20.790941 139.336039 8.832458
v    23.929266 138.852048 8.832458
v    22.779253 141.811913 8.832458
v    24.208699 140.663961 19.757518
v    21.070374 141.147952 19.757518
v    22.220387 138.188087 19.757518
v    23.447069 142.161295 19.214031
v    25.356674 142.729202 20.964228
v    28.252125 143.610231 22.720824
v    29.059711 143.862936 22.947368
v    31.155940 144.490745 23.532666
v    33.226132 145.116866 23.516059
v    34.032414 145.339045 23.509651
v    35.929395 145.852958 22.931179
v    37.244309 146.153225 22.536203
v    38.536539 146.230840 21.998240
v    24.657787 139.045192 19.214031
v    26.449886 139.915531 20.964228
v    29.180629 141.220480 22.720824
v    29.946983 141.579306 22.947368
v    31.917194 142.531455 23.532666
v    33.867059 143.467270 23.516059
v    34.611841 143.847735 23.509651
v    36.358174 144.749381 22.931179
v    37.530885 145.415646 22.536203
v    38.536539 146.230840 21.998240
v    24.202820 140.402854 19.757518
v    21.299438 141.273414 19.757518
v    21.997202 138.323732 19.757518
v    20.796820 139.597146 37.032719
v    23.700202 138.726586 37.032719
v    23.002438 141.676268 37.032719
v    21.561269 137.398683 36.261746
v    18.763858 136.988199 38.744520
v    14.523387 136.316571 41.236370
v    10.268310 135.659791 42.388023
v    8.304562 135.352144 42.372760
v    6.054700 135.056657 42.355374
v    4.319385 134.836381 41.840514
v    2.413179 134.671646 41.280214
v    0.505607 134.793451 40.739045
v    0.494325 134.794473 40.733097
v    20.495249 141.905105 36.261746
v    17.810412 141.018731 38.744520
v    13.718458 139.719276 41.236370
v    9.620098 138.400001 42.388023
v    7.726642 137.795205 42.372760
v    5.582845 137.051347 42.355374
v    3.932757 136.470786 41.840514
v    2.154775 135.764005 41.280214
v    0.503953 134.800441 40.739045
v    0.494325 134.794473 40.733097
v    21.401804 138.746150 37.032719
v    24.134694 139.676015 37.032719
v    21.962962 141.577834 37.032719
v    23.597836 141.253850 60.233663
v    20.864946 140.323985 60.233663
v    23.036678 138.422166 60.233663
v    20.828809 143.246487 59.179507
v    22.921586 145.368583 61.801934
v    27.737416 150.096913 65.981343
v    31.269880 153.621200 67.317225
v    36.064208 158.310419 67.511364
v    37.336886 159.547941 66.987614
v    41.281069 163.189585 65.407557
v    45.233657 165.960289 62.904330
v    25.938398 138.771939 59.179507
v    27.765822 141.126409 61.801934
v    31.817415 146.523993 65.981343
v    34.844819 150.490569 67.317225
v    38.860480 155.861679 67.511364
v    39.919267 157.286509 66.987614
v    43.008679 161.676689 65.407557
v    45.233657 165.960289 62.904330
v    23.716544 140.776844 60.233663
v    21.218691 140.665292 60.233663
v    22.564224 138.557864 60.233663
v    21.283096 139.223156 120.925713
v    23.780949 139.334708 120.925713
v    22.435416 141.442136 120.925713
v    24.072270 135.651001 119.536442
v    19.721939 133.223193 123.919943
v    12.815633 129.513923 128.500566
v    6.354578 125.976625 130.472574
v    -0.741542 122.180578 130.516977
v    -3.501110 120.715521 129.595151
v    -9.555005 117.699490 127.604401
v    -12.703900 116.323506 125.725072
v    -15.592860 115.599348 124.161238
v    -15.774204 115.563128 124.010005
v    19.216341 143.256556 119.536442
v    15.183288 140.331812 123.919943
v    8.912176 135.627676 128.500566
v    2.984434 131.255081 130.472574
v    -3.445274 126.415274 130.516977
v    -5.935557 124.528450 129.595151
v    -11.219094 120.305854 127.604401
v    -13.792408 118.028371 125.725072
v    -15.665035 115.712392 124.161238
v    -15.774204 115.563128 124.010005
v    21.580391 139.337549 120.925713
v    23.533233 139.534977 120.925713
v    22.385835 141.127474 120.925713
v    23.419249 140.662451 170.335145
v    21.466407 140.465023 170.335145
v    22.613805 138.872526 170.335145
v    19.691828 144.904566 168.570391
v    22.068669 146.411823 171.046779
v    25.178515 148.319042 174.253450
v    33.560998 153.448570 179.957285
v    39.462588 157.124214 181.818633
v    41.939934 158.625292 182.593414
v    50.249950 163.691304 182.518681
v    59.407919 168.961534 179.407450
v    66.998322 172.061275 175.507022
v    26.263310 135.783872 168.570391
v    28.445443 137.561367 171.046779
v    31.239004 139.907566 174.253450
v    38.758214 146.235246 179.957285
v    44.112983 150.669835 181.818633
v    46.321070 152.544623 182.593414
v    53.757093 158.823668 182.518681
v    61.655250 165.842417 179.407450
v    66.998322 172.061275 175.507022
v    23.211171 140.463279 170.335145
v    21.742933 140.384409 170.335145
v    22.545356 139.152312 170.335145
v    21.788469 139.536721 207.766900
v    23.256707 139.615591 207.766900
v    22.454284 140.847688 207.766900
v    25.941444 134.381293 205.606185
v    18.959483 130.636526 212.564361
v    8.411958 124.846145 219.547975
v    -2.177151 119.064174 222.775576
v    -8.555289 115.576636 222.719756
v    -12.695629 113.444402 222.684075
v    -18.518889 110.477287 220.760427
v    -23.390300 108.236160 219.190141
v    -26.905671 107.220684 218.154181
v    -28.448388 106.819129 217.317157
v    18.752536 145.419641 205.606185
v    12.504410 140.548093 212.564361
v    2.943626 133.242601 219.547975
v    -6.626281 125.895677 222.775576
v    -12.394990 121.472378 222.719756
v    -16.019280 118.547766 222.684075
v    -21.087644 114.421531 220.760427
v    -25.107135 110.872308 219.190141
v    -27.457329 108.067737 218.154181
v    -28.448388 106.819129 217.317157
v    21.983306 139.713521 207.766900
v    23.006175 139.695925 207.766900
v    22.509979 140.590554 207.766900
v    23.016334 140.286479 226.520485
v    21.993465 140.304075 226.520485
v    22.489661 139.409446 226.520485
v    18.994848 145.915395 223.970565
v    27.534094 149.726833 232.182101
v    31.367303 151.490357 234.631054
v    40.500686 155.541702 240.423657
v    48.613806 159.231230 242.807583
v    53.530349 161.316473 244.232638
v    60.892017 164.469801 244.171279
v    66.600319 166.659193 244.124655
v    73.253747 168.150084 242.188390
v    25.662085 133.894526 223.970565
v    33.416845 139.120373 232.182101
v    36.942522 141.438371 234.631054
v    45.215391 147.041203 240.423657
v    52.641103 151.970110 242.807583
v    57.013315 155.036768 244.232638
v    63.586274 159.612121 244.171279
v    68.466067 163.295295 244.124655
v    73.253747 168.150084 242.188390
v    22.846188 140.092136 226.520485
v    22.246844 140.253896 226.520485
v    22.406428 139.653968 226.520485
v    22.153452 139.907864 229.704000
v    22.752796 139.746104 229.704000
v    22.593212 140.346032 229.704000
v    23.190873 135.304957 223.965053
v    20.282915 136.023053 237.844809
v    16.903416 136.326395 245.773303
v    13.757841 137.674580 252.471575
v    20.766782 144.417868 223.965053
v    18.599949 142.349847 237.844809
v    15.817824 140.407475 245.773303
v    13.757841 137.674580 252.471575
mtllib usm_20_Beer_2018-09-01_3.mtl
usemtl APPID_3689965056_1579940125696 
o vid_3 
f 3 2 1
f 4 5 6
f 1 6 5
f 1 5 3
f 3 5 4
f 4 2 3
f 2 4 6
f 6 1 2
usemtl APPID_3689967632_1579940123520 
o vid_4 
f 7 17 18
f 8 18 19
f 9 19 20
f 10 20 21
f 11 21 22
f 12 22 23
f 13 23 24
f 14 24 25
f 7 18 8
f 8 19 9
f 9 20 10
f 10 21 11
f 11 22 12
f 12 23 13
f 13 24 14
f 14 25 15
f 15 25 26
usemtl APPID_3689965056_1579940125696 
o vid_5 
f 29 28 27
f 30 31 32
f 27 32 31
f 27 31 29
f 29 31 30
f 30 28 29
f 28 30 32
f 32 27 28
usemtl APPID_3689967632_1579940123520 
o vid_6 
f 33 43 44
f 34 44 45
f 35 45 46
f 36 46 47
f 37 47 48
f 38 48 49
f 39 49 50
f 40 50 51
f 33 44 34
f 34 45 35
f 35 46 36
f 36 47 37
f 37 48 38
f 38 49 39
f 39 50 40
f 40 51 41
f 41 51 52
usemtl APPID_3689965056_1579940125696 
o vid_7 
f 55 54 53
f 56 57 58
f 53 58 57
f 53 57 55
f 55 57 56
f 56 54 55
f 54 56 58
f 58 53 54
usemtl APPID_3689967632_1579940123520 
o vid_8 
f 59 69 70
f 60 70 71
f 61 71 72
f 62 72 73
f 63 73 74
f 64 74 75
f 65 75 76
f 66 76 77
f 59 70 60
f 60 71 61
f 61 72 62
f 62 73 63
f 63 74 64
f 64 75 65
f 65 76 66
f 66 77 67
f 67 77 78
usemtl APPID_3689965056_1579940125696 
o vid_9 
f 81 80 79
f 82 83 84
f 79 84 83
f 79 83 81
f 81 83 82
f 82 80 81
f 80 82 84
f 84 79 80
usemtl APPID_3689967632_1579940123520 
o vid_10 
f 85 95 96
f 86 96 97
f 87 97 98
f 88 98 99
f 89 99 100
f 90 100 101
f 91 101 102
f 92 102 103
f 85 96 86
f 86 97 87
f 87 98 88
f 88 99 89
f 89 100 90
f 90 101 91
f 91 102 92
f 92 103 93
f 93 103 104
usemtl APPID_3689965056_1579940125696 
o vid_11 
f 107 106 105
f 108 109 110
f 105 110 109
f 105 109 107
f 107 109 108
f 108 106 107
f 106 108 110
f 110 105 106
usemtl APPID_3689967632_1579940123520 
o vid_12 
f 111 119 120
f 112 120 121
f 113 121 122
f 114 122 123
f 115 123 124
f 116 124 125
f 111 120 112
f 112 121 113
f 113 122 114
f 114 123 115
f 115 124 116
f 116 125 117
f 117 125 126
usemtl APPID_3689965056_1579940125696 
o vid_13 
f 129 128 127
f 130 131 132
f 127 132 131
f 127 131 129
f 129 131 130
f 130 128 129
f 128 130 132
f 132 127 128
usemtl APPID_3689967632_1579940123520 
o vid_14 
f 133 143 144
f 134 144 145
f 135 145 146
f 136 146 147
f 137 147 148
f 138 148 149
f 139 149 150
f 140 150 151
f 133 144 134
f 134 145 135
f 135 146 136
f 136 147 137
f 137 148 138
f 138 149 139
f 139 150 140
f 140 151 141
f 141 151 152
usemtl APPID_3689965056_1579940125696 
o vid_15 
f 155 154 153
f 156 157 158
f 153 158 157
f 153 157 155
f 155 157 156
f 156 154 155
f 154 156 158
f 158 153 154
usemtl APPID_3689967632_1579940123520 
o vid_16 
f 159 168 169
f 160 169 170
f 161 170 171
f 162 171 172
f 163 172 173
f 164 173 174
f 165 174 175
f 159 169 160
f 160 170 161
f 161 171 162
f 162 172 163
f 163 173 164
f 164 174 165
f 165 175 166
f 166 175 176
usemtl APPID_3689965056_1579940125696 
o vid_17 
f 179 178 177
f 180 181 182
f 177 182 181
f 177 181 179
f 179 181 180
f 180 178 179
f 178 180 182
f 182 177 178
usemtl APPID_3689967632_1579940123520 
o vid_18 
f 183 193 194
f 184 194 195
f 185 195 196
f 186 196 197
f 187 197 198
f 188 198 199
f 189 199 200
f 190 200 201
f 183 194 184
f 184 195 185
f 185 196 186
f 186 197 187
f 187 198 188
f 188 199 189
f 189 200 190
f 190 201 191
f 191 201 202
usemtl APPID_3689965056_1579940125696 
o vid_19 
f 205 204 203
f 206 207 208
f 203 208 207
f 203 207 205
f 205 207 206
f 206 204 205
f 204 206 208
f 208 203 204
usemtl APPID_3689967632_1579940123520 
o vid_20 
f 209 218 219
f 210 219 220
f 211 220 221
f 212 221 222
f 213 222 223
f 214 223 224
f 215 224 225
f 209 219 210
f 210 220 211
f 211 221 212
f 212 222 213
f 213 223 214
f 214 224 215
f 215 225 216
f 216 225 226
usemtl APPID_3689965056_1579940125696 
o vid_21 
f 229 228 227
f 230 231 232
f 227 232 231
f 227 231 229
f 229 231 230
f 230 228 229
f 228 230 232
f 232 227 228
usemtl APPID_3689967632_1579940123520 
o vid_22 
f 233 237 238
f 234 238 239
f 233 238 234
f 234 239 235
f 235 239 240
