# File generated by PlantGL - Fri Sep  4 14:41:45 2026
v    18.201987 219.124129 0.000000
v    21.657533 218.880811 0.000000
v    20.140480 221.995060 0.000000
v    21.798013 220.875871 0.331061
v    18.342467 221.119189 0.331061
v    19.859520 218.004940 0.331061
v    21.383011 221.452572 -0.085637
v    22.230290 221.774414 0.773151
v    22.584556 221.899155 1.128134
v    23.805267 222.351593 1.944180
v    24.964051 222.759653 2.328973
v    26.273324 223.055942 2.659937
v    21.996298 220.193600 -0.085637
v    22.772004 220.662368 0.773151
v    23.088606 220.864428 1.128134
v    24.197338 221.546739 1.944180
v    25.232953 222.207642 2.328973
v    26.273324 223.055942 2.659937
v    21.480010 221.185567 0.331061
v    18.233263 220.688943 0.331061
v    20.286726 218.125490 0.331061
v    18.519990 218.814433 0.718770
v    21.766737 219.311057 0.718770
v    19.713274 221.874510 0.718770
v    19.308845 218.095783 0.143568
v    17.834731 217.119208 1.819033
v    17.397328 216.821231 2.151401
v    16.101955 215.978051 3.120245
v    15.287814 215.433575 3.367383
v    13.820062 214.506542 3.804288
v    13.216509 214.218977 3.969121
v    12.139052 213.702962 3.722176
v    17.990841 219.741122 0.143568
v    16.716071 218.515694 1.819033
v    16.329811 218.153873 2.151401
v    15.224232 217.073763 3.120245
v    14.515188 216.398087 3.367383
v    13.290155 215.168055 3.804288
v    12.877792 214.641817 3.969121
v    12.139052 213.702962 3.722176
v    18.569750 219.444297 0.718770
v    21.196378 219.039219 0.718770
v    20.233872 221.516484 0.718770
v    21.430250 220.555703 1.487000
v    18.803622 220.960781 1.487000
v    19.766128 218.483516 1.487000
v    20.692842 221.834424 0.711738
v    22.983092 222.493745 2.969945
v    24.140253 222.843125 3.729033
v    25.668683 223.269788 4.723730
v    27.480767 223.800019 5.200142
v    29.742799 224.398217 5.789008
v    32.233878 224.753300 5.413822
v    21.749609 219.114556 0.711738
v    23.884221 220.174453 2.969945
v    24.973719 220.697979 3.729033
v    26.389273 221.415160 4.723730
v    28.083996 222.247449 5.200142
v    30.156525 223.333384 5.789008
v    32.233878 224.753300 5.413822
v    21.163382 220.275205 1.487000
v    19.179975 220.869916 1.487000
v    19.656643 218.854879 1.487000
v    18.836618 219.724795 2.857087
v    20.820025 219.130084 2.857087
v    20.343357 221.145121 2.857087
v    19.576398 217.879458 1.836837
v    16.471576 217.435575 4.808653
v    14.311107 217.098156 6.181858
v    12.833169 216.899035 7.116646
v    9.699117 216.437022 7.916002
v    6.912906 216.100400 8.622319
v    3.324744 216.055372 7.879028
v    18.671207 221.706003 1.836837
v    15.696576 220.711756 4.808653
v    13.613911 220.045437 6.181858
v    12.203400 219.561279 7.116646
v    9.194514 218.570145 7.916002
v    6.552784 217.622755 8.622319
v    3.324744 216.055372 7.879028
v    19.420547 219.338310 2.857087
v    20.862767 219.829024 2.857087
v    19.716686 220.832666 2.857087
v    20.579453 220.661690 4.462301
v    19.137233 220.170976 4.462301
v    20.283314 219.167334 4.462301
v    18.266283 222.183317 3.151326
v    18.970477 222.854660 4.073222
v    21.183730 224.963643 6.969974
v    24.560188 228.265329 9.935641
v    29.797307 233.325423 11.773572
v    32.741718 236.016173 11.110145
v    36.201586 238.500962 10.229628
v    22.392977 218.569506 3.151326
v    22.965539 219.356121 4.073222
v    24.764068 221.828284 6.969974
v    27.591401 225.610848 9.935641
v    31.916273 231.469811 11.773572
v    34.195014 234.743499 11.110145
v    36.201586 238.500962 10.229628
v    20.494401 220.315661 4.462301
v    19.479429 220.270333 4.462301
v    20.026170 219.414006 4.462301
v    19.505599 219.684339 7.294000
v    20.520571 219.729667 7.294000
v    19.973830 220.585994 7.294000
v    21.367845 217.660880 3.936990
v    19.489482 216.777592 7.437360
v    18.124868 216.192617 9.928440
v    14.976456 214.696272 13.793377
v    13.862321 214.217194 15.130741
v    11.268922 212.987678 16.786665
v    6.739786 211.533732 19.461624
v    18.453677 222.225167 3.936990
v    16.861967 220.892913 7.437360
v    15.757063 219.901170 9.928440
v    13.074766 217.674775 13.793377
v    12.171331 216.865691 15.130741
v    9.964645 215.030490 16.786665
v    6.739786 211.533732 19.461624
mtllib usm_13_Beer_2018-08-07_5.mtl
usemtl APPID_94962512_1597823843680 
o vid_3 
f 3 2 1
f 4 5 6
f 1 6 5
f 1 5 3
f 3 5 4
f 4 2 3
f 2 4 6
f 6 1 2
usemtl APPID_94959264_1597823840480 
o vid_4 
f 7 13 14
f 8 14 15
f 9 15 16
f 10 16 17
f 7 14 8
f 8 15 9
f 9 16 10
f 10 17 11
f 11 17 18
usemtl APPID_94962512_1597823843680 
o vid_5 
f 21 20 19
f 22 23 24
f 19 24 23
f 19 23 21
f 21 23 22
f 22 20 21
f 20 22 24
f 24 19 20
usemtl APPID_94959264_1597823840480 
o vid_6 
f 25 33 34
f 26 34 35
f 27 35 36
f 28 36 37
f 29 37 38
f 30 38 39
f 25 34 26
f 26 35 27
f 27 36 28
f 28 37 29
f 29 38 30
f 30 39 31
f 31 39 40
usemtl APPID_94962512_1597823843680 
o vid_7 
f 43 42 41
f 44 45 46
f 41 46 45
f 41 45 43
f 43 45 44
f 44 42 43
f 42 44 46
f 46 41 42
usemtl APPID_94959264_1597823840480 
o vid_8 
f 47 54 55
f 48 55 56
f 49 56 57
f 50 57 58
f 51 58 59
f 47 55 48
f 48 56 49
f 49 57 50
f 50 58 51
f 51 59 52
f 52 59 60
usemtl APPID_94962512_1597823843680 
o vid_9 
f 63 62 61
f 64 65 66
f 61 66 65
f 61 65 63
f 63 65 64
f 64 62 63
f 62 64 66
f 66 61 62
usemtl APPID_94959264_1597823840480 
o vid_10 
f 67 74 75
f 68 75 76
f 69 76 77
f 70 77 78
f 71 78 79
f 67 75 68
f 68 76 69
f 69 77 70
f 70 78 71
f 71 79 72
f 72 79 80
usemtl APPID_94962512_1597823843680 
o vid_11 
f 83 82 81
f 84 85 86
f 81 86 85
f 81 85 83
f 83 85 84
f 84 82 83
f 82 84 86
f 86 81 82
usemtl APPID_94959264_1597823840480 
o vid_12 
f 87 94 95
f 88 95 96
f 89 96 97
f 90 97 98
f 91 98 99
f 87 95 88
f 88 96 89
f 89 97 90
f 90 98 91
f 91 99 92
f 92 99 100
usemtl APPID_94962512_1597823843680 
o vid_13 
f 103 102 101
f 104 105 106
f 101 106 105
f 101 105 103
f 103 105 104
f 104 102 103
f 102 104 106
f 106 101 102
usemtl APPID_94959264_1597823840480 
o vid_14 
f 107 114 115
f 108 115 116
f 109 116 117
f 110 117 118
f 111 118 119
f 107 115 108
f 108 116 109
f 109 117 110
f 110 118 111
f 111 119 112
f 112 119 120
