# File generated by PlantGL - Fri Sep  4 14:42:09 2026
v    118.007188 19.029236 0.000000
v    121.837113 18.759556 0.000000
v    120.155700 22.211208 0.000000
v    121.992812 20.970764 0.848018
v    118.162887 21.240444 0.848018
v    119.844300 17.788792 0.848018
v    121.806980 21.325696 0.686205
v    122.110989 21.441601 0.988541
v    122.293058 21.507615 1.168218
v    122.972895 21.763613 1.657200
v    123.681406 22.040187 1.900991
v    124.352687 22.271977 2.127711
v    124.894623 22.384331 2.138813
v    122.157738 20.605649 0.686205
v    122.436403 20.773582 0.988541
v    122.600615 20.876254 1.168218
v    123.221260 21.253763 1.657200
v    123.875781 21.641167 1.900991
v    124.472091 22.026861 2.127711
v    124.894623 22.384331 2.138813
v    121.372673 21.099584 0.848018
v    118.361396 20.638977 0.848018
v    120.265931 18.261439 0.848018
v    118.627327 18.900416 1.416666
v    121.638604 19.361023 1.416666
v    119.734069 21.738561 1.416666
v    119.002430 18.458553 1.186976
v    118.515496 18.135107 1.730188
v    117.526265 17.486093 2.565284
v    116.499407 16.792216 2.962526
v    115.715754 16.306824 3.256808
v    114.920905 15.931375 3.247008
v    118.277987 19.362916 1.186976
v    117.856061 18.958317 1.730188
v    117.006786 18.134589 2.565284
v    116.105515 17.283933 2.962526
v    115.460786 16.625115 3.256808
v    114.920905 15.931375 3.247008
v    118.760599 19.518448 1.416666
v    121.036737 19.167423 1.416666
v    120.202665 21.314129 1.416666
v    121.239401 20.481552 2.253758
v    118.963263 20.832577 2.253758
v    119.797335 18.685871 2.253758
v    120.950156 21.162593 1.934179
v    121.940012 21.432452 2.886152
v    123.319869 21.825383 3.851888
v    124.039435 22.039681 4.092544
v    125.398501 22.386362 4.540315
v    126.273767 22.483853 4.814039
v    126.448336 22.505410 4.812085
v    121.485837 19.783877 1.934179
v    122.398229 20.253110 2.886152
v    123.681408 20.894864 3.851888
v    124.356901 21.222596 4.092544
v    125.593519 21.884432 4.540315
v    126.305006 22.403451 4.814039
v    126.448336 22.505410 4.812085
v    120.904370 20.213934 2.253758
v    119.362543 20.676240 2.253758
v    119.733087 19.109826 2.253758
v    119.095630 19.786066 3.119307
v    120.637457 19.323760 3.119307
v    120.266913 20.890174 3.119307
v    119.320188 18.972826 2.683472
v    117.932062 18.795840 3.981750
v    116.888430 18.649706 4.691095
v    115.984804 18.564824 5.298798
v    115.117932 18.467798 5.577272
v    113.688333 18.506939 6.021773
v    118.932024 20.613725 2.683472
v    117.611724 20.150017 3.981750
v    116.613229 19.813074 4.691095
v    115.767344 19.484099 5.298798
v    114.948878 19.182448 5.577272
v    113.688333 18.506939 6.021773
v    119.632531 19.580379 3.119307
v    120.547137 19.891573 3.119307
v    119.820332 20.528048 3.119307
v    120.367469 20.419621 3.457000
v    119.452863 20.108427 3.457000
v    120.179668 19.471952 3.457000
v    119.961192 21.214514 2.424247
v    119.998796 21.211457 2.815092
v    120.267383 21.140505 4.964108
v    120.383838 21.183349 5.466198
v    121.024254 21.169619 7.362894
v    121.209017 20.121774 2.424247
v    121.201025 20.158646 2.815092
v    121.095256 20.415523 4.964108
v    121.122360 20.536613 5.466198
v    121.024254 21.169619 7.362894
mtllib usm_1_2.5D_2018-07-14_2.mtl
usemtl APPID_1439681872_2556942837984 
o vid_3 
f 3 2 1
f 4 5 6
f 1 6 5
f 1 5 3
f 3 5 4
f 4 2 3
f 2 4 6
f 6 1 2
usemtl APPID_1439681088_2556942838240 
o vid_4 
f 7 14 15
f 8 15 16
f 9 16 17
f 10 17 18
f 11 18 19
f 7 15 8
f 8 16 9
f 9 17 10
f 10 18 11
f 11 19 12
f 12 19 20
usemtl APPID_1439681872_2556942837984 
o vid_5 
f 23 22 21
f 24 25 26
f 21 26 25
f 21 25 23
f 23 25 24
f 24 22 23
f 22 24 26
f 26 21 22
usemtl APPID_1439681088_2556942838240 
o vid_6 
f 27 33 34
f 28 34 35
f 29 35 36
f 30 36 37
f 27 34 28
f 28 35 29
f 29 36 30
f 30 37 31
f 31 37 38
usemtl APPID_1439681872_2556942837984 
o vid_7 
f 41 40 39
f 42 43 44
f 39 44 43
f 39 43 41
f 41 43 42
f 42 40 41
f 40 42 44
f 44 39 40
usemtl APPID_1439681088_2556942838240 
o vid_8 
f 45 52 53
f 46 53 54
f 47 54 55
f 48 55 56
f 49 56 57
f 45 53 46
f 46 54 47
f 47 55 48
f 48 56 49
f 49 57 50
f 50 57 58
usemtl APPID_1439681872_2556942837984 
o vid_9 
f 61 60 59
f 62 63 64
f 59 64 63
f 59 63 61
f 61 63 62
f 62 60 61
f 60 62 64
f 64 59 60
usemtl APPID_1439681088_2556942838240 
o vid_10 
f 65 71 72
f 66 72 73
f 67 73 74
f 68 74 75
f 65 72 66
f 66 73 67
f 67 74 68
f 68 75 69
f 69 75 76
usemtl APPID_1439681872_2556942837984 
o vid_11 
f 79 78 77
f 80 81 82
f 77 82 81
f 77 81 79
f 79 81 80
f 80 78 79
f 78 80 82
f 82 77 78
usemtl APPID_1439681088_2556942838240 
o vid_12 
f 83 88 89
f 84 89 90
f 85 90 91
f 83 89 84
f 84 90 85
f 85 91 86
f 86 91 92
