# File generated by PlantGL - Fri Sep  4 14:43:53 2026
v    18.201987 99.124129 0.000000
v    21.657533 98.880811 0.000000
v    20.140480 101.995060 0.000000
v    21.798013 100.875871 0.331061
v    18.342467 101.119189 0.331061
v    19.859520 98.004940 0.331061
v    21.389650 101.448576 -0.071053
v    22.393980 101.830073 0.946918
v    23.907728 102.388286 2.009892
v    25.092505 102.810274 2.326451
v    26.187809 103.058142 2.603326
v    26.357326 103.096862 2.567383
v    21.997244 100.201291 -0.071053
v    22.916734 100.756949 0.946918
v    24.289390 101.604799 2.009892
v    25.351996 102.277584 2.326451
v    26.222343 102.987249 2.603326
v    26.357326 103.096862 2.567383
v    21.503548 101.204422 0.331061
v    18.205166 100.699900 0.331061
v    20.291286 98.095678 0.331061
v    18.496452 98.795578 0.718770
v    21.794834 99.300100 0.718770
v    19.708714 101.904322 0.718770
v    19.274489 98.081324 0.163258
v    17.850834 97.138178 1.781371
v    17.151575 96.661814 2.312715
v    16.181792 96.030566 3.038041
v    15.076303 95.291244 3.373619
v    13.658793 94.395944 3.795569
v    12.032609 93.617695 3.537425
v    17.969232 99.710749 0.163258
v    16.738098 98.527269 1.781371
v    16.120600 97.948839 2.312715
v    15.292906 97.140213 3.038041
v    14.330125 96.222741 3.373619
v    13.147025 95.034813 3.795569
v    12.032609 93.617695 3.537425
v    18.272844 99.328938 0.718770
v    21.444735 98.839770 0.718770
v    20.282421 101.831292 0.718770
v    21.727156 100.671062 1.487000
v    18.555265 101.160230 1.487000
v    19.717579 98.168708 1.487000
v    21.001970 101.939081 0.737723
v    23.215457 102.576303 2.920240
v    24.761191 103.043005 3.934230
v    25.807621 103.335117 4.615243
v    28.050172 103.991307 5.204829
v    30.033029 104.515676 5.721018
v    32.648293 104.914315 5.172998
v    22.048305 99.246061 0.737723
v    24.111370 100.270432 2.920240
v    25.566721 100.969759 3.934230
v    26.535871 101.460772 4.615243
v    28.633183 102.490775 5.204829
v    30.449924 103.442686 5.721018
v    32.648293 104.914315 5.172998
v    21.731622 100.409625 1.487000
v    18.779443 101.294816 1.487000
v    19.488935 98.295559 1.487000
v    18.268378 99.590375 2.857581
v    21.220557 98.705184 2.857581
v    20.511065 101.704441 2.857581
v    18.994300 97.761495 1.870858
v    15.991506 97.332198 4.745016
v    13.321583 96.915214 6.442032
v    12.475515 96.801224 6.977166
v    8.778117 96.256164 7.920207
v    6.753874 96.011600 8.433361
v    5.813360 95.897014 8.233511
v    2.607274 95.885650 7.570778
v    18.097951 101.550660 1.870858
v    15.221070 100.589086 4.745016
v    12.647298 99.765644 6.442032
v    11.839829 99.488480 6.977166
v    8.290097 98.319190 7.920207
v    6.370821 97.630891 8.433361
v    5.478650 97.311945 8.233511
v    2.607274 95.885650 7.570778
v    18.876148 98.716648 2.857581
v    21.673341 99.668392 2.857581
v    19.450510 101.614960 2.857581
v    21.123852 101.283352 4.464214
v    18.326659 100.331608 4.464214
v    20.549490 98.385040 4.464214
v    18.838031 102.797290 3.195533
v    20.025341 103.929210 4.749900
v    21.661230 105.488030 6.890987
v    24.928759 108.683200 9.760977
v    26.287966 110.038628 10.246015
v    30.251600 113.848636 11.633282
v    33.512891 116.849495 10.698131
v    36.861139 119.254121 9.846020
v    22.926146 99.217263 3.195533
v    23.891517 100.543539 4.749900
v    25.220870 102.370797 6.890987
v    27.956989 106.031331 9.760977
v    29.121234 107.557490 10.246015
v    32.374972 111.989165 11.633282
v    34.919302 115.617878 10.698131
v    36.861139 119.254121 9.846020
v    21.375838 100.878433 4.464214
v    18.551335 100.752294 4.464214
v    20.072827 98.369272 4.464214
v    18.624162 99.121567 10.752587
v    21.448665 99.247706 10.752587
v    19.927173 101.630728 10.752587
v    20.948217 96.337583 9.159961
v    17.279973 94.436302 13.074936
v    11.541809 91.380421 17.401822
v    6.999606 88.895033 18.710153
v    3.340960 86.979569 19.752201
v    0.231876 85.348771 19.009770
v    -4.119880 83.207971 17.986793
v    -6.341424 82.423412 17.499782
v    -8.722071 81.661777 16.072308
v    17.076667 102.401361 9.159961
v    13.808283 99.873804 13.074936
v    8.621460 95.954392 17.401822
v    4.455432 92.879823 18.710153
v    1.178220 90.366940 19.752201
v    -1.609494 88.232801 19.009770
v    -5.382787 85.185988 17.986793
v    -7.029351 83.500872 17.499782
v    -8.722071 81.661777 16.072308
v    18.735263 99.088754 10.752587
v    21.421531 99.360328 10.752587
v    19.843206 101.550918 10.752587
v    21.264737 100.911246 22.165711
v    18.578469 100.639672 22.165711
v    20.156794 98.449082 22.165711
v    18.105951 104.329521 20.213715
v    20.540517 106.090484 23.072367
v    23.031538 107.716507 25.899549
v    29.018781 111.399277 30.315323
v    38.697213 117.424165 33.196057
v    42.627069 119.873808 32.215422
v    46.356282 122.105164 31.296420
v    49.850259 124.195768 30.435387
v    53.674865 126.306117 27.873510
v    59.199274 128.418808 22.711570
v    59.525293 128.478067 22.161996
v    23.507323 96.832847 20.213715
v    25.948389 98.584788 23.072367
v    28.279324 100.432997 25.899549
v    33.667966 104.946578 30.315323
v    42.446726 112.220140 33.196057
v    46.014389 115.172477 32.215422
v    49.311478 118.003587 31.296420
v    52.400589 120.656114 30.435387
v    55.613089 123.616017 27.873510
v    59.365881 128.187571 22.711570
v    59.525293 128.478067 22.161996
v    21.244614 100.810576 22.165711
v    18.675713 100.672580 22.165711
v    20.079672 98.516844 22.165711
v    18.755386 99.189424 39.904431
v    21.324287 99.327420 39.904431
v    19.920328 101.483156 39.904431
v    22.319411 94.955042 37.568563
v    19.334700 93.201355 40.858615
v    16.924787 91.924518 43.442831
v    12.989834 89.788676 46.568121
v    8.673487 87.431169 49.656713
v    -2.755742 81.042478 52.965270
v    -12.676230 75.724530 50.839906
v    -17.078507 73.509243 49.800389
v    -22.032517 71.606668 46.734703
v    -24.830294 70.803523 44.222240
v    16.323705 104.161264 37.568563
v    13.512912 102.140532 40.858615
v    11.370666 100.452701 43.442831
v    7.826123 97.717396 46.568121
v    3.924628 94.722895 49.656713
v    -6.539889 86.852919 52.965270
v    -15.415042 79.929892 50.839906
v    -19.221208 76.799293 49.800389
v    -22.964457 73.037633 46.734703
v    -24.830294 70.803523 44.222240
v    18.765415 99.315252 39.904431
v    21.210302 99.273192 39.904431
v    20.024283 101.411556 39.904431
v    21.234585 100.684748 66.598731
v    18.789698 100.726808 66.598731
v    19.975717 98.588444 66.598731
v    18.033406 104.828859 63.869617
v    25.707162 108.220053 71.819064
v    30.055858 110.209398 74.822197
v    34.698773 112.216512 77.992822
v    41.317861 115.176185 79.822366
v    48.922331 118.340742 81.895318
v    57.446339 120.769182 80.293194
v    23.055098 95.774868 63.869617
v    29.995090 100.489022 71.819064
v    33.985281 103.124743 74.822197
v    38.146331 106.000648 77.992822
v    44.161818 110.048598 79.822366
v    50.872864 114.823977 81.895318
v    57.446339 120.769182 80.293194
v    21.255913 100.334081 66.598731
v    19.082721 100.920612 66.598731
v    19.661366 98.745307 66.598731
v    18.744087 99.665919 106.321036
v    20.917279 99.079388 106.321036
v    20.338634 101.254693 106.321036
v    20.968996 94.804725 103.207892
v    13.873210 93.588853 110.029330
v    11.521223 93.244826 112.275954
v    1.428202 91.599215 118.686117
v    -7.723530 90.251931 121.391817
v    -17.748143 89.958762 123.864441
v    18.259628 104.990084 103.207892
v    11.497555 102.519681 110.029330
v    9.285491 101.649642 112.275954
v    -0.291201 98.062987 118.686117
v    -8.902785 94.685120 121.391817
v    -17.748143 89.958762 123.864441
v    19.048178 99.604889 106.321036
v    20.818087 99.373254 106.321036
v    20.133735 101.021857 106.321036
v    20.951822 100.395111 147.893218
v    19.181913 100.626746 147.893218
v    19.866265 98.978143 147.893218
v    17.488195 106.123099 144.426003
v    27.660773 109.305347 154.525414
v    33.945289 111.360842 158.677778
v    39.579273 113.073440 162.368892
v    48.945095 116.048203 164.848494
v    58.997760 118.954274 167.482086
v    70.110972 120.801584 165.160126
v    22.562913 93.898116 144.426003
v    31.998624 98.855472 154.525414
v    37.891319 101.854864 158.677778
v    43.081887 104.635650 162.368892
v    51.801072 109.168161 164.848494
v    60.956537 114.235585 167.482086
v    70.110972 120.801584 165.160126
v    20.605815 100.498478 147.893218
v    19.265398 100.275412 147.893218
v    20.128788 99.226110 147.893218
v    19.394185 99.501522 183.024287
v    20.734602 99.724588 183.024287
v    19.871212 100.773890 183.024287
v    24.998020 94.407390 179.254069
v    15.420604 87.880109 190.236077
v    6.377534 81.544316 197.170187
v    -8.178222 71.569360 202.575560
v    -14.019613 67.771818 204.329048
v    -17.748994 65.341996 203.390174
v    -28.727254 59.906081 200.857905
v    15.474588 105.981482 179.254069
v    7.225080 97.840357 190.236077
v    -0.733619 90.186698 197.170187
v    -13.324987 77.824367 202.575560
v    -18.176373 72.823644 204.329048
v    -21.278912 69.632003 203.390174
v    -28.727254 59.906081 200.857905
v    19.612057 99.594104 183.024287
v    20.545488 99.866980 183.024287
v    19.842455 100.538917 183.024287
v    20.387943 100.405896 211.406369
v    19.454512 100.133020 211.406369
v    20.157545 99.461083 211.406369
v    14.157267 104.759405 207.403640
v    23.426615 112.852061 219.062914
v    27.876507 116.839569 222.815228
v    34.293717 122.351403 228.117825
v    41.380381 128.593106 230.500685
v    50.651439 136.338176 233.541037
v    61.523545 143.445169 231.745835
v    25.018679 94.378405 207.403640
v    32.684010 104.004130 219.062914
v    36.466269 108.629741 222.815228
v    41.682357 115.289570 228.117825
v    47.597303 122.651164 230.500685
v    54.915326 132.262885 233.541037
v    61.523545 143.445169 231.745835
v    20.253103 100.257957 211.406369
v    19.650051 100.090216 211.406369
v    20.096845 99.651828 211.406369
v    19.746897 99.742043 221.027000
v    20.349949 99.909784 221.027000
v    19.903155 100.348172 221.027000
v    24.358175 96.527497 212.566930
v    19.480719 93.106745 224.175606
v    17.698521 91.996006 228.220466
v    13.459053 88.968861 234.752815
v    7.921452 86.350885 242.070972
v    4.857461 84.567110 244.365368
v    16.445358 104.291444 212.566930
v    13.117849 99.349904 224.175606
v    12.041156 97.546934 228.220466
v    9.095068 93.250743 234.752815
v    6.582727 87.664423 242.070972
v    4.857461 84.567110 244.365368
mtllib usm_19_2.5D_2018-09-17_2.mtl
usemtl APPID_3627864000_1420965925632 
o vid_3 
f 3 2 1
f 4 5 6
f 1 6 5
f 1 5 3
f 3 5 4
f 4 2 3
f 2 4 6
f 6 1 2
usemtl APPID_3627867808_1420965925376 
o vid_4 
f 7 13 14
f 8 14 15
f 9 15 16
f 10 16 17
f 7 14 8
f 8 15 9
f 9 16 10
f 10 17 11
f 11 17 18
usemtl APPID_3627864000_1420965925632 
o vid_5 
f 21 20 19
f 22 23 24
f 19 24 23
f 19 23 21
f 21 23 22
f 22 20 21
f 20 22 24
f 24 19 20
usemtl APPID_3627867808_1420965925376 
o vid_6 
f 25 32 33
f 26 33 34
f 27 34 35
f 28 35 36
f 29 36 37
f 25 33 26
f 26 34 27
f 27 35 28
f 28 36 29
f 29 37 30
f 30 37 38
usemtl APPID_3627864000_1420965925632 
o vid_7 
f 41 40 39
f 42 43 44
f 39 44 43
f 39 43 41
f 41 43 42
f 42 40 41
f 40 42 44
f 44 39 40
usemtl APPID_3627867808_1420965925376 
o vid_8 
f 45 52 53
f 46 53 54
f 47 54 55
f 48 55 56
f 49 56 57
f 45 53 46
f 46 54 47
f 47 55 48
f 48 56 49
f 49 57 50
f 50 57 58
usemtl APPID_3627864000_1420965925632 
o vid_9 
f 61 60 59
f 62 63 64
f 59 64 63
f 59 63 61
f 61 63 62
f 62 60 61
f 60 62 64
f 64 59 60
usemtl APPID_3627867808_1420965925376 
o vid_10 
f 65 73 74
f 66 74 75
f 67 75 76
f 68 76 77
f 69 77 78
f 70 78 79
f 65 74 66
f 66 75 67
f 67 76 68
f 68 77 69
f 69 78 70
f 70 79 71
f 71 79 80
usemtl APPID_3627864000_1420965925632 
o vid_11 
f 83 82 81
f 84 85 86
f 81 86 85
f 81 85 83
f 83 85 84
f 84 82 83
f 82 84 86
f 86 81 82
usemtl APPID_3627867808_1420965925376 
o vid_12 
f 87 95 96
f 88 96 97
f 89 97 98
f 90 98 99
f 91 99 100
f 92 100 101
f 87 96 88
f 88 97 89
f 89 98 90
f 90 99 91
f 91 100 92
f 92 101 93
f 93 101 102
usemtl APPID_3627864000_1420965925632 
o vid_13 
f 105 104 103
f 106 107 108
f 103 108 107
f 103 107 105
f 105 107 106
f 106 104 105
f 104 106 108
f 108 103 104
usemtl APPID_3627867808_1420965925376 
o vid_14 
f 109 118 119
f 110 119 120
f 111 120 121
f 112 121 122
f 113 122 123
f 114 123 124
f 115 124 125
f 109 119 110
f 110 120 111
f 111 121 112
f 112 122 113
f 113 123 114
f 114 124 115
f 115 125 116
f 116 125 126
usemtl APPID_3627864000_1420965925632 
o vid_15 
f 129 128 127
f 130 131 132
f 127 132 131
f 127 131 129
f 129 131 130
f 130 128 129
f 128 130 132
f 132 127 128
usemtl APPID_3627867808_1420965925376 
o vid_16 
f 133 144 145
f 134 145 146
f 135 146 147
f 136 147 148
f 137 148 149
f 138 149 150
f 139 150 151
f 140 151 152
f 141 152 153
f 133 145 134
f 134 146 135
f 135 147 136
f 136 148 137
f 137 149 138
f 138 150 139
f 139 151 140
f 140 152 141
f 141 153 142
f 142 153 154
usemtl APPID_3627864000_1420965925632 
o vid_17 
f 157 156 155
f 158 159 160
f 155 160 159
f 155 159 157
f 157 159 158
f 158 156 157
f 156 158 160
f 160 155 156
usemtl APPID_3627867808_1420965925376 
o vid_18 
f 161 171 172
f 162 172 173
f 163 173 174
f 164 174 175
f 165 175 176
f 166 176 177
f 167 177 178
f 168 178 179
f 161 172 162
f 162 173 163
f 163 174 164
f 164 175 165
f 165 176 166
f 166 177 167
f 167 178 168
f 168 179 169
f 169 179 180
usemtl APPID_3627864000_1420965925632 
o vid_19 
f 183 182 181
f 184 185 186
f 181 186 185
f 181 185 183
f 183 185 184
f 184 182 183
f 182 184 186
f 186 181 182
usemtl APPID_3627867808_1420965925376 
o vid_20 
f 187 194 195
f 188 195 196
f 189 196 197
f 190 197 198
f 191 198 199
f 187 195 188
f 188 196 189
f 189 197 190
f 190 198 191
f 191 199 192
f 192 199 200
usemtl APPID_3627864000_1420965925632 
o vid_21 
f 203 202 201
f 204 205 206
f 201 206 205
f 201 205 203
f 203 205 204
f 204 202 203
f 202 204 206
f 206 201 202
usemtl APPID_3627867808_1420965925376 
o vid_22 
f 207 213 214
f 208 214 215
f 209 215 216
f 210 216 217
f 207 214 208
f 208 215 209
f 209 216 210
f 210 217 211
f 211 217 218
usemtl APPID_3627864000_1420965925632 
o vid_23 
f 221 220 219
f 222 223 224
f 219 224 223
f 219 223 221
f 221 223 222
f 222 220 221
f 220 222 224
f 224 219 220
usemtl APPID_3627867808_1420965925376 
o vid_24 
f 225 232 233
f 226 233 234
f 227 234 235
f 228 235 236
f 229 236 237
f 225 233 226
f 226 234 227
f 227 235 228
f 228 236 229
f 229 237 230
f 230 237 238
usemtl APPID_3627864000_1420965925632 
o vid_25 
f 241 240 239
f 242 243 244
f 239 244 243
f 239 243 241
f 241 243 242
f 242 240 241
f 240 242 244
f 244 239 240
usemtl APPID_3627867808_1420965925376 
o vid_26 
f 245 252 253
f 246 253 254
f 247 254 255
f 248 255 256
f 249 256 257
f 245 253 246
f 246 254 247
f 247 255 248
f 248 256 249
f 249 257 250
f 250 257 258
usemtl APPID_3627864000_1420965925632 
o vid_27 
f 261 260 259
f 262 263 264
f 259 264 263
f 259 263 261
f 261 263 262
f 262 260 261
f 260 262 264
f 264 259 260
usemtl APPID_3627867808_1420965925376 
o vid_28 
f 265 272 273
f 266 273 274
f 267 274 275
f 268 275 276
f 269 276 277
f 265 273 266
f 266 274 267
f 267 275 268
f 268 276 269
f 269 277 270
f 270 277 278
usemtl APPID_3627864000_1420965925632 
o vid_29 
f 281 280 279
f 282 283 284
f 279 284 283
f 279 283 281
f 281 283 282
f 282 280 281
f 280 282 284
f 284 279 280
usemtl APPID_3627867808_1420965925376 
o vid_30 
f 285 291 292
f 286 292 293
f 287 293 294
f 288 294 295
f 285 292 286
f 286 293 287
f 287 294 288
f 288 295 289
f 289 295 296
