# File generated by PlantGL - Fri Sep  4 14:42:13 2026
v    57.752484 18.905161 0.000000
v    62.071916 18.601013 0.000000
v    60.175600 22.493825 0.000000
v    62.247516 21.094839 0.848509
v    57.928084 21.398987 0.848509
v    59.824400 17.506175 0.848509
v    62.062214 21.449102 0.689256
v    62.419211 21.585210 1.044288
v    62.540157 21.629062 1.163645
v    63.209242 21.881011 1.644894
v    63.981515 22.182476 1.910625
v    64.614338 22.400986 2.124356
v    65.059148 22.497918 2.119286
v    62.412243 20.730552 0.689256
v    62.739478 20.927756 1.044288
v    62.848562 20.995959 1.163645
v    63.459391 21.367499 1.644894
v    64.172817 21.789767 1.910625
v    64.734963 22.153364 2.124356
v    65.085479 22.443863 2.119286
v    61.879284 21.505407 0.848509
v    57.756638 20.874804 0.848509
v    60.364078 17.619789 0.848509
v    58.120716 18.494593 1.417165
v    62.243362 19.125196 1.417165
v    59.635922 22.380211 1.417165
v    58.493094 18.055646 1.191709
v    57.952369 17.696469 1.794928
v    57.044918 17.100141 2.544610
v    55.955758 16.364164 2.965954
v    55.270232 15.939552 3.223386
v    54.472960 15.548224 3.213451
v    57.773626 18.953798 1.191709
v    57.305090 18.504504 1.794928
v    56.525080 17.749085 2.544610
v    55.569126 16.846817 2.965954
v    55.005129 16.270495 3.223386
v    54.449223 15.577855 3.213451
v    57.841416 19.161313 1.417165
v    61.805616 18.549955 1.417165
v    60.352968 22.288732 1.417165
v    62.158584 20.838687 2.253766
v    58.194384 21.450045 2.253766
v    59.647032 17.711268 2.253766
v    61.871435 21.515657 1.940865
v    62.839875 21.781762 2.872945
v    64.190898 22.166482 3.818501
v    65.048243 22.421814 4.105237
v    66.378909 22.761250 4.543651
v    67.072461 22.838501 4.760547
v    67.361237 22.874161 4.757314
v    62.403817 20.145432 1.940865
v    63.297876 20.602974 2.872945
v    64.554243 21.231318 3.818501
v    65.359075 21.621803 4.105237
v    66.569852 22.269808 4.543651
v    67.133627 22.681074 4.760547
v    67.370727 22.849736 4.757314
v    62.133986 20.504807 2.253766
v    58.495831 21.595683 2.253766
v    59.370182 17.899510 2.253766
v    57.866014 19.495193 4.112548
v    61.504169 18.404317 4.112548
v    60.629818 22.100490 4.112548
v    58.134962 18.491149 3.686826
v    57.450453 18.392429 4.329487
v    56.781673 18.307160 4.954979
v    54.888912 18.042127 6.241468
v    53.122140 17.773021 6.814308
v    51.265304 17.565192 7.410798
v    49.851200 17.591337 7.511483
v    57.656605 20.513322 3.686826
v    57.000414 20.294891 4.329487
v    56.364312 20.071483 4.954979
v    54.553413 19.460394 6.241468
v    52.853324 18.909394 6.814308
v    51.100172 18.263260 7.410798
v    49.847658 17.606310 7.511483
v    58.834571 18.669170 4.112548
v    61.735247 19.656124 4.112548
v    59.430182 21.674706 4.112548
v    61.165429 21.330830 5.999272
v    58.264753 20.343876 5.999272
v    60.569818 18.325294 5.999272
v    60.044681 22.258051 5.431444
v    61.266232 23.424918 7.001235
v    63.213108 25.267168 8.838831
v    65.639678 27.622155 9.922698
v    67.099164 28.930215 10.548382
v    69.104704 30.403371 10.520539
v    62.232415 20.342218 5.431444
v    63.227910 21.707046 7.001235
v    64.797184 23.879967 8.838831
v    66.811422 26.596040 9.922698
v    67.915481 28.215352 10.548382
v    69.111148 30.397728 10.520539
v    61.157988 20.739343 5.999272
v    58.780716 20.633176 5.999272
v    60.061295 18.627481 5.999272
v    58.842012 19.260657 12.880915
v    61.219284 19.366824 12.880915
v    59.938705 21.372519 12.880915
v    59.929609 17.656360 12.138440
v    57.817565 16.559024 14.350147
v    54.855524 15.031126 16.593833
v    50.479637 12.713380 18.181049
v    48.649250 11.835054 18.829189
v    47.489989 11.270561 18.814509
v    45.068759 10.466829 18.786164
v    57.844350 20.922376 12.138440
v    55.960132 19.468213 14.350147
v    53.327640 17.424161 16.593833
v    49.383676 14.429920 18.181049
v    47.816655 13.139098 18.829189
v    46.816746 12.325022 18.814509
v    45.068759 10.466829 18.786164
v    59.182522 19.411005 12.880915
v    60.918823 19.586541 12.880915
v    59.898655 21.002454 12.880915
v    60.817478 20.588995 19.681199
v    59.081177 20.413459 19.681199
v    60.101345 18.997546 19.681199
v    59.329398 22.537342 18.729457
v    61.896171 24.059587 21.502541
v    65.638171 26.257111 24.440606
v    70.660107 29.289442 26.320988
v    73.362582 30.778223 27.305999
v    74.363013 31.336867 27.292954
v    77.403987 32.539614 27.256620
v    62.194584 18.560691 18.729457
v    64.451058 20.513607 21.502541
v    67.720103 23.367556 24.440606
v    72.186186 27.171366 26.320988
v    74.453872 29.263598 27.305999
v    75.300474 30.035745 27.292954
v    77.403987 32.539614 27.256620
v    60.561452 20.365655 19.681199
v    59.402607 20.303404 19.681199
v    60.035941 19.330941 19.681199
v    59.438548 19.634345 23.198000
v    60.597393 19.696596 23.198000
v    59.964059 20.669059 23.198000
v    60.546439 17.651065 20.827172
v    58.049976 16.507639 25.287999
v    56.375022 15.681697 27.475486
v    54.206146 14.763737 30.210473
v    52.767316 14.087128 31.252077
v    49.432711 13.117877 33.449936
v    58.072604 21.449564 20.827172
v    56.017380 19.628628 25.287999
v    54.584705 18.430674 27.475486
v    52.868153 16.818184 30.210473
v    51.667534 15.775808 31.252077
v    49.432711 13.117877 33.449936
v    65.059148 22.497918 2.119286
v    65.179177 22.522947 2.117924
v    65.085479 22.443863 2.119286
v    65.179177 22.522947 2.117924
v    54.472960 15.548224 3.213451
v    54.402512 15.516114 3.212591
v    54.449223 15.577855 3.213451
v    54.402512 15.516114 3.212591
v    67.361237 22.874161 4.757314
v    67.414268 22.880709 4.756721
v    67.370727 22.849736 4.757314
v    67.414268 22.880709 4.756721
v    49.851200 17.591337 7.511483
v    49.819828 17.591821 7.511135
v    49.847658 17.606310 7.511483
v    49.819828 17.591821 7.511135
v    69.104704 30.403371 10.520539
v    69.119083 30.413289 10.520345
v    69.111148 30.397728 10.520539
v    69.119083 30.413289 10.520345
mtllib usm_2_2.5D_2018-07-24_2.mtl
usemtl APPID_1970444736_1595404361088 
o vid_3 
f 3 2 1
f 4 5 6
f 1 6 5
f 1 5 3
f 3 5 4
f 4 2 3
f 2 4 6
f 6 1 2
usemtl APPID_1970444624_1595404360576 
o vid_4 
f 7 14 15
f 8 15 16
f 9 16 17
f 10 17 18
f 11 18 19
f 7 15 8
f 8 16 9
f 9 17 10
f 10 18 11
f 11 19 12
f 12 19 20
f 12 20 13
usemtl APPID_1970444736_1595404361088 
o vid_5 
f 23 22 21
f 24 25 26
f 21 26 25
f 21 25 23
f 23 25 24
f 24 22 23
f 22 24 26
f 26 21 22
usemtl APPID_1970444624_1595404360576 
o vid_6 
f 27 33 34
f 28 34 35
f 29 35 36
f 30 36 37
f 27 34 28
f 28 35 29
f 29 36 30
f 30 37 31
f 31 37 38
f 31 38 32
usemtl APPID_1970444736_1595404361088 
o vid_7 
f 41 40 39
f 42 43 44
f 39 44 43
f 39 43 41
f 41 43 42
f 42 40 41
f 40 42 44
f 44 39 40
usemtl APPID_1970444624_1595404360576 
o vid_8 
f 45 52 53
f 46 53 54
f 47 54 55
f 48 55 56
f 49 56 57
f 45 53 46
f 46 54 47
f 47 55 48
f 48 56 49
f 49 57 50
f 50 57 58
f 50 58 51
usemtl APPID_1970444736_1595404361088 
o vid_9 
f 61 60 59
f 62 63 64
f 59 64 63
f 59 63 61
f 61 63 62
f 62 60 61
f 60 62 64
f 64 59 60
usemtl APPID_1970444624_1595404360576 
o vid_10 
f 65 72 73
f 66 73 74
f 67 74 75
f 68 75 76
f 69 76 77
f 65 73 66
f 66 74 67
f 67 75 68
f 68 76 69
f 69 77 70
f 70 77 78
f 70 78 71
usemtl APPID_1970444736_1595404361088 
o vid_11 
f 81 80 79
f 82 83 84
f 79 84 83
f 79 83 81
f 81 83 82
f 82 80 81
f 80 82 84
f 84 79 80
usemtl APPID_1970444624_1595404360576 
o vid_12 
f 85 91 92
f 86 92 93
f 87 93 94
f 88 94 95
f 85 92 86
f 86 93 87
f 87 94 88
f 88 95 89
f 89 95 96
f 89 96 90
usemtl APPID_1970444736_1595404361088 
o vid_13 
f 99 98 97
f 100 101 102
f 97 102 101
f 97 101 99
f 99 101 100
f 100 98 99
f 98 100 102
f 102 97 98
usemtl APPID_1970444624_1595404360576 
o vid_14 
f 103 110 111
f 104 111 112
f 105 112 113
f 106 113 114
f 107 114 115
f 103 111 104
f 104 112 105
f 105 113 106
f 106 114 107
f 107 115 108
f 108 115 116
usemtl APPID_1970444736_1595404361088 
o vid_15 
f 119 118 117
f 120 121 122
f 117 122 121
f 117 121 119
f 119 121 120
f 120 118 119
f 118 120 122
f 122 117 118
usemtl APPID_1970444624_1595404360576 
o vid_16 
f 123 130 131
f 124 131 132
f 125 132 133
f 126 133 134
f 127 134 135
f 123 131 124
f 124 132 125
f 125 133 126
f 126 134 127
f 127 135 128
f 128 135 136
usemtl APPID_1970444736_1595404361088 
o vid_17 
f 139 138 137
f 140 141 142
f 137 142 141
f 137 141 139
f 139 141 140
f 140 138 139
f 138 140 142
f 142 137 138
usemtl APPID_1970444624_1595404360576 
o vid_18 
f 143 149 150
f 144 150 151
f 145 151 152
f 146 152 153
f 143 150 144
f 144 151 145
f 145 152 146
f 146 153 147
f 147 153 154
usemtl APPID_1970449888_1595404359424 
o vid_10000004 
f 155 157 158
f 155 158 156
f 155 157 158
usemtl APPID_1970449888_1595404359424 
o vid_10000006 
f 159 161 162
f 159 162 160
f 159 161 162
usemtl APPID_1970449888_1595404359424 
o vid_10000008 
f 163 165 166
f 163 166 164
f 163 165 166
usemtl APPID_1970449888_1595404359424 
o vid_10000010 
f 167 169 170
f 167 170 168
f 167 169 170
usemtl APPID_1970449888_1595404359424 
o vid_10000012 
f 171 173 174
f 171 174 172
f 171 173 174
