# File generated by PlantGL - Fri Sep  4 14:44:11 2026
v    17.752484 298.905161 0.000000
v    22.071916 298.601013 0.000000
v    20.175600 302.493825 0.000000
v    22.247516 301.094839 0.848509
v    17.928084 301.398987 0.848509
v    19.824400 297.506175 0.848509
v    22.077420 301.422811 0.719274
v    22.448837 301.564417 1.088646
v    22.400914 300.758733 0.719274
v    22.741368 300.963902 1.088646
v    21.879284 301.505407 0.848509
v    17.756638 300.874804 0.848509
v    20.364078 297.619789 0.848509
v    18.120716 298.494593 1.417165
v    22.243362 299.125196 1.417165
v    19.635922 302.380211 1.417165
v    18.469448 298.080756 1.230059
v    18.180832 297.889042 1.552033
v    17.792970 298.925242 1.230059
v    17.542885 298.685427 1.552033
v    17.841416 299.161313 1.417165
v    21.805616 298.549955 1.417165
v    20.352968 302.288732 1.417165
v    22.158584 300.838687 2.253766
v    18.194384 301.450045 2.253766
v    19.647032 297.711268 2.253766
v    21.888871 301.480241 1.988545
v    22.276901 301.592464 2.363899
v    22.392768 300.183329 1.988545
v    22.754778 300.362523 2.363899
v    22.163962 300.511898 2.253766
v    18.474702 301.618097 2.253766
v    19.361335 297.870005 2.253766
v    17.836038 299.488102 4.112548
v    21.525298 298.381903 4.112548
v    20.638665 302.129995 4.112548
v    18.088419 298.536099 3.744464
v    17.067719 298.388895 4.702762
v    17.635135 300.452283 3.744464
v    16.656661 300.126571 4.702762
v    18.595695 298.396392 4.112548
v    22.090917 299.585640 4.112548
v    19.313387 302.017967 4.112548
v    21.404305 301.603608 5.999272
v    17.909083 300.414360 5.999272
v    20.686613 297.982033 5.999272
v    20.334291 302.492863 5.499120
v    20.681653 302.824675 5.945507
v    22.426964 300.660277 5.499120
v    22.710043 301.048381 5.945507
v    21.718982 301.097521 5.999272
v    18.190028 300.939922 5.999272
v    20.090990 297.962557 5.999272
v    18.281018 298.902479 11.505015
v    21.809972 299.060078 11.505015
v    19.909010 302.037443 11.505015
v    19.254065 297.467300 10.839629
v    17.361306 296.483896 12.821705
v    17.280985 296.441097 12.883044
v    17.388568 300.389117 10.839629
v    15.699979 299.085933 12.821705
v    15.627354 299.031080 12.883044
v    18.420020 298.861621 11.505015
v    21.775855 299.200887 11.505015
v    19.804125 301.937492 11.505015
v    21.579980 301.138379 19.658889
v    18.224145 300.799113 19.658889
v    20.195875 298.062508 19.658889
v    20.087164 303.103754 18.792201
v    20.319650 303.241632 19.043374
v    22.971739 299.100193 18.792201
v    23.176120 299.277079 19.043374
v    21.554633 301.012481 19.658889
v    18.345849 300.840111 19.658889
v    20.099518 298.147408 19.658889
v    18.445367 298.987519 30.873903
v    21.654151 299.159889 30.873903
v    19.900482 301.852592 30.873903
v    20.190228 296.453870 29.768631
v    18.051324 295.317915 32.019124
v    16.833610 301.607854 29.768631
v    14.929798 300.110923 32.019124
v    18.458123 299.144816 30.873903
v    21.511550 299.092287 30.873903
v    20.030327 301.762897 30.873903
v    21.541877 300.855184 48.397837
v    18.488450 300.907713 48.397837
v    19.969673 298.237103 48.397837
v    19.488629 304.352691 47.017797
v    19.745099 304.476387 47.283014
v    20.268679 304.708537 47.815232
v    23.421686 297.261482 47.017797
v    23.662419 297.413553 47.283014
v    24.136586 297.734792 47.815232
v    21.614895 300.429572 48.397837
v    18.820532 301.183754 48.397837
v    19.564573 298.386674 48.397837
v    18.385105 299.570428 69.759043
v    21.179468 298.816246 69.759043
v    20.435427 301.613326 69.759043
v    19.780901 294.794777 68.071980
v    19.138852 294.662635 68.682539
v    18.209048 294.502136 69.559337
v    17.223616 304.408406 68.071980
v    16.600770 304.204079 68.682539
v    15.714109 303.881387 69.559337
v    18.541706 299.394647 69.759043
v    21.253398 299.039757 69.759043
v    20.204896 301.565597 69.759043
v    21.458294 300.605353 89.605866
v    18.746602 300.960243 89.605866
v    19.795104 298.434403 89.605866
v    19.259942 305.522723 87.586626
v    21.949053 306.367573 90.205906
v    23.388628 295.576727 87.586626
v    25.885517 296.884638 90.205906
v    21.148136 300.944713 89.605866
v    18.607786 300.521958 89.605866
v    20.244078 298.533328 89.605866
v    18.851864 299.055287 113.493186
v    21.392214 299.478042 113.493186
v    19.755922 301.466672 113.493186
v    22.800223 294.524342 111.126933
v    22.107364 294.050892 111.906732
v    15.166101 303.802302 111.126933
v    14.568084 303.213589 111.906732
v    19.036323 298.991726 113.493186
v    21.355030 299.669568 113.493186
v    19.608648 301.338706 113.493186
v    20.963677 301.008274 130.390000
v    18.644970 300.330432 130.390000
v    20.391352 298.661294 130.390000
v    15.923422 305.555738 127.675116
v    18.094501 307.455913 130.356168
v    25.734352 296.178754 127.675116
v    27.534435 298.433517 130.356168
v    20.912312 300.929805 130.390000
v    18.738610 300.325183 130.390000
v    20.349079 298.745013 130.390000
v    19.087688 299.070195 146.689036
v    21.261390 299.674817 146.689036
v    19.650921 301.254987 146.689036
v    24.816270 293.756403 143.639326
v    23.888022 292.965239 144.772700
v    13.666065 304.696831 143.639326
v    12.892671 303.753726 144.772700
v    19.188946 299.101354 146.689036
v    21.183778 299.746930 146.689036
v    19.627277 301.151717 146.689036
v    20.811054 300.898646 158.144639
v    18.816222 300.253070 158.144639
v    20.372723 298.848283 158.144639
v    14.342586 306.411960 154.790488
v    20.177463 311.820867 162.183843
v    26.956556 295.027487 154.790488
v    31.740840 301.384585 162.183843
v    21.097812 300.213714 158.144639
v    19.266012 300.843876 158.144639
v    19.636176 298.942409 158.144639
v    18.902188 299.786286 164.568994
v    20.733988 299.156124 164.568994
v    20.363824 301.057591 164.568994
v    20.779942 291.498799 160.957196
v    18.535590 291.266324 163.053919
v    12.402923 290.732680 168.765080
v    17.533934 308.172959 160.957196
v    15.366273 307.546533 163.053919
v    9.481274 305.740663 168.765080
v    19.208315 299.346885 164.568994
v    20.961457 299.640938 164.568994
v    19.830228 301.012177 164.568994
v    20.791685 300.653115 168.413077
v    19.038543 300.359062 168.413077
v    20.169772 298.987823 168.413077
v    15.187023 307.016934 164.605215
v    24.069278 312.891189 174.484966
v    25.974212 293.941048 164.605215
v    33.429638 301.544859 174.484966
v    20.747035 300.560971 168.413077
v    19.140667 300.366465 168.413077
v    20.112298 299.072563 168.413077
v    19.252965 299.439029 171.288783
v    20.859333 299.633535 171.288783
v    19.887702 300.927437 171.288783
v    24.847743 292.458927 167.358209
v    14.014414 285.985323 179.066729
v    8.379278 282.523172 183.518568
v    14.109888 306.758326 167.358209
v    4.872126 298.159936 179.066729
v    -0.024088 293.713776 183.518568
v    19.310251 299.516898 171.288783
v    20.763253 299.644211 171.288783
v    19.926496 300.838891 171.288783
v    20.689749 300.483102 172.787345
v    19.236747 300.355789 172.787345
v    20.073504 299.161109 172.787345
v    15.700064 307.109567 168.814995
v    26.859052 313.286063 180.647959
v    29.660513 314.882012 182.818215
v    25.211839 293.529132 168.814995
v    34.830251 301.905185 180.647959
v    37.287562 303.992494 182.818215
v    20.610549 300.435580 172.787345
v    19.317502 300.310961 172.787345
v    20.071949 299.253459 172.787345
v    19.389451 299.564420 174.147000
v    20.682498 299.689039 174.147000
v    19.928051 300.746541 174.147000
v    24.886495 292.345576 170.216427
v    13.903116 286.131708 181.924946
v    0.604313 278.401881 192.278964
v    14.352254 307.111329 170.216427
v    4.902538 298.747740 181.924946
v    -6.734080 288.688042 192.278964
v    22.448837 301.564417 1.088646
v    22.888130 301.736971 1.411021
v    23.004585 301.780823 1.494783
v    24.135361 302.222233 1.883871
v    24.811915 302.465153 1.875681
v    25.239808 302.553140 1.819457
v    25.242075 302.553587 1.818770
v    22.741368 300.963902 1.088646
v    23.148030 301.203440 1.411021
v    23.254346 301.268107 1.494783
v    24.298957 301.886400 1.883871
v    24.907280 302.269385 1.875681
v    25.240325 302.552077 1.819457
v    25.242075 302.553587 1.818770
v    18.180832 297.889042 1.552033
v    17.969835 297.748887 1.787416
v    17.358528 297.333593 2.285496
v    15.818819 296.294619 2.916148
v    15.591181 296.139509 2.913000
v    14.861022 295.681430 2.903187
v    14.375176 295.461915 2.822890
v    14.285055 295.422025 2.793578
v    17.542885 298.685427 1.552033
v    17.360057 298.510107 1.787416
v    16.821352 298.004181 2.285496
v    15.471371 296.728359 2.916148
v    15.270316 296.540063 2.913000
v    14.663917 295.927488 2.903187
v    14.343654 295.501266 2.822890
v    14.285055 295.422025 2.793578
v    22.276901 301.592464 2.363899
v    22.705602 301.716450 2.778595
v    23.850011 302.044467 3.580068
v    25.595647 302.564346 4.163889
v    26.247230 302.730557 4.378566
v    26.746459 302.860961 4.372692
v    27.650891 302.972646 4.362567
v    22.754778 300.362523 2.363899
v    23.154730 300.560499 2.778595
v    24.220399 301.091177 3.580068
v    25.859115 301.886240 4.163889
v    26.451993 302.203547 4.378566
v    26.908306 302.444405 4.372692
v    27.650891 302.972646 4.362567
v    17.067719 298.388895 4.702762
v    16.487246 298.300569 5.136444
v    15.285528 298.132299 5.953238
v    12.511164 297.709721 6.852770
v    11.861643 297.637022 7.061423
v    10.858916 297.518958 7.049928
v    9.594329 297.538478 7.035876
v    16.656661 300.126571 4.702762
v    16.098137 299.945461 5.136444
v    14.948393 299.557479 5.953238
v    12.278743 298.692243 6.852770
v    11.665490 298.466226 7.061423
v    10.716141 298.122516 7.049928
v    9.594329 297.538478 7.035876
v    20.681653 302.824675 5.945507
v    21.493651 303.600323 6.988990
v    22.403547 304.487780 7.845611
v    23.109716 305.156806 8.500400
v    26.403082 308.353019 9.971436
v    28.106454 309.896545 9.981270
v    29.013637 310.522309 9.969025
v    29.514678 310.865028 9.861495
v    22.710043 301.048381 5.945507
v    23.371776 301.955619 6.988990
v    24.131423 302.974651 7.845611
v    24.701428 303.762918 8.500400
v    27.435173 307.449201 9.971436
v    28.740462 309.341334 9.981270
v    29.241062 310.323150 9.969025
v    29.514678 310.865028 9.861495
v    17.280985 296.441097 12.883044
v    14.706497 295.115106 14.832438
v    10.824080 293.058733 16.240664
v    9.143640 292.252360 16.835708
v    8.146708 291.766912 16.823084
v    5.976863 291.046627 16.797682
v    15.627354 299.031080 12.883044
v    13.341109 297.253631 14.832438
v    9.841907 294.597052 16.240664
v    8.403258 293.411975 16.835708
v    7.543364 292.711893 16.823084
v    5.976863 291.046627 16.797682
v    20.319650 303.241632 19.043374
v    22.476810 304.520953 21.373921
v    24.981140 306.041618 23.348543
v    25.806589 306.526581 23.992970
v    32.775314 310.734416 26.602295
v    36.842470 313.035004 26.549064
v    39.586488 314.112111 26.194064
v    23.176120 299.277079 19.043374
v    25.072500 300.918343 21.373921
v    27.307708 302.812526 23.348543
v    28.029027 303.442013 23.992970
v    34.226419 308.720396 26.602295
v    37.696155 311.850157 26.549064
v    39.586488 314.112111 26.194064
v    18.051324 295.317915 32.019124
v    17.061063 294.791995 33.061050
v    14.574533 293.438055 34.969212
v    12.691767 292.448035 36.401072
v    3.750018 287.607940 39.660146
v    -0.798511 285.343371 39.673292
v    -3.076517 284.564258 39.646543
v    -4.373517 284.126340 39.404051
v    14.929798 300.110923 32.019124
v    14.048378 299.417879 33.061050
v    11.804634 297.691150 34.969212
v    10.137864 296.369475 36.401072
v    2.095509 290.148389 39.660146
v    -1.814867 286.903954 39.673292
v    -3.448555 285.135512 39.646543
v    -4.373517 284.126340 39.404051
v    20.268679 304.708537 47.815232
v    23.528377 306.153854 51.128705
v    29.158649 308.720704 55.299051
v    40.965051 314.070973 59.453914
v    43.835747 315.384547 59.417842
v    49.235538 317.612468 59.351340
v    52.398733 318.506672 58.766074
v    54.178841 318.956902 58.219958
v    24.136586 297.734792 47.815232
v    27.088653 299.734761 51.128705
v    32.247334 303.151879 55.299051
v    43.037441 310.334505 59.453914
v    45.671775 312.074233 59.417842
v    50.420898 315.475291 59.351340
v    52.854352 317.685203 58.766074
v    54.178841 318.956902 58.219958
v    18.209048 294.502136 69.559337
v    14.457034 293.854479 73.097458
v    7.016662 292.490262 78.195597
v    -8.574497 289.662933 83.274809
v    -12.783508 288.885153 83.225901
v    -19.431482 287.915036 83.149415
v    -23.433430 287.742456 82.433943
v    -26.093084 287.738956 81.642901
v    15.714109 303.881387 69.559337
v    12.136195 302.579237 73.097458
v    5.001373 300.066362 78.195597
v    -9.933930 294.773465 83.274809
v    -13.973095 293.357179 83.225901
v    -20.224436 290.895999 83.149415
v    -23.783208 289.057381 82.433943
v    -26.093084 287.738956 81.642901
v    21.949053 306.367573 90.205906
v    25.435278 307.462857 93.601602
v    27.522514 308.142561 95.081034
v    34.082460 310.173937 99.703545
v    48.502795 314.830273 104.560734
v    52.189475 315.861081 105.782834
v    57.270085 317.313140 105.722677
v    64.134640 318.320747 105.645590
v    25.885517 296.884638 90.205906
v    29.122542 298.580245 93.601602
v    31.077539 299.578513 95.081034
v    37.147613 302.789990 99.703545
v    50.626274 309.714817 104.560734
v    53.959164 311.597905 105.782834
v    58.574526 314.170745 105.722677
v    64.134640 318.320747 105.645590
v    22.107364 294.050892 111.906732
v    17.467415 290.880283 117.128910
v    7.730186 284.301885 125.326187
v    -3.220348 276.691123 129.600686
v    -10.746162 271.891908 132.450225
v    -19.386260 267.592068 132.342452
v    14.568084 303.213589 111.906732
v    10.563268 299.271084 117.128910
v    2.232825 290.982981 125.326187
v    -7.344315 281.703095 129.600686
v    -13.503008 275.242379 132.450225
v    -19.386260 267.592068 132.342452
v    18.094501 307.455913 130.356168
v    20.595087 309.644481 133.444126
v    22.502084 311.259020 135.762302
v    31.706520 319.248352 143.966418
v    41.970833 328.376509 148.369282
v    51.101553 335.869336 152.140076
v    59.087358 340.896240 152.035193
v    27.534435 298.433517 130.356168
v    29.607717 301.030488 133.444126
v    31.134393 303.008526 135.762302
v    38.699441 312.564735 143.966418
v    47.354235 323.231221 148.369282
v    54.426617 332.691343 152.140076
v    59.087358 340.896240 152.035193
v    23.888022 292.965239 144.772700
v    17.899797 287.861351 152.084222
v    6.911350 278.584503 161.939825
v    -6.831402 266.682033 167.767292
v    -15.040191 260.124019 171.121535
v    -26.338404 252.773077 170.970717
v    12.892671 303.753726 144.772700
v    7.903425 297.669654 152.084222
v    -1.163071 286.507014 161.939825
v    -12.802410 272.540703 167.767292
v    -19.203350 264.208853 171.121535
v    -26.338404 252.773077 170.970717
v    20.177463 311.820867 162.183843
v    33.335296 323.892938 174.917855
v    46.885767 336.655244 180.884352
v    56.651943 345.147894 185.016140
v    67.637385 352.782116 184.866837
v    31.740840 301.384585 162.183843
v    42.405019 315.707251 174.917855
v    53.715693 330.491038 180.884352
v    61.165809 341.074000 185.016140
v    67.637385 352.782116 184.866837
v    12.402923 290.732680 168.765080
v    9.234065 290.456936 171.716137
v    -6.901114 288.852644 182.630637
v    -17.300380 287.692131 185.984638
v    -33.111601 286.560575 191.045227
v    -41.006463 287.093412 193.504616
v    -45.124567 287.322007 193.458791
v    9.481274 305.740663 168.765080
v    6.440391 304.807538 171.716137
v    -9.118293 300.241892 182.630637
v    -19.193468 297.416584 185.984638
v    -34.274514 292.534251 191.045227
v    -41.392951 289.078731 193.504616
v    -45.124567 287.322007 193.458791
v    24.069278 312.891189 174.484966
v    39.526435 323.365915 187.455186
v    43.329925 326.016602 188.941184
v    57.409299 335.020348 194.276483
v    68.766197 340.230556 198.160067
v    33.429638 301.544859 174.484966
v    46.651367 314.729299 187.455186
v    49.976666 317.959634 188.941184
v    61.492354 330.070999 194.276483
v    68.766197 340.230556 198.160067
v    8.379278 282.523172 183.518568
v    -1.020510 276.748069 190.944536
v    -7.075093 272.927106 193.239378
v    -22.017463 264.306613 198.746611
v    -33.973725 259.469484 202.755347
v    -0.024088 293.713776 183.518568
v    -8.191303 286.297279 190.944536
v    -13.549062 281.548368 193.239378
v    -25.994385 269.602606 198.746611
v    -33.973725 259.469484 202.755347
v    29.660513 314.882012 182.818215
v    40.863114 321.263963 191.496729
v    56.035622 329.325355 197.586272
v    68.274125 333.811331 201.637615
v    37.287562 303.992494 182.818215
v    47.113963 312.339315 191.496729
v    59.875483 323.842994 197.586272
v    68.274125 333.811331 201.637615
v    0.604313 278.401881 192.278964
v    -1.352857 277.264290 193.802754
v    -8.942180 272.730010 196.636483
v    -24.090568 264.476911 202.143717
v    -34.607667 260.517994 205.636465
v    -36.227156 259.886204 205.617151
v    -6.734080 288.688042 192.278964
v    -8.446628 287.207567 193.802754
v    -15.203728 281.506767 196.636483
v    -27.937001 269.868423 202.143717
v    -35.102763 261.211965 205.636465
v    -36.227156 259.886204 205.617151
mtllib usm_14_2.5D_2018-09-27_7.mtl
usemtl APPID_801995344_2358739729856 
o vid_3 
f 3 2 1
f 4 5 6
f 1 6 5
f 1 5 3
f 3 5 4
f 4 2 3
f 2 4 6
f 6 1 2
usemtl APPID_802004304_2358739729728 
o vid_4 
f 7 9 10
f 7 10 8
f 7 9 10
f 7 10 8
usemtl APPID_801995344_2358739729856 
o vid_5 
f 13 12 11
f 14 15 16
f 11 16 15
f 11 15 13
f 13 15 14
f 14 12 13
f 12 14 16
f 16 11 12
usemtl APPID_802004304_2358739729728 
o vid_6 
f 17 19 20
f 17 20 18
f 17 19 20
f 17 20 18
usemtl APPID_801995344_2358739729856 
o vid_7 
f 23 22 21
f 24 25 26
f 21 26 25
f 21 25 23
f 23 25 24
f 24 22 23
f 22 24 26
f 26 21 22
usemtl APPID_802004304_2358739729728 
o vid_8 
f 27 29 30
f 27 30 28
f 27 29 30
f 27 30 28
usemtl APPID_801995344_2358739729856 
o vid_9 
f 33 32 31
f 34 35 36
f 31 36 35
f 31 35 33
f 33 35 34
f 34 32 33
f 32 34 36
f 36 31 32
usemtl APPID_802004304_2358739729728 
o vid_10 
f 37 39 40
f 37 40 38
f 37 39 40
f 37 40 38
usemtl APPID_801995344_2358739729856 
o vid_11 
f 43 42 41
f 44 45 46
f 41 46 45
f 41 45 43
f 43 45 44
f 44 42 43
f 42 44 46
f 46 41 42
usemtl APPID_802004304_2358739729728 
o vid_12 
f 47 49 50
f 47 50 48
f 47 49 50
f 47 50 48
usemtl APPID_801995344_2358739729856 
o vid_13 
f 53 52 51
f 54 55 56
f 51 56 55
f 51 55 53
f 53 55 54
f 54 52 53
f 52 54 56
f 56 51 52
usemtl APPID_802004304_2358739729728 
o vid_14 
f 57 60 61
f 57 61 58
f 58 61 62
f 58 62 59
usemtl APPID_801995344_2358739729856 
o vid_15 
f 65 64 63
f 66 67 68
f 63 68 67
f 63 67 65
f 65 67 66
f 66 64 65
f 64 66 68
f 68 63 64
usemtl APPID_802004304_2358739729728 
o vid_16 
f 69 71 72
f 69 72 70
f 69 71 72
f 69 72 70
usemtl APPID_801995344_2358739729856 
o vid_17 
f 75 74 73
f 76 77 78
f 73 78 77
f 73 77 75
f 75 77 76
f 76 74 75
f 74 76 78
f 78 73 74
usemtl APPID_802004304_2358739729728 
o vid_18 
f 79 81 82
f 79 82 80
f 79 81 82
f 79 82 80
usemtl APPID_801995344_2358739729856 
o vid_19 
f 85 84 83
f 86 87 88
f 83 88 87
f 83 87 85
f 85 87 86
f 86 84 85
f 84 86 88
f 88 83 84
usemtl APPID_802004304_2358739729728 
o vid_20 
f 89 92 93
f 89 93 90
f 90 93 94
f 90 94 91
usemtl APPID_801995344_2358739729856 
o vid_21 
f 97 96 95
f 98 99 100
f 95 100 99
f 95 99 97
f 97 99 98
f 98 96 97
f 96 98 100
f 100 95 96
usemtl APPID_802004304_2358739729728 
o vid_22 
f 101 104 105
f 101 105 102
f 102 105 106
f 102 106 103
usemtl APPID_801995344_2358739729856 
o vid_23 
f 109 108 107
f 110 111 112
f 107 112 111
f 107 111 109
f 109 111 110
f 110 108 109
f 108 110 112
f 112 107 108
usemtl APPID_802004304_2358739729728 
o vid_24 
f 113 115 116
f 113 116 114
f 113 115 116
f 113 116 114
usemtl APPID_801995344_2358739729856 
o vid_25 
f 119 118 117
f 120 121 122
f 117 122 121
f 117 121 119
f 119 121 120
f 120 118 119
f 118 120 122
f 122 117 118
usemtl APPID_802004304_2358739729728 
o vid_26 
f 123 125 126
f 123 126 124
f 123 125 126
f 123 126 124
usemtl APPID_801995344_2358739729856 
o vid_27 
f 129 128 127
f 130 131 132
f 127 132 131
f 127 131 129
f 129 131 130
f 130 128 129
f 128 130 132
f 132 127 128
usemtl APPID_802004304_2358739729728 
o vid_28 
f 133 135 136
f 133 136 134
f 133 135 136
f 133 136 134
usemtl APPID_801995344_2358739729856 
o vid_29 
f 139 138 137
f 140 141 142
f 137 142 141
f 137 141 139
f 139 141 140
f 140 138 139
f 138 140 142
f 142 137 138
usemtl APPID_802004304_2358739729728 
o vid_30 
f 143 145 146
f 143 146 144
f 143 145 146
f 143 146 144
usemtl APPID_801995344_2358739729856 
o vid_31 
f 149 148 147
f 150 151 152
f 147 152 151
f 147 151 149
f 149 151 150
f 150 148 149
f 148 150 152
f 152 147 148
usemtl APPID_802004304_2358739729728 
o vid_32 
f 153 155 156
f 153 156 154
f 153 155 156
f 153 156 154
usemtl APPID_801995344_2358739729856 
o vid_33 
f 159 158 157
f 160 161 162
f 157 162 161
f 157 161 159
f 159 161 160
f 160 158 159
f 158 160 162
f 162 157 158
usemtl APPID_802004304_2358739729728 
o vid_34 
f 163 166 167
f 163 167 164
f 164 167 168
f 164 168 165
usemtl APPID_801995344_2358739729856 
o vid_35 
f 171 170 169
f 172 173 174
f 169 174 173
f 169 173 171
f 171 173 172
f 172 170 171
f 170 172 174
f 174 169 170
usemtl APPID_802004304_2358739729728 
o vid_36 
f 175 177 178
f 175 178 176
f 175 177 178
f 175 178 176
usemtl APPID_801995344_2358739729856 
o vid_37 
f 181 180 179
f 182 183 184
f 179 184 183
f 179 183 181
f 181 183 182
f 182 180 181
f 180 182 184
f 184 179 180
usemtl APPID_802004304_2358739729728 
o vid_38 
f 185 188 189
f 185 189 186
f 186 189 190
f 186 190 187
usemtl APPID_801995344_2358739729856 
o vid_39 
f 193 192 191
f 194 195 196
f 191 196 195
f 191 195 193
f 193 195 194
f 194 192 193
f 192 194 196
f 196 191 192
usemtl APPID_802004304_2358739729728 
o vid_40 
f 197 200 201
f 197 201 198
f 198 201 202
f 198 202 199
usemtl APPID_801995344_2358739729856 
o vid_41 
f 205 204 203
f 206 207 208
f 203 208 207
f 203 207 205
f 205 207 206
f 206 204 205
f 204 206 208
f 208 203 204
usemtl APPID_802004304_2358739729728 
o vid_42 
f 209 212 213
f 209 213 210
f 210 213 214
f 210 214 211
usemtl APPID_802016064_2358739730880 
o vid_10000004 
f 215 222 223
f 216 223 224
f 217 224 225
f 218 225 226
f 219 226 227
f 215 223 216
f 216 224 217
f 217 225 218
f 218 226 219
f 219 227 220
f 220 227 228
usemtl APPID_802016064_2358739730880 
o vid_10000006 
f 229 237 238
f 230 238 239
f 231 239 240
f 232 240 241
f 233 241 242
f 234 242 243
f 229 238 230
f 230 239 231
f 231 240 232
f 232 241 233
f 233 242 234
f 234 243 235
f 235 243 244
usemtl APPID_802016064_2358739730880 
o vid_10000008 
f 245 252 253
f 246 253 254
f 247 254 255
f 248 255 256
f 249 256 257
f 245 253 246
f 246 254 247
f 247 255 248
f 248 256 249
f 249 257 250
f 250 257 258
usemtl APPID_802016064_2358739730880 
o vid_10000010 
f 259 266 267
f 260 267 268
f 261 268 269
f 262 269 270
f 263 270 271
f 259 267 260
f 260 268 261
f 261 269 262
f 262 270 263
f 263 271 264
f 264 271 272
usemtl APPID_802016064_2358739730880 
o vid_10000012 
f 273 281 282
f 274 282 283
f 275 283 284
f 276 284 285
f 277 285 286
f 278 286 287
f 273 282 274
f 274 283 275
f 275 284 276
f 276 285 277
f 277 286 278
f 278 287 279
f 279 287 288
usemtl APPID_802016064_2358739730880 
o vid_10000014 
f 289 295 296
f 290 296 297
f 291 297 298
f 292 298 299
f 289 296 290
f 290 297 291
f 291 298 292
f 292 299 293
f 293 299 300
usemtl APPID_802016064_2358739730880 
o vid_10000016 
f 301 308 309
f 302 309 310
f 303 310 311
f 304 311 312
f 305 312 313
f 301 309 302
f 302 310 303
f 303 311 304
f 304 312 305
f 305 313 306
f 306 313 314
usemtl APPID_802016064_2358739730880 
o vid_10000018 
f 315 323 324
f 316 324 325
f 317 325 326
f 318 326 327
f 319 327 328
f 320 328 329
f 315 324 316
f 316 325 317
f 317 326 318
f 318 327 319
f 319 328 320
f 320 329 321
f 321 329 330
usemtl APPID_802016064_2358739730880 
o vid_10000020 
f 331 339 340
f 332 340 341
f 333 341 342
f 334 342 343
f 335 343 344
f 336 344 345
f 331 340 332
f 332 341 333
f 333 342 334
f 334 343 335
f 335 344 336
f 336 345 337
f 337 345 346
usemtl APPID_802016064_2358739730880 
o vid_10000022 
f 347 355 356
f 348 356 357
f 349 357 358
f 350 358 359
f 351 359 360
f 352 360 361
f 347 356 348
f 348 357 349
f 349 358 350
f 350 359 351
f 351 360 352
f 352 361 353
f 353 361 362
usemtl APPID_802016064_2358739730880 
o vid_10000024 
f 363 371 372
f 364 372 373
f 365 373 374
f 366 374 375
f 367 375 376
f 368 376 377
f 363 372 364
f 364 373 365
f 365 374 366
f 366 375 367
f 367 376 368
f 368 377 369
f 369 377 378
usemtl APPID_802016064_2358739730880 
o vid_10000026 
f 379 385 386
f 380 386 387
f 381 387 388
f 382 388 389
f 379 386 380
f 380 387 381
f 381 388 382
f 382 389 383
f 383 389 390
usemtl APPID_802016064_2358739730880 
o vid_10000028 
f 391 398 399
f 392 399 400
f 393 400 401
f 394 401 402
f 395 402 403
f 391 399 392
f 392 400 393
f 393 401 394
f 394 402 395
f 395 403 396
f 396 403 404
usemtl APPID_802016064_2358739730880 
o vid_10000030 
f 405 411 412
f 406 412 413
f 407 413 414
f 408 414 415
f 405 412 406
f 406 413 407
f 407 414 408
f 408 415 409
f 409 415 416
usemtl APPID_802016064_2358739730880 
o vid_10000032 
f 417 422 423
f 418 423 424
f 419 424 425
f 417 423 418
f 418 424 419
f 419 425 420
f 420 425 426
usemtl APPID_802016064_2358739730880 
o vid_10000034 
f 427 434 435
f 428 435 436
f 429 436 437
f 430 437 438
f 431 438 439
f 427 435 428
f 428 436 429
f 429 437 430
f 430 438 431
f 431 439 432
f 432 439 440
usemtl APPID_802016064_2358739730880 
o vid_10000036 
f 441 446 447
f 442 447 448
f 443 448 449
f 441 447 442
f 442 448 443
f 443 449 444
f 444 449 450
usemtl APPID_802016064_2358739730880 
o vid_10000038 
f 451 456 457
f 452 457 458
f 453 458 459
f 451 457 452
f 452 458 453
f 453 459 454
f 454 459 460
usemtl APPID_802016064_2358739730880 
o vid_10000040 
f 461 465 466
f 462 466 467
f 461 466 462
f 462 467 463
f 463 467 468
usemtl APPID_802016064_2358739730880 
o vid_10000042 
f 469 475 476
f 470 476 477
f 471 477 478
f 472 478 479
f 469 476 470
f 470 477 471
f 471 478 472
f 472 479 473
f 473 479 480
