# File generated by PlantGL - Fri Sep  4 14:43:34 2026
v    17.752484 258.905161 0.000000
v    22.071916 258.601013 0.000000
v    20.175600 262.493825 0.000000
v    22.247516 261.094839 0.848509
v    17.928084 261.398987 0.848509
v    19.824400 257.506175 0.848509
v    22.063318 261.447212 0.691549
v    22.452716 261.595674 1.078805
v    22.473575 261.603237 1.099390
v    22.411435 260.732586 0.691549
v    22.768371 260.947689 1.078805
v    22.787184 260.959451 1.099390
v    21.879284 261.505407 0.848509
v    17.756638 260.874804 0.848509
v    20.364078 257.619789 0.848509
v    18.120716 258.494593 1.417165
v    22.243362 259.125196 1.417165
v    19.635922 262.380211 1.417165
v    18.491111 258.057764 1.194819
v    18.158230 257.836648 1.566173
v    17.775261 258.951400 1.194819
v    17.486821 258.674806 1.566173
v    17.841416 259.161313 1.417165
v    21.805616 258.549955 1.417165
v    20.352968 262.288732 1.417165
v    22.158584 260.838687 2.253766
v    18.194384 261.450045 2.253766
v    19.647032 257.711268 2.253766
v    21.872752 261.513089 1.945001
v    22.123264 261.585540 2.187329
v    22.283090 261.628934 2.340978
v    22.403054 260.148215 1.945001
v    22.636768 260.263903 2.187329
v    22.783965 260.339799 2.340978
v    22.163962 260.511898 2.253766
v    18.474702 261.618097 2.253766
v    19.361335 257.870005 2.253766
v    17.836038 259.488102 4.112548
v    21.525298 258.381903 4.112548
v    20.638665 262.129995 4.112548
v    18.103570 258.488359 3.692223
v    17.331373 258.376994 4.417211
v    16.767806 258.305139 4.944300
v    15.337724 258.104892 5.916311
v    17.627290 260.501751 3.692223
v    16.887040 260.255338 4.417211
v    16.351009 260.067077 4.944300
v    14.982778 259.605366 5.916311
v    18.595695 258.396392 4.112548
v    22.090917 259.585640 4.112548
v    19.313387 262.017967 4.112548
v    21.404305 261.603608 5.999272
v    17.909083 260.414360 5.999272
v    20.686613 257.982033 5.999272
v    20.288755 262.526936 5.438355
v    21.586681 263.766760 7.106294
v    23.417052 265.500803 8.804272
v    25.408140 267.433154 9.693624
v    22.466747 260.619634 5.438355
v    23.524484 262.069796 7.106294
v    25.001868 264.112954 8.804272
v    26.654622 266.341590 9.693624
v    21.718982 261.097521 5.999272
v    18.190028 260.939922 5.999272
v    20.090990 257.962557 5.999272
v    18.281018 258.902479 11.505015
v    21.809972 259.060078 11.505015
v    19.909010 262.037443 11.505015
v    19.289581 257.420808 10.771227
v    18.224379 256.867370 11.886694
v    17.192015 256.352336 12.957059
v    14.262552 254.845563 15.174495
v    11.530828 253.398669 16.165343
v    10.506392 252.907085 16.528096
v    17.361338 260.440900 10.771227
v    16.411039 259.707498 11.886694
v    15.509395 258.987723 12.957059
v    12.909777 256.964334 15.174495
v    10.447688 255.095127 16.165343
v    9.570654 254.372676 16.528096
v    18.420020 258.861621 11.505015
v    21.775855 259.200887 11.505015
v    19.804125 261.937492 11.505015
v    21.579980 261.138379 19.658889
v    18.224145 260.799113 19.658889
v    20.195875 258.062508 19.658889
v    20.044619 263.153665 18.717867
v    22.639220 264.692414 21.521016
v    23.767257 265.377375 22.410454
v    26.270454 266.848038 24.364694
v    32.607764 270.674614 26.737596
v    33.870420 271.370205 27.197815
v    35.565224 272.316590 27.175716
v    23.005616 259.044037 18.717867
v    25.286554 261.018125 21.521016
v    26.293370 261.871331 22.410454
v    28.480790 263.780268 24.364694
v    34.116655 268.580393 26.737596
v    35.176168 269.557930 27.197815
v    36.610374 270.866004 27.175716
v    21.554633 261.012481 19.658889
v    18.345849 260.840111 19.658889
v    20.099518 258.147408 19.658889
v    18.445367 258.987519 30.873903
v    21.654151 259.159889 30.873903
v    19.900482 261.852592 30.873903
v    20.233710 256.397340 29.690896
v    16.884467 254.618584 33.214874
v    15.846080 254.053172 34.011732
v    12.193168 252.132352 36.789804
v    4.490480 247.962950 39.597267
v    2.369909 246.921697 40.351461
v    -0.267568 245.607782 40.317915
v    16.799489 261.670481 29.690896
v    13.818369 259.326483 33.214874
v    12.881371 258.605392 34.011732
v    9.647530 256.041100 36.789804
v    2.719607 250.682071 39.597267
v    0.909823 249.163615 40.351461
v    -1.358350 247.282643 40.317915
v    18.458123 259.144816 30.873903
v    21.511550 259.092287 30.873903
v    20.030327 261.762897 30.873903
v    21.541877 260.855184 48.399763
v    18.488450 260.907713 48.399763
v    19.969673 258.237103 48.399763
v    19.448415 264.413658 46.941849
v    23.720814 266.307995 51.284729
v    27.938293 268.230751 54.408619
v    29.682244 268.995437 55.690401
v    42.156324 274.644980 60.079717
v    49.083837 277.535572 59.994221
v    50.514812 277.914215 59.977774
v    23.452113 257.195086 46.941849
v    27.321308 259.816391 51.284729
v    31.185531 262.376058 54.408619
v    32.757633 263.450583 55.690401
v    44.155149 271.041147 60.079717
v    50.275342 275.387317 59.994221
v    51.354240 276.400746 59.977774
v    21.614895 260.429572 48.399763
v    18.820532 261.183754 48.399763
v    19.564573 258.386674 48.399763
v    18.385105 259.570428 69.768155
v    21.179468 258.816246 69.768155
v    20.435427 261.613326 69.768155
v    19.806314 254.719993 68.006851
v    14.242508 253.759593 73.253478
v    7.900520 252.596769 77.599005
v    -9.810272 249.412670 83.878690
v    -19.784868 247.881495 83.763707
v    -23.132107 247.847950 83.408783
v    17.208514 264.485932 68.006851
v    11.902877 262.554994 73.253478
v    5.821332 260.413082 77.599005
v    -11.130722 254.376650 83.878690
v    -20.547782 250.749525 83.763707
v    -23.469294 249.115544 83.408783
v    18.541706 259.394647 69.768155
v    21.253398 259.039757 69.768155
v    20.204896 261.565597 69.768155
v    21.458294 260.605353 89.627216
v    18.746602 260.960243 89.627216
v    19.795104 258.434403 89.627216
v    19.187633 265.684422 87.541313
v    25.566842 267.688609 93.754869
v    27.714549 268.388005 95.277163
v    34.499554 270.489073 100.058263
v    49.386260 275.296000 105.072539
v    53.204515 276.363598 106.338256
v    58.442523 277.860641 106.276235
v    63.602516 278.618046 106.218289
v    23.452090 255.411354 87.541313
v    29.375305 258.514031 93.754869
v    31.386941 259.541222 95.277163
v    37.665267 262.862878 100.058263
v    51.579844 270.011662 105.072539
v    55.031682 271.961956 106.338256
v    59.790028 274.614502 106.276235
v    63.969492 277.734003 106.218289
v    21.101348 260.906215 89.627216
v    18.664521 260.500688 89.627216
v    20.234131 258.593097 89.627216
v    18.898652 259.093785 113.545098
v    21.335479 259.499312 113.545098
v    19.765869 261.406903 113.545098
v    23.094016 254.268913 111.123446
v    16.684587 249.889168 118.337142
v    7.699845 243.772262 125.655136
v    -6.429352 233.952287 131.170414
v    -11.118690 230.961894 132.945963
v    -15.586223 228.076731 132.885417
v    -22.185217 224.963743 132.804349
v    14.972032 264.139786 111.123446
v    9.439949 258.693777 118.337142
v    1.707272 251.055202 125.655136
v    -10.649871 239.081600 131.170414
v    -14.487354 235.055926 132.945963
v    -18.178863 231.227639 132.885417
v    -22.504406 225.351663 132.804349
v    19.226168 259.190357 113.545098
v    21.088087 259.734664 113.545098
v    19.685744 261.074979 113.545098
v    20.773832 260.809643 134.012573
v    18.911913 260.265336 134.012573
v    20.314256 258.925021 134.012573
v    15.314432 265.753619 131.256524
v    21.962623 271.572261 139.466333
v    24.324252 273.683019 141.601065
v    31.273233 279.714645 147.794844
v    46.875721 293.590095 154.487511
v    50.761936 296.779190 156.092435
v    56.470474 301.518824 156.007964
v    64.492351 306.551365 155.902749
v    25.959563 255.579333 131.256524
v    31.471703 262.483778 139.466333
v    33.473537 264.938416 141.601065
v    39.184846 272.152971 147.794844
v    52.340749 288.366791 154.487511
v    55.350894 292.393205 156.092435
v    59.827610 298.310178 156.007964
v    64.492351 306.551365 155.902749
v    20.590036 260.601350 134.012573
v    19.184197 260.210311 134.012573
v    20.225766 259.188339 134.012573
v    19.409964 259.398650 146.906041
v    20.815803 259.789689 146.906041
v    19.774234 260.811661 146.906041
v    24.973403 254.249421 143.831219
v    20.545321 250.475276 149.237832
v    17.424178 247.902305 152.990597
v    6.881647 238.991258 162.282406
v    -3.685051 229.839539 166.763101
v    -14.228482 221.416376 171.071317
v    -23.199679 215.971987 171.439868
v    14.156010 264.863298 143.831219
v    10.466637 260.364341 149.237832
v    7.953403 257.194898 152.990597
v    -0.755825 246.485040 162.282406
v    -9.705225 235.746450 166.763101
v    -17.926641 225.044958 171.071317
v    -23.199679 215.971987 171.439868
v    19.602179 259.559215 146.906041
v    20.580641 259.875869 146.906041
v    19.817180 260.564916 146.906041
v    20.397821 260.440785 157.054419
v    19.419359 260.124131 157.054419
v    20.182820 259.435084 157.054419
v    14.295193 265.623073 153.691546
v    16.613284 267.771934 156.628792
v    22.294375 272.867468 163.708981
v    33.408317 283.085412 173.871254
v    41.504569 290.710744 177.436169
v    52.641734 300.395604 182.147982
v    57.624621 303.638401 183.995800
v    62.056504 306.598512 183.936586
v    26.176643 254.899721 153.691546
v    28.077352 257.425281 156.628792
v    32.565619 263.597373 163.708981
v    41.594258 275.697363 173.871254
v    48.352258 284.530508 177.436169
v    56.848230 296.599120 182.147982
v    59.564815 301.887320 183.995800
v    62.056504 306.598512 183.936586
v    20.366942 260.071434 157.054419
v    19.754665 260.282065 157.054419
v    19.878392 259.646502 157.054419
v    19.633058 259.928566 160.243000
v    20.245335 259.717935 160.243000
v    20.121608 260.353498 160.243000
v    19.862582 253.907532 153.222334
v    14.515553 253.894712 165.155210
v    13.385618 253.993489 167.632799
v    5.765504 254.134350 179.239980
v    2.490537 254.954956 184.002307
v    -2.517081 255.616533 188.174458
v    17.587153 265.596001 153.222334
v    12.625796 263.602056 165.155210
v    11.615431 263.086621 167.632799
v    4.604636 260.097517 179.239980
v    1.876666 258.108302 184.002307
v    -2.517081 255.616533 188.174458
v    22.473575 261.603237 1.099390
v    23.193535 261.873497 1.633424
v    24.003383 262.189629 1.912084
v    24.577479 262.387862 2.105980
v    25.186155 262.526346 2.099014
v    22.787184 260.959451 1.099390
v    23.443792 261.359763 1.633424
v    24.191930 261.802576 1.912084
v    24.701907 262.132431 2.105980
v    25.186155 262.526346 2.099014
v    18.158230 257.836648 1.566173
v    17.910613 257.672168 1.842408
v    17.063494 257.114708 2.529059
v    15.928231 256.347578 2.968238
v    15.315130 255.967825 3.198473
v    15.088695 255.825767 3.195430
v    14.393518 255.508910 3.186942
v    17.486821 258.674806 1.566173
v    17.272262 258.469058 1.842408
v    16.543350 257.764034 2.529059
v    15.546932 256.823574 2.968238
v    15.042520 256.308139 3.198473
v    14.854465 256.118169 3.195430
v    14.393518 255.508910 3.186942
v    22.283090 261.628934 2.340978
v    22.827931 261.776861 2.864761
v    24.161097 262.156496 3.797819
v    25.103068 262.437030 4.112858
v    26.416146 262.771980 4.545477
v    26.997911 262.836779 4.727414
v    27.442506 262.891680 4.722437
v    22.783965 260.339799 2.340978
v    23.285756 260.598526 2.864761
v    24.525517 261.218565 3.797819
v    25.409792 261.647593 4.112858
v    26.604566 262.287033 4.545477
v    27.077471 262.632011 4.727414
v    27.442506 262.891680 4.722437
v    15.337724 258.104892 5.916311
v    14.899039 258.043466 6.214480
v    13.029433 257.758696 6.820662
v    11.196136 257.553502 7.409591
v    9.762795 257.578330 7.466532
v    14.982778 259.605366 5.916311
v    14.563067 259.463735 6.214480
v    12.764025 258.880664 6.820662
v    11.033098 258.242721 7.409591
v    9.762795 257.578330 7.466532
v    25.408140 267.433154 9.693624
v    25.931901 267.941464 9.927570
v    27.250875 269.123591 10.493017
v    27.787898 269.610486 10.484764
v    29.374389 270.704829 10.463350
v    26.654622 266.341590 9.693624
v    27.089384 266.927838 9.927570
v    28.087151 268.391252 10.493017
v    28.498934 268.987821 10.484764
v    29.374389 270.704829 10.463350
v    10.506392 252.907085 16.528096
v    8.627321 252.005398 17.193474
v    8.044198 251.819526 17.383699
v    6.259530 251.227102 17.362806
v    9.570654 254.372676 16.528096
v    7.961954 253.047522 17.193474
v    7.547956 252.596760 17.383699
v    6.259530 251.227102 17.362806
v    35.565224 272.316590 27.175716
v    36.334244 272.746013 27.165688
v    39.340969 273.935214 27.129764
v    36.610374 270.866004 27.175716
v    37.261148 271.459545 27.165688
v    39.340969 273.935214 27.129764
v    -0.267568 245.607782 40.317915
v    -4.134683 244.281884 40.272485
v    -1.358350 247.282643 40.317915
v    -4.134683 244.281884 40.272485
v    50.514812 277.914215 59.977774
v    51.073372 278.062012 59.971355
v    53.885898 278.794425 59.456530
v    51.354240 276.400746 59.977774
v    51.775372 276.796323 59.971355
v    53.885898 278.794425 59.456530
v    -23.132107 247.847950 83.408783
v    -25.435086 247.828740 83.000820
v    -25.757151 247.828316 82.905031
v    -23.469294 249.115544 83.408783
v    -25.477442 247.987968 83.000820
v    -25.757151 247.828316 82.905031
v    63.602516 278.618046 106.218289
v    65.533706 278.901514 106.196603
v    63.969492 277.734003 106.218289
v    65.533706 278.901514 106.196603
v    -22.185217 224.963743 132.804349
v    -23.111707 224.526684 132.792967
v    -22.504406 225.351663 132.804349
v    -23.111707 224.526684 132.792967
mtllib usm_18_2.5D_2018-08-15_6.mtl
usemtl APPID_2970155632_2459690874720 
o vid_3 
f 3 2 1
f 4 5 6
f 1 6 5
f 1 5 3
f 3 5 4
f 4 2 3
f 2 4 6
f 6 1 2
usemtl APPID_2970154400_2459690873952 
o vid_4 
f 7 10 11
f 7 11 8
f 8 11 12
f 8 12 9
usemtl APPID_2970155632_2459690874720 
o vid_5 
f 15 14 13
f 16 17 18
f 13 18 17
f 13 17 15
f 15 17 16
f 16 14 15
f 14 16 18
f 18 13 14
usemtl APPID_2970154400_2459690873952 
o vid_6 
f 19 21 22
f 19 22 20
f 19 21 22
f 19 22 20
usemtl APPID_2970155632_2459690874720 
o vid_7 
f 25 24 23
f 26 27 28
f 23 28 27
f 23 27 25
f 25 27 26
f 26 24 25
f 24 26 28
f 28 23 24
usemtl APPID_2970154400_2459690873952 
o vid_8 
f 29 32 33
f 29 33 30
f 30 33 34
f 30 34 31
usemtl APPID_2970155632_2459690874720 
o vid_9 
f 37 36 35
f 38 39 40
f 35 40 39
f 35 39 37
f 37 39 38
f 38 36 37
f 36 38 40
f 40 35 36
usemtl APPID_2970154400_2459690873952 
o vid_10 
f 41 45 46
f 42 46 47
f 41 46 42
f 42 47 43
f 43 47 48
f 43 48 44
usemtl APPID_2970155632_2459690874720 
o vid_11 
f 51 50 49
f 52 53 54
f 49 54 53
f 49 53 51
f 51 53 52
f 52 50 51
f 50 52 54
f 54 49 50
usemtl APPID_2970154400_2459690873952 
o vid_12 
f 55 59 60
f 56 60 61
f 55 60 56
f 56 61 57
f 57 61 62
f 57 62 58
usemtl APPID_2970155632_2459690874720 
o vid_13 
f 65 64 63
f 66 67 68
f 63 68 67
f 63 67 65
f 65 67 66
f 66 64 65
f 64 66 68
f 68 63 64
usemtl APPID_2970154400_2459690873952 
o vid_14 
f 69 75 76
f 70 76 77
f 71 77 78
f 72 78 79
f 69 76 70
f 70 77 71
f 71 78 72
f 72 79 73
f 73 79 80
f 73 80 74
usemtl APPID_2970155632_2459690874720 
o vid_15 
f 83 82 81
f 84 85 86
f 81 86 85
f 81 85 83
f 83 85 84
f 84 82 83
f 82 84 86
f 86 81 82
usemtl APPID_2970154400_2459690873952 
o vid_16 
f 87 94 95
f 88 95 96
f 89 96 97
f 90 97 98
f 91 98 99
f 87 95 88
f 88 96 89
f 89 97 90
f 90 98 91
f 91 99 92
f 92 99 100
f 92 100 93
usemtl APPID_2970155632_2459690874720 
o vid_17 
f 103 102 101
f 104 105 106
f 101 106 105
f 101 105 103
f 103 105 104
f 104 102 103
f 102 104 106
f 106 101 102
usemtl APPID_2970154400_2459690873952 
o vid_18 
f 107 114 115
f 108 115 116
f 109 116 117
f 110 117 118
f 111 118 119
f 107 115 108
f 108 116 109
f 109 117 110
f 110 118 111
f 111 119 112
f 112 119 120
f 112 120 113
usemtl APPID_2970155632_2459690874720 
o vid_19 
f 123 122 121
f 124 125 126
f 121 126 125
f 121 125 123
f 123 125 124
f 124 122 123
f 122 124 126
f 126 121 122
usemtl APPID_2970154400_2459690873952 
o vid_20 
f 127 134 135
f 128 135 136
f 129 136 137
f 130 137 138
f 131 138 139
f 127 135 128
f 128 136 129
f 129 137 130
f 130 138 131
f 131 139 132
f 132 139 140
f 132 140 133
usemtl APPID_2970155632_2459690874720 
o vid_21 
f 143 142 141
f 144 145 146
f 141 146 145
f 141 145 143
f 143 145 144
f 144 142 143
f 142 144 146
f 146 141 142
usemtl APPID_2970154400_2459690873952 
o vid_22 
f 147 153 154
f 148 154 155
f 149 155 156
f 150 156 157
f 147 154 148
f 148 155 149
f 149 156 150
f 150 157 151
f 151 157 158
f 151 158 152
usemtl APPID_2970155632_2459690874720 
o vid_23 
f 161 160 159
f 162 163 164
f 159 164 163
f 159 163 161
f 161 163 162
f 162 160 161
f 160 162 164
f 164 159 160
usemtl APPID_2970154400_2459690873952 
o vid_24 
f 165 173 174
f 166 174 175
f 167 175 176
f 168 176 177
f 169 177 178
f 170 178 179
f 165 174 166
f 166 175 167
f 167 176 168
f 168 177 169
f 169 178 170
f 170 179 171
f 171 179 180
f 171 180 172
usemtl APPID_2970155632_2459690874720 
o vid_25 
f 183 182 181
f 184 185 186
f 181 186 185
f 181 185 183
f 183 185 184
f 184 182 183
f 182 184 186
f 186 181 182
usemtl APPID_2970154400_2459690873952 
o vid_26 
f 187 194 195
f 188 195 196
f 189 196 197
f 190 197 198
f 191 198 199
f 187 195 188
f 188 196 189
f 189 197 190
f 190 198 191
f 191 199 192
f 192 199 200
f 192 200 193
usemtl APPID_2970155632_2459690874720 
o vid_27 
f 203 202 201
f 204 205 206
f 201 206 205
f 201 205 203
f 203 205 204
f 204 202 203
f 202 204 206
f 206 201 202
usemtl APPID_2970154400_2459690873952 
o vid_28 
f 207 215 216
f 208 216 217
f 209 217 218
f 210 218 219
f 211 219 220
f 212 220 221
f 207 216 208
f 208 217 209
f 209 218 210
f 210 219 211
f 211 220 212
f 212 221 213
f 213 221 222
usemtl APPID_2970155632_2459690874720 
o vid_29 
f 225 224 223
f 226 227 228
f 223 228 227
f 223 227 225
f 225 227 226
f 226 224 225
f 224 226 228
f 228 223 224
usemtl APPID_2970154400_2459690873952 
o vid_30 
f 229 236 237
f 230 237 238
f 231 238 239
f 232 239 240
f 233 240 241
f 229 237 230
f 230 238 231
f 231 239 232
f 232 240 233
f 233 241 234
f 234 241 242
usemtl APPID_2970155632_2459690874720 
o vid_31 
f 245 244 243
f 246 247 248
f 243 248 247
f 243 247 245
f 245 247 246
f 246 244 245
f 244 246 248
f 248 243 244
usemtl APPID_2970154400_2459690873952 
o vid_32 
f 249 257 258
f 250 258 259
f 251 259 260
f 252 260 261
f 253 261 262
f 254 262 263
f 249 258 250
f 250 259 251
f 251 260 252
f 252 261 253
f 253 262 254
f 254 263 255
f 255 263 264
usemtl APPID_2970155632_2459690874720 
o vid_33 
f 267 266 265
f 268 269 270
f 265 270 269
f 265 269 267
f 267 269 268
f 268 266 267
f 266 268 270
f 270 265 266
usemtl APPID_2970154400_2459690873952 
o vid_34 
f 271 277 278
f 272 278 279
f 273 279 280
f 274 280 281
f 271 278 272
f 272 279 273
f 273 280 274
f 274 281 275
f 275 281 282
usemtl APPID_2970163024_2459690874080 
o vid_10000004 
f 283 288 289
f 284 289 290
f 285 290 291
f 283 289 284
f 284 290 285
f 285 291 286
f 286 291 292
usemtl APPID_2970163024_2459690874080 
o vid_10000006 
f 293 300 301
f 294 301 302
f 295 302 303
f 296 303 304
f 297 304 305
f 293 301 294
f 294 302 295
f 295 303 296
f 296 304 297
f 297 305 298
f 298 305 306
usemtl APPID_2970163024_2459690874080 
o vid_10000008 
f 307 314 315
f 308 315 316
f 309 316 317
f 310 317 318
f 311 318 319
f 307 315 308
f 308 316 309
f 309 317 310
f 310 318 311
f 311 319 312
f 312 319 320
usemtl APPID_2970163024_2459690874080 
o vid_10000010 
f 321 326 327
f 322 327 328
f 323 328 329
f 321 327 322
f 322 328 323
f 323 329 324
f 324 329 330
usemtl APPID_2970163024_2459690874080 
o vid_10000012 
f 331 336 337
f 332 337 338
f 333 338 339
f 331 337 332
f 332 338 333
f 333 339 334
f 334 339 340
usemtl APPID_2970163024_2459690874080 
o vid_10000014 
f 341 345 346
f 342 346 347
f 341 346 342
f 342 347 343
f 343 347 348
usemtl APPID_2970163024_2459690874080 
o vid_10000016 
f 349 352 353
f 349 353 350
f 350 353 354
usemtl APPID_2970163024_2459690874080 
o vid_10000018 
f 355 357 358
f 355 358 356
f 355 357 358
usemtl APPID_2970163024_2459690874080 
o vid_10000020 
f 359 362 363
f 359 363 360
f 360 363 364
usemtl APPID_2970163024_2459690874080 
o vid_10000022 
f 365 368 369
f 365 369 366
f 366 369 370
usemtl APPID_2970163024_2459690874080 
o vid_10000024 
f 371 373 374
f 371 374 372
f 371 373 374
usemtl APPID_2970163024_2459690874080 
o vid_10000026 
f 375 377 378
f 375 378 376
f 375 377 378
