# File generated by PlantGL - Fri Sep  4 14:44:21 2026
v    18.201987 219.124129 0.000000
v    21.657533 218.880811 0.000000
v    20.140480 221.995060 0.000000
v    21.798013 220.875871 0.231332
v    18.342467 221.119189 0.231332
v    19.859520 218.004940 0.231332
v    21.002076 220.847646 -2.285194
v    22.067919 221.007351 -1.307020
v    21.285152 220.266538 -2.285194
v    22.067919 221.007351 -1.307020
v    21.503548 221.204422 0.231332
v    18.205166 220.699900 0.231332
v    20.291286 218.095678 0.231332
v    18.496452 218.795578 0.322458
v    21.794834 219.300100 0.322458
v    19.708714 221.904322 0.322458
v    19.324575 218.926081 -2.194069
v    18.031999 218.423526 -0.935356
v    18.804554 219.575252 -2.194069
v    18.031999 218.423526 -0.935356
v    18.272844 219.328938 0.322458
v    21.444735 218.839770 0.322458
v    20.282421 221.831292 0.322458
v    21.727156 220.671062 0.466406
v    18.555265 221.160230 0.466406
v    19.717579 218.168708 0.466406
v    20.839042 220.946938 -2.050120
v    22.764894 221.074261 -0.298373
v    21.258270 219.867943 -2.050120
v    22.764894 221.074261 -0.298373
v    21.731622 220.409625 0.466406
v    18.779443 221.294816 0.466406
v    19.488935 218.295559 0.466406
v    18.268378 219.590375 0.678771
v    21.220557 218.705184 0.678771
v    20.511065 221.704441 0.678771
v    19.165717 218.959081 -1.837756
v    16.435418 219.156778 0.646792
v    18.787767 220.556804 -1.837756
v    16.435418 219.156778 0.646792
v    18.876148 218.716648 0.678771
v    21.673341 219.668392 0.678771
v    19.450510 221.614960 0.678771
v    21.123852 221.283352 0.903326
v    18.326659 220.331608 0.903326
v    20.549490 218.385040 0.903326
v    19.698981 221.563562 -1.613200
v    23.277762 223.742951 2.189848
v    21.589610 219.907909 -1.613200
v    23.277762 223.742951 2.189848
v    21.375838 220.878433 0.903326
v    18.551335 220.752294 0.903326
v    20.072827 218.369272 0.903326
v    18.624162 219.121567 1.432322
v    21.448665 219.247706 1.432322
v    19.927173 221.630728 1.432322
v    20.183116 218.032517 -1.084205
v    14.527096 216.505707 4.233033
v    18.292260 220.994054 -1.084205
v    14.527096 216.505707 4.233033
v    18.735263 219.088754 1.432322
v    21.421531 219.360328 1.432322
v    19.843206 221.550918 1.432322
v    21.264737 220.911246 2.225063
v    18.578469 220.639672 2.225063
v    20.156794 218.449082 2.225063
v    19.387217 222.271891 -0.291463
v    21.462319 223.338840 1.903730
v    26.833200 225.117416 7.038753
v    27.399909 225.331652 7.407249
v    21.961086 218.699565 -0.291463
v    23.630040 220.330216 1.903730
v    27.017299 224.861902 7.038753
v    27.399909 225.331652 7.407249
v    21.244614 220.810576 2.225063
v    18.675713 220.672580 2.225063
v    20.079672 218.516844 2.225063
v    18.755386 219.189424 3.118961
v    21.324287 219.327420 3.118961
v    19.920328 221.483156 3.118961
v    20.651359 217.612039 0.602435
v    17.581160 216.212043 3.776999
v    13.171700 214.978876 7.932651
v    11.411513 214.406604 9.058410
v    18.079334 221.561304 0.602435
v    15.557462 219.319370 3.776999
v    12.646644 215.785083 7.932651
v    11.411513 214.406604 9.058410
v    18.765415 219.315252 3.118961
v    21.210302 219.273192 3.118961
v    20.024283 221.411556 3.118961
v    21.234585 220.684748 4.387400
v    18.789698 220.726808 4.387400
v    19.975717 218.588444 4.387400
v    19.282563 222.703437 1.870874
v    24.698002 224.725889 7.309787
v    26.739520 225.143614 9.201090
v    31.329469 226.283760 12.077673
v    21.913490 217.959939 1.870874
v    26.496596 221.483067 7.309787
v    27.931926 222.993735 9.201090
v    31.329469 226.283760 12.077673
v    21.293262 220.344016 4.387400
v    19.055443 220.947990 4.387400
v    19.651295 218.707994 4.387400
v    18.706738 219.655984 6.196283
v    20.944557 219.052010 6.196283
v    20.348705 221.292006 6.196283
v    20.163664 217.010559 3.679756
v    18.195955 216.722741 5.559316
v    12.526518 216.093425 10.925872
v    5.407135 216.118208 15.283908
v    18.656714 222.675654 3.679756
v    16.806066 221.947766 5.559316
v    11.573261 219.677018 10.925872
v    5.407135 216.118208 15.283908
v    18.926587 219.554415 6.196283
v    20.922594 219.293190 6.196283
v    20.150819 221.152395 6.196283
v    21.073413 220.445585 8.792398
v    19.077406 220.706810 8.792398
v    19.849181 218.847605 8.792398
v    19.232076 222.982738 6.275872
v    22.136358 223.813851 9.131024
v    26.752097 224.963123 13.606088
v    27.816924 225.252393 14.295401
v    34.889986 226.180988 18.634364
v    21.570167 217.350282 6.275872
v    24.209244 218.820274 9.131024
v    28.281966 221.277673 13.606088
v    29.238616 221.827539 14.295401
v    34.889986 226.180988 18.634364
v    20.701565 220.577264 8.792398
v    19.149293 220.318941 8.792398
v    20.149143 219.103795 8.792398
v    19.298435 219.422736 12.654442
v    20.850707 219.681059 12.654442
v    19.850857 220.896205 12.654442
v    21.935384 217.363610 10.137915
v    17.811649 214.698505 14.778566
v    15.358250 213.230977 17.468131
v    12.551504 211.470127 19.538015
v    7.126261 209.010970 23.160977
v    5.926213 208.419760 23.490805
v    17.785673 222.406869 10.137915
v    14.376311 218.873566 14.778566
v    12.463780 216.748707 17.468131
v    10.195372 214.333600 19.538015
v    6.737460 209.483491 23.160977
v    5.926213 208.419760 23.490805
v    19.531671 219.509998 12.654442
v    20.658519 219.839416 12.654442
v    19.809810 220.650586 12.654442
v    20.468329 220.490002 18.204685
v    19.341481 220.160584 18.204685
v    20.190190 219.349414 18.204685
v    17.300315 222.510975 15.688158
v    23.265679 227.467239 23.018374
v    29.167036 232.274728 27.775749
v    30.482174 233.072179 28.711220
v    35.810832 236.542525 30.279051
v    22.630456 217.416592 15.688158
v    27.311969 223.599920 23.018374
v    31.847753 229.712582 27.775749
v    32.584934 231.062426 28.711220
v    35.810832 236.542525 30.279051
v    20.329225 220.335537 18.204685
v    19.544804 220.117348 18.204685
v    20.125972 219.547114 18.204685
v    19.670775 219.664463 22.849040
v    20.455196 219.882652 22.849040
v    19.874028 220.452886 22.849040
v    22.639941 217.770946 20.332514
v    17.600356 213.694385 26.458904
v    16.578197 212.924636 27.662730
v    12.529135 209.738524 30.881407
v    9.023447 207.675198 33.355576
v    6.079155 205.812229 34.214600
v    17.721214 222.597133 20.332514
v    13.741093 217.481041 26.458904
v    12.990895 216.444447 27.662730
v    9.882252 212.335609 30.881407
v    7.885873 208.791369 33.355576
v    6.079155 205.812229 34.214600
v    19.808835 219.788190 22.849040
v    20.279016 219.940351 22.849040
v    19.912149 220.271459 22.849040
v    20.191165 220.211810 24.280000
v    19.720984 220.059649 24.280000
v    20.087851 219.728541 24.280000
v    18.452629 221.893562 19.272662
v    19.604750 222.329381 24.319186
v    21.307146 222.356129 29.665184
v    22.475479 222.742825 32.112251
v    22.041783 218.654246 19.272662
v    22.357578 219.844874 24.319186
v    22.210208 221.541090 29.665184
v    22.475479 222.742825 32.112251
mtllib usm_10_2.5D_2018-08-17_5.mtl
usemtl APPID_2913487920_1759648533344 
o vid_3 
f 3 2 1
f 4 5 6
f 1 6 5
f 1 5 3
f 3 5 4
f 4 2 3
f 2 4 6
f 6 1 2
usemtl APPID_2913485120_1759648531168 
o vid_4 
f 7 9 10
f 7 10 8
f 7 9 10
usemtl APPID_2913487920_1759648533344 
o vid_5 
f 13 12 11
f 14 15 16
f 11 16 15
f 11 15 13
f 13 15 14
f 14 12 13
f 12 14 16
f 16 11 12
usemtl APPID_2913485120_1759648531168 
o vid_6 
f 17 19 20
f 17 20 18
f 17 19 20
usemtl APPID_2913487920_1759648533344 
o vid_7 
f 23 22 21
f 24 25 26
f 21 26 25
f 21 25 23
f 23 25 24
f 24 22 23
f 22 24 26
f 26 21 22
usemtl APPID_2913485120_1759648531168 
o vid_8 
f 27 29 30
f 27 30 28
f 27 29 30
usemtl APPID_2913487920_1759648533344 
o vid_9 
f 33 32 31
f 34 35 36
f 31 36 35
f 31 35 33
f 33 35 34
f 34 32 33
f 32 34 36
f 36 31 32
usemtl APPID_2913485120_1759648531168 
o vid_10 
f 37 39 40
f 37 40 38
f 37 39 40
usemtl APPID_2913487920_1759648533344 
o vid_11 
f 43 42 41
f 44 45 46
f 41 46 45
f 41 45 43
f 43 45 44
f 44 42 43
f 42 44 46
f 46 41 42
usemtl APPID_2913485120_1759648531168 
o vid_12 
f 47 49 50
f 47 50 48
f 47 49 50
usemtl APPID_2913487920_1759648533344 
o vid_13 
f 53 52 51
f 54 55 56
f 51 56 55
f 51 55 53
f 53 55 54
f 54 52 53
f 52 54 56
f 56 51 52
usemtl APPID_2913485120_1759648531168 
o vid_14 
f 57 59 60
f 57 60 58
f 57 59 60
usemtl APPID_2913487920_1759648533344 
o vid_15 
f 63 62 61
f 64 65 66
f 61 66 65
f 61 65 63
f 63 65 64
f 64 62 63
f 62 64 66
f 66 61 62
usemtl APPID_2913485120_1759648531168 
o vid_16 
f 67 71 72
f 68 72 73
f 67 72 68
f 68 73 69
f 69 73 74
usemtl APPID_2913487920_1759648533344 
o vid_17 
f 77 76 75
f 78 79 80
f 75 80 79
f 75 79 77
f 77 79 78
f 78 76 77
f 76 78 80
f 80 75 76
usemtl APPID_2913485120_1759648531168 
o vid_18 
f 81 85 86
f 82 86 87
f 81 86 82
f 82 87 83
f 83 87 88
usemtl APPID_2913487920_1759648533344 
o vid_19 
f 91 90 89
f 92 93 94
f 89 94 93
f 89 93 91
f 91 93 92
f 92 90 91
f 90 92 94
f 94 89 90
usemtl APPID_2913485120_1759648531168 
o vid_20 
f 95 99 100
f 96 100 101
f 95 100 96
f 96 101 97
f 97 101 102
usemtl APPID_2913487920_1759648533344 
o vid_21 
f 105 104 103
f 106 107 108
f 103 108 107
f 103 107 105
f 105 107 106
f 106 104 105
f 104 106 108
f 108 103 104
usemtl APPID_2913485120_1759648531168 
o vid_22 
f 109 113 114
f 110 114 115
f 109 114 110
f 110 115 111
f 111 115 116
usemtl APPID_2913487920_1759648533344 
o vid_23 
f 119 118 117
f 120 121 122
f 117 122 121
f 117 121 119
f 119 121 120
f 120 118 119
f 118 120 122
f 122 117 118
usemtl APPID_2913485120_1759648531168 
o vid_24 
f 123 128 129
f 124 129 130
f 125 130 131
f 123 129 124
f 124 130 125
f 125 131 126
f 126 131 132
usemtl APPID_2913487920_1759648533344 
o vid_25 
f 135 134 133
f 136 137 138
f 133 138 137
f 133 137 135
f 135 137 136
f 136 134 135
f 134 136 138
f 138 133 134
usemtl APPID_2913485120_1759648531168 
o vid_26 
f 139 145 146
f 140 146 147
f 141 147 148
f 142 148 149
f 139 146 140
f 140 147 141
f 141 148 142
f 142 149 143
f 143 149 150
usemtl APPID_2913487920_1759648533344 
o vid_27 
f 153 152 151
f 154 155 156
f 151 156 155
f 151 155 153
f 153 155 154
f 154 152 153
f 152 154 156
f 156 151 152
usemtl APPID_2913485120_1759648531168 
o vid_28 
f 157 162 163
f 158 163 164
f 159 164 165
f 157 163 158
f 158 164 159
f 159 165 160
f 160 165 166
usemtl APPID_2913487920_1759648533344 
o vid_29 
f 169 168 167
f 170 171 172
f 167 172 171
f 167 171 169
f 169 171 170
f 170 168 169
f 168 170 172
f 172 167 168
usemtl APPID_2913485120_1759648531168 
o vid_30 
f 173 179 180
f 174 180 181
f 175 181 182
f 176 182 183
f 173 180 174
f 174 181 175
f 175 182 176
f 176 183 177
f 177 183 184
usemtl APPID_2913487920_1759648533344 
o vid_31 
f 187 186 185
f 188 189 190
f 185 190 189
f 185 189 187
f 187 189 188
f 188 186 187
f 186 188 190
f 190 185 186
usemtl APPID_2913485120_1759648531168 
o vid_32 
f 191 195 196
f 192 196 197
f 191 196 192
f 192 197 193
f 193 197 198
