# File generated by PlantGL - Fri Sep  4 14:42:27 2026
v    37.752484 58.905161 0.000000
v    42.071916 58.601013 0.000000
v    40.175600 62.493825 0.000000
v    42.247516 61.094839 0.848018
v    37.928084 61.398987 0.848018
v    39.824400 57.506175 0.848018
v    42.061684 61.449770 0.686205
v    42.365692 61.565676 0.988541
v    42.456303 61.598529 1.077961
v    42.412442 60.729723 0.686205
v    42.691107 60.897656 0.988541
v    42.772830 60.948753 1.077961
v    41.879284 61.505407 0.848018
v    37.756638 60.874804 0.848018
v    40.364078 57.619789 0.848018
v    38.120716 58.494593 1.416666
v    42.243362 59.125196 1.416666
v    39.635922 62.380211 1.416666
v    38.495819 58.052731 1.186976
v    38.165119 57.833063 1.555896
v    37.771376 58.957094 1.186976
v    37.484826 58.682311 1.555896
v    37.841416 59.161313 1.416666
v    41.805616 58.549955 1.416666
v    40.352968 62.288732 1.416666
v    42.158584 60.838687 2.253758
v    38.194384 61.450045 2.253758
v    39.647032 57.711268 2.253758
v    41.869338 61.519729 1.934179
v    41.931872 61.537814 1.994670
v    42.274952 61.630963 2.324490
v    42.405019 60.141012 1.934179
v    42.463360 60.169891 1.994670
v    42.779332 60.332808 2.324490
v    42.163962 60.511898 2.253758
v    38.474702 61.618097 2.253758
v    39.361335 57.870005 2.253758
v    37.836038 59.488102 4.113040
v    41.525298 58.381903 4.113040
v    40.638665 62.129995 4.113040
v    38.107412 58.476958 3.677205
v    37.598202 58.403520 4.155284
v    37.080938 58.337569 4.639067
v    37.625617 60.513666 3.677205
v    37.137474 60.351174 4.155284
v    36.645484 60.178380 4.639067
v    38.595695 58.396392 4.113040
v    42.090917 59.585640 4.113040
v    39.313387 62.017967 4.113040
v    41.404305 61.603608 6.001020
v    37.909083 60.414360 6.001020
v    40.686613 57.982033 6.001020
v    40.272370 62.539214 5.418419
v    41.331478 63.550910 6.779458
v    41.627852 63.824854 7.153891
v    43.526563 65.623697 8.914455
v    44.400622 66.471971 9.304867
v    42.481079 60.605012 5.418419
v    43.344192 61.788345 6.779458
v    43.576637 62.118271 7.153891
v    45.109239 64.237723 8.914455
v    45.834774 65.216061 9.304867
v    41.718982 61.097521 6.001020
v    38.190028 60.939922 6.001020
v    40.090990 57.962557 6.001020
v    38.281018 58.902479 11.510985
v    41.809972 59.060078 11.510985
v    39.909010 62.037443 11.510985
v    39.303579 57.402832 10.747626
v    38.689476 57.083768 11.390708
v    37.116540 56.299048 13.021543
v    34.069026 54.731556 15.328337
v    31.870214 53.566927 16.125887
v    37.350922 60.461162 10.747626
v    36.803062 60.038346 11.390708
v    35.429295 58.941680 13.021543
v    32.724918 56.836753 15.328337
v    30.743140 55.332196 16.125887
v    38.420020 58.861621 11.510985
v    41.775855 59.200887 11.510985
v    39.804125 61.937492 11.510985
v    41.579980 61.138379 19.659504
v    38.224145 60.799113 19.659504
v    40.195875 58.062508 19.659504
v    40.020475 63.182338 18.679129
v    42.723579 64.785436 21.599502
v    46.514102 67.020885 24.562100
v    52.258166 70.489248 26.712871
v    54.455316 71.699648 27.513698
v    54.520884 71.736262 27.512844
v    43.025172 59.012058 18.679129
v    45.401496 61.068700 21.599502
v    48.721875 63.956672 24.562100
v    53.830157 68.307449 26.712871
v    55.673819 70.008464 27.513698
v    55.729304 70.059070 27.512844
v    41.554633 61.012481 19.659504
v    38.345849 60.840111 19.659504
v    40.099518 58.147408 19.659504
v    38.445367 58.987519 30.877941
v    41.654151 59.159889 30.877941
v    39.900482 61.852592 30.877941
v    40.262405 56.360012 29.643805
v    36.768408 54.504378 33.320089
v    31.865332 51.924540 37.049527
v    24.975378 48.195065 39.560766
v    21.589094 46.532316 40.765119
v    20.607274 46.043201 40.752631
v    36.776951 61.711819 29.643805
v    33.666988 59.266514 33.320089
v    29.324905 55.825287 37.049527
v    23.127969 51.031706 39.560766
v    20.237971 48.606923 40.765119
v    19.393628 47.906718 40.752631
v    38.458123 59.144816 30.877941
v    41.511550 59.092287 30.877941
v    40.030327 61.762897 30.877941
v    41.541877 60.855184 48.423413
v    38.488450 60.907713 48.423413
v    39.969673 58.237103 48.423413
v    39.418065 64.458767 46.900621
v    43.880590 66.437404 51.436764
v    46.785963 67.761969 53.588776
v    50.118967 69.223421 56.038493
v    62.138809 74.667238 60.267974
v    68.575046 77.315880 60.556566
v    69.018572 77.433239 60.551469
v    43.474309 57.145455 46.900621
v    47.515687 59.883410 51.436764
v    50.177707 61.646736 53.588776
v    53.182277 63.700347 56.038493
v    64.164756 71.014503 60.267974
v    69.819574 75.072026 60.556566
v    70.153975 75.386135 60.551469
v    41.614895 60.429572 48.423413
v    38.820532 61.183754 48.423413
v    39.564573 58.386674 48.423413
v    38.385105 59.570428 69.825309
v    41.179468 58.816246 69.825309
v    40.435427 61.613326 69.825309
v    39.838071 54.623087 67.983582
v    34.020215 53.618834 73.469777
v    29.002444 52.698809 76.907951
v    25.885905 52.174031 79.035294
v    8.863003 49.096544 84.580149
v    0.380108 47.855268 84.482541
v    -2.002310 47.826047 84.456069
v    37.187926 64.585810 67.983582
v    31.640027 62.566702 73.469777
v    26.828318 60.872025 76.907951
v    23.862943 59.778977 79.035294
v    7.560834 53.991804 84.580149
v    -0.417641 50.854255 84.482541
v    -2.499701 49.695898 84.456069
v    38.541706 59.394647 69.825309
v    41.253398 59.039757 69.825309
v    40.204896 61.565597 69.825309
v    41.458294 60.605353 89.719947
v    38.746602 60.960243 89.719947
v    39.795104 58.434403 89.719947
v    39.081162 65.922653 87.536631
v    45.758284 68.020437 94.040363
v    48.019857 68.756913 95.643365
v    55.108080 70.951877 100.638130
v    70.705609 75.988329 105.891832
v    74.686322 77.101350 107.211402
v    80.185565 78.673056 107.146288
v    84.593904 79.320130 107.096784
v    43.545631 55.167756 87.536631
v    49.745464 58.415330 94.040363
v    51.863751 59.496979 95.643365
v    58.422652 62.967078 100.638130
v    73.001635 70.457209 105.891832
v    76.600341 72.490484 107.211402
v    81.596000 75.275320 107.146288
v    85.166642 77.940405 107.096784
v    41.148136 60.944713 89.719947
v    38.607786 60.521958 89.719947
v    40.244078 58.533328 89.719947
v    38.851864 59.055287 113.671638
v    41.392214 59.478042 113.671638
v    39.755922 61.466672 113.671638
v    43.421872 53.788140 111.134670
v    36.707236 49.199838 118.691871
v    32.297321 46.118604 122.317608
v    27.327110 42.752210 126.358337
v    9.218987 30.166831 133.426773
v    -0.530004 23.883060 133.884606
v    -6.724906 20.960697 133.808503
v    34.563396 64.554092 111.134670
v    28.767884 58.848753 118.691871
v    24.895071 55.114764 122.317608
v    20.634533 50.885884 126.358337
v    4.797494 35.540394 133.426773
v    -3.246102 27.184010 133.884606
v    -7.306769 21.667852 133.808503
v    39.112557 59.071488 113.671638
v    41.247837 59.695708 113.671638
v    39.639606 61.232804 113.671638
v    40.887443 60.928512 134.136405
v    38.752163 60.304292 134.136405
v    40.360394 58.767196 134.136405
v    35.149871 66.125094 131.246922
v    42.119932 72.225443 139.854206
v    44.777815 74.600985 142.256730
v    51.878740 80.764496 148.585939
v    68.446167 95.498077 155.692516
v    72.302878 98.662960 157.285256
v    78.515175 103.820850 157.193331
v    86.301798 108.705804 157.091201
v    46.338097 55.431734 131.246922
v    52.117106 62.670455 139.854206
v    54.370060 65.433015 142.256730
v    60.206250 72.805321 148.585939
v    74.175783 90.021888 155.692516
v    77.163075 94.017734 157.285256
v    82.034845 100.456858 157.193331
v    86.562785 108.456360 157.091201
v    40.697592 60.710968 134.136405
v    39.035488 60.248648 134.136405
v    40.266920 59.040384 134.136405
v    39.302408 59.289032 147.008689
v    40.964512 59.751352 147.008689
v    39.733080 60.959616 147.008689
v    45.122106 53.903560 143.782928
v    40.678584 50.116254 149.208394
v    37.199173 47.247939 153.391929
v    26.139121 37.899460 163.139862
v    15.314659 28.524493 167.729859
v    4.253664 19.687847 172.249560
v    -5.145780 13.988569 172.750994
v    33.807387 65.005407 143.782928
v    30.105150 60.490762 149.208394
v    27.303428 56.957507 153.391929
v    18.166674 45.721915 163.139862
v    8.998962 34.721367 167.729859
v    0.373967 23.494552 172.249560
v    -5.145780 13.988569 172.750994
v    39.506561 59.453270 147.008689
v    40.720201 59.846034 147.008689
v    39.773238 60.700696 147.008689
v    40.493439 60.546730 158.324356
v    39.279799 60.153966 158.324356
v    40.226762 59.299304 158.324356
v    33.736057 66.303794 154.794548
v    40.077113 72.181928 162.829281
v    53.732671 84.691908 175.975991
v    67.277790 97.449173 181.940132
v    78.299564 107.033689 186.603126
v    89.083140 114.384009 186.457789
v    46.910942 54.413079 154.794548
v    52.110266 61.321660 162.829281
v    63.159196 76.184198 175.975991
v    74.465402 90.962145 181.940132
v    82.873349 102.905716 186.603126
v    89.083140 114.384009 186.457789
v    40.496367 60.096629 158.324356
v    39.668133 60.381552 158.324356
v    39.835500 59.521819 158.324356
v    39.503633 59.903371 163.822143
v    40.331867 59.618448 163.822143
v    40.164500 60.478181 163.822143
v    41.320137 51.996009 160.036174
v    29.210027 50.942228 171.313940
v    12.296765 49.260572 182.754767
v    -4.957106 47.998543 188.278767
v    -17.352081 48.835100 192.140022
v    38.221198 67.914701 160.036174
v    26.600155 64.348669 171.313940
v    10.291189 59.562855 182.754767
v    -6.176098 54.260286 188.278767
v    -17.352081 48.835100 192.140022
v    39.765746 59.806748 163.822143
v    40.284488 59.893756 163.822143
v    39.949766 60.299495 163.822143
v    40.234254 60.193252 164.910000
v    39.715512 60.106244 164.910000
v    40.050234 59.700505 164.910000
v    37.958686 65.631751 157.471742
v    38.487633 65.828990 159.794216
v    42.181028 66.628668 174.411108
v    43.343361 67.105308 177.397457
v    49.290716 67.664545 189.700948
v    45.141092 56.925467 157.471742
v    45.435273 57.407282 159.794216
v    46.922380 60.881353 174.411108
v    47.611256 61.931901 177.397457
v    49.290716 67.664545 189.700948
v    42.456303 61.598529 1.077961
v    43.227599 61.887687 1.657200
v    43.936109 62.164261 1.900991
v    44.607391 62.396051 2.127711
v    45.149327 62.508406 2.138813
v    42.772830 60.948753 1.077961
v    43.475963 61.377838 1.657200
v    44.130485 61.765241 1.900991
v    44.726794 62.150936 2.127711
v    45.149327 62.508406 2.138813
v    38.165119 57.833063 1.555896
v    38.008885 57.729284 1.730188
v    37.019654 57.080271 2.565284
v    35.992796 56.386393 2.962526
v    35.209143 55.901001 3.256808
v    34.414294 55.525552 3.247008
v    37.484826 58.682311 1.555896
v    37.349450 58.552494 1.730188
v    36.500174 57.728766 2.565284
v    35.598904 56.878111 2.962526
v    34.954175 56.219292 3.256808
v    34.414294 55.525552 3.247008
v    42.274952 61.630963 2.324490
v    42.859195 61.789588 2.886152
v    44.239051 62.182518 3.851888
v    44.958617 62.396817 4.092544
v    46.317683 62.743498 4.540315
v    47.192949 62.840988 4.814039
v    47.367518 62.862545 4.812085
v    42.779332 60.332808 2.324490
v    43.317411 60.610245 2.886152
v    44.600591 61.252000 3.851888
v    45.276084 61.579732 4.092544
v    46.512701 62.241567 4.540315
v    47.224188 62.760587 4.814039
v    47.367518 62.862545 4.812085
v    37.080938 58.337569 4.639067
v    36.721241 58.291707 4.975483
v    34.783518 58.020379 6.292531
v    33.223718 57.782797 6.798265
v    31.322774 57.570032 7.408925
v    30.693155 57.587270 7.604690
v    29.855263 57.600204 7.595380
v    36.645484 60.178380 4.639067
v    36.303362 60.058222 4.975483
v    34.449445 59.432617 6.292531
v    32.948517 58.946165 6.798265
v    31.153720 58.284682 7.408925
v    30.598555 57.987176 7.604690
v    29.855263 57.600204 7.595380
v    44.400622 66.471971 9.304867
v    45.765486 67.796572 9.914506
v    47.524230 69.372841 10.668483
v    49.323855 70.647123 10.643909
v    45.834774 65.216061 9.304867
v    46.967714 66.743761 9.914506
v    48.298155 68.695103 10.668483
v    49.323855 70.647123 10.643909
v    31.870214 53.566927 16.125887
v    28.846802 52.115973 17.196501
v    27.528465 51.695751 17.626567
v    26.414245 51.325883 17.613523
v    30.743140 55.332196 16.125887
v    28.154623 53.200093 17.196501
v    27.218647 52.181001 17.626567
v    26.414245 51.325883 17.613523
v    54.520884 71.736262 27.512844
v    56.099646 72.617848 27.492257
v    59.232108 73.856779 27.454830
v    55.729304 70.059070 27.512844
v    57.065311 71.277581 27.492257
v    59.232108 73.856779 27.454830
v    20.607274 46.043201 40.752631
v    20.044553 45.762870 40.745474
v    16.032240 44.390596 40.698359
v    19.393628 47.906718 40.752631
v    18.909700 47.505402 40.745474
v    16.032240 44.390596 40.698359
v    69.018572 77.433239 60.551469
v    72.630853 78.389067 60.509953
v    73.618993 78.646389 60.329077
v    70.153975 75.386135 60.551469
v    72.877491 77.944385 60.509953
v    73.618993 78.646389 60.329077
v    -2.002310 47.826047 84.456069
v    -3.155165 47.811907 84.443259
v    -5.905068 47.788969 83.956126
v    -2.499701 49.695898 84.456069
v    -3.507213 49.135367 84.443259
v    -5.905068 47.788969 83.956126
v    84.593904 79.320130 107.096784
v    87.607911 79.762538 107.062937
v    85.166642 77.940405 107.096784
v    87.607911 79.762538 107.062937
v    -6.724906 20.960697 133.808503
v    -8.391913 20.182007 133.493431
v    -7.306769 21.667852 133.808503
v    -8.391913 20.182007 133.493431
v    86.301798 108.705804 157.091201
v    86.925428 109.097040 157.083021
v    86.562785 108.456360 157.091201
v    86.925428 109.097040 157.083021
mtllib usm_1_2.5D_2018-08-17_1.mtl
usemtl APPID_1439664848_2556943048544 
o vid_3 
f 3 2 1
f 4 5 6
f 1 6 5
f 1 5 3
f 3 5 4
f 4 2 3
f 2 4 6
f 6 1 2
usemtl APPID_1439670448_2556943045088 
o vid_4 
f 7 10 11
f 7 11 8
f 8 11 12
f 8 12 9
usemtl APPID_1439664848_2556943048544 
o vid_5 
f 15 14 13
f 16 17 18
f 13 18 17
f 13 17 15
f 15 17 16
f 16 14 15
f 14 16 18
f 18 13 14
usemtl APPID_1439670448_2556943045088 
o vid_6 
f 19 21 22
f 19 22 20
f 19 21 22
f 19 22 20
usemtl APPID_1439664848_2556943048544 
o vid_7 
f 25 24 23
f 26 27 28
f 23 28 27
f 23 27 25
f 25 27 26
f 26 24 25
f 24 26 28
f 28 23 24
usemtl APPID_1439670448_2556943045088 
o vid_8 
f 29 32 33
f 29 33 30
f 30 33 34
f 30 34 31
usemtl APPID_1439664848_2556943048544 
o vid_9 
f 37 36 35
f 38 39 40
f 35 40 39
f 35 39 37
f 37 39 38
f 38 36 37
f 36 38 40
f 40 35 36
usemtl APPID_1439670448_2556943045088 
o vid_10 
f 41 44 45
f 41 45 42
f 42 45 46
f 42 46 43
usemtl APPID_1439664848_2556943048544 
o vid_11 
f 49 48 47
f 50 51 52
f 47 52 51
f 47 51 49
f 49 51 50
f 50 48 49
f 48 50 52
f 52 47 48
usemtl APPID_1439670448_2556943045088 
o vid_12 
f 53 58 59
f 54 59 60
f 55 60 61
f 53 59 54
f 54 60 55
f 55 61 56
f 56 61 62
f 56 62 57
usemtl APPID_1439664848_2556943048544 
o vid_13 
f 65 64 63
f 66 67 68
f 63 68 67
f 63 67 65
f 65 67 66
f 66 64 65
f 64 66 68
f 68 63 64
usemtl APPID_1439670448_2556943045088 
o vid_14 
f 69 74 75
f 70 75 76
f 71 76 77
f 69 75 70
f 70 76 71
f 71 77 72
f 72 77 78
f 72 78 73
usemtl APPID_1439664848_2556943048544 
o vid_15 
f 81 80 79
f 82 83 84
f 79 84 83
f 79 83 81
f 81 83 82
f 82 80 81
f 80 82 84
f 84 79 80
usemtl APPID_1439670448_2556943045088 
o vid_16 
f 85 91 92
f 86 92 93
f 87 93 94
f 88 94 95
f 85 92 86
f 86 93 87
f 87 94 88
f 88 95 89
f 89 95 96
f 89 96 90
usemtl APPID_1439664848_2556943048544 
o vid_17 
f 99 98 97
f 100 101 102
f 97 102 101
f 97 101 99
f 99 101 100
f 100 98 99
f 98 100 102
f 102 97 98
usemtl APPID_1439670448_2556943045088 
o vid_18 
f 103 109 110
f 104 110 111
f 105 111 112
f 106 112 113
f 103 110 104
f 104 111 105
f 105 112 106
f 106 113 107
f 107 113 114
f 107 114 108
usemtl APPID_1439664848_2556943048544 
o vid_19 
f 117 116 115
f 118 119 120
f 115 120 119
f 115 119 117
f 117 119 118
f 118 116 117
f 116 118 120
f 120 115 116
usemtl APPID_1439670448_2556943045088 
o vid_20 
f 121 128 129
f 122 129 130
f 123 130 131
f 124 131 132
f 125 132 133
f 121 129 122
f 122 130 123
f 123 131 124
f 124 132 125
f 125 133 126
f 126 133 134
f 126 134 127
usemtl APPID_1439664848_2556943048544 
o vid_21 
f 137 136 135
f 138 139 140
f 135 140 139
f 135 139 137
f 137 139 138
f 138 136 137
f 136 138 140
f 140 135 136
usemtl APPID_1439670448_2556943045088 
o vid_22 
f 141 148 149
f 142 149 150
f 143 150 151
f 144 151 152
f 145 152 153
f 141 149 142
f 142 150 143
f 143 151 144
f 144 152 145
f 145 153 146
f 146 153 154
f 146 154 147
usemtl APPID_1439664848_2556943048544 
o vid_23 
f 157 156 155
f 158 159 160
f 155 160 159
f 155 159 157
f 157 159 158
f 158 156 157
f 156 158 160
f 160 155 156
usemtl APPID_1439670448_2556943045088 
o vid_24 
f 161 169 170
f 162 170 171
f 163 171 172
f 164 172 173
f 165 173 174
f 166 174 175
f 161 170 162
f 162 171 163
f 163 172 164
f 164 173 165
f 165 174 166
f 166 175 167
f 167 175 176
f 167 176 168
usemtl APPID_1439664848_2556943048544 
o vid_25 
f 179 178 177
f 180 181 182
f 177 182 181
f 177 181 179
f 179 181 180
f 180 178 179
f 178 180 182
f 182 177 178
usemtl APPID_1439670448_2556943045088 
o vid_26 
f 183 190 191
f 184 191 192
f 185 192 193
f 186 193 194
f 187 194 195
f 183 191 184
f 184 192 185
f 185 193 186
f 186 194 187
f 187 195 188
f 188 195 196
f 188 196 189
usemtl APPID_1439664848_2556943048544 
o vid_27 
f 199 198 197
f 200 201 202
f 197 202 201
f 197 201 199
f 199 201 200
f 200 198 199
f 198 200 202
f 202 197 198
usemtl APPID_1439670448_2556943045088 
o vid_28 
f 203 211 212
f 204 212 213
f 205 213 214
f 206 214 215
f 207 215 216
f 208 216 217
f 203 212 204
f 204 213 205
f 205 214 206
f 206 215 207
f 207 216 208
f 208 217 209
f 209 217 218
f 209 218 210
usemtl APPID_1439664848_2556943048544 
o vid_29 
f 221 220 219
f 222 223 224
f 219 224 223
f 219 223 221
f 221 223 222
f 222 220 221
f 220 222 224
f 224 219 220
usemtl APPID_1439670448_2556943045088 
o vid_30 
f 225 232 233
f 226 233 234
f 227 234 235
f 228 235 236
f 229 236 237
f 225 233 226
f 226 234 227
f 227 235 228
f 228 236 229
f 229 237 230
f 230 237 238
usemtl APPID_1439664848_2556943048544 
o vid_31 
f 241 240 239
f 242 243 244
f 239 244 243
f 239 243 241
f 241 243 242
f 242 240 241
f 240 242 244
f 244 239 240
usemtl APPID_1439670448_2556943045088 
o vid_32 
f 245 251 252
f 246 252 253
f 247 253 254
f 248 254 255
f 245 252 246
f 246 253 247
f 247 254 248
f 248 255 249
f 249 255 256
usemtl APPID_1439664848_2556943048544 
o vid_33 
f 259 258 257
f 260 261 262
f 257 262 261
f 257 261 259
f 259 261 260
f 260 258 259
f 258 260 262
f 262 257 258
usemtl APPID_1439670448_2556943045088 
o vid_34 
f 263 268 269
f 264 269 270
f 265 270 271
f 263 269 264
f 264 270 265
f 265 271 266
f 266 271 272
usemtl APPID_1439664848_2556943048544 
o vid_35 
f 275 274 273
f 276 277 278
f 273 278 277
f 273 277 275
f 275 277 276
f 276 274 275
f 274 276 278
f 278 273 274
usemtl APPID_1439670448_2556943045088 
o vid_36 
f 279 284 285
f 280 285 286
f 281 286 287
f 279 285 280
f 280 286 281
f 281 287 282
f 282 287 288
usemtl APPID_1439676160_2556943046240 
o vid_10000004 
f 289 294 295
f 290 295 296
f 291 296 297
f 289 295 290
f 290 296 291
f 291 297 292
f 292 297 298
usemtl APPID_1439676160_2556943046240 
o vid_10000006 
f 299 305 306
f 300 306 307
f 301 307 308
f 302 308 309
f 299 306 300
f 300 307 301
f 301 308 302
f 302 309 303
f 303 309 310
usemtl APPID_1439676160_2556943046240 
o vid_10000008 
f 311 318 319
f 312 319 320
f 313 320 321
f 314 321 322
f 315 322 323
f 311 319 312
f 312 320 313
f 313 321 314
f 314 322 315
f 315 323 316
f 316 323 324
usemtl APPID_1439676160_2556943046240 
o vid_10000010 
f 325 332 333
f 326 333 334
f 327 334 335
f 328 335 336
f 329 336 337
f 325 333 326
f 326 334 327
f 327 335 328
f 328 336 329
f 329 337 330
f 330 337 338
usemtl APPID_1439676160_2556943046240 
o vid_10000012 
f 339 343 344
f 340 344 345
f 339 344 340
f 340 345 341
f 341 345 346
usemtl APPID_1439676160_2556943046240 
o vid_10000014 
f 347 351 352
f 348 352 353
f 347 352 348
f 348 353 349
f 349 353 354
usemtl APPID_1439676160_2556943046240 
o vid_10000016 
f 355 358 359
f 355 359 356
f 356 359 360
usemtl APPID_1439676160_2556943046240 
o vid_10000018 
f 361 364 365
f 361 365 362
f 362 365 366
usemtl APPID_1439676160_2556943046240 
o vid_10000020 
f 367 370 371
f 367 371 368
f 368 371 372
usemtl APPID_1439676160_2556943046240 
o vid_10000022 
f 373 376 377
f 373 377 374
f 374 377 378
usemtl APPID_1439676160_2556943046240 
o vid_10000024 
f 379 381 382
f 379 382 380
f 379 381 382
usemtl APPID_1439676160_2556943046240 
o vid_10000026 
f 383 385 386
f 383 386 384
f 383 385 386
usemtl APPID_1439676160_2556943046240 
o vid_10000028 
f 387 389 390
f 387 390 388
f 387 389 390
