# File generated by PlantGL - Fri Sep  4 14:43:22 2026
v    18.201987 59.124129 0.000000
v    21.657533 58.880811 0.000000
v    20.140480 61.995060 0.000000
v    21.798013 60.875871 0.331061
v    18.342467 61.119189 0.331061
v    19.859520 58.004940 0.331061
v    21.389650 61.448576 -0.071053
v    22.393980 61.830073 0.946918
v    23.907728 62.388286 2.009892
v    25.092505 62.810274 2.326451
v    26.187809 63.058142 2.603326
v    26.357326 63.096862 2.567383
v    21.997244 60.201291 -0.071053
v    22.916734 60.756949 0.946918
v    24.289390 61.604799 2.009892
v    25.351996 62.277584 2.326451
v    26.222343 62.987249 2.603326
v    26.357326 63.096862 2.567383
v    21.503548 61.204422 0.331061
v    18.205166 60.699900 0.331061
v    20.291286 58.095678 0.331061
v    18.496452 58.795578 0.718770
v    21.794834 59.300100 0.718770
v    19.708714 61.904322 0.718770
v    19.274489 58.081324 0.163258
v    17.850834 57.138178 1.781371
v    17.151575 56.661814 2.312715
v    16.181792 56.030566 3.038041
v    15.076303 55.291244 3.373619
v    13.658793 54.395944 3.795569
v    12.032609 53.617695 3.537425
v    17.969232 59.710749 0.163258
v    16.738098 58.527269 1.781371
v    16.120600 57.948839 2.312715
v    15.292906 57.140213 3.038041
v    14.330125 56.222741 3.373619
v    13.147025 55.034813 3.795569
v    12.032609 53.617695 3.537425
v    18.376538 59.369227 0.718770
v    21.357997 58.909427 0.718770
v    20.265465 61.721346 0.718770
v    21.623462 60.630773 1.487000
v    18.642003 61.090573 1.487000
v    19.734535 58.278654 1.487000
v    20.898276 61.898792 0.737723
v    23.111763 62.536014 2.920240
v    24.657497 63.002716 3.934230
v    25.703927 63.294828 4.615243
v    27.946479 63.951018 5.204829
v    29.929335 64.475387 5.721018
v    32.544600 64.874027 5.172998
v    21.944611 59.205772 0.737723
v    24.007676 60.230143 2.920240
v    25.463028 60.929470 3.934230
v    26.432178 61.420484 4.615243
v    28.529489 62.450486 5.204829
v    30.346230 63.402397 5.721018
v    32.544600 64.874027 5.172998
v    21.357094 60.321028 1.487000
v    19.043434 61.014764 1.487000
v    19.599472 58.664208 1.487000
v    18.642906 59.678972 2.857581
v    20.956566 58.985236 2.857581
v    20.400528 61.335792 2.857581
v    19.368828 57.850092 1.870858
v    16.366033 57.420795 4.745016
v    13.696111 57.003810 6.442032
v    12.850043 56.889820 6.977166
v    9.152645 56.344760 7.920207
v    7.128402 56.100197 8.433361
v    6.187888 55.985611 8.233511
v    2.981802 55.974247 7.570778
v    18.472479 61.639257 1.870858
v    15.595598 60.677682 4.745016
v    13.021825 59.854241 6.442032
v    12.214357 59.577077 6.977166
v    8.664624 58.407787 7.920207
v    6.745349 57.719488 8.433361
v    5.853178 57.400541 8.233511
v    2.981802 55.974247 7.570778
v    19.294825 59.194745 2.857581
v    21.049959 59.791928 2.857581
v    19.655216 61.013327 2.857581
v    20.705175 60.805255 4.464214
v    18.950041 60.208072 4.464214
v    20.344784 58.986673 4.464214
v    18.419354 62.319194 3.195533
v    19.606664 63.451114 4.749900
v    21.242554 65.009934 6.890987
v    24.510082 68.205104 9.760977
v    25.869289 69.560532 10.246015
v    29.832923 73.370540 11.633282
v    33.094215 76.371398 10.698131
v    36.442463 78.776025 9.846020
v    22.507469 58.739167 3.195533
v    23.472840 60.065442 4.749900
v    24.802193 61.892701 6.890987
v    27.538313 65.553234 9.760977
v    28.702557 67.079394 10.246015
v    31.956296 71.511069 11.633282
v    34.500626 75.139782 10.698131
v    36.442463 78.776025 9.846020
v    20.648312 60.413929 4.464214
v    19.317371 60.354491 4.464214
v    20.034317 59.231580 4.464214
v    19.351688 59.586071 10.015455
v    20.682629 59.645509 10.015455
v    19.965683 60.768420 10.015455
v    21.593077 56.931561 8.422829
v    19.441542 55.816402 10.719080
v    17.246070 54.679142 13.061878
v    12.186448 51.974747 16.664690
v    9.645928 50.584634 17.396458
v    3.962963 47.609348 19.015069
v    -1.456106 44.908715 17.737224
v    -5.901714 43.338706 16.762650
v    -6.290323 43.214379 16.529634
v    17.886858 62.736393 8.422829
v    15.969852 61.253904 10.719080
v    14.014309 59.740859 13.061878
v    9.431873 56.289075 16.664690
v    7.101753 54.569424 17.396458
v    2.011270 50.666170 19.015069
v    -2.719014 46.886732 17.737224
v    -6.014009 43.514586 16.762650
v    -6.290323 43.214379 16.529634
v    19.601655 59.712991 10.015455
v    20.447729 59.798527 10.015455
v    19.950616 60.488481 10.015455
v    20.398345 60.287009 11.790000
v    19.552271 60.201473 11.790000
v    20.049384 59.511519 11.790000
v    18.571717 62.590811 7.851865
v    21.046829 63.538570 15.692763
v    21.916437 63.965308 17.383244
v    24.711586 65.167300 22.641339
v    29.266672 66.676659 26.970345
v    22.005461 57.825047 7.851865
v    23.687976 59.872868 15.692763
v    24.368042 60.562675 17.383244
v    26.393024 62.833598 22.641339
v    29.266672 66.676659 26.970345
mtllib usm_19_2.5D_2018-08-11_1.mtl
usemtl APPID_3534010000_1420965774592 
o vid_3 
f 3 2 1
f 4 5 6
f 1 6 5
f 1 5 3
f 3 5 4
f 4 2 3
f 2 4 6
f 6 1 2
usemtl APPID_3534010112_1420965765632 
o vid_4 
f 7 13 14
f 8 14 15
f 9 15 16
f 10 16 17
f 7 14 8
f 8 15 9
f 9 16 10
f 10 17 11
f 11 17 18
usemtl APPID_3534010000_1420965774592 
o vid_5 
f 21 20 19
f 22 23 24
f 19 24 23
f 19 23 21
f 21 23 22
f 22 20 21
f 20 22 24
f 24 19 20
usemtl APPID_3534010112_1420965765632 
o vid_6 
f 25 32 33
f 26 33 34
f 27 34 35
f 28 35 36
f 29 36 37
f 25 33 26
f 26 34 27
f 27 35 28
f 28 36 29
f 29 37 30
f 30 37 38
usemtl APPID_3534010000_1420965774592 
o vid_7 
f 41 40 39
f 42 43 44
f 39 44 43
f 39 43 41
f 41 43 42
f 42 40 41
f 40 42 44
f 44 39 40
usemtl APPID_3534010112_1420965765632 
o vid_8 
f 45 52 53
f 46 53 54
f 47 54 55
f 48 55 56
f 49 56 57
f 45 53 46
f 46 54 47
f 47 55 48
f 48 56 49
f 49 57 50
f 50 57 58
usemtl APPID_3534010000_1420965774592 
o vid_9 
f 61 60 59
f 62 63 64
f 59 64 63
f 59 63 61
f 61 63 62
f 62 60 61
f 60 62 64
f 64 59 60
usemtl APPID_3534010112_1420965765632 
o vid_10 
f 65 73 74
f 66 74 75
f 67 75 76
f 68 76 77
f 69 77 78
f 70 78 79
f 65 74 66
f 66 75 67
f 67 76 68
f 68 77 69
f 69 78 70
f 70 79 71
f 71 79 80
usemtl APPID_3534010000_1420965774592 
o vid_11 
f 83 82 81
f 84 85 86
f 81 86 85
f 81 85 83
f 83 85 84
f 84 82 83
f 82 84 86
f 86 81 82
usemtl APPID_3534010112_1420965765632 
o vid_12 
f 87 95 96
f 88 96 97
f 89 97 98
f 90 98 99
f 91 99 100
f 92 100 101
f 87 96 88
f 88 97 89
f 89 98 90
f 90 99 91
f 91 100 92
f 92 101 93
f 93 101 102
usemtl APPID_3534010000_1420965774592 
o vid_13 
f 105 104 103
f 106 107 108
f 103 108 107
f 103 107 105
f 105 107 106
f 106 104 105
f 104 106 108
f 108 103 104
usemtl APPID_3534010112_1420965765632 
o vid_14 
f 109 118 119
f 110 119 120
f 111 120 121
f 112 121 122
f 113 122 123
f 114 123 124
f 115 124 125
f 109 119 110
f 110 120 111
f 111 121 112
f 112 122 113
f 113 123 114
f 114 124 115
f 115 125 116
f 116 125 126
usemtl APPID_3534010000_1420965774592 
o vid_15 
f 129 128 127
f 130 131 132
f 127 132 131
f 127 131 129
f 129 131 130
f 130 128 129
f 128 130 132
f 132 127 128
usemtl APPID_3534010112_1420965765632 
o vid_16 
f 133 138 139
f 134 139 140
f 135 140 141
f 133 139 134
f 134 140 135
f 135 141 136
f 136 141 142
