# File generated by PlantGL - Fri Sep  4 14:41:36 2026
v    17.752484 28.905161 0.000000
v    22.071916 28.601013 0.000000
v    20.175600 32.493825 0.000000
v    22.247516 31.094839 0.848018
v    17.928084 31.398987 0.848018
v    19.824400 27.506175 0.848018
v    22.059916 31.453095 0.684352
v    22.358747 31.567027 0.981539
v    22.506902 31.620744 1.127747
v    22.413971 30.726281 0.684352
v    22.687890 30.891355 0.981539
v    22.821513 30.974902 1.127747
v    21.879284 31.505407 0.848018
v    17.756638 30.874804 0.848018
v    20.364078 27.619789 0.848018
v    18.120716 28.494593 1.416666
v    22.243362 29.125196 1.416666
v    19.635922 32.380211 1.416666
v    18.495813 28.052715 1.187175
v    18.139192 27.815829 1.585013
v    17.771360 28.957091 1.187175
v    17.462348 28.660770 1.585013
v    17.841416 29.161313 1.416666
v    21.805616 28.549955 1.416666
v    20.352968 32.288732 1.416666
v    22.158584 30.838687 2.253758
v    18.194384 31.450045 2.253758
v    19.647032 27.711268 2.253758
v    21.870574 31.517333 1.938126
v    22.002029 31.555351 2.065287
v    22.308263 31.638496 2.359685
v    22.404313 30.143614 1.938126
v    22.526953 30.204320 2.065287
v    22.808990 30.349741 2.359685
v    22.163962 30.511898 2.253758
v    18.474702 31.618097 2.253758
v    19.361335 27.870005 2.253758
v    17.836038 29.488102 4.112055
v    21.525298 28.381903 4.112055
v    20.638665 32.129995 4.112055
v    18.105295 28.482778 3.686252
v    17.408232 28.382248 4.340699
v    16.968041 28.326124 4.752398
v    17.626332 30.507514 3.686252
v    16.958107 30.285077 4.340699
v    16.539424 30.138030 4.752398
v    18.595695 28.396392 4.112055
v    22.090917 29.585640 4.112055
v    19.313387 32.017967 4.112055
v    21.404305 31.603608 5.805095
v    17.909083 30.414360 5.805095
v    20.686613 27.982033 5.805095
v    20.349115 32.473837 5.241654
v    20.946302 33.044290 6.009087
v    20.980116 33.075546 6.051808
v    22.406148 30.672461 5.241654
v    22.892821 31.339692 6.009087
v    22.919342 31.377335 6.051808
v    21.718982 31.097521 5.805095
v    18.190028 30.939922 5.805095
v    20.090990 27.962557 5.805095
v    18.281018 28.902479 11.500271
v    21.809972 29.060078 11.500271
v    19.909010 32.037443 11.500271
v    19.320978 27.371301 10.768967
v    18.723826 27.061044 11.394297
v    17.329641 30.490214 10.768967
v    16.796903 30.079069 11.394297
v    18.420020 28.861621 11.500271
v    21.775855 29.200887 11.500271
v    19.804125 31.937492 11.500271
v    21.579980 31.138379 18.299270
v    18.224145 30.799113 18.299270
v    20.195875 28.062508 18.299270
v    20.144139 33.016770 17.368249
v    20.447000 33.196384 17.695454
v    22.907263 29.181773 17.368249
v    23.173512 29.412203 17.695454
v    21.554633 31.012481 18.299270
v    18.345849 30.840111 18.299270
v    20.099518 28.147408 18.299270
v    18.445367 28.987519 30.832753
v    21.654151 29.159889 30.832753
v    19.900482 31.852592 30.832753
v    20.286208 26.314045 29.670150
v    17.917148 25.055856 32.162808
v    16.744534 31.752176 29.670150
v    14.635863 30.094168 32.162808
v    18.458123 29.144816 30.832753
v    21.511550 29.092287 30.832753
v    20.030327 31.762897 30.832753
v    21.541877 30.855184 44.797288
v    18.488450 30.907713 44.797288
v    19.969673 28.237103 44.797288
v    19.609864 34.127591 43.373273
v    20.464846 34.506682 44.242360
v    23.294924 27.483516 43.373273
v    24.069218 28.008085 44.242360
v    21.614895 30.429572 44.797288
v    18.820532 31.183754 44.797288
v    19.564573 28.386674 44.797288
v    18.385105 29.570428 66.080215
v    21.179468 28.816246 66.080215
v    20.435427 31.613326 66.080215
v    19.703665 25.091776 64.369376
v    18.582710 24.898282 65.426428
v    17.304154 34.112285 64.369376
v    16.235213 33.723254 65.426428
v    18.541706 29.394647 66.080215
v    21.253398 29.039757 66.080215
v    20.204896 31.565597 66.080215
v    21.458294 30.605353 86.202330
v    18.746602 30.960243 86.202330
v    19.795104 28.434403 86.202330
v    19.316215 35.387748 84.186219
v    21.128259 35.957047 85.951208
v    23.332771 25.711873 84.186219
v    25.015288 26.593203 85.951208
v    21.148136 30.944713 86.202330
v    18.607786 30.521958 86.202330
v    20.244078 28.533328 86.202330
v    18.851864 29.055287 110.017921
v    21.392214 29.478042 110.017921
v    19.755922 31.466672 110.017921
v    22.995213 24.283311 107.687517
v    21.776338 23.450419 109.059338
v    14.967133 34.040060 107.687517
v    13.915102 33.004398 109.059338
v    19.036323 28.991726 110.017921
v    21.355030 29.669568 110.017921
v    19.608648 31.338706 110.017921
v    20.963677 31.008274 131.192999
v    18.644970 30.330432 131.192999
v    20.391352 28.661294 131.192999
v    15.738700 35.739517 128.550840
v    17.324259 37.127232 130.508836
v    25.926295 26.002531 128.550840
v    27.240911 27.649204 130.508836
v    20.912312 30.929805 131.192999
v    18.738610 30.325183 131.192999
v    20.349079 28.745013 131.192999
v    19.087688 29.070195 145.756900
v    21.261390 29.674817 145.756900
v    19.650921 31.254987 145.756900
v    24.430930 24.123279 142.818589
v    23.009135 22.911455 144.554576
v    14.040193 34.318527 142.818589
v    12.855587 32.873976 144.554576
v    19.188946 29.101354 145.756900
v    21.183778 29.746930 145.756900
v    19.627277 31.151717 145.756900
v    20.811054 30.898646 155.762689
v    18.816222 30.253070 155.762689
v    20.372723 28.848283 155.762689
v    15.005588 35.828004 152.557543
v    15.114407 35.928879 152.695428
v    26.307902 25.627340 152.557543
v    26.397127 25.745898 152.695428
v    21.097812 30.213714 155.762689
v    19.266012 30.843876 155.762689
v    19.636176 28.942409 155.762689
v    18.902188 29.786286 163.883974
v    20.733988 29.156124 163.883974
v    20.363824 31.057591 163.883974
v    20.765251 21.505647 160.454647
v    13.941728 20.798854 166.829331
v    9.817562 20.439982 170.670037
v    6.371896 20.097386 173.000828
v    17.522885 38.161099 160.454647
v    10.932528 36.256573 166.829331
v    6.974917 35.042141 170.670037
v    3.652361 34.067147 173.000828
v    19.208315 29.346885 163.883974
v    20.961457 29.640938 163.883974
v    19.830228 31.012177 163.883974
v    20.791685 30.653115 168.360888
v    19.038543 30.359062 168.360888
v    20.169772 28.987823 168.360888
v    15.386967 36.798154 164.761894
v    25.025354 43.172475 175.482694
v    25.466938 43.472390 175.842008
v    25.797424 24.178930 164.761894
v    33.887519 32.430041 175.482694
v    34.265899 32.806570 175.842008
v    20.747035 30.560971 168.360888
v    19.140667 30.366465 168.360888
v    20.112298 29.072563 168.360888
v    19.252965 29.439029 170.838531
v    20.859333 29.633535 170.838531
v    19.887702 30.927437 170.838531
v    24.163196 23.343508 167.133733
v    14.124812 17.344934 177.983087
v    14.768489 35.854262 167.133733
v    6.208590 27.886818 177.983087
v    19.310251 29.516898 170.838531
v    20.763253 29.644211 170.838531
v    19.926496 30.838891 170.838531
v    20.689749 30.483102 172.683879
v    19.236747 30.355789 172.683879
v    20.073504 29.161109 172.683879
v    15.610279 37.266766 168.943127
v    26.118671 43.083156 180.086199
v    35.356786 48.345969 187.242851
v    25.328885 23.391028 168.943127
v    34.386519 31.278736 180.086199
v    42.489764 38.161860 187.242851
v    20.610549 30.435580 172.683879
v    19.317502 30.310961 172.683879
v    20.071949 29.253459 172.683879
v    19.389451 29.564420 174.071000
v    20.682498 29.689039 174.071000
v    19.928051 30.746541 174.071000
v    24.437598 22.946857 170.366203
v    14.080615 17.096229 181.402173
v    2.570863 10.406274 190.363293
v    14.774737 36.491204 170.366203
v    5.872324 28.601719 181.402173
v    -4.198852 19.895325 190.363293
v    22.506902 31.620744 1.127747
v    23.239255 31.895892 1.666470
v    23.944650 32.171249 1.909189
v    24.623621 32.405695 2.138507
v    25.171222 32.519072 2.153745
v    22.821513 30.974902 1.127747
v    23.489609 31.381959 1.666470
v    24.141252 31.767658 1.909189
v    24.744393 32.157772 2.138507
v    25.171222 32.519072 2.153745
v    18.139192 27.815829 1.585013
v    18.004513 27.726368 1.735257
v    17.020988 27.081024 2.564288
v    15.988824 26.383561 2.963582
v    15.212234 25.902544 3.255212
v    14.411398 25.523232 3.245331
v    17.462348 28.660770 1.585013
v    17.345650 28.548865 1.735257
v    16.501201 27.729904 2.564288
v    15.595273 26.874852 2.963582
v    14.956355 26.221972 3.255212
v    14.411398 25.523232 3.245331
v    22.308263 31.638496 2.359685
v    22.847772 31.784975 2.878342
v    24.210589 32.173054 3.832153
v    25.011735 32.411648 4.100093
v    26.354018 32.754048 4.542334
v    27.121728 32.839559 4.782422
v    27.395306 32.873341 4.779359
v    22.808990 30.349741 2.359685
v    23.305871 30.605936 2.878342
v    24.573205 31.239765 3.832153
v    25.325282 31.604654 4.100093
v    26.546628 32.258316 4.542334
v    27.170684 32.713556 4.782422
v    27.395306 32.873341 4.779359
v    16.968041 28.326124 4.752398
v    14.858666 28.033468 6.241387
v    13.075410 27.761851 6.819572
v    11.218216 27.553982 7.416177
v    9.771662 27.580428 7.511103
v    16.539424 30.138030 4.752398
v    14.522492 29.454584 6.241387
v    12.806543 28.898444 6.819572
v    11.053052 28.252184 7.416177
v    9.771662 27.580428 7.511103
v    20.980116 33.075546 6.051808
v    21.667352 33.710772 6.920050
v    23.503619 35.450455 8.622713
v    25.117455 37.016683 9.343559
v    26.958950 38.667118 10.133011
v    27.455695 39.001087 10.319054
v    28.533380 39.744462 10.304508
v    22.919342 31.377335 6.051808
v    23.458341 32.142374 6.920050
v    24.940538 34.192122 8.622713
v    26.280145 35.998497 9.343559
v    27.673184 38.041652 10.133011
v    27.938693 38.578118 10.319054
v    28.533380 39.744462 10.304508
v    18.723826 27.061044 11.394297
v    17.613959 26.484401 12.556537
v    14.317425 24.794654 15.157330
v    10.758688 22.909722 16.448151
v    8.186234 21.675309 17.359056
v    5.465190 20.719939 17.326880
v    16.796903 30.079069 11.394297
v    15.806757 29.314915 12.556537
v    12.886686 27.035536 15.157330
v    9.679215 24.600437 16.448151
v    7.476900 22.786297 17.359056
v    5.465190 20.719939 17.326880
v    20.447000 33.196384 17.695454
v    22.326790 34.311209 19.726337
v    26.319241 36.650442 22.955056
v    30.806797 39.360105 24.635348
v    33.887077 41.057018 25.758063
v    37.383625 42.524943 25.715717
v    23.173512 29.412203 17.695454
v    24.826052 30.842431 19.726337
v    28.308798 33.889094 22.955056
v    32.299650 37.288144 24.635348
v    34.884359 39.672870 25.758063
v    37.383625 42.524943 25.715717
v    17.917148 25.055856 32.162808
v    16.994730 24.565967 33.133350
v    14.267126 23.080759 35.226513
v    12.399812 22.098864 36.646622
v    2.865234 16.937876 40.121769
v    -1.925403 14.551823 40.086815
v    -4.171676 13.783562 40.060438
v    -5.683755 13.273026 39.777734
v    14.635863 30.094168 32.162808
v    13.814830 29.448606 33.133350
v    11.353549 27.554466 35.226513
v    9.700458 26.243638 36.646622
v    1.124904 19.610100 40.121769
v    -2.994478 16.193354 40.086815
v    -4.605409 14.449546 40.060438
v    -5.683755 13.273026 39.777734
v    20.464846 34.506682 44.242360
v    23.782924 35.977883 47.615176
v    25.209561 36.628289 48.671887
v    29.626675 38.565100 51.918411
v    39.382182 42.983395 55.351129
v    41.862405 43.990094 56.205670
v    45.329375 45.420545 56.162972
v    50.059505 46.672160 56.108609
v    24.069218 28.008085 44.242360
v    27.074156 30.043872 47.615176
v    28.381297 30.909724 48.671887
v    32.363149 33.631303 51.918411
v    41.276716 39.567597 55.351129
v    43.443971 41.138568 56.205670
v    46.493176 43.322239 56.162972
v    50.059505 46.672160 56.108609
v    18.582710 24.898282 65.426428
v    14.299272 24.158893 69.465678
v    11.155014 23.582383 71.620122
v    6.737271 22.838502 74.635665
v    -7.408950 20.281077 79.243501
v    -15.125632 19.164875 79.717054
v    -20.323630 19.101121 79.659296
v    -20.993280 19.095535 79.540671
v    16.235213 33.723254 65.426428
v    12.150533 32.236672 69.465678
v    9.135398 31.174745 71.620122
v    4.931932 29.625331 74.635665
v    -8.615301 24.816127 79.243501
v    -15.866687 21.950731 79.717054
v    -20.409360 19.423407 79.659296
v    -20.993280 19.095535 79.540671
v    21.128259 35.957047 85.951208
v    25.481986 37.324878 90.191878
v    34.125587 40.008121 96.284369
v    46.603887 44.037372 100.487425
v    52.235471 45.611982 102.354243
v    55.264060 46.477565 102.318383
v    62.117983 47.483612 102.241415
v    25.015288 26.593203 85.951208
v    29.057804 28.710739 90.191878
v    37.060632 32.937602 96.284369
v    48.724077 38.929840 100.487425
v    53.815229 41.806349 102.354243
v    56.566481 43.340038 102.318383
v    62.117983 47.483612 102.241415
v    21.776338 23.450419 109.059338
v    16.827291 20.068594 114.629400
v    13.672430 17.864274 117.223259
v    8.200781 14.158249 121.671653
v    -7.401358 3.314561 127.761887
v    -9.846649 1.755198 128.687761
v    -16.307870 -2.417503 128.600196
v    -23.279621 -5.706334 128.514549
v    -23.546159 -5.830794 128.462441
v    13.915102 33.004398 109.059338
v    9.643499 28.799257 114.629400
v    6.872881 26.127955 117.223259
v    2.182503 21.472428 121.671653
v    -11.462847 8.250601 127.761887
v    -13.463932 6.151383 128.687761
v    -18.802820 0.614679 128.600196
v    -23.372700 -5.593213 128.514549
v    -23.546159 -5.830794 128.462441
v    17.324259 37.127232 130.508836
v    22.112163 41.317711 136.421389
v    24.260415 43.237757 138.363244
v    31.039661 49.122056 144.405735
v    45.864021 62.305509 150.764625
v    49.728175 65.476501 152.360439
v    55.056092 69.900115 152.281600
v    62.746475 74.724693 152.180732
v    27.240911 27.649204 130.508836
v    31.210652 32.621657 136.421389
v    33.031617 34.854514 138.363244
v    38.603422 41.892848 144.405735
v    51.103214 57.298052 150.764625
v    54.096271 61.301610 152.360439
v    58.274498 66.824063 152.281600
v    62.746475 74.724693 152.180732
v    23.009135 22.911455 144.554576
v    19.878175 20.242873 148.377425
v    17.221834 18.053070 151.571326
v    7.147351 9.537640 160.450615
v    -3.365377 0.432663 164.908425
v    -13.440721 -7.616544 169.025372
v    -22.032942 -12.838905 169.194931
v    12.855587 32.873976 144.554576
v    10.246946 29.692902 148.377425
v    8.107984 26.995454 151.571326
v    -0.214589 16.761073 160.450615
v    -9.118278 6.077331 164.908425
v    -16.974695 -4.149057 169.025372
v    -22.032942 -12.838905 169.194931
v    15.114407 35.928879 152.695428
v    17.093509 37.763499 155.203142
v    22.631618 42.730787 162.105136
v    33.224287 52.469483 171.790772
v    40.783961 59.589448 175.119422
v    51.398764 68.820063 179.610239
v    56.334173 72.031962 181.440451
v    60.364711 74.724009 181.386599
v    26.397127 25.745898 152.695428
v    28.019884 27.902130 155.203142
v    32.395189 33.918881 162.105136
v    41.000362 45.451351 171.790772
v    47.310475 53.699080 175.119422
v    55.407965 65.201643 179.610239
v    58.098665 70.439456 181.440451
v    60.364711 74.724009 181.386599
v    6.371896 20.097386 173.000828
v    -5.502455 18.916740 181.033127
v    -21.476504 17.134106 186.185124
v    -36.488928 16.059717 190.990047
v    -48.197463 16.723797 191.240589
v    3.652361 34.067147 173.000828
v    -7.797730 30.707155 181.033127
v    -23.273952 26.367271 186.185124
v    -37.593090 21.731598 190.990047
v    -48.197463 16.723797 191.240589
v    25.466938 43.472390 175.842008
v    38.391315 52.250362 186.358500
v    43.696000 55.947246 188.431006
v    57.003094 64.457120 193.473653
v    67.737044 69.381538 197.144215
v    34.265899 32.806570 175.842008
v    45.340397 43.826906 186.358500
v    49.978155 48.332219 188.431006
v    60.862186 59.779252 193.473653
v    67.737044 69.381538 197.144215
v    14.124812 17.344934 177.983087
v    0.311289 8.860997 188.946177
v    -13.698860 0.791181 194.327060
v    -24.968342 -3.768099 198.105529
v    6.208590 27.886818 177.983087
v    -5.790808 16.987045 188.946177
v    -17.447343 5.782966 194.327060
v    -24.968342 -3.768099 198.105529
v    35.356786 48.345969 187.242851
v    40.710600 51.395956 191.390384
v    46.175093 54.596696 193.420283
v    60.659561 62.325756 198.661552
v    72.184528 66.550189 202.476690
v    42.489764 38.161860 187.242851
v    47.185882 42.150873 191.390384
v    52.061501 46.192377 193.420283
v    64.275548 57.163031 198.661552
v    72.184528 66.550189 202.476690
v    2.570863 10.406274 190.363293
v    -0.299039 8.738166 192.597706
v    -4.942013 5.964196 194.331317
v    -19.220262 -1.814836 199.522209
v    -30.597701 -6.097608 203.300678
v    -4.198852 19.895325 190.363293
v    -6.710052 17.724426 192.597706
v    -10.843891 14.236807 194.331317
v    -22.845752 3.266981 199.522209
v    -30.597701 -6.097608 203.300678
mtllib usm_6_Beer_2018-09-23_1.mtl
usemtl APPID_2824958848_2481027081600 
o vid_3 
f 3 2 1
f 4 5 6
f 1 6 5
f 1 5 3
f 3 5 4
f 4 2 3
f 2 4 6
f 6 1 2
usemtl APPID_2824960304_2481027083648 
o vid_4 
f 7 10 11
f 7 11 8
f 8 11 12
f 8 12 9
usemtl APPID_2824958848_2481027081600 
o vid_5 
f 15 14 13
f 16 17 18
f 13 18 17
f 13 17 15
f 15 17 16
f 16 14 15
f 14 16 18
f 18 13 14
usemtl APPID_2824960304_2481027083648 
o vid_6 
f 19 21 22
f 19 22 20
f 19 21 22
f 19 22 20
usemtl APPID_2824958848_2481027081600 
o vid_7 
f 25 24 23
f 26 27 28
f 23 28 27
f 23 27 25
f 25 27 26
f 26 24 25
f 24 26 28
f 28 23 24
usemtl APPID_2824960304_2481027083648 
o vid_8 
f 29 32 33
f 29 33 30
f 30 33 34
f 30 34 31
usemtl APPID_2824958848_2481027081600 
o vid_9 
f 37 36 35
f 38 39 40
f 35 40 39
f 35 39 37
f 37 39 38
f 38 36 37
f 36 38 40
f 40 35 36
usemtl APPID_2824960304_2481027083648 
o vid_10 
f 41 44 45
f 41 45 42
f 42 45 46
f 42 46 43
usemtl APPID_2824958848_2481027081600 
o vid_11 
f 49 48 47
f 50 51 52
f 47 52 51
f 47 51 49
f 49 51 50
f 50 48 49
f 48 50 52
f 52 47 48
usemtl APPID_2824960304_2481027083648 
o vid_12 
f 53 56 57
f 53 57 54
f 54 57 58
f 54 58 55
usemtl APPID_2824958848_2481027081600 
o vid_13 
f 61 60 59
f 62 63 64
f 59 64 63
f 59 63 61
f 61 63 62
f 62 60 61
f 60 62 64
f 64 59 60
usemtl APPID_2824960304_2481027083648 
o vid_14 
f 65 67 68
f 65 68 66
f 65 67 68
f 65 68 66
usemtl APPID_2824958848_2481027081600 
o vid_15 
f 71 70 69
f 72 73 74
f 69 74 73
f 69 73 71
f 71 73 72
f 72 70 71
f 70 72 74
f 74 69 70
usemtl APPID_2824960304_2481027083648 
o vid_16 
f 75 77 78
f 75 78 76
f 75 77 78
f 75 78 76
usemtl APPID_2824958848_2481027081600 
o vid_17 
f 81 80 79
f 82 83 84
f 79 84 83
f 79 83 81
f 81 83 82
f 82 80 81
f 80 82 84
f 84 79 80
usemtl APPID_2824960304_2481027083648 
o vid_18 
f 85 87 88
f 85 88 86
f 85 87 88
f 85 88 86
usemtl APPID_2824958848_2481027081600 
o vid_19 
f 91 90 89
f 92 93 94
f 89 94 93
f 89 93 91
f 91 93 92
f 92 90 91
f 90 92 94
f 94 89 90
usemtl APPID_2824960304_2481027083648 
o vid_20 
f 95 97 98
f 95 98 96
f 95 97 98
f 95 98 96
usemtl APPID_2824958848_2481027081600 
o vid_21 
f 101 100 99
f 102 103 104
f 99 104 103
f 99 103 101
f 101 103 102
f 102 100 101
f 100 102 104
f 104 99 100
usemtl APPID_2824960304_2481027083648 
o vid_22 
f 105 107 108
f 105 108 106
f 105 107 108
f 105 108 106
usemtl APPID_2824958848_2481027081600 
o vid_23 
f 111 110 109
f 112 113 114
f 109 114 113
f 109 113 111
f 111 113 112
f 112 110 111
f 110 112 114
f 114 109 110
usemtl APPID_2824960304_2481027083648 
o vid_24 
f 115 117 118
f 115 118 116
f 115 117 118
f 115 118 116
usemtl APPID_2824958848_2481027081600 
o vid_25 
f 121 120 119
f 122 123 124
f 119 124 123
f 119 123 121
f 121 123 122
f 122 120 121
f 120 122 124
f 124 119 120
usemtl APPID_2824960304_2481027083648 
o vid_26 
f 125 127 128
f 125 128 126
f 125 127 128
f 125 128 126
usemtl APPID_2824958848_2481027081600 
o vid_27 
f 131 130 129
f 132 133 134
f 129 134 133
f 129 133 131
f 131 133 132
f 132 130 131
f 130 132 134
f 134 129 130
usemtl APPID_2824960304_2481027083648 
o vid_28 
f 135 137 138
f 135 138 136
f 135 137 138
f 135 138 136
usemtl APPID_2824958848_2481027081600 
o vid_29 
f 141 140 139
f 142 143 144
f 139 144 143
f 139 143 141
f 141 143 142
f 142 140 141
f 140 142 144
f 144 139 140
usemtl APPID_2824960304_2481027083648 
o vid_30 
f 145 147 148
f 145 148 146
f 145 147 148
f 145 148 146
usemtl APPID_2824958848_2481027081600 
o vid_31 
f 151 150 149
f 152 153 154
f 149 154 153
f 149 153 151
f 151 153 152
f 152 150 151
f 150 152 154
f 154 149 150
usemtl APPID_2824960304_2481027083648 
o vid_32 
f 155 157 158
f 155 158 156
f 155 157 158
f 155 158 156
usemtl APPID_2824958848_2481027081600 
o vid_33 
f 161 160 159
f 162 163 164
f 159 164 163
f 159 163 161
f 161 163 162
f 162 160 161
f 160 162 164
f 164 159 160
usemtl APPID_2824960304_2481027083648 
o vid_34 
f 165 169 170
f 166 170 171
f 165 170 166
f 166 171 167
f 167 171 172
f 167 172 168
usemtl APPID_2824958848_2481027081600 
o vid_35 
f 175 174 173
f 176 177 178
f 173 178 177
f 173 177 175
f 175 177 176
f 176 174 175
f 174 176 178
f 178 173 174
usemtl APPID_2824960304_2481027083648 
o vid_36 
f 179 182 183
f 179 183 180
f 180 183 184
f 180 184 181
usemtl APPID_2824958848_2481027081600 
o vid_37 
f 187 186 185
f 188 189 190
f 185 190 189
f 185 189 187
f 187 189 188
f 188 186 187
f 186 188 190
f 190 185 186
usemtl APPID_2824960304_2481027083648 
o vid_38 
f 191 193 194
f 191 194 192
f 191 193 194
f 191 194 192
usemtl APPID_2824958848_2481027081600 
o vid_39 
f 197 196 195
f 198 199 200
f 195 200 199
f 195 199 197
f 197 199 198
f 198 196 197
f 196 198 200
f 200 195 196
usemtl APPID_2824960304_2481027083648 
o vid_40 
f 201 204 205
f 201 205 202
f 202 205 206
f 202 206 203
usemtl APPID_2824958848_2481027081600 
o vid_41 
f 209 208 207
f 210 211 212
f 207 212 211
f 207 211 209
f 209 211 210
f 210 208 209
f 208 210 212
f 212 207 208
usemtl APPID_2824960304_2481027083648 
o vid_42 
f 213 216 217
f 213 217 214
f 214 217 218
f 214 218 215
usemtl APPID_2824961648_2481027083776 
o vid_10000004 
f 219 224 225
f 220 225 226
f 221 226 227
f 219 225 220
f 220 226 221
f 221 227 222
f 222 227 228
usemtl APPID_2824961648_2481027083776 
o vid_10000006 
f 229 235 236
f 230 236 237
f 231 237 238
f 232 238 239
f 229 236 230
f 230 237 231
f 231 238 232
f 232 239 233
f 233 239 240
usemtl APPID_2824961648_2481027083776 
o vid_10000008 
f 241 248 249
f 242 249 250
f 243 250 251
f 244 251 252
f 245 252 253
f 241 249 242
f 242 250 243
f 243 251 244
f 244 252 245
f 245 253 246
f 246 253 254
usemtl APPID_2824961648_2481027083776 
o vid_10000010 
f 255 260 261
f 256 261 262
f 257 262 263
f 255 261 256
f 256 262 257
f 257 263 258
f 258 263 264
usemtl APPID_2824961648_2481027083776 
o vid_10000012 
f 265 272 273
f 266 273 274
f 267 274 275
f 268 275 276
f 269 276 277
f 265 273 266
f 266 274 267
f 267 275 268
f 268 276 269
f 269 277 270
f 270 277 278
usemtl APPID_2824961648_2481027083776 
o vid_10000014 
f 279 285 286
f 280 286 287
f 281 287 288
f 282 288 289
f 279 286 280
f 280 287 281
f 281 288 282
f 282 289 283
f 283 289 290
usemtl APPID_2824961648_2481027083776 
o vid_10000016 
f 291 297 298
f 292 298 299
f 293 299 300
f 294 300 301
f 291 298 292
f 292 299 293
f 293 300 294
f 294 301 295
f 295 301 302
usemtl APPID_2824961648_2481027083776 
o vid_10000018 
f 303 311 312
f 304 312 313
f 305 313 314
f 306 314 315
f 307 315 316
f 308 316 317
f 303 312 304
f 304 313 305
f 305 314 306
f 306 315 307
f 307 316 308
f 308 317 309
f 309 317 318
usemtl APPID_2824961648_2481027083776 
o vid_10000020 
f 319 327 328
f 320 328 329
f 321 329 330
f 322 330 331
f 323 331 332
f 324 332 333
f 319 328 320
f 320 329 321
f 321 330 322
f 322 331 323
f 323 332 324
f 324 333 325
f 325 333 334
usemtl APPID_2824961648_2481027083776 
o vid_10000022 
f 335 343 344
f 336 344 345
f 337 345 346
f 338 346 347
f 339 347 348
f 340 348 349
f 335 344 336
f 336 345 337
f 337 346 338
f 338 347 339
f 339 348 340
f 340 349 341
f 341 349 350
usemtl APPID_2824961648_2481027083776 
o vid_10000024 
f 351 358 359
f 352 359 360
f 353 360 361
f 354 361 362
f 355 362 363
f 351 359 352
f 352 360 353
f 353 361 354
f 354 362 355
f 355 363 356
f 356 363 364
usemtl APPID_2824961648_2481027083776 
o vid_10000026 
f 365 374 375
f 366 375 376
f 367 376 377
f 368 377 378
f 369 378 379
f 370 379 380
f 371 380 381
f 365 375 366
f 366 376 367
f 367 377 368
f 368 378 369
f 369 379 370
f 370 380 371
f 371 381 372
f 372 381 382
usemtl APPID_2824961648_2481027083776 
o vid_10000028 
f 383 391 392
f 384 392 393
f 385 393 394
f 386 394 395
f 387 395 396
f 388 396 397
f 383 392 384
f 384 393 385
f 385 394 386
f 386 395 387
f 387 396 388
f 388 397 389
f 389 397 398
usemtl APPID_2824961648_2481027083776 
o vid_10000030 
f 399 406 407
f 400 407 408
f 401 408 409
f 402 409 410
f 403 410 411
f 399 407 400
f 400 408 401
f 401 409 402
f 402 410 403
f 403 411 404
f 404 411 412
usemtl APPID_2824961648_2481027083776 
o vid_10000032 
f 413 421 422
f 414 422 423
f 415 423 424
f 416 424 425
f 417 425 426
f 418 426 427
f 413 422 414
f 414 423 415
f 415 424 416
f 416 425 417
f 417 426 418
f 418 427 419
f 419 427 428
usemtl APPID_2824961648_2481027083776 
o vid_10000034 
f 429 434 435
f 430 435 436
f 431 436 437
f 429 435 430
f 430 436 431
f 431 437 432
f 432 437 438
usemtl APPID_2824961648_2481027083776 
o vid_10000036 
f 439 444 445
f 440 445 446
f 441 446 447
f 439 445 440
f 440 446 441
f 441 447 442
f 442 447 448
usemtl APPID_2824961648_2481027083776 
o vid_10000038 
f 449 453 454
f 450 454 455
f 449 454 450
f 450 455 451
f 451 455 456
usemtl APPID_2824961648_2481027083776 
o vid_10000040 
f 457 462 463
f 458 463 464
f 459 464 465
f 457 463 458
f 458 464 459
f 459 465 460
f 460 465 466
usemtl APPID_2824961648_2481027083776 
o vid_10000042 
f 467 472 473
f 468 473 474
f 469 474 475
f 467 473 468
f 468 474 469
f 469 475 470
f 470 475 476
