# File generated by PlantGL - Fri Sep  4 14:41:27 2026
v    38.201987 19.124129 0.000000
v    41.657533 18.880811 0.000000
v    40.140480 21.995060 0.000000
v    41.798013 20.875871 0.231332
v    38.342467 21.119189 0.231332
v    39.859520 18.004940 0.231332
v    41.514455 21.248526 -0.085763
v    42.436235 21.573097 0.837883
v    43.293069 21.864034 1.403329
v    43.538269 21.911287 1.555212
v    44.257812 22.074120 1.737101
v    41.916655 20.422880 -0.085763
v    42.740434 20.948628 0.837883
v    43.497696 21.443970 1.403329
v    43.686051 21.607916 1.555212
v    44.257812 22.074120 1.737101
v    41.503548 21.204422 0.231332
v    38.205166 20.699900 0.231332
v    40.291286 18.095678 0.231332
v    38.496452 18.795578 0.322957
v    41.794834 19.300100 0.322957
v    39.708714 21.904322 0.322957
v    38.981697 18.396126 -0.122956
v    37.974857 17.763993 1.000662
v    37.813752 17.670474 1.175914
v    36.993862 17.170975 1.775671
v    36.377840 16.901430 2.184652
v    35.770857 16.612231 2.350422
v    38.212540 19.356308 -0.122956
v    37.375894 18.511711 1.000662
v    37.249468 18.374902 1.175914
v    36.583062 17.683799 1.775671
v    36.185563 17.141459 2.184652
v    35.770857 16.612231 2.350422
v    38.272844 19.328938 0.322957
v    41.444735 18.839770 0.322957
v    40.282421 21.831292 0.322957
v    41.727156 20.671062 0.466906
v    38.555265 21.160230 0.466906
v    39.717579 18.168708 0.466906
v    41.291521 21.302351 -0.146515
v    42.028690 21.495173 0.573657
v    43.134817 21.743858 1.640276
v    43.425009 21.815605 1.827019
v    45.153844 22.002453 2.884671
v    41.832012 19.911254 -0.146515
v    42.505991 20.266713 0.573657
v    43.489858 20.830066 1.640276
v    43.752367 20.973063 1.827019
v    45.153844 22.002453 2.884671
v    41.731622 20.409625 0.466906
v    38.779443 21.294816 0.466906
v    39.488935 18.295559 0.466906
v    38.268378 19.590375 0.679271
v    41.220557 18.705184 0.679271
v    40.511065 21.704441 0.679271
v    38.724437 18.699708 -0.146223
v    37.987589 18.612697 0.555044
v    36.183361 18.462876 2.258301
v    33.774051 18.527216 3.725781
v    38.277047 20.590976 -0.146223
v    37.579310 20.338627 0.555044
v    35.899180 19.664204 2.258301
v    33.774051 18.527216 3.725781
v    38.980228 18.835499 0.679271
v    41.518373 19.699102 0.679271
v    39.501399 21.465399 0.679271
v    41.019772 21.164501 0.920461
v    38.481627 20.300898 0.920461
v    40.498601 18.534601 0.920461
v    39.830421 21.788205 -0.166258
v    40.724778 22.599626 0.975093
v    42.367348 23.989119 2.999170
v    42.639539 24.229469 3.226014
v    45.201662 25.939897 5.099721
v    41.794946 20.067839 -0.166258
v    42.481273 21.061437 0.975093
v    43.641898 22.872976 2.999170
v    43.844233 23.174499 3.226014
v    45.201662 25.939897 5.099721
v    41.033447 20.659826 0.920461
v    38.911850 20.565078 0.920461
v    40.054703 18.775095 0.920461
v    38.966553 19.340174 1.433330
v    41.088150 19.434922 1.433330
v    39.945297 21.224905 1.433330
v    40.116007 18.292084 0.033845
v    37.226706 17.005988 3.009223
v    36.055466 16.689819 4.110308
v    33.606742 15.918087 5.671910
v    38.499485 20.823946 0.033845
v    36.116953 18.744128 3.009223
v    35.337269 17.814688 4.110308
v    33.606742 15.918087 5.671910
v    39.247620 19.457909 1.433330
v    40.845655 19.619466 1.433330
v    39.906725 20.922626 1.433330
v    40.752380 20.542091 2.226063
v    39.154345 20.380534 2.226063
v    40.093275 19.077374 2.226063
v    39.186654 21.842813 0.463004
v    39.771092 22.169424 1.095787
v    43.325178 23.996818 4.855557
v    44.102245 24.254145 5.598499
v    47.893756 25.687470 8.063892
v    41.490585 18.645139 0.463004
v    41.985404 19.096136 1.095787
v    44.843867 21.888998 4.855557
v    45.333941 22.544649 5.598499
v    47.893756 25.687470 8.063892
v    40.545938 20.355551 2.226063
v    39.419115 20.295020 2.226063
v    40.034947 19.349429 2.226063
v    39.454062 19.644449 2.755829
v    40.580885 19.704980 2.755829
v    39.965053 20.650571 2.755829
v    41.031445 18.374050 0.583060
v    39.048072 17.469642 2.633854
v    34.508669 16.200134 6.911969
v    33.823258 15.977293 7.350336
v    38.929961 21.600815 0.583060
v    37.300811 20.152508 2.633854
v    34.304214 16.514068 6.911969
v    33.823258 15.977293 7.350336
v    39.651366 19.806634 2.755829
v    40.341777 19.794757 2.755829
v    40.006857 20.398609 2.755829
v    40.348634 20.193366 2.925000
v    39.658223 20.205243 2.925000
v    39.993143 19.601391 2.925000
v    40.203981 20.931608 -2.235481
v    40.982151 20.544739 0.868436
v    40.898303 19.679761 -2.235481
v    40.982151 20.544739 0.868436
mtllib usm_1_Beer_2018-07-30_0.mtl
usemtl APPID_1439678512_2556943054560 
o vid_3 
f 3 2 1
f 4 5 6
f 1 6 5
f 1 5 3
f 3 5 4
f 4 2 3
f 2 4 6
f 6 1 2
usemtl APPID_1439677280_2556943057376 
o vid_4 
f 7 12 13
f 8 13 14
f 9 14 15
f 7 13 8
f 8 14 9
f 9 15 10
f 10 15 16
usemtl APPID_1439678512_2556943054560 
o vid_5 
f 19 18 17
f 20 21 22
f 17 22 21
f 17 21 19
f 19 21 20
f 20 18 19
f 18 20 22
f 22 17 18
usemtl APPID_1439677280_2556943057376 
o vid_6 
f 23 29 30
f 24 30 31
f 25 31 32
f 26 32 33
f 23 30 24
f 24 31 25
f 25 32 26
f 26 33 27
f 27 33 34
usemtl APPID_1439678512_2556943054560 
o vid_7 
f 37 36 35
f 38 39 40
f 35 40 39
f 35 39 37
f 37 39 38
f 38 36 37
f 36 38 40
f 40 35 36
usemtl APPID_1439677280_2556943057376 
o vid_8 
f 41 46 47
f 42 47 48
f 43 48 49
f 41 47 42
f 42 48 43
f 43 49 44
f 44 49 50
usemtl APPID_1439678512_2556943054560 
o vid_9 
f 53 52 51
f 54 55 56
f 51 56 55
f 51 55 53
f 53 55 54
f 54 52 53
f 52 54 56
f 56 51 52
usemtl APPID_1439677280_2556943057376 
o vid_10 
f 57 61 62
f 58 62 63
f 57 62 58
f 58 63 59
f 59 63 64
usemtl APPID_1439678512_2556943054560 
o vid_11 
f 67 66 65
f 68 69 70
f 65 70 69
f 65 69 67
f 67 69 68
f 68 66 67
f 66 68 70
f 70 65 66
usemtl APPID_1439677280_2556943057376 
o vid_12 
f 71 76 77
f 72 77 78
f 73 78 79
f 71 77 72
f 72 78 73
f 73 79 74
f 74 79 80
usemtl APPID_1439678512_2556943054560 
o vid_13 
f 83 82 81
f 84 85 86
f 81 86 85
f 81 85 83
f 83 85 84
f 84 82 83
f 82 84 86
f 86 81 82
usemtl APPID_1439677280_2556943057376 
o vid_14 
f 87 91 92
f 88 92 93
f 87 92 88
f 88 93 89
f 89 93 94
usemtl APPID_1439678512_2556943054560 
o vid_15 
f 97 96 95
f 98 99 100
f 95 100 99
f 95 99 97
f 97 99 98
f 98 96 97
f 96 98 100
f 100 95 96
usemtl APPID_1439677280_2556943057376 
o vid_16 
f 101 106 107
f 102 107 108
f 103 108 109
f 101 107 102
f 102 108 103
f 103 109 104
f 104 109 110
usemtl APPID_1439678512_2556943054560 
o vid_17 
f 113 112 111
f 114 115 116
f 111 116 115
f 111 115 113
f 113 115 114
f 114 112 113
f 112 114 116
f 116 111 112
usemtl APPID_1439677280_2556943057376 
o vid_18 
f 117 121 122
f 118 122 123
f 117 122 118
f 118 123 119
f 119 123 124
usemtl APPID_1439678512_2556943054560 
o vid_19 
f 127 126 125
f 128 129 130
f 125 130 129
f 125 129 127
f 127 129 128
f 128 126 127
f 126 128 130
f 130 125 126
usemtl APPID_1439677280_2556943057376 
o vid_20 
f 131 133 134
f 131 134 132
f 131 133 134
