# File generated by PlantGL - Fri Sep  4 14:41:35 2026
v    17.752484 218.905161 0.000000
v    22.071916 218.601013 0.000000
v    20.175600 222.493825 0.000000
v    22.247516 221.094839 0.848018
v    17.928084 221.398987 0.848018
v    19.824400 217.506175 0.848018
v    22.062184 221.449156 0.688716
v    22.418649 221.585061 1.043219
v    22.540278 221.629160 1.163250
v    23.209568 221.881186 1.644646
v    23.981245 222.182418 1.910172
v    24.615108 222.401288 2.124254
v    25.059244 222.497953 2.119193
v    22.412266 220.730496 0.688716
v    22.739014 220.927406 1.043219
v    22.848714 220.995994 1.163250
v    23.459730 221.367647 1.644646
v    24.172605 221.789589 1.910172
v    24.735676 222.153785 2.124254
v    25.085567 222.443917 2.119193
v    21.879284 221.505407 0.848018
v    17.756638 220.874804 0.848018
v    20.364078 217.619789 0.848018
v    18.120716 218.494593 1.416666
v    22.243362 219.125196 1.416666
v    19.635922 222.380211 1.416666
v    18.493117 218.055620 1.191176
v    17.952793 217.696709 1.793949
v    17.044720 217.099981 2.544278
v    15.956020 216.364314 2.965444
v    15.269751 215.939242 3.223156
v    14.473008 215.548266 3.213228
v    17.773606 218.953827 1.191176
v    17.305418 218.504865 1.793949
v    16.524880 217.748926 2.544278
v    15.569331 216.847040 2.965444
v    15.004722 216.270092 3.223156
v    14.449275 215.577892 3.213228
v    17.841416 219.161313 1.416666
v    21.805616 218.549955 1.416666
v    20.352968 222.288732 1.416666
v    22.158584 220.838687 2.253758
v    18.194384 221.450045 2.253758
v    19.647032 217.711268 2.253758
v    21.871433 221.515662 1.940857
v    22.839874 221.781768 2.872938
v    24.190898 222.166488 3.818495
v    25.048301 222.421837 4.105250
v    26.378970 222.761274 4.543665
v    27.072461 222.838518 4.760542
v    27.361302 222.874186 4.757309
v    22.403819 220.145427 1.940857
v    23.297879 220.602969 2.872938
v    24.554247 221.231314 3.818495
v    25.359135 221.621825 4.105250
v    26.569913 222.269831 4.543665
v    27.133638 222.681061 4.760542
v    27.370792 222.849761 4.757309
v    22.163962 220.511898 2.253758
v    18.474702 221.618097 2.253758
v    19.361335 217.870005 2.253758
v    17.836038 219.488102 4.113040
v    21.525298 218.381903 4.113040
v    20.638665 222.129995 4.113040
v    18.105016 218.483911 3.687377
v    17.417344 218.384736 4.333007
v    16.751926 218.299895 4.955355
v    14.859426 218.034898 6.241667
v    13.088664 217.765184 6.815801
v    11.232084 217.557384 7.412209
v    9.817969 217.583476 7.511456
v    17.626590 220.506376 3.687377
v    16.967368 220.286935 4.333007
v    16.334463 220.064650 4.955355
v    14.523813 219.453645 6.241667
v    12.819885 218.901401 6.815801
v    11.066975 218.255356 7.412209
v    9.814427 217.598449 7.511456
v    18.595695 218.396392 4.113040
v    22.090917 219.585640 4.113040
v    19.313387 222.017967 4.113040
v    21.404305 221.603608 6.000766
v    17.909083 220.414360 6.000766
v    20.686613 217.982033 6.000766
v    20.283419 222.530963 5.433090
v    21.509369 223.702032 7.008533
v    23.450917 225.539346 8.839565
v    25.882939 227.899625 9.925868
v    27.335678 229.201637 10.548660
v    29.347313 230.680413 10.520721
v    22.471442 220.614877 5.433090
v    23.470522 221.984620 7.008533
v    25.035606 224.151609 8.839565
v    27.054370 226.873785 9.925868
v    28.153326 228.485610 10.548660
v    29.353759 230.674769 10.520721
v    21.718982 221.097521 6.000766
v    18.190028 220.939922 6.000766
v    20.090990 217.962557 6.000766
v    18.281018 218.902479 12.885860
v    21.809972 219.060078 12.885860
v    19.909010 222.037443 12.885860
v    19.368598 217.298169 12.143674
v    17.257375 216.201260 14.354522
v    14.296559 214.673837 16.597336
v    9.912626 212.351829 18.187472
v    8.092933 211.478634 18.831824
v    6.923672 210.909272 18.817018
v    4.503383 210.105852 18.788684
v    17.283338 220.564188 12.143674
v    15.399851 219.110589 14.354522
v    12.768306 217.067448 16.597336
v    8.817090 214.067702 18.187472
v    7.259225 212.784422 18.831824
v    6.250691 211.963324 18.817018
v    4.503383 210.105852 18.788684
v    18.570044 218.969713 12.885860
v    21.607233 219.276765 12.885860
v    19.822724 221.753522 12.885860
v    21.429956 221.030287 19.685705
v    18.392767 220.723235 19.685705
v    20.177276 218.246478 19.685705
v    19.941955 222.978583 18.734440
v    22.518461 224.506601 21.518040
v    26.247449 226.696664 24.442732
v    31.281139 229.736092 26.327515
v    33.967606 231.216054 27.306692
v    34.982871 231.782982 27.293453
v    38.022324 232.985127 27.257137
v    22.807040 219.002074 18.734440
v    25.072070 220.962395 21.518040
v    28.329918 223.806363 24.442732
v    32.806454 227.619076 26.327515
v    35.060709 229.698914 27.306692
v    35.919864 230.482511 27.293453
v    38.022324 232.985127 27.257137
v    21.164105 220.758143 19.685705
v    18.761377 220.629073 19.685705
v    20.074518 218.612784 19.685705
v    18.835895 219.241857 30.882667
v    21.238623 219.370927 30.882667
v    19.925482 221.387216 30.882667
v    20.628535 216.646696 29.687393
v    17.244560 214.849494 33.247915
v    12.501968 212.341540 36.859917
v    5.055303 208.310722 39.574065
v    2.568509 207.089644 40.458509
v    0.242734 205.931010 40.428927
v    -3.643235 204.601948 40.383296
v    17.187198 221.930763 29.687393
v    14.175164 219.562458 33.247915
v    9.963718 216.238945 36.859917
v    3.266066 211.058040 39.574065
v    1.143731 209.277346 40.458509
v    -0.856384 207.618672 40.428927
v    -3.643235 204.601948 40.383296
v    19.086365 219.493263 30.882667
v    20.895665 219.462137 30.882667
v    20.017970 221.044600 30.882667
v    20.913635 220.506737 48.444344
v    19.104335 220.537863 48.444344
v    19.982030 218.955400 48.444344
v    18.812118 224.077596 46.971997
v    23.126814 225.990687 51.357873
v    27.083500 227.794547 54.288593
v    29.149616 228.700495 55.807162
v    41.747192 234.405970 60.239933
v    48.378385 237.158206 60.158175
v    50.786579 237.795426 60.130498
v    53.233673 238.432676 59.682564
v    22.830112 216.833248 46.971997
v    26.737613 219.480504 51.357873
v    30.362887 221.881891 54.288593
v    32.225407 223.154916 55.807162
v    43.735761 230.820628 60.239933
v    49.581686 234.988683 60.158175
v    51.397368 236.694187 60.130498
v    53.233673 238.432676 59.682564
v    20.704574 220.187421 48.444344
v    19.485402 220.516469 48.444344
v    19.810024 219.296110 48.444344
v    19.295426 219.812579 62.271618
v    20.514598 219.483531 62.271618
v    20.189976 220.703890 62.271618
v    20.563579 215.542194 60.493626
v    16.458497 214.833592 64.364687
v    14.940546 214.597160 65.789966
v    7.069270 213.271757 71.162884
v    -1.911056 211.648248 74.088038
v    -9.442370 210.593355 76.515855
v    -15.757287 210.488341 76.445605
v    18.274208 224.148651 60.493626
v    14.359609 222.723968 64.364687
v    12.924807 222.174949 65.789966
v    5.435317 219.414294 71.162884
v    -3.164759 216.361307 74.088038
v    -10.224814 213.534806 76.515855
v    -15.757287 210.488341 76.445605
v    19.591609 219.830473 62.271618
v    20.351011 219.731087 62.271618
v    20.057381 220.438441 62.271618
v    20.408391 220.169527 66.084000
v    19.648989 220.268913 66.084000
v    19.942619 219.561559 66.084000
v    20.130446 223.554808 62.238007
v    20.872028 223.487619 66.663876
v    21.722759 223.250480 71.329131
v    23.300279 223.290037 76.020041
v    25.705851 222.525064 82.165022
v    26.053831 222.513008 82.640771
v    22.609571 217.582602 62.238007
v    23.085563 218.155218 66.663876
v    23.518261 218.925122 71.329131
v    24.660041 220.014374 76.020041
v    25.816687 222.258061 82.165022
v    26.053831 222.513008 82.640771
v    25.059244 222.497953 2.119193
v    25.179233 222.522974 2.117831
v    25.085567 222.443917 2.119193
v    25.179233 222.522974 2.117831
v    14.473008 215.548266 3.213228
v    14.402572 215.516162 3.212368
v    14.449275 215.577892 3.213228
v    14.402572 215.516162 3.212368
v    27.361302 222.874186 4.757309
v    27.414333 222.880734 4.756715
v    27.370792 222.849761 4.757309
v    27.414333 222.880734 4.756715
v    9.817969 217.583476 7.511456
v    9.786597 217.583960 7.511107
v    9.814427 217.598449 7.511456
v    9.786597 217.583960 7.511107
v    29.347313 230.680413 10.520721
v    29.361695 230.690334 10.520527
v    29.353759 230.674769 10.520721
v    29.361695 230.690334 10.520527
mtllib usm_24_Beer_2018-07-31_5.mtl
usemtl APPID_2735061424_2060026052976 
o vid_3 
f 3 2 1
f 4 5 6
f 1 6 5
f 1 5 3
f 3 5 4
f 4 2 3
f 2 4 6
f 6 1 2
usemtl APPID_2735061760_2060026051696 
o vid_4 
f 7 14 15
f 8 15 16
f 9 16 17
f 10 17 18
f 11 18 19
f 7 15 8
f 8 16 9
f 9 17 10
f 10 18 11
f 11 19 12
f 12 19 20
f 12 20 13
usemtl APPID_2735061424_2060026052976 
o vid_5 
f 23 22 21
f 24 25 26
f 21 26 25
f 21 25 23
f 23 25 24
f 24 22 23
f 22 24 26
f 26 21 22
usemtl APPID_2735061760_2060026051696 
o vid_6 
f 27 33 34
f 28 34 35
f 29 35 36
f 30 36 37
f 27 34 28
f 28 35 29
f 29 36 30
f 30 37 31
f 31 37 38
f 31 38 32
usemtl APPID_2735061424_2060026052976 
o vid_7 
f 41 40 39
f 42 43 44
f 39 44 43
f 39 43 41
f 41 43 42
f 42 40 41
f 40 42 44
f 44 39 40
usemtl APPID_2735061760_2060026051696 
o vid_8 
f 45 52 53
f 46 53 54
f 47 54 55
f 48 55 56
f 49 56 57
f 45 53 46
f 46 54 47
f 47 55 48
f 48 56 49
f 49 57 50
f 50 57 58
f 50 58 51
usemtl APPID_2735061424_2060026052976 
o vid_9 
f 61 60 59
f 62 63 64
f 59 64 63
f 59 63 61
f 61 63 62
f 62 60 61
f 60 62 64
f 64 59 60
usemtl APPID_2735061760_2060026051696 
o vid_10 
f 65 72 73
f 66 73 74
f 67 74 75
f 68 75 76
f 69 76 77
f 65 73 66
f 66 74 67
f 67 75 68
f 68 76 69
f 69 77 70
f 70 77 78
f 70 78 71
usemtl APPID_2735061424_2060026052976 
o vid_11 
f 81 80 79
f 82 83 84
f 79 84 83
f 79 83 81
f 81 83 82
f 82 80 81
f 80 82 84
f 84 79 80
usemtl APPID_2735061760_2060026051696 
o vid_12 
f 85 91 92
f 86 92 93
f 87 93 94
f 88 94 95
f 85 92 86
f 86 93 87
f 87 94 88
f 88 95 89
f 89 95 96
f 89 96 90
usemtl APPID_2735061424_2060026052976 
o vid_13 
f 99 98 97
f 100 101 102
f 97 102 101
f 97 101 99
f 99 101 100
f 100 98 99
f 98 100 102
f 102 97 98
usemtl APPID_2735061760_2060026051696 
o vid_14 
f 103 110 111
f 104 111 112
f 105 112 113
f 106 113 114
f 107 114 115
f 103 111 104
f 104 112 105
f 105 113 106
f 106 114 107
f 107 115 108
f 108 115 116
usemtl APPID_2735061424_2060026052976 
o vid_15 
f 119 118 117
f 120 121 122
f 117 122 121
f 117 121 119
f 119 121 120
f 120 118 119
f 118 120 122
f 122 117 118
usemtl APPID_2735061760_2060026051696 
o vid_16 
f 123 130 131
f 124 131 132
f 125 132 133
f 126 133 134
f 127 134 135
f 123 131 124
f 124 132 125
f 125 133 126
f 126 134 127
f 127 135 128
f 128 135 136
usemtl APPID_2735061424_2060026052976 
o vid_17 
f 139 138 137
f 140 141 142
f 137 142 141
f 137 141 139
f 139 141 140
f 140 138 139
f 138 140 142
f 142 137 138
usemtl APPID_2735061760_2060026051696 
o vid_18 
f 143 150 151
f 144 151 152
f 145 152 153
f 146 153 154
f 147 154 155
f 143 151 144
f 144 152 145
f 145 153 146
f 146 154 147
f 147 155 148
f 148 155 156
usemtl APPID_2735061424_2060026052976 
o vid_19 
f 159 158 157
f 160 161 162
f 157 162 161
f 157 161 159
f 159 161 160
f 160 158 159
f 158 160 162
f 162 157 158
usemtl APPID_2735061760_2060026051696 
o vid_20 
f 163 171 172
f 164 172 173
f 165 173 174
f 166 174 175
f 167 175 176
f 168 176 177
f 163 172 164
f 164 173 165
f 165 174 166
f 166 175 167
f 167 176 168
f 168 177 169
f 169 177 178
usemtl APPID_2735061424_2060026052976 
o vid_21 
f 181 180 179
f 182 183 184
f 179 184 183
f 179 183 181
f 181 183 182
f 182 180 181
f 180 182 184
f 184 179 180
usemtl APPID_2735061760_2060026051696 
o vid_22 
f 185 192 193
f 186 193 194
f 187 194 195
f 188 195 196
f 189 196 197
f 185 193 186
f 186 194 187
f 187 195 188
f 188 196 189
f 189 197 190
f 190 197 198
usemtl APPID_2735061424_2060026052976 
o vid_23 
f 201 200 199
f 202 203 204
f 199 204 203
f 199 203 201
f 201 203 202
f 202 200 201
f 200 202 204
f 204 199 200
usemtl APPID_2735061760_2060026051696 
o vid_24 
f 205 211 212
f 206 212 213
f 207 213 214
f 208 214 215
f 205 212 206
f 206 213 207
f 207 214 208
f 208 215 209
f 209 215 216
usemtl APPID_2735032416_2060026052464 
o vid_10000004 
f 217 219 220
f 217 220 218
f 217 219 220
usemtl APPID_2735032416_2060026052464 
o vid_10000006 
f 221 223 224
f 221 224 222
f 221 223 224
usemtl APPID_2735032416_2060026052464 
o vid_10000008 
f 225 227 228
f 225 228 226
f 225 227 228
usemtl APPID_2735032416_2060026052464 
o vid_10000010 
f 229 231 232
f 229 232 230
f 229 231 232
usemtl APPID_2735032416_2060026052464 
o vid_10000012 
f 233 235 236
f 233 236 234
f 233 235 236
