# File generated by PlantGL - Fri Sep  4 14:43:54 2026
v    18.201987 139.124129 0.000000
v    21.657533 138.880811 0.000000
v    20.140480 141.995060 0.000000
v    21.798013 140.875871 0.231332
v    18.342467 141.119189 0.231332
v    19.859520 138.004940 0.231332
v    21.014213 140.861719 -2.226163
v    22.104251 141.025050 -1.225784
v    21.303716 140.267420 -2.226163
v    22.104251 141.025050 -1.225784
v    21.503548 141.204422 0.231332
v    18.205166 140.699900 0.231332
v    20.291286 138.095678 0.231332
v    18.496452 138.795578 0.322458
v    21.794834 139.300100 0.322458
v    19.708714 141.904322 0.322458
v    19.317050 138.908163 -2.135038
v    17.995633 138.394395 -0.848239
v    18.785426 139.571820 -2.135038
v    17.995633 138.394395 -0.848239
v    18.272844 139.328938 0.322458
v    21.444735 138.839770 0.322458
v    20.282421 141.831292 0.322458
v    21.727156 140.671062 0.466406
v    18.555265 141.160230 0.466406
v    19.717579 138.168708 0.466406
v    20.850428 140.964780 -1.991089
v    22.817897 141.094854 -0.201487
v    21.278716 139.862469 -1.991089
v    22.817897 141.094854 -0.201487
v    21.731622 140.409625 0.466406
v    18.779443 141.294816 0.466406
v    19.488935 138.295559 0.466406
v    18.268378 139.590375 0.678771
v    21.220557 138.705184 0.678771
v    20.511065 141.704441 0.678771
v    19.152978 138.938762 -1.778725
v    16.366670 139.140515 0.756791
v    18.767274 140.569261 -1.778725
v    16.366670 139.140515 0.756791
v    18.876148 138.716648 0.678771
v    21.673341 139.668392 0.678771
v    19.450510 141.614960 0.678771
v    21.123852 141.283352 0.919581
v    18.326659 140.331608 0.919581
v    20.549490 138.385040 0.919581
v    19.502718 141.758130 -1.537914
v    23.867101 144.415932 3.099967
v    21.808371 139.739033 -1.537914
v    23.867101 144.415932 3.099967
v    21.375838 140.878433 0.919581
v    18.551335 140.752294 0.919581
v    20.072827 138.369272 0.919581
v    18.624162 139.121567 1.432331
v    21.448665 139.247706 1.432331
v    19.927173 141.630728 1.432331
v    20.056306 138.199402 -1.025165
v    15.072827 136.854140 3.659816
v    18.390286 140.808791 -1.025165
v    15.072827 136.854140 3.659816
v    18.808818 139.141750 1.432331
v    21.338857 139.397531 1.432331
v    19.852325 141.460719 1.432331
v    21.191182 140.858250 2.225064
v    18.661143 140.602469 2.225064
v    20.147675 138.539281 2.225064
v    19.333246 142.220922 -0.232432
v    21.609587 143.391342 2.175646
v    26.577960 145.036626 6.925836
v    27.445752 145.364682 7.490110
v    21.895654 138.664504 -0.232432
v    23.726459 140.453292 2.175646
v    26.859868 144.645360 6.925836
v    27.445752 145.364682 7.490110
v    20.977759 140.636782 2.225064
v    18.959652 140.528373 2.225064
v    20.062590 138.834845 2.225064
v    19.022241 139.363218 3.118961
v    21.040348 139.471627 3.118961
v    19.937410 141.165155 3.118961
v    20.898177 137.785312 0.661466
v    17.626336 136.293367 4.044528
v    13.620557 135.173096 7.819734
v    11.559566 134.503026 9.137878
v    18.337611 141.716983 0.661466
v    15.650108 139.327804 4.044528
v    13.005773 136.117078 7.819734
v    11.559566 134.503026 9.137878
v    19.223025 139.569059 3.118961
v    20.761693 139.542590 3.118961
v    20.015282 140.888351 3.118961
v    20.776975 140.430941 4.388399
v    19.238307 140.457410 4.388399
v    19.984718 139.111649 4.388399
v    18.853438 142.433477 1.930904
v    24.429866 144.527436 7.536758
v    26.105580 144.870313 9.089172
v    30.951231 146.073975 12.126007
v    21.457260 137.738848 1.930904
v    26.186270 141.360682 7.536758
v    27.364414 142.600665 9.089172
v    30.951231 146.073975 12.126007
v    20.611831 140.162751 4.388399
v    19.553138 140.448486 4.388399
v    19.835031 139.388763 4.388399
v    19.388169 139.837249 5.793618
v    20.446862 139.551514 5.793618
v    20.164969 140.611237 5.793618
v    20.784527 137.353093 3.336123
v    19.750218 137.201804 4.324097
v    14.213772 136.587250 9.564767
v    13.190541 136.632899 10.494391
v    7.405933 136.649901 14.012776
v    19.365709 142.686871 3.336123
v    18.392932 142.304263 4.324097
v    13.282875 140.086781 9.564767
v    12.417562 139.538768 10.494391
v    7.405933 136.649901 14.012776
v    19.629908 139.846371 5.793618
v    20.318092 139.756306 5.793618
v    20.051999 140.397323 5.793618
v    20.370092 140.153629 6.464000
v    19.681908 140.243694 6.464000
v    19.948001 139.602677 6.464000
v    19.394476 142.000031 1.501191
v    20.224017 142.053407 3.835963
v    23.251540 141.356868 11.342733
v    23.267389 141.356327 11.367741
v    20.988884 138.159106 1.501191
v    21.612360 138.708892 3.835963
v    23.256582 141.344721 11.342733
v    23.267389 141.356327 11.367741
mtllib usm_16_2.5D_2018-08-06_3.mtl
usemtl APPID_408811664_2208043219072 
o vid_3 
f 3 2 1
f 4 5 6
f 1 6 5
f 1 5 3
f 3 5 4
f 4 2 3
f 2 4 6
f 6 1 2
usemtl APPID_408809088_2208043211264 
o vid_4 
f 7 9 10
f 7 10 8
f 7 9 10
usemtl APPID_408811664_2208043219072 
o vid_5 
f 13 12 11
f 14 15 16
f 11 16 15
f 11 15 13
f 13 15 14
f 14 12 13
f 12 14 16
f 16 11 12
usemtl APPID_408809088_2208043211264 
o vid_6 
f 17 19 20
f 17 20 18
f 17 19 20
usemtl APPID_408811664_2208043219072 
o vid_7 
f 23 22 21
f 24 25 26
f 21 26 25
f 21 25 23
f 23 25 24
f 24 22 23
f 22 24 26
f 26 21 22
usemtl APPID_408809088_2208043211264 
o vid_8 
f 27 29 30
f 27 30 28
f 27 29 30
usemtl APPID_408811664_2208043219072 
o vid_9 
f 33 32 31
f 34 35 36
f 31 36 35
f 31 35 33
f 33 35 34
f 34 32 33
f 32 34 36
f 36 31 32
usemtl APPID_408809088_2208043211264 
o vid_10 
f 37 39 40
f 37 40 38
f 37 39 40
usemtl APPID_408811664_2208043219072 
o vid_11 
f 43 42 41
f 44 45 46
f 41 46 45
f 41 45 43
f 43 45 44
f 44 42 43
f 42 44 46
f 46 41 42
usemtl APPID_408809088_2208043211264 
o vid_12 
f 47 49 50
f 47 50 48
f 47 49 50
usemtl APPID_408811664_2208043219072 
o vid_13 
f 53 52 51
f 54 55 56
f 51 56 55
f 51 55 53
f 53 55 54
f 54 52 53
f 52 54 56
f 56 51 52
usemtl APPID_408809088_2208043211264 
o vid_14 
f 57 59 60
f 57 60 58
f 57 59 60
usemtl APPID_408811664_2208043219072 
o vid_15 
f 63 62 61
f 64 65 66
f 61 66 65
f 61 65 63
f 63 65 64
f 64 62 63
f 62 64 66
f 66 61 62
usemtl APPID_408809088_2208043211264 
o vid_16 
f 67 71 72
f 68 72 73
f 67 72 68
f 68 73 69
f 69 73 74
usemtl APPID_408811664_2208043219072 
o vid_17 
f 77 76 75
f 78 79 80
f 75 80 79
f 75 79 77
f 77 79 78
f 78 76 77
f 76 78 80
f 80 75 76
usemtl APPID_408809088_2208043211264 
o vid_18 
f 81 85 86
f 82 86 87
f 81 86 82
f 82 87 83
f 83 87 88
usemtl APPID_408811664_2208043219072 
o vid_19 
f 91 90 89
f 92 93 94
f 89 94 93
f 89 93 91
f 91 93 92
f 92 90 91
f 90 92 94
f 94 89 90
usemtl APPID_408809088_2208043211264 
o vid_20 
f 95 99 100
f 96 100 101
f 95 100 96
f 96 101 97
f 97 101 102
usemtl APPID_408811664_2208043219072 
o vid_21 
f 105 104 103
f 106 107 108
f 103 108 107
f 103 107 105
f 105 107 106
f 106 104 105
f 104 106 108
f 108 103 104
usemtl APPID_408809088_2208043211264 
o vid_22 
f 109 114 115
f 110 115 116
f 111 116 117
f 109 115 110
f 110 116 111
f 111 117 112
f 112 117 118
usemtl APPID_408811664_2208043219072 
o vid_23 
f 121 120 119
f 122 123 124
f 119 124 123
f 119 123 121
f 121 123 122
f 122 120 121
f 120 122 124
f 124 119 120
usemtl APPID_408809088_2208043211264 
o vid_24 
f 125 129 130
f 126 130 131
f 125 130 126
f 126 131 127
f 127 131 132
