# File generated by PlantGL - Fri Sep  4 14:44:02 2026
v    377.752484 18.905161 0.000000
v    382.071916 18.601013 0.000000
v    380.175600 22.493825 0.000000
v    382.247516 21.094839 0.362700
v    377.928084 21.398987 0.362700
v    379.824400 17.506175 0.362700
v    382.060397 21.451195 0.193466
v    382.204775 21.506240 0.337050
v    382.570109 21.638700 0.697584
v    383.281124 21.906438 1.208991
v    383.796985 22.107810 1.386493
v    384.499051 22.350230 1.623611
v    384.798638 22.408979 1.718499
v    385.054932 22.462423 1.715590
v    382.412771 20.727832 0.193466
v    382.545112 20.807585 0.337050
v    382.874614 21.013603 0.697584
v    383.523722 21.408425 1.208991
v    384.000275 21.690491 1.386493
v    384.623931 22.093873 1.623611
v    384.854863 22.293558 1.718499
v    385.054932 22.462423 1.715590
v    381.845512 21.478354 0.362700
v    377.796952 20.859084 0.362700
v    380.357536 17.662562 0.362700
v    378.154488 18.521646 0.589630
v    382.203048 19.140916 0.589630
v    379.642464 22.337438 0.589630
v    378.519286 18.093507 0.352461
v    378.353842 17.983611 0.537026
v    377.880196 17.680077 1.058948
v    376.990876 17.094600 1.775649
v    376.367170 16.673144 2.016930
v    375.482267 16.125039 2.349234
v    375.068859 15.942537 2.489690
v    374.757916 15.800812 2.485893
v    377.816291 18.971095 0.352461
v    377.672935 18.833626 0.537026
v    377.273342 18.437648 1.058948
v    376.507877 17.697554 1.775649
v    375.960453 17.180873 2.016930
v    375.232423 16.436934 2.349234
v    374.964091 16.073325 2.489690
v    374.757916 15.800812 2.485893
v    378.217485 19.307429 0.589630
v    381.491041 18.802583 0.589630
v    380.291473 21.889988 0.589630
v    381.782515 20.692571 1.053978
v    378.508959 21.197417 1.053978
v    379.708527 18.110012 1.053978
v    381.480741 21.404577 0.727951
v    381.744112 21.480747 0.982718
v    382.489328 21.683077 1.699131
v    383.897027 22.083936 2.684354
v    384.890172 22.379711 3.016507
v    386.276660 22.733387 3.473313
v    386.892540 22.801986 3.665919
v    387.360327 22.859751 3.660682
v    382.040614 19.963596 0.727951
v    382.286324 20.085222 0.982718
v    382.972658 20.439100 1.699131
v    384.281729 21.093804 2.684354
v    385.214044 21.546139 3.016507
v    386.475613 22.221329 3.473313
v    386.976250 22.586536 3.665919
v    387.360327 22.859751 3.660682
v    381.448837 20.342731 1.053978
v    378.978768 21.083364 1.053978
v    379.572395 18.573905 1.053978
v    378.551163 19.657269 1.829186
v    381.021232 18.916636 1.829186
v    380.427605 21.426095 1.829186
v    378.826647 18.629933 1.389569
v    378.228217 18.543628 1.951413
v    377.428770 18.441699 2.699115
v    375.474229 18.168015 4.027595
v    373.790687 17.911586 4.573450
v    371.873244 17.696973 5.189409
v    371.353078 17.711215 5.351143
v    370.387549 17.726119 5.340414
v    378.337162 20.699149 1.389569
v    377.763489 20.508187 1.951413
v    377.003104 20.241129 2.699115
v    375.133097 19.610094 4.027595
v    373.513097 19.085051 4.573450
v    371.702722 18.417826 5.189409
v    371.244067 18.172039 5.351143
v    370.387549 17.726119 5.340414
v    379.279199 19.176901 1.829186
v    381.073225 19.787318 1.829186
v    379.647576 21.035781 1.829186
v    380.720801 20.823099 2.769464
v    378.926775 20.212682 2.769464
v    380.352424 18.964219 2.769464
v    379.617084 21.734103 2.188004
v    380.393118 22.475397 3.185269
v    380.974736 23.012999 3.920075
v    382.869728 24.808318 5.677190
v    384.741441 26.624816 6.513221
v    386.641828 28.328032 7.327921
v    388.276116 29.450686 7.409322
v    381.769465 19.849229 2.188004
v    382.401888 20.716285 3.185269
v    382.858052 21.363749 3.920075
v    384.387650 23.479049 5.677190
v    385.941314 25.574067 6.513221
v    387.378904 27.682563 7.327921
v    388.276116 29.450686 7.409322
v    380.613728 20.391848 2.769464
v    379.353786 20.335580 2.769464
v    380.032486 19.272573 2.769464
v    379.386272 19.608152 3.820000
v    380.646214 19.664420 3.820000
v    379.967514 20.727427 3.820000
v    379.969755 18.485959 2.327810
v    378.615893 17.888777 4.843239
v    376.606481 17.079282 7.555662
v    375.936999 16.952570 8.333183
v    374.683713 16.605702 9.191962
v    378.613813 20.609690 2.327810
v    377.502360 19.632838 4.843239
v    375.922444 18.150649 7.555662
v    375.525771 17.596652 8.333183
v    374.683713 16.605702 9.191962
mtllib usm_29_2.5D_2018-08-05_9.mtl
usemtl APPID_2417344432_1742050276736 
o vid_3 
f 3 2 1
f 4 5 6
f 1 6 5
f 1 5 3
f 3 5 4
f 4 2 3
f 2 4 6
f 6 1 2
usemtl APPID_2417349808_1742050272000 
o vid_4 
f 7 15 16
f 8 16 17
f 9 17 18
f 10 18 19
f 11 19 20
f 12 20 21
f 7 16 8
f 8 17 9
f 9 18 10
f 10 19 11
f 11 20 12
f 12 21 13
f 13 21 22
usemtl APPID_2417344432_1742050276736 
o vid_5 
f 25 24 23
f 26 27 28
f 23 28 27
f 23 27 25
f 25 27 26
f 26 24 25
f 24 26 28
f 28 23 24
usemtl APPID_2417349808_1742050272000 
o vid_6 
f 29 37 38
f 30 38 39
f 31 39 40
f 32 40 41
f 33 41 42
f 34 42 43
f 29 38 30
f 30 39 31
f 31 40 32
f 32 41 33
f 33 42 34
f 34 43 35
f 35 43 44
usemtl APPID_2417344432_1742050276736 
o vid_7 
f 47 46 45
f 48 49 50
f 45 50 49
f 45 49 47
f 47 49 48
f 48 46 47
f 46 48 50
f 50 45 46
usemtl APPID_2417349808_1742050272000 
o vid_8 
f 51 59 60
f 52 60 61
f 53 61 62
f 54 62 63
f 55 63 64
f 56 64 65
f 51 60 52
f 52 61 53
f 53 62 54
f 54 63 55
f 55 64 56
f 56 65 57
f 57 65 66
usemtl APPID_2417344432_1742050276736 
o vid_9 
f 69 68 67
f 70 71 72
f 67 72 71
f 67 71 69
f 69 71 70
f 70 68 69
f 68 70 72
f 72 67 68
usemtl APPID_2417349808_1742050272000 
o vid_10 
f 73 81 82
f 74 82 83
f 75 83 84
f 76 84 85
f 77 85 86
f 78 86 87
f 73 82 74
f 74 83 75
f 75 84 76
f 76 85 77
f 77 86 78
f 78 87 79
f 79 87 88
usemtl APPID_2417344432_1742050276736 
o vid_11 
f 91 90 89
f 92 93 94
f 89 94 93
f 89 93 91
f 91 93 92
f 92 90 91
f 90 92 94
f 94 89 90
usemtl APPID_2417349808_1742050272000 
o vid_12 
f 95 102 103
f 96 103 104
f 97 104 105
f 98 105 106
f 99 106 107
f 95 103 96
f 96 104 97
f 97 105 98
f 98 106 99
f 99 107 100
f 100 107 108
usemtl APPID_2417344432_1742050276736 
o vid_13 
f 111 110 109
f 112 113 114
f 109 114 113
f 109 113 111
f 111 113 112
f 112 110 111
f 110 112 114
f 114 109 110
usemtl APPID_2417349808_1742050272000 
o vid_14 
f 115 120 121
f 116 121 122
f 117 122 123
f 115 121 116
f 116 122 117
f 117 123 118
f 118 123 124
