# File generated by PlantGL - Fri Sep  4 14:44:22 2026
v    17.752484 178.905161 0.000000
v    22.071916 178.601013 0.000000
v    20.175600 182.493825 0.000000
v    22.247516 181.094839 0.848509
v    17.928084 181.398987 0.848509
v    19.824400 177.506175 0.848509
v    22.063717 181.446520 0.692330
v    22.463559 181.598964 1.089971
v    22.472081 181.602054 1.098381
v    22.411137 180.733328 0.692330
v    22.777645 180.954199 1.089971
v    22.785332 180.959005 1.098381
v    21.879284 181.505407 0.848509
v    17.756638 180.874804 0.848509
v    20.364078 177.619789 0.848509
v    18.120716 178.494593 1.417165
v    22.243362 179.125196 1.417165
v    19.635922 182.380211 1.417165
v    18.490485 178.058434 1.195783
v    18.158794 177.838108 1.565810
v    17.775778 178.950644 1.195783
v    17.488369 178.675037 1.565810
v    17.841416 179.161313 1.417165
v    21.805616 178.549955 1.417165
v    20.352968 182.288732 1.417165
v    22.158584 180.838687 2.253766
v    18.194384 181.450045 2.253766
v    19.647032 177.711268 2.253766
v    21.873131 181.512341 1.946155
v    22.143254 181.590464 2.207453
v    22.282578 181.628291 2.341392
v    22.402830 180.149023 1.946155
v    22.654838 180.273767 2.207453
v    22.783154 180.339927 2.341392
v    22.163962 180.511898 2.253766
v    18.474702 181.618097 2.253766
v    19.361335 177.870005 2.253766
v    17.836038 179.488102 4.112548
v    21.525298 178.381903 4.112548
v    20.638665 182.129995 4.112548
v    18.103201 178.489502 3.693557
v    17.310223 178.375139 4.438055
v    17.066380 178.344049 4.666115
v    17.627472 180.500564 3.693557
v    16.867301 180.247520 4.438055
v    16.635372 180.166064 4.666115
v    18.595695 178.396392 4.112548
v    22.090917 179.585640 4.112548
v    19.313387 182.017967 4.112548
v    21.404305 181.603608 5.999272
v    17.909083 180.414360 5.999272
v    20.686613 177.982033 5.999272
v    20.289903 182.526072 5.439840
v    20.587984 182.810809 5.822898
v    22.465739 180.620659 5.439840
v    22.708658 180.953702 5.822898
v    21.718982 181.097521 5.999272
v    18.190028 180.939922 5.999272
v    20.090990 177.962557 5.999272
v    18.281018 178.902479 11.505015
v    21.809972 179.060078 11.505015
v    19.909010 182.037443 11.505015
v    19.288816 177.421794 10.772811
v    18.199734 176.855949 11.913285
v    17.446008 176.479924 12.694756
v    17.361911 180.439791 10.772811
v    16.390307 179.689947 11.913285
v    15.732019 179.164441 12.694756
v    18.420020 178.861621 11.505015
v    21.775855 179.200887 11.505015
v    19.804125 181.937492 11.505015
v    21.579980 181.138379 19.658889
v    18.224145 180.799113 19.658889
v    20.195875 178.062508 19.658889
v    20.045605 183.152494 18.719470
v    22.390962 184.543427 21.253342
v    23.004818 179.045342 18.719470
v    25.066643 180.829795 21.253342
v    21.554633 181.012481 19.658889
v    18.345849 180.840111 19.658889
v    20.099518 178.147408 19.658889
v    18.445367 178.987519 30.873903
v    21.654151 179.159889 30.873903
v    19.900482 181.852592 30.873903
v    20.232791 176.398551 29.692417
v    18.419131 175.435331 31.600698
v    16.800225 181.669150 29.692417
v    15.185909 180.399844 31.600698
v    18.458123 179.144816 30.873903
v    21.511550 179.092287 30.873903
v    20.030327 181.762897 30.873903
v    21.541877 180.855184 48.399281
v    18.488450 180.907713 48.399281
v    19.969673 178.237103 48.399281
v    19.449063 184.412684 46.942685
v    20.968679 185.086466 48.487370
v    23.451630 177.196152 46.942685
v    24.827833 178.128503 48.487370
v    21.614895 180.429572 48.399281
v    18.820532 181.183754 48.399281
v    19.564573 178.386674 48.399281
v    18.385105 179.570428 69.766709
v    21.179468 178.816246 69.766709
v    20.435427 181.613326 69.766709
v    19.805998 174.720905 68.006389
v    14.691137 173.837999 72.829665
v    17.208693 184.484985 68.006389
v    12.331169 182.709854 72.829665
v    18.541706 179.394647 69.766709
v    21.253398 179.039757 69.766709
v    20.204896 181.565597 69.766709
v    21.458294 180.605353 89.624768
v    18.746602 180.960243 89.624768
v    19.795104 178.434403 89.624768
v    19.187770 185.684189 87.539384
v    25.565392 187.687878 93.751394
v    27.726076 188.391500 95.282886
v    29.912761 189.068636 96.823748
v    23.452022 175.411615 87.539384
v    29.373763 178.513520 93.751394
v    31.397554 179.546917 95.282886
v    33.420945 180.617427 96.823748
v    21.148136 180.944713 89.624768
v    18.607786 180.521958 89.624768
v    20.244078 178.533328 89.624768
v    18.851864 179.055287 113.542120
v    21.392214 179.478042 113.542120
v    19.755922 181.466672 113.542120
v    23.056881 174.218690 111.120409
v    16.647296 169.838839 118.334279
v    15.021965 168.703210 119.670591
v    7.664108 163.719630 125.652451
v    5.188361 161.998953 126.618850
v    14.915598 184.113018 111.120409
v    9.383381 178.666877 118.334279
v    7.956005 177.290667 119.670591
v    1.648743 171.030270 125.652451
v    -0.516501 168.932230 126.618850
v    19.036323 178.991726 113.542120
v    21.355030 179.669568 113.542120
v    19.608648 181.338706 113.542120
v    20.963677 181.008274 134.010500
v    18.644970 180.330432 134.010500
v    20.391352 178.661294 134.010500
v    15.503038 185.953364 131.253731
v    22.152964 191.773524 139.465683
v    24.512779 193.882660 141.598775
v    31.466039 199.918000 147.796368
v    40.352642 207.820947 151.608265
v    26.150577 175.776777 131.253731
v    31.664155 182.683023 139.465683
v    33.664452 185.135775 141.598775
v    39.379277 192.354773 147.796368
v    46.872396 201.589568 151.608265
v    20.912312 180.929805 134.010500
v    18.738610 180.325183 134.010500
v    20.349079 178.745013 134.010500
v    19.087688 179.070195 146.906948
v    21.261390 179.674817 146.906948
v    19.650921 181.254987 146.906948
v    24.652744 173.919524 143.830708
v    20.234014 170.153349 149.225902
v    17.099860 167.569652 152.994312
v    6.552465 158.654495 162.290407
v    -0.690739 152.381223 165.361810
v    13.832261 184.536432 143.830708
v    10.150681 180.046976 149.225902
v    7.626970 176.864321 152.994312
v    -1.086277 166.149523 162.290407
v    -7.220863 158.788491 165.361810
v    19.188946 179.101354 146.906948
v    21.183778 179.746930 146.906948
v    19.627277 181.151717 146.906948
v    20.811054 180.898646 158.253049
v    18.816222 180.253070 158.253049
v    20.372723 178.848283 158.253049
v    14.350288 186.403961 154.888074
v    20.605566 192.202579 162.814118
v    22.288709 193.712238 164.911773
v    33.409599 203.936571 175.080400
v    46.593836 216.353945 180.885638
v    46.740523 216.481504 180.947698
v    26.947812 175.034331 154.888074
v    32.076803 181.849457 162.814118
v    33.406546 183.678069 164.911773
v    42.440830 195.785624 175.080400
v    53.445806 210.169844 180.885638
v    53.557706 210.328799 180.947698
v    21.097812 180.213714 158.253049
v    19.266012 180.843876 158.253049
v    19.636176 178.942409 158.253049
v    18.902188 179.786286 164.661237
v    20.733988 179.156124 164.661237
v    20.363824 181.057591 164.661237
v    20.776237 171.516462 161.053079
v    18.640231 171.295210 163.048583
v    9.241661 170.477378 171.801177
v    -6.877257 168.874702 182.704676
v    -17.128135 167.730749 186.010819
v    -22.133515 167.372530 187.612857
v    17.537125 188.155195 161.053079
v    15.474109 187.559011 163.048583
v    6.455100 184.791439 171.801177
v    -9.087903 180.230394 182.704676
v    -19.019316 177.445401 186.010819
v    -23.793543 175.899794 187.612857
v    19.208315 179.346885 164.661237
v    20.961457 179.640938 164.661237
v    19.830228 181.012177 164.661237
v    20.791685 180.653115 168.486743
v    19.038543 180.359062 168.486743
v    20.169772 178.987823 168.486743
v    15.212028 186.988354 164.694197
v    25.368765 193.705484 175.991558
v    39.453543 203.271577 187.452262
v    43.202574 205.884311 188.916983
v    51.655144 211.289721 192.120037
v    25.950905 173.971029 164.694197
v    34.476084 182.665883 175.991558
v    46.544894 194.675667 187.452262
v    49.822581 197.859750 188.916983
v    56.736039 205.130822 192.120037
v    20.747035 180.560971 168.486743
v    19.140667 180.366465 168.486743
v    20.112298 179.072563 168.486743
v    19.252965 179.439029 171.342413
v    20.859333 179.633535 171.342413
v    19.887702 180.927437 171.342413
v    24.809742 172.506792 167.434740
v    14.039532 166.070905 179.075042
v    -0.907794 156.887470 190.883646
v    -6.833196 153.148031 193.129525
v    -19.678048 145.737631 197.863686
v    14.145257 186.708485 167.434740
v    4.961317 178.160193 179.075042
v    -8.026000 166.366651 190.883646
v    -13.269446 161.719063 193.129525
v    -23.967771 151.450174 197.863686
v    19.310251 179.516898 171.342413
v    20.763253 179.644211 171.342413
v    19.926496 180.838891 171.342413
v    20.689749 180.483102 172.825890
v    19.236747 180.355789 172.825890
v    20.073504 179.161109 172.825890
v    15.750102 187.041323 168.879071
v    26.837372 193.178122 180.635985
v    40.458873 200.938083 191.188390
v    55.492920 208.918985 197.341549
v    57.057896 209.492621 197.859607
v    25.164805 173.599481 168.879071
v    34.721400 181.921702 180.635985
v    46.669547 192.070793 191.188390
v    59.308102 203.471859 197.341549
v    60.382063 204.746542 197.859607
v    20.580840 180.414385 172.825890
v    19.350712 180.295829 172.825890
v    20.068448 179.289786 172.825890
v    19.419160 179.585615 174.013000
v    20.649288 179.704171 174.013000
v    19.931552 180.710214 174.013000
v    24.786848 172.545256 170.105327
v    13.862714 166.374246 181.745629
v    -1.304373 157.558493 193.554233
v    -6.987741 154.162935 195.676310
v    -22.047870 145.957921 201.151456
v    -25.289265 144.737773 202.227930
v    14.508641 186.952129 170.105327
v    5.118729 178.630614 181.745629
v    -8.152661 167.157678 193.554233
v    -13.212807 162.888556 195.676310
v    -25.871892 151.318020 201.151456
v    -28.080398 148.650079 202.227930
v    22.472081 181.602054 1.098381
v    23.188222 181.870883 1.629523
v    24.010102 182.191712 1.912323
v    24.564986 182.383311 2.099731
v    25.187773 182.527134 2.092592
v    22.785332 180.959005 1.098381
v    23.438459 181.357190 1.629523
v    24.197711 181.806583 1.912323
v    24.690623 182.125399 2.099731
v    25.187773 182.527134 2.092592
v    18.158794 177.838108 1.565810
v    17.899346 177.665770 1.855243
v    17.069241 177.119240 2.524238
v    15.919890 176.342590 2.968867
v    15.329030 175.976613 3.190750
v    15.083095 175.822321 3.187445
v    14.390932 175.506838 3.178993
v    17.488369 178.675037 1.565810
v    17.263558 178.459459 1.855243
v    16.549027 177.768652 2.524238
v    15.540245 176.816523 2.968867
v    15.054131 176.319786 3.190750
v    14.849881 176.113456 3.187445
v    14.390932 175.506838 3.178993
v    22.282578 181.628291 2.341392
v    22.824613 181.775457 2.862477
v    24.152796 182.153673 3.792049
v    25.117917 182.441101 4.114829
v    26.426088 182.774800 4.545832
v    26.977156 182.836180 4.718169
v    27.449914 182.894559 4.712876
v    22.783154 180.339927 2.341392
v    23.282361 180.597321 2.862477
v    24.517487 181.215043 3.792049
v    25.423495 181.654615 4.114829
v    26.613803 182.291666 4.545832
v    27.061756 182.618441 4.718169
v    27.449914 182.894559 4.712876
v    17.066380 178.344049 4.666115
v    16.771767 178.306486 4.941659
v    14.908934 178.045644 6.207807
v    13.015072 177.757180 6.821853
v    11.187596 177.552637 7.408912
v    9.757313 177.577033 7.455517
v    16.635372 180.166064 4.666115
v    16.355154 180.067647 4.941659
v    14.572888 179.466220 6.207807
v    12.750507 178.875586 6.821853
v    11.025075 178.239667 7.408912
v    9.757313 177.577033 7.455517
v    20.587984 182.810809 5.822898
v    21.586674 183.764792 7.106294
v    23.409580 185.492356 8.796843
v    25.942966 187.951007 9.928421
v    27.232194 189.106474 10.481115
v    27.795209 189.616934 10.472463
v    29.377498 190.708380 10.451106
v    22.708658 180.953702 5.822898
v    23.522533 182.069529 7.106294
v    24.994481 184.104434 8.796843
v    27.097383 186.940065 9.928421
v    28.072648 188.370475 10.481115
v    28.504361 188.995919 10.472463
v    29.377498 190.708380 10.451106
v    17.446008 176.479924 12.694756
v    14.272898 174.851697 15.166576
v    11.513149 173.389959 16.167589
v    8.615908 171.999694 17.193501
v    6.251603 171.222041 17.349704
v    15.732019 179.164441 12.694756
v    12.919694 176.971139 15.166576
v    10.432347 175.082756 16.167589
v    7.951978 173.039570 17.193501
v    6.251603 171.222041 17.349704
v    22.390962 184.543427 21.253342
v    23.792242 185.390838 22.429689
v    26.260529 186.840992 24.356676
v    32.621966 190.682136 26.738612
v    33.846593 191.356778 27.184970
v    36.343760 192.751204 27.152409
v    39.345362 193.938379 27.116545
v    25.066643 180.829795 21.253342
v    26.314050 181.890768 22.429689
v    28.470965 183.773084 24.356676
v    34.128287 188.591484 26.738612
v    35.155889 189.539579 27.184970
v    37.269084 191.466928 27.152409
v    39.345362 193.938379 27.116545
v    18.419131 175.435331 31.600698
v    16.887854 174.622082 33.211864
v    15.822529 174.042002 34.029394
v    12.202843 172.138653 36.782197
v    4.477519 167.956999 39.597911
v    2.393021 166.933458 40.339276
v    -0.296971 165.593382 40.305061
v    -4.138111 164.279652 40.259957
v    15.185909 180.399844 31.600698
v    13.822938 179.328166 33.211864
v    12.861632 178.588369 34.029394
v    9.657205 176.047401 36.782197
v    2.708923 170.672623 39.597911
v    0.929925 169.179998 40.339276
v    -1.383409 167.261575 40.305061
v    -4.138111 164.279652 40.259957
v    20.968679 185.086466 48.487370
v    23.717601 186.305309 51.281641
v    27.960960 188.239864 54.424699
v    29.673412 188.990738 55.683331
v    42.136218 194.635175 60.068680
v    49.093282 197.539540 59.982810
v    51.041865 198.055145 59.960415
v    53.890444 198.796946 59.438991
v    24.827833 178.128503 48.487370
v    27.317328 179.815088 51.281641
v    31.205263 182.390462 54.424699
v    32.748971 183.445580 55.683331
v    44.136185 191.029283 60.068680
v    50.283710 195.393227 59.982810
v    51.752863 196.773231 59.960415
v    53.890444 198.796946 59.438991
v    14.691137 173.837999 72.829665
v    7.883583 172.594599 77.609131
v    -9.793969 169.416210 83.869368
v    -11.766644 169.051681 83.846446
v    -19.791070 167.880702 83.754123
v    -25.408777 167.828337 82.991989
v    -25.758805 167.827876 82.887883
v    12.331169 182.709854 72.829665
v    5.805556 180.406550 77.609131
v    -11.114814 174.381679 83.869368
v    -13.007886 173.717895 83.846446
v    -20.553558 170.747131 83.754123
v    -25.454810 168.001389 82.991989
v    -25.758805 167.827876 82.887883
v    29.912761 189.068636 96.823748
v    34.495803 190.487837 100.053220
v    49.394347 195.298587 105.071484
v    53.195860 196.361503 106.331650
v    58.449113 197.862904 106.269449
v    65.538533 198.903517 106.189837
v    33.420945 180.617427 96.823748
v    37.661743 182.861094 100.053220
v    51.587385 190.015563 105.071484
v    55.024088 191.957305 106.331650
v    59.796284 194.617573 106.269449
v    65.538533 198.903517 106.189837
v    5.188361 161.998953 126.618850
v    -6.645999 153.773920 131.238347
v    -11.149299 150.902164 132.943455
v    -15.811616 147.891208 132.880270
v    -23.337283 144.341074 132.787818
v    -0.516501 168.932230 126.618850
v    -10.866620 158.903358 131.238347
v    -14.551861 155.037392 132.943455
v    -18.404319 151.042192 132.880270
v    -23.337283 144.341074 132.787818
v    40.352642 207.820947 151.608265
v    47.069798 213.794582 154.489580
v    50.959936 216.986895 156.096125
v    56.666926 221.725244 156.011677
v    64.690896 226.759098 155.906434
v    46.872396 201.589568 151.608265
v    52.536252 208.569914 154.489580
v    55.549436 212.600393 156.096125
v    60.024937 218.515760 156.011677
v    64.690896 226.759098 155.906434
v    -0.690739 152.381223 165.361810
v    -4.004382 149.511307 166.766925
v    -14.552677 141.084259 171.077129
v    -15.866828 140.305003 171.551991
v    -23.527327 135.638055 171.452327
v    -7.220863 158.788491 165.361810
v    -10.027333 155.420943 166.766925
v    -18.252542 144.714514 171.077129
v    -19.006700 143.385802 171.551991
v    -23.527327 135.638055 171.452327
v    46.740523 216.481504 180.947698
v    56.818211 225.245044 185.211276
v    57.778799 226.090104 185.196710
v    67.393486 232.511876 185.068248
v    53.557706 210.328799 180.947698
v    61.245457 221.249325 185.211276
v    61.987925 222.291246 185.196710
v    67.393486 232.511876 185.068248
v    -22.133515 167.372530 187.612857
v    -32.923421 166.600333 191.066307
v    -40.953103 167.142270 193.567696
v    -44.917441 167.362329 193.523582
v    -23.793543 175.899794 187.612857
v    -34.085162 172.567988 191.066307
v    -41.325160 169.053458 193.567696
v    -44.917441 167.362329 193.523582
v    51.655144 211.289721 192.120037
v    57.225319 214.851843 194.230823
v    68.536538 220.041095 198.098787
v    56.736039 205.130822 192.120037
v    61.291952 209.922400 194.230823
v    68.536538 220.041095 198.098787
v    -19.678048 145.737631 197.863686
v    -21.688507 144.577764 198.604671
v    -33.575108 139.768817 202.590050
v    -23.967771 151.450174 197.863686
v    -25.642259 149.842900 198.604671
v    -33.575108 139.768817 202.590050
v    57.057896 209.492621 197.859607
v    67.652766 213.376130 201.366853
v    60.382063 204.746542 197.859607
v    67.652766 213.376130 201.366853
v    -25.289265 144.737773 202.227930
v    -34.048340 141.440623 205.136835
v    -28.080398 148.650079 202.227930
v    -34.048340 141.440623 205.136835
mtllib usm_16_2.5D_2018-09-06_4.mtl
usemtl APPID_429934032_2208043375744 
o vid_3 
f 3 2 1
f 4 5 6
f 1 6 5
f 1 5 3
f 3 5 4
f 4 2 3
f 2 4 6
f 6 1 2
usemtl APPID_429933472_2208043380480 
o vid_4 
f 7 10 11
f 7 11 8
f 8 11 12
f 8 12 9
usemtl APPID_429934032_2208043375744 
o vid_5 
f 15 14 13
f 16 17 18
f 13 18 17
f 13 17 15
f 15 17 16
f 16 14 15
f 14 16 18
f 18 13 14
usemtl APPID_429933472_2208043380480 
o vid_6 
f 19 21 22
f 19 22 20
f 19 21 22
f 19 22 20
usemtl APPID_429934032_2208043375744 
o vid_7 
f 25 24 23
f 26 27 28
f 23 28 27
f 23 27 25
f 25 27 26
f 26 24 25
f 24 26 28
f 28 23 24
usemtl APPID_429933472_2208043380480 
o vid_8 
f 29 32 33
f 29 33 30
f 30 33 34
f 30 34 31
usemtl APPID_429934032_2208043375744 
o vid_9 
f 37 36 35
f 38 39 40
f 35 40 39
f 35 39 37
f 37 39 38
f 38 36 37
f 36 38 40
f 40 35 36
usemtl APPID_429933472_2208043380480 
o vid_10 
f 41 44 45
f 41 45 42
f 42 45 46
f 42 46 43
usemtl APPID_429934032_2208043375744 
o vid_11 
f 49 48 47
f 50 51 52
f 47 52 51
f 47 51 49
f 49 51 50
f 50 48 49
f 48 50 52
f 52 47 48
usemtl APPID_429933472_2208043380480 
o vid_12 
f 53 55 56
f 53 56 54
f 53 55 56
f 53 56 54
usemtl APPID_429934032_2208043375744 
o vid_13 
f 59 58 57
f 60 61 62
f 57 62 61
f 57 61 59
f 59 61 60
f 60 58 59
f 58 60 62
f 62 57 58
usemtl APPID_429933472_2208043380480 
o vid_14 
f 63 66 67
f 63 67 64
f 64 67 68
f 64 68 65
usemtl APPID_429934032_2208043375744 
o vid_15 
f 71 70 69
f 72 73 74
f 69 74 73
f 69 73 71
f 71 73 72
f 72 70 71
f 70 72 74
f 74 69 70
usemtl APPID_429933472_2208043380480 
o vid_16 
f 75 77 78
f 75 78 76
f 75 77 78
f 75 78 76
usemtl APPID_429934032_2208043375744 
o vid_17 
f 81 80 79
f 82 83 84
f 79 84 83
f 79 83 81
f 81 83 82
f 82 80 81
f 80 82 84
f 84 79 80
usemtl APPID_429933472_2208043380480 
o vid_18 
f 85 87 88
f 85 88 86
f 85 87 88
f 85 88 86
usemtl APPID_429934032_2208043375744 
o vid_19 
f 91 90 89
f 92 93 94
f 89 94 93
f 89 93 91
f 91 93 92
f 92 90 91
f 90 92 94
f 94 89 90
usemtl APPID_429933472_2208043380480 
o vid_20 
f 95 97 98
f 95 98 96
f 95 97 98
f 95 98 96
usemtl APPID_429934032_2208043375744 
o vid_21 
f 101 100 99
f 102 103 104
f 99 104 103
f 99 103 101
f 101 103 102
f 102 100 101
f 100 102 104
f 104 99 100
usemtl APPID_429933472_2208043380480 
o vid_22 
f 105 107 108
f 105 108 106
f 105 107 108
f 105 108 106
usemtl APPID_429934032_2208043375744 
o vid_23 
f 111 110 109
f 112 113 114
f 109 114 113
f 109 113 111
f 111 113 112
f 112 110 111
f 110 112 114
f 114 109 110
usemtl APPID_429933472_2208043380480 
o vid_24 
f 115 119 120
f 116 120 121
f 115 120 116
f 116 121 117
f 117 121 122
f 117 122 118
usemtl APPID_429934032_2208043375744 
o vid_25 
f 125 124 123
f 126 127 128
f 123 128 127
f 123 127 125
f 125 127 126
f 126 124 125
f 124 126 128
f 128 123 124
usemtl APPID_429933472_2208043380480 
o vid_26 
f 129 134 135
f 130 135 136
f 131 136 137
f 129 135 130
f 130 136 131
f 131 137 132
f 132 137 138
f 132 138 133
usemtl APPID_429934032_2208043375744 
o vid_27 
f 141 140 139
f 142 143 144
f 139 144 143
f 139 143 141
f 141 143 142
f 142 140 141
f 140 142 144
f 144 139 140
usemtl APPID_429933472_2208043380480 
o vid_28 
f 145 150 151
f 146 151 152
f 147 152 153
f 145 151 146
f 146 152 147
f 147 153 148
f 148 153 154
f 148 154 149
usemtl APPID_429934032_2208043375744 
o vid_29 
f 157 156 155
f 158 159 160
f 155 160 159
f 155 159 157
f 157 159 158
f 158 156 157
f 156 158 160
f 160 155 156
usemtl APPID_429933472_2208043380480 
o vid_30 
f 161 166 167
f 162 167 168
f 163 168 169
f 161 167 162
f 162 168 163
f 163 169 164
f 164 169 170
f 164 170 165
usemtl APPID_429934032_2208043375744 
o vid_31 
f 173 172 171
f 174 175 176
f 171 176 175
f 171 175 173
f 173 175 174
f 174 172 173
f 172 174 176
f 176 171 172
usemtl APPID_429933472_2208043380480 
o vid_32 
f 177 183 184
f 178 184 185
f 179 185 186
f 180 186 187
f 177 184 178
f 178 185 179
f 179 186 180
f 180 187 181
f 181 187 188
f 181 188 182
usemtl APPID_429934032_2208043375744 
o vid_33 
f 191 190 189
f 192 193 194
f 189 194 193
f 189 193 191
f 191 193 192
f 192 190 191
f 190 192 194
f 194 189 190
usemtl APPID_429933472_2208043380480 
o vid_34 
f 195 201 202
f 196 202 203
f 197 203 204
f 198 204 205
f 195 202 196
f 196 203 197
f 197 204 198
f 198 205 199
f 199 205 206
f 199 206 200
usemtl APPID_429934032_2208043375744 
o vid_35 
f 209 208 207
f 210 211 212
f 207 212 211
f 207 211 209
f 209 211 210
f 210 208 209
f 208 210 212
f 212 207 208
usemtl APPID_429933472_2208043380480 
o vid_36 
f 213 218 219
f 214 219 220
f 215 220 221
f 213 219 214
f 214 220 215
f 215 221 216
f 216 221 222
f 216 222 217
usemtl APPID_429934032_2208043375744 
o vid_37 
f 225 224 223
f 226 227 228
f 223 228 227
f 223 227 225
f 225 227 226
f 226 224 225
f 224 226 228
f 228 223 224
usemtl APPID_429933472_2208043380480 
o vid_38 
f 229 234 235
f 230 235 236
f 231 236 237
f 229 235 230
f 230 236 231
f 231 237 232
f 232 237 238
f 232 238 233
usemtl APPID_429934032_2208043375744 
o vid_39 
f 241 240 239
f 242 243 244
f 239 244 243
f 239 243 241
f 241 243 242
f 242 240 241
f 240 242 244
f 244 239 240
usemtl APPID_429933472_2208043380480 
o vid_40 
f 245 250 251
f 246 251 252
f 247 252 253
f 245 251 246
f 246 252 247
f 247 253 248
f 248 253 254
f 248 254 249
usemtl APPID_429934032_2208043375744 
o vid_41 
f 257 256 255
f 258 259 260
f 255 260 259
f 255 259 257
f 257 259 258
f 258 256 257
f 256 258 260
f 260 255 256
usemtl APPID_429933472_2208043380480 
o vid_42 
f 261 267 268
f 262 268 269
f 263 269 270
f 264 270 271
f 261 268 262
f 262 269 263
f 263 270 264
f 264 271 265
f 265 271 272
f 265 272 266
usemtl APPID_429932464_2208043377536 
o vid_10000004 
f 273 278 279
f 274 279 280
f 275 280 281
f 273 279 274
f 274 280 275
f 275 281 276
f 276 281 282
usemtl APPID_429932464_2208043377536 
o vid_10000006 
f 283 290 291
f 284 291 292
f 285 292 293
f 286 293 294
f 287 294 295
f 283 291 284
f 284 292 285
f 285 293 286
f 286 294 287
f 287 295 288
f 288 295 296
usemtl APPID_429932464_2208043377536 
o vid_10000008 
f 297 304 305
f 298 305 306
f 299 306 307
f 300 307 308
f 301 308 309
f 297 305 298
f 298 306 299
f 299 307 300
f 300 308 301
f 301 309 302
f 302 309 310
usemtl APPID_429932464_2208043377536 
o vid_10000010 
f 311 317 318
f 312 318 319
f 313 319 320
f 314 320 321
f 311 318 312
f 312 319 313
f 313 320 314
f 314 321 315
f 315 321 322
usemtl APPID_429932464_2208043377536 
o vid_10000012 
f 323 330 331
f 324 331 332
f 325 332 333
f 326 333 334
f 327 334 335
f 323 331 324
f 324 332 325
f 325 333 326
f 326 334 327
f 327 335 328
f 328 335 336
usemtl APPID_429932464_2208043377536 
o vid_10000014 
f 337 342 343
f 338 343 344
f 339 344 345
f 337 343 338
f 338 344 339
f 339 345 340
f 340 345 346
usemtl APPID_429932464_2208043377536 
o vid_10000016 
f 347 354 355
f 348 355 356
f 349 356 357
f 350 357 358
f 351 358 359
f 347 355 348
f 348 356 349
f 349 357 350
f 350 358 351
f 351 359 352
f 352 359 360
usemtl APPID_429932464_2208043377536 
o vid_10000018 
f 361 369 370
f 362 370 371
f 363 371 372
f 364 372 373
f 365 373 374
f 366 374 375
f 361 370 362
f 362 371 363
f 363 372 364
f 364 373 365
f 365 374 366
f 366 375 367
f 367 375 376
usemtl APPID_429932464_2208043377536 
o vid_10000020 
f 377 385 386
f 378 386 387
f 379 387 388
f 380 388 389
f 381 389 390
f 382 390 391
f 377 386 378
f 378 387 379
f 379 388 380
f 380 389 381
f 381 390 382
f 382 391 383
f 383 391 392
usemtl APPID_429932464_2208043377536 
o vid_10000022 
f 393 400 401
f 394 401 402
f 395 402 403
f 396 403 404
f 397 404 405
f 393 401 394
f 394 402 395
f 395 403 396
f 396 404 397
f 397 405 398
f 398 405 406
usemtl APPID_429932464_2208043377536 
o vid_10000024 
f 407 413 414
f 408 414 415
f 409 415 416
f 410 416 417
f 407 414 408
f 408 415 409
f 409 416 410
f 410 417 411
f 411 417 418
usemtl APPID_429932464_2208043377536 
o vid_10000026 
f 419 424 425
f 420 425 426
f 421 426 427
f 419 425 420
f 420 426 421
f 421 427 422
f 422 427 428
usemtl APPID_429932464_2208043377536 
o vid_10000028 
f 429 434 435
f 430 435 436
f 431 436 437
f 429 435 430
f 430 436 431
f 431 437 432
f 432 437 438
usemtl APPID_429932464_2208043377536 
o vid_10000030 
f 439 444 445
f 440 445 446
f 441 446 447
f 439 445 440
f 440 446 441
f 441 447 442
f 442 447 448
usemtl APPID_429932464_2208043377536 
o vid_10000032 
f 449 453 454
f 450 454 455
f 449 454 450
f 450 455 451
f 451 455 456
usemtl APPID_429932464_2208043377536 
o vid_10000034 
f 457 461 462
f 458 462 463
f 457 462 458
f 458 463 459
f 459 463 464
usemtl APPID_429932464_2208043377536 
o vid_10000036 
f 465 468 469
f 465 469 466
f 466 469 470
usemtl APPID_429932464_2208043377536 
o vid_10000038 
f 471 474 475
f 471 475 472
f 472 475 476
usemtl APPID_429932464_2208043377536 
o vid_10000040 
f 477 479 480
f 477 480 478
f 477 479 480
usemtl APPID_429932464_2208043377536 
o vid_10000042 
f 481 483 484
f 481 484 482
f 481 483 484
