# File generated by PlantGL - Fri Sep  4 14:43:13 2026
v    17.752484 258.905161 0.000000
v    22.071916 258.601013 0.000000
v    20.175600 262.493825 0.000000
v    22.247516 261.094839 0.848509
v    17.928084 261.398987 0.848509
v    19.824400 257.506175 0.848509
v    22.063318 261.447212 0.691549
v    22.452716 261.595674 1.078805
v    23.193535 261.873497 1.633424
v    24.003383 262.189629 1.912084
v    24.577479 262.387862 2.105980
v    25.066038 262.501299 2.100377
v    22.411435 260.732586 0.691549
v    22.768371 260.947689 1.078805
v    23.443792 261.359763 1.633424
v    24.191930 261.802576 1.912084
v    24.701907 262.132431 2.105980
v    25.092389 262.447204 2.100377
v    21.879284 261.505407 0.848509
v    17.756638 260.874804 0.848509
v    20.364078 257.619789 0.848509
v    18.120716 258.494593 1.417165
v    22.243362 259.125196 1.417165
v    19.635922 262.380211 1.417165
v    18.491111 258.057764 1.194819
v    17.910613 257.672168 1.842408
v    17.063494 257.114708 2.529059
v    15.928231 256.347578 2.968238
v    15.315130 255.967825 3.198473
v    15.088695 255.825767 3.195430
v    14.464011 255.541040 3.187802
v    17.775261 258.951400 1.194819
v    17.272262 258.469058 1.842408
v    16.543350 257.764034 2.529059
v    15.546932 256.823574 2.968238
v    15.042520 256.308139 3.198473
v    14.854465 256.118169 3.195430
v    14.440260 255.570690 3.187802
v    17.841416 259.161313 1.417165
v    21.805616 258.549955 1.417165
v    20.352968 262.288732 1.417165
v    22.158584 260.838687 2.253766
v    18.194384 261.450045 2.253766
v    19.647032 257.711268 2.253766
v    21.872752 261.513089 1.945001
v    22.123264 261.585540 2.187329
v    22.827931 261.776861 2.864761
v    24.161097 262.156496 3.797819
v    25.103068 262.437030 4.112858
v    26.416146 262.771980 4.545477
v    26.997911 262.836779 4.727414
v    27.389306 262.885111 4.723032
v    22.403054 260.148215 1.945001
v    22.636768 260.263903 2.187329
v    23.285756 260.598526 2.864761
v    24.525517 261.218565 3.797819
v    25.409792 261.647593 4.112858
v    26.604566 262.287033 4.545477
v    27.077471 262.632011 4.727414
v    27.398826 262.860608 4.723032
v    22.144707 260.507343 2.253766
v    18.488275 261.603699 2.253766
v    19.367018 257.888958 2.253766
v    17.855293 259.492657 4.112548
v    21.511725 258.396301 4.112548
v    20.632982 262.111042 4.112548
v    18.122825 258.492914 3.692223
v    17.350628 258.381549 4.417211
v    16.787061 258.309694 4.944300
v    14.918295 258.048021 6.214480
v    13.048689 257.763251 6.820662
v    11.215392 257.558057 7.409591
v    9.813528 257.582399 7.466881
v    17.646545 260.506306 3.692223
v    16.906295 260.259893 4.417211
v    16.370265 260.071632 4.944300
v    14.582322 259.468289 6.214480
v    12.783281 258.885219 6.820662
v    11.052353 258.247275 7.409591
v    9.809974 257.597422 7.466881
v    18.827614 258.661225 4.112548
v    21.745606 259.654071 4.112548
v    19.426780 261.684704 4.112548
v    21.172386 261.338775 5.999272
v    18.254394 260.345929 5.999272
v    20.573220 258.315296 5.999272
v    20.056836 262.262104 5.438355
v    21.354763 263.501927 7.106294
v    23.185134 265.235970 8.804272
v    25.699982 267.676632 9.927570
v    27.018957 268.858758 10.493017
v    27.555980 269.345653 10.484764
v    29.128031 270.430036 10.463545
v    22.234829 260.354801 5.438355
v    23.292565 261.804963 7.106294
v    24.769950 263.848122 8.804272
v    26.857465 266.663005 9.927570
v    27.855232 268.126419 10.493017
v    28.267015 268.722988 10.484764
v    29.134503 270.424369 10.463545
v    21.166505 260.744780 5.999272
v    18.771749 260.637833 5.999272
v    20.061746 258.617387 5.999272
v    18.833495 259.255220 11.505015
v    21.228251 259.362167 11.505015
v    19.938254 261.382613 11.505015
v    19.842059 257.773549 10.771227
v    18.776857 257.220112 11.886694
v    17.744493 256.705077 12.957059
v    14.815029 255.198305 15.174495
v    12.083305 253.751411 16.165343
v    9.179798 252.358139 17.193474
v    6.812007 251.579843 17.362806
v    17.913816 260.793641 10.771227
v    16.963517 260.060239 11.886694
v    16.061873 259.340464 12.957059
v    13.462255 257.317076 15.174495
v    11.000166 255.447868 16.165343
v    8.514432 253.400263 17.193474
v    6.812007 251.579843 17.362806
v    19.174695 259.405366 11.505015
v    20.927621 259.582582 11.505015
v    19.897684 261.012053 11.505015
v    20.825305 260.594634 19.658889
v    19.072379 260.417418 19.658889
v    20.102316 258.987947 19.658889
v    19.289945 262.609921 18.717867
v    21.884546 264.148669 21.521016
v    23.012583 264.833630 22.410454
v    25.515779 266.304293 24.364694
v    31.853089 270.130869 26.737596
v    33.115745 270.826460 27.197815
v    35.579570 272.202269 27.165688
v    38.586295 273.391469 27.129764
v    22.250942 258.500292 18.717867
v    24.531880 260.474380 21.521016
v    25.538696 261.327586 22.410454
v    27.726115 263.236523 24.364694
v    33.361980 268.036648 26.737596
v    34.421494 269.014185 27.197815
v    36.506473 270.915801 27.165688
v    38.586295 273.391469 27.129764
v    20.569154 260.370671 19.658889
v    19.394412 260.307566 19.658889
v    20.036434 259.321763 19.658889
v    19.430846 259.629329 23.198000
v    20.605588 259.692434 23.198000
v    19.963566 260.678237 23.198000
v    20.569227 257.654329 20.847481
v    18.010424 256.465063 25.193070
v    16.044142 255.487466 27.642546
v    14.119157 254.661820 29.960035
v    12.332569 253.817051 31.187523
v    8.990595 252.829941 33.280745
v    18.084803 261.469086 20.847481
v    15.962447 259.609669 25.193070
v    14.273269 258.206587 27.642546
v    12.739765 256.779833 29.960035
v    11.244732 255.487391 31.187523
v    8.990595 252.829941 33.280745
v    25.066038 262.501299 2.100377
v    25.186155 262.526346 2.099014
v    25.092389 262.447204 2.100377
v    25.186155 262.526346 2.099014
v    14.464011 255.541040 3.187802
v    14.393518 255.508910 3.186942
v    14.440260 255.570690 3.187802
v    14.393518 255.508910 3.186942
v    27.389306 262.885111 4.723032
v    27.442506 262.891680 4.722437
v    27.398826 262.860608 4.723032
v    27.442506 262.891680 4.722437
v    9.813528 257.582399 7.466881
v    9.782050 257.582885 7.466532
v    9.809974 257.597422 7.466881
v    9.782050 257.582885 7.466532
v    29.128031 270.430036 10.463545
v    29.142471 270.439996 10.463350
v    29.134503 270.424369 10.463545
v    29.142471 270.439996 10.463350
mtllib usm_18_2.5D_2018-07-24_6.mtl
usemtl APPID_2970046240_2459690779104 
o vid_3 
f 3 2 1
f 4 5 6
f 1 6 5
f 1 5 3
f 3 5 4
f 4 2 3
f 2 4 6
f 6 1 2
usemtl APPID_2970045680_2459690782048 
o vid_4 
f 7 13 14
f 8 14 15
f 9 15 16
f 10 16 17
f 7 14 8
f 8 15 9
f 9 16 10
f 10 17 11
f 11 17 18
f 11 18 12
usemtl APPID_2970046240_2459690779104 
o vid_5 
f 21 20 19
f 22 23 24
f 19 24 23
f 19 23 21
f 21 23 22
f 22 20 21
f 20 22 24
f 24 19 20
usemtl APPID_2970045680_2459690782048 
o vid_6 
f 25 32 33
f 26 33 34
f 27 34 35
f 28 35 36
f 29 36 37
f 25 33 26
f 26 34 27
f 27 35 28
f 28 36 29
f 29 37 30
f 30 37 38
f 30 38 31
usemtl APPID_2970046240_2459690779104 
o vid_7 
f 41 40 39
f 42 43 44
f 39 44 43
f 39 43 41
f 41 43 42
f 42 40 41
f 40 42 44
f 44 39 40
usemtl APPID_2970045680_2459690782048 
o vid_8 
f 45 53 54
f 46 54 55
f 47 55 56
f 48 56 57
f 49 57 58
f 50 58 59
f 45 54 46
f 46 55 47
f 47 56 48
f 48 57 49
f 49 58 50
f 50 59 51
f 51 59 60
f 51 60 52
usemtl APPID_2970046240_2459690779104 
o vid_9 
f 63 62 61
f 64 65 66
f 61 66 65
f 61 65 63
f 63 65 64
f 64 62 63
f 62 64 66
f 66 61 62
usemtl APPID_2970045680_2459690782048 
o vid_10 
f 67 74 75
f 68 75 76
f 69 76 77
f 70 77 78
f 71 78 79
f 67 75 68
f 68 76 69
f 69 77 70
f 70 78 71
f 71 79 72
f 72 79 80
f 72 80 73
usemtl APPID_2970046240_2459690779104 
o vid_11 
f 83 82 81
f 84 85 86
f 81 86 85
f 81 85 83
f 83 85 84
f 84 82 83
f 82 84 86
f 86 81 82
usemtl APPID_2970045680_2459690782048 
o vid_12 
f 87 94 95
f 88 95 96
f 89 96 97
f 90 97 98
f 91 98 99
f 87 95 88
f 88 96 89
f 89 97 90
f 90 98 91
f 91 99 92
f 92 99 100
f 92 100 93
usemtl APPID_2970046240_2459690779104 
o vid_13 
f 103 102 101
f 104 105 106
f 101 106 105
f 101 105 103
f 103 105 104
f 104 102 103
f 102 104 106
f 106 101 102
usemtl APPID_2970045680_2459690782048 
o vid_14 
f 107 114 115
f 108 115 116
f 109 116 117
f 110 117 118
f 111 118 119
f 107 115 108
f 108 116 109
f 109 117 110
f 110 118 111
f 111 119 112
f 112 119 120
usemtl APPID_2970046240_2459690779104 
o vid_15 
f 123 122 121
f 124 125 126
f 121 126 125
f 121 125 123
f 123 125 124
f 124 122 123
f 122 124 126
f 126 121 122
usemtl APPID_2970045680_2459690782048 
o vid_16 
f 127 135 136
f 128 136 137
f 129 137 138
f 130 138 139
f 131 139 140
f 132 140 141
f 127 136 128
f 128 137 129
f 129 138 130
f 130 139 131
f 131 140 132
f 132 141 133
f 133 141 142
usemtl APPID_2970046240_2459690779104 
o vid_17 
f 145 144 143
f 146 147 148
f 143 148 147
f 143 147 145
f 145 147 146
f 146 144 145
f 144 146 148
f 148 143 144
usemtl APPID_2970045680_2459690782048 
o vid_18 
f 149 155 156
f 150 156 157
f 151 157 158
f 152 158 159
f 149 156 150
f 150 157 151
f 151 158 152
f 152 159 153
f 153 159 160
usemtl APPID_2970049376_2459690782176 
o vid_10000004 
f 161 163 164
f 161 164 162
f 161 163 164
usemtl APPID_2970049376_2459690782176 
o vid_10000006 
f 165 167 168
f 165 168 166
f 165 167 168
usemtl APPID_2970049376_2459690782176 
o vid_10000008 
f 169 171 172
f 169 172 170
f 169 171 172
usemtl APPID_2970049376_2459690782176 
o vid_10000010 
f 173 175 176
f 173 176 174
f 173 175 176
usemtl APPID_2970049376_2459690782176 
o vid_10000012 
f 177 179 180
f 177 180 178
f 177 179 180
