# File generated by PlantGL - Fri Sep  4 14:41:45 2026
v    18.201987 19.124129 0.000000
v    21.657533 18.880811 0.000000
v    20.140480 21.995060 0.000000
v    21.798013 20.875871 0.231332
v    18.342467 21.119189 0.231332
v    19.859520 18.004940 0.231332
v    21.015964 20.863788 -2.217588
v    22.109606 21.027658 -1.213902
v    21.306424 20.267524 -2.217588
v    22.109606 21.027658 -1.213902
v    21.503548 21.204422 0.231332
v    18.205166 20.699900 0.231332
v    20.291286 18.095678 0.231332
v    18.496452 18.795578 0.322458
v    21.794834 19.300100 0.322458
v    19.708714 21.904322 0.322458
v    19.315978 18.905535 -2.126463
v    17.990268 18.390098 -0.835485
v    18.782627 19.571347 -2.126463
v    17.990268 18.390098 -0.835485
v    18.272844 19.328938 0.322458
v    21.444735 18.839770 0.322458
v    20.282421 21.831292 0.322458
v    21.727156 20.671062 0.466406
v    18.555265 21.160230 0.466406
v    19.717579 18.168708 0.466406
v    20.852067 20.967411 -1.982514
v    22.825721 21.097894 -0.187286
v    21.281701 19.861635 -1.982514
v    22.825721 21.097894 -0.187286
v    21.731622 20.409625 0.466406
v    18.779443 21.294816 0.466406
v    19.488935 18.295559 0.466406
v    18.268378 19.590375 0.678771
v    21.220557 18.705184 0.678771
v    20.511065 21.704441 0.678771
v    19.151139 18.935761 -1.770150
v    16.356526 19.138115 0.772923
v    18.764285 20.571120 -1.770150
v    16.356526 19.138115 0.772923
v    18.928901 18.776888 0.678771
v    21.594795 19.683957 0.678771
v    19.476303 21.539155 0.678771
v    21.071099 21.223112 0.919581
v    18.405205 20.316043 0.919581
v    20.523697 18.460845 0.919581
v    19.448748 21.702252 -1.529339
v    23.823923 24.366626 3.120010
v    21.760103 19.678162 -1.529339
v    23.823923 24.366626 3.120010
v    21.096282 20.699945 0.919581
v    18.845689 20.599436 0.919581
v    20.058029 18.700619 0.919581
v    18.903718 19.300055 1.432331
v    21.154311 19.400564 1.432331
v    19.941971 21.299381 1.432331
v    20.335826 18.373338 -1.016590
v    15.340054 17.024757 3.679947
v    18.665696 20.989163 -1.016590
v    15.340054 17.024757 3.679947
v    19.189859 19.416292 1.432331
v    20.910577 19.590252 1.432331
v    19.899564 20.993457 1.432331
v    20.810141 20.583708 2.225064
v    19.089423 20.409748 2.225064
v    20.100436 19.006543 2.225064
v    18.954322 21.947685 -0.223857
v    21.267330 23.136958 2.223010
v    26.169008 24.760156 6.909435
v    27.089889 25.108282 7.508228
v    21.516520 18.391558 -0.223857
v    23.376815 20.209159 2.223010
v    26.468162 24.344954 6.909435
v    27.089889 25.108282 7.508228
v    20.602780 20.392570 2.225064
v    19.358634 20.325737 2.225064
v    20.038586 19.281692 2.225064
v    19.397220 19.607430 2.921161
v    20.641366 19.674263 2.921161
v    19.961414 20.718308 2.921161
v    21.153394 18.208869 0.472241
v    19.160815 17.300262 2.532555
v    13.778002 15.794883 7.605532
v    13.309082 15.642428 7.905438
v    18.828195 21.779141 0.472241
v    17.191482 20.324111 2.532555
v    13.638125 16.009659 7.605532
v    13.309082 15.642428 7.905438
v    19.594981 19.775361 2.921161
v    20.397052 19.761563 2.921161
v    20.007966 20.463076 2.921161
v    20.405019 20.224639 3.257000
v    19.602948 20.238437 3.257000
v    19.992034 19.536924 3.257000
v    19.470064 21.231265 -1.712903
v    22.014330 21.117225 3.726860
v    20.763904 18.898502 -1.712903
v    22.014330 21.117225 3.726860
mtllib usm_5_2.5D_2018-07-31_0.mtl
usemtl APPID_3209474464_2296721734272 
o vid_3 
f 3 2 1
f 4 5 6
f 1 6 5
f 1 5 3
f 3 5 4
f 4 2 3
f 2 4 6
f 6 1 2
usemtl APPID_3209475808_2296721730048 
o vid_4 
f 7 9 10
f 7 10 8
f 7 9 10
usemtl APPID_3209474464_2296721734272 
o vid_5 
f 13 12 11
f 14 15 16
f 11 16 15
f 11 15 13
f 13 15 14
f 14 12 13
f 12 14 16
f 16 11 12
usemtl APPID_3209475808_2296721730048 
o vid_6 
f 17 19 20
f 17 20 18
f 17 19 20
usemtl APPID_3209474464_2296721734272 
o vid_7 
f 23 22 21
f 24 25 26
f 21 26 25
f 21 25 23
f 23 25 24
f 24 22 23
f 22 24 26
f 26 21 22
usemtl APPID_3209475808_2296721730048 
o vid_8 
f 27 29 30
f 27 30 28
f 27 29 30
usemtl APPID_3209474464_2296721734272 
o vid_9 
f 33 32 31
f 34 35 36
f 31 36 35
f 31 35 33
f 33 35 34
f 34 32 33
f 32 34 36
f 36 31 32
usemtl APPID_3209475808_2296721730048 
o vid_10 
f 37 39 40
f 37 40 38
f 37 39 40
usemtl APPID_3209474464_2296721734272 
o vid_11 
f 43 42 41
f 44 45 46
f 41 46 45
f 41 45 43
f 43 45 44
f 44 42 43
f 42 44 46
f 46 41 42
usemtl APPID_3209475808_2296721730048 
o vid_12 
f 47 49 50
f 47 50 48
f 47 49 50
usemtl APPID_3209474464_2296721734272 
o vid_13 
f 53 52 51
f 54 55 56
f 51 56 55
f 51 55 53
f 53 55 54
f 54 52 53
f 52 54 56
f 56 51 52
usemtl APPID_3209475808_2296721730048 
o vid_14 
f 57 59 60
f 57 60 58
f 57 59 60
usemtl APPID_3209474464_2296721734272 
o vid_15 
f 63 62 61
f 64 65 66
f 61 66 65
f 61 65 63
f 63 65 64
f 64 62 63
f 62 64 66
f 66 61 62
usemtl APPID_3209475808_2296721730048 
o vid_16 
f 67 71 72
f 68 72 73
f 67 72 68
f 68 73 69
f 69 73 74
usemtl APPID_3209474464_2296721734272 
o vid_17 
f 77 76 75
f 78 79 80
f 75 80 79
f 75 79 77
f 77 79 78
f 78 76 77
f 76 78 80
f 80 75 76
usemtl APPID_3209475808_2296721730048 
o vid_18 
f 81 85 86
f 82 86 87
f 81 86 82
f 82 87 83
f 83 87 88
usemtl APPID_3209474464_2296721734272 
o vid_19 
f 91 90 89
f 92 93 94
f 89 94 93
f 89 93 91
f 91 93 92
f 92 90 91
f 90 92 94
f 94 89 90
usemtl APPID_3209475808_2296721730048 
o vid_20 
f 95 97 98
f 95 98 96
f 95 97 98
