# File generated by PlantGL - Fri Sep  4 14:43:31 2026
v    18.201987 59.124129 0.000000
v    21.657533 58.880811 0.000000
v    20.140480 61.995060 0.000000
v    21.798013 60.875871 0.231332
v    18.342467 61.119189 0.231332
v    19.859520 58.004940 0.231332
v    21.032756 60.884146 -2.134577
v    22.162506 61.053427 -1.097752
v    21.332806 60.268196 -2.134577
v    22.162506 61.053427 -1.097752
v    21.503548 61.204422 0.231332
v    18.205166 60.699900 0.231332
v    20.291286 58.095678 0.231332
v    18.496452 58.795578 0.322458
v    21.794834 59.300100 0.322458
v    19.708714 61.904322 0.322458
v    19.305881 58.879734 -2.043451
v    17.937205 58.347591 -0.710633
v    18.755244 59.567124 -2.043451
v    17.937205 58.347591 -0.710633
v    18.272844 59.328938 0.322458
v    21.444735 58.839770 0.322458
v    20.282421 61.831292 0.322458
v    21.727156 60.671062 0.466406
v    18.555265 61.160230 0.466406
v    19.717579 58.168708 0.466406
v    20.867723 60.993416 -1.899503
v    22.903167 61.127985 -0.048070
v    21.310808 59.853021 -1.899503
v    22.903167 61.127985 -0.048070
v    21.731622 60.409625 0.466406
v    18.779443 61.294816 0.466406
v    19.488935 58.295559 0.466406
v    18.268378 59.590375 0.678771
v    21.220557 58.705184 0.678771
v    20.511065 61.704441 0.678771
v    19.133496 58.906037 -1.687138
v    16.256186 59.114379 0.931188
v    18.735195 60.589789 -1.687138
v    16.256186 59.114379 0.931188
v    18.876148 58.716648 0.678771
v    21.673341 59.668392 0.678771
v    19.450510 61.614960 0.678771
v    21.123852 61.283352 0.919581
v    18.326659 60.331608 0.919581
v    20.549490 58.385040 0.919581
v    19.489284 61.805108 -1.446327
v    23.970600 64.534119 3.315814
v    21.856711 59.731914 -1.446327
v    23.970600 64.534119 3.315814
v    21.375838 60.878433 0.919581
v    18.551335 60.752294 0.919581
v    20.072827 58.369272 0.919581
v    18.624162 59.121567 1.432331
v    21.448665 59.247706 1.432331
v    19.927173 61.630728 1.432331
v    20.056239 58.150280 -0.933578
v    14.939582 56.769067 3.876602
v    18.345696 60.829401 -0.933578
v    14.939582 56.769067 3.876602
v    18.735263 59.088754 1.432331
v    21.421531 59.360328 1.432331
v    19.843206 61.550918 1.432331
v    21.264737 60.911246 2.225064
v    18.578469 60.639672 2.225064
v    20.156794 58.449082 2.225064
v    19.437197 62.277049 -0.140845
v    22.025645 63.607944 2.597402
v    26.369655 65.046469 6.750647
v    27.704434 65.551063 7.618575
v    21.981800 58.745342 -0.140845
v    24.063625 60.779390 2.597402
v    26.803266 64.444651 6.750647
v    27.704434 65.551063 7.618575
v    21.165653 60.759151 2.225064
v    18.759729 60.629910 2.225064
v    20.074618 58.610939 2.225064
v    18.834347 59.240849 3.119461
v    21.240271 59.370090 3.119461
v    19.925382 61.389061 3.119461
v    20.678446 57.663283 0.753552
v    17.102145 56.032507 4.451423
v    13.713472 55.084817 7.645045
v    11.196272 54.266425 9.254966
v    18.137155 61.565358 0.753552
v    15.199568 58.953856 4.451423
v    12.962602 56.237754 7.645045
v    11.196272 54.266425 9.254966
v    19.036644 59.465686 3.119461
v    20.944408 59.432866 3.119461
v    20.018948 61.101448 3.119461
v    20.963356 60.534314 4.390896
v    19.055592 60.567134 4.390896
v    19.981052 58.898552 4.390896
v    19.085105 62.509818 2.024988
v    19.868315 62.833274 2.825878
v    24.893107 64.707205 7.871238
v    26.021367 64.938064 8.916480
v    31.240777 66.234568 12.187555
v    21.644687 57.894953 2.024988
v    22.333783 58.388094 2.825878
v    26.584053 61.658470 7.871238
v    27.377299 62.493352 8.916480
v    31.240777 66.234568 12.187555
v    20.807070 60.214686 4.390896
v    19.410542 60.591600 4.390896
v    19.782388 59.193714 4.390896
v    19.192930 59.785314 6.207766
v    20.589458 59.408400 6.207766
v    20.217612 60.806286 6.207766
v    20.573655 57.256875 3.841857
v    18.353968 56.932200 5.962108
v    13.313444 56.372695 10.733349
v    6.270340 56.347826 15.024571
v    19.134901 62.665599 3.841857
v    17.047266 61.844500 5.962108
v    12.394937 59.825647 10.733349
v    6.270340 56.347826 15.024571
v    19.453570 59.773171 6.207766
v    20.469654 59.640192 6.207766
v    20.076776 60.586636 6.207766
v    20.546430 60.226829 8.249083
v    19.530346 60.359808 8.249083
v    19.923224 59.413364 8.249083
v    18.864171 62.494400 5.883174
v    20.524246 62.969461 7.515168
v    25.728209 64.265194 12.560527
v    32.343035 65.123722 16.688362
v    20.964582 57.434514 5.883174
v    22.473067 58.274755 7.515168
v    27.064811 61.045322 12.560527
v    32.343035 65.123722 16.688362
v    20.286578 60.235803 8.249083
v    19.652499 60.130282 8.249083
v    20.060922 59.633914 8.249083
v    19.713422 59.764197 9.214000
v    20.347501 59.869718 9.214000
v    19.939078 60.366086 9.214000
v    21.108438 58.264242 4.449743
v    20.287594 57.979270 7.090891
v    17.593831 57.896306 14.003378
v    17.378276 57.842784 14.372345
v    18.510194 61.421960 4.449743
v    18.072480 60.671360 7.090891
v    17.472307 58.043997 14.003378
v    17.378276 57.842784 14.372345
mtllib usm_22_2.5D_2018-08-09_1.mtl
usemtl APPID_683076912_1675719916272 
o vid_3 
f 3 2 1
f 4 5 6
f 1 6 5
f 1 5 3
f 3 5 4
f 4 2 3
f 2 4 6
f 6 1 2
usemtl APPID_683078816_1675719916144 
o vid_4 
f 7 9 10
f 7 10 8
f 7 9 10
usemtl APPID_683076912_1675719916272 
o vid_5 
f 13 12 11
f 14 15 16
f 11 16 15
f 11 15 13
f 13 15 14
f 14 12 13
f 12 14 16
f 16 11 12
usemtl APPID_683078816_1675719916144 
o vid_6 
f 17 19 20
f 17 20 18
f 17 19 20
usemtl APPID_683076912_1675719916272 
o vid_7 
f 23 22 21
f 24 25 26
f 21 26 25
f 21 25 23
f 23 25 24
f 24 22 23
f 22 24 26
f 26 21 22
usemtl APPID_683078816_1675719916144 
o vid_8 
f 27 29 30
f 27 30 28
f 27 29 30
usemtl APPID_683076912_1675719916272 
o vid_9 
f 33 32 31
f 34 35 36
f 31 36 35
f 31 35 33
f 33 35 34
f 34 32 33
f 32 34 36
f 36 31 32
usemtl APPID_683078816_1675719916144 
o vid_10 
f 37 39 40
f 37 40 38
f 37 39 40
usemtl APPID_683076912_1675719916272 
o vid_11 
f 43 42 41
f 44 45 46
f 41 46 45
f 41 45 43
f 43 45 44
f 44 42 43
f 42 44 46
f 46 41 42
usemtl APPID_683078816_1675719916144 
o vid_12 
f 47 49 50
f 47 50 48
f 47 49 50
usemtl APPID_683076912_1675719916272 
o vid_13 
f 53 52 51
f 54 55 56
f 51 56 55
f 51 55 53
f 53 55 54
f 54 52 53
f 52 54 56
f 56 51 52
usemtl APPID_683078816_1675719916144 
o vid_14 
f 57 59 60
f 57 60 58
f 57 59 60
usemtl APPID_683076912_1675719916272 
o vid_15 
f 63 62 61
f 64 65 66
f 61 66 65
f 61 65 63
f 63 65 64
f 64 62 63
f 62 64 66
f 66 61 62
usemtl APPID_683078816_1675719916144 
o vid_16 
f 67 71 72
f 68 72 73
f 67 72 68
f 68 73 69
f 69 73 74
usemtl APPID_683076912_1675719916272 
o vid_17 
f 77 76 75
f 78 79 80
f 75 80 79
f 75 79 77
f 77 79 78
f 78 76 77
f 76 78 80
f 80 75 76
usemtl APPID_683078816_1675719916144 
o vid_18 
f 81 85 86
f 82 86 87
f 81 86 82
f 82 87 83
f 83 87 88
usemtl APPID_683076912_1675719916272 
o vid_19 
f 91 90 89
f 92 93 94
f 89 94 93
f 89 93 91
f 91 93 92
f 92 90 91
f 90 92 94
f 94 89 90
usemtl APPID_683078816_1675719916144 
o vid_20 
f 95 100 101
f 96 101 102
f 97 102 103
f 95 101 96
f 96 102 97
f 97 103 98
f 98 103 104
usemtl APPID_683076912_1675719916272 
o vid_21 
f 107 106 105
f 108 109 110
f 105 110 109
f 105 109 107
f 107 109 108
f 108 106 107
f 106 108 110
f 110 105 106
usemtl APPID_683078816_1675719916144 
o vid_22 
f 111 115 116
f 112 116 117
f 111 116 112
f 112 117 113
f 113 117 118
usemtl APPID_683076912_1675719916272 
o vid_23 
f 121 120 119
f 122 123 124
f 119 124 123
f 119 123 121
f 121 123 122
f 122 120 121
f 120 122 124
f 124 119 120
usemtl APPID_683078816_1675719916144 
o vid_24 
f 125 129 130
f 126 130 131
f 125 130 126
f 126 131 127
f 127 131 132
usemtl APPID_683076912_1675719916272 
o vid_25 
f 135 134 133
f 136 137 138
f 133 138 137
f 133 137 135
f 135 137 136
f 136 134 135
f 134 136 138
f 138 133 134
usemtl APPID_683078816_1675719916144 
o vid_26 
f 139 143 144
f 140 144 145
f 139 144 140
f 140 145 141
f 141 145 146
