# File generated by PlantGL - Fri Sep  4 14:41:26 2026
v    17.752484 28.905161 0.000000
v    22.071916 28.601013 0.000000
v    20.175600 32.493825 0.000000
v    22.247516 31.094839 0.848018
v    17.928084 31.398987 0.848018
v    19.824400 27.506175 0.848018
v    22.059916 31.453095 0.684352
v    22.358747 31.567027 0.981539
v    22.506902 31.620744 1.127747
v    22.413971 30.726281 0.684352
v    22.687890 30.891355 0.981539
v    22.821513 30.974902 1.127747
v    21.879284 31.505407 0.848018
v    17.756638 30.874804 0.848018
v    20.364078 27.619789 0.848018
v    18.120716 28.494593 1.416666
v    22.243362 29.125196 1.416666
v    19.635922 32.380211 1.416666
v    18.495813 28.052715 1.187175
v    18.139192 27.815829 1.585013
v    17.771360 28.957091 1.187175
v    17.462348 28.660770 1.585013
v    17.841416 29.161313 1.416666
v    21.805616 28.549955 1.416666
v    20.352968 32.288732 1.416666
v    22.158584 30.838687 2.253758
v    18.194384 31.450045 2.253758
v    19.647032 27.711268 2.253758
v    21.870574 31.517333 1.938126
v    22.002029 31.555351 2.065287
v    22.308263 31.638496 2.359685
v    22.404313 30.143614 1.938126
v    22.526953 30.204320 2.065287
v    22.808990 30.349741 2.359685
v    22.163962 30.511898 2.253758
v    18.474702 31.618097 2.253758
v    19.361335 27.870005 2.253758
v    17.836038 29.488102 4.112055
v    21.525298 28.381903 4.112055
v    20.638665 32.129995 4.112055
v    18.105295 28.482778 3.686252
v    17.408232 28.382248 4.340699
v    16.751792 28.298552 4.954650
v    14.858666 28.033468 6.241387
v    14.415871 27.966023 6.384954
v    17.626332 30.507514 3.686252
v    16.958107 30.285077 4.340699
v    16.333741 30.065791 4.954650
v    14.522492 29.454584 6.241387
v    14.096411 29.316491 6.384954
v    18.595695 28.396392 4.112055
v    22.090917 29.585640 4.112055
v    19.313387 32.017967 4.112055
v    21.404305 31.603608 5.805095
v    17.909083 30.414360 5.805095
v    20.686613 27.982033 5.805095
v    20.349115 32.473837 5.241654
v    20.946302 33.044290 6.009087
v    21.667352 33.710772 6.920050
v    23.503619 35.450455 8.622713
v    25.117455 37.016683 9.343559
v    25.171081 37.064745 9.366548
v    22.406148 30.672461 5.241654
v    22.892821 31.339692 6.009087
v    23.458341 32.142374 6.920050
v    24.940538 34.192122 8.622713
v    26.280145 35.998497 9.343559
v    26.320712 36.057996 9.366548
v    21.718982 31.097521 5.805095
v    18.190028 30.939922 5.805095
v    20.090990 27.962557 5.805095
v    18.281018 28.902479 11.500271
v    21.809972 29.060078 11.500271
v    19.909010 32.037443 11.500271
v    19.320978 27.371301 10.768967
v    17.613959 26.484401 12.556537
v    14.317425 24.794654 15.157330
v    10.758688 22.909722 16.448151
v    8.944650 22.039241 17.090501
v    17.329641 30.490214 10.768967
v    15.806757 29.314915 12.556537
v    12.886686 27.035536 15.157330
v    9.679215 24.600437 16.448151
v    8.126191 23.321145 17.090501
v    18.420020 28.861621 11.500271
v    21.775855 29.200887 11.500271
v    19.804125 31.937492 11.500271
v    21.579980 31.138379 18.299270
v    18.224145 30.799113 18.299270
v    20.195875 28.062508 18.299270
v    20.144139 33.016770 17.368249
v    22.326790 34.311209 19.726337
v    26.319241 36.650442 22.955056
v    30.806797 39.360105 24.635348
v    33.887077 41.057018 25.758063
v    34.111217 41.182178 25.755141
v    22.907263 29.181773 17.368249
v    24.826052 30.842431 19.726337
v    28.308798 33.889094 22.955056
v    32.299650 37.288144 24.635348
v    34.884359 39.672870 25.758063
v    35.074035 39.845864 25.755141
v    21.554633 31.012481 18.299270
v    18.345849 30.840111 18.299270
v    20.099518 28.147408 18.299270
v    18.445367 28.987519 30.832753
v    21.654151 29.159889 30.832753
v    19.900482 31.852592 30.832753
v    20.286208 26.314045 29.670150
v    16.994730 24.565967 33.133350
v    14.267126 23.080759 35.226513
v    12.399812 22.098864 36.646622
v    2.865234 16.937876 40.121769
v    -1.925403 14.551823 40.086815
v    -2.441468 14.375321 40.080755
v    16.744534 31.752176 29.670150
v    13.814830 29.448606 33.133350
v    11.353549 27.554466 35.226513
v    9.700458 26.243638 36.646622
v    1.124904 19.610100 40.121769
v    -2.994478 16.193354 40.086815
v    -3.364578 15.792727 40.080755
v    18.458123 29.144816 30.832753
v    21.511550 29.092287 30.832753
v    20.030327 31.762897 30.832753
v    21.541877 30.855184 44.797288
v    18.488450 30.907713 44.797288
v    19.969673 28.237103 44.797288
v    19.609864 34.127591 43.373273
v    23.782924 35.977883 47.615176
v    25.209561 36.628289 48.671887
v    29.626675 38.565100 51.918411
v    39.382182 42.983395 55.351129
v    41.862405 43.990094 56.205670
v    45.329375 45.420545 56.162972
v    47.241114 45.926400 56.141000
v    23.294924 27.483516 43.373273
v    27.074156 30.043872 47.615176
v    28.381297 30.909724 48.671887
v    32.363149 33.631303 51.918411
v    41.276716 39.567597 55.351129
v    43.443971 41.138568 56.205670
v    46.493176 43.322239 56.162972
v    47.934551 44.676150 56.141000
v    21.614895 30.429572 44.797288
v    18.820532 31.183754 44.797288
v    19.564573 28.386674 44.797288
v    18.385105 29.570428 66.080215
v    21.179468 28.816246 66.080215
v    20.435427 31.613326 66.080215
v    19.703665 25.091776 64.369376
v    14.299272 24.158893 69.465678
v    11.155014 23.582383 71.620122
v    6.737271 22.838502 74.635665
v    -7.408950 20.281077 79.243501
v    -15.125632 19.164875 79.717054
v    -18.895052 19.118642 79.675170
v    17.304154 34.112285 64.369376
v    12.150533 32.236672 69.465678
v    9.135398 31.174745 71.620122
v    4.931932 29.625331 74.635665
v    -8.615301 24.816127 79.243501
v    -15.866687 21.950731 79.717054
v    -19.160887 20.117997 79.675170
v    18.541706 29.394647 66.080215
v    21.253398 29.039757 66.080215
v    20.204896 31.565597 66.080215
v    21.458294 30.605353 86.202330
v    18.746602 30.960243 86.202330
v    19.795104 28.434403 86.202330
v    19.316215 35.387748 84.186219
v    25.481986 37.324878 90.191878
v    34.125587 40.008121 96.284369
v    46.603887 44.037372 100.487425
v    52.235471 45.611982 102.354243
v    55.264060 46.477565 102.318383
v    60.699390 47.275385 102.257346
v    23.332771 25.711873 84.186219
v    29.057804 28.710739 90.191878
v    37.060632 32.937602 96.284369
v    48.724077 38.929840 100.487425
v    53.815229 41.806349 102.354243
v    56.566481 43.340038 102.318383
v    60.968959 46.625994 102.257346
v    21.076730 30.885959 86.202330
v    18.694372 30.489496 86.202330
v    20.228898 28.624545 86.202330
v    18.923270 29.114041 110.017921
v    21.305628 29.510504 110.017921
v    19.771102 31.375455 110.017921
v    23.066619 24.342065 107.687517
v    16.898697 20.127349 114.629400
v    13.743836 17.923029 117.223259
v    8.272186 14.217003 121.671653
v    -7.329952 3.373315 127.761887
v    -9.775243 1.813952 128.687761
v    -16.236465 -2.358749 128.600196
v    -22.974645 -5.537396 128.517418
v    15.038538 34.098814 107.687517
v    9.714905 28.858011 114.629400
v    6.944287 26.186709 117.223259
v    2.253909 21.531182 121.671653
v    -11.391441 8.309356 127.761887
v    -13.392526 6.210137 128.687761
v    -18.731414 0.673433 128.600196
v    -23.148192 -5.326480 128.517418
v    19.246831 29.211976 110.017921
v    21.059033 29.741749 110.017921
v    19.694136 31.046276 110.017921
v    20.753169 30.788024 131.192999
v    18.940967 30.258251 131.192999
v    20.305864 28.953724 131.192999
v    15.528192 35.519267 128.550840
v    21.901655 41.097461 136.421389
v    24.049906 43.017507 138.363244
v    30.829153 48.901806 144.405735
v    45.653513 62.085259 150.764625
v    49.517667 65.256251 152.360439
v    54.845584 69.679865 152.281600
v    62.535966 74.504443 152.180732
v    25.715786 25.782280 128.550840
v    31.000144 32.401407 136.421389
v    32.821109 34.634264 138.363244
v    38.392914 41.672598 144.405735
v    50.892705 57.077802 150.764625
v    53.885763 61.081360 152.360439
v    58.063990 66.603813 152.281600
v    62.535966 74.504443 152.180732
v    20.570475 30.581414 131.192999
v    19.211243 30.203339 131.192999
v    20.218281 29.215247 131.192999
v    19.429525 29.418586 145.756900
v    20.788757 29.796661 145.756900
v    19.781719 30.784753 145.756900
v    24.772766 24.471670 142.818589
v    20.220012 20.591264 148.377425
v    17.563671 18.401461 151.571326
v    7.489187 9.886031 160.450615
v    -3.023541 0.781054 164.908425
v    -13.098884 -7.268153 169.025372
v    -21.691105 -12.490514 169.194931
v    14.382029 34.666918 142.818589
v    10.588783 30.041293 148.377425
v    8.449821 27.343845 151.571326
v    0.127248 17.109464 160.450615
v    -8.776442 6.425722 164.908425
v    -16.632859 -3.800666 169.025372
v    -21.691105 -12.490514 169.194931
v    19.619569 29.578483 145.756900
v    20.555260 29.881295 145.756900
v    19.825171 30.540221 145.756900
v    20.380431 30.421517 154.412163
v    19.444740 30.118705 154.412163
v    20.174829 29.459779 154.412163
v    15.032278 34.938136 151.207017
v    22.693195 41.809432 160.754610
v    33.285864 51.548129 170.440246
v    45.504848 62.289617 175.637411
v    54.319822 68.026285 178.906293
v    25.419965 25.562948 151.207017
v    31.472365 33.885977 160.754610
v    40.077538 45.418446 170.440246
v    49.514049 58.671197 175.637411
v    54.319822 68.026285 178.906293
v    20.343404 30.066851 154.412163
v    19.770403 30.263971 154.412163
v    19.886193 29.669178 154.412163
v    19.656596 29.933149 158.078000
v    20.229597 29.736029 158.078000
v    20.113807 30.330822 158.078000
v    19.539283 24.172894 151.536960
v    15.781059 24.387146 162.963156
v    14.825437 24.552078 165.802444
v    8.945111 24.904496 177.165036
v    6.115849 25.845208 182.338533
v    2.078645 26.511197 186.467147
v    17.387009 35.228738 151.536960
v    13.983611 33.620312 162.963156
v    13.159647 33.108942 165.802444
v    7.840949 30.576377 177.165036
v    5.571190 28.643024 182.338533
v    2.078645 26.511197 186.467147
v    22.506902 31.620744 1.127747
v    23.239255 31.895892 1.666470
v    23.944650 32.171249 1.909189
v    24.623621 32.405695 2.138507
v    25.171222 32.519072 2.153745
v    22.821513 30.974902 1.127747
v    23.489609 31.381959 1.666470
v    24.141252 31.767658 1.909189
v    24.744393 32.157772 2.138507
v    25.171222 32.519072 2.153745
v    18.139192 27.815829 1.585013
v    18.004513 27.726368 1.735257
v    17.020988 27.081024 2.564288
v    15.988824 26.383561 2.963582
v    15.212234 25.902544 3.255212
v    14.411398 25.523232 3.245331
v    17.462348 28.660770 1.585013
v    17.345650 28.548865 1.735257
v    16.501201 27.729904 2.564288
v    15.595273 26.874852 2.963582
v    14.956355 26.221972 3.255212
v    14.411398 25.523232 3.245331
v    22.308263 31.638496 2.359685
v    22.847772 31.784975 2.878342
v    24.210589 32.173054 3.832153
v    25.011735 32.411648 4.100093
v    26.354018 32.754048 4.542334
v    27.121728 32.839559 4.782422
v    27.395306 32.873341 4.779359
v    22.808990 30.349741 2.359685
v    23.305871 30.605936 2.878342
v    24.573205 31.239765 3.832153
v    25.325282 31.604654 4.100093
v    26.546628 32.258316 4.542334
v    27.170684 32.713556 4.782422
v    27.395306 32.873341 4.779359
v    14.415871 27.966023 6.384954
v    13.075410 27.761851 6.819572
v    11.218216 27.553982 7.416177
v    10.873538 27.563419 7.523347
v    9.771662 27.580428 7.511103
v    14.096411 29.316491 6.384954
v    12.806543 28.898444 6.819572
v    11.053052 28.252184 7.416177
v    10.749133 28.089318 7.523347
v    9.771662 27.580428 7.511103
v    25.171081 37.064745 9.366548
v    26.958950 38.667118 10.133011
v    27.455695 39.001087 10.319054
v    28.533380 39.744462 10.304508
v    26.320712 36.057996 9.366548
v    27.673184 38.041652 10.133011
v    27.938693 38.578118 10.319054
v    28.533380 39.744462 10.304508
v    8.944650 22.039241 17.090501
v    8.186234 21.675309 17.359056
v    7.849993 21.511579 17.354798
v    5.465190 20.719939 17.326880
v    8.126191 23.321145 17.090501
v    7.476900 22.786297 17.359056
v    7.186879 22.550176 17.354798
v    5.465190 20.719939 17.326880
v    34.111217 41.182178 25.755141
v    34.408859 41.348382 25.751260
v    37.383625 42.524943 25.715717
v    35.074035 39.845864 25.755141
v    35.325910 40.075588 25.751260
v    37.383625 42.524943 25.715717
v    -2.441468 14.375321 40.080755
v    -4.171676 13.783562 40.060438
v    -5.683755 13.273026 39.777734
v    -3.364578 15.792727 40.080755
v    -4.605409 14.449546 40.060438
v    -5.683755 13.273026 39.777734
v    47.241114 45.926400 56.141000
v    50.059505 46.672160 56.108609
v    47.934551 44.676150 56.141000
v    50.059505 46.672160 56.108609
v    -18.895052 19.118642 79.675170
v    -20.323630 19.101121 79.659296
v    -20.993280 19.095535 79.540671
v    -19.160887 20.117997 79.675170
v    -20.409360 19.423407 79.659296
v    -20.993280 19.095535 79.540671
v    60.699390 47.275385 102.257346
v    62.117983 47.483612 102.241415
v    60.968959 46.625994 102.257346
v    62.117983 47.483612 102.241415
v    -22.974645 -5.537396 128.517418
v    -23.208215 -5.647580 128.514549
v    -23.474754 -5.772039 128.462441
v    -23.148192 -5.326480 128.517418
v    -23.301294 -5.534459 128.514549
v    -23.474754 -5.772039 128.462441
mtllib usm_6_Beer_2018-08-14_1.mtl
usemtl APPID_2824959408_2481027021568 
o vid_3 
f 3 2 1
f 4 5 6
f 1 6 5
f 1 5 3
f 3 5 4
f 4 2 3
f 2 4 6
f 6 1 2
usemtl APPID_2824961312_2481027027072 
o vid_4 
f 7 10 11
f 7 11 8
f 8 11 12
f 8 12 9
usemtl APPID_2824959408_2481027021568 
o vid_5 
f 15 14 13
f 16 17 18
f 13 18 17
f 13 17 15
f 15 17 16
f 16 14 15
f 14 16 18
f 18 13 14
usemtl APPID_2824961312_2481027027072 
o vid_6 
f 19 21 22
f 19 22 20
f 19 21 22
f 19 22 20
usemtl APPID_2824959408_2481027021568 
o vid_7 
f 25 24 23
f 26 27 28
f 23 28 27
f 23 27 25
f 25 27 26
f 26 24 25
f 24 26 28
f 28 23 24
usemtl APPID_2824961312_2481027027072 
o vid_8 
f 29 32 33
f 29 33 30
f 30 33 34
f 30 34 31
usemtl APPID_2824959408_2481027021568 
o vid_9 
f 37 36 35
f 38 39 40
f 35 40 39
f 35 39 37
f 37 39 38
f 38 36 37
f 36 38 40
f 40 35 36
usemtl APPID_2824961312_2481027027072 
o vid_10 
f 41 46 47
f 42 47 48
f 43 48 49
f 41 47 42
f 42 48 43
f 43 49 44
f 44 49 50
f 44 50 45
usemtl APPID_2824959408_2481027021568 
o vid_11 
f 53 52 51
f 54 55 56
f 51 56 55
f 51 55 53
f 53 55 54
f 54 52 53
f 52 54 56
f 56 51 52
usemtl APPID_2824961312_2481027027072 
o vid_12 
f 57 63 64
f 58 64 65
f 59 65 66
f 60 66 67
f 57 64 58
f 58 65 59
f 59 66 60
f 60 67 61
f 61 67 68
f 61 68 62
usemtl APPID_2824959408_2481027021568 
o vid_13 
f 71 70 69
f 72 73 74
f 69 74 73
f 69 73 71
f 71 73 72
f 72 70 71
f 70 72 74
f 74 69 70
usemtl APPID_2824961312_2481027027072 
o vid_14 
f 75 80 81
f 76 81 82
f 77 82 83
f 75 81 76
f 76 82 77
f 77 83 78
f 78 83 84
f 78 84 79
usemtl APPID_2824959408_2481027021568 
o vid_15 
f 87 86 85
f 88 89 90
f 85 90 89
f 85 89 87
f 87 89 88
f 88 86 87
f 86 88 90
f 90 85 86
usemtl APPID_2824961312_2481027027072 
o vid_16 
f 91 97 98
f 92 98 99
f 93 99 100
f 94 100 101
f 91 98 92
f 92 99 93
f 93 100 94
f 94 101 95
f 95 101 102
f 95 102 96
usemtl APPID_2824959408_2481027021568 
o vid_17 
f 105 104 103
f 106 107 108
f 103 108 107
f 103 107 105
f 105 107 106
f 106 104 105
f 104 106 108
f 108 103 104
usemtl APPID_2824961312_2481027027072 
o vid_18 
f 109 116 117
f 110 117 118
f 111 118 119
f 112 119 120
f 113 120 121
f 109 117 110
f 110 118 111
f 111 119 112
f 112 120 113
f 113 121 114
f 114 121 122
f 114 122 115
usemtl APPID_2824959408_2481027021568 
o vid_19 
f 125 124 123
f 126 127 128
f 123 128 127
f 123 127 125
f 125 127 126
f 126 124 125
f 124 126 128
f 128 123 124
usemtl APPID_2824961312_2481027027072 
o vid_20 
f 129 137 138
f 130 138 139
f 131 139 140
f 132 140 141
f 133 141 142
f 134 142 143
f 129 138 130
f 130 139 131
f 131 140 132
f 132 141 133
f 133 142 134
f 134 143 135
f 135 143 144
f 135 144 136
usemtl APPID_2824959408_2481027021568 
o vid_21 
f 147 146 145
f 148 149 150
f 145 150 149
f 145 149 147
f 147 149 148
f 148 146 147
f 146 148 150
f 150 145 146
usemtl APPID_2824961312_2481027027072 
o vid_22 
f 151 158 159
f 152 159 160
f 153 160 161
f 154 161 162
f 155 162 163
f 151 159 152
f 152 160 153
f 153 161 154
f 154 162 155
f 155 163 156
f 156 163 164
f 156 164 157
usemtl APPID_2824959408_2481027021568 
o vid_23 
f 167 166 165
f 168 169 170
f 165 170 169
f 165 169 167
f 167 169 168
f 168 166 167
f 166 168 170
f 170 165 166
usemtl APPID_2824961312_2481027027072 
o vid_24 
f 171 178 179
f 172 179 180
f 173 180 181
f 174 181 182
f 175 182 183
f 171 179 172
f 172 180 173
f 173 181 174
f 174 182 175
f 175 183 176
f 176 183 184
f 176 184 177
usemtl APPID_2824959408_2481027021568 
o vid_25 
f 187 186 185
f 188 189 190
f 185 190 189
f 185 189 187
f 187 189 188
f 188 186 187
f 186 188 190
f 190 185 186
usemtl APPID_2824961312_2481027027072 
o vid_26 
f 191 199 200
f 192 200 201
f 193 201 202
f 194 202 203
f 195 203 204
f 196 204 205
f 191 200 192
f 192 201 193
f 193 202 194
f 194 203 195
f 195 204 196
f 196 205 197
f 197 205 206
f 197 206 198
usemtl APPID_2824959408_2481027021568 
o vid_27 
f 209 208 207
f 210 211 212
f 207 212 211
f 207 211 209
f 209 211 210
f 210 208 209
f 208 210 212
f 212 207 208
usemtl APPID_2824961312_2481027027072 
o vid_28 
f 213 221 222
f 214 222 223
f 215 223 224
f 216 224 225
f 217 225 226
f 218 226 227
f 213 222 214
f 214 223 215
f 215 224 216
f 216 225 217
f 217 226 218
f 218 227 219
f 219 227 228
usemtl APPID_2824959408_2481027021568 
o vid_29 
f 231 230 229
f 232 233 234
f 229 234 233
f 229 233 231
f 231 233 232
f 232 230 231
f 230 232 234
f 234 229 230
usemtl APPID_2824961312_2481027027072 
o vid_30 
f 235 242 243
f 236 243 244
f 237 244 245
f 238 245 246
f 239 246 247
f 235 243 236
f 236 244 237
f 237 245 238
f 238 246 239
f 239 247 240
f 240 247 248
usemtl APPID_2824959408_2481027021568 
o vid_31 
f 251 250 249
f 252 253 254
f 249 254 253
f 249 253 251
f 251 253 252
f 252 250 251
f 250 252 254
f 254 249 250
usemtl APPID_2824961312_2481027027072 
o vid_32 
f 255 260 261
f 256 261 262
f 257 262 263
f 255 261 256
f 256 262 257
f 257 263 258
f 258 263 264
usemtl APPID_2824959408_2481027021568 
o vid_33 
f 267 266 265
f 268 269 270
f 265 270 269
f 265 269 267
f 267 269 268
f 268 266 267
f 266 268 270
f 270 265 266
usemtl APPID_2824961312_2481027027072 
o vid_34 
f 271 277 278
f 272 278 279
f 273 279 280
f 274 280 281
f 271 278 272
f 272 279 273
f 273 280 274
f 274 281 275
f 275 281 282
usemtl APPID_2824960080_2481027023744 
o vid_10000004 
f 283 288 289
f 284 289 290
f 285 290 291
f 283 289 284
f 284 290 285
f 285 291 286
f 286 291 292
usemtl APPID_2824960080_2481027023744 
o vid_10000006 
f 293 299 300
f 294 300 301
f 295 301 302
f 296 302 303
f 293 300 294
f 294 301 295
f 295 302 296
f 296 303 297
f 297 303 304
usemtl APPID_2824960080_2481027023744 
o vid_10000008 
f 305 312 313
f 306 313 314
f 307 314 315
f 308 315 316
f 309 316 317
f 305 313 306
f 306 314 307
f 307 315 308
f 308 316 309
f 309 317 310
f 310 317 318
usemtl APPID_2824960080_2481027023744 
o vid_10000010 
f 319 324 325
f 320 325 326
f 321 326 327
f 319 325 320
f 320 326 321
f 321 327 322
f 322 327 328
usemtl APPID_2824960080_2481027023744 
o vid_10000012 
f 329 333 334
f 330 334 335
f 329 334 330
f 330 335 331
f 331 335 336
usemtl APPID_2824960080_2481027023744 
o vid_10000014 
f 337 341 342
f 338 342 343
f 337 342 338
f 338 343 339
f 339 343 344
usemtl APPID_2824960080_2481027023744 
o vid_10000016 
f 345 348 349
f 345 349 346
f 346 349 350
usemtl APPID_2824960080_2481027023744 
o vid_10000018 
f 351 354 355
f 351 355 352
f 352 355 356
usemtl APPID_2824960080_2481027023744 
o vid_10000020 
f 357 359 360
f 357 360 358
f 357 359 360
usemtl APPID_2824960080_2481027023744 
o vid_10000022 
f 361 364 365
f 361 365 362
f 362 365 366
usemtl APPID_2824960080_2481027023744 
o vid_10000024 
f 367 369 370
f 367 370 368
f 367 369 370
usemtl APPID_2824960080_2481027023744 
o vid_10000026 
f 371 374 375
f 371 375 372
f 372 375 376
