# File generated by PlantGL - Fri Sep  4 14:43:04 2026
v    177.752484 18.905161 0.000000
v    182.071916 18.601013 0.000000
v    180.175600 22.493825 0.000000
v    182.247516 21.094839 0.362700
v    177.928084 21.398987 0.362700
v    179.824400 17.506175 0.362700
v    182.064919 21.443497 0.203135
v    182.349024 21.551815 0.485677
v    182.544366 21.622640 0.678451
v    183.214758 21.875082 1.160640
v    183.893087 22.139874 1.394046
v    184.555042 22.368444 1.617616
v    185.088464 22.478758 1.635824
v    182.409497 20.736137 0.203135
v    182.669918 20.893076 0.485677
v    182.846100 21.003232 0.678451
v    183.458122 21.375497 1.160640
v    184.084762 21.746398 1.394046
v    184.672787 22.126734 1.617616
v    185.088464 22.478758 1.635824
v    181.879284 21.505407 0.362700
v    177.756638 20.874804 0.362700
v    180.364078 17.619789 0.362700
v    178.120716 18.494593 0.589630
v    182.243362 19.125196 0.589630
v    179.635922 22.380211 0.589630
v    178.479376 18.072791 0.363996
v    178.148145 17.852770 0.733509
v    177.873522 17.676779 1.036123
v    177.027453 17.119776 1.717968
v    176.209108 16.566797 2.034546
v    175.367241 16.045348 2.350689
v    174.667479 15.728367 2.390412
v    177.787364 18.936669 0.363996
v    177.500353 18.661445 0.733509
v    177.268667 18.431855 1.036123
v    176.540430 17.727755 1.717968
v    175.822170 17.049832 2.034546
v    175.129548 16.342074 2.350689
v    174.667479 15.728367 2.390412
v    177.841416 19.161313 0.589630
v    181.805616 18.549955 0.589630
v    180.352968 22.288732 0.589630
v    182.158584 20.838687 1.053978
v    178.194384 21.450045 1.053978
v    179.647032 17.711268 1.053978
v    181.861455 21.541363 0.741172
v    182.340605 21.679939 1.204669
v    182.827733 21.812197 1.672969
v    184.178347 22.196800 2.618240
v    185.425175 22.568126 3.035236
v    186.755439 22.907460 3.473518
v    187.809515 23.034277 3.551296
v    182.413810 20.119731 0.741172
v    182.860829 20.341005 1.204669
v    183.309467 20.572325 1.672969
v    184.565454 21.200480 2.618240
v    185.735914 21.768357 3.035236
v    186.946324 22.416166 3.473518
v    187.809515 23.034277 3.551296
v    182.163962 20.511898 1.053978
v    178.474702 21.618097 1.053978
v    179.361335 17.870005 1.053978
v    177.836038 19.488102 1.829186
v    181.525298 18.381903 1.829186
v    180.638665 22.129995 1.829186
v    178.107731 18.472275 1.404030
v    177.274123 18.352053 2.186675
v    176.756817 18.286097 2.670497
v    174.866573 18.021416 3.955276
v    172.907206 17.722975 4.590561
v    171.052839 17.515422 5.186258
v    169.599650 17.539737 5.220888
v    177.623804 20.517995 1.404030
v    176.824683 20.251985 2.186675
v    176.332654 20.079178 2.670497
v    174.524162 19.468901 3.955276
v    172.638748 18.857837 4.590561
v    170.887927 18.212562 5.186258
v    169.599650 17.539737 5.220888
v    178.735435 18.555964 1.829186
v    181.882854 19.626873 1.829186
v    179.381711 21.817163 1.829186
v    181.264565 21.444036 2.769464
v    178.117146 20.373127 2.769464
v    180.618289 18.182837 2.769464
v    180.171451 22.347181 2.202935
v    181.119281 23.252581 3.420973
v    181.490946 23.596118 3.890528
v    183.337276 25.345335 5.602522
v    185.408477 27.355436 6.527658
v    187.229095 28.987159 7.308160
v    188.863794 30.121770 7.286035
v    182.304040 20.479639 2.202935
v    183.076468 21.538641 3.420973
v    183.367965 21.952384 3.890528
v    184.858285 24.013364 5.602522
v    186.577539 26.331670 6.527658
v    187.954785 28.351661 7.308160
v    188.863794 30.121770 7.286035
v    181.279339 20.816821 2.769464
v    178.652943 20.699529 2.769464
v    180.067719 18.483650 2.769464
v    178.720661 19.183179 5.235228
v    181.347057 19.300471 5.235228
v    179.932281 21.516350 5.235228
v    179.720450 17.716095 4.495116
v    178.969908 17.326142 5.281076
v    177.601566 16.643492 6.699786
v    174.646856 15.123734 8.936332
v    172.311182 13.886613 9.783525
v    169.382652 12.481334 10.820516
v    168.327965 12.145151 11.164575
v    167.014547 11.709159 11.149199
v    177.810522 20.707502 4.495116
v    177.140940 20.190746 5.281076
v    175.945861 19.236724 6.699786
v    173.323839 17.195898 8.936332
v    171.218707 15.597691 9.783525
v    168.711551 13.532440 10.820516
v    167.962758 12.717152 11.164575
v    167.014547 11.709159 11.149199
v    179.070985 19.330642 5.235228
v    181.044188 19.530128 5.235228
v    179.884827 21.139230 5.235228
v    180.929015 20.669358 9.070287
v    178.955812 20.469872 9.070287
v    180.115173 18.860770 9.070287
v    179.423870 22.641858 8.122360
v    182.037508 24.191897 10.946076
v    185.703084 26.352651 13.810619
v    191.198244 29.670723 15.868192
v    193.383069 30.874333 16.664527
v    194.909783 31.726855 16.644620
v    197.938569 32.924781 16.608432
v    182.323631 18.617221 8.122360
v    184.621305 20.605793 10.946076
v    187.831278 23.398888 13.810619
v    192.718206 27.561136 15.868192
v    194.551525 29.252608 16.664527
v    195.843487 30.430948 16.644620
v    197.938569 32.924781 16.608432
v    180.671200 20.437130 9.070287
v    179.285834 20.362711 9.070287
v    180.042966 19.200158 9.070287
v    179.328800 19.562870 12.627907
v    180.714166 19.637289 12.627907
v    179.957034 20.799842 12.627907
v    180.942403 17.241958 11.437613
v    180.024490 16.754462 12.403415
v    177.547518 15.490646 14.983299
v    172.817852 13.003634 18.580252
v    169.446821 11.178923 19.808920
v    164.757594 8.876395 21.476673
v    162.657254 8.185937 22.163850
v    160.978005 7.611608 22.144132
v    177.858540 21.977135 11.437613
v    177.041517 21.334725 12.403415
v    174.884065 19.580296 14.983299
v    170.697000 16.260138 18.580252
v    167.665039 13.914794 19.808920
v    163.663056 10.557025 21.476673
v    162.182291 8.915229 22.163850
v    160.978005 7.611608 22.144132
v    179.575225 19.764404 12.627907
v    180.416420 19.749933 12.627907
v    180.008355 20.485664 12.627907
v    180.424775 20.235596 13.773000
v    179.583580 20.250067 13.773000
v    179.991645 19.514336 13.773000
v    180.025246 22.505911 11.114483
v    180.347018 22.490553 13.287004
v    181.043449 22.320510 17.462897
v    181.790503 22.404782 19.861766
v    183.575902 21.983333 24.550887
v    182.139169 18.694558 11.114483
v    182.296517 18.975653 13.287004
v    182.521021 19.656482 17.462897
v    182.988069 20.245599 19.861766
v    183.575902 21.983333 24.550887
mtllib usm_43_2.5D_2018-08-12_4.mtl
usemtl APPID_3903022368_2215810920176 
o vid_3 
f 3 2 1
f 4 5 6
f 1 6 5
f 1 5 3
f 3 5 4
f 4 2 3
f 2 4 6
f 6 1 2
usemtl APPID_3903017328_2215810915952 
o vid_4 
f 7 14 15
f 8 15 16
f 9 16 17
f 10 17 18
f 11 18 19
f 7 15 8
f 8 16 9
f 9 17 10
f 10 18 11
f 11 19 12
f 12 19 20
usemtl APPID_3903022368_2215810920176 
o vid_5 
f 23 22 21
f 24 25 26
f 21 26 25
f 21 25 23
f 23 25 24
f 24 22 23
f 22 24 26
f 26 21 22
usemtl APPID_3903017328_2215810915952 
o vid_6 
f 27 34 35
f 28 35 36
f 29 36 37
f 30 37 38
f 31 38 39
f 27 35 28
f 28 36 29
f 29 37 30
f 30 38 31
f 31 39 32
f 32 39 40
usemtl APPID_3903022368_2215810920176 
o vid_7 
f 43 42 41
f 44 45 46
f 41 46 45
f 41 45 43
f 43 45 44
f 44 42 43
f 42 44 46
f 46 41 42
usemtl APPID_3903017328_2215810915952 
o vid_8 
f 47 54 55
f 48 55 56
f 49 56 57
f 50 57 58
f 51 58 59
f 47 55 48
f 48 56 49
f 49 57 50
f 50 58 51
f 51 59 52
f 52 59 60
usemtl APPID_3903022368_2215810920176 
o vid_9 
f 63 62 61
f 64 65 66
f 61 66 65
f 61 65 63
f 63 65 64
f 64 62 63
f 62 64 66
f 66 61 62
usemtl APPID_3903017328_2215810915952 
o vid_10 
f 67 74 75
f 68 75 76
f 69 76 77
f 70 77 78
f 71 78 79
f 67 75 68
f 68 76 69
f 69 77 70
f 70 78 71
f 71 79 72
f 72 79 80
usemtl APPID_3903022368_2215810920176 
o vid_11 
f 83 82 81
f 84 85 86
f 81 86 85
f 81 85 83
f 83 85 84
f 84 82 83
f 82 84 86
f 86 81 82
usemtl APPID_3903017328_2215810915952 
o vid_12 
f 87 94 95
f 88 95 96
f 89 96 97
f 90 97 98
f 91 98 99
f 87 95 88
f 88 96 89
f 89 97 90
f 90 98 91
f 91 99 92
f 92 99 100
usemtl APPID_3903022368_2215810920176 
o vid_13 
f 103 102 101
f 104 105 106
f 101 106 105
f 101 105 103
f 103 105 104
f 104 102 103
f 102 104 106
f 106 101 102
usemtl APPID_3903017328_2215810915952 
o vid_14 
f 107 115 116
f 108 116 117
f 109 117 118
f 110 118 119
f 111 119 120
f 112 120 121
f 107 116 108
f 108 117 109
f 109 118 110
f 110 119 111
f 111 120 112
f 112 121 113
f 113 121 122
usemtl APPID_3903022368_2215810920176 
o vid_15 
f 125 124 123
f 126 127 128
f 123 128 127
f 123 127 125
f 125 127 126
f 126 124 125
f 124 126 128
f 128 123 124
usemtl APPID_3903017328_2215810915952 
o vid_16 
f 129 136 137
f 130 137 138
f 131 138 139
f 132 139 140
f 133 140 141
f 129 137 130
f 130 138 131
f 131 139 132
f 132 140 133
f 133 141 134
f 134 141 142
usemtl APPID_3903022368_2215810920176 
o vid_17 
f 145 144 143
f 146 147 148
f 143 148 147
f 143 147 145
f 145 147 146
f 146 144 145
f 144 146 148
f 148 143 144
usemtl APPID_3903017328_2215810915952 
o vid_18 
f 149 157 158
f 150 158 159
f 151 159 160
f 152 160 161
f 153 161 162
f 154 162 163
f 149 158 150
f 150 159 151
f 151 160 152
f 152 161 153
f 153 162 154
f 154 163 155
f 155 163 164
usemtl APPID_3903022368_2215810920176 
o vid_19 
f 167 166 165
f 168 169 170
f 165 170 169
f 165 169 167
f 167 169 168
f 168 166 167
f 166 168 170
f 170 165 166
usemtl APPID_3903017328_2215810915952 
o vid_20 
f 171 176 177
f 172 177 178
f 173 178 179
f 171 177 172
f 172 178 173
f 173 179 174
f 174 179 180
