# File generated by PlantGL - Fri Sep  4 14:43:21 2026
v    297.752484 18.905161 0.000000
v    302.071916 18.601013 0.000000
v    300.175600 22.493825 0.000000
v    302.247516 21.094839 0.362700
v    297.928084 21.398987 0.362700
v    299.824400 17.506175 0.362700
v    302.064221 21.444161 0.198447
v    302.244723 21.512978 0.377955
v    302.558619 21.626788 0.687727
v    303.248705 21.886645 1.184081
v    303.801750 22.102532 1.374378
v    304.483152 22.337817 1.604516
v    304.717030 22.383681 1.678593
v    305.025208 22.447944 1.675095
v    302.409589 20.735179 0.198447
v    302.575043 20.834887 0.377955
v    302.858152 21.011898 0.687727
v    303.488154 21.395099 1.184081
v    303.999056 21.697497 1.374378
v    304.604356 22.089006 1.604516
v    304.784638 22.244893 1.678593
v    305.025208 22.447944 1.675095
v    301.879284 21.505407 0.362700
v    297.756638 20.874804 0.362700
v    300.364078 17.619789 0.362700
v    298.120716 18.494593 0.589630
v    302.243362 19.125196 0.589630
v    299.635922 22.380211 0.589630
v    298.486431 18.065430 0.351415
v    298.330628 17.961937 0.525226
v    297.844394 17.650337 1.061018
v    296.951151 17.062277 1.780880
v    296.338115 16.648031 2.018034
v    295.449309 16.097508 2.351804
v    295.018796 15.907456 2.498070
v    294.722397 15.772359 2.494451
v    297.781720 18.945160 0.351415
v    297.646717 18.815702 0.525226
v    297.236504 18.409201 1.061018
v    296.467663 17.665842 1.780880
v    295.929603 17.157999 2.018034
v    295.198362 16.410778 2.351804
v    294.918929 16.032125 2.498070
v    294.722397 15.772359 2.494451
v    297.863052 19.169719 0.589630
v    301.787519 18.564489 0.589630
v    300.349430 22.265792 0.589630
v    302.136948 20.830281 1.053978
v    298.212481 21.435511 1.053978
v    299.650570 17.734208 1.053978
v    301.831940 21.548377 0.716682
v    302.876721 21.833066 1.721429
v    304.333073 22.247779 2.740703
v    305.081994 22.470820 2.991177
v    306.516402 22.836720 3.463771
v    307.451457 22.940870 3.756193
v    307.623922 22.962167 3.754262
v    302.396773 20.094630 0.716682
v    303.359695 20.590005 1.721429
v    304.714010 21.267337 2.740703
v    305.417060 21.608439 2.991177
v    306.722231 22.306964 3.463771
v    307.482320 22.861438 3.756193
v    307.623922 22.962167 3.754262
v    301.804153 20.426783 1.053978
v    298.728318 21.349051 1.053978
v    299.467528 18.224166 1.053978
v    298.195847 19.573217 1.829186
v    301.271682 18.650949 1.829186
v    300.532472 21.775834 1.829186
v    298.477420 18.528458 1.362918
v    296.992831 18.337138 2.751851
v    294.919803 18.046863 4.160866
v    293.800832 17.876426 4.523670
v    291.767150 17.648804 5.176970
v    290.520299 17.682941 5.564650
v    290.224334 17.687510 5.561361
v    297.979483 20.633402 1.362918
v    296.566522 20.139290 2.751851
v    294.583151 19.470000 4.160866
v    293.506414 19.121029 4.523670
v    291.586290 18.413356 5.176970
v    290.486883 17.824198 5.564650
v    290.224334 17.687510 5.561361
v    299.048616 18.913593 1.829186
v    301.416548 19.719281 1.829186
v    299.534836 21.367126 1.829186
v    300.951384 21.086407 2.769464
v    298.583452 20.280719 2.769464
v    300.465164 18.632874 2.769464
v    299.819058 22.017898 2.140185
v    301.299899 23.391866 4.014701
v    303.350735 25.334831 5.916321
v    304.508970 26.458899 6.433665
v    306.565644 28.302187 7.315365
v    307.888695 29.191695 7.810880
v    308.294356 29.471516 7.805405
v    302.024130 20.086881 2.140185
v    303.190705 21.736057 4.014701
v    304.846097 24.025319 5.916321
v    305.807520 25.321737 6.433665
v    307.363336 27.603635 7.315365
v    308.070505 29.032481 7.810880
v    308.294356 29.471516 7.805405
v    300.895980 20.572058 2.769464
v    299.056594 20.489913 2.769464
v    300.047426 18.938030 2.769464
v    299.104020 19.427942 5.235228
v    300.943406 19.510087 5.235228
v    299.952574 21.061970 5.235228
v    300.131868 17.928801 4.406076
v    297.749649 16.740339 6.875983
v    294.439466 15.037744 9.381602
v    290.581148 13.157537 10.752808
v    287.988894 12.331251 11.598449
v    298.176608 20.991209 4.406076
v    296.096031 19.330303 6.875983
v    293.158561 17.043950 9.381602
v    289.829309 14.335098 10.752808
v    287.988894 12.331251 11.598449
v    299.423344 19.584518 5.235228
v    300.648146 19.708342 5.235228
v    299.928510 20.707140 5.235228
v    300.576656 20.415482 6.664000
v    299.351854 20.291658 6.664000
v    300.071490 19.292860 6.664000
v    299.555141 22.034339 4.545791
v    301.791545 23.201309 8.477728
v    302.446698 23.565849 9.323360
v    305.241061 24.919848 12.796825
v    308.391107 26.045812 14.836451
v    301.788906 18.934050 4.545791
v    303.603796 20.686047 8.477728
v    304.156978 21.192116 9.323360
v    306.325902 23.414176 12.796825
v    308.391107 26.045812 14.836451
mtllib usm_33_2.5D_2018-08-08_7.mtl
usemtl APPID_4047069760_2409227551200 
o vid_3 
f 3 2 1
f 4 5 6
f 1 6 5
f 1 5 3
f 3 5 4
f 4 2 3
f 2 4 6
f 6 1 2
usemtl APPID_4047066400_2409227555552 
o vid_4 
f 7 15 16
f 8 16 17
f 9 17 18
f 10 18 19
f 11 19 20
f 12 20 21
f 7 16 8
f 8 17 9
f 9 18 10
f 10 19 11
f 11 20 12
f 12 21 13
f 13 21 22
usemtl APPID_4047069760_2409227551200 
o vid_5 
f 25 24 23
f 26 27 28
f 23 28 27
f 23 27 25
f 25 27 26
f 26 24 25
f 24 26 28
f 28 23 24
usemtl APPID_4047066400_2409227555552 
o vid_6 
f 29 37 38
f 30 38 39
f 31 39 40
f 32 40 41
f 33 41 42
f 34 42 43
f 29 38 30
f 30 39 31
f 31 40 32
f 32 41 33
f 33 42 34
f 34 43 35
f 35 43 44
usemtl APPID_4047069760_2409227551200 
o vid_7 
f 47 46 45
f 48 49 50
f 45 50 49
f 45 49 47
f 47 49 48
f 48 46 47
f 46 48 50
f 50 45 46
usemtl APPID_4047066400_2409227555552 
o vid_8 
f 51 58 59
f 52 59 60
f 53 60 61
f 54 61 62
f 55 62 63
f 51 59 52
f 52 60 53
f 53 61 54
f 54 62 55
f 55 63 56
f 56 63 64
usemtl APPID_4047069760_2409227551200 
o vid_9 
f 67 66 65
f 68 69 70
f 65 70 69
f 65 69 67
f 67 69 68
f 68 66 67
f 66 68 70
f 70 65 66
usemtl APPID_4047066400_2409227555552 
o vid_10 
f 71 78 79
f 72 79 80
f 73 80 81
f 74 81 82
f 75 82 83
f 71 79 72
f 72 80 73
f 73 81 74
f 74 82 75
f 75 83 76
f 76 83 84
usemtl APPID_4047069760_2409227551200 
o vid_11 
f 87 86 85
f 88 89 90
f 85 90 89
f 85 89 87
f 87 89 88
f 88 86 87
f 86 88 90
f 90 85 86
usemtl APPID_4047066400_2409227555552 
o vid_12 
f 91 98 99
f 92 99 100
f 93 100 101
f 94 101 102
f 95 102 103
f 91 99 92
f 92 100 93
f 93 101 94
f 94 102 95
f 95 103 96
f 96 103 104
usemtl APPID_4047069760_2409227551200 
o vid_13 
f 107 106 105
f 108 109 110
f 105 110 109
f 105 109 107
f 107 109 108
f 108 106 107
f 106 108 110
f 110 105 106
usemtl APPID_4047066400_2409227555552 
o vid_14 
f 111 116 117
f 112 117 118
f 113 118 119
f 111 117 112
f 112 118 113
f 113 119 114
f 114 119 120
usemtl APPID_4047069760_2409227551200 
o vid_15 
f 123 122 121
f 124 125 126
f 121 126 125
f 121 125 123
f 123 125 124
f 124 122 123
f 122 124 126
f 126 121 122
usemtl APPID_4047066400_2409227555552 
o vid_16 
f 127 132 133
f 128 133 134
f 129 134 135
f 127 133 128
f 128 134 129
f 129 135 130
f 130 135 136
