# File generated by PlantGL - Fri Sep  4 14:43:07 2026
v    18.201987 139.124129 0.000000
v    21.657533 138.880811 0.000000
v    20.140480 141.995060 0.000000
v    21.798013 140.875871 0.331061
v    18.342467 141.119189 0.331061
v    19.859520 138.004940 0.331061
v    21.382982 141.452794 -0.085391
v    22.236258 141.776914 0.779475
v    22.583742 141.899267 1.127663
v    23.811348 142.354260 1.948318
v    24.970505 142.762595 2.330137
v    26.279004 143.058709 2.660905
v    21.996455 140.193440 -0.085391
v    22.777651 140.665526 0.779475
v    23.088192 140.863717 1.127663
v    24.203187 141.549882 1.948318
v    25.239248 142.210911 2.330137
v    26.279004 143.058709 2.660905
v    21.503548 141.204422 0.331061
v    18.205166 140.699900 0.331061
v    20.291286 138.095678 0.331061
v    18.496452 138.795578 0.718770
v    21.794834 139.300100 0.718770
v    19.708714 141.904322 0.718770
v    19.284553 138.077184 0.145052
v    17.814243 137.103129 1.816194
v    17.356062 136.790998 2.164350
v    16.086288 135.964480 3.114048
v    15.248987 135.404515 3.368216
v    13.785023 134.479875 3.803994
v    13.211104 134.206429 3.960734
v    12.108136 133.678196 3.707941
v    17.967388 139.721474 0.145052
v    16.695908 138.499209 1.816194
v    16.291300 138.120201 2.164350
v    15.207569 137.061435 3.114048
v    14.478355 136.366539 3.368216
v    13.256483 135.139681 3.803994
v    12.864367 134.639281 3.960734
v    12.108136 133.678196 3.707941
v    18.272844 139.328938 0.718770
v    21.444735 138.839770 0.718770
v    20.282421 141.831292 0.718770
v    21.727156 140.671062 1.487000
v    18.555265 141.160230 1.487000
v    19.717579 138.168708 1.487000
v    20.991261 141.948625 0.715164
v    23.271391 142.605033 2.963392
v    24.483149 142.970898 3.758296
v    25.944638 143.378874 4.709428
v    27.817346 143.926844 5.201779
v    30.069383 144.522399 5.788042
v    32.550058 144.876148 5.381212
v    22.046849 139.231790 0.715164
v    24.172029 140.287003 2.963392
v    25.312932 140.835231 3.758296
v    26.666489 141.521001 4.709428
v    28.417910 142.381135 5.201779
v    30.481281 143.462271 5.788042
v    32.550058 144.876148 5.381212
v    21.731622 140.409625 1.487000
v    18.779443 141.294816 1.487000
v    19.488935 138.295559 1.487000
v    18.268378 139.590375 2.857581
v    21.220557 138.705184 2.857581
v    20.511065 141.704441 2.857581
v    19.005726 137.747495 1.843562
v    15.919864 137.306322 4.797229
v    13.656819 136.952883 6.235632
v    12.304246 136.770653 7.091127
v    9.056433 136.291869 7.919499
v    6.420949 135.973457 8.587605
v    2.719803 135.912269 7.820189
v    18.101893 141.568296 1.843562
v    15.145428 140.580121 4.797229
v    12.963880 139.882166 6.235632
v    11.673015 139.439076 7.091127
v    8.554911 138.411965 7.919499
v    6.056093 137.515828 8.587605
v    2.719803 135.912269 7.820189
v    18.876148 138.716648 2.857581
v    21.673341 139.668392 2.857581
v    19.450510 141.614960 2.857581
v    21.123852 141.283352 4.464214
v    18.326659 140.331608 4.464214
v    20.549490 138.385040 4.464214
v    18.815987 142.804186 3.163262
v    19.647257 143.596676 4.251519
v    21.711096 145.563283 6.952714
v    25.061738 148.839726 9.895706
v    25.950820 149.726336 10.212979
v    30.431898 154.033733 11.781351
v    33.355258 156.705579 11.009000
v    36.788673 159.171370 10.135215
v    22.935890 139.196322 3.163262
v    23.611773 140.124886 4.251519
v    25.288886 142.430156 6.952714
v    28.094601 146.183799 9.895706
v    28.856156 147.182088 10.212979
v    32.534663 152.192309 11.781351
v    34.797443 155.442635 11.009000
v    36.788673 159.171370 10.135215
v    21.375838 140.878433 4.464214
v    18.551335 140.752294 4.464214
v    20.072827 138.369272 4.464214
v    18.624162 139.121567 10.752587
v    21.448665 139.247706 10.752587
v    19.927173 141.630728 10.752587
v    20.969316 136.324589 9.122654
v    17.826891 134.695844 12.476443
v    16.520617 134.019191 13.870374
v    11.342471 131.251444 17.557583
v    7.501223 129.149603 18.664011
v    2.940384 126.761800 19.963020
v    0.581996 125.524763 19.399850
v    -3.871702 123.333814 18.352910
v    -7.042339 122.214073 17.657837
v    -8.675286 121.691648 16.678697
v    17.073759 142.425970 9.122654
v    14.273876 140.260721 12.476443
v    13.110356 139.360481 13.870374
v    8.420575 135.827837 17.557583
v    4.897450 133.227738 18.664011
v    0.812105 130.095198 19.963020
v    -1.302509 128.476352 19.399850
v    -5.164193 125.358167 18.352910
v    -7.514206 122.953130 17.657837
v    -8.675286 121.691648 16.678697
v    18.928620 139.228068 10.752587
v    21.204203 139.458124 10.752587
v    19.867177 141.313808 10.752587
v    21.071380 140.771932 22.165711
v    18.795797 140.541876 22.165711
v    20.132823 138.686192 22.165711
v    17.843245 144.265567 20.171494
v    19.561805 145.508630 22.189416
v    22.687002 147.548613 25.736356
v    27.869629 150.702304 29.628568
v    38.931116 157.572339 33.434638
v    41.856531 159.395872 32.704646
v    47.872710 162.995623 31.222059
v    50.106371 164.332123 30.671611
v    54.266019 166.600198 27.996966
v    59.507952 168.465572 23.172485
v    23.363498 136.603894 20.171494
v    25.086646 137.840589 22.189416
v    28.011002 140.159324 25.736356
v    32.643072 144.077145 29.628568
v    42.661321 152.395111 33.434638
v    45.317117 154.592853 32.704646
v    50.636168 159.160161 31.222059
v    52.611004 160.855893 30.671611
v    56.079176 164.083680 27.996966
v    59.507952 168.465572 23.172485
v    20.859863 140.560000 22.165711
v    19.085095 140.464663 22.165711
v    20.055043 138.975337 22.165711
v    19.140137 139.440000 39.904430
v    20.914905 139.535337 39.904430
v    19.944957 141.024663 39.904430
v    22.755033 135.152329 37.521734
v    20.416859 133.778519 40.099107
v    16.348124 131.622792 44.462125
v    14.059943 130.372417 46.099660
v    8.815687 127.508104 49.852223
v    -1.884624 121.526861 52.949771
v    -11.995648 116.107737 51.293662
v    -17.479385 113.348244 49.998779
v    -22.605865 111.519853 46.871632
v    -24.616747 110.942598 45.065818
v    16.680288 144.479914 37.521734
v    14.478358 142.896905 40.099107
v    10.861533 140.047283 44.462125
v    8.792711 138.460088 46.099660
v    4.052492 134.821844 49.852223
v    -5.744634 127.453788 52.949771
v    -14.789367 120.397407 51.293662
v    -19.530552 116.497748 49.998779
v    -23.275690 112.548349 46.871632
v    -24.616747 110.942598 45.065818
v    19.339971 139.633922 39.904430
v    20.647047 139.611437 39.904430
v    20.012982 140.754641 39.904430
v    20.660029 140.366078 66.592971
v    19.352953 140.388563 66.592971
v    19.987018 139.245359 66.592971
v    17.296152 144.773129 63.812880
v    25.113244 148.227666 71.910813
v    32.039655 151.396209 76.694071
v    34.244703 152.349442 78.199888
v    43.860684 156.649152 80.857786
v    49.161289 158.854969 82.302713
v    51.628135 159.884433 81.738888
v    60.315362 162.360453 79.871638
v    22.617452 135.178952 63.812880
v    29.687074 139.981160 71.910813
v    36.042474 144.179222 76.694071
v    38.018671 145.545068 78.199888
v    46.757762 151.425789 80.857786
v    51.435617 154.754410 82.302713
v    53.615101 156.301980 81.738888
v    60.315362 162.360453 79.871638
v    20.489327 140.130164 66.592971
v    19.642611 140.358688 66.592971
v    19.868062 139.511148 66.592971
v    19.510673 139.869836 87.764000
v    20.357389 139.641312 87.764000
v    20.131938 140.488852 87.764000
v    21.918658 135.603183 81.313745
v    14.074649 134.661756 92.176659
v    12.040571 134.361536 94.073356
v    4.825045 133.548342 100.741456
v    -4.614660 133.452349 105.275705
v    19.480494 144.769000 81.313745
v    12.205448 141.688665 92.176659
v    10.291041 140.938564 94.073356
v    3.625127 138.059209 100.741456
v    -4.614660 133.452349 105.275705
mtllib usm_21_2.5D_2018-08-29_3.mtl
usemtl APPID_4100177872_2499637474816 
o vid_3 
f 3 2 1
f 4 5 6
f 1 6 5
f 1 5 3
f 3 5 4
f 4 2 3
f 2 4 6
f 6 1 2
usemtl APPID_4100178768_2499637479424 
o vid_4 
f 7 13 14
f 8 14 15
f 9 15 16
f 10 16 17
f 7 14 8
f 8 15 9
f 9 16 10
f 10 17 11
f 11 17 18
usemtl APPID_4100177872_2499637474816 
o vid_5 
f 21 20 19
f 22 23 24
f 19 24 23
f 19 23 21
f 21 23 22
f 22 20 21
f 20 22 24
f 24 19 20
usemtl APPID_4100178768_2499637479424 
o vid_6 
f 25 33 34
f 26 34 35
f 27 35 36
f 28 36 37
f 29 37 38
f 30 38 39
f 25 34 26
f 26 35 27
f 27 36 28
f 28 37 29
f 29 38 30
f 30 39 31
f 31 39 40
usemtl APPID_4100177872_2499637474816 
o vid_7 
f 43 42 41
f 44 45 46
f 41 46 45
f 41 45 43
f 43 45 44
f 44 42 43
f 42 44 46
f 46 41 42
usemtl APPID_4100178768_2499637479424 
o vid_8 
f 47 54 55
f 48 55 56
f 49 56 57
f 50 57 58
f 51 58 59
f 47 55 48
f 48 56 49
f 49 57 50
f 50 58 51
f 51 59 52
f 52 59 60
usemtl APPID_4100177872_2499637474816 
o vid_9 
f 63 62 61
f 64 65 66
f 61 66 65
f 61 65 63
f 63 65 64
f 64 62 63
f 62 64 66
f 66 61 62
usemtl APPID_4100178768_2499637479424 
o vid_10 
f 67 74 75
f 68 75 76
f 69 76 77
f 70 77 78
f 71 78 79
f 67 75 68
f 68 76 69
f 69 77 70
f 70 78 71
f 71 79 72
f 72 79 80
usemtl APPID_4100177872_2499637474816 
o vid_11 
f 83 82 81
f 84 85 86
f 81 86 85
f 81 85 83
f 83 85 84
f 84 82 83
f 82 84 86
f 86 81 82
usemtl APPID_4100178768_2499637479424 
o vid_12 
f 87 95 96
f 88 96 97
f 89 97 98
f 90 98 99
f 91 99 100
f 92 100 101
f 87 96 88
f 88 97 89
f 89 98 90
f 90 99 91
f 91 100 92
f 92 101 93
f 93 101 102
usemtl APPID_4100177872_2499637474816 
o vid_13 
f 105 104 103
f 106 107 108
f 103 108 107
f 103 107 105
f 105 107 106
f 106 104 105
f 104 106 108
f 108 103 104
usemtl APPID_4100178768_2499637479424 
o vid_14 
f 109 119 120
f 110 120 121
f 111 121 122
f 112 122 123
f 113 123 124
f 114 124 125
f 115 125 126
f 116 126 127
f 109 120 110
f 110 121 111
f 111 122 112
f 112 123 113
f 113 124 114
f 114 125 115
f 115 126 116
f 116 127 117
f 117 127 128
usemtl APPID_4100177872_2499637474816 
o vid_15 
f 131 130 129
f 132 133 134
f 129 134 133
f 129 133 131
f 131 133 132
f 132 130 131
f 130 132 134
f 134 129 130
usemtl APPID_4100178768_2499637479424 
o vid_16 
f 135 145 146
f 136 146 147
f 137 147 148
f 138 148 149
f 139 149 150
f 140 150 151
f 141 151 152
f 142 152 153
f 135 146 136
f 136 147 137
f 137 148 138
f 138 149 139
f 139 150 140
f 140 151 141
f 141 152 142
f 142 153 143
f 143 153 154
usemtl APPID_4100177872_2499637474816 
o vid_17 
f 157 156 155
f 158 159 160
f 155 160 159
f 155 159 157
f 157 159 158
f 158 156 157
f 156 158 160
f 160 155 156
usemtl APPID_4100178768_2499637479424 
o vid_18 
f 161 171 172
f 162 172 173
f 163 173 174
f 164 174 175
f 165 175 176
f 166 176 177
f 167 177 178
f 168 178 179
f 161 172 162
f 162 173 163
f 163 174 164
f 164 175 165
f 165 176 166
f 166 177 167
f 167 178 168
f 168 179 169
f 169 179 180
usemtl APPID_4100177872_2499637474816 
o vid_19 
f 183 182 181
f 184 185 186
f 181 186 185
f 181 185 183
f 183 185 184
f 184 182 183
f 182 184 186
f 186 181 182
usemtl APPID_4100178768_2499637479424 
o vid_20 
f 187 195 196
f 188 196 197
f 189 197 198
f 190 198 199
f 191 199 200
f 192 200 201
f 187 196 188
f 188 197 189
f 189 198 190
f 190 199 191
f 191 200 192
f 192 201 193
f 193 201 202
usemtl APPID_4100177872_2499637474816 
o vid_21 
f 205 204 203
f 206 207 208
f 203 208 207
f 203 207 205
f 205 207 206
f 206 204 205
f 204 206 208
f 208 203 204
usemtl APPID_4100178768_2499637479424 
o vid_22 
f 209 214 215
f 210 215 216
f 211 216 217
f 209 215 210
f 210 216 211
f 211 217 212
f 212 217 218
