# File generated by PlantGL - Fri Sep  4 14:44:35 2026
v    18.201987 139.124129 0.000000
v    21.657533 138.880811 0.000000
v    20.140480 141.995060 0.000000
v    21.798013 140.875871 0.331061
v    18.342467 141.119189 0.331061
v    19.859520 138.004940 0.331061
v    21.395942 141.444229 -0.058081
v    22.514257 141.869024 1.075425
v    23.830912 142.357484 1.955736
v    24.088296 142.456538 2.025325
v    25.195032 142.849588 2.320906
v    25.880237 143.004650 2.494115
v    21.997699 140.208925 -0.058081
v    23.021546 140.827647 1.075425
v    24.217785 141.563300 1.955736
v    24.454440 141.704909 2.025325
v    25.446152 142.334081 2.320906
v    25.990628 142.778037 2.494115
v    21.503548 141.204422 0.331061
v    18.205166 140.699900 0.331061
v    20.291286 138.095678 0.331061
v    18.496452 138.795578 0.718770
v    21.794834 139.300100 0.718770
v    19.708714 141.904322 0.718770
v    19.265540 138.085270 0.178873
v    17.881905 137.168636 1.751500
v    16.981264 136.555083 2.435869
v    16.263310 136.087754 2.972846
v    14.934013 135.198755 3.376362
v    13.612895 134.364337 3.769619
v    12.337326 133.744656 3.476102
v    17.971130 139.701155 0.178873
v    16.774604 138.550943 1.751500
v    15.979269 137.805929 2.435869
v    15.366507 137.207283 2.972846
v    14.208810 136.104067 3.376362
v    13.106162 134.996920 3.769619
v    12.223016 133.887355 3.476102
v    18.272844 139.328938 0.718770
v    21.444735 138.839770 0.718770
v    20.282421 141.831292 0.718770
v    21.727156 140.671062 1.487000
v    18.555265 141.160230 1.487000
v    19.717579 138.168708 1.487000
v    21.010829 141.930793 0.755896
v    23.170629 142.552560 2.885478
v    24.977460 143.098095 4.070745
v    25.697539 143.299106 4.539370
v    28.228892 144.039801 5.204884
v    29.817057 144.459794 5.618324
v    32.436786 144.901366 5.066121
v    22.049245 139.258155 0.755896
v    24.062272 140.257681 2.885478
v    25.763452 141.075134 4.070745
v    26.430353 141.413015 4.539370
v    28.797761 142.575664 5.204884
v    30.252877 143.338095 5.618324
v    32.483526 144.781069 5.066121
v    21.731622 140.409625 1.487000
v    18.779443 141.294816 1.487000
v    19.488935 138.295559 1.487000
v    18.268378 139.590375 2.857581
v    21.220557 138.705184 2.857581
v    20.511065 141.704441 2.857581
v    18.985600 137.772620 1.891276
v    16.044942 137.352207 4.705959
v    13.079232 136.889026 6.590980
v    8.579571 136.231736 7.918226
v    7.002659 136.041218 8.317980
v    5.672571 135.879169 8.035349
v    2.732051 135.868746 7.427511
v    18.095157 141.536816 1.891276
v    15.277808 140.595139 4.705959
v    12.418899 139.680472 6.590980
v    8.101649 138.252072 7.918226
v    6.606508 137.715878 8.317980
v    5.344788 137.264820 8.035349
v    2.711252 135.956667 7.427511
v    18.876148 138.716648 2.857581
v    21.673341 139.668392 2.857581
v    19.450510 141.614960 2.857581
v    21.123852 141.283352 4.464214
v    18.326659 140.331608 4.464214
v    20.549490 138.385040 4.464214
v    18.853264 142.792453 3.217646
v    20.283189 144.155670 5.089633
v    21.627187 145.436350 6.848687
v    24.837761 148.575826 9.668652
v    26.517342 150.250737 10.268017
v    30.061084 153.657127 11.508322
v    33.619238 156.946204 10.485642
v    36.528206 159.035350 9.745326
v    36.777002 159.203006 9.573988
v    22.919341 139.231725 3.217646
v    24.081976 140.829012 5.089633
v    25.174133 142.330234 6.848687
v    27.862560 145.926962 9.668652
v    29.301225 147.812847 10.268017
v    32.210275 151.775047 11.508322
v    35.001135 155.736056 10.485642
v    36.688208 158.895233 9.745326
v    36.821572 159.163976 9.573988
v    21.375838 140.878433 4.464214
v    18.551335 140.752294 4.464214
v    20.072827 138.369272 4.464214
v    18.624162 139.121567 10.752587
v    21.448665 139.247706 10.752587
v    19.927173 141.630728 10.752587
v    20.935129 136.345696 9.183005
v    16.943121 134.276605 13.443521
v    11.664879 131.460173 17.305614
v    6.691061 128.738615 18.738266
v    3.588313 127.114189 19.621984
v    0.016917 125.240896 18.769156
v    -4.271873 123.131072 17.760980
v    -5.908683 122.553016 17.402156
v    -8.673960 121.668328 15.744053
v    17.078519 142.386075 9.183005
v    13.521663 139.635431 13.443521
v    8.745596 136.032474 17.305614
v    4.183698 132.665749 18.738266
v    1.404429 130.534676 19.621984
v    -1.797810 128.083196 18.769156
v    -5.516507 125.080468 17.760980
v    -6.729678 123.838892 17.402156
v    -8.695882 121.702665 15.744053
v    18.735263 139.088754 10.752587
v    21.421531 139.360328 10.752587
v    19.843206 141.550918 10.752587
v    21.264737 140.911246 22.165711
v    18.578469 140.639672 22.165711
v    20.156794 138.449082 22.165711
v    18.143824 144.288365 20.236771
v    20.970491 146.332941 23.555826
v    22.996678 147.655542 25.855445
v    28.899777 151.313441 30.219061
v    38.463815 157.267267 33.065767
v    42.943741 160.059791 31.947871
v    45.420914 161.541995 31.337413
v    49.477616 163.969303 30.337707
v    53.246326 166.069604 27.806089
v    55.048893 167.004463 25.992215
v    58.655748 168.226364 22.705122
v    59.321562 168.347385 21.582754
v    23.480272 136.881800 20.236771
v    26.314485 138.915902 23.555826
v    28.210460 140.419227 25.855445
v    33.548874 144.860865 30.219061
v    42.224014 152.048410 33.065767
v    46.291050 155.413992 31.947871
v    48.481179 157.294589 31.337413
v    52.067810 160.374320 30.337707
v    55.253085 163.284382 27.806089
v    56.710469 164.698326 25.992215
v    59.011281 167.732913 22.705122
v    59.336841 168.326179 21.582754
v    21.244614 140.810576 22.165711
v    18.675713 140.672580 22.165711
v    20.079672 138.516844 22.165711
v    18.755386 139.189424 39.904430
v    21.324287 139.327420 39.904430
v    19.920328 141.483156 39.904430
v    22.295867 134.979480 37.590663
v    18.990123 133.037169 41.234589
v    16.243977 131.582185 44.179358
v    12.648352 129.619697 46.802762
v    8.788867 127.511720 49.564443
v    -3.005939 120.918679 52.978828
v    -12.836693 115.648358 50.620477
v    -16.706221 113.701158 49.706759
v    -21.577188 111.761044 46.670078
v    -24.730985 110.855697 43.837902
v    16.336536 144.129849 37.590663
v    13.223417 141.891769 41.234589
v    10.782283 139.968450 44.179358
v    7.533497 137.473401 46.802762
v    4.044954 134.795852 49.564443
v    -6.754283 126.674145 52.978828
v    -15.549592 119.813932 50.620477
v    -18.895148 117.062188 49.706759
v    -22.639153 113.391658 46.670078
v    -24.742420 110.873255 43.837902
v    18.765415 139.315252 39.904430
v    21.210302 139.273192 39.904430
v    20.024283 141.411556 39.904430
v    21.234585 140.684748 66.574737
v    18.789698 140.726808 66.574737
v    19.975717 138.588444 66.574737
v    18.102660 144.716071 63.865873
v    25.719480 148.082103 71.756338
v    28.932009 149.551700 73.974854
v    34.656803 152.026505 77.884288
v    39.956277 154.396124 79.349086
v    47.504325 157.537201 81.406658
v    55.908581 159.928544 80.474332
v    22.996088 135.893337 63.865873
v    29.884588 140.572514 71.756338
v    32.832276 142.519611 73.974854
v    37.962922 146.065651 77.884288
v    42.779133 149.306582 79.349086
v    49.440386 154.046530 81.406658
v    55.918982 159.909790 80.474332
v    21.293262 140.344016 66.574737
v    19.055443 140.947990 66.574737
v    19.651295 138.707994 66.574737
v    18.706738 139.655984 106.204563
v    20.944557 139.052010 106.204563
v    20.348705 141.292006 106.204563
v    20.883941 134.954204 103.109129
v    15.319014 134.000646 108.458897
v    11.480344 133.439161 112.125604
v    3.189180 132.087333 117.391392
v    0.433333 131.722053 119.128045
v    -5.662880 130.813578 120.679247
v    -15.590783 130.523237 123.128017
v    18.260083 144.818101 103.109129
v    12.956873 142.880668 108.458897
v    9.346570 141.460680 112.125604
v    1.479558 138.514334 117.391392
v    -1.093549 137.462079 119.128045
v    -6.835427 135.221549 120.679247
v    -15.595451 130.540786 123.128017
v    18.831935 139.515124 106.204563
v    21.003948 139.230864 106.204563
v    20.164118 141.254012 106.204563
v    21.168065 140.484876 147.683835
v    18.996052 140.769136 147.683835
v    19.835882 138.745988 147.683835
v    17.729808 146.162920 144.231427
v    27.858945 149.331579 154.287709
v    33.777284 151.267307 158.198129
v    39.729437 153.076621 162.097693
v    48.665145 155.914772 164.463422
v    58.674881 158.808432 167.085767
v    69.710915 160.642061 164.969857
v    22.761698 134.041109 144.231427
v    32.157115 138.977295 154.287709
v    37.706463 141.801923 158.198129
v    43.190159 144.739749 162.097693
v    51.508926 149.064110 164.463422
v    60.625294 154.109894 167.085767
v    69.715550 160.630896 164.969857
v    20.879537 140.723704 147.683835
v    18.933486 140.399850 147.683835
v    20.186977 138.876447 147.683835
v    19.120463 139.276296 182.826641
v    21.066514 139.600150 182.826641
v    19.813023 141.123553 182.826641
v    24.711831 134.191882 179.068358
v    15.164736 127.685264 190.015599
v    6.062317 121.307890 196.995217
v    -8.459406 111.354600 202.347094
v    -14.178782 107.636381 204.063955
v    -18.000740 105.146241 203.101774
v    -28.927206 99.735973 200.581452
v    15.207999 145.742153 179.068358
v    6.984608 137.626801 190.015599
v    -1.026324 129.922912 196.995217
v    -13.589877 117.589805 202.347094
v    -18.339927 112.693536 204.063955
v    -21.519483 109.422667 203.101774
v    -28.932684 99.742631 200.581452
v    19.382257 139.353669 182.826641
v    20.868611 139.788184 182.826641
v    19.749133 140.858147 182.826641
v    20.617743 140.646331 211.274182
v    19.131389 140.211816 211.274182
v    20.250867 139.141853 211.274182
v    14.394243 144.996787 207.280963
v    23.641567 153.070214 218.912534
v    28.182575 157.139371 222.741681
v    34.480765 162.548976 227.945930
v    41.668065 168.879316 230.362629
v    50.917095 176.605984 233.395757
v    61.764349 183.697116 231.531917
v    25.245104 134.625870 207.280963
v    32.892222 144.228725 218.912534
v    36.751928 148.949050 222.741681
v    41.871272 155.485358 227.945930
v    47.870215 162.951493 230.362629
v    55.170851 172.540376 233.395757
v    61.764349 183.697116 231.531917
v    20.470713 140.479738 211.274182
v    19.349178 140.167780 211.274182
v    20.180109 139.352482 211.274182
v    19.529287 139.520262 228.574915
v    20.650822 139.832220 228.574915
v    19.819891 140.647518 228.574915
v    25.835618 135.010730 224.433742
v    16.136683 126.764669 236.496277
v    12.574833 123.656183 239.465125
v    4.743881 117.106570 245.864372
v    -1.406467 111.831160 247.908958
v    -11.102454 103.944699 251.054467
v    -14.260540 101.946455 251.975867
v    -22.435483 96.750835 249.973617
v    14.900807 145.739815 224.433742
v    6.840424 135.886031 236.496277
v    3.800140 132.265791 239.465125
v    -2.599576 124.311868 245.864372
v    -7.757235 118.062445 247.908958
v    -15.458140 108.218437 251.054467
v    -17.396049 105.022973 251.975867
v    -22.435483 96.750835 249.973617
v    19.683012 139.648778 228.574915
v    20.462661 139.901091 228.574915
v    19.854327 140.450130 228.574915
v    20.316988 140.351222 238.739132
v    19.537339 140.098909 238.739132
v    20.145673 139.549870 238.739132
v    13.797684 144.601828 234.547433
v    23.258537 153.350425 246.757143
v    26.114194 156.060390 249.229447
v    34.386157 163.586513 256.239538
v    39.672356 168.517669 258.063649
v    49.145400 176.902471 261.247536
v    53.073199 179.623413 262.425599
v    60.297333 184.649355 260.606457
v    25.211589 134.300449 234.547433
v    32.947514 144.605844 246.757143
v    35.351452 147.723498 249.229447
v    41.992804 156.721294 256.239538
v    46.357910 162.483763 258.063649
v    53.730699 172.764106 261.247536
v    56.035988 176.949410 262.425599
v    60.297333 184.649355 260.606457
v    20.291633 140.056773 238.739132
v    19.805017 140.224175 238.739132
v    19.903350 139.719052 238.739132
v    19.708367 139.943227 241.389000
v    20.194983 139.775825 241.389000
v    20.096650 140.280948 241.389000
v    21.317414 134.933732 232.975506
v    17.660470 135.012416 241.554482
v    14.391370 135.287943 249.129496
v    11.768118 135.289098 252.948489
v    4.086046 136.803248 263.704028
v    3.738452 136.834316 263.966135
v    19.320700 145.190492 232.975506
v    15.960330 143.745726 241.554482
v    13.033323 142.263984 249.129496
v    10.602074 141.278855 252.948489
v    4.049007 136.993509 263.704028
v    3.738452 136.834316 263.966135
v    25.880237 143.004650 2.494115
v    26.022308 143.036801 2.530028
v    26.420952 143.127856 2.445502
v    25.990628 142.778037 2.494115
v    26.103520 142.870087 2.530028
v    26.420952 143.127856 2.445502
v    12.337326 133.744656 3.476102
v    11.973709 133.570513 3.392763
v    12.223016 133.887355 3.476102
v    11.973709 133.570513 3.392763
v    32.436786 144.901366 5.066121
v    32.718509 144.941597 5.007296
v    32.483526 144.781069 5.066121
v    32.718509 144.941597 5.007296
v    2.732051 135.868746 7.427511
v    2.532830 135.868040 7.386330
v    2.711252 135.956667 7.427511
v    2.532830 135.868040 7.386330
v    36.777002 159.203006 9.573988
v    36.873065 159.267740 9.507833
v    36.821572 159.163976 9.573988
v    36.873065 159.267740 9.507833
v    -8.673960 121.668328 15.744053
v    -8.749826 121.644057 15.698562
v    -8.695882 121.702665 15.744053
v    -8.749826 121.644057 15.698562
v    59.321562 168.347385 21.582754
v    59.351461 168.352820 21.532354
v    59.336841 168.326179 21.582754
v    59.351461 168.352820 21.532354
v    -24.730985 110.855697 43.837902
v    -24.765313 110.845842 43.807074
v    -24.742420 110.873255 43.837902
v    -24.765313 110.845842 43.807074
v    55.908581 159.928544 80.474332
v    55.954058 159.941506 80.464557
v    55.918982 159.909790 80.474332
v    55.954058 159.941506 80.464557
v    -15.590783 130.523237 123.128017
v    -15.630465 130.522077 123.137805
v    -15.595451 130.540786 123.128017
v    -15.630465 130.522077 123.137805
v    69.710915 160.642061 164.969857
v    69.737210 160.646432 164.964347
v    69.715550 160.630896 164.969857
v    69.737210 160.646432 164.964347
v    -28.927206 99.735973 200.581452
v    -28.944245 99.727536 200.577522
v    -28.932684 99.742631 200.581452
v    -28.944245 99.727536 200.577522
mtllib usm_11_2.5D_2018-09-25_3.mtl
usemtl APPID_2962652976_1982942882400 
o vid_3 
f 3 2 1
f 4 5 6
f 1 6 5
f 1 5 3
f 3 5 4
f 4 2 3
f 2 4 6
f 6 1 2
usemtl APPID_2962650288_1982942876896 
o vid_4 
f 7 13 14
f 8 14 15
f 9 15 16
f 10 16 17
f 7 14 8
f 8 15 9
f 9 16 10
f 10 17 11
f 11 17 18
f 11 18 12
usemtl APPID_2962652976_1982942882400 
o vid_5 
f 21 20 19
f 22 23 24
f 19 24 23
f 19 23 21
f 21 23 22
f 22 20 21
f 20 22 24
f 24 19 20
usemtl APPID_2962650288_1982942876896 
o vid_6 
f 25 32 33
f 26 33 34
f 27 34 35
f 28 35 36
f 29 36 37
f 25 33 26
f 26 34 27
f 27 35 28
f 28 36 29
f 29 37 30
f 30 37 38
f 30 38 31
usemtl APPID_2962652976_1982942882400 
o vid_7 
f 41 40 39
f 42 43 44
f 39 44 43
f 39 43 41
f 41 43 42
f 42 40 41
f 40 42 44
f 44 39 40
usemtl APPID_2962650288_1982942876896 
o vid_8 
f 45 52 53
f 46 53 54
f 47 54 55
f 48 55 56
f 49 56 57
f 45 53 46
f 46 54 47
f 47 55 48
f 48 56 49
f 49 57 50
f 50 57 58
f 50 58 51
usemtl APPID_2962652976_1982942882400 
o vid_9 
f 61 60 59
f 62 63 64
f 59 64 63
f 59 63 61
f 61 63 62
f 62 60 61
f 60 62 64
f 64 59 60
usemtl APPID_2962650288_1982942876896 
o vid_10 
f 65 72 73
f 66 73 74
f 67 74 75
f 68 75 76
f 69 76 77
f 65 73 66
f 66 74 67
f 67 75 68
f 68 76 69
f 69 77 70
f 70 77 78
f 70 78 71
usemtl APPID_2962652976_1982942882400 
o vid_11 
f 81 80 79
f 82 83 84
f 79 84 83
f 79 83 81
f 81 83 82
f 82 80 81
f 80 82 84
f 84 79 80
usemtl APPID_2962650288_1982942876896 
o vid_12 
f 85 94 95
f 86 95 96
f 87 96 97
f 88 97 98
f 89 98 99
f 90 99 100
f 91 100 101
f 85 95 86
f 86 96 87
f 87 97 88
f 88 98 89
f 89 99 90
f 90 100 91
f 91 101 92
f 92 101 102
f 92 102 93
usemtl APPID_2962652976_1982942882400 
o vid_13 
f 105 104 103
f 106 107 108
f 103 108 107
f 103 107 105
f 105 107 106
f 106 104 105
f 104 106 108
f 108 103 104
usemtl APPID_2962650288_1982942876896 
o vid_14 
f 109 118 119
f 110 119 120
f 111 120 121
f 112 121 122
f 113 122 123
f 114 123 124
f 115 124 125
f 109 119 110
f 110 120 111
f 111 121 112
f 112 122 113
f 113 123 114
f 114 124 115
f 115 125 116
f 116 125 126
f 116 126 117
usemtl APPID_2962652976_1982942882400 
o vid_15 
f 129 128 127
f 130 131 132
f 127 132 131
f 127 131 129
f 129 131 130
f 130 128 129
f 128 130 132
f 132 127 128
usemtl APPID_2962650288_1982942876896 
o vid_16 
f 133 145 146
f 134 146 147
f 135 147 148
f 136 148 149
f 137 149 150
f 138 150 151
f 139 151 152
f 140 152 153
f 141 153 154
f 142 154 155
f 133 146 134
f 134 147 135
f 135 148 136
f 136 149 137
f 137 150 138
f 138 151 139
f 139 152 140
f 140 153 141
f 141 154 142
f 142 155 143
f 143 155 156
f 143 156 144
usemtl APPID_2962652976_1982942882400 
o vid_17 
f 159 158 157
f 160 161 162
f 157 162 161
f 157 161 159
f 159 161 160
f 160 158 159
f 158 160 162
f 162 157 158
usemtl APPID_2962650288_1982942876896 
o vid_18 
f 163 173 174
f 164 174 175
f 165 175 176
f 166 176 177
f 167 177 178
f 168 178 179
f 169 179 180
f 170 180 181
f 163 174 164
f 164 175 165
f 165 176 166
f 166 177 167
f 167 178 168
f 168 179 169
f 169 180 170
f 170 181 171
f 171 181 182
f 171 182 172
usemtl APPID_2962652976_1982942882400 
o vid_19 
f 185 184 183
f 186 187 188
f 183 188 187
f 183 187 185
f 185 187 186
f 186 184 185
f 184 186 188
f 188 183 184
usemtl APPID_2962650288_1982942876896 
o vid_20 
f 189 196 197
f 190 197 198
f 191 198 199
f 192 199 200
f 193 200 201
f 189 197 190
f 190 198 191
f 191 199 192
f 192 200 193
f 193 201 194
f 194 201 202
f 194 202 195
usemtl APPID_2962652976_1982942882400 
o vid_21 
f 205 204 203
f 206 207 208
f 203 208 207
f 203 207 205
f 205 207 206
f 206 204 205
f 204 206 208
f 208 203 204
usemtl APPID_2962650288_1982942876896 
o vid_22 
f 209 216 217
f 210 217 218
f 211 218 219
f 212 219 220
f 213 220 221
f 209 217 210
f 210 218 211
f 211 219 212
f 212 220 213
f 213 221 214
f 214 221 222
f 214 222 215
usemtl APPID_2962652976_1982942882400 
o vid_23 
f 225 224 223
f 226 227 228
f 223 228 227
f 223 227 225
f 225 227 226
f 226 224 225
f 224 226 228
f 228 223 224
usemtl APPID_2962650288_1982942876896 
o vid_24 
f 229 236 237
f 230 237 238
f 231 238 239
f 232 239 240
f 233 240 241
f 229 237 230
f 230 238 231
f 231 239 232
f 232 240 233
f 233 241 234
f 234 241 242
f 234 242 235
usemtl APPID_2962652976_1982942882400 
o vid_25 
f 245 244 243
f 246 247 248
f 243 248 247
f 243 247 245
f 245 247 246
f 246 244 245
f 244 246 248
f 248 243 244
usemtl APPID_2962650288_1982942876896 
o vid_26 
f 249 256 257
f 250 257 258
f 251 258 259
f 252 259 260
f 253 260 261
f 249 257 250
f 250 258 251
f 251 259 252
f 252 260 253
f 253 261 254
f 254 261 262
f 254 262 255
usemtl APPID_2962652976_1982942882400 
o vid_27 
f 265 264 263
f 266 267 268
f 263 268 267
f 263 267 265
f 265 267 266
f 266 264 265
f 264 266 268
f 268 263 264
usemtl APPID_2962650288_1982942876896 
o vid_28 
f 269 276 277
f 270 277 278
f 271 278 279
f 272 279 280
f 273 280 281
f 269 277 270
f 270 278 271
f 271 279 272
f 272 280 273
f 273 281 274
f 274 281 282
usemtl APPID_2962652976_1982942882400 
o vid_29 
f 285 284 283
f 286 287 288
f 283 288 287
f 283 287 285
f 285 287 286
f 286 284 285
f 284 286 288
f 288 283 284
usemtl APPID_2962650288_1982942876896 
o vid_30 
f 289 297 298
f 290 298 299
f 291 299 300
f 292 300 301
f 293 301 302
f 294 302 303
f 289 298 290
f 290 299 291
f 291 300 292
f 292 301 293
f 293 302 294
f 294 303 295
f 295 303 304
usemtl APPID_2962652976_1982942882400 
o vid_31 
f 307 306 305
f 308 309 310
f 305 310 309
f 305 309 307
f 307 309 308
f 308 306 307
f 306 308 310
f 310 305 306
usemtl APPID_2962650288_1982942876896 
o vid_32 
f 311 319 320
f 312 320 321
f 313 321 322
f 314 322 323
f 315 323 324
f 316 324 325
f 311 320 312
f 312 321 313
f 313 322 314
f 314 323 315
f 315 324 316
f 316 325 317
f 317 325 326
usemtl APPID_2962652976_1982942882400 
o vid_33 
f 329 328 327
f 330 331 332
f 327 332 331
f 327 331 329
f 329 331 330
f 330 328 329
f 328 330 332
f 332 327 328
usemtl APPID_2962650288_1982942876896 
o vid_34 
f 333 339 340
f 334 340 341
f 335 341 342
f 336 342 343
f 333 340 334
f 334 341 335
f 335 342 336
f 336 343 337
f 337 343 344
usemtl APPID_2962654992_1982942882656 
o vid_10000004 
f 345 348 349
f 345 349 346
f 346 349 350
usemtl APPID_2962654992_1982942882656 
o vid_10000006 
f 351 353 354
f 351 354 352
f 351 353 354
usemtl APPID_2962654992_1982942882656 
o vid_10000008 
f 355 357 358
f 355 358 356
f 355 357 358
usemtl APPID_2962654992_1982942882656 
o vid_10000010 
f 359 361 362
f 359 362 360
f 359 361 362
usemtl APPID_2962654992_1982942882656 
o vid_10000012 
f 363 365 366
f 363 366 364
f 363 365 366
usemtl APPID_2962654992_1982942882656 
o vid_10000014 
f 367 369 370
f 367 370 368
f 367 369 370
usemtl APPID_2962654992_1982942882656 
o vid_10000016 
f 371 373 374
f 371 374 372
f 371 373 374
usemtl APPID_2962654992_1982942882656 
o vid_10000018 
f 375 377 378
f 375 378 376
f 375 377 378
usemtl APPID_2962654992_1982942882656 
o vid_10000020 
f 379 381 382
f 379 382 380
f 379 381 382
usemtl APPID_2962654992_1982942882656 
o vid_10000022 
f 383 385 386
f 383 386 384
f 383 385 386
usemtl APPID_2962654992_1982942882656 
o vid_10000024 
f 387 389 390
f 387 390 388
f 387 389 390
usemtl APPID_2962654992_1982942882656 
o vid_10000026 
f 391 393 394
f 391 394 392
f 391 393 394
