# File generated by PlantGL - Fri Sep  4 14:42:21 2026
v    117.752484 18.905161 0.000000
v    122.071916 18.601013 0.000000
v    120.175600 22.493825 0.000000
v    122.247516 21.094839 0.848018
v    117.928084 21.398987 0.848018
v    119.824400 17.506175 0.848018
v    122.061684 21.449770 0.686205
v    122.365692 21.565676 0.988541
v    122.547762 21.631689 1.168218
v    123.227599 21.887687 1.657200
v    123.421947 21.963553 1.724073
v    122.412442 20.729723 0.686205
v    122.691107 20.897656 0.988541
v    122.855319 21.000328 1.168218
v    123.475963 21.377838 1.657200
v    123.655502 21.484105 1.724073
v    121.879284 21.505407 0.848018
v    117.756638 20.874804 0.848018
v    120.364078 17.619789 0.848018
v    118.120716 18.494593 1.416666
v    122.243362 19.125196 1.416666
v    119.635922 22.380211 1.416666
v    118.495819 18.052731 1.186976
v    118.008885 17.729284 1.730188
v    117.880931 17.647285 1.871184
v    117.019654 17.080271 2.565284
v    115.992796 16.386393 2.962526
v    115.870993 16.310948 3.008266
v    117.771376 18.957094 1.186976
v    117.349450 18.552494 1.730188
v    117.241500 18.445522 1.871184
v    116.500174 17.728766 2.565284
v    115.598904 16.878111 2.962526
v    115.498694 16.775710 3.008266
v    117.841416 19.161313 1.416666
v    121.805616 18.549955 1.416666
v    120.352968 22.288732 1.416666
v    122.158584 20.838687 2.253758
v    118.194384 21.450045 2.253758
v    119.647032 17.711268 2.253758
v    121.869338 21.519729 1.934179
v    122.859195 21.789588 2.886152
v    124.239051 22.182518 3.851888
v    124.958617 22.396817 4.092544
v    126.001244 22.662778 4.436058
v    122.405019 20.141012 1.934179
v    123.317411 20.610245 2.886152
v    124.600591 21.252000 3.851888
v    125.276084 21.579732 4.092544
v    126.224773 22.087468 4.436058
v    122.163962 20.511898 2.253758
v    118.474702 21.618097 2.253758
v    119.361335 17.870005 2.253758
v    117.836038 19.488102 4.113040
v    121.525298 18.381903 4.113040
v    120.638665 22.129995 4.113040
v    118.107412 18.476958 3.677205
v    117.598202 18.403520 4.155284
v    116.721241 18.291707 4.975483
v    114.783518 18.020379 6.292531
v    113.223718 17.782797 6.798265
v    111.322774 17.570032 7.408925
v    111.232040 17.572516 7.437136
v    117.625617 20.513666 3.677205
v    117.137474 20.351174 4.155284
v    116.303362 20.058222 4.975483
v    114.449445 19.432617 6.292531
v    112.948517 18.946165 6.798265
v    111.153720 18.284682 7.408925
v    111.073715 18.241808 7.437136
v    118.595695 18.396392 4.113040
v    122.090917 19.585640 4.113040
v    119.313387 22.017967 4.113040
v    121.404305 21.603608 6.001020
v    117.909083 20.414360 6.001020
v    120.686613 17.982033 6.001020
v    120.272370 22.539214 5.418419
v    121.331478 23.550910 6.779458
v    123.526563 25.623697 8.914455
v    125.765486 27.796572 9.914506
v    127.524230 29.372841 10.668483
v    128.261253 29.914152 10.658251
v    122.481079 20.605012 5.418419
v    123.344192 21.788345 6.779458
v    125.109239 24.237723 8.914455
v    126.967714 26.743761 9.914506
v    128.298155 28.695103 10.668483
v    128.737491 29.497103 10.658251
v    121.718982 21.097521 6.001020
v    118.190028 20.939922 6.001020
v    120.090990 17.962557 6.001020
v    118.281018 18.902479 11.510985
v    121.809972 19.060078 11.510985
v    119.909010 22.037443 11.510985
v    119.303579 17.402832 10.747626
v    118.689476 17.083768 11.390708
v    117.116540 16.299048 13.021543
v    114.069026 14.731556 15.328337
v    111.867315 13.565391 16.126939
v    108.846802 12.115973 17.196501
v    107.528465 11.695751 17.626567
v    107.392543 11.650631 17.624976
v    117.350922 20.461162 10.747626
v    116.803062 20.038346 11.390708
v    115.429295 18.941680 13.021543
v    112.724918 16.836753 15.328337
v    110.740527 15.330212 16.126939
v    108.154623 13.200093 17.196501
v    107.218647 12.181001 17.626567
v    107.120519 12.076687 17.624976
v    118.420020 18.861621 11.510985
v    121.775855 19.200887 11.510985
v    119.804125 21.937492 11.510985
v    121.579980 21.138379 19.659504
v    118.224145 20.799113 19.659504
v    120.195875 18.062508 19.659504
v    120.020475 23.182338 18.679129
v    122.723579 24.785436 21.599502
v    126.514102 27.020885 24.562100
v    132.258166 30.489248 26.712871
v    134.455316 31.699648 27.513698
v    136.099646 32.617848 27.492257
v    138.610823 33.611052 27.462254
v    123.025172 19.012058 18.679129
v    125.401496 21.068700 21.599502
v    128.721875 23.956672 24.562100
v    133.830157 28.307449 26.712871
v    135.673819 30.008464 27.513698
v    137.065311 31.277581 27.492257
v    138.802351 33.345227 27.462254
v    121.554633 21.012481 19.659504
v    118.345849 20.840111 19.659504
v    120.099518 18.147408 19.659504
v    118.445367 18.987519 30.877941
v    121.654151 19.159889 30.877941
v    119.900482 21.852592 30.877941
v    120.262405 16.360012 29.643805
v    116.768408 14.504378 33.320089
v    111.865332 11.924540 37.049527
v    104.975378 8.195065 39.560766
v    101.589094 6.532316 40.765119
v    100.044553 5.762870 40.745474
v    96.464175 4.538324 40.703431
v    116.776951 21.711819 29.643805
v    113.666988 19.266514 33.320089
v    109.324905 15.825287 37.049527
v    103.127969 11.031706 39.560766
v    100.237971 8.606923 40.765119
v    98.909700 7.505402 40.745474
v    96.342005 4.725912 40.703431
v    118.666081 19.260157 30.877941
v    121.307682 19.214714 30.877941
v    120.026237 21.525129 30.877941
v    121.333919 20.739843 48.423413
v    118.692318 20.785286 48.423413
v    119.973763 18.474871 48.423413
v    119.210106 24.343425 46.900621
v    123.672631 26.322062 51.436764
v    126.578005 27.646627 53.588776
v    129.911009 29.108079 56.038493
v    141.930850 34.551897 60.267974
v    148.367088 37.200539 60.556566
v    152.422895 38.273725 60.509953
v    153.194186 38.474577 60.368770
v    123.266351 17.030113 46.900621
v    127.307729 19.768068 51.436764
v    129.969749 21.531395 53.588776
v    132.974318 23.585005 56.038493
v    143.956798 30.899161 60.267974
v    149.611616 34.956684 60.556566
v    152.669532 37.829044 60.509953
v    153.248311 38.376991 60.368770
v    121.144761 20.304513 48.423413
v    119.163903 20.839135 48.423413
v    119.691336 18.856351 48.423413
v    118.855239 19.695487 69.825309
v    120.836097 19.160865 69.825309
v    120.308664 21.143649 69.825309
v    120.308205 14.748145 67.983582
v    114.490349 13.743892 73.469777
v    109.472578 12.823867 76.907951
v    106.356039 12.299089 79.035294
v    89.333137 9.221603 84.580149
v    80.850242 7.980326 84.482541
v    77.314969 7.936965 84.443259
v    74.625218 7.914529 83.966782
v    117.658059 24.710869 67.983582
v    112.110160 22.691761 73.469777
v    107.298452 20.997084 76.907951
v    104.333077 19.904035 79.035294
v    88.030967 14.116863 84.580149
v    80.052492 10.979314 84.482541
v    76.962920 9.260425 84.443259
v    74.617517 7.943479 83.966782
v    119.194108 19.665466 69.825309
v    120.692661 19.469344 69.825309
v    120.113231 20.865190 69.825309
v    120.805892 20.334534 89.719947
v    119.307339 20.530656 89.719947
v    119.886769 19.134810 89.719947
v    118.428760 25.651834 87.536631
v    125.105882 27.749618 94.040363
v    127.367455 28.486094 95.643365
v    134.455678 30.681058 100.638130
v    150.053207 35.717510 105.891832
v    154.033920 36.830531 107.211402
v    159.533163 38.402237 107.146288
v    166.955508 39.491719 107.062937
v    122.893229 14.896937 87.536631
v    129.093061 18.144511 94.040363
v    131.211349 19.226160 95.643365
v    137.770250 22.696259 100.638130
v    152.349232 30.186390 105.891832
v    155.947939 32.219665 107.211402
v    160.943598 35.004501 107.146288
v    166.955508 39.491719 107.062937
v    120.455094 20.374462 89.719947
v    119.448159 20.206892 89.719947
v    120.096747 19.418646 89.719947
v    119.544906 19.625538 106.966000
v    120.551841 19.793108 106.966000
v    119.903253 20.581354 106.966000
v    123.565980 14.913044 101.886528
v    120.454166 12.830247 106.133088
v    117.422335 10.879755 110.213462
v    108.626020 5.014089 118.972017
v    100.157382 -0.832804 123.440904
v    91.085502 -6.559431 128.079494
v    83.358596 -10.149400 129.495227
v    115.694996 24.478870 101.886528
v    113.051916 21.826407 106.133088
v    110.554068 19.226950 110.213462
v    103.104216 11.724891 118.972017
v    95.735889 4.540760 123.440904
v    88.369404 -3.258481 128.079494
v    83.358596 -10.149400 129.495227
v    123.421947 21.963553 1.724073
v    123.936109 22.164261 1.900991
v    124.607391 22.396051 2.127711
v    125.149327 22.508406 2.138813
v    123.655502 21.484105 1.724073
v    124.130485 21.765241 1.900991
v    124.726794 22.150936 2.127711
v    125.149327 22.508406 2.138813
v    115.870993 16.310948 3.008266
v    115.209143 15.901001 3.256808
v    115.132431 15.852875 3.255777
v    114.414294 15.525552 3.247008
v    115.498694 16.775710 3.008266
v    114.954175 16.219292 3.256808
v    114.890465 16.154934 3.255777
v    114.414294 15.525552 3.247008
v    126.001244 22.662778 4.436058
v    126.317683 22.743498 4.540315
v    127.192949 22.840988 4.814039
v    127.367518 22.862545 4.812085
v    126.224773 22.087468 4.436058
v    126.512701 22.241567 4.540315
v    127.224188 22.760587 4.814039
v    127.367518 22.862545 4.812085
v    111.232040 17.572516 7.437136
v    110.693155 17.587270 7.604690
v    109.855263 17.600204 7.595380
v    111.073715 18.241808 7.437136
v    110.598555 17.987176 7.604690
v    109.855263 17.600204 7.595380
v    128.261253 29.914152 10.658251
v    129.323855 30.647123 10.643909
v    128.737491 29.497103 10.658251
v    129.323855 30.647123 10.643909
v    107.392543 11.650631 17.624976
v    106.414245 11.325883 17.613523
v    107.120519 12.076687 17.624976
v    106.414245 11.325883 17.613523
v    138.610823 33.611052 27.462254
v    139.232108 33.856779 27.454830
v    138.802351 33.345227 27.462254
v    139.232108 33.856779 27.454830
v    96.464175 4.538324 40.703431
v    96.032240 4.390596 40.698359
v    96.342005 4.725912 40.703431
v    96.032240 4.390596 40.698359
v    153.194186 38.474577 60.368770
v    153.411035 38.531047 60.329077
v    153.248311 38.376991 60.368770
v    153.411035 38.531047 60.329077
v    74.625218 7.914529 83.966782
v    74.565065 7.914027 83.956126
v    74.617517 7.943479 83.966782
v    74.565065 7.914027 83.956126
mtllib usm_1_2.5D_2018-08-05_2.mtl
usemtl APPID_1439658352_2556943034080 
o vid_3 
f 3 2 1
f 4 5 6
f 1 6 5
f 1 5 3
f 3 5 4
f 4 2 3
f 2 4 6
f 6 1 2
usemtl APPID_1439662160_2556943032160 
o vid_4 
f 7 12 13
f 8 13 14
f 9 14 15
f 7 13 8
f 8 14 9
f 9 15 10
f 10 15 16
f 10 16 11
usemtl APPID_1439658352_2556943034080 
o vid_5 
f 19 18 17
f 20 21 22
f 17 22 21
f 17 21 19
f 19 21 20
f 20 18 19
f 18 20 22
f 22 17 18
usemtl APPID_1439662160_2556943032160 
o vid_6 
f 23 29 30
f 24 30 31
f 25 31 32
f 26 32 33
f 23 30 24
f 24 31 25
f 25 32 26
f 26 33 27
f 27 33 34
f 27 34 28
usemtl APPID_1439658352_2556943034080 
o vid_7 
f 37 36 35
f 38 39 40
f 35 40 39
f 35 39 37
f 37 39 38
f 38 36 37
f 36 38 40
f 40 35 36
usemtl APPID_1439662160_2556943032160 
o vid_8 
f 41 46 47
f 42 47 48
f 43 48 49
f 41 47 42
f 42 48 43
f 43 49 44
f 44 49 50
f 44 50 45
usemtl APPID_1439658352_2556943034080 
o vid_9 
f 53 52 51
f 54 55 56
f 51 56 55
f 51 55 53
f 53 55 54
f 54 52 53
f 52 54 56
f 56 51 52
usemtl APPID_1439662160_2556943032160 
o vid_10 
f 57 64 65
f 58 65 66
f 59 66 67
f 60 67 68
f 61 68 69
f 57 65 58
f 58 66 59
f 59 67 60
f 60 68 61
f 61 69 62
f 62 69 70
f 62 70 63
usemtl APPID_1439658352_2556943034080 
o vid_11 
f 73 72 71
f 74 75 76
f 71 76 75
f 71 75 73
f 73 75 74
f 74 72 73
f 72 74 76
f 76 71 72
usemtl APPID_1439662160_2556943032160 
o vid_12 
f 77 83 84
f 78 84 85
f 79 85 86
f 80 86 87
f 77 84 78
f 78 85 79
f 79 86 80
f 80 87 81
f 81 87 88
f 81 88 82
usemtl APPID_1439658352_2556943034080 
o vid_13 
f 91 90 89
f 92 93 94
f 89 94 93
f 89 93 91
f 91 93 92
f 92 90 91
f 90 92 94
f 94 89 90
usemtl APPID_1439662160_2556943032160 
o vid_14 
f 95 103 104
f 96 104 105
f 97 105 106
f 98 106 107
f 99 107 108
f 100 108 109
f 95 104 96
f 96 105 97
f 97 106 98
f 98 107 99
f 99 108 100
f 100 109 101
f 101 109 110
f 101 110 102
usemtl APPID_1439658352_2556943034080 
o vid_15 
f 113 112 111
f 114 115 116
f 111 116 115
f 111 115 113
f 113 115 114
f 114 112 113
f 112 114 116
f 116 111 112
usemtl APPID_1439662160_2556943032160 
o vid_16 
f 117 124 125
f 118 125 126
f 119 126 127
f 120 127 128
f 121 128 129
f 117 125 118
f 118 126 119
f 119 127 120
f 120 128 121
f 121 129 122
f 122 129 130
f 122 130 123
usemtl APPID_1439658352_2556943034080 
o vid_17 
f 133 132 131
f 134 135 136
f 131 136 135
f 131 135 133
f 133 135 134
f 134 132 133
f 132 134 136
f 136 131 132
usemtl APPID_1439662160_2556943032160 
o vid_18 
f 137 144 145
f 138 145 146
f 139 146 147
f 140 147 148
f 141 148 149
f 137 145 138
f 138 146 139
f 139 147 140
f 140 148 141
f 141 149 142
f 142 149 150
f 142 150 143
usemtl APPID_1439658352_2556943034080 
o vid_19 
f 153 152 151
f 154 155 156
f 151 156 155
f 151 155 153
f 153 155 154
f 154 152 153
f 152 154 156
f 156 151 152
usemtl APPID_1439662160_2556943032160 
o vid_20 
f 157 165 166
f 158 166 167
f 159 167 168
f 160 168 169
f 161 169 170
f 162 170 171
f 157 166 158
f 158 167 159
f 159 168 160
f 160 169 161
f 161 170 162
f 162 171 163
f 163 171 172
f 163 172 164
usemtl APPID_1439658352_2556943034080 
o vid_21 
f 175 174 173
f 176 177 178
f 173 178 177
f 173 177 175
f 175 177 176
f 176 174 175
f 174 176 178
f 178 173 174
usemtl APPID_1439662160_2556943032160 
o vid_22 
f 179 187 188
f 180 188 189
f 181 189 190
f 182 190 191
f 183 191 192
f 184 192 193
f 179 188 180
f 180 189 181
f 181 190 182
f 182 191 183
f 183 192 184
f 184 193 185
f 185 193 194
f 185 194 186
usemtl APPID_1439658352_2556943034080 
o vid_23 
f 197 196 195
f 198 199 200
f 195 200 199
f 195 199 197
f 197 199 198
f 198 196 197
f 196 198 200
f 200 195 196
usemtl APPID_1439662160_2556943032160 
o vid_24 
f 201 209 210
f 202 210 211
f 203 211 212
f 204 212 213
f 205 213 214
f 206 214 215
f 201 210 202
f 202 211 203
f 203 212 204
f 204 213 205
f 205 214 206
f 206 215 207
f 207 215 216
usemtl APPID_1439658352_2556943034080 
o vid_25 
f 219 218 217
f 220 221 222
f 217 222 221
f 217 221 219
f 219 221 220
f 220 218 219
f 218 220 222
f 222 217 218
usemtl APPID_1439662160_2556943032160 
o vid_26 
f 223 230 231
f 224 231 232
f 225 232 233
f 226 233 234
f 227 234 235
f 223 231 224
f 224 232 225
f 225 233 226
f 226 234 227
f 227 235 228
f 228 235 236
usemtl APPID_1439659808_2556943030624 
o vid_10000004 
f 237 241 242
f 238 242 243
f 237 242 238
f 238 243 239
f 239 243 244
usemtl APPID_1439659808_2556943030624 
o vid_10000006 
f 245 249 250
f 246 250 251
f 245 250 246
f 246 251 247
f 247 251 252
usemtl APPID_1439659808_2556943030624 
o vid_10000008 
f 253 257 258
f 254 258 259
f 253 258 254
f 254 259 255
f 255 259 260
usemtl APPID_1439659808_2556943030624 
o vid_10000010 
f 261 264 265
f 261 265 262
f 262 265 266
usemtl APPID_1439659808_2556943030624 
o vid_10000012 
f 267 269 270
f 267 270 268
f 267 269 270
usemtl APPID_1439659808_2556943030624 
o vid_10000014 
f 271 273 274
f 271 274 272
f 271 273 274
usemtl APPID_1439659808_2556943030624 
o vid_10000016 
f 275 277 278
f 275 278 276
f 275 277 278
usemtl APPID_1439659808_2556943030624 
o vid_10000018 
f 279 281 282
f 279 282 280
f 279 281 282
usemtl APPID_1439659808_2556943030624 
o vid_10000020 
f 283 285 286
f 283 286 284
f 283 285 286
usemtl APPID_1439659808_2556943030624 
o vid_10000022 
f 287 289 290
f 287 290 288
f 287 289 290
