# File generated by PlantGL - Fri Sep  4 14:43:58 2026
v    98.201987 19.124129 0.000000
v    101.657533 18.880811 0.000000
v    100.140480 21.995060 0.000000
v    101.798013 20.875871 0.331061
v    98.342467 21.119189 0.331061
v    99.859520 18.004940 0.331061
v    101.399179 21.442027 -0.051354
v    102.498162 21.859479 1.062557
v    103.791042 22.341577 1.927651
v    104.161378 22.484100 2.027778
v    105.248981 22.870355 2.318249
v    105.936389 23.025916 2.492015
v    106.454734 23.144312 2.382108
v    101.997960 20.212831 -0.051354
v    103.004109 20.820858 1.062557
v    104.180683 21.541712 1.927651
v    104.521192 21.745464 2.027778
v    105.495760 22.363760 2.318249
v    106.041986 22.809143 2.492015
v    106.454734 23.144312 2.382108
v    101.503548 21.204422 0.331061
v    98.205166 20.699900 0.331061
v    100.291286 18.095678 0.331061
v    98.496452 18.795578 0.718770
v    101.794834 19.300100 0.718770
v    99.708714 21.904322 0.718770
v    99.260401 18.087603 0.187697
v    97.899380 17.185950 1.734622
v    96.886354 16.495836 2.504388
v    96.309267 16.120200 2.936006
v    94.855130 15.147711 3.377418
v    93.705068 14.421332 3.719757
v    91.941961 13.545081 3.311437
v    97.972285 19.695631 0.187697
v    96.795314 18.564218 1.734622
v    95.900736 17.726239 2.504388
v    95.408202 17.245051 2.936006
v    94.141779 16.038227 3.377418
v    93.181900 15.074431 3.719757
v    91.941961 13.545081 3.311437
v    98.272844 19.328938 0.718770
v    101.444735 18.839770 0.718770
v    100.282421 21.831292 0.718770
v    101.727156 20.671062 1.487000
v    98.555265 21.160230 1.487000
v    99.717579 18.168708 1.487000
v    101.016347 21.925626 0.767206
v    103.142736 22.537774 2.863844
v    105.111914 23.132326 4.155610
v    105.629036 23.276681 4.492151
v    108.339958 24.069920 5.204876
v    109.682658 24.424999 5.554415
v    110.446749 24.627883 5.387660
v    112.762049 24.958513 4.904210
v    102.049826 19.265693 0.767206
v    104.031713 20.249757 2.863844
v    105.885748 21.140660 4.155610
v    106.364680 21.383307 4.492151
v    108.900028 22.628432 5.204876
v    110.130242 23.273023 5.554415
v    110.830874 23.639236 5.387660
v    112.762049 24.958513 4.904210
v    101.731622 20.409625 1.487000
v    98.779443 21.294816 1.487000
v    99.488935 18.295559 1.487000
v    98.268378 19.590375 2.857581
v    101.220557 18.705184 2.857581
v    100.511065 21.704441 2.857581
v    98.979584 17.780244 1.905447
v    96.082051 17.365996 4.678853
v    92.909788 16.870557 6.695159
v    88.440346 16.214444 7.917225
v    87.175354 16.061611 8.237906
v    85.573418 15.866442 7.897510
v    82.479719 15.855476 7.258008
v    98.093195 21.527305 1.905447
v    95.317161 20.599438 4.678853
v    92.259139 19.621067 6.695159
v    87.969432 18.205152 7.917225
v    86.770037 17.775020 8.237906
v    85.250441 17.231773 7.897510
v    82.479719 15.855476 7.258008
v    98.961426 18.814029 2.857581
v    101.546368 19.693554 2.857581
v    99.492206 21.492417 2.857581
v    101.038574 21.185971 4.464214
v    98.453632 20.306446 4.464214
v    100.507794 18.507583 4.464214
v    98.779516 22.691651 3.235010
v    100.404555 24.240880 5.362431
v    101.514747 25.298768 6.815473
v    104.680600 28.394515 9.596159
v    106.617766 30.326294 10.287444
v    109.825663 33.409857 11.410204
v    110.860209 34.405840 11.106522
v    113.623111 36.931209 10.316978
v    116.158385 38.751977 9.671765
v    116.800075 39.184391 9.229854
v    102.829151 19.145322 3.235010
v    104.150428 20.960559 5.362431
v    105.052590 22.200623 6.815473
v    107.703570 25.747253 9.596159
v    109.362872 27.922362 10.287444
v    111.996227 31.509060 11.410204
v    112.847005 32.665971 11.106522
v    114.985759 35.737916 10.316978
v    116.456107 38.491257 9.671765
v    116.800075 39.184391 9.229854
v    101.056465 20.674523 4.464214
v    98.887614 20.577664 4.464214
v    100.055921 18.747813 4.464214
v    98.943535 19.325477 11.608452
v    101.112386 19.422336 11.608452
v    99.944079 21.252187 11.608452
v    101.276802 16.503490 10.059688
v    99.439307 15.446078 12.074546
v    97.989930 14.694854 13.621410
v    95.236933 13.237278 15.897928
v    92.180166 11.603420 18.074564
v    84.770177 7.548845 20.208929
v    78.162738 4.083588 18.909233
v    75.017295 2.536221 18.169826
v    71.705913 1.328650 16.137167
v    70.026939 0.863056 14.633253
v    97.365442 22.629622 10.059688
v    95.632972 21.407713 12.074546
v    94.341586 20.409038 13.621410
v    91.860856 18.525028 15.897928
v    89.092380 16.439635 18.074564
v    82.296070 11.423893 20.208929
v    76.372080 6.888191 18.909233
v    73.644749 4.685959 18.169826
v    71.155834 2.190206 16.137167
v    70.026939 0.863056 14.633253
v    99.226461 19.442664 11.608452
v    100.869437 19.608764 11.608452
v    99.904102 20.948572 11.608452
v    100.773539 20.557336 22.178673
v    99.130563 20.391236 22.178673
v    100.095898 19.051428 22.178673
v    97.691550 23.892522 20.274167
v    100.026493 25.581426 23.015843
v    102.498697 27.195166 25.821669
v    108.341563 30.786549 30.130010
v    117.784532 36.664845 32.940657
v    121.561530 39.019205 31.998166
v    125.315949 41.265644 31.072952
v    128.666952 43.270701 30.247153
v    132.399537 45.328277 27.747604
v    137.794314 47.382944 22.711251
v    138.076551 47.434244 22.235482
v    102.961618 16.578086 20.274167
v    105.302795 18.258338 23.015843
v    107.616123 20.092586 25.821669
v    112.872374 24.498142 30.130010
v    121.437545 31.594754 32.940657
v    124.866439 34.432255 31.998166
v    128.185813 37.282501 31.072952
v    131.148517 39.826486 30.247153
v    134.281830 42.715804 27.747604
v    137.938547 47.182760 22.711251
v    138.076551 47.434244 22.235482
v    100.566760 20.369112 22.178673
v    99.396960 20.306273 22.178673
v    100.036280 19.324615 22.178673
v    99.433240 19.630888 35.179823
v    100.603040 19.693727 35.179823
v    99.963720 20.675385 35.179823
v    102.889411 15.535511 32.894147
v    101.042238 14.450192 34.930289
v    96.732318 12.166678 39.551936
v    89.506530 8.219628 44.722557
v    79.778731 2.781998 47.538580
v    70.084089 -2.413422 46.236713
v    64.267131 -5.340596 44.863145
v    59.308405 -7.031599 41.863332
v    57.851741 -7.449757 40.555217
v    97.085083 24.447878 32.894147
v    95.345543 23.197290 34.930289
v    91.514322 20.178750 39.551936
v    84.982596 15.165990 44.722557
v    76.075895 8.467589 47.538580
v    67.404126 1.701579 46.236713
v    62.374842 -2.435044 44.863145
v    58.823190 -6.286567 41.863332
v    57.851741 -7.449757 40.555217
v    99.630711 19.795178 35.179823
v    100.362025 19.782597 35.179823
v    100.007264 20.422224 35.179823
v    100.369289 20.204822 39.066000
v    99.637975 20.217403 39.066000
v    99.992736 19.577776 39.066000
v    98.755330 23.160784 33.718132
v    100.212315 23.406481 39.441130
v    101.621142 23.511387 44.710650
v    102.831192 23.825864 47.301091
v    106.919454 23.878659 55.005302
v    107.030445 23.899356 55.119975
v    102.022298 17.270519 33.718132
v    103.002188 18.376407 39.441130
v    103.837144 19.515988 44.710650
v    104.744631 20.375979 47.301091
v    106.954119 23.816159 55.005302
v    107.030445 23.899356 55.119975
mtllib usm_35_2.5D_2018-08-21_2.mtl
usemtl APPID_929264416_1946549205072 
o vid_3 
f 3 2 1
f 4 5 6
f 1 6 5
f 1 5 3
f 3 5 4
f 4 2 3
f 2 4 6
f 6 1 2
usemtl APPID_929266880_1946549198032 
o vid_4 
f 7 14 15
f 8 15 16
f 9 16 17
f 10 17 18
f 11 18 19
f 7 15 8
f 8 16 9
f 9 17 10
f 10 18 11
f 11 19 12
f 12 19 20
usemtl APPID_929264416_1946549205072 
o vid_5 
f 23 22 21
f 24 25 26
f 21 26 25
f 21 25 23
f 23 25 24
f 24 22 23
f 22 24 26
f 26 21 22
usemtl APPID_929266880_1946549198032 
o vid_6 
f 27 34 35
f 28 35 36
f 29 36 37
f 30 37 38
f 31 38 39
f 27 35 28
f 28 36 29
f 29 37 30
f 30 38 31
f 31 39 32
f 32 39 40
usemtl APPID_929264416_1946549205072 
o vid_7 
f 43 42 41
f 44 45 46
f 41 46 45
f 41 45 43
f 43 45 44
f 44 42 43
f 42 44 46
f 46 41 42
usemtl APPID_929266880_1946549198032 
o vid_8 
f 47 55 56
f 48 56 57
f 49 57 58
f 50 58 59
f 51 59 60
f 52 60 61
f 47 56 48
f 48 57 49
f 49 58 50
f 50 59 51
f 51 60 52
f 52 61 53
f 53 61 62
usemtl APPID_929264416_1946549205072 
o vid_9 
f 65 64 63
f 66 67 68
f 63 68 67
f 63 67 65
f 65 67 66
f 66 64 65
f 64 66 68
f 68 63 64
usemtl APPID_929266880_1946549198032 
o vid_10 
f 69 76 77
f 70 77 78
f 71 78 79
f 72 79 80
f 73 80 81
f 69 77 70
f 70 78 71
f 71 79 72
f 72 80 73
f 73 81 74
f 74 81 82
usemtl APPID_929264416_1946549205072 
o vid_11 
f 85 84 83
f 86 87 88
f 83 88 87
f 83 87 85
f 85 87 86
f 86 84 85
f 84 86 88
f 88 83 84
usemtl APPID_929266880_1946549198032 
o vid_12 
f 89 99 100
f 90 100 101
f 91 101 102
f 92 102 103
f 93 103 104
f 94 104 105
f 95 105 106
f 96 106 107
f 89 100 90
f 90 101 91
f 91 102 92
f 92 103 93
f 93 104 94
f 94 105 95
f 95 106 96
f 96 107 97
f 97 107 108
usemtl APPID_929264416_1946549205072 
o vid_13 
f 111 110 109
f 112 113 114
f 109 114 113
f 109 113 111
f 111 113 112
f 112 110 111
f 110 112 114
f 114 109 110
usemtl APPID_929266880_1946549198032 
o vid_14 
f 115 125 126
f 116 126 127
f 117 127 128
f 118 128 129
f 119 129 130
f 120 130 131
f 121 131 132
f 122 132 133
f 115 126 116
f 116 127 117
f 117 128 118
f 118 129 119
f 119 130 120
f 120 131 121
f 121 132 122
f 122 133 123
f 123 133 134
usemtl APPID_929264416_1946549205072 
o vid_15 
f 137 136 135
f 138 139 140
f 135 140 139
f 135 139 137
f 137 139 138
f 138 136 137
f 136 138 140
f 140 135 136
usemtl APPID_929266880_1946549198032 
o vid_16 
f 141 152 153
f 142 153 154
f 143 154 155
f 144 155 156
f 145 156 157
f 146 157 158
f 147 158 159
f 148 159 160
f 149 160 161
f 141 153 142
f 142 154 143
f 143 155 144
f 144 156 145
f 145 157 146
f 146 158 147
f 147 159 148
f 148 160 149
f 149 161 150
f 150 161 162
usemtl APPID_929264416_1946549205072 
o vid_17 
f 165 164 163
f 166 167 168
f 163 168 167
f 163 167 165
f 165 167 166
f 166 164 165
f 164 166 168
f 168 163 164
usemtl APPID_929266880_1946549198032 
o vid_18 
f 169 178 179
f 170 179 180
f 171 180 181
f 172 181 182
f 173 182 183
f 174 183 184
f 175 184 185
f 169 179 170
f 170 180 171
f 171 181 172
f 172 182 173
f 173 183 174
f 174 184 175
f 175 185 176
f 176 185 186
usemtl APPID_929264416_1946549205072 
o vid_19 
f 189 188 187
f 190 191 192
f 187 192 191
f 187 191 189
f 189 191 190
f 190 188 189
f 188 190 192
f 192 187 188
usemtl APPID_929266880_1946549198032 
o vid_20 
f 193 199 200
f 194 200 201
f 195 201 202
f 196 202 203
f 193 200 194
f 194 201 195
f 195 202 196
f 196 203 197
f 197 203 204
