# File generated by PlantGL - Fri Sep  4 14:41:28 2026
v    37.752484 58.905161 0.000000
v    42.071916 58.601013 0.000000
v    40.175600 62.493825 0.000000
v    42.247516 61.094839 0.848018
v    37.928084 61.398987 0.848018
v    39.824400 57.506175 0.848018
v    42.061621 61.449878 0.686083
v    42.363977 61.565153 0.986774
v    42.548082 61.631905 1.168461
v    43.228435 61.888097 1.657813
v    43.935039 62.163927 1.900948
v    44.606829 62.395893 2.127840
v    45.029000 62.483239 2.141185
v    42.412489 60.729608 0.686083
v    42.689638 60.896628 0.986774
v    42.855686 61.000448 1.168461
v    43.476801 61.378244 1.657813
v    44.129562 61.764605 1.900948
v    44.726323 62.150591 2.127840
v    45.055338 62.429172 2.141185
v    41.879284 61.505407 0.848018
v    37.756638 60.874804 0.848018
v    40.364078 57.619789 0.848018
v    38.120716 58.494593 1.416666
v    42.243362 59.125196 1.416666
v    39.635922 62.380211 1.416666
v    38.495907 58.052637 1.186837
v    38.010760 57.730377 1.728055
v    37.018823 57.079621 2.565979
v    35.994038 56.387144 2.962419
v    35.207136 55.899740 3.257921
v    34.484934 55.557892 3.249012
v    37.771304 58.957200 1.186837
v    37.350926 58.554085 1.728055
v    36.499359 57.728098 2.565979
v    35.599908 56.879159 2.962419
v    34.952506 56.217609 3.257921
v    34.461273 55.587430 3.249012
v    37.841416 59.161313 1.416666
v    41.805616 58.549955 1.416666
v    40.352968 62.288732 1.416666
v    42.158584 60.838687 2.254254
v    38.194384 61.450045 2.254254
v    39.647032 57.711268 2.254254
v    41.869293 61.519816 1.934528
v    42.859622 61.789757 2.886938
v    44.240114 62.182869 3.853120
v    44.956609 62.396253 4.092749
v    46.316301 62.743093 4.540726
v    47.195609 62.841034 4.815714
v    47.313741 62.855622 4.814392
v    42.405045 60.140917 1.934528
v    43.317841 60.610408 2.886938
v    44.601612 61.252459 3.853120
v    45.274222 61.578792 4.092749
v    46.511409 62.240932 4.540726
v    47.226181 62.762348 4.815714
v    47.323174 62.831344 4.814392
v    42.163962 60.511898 2.254254
v    38.474702 61.618097 2.254254
v    39.361335 57.870005 2.254254
v    37.836038 59.488102 4.114020
v    41.525298 58.381903 4.114020
v    40.638665 62.129995 4.114020
v    38.107452 58.476835 3.678044
v    37.600432 58.403713 4.154066
v    36.720820 58.291563 4.976743
v    34.782468 58.020145 6.294220
v    33.225221 57.782953 6.799126
v    31.323659 57.570118 7.409984
v    30.690643 57.587449 7.606806
v    29.887101 57.599853 7.597877
v    37.625597 60.513793 3.678044
v    37.139553 60.352000 4.154066
v    36.302921 60.058163 4.976743
v    34.448402 59.432354 6.294220
v    32.949930 58.946699 6.799126
v    31.154549 58.285001 7.409984
v    30.596390 57.985890 7.606806
v    29.883569 57.614782 7.597877
v    38.595695 58.396392 4.114020
v    42.090917 59.585640 4.114020
v    39.313387 62.017967 4.114020
v    41.404305 61.603608 6.002274
v    37.909083 60.414360 6.002274
v    40.686613 57.982033 6.002274
v    40.272278 62.539283 5.419557
v    41.330156 63.549803 6.779014
v    43.527143 65.624357 8.916287
v    45.764649 67.795857 9.915706
v    47.525682 69.374177 10.670664
v    49.309270 70.636966 10.646309
v    42.481159 60.604931 5.419557
v    43.343269 61.786888 6.779014
v    45.109816 64.238385 8.916287
v    46.967117 66.742837 9.915706
v    48.299288 68.696718 10.670664
v    49.315710 70.631326 10.646309
v    41.718982 61.097521 6.002274
v    38.190028 60.939922 6.002274
v    40.090990 57.962557 6.002274
v    38.281018 58.902479 11.513477
v    41.809972 59.060078 11.513477
v    39.909010 62.037443 11.513477
v    39.303724 57.402613 10.750057
v    38.688409 57.082919 11.394408
v    37.116520 56.298722 13.024157
v    34.068760 54.731103 15.331137
v    31.865365 53.564046 16.130350
v    28.844610 52.114512 17.199998
v    27.527841 51.694789 17.629553
v    26.411783 51.324311 17.616487
v    37.350784 60.461386 10.750057
v    36.801843 60.037735 11.394408
v    35.428991 58.941800 13.024157
v    32.724395 56.836703 15.331137
v    30.738486 55.329010 16.130350
v    28.152374 53.198719 17.199998
v    27.217512 52.180839 17.629553
v    26.411783 51.324311 17.616487
v    38.480047 58.904870 11.513477
v    41.708387 59.231247 11.513477
v    39.811566 61.863883 11.513477
v    41.519953 61.095130 19.661518
v    38.291613 60.768753 19.661518
v    40.188434 58.136117 19.661518
v    39.960223 63.139405 18.681171
v    42.663250 64.742457 21.601461
v    46.453615 66.977912 24.563974
v    52.203297 70.449668 26.716848
v    54.394445 71.656762 27.515488
v    56.044942 72.578405 27.493967
v    59.177316 73.817301 27.456541
v    42.965374 58.968494 18.681171
v    45.341630 61.025078 21.601461
v    48.661965 63.912899 24.563974
v    53.775243 68.267931 26.716848
v    55.613868 69.964299 27.515488
v    57.010580 71.238177 27.493967
v    59.177316 73.817301 27.456541
v    41.252658 60.815815 19.661518
v    38.667155 60.676927 19.661518
v    40.080187 58.507259 19.661518
v    38.747342 59.184185 30.885372
v    41.332845 59.323073 30.885372
v    39.919813 61.492741 30.885372
v    40.564826 56.555972 29.651395
v    37.071280 54.700577 33.327206
v    32.168962 52.120878 37.056163
v    25.263854 48.383201 39.572925
v    21.894447 46.728738 40.771276
v    20.332897 45.950818 40.751415
v    16.321101 44.578722 40.704306
v    37.078461 61.909179 29.651395
v    33.968898 59.464189 33.327206
v    29.627249 56.023600 37.056163
v    23.416683 51.219476 39.572925
v    20.541089 48.806778 40.771276
v    19.198190 47.693126 40.751415
v    16.321101 44.578722 40.704306
v    38.998538 59.444551 30.885372
v    40.981764 59.410433 30.885372
v    40.019698 61.145016 30.885372
v    41.001462 60.555449 48.446724
v    39.018236 60.589567 48.446724
v    39.980302 58.854984 48.446724
v    38.877215 64.159865 46.924267
v    43.338755 66.138066 51.459409
v    46.265053 67.472170 53.626921
v    49.575589 68.923770 56.060123
v    61.617593 74.377625 60.297402
v    68.053606 77.026346 60.576873
v    72.080081 78.091771 60.530597
v    73.096035 78.356336 60.344629
v    42.934371 56.844910 46.924267
v    46.974857 59.582261 51.459409
v    49.656049 61.358287 53.626921
v    52.640364 63.398053 56.060123
v    63.643094 70.725696 60.297402
v    69.297860 74.782987 60.576873
v    72.333661 77.634573 60.530597
v    73.096035 78.356336 60.344629
v    40.796560 60.211890 48.446724
v    39.418218 60.583896 48.446724
v    39.785222 59.204214 48.446724
v    39.203440 59.788110 66.071456
v    40.581782 59.416104 66.071456
v    40.214778 60.795786 66.071456
v    40.570488 55.163604 64.230288
v    34.754398 54.159656 69.714818
v    26.606693 52.774932 75.278646
v    14.292450 50.548701 79.289753
v    9.539844 49.883014 80.821818
v    6.131377 49.385628 80.782602
v    -0.194404 49.308041 80.712314
v    38.092101 64.480636 64.230288
v    32.545886 62.462141 69.714818
v    24.787027 59.615622 75.278646
v    12.994201 55.429224 79.289753
v    8.538980 53.645571 80.821818
v    5.333870 52.383705 80.782602
v    -0.194404 49.308041 80.712314
v    39.508543 59.795991 66.071456
v    40.422405 59.676390 66.071456
v    40.069052 60.527619 66.071456
v    40.491457 60.204009 74.085000
v    39.577595 60.323610 74.085000
v    39.930948 59.472381 74.085000
v    39.411804 64.192362 69.825622
v    43.348902 65.027947 78.495821
v    45.902315 65.690999 82.445611
v    49.801360 66.428475 88.317516
v    52.009219 66.976010 90.223833
v    57.836670 67.404187 94.924907
v    42.553700 56.623539 69.825622
v    45.925137 58.821803 78.495821
v    48.197473 60.161969 82.445611
v    51.472563 62.402550 88.317516
v    53.419121 63.579558 90.223833
v    57.836670 67.404187 94.924907
v    45.029000 62.483239 2.141185
v    45.149057 62.508274 2.139823
v    45.055338 62.429172 2.141185
v    45.149057 62.508274 2.139823
v    34.484934 55.557892 3.249012
v    34.414709 55.525884 3.248154
v    34.461273 55.587430 3.249012
v    34.414709 55.525884 3.248154
v    47.313741 62.855622 4.814392
v    47.366453 62.862131 4.813802
v    47.323174 62.831344 4.814392
v    47.366453 62.862131 4.813802
v    29.887101 57.599853 7.597877
v    29.855822 57.600336 7.597530
v    29.883569 57.614782 7.597877
v    29.855822 57.600336 7.597530
v    49.309270 70.636966 10.646309
v    49.323639 70.646877 10.646115
v    49.315710 70.631326 10.646309
v    49.323639 70.646877 10.646115
mtllib usm_1_Beer_2018-08-01_1.mtl
usemtl APPID_1439672240_2556943056224 
o vid_3 
f 3 2 1
f 4 5 6
f 1 6 5
f 1 5 3
f 3 5 4
f 4 2 3
f 2 4 6
f 6 1 2
usemtl APPID_1439673696_2556943055840 
o vid_4 
f 7 14 15
f 8 15 16
f 9 16 17
f 10 17 18
f 11 18 19
f 7 15 8
f 8 16 9
f 9 17 10
f 10 18 11
f 11 19 12
f 12 19 20
f 12 20 13
usemtl APPID_1439672240_2556943056224 
o vid_5 
f 23 22 21
f 24 25 26
f 21 26 25
f 21 25 23
f 23 25 24
f 24 22 23
f 22 24 26
f 26 21 22
usemtl APPID_1439673696_2556943055840 
o vid_6 
f 27 33 34
f 28 34 35
f 29 35 36
f 30 36 37
f 27 34 28
f 28 35 29
f 29 36 30
f 30 37 31
f 31 37 38
f 31 38 32
usemtl APPID_1439672240_2556943056224 
o vid_7 
f 41 40 39
f 42 43 44
f 39 44 43
f 39 43 41
f 41 43 42
f 42 40 41
f 40 42 44
f 44 39 40
usemtl APPID_1439673696_2556943055840 
o vid_8 
f 45 52 53
f 46 53 54
f 47 54 55
f 48 55 56
f 49 56 57
f 45 53 46
f 46 54 47
f 47 55 48
f 48 56 49
f 49 57 50
f 50 57 58
f 50 58 51
usemtl APPID_1439672240_2556943056224 
o vid_9 
f 61 60 59
f 62 63 64
f 59 64 63
f 59 63 61
f 61 63 62
f 62 60 61
f 60 62 64
f 64 59 60
usemtl APPID_1439673696_2556943055840 
o vid_10 
f 65 73 74
f 66 74 75
f 67 75 76
f 68 76 77
f 69 77 78
f 70 78 79
f 65 74 66
f 66 75 67
f 67 76 68
f 68 77 69
f 69 78 70
f 70 79 71
f 71 79 80
f 71 80 72
usemtl APPID_1439672240_2556943056224 
o vid_11 
f 83 82 81
f 84 85 86
f 81 86 85
f 81 85 83
f 83 85 84
f 84 82 83
f 82 84 86
f 86 81 82
usemtl APPID_1439673696_2556943055840 
o vid_12 
f 87 93 94
f 88 94 95
f 89 95 96
f 90 96 97
f 87 94 88
f 88 95 89
f 89 96 90
f 90 97 91
f 91 97 98
f 91 98 92
usemtl APPID_1439672240_2556943056224 
o vid_13 
f 101 100 99
f 102 103 104
f 99 104 103
f 99 103 101
f 101 103 102
f 102 100 101
f 100 102 104
f 104 99 100
usemtl APPID_1439673696_2556943055840 
o vid_14 
f 105 113 114
f 106 114 115
f 107 115 116
f 108 116 117
f 109 117 118
f 110 118 119
f 105 114 106
f 106 115 107
f 107 116 108
f 108 117 109
f 109 118 110
f 110 119 111
f 111 119 120
usemtl APPID_1439672240_2556943056224 
o vid_15 
f 123 122 121
f 124 125 126
f 121 126 125
f 121 125 123
f 123 125 124
f 124 122 123
f 122 124 126
f 126 121 122
usemtl APPID_1439673696_2556943055840 
o vid_16 
f 127 134 135
f 128 135 136
f 129 136 137
f 130 137 138
f 131 138 139
f 127 135 128
f 128 136 129
f 129 137 130
f 130 138 131
f 131 139 132
f 132 139 140
usemtl APPID_1439672240_2556943056224 
o vid_17 
f 143 142 141
f 144 145 146
f 141 146 145
f 141 145 143
f 143 145 144
f 144 142 143
f 142 144 146
f 146 141 142
usemtl APPID_1439673696_2556943055840 
o vid_18 
f 147 154 155
f 148 155 156
f 149 156 157
f 150 157 158
f 151 158 159
f 147 155 148
f 148 156 149
f 149 157 150
f 150 158 151
f 151 159 152
f 152 159 160
usemtl APPID_1439672240_2556943056224 
o vid_19 
f 163 162 161
f 164 165 166
f 161 166 165
f 161 165 163
f 163 165 164
f 164 162 163
f 162 164 166
f 166 161 162
usemtl APPID_1439673696_2556943055840 
o vid_20 
f 167 175 176
f 168 176 177
f 169 177 178
f 170 178 179
f 171 179 180
f 172 180 181
f 167 176 168
f 168 177 169
f 169 178 170
f 170 179 171
f 171 180 172
f 172 181 173
f 173 181 182
usemtl APPID_1439672240_2556943056224 
o vid_21 
f 185 184 183
f 186 187 188
f 183 188 187
f 183 187 185
f 185 187 186
f 186 184 185
f 184 186 188
f 188 183 184
usemtl APPID_1439673696_2556943055840 
o vid_22 
f 189 196 197
f 190 197 198
f 191 198 199
f 192 199 200
f 193 200 201
f 189 197 190
f 190 198 191
f 191 199 192
f 192 200 193
f 193 201 194
f 194 201 202
usemtl APPID_1439672240_2556943056224 
o vid_23 
f 205 204 203
f 206 207 208
f 203 208 207
f 203 207 205
f 205 207 206
f 206 204 205
f 204 206 208
f 208 203 204
usemtl APPID_1439673696_2556943055840 
o vid_24 
f 209 215 216
f 210 216 217
f 211 217 218
f 212 218 219
f 209 216 210
f 210 217 211
f 211 218 212
f 212 219 213
f 213 219 220
usemtl APPID_1439681312_2556943057248 
o vid_10000004 
f 221 223 224
f 221 224 222
f 221 223 224
usemtl APPID_1439681312_2556943057248 
o vid_10000006 
f 225 227 228
f 225 228 226
f 225 227 228
usemtl APPID_1439681312_2556943057248 
o vid_10000008 
f 229 231 232
f 229 232 230
f 229 231 232
usemtl APPID_1439681312_2556943057248 
o vid_10000010 
f 233 235 236
f 233 236 234
f 233 235 236
usemtl APPID_1439681312_2556943057248 
o vid_10000012 
f 237 239 240
f 237 240 238
f 237 239 240
