# File generated by PlantGL - Fri Sep  4 14:41:27 2026
v    18.942685 179.484947 0.000000
v    20.974706 179.341865 0.000000
v    20.082609 181.173188 0.000000
v    21.057315 180.515053 0.331061
v    19.025294 180.658135 0.331061
v    19.917391 178.826812 0.331061
v    20.642313 181.091754 -0.085637
v    21.489592 181.413595 0.773151
v    21.843858 181.538337 1.128134
v    23.064569 181.990774 1.944180
v    24.223353 182.398834 2.328973
v    25.532626 182.695124 2.659937
v    21.255600 179.832782 -0.085637
v    22.031306 180.301549 0.773151
v    22.347908 180.503609 1.128134
v    23.456640 181.185920 1.944180
v    24.492255 181.846824 2.328973
v    25.532626 182.695124 2.659937
v    20.649226 180.520065 0.331061
v    19.224997 180.302214 0.331061
v    20.125776 179.177721 0.331061
v    19.350774 179.479935 0.595348
v    20.775003 179.697786 0.595348
v    19.874224 180.822279 0.595348
v    20.083791 178.830991 0.020147
v    19.057304 178.150960 1.186843
v    18.601412 177.864734 1.695612
v    17.114701 176.897009 2.807562
v    15.681110 175.997341 3.346545
v    14.008285 175.200317 3.803401
v    18.877463 180.336919 0.020147
v    17.989787 179.483602 1.186843
v    17.610958 179.101173 1.695612
v    16.342076 177.861521 2.807562
v    15.151203 176.658853 3.346545
v    14.008285 175.200317 3.803401
v    19.524089 179.815091 0.595348
v    20.398091 179.680303 0.595348
v    20.077820 180.504606 0.595348
v    20.475911 180.184909 0.628000
v    19.601909 180.319697 0.628000
v    19.922180 179.495394 0.628000
v    20.345850 180.777535 -0.889167
v    20.386069 180.762792 -0.631648
v    20.882540 180.342898 1.857082
v    20.780079 179.659929 -0.889167
v    20.799794 179.697959 -0.631648
v    20.882540 180.342898 1.857082
mtllib usm_11_Beer_2018-07-17_4.mtl
usemtl APPID_2856742848_1982942882656 
o vid_3 
f 3 2 1
f 4 5 6
f 1 6 5
f 1 5 3
f 3 5 4
f 4 2 3
f 2 4 6
f 6 1 2
usemtl APPID_2856744192_1982942883808 
o vid_4 
f 7 13 14
f 8 14 15
f 9 15 16
f 10 16 17
f 7 14 8
f 8 15 9
f 9 16 10
f 10 17 11
f 11 17 18
usemtl APPID_2856742848_1982942882656 
o vid_5 
f 21 20 19
f 22 23 24
f 19 24 23
f 19 23 21
f 21 23 22
f 22 20 21
f 20 22 24
f 24 19 20
usemtl APPID_2856744192_1982942883808 
o vid_6 
f 25 31 32
f 26 32 33
f 27 33 34
f 28 34 35
f 25 32 26
f 26 33 27
f 27 34 28
f 28 35 29
f 29 35 36
usemtl APPID_2856742848_1982942882656 
o vid_7 
f 39 38 37
f 40 41 42
f 37 42 41
f 37 41 39
f 39 41 40
f 40 38 39
f 38 40 42
f 42 37 38
usemtl APPID_2856744192_1982942883808 
o vid_8 
f 43 46 47
f 43 47 44
f 44 47 48
