# File generated by PlantGL - Fri Sep  4 14:41:33 2026
v    19.051326 419.537870 0.000000
v    20.874553 419.409489 0.000000
v    20.074121 421.052641 0.000000
v    20.948674 420.462130 0.281299
v    19.125447 420.590511 0.281299
v    19.925879 418.947359 0.281299
v    20.805682 420.728527 0.115884
v    21.304987 420.909561 0.608628
v    21.499515 420.982812 0.748546
v    22.010706 421.149200 1.108498
v    22.114364 421.184993 1.143507
v    22.647008 421.289444 1.312212
v    21.070295 420.185322 0.115884
v    21.520627 420.466888 0.608628
v    21.698219 420.574909 0.748546
v    22.144345 420.874862 1.108498
v    22.236426 420.934420 1.143507
v    22.647008 421.289444 1.312212
v    20.499605 420.400211 0.281299
v    19.403605 420.232566 0.281299
v    20.096790 419.367224 0.281299
v    19.500395 419.599789 0.309000
v    20.596395 419.767434 0.309000
v    19.903210 420.632776 0.309000
v    19.600781 419.269215 -0.106856
v    19.465876 419.310901 0.907026
v    19.185836 419.347811 1.726289
v    19.199700 419.769906 -0.106856
v    19.210937 419.629156 0.907026
v    19.185836 419.347811 1.726289
mtllib usm_11_Beer_2018-07-23_10.mtl
usemtl APPID_2963231040_1982942917216 
o vid_3 
f 3 2 1
f 4 5 6
f 1 6 5
f 1 5 3
f 3 5 4
f 4 2 3
f 2 4 6
f 6 1 2
usemtl APPID_2963232160_1982942921312 
o vid_4 
f 7 13 14
f 8 14 15
f 9 15 16
f 10 16 17
f 7 14 8
f 8 15 9
f 9 16 10
f 10 17 11
f 11 17 18
usemtl APPID_2963231040_1982942917216 
o vid_5 
f 21 20 19
f 22 23 24
f 19 24 23
f 19 23 21
f 21 23 22
f 22 20 21
f 20 22 24
f 24 19 20
usemtl APPID_2963232160_1982942921312 
o vid_6 
f 25 28 29
f 25 29 26
f 26 29 30
