# File generated by PlantGL - Fri Sep  4 14:43:04 2026
v    177.752484 18.905161 0.000000
v    182.071916 18.601013 0.000000
v    180.175600 22.493825 0.000000
v    182.247516 21.094839 0.362700
v    177.928084 21.398987 0.362700
v    179.824400 17.506175 0.362700
v    182.064919 21.443497 0.203135
v    182.349024 21.551815 0.485677
v    182.544366 21.622640 0.678451
v    183.214758 21.875082 1.160640
v    183.893087 22.139874 1.394046
v    184.555042 22.368444 1.617616
v    185.088464 22.478758 1.635824
v    182.409497 20.736137 0.203135
v    182.669918 20.893076 0.485677
v    182.846100 21.003232 0.678451
v    183.458122 21.375497 1.160640
v    184.084762 21.746398 1.394046
v    184.672787 22.126734 1.617616
v    185.088464 22.478758 1.635824
v    181.879284 21.505407 0.362700
v    177.756638 20.874804 0.362700
v    180.364078 17.619789 0.362700
v    178.120716 18.494593 0.589630
v    182.243362 19.125196 0.589630
v    179.635922 22.380211 0.589630
v    178.479376 18.072791 0.363996
v    178.148145 17.852770 0.733509
v    177.873522 17.676779 1.036123
v    177.027453 17.119776 1.717968
v    176.209108 16.566797 2.034546
v    175.367241 16.045348 2.350689
v    174.667479 15.728367 2.390412
v    177.787364 18.936669 0.363996
v    177.500353 18.661445 0.733509
v    177.268667 18.431855 1.036123
v    176.540430 17.727755 1.717968
v    175.822170 17.049832 2.034546
v    175.129548 16.342074 2.350689
v    174.667479 15.728367 2.390412
v    177.841416 19.161313 0.589630
v    181.805616 18.549955 0.589630
v    180.352968 22.288732 0.589630
v    182.158584 20.838687 1.053978
v    178.194384 21.450045 1.053978
v    179.647032 17.711268 1.053978
v    181.861455 21.541363 0.741172
v    182.340605 21.679939 1.204669
v    182.827733 21.812197 1.672969
v    184.178347 22.196800 2.618240
v    185.425175 22.568126 3.035236
v    186.755439 22.907460 3.473518
v    187.809515 23.034277 3.551296
v    182.413810 20.119731 0.741172
v    182.860829 20.341005 1.204669
v    183.309467 20.572325 1.672969
v    184.565454 21.200480 2.618240
v    185.735914 21.768357 3.035236
v    186.946324 22.416166 3.473518
v    187.809515 23.034277 3.551296
v    182.163962 20.511898 1.053978
v    178.474702 21.618097 1.053978
v    179.361335 17.870005 1.053978
v    177.836038 19.488102 1.829186
v    181.525298 18.381903 1.829186
v    180.638665 22.129995 1.829186
v    178.107731 18.472275 1.404030
v    177.274123 18.352053 2.186675
v    176.756817 18.286097 2.670497
v    174.866573 18.021416 3.955276
v    172.907206 17.722975 4.590561
v    171.052839 17.515422 5.186258
v    169.599650 17.539737 5.220888
v    177.623804 20.517995 1.404030
v    176.824683 20.251985 2.186675
v    176.332654 20.079178 2.670497
v    174.524162 19.468901 3.955276
v    172.638748 18.857837 4.590561
v    170.887927 18.212562 5.186258
v    169.599650 17.539737 5.220888
v    178.657697 18.467193 1.829186
v    181.998601 19.603935 1.829186
v    179.343702 21.928872 1.829186
v    181.342303 21.532807 2.769464
v    178.001399 20.396065 2.769464
v    180.656298 18.071128 2.769464
v    180.249189 22.435952 2.202935
v    181.197020 23.341352 3.420973
v    181.568685 23.684890 3.890528
v    183.415015 25.434106 5.602522
v    185.486216 27.444207 6.527658
v    187.306833 29.075930 7.308160
v    188.941533 30.210541 7.286035
v    182.381778 20.568410 2.202935
v    183.154206 21.627413 3.420973
v    183.445703 22.041155 3.890528
v    184.936023 24.102135 5.602522
v    186.655277 26.420442 6.527658
v    188.032523 28.440432 7.308160
v    188.941533 30.210541 7.286035
v    181.374497 20.877577 2.769464
v    178.552748 20.751561 2.769464
v    180.072756 18.370863 2.769464
v    178.625503 19.122423 5.235228
v    181.447252 19.248439 5.235228
v    179.927244 21.629137 5.235228
v    179.625292 17.655339 4.495116
v    178.874750 17.265386 5.281076
v    177.506408 16.582736 6.699786
v    174.551698 15.062979 8.936332
v    172.216024 13.825857 9.783525
v    169.287494 12.420579 10.820516
v    168.232807 12.084395 11.164575
v    166.919389 11.648403 11.149199
v    177.715364 20.646746 4.495116
v    177.045782 20.129990 5.281076
v    175.850703 19.175968 6.699786
v    173.228681 17.135142 8.936332
v    171.123549 15.536935 9.783525
v    168.616393 13.471684 10.820516
v    167.867600 12.656397 11.164575
v    166.919389 11.648403 11.149199
v    178.983521 19.267625 5.235228
v    181.142495 19.485891 5.235228
v    179.873984 21.246484 5.235228
v    181.016479 20.732375 9.070287
v    178.857505 20.514109 9.070287
v    180.126016 18.753516 9.070287
v    179.511334 22.704876 8.122360
v    182.124972 24.254914 10.946076
v    185.790548 26.415669 13.810619
v    191.285707 29.733740 15.868192
v    193.470532 30.937350 16.664527
v    194.997246 31.789873 16.644620
v    198.026033 32.987799 16.608432
v    182.411094 18.680238 8.122360
v    184.708768 20.668811 10.946076
v    187.918741 23.461906 13.810619
v    192.805669 27.624153 15.868192
v    194.638989 29.315625 16.664527
v    195.930951 30.493966 16.644620
v    198.026033 32.987799 16.608432
v    180.757260 20.493178 9.070287
v    179.194265 20.409217 9.070287
v    180.048475 19.097604 9.070287
v    179.242740 19.506822 13.983167
v    180.805735 19.590783 13.983167
v    179.951525 20.902396 13.983167
v    180.978367 16.998546 12.792873
v    177.840060 15.331816 16.094910
v    172.876464 12.725446 19.935512
v    166.628781 9.343627 22.212657
v    162.955423 7.539917 23.519110
v    158.022357 5.686693 23.460145
v    177.650455 22.108452 12.792873
v    174.857087 19.912079 16.094910
v    170.466267 16.426230 19.935512
v    164.846999 12.079498 22.212657
v    161.712001 9.449153 23.519110
v    158.022357 5.686693 23.460145
v    179.489871 19.717063 13.983167
v    180.500095 19.699684 13.983167
v    180.010034 20.583253 13.983167
v    180.510129 20.282937 16.514000
v    179.499905 20.300316 16.514000
v    179.989966 19.416747 16.514000
v    179.549231 22.838427 13.668896
v    181.957232 23.607614 19.567909
v    183.216477 24.082066 21.719698
v    185.991397 24.910592 26.291353
v    186.930239 25.255477 27.181877
v    190.700353 25.934828 30.449574
v    182.169202 18.114682 13.668896
v    184.096732 19.750147 19.567909
v    185.165976 20.567166 21.719698
v    187.338124 22.482474 26.291353
v    188.127805 23.096294 27.181877
v    190.700353 25.934828 30.449574
mtllib usm_43_2.5D_2018-08-13_4.mtl
usemtl APPID_3903032000_2215810912880 
o vid_3 
f 3 2 1
f 4 5 6
f 1 6 5
f 1 5 3
f 3 5 4
f 4 2 3
f 2 4 6
f 6 1 2
usemtl APPID_3903034464_2215810913776 
o vid_4 
f 7 14 15
f 8 15 16
f 9 16 17
f 10 17 18
f 11 18 19
f 7 15 8
f 8 16 9
f 9 17 10
f 10 18 11
f 11 19 12
f 12 19 20
usemtl APPID_3903032000_2215810912880 
o vid_5 
f 23 22 21
f 24 25 26
f 21 26 25
f 21 25 23
f 23 25 24
f 24 22 23
f 22 24 26
f 26 21 22
usemtl APPID_3903034464_2215810913776 
o vid_6 
f 27 34 35
f 28 35 36
f 29 36 37
f 30 37 38
f 31 38 39
f 27 35 28
f 28 36 29
f 29 37 30
f 30 38 31
f 31 39 32
f 32 39 40
usemtl APPID_3903032000_2215810912880 
o vid_7 
f 43 42 41
f 44 45 46
f 41 46 45
f 41 45 43
f 43 45 44
f 44 42 43
f 42 44 46
f 46 41 42
usemtl APPID_3903034464_2215810913776 
o vid_8 
f 47 54 55
f 48 55 56
f 49 56 57
f 50 57 58
f 51 58 59
f 47 55 48
f 48 56 49
f 49 57 50
f 50 58 51
f 51 59 52
f 52 59 60
usemtl APPID_3903032000_2215810912880 
o vid_9 
f 63 62 61
f 64 65 66
f 61 66 65
f 61 65 63
f 63 65 64
f 64 62 63
f 62 64 66
f 66 61 62
usemtl APPID_3903034464_2215810913776 
o vid_10 
f 67 74 75
f 68 75 76
f 69 76 77
f 70 77 78
f 71 78 79
f 67 75 68
f 68 76 69
f 69 77 70
f 70 78 71
f 71 79 72
f 72 79 80
usemtl APPID_3903032000_2215810912880 
o vid_11 
f 83 82 81
f 84 85 86
f 81 86 85
f 81 85 83
f 83 85 84
f 84 82 83
f 82 84 86
f 86 81 82
usemtl APPID_3903034464_2215810913776 
o vid_12 
f 87 94 95
f 88 95 96
f 89 96 97
f 90 97 98
f 91 98 99
f 87 95 88
f 88 96 89
f 89 97 90
f 90 98 91
f 91 99 92
f 92 99 100
usemtl APPID_3903032000_2215810912880 
o vid_13 
f 103 102 101
f 104 105 106
f 101 106 105
f 101 105 103
f 103 105 104
f 104 102 103
f 102 104 106
f 106 101 102
usemtl APPID_3903034464_2215810913776 
o vid_14 
f 107 115 116
f 108 116 117
f 109 117 118
f 110 118 119
f 111 119 120
f 112 120 121
f 107 116 108
f 108 117 109
f 109 118 110
f 110 119 111
f 111 120 112
f 112 121 113
f 113 121 122
usemtl APPID_3903032000_2215810912880 
o vid_15 
f 125 124 123
f 126 127 128
f 123 128 127
f 123 127 125
f 125 127 126
f 126 124 125
f 124 126 128
f 128 123 124
usemtl APPID_3903034464_2215810913776 
o vid_16 
f 129 136 137
f 130 137 138
f 131 138 139
f 132 139 140
f 133 140 141
f 129 137 130
f 130 138 131
f 131 139 132
f 132 140 133
f 133 141 134
f 134 141 142
usemtl APPID_3903032000_2215810912880 
o vid_17 
f 145 144 143
f 146 147 148
f 143 148 147
f 143 147 145
f 145 147 146
f 146 144 145
f 144 146 148
f 148 143 144
usemtl APPID_3903034464_2215810913776 
o vid_18 
f 149 155 156
f 150 156 157
f 151 157 158
f 152 158 159
f 149 156 150
f 150 157 151
f 151 158 152
f 152 159 153
f 153 159 160
usemtl APPID_3903032000_2215810912880 
o vid_19 
f 163 162 161
f 164 165 166
f 161 166 165
f 161 165 163
f 163 165 164
f 164 162 163
f 162 164 166
f 166 161 162
usemtl APPID_3903034464_2215810913776 
o vid_20 
f 167 173 174
f 168 174 175
f 169 175 176
f 170 176 177
f 167 174 168
f 168 175 169
f 169 176 170
f 170 177 171
f 171 177 178
