# File generated by PlantGL - Fri Sep  4 14:43:51 2026
v    17.752484 258.905161 0.000000
v    22.071916 258.601013 0.000000
v    20.175600 262.493825 0.000000
v    22.247516 261.094839 0.362700
v    17.928084 261.398987 0.362700
v    19.824400 257.506175 0.362700
v    22.064206 261.444186 0.198415
v    22.244229 261.512821 0.377447
v    22.308137 261.535993 0.440515
v    22.409600 260.735152 0.198415
v    22.574615 260.834596 0.377447
v    22.632255 260.870634 0.440515
v    21.879284 261.505407 0.362700
v    17.756638 260.874804 0.362700
v    20.364078 257.619789 0.362700
v    18.120716 258.494593 0.589630
v    22.243362 259.125196 0.589630
v    19.635922 262.380211 0.589630
v    18.486451 258.065410 0.351375
v    18.331241 257.962311 0.524524
v    18.146944 257.844206 0.727604
v    17.781705 258.945184 0.351375
v    17.647216 258.816218 0.524524
v    17.491734 258.662143 0.727604
v    17.841416 259.161313 0.589630
v    21.805616 258.549955 0.589630
v    20.352968 262.288732 0.589630
v    22.158584 260.838687 1.053978
v    18.194384 261.450045 1.053978
v    19.647032 257.711268 1.053978
v    21.853561 261.556811 0.716636
v    21.910634 261.573317 0.771844
v    22.351380 261.692982 1.195556
v    22.418417 260.103006 0.716636
v    22.471662 260.129362 0.771844
v    22.877584 260.338658 1.195556
v    22.163962 260.511898 1.053978
v    18.474702 261.618097 1.053978
v    19.361335 257.870005 1.053978
v    17.836038 259.488102 1.829186
v    21.525298 258.381903 1.829186
v    20.638665 262.129995 1.829186
v    18.117622 258.443310 1.362867
v    17.996800 258.425885 1.476303
v    17.344141 258.342671 2.086718
v    17.619670 260.548322 1.362867
v    17.503846 260.509767 1.476303
v    16.883076 260.291744 2.086718
v    18.595695 258.396392 1.829186
v    22.090917 259.585640 1.829186
v    19.313387 262.017967 1.829186
v    21.404305 261.603608 2.769464
v    17.909083 260.414360 2.769464
v    20.686613 257.982033 2.769464
v    20.271948 262.535120 2.140132
v    20.439332 262.695010 2.355234
v    21.048046 263.257658 3.124273
v    22.477076 260.604054 2.140132
v    22.613484 260.791071 2.355234
v    23.090900 261.468699 3.124273
v    21.718982 261.097521 2.769464
v    18.190028 260.939922 2.769464
v    20.090990 257.962557 2.769464
v    18.281018 258.902479 5.235228
v    21.809972 259.060078 5.235228
v    19.909010 262.037443 5.235228
v    19.308878 257.403324 4.406026
v    18.136955 256.818665 5.621088
v    17.353598 260.465763 4.406026
v    16.330067 259.648686 5.621088
v    18.420020 258.861621 5.235228
v    21.775855 259.200887 5.235228
v    19.804125 261.937492 5.235228
v    21.579980 261.138379 9.070287
v    18.224145 260.799113 9.070287
v    20.195875 258.062508 9.070287
v    20.005554 263.192441 8.003627
v    21.338164 263.982756 9.443349
v    22.964608 264.911586 11.181028
v    24.759961 265.966381 12.582656
v    23.030032 258.994706 8.003627
v    24.201542 260.008615 9.443349
v    25.597457 261.257402 11.181028
v    27.166327 262.626537 12.582656
v    21.554633 261.012481 9.070287
v    18.345849 260.840111 9.070287
v    20.099518 258.147408 9.070287
v    18.445367 258.987519 15.537192
v    21.654151 259.159889 15.537192
v    19.900482 261.852592 15.537192
v    20.392245 256.174533 14.197591
v    16.977850 254.361175 17.790120
v    11.272863 251.367269 22.236183
v    7.366332 249.252697 23.660029
v    16.659812 261.905569 14.197591
v    13.620701 259.515974 17.790120
v    8.575658 255.508744 22.236183
v    5.062061 252.790834 23.660029
v    18.458123 259.144816 15.537192
v    21.511550 259.092287 15.537192
v    20.030327 261.762897 15.537192
v    21.541877 260.855184 23.570456
v    18.488450 260.907713 23.570456
v    19.969673 258.237103 23.570456
v    19.464952 264.356493 21.927940
v    22.527416 265.714357 25.040925
v    24.293659 266.463044 26.820719
v    31.046862 269.424181 31.784239
v    38.039839 272.591319 34.244892
v    23.412375 257.239384 21.927940
v    26.185821 259.118340 25.040925
v    27.756155 260.220247 26.820719
v    33.843898 264.381193 31.784239
v    40.233352 268.636468 34.244892
v    21.614895 260.429572 23.570456
v    18.820532 261.183754 23.570456
v    19.564573 258.386674 23.570456
v    18.385105 259.570428 36.455601
v    21.179468 258.816246 36.455601
v    20.435427 261.613326 36.455601
v    19.788352 254.844791 34.489401
v    15.211870 254.054818 38.804989
v    13.570258 253.799126 40.346380
v    4.865777 252.333423 46.288042
v    -5.113043 250.529402 49.538434
v    -9.088456 249.972575 50.819960
v    17.254932 264.368705 34.489401
v    12.890807 262.780420 38.804989
v    11.339118 262.186675 40.346380
v    3.056837 259.133795 46.288042
v    -6.499455 255.741356 49.538434
v    -10.226114 254.249384 50.819960
v    18.541706 259.394647 36.455601
v    21.253398 259.039757 36.455601
v    20.204896 261.565597 36.455601
v    21.458294 260.605353 56.069611
v    18.746602 260.960243 56.069611
v    19.795104 258.434403 56.069611
v    18.987003 266.128007 53.771718
v    26.014532 268.335880 60.616758
v    35.860671 271.407481 67.560767
v    51.165977 276.349575 72.716040
v    56.484244 277.836580 74.478996
v    58.766583 278.488882 74.451972
v    23.624582 254.956089 53.771718
v    30.149774 258.374091 60.616758
v    39.276654 263.178387 67.560767
v    53.582495 270.528188 72.716040
v    58.390397 273.244660 74.478996
v    60.463735 274.400445 74.451972
v    21.148136 260.944713 56.069611
v    18.607786 260.521958 56.069611
v    20.244078 258.533328 56.069611
v    18.851864 259.055287 79.423717
v    21.392214 259.478042 79.423717
v    19.755922 261.466672 79.423717
v    23.214356 254.049946 76.801814
v    17.487247 250.136449 83.247571
v    6.513845 242.725864 92.535154
v    -5.384466 234.456384 97.179614
v    -13.965963 228.983960 100.428872
v    -14.564922 228.597149 100.420755
v    14.780338 264.300042 76.801814
v    9.837177 259.433792 83.247571
v    0.452063 250.092916 92.535154
v    -9.953986 240.009849 97.179614
v    -16.976588 232.642857 100.428872
v    -17.471506 232.129602 100.420755
v    19.036323 258.991726 79.423717
v    21.355030 259.669568 79.423717
v    19.608648 261.338706 79.423717
v    20.963677 261.008274 104.049333
v    18.644970 260.330432 104.049333
v    20.391352 258.661294 104.049333
v    15.704689 265.744337 101.128630
v    18.818374 268.469501 104.973699
v    22.812409 271.851009 109.828915
v    32.714643 280.446021 118.654992
v    41.286590 288.069140 122.331918
v    51.195757 296.200773 126.424194
v    52.062900 296.730459 126.740015
v    25.932647 255.968772 101.128630
v    28.514261 259.202473 104.973699
v    31.711748 263.345297 109.828915
v    39.850310 273.625972 118.654992
v    47.078113 282.533782 122.331918
v    54.753456 292.800434 126.424194
v    55.243399 293.690636 126.740015
v    20.912312 260.929805 104.049333
v    18.738610 260.325183 104.049333
v    20.349079 258.745013 104.049333
v    19.087688 259.070195 123.068782
v    21.261390 259.674817 123.068782
v    19.650921 261.254987 123.068782
v    24.215156 254.358967 119.892328
v    16.345588 247.871546 129.354451
v    5.454595 238.665963 138.953382
v    3.563803 237.028366 139.755152
v    -7.328120 228.326793 144.205767
v    -9.946907 226.773923 145.152054
v    14.279936 264.107268 119.892328
v    7.943134 256.115918 129.354451
v    -1.053961 245.052068 138.953382
v    -2.655356 243.130518 139.755152
v    -11.148514 232.075310 144.205767
v    -12.651370 229.427506 145.152054
v    19.188946 259.101354 123.068782
v    21.183778 259.746930 123.068782
v    19.627277 261.151717 123.068782
v    20.811054 260.898646 140.891217
v    18.816222 260.253070 140.891217
v    20.372723 258.848283 140.891217
v    14.668200 266.116286 137.518484
v    17.241181 268.501429 140.778701
v    22.686688 273.385661 147.565289
v    33.833213 283.633561 157.757355
v    42.273610 291.583022 161.473802
v    53.443426 301.296275 166.199429
v    58.004518 304.264573 167.890832
v    26.629154 255.321179 137.518484
v    28.738859 258.124442 140.778701
v    33.041006 264.040589 147.565289
v    42.096115 276.176053 157.757355
v    49.141374 285.384666 161.473802
v    57.662255 297.488660 166.199429
v    60.148884 302.329221 167.890832
v    21.097812 260.213714 140.891217
v    19.266012 260.843876 140.891217
v    19.636176 258.942409 140.891217
v    18.902188 259.786286 154.064959
v    20.733988 259.156124 154.064959
v    20.363824 261.057591 154.064959
v    20.788550 251.411138 150.568684
v    14.596877 250.769793 156.353080
v    9.624715 250.337131 160.983500
v    -5.994379 248.784153 171.548898
v    -21.285724 247.077705 176.480707
v    -36.591221 245.982342 181.379432
v    -46.320946 246.549193 181.991651
v    17.509029 268.257447 150.568684
v    11.528932 266.529277 156.353080
v    6.757570 265.065138 160.983500
v    -8.303468 260.645524 171.548898
v    -23.118262 256.491120 176.480707
v    -37.716939 251.764949 181.379432
v    -46.523483 247.589588 181.991651
v    19.208315 259.346885 154.064959
v    20.961457 259.640938 154.064959
v    19.830228 261.012177 154.064959
v    20.791685 260.653115 161.384988
v    19.038543 260.359062 161.384988
v    20.169772 258.987823 161.384988
v    15.282096 266.932111 157.846536
v    17.370403 268.363027 160.198942
v    24.731757 273.231439 168.386993
v    37.872879 282.156619 179.079849
v    46.625902 288.256683 182.499597
v    59.709147 296.623405 187.457419
v    66.363732 299.676331 189.733009
v    70.211847 301.497643 189.685706
v    25.909006 254.050510 157.846536
v    27.710763 255.828772 160.198942
v    33.889604 262.130589 168.386993
v    45.149825 273.335738 179.079849
v    52.802380 280.769753 182.499597
v    63.503322 292.024227 187.457419
v    67.765437 297.977229 189.733009
v    70.284961 301.409017 189.685706
v    20.733700 260.550958 161.384988
v    19.156007 260.359924 161.384988
v    20.110293 259.089118 161.384988
v    19.266300 259.449042 167.157664
v    20.843993 259.640076 167.157664
v    19.889707 260.910882 167.157664
v    24.628237 252.727039 163.661390
v    19.207592 249.365892 169.588279
v    15.055131 246.884531 174.076205
v    1.681454 238.667925 184.641603
v    -11.499077 230.349873 189.637362
v    -24.790427 222.681881 194.536087
v    -35.793092 218.103266 195.057948
v    14.306154 266.472763 163.661390
v    9.566750 262.204420 169.588279
v    6.025876 258.908620 174.076205
v    -5.594141 248.356699 184.641603
v    -17.257721 238.018550 189.637362
v    -28.327929 227.392706 194.536087
v    -35.793092 218.103266 195.057948
v    19.430336 259.601006 167.157664
v    20.630371 259.706154 167.157664
v    19.939293 260.692840 167.157664
v    20.569664 260.398994 170.528426
v    19.369629 260.293846 170.528426
v    20.060707 259.307160 170.528426
v    15.843832 266.723847 167.155694
v    25.302673 271.990463 177.202498
v    38.459033 279.485440 187.394565
v    46.388951 284.130264 190.340298
v    59.448422 291.098931 195.065925
v    66.948798 293.848165 197.548793
v    69.962313 294.993743 197.512973
v    24.898482 253.796072 167.155694
v    33.080739 260.885330 177.202498
v    44.620886 270.687855 187.394565
v    51.696248 276.552771 190.340298
v    62.708664 286.444120 195.065925
v    67.855779 292.553224 197.548793
v    69.962313 294.993743 197.512973
v    20.408854 260.291686 170.528426
v    19.542965 260.208235 170.528426
v    20.048181 259.500079 170.528426
v    19.591146 259.708314 172.749000
v    20.457035 259.791765 172.749000
v    19.951819 260.499921 172.749000
v    23.963105 253.973188 169.572546
v    15.083138 248.956922 179.034669
v    2.754176 241.790808 188.633600
v    -2.024262 238.935905 190.417791
v    -14.266280 232.266246 194.868407
v    -24.021175 228.594242 198.108026
v    15.590808 265.708563 169.572546
v    7.957974 258.944202 179.034669
v    -2.830021 249.618128 188.633600
v    -7.084469 246.028753 190.417791
v    -17.374737 236.623342 194.868407
v    -24.021175 228.594242 198.108026
v    22.308137 261.535993 0.440515
v    22.558706 261.626842 0.687792
v    23.248930 261.886751 1.184245
v    23.801418 262.102420 1.374350
v    24.482956 262.337752 1.604534
v    24.717605 262.383767 1.678855
v    25.025088 262.447885 1.675365
v    22.632255 260.870634 0.440515
v    22.858248 261.011934 0.687792
v    23.488375 261.395211 1.184245
v    23.998764 261.697304 1.374350
v    24.604184 262.088891 1.604534
v    24.785060 262.245293 1.678855
v    25.025088 262.447885 1.675365
v    18.146944 257.844206 0.727604
v    17.844299 257.650257 1.061097
v    16.950906 257.062099 1.781079
v    16.338570 256.648326 2.017963
v    15.449615 256.097710 2.351788
v    15.018117 255.907223 2.498389
v    14.722620 255.772538 2.494781
v    17.491734 258.662143 0.727604
v    17.236405 258.409125 1.061097
v    16.467436 257.665642 1.781079
v    15.929990 257.158379 2.017963
v    15.198627 256.411033 2.351788
v    14.918554 256.031514 2.498389
v    14.722620 255.772538 2.494781
v    22.351380 261.692982 1.195556
v    22.898491 261.841526 1.721521
v    24.355043 262.256296 2.740935
v    25.103002 262.479051 2.991087
v    26.537607 262.845001 3.463745
v    27.473929 262.949292 3.756564
v    27.645228 262.970445 3.754646
v    22.877584 260.338658 1.195556
v    23.381466 260.598463 1.721521
v    24.735967 261.275887 2.740935
v    25.438114 261.616551 2.991087
v    26.743465 262.315172 3.463745
v    27.504583 262.870397 3.756564
v    27.645228 262.970445 3.754646
v    17.344141 258.342671 2.086718
v    16.632868 258.251984 2.751952
v    14.559613 257.961677 4.161121
v    13.441726 257.791406 4.523574
v    11.407821 257.563758 5.176945
v    10.159576 257.597934 5.565059
v    9.864896 257.602482 5.561784
v    16.883076 260.291744 2.086718
v    16.206558 260.054141 2.751952
v    14.222970 259.384778 4.161121
v    13.147275 259.036145 4.523574
v    11.226942 258.328394 5.176945
v    10.126306 257.738578 5.565059
v    9.864896 257.602482 5.561784
v    21.048046 263.257658 3.124273
v    21.752925 263.909192 4.014805
v    23.803932 265.852320 5.916584
v    24.961367 266.975611 6.433571
v    27.018213 268.819053 7.315344
v    28.342445 269.709355 7.811302
v    28.747029 269.988432 7.805841
v    23.090900 261.468699 3.124273
v    23.643736 262.253379 4.014805
v    25.299267 264.542832 5.916584
v    26.260026 265.838354 6.433571
v    27.815972 268.120443 7.315344
v    28.523772 269.550564 7.811302
v    28.747029 269.988432 7.805841
v    18.136955 256.818665 5.621088
v    16.926516 256.214791 6.876081
v    13.616135 254.512093 9.381850
v    13.039625 254.206737 9.590962
v    9.758575 252.632298 10.752780
v    7.166165 251.805963 11.598472
v    16.330067 259.648686 5.621088
v    15.272897 258.804757 6.876081
v    12.335251 256.518267 9.381850
v    11.815644 256.123785 9.590962
v    9.006691 253.809930 10.752780
v    7.166165 251.805963 11.598472
v    24.759961 265.966381 12.582656
v    27.093405 267.337312 14.404370
v    30.722243 269.528467 15.763130
v    34.822623 271.787348 17.257656
v    35.898966 272.198267 17.615745
v    38.185276 273.102534 17.588428
v    27.166327 262.626537 12.582656
v    29.205408 264.406020 14.404370
v    32.432588 267.154643 15.763130
v    35.873279 270.329122 17.257656
v    36.603782 271.220039 17.615745
v    38.185276 273.102534 17.588428
v    7.366332 249.252697 23.660029
v    4.393809 247.643694 24.743449
v    0.103574 245.537082 26.269299
v    -0.929702 245.022334 26.256156
v    -5.284896 243.532789 26.205015
v    5.062061 252.790834 23.660029
v    2.388525 250.722746 24.743449
v    -1.272941 247.650680 26.269299
v    -2.161537 246.913777 26.256156
v    -5.284896 243.532789 26.205015
v    38.039839 272.591319 34.244892
v    44.815334 275.345940 36.580038
v    50.250803 276.778261 36.672216
v    40.233352 268.636468 34.244892
v    46.157708 272.925672 36.580038
v    50.250803 276.778261 36.672216
v    -9.088456 249.972575 50.819960
v    -13.393183 249.369622 52.207645
v    -20.427312 249.246086 52.129376
v    -10.226114 254.249384 50.819960
v    -14.261480 252.633821 52.207645
v    -20.427312 249.246086 52.129376
v    58.766583 278.488882 74.451972
v    61.089307 279.152726 74.424470
v    68.901169 280.299383 74.336745
v    60.463735 274.400445 74.451972
v    62.573761 275.576682 74.424470
v    68.901169 280.299383 74.336745
v    -14.564922 228.597149 100.420755
v    -15.138052 228.227017 100.412987
v    -23.285831 224.383410 100.312893
v    -17.471506 232.129602 100.420755
v    -17.945082 231.638479 100.412987
v    -23.285831 224.383410 100.312893
v    52.062900 296.730459 126.740015
v    54.007628 297.918377 127.448304
v    59.586054 301.418015 127.375137
v    55.243399 293.690636 126.740015
v    56.342185 295.687080 127.448304
v    59.586054 301.418015 127.375137
v    -9.946907 226.773923 145.152054
v    -16.293553 223.010535 147.445386
v    -12.651370 229.427506 145.152054
v    -16.293553 223.010535 147.445386
v    58.004518 304.264573 167.890832
v    62.900604 307.533772 167.846915
v    60.148884 302.329221 167.890832
v    62.900604 307.533772 167.846915
v    -46.320946 246.549193 181.991651
v    -48.479016 246.668987 181.967636
v    -46.523483 247.589588 181.991651
v    -48.479016 246.668987 181.967636
v    70.211847 301.497643 189.685706
v    70.423612 301.597871 189.683103
v    70.284961 301.409017 189.685706
v    70.423612 301.597871 189.683103
mtllib usm_15_2.5D_2018-09-19_6.mtl
usemtl APPID_1698976352_2630217928960 
o vid_3 
f 3 2 1
f 4 5 6
f 1 6 5
f 1 5 3
f 3 5 4
f 4 2 3
f 2 4 6
f 6 1 2
usemtl APPID_1698977584_2630217923200 
o vid_4 
f 7 10 11
f 7 11 8
f 8 11 12
f 8 12 9
usemtl APPID_1698976352_2630217928960 
o vid_5 
f 15 14 13
f 16 17 18
f 13 18 17
f 13 17 15
f 15 17 16
f 16 14 15
f 14 16 18
f 18 13 14
usemtl APPID_1698977584_2630217923200 
o vid_6 
f 19 22 23
f 19 23 20
f 20 23 24
f 20 24 21
usemtl APPID_1698976352_2630217928960 
o vid_7 
f 27 26 25
f 28 29 30
f 25 30 29
f 25 29 27
f 27 29 28
f 28 26 27
f 26 28 30
f 30 25 26
usemtl APPID_1698977584_2630217923200 
o vid_8 
f 31 34 35
f 31 35 32
f 32 35 36
f 32 36 33
usemtl APPID_1698976352_2630217928960 
o vid_9 
f 39 38 37
f 40 41 42
f 37 42 41
f 37 41 39
f 39 41 40
f 40 38 39
f 38 40 42
f 42 37 38
usemtl APPID_1698977584_2630217923200 
o vid_10 
f 43 46 47
f 43 47 44
f 44 47 48
f 44 48 45
usemtl APPID_1698976352_2630217928960 
o vid_11 
f 51 50 49
f 52 53 54
f 49 54 53
f 49 53 51
f 51 53 52
f 52 50 51
f 50 52 54
f 54 49 50
usemtl APPID_1698977584_2630217923200 
o vid_12 
f 55 58 59
f 55 59 56
f 56 59 60
f 56 60 57
usemtl APPID_1698976352_2630217928960 
o vid_13 
f 63 62 61
f 64 65 66
f 61 66 65
f 61 65 63
f 63 65 64
f 64 62 63
f 62 64 66
f 66 61 62
usemtl APPID_1698977584_2630217923200 
o vid_14 
f 67 69 70
f 67 70 68
f 67 69 70
f 67 70 68
usemtl APPID_1698976352_2630217928960 
o vid_15 
f 73 72 71
f 74 75 76
f 71 76 75
f 71 75 73
f 73 75 74
f 74 72 73
f 72 74 76
f 76 71 72
usemtl APPID_1698977584_2630217923200 
o vid_16 
f 77 81 82
f 78 82 83
f 77 82 78
f 78 83 79
f 79 83 84
f 79 84 80
usemtl APPID_1698976352_2630217928960 
o vid_17 
f 87 86 85
f 88 89 90
f 85 90 89
f 85 89 87
f 87 89 88
f 88 86 87
f 86 88 90
f 90 85 86
usemtl APPID_1698977584_2630217923200 
o vid_18 
f 91 95 96
f 92 96 97
f 91 96 92
f 92 97 93
f 93 97 98
f 93 98 94
usemtl APPID_1698976352_2630217928960 
o vid_19 
f 101 100 99
f 102 103 104
f 99 104 103
f 99 103 101
f 101 103 102
f 102 100 101
f 100 102 104
f 104 99 100
usemtl APPID_1698977584_2630217923200 
o vid_20 
f 105 110 111
f 106 111 112
f 107 112 113
f 105 111 106
f 106 112 107
f 107 113 108
f 108 113 114
f 108 114 109
usemtl APPID_1698976352_2630217928960 
o vid_21 
f 117 116 115
f 118 119 120
f 115 120 119
f 115 119 117
f 117 119 118
f 118 116 117
f 116 118 120
f 120 115 116
usemtl APPID_1698977584_2630217923200 
o vid_22 
f 121 127 128
f 122 128 129
f 123 129 130
f 124 130 131
f 121 128 122
f 122 129 123
f 123 130 124
f 124 131 125
f 125 131 132
f 125 132 126
usemtl APPID_1698976352_2630217928960 
o vid_23 
f 135 134 133
f 136 137 138
f 133 138 137
f 133 137 135
f 135 137 136
f 136 134 135
f 134 136 138
f 138 133 134
usemtl APPID_1698977584_2630217923200 
o vid_24 
f 139 145 146
f 140 146 147
f 141 147 148
f 142 148 149
f 139 146 140
f 140 147 141
f 141 148 142
f 142 149 143
f 143 149 150
f 143 150 144
usemtl APPID_1698976352_2630217928960 
o vid_25 
f 153 152 151
f 154 155 156
f 151 156 155
f 151 155 153
f 153 155 154
f 154 152 153
f 152 154 156
f 156 151 152
usemtl APPID_1698977584_2630217923200 
o vid_26 
f 157 163 164
f 158 164 165
f 159 165 166
f 160 166 167
f 157 164 158
f 158 165 159
f 159 166 160
f 160 167 161
f 161 167 168
f 161 168 162
usemtl APPID_1698976352_2630217928960 
o vid_27 
f 171 170 169
f 172 173 174
f 169 174 173
f 169 173 171
f 171 173 172
f 172 170 171
f 170 172 174
f 174 169 170
usemtl APPID_1698977584_2630217923200 
o vid_28 
f 175 182 183
f 176 183 184
f 177 184 185
f 178 185 186
f 179 186 187
f 175 183 176
f 176 184 177
f 177 185 178
f 178 186 179
f 179 187 180
f 180 187 188
f 180 188 181
usemtl APPID_1698976352_2630217928960 
o vid_29 
f 191 190 189
f 192 193 194
f 189 194 193
f 189 193 191
f 191 193 192
f 192 190 191
f 190 192 194
f 194 189 190
usemtl APPID_1698977584_2630217923200 
o vid_30 
f 195 201 202
f 196 202 203
f 197 203 204
f 198 204 205
f 195 202 196
f 196 203 197
f 197 204 198
f 198 205 199
f 199 205 206
f 199 206 200
usemtl APPID_1698976352_2630217928960 
o vid_31 
f 209 208 207
f 210 211 212
f 207 212 211
f 207 211 209
f 209 211 210
f 210 208 209
f 208 210 212
f 212 207 208
usemtl APPID_1698977584_2630217923200 
o vid_32 
f 213 220 221
f 214 221 222
f 215 222 223
f 216 223 224
f 217 224 225
f 213 221 214
f 214 222 215
f 215 223 216
f 216 224 217
f 217 225 218
f 218 225 226
f 218 226 219
usemtl APPID_1698976352_2630217928960 
o vid_33 
f 229 228 227
f 230 231 232
f 227 232 231
f 227 231 229
f 229 231 230
f 230 228 229
f 228 230 232
f 232 227 228
usemtl APPID_1698977584_2630217923200 
o vid_34 
f 233 240 241
f 234 241 242
f 235 242 243
f 236 243 244
f 237 244 245
f 233 241 234
f 234 242 235
f 235 243 236
f 236 244 237
f 237 245 238
f 238 245 246
f 238 246 239
usemtl APPID_1698976352_2630217928960 
o vid_35 
f 249 248 247
f 250 251 252
f 247 252 251
f 247 251 249
f 249 251 250
f 250 248 249
f 248 250 252
f 252 247 248
usemtl APPID_1698977584_2630217923200 
o vid_36 
f 253 261 262
f 254 262 263
f 255 263 264
f 256 264 265
f 257 265 266
f 258 266 267
f 253 262 254
f 254 263 255
f 255 264 256
f 256 265 257
f 257 266 258
f 258 267 259
f 259 267 268
f 259 268 260
usemtl APPID_1698976352_2630217928960 
o vid_37 
f 271 270 269
f 272 273 274
f 269 274 273
f 269 273 271
f 271 273 272
f 272 270 271
f 270 272 274
f 274 269 270
usemtl APPID_1698977584_2630217923200 
o vid_38 
f 275 282 283
f 276 283 284
f 277 284 285
f 278 285 286
f 279 286 287
f 275 283 276
f 276 284 277
f 277 285 278
f 278 286 279
f 279 287 280
f 280 287 288
usemtl APPID_1698976352_2630217928960 
o vid_39 
f 291 290 289
f 292 293 294
f 289 294 293
f 289 293 291
f 291 293 292
f 292 290 291
f 290 292 294
f 294 289 290
usemtl APPID_1698977584_2630217923200 
o vid_40 
f 295 302 303
f 296 303 304
f 297 304 305
f 298 305 306
f 299 306 307
f 295 303 296
f 296 304 297
f 297 305 298
f 298 306 299
f 299 307 300
f 300 307 308
usemtl APPID_1698976352_2630217928960 
o vid_41 
f 311 310 309
f 312 313 314
f 309 314 313
f 309 313 311
f 311 313 312
f 312 310 311
f 310 312 314
f 314 309 310
usemtl APPID_1698977584_2630217923200 
o vid_42 
f 315 321 322
f 316 322 323
f 317 323 324
f 318 324 325
f 315 322 316
f 316 323 317
f 317 324 318
f 318 325 319
f 319 325 326
usemtl APPID_1698982512_2630217924864 
o vid_10000004 
f 327 334 335
f 328 335 336
f 329 336 337
f 330 337 338
f 331 338 339
f 327 335 328
f 328 336 329
f 329 337 330
f 330 338 331
f 331 339 332
f 332 339 340
usemtl APPID_1698982512_2630217924864 
o vid_10000006 
f 341 348 349
f 342 349 350
f 343 350 351
f 344 351 352
f 345 352 353
f 341 349 342
f 342 350 343
f 343 351 344
f 344 352 345
f 345 353 346
f 346 353 354
usemtl APPID_1698982512_2630217924864 
o vid_10000008 
f 355 362 363
f 356 363 364
f 357 364 365
f 358 365 366
f 359 366 367
f 355 363 356
f 356 364 357
f 357 365 358
f 358 366 359
f 359 367 360
f 360 367 368
usemtl APPID_1698982512_2630217924864 
o vid_10000010 
f 369 376 377
f 370 377 378
f 371 378 379
f 372 379 380
f 373 380 381
f 369 377 370
f 370 378 371
f 371 379 372
f 372 380 373
f 373 381 374
f 374 381 382
usemtl APPID_1698982512_2630217924864 
o vid_10000012 
f 383 390 391
f 384 391 392
f 385 392 393
f 386 393 394
f 387 394 395
f 383 391 384
f 384 392 385
f 385 393 386
f 386 394 387
f 387 395 388
f 388 395 396
usemtl APPID_1698982512_2630217924864 
o vid_10000014 
f 397 403 404
f 398 404 405
f 399 405 406
f 400 406 407
f 397 404 398
f 398 405 399
f 399 406 400
f 400 407 401
f 401 407 408
usemtl APPID_1698982512_2630217924864 
o vid_10000016 
f 409 415 416
f 410 416 417
f 411 417 418
f 412 418 419
f 409 416 410
f 410 417 411
f 411 418 412
f 412 419 413
f 413 419 420
usemtl APPID_1698982512_2630217924864 
o vid_10000018 
f 421 426 427
f 422 427 428
f 423 428 429
f 421 427 422
f 422 428 423
f 423 429 424
f 424 429 430
usemtl APPID_1698982512_2630217924864 
o vid_10000020 
f 431 434 435
f 431 435 432
f 432 435 436
usemtl APPID_1698982512_2630217924864 
o vid_10000022 
f 437 440 441
f 437 441 438
f 438 441 442
usemtl APPID_1698982512_2630217924864 
o vid_10000024 
f 443 446 447
f 443 447 444
f 444 447 448
usemtl APPID_1698982512_2630217924864 
o vid_10000026 
f 449 452 453
f 449 453 450
f 450 453 454
usemtl APPID_1698982512_2630217924864 
o vid_10000028 
f 455 458 459
f 455 459 456
f 456 459 460
usemtl APPID_1698982512_2630217924864 
o vid_10000030 
f 461 463 464
f 461 464 462
f 461 463 464
usemtl APPID_1698982512_2630217924864 
o vid_10000032 
f 465 467 468
f 465 468 466
f 465 467 468
usemtl APPID_1698982512_2630217924864 
o vid_10000034 
f 469 471 472
f 469 472 470
f 469 471 472
usemtl APPID_1698982512_2630217924864 
o vid_10000036 
f 473 475 476
f 473 476 474
f 473 475 476
