# File generated by PlantGL - Fri Sep  4 14:43:05 2026
v    18.201987 99.124129 0.000000
v    21.657533 98.880811 0.000000
v    20.140480 101.995060 0.000000
v    21.798013 100.875871 0.231332
v    18.342467 101.119189 0.231332
v    19.859520 98.004940 0.231332
v    20.990245 100.834340 -2.342111
v    22.033726 100.990694 -1.384459
v    21.267382 100.265424 -2.342111
v    22.033726 100.990694 -1.384459
v    21.503548 101.204422 0.231332
v    18.205166 100.699900 0.231332
v    20.291286 98.095678 0.231332
v    18.496452 98.795578 0.322458
v    21.794834 99.300100 0.322458
v    19.708714 101.904322 0.322458
v    19.332056 98.943076 -2.250986
v    18.066168 98.450897 -1.018262
v    18.822772 99.578843 -2.250986
v    18.066168 98.450897 -1.018262
v    18.272844 99.328938 0.322458
v    21.444735 98.839770 0.322458
v    20.282421 101.831292 0.322458
v    21.727156 100.671062 0.466406
v    18.555265 101.160230 0.466406
v    19.717579 98.168708 0.466406
v    20.827897 100.930163 -2.107037
v    22.715154 101.054934 -0.390396
v    21.238724 99.872793 -2.107037
v    22.715154 101.054934 -0.390396
v    21.731622 100.409625 0.466406
v    18.779443 101.294816 0.466406
v    19.488935 98.295559 0.466406
v    18.268378 99.590375 0.678771
v    21.220557 98.705184 0.678771
v    20.511065 101.704441 0.678771
v    19.178130 98.978124 -1.894673
v    16.499965 99.172046 0.542434
v    18.807396 100.545340 -1.894673
v    16.499965 99.172046 0.542434
v    18.876148 98.716648 0.678771
v    21.673341 99.668392 0.678771
v    19.450510 101.614960 0.678771
v    21.123852 101.283352 0.903326
v    18.326659 100.331608 0.903326
v    20.549490 98.385040 0.903326
v    19.704464 101.536877 -1.670117
v    23.221426 103.678620 2.067238
v    21.562434 99.909823 -1.670117
v    23.221426 103.678620 2.067238
v    21.375838 100.878433 0.903326
v    18.551335 100.752294 0.903326
v    20.072827 98.369272 0.903326
v    18.624162 99.121567 1.432322
v    21.448665 99.247706 1.432322
v    19.927173 101.630728 1.432322
v    20.182859 98.063513 -1.141121
v    14.611392 96.559527 4.096628
v    18.320269 100.980777 -1.141121
v    14.611392 96.559527 4.096628
v    18.735263 99.088754 1.432322
v    21.421531 99.360328 1.432322
v    19.843206 101.550918 1.432322
v    21.264737 100.911246 2.225063
v    18.578469 100.639672 2.225063
v    20.156794 98.449082 2.225063
v    19.368445 102.269782 -0.348380
v    21.248383 103.236385 1.640355
v    27.008609 105.143893 7.147625
v    27.283594 105.247847 7.326431
v    21.953144 98.682425 -0.348380
v    23.465132 100.159714 1.640355
v    27.097940 105.019909 7.147625
v    27.283594 105.247847 7.326431
v    21.244614 100.810576 2.225063
v    18.675713 100.672580 2.225063
v    20.079672 98.516844 2.225063
v    18.755386 99.189424 3.118961
v    21.324287 99.327420 3.118961
v    19.920328 101.483156 3.118961
v    20.671146 97.611824 0.545518
v    17.790129 96.298093 3.524471
v    12.997194 94.957683 8.041523
v    11.520487 94.477576 8.985978
v    18.087138 101.579488 0.545518
v    15.720660 99.475699 3.524471
v    12.556699 95.634049 8.041523
v    11.520487 94.477576 8.985978
v    18.765415 99.315252 3.118961
v    21.210302 99.273192 3.118961
v    20.024283 101.411556 3.118961
v    21.234585 100.684748 4.388898
v    18.789698 100.726808 4.388898
v    19.975717 98.588444 4.388898
v    19.258220 102.713384 1.815455
v    24.523197 104.676888 7.101982
v    26.908161 105.164888 9.311460
v    31.262146 106.246420 12.040161
v    21.909038 97.934023 1.815455
v    26.362470 101.360722 7.101982
v    28.039267 103.125531 9.311460
v    31.262146 106.246420 12.040161
v    21.293262 100.344016 4.388898
v    19.055443 100.947990 4.388898
v    19.651295 98.707994 4.388898
v    18.706738 99.655984 6.201773
v    20.944557 99.052010 6.201773
v    20.348705 101.292006 6.201773
v    20.188498 96.981242 3.628330
v    18.449174 96.726830 5.289736
v    12.651511 96.083281 10.777668
v    5.415564 96.120450 15.293386
v    18.663700 102.713435 3.628330
v    17.027850 102.070030 5.289736
v    11.676693 99.747925 10.777668
v    5.415564 96.120450 15.293386
v    18.831935 99.515124 6.201773
v    21.003948 99.230864 6.201773
v    20.164118 101.254012 6.201773
v    21.168065 100.484876 8.804376
v    18.996052 100.769136 8.804376
v    19.835882 98.745988 8.804376
v    19.297082 103.050507 6.230933
v    22.004251 103.825214 8.892308
v    26.990860 105.066828 13.726938
v    27.771185 105.278810 14.232079
v    35.004220 106.228407 18.669177
v    21.664056 97.348471 6.230933
v    24.124020 98.718695 8.892308
v    28.523981 101.373543 13.726938
v    29.225032 101.776496 14.232079
v    35.004220 106.228407 18.669177
v    20.910391 100.749091 8.804376
v    18.896073 100.413876 8.804376
v    20.193536 98.837033 8.804376
v    19.089609 99.250909 12.680373
v    21.103927 99.586124 12.680373
v    19.806464 101.162967 12.680373
v    21.760499 97.176443 10.106930
v    17.840188 94.642809 14.518657
v    15.026737 92.959910 17.602934
v    12.506575 91.378853 19.461471
v    6.572041 88.688844 23.424536
v    5.777542 88.297430 23.642901
v    17.568331 102.271302 10.106930
v    14.327153 98.912298 14.518657
v    12.133945 96.475600 17.602934
v    10.097154 94.307090 19.461471
v    6.314633 89.001680 23.424536
v    5.777542 88.297430 23.642901
v    19.356354 99.326567 12.680373
v    20.905033 99.779303 12.680373
v    19.738613 100.894130 12.680373
v    20.643646 100.673433 18.254999
v    19.094967 100.220697 18.254999
v    20.261387 99.105870 18.254999
v    17.448729 102.697346 15.681555
v    23.549012 107.765706 23.177560
v    29.105694 112.271240 27.647436
v    31.006026 113.423531 28.999162
v    35.836622 116.569508 30.420449
v    22.809927 97.573279 15.681555
v    27.597322 103.896457 23.177560
v    31.847041 109.651145 27.647436
v    32.912244 111.601627 28.999162
v    35.836622 116.569508 30.420449
v    20.495241 100.504737 18.254999
v    19.315264 100.176523 18.254999
v    20.189495 99.318740 18.254999
v    19.504759 99.495263 24.548340
v    20.684736 99.823477 24.548340
v    19.810505 100.681260 24.548340
v    22.792735 97.311997 21.974896
v    16.637487 92.313303 29.470901
v    14.928248 90.883739 30.867646
v    9.590170 86.683330 35.110986
v    2.613910 82.280540 37.252851
v    17.259446 102.741184 21.974896
v    12.378546 96.492117 29.470901
v    10.981699 94.756038 30.867646
v    6.883422 89.339153 35.110986
v    2.613910 82.280540 37.252851
v    19.661199 99.624610 24.548340
v    20.494498 99.894285 24.548340
v    19.844303 100.481105 24.548340
v    20.338801 100.375390 33.349752
v    19.505502 100.105715 33.349752
v    20.155697 99.518895 33.349752
v    17.185500 102.218619 30.776309
v    22.504482 106.901079 37.473982
v    27.568453 111.215734 41.898373
v    30.600332 113.174771 44.093916
v    34.043076 115.559697 45.126496
v    22.494635 97.426971 30.776309
v    26.608997 103.196635 37.473982
v    30.383542 108.675035 41.898373
v    32.022473 111.891247 44.093916
v    34.043076 115.559697 45.126496
v    20.321169 100.062523 33.349752
v    19.785269 100.246879 33.349752
v    19.893562 99.690598 33.349752
v    19.678831 99.937477 39.156000
v    20.214731 99.753121 39.156000
v    20.106438 100.309402 39.156000
v    21.018310 97.360758 33.904756
v    16.582526 97.403076 40.869649
v    15.081474 97.729307 43.131025
v    11.022884 98.252398 47.248011
v    19.953888 102.828503 33.904756
v    15.857914 101.125282 40.869649
v    14.588858 100.259786 43.131025
v    11.022884 98.252398 47.248011
mtllib usm_20_2.5D_2018-08-21_2.mtl
usemtl APPID_3719411520_1872025226608 
o vid_3 
f 3 2 1
f 4 5 6
f 1 6 5
f 1 5 3
f 3 5 4
f 4 2 3
f 2 4 6
f 6 1 2
usemtl APPID_3719409392_1872025223664 
o vid_4 
f 7 9 10
f 7 10 8
f 7 9 10
usemtl APPID_3719411520_1872025226608 
o vid_5 
f 13 12 11
f 14 15 16
f 11 16 15
f 11 15 13
f 13 15 14
f 14 12 13
f 12 14 16
f 16 11 12
usemtl APPID_3719409392_1872025223664 
o vid_6 
f 17 19 20
f 17 20 18
f 17 19 20
usemtl APPID_3719411520_1872025226608 
o vid_7 
f 23 22 21
f 24 25 26
f 21 26 25
f 21 25 23
f 23 25 24
f 24 22 23
f 22 24 26
f 26 21 22
usemtl APPID_3719409392_1872025223664 
o vid_8 
f 27 29 30
f 27 30 28
f 27 29 30
usemtl APPID_3719411520_1872025226608 
o vid_9 
f 33 32 31
f 34 35 36
f 31 36 35
f 31 35 33
f 33 35 34
f 34 32 33
f 32 34 36
f 36 31 32
usemtl APPID_3719409392_1872025223664 
o vid_10 
f 37 39 40
f 37 40 38
f 37 39 40
usemtl APPID_3719411520_1872025226608 
o vid_11 
f 43 42 41
f 44 45 46
f 41 46 45
f 41 45 43
f 43 45 44
f 44 42 43
f 42 44 46
f 46 41 42
usemtl APPID_3719409392_1872025223664 
o vid_12 
f 47 49 50
f 47 50 48
f 47 49 50
usemtl APPID_3719411520_1872025226608 
o vid_13 
f 53 52 51
f 54 55 56
f 51 56 55
f 51 55 53
f 53 55 54
f 54 52 53
f 52 54 56
f 56 51 52
usemtl APPID_3719409392_1872025223664 
o vid_14 
f 57 59 60
f 57 60 58
f 57 59 60
usemtl APPID_3719411520_1872025226608 
o vid_15 
f 63 62 61
f 64 65 66
f 61 66 65
f 61 65 63
f 63 65 64
f 64 62 63
f 62 64 66
f 66 61 62
usemtl APPID_3719409392_1872025223664 
o vid_16 
f 67 71 72
f 68 72 73
f 67 72 68
f 68 73 69
f 69 73 74
usemtl APPID_3719411520_1872025226608 
o vid_17 
f 77 76 75
f 78 79 80
f 75 80 79
f 75 79 77
f 77 79 78
f 78 76 77
f 76 78 80
f 80 75 76
usemtl APPID_3719409392_1872025223664 
o vid_18 
f 81 85 86
f 82 86 87
f 81 86 82
f 82 87 83
f 83 87 88
usemtl APPID_3719411520_1872025226608 
o vid_19 
f 91 90 89
f 92 93 94
f 89 94 93
f 89 93 91
f 91 93 92
f 92 90 91
f 90 92 94
f 94 89 90
usemtl APPID_3719409392_1872025223664 
o vid_20 
f 95 99 100
f 96 100 101
f 95 100 96
f 96 101 97
f 97 101 102
usemtl APPID_3719411520_1872025226608 
o vid_21 
f 105 104 103
f 106 107 108
f 103 108 107
f 103 107 105
f 105 107 106
f 106 104 105
f 104 106 108
f 108 103 104
usemtl APPID_3719409392_1872025223664 
o vid_22 
f 109 113 114
f 110 114 115
f 109 114 110
f 110 115 111
f 111 115 116
usemtl APPID_3719411520_1872025226608 
o vid_23 
f 119 118 117
f 120 121 122
f 117 122 121
f 117 121 119
f 119 121 120
f 120 118 119
f 118 120 122
f 122 117 118
usemtl APPID_3719409392_1872025223664 
o vid_24 
f 123 128 129
f 124 129 130
f 125 130 131
f 123 129 124
f 124 130 125
f 125 131 126
f 126 131 132
usemtl APPID_3719411520_1872025226608 
o vid_25 
f 135 134 133
f 136 137 138
f 133 138 137
f 133 137 135
f 135 137 136
f 136 134 135
f 134 136 138
f 138 133 134
usemtl APPID_3719409392_1872025223664 
o vid_26 
f 139 145 146
f 140 146 147
f 141 147 148
f 142 148 149
f 139 146 140
f 140 147 141
f 141 148 142
f 142 149 143
f 143 149 150
usemtl APPID_3719411520_1872025226608 
o vid_27 
f 153 152 151
f 154 155 156
f 151 156 155
f 151 155 153
f 153 155 154
f 154 152 153
f 152 154 156
f 156 151 152
usemtl APPID_3719409392_1872025223664 
o vid_28 
f 157 162 163
f 158 163 164
f 159 164 165
f 157 163 158
f 158 164 159
f 159 165 160
f 160 165 166
usemtl APPID_3719411520_1872025226608 
o vid_29 
f 169 168 167
f 170 171 172
f 167 172 171
f 167 171 169
f 169 171 170
f 170 168 169
f 168 170 172
f 172 167 168
usemtl APPID_3719409392_1872025223664 
o vid_30 
f 173 178 179
f 174 179 180
f 175 180 181
f 173 179 174
f 174 180 175
f 175 181 176
f 176 181 182
usemtl APPID_3719411520_1872025226608 
o vid_31 
f 185 184 183
f 186 187 188
f 183 188 187
f 183 187 185
f 185 187 186
f 186 184 185
f 184 186 188
f 188 183 184
usemtl APPID_3719409392_1872025223664 
o vid_32 
f 189 194 195
f 190 195 196
f 191 196 197
f 189 195 190
f 190 196 191
f 191 197 192
f 192 197 198
usemtl APPID_3719411520_1872025226608 
o vid_33 
f 201 200 199
f 202 203 204
f 199 204 203
f 199 203 201
f 201 203 202
f 202 200 201
f 200 202 204
f 204 199 200
usemtl APPID_3719409392_1872025223664 
o vid_34 
f 205 209 210
f 206 210 211
f 205 210 206
f 206 211 207
f 207 211 212
