# File generated by PlantGL - Fri Sep  4 14:43:34 2026
v    98.942117 19.484671 0.000000
v    100.975230 19.341511 0.000000
v    100.082653 21.173818 0.000000
v    101.057883 20.515329 0.331061
v    99.024770 20.658489 0.331061
v    99.917347 18.826182 0.331061
v    100.659049 21.081485 -0.051354
v    101.758032 21.498938 1.062557
v    103.050912 21.981035 1.927651
v    103.421248 22.123559 2.027778
v    104.508851 22.509814 2.318249
v    105.196259 22.665375 2.492015
v    105.714604 22.783771 2.382108
v    101.257830 19.852289 -0.051354
v    102.263979 20.460316 1.062557
v    103.440553 21.181170 1.927651
v    103.781062 21.384922 2.027778
v    104.755630 22.003219 2.318249
v    105.301856 22.448601 2.492015
v    105.714604 22.783771 2.382108
v    100.649702 20.520446 0.331061
v    99.224430 20.302435 0.331061
v    100.125868 19.177119 0.331061
v    99.350298 19.479554 0.595348
v    100.775570 19.697565 0.595348
v    99.874132 20.822881 0.595348
v    100.062434 18.836262 0.064276
v    98.701412 17.934609 1.611201
v    97.097149 16.886524 2.812585
v    96.665002 16.597515 2.943766
v    95.309855 15.741604 3.347152
v    94.397443 15.306882 3.596336
v    93.760529 15.001851 3.450360
v    98.877946 20.314925 0.064276
v    97.700975 19.183511 1.611201
v    96.328013 17.846680 2.812585
v    95.951652 17.488031 2.943766
v    94.820602 16.352366 3.347152
v    94.197218 15.556834 3.596336
v    93.760529 15.001851 3.450360
v    99.523543 19.814879 0.595348
v    100.398548 19.679936 0.595348
v    100.077909 20.505184 0.595348
v    100.476457 20.185121 0.628000
v    99.601452 20.320064 0.628000
v    99.922091 19.494816 0.628000
v    100.341057 20.770113 -0.781070
v    100.432810 20.737109 -0.199035
v    100.897069 20.348544 2.111188
v    100.771533 19.662168 -0.781070
v    100.816935 19.748462 -0.199035
v    100.897069 20.348544 2.111188
mtllib usm_35_2.5D_2018-07-17_2.mtl
usemtl APPID_929258032_1946549153104 
o vid_3 
f 3 2 1
f 4 5 6
f 1 6 5
f 1 5 3
f 3 5 4
f 4 2 3
f 2 4 6
f 6 1 2
usemtl APPID_929262624_1946549150672 
o vid_4 
f 7 14 15
f 8 15 16
f 9 16 17
f 10 17 18
f 11 18 19
f 7 15 8
f 8 16 9
f 9 17 10
f 10 18 11
f 11 19 12
f 12 19 20
usemtl APPID_929258032_1946549153104 
o vid_5 
f 23 22 21
f 24 25 26
f 21 26 25
f 21 25 23
f 23 25 24
f 24 22 23
f 22 24 26
f 26 21 22
usemtl APPID_929262624_1946549150672 
o vid_6 
f 27 34 35
f 28 35 36
f 29 36 37
f 30 37 38
f 31 38 39
f 27 35 28
f 28 36 29
f 29 37 30
f 30 38 31
f 31 39 32
f 32 39 40
usemtl APPID_929258032_1946549153104 
o vid_7 
f 43 42 41
f 44 45 46
f 41 46 45
f 41 45 43
f 43 45 44
f 44 42 43
f 42 44 46
f 46 41 42
usemtl APPID_929262624_1946549150672 
o vid_8 
f 47 50 51
f 47 51 48
f 48 51 52
