# File generated by PlantGL - Fri Sep  4 14:43:32 2026
v    19.050403 339.537420 0.000000
v    20.875405 339.408915 0.000000
v    20.074193 341.053665 0.000000
v    20.949597 340.462580 0.281299
v    19.124595 340.591085 0.281299
v    19.925807 338.946335 0.281299
v    20.807999 340.726585 0.118742
v    21.298675 340.904490 0.602972
v    21.514586 340.985793 0.758269
v    21.991668 341.141079 1.094203
v    22.122339 341.186199 1.138336
v    22.645779 341.288846 1.304125
v    21.070193 340.188344 0.118742
v    21.512744 340.465044 0.602972
v    21.709856 340.584938 0.758269
v    22.126215 340.864877 1.094203
v    22.242292 340.939956 1.138336
v    22.645779 341.288846 1.304125
v    20.500378 340.400829 0.281299
v    19.402683 340.232925 0.281299
v    20.096939 339.366246 0.281299
v    19.499622 339.599171 0.309000
v    20.597317 339.767075 0.309000
v    19.903061 340.633754 0.309000
v    19.601433 339.264286 -0.113503
v    19.462646 339.305556 0.915694
v    19.179136 339.342444 1.738988
v    19.195032 339.771618 -0.113503
v    19.205015 339.627170 0.915694
v    19.179136 339.342444 1.738988
mtllib usm_13_2.5D_2018-07-23_8.mtl
usemtl APPID_96692160_1597823806816 
o vid_3 
f 3 2 1
f 4 5 6
f 1 6 5
f 1 5 3
f 3 5 4
f 4 2 3
f 2 4 6
f 6 1 2
usemtl APPID_96693728_1597823808224 
o vid_4 
f 7 13 14
f 8 14 15
f 9 15 16
f 10 16 17
f 7 14 8
f 8 15 9
f 9 16 10
f 10 17 11
f 11 17 18
usemtl APPID_96692160_1597823806816 
o vid_5 
f 21 20 19
f 22 23 24
f 19 24 23
f 19 23 21
f 21 23 22
f 22 20 21
f 20 22 24
f 24 19 20
usemtl APPID_96693728_1597823808224 
o vid_6 
f 25 28 29
f 25 29 26
f 26 29 30
