# File generated by PlantGL - Wed Jul 15 17:36:48 2026
v    20.701807 19.124129 0.000000
v    24.157353 18.880811 0.000000
v    22.640300 21.995060 0.000000
v    24.297833 20.875871 3.802807
v    20.842287 21.119189 3.802807
v    22.359340 18.004940 3.802807
v    23.906166 21.505126 3.554689
v    24.755581 21.831374 4.353705
v    25.983916 22.319276 5.120812
v    27.330062 22.846549 5.526272
v    27.811514 23.036849 5.522297
v    28.611899 23.330467 5.515765
v    29.030949 23.482141 5.384594
v    29.617867 23.668350 5.204276
v    30.229343 23.765304 5.028993
v    24.551883 20.179579 3.554689
v    25.332377 20.647312 4.353705
v    26.473734 21.313764 5.120812
v    27.718714 22.048714 5.526272
v    28.165337 22.310510 5.522297
v    28.889914 22.759751 5.515765
v    29.267656 22.996221 5.384594
v    29.776071 23.343584 5.204276
v    30.229343 23.765304 5.028993
v    23.995716 21.198293 3.802807
v    20.714120 20.696338 3.802807
v    22.789624 18.105369 3.802807
v    21.003924 18.801707 8.831486
v    24.285520 19.303662 8.831486
v    22.210016 21.894631 8.831486
v    21.792140 18.002899 8.456203
v    20.647625 17.238579 9.664730
v    18.985161 16.100794 10.833966
v    17.187644 14.882968 11.438258
v    16.525943 14.431732 11.432108
v    15.457953 13.741618 11.422366
v    14.875743 13.368966 11.218906
v    14.071855 12.898707 10.946171
v    13.202000 12.551951 10.681053
v    20.396410 19.745268 8.456203
v    19.400716 18.795166 9.664730
v    17.927513 17.421116 10.833966
v    16.346723 15.932737 11.438258
v    15.761944 15.385476 11.432108
v    14.855369 14.493858 11.422366
v    14.364628 14.007020 11.218906
v    13.730250 13.325152 10.946171
v    13.202000 12.551951 10.681053
v    20.790941 19.336039 8.831486
v    23.929266 18.852048 8.831486
v    22.779253 21.811913 8.831486
v    24.208699 20.663961 19.751385
v    21.070374 21.147952 19.751385
v    22.220387 18.188087 19.751385
v    23.443168 22.167865 19.203824
v    25.367929 22.737866 20.967142
v    28.285086 23.625500 22.736906
v    28.994955 23.847629 22.936038
v    31.211155 24.511368 23.554834
v    33.189037 25.109570 23.538967
v    34.110211 25.363409 23.531646
v    35.916868 25.852852 22.980718
v    37.241640 26.155370 22.582781
v    38.552352 26.236984 22.063310
v    24.659345 19.037712 19.203824
v    26.464039 19.916738 20.967142
v    29.215253 21.231470 22.736906
v    29.888879 21.546879 22.936038
v    31.971849 22.553521 23.554834
v    33.834769 23.447608 23.538967
v    34.685680 23.882287 23.531646
v    36.348862 24.741001 22.980718
v    37.530364 25.412261 22.582781
v    38.552352 26.236984 22.063310
v    24.202820 20.402854 19.751385
v    21.299438 21.273414 19.751385
v    21.997202 18.323732 19.751385
v    20.796820 19.597146 37.006257
v    23.700202 18.726586 37.006257
v    23.002438 21.676268 37.006257
v    21.561046 17.399248 36.235565
v    18.764654 16.988914 38.717434
v    14.525727 16.317530 41.208378
v    10.272209 15.660947 42.359611
v    8.305508 15.352837 42.344325
v    6.060154 15.057942 42.326974
v    4.321930 14.837297 41.811251
v    2.416418 14.672622 41.251155
v    0.513243 14.794146 40.711234
v    0.498565 14.795476 40.703496
v    20.495303 21.904499 36.235565
v    17.811444 21.018448 38.717434
v    13.720979 19.719466 41.208378
v    9.624101 18.400715 42.359611
v    7.727798 17.795009 42.344325
v    5.588296 17.052641 42.326974
v    3.935443 16.471107 41.811251
v    2.158108 15.764584 41.251155
v    0.511091 14.803241 40.711234
v    0.498565 14.795476 40.703496
v    21.401804 18.746150 37.006257
v    24.134694 19.676015 37.006257
v    21.962962 21.577834 37.006257
v    23.597836 21.253850 60.168494
v    20.864946 20.323985 60.168494
v    23.036678 18.422166 60.168494
v    20.841448 23.238594 59.122080
v    23.161791 25.591445 62.029668
v    27.695732 30.041833 65.873954
v    31.359999 33.697618 67.259680
v    35.959297 38.196815 67.392737
v    37.381385 39.579620 66.807500
v    41.296597 43.194514 65.239049
v    43.133119 44.717917 63.969593
v    45.207412 45.930319 62.708047
v    25.928907 18.783425 59.122080
v    27.955043 21.393919 62.029668
v    31.768317 26.475406 65.873954
v    34.908678 30.589983 67.259680
v    38.761711 35.742697 67.392737
v    39.944798 37.334799 66.807500
v    43.011517 41.692732 65.239049
v    44.279291 43.714196 63.969593
v    45.207412 45.930319 62.708047
v    23.834342 20.852054 60.168494
v    21.094659 20.729703 60.168494
v    22.570460 18.418243 60.168494
v    21.165298 19.147946 120.674562
v    23.904981 19.270297 120.674562
v    22.429180 21.581757 120.674562
v    23.928291 15.606076 119.303998
v    19.550085 13.158378 123.717641
v    12.831492 9.538680 128.147421
v    6.123749 5.866325 130.194722
v    -0.539543 2.298448 130.136682
v    -3.738219 0.600269 129.068173
v    -9.151190 -2.096456 127.288183
v    -12.777405 -3.707268 125.137796
v    -15.125903 -4.295951 123.866521
v    -15.748143 -4.420233 123.347601
v    19.114998 23.144850 119.303998
v    15.052173 20.203191 123.717641
v    8.941308 15.631645 128.147421
v    2.787240 11.092101 130.194722
v    -3.253345 6.548916 130.136682
v    -6.139886 4.361857 129.068173
v    -10.864057 0.586306 127.288183
v    -13.851256 -2.025359 125.137796
v    -15.373555 -3.908068 123.866521
v    -15.748143 -4.420233 123.347601
v    21.282808 19.123140 120.674562
v    23.867709 19.384467 120.674562
v    22.348943 21.492393 120.674562
v    23.716832 20.876860 169.968236
v    21.131931 20.615533 169.968236
v    22.650697 18.507607 169.968236
v    20.134028 24.935708 168.236549
v    22.006076 26.122854 170.187003
v    25.552633 28.238006 173.813119
v    33.778045 33.271417 179.410077
v    37.205491 35.406109 180.491085
v    42.020013 38.323331 181.996810
v    49.090933 42.633956 181.933220
v    56.793328 47.033322 179.686952
v    60.608605 49.011235 178.428460
v    64.437557 50.216238 176.436441
v    26.432828 16.193475 168.236549
v    28.151520 17.593466 170.187003
v    31.280561 20.288097 173.813119
v    38.658877 26.497209 179.410077
v    41.768748 29.072670 180.491085
v    46.059986 32.716169 181.996810
v    52.387233 38.058954 181.933220
v    58.998548 43.972651 179.686952
v    62.082471 46.965627 178.428460
v    64.437557 50.216238 176.436441
v    23.550191 20.684072 169.968236
v    21.382211 20.567612 169.968236
v    22.567058 18.748316 169.968236
v    21.449449 19.315928 207.428575
v    23.617429 19.432388 207.428575
v    22.432582 21.251684 207.428575
v    25.028808 15.012963 205.317940
v    18.201782 11.365571 212.114841
v    7.823777 5.824477 218.936592
v    3.039577 3.225291 220.392911
v    -2.622909 0.334684 222.089384
v    -6.733821 -1.782395 222.053956
v    -11.678424 -4.092777 222.012336
v    -16.793245 -5.590265 220.963420
v    18.961241 24.329525 205.317940
v    12.864823 19.560307 212.114841
v    3.600583 12.309061 218.936592
v    -0.711128 8.984383 220.392911
v    -5.644508 4.974256 222.089384
v    -9.243038 2.070431 222.053956
v    -13.355467 -1.517729 222.012336
v    -16.793245 -5.590265 220.963420
v    21.650315 19.528832 207.428575
v    23.332616 19.499891 207.428575
v    22.516529 20.971277 207.428575
v    23.349325 20.471168 229.465893
v    21.667024 20.500109 229.465893
v    22.483111 19.028723 229.465893
v    19.393707 26.024782 226.984299
v    27.704141 29.734090 234.975805
v    32.478886 31.930782 238.026285
v    40.315625 35.406968 242.996526
v    49.381065 39.529574 245.660278
v    52.980066 41.056010 246.703445
v    61.369868 44.649734 246.633516
v    65.674716 46.300837 246.598355
v    73.352702 48.204968 244.337558
v    25.966072 14.174965 226.984299
v    33.513041 19.260784 234.975805
v    37.904715 22.148141 238.026285
v    45.003106 26.955553 242.996526
v    53.300450 32.463017 245.660278
v    56.500990 34.707868 246.703445
v    63.991931 39.922216 246.633516
v    67.671969 42.699838 246.598355
v    73.352702 48.204968 244.337558
v    23.191173 20.183904 229.465893
v    21.994878 20.506777 229.465893
v    22.313409 19.309319 229.465893
v    21.808467 19.816096 240.679814
v    23.004762 19.493223 240.679814
v    22.686231 20.690681 240.679814
v    24.714728 12.268063 237.865178
v    14.547483 10.487207 246.929182
v    4.017293 8.518984 253.146753
v    -0.877132 7.673346 256.026323
v    -16.340839 4.853128 260.230728
v    -31.697449 2.378756 260.111535
v    -38.926705 1.539912 257.979790
v    -45.945348 1.793164 255.991390
v    20.580338 27.810522 237.865178
v    10.872036 24.304360 246.929182
v    0.755662 20.780470 253.146753
v    -3.912043 19.082522 256.026323
v    -18.733206 13.846779 260.230728
v    -33.289590 8.364110 260.111535
v    -39.980165 5.500193 257.979790
v    -45.945348 1.793164 255.991390
v    22.051502 19.813899 240.679814
v    22.885148 19.704796 240.679814
v    22.562810 20.481306 240.679814
v    22.948138 20.186101 244.627966
v    22.114492 20.295204 244.627966
v    22.436830 19.518694 244.627966
v    18.342309 26.350517 238.465970
v    24.039200 28.154321 243.745652
v    29.112343 29.672962 248.417458
v    43.965940 34.339544 257.507271
v    58.926430 38.752880 262.211183
v    62.044362 39.543390 263.075644
v    66.529186 40.704382 263.054349
v    74.468053 41.572553 263.018764
v    24.061879 12.572083 238.465970
v    29.361453 15.333026 243.745652
v    34.018696 17.853570 248.417458
v    47.810505 25.077993 257.507271
v    61.498439 32.556915 262.211183
v    64.259603 34.206879 263.075644
v    68.248197 36.563290 263.054349
v    74.468053 41.572553 263.018764
v    22.717168 20.178839 244.627966
v    22.236267 20.098809 244.627966
v    22.546025 19.722351 244.627966
v    22.282472 19.821161 244.993000
v    22.763373 19.901191 244.993000
v    22.453615 20.277649 244.993000
v    24.460473 16.189566 238.756253
v    23.803992 16.488390 245.097072
v    22.737011 17.130959 253.409307
v    22.477087 17.355807 254.566181
v    19.888971 17.851733 261.290564
v    19.138291 22.657761 238.756253
v    19.305098 21.956021 245.097072
v    19.730161 20.785267 253.409307
v    19.900744 20.486908 254.566181
v    19.888971 17.851733 261.290564
mtllib usm_16_2.5D_2018-09-11_0.mtl
usemtl APPID_390257744_2040474503920 
o vid_3 
f 3 2 1
f 4 5 6
f 1 6 5
f 1 5 3
f 3 5 4
f 4 2 3
f 2 4 6
f 6 1 2
usemtl APPID_390254832_2040474500720 
o vid_4 
f 7 16 17
f 8 17 18
f 9 18 19
f 10 19 20
f 11 20 21
f 12 21 22
f 13 22 23
f 7 17 8
f 8 18 9
f 9 19 10
f 10 20 11
f 11 21 12
f 12 22 13
f 13 23 14
f 14 23 24
usemtl APPID_390257744_2040474503920 
o vid_5 
f 27 26 25
f 28 29 30
f 25 30 29
f 25 29 27
f 27 29 28
f 28 26 27
f 26 28 30
f 30 25 26
usemtl APPID_390254832_2040474500720 
o vid_6 
f 31 40 41
f 32 41 42
f 33 42 43
f 34 43 44
f 35 44 45
f 36 45 46
f 37 46 47
f 31 41 32
f 32 42 33
f 33 43 34
f 34 44 35
f 35 45 36
f 36 46 37
f 37 47 38
f 38 47 48
usemtl APPID_390257744_2040474503920 
o vid_7 
f 51 50 49
f 52 53 54
f 49 54 53
f 49 53 51
f 51 53 52
f 52 50 51
f 50 52 54
f 54 49 50
usemtl APPID_390254832_2040474500720 
o vid_8 
f 55 65 66
f 56 66 67
f 57 67 68
f 58 68 69
f 59 69 70
f 60 70 71
f 61 71 72
f 62 72 73
f 55 66 56
f 56 67 57
f 57 68 58
f 58 69 59
f 59 70 60
f 60 71 61
f 61 72 62
f 62 73 63
f 63 73 74
usemtl APPID_390257744_2040474503920 
o vid_9 
f 77 76 75
f 78 79 80
f 75 80 79
f 75 79 77
f 77 79 78
f 78 76 77
f 76 78 80
f 80 75 76
usemtl APPID_390254832_2040474500720 
o vid_10 
f 81 91 92
f 82 92 93
f 83 93 94
f 84 94 95
f 85 95 96
f 86 96 97
f 87 97 98
f 88 98 99
f 81 92 82
f 82 93 83
f 83 94 84
f 84 95 85
f 85 96 86
f 86 97 87
f 87 98 88
f 88 99 89
f 89 99 100
usemtl APPID_390257744_2040474503920 
o vid_11 
f 103 102 101
f 104 105 106
f 101 106 105
f 101 105 103
f 103 105 104
f 104 102 103
f 102 104 106
f 106 101 102
usemtl APPID_390254832_2040474500720 
o vid_12 
f 107 116 117
f 108 117 118
f 109 118 119
f 110 119 120
f 111 120 121
f 112 121 122
f 113 122 123
f 107 117 108
f 108 118 109
f 109 119 110
f 110 120 111
f 111 121 112
f 112 122 113
f 113 123 114
f 114 123 124
usemtl APPID_390257744_2040474503920 
o vid_13 
f 127 126 125
f 128 129 130
f 125 130 129
f 125 129 127
f 127 129 128
f 128 126 127
f 126 128 130
f 130 125 126
usemtl APPID_390254832_2040474500720 
o vid_14 
f 131 141 142
f 132 142 143
f 133 143 144
f 134 144 145
f 135 145 146
f 136 146 147
f 137 147 148
f 138 148 149
f 131 142 132
f 132 143 133
f 133 144 134
f 134 145 135
f 135 146 136
f 136 147 137
f 137 148 138
f 138 149 139
f 139 149 150
usemtl APPID_390257744_2040474503920 
o vid_15 
f 153 152 151
f 154 155 156
f 151 156 155
f 151 155 153
f 153 155 154
f 154 152 153
f 152 154 156
f 156 151 152
usemtl APPID_390254832_2040474500720 
o vid_16 
f 157 167 168
f 158 168 169
f 159 169 170
f 160 170 171
f 161 171 172
f 162 172 173
f 163 173 174
f 164 174 175
f 157 168 158
f 158 169 159
f 159 170 160
f 160 171 161
f 161 172 162
f 162 173 163
f 163 174 164
f 164 175 165
f 165 175 176
usemtl APPID_390257744_2040474503920 
o vid_17 
f 179 178 177
f 180 181 182
f 177 182 181
f 177 181 179
f 179 181 180
f 180 178 179
f 178 180 182
f 182 177 178
usemtl APPID_390254832_2040474500720 
o vid_18 
f 183 191 192
f 184 192 193
f 185 193 194
f 186 194 195
f 187 195 196
f 188 196 197
f 183 192 184
f 184 193 185
f 185 194 186
f 186 195 187
f 187 196 188
f 188 197 189
f 189 197 198
usemtl APPID_390257744_2040474503920 
o vid_19 
f 201 200 199
f 202 203 204
f 199 204 203
f 199 203 201
f 201 203 202
f 202 200 201
f 200 202 204
f 204 199 200
usemtl APPID_390254832_2040474500720 
o vid_20 
f 205 214 215
f 206 215 216
f 207 216 217
f 208 217 218
f 209 218 219
f 210 219 220
f 211 220 221
f 205 215 206
f 206 216 207
f 207 217 208
f 208 218 209
f 209 219 210
f 210 220 211
f 211 221 212
f 212 221 222
usemtl APPID_390257744_2040474503920 
o vid_21 
f 225 224 223
f 226 227 228
f 223 228 227
f 223 227 225
f 225 227 226
f 226 224 225
f 224 226 228
f 228 223 224
usemtl APPID_390254832_2040474500720 
o vid_22 
f 229 237 238
f 230 238 239
f 231 239 240
f 232 240 241
f 233 241 242
f 234 242 243
f 229 238 230
f 230 239 231
f 231 240 232
f 232 241 233
f 233 242 234
f 234 243 235
f 235 243 244
usemtl APPID_390257744_2040474503920 
o vid_23 
f 247 246 245
f 248 249 250
f 245 250 249
f 245 249 247
f 247 249 248
f 248 246 247
f 246 248 250
f 250 245 246
usemtl APPID_390254832_2040474500720 
o vid_24 
f 251 259 260
f 252 260 261
f 253 261 262
f 254 262 263
f 255 263 264
f 256 264 265
f 251 260 252
f 252 261 253
f 253 262 254
f 254 263 255
f 255 264 256
f 256 265 257
f 257 265 266
usemtl APPID_390257744_2040474503920 
o vid_25 
f 269 268 267
f 270 271 272
f 267 272 271
f 267 271 269
f 269 271 270
f 270 268 269
f 268 270 272
f 272 267 268
usemtl APPID_390254832_2040474500720 
o vid_26 
f 273 278 279
f 274 279 280
f 275 280 281
f 273 279 274
f 274 280 275
f 275 281 276
f 276 281 282
