# File generated by PlantGL - Fri Sep  4 14:41:36 2026
v    18.201987 59.124129 0.000000
v    21.657533 58.880811 0.000000
v    20.140480 61.995060 0.000000
v    21.798013 60.875871 0.231332
v    18.342467 61.119189 0.231332
v    19.859520 58.004940 0.231332
v    21.488153 61.266372 -0.140491
v    22.207628 61.519709 0.580440
v    22.574910 61.634879 0.942568
v    23.080185 61.805184 1.275665
v    23.900367 61.963241 1.783702
v    24.142838 62.018112 1.844995
v    21.914494 60.391169 -0.140491
v    22.557476 60.801530 0.580440
v    22.874565 61.019739 0.942568
v    23.320129 61.312619 1.275665
v    23.950166 61.861011 1.783702
v    24.142838 62.018112 1.844995
v    21.503548 61.204422 0.231332
v    18.205166 60.699900 0.231332
v    20.291286 58.095678 0.231332
v    18.496452 58.795578 0.322957
v    21.794834 59.300100 0.322957
v    19.708714 61.904322 0.322957
v    19.008081 58.387564 -0.175642
v    18.248456 57.910643 0.672087
v    17.692658 57.588011 1.276694
v    17.207840 57.292646 1.631343
v    16.043104 56.783008 2.404618
v    15.897363 56.713570 2.444420
v    18.209943 59.383925 -0.175642
v    17.578724 58.746707 0.672087
v    17.142563 58.274726 1.276694
v    16.748503 57.866062 1.631343
v    15.996937 56.840641 2.404618
v    15.897363 56.713570 2.444420
v    18.272844 59.328938 0.322957
v    21.444735 58.839770 0.322957
v    20.282421 61.831292 0.322957
v    21.727156 60.671062 0.466906
v    18.555265 61.160230 0.466906
v    19.717579 58.168708 0.466906
v    21.269390 61.325252 -0.189159
v    21.867571 61.481719 0.395230
v    23.243326 61.791023 1.721846
v    25.179408 62.012386 2.909050
v    21.831148 59.879419 -0.189159
v    22.378053 60.167858 0.395230
v    23.601746 60.868533 1.721846
v    25.179408 62.012386 2.909050
v    21.731622 60.409625 0.466906
v    18.779443 61.294816 0.466906
v    19.488935 58.295559 0.466906
v    18.268378 59.590375 0.678772
v    21.220557 58.705184 0.678772
v    20.511065 61.704441 0.678772
v    18.733419 58.688853 -0.168301
v    18.088084 58.612649 0.445872
v    16.174594 58.453754 2.252276
v    13.782508 58.529216 3.723403
v    18.280214 60.604704 -0.168301
v    17.669133 60.383696 0.445872
v    15.887256 59.668430 2.252276
v    13.782508 58.529216 3.723403
v    18.876148 58.716648 0.678772
v    21.673341 59.668392 0.678772
v    19.450510 61.614960 0.678772
v    21.123852 61.283352 0.919581
v    18.326659 60.331608 0.919581
v    20.549490 58.385040 0.919581
v    19.941665 61.905986 -0.153604
v    20.890641 62.766961 1.057449
v    22.444656 64.081543 2.972404
v    22.791312 64.387648 3.261307
v    25.321528 66.076775 5.111680
v    21.897020 60.193651 -0.153604
v    22.625260 61.247927 1.057449
v    23.723313 62.961802 2.972404
v    23.981004 63.345816 3.261307
v    25.321528 66.076775 5.111680
v    21.297501 60.828418 0.919581
v    18.633818 60.709460 0.919581
v    20.068680 58.462122 0.919581
v    18.702499 59.171582 1.432830
v    21.366182 59.290540 1.432830
v    19.931320 61.537878 1.432830
v    19.818819 58.140275 0.098668
v    19.530167 57.999599 0.402162
v    16.767344 56.769801 3.247294
v    15.982790 56.558015 3.984856
v    13.269920 55.703036 5.714908
v    18.236712 60.618237 0.098668
v    17.987629 60.415585 0.402162
v    15.709391 58.426809 3.247294
v    15.187120 57.804225 3.984856
v    13.269920 55.703036 5.714908
v    19.004889 59.283020 1.432830
v    21.118479 59.496698 1.432830
v    19.876633 61.220282 1.432830
v    20.995111 60.716980 2.225064
v    18.881521 60.503302 2.225064
v    20.123367 58.779718 2.225064
v    19.504091 61.981091 0.597561
v    20.639359 62.615530 1.826739
v    23.920180 64.302421 5.297429
v    28.229856 65.929630 8.112796
v    21.722237 58.902482 0.597561
v    22.683418 59.778539 1.826739
v    25.322102 62.356665 5.297429
v    28.229856 65.929630 8.112796
v    20.784807 60.511119 2.225064
v    19.164954 60.424104 2.225064
v    20.050238 59.064778 2.225064
v    19.215193 59.488881 3.124456
v    20.835046 59.575896 3.124456
v    19.949762 60.935222 3.124456
v    20.876556 57.970460 1.176340
v    20.202109 57.634186 1.888631
v    16.184283 55.802076 6.043036
v    15.327108 55.562355 6.850872
v    11.051899 54.172400 9.585160
v    18.498206 61.622343 1.176340
v    17.917937 61.141462 1.888631
v    14.617679 58.207548 6.043036
v    14.051832 57.520502 6.850872
v    11.051899 54.172400 9.585160
v    19.414421 59.675215 3.124456
v    20.574061 59.655266 3.124456
v    20.011518 60.669519 3.124456
v    20.585579 60.324785 4.131793
v    19.425939 60.344734 4.131793
v    19.988482 59.330481 4.131793
v    18.830439 62.124686 1.843627
v    23.484055 63.860191 6.516291
v    25.634674 64.300240 8.508667
v    29.471666 65.253351 10.913362
v    21.183130 57.882840 1.843627
v    25.119436 60.911637 6.516291
v    26.631472 62.503037 8.508667
v    29.471666 65.253351 10.913362
v    20.411338 60.109419 4.131793
v    19.699572 60.301520 4.131793
v    19.889090 59.589061 4.131793
v    19.588662 59.890581 4.601000
v    20.300428 59.698480 4.601000
v    20.110910 60.410939 4.601000
v    20.305676 58.063615 -0.727926
v    17.105853 59.230139 7.400501
v    19.303173 61.832337 -0.727926
v    17.105853 59.230139 7.400501
mtllib usm_24_Beer_2018-08-03_1.mtl
usemtl APPID_2735060304_2060026056560 
o vid_3 
f 3 2 1
f 4 5 6
f 1 6 5
f 1 5 3
f 3 5 4
f 4 2 3
f 2 4 6
f 6 1 2
usemtl APPID_2735061760_2060026049520 
o vid_4 
f 7 13 14
f 8 14 15
f 9 15 16
f 10 16 17
f 7 14 8
f 8 15 9
f 9 16 10
f 10 17 11
f 11 17 18
usemtl APPID_2735060304_2060026056560 
o vid_5 
f 21 20 19
f 22 23 24
f 19 24 23
f 19 23 21
f 21 23 22
f 22 20 21
f 20 22 24
f 24 19 20
usemtl APPID_2735061760_2060026049520 
o vid_6 
f 25 31 32
f 26 32 33
f 27 33 34
f 28 34 35
f 25 32 26
f 26 33 27
f 27 34 28
f 28 35 29
f 29 35 36
usemtl APPID_2735060304_2060026056560 
o vid_7 
f 39 38 37
f 40 41 42
f 37 42 41
f 37 41 39
f 39 41 40
f 40 38 39
f 38 40 42
f 42 37 38
usemtl APPID_2735061760_2060026049520 
o vid_8 
f 43 47 48
f 44 48 49
f 43 48 44
f 44 49 45
f 45 49 50
usemtl APPID_2735060304_2060026056560 
o vid_9 
f 53 52 51
f 54 55 56
f 51 56 55
f 51 55 53
f 53 55 54
f 54 52 53
f 52 54 56
f 56 51 52
usemtl APPID_2735061760_2060026049520 
o vid_10 
f 57 61 62
f 58 62 63
f 57 62 58
f 58 63 59
f 59 63 64
usemtl APPID_2735060304_2060026056560 
o vid_11 
f 67 66 65
f 68 69 70
f 65 70 69
f 65 69 67
f 67 69 68
f 68 66 67
f 66 68 70
f 70 65 66
usemtl APPID_2735061760_2060026049520 
o vid_12 
f 71 76 77
f 72 77 78
f 73 78 79
f 71 77 72
f 72 78 73
f 73 79 74
f 74 79 80
usemtl APPID_2735060304_2060026056560 
o vid_13 
f 83 82 81
f 84 85 86
f 81 86 85
f 81 85 83
f 83 85 84
f 84 82 83
f 82 84 86
f 86 81 82
usemtl APPID_2735061760_2060026049520 
o vid_14 
f 87 92 93
f 88 93 94
f 89 94 95
f 87 93 88
f 88 94 89
f 89 95 90
f 90 95 96
usemtl APPID_2735060304_2060026056560 
o vid_15 
f 99 98 97
f 100 101 102
f 97 102 101
f 97 101 99
f 99 101 100
f 100 98 99
f 98 100 102
f 102 97 98
usemtl APPID_2735061760_2060026049520 
o vid_16 
f 103 107 108
f 104 108 109
f 103 108 104
f 104 109 105
f 105 109 110
usemtl APPID_2735060304_2060026056560 
o vid_17 
f 113 112 111
f 114 115 116
f 111 116 115
f 111 115 113
f 113 115 114
f 114 112 113
f 112 114 116
f 116 111 112
usemtl APPID_2735061760_2060026049520 
o vid_18 
f 117 122 123
f 118 123 124
f 119 124 125
f 117 123 118
f 118 124 119
f 119 125 120
f 120 125 126
usemtl APPID_2735060304_2060026056560 
o vid_19 
f 129 128 127
f 130 131 132
f 127 132 131
f 127 131 129
f 129 131 130
f 130 128 129
f 128 130 132
f 132 127 128
usemtl APPID_2735061760_2060026049520 
o vid_20 
f 133 137 138
f 134 138 139
f 133 138 134
f 134 139 135
f 135 139 140
usemtl APPID_2735060304_2060026056560 
o vid_21 
f 143 142 141
f 144 145 146
f 141 146 145
f 141 145 143
f 143 145 144
f 144 142 143
f 142 144 146
f 146 141 142
usemtl APPID_2735061760_2060026049520 
o vid_22 
f 147 149 150
f 147 150 148
f 147 149 150
