# File generated by PlantGL - Fri Sep  4 14:41:47 2026
v    98.201987 19.124129 0.000000
v    101.657533 18.880811 0.000000
v    100.140480 21.995060 0.000000
v    101.798013 20.875871 0.331061
v    98.342467 21.119189 0.331061
v    99.859520 18.004940 0.331061
v    101.383011 21.452572 -0.085637
v    102.230290 21.774414 0.773151
v    102.584556 21.899155 1.128134
v    103.805267 22.351593 1.944180
v    104.964051 22.759653 2.328973
v    106.273324 23.055942 2.659937
v    101.996298 20.193600 -0.085637
v    102.772004 20.662368 0.773151
v    103.088606 20.864428 1.128134
v    104.197338 21.546739 1.944180
v    105.232953 22.207642 2.328973
v    106.273324 23.055942 2.659937
v    101.395452 21.117831 0.331061
v    98.334204 20.649581 0.331061
v    100.270344 18.232588 0.331061
v    98.604548 18.882169 0.718770
v    101.665796 19.350419 0.718770
v    99.729656 21.767412 0.718770
v    99.393404 18.163519 0.143568
v    97.919290 17.186943 1.819033
v    97.481887 16.888967 2.151401
v    96.186514 16.045787 3.120245
v    95.372373 15.501311 3.367383
v    93.904620 14.574278 3.804288
v    93.301067 14.286713 3.969121
v    92.223610 13.770698 3.722176
v    98.075399 19.808858 0.143568
v    96.800629 18.583430 1.819033
v    96.414370 18.221609 2.151401
v    95.308790 17.141499 3.120245
v    94.599747 16.465823 3.367383
v    93.374714 15.235791 3.804288
v    92.962350 14.709553 3.969121
v    92.223610 13.770698 3.722176
v    98.666884 19.482037 0.718770
v    101.115127 19.104470 0.718770
v    100.217988 21.413493 0.718770
v    101.333116 20.517963 1.487000
v    98.884873 20.895530 1.487000
v    99.782012 18.586507 1.487000
v    100.595708 21.796684 0.711738
v    102.885958 22.456005 2.969945
v    104.043119 22.805385 3.729033
v    105.571549 23.232048 4.723730
v    107.383633 23.762279 5.200142
v    109.645665 24.360477 5.789008
v    112.136744 24.715560 5.413822
v    101.652474 19.076816 0.711738
v    103.787086 20.136713 2.969945
v    104.876585 20.660239 3.729033
v    106.292139 21.377420 4.723730
v    107.986862 22.209709 5.200142
v    110.059391 23.295644 5.789008
v    112.136744 24.715560 5.413822
v    101.065997 20.252168 1.487000
v    99.248618 20.797096 1.487000
v    99.685385 18.950736 1.487000
v    98.934003 19.747832 2.857087
v    100.751382 19.202904 2.857087
v    100.314615 21.049264 2.857087
v    99.673784 17.902495 1.836837
v    96.568961 17.458612 4.808653
v    94.408493 17.121193 6.181858
v    92.930555 16.922072 7.116646
v    89.796502 16.460059 7.916002
v    87.010291 16.123437 8.622319
v    83.422129 16.078409 7.879028
v    98.768592 21.729040 1.836837
v    95.793962 20.734793 4.808653
v    93.711296 20.068474 6.181858
v    92.300785 19.584316 7.116646
v    89.291899 18.593182 7.916002
v    86.650169 17.645793 8.622319
v    83.422129 16.078409 7.879028
v    99.483752 19.410485 2.857087
v    100.768659 19.847674 2.857087
v    99.747589 20.741842 2.857087
v    100.516248 20.589515 4.292652
v    99.231341 20.152326 4.292652
v    100.252411 19.258158 4.292652
v    98.375007 21.960581 2.981677
v    101.292632 24.740752 6.800326
v    103.188952 26.595078 8.465933
v    104.701959 28.013654 9.765992
v    107.506480 30.709474 10.747571
v    110.304467 33.261772 11.700714
v    113.890497 35.861876 10.784144
v    102.157843 18.647892 2.981677
v    104.528757 21.906825 6.800326
v    106.116672 24.031227 8.465933
v    107.323220 25.718174 9.765992
v    109.625445 28.853863 10.747571
v    111.786264 31.964139 11.700714
v    113.890497 35.861876 10.784144
v    100.417025 20.266258 4.292652
v    99.560901 20.228025 4.292652
v    100.022074 19.505717 4.292652
v    99.582975 19.733742 5.820000
v    100.439099 19.771975 5.820000
v    99.977926 20.494283 5.820000
v    100.740248 17.954937 2.525261
v    99.633808 17.669858 6.637515
v    98.894949 17.547215 9.245589
v    97.865984 17.199714 11.391867
v    95.597680 16.991751 15.511828
v    95.078967 16.858061 16.036225
v    98.456331 21.532102 2.525261
v    97.732119 20.648361 6.637515
v    97.309942 20.029716 9.245589
v    96.561707 19.242525 11.391867
v    95.418524 17.272351 15.511828
v    95.078967 16.858061 16.036225
mtllib usm_35_Beer_2018-08-05_2.mtl
usemtl APPID_915806784_1946549110864 
o vid_3 
f 3 2 1
f 4 5 6
f 1 6 5
f 1 5 3
f 3 5 4
f 4 2 3
f 2 4 6
f 6 1 2
usemtl APPID_915804544_1946549114576 
o vid_4 
f 7 13 14
f 8 14 15
f 9 15 16
f 10 16 17
f 7 14 8
f 8 15 9
f 9 16 10
f 10 17 11
f 11 17 18
usemtl APPID_915806784_1946549110864 
o vid_5 
f 21 20 19
f 22 23 24
f 19 24 23
f 19 23 21
f 21 23 22
f 22 20 21
f 20 22 24
f 24 19 20
usemtl APPID_915804544_1946549114576 
o vid_6 
f 25 33 34
f 26 34 35
f 27 35 36
f 28 36 37
f 29 37 38
f 30 38 39
f 25 34 26
f 26 35 27
f 27 36 28
f 28 37 29
f 29 38 30
f 30 39 31
f 31 39 40
usemtl APPID_915806784_1946549110864 
o vid_7 
f 43 42 41
f 44 45 46
f 41 46 45
f 41 45 43
f 43 45 44
f 44 42 43
f 42 44 46
f 46 41 42
usemtl APPID_915804544_1946549114576 
o vid_8 
f 47 54 55
f 48 55 56
f 49 56 57
f 50 57 58
f 51 58 59
f 47 55 48
f 48 56 49
f 49 57 50
f 50 58 51
f 51 59 52
f 52 59 60
usemtl APPID_915806784_1946549110864 
o vid_9 
f 63 62 61
f 64 65 66
f 61 66 65
f 61 65 63
f 63 65 64
f 64 62 63
f 62 64 66
f 66 61 62
usemtl APPID_915804544_1946549114576 
o vid_10 
f 67 74 75
f 68 75 76
f 69 76 77
f 70 77 78
f 71 78 79
f 67 75 68
f 68 76 69
f 69 77 70
f 70 78 71
f 71 79 72
f 72 79 80
usemtl APPID_915806784_1946549110864 
o vid_11 
f 83 82 81
f 84 85 86
f 81 86 85
f 81 85 83
f 83 85 84
f 84 82 83
f 82 84 86
f 86 81 82
usemtl APPID_915804544_1946549114576 
o vid_12 
f 87 94 95
f 88 95 96
f 89 96 97
f 90 97 98
f 91 98 99
f 87 95 88
f 88 96 89
f 89 97 90
f 90 98 91
f 91 99 92
f 92 99 100
usemtl APPID_915806784_1946549110864 
o vid_13 
f 103 102 101
f 104 105 106
f 101 106 105
f 101 105 103
f 103 105 104
f 104 102 103
f 102 104 106
f 106 101 102
usemtl APPID_915804544_1946549114576 
o vid_14 
f 107 113 114
f 108 114 115
f 109 115 116
f 110 116 117
f 107 114 108
f 108 115 109
f 109 116 110
f 110 117 111
f 111 117 118
