# File generated by PlantGL - Fri Sep  4 14:42:38 2026
v    19.433115 19.723852 0.000000
v    20.522594 19.647137 0.000000
v    20.044291 20.629011 0.000000
v    20.566885 20.276148 0.188000
v    19.477406 20.352863 0.188000
v    19.955709 19.370989 0.188000
v    20.377015 20.602441 -0.603257
v    20.640640 20.633444 0.159529
v    20.965508 20.575302 0.971076
v    21.190575 20.579968 1.331537
v    20.706772 19.925507 -0.603257
v    20.893689 20.113978 0.159529
v    21.048164 20.405623 0.971076
v    21.190575 20.579968 1.331537
mtllib usm_25_2.5D_2018-07-08_0.mtl
usemtl APPID_3202186416_2021840701936 
o vid_3 
f 3 2 1
f 4 5 6
f 1 6 5
f 1 5 3
f 3 5 4
f 4 2 3
f 2 4 6
f 6 1 2
usemtl APPID_3202191232_2021840701808 
o vid_4 
f 7 11 12
f 8 12 13
f 7 12 8
f 8 13 9
f 9 13 14
