# File generated by PlantGL - Fri Sep  4 14:44:01 2026
v    58.201987 19.124129 0.000000
v    61.657533 18.880811 0.000000
v    60.140480 21.995060 0.000000
v    61.798013 20.875871 0.331061
v    58.342467 21.119189 0.331061
v    59.859520 18.004940 0.331061
v    61.368313 21.462224 -0.116704
v    61.894187 21.661979 0.416312
v    62.663877 21.932997 1.187561
v    63.524744 22.252064 1.763050
v    63.540955 22.257528 1.773738
v    61.994838 20.176077 -0.116704
v    62.476289 20.467023 0.416312
v    63.164149 20.906025 1.187561
v    63.946046 21.387203 1.763050
v    63.960342 21.396600 1.773738
v    61.503548 21.204422 0.331061
v    58.205166 20.699900 0.331061
v    60.291286 18.095678 0.331061
v    58.496452 18.795578 0.771522
v    61.794834 19.300100 0.771522
v    59.708714 21.904322 0.771522
v    59.330152 18.037259 0.161062
v    57.765678 17.000822 1.939229
v    57.361516 16.725491 2.246339
v    55.925729 15.790913 3.320202
v    55.130931 15.259373 3.561468
v    54.045203 14.573627 3.884656
v    57.938379 19.774688 0.161062
v    56.585468 18.474145 1.939229
v    56.228563 18.139821 2.246339
v    55.003142 16.942630 3.320202
v    54.310945 16.283007 3.561468
v    53.404762 15.373126 3.884656
v    58.272844 19.328938 0.771522
v    61.444735 18.839770 0.771522
v    60.282421 21.831292 0.771522
v    61.727156 20.671062 1.487405
v    58.555265 21.160230 1.487405
v    59.717579 18.168708 1.487405
v    60.982521 21.937942 0.674026
v    63.385374 22.629679 3.043261
v    66.210934 23.423475 4.883274
v    66.970911 23.645851 5.083079
v    69.344159 24.273460 5.700897
v    69.665915 24.318748 5.781008
v    62.033189 19.233769 0.674026
v    64.272752 20.345777 3.043261
v    66.893042 21.667889 4.883274
v    67.603798 22.016946 5.083079
v    69.778226 23.156273 5.700897
v    70.046156 23.340098 5.781008
v    61.731622 20.409625 1.487405
v    58.779443 21.294816 1.487405
v    59.488935 18.295559 1.487405
v    58.268378 19.590375 2.987040
v    61.220557 18.705184 2.987040
v    60.511065 21.704441 2.987040
v    59.040975 17.655194 1.927890
v    55.817769 17.194386 5.013017
v    53.318954 16.804124 6.601276
v    52.041894 16.632067 7.409011
v    48.494499 16.109120 8.313792
v    45.897696 15.795382 8.972093
v    44.129247 15.720291 8.603173
v    58.092051 21.666607 1.927890
v    55.004002 20.634451 5.013017
v    52.595174 19.863781 6.601276
v    51.376377 19.445429 7.409011
v    47.970657 18.323576 8.313792
v    45.508512 17.440591 8.972093
v    43.893851 16.715388 8.603173
v    58.876148 18.716648 2.987040
v    61.673341 19.668392 2.987040
v    59.450510 21.614960 2.987040
v    61.123852 21.283352 4.897980
v    58.326659 20.331608 4.897980
v    60.549490 18.385040 4.897980
v    58.739103 22.853471 3.550098
v    59.532219 23.609587 4.588406
v    61.738665 25.712084 7.476249
v    65.210177 29.106720 10.525406
v    66.042294 29.936523 10.822350
v    70.685021 34.399303 12.447298
v    73.713085 37.166673 11.705729
v    75.799697 38.665225 11.174698
v    62.994888 19.126613 3.550098
v    63.639750 20.012557 4.588406
v    65.432748 22.477117 7.476249
v    68.339676 26.366168 10.525406
v    69.052435 27.300494 10.822350
v    72.863639 32.491452 12.447298
v    75.207294 35.858170 11.705729
v    76.417438 38.124259 11.174698
v    61.375838 20.878433 4.897980
v    58.551335 20.752294 4.897980
v    60.072827 18.369272 4.897980
v    58.624162 19.121567 12.075822
v    61.448665 19.247706 12.075822
v    59.927173 21.630728 12.075822
v    61.109150 16.130546 10.399432
v    56.549481 13.734653 15.282471
v    51.223790 10.887956 19.074772
v    45.127148 7.552015 20.830841
v    42.606496 6.232341 21.548768
v    37.992001 3.811915 20.446854
v    33.411365 1.558520 19.370073
v    29.819484 0.380244 17.549813
v    56.956577 22.634476 10.399432
v    52.864384 19.506402 15.282471
v    48.040894 15.873136 19.074772
v    42.449163 11.746385 20.830841
v    40.191303 10.015114 21.548768
v    36.053783 6.847630 20.446854
v    32.082035 3.640571 19.370073
v    29.501658 0.878036 17.549813
v    58.735263 19.088754 12.075822
v    61.421531 19.360328 12.075822
v    59.843206 21.550918 12.075822
v    61.264737 20.911246 22.185723
v    58.578469 20.639672 22.185723
v    60.156794 18.449082 22.185723
v    57.992645 24.444405 20.148084
v    60.293465 25.946273 22.759398
v    62.105982 27.018784 24.754992
v    65.644952 29.153784 27.798616
v    69.581271 31.550917 30.692894
v    78.968344 37.394361 33.486895
v    87.391605 42.433620 31.802941
v    91.458396 44.726088 30.818226
v    95.723029 46.551200 28.143948
v    97.144112 47.032624 26.848849
v    63.580432 16.689001 20.148084
v    65.733390 18.396090 22.759398
v    67.324498 19.775899 24.754992
v    70.469964 22.457051 27.798616
v    73.989864 25.432141 30.692894
v    82.504280 32.486762 33.486895
v    89.950773 38.881698 31.802941
v    93.412691 42.013682 30.818226
v    96.493912 45.481275 28.143948
v    97.400421 46.676887 26.848849
v    61.244614 20.810576 22.185723
v    58.675713 20.672580 22.185723
v    60.079672 18.516844 22.185723
v    58.755386 19.189424 42.482171
v    61.324287 19.327420 42.482171
v    59.920328 21.483156 42.482171
v    62.429511 14.830855 40.061652
v    59.990848 13.398003 42.749793
v    58.166102 12.431202 44.706520
v    55.922669 11.242570 47.112215
v    53.522691 9.931104 48.829757
v    48.270672 7.062550 52.587876
v    37.314552 0.938317 55.759475
v    27.042277 -4.567319 54.031156
v    21.560595 -7.325777 52.736758
v    16.359300 -9.193269 49.559971
v    14.796773 -9.641817 48.156789
v    56.254642 24.312177 40.061652
v    53.958079 22.661135 42.749793
v    52.336005 21.383136 44.706520
v    50.341748 19.811902 47.112215
v    48.171848 18.147159 48.829757
v    43.424610 14.503529 52.587876
v    33.393268 6.959328 55.759475
v    24.204210 -0.209555 54.031156
v    19.464803 -4.107752 52.736758
v    15.653651 -8.109766 49.559971
v    14.611601 -9.357492 48.156789
v    58.765415 19.315252 42.482171
v    61.210302 19.273192 42.482171
v    60.024283 21.411556 42.482171
v    61.234585 20.684748 70.336086
v    58.789698 20.726808 70.336086
v    59.975717 18.588444 70.336086
v    57.854196 25.103682 67.526003
v    65.755622 28.595488 75.711300
v    72.276896 31.578698 80.214777
v    74.990997 32.751993 82.068224
v    84.158437 36.851141 84.602144
v    90.076225 39.313795 86.215312
v    100.094998 42.424496 84.035591
v    63.193345 15.477325 67.526003
v    70.339237 20.331341 75.711300
v    76.322899 24.283851 80.214777
v    78.755317 25.965014 82.068224
v    87.086770 31.571426 84.602144
v    92.309297 35.287619 86.215312
v    100.253009 42.139605 84.035591
v    61.293262 20.344016 70.336086
v    59.055443 20.947990 70.336086
v    59.651295 18.707994 70.336086
v    58.706738 19.655984 109.483989
v    60.944557 19.052010 109.483989
v    60.348705 21.292006 109.483989
v    61.189372 13.910484 106.295691
v    51.528893 12.255147 115.582663
v    44.216235 10.904612 120.252617
v    40.212885 10.251888 122.795178
v    29.781812 8.417663 125.467614
v    21.792858 7.227126 127.500431
v    10.460215 6.689759 125.146726
v    58.006569 25.875632 106.295691
v    48.800420 22.512329 115.582663
v    41.783230 20.051037 120.252617
v    37.984679 18.628407 122.795178
v    28.020901 15.037476 125.467614
v    20.496295 12.101309 127.500431
v    10.394455 6.936973 125.146726
v    58.831935 19.515124 109.483989
v    61.003948 19.230864 109.483989
v    60.164118 21.254012 109.483989
v    61.168065 20.484876 151.287302
v    58.996052 20.769136 151.287302
v    59.835882 18.745988 151.287302
v    57.509623 26.630799 147.751991
v    67.881991 29.875547 158.049755
v    78.357162 33.301691 164.971008
v    94.225560 38.319383 169.813513
v    99.764697 39.920663 171.264653
v    104.516597 41.299523 170.220987
v    115.430975 43.113812 167.933920
v    62.937588 13.554843 147.751991
v    72.558618 18.609562 158.049755
v    82.380692 23.609015 164.971008
v    97.137628 31.304217 169.813513
v    102.182398 34.096427 171.264653
v    106.513844 36.488158 170.220987
v    115.504512 42.936660 167.933920
v    60.919824 20.756852 151.287302
v    58.884635 20.418165 151.287302
v    60.195542 18.824983 151.287302
v    59.080176 19.243148 189.414318
v    61.115365 19.581835 189.414318
v    59.804458 21.175017 189.414318
v    64.798183 14.037984 185.583199
v    55.066061 7.405266 196.742602
v    45.482421 0.690736 204.091214
v    30.637522 -9.489796 209.420753
v    25.165972 -13.046901 211.063221
v    20.908286 -15.820933 209.991345
v    10.029884 -21.207403 207.482109
v    55.073612 25.856526 185.583199
v    46.690848 17.583895 196.742602
v    38.256399 9.472721 204.091214
v    25.407620 -3.133751 209.420753
v    20.863394 -7.817859 211.063221
v    17.321349 -11.461627 209.991345
v    9.940756 -21.099084 207.482109
v    59.238404 19.203159 189.414318
v    61.070882 19.738859 189.414318
v    59.690714 21.057981 189.414318
v    60.761596 20.796841 215.575480
v    58.929118 20.261141 215.575480
v    60.309286 18.942019 215.575480
v    54.420957 25.233555 211.518033
v    63.817017 33.436837 223.336689
v    68.658187 37.774965 227.418942
v    74.825902 43.072504 232.515380
v    82.391183 49.735757 235.059173
v    91.788976 57.586702 238.141087
v    102.679639 64.707019 236.117353
v    65.480422 14.663261 211.518033
v    73.250538 24.420570 223.336689
v    77.365370 29.452909 227.418942
v    82.378662 35.853811 232.515380
v    88.693090 43.712590 235.059173
v    96.111150 53.455702 238.141087
v    102.731840 64.657127 236.117353
v    60.606934 20.618571 215.575480
v    59.160835 20.216334 215.575480
v    60.232232 19.165094 215.575480
v    59.393066 19.381429 231.513641
v    60.839165 19.783666 231.513641
v    59.767768 20.834906 231.513641
v    65.806679 14.790314 227.314029
v    55.970877 6.427888 239.546787
v    52.108955 3.057525 242.765748
v    44.422298 -3.371404 249.047081
v    37.896631 -8.968741 251.216435
v    28.063817 -16.966493 254.406333
v    25.189919 -18.784920 255.244819
v    16.568449 -24.264332 253.133203
v    54.680981 25.706696 227.314029
v    46.506852 15.713859 239.546787
v    43.210437 11.788628 242.765748
v    36.928643 3.981267 249.047081
v    31.456243 -2.649521 251.216435
v    23.646666 -12.632445 254.406333
v    21.883144 -15.540358 255.244819
v    16.568449 -24.264332 253.133203
v    59.561873 19.514557 231.513641
v    60.639470 19.863293 231.513641
v    59.798657 20.622151 231.513641
v    60.438127 20.485443 240.904581
v    59.360530 20.136707 240.904581
v    60.201343 19.377849 240.904581
v    53.746727 24.869395 236.656483
v    63.334876 33.735705 249.030474
v    67.295799 37.494547 252.459669
v    74.589174 44.130316 258.640453
v    81.179499 50.278007 260.914580
v    90.780002 58.775626 264.141306
v    102.092222 66.638087 262.706334
v    65.482963 14.277103 236.656483
v    73.322975 24.721157 249.030474
v    76.657344 29.045482 252.459669
v    82.513012 36.978823 258.640453
v    87.955007 44.162915 260.914580
v    95.426996 54.581580 264.141306
v    102.092222 66.638087 262.706334
v    60.455660 20.088705 240.904581
v    59.695349 20.350261 240.904581
v    59.848990 19.561034 240.904581
v    59.544340 19.911295 245.088135
v    60.304651 19.649739 245.088135
v    60.151010 20.438966 245.088135
v    62.135734 12.956864 240.888524
v    50.129095 11.728093 252.324560
v    34.199380 10.241673 262.621575
v    19.978307 9.056617 266.214223
v    9.419948 9.463112 268.819314
v    6.433651 9.572080 268.201606
v    59.337679 27.329970 240.888524
v    47.746907 23.964962 252.324560
v    32.422900 19.367128 262.621575
v    18.795809 15.130899 266.214223
v    9.160989 10.793338 268.819314
v    6.433651 9.572080 268.201606
v    59.770522 19.810688 245.088135
v    60.278687 19.895922 245.088135
v    59.950790 20.293389 245.088135
v    60.229478 20.189312 246.666000
v    59.721313 20.104078 246.666000
v    60.049210 19.706611 246.666000
v    55.803443 23.630030 238.385085
v    61.799966 27.135380 249.802439
v    63.586095 28.067511 253.084561
v    68.725712 31.073816 259.532102
v    74.373172 33.224020 265.811753
v    78.147014 34.970708 268.101855
v    62.766213 15.189982 238.385085
v    67.347425 20.410926 249.802439
v    68.602055 21.987324 253.084561
v    72.530447 26.461837 259.532102
v    75.714871 31.597656 265.811753
v    78.147014 34.970708 268.101855
v    63.540955 22.257528 1.773738
v    64.188297 22.475716 2.200489
v    64.707259 22.660022 2.339091
v    66.114147 22.978401 2.694730
v    63.960342 21.396600 1.773738
v    64.531183 21.771828 2.200489
v    64.996210 22.066856 2.339091
v    66.114147 22.978401 2.694730
v    54.045203 14.573627 3.884656
v    53.573209 14.275515 4.025155
v    52.855691 13.933651 4.221112
v    51.789746 13.423149 3.976805
v    53.404762 15.373126 3.884656
v    53.010820 14.977577 4.025155
v    52.520593 14.351973 4.221112
v    51.789746 13.423149 3.976805
v    69.665915 24.318748 5.781008
v    70.881442 24.489839 6.083650
v    71.947672 24.642099 5.861014
v    70.046156 23.340098 5.781008
v    71.058337 24.034552 6.083650
v    71.947672 24.642099 5.861014
v    44.129247 15.720291 8.603173
v    41.874461 15.712299 8.137083
v    43.893851 16.715388 8.603173
v    41.874461 15.712299 8.137083
v    75.799697 38.665225 11.174698
v    77.270355 39.721414 10.800423
v    76.417438 38.124259 11.174698
v    77.270355 39.721414 10.800423
v    29.819484 0.380244 17.549813
v    29.634551 0.321079 17.438924
v    28.865390 0.075004 16.977724
v    28.736815 0.039349 16.862555
v    29.501658 0.878036 17.549813
v    29.370165 0.735172 17.438924
v    28.823266 0.140981 16.977724
v    28.736815 0.039349 16.862555
v    97.144112 47.032624 26.848849
v    97.851951 47.272420 26.203763
v    97.400421 46.676887 26.848849
v    97.851951 47.272420 26.203763
v    14.796773 -9.641817 48.156789
v    14.240869 -9.801398 47.657575
v    14.611601 -9.357492 48.156789
v    14.240869 -9.801398 47.657575
v    100.094998 42.424496 84.035591
v    100.785841 42.621399 83.887100
v    100.253009 42.139605 84.035591
v    100.785841 42.621399 83.887100
v    10.460215 6.689759 125.146726
v    9.896415 6.672138 125.030126
v    10.394455 6.936973 125.146726
v    9.896415 6.672138 125.030126
v    115.430975 43.113812 167.933920
v    115.848198 43.183167 167.846493
v    115.504512 42.936660 167.933920
v    115.848198 43.183167 167.846493
v    10.029884 -21.207403 207.482109
v    9.752692 -21.344655 207.418172
v    9.940756 -21.099084 207.482109
v    9.752692 -21.344655 207.418172
v    102.679639 64.707019 236.117353
v    102.812889 64.794181 236.084439
v    102.731840 64.657127 236.117353
v    102.812889 64.794181 236.084439
mtllib usm_33_2.5D_2018-10-01_1.mtl
usemtl APPID_4040537808_2409227540192 
o vid_3 
f 3 2 1
f 4 5 6
f 1 6 5
f 1 5 3
f 3 5 4
f 4 2 3
f 2 4 6
f 6 1 2
usemtl APPID_4040532992_2409227537504 
o vid_4 
f 7 12 13
f 8 13 14
f 9 14 15
f 7 13 8
f 8 14 9
f 9 15 10
f 10 15 16
f 10 16 11
usemtl APPID_4040537808_2409227540192 
o vid_5 
f 19 18 17
f 20 21 22
f 17 22 21
f 17 21 19
f 19 21 20
f 20 18 19
f 18 20 22
f 22 17 18
usemtl APPID_4040532992_2409227537504 
o vid_6 
f 23 29 30
f 24 30 31
f 25 31 32
f 26 32 33
f 23 30 24
f 24 31 25
f 25 32 26
f 26 33 27
f 27 33 34
f 27 34 28
usemtl APPID_4040537808_2409227540192 
o vid_7 
f 37 36 35
f 38 39 40
f 35 40 39
f 35 39 37
f 37 39 38
f 38 36 37
f 36 38 40
f 40 35 36
usemtl APPID_4040532992_2409227537504 
o vid_8 
f 41 47 48
f 42 48 49
f 43 49 50
f 44 50 51
f 41 48 42
f 42 49 43
f 43 50 44
f 44 51 45
f 45 51 52
f 45 52 46
usemtl APPID_4040537808_2409227540192 
o vid_9 
f 55 54 53
f 56 57 58
f 53 58 57
f 53 57 55
f 55 57 56
f 56 54 55
f 54 56 58
f 58 53 54
usemtl APPID_4040532992_2409227537504 
o vid_10 
f 59 66 67
f 60 67 68
f 61 68 69
f 62 69 70
f 63 70 71
f 59 67 60
f 60 68 61
f 61 69 62
f 62 70 63
f 63 71 64
f 64 71 72
f 64 72 65
usemtl APPID_4040537808_2409227540192 
o vid_11 
f 75 74 73
f 76 77 78
f 73 78 77
f 73 77 75
f 75 77 76
f 76 74 75
f 74 76 78
f 78 73 74
usemtl APPID_4040532992_2409227537504 
o vid_12 
f 79 87 88
f 80 88 89
f 81 89 90
f 82 90 91
f 83 91 92
f 84 92 93
f 79 88 80
f 80 89 81
f 81 90 82
f 82 91 83
f 83 92 84
f 84 93 85
f 85 93 94
f 85 94 86
usemtl APPID_4040537808_2409227540192 
o vid_13 
f 97 96 95
f 98 99 100
f 95 100 99
f 95 99 97
f 97 99 98
f 98 96 97
f 96 98 100
f 100 95 96
usemtl APPID_4040532992_2409227537504 
o vid_14 
f 101 109 110
f 102 110 111
f 103 111 112
f 104 112 113
f 105 113 114
f 106 114 115
f 101 110 102
f 102 111 103
f 103 112 104
f 104 113 105
f 105 114 106
f 106 115 107
f 107 115 116
f 107 116 108
usemtl APPID_4040537808_2409227540192 
o vid_15 
f 119 118 117
f 120 121 122
f 117 122 121
f 117 121 119
f 119 121 120
f 120 118 119
f 118 120 122
f 122 117 118
usemtl APPID_4040532992_2409227537504 
o vid_16 
f 123 133 134
f 124 134 135
f 125 135 136
f 126 136 137
f 127 137 138
f 128 138 139
f 129 139 140
f 130 140 141
f 123 134 124
f 124 135 125
f 125 136 126
f 126 137 127
f 127 138 128
f 128 139 129
f 129 140 130
f 130 141 131
f 131 141 142
f 131 142 132
usemtl APPID_4040537808_2409227540192 
o vid_17 
f 145 144 143
f 146 147 148
f 143 148 147
f 143 147 145
f 145 147 146
f 146 144 145
f 144 146 148
f 148 143 144
usemtl APPID_4040532992_2409227537504 
o vid_18 
f 149 160 161
f 150 161 162
f 151 162 163
f 152 163 164
f 153 164 165
f 154 165 166
f 155 166 167
f 156 167 168
f 157 168 169
f 149 161 150
f 150 162 151
f 151 163 152
f 152 164 153
f 153 165 154
f 154 166 155
f 155 167 156
f 156 168 157
f 157 169 158
f 158 169 170
f 158 170 159
usemtl APPID_4040537808_2409227540192 
o vid_19 
f 173 172 171
f 174 175 176
f 171 176 175
f 171 175 173
f 173 175 174
f 174 172 173
f 172 174 176
f 176 171 172
usemtl APPID_4040532992_2409227537504 
o vid_20 
f 177 184 185
f 178 185 186
f 179 186 187
f 180 187 188
f 181 188 189
f 177 185 178
f 178 186 179
f 179 187 180
f 180 188 181
f 181 189 182
f 182 189 190
f 182 190 183
usemtl APPID_4040537808_2409227540192 
o vid_21 
f 193 192 191
f 194 195 196
f 191 196 195
f 191 195 193
f 193 195 194
f 194 192 193
f 192 194 196
f 196 191 192
usemtl APPID_4040532992_2409227537504 
o vid_22 
f 197 204 205
f 198 205 206
f 199 206 207
f 200 207 208
f 201 208 209
f 197 205 198
f 198 206 199
f 199 207 200
f 200 208 201
f 201 209 202
f 202 209 210
f 202 210 203
usemtl APPID_4040537808_2409227540192 
o vid_23 
f 213 212 211
f 214 215 216
f 211 216 215
f 211 215 213
f 213 215 214
f 214 212 213
f 212 214 216
f 216 211 212
usemtl APPID_4040532992_2409227537504 
o vid_24 
f 217 224 225
f 218 225 226
f 219 226 227
f 220 227 228
f 221 228 229
f 217 225 218
f 218 226 219
f 219 227 220
f 220 228 221
f 221 229 222
f 222 229 230
f 222 230 223
usemtl APPID_4040537808_2409227540192 
o vid_25 
f 233 232 231
f 234 235 236
f 231 236 235
f 231 235 233
f 233 235 234
f 234 232 233
f 232 234 236
f 236 231 232
usemtl APPID_4040532992_2409227537504 
o vid_26 
f 237 244 245
f 238 245 246
f 239 246 247
f 240 247 248
f 241 248 249
f 237 245 238
f 238 246 239
f 239 247 240
f 240 248 241
f 241 249 242
f 242 249 250
f 242 250 243
usemtl APPID_4040537808_2409227540192 
o vid_27 
f 253 252 251
f 254 255 256
f 251 256 255
f 251 255 253
f 253 255 254
f 254 252 253
f 252 254 256
f 256 251 252
usemtl APPID_4040532992_2409227537504 
o vid_28 
f 257 264 265
f 258 265 266
f 259 266 267
f 260 267 268
f 261 268 269
f 257 265 258
f 258 266 259
f 259 267 260
f 260 268 261
f 261 269 262
f 262 269 270
f 262 270 263
usemtl APPID_4040537808_2409227540192 
o vid_29 
f 273 272 271
f 274 275 276
f 271 276 275
f 271 275 273
f 273 275 274
f 274 272 273
f 272 274 276
f 276 271 272
usemtl APPID_4040532992_2409227537504 
o vid_30 
f 277 285 286
f 278 286 287
f 279 287 288
f 280 288 289
f 281 289 290
f 282 290 291
f 277 286 278
f 278 287 279
f 279 288 280
f 280 289 281
f 281 290 282
f 282 291 283
f 283 291 292
usemtl APPID_4040537808_2409227540192 
o vid_31 
f 295 294 293
f 296 297 298
f 293 298 297
f 293 297 295
f 295 297 296
f 296 294 295
f 294 296 298
f 298 293 294
usemtl APPID_4040532992_2409227537504 
o vid_32 
f 299 306 307
f 300 307 308
f 301 308 309
f 302 309 310
f 303 310 311
f 299 307 300
f 300 308 301
f 301 309 302
f 302 310 303
f 303 311 304
f 304 311 312
usemtl APPID_4040537808_2409227540192 
o vid_33 
f 315 314 313
f 316 317 318
f 313 318 317
f 313 317 315
f 315 317 316
f 316 314 315
f 314 316 318
f 318 313 314
usemtl APPID_4040532992_2409227537504 
o vid_34 
f 319 325 326
f 320 326 327
f 321 327 328
f 322 328 329
f 319 326 320
f 320 327 321
f 321 328 322
f 322 329 323
f 323 329 330
usemtl APPID_4040537808_2409227540192 
o vid_35 
f 333 332 331
f 334 335 336
f 331 336 335
f 331 335 333
f 333 335 334
f 334 332 333
f 332 334 336
f 336 331 332
usemtl APPID_4040532992_2409227537504 
o vid_36 
f 337 343 344
f 338 344 345
f 339 345 346
f 340 346 347
f 337 344 338
f 338 345 339
f 339 346 340
f 340 347 341
f 341 347 348
usemtl APPID_4040534896_2409227542368 
o vid_10000004 
f 349 353 354
f 350 354 355
f 349 354 350
f 350 355 351
f 351 355 356
usemtl APPID_4040534896_2409227542368 
o vid_10000006 
f 357 361 362
f 358 362 363
f 357 362 358
f 358 363 359
f 359 363 364
usemtl APPID_4040534896_2409227542368 
o vid_10000008 
f 365 368 369
f 365 369 366
f 366 369 370
usemtl APPID_4040534896_2409227542368 
o vid_10000010 
f 371 373 374
f 371 374 372
f 371 373 374
usemtl APPID_4040534896_2409227542368 
o vid_10000012 
f 375 377 378
f 375 378 376
f 375 377 378
usemtl APPID_4040534896_2409227542368 
o vid_10000014 
f 379 383 384
f 380 384 385
f 379 384 380
f 380 385 381
f 381 385 386
usemtl APPID_4040534896_2409227542368 
o vid_10000016 
f 387 389 390
f 387 390 388
f 387 389 390
usemtl APPID_4040534896_2409227542368 
o vid_10000018 
f 391 393 394
f 391 394 392
f 391 393 394
usemtl APPID_4040534896_2409227542368 
o vid_10000020 
f 395 397 398
f 395 398 396
f 395 397 398
usemtl APPID_4040534896_2409227542368 
o vid_10000022 
f 399 401 402
f 399 402 400
f 399 401 402
usemtl APPID_4040534896_2409227542368 
o vid_10000024 
f 403 405 406
f 403 406 404
f 403 405 406
usemtl APPID_4040534896_2409227542368 
o vid_10000026 
f 407 409 410
f 407 410 408
f 407 409 410
usemtl APPID_4040534896_2409227542368 
o vid_10000028 
f 411 413 414
f 411 414 412
f 411 413 414
