# File generated by PlantGL - Fri Sep  4 14:44:39 2026
v    417.752484 18.905161 0.000000
v    422.071916 18.601013 0.000000
v    420.175600 22.493825 0.000000
v    422.247516 21.094839 0.848509
v    417.928084 21.398987 0.848509
v    419.824400 17.506175 0.848509
v    422.074098 21.428499 0.712378
v    422.462343 21.576521 1.098486
v    422.403346 20.752611 0.712378
v    422.759224 20.967076 1.098486
v    421.879284 21.505407 0.848509
v    417.756638 20.874804 0.848509
v    420.364078 17.619789 0.848509
v    418.120716 18.494593 1.417165
v    422.243362 19.125196 1.417165
v    419.635922 22.380211 1.417165
v    418.474543 18.075426 1.221103
v    418.175184 17.876576 1.555060
v    417.788880 18.931377 1.221103
v    417.529487 18.682637 1.555060
v    417.841416 19.161313 1.417165
v    421.805616 18.549955 1.417165
v    420.352968 22.288732 1.417165
v    422.158584 20.838687 2.253766
v    418.194384 21.450045 2.253766
v    419.647032 17.711268 2.253766
v    421.884400 21.489501 1.977215
v    422.277281 21.603127 2.357262
v    422.395722 20.173480 1.977215
v    422.762257 20.354914 2.357262
v    422.163962 20.511898 2.253766
v    418.474702 21.618097 2.253766
v    419.361335 17.870005 2.253766
v    417.836038 19.488102 4.112548
v    421.525298 18.381903 4.112548
v    420.638665 22.129995 4.112548
v    418.092525 18.523095 3.730513
v    417.052607 18.373119 4.706855
v    417.632979 20.465749 3.730513
v    416.636083 20.133904 4.706855
v    418.595695 18.396392 4.112548
v    422.090917 19.585640 4.112548
v    419.313387 22.017967 4.112548
v    421.404305 21.603608 5.999272
v    417.909083 20.414360 5.999272
v    420.686613 17.982033 5.999272
v    420.322463 22.501625 5.482407
v    420.689557 22.852286 5.954152
v    422.437210 20.649708 5.482407
v    422.736371 21.059859 5.954152
v    421.718982 21.097521 5.999272
v    418.190028 20.939922 5.999272
v    420.090990 17.962557 5.999272
v    418.281018 18.902479 11.505015
v    421.809972 19.060078 11.505015
v    419.909010 22.037443 11.505015
v    419.264580 17.453431 10.820160
v    417.486951 16.529844 12.681673
v    417.314734 16.443927 12.860229
v    417.293379 16.432943 12.876394
v    417.380412 20.404492 10.820160
v    415.794534 19.180576 12.681673
v    415.644124 19.060505 12.860229
v    415.625173 19.045754 12.876394
v    418.420020 18.861621 11.505015
v    421.775855 19.200887 11.505015
v    419.804125 21.937492 11.505015
v    421.579980 21.138379 19.658889
v    418.224145 20.799113 19.658889
v    420.195875 18.062508 19.658889
v    420.075104 23.117784 18.770166
v    420.346590 23.278791 19.063474
v    422.981230 19.084312 18.770166
v    423.219896 19.290871 19.063474
v    421.554633 21.012481 19.658889
v    418.345849 20.840111 19.658889
v    420.099518 18.147408 19.658889
v    418.445367 18.987519 30.873903
v    421.654151 19.159889 30.873903
v    419.900482 21.852592 30.873903
v    420.203042 16.437382 29.744416
v    418.033505 15.285158 32.027142
v    416.823711 21.626242 29.744416
v    414.892632 20.107871 32.027142
v    418.458123 19.144816 30.873903
v    421.511550 19.092287 30.873903
v    420.030327 21.762897 30.873903
v    421.541877 20.855184 48.397355
v    418.488450 20.907713 48.397355
v    419.969673 18.237103 48.397355
v    419.472595 24.377774 46.991496
v    419.692135 24.475115 47.214657
v    423.434475 17.234599 46.991496
v    423.633296 17.369297 47.214657
v    421.614895 20.429572 48.397355
v    418.820532 21.183754 48.397355
v    419.564573 18.386674 48.397355
v    418.385105 19.570428 69.758548
v    421.179468 18.816246 69.758548
v    420.435427 21.613326 69.758548
v    419.793283 14.755691 68.044790
v    419.145446 14.643758 68.655720
v    417.214942 24.448478 68.044790
v    416.597113 24.223737 68.655720
v    418.541706 19.394647 69.758548
v    421.253398 19.039757 69.758548
v    420.204896 21.565597 69.758548
v    421.458294 20.605353 89.607729
v    418.746602 20.960243 89.607729
v    419.795104 18.434403 89.607729
v    419.234096 25.579971 87.561738
v    421.650514 26.339149 89.915406
v    423.410924 15.518004 87.561738
v    425.654612 16.693285 89.915406
v    421.148136 20.944713 89.607729
v    418.607786 20.521958 89.607729
v    420.244078 18.533328 89.607729
v    418.851864 19.055287 113.503741
v    421.392214 19.478042 113.503741
v    419.755922 21.466672 113.503741
v    422.904487 14.400566 111.111502
v    422.618616 14.205223 111.433244
v    415.064721 23.928451 111.111502
v    414.817982 23.685551 111.433244
v    419.036323 18.991726 113.503741
v    421.355030 19.669568 113.503741
v    419.608648 21.338706 113.503741
v    420.963677 21.008274 130.408667
v    418.644970 20.330432 130.408667
v    420.391352 18.661294 130.408667
v    415.861722 25.612274 127.669290
v    416.860613 26.486525 128.902815
v    425.793620 16.119674 127.669290
v    426.621819 17.157067 128.902815
v    420.912312 20.929805 130.408667
v    418.738610 20.325183 130.408667
v    420.349079 18.745013 130.408667
v    419.087688 19.070195 146.720499
v    421.261390 19.674817 146.720499
v    419.650921 21.254987 146.720499
v    424.876092 13.699968 143.648326
v    424.466340 13.350729 144.148625
v    413.608504 24.755570 143.648326
v    413.267109 24.339260 144.148625
v    419.188946 19.101354 146.720499
v    421.183778 19.746930 146.720499
v    419.627277 21.151717 146.720499
v    420.811054 20.898646 158.181550
v    418.816222 20.253070 158.181550
v    420.372723 18.848283 158.181550
v    414.317413 26.432727 154.807231
v    420.755967 32.401242 162.965503
v    421.757178 33.299257 164.213286
v    426.979788 15.004568 154.807231
v    432.259054 22.019373 162.965503
v    433.050048 23.107116 164.213286
v    421.097812 20.213714 158.181550
v    419.266012 20.843876 158.181550
v    419.636176 18.942409 158.181550
v    418.902188 19.786286 164.602053
v    420.733988 19.156124 164.602053
v    420.363824 21.057591 164.602053
v    420.785879 11.475041 160.972333
v    418.728261 11.261909 162.894605
v    410.382148 10.535658 170.667079
v    417.530525 28.197208 160.972333
v    415.543218 27.622902 162.894605
v    407.534163 25.165244 170.667079
v    419.208315 19.346885 164.602053
v    420.961457 19.640938 164.602053
v    419.830228 21.012177 164.602053
v    420.791685 20.653115 168.440627
v    419.038543 20.359062 168.440627
v    420.169772 18.987823 168.440627
v    415.177351 27.026848 164.616725
v    425.418059 33.799512 176.007488
v    425.625058 33.940102 176.175922
v    425.982107 13.929667 164.616725
v    434.577767 22.696406 176.007488
v    434.755138 22.872910 176.175922
v    420.747035 20.560971 168.440627
v    419.140667 20.366465 168.440627
v    420.112298 19.072563 168.440627
v    419.252965 19.439029 171.309825
v    420.859333 19.633535 171.309825
v    419.887702 20.927437 171.309825
v    424.859709 12.444761 167.364463
v    413.985621 5.946800 179.117035
v    406.757148 1.505725 184.827633
v    414.099621 26.773768 167.364463
v    404.827102 18.143028 179.117035
v    398.546482 12.439714 184.827633
v    419.310251 19.516898 171.309825
v    420.763253 19.644211 171.309825
v    419.926496 20.838891 171.309825
v    420.689749 20.483102 172.803360
v    419.236747 20.355789 172.803360
v    420.073504 19.161109 172.803360
v    415.690136 27.121943 168.816660
v    426.889438 33.320752 180.692372
v    431.283138 35.823776 184.096116
v    425.220076 13.515572 168.816660
v    434.873236 21.921885 180.692372
v    438.727186 25.195538 184.096116
v    420.610549 20.435580 172.803360
v    419.317502 20.310961 172.803360
v    420.071949 19.253459 172.803360
v    419.389451 19.564420 174.000000
v    420.682498 19.689039 174.000000
v    419.928051 20.746541 174.000000
v    424.920865 12.299231 170.054638
v    413.898702 6.058422 181.807210
v    398.787737 -2.724711 193.572119
v    414.319615 27.158909 170.054638
v    404.831804 18.767413 181.807210
v    391.609522 7.336930 193.572119
v    422.462343 21.576521 1.098486
v    422.772440 21.698226 1.328332
v    423.051800 21.803421 1.529266
v    424.179329 22.243563 1.917236
v    424.767847 22.450148 1.932793
v    425.102439 22.519919 1.928995
v    425.223961 22.544762 1.907024
v    422.759224 20.967076 1.098486
v    423.046208 21.136228 1.328332
v    423.301244 21.291355 1.529266
v    424.342855 21.907872 1.917236
v    424.868300 22.243935 1.932793
v    425.129490 22.464389 1.928995
v    425.223961 22.544762 1.907024
v    418.175184 17.876576 1.555060
v    417.951015 17.727672 1.805138
v    417.505755 17.425182 2.167927
v    417.220743 17.237546 2.397618
v    415.694888 16.206481 2.987897
v    414.926733 15.724400 2.977572
v    414.578851 15.565838 2.973325
v    414.317319 15.447870 2.922502
v    417.529487 18.682637 1.555060
v    417.335245 18.496372 1.805138
v    416.942866 18.127868 2.167927
v    416.697547 17.890680 2.397618
v    415.358308 16.626652 2.987897
v    414.720193 15.982236 2.977572
v    414.489525 15.677349 2.973325
v    414.317319 15.447870 2.922502
v    422.277281 21.603127 2.357262
v    422.650804 21.711154 2.718583
v    423.930619 22.074460 3.636722
v    425.477892 22.535263 4.154201
v    426.434359 22.779246 4.469328
v    427.607600 22.955825 4.456062
v    422.762257 20.354914 2.357262
v    423.110732 20.527409 2.718583
v    424.300111 21.123474 3.636722
v    425.752614 21.828191 4.154201
v    426.622906 22.293970 4.469328
v    427.607600 22.955825 4.456062
v    417.052607 18.373119 4.706855
v    415.182391 18.108273 6.023001
v    412.645833 17.721917 6.845429
v    411.625547 17.607720 7.173186
v    410.947912 17.527933 7.165418
v    409.635397 17.548193 7.150833
v    416.636083 20.133904 4.706855
v    414.845423 19.532748 6.023001
v    412.404602 18.741677 6.845429
v    411.441288 18.386642 7.173186
v    410.799726 18.154366 7.165418
v    409.635397 17.548193 7.150833
v    420.689557 22.852286 5.954152
v    421.520563 23.646092 7.022062
v    422.171065 24.280551 7.634477
v    423.195072 25.250697 8.583978
v    426.264601 28.229677 9.955034
v    426.696282 28.616569 10.140096
v    428.009504 29.807208 10.119915
v    429.360593 30.739174 10.101679
v    429.470001 30.814011 10.078198
v    422.736371 21.059859 5.954152
v    423.413594 21.988335 7.022062
v    423.956680 22.716860 7.634477
v    424.783237 23.859916 8.583978
v    427.331180 27.295657 9.955034
v    427.657734 27.774610 10.140096
v    428.664698 29.233445 10.119915
v    429.410254 30.695685 10.101679
v    429.470001 30.814011 10.078198
v    417.293379 16.432943 12.876394
v    414.580624 15.037635 14.929794
v    411.015953 13.149559 16.222767
v    408.844507 12.107573 16.991676
v    408.280898 11.833129 16.984539
v    406.047567 11.091770 16.958394
v    415.625173 19.045754 12.876394
v    413.217863 17.172047 14.929794
v    410.005043 14.732888 16.222767
v    408.146037 13.201545 16.991676
v    407.659902 12.805758 16.984539
v    406.047567 11.091770 16.958394
v    420.346590 23.278791 19.063474
v    422.525504 24.571013 21.417524
v    424.611603 25.837723 23.062378
v    425.944745 26.620962 24.103159
v    433.090641 30.935776 26.778823
v    436.680099 32.940895 26.732014
v    438.290963 33.578014 26.712767
v    439.502826 34.051832 26.482273
v    423.219896 19.290871 19.063474
v    425.135400 20.948686 21.417524
v    426.997322 22.526535 23.062378
v    428.162288 23.543188 24.103159
v    434.517241 28.955768 26.778823
v    437.555488 31.725926 26.732014
v    438.669760 33.052273 26.712767
v    439.502826 34.051832 26.482273
v    418.033505 15.285158 32.027142
v    417.005322 14.739098 33.108967
v    414.984853 13.638932 34.659474
v    412.535585 12.351027 36.522164
v    403.997023 7.729174 39.634285
v    399.377500 5.433656 39.874248
v    396.353533 4.399412 39.838739
v    395.714458 4.183635 39.719255
v    414.892632 20.107871 32.027142
v    413.977459 19.388288 33.108967
v    412.154269 17.985207 34.659474
v    409.985988 16.265855 36.522164
v    402.306266 10.325280 39.634285
v    398.338877 7.028429 39.874248
v    396.170218 4.680888 39.838739
v    395.714458 4.183635 39.719255
v    419.692135 24.475115 47.214657
v    423.592451 26.204475 51.179317
v    428.866734 28.609030 55.085982
v    441.360350 34.260715 59.660286
v    443.509837 35.244278 59.633276
v    449.496759 37.714445 59.559543
v    453.080276 38.649001 58.959577
v    454.079248 38.901664 58.653104
v    423.633296 17.369297 47.214657
v    427.165523 19.762312 51.179317
v    431.998032 22.963374 55.085982
v    443.407709 30.569376 59.660286
v    445.380216 31.872029 59.633276
v    450.645722 35.642892 59.559543
v    453.335963 38.188004 58.959577
v    454.079248 38.901664 58.653104
v    419.145446 14.643758 68.655720
v    414.379693 13.821114 73.149789
v    406.973824 12.463224 78.224287
v    390.980901 9.573837 83.488184
v    387.597535 8.948627 83.448870
v    379.943239 7.831661 83.360805
v    375.846030 7.776404 82.634012
v    374.038756 7.774026 82.096487
v    416.597113 24.223737 68.655720
v    412.052498 22.569765 73.149789
v    404.950762 20.068543 78.224287
v    389.635961 14.629883 83.488184
v    386.389125 13.491418 83.448870
v    379.191500 10.657682 83.360805
v    375.608350 8.669915 82.634012
v    374.038756 7.774026 82.096487
v    421.650514 26.339149 89.915406
v    425.491246 27.545810 93.656403
v    427.502622 28.200811 95.082066
v    434.253600 30.291342 99.839188
v    448.745915 34.970920 104.720622
v    452.602426 36.049214 105.999020
v    457.623558 37.484273 105.939567
v    464.579059 38.505230 105.861459
v    425.654612 16.693285 89.915406
v    429.220804 18.561314 93.656403
v    431.104746 19.523301 95.082066
v    437.351587 22.828299 99.839188
v    450.897527 29.787692 104.720622
v    454.383950 31.757526 105.999020
v    458.945280 34.300246 105.939567
v    464.579059 38.505230 105.861459
v    422.618616 14.205223 111.433244
v    416.623257 10.108423 118.180911
v    407.680256 4.052110 125.466691
v    395.457998 -4.442518 130.237603
v    389.036617 -8.537435 132.668964
v    386.494272 -10.179299 132.634509
v    379.060191 -13.686228 132.543183
v    414.817982 23.685551 111.433244
v    409.643290 18.591372 118.180911
v    401.978109 10.982087 125.466691
v    391.288741 0.624495 130.237603
v    386.033853 -4.888093 132.668964
v    383.933121 -7.066662 132.634509
v    379.060191 -13.686228 132.543183
v    416.860613 26.486525 128.902815
v    420.765476 29.904146 133.724906
v    422.496721 31.369887 135.829436
v    431.784196 39.431295 144.107565
v    442.386518 48.860047 148.655417
v    451.344711 56.211295 152.354961
v    459.668852 61.504644 152.245191
v    426.621819 17.157067 128.902815
v    429.859415 21.212442 133.724906
v    431.245390 23.008181 135.829436
v    438.878686 32.650601 144.107565
v    447.818486 43.668341 148.655417
v    454.757234 52.949712 152.354961
v    459.668852 61.504644 152.245191
v    424.466340 13.350729 144.148625
v    417.697352 7.581381 152.413446
v    406.842561 -1.586893 162.083621
v    392.725502 -13.813547 168.069809
v    384.739639 -20.193465 171.332961
v    382.076922 -22.345876 171.293981
v    373.062115 -27.837898 171.176697
v    413.267109 24.339260 144.148625
v    407.627349 17.461928 152.413446
v    398.666869 6.434982 162.083621
v    386.710514 -7.911724 168.069809
v    380.483404 -16.017306 171.332961
v    378.381949 -18.720420 171.293981
v    373.062115 -27.837898 171.176697
v    421.757178 33.299257 164.213286
v    433.426872 44.016520 175.055622
v    446.861982 56.670175 180.971325
v    456.891744 65.392039 185.214628
v    467.729284 72.883940 185.067671
v    433.050048 23.107116 164.213286
v    442.518595 35.810977 175.055622
v    453.732977 50.468904 180.971325
v    461.384169 61.337497 185.214628
v    467.729284 72.883940 185.067671
v    410.382148 10.535658 170.667079
v    392.966839 8.818980 182.753319
v    382.773197 7.681413 186.041003
v    366.883519 6.544242 191.126702
v    358.683170 7.097697 193.681257
v    354.823698 7.311936 193.638309
v    407.534163 25.165244 170.667079
v    390.746675 20.223563 182.753319
v    380.870715 17.454120 186.041003
v    365.714836 12.547560 191.126702
v    358.320955 8.958330 193.681257
v    354.823698 7.311936 193.638309
v    425.625058 33.940102 176.175922
v    439.619283 43.444693 187.562943
v    443.217120 45.952059 188.968594
v    457.355799 54.993730 194.326367
v    468.760533 60.225884 198.226309
v    434.755138 22.872910 176.175922
v    446.746357 34.805481 187.562943
v    449.891859 37.861154 188.968594
v    461.456053 50.023533 194.326367
v    468.760533 60.225884 198.226309
v    406.757148 1.505725 184.827633
v    398.894129 -3.325208 191.039532
v    392.974613 -7.060933 193.283180
v    377.976022 -15.713860 198.811134
v    365.974775 -20.569189 202.834952
v    398.546482 12.439714 184.827633
v    391.714523 6.235738 191.039532
v    386.476286 1.592766 193.283180
v    373.984137 -10.397941 198.811134
v    365.974775 -20.569189 202.834952
v    431.283138 35.823776 184.096116
v    440.812243 41.252362 191.478194
v    442.490100 42.109666 192.739789
v    456.021109 49.329951 197.636044
v    468.303825 53.832133 201.702022
v    438.727186 25.195538 184.096116
v    447.085674 32.295472 191.478194
v    448.464801 33.579288 192.739789
v    459.874842 43.827785 197.636044
v    468.303825 53.832133 201.702022
v    398.787737 -2.724711 193.572119
v    390.671481 -7.570528 196.684609
v    375.466098 -15.854679 202.212563
v    365.242190 -19.703231 205.607943
v    363.269756 -20.472712 205.584419
v    391.609522 7.336930 193.572119
v    384.386374 1.239251 196.684609
v    371.605192 -10.442882 202.212563
v    364.639195 -18.858019 205.607943
v    363.269756 -20.472712 205.584419
mtllib usm_28_2.5D_2018-09-27_10.mtl
usemtl APPID_3773139392_1876378557040 
o vid_3 
f 3 2 1
f 4 5 6
f 1 6 5
f 1 5 3
f 3 5 4
f 4 2 3
f 2 4 6
f 6 1 2
usemtl APPID_3773140512_1876378559344 
o vid_4 
f 7 9 10
f 7 10 8
f 7 9 10
f 7 10 8
usemtl APPID_3773139392_1876378557040 
o vid_5 
f 13 12 11
f 14 15 16
f 11 16 15
f 11 15 13
f 13 15 14
f 14 12 13
f 12 14 16
f 16 11 12
usemtl APPID_3773140512_1876378559344 
o vid_6 
f 17 19 20
f 17 20 18
f 17 19 20
f 17 20 18
usemtl APPID_3773139392_1876378557040 
o vid_7 
f 23 22 21
f 24 25 26
f 21 26 25
f 21 25 23
f 23 25 24
f 24 22 23
f 22 24 26
f 26 21 22
usemtl APPID_3773140512_1876378559344 
o vid_8 
f 27 29 30
f 27 30 28
f 27 29 30
f 27 30 28
usemtl APPID_3773139392_1876378557040 
o vid_9 
f 33 32 31
f 34 35 36
f 31 36 35
f 31 35 33
f 33 35 34
f 34 32 33
f 32 34 36
f 36 31 32
usemtl APPID_3773140512_1876378559344 
o vid_10 
f 37 39 40
f 37 40 38
f 37 39 40
f 37 40 38
usemtl APPID_3773139392_1876378557040 
o vid_11 
f 43 42 41
f 44 45 46
f 41 46 45
f 41 45 43
f 43 45 44
f 44 42 43
f 42 44 46
f 46 41 42
usemtl APPID_3773140512_1876378559344 
o vid_12 
f 47 49 50
f 47 50 48
f 47 49 50
f 47 50 48
usemtl APPID_3773139392_1876378557040 
o vid_13 
f 53 52 51
f 54 55 56
f 51 56 55
f 51 55 53
f 53 55 54
f 54 52 53
f 52 54 56
f 56 51 52
usemtl APPID_3773140512_1876378559344 
o vid_14 
f 57 61 62
f 58 62 63
f 57 62 58
f 58 63 59
f 59 63 64
f 59 64 60
usemtl APPID_3773139392_1876378557040 
o vid_15 
f 67 66 65
f 68 69 70
f 65 70 69
f 65 69 67
f 67 69 68
f 68 66 67
f 66 68 70
f 70 65 66
usemtl APPID_3773140512_1876378559344 
o vid_16 
f 71 73 74
f 71 74 72
f 71 73 74
f 71 74 72
usemtl APPID_3773139392_1876378557040 
o vid_17 
f 77 76 75
f 78 79 80
f 75 80 79
f 75 79 77
f 77 79 78
f 78 76 77
f 76 78 80
f 80 75 76
usemtl APPID_3773140512_1876378559344 
o vid_18 
f 81 83 84
f 81 84 82
f 81 83 84
f 81 84 82
usemtl APPID_3773139392_1876378557040 
o vid_19 
f 87 86 85
f 88 89 90
f 85 90 89
f 85 89 87
f 87 89 88
f 88 86 87
f 86 88 90
f 90 85 86
usemtl APPID_3773140512_1876378559344 
o vid_20 
f 91 93 94
f 91 94 92
f 91 93 94
f 91 94 92
usemtl APPID_3773139392_1876378557040 
o vid_21 
f 97 96 95
f 98 99 100
f 95 100 99
f 95 99 97
f 97 99 98
f 98 96 97
f 96 98 100
f 100 95 96
usemtl APPID_3773140512_1876378559344 
o vid_22 
f 101 103 104
f 101 104 102
f 101 103 104
f 101 104 102
usemtl APPID_3773139392_1876378557040 
o vid_23 
f 107 106 105
f 108 109 110
f 105 110 109
f 105 109 107
f 107 109 108
f 108 106 107
f 106 108 110
f 110 105 106
usemtl APPID_3773140512_1876378559344 
o vid_24 
f 111 113 114
f 111 114 112
f 111 113 114
f 111 114 112
usemtl APPID_3773139392_1876378557040 
o vid_25 
f 117 116 115
f 118 119 120
f 115 120 119
f 115 119 117
f 117 119 118
f 118 116 117
f 116 118 120
f 120 115 116
usemtl APPID_3773140512_1876378559344 
o vid_26 
f 121 123 124
f 121 124 122
f 121 123 124
f 121 124 122
usemtl APPID_3773139392_1876378557040 
o vid_27 
f 127 126 125
f 128 129 130
f 125 130 129
f 125 129 127
f 127 129 128
f 128 126 127
f 126 128 130
f 130 125 126
usemtl APPID_3773140512_1876378559344 
o vid_28 
f 131 133 134
f 131 134 132
f 131 133 134
f 131 134 132
usemtl APPID_3773139392_1876378557040 
o vid_29 
f 137 136 135
f 138 139 140
f 135 140 139
f 135 139 137
f 137 139 138
f 138 136 137
f 136 138 140
f 140 135 136
usemtl APPID_3773140512_1876378559344 
o vid_30 
f 141 143 144
f 141 144 142
f 141 143 144
f 141 144 142
usemtl APPID_3773139392_1876378557040 
o vid_31 
f 147 146 145
f 148 149 150
f 145 150 149
f 145 149 147
f 147 149 148
f 148 146 147
f 146 148 150
f 150 145 146
usemtl APPID_3773140512_1876378559344 
o vid_32 
f 151 154 155
f 151 155 152
f 152 155 156
f 152 156 153
usemtl APPID_3773139392_1876378557040 
o vid_33 
f 159 158 157
f 160 161 162
f 157 162 161
f 157 161 159
f 159 161 160
f 160 158 159
f 158 160 162
f 162 157 158
usemtl APPID_3773140512_1876378559344 
o vid_34 
f 163 166 167
f 163 167 164
f 164 167 168
f 164 168 165
usemtl APPID_3773139392_1876378557040 
o vid_35 
f 171 170 169
f 172 173 174
f 169 174 173
f 169 173 171
f 171 173 172
f 172 170 171
f 170 172 174
f 174 169 170
usemtl APPID_3773140512_1876378559344 
o vid_36 
f 175 178 179
f 175 179 176
f 176 179 180
f 176 180 177
usemtl APPID_3773139392_1876378557040 
o vid_37 
f 183 182 181
f 184 185 186
f 181 186 185
f 181 185 183
f 183 185 184
f 184 182 183
f 182 184 186
f 186 181 182
usemtl APPID_3773140512_1876378559344 
o vid_38 
f 187 190 191
f 187 191 188
f 188 191 192
f 188 192 189
usemtl APPID_3773139392_1876378557040 
o vid_39 
f 195 194 193
f 196 197 198
f 193 198 197
f 193 197 195
f 195 197 196
f 196 194 195
f 194 196 198
f 198 193 194
usemtl APPID_3773140512_1876378559344 
o vid_40 
f 199 202 203
f 199 203 200
f 200 203 204
f 200 204 201
usemtl APPID_3773139392_1876378557040 
o vid_41 
f 207 206 205
f 208 209 210
f 205 210 209
f 205 209 207
f 207 209 208
f 208 206 207
f 206 208 210
f 210 205 206
usemtl APPID_3773140512_1876378559344 
o vid_42 
f 211 214 215
f 211 215 212
f 212 215 216
f 212 216 213
usemtl APPID_3773115200_1876378562800 
o vid_10000004 
f 217 224 225
f 218 225 226
f 219 226 227
f 220 227 228
f 221 228 229
f 217 225 218
f 218 226 219
f 219 227 220
f 220 228 221
f 221 229 222
f 222 229 230
usemtl APPID_3773115200_1876378562800 
o vid_10000006 
f 231 239 240
f 232 240 241
f 233 241 242
f 234 242 243
f 235 243 244
f 236 244 245
f 231 240 232
f 232 241 233
f 233 242 234
f 234 243 235
f 235 244 236
f 236 245 237
f 237 245 246
usemtl APPID_3773115200_1876378562800 
o vid_10000008 
f 247 253 254
f 248 254 255
f 249 255 256
f 250 256 257
f 247 254 248
f 248 255 249
f 249 256 250
f 250 257 251
f 251 257 258
usemtl APPID_3773115200_1876378562800 
o vid_10000010 
f 259 265 266
f 260 266 267
f 261 267 268
f 262 268 269
f 259 266 260
f 260 267 261
f 261 268 262
f 262 269 263
f 263 269 270
usemtl APPID_3773115200_1876378562800 
o vid_10000012 
f 271 280 281
f 272 281 282
f 273 282 283
f 274 283 284
f 275 284 285
f 276 285 286
f 277 286 287
f 271 281 272
f 272 282 273
f 273 283 274
f 274 284 275
f 275 285 276
f 276 286 277
f 277 287 278
f 278 287 288
usemtl APPID_3773115200_1876378562800 
o vid_10000014 
f 289 295 296
f 290 296 297
f 291 297 298
f 292 298 299
f 289 296 290
f 290 297 291
f 291 298 292
f 292 299 293
f 293 299 300
usemtl APPID_3773115200_1876378562800 
o vid_10000016 
f 301 309 310
f 302 310 311
f 303 311 312
f 304 312 313
f 305 313 314
f 306 314 315
f 301 310 302
f 302 311 303
f 303 312 304
f 304 313 305
f 305 314 306
f 306 315 307
f 307 315 316
usemtl APPID_3773115200_1876378562800 
o vid_10000018 
f 317 325 326
f 318 326 327
f 319 327 328
f 320 328 329
f 321 329 330
f 322 330 331
f 317 326 318
f 318 327 319
f 319 328 320
f 320 329 321
f 321 330 322
f 322 331 323
f 323 331 332
usemtl APPID_3773115200_1876378562800 
o vid_10000020 
f 333 341 342
f 334 342 343
f 335 343 344
f 336 344 345
f 337 345 346
f 338 346 347
f 333 342 334
f 334 343 335
f 335 344 336
f 336 345 337
f 337 346 338
f 338 347 339
f 339 347 348
usemtl APPID_3773115200_1876378562800 
o vid_10000022 
f 349 357 358
f 350 358 359
f 351 359 360
f 352 360 361
f 353 361 362
f 354 362 363
f 349 358 350
f 350 359 351
f 351 360 352
f 352 361 353
f 353 362 354
f 354 363 355
f 355 363 364
usemtl APPID_3773115200_1876378562800 
o vid_10000024 
f 365 373 374
f 366 374 375
f 367 375 376
f 368 376 377
f 369 377 378
f 370 378 379
f 365 374 366
f 366 375 367
f 367 376 368
f 368 377 369
f 369 378 370
f 370 379 371
f 371 379 380
usemtl APPID_3773115200_1876378562800 
o vid_10000026 
f 381 388 389
f 382 389 390
f 383 390 391
f 384 391 392
f 385 392 393
f 381 389 382
f 382 390 383
f 383 391 384
f 384 392 385
f 385 393 386
f 386 393 394
usemtl APPID_3773115200_1876378562800 
o vid_10000028 
f 395 402 403
f 396 403 404
f 397 404 405
f 398 405 406
f 399 406 407
f 395 403 396
f 396 404 397
f 397 405 398
f 398 406 399
f 399 407 400
f 400 407 408
usemtl APPID_3773115200_1876378562800 
o vid_10000030 
f 409 416 417
f 410 417 418
f 411 418 419
f 412 419 420
f 413 420 421
f 409 417 410
f 410 418 411
f 411 419 412
f 412 420 413
f 413 421 414
f 414 421 422
usemtl APPID_3773115200_1876378562800 
o vid_10000032 
f 423 428 429
f 424 429 430
f 425 430 431
f 423 429 424
f 424 430 425
f 425 431 426
f 426 431 432
usemtl APPID_3773115200_1876378562800 
o vid_10000034 
f 433 439 440
f 434 440 441
f 435 441 442
f 436 442 443
f 433 440 434
f 434 441 435
f 435 442 436
f 436 443 437
f 437 443 444
usemtl APPID_3773115200_1876378562800 
o vid_10000036 
f 445 450 451
f 446 451 452
f 447 452 453
f 445 451 446
f 446 452 447
f 447 453 448
f 448 453 454
usemtl APPID_3773115200_1876378562800 
o vid_10000038 
f 455 460 461
f 456 461 462
f 457 462 463
f 455 461 456
f 456 462 457
f 457 463 458
f 458 463 464
usemtl APPID_3773115200_1876378562800 
o vid_10000040 
f 465 470 471
f 466 471 472
f 467 472 473
f 465 471 466
f 466 472 467
f 467 473 468
f 468 473 474
usemtl APPID_3773115200_1876378562800 
o vid_10000042 
f 475 480 481
f 476 481 482
f 477 482 483
f 475 481 476
f 476 482 477
f 477 483 478
f 478 483 484
