# File generated by PlantGL - Fri Sep  4 14:43:16 2026
v    257.752484 18.905161 0.000000
v    262.071916 18.601013 0.000000
v    260.175600 22.493825 0.000000
v    262.247516 21.094839 0.848509
v    257.928084 21.398987 0.848509
v    259.824400 17.506175 0.848509
v    262.077324 21.422976 0.719073
v    262.449303 21.564796 1.089005
v    262.400985 20.758555 0.719073
v    262.741954 20.964035 1.089005
v    261.879284 21.505407 0.848509
v    257.756638 20.874804 0.848509
v    260.364078 17.619789 0.848509
v    258.120716 18.494593 1.417165
v    262.243362 19.125196 1.417165
v    259.635922 22.380211 1.417165
v    258.469594 18.080604 1.229801
v    257.969290 17.748277 1.787927
v    257.362798 17.336253 2.282085
v    256.469105 16.733912 2.665270
v    257.792854 18.925417 1.229801
v    257.359343 18.509709 1.787927
v    256.824879 18.007767 2.282085
v    256.042004 17.267086 2.665270
v    257.841416 19.161313 1.417165
v    261.805616 18.549955 1.417165
v    260.352968 22.288732 1.417165
v    262.158584 20.838687 2.253766
v    258.194384 21.450045 2.253766
v    259.647032 17.711268 2.253766
v    261.888743 21.480508 1.988221
v    262.706470 21.717004 2.779235
v    263.852312 22.045326 3.581686
v    265.365311 22.495921 4.087703
v    262.392853 20.183046 1.988221
v    263.155745 20.560677 2.779235
v    264.222676 21.092097 3.581686
v    265.643005 21.781204 4.087703
v    262.163962 20.511898 2.253766
v    258.474702 21.618097 2.253766
v    259.361335 17.870005 2.253766
v    257.836038 19.488102 4.112548
v    261.525298 18.381903 4.112548
v    260.638665 22.129995 4.112548
v    258.088534 18.535735 3.744070
v    256.919427 18.367127 4.841703
v    256.494092 18.301260 5.131781
v    255.282618 18.131624 5.955206
v    252.514996 17.710073 6.852552
v    251.854983 17.636200 7.064575
v    251.582129 17.604073 7.061447
v    257.635074 20.452660 3.744070
v    256.514334 20.079591 4.841703
v    256.104567 19.947910 5.131781
v    254.945490 19.556779 5.955206
v    252.282326 18.693646 6.852552
v    251.659168 18.463977 7.064575
v    251.400838 18.370449 7.061447
v    258.595695 18.396392 4.112548
v    262.090917 19.585640 4.112548
v    259.313387 22.017967 4.112548
v    261.404305 21.603608 5.999272
v    257.909083 20.414360 5.999272
v    260.686613 17.982033 5.999272
v    260.333970 22.493100 5.498656
v    261.494405 23.601587 6.989908
v    262.397015 24.481938 7.839670
v    263.112094 25.159405 8.502721
v    266.399149 28.349493 9.970938
v    267.922389 29.729599 9.987907
v    262.427241 20.659990 5.498656
v    263.372930 21.956533 6.989908
v    264.126494 22.967406 7.839670
v    264.703691 23.765618 8.502721
v    267.432197 27.444837 9.970938
v    268.599261 29.136851 9.987907
v    261.718982 21.097521 5.999272
v    258.190028 20.939922 5.999272
v    260.090990 17.962557 5.999272
v    258.281018 18.902479 11.505015
v    261.809972 19.060078 11.505015
v    259.909010 22.037443 11.505015
v    259.254353 17.466921 10.839099
v    257.360086 16.482733 12.822753
v    254.703073 15.112995 14.835088
v    250.829271 13.061185 16.240189
v    249.135501 12.248415 16.839953
v    248.150327 11.768693 16.827478
v    247.703970 11.620524 16.822252
v    257.388345 20.389538 10.839099
v    255.698411 19.085315 12.822753
v    253.337753 17.251413 14.835088
v    249.846316 14.600729 16.240189
v    248.396255 13.406252 16.839953
v    247.546504 12.714427 16.827478
v    247.224259 12.371866 16.822252
v    258.420020 18.861621 11.505015
v    261.775855 19.200887 11.505015
v    259.804125 21.937492 11.505015
v    261.579980 21.138379 19.658889
v    258.224145 20.799113 19.658889
v    260.195875 18.062508 19.658889
v    260.086845 23.104125 18.791616
v    262.478104 24.522280 21.375078
v    264.971313 26.036192 23.340932
v    265.810257 26.529084 23.995894
v    272.783683 30.739757 26.606980
v    276.838137 33.032488 26.553919
v    278.338675 33.623497 26.438622
v    262.971990 19.099773 18.791616
v    265.074168 20.919149 21.375078
v    267.299451 22.804922 23.340932
v    268.032562 23.444700 23.995894
v    274.234135 28.726644 26.606980
v    277.692397 31.846843 26.553919
v    278.728007 33.083135 26.438622
v    261.554633 21.012481 19.658889
v    258.345849 20.840111 19.658889
v    260.099518 18.147408 19.658889
v    258.445367 18.987519 30.873903
v    261.654151 19.159889 30.873903
v    259.900482 21.852592 30.873903
v    260.190556 16.453448 29.768009
v    257.059630 14.790638 33.062281
v    254.585095 13.443229 34.961238
v    252.687754 12.445545 36.404182
v    243.756388 7.611071 39.659472
v    239.206036 5.345708 39.678455
v    236.908839 4.560030 39.651480
v    236.542858 4.436461 39.583054
v    256.833357 21.608325 29.768009
v    254.046558 19.417118 33.062281
v    251.813637 17.698718 34.961238
v    250.133964 16.366812 36.404182
v    242.100948 10.152949 39.659472
v    238.189109 6.907169 39.678455
v    236.541657 5.123828 39.651480
v    236.280656 4.839064 39.583054
v    258.458123 19.144816 30.873903
v    261.511550 19.092287 30.873903
v    260.030327 21.762897 30.873903
v    261.541877 20.855184 48.397837
v    258.488450 20.907713 48.397837
v    259.969673 18.237103 48.397837
v    259.488106 24.353538 47.017161
v    263.529955 26.155100 51.129963
v    269.162819 28.723132 55.302229
v    280.974783 34.075644 59.459006
v    283.827722 35.381093 59.423157
v    289.249465 37.618071 59.356385
v    292.415511 38.510175 58.770850
v    293.641028 38.820137 58.394876
v    263.422128 17.260590 47.017161
v    267.090546 19.735439 51.129963
v    272.251602 23.154131 55.302229
v    283.046555 30.340287 59.459006
v    285.664595 32.069253 59.423157
v    290.433026 35.484139 59.356385
v    292.866207 37.697581 58.770850
v    293.778053 38.573084 58.394876
v    261.417287 20.377007 48.397837
v    258.964859 21.038903 48.397837
v    259.617854 18.584090 48.397837
v    258.582713 19.622993 69.759043
v    261.035141 18.961097 69.759043
v    260.382146 21.415910 69.759043
v    259.978796 14.846434 68.071359
v    254.652842 13.906270 73.098687
v    247.209730 12.541551 78.198703
v    231.612766 9.713428 83.279785
v    227.423000 8.939204 83.231101
v    220.751577 7.965665 83.154344
v    216.747411 7.795820 82.438609
v    214.385629 7.792712 81.736161
v    257.421022 24.461901 68.071359
v    252.331856 22.631579 73.098687
v    245.194407 20.117779 78.198703
v    230.253672 14.822687 83.279785
v    226.232975 13.412877 83.231101
v    219.959584 10.943015 83.154344
v    216.400246 9.100922 82.438609
v    214.349068 7.930156 81.736161
v    258.948009 19.563308 69.759043
v    260.904182 19.307295 69.759043
v    260.147809 21.129397 69.759043
v    261.051991 20.436692 89.605866
v    259.095818 20.692705 89.605866
v    259.852191 18.870603 89.605866
v    258.852970 25.355565 87.586050
v    265.030068 27.296253 93.602742
v    267.119201 27.976575 95.083519
v    273.679711 30.008125 99.706427
v    288.105659 34.666273 104.565506
v    291.791871 35.696951 105.787452
v    296.875524 37.149879 105.727259
v    303.640731 38.142904 105.651287
v    262.982917 15.406531 87.586050
v    268.718468 18.410907 93.602742
v    270.675241 19.410082 95.083519
v    276.745837 22.621835 99.706427
v    290.229743 29.549358 104.565506
v    293.562211 31.432207 105.787452
v    298.180337 34.006587 105.727259
v    303.659982 38.096528 105.651287
v    260.648851 20.533890 89.605866
v    259.213212 20.294977 89.605866
v    260.137937 19.171133 89.605866
v    259.351149 19.466110 113.493644
v    260.786788 19.705023 113.493644
v    259.862063 20.828867 113.493644
v    263.301229 14.933129 111.126888
v    257.954385 11.279478 117.144663
v    248.228154 4.708301 125.329160
v    237.258597 -2.915683 129.611084
v    229.748397 -7.704940 132.454711
v    221.088461 -12.017320 132.346671
v    255.663720 24.215207 111.126888
v    251.048771 19.672063 117.144663
v    242.727532 11.393361 125.329160
v    233.133753 2.097354 129.611084
v    226.987839 -4.349957 132.454711
v    221.088461 -12.017320 132.346671
v    259.605967 19.587732 113.493644
v    260.554051 19.864892 113.493644
v    259.839982 20.547376 113.493644
v    260.394033 20.412268 124.901960
v    259.445949 20.135108 124.901960
v    260.160018 19.452624 124.901960
v    256.164972 24.058466 119.465902
v    262.600376 29.463345 127.880261
v    270.004648 35.857358 135.021858
v    271.654052 37.152452 136.544220
v    278.873417 43.057711 139.917431
v    286.399358 47.621066 143.014340
v    264.227691 16.352369 119.465902
v    269.336111 23.025538 127.880261
v    275.388853 30.711301 135.021858
v    276.608056 32.417568 136.544220
v    282.180903 39.896518 139.917431
v    286.399358 47.621066 143.014340
v    260.230481 20.234901 124.901960
v    259.681329 20.082152 124.901960
v    260.088189 19.682947 124.901960
v    259.769519 19.765099 128.649000
v    260.318671 19.917848 128.649000
v    259.911811 20.317053 128.649000
v    261.417625 15.581056 123.331352
v    260.199697 16.534557 136.629025
v    257.169302 17.115024 146.644761
v    255.554932 21.333451 123.331352
v    256.531390 20.133850 136.629025
v    257.169302 17.115024 146.644761
v    262.449303 21.564796 1.089005
v    262.884762 21.735842 1.408614
v    263.005958 21.781479 1.495786
v    264.138488 22.223574 1.885477
v    264.810628 22.464714 1.877342
v    265.241600 22.553355 1.821596
v    262.741954 20.964035 1.089005
v    263.145065 21.201484 1.408614
v    263.255709 21.268783 1.495786
v    264.301940 21.888035 1.885477
v    264.906141 22.268643 1.877342
v    265.241600 22.553355 1.821596
v    256.469105 16.733912 2.665270
v    255.815243 16.292079 2.918217
v    255.594112 16.141403 2.915160
v    254.862945 15.682692 2.905333
v    254.368704 15.459353 2.824831
v    254.285900 15.422701 2.797899
v    256.042004 17.267086 2.665270
v    255.468111 16.725424 2.918217
v    255.272804 16.542510 2.915160
v    254.665568 15.929089 2.905333
v    254.339741 15.495509 2.824831
v    254.285900 15.422701 2.797899
v    265.365311 22.495921 4.087703
v    265.592308 22.563525 4.163621
v    266.252573 22.731950 4.381158
v    266.744145 22.860354 4.375374
v    267.649680 22.972175 4.365236
v    265.643005 21.781204 4.087703
v    265.856098 21.884592 4.163621
v    266.456875 22.206126 4.381158
v    266.906189 22.443290 4.375374
v    267.649680 22.972175 4.365236
v    251.582129 17.604073 7.061447
v    250.861461 17.519219 7.053186
v    249.595522 17.538761 7.039119
v    251.400838 18.370449 7.061447
v    250.718534 18.123422 7.053186
v    249.595522 17.538761 7.039119
v    267.922389 29.729599 9.987907
v    268.103669 29.893958 9.985121
v    269.023296 30.528307 9.972708
v    269.513346 30.863507 9.867536
v    268.599261 29.136851 9.987907
v    268.738265 29.338233 9.985121
v    269.245732 30.333516 9.972708
v    269.513346 30.863507 9.867536
v    247.703970 11.620524 16.822252
v    245.978755 11.047835 16.802055
v    247.224259 12.371866 16.822252
v    245.978755 11.047835 16.802055
v    278.338675 33.623497 26.438622
v    279.584244 34.110493 26.201718
v    278.728007 33.083135 26.438622
v    279.584244 34.110493 26.201718
v    236.542858 4.436461 39.583054
v    235.628769 4.127829 39.412153
v    236.280656 4.839064 39.583054
v    235.628769 4.127829 39.412153
v    293.641028 38.820137 58.394876
v    294.176387 38.955541 58.230634
v    293.778053 38.573084 58.394876
v    294.176387 38.955541 58.230634
v    214.385629 7.792712 81.736161
v    214.107625 7.792346 81.653476
v    214.349068 7.930156 81.736161
v    214.107625 7.792346 81.653476
v    303.640731 38.142904 105.651287
v    303.742038 38.157774 105.650150
v    303.659982 38.096528 105.651287
v    303.742038 38.157774 105.650150
mtllib usm_32_2.5D_2018-08-08_6.mtl
usemtl APPID_3467394448_2121046702304 
o vid_3 
f 3 2 1
f 4 5 6
f 1 6 5
f 1 5 3
f 3 5 4
f 4 2 3
f 2 4 6
f 6 1 2
usemtl APPID_3467395792_2121046696928 
o vid_4 
f 7 9 10
f 7 10 8
f 7 9 10
f 7 10 8
usemtl APPID_3467394448_2121046702304 
o vid_5 
f 13 12 11
f 14 15 16
f 11 16 15
f 11 15 13
f 13 15 14
f 14 12 13
f 12 14 16
f 16 11 12
usemtl APPID_3467395792_2121046696928 
o vid_6 
f 17 21 22
f 18 22 23
f 17 22 18
f 18 23 19
f 19 23 24
f 19 24 20
usemtl APPID_3467394448_2121046702304 
o vid_7 
f 27 26 25
f 28 29 30
f 25 30 29
f 25 29 27
f 27 29 28
f 28 26 27
f 26 28 30
f 30 25 26
usemtl APPID_3467395792_2121046696928 
o vid_8 
f 31 35 36
f 32 36 37
f 31 36 32
f 32 37 33
f 33 37 38
f 33 38 34
usemtl APPID_3467394448_2121046702304 
o vid_9 
f 41 40 39
f 42 43 44
f 39 44 43
f 39 43 41
f 41 43 42
f 42 40 41
f 40 42 44
f 44 39 40
usemtl APPID_3467395792_2121046696928 
o vid_10 
f 45 52 53
f 46 53 54
f 47 54 55
f 48 55 56
f 49 56 57
f 45 53 46
f 46 54 47
f 47 55 48
f 48 56 49
f 49 57 50
f 50 57 58
f 50 58 51
usemtl APPID_3467394448_2121046702304 
o vid_11 
f 61 60 59
f 62 63 64
f 59 64 63
f 59 63 61
f 61 63 62
f 62 60 61
f 60 62 64
f 64 59 60
usemtl APPID_3467395792_2121046696928 
o vid_12 
f 65 71 72
f 66 72 73
f 67 73 74
f 68 74 75
f 65 72 66
f 66 73 67
f 67 74 68
f 68 75 69
f 69 75 76
f 69 76 70
usemtl APPID_3467394448_2121046702304 
o vid_13 
f 79 78 77
f 80 81 82
f 77 82 81
f 77 81 79
f 79 81 80
f 80 78 79
f 78 80 82
f 82 77 78
usemtl APPID_3467395792_2121046696928 
o vid_14 
f 83 90 91
f 84 91 92
f 85 92 93
f 86 93 94
f 87 94 95
f 83 91 84
f 84 92 85
f 85 93 86
f 86 94 87
f 87 95 88
f 88 95 96
f 88 96 89
usemtl APPID_3467394448_2121046702304 
o vid_15 
f 99 98 97
f 100 101 102
f 97 102 101
f 97 101 99
f 99 101 100
f 100 98 99
f 98 100 102
f 102 97 98
usemtl APPID_3467395792_2121046696928 
o vid_16 
f 103 110 111
f 104 111 112
f 105 112 113
f 106 113 114
f 107 114 115
f 103 111 104
f 104 112 105
f 105 113 106
f 106 114 107
f 107 115 108
f 108 115 116
f 108 116 109
usemtl APPID_3467394448_2121046702304 
o vid_17 
f 119 118 117
f 120 121 122
f 117 122 121
f 117 121 119
f 119 121 120
f 120 118 119
f 118 120 122
f 122 117 118
usemtl APPID_3467395792_2121046696928 
o vid_18 
f 123 131 132
f 124 132 133
f 125 133 134
f 126 134 135
f 127 135 136
f 128 136 137
f 123 132 124
f 124 133 125
f 125 134 126
f 126 135 127
f 127 136 128
f 128 137 129
f 129 137 138
f 129 138 130
usemtl APPID_3467394448_2121046702304 
o vid_19 
f 141 140 139
f 142 143 144
f 139 144 143
f 139 143 141
f 141 143 142
f 142 140 141
f 140 142 144
f 144 139 140
usemtl APPID_3467395792_2121046696928 
o vid_20 
f 145 153 154
f 146 154 155
f 147 155 156
f 148 156 157
f 149 157 158
f 150 158 159
f 145 154 146
f 146 155 147
f 147 156 148
f 148 157 149
f 149 158 150
f 150 159 151
f 151 159 160
f 151 160 152
usemtl APPID_3467394448_2121046702304 
o vid_21 
f 163 162 161
f 164 165 166
f 161 166 165
f 161 165 163
f 163 165 164
f 164 162 163
f 162 164 166
f 166 161 162
usemtl APPID_3467395792_2121046696928 
o vid_22 
f 167 175 176
f 168 176 177
f 169 177 178
f 170 178 179
f 171 179 180
f 172 180 181
f 167 176 168
f 168 177 169
f 169 178 170
f 170 179 171
f 171 180 172
f 172 181 173
f 173 181 182
f 173 182 174
usemtl APPID_3467394448_2121046702304 
o vid_23 
f 185 184 183
f 186 187 188
f 183 188 187
f 183 187 185
f 185 187 186
f 186 184 185
f 184 186 188
f 188 183 184
usemtl APPID_3467395792_2121046696928 
o vid_24 
f 189 197 198
f 190 198 199
f 191 199 200
f 192 200 201
f 193 201 202
f 194 202 203
f 189 198 190
f 190 199 191
f 191 200 192
f 192 201 193
f 193 202 194
f 194 203 195
f 195 203 204
f 195 204 196
usemtl APPID_3467394448_2121046702304 
o vid_25 
f 207 206 205
f 208 209 210
f 205 210 209
f 205 209 207
f 207 209 208
f 208 206 207
f 206 208 210
f 210 205 206
usemtl APPID_3467395792_2121046696928 
o vid_26 
f 211 217 218
f 212 218 219
f 213 219 220
f 214 220 221
f 211 218 212
f 212 219 213
f 213 220 214
f 214 221 215
f 215 221 222
usemtl APPID_3467394448_2121046702304 
o vid_27 
f 225 224 223
f 226 227 228
f 223 228 227
f 223 227 225
f 225 227 226
f 226 224 225
f 224 226 228
f 228 223 224
usemtl APPID_3467395792_2121046696928 
o vid_28 
f 229 235 236
f 230 236 237
f 231 237 238
f 232 238 239
f 229 236 230
f 230 237 231
f 231 238 232
f 232 239 233
f 233 239 240
usemtl APPID_3467394448_2121046702304 
o vid_29 
f 243 242 241
f 244 245 246
f 241 246 245
f 241 245 243
f 243 245 244
f 244 242 243
f 242 244 246
f 246 241 242
usemtl APPID_3467395792_2121046696928 
o vid_30 
f 247 250 251
f 247 251 248
f 248 251 252
usemtl APPID_3467396800_2121046700128 
o vid_10000004 
f 253 259 260
f 254 260 261
f 255 261 262
f 256 262 263
f 253 260 254
f 254 261 255
f 255 262 256
f 256 263 257
f 257 263 264
usemtl APPID_3467396800_2121046700128 
o vid_10000006 
f 265 271 272
f 266 272 273
f 267 273 274
f 268 274 275
f 265 272 266
f 266 273 267
f 267 274 268
f 268 275 269
f 269 275 276
usemtl APPID_3467396800_2121046700128 
o vid_10000008 
f 277 282 283
f 278 283 284
f 279 284 285
f 277 283 278
f 278 284 279
f 279 285 280
f 280 285 286
usemtl APPID_3467396800_2121046700128 
o vid_10000010 
f 287 290 291
f 287 291 288
f 288 291 292
usemtl APPID_3467396800_2121046700128 
o vid_10000012 
f 293 297 298
f 294 298 299
f 293 298 294
f 294 299 295
f 295 299 300
usemtl APPID_3467396800_2121046700128 
o vid_10000014 
f 301 303 304
f 301 304 302
f 301 303 304
usemtl APPID_3467396800_2121046700128 
o vid_10000016 
f 305 307 308
f 305 308 306
f 305 307 308
usemtl APPID_3467396800_2121046700128 
o vid_10000018 
f 309 311 312
f 309 312 310
f 309 311 312
usemtl APPID_3467396800_2121046700128 
o vid_10000020 
f 313 315 316
f 313 316 314
f 313 315 316
usemtl APPID_3467396800_2121046700128 
o vid_10000022 
f 317 319 320
f 317 320 318
f 317 319 320
usemtl APPID_3467396800_2121046700128 
o vid_10000024 
f 321 323 324
f 321 324 322
f 321 323 324
