# File generated by PlantGL - Fri Sep  4 14:43:38 2026
v    58.201987 19.124129 0.000000
v    61.657533 18.880811 0.000000
v    60.140480 21.995060 0.000000
v    61.798013 20.875871 0.331061
v    58.342467 21.119189 0.331061
v    59.859520 18.004940 0.331061
v    61.382963 21.452807 -0.085431
v    62.235815 21.776765 0.779005
v    62.583846 21.899311 1.127740
v    63.013085 22.058402 1.414687
v    61.996453 20.193417 -0.085431
v    62.777261 20.665268 0.779005
v    63.088291 20.863772 1.127740
v    63.478155 21.103693 1.414687
v    61.503548 21.204422 0.331061
v    58.205166 20.699900 0.331061
v    60.291286 18.095678 0.331061
v    58.496452 18.795578 0.718770
v    61.794834 19.300100 0.718770
v    59.708714 21.904322 0.718770
v    59.284579 18.077173 0.145004
v    57.814145 17.103036 1.816286
v    57.356610 16.791345 2.163953
v    56.086034 15.964305 3.114250
v    55.249451 15.404821 3.368200
v    55.054528 15.281707 3.426222
v    57.967383 19.721502 0.145004
v    56.695796 18.499134 1.816286
v    56.291758 18.120659 2.163953
v    55.207343 17.061226 3.114250
v    54.478754 16.366925 3.368200
v    54.316065 16.203572 3.426222
v    58.272844 19.328938 0.718770
v    61.444735 18.839770 0.718770
v    60.282421 21.831292 0.718770
v    61.727156 20.671062 1.487000
v    58.555265 21.160230 1.487000
v    59.717579 18.168708 1.487000
v    60.991235 21.948649 0.715108
v    63.271528 22.605103 2.963498
v    64.482466 22.970721 3.757864
v    65.944975 23.378981 4.709659
v    67.816774 23.926686 5.201771
v    69.670785 24.416982 5.684418
v    62.046846 19.231755 0.715108
v    64.172178 20.287044 2.963498
v    65.312309 20.834901 3.757864
v    66.666809 21.521149 4.709659
v    68.417381 22.380866 5.201771
v    70.116071 23.270921 5.684418
v    61.731622 20.409625 1.487000
v    58.779443 21.294816 1.487000
v    59.488935 18.295559 1.487000
v    58.268378 19.590375 2.857581
v    61.220557 18.705184 2.857581
v    60.511065 21.704441 2.857581
v    59.005751 17.747463 1.843500
v    55.919704 17.306264 4.797346
v    53.657566 16.952967 6.235172
v    52.303862 16.770584 7.091382
v    49.057052 16.291948 7.919498
v    46.420204 15.973372 8.587951
v    45.554882 15.922376 8.406738
v    58.101902 21.568335 1.843500
v    55.145259 20.580101 4.797346
v    52.964585 19.882426 6.235172
v    51.672641 19.438966 7.091382
v    48.555500 18.412172 7.919498
v    46.055388 17.515570 8.587951
v    45.258930 17.173462 8.406738
v    58.876148 18.716648 2.857581
v    61.673341 19.668392 2.857581
v    59.450510 21.614960 2.857581
v    61.123852 21.283352 4.464214
v    58.326659 20.331608 4.464214
v    60.549490 18.385040 4.464214
v    58.815942 22.804201 3.163197
v    59.646509 23.596021 4.250535
v    61.711195 25.563436 6.952838
v    65.062004 28.840041 9.895977
v    65.950158 29.725727 10.212918
v    70.431460 34.033338 11.781368
v    73.354958 36.705308 11.009619
v    74.729246 37.692287 10.659870
v    62.935911 19.196279 3.163197
v    63.611223 20.124058 4.250535
v    65.289024 22.430274 6.952838
v    68.094879 26.184104 9.895977
v    68.855639 27.181352 10.212918
v    72.534329 32.191822 11.781368
v    74.797214 35.442301 11.009619
v    75.594241 36.934797 10.659870
v    61.375838 20.878433 4.464214
v    58.551335 20.752294 4.464214
v    60.072827 18.369272 4.464214
v    58.624162 19.121567 10.752587
v    61.448665 19.247706 10.752587
v    59.927173 21.630728 10.752587
v    60.969354 16.324565 9.122588
v    57.827847 14.696297 12.475396
v    56.520475 14.019074 13.870500
v    51.342120 11.251216 17.557858
v    47.502097 9.150045 18.663933
v    42.939678 6.761415 19.963392
v    40.582603 5.525066 19.400536
v    36.128725 3.334029 18.353553
v    33.013709 2.233931 17.670674
v    57.073753 22.426014 9.122588
v    54.274689 20.261398 12.475396
v    53.110190 19.360401 13.870500
v    48.420220 15.827615 17.557858
v    44.898219 13.228345 18.663933
v    40.811458 10.094720 19.963392
v    38.698021 8.476774 19.400536
v    34.836181 5.358463 18.353553
v    32.527394 2.995617 17.670674
v    58.735263 19.088754 10.752587
v    61.421531 19.360328 10.752587
v    59.843206 21.550918 10.752587
v    61.264737 20.911246 22.165711
v    58.578469 20.639672 22.165711
v    60.156794 18.449082 22.165711
v    58.036498 24.404995 20.171430
v    59.754001 25.647294 22.188112
v    62.879298 27.687342 25.735164
v    68.060531 30.840163 29.626788
v    79.125116 37.712088 33.434997
v    82.049049 39.534697 32.705375
v    88.068610 43.136473 31.221955
v    90.299152 44.471107 30.672275
v    94.460556 46.740169 27.997153
v    98.686880 48.261260 24.098361
v    63.556930 16.743073 20.171430
v    65.279018 17.979008 22.188112
v    68.203468 20.297817 25.735164
v    72.834271 24.214591 29.626788
v    82.855295 32.534897 33.434997
v    85.509746 34.731526 32.705375
v    90.831787 39.301402 31.221955
v    92.803864 40.994765 30.672275
v    96.273530 44.223906 27.997153
v    99.054237 47.751398 24.098361
v    61.244614 20.810576 22.165711
v    58.675713 20.672580 22.165711
v    60.079672 18.516844 22.165711
v    58.755386 19.189424 39.904430
v    61.324287 19.327420 39.904430
v    59.920328 21.483156 39.904430
v    62.370337 14.901698 37.521675
v    60.033217 13.528507 40.097887
v    58.302209 12.611372 41.954095
v    55.963240 11.372122 44.462237
v    53.676326 10.122439 46.098864
v    48.430619 7.257334 49.852466
v    37.731553 1.276788 52.949653
v    27.620295 -4.142461 51.294310
v    22.134862 -6.902807 49.999025
v    17.008142 -8.731066 46.871803
v    15.845654 -9.064776 45.827864
v    56.295508 24.229412 37.521675
v    54.094571 22.647116 40.097887
v    52.555824 21.434770 41.954095
v    50.476642 19.796625 44.462237
v    48.408967 18.210309 46.098864
v    43.667434 14.571058 49.852466
v    33.871449 7.203859 52.949653
v    24.826508 0.147314 51.294310
v    20.083857 -3.753552 49.999025
v    16.338742 -7.703223 46.871803
v    15.563479 -8.631506 45.827864
v    58.765415 19.315252 39.904430
v    61.210302 19.273192 39.904430
v    60.024283 21.411556 39.904430
v    61.234585 20.684748 66.592971
v    58.789698 20.726808 66.592971
v    59.975717 18.588444 66.592971
v    57.870570 25.092018 63.812830
v    65.687802 28.546617 71.910908
v    72.616210 31.716073 76.695546
v    74.819404 32.668505 78.200096
v    84.437713 36.969256 80.858638
v    89.736228 39.174203 82.302995
v    92.205323 40.204606 81.738656
v    99.848065 42.382928 80.095910
v    63.192120 15.497391 63.812830
v    70.261869 20.299685 71.910908
v    76.619101 24.498957 76.695546
v    78.593636 25.863655 78.200096
v    87.334844 31.745799 80.858638
v    92.010854 35.073108 82.302995
v    94.192325 36.622088 81.738656
v    100.086998 41.952138 80.095910
v    61.293262 20.344016 66.592971
v    59.055443 20.947990 66.592971
v    59.651295 18.707994 66.592971
v    58.706738 19.655984 106.256849
v    60.944557 19.052010 106.256849
v    60.348705 21.292006 106.256849
v    61.110255 14.184767 103.089119
v    51.512093 12.540108 112.316183
v    47.370087 11.775143 114.961319
v    40.251848 10.614554 119.482173
v    33.474574 9.422822 121.218507
v    24.018571 8.013662 123.624620
v    14.654516 7.725331 122.666929
v    58.074188 25.598290 103.089119
v    48.927424 22.256683 112.316183
v    44.952776 20.862568 114.961319
v    38.198685 18.333032 119.482173
v    31.725022 15.999933 121.218507
v    22.818638 12.524585 123.624620
v    14.548938 8.122229 122.666929
v    58.831935 19.515124 106.256849
v    61.003948 19.230864 106.256849
v    60.164118 21.254012 106.256849
v    61.168065 20.484876 147.748111
v    58.996052 20.769136 147.748111
v    59.835882 18.745988 147.748111
v    57.566507 26.501759 144.223395
v    67.907789 29.736782 154.490297
v    76.878525 32.670866 160.417525
v    80.001966 33.620319 162.463853
v    92.491480 37.587225 165.770453
v    99.725391 39.678437 167.665589
v    102.736803 40.552259 167.004189
v    113.369463 42.319719 164.776155
v    62.886365 13.686233 144.223395
v    72.478560 18.725803 154.490297
v    80.889997 23.007239 160.417525
v    83.767612 24.548887 162.463853
v    95.394821 30.593083 165.770453
v    101.983106 34.239608 167.665589
v    104.728065 35.755315 167.004189
v    113.486669 42.037370 164.776155
v    60.919824 20.756852 147.748111
v    58.884635 20.418165 147.748111
v    60.195542 18.824983 147.748111
v    59.080176 19.243148 182.880813
v    61.115365 19.581835 182.880813
v    59.804458 21.175017 182.880813
v    64.678710 14.182656 179.050853
v    54.949533 7.551944 190.206879
v    47.332618 2.215350 196.047431
v    43.590050 -0.291267 198.870953
v    32.761126 -7.740833 202.187525
v    24.980414 -12.799144 204.523165
v    12.379881 -19.339578 201.576075
v    55.192567 25.711428 179.050853
v    46.812340 17.441301 190.206879
v    40.108783 10.994677 196.047431
v    36.928347 7.804885 198.870953
v    27.532806 -1.386710 202.187525
v    21.070779 -8.047656 204.523165
v    12.226177 -19.152777 201.576075
v    59.227775 19.192038 182.880813
v    61.085829 19.735214 182.880813
v    59.686397 21.072748 182.880813
v    60.772225 20.807962 211.303238
v    58.914171 20.264786 211.303238
v    60.313603 18.927252 211.303238
v    54.493256 25.183095 207.239192
v    63.904598 33.399719 219.077071
v    67.794102 36.885068 222.356845
v    74.951047 43.032271 228.270691
v    81.420145 48.730043 230.445898
v    90.833224 56.593757 233.532824
v    101.591164 63.623624 232.228586
v    65.426746 14.733204 207.239192
v    73.209499 24.506383 219.077071
v    76.515447 28.549477 222.356845
v    82.332812 35.977008 228.270691
v    87.732302 42.697079 230.445898
v    95.162428 52.456038 233.532824
v    101.698761 63.520786 232.228586
v    60.715447 20.729165 211.303238
v    59.010801 20.255012 211.303238
v    60.273752 19.015822 211.303238
v    59.284553 19.270835 228.584330
v    60.989199 19.744988 228.584330
v    59.726248 20.984178 228.584330
v    65.627410 14.753886 224.373019
v    55.764209 6.368165 236.639854
v    53.101951 4.044768 238.858879
v    44.159257 -3.434679 246.166612
v    39.013445 -7.848456 247.877256
v    29.153241 -15.868487 251.076040
v    24.678398 -18.699895 252.381616
v    17.748782 -23.104041 250.684378
v    54.647963 25.526768 224.373019
v    46.451064 15.506094 236.639854
v    44.178644 12.800193 238.858879
v    36.870375 3.717072 246.166612
v    32.555117 -1.511633 247.877256
v    24.723785 -11.522366 251.076040
v    21.977868 -16.050172 252.381616
v    17.706115 -23.062176 250.684378
v    59.465375 19.407636 228.584330
v    60.780315 19.833183 228.584330
v    59.754311 20.759181 228.584330
v    60.534625 20.592364 239.303904
v    59.219685 20.166817 239.303904
v    60.245689 19.240819 239.303904
v    53.772790 25.034635 235.042329
v    63.391356 33.929072 247.455576
v    67.987010 38.290262 251.434293
v    74.667919 44.368788 257.096042
v    81.998216 51.206751 259.625511
v    91.629176 59.731328 262.862474
v    102.983253 67.625348 260.964995
v    65.644675 14.319916 235.042329
v    73.509558 24.797103 247.455576
v    77.378254 29.814394 251.434293
v    82.742188 37.081526 257.096042
v    88.795218 45.072260 259.625511
v    96.290912 55.523977 262.862474
v    102.983253 67.625348 260.964995
v    60.586324 20.114141 239.303904
v    59.607989 20.450701 239.303904
v    59.805687 19.435158 239.303904
v    59.413676 19.885859 244.835346
v    60.392011 19.549299 244.835346
v    60.194313 20.564842 244.835346
v    62.095239 12.485960 240.624035
v    49.216347 11.167923 252.890870
v    44.613574 10.636680 255.800565
v    34.103714 9.646843 262.417628
v    26.108802 8.793400 264.446431
v    13.439656 7.774937 267.645215
v    9.437683 7.929013 268.632632
v    -0.200014 8.280685 266.639100
v    59.123491 27.751293 240.624035
v    46.690679 24.141827 252.890870
v    42.224750 22.907638 255.800565
v    32.111083 19.882632 262.417628
v    24.379868 17.674623 264.446431
v    12.253863 13.866140 267.645215
v    8.601943 12.222059 268.632632
v    -0.200014 8.280685 266.639100
v    59.676255 19.732921 244.835346
v    60.393170 19.853168 244.835346
v    59.930575 20.413911 244.835346
v    60.323745 20.267079 247.321736
v    59.606830 20.146832 247.321736
v    60.069425 19.586089 247.321736
v    55.369215 24.425542 243.257690
v    58.378327 26.481973 246.711119
v    65.822687 31.306639 255.095569
v    71.322604 35.000443 259.248452
v    78.152321 39.297325 264.289189
v    80.698290 40.957114 265.054082
v    92.435211 46.758014 268.281963
v    63.464689 14.612466 243.257690
v    66.055576 17.175856 246.711119
v    72.207246 23.567480 255.095569
v    76.879086 28.265052 259.248452
v    82.395767 34.153554 264.289189
v    84.509214 36.337634 265.054082
v    92.435211 46.758014 268.281963
v    60.211932 20.159146 247.321736
v    59.756210 20.103965 247.321736
v    60.031859 19.736889 247.321736
v    59.788068 19.840854 247.966000
v    60.243790 19.896035 247.966000
v    59.968141 20.263111 247.966000
v    62.863238 17.417139 240.150437
v    58.884896 15.633800 247.886043
v    55.044562 14.845505 254.333885
v    51.760771 13.812912 258.179764
v    58.318028 23.469909 240.150437
v    55.496041 20.146674 247.886043
v    53.668112 16.678497 254.333885
v    51.760771 13.812912 258.179764
v    63.013085 22.058402 1.414687
v    63.810978 22.354128 1.948078
v    63.995804 22.416425 2.069923
v    64.970165 22.762462 2.330150
v    66.278792 23.058605 2.660950
v    63.478155 21.103693 1.414687
v    64.202855 21.549672 1.948078
v    64.365839 21.656806 2.069923
v    65.238934 22.210725 2.330150
v    66.278792 23.058605 2.660950
v    55.054528 15.281707 3.426222
v    53.785363 14.480102 3.804015
v    53.210520 14.206216 3.961007
v    52.108342 13.678361 3.708395
v    54.316065 16.203572 3.426222
v    53.256779 15.139963 3.804015
v    52.864032 14.638758 3.961007
v    52.108342 13.678361 3.708395
v    69.670785 24.416982 5.684418
v    70.068973 24.522283 5.788077
v    70.312893 24.556616 5.848808
v    72.549817 24.876054 5.381723
v    70.116071 23.270921 5.684418
v    70.480900 23.462079 5.788077
v    70.684015 23.601436 5.848808
v    72.549817 24.876054 5.381723
v    45.554882 15.922376 8.406738
v    42.720051 15.912328 7.820747
v    45.258930 17.173462 8.406738
v    42.720051 15.912328 7.820747
v    74.729246 37.692287 10.659870
v    76.788543 39.171222 10.135791
v    75.594241 36.934797 10.659870
v    76.788543 39.171222 10.135791
v    33.013709 2.233931 17.670674
v    31.324787 1.691695 16.679759
v    32.527394 2.995617 17.670674
v    31.324787 1.691695 16.679759
v    98.686880 48.261260 24.098361
v    99.701396 48.604949 23.173786
v    99.054237 47.751398 24.098361
v    99.701396 48.604949 23.173786
v    15.845654 -9.064776 45.827864
v    14.998536 -9.307955 45.067135
v    15.563479 -8.631506 45.827864
v    14.998536 -9.307955 45.067135
v    99.848065 42.382928 80.095910
v    100.892705 42.680670 79.871373
v    100.086998 41.952138 80.095910
v    100.892705 42.680670 79.871373
v    14.654516 7.725331 122.666929
v    13.749341 7.697040 122.479729
v    14.548938 8.122229 122.666929
v    13.749341 7.697040 122.479729
v    113.369463 42.319719 164.776155
v    114.034443 42.430258 164.636811
v    113.486669 42.037370 164.776155
v    114.034443 42.430258 164.636811
v    12.379881 -19.339578 201.576075
v    11.901852 -19.576276 201.465811
v    12.226177 -19.152777 201.576075
v    11.901852 -19.576276 201.465811
v    101.591164 63.623624 232.228586
v    101.865818 63.803282 232.160745
v    101.698761 63.520786 232.228586
v    101.865818 63.803282 232.160745
v    17.748782 -23.104041 250.684378
v    17.637539 -23.174742 250.657132
v    17.706115 -23.062176 250.684378
v    17.637539 -23.174742 250.657132
mtllib usm_39_2.5D_2018-10-04_1.mtl
usemtl APPID_2856259424_2442503551072 
o vid_3 
f 3 2 1
f 4 5 6
f 1 6 5
f 1 5 3
f 3 5 4
f 4 2 3
f 2 4 6
f 6 1 2
usemtl APPID_2856257072_2442503550688 
o vid_4 
f 7 11 12
f 8 12 13
f 7 12 8
f 8 13 9
f 9 13 14
f 9 14 10
usemtl APPID_2856259424_2442503551072 
o vid_5 
f 17 16 15
f 18 19 20
f 15 20 19
f 15 19 17
f 17 19 18
f 18 16 17
f 16 18 20
f 20 15 16
usemtl APPID_2856257072_2442503550688 
o vid_6 
f 21 27 28
f 22 28 29
f 23 29 30
f 24 30 31
f 21 28 22
f 22 29 23
f 23 30 24
f 24 31 25
f 25 31 32
f 25 32 26
usemtl APPID_2856259424_2442503551072 
o vid_7 
f 35 34 33
f 36 37 38
f 33 38 37
f 33 37 35
f 35 37 36
f 36 34 35
f 34 36 38
f 38 33 34
usemtl APPID_2856257072_2442503550688 
o vid_8 
f 39 45 46
f 40 46 47
f 41 47 48
f 42 48 49
f 39 46 40
f 40 47 41
f 41 48 42
f 42 49 43
f 43 49 50
f 43 50 44
usemtl APPID_2856259424_2442503551072 
o vid_9 
f 53 52 51
f 54 55 56
f 51 56 55
f 51 55 53
f 53 55 54
f 54 52 53
f 52 54 56
f 56 51 52
usemtl APPID_2856257072_2442503550688 
o vid_10 
f 57 64 65
f 58 65 66
f 59 66 67
f 60 67 68
f 61 68 69
f 57 65 58
f 58 66 59
f 59 67 60
f 60 68 61
f 61 69 62
f 62 69 70
f 62 70 63
usemtl APPID_2856259424_2442503551072 
o vid_11 
f 73 72 71
f 74 75 76
f 71 76 75
f 71 75 73
f 73 75 74
f 74 72 73
f 72 74 76
f 76 71 72
usemtl APPID_2856257072_2442503550688 
o vid_12 
f 77 85 86
f 78 86 87
f 79 87 88
f 80 88 89
f 81 89 90
f 82 90 91
f 77 86 78
f 78 87 79
f 79 88 80
f 80 89 81
f 81 90 82
f 82 91 83
f 83 91 92
f 83 92 84
usemtl APPID_2856259424_2442503551072 
o vid_13 
f 95 94 93
f 96 97 98
f 93 98 97
f 93 97 95
f 95 97 96
f 96 94 95
f 94 96 98
f 98 93 94
usemtl APPID_2856257072_2442503550688 
o vid_14 
f 99 108 109
f 100 109 110
f 101 110 111
f 102 111 112
f 103 112 113
f 104 113 114
f 105 114 115
f 99 109 100
f 100 110 101
f 101 111 102
f 102 112 103
f 103 113 104
f 104 114 105
f 105 115 106
f 106 115 116
f 106 116 107
usemtl APPID_2856259424_2442503551072 
o vid_15 
f 119 118 117
f 120 121 122
f 117 122 121
f 117 121 119
f 119 121 120
f 120 118 119
f 118 120 122
f 122 117 118
usemtl APPID_2856257072_2442503550688 
o vid_16 
f 123 133 134
f 124 134 135
f 125 135 136
f 126 136 137
f 127 137 138
f 128 138 139
f 129 139 140
f 130 140 141
f 123 134 124
f 124 135 125
f 125 136 126
f 126 137 127
f 127 138 128
f 128 139 129
f 129 140 130
f 130 141 131
f 131 141 142
f 131 142 132
usemtl APPID_2856259424_2442503551072 
o vid_17 
f 145 144 143
f 146 147 148
f 143 148 147
f 143 147 145
f 145 147 146
f 146 144 145
f 144 146 148
f 148 143 144
usemtl APPID_2856257072_2442503550688 
o vid_18 
f 149 160 161
f 150 161 162
f 151 162 163
f 152 163 164
f 153 164 165
f 154 165 166
f 155 166 167
f 156 167 168
f 157 168 169
f 149 161 150
f 150 162 151
f 151 163 152
f 152 164 153
f 153 165 154
f 154 166 155
f 155 167 156
f 156 168 157
f 157 169 158
f 158 169 170
f 158 170 159
usemtl APPID_2856259424_2442503551072 
o vid_19 
f 173 172 171
f 174 175 176
f 171 176 175
f 171 175 173
f 173 175 174
f 174 172 173
f 172 174 176
f 176 171 172
usemtl APPID_2856257072_2442503550688 
o vid_20 
f 177 185 186
f 178 186 187
f 179 187 188
f 180 188 189
f 181 189 190
f 182 190 191
f 177 186 178
f 178 187 179
f 179 188 180
f 180 189 181
f 181 190 182
f 182 191 183
f 183 191 192
f 183 192 184
usemtl APPID_2856259424_2442503551072 
o vid_21 
f 195 194 193
f 196 197 198
f 193 198 197
f 193 197 195
f 195 197 196
f 196 194 195
f 194 196 198
f 198 193 194
usemtl APPID_2856257072_2442503550688 
o vid_22 
f 199 206 207
f 200 207 208
f 201 208 209
f 202 209 210
f 203 210 211
f 199 207 200
f 200 208 201
f 201 209 202
f 202 210 203
f 203 211 204
f 204 211 212
f 204 212 205
usemtl APPID_2856259424_2442503551072 
o vid_23 
f 215 214 213
f 216 217 218
f 213 218 217
f 213 217 215
f 215 217 216
f 216 214 215
f 214 216 218
f 218 213 214
usemtl APPID_2856257072_2442503550688 
o vid_24 
f 219 227 228
f 220 228 229
f 221 229 230
f 222 230 231
f 223 231 232
f 224 232 233
f 219 228 220
f 220 229 221
f 221 230 222
f 222 231 223
f 223 232 224
f 224 233 225
f 225 233 234
f 225 234 226
usemtl APPID_2856259424_2442503551072 
o vid_25 
f 237 236 235
f 238 239 240
f 235 240 239
f 235 239 237
f 237 239 238
f 238 236 237
f 236 238 240
f 240 235 236
usemtl APPID_2856257072_2442503550688 
o vid_26 
f 241 248 249
f 242 249 250
f 243 250 251
f 244 251 252
f 245 252 253
f 241 249 242
f 242 250 243
f 243 251 244
f 244 252 245
f 245 253 246
f 246 253 254
f 246 254 247
usemtl APPID_2856259424_2442503551072 
o vid_27 
f 257 256 255
f 258 259 260
f 255 260 259
f 255 259 257
f 257 259 258
f 258 256 257
f 256 258 260
f 260 255 256
usemtl APPID_2856257072_2442503550688 
o vid_28 
f 261 268 269
f 262 269 270
f 263 270 271
f 264 271 272
f 265 272 273
f 261 269 262
f 262 270 263
f 263 271 264
f 264 272 265
f 265 273 266
f 266 273 274
f 266 274 267
usemtl APPID_2856259424_2442503551072 
o vid_29 
f 277 276 275
f 278 279 280
f 275 280 279
f 275 279 277
f 277 279 278
f 278 276 277
f 276 278 280
f 280 275 276
usemtl APPID_2856257072_2442503550688 
o vid_30 
f 281 289 290
f 282 290 291
f 283 291 292
f 284 292 293
f 285 293 294
f 286 294 295
f 281 290 282
f 282 291 283
f 283 292 284
f 284 293 285
f 285 294 286
f 286 295 287
f 287 295 296
f 287 296 288
usemtl APPID_2856259424_2442503551072 
o vid_31 
f 299 298 297
f 300 301 302
f 297 302 301
f 297 301 299
f 299 301 300
f 300 298 299
f 298 300 302
f 302 297 298
usemtl APPID_2856257072_2442503550688 
o vid_32 
f 303 310 311
f 304 311 312
f 305 312 313
f 306 313 314
f 307 314 315
f 303 311 304
f 304 312 305
f 305 313 306
f 306 314 307
f 307 315 308
f 308 315 316
usemtl APPID_2856259424_2442503551072 
o vid_33 
f 319 318 317
f 320 321 322
f 317 322 321
f 317 321 319
f 319 321 320
f 320 318 319
f 318 320 322
f 322 317 318
usemtl APPID_2856257072_2442503550688 
o vid_34 
f 323 331 332
f 324 332 333
f 325 333 334
f 326 334 335
f 327 335 336
f 328 336 337
f 323 332 324
f 324 333 325
f 325 334 326
f 326 335 327
f 327 336 328
f 328 337 329
f 329 337 338
usemtl APPID_2856259424_2442503551072 
o vid_35 
f 341 340 339
f 342 343 344
f 339 344 343
f 339 343 341
f 341 343 342
f 342 340 341
f 340 342 344
f 344 339 340
usemtl APPID_2856257072_2442503550688 
o vid_36 
f 345 352 353
f 346 353 354
f 347 354 355
f 348 355 356
f 349 356 357
f 345 353 346
f 346 354 347
f 347 355 348
f 348 356 349
f 349 357 350
f 350 357 358
usemtl APPID_2856259424_2442503551072 
o vid_37 
f 361 360 359
f 362 363 364
f 359 364 363
f 359 363 361
f 361 363 362
f 362 360 361
f 360 362 364
f 364 359 360
usemtl APPID_2856257072_2442503550688 
o vid_38 
f 365 369 370
f 366 370 371
f 365 370 366
f 366 371 367
f 367 371 372
usemtl APPID_2963040880_2442503552352 
o vid_10000004 
f 373 378 379
f 374 379 380
f 375 380 381
f 373 379 374
f 374 380 375
f 375 381 376
f 376 381 382
usemtl APPID_2963040880_2442503552352 
o vid_10000006 
f 383 387 388
f 384 388 389
f 383 388 384
f 384 389 385
f 385 389 390
usemtl APPID_2963040880_2442503552352 
o vid_10000008 
f 391 395 396
f 392 396 397
f 391 396 392
f 392 397 393
f 393 397 398
usemtl APPID_2963040880_2442503552352 
o vid_10000010 
f 399 401 402
f 399 402 400
f 399 401 402
usemtl APPID_2963040880_2442503552352 
o vid_10000012 
f 403 405 406
f 403 406 404
f 403 405 406
usemtl APPID_2963040880_2442503552352 
o vid_10000014 
f 407 409 410
f 407 410 408
f 407 409 410
usemtl APPID_2963040880_2442503552352 
o vid_10000016 
f 411 413 414
f 411 414 412
f 411 413 414
usemtl APPID_2963040880_2442503552352 
o vid_10000018 
f 415 417 418
f 415 418 416
f 415 417 418
usemtl APPID_2963040880_2442503552352 
o vid_10000020 
f 419 421 422
f 419 422 420
f 419 421 422
usemtl APPID_2963040880_2442503552352 
o vid_10000022 
f 423 425 426
f 423 426 424
f 423 425 426
usemtl APPID_2963040880_2442503552352 
o vid_10000024 
f 427 429 430
f 427 430 428
f 427 429 430
usemtl APPID_2963040880_2442503552352 
o vid_10000026 
f 431 433 434
f 431 434 432
f 431 433 434
usemtl APPID_2963040880_2442503552352 
o vid_10000028 
f 435 437 438
f 435 438 436
f 435 437 438
usemtl APPID_2963040880_2442503552352 
o vid_10000030 
f 439 441 442
f 439 442 440
f 439 441 442
