# File generated by PlantGL - Fri Sep  4 14:43:33 2026
v    18.623817 179.329616 0.000000
v    21.268661 179.143383 0.000000
v    20.107522 181.527001 0.000000
v    21.376183 180.670384 0.331061
v    18.731339 180.856617 0.331061
v    19.892478 178.472999 0.331061
v    20.316832 180.878767 -2.645931
v    22.464599 181.200587 -0.674825
v    20.887256 179.707784 -2.645931
v    22.464599 181.200587 -0.674825
v    20.915873 180.733663 0.331061
v    18.906693 180.426338 0.331061
v    20.177434 178.840000 0.331061
v    19.084127 179.266337 0.771522
v    21.093307 179.573662 0.771522
v    19.822566 181.160000 0.771522
v    20.658685 178.678063 -2.205470
v    16.172167 176.933702 2.163509
v    18.853698 180.931330 -2.205470
v    16.172167 176.933702 2.163509
v    19.217787 179.696082 0.771522
v    20.654307 179.474542 0.771522
v    20.127906 180.829376 0.771522
v    20.782213 180.303918 1.261467
v    19.345693 180.525458 1.261467
v    19.872094 179.170624 1.261467
v    19.384558 181.523465 -1.715526
v    24.851242 181.884882 3.256950
v    20.574570 178.460654 -1.715526
v    24.851242 181.884882 3.256950
v    20.513670 180.121512 1.261467
v    19.637933 180.384095 1.261467
v    19.848397 179.494393 1.261467
v    19.486330 179.878488 1.413000
v    20.362067 179.615905 1.413000
v    20.151603 180.505607 1.413000
v    19.565935 179.278930 -4.522798
v    18.849301 179.727795 -1.948076
v    19.288872 180.450167 -4.522798
v    18.849301 179.727795 -1.948076
mtllib usm_13_2.5D_2018-07-24_4.mtl
usemtl APPID_96687232_1597823811296 
o vid_3 
f 3 2 1
f 4 5 6
f 1 6 5
f 1 5 3
f 3 5 4
f 4 2 3
f 2 4 6
f 6 1 2
usemtl APPID_96688128_1597823811680 
o vid_4 
f 7 9 10
f 7 10 8
f 7 9 10
usemtl APPID_96687232_1597823811296 
o vid_5 
f 13 12 11
f 14 15 16
f 11 16 15
f 11 15 13
f 13 15 14
f 14 12 13
f 12 14 16
f 16 11 12
usemtl APPID_96688128_1597823811680 
o vid_6 
f 17 19 20
f 17 20 18
f 17 19 20
usemtl APPID_96687232_1597823811296 
o vid_7 
f 23 22 21
f 24 25 26
f 21 26 25
f 21 25 23
f 23 25 24
f 24 22 23
f 22 24 26
f 26 21 22
usemtl APPID_96688128_1597823811680 
o vid_8 
f 27 29 30
f 27 30 28
f 27 29 30
usemtl APPID_96687232_1597823811296 
o vid_9 
f 33 32 31
f 34 35 36
f 31 36 35
f 31 35 33
f 33 35 34
f 34 32 33
f 32 34 36
f 36 31 32
usemtl APPID_96688128_1597823811680 
o vid_10 
f 37 39 40
f 37 40 38
f 37 39 40
