# File generated by PlantGL - Fri Sep  4 14:44:01 2026
v    98.201987 19.124129 0.000000
v    101.657533 18.880811 0.000000
v    100.140480 21.995060 0.000000
v    101.798013 20.875871 0.331061
v    98.342467 21.119189 0.331061
v    99.859520 18.004940 0.331061
v    101.399179 21.442027 -0.051354
v    102.498162 21.859479 1.062557
v    103.791042 22.341577 1.927651
v    104.161378 22.484100 2.027778
v    105.248981 22.870355 2.318249
v    105.936389 23.025916 2.492015
v    106.454734 23.144312 2.382108
v    101.997960 20.212831 -0.051354
v    103.004109 20.820858 1.062557
v    104.180683 21.541712 1.927651
v    104.521192 21.745464 2.027778
v    105.495760 22.363760 2.318249
v    106.041986 22.809143 2.492015
v    106.454734 23.144312 2.382108
v    101.503548 21.204422 0.331061
v    98.205166 20.699900 0.331061
v    100.291286 18.095678 0.331061
v    98.496452 18.795578 0.718770
v    101.794834 19.300100 0.718770
v    99.708714 21.904322 0.718770
v    99.260401 18.087603 0.187697
v    97.899380 17.185950 1.734622
v    96.886354 16.495836 2.504388
v    96.309267 16.120200 2.936006
v    94.855130 15.147711 3.377418
v    93.705068 14.421332 3.719757
v    91.941961 13.545081 3.311437
v    97.972285 19.695631 0.187697
v    96.795314 18.564218 1.734622
v    95.900736 17.726239 2.504388
v    95.408202 17.245051 2.936006
v    94.141779 16.038227 3.377418
v    93.181900 15.074431 3.719757
v    91.941961 13.545081 3.311437
v    98.272844 19.328938 0.718770
v    101.444735 18.839770 0.718770
v    100.282421 21.831292 0.718770
v    101.727156 20.671062 1.487000
v    98.555265 21.160230 1.487000
v    99.717579 18.168708 1.487000
v    101.016347 21.925626 0.767206
v    103.142736 22.537774 2.863844
v    105.111914 23.132326 4.155610
v    105.629036 23.276681 4.492151
v    108.339958 24.069920 5.204876
v    109.682658 24.424999 5.554415
v    110.446749 24.627883 5.387660
v    112.762049 24.958513 4.904210
v    102.049826 19.265693 0.767206
v    104.031713 20.249757 2.863844
v    105.885748 21.140660 4.155610
v    106.364680 21.383307 4.492151
v    108.900028 22.628432 5.204876
v    110.130242 23.273023 5.554415
v    110.830874 23.639236 5.387660
v    112.762049 24.958513 4.904210
v    101.731622 20.409625 1.487000
v    98.779443 21.294816 1.487000
v    99.488935 18.295559 1.487000
v    98.268378 19.590375 2.857581
v    101.220557 18.705184 2.857581
v    100.511065 21.704441 2.857581
v    98.979584 17.780244 1.905447
v    96.082051 17.365996 4.678853
v    92.909788 16.870557 6.695159
v    88.440346 16.214444 7.917225
v    87.175354 16.061611 8.237906
v    85.573418 15.866442 7.897510
v    82.479719 15.855476 7.258008
v    98.093195 21.527305 1.905447
v    95.317161 20.599438 4.678853
v    92.259139 19.621067 6.695159
v    87.969432 18.205152 7.917225
v    86.770037 17.775020 8.237906
v    85.250441 17.231773 7.897510
v    82.479719 15.855476 7.258008
v    98.876148 18.716648 2.857581
v    101.673341 19.668392 2.857581
v    99.450510 21.614960 2.857581
v    101.123852 21.283352 4.464214
v    98.326659 20.331608 4.464214
v    100.549490 18.385040 4.464214
v    98.864793 22.789032 3.235010
v    100.489833 24.338261 5.362431
v    101.600025 25.396149 6.815473
v    104.765878 28.491896 9.596159
v    106.703044 30.423675 10.287444
v    109.910941 33.507238 11.410204
v    110.945487 34.503221 11.106522
v    113.708389 37.028589 10.316978
v    116.243663 38.849358 9.671765
v    116.885353 39.281772 9.229854
v    102.914429 19.242702 3.235010
v    104.235706 21.057940 5.362431
v    105.137868 22.298004 6.815473
v    107.788848 25.844634 9.596159
v    109.448150 28.019743 10.287444
v    112.081505 31.606440 11.410204
v    112.932283 32.763352 11.106522
v    115.071037 35.835297 10.316978
v    116.541385 38.588638 9.671765
v    116.885353 39.281772 9.229854
v    101.227191 20.783527 4.464214
v    98.707851 20.671015 4.464214
v    100.064958 18.545458 4.464214
v    98.772809 19.216473 11.608452
v    101.292149 19.328985 11.608452
v    99.935042 21.454542 11.608452
v    101.106076 16.394486 10.059688
v    99.268580 15.337074 12.074546
v    97.819203 14.585850 13.621410
v    95.066207 13.128274 15.897928
v    92.009439 11.494416 18.074564
v    84.599450 7.439842 20.208929
v    77.992012 3.974584 18.909233
v    74.846569 2.427217 18.169826
v    71.535186 1.219646 16.137167
v    69.856213 0.754052 14.633253
v    97.194715 22.520618 10.059688
v    95.462246 21.298709 12.074546
v    94.170860 20.300034 13.621410
v    91.690129 18.416025 15.897928
v    88.921654 16.330631 18.074564
v    82.125343 11.314889 20.208929
v    76.201353 6.779187 18.909233
v    73.474023 4.576955 18.169826
v    70.985108 2.081202 16.137167
v    69.856213 0.754052 14.633253
v    99.069521 19.329588 11.608452
v    101.045833 19.529388 11.608452
v    99.884645 21.141024 11.608452
v    100.930479 20.670412 22.178673
v    98.954167 20.470612 22.178673
v    100.115355 18.858976 22.178673
v    97.848490 24.005598 20.274167
v    100.183433 25.694501 23.015843
v    102.655637 27.308241 25.821669
v    108.498503 30.899624 30.130010
v    117.941472 36.777921 32.940657
v    121.718470 39.132281 31.998166
v    125.472889 41.378720 31.072952
v    128.823892 43.383776 30.247153
v    132.556477 45.441353 27.747604
v    137.951254 47.496019 22.711251
v    138.233491 47.547320 22.235482
v    103.118558 16.691162 20.274167
v    105.459735 18.371414 23.015843
v    107.773063 20.205661 25.821669
v    113.029314 24.611218 30.130010
v    121.594485 31.707829 32.940657
v    125.023379 34.545330 31.998166
v    128.342753 37.395577 31.072952
v    131.305457 39.939561 30.247153
v    134.438770 42.828880 27.747604
v    138.095487 47.295836 22.711251
v    138.233491 47.547320 22.235482
v    100.721203 20.469695 22.178673
v    99.232630 20.389732 22.178673
v    100.046167 19.140572 22.178673
v    99.278797 19.530305 39.904756
v    100.767370 19.610268 39.904756
v    99.953833 20.859428 39.904756
v    102.786851 15.355263 37.619079
v    99.158886 13.223627 41.618191
v    96.679535 11.909999 44.276869
v    92.835040 9.809177 47.028178
v    89.454021 7.962529 49.447489
v    77.801570 1.449061 52.820665
v    67.595270 -4.034308 50.370395
v    64.282215 -5.701482 49.588078
v    61.702289 -6.951697 47.907916
v    55.926058 -8.703891 43.371684
v    96.878757 24.426959 37.619079
v    93.462192 21.970726 41.618191
v    91.258220 20.234262 44.276869
v    87.782282 17.567530 47.028178
v    84.726220 15.221922 49.447489
v    74.057322 7.198238 52.820665
v    64.915307 0.080693 50.370395
v    62.050873 -2.275325 49.588078
v    59.864232 -4.129416 47.907916
v    55.926058 -8.703891 43.371684
v    99.477513 19.710208 39.904756
v    100.512210 19.692409 39.904756
v    100.010277 20.597383 39.904756
v    100.522487 20.289792 56.975980
v    99.487790 20.307591 56.975980
v    99.989723 19.402617 56.975980
v    97.604814 23.953699 54.298767
v    104.154084 26.847959 61.083329
v    114.014050 31.091241 68.153387
v    121.750998 34.319518 70.263507
v    128.935693 36.351700 72.104388
v    130.058941 36.671847 71.862955
v    102.085751 15.874677 54.298767
v    108.008780 19.898035 61.083329
v    116.829191 26.015609 68.153387
v    123.664437 30.869633 70.263507
v    129.192605 35.888493 72.104388
v    130.058941 36.671847 71.862955
v    100.345248 20.091838 56.975980
v    99.747842 20.253074 56.975980
v    99.906910 19.655088 56.975980
v    99.654752 19.908162 60.134000
v    100.252158 19.746926 60.134000
v    100.093090 20.344912 60.134000
v    99.830243 17.342974 54.199648
v    99.564587 17.550903 56.659496
v    98.196929 19.520372 66.526761
v    98.532522 22.221511 54.199648
v    98.405287 21.909071 56.659496
v    98.196929 19.520372 66.526761
mtllib usm_35_2.5D_2018-08-25_2.mtl
usemtl APPID_929542304_1946549215312 
o vid_3 
f 3 2 1
f 4 5 6
f 1 6 5
f 1 5 3
f 3 5 4
f 4 2 3
f 2 4 6
f 6 1 2
usemtl APPID_929540848_1946549213648 
o vid_4 
f 7 14 15
f 8 15 16
f 9 16 17
f 10 17 18
f 11 18 19
f 7 15 8
f 8 16 9
f 9 17 10
f 10 18 11
f 11 19 12
f 12 19 20
usemtl APPID_929542304_1946549215312 
o vid_5 
f 23 22 21
f 24 25 26
f 21 26 25
f 21 25 23
f 23 25 24
f 24 22 23
f 22 24 26
f 26 21 22
usemtl APPID_929540848_1946549213648 
o vid_6 
f 27 34 35
f 28 35 36
f 29 36 37
f 30 37 38
f 31 38 39
f 27 35 28
f 28 36 29
f 29 37 30
f 30 38 31
f 31 39 32
f 32 39 40
usemtl APPID_929542304_1946549215312 
o vid_7 
f 43 42 41
f 44 45 46
f 41 46 45
f 41 45 43
f 43 45 44
f 44 42 43
f 42 44 46
f 46 41 42
usemtl APPID_929540848_1946549213648 
o vid_8 
f 47 55 56
f 48 56 57
f 49 57 58
f 50 58 59
f 51 59 60
f 52 60 61
f 47 56 48
f 48 57 49
f 49 58 50
f 50 59 51
f 51 60 52
f 52 61 53
f 53 61 62
usemtl APPID_929542304_1946549215312 
o vid_9 
f 65 64 63
f 66 67 68
f 63 68 67
f 63 67 65
f 65 67 66
f 66 64 65
f 64 66 68
f 68 63 64
usemtl APPID_929540848_1946549213648 
o vid_10 
f 69 76 77
f 70 77 78
f 71 78 79
f 72 79 80
f 73 80 81
f 69 77 70
f 70 78 71
f 71 79 72
f 72 80 73
f 73 81 74
f 74 81 82
usemtl APPID_929542304_1946549215312 
o vid_11 
f 85 84 83
f 86 87 88
f 83 88 87
f 83 87 85
f 85 87 86
f 86 84 85
f 84 86 88
f 88 83 84
usemtl APPID_929540848_1946549213648 
o vid_12 
f 89 99 100
f 90 100 101
f 91 101 102
f 92 102 103
f 93 103 104
f 94 104 105
f 95 105 106
f 96 106 107
f 89 100 90
f 90 101 91
f 91 102 92
f 92 103 93
f 93 104 94
f 94 105 95
f 95 106 96
f 96 107 97
f 97 107 108
usemtl APPID_929542304_1946549215312 
o vid_13 
f 111 110 109
f 112 113 114
f 109 114 113
f 109 113 111
f 111 113 112
f 112 110 111
f 110 112 114
f 114 109 110
usemtl APPID_929540848_1946549213648 
o vid_14 
f 115 125 126
f 116 126 127
f 117 127 128
f 118 128 129
f 119 129 130
f 120 130 131
f 121 131 132
f 122 132 133
f 115 126 116
f 116 127 117
f 117 128 118
f 118 129 119
f 119 130 120
f 120 131 121
f 121 132 122
f 122 133 123
f 123 133 134
usemtl APPID_929542304_1946549215312 
o vid_15 
f 137 136 135
f 138 139 140
f 135 140 139
f 135 139 137
f 137 139 138
f 138 136 137
f 136 138 140
f 140 135 136
usemtl APPID_929540848_1946549213648 
o vid_16 
f 141 152 153
f 142 153 154
f 143 154 155
f 144 155 156
f 145 156 157
f 146 157 158
f 147 158 159
f 148 159 160
f 149 160 161
f 141 153 142
f 142 154 143
f 143 155 144
f 144 156 145
f 145 157 146
f 146 158 147
f 147 159 148
f 148 160 149
f 149 161 150
f 150 161 162
usemtl APPID_929542304_1946549215312 
o vid_17 
f 165 164 163
f 166 167 168
f 163 168 167
f 163 167 165
f 165 167 166
f 166 164 165
f 164 166 168
f 168 163 164
usemtl APPID_929540848_1946549213648 
o vid_18 
f 169 179 180
f 170 180 181
f 171 181 182
f 172 182 183
f 173 183 184
f 174 184 185
f 175 185 186
f 176 186 187
f 169 180 170
f 170 181 171
f 171 182 172
f 172 183 173
f 173 184 174
f 174 185 175
f 175 186 176
f 176 187 177
f 177 187 188
usemtl APPID_929542304_1946549215312 
o vid_19 
f 191 190 189
f 192 193 194
f 189 194 193
f 189 193 191
f 191 193 192
f 192 190 191
f 190 192 194
f 194 189 190
usemtl APPID_929540848_1946549213648 
o vid_20 
f 195 201 202
f 196 202 203
f 197 203 204
f 198 204 205
f 195 202 196
f 196 203 197
f 197 204 198
f 198 205 199
f 199 205 206
usemtl APPID_929542304_1946549215312 
o vid_21 
f 209 208 207
f 210 211 212
f 207 212 211
f 207 211 209
f 209 211 210
f 210 208 209
f 208 210 212
f 212 207 208
usemtl APPID_929540848_1946549213648 
o vid_22 
f 213 216 217
f 213 217 214
f 214 217 218
