# File generated by PlantGL - Fri Sep  4 14:41:30 2026
v    7.752484 58.905161 0.000000
v    12.071916 58.601013 0.000000
v    10.175600 62.493825 0.000000
v    12.247516 61.094839 0.848018
v    7.928084 61.398987 0.848018
v    9.824400 57.506175 0.848018
v    12.059916 61.453095 0.684352
v    12.358747 61.567027 0.981539
v    12.506902 61.620744 1.127747
v    12.413971 60.726281 0.684352
v    12.687890 60.891355 0.981539
v    12.821513 60.974902 1.127747
v    11.879284 61.505407 0.848018
v    7.756638 60.874804 0.848018
v    10.364078 57.619789 0.848018
v    8.120716 58.494593 1.416666
v    12.243362 59.125196 1.416666
v    9.635922 62.380211 1.416666
v    8.495813 58.052715 1.187175
v    8.004513 57.726368 1.735257
v    7.881517 57.647547 1.870789
v    7.020988 57.081024 2.564288
v    6.550235 56.762923 2.746400
v    7.771360 58.957091 1.187175
v    7.345650 58.548865 1.735257
v    7.241884 58.446038 1.870789
v    6.501201 57.729904 2.564288
v    6.088022 57.339929 2.746400
v    7.841416 59.161313 1.416666
v    11.805616 58.549955 1.416666
v    10.352968 62.288732 1.416666
v    12.158584 60.838687 2.253758
v    8.194384 61.450045 2.253758
v    9.647032 57.711268 2.253758
v    11.870574 61.517333 1.938126
v    12.847772 61.784975 2.878342
v    14.210589 62.173054 3.832153
v    15.011735 62.411648 4.100093
v    15.196183 62.458698 4.160863
v    12.404313 60.143614 1.938126
v    13.305871 60.605936 2.878342
v    14.573205 61.239765 3.832153
v    15.325282 61.604654 4.100093
v    15.493111 61.694476 4.160863
v    12.163962 60.511898 2.253758
v    8.474702 61.618097 2.253758
v    9.361335 57.870005 2.253758
v    7.836038 59.488102 4.112055
v    11.525298 58.381903 4.112055
v    10.638665 62.129995 4.112055
v    8.105295 58.482778 3.686252
v    7.408232 58.382248 4.340699
v    6.751792 58.298552 4.954650
v    4.858666 58.033468 6.241387
v    3.075410 57.761851 6.819572
v    1.701801 57.608108 7.260830
v    7.626332 60.507514 3.686252
v    6.958107 60.285077 4.340699
v    6.333741 60.065791 4.954650
v    4.522492 59.454584 6.241387
v    2.806543 58.898444 6.819572
v    1.509634 58.420460 7.260830
v    8.595695 58.396392 4.112055
v    12.090917 59.585640 4.112055
v    9.313387 62.017967 4.112055
v    11.404305 61.603608 5.805095
v    7.909083 60.414360 5.805095
v    10.686613 57.982033 5.805095
v    10.349115 62.473837 5.241654
v    10.946302 63.044290 6.009087
v    11.667352 63.710772 6.920050
v    13.503619 65.450455 8.622713
v    15.117455 67.016683 9.343559
v    16.958950 68.667118 10.133011
v    16.987595 68.686376 10.143739
v    12.406148 60.672461 5.241654
v    12.892821 61.339692 6.009087
v    13.458341 62.142374 6.920050
v    14.940538 64.192122 8.622713
v    16.280145 65.998497 9.343559
v    17.673184 68.041652 10.133011
v    17.688495 68.072587 10.143739
v    11.718982 61.097521 5.805095
v    8.190028 60.939922 5.805095
v    10.090990 57.962557 5.805095
v    8.281018 58.902479 11.500271
v    11.809972 59.060078 11.500271
v    9.909010 62.037443 11.500271
v    9.320978 57.371301 10.768967
v    7.613959 56.484401 12.556537
v    4.317425 54.794654 15.157330
v    0.758688 52.909722 16.448151
v    -1.813766 51.675309 17.359056
v    -2.828372 51.286394 17.346857
v    7.329641 60.490214 10.768967
v    5.806757 59.314915 12.556537
v    2.886686 57.035536 15.157330
v    -0.320785 54.600437 16.448151
v    -2.523100 52.786297 17.359056
v    -3.302862 52.029558 17.346857
v    8.420020 58.861621 11.500271
v    11.775855 59.200887 11.500271
v    9.804125 61.937492 11.500271
v    11.579980 61.138379 18.299270
v    8.224145 60.799113 18.299270
v    10.195875 58.062508 18.299270
v    10.144139 63.016770 17.368249
v    12.326790 64.311209 19.726337
v    16.319241 66.650442 22.955056
v    20.806797 69.360105 24.635348
v    23.887077 71.057018 25.758063
v    26.050592 71.997710 25.731644
v    12.907263 59.181773 17.368249
v    14.826052 60.842431 19.726337
v    18.308798 63.889094 22.955056
v    22.299650 67.288144 24.635348
v    24.884359 69.672870 25.758063
v    26.461535 71.427354 25.731644
v    11.554633 61.012481 18.299270
v    8.345849 60.840111 18.299270
v    10.099518 58.147408 18.299270
v    8.445367 58.987519 30.832753
v    11.654151 59.159889 30.832753
v    9.900482 61.852592 30.832753
v    10.286208 56.314045 29.670150
v    6.994730 54.565967 33.133350
v    4.267126 53.080759 35.226513
v    2.399812 52.098864 36.646622
v    -7.134766 46.937876 40.121769
v    -11.925403 44.551823 40.086815
v    -14.171676 43.783562 40.060438
v    -14.800897 43.571113 39.942796
v    6.744534 61.752176 29.670150
v    3.814830 59.448606 33.133350
v    1.353549 57.554466 35.226513
v    -0.299542 56.243638 36.646622
v    -8.875096 49.610100 40.121769
v    -12.994478 46.193354 40.086815
v    -14.605409 44.449546 40.060438
v    -15.054141 43.959961 39.942796
v    8.458123 59.144816 30.832753
v    11.511550 59.092287 30.832753
v    10.030327 61.762897 30.832753
v    11.541877 60.855184 44.797288
v    8.488450 60.907713 44.797288
v    9.969673 58.237103 44.797288
v    9.609864 64.127591 43.373273
v    13.782924 65.977883 47.615176
v    15.209561 66.628289 48.671887
v    19.626675 68.565100 51.918411
v    29.382182 72.983395 55.351129
v    31.862405 73.990094 56.205670
v    35.329375 75.420545 56.162972
v    39.402818 76.498397 56.116156
v    13.294924 57.483516 43.373273
v    17.074156 60.043872 47.615176
v    18.381297 60.909724 48.671887
v    22.363149 63.631303 51.918411
v    31.276716 69.567597 55.351129
v    33.443971 71.138568 56.205670
v    36.493176 73.322239 56.162972
v    39.564389 76.207088 56.116156
v    11.374222 60.365552 44.797288
v    8.996312 61.007335 44.797288
v    9.629466 58.627113 44.797288
v    8.625778 59.634448 66.080215
v    11.003688 58.992665 66.080215
v    10.370534 61.372887 66.080215
v    9.944338 55.155797 64.369376
v    4.539945 54.222914 69.465678
v    1.395686 53.646403 71.620122
v    -3.022057 52.902522 74.635665
v    -17.168277 50.345097 79.243501
v    -24.884959 49.228896 79.717054
v    -30.082957 49.165141 79.659296
v    -30.438909 49.162172 79.596241
v    7.544827 64.176306 64.369376
v    2.391206 62.300692 69.465678
v    -0.623929 61.238766 71.620122
v    -4.827395 59.689352 74.635665
v    -18.374628 54.880148 79.243501
v    -25.626014 52.014751 79.717054
v    -30.168687 49.487427 79.659296
v    -30.479070 49.313147 79.596241
v    8.986898 59.579451 66.080215
v    10.870757 59.332903 66.080215
v    10.142345 61.087646 66.080215
v    11.013102 60.420549 86.202330
v    9.129243 60.667097 86.202330
v    9.857655 58.912354 86.202330
v    8.871022 65.202944 84.186219
v    15.036793 67.140074 90.191878
v    23.680394 69.823317 96.284369
v    36.158695 73.852568 100.487425
v    41.790278 75.427178 102.354243
v    44.818868 76.292761 102.318383
v    51.672791 77.298808 102.241415
v    12.887578 55.527069 84.186219
v    18.612611 58.525935 90.191878
v    26.615440 62.752798 96.284369
v    38.278884 68.745036 100.487425
v    43.370036 71.621545 102.354243
v    46.121288 73.155234 102.318383
v    51.672791 77.298808 102.241415
v    10.618233 60.508697 86.202330
v    9.250339 60.281057 86.202330
v    10.131428 59.210246 86.202330
v    9.381767 59.491303 110.017921
v    10.749661 59.718943 110.017921
v    9.868572 60.789754 110.017921
v    13.525116 54.719327 107.687517
v    7.357194 50.504611 114.629400
v    4.202333 48.300291 117.223259
v    -1.269317 44.594265 121.671653
v    -16.871455 33.750577 127.761887
v    -19.316746 32.191214 128.687761
v    -25.777967 28.018513 128.600196
v    -32.749718 24.729682 128.514549
v    -33.016257 24.605223 128.462441
v    5.497035 64.476076 107.687517
v    0.173402 59.235273 114.629400
v    -2.597216 56.563971 117.223259
v    -7.287594 51.908444 121.671653
v    -20.932944 38.686618 127.761887
v    -22.934029 36.587399 128.687761
v    -28.272917 31.050695 128.600196
v    -32.842797 24.842803 128.514549
v    -33.016257 24.605223 128.462441
v    9.631666 59.614620 110.017921
v    10.517915 59.873703 110.017921
v    9.850418 60.511676 110.017921
v    10.368334 60.385380 122.435000
v    9.482085 60.126297 122.435000
v    10.149582 59.488324 122.435000
v    6.311910 64.357459 117.156521
v    11.785515 68.791805 126.337437
v    19.695783 75.471038 136.199702
v    28.603808 82.686453 142.129026
v    35.605504 86.790474 146.198666
v    14.519736 56.512674 117.156521
v    18.702097 62.181151 126.337437
v    25.016891 70.385287 136.199702
v    31.822214 79.610401 142.129026
v    35.605504 86.790474 146.198666
v    12.506902 61.620744 1.127747
v    13.239255 61.895892 1.666470
v    13.944650 62.171249 1.909189
v    14.623621 62.405695 2.138507
v    15.171222 62.519072 2.153745
v    12.821513 60.974902 1.127747
v    13.489609 61.381959 1.666470
v    14.141252 61.767658 1.909189
v    14.744393 62.157772 2.138507
v    15.171222 62.519072 2.153745
v    6.550235 56.762923 2.746400
v    5.988824 56.383561 2.963582
v    5.212234 55.902544 3.255212
v    4.411398 55.523232 3.245331
v    6.088022 57.339929 2.746400
v    5.595273 56.874852 2.963582
v    4.956355 56.221972 3.255212
v    4.411398 55.523232 3.245331
v    15.196183 62.458698 4.160863
v    16.354018 62.754048 4.542334
v    17.121728 62.839559 4.782422
v    17.395306 62.873341 4.779359
v    15.493111 61.694476 4.160863
v    16.546628 62.258316 4.542334
v    17.170684 62.713556 4.782422
v    17.395306 62.873341 4.779359
v    1.701801 57.608108 7.260830
v    1.218216 57.553982 7.416177
v    0.873538 57.563419 7.523347
v    -0.228338 57.580428 7.511103
v    1.509634 58.420460 7.260830
v    1.053052 58.252184 7.416177
v    0.749133 58.089318 7.523347
v    -0.228338 57.580428 7.511103
v    16.987595 68.686376 10.143739
v    17.455695 69.001087 10.319054
v    18.533380 69.744462 10.304508
v    17.688495 68.072587 10.143739
v    17.938693 68.578118 10.319054
v    18.533380 69.744462 10.304508
v    -2.828372 51.286394 17.346857
v    -4.534810 50.719939 17.326880
v    -3.302862 52.029558 17.346857
v    -4.534810 50.719939 17.326880
v    26.050592 71.997710 25.731644
v    27.383625 72.524943 25.715717
v    26.461535 71.427354 25.731644
v    27.383625 72.524943 25.715717
v    -14.800897 43.571113 39.942796
v    -15.683755 43.273026 39.777734
v    -15.054141 43.959961 39.942796
v    -15.683755 43.273026 39.777734
v    39.402818 76.498397 56.116156
v    40.059505 76.672160 56.108609
v    39.564389 76.207088 56.116156
v    40.059505 76.672160 56.108609
v    -30.438909 49.162172 79.596241
v    -30.752608 49.159555 79.540671
v    -30.479070 49.313147 79.596241
v    -30.752608 49.159555 79.540671
mtllib usm_3_Beer_2018-08-07_1.mtl
usemtl APPID_876948976_2277208130160 
o vid_3 
f 3 2 1
f 4 5 6
f 1 6 5
f 1 5 3
f 3 5 4
f 4 2 3
f 2 4 6
f 6 1 2
usemtl APPID_876947520_2277208131696 
o vid_4 
f 7 10 11
f 7 11 8
f 8 11 12
f 8 12 9
usemtl APPID_876948976_2277208130160 
o vid_5 
f 15 14 13
f 16 17 18
f 13 18 17
f 13 17 15
f 15 17 16
f 16 14 15
f 14 16 18
f 18 13 14
usemtl APPID_876947520_2277208131696 
o vid_6 
f 19 24 25
f 20 25 26
f 21 26 27
f 19 25 20
f 20 26 21
f 21 27 22
f 22 27 28
f 22 28 23
usemtl APPID_876948976_2277208130160 
o vid_7 
f 31 30 29
f 32 33 34
f 29 34 33
f 29 33 31
f 31 33 32
f 32 30 31
f 30 32 34
f 34 29 30
usemtl APPID_876947520_2277208131696 
o vid_8 
f 35 40 41
f 36 41 42
f 37 42 43
f 35 41 36
f 36 42 37
f 37 43 38
f 38 43 44
f 38 44 39
usemtl APPID_876948976_2277208130160 
o vid_9 
f 47 46 45
f 48 49 50
f 45 50 49
f 45 49 47
f 47 49 48
f 48 46 47
f 46 48 50
f 50 45 46
usemtl APPID_876947520_2277208131696 
o vid_10 
f 51 57 58
f 52 58 59
f 53 59 60
f 54 60 61
f 51 58 52
f 52 59 53
f 53 60 54
f 54 61 55
f 55 61 62
f 55 62 56
usemtl APPID_876948976_2277208130160 
o vid_11 
f 65 64 63
f 66 67 68
f 63 68 67
f 63 67 65
f 65 67 66
f 66 64 65
f 64 66 68
f 68 63 64
usemtl APPID_876947520_2277208131696 
o vid_12 
f 69 76 77
f 70 77 78
f 71 78 79
f 72 79 80
f 73 80 81
f 69 77 70
f 70 78 71
f 71 79 72
f 72 80 73
f 73 81 74
f 74 81 82
f 74 82 75
usemtl APPID_876948976_2277208130160 
o vid_13 
f 85 84 83
f 86 87 88
f 83 88 87
f 83 87 85
f 85 87 86
f 86 84 85
f 84 86 88
f 88 83 84
usemtl APPID_876947520_2277208131696 
o vid_14 
f 89 95 96
f 90 96 97
f 91 97 98
f 92 98 99
f 89 96 90
f 90 97 91
f 91 98 92
f 92 99 93
f 93 99 100
f 93 100 94
usemtl APPID_876948976_2277208130160 
o vid_15 
f 103 102 101
f 104 105 106
f 101 106 105
f 101 105 103
f 103 105 104
f 104 102 103
f 102 104 106
f 106 101 102
usemtl APPID_876947520_2277208131696 
o vid_16 
f 107 113 114
f 108 114 115
f 109 115 116
f 110 116 117
f 107 114 108
f 108 115 109
f 109 116 110
f 110 117 111
f 111 117 118
f 111 118 112
usemtl APPID_876948976_2277208130160 
o vid_17 
f 121 120 119
f 122 123 124
f 119 124 123
f 119 123 121
f 121 123 122
f 122 120 121
f 120 122 124
f 124 119 120
usemtl APPID_876947520_2277208131696 
o vid_18 
f 125 133 134
f 126 134 135
f 127 135 136
f 128 136 137
f 129 137 138
f 130 138 139
f 125 134 126
f 126 135 127
f 127 136 128
f 128 137 129
f 129 138 130
f 130 139 131
f 131 139 140
f 131 140 132
usemtl APPID_876948976_2277208130160 
o vid_19 
f 143 142 141
f 144 145 146
f 141 146 145
f 141 145 143
f 143 145 144
f 144 142 143
f 142 144 146
f 146 141 142
usemtl APPID_876947520_2277208131696 
o vid_20 
f 147 155 156
f 148 156 157
f 149 157 158
f 150 158 159
f 151 159 160
f 152 160 161
f 147 156 148
f 148 157 149
f 149 158 150
f 150 159 151
f 151 160 152
f 152 161 153
f 153 161 162
f 153 162 154
usemtl APPID_876948976_2277208130160 
o vid_21 
f 165 164 163
f 166 167 168
f 163 168 167
f 163 167 165
f 165 167 166
f 166 164 165
f 164 166 168
f 168 163 164
usemtl APPID_876947520_2277208131696 
o vid_22 
f 169 177 178
f 170 178 179
f 171 179 180
f 172 180 181
f 173 181 182
f 174 182 183
f 169 178 170
f 170 179 171
f 171 180 172
f 172 181 173
f 173 182 174
f 174 183 175
f 175 183 184
f 175 184 176
usemtl APPID_876948976_2277208130160 
o vid_23 
f 187 186 185
f 188 189 190
f 185 190 189
f 185 189 187
f 187 189 188
f 188 186 187
f 186 188 190
f 190 185 186
usemtl APPID_876947520_2277208131696 
o vid_24 
f 191 198 199
f 192 199 200
f 193 200 201
f 194 201 202
f 195 202 203
f 191 199 192
f 192 200 193
f 193 201 194
f 194 202 195
f 195 203 196
f 196 203 204
usemtl APPID_876948976_2277208130160 
o vid_25 
f 207 206 205
f 208 209 210
f 205 210 209
f 205 209 207
f 207 209 208
f 208 206 207
f 206 208 210
f 210 205 206
usemtl APPID_876947520_2277208131696 
o vid_26 
f 211 220 221
f 212 221 222
f 213 222 223
f 214 223 224
f 215 224 225
f 216 225 226
f 217 226 227
f 211 221 212
f 212 222 213
f 213 223 214
f 214 224 215
f 215 225 216
f 216 226 217
f 217 227 218
f 218 227 228
usemtl APPID_876948976_2277208130160 
o vid_27 
f 231 230 229
f 232 233 234
f 229 234 233
f 229 233 231
f 231 233 232
f 232 230 231
f 230 232 234
f 234 229 230
usemtl APPID_876947520_2277208131696 
o vid_28 
f 235 240 241
f 236 241 242
f 237 242 243
f 235 241 236
f 236 242 237
f 237 243 238
f 238 243 244
usemtl APPID_876925680_2277208130928 
o vid_10000004 
f 245 250 251
f 246 251 252
f 247 252 253
f 245 251 246
f 246 252 247
f 247 253 248
f 248 253 254
usemtl APPID_876925680_2277208130928 
o vid_10000006 
f 255 259 260
f 256 260 261
f 255 260 256
f 256 261 257
f 257 261 262
usemtl APPID_876925680_2277208130928 
o vid_10000008 
f 263 267 268
f 264 268 269
f 263 268 264
f 264 269 265
f 265 269 270
usemtl APPID_876925680_2277208130928 
o vid_10000010 
f 271 275 276
f 272 276 277
f 271 276 272
f 272 277 273
f 273 277 278
usemtl APPID_876925680_2277208130928 
o vid_10000012 
f 279 282 283
f 279 283 280
f 280 283 284
usemtl APPID_876925680_2277208130928 
o vid_10000014 
f 285 287 288
f 285 288 286
f 285 287 288
usemtl APPID_876925680_2277208130928 
o vid_10000016 
f 289 291 292
f 289 292 290
f 289 291 292
usemtl APPID_876925680_2277208130928 
o vid_10000018 
f 293 295 296
f 293 296 294
f 293 295 296
usemtl APPID_876925680_2277208130928 
o vid_10000020 
f 297 299 300
f 297 300 298
f 297 299 300
usemtl APPID_876925680_2277208130928 
o vid_10000022 
f 301 303 304
f 301 304 302
f 301 303 304
