# File generated by PlantGL - Fri Sep  4 14:41:35 2026
v    18.424199 139.232375 0.000000
v    21.452683 139.019128 0.000000
v    20.123118 141.748496 0.000000
v    21.575801 140.767625 0.331061
v    18.547317 140.980872 0.331061
v    19.876882 138.251504 0.331061
v    21.160800 141.344326 -0.085637
v    22.008079 141.666167 0.773151
v    22.362345 141.790909 1.128134
v    23.583056 142.243346 1.944180
v    24.741839 142.651406 2.328973
v    26.051113 142.947695 2.659937
v    21.774086 140.085353 -0.085637
v    22.549793 140.554121 0.773151
v    22.866395 140.756181 1.128134
v    23.975127 141.438492 1.944180
v    25.010742 142.099396 2.328973
v    26.051113 142.947695 2.659937
v    21.082799 140.867380 0.331061
v    18.707427 140.504042 0.331061
v    20.209773 138.628578 0.331061
v    18.917201 139.132620 0.718770
v    21.292573 139.495958 0.718770
v    19.790227 141.371422 0.718770
v    19.706056 138.413970 0.143568
v    18.231942 137.437395 1.819033
v    17.794539 137.139419 2.151401
v    16.499166 136.296238 3.120245
v    15.685025 135.751762 3.367383
v    14.217273 134.824730 3.804288
v    13.613720 134.537164 3.969121
v    12.536263 134.021149 3.722176
v    18.388052 140.059309 0.143568
v    17.113282 138.833882 1.819033
v    16.727022 138.472061 2.151401
v    15.621443 137.391950 3.120245
v    14.912400 136.716274 3.367383
v    13.687366 135.486242 3.804288
v    13.275003 134.960004 3.969121
v    12.536263 134.021149 3.722176
v    19.026035 139.621580 0.718770
v    20.814704 139.345732 0.718770
v    20.159261 141.032689 0.718770
v    20.973965 140.378420 1.487000
v    19.185296 140.654268 1.487000
v    19.840739 138.967311 1.487000
v    20.236558 141.657141 0.711738
v    22.526808 142.316462 2.969945
v    23.683968 142.665842 3.729033
v    25.212399 143.092505 4.723730
v    27.024483 143.622736 5.200142
v    29.286515 144.220934 5.789008
v    31.777593 144.576017 5.413822
v    21.293324 138.937273 0.711738
v    23.427936 139.997170 2.969945
v    24.517434 140.520697 3.729033
v    25.932988 141.237877 4.723730
v    27.627712 142.070167 5.200142
v    29.700241 143.156101 5.789008
v    31.777593 144.576017 5.413822
v    20.705918 140.166989 1.487000
v    19.502424 140.527848 1.487000
v    19.791658 139.305163 1.487000
v    19.294082 139.833011 2.200944
v    20.497576 139.472152 2.200944
v    20.208342 140.694837 2.200944
v    20.205736 138.347893 0.148507
v    18.724397 138.142145 1.694722
v    17.221456 137.972372 3.254168
v    14.891038 137.665201 4.874293
v    13.665380 137.541781 5.720298
v    12.066141 137.350763 6.201013
v    8.816932 137.354581 7.150590
v    19.443721 141.569184 0.148507
v    18.027201 141.089426 1.694722
v    16.607485 140.567829 3.254168
v    14.386436 139.798324 4.874293
v    13.235384 139.359518 5.720298
v    11.720059 138.813769 6.201013
v    8.816932 137.354581 7.150590
v    19.717449 139.677349 2.200944
v    20.420699 139.916629 2.200944
v    19.861851 140.406022 2.200944
v    20.282551 140.322651 2.334000
v    19.579301 140.083371 2.334000
v    20.138149 139.593978 2.334000
v    19.730151 141.206628 -0.160039
v    19.755599 141.187026 0.133854
v    20.501439 140.572605 4.374890
v    21.231683 139.891713 -0.160039
v    21.208895 139.914352 0.133854
v    20.501439 140.572605 4.374890
mtllib usm_13_Beer_2018-07-28_3.mtl
usemtl APPID_94977184_1597823793376 
o vid_3 
f 3 2 1
f 4 5 6
f 1 6 5
f 1 5 3
f 3 5 4
f 4 2 3
f 2 4 6
f 6 1 2
usemtl APPID_94974608_1597823794400 
o vid_4 
f 7 13 14
f 8 14 15
f 9 15 16
f 10 16 17
f 7 14 8
f 8 15 9
f 9 16 10
f 10 17 11
f 11 17 18
usemtl APPID_94977184_1597823793376 
o vid_5 
f 21 20 19
f 22 23 24
f 19 24 23
f 19 23 21
f 21 23 22
f 22 20 21
f 20 22 24
f 24 19 20
usemtl APPID_94974608_1597823794400 
o vid_6 
f 25 33 34
f 26 34 35
f 27 35 36
f 28 36 37
f 29 37 38
f 30 38 39
f 25 34 26
f 26 35 27
f 27 36 28
f 28 37 29
f 29 38 30
f 30 39 31
f 31 39 40
usemtl APPID_94977184_1597823793376 
o vid_7 
f 43 42 41
f 44 45 46
f 41 46 45
f 41 45 43
f 43 45 44
f 44 42 43
f 42 44 46
f 46 41 42
usemtl APPID_94974608_1597823794400 
o vid_8 
f 47 54 55
f 48 55 56
f 49 56 57
f 50 57 58
f 51 58 59
f 47 55 48
f 48 56 49
f 49 57 50
f 50 58 51
f 51 59 52
f 52 59 60
usemtl APPID_94977184_1597823793376 
o vid_9 
f 63 62 61
f 64 65 66
f 61 66 65
f 61 65 63
f 63 65 64
f 64 62 63
f 62 64 66
f 66 61 62
usemtl APPID_94974608_1597823794400 
o vid_10 
f 67 74 75
f 68 75 76
f 69 76 77
f 70 77 78
f 71 78 79
f 67 75 68
f 68 76 69
f 69 77 70
f 70 78 71
f 71 79 72
f 72 79 80
usemtl APPID_94977184_1597823793376 
o vid_11 
f 83 82 81
f 84 85 86
f 81 86 85
f 81 85 83
f 83 85 84
f 84 82 83
f 82 84 86
f 86 81 82
usemtl APPID_94974608_1597823794400 
o vid_12 
f 87 90 91
f 87 91 88
f 88 91 92
