# File generated by PlantGL - Fri Sep  4 14:41:35 2026
v    219.182290 19.601667 0.000000
v    220.753822 19.491009 0.000000
v    220.063888 20.907325 0.000000
v    220.817710 20.398333 0.254000
v    219.246178 20.508991 0.254000
v    219.936112 19.092675 0.254000
v    220.717003 20.648796 -0.074327
v    220.997230 20.738133 0.389815
v    221.089392 20.760596 0.537631
v    221.462777 20.867583 0.977014
v    221.680064 20.886242 1.210776
v    221.889129 20.920257 1.341119
v    220.952850 20.164644 -0.074327
v    221.195934 20.330229 0.389815
v    221.270432 20.388952 0.537631
v    221.584839 20.617010 0.977014
v    221.733473 20.776604 1.210776
v    221.889129 20.920257 1.341119
mtllib usm_35_Beer_2018-07-22_5.mtl
usemtl APPID_821862928_1946549165904 
o vid_3 
f 3 2 1
f 4 5 6
f 1 6 5
f 1 5 3
f 3 5 4
f 4 2 3
f 2 4 6
f 6 1 2
usemtl APPID_821859904_1946549171024 
o vid_4 
f 7 13 14
f 8 14 15
f 9 15 16
f 10 16 17
f 7 14 8
f 8 15 9
f 9 16 10
f 10 17 11
f 11 17 18
