# File generated by PlantGL - Fri Sep  4 14:41:26 2026
v    38.201987 19.124129 0.000000
v    41.657533 18.880811 0.000000
v    40.140480 21.995060 0.000000
v    41.798013 20.875871 0.231332
v    38.342467 21.119189 0.231332
v    39.859520 18.004940 0.231332
v    41.514455 21.248526 -0.085763
v    42.436235 21.573097 0.837883
v    43.293069 21.864034 1.403329
v    43.538269 21.911287 1.555212
v    44.257812 22.074120 1.737101
v    41.916655 20.422880 -0.085763
v    42.740434 20.948628 0.837883
v    43.497696 21.443970 1.403329
v    43.686051 21.607916 1.555212
v    44.257812 22.074120 1.737101
v    41.503548 21.204422 0.231332
v    38.205166 20.699900 0.231332
v    40.291286 18.095678 0.231332
v    38.496452 18.795578 0.322957
v    41.794834 19.300100 0.322957
v    39.708714 21.904322 0.322957
v    38.981697 18.396126 -0.122956
v    37.974857 17.763993 1.000662
v    37.813752 17.670474 1.175914
v    36.993862 17.170975 1.775671
v    36.377840 16.901430 2.184652
v    35.770857 16.612231 2.350422
v    38.212540 19.356308 -0.122956
v    37.375894 18.511711 1.000662
v    37.249468 18.374902 1.175914
v    36.583062 17.683799 1.775671
v    36.185563 17.141459 2.184652
v    35.770857 16.612231 2.350422
v    38.272844 19.328938 0.322957
v    41.444735 18.839770 0.322957
v    40.282421 21.831292 0.322957
v    41.727156 20.671062 0.466906
v    38.555265 21.160230 0.466906
v    39.717579 18.168708 0.466906
v    41.291521 21.302351 -0.146515
v    42.028690 21.495173 0.573657
v    43.134817 21.743858 1.640276
v    43.425009 21.815605 1.827019
v    45.153844 22.002453 2.884671
v    41.832012 19.911254 -0.146515
v    42.505991 20.266713 0.573657
v    43.489858 20.830066 1.640276
v    43.752367 20.973063 1.827019
v    45.153844 22.002453 2.884671
v    41.731622 20.409625 0.466906
v    38.779443 21.294816 0.466906
v    39.488935 18.295559 0.466906
v    38.268378 19.590375 0.679271
v    41.220557 18.705184 0.679271
v    40.511065 21.704441 0.679271
v    38.724437 18.699708 -0.146223
v    37.987589 18.612697 0.555044
v    36.183361 18.462876 2.258301
v    33.774051 18.527216 3.725781
v    38.277047 20.590976 -0.146223
v    37.579310 20.338627 0.555044
v    35.899180 19.664204 2.258301
v    33.774051 18.527216 3.725781
v    38.876148 18.716648 0.679271
v    41.673341 19.668392 0.679271
v    39.450510 21.614960 0.679271
v    41.123852 21.283352 0.920461
v    38.326659 20.331608 0.920461
v    40.549490 18.385040 0.920461
v    39.934501 21.907056 -0.166258
v    40.828858 22.718478 0.975093
v    42.471428 24.107970 2.999170
v    42.743619 24.348320 3.226014
v    45.305742 26.058749 5.099721
v    41.899026 20.186690 -0.166258
v    42.585353 21.180288 0.975093
v    43.745977 22.991827 2.999170
v    43.948313 23.293350 3.226014
v    45.305742 26.058749 5.099721
v    41.375838 20.878433 0.920461
v    38.551335 20.752294 0.920461
v    40.072827 18.369272 0.920461
v    38.624162 19.121567 1.433330
v    41.448665 19.247706 1.433330
v    39.927173 21.630728 1.433330
v    39.773615 18.073477 0.033845
v    36.884314 16.787381 3.009223
v    35.713075 16.471212 4.110308
v    33.264351 15.699480 5.671910
v    38.157094 20.605339 0.033845
v    35.774562 18.525521 3.009223
v    34.994878 17.596081 4.110308
v    33.264351 15.699480 5.671910
v    38.735263 19.088754 1.433330
v    41.421531 19.360328 1.433330
v    39.843206 21.550918 1.433330
v    41.264737 20.911246 2.226063
v    38.578469 20.639672 2.226063
v    40.156794 18.449082 2.226063
v    39.699012 22.211968 0.463004
v    40.283450 22.538579 1.095787
v    43.837536 24.365973 4.855557
v    44.614603 24.623300 5.598499
v    48.406114 26.056625 8.063892
v    42.002943 19.014294 0.463004
v    42.497762 19.465291 1.095787
v    45.356225 22.258153 4.855557
v    45.846299 22.913804 5.598499
v    48.406114 26.056625 8.063892
v    41.244614 20.810576 2.226063
v    38.675713 20.672580 2.226063
v    40.079672 18.516844 2.226063
v    38.755386 19.189424 3.122958
v    41.324287 19.327420 3.122958
v    39.920328 21.483156 3.122958
v    40.520554 17.630686 0.950189
v    36.434275 15.767363 5.175373
v    34.202064 15.143094 7.279098
v    30.887900 14.065593 9.398732
v    38.043498 21.434128 0.950189
v    34.687014 18.450229 5.175373
v    33.213464 16.661059 7.279098
v    30.887900 14.065593 9.398732
v    38.765415 19.315252 3.122958
v    41.210302 19.273192 3.122958
v    40.024283 21.411556 3.122958
v    41.234585 20.684748 4.399886
v    38.789698 20.726808 4.399886
v    39.975717 18.588444 4.399886
v    39.249279 22.702077 1.780450
v    44.266062 24.573021 6.817768
v    47.064639 25.145652 9.410424
v    51.072408 26.141184 11.922148
v    41.894712 17.932424 1.780450
v    46.138207 21.197588 6.817768
v    48.105802 23.268459 9.410424
v    51.072408 26.141184 11.922148
v    41.237781 20.329257 4.399886
v    39.095964 20.907321 4.399886
v    39.666255 18.763421 4.399886
v    38.762219 19.670743 6.223747
v    40.904036 19.092679 6.223747
v    40.333745 21.236579 6.223747
v    40.468930 16.730702 3.134520
v    33.767001 15.986778 9.478409
v    30.845201 16.117126 12.132915
v    25.462542 16.132947 15.406823
v    38.782586 23.070196 3.134520
v    32.596805 20.385910 9.478409
v    30.125933 18.821078 12.132915
v    25.462542 16.132947 15.406823
v    39.064555 19.611687 6.223747
v    40.804011 19.384037 6.223747
v    40.131434 21.004276 6.223747
v    40.935445 20.388313 8.842817
v    39.195989 20.615963 8.842817
v    39.868566 18.995724 8.842817
v    38.501497 23.562777 5.278802
v    46.646617 25.602199 13.179828
v    49.368645 25.844816 15.660175
v    56.259508 26.749491 19.887369
v    41.465137 16.423373 5.278802
v    48.660080 20.751770 13.179828
v    50.753715 22.508185 15.660175
v    56.259508 26.749491 19.887369
v    40.592918 20.487867 8.842817
v    39.281036 20.269549 8.842817
v    40.126046 19.242584 8.842817
v    39.407082 19.512133 12.742748
v    40.718964 19.730451 12.742748
v    39.873954 20.757416 12.742748
v    43.161540 16.780369 8.720424
v    41.884989 15.955353 10.156994
v    34.060480 11.275032 18.734699
v    32.321682 10.572587 20.436772
v    23.907191 6.758462 26.055946
v    37.449481 23.722394 8.720424
v    36.394072 22.628617 10.156994
v    30.294525 15.851902 18.734699
v    29.270373 14.280927 20.436772
v    23.907191 6.758462 26.055946
v    39.622884 19.605432 12.742748
v    40.530264 19.870692 12.742748
v    39.846852 20.523876 12.742748
v    40.377116 20.394568 17.131455
v    39.469736 20.129308 17.131455
v    40.153148 19.476124 17.131455
v    35.985456 22.815117 12.690645
v    44.461834 29.403710 22.794186
v    47.194755 30.908948 25.625973
v    54.880869 35.569524 31.093187
v    42.993730 16.116827 12.690645
v    49.192384 24.882397 22.794186
v    50.572533 27.680573 25.625973
v    54.880869 35.569524 31.093187
v    40.242851 20.247508 17.131455
v    39.664227 20.086561 17.131455
v    40.092922 19.665931 17.131455
v    39.757149 19.752492 19.169000
v    40.335773 19.913439 19.169000
v    39.907078 20.334069 19.169000
v    42.943154 17.666187 9.421892
v    42.296151 17.294651 11.124935
v    35.550572 15.465256 25.421336
v    37.610715 22.898303 9.421892
v    37.251534 22.244361 11.124935
v    35.550572 15.465256 25.421336
mtllib usm_7_Beer_2018-08-15_0.mtl
usemtl APPID_3511006048_2305608081760 
o vid_3 
f 3 2 1
f 4 5 6
f 1 6 5
f 1 5 3
f 3 5 4
f 4 2 3
f 2 4 6
f 6 1 2
usemtl APPID_3511007616_2305608079200 
o vid_4 
f 7 12 13
f 8 13 14
f 9 14 15
f 7 13 8
f 8 14 9
f 9 15 10
f 10 15 16
usemtl APPID_3511006048_2305608081760 
o vid_5 
f 19 18 17
f 20 21 22
f 17 22 21
f 17 21 19
f 19 21 20
f 20 18 19
f 18 20 22
f 22 17 18
usemtl APPID_3511007616_2305608079200 
o vid_6 
f 23 29 30
f 24 30 31
f 25 31 32
f 26 32 33
f 23 30 24
f 24 31 25
f 25 32 26
f 26 33 27
f 27 33 34
usemtl APPID_3511006048_2305608081760 
o vid_7 
f 37 36 35
f 38 39 40
f 35 40 39
f 35 39 37
f 37 39 38
f 38 36 37
f 36 38 40
f 40 35 36
usemtl APPID_3511007616_2305608079200 
o vid_8 
f 41 46 47
f 42 47 48
f 43 48 49
f 41 47 42
f 42 48 43
f 43 49 44
f 44 49 50
usemtl APPID_3511006048_2305608081760 
o vid_9 
f 53 52 51
f 54 55 56
f 51 56 55
f 51 55 53
f 53 55 54
f 54 52 53
f 52 54 56
f 56 51 52
usemtl APPID_3511007616_2305608079200 
o vid_10 
f 57 61 62
f 58 62 63
f 57 62 58
f 58 63 59
f 59 63 64
usemtl APPID_3511006048_2305608081760 
o vid_11 
f 67 66 65
f 68 69 70
f 65 70 69
f 65 69 67
f 67 69 68
f 68 66 67
f 66 68 70
f 70 65 66
usemtl APPID_3511007616_2305608079200 
o vid_12 
f 71 76 77
f 72 77 78
f 73 78 79
f 71 77 72
f 72 78 73
f 73 79 74
f 74 79 80
usemtl APPID_3511006048_2305608081760 
o vid_13 
f 83 82 81
f 84 85 86
f 81 86 85
f 81 85 83
f 83 85 84
f 84 82 83
f 82 84 86
f 86 81 82
usemtl APPID_3511007616_2305608079200 
o vid_14 
f 87 91 92
f 88 92 93
f 87 92 88
f 88 93 89
f 89 93 94
usemtl APPID_3511006048_2305608081760 
o vid_15 
f 97 96 95
f 98 99 100
f 95 100 99
f 95 99 97
f 97 99 98
f 98 96 97
f 96 98 100
f 100 95 96
usemtl APPID_3511007616_2305608079200 
o vid_16 
f 101 106 107
f 102 107 108
f 103 108 109
f 101 107 102
f 102 108 103
f 103 109 104
f 104 109 110
usemtl APPID_3511006048_2305608081760 
o vid_17 
f 113 112 111
f 114 115 116
f 111 116 115
f 111 115 113
f 113 115 114
f 114 112 113
f 112 114 116
f 116 111 112
usemtl APPID_3511007616_2305608079200 
o vid_18 
f 117 121 122
f 118 122 123
f 117 122 118
f 118 123 119
f 119 123 124
usemtl APPID_3511006048_2305608081760 
o vid_19 
f 127 126 125
f 128 129 130
f 125 130 129
f 125 129 127
f 127 129 128
f 128 126 127
f 126 128 130
f 130 125 126
usemtl APPID_3511007616_2305608079200 
o vid_20 
f 131 135 136
f 132 136 137
f 131 136 132
f 132 137 133
f 133 137 138
usemtl APPID_3511006048_2305608081760 
o vid_21 
f 141 140 139
f 142 143 144
f 139 144 143
f 139 143 141
f 141 143 142
f 142 140 141
f 140 142 144
f 144 139 140
usemtl APPID_3511007616_2305608079200 
o vid_22 
f 145 149 150
f 146 150 151
f 145 150 146
f 146 151 147
f 147 151 152
usemtl APPID_3511006048_2305608081760 
o vid_23 
f 155 154 153
f 156 157 158
f 153 158 157
f 153 157 155
f 155 157 156
f 156 154 155
f 154 156 158
f 158 153 154
usemtl APPID_3511007616_2305608079200 
o vid_24 
f 159 163 164
f 160 164 165
f 159 164 160
f 160 165 161
f 161 165 166
usemtl APPID_3511006048_2305608081760 
o vid_25 
f 169 168 167
f 170 171 172
f 167 172 171
f 167 171 169
f 169 171 170
f 170 168 169
f 168 170 172
f 172 167 168
usemtl APPID_3511007616_2305608079200 
o vid_26 
f 173 178 179
f 174 179 180
f 175 180 181
f 173 179 174
f 174 180 175
f 175 181 176
f 176 181 182
usemtl APPID_3511006048_2305608081760 
o vid_27 
f 185 184 183
f 186 187 188
f 183 188 187
f 183 187 185
f 185 187 186
f 186 184 185
f 184 186 188
f 188 183 184
usemtl APPID_3511007616_2305608079200 
o vid_28 
f 189 193 194
f 190 194 195
f 189 194 190
f 190 195 191
f 191 195 196
usemtl APPID_3511006048_2305608081760 
o vid_29 
f 199 198 197
f 200 201 202
f 197 202 201
f 197 201 199
f 199 201 200
f 200 198 199
f 198 200 202
f 202 197 198
usemtl APPID_3511007616_2305608079200 
o vid_30 
f 203 206 207
f 203 207 204
f 204 207 208
