# File generated by PlantGL - Fri Sep  4 14:42:31 2026
v    37.752484 58.905161 0.000000
v    42.071916 58.601013 0.000000
v    40.175600 62.493825 0.000000
v    42.247516 61.094839 0.848018
v    37.928084 61.398987 0.848018
v    39.824400 57.506175 0.848018
v    42.061684 61.449770 0.686205
v    42.365692 61.565676 0.988541
v    42.456303 61.598529 1.077961
v    42.412442 60.729723 0.686205
v    42.691107 60.897656 0.988541
v    42.772830 60.948753 1.077961
v    41.879284 61.505407 0.848018
v    37.756638 60.874804 0.848018
v    40.364078 57.619789 0.848018
v    38.120716 58.494593 1.416666
v    42.243362 59.125196 1.416666
v    39.635922 62.380211 1.416666
v    38.495819 58.052731 1.186976
v    38.165119 57.833063 1.555896
v    37.771376 58.957094 1.186976
v    37.484826 58.682311 1.555896
v    37.841416 59.161313 1.416666
v    41.805616 58.549955 1.416666
v    40.352968 62.288732 1.416666
v    42.158584 60.838687 2.253758
v    38.194384 61.450045 2.253758
v    39.647032 57.711268 2.253758
v    41.869338 61.519729 1.934179
v    41.931872 61.537814 1.994670
v    42.274952 61.630963 2.324490
v    42.405019 60.141012 1.934179
v    42.463360 60.169891 1.994670
v    42.779332 60.332808 2.324490
v    42.163962 60.511898 2.253758
v    38.474702 61.618097 2.253758
v    39.361335 57.870005 2.253758
v    37.836038 59.488102 4.113040
v    41.525298 58.381903 4.113040
v    40.638665 62.129995 4.113040
v    38.107412 58.476958 3.677205
v    37.598202 58.403520 4.155284
v    37.080938 58.337569 4.639067
v    37.625617 60.513666 3.677205
v    37.137474 60.351174 4.155284
v    36.645484 60.178380 4.639067
v    38.595695 58.396392 4.113040
v    42.090917 59.585640 4.113040
v    39.313387 62.017967 4.113040
v    41.404305 61.603608 6.001020
v    37.909083 60.414360 6.001020
v    40.686613 57.982033 6.001020
v    40.272370 62.539214 5.418419
v    41.331478 63.550910 6.779458
v    41.627852 63.824854 7.153891
v    41.770925 63.960402 7.286554
v    42.481079 60.605012 5.418419
v    43.344192 61.788345 6.779458
v    43.576637 62.118271 7.153891
v    43.692123 62.277978 7.286554
v    41.718982 61.097521 6.001020
v    38.190028 60.939922 6.001020
v    40.090990 57.962557 6.001020
v    38.281018 58.902479 11.510985
v    41.809972 59.060078 11.510985
v    39.909010 62.037443 11.510985
v    39.303579 57.402832 10.747626
v    38.689476 57.083768 11.390708
v    37.116540 56.299048 13.021543
v    34.513877 54.960366 14.991610
v    37.350922 60.461162 10.747626
v    36.803062 60.038346 11.390708
v    35.429295 58.941680 13.021543
v    33.119681 57.144013 14.991610
v    38.420020 58.861621 11.510985
v    41.775855 59.200887 11.510985
v    39.804125 61.937492 11.510985
v    41.579980 61.138379 19.659504
v    38.224145 60.799113 19.659504
v    40.195875 58.062508 19.659504
v    40.020475 63.182338 18.679129
v    42.723579 64.785436 21.599502
v    46.514102 67.020885 24.562100
v    51.754097 70.184883 26.524130
v    43.025172 59.012058 18.679129
v    45.401496 61.068700 21.599502
v    48.721875 63.956672 24.562100
v    53.381881 67.925649 26.524130
v    41.554633 61.012481 19.659504
v    38.345849 60.840111 19.659504
v    40.099518 58.147408 19.659504
v    38.445367 58.987519 30.877941
v    41.654151 59.159889 30.877941
v    39.900482 61.852592 30.877941
v    40.262405 56.360012 29.643805
v    36.768408 54.504378 33.320089
v    31.865332 51.924540 37.049527
v    24.975378 48.195065 39.560766
v    22.776773 47.115495 40.342714
v    36.776951 61.711819 29.643805
v    33.666988 59.266514 33.320089
v    29.324905 55.825287 37.049527
v    23.127969 51.031706 39.560766
v    21.251586 49.457373 40.342714
v    38.458123 59.144816 30.877941
v    41.511550 59.092287 30.877941
v    40.030327 61.762897 30.877941
v    41.541877 60.855184 48.423413
v    38.488450 60.907713 48.423413
v    39.969673 58.237103 48.423413
v    39.418065 64.458767 46.900621
v    43.880590 66.437404 51.436764
v    46.785963 67.761969 53.588776
v    50.118967 69.223421 56.038493
v    62.138809 74.667238 60.267974
v    67.212823 76.753836 60.573343
v    43.474309 57.145455 46.900621
v    47.515687 59.883410 51.436764
v    50.177707 61.646736 53.588776
v    53.182277 63.700347 56.038493
v    64.164756 71.014503 60.267974
v    68.621497 74.214030 60.573343
v    41.614895 60.429572 48.423413
v    38.820532 61.183754 48.423413
v    39.564573 58.386674 48.423413
v    38.385105 59.570428 69.825309
v    41.179468 58.816246 69.825309
v    40.435427 61.613326 69.825309
v    39.838071 54.623087 67.983582
v    34.020215 53.618834 73.469777
v    29.002444 52.698809 76.907951
v    25.885905 52.174031 79.035294
v    8.863003 49.096544 84.580149
v    0.682694 47.899423 84.486022
v    37.187926 64.585810 67.983582
v    31.640027 62.566702 73.469777
v    26.828318 60.872025 76.907951
v    23.862943 59.778977 79.035294
v    7.560834 53.991804 84.580149
v    -0.133108 50.966277 84.486022
v    38.541706 59.394647 69.825309
v    41.253398 59.039757 69.825309
v    40.204896 61.565597 69.825309
v    41.458294 60.605353 89.719947
v    38.746602 60.960243 89.719947
v    39.795104 58.434403 89.719947
v    39.081162 65.922653 87.536631
v    45.758284 68.020437 94.040363
v    48.019857 68.756913 95.643365
v    55.108080 70.951877 100.638130
v    70.705609 75.988329 105.891832
v    74.686322 77.101350 107.211402
v    80.185565 78.673056 107.146288
v    81.783704 78.907637 107.128341
v    43.545631 55.167756 87.536631
v    49.745464 58.415330 94.040363
v    51.863751 59.496979 95.643365
v    58.422652 62.967078 100.638130
v    73.001635 70.457209 105.891832
v    76.600341 72.490484 107.211402
v    81.596000 75.275320 107.146288
v    82.890452 76.241484 107.128341
v    41.148136 60.944713 89.719947
v    38.607786 60.521958 89.719947
v    40.244078 58.533328 89.719947
v    38.851864 59.055287 113.671638
v    41.392214 59.478042 113.671638
v    39.755922 61.466672 113.671638
v    43.421872 53.788140 111.134670
v    36.707236 49.199838 118.691871
v    32.297321 46.118604 122.317608
v    27.327110 42.752210 126.358337
v    9.218987 30.166831 133.426773
v    -0.530004 23.883060 133.884606
v    -4.316888 22.096648 133.838085
v    34.563396 64.554092 111.134670
v    28.767884 58.848753 118.691871
v    24.895071 55.114764 122.317608
v    20.634533 50.885884 126.358337
v    4.797494 35.540394 133.426773
v    -3.246102 27.184010 133.884606
v    -5.728349 23.812035 133.838085
v    39.036323 58.991726 113.671638
v    41.355030 59.669568 113.671638
v    39.608648 61.338706 113.671638
v    40.963677 61.008274 134.136405
v    38.644970 60.330432 134.136405
v    40.391352 58.661294 134.136405
v    35.226105 66.204856 131.246922
v    42.196166 72.305206 139.854206
v    44.854049 74.680747 142.256730
v    51.954974 80.844258 148.585939
v    68.522402 95.577839 155.692516
v    72.379112 98.742722 157.285256
v    78.591409 103.900612 157.193331
v    84.419271 107.556733 157.116892
v    46.414331 55.511496 131.246922
v    52.193340 62.750217 139.854206
v    54.446294 65.512777 142.256730
v    60.282484 72.885083 148.585939
v    74.252017 90.101650 155.692516
v    77.239309 94.097496 157.285256
v    82.111079 100.536620 157.193331
v    85.499995 106.523811 157.116892
v    40.853934 60.870308 134.136405
v    38.819324 60.304375 134.136405
v    40.326742 58.825317 134.136405
v    39.146066 59.129692 147.008689
v    41.180676 59.695625 147.008689
v    39.673258 61.174683 147.008689
v    44.965764 53.744220 143.782928
v    40.522242 49.956914 149.208394
v    37.042831 47.088599 153.391929
v    25.982779 37.740120 163.139862
v    15.158317 28.365153 167.729859
v    4.097321 19.528507 172.249560
v    -3.597794 14.867544 172.773167
v    33.651045 64.846067 143.782928
v    29.948808 60.331422 149.208394
v    27.147086 56.798167 153.391929
v    18.010332 45.562575 163.139862
v    8.842620 34.562027 167.729859
v    0.217625 23.335212 172.249560
v    -4.296361 15.552969 172.773167
v    39.367571 59.299270 147.008689
v    40.923064 59.802665 147.008689
v    39.709365 60.898065 147.008689
v    40.632429 60.700730 158.324356
v    39.076936 60.197335 158.324356
v    40.290635 59.101935 158.324356
v    33.875046 66.457795 154.794548
v    40.216103 72.335929 162.829281
v    53.871661 84.845909 175.975991
v    67.416780 97.603173 181.940132
v    78.438554 107.187689 186.603126
v    89.222130 114.538009 186.457789
v    47.049932 54.567080 154.794548
v    52.249256 61.475660 162.829281
v    63.298186 76.338198 175.975991
v    74.604392 91.116145 181.940132
v    83.012339 103.059716 186.603126
v    89.222130 114.538009 186.457789
v    40.684499 60.133253 158.324356
v    39.542350 60.526167 158.324356
v    39.773151 59.340580 158.324356
v    39.315501 59.866747 164.712505
v    40.457650 59.473833 164.712505
v    40.226849 60.659420 164.712505
v    41.276549 51.216894 160.926536
v    29.172552 50.131709 172.204302
v    12.259290 48.450053 183.645129
v    1.910721 47.295198 186.982779
v    -14.662959 46.109075 192.287403
v    -23.510218 46.706192 195.043481
v    -27.227844 46.912556 195.002112
v    37.888524 68.620568 160.926536
v    26.261367 65.085939 172.204302
v    9.952401 60.300125 183.645129
v    -0.073657 57.488591 186.982779
v    -15.881951 52.370818 192.287403
v    -23.859121 48.498441 195.043481
v    -27.227844 46.912556 195.002112
v    39.630076 59.694824 164.712505
v    40.449252 59.832224 164.712505
v    39.920672 60.472951 164.712505
v    40.369924 60.305176 168.074034
v    39.550748 60.167776 168.074034
v    40.079328 59.527049 168.074034
v    35.013235 66.348946 164.093789
v    45.672642 73.398516 175.950272
v    56.936366 81.048606 185.115500
v    60.578676 83.287520 187.978182
v    71.166028 90.058121 191.990199
v    83.037054 95.504196 196.049593
v    45.285369 53.897392 164.093789
v    54.232470 63.022566 175.950272
v    63.884007 72.626899 185.115500
v    66.774402 75.777258 187.978182
v    75.433924 84.884714 191.990199
v    83.037054 95.504196 196.049593
v    40.232337 60.174469 168.074034
v    39.732737 60.113975 168.074034
v    40.034926 59.711556 168.074034
v    39.767663 59.825531 169.445000
v    40.267263 59.886025 169.445000
v    39.965074 60.288444 169.445000
v    42.401425 53.841823 161.637344
v    39.692326 52.734309 170.783682
v    37.142622 52.024565 178.746692
v    32.740295 50.227121 188.113768
v    26.842429 49.496880 198.611233
v    25.482067 49.098042 200.065502
v    34.755756 64.023417 161.637344
v    32.936722 61.730619 170.783682
v    31.544130 59.479972 178.746692
v    28.590366 55.753503 188.113768
v    26.244432 50.293223 198.611233
v    25.482067 49.098042 200.065502
v    42.456303 61.598529 1.077961
v    43.227599 61.887687 1.657200
v    43.936109 62.164261 1.900991
v    44.607391 62.396051 2.127711
v    45.149327 62.508406 2.138813
v    42.772830 60.948753 1.077961
v    43.475963 61.377838 1.657200
v    44.130485 61.765241 1.900991
v    44.726794 62.150936 2.127711
v    45.149327 62.508406 2.138813
v    38.165119 57.833063 1.555896
v    38.008885 57.729284 1.730188
v    37.019654 57.080271 2.565284
v    35.992796 56.386393 2.962526
v    35.209143 55.901001 3.256808
v    34.414294 55.525552 3.247008
v    37.484826 58.682311 1.555896
v    37.349450 58.552494 1.730188
v    36.500174 57.728766 2.565284
v    35.598904 56.878111 2.962526
v    34.954175 56.219292 3.256808
v    34.414294 55.525552 3.247008
v    42.274952 61.630963 2.324490
v    42.859195 61.789588 2.886152
v    44.239051 62.182518 3.851888
v    44.958617 62.396817 4.092544
v    46.317683 62.743498 4.540315
v    47.192949 62.840988 4.814039
v    47.367518 62.862545 4.812085
v    42.779332 60.332808 2.324490
v    43.317411 60.610245 2.886152
v    44.600591 61.252000 3.851888
v    45.276084 61.579732 4.092544
v    46.512701 62.241567 4.540315
v    47.224188 62.760587 4.814039
v    47.367518 62.862545 4.812085
v    37.080938 58.337569 4.639067
v    36.721241 58.291707 4.975483
v    34.783518 58.020379 6.292531
v    33.223718 57.782797 6.798265
v    31.322774 57.570032 7.408925
v    30.693155 57.587270 7.604690
v    29.855263 57.600204 7.595380
v    36.645484 60.178380 4.639067
v    36.303362 60.058222 4.975483
v    34.449445 59.432617 6.292531
v    32.948517 58.946165 6.798265
v    31.153720 58.284682 7.408925
v    30.598555 57.987176 7.604690
v    29.855263 57.600204 7.595380
v    41.770925 63.960402 7.286554
v    43.526563 65.623697 8.914455
v    45.765486 67.796572 9.914506
v    47.524230 69.372841 10.668483
v    49.323855 70.647123 10.643909
v    43.692123 62.277978 7.286554
v    45.109239 64.237723 8.914455
v    46.967714 66.743761 9.914506
v    48.298155 68.695103 10.668483
v    49.323855 70.647123 10.643909
v    34.513877 54.960366 14.991610
v    34.069026 54.731556 15.328337
v    31.867315 53.565391 16.126939
v    28.846802 52.115973 17.196501
v    27.528465 51.695751 17.626567
v    26.414245 51.325883 17.613523
v    33.119681 57.144013 14.991610
v    32.724918 56.836753 15.328337
v    30.740527 55.330212 16.126939
v    28.154623 53.200093 17.196501
v    27.218647 52.181001 17.626567
v    26.414245 51.325883 17.613523
v    51.754097 70.184883 26.524130
v    52.258166 70.489248 26.712871
v    54.455316 71.699648 27.513698
v    56.099646 72.617848 27.492257
v    59.232108 73.856779 27.454830
v    53.381881 67.925649 26.524130
v    53.830157 68.307449 26.712871
v    55.673819 70.008464 27.513698
v    57.065311 71.277581 27.492257
v    59.232108 73.856779 27.454830
v    22.776773 47.115495 40.342714
v    21.589094 46.532316 40.765119
v    20.044553 45.762870 40.745474
v    16.032240 44.390596 40.698359
v    21.251586 49.457373 40.342714
v    20.237971 48.606923 40.765119
v    18.909700 47.505402 40.745474
v    16.032240 44.390596 40.698359
v    67.212823 76.753836 60.573343
v    68.575046 77.315880 60.556566
v    72.630853 78.389067 60.509953
v    73.618993 78.646389 60.329077
v    68.621497 74.214030 60.573343
v    69.819574 75.072026 60.556566
v    72.877491 77.944385 60.509953
v    73.618993 78.646389 60.329077
v    0.682694 47.899423 84.486022
v    0.380108 47.855268 84.482541
v    -3.155165 47.811907 84.443259
v    -5.905068 47.788969 83.956126
v    -0.133108 50.966277 84.486022
v    -0.417641 50.854255 84.482541
v    -3.507213 49.135367 84.443259
v    -5.905068 47.788969 83.956126
v    81.783704 78.907637 107.128341
v    87.607911 79.762538 107.062937
v    82.890452 76.241484 107.128341
v    87.607911 79.762538 107.062937
v    -4.316888 22.096648 133.838085
v    -6.784002 20.932819 133.807777
v    -8.391913 20.182007 133.493431
v    -5.728349 23.812035 133.838085
v    -7.345506 21.615230 133.807777
v    -8.391913 20.182007 133.493431
v    84.419271 107.556733 157.116892
v    87.001662 109.176802 157.083021
v    85.499995 106.523811 157.116892
v    87.001662 109.176802 157.083021
v    -3.597794 14.867544 172.773167
v    -5.302123 13.829229 172.750994
v    -4.296361 15.552969 172.773167
v    -5.302123 13.829229 172.750994
mtllib usm_1_2.5D_2018-08-20_1.mtl
usemtl APPID_1439680864_2556943053664 
o vid_3 
f 3 2 1
f 4 5 6
f 1 6 5
f 1 5 3
f 3 5 4
f 4 2 3
f 2 4 6
f 6 1 2
usemtl APPID_1439682096_2556943059552 
o vid_4 
f 7 10 11
f 7 11 8
f 8 11 12
f 8 12 9
usemtl APPID_1439680864_2556943053664 
o vid_5 
f 15 14 13
f 16 17 18
f 13 18 17
f 13 17 15
f 15 17 16
f 16 14 15
f 14 16 18
f 18 13 14
usemtl APPID_1439682096_2556943059552 
o vid_6 
f 19 21 22
f 19 22 20
f 19 21 22
f 19 22 20
usemtl APPID_1439680864_2556943053664 
o vid_7 
f 25 24 23
f 26 27 28
f 23 28 27
f 23 27 25
f 25 27 26
f 26 24 25
f 24 26 28
f 28 23 24
usemtl APPID_1439682096_2556943059552 
o vid_8 
f 29 32 33
f 29 33 30
f 30 33 34
f 30 34 31
usemtl APPID_1439680864_2556943053664 
o vid_9 
f 37 36 35
f 38 39 40
f 35 40 39
f 35 39 37
f 37 39 38
f 38 36 37
f 36 38 40
f 40 35 36
usemtl APPID_1439682096_2556943059552 
o vid_10 
f 41 44 45
f 41 45 42
f 42 45 46
f 42 46 43
usemtl APPID_1439680864_2556943053664 
o vid_11 
f 49 48 47
f 50 51 52
f 47 52 51
f 47 51 49
f 49 51 50
f 50 48 49
f 48 50 52
f 52 47 48
usemtl APPID_1439682096_2556943059552 
o vid_12 
f 53 57 58
f 54 58 59
f 53 58 54
f 54 59 55
f 55 59 60
f 55 60 56
usemtl APPID_1439680864_2556943053664 
o vid_13 
f 63 62 61
f 64 65 66
f 61 66 65
f 61 65 63
f 63 65 64
f 64 62 63
f 62 64 66
f 66 61 62
usemtl APPID_1439682096_2556943059552 
o vid_14 
f 67 71 72
f 68 72 73
f 67 72 68
f 68 73 69
f 69 73 74
f 69 74 70
usemtl APPID_1439680864_2556943053664 
o vid_15 
f 77 76 75
f 78 79 80
f 75 80 79
f 75 79 77
f 77 79 78
f 78 76 77
f 76 78 80
f 80 75 76
usemtl APPID_1439682096_2556943059552 
o vid_16 
f 81 85 86
f 82 86 87
f 81 86 82
f 82 87 83
f 83 87 88
f 83 88 84
usemtl APPID_1439680864_2556943053664 
o vid_17 
f 91 90 89
f 92 93 94
f 89 94 93
f 89 93 91
f 91 93 92
f 92 90 91
f 90 92 94
f 94 89 90
usemtl APPID_1439682096_2556943059552 
o vid_18 
f 95 100 101
f 96 101 102
f 97 102 103
f 95 101 96
f 96 102 97
f 97 103 98
f 98 103 104
f 98 104 99
usemtl APPID_1439680864_2556943053664 
o vid_19 
f 107 106 105
f 108 109 110
f 105 110 109
f 105 109 107
f 107 109 108
f 108 106 107
f 106 108 110
f 110 105 106
usemtl APPID_1439682096_2556943059552 
o vid_20 
f 111 117 118
f 112 118 119
f 113 119 120
f 114 120 121
f 111 118 112
f 112 119 113
f 113 120 114
f 114 121 115
f 115 121 122
f 115 122 116
usemtl APPID_1439680864_2556943053664 
o vid_21 
f 125 124 123
f 126 127 128
f 123 128 127
f 123 127 125
f 125 127 126
f 126 124 125
f 124 126 128
f 128 123 124
usemtl APPID_1439682096_2556943059552 
o vid_22 
f 129 135 136
f 130 136 137
f 131 137 138
f 132 138 139
f 129 136 130
f 130 137 131
f 131 138 132
f 132 139 133
f 133 139 140
f 133 140 134
usemtl APPID_1439680864_2556943053664 
o vid_23 
f 143 142 141
f 144 145 146
f 141 146 145
f 141 145 143
f 143 145 144
f 144 142 143
f 142 144 146
f 146 141 142
usemtl APPID_1439682096_2556943059552 
o vid_24 
f 147 155 156
f 148 156 157
f 149 157 158
f 150 158 159
f 151 159 160
f 152 160 161
f 147 156 148
f 148 157 149
f 149 158 150
f 150 159 151
f 151 160 152
f 152 161 153
f 153 161 162
f 153 162 154
usemtl APPID_1439680864_2556943053664 
o vid_25 
f 165 164 163
f 166 167 168
f 163 168 167
f 163 167 165
f 165 167 166
f 166 164 165
f 164 166 168
f 168 163 164
usemtl APPID_1439682096_2556943059552 
o vid_26 
f 169 176 177
f 170 177 178
f 171 178 179
f 172 179 180
f 173 180 181
f 169 177 170
f 170 178 171
f 171 179 172
f 172 180 173
f 173 181 174
f 174 181 182
f 174 182 175
usemtl APPID_1439680864_2556943053664 
o vid_27 
f 185 184 183
f 186 187 188
f 183 188 187
f 183 187 185
f 185 187 186
f 186 184 185
f 184 186 188
f 188 183 184
usemtl APPID_1439682096_2556943059552 
o vid_28 
f 189 197 198
f 190 198 199
f 191 199 200
f 192 200 201
f 193 201 202
f 194 202 203
f 189 198 190
f 190 199 191
f 191 200 192
f 192 201 193
f 193 202 194
f 194 203 195
f 195 203 204
f 195 204 196
usemtl APPID_1439680864_2556943053664 
o vid_29 
f 207 206 205
f 208 209 210
f 205 210 209
f 205 209 207
f 207 209 208
f 208 206 207
f 206 208 210
f 210 205 206
usemtl APPID_1439682096_2556943059552 
o vid_30 
f 211 218 219
f 212 219 220
f 213 220 221
f 214 221 222
f 215 222 223
f 211 219 212
f 212 220 213
f 213 221 214
f 214 222 215
f 215 223 216
f 216 223 224
f 216 224 217
usemtl APPID_1439680864_2556943053664 
o vid_31 
f 227 226 225
f 228 229 230
f 225 230 229
f 225 229 227
f 227 229 228
f 228 226 227
f 226 228 230
f 230 225 226
usemtl APPID_1439682096_2556943059552 
o vid_32 
f 231 237 238
f 232 238 239
f 233 239 240
f 234 240 241
f 231 238 232
f 232 239 233
f 233 240 234
f 234 241 235
f 235 241 242
usemtl APPID_1439680864_2556943053664 
o vid_33 
f 245 244 243
f 246 247 248
f 243 248 247
f 243 247 245
f 245 247 246
f 246 244 245
f 244 246 248
f 248 243 244
usemtl APPID_1439682096_2556943059552 
o vid_34 
f 249 256 257
f 250 257 258
f 251 258 259
f 252 259 260
f 253 260 261
f 249 257 250
f 250 258 251
f 251 259 252
f 252 260 253
f 253 261 254
f 254 261 262
usemtl APPID_1439680864_2556943053664 
o vid_35 
f 265 264 263
f 266 267 268
f 263 268 267
f 263 267 265
f 265 267 266
f 266 264 265
f 264 266 268
f 268 263 264
usemtl APPID_1439682096_2556943059552 
o vid_36 
f 269 275 276
f 270 276 277
f 271 277 278
f 272 278 279
f 269 276 270
f 270 277 271
f 271 278 272
f 272 279 273
f 273 279 280
usemtl APPID_1439680864_2556943053664 
o vid_37 
f 283 282 281
f 284 285 286
f 281 286 285
f 281 285 283
f 283 285 284
f 284 282 283
f 282 284 286
f 286 281 282
usemtl APPID_1439682096_2556943059552 
o vid_38 
f 287 293 294
f 288 294 295
f 289 295 296
f 290 296 297
f 287 294 288
f 288 295 289
f 289 296 290
f 290 297 291
f 291 297 298
usemtl APPID_1439650624_2556943058400 
o vid_10000004 
f 299 304 305
f 300 305 306
f 301 306 307
f 299 305 300
f 300 306 301
f 301 307 302
f 302 307 308
usemtl APPID_1439650624_2556943058400 
o vid_10000006 
f 309 315 316
f 310 316 317
f 311 317 318
f 312 318 319
f 309 316 310
f 310 317 311
f 311 318 312
f 312 319 313
f 313 319 320
usemtl APPID_1439650624_2556943058400 
o vid_10000008 
f 321 328 329
f 322 329 330
f 323 330 331
f 324 331 332
f 325 332 333
f 321 329 322
f 322 330 323
f 323 331 324
f 324 332 325
f 325 333 326
f 326 333 334
usemtl APPID_1439650624_2556943058400 
o vid_10000010 
f 335 342 343
f 336 343 344
f 337 344 345
f 338 345 346
f 339 346 347
f 335 343 336
f 336 344 337
f 337 345 338
f 338 346 339
f 339 347 340
f 340 347 348
usemtl APPID_1439650624_2556943058400 
o vid_10000012 
f 349 354 355
f 350 355 356
f 351 356 357
f 349 355 350
f 350 356 351
f 351 357 352
f 352 357 358
usemtl APPID_1439650624_2556943058400 
o vid_10000014 
f 359 365 366
f 360 366 367
f 361 367 368
f 362 368 369
f 359 366 360
f 360 367 361
f 361 368 362
f 362 369 363
f 363 369 370
usemtl APPID_1439650624_2556943058400 
o vid_10000016 
f 371 376 377
f 372 377 378
f 373 378 379
f 371 377 372
f 372 378 373
f 373 379 374
f 374 379 380
usemtl APPID_1439650624_2556943058400 
o vid_10000018 
f 381 385 386
f 382 386 387
f 381 386 382
f 382 387 383
f 383 387 388
usemtl APPID_1439650624_2556943058400 
o vid_10000020 
f 389 393 394
f 390 394 395
f 389 394 390
f 390 395 391
f 391 395 396
usemtl APPID_1439650624_2556943058400 
o vid_10000022 
f 397 401 402
f 398 402 403
f 397 402 398
f 398 403 399
f 399 403 404
usemtl APPID_1439650624_2556943058400 
o vid_10000024 
f 405 407 408
f 405 408 406
f 405 407 408
usemtl APPID_1439650624_2556943058400 
o vid_10000026 
f 409 412 413
f 409 413 410
f 410 413 414
usemtl APPID_1439650624_2556943058400 
o vid_10000028 
f 415 417 418
f 415 418 416
f 415 417 418
usemtl APPID_1439650624_2556943058400 
o vid_10000030 
f 419 421 422
f 419 422 420
f 419 421 422
