# File generated by PlantGL - Fri Sep  4 14:43:06 2026
v    218.201987 19.124129 0.000000
v    221.657533 18.880811 0.000000
v    220.140480 21.995060 0.000000
v    221.798013 20.875871 0.231332
v    218.342467 21.119189 0.231332
v    219.859520 18.004940 0.231332
v    220.975628 20.818411 -2.411656
v    221.992992 20.970852 -1.477974
v    221.245829 20.263734 -2.411656
v    221.992992 20.970852 -1.477974
v    221.503548 21.204422 0.231332
v    218.205166 20.699900 0.231332
v    220.291286 18.095678 0.231332
v    218.496452 18.795578 0.322458
v    221.794834 19.300100 0.322458
v    219.708714 21.904322 0.322458
v    219.341478 18.963489 -2.320531
v    218.106797 18.483444 -1.118196
v    218.844750 19.583583 -2.320531
v    218.106797 18.483444 -1.118196
v    218.272844 19.328938 0.322458
v    221.444735 18.839770 0.322458
v    220.282421 21.831292 0.322458
v    221.727156 20.671062 0.466406
v    218.555265 21.160230 0.466406
v    219.717579 18.168708 0.466406
v    220.814070 20.910207 -2.176583
v    222.656095 21.031988 -0.501084
v    221.215050 19.878179 -2.176583
v    222.656095 21.031988 -0.501084
v    221.512174 20.357714 0.466406
v    218.934124 21.130724 0.466406
v    219.553702 18.511562 0.466406
v    218.487826 19.642286 0.678771
v    221.065876 18.869276 0.678771
v    220.446298 21.488438 0.678771
v    219.412909 19.052609 -1.964218
v    216.796066 19.242091 0.417086
v    219.050664 20.583940 -1.964218
v    216.796066 19.242091 0.417086
v    219.194175 19.079810 0.678771
v    221.199820 19.762230 0.678771
v    219.606005 21.157959 0.678771
v    220.805825 20.920190 0.903326
v    218.800180 20.237770 0.903326
v    220.393995 18.842041 0.903326
v    219.392543 21.141628 -1.739662
v    222.836216 23.238740 1.919811
v    221.211796 19.548480 -1.739662
v    222.836216 23.238740 1.919811
v    220.771529 20.492600 0.903326
v    219.187632 20.421864 0.903326
v    220.040839 19.085536 0.903326
v    219.228471 19.507400 1.432322
v    220.812368 19.578136 1.432322
v    219.959161 20.914464 1.432322
v    220.787166 18.486731 -1.210667
v    215.317143 17.010129 3.931715
v    218.958490 21.350878 -1.210667
v    215.317143 17.010129 3.931715
v    219.488388 19.631382 1.432322
v    220.575038 19.741240 1.432322
v    219.936574 20.627378 1.432322
v    220.511612 20.368618 1.865000
v    219.424962 20.258760 1.865000
v    220.063426 19.372622 1.865000
v    218.562772 20.727007 -3.461489
v    222.875947 22.072126 1.127506
v    220.234669 18.406546 -3.461489
v    222.875947 22.072126 1.127506
mtllib usm_32_2.5D_2018-07-26_5.mtl
usemtl APPID_3467386384_2121046653152 
o vid_3 
f 3 2 1
f 4 5 6
f 1 6 5
f 1 5 3
f 3 5 4
f 4 2 3
f 2 4 6
f 6 1 2
usemtl APPID_3467390976_2121046647136 
o vid_4 
f 7 9 10
f 7 10 8
f 7 9 10
usemtl APPID_3467386384_2121046653152 
o vid_5 
f 13 12 11
f 14 15 16
f 11 16 15
f 11 15 13
f 13 15 14
f 14 12 13
f 12 14 16
f 16 11 12
usemtl APPID_3467390976_2121046647136 
o vid_6 
f 17 19 20
f 17 20 18
f 17 19 20
usemtl APPID_3467386384_2121046653152 
o vid_7 
f 23 22 21
f 24 25 26
f 21 26 25
f 21 25 23
f 23 25 24
f 24 22 23
f 22 24 26
f 26 21 22
usemtl APPID_3467390976_2121046647136 
o vid_8 
f 27 29 30
f 27 30 28
f 27 29 30
usemtl APPID_3467386384_2121046653152 
o vid_9 
f 33 32 31
f 34 35 36
f 31 36 35
f 31 35 33
f 33 35 34
f 34 32 33
f 32 34 36
f 36 31 32
usemtl APPID_3467390976_2121046647136 
o vid_10 
f 37 39 40
f 37 40 38
f 37 39 40
usemtl APPID_3467386384_2121046653152 
o vid_11 
f 43 42 41
f 44 45 46
f 41 46 45
f 41 45 43
f 43 45 44
f 44 42 43
f 42 44 46
f 46 41 42
usemtl APPID_3467390976_2121046647136 
o vid_12 
f 47 49 50
f 47 50 48
f 47 49 50
usemtl APPID_3467386384_2121046653152 
o vid_13 
f 53 52 51
f 54 55 56
f 51 56 55
f 51 55 53
f 53 55 54
f 54 52 53
f 52 54 56
f 56 51 52
usemtl APPID_3467390976_2121046647136 
o vid_14 
f 57 59 60
f 57 60 58
f 57 59 60
usemtl APPID_3467386384_2121046653152 
o vid_15 
f 63 62 61
f 64 65 66
f 61 66 65
f 61 65 63
f 63 65 64
f 64 62 63
f 62 64 66
f 66 61 62
usemtl APPID_3467390976_2121046647136 
o vid_16 
f 67 69 70
f 67 70 68
f 67 69 70
