# File generated by PlantGL - Fri Sep  4 14:41:14 2026
v    18.201987 39.124129 0.000000
v    21.657533 38.880811 0.000000
v    20.140480 41.995060 0.000000
v    21.798013 40.875871 0.231332
v    18.342467 41.119189 0.231332
v    19.859520 38.004940 0.231332
v    21.514455 41.248526 -0.085763
v    22.436235 41.573097 0.837883
v    23.293069 41.864034 1.403329
v    23.538269 41.911287 1.555212
v    24.257812 42.074120 1.737101
v    21.916655 40.422880 -0.085763
v    22.740434 40.948628 0.837883
v    23.497696 41.443970 1.403329
v    23.686051 41.607916 1.555212
v    24.257812 42.074120 1.737101
v    21.503548 41.204422 0.231332
v    18.205166 40.699900 0.231332
v    20.291286 38.095678 0.231332
v    18.496452 38.795578 0.322957
v    21.794834 39.300100 0.322957
v    19.708714 41.904322 0.322957
v    18.981697 38.396126 -0.122956
v    17.974857 37.763993 1.000662
v    17.813752 37.670474 1.175914
v    16.993862 37.170975 1.775671
v    16.377840 36.901430 2.184652
v    15.770857 36.612231 2.350422
v    18.212540 39.356308 -0.122956
v    17.375894 38.511711 1.000662
v    17.249468 38.374902 1.175914
v    16.583062 37.683799 1.775671
v    16.185563 37.141459 2.184652
v    15.770857 36.612231 2.350422
v    18.507343 39.420049 0.322957
v    21.248580 38.997297 0.322957
v    20.244076 41.582654 0.322957
v    21.492657 40.579951 0.466906
v    18.751420 41.002703 0.466906
v    19.755924 38.417346 0.466906
v    21.057022 41.211239 -0.146515
v    21.794191 41.404062 0.573657
v    22.900318 41.652747 1.640276
v    23.190510 41.724493 1.827019
v    24.919345 41.911342 2.884671
v    21.597513 39.820143 -0.146515
v    22.271492 40.175602 0.573657
v    23.255359 40.738954 1.640276
v    23.517868 40.881952 1.827019
v    24.919345 41.911342 2.884671
v    21.225950 40.290006 0.466906
v    19.135873 40.916701 0.466906
v    19.638177 38.793293 0.466906
v    18.774050 39.709994 0.679271
v    20.864127 39.083299 0.679271
v    20.361823 41.206707 0.679271
v    19.230109 38.819327 -0.146223
v    18.493260 38.732317 0.555044
v    16.689032 38.582495 2.258301
v    14.279722 38.646835 3.725781
v    18.782718 40.710595 -0.146223
v    18.084982 40.458247 0.555044
v    16.404851 39.783823 2.258301
v    14.279722 38.646835 3.725781
v    19.379939 39.291939 0.679271
v    20.923230 39.817042 0.679271
v    19.696831 40.891019 0.679271
v    20.620061 40.708061 0.920461
v    19.076770 40.182958 0.920461
v    20.303169 39.108981 0.920461
v    19.430710 41.331765 -0.166258
v    20.325067 42.143187 0.975093
v    21.967637 43.532680 2.999170
v    22.239828 43.773030 3.226014
v    24.801951 45.483458 5.099721
v    21.395235 39.611400 -0.166258
v    22.081562 40.604998 0.975093
v    23.242186 42.416537 2.999170
v    23.444522 42.718060 3.226014
v    24.801951 45.483458 5.099721
v    20.544114 40.347401 0.920461
v    19.427085 40.297516 0.920461
v    20.028801 39.355083 0.920461
v    19.455886 39.652599 1.248000
v    20.572915 39.702484 1.248000
v    19.971199 40.644917 1.248000
v    20.679077 38.969839 -1.585178
v    19.552756 38.491105 -0.173235
v    16.833963 37.851333 2.910277
v    16.463939 37.742326 3.200900
v    19.351255 41.049528 -1.585178
v    18.443003 40.229244 -0.173235
v    16.718535 38.032121 2.910277
v    16.463939 37.742326 3.200900
mtllib usm_4_Beer_2018-07-23_0.mtl
usemtl APPID_1763746256_2531587839072 
o vid_3 
f 3 2 1
f 4 5 6
f 1 6 5
f 1 5 3
f 3 5 4
f 4 2 3
f 2 4 6
f 6 1 2
usemtl APPID_1763749280_2531587835360 
o vid_4 
f 7 12 13
f 8 13 14
f 9 14 15
f 7 13 8
f 8 14 9
f 9 15 10
f 10 15 16
usemtl APPID_1763746256_2531587839072 
o vid_5 
f 19 18 17
f 20 21 22
f 17 22 21
f 17 21 19
f 19 21 20
f 20 18 19
f 18 20 22
f 22 17 18
usemtl APPID_1763749280_2531587835360 
o vid_6 
f 23 29 30
f 24 30 31
f 25 31 32
f 26 32 33
f 23 30 24
f 24 31 25
f 25 32 26
f 26 33 27
f 27 33 34
usemtl APPID_1763746256_2531587839072 
o vid_7 
f 37 36 35
f 38 39 40
f 35 40 39
f 35 39 37
f 37 39 38
f 38 36 37
f 36 38 40
f 40 35 36
usemtl APPID_1763749280_2531587835360 
o vid_8 
f 41 46 47
f 42 47 48
f 43 48 49
f 41 47 42
f 42 48 43
f 43 49 44
f 44 49 50
usemtl APPID_1763746256_2531587839072 
o vid_9 
f 53 52 51
f 54 55 56
f 51 56 55
f 51 55 53
f 53 55 54
f 54 52 53
f 52 54 56
f 56 51 52
usemtl APPID_1763749280_2531587835360 
o vid_10 
f 57 61 62
f 58 62 63
f 57 62 58
f 58 63 59
f 59 63 64
usemtl APPID_1763746256_2531587839072 
o vid_11 
f 67 66 65
f 68 69 70
f 65 70 69
f 65 69 67
f 67 69 68
f 68 66 67
f 66 68 70
f 70 65 66
usemtl APPID_1763749280_2531587835360 
o vid_12 
f 71 76 77
f 72 77 78
f 73 78 79
f 71 77 72
f 72 78 73
f 73 79 74
f 74 79 80
usemtl APPID_1763746256_2531587839072 
o vid_13 
f 83 82 81
f 84 85 86
f 81 86 85
f 81 85 83
f 83 85 84
f 84 82 83
f 82 84 86
f 86 81 82
usemtl APPID_1763749280_2531587835360 
o vid_14 
f 87 91 92
f 88 92 93
f 87 92 88
f 88 93 89
f 89 93 94
