# File generated by PlantGL - Fri Sep  4 14:43:27 2026
v    17.752484 178.905161 0.000000
v    22.071916 178.601013 0.000000
v    20.175600 182.493825 0.000000
v    22.247516 181.094839 0.848509
v    17.928084 181.398987 0.848509
v    19.824400 177.506175 0.848509
v    22.061987 181.449497 0.688834
v    22.413578 181.583545 1.038490
v    22.541246 181.629833 1.164481
v    23.033355 181.815140 1.518436
v    22.412415 180.730130 0.688834
v    22.734695 180.924348 1.038490
v    22.849841 180.996342 1.164481
v    23.299102 181.269607 1.518436
v    21.879284 181.505407 0.848509
v    17.756638 180.874804 0.848509
v    20.364078 177.619789 0.848509
v    18.120716 178.494593 1.417165
v    22.243362 179.125196 1.417165
v    19.635922 182.380211 1.417165
v    18.493386 178.055333 1.191260
v    17.958322 177.699916 1.788164
v    17.042241 177.098028 2.546856
v    16.188012 176.520801 2.877317
v    17.773384 178.954152 1.191260
v    17.309753 178.509561 1.788164
v    16.522434 177.746933 2.546856
v    15.772679 177.039284 2.877317
v    17.841416 179.161313 1.417165
v    21.805616 178.549955 1.417165
v    20.352968 182.288732 1.417165
v    22.158584 180.838687 2.253766
v    18.194384 181.450045 2.253766
v    19.647032 177.711268 2.253766
v    21.871294 181.515935 1.940435
v    22.042938 181.565576 2.106472
v    22.841110 181.782284 2.873795
v    24.193989 182.167532 3.820650
v    25.042704 182.420294 4.104499
v    25.652540 182.575855 4.305421
v    22.403900 180.145132 1.940435
v    22.564034 180.224398 2.106472
v    23.299140 180.603423 2.873795
v    24.557232 181.232630 3.820650
v    25.353963 181.619184 4.104499
v    25.908855 181.916161 4.305421
v    22.163962 180.511898 2.253766
v    18.474702 181.618097 2.253766
v    19.361335 177.870005 2.253766
v    17.836038 179.488102 4.112548
v    21.525298 178.381903 4.112548
v    20.638665 182.129995 4.112548
v    18.105092 178.483714 3.686489
v    17.425201 178.385661 4.324814
v    16.750712 178.299664 4.955646
v    14.856454 178.034421 6.243152
v    13.094990 177.766123 6.814272
v    11.392428 177.575562 7.361203
v    17.626570 180.506585 3.686489
v    16.974807 180.289628 4.324814
v    16.333274 180.064313 4.955646
v    14.520942 179.452740 6.243152
v    12.825961 178.903396 6.814272
v    11.218469 178.310945 7.361203
v    18.595695 178.396392 4.112548
v    22.090917 179.585640 4.112548
v    19.313387 182.017967 4.112548
v    21.404305 181.603608 5.999272
v    17.909083 180.414360 5.999272
v    20.686613 177.982033 5.999272
v    20.283419 182.530935 5.431303
v    21.503766 183.696652 6.999546
v    23.452655 185.540775 8.839534
v    25.877880 187.894457 9.922800
v    27.339754 189.204657 10.549508
v    27.751622 189.578079 10.543179
v    28.011154 189.757101 10.539676
v    22.471415 180.614872 5.431303
v    23.465928 181.978355 6.999546
v    25.036793 184.153520 8.839534
v    27.049914 186.868088 9.922800
v    28.155781 188.490049 10.549508
v    28.471596 188.947586 10.543179
v    28.614810 189.228469 10.539676
v    21.718982 181.097521 5.999272
v    18.190028 180.939922 5.999272
v    20.090990 177.962557 5.999272
v    18.281018 178.902479 12.880915
v    21.809972 179.060078 12.880915
v    19.909010 182.037443 12.880915
v    19.368550 177.298257 12.138632
v    17.257053 176.201205 14.349767
v    14.295817 174.673640 16.592873
v    9.915862 172.353738 18.181565
v    8.091276 171.478195 18.827650
v    6.926737 170.911133 18.812904
v    5.770563 170.527338 18.799369
v    17.283398 180.564107 12.138632
v    15.399667 179.110319 14.349767
v    12.767815 177.066859 16.592873
v    8.820183 174.069834 18.181565
v    7.258129 172.783103 18.827650
v    6.253668 171.965321 18.812904
v    5.418978 171.078005 18.799369
v    18.420020 178.861621 12.880915
v    21.775855 179.200887 12.880915
v    19.804125 181.937492 12.880915
v    21.579980 181.138379 19.681199
v    18.224145 180.799113 19.681199
v    20.195875 178.062508 19.681199
v    20.092308 183.086244 18.730149
v    22.668356 184.613990 21.513253
v    26.396371 186.803483 24.437146
v    31.429081 189.842320 26.321563
v    34.114771 191.321854 27.300456
v    35.129982 191.888751 27.287218
v    37.243683 192.724749 27.261963
v    22.956758 179.110615 18.730149
v    25.221386 181.070587 21.513253
v    28.478385 183.913813 24.437146
v    32.954051 187.725784 26.321563
v    35.207653 189.805021 27.300456
v    36.066762 190.588575 27.287218
v    37.528858 192.328949 27.261963
v    21.554633 181.012481 19.681199
v    18.345849 180.840111 19.681199
v    20.099518 178.147408 19.681199
v    18.445367 178.987519 30.874713
v    21.654151 179.159889 30.874713
v    19.900482 181.852592 30.874713
v    20.237478 176.393082 29.680102
v    16.855381 174.596877 33.238649
v    12.115507 172.090182 36.848646
v    4.661983 168.055652 39.565294
v    2.187832 166.840782 40.445242
v    -0.148440 165.676918 40.415526
v    -3.398530 164.565337 40.377362
v    16.797118 181.675649 29.680102
v    13.786755 179.308658 33.238649
v    9.577559 175.987122 36.848646
v    2.873739 170.801446 39.565294
v    0.762194 169.029804 40.445242
v    -1.246948 167.363644 40.415526
v    -3.577774 164.840561 40.377362
v    18.582986 179.214069 30.874713
v    21.389143 179.165795 30.874713
v    20.027871 181.620136 30.874713
v    21.417014 180.785931 48.402209
v    18.610857 180.834205 48.402209
v    19.972129 178.379864 48.402209
v    19.317628 184.353132 46.931120
v    23.628639 186.264589 51.313249
v    27.573907 188.063244 54.235511
v    29.646358 188.971970 55.758737
v    42.233173 194.672571 60.187722
v    48.849007 197.418019 60.106156
v    51.265744 198.057500 60.078380
v    53.353951 198.601292 59.696140
v    23.331517 177.116186 46.931120
v    27.235680 179.761181 51.313249
v    30.850492 182.155638 54.235511
v    32.718725 183.432567 55.758737
v    44.219246 191.091731 60.187722
v    50.051280 195.250349 60.106156
v    51.873403 196.961904 60.078380
v    53.440399 198.445428 59.696140
v    21.231791 180.327664 48.402209
v    19.100339 180.902931 48.402209
v    19.667870 178.769405 48.402209
v    18.768209 179.672336 69.780616
v    20.899661 179.097069 69.780616
v    20.332130 181.230595 69.780616
v    20.193627 174.810182 68.004624
v    14.583421 173.841772 73.295006
v    8.560753 172.737496 77.421735
v    -9.671370 169.463929 84.008828
v    -19.280055 168.002973 83.898104
v    -25.235197 167.945785 83.161163
v    17.589447 184.600103 68.004624
v    12.239564 182.653061 73.295006
v    6.464226 180.618995 77.421735
v    -10.984709 174.401180 84.008828
v    -20.049331 170.894921 83.898104
v    -25.245817 167.985708 83.161163
v    19.115517 179.632842 69.780616
v    20.760210 179.417594 69.780616
v    20.124273 180.949564 69.780616
v    20.884483 180.367158 89.654457
v    19.239790 180.582406 89.654457
v    19.875727 179.050436 89.654457
v    18.587518 185.506576 87.552460
v    25.015947 187.526227 93.813957
v    27.457522 188.321321 95.544545
v    34.015950 190.352226 100.165986
v    49.336485 195.299237 105.326388
v    52.860094 196.284450 106.494433
v    58.478163 197.890117 106.427912
v    65.624060 198.939021 106.347665
v    22.902446 175.111923 87.552460
v    28.871362 178.238539 93.813957
v    31.158248 179.406279 95.544545
v    37.226917 182.617012 100.165986
v    51.546993 189.974127 105.326388
v    54.732462 191.773921 106.494433
v    59.836066 194.618932 106.427912
v    65.624060 198.939021 106.347665
v    20.516970 180.425375 89.654457
v    19.373130 180.235022 89.654457
v    20.109900 179.339603 89.654457
v    19.483030 179.574625 110.192104
v    20.626870 179.764978 110.192104
v    19.890100 180.660397 110.192104
v    23.586594 174.863283 107.753100
v    17.595804 170.769606 114.495624
v    8.059501 164.318907 122.388914
v    -3.866971 156.029855 127.044367
v    -10.965135 151.503353 129.731982
v    -20.560089 146.626215 129.611554
v    15.650136 184.508681 107.753100
v    10.479388 179.418385 114.495624
v    2.312948 171.302853 122.388914
v    -8.117731 161.195921 127.044367
v    -13.926459 155.102333 129.731982
v    -20.560089 146.626215 129.611554
v    19.716661 179.703548 110.192104
v    20.398404 179.902847 110.192104
v    19.884935 180.393605 110.192104
v    20.283339 180.296452 114.100000
v    19.601596 180.097153 114.100000
v    20.115065 179.606395 114.100000
v    18.117175 184.042022 108.927962
v    19.038314 184.501021 113.328296
v    20.804106 185.075514 120.760280
v    22.509798 186.008995 125.498672
v    26.525834 186.827836 134.106389
v    24.123008 178.301833 108.927962
v    24.539895 179.242780 113.328296
v    25.033973 181.032739 120.760280
v    25.889388 182.778887 125.498672
v    26.525834 186.827836 134.106389
v    23.033355 181.815140 1.518436
v    23.212105 181.882450 1.647004
v    23.978185 182.181497 1.910604
v    24.621079 182.403486 2.127737
v    25.178621 182.522676 2.121394
v    23.299102 181.269607 1.518436
v    23.462289 181.368866 1.647004
v    24.169993 181.787748 1.910604
v    24.741086 182.157132 2.127737
v    25.178621 182.522676 2.121394
v    16.188012 176.520801 2.877317
v    15.959631 176.366477 2.965666
v    15.263756 175.935455 3.226985
v    15.110006 175.838997 3.224919
v    14.403703 175.517068 3.216294
v    15.772679 177.039284 2.877317
v    15.572229 176.850092 2.965666
v    14.999717 176.265069 3.226985
v    14.872028 176.136079 3.224919
v    14.403703 175.517068 3.216294
v    25.652540 182.575855 4.305421
v    26.375198 182.760196 4.543515
v    27.080189 182.838721 4.763989
v    27.411499 182.879633 4.760280
v    25.908855 181.916161 4.305421
v    26.566403 182.268079 4.543515
v    27.139477 182.686129 4.763989
v    27.411499 182.879633 4.760280
v    11.392428 177.575562 7.361203
v    11.236685 177.558130 7.411234
v    10.867964 177.568225 7.525879
v    9.790395 177.584859 7.513905
v    11.218469 178.310945 7.361203
v    11.071422 178.256750 7.411234
v    10.746304 178.082524 7.525879
v    9.790395 177.584859 7.513905
v    28.011154 189.757101 10.539676
v    29.358057 190.686179 10.521496
v    28.614810 189.228469 10.539676
v    29.358057 190.686179 10.521496
v    5.770563 170.527338 18.799369
v    4.506134 170.107609 18.784567
v    5.418978 171.078005 18.799369
v    4.506134 170.107609 18.784567
v    37.243683 192.724749 27.261963
v    38.168745 193.090624 27.250911
v    37.528858 192.328949 27.261963
v    38.168745 193.090624 27.250911
v    -3.398530 164.565337 40.377362
v    -4.032254 164.348593 40.369921
v    -3.577774 164.840561 40.377362
v    -4.032254 164.348593 40.369921
v    53.353951 198.601292 59.696140
v    53.700299 198.691484 59.632742
v    53.440399 198.445428 59.696140
v    53.700299 198.691484 59.632742
v    -25.235197 167.945785 83.161163
v    -25.318150 167.945093 83.146469
v    -25.245817 167.985708 83.161163
v    -25.318150 167.945093 83.146469
mtllib usm_22_2.5D_2018-08-06_4.mtl
usemtl APPID_681397408_1675719913712 
o vid_3 
f 3 2 1
f 4 5 6
f 1 6 5
f 1 5 3
f 3 5 4
f 4 2 3
f 2 4 6
f 6 1 2
usemtl APPID_681392368_1675719906288 
o vid_4 
f 7 11 12
f 8 12 13
f 7 12 8
f 8 13 9
f 9 13 14
f 9 14 10
usemtl APPID_681397408_1675719913712 
o vid_5 
f 17 16 15
f 18 19 20
f 15 20 19
f 15 19 17
f 17 19 18
f 18 16 17
f 16 18 20
f 20 15 16
usemtl APPID_681392368_1675719906288 
o vid_6 
f 21 25 26
f 22 26 27
f 21 26 22
f 22 27 23
f 23 27 28
f 23 28 24
usemtl APPID_681397408_1675719913712 
o vid_7 
f 31 30 29
f 32 33 34
f 29 34 33
f 29 33 31
f 31 33 32
f 32 30 31
f 30 32 34
f 34 29 30
usemtl APPID_681392368_1675719906288 
o vid_8 
f 35 41 42
f 36 42 43
f 37 43 44
f 38 44 45
f 35 42 36
f 36 43 37
f 37 44 38
f 38 45 39
f 39 45 46
f 39 46 40
usemtl APPID_681397408_1675719913712 
o vid_9 
f 49 48 47
f 50 51 52
f 47 52 51
f 47 51 49
f 49 51 50
f 50 48 49
f 48 50 52
f 52 47 48
usemtl APPID_681392368_1675719906288 
o vid_10 
f 53 59 60
f 54 60 61
f 55 61 62
f 56 62 63
f 53 60 54
f 54 61 55
f 55 62 56
f 56 63 57
f 57 63 64
f 57 64 58
usemtl APPID_681397408_1675719913712 
o vid_11 
f 67 66 65
f 68 69 70
f 65 70 69
f 65 69 67
f 67 69 68
f 68 66 67
f 66 68 70
f 70 65 66
usemtl APPID_681392368_1675719906288 
o vid_12 
f 71 78 79
f 72 79 80
f 73 80 81
f 74 81 82
f 75 82 83
f 71 79 72
f 72 80 73
f 73 81 74
f 74 82 75
f 75 83 76
f 76 83 84
f 76 84 77
usemtl APPID_681397408_1675719913712 
o vid_13 
f 87 86 85
f 88 89 90
f 85 90 89
f 85 89 87
f 87 89 88
f 88 86 87
f 86 88 90
f 90 85 86
usemtl APPID_681392368_1675719906288 
o vid_14 
f 91 98 99
f 92 99 100
f 93 100 101
f 94 101 102
f 95 102 103
f 91 99 92
f 92 100 93
f 93 101 94
f 94 102 95
f 95 103 96
f 96 103 104
f 96 104 97
usemtl APPID_681397408_1675719913712 
o vid_15 
f 107 106 105
f 108 109 110
f 105 110 109
f 105 109 107
f 107 109 108
f 108 106 107
f 106 108 110
f 110 105 106
usemtl APPID_681392368_1675719906288 
o vid_16 
f 111 118 119
f 112 119 120
f 113 120 121
f 114 121 122
f 115 122 123
f 111 119 112
f 112 120 113
f 113 121 114
f 114 122 115
f 115 123 116
f 116 123 124
f 116 124 117
usemtl APPID_681397408_1675719913712 
o vid_17 
f 127 126 125
f 128 129 130
f 125 130 129
f 125 129 127
f 127 129 128
f 128 126 127
f 126 128 130
f 130 125 126
usemtl APPID_681392368_1675719906288 
o vid_18 
f 131 138 139
f 132 139 140
f 133 140 141
f 134 141 142
f 135 142 143
f 131 139 132
f 132 140 133
f 133 141 134
f 134 142 135
f 135 143 136
f 136 143 144
f 136 144 137
usemtl APPID_681397408_1675719913712 
o vid_19 
f 147 146 145
f 148 149 150
f 145 150 149
f 145 149 147
f 147 149 148
f 148 146 147
f 146 148 150
f 150 145 146
usemtl APPID_681392368_1675719906288 
o vid_20 
f 151 159 160
f 152 160 161
f 153 161 162
f 154 162 163
f 155 163 164
f 156 164 165
f 151 160 152
f 152 161 153
f 153 162 154
f 154 163 155
f 155 164 156
f 156 165 157
f 157 165 166
f 157 166 158
usemtl APPID_681397408_1675719913712 
o vid_21 
f 169 168 167
f 170 171 172
f 167 172 171
f 167 171 169
f 169 171 170
f 170 168 169
f 168 170 172
f 172 167 168
usemtl APPID_681392368_1675719906288 
o vid_22 
f 173 179 180
f 174 180 181
f 175 181 182
f 176 182 183
f 173 180 174
f 174 181 175
f 175 182 176
f 176 183 177
f 177 183 184
f 177 184 178
usemtl APPID_681397408_1675719913712 
o vid_23 
f 187 186 185
f 188 189 190
f 185 190 189
f 185 189 187
f 187 189 188
f 188 186 187
f 186 188 190
f 190 185 186
usemtl APPID_681392368_1675719906288 
o vid_24 
f 191 199 200
f 192 200 201
f 193 201 202
f 194 202 203
f 195 203 204
f 196 204 205
f 191 200 192
f 192 201 193
f 193 202 194
f 194 203 195
f 195 204 196
f 196 205 197
f 197 205 206
usemtl APPID_681397408_1675719913712 
o vid_25 
f 209 208 207
f 210 211 212
f 207 212 211
f 207 211 209
f 209 211 210
f 210 208 209
f 208 210 212
f 212 207 208
usemtl APPID_681392368_1675719906288 
o vid_26 
f 213 219 220
f 214 220 221
f 215 221 222
f 216 222 223
f 213 220 214
f 214 221 215
f 215 222 216
f 216 223 217
f 217 223 224
usemtl APPID_681397408_1675719913712 
o vid_27 
f 227 226 225
f 228 229 230
f 225 230 229
f 225 229 227
f 227 229 228
f 228 226 227
f 226 228 230
f 230 225 226
usemtl APPID_681392368_1675719906288 
o vid_28 
f 231 236 237
f 232 237 238
f 233 238 239
f 231 237 232
f 232 238 233
f 233 239 234
f 234 239 240
usemtl APPID_681395392_1675719907312 
o vid_10000004 
f 241 246 247
f 242 247 248
f 243 248 249
f 241 247 242
f 242 248 243
f 243 249 244
f 244 249 250
usemtl APPID_681395392_1675719907312 
o vid_10000006 
f 251 256 257
f 252 257 258
f 253 258 259
f 251 257 252
f 252 258 253
f 253 259 254
f 254 259 260
usemtl APPID_681395392_1675719907312 
o vid_10000008 
f 261 265 266
f 262 266 267
f 261 266 262
f 262 267 263
f 263 267 268
usemtl APPID_681395392_1675719907312 
o vid_10000010 
f 269 273 274
f 270 274 275
f 269 274 270
f 270 275 271
f 271 275 276
usemtl APPID_681395392_1675719907312 
o vid_10000012 
f 277 279 280
f 277 280 278
f 277 279 280
usemtl APPID_681395392_1675719907312 
o vid_10000014 
f 281 283 284
f 281 284 282
f 281 283 284
usemtl APPID_681395392_1675719907312 
o vid_10000016 
f 285 287 288
f 285 288 286
f 285 287 288
usemtl APPID_681395392_1675719907312 
o vid_10000018 
f 289 291 292
f 289 292 290
f 289 291 292
usemtl APPID_681395392_1675719907312 
o vid_10000020 
f 293 295 296
f 293 296 294
f 293 295 296
usemtl APPID_681395392_1675719907312 
o vid_10000022 
f 297 299 300
f 297 300 298
f 297 299 300
