# File generated by PlantGL - Fri Sep  4 14:41:14 2026
v    28.796615 59.413792 0.000000
v    31.109364 59.250942 0.000000
v    30.094021 61.335266 0.000000
v    31.203385 60.586208 0.231332
v    28.890636 60.749058 0.231332
v    29.905979 58.664734 0.231332
v    30.913297 60.963494 -0.099049
v    31.830316 61.286388 0.819826
v    32.649777 61.561554 1.374450
v    33.031151 61.635049 1.610682
v    33.638729 61.772544 1.764268
v    31.321647 60.125221 -0.099049
v    32.141172 60.648254 0.819826
v    32.862978 61.123889 1.374450
v    33.155937 61.378885 1.610682
v    33.638729 61.772544 1.764268
v    30.771374 60.617912 0.231332
v    29.079185 60.359074 0.231332
v    30.149440 59.023014 0.231332
v    29.228626 59.382088 0.322458
v    30.920815 59.640926 0.322458
v    29.850560 60.976986 0.322458
v    29.717503 58.981823 -0.131501
v    28.753102 58.376335 0.944756
v    28.526917 58.245038 1.190804
v    27.763723 57.780080 1.749087
v    27.057818 57.471207 2.217741
v    26.528092 57.218817 2.362412
v    28.944713 59.946540 -0.131501
v    28.143333 59.137544 0.944756
v    27.965835 58.945469 1.190804
v    27.345512 58.302157 1.749087
v    26.890015 57.680685 2.217741
v    26.528092 57.218817 2.362412
v    29.383775 59.760574 0.322458
v    30.515461 59.586046 0.322458
v    30.100764 60.653380 0.322458
v    30.616225 60.239426 0.370000
v    29.484539 60.413954 0.370000
v    29.899236 59.346620 0.370000
v    30.241249 60.735550 -0.871103
v    30.932540 60.842987 0.324556
v    31.582484 60.804115 1.360048
v    32.121156 60.824145 1.943653
v    30.674571 59.620279 -0.871103
v    31.257059 60.007751 0.324556
v    31.710265 60.475236 1.360048
v    32.121156 60.824145 1.943653
mtllib usm_3_Beer_2018-07-13_3.mtl
usemtl APPID_726669392_2277208067440 
o vid_3 
f 3 2 1
f 4 5 6
f 1 6 5
f 1 5 3
f 3 5 4
f 4 2 3
f 2 4 6
f 6 1 2
usemtl APPID_726670624_2277208067184 
o vid_4 
f 7 12 13
f 8 13 14
f 9 14 15
f 7 13 8
f 8 14 9
f 9 15 10
f 10 15 16
usemtl APPID_726669392_2277208067440 
o vid_5 
f 19 18 17
f 20 21 22
f 17 22 21
f 17 21 19
f 19 21 20
f 20 18 19
f 18 20 22
f 22 17 18
usemtl APPID_726670624_2277208067184 
o vid_6 
f 23 29 30
f 24 30 31
f 25 31 32
f 26 32 33
f 23 30 24
f 24 31 25
f 25 32 26
f 26 33 27
f 27 33 34
usemtl APPID_726669392_2277208067440 
o vid_7 
f 37 36 35
f 38 39 40
f 35 40 39
f 35 39 37
f 37 39 38
f 38 36 37
f 36 38 40
f 40 35 36
usemtl APPID_726670624_2277208067184 
o vid_8 
f 41 45 46
f 42 46 47
f 41 46 42
f 42 47 43
f 43 47 48
