# File generated by PlantGL - Fri Sep  4 14:44:00 2026
v    17.752484 258.905161 0.000000
v    22.071916 258.601013 0.000000
v    20.175600 262.493825 0.000000
v    22.247516 261.094839 0.362700
v    17.928084 261.398987 0.362700
v    19.824400 257.506175 0.362700
v    22.063627 261.445718 0.200499
v    22.311063 261.540055 0.446573
v    22.339703 261.550439 0.474837
v    22.410449 260.733751 0.200499
v    22.637257 260.870434 0.446573
v    22.663088 260.886584 0.474837
v    21.879284 261.505407 0.362700
v    17.756638 260.874804 0.362700
v    20.364078 257.619789 0.362700
v    18.120716 258.494593 0.589630
v    22.243362 259.125196 0.589630
v    19.635922 262.380211 0.589630
v    18.481086 258.071011 0.360907
v    18.193263 257.879824 0.681996
v    17.866344 257.670319 1.042236
v    17.237147 257.256093 1.549303
v    17.786000 258.938726 0.360907
v    17.536602 258.699570 0.681996
v    17.260795 258.426259 1.042236
v    16.719228 257.902641 1.549303
v    17.841416 259.161313 0.589630
v    21.805616 258.549955 0.589630
v    20.352968 262.288732 0.589630
v    22.158584 260.838687 1.053978
v    18.194384 261.450045 1.053978
v    19.647032 257.711268 1.053978
v    21.860201 261.543905 0.737721
v    22.284276 261.666552 1.147942
v    22.837513 261.816759 1.679797
v    24.203026 262.205605 2.635494
v    25.148883 262.487297 2.951833
v    22.414601 260.117009 0.737721
v    22.810238 260.312849 1.147942
v    23.319763 260.575563 1.679797
v    24.589603 261.210646 2.635494
v    25.477527 261.641444 2.951833
v    22.163962 260.511898 1.053978
v    18.474702 261.618097 1.053978
v    19.361335 257.870005 1.053978
v    17.836038 259.488102 1.829186
v    21.525298 258.381903 1.829186
v    20.638665 262.129995 1.829186
v    18.108706 258.469288 1.400401
v    17.333004 258.357417 2.128679
v    16.746009 258.282576 2.677680
v    14.839626 258.015635 3.973428
v    12.948032 257.727516 4.586739
v    11.986753 257.619924 4.895541
v    17.623337 260.521102 1.400401
v    16.879727 260.273571 2.128679
v    16.321413 260.077483 2.677680
v    14.497481 259.461996 3.973428
v    12.677281 258.872068 4.586739
v    11.769679 258.537566 4.895541
v    18.595695 258.396392 1.829186
v    22.090917 259.585640 1.829186
v    19.313387 262.017967 1.829186
v    21.404305 261.603608 2.769464
v    17.909083 260.414360 2.769464
v    20.686613 257.982033 2.769464
v    20.308624 262.508664 2.199416
v    21.216700 263.376090 3.366367
v    21.637099 263.764673 3.897492
v    23.494897 265.524754 5.620119
v    25.520032 267.490148 6.524678
v    27.214453 269.008768 7.251080
v    22.446013 260.636919 2.199416
v    23.186043 261.651505 3.366367
v    23.515763 262.119498 3.897492
v    25.015339 264.193280 5.620119
v    26.696355 266.460023 6.524678
v    27.978137 268.339998 7.251080
v    21.718982 261.097521 2.769464
v    18.190028 260.939922 2.769464
v    20.090990 257.962557 2.769464
v    18.281018 258.902479 5.235228
v    21.809972 259.060078 5.235228
v    19.909010 262.037443 5.235228
v    19.282446 257.433227 4.492119
v    18.573540 257.064907 5.234477
v    17.154533 256.356980 6.705718
v    14.187856 254.831067 8.951322
v    11.900607 253.619595 9.780951
v    8.960216 252.208625 10.822142
v    8.605962 252.095706 10.937706
v    17.369602 260.429202 4.492119
v    16.737165 259.941112 5.234477
v    15.497836 258.951767 6.705718
v    12.865194 256.902675 8.951322
v    10.803708 255.337603 9.780951
v    8.286397 253.263987 10.822142
v    8.034889 252.990144 10.937706
v    18.420020 258.861621 5.235228
v    21.775855 259.200887 5.235228
v    19.804125 261.937492 5.235228
v    21.579980 261.138379 9.070287
v    18.224145 260.799113 9.070287
v    20.195875 258.062508 9.070287
v    20.073406 263.112623 8.120413
v    22.692411 264.665845 10.949928
v    26.365822 266.830608 13.820352
v    31.836663 270.133995 15.868820
v    34.062548 271.360225 16.680121
v    35.554129 272.193129 16.660671
v    36.884400 272.719269 16.644777
v    22.975797 259.084335 8.120413
v    25.278189 261.076991 10.949928
v    28.494445 263.876249 13.820352
v    33.359746 268.020077 15.868820
v    35.227519 269.743337 16.680121
v    36.489751 270.894561 16.660671
v    37.409930 271.989876 16.644777
v    21.554633 261.012481 9.070287
v    18.345849 260.840111 9.070287
v    20.099518 258.147408 9.070287
v    18.445367 258.987519 15.537192
v    21.654151 259.159889 15.537192
v    19.900482 261.852592 15.537192
v    20.307633 256.284828 14.346637
v    16.937017 254.494720 17.893102
v    14.611563 253.228487 19.677656
v    12.227384 251.974808 21.490845
v    3.001877 246.981118 24.853342
v    -1.878191 244.554466 25.021095
v    -4.509715 243.654444 24.990195
v    16.726475 261.783585 14.346637
v    13.726332 259.424630 17.893102
v    11.627935 257.809756 19.677656
v    9.517275 256.136097 21.490845
v    1.219704 249.717590 24.853342
v    -2.972970 246.235466 25.021095
v    -4.860187 244.192583 24.990195
v    18.458123 259.144816 15.537192
v    21.511550 259.092287 15.537192
v    20.030327 261.762897 15.537192
v    21.541877 260.855184 23.570456
v    18.488450 260.907713 23.570456
v    19.969673 258.237103 23.570456
v    19.554181 264.222181 22.107253
v    23.842080 266.123391 26.465889
v    25.368055 266.819086 27.596180
v    29.846178 268.782648 30.887545
v    39.939277 273.353839 34.439053
v    42.417151 274.359585 35.292785
v    46.053463 275.859905 35.248001
v    49.992622 276.902225 35.202728
v    23.345682 257.386194 22.107253
v    27.228915 260.017009 26.465889
v    28.627074 260.943152 27.596180
v    32.663923 263.702321 30.887545
v    41.885946 269.844041 34.439053
v    44.051150 271.413525 35.292785
v    47.249290 273.703856 35.248001
v    50.219259 276.493604 35.202728
v    21.558085 260.414460 23.570456
v    18.862025 261.142111 23.570456
v    19.579891 258.443429 23.570456
v    18.441915 259.585540 38.883082
v    21.137975 258.857889 38.883082
v    20.420109 261.556571 38.883082
v    19.876098 254.686892 37.119765
v    14.305931 253.725394 42.372391
v    7.403938 252.459890 47.101633
v    -9.772242 249.365581 53.009750
v    -12.387089 248.882386 52.979366
v    -20.425176 247.709414 52.886886
v    -25.384412 247.665152 52.130877
v    -25.907768 247.664464 51.975219
v    17.252629 264.549332 37.119765
v    11.940926 262.616186 42.372391
v    5.322373 260.285140 47.101633
v    -11.121114 254.436411 53.009750
v    -13.630444 253.556544 52.979366
v    -21.188962 250.580723 52.886886
v    -25.514744 248.155112 52.130877
v    -25.969272 247.895678 51.975219
v    18.820865 259.510529 38.883082
v    21.013462 259.223575 38.883082
v    20.165673 261.265896 38.883082
v    21.179135 260.489471 56.198358
v    18.986538 260.776425 56.198358
v    19.834327 258.734104 56.198358
v    18.903478 265.580993 54.114697
v    25.275833 267.583027 60.321575
v    27.655943 268.358105 62.008597
v    34.197566 270.383806 66.618196
v    49.338259 275.272746 71.718022
v    52.878079 276.262492 72.891440
v    58.397944 277.840092 72.826082
v    65.288348 278.851493 72.748705
v    23.178223 255.283142 54.114697
v    29.095073 258.382485 60.321575
v    31.324389 259.520828 62.008597
v    37.377507 262.723334 66.618196
v    51.529485 269.994086 71.718022
v    54.729608 271.802161 72.891440
v    59.744002 274.597441 72.826082
v    65.325053 278.763070 72.748705
v    20.748954 260.616257 56.198358
v    19.091829 260.340485 56.198358
v    20.159217 259.043259 56.198358
v    19.251046 259.383743 79.438023
v    20.908171 259.659515 79.438023
v    19.840783 260.956741 79.438023
v    23.548171 254.434370 77.023703
v    17.158146 250.067884 84.215559
v    13.814534 247.731682 86.964604
v    8.221850 243.943678 91.511398
v    -8.028632 232.649383 97.854711
v    -10.472780 231.090749 98.780152
v    -17.259947 226.707551 98.688169
v    -24.379841 223.348835 98.600702
v    -24.757498 223.172489 98.526871
v    15.221852 264.553577 77.023703
v    9.706518 259.124055 84.215559
v    6.770137 256.292933 86.964604
v    1.976007 251.534424 91.511398
v    -12.236373 237.763168 97.854711
v    -14.236523 235.664930 98.780152
v    -19.844738 229.848919 98.688169
v    -24.511724 223.509116 98.600702
v    -24.757498 223.172489 98.526871
v    19.521947 259.499824 79.438023
v    20.672191 259.836082 79.438023
v    19.805861 260.664094 79.438023
v    20.478053 260.500176 101.033369
v    19.327809 260.163918 101.033369
v    20.194139 259.335906 101.033369
v    15.458134 265.025402 98.290320
v    19.328252 268.412614 103.069504
v    22.118524 270.774968 106.461404
v    31.418448 278.847183 114.750630
v    40.691019 287.093373 118.728088
v    49.997455 294.730395 122.571448
v    57.934133 299.689646 122.920745
v    25.225594 255.689967 98.290320
v    28.434381 259.709258 103.069504
v    30.668176 262.603475 106.461404
v    38.311705 272.258821 114.750630
v    46.130269 281.894707 118.728088
v    53.338755 291.536884 122.571448
v    57.934133 299.689646 122.920745
v    20.310023 260.315967 101.033369
v    19.571353 260.110504 101.033369
v    20.118624 259.573529 101.033369
v    19.689977 259.684033 110.435000
v    20.428647 259.889496 110.435000
v    19.881376 260.426471 110.435000
v    22.802143 255.643459 104.457938
v    18.859527 252.853395 114.502296
v    18.006655 252.352583 116.520122
v    12.401169 248.579366 126.232556
v    9.678884 247.514665 130.145256
v    5.752786 245.479602 133.608323
v    15.591030 262.718903 104.457938
v    12.876342 258.724013 114.502296
v    12.391817 257.861784 116.520122
v    8.725733 252.185653 126.232556
v    7.712923 249.443640 130.145256
v    5.752786 245.479602 133.608323
v    22.339703 261.550439 0.474837
v    22.551314 261.627163 0.683668
v    23.232781 261.883775 1.173822
v    23.868664 262.131998 1.392623
v    24.541555 262.364344 1.619887
v    25.081189 262.475214 1.657547
v    22.663088 260.886584 0.474837
v    22.853944 261.005915 0.683668
v    23.476077 261.384330 1.173822
v    24.063506 261.732022 1.392623
v    24.661245 262.118641 1.619887
v    25.081189 262.475214 1.657547
v    17.237147 257.256093 1.549303
v    17.008691 257.105691 1.733416
v    16.241188 256.587067 2.030326
v    15.387796 256.058479 2.350796
v    15.178131 255.965921 2.422030
v    14.681388 255.739509 2.415964
v    16.719228 257.902641 1.549303
v    16.522589 257.712520 1.733416
v    15.848954 257.076716 2.030326
v    15.146848 256.359267 2.350796
v    15.010761 256.174859 2.422030
v    14.681388 255.739509 2.415964
v    25.148883 262.487297 2.951833
v    25.385254 262.557692 3.030886
v    26.730192 262.900769 3.474002
v    27.093574 262.941244 3.587643
v    27.792069 263.027498 3.579824
v    25.477527 261.641444 2.951833
v    25.699420 261.749101 3.030886
v    26.923182 262.404056 3.474002
v    27.218569 262.619537 3.587643
v    27.792069 263.027498 3.579824
v    11.986753 257.619924 4.895541
v    11.077833 257.518192 5.187522
v    10.830694 257.524958 5.264364
v    9.616413 257.543702 5.250871
v    11.769679 258.537566 4.895541
v    10.911512 258.221284 5.187522
v    10.693598 258.104506 5.264364
v    9.616413 257.543702 5.250871
v    27.214453 269.008768 7.251080
v    27.383119 269.159934 7.323387
v    28.994094 270.270562 7.315074
v    27.978137 268.339998 7.251080
v    28.105727 268.527134 7.323387
v    28.994094 270.270562 7.315074
v    8.605962 252.095706 10.937706
v    7.836895 251.850564 11.188590
v    6.585292 251.435092 11.173938
v    8.034889 252.990144 10.937706
v    7.488876 252.395645 11.188590
v    6.585292 251.435092 11.173938
v    36.884400 272.719269 16.644777
v    38.589134 273.393515 16.624409
v    37.409930 271.989876 16.644777
v    38.589134 273.393515 16.624409
v    -4.509715 243.654444 24.990195
v    -4.803914 243.553824 24.986740
v    -5.735634 243.239239 24.812542
v    -4.860187 244.192583 24.990195
v    -5.071173 243.964193 24.986740
v    -5.735634 243.239239 24.812542
v    49.992622 276.902225 35.202728
v    50.913761 277.145963 35.192142
v    50.219259 276.493604 35.202728
v    50.913761 277.145963 35.192142
v    -25.907768 247.664464 51.975219
v    -26.375437 247.663848 51.836124
v    -25.969272 247.895678 51.975219
v    -26.375437 247.663848 51.836124
v    65.288348 278.851493 72.748705
v    65.481507 278.879846 72.746536
v    65.325053 278.763070 72.748705
v    65.481507 278.879846 72.746536
mtllib usm_17_2.5D_2018-08-27_6.mtl
usemtl APPID_1926253632_2183767497696 
o vid_3 
f 3 2 1
f 4 5 6
f 1 6 5
f 1 5 3
f 3 5 4
f 4 2 3
f 2 4 6
f 6 1 2
usemtl APPID_1926251280_2183767495136 
o vid_4 
f 7 10 11
f 7 11 8
f 8 11 12
f 8 12 9
usemtl APPID_1926253632_2183767497696 
o vid_5 
f 15 14 13
f 16 17 18
f 13 18 17
f 13 17 15
f 15 17 16
f 16 14 15
f 14 16 18
f 18 13 14
usemtl APPID_1926251280_2183767495136 
o vid_6 
f 19 23 24
f 20 24 25
f 19 24 20
f 20 25 21
f 21 25 26
f 21 26 22
usemtl APPID_1926253632_2183767497696 
o vid_7 
f 29 28 27
f 30 31 32
f 27 32 31
f 27 31 29
f 29 31 30
f 30 28 29
f 28 30 32
f 32 27 28
usemtl APPID_1926251280_2183767495136 
o vid_8 
f 33 38 39
f 34 39 40
f 35 40 41
f 33 39 34
f 34 40 35
f 35 41 36
f 36 41 42
f 36 42 37
usemtl APPID_1926253632_2183767497696 
o vid_9 
f 45 44 43
f 46 47 48
f 43 48 47
f 43 47 45
f 45 47 46
f 46 44 45
f 44 46 48
f 48 43 44
usemtl APPID_1926251280_2183767495136 
o vid_10 
f 49 55 56
f 50 56 57
f 51 57 58
f 52 58 59
f 49 56 50
f 50 57 51
f 51 58 52
f 52 59 53
f 53 59 60
f 53 60 54
usemtl APPID_1926253632_2183767497696 
o vid_11 
f 63 62 61
f 64 65 66
f 61 66 65
f 61 65 63
f 63 65 64
f 64 62 63
f 62 64 66
f 66 61 62
usemtl APPID_1926251280_2183767495136 
o vid_12 
f 67 73 74
f 68 74 75
f 69 75 76
f 70 76 77
f 67 74 68
f 68 75 69
f 69 76 70
f 70 77 71
f 71 77 78
f 71 78 72
usemtl APPID_1926253632_2183767497696 
o vid_13 
f 81 80 79
f 82 83 84
f 79 84 83
f 79 83 81
f 81 83 82
f 82 80 81
f 80 82 84
f 84 79 80
usemtl APPID_1926251280_2183767495136 
o vid_14 
f 85 92 93
f 86 93 94
f 87 94 95
f 88 95 96
f 89 96 97
f 85 93 86
f 86 94 87
f 87 95 88
f 88 96 89
f 89 97 90
f 90 97 98
f 90 98 91
usemtl APPID_1926253632_2183767497696 
o vid_15 
f 101 100 99
f 102 103 104
f 99 104 103
f 99 103 101
f 101 103 102
f 102 100 101
f 100 102 104
f 104 99 100
usemtl APPID_1926251280_2183767495136 
o vid_16 
f 105 112 113
f 106 113 114
f 107 114 115
f 108 115 116
f 109 116 117
f 105 113 106
f 106 114 107
f 107 115 108
f 108 116 109
f 109 117 110
f 110 117 118
f 110 118 111
usemtl APPID_1926253632_2183767497696 
o vid_17 
f 121 120 119
f 122 123 124
f 119 124 123
f 119 123 121
f 121 123 122
f 122 120 121
f 120 122 124
f 124 119 120
usemtl APPID_1926251280_2183767495136 
o vid_18 
f 125 132 133
f 126 133 134
f 127 134 135
f 128 135 136
f 129 136 137
f 125 133 126
f 126 134 127
f 127 135 128
f 128 136 129
f 129 137 130
f 130 137 138
f 130 138 131
usemtl APPID_1926253632_2183767497696 
o vid_19 
f 141 140 139
f 142 143 144
f 139 144 143
f 139 143 141
f 141 143 142
f 142 140 141
f 140 142 144
f 144 139 140
usemtl APPID_1926251280_2183767495136 
o vid_20 
f 145 153 154
f 146 154 155
f 147 155 156
f 148 156 157
f 149 157 158
f 150 158 159
f 145 154 146
f 146 155 147
f 147 156 148
f 148 157 149
f 149 158 150
f 150 159 151
f 151 159 160
f 151 160 152
usemtl APPID_1926253632_2183767497696 
o vid_21 
f 163 162 161
f 164 165 166
f 161 166 165
f 161 165 163
f 163 165 164
f 164 162 163
f 162 164 166
f 166 161 162
usemtl APPID_1926251280_2183767495136 
o vid_22 
f 167 175 176
f 168 176 177
f 169 177 178
f 170 178 179
f 171 179 180
f 172 180 181
f 167 176 168
f 168 177 169
f 169 178 170
f 170 179 171
f 171 180 172
f 172 181 173
f 173 181 182
f 173 182 174
usemtl APPID_1926253632_2183767497696 
o vid_23 
f 185 184 183
f 186 187 188
f 183 188 187
f 183 187 185
f 185 187 186
f 186 184 185
f 184 186 188
f 188 183 184
usemtl APPID_1926251280_2183767495136 
o vid_24 
f 189 197 198
f 190 198 199
f 191 199 200
f 192 200 201
f 193 201 202
f 194 202 203
f 189 198 190
f 190 199 191
f 191 200 192
f 192 201 193
f 193 202 194
f 194 203 195
f 195 203 204
f 195 204 196
usemtl APPID_1926253632_2183767497696 
o vid_25 
f 207 206 205
f 208 209 210
f 205 210 209
f 205 209 207
f 207 209 208
f 208 206 207
f 206 208 210
f 210 205 206
usemtl APPID_1926251280_2183767495136 
o vid_26 
f 211 220 221
f 212 221 222
f 213 222 223
f 214 223 224
f 215 224 225
f 216 225 226
f 217 226 227
f 211 221 212
f 212 222 213
f 213 223 214
f 214 224 215
f 215 225 216
f 216 226 217
f 217 227 218
f 218 227 228
usemtl APPID_1926253632_2183767497696 
o vid_27 
f 231 230 229
f 232 233 234
f 229 234 233
f 229 233 231
f 231 233 232
f 232 230 231
f 230 232 234
f 234 229 230
usemtl APPID_1926251280_2183767495136 
o vid_28 
f 235 242 243
f 236 243 244
f 237 244 245
f 238 245 246
f 239 246 247
f 235 243 236
f 236 244 237
f 237 245 238
f 238 246 239
f 239 247 240
f 240 247 248
usemtl APPID_1926253632_2183767497696 
o vid_29 
f 251 250 249
f 252 253 254
f 249 254 253
f 249 253 251
f 251 253 252
f 252 250 251
f 250 252 254
f 254 249 250
usemtl APPID_1926251280_2183767495136 
o vid_30 
f 255 261 262
f 256 262 263
f 257 263 264
f 258 264 265
f 255 262 256
f 256 263 257
f 257 264 258
f 258 265 259
f 259 265 266
usemtl APPID_1926253968_2183767496032 
o vid_10000004 
f 267 273 274
f 268 274 275
f 269 275 276
f 270 276 277
f 267 274 268
f 268 275 269
f 269 276 270
f 270 277 271
f 271 277 278
usemtl APPID_1926253968_2183767496032 
o vid_10000006 
f 279 285 286
f 280 286 287
f 281 287 288
f 282 288 289
f 279 286 280
f 280 287 281
f 281 288 282
f 282 289 283
f 283 289 290
usemtl APPID_1926253968_2183767496032 
o vid_10000008 
f 291 296 297
f 292 297 298
f 293 298 299
f 291 297 292
f 292 298 293
f 293 299 294
f 294 299 300
usemtl APPID_1926253968_2183767496032 
o vid_10000010 
f 301 305 306
f 302 306 307
f 301 306 302
f 302 307 303
f 303 307 308
usemtl APPID_1926253968_2183767496032 
o vid_10000012 
f 309 312 313
f 309 313 310
f 310 313 314
usemtl APPID_1926253968_2183767496032 
o vid_10000014 
f 315 318 319
f 315 319 316
f 316 319 320
usemtl APPID_1926253968_2183767496032 
o vid_10000016 
f 321 323 324
f 321 324 322
f 321 323 324
usemtl APPID_1926253968_2183767496032 
o vid_10000018 
f 325 328 329
f 325 329 326
f 326 329 330
usemtl APPID_1926253968_2183767496032 
o vid_10000020 
f 331 333 334
f 331 334 332
f 331 333 334
usemtl APPID_1926253968_2183767496032 
o vid_10000022 
f 335 337 338
f 335 338 336
f 335 337 338
usemtl APPID_1926253968_2183767496032 
o vid_10000024 
f 339 341 342
f 339 342 340
f 339 341 342
