# File generated by PlantGL - Fri Sep  4 14:43:59 2026
v    18.201987 99.124129 0.000000
v    21.657533 98.880811 0.000000
v    20.140480 101.995060 0.000000
v    21.798013 100.875871 0.331061
v    18.342467 101.119189 0.331061
v    19.859520 98.004940 0.331061
v    21.399188 101.442020 -0.051335
v    22.498116 101.859451 1.062520
v    23.790928 102.341531 1.927570
v    24.161582 102.484177 2.027784
v    25.249131 102.870413 2.318240
v    25.936143 103.025884 2.491906
v    26.454826 103.144357 2.381928
v    21.997961 100.212842 -0.051335
v    23.004059 100.820838 1.062520
v    24.180576 101.541650 1.927570
v    24.521378 101.745577 2.027784
v    25.495897 102.363843 2.318240
v    26.041809 102.808969 2.491906
v    26.454826 103.144357 2.381928
v    21.503548 101.204422 0.331061
v    18.205166 100.699900 0.331061
v    20.291286 98.095678 0.331061
v    18.496452 98.795578 0.718770
v    21.794834 99.300100 0.718770
v    19.708714 101.904322 0.718770
v    19.260387 98.087610 0.187722
v    17.899429 97.185998 1.734575
v    16.886093 96.495673 2.504576
v    16.309395 96.120291 2.935904
v    14.854913 95.147571 3.377420
v    13.705323 94.421490 3.719619
v    11.941875 93.545013 3.311212
v    17.972288 99.695616 0.187722
v    16.795372 98.564254 1.734575
v    15.900520 97.726019 2.504576
v    15.408318 97.245156 2.935904
v    14.141596 96.038046 3.377420
v    13.182111 95.074646 3.719619
v    11.941875 93.545013 3.311212
v    18.272844 99.328938 0.718770
v    21.444735 98.839770 0.718770
v    20.282421 101.831292 0.718770
v    21.727156 100.671062 1.487000
v    18.555265 101.160230 1.487000
v    19.717579 98.168708 1.487000
v    21.016362 101.925611 0.767236
v    23.142661 102.537734 2.863786
v    25.112271 103.132417 4.155835
v    25.628852 103.276621 4.492024
v    28.340252 104.069999 5.204874
v    29.682297 104.424905 5.554243
v    30.446959 104.627941 5.387364
v    32.762161 104.958557 4.903934
v    22.049828 99.265713 0.767236
v    24.031631 100.249736 2.863786
v    25.886072 101.140834 4.155835
v    26.364503 101.383228 4.492024
v    28.900298 102.628572 5.204874
v    30.129912 103.272849 5.554243
v    30.831068 103.639336 5.387364
v    32.762161 104.958557 4.903934
v    21.731622 100.409625 1.487000
v    18.779443 101.294816 1.487000
v    19.488935 98.295559 1.487000
v    18.268378 99.590375 2.857581
v    21.220557 98.705184 2.857581
v    20.511065 101.704441 2.857581
v    18.979568 97.780264 1.905483
v    16.082147 97.366032 4.678783
v    12.909354 96.870510 6.695426
v    8.439990 96.214401 7.917221
v    7.175801 96.061665 8.237698
v    5.573166 95.866410 7.897154
v    2.479587 95.855445 7.257677
v    18.093190 101.527280 1.905483
v    15.317263 100.599448 4.678783
v    12.258730 99.620914 6.695426
v    7.969095 98.205032 7.917221
v    6.770461 97.775173 8.237698
v    5.250202 97.231688 7.897154
v    2.479587 95.855445 7.257677
v    18.876148 98.716648 2.857581
v    21.673341 99.668392 2.857581
v    19.450510 101.614960 2.857581
v    21.123852 101.283352 4.464214
v    18.326659 100.331608 4.464214
v    20.549490 98.385040 4.464214
v    18.864822 102.789024 3.235054
v    20.490348 104.338716 5.363111
v    21.599957 105.396049 6.815390
v    24.765699 108.491686 9.595977
v    26.703507 110.424106 10.287492
v    29.910566 113.506863 11.409958
v    30.945806 114.503514 11.106073
v    33.708611 117.028793 10.316557
v    36.242952 118.848893 9.671581
v    36.885383 119.281805 9.229161
v    22.914416 99.242730 3.235054
v    24.236089 101.058511 5.363111
v    25.137777 102.297924 6.815390
v    27.788663 105.844428 9.595977
v    29.448515 108.020258 10.287492
v    32.081183 111.606019 11.409958
v    32.932532 112.763706 11.106073
v    35.071210 115.835543 10.316557
v    36.541017 118.587872 9.671581
v    36.885383 119.281805 9.229161
v    21.269200 100.810348 4.464214
v    18.663618 100.693985 4.464214
v    20.067182 98.495667 4.464214
v    18.730800 99.189652 11.608452
v    21.336382 99.306015 11.608452
v    19.932818 101.504333 11.608452
v    21.064016 96.367717 10.059738
v    19.225724 95.309847 12.075470
v    17.775515 94.558192 13.623222
v    15.023348 93.101030 15.898515
v    11.967697 91.467769 18.074355
v    4.556788 87.412691 20.208985
v    -2.050447 83.947539 18.908714
v    -5.194586 82.400814 18.169614
v    -8.505775 81.193146 16.137020
v    -10.185712 80.727284 14.632243
v    17.152733 102.493728 10.059738
v    15.419513 101.271290 12.075470
v    14.127386 100.272041 13.623222
v    11.647379 98.388609 15.898515
v    8.879916 96.303978 18.074355
v    2.082761 91.287613 20.208985
v    -3.841047 86.752051 18.908714
v    -6.567248 84.550732 18.169614
v    -9.056169 82.055196 16.137020
v    -10.185712 80.727284 14.632243
v    19.030905 99.301765 11.608452
v    21.089237 99.509857 11.608452
v    19.879858 101.188378 11.608452
v    20.969095 100.698235 22.178673
v    18.910763 100.490143 22.178673
v    20.120142 98.811622 22.178673
v    17.887199 104.033320 20.274224
v    20.223125 105.722935 23.017054
v    22.694167 107.335916 25.821561
v    28.536826 110.927239 30.129774
v    37.979515 116.805362 32.940338
v    41.757892 119.160582 31.997502
v    45.509179 121.405146 31.073060
v    48.861594 123.411047 30.246914
v    52.594041 125.468600 27.747439
v    57.988533 127.523378 22.711235
v    58.271696 127.574847 22.233906
v    23.157108 96.719105 20.274224
v    25.499270 98.400064 23.017054
v    27.811511 100.233450 25.821561
v    33.067640 104.638829 30.129774
v    41.632557 111.735230 32.940338
v    45.062703 114.573767 31.997502
v    48.379308 117.421636 31.073060
v    51.343260 119.966691 30.246914
v    54.476507 122.855887 27.747439
v    58.133239 127.322538 22.711235
v    58.271696 127.574847 22.233906
v    20.759205 100.494445 22.178673
v    19.192196 100.410268 22.178673
v    20.048599 99.095287 22.178673
v    19.240795 99.505555 39.904756
v    20.807804 99.589732 39.904756
v    19.951401 100.904713 39.904756
v    22.748780 95.330587 37.619142
v    19.120006 93.198476 41.619146
v    16.641656 91.885378 44.276749
v    12.796184 89.784022 47.028758
v    9.416339 87.938015 49.447229
v    -2.235793 81.424726 52.820312
v    -12.443057 75.940812 50.369807
v    -15.754744 74.274325 49.587813
v    -18.335733 73.023595 47.906959
v    -24.111662 71.271543 43.370616
v    16.840794 104.402117 37.619142
v    13.423467 101.945336 41.619146
v    11.220385 100.209573 44.276749
v    7.743565 97.542164 47.028758
v    4.688563 95.197370 49.447229
v    -5.980043 87.173906 52.820312
v    -15.122947 80.055700 50.369807
v    -17.986199 77.700654 49.587813
v    -20.173741 75.845799 47.906959
v    -24.111662 71.271543 43.370616
v    19.439817 99.689301 39.904756
v    20.549165 99.670217 39.904756
v    20.011018 100.640482 39.904756
v    20.560183 100.310699 60.510326
v    19.450835 100.329783 60.510326
v    19.988982 99.359518 60.510326
v    17.566156 104.112312 57.833180
v    25.093788 107.438930 65.631253
v    33.954104 111.287305 71.687450
v    36.365183 112.365401 72.353883
v    43.824848 115.469698 74.387361
v    48.707283 116.850689 75.638351
v    52.151106 117.832242 74.898129
v    22.199836 95.757898 57.833180
v    29.007676 100.382284 65.631253
v    36.963775 105.860941 71.687450
v    39.154986 107.335454 72.353883
v    45.738239 112.019900 74.387361
v    49.494963 115.430519 75.638351
v    52.151106 117.832242 74.898129
v    20.384735 100.102342 60.510326
v    19.719002 100.282019 60.510326
v    19.896263 99.615639 60.510326
v    19.615265 99.897658 67.500000
v    20.280998 99.717981 67.500000
v    20.103737 100.384361 67.500000
v    20.412143 96.708778 61.394023
v    18.055016 97.149402 70.601803
v    17.083309 97.709628 73.983662
v    14.121999 98.436416 79.827115
v    18.722410 103.061008 61.394023
v    16.895743 101.507468 70.601803
v    16.330814 100.538488 73.983662
v    14.121999 98.436416 79.827115
mtllib usm_17_2.5D_2018-08-26_2.mtl
usemtl APPID_1926241424_2183767488864 
o vid_3 
f 3 2 1
f 4 5 6
f 1 6 5
f 1 5 3
f 3 5 4
f 4 2 3
f 2 4 6
f 6 1 2
usemtl APPID_1926244784_2183767486176 
o vid_4 
f 7 14 15
f 8 15 16
f 9 16 17
f 10 17 18
f 11 18 19
f 7 15 8
f 8 16 9
f 9 17 10
f 10 18 11
f 11 19 12
f 12 19 20
usemtl APPID_1926241424_2183767488864 
o vid_5 
f 23 22 21
f 24 25 26
f 21 26 25
f 21 25 23
f 23 25 24
f 24 22 23
f 22 24 26
f 26 21 22
usemtl APPID_1926244784_2183767486176 
o vid_6 
f 27 34 35
f 28 35 36
f 29 36 37
f 30 37 38
f 31 38 39
f 27 35 28
f 28 36 29
f 29 37 30
f 30 38 31
f 31 39 32
f 32 39 40
usemtl APPID_1926241424_2183767488864 
o vid_7 
f 43 42 41
f 44 45 46
f 41 46 45
f 41 45 43
f 43 45 44
f 44 42 43
f 42 44 46
f 46 41 42
usemtl APPID_1926244784_2183767486176 
o vid_8 
f 47 55 56
f 48 56 57
f 49 57 58
f 50 58 59
f 51 59 60
f 52 60 61
f 47 56 48
f 48 57 49
f 49 58 50
f 50 59 51
f 51 60 52
f 52 61 53
f 53 61 62
usemtl APPID_1926241424_2183767488864 
o vid_9 
f 65 64 63
f 66 67 68
f 63 68 67
f 63 67 65
f 65 67 66
f 66 64 65
f 64 66 68
f 68 63 64
usemtl APPID_1926244784_2183767486176 
o vid_10 
f 69 76 77
f 70 77 78
f 71 78 79
f 72 79 80
f 73 80 81
f 69 77 70
f 70 78 71
f 71 79 72
f 72 80 73
f 73 81 74
f 74 81 82
usemtl APPID_1926241424_2183767488864 
o vid_11 
f 85 84 83
f 86 87 88
f 83 88 87
f 83 87 85
f 85 87 86
f 86 84 85
f 84 86 88
f 88 83 84
usemtl APPID_1926244784_2183767486176 
o vid_12 
f 89 99 100
f 90 100 101
f 91 101 102
f 92 102 103
f 93 103 104
f 94 104 105
f 95 105 106
f 96 106 107
f 89 100 90
f 90 101 91
f 91 102 92
f 92 103 93
f 93 104 94
f 94 105 95
f 95 106 96
f 96 107 97
f 97 107 108
usemtl APPID_1926241424_2183767488864 
o vid_13 
f 111 110 109
f 112 113 114
f 109 114 113
f 109 113 111
f 111 113 112
f 112 110 111
f 110 112 114
f 114 109 110
usemtl APPID_1926244784_2183767486176 
o vid_14 
f 115 125 126
f 116 126 127
f 117 127 128
f 118 128 129
f 119 129 130
f 120 130 131
f 121 131 132
f 122 132 133
f 115 126 116
f 116 127 117
f 117 128 118
f 118 129 119
f 119 130 120
f 120 131 121
f 121 132 122
f 122 133 123
f 123 133 134
usemtl APPID_1926241424_2183767488864 
o vid_15 
f 137 136 135
f 138 139 140
f 135 140 139
f 135 139 137
f 137 139 138
f 138 136 137
f 136 138 140
f 140 135 136
usemtl APPID_1926244784_2183767486176 
o vid_16 
f 141 152 153
f 142 153 154
f 143 154 155
f 144 155 156
f 145 156 157
f 146 157 158
f 147 158 159
f 148 159 160
f 149 160 161
f 141 153 142
f 142 154 143
f 143 155 144
f 144 156 145
f 145 157 146
f 146 158 147
f 147 159 148
f 148 160 149
f 149 161 150
f 150 161 162
usemtl APPID_1926241424_2183767488864 
o vid_17 
f 165 164 163
f 166 167 168
f 163 168 167
f 163 167 165
f 165 167 166
f 166 164 165
f 164 166 168
f 168 163 164
usemtl APPID_1926244784_2183767486176 
o vid_18 
f 169 179 180
f 170 180 181
f 171 181 182
f 172 182 183
f 173 183 184
f 174 184 185
f 175 185 186
f 176 186 187
f 169 180 170
f 170 181 171
f 171 182 172
f 172 183 173
f 173 184 174
f 174 185 175
f 175 186 176
f 176 187 177
f 177 187 188
usemtl APPID_1926241424_2183767488864 
o vid_19 
f 191 190 189
f 192 193 194
f 189 194 193
f 189 193 191
f 191 193 192
f 192 190 191
f 190 192 194
f 194 189 190
usemtl APPID_1926244784_2183767486176 
o vid_20 
f 195 202 203
f 196 203 204
f 197 204 205
f 198 205 206
f 199 206 207
f 195 203 196
f 196 204 197
f 197 205 198
f 198 206 199
f 199 207 200
f 200 207 208
usemtl APPID_1926241424_2183767488864 
o vid_21 
f 211 210 209
f 212 213 214
f 209 214 213
f 209 213 211
f 211 213 212
f 212 210 211
f 210 212 214
f 214 209 210
usemtl APPID_1926244784_2183767486176 
o vid_22 
f 215 219 220
f 216 220 221
f 215 220 216
f 216 221 217
f 217 221 222
