# File generated by PlantGL - Fri Sep  4 14:41:45 2026
v    17.752484 118.905161 0.000000
v    22.071916 118.601013 0.000000
v    20.175600 122.493825 0.000000
v    22.247516 121.094839 0.848018
v    17.928084 121.398987 0.848018
v    19.824400 117.506175 0.848018
v    22.060936 121.451059 0.684702
v    22.344289 121.559090 0.966496
v    22.551712 121.634296 1.171194
v    23.237867 121.892673 1.664720
v    23.422151 121.964610 1.728130
v    22.412996 120.728339 0.684702
v    22.672727 120.884863 0.966496
v    22.859806 121.001832 1.171194
v    23.486219 121.382850 1.664720
v    23.656460 121.483614 1.728130
v    21.879284 121.505407 0.848018
v    17.756638 120.874804 0.848018
v    20.364078 117.619789 0.848018
v    18.120716 118.494593 1.416666
v    22.243362 119.125196 1.416666
v    19.635922 122.380211 1.416666
v    18.496921 118.051557 1.185219
v    18.032720 117.743210 1.703071
v    17.877003 117.643420 1.874659
v    17.009140 117.072070 2.574067
v    16.008670 116.396023 2.961101
v    15.873592 116.312355 3.011827
v    17.770471 118.958426 1.185219
v    17.368242 118.572715 1.703071
v    17.236871 118.442533 1.874659
v    16.489876 117.720296 2.574067
v    15.611766 116.891500 2.961101
v    15.500634 116.777940 3.011827
v    17.841416 119.161313 1.416666
v    21.805616 118.549955 1.416666
v    20.352968 122.288732 1.416666
v    22.158584 120.838687 2.253758
v    18.194384 121.450045 2.253758
v    19.647032 117.711268 2.253758
v    21.868746 121.520867 1.932231
v    22.864855 121.791811 2.890007
v    24.253125 122.187137 3.861632
v    24.931731 122.389237 4.088589
v    25.991535 122.659580 4.437762
v    22.405350 120.139773 1.932231
v    23.323088 120.612427 2.890007
v    24.614092 121.258094 3.861632
v    25.251133 121.567170 4.088589
v    26.215452 122.083272 4.437762
v    22.163962 120.511898 2.253758
v    18.474702 121.618097 2.253758
v    19.361335 117.870005 2.253758
v    17.836038 119.488102 4.113040
v    21.525298 118.381903 4.113040
v    20.638665 122.129995 4.113040
v    18.107958 118.475282 3.675181
v    17.630919 118.406484 4.123056
v    16.715217 118.289732 4.979488
v    14.768497 118.017143 6.302652
v    13.246334 117.785295 6.796183
v    11.336563 117.571541 7.409678
v    11.238009 117.574239 7.440321
v    17.625354 120.515408 3.675181
v    17.168051 120.363182 4.123056
v    16.297091 120.057289 4.979488
v    14.434566 119.428779 6.302652
v    12.969854 118.954065 6.796183
v    11.166723 118.289510 7.409678
v    11.079823 118.242941 7.440321
v    18.595695 118.396392 4.113040
v    22.090917 119.585640 4.113040
v    19.313387 122.017967 4.113040
v    21.404305 121.603608 6.001020
v    17.909083 120.414360 6.001020
v    20.686613 117.982033 6.001020
v    20.270907 122.540312 5.416505
v    21.309115 123.532044 6.750685
v    21.631261 123.829810 7.157679
v    23.536211 125.634564 8.924028
v    25.751011 127.784027 9.913304
v    27.548333 129.394872 10.683819
v    28.257431 129.909601 10.674027
v    22.482361 120.603707 5.416505
v    23.328441 121.763687 6.750685
v    23.581101 122.122304 7.157679
v    25.118738 124.248720 8.924028
v    26.957190 126.727757 9.913304
v    28.316813 128.721901 10.683819
v    28.733484 129.492714 10.674027
v    21.718982 121.097521 6.001020
v    18.190028 120.939922 6.001020
v    20.090990 117.962557 6.001020
v    18.281018 118.902479 11.510985
v    21.809972 119.060078 11.510985
v    19.909010 122.037443 11.510985
v    19.304256 117.401977 10.746082
v    18.714710 117.095672 11.363447
v    17.112534 116.296365 13.024599
v    14.058854 114.725702 15.336060
v    11.886117 113.574883 16.124153
v    8.859494 112.122533 17.195879
v    7.501321 111.689613 17.638940
v    7.401839 111.656589 17.637775
v    17.350432 120.462137 10.746082
v    16.824480 120.056228 11.363447
v    15.425175 118.939175 13.024599
v    12.715326 116.829990 15.336060
v    10.757050 115.343275 16.124153
v    8.165914 113.208846 17.195879
v    7.201656 112.158960 17.638940
v    7.129836 112.082612 17.637775
v    18.420020 118.861621 11.510985
v    21.775855 119.200887 11.510985
v    19.804125 121.937492 11.510985
v    21.579980 121.138379 19.659504
v    18.224145 120.799113 19.659504
v    20.195875 118.062508 19.659504
v    20.019867 123.183079 18.678290
v    22.725284 124.787548 21.601162
v    26.519185 127.024722 24.566294
v    32.252603 130.486658 26.713079
v    34.467618 131.706899 27.520418
v    36.096629 132.616545 27.499177
v    38.609949 133.610597 27.469147
v    23.025682 119.011247 18.678290
v    25.404039 121.069648 21.601162
v    28.727124 123.960279 24.566294
v    33.825939 128.302992 26.713079
v    35.684591 130.017837 27.520418
v    37.063120 131.275132 27.499177
v    38.801642 133.344542 27.469147
v    21.554633 121.012481 19.659504
v    18.345849 120.840111 19.659504
v    20.099518 118.147408 19.659504
v    18.445367 118.987519 30.877941
v    21.654151 119.159889 30.877941
v    19.900482 121.852592 30.877941
v    20.262447 116.359911 29.644073
v    16.769210 114.504681 33.319558
v    11.867282 111.925279 37.048185
v    4.968507 108.191030 39.562639
v    1.593535 106.533834 40.762969
v    0.038260 105.759041 40.743187
v    -3.540455 104.535065 40.701164
v    16.776876 121.711899 29.644073
v    13.667589 119.267125 33.319558
v    9.326369 115.826772 37.048185
v    3.121499 111.027054 39.562639
v    0.241156 108.610371 40.762969
v    -1.096346 107.501195 40.743187
v    -3.662848 104.722995 40.701164
v    18.660512 119.257068 30.877941
v    21.313142 119.211435 30.877941
v    20.026346 121.531497 30.877941
v    21.339488 120.742932 48.410896
v    18.686858 120.788565 48.410896
v    19.973654 118.468503 48.410896
v    19.217100 124.344217 46.889926
v    23.674286 126.320487 51.420642
v    26.602844 127.655621 53.589827
v    29.904994 129.103545 56.016866
v    41.941134 134.554743 60.252082
v    48.371151 137.201037 60.529131
v    52.386951 138.263638 60.482978
v    53.190918 138.472999 60.335814
v    23.270725 117.035627 46.889926
v    27.307269 119.770307 51.420642
v    29.990531 121.547704 53.589827
v    32.967287 123.582304 56.016866
v    43.964658 130.906378 60.252082
v    49.614190 134.959867 60.529131
v    52.641943 137.803893 60.482978
v    53.245242 138.375055 60.335814
v    21.150594 120.306065 48.410896
v    19.159643 120.843411 48.410896
v    19.689763 118.850524 48.410896
v    18.849406 119.693935 69.770127
v    20.840357 119.156589 69.770127
v    20.310237 121.149476 69.770127
v    20.300073 114.754165 67.932233
v    14.494323 113.752002 73.407012
v    9.451716 112.827423 76.862203
v    6.377074 112.309700 78.960948
v    -10.610406 109.238617 84.494265
v    -19.118214 107.992058 84.396365
v    -22.601619 107.949334 84.357660
v    -25.329109 107.926583 83.874497
v    17.653993 124.701604 67.932233
v    12.117639 122.686698 73.407012
v    7.282114 120.983632 76.862203
v    4.356603 119.905278 78.960948
v    -11.911584 114.130148 84.494265
v    -19.914303 110.984806 84.396365
v    -22.958546 109.291136 84.357660
v    -25.336858 107.955712 83.874497
v    19.188840 119.663279 69.770127
v    20.697188 119.465876 69.770127
v    20.113971 120.870845 69.770127
v    20.811160 120.336721 89.614447
v    19.302812 120.534124 89.614447
v    19.886029 119.129155 89.614447
v    18.445204 125.628269 87.437401
v    25.103152 127.720028 93.922456
v    27.220879 128.409662 95.423501
v    34.426905 130.641105 100.501275
v    49.821651 135.612078 105.686674
v    53.951468 136.766789 107.055671
v    59.266684 138.285900 106.992736
v    66.667715 139.372253 106.909624
v    22.888151 114.925221 87.437401
v    29.070179 118.163468 93.922456
v    31.053735 119.176320 95.423501
v    37.721642 122.704091 100.501275
v    52.111083 130.096842 105.686674
v    55.844584 132.206276 107.055671
v    60.673069 134.897922 106.992736
v    66.667715 139.372253 106.909624
v    20.459241 120.377874 89.614447
v    19.443131 120.208777 89.614447
v    20.097628 119.413348 89.614447
v    19.540759 119.622126 106.800000
v    20.556869 119.791223 106.800000
v    19.902372 120.586652 106.800000
v    23.501129 115.053660 101.737792
v    21.439984 113.668323 104.455741
v    17.251380 110.960107 109.904309
v    8.367973 105.017883 118.443948
v    1.360777 100.173460 121.965284
v    -7.740858 94.416146 126.398108
v    -11.324008 92.810596 127.969015
v    -15.347058 90.915618 128.273868
v    15.820491 124.388153 101.737792
v    14.064153 122.632376 104.455741
v    10.599995 119.043721 109.904309
v    3.058245 111.470944 118.443948
v    -3.044935 105.527845 121.965284
v    -10.447263 97.705314 126.398108
v    -12.712797 94.498430 127.969015
v    -15.347058 90.915618 128.273868
v    23.422151 121.964610 1.728130
v    23.922506 122.159928 1.900297
v    24.600025 122.393873 2.129124
v    24.686188 122.410769 2.156414
v    25.145521 122.506552 2.151201
v    23.656460 121.483614 1.728130
v    24.118688 121.757200 1.900297
v    24.720538 122.146479 2.129124
v    24.786956 122.203909 2.156414
v    25.145521 122.506552 2.151201
v    15.873592 116.312355 3.011827
v    15.183752 115.885072 3.270879
v    14.419717 115.529896 3.261500
v    15.500634 116.777940 3.011827
v    14.933088 116.197991 3.270879
v    14.419717 115.529896 3.261500
v    25.991535 122.659580 4.437762
v    26.299083 122.738032 4.539090
v    27.228182 122.841519 4.829650
v    27.353105 122.856945 4.828251
v    26.215452 122.083272 4.437762
v    26.495290 122.233041 4.539090
v    27.250537 122.783983 4.829650
v    27.353105 122.856945 4.828251
v    11.238009 117.574239 7.440321
v    10.657219 117.590141 7.620904
v    9.864455 117.602378 7.612095
v    11.079823 118.242941 7.440321
v    10.567714 117.968509 7.620904
v    9.864455 117.602378 7.612095
v    28.257431 129.909601 10.674027
v    29.319621 130.642288 10.659690
v    28.733484 129.492714 10.674027
v    29.319621 130.642288 10.659690
v    7.401839 111.656589 17.637775
v    6.423615 111.331866 17.626323
v    7.129836 112.082612 17.637775
v    6.423615 111.331866 17.626323
v    38.609949 133.610597 27.469147
v    39.231771 133.856536 27.461718
v    38.801642 133.344542 27.469147
v    39.231771 133.856536 27.461718
v    -3.540455 104.535065 40.701164
v    -3.973180 104.387066 40.696083
v    -3.662848 104.722995 40.701164
v    -3.973180 104.387066 40.696083
v    53.190918 138.472999 60.335814
v    53.408563 138.529676 60.295975
v    53.245242 138.375055 60.335814
v    53.408563 138.529676 60.295975
v    -25.329109 107.926583 83.874497
v    -25.389634 107.926078 83.863775
v    -25.336858 107.955712 83.874497
v    -25.389634 107.926078 83.863775
mtllib usm_4_2.5D_2018-08-05_1.mtl
usemtl APPID_1857671216_2531593556496 
o vid_3 
f 3 2 1
f 4 5 6
f 1 6 5
f 1 5 3
f 3 5 4
f 4 2 3
f 2 4 6
f 6 1 2
usemtl APPID_1857669536_2531593556368 
o vid_4 
f 7 12 13
f 8 13 14
f 9 14 15
f 7 13 8
f 8 14 9
f 9 15 10
f 10 15 16
f 10 16 11
usemtl APPID_1857671216_2531593556496 
o vid_5 
f 19 18 17
f 20 21 22
f 17 22 21
f 17 21 19
f 19 21 20
f 20 18 19
f 18 20 22
f 22 17 18
usemtl APPID_1857669536_2531593556368 
o vid_6 
f 23 29 30
f 24 30 31
f 25 31 32
f 26 32 33
f 23 30 24
f 24 31 25
f 25 32 26
f 26 33 27
f 27 33 34
f 27 34 28
usemtl APPID_1857671216_2531593556496 
o vid_7 
f 37 36 35
f 38 39 40
f 35 40 39
f 35 39 37
f 37 39 38
f 38 36 37
f 36 38 40
f 40 35 36
usemtl APPID_1857669536_2531593556368 
o vid_8 
f 41 46 47
f 42 47 48
f 43 48 49
f 41 47 42
f 42 48 43
f 43 49 44
f 44 49 50
f 44 50 45
usemtl APPID_1857671216_2531593556496 
o vid_9 
f 53 52 51
f 54 55 56
f 51 56 55
f 51 55 53
f 53 55 54
f 54 52 53
f 52 54 56
f 56 51 52
usemtl APPID_1857669536_2531593556368 
o vid_10 
f 57 64 65
f 58 65 66
f 59 66 67
f 60 67 68
f 61 68 69
f 57 65 58
f 58 66 59
f 59 67 60
f 60 68 61
f 61 69 62
f 62 69 70
f 62 70 63
usemtl APPID_1857671216_2531593556496 
o vid_11 
f 73 72 71
f 74 75 76
f 71 76 75
f 71 75 73
f 73 75 74
f 74 72 73
f 72 74 76
f 76 71 72
usemtl APPID_1857669536_2531593556368 
o vid_12 
f 77 84 85
f 78 85 86
f 79 86 87
f 80 87 88
f 81 88 89
f 77 85 78
f 78 86 79
f 79 87 80
f 80 88 81
f 81 89 82
f 82 89 90
f 82 90 83
usemtl APPID_1857671216_2531593556496 
o vid_13 
f 93 92 91
f 94 95 96
f 91 96 95
f 91 95 93
f 93 95 94
f 94 92 93
f 92 94 96
f 96 91 92
usemtl APPID_1857669536_2531593556368 
o vid_14 
f 97 105 106
f 98 106 107
f 99 107 108
f 100 108 109
f 101 109 110
f 102 110 111
f 97 106 98
f 98 107 99
f 99 108 100
f 100 109 101
f 101 110 102
f 102 111 103
f 103 111 112
f 103 112 104
usemtl APPID_1857671216_2531593556496 
o vid_15 
f 115 114 113
f 116 117 118
f 113 118 117
f 113 117 115
f 115 117 116
f 116 114 115
f 114 116 118
f 118 113 114
usemtl APPID_1857669536_2531593556368 
o vid_16 
f 119 126 127
f 120 127 128
f 121 128 129
f 122 129 130
f 123 130 131
f 119 127 120
f 120 128 121
f 121 129 122
f 122 130 123
f 123 131 124
f 124 131 132
f 124 132 125
usemtl APPID_1857671216_2531593556496 
o vid_17 
f 135 134 133
f 136 137 138
f 133 138 137
f 133 137 135
f 135 137 136
f 136 134 135
f 134 136 138
f 138 133 134
usemtl APPID_1857669536_2531593556368 
o vid_18 
f 139 146 147
f 140 147 148
f 141 148 149
f 142 149 150
f 143 150 151
f 139 147 140
f 140 148 141
f 141 149 142
f 142 150 143
f 143 151 144
f 144 151 152
f 144 152 145
usemtl APPID_1857671216_2531593556496 
o vid_19 
f 155 154 153
f 156 157 158
f 153 158 157
f 153 157 155
f 155 157 156
f 156 154 155
f 154 156 158
f 158 153 154
usemtl APPID_1857669536_2531593556368 
o vid_20 
f 159 167 168
f 160 168 169
f 161 169 170
f 162 170 171
f 163 171 172
f 164 172 173
f 159 168 160
f 160 169 161
f 161 170 162
f 162 171 163
f 163 172 164
f 164 173 165
f 165 173 174
f 165 174 166
usemtl APPID_1857671216_2531593556496 
o vid_21 
f 177 176 175
f 178 179 180
f 175 180 179
f 175 179 177
f 177 179 178
f 178 176 177
f 176 178 180
f 180 175 176
usemtl APPID_1857669536_2531593556368 
o vid_22 
f 181 189 190
f 182 190 191
f 183 191 192
f 184 192 193
f 185 193 194
f 186 194 195
f 181 190 182
f 182 191 183
f 183 192 184
f 184 193 185
f 185 194 186
f 186 195 187
f 187 195 196
f 187 196 188
usemtl APPID_1857671216_2531593556496 
o vid_23 
f 199 198 197
f 200 201 202
f 197 202 201
f 197 201 199
f 199 201 200
f 200 198 199
f 198 200 202
f 202 197 198
usemtl APPID_1857669536_2531593556368 
o vid_24 
f 203 211 212
f 204 212 213
f 205 213 214
f 206 214 215
f 207 215 216
f 208 216 217
f 203 212 204
f 204 213 205
f 205 214 206
f 206 215 207
f 207 216 208
f 208 217 209
f 209 217 218
usemtl APPID_1857671216_2531593556496 
o vid_25 
f 221 220 219
f 222 223 224
f 219 224 223
f 219 223 221
f 221 223 222
f 222 220 221
f 220 222 224
f 224 219 220
usemtl APPID_1857669536_2531593556368 
o vid_26 
f 225 233 234
f 226 234 235
f 227 235 236
f 228 236 237
f 229 237 238
f 230 238 239
f 225 234 226
f 226 235 227
f 227 236 228
f 228 237 229
f 229 238 230
f 230 239 231
f 231 239 240
usemtl APPID_1857673456_2531593556752 
o vid_10000004 
f 241 246 247
f 242 247 248
f 243 248 249
f 241 247 242
f 242 248 243
f 243 249 244
f 244 249 250
usemtl APPID_1857673456_2531593556752 
o vid_10000006 
f 251 254 255
f 251 255 252
f 252 255 256
usemtl APPID_1857673456_2531593556752 
o vid_10000008 
f 257 261 262
f 258 262 263
f 257 262 258
f 258 263 259
f 259 263 264
usemtl APPID_1857673456_2531593556752 
o vid_10000010 
f 265 268 269
f 265 269 266
f 266 269 270
usemtl APPID_1857673456_2531593556752 
o vid_10000012 
f 271 273 274
f 271 274 272
f 271 273 274
usemtl APPID_1857673456_2531593556752 
o vid_10000014 
f 275 277 278
f 275 278 276
f 275 277 278
usemtl APPID_1857673456_2531593556752 
o vid_10000016 
f 279 281 282
f 279 282 280
f 279 281 282
usemtl APPID_1857673456_2531593556752 
o vid_10000018 
f 283 285 286
f 283 286 284
f 283 285 286
usemtl APPID_1857673456_2531593556752 
o vid_10000020 
f 287 289 290
f 287 290 288
f 287 289 290
usemtl APPID_1857673456_2531593556752 
o vid_10000022 
f 291 293 294
f 291 294 292
f 291 293 294
