# File generated by PlantGL - Fri Sep  4 14:44:06 2026
v    58.201987 19.124129 0.000000
v    61.657533 18.880811 0.000000
v    60.140480 21.995060 0.000000
v    61.798013 20.875871 0.231332
v    58.342467 21.119189 0.231332
v    59.859520 18.004940 0.231332
v    61.002052 20.847619 -2.285310
v    62.067849 21.007317 -1.307178
v    61.285116 20.266536 -2.285310
v    62.067849 21.007317 -1.307178
v    61.503548 21.204422 0.231332
v    58.205166 20.699900 0.231332
v    60.291286 18.095678 0.231332
v    58.496452 18.795578 0.322458
v    61.794834 19.300100 0.322458
v    59.708714 21.904322 0.322458
v    59.324590 18.926116 -2.194185
v    58.032069 18.423583 -0.935525
v    58.804592 19.575259 -2.194185
v    58.032069 18.423583 -0.935525
v    58.272844 19.328938 0.322458
v    61.444735 18.839770 0.322458
v    60.282421 21.831292 0.322458
v    61.727156 20.671062 0.466406
v    58.555265 21.160230 0.466406
v    59.717579 18.168708 0.466406
v    60.839020 20.946903 -2.050236
v    62.764792 21.074221 -0.298561
v    61.258230 19.867954 -2.050236
v    62.764792 21.074221 -0.298561
v    61.731622 20.409625 0.466406
v    58.779443 21.294816 0.466406
v    59.488935 18.295559 0.466406
v    58.268378 19.590375 0.678771
v    61.220557 18.705184 0.678771
v    60.511065 21.704441 0.678771
v    59.165742 18.959120 -1.837872
v    56.435551 19.156809 0.646578
v    58.787807 20.556780 -1.837872
v    56.435551 19.156809 0.646578
v    58.876148 18.716648 0.678771
v    61.673341 19.668392 0.678771
v    59.450510 21.614960 0.678771
v    61.123852 21.283352 0.903326
v    58.326659 20.331608 0.903326
v    60.549490 18.385040 0.903326
v    59.698993 21.563508 -1.613316
v    63.277646 23.742819 2.189597
v    61.589554 19.907913 -1.613316
v    63.277646 23.742819 2.189597
v    61.375838 20.878433 0.903326
v    58.551335 20.752294 0.903326
v    60.072827 18.369272 0.903326
v    58.624162 19.121567 1.432322
v    61.448665 19.247706 1.432322
v    59.927173 21.630728 1.432322
v    60.183115 18.032581 -1.084320
v    54.527268 16.505817 4.232754
v    58.292317 20.994026 -1.084320
v    54.527268 16.505817 4.232754
v    58.735263 19.088754 1.432322
v    61.421531 19.360328 1.432322
v    59.843206 21.550918 1.432322
v    61.264737 20.911246 2.225063
v    58.578469 20.639672 2.225063
v    60.156794 18.449082 2.225063
v    59.387179 22.271886 -0.291579
v    61.461881 23.338630 1.903192
v    66.833558 25.117469 7.038974
v    67.399670 25.331479 7.407083
v    61.961070 18.699530 -0.291579
v    63.629702 20.329867 1.903192
v    67.017463 24.862224 7.038974
v    67.399670 25.331479 7.407083
v    61.244614 20.810576 2.225063
v    58.675713 20.672580 2.225063
v    60.079672 18.516844 2.225063
v    58.755386 19.189424 3.118961
v    61.324287 19.327420 3.118961
v    59.920328 21.483156 3.118961
v    60.651398 17.612040 0.602319
v    57.581592 16.212223 3.776478
v    53.171343 14.978835 7.932872
v    51.411742 14.406754 9.058257
v    58.079351 21.561339 0.602319
v    55.557800 19.319692 3.776478
v    52.646462 15.784774 7.932872
v    51.411742 14.406754 9.058257
v    58.765415 19.315252 3.118961
v    61.210302 19.273192 3.118961
v    60.024283 21.411556 3.118961
v    61.234585 20.684748 4.387400
v    58.789698 20.726808 4.387400
v    59.975717 18.588444 4.387400
v    59.282507 22.703470 1.870758
v    64.697639 24.725785 7.309353
v    66.739864 25.143655 9.201311
v    71.329323 26.283679 12.077587
v    61.913487 17.959874 1.870758
v    66.496315 21.482813 7.309353
v    67.932143 22.994005 9.201311
v    71.329323 26.283679 12.077587
v    61.166878 20.310397 4.387400
v    59.147750 20.855348 4.387400
v    59.685372 18.834256 4.387400
v    58.833122 19.689603 6.196782
v    60.852250 19.144652 6.196782
v    60.314628 21.165744 6.196782
v    60.290098 17.044121 3.680139
v    58.322876 16.756374 5.559235
v    52.653179 16.127030 10.926037
v    45.533562 16.151838 15.284399
v    58.783113 22.709347 3.680139
v    56.932923 21.981639 5.559235
v    51.699877 19.710787 10.926037
v    45.533562 16.151838 15.284399
v    59.128594 19.638270 6.196782
v    60.748970 19.426205 6.196782
v    60.122436 20.935524 6.196782
v    60.871406 20.361730 8.792898
v    59.251030 20.573795 8.792898
v    59.877564 19.064476 8.792898
v    59.030011 22.898936 6.276255
v    61.933846 23.729921 9.130969
v    66.550386 24.879392 13.606809
v    67.614581 25.168491 14.295713
v    74.687968 26.097128 18.634875
v    61.368157 17.266348 6.276255
v    64.006828 18.736114 9.130969
v    68.080256 21.193939 13.606809
v    69.036339 21.743479 14.295713
v    74.687968 26.097128 18.634875
v    60.542489 20.446373 8.792898
v    59.342186 20.246623 8.792898
v    60.115325 19.307005 8.792898
v    59.457511 19.553627 12.654445
v    60.657814 19.753377 12.654445
v    59.884675 20.692995 12.654445
v    62.094585 17.494401 10.137803
v    57.970611 14.829142 14.778723
v    55.517151 13.361576 17.468356
v    52.710216 11.600609 19.538378
v    47.284788 9.141368 23.161463
v    46.084613 8.550096 23.491327
v    57.944675 22.537903 10.137803
v    54.535116 19.004395 14.778723
v    52.622536 16.879482 17.468356
v    50.353976 14.464214 19.538378
v    46.895946 9.613939 23.161463
v    46.084613 8.550096 23.491327
v    59.665221 19.649728 12.654445
v    60.470734 19.885209 12.654445
v    59.864045 20.465063 12.654445
v    60.334779 20.350272 15.949224
v    59.529266 20.114791 15.949224
v    60.135955 19.534937 15.949224
v    57.588902 21.967733 13.432582
v    60.270122 24.195398 16.727254
v    63.662817 26.820737 20.763135
v    64.943924 27.856303 21.792221
v    71.044161 31.555262 26.131383
v    62.074723 17.680325 13.432582
v    64.178897 20.459512 16.727254
v    66.648174 23.967425 20.763135
v    67.624765 25.294039 21.792221
v    71.044161 31.555262 26.131383
v    60.202760 20.206647 15.949224
v    59.719658 20.072271 15.949224
v    60.077582 19.721081 15.949224
v    59.797240 19.793353 16.903000
v    60.280342 19.927729 16.903000
v    59.922418 20.278919 16.903000
v    61.060853 18.157184 11.969419
v    60.758205 18.125261 13.729327
v    58.680801 18.655506 21.799442
v    58.137370 21.025665 11.969419
v    58.111201 20.722465 13.729327
v    58.680801 18.655506 21.799442
mtllib usm_28_2.5D_2018-08-14_1.mtl
usemtl APPID_3780809440_1876378800752 
o vid_3 
f 3 2 1
f 4 5 6
f 1 6 5
f 1 5 3
f 3 5 4
f 4 2 3
f 2 4 6
f 6 1 2
usemtl APPID_3780810112_1876378803184 
o vid_4 
f 7 9 10
f 7 10 8
f 7 9 10
usemtl APPID_3780809440_1876378800752 
o vid_5 
f 13 12 11
f 14 15 16
f 11 16 15
f 11 15 13
f 13 15 14
f 14 12 13
f 12 14 16
f 16 11 12
usemtl APPID_3780810112_1876378803184 
o vid_6 
f 17 19 20
f 17 20 18
f 17 19 20
usemtl APPID_3780809440_1876378800752 
o vid_7 
f 23 22 21
f 24 25 26
f 21 26 25
f 21 25 23
f 23 25 24
f 24 22 23
f 22 24 26
f 26 21 22
usemtl APPID_3780810112_1876378803184 
o vid_8 
f 27 29 30
f 27 30 28
f 27 29 30
usemtl APPID_3780809440_1876378800752 
o vid_9 
f 33 32 31
f 34 35 36
f 31 36 35
f 31 35 33
f 33 35 34
f 34 32 33
f 32 34 36
f 36 31 32
usemtl APPID_3780810112_1876378803184 
o vid_10 
f 37 39 40
f 37 40 38
f 37 39 40
usemtl APPID_3780809440_1876378800752 
o vid_11 
f 43 42 41
f 44 45 46
f 41 46 45
f 41 45 43
f 43 45 44
f 44 42 43
f 42 44 46
f 46 41 42
usemtl APPID_3780810112_1876378803184 
o vid_12 
f 47 49 50
f 47 50 48
f 47 49 50
usemtl APPID_3780809440_1876378800752 
o vid_13 
f 53 52 51
f 54 55 56
f 51 56 55
f 51 55 53
f 53 55 54
f 54 52 53
f 52 54 56
f 56 51 52
usemtl APPID_3780810112_1876378803184 
o vid_14 
f 57 59 60
f 57 60 58
f 57 59 60
usemtl APPID_3780809440_1876378800752 
o vid_15 
f 63 62 61
f 64 65 66
f 61 66 65
f 61 65 63
f 63 65 64
f 64 62 63
f 62 64 66
f 66 61 62
usemtl APPID_3780810112_1876378803184 
o vid_16 
f 67 71 72
f 68 72 73
f 67 72 68
f 68 73 69
f 69 73 74
usemtl APPID_3780809440_1876378800752 
o vid_17 
f 77 76 75
f 78 79 80
f 75 80 79
f 75 79 77
f 77 79 78
f 78 76 77
f 76 78 80
f 80 75 76
usemtl APPID_3780810112_1876378803184 
o vid_18 
f 81 85 86
f 82 86 87
f 81 86 82
f 82 87 83
f 83 87 88
usemtl APPID_3780809440_1876378800752 
o vid_19 
f 91 90 89
f 92 93 94
f 89 94 93
f 89 93 91
f 91 93 92
f 92 90 91
f 90 92 94
f 94 89 90
usemtl APPID_3780810112_1876378803184 
o vid_20 
f 95 99 100
f 96 100 101
f 95 100 96
f 96 101 97
f 97 101 102
usemtl APPID_3780809440_1876378800752 
o vid_21 
f 105 104 103
f 106 107 108
f 103 108 107
f 103 107 105
f 105 107 106
f 106 104 105
f 104 106 108
f 108 103 104
usemtl APPID_3780810112_1876378803184 
o vid_22 
f 109 113 114
f 110 114 115
f 109 114 110
f 110 115 111
f 111 115 116
usemtl APPID_3780809440_1876378800752 
o vid_23 
f 119 118 117
f 120 121 122
f 117 122 121
f 117 121 119
f 119 121 120
f 120 118 119
f 118 120 122
f 122 117 118
usemtl APPID_3780810112_1876378803184 
o vid_24 
f 123 128 129
f 124 129 130
f 125 130 131
f 123 129 124
f 124 130 125
f 125 131 126
f 126 131 132
usemtl APPID_3780809440_1876378800752 
o vid_25 
f 135 134 133
f 136 137 138
f 133 138 137
f 133 137 135
f 135 137 136
f 136 134 135
f 134 136 138
f 138 133 134
usemtl APPID_3780810112_1876378803184 
o vid_26 
f 139 145 146
f 140 146 147
f 141 147 148
f 142 148 149
f 139 146 140
f 140 147 141
f 141 148 142
f 142 149 143
f 143 149 150
usemtl APPID_3780809440_1876378800752 
o vid_27 
f 153 152 151
f 154 155 156
f 151 156 155
f 151 155 153
f 153 155 154
f 154 152 153
f 152 154 156
f 156 151 152
usemtl APPID_3780810112_1876378803184 
o vid_28 
f 157 162 163
f 158 163 164
f 159 164 165
f 157 163 158
f 158 164 159
f 159 165 160
f 160 165 166
usemtl APPID_3780809440_1876378800752 
o vid_29 
f 169 168 167
f 170 171 172
f 167 172 171
f 167 171 169
f 169 171 170
f 170 168 169
f 168 170 172
f 172 167 168
usemtl APPID_3780810112_1876378803184 
o vid_30 
f 173 176 177
f 173 177 174
f 174 177 178
