# File generated by PlantGL - Fri Sep  4 14:44:31 2026
v    138.201987 19.124129 0.000000
v    141.657533 18.880811 0.000000
v    140.140480 21.995060 0.000000
v    141.798013 20.875871 0.331061
v    138.342467 21.119189 0.331061
v    139.859520 18.004940 0.331061
v    141.399179 21.442027 -0.051354
v    142.498162 21.859479 1.062557
v    142.619099 21.907215 1.144207
v    143.512466 22.238327 1.741423
v    141.997960 20.212831 -0.051354
v    143.004109 20.820858 1.062557
v    143.116245 20.886659 1.144207
v    143.927661 21.386003 1.741423
v    141.503548 21.204422 0.331061
v    138.205166 20.699900 0.331061
v    140.291286 18.095678 0.331061
v    138.496452 18.795578 0.718770
v    141.794834 19.300100 0.718770
v    139.708714 21.904322 0.718770
v    139.260401 18.087603 0.187697
v    137.899380 17.185950 1.734622
v    136.886354 16.495836 2.504388
v    136.309267 16.120200 2.936006
v    134.855130 15.147711 3.377418
v    134.460034 14.898169 3.495026
v    137.972285 19.695631 0.187697
v    136.795314 18.564218 1.734622
v    135.900736 17.726239 2.504388
v    135.408202 17.245051 2.936006
v    134.141779 16.038227 3.377418
v    133.812020 15.707122 3.495026
v    138.272844 19.328938 0.718770
v    141.444735 18.839770 0.718770
v    140.282421 21.831292 0.718770
v    141.727156 20.671062 1.487000
v    138.555265 21.160230 1.487000
v    139.717579 18.168708 1.487000
v    141.016347 21.925626 0.767206
v    143.142736 22.537774 2.863844
v    145.111914 23.132326 4.155610
v    145.629036 23.276681 4.492151
v    148.339958 24.069920 5.204876
v    149.682658 24.424999 5.554415
v    150.255663 24.577145 5.429363
v    142.049826 19.265693 0.767206
v    144.031713 20.249757 2.863844
v    145.885748 21.140660 4.155610
v    146.364680 21.383307 4.492151
v    148.900028 22.628432 5.204876
v    150.130242 23.273023 5.554415
v    150.655658 23.547653 5.429363
v    141.731622 20.409625 1.487000
v    138.779443 21.294816 1.487000
v    139.488935 18.295559 1.487000
v    138.268378 19.590375 2.857581
v    141.220557 18.705184 2.857581
v    140.511065 21.704441 2.857581
v    138.979584 17.780244 1.905447
v    136.082051 17.365996 4.678853
v    132.909788 16.870557 6.695159
v    128.440346 16.214444 7.917225
v    127.175354 16.061611 8.237906
v    125.573418 15.866442 7.897510
v    124.965874 15.864289 7.771924
v    138.093195 21.527305 1.905447
v    135.317161 20.599438 4.678853
v    132.259139 19.621067 6.695159
v    127.969432 18.205152 7.917225
v    126.770037 17.775020 8.237906
v    125.250441 17.231773 7.897510
v    124.706324 16.961494 7.771924
v    138.876148 18.716648 2.857581
v    141.673341 19.668392 2.857581
v    139.450510 21.614960 2.857581
v    141.123852 21.283352 4.464214
v    138.326659 20.331608 4.464214
v    140.549490 18.385040 4.464214
v    138.864793 22.789032 3.235010
v    140.489833 24.338261 5.362431
v    141.600025 25.396149 6.815473
v    144.765878 28.491896 9.596159
v    146.703044 30.423675 10.287444
v    149.910941 33.507238 11.410204
v    150.945487 34.503221 11.106522
v    153.708389 37.028589 10.316978
v    155.261029 38.143656 9.921840
v    142.914429 19.242702 3.235010
v    144.235706 21.057940 5.362431
v    145.137868 22.298004 6.815473
v    147.788848 25.844634 9.596159
v    149.448150 28.019743 10.287444
v    152.081505 31.606440 11.410204
v    152.932283 32.763352 11.106522
v    155.071037 35.835297 10.316978
v    155.971500 37.521485 9.921840
v    141.375838 20.878433 4.464214
v    138.551335 20.752294 4.464214
v    140.072827 18.369272 4.464214
v    138.624162 19.121567 11.608452
v    141.448665 19.247706 11.608452
v    139.927173 21.630728 11.608452
v    140.957429 16.299579 10.059688
v    139.119933 15.242167 12.074546
v    137.670556 14.490943 13.621410
v    134.917560 13.033367 15.897928
v    131.860792 11.399509 18.074564
v    124.450803 7.344935 20.208929
v    117.843365 3.879677 18.909233
v    114.697922 2.332310 18.169826
v    111.386539 1.124739 16.137167
v    110.851643 0.976408 15.658042
v    137.046068 22.425711 10.059688
v    135.313599 21.203802 12.074546
v    134.022213 20.205127 13.621410
v    131.541482 18.321118 15.897928
v    128.773007 16.235724 18.074564
v    121.976696 11.219982 20.208929
v    116.052706 6.684280 18.909233
v    113.325376 4.482048 18.169826
v    110.836461 1.986295 16.137167
v    110.476812 1.563485 15.658042
v    138.735263 19.088754 11.608452
v    141.421531 19.360328 11.608452
v    139.843206 21.550918 11.608452
v    141.264737 20.911246 22.178673
v    138.578469 20.639672 22.178673
v    140.156794 18.449082 22.178673
v    138.182748 24.246432 20.274167
v    140.517692 25.935336 23.015843
v    142.989896 27.549075 25.821669
v    148.832761 31.140458 30.130010
v    158.275731 37.018755 32.940657
v    162.052729 39.373115 31.998166
v    165.807148 41.619554 31.072952
v    169.158151 43.624610 30.247153
v    172.890736 45.682187 27.747604
v    177.868830 47.595693 23.090993
v    143.452816 16.931996 20.274167
v    145.793993 18.612248 23.015843
v    148.107321 20.446496 25.821669
v    153.363573 24.852052 30.130010
v    161.928744 31.948664 32.940657
v    165.357637 34.786165 31.998166
v    168.677012 37.636411 31.072952
v    171.639716 40.180396 30.247153
v    174.773029 43.069714 27.747604
v    178.163944 47.186099 23.090993
v    141.244614 20.810576 22.178673
v    138.675713 20.672580 22.178673
v    140.079672 18.516844 22.178673
v    138.755386 19.189424 39.904756
v    141.324287 19.327420 39.904756
v    139.920328 21.483156 39.904756
v    142.263440 15.014382 37.619079
v    138.635474 12.882747 41.618191
v    136.156123 11.569119 44.276869
v    132.311628 9.468296 47.028178
v    128.930609 7.621648 49.447489
v    117.278158 1.108180 52.820665
v    107.071858 -4.375188 50.370395
v    103.758803 -6.042363 49.588078
v    101.178878 -7.292577 47.907916
v    96.073237 -8.852268 43.973888
v    136.355346 24.086079 37.619079
v    132.938780 21.629846 41.618191
v    130.734808 19.893382 44.276869
v    127.258871 17.226650 47.028178
v    124.202808 14.881041 49.447489
v    113.533910 6.857358 52.820665
v    104.391895 -0.260187 50.370395
v    101.527461 -2.616205 49.588078
v    99.340821 -4.470297 47.907916
v    95.849864 -8.509284 43.973888
v    138.765415 19.315252 39.904756
v    141.210302 19.273192 39.904756
v    140.024283 21.411556 39.904756
v    141.234585 20.684748 66.607384
v    138.789698 20.726808 66.607384
v    139.975717 18.588444 66.607384
v    138.152160 24.645699 63.930171
v    145.679983 27.972401 71.728441
v    148.541882 29.281601 73.704819
v    154.516403 31.864361 77.784791
v    159.393612 34.045167 79.132872
v    166.853466 37.149543 81.166403
v    169.075711 37.778102 81.735792
v    174.295598 39.265867 80.613819
v    142.962600 15.972590 63.930171
v    149.770612 20.597094 71.728441
v    152.396578 22.331676 73.704819
v    157.751033 26.032402 77.784791
v    162.183485 29.015093 79.132872
v    168.766905 33.699658 81.166403
v    170.476782 35.252005 81.735792
v    174.502762 38.892355 80.613819
v    141.293262 20.344016 66.607384
v    139.055443 20.947990 66.607384
v    139.651295 18.707994 66.607384
v    138.706738 19.655984 106.368040
v    140.944557 19.052010 106.368040
v    140.348705 21.292006 106.368040
v    140.792018 15.260421 103.307578
v    138.153057 14.808231 105.844507
v    131.476276 13.831614 112.222185
v    126.629693 13.041406 115.300291
v    120.527816 12.232619 119.145512
v    118.353276 11.908563 119.698831
v    109.336003 11.644853 121.922989
v    138.332455 24.506683 103.307578
v    135.817604 23.587927 105.844507
v    129.538032 21.118075 112.222185
v    124.939386 19.395794 115.300291
v    119.242124 17.065937 119.145512
v    117.193976 16.266732 119.698831
v    109.237460 12.015309 121.922989
v    138.831935 19.515124 106.368040
v    141.003948 19.230864 106.368040
v    140.164118 21.254012 106.368040
v    141.168065 20.484876 147.991690
v    138.996052 20.769136 147.991690
v    139.835882 18.745988 147.991690
v    137.853253 25.894147 144.577195
v    147.871153 29.028009 154.523041
v    150.975822 30.043461 156.574387
v    159.634686 32.675552 162.247257
v    165.312277 34.478863 163.750400
v    175.212088 37.340746 166.343947
v    178.983882 37.959949 167.286330
v    185.539404 39.049668 165.912645
v    142.658511 14.318291 144.577195
v    151.950750 19.200269 154.523041
v    154.861852 20.682025 156.574387
v    162.839231 24.955811 162.247257
v    168.124828 27.703434 163.750400
v    177.141081 32.693806 166.343947
v    180.242570 34.927774 167.286330
v    185.642650 38.800948 165.912645
v    140.919824 20.756852 147.991690
v    138.884635 20.418165 147.991690
v    140.195542 18.824983 147.991690
v    139.080176 19.243148 183.144356
v    141.115365 19.581835 183.144356
v    139.804458 21.175017 183.144356
v    144.612596 14.212007 179.426422
v    135.167996 7.775243 190.256135
v    126.145305 1.453728 197.174619
v    111.777020 -8.394732 202.461598
v    106.140219 -12.059268 204.153671
v    102.337943 -14.536585 203.196446
v    91.898448 -19.705729 200.788449
v    135.208637 25.640899 179.426422
v    127.073531 17.612672 190.256135
v    119.132767 9.976261 197.174619
v    106.701629 -2.226467 202.461598
v    102.020159 -7.052045 204.153671
v    98.856977 -10.306069 203.196446
v    91.774167 -19.554686 200.788449
v    139.227775 19.192038 183.144356
v    141.085829 19.735214 183.144356
v    139.686397 21.072748 183.144356
v    140.772225 20.807962 211.512118
v    138.914171 20.264786 211.512118
v    140.313603 18.927252 211.512118
v    134.595001 25.131062 207.561068
v    143.744672 33.119234 219.069809
v    148.496937 37.377694 223.077094
v    154.464098 42.502975 228.007812
v    161.874945 49.030208 230.499678
v    171.026304 56.675281 233.500776
v    181.488701 63.515696 231.538171
v    145.370167 14.832493 207.561068
v    152.936530 24.333941 219.069809
v    156.975796 29.273864 223.077094
v    161.826072 35.466629 228.007812
v    168.011600 43.164983 230.499678
v    175.235141 52.652607 233.500776
v    181.595575 63.413549 231.538171
v    140.731259 20.745280 211.512118
v    138.988939 20.260648 211.512118
v    140.279802 18.994071 211.512118
v    139.268741 19.254720 228.730144
v    141.011061 19.739352 228.730144
v    139.720198 21.005929 228.730144
v    145.553522 14.748788 224.632265
v    135.955986 6.588936 236.568692
v    131.825209 2.983937 240.011748
v    124.694411 -2.980085 245.838848
v    117.908242 -8.800864 248.094802
v    108.313623 -16.604876 251.207426
v    97.232288 -23.641113 249.742376
v    134.644269 25.452796 224.632265
v    126.668153 15.702029 236.568692
v    123.142251 11.503535 240.011748
v    117.314724 4.260762 245.838848
v    111.623869 -2.634724 248.094802
v    104.003474 -12.375817 251.207426
v    97.178949 -23.588777 249.742376
v    139.439591 19.379068 228.730144
v    140.817947 19.825138 228.730144
v    139.742462 20.795794 228.730144
v    140.560409 20.620932 239.394678
v    139.182053 20.174862 239.394678
v    140.257538 19.204206 239.394678
v    133.854841 25.056664 235.246654
v    143.217118 33.714106 247.329147
v    149.256887 39.445733 252.558115
v    154.159377 43.906191 256.712740
v    163.104910 52.250904 259.799579
v    172.134276 60.242997 262.834346
v    183.545828 68.248679 259.950275
v    145.658202 14.403789 235.246654
v    153.313524 24.601808 247.329147
v    158.397898 31.195706 252.558115
v    162.333985 36.528372 256.712740
v    169.720804 46.279868 259.799579
v    176.748282 56.078723 262.834346
v    183.545828 68.248679 259.950275
v    140.621236 20.120938 239.394678
v    139.584647 20.477537 239.394678
v    139.794117 19.401525 239.394678
v    139.378764 19.879062 244.883087
v    140.415353 19.522463 244.883087
v    140.205883 20.598475 244.883087
v    142.019491 12.517227 240.785208
v    129.487492 11.234690 252.721635
v    122.896971 10.474026 256.887908
v    114.790491 9.710543 261.991790
v    104.587588 8.621402 264.580897
v    92.259685 7.630371 267.693521
v    78.965723 8.118276 265.579532
v    139.065003 27.693895 240.785208
v    126.967069 24.181649 252.721635
v    120.572490 22.414465 256.887908
v    112.771602 20.081214 261.991790
v    102.905223 17.263409 264.580897
v    91.105832 13.557507 267.693521
v    78.965723 8.118276 265.579532
v    139.651068 19.712142 244.883087
v    140.423758 19.841745 244.883087
v    139.925174 20.446113 244.883087
v    140.348932 20.287858 247.346796
v    139.576242 20.158255 247.346796
v    140.074826 19.553887 247.346796
v    135.456568 24.422325 243.395746
v    139.469723 27.164920 248.001471
v    145.598752 31.137124 254.904487
v    152.224042 35.586741 259.907118
v    157.556095 38.941375 263.842490
v    161.511237 41.519843 265.030745
v    172.921827 47.159457 268.168879
v    143.478134 14.698839 243.395746
v    146.933516 18.117548 248.001471
v    151.998258 23.379848 254.904487
v    157.626033 29.038619 259.907118
v    161.932981 33.635853 263.842490
v    165.216202 37.028803 265.030745
v    172.921827 47.159457 268.168879
v    140.235710 20.177002 247.346796
v    139.728857 20.115630 247.346796
v    140.035433 19.707368 247.346796
v    139.764290 19.822998 248.309000
v    140.271143 19.884370 248.309000
v    139.964567 20.292632 248.309000
v    143.576582 17.606248 240.774328
v    136.473438 13.926180 250.230080
v    134.268893 13.238077 252.838022
v    127.708872 10.770217 258.245427
v    138.698557 24.102223 240.774328
v    133.183706 18.307054 250.230080
v    131.908145 16.381840 252.838022
v    127.708872 10.770217 258.245427
v    143.512466 22.238327 1.741423
v    143.791042 22.341577 1.927651
v    144.161378 22.484100 2.027778
v    145.248981 22.870355 2.318249
v    145.936389 23.025916 2.492015
v    146.454734 23.144312 2.382108
v    143.927661 21.386003 1.741423
v    144.180683 21.541712 1.927651
v    144.521192 21.745464 2.027778
v    145.495760 22.363760 2.318249
v    146.041986 22.809143 2.492015
v    146.454734 23.144312 2.382108
v    134.460034 14.898169 3.495026
v    133.705068 14.421332 3.719757
v    133.498271 14.290429 3.668133
v    131.941961 13.545081 3.311437
v    133.812020 15.707122 3.495026
v    133.181900 15.074431 3.719757
v    133.009018 14.901191 3.668133
v    131.941961 13.545081 3.311437
v    150.255663 24.577145 5.429363
v    150.446749 24.627883 5.387660
v    152.762049 24.958513 4.904210
v    150.655658 23.547653 5.429363
v    150.830874 23.639236 5.387660
v    152.762049 24.958513 4.904210
v    124.965874 15.864289 7.771924
v    122.479719 15.855476 7.258008
v    124.706324 16.961494 7.771924
v    122.479719 15.855476 7.258008
v    155.261029 38.143656 9.921840
v    156.243663 38.849358 9.671765
v    156.885353 39.281772 9.229854
v    155.971500 37.521485 9.921840
v    156.541385 38.588638 9.671765
v    156.885353 39.281772 9.229854
v    110.851643 0.976408 15.658042
v    109.707566 0.659145 14.633253
v    110.476812 1.563485 15.658042
v    109.707566 0.659145 14.633253
v    177.868830 47.595693 23.090993
v    178.285513 47.736854 22.711251
v    178.567750 47.788154 22.235482
v    178.163944 47.186099 23.090993
v    178.429745 47.536670 22.711251
v    178.567750 47.788154 22.235482
v    96.073237 -8.852268 43.973888
v    95.402647 -9.044771 43.371684
v    95.849864 -8.509284 43.973888
v    95.402647 -9.044771 43.371684
v    174.295598 39.265867 80.613819
v    175.201341 39.524020 80.419137
v    174.502762 38.892355 80.613819
v    175.201341 39.524020 80.419137
v    109.336003 11.644853 121.922989
v    108.498305 11.620355 122.129612
v    109.237460 12.015309 121.922989
v    108.498305 11.620355 122.129612
v    185.539404 39.049668 165.912645
v    186.125183 39.147042 165.789897
v    185.642650 38.800948 165.912645
v    186.125183 39.147042 165.789897
v    91.898448 -19.705729 200.788449
v    91.511926 -19.897116 200.699293
v    91.774167 -19.554686 200.788449
v    91.511926 -19.897116 200.699293
v    181.488701 63.515696 231.538171
v    181.761509 63.694146 231.470786
v    181.595575 63.413549 231.538171
v    181.761509 63.694146 231.470786
v    97.232288 -23.641113 249.742376
v    97.093222 -23.729496 249.708316
v    97.178949 -23.588777 249.742376
v    97.093222 -23.729496 249.708316
mtllib usm_35_2.5D_2018-10-05_3.mtl
usemtl APPID_929227152_1946549174608 
o vid_3 
f 3 2 1
f 4 5 6
f 1 6 5
f 1 5 3
f 3 5 4
f 4 2 3
f 2 4 6
f 6 1 2
usemtl APPID_929225584_1946549175248 
o vid_4 
f 7 11 12
f 8 12 13
f 7 12 8
f 8 13 9
f 9 13 14
f 9 14 10
usemtl APPID_929227152_1946549174608 
o vid_5 
f 17 16 15
f 18 19 20
f 15 20 19
f 15 19 17
f 17 19 18
f 18 16 17
f 16 18 20
f 20 15 16
usemtl APPID_929225584_1946549175248 
o vid_6 
f 21 27 28
f 22 28 29
f 23 29 30
f 24 30 31
f 21 28 22
f 22 29 23
f 23 30 24
f 24 31 25
f 25 31 32
f 25 32 26
usemtl APPID_929227152_1946549174608 
o vid_7 
f 35 34 33
f 36 37 38
f 33 38 37
f 33 37 35
f 35 37 36
f 36 34 35
f 34 36 38
f 38 33 34
usemtl APPID_929225584_1946549175248 
o vid_8 
f 39 46 47
f 40 47 48
f 41 48 49
f 42 49 50
f 43 50 51
f 39 47 40
f 40 48 41
f 41 49 42
f 42 50 43
f 43 51 44
f 44 51 52
f 44 52 45
usemtl APPID_929227152_1946549174608 
o vid_9 
f 55 54 53
f 56 57 58
f 53 58 57
f 53 57 55
f 55 57 56
f 56 54 55
f 54 56 58
f 58 53 54
usemtl APPID_929225584_1946549175248 
o vid_10 
f 59 66 67
f 60 67 68
f 61 68 69
f 62 69 70
f 63 70 71
f 59 67 60
f 60 68 61
f 61 69 62
f 62 70 63
f 63 71 64
f 64 71 72
f 64 72 65
usemtl APPID_929227152_1946549174608 
o vid_11 
f 75 74 73
f 76 77 78
f 73 78 77
f 73 77 75
f 75 77 76
f 76 74 75
f 74 76 78
f 78 73 74
usemtl APPID_929225584_1946549175248 
o vid_12 
f 79 88 89
f 80 89 90
f 81 90 91
f 82 91 92
f 83 92 93
f 84 93 94
f 85 94 95
f 79 89 80
f 80 90 81
f 81 91 82
f 82 92 83
f 83 93 84
f 84 94 85
f 85 95 86
f 86 95 96
f 86 96 87
usemtl APPID_929227152_1946549174608 
o vid_13 
f 99 98 97
f 100 101 102
f 97 102 101
f 97 101 99
f 99 101 100
f 100 98 99
f 98 100 102
f 102 97 98
usemtl APPID_929225584_1946549175248 
o vid_14 
f 103 113 114
f 104 114 115
f 105 115 116
f 106 116 117
f 107 117 118
f 108 118 119
f 109 119 120
f 110 120 121
f 103 114 104
f 104 115 105
f 105 116 106
f 106 117 107
f 107 118 108
f 108 119 109
f 109 120 110
f 110 121 111
f 111 121 122
f 111 122 112
usemtl APPID_929227152_1946549174608 
o vid_15 
f 125 124 123
f 126 127 128
f 123 128 127
f 123 127 125
f 125 127 126
f 126 124 125
f 124 126 128
f 128 123 124
usemtl APPID_929225584_1946549175248 
o vid_16 
f 129 139 140
f 130 140 141
f 131 141 142
f 132 142 143
f 133 143 144
f 134 144 145
f 135 145 146
f 136 146 147
f 129 140 130
f 130 141 131
f 131 142 132
f 132 143 133
f 133 144 134
f 134 145 135
f 135 146 136
f 136 147 137
f 137 147 148
f 137 148 138
usemtl APPID_929227152_1946549174608 
o vid_17 
f 151 150 149
f 152 153 154
f 149 154 153
f 149 153 151
f 151 153 152
f 152 150 151
f 150 152 154
f 154 149 150
usemtl APPID_929225584_1946549175248 
o vid_18 
f 155 165 166
f 156 166 167
f 157 167 168
f 158 168 169
f 159 169 170
f 160 170 171
f 161 171 172
f 162 172 173
f 155 166 156
f 156 167 157
f 157 168 158
f 158 169 159
f 159 170 160
f 160 171 161
f 161 172 162
f 162 173 163
f 163 173 174
f 163 174 164
usemtl APPID_929227152_1946549174608 
o vid_19 
f 177 176 175
f 178 179 180
f 175 180 179
f 175 179 177
f 177 179 178
f 178 176 177
f 176 178 180
f 180 175 176
usemtl APPID_929225584_1946549175248 
o vid_20 
f 181 189 190
f 182 190 191
f 183 191 192
f 184 192 193
f 185 193 194
f 186 194 195
f 181 190 182
f 182 191 183
f 183 192 184
f 184 193 185
f 185 194 186
f 186 195 187
f 187 195 196
f 187 196 188
usemtl APPID_929227152_1946549174608 
o vid_21 
f 199 198 197
f 200 201 202
f 197 202 201
f 197 201 199
f 199 201 200
f 200 198 199
f 198 200 202
f 202 197 198
usemtl APPID_929225584_1946549175248 
o vid_22 
f 203 210 211
f 204 211 212
f 205 212 213
f 206 213 214
f 207 214 215
f 203 211 204
f 204 212 205
f 205 213 206
f 206 214 207
f 207 215 208
f 208 215 216
f 208 216 209
usemtl APPID_929227152_1946549174608 
o vid_23 
f 219 218 217
f 220 221 222
f 217 222 221
f 217 221 219
f 219 221 220
f 220 218 219
f 218 220 222
f 222 217 218
usemtl APPID_929225584_1946549175248 
o vid_24 
f 223 231 232
f 224 232 233
f 225 233 234
f 226 234 235
f 227 235 236
f 228 236 237
f 223 232 224
f 224 233 225
f 225 234 226
f 226 235 227
f 227 236 228
f 228 237 229
f 229 237 238
f 229 238 230
usemtl APPID_929227152_1946549174608 
o vid_25 
f 241 240 239
f 242 243 244
f 239 244 243
f 239 243 241
f 241 243 242
f 242 240 241
f 240 242 244
f 244 239 240
usemtl APPID_929225584_1946549175248 
o vid_26 
f 245 252 253
f 246 253 254
f 247 254 255
f 248 255 256
f 249 256 257
f 245 253 246
f 246 254 247
f 247 255 248
f 248 256 249
f 249 257 250
f 250 257 258
f 250 258 251
usemtl APPID_929227152_1946549174608 
o vid_27 
f 261 260 259
f 262 263 264
f 259 264 263
f 259 263 261
f 261 263 262
f 262 260 261
f 260 262 264
f 264 259 260
usemtl APPID_929225584_1946549175248 
o vid_28 
f 265 272 273
f 266 273 274
f 267 274 275
f 268 275 276
f 269 276 277
f 265 273 266
f 266 274 267
f 267 275 268
f 268 276 269
f 269 277 270
f 270 277 278
f 270 278 271
usemtl APPID_929227152_1946549174608 
o vid_29 
f 281 280 279
f 282 283 284
f 279 284 283
f 279 283 281
f 281 283 282
f 282 280 281
f 280 282 284
f 284 279 280
usemtl APPID_929225584_1946549175248 
o vid_30 
f 285 292 293
f 286 293 294
f 287 294 295
f 288 295 296
f 289 296 297
f 285 293 286
f 286 294 287
f 287 295 288
f 288 296 289
f 289 297 290
f 290 297 298
f 290 298 291
usemtl APPID_929227152_1946549174608 
o vid_31 
f 301 300 299
f 302 303 304
f 299 304 303
f 299 303 301
f 301 303 302
f 302 300 301
f 300 302 304
f 304 299 300
usemtl APPID_929225584_1946549175248 
o vid_32 
f 305 312 313
f 306 313 314
f 307 314 315
f 308 315 316
f 309 316 317
f 305 313 306
f 306 314 307
f 307 315 308
f 308 316 309
f 309 317 310
f 310 317 318
usemtl APPID_929227152_1946549174608 
o vid_33 
f 321 320 319
f 322 323 324
f 319 324 323
f 319 323 321
f 321 323 322
f 322 320 321
f 320 322 324
f 324 319 320
usemtl APPID_929225584_1946549175248 
o vid_34 
f 325 332 333
f 326 333 334
f 327 334 335
f 328 335 336
f 329 336 337
f 325 333 326
f 326 334 327
f 327 335 328
f 328 336 329
f 329 337 330
f 330 337 338
usemtl APPID_929227152_1946549174608 
o vid_35 
f 341 340 339
f 342 343 344
f 339 344 343
f 339 343 341
f 341 343 342
f 342 340 341
f 340 342 344
f 344 339 340
usemtl APPID_929225584_1946549175248 
o vid_36 
f 345 352 353
f 346 353 354
f 347 354 355
f 348 355 356
f 349 356 357
f 345 353 346
f 346 354 347
f 347 355 348
f 348 356 349
f 349 357 350
f 350 357 358
usemtl APPID_929227152_1946549174608 
o vid_37 
f 361 360 359
f 362 363 364
f 359 364 363
f 359 363 361
f 361 363 362
f 362 360 361
f 360 362 364
f 364 359 360
usemtl APPID_929225584_1946549175248 
o vid_38 
f 365 369 370
f 366 370 371
f 365 370 366
f 366 371 367
f 367 371 372
usemtl APPID_929225472_1946549173328 
o vid_10000004 
f 373 379 380
f 374 380 381
f 375 381 382
f 376 382 383
f 373 380 374
f 374 381 375
f 375 382 376
f 376 383 377
f 377 383 384
usemtl APPID_929225472_1946549173328 
o vid_10000006 
f 385 389 390
f 386 390 391
f 385 390 386
f 386 391 387
f 387 391 392
usemtl APPID_929225472_1946549173328 
o vid_10000008 
f 393 396 397
f 393 397 394
f 394 397 398
usemtl APPID_929225472_1946549173328 
o vid_10000010 
f 399 401 402
f 399 402 400
f 399 401 402
usemtl APPID_929225472_1946549173328 
o vid_10000012 
f 403 406 407
f 403 407 404
f 404 407 408
usemtl APPID_929225472_1946549173328 
o vid_10000014 
f 409 411 412
f 409 412 410
f 409 411 412
usemtl APPID_929225472_1946549173328 
o vid_10000016 
f 413 416 417
f 413 417 414
f 414 417 418
usemtl APPID_929225472_1946549173328 
o vid_10000018 
f 419 421 422
f 419 422 420
f 419 421 422
usemtl APPID_929225472_1946549173328 
o vid_10000020 
f 423 425 426
f 423 426 424
f 423 425 426
usemtl APPID_929225472_1946549173328 
o vid_10000022 
f 427 429 430
f 427 430 428
f 427 429 430
usemtl APPID_929225472_1946549173328 
o vid_10000024 
f 431 433 434
f 431 434 432
f 431 433 434
usemtl APPID_929225472_1946549173328 
o vid_10000026 
f 435 437 438
f 435 438 436
f 435 437 438
usemtl APPID_929225472_1946549173328 
o vid_10000028 
f 439 441 442
f 439 442 440
f 439 441 442
usemtl APPID_929225472_1946549173328 
o vid_10000030 
f 443 445 446
f 443 446 444
f 443 445 446
