# File generated by PlantGL - Fri Sep  4 14:41:04 2026
v    9.414835 19.714947 0.000000
v    10.539446 19.635759 0.000000
v    10.045719 20.649294 0.000000
v    10.585165 20.285053 0.158000
v    9.460554 20.364241 0.158000
v    9.954281 19.350706 0.158000
v    10.530053 20.306566 -0.511810
v    10.610644 20.297465 -0.333614
v    10.568132 20.228397 -0.511810
v    10.610644 20.297465 -0.333614
mtllib usm_9_Beer_2018-07-07_0.mtl
usemtl APPID_2995591632_1179966635280 
o vid_3 
f 3 2 1
f 4 5 6
f 1 6 5
f 1 5 3
f 3 5 4
f 4 2 3
f 2 4 6
f 6 1 2
usemtl APPID_2995597344_1179966636176 
o vid_4 
f 7 9 10
f 7 10 8
f 7 9 10
