# File generated by PlantGL - Fri Sep  4 14:43:20 2026
v    58.281552 19.162888 0.000000
v    61.584185 18.930336 0.000000
v    60.134263 21.906776 0.000000
v    61.718448 20.837112 0.331061
v    58.415815 21.069664 0.331061
v    59.865737 18.093224 0.331061
v    61.310066 21.409830 -0.071093
v    62.313980 21.791170 0.946456
v    63.828404 22.349624 2.010061
v    65.012611 22.771389 2.326466
v    66.108764 23.019449 2.603556
v    66.277554 23.058002 2.567767
v    61.917677 20.162509 -0.071093
v    62.836787 20.717937 0.946456
v    64.210050 21.566171 2.010061
v    65.272128 22.238645 2.326466
v    66.143150 22.948860 2.603556
v    66.277554 23.058002 2.567767
v    61.202085 20.962934 0.331061
v    58.565033 20.559569 0.331061
v    60.232883 18.477497 0.331061
v    58.797915 19.037066 0.718770
v    61.434967 19.440431 0.718770
v    59.767117 21.522503 0.718770
v    59.575980 18.322801 0.163208
v    58.152200 17.379571 1.781465
v    57.453582 16.903644 2.312322
v    56.482998 16.271875 3.038247
v    55.378223 15.533030 3.373608
v    53.960587 14.637651 3.795596
v    52.334266 13.859338 3.537883
v    58.270690 19.952267 0.163208
v    57.039447 18.768682 1.781465
v    56.422515 18.190783 2.312322
v    55.594138 17.381489 3.038247
v    54.631978 16.464609 3.373608
v    53.448774 15.276576 3.795596
v    52.334266 13.859338 3.537883
v    58.889009 19.568340 0.718770
v    60.929323 19.253684 0.718770
v    60.181667 21.177976 0.718770
v    61.110991 20.431660 1.487000
v    59.070677 20.746316 1.487000
v    59.818333 18.822024 1.487000
v    60.385777 21.699704 0.737665
v    62.599434 22.336975 2.920351
v    64.144332 22.803425 3.933792
v    65.191805 23.095828 4.615484
v    67.433431 23.751747 5.204826
v    69.417549 24.276450 5.721343
v    72.031896 24.674823 5.173525
v    61.432136 19.006621 0.737665
v    63.495360 20.031071 2.920351
v    64.949924 20.730020 3.933792
v    65.920040 21.221522 4.615484
v    68.016486 22.251100 5.204826
v    69.834383 23.203616 5.721343
v    72.031896 24.674823 5.173525
v    60.843297 20.199487 1.487000
v    59.405591 20.630573 1.487000
v    59.751112 19.169940 1.487000
v    59.156703 19.800513 2.660442
v    60.594409 19.369427 2.660442
v    60.248888 20.830060 2.660442
v    59.865029 18.046097 1.673653
v    56.862036 17.616772 4.548002
v    55.171802 17.352794 5.622323
v    53.340994 17.106131 6.780300
v    50.768199 16.726857 7.436504
v    47.811505 16.369638 8.186039
v    44.606974 16.358691 7.616563
v    59.003908 21.686343 1.673653
v    56.126836 20.724705 4.548002
v    54.497471 20.203413 5.622323
v    52.750190 19.603658 6.780300
v    50.280146 18.790020 7.436504
v    47.476773 17.784662 8.186039
v    44.606974 16.358691 7.616563
v    59.628288 19.575533 2.660442
v    60.553455 19.890321 2.660442
v    59.818257 20.534146 2.660442
v    60.371712 20.424467 3.264000
v    59.446545 20.109679 3.264000
v    60.181743 19.465854 3.264000
v    58.946719 21.422820 0.686705
v    60.329914 22.445543 4.745532
v    60.653520 22.654709 5.640421
v    61.981492 23.681606 8.095672
v    63.289040 24.335203 10.112321
v    64.444558 25.075343 11.147514
v    61.549351 19.143654 0.686705
v    62.380634 20.649694 4.745532
v    62.545276 20.998068 5.640421
v    63.387983 22.449920 8.095672
v    63.863348 23.832272 10.112321
v    64.444558 25.075343 11.147514
mtllib usm_37_2.5D_2018-07-31_1.mtl
usemtl APPID_3043693216_2275079393136 
o vid_3 
f 3 2 1
f 4 5 6
f 1 6 5
f 1 5 3
f 3 5 4
f 4 2 3
f 2 4 6
f 6 1 2
usemtl APPID_3043698480_2275079394032 
o vid_4 
f 7 13 14
f 8 14 15
f 9 15 16
f 10 16 17
f 7 14 8
f 8 15 9
f 9 16 10
f 10 17 11
f 11 17 18
usemtl APPID_3043693216_2275079393136 
o vid_5 
f 21 20 19
f 22 23 24
f 19 24 23
f 19 23 21
f 21 23 22
f 22 20 21
f 20 22 24
f 24 19 20
usemtl APPID_3043698480_2275079394032 
o vid_6 
f 25 32 33
f 26 33 34
f 27 34 35
f 28 35 36
f 29 36 37
f 25 33 26
f 26 34 27
f 27 35 28
f 28 36 29
f 29 37 30
f 30 37 38
usemtl APPID_3043693216_2275079393136 
o vid_7 
f 41 40 39
f 42 43 44
f 39 44 43
f 39 43 41
f 41 43 42
f 42 40 41
f 40 42 44
f 44 39 40
usemtl APPID_3043698480_2275079394032 
o vid_8 
f 45 52 53
f 46 53 54
f 47 54 55
f 48 55 56
f 49 56 57
f 45 53 46
f 46 54 47
f 47 55 48
f 48 56 49
f 49 57 50
f 50 57 58
usemtl APPID_3043693216_2275079393136 
o vid_9 
f 61 60 59
f 62 63 64
f 59 64 63
f 59 63 61
f 61 63 62
f 62 60 61
f 60 62 64
f 64 59 60
usemtl APPID_3043698480_2275079394032 
o vid_10 
f 65 72 73
f 66 73 74
f 67 74 75
f 68 75 76
f 69 76 77
f 65 73 66
f 66 74 67
f 67 75 68
f 68 76 69
f 69 77 70
f 70 77 78
usemtl APPID_3043693216_2275079393136 
o vid_11 
f 81 80 79
f 82 83 84
f 79 84 83
f 79 83 81
f 81 83 82
f 82 80 81
f 80 82 84
f 84 79 80
usemtl APPID_3043698480_2275079394032 
o vid_12 
f 85 91 92
f 86 92 93
f 87 93 94
f 88 94 95
f 85 92 86
f 86 93 87
f 87 94 88
f 88 95 89
f 89 95 96
