# File generated by PlantGL - Fri Sep  4 14:41:27 2026
v    28.201987 59.124129 0.000000
v    31.657533 58.880811 0.000000
v    30.140480 61.995060 0.000000
v    31.798013 60.875871 0.231332
v    28.342467 61.119189 0.231332
v    29.859520 58.004940 0.231332
v    31.507925 61.253156 -0.099049
v    32.424944 61.576051 0.819826
v    33.244404 61.851217 1.374450
v    33.625779 61.924712 1.610682
v    34.233356 62.062207 1.764268
v    31.916275 60.414884 -0.099049
v    32.735800 60.937917 0.819826
v    33.457605 61.413552 1.374450
v    33.750565 61.668547 1.610682
v    34.233356 62.062207 1.764268
v    31.503548 61.204422 0.231332
v    28.205166 60.699900 0.231332
v    30.291286 58.095678 0.231332
v    28.496452 58.795578 0.322458
v    31.794834 59.300100 0.322458
v    29.708714 61.904322 0.322458
v    28.985329 58.395313 -0.131501
v    28.020928 57.789825 0.944756
v    27.794744 57.658528 1.190804
v    27.031550 57.193570 1.749087
v    26.325645 56.884697 2.217741
v    25.795918 56.632307 2.362412
v    28.212539 59.360030 -0.131501
v    27.411159 58.551034 0.944756
v    27.233661 58.358959 1.190804
v    26.613339 57.715647 1.749087
v    26.157841 57.094175 2.217741
v    25.795918 56.632307 2.362412
v    28.272844 59.328938 0.322458
v    31.444735 58.839770 0.322458
v    30.282421 61.831292 0.322458
v    31.727156 60.671062 0.466406
v    28.555265 61.160230 0.466406
v    29.717579 58.168708 0.466406
v    31.293117 61.302492 -0.141695
v    32.074802 61.506959 0.621967
v    33.119760 61.741892 1.629602
v    33.467196 61.827791 1.853182
v    35.181039 62.013020 2.901663
v    31.833285 59.912227 -0.141695
v    32.547964 60.289151 0.621967
v    33.477424 60.821351 1.629602
v    33.791715 60.992556 1.853182
v    35.181039 62.013020 2.901663
v    31.691655 60.400171 0.466406
v    28.807614 61.264931 0.466406
v    29.500731 58.334898 0.466406
v    28.308345 59.599829 0.678771
v    31.192386 58.735069 0.678771
v    30.499269 61.665102 0.678771
v    28.751247 58.725381 -0.115367
v    27.885404 58.623138 0.708666
v    26.307968 58.492149 2.197823
v    26.056392 58.465870 2.355839
v    23.806254 58.534834 3.725082
v    28.312518 60.580036 -0.115367
v    27.492633 60.283510 0.708666
v    26.023696 59.693862 2.197823
v    25.787010 59.604639 2.355839
v    23.806254 58.534834 3.725082
v    29.077689 58.946792 0.678771
v    31.373260 59.727859 0.678771
v    29.549051 61.325349 0.678771
v    30.922311 61.053208 0.903327
v    28.626740 60.272141 0.903327
v    30.450949 58.674651 0.903327
v    29.818132 61.631416 -0.107731
v    30.629884 62.367892 0.928200
v    32.179155 63.678462 2.837310
v    34.792055 65.472157 4.771545
v    31.641150 60.034971 -0.107731
v    32.264085 60.936796 0.928200
v    33.358786 62.645440 2.837310
v    34.792055 65.472157 4.771545
v    30.914134 60.583648 0.903327
v    29.037479 60.499839 0.903327
v    30.048387 58.916513 0.903327
v    29.085866 59.416352 1.431823
v    30.962521 59.500161 1.431823
v    29.951613 61.083487 1.431823
v    30.186746 58.366637 0.176903
v    29.173174 57.872664 1.242587
v    26.658408 56.753282 3.832273
v    23.168692 55.638405 6.062844
v    28.596883 60.856745 0.176903
v    27.722254 60.145155 1.242587
v    25.648565 58.334939 3.832273
v    23.168692 55.638405 6.062844
v    29.357299 59.536932 1.431823
v    30.722379 59.674938 1.431823
v    29.920322 60.788129 1.431823
v    30.642701 60.463068 1.973816
v    29.277621 60.325062 1.973816
v    30.079678 59.211871 1.973816
v    29.310237 61.561049 0.455311
v    29.603895 61.725158 0.773260
v    32.664991 63.299073 4.011509
v    33.571760 63.599351 4.878458
v    36.567345 64.731788 6.826308
v    31.262430 58.851560 0.455311
v    31.511057 59.078168 0.773260
v    33.973021 61.483630 4.011509
v    34.544894 62.248717 4.878458
v    36.567345 64.731788 6.826308
v    30.438004 60.285258 1.973816
v    29.533958 60.236694 1.973816
v    30.028038 59.478048 1.973816
v    29.561996 59.714742 2.332000
v    30.466042 59.763306 2.332000
v    29.971962 60.521952 2.332000
v    30.789171 58.666420 -1.323068
v    29.830418 58.314534 0.518659
v    26.967770 57.938592 5.336424
v    26.757364 57.888179 5.581424
v    29.099401 61.261011 -1.323068
v    28.389894 60.526414 0.518659
v    26.888550 58.060233 5.336424
v    26.757364 57.888179 5.581424
mtllib usm_3_Beer_2018-07-28_3.mtl
usemtl APPID_876948976_2277208112112 
o vid_3 
f 3 2 1
f 4 5 6
f 1 6 5
f 1 5 3
f 3 5 4
f 4 2 3
f 2 4 6
f 6 1 2
usemtl APPID_876945840_2277208111600 
o vid_4 
f 7 12 13
f 8 13 14
f 9 14 15
f 7 13 8
f 8 14 9
f 9 15 10
f 10 15 16
usemtl APPID_876948976_2277208112112 
o vid_5 
f 19 18 17
f 20 21 22
f 17 22 21
f 17 21 19
f 19 21 20
f 20 18 19
f 18 20 22
f 22 17 18
usemtl APPID_876945840_2277208111600 
o vid_6 
f 23 29 30
f 24 30 31
f 25 31 32
f 26 32 33
f 23 30 24
f 24 31 25
f 25 32 26
f 26 33 27
f 27 33 34
usemtl APPID_876948976_2277208112112 
o vid_7 
f 37 36 35
f 38 39 40
f 35 40 39
f 35 39 37
f 37 39 38
f 38 36 37
f 36 38 40
f 40 35 36
usemtl APPID_876945840_2277208111600 
o vid_8 
f 41 46 47
f 42 47 48
f 43 48 49
f 41 47 42
f 42 48 43
f 43 49 44
f 44 49 50
usemtl APPID_876948976_2277208112112 
o vid_9 
f 53 52 51
f 54 55 56
f 51 56 55
f 51 55 53
f 53 55 54
f 54 52 53
f 52 54 56
f 56 51 52
usemtl APPID_876945840_2277208111600 
o vid_10 
f 57 62 63
f 58 63 64
f 59 64 65
f 57 63 58
f 58 64 59
f 59 65 60
f 60 65 66
usemtl APPID_876948976_2277208112112 
o vid_11 
f 69 68 67
f 70 71 72
f 67 72 71
f 67 71 69
f 69 71 70
f 70 68 69
f 68 70 72
f 72 67 68
usemtl APPID_876945840_2277208111600 
o vid_12 
f 73 77 78
f 74 78 79
f 73 78 74
f 74 79 75
f 75 79 80
usemtl APPID_876948976_2277208112112 
o vid_13 
f 83 82 81
f 84 85 86
f 81 86 85
f 81 85 83
f 83 85 84
f 84 82 83
f 82 84 86
f 86 81 82
usemtl APPID_876945840_2277208111600 
o vid_14 
f 87 91 92
f 88 92 93
f 87 92 88
f 88 93 89
f 89 93 94
usemtl APPID_876948976_2277208112112 
o vid_15 
f 97 96 95
f 98 99 100
f 95 100 99
f 95 99 97
f 97 99 98
f 98 96 97
f 96 98 100
f 100 95 96
usemtl APPID_876945840_2277208111600 
o vid_16 
f 101 106 107
f 102 107 108
f 103 108 109
f 101 107 102
f 102 108 103
f 103 109 104
f 104 109 110
usemtl APPID_876948976_2277208112112 
o vid_17 
f 113 112 111
f 114 115 116
f 111 116 115
f 111 115 113
f 113 115 114
f 114 112 113
f 112 114 116
f 116 111 112
usemtl APPID_876945840_2277208111600 
o vid_18 
f 117 121 122
f 118 122 123
f 117 122 118
f 118 123 119
f 119 123 124
