# File generated by PlantGL - Fri Sep  4 14:43:07 2026
v    18.941824 99.484528 0.000000
v    20.975500 99.341329 0.000000
v    20.082676 101.174143 0.000000
v    21.058176 100.515472 0.331061
v    19.024500 100.658671 0.331061
v    19.917324 98.825857 0.331061
v    20.649813 101.088177 -0.071053
v    21.654142 101.469675 0.946918
v    23.167891 102.027887 2.009892
v    24.352668 102.449875 2.326451
v    25.447971 102.697743 2.603326
v    25.617489 102.736463 2.567383
v    21.257407 99.840892 -0.071053
v    22.176897 100.396550 0.946918
v    23.549553 101.244400 2.009892
v    24.612159 101.917185 2.326451
v    25.482506 102.626850 2.603326
v    25.617489 102.736463 2.567383
v    20.649946 100.520642 0.331061
v    19.224138 100.302549 0.331061
v    20.125916 99.176809 0.331061
v    19.350054 99.479358 0.595348
v    20.775862 99.697451 0.595348
v    19.874084 100.823191 0.595348
v    20.073841 98.832827 0.039836
v    18.847907 98.020666 1.433222
v    16.966329 96.800563 2.914620
v    15.513346 95.881540 3.347338
v    14.095938 95.206211 3.734439
v    13.896266 95.110584 3.688675
v    18.877083 100.326807 0.039836
v    17.816931 99.307691 1.433222
v    16.215572 97.737776 2.914620
v    15.001578 96.520409 3.347338
v    14.033167 95.284570 3.734439
v    13.896266 95.110584 3.688675
v    19.523262 99.814770 0.595348
v    20.398783 99.679747 0.595348
v    20.077955 100.505483 0.595348
v    20.476738 100.185230 0.628000
v    19.601217 100.320253 0.628000
v    19.922045 99.494517 0.628000
v    20.343235 100.773459 -0.839028
v    20.407483 100.750573 -0.433410
v    20.892534 100.346781 1.971199
v    20.775399 99.661170 -0.839028
v    20.807342 99.721430 -0.433410
v    20.892534 100.346781 1.971199
mtllib usm_19_2.5D_2018-07-17_2.mtl
usemtl APPID_3534036544_1420965928192 
o vid_3 
f 3 2 1
f 4 5 6
f 1 6 5
f 1 5 3
f 3 5 4
f 4 2 3
f 2 4 6
f 6 1 2
usemtl APPID_3534036768_1420965927424 
o vid_4 
f 7 13 14
f 8 14 15
f 9 15 16
f 10 16 17
f 7 14 8
f 8 15 9
f 9 16 10
f 10 17 11
f 11 17 18
usemtl APPID_3534036544_1420965928192 
o vid_5 
f 21 20 19
f 22 23 24
f 19 24 23
f 19 23 21
f 21 23 22
f 22 20 21
f 20 22 24
f 24 19 20
usemtl APPID_3534036768_1420965927424 
o vid_6 
f 25 31 32
f 26 32 33
f 27 33 34
f 28 34 35
f 25 32 26
f 26 33 27
f 27 34 28
f 28 35 29
f 29 35 36
usemtl APPID_3534036544_1420965928192 
o vid_7 
f 39 38 37
f 40 41 42
f 37 42 41
f 37 41 39
f 39 41 40
f 40 38 39
f 38 40 42
f 42 37 38
usemtl APPID_3534036768_1420965927424 
o vid_8 
f 43 46 47
f 43 47 44
f 44 47 48
