# File generated by PlantGL - Fri Sep  4 14:43:47 2026
v    17.752484 138.905161 0.000000
v    22.071916 138.601013 0.000000
v    20.175600 142.493825 0.000000
v    22.247516 141.094839 0.848509
v    17.928084 141.398987 0.848509
v    19.824400 137.506175 0.848509
v    22.062176 141.449172 0.689211
v    22.418914 141.585181 1.043985
v    22.463651 141.601401 1.088135
v    22.412274 140.730480 0.689211
v    22.739272 140.927540 1.043985
v    22.779622 140.952769 1.088135
v    21.879284 141.505407 0.848509
v    17.756638 140.874804 0.848509
v    20.364078 137.619789 0.848509
v    18.120716 138.494593 1.417165
v    22.243362 139.125196 1.417165
v    19.635922 142.380211 1.417165
v    18.493089 138.055650 1.191725
v    18.172537 137.842723 1.549324
v    17.773629 138.953792 1.191725
v    17.495873 138.687442 1.549324
v    17.841416 139.161313 1.417165
v    21.805616 138.549955 1.417165
v    20.352968 142.288732 1.417165
v    22.158584 140.838687 2.253766
v    18.194384 141.450045 2.253766
v    19.647032 137.711268 2.253766
v    21.871471 141.515591 1.940991
v    22.052737 141.568015 2.116336
v    22.268367 141.626560 2.323631
v    22.403798 140.145504 1.940991
v    22.572909 140.229214 2.116336
v    22.771501 140.331609 2.323631
v    22.163962 140.511898 2.253766
v    18.474702 141.618097 2.253766
v    19.361335 137.870005 2.253766
v    17.836038 139.488102 4.112548
v    21.525298 138.381903 4.112548
v    20.638665 142.129995 4.112548
v    18.104918 138.484247 3.687130
v    17.414870 138.384729 4.334992
v    17.073057 138.341148 4.654681
v    17.626654 140.506031 3.687130
v    16.965153 140.285833 4.334992
v    16.640041 140.171649 4.654681
v    18.595695 138.396392 4.112548
v    22.090917 139.585640 4.112548
v    19.313387 142.017967 4.112548
v    21.404305 141.603608 5.999272
v    17.909083 140.414360 5.999272
v    20.686613 137.982033 5.999272
v    20.283964 142.530526 5.432015
v    20.582949 142.816127 5.816234
v    22.470938 140.615359 5.432015
v    22.714593 140.949412 5.816234
v    21.718982 141.097521 5.999272
v    18.190028 140.939922 5.999272
v    20.090990 137.962557 5.999272
v    18.281018 138.902479 12.880915
v    21.809972 139.060078 12.880915
v    19.909010 142.037443 12.880915
v    19.368105 137.298854 12.139389
v    17.697320 136.430779 13.889015
v    17.283752 140.563452 12.139389
v    15.793193 139.413099 13.889015
v    18.420020 138.861621 12.880915
v    21.775855 139.200887 12.880915
v    19.804125 141.937492 12.880915
v    21.579980 141.138379 19.681199
v    18.224145 140.799113 19.681199
v    20.195875 138.062508 19.681199
v    20.092759 143.085712 18.730912
v    21.402583 143.862514 20.146017
v    22.956396 139.111211 18.730912
v    24.107875 140.107784 20.146017
v    21.554633 141.012481 19.681199
v    18.345849 140.840111 19.681199
v    20.099518 138.147408 19.681199
v    18.445367 138.987519 30.874713
v    21.654151 139.159889 30.874713
v    19.900482 141.852592 30.874713
v    20.237036 136.393667 29.680823
v    18.467185 135.453713 31.543010
v    16.797474 141.675008 29.680823
v    15.222151 140.436362 31.543010
v    18.458123 139.144816 30.874713
v    21.511550 139.092287 30.874713
v    20.030327 141.762897 30.874713
v    21.541877 140.855184 48.403654
v    18.488450 140.907713 48.403654
v    19.969673 138.237103 48.403654
v    19.442724 144.422059 46.933184
v    20.000527 144.669383 47.500189
v    23.456226 137.185810 46.933184
v    23.961387 137.528047 47.500189
v    21.614895 140.429572 48.403654
v    18.820532 141.183754 48.403654
v    19.564573 138.386674 48.403654
v    18.385105 139.570428 69.787331
v    21.179468 138.816246 69.787331
v    20.435427 141.613326 69.787331
v    19.810547 134.708056 68.011795
v    18.513547 134.484173 69.234856
v    17.206257 144.498396 68.011795
v    15.969439 144.048267 69.234856
v    18.541706 139.394647 69.787331
v    21.253398 139.039757 69.787331
v    20.204896 141.565597 69.787331
v    21.458294 140.605353 89.666693
v    18.746602 140.960243 89.666693
v    19.795104 138.434403 89.666693
v    19.160691 145.746350 87.564926
v    20.977848 146.317255 89.334895
v    23.476925 135.348552 87.564926
v    25.164189 136.232368 89.334895
v    21.148136 140.944713 89.666693
v    18.607786 140.521958 89.666693
v    20.244078 138.533328 89.666693
v    18.851864 139.055287 113.619407
v    21.392214 139.478042 113.619407
v    19.755922 141.466672 113.619407
v    23.201545 134.044837 111.180352
v    20.940786 132.499995 113.724796
v    14.772858 144.288455 111.180352
v    12.821559 142.367517 113.724796
v    19.036323 138.991726 113.619407
v    21.355030 139.669568 113.619407
v    19.608648 141.338706 113.619407
v    20.963677 141.008274 134.113200
v    18.644970 140.330432 134.113200
v    20.391352 138.661294 134.113200
v    15.476587 145.976847 131.338346
v    17.597044 147.832717 133.956885
v    26.175231 135.751415 131.338346
v    27.933342 137.953604 133.956885
v    20.912312 140.929805 134.113200
v    18.738610 140.325183 134.113200
v    20.349079 138.745013 134.113200
v    19.087688 139.070195 147.011877
v    21.261390 139.674817 147.011877
v    19.650921 141.254987 147.011877
v    24.672980 133.901543 143.917020
v    23.017623 132.490648 145.938181
v    13.813899 144.556323 143.917020
v    12.434696 142.874471 145.938181
v    19.188946 139.101354 147.011877
v    21.183778 139.746930 147.011877
v    19.627277 141.151717 147.011877
v    20.811054 140.898646 158.351778
v    18.816222 140.253070 158.351778
v    20.372723 138.848283 158.351778
v    14.327604 146.422598 154.967837
v    15.934304 147.912002 157.003682
v    26.968670 135.013671 154.967837
v    28.286077 136.764170 157.003682
v    21.097812 140.213714 158.351778
v    19.266012 140.843876 158.351778
v    19.636176 138.942409 158.351778
v    18.902188 139.786286 164.743004
v    20.733988 139.156124 164.743004
v    20.363824 141.057591 164.743004
v    20.782585 131.491060 161.115678
v    18.846387 131.290505 162.924517
v    17.484721 131.172018 164.192594
v    17.533481 148.181123 161.115678
v    15.663444 147.640707 162.924517
v    14.356769 147.239741 164.192594
v    19.208315 139.346885 164.743004
v    20.961457 139.640938 164.743004
v    19.830228 141.012177 164.743004
v    20.791685 140.653115 168.547926
v    19.038543 140.359062 168.547926
v    20.169772 138.987823 168.547926
v    15.197797 147.003428 164.736107
v    16.969096 148.174872 166.706327
v    25.963000 133.954192 164.736107
v    27.449761 135.470544 166.706327
v    20.747035 140.560971 168.547926
v    19.140667 140.366465 168.547926
v    20.112298 139.072563 168.547926
v    19.252965 139.439029 171.384532
v    20.859333 139.633535 171.384532
v    19.887702 140.927437 171.384532
v    24.823883 132.490272 167.457544
v    20.101144 129.668135 172.561818
v    14.133336 146.726672 167.457544
v    10.106177 142.978244 172.561818
v    19.310251 139.516898 171.384532
v    20.763253 139.644211 171.384532
v    19.926496 140.838891 171.384532
v    20.689749 140.483102 172.854930
v    19.236747 140.355789 172.854930
v    20.073504 139.161109 172.854930
v    15.737109 147.057452 168.888784
v    18.296690 148.474179 171.602957
v    25.175523 133.581758 168.888784
v    27.381736 135.503006 171.602957
v    20.610549 140.435580 172.854930
v    19.317502 140.310961 172.854930
v    20.071949 139.253459 172.854930
v    19.389451 139.564420 174.028000
v    20.682498 139.689039 174.028000
v    19.928051 140.746541 174.028000
v    24.770804 132.507297 170.101012
v    13.792672 126.305783 181.798852
v    12.250017 125.409127 182.999913
v    14.467526 146.949310 170.101012
v    5.031200 138.586661 181.798852
v    3.681358 137.419741 182.999913
v    22.463651 141.601401 1.088135
v    23.209532 141.881197 1.645119
v    23.981556 142.182564 1.910764
v    24.615034 142.401301 2.124717
v    25.179534 142.523121 2.118289
v    22.779622 140.952769 1.088135
v    23.459716 141.367612 1.645119
v    24.172911 141.789744 1.910764
v    24.735640 142.153718 2.124717
v    25.179534 142.523121 2.118289
v    18.172537 137.842723 1.549324
v    17.952089 137.696291 1.795251
v    17.045018 137.100207 2.544531
v    15.955528 136.364007 2.966002
v    15.270467 135.939683 3.223260
v    14.402372 135.516002 3.212460
v    17.495873 138.687442 1.549324
v    17.304855 138.504269 1.795251
v    16.525166 137.749167 2.544531
v    15.568924 136.846627 2.966002
v    15.005309 136.270696 3.223260
v    14.402372 135.516002 3.212460
v    22.268367 141.626560 2.323631
v    22.839506 141.781627 2.872696
v    24.189986 142.166193 3.817872
v    25.050082 142.422343 4.105528
v    26.380214 142.761644 4.543766
v    27.070176 142.838494 4.759540
v    27.415309 142.881113 4.755676
v    22.771501 140.331609 2.323631
v    23.297513 140.602825 2.872696
v    24.553375 141.230916 3.817872
v    25.360790 141.622654 4.105528
v    26.571081 142.270399 4.543766
v    27.131937 142.679536 4.759540
v    27.415309 142.881113 4.755676
v    17.073057 138.341148 4.654681
v    16.752619 138.300292 4.954378
v    14.861209 138.035448 6.239948
v    13.087865 137.765341 6.814920
v    11.232355 137.557661 7.410984
v    9.787523 137.584179 7.508613
v    16.640041 140.171649 4.654681
v    16.335260 140.064605 4.954378
v    14.525654 139.453953 6.239948
v    12.819241 138.900903 6.814920
v    11.067341 138.255230 7.410984
v    9.787523 137.584179 7.508613
v    20.582949 142.816127 5.816234
v    21.512071 143.703656 7.010231
v    23.449069 145.536734 8.835975
v    25.883250 147.899107 9.923242
v    27.330796 149.196465 10.543807
v    29.359619 150.687963 10.515629
v    22.714593 140.949412 5.816234
v    23.471775 141.987512 7.010231
v    25.033260 144.149433 8.835975
v    27.053816 146.874025 9.923242
v    28.148843 148.480088 10.543807
v    29.359619 150.687963 10.515629
v    17.697320 136.430779 13.889015
v    14.300665 134.676718 16.589090
v    9.909246 132.350745 18.181940
v    8.102834 131.483923 18.821590
v    6.922405 130.909123 18.806643
v    4.504268 130.106418 18.778334
v    15.793193 139.413099 13.889015
v    12.772648 137.069961 16.589090
v    8.814684 134.065092 18.181940
v    7.268189 132.791178 18.821590
v    6.250022 131.962237 18.806643
v    4.504268 130.106418 18.778334
v    21.402583 143.862514 20.146017
v    22.679033 144.619523 21.525065
v    26.391624 146.800160 24.433329
v    31.436216 149.846171 26.322195
v    34.103396 151.315508 27.294341
v    35.134904 151.891505 27.280891
v    38.171229 153.092413 27.244613
v    24.107875 140.107784 20.146017
v    25.230014 141.078964 21.525065
v    28.473730 143.910363 24.433329
v    32.959962 147.731333 26.322195
v    35.198032 149.796240 27.294341
v    36.070932 150.592373 27.280891
v    38.171229 153.092413 27.244613
v    18.467185 135.453713 31.543010
v    16.856979 134.598545 33.237223
v    12.120082 132.093180 36.845043
v    4.655998 128.052933 39.565540
v    2.198770 126.846373 40.439469
v    -0.152244 125.675165 40.409566
v    -4.033715 124.347642 40.363987
v    15.222151 140.436362 31.543010
v    13.788927 139.309445 33.237223
v    9.582151 135.990094 36.845043
v    2.868832 130.797070 39.565540
v    0.771731 129.037547 40.439469
v    -1.250090 127.360873 40.409566
v    -4.033715 124.347642 40.363987
v    20.000527 144.669383 47.500189
v    23.751919 146.332711 51.313467
v    27.711094 148.137706 54.246031
v    29.766982 149.039169 55.757083
v    42.348495 154.737369 60.184202
v    48.980320 157.490254 60.102434
v    51.375508 158.124032 60.074906
v    53.829276 158.763020 59.625751
v    23.961387 137.528047 47.500189
v    27.358744 139.829691 51.313467
v    30.986299 142.232589 54.246031
v    32.839600 143.499312 55.757083
v    44.335277 151.155249 60.184202
v    50.182087 155.323497 60.102434
v    51.987963 157.019790 60.074906
v    53.829276 158.763020 59.625751
v    18.513547 134.484173 69.234856
v    14.201781 133.739895 73.300820
v    8.161679 132.632422 77.439494
v    -10.046715 129.362903 84.011893
v    -19.675834 127.898091 83.900931
v    -25.712016 127.840322 83.145577
v    15.969439 144.048267 69.234856
v    11.857746 142.551853 73.300820
v    6.065690 140.511899 77.439494
v    -11.360642 134.302361 84.011893
v    -20.444913 130.789297 83.900931
v    -25.712016 127.840322 83.145577
v    20.977848 146.317255 89.334895
v    25.588419 147.765780 93.825739
v    28.057765 148.569917 95.576011
v    34.587275 150.591868 100.177074
v    49.938388 155.548753 105.347777
v    53.428843 156.524696 106.504830
v    59.080641 158.140002 106.437910
v    66.225757 159.188791 106.357672
v    25.164189 136.232368 89.334895
v    29.445190 138.474827 93.825739
v    31.758087 139.655848 95.576011
v    37.799998 142.852425 100.177074
v    52.148656 150.224224 105.347777
v    55.304151 152.007083 106.504830
v    60.438395 154.869175 106.437910
v    66.225757 159.188791 106.357672
v    20.940786 132.499995 113.724796
v    16.746055 129.633617 118.445888
v    13.228061 127.175573 121.338307
v    7.719791 123.444744 125.816472
v    -8.858509 111.922611 132.287748
v    -11.161373 110.454074 133.159694
v    -18.192015 105.913638 133.064411
v    -25.192963 102.611033 132.978406
v    -25.763796 102.344484 132.866808
v    12.821559 142.367517 113.724796
v    9.201019 138.803309 118.445888
v    6.111496 135.824533 121.338307
v    1.389727 131.137848 125.816472
v    -13.109358 117.088786 132.287748
v    -14.993889 115.111837 133.159694
v    -20.803287 109.087189 133.064411
v    -25.392305 102.853299 132.978406
v    -25.763796 102.344484 132.866808
v    17.597044 147.832717 133.956885
v    22.170140 151.835190 139.604172
v    24.422378 153.848177 141.640023
v    31.546053 160.031435 147.989510
v    47.110430 173.872993 154.665830
v    51.173321 177.207072 156.343718
v    56.763939 181.848800 156.260992
v    64.840551 186.915679 156.155059
v    27.933342 137.953604 133.956885
v    31.724982 142.702969 139.604172
v    33.634091 145.043908 141.640023
v    39.488979 152.439834 147.989510
v    52.612747 168.614049 154.665830
v    55.759741 172.823514 156.343718
v    60.143981 178.618260 156.260992
v    64.840551 186.915679 156.155059
v    23.017623 132.490648 145.938181
v    20.388673 130.249940 149.148085
v    17.071891 127.515691 153.136080
v    6.460665 118.546580 162.488434
v    -3.951806 109.528435 166.903731
v    -14.563938 101.050387 171.240019
v    -23.583214 95.581098 171.709107
v    12.434696 142.874471 145.938181
v    10.244317 140.203442 149.148085
v    7.573549 136.835333 153.136080
v    -1.192429 126.055690 162.488434
v    -10.011207 115.473836 166.903731
v    -18.286193 104.702613 171.240019
v    -23.583214 95.581098 171.709107
v    15.934304 147.912002 157.003682
v    20.465641 152.112534 162.745325
v    33.496880 164.051720 175.273965
v    46.558478 176.353588 181.025204
v    57.045448 185.473040 185.461938
v    67.466252 192.592501 185.321351
v    28.286077 136.764170 157.003682
v    32.001528 141.701062 162.745325
v    42.546457 155.884216 175.273965
v    53.449065 170.134634 181.025204
v    61.449037 181.498674 185.461938
v    67.466252 192.592501 185.321351
v    17.484721 131.172018 164.192594
v    9.186062 130.449896 171.920875
v    -7.018487 128.838706 182.882299
v    -17.049330 127.719308 186.117475
v    -32.928527 126.582887 191.199821
v    -41.285059 127.146883 193.803029
v    -44.972655 127.351580 193.761994
v    14.356769 147.239741 164.192594
v    6.393252 144.796057 171.920875
v    -9.232323 140.210782 182.882299
v    -18.950557 137.485569 186.117475
v    -34.096440 132.582245 191.199821
v    -41.631143 128.924655 193.803029
v    -44.972655 127.351580 193.761994
v    16.969096 148.174872 166.706327
v    25.406146 153.754692 176.090876
v    39.562497 163.369395 187.609818
v    43.105924 165.838843 188.994212
v    57.199927 174.851943 194.335055
v    68.568624 180.067565 198.222674
v    27.449761 135.470544 166.706327
v    34.531499 142.693229 176.090876
v    46.661639 154.764042 187.609818
v    49.759571 157.773504 188.994212
v    61.287224 169.897452 194.335055
v    68.568624 180.067565 198.222674
v    20.101144 129.668135 172.561818
v    14.000436 126.022573 179.155384
v    -1.020775 116.793744 191.022357
v    -6.743884 113.181969 193.191562
v    -21.672625 104.569340 198.693772
v    -33.617982 99.736622 202.698851
v    10.106177 142.978244 172.561818
v    4.904000 138.136125 179.155384
v    -8.147514 126.284288 191.022357
v    -13.211948 121.795368 193.191562
v    -25.645920 109.860502 198.693772
v    -33.617982 99.736622 202.698851
v    18.296690 148.474179 171.602957
v    26.878672 153.224303 180.703269
v    40.384603 160.918426 191.166144
v    55.466758 168.920540 197.413452
v    67.686149 173.399512 201.458468
v    27.381736 135.503006 171.602957
v    34.778915 141.944731 180.703269
v    46.625690 152.007714 191.166144
v    59.300623 163.446741 197.413452
v    67.686149 173.399512 201.458468
v    12.250017 125.409127 182.999913
v    -1.449387 117.446454 193.665825
v    -6.926154 114.174331 195.710761
v    -22.060725 105.928760 201.212971
v    -34.120514 101.389133 205.218050
v    3.681358 137.419741 182.999913
v    -8.305790 127.057015 193.665825
v    -13.181991 122.943083 195.710761
v    -25.903650 111.315354 201.212971
v    -34.120514 101.389133 205.218050
mtllib usm_24_2.5D_2018-09-28_3.mtl
usemtl APPID_2736900560_2060026015984 
o vid_3 
f 3 2 1
f 4 5 6
f 1 6 5
f 1 5 3
f 3 5 4
f 4 2 3
f 2 4 6
f 6 1 2
usemtl APPID_2736906160_2060026012656 
o vid_4 
f 7 10 11
f 7 11 8
f 8 11 12
f 8 12 9
usemtl APPID_2736900560_2060026015984 
o vid_5 
f 15 14 13
f 16 17 18
f 13 18 17
f 13 17 15
f 15 17 16
f 16 14 15
f 14 16 18
f 18 13 14
usemtl APPID_2736906160_2060026012656 
o vid_6 
f 19 21 22
f 19 22 20
f 19 21 22
f 19 22 20
usemtl APPID_2736900560_2060026015984 
o vid_7 
f 25 24 23
f 26 27 28
f 23 28 27
f 23 27 25
f 25 27 26
f 26 24 25
f 24 26 28
f 28 23 24
usemtl APPID_2736906160_2060026012656 
o vid_8 
f 29 32 33
f 29 33 30
f 30 33 34
f 30 34 31
usemtl APPID_2736900560_2060026015984 
o vid_9 
f 37 36 35
f 38 39 40
f 35 40 39
f 35 39 37
f 37 39 38
f 38 36 37
f 36 38 40
f 40 35 36
usemtl APPID_2736906160_2060026012656 
o vid_10 
f 41 44 45
f 41 45 42
f 42 45 46
f 42 46 43
usemtl APPID_2736900560_2060026015984 
o vid_11 
f 49 48 47
f 50 51 52
f 47 52 51
f 47 51 49
f 49 51 50
f 50 48 49
f 48 50 52
f 52 47 48
usemtl APPID_2736906160_2060026012656 
o vid_12 
f 53 55 56
f 53 56 54
f 53 55 56
f 53 56 54
usemtl APPID_2736900560_2060026015984 
o vid_13 
f 59 58 57
f 60 61 62
f 57 62 61
f 57 61 59
f 59 61 60
f 60 58 59
f 58 60 62
f 62 57 58
usemtl APPID_2736906160_2060026012656 
o vid_14 
f 63 65 66
f 63 66 64
f 63 65 66
f 63 66 64
usemtl APPID_2736900560_2060026015984 
o vid_15 
f 69 68 67
f 70 71 72
f 67 72 71
f 67 71 69
f 69 71 70
f 70 68 69
f 68 70 72
f 72 67 68
usemtl APPID_2736906160_2060026012656 
o vid_16 
f 73 75 76
f 73 76 74
f 73 75 76
f 73 76 74
usemtl APPID_2736900560_2060026015984 
o vid_17 
f 79 78 77
f 80 81 82
f 77 82 81
f 77 81 79
f 79 81 80
f 80 78 79
f 78 80 82
f 82 77 78
usemtl APPID_2736906160_2060026012656 
o vid_18 
f 83 85 86
f 83 86 84
f 83 85 86
f 83 86 84
usemtl APPID_2736900560_2060026015984 
o vid_19 
f 89 88 87
f 90 91 92
f 87 92 91
f 87 91 89
f 89 91 90
f 90 88 89
f 88 90 92
f 92 87 88
usemtl APPID_2736906160_2060026012656 
o vid_20 
f 93 95 96
f 93 96 94
f 93 95 96
f 93 96 94
usemtl APPID_2736900560_2060026015984 
o vid_21 
f 99 98 97
f 100 101 102
f 97 102 101
f 97 101 99
f 99 101 100
f 100 98 99
f 98 100 102
f 102 97 98
usemtl APPID_2736906160_2060026012656 
o vid_22 
f 103 105 106
f 103 106 104
f 103 105 106
f 103 106 104
usemtl APPID_2736900560_2060026015984 
o vid_23 
f 109 108 107
f 110 111 112
f 107 112 111
f 107 111 109
f 109 111 110
f 110 108 109
f 108 110 112
f 112 107 108
usemtl APPID_2736906160_2060026012656 
o vid_24 
f 113 115 116
f 113 116 114
f 113 115 116
f 113 116 114
usemtl APPID_2736900560_2060026015984 
o vid_25 
f 119 118 117
f 120 121 122
f 117 122 121
f 117 121 119
f 119 121 120
f 120 118 119
f 118 120 122
f 122 117 118
usemtl APPID_2736906160_2060026012656 
o vid_26 
f 123 125 126
f 123 126 124
f 123 125 126
f 123 126 124
usemtl APPID_2736900560_2060026015984 
o vid_27 
f 129 128 127
f 130 131 132
f 127 132 131
f 127 131 129
f 129 131 130
f 130 128 129
f 128 130 132
f 132 127 128
usemtl APPID_2736906160_2060026012656 
o vid_28 
f 133 135 136
f 133 136 134
f 133 135 136
f 133 136 134
usemtl APPID_2736900560_2060026015984 
o vid_29 
f 139 138 137
f 140 141 142
f 137 142 141
f 137 141 139
f 139 141 140
f 140 138 139
f 138 140 142
f 142 137 138
usemtl APPID_2736906160_2060026012656 
o vid_30 
f 143 145 146
f 143 146 144
f 143 145 146
f 143 146 144
usemtl APPID_2736900560_2060026015984 
o vid_31 
f 149 148 147
f 150 151 152
f 147 152 151
f 147 151 149
f 149 151 150
f 150 148 149
f 148 150 152
f 152 147 148
usemtl APPID_2736906160_2060026012656 
o vid_32 
f 153 155 156
f 153 156 154
f 153 155 156
f 153 156 154
usemtl APPID_2736900560_2060026015984 
o vid_33 
f 159 158 157
f 160 161 162
f 157 162 161
f 157 161 159
f 159 161 160
f 160 158 159
f 158 160 162
f 162 157 158
usemtl APPID_2736906160_2060026012656 
o vid_34 
f 163 166 167
f 163 167 164
f 164 167 168
f 164 168 165
usemtl APPID_2736900560_2060026015984 
o vid_35 
f 171 170 169
f 172 173 174
f 169 174 173
f 169 173 171
f 171 173 172
f 172 170 171
f 170 172 174
f 174 169 170
usemtl APPID_2736906160_2060026012656 
o vid_36 
f 175 177 178
f 175 178 176
f 175 177 178
f 175 178 176
usemtl APPID_2736900560_2060026015984 
o vid_37 
f 181 180 179
f 182 183 184
f 179 184 183
f 179 183 181
f 181 183 182
f 182 180 181
f 180 182 184
f 184 179 180
usemtl APPID_2736906160_2060026012656 
o vid_38 
f 185 187 188
f 185 188 186
f 185 187 188
f 185 188 186
usemtl APPID_2736900560_2060026015984 
o vid_39 
f 191 190 189
f 192 193 194
f 189 194 193
f 189 193 191
f 191 193 192
f 192 190 191
f 190 192 194
f 194 189 190
usemtl APPID_2736906160_2060026012656 
o vid_40 
f 195 197 198
f 195 198 196
f 195 197 198
f 195 198 196
usemtl APPID_2736900560_2060026015984 
o vid_41 
f 201 200 199
f 202 203 204
f 199 204 203
f 199 203 201
f 201 203 202
f 202 200 201
f 200 202 204
f 204 199 200
usemtl APPID_2736906160_2060026012656 
o vid_42 
f 205 208 209
f 205 209 206
f 206 209 210
f 206 210 207
usemtl APPID_2736895072_2060026014960 
o vid_10000004 
f 211 216 217
f 212 217 218
f 213 218 219
f 211 217 212
f 212 218 213
f 213 219 214
f 214 219 220
usemtl APPID_2736895072_2060026014960 
o vid_10000006 
f 221 227 228
f 222 228 229
f 223 229 230
f 224 230 231
f 221 228 222
f 222 229 223
f 223 230 224
f 224 231 225
f 225 231 232
usemtl APPID_2736895072_2060026014960 
o vid_10000008 
f 233 240 241
f 234 241 242
f 235 242 243
f 236 243 244
f 237 244 245
f 233 241 234
f 234 242 235
f 235 243 236
f 236 244 237
f 237 245 238
f 238 245 246
usemtl APPID_2736895072_2060026014960 
o vid_10000010 
f 247 253 254
f 248 254 255
f 249 255 256
f 250 256 257
f 247 254 248
f 248 255 249
f 249 256 250
f 250 257 251
f 251 257 258
usemtl APPID_2736895072_2060026014960 
o vid_10000012 
f 259 265 266
f 260 266 267
f 261 267 268
f 262 268 269
f 259 266 260
f 260 267 261
f 261 268 262
f 262 269 263
f 263 269 270
usemtl APPID_2736895072_2060026014960 
o vid_10000014 
f 271 277 278
f 272 278 279
f 273 279 280
f 274 280 281
f 271 278 272
f 272 279 273
f 273 280 274
f 274 281 275
f 275 281 282
usemtl APPID_2736895072_2060026014960 
o vid_10000016 
f 283 290 291
f 284 291 292
f 285 292 293
f 286 293 294
f 287 294 295
f 283 291 284
f 284 292 285
f 285 293 286
f 286 294 287
f 287 295 288
f 288 295 296
usemtl APPID_2736895072_2060026014960 
o vid_10000018 
f 297 304 305
f 298 305 306
f 299 306 307
f 300 307 308
f 301 308 309
f 297 305 298
f 298 306 299
f 299 307 300
f 300 308 301
f 301 309 302
f 302 309 310
usemtl APPID_2736895072_2060026014960 
o vid_10000020 
f 311 319 320
f 312 320 321
f 313 321 322
f 314 322 323
f 315 323 324
f 316 324 325
f 311 320 312
f 312 321 313
f 313 322 314
f 314 323 315
f 315 324 316
f 316 325 317
f 317 325 326
usemtl APPID_2736895072_2060026014960 
o vid_10000022 
f 327 333 334
f 328 334 335
f 329 335 336
f 330 336 337
f 327 334 328
f 328 335 329
f 329 336 330
f 330 337 331
f 331 337 338
usemtl APPID_2736895072_2060026014960 
o vid_10000024 
f 339 347 348
f 340 348 349
f 341 349 350
f 342 350 351
f 343 351 352
f 344 352 353
f 339 348 340
f 340 349 341
f 341 350 342
f 342 351 343
f 343 352 344
f 344 353 345
f 345 353 354
usemtl APPID_2736895072_2060026014960 
o vid_10000026 
f 355 364 365
f 356 365 366
f 357 366 367
f 358 367 368
f 359 368 369
f 360 369 370
f 361 370 371
f 355 365 356
f 356 366 357
f 357 367 358
f 358 368 359
f 359 369 360
f 360 370 361
f 361 371 362
f 362 371 372
usemtl APPID_2736895072_2060026014960 
o vid_10000028 
f 373 381 382
f 374 382 383
f 375 383 384
f 376 384 385
f 377 385 386
f 378 386 387
f 373 382 374
f 374 383 375
f 375 384 376
f 376 385 377
f 377 386 378
f 378 387 379
f 379 387 388
usemtl APPID_2736895072_2060026014960 
o vid_10000030 
f 389 396 397
f 390 397 398
f 391 398 399
f 392 399 400
f 393 400 401
f 389 397 390
f 390 398 391
f 391 399 392
f 392 400 393
f 393 401 394
f 394 401 402
usemtl APPID_2736895072_2060026014960 
o vid_10000032 
f 403 409 410
f 404 410 411
f 405 411 412
f 406 412 413
f 403 410 404
f 404 411 405
f 405 412 406
f 406 413 407
f 407 413 414
usemtl APPID_2736895072_2060026014960 
o vid_10000034 
f 415 422 423
f 416 423 424
f 417 424 425
f 418 425 426
f 419 426 427
f 415 423 416
f 416 424 417
f 417 425 418
f 418 426 419
f 419 427 420
f 420 427 428
usemtl APPID_2736895072_2060026014960 
o vid_10000036 
f 429 435 436
f 430 436 437
f 431 437 438
f 432 438 439
f 429 436 430
f 430 437 431
f 431 438 432
f 432 439 433
f 433 439 440
usemtl APPID_2736895072_2060026014960 
o vid_10000038 
f 441 447 448
f 442 448 449
f 443 449 450
f 444 450 451
f 441 448 442
f 442 449 443
f 443 450 444
f 444 451 445
f 445 451 452
usemtl APPID_2736895072_2060026014960 
o vid_10000040 
f 453 458 459
f 454 459 460
f 455 460 461
f 453 459 454
f 454 460 455
f 455 461 456
f 456 461 462
usemtl APPID_2736895072_2060026014960 
o vid_10000042 
f 463 468 469
f 464 469 470
f 465 470 471
f 463 469 464
f 464 470 465
f 465 471 466
f 466 471 472
