# File generated by PlantGL - Fri Sep  4 14:41:30 2026
v    17.752484 118.905161 0.000000
v    22.071916 118.601013 0.000000
v    20.175600 122.493825 0.000000
v    22.247516 121.094839 0.848018
v    17.928084 121.398987 0.848018
v    19.824400 117.506175 0.848018
v    22.061621 121.449878 0.686083
v    22.363977 121.565153 0.986774
v    22.457091 121.598914 1.078665
v    22.412489 120.729608 0.686083
v    22.689638 120.896628 0.986774
v    22.773619 120.949136 1.078665
v    21.879284 121.505407 0.848018
v    17.756638 120.874804 0.848018
v    20.364078 117.619789 0.848018
v    18.120716 118.494593 1.416666
v    22.243362 119.125196 1.416666
v    19.635922 122.380211 1.416666
v    18.495907 118.052637 1.186837
v    18.164326 117.832384 1.556741
v    17.771304 118.957200 1.186837
v    17.483990 118.681685 1.556741
v    17.841416 119.161313 1.416666
v    21.805616 118.549955 1.416666
v    20.352968 122.288732 1.416666
v    22.158584 120.838687 2.254254
v    18.194384 121.450045 2.254254
v    19.647032 117.711268 2.254254
v    21.869293 121.519816 1.934528
v    21.929234 121.537152 1.992511
v    22.276033 121.631310 2.325905
v    22.405045 120.140917 1.934528
v    22.460966 120.168598 1.992511
v    22.780363 120.333281 2.325905
v    22.163962 120.511898 2.254254
v    18.474702 121.618097 2.254254
v    19.361335 117.870005 2.254254
v    17.836038 119.488102 4.114020
v    21.525298 118.381903 4.114020
v    20.638665 122.129995 4.114020
v    18.107452 118.476835 3.678044
v    17.600432 118.403713 4.154066
v    17.079379 118.337279 4.641393
v    17.625597 120.513793 3.678044
v    17.139553 120.352000 4.154066
v    16.643960 120.177941 4.641393
v    18.595695 118.396392 4.114020
v    22.090917 119.585640 4.114020
v    19.313387 122.017967 4.114020
v    21.404305 121.603608 6.002274
v    17.909083 120.414360 6.002274
v    20.686613 117.982033 6.002274
v    20.272278 122.539283 5.419557
v    20.590865 122.843607 5.828966
v    22.481159 120.604931 5.419557
v    22.740789 120.960885 5.828966
v    21.718982 121.097521 6.002274
v    18.190028 120.939922 6.002274
v    20.090990 117.962557 6.002274
v    18.281018 118.902479 11.513477
v    21.809972 119.060078 11.513477
v    19.909010 122.037443 11.513477
v    19.303724 117.402613 10.750057
v    18.688409 117.082919 11.394408
v    17.468935 116.474537 12.658770
v    17.350784 120.461386 10.750057
v    16.801843 120.037735 11.394408
v    15.736782 119.187506 12.658770
v    18.420020 118.861621 11.513477
v    21.775855 119.200887 11.513477
v    19.804125 121.937492 11.513477
v    21.579980 121.138379 19.661518
v    18.224145 120.799113 19.661518
v    20.195875 118.062508 19.661518
v    20.020250 123.182655 18.681171
v    20.044783 123.197204 18.707676
v    23.025401 119.011744 18.681171
v    23.046968 119.030410 18.707676
v    21.554633 121.012481 19.661518
v    18.345849 120.840111 19.661518
v    20.099518 118.147408 19.661518
v    18.445367 118.987519 30.885372
v    21.654151 119.159889 30.885372
v    19.900482 121.852592 30.885372
v    20.262851 116.359306 29.651395
v    18.446542 115.394679 31.562464
v    16.776486 121.712513 29.651395
v    15.159812 120.441352 31.562464
v    18.458123 119.144816 30.885372
v    21.511550 119.092287 30.885372
v    20.030327 121.762897 30.885372
v    21.541877 120.855184 48.446724
v    18.488450 120.907713 48.446724
v    19.969673 118.237103 48.446724
v    19.417630 124.459600 46.924267
v    21.663985 125.455611 49.207681
v    23.474786 117.144645 46.924267
v    25.509143 118.522883 49.207681
v    21.614895 120.429572 48.446724
v    18.820532 121.183754 48.446724
v    19.564573 118.386674 48.446724
v    18.385105 119.570428 69.871530
v    21.179468 118.816246 69.871530
v    20.435427 121.613326 69.871530
v    19.838656 114.620735 68.030362
v    14.022565 113.616786 73.514892
v    8.956392 112.687887 76.986231
v    5.890915 112.171707 79.078720
v    4.751749 111.965763 79.449779
v    17.187264 124.588141 68.030362
v    11.641049 122.569647 73.514892
v    6.782926 120.858622 76.986231
v    3.866136 119.783482 79.078720
v    2.775205 119.396207 79.449779
v    18.541706 119.394647 69.871530
v    21.253398 119.039757 69.871530
v    20.204896 121.565597 69.871530
v    21.458294 120.605353 89.783161
v    18.746602 120.960243 89.783161
v    19.795104 118.434403 89.783161
v    19.080380 125.924690 87.600670
v    25.754980 128.021682 94.101946
v    28.068718 128.775145 95.741923
v    35.100932 130.952765 100.697220
v    40.419788 132.670227 102.488765
v    23.546522 115.165764 87.600670
v    29.744013 118.412111 94.101946
v    31.911161 119.518710 95.741923
v    38.418235 122.961389 100.697220
v    43.389760 125.515571 102.488765
v    21.148136 120.944713 89.783161
v    18.607786 120.521958 89.783161
v    20.244078 118.533328 89.783161
v    18.851864 119.055287 113.738124
v    21.392214 119.478042 113.738124
v    19.755922 121.466672 113.738124
v    23.422001 113.787857 111.202281
v    16.710340 109.201589 118.756132
v    12.267011 106.097008 122.409341
v    7.334771 102.756332 126.419200
v    -5.840401 93.599417 131.562078
v    14.563143 124.554273 111.202281
v    8.770200 118.851462 118.756132
v    4.868042 115.089181 122.409341
v    0.640054 110.892608 126.419200
v    -10.882716 99.727482 131.562078
v    19.036323 118.991726 113.738124
v    21.355030 119.669568 113.738124
v    19.608648 121.338706 113.738124
v    20.963677 121.008274 134.192471
v    18.644970 120.330432 134.192471
v    20.391352 118.661294 134.192471
v    15.226806 126.204330 131.304434
v    22.193382 132.301630 139.907414
v    24.878398 134.701422 142.334464
v    31.946908 140.836798 148.634782
v    47.621519 154.776387 155.358386
v    26.413774 115.512172 131.304434
v    32.189894 122.747274 139.907414
v    34.465847 125.538036 142.334464
v    40.275396 132.876688 148.634782
v    53.492112 149.165456 155.358386
v    20.912312 120.929805 134.192471
v    18.738610 120.325183 134.192471
v    20.349079 118.745013 134.192471
v    19.087688 119.070195 147.048688
v    21.261390 119.674817 147.048688
v    19.650921 121.254987 147.048688
v    24.905700 113.686201 143.824694
v    20.446606 109.885624 149.269172
v    16.987387 107.033953 153.428430
v    5.933396 97.690597 163.171021
v    -4.908403 88.300615 167.768370
v    -7.568808 86.175213 168.855454
v    13.594177 124.784911 143.824694
v    9.878966 120.254446 149.269172
v    7.093503 116.741695 153.428430
v    -2.038244 105.512260 163.171021
v    -11.220639 94.494094 167.768370
v    -13.295134 91.793805 168.855454
v    19.188946 119.101354 147.048688
v    21.183778 119.746930 147.048688
v    19.627277 121.151717 147.048688
v    20.811054 120.898646 158.345851
v    18.816222 120.253070 158.345851
v    20.372723 118.848283 158.345851
v    14.056707 126.653172 154.818115
v    20.404407 132.537465 162.861267
v    22.382610 134.311773 165.326648
v    34.041405 145.030644 175.987119
v    47.591958 157.793028 181.953653
v    54.283528 163.612006 184.784664
v    27.225722 114.767755 154.818115
v    32.430493 121.683575 162.861267
v    33.993345 123.832749 165.326648
v    43.464607 136.525932 175.987119
v    54.775350 151.309810 181.953653
v    59.880006 158.561023 184.784664
v    21.097812 120.213714 158.345851
v    19.266012 120.843876 158.345851
v    19.636176 118.942409 158.345851
v    18.902188 119.786286 164.722155
v    20.733988 119.156124 164.722155
v    20.363824 121.057591 164.722155
v    20.862075 111.141511 160.938525
v    8.765566 110.056948 172.209324
v    -8.137247 108.376331 183.643082
v    -18.483352 107.221751 186.979939
v    -31.825404 106.266905 191.250237
v    17.476040 128.534965 160.938525
v    5.856057 125.002568 172.209324
v    -10.442833 120.219711 183.643082
v    -20.466504 117.408846 186.979939
v    -33.192409 113.288965 191.250237
v    19.208315 119.346885 164.722155
v    20.961457 119.640938 164.722155
v    19.830228 121.012177 164.722155
v    20.791685 120.653115 168.525440
v    19.038543 120.359062 168.525440
v    20.169772 118.987823 168.525440
v    14.955955 127.277850 164.547741
v    25.608545 134.322911 176.396640
v    40.380943 144.356021 188.416856
v    44.053279 146.915306 189.851613
v    58.760616 156.320633 195.424876
v    58.833942 156.354273 195.449950
v    26.186452 113.664600 164.547741
v    35.127830 122.783937 176.396640
v    47.785841 135.380039 188.416856
v    50.996475 138.498985 189.851613
v    63.025782 151.150535 195.424876
v    63.072746 151.216131 195.449950
v    20.747035 120.560971 168.525440
v    19.140667 120.366465 168.525440
v    20.112298 119.072563 168.525440
v    19.252965 119.439029 171.363518
v    20.859333 119.633535 171.363518
v    19.887702 120.927437 171.363518
v    25.077475 112.173139 167.264631
v    13.780247 105.422325 179.474527
v    -1.898495 95.789518 191.860960
v    -8.041271 91.912897 194.189229
v    -23.623496 82.923262 199.932291
v    -26.215372 81.874670 200.801303
v    13.899498 127.058639 167.264631
v    4.266162 118.092054 179.474527
v    -9.356663 105.721420 191.860960
v    -14.792465 100.903335 194.189229
v    -27.770716 88.446037 199.932291
v    -29.500475 86.249381 200.801303
v    19.395217 119.576408 171.363518
v    20.669233 119.688038 171.363518
v    19.935550 120.735553 171.363518
v    20.604783 120.423592 172.838415
v    19.330767 120.311962 172.838415
v    20.064450 119.264447 172.838415
v    15.413250 127.317233 168.698317
v    27.043470 133.754555 181.030973
v    41.494646 141.987170 192.226118
v    57.287680 150.374843 198.623483
v    66.012471 153.572882 201.511672
v    25.308974 113.188615 168.698317
v    35.333561 121.918379 181.030973
v    48.009461 132.685644 192.226118
v    61.289693 144.660968 198.623483
v    67.277060 151.767365 201.511672
v    20.439941 120.313864 172.838415
v    19.508215 120.224068 172.838415
v    20.051844 119.462068 172.838415
v    19.560059 119.686136 174.170000
v    20.491785 119.775932 174.170000
v    19.948156 120.537932 174.170000
v    25.248424 112.219944 170.071114
v    13.789741 105.746969 182.281009
v    -2.119516 96.499835 194.667442
v    -9.139206 92.305885 197.288480
v    -24.936271 83.699376 203.031542
v    -36.909552 79.192313 207.007891
v    -37.549976 78.942473 207.000253
v    14.351233 127.494442 170.071114
v    4.501845 118.765730 182.281009
v    -9.418952 106.731390 194.667442
v    -15.668883 101.458476 197.288480
v    -28.947414 89.321760 203.031542
v    -37.105337 79.466742 207.007891
v    -37.549976 78.942473 207.000253
v    22.457091 121.598914 1.078665
v    23.228435 121.888097 1.657813
v    23.935039 122.163927 1.900948
v    24.606829 122.395893 2.127840
v    25.149057 122.508274 2.139823
v    22.773619 120.949136 1.078665
v    23.476801 121.378244 1.657813
v    24.129562 121.764605 1.900948
v    24.726323 122.150591 2.127840
v    25.149057 122.508274 2.139823
v    18.164326 117.832384 1.556741
v    18.010760 117.730377 1.728055
v    17.018823 117.079621 2.565979
v    15.994038 116.387144 2.962419
v    15.207136 115.899740 3.257921
v    14.414709 115.525884 3.248154
v    17.483990 118.681685 1.556741
v    17.350926 118.554085 1.728055
v    16.499359 117.728098 2.565979
v    15.599908 116.879159 2.962419
v    14.952506 116.217609 3.257921
v    14.414709 115.525884 3.248154
v    22.276033 121.631310 2.325905
v    22.859622 121.789757 2.886938
v    24.240114 122.182869 3.853120
v    24.956609 122.396253 4.092749
v    26.316301 122.743093 4.540726
v    27.195609 122.841034 4.815714
v    27.366453 122.862131 4.813802
v    22.780363 120.333281 2.325905
v    23.317841 120.610408 2.886938
v    24.601612 121.252459 3.853120
v    25.274222 121.578792 4.092749
v    26.511409 122.240932 4.540726
v    27.226181 122.762348 4.815714
v    27.366453 122.862131 4.813802
v    17.079379 118.337279 4.641393
v    16.720820 118.291563 4.976743
v    14.782468 118.020145 6.294220
v    13.225221 117.782953 6.799126
v    11.323659 117.570118 7.409984
v    10.690643 117.587449 7.606806
v    9.855822 117.600336 7.597530
v    16.643960 120.177941 4.641393
v    16.302921 120.058163 4.976743
v    14.448402 119.432354 6.294220
v    12.949930 118.946699 6.799126
v    11.154549 118.285001 7.409984
v    10.596390 117.985890 7.606806
v    9.855822 117.600336 7.597530
v    20.590865 122.843607 5.828966
v    21.330156 123.549803 6.779014
v    23.527143 125.624357 8.916287
v    25.764649 127.795857 9.915706
v    27.525682 129.374177 10.670664
v    29.323639 130.646877 10.646115
v    22.740789 120.960885 5.828966
v    23.343269 121.786888 6.779014
v    25.109816 124.238385 8.916287
v    26.967117 126.742837 9.915706
v    28.299288 128.696718 10.670664
v    29.323639 130.646877 10.646115
v    17.468935 116.474537 12.658770
v    14.068760 114.731103 15.331137
v    11.865365 113.564046 16.130350
v    8.844610 112.114512 17.199998
v    7.527841 111.694789 17.629553
v    6.411783 111.324311 17.616487
v    15.736782 119.187506 12.658770
v    12.724395 116.836703 15.331137
v    10.738486 115.329010 16.130350
v    8.152374 113.198719 17.199998
v    7.217512 112.180839 17.629553
v    6.411783 111.324311 17.616487
v    20.044783 123.197204 18.707676
v    22.723277 124.785706 21.601461
v    26.513642 127.021161 24.563974
v    32.263323 130.492917 26.716848
v    34.454472 131.700011 27.515488
v    36.104969 132.621654 27.493967
v    39.237342 133.860550 27.456541
v    23.046968 119.030410 18.707676
v    25.401657 121.068327 21.601461
v    28.721991 123.956148 24.563974
v    33.835270 128.311180 26.716848
v    35.673895 130.007548 27.515488
v    37.070606 131.281426 27.493967
v    39.237342 133.860550 27.456541
v    18.446542 115.394679 31.562464
v    16.769305 114.503911 33.327206
v    11.866987 111.924212 37.056163
v    4.961879 108.186534 39.572925
v    1.592472 106.532071 40.771276
v    0.030922 105.754152 40.751415
v    -3.980874 104.382055 40.704306
v    15.159812 120.441352 31.562464
v    13.666923 119.267523 33.327206
v    9.325274 115.826934 37.056163
v    3.114708 111.022810 39.572925
v    0.239114 108.610111 40.771276
v    -1.103785 107.496460 40.751415
v    -3.980874 104.382055 40.704306
v    21.663985 125.455611 49.207681
v    23.879170 126.437801 51.459409
v    26.805469 127.771905 53.626921
v    30.116004 129.223505 56.060123
v    42.158008 134.677360 60.297402
v    48.594022 137.326081 60.576873
v    52.620497 138.391506 60.530597
v    53.636451 138.656072 60.344629
v    25.509143 118.522883 49.207681
v    27.515272 119.881996 51.459409
v    30.196464 121.658022 53.626921
v    33.180779 123.697789 56.060123
v    44.183509 131.025431 60.297402
v    49.838275 135.082722 60.576873
v    52.874076 137.934308 60.530597
v    53.636451 138.656072 60.344629
v    4.751749 111.965763 79.449779
v    -11.126820 109.095155 84.621892
v    -19.667378 107.843123 84.523613
v    -23.138585 107.800548 84.485043
v    -25.949688 107.777100 83.987069
v    2.775205 119.396207 79.449779
v    -12.431025 113.998067 84.621892
v    -20.464886 110.841201 84.523613
v    -23.498468 109.153462 84.485043
v    -25.949688 107.777100 83.987069
v    40.419788 132.670227 102.488765
v    50.753557 136.007008 105.969480
v    54.670797 137.102282 107.268009
v    60.232903 138.691954 107.202151
v    67.652445 139.781024 107.118831
v    43.389760 125.515571 102.488765
v    53.048715 130.477977 105.969480
v    56.590039 132.478831 107.268009
v    61.642805 135.295502 107.202151
v    67.652445 139.781024 107.118831
v    -5.840401 93.599417 131.562078
v    -10.806047 90.148229 133.500399
v    -12.267667 89.216154 134.053820
v    -20.552639 83.865662 133.941539
v    -26.755432 80.939577 133.865338
v    -28.410412 80.166786 133.541790
v    -10.882716 99.727482 131.562078
v    -15.225580 95.519411 133.500399
v    -16.421686 94.264648 134.053820
v    -23.267533 87.165149 133.941539
v    -27.333373 81.641964 133.865338
v    -28.410412 80.166786 133.541790
v    47.621519 154.776387 155.358386
v    48.538838 155.592169 155.751869
v    52.359567 158.727525 157.329749
v    58.604333 163.912373 157.237343
v    67.010381 169.185925 157.127089
v    53.492112 149.165456 155.358386
v    54.265589 150.118718 155.751869
v    57.225011 154.077284 157.329749
v    62.122243 160.550063 157.237343
v    67.010381 169.185925 157.127089
v    -7.568808 86.175213 168.855454
v    -15.963338 79.468812 172.285594
v    -17.601240 78.497580 172.877443
v    -25.358713 73.771554 172.776517
v    -13.295134 91.793805 168.855454
v    -19.840908 83.273430 172.285594
v    -20.780860 81.617378 172.877443
v    -25.358713 73.771554 172.776517
v    54.283528 163.612006 184.784664
v    58.593325 167.359797 186.608014
v    59.305384 167.986219 186.597217
v    69.385122 174.718604 186.462541
v    59.880006 158.561023 184.784664
v    63.167728 163.231266 186.608014
v    63.718100 164.003615 186.597217
v    69.385122 174.718604 186.462541
v    -31.825404 106.266905 191.250237
v    -35.046793 106.036361 192.281285
v    -43.884518 106.632833 195.034393
v    -47.604110 106.839307 194.993002
v    -33.192409 113.288965 191.250237
v    -36.265032 112.294235 192.281285
v    -44.233605 108.426031 195.034393
v    -47.604110 106.839307 194.993002
v    58.833942 156.354273 195.449950
v    70.624049 161.763225 199.481673
v    63.072746 151.216131 195.449950
v    70.624049 161.763225 199.481673
v    -26.215372 81.874670 200.801303
v    -36.091743 77.879000 204.112686
v    -29.500475 86.249381 200.801303
v    -36.091743 77.879000 204.112686
v    66.012471 153.572882 201.511672
v    70.043000 155.050257 202.845908
v    67.277060 151.767365 201.511672
v    70.043000 155.050257 202.845908
mtllib usm_4_Beer_2018-09-02_1.mtl
usemtl APPID_1857656320_2531593480848 
o vid_3 
f 3 2 1
f 4 5 6
f 1 6 5
f 1 5 3
f 3 5 4
f 4 2 3
f 2 4 6
f 6 1 2
usemtl APPID_1857655312_2531593478928 
o vid_4 
f 7 10 11
f 7 11 8
f 8 11 12
f 8 12 9
usemtl APPID_1857656320_2531593480848 
o vid_5 
f 15 14 13
f 16 17 18
f 13 18 17
f 13 17 15
f 15 17 16
f 16 14 15
f 14 16 18
f 18 13 14
usemtl APPID_1857655312_2531593478928 
o vid_6 
f 19 21 22
f 19 22 20
f 19 21 22
f 19 22 20
usemtl APPID_1857656320_2531593480848 
o vid_7 
f 25 24 23
f 26 27 28
f 23 28 27
f 23 27 25
f 25 27 26
f 26 24 25
f 24 26 28
f 28 23 24
usemtl APPID_1857655312_2531593478928 
o vid_8 
f 29 32 33
f 29 33 30
f 30 33 34
f 30 34 31
usemtl APPID_1857656320_2531593480848 
o vid_9 
f 37 36 35
f 38 39 40
f 35 40 39
f 35 39 37
f 37 39 38
f 38 36 37
f 36 38 40
f 40 35 36
usemtl APPID_1857655312_2531593478928 
o vid_10 
f 41 44 45
f 41 45 42
f 42 45 46
f 42 46 43
usemtl APPID_1857656320_2531593480848 
o vid_11 
f 49 48 47
f 50 51 52
f 47 52 51
f 47 51 49
f 49 51 50
f 50 48 49
f 48 50 52
f 52 47 48
usemtl APPID_1857655312_2531593478928 
o vid_12 
f 53 55 56
f 53 56 54
f 53 55 56
f 53 56 54
usemtl APPID_1857656320_2531593480848 
o vid_13 
f 59 58 57
f 60 61 62
f 57 62 61
f 57 61 59
f 59 61 60
f 60 58 59
f 58 60 62
f 62 57 58
usemtl APPID_1857655312_2531593478928 
o vid_14 
f 63 66 67
f 63 67 64
f 64 67 68
f 64 68 65
usemtl APPID_1857656320_2531593480848 
o vid_15 
f 71 70 69
f 72 73 74
f 69 74 73
f 69 73 71
f 71 73 72
f 72 70 71
f 70 72 74
f 74 69 70
usemtl APPID_1857655312_2531593478928 
o vid_16 
f 75 77 78
f 75 78 76
f 75 77 78
f 75 78 76
usemtl APPID_1857656320_2531593480848 
o vid_17 
f 81 80 79
f 82 83 84
f 79 84 83
f 79 83 81
f 81 83 82
f 82 80 81
f 80 82 84
f 84 79 80
usemtl APPID_1857655312_2531593478928 
o vid_18 
f 85 87 88
f 85 88 86
f 85 87 88
f 85 88 86
usemtl APPID_1857656320_2531593480848 
o vid_19 
f 91 90 89
f 92 93 94
f 89 94 93
f 89 93 91
f 91 93 92
f 92 90 91
f 90 92 94
f 94 89 90
usemtl APPID_1857655312_2531593478928 
o vid_20 
f 95 97 98
f 95 98 96
f 95 97 98
f 95 98 96
usemtl APPID_1857656320_2531593480848 
o vid_21 
f 101 100 99
f 102 103 104
f 99 104 103
f 99 103 101
f 101 103 102
f 102 100 101
f 100 102 104
f 104 99 100
usemtl APPID_1857655312_2531593478928 
o vid_22 
f 105 110 111
f 106 111 112
f 107 112 113
f 105 111 106
f 106 112 107
f 107 113 108
f 108 113 114
f 108 114 109
usemtl APPID_1857656320_2531593480848 
o vid_23 
f 117 116 115
f 118 119 120
f 115 120 119
f 115 119 117
f 117 119 118
f 118 116 117
f 116 118 120
f 120 115 116
usemtl APPID_1857655312_2531593478928 
o vid_24 
f 121 126 127
f 122 127 128
f 123 128 129
f 121 127 122
f 122 128 123
f 123 129 124
f 124 129 130
f 124 130 125
usemtl APPID_1857656320_2531593480848 
o vid_25 
f 133 132 131
f 134 135 136
f 131 136 135
f 131 135 133
f 133 135 134
f 134 132 133
f 132 134 136
f 136 131 132
usemtl APPID_1857655312_2531593478928 
o vid_26 
f 137 142 143
f 138 143 144
f 139 144 145
f 137 143 138
f 138 144 139
f 139 145 140
f 140 145 146
f 140 146 141
usemtl APPID_1857656320_2531593480848 
o vid_27 
f 149 148 147
f 150 151 152
f 147 152 151
f 147 151 149
f 149 151 150
f 150 148 149
f 148 150 152
f 152 147 148
usemtl APPID_1857655312_2531593478928 
o vid_28 
f 153 158 159
f 154 159 160
f 155 160 161
f 153 159 154
f 154 160 155
f 155 161 156
f 156 161 162
f 156 162 157
usemtl APPID_1857656320_2531593480848 
o vid_29 
f 165 164 163
f 166 167 168
f 163 168 167
f 163 167 165
f 165 167 166
f 166 164 165
f 164 166 168
f 168 163 164
usemtl APPID_1857655312_2531593478928 
o vid_30 
f 169 175 176
f 170 176 177
f 171 177 178
f 172 178 179
f 169 176 170
f 170 177 171
f 171 178 172
f 172 179 173
f 173 179 180
f 173 180 174
usemtl APPID_1857656320_2531593480848 
o vid_31 
f 183 182 181
f 184 185 186
f 181 186 185
f 181 185 183
f 183 185 184
f 184 182 183
f 182 184 186
f 186 181 182
usemtl APPID_1857655312_2531593478928 
o vid_32 
f 187 193 194
f 188 194 195
f 189 195 196
f 190 196 197
f 187 194 188
f 188 195 189
f 189 196 190
f 190 197 191
f 191 197 198
f 191 198 192
usemtl APPID_1857656320_2531593480848 
o vid_33 
f 201 200 199
f 202 203 204
f 199 204 203
f 199 203 201
f 201 203 202
f 202 200 201
f 200 202 204
f 204 199 200
usemtl APPID_1857655312_2531593478928 
o vid_34 
f 205 210 211
f 206 211 212
f 207 212 213
f 205 211 206
f 206 212 207
f 207 213 208
f 208 213 214
f 208 214 209
usemtl APPID_1857656320_2531593480848 
o vid_35 
f 217 216 215
f 218 219 220
f 215 220 219
f 215 219 217
f 217 219 218
f 218 216 217
f 216 218 220
f 220 215 216
usemtl APPID_1857655312_2531593478928 
o vid_36 
f 221 227 228
f 222 228 229
f 223 229 230
f 224 230 231
f 221 228 222
f 222 229 223
f 223 230 224
f 224 231 225
f 225 231 232
f 225 232 226
usemtl APPID_1857656320_2531593480848 
o vid_37 
f 235 234 233
f 236 237 238
f 233 238 237
f 233 237 235
f 235 237 236
f 236 234 235
f 234 236 238
f 238 233 234
usemtl APPID_1857655312_2531593478928 
o vid_38 
f 239 245 246
f 240 246 247
f 241 247 248
f 242 248 249
f 239 246 240
f 240 247 241
f 241 248 242
f 242 249 243
f 243 249 250
f 243 250 244
usemtl APPID_1857656320_2531593480848 
o vid_39 
f 253 252 251
f 254 255 256
f 251 256 255
f 251 255 253
f 253 255 254
f 254 252 253
f 252 254 256
f 256 251 252
usemtl APPID_1857655312_2531593478928 
o vid_40 
f 257 262 263
f 258 263 264
f 259 264 265
f 257 263 258
f 258 264 259
f 259 265 260
f 260 265 266
f 260 266 261
usemtl APPID_1857656320_2531593480848 
o vid_41 
f 269 268 267
f 270 271 272
f 267 272 271
f 267 271 269
f 269 271 270
f 270 268 269
f 268 270 272
f 272 267 268
usemtl APPID_1857655312_2531593478928 
o vid_42 
f 273 280 281
f 274 281 282
f 275 282 283
f 276 283 284
f 277 284 285
f 273 281 274
f 274 282 275
f 275 283 276
f 276 284 277
f 277 285 278
f 278 285 286
usemtl APPID_1857672000_2531593481104 
o vid_10000004 
f 287 292 293
f 288 293 294
f 289 294 295
f 287 293 288
f 288 294 289
f 289 295 290
f 290 295 296
usemtl APPID_1857672000_2531593481104 
o vid_10000006 
f 297 303 304
f 298 304 305
f 299 305 306
f 300 306 307
f 297 304 298
f 298 305 299
f 299 306 300
f 300 307 301
f 301 307 308
usemtl APPID_1857672000_2531593481104 
o vid_10000008 
f 309 316 317
f 310 317 318
f 311 318 319
f 312 319 320
f 313 320 321
f 309 317 310
f 310 318 311
f 311 319 312
f 312 320 313
f 313 321 314
f 314 321 322
usemtl APPID_1857672000_2531593481104 
o vid_10000010 
f 323 330 331
f 324 331 332
f 325 332 333
f 326 333 334
f 327 334 335
f 323 331 324
f 324 332 325
f 325 333 326
f 326 334 327
f 327 335 328
f 328 335 336
usemtl APPID_1857672000_2531593481104 
o vid_10000012 
f 337 343 344
f 338 344 345
f 339 345 346
f 340 346 347
f 337 344 338
f 338 345 339
f 339 346 340
f 340 347 341
f 341 347 348
usemtl APPID_1857672000_2531593481104 
o vid_10000014 
f 349 355 356
f 350 356 357
f 351 357 358
f 352 358 359
f 349 356 350
f 350 357 351
f 351 358 352
f 352 359 353
f 353 359 360
usemtl APPID_1857672000_2531593481104 
o vid_10000016 
f 361 368 369
f 362 369 370
f 363 370 371
f 364 371 372
f 365 372 373
f 361 369 362
f 362 370 363
f 363 371 364
f 364 372 365
f 365 373 366
f 366 373 374
usemtl APPID_1857672000_2531593481104 
o vid_10000018 
f 375 382 383
f 376 383 384
f 377 384 385
f 378 385 386
f 379 386 387
f 375 383 376
f 376 384 377
f 377 385 378
f 378 386 379
f 379 387 380
f 380 387 388
usemtl APPID_1857672000_2531593481104 
o vid_10000020 
f 389 397 398
f 390 398 399
f 391 399 400
f 392 400 401
f 393 401 402
f 394 402 403
f 389 398 390
f 390 399 391
f 391 400 392
f 392 401 393
f 393 402 394
f 394 403 395
f 395 403 404
usemtl APPID_1857672000_2531593481104 
o vid_10000022 
f 405 410 411
f 406 411 412
f 407 412 413
f 405 411 406
f 406 412 407
f 407 413 408
f 408 413 414
usemtl APPID_1857672000_2531593481104 
o vid_10000024 
f 415 420 421
f 416 421 422
f 417 422 423
f 415 421 416
f 416 422 417
f 417 423 418
f 418 423 424
usemtl APPID_1857672000_2531593481104 
o vid_10000026 
f 425 431 432
f 426 432 433
f 427 433 434
f 428 434 435
f 425 432 426
f 426 433 427
f 427 434 428
f 428 435 429
f 429 435 436
usemtl APPID_1857672000_2531593481104 
o vid_10000028 
f 437 442 443
f 438 443 444
f 439 444 445
f 437 443 438
f 438 444 439
f 439 445 440
f 440 445 446
usemtl APPID_1857672000_2531593481104 
o vid_10000030 
f 447 451 452
f 448 452 453
f 447 452 448
f 448 453 449
f 449 453 454
usemtl APPID_1857672000_2531593481104 
o vid_10000032 
f 455 459 460
f 456 460 461
f 455 460 456
f 456 461 457
f 457 461 462
usemtl APPID_1857672000_2531593481104 
o vid_10000034 
f 463 467 468
f 464 468 469
f 463 468 464
f 464 469 465
f 465 469 470
usemtl APPID_1857672000_2531593481104 
o vid_10000036 
f 471 473 474
f 471 474 472
f 471 473 474
usemtl APPID_1857672000_2531593481104 
o vid_10000038 
f 475 477 478
f 475 478 476
f 475 477 478
usemtl APPID_1857672000_2531593481104 
o vid_10000040 
f 479 481 482
f 479 482 480
f 479 481 482
