# File generated by PlantGL - Fri Sep  4 14:43:07 2026
v    18.678692 19.356347 0.000000
v    21.218073 19.177540 0.000000
v    20.103235 21.466113 0.000000
v    21.321308 20.643653 0.331061
v    18.781927 20.822460 0.331061
v    19.896765 18.533887 0.331061
v    20.891625 21.229995 -0.116670
v    21.417863 21.429889 0.416717
v    22.187083 21.700741 1.187494
v    23.048358 22.019959 1.763257
v    23.711377 22.243431 2.200343
v    24.230847 22.427918 2.339081
v    25.637626 22.746272 2.694692
v    21.518135 19.943878 -0.116670
v    21.999920 20.235026 0.416717
v    22.687360 20.673760 1.187494
v    23.469627 21.155165 1.763257
v    24.054294 21.539482 2.200343
v    24.519775 21.834797 2.339081
v    25.637626 22.746272 2.694692
v    20.869985 20.696904 0.331061
v    18.961471 20.404977 0.331061
v    20.168544 18.898119 0.331061
v    19.130015 19.303096 0.771522
v    21.038529 19.595023 0.771522
v    19.831456 21.101881 0.771522
v    19.963692 18.544786 0.161104
v    18.399324 17.508420 1.939150
v    17.994616 17.232716 2.246675
v    16.559508 16.298580 3.320030
v    15.764102 15.766634 3.561480
v    14.206486 14.782843 4.025136
v    13.489751 14.441352 4.220879
v    12.423138 13.930530 3.976419
v    18.571946 20.282181 0.161104
v    17.219127 18.981726 1.939150
v    16.861739 18.646950 2.246675
v    15.636899 17.450326 3.320030
v    14.944172 16.790199 3.561480
v    13.644135 15.484857 4.025136
v    13.154443 14.859936 4.220879
v    12.423138 13.930530 3.976419
v    19.270499 19.716563 0.771522
v    20.610215 19.509952 0.771522
v    20.119287 20.773485 0.771522
v    20.729501 20.283437 1.179533
v    19.389785 20.490048 1.179533
v    19.880713 19.226515 1.179533
v    20.053686 21.373230 0.366201
v    20.622581 21.537004 0.927137
v    22.473416 22.021130 2.735299
v    23.595800 22.334445 3.465743
v    25.319863 22.760700 4.575205
v    28.324299 23.234288 5.327901
v    20.966740 19.023242 0.366201
v    21.496975 19.286519 0.927137
v    23.189157 20.178982 2.735299
v    24.228651 20.705635 3.465743
v    25.788244 21.555198 4.575205
v    28.324299 23.234288 5.327901
v    20.460822 20.109010 1.179533
v    19.675184 20.344578 1.179533
v    19.863995 19.546412 1.179533
v    19.539178 19.890990 1.248000
v    20.324816 19.655422 1.248000
v    20.136005 20.453588 1.248000
v    19.555714 19.067161 -0.803687
v    19.532314 19.087517 -0.573406
v    19.091615 19.785116 2.842365
v    19.184853 20.634913 -0.803687
v    19.173053 20.606230 -0.573406
v    19.091615 19.785116 2.842365
mtllib usm_15_2.5D_2018-07-23_0.mtl
usemtl APPID_1699851856_2630217904512 
o vid_3 
f 3 2 1
f 4 5 6
f 1 6 5
f 1 5 3
f 3 5 4
f 4 2 3
f 2 4 6
f 6 1 2
usemtl APPID_1699848608_2630217908352 
o vid_4 
f 7 14 15
f 8 15 16
f 9 16 17
f 10 17 18
f 11 18 19
f 7 15 8
f 8 16 9
f 9 17 10
f 10 18 11
f 11 19 12
f 12 19 20
usemtl APPID_1699851856_2630217904512 
o vid_5 
f 23 22 21
f 24 25 26
f 21 26 25
f 21 25 23
f 23 25 24
f 24 22 23
f 22 24 26
f 26 21 22
usemtl APPID_1699848608_2630217908352 
o vid_6 
f 27 35 36
f 28 36 37
f 29 37 38
f 30 38 39
f 31 39 40
f 32 40 41
f 27 36 28
f 28 37 29
f 29 38 30
f 30 39 31
f 31 40 32
f 32 41 33
f 33 41 42
usemtl APPID_1699851856_2630217904512 
o vid_7 
f 45 44 43
f 46 47 48
f 43 48 47
f 43 47 45
f 45 47 46
f 46 44 45
f 44 46 48
f 48 43 44
usemtl APPID_1699848608_2630217908352 
o vid_8 
f 49 55 56
f 50 56 57
f 51 57 58
f 52 58 59
f 49 56 50
f 50 57 51
f 51 58 52
f 52 59 53
f 53 59 60
usemtl APPID_1699851856_2630217904512 
o vid_9 
f 63 62 61
f 64 65 66
f 61 66 65
f 61 65 63
f 63 65 64
f 64 62 63
f 62 64 66
f 66 61 62
usemtl APPID_1699848608_2630217908352 
o vid_10 
f 67 70 71
f 67 71 68
f 68 71 72
