# File generated by PlantGL - Fri Sep  4 14:43:24 2026
v    218.201987 19.124129 0.000000
v    221.657533 18.880811 0.000000
v    220.140480 21.995060 0.000000
v    221.798013 20.875871 0.331061
v    218.342467 21.119189 0.331061
v    219.859520 18.004940 0.331061
v    221.368313 21.462224 -0.116704
v    221.894187 21.661979 0.416312
v    222.663877 21.932997 1.187561
v    223.524744 22.252064 1.763050
v    224.188297 22.475716 2.200489
v    224.707259 22.660022 2.339091
v    226.114147 22.978401 2.694730
v    221.994838 20.176077 -0.116704
v    222.476289 20.467023 0.416312
v    223.164149 20.906025 1.187561
v    223.946046 21.387203 1.763050
v    224.531183 21.771828 2.200489
v    224.996210 22.066856 2.339091
v    226.114147 22.978401 2.694730
v    221.503548 21.204422 0.331061
v    218.205166 20.699900 0.331061
v    220.291286 18.095678 0.331061
v    218.496452 18.795578 0.771522
v    221.794834 19.300100 0.771522
v    219.708714 21.904322 0.771522
v    219.330152 18.037259 0.161062
v    217.765678 17.000822 1.939229
v    217.361516 16.725491 2.246339
v    215.925729 15.790913 3.320202
v    215.130931 15.259373 3.561468
v    213.573209 14.275515 4.025155
v    212.855691 13.933651 4.221112
v    211.789746 13.423149 3.976805
v    217.938379 19.774688 0.161062
v    216.585468 18.474145 1.939229
v    216.228563 18.139821 2.246339
v    215.003142 16.942630 3.320202
v    214.310945 16.283007 3.561468
v    213.010820 14.977577 4.025155
v    212.520593 14.351973 4.221112
v    211.789746 13.423149 3.976805
v    218.272844 19.328938 0.771522
v    221.444735 18.839770 0.771522
v    220.282421 21.831292 0.771522
v    221.727156 20.671062 1.487405
v    218.555265 21.160230 1.487405
v    219.717579 18.168708 1.487405
v    220.982521 21.937942 0.674026
v    223.385374 22.629679 3.043261
v    226.210934 23.423475 4.883274
v    226.970911 23.645851 5.083079
v    229.344159 24.273460 5.700897
v    230.881442 24.489839 6.083650
v    231.947672 24.642099 5.861014
v    222.033189 19.233769 0.674026
v    224.272752 20.345777 3.043261
v    226.893042 21.667889 4.883274
v    227.603798 22.016946 5.083079
v    229.778226 23.156273 5.700897
v    231.058337 24.034552 6.083650
v    231.947672 24.642099 5.861014
v    221.533288 20.362708 1.487405
v    218.919242 21.146512 1.487405
v    219.547470 18.490780 1.487405
v    218.466712 19.637292 2.987040
v    221.080758 18.853488 2.987040
v    220.452530 21.509220 2.987040
v    219.239308 17.702110 1.927890
v    216.016103 17.241303 5.013017
v    213.517288 16.851041 6.601276
v    212.240227 16.678984 7.409011
v    208.692833 16.156037 8.313792
v    206.096029 15.842299 8.972093
v    202.072794 15.759216 8.137083
v    218.290385 21.713524 1.927890
v    215.202336 20.681368 5.013017
v    212.793508 19.910698 6.601276
v    211.574710 19.492346 7.409011
v    208.168990 18.370493 8.313792
v    205.706846 17.487508 8.972093
v    202.072794 15.759216 8.137083
v    219.180472 19.064162 2.987040
v    221.220223 19.758187 2.987040
v    219.599305 21.177651 2.987040
v    220.819528 20.935838 4.897980
v    218.779777 20.241813 4.897980
v    220.400695 18.822349 4.897980
v    218.434779 22.505957 3.550098
v    219.227895 23.262073 4.588406
v    221.434342 25.364570 7.476249
v    224.905853 28.759205 10.525406
v    230.380697 34.051788 12.447298
v    233.408761 36.819159 11.705729
v    236.966032 39.373900 10.800423
v    222.690564 18.779099 3.550098
v    223.335426 19.665043 4.588406
v    225.128424 22.129603 7.476249
v    228.035352 26.018654 10.525406
v    232.559316 32.143937 12.447298
v    234.902971 35.510656 11.705729
v    236.966032 39.373900 10.800423
v    220.788305 20.503310 4.897980
v    219.169968 20.431037 4.897980
v    220.041727 19.065652 4.897980
v    219.211695 19.496690 12.075822
v    220.830032 19.568963 12.075822
v    219.958273 20.934348 12.075822
v    221.696683 16.505669 10.399432
v    217.137014 14.109776 15.282471
v    211.811323 11.263079 19.074772
v    205.714681 7.927138 20.830841
v    203.194028 6.607464 21.548768
v    198.579534 4.187038 20.446854
v    193.998898 1.933643 19.370073
v    190.222084 0.696202 17.438924
v    189.324348 0.414472 16.862555
v    217.544110 23.009599 10.399432
v    213.451917 19.881525 15.282471
v    208.628427 16.248259 19.074772
v    203.036696 12.121508 20.830841
v    200.778836 10.390237 21.548768
v    196.641316 7.222753 20.446854
v    192.669568 4.015694 19.370073
v    189.957698 1.110295 17.438924
v    189.324348 0.414472 16.862555
v    219.472967 19.620271 12.075822
v    220.592371 19.733440 12.075822
v    219.934662 20.646289 12.075822
v    220.527033 20.379729 17.953724
v    219.407629 20.266560 17.953724
v    220.065338 19.353711 17.953724
v    217.559217 23.490576 15.916085
v    218.821726 24.237634 17.306116
v    222.950685 26.679497 21.851382
v    229.219783 30.497242 26.460895
v    238.870918 36.294444 29.302310
v    244.271404 39.337966 28.299330
v    250.380805 41.889442 26.930749
v    222.538451 16.579794 15.916085
v    223.646738 17.540900 17.306116
v    227.270048 20.684565 21.851382
v    232.875944 25.422781 26.460895
v    241.430085 32.742523 29.302310
v    246.026614 36.901874 28.299330
v    250.380805 41.889442 26.930749
v    220.324177 20.211126 17.953724
v    219.655071 20.175183 17.953724
v    220.020752 19.613692 17.953724
v    219.675823 19.788874 19.033000
v    220.344929 19.824817 19.033000
v    219.979248 20.386308 19.033000
v    220.759205 17.284984 14.374991
v    220.665041 17.330067 15.441495
v    219.900160 17.806744 22.920484
v    219.621061 18.079473 24.590595
v    217.582580 18.425615 30.558602
v    217.823815 21.792184 14.374991
v    217.826974 21.687832 15.441495
v    217.953667 20.795524 22.920484
v    218.090253 20.429982 24.590595
v    217.582580 18.425615 30.558602
mtllib usm_33_2.5D_2018-08-15_5.mtl
usemtl APPID_4047068640_2409227591648 
o vid_3 
f 3 2 1
f 4 5 6
f 1 6 5
f 1 5 3
f 3 5 4
f 4 2 3
f 2 4 6
f 6 1 2
usemtl APPID_4047071552_2409227588832 
o vid_4 
f 7 14 15
f 8 15 16
f 9 16 17
f 10 17 18
f 11 18 19
f 7 15 8
f 8 16 9
f 9 17 10
f 10 18 11
f 11 19 12
f 12 19 20
usemtl APPID_4047068640_2409227591648 
o vid_5 
f 23 22 21
f 24 25 26
f 21 26 25
f 21 25 23
f 23 25 24
f 24 22 23
f 22 24 26
f 26 21 22
usemtl APPID_4047071552_2409227588832 
o vid_6 
f 27 35 36
f 28 36 37
f 29 37 38
f 30 38 39
f 31 39 40
f 32 40 41
f 27 36 28
f 28 37 29
f 29 38 30
f 30 39 31
f 31 40 32
f 32 41 33
f 33 41 42
usemtl APPID_4047068640_2409227591648 
o vid_7 
f 45 44 43
f 46 47 48
f 43 48 47
f 43 47 45
f 45 47 46
f 46 44 45
f 44 46 48
f 48 43 44
usemtl APPID_4047071552_2409227588832 
o vid_8 
f 49 56 57
f 50 57 58
f 51 58 59
f 52 59 60
f 53 60 61
f 49 57 50
f 50 58 51
f 51 59 52
f 52 60 53
f 53 61 54
f 54 61 62
usemtl APPID_4047068640_2409227591648 
o vid_9 
f 65 64 63
f 66 67 68
f 63 68 67
f 63 67 65
f 65 67 66
f 66 64 65
f 64 66 68
f 68 63 64
usemtl APPID_4047071552_2409227588832 
o vid_10 
f 69 76 77
f 70 77 78
f 71 78 79
f 72 79 80
f 73 80 81
f 69 77 70
f 70 78 71
f 71 79 72
f 72 80 73
f 73 81 74
f 74 81 82
usemtl APPID_4047068640_2409227591648 
o vid_11 
f 85 84 83
f 86 87 88
f 83 88 87
f 83 87 85
f 85 87 86
f 86 84 85
f 84 86 88
f 88 83 84
usemtl APPID_4047071552_2409227588832 
o vid_12 
f 89 96 97
f 90 97 98
f 91 98 99
f 92 99 100
f 93 100 101
f 89 97 90
f 90 98 91
f 91 99 92
f 92 100 93
f 93 101 94
f 94 101 102
usemtl APPID_4047068640_2409227591648 
o vid_13 
f 105 104 103
f 106 107 108
f 103 108 107
f 103 107 105
f 105 107 106
f 106 104 105
f 104 106 108
f 108 103 104
usemtl APPID_4047071552_2409227588832 
o vid_14 
f 109 118 119
f 110 119 120
f 111 120 121
f 112 121 122
f 113 122 123
f 114 123 124
f 115 124 125
f 109 119 110
f 110 120 111
f 111 121 112
f 112 122 113
f 113 123 114
f 114 124 115
f 115 125 116
f 116 125 126
usemtl APPID_4047068640_2409227591648 
o vid_15 
f 129 128 127
f 130 131 132
f 127 132 131
f 127 131 129
f 129 131 130
f 130 128 129
f 128 130 132
f 132 127 128
usemtl APPID_4047071552_2409227588832 
o vid_16 
f 133 140 141
f 134 141 142
f 135 142 143
f 136 143 144
f 137 144 145
f 133 141 134
f 134 142 135
f 135 143 136
f 136 144 137
f 137 145 138
f 138 145 146
usemtl APPID_4047068640_2409227591648 
o vid_17 
f 149 148 147
f 150 151 152
f 147 152 151
f 147 151 149
f 149 151 150
f 150 148 149
f 148 150 152
f 152 147 148
usemtl APPID_4047071552_2409227588832 
o vid_18 
f 153 158 159
f 154 159 160
f 155 160 161
f 153 159 154
f 154 160 155
f 155 161 156
f 156 161 162
