# File generated by PlantGL - Fri Sep  4 14:41:36 2026
v    37.752484 58.905161 0.000000
v    42.071916 58.601013 0.000000
v    40.175600 62.493825 0.000000
v    42.247516 61.094839 0.848018
v    37.928084 61.398987 0.848018
v    39.824400 57.506175 0.848018
v    42.061621 61.449878 0.686083
v    42.363977 61.565153 0.986774
v    42.457091 61.598914 1.078665
v    42.412489 60.729608 0.686083
v    42.689638 60.896628 0.986774
v    42.773619 60.949136 1.078665
v    41.879284 61.505407 0.848018
v    37.756638 60.874804 0.848018
v    40.364078 57.619789 0.848018
v    38.120716 58.494593 1.416666
v    42.243362 59.125196 1.416666
v    39.635922 62.380211 1.416666
v    38.495907 58.052637 1.186837
v    38.164326 57.832384 1.556741
v    37.771304 58.957200 1.186837
v    37.483990 58.681685 1.556741
v    37.841416 59.161313 1.416666
v    41.805616 58.549955 1.416666
v    40.352968 62.288732 1.416666
v    42.158584 60.838687 2.254254
v    38.194384 61.450045 2.254254
v    39.647032 57.711268 2.254254
v    41.869293 61.519816 1.934528
v    41.929234 61.537152 1.992511
v    42.276033 61.631310 2.325905
v    42.405045 60.140917 1.934528
v    42.460966 60.168598 1.992511
v    42.780363 60.333281 2.325905
v    42.163962 60.511898 2.254254
v    38.474702 61.618097 2.254254
v    39.361335 57.870005 2.254254
v    37.836038 59.488102 4.114020
v    41.525298 58.381903 4.114020
v    40.638665 62.129995 4.114020
v    38.107452 58.476835 3.678044
v    37.600432 58.403713 4.154066
v    37.079379 58.337279 4.641393
v    37.625597 60.513793 3.678044
v    37.139553 60.352000 4.154066
v    36.643960 60.177941 4.641393
v    38.595695 58.396392 4.114020
v    42.090917 59.585640 4.114020
v    39.313387 62.017967 4.114020
v    41.404305 61.603608 6.002274
v    37.909083 60.414360 6.002274
v    40.686613 57.982033 6.002274
v    40.272278 62.539283 5.419557
v    41.330156 63.549803 6.779014
v    41.628054 63.825157 7.155373
v    41.772253 63.961771 7.289081
v    42.481159 60.604931 5.419557
v    43.343269 61.786888 6.779014
v    43.576911 62.118512 7.155373
v    43.693305 62.279475 7.289081
v    41.718982 61.097521 6.002274
v    38.190028 60.939922 6.002274
v    40.090990 57.962557 6.002274
v    38.281018 58.902479 11.513477
v    41.809972 59.060078 11.513477
v    39.909010 62.037443 11.513477
v    39.303724 57.402613 10.750057
v    38.688409 57.082919 11.394408
v    37.116520 56.298722 13.024157
v    34.510621 54.958375 14.996674
v    37.350784 60.461386 10.750057
v    36.801843 60.037735 11.394408
v    35.428991 58.941800 13.024157
v    33.116504 57.141897 14.996674
v    38.420020 58.861621 11.513477
v    41.775855 59.200887 11.513477
v    39.804125 61.937492 11.513477
v    41.579980 61.138379 19.661518
v    38.224145 60.799113 19.661518
v    40.195875 58.062508 19.661518
v    40.020250 63.182655 18.681171
v    42.723277 64.785706 21.601461
v    46.513642 67.021161 24.563974
v    51.759890 70.188935 26.528346
v    43.025401 59.011744 18.681171
v    45.401657 61.068327 21.601461
v    48.721991 63.956148 24.563974
v    53.387559 67.929860 26.528346
v    41.554633 61.012481 19.661518
v    38.345849 60.840111 19.661518
v    40.099518 58.147408 19.661518
v    38.445367 58.987519 30.885372
v    41.654151 59.159889 30.885372
v    39.900482 61.852592 30.885372
v    40.262851 56.359306 29.651395
v    36.769305 54.503911 33.327206
v    31.866987 51.924212 37.056163
v    24.961879 48.186534 39.572925
v    22.763210 47.106933 40.354896
v    36.776486 61.712513 29.651395
v    33.666923 59.267523 33.327206
v    29.325274 55.826934 37.056163
v    23.114708 51.022810 39.572925
v    21.238271 49.448430 40.354896
v    38.458123 59.144816 30.885372
v    41.511550 59.092287 30.885372
v    40.030327 61.762897 30.885372
v    41.541877 60.855184 48.446724
v    38.488450 60.907713 48.446724
v    39.969673 58.237103 48.446724
v    39.417630 64.459600 46.924267
v    43.879170 66.437801 51.459409
v    46.805469 67.771905 53.626921
v    50.116004 69.223505 56.060123
v    62.158008 74.677360 60.297402
v    67.229838 76.763227 60.593674
v    43.474786 57.144645 46.924267
v    47.515272 59.881996 51.459409
v    50.196464 61.658022 53.626921
v    53.180779 63.697789 56.060123
v    64.183509 71.025431 60.297402
v    68.638474 74.223491 60.593674
v    41.614895 60.429572 48.446724
v    38.820532 61.183754 48.446724
v    39.564573 58.386674 48.446724
v    38.385105 59.570428 69.871530
v    41.179468 58.816246 69.871530
v    40.435427 61.613326 69.871530
v    39.838656 54.620735 68.030362
v    34.022565 53.616786 73.514892
v    28.956392 52.687887 76.986231
v    25.890915 52.171707 79.078720
v    8.873180 49.095155 84.621892
v    0.638480 47.887756 84.527132
v    37.187264 64.588141 68.030362
v    31.641049 62.569647 73.514892
v    26.782926 60.858622 76.986231
v    23.866136 59.783482 79.078720
v    7.568975 53.998067 84.621892
v    -0.177275 50.954434 84.527132
v    38.541706 59.394647 69.871530
v    41.253398 59.039757 69.871530
v    40.204896 61.565597 69.871530
v    41.458294 60.605353 89.783161
v    38.746602 60.960243 89.783161
v    39.795104 58.434403 89.783161
v    39.080380 65.924690 87.600670
v    45.754980 68.021682 94.101946
v    48.068718 68.775145 95.741923
v    55.100932 70.952765 100.697220
v    70.753557 76.007008 105.969480
v    74.670797 77.102282 107.268009
v    80.232903 78.691954 107.202151
v    81.828083 78.926101 107.184237
v    43.546522 55.165764 87.600670
v    49.744013 58.412111 94.101946
v    51.911161 59.518710 95.741923
v    58.418235 62.961389 100.697220
v    73.048715 70.477977 105.969480
v    76.590039 72.478831 107.268009
v    81.642805 75.295502 107.202151
v    82.934861 76.259877 107.184237
v    41.148136 60.944713 89.783161
v    38.607786 60.521958 89.783161
v    40.244078 58.533328 89.783161
v    38.851864 59.055287 113.738124
v    41.392214 59.478042 113.738124
v    39.755922 61.466672 113.738124
v    43.422001 53.787857 111.202281
v    36.710340 49.201589 118.756132
v    32.267011 46.097008 122.409341
v    27.334771 42.756332 126.419200
v    9.193953 30.148229 133.500399
v    -0.552639 23.865662 133.941539
v    -4.335134 22.081321 133.895071
v    34.563143 64.554273 111.202281
v    28.770200 58.851462 118.756132
v    24.868042 55.089181 122.409341
v    20.640054 50.892608 126.419200
v    4.774420 35.519411 133.500399
v    -3.267533 27.165149 133.941539
v    -5.746903 23.797083 133.895071
v    39.036323 58.991726 113.738124
v    41.355030 59.669568 113.738124
v    39.608648 61.338706 113.738124
v    40.963677 61.008274 134.192471
v    38.644970 60.330432 134.192471
v    40.391352 58.661294 134.192471
v    35.226806 66.204330 131.304434
v    42.193382 72.301630 139.907414
v    44.878398 74.701422 142.334464
v    51.946908 80.836798 148.634782
v    68.538838 95.592169 155.751869
v    72.359567 98.727525 157.329749
v    78.604333 103.912373 157.237343
v    84.426929 107.565191 157.160974
v    46.413774 55.512172 131.304434
v    52.189894 62.747274 139.907414
v    54.465847 65.538036 142.334464
v    60.275396 72.876688 148.634782
v    74.265589 90.118718 155.751869
v    77.225011 94.077284 157.329749
v    82.122243 100.550063 157.237343
v    85.508097 106.531843 157.160974
v    40.854699 60.871088 134.192471
v    38.818266 60.304647 134.192471
v    40.327034 58.824265 134.192471
v    39.145301 59.128912 147.048688
v    41.181734 59.695353 147.048688
v    39.672966 61.175735 147.048688
v    44.963312 53.744918 143.824694
v    40.504219 49.944341 149.269172
v    37.044999 47.092670 153.428430
v    25.991008 37.749314 163.171021
v    15.149209 28.359332 167.768370
v    4.094275 19.527529 172.285594
v    -3.595416 14.869412 172.798709
v    33.651789 64.843628 143.824694
v    29.936579 60.313163 149.269172
v    27.151116 56.800412 153.428430
v    18.019368 45.570977 163.171021
v    8.836973 34.552811 167.768370
v    0.216704 23.332147 172.285594
v    -4.294539 15.555382 172.798709
v    39.366891 59.298517 147.048688
v    40.924057 59.802453 147.048688
v    39.709052 60.899030 147.048688
v    40.633109 60.701483 158.345851
v    39.075943 60.197547 158.345851
v    40.290948 59.100970 158.345851
v    33.878761 66.456009 154.818115
v    40.226461 72.340302 162.861267
v    53.863460 84.833482 175.987119
v    67.414013 97.595865 181.953653
v    78.415379 107.162635 186.608014
v    89.207177 114.521441 186.462541
v    47.047777 54.570593 154.818115
v    52.252548 61.486412 162.861267
v    63.286662 76.328769 175.987119
v    74.597405 91.112647 181.953653
v    82.989783 103.034103 186.608014
v    89.207177 114.521441 186.462541
v    40.685419 60.133433 158.345851
v    39.541734 60.526874 158.345851
v    39.772846 59.339693 158.345851
v    39.314581 59.866567 164.722155
v    40.458266 59.473126 164.722155
v    40.227154 60.660307 164.722155
v    41.274468 51.221793 160.938525
v    29.177959 50.137230 172.209324
v    12.275146 48.456613 183.643082
v    1.929041 47.302033 186.979939
v    -14.634400 46.116643 192.281285
v    -23.472125 46.713115 195.034393
v    -27.191717 46.919589 194.993002
v    37.888433 68.615246 160.938525
v    26.268451 65.082850 172.209324
v    9.969560 60.299992 183.643082
v    -0.054111 57.489128 186.979939
v    -15.852639 52.374517 192.281285
v    -23.821212 48.506313 195.034393
v    -27.191717 46.919589 194.993002
v    39.629412 59.694277 164.722155
v    40.450058 59.831923 164.722155
v    39.920530 60.473800 164.722155
v    40.370588 60.305723 168.077580
v    39.549942 60.168077 168.077580
v    40.079470 59.526200 168.077580
v    35.017998 66.344812 164.099881
v    45.670587 73.389873 175.948780
v    56.917703 81.028684 185.100494
v    60.567418 83.272149 187.968996
v    71.136962 90.031362 191.974265
v    83.000395 95.473953 196.031063
v    45.282216 53.902854 164.099881
v    54.223594 63.022191 175.948780
v    63.860900 72.612363 185.100494
v    66.757172 75.769127 187.968996
v    75.402128 84.861264 191.974265
v    83.000395 95.473953 196.031063
v    40.232963 60.174939 168.077580
v    39.732017 60.114282 168.077580
v    40.035020 59.710779 168.077580
v    39.767037 59.825061 169.446000
v    40.267983 59.885718 169.446000
v    39.964980 60.289221 169.446000
v    42.410858 53.855042 161.636127
v    39.676169 52.726768 170.755498
v    37.098903 51.996941 178.712328
v    32.672721 50.179198 188.045567
v    26.739219 49.422849 198.523525
v    25.381681 49.022659 199.964228
v    34.771080 64.028790 161.636127
v    32.924975 61.717206 170.755498
v    31.505410 59.445690 178.712328
v    28.525501 55.701973 188.045567
v    26.144556 50.214751 198.523525
v    25.381681 49.022659 199.964228
v    42.457091 61.598914 1.078665
v    43.228435 61.888097 1.657813
v    43.935039 62.163927 1.900948
v    44.606829 62.395893 2.127840
v    45.149057 62.508274 2.139823
v    42.773619 60.949136 1.078665
v    43.476801 61.378244 1.657813
v    44.129562 61.764605 1.900948
v    44.726323 62.150591 2.127840
v    45.149057 62.508274 2.139823
v    38.164326 57.832384 1.556741
v    38.010760 57.730377 1.728055
v    37.018823 57.079621 2.565979
v    35.994038 56.387144 2.962419
v    35.207136 55.899740 3.257921
v    34.414709 55.525884 3.248154
v    37.483990 58.681685 1.556741
v    37.350926 58.554085 1.728055
v    36.499359 57.728098 2.565979
v    35.599908 56.879159 2.962419
v    34.952506 56.217609 3.257921
v    34.414709 55.525884 3.248154
v    42.276033 61.631310 2.325905
v    42.859622 61.789757 2.886938
v    44.240114 62.182869 3.853120
v    44.956609 62.396253 4.092749
v    46.316301 62.743093 4.540726
v    47.195609 62.841034 4.815714
v    47.366453 62.862131 4.813802
v    42.780363 60.333281 2.325905
v    43.317841 60.610408 2.886938
v    44.601612 61.252459 3.853120
v    45.274222 61.578792 4.092749
v    46.511409 62.240932 4.540726
v    47.226181 62.762348 4.815714
v    47.366453 62.862131 4.813802
v    37.079379 58.337279 4.641393
v    36.720820 58.291563 4.976743
v    34.782468 58.020145 6.294220
v    33.225221 57.782953 6.799126
v    31.323659 57.570118 7.409984
v    30.690643 57.587449 7.606806
v    29.855822 57.600336 7.597530
v    36.643960 60.177941 4.641393
v    36.302921 60.058163 4.976743
v    34.448402 59.432354 6.294220
v    32.949930 58.946699 6.799126
v    31.154549 58.285001 7.409984
v    30.596390 57.985890 7.606806
v    29.855822 57.600336 7.597530
v    41.772253 63.961771 7.289081
v    43.527143 65.624357 8.916287
v    45.764649 67.795857 9.915706
v    47.525682 69.374177 10.670664
v    49.323639 70.646877 10.646115
v    43.693305 62.279475 7.289081
v    45.109816 64.238385 8.916287
v    46.967117 66.742837 9.915706
v    48.299288 68.696718 10.670664
v    49.323639 70.646877 10.646115
v    34.510621 54.958375 14.996674
v    34.068760 54.731103 15.331137
v    31.865365 53.564046 16.130350
v    28.844610 52.114512 17.199998
v    27.527841 51.694789 17.629553
v    26.411783 51.324311 17.616487
v    33.116504 57.141897 14.996674
v    32.724395 56.836703 15.331137
v    30.738486 55.329010 16.130350
v    28.152374 53.198719 17.199998
v    27.217512 52.180839 17.629553
v    26.411783 51.324311 17.616487
v    51.759890 70.188935 26.528346
v    52.263323 70.492917 26.716848
v    54.454472 71.700011 27.515488
v    56.104969 72.621654 27.493967
v    59.237342 73.860550 27.456541
v    53.387559 67.929860 26.528346
v    53.835270 68.311180 26.716848
v    55.673895 70.007548 27.515488
v    57.070606 71.281426 27.493967
v    59.237342 73.860550 27.456541
v    22.763210 47.106933 40.354896
v    21.592472 46.532071 40.771276
v    20.030922 45.754152 40.751415
v    16.019126 44.382055 40.704306
v    21.238271 49.448430 40.354896
v    20.239114 48.610111 40.771276
v    18.896215 47.496460 40.751415
v    16.019126 44.382055 40.704306
v    67.229838 76.763227 60.593674
v    68.594022 77.326081 60.576873
v    72.620497 78.391506 60.530597
v    73.636451 78.656072 60.344629
v    68.638474 74.223491 60.593674
v    69.838275 75.082722 60.576873
v    72.874076 77.934308 60.530597
v    73.636451 78.656072 60.344629
v    0.638480 47.887756 84.527132
v    0.332622 47.843123 84.523613
v    -3.138585 47.800548 84.485043
v    -5.949688 47.777100 83.987069
v    -0.177275 50.954434 84.527132
v    -0.464886 50.841201 84.523613
v    -3.498468 49.153462 84.485043
v    -5.949688 47.777100 83.987069
v    81.828083 78.926101 107.184237
v    87.652445 79.781024 107.118831
v    82.934861 76.259877 107.184237
v    87.652445 79.781024 107.118831
v    -4.335134 22.081321 133.895071
v    -6.755432 20.939577 133.865338
v    -8.410412 20.166786 133.541790
v    -5.746903 23.797083 133.895071
v    -7.333373 21.641964 133.865338
v    -8.410412 20.166786 133.541790
v    84.426929 107.565191 157.160974
v    87.010381 109.185925 157.127089
v    85.508097 106.531843 157.160974
v    87.010381 109.185925 157.127089
v    -3.595416 14.869412 172.798709
v    -5.301101 13.830271 172.776517
v    -4.294539 15.555382 172.798709
v    -5.301101 13.830271 172.776517
mtllib usm_1_Beer_2018-08-20_1.mtl
usemtl APPID_1439657680_2556942836576 
o vid_3 
f 3 2 1
f 4 5 6
f 1 6 5
f 1 5 3
f 3 5 4
f 4 2 3
f 2 4 6
f 6 1 2
usemtl APPID_1439661152_2556942835936 
o vid_4 
f 7 10 11
f 7 11 8
f 8 11 12
f 8 12 9
usemtl APPID_1439657680_2556942836576 
o vid_5 
f 15 14 13
f 16 17 18
f 13 18 17
f 13 17 15
f 15 17 16
f 16 14 15
f 14 16 18
f 18 13 14
usemtl APPID_1439661152_2556942835936 
o vid_6 
f 19 21 22
f 19 22 20
f 19 21 22
f 19 22 20
usemtl APPID_1439657680_2556942836576 
o vid_7 
f 25 24 23
f 26 27 28
f 23 28 27
f 23 27 25
f 25 27 26
f 26 24 25
f 24 26 28
f 28 23 24
usemtl APPID_1439661152_2556942835936 
o vid_8 
f 29 32 33
f 29 33 30
f 30 33 34
f 30 34 31
usemtl APPID_1439657680_2556942836576 
o vid_9 
f 37 36 35
f 38 39 40
f 35 40 39
f 35 39 37
f 37 39 38
f 38 36 37
f 36 38 40
f 40 35 36
usemtl APPID_1439661152_2556942835936 
o vid_10 
f 41 44 45
f 41 45 42
f 42 45 46
f 42 46 43
usemtl APPID_1439657680_2556942836576 
o vid_11 
f 49 48 47
f 50 51 52
f 47 52 51
f 47 51 49
f 49 51 50
f 50 48 49
f 48 50 52
f 52 47 48
usemtl APPID_1439661152_2556942835936 
o vid_12 
f 53 57 58
f 54 58 59
f 53 58 54
f 54 59 55
f 55 59 60
f 55 60 56
usemtl APPID_1439657680_2556942836576 
o vid_13 
f 63 62 61
f 64 65 66
f 61 66 65
f 61 65 63
f 63 65 64
f 64 62 63
f 62 64 66
f 66 61 62
usemtl APPID_1439661152_2556942835936 
o vid_14 
f 67 71 72
f 68 72 73
f 67 72 68
f 68 73 69
f 69 73 74
f 69 74 70
usemtl APPID_1439657680_2556942836576 
o vid_15 
f 77 76 75
f 78 79 80
f 75 80 79
f 75 79 77
f 77 79 78
f 78 76 77
f 76 78 80
f 80 75 76
usemtl APPID_1439661152_2556942835936 
o vid_16 
f 81 85 86
f 82 86 87
f 81 86 82
f 82 87 83
f 83 87 88
f 83 88 84
usemtl APPID_1439657680_2556942836576 
o vid_17 
f 91 90 89
f 92 93 94
f 89 94 93
f 89 93 91
f 91 93 92
f 92 90 91
f 90 92 94
f 94 89 90
usemtl APPID_1439661152_2556942835936 
o vid_18 
f 95 100 101
f 96 101 102
f 97 102 103
f 95 101 96
f 96 102 97
f 97 103 98
f 98 103 104
f 98 104 99
usemtl APPID_1439657680_2556942836576 
o vid_19 
f 107 106 105
f 108 109 110
f 105 110 109
f 105 109 107
f 107 109 108
f 108 106 107
f 106 108 110
f 110 105 106
usemtl APPID_1439661152_2556942835936 
o vid_20 
f 111 117 118
f 112 118 119
f 113 119 120
f 114 120 121
f 111 118 112
f 112 119 113
f 113 120 114
f 114 121 115
f 115 121 122
f 115 122 116
usemtl APPID_1439657680_2556942836576 
o vid_21 
f 125 124 123
f 126 127 128
f 123 128 127
f 123 127 125
f 125 127 126
f 126 124 125
f 124 126 128
f 128 123 124
usemtl APPID_1439661152_2556942835936 
o vid_22 
f 129 135 136
f 130 136 137
f 131 137 138
f 132 138 139
f 129 136 130
f 130 137 131
f 131 138 132
f 132 139 133
f 133 139 140
f 133 140 134
usemtl APPID_1439657680_2556942836576 
o vid_23 
f 143 142 141
f 144 145 146
f 141 146 145
f 141 145 143
f 143 145 144
f 144 142 143
f 142 144 146
f 146 141 142
usemtl APPID_1439661152_2556942835936 
o vid_24 
f 147 155 156
f 148 156 157
f 149 157 158
f 150 158 159
f 151 159 160
f 152 160 161
f 147 156 148
f 148 157 149
f 149 158 150
f 150 159 151
f 151 160 152
f 152 161 153
f 153 161 162
f 153 162 154
usemtl APPID_1439657680_2556942836576 
o vid_25 
f 165 164 163
f 166 167 168
f 163 168 167
f 163 167 165
f 165 167 166
f 166 164 165
f 164 166 168
f 168 163 164
usemtl APPID_1439661152_2556942835936 
o vid_26 
f 169 176 177
f 170 177 178
f 171 178 179
f 172 179 180
f 173 180 181
f 169 177 170
f 170 178 171
f 171 179 172
f 172 180 173
f 173 181 174
f 174 181 182
f 174 182 175
usemtl APPID_1439657680_2556942836576 
o vid_27 
f 185 184 183
f 186 187 188
f 183 188 187
f 183 187 185
f 185 187 186
f 186 184 185
f 184 186 188
f 188 183 184
usemtl APPID_1439661152_2556942835936 
o vid_28 
f 189 197 198
f 190 198 199
f 191 199 200
f 192 200 201
f 193 201 202
f 194 202 203
f 189 198 190
f 190 199 191
f 191 200 192
f 192 201 193
f 193 202 194
f 194 203 195
f 195 203 204
f 195 204 196
usemtl APPID_1439657680_2556942836576 
o vid_29 
f 207 206 205
f 208 209 210
f 205 210 209
f 205 209 207
f 207 209 208
f 208 206 207
f 206 208 210
f 210 205 206
usemtl APPID_1439661152_2556942835936 
o vid_30 
f 211 218 219
f 212 219 220
f 213 220 221
f 214 221 222
f 215 222 223
f 211 219 212
f 212 220 213
f 213 221 214
f 214 222 215
f 215 223 216
f 216 223 224
f 216 224 217
usemtl APPID_1439657680_2556942836576 
o vid_31 
f 227 226 225
f 228 229 230
f 225 230 229
f 225 229 227
f 227 229 228
f 228 226 227
f 226 228 230
f 230 225 226
usemtl APPID_1439661152_2556942835936 
o vid_32 
f 231 237 238
f 232 238 239
f 233 239 240
f 234 240 241
f 231 238 232
f 232 239 233
f 233 240 234
f 234 241 235
f 235 241 242
usemtl APPID_1439657680_2556942836576 
o vid_33 
f 245 244 243
f 246 247 248
f 243 248 247
f 243 247 245
f 245 247 246
f 246 244 245
f 244 246 248
f 248 243 244
usemtl APPID_1439661152_2556942835936 
o vid_34 
f 249 256 257
f 250 257 258
f 251 258 259
f 252 259 260
f 253 260 261
f 249 257 250
f 250 258 251
f 251 259 252
f 252 260 253
f 253 261 254
f 254 261 262
usemtl APPID_1439657680_2556942836576 
o vid_35 
f 265 264 263
f 266 267 268
f 263 268 267
f 263 267 265
f 265 267 266
f 266 264 265
f 264 266 268
f 268 263 264
usemtl APPID_1439661152_2556942835936 
o vid_36 
f 269 275 276
f 270 276 277
f 271 277 278
f 272 278 279
f 269 276 270
f 270 277 271
f 271 278 272
f 272 279 273
f 273 279 280
usemtl APPID_1439657680_2556942836576 
o vid_37 
f 283 282 281
f 284 285 286
f 281 286 285
f 281 285 283
f 283 285 284
f 284 282 283
f 282 284 286
f 286 281 282
usemtl APPID_1439661152_2556942835936 
o vid_38 
f 287 293 294
f 288 294 295
f 289 295 296
f 290 296 297
f 287 294 288
f 288 295 289
f 289 296 290
f 290 297 291
f 291 297 298
usemtl APPID_1439664512_2556942836960 
o vid_10000004 
f 299 304 305
f 300 305 306
f 301 306 307
f 299 305 300
f 300 306 301
f 301 307 302
f 302 307 308
usemtl APPID_1439664512_2556942836960 
o vid_10000006 
f 309 315 316
f 310 316 317
f 311 317 318
f 312 318 319
f 309 316 310
f 310 317 311
f 311 318 312
f 312 319 313
f 313 319 320
usemtl APPID_1439664512_2556942836960 
o vid_10000008 
f 321 328 329
f 322 329 330
f 323 330 331
f 324 331 332
f 325 332 333
f 321 329 322
f 322 330 323
f 323 331 324
f 324 332 325
f 325 333 326
f 326 333 334
usemtl APPID_1439664512_2556942836960 
o vid_10000010 
f 335 342 343
f 336 343 344
f 337 344 345
f 338 345 346
f 339 346 347
f 335 343 336
f 336 344 337
f 337 345 338
f 338 346 339
f 339 347 340
f 340 347 348
usemtl APPID_1439664512_2556942836960 
o vid_10000012 
f 349 354 355
f 350 355 356
f 351 356 357
f 349 355 350
f 350 356 351
f 351 357 352
f 352 357 358
usemtl APPID_1439664512_2556942836960 
o vid_10000014 
f 359 365 366
f 360 366 367
f 361 367 368
f 362 368 369
f 359 366 360
f 360 367 361
f 361 368 362
f 362 369 363
f 363 369 370
usemtl APPID_1439664512_2556942836960 
o vid_10000016 
f 371 376 377
f 372 377 378
f 373 378 379
f 371 377 372
f 372 378 373
f 373 379 374
f 374 379 380
usemtl APPID_1439664512_2556942836960 
o vid_10000018 
f 381 385 386
f 382 386 387
f 381 386 382
f 382 387 383
f 383 387 388
usemtl APPID_1439664512_2556942836960 
o vid_10000020 
f 389 393 394
f 390 394 395
f 389 394 390
f 390 395 391
f 391 395 396
usemtl APPID_1439664512_2556942836960 
o vid_10000022 
f 397 401 402
f 398 402 403
f 397 402 398
f 398 403 399
f 399 403 404
usemtl APPID_1439664512_2556942836960 
o vid_10000024 
f 405 407 408
f 405 408 406
f 405 407 408
usemtl APPID_1439664512_2556942836960 
o vid_10000026 
f 409 412 413
f 409 413 410
f 410 413 414
usemtl APPID_1439664512_2556942836960 
o vid_10000028 
f 415 417 418
f 415 418 416
f 415 417 418
usemtl APPID_1439664512_2556942836960 
o vid_10000030 
f 419 421 422
f 419 422 420
f 419 421 422
