# File generated by PlantGL - Fri Sep  4 14:41:51 2026
v    17.752484 138.905161 0.000000
v    22.071916 138.601013 0.000000
v    20.175600 142.493825 0.000000
v    22.247516 141.094839 0.848018
v    17.928084 141.398987 0.848018
v    19.824400 137.506175 0.848018
v    22.062184 141.449156 0.688716
v    22.418649 141.585061 1.043219
v    22.463190 141.601210 1.087175
v    22.412266 140.730496 0.688716
v    22.739014 140.927406 1.043219
v    22.779187 140.952523 1.087175
v    21.879284 141.505407 0.848018
v    17.756638 140.874804 0.848018
v    20.364078 137.619789 0.848018
v    18.120716 138.494593 1.416666
v    22.243362 139.125196 1.416666
v    19.635922 142.380211 1.416666
v    18.493117 138.055620 1.191176
v    18.179227 137.847118 1.541345
v    17.773606 138.953827 1.191176
v    17.501621 138.693011 1.541345
v    17.841416 139.161313 1.416666
v    21.805616 138.549955 1.416666
v    20.352968 142.288732 1.416666
v    22.158584 140.838687 2.253758
v    18.194384 141.450045 2.253758
v    19.647032 137.711268 2.253758
v    21.871433 141.515662 1.940857
v    22.050431 141.567430 2.114007
v    22.260965 141.624591 2.316404
v    22.403819 140.145427 1.940857
v    22.570813 140.228089 2.114007
v    22.764712 140.328065 2.316404
v    22.163962 140.511898 2.253758
v    18.474702 141.618097 2.253758
v    19.361335 137.870005 2.253758
v    17.836038 139.488102 4.113040
v    21.525298 138.381903 4.113040
v    20.638665 142.129995 4.113040
v    18.105016 138.483911 3.687377
v    17.417344 138.384736 4.333007
v    17.076636 138.341295 4.651663
v    17.626590 140.506376 3.687377
v    16.967368 140.286935 4.333007
v    16.643307 140.173121 4.651663
v    18.595695 138.396392 4.113040
v    22.090917 139.585640 4.113040
v    19.313387 142.017967 4.113040
v    21.404305 141.603608 6.000766
v    17.909083 140.414360 6.000766
v    20.686613 137.982033 6.000766
v    20.283419 142.530963 5.433090
v    20.584405 142.818475 5.819880
v    22.471442 140.614877 5.433090
v    22.716728 140.951165 5.819880
v    21.718982 141.097521 6.000766
v    18.190028 140.939922 6.000766
v    20.090990 137.962557 6.000766
v    18.281018 138.902479 12.885860
v    21.809972 139.060078 12.885860
v    19.909010 142.037443 12.885860
v    19.368598 137.298169 12.143674
v    17.698014 136.430199 13.893090
v    17.283338 140.564188 12.143674
v    15.792959 139.413974 13.893090
v    18.420020 138.861621 12.885860
v    21.775855 139.200887 12.885860
v    19.804125 141.937492 12.885860
v    21.579980 141.138379 19.685705
v    18.224145 140.799113 19.685705
v    20.195875 138.062508 19.685705
v    20.091978 143.086676 18.734440
v    21.403597 143.864542 20.151484
v    22.957063 139.110166 18.734440
v    24.110119 140.108104 20.151484
v    21.554633 141.012481 19.685705
v    18.345849 140.840111 19.685705
v    20.099518 138.147408 19.685705
v    18.445367 138.987519 30.882667
v    21.654151 139.159889 30.882667
v    19.900482 141.852592 30.882667
v    20.238006 136.392358 29.687393
v    18.519913 135.479893 31.495122
v    16.796670 141.676425 29.687393
v    15.267416 140.474002 31.495122
v    18.458123 139.144816 30.882667
v    21.511550 139.092287 30.882667
v    20.030327 141.762897 30.882667
v    21.541877 140.855184 48.444344
v    18.488450 140.907713 48.444344
v    19.969673 138.237103 48.444344
v    19.440360 144.426043 46.971997
v    19.881707 144.621732 47.420625
v    23.458354 137.181695 46.971997
v    23.858049 137.452481 47.420625
v    21.614895 140.429572 48.444344
v    18.820532 141.183754 48.444344
v    19.564573 138.386674 48.444344
v    18.385105 139.570428 69.931697
v    21.179468 138.816246 69.931697
v    20.435427 141.613326 69.931697
v    19.815054 134.691801 68.153705
v    14.198529 133.722301 73.450046
v    9.559156 132.871656 76.628942
v    17.202091 144.514741 68.153705
v    11.846182 142.565506 73.450046
v    7.397331 140.998627 76.628942
v    18.541706 139.394647 69.931697
v    21.253398 139.039757 69.931697
v    20.204896 141.565597 69.931697
v    21.458294 140.605353 94.018022
v    18.746602 140.960243 94.018022
v    19.795104 138.434403 94.018022
v    19.030282 146.059924 91.913148
v    25.467512 148.082340 98.183217
v    31.949989 150.193345 102.777995
v    34.456098 150.969395 104.543942
v    39.765668 152.683859 106.332360
v    23.606922 135.034807 91.913148
v    29.584011 138.165703 98.183217
v    35.655782 141.266097 102.777995
v    37.974745 142.492984 104.543942
v    42.937590 145.042707 106.332360
v    21.148136 140.944713 94.018022
v    18.607786 140.521958 94.018022
v    20.244078 138.533328 94.018022
v    18.851864 139.055287 114.176685
v    21.392214 139.478042 114.176685
v    19.755922 141.466672 114.176685
v    23.051995 134.227020 111.733819
v    16.586419 129.808908 119.010707
v    15.630317 129.140874 119.796793
v    7.517033 123.645632 126.392808
v    2.393504 120.084713 128.392758
v    14.922831 144.106620 111.733819
v    9.342287 138.612903 119.010707
v    8.502632 137.803347 119.796793
v    1.547807 130.900199 126.392808
v    -2.933140 126.558331 128.392758
v    19.036323 138.991726 114.176685
v    21.355030 139.669568 114.176685
v    19.608648 141.338706 114.176685
v    20.963677 141.008274 134.519744
v    18.644970 140.330432 134.519744
v    20.391352 138.661294 134.519744
v    15.476253 145.976715 131.740352
v    22.180752 151.844639 140.019695
v    24.323264 153.759556 141.956362
v    31.573601 160.052755 148.418746
v    42.886369 170.113313 153.271343
v    26.175115 135.751075 131.740352
v    31.733941 142.713998 140.019695
v    33.550041 144.940889 141.956362
v    39.509031 152.468317 148.418746
v    49.047874 164.224338 153.271343
v    20.912312 140.929805 134.519744
v    18.738610 140.325183 134.519744
v    20.349079 138.745013 134.519744
v    19.087688 139.070195 147.351462
v    21.261390 139.674817 147.351462
v    19.650921 141.254987 147.351462
v    24.684149 133.891112 144.251353
v    20.372298 130.216033 149.516050
v    17.070476 127.494116 153.486058
v    6.441243 118.509785 162.854283
v    -3.172195 110.183675 166.930758
v    13.803259 144.567292 144.251353
v    10.210727 140.186426 149.516050
v    7.552005 136.833508 153.486058
v    -1.228848 126.035572 162.854283
v    -9.370890 116.265749 166.930758
v    19.188946 139.101354 147.351462
v    21.183778 139.746930 147.351462
v    19.627277 141.151717 147.351462
v    20.811054 140.898646 158.601298
v    18.816222 140.253070 158.601298
v    20.372723 138.848283 158.601298
v    14.309818 146.438078 155.211445
v    20.530305 152.204445 163.093405
v    22.308283 153.799165 165.309251
v    33.511392 164.099088 175.553056
v    46.688444 176.509694 181.355131
v    49.719840 179.145791 182.637627
v    26.985887 134.997560 155.211445
v    32.086350 141.774780 163.093405
v    33.491017 143.706424 165.309251
v    42.592093 155.903493 175.553056
v    53.591072 170.279873 181.355131
v    55.903568 173.564797 182.637627
v    21.097812 140.213714 158.601298
v    19.266012 140.843876 158.601298
v    19.636176 138.942409 158.601298
v    18.902188 139.786286 164.915530
v    20.733988 139.156124 164.915530
v    20.363824 141.057591 164.915530
v    20.785955 131.476186 161.281724
v    18.845689 131.275210 163.094363
v    9.168715 130.433152 172.106225
v    -7.064786 128.819083 183.087233
v    -17.114341 127.697597 186.328445
v    -25.912293 127.067957 189.144345
v    17.531025 148.196175 161.281724
v    15.657059 147.654624 163.094363
v    6.370891 144.805071 172.106225
v    -9.282601 140.211604 183.087233
v    -19.018965 137.481307 186.328445
v    -27.410620 134.764595 189.144345
v    19.208315 139.346885 164.915530
v    20.961457 139.640938 164.915530
v    19.830228 141.012177 164.915530
v    20.791685 140.653115 168.662929
v    19.038543 140.359062 168.662929
v    20.169772 138.987823 168.662929
v    15.190966 147.010927 164.844194
v    25.417840 153.774442 176.219568
v    39.599880 163.406592 187.759413
v    43.096914 165.843708 189.125681
v    54.517449 173.147129 193.453428
v    25.969064 133.946061 164.844194
v    34.553112 142.700956 176.219568
v    46.705263 154.793673 187.759413
v    49.762635 157.763733 189.125681
v    59.103627 167.587910 193.453428
v    20.747035 140.560971 168.662929
v    19.140667 140.366465 168.662929
v    20.112298 139.072563 168.662929
v    19.252965 139.439029 171.451323
v    20.859333 139.633535 171.451323
v    19.887702 140.927437 171.451323
v    24.828275 132.485284 167.517143
v    13.985005 126.005739 179.236407
v    -1.063717 116.760008 191.125115
v    -6.696328 113.205345 193.260019
v    -21.652410 104.576942 198.772306
v    -21.968167 104.449197 198.878174
v    14.129771 146.732281 167.517143
v    4.883531 138.126000 179.236407
v    -8.191886 126.252457 191.125115
v    -13.176238 121.834520 193.260019
v    -25.632982 109.877795 198.772306
v    -25.843711 109.610186 198.878174
v    19.315813 139.520793 171.451323
v    20.757099 139.647080 171.451323
v    19.927088 140.832127 171.451323
v    20.684187 140.479207 172.895503
v    19.242901 140.352920 172.895503
v    20.072912 139.167873 172.895503
v    15.727655 147.058203 168.922070
v    26.889685 153.236382 180.758260
v    40.335682 160.896362 191.174704
v    42.451470 161.977427 192.765583
v    55.433683 168.904869 197.463254
v    59.365855 170.346191 198.764931
v    25.172997 133.572616 168.922070
v    34.794031 141.950953 180.758260
v    46.588235 151.969280 191.174704
v    48.327322 153.588180 192.765583
v    59.274591 163.421014 197.463254
v    61.973034 166.623792 198.764931
v    20.510228 140.364009 172.895503
v    19.429646 140.259866 172.895503
v    20.060127 139.376126 172.895503
v    19.489772 139.635991 174.047000
v    20.570354 139.740134 174.047000
v    19.939873 140.623874 174.047000
v    24.866336 132.586471 170.112819
v    13.868098 126.373599 181.832084
v    -1.401876 117.498045 193.720792
v    -6.621574 114.379509 195.669742
v    -21.783864 106.118836 201.182029
v    -30.055650 103.005114 203.929105
v    14.573478 147.013879 170.112819
v    5.119869 138.635914 181.832084
v    -8.241547 127.085152 193.720792
v    -12.888868 123.164320 195.669742
v    -25.633827 111.515295 201.182029
v    -31.269758 104.706919 203.929105
v    22.463190 141.601210 1.087175
v    23.209568 141.881186 1.644646
v    23.981245 142.182418 1.910172
v    24.615108 142.401288 2.124254
v    25.179233 142.522974 2.117831
v    22.779187 140.952523 1.087175
v    23.459730 141.367647 1.644646
v    24.172605 141.789589 1.910172
v    24.735676 142.153785 2.124254
v    25.179233 142.522974 2.117831
v    18.179227 137.847118 1.541345
v    17.952793 137.696709 1.793949
v    17.044720 137.099981 2.544278
v    15.956020 136.364314 2.965444
v    15.269751 135.939242 3.223156
v    14.402572 135.516162 3.212368
v    17.501621 138.693011 1.541345
v    17.305418 138.504865 1.793949
v    16.524880 137.748926 2.544278
v    15.569331 136.847040 2.965444
v    15.004722 136.270092 3.223156
v    14.402572 135.516162 3.212368
v    22.260965 141.624591 2.316404
v    22.839874 141.781768 2.872938
v    24.190898 142.166488 3.818495
v    25.048301 142.421837 4.105250
v    26.378970 142.761274 4.543665
v    27.072461 142.838518 4.760542
v    27.414333 142.880734 4.756715
v    22.764712 140.328065 2.316404
v    23.297879 140.602969 2.872938
v    24.554247 141.231314 3.818495
v    25.359135 141.621825 4.105250
v    26.569913 142.269831 4.543665
v    27.133638 142.681061 4.760542
v    27.414333 142.880734 4.756715
v    17.076636 138.341295 4.651663
v    16.751926 138.299895 4.955355
v    14.859426 138.034898 6.241667
v    13.088664 137.765184 6.815801
v    11.232084 137.557384 7.412209
v    9.786597 137.583960 7.511107
v    16.643307 140.173121 4.651663
v    16.334463 140.064650 4.955355
v    14.523813 139.453645 6.241667
v    12.819885 138.901401 6.815801
v    11.066975 138.255356 7.412209
v    9.786597 137.583960 7.511107
v    20.584405 142.818475 5.819880
v    21.509369 143.702032 7.008533
v    23.450917 145.539346 8.839565
v    25.882939 147.899625 9.925868
v    27.335678 149.201637 10.548660
v    29.361695 150.690334 10.520527
v    22.716728 140.951165 5.819880
v    23.470522 141.984620 7.008533
v    25.035606 144.151609 8.839565
v    27.054370 146.873785 9.925868
v    28.153326 148.485610 10.548660
v    29.361695 150.690334 10.520527
v    17.698014 136.430199 13.893090
v    14.296559 134.673837 16.597336
v    9.912626 132.351829 18.187472
v    8.092933 131.478634 18.831824
v    6.923672 130.909272 18.817018
v    4.503383 130.105852 18.788684
v    15.792959 139.413974 13.893090
v    12.768306 137.067448 16.597336
v    8.817090 134.067702 18.187472
v    7.259225 132.784422 18.831824
v    6.250691 131.963324 18.817018
v    4.503383 130.105852 18.788684
v    21.403597 143.864542 20.151484
v    22.668485 144.614693 21.518040
v    26.397472 146.804756 24.442732
v    31.431162 149.844184 26.327515
v    34.117629 151.324147 27.306692
v    35.132895 151.891074 27.293453
v    38.172348 153.093219 27.257137
v    24.110119 140.108104 20.151484
v    25.222094 141.070487 21.518040
v    28.479941 143.914455 24.442732
v    32.956478 147.727168 26.327515
v    35.210732 149.807007 27.306692
v    36.069887 150.590603 27.293453
v    38.172348 153.093219 27.257137
v    18.519913 135.479893 31.495122
v    16.854032 134.595156 33.247915
v    12.111439 132.087202 36.859917
v    4.664774 128.056384 39.574065
v    2.177981 126.835306 40.458509
v    -0.147794 125.676672 40.428927
v    -4.033764 124.347610 40.383296
v    15.267416 140.474002 31.495122
v    13.784636 139.308120 33.247915
v    9.573189 135.984607 36.859917
v    2.875538 130.803702 39.574065
v    0.753203 129.023008 40.458509
v    -1.246912 127.364334 40.428927
v    -4.033764 124.347610 40.383296
v    19.881707 144.621732 47.420625
v    23.755056 146.339135 51.357873
v    27.711742 148.142994 54.288593
v    29.777858 149.048943 55.807162
v    42.375434 154.754418 60.239933
v    49.006627 157.506653 60.158175
v    51.414821 158.143873 60.130498
v    53.861915 158.781123 59.682564
v    23.858049 137.452481 47.420625
v    27.365855 139.828951 51.357873
v    30.991129 142.230338 54.288593
v    32.853650 143.503363 55.807162
v    44.364003 151.169075 60.239933
v    50.209928 155.337130 60.158175
v    52.025610 157.042635 60.130498
v    53.861915 158.781123 59.682564
v    9.559156 132.871656 76.628942
v    8.026623 132.590662 77.679033
v    6.350775 132.308474 78.822963
v    -10.083036 129.337487 84.175934
v    -11.769441 129.025857 84.156339
v    -19.874425 127.843123 84.063089
v    -25.868603 127.786306 83.289747
v    -25.915311 127.786245 83.275855
v    7.397331 140.998627 76.628942
v    5.927734 140.481037 77.679033
v    4.333171 139.893275 78.822963
v    -11.404790 134.306373 84.175934
v    -13.023144 133.738916 84.156339
v    -20.644567 130.738329 84.063089
v    -25.874746 127.809398 83.289747
v    -25.915311 127.786245 83.275855
v    39.765668 152.683859 106.332360
v    53.270121 157.044455 110.881053
v    63.822414 160.111196 110.755885
v    66.607963 160.520070 110.724604
v    70.913813 161.134852 109.954133
v    42.937590 145.042707 106.332360
v    55.560177 151.527716 110.881053
v    65.182176 156.835533 110.755885
v    67.438399 158.519551 110.724604
v    70.913813 161.134852 109.954133
v    2.393504 120.084713 128.392758
v    -6.131221 114.159919 131.720352
v    -11.485057 110.745775 133.747503
v    -15.339757 108.256384 133.695262
v    -22.931165 104.675238 133.602003
v    -2.933140 126.558331 128.392758
v    -10.388711 119.334165 131.720352
v    -14.769982 114.738036 133.747503
v    -17.955109 111.434894 133.695262
v    -22.931165 104.675238 133.602003
v    42.886369 170.113313 153.271343
v    47.032795 173.800772 155.049947
v    51.238018 177.251651 156.786615
v    56.696026 181.783277 156.705852
v    64.785846 186.858442 156.599745
v    49.047874 164.224338 153.271343
v    52.544110 168.533229 155.049947
v    55.801349 172.890160 156.786615
v    60.081596 178.547455 156.705852
v    64.785846 186.858442 156.599745
v    -3.172195 110.183675 166.930758
v    -4.015097 109.453646 167.288182
v    -14.645237 100.961211 171.631828
v    -16.183654 100.048972 172.187728
v    -23.681037 95.481398 172.090186
v    -9.370890 116.265749 166.930758
v    -10.084780 115.409136 167.288182
v    -18.373809 104.619635 171.631828
v    -19.256668 103.064171 172.187728
v    -23.681037 95.481398 172.090186
v    49.719840 179.145791 182.637627
v    57.097333 185.561247 185.758831
v    57.951263 186.312476 185.745883
v    67.637033 192.781725 185.616471
v    55.903568 173.564797 182.637627
v    61.531480 181.559301 185.758831
v    62.191507 182.485533 185.745883
v    67.637033 192.781725 185.616471
v    -25.912293 127.067957 189.144345
v    -33.021909 126.559145 191.419871
v    -41.392551 127.124094 194.027474
v    -45.087595 127.329205 193.986357
v    -27.410620 134.764595 189.144345
v    -34.191908 132.569223 191.419871
v    -41.739334 128.905456 194.027474
v    -45.087595 127.329205 193.986357
v    54.517449 173.147129 193.453428
v    57.216493 174.873164 194.476215
v    68.605820 180.098251 198.370889
v    59.103627 167.587910 193.453428
v    61.311207 169.909682 194.476215
v    68.605820 180.098251 198.370889
v    -21.968167 104.449197 198.878174
v    -33.619645 99.735374 202.784720
v    -25.843711 109.610186 198.878174
v    -33.619645 99.735374 202.784720
v    59.365855 170.346191 198.764931
v    67.675522 173.392068 201.515700
v    61.973034 166.623792 198.764931
v    67.675522 173.392068 201.515700
v    -30.055650 103.005114 203.929105
v    -33.865740 101.570895 205.194443
v    -31.269758 104.706919 203.929105
v    -33.865740 101.570895 205.194443
mtllib usm_26_Beer_2018-09-04_3.mtl
usemtl APPID_1541768128_1985966904688 
o vid_3 
f 3 2 1
f 4 5 6
f 1 6 5
f 1 5 3
f 3 5 4
f 4 2 3
f 2 4 6
f 6 1 2
usemtl APPID_1541771936_1985966910320 
o vid_4 
f 7 10 11
f 7 11 8
f 8 11 12
f 8 12 9
usemtl APPID_1541768128_1985966904688 
o vid_5 
f 15 14 13
f 16 17 18
f 13 18 17
f 13 17 15
f 15 17 16
f 16 14 15
f 14 16 18
f 18 13 14
usemtl APPID_1541771936_1985966910320 
o vid_6 
f 19 21 22
f 19 22 20
f 19 21 22
f 19 22 20
usemtl APPID_1541768128_1985966904688 
o vid_7 
f 25 24 23
f 26 27 28
f 23 28 27
f 23 27 25
f 25 27 26
f 26 24 25
f 24 26 28
f 28 23 24
usemtl APPID_1541771936_1985966910320 
o vid_8 
f 29 32 33
f 29 33 30
f 30 33 34
f 30 34 31
usemtl APPID_1541768128_1985966904688 
o vid_9 
f 37 36 35
f 38 39 40
f 35 40 39
f 35 39 37
f 37 39 38
f 38 36 37
f 36 38 40
f 40 35 36
usemtl APPID_1541771936_1985966910320 
o vid_10 
f 41 44 45
f 41 45 42
f 42 45 46
f 42 46 43
usemtl APPID_1541768128_1985966904688 
o vid_11 
f 49 48 47
f 50 51 52
f 47 52 51
f 47 51 49
f 49 51 50
f 50 48 49
f 48 50 52
f 52 47 48
usemtl APPID_1541771936_1985966910320 
o vid_12 
f 53 55 56
f 53 56 54
f 53 55 56
f 53 56 54
usemtl APPID_1541768128_1985966904688 
o vid_13 
f 59 58 57
f 60 61 62
f 57 62 61
f 57 61 59
f 59 61 60
f 60 58 59
f 58 60 62
f 62 57 58
usemtl APPID_1541771936_1985966910320 
o vid_14 
f 63 65 66
f 63 66 64
f 63 65 66
f 63 66 64
usemtl APPID_1541768128_1985966904688 
o vid_15 
f 69 68 67
f 70 71 72
f 67 72 71
f 67 71 69
f 69 71 70
f 70 68 69
f 68 70 72
f 72 67 68
usemtl APPID_1541771936_1985966910320 
o vid_16 
f 73 75 76
f 73 76 74
f 73 75 76
f 73 76 74
usemtl APPID_1541768128_1985966904688 
o vid_17 
f 79 78 77
f 80 81 82
f 77 82 81
f 77 81 79
f 79 81 80
f 80 78 79
f 78 80 82
f 82 77 78
usemtl APPID_1541771936_1985966910320 
o vid_18 
f 83 85 86
f 83 86 84
f 83 85 86
f 83 86 84
usemtl APPID_1541768128_1985966904688 
o vid_19 
f 89 88 87
f 90 91 92
f 87 92 91
f 87 91 89
f 89 91 90
f 90 88 89
f 88 90 92
f 92 87 88
usemtl APPID_1541771936_1985966910320 
o vid_20 
f 93 95 96
f 93 96 94
f 93 95 96
f 93 96 94
usemtl APPID_1541768128_1985966904688 
o vid_21 
f 99 98 97
f 100 101 102
f 97 102 101
f 97 101 99
f 99 101 100
f 100 98 99
f 98 100 102
f 102 97 98
usemtl APPID_1541771936_1985966910320 
o vid_22 
f 103 106 107
f 103 107 104
f 104 107 108
f 104 108 105
usemtl APPID_1541768128_1985966904688 
o vid_23 
f 111 110 109
f 112 113 114
f 109 114 113
f 109 113 111
f 111 113 112
f 112 110 111
f 110 112 114
f 114 109 110
usemtl APPID_1541771936_1985966910320 
o vid_24 
f 115 120 121
f 116 121 122
f 117 122 123
f 115 121 116
f 116 122 117
f 117 123 118
f 118 123 124
f 118 124 119
usemtl APPID_1541768128_1985966904688 
o vid_25 
f 127 126 125
f 128 129 130
f 125 130 129
f 125 129 127
f 127 129 128
f 128 126 127
f 126 128 130
f 130 125 126
usemtl APPID_1541771936_1985966910320 
o vid_26 
f 131 136 137
f 132 137 138
f 133 138 139
f 131 137 132
f 132 138 133
f 133 139 134
f 134 139 140
f 134 140 135
usemtl APPID_1541768128_1985966904688 
o vid_27 
f 143 142 141
f 144 145 146
f 141 146 145
f 141 145 143
f 143 145 144
f 144 142 143
f 142 144 146
f 146 141 142
usemtl APPID_1541771936_1985966910320 
o vid_28 
f 147 152 153
f 148 153 154
f 149 154 155
f 147 153 148
f 148 154 149
f 149 155 150
f 150 155 156
f 150 156 151
usemtl APPID_1541768128_1985966904688 
o vid_29 
f 159 158 157
f 160 161 162
f 157 162 161
f 157 161 159
f 159 161 160
f 160 158 159
f 158 160 162
f 162 157 158
usemtl APPID_1541771936_1985966910320 
o vid_30 
f 163 168 169
f 164 169 170
f 165 170 171
f 163 169 164
f 164 170 165
f 165 171 166
f 166 171 172
f 166 172 167
usemtl APPID_1541768128_1985966904688 
o vid_31 
f 175 174 173
f 176 177 178
f 173 178 177
f 173 177 175
f 175 177 176
f 176 174 175
f 174 176 178
f 178 173 174
usemtl APPID_1541771936_1985966910320 
o vid_32 
f 179 185 186
f 180 186 187
f 181 187 188
f 182 188 189
f 179 186 180
f 180 187 181
f 181 188 182
f 182 189 183
f 183 189 190
f 183 190 184
usemtl APPID_1541768128_1985966904688 
o vid_33 
f 193 192 191
f 194 195 196
f 191 196 195
f 191 195 193
f 193 195 194
f 194 192 193
f 192 194 196
f 196 191 192
usemtl APPID_1541771936_1985966910320 
o vid_34 
f 197 203 204
f 198 204 205
f 199 205 206
f 200 206 207
f 197 204 198
f 198 205 199
f 199 206 200
f 200 207 201
f 201 207 208
f 201 208 202
usemtl APPID_1541768128_1985966904688 
o vid_35 
f 211 210 209
f 212 213 214
f 209 214 213
f 209 213 211
f 211 213 212
f 212 210 211
f 210 212 214
f 214 209 210
usemtl APPID_1541771936_1985966910320 
o vid_36 
f 215 220 221
f 216 221 222
f 217 222 223
f 215 221 216
f 216 222 217
f 217 223 218
f 218 223 224
f 218 224 219
usemtl APPID_1541768128_1985966904688 
o vid_37 
f 227 226 225
f 228 229 230
f 225 230 229
f 225 229 227
f 227 229 228
f 228 226 227
f 226 228 230
f 230 225 226
usemtl APPID_1541771936_1985966910320 
o vid_38 
f 231 237 238
f 232 238 239
f 233 239 240
f 234 240 241
f 231 238 232
f 232 239 233
f 233 240 234
f 234 241 235
f 235 241 242
f 235 242 236
usemtl APPID_1541768128_1985966904688 
o vid_39 
f 245 244 243
f 246 247 248
f 243 248 247
f 243 247 245
f 245 247 246
f 246 244 245
f 244 246 248
f 248 243 244
usemtl APPID_1541771936_1985966910320 
o vid_40 
f 249 255 256
f 250 256 257
f 251 257 258
f 252 258 259
f 249 256 250
f 250 257 251
f 251 258 252
f 252 259 253
f 253 259 260
f 253 260 254
usemtl APPID_1541768128_1985966904688 
o vid_41 
f 263 262 261
f 264 265 266
f 261 266 265
f 261 265 263
f 263 265 264
f 264 262 263
f 262 264 266
f 266 261 262
usemtl APPID_1541771936_1985966910320 
o vid_42 
f 267 273 274
f 268 274 275
f 269 275 276
f 270 276 277
f 267 274 268
f 268 275 269
f 269 276 270
f 270 277 271
f 271 277 278
f 271 278 272
usemtl APPID_1541775184_1985966908272 
o vid_10000004 
f 279 284 285
f 280 285 286
f 281 286 287
f 279 285 280
f 280 286 281
f 281 287 282
f 282 287 288
usemtl APPID_1541775184_1985966908272 
o vid_10000006 
f 289 295 296
f 290 296 297
f 291 297 298
f 292 298 299
f 289 296 290
f 290 297 291
f 291 298 292
f 292 299 293
f 293 299 300
usemtl APPID_1541775184_1985966908272 
o vid_10000008 
f 301 308 309
f 302 309 310
f 303 310 311
f 304 311 312
f 305 312 313
f 301 309 302
f 302 310 303
f 303 311 304
f 304 312 305
f 305 313 306
f 306 313 314
usemtl APPID_1541775184_1985966908272 
o vid_10000010 
f 315 321 322
f 316 322 323
f 317 323 324
f 318 324 325
f 315 322 316
f 316 323 317
f 317 324 318
f 318 325 319
f 319 325 326
usemtl APPID_1541775184_1985966908272 
o vid_10000012 
f 327 333 334
f 328 334 335
f 329 335 336
f 330 336 337
f 327 334 328
f 328 335 329
f 329 336 330
f 330 337 331
f 331 337 338
usemtl APPID_1541775184_1985966908272 
o vid_10000014 
f 339 345 346
f 340 346 347
f 341 347 348
f 342 348 349
f 339 346 340
f 340 347 341
f 341 348 342
f 342 349 343
f 343 349 350
usemtl APPID_1541775184_1985966908272 
o vid_10000016 
f 351 358 359
f 352 359 360
f 353 360 361
f 354 361 362
f 355 362 363
f 351 359 352
f 352 360 353
f 353 361 354
f 354 362 355
f 355 363 356
f 356 363 364
usemtl APPID_1541775184_1985966908272 
o vid_10000018 
f 365 372 373
f 366 373 374
f 367 374 375
f 368 375 376
f 369 376 377
f 365 373 366
f 366 374 367
f 367 375 368
f 368 376 369
f 369 377 370
f 370 377 378
usemtl APPID_1541775184_1985966908272 
o vid_10000020 
f 379 387 388
f 380 388 389
f 381 389 390
f 382 390 391
f 383 391 392
f 384 392 393
f 379 388 380
f 380 389 381
f 381 390 382
f 382 391 383
f 383 392 384
f 384 393 385
f 385 393 394
usemtl APPID_1541775184_1985966908272 
o vid_10000022 
f 395 403 404
f 396 404 405
f 397 405 406
f 398 406 407
f 399 407 408
f 400 408 409
f 395 404 396
f 396 405 397
f 397 406 398
f 398 407 399
f 399 408 400
f 400 409 401
f 401 409 410
usemtl APPID_1541775184_1985966908272 
o vid_10000024 
f 411 416 417
f 412 417 418
f 413 418 419
f 411 417 412
f 412 418 413
f 413 419 414
f 414 419 420
usemtl APPID_1541775184_1985966908272 
o vid_10000026 
f 421 426 427
f 422 427 428
f 423 428 429
f 421 427 422
f 422 428 423
f 423 429 424
f 424 429 430
usemtl APPID_1541775184_1985966908272 
o vid_10000028 
f 431 436 437
f 432 437 438
f 433 438 439
f 431 437 432
f 432 438 433
f 433 439 434
f 434 439 440
usemtl APPID_1541775184_1985966908272 
o vid_10000030 
f 441 446 447
f 442 447 448
f 443 448 449
f 441 447 442
f 442 448 443
f 443 449 444
f 444 449 450
usemtl APPID_1541775184_1985966908272 
o vid_10000032 
f 451 455 456
f 452 456 457
f 451 456 452
f 452 457 453
f 453 457 458
usemtl APPID_1541775184_1985966908272 
o vid_10000034 
f 459 463 464
f 460 464 465
f 459 464 460
f 460 465 461
f 461 465 466
usemtl APPID_1541775184_1985966908272 
o vid_10000036 
f 467 470 471
f 467 471 468
f 468 471 472
usemtl APPID_1541775184_1985966908272 
o vid_10000038 
f 473 475 476
f 473 476 474
f 473 475 476
usemtl APPID_1541775184_1985966908272 
o vid_10000040 
f 477 479 480
f 477 480 478
f 477 479 480
usemtl APPID_1541775184_1985966908272 
o vid_10000042 
f 481 483 484
f 481 484 482
f 481 483 484
