# File generated by PlantGL - Fri Sep  4 14:43:35 2026
v    18.908405 259.468248 0.000000
v    21.006308 259.320527 0.000000
v    20.085287 261.211225 0.000000
v    21.091595 260.531752 0.316043
v    18.993692 260.679473 0.316043
v    19.914713 258.788775 0.316043
v    20.928632 260.839675 0.153842
v    21.418233 261.017191 0.637011
v    22.099700 261.273802 1.127166
v    22.809009 261.520364 1.366960
v    23.331302 261.622786 1.532387
v    21.233603 260.213621 0.153842
v    21.675184 260.489714 0.637011
v    22.297317 260.868129 1.127166
v    22.928699 261.274661 1.366960
v    23.331302 261.622786 1.532387
v    20.619111 260.495941 0.316043
v    19.260947 260.288195 0.316043
v    20.119942 259.215864 0.316043
v    19.380889 259.504059 0.379000
v    20.739053 259.711805 0.379000
v    19.880058 260.784136 0.379000
v    19.571170 259.164471 -0.064541
v    19.257111 259.002982 0.775280
v    18.766274 258.764820 1.675633
v    18.609585 258.729304 1.912838
v    18.254041 258.601394 2.239453
v    19.091019 259.763871 -0.064541
v    18.864877 259.492631 0.775280
v    18.525327 259.065608 1.675633
v    18.456468 258.920448 1.912838
v    18.254041 258.601394 2.239453
mtllib usm_17_2.5D_2018-07-24_6.mtl
usemtl APPID_1925995568_2183767549408 
o vid_3 
f 3 2 1
f 4 5 6
f 1 6 5
f 1 5 3
f 3 5 4
f 4 2 3
f 2 4 6
f 6 1 2
usemtl APPID_1925993888_2183767554144 
o vid_4 
f 7 12 13
f 8 13 14
f 9 14 15
f 7 13 8
f 8 14 9
f 9 15 10
f 10 15 16
usemtl APPID_1925995568_2183767549408 
o vid_5 
f 19 18 17
f 20 21 22
f 17 22 21
f 17 21 19
f 19 21 20
f 20 18 19
f 18 20 22
f 22 17 18
usemtl APPID_1925993888_2183767554144 
o vid_6 
f 23 28 29
f 24 29 30
f 25 30 31
f 23 29 24
f 24 30 25
f 25 31 26
f 26 31 32
