# File generated by PlantGL - Fri Sep  4 14:42:47 2026
v    18.522840 179.280427 0.000000
v    21.361749 179.080528 0.000000
v    20.115411 181.639045 0.000000
v    21.477160 180.719573 0.362700
v    18.638251 180.919472 0.362700
v    19.884589 178.360955 0.362700
v    21.298302 181.061288 0.207595
v    21.607216 181.179065 0.514809
v    21.764094 181.235944 0.669625
v    22.415747 181.481329 1.138336
v    23.117596 181.755303 1.379835
v    23.761048 181.977484 1.597156
v    24.281618 182.085716 1.599690
v    21.635979 180.368096 0.207595
v    21.919140 180.538739 0.514809
v    22.060631 180.627204 0.669625
v    22.655546 180.989064 1.138336
v    23.303913 181.372825 1.379835
v    23.875502 181.742530 1.597156
v    24.281618 182.085716 1.599690
v    20.941505 180.754195 0.362700
v    18.876095 180.438269 0.362700
v    20.182400 178.807535 0.362700
v    19.058495 179.245805 0.589630
v    21.123905 179.561731 0.589630
v    19.817600 181.192465 0.589630
v    19.418378 178.822646 0.362511
v    19.102009 178.612498 0.715445
v    18.808326 178.424292 1.039061
v    17.956689 177.863624 1.725393
v    17.155013 177.321908 2.035523
v    16.307607 176.797028 2.353746
v    15.604283 176.478797 2.402581
v    18.724087 179.689369 0.362511
v    18.449954 179.426494 0.715445
v    18.202187 179.180970 1.039061
v    17.469158 178.472236 1.725393
v    16.765530 177.808123 2.035523
v    16.068349 177.095707 2.353746
v    15.604283 176.478797 2.402581
v    19.255847 179.710870 0.589630
v    20.622470 179.500110 0.589630
v    20.121682 180.789020 0.589630
v    20.744153 180.289130 0.707000
v    19.377530 180.499890 0.707000
v    19.878318 179.210980 0.707000
v    20.617251 180.801484 0.070054
v    21.070580 180.893397 0.976022
v    21.256179 180.915565 1.335806
v    21.889628 181.027475 2.215137
v    22.314133 181.011036 2.758271
v    22.654452 181.031350 3.012811
v    20.996456 179.825499 0.070054
v    21.392923 180.063763 0.976022
v    21.544802 180.172717 1.335806
v    22.087641 180.517836 2.215137
v    22.389691 180.816568 2.758271
v    22.654452 181.031350 3.012811
mtllib usm_21_2.5D_2018-07-27_4.mtl
usemtl APPID_4263959696_2499637592320 
o vid_3 
f 3 2 1
f 4 5 6
f 1 6 5
f 1 5 3
f 3 5 4
f 4 2 3
f 2 4 6
f 6 1 2
usemtl APPID_4263959248_2499637592192 
o vid_4 
f 7 14 15
f 8 15 16
f 9 16 17
f 10 17 18
f 11 18 19
f 7 15 8
f 8 16 9
f 9 17 10
f 10 18 11
f 11 19 12
f 12 19 20
usemtl APPID_4263959696_2499637592320 
o vid_5 
f 23 22 21
f 24 25 26
f 21 26 25
f 21 25 23
f 23 25 24
f 24 22 23
f 22 24 26
f 26 21 22
usemtl APPID_4263959248_2499637592192 
o vid_6 
f 27 34 35
f 28 35 36
f 29 36 37
f 30 37 38
f 31 38 39
f 27 35 28
f 28 36 29
f 29 37 30
f 30 38 31
f 31 39 32
f 32 39 40
usemtl APPID_4263959696_2499637592320 
o vid_7 
f 43 42 41
f 44 45 46
f 41 46 45
f 41 45 43
f 43 45 44
f 44 42 43
f 42 44 46
f 46 41 42
usemtl APPID_4263959248_2499637592192 
o vid_8 
f 47 53 54
f 48 54 55
f 49 55 56
f 50 56 57
f 47 54 48
f 48 55 49
f 49 56 50
f 50 57 51
f 51 57 58
