# File generated by PlantGL - Fri Sep  4 14:44:23 2026
v    377.752484 18.905161 0.000000
v    382.071916 18.601013 0.000000
v    380.175600 22.493825 0.000000
v    382.247516 21.094839 0.362700
v    377.928084 21.398987 0.362700
v    379.824400 17.506175 0.362700
v    382.060397 21.451195 0.193466
v    382.204775 21.506240 0.337050
v    382.363059 21.563630 0.493254
v    382.412771 20.727832 0.193466
v    382.545112 20.807585 0.337050
v    382.687872 20.896844 0.493254
v    381.879284 21.505407 0.362700
v    377.756638 20.874804 0.362700
v    380.364078 17.619789 0.362700
v    378.120716 18.494593 0.589630
v    382.243362 19.125196 0.589630
v    379.635922 22.380211 0.589630
v    378.485514 18.066454 0.352461
v    378.320071 17.956558 0.537026
v    378.147970 17.846268 0.726668
v    377.782520 18.944042 0.352461
v    377.639164 18.806573 0.537026
v    377.493970 18.662693 0.726668
v    377.841416 19.161313 0.589630
v    381.805616 18.549955 0.589630
v    380.352968 22.288732 0.589630
v    382.158584 20.838687 1.053978
v    378.194384 21.450045 1.053978
v    379.647032 17.711268 1.053978
v    381.856811 21.550693 0.727951
v    382.120182 21.626863 0.982718
v    382.369261 21.694490 1.222170
v    382.416683 20.109712 0.727951
v    382.662393 20.231338 0.982718
v    382.891792 20.349618 1.222170
v    382.163962 20.511898 1.053978
v    378.474702 21.618097 1.053978
v    379.361335 17.870005 1.053978
v    377.836038 19.488102 1.829186
v    381.525298 18.381903 1.829186
v    380.638665 22.129995 1.829186
v    378.111522 18.460766 1.389569
v    377.513091 18.374461 1.951413
v    376.713645 18.272532 2.699115
v    375.369708 18.084347 3.612573
v    377.622036 20.529982 1.389569
v    377.048364 20.339020 1.951413
v    376.287979 20.071962 2.699115
v    375.002167 19.638064 3.612573
v    378.595695 18.396392 1.829186
v    382.090917 19.585640 1.829186
v    379.313387 22.017967 1.829186
v    381.404305 21.603608 2.769464
v    377.909083 20.414360 2.769464
v    380.686613 17.982033 2.769464
v    380.300588 22.514612 2.188004
v    381.076622 23.255906 3.185269
v    381.658240 23.793507 3.920075
v    383.553232 25.588826 5.677190
v    384.917489 26.912839 6.286558
v    382.452969 20.629738 2.188004
v    383.085392 21.496794 3.185269
v    383.541555 22.144258 3.920075
v    385.071154 24.259557 5.677190
v    386.203592 25.786578 6.286558
v    381.718982 21.097521 2.769464
v    378.190028 20.939922 2.769464
v    380.090990 17.962557 2.769464
v    378.281018 18.902479 5.235228
v    381.809972 19.060078 5.235228
v    379.909010 22.037443 5.235228
v    379.288102 17.425873 4.480850
v    378.745155 17.143779 5.049418
v    377.126150 16.336076 6.728017
v    374.114485 14.787023 9.007676
v    372.021509 13.678451 9.766838
v    371.017839 13.196832 10.122237
v    377.365311 20.437427 4.480850
v    376.880932 20.063602 5.049418
v    375.466929 18.934816 6.728017
v    372.794364 16.854650 9.007676
v    370.907976 15.422512 9.766838
v    370.048719 14.714706 10.122237
v    378.420020 18.861621 5.235228
v    381.775855 19.200887 5.235228
v    379.804125 21.937492 5.235228
v    381.579980 21.138379 9.070287
v    378.224145 20.799113 9.070287
v    380.195875 18.062508 9.070287
v    380.066676 23.120717 8.110260
v    382.713676 24.690541 10.970020
v    386.428093 26.876030 13.871128
v    391.756602 30.093475 15.866301
v    394.212573 31.446458 16.761465
v    394.712142 31.725419 16.754951
v    382.981344 19.075389 8.110260
v    385.308347 21.089345 10.970020
v    388.557242 23.920939 13.871128
v    393.295966 27.956960 15.866301
v    395.356808 29.858350 16.761465
v    395.779561 30.243925 16.754951
v    381.554633 21.012481 9.070287
v    378.345849 20.840111 9.070287
v    380.099518 18.147408 9.070287
v    378.445367 18.987519 15.537192
v    381.654151 19.159889 15.537192
v    379.900482 21.852592 15.537192
v    380.312240 16.278786 14.338792
v    376.919415 14.476883 17.908626
v    374.735616 13.287782 19.584473
v    372.177325 11.942550 21.530076
v    363.071696 7.013748 24.848881
v    358.278677 4.631815 25.087460
v    376.722812 21.790242 14.338792
v    373.702900 19.415743 17.908626
v    371.732327 17.899240 19.584473
v    369.467531 16.103356 21.530076
v    361.277779 9.768252 24.848881
v    357.161202 6.347662 25.087460
v    378.458123 19.144816 15.537192
v    381.511550 19.092287 15.537192
v    380.030327 21.762897 15.537192
v    381.541877 20.855184 23.570456
v    378.488450 20.907713 23.570456
v    379.969673 18.237103 23.570456
v    379.552407 24.224759 22.103067
v    383.852572 26.131407 26.474172
v    385.289494 26.786502 27.538501
v    389.874571 28.796962 30.908475
v    399.889050 33.332546 34.432320
v    402.483792 34.385727 35.326317
v    406.015545 35.842906 35.282821
v    407.218944 36.161332 35.268990
v    383.346930 17.383325 22.103067
v    387.241270 20.021665 26.474172
v    388.557836 20.893761 27.538501
v    392.691099 23.718828 30.908475
v    401.841288 29.812708 34.432320
v    404.108612 31.456215 35.326317
v    407.214793 33.680690 35.282821
v    408.122108 34.532949 35.268990
v    381.614895 20.429572 23.570456
v    378.820532 21.183754 23.570456
v    379.564573 18.386674 23.570456
v    378.385105 19.570428 36.455601
v    381.179468 18.816246 36.455601
v    380.435427 21.613326 36.455601
v    379.725193 15.025267 34.693168
v    374.157819 14.064251 39.943160
v    371.806857 13.633194 41.554038
v    366.364384 12.716765 45.269059
v    352.812776 10.266836 49.683213
v    350.045792 9.879271 50.575186
v    344.913730 9.130366 50.516140
v    341.835008 9.092605 50.481931
v    377.289791 24.180700 34.693168
v    371.980752 22.248523 39.943160
v    369.726336 21.454521 41.554038
v    364.547843 19.545709 45.269059
v    351.570044 14.938651 49.683213
v    348.976199 13.900203 50.575186
v    344.150327 12.000236 50.516140
v    341.459747 10.503327 50.481931
v    378.541706 19.394647 36.455601
v    381.253398 19.039757 36.455601
v    380.204896 21.565597 36.455601
v    381.458294 20.605353 56.069611
v    378.746602 20.960243 56.069611
v    379.795104 18.434403 56.069611
v    379.077816 25.950758 53.993242
v    385.427868 27.945785 60.178398
v    391.360028 29.877580 64.383111
v    394.297444 30.787190 66.452981
v    412.856674 36.779978 72.704271
v    422.708102 39.622631 72.587506
v    426.053269 40.113648 72.549940
v    427.689336 40.347243 72.257189
v    383.563172 15.145544 53.993242
v    389.459314 18.234039 60.178398
v    395.015635 21.071232 64.383111
v    397.733696 22.509268 66.452981
v    415.080974 31.421645 72.704271
v    424.049450 36.391329 72.587506
v    426.758949 38.413667 72.549940
v    428.079480 39.407387 72.257189
v    381.119012 20.920749 56.069611
v    378.643102 20.508718 56.069611
v    380.237886 18.570532 56.069611
v    378.880988 19.079251 79.422298
v    381.356898 19.491282 79.422298
v    379.762114 21.429468 79.422298
v    383.129223 14.187617 77.022797
v    376.778420 9.847933 84.170509
v    373.825029 7.784381 86.598724
v    367.892796 3.766396 91.421567
v    352.167709 -7.162743 97.559794
v    349.299748 -8.991643 98.645706
v    343.013151 -13.051570 98.560507
v    336.482046 -16.132532 98.480273
v    374.899038 24.189990 77.022797
v    369.417557 18.793795 84.170509
v    366.823871 16.293083 86.598724
v    361.738674 11.245671 91.421567
v    347.985795 -2.080347 97.559794
v    345.638821 -4.542417 98.645706
v    340.444225 -9.929483 98.560507
v    336.163182 -15.745008 98.480273
v    379.211342 19.174845 79.422298
v    381.108934 19.729580 79.422298
v    379.679723 21.095575 79.422298
v    380.788658 20.825155 104.046430
v    378.891066 20.270420 104.046430
v    380.320277 18.904425 104.046430
v    375.597044 25.516778 101.326474
v    381.938742 31.067171 109.157797
v    391.383281 39.260151 117.648209
v    403.813196 50.314200 122.980006
v    410.731543 55.991514 125.837136
v    413.144511 57.994932 125.801431
v    421.061333 62.961567 125.697593
v    385.710187 15.850949 101.326474
v    390.968209 22.437087 109.157797
v    398.725841 32.242359 117.648209
v    409.206655 45.159300 122.980006
v    414.565398 52.327234 125.837136
v    416.457681 54.828306 125.801431
v    421.061333 62.961567 125.697593
v    380.604072 20.615655 104.046430
v    379.164791 20.215314 104.046430
v    380.231137 19.169031 104.046430
v    379.395928 19.384345 123.069539
v    380.835209 19.784686 123.069539
v    379.768863 20.830969 123.069539
v    384.596324 14.586245 120.045222
v    377.120675 8.392853 129.054156
v    366.751307 -0.371828 138.193345
v    360.566866 -5.728115 140.815791
v    350.196613 -14.012926 145.053244
v    343.982721 -17.697595 147.298606
v    341.568536 -19.168370 147.267197
v    374.499933 24.492684 120.045222
v    368.449627 16.900766 129.054156
v    359.883449 6.366820 138.193345
v    354.645575 0.081774 140.815791
v    346.559197 -10.443944 145.053244
v    342.993199 -16.726689 147.298606
v    341.568536 -19.168370 147.267197
v    379.589701 19.545390 123.069539
v    380.598854 19.871976 123.069539
v    379.811445 20.582635 123.069539
v    380.410299 20.454610 140.912998
v    379.401146 20.128024 140.912998
v    380.188555 19.417365 140.912998
v    374.245246 25.699470 137.614493
v    378.509858 29.652748 143.018170
v    382.058052 32.835225 147.440188
v    392.959264 42.857590 157.407947
v    403.471743 52.758609 162.036766
v    414.395734 62.258093 166.658392
v    423.749105 68.473910 167.238243
v    386.257744 14.857843 137.614493
v    389.754496 19.504138 143.018170
v    392.557697 23.358992 147.440188
v    401.413521 35.227379 157.407947
v    410.188362 46.696666 162.036766
v    418.521715 58.534276 166.658392
v    423.749105 68.473910 167.238243
v    380.383832 20.074722 140.912998
v    379.743373 20.295048 140.912998
v    379.872795 19.630231 140.912998
v    379.616168 19.925278 146.147000
v    380.256627 19.704952 146.147000
v    380.127205 20.369769 146.147000
v    380.086964 14.108101 139.197415
v    374.170360 13.934549 150.141306
v    372.715443 14.005107 152.791911
v    364.652222 13.983377 163.284795
v    360.882086 14.768103 167.989707
v    355.987465 15.325409 171.494668
v    377.870388 25.494251 139.197415
v    372.320755 23.435636 150.141306
v    370.998556 22.824448 152.791911
v    363.516020 19.819840 163.284795
v    360.315582 17.678132 167.989707
v    355.987465 15.325409 171.494668
v    382.363059 21.563630 0.493254
v    382.570109 21.638700 0.697584
v    383.281124 21.906438 1.208991
v    383.796985 22.107810 1.386493
v    384.499051 22.350230 1.623611
v    384.798638 22.408979 1.718499
v    385.054932 22.462423 1.715590
v    382.687872 20.896844 0.493254
v    382.874614 21.013603 0.697584
v    383.523722 21.408425 1.208991
v    384.000275 21.690491 1.386493
v    384.623931 22.093873 1.623611
v    384.854863 22.293558 1.718499
v    385.054932 22.462423 1.715590
v    378.147970 17.846268 0.726668
v    377.846425 17.653025 1.058948
v    376.957104 17.067547 1.775649
v    376.333399 16.646092 2.016930
v    375.448496 16.097986 2.349234
v    375.035087 15.915485 2.489690
v    374.724145 15.773759 2.485893
v    377.493970 18.662693 0.726668
v    377.239570 18.410596 1.058948
v    376.474106 17.670502 1.775649
v    375.926681 17.153820 2.016930
v    375.198651 16.409881 2.349234
v    374.930320 16.046272 2.489690
v    374.724145 15.773759 2.485893
v    382.369261 21.694490 1.222170
v    382.865398 21.829194 1.699131
v    384.273096 22.230053 2.684354
v    385.266241 22.525827 3.016507
v    386.652730 22.879503 3.473313
v    387.268610 22.948103 3.665919
v    387.736397 23.005868 3.660682
v    382.891792 20.349618 1.222170
v    383.348727 20.585217 1.699131
v    384.657798 21.239920 2.684354
v    385.590114 21.692256 3.016507
v    386.851683 22.367445 3.473313
v    387.352320 22.732653 3.665919
v    387.736397 23.005868 3.660682
v    375.369708 18.084347 3.612573
v    374.759103 17.998848 4.027595
v    373.075562 17.742419 4.573450
v    371.158118 17.527806 5.189409
v    370.637953 17.542048 5.351143
v    369.672424 17.556952 5.340414
v    375.002167 19.638064 3.612573
v    374.417971 19.440927 4.027595
v    372.797972 18.915884 4.573450
v    370.987597 18.248659 5.189409
v    370.528942 18.002872 5.351143
v    369.672424 17.556952 5.340414
v    384.917489 26.912839 6.286558
v    385.424945 27.405324 6.513221
v    387.325332 29.108540 7.327921
v    387.591966 29.287803 7.427782
v    388.959620 30.231195 7.409322
v    386.203592 25.786578 6.286558
v    386.624818 26.354576 6.513221
v    388.062407 28.463072 7.327921
v    388.204923 28.751027 7.427782
v    388.959620 30.231195 7.409322
v    371.017839 13.196832 10.122237
v    369.036528 12.246083 10.823818
v    367.641594 11.801446 11.278871
v    366.636551 11.467819 11.267105
v    370.048719 14.714706 10.122237
v    368.352491 13.317450 10.823818
v    367.362134 12.239148 11.278871
v    366.636551 11.467819 11.267105
v    394.712142 31.725419 16.754951
v    395.504251 32.167735 16.744622
v    398.571698 33.380952 16.707972
v    395.779561 30.243925 16.754951
v    396.449874 30.855286 16.744622
v    398.571698 33.380952 16.707972
v    358.278677 4.631815 25.087460
v    355.013202 3.497706 25.049007
v    354.282322 3.250933 24.912359
v    357.161202 6.347662 25.087460
v    354.803552 3.819616 25.049007
v    354.282322 3.250933 24.912359
v    407.218944 36.161332 35.268990
v    410.889746 37.132644 35.226802
v    408.122108 34.532949 35.268990
v    410.889746 37.132644 35.226802
v    341.835008 9.092605 50.481931
v    338.858461 9.056097 50.448857
v    341.459747 10.503327 50.481931
v    338.858461 9.056097 50.448857
v    427.689336 40.347243 72.257189
v    429.712251 40.636071 71.895218
v    428.079480 39.407387 72.257189
v    429.712251 40.636071 71.895218
v    336.482046 -16.132532 98.480273
v    335.556501 -16.569146 98.468903
v    336.163182 -15.745008 98.480273
v    335.556501 -16.569146 98.468903
mtllib usm_29_2.5D_2018-09-02_9.mtl
usemtl APPID_2417322592_1742050182912 
o vid_3 
f 3 2 1
f 4 5 6
f 1 6 5
f 1 5 3
f 3 5 4
f 4 2 3
f 2 4 6
f 6 1 2
usemtl APPID_2417329424_1742050187776 
o vid_4 
f 7 10 11
f 7 11 8
f 8 11 12
f 8 12 9
usemtl APPID_2417322592_1742050182912 
o vid_5 
f 15 14 13
f 16 17 18
f 13 18 17
f 13 17 15
f 15 17 16
f 16 14 15
f 14 16 18
f 18 13 14
usemtl APPID_2417329424_1742050187776 
o vid_6 
f 19 22 23
f 19 23 20
f 20 23 24
f 20 24 21
usemtl APPID_2417322592_1742050182912 
o vid_7 
f 27 26 25
f 28 29 30
f 25 30 29
f 25 29 27
f 27 29 28
f 28 26 27
f 26 28 30
f 30 25 26
usemtl APPID_2417329424_1742050187776 
o vid_8 
f 31 34 35
f 31 35 32
f 32 35 36
f 32 36 33
usemtl APPID_2417322592_1742050182912 
o vid_9 
f 39 38 37
f 40 41 42
f 37 42 41
f 37 41 39
f 39 41 40
f 40 38 39
f 38 40 42
f 42 37 38
usemtl APPID_2417329424_1742050187776 
o vid_10 
f 43 47 48
f 44 48 49
f 43 48 44
f 44 49 45
f 45 49 50
f 45 50 46
usemtl APPID_2417322592_1742050182912 
o vid_11 
f 53 52 51
f 54 55 56
f 51 56 55
f 51 55 53
f 53 55 54
f 54 52 53
f 52 54 56
f 56 51 52
usemtl APPID_2417329424_1742050187776 
o vid_12 
f 57 62 63
f 58 63 64
f 59 64 65
f 57 63 58
f 58 64 59
f 59 65 60
f 60 65 66
f 60 66 61
usemtl APPID_2417322592_1742050182912 
o vid_13 
f 69 68 67
f 70 71 72
f 67 72 71
f 67 71 69
f 69 71 70
f 70 68 69
f 68 70 72
f 72 67 68
usemtl APPID_2417329424_1742050187776 
o vid_14 
f 73 79 80
f 74 80 81
f 75 81 82
f 76 82 83
f 73 80 74
f 74 81 75
f 75 82 76
f 76 83 77
f 77 83 84
f 77 84 78
usemtl APPID_2417322592_1742050182912 
o vid_15 
f 87 86 85
f 88 89 90
f 85 90 89
f 85 89 87
f 87 89 88
f 88 86 87
f 86 88 90
f 90 85 86
usemtl APPID_2417329424_1742050187776 
o vid_16 
f 91 97 98
f 92 98 99
f 93 99 100
f 94 100 101
f 91 98 92
f 92 99 93
f 93 100 94
f 94 101 95
f 95 101 102
f 95 102 96
usemtl APPID_2417322592_1742050182912 
o vid_17 
f 105 104 103
f 106 107 108
f 103 108 107
f 103 107 105
f 105 107 106
f 106 104 105
f 104 106 108
f 108 103 104
usemtl APPID_2417329424_1742050187776 
o vid_18 
f 109 115 116
f 110 116 117
f 111 117 118
f 112 118 119
f 109 116 110
f 110 117 111
f 111 118 112
f 112 119 113
f 113 119 120
f 113 120 114
usemtl APPID_2417322592_1742050182912 
o vid_19 
f 123 122 121
f 124 125 126
f 121 126 125
f 121 125 123
f 123 125 124
f 124 122 123
f 122 124 126
f 126 121 122
usemtl APPID_2417329424_1742050187776 
o vid_20 
f 127 135 136
f 128 136 137
f 129 137 138
f 130 138 139
f 131 139 140
f 132 140 141
f 127 136 128
f 128 137 129
f 129 138 130
f 130 139 131
f 131 140 132
f 132 141 133
f 133 141 142
f 133 142 134
usemtl APPID_2417322592_1742050182912 
o vid_21 
f 145 144 143
f 146 147 148
f 143 148 147
f 143 147 145
f 145 147 146
f 146 144 145
f 144 146 148
f 148 143 144
usemtl APPID_2417329424_1742050187776 
o vid_22 
f 149 157 158
f 150 158 159
f 151 159 160
f 152 160 161
f 153 161 162
f 154 162 163
f 149 158 150
f 150 159 151
f 151 160 152
f 152 161 153
f 153 162 154
f 154 163 155
f 155 163 164
f 155 164 156
usemtl APPID_2417322592_1742050182912 
o vid_23 
f 167 166 165
f 168 169 170
f 165 170 169
f 165 169 167
f 167 169 168
f 168 166 167
f 166 168 170
f 170 165 166
usemtl APPID_2417329424_1742050187776 
o vid_24 
f 171 179 180
f 172 180 181
f 173 181 182
f 174 182 183
f 175 183 184
f 176 184 185
f 171 180 172
f 172 181 173
f 173 182 174
f 174 183 175
f 175 184 176
f 176 185 177
f 177 185 186
f 177 186 178
usemtl APPID_2417322592_1742050182912 
o vid_25 
f 189 188 187
f 190 191 192
f 187 192 191
f 187 191 189
f 189 191 190
f 190 188 189
f 188 190 192
f 192 187 188
usemtl APPID_2417329424_1742050187776 
o vid_26 
f 193 201 202
f 194 202 203
f 195 203 204
f 196 204 205
f 197 205 206
f 198 206 207
f 193 202 194
f 194 203 195
f 195 204 196
f 196 205 197
f 197 206 198
f 198 207 199
f 199 207 208
f 199 208 200
usemtl APPID_2417322592_1742050182912 
o vid_27 
f 211 210 209
f 212 213 214
f 209 214 213
f 209 213 211
f 211 213 212
f 212 210 211
f 210 212 214
f 214 209 210
usemtl APPID_2417329424_1742050187776 
o vid_28 
f 215 222 223
f 216 223 224
f 217 224 225
f 218 225 226
f 219 226 227
f 215 223 216
f 216 224 217
f 217 225 218
f 218 226 219
f 219 227 220
f 220 227 228
usemtl APPID_2417322592_1742050182912 
o vid_29 
f 231 230 229
f 232 233 234
f 229 234 233
f 229 233 231
f 231 233 232
f 232 230 231
f 230 232 234
f 234 229 230
usemtl APPID_2417329424_1742050187776 
o vid_30 
f 235 242 243
f 236 243 244
f 237 244 245
f 238 245 246
f 239 246 247
f 235 243 236
f 236 244 237
f 237 245 238
f 238 246 239
f 239 247 240
f 240 247 248
usemtl APPID_2417322592_1742050182912 
o vid_31 
f 251 250 249
f 252 253 254
f 249 254 253
f 249 253 251
f 251 253 252
f 252 250 251
f 250 252 254
f 254 249 250
usemtl APPID_2417329424_1742050187776 
o vid_32 
f 255 262 263
f 256 263 264
f 257 264 265
f 258 265 266
f 259 266 267
f 255 263 256
f 256 264 257
f 257 265 258
f 258 266 259
f 259 267 260
f 260 267 268
usemtl APPID_2417322592_1742050182912 
o vid_33 
f 271 270 269
f 272 273 274
f 269 274 273
f 269 273 271
f 271 273 272
f 272 270 271
f 270 272 274
f 274 269 270
usemtl APPID_2417329424_1742050187776 
o vid_34 
f 275 281 282
f 276 282 283
f 277 283 284
f 278 284 285
f 275 282 276
f 276 283 277
f 277 284 278
f 278 285 279
f 279 285 286
usemtl APPID_2417328752_1742050181760 
o vid_10000004 
f 287 294 295
f 288 295 296
f 289 296 297
f 290 297 298
f 291 298 299
f 287 295 288
f 288 296 289
f 289 297 290
f 290 298 291
f 291 299 292
f 292 299 300
usemtl APPID_2417328752_1742050181760 
o vid_10000006 
f 301 308 309
f 302 309 310
f 303 310 311
f 304 311 312
f 305 312 313
f 301 309 302
f 302 310 303
f 303 311 304
f 304 312 305
f 305 313 306
f 306 313 314
usemtl APPID_2417328752_1742050181760 
o vid_10000008 
f 315 322 323
f 316 323 324
f 317 324 325
f 318 325 326
f 319 326 327
f 315 323 316
f 316 324 317
f 317 325 318
f 318 326 319
f 319 327 320
f 320 327 328
usemtl APPID_2417328752_1742050181760 
o vid_10000010 
f 329 335 336
f 330 336 337
f 331 337 338
f 332 338 339
f 329 336 330
f 330 337 331
f 331 338 332
f 332 339 333
f 333 339 340
usemtl APPID_2417328752_1742050181760 
o vid_10000012 
f 341 346 347
f 342 347 348
f 343 348 349
f 341 347 342
f 342 348 343
f 343 349 344
f 344 349 350
usemtl APPID_2417328752_1742050181760 
o vid_10000014 
f 351 355 356
f 352 356 357
f 351 356 352
f 352 357 353
f 353 357 358
usemtl APPID_2417328752_1742050181760 
o vid_10000016 
f 359 362 363
f 359 363 360
f 360 363 364
usemtl APPID_2417328752_1742050181760 
o vid_10000018 
f 365 368 369
f 365 369 366
f 366 369 370
usemtl APPID_2417328752_1742050181760 
o vid_10000020 
f 371 373 374
f 371 374 372
f 371 373 374
usemtl APPID_2417328752_1742050181760 
o vid_10000022 
f 375 377 378
f 375 378 376
f 375 377 378
usemtl APPID_2417328752_1742050181760 
o vid_10000024 
f 379 381 382
f 379 382 380
f 379 381 382
usemtl APPID_2417328752_1742050181760 
o vid_10000026 
f 383 385 386
f 383 386 384
f 383 385 386
