# File generated by PlantGL - Fri Sep  4 14:43:04 2026
v    18.581738 59.309118 0.000000
v    21.307452 59.117190 0.000000
v    20.110810 61.573692 0.000000
v    21.418262 60.690882 0.231332
v    18.692548 60.882810 0.231332
v    19.889190 58.426308 0.231332
v    20.595900 60.633445 -2.411551
v    21.613302 60.785892 -1.477834
v    20.866111 60.078748 -2.411551
v    21.613302 60.785892 -1.477834
v    20.951061 60.761850 0.231332
v    18.864688 60.442718 0.231332
v    20.184251 58.795432 0.231332
v    19.048939 59.238150 0.322458
v    21.135312 59.557282 0.322458
v    19.815749 61.204568 0.322458
v    19.893951 59.406030 -2.320426
v    18.659224 58.925967 -1.118046
v    19.397204 60.026148 -2.320426
v    18.659224 58.925967 -1.118046
v    19.177366 59.680377 0.322458
v    20.688119 59.447389 0.322458
v    20.134516 60.872234 0.322458
v    20.822634 60.319623 0.430941
v    19.311881 60.552611 0.430941
v    19.865484 59.127766 0.430941
v    19.949147 60.456934 -2.211943
v    21.427614 60.554679 -0.867135
v    20.270986 59.628596 -2.211943
v    21.427614 60.554679 -0.867135
v    20.554195 60.131098 0.430941
v    19.609368 60.414398 0.430941
v    19.836437 59.454504 0.430941
v    19.445805 59.868902 0.492000
v    20.390632 59.585602 0.492000
v    20.163563 60.545496 0.492000
v    19.749353 59.670671 -4.853534
v    19.313824 59.837681 -3.765931
v    19.628366 60.182125 -4.853534
v    19.313824 59.837681 -3.765931
mtllib usm_14_2.5D_2018-07-15_1.mtl
usemtl APPID_801834384_2358739684800 
o vid_3 
f 3 2 1
f 4 5 6
f 1 6 5
f 1 5 3
f 3 5 4
f 4 2 3
f 2 4 6
f 6 1 2
usemtl APPID_801834496_2358739690944 
o vid_4 
f 7 9 10
f 7 10 8
f 7 9 10
usemtl APPID_801834384_2358739684800 
o vid_5 
f 13 12 11
f 14 15 16
f 11 16 15
f 11 15 13
f 13 15 14
f 14 12 13
f 12 14 16
f 16 11 12
usemtl APPID_801834496_2358739690944 
o vid_6 
f 17 19 20
f 17 20 18
f 17 19 20
usemtl APPID_801834384_2358739684800 
o vid_7 
f 23 22 21
f 24 25 26
f 21 26 25
f 21 25 23
f 23 25 24
f 24 22 23
f 22 24 26
f 26 21 22
usemtl APPID_801834496_2358739690944 
o vid_8 
f 27 29 30
f 27 30 28
f 27 29 30
usemtl APPID_801834384_2358739684800 
o vid_9 
f 33 32 31
f 34 35 36
f 31 36 35
f 31 35 33
f 33 35 34
f 34 32 33
f 32 34 36
f 36 31 32
usemtl APPID_801834496_2358739690944 
o vid_10 
f 37 39 40
f 37 40 38
f 37 39 40
