# File generated by PlantGL - Fri Sep  4 14:44:23 2026
v    18.201987 179.124129 0.000000
v    21.657533 178.880811 0.000000
v    20.140480 181.995060 0.000000
v    21.798013 180.875871 0.231332
v    18.342467 181.119189 0.231332
v    19.859520 178.004940 0.231332
v    21.002076 180.847646 -2.285194
v    22.067919 181.007351 -1.307020
v    21.285152 180.266538 -2.285194
v    22.067919 181.007351 -1.307020
v    21.503548 181.204422 0.231332
v    18.205166 180.699900 0.231332
v    20.291286 178.095678 0.231332
v    18.496452 178.795578 0.322458
v    21.794834 179.300100 0.322458
v    19.708714 181.904322 0.322458
v    19.324575 178.926081 -2.194069
v    18.031999 178.423526 -0.935356
v    18.804554 179.575252 -2.194069
v    18.031999 178.423526 -0.935356
v    18.272844 179.328938 0.322458
v    21.444735 178.839770 0.322458
v    20.282421 181.831292 0.322458
v    21.727156 180.671062 0.466406
v    18.555265 181.160230 0.466406
v    19.717579 178.168708 0.466406
v    20.839042 180.946938 -2.050120
v    22.764894 181.074261 -0.298373
v    21.258270 179.867943 -2.050120
v    22.764894 181.074261 -0.298373
v    21.731622 180.409625 0.466406
v    18.779443 181.294816 0.466406
v    19.488935 178.295559 0.466406
v    18.268378 179.590375 0.678771
v    21.220557 178.705184 0.678771
v    20.511065 181.704441 0.678771
v    19.165717 178.959081 -1.837756
v    16.435418 179.156778 0.646792
v    18.787767 180.556804 -1.837756
v    16.435418 179.156778 0.646792
v    18.876148 178.716648 0.678771
v    21.673341 179.668392 0.678771
v    19.450510 181.614960 0.678771
v    21.123852 181.283352 0.903326
v    18.326659 180.331608 0.903326
v    20.549490 178.385040 0.903326
v    19.698981 181.563562 -1.613200
v    23.277762 183.742951 2.189848
v    21.589610 179.907909 -1.613200
v    23.277762 183.742951 2.189848
v    21.375838 180.878433 0.903326
v    18.551335 180.752294 0.903326
v    20.072827 178.369272 0.903326
v    18.624162 179.121567 1.432322
v    21.448665 179.247706 1.432322
v    19.927173 181.630728 1.432322
v    20.183116 178.032517 -1.084205
v    14.527096 176.505707 4.233033
v    18.292260 180.994054 -1.084205
v    14.527096 176.505707 4.233033
v    18.735263 179.088754 1.432322
v    21.421531 179.360328 1.432322
v    19.843206 181.550918 1.432322
v    21.264737 180.911246 2.225063
v    18.578469 180.639672 2.225063
v    20.156794 178.449082 2.225063
v    19.387217 182.271891 -0.291463
v    21.462319 183.338840 1.903730
v    26.833200 185.117416 7.038753
v    27.399909 185.331652 7.407249
v    21.961086 178.699565 -0.291463
v    23.630040 180.330216 1.903730
v    27.017299 184.861902 7.038753
v    27.399909 185.331652 7.407249
v    21.244614 180.810576 2.225063
v    18.675713 180.672580 2.225063
v    20.079672 178.516844 2.225063
v    18.755386 179.189424 3.118961
v    21.324287 179.327420 3.118961
v    19.920328 181.483156 3.118961
v    20.651359 177.612039 0.602435
v    17.581160 176.212043 3.776999
v    13.171700 174.978876 7.932651
v    11.411513 174.406604 9.058410
v    18.079334 181.561304 0.602435
v    15.557462 179.319370 3.776999
v    12.646644 175.785083 7.932651
v    11.411513 174.406604 9.058410
v    18.765415 179.315252 3.118961
v    21.210302 179.273192 3.118961
v    20.024283 181.411556 3.118961
v    21.234585 180.684748 4.387400
v    18.789698 180.726808 4.387400
v    19.975717 178.588444 4.387400
v    19.282563 182.703437 1.870874
v    24.698002 184.725889 7.309787
v    26.739520 185.143614 9.201090
v    31.329469 186.283760 12.077673
v    21.913490 177.959939 1.870874
v    26.496596 181.483067 7.309787
v    27.931926 182.993735 9.201090
v    31.329469 186.283760 12.077673
v    21.293262 180.344016 4.387400
v    19.055443 180.947990 4.387400
v    19.651295 178.707994 4.387400
v    18.706738 179.655984 6.196283
v    20.944557 179.052010 6.196283
v    20.348705 181.292006 6.196283
v    20.163664 177.010559 3.679756
v    18.195955 176.722741 5.559316
v    12.526518 176.093425 10.925872
v    5.407135 176.118208 15.283908
v    18.656714 182.675654 3.679756
v    16.806066 181.947766 5.559316
v    11.573261 179.677018 10.925872
v    5.407135 176.118208 15.283908
v    18.831935 179.515124 6.196283
v    21.003948 179.230864 6.196283
v    20.164118 181.254012 6.196283
v    21.168065 180.484876 8.792398
v    18.996052 180.769136 8.792398
v    19.835882 178.745988 8.792398
v    19.326729 183.022029 6.275872
v    22.231010 183.853143 9.131024
v    26.846750 185.002414 13.606088
v    27.911576 185.291684 14.295401
v    34.984638 186.220279 18.634364
v    21.664820 177.389573 6.275872
v    24.303896 178.859565 9.131024
v    28.376618 181.316964 13.606088
v    29.333269 181.866830 14.295401
v    34.984638 186.220279 18.634364
v    20.857430 180.705514 8.792398
v    18.960292 180.389800 8.792398
v    20.182278 178.904687 8.792398
v    19.142570 179.294486 12.654442
v    21.039708 179.610200 12.654442
v    19.817722 181.095313 12.654442
v    21.779518 177.235360 10.137915
v    17.655783 174.570256 14.778566
v    15.202385 173.102727 17.468131
v    12.395638 171.341877 19.538015
v    6.970395 168.882720 23.160977
v    5.770347 168.291511 23.490805
v    17.629807 182.278619 10.137915
v    14.220446 178.745316 14.778566
v    12.307915 176.620457 17.468131
v    10.039506 174.205350 19.538015
v    6.581594 169.355241 23.160977
v    5.770347 168.291511 23.490805
v    19.400816 179.373088 12.654442
v    20.842514 179.794548 12.654442
v    19.756670 180.832364 12.654442
v    20.599184 180.626912 18.204685
v    19.157486 180.205452 18.204685
v    20.243330 179.167636 18.204685
v    17.431170 182.647886 15.688158
v    23.396533 187.604150 23.018374
v    29.297891 192.411638 27.775749
v    30.613029 193.209090 28.711220
v    35.941687 196.679436 30.279051
v    22.761311 177.553502 15.688158
v    27.442824 183.736831 23.018374
v    31.978608 189.849492 27.775749
v    32.715788 191.199337 28.711220
v    35.941687 196.679436 30.279051
v    20.453138 180.461826 18.204685
v    19.373478 180.161516 18.204685
v    20.173385 179.376658 18.204685
v    19.546862 179.538174 24.471575
v    20.626522 179.838484 24.471575
v    19.826615 180.623342 24.471575
v    22.800490 177.365546 21.955048
v    21.880601 176.583454 23.099112
v    16.791856 172.467126 29.285264
v    14.585855 170.622082 31.087950
v    9.692074 166.771280 34.978110
v    2.473120 162.137050 37.096330
v    17.312838 182.749955 21.955048
v    16.548356 181.815379 23.099112
v    12.529410 176.649380 29.285264
v    10.726592 174.408738 31.087950
v    6.969421 169.442709 34.978110
v    2.473120 162.137050 37.096330
v    19.698641 179.666095 24.471575
v    20.439849 179.905968 24.471575
v    19.861509 180.427937 24.471575
v    20.301359 180.333905 31.348722
v    19.560151 180.094032 31.348722
v    20.138491 179.572063 31.348722
v    17.255345 182.102481 28.832195
v    22.125125 186.389496 34.964233
v    23.109673 187.197371 36.162411
v    27.027729 190.554025 39.385455
v    30.438342 192.757778 41.855257
v    33.309134 194.746491 42.716292
v    22.371967 177.484581 28.832195
v    26.138861 182.766983 34.964233
v    26.841889 183.828938 36.162411
v    29.780557 188.069519 39.385455
v    31.624219 191.687489 41.855257
v    33.309134 194.746491 42.716292
v    20.270470 180.052653 31.348722
v    19.819166 180.207908 31.348722
v    19.910364 179.739439 31.348722
v    19.729530 179.947347 35.209000
v    20.180834 179.792092 35.209000
v    20.089636 180.260561 35.209000
v    20.293191 177.458997 30.154738
v    18.441493 177.807688 36.291442
v    17.111017 178.535442 40.381169
v    15.191770 179.063968 43.836598
v    19.318575 182.465424 30.154738
v    17.732906 181.447570 36.291442
v    16.772593 180.273863 40.381169
v    15.191770 179.063968 43.836598
mtllib usm_10_2.5D_2018-08-20_4.mtl
usemtl APPID_3007502560_1759648550240 
o vid_3 
f 3 2 1
f 4 5 6
f 1 6 5
f 1 5 3
f 3 5 4
f 4 2 3
f 2 4 6
f 6 1 2
usemtl APPID_3007503344_1759648550112 
o vid_4 
f 7 9 10
f 7 10 8
f 7 9 10
usemtl APPID_3007502560_1759648550240 
o vid_5 
f 13 12 11
f 14 15 16
f 11 16 15
f 11 15 13
f 13 15 14
f 14 12 13
f 12 14 16
f 16 11 12
usemtl APPID_3007503344_1759648550112 
o vid_6 
f 17 19 20
f 17 20 18
f 17 19 20
usemtl APPID_3007502560_1759648550240 
o vid_7 
f 23 22 21
f 24 25 26
f 21 26 25
f 21 25 23
f 23 25 24
f 24 22 23
f 22 24 26
f 26 21 22
usemtl APPID_3007503344_1759648550112 
o vid_8 
f 27 29 30
f 27 30 28
f 27 29 30
usemtl APPID_3007502560_1759648550240 
o vid_9 
f 33 32 31
f 34 35 36
f 31 36 35
f 31 35 33
f 33 35 34
f 34 32 33
f 32 34 36
f 36 31 32
usemtl APPID_3007503344_1759648550112 
o vid_10 
f 37 39 40
f 37 40 38
f 37 39 40
usemtl APPID_3007502560_1759648550240 
o vid_11 
f 43 42 41
f 44 45 46
f 41 46 45
f 41 45 43
f 43 45 44
f 44 42 43
f 42 44 46
f 46 41 42
usemtl APPID_3007503344_1759648550112 
o vid_12 
f 47 49 50
f 47 50 48
f 47 49 50
usemtl APPID_3007502560_1759648550240 
o vid_13 
f 53 52 51
f 54 55 56
f 51 56 55
f 51 55 53
f 53 55 54
f 54 52 53
f 52 54 56
f 56 51 52
usemtl APPID_3007503344_1759648550112 
o vid_14 
f 57 59 60
f 57 60 58
f 57 59 60
usemtl APPID_3007502560_1759648550240 
o vid_15 
f 63 62 61
f 64 65 66
f 61 66 65
f 61 65 63
f 63 65 64
f 64 62 63
f 62 64 66
f 66 61 62
usemtl APPID_3007503344_1759648550112 
o vid_16 
f 67 71 72
f 68 72 73
f 67 72 68
f 68 73 69
f 69 73 74
usemtl APPID_3007502560_1759648550240 
o vid_17 
f 77 76 75
f 78 79 80
f 75 80 79
f 75 79 77
f 77 79 78
f 78 76 77
f 76 78 80
f 80 75 76
usemtl APPID_3007503344_1759648550112 
o vid_18 
f 81 85 86
f 82 86 87
f 81 86 82
f 82 87 83
f 83 87 88
usemtl APPID_3007502560_1759648550240 
o vid_19 
f 91 90 89
f 92 93 94
f 89 94 93
f 89 93 91
f 91 93 92
f 92 90 91
f 90 92 94
f 94 89 90
usemtl APPID_3007503344_1759648550112 
o vid_20 
f 95 99 100
f 96 100 101
f 95 100 96
f 96 101 97
f 97 101 102
usemtl APPID_3007502560_1759648550240 
o vid_21 
f 105 104 103
f 106 107 108
f 103 108 107
f 103 107 105
f 105 107 106
f 106 104 105
f 104 106 108
f 108 103 104
usemtl APPID_3007503344_1759648550112 
o vid_22 
f 109 113 114
f 110 114 115
f 109 114 110
f 110 115 111
f 111 115 116
usemtl APPID_3007502560_1759648550240 
o vid_23 
f 119 118 117
f 120 121 122
f 117 122 121
f 117 121 119
f 119 121 120
f 120 118 119
f 118 120 122
f 122 117 118
usemtl APPID_3007503344_1759648550112 
o vid_24 
f 123 128 129
f 124 129 130
f 125 130 131
f 123 129 124
f 124 130 125
f 125 131 126
f 126 131 132
usemtl APPID_3007502560_1759648550240 
o vid_25 
f 135 134 133
f 136 137 138
f 133 138 137
f 133 137 135
f 135 137 136
f 136 134 135
f 134 136 138
f 138 133 134
usemtl APPID_3007503344_1759648550112 
o vid_26 
f 139 145 146
f 140 146 147
f 141 147 148
f 142 148 149
f 139 146 140
f 140 147 141
f 141 148 142
f 142 149 143
f 143 149 150
usemtl APPID_3007502560_1759648550240 
o vid_27 
f 153 152 151
f 154 155 156
f 151 156 155
f 151 155 153
f 153 155 154
f 154 152 153
f 152 154 156
f 156 151 152
usemtl APPID_3007503344_1759648550112 
o vid_28 
f 157 162 163
f 158 163 164
f 159 164 165
f 157 163 158
f 158 164 159
f 159 165 160
f 160 165 166
usemtl APPID_3007502560_1759648550240 
o vid_29 
f 169 168 167
f 170 171 172
f 167 172 171
f 167 171 169
f 169 171 170
f 170 168 169
f 168 170 172
f 172 167 168
usemtl APPID_3007503344_1759648550112 
o vid_30 
f 173 179 180
f 174 180 181
f 175 181 182
f 176 182 183
f 173 180 174
f 174 181 175
f 175 182 176
f 176 183 177
f 177 183 184
usemtl APPID_3007502560_1759648550240 
o vid_31 
f 187 186 185
f 188 189 190
f 185 190 189
f 185 189 187
f 187 189 188
f 188 186 187
f 186 188 190
f 190 185 186
usemtl APPID_3007503344_1759648550112 
o vid_32 
f 191 197 198
f 192 198 199
f 193 199 200
f 194 200 201
f 191 198 192
f 192 199 193
f 193 200 194
f 194 201 195
f 195 201 202
usemtl APPID_3007502560_1759648550240 
o vid_33 
f 205 204 203
f 206 207 208
f 203 208 207
f 203 207 205
f 205 207 206
f 206 204 205
f 204 206 208
f 208 203 204
usemtl APPID_3007503344_1759648550112 
o vid_34 
f 209 213 214
f 210 214 215
f 209 214 210
f 210 215 211
f 211 215 216
