# File generated by PlantGL - Fri Sep  4 14:42:14 2026
v    58.201987 59.124129 0.000000
v    61.657533 58.880811 0.000000
v    60.140480 61.995060 0.000000
v    61.798013 60.875871 0.231332
v    58.342467 61.119189 0.231332
v    59.859520 58.004940 0.231332
v    61.002565 60.848205 -2.282826
v    62.069359 61.008053 -1.303779
v    61.285895 60.266579 -2.282826
v    62.069359 61.008053 -1.303779
v    61.503548 61.204422 0.231332
v    58.205166 60.699900 0.231332
v    60.291286 58.095678 0.231332
v    58.496452 58.795578 0.322458
v    61.794834 59.300100 0.322458
v    59.708714 61.904322 0.322458
v    59.324269 58.925368 -2.191701
v    58.030558 58.422372 -0.931883
v    58.803792 59.575109 -2.191701
v    58.030558 58.422372 -0.931883
v    58.272844 59.328938 0.322458
v    61.444735 58.839770 0.322458
v    60.282421 61.831292 0.322458
v    61.727156 60.671062 0.466406
v    58.555265 61.160230 0.466406
v    59.717579 58.168708 0.466406
v    60.839502 60.947645 -2.047752
v    62.766993 61.075076 -0.294514
v    61.259087 59.867733 -2.047752
v    62.766993 61.075076 -0.294514
v    61.585040 60.374950 0.466406
v    58.882763 61.185210 0.466406
v    59.532196 58.439840 0.466406
v    58.414960 59.625050 0.678771
v    61.117237 58.814790 0.678771
v    60.467804 61.560160 0.678771
v    59.311785 58.992951 -1.835387
v    56.579277 59.190808 0.651170
v    58.933528 60.591967 -1.835387
v    56.579277 59.190808 0.651170
v    59.146884 59.025807 0.678771
v    61.270234 59.748276 0.678771
v    59.582882 61.225917 0.678771
v    60.853116 60.974193 0.919582
v    58.729766 60.251724 0.919582
v    60.417118 58.774083 0.919582
v    59.239800 61.420338 -1.594577
v    63.533708 64.035222 2.968412
v    61.508222 59.433845 -1.594577
v    63.533708 64.035222 2.968412
v    60.829424 60.529564 0.919582
v    59.126672 60.453521 0.919582
v    60.043904 59.016915 0.919582
v    59.170576 59.470436 1.432331
v    60.873328 59.546479 1.432331
v    59.956096 60.983085 1.432331
v    60.603113 58.578112 -1.081828
v    55.699924 57.254524 3.527672
v    58.963935 61.145460 -1.081828
v    55.699924 57.254524 3.527672
v    59.435168 59.593037 1.432331
v    60.634856 59.714322 1.432331
v    59.929976 60.692640 1.432331
v    60.564832 60.406963 1.966377
v    59.365144 60.285678 1.966377
v    60.070024 59.307360 1.966377
v    58.890586 61.486651 -0.547781
v    64.768472 63.435695 5.073413
v    61.059018 58.477039 -0.547781
v    64.768472 63.435695 5.073413
v    60.361374 60.235351 1.966377
v    59.615493 60.195284 1.966377
v    60.023133 59.569365 1.966377
v    59.638626 59.764649 2.068000
v    60.384507 59.804716 2.068000
v    59.976867 60.430635 2.068000
v    59.806383 59.274007 -2.919987
v    59.171529 59.460444 -0.755063
v    59.257715 60.116471 -2.919987
v    59.171529 59.460444 -0.755063
mtllib usm_2_2.5D_2018-07-27_3.mtl
usemtl APPID_1970434208_1595404372096 
o vid_3 
f 3 2 1
f 4 5 6
f 1 6 5
f 1 5 3
f 3 5 4
f 4 2 3
f 2 4 6
f 6 1 2
usemtl APPID_1970430400_1595404366464 
o vid_4 
f 7 9 10
f 7 10 8
f 7 9 10
usemtl APPID_1970434208_1595404372096 
o vid_5 
f 13 12 11
f 14 15 16
f 11 16 15
f 11 15 13
f 13 15 14
f 14 12 13
f 12 14 16
f 16 11 12
usemtl APPID_1970430400_1595404366464 
o vid_6 
f 17 19 20
f 17 20 18
f 17 19 20
usemtl APPID_1970434208_1595404372096 
o vid_7 
f 23 22 21
f 24 25 26
f 21 26 25
f 21 25 23
f 23 25 24
f 24 22 23
f 22 24 26
f 26 21 22
usemtl APPID_1970430400_1595404366464 
o vid_8 
f 27 29 30
f 27 30 28
f 27 29 30
usemtl APPID_1970434208_1595404372096 
o vid_9 
f 33 32 31
f 34 35 36
f 31 36 35
f 31 35 33
f 33 35 34
f 34 32 33
f 32 34 36
f 36 31 32
usemtl APPID_1970430400_1595404366464 
o vid_10 
f 37 39 40
f 37 40 38
f 37 39 40
usemtl APPID_1970434208_1595404372096 
o vid_11 
f 43 42 41
f 44 45 46
f 41 46 45
f 41 45 43
f 43 45 44
f 44 42 43
f 42 44 46
f 46 41 42
usemtl APPID_1970430400_1595404366464 
o vid_12 
f 47 49 50
f 47 50 48
f 47 49 50
usemtl APPID_1970434208_1595404372096 
o vid_13 
f 53 52 51
f 54 55 56
f 51 56 55
f 51 55 53
f 53 55 54
f 54 52 53
f 52 54 56
f 56 51 52
usemtl APPID_1970430400_1595404366464 
o vid_14 
f 57 59 60
f 57 60 58
f 57 59 60
usemtl APPID_1970434208_1595404372096 
o vid_15 
f 63 62 61
f 64 65 66
f 61 66 65
f 61 65 63
f 63 65 64
f 64 62 63
f 62 64 66
f 66 61 62
usemtl APPID_1970430400_1595404366464 
o vid_16 
f 67 69 70
f 67 70 68
f 67 69 70
usemtl APPID_1970434208_1595404372096 
o vid_17 
f 73 72 71
f 74 75 76
f 71 76 75
f 71 75 73
f 73 75 74
f 74 72 73
f 72 74 76
f 76 71 72
usemtl APPID_1970430400_1595404366464 
o vid_18 
f 77 79 80
f 77 80 78
f 77 79 80
