# File generated by PlantGL - Fri Sep  4 14:41:37 2026
v    418.763562 19.397691 0.000000
v    421.139834 19.230368 0.000000
v    420.096604 21.371941 0.000000
v    421.236438 20.602309 0.362700
v    418.860166 20.769632 0.362700
v    419.903396 18.628059 0.362700
v    421.051110 20.955614 0.197284
v    421.250528 21.031644 0.395604
v    421.548872 21.139815 0.690029
v    422.243846 21.401513 1.189898
v    422.823686 21.627859 1.389415
v    423.509913 21.864811 1.621183
v    423.720593 21.906125 1.687912
v    424.056917 21.976257 1.684095
v    421.400394 20.238594 0.197284
v    421.583187 20.348751 0.395604
v    421.852270 20.516992 0.690029
v    422.486733 20.902907 1.189898
v    423.022389 21.219956 1.389415
v    423.631976 21.614238 1.621183
v    423.794375 21.754662 1.687912
v    424.056917 21.976257 1.684095
v    420.740222 20.592957 0.362700
v    419.116373 20.344573 0.362700
v    420.143405 19.062470 0.362700
v    419.259778 19.407043 0.473000
v    420.883627 19.655427 0.473000
v    419.856595 20.937530 0.473000
v    419.565705 19.036835 0.006806
v    419.000337 18.684808 0.779378
v    418.319619 18.244676 1.467744
v    418.188910 18.169042 1.595184
v    417.507292 17.751809 1.952327
v    416.832534 17.462691 2.270978
v    418.965267 19.786395 0.006806
v    418.498330 19.311491 0.779378
v    417.920236 18.743248 1.467744
v    417.817897 18.632198 1.595184
v    417.261953 18.058078 1.952327
v    416.832534 17.462691 2.270978
mtllib usm_29_Beer_2018-07-25_10.mtl
usemtl APPID_2589617392_1742050111616 
o vid_3 
f 3 2 1
f 4 5 6
f 1 6 5
f 1 5 3
f 3 5 4
f 4 2 3
f 2 4 6
f 6 1 2
usemtl APPID_2589617728_1742050112000 
o vid_4 
f 7 15 16
f 8 16 17
f 9 17 18
f 10 18 19
f 11 19 20
f 12 20 21
f 7 16 8
f 8 17 9
f 9 18 10
f 10 19 11
f 11 20 12
f 12 21 13
f 13 21 22
usemtl APPID_2589617392_1742050111616 
o vid_5 
f 25 24 23
f 26 27 28
f 23 28 27
f 23 27 25
f 25 27 26
f 26 24 25
f 24 26 28
f 28 23 24
usemtl APPID_2589617728_1742050112000 
o vid_6 
f 29 35 36
f 30 36 37
f 31 37 38
f 32 38 39
f 29 36 30
f 30 37 31
f 31 38 32
f 32 39 33
f 33 39 40
