# File generated by PlantGL - Fri Sep  4 14:43:28 2026
v    19.128808 139.575614 0.000000
v    20.803126 139.457718 0.000000
v    20.068067 140.966668 0.000000
v    20.871192 140.424386 0.214398
v    19.196874 140.542282 0.214398
v    19.931933 139.033332 0.214398
v    20.128505 140.325838 -2.243097
v    20.908949 140.442779 -1.526847
v    20.335783 139.900332 -2.243097
v    20.908949 140.442779 -1.526847
v    20.493586 140.395388 0.214398
v    19.410791 140.229764 0.214398
v    20.095624 139.374848 0.214398
v    19.506414 139.604612 0.241000
v    20.589209 139.770236 0.241000
v    19.904376 140.625152 0.241000
v    19.850431 139.708161 -4.746710
v    19.595579 139.676037 -4.199364
v    19.682552 139.917734 -4.746710
v    19.595579 139.676037 -4.199364
mtllib usm_16_2.5D_2018-07-10_3.mtl
usemtl APPID_428804768_2208043334272 
o vid_3 
f 3 2 1
f 4 5 6
f 1 6 5
f 1 5 3
f 3 5 4
f 4 2 3
f 2 4 6
f 6 1 2
usemtl APPID_428807792_2208043341056 
o vid_4 
f 7 9 10
f 7 10 8
f 7 9 10
usemtl APPID_428804768_2208043334272 
o vid_5 
f 13 12 11
f 14 15 16
f 11 16 15
f 11 15 13
f 13 15 14
f 14 12 13
f 12 14 16
f 16 11 12
usemtl APPID_428807792_2208043341056 
o vid_6 
f 17 19 20
f 17 20 18
f 17 19 20
