# File generated by PlantGL - Fri Sep  4 14:43:01 2026
v    98.245134 19.145147 0.000000
v    101.617757 18.907668 0.000000
v    100.137109 21.947185 0.000000
v    101.754866 20.854853 0.231332
v    98.382243 21.092332 0.231332
v    99.862891 18.052815 0.231332
v    100.932482 20.797392 -2.411656
v    101.949845 20.949833 -1.477974
v    101.202683 20.242716 -2.411656
v    101.949845 20.949833 -1.477974
v    101.232538 20.987329 0.231332
v    98.528679 20.573745 0.231332
v    100.238783 18.438926 0.231332
v    98.767462 19.012671 0.322458
v    101.471321 19.426255 0.322458
v    99.761217 21.561074 0.322458
v    99.612488 19.180582 -2.320531
v    98.377807 18.700537 -1.118196
v    99.115759 19.800677 -2.320531
v    98.377807 18.700537 -1.118196
v    98.854027 19.554748 0.322458
v    100.958586 19.230184 0.322458
v    100.187387 21.215068 0.322458
v    101.145973 20.445252 0.466406
v    99.041414 20.769816 0.466406
v    99.812613 18.784932 0.466406
v    100.232887 20.684397 -2.176583
v    102.074912 20.806178 -0.501084
v    100.633867 19.652368 -2.176583
v    102.074912 20.806178 -0.501084
v    100.878371 20.207784 0.466406
v    99.380869 20.656799 0.466406
v    99.740761 19.135417 0.466406
v    99.121629 19.792216 0.678771
v    100.619131 19.343201 0.678771
v    100.259239 20.864583 0.678771
v    100.046713 19.202539 -1.964218
v    97.429869 19.392021 0.417086
v    99.684467 20.733870 -1.964218
v    97.429869 19.392021 0.417086
v    99.605524 19.549539 0.678771
v    100.587348 19.883604 0.678771
v    99.807127 20.566856 0.678771
v    100.394476 20.450461 0.795000
v    99.412652 20.116396 0.795000
v    100.192873 19.433144 0.795000
v    99.629916 20.241548 -4.597371
v    100.555958 20.634861 -2.903145
v    100.288265 19.665021 -4.597371
v    100.555958 20.634861 -2.903145
mtllib usm_32_2.5D_2018-07-19_2.mtl
usemtl APPID_3467390976_2121046628960 
o vid_3 
f 3 2 1
f 4 5 6
f 1 6 5
f 1 5 3
f 3 5 4
f 4 2 3
f 2 4 6
f 6 1 2
usemtl APPID_3467388288_2121046623328 
o vid_4 
f 7 9 10
f 7 10 8
f 7 9 10
usemtl APPID_3467390976_2121046628960 
o vid_5 
f 13 12 11
f 14 15 16
f 11 16 15
f 11 15 13
f 13 15 14
f 14 12 13
f 12 14 16
f 16 11 12
usemtl APPID_3467388288_2121046623328 
o vid_6 
f 17 19 20
f 17 20 18
f 17 19 20
usemtl APPID_3467390976_2121046628960 
o vid_7 
f 23 22 21
f 24 25 26
f 21 26 25
f 21 25 23
f 23 25 24
f 24 22 23
f 22 24 26
f 26 21 22
usemtl APPID_3467388288_2121046623328 
o vid_8 
f 27 29 30
f 27 30 28
f 27 29 30
usemtl APPID_3467390976_2121046628960 
o vid_9 
f 33 32 31
f 34 35 36
f 31 36 35
f 31 35 33
f 33 35 34
f 34 32 33
f 32 34 36
f 36 31 32
usemtl APPID_3467388288_2121046623328 
o vid_10 
f 37 39 40
f 37 40 38
f 37 39 40
usemtl APPID_3467390976_2121046628960 
o vid_11 
f 43 42 41
f 44 45 46
f 41 46 45
f 41 45 43
f 43 45 44
f 44 42 43
f 42 44 46
f 46 41 42
usemtl APPID_3467388288_2121046623328 
o vid_12 
f 47 49 50
f 47 50 48
f 47 49 50
