# File generated by PlantGL - Fri Sep  4 14:43:08 2026
v    17.752484 298.905161 0.000000
v    22.071916 298.601013 0.000000
v    20.175600 302.493825 0.000000
v    22.247516 301.094839 0.848509
v    17.928084 301.398987 0.848509
v    19.824400 297.506175 0.848509
v    22.063318 301.447212 0.691549
v    22.452716 301.595674 1.078805
v    23.193535 301.873497 1.633424
v    24.003383 302.189629 1.912084
v    24.577479 302.387862 2.105980
v    25.186155 302.526346 2.099014
v    22.411435 300.732586 0.691549
v    22.768371 300.947689 1.078805
v    23.443792 301.359763 1.633424
v    24.191930 301.802576 1.912084
v    24.701907 302.132431 2.105980
v    25.186155 302.526346 2.099014
v    21.711940 301.371355 0.848509
v    17.956401 300.796906 0.848509
v    20.331658 297.831739 0.848509
v    18.288060 298.628645 1.417165
v    22.043599 299.203094 1.417165
v    19.668342 302.168261 1.417165
v    18.658454 298.191816 1.194819
v    18.077957 297.806220 1.842408
v    17.230838 297.248760 2.529059
v    16.095575 296.481629 2.968238
v    15.482473 296.101876 3.198473
v    15.256039 295.959818 3.195430
v    14.560862 295.642961 3.186942
v    17.942604 299.085451 1.194819
v    17.439606 298.603110 1.842408
v    16.710694 297.898085 2.529059
v    15.714276 296.957625 2.968238
v    15.209864 296.442190 3.198473
v    15.021809 296.252220 3.195430
v    14.560862 295.642961 3.186942
v    18.370909 299.367040 1.417165
v    21.362705 298.905646 1.417165
v    20.266386 301.727314 1.417165
v    21.629091 300.632960 2.253766
v    18.637295 301.094354 2.253766
v    19.733614 298.272686 2.253766
v    21.343259 301.307362 1.945001
v    21.593771 301.379813 2.187329
v    22.298438 301.571134 2.864761
v    23.631604 301.950769 3.797819
v    24.573574 302.231303 4.112858
v    25.886653 302.566253 4.545477
v    26.468418 302.631052 4.727414
v    26.913013 302.685953 4.722437
v    21.873561 299.942488 1.945001
v    22.107274 300.058176 2.187329
v    22.756263 300.392799 2.864761
v    23.996024 301.012838 3.797819
v    24.880299 301.441866 4.112858
v    26.075072 302.081306 4.545477
v    26.547977 302.426284 4.727414
v    26.913013 302.685953 4.722437
v    21.295031 300.306347 2.253766
v    19.087180 300.968356 2.253766
v    19.617789 298.725297 2.253766
v    18.704969 299.693653 4.112548
v    20.912820 299.031644 4.112548
v    20.382211 301.274703 4.112548
v    18.972501 298.693910 3.692223
v    18.200304 298.582545 4.417211
v    17.636738 298.510690 4.944300
v    15.767971 298.249016 6.214480
v    13.898365 297.964247 6.820662
v    12.065068 297.759053 7.409591
v    10.631726 297.783881 7.466532
v    18.496222 300.707302 3.692223
v    17.755971 300.460889 4.417211
v    17.219941 300.272628 4.944300
v    15.431998 299.669285 6.214480
v    13.632957 299.086215 6.820662
v    11.902029 298.448271 7.409591
v    10.631726 297.783881 7.466532
v    19.379012 299.290879 4.112548
v    20.924611 299.816769 4.112548
v    19.696378 300.892352 4.112548
v    20.620988 300.709121 5.612772
v    19.075389 300.183231 5.612772
v    20.303622 299.107648 5.612772
v    19.635732 301.518349 5.051855
v    20.958275 302.740804 6.722734
v    22.786319 304.472696 8.417772
v    23.505263 305.170432 8.738900
v    25.338512 306.813475 9.524817
v    26.865972 307.840410 10.096888
v    21.553137 299.839247 5.051855
v    22.590409 301.311519 6.722734
v    24.065968 303.352088 8.417772
v    24.662746 304.156805 8.738900
v    26.049547 306.190810 9.524817
v    26.865972 307.840410 10.096888
v    20.491549 300.313840 5.612772
v    19.482432 300.268774 5.612772
v    20.026019 299.417386 5.612772
v    19.508451 299.686160 6.559000
v    20.517568 299.731226 6.559000
v    19.973981 300.582614 6.559000
v    19.788305 298.606454 5.206412
v    19.655124 298.585801 5.896475
v    19.128113 298.592601 8.360648
v    18.839254 298.525426 9.168657
v    17.832779 298.616291 11.478739
v    18.646764 300.394382 5.206412
v    18.571984 300.282258 5.896475
v    18.356380 299.801320 8.360648
v    18.173888 299.567550 9.168657
v    17.832779 298.616291 11.478739
mtllib usm_18_2.5D_2018-07-17_7.mtl
usemtl APPID_2970032352_2459690766432 
o vid_3 
f 3 2 1
f 4 5 6
f 1 6 5
f 1 5 3
f 3 5 4
f 4 2 3
f 2 4 6
f 6 1 2
usemtl APPID_2970034256_2459690761056 
o vid_4 
f 7 13 14
f 8 14 15
f 9 15 16
f 10 16 17
f 7 14 8
f 8 15 9
f 9 16 10
f 10 17 11
f 11 17 18
usemtl APPID_2970032352_2459690766432 
o vid_5 
f 21 20 19
f 22 23 24
f 19 24 23
f 19 23 21
f 21 23 22
f 22 20 21
f 20 22 24
f 24 19 20
usemtl APPID_2970034256_2459690761056 
o vid_6 
f 25 32 33
f 26 33 34
f 27 34 35
f 28 35 36
f 29 36 37
f 25 33 26
f 26 34 27
f 27 35 28
f 28 36 29
f 29 37 30
f 30 37 38
usemtl APPID_2970032352_2459690766432 
o vid_7 
f 41 40 39
f 42 43 44
f 39 44 43
f 39 43 41
f 41 43 42
f 42 40 41
f 40 42 44
f 44 39 40
usemtl APPID_2970034256_2459690761056 
o vid_8 
f 45 53 54
f 46 54 55
f 47 55 56
f 48 56 57
f 49 57 58
f 50 58 59
f 45 54 46
f 46 55 47
f 47 56 48
f 48 57 49
f 49 58 50
f 50 59 51
f 51 59 60
usemtl APPID_2970032352_2459690766432 
o vid_9 
f 63 62 61
f 64 65 66
f 61 66 65
f 61 65 63
f 63 65 64
f 64 62 63
f 62 64 66
f 66 61 62
usemtl APPID_2970034256_2459690761056 
o vid_10 
f 67 74 75
f 68 75 76
f 69 76 77
f 70 77 78
f 71 78 79
f 67 75 68
f 68 76 69
f 69 77 70
f 70 78 71
f 71 79 72
f 72 79 80
usemtl APPID_2970032352_2459690766432 
o vid_11 
f 83 82 81
f 84 85 86
f 81 86 85
f 81 85 83
f 83 85 84
f 84 82 83
f 82 84 86
f 86 81 82
usemtl APPID_2970034256_2459690761056 
o vid_12 
f 87 93 94
f 88 94 95
f 89 95 96
f 90 96 97
f 87 94 88
f 88 95 89
f 89 96 90
f 90 97 91
f 91 97 98
usemtl APPID_2970032352_2459690766432 
o vid_13 
f 101 100 99
f 102 103 104
f 99 104 103
f 99 103 101
f 101 103 102
f 102 100 101
f 100 102 104
f 104 99 100
usemtl APPID_2970034256_2459690761056 
o vid_14 
f 105 110 111
f 106 111 112
f 107 112 113
f 105 111 106
f 106 112 107
f 107 113 108
f 108 113 114
