# File generated by PlantGL - Fri Sep  4 14:43:58 2026
v    377.752484 18.905161 0.000000
v    382.071916 18.601013 0.000000
v    380.175600 22.493825 0.000000
v    382.247516 21.094839 0.362700
v    377.928084 21.398987 0.362700
v    379.824400 17.506175 0.362700
v    382.065086 21.442668 0.200167
v    382.268999 21.520411 0.402958
v    382.302707 21.532633 0.436223
v    382.408947 20.736780 0.200167
v    382.595860 20.849421 0.402958
v    382.626263 20.868430 0.436223
v    381.879284 21.505407 0.362700
v    377.756638 20.874804 0.362700
v    380.364078 17.619789 0.362700
v    378.120716 18.494593 0.589630
v    382.243362 19.125196 0.589630
v    379.635922 22.380211 0.589630
v    378.485541 18.066334 0.353213
v    378.302893 17.945010 0.556971
v    377.848698 17.653941 1.057460
v    376.962196 17.070320 1.771889
v    376.874682 17.011184 1.805744
v    377.782408 18.944095 0.353213
v    377.624145 18.792330 0.556971
v    377.240960 18.412613 1.057460
v    376.477923 17.674866 1.771889
v    376.401111 17.602368 1.805744
v    377.841416 19.161313 0.589630
v    381.805616 18.549955 0.589630
v    380.352968 22.288732 0.589630
v    382.158584 20.838687 1.053978
v    378.194384 21.450045 1.053978
v    379.647032 17.711268 1.053978
v    381.854107 21.555739 0.718303
v    382.893694 21.839506 1.718222
v    384.343048 22.252227 2.732598
v    385.124558 22.484973 2.993971
v    385.432165 22.563440 3.095318
v    382.418095 20.104165 0.718303
v    383.376563 20.596714 1.718222
v    384.724371 21.270791 2.732598
v    385.458014 21.626735 2.993971
v    385.737906 21.776533 3.095318
v    382.163962 20.511898 1.053978
v    378.474702 21.618097 1.053978
v    379.361335 17.870005 1.053978
v    377.836038 19.488102 1.829186
v    381.525298 18.381903 1.829186
v    380.638665 22.129995 1.829186
v    378.117349 18.444124 1.363965
v    376.636162 18.252942 2.749780
v    374.567786 17.963319 4.155633
v    373.428074 17.789723 4.525161
v    371.769237 17.604056 5.058046
v    377.619790 20.547472 1.363965
v    376.209931 20.054760 2.749780
v    374.231013 19.386972 4.155633
v    373.134317 19.031532 4.525161
v    371.568108 18.454297 5.058046
v    378.595695 18.396392 1.829186
v    382.090917 19.585640 1.829186
v    379.313387 22.017967 1.829186
v    381.404305 21.603608 2.769464
v    377.909083 20.414360 2.769464
v    380.686613 17.982033 2.769464
v    380.272066 22.535014 2.140101
v    381.753147 23.909125 4.014866
v    383.804253 25.852347 5.916736
v    384.959336 26.973355 6.432673
v    387.016282 28.816887 7.314489
v    387.198648 28.939494 7.382790
v    382.476956 20.604157 2.140101
v    383.643640 22.253590 4.014866
v    385.299251 24.543153 5.916736
v    386.258058 25.836044 6.432673
v    387.814080 28.118243 7.314489
v    387.911554 28.315191 7.382790
v    381.718982 21.097521 2.769464
v    378.190028 20.939922 2.769464
v    380.090990 17.962557 2.769464
v    378.281018 18.902479 5.235228
v    381.809972 19.060078 5.235228
v    379.909010 22.037443 5.235228
v    379.308853 17.403614 4.404149
v    376.921099 16.212391 6.879796
v    373.603224 14.505839 9.391236
v    373.073064 14.225033 9.583536
v    369.784587 12.647030 10.747984
v    368.822752 12.340444 11.061752
v    377.353851 20.465618 4.404149
v    375.268440 18.800852 6.879796
v    372.324144 16.509187 9.391236
v    371.846313 16.146420 9.583536
v    369.031001 13.827328 10.747984
v    368.348130 13.083816 11.061752
v    378.420020 18.861621 5.235228
v    381.775855 19.200887 5.235228
v    379.804125 21.937492 5.235228
v    381.579980 21.138379 9.070287
v    378.224145 20.799113 9.070287
v    380.195875 18.062508 9.070287
v    380.003422 23.194838 7.999051
v    381.265274 23.943189 9.362328
v    382.976029 24.920168 11.190084
v    387.122539 27.356301 14.427255
v    390.667917 29.497061 15.754764
v    394.785889 31.765633 17.255702
v    395.978304 32.220866 17.652408
v    396.835140 32.559756 17.642170
v    383.031631 18.991925 7.999051
v    384.140936 19.951998 9.362328
v    385.609212 21.265519 11.190084
v    389.232642 24.427646 14.427255
v    392.385600 27.113053 15.754764
v    395.841052 30.301150 17.255702
v    396.650333 31.288144 17.652408
v    397.243026 31.993643 17.642170
v    381.554633 21.012481 9.070287
v    378.345849 20.840111 9.070287
v    380.099518 18.147408 9.070287
v    378.445367 18.987519 15.537192
v    381.654151 19.159889 15.537192
v    379.900482 21.852592 15.537192
v    380.396608 16.168915 14.189382
v    377.098980 14.417571 17.659053
v    371.219942 11.334351 22.277232
v    364.477120 7.684517 24.734844
v    359.977788 5.475233 26.335060
v    355.672033 3.870136 26.283671
v    376.656438 21.911831 14.189382
v    373.721259 19.603956 17.659053
v    368.524152 15.473652 22.277232
v    362.459548 10.782436 24.734844
v    358.619630 7.560644 26.335060
v    355.410576 4.271596 26.283671
v    378.458123 19.144816 15.537192
v    381.511550 19.092287 15.537192
v    380.030327 21.762897 15.537192
v    381.541877 20.855184 23.570456
v    378.488450 20.907713 23.570456
v    379.969673 18.237103 23.570456
v    379.458961 24.365402 21.915171
v    382.330012 25.638396 24.833585
v    384.327093 26.484932 26.845987
v    391.132797 29.469090 31.848095
v    397.997839 32.578286 34.263731
v    404.729282 35.310515 36.582996
v    409.520125 36.568318 36.785487
v    383.416761 17.229584 21.915171
v    386.016859 18.991100 24.833585
v    387.792426 20.237020 26.845987
v    393.927496 24.430314 31.848095
v    400.200057 28.607739 34.263731
v    406.082092 32.871431 36.582996
v    409.685817 36.269579 36.785487
v    381.485666 20.395196 23.570456
v    378.914917 21.089027 23.570456
v    379.599417 18.515777 23.570456
v    378.514334 19.604804 36.455601
v    381.085083 18.910973 36.455601
v    380.400583 21.484223 36.455601
v    379.922672 14.865098 34.471254
v    375.642719 14.126311 38.507218
v    373.645729 13.815266 40.382290
v    364.860911 12.336036 46.378790
v    355.230136 10.594936 49.515814
v    346.605320 9.386878 52.296136
v    340.143732 9.309810 52.283264
v    377.381589 24.417819 34.471254
v    373.300233 22.932446 38.507218
v    371.412634 22.210167 40.382290
v    363.053911 19.129109 46.378790
v    353.830928 15.854994 49.515814
v    345.745795 12.618102 52.296136
v    340.099921 9.474510 52.283264
v    378.886261 19.537675 36.455601
v    380.957255 19.266636 36.455601
v    380.156485 21.195689 36.455601
v    381.113739 20.462325 56.069611
v    379.042745 20.733364 56.069611
v    379.843515 18.804311 56.069611
v    378.632238 26.005054 53.747607
v    385.733503 28.236093 60.664468
v    395.685869 31.332894 67.681336
v    410.580939 36.142522 72.698430
v    416.535024 37.807305 74.672154
v    420.580575 38.963539 74.624253
v    428.347503 40.103600 74.537032
v    383.287036 14.791656 53.747607
v    389.880693 18.245522 60.664468
v    399.100417 23.107254 67.681336
v    413.022812 30.260055 72.698430
v    418.405517 33.301292 74.672154
v    422.080604 35.349974 74.624253
v    428.371617 40.045510 74.537032
v    380.697467 20.573892 56.069611
v    379.154262 20.317078 56.069611
v    380.148272 19.109030 56.069611
v    379.302533 19.426108 79.422771
v    380.845738 19.682922 79.422771
v    379.851728 20.890970 79.422771
v    383.699838 14.381887 76.770554
v    378.134842 10.579167 83.033855
v    366.803332 2.930399 92.685806
v    355.062909 -5.229346 97.268635
v    346.077594 -10.959286 100.670792
v    336.968514 -15.407309 100.557789
v    375.199559 24.712512 76.770554
v    370.396321 19.984007 83.033855
v    360.708518 10.337595 92.685806
v    350.440555 0.388329 97.268635
v    343.087492 -7.325331 100.670792
v    336.968514 -15.407309 100.557789
v    379.565163 19.545039 79.422771
v    380.611426 19.850900 79.422771
v    379.823411 20.604061 79.422771
v    380.434837 20.454961 97.160450
v    379.388574 20.149100 97.160450
v    380.176589 19.395939 97.160450
v    375.754133 24.634707 94.203418
v    383.000252 30.769556 103.011920
v    392.876800 39.342273 111.815103
v    402.889000 47.553894 116.018433
v    411.169495 52.611955 119.034267
v    384.821916 15.968001 94.203418
v    390.622909 23.484057 103.011920
v    398.740360 33.738064 111.815103
v    406.490952 44.111260 116.018433
v    411.169495 52.611955 119.034267
v    380.269111 20.274271 97.160450
v    379.627919 20.095921 97.160450
v    380.102970 19.629807 97.160450
v    379.730889 19.725729 102.177000
v    380.372081 19.904079 102.177000
v    379.897030 20.370193 102.177000
v    382.051119 15.499623 96.170257
v    381.504787 15.231748 98.720713
v    378.802606 14.365514 109.880195
v    377.681839 13.766173 112.938176
v    372.978628 12.843997 122.903759
v    375.461482 21.965284 96.170257
v    375.204031 21.413963 98.720713
v    374.389269 18.695819 109.880195
v    373.811321 17.563872 112.938176
v    372.978628 12.843997 122.903759
v    382.302707 21.532633 0.436223
v    382.554111 21.623785 0.684324
v    383.236971 21.880921 1.175480
v    383.817044 22.107358 1.375077
v    384.491310 22.340179 1.602805
v    384.687086 22.378571 1.664813
v    385.029280 22.449927 1.660930
v    382.626263 20.868430 0.436223
v    382.853008 21.010200 0.684324
v    383.476413 21.389388 1.175480
v    384.012284 21.706564 1.375077
v    384.611245 22.093974 1.602805
v    384.762156 22.224464 1.664813
v    385.029280 22.449927 1.660930
v    376.874682 17.011184 1.805744
v    376.317524 16.634696 2.021282
v    375.435426 16.088328 2.352532
v    375.049453 15.917938 2.483666
v    374.712286 15.764260 2.479549
v    376.401111 17.602368 1.805744
v    375.912095 17.140815 2.021282
v    375.186374 16.399234 2.352532
v    374.935850 16.059756 2.483666
v    374.712286 15.764260 2.479549
v    385.432165 22.563440 3.095318
v    386.552074 22.849115 3.464294
v    387.443936 22.948454 3.743209
v    387.656039 22.974646 3.740834
v    385.737906 21.776533 3.095318
v    386.756914 22.321904 3.464294
v    387.481892 22.850765 3.743209
v    387.656039 22.974646 3.740834
v    371.769237 17.604056 5.058046
v    371.398956 17.562612 5.176995
v    370.179152 17.596008 5.556266
v    369.858454 17.600959 5.552702
v    371.568108 18.454297 5.058046
v    371.218503 18.325448 5.176995
v    370.142944 17.749070 5.556266
v    369.858454 17.600959 5.552702
v    387.198648 28.939494 7.382790
v    388.343449 29.709162 7.811546
v    388.745071 29.986196 7.806125
v    387.911554 28.315191 7.382790
v    388.523448 29.551534 7.811546
v    388.745071 29.986196 7.806125
v    368.822752 12.340444 11.061752
v    367.186310 11.818824 11.595590
v    368.348130 13.083816 11.061752
v    367.186310 11.818824 11.595590
v    396.835140 32.559756 17.642170
v    398.158256 33.083066 17.626362
v    397.243026 31.993643 17.642170
v    398.158256 33.083066 17.626362
v    355.672033 3.870136 26.283671
v    354.747642 3.553980 26.272817
v    355.410576 4.271596 26.283671
v    354.747642 3.553980 26.272817
v    409.520125 36.568318 36.785487
v    410.193560 36.746512 36.777747
v    409.685817 36.269579 36.785487
v    410.193560 36.746512 36.777747
v    340.143732 9.309810 52.283264
v    339.796225 9.305548 52.279403
v    340.099921 9.474510 52.283264
v    339.796225 9.305548 52.279403
v    428.347503 40.103600 74.537032
v    428.474401 40.122227 74.535607
v    428.371617 40.045510 74.537032
v    428.474401 40.122227 74.535607
mtllib usm_31_2.5D_2018-08-26_9.mtl
usemtl APPID_2655955824_1733526560496 
o vid_3 
f 3 2 1
f 4 5 6
f 1 6 5
f 1 5 3
f 3 5 4
f 4 2 3
f 2 4 6
f 6 1 2
usemtl APPID_2655953248_1733526557040 
o vid_4 
f 7 10 11
f 7 11 8
f 8 11 12
f 8 12 9
usemtl APPID_2655955824_1733526560496 
o vid_5 
f 15 14 13
f 16 17 18
f 13 18 17
f 13 17 15
f 15 17 16
f 16 14 15
f 14 16 18
f 18 13 14
usemtl APPID_2655953248_1733526557040 
o vid_6 
f 19 24 25
f 20 25 26
f 21 26 27
f 19 25 20
f 20 26 21
f 21 27 22
f 22 27 28
f 22 28 23
usemtl APPID_2655955824_1733526560496 
o vid_7 
f 31 30 29
f 32 33 34
f 29 34 33
f 29 33 31
f 31 33 32
f 32 30 31
f 30 32 34
f 34 29 30
usemtl APPID_2655953248_1733526557040 
o vid_8 
f 35 40 41
f 36 41 42
f 37 42 43
f 35 41 36
f 36 42 37
f 37 43 38
f 38 43 44
f 38 44 39
usemtl APPID_2655955824_1733526560496 
o vid_9 
f 47 46 45
f 48 49 50
f 45 50 49
f 45 49 47
f 47 49 48
f 48 46 47
f 46 48 50
f 50 45 46
usemtl APPID_2655953248_1733526557040 
o vid_10 
f 51 56 57
f 52 57 58
f 53 58 59
f 51 57 52
f 52 58 53
f 53 59 54
f 54 59 60
f 54 60 55
usemtl APPID_2655955824_1733526560496 
o vid_11 
f 63 62 61
f 64 65 66
f 61 66 65
f 61 65 63
f 63 65 64
f 64 62 63
f 62 64 66
f 66 61 62
usemtl APPID_2655953248_1733526557040 
o vid_12 
f 67 73 74
f 68 74 75
f 69 75 76
f 70 76 77
f 67 74 68
f 68 75 69
f 69 76 70
f 70 77 71
f 71 77 78
f 71 78 72
usemtl APPID_2655955824_1733526560496 
o vid_13 
f 81 80 79
f 82 83 84
f 79 84 83
f 79 83 81
f 81 83 82
f 82 80 81
f 80 82 84
f 84 79 80
usemtl APPID_2655953248_1733526557040 
o vid_14 
f 85 91 92
f 86 92 93
f 87 93 94
f 88 94 95
f 85 92 86
f 86 93 87
f 87 94 88
f 88 95 89
f 89 95 96
f 89 96 90
usemtl APPID_2655955824_1733526560496 
o vid_15 
f 99 98 97
f 100 101 102
f 97 102 101
f 97 101 99
f 99 101 100
f 100 98 99
f 98 100 102
f 102 97 98
usemtl APPID_2655953248_1733526557040 
o vid_16 
f 103 111 112
f 104 112 113
f 105 113 114
f 106 114 115
f 107 115 116
f 108 116 117
f 103 112 104
f 104 113 105
f 105 114 106
f 106 115 107
f 107 116 108
f 108 117 109
f 109 117 118
f 109 118 110
usemtl APPID_2655955824_1733526560496 
o vid_17 
f 121 120 119
f 122 123 124
f 119 124 123
f 119 123 121
f 121 123 122
f 122 120 121
f 120 122 124
f 124 119 120
usemtl APPID_2655953248_1733526557040 
o vid_18 
f 125 131 132
f 126 132 133
f 127 133 134
f 128 134 135
f 125 132 126
f 126 133 127
f 127 134 128
f 128 135 129
f 129 135 136
f 129 136 130
usemtl APPID_2655955824_1733526560496 
o vid_19 
f 139 138 137
f 140 141 142
f 137 142 141
f 137 141 139
f 139 141 140
f 140 138 139
f 138 140 142
f 142 137 138
usemtl APPID_2655953248_1733526557040 
o vid_20 
f 143 150 151
f 144 151 152
f 145 152 153
f 146 153 154
f 147 154 155
f 143 151 144
f 144 152 145
f 145 153 146
f 146 154 147
f 147 155 148
f 148 155 156
f 148 156 149
usemtl APPID_2655955824_1733526560496 
o vid_21 
f 159 158 157
f 160 161 162
f 157 162 161
f 157 161 159
f 159 161 160
f 160 158 159
f 158 160 162
f 162 157 158
usemtl APPID_2655953248_1733526557040 
o vid_22 
f 163 170 171
f 164 171 172
f 165 172 173
f 166 173 174
f 167 174 175
f 163 171 164
f 164 172 165
f 165 173 166
f 166 174 167
f 167 175 168
f 168 175 176
f 168 176 169
usemtl APPID_2655955824_1733526560496 
o vid_23 
f 179 178 177
f 180 181 182
f 177 182 181
f 177 181 179
f 179 181 180
f 180 178 179
f 178 180 182
f 182 177 178
usemtl APPID_2655953248_1733526557040 
o vid_24 
f 183 190 191
f 184 191 192
f 185 192 193
f 186 193 194
f 187 194 195
f 183 191 184
f 184 192 185
f 185 193 186
f 186 194 187
f 187 195 188
f 188 195 196
f 188 196 189
usemtl APPID_2655955824_1733526560496 
o vid_25 
f 199 198 197
f 200 201 202
f 197 202 201
f 197 201 199
f 199 201 200
f 200 198 199
f 198 200 202
f 202 197 198
usemtl APPID_2655953248_1733526557040 
o vid_26 
f 203 209 210
f 204 210 211
f 205 211 212
f 206 212 213
f 203 210 204
f 204 211 205
f 205 212 206
f 206 213 207
f 207 213 214
usemtl APPID_2655955824_1733526560496 
o vid_27 
f 217 216 215
f 218 219 220
f 215 220 219
f 215 219 217
f 217 219 218
f 218 216 217
f 216 218 220
f 220 215 216
usemtl APPID_2655953248_1733526557040 
o vid_28 
f 221 226 227
f 222 227 228
f 223 228 229
f 221 227 222
f 222 228 223
f 223 229 224
f 224 229 230
usemtl APPID_2655955824_1733526560496 
o vid_29 
f 233 232 231
f 234 235 236
f 231 236 235
f 231 235 233
f 233 235 234
f 234 232 233
f 232 234 236
f 236 231 232
usemtl APPID_2655953248_1733526557040 
o vid_30 
f 237 242 243
f 238 243 244
f 239 244 245
f 237 243 238
f 238 244 239
f 239 245 240
f 240 245 246
usemtl APPID_2655956720_1733526557168 
o vid_10000004 
f 247 254 255
f 248 255 256
f 249 256 257
f 250 257 258
f 251 258 259
f 247 255 248
f 248 256 249
f 249 257 250
f 250 258 251
f 251 259 252
f 252 259 260
usemtl APPID_2655956720_1733526557168 
o vid_10000006 
f 261 266 267
f 262 267 268
f 263 268 269
f 261 267 262
f 262 268 263
f 263 269 264
f 264 269 270
usemtl APPID_2655956720_1733526557168 
o vid_10000008 
f 271 275 276
f 272 276 277
f 271 276 272
f 272 277 273
f 273 277 278
usemtl APPID_2655956720_1733526557168 
o vid_10000010 
f 279 283 284
f 280 284 285
f 279 284 280
f 280 285 281
f 281 285 286
usemtl APPID_2655956720_1733526557168 
o vid_10000012 
f 287 290 291
f 287 291 288
f 288 291 292
usemtl APPID_2655956720_1733526557168 
o vid_10000014 
f 293 295 296
f 293 296 294
f 293 295 296
usemtl APPID_2655956720_1733526557168 
o vid_10000016 
f 297 299 300
f 297 300 298
f 297 299 300
usemtl APPID_2655956720_1733526557168 
o vid_10000018 
f 301 303 304
f 301 304 302
f 301 303 304
usemtl APPID_2655956720_1733526557168 
o vid_10000020 
f 305 307 308
f 305 308 306
f 305 307 308
usemtl APPID_2655956720_1733526557168 
o vid_10000022 
f 309 311 312
f 309 312 310
f 309 311 312
usemtl APPID_2655956720_1733526557168 
o vid_10000024 
f 313 315 316
f 313 316 314
f 313 315 316
