# File generated by PlantGL - Fri Sep  4 14:43:33 2026
v    18.764992 139.398387 0.000000
v    21.138516 139.231258 0.000000
v    20.096492 141.370354 0.000000
v    21.235008 140.601613 0.331061
v    18.861484 140.768742 0.331061
v    19.903508 138.629646 0.331061
v    20.836183 141.167762 -0.051335
v    21.935111 141.585193 1.062520
v    23.227923 142.067273 1.927570
v    23.598577 142.209919 2.027784
v    24.686126 142.596154 2.318240
v    25.373138 142.751626 2.491906
v    25.891821 142.870099 2.381928
v    21.434956 139.938584 -0.051335
v    22.441054 140.546580 1.062520
v    23.617571 141.267392 1.927570
v    23.958373 141.471319 2.027784
v    24.932892 142.089585 2.318240
v    25.478804 142.534711 2.491906
v    25.891821 142.870099 2.381928
v    20.797818 140.639095 0.331061
v    19.047619 140.371383 0.331061
v    20.154563 138.989522 0.331061
v    19.202182 139.360905 0.718770
v    20.952381 139.628617 0.718770
v    19.845437 141.010478 0.718770
v    19.966117 138.652937 0.187722
v    18.605158 137.751325 1.734575
v    17.591822 137.061000 2.504576
v    17.015124 136.685618 2.935904
v    15.560643 135.712898 3.377420
v    14.411053 134.986817 3.719619
v    12.647605 134.110340 3.311212
v    18.678018 140.260943 0.187722
v    17.501101 139.129582 1.734575
v    16.606250 138.291346 2.504576
v    16.114047 137.810483 2.935904
v    14.847325 136.603373 3.377420
v    13.887841 135.639973 3.719619
v    12.647605 134.110340 3.311212
v    19.353398 139.748772 0.718770
v    20.540871 139.565640 0.718770
v    20.105731 140.685587 0.718770
v    20.646602 140.251228 0.982000
v    19.459129 140.434360 0.982000
v    19.894269 139.314413 0.982000
v    20.007036 141.165475 -0.484873
v    21.709262 141.558922 2.017438
v    22.220190 141.692136 2.523700
v    23.801592 142.045977 4.070219
v    25.927941 142.303217 5.116158
v    20.792061 139.145003 -0.484873
v    22.313396 140.004024 2.017438
v    22.780236 140.250709 2.523700
v    24.185700 141.057372 4.070219
v    25.927941 142.303217 5.116158
mtllib usm_17_2.5D_2018-07-21_3.mtl
usemtl APPID_1925994336_2183767532128 
o vid_3 
f 3 2 1
f 4 5 6
f 1 6 5
f 1 5 3
f 3 5 4
f 4 2 3
f 2 4 6
f 6 1 2
usemtl APPID_1925997808_2183767533792 
o vid_4 
f 7 14 15
f 8 15 16
f 9 16 17
f 10 17 18
f 11 18 19
f 7 15 8
f 8 16 9
f 9 17 10
f 10 18 11
f 11 19 12
f 12 19 20
usemtl APPID_1925994336_2183767532128 
o vid_5 
f 23 22 21
f 24 25 26
f 21 26 25
f 21 25 23
f 23 25 24
f 24 22 23
f 22 24 26
f 26 21 22
usemtl APPID_1925997808_2183767533792 
o vid_6 
f 27 34 35
f 28 35 36
f 29 36 37
f 30 37 38
f 31 38 39
f 27 35 28
f 28 36 29
f 29 37 30
f 30 38 31
f 31 39 32
f 32 39 40
usemtl APPID_1925994336_2183767532128 
o vid_7 
f 43 42 41
f 44 45 46
f 41 46 45
f 41 45 43
f 43 45 44
f 44 42 43
f 42 44 46
f 46 41 42
usemtl APPID_1925997808_2183767533792 
o vid_8 
f 47 52 53
f 48 53 54
f 49 54 55
f 47 53 48
f 48 54 49
f 49 55 50
f 50 55 56
