# File generated by PlantGL - Fri Sep  4 14:42:38 2026
v    17.752484 218.905161 0.000000
v    22.071916 218.601013 0.000000
v    20.175600 222.493825 0.000000
v    22.247516 221.094839 0.848509
v    17.928084 221.398987 0.848509
v    19.824400 217.506175 0.848509
v    22.063377 221.447113 0.691680
v    22.454722 221.596317 1.080872
v    23.192634 221.873078 1.632769
v    24.004752 222.190096 1.912210
v    24.575368 222.387128 2.104932
v    25.186680 222.526602 2.097933
v    22.411393 220.732694 0.691680
v    22.770113 220.948872 1.080872
v    23.442907 221.359312 1.632769
v    24.193141 221.803366 1.912210
v    24.700028 222.131222 2.104932
v    25.186680 222.526602 2.097933
v    21.810286 221.450135 0.848509
v    17.839003 220.842686 0.848509
v    20.350711 217.707179 0.848509
v    18.189714 218.549865 1.417165
v    22.160997 219.157314 1.417165
v    19.649289 222.292821 1.417165
v    18.559982 218.113171 1.195019
v    17.976919 217.725871 1.845469
v    17.133687 217.170915 2.528060
v    15.995449 216.401774 2.968390
v    15.387015 216.024912 3.196872
v    15.156478 215.880281 3.193774
v    14.461926 215.563708 3.185293
v    17.844363 219.006518 1.195019
v    17.339142 218.522045 1.845469
v    16.613522 217.820266 2.528060
v    15.614493 216.877342 2.968390
v    15.113920 216.365831 3.196872
v    14.922459 216.172420 3.193774
v    14.461926 215.563708 3.185293
v    18.257948 219.323150 1.417165
v    21.457195 218.829763 1.417165
v    20.284857 221.847086 1.417165
v    21.742052 220.676850 2.253766
v    18.542805 221.170237 2.253766
v    19.715143 218.152914 2.253766
v    21.456315 221.351066 1.945297
v    21.711944 221.424997 2.192576
v    22.410544 221.614671 2.864174
v    23.742430 221.993941 3.796337
v    24.690451 222.276277 4.113399
v    26.002269 222.610906 4.545603
v    26.576038 222.674815 4.725039
v    27.027983 222.730623 4.719980
v    21.986468 219.986578 1.945297
v    22.224955 220.104629 2.192576
v    22.868356 220.436371 2.864174
v    24.106926 221.055815 3.796337
v    24.996881 221.487598 4.113399
v    26.190507 222.126425 4.545603
v    26.656913 222.466661 4.725039
v    27.027983 222.730623 4.719980
v    21.408274 220.333135 2.253766
v    19.007360 221.053033 2.253766
v    19.584367 218.613832 2.253766
v    18.591726 219.666865 4.112548
v    20.992640 218.946967 4.112548
v    20.415633 221.386168 4.112548
v    18.859148 218.667453 3.692651
v    18.079899 218.555071 4.424260
v    17.524774 218.484292 4.943454
v    15.657908 218.222885 6.212342
v    13.780018 217.936854 6.821210
v    11.948586 217.731868 7.409539
v    10.516199 217.756552 7.462996
v    18.383029 220.680168 3.692651
v    17.636017 220.431504 4.424260
v    17.108016 220.246063 4.943454
v    15.321893 219.643334 6.212342
v    13.514880 219.057680 6.821210
v    11.785713 218.420386 7.409539
v    10.516199 217.756552 7.462996
v    19.305523 219.206960 4.112548
v    21.034031 219.795085 4.112548
v    19.660446 220.997955 4.112548
v    20.694477 220.793040 5.806594
v    18.965969 220.204915 5.806594
v    20.339554 219.002045 5.806594
v    19.640942 221.662118 5.246277
v    20.280166 222.272726 6.067731
v    20.951092 222.892877 6.915367
v    22.777177 224.622915 8.608589
v    24.440618 226.237284 9.351592
v    26.271903 227.878567 10.136667
v    27.840302 228.953020 10.280081
v    21.694962 219.863381 5.246277
v    22.215893 220.577580 6.067731
v    22.742100 221.324463 6.915367
v    24.216079 223.362845 8.608589
v    25.596861 225.224743 9.351592
v    26.982176 227.256569 10.136667
v    27.840302 228.953020 10.280081
v    20.581506 220.371275 5.806594
v    19.387714 220.317961 5.806594
v    20.030781 219.310764 5.806594
v    19.418494 219.628725 8.084000
v    20.612286 219.682039 8.084000
v    19.969219 220.689236 8.084000
v    19.938862 218.489884 6.652096
v    18.737197 218.001069 9.402090
v    16.973375 217.334937 12.201210
v    16.507545 217.268363 12.840219
v    15.198942 216.934661 13.913534
v    18.604374 220.580013 6.652096
v    17.655271 219.695625 9.402090
v    16.308754 218.375893 12.201210
v    16.052335 217.981332 12.840219
v    15.198942 216.934661 13.913534
mtllib usm_20_2.5D_2018-07-18_5.mtl
usemtl APPID_3718613264_1872025219056 
o vid_3 
f 3 2 1
f 4 5 6
f 1 6 5
f 1 5 3
f 3 5 4
f 4 2 3
f 2 4 6
f 6 1 2
usemtl APPID_3718613376_1872025217904 
o vid_4 
f 7 13 14
f 8 14 15
f 9 15 16
f 10 16 17
f 7 14 8
f 8 15 9
f 9 16 10
f 10 17 11
f 11 17 18
usemtl APPID_3718613264_1872025219056 
o vid_5 
f 21 20 19
f 22 23 24
f 19 24 23
f 19 23 21
f 21 23 22
f 22 20 21
f 20 22 24
f 24 19 20
usemtl APPID_3718613376_1872025217904 
o vid_6 
f 25 32 33
f 26 33 34
f 27 34 35
f 28 35 36
f 29 36 37
f 25 33 26
f 26 34 27
f 27 35 28
f 28 36 29
f 29 37 30
f 30 37 38
usemtl APPID_3718613264_1872025219056 
o vid_7 
f 41 40 39
f 42 43 44
f 39 44 43
f 39 43 41
f 41 43 42
f 42 40 41
f 40 42 44
f 44 39 40
usemtl APPID_3718613376_1872025217904 
o vid_8 
f 45 53 54
f 46 54 55
f 47 55 56
f 48 56 57
f 49 57 58
f 50 58 59
f 45 54 46
f 46 55 47
f 47 56 48
f 48 57 49
f 49 58 50
f 50 59 51
f 51 59 60
usemtl APPID_3718613264_1872025219056 
o vid_9 
f 63 62 61
f 64 65 66
f 61 66 65
f 61 65 63
f 63 65 64
f 64 62 63
f 62 64 66
f 66 61 62
usemtl APPID_3718613376_1872025217904 
o vid_10 
f 67 74 75
f 68 75 76
f 69 76 77
f 70 77 78
f 71 78 79
f 67 75 68
f 68 76 69
f 69 77 70
f 70 78 71
f 71 79 72
f 72 79 80
usemtl APPID_3718613264_1872025219056 
o vid_11 
f 83 82 81
f 84 85 86
f 81 86 85
f 81 85 83
f 83 85 84
f 84 82 83
f 82 84 86
f 86 81 82
usemtl APPID_3718613376_1872025217904 
o vid_12 
f 87 94 95
f 88 95 96
f 89 96 97
f 90 97 98
f 91 98 99
f 87 95 88
f 88 96 89
f 89 97 90
f 90 98 91
f 91 99 92
f 92 99 100
usemtl APPID_3718613264_1872025219056 
o vid_13 
f 103 102 101
f 104 105 106
f 101 106 105
f 101 105 103
f 103 105 104
f 104 102 103
f 102 104 106
f 106 101 102
usemtl APPID_3718613376_1872025217904 
o vid_14 
f 107 112 113
f 108 113 114
f 109 114 115
f 107 113 108
f 108 114 109
f 109 115 110
f 110 115 116
