# File generated by PlantGL - Fri Sep  4 14:43:43 2026
v    18.201987 19.124129 0.000000
v    21.657533 18.880811 0.000000
v    20.140480 21.995060 0.000000
v    21.798013 20.875871 0.331061
v    18.342467 21.119189 0.331061
v    19.859520 18.004940 0.331061
v    21.399188 21.442020 -0.051335
v    22.498116 21.859451 1.062520
v    23.790928 22.341531 1.927570
v    24.161582 22.484177 2.027784
v    25.249131 22.870413 2.318240
v    25.936143 23.025884 2.491906
v    26.454826 23.144357 2.381928
v    21.997961 20.212842 -0.051335
v    23.004059 20.820838 1.062520
v    24.180576 21.541650 1.927570
v    24.521378 21.745577 2.027784
v    25.495897 22.363843 2.318240
v    26.041809 22.808969 2.491906
v    26.454826 23.144357 2.381928
v    21.317408 21.055314 0.331061
v    18.427368 20.613252 0.331061
v    20.255225 18.331435 0.331061
v    18.682592 18.944686 0.718770
v    21.572632 19.386748 0.718770
v    19.744775 21.668565 0.718770
v    19.446527 18.236718 0.187722
v    18.085569 17.335106 1.734575
v    17.072233 16.644781 2.504576
v    16.495535 16.269399 2.935904
v    15.041054 15.296680 3.377420
v    13.891464 14.570599 3.719619
v    12.128016 13.694121 3.311212
v    18.158429 19.844724 0.187722
v    16.981512 18.713363 1.734575
v    16.086660 17.875128 2.504576
v    15.594458 17.394264 2.935904
v    14.327736 16.187155 3.377420
v    13.368251 15.223754 3.719619
v    12.128016 13.694121 3.311212
v    18.756536 19.516870 0.718770
v    21.040135 19.164694 0.718770
v    20.203329 21.318437 0.718770
v    21.243464 20.483130 1.487000
v    18.959865 20.835306 1.487000
v    19.796671 18.681563 1.487000
v    20.532671 21.737680 0.767236
v    22.658970 22.349802 2.863786
v    24.628580 22.944485 4.155835
v    25.145161 23.088689 4.492024
v    27.856560 23.882068 5.204874
v    29.198606 24.236974 5.554243
v    29.963268 24.440009 5.387364
v    32.278469 24.770626 4.903934
v    21.566136 19.077782 0.767236
v    23.547939 20.061804 2.863786
v    25.402381 20.952903 4.155835
v    25.880812 21.195296 4.492024
v    28.416606 22.440641 5.204874
v    29.646221 23.084917 5.554243
v    30.347376 23.451404 5.387364
v    32.278469 24.770626 4.903934
v    20.976114 20.230905 1.487000
v    19.311973 20.729887 1.487000
v    19.711913 19.039208 1.487000
v    19.023886 19.769095 2.857581
v    20.688027 19.270113 2.857581
v    20.288087 20.960792 2.857581
v    19.735076 17.958984 1.905483
v    16.837655 17.544752 4.678783
v    13.664862 17.049230 6.695426
v    9.195498 16.393120 7.917221
v    7.931309 16.240385 8.237698
v    6.328674 16.045130 7.897154
v    3.235095 16.034165 7.257677
v    18.848698 21.706000 1.905483
v    16.072771 20.778168 4.678783
v    13.014237 19.799634 6.695426
v    8.724603 18.383752 7.917221
v    7.525969 17.953892 8.237698
v    6.005710 17.410408 7.897154
v    3.235095 16.034165 7.257677
v    19.542088 19.477099 2.857581
v    20.681801 19.864887 2.857581
v    19.776111 20.658014 2.857581
v    20.457912 20.522901 4.151970
v    19.318199 20.135113 4.151970
v    20.223889 19.341986 4.151970
v    18.312173 21.530435 1.678956
v    20.939559 24.013594 5.424284
v    21.956631 25.003539 6.406626
v    24.067408 26.970945 8.399843
v    25.829674 28.661286 9.133363
v    28.540396 31.127090 10.231205
v    29.378531 31.722953 10.532869
v    31.786097 33.458814 10.053323
v    21.739747 18.528854 1.678956
v    23.854541 21.460898 5.424284
v    24.701639 22.599692 6.406626
v    26.373350 24.951596 8.399843
v    27.816400 26.921478 9.133363
v    29.902995 29.933840 10.231205
v    30.383066 30.843266 10.532869
v    31.786097 33.458814 10.053323
v    20.345609 20.220662 4.151970
v    19.636097 20.188976 4.151970
v    20.018294 19.590363 4.151970
v    19.654391 19.779338 4.590000
v    20.363903 19.811024 4.590000
v    19.981706 20.409637 4.590000
v    20.121104 18.384673 1.644515
v    19.954539 18.617186 4.262848
v    19.454047 19.358540 8.189091
v    19.135911 19.448304 9.250499
v    18.585621 20.789608 1.644515
v    18.726453 20.540665 4.262848
v    19.188358 19.774673 8.189091
v    19.135911 19.448304 9.250499
mtllib usm_17_2.5D_2018-08-03_0.mtl
usemtl APPID_1925997584_2183767601760 
o vid_3 
f 3 2 1
f 4 5 6
f 1 6 5
f 1 5 3
f 3 5 4
f 4 2 3
f 2 4 6
f 6 1 2
usemtl APPID_1925999488_2183767602400 
o vid_4 
f 7 14 15
f 8 15 16
f 9 16 17
f 10 17 18
f 11 18 19
f 7 15 8
f 8 16 9
f 9 17 10
f 10 18 11
f 11 19 12
f 12 19 20
usemtl APPID_1925997584_2183767601760 
o vid_5 
f 23 22 21
f 24 25 26
f 21 26 25
f 21 25 23
f 23 25 24
f 24 22 23
f 22 24 26
f 26 21 22
usemtl APPID_1925999488_2183767602400 
o vid_6 
f 27 34 35
f 28 35 36
f 29 36 37
f 30 37 38
f 31 38 39
f 27 35 28
f 28 36 29
f 29 37 30
f 30 38 31
f 31 39 32
f 32 39 40
usemtl APPID_1925997584_2183767601760 
o vid_7 
f 43 42 41
f 44 45 46
f 41 46 45
f 41 45 43
f 43 45 44
f 44 42 43
f 42 44 46
f 46 41 42
usemtl APPID_1925999488_2183767602400 
o vid_8 
f 47 55 56
f 48 56 57
f 49 57 58
f 50 58 59
f 51 59 60
f 52 60 61
f 47 56 48
f 48 57 49
f 49 58 50
f 50 59 51
f 51 60 52
f 52 61 53
f 53 61 62
usemtl APPID_1925997584_2183767601760 
o vid_9 
f 65 64 63
f 66 67 68
f 63 68 67
f 63 67 65
f 65 67 66
f 66 64 65
f 64 66 68
f 68 63 64
usemtl APPID_1925999488_2183767602400 
o vid_10 
f 69 76 77
f 70 77 78
f 71 78 79
f 72 79 80
f 73 80 81
f 69 77 70
f 70 78 71
f 71 79 72
f 72 80 73
f 73 81 74
f 74 81 82
usemtl APPID_1925997584_2183767601760 
o vid_11 
f 85 84 83
f 86 87 88
f 83 88 87
f 83 87 85
f 85 87 86
f 86 84 85
f 84 86 88
f 88 83 84
usemtl APPID_1925999488_2183767602400 
o vid_12 
f 89 97 98
f 90 98 99
f 91 99 100
f 92 100 101
f 93 101 102
f 94 102 103
f 89 98 90
f 90 99 91
f 91 100 92
f 92 101 93
f 93 102 94
f 94 103 95
f 95 103 104
usemtl APPID_1925997584_2183767601760 
o vid_13 
f 107 106 105
f 108 109 110
f 105 110 109
f 105 109 107
f 107 109 108
f 108 106 107
f 106 108 110
f 110 105 106
usemtl APPID_1925999488_2183767602400 
o vid_14 
f 111 115 116
f 112 116 117
f 111 116 112
f 112 117 113
f 113 117 118
