# File generated by PlantGL - Fri Sep  4 14:42:03 2026
v    18.201987 99.124129 0.000000
v    21.657533 98.880811 0.000000
v    20.140480 101.995060 0.000000
v    21.798013 100.875871 0.331061
v    18.342467 101.119189 0.331061
v    19.859520 98.004940 0.331061
v    21.383011 101.452572 -0.085637
v    22.230290 101.774414 0.773151
v    22.584556 101.899155 1.128134
v    23.805267 102.351593 1.944180
v    24.964051 102.759653 2.328973
v    26.273324 103.055942 2.659937
v    21.996298 100.193600 -0.085637
v    22.772004 100.662368 0.773151
v    23.088606 100.864428 1.128134
v    24.197338 101.546739 1.944180
v    25.232953 102.207642 2.328973
v    26.273324 103.055942 2.659937
v    21.503548 101.204422 0.331061
v    18.205166 100.699900 0.331061
v    20.291286 98.095678 0.331061
v    18.496452 98.795578 0.718770
v    21.794834 99.300100 0.718770
v    19.708714 101.904322 0.718770
v    19.285308 98.076928 0.143568
v    17.811194 97.100353 1.819033
v    17.373791 96.802376 2.151401
v    16.078418 95.959196 3.120245
v    15.264277 95.414720 3.367383
v    13.796524 94.487688 3.804288
v    13.192971 94.200122 3.969121
v    12.115514 93.684107 3.722176
v    17.967303 99.722267 0.143568
v    16.692533 98.496840 1.819033
v    16.306274 98.135018 2.151401
v    15.200694 97.054908 3.120245
v    14.491651 96.379232 3.367383
v    13.266618 95.149200 3.804288
v    12.854254 94.622962 3.969121
v    12.115514 93.684107 3.722176
v    18.272844 99.328938 0.718770
v    21.444735 98.839770 0.718770
v    20.282421 101.831292 0.718770
v    21.727156 100.671062 1.487000
v    18.555265 101.160230 1.487000
v    19.717579 98.168708 1.487000
v    20.989748 101.949782 0.711738
v    23.279998 102.609103 2.969945
v    24.437159 102.958484 3.729033
v    25.965589 103.385147 4.723730
v    27.777673 103.915378 5.200142
v    30.039705 104.513576 5.789008
v    32.530784 104.868659 5.413822
v    22.046515 99.229915 0.711738
v    24.181127 100.289811 2.969945
v    25.270625 100.813338 3.729033
v    26.686179 101.530519 4.723730
v    28.380902 102.362808 5.200142
v    30.453431 103.448743 5.789008
v    32.530784 104.868659 5.413822
v    21.731622 100.409625 1.487000
v    18.779443 101.294816 1.487000
v    19.488935 98.295559 1.487000
v    18.268378 99.590375 2.857087
v    21.220557 98.705184 2.857087
v    20.511065 101.704441 2.857087
v    19.008159 97.745038 1.836837
v    15.903336 97.301155 4.808653
v    13.742868 96.963736 6.181858
v    12.264930 96.764615 7.116646
v    9.130877 96.302601 7.916002
v    6.344666 95.965979 8.622319
v    2.756504 95.920951 7.879028
v    18.102967 101.571582 1.836837
v    15.128337 100.577336 4.808653
v    13.045671 99.911017 6.181858
v    11.635161 99.426859 7.116646
v    8.626274 98.435724 7.916002
v    5.984544 97.488335 8.622319
v    2.756504 95.920951 7.879028
v    18.931011 98.779297 2.857087
v    21.591655 99.684580 2.857087
v    19.477335 101.536124 2.857087
v    21.068989 101.220703 4.462301
v    18.408345 100.315420 4.462301
v    20.522665 98.463876 4.462301
v    18.755819 102.742331 3.151326
v    19.460014 103.413673 4.073222
v    21.673267 105.522656 6.969974
v    25.049724 108.824342 9.935641
v    30.286844 113.884436 11.773572
v    33.231255 116.575186 11.110145
v    36.691123 119.059975 10.229628
v    22.882513 99.128519 3.151326
v    23.455076 99.915134 4.073222
v    25.253605 102.387297 6.969974
v    28.080937 106.169861 9.935641
v    32.405809 112.028824 11.773572
v    34.684551 115.302512 11.110145
v    36.691123 119.059975 10.229628
v    21.093700 100.698296 4.462301
v    18.848408 100.598024 4.462301
v    20.057892 98.703680 4.462301
v    18.906300 99.301704 11.576758
v    21.151592 99.401976 11.576758
v    19.942108 101.296320 11.576758
v    21.335058 96.381771 9.931963
v    16.912785 94.076500 14.658427
v    11.626934 91.252183 18.443805
v    6.091052 88.223076 20.038353
v    3.167002 86.692206 20.871175
v    -0.905737 84.555945 19.898629
v    -5.400046 82.345018 18.842142
v    -10.044787 80.813989 16.572730
v    -10.055057 80.810704 16.566572
v    17.279540 102.733689 9.931963
v    13.327372 99.692119 14.658427
v    8.540950 96.085577 18.443805
v    3.463537 92.338398 20.038353
v    0.844336 90.330060 20.871175
v    -2.807426 87.534448 19.898629
v    -6.704322 84.387830 18.842142
v    -10.047755 80.818637 16.572730
v    -10.055057 80.810704 16.566572
v    19.192233 99.418002 11.576758
v    20.907909 99.591452 11.576758
v    19.899858 100.990546 11.576758
v    20.807767 100.581998 22.058017
v    19.092091 100.408548 22.058017
v    20.100142 99.009454 22.058017
v    17.544200 104.114562 20.043090
v    21.009250 106.398076 23.987808
v    22.757125 107.432337 25.912231
v    26.496183 109.710402 28.661858
v    28.955815 111.208265 30.470366
v    38.946310 117.427338 33.443971
v    48.212258 122.994831 31.157648
v    53.222511 125.766635 28.803746
v    58.177550 127.507015 24.706592
v    23.125596 96.368028 20.043090
v    26.388540 98.932049 23.987808
v    27.922902 100.262648 25.912231
v    31.267414 103.088311 28.661858
v    33.466845 104.947314 30.470366
v    42.528587 112.455422 33.443971
v    50.742901 119.482500 31.157648
v    54.958157 123.357697 28.803746
v    58.177550 127.507015 24.706592
v    20.600444 100.391049 22.058017
v    19.361120 100.324475 22.058017
v    20.038437 99.284476 22.058017
v    19.399556 99.608951 37.257050
v    20.638880 99.675525 37.257050
v    19.961563 100.715524 37.257050
v    23.013501 95.337268 34.846943
v    16.492077 91.829790 41.867176
v    8.872764 87.668111 47.319281
v    0.029529 82.724934 49.879239
v    -3.453725 80.860997 50.876089
v    -10.180561 77.254703 49.262043
v    -16.736491 73.955669 47.713981
v    -21.892719 72.217061 45.040585
v    -23.408543 71.729461 44.042480
v    16.953945 104.641530 34.846943
v    11.109061 100.095244 41.867176
v    4.221914 94.809348 47.319281
v    -3.874887 88.720044 49.879239
v    -6.988100 86.287921 50.876089
v    -13.006419 81.593721 49.262043
v    -18.674611 76.931592 47.713981
v    -22.349661 72.918682 45.040585
v    -23.408543 71.729461 44.042480
v    19.597299 99.776646 37.257050
v    20.394781 99.762927 37.257050
v    20.007921 100.460426 37.257050
v    20.402701 100.223354 43.537000
v    19.605219 100.237073 43.537000
v    19.992079 99.539574 43.537000
v    18.175879 103.512213 37.828727
v    22.163020 104.657394 48.238423
v    26.613113 106.039356 55.640984
v    28.919794 106.285633 58.983336
v    32.959419 107.187793 62.246476
v    22.013606 96.592883 37.828727
v    25.096239 99.368871 48.238423
v    28.624866 102.412214 55.640984
v    30.055155 104.238605 58.983336
v    32.959419 107.187793 62.246476
mtllib usm_13_Beer_2018-08-22_2.mtl
usemtl APPID_96479120_1597823648096 
o vid_3 
f 3 2 1
f 4 5 6
f 1 6 5
f 1 5 3
f 3 5 4
f 4 2 3
f 2 4 6
f 6 1 2
usemtl APPID_96482032_1597823640672 
o vid_4 
f 7 13 14
f 8 14 15
f 9 15 16
f 10 16 17
f 7 14 8
f 8 15 9
f 9 16 10
f 10 17 11
f 11 17 18
usemtl APPID_96479120_1597823648096 
o vid_5 
f 21 20 19
f 22 23 24
f 19 24 23
f 19 23 21
f 21 23 22
f 22 20 21
f 20 22 24
f 24 19 20
usemtl APPID_96482032_1597823640672 
o vid_6 
f 25 33 34
f 26 34 35
f 27 35 36
f 28 36 37
f 29 37 38
f 30 38 39
f 25 34 26
f 26 35 27
f 27 36 28
f 28 37 29
f 29 38 30
f 30 39 31
f 31 39 40
usemtl APPID_96479120_1597823648096 
o vid_7 
f 43 42 41
f 44 45 46
f 41 46 45
f 41 45 43
f 43 45 44
f 44 42 43
f 42 44 46
f 46 41 42
usemtl APPID_96482032_1597823640672 
o vid_8 
f 47 54 55
f 48 55 56
f 49 56 57
f 50 57 58
f 51 58 59
f 47 55 48
f 48 56 49
f 49 57 50
f 50 58 51
f 51 59 52
f 52 59 60
usemtl APPID_96479120_1597823648096 
o vid_9 
f 63 62 61
f 64 65 66
f 61 66 65
f 61 65 63
f 63 65 64
f 64 62 63
f 62 64 66
f 66 61 62
usemtl APPID_96482032_1597823640672 
o vid_10 
f 67 74 75
f 68 75 76
f 69 76 77
f 70 77 78
f 71 78 79
f 67 75 68
f 68 76 69
f 69 77 70
f 70 78 71
f 71 79 72
f 72 79 80
usemtl APPID_96479120_1597823648096 
o vid_11 
f 83 82 81
f 84 85 86
f 81 86 85
f 81 85 83
f 83 85 84
f 84 82 83
f 82 84 86
f 86 81 82
usemtl APPID_96482032_1597823640672 
o vid_12 
f 87 94 95
f 88 95 96
f 89 96 97
f 90 97 98
f 91 98 99
f 87 95 88
f 88 96 89
f 89 97 90
f 90 98 91
f 91 99 92
f 92 99 100
usemtl APPID_96479120_1597823648096 
o vid_13 
f 103 102 101
f 104 105 106
f 101 106 105
f 101 105 103
f 103 105 104
f 104 102 103
f 102 104 106
f 106 101 102
usemtl APPID_96482032_1597823640672 
o vid_14 
f 107 116 117
f 108 117 118
f 109 118 119
f 110 119 120
f 111 120 121
f 112 121 122
f 113 122 123
f 107 117 108
f 108 118 109
f 109 119 110
f 110 120 111
f 111 121 112
f 112 122 113
f 113 123 114
f 114 123 124
usemtl APPID_96479120_1597823648096 
o vid_15 
f 127 126 125
f 128 129 130
f 125 130 129
f 125 129 127
f 127 129 128
f 128 126 127
f 126 128 130
f 130 125 126
usemtl APPID_96482032_1597823640672 
o vid_16 
f 131 140 141
f 132 141 142
f 133 142 143
f 134 143 144
f 135 144 145
f 136 145 146
f 137 146 147
f 131 141 132
f 132 142 133
f 133 143 134
f 134 144 135
f 135 145 136
f 136 146 137
f 137 147 138
f 138 147 148
usemtl APPID_96479120_1597823648096 
o vid_17 
f 151 150 149
f 152 153 154
f 149 154 153
f 149 153 151
f 151 153 152
f 152 150 151
f 150 152 154
f 154 149 150
usemtl APPID_96482032_1597823640672 
o vid_18 
f 155 164 165
f 156 165 166
f 157 166 167
f 158 167 168
f 159 168 169
f 160 169 170
f 161 170 171
f 155 165 156
f 156 166 157
f 157 167 158
f 158 168 159
f 159 169 160
f 160 170 161
f 161 171 162
f 162 171 172
usemtl APPID_96479120_1597823648096 
o vid_19 
f 175 174 173
f 176 177 178
f 173 178 177
f 173 177 175
f 175 177 176
f 176 174 175
f 174 176 178
f 178 173 174
usemtl APPID_96482032_1597823640672 
o vid_20 
f 179 184 185
f 180 185 186
f 181 186 187
f 179 185 180
f 180 186 181
f 181 187 182
f 182 187 188
