# File generated by PlantGL - Fri Sep  4 14:43:22 2026
v    19.434416 59.724486 0.000000
v    20.521394 59.647947 0.000000
v    20.044189 60.627567 0.000000
v    20.565584 60.275514 0.188000
v    19.478606 60.352053 0.188000
v    19.955811 59.372433 0.188000
v    20.347450 60.265726 -5.816771
v    20.491134 60.239248 -5.454560
v    20.423413 60.109787 -5.816771
v    20.491134 60.239248 -5.454560
mtllib usm_13_2.5D_2018-07-08_1.mtl
usemtl APPID_96704928_1597823729248 
o vid_3 
f 3 2 1
f 4 5 6
f 1 6 5
f 1 5 3
f 3 5 4
f 4 2 3
f 2 4 6
f 6 1 2
usemtl APPID_96702688_1597823729120 
o vid_4 
f 7 9 10
f 7 10 8
f 7 9 10
