# File generated by PlantGL - Fri Sep  4 14:43:48 2026
v    18.201987 219.124129 0.000000
v    21.657533 218.880811 0.000000
v    20.140480 221.995060 0.000000
v    21.798013 220.875871 0.331061
v    18.342467 221.119189 0.331061
v    19.859520 218.004940 0.331061
v    20.738662 221.084254 -2.645931
v    22.886429 221.406074 -0.674825
v    21.309086 219.913271 -2.645931
v    22.886429 221.406074 -0.674825
v    21.503548 221.204422 0.331061
v    18.205166 220.699900 0.331061
v    20.291286 218.095678 0.331061
v    18.496452 218.795578 0.771522
v    21.794834 219.300100 0.771522
v    19.708714 221.904322 0.771522
v    20.071010 218.207304 -2.205470
v    15.584491 216.462942 2.163509
v    18.266023 220.460571 -2.205470
v    15.584491 216.462942 2.163509
v    18.299765 219.339398 0.771522
v    21.422216 218.857854 0.771522
v    20.278019 221.802748 0.771522
v    21.700235 220.660602 1.487405
v    18.577784 221.142146 1.487405
v    19.721981 218.197252 1.487405
v    20.103843 222.391652 -1.489587
v    27.396444 222.873784 5.143735
v    21.691329 218.305837 -1.489587
v    27.396444 222.873784 5.143735
v    21.434066 220.339237 1.487405
v    18.989180 221.072319 1.487405
v    19.576755 218.588444 1.487405
v    18.565934 219.660763 2.987040
v    21.010820 218.927681 2.987040
v    20.423245 221.411556 2.987040
v    20.091510 216.952285 0.010048
v    14.779613 216.511189 5.024673
v    10.761056 216.802167 8.681523
v    6.972543 216.918280 10.986891
v    18.716314 222.765699 0.010048
v    13.769777 220.780102 5.024673
v    10.307502 218.719491 8.681523
v    6.972543 216.918280 10.986891
v    19.244869 219.137699 2.987040
v    21.124340 219.777188 2.987040
v    19.630791 221.085113 2.987040
v    20.755131 220.862301 4.897980
v    18.875660 220.222812 4.897980
v    20.369209 218.914887 4.897980
v    17.439384 222.621339 1.920988
v    20.384703 225.293534 5.679711
v    24.371474 228.666048 10.592463
v    25.703548 229.842296 11.702610
v    32.722310 234.527898 16.835502
v    22.936270 217.807629 1.920988
v    25.196499 221.079768 5.679711
v    28.013515 225.476655 10.592463
v    29.003727 226.952277 11.702610
v    32.722310 234.527898 16.835502
v    20.709469 220.452976 4.897980
v    19.252977 220.387931 4.897980
v    20.037554 219.159093 4.897980
v    19.290531 219.547024 12.075822
v    20.747023 219.612069 12.075822
v    19.962446 220.840907 12.075822
v    22.505676 216.111484 9.098829
v    20.464606 215.054205 11.276864
v    14.288703 212.044327 17.770304
v    10.348328 210.043422 20.540457
v    4.606885 207.340312 24.504808
v    3.055057 206.578837 24.939849
v    -5.994268 203.403401 27.304334
v    17.526959 223.909352 9.098829
v    15.708944 222.502716 11.276864
v    10.379646 218.166851 17.770304
v    6.906373 215.434353 20.540457
v    2.038184 211.363516 24.504808
v    0.694386 210.276217 24.939849
v    -5.994268 203.403401 27.304334
v    19.545436 219.672486 12.075822
v    20.510917 219.770093 12.075822
v    19.943646 220.557421 12.075822
v    20.454564 220.327514 15.010000
v    19.489083 220.229907 15.010000
v    20.056354 219.442579 15.010000
v    17.617703 222.774755 8.933994
v    20.075885 223.996316 13.536148
v    23.517139 225.502328 19.776088
v    24.708997 226.096225 21.243559
v    31.204055 228.072548 28.418016
v    21.877954 216.861865 8.933994
v    23.814832 218.806955 13.536148
v    26.332724 221.594521 19.776088
v    27.273361 222.537092 21.243559
v    31.204055 228.072548 28.418016
mtllib usm_13_2.5D_2018-08-13_5.mtl
usemtl APPID_77760_1597823650400 
o vid_3 
f 3 2 1
f 4 5 6
f 1 6 5
f 1 5 3
f 3 5 4
f 4 2 3
f 2 4 6
f 6 1 2
usemtl APPID_76192_1597823656032 
o vid_4 
f 7 9 10
f 7 10 8
f 7 9 10
usemtl APPID_77760_1597823650400 
o vid_5 
f 13 12 11
f 14 15 16
f 11 16 15
f 11 15 13
f 13 15 14
f 14 12 13
f 12 14 16
f 16 11 12
usemtl APPID_76192_1597823656032 
o vid_6 
f 17 19 20
f 17 20 18
f 17 19 20
usemtl APPID_77760_1597823650400 
o vid_7 
f 23 22 21
f 24 25 26
f 21 26 25
f 21 25 23
f 23 25 24
f 24 22 23
f 22 24 26
f 26 21 22
usemtl APPID_76192_1597823656032 
o vid_8 
f 27 29 30
f 27 30 28
f 27 29 30
usemtl APPID_77760_1597823650400 
o vid_9 
f 33 32 31
f 34 35 36
f 31 36 35
f 31 35 33
f 33 35 34
f 34 32 33
f 32 34 36
f 36 31 32
usemtl APPID_76192_1597823656032 
o vid_10 
f 37 41 42
f 38 42 43
f 37 42 38
f 38 43 39
f 39 43 44
usemtl APPID_77760_1597823650400 
o vid_11 
f 47 46 45
f 48 49 50
f 45 50 49
f 45 49 47
f 47 49 48
f 48 46 47
f 46 48 50
f 50 45 46
usemtl APPID_76192_1597823656032 
o vid_12 
f 51 56 57
f 52 57 58
f 53 58 59
f 51 57 52
f 52 58 53
f 53 59 54
f 54 59 60
usemtl APPID_77760_1597823650400 
o vid_13 
f 63 62 61
f 64 65 66
f 61 66 65
f 61 65 63
f 63 65 64
f 64 62 63
f 62 64 66
f 66 61 62
usemtl APPID_76192_1597823656032 
o vid_14 
f 67 74 75
f 68 75 76
f 69 76 77
f 70 77 78
f 71 78 79
f 67 75 68
f 68 76 69
f 69 77 70
f 70 78 71
f 71 79 72
f 72 79 80
usemtl APPID_77760_1597823650400 
o vid_15 
f 83 82 81
f 84 85 86
f 81 86 85
f 81 85 83
f 83 85 84
f 84 82 83
f 82 84 86
f 86 81 82
usemtl APPID_76192_1597823656032 
o vid_16 
f 87 92 93
f 88 93 94
f 89 94 95
f 87 93 88
f 88 94 89
f 89 95 90
f 90 95 96
