# File generated by PlantGL - Fri Sep  4 14:41:04 2026
v    18.907198 119.467660 0.000000
v    21.007421 119.319775 0.000000
v    20.085381 121.212564 0.000000
v    21.092802 120.532340 0.750230
v    18.992579 120.680225 0.750230
v    19.914619 118.787436 0.750230
v    20.925396 120.849426 0.588295
v    21.414196 121.026651 1.070673
v    22.094549 121.282843 1.560025
v    22.254503 121.345283 1.615064
v    22.926293 121.577249 1.841956
v    23.447731 121.679503 2.007112
v    21.239287 120.205062 0.588295
v    21.680145 120.480704 1.070673
v    22.301260 120.858500 1.560025
v    22.449026 120.945960 1.615064
v    23.045787 121.331947 1.841956
v    23.447731 121.679503 2.007112
v    20.620120 120.496749 0.750230
v    19.259743 120.288665 0.750230
v    20.120137 119.214586 0.750230
v    19.379880 119.503251 0.914000
v    20.740257 119.711335 0.914000
v    19.879863 120.785414 0.914000
v    19.570112 119.164145 0.468103
v    19.262958 119.005723 1.284065
v    18.771057 118.767458 2.189427
v    18.596578 118.727598 2.452316
v    18.260144 118.606283 2.759900
v    19.090469 119.762909 0.468103
v    18.868827 119.497738 1.284065
v    18.528945 119.069700 2.189427
v    18.451964 118.908127 2.452316
v    18.260144 118.606283 2.759900
mtllib usm_4_Beer_2018-07-08_1.mtl
usemtl APPID_1763751296_2531587820768 
o vid_3 
f 3 2 1
f 4 5 6
f 1 6 5
f 1 5 3
f 3 5 4
f 4 2 3
f 2 4 6
f 6 1 2
usemtl APPID_1763749504_2531587822816 
o vid_4 
f 7 13 14
f 8 14 15
f 9 15 16
f 10 16 17
f 7 14 8
f 8 15 9
f 9 16 10
f 10 17 11
f 11 17 18
usemtl APPID_1763751296_2531587820768 
o vid_5 
f 21 20 19
f 22 23 24
f 19 24 23
f 19 23 21
f 21 23 22
f 22 20 21
f 20 22 24
f 24 19 20
usemtl APPID_1763749504_2531587822816 
o vid_6 
f 25 30 31
f 26 31 32
f 27 32 33
f 25 31 26
f 26 32 27
f 27 33 28
f 28 33 34
