# File generated by PlantGL - Fri Sep  4 14:43:06 2026
v    18.201987 19.124129 0.000000
v    21.657533 18.880811 0.000000
v    20.140480 21.995060 0.000000
v    21.798013 20.875871 0.331061
v    18.342467 21.119189 0.331061
v    19.859520 18.004940 0.331061
v    21.394330 21.445563 -0.061071
v    22.502944 21.866673 1.062602
v    23.848409 22.365006 1.968217
v    25.176317 22.842921 2.323568
v    26.059887 23.042873 2.546920
v    26.411247 23.123128 2.472420
v    21.997756 20.206833 -0.061071
v    23.012721 20.820188 1.062602
v    24.234493 21.572441 1.968217
v    25.429366 22.323454 2.323568
v    26.131466 22.895934 2.546920
v    26.411247 23.123128 2.472420
v    21.503548 21.204422 0.331061
v    18.205166 20.699900 0.331061
v    20.291286 18.095678 0.331061
v    18.496452 18.795578 0.718770
v    21.794834 19.300100 0.718770
v    19.708714 21.904322 0.718770
v    19.266993 18.084573 0.176461
v    17.877177 17.163843 1.756114
v    17.006434 16.570659 2.417763
v    16.250808 16.078809 2.982916
v    14.954690 15.211999 3.376361
v    13.587779 14.348658 3.783249
v    11.981493 13.576749 3.414751
v    17.970766 19.702725 0.176461
v    16.768894 18.547374 1.756114
v    15.999963 17.827093 2.417763
v    15.355049 17.197035 2.982916
v    14.226247 16.121355 3.376361
v    13.085379 14.975832 3.783249
v    11.981493 13.576749 3.414751
v    18.272844 19.328938 0.718770
v    21.444735 18.839770 0.718770
v    20.282421 21.831292 0.718770
v    21.727156 20.671062 1.487000
v    18.555265 21.160230 1.487000
v    19.717579 18.168708 1.487000
v    21.010183 21.931582 0.754799
v    23.173223 22.554282 2.887577
v    24.968122 23.096214 4.065016
v    25.704041 23.301646 4.543950
v    28.222362 24.038529 5.206038
v    29.829908 24.463646 5.624524
v    32.718568 24.941620 5.016320
v    22.049300 19.257137 0.754799
v    24.065348 20.258163 2.887577
v    25.755294 21.070218 4.065016
v    26.436865 21.415531 4.543950
v    28.792086 22.572194 5.206038
v    30.264958 23.343930 5.624524
v    32.718568 24.941620 5.016320
v    21.731622 20.409625 1.487000
v    18.779443 21.294816 1.487000
v    19.488935 18.295559 1.487000
v    18.268378 19.590375 2.857581
v    21.220557 18.705184 2.857581
v    20.511065 21.704441 2.857581
v    18.985199 17.772831 1.892457
v    16.048134 17.352931 4.703701
v    13.059639 16.886192 6.603204
v    8.561697 16.228811 7.919777
v    7.017210 16.042210 8.311311
v    5.657979 15.876610 8.022487
v    2.522072 15.865495 7.374261
v    18.094893 21.536448 1.892457
v    15.280985 20.595922 4.703701
v    12.400113 19.674228 6.603204
v    8.084359 18.246679 7.919777
v    6.619962 17.721510 8.311311
v    5.330595 17.260569 8.022487
v    2.522072 15.865495 7.374261
v    18.876148 18.716648 2.857581
v    21.673341 19.668392 2.857581
v    19.450510 21.614960 2.857581
v    21.123852 21.283352 4.464214
v    18.326659 20.331608 4.464214
v    20.549490 18.385040 4.464214
v    18.855881 22.791935 3.222259
v    20.342409 24.209113 5.168348
v    21.619525 25.426062 6.839864
v    24.818219 28.553922 9.649394
v    26.572460 30.303286 10.275402
v    30.020629 33.617807 11.482257
v    33.648761 36.974758 10.438956
v    36.451064 38.987301 9.725785
v    36.881469 39.277336 9.429380
v    22.918482 19.234250 3.222259
v    24.127139 20.894765 5.168348
v    25.164946 22.321280 6.839864
v    27.843426 25.904700 9.649394
v    29.346042 27.874417 10.275402
v    32.176636 31.729758 11.482257
v    35.025544 35.769087 10.438956
v    36.650757 38.812427 9.725785
v    36.881469 39.277336 9.429380
v    21.268522 20.809915 4.464214
v    18.664332 20.693615 4.464214
v    20.067146 18.496470 4.464214
v    18.731478 19.190085 11.608452
v    21.335668 19.306385 11.608452
v    19.932854 21.503530 11.608452
v    21.076637 16.355651 10.048190
v    19.415501 15.399728 11.869667
v    18.150574 14.744106 13.219674
v    16.863827 14.077174 14.592969
v    15.212920 13.194317 15.768682
v    11.907229 11.427407 18.122569
v    4.699858 7.483701 20.198571
v    -1.954387 3.994152 19.026187
v    -5.390133 2.303974 18.218538
v    -8.745400 1.117669 16.170788
v    -10.210705 0.711327 14.858265
v    17.147098 22.510254 10.048190
v    15.580908 21.405622 11.869667
v    14.453866 20.534040 13.219674
v    13.307382 19.647423 14.592969
v    11.811778 18.521323 15.768682
v    8.817856 16.266109 18.122569
v    2.207384 11.387517 20.198571
v    -3.758340 6.819576 19.026187
v    -6.737384 4.414094 18.218538
v    -9.225475 1.869581 16.170788
v    -10.210705 0.711327 14.858265
v    19.031528 19.302214 11.608452
v    21.088537 19.510172 11.608452
v    19.879935 21.187615 11.608452
v    20.968472 20.697786 22.178673
v    18.911463 20.489828 22.178673
v    20.120065 18.812385 22.178673
v    17.871489 24.049267 20.265041
v    20.049478 25.624644 22.822423
v    22.707488 27.359669 25.839128
v    28.576585 30.956474 30.162872
v    38.071971 36.867247 32.992234
v    41.628757 39.084340 32.104693
v    45.883792 41.630319 31.056110
v    49.009543 43.500597 30.285821
v    52.764299 45.562090 27.774294
v    58.204799 47.599026 22.713804
v    58.339148 47.623446 22.487330
v    23.167262 16.699155 20.265041
v    25.351066 18.266461 22.822423
v    27.838259 20.238567 25.839128
v    33.107958 24.667290 30.162872
v    41.720527 31.803341 32.992234
v    44.949504 34.475407 32.104693
v    48.711485 37.705706 31.056110
v    51.475038 40.078686 30.285821
v    54.619084 42.987796 27.774294
v    58.273456 47.503736 22.713804
v    58.339148 47.623446 22.487330
v    20.758592 20.494046 22.178673
v    19.192848 20.409937 22.178673
v    20.048560 19.096017 22.178673
v    19.241408 19.505954 39.904758
v    20.807152 19.590063 39.904758
v    19.951440 20.903983 39.904758
v    22.756748 15.322726 37.613422
v    19.167884 13.214065 41.569432
v    16.632965 11.870995 44.287696
v    12.836218 9.796265 47.004835
v    9.389552 7.913762 49.471120
v    -2.291752 1.384166 52.852648
v    -12.457538 -4.075955 50.412276
v    -15.846407 -5.781281 49.612057
v    -18.372663 -7.005487 47.966847
v    -24.170849 -8.767003 43.431803
v    16.836826 24.412583 37.613422
v    13.457084 21.982823 41.569432
v    11.203716 20.207440 44.287696
v    7.770949 17.573829 47.004835
v    4.655549 15.182677 49.471120
v    -6.039766 7.139126 52.852648
v    -15.144137 0.049235 50.412276
v    -18.074119 -2.360697 49.612057
v    -20.215272 -4.176218 47.966847
v    -24.170849 -8.767003 43.431803
v    19.440425 19.689638 39.904758
v    20.548569 19.670575 39.904758
v    20.011006 20.639787 39.904758
v    20.559575 20.310362 60.537198
v    19.451431 20.329425 60.537198
v    19.988994 19.360213 60.537198
v    17.521076 24.191361 57.858718
v    25.052459 27.519637 65.660677
v    26.814712 28.325794 66.877658
v    33.905452 31.391093 71.719891
v    37.517805 33.006328 72.718361
v    44.981187 36.112172 74.752853
v    48.571456 37.127675 75.672761
v    53.322011 38.481671 74.651668
v    22.243025 15.677800 57.858718
v    29.054257 20.304491 65.660677
v    30.671231 21.372583 66.877658
v    37.026058 25.764715 71.719891
v    40.308997 27.973875 72.718361
v    46.895531 32.660655 74.752853
v    49.658016 35.168634 75.672761
v    53.322011 38.481671 74.651668
v    20.384098 20.102173 60.537198
v    19.719467 20.281553 60.537198
v    19.896435 19.616275 60.537198
v    19.615902 19.897827 67.556000
v    20.280533 19.718447 67.556000
v    20.103565 20.383725 67.556000
v    20.428139 16.623118 61.459566
v    20.169677 16.647271 62.506881
v    17.834301 17.093480 71.718073
v    17.172547 17.479534 74.041198
v    13.730717 18.332332 80.871470
v    18.693732 23.143294 61.459566
v    18.481430 22.993915 62.506881
v    16.676415 21.446337 71.718073
v    16.293935 20.782510 74.041198
v    13.730717 18.332332 80.871470
mtllib usm_25_2.5D_2018-08-26_0.mtl
usemtl APPID_3207260160_2021840863984 
o vid_3 
f 3 2 1
f 4 5 6
f 1 6 5
f 1 5 3
f 3 5 4
f 4 2 3
f 2 4 6
f 6 1 2
usemtl APPID_3207260496_2021840862576 
o vid_4 
f 7 13 14
f 8 14 15
f 9 15 16
f 10 16 17
f 7 14 8
f 8 15 9
f 9 16 10
f 10 17 11
f 11 17 18
usemtl APPID_3207260160_2021840863984 
o vid_5 
f 21 20 19
f 22 23 24
f 19 24 23
f 19 23 21
f 21 23 22
f 22 20 21
f 20 22 24
f 24 19 20
usemtl APPID_3207260496_2021840862576 
o vid_6 
f 25 32 33
f 26 33 34
f 27 34 35
f 28 35 36
f 29 36 37
f 25 33 26
f 26 34 27
f 27 35 28
f 28 36 29
f 29 37 30
f 30 37 38
usemtl APPID_3207260160_2021840863984 
o vid_7 
f 41 40 39
f 42 43 44
f 39 44 43
f 39 43 41
f 41 43 42
f 42 40 41
f 40 42 44
f 44 39 40
usemtl APPID_3207260496_2021840862576 
o vid_8 
f 45 52 53
f 46 53 54
f 47 54 55
f 48 55 56
f 49 56 57
f 45 53 46
f 46 54 47
f 47 55 48
f 48 56 49
f 49 57 50
f 50 57 58
usemtl APPID_3207260160_2021840863984 
o vid_9 
f 61 60 59
f 62 63 64
f 59 64 63
f 59 63 61
f 61 63 62
f 62 60 61
f 60 62 64
f 64 59 60
usemtl APPID_3207260496_2021840862576 
o vid_10 
f 65 72 73
f 66 73 74
f 67 74 75
f 68 75 76
f 69 76 77
f 65 73 66
f 66 74 67
f 67 75 68
f 68 76 69
f 69 77 70
f 70 77 78
usemtl APPID_3207260160_2021840863984 
o vid_11 
f 81 80 79
f 82 83 84
f 79 84 83
f 79 83 81
f 81 83 82
f 82 80 81
f 80 82 84
f 84 79 80
usemtl APPID_3207260496_2021840862576 
o vid_12 
f 85 94 95
f 86 95 96
f 87 96 97
f 88 97 98
f 89 98 99
f 90 99 100
f 91 100 101
f 85 95 86
f 86 96 87
f 87 97 88
f 88 98 89
f 89 99 90
f 90 100 91
f 91 101 92
f 92 101 102
usemtl APPID_3207260160_2021840863984 
o vid_13 
f 105 104 103
f 106 107 108
f 103 108 107
f 103 107 105
f 105 107 106
f 106 104 105
f 104 106 108
f 108 103 104
usemtl APPID_3207260496_2021840862576 
o vid_14 
f 109 120 121
f 110 121 122
f 111 122 123
f 112 123 124
f 113 124 125
f 114 125 126
f 115 126 127
f 116 127 128
f 117 128 129
f 109 121 110
f 110 122 111
f 111 123 112
f 112 124 113
f 113 125 114
f 114 126 115
f 115 127 116
f 116 128 117
f 117 129 118
f 118 129 130
usemtl APPID_3207260160_2021840863984 
o vid_15 
f 133 132 131
f 134 135 136
f 131 136 135
f 131 135 133
f 133 135 134
f 134 132 133
f 132 134 136
f 136 131 132
usemtl APPID_3207260496_2021840862576 
o vid_16 
f 137 148 149
f 138 149 150
f 139 150 151
f 140 151 152
f 141 152 153
f 142 153 154
f 143 154 155
f 144 155 156
f 145 156 157
f 137 149 138
f 138 150 139
f 139 151 140
f 140 152 141
f 141 153 142
f 142 154 143
f 143 155 144
f 144 156 145
f 145 157 146
f 146 157 158
usemtl APPID_3207260160_2021840863984 
o vid_17 
f 161 160 159
f 162 163 164
f 159 164 163
f 159 163 161
f 161 163 162
f 162 160 161
f 160 162 164
f 164 159 160
usemtl APPID_3207260496_2021840862576 
o vid_18 
f 165 175 176
f 166 176 177
f 167 177 178
f 168 178 179
f 169 179 180
f 170 180 181
f 171 181 182
f 172 182 183
f 165 176 166
f 166 177 167
f 167 178 168
f 168 179 169
f 169 180 170
f 170 181 171
f 171 182 172
f 172 183 173
f 173 183 184
usemtl APPID_3207260160_2021840863984 
o vid_19 
f 187 186 185
f 188 189 190
f 185 190 189
f 185 189 187
f 187 189 188
f 188 186 187
f 186 188 190
f 190 185 186
usemtl APPID_3207260496_2021840862576 
o vid_20 
f 191 199 200
f 192 200 201
f 193 201 202
f 194 202 203
f 195 203 204
f 196 204 205
f 191 200 192
f 192 201 193
f 193 202 194
f 194 203 195
f 195 204 196
f 196 205 197
f 197 205 206
usemtl APPID_3207260160_2021840863984 
o vid_21 
f 209 208 207
f 210 211 212
f 207 212 211
f 207 211 209
f 209 211 210
f 210 208 209
f 208 210 212
f 212 207 208
usemtl APPID_3207260496_2021840862576 
o vid_22 
f 213 218 219
f 214 219 220
f 215 220 221
f 213 219 214
f 214 220 215
f 215 221 216
f 216 221 222
