# File generated by PlantGL - Fri Sep  4 14:43:27 2026
v    17.752484 218.905161 0.000000
v    22.071916 218.601013 0.000000
v    20.175600 222.493825 0.000000
v    22.247516 221.094839 0.848509
v    17.928084 221.398987 0.848509
v    19.824400 217.506175 0.848509
v    22.061987 221.449497 0.688834
v    22.413578 221.583545 1.038490
v    22.541246 221.629833 1.164481
v    23.212105 221.882450 1.647004
v    23.428590 221.966957 1.721495
v    22.412415 220.730130 0.688834
v    22.734695 220.924348 1.038490
v    22.849841 220.996342 1.164481
v    23.462289 221.368866 1.647004
v    23.662278 221.487237 1.721495
v    21.879284 221.505407 0.848509
v    17.756638 220.874804 0.848509
v    20.364078 217.619789 0.848509
v    18.120716 218.494593 1.417165
v    22.243362 219.125196 1.417165
v    19.635922 222.380211 1.417165
v    18.493386 218.055333 1.191260
v    17.958322 217.699916 1.788164
v    17.042241 217.098028 2.546856
v    15.959631 216.366477 2.965666
v    15.881421 216.318034 2.995036
v    17.773384 218.954152 1.191260
v    17.309753 218.509561 1.788164
v    16.522434 217.746933 2.546856
v    15.572229 216.850092 2.965666
v    15.507884 216.784341 2.995036
v    17.841416 219.161313 1.417165
v    21.805616 218.549955 1.417165
v    20.352968 222.288732 1.417165
v    22.158584 220.838687 2.253766
v    18.194384 221.450045 2.253766
v    19.647032 217.711268 2.253766
v    21.871294 221.515935 1.940435
v    22.042938 221.565576 2.106472
v    22.841110 221.782284 2.873795
v    24.193989 222.167532 3.820650
v    25.042704 222.420294 4.104499
v    26.016606 222.668724 4.425370
v    22.403900 220.145132 1.940435
v    22.564034 220.224398 2.106472
v    23.299140 220.603423 2.873795
v    24.557232 221.232630 3.820650
v    25.353963 221.619184 4.104499
v    26.240119 222.093453 4.425370
v    22.163962 220.511898 2.253766
v    18.474702 221.618097 2.253766
v    19.361335 217.870005 2.253766
v    17.836038 219.488102 4.112548
v    21.525298 218.381903 4.112548
v    20.638665 222.129995 4.112548
v    18.105092 218.483714 3.686489
v    17.425201 218.385661 4.324814
v    16.750712 218.299664 4.955646
v    14.856454 218.034421 6.243152
v    13.094990 217.766123 6.814272
v    11.236685 217.558130 7.411234
v    11.192984 217.559327 7.424822
v    17.626570 220.506585 3.686489
v    16.974807 220.289628 4.324814
v    16.333274 220.064313 4.955646
v    14.520942 219.452740 6.243152
v    12.825961 218.903396 6.814272
v    11.071422 218.256750 7.411234
v    11.032889 218.236101 7.424822
v    18.595695 218.396392 4.112548
v    22.090917 219.585640 4.112548
v    19.313387 222.017967 4.112548
v    21.404305 221.603608 5.999272
v    17.909083 220.414360 5.999272
v    20.686613 217.982033 5.999272
v    20.283419 222.530935 5.431303
v    21.503766 223.696652 6.999546
v    23.452655 225.540775 8.839534
v    25.877880 227.894457 9.922800
v    27.339754 229.204657 10.549508
v    28.279197 229.941993 10.536058
v    22.471415 220.614872 5.431303
v    23.465928 221.978355 6.999546
v    25.036793 224.153520 8.839534
v    27.049914 226.868088 9.922800
v    28.155781 228.490049 10.549508
v    28.762721 229.518563 10.536058
v    21.718982 221.097521 5.999272
v    18.190028 220.939922 5.999272
v    20.090990 217.962557 5.999272
v    18.281018 218.902479 12.880915
v    21.809972 219.060078 12.880915
v    19.909010 222.037443 12.880915
v    19.368550 217.298257 12.138632
v    17.257053 216.201205 14.349767
v    14.295817 214.673640 16.592873
v    9.915862 212.353738 18.181565
v    8.091276 211.478195 18.827650
v    6.926737 210.911133 18.812904
v    5.444324 210.419043 18.795550
v    17.283398 220.564107 12.138632
v    15.399667 219.110319 14.349767
v    12.767815 217.066859 16.592873
v    8.820183 214.069834 18.181565
v    7.258129 212.783103 18.827650
v    6.253668 211.965321 18.812904
v    5.183452 210.827630 18.795550
v    18.420020 218.861621 12.880915
v    21.775855 219.200887 12.880915
v    19.804125 221.937492 12.880915
v    21.579980 221.138379 19.681199
v    18.224145 220.799113 19.681199
v    20.195875 218.062508 19.681199
v    20.092308 223.086244 18.730149
v    22.668356 224.613990 21.513253
v    26.396371 226.803483 24.437146
v    31.429081 229.842320 26.321563
v    34.114771 231.321854 27.300456
v    35.129982 231.888751 27.287218
v    37.506658 232.828759 27.258821
v    22.956758 219.110615 18.730149
v    25.221386 221.070587 21.513253
v    28.478385 223.913813 24.437146
v    32.954051 227.725784 26.321563
v    35.207653 229.805021 27.300456
v    36.066762 230.588575 27.287218
v    37.710764 232.545476 27.258821
v    21.554633 221.012481 19.681199
v    18.345849 220.840111 19.681199
v    20.099518 218.147408 19.681199
v    18.445367 218.987519 30.874713
v    21.654151 219.159889 30.874713
v    19.900482 221.852592 30.874713
v    20.237478 216.393082 29.680102
v    16.855381 214.596877 33.238649
v    12.115507 212.090182 36.848646
v    4.661983 208.055652 39.565294
v    2.187832 206.840782 40.445242
v    -0.148440 205.676918 40.415526
v    -3.590629 204.499636 40.375106
v    16.797118 221.675649 29.680102
v    13.786755 219.308658 33.238649
v    9.577559 215.987122 36.848646
v    2.873739 210.801446 39.565294
v    0.762194 209.029804 40.445242
v    -1.246948 207.363644 40.415526
v    -3.715539 204.691432 40.375106
v    18.668527 219.261514 30.874713
v    21.305284 219.216154 30.874713
v    20.026189 221.522332 30.874713
v    21.331473 220.738486 48.402209
v    18.694716 220.783846 48.402209
v    19.973811 218.477668 48.402209
v    19.232087 224.305687 46.931120
v    23.543098 226.217145 51.313249
v    27.488366 228.015799 54.235511
v    29.560817 228.924525 55.758737
v    42.147632 234.625126 60.187722
v    48.763465 237.370575 60.106156
v    51.180202 238.010055 60.078380
v    53.392975 238.586285 59.673339
v    23.245976 217.068742 46.931120
v    27.150139 219.713736 51.313249
v    30.764951 222.108194 54.235511
v    32.633183 223.385122 55.758737
v    44.133704 231.044286 60.187722
v    49.965739 235.202905 60.106156
v    51.787862 236.914460 60.078380
v    53.448331 238.486479 59.673339
v    21.142199 220.303832 48.402209
v    19.165774 220.837257 48.402209
v    19.692027 218.858911 48.402209
v    18.857801 219.696168 69.780616
v    20.834226 219.162743 69.780616
v    20.307973 221.141089 69.780616
v    20.283219 214.834014 68.004624
v    14.673013 213.865604 73.295006
v    8.650345 212.761328 77.421735
v    -9.581777 209.487762 84.008828
v    -19.190462 208.026806 83.898104
v    -25.228558 207.968925 83.146469
v    17.679040 224.623935 68.004624
v    12.329156 222.676893 73.295006
v    6.553818 220.642827 77.421735
v    -10.895116 214.425012 84.008828
v    -19.959738 210.918754 83.898104
v    -25.228558 207.968925 83.146469
v    19.196421 219.666426 69.780616
v    20.690673 219.470867 69.780616
v    20.112906 220.862706 69.780616
v    20.803579 220.333574 89.654457
v    19.309327 220.529133 89.654457
v    19.887094 219.137294 89.654457
v    18.506613 225.472992 87.552460
v    24.935042 227.492643 93.813957
v    27.376617 228.287736 95.544545
v    33.935045 230.318642 100.165986
v    49.255581 235.265653 105.326388
v    52.779190 236.250866 106.494433
v    58.397259 237.856533 106.427912
v    65.543155 238.905436 106.347665
v    22.821542 215.078339 87.552460
v    28.790458 218.204955 93.813957
v    31.077344 219.372694 95.544545
v    37.146013 222.583428 100.165986
v    51.466089 229.940543 105.326388
v    54.651557 231.740337 106.494433
v    59.755162 234.585348 106.427912
v    65.543155 238.905436 106.347665
v    20.453273 220.372963 89.654457
v    19.450368 220.206064 89.654457
v    20.096359 219.420973 89.654457
v    19.546727 219.627037 106.892000
v    20.549632 219.793936 106.892000
v    19.903641 220.579027 106.892000
v    23.344486 215.149180 102.009280
v    21.079517 213.636086 105.147168
v    17.476603 211.323503 110.069269
v    9.070951 205.726299 118.568311
v    1.925259 200.795837 122.418872
v    -6.769191 195.312658 126.958094
v    -9.674249 194.020755 128.322001
v    -14.108166 191.935007 128.780197
v    15.884056 224.216047 102.009280
v    13.963101 222.284865 105.147168
v    10.999961 219.194746 110.069269
v    3.888778 212.024337 118.568311
v    -2.325501 205.961904 122.418872
v    -9.380409 198.486144 126.958094
v    -11.207582 195.884257 128.322001
v    -14.108166 191.935007 128.780197
v    23.428590 221.966957 1.721495
v    23.978185 222.181497 1.910604
v    24.621079 222.403486 2.127737
v    25.178621 222.522676 2.121394
v    23.662278 221.487237 1.721495
v    24.169993 221.787748 1.910604
v    24.741086 222.157132 2.127737
v    25.178621 222.522676 2.121394
v    15.881421 216.318034 2.995036
v    15.263756 215.935455 3.226985
v    15.110006 215.838997 3.224919
v    14.403703 215.517068 3.216294
v    15.507884 216.784341 2.995036
v    14.999717 216.265069 3.226985
v    14.872028 216.136079 3.224919
v    14.403703 215.517068 3.216294
v    26.016606 222.668724 4.425370
v    26.375198 222.760196 4.543515
v    27.080189 222.838721 4.763989
v    27.411499 222.879633 4.760280
v    26.240119 222.093453 4.425370
v    26.566403 222.268079 4.543515
v    27.139477 222.686129 4.763989
v    27.411499 222.879633 4.760280
v    11.192984 217.559327 7.424822
v    10.867964 217.568225 7.525879
v    9.790395 217.584859 7.513905
v    11.032889 218.236101 7.424822
v    10.746304 218.082524 7.525879
v    9.790395 217.584859 7.513905
v    28.279197 229.941993 10.536058
v    29.358057 230.686179 10.521496
v    28.762721 229.518563 10.536058
v    29.358057 230.686179 10.521496
v    5.444324 210.419043 18.795550
v    4.506134 210.107609 18.784567
v    5.183452 210.827630 18.795550
v    4.506134 210.107609 18.784567
v    37.506658 232.828759 27.258821
v    38.168745 233.090624 27.250911
v    37.710764 232.545476 27.258821
v    38.168745 233.090624 27.250911
v    -3.590629 204.499636 40.375106
v    -4.032254 204.348593 40.369921
v    -3.715539 204.691432 40.375106
v    -4.032254 204.348593 40.369921
v    53.392975 238.586285 59.673339
v    53.614758 238.644040 59.632742
v    53.448331 238.486479 59.673339
v    53.614758 238.644040 59.632742
mtllib usm_22_2.5D_2018-08-05_5.mtl
usemtl APPID_589063216_1675719903984 
o vid_3 
f 3 2 1
f 4 5 6
f 1 6 5
f 1 5 3
f 3 5 4
f 4 2 3
f 2 4 6
f 6 1 2
usemtl APPID_589061424_1675719900016 
o vid_4 
f 7 12 13
f 8 13 14
f 9 14 15
f 7 13 8
f 8 14 9
f 9 15 10
f 10 15 16
f 10 16 11
usemtl APPID_589063216_1675719903984 
o vid_5 
f 19 18 17
f 20 21 22
f 17 22 21
f 17 21 19
f 19 21 20
f 20 18 19
f 18 20 22
f 22 17 18
usemtl APPID_589061424_1675719900016 
o vid_6 
f 23 28 29
f 24 29 30
f 25 30 31
f 23 29 24
f 24 30 25
f 25 31 26
f 26 31 32
f 26 32 27
usemtl APPID_589063216_1675719903984 
o vid_7 
f 35 34 33
f 36 37 38
f 33 38 37
f 33 37 35
f 35 37 36
f 36 34 35
f 34 36 38
f 38 33 34
usemtl APPID_589061424_1675719900016 
o vid_8 
f 39 45 46
f 40 46 47
f 41 47 48
f 42 48 49
f 39 46 40
f 40 47 41
f 41 48 42
f 42 49 43
f 43 49 50
f 43 50 44
usemtl APPID_589063216_1675719903984 
o vid_9 
f 53 52 51
f 54 55 56
f 51 56 55
f 51 55 53
f 53 55 54
f 54 52 53
f 52 54 56
f 56 51 52
usemtl APPID_589061424_1675719900016 
o vid_10 
f 57 64 65
f 58 65 66
f 59 66 67
f 60 67 68
f 61 68 69
f 57 65 58
f 58 66 59
f 59 67 60
f 60 68 61
f 61 69 62
f 62 69 70
f 62 70 63
usemtl APPID_589063216_1675719903984 
o vid_11 
f 73 72 71
f 74 75 76
f 71 76 75
f 71 75 73
f 73 75 74
f 74 72 73
f 72 74 76
f 76 71 72
usemtl APPID_589061424_1675719900016 
o vid_12 
f 77 83 84
f 78 84 85
f 79 85 86
f 80 86 87
f 77 84 78
f 78 85 79
f 79 86 80
f 80 87 81
f 81 87 88
f 81 88 82
usemtl APPID_589063216_1675719903984 
o vid_13 
f 91 90 89
f 92 93 94
f 89 94 93
f 89 93 91
f 91 93 92
f 92 90 91
f 90 92 94
f 94 89 90
usemtl APPID_589061424_1675719900016 
o vid_14 
f 95 102 103
f 96 103 104
f 97 104 105
f 98 105 106
f 99 106 107
f 95 103 96
f 96 104 97
f 97 105 98
f 98 106 99
f 99 107 100
f 100 107 108
f 100 108 101
usemtl APPID_589063216_1675719903984 
o vid_15 
f 111 110 109
f 112 113 114
f 109 114 113
f 109 113 111
f 111 113 112
f 112 110 111
f 110 112 114
f 114 109 110
usemtl APPID_589061424_1675719900016 
o vid_16 
f 115 122 123
f 116 123 124
f 117 124 125
f 118 125 126
f 119 126 127
f 115 123 116
f 116 124 117
f 117 125 118
f 118 126 119
f 119 127 120
f 120 127 128
f 120 128 121
usemtl APPID_589063216_1675719903984 
o vid_17 
f 131 130 129
f 132 133 134
f 129 134 133
f 129 133 131
f 131 133 132
f 132 130 131
f 130 132 134
f 134 129 130
usemtl APPID_589061424_1675719900016 
o vid_18 
f 135 142 143
f 136 143 144
f 137 144 145
f 138 145 146
f 139 146 147
f 135 143 136
f 136 144 137
f 137 145 138
f 138 146 139
f 139 147 140
f 140 147 148
f 140 148 141
usemtl APPID_589063216_1675719903984 
o vid_19 
f 151 150 149
f 152 153 154
f 149 154 153
f 149 153 151
f 151 153 152
f 152 150 151
f 150 152 154
f 154 149 150
usemtl APPID_589061424_1675719900016 
o vid_20 
f 155 163 164
f 156 164 165
f 157 165 166
f 158 166 167
f 159 167 168
f 160 168 169
f 155 164 156
f 156 165 157
f 157 166 158
f 158 167 159
f 159 168 160
f 160 169 161
f 161 169 170
f 161 170 162
usemtl APPID_589063216_1675719903984 
o vid_21 
f 173 172 171
f 174 175 176
f 171 176 175
f 171 175 173
f 173 175 174
f 174 172 173
f 172 174 176
f 176 171 172
usemtl APPID_589061424_1675719900016 
o vid_22 
f 177 183 184
f 178 184 185
f 179 185 186
f 180 186 187
f 177 184 178
f 178 185 179
f 179 186 180
f 180 187 181
f 181 187 188
usemtl APPID_589063216_1675719903984 
o vid_23 
f 191 190 189
f 192 193 194
f 189 194 193
f 189 193 191
f 191 193 192
f 192 190 191
f 190 192 194
f 194 189 190
usemtl APPID_589061424_1675719900016 
o vid_24 
f 195 203 204
f 196 204 205
f 197 205 206
f 198 206 207
f 199 207 208
f 200 208 209
f 195 204 196
f 196 205 197
f 197 206 198
f 198 207 199
f 199 208 200
f 200 209 201
f 201 209 210
usemtl APPID_589063216_1675719903984 
o vid_25 
f 213 212 211
f 214 215 216
f 211 216 215
f 211 215 213
f 213 215 214
f 214 212 213
f 212 214 216
f 216 211 212
usemtl APPID_589061424_1675719900016 
o vid_26 
f 217 225 226
f 218 226 227
f 219 227 228
f 220 228 229
f 221 229 230
f 222 230 231
f 217 226 218
f 218 227 219
f 219 228 220
f 220 229 221
f 221 230 222
f 222 231 223
f 223 231 232
usemtl APPID_589049888_1675719901552 
o vid_10000004 
f 233 237 238
f 234 238 239
f 233 238 234
f 234 239 235
f 235 239 240
usemtl APPID_589049888_1675719901552 
o vid_10000006 
f 241 245 246
f 242 246 247
f 241 246 242
f 242 247 243
f 243 247 248
usemtl APPID_589049888_1675719901552 
o vid_10000008 
f 249 253 254
f 250 254 255
f 249 254 250
f 250 255 251
f 251 255 256
usemtl APPID_589049888_1675719901552 
o vid_10000010 
f 257 260 261
f 257 261 258
f 258 261 262
usemtl APPID_589049888_1675719901552 
o vid_10000012 
f 263 265 266
f 263 266 264
f 263 265 266
usemtl APPID_589049888_1675719901552 
o vid_10000014 
f 267 269 270
f 267 270 268
f 267 269 270
usemtl APPID_589049888_1675719901552 
o vid_10000016 
f 271 273 274
f 271 274 272
f 271 273 274
usemtl APPID_589049888_1675719901552 
o vid_10000018 
f 275 277 278
f 275 278 276
f 275 277 278
usemtl APPID_589049888_1675719901552 
o vid_10000020 
f 279 281 282
f 279 282 280
f 279 281 282
