# File generated by PlantGL - Fri Sep  4 14:43:04 2026
v    19.380188 99.698069 0.000000
v    20.571385 99.614193 0.000000
v    20.048426 100.687738 0.000000
v    20.619812 100.301931 0.211000
v    19.428615 100.385807 0.211000
v    19.951574 99.312262 0.211000
v    20.328681 100.699134 -0.608738
v    20.603483 100.774471 -0.044235
v    21.081701 100.877705 0.913527
v    21.186344 100.907455 1.051839
v    22.032122 100.989913 2.080390
v    20.753115 99.827845 -0.608738
v    20.981831 99.997787 -0.044235
v    21.357904 100.310706 0.913527
v    21.445835 100.374765 1.051839
v    22.032122 100.989913 2.080390
mtllib usm_19_2.5D_2018-07-09_2.mtl
usemtl APPID_3534035536_1420965894656 
o vid_3 
f 3 2 1
f 4 5 6
f 1 6 5
f 1 5 3
f 3 5 4
f 4 2 3
f 2 4 6
f 6 1 2
usemtl APPID_3534035200_1420965899008 
o vid_4 
f 7 12 13
f 8 13 14
f 9 14 15
f 7 13 8
f 8 14 9
f 9 15 10
f 10 15 16
