# File generated by PlantGL - Fri Sep  4 14:42:43 2026
v    58.323923 19.183528 0.000000
v    61.545124 18.956711 0.000000
v    60.130953 21.859762 0.000000
v    61.676077 20.816472 0.231332
v    58.454876 21.043289 0.231332
v    59.869047 18.140238 0.231332
v    60.902921 20.815047 -2.173816
v    62.015320 20.981728 -1.152915
v    61.198362 20.208557 -2.173816
v    62.015320 20.981728 -1.152915
v    61.166653 20.934551 0.231332
v    58.607329 20.543075 0.231332
v    60.226019 18.522374 0.231332
v    58.833347 19.065449 0.322458
v    61.392671 19.456925 0.322458
v    59.773981 21.477626 0.322458
v    59.647483 19.161883 -2.082691
v    58.299443 18.637764 -0.769967
v    59.105149 19.838910 -2.082691
v    58.299443 18.637764 -0.769967
v    58.929711 19.584154 0.322458
v    60.895278 19.281025 0.322458
v    60.175012 21.134821 0.322458
v    61.070289 20.415846 0.466406
v    59.104722 20.718975 0.466406
v    59.824988 18.865179 0.466406
v    60.203504 20.725784 -1.938742
v    62.209300 20.858392 -0.114278
v    60.640135 19.602000 -1.938742
v    62.209300 20.858392 -0.114278
v    60.802491 20.189834 0.466406
v    59.434354 20.600061 0.466406
v    59.763155 19.210106 0.466406
v    59.197509 19.810166 0.639349
v    60.565646 19.399939 0.639349
v    60.236845 20.789894 0.639349
v    60.039633 19.272336 -1.765800
v    57.654116 19.445068 0.404999
v    59.709410 20.668299 -1.765800
v    57.654116 19.445068 0.404999
v    59.654772 19.605776 0.639349
v    60.514022 19.898136 0.639349
v    59.831206 20.496089 0.639349
v    60.345228 20.394224 0.716000
v    59.485978 20.101864 0.716000
v    60.168794 19.503911 0.716000
v    60.047192 20.556161 -4.114613
v    60.558837 20.638148 -2.717446
v    60.545072 20.120159 -4.114613
v    60.558837 20.638148 -2.717446
mtllib usm_42_2.5D_2018-07-18_1.mtl
usemtl APPID_4152149696_1941179506416 
o vid_3 
f 3 2 1
f 4 5 6
f 1 6 5
f 1 5 3
f 3 5 4
f 4 2 3
f 2 4 6
f 6 1 2
usemtl APPID_4152144880_1941179506288 
o vid_4 
f 7 9 10
f 7 10 8
f 7 9 10
usemtl APPID_4152149696_1941179506416 
o vid_5 
f 13 12 11
f 14 15 16
f 11 16 15
f 11 15 13
f 13 15 14
f 14 12 13
f 12 14 16
f 16 11 12
usemtl APPID_4152144880_1941179506288 
o vid_6 
f 17 19 20
f 17 20 18
f 17 19 20
usemtl APPID_4152149696_1941179506416 
o vid_7 
f 23 22 21
f 24 25 26
f 21 26 25
f 21 25 23
f 23 25 24
f 24 22 23
f 22 24 26
f 26 21 22
usemtl APPID_4152144880_1941179506288 
o vid_8 
f 27 29 30
f 27 30 28
f 27 29 30
usemtl APPID_4152149696_1941179506416 
o vid_9 
f 33 32 31
f 34 35 36
f 31 36 35
f 31 35 33
f 33 35 34
f 34 32 33
f 32 34 36
f 36 31 32
usemtl APPID_4152144880_1941179506288 
o vid_10 
f 37 39 40
f 37 40 38
f 37 39 40
usemtl APPID_4152149696_1941179506416 
o vid_11 
f 43 42 41
f 44 45 46
f 41 46 45
f 41 45 43
f 43 45 44
f 44 42 43
f 42 44 46
f 46 41 42
usemtl APPID_4152144880_1941179506288 
o vid_12 
f 47 49 50
f 47 50 48
f 47 49 50
