# File generated by PlantGL - Fri Sep  4 14:43:34 2026
v    18.201987 59.124129 0.000000
v    21.657533 58.880811 0.000000
v    20.140480 61.995060 0.000000
v    21.798013 60.875871 0.231332
v    18.342467 61.119189 0.231332
v    19.859520 58.004940 0.231332
v    20.990308 60.834410 -2.341808
v    22.033906 60.990782 -1.384049
v    21.267477 60.265431 -2.341808
v    22.033906 60.990782 -1.384049
v    21.503548 61.204422 0.231332
v    18.205166 60.699900 0.231332
v    20.291286 58.095678 0.231332
v    18.496452 58.795578 0.322458
v    21.794834 59.300100 0.322458
v    19.708714 61.904322 0.322458
v    19.332015 58.942986 -2.250682
v    18.065988 58.450753 -1.017822
v    18.822675 59.578823 -2.250682
v    18.065988 58.450753 -1.017822
v    18.503089 59.418396 0.322458
v    21.252139 58.994439 0.322458
v    20.244772 61.587165 0.322458
v    21.496911 60.581604 0.466406
v    18.747861 61.005561 0.466406
v    19.755228 58.412835 0.466406
v    20.597712 60.840793 -2.106734
v    22.485171 60.965578 -0.389909
v    21.008583 59.783310 -2.106734
v    22.485171 60.965578 -0.389909
v    21.230216 60.291015 0.466406
v    19.132866 60.919891 0.466406
v    19.636918 58.789095 0.466406
v    18.769784 59.708985 0.678771
v    20.867134 59.080109 0.678771
v    20.363082 61.210905 0.678771
v    19.679470 59.096635 -1.894369
v    17.001031 59.290576 0.542986
v    19.308698 60.664010 -1.894369
v    17.001031 59.290576 0.542986
v    19.377171 59.288777 0.678771
v    20.927351 59.816226 0.678771
v    19.695478 60.894997 0.678771
v    20.622829 60.711223 0.903326
v    19.072649 60.183774 0.903326
v    20.304522 59.105003 0.903326
v    19.203413 60.964889 -1.669813
v    22.720700 63.106830 2.067887
v    21.061555 59.337685 -1.669813
v    22.720700 63.106830 2.067887
v    20.547503 60.349565 0.903326
v    19.423516 60.299369 0.903326
v    20.028981 59.351066 0.903326
v    19.452497 59.650435 1.248000
v    20.576484 59.700631 1.248000
v    19.971019 60.648934 1.248000
v    21.070500 59.441979 -3.955289
v    17.955971 58.694946 -0.498731
v    19.944272 61.205923 -3.955289
v    17.955971 58.694946 -0.498731
mtllib usm_12_2.5D_2018-07-23_1.mtl
usemtl APPID_3394645568_2314290310016 
o vid_3 
f 3 2 1
f 4 5 6
f 1 6 5
f 1 5 3
f 3 5 4
f 4 2 3
f 2 4 6
f 6 1 2
usemtl APPID_3394648256_2314290305536 
o vid_4 
f 7 9 10
f 7 10 8
f 7 9 10
usemtl APPID_3394645568_2314290310016 
o vid_5 
f 13 12 11
f 14 15 16
f 11 16 15
f 11 15 13
f 13 15 14
f 14 12 13
f 12 14 16
f 16 11 12
usemtl APPID_3394648256_2314290305536 
o vid_6 
f 17 19 20
f 17 20 18
f 17 19 20
usemtl APPID_3394645568_2314290310016 
o vid_7 
f 23 22 21
f 24 25 26
f 21 26 25
f 21 25 23
f 23 25 24
f 24 22 23
f 22 24 26
f 26 21 22
usemtl APPID_3394648256_2314290305536 
o vid_8 
f 27 29 30
f 27 30 28
f 27 29 30
usemtl APPID_3394645568_2314290310016 
o vid_9 
f 33 32 31
f 34 35 36
f 31 36 35
f 31 35 33
f 33 35 34
f 34 32 33
f 32 34 36
f 36 31 32
usemtl APPID_3394648256_2314290305536 
o vid_10 
f 37 39 40
f 37 40 38
f 37 39 40
usemtl APPID_3394645568_2314290310016 
o vid_11 
f 43 42 41
f 44 45 46
f 41 46 45
f 41 45 43
f 43 45 44
f 44 42 43
f 42 44 46
f 46 41 42
usemtl APPID_3394648256_2314290305536 
o vid_12 
f 47 49 50
f 47 50 48
f 47 49 50
usemtl APPID_3394645568_2314290310016 
o vid_13 
f 53 52 51
f 54 55 56
f 51 56 55
f 51 55 53
f 53 55 54
f 54 52 53
f 52 54 56
f 56 51 52
usemtl APPID_3394648256_2314290305536 
o vid_14 
f 57 59 60
f 57 60 58
f 57 59 60
