# File generated by PlantGL - Fri Sep  4 14:44:11 2026
v    218.201987 19.124129 0.000000
v    221.657533 18.880811 0.000000
v    220.140480 21.995060 0.000000
v    221.798013 20.875871 0.331061
v    218.342467 21.119189 0.331061
v    219.859520 18.004940 0.331061
v    221.395917 21.444246 -0.058131
v    222.514377 21.869096 1.075520
v    223.831208 22.357604 1.955945
v    224.087767 22.456340 2.025311
v    225.194645 22.849440 2.320930
v    226.022945 23.036885 2.530311
v    226.420715 23.127741 2.445970
v    221.997697 20.208895 -0.058131
v    223.021677 20.827697 1.075520
v    224.218062 21.563460 1.955945
v    224.453958 21.704614 2.025311
v    225.445797 22.333867 2.320930
v    226.103979 22.870537 2.530311
v    226.420715 23.127741 2.445970
v    221.503548 21.204422 0.331061
v    218.205166 20.699900 0.331061
v    220.291286 18.095678 0.331061
v    218.496452 18.795578 0.718770
v    221.794834 19.300100 0.718770
v    219.708714 21.904322 0.718770
v    219.265575 18.085254 0.178813
v    217.881786 17.168517 1.751616
v    216.981916 16.555490 2.435398
v    216.262994 16.087532 2.973098
v    214.934555 15.199106 3.376354
v    213.612263 14.363946 3.769961
v    211.973928 13.570689 3.393321
v    217.971122 19.701193 0.178813
v    216.774462 18.550852 1.751616
v    215.979809 17.806476 2.435398
v    215.366222 17.207024 2.973098
v    214.209271 16.104520 3.376354
v    213.105643 14.996388 3.769961
v    211.973928 13.570689 3.393321
v    218.272844 19.328938 0.718770
v    221.444735 18.839770 0.718770
v    220.282421 21.831292 0.718770
v    221.727156 20.671062 1.487000
v    218.555265 21.160230 1.487000
v    219.717579 18.168708 1.487000
v    221.010795 21.930826 0.755825
v    223.170803 22.552653 2.885613
v    224.976627 23.097884 4.070220
v    225.697966 23.299247 4.539665
v    228.228206 24.039616 5.204886
v    229.817897 24.460012 5.618724
v    232.718246 24.941494 5.007938
v    222.049242 19.258108 0.755825
v    224.062463 20.257730 2.885613
v    225.762696 21.074728 4.070220
v    226.430763 21.413200 4.539665
v    228.797131 22.575338 5.204886
v    230.253644 23.338501 5.618724
v    232.718246 24.941494 5.007938
v    221.665079 20.393884 1.487000
v    218.826347 21.245059 1.487000
v    219.508574 18.361057 1.487000
v    218.334921 19.606116 2.857581
v    221.173653 18.754941 2.857581
v    220.491426 21.638943 2.857581
v    219.052176 17.788317 1.891196
v    216.111277 17.367870 4.706111
v    213.146714 16.904868 6.590403
v    208.646881 16.247571 7.918236
v    207.068231 16.056843 8.318431
v    205.739656 15.894978 8.036121
v    202.599655 15.883848 7.387049
v    218.161711 21.552612 1.891196
v    215.344129 20.610857 4.706111
v    212.486326 19.696544 6.590403
v    208.168919 18.268073 7.918236
v    206.672131 17.731288 8.318431
v    205.411845 17.280743 8.036121
v    202.599655 15.883848 7.387049
v    219.094938 18.966489 2.857581
v    221.347578 19.732949 2.857581
v    219.557484 21.300563 2.857581
v    220.905062 21.033511 4.464214
v    218.652422 20.267051 4.464214
v    220.442516 18.699437 4.464214
v    218.634415 22.542631 3.217560
v    220.063385 23.904937 5.088296
v    221.408532 25.186712 6.848853
v    224.619329 28.326407 9.669014
v    226.297649 30.000060 10.267928
v    229.843042 33.408037 11.508812
v    233.400028 36.695979 10.486477
v    236.310831 38.786444 9.745693
v    236.654235 39.017853 9.509202
v    222.700578 18.981828 3.217560
v    223.862436 20.578048 5.088296
v    224.955526 22.080552 6.848853
v    227.644141 25.677531 9.669014
v    229.081725 27.562000 10.267928
v    231.992131 31.526046 11.508812
v    234.782020 35.485746 10.486477
v    236.470159 38.646919 9.745693
v    236.654235 39.017853 9.509202
v    220.893018 20.570167 4.464214
v    219.059712 20.488293 4.464214
v    220.047270 18.941540 4.464214
v    219.106982 19.429833 10.752587
v    220.940288 19.511707 10.752587
v    219.952730 21.058460 10.752587
v    221.418000 16.653931 9.182914
v    217.427269 14.585502 13.442068
v    212.147214 11.768126 17.305993
v    207.175098 9.047499 18.738155
v    204.070158 7.421925 19.622497
v    200.500586 5.549589 18.770104
v    196.211547 3.439642 17.761871
v    194.572432 2.860773 17.402541
v    191.733105 1.952394 15.700036
v    217.561332 22.694402 9.182914
v    214.005614 19.944638 13.442068
v    209.227927 16.340433 17.305993
v    204.667590 12.974860 18.738155
v    201.886358 10.842282 19.622497
v    198.685753 8.392053 18.770104
v    194.966841 5.389152 17.761871
v    193.751961 4.145827 17.402541
v    191.733105 1.952394 15.700036
v    219.376710 19.550918 10.752587
v    220.700562 19.684756 10.752587
v    219.922729 20.764326 10.752587
v    220.623290 20.449082 20.541539
v    219.299438 20.315244 20.541539
v    220.077271 19.235674 20.541539
v    217.499663 23.829924 18.612508
v    221.426775 26.457154 23.105060
v    225.376281 28.845496 26.383503
v    237.948763 36.631583 31.442111
v    247.683953 42.500456 29.037594
v    252.381827 45.082919 26.471363
v    257.025546 46.676993 22.381089
v    222.841497 16.415883 18.612508
v    226.576746 19.309402 23.105060
v    230.092482 22.299784 26.383503
v    241.457981 31.761068 31.442111
v    250.106715 39.137855 29.037594
v    254.043483 42.776673 26.471363
v    257.025546 46.676993 22.381089
v    220.418902 20.272817 20.541539
v    219.554282 20.226371 20.541539
v    220.026815 19.500811 20.541539
v    219.581098 19.727183 24.307000
v    220.445718 19.773629 24.307000
v    219.973185 20.499189 24.307000
v    222.106714 16.600552 19.598427
v    218.855079 15.155876 27.446475
v    213.172846 12.551410 36.520459
v    207.666462 9.933128 40.995837
v    202.570044 8.350430 44.798250
v    201.529797 7.970972 44.994852
v    217.742693 23.301372 19.598427
v    215.106592 20.911562 27.446475
v    210.426934 16.767673 36.520459
v    205.805744 12.790203 40.995837
v    202.297473 8.768954 44.798250
v    201.529797 7.970972 44.994852
mtllib usm_29_2.5D_2018-08-17_5.mtl
usemtl APPID_2417291232_1742050077952 
o vid_3 
f 3 2 1
f 4 5 6
f 1 6 5
f 1 5 3
f 3 5 4
f 4 2 3
f 2 4 6
f 6 1 2
usemtl APPID_2417292128_1742050076672 
o vid_4 
f 7 14 15
f 8 15 16
f 9 16 17
f 10 17 18
f 11 18 19
f 7 15 8
f 8 16 9
f 9 17 10
f 10 18 11
f 11 19 12
f 12 19 20
usemtl APPID_2417291232_1742050077952 
o vid_5 
f 23 22 21
f 24 25 26
f 21 26 25
f 21 25 23
f 23 25 24
f 24 22 23
f 22 24 26
f 26 21 22
usemtl APPID_2417292128_1742050076672 
o vid_6 
f 27 34 35
f 28 35 36
f 29 36 37
f 30 37 38
f 31 38 39
f 27 35 28
f 28 36 29
f 29 37 30
f 30 38 31
f 31 39 32
f 32 39 40
usemtl APPID_2417291232_1742050077952 
o vid_7 
f 43 42 41
f 44 45 46
f 41 46 45
f 41 45 43
f 43 45 44
f 44 42 43
f 42 44 46
f 46 41 42
usemtl APPID_2417292128_1742050076672 
o vid_8 
f 47 54 55
f 48 55 56
f 49 56 57
f 50 57 58
f 51 58 59
f 47 55 48
f 48 56 49
f 49 57 50
f 50 58 51
f 51 59 52
f 52 59 60
usemtl APPID_2417291232_1742050077952 
o vid_9 
f 63 62 61
f 64 65 66
f 61 66 65
f 61 65 63
f 63 65 64
f 64 62 63
f 62 64 66
f 66 61 62
usemtl APPID_2417292128_1742050076672 
o vid_10 
f 67 74 75
f 68 75 76
f 69 76 77
f 70 77 78
f 71 78 79
f 67 75 68
f 68 76 69
f 69 77 70
f 70 78 71
f 71 79 72
f 72 79 80
usemtl APPID_2417291232_1742050077952 
o vid_11 
f 83 82 81
f 84 85 86
f 81 86 85
f 81 85 83
f 83 85 84
f 84 82 83
f 82 84 86
f 86 81 82
usemtl APPID_2417292128_1742050076672 
o vid_12 
f 87 96 97
f 88 97 98
f 89 98 99
f 90 99 100
f 91 100 101
f 92 101 102
f 93 102 103
f 87 97 88
f 88 98 89
f 89 99 90
f 90 100 91
f 91 101 92
f 92 102 93
f 93 103 94
f 94 103 104
usemtl APPID_2417291232_1742050077952 
o vid_13 
f 107 106 105
f 108 109 110
f 105 110 109
f 105 109 107
f 107 109 108
f 108 106 107
f 106 108 110
f 110 105 106
usemtl APPID_2417292128_1742050076672 
o vid_14 
f 111 120 121
f 112 121 122
f 113 122 123
f 114 123 124
f 115 124 125
f 116 125 126
f 117 126 127
f 111 121 112
f 112 122 113
f 113 123 114
f 114 124 115
f 115 125 116
f 116 126 117
f 117 127 118
f 118 127 128
usemtl APPID_2417291232_1742050077952 
o vid_15 
f 131 130 129
f 132 133 134
f 129 134 133
f 129 133 131
f 131 133 132
f 132 130 131
f 130 132 134
f 134 129 130
usemtl APPID_2417292128_1742050076672 
o vid_16 
f 135 142 143
f 136 143 144
f 137 144 145
f 138 145 146
f 139 146 147
f 135 143 136
f 136 144 137
f 137 145 138
f 138 146 139
f 139 147 140
f 140 147 148
usemtl APPID_2417291232_1742050077952 
o vid_17 
f 151 150 149
f 152 153 154
f 149 154 153
f 149 153 151
f 151 153 152
f 152 150 151
f 150 152 154
f 154 149 150
usemtl APPID_2417292128_1742050076672 
o vid_18 
f 155 161 162
f 156 162 163
f 157 163 164
f 158 164 165
f 155 162 156
f 156 163 157
f 157 164 158
f 158 165 159
f 159 165 166
