# File generated by PlantGL - Fri Sep  4 14:42:53 2026
v    58.201987 19.124129 0.000000
v    61.657533 18.880811 0.000000
v    60.140480 21.995060 0.000000
v    61.798013 20.875871 0.231332
v    58.342467 21.119189 0.231332
v    59.859520 18.004940 0.231332
v    61.024856 20.874446 -2.173816
v    62.137255 21.041127 -1.152915
v    61.320298 20.267955 -2.173816
v    62.137255 21.041127 -1.152915
v    61.503548 21.204422 0.231332
v    58.205166 20.699900 0.231332
v    60.291286 18.095678 0.231332
v    58.496452 18.795578 0.322458
v    61.794834 19.300100 0.322458
v    59.708714 21.904322 0.322458
v    59.310588 18.892012 -2.082691
v    57.962548 18.367893 -0.769967
v    58.768254 19.569039 -2.082691
v    57.962548 18.367893 -0.769967
v    58.272844 19.328938 0.322458
v    61.444735 18.839770 0.322458
v    60.282421 21.831292 0.322458
v    61.727156 20.671062 0.466406
v    58.555265 21.160230 0.466406
v    59.717579 18.168708 0.466406
v    60.860370 20.981000 -1.938742
v    62.866166 21.113608 -0.114278
v    61.297001 19.857216 -1.938742
v    62.866166 21.113608 -0.114278
v    61.731622 20.409625 0.466406
v    58.779443 21.294816 0.466406
v    59.488935 18.295559 0.466406
v    58.268378 19.590375 0.678771
v    61.220557 18.705184 0.678771
v    60.511065 21.704441 0.678771
v    59.141799 18.920242 -1.726378
v    56.304106 19.125715 0.855898
v    58.748982 20.580810 -1.726378
v    56.304106 19.125715 0.855898
v    58.876148 18.716648 0.678771
v    61.673341 19.668392 0.678771
v    59.450510 21.614960 0.678771
v    61.123852 21.283352 0.919581
v    58.326659 20.331608 0.919581
v    60.549490 18.385040 0.919581
v    59.495157 21.784877 -1.485567
v    63.925929 24.483108 3.222862
v    61.835882 19.735067 -1.485567
v    63.925929 24.483108 3.222862
v    61.163868 20.743097 0.919581
v    58.774526 20.636391 0.919581
v    60.061606 18.620512 0.919581
v    58.836132 19.256903 1.432331
v    61.225474 19.363609 1.432331
v    59.938394 21.379488 1.432331
v    60.268154 18.306794 -0.972818
v    55.209057 16.941120 3.783251
v    58.576854 20.955777 -0.972818
v    55.209057 16.941120 3.783251
v    59.127731 19.371528 1.432331
v    60.980407 19.558829 1.432331
v    59.891862 21.069643 1.432331
v    60.872269 20.628472 2.225064
v    59.019593 20.441171 2.225064
v    60.108138 18.930357 2.225064
v    59.031556 21.993141 -0.180085
v    61.487812 23.256067 2.418320
v    66.097635 24.782617 6.825706
v    67.234259 25.212301 7.564784
v    61.584087 18.450432 -0.180085
v    63.559592 20.380600 2.418320
v    66.466874 24.270142 6.825706
v    67.234259 25.212301 7.564784
v    60.663919 20.432389 2.225064
v    59.293581 20.358777 2.225064
v    60.042500 19.208835 2.225064
v    59.336081 19.567611 3.119461
v    60.706419 19.641223 3.119461
v    59.957500 20.791165 3.119461
v    61.194278 17.989197 0.714313
v    57.743294 16.415564 4.282607
v    54.095850 15.395506 7.720103
v    51.767702 14.638579 9.209113
v    58.643813 21.905357 0.714313
v    55.809162 19.385365 4.282607
v    53.401374 16.461853 7.720103
v    51.767702 14.638579 9.209113
v    59.534335 19.741724 3.119461
v    60.456506 19.725860 3.119461
v    60.009159 20.532416 3.119461
v    60.465665 20.258276 3.654000
v    59.543494 20.274140 3.654000
v    59.990841 19.467584 3.654000
v    58.752052 21.451585 -1.244846
v    59.278913 21.626416 -0.478002
v    64.082791 22.264473 5.862197
v    60.570623 18.172745 -1.244846
v    60.997904 18.527117 -0.478002
v    64.082791 22.264473 5.862197
mtllib usm_42_2.5D_2018-08-01_1.mtl
usemtl APPID_4152163136_1941179421552 
o vid_3 
f 3 2 1
f 4 5 6
f 1 6 5
f 1 5 3
f 3 5 4
f 4 2 3
f 2 4 6
f 6 1 2
usemtl APPID_4152162352_1941179428336 
o vid_4 
f 7 9 10
f 7 10 8
f 7 9 10
usemtl APPID_4152163136_1941179421552 
o vid_5 
f 13 12 11
f 14 15 16
f 11 16 15
f 11 15 13
f 13 15 14
f 14 12 13
f 12 14 16
f 16 11 12
usemtl APPID_4152162352_1941179428336 
o vid_6 
f 17 19 20
f 17 20 18
f 17 19 20
usemtl APPID_4152163136_1941179421552 
o vid_7 
f 23 22 21
f 24 25 26
f 21 26 25
f 21 25 23
f 23 25 24
f 24 22 23
f 22 24 26
f 26 21 22
usemtl APPID_4152162352_1941179428336 
o vid_8 
f 27 29 30
f 27 30 28
f 27 29 30
usemtl APPID_4152163136_1941179421552 
o vid_9 
f 33 32 31
f 34 35 36
f 31 36 35
f 31 35 33
f 33 35 34
f 34 32 33
f 32 34 36
f 36 31 32
usemtl APPID_4152162352_1941179428336 
o vid_10 
f 37 39 40
f 37 40 38
f 37 39 40
usemtl APPID_4152163136_1941179421552 
o vid_11 
f 43 42 41
f 44 45 46
f 41 46 45
f 41 45 43
f 43 45 44
f 44 42 43
f 42 44 46
f 46 41 42
usemtl APPID_4152162352_1941179428336 
o vid_12 
f 47 49 50
f 47 50 48
f 47 49 50
usemtl APPID_4152163136_1941179421552 
o vid_13 
f 53 52 51
f 54 55 56
f 51 56 55
f 51 55 53
f 53 55 54
f 54 52 53
f 52 54 56
f 56 51 52
usemtl APPID_4152162352_1941179428336 
o vid_14 
f 57 59 60
f 57 60 58
f 57 59 60
usemtl APPID_4152163136_1941179421552 
o vid_15 
f 63 62 61
f 64 65 66
f 61 66 65
f 61 65 63
f 63 65 64
f 64 62 63
f 62 64 66
f 66 61 62
usemtl APPID_4152162352_1941179428336 
o vid_16 
f 67 71 72
f 68 72 73
f 67 72 68
f 68 73 69
f 69 73 74
usemtl APPID_4152163136_1941179421552 
o vid_17 
f 77 76 75
f 78 79 80
f 75 80 79
f 75 79 77
f 77 79 78
f 78 76 77
f 76 78 80
f 80 75 76
usemtl APPID_4152162352_1941179428336 
o vid_18 
f 81 85 86
f 82 86 87
f 81 86 82
f 82 87 83
f 83 87 88
usemtl APPID_4152163136_1941179421552 
o vid_19 
f 91 90 89
f 92 93 94
f 89 94 93
f 89 93 91
f 91 93 92
f 92 90 91
f 90 92 94
f 94 89 90
usemtl APPID_4152162352_1941179428336 
o vid_20 
f 95 98 99
f 95 99 96
f 96 99 100
