# File generated by PlantGL - Fri Sep  4 14:42:49 2026
v    18.524188 219.281084 0.000000
v    21.360506 219.081368 0.000000
v    20.115306 221.637549 0.000000
v    21.475812 220.718916 0.362700
v    18.639494 220.918632 0.362700
v    19.884694 218.362451 0.362700
v    21.293214 221.067577 0.203133
v    21.577292 221.175884 0.485648
v    21.772666 221.246721 0.678455
v    22.443067 221.499166 1.160650
v    23.121365 221.763946 1.394045
v    23.783328 221.992519 1.617618
v    24.316755 222.102833 1.635840
v    21.637794 220.360213 0.203133
v    21.898190 220.517137 0.485648
v    22.074401 220.627311 0.678455
v    22.686431 220.999581 1.160650
v    23.313043 221.370465 1.394045
v    23.901075 221.750806 1.617618
v    24.316755 222.102833 1.635840
v    20.940377 220.753292 0.362700
v    18.877441 220.437744 0.362700
v    20.182182 218.808963 0.362700
v    19.059623 219.246708 0.589630
v    21.122559 219.562256 0.589630
v    19.817818 221.191037 0.589630
v    19.418284 218.824904 0.363993
v    19.087085 218.604905 0.733471
v    18.812423 218.428889 1.036127
v    17.966345 217.871880 1.717980
v    17.148038 217.318926 2.034543
v    16.306163 216.797471 2.350689
v    15.606396 216.480489 2.390431
v    18.726269 219.688785 0.363993
v    18.439287 219.413588 0.733471
v    18.207567 219.183965 1.036127
v    17.479323 218.479858 1.717980
v    16.761097 217.801966 2.034543
v    16.068467 217.094201 2.350689
v    15.606396 216.480489 2.390431
v    19.257142 219.711373 0.589630
v    20.621387 219.500980 0.589630
v    20.121471 220.787647 0.589630
v    20.742858 220.288627 0.707000
v    19.378613 220.499020 0.707000
v    19.878529 219.212353 0.707000
v    20.618570 220.790024 0.093237
v    21.097295 220.886594 1.056677
v    21.229770 220.902225 1.315242
v    21.895950 221.019377 2.245521
v    22.240937 221.005496 2.689412
v    22.650044 221.029637 2.997187
v    20.989691 219.834843 0.093237
v    21.408037 220.086818 1.056677
v    21.516315 220.164727 1.315242
v    22.086837 220.528079 2.245521
v    22.331955 220.771237 2.689412
v    22.650044 221.029637 2.997187
mtllib usm_25_2.5D_2018-07-27_5.mtl
usemtl APPID_3202188432_2021840768752 
o vid_3 
f 3 2 1
f 4 5 6
f 1 6 5
f 1 5 3
f 3 5 4
f 4 2 3
f 2 4 6
f 6 1 2
usemtl APPID_3202188992_2021840767088 
o vid_4 
f 7 14 15
f 8 15 16
f 9 16 17
f 10 17 18
f 11 18 19
f 7 15 8
f 8 16 9
f 9 17 10
f 10 18 11
f 11 19 12
f 12 19 20
usemtl APPID_3202188432_2021840768752 
o vid_5 
f 23 22 21
f 24 25 26
f 21 26 25
f 21 25 23
f 23 25 24
f 24 22 23
f 22 24 26
f 26 21 22
usemtl APPID_3202188992_2021840767088 
o vid_6 
f 27 34 35
f 28 35 36
f 29 36 37
f 30 37 38
f 31 38 39
f 27 35 28
f 28 36 29
f 29 37 30
f 30 38 31
f 31 39 32
f 32 39 40
usemtl APPID_3202188432_2021840768752 
o vid_7 
f 43 42 41
f 44 45 46
f 41 46 45
f 41 45 43
f 43 45 44
f 44 42 43
f 42 44 46
f 46 41 42
usemtl APPID_3202188992_2021840767088 
o vid_8 
f 47 53 54
f 48 54 55
f 49 55 56
f 50 56 57
f 47 54 48
f 48 55 49
f 49 56 50
f 50 57 51
f 51 57 58
