# File generated by PlantGL - Wed Jul 15 17:36:43 2026
v    20.701807 219.124129 0.000000
v    24.157353 218.880811 0.000000
v    22.640300 221.995060 0.000000
v    24.297833 220.875871 3.802806
v    20.842287 221.119189 3.802806
v    22.359340 218.004940 3.802806
v    23.893806 221.519368 3.538888
v    24.797314 221.866393 4.388787
v    25.748476 222.244200 4.982798
v    26.165882 222.403414 5.241793
v    27.538046 222.941490 5.636025
v    28.906345 223.446304 5.624849
v    29.576317 223.660904 5.418750
v    30.226733 223.764032 5.232305
v    24.555479 220.161067 3.538888
v    25.385676 220.658587 4.388787
v    26.269487 221.174655 4.982798
v    26.652153 221.405182 5.241793
v    27.921678 222.153960 5.636025
v    29.162629 222.920197 5.624849
v    29.744595 223.315457 5.418750
v    30.226733 223.764032 5.232305
v    23.995716 221.198293 3.802806
v    20.714120 220.696338 3.802806
v    22.789624 218.105369 3.802806
v    21.003924 218.801707 8.831485
v    24.285520 219.303662 8.831485
v    22.210016 221.894631 8.831485
v    21.810954 217.989564 8.435627
v    20.603689 217.183339 9.710414
v    19.278761 216.276562 10.642256
v    18.779375 215.944733 10.989861
v    16.949542 214.704150 11.581180
v    15.115646 213.511924 11.564416
v    14.140330 212.934367 11.232224
v    13.222784 212.568600 10.952569
v    20.387503 219.766539 8.435627
v    19.337218 218.764346 9.710414
v    18.163124 217.669274 10.642256
v    17.730300 217.254353 10.989861
v    16.120248 215.739405 11.581180
v    14.556500 214.209937 11.564416
v    13.779996 213.384193 11.232224
v    13.222784 212.568600 10.952569
v    20.790941 219.336039 8.831485
v    23.929266 218.852048 8.831485
v    22.779253 221.811913 8.831485
v    24.208699 220.663961 19.751381
v    21.070374 221.147952 19.751381
v    22.220387 218.188087 19.751381
v    23.422731 222.198634 19.178191
v    25.440576 222.787615 21.024043
v    28.494274 223.716796 22.876644
v    31.560666 224.635470 23.732856
v    32.882687 225.035309 23.722251
v    34.602478 225.509215 23.708583
v    35.768061 225.824984 23.353146
v    37.154841 226.141662 22.936584
v    38.581122 226.248162 22.531653
v    24.665043 219.001216 19.178191
v    26.551216 219.929087 21.024043
v    29.431205 221.305356 22.876644
v    32.313463 222.697946 23.732856
v    33.558643 223.295556 23.722251
v    35.147256 224.107084 23.708583
v    36.220275 224.661092 23.353146
v    37.457079 225.363771 22.936584
v    38.581122 226.248162 22.531653
v    24.094881 220.377321 19.751381
v    21.375520 221.192703 19.751381
v    22.029059 218.429976 19.751381
v    20.904759 219.622679 37.004736
v    23.624120 218.807297 37.004736
v    22.970581 221.570024 37.004736
v    21.685642 217.395268 36.203522
v    18.778506 216.968683 38.783679
v    15.000674 216.370330 41.003667
v    9.947252 215.598652 42.570094
v    8.802143 215.419255 42.561194
v    5.563163 214.993862 42.536165
v    4.624504 214.874711 42.257669
v    2.643530 214.703514 41.675392
v    0.648368 214.830913 41.109374
v    20.604910 221.963882 36.203522
v    17.814764 221.042741 38.783679
v    14.169245 219.885058 41.003667
v    9.305674 218.310814 42.570094
v    8.201555 217.958143 42.561194
v    5.115270 216.887258 42.536165
v    4.222711 216.573224 42.257669
v    2.374990 215.838720 41.675392
v    0.648368 214.830913 41.109374
v    21.642963 219.021536 37.004736
v    23.775623 219.747172 37.004736
v    22.080873 221.231292 37.004736
v    23.356677 220.978464 60.162058
v    21.224017 220.252828 60.162058
v    22.918767 218.768708 60.162058
v    20.549478 222.993460 59.080905
v    21.662989 224.122571 60.476229
v    23.354663 225.787445 62.562554
v    27.650213 230.006004 66.056931
v    30.602461 232.951417 67.173390
v    31.937960 234.251521 67.671919
v    36.199021 238.422168 67.626135
v    40.874514 242.769963 65.746222
v    44.982489 245.673475 63.375149
v    25.724439 218.461665 59.080905
v    26.696761 219.714416 60.476229
v    28.123882 221.610965 62.562554
v    31.738807 226.425558 66.056931
v    34.268951 229.740614 67.173390
v    35.381483 231.235973 67.671919
v    38.953466 236.010057 67.626135
v    42.646367 241.218324 65.746222
v    44.982489 245.673475 63.375149
v    23.332719 220.531783 60.162058
v    21.622833 220.455421 60.162058
v    22.543907 219.012797 60.162058
v    21.666921 219.468217 120.617660
v    23.376807 219.544579 120.617660
v    22.455733 220.987203 120.617660
v    24.473767 215.879331 119.209295
v    21.044457 213.965521 122.664751
v    13.052816 209.672933 128.296625
v    7.236186 206.488445 130.071945
v    -0.696231 202.247467 130.340751
v    -2.760027 201.151797 129.651346
v    -9.179526 197.953623 127.540372
v    -15.287094 195.874134 124.203331
v    19.592424 223.524688 119.209295
v    16.413221 221.219152 122.664751
v    9.156231 215.775923 128.296625
v    3.819722 211.839451 130.071945
v    -3.365528 206.428229 130.340751
v    -5.227934 205.017132 129.651346
v    -10.830552 200.539528 127.540372
v    -15.287094 195.874134 124.203331
v    21.930419 219.589745 120.617660
v    23.139812 219.712012 120.617660
v    22.429229 220.698243 120.617660
v    23.069221 220.410255 163.536757
v    21.859828 220.287988 163.536757
v    22.570411 219.301757 163.536757
v    19.494098 224.437666 161.765698
v    25.072325 227.764499 167.469061
v    33.484756 232.912353 173.193275
v    41.937093 238.047244 175.838822
v    46.344179 240.733924 175.799189
v    50.343944 243.038165 175.763822
v    54.331674 245.312552 174.412615
v    58.233699 247.335437 173.125509
v    61.826818 248.559353 172.050833
v    62.374521 248.729816 171.749644
v    25.757828 215.744107 161.765698
v    30.679362 219.982376 167.469061
v    38.225438 226.332664 173.193275
v    45.771849 232.724908 175.838822
v    49.715426 236.054901 175.799189
v    53.167294 239.119579 175.763822
v    56.587034 242.182292 174.412615
v    59.741075 245.243318 173.125509
v    62.039450 248.264237 172.050833
v    62.374521 248.729816 171.749644
v    22.869744 220.240919 163.536757
v    22.106215 220.199904 163.536757
v    22.523500 219.559176 163.536757
v    22.129896 219.759081 176.171000
v    22.893425 219.800096 176.171000
v    22.476140 220.440824 176.171000
v    24.365811 216.579263 171.833107
v    22.866465 216.061377 176.578110
v    21.143728 215.607087 181.793250
v    18.419151 214.547717 186.920654
v    15.747369 213.734521 191.728026
v    14.363228 213.683707 193.856220
v    12.191114 213.286283 195.940451
v    20.125706 223.089813 171.833107
v    19.045787 221.927910 176.578110
v    17.933705 220.535977 181.793250
v    15.863123 218.472420 186.920654
v    14.039040 216.357608 191.728026
v    13.432890 215.112212 193.856220
v    12.191114 213.286283 195.940451
mtllib usm_10_2.5D_2018-08-21_5.mtl
usemtl APPID_1708029344_2419758958944 
o vid_3 
f 3 2 1
f 4 5 6
f 1 6 5
f 1 5 3
f 3 5 4
f 4 2 3
f 2 4 6
f 6 1 2
usemtl APPID_1708029568_2419758955104 
o vid_4 
f 7 15 16
f 8 16 17
f 9 17 18
f 10 18 19
f 11 19 20
f 12 20 21
f 7 16 8
f 8 17 9
f 9 18 10
f 10 19 11
f 11 20 12
f 12 21 13
f 13 21 22
usemtl APPID_1708029344_2419758958944 
o vid_5 
f 25 24 23
f 26 27 28
f 23 28 27
f 23 27 25
f 25 27 26
f 26 24 25
f 24 26 28
f 28 23 24
usemtl APPID_1708029568_2419758955104 
o vid_6 
f 29 37 38
f 30 38 39
f 31 39 40
f 32 40 41
f 33 41 42
f 34 42 43
f 29 38 30
f 30 39 31
f 31 40 32
f 32 41 33
f 33 42 34
f 34 43 35
f 35 43 44
usemtl APPID_1708029344_2419758958944 
o vid_7 
f 47 46 45
f 48 49 50
f 45 50 49
f 45 49 47
f 47 49 48
f 48 46 47
f 46 48 50
f 50 45 46
usemtl APPID_1708029568_2419758955104 
o vid_8 
f 51 60 61
f 52 61 62
f 53 62 63
f 54 63 64
f 55 64 65
f 56 65 66
f 57 66 67
f 51 61 52
f 52 62 53
f 53 63 54
f 54 64 55
f 55 65 56
f 56 66 57
f 57 67 58
f 58 67 68
usemtl APPID_1708029344_2419758958944 
o vid_9 
f 71 70 69
f 72 73 74
f 69 74 73
f 69 73 71
f 71 73 72
f 72 70 71
f 70 72 74
f 74 69 70
usemtl APPID_1708029568_2419758955104 
o vid_10 
f 75 84 85
f 76 85 86
f 77 86 87
f 78 87 88
f 79 88 89
f 80 89 90
f 81 90 91
f 75 85 76
f 76 86 77
f 77 87 78
f 78 88 79
f 79 89 80
f 80 90 81
f 81 91 82
f 82 91 92
usemtl APPID_1708029344_2419758958944 
o vid_11 
f 95 94 93
f 96 97 98
f 93 98 97
f 93 97 95
f 95 97 96
f 96 94 95
f 94 96 98
f 98 93 94
usemtl APPID_1708029568_2419758955104 
o vid_12 
f 99 108 109
f 100 109 110
f 101 110 111
f 102 111 112
f 103 112 113
f 104 113 114
f 105 114 115
f 99 109 100
f 100 110 101
f 101 111 102
f 102 112 103
f 103 113 104
f 104 114 105
f 105 115 106
f 106 115 116
usemtl APPID_1708029344_2419758958944 
o vid_13 
f 119 118 117
f 120 121 122
f 117 122 121
f 117 121 119
f 119 121 120
f 120 118 119
f 118 120 122
f 122 117 118
usemtl APPID_1708029568_2419758955104 
o vid_14 
f 123 131 132
f 124 132 133
f 125 133 134
f 126 134 135
f 127 135 136
f 128 136 137
f 123 132 124
f 124 133 125
f 125 134 126
f 126 135 127
f 127 136 128
f 128 137 129
f 129 137 138
usemtl APPID_1708029344_2419758958944 
o vid_15 
f 141 140 139
f 142 143 144
f 139 144 143
f 139 143 141
f 141 143 142
f 142 140 141
f 140 142 144
f 144 139 140
usemtl APPID_1708029568_2419758955104 
o vid_16 
f 145 155 156
f 146 156 157
f 147 157 158
f 148 158 159
f 149 159 160
f 150 160 161
f 151 161 162
f 152 162 163
f 145 156 146
f 146 157 147
f 147 158 148
f 148 159 149
f 149 160 150
f 150 161 151
f 151 162 152
f 152 163 153
f 153 163 164
usemtl APPID_1708029344_2419758958944 
o vid_17 
f 167 166 165
f 168 169 170
f 165 170 169
f 165 169 167
f 167 169 168
f 168 166 167
f 166 168 170
f 170 165 166
usemtl APPID_1708029568_2419758955104 
o vid_18 
f 171 178 179
f 172 179 180
f 173 180 181
f 174 181 182
f 175 182 183
f 171 179 172
f 172 180 173
f 173 181 174
f 174 182 175
f 175 183 176
f 176 183 184
