# File generated by PlantGL - Fri Sep  4 14:43:54 2026
v    258.908004 19.468053 0.000000
v    261.006678 19.320277 0.000000
v    260.085318 21.211670 0.000000
v    261.091996 20.531947 0.316043
v    258.993322 20.679723 0.316043
v    259.914682 18.788330 0.316043
v    260.927510 20.841841 0.146810
v    261.438340 21.027053 0.650928
v    262.055268 21.259362 1.094662
v    262.743915 21.495246 1.362460
v    263.288853 21.602108 1.535059
v    261.234618 20.211402 0.146810
v    261.695345 20.499467 0.650928
v    262.258558 20.842044 1.094662
v    262.868794 21.238889 1.362460
v    263.288853 21.602108 1.535059
v    260.619446 20.496209 0.316043
v    259.260547 20.288351 0.316043
v    260.120007 19.215439 0.316043
v    259.380554 19.503791 0.379000
v    260.739453 19.711649 0.379000
v    259.879993 20.784561 0.379000
v    259.572258 19.158971 -0.080992
v    259.287201 19.012245 0.679606
v    259.208446 18.980658 0.876197
v    258.790519 18.775125 1.621124
v    258.560714 18.722899 1.968469
v    258.279192 18.621541 2.226674
v    259.085889 19.766133 -0.080992
v    258.880484 19.519973 0.679606
v    258.832470 19.450011 0.876197
v    258.540675 19.087019 1.621124
v    258.439551 18.874153 1.968469
v    258.279192 18.621541 2.226674
mtllib usm_29_2.5D_2018-07-24_6.mtl
usemtl APPID_2417315872_1742050205696 
o vid_3 
f 3 2 1
f 4 5 6
f 1 6 5
f 1 5 3
f 3 5 4
f 4 2 3
f 2 4 6
f 6 1 2
usemtl APPID_2417320688_1742050200320 
o vid_4 
f 7 12 13
f 8 13 14
f 9 14 15
f 7 13 8
f 8 14 9
f 9 15 10
f 10 15 16
usemtl APPID_2417315872_1742050205696 
o vid_5 
f 19 18 17
f 20 21 22
f 17 22 21
f 17 21 19
f 19 21 20
f 20 18 19
f 18 20 22
f 22 17 18
usemtl APPID_2417320688_1742050200320 
o vid_6 
f 23 29 30
f 24 30 31
f 25 31 32
f 26 32 33
f 23 30 24
f 24 31 25
f 25 32 26
f 26 33 27
f 27 33 34
