# File generated by PlantGL - Fri Sep  4 14:43:28 2026
v    297.752484 18.905161 0.000000
v    302.071916 18.601013 0.000000
v    300.175600 22.493825 0.000000
v    302.247516 21.094839 0.848509
v    297.928084 21.398987 0.848509
v    299.824400 17.506175 0.848509
v    302.061967 21.449533 0.688792
v    302.412982 21.583360 1.037875
v    302.464257 21.601951 1.088477
v    302.412430 20.730092 0.688792
v    302.734182 20.923992 1.037875
v    302.780428 20.952906 1.088477
v    301.879284 21.505407 0.848509
v    297.756638 20.874804 0.848509
v    300.364078 17.619789 0.848509
v    298.120716 18.494593 1.417165
v    302.243362 19.125196 1.417165
v    299.635922 22.380211 1.417165
v    298.493420 18.055297 1.191207
v    297.959030 17.700327 1.787360
v    297.889209 17.655583 1.864297
v    297.041927 17.097782 2.547120
v    296.988238 17.061502 2.567889
v    297.773357 18.954192 1.191207
v    297.310310 18.510161 1.787360
v    297.251405 18.451790 1.864297
v    296.522125 17.746680 2.547120
v    296.475002 17.702204 2.567889
v    297.841416 19.161313 1.417165
v    301.805616 18.549955 1.417165
v    300.352968 22.288732 1.417165
v    302.158584 20.838687 2.253766
v    298.194384 21.450045 2.253766
v    299.647032 17.711268 2.253766
v    301.871274 21.515974 1.940371
v    302.041794 21.565291 2.105321
v    302.841297 21.782360 2.873923
v    304.194455 22.167688 3.820973
v    304.791286 22.345434 4.020581
v    302.403912 20.145089 1.940371
v    302.562998 20.223836 2.105321
v    303.299329 20.603493 2.873923
v    304.557680 21.232830 3.820973
v    305.117956 21.504662 4.020581
v    302.163962 20.511898 2.253766
v    298.474702 21.618097 2.253766
v    299.361335 17.870005 2.253766
v    297.836038 19.488102 4.112548
v    301.525298 18.381903 4.112548
v    300.638665 22.129995 4.112548
v    298.105112 18.483651 3.686412
v    297.426459 18.385777 4.323575
v    296.750482 18.299590 4.955799
v    294.855880 18.034299 6.243539
v    293.095865 17.766222 6.814188
v    292.168204 17.662392 7.112190
v    297.626560 20.506651 3.686412
v    296.975983 20.290089 4.323575
v    296.333035 20.064276 4.955799
v    294.520375 19.452593 6.243539
v    292.826788 18.903700 6.814188
v    291.950926 18.580896 7.112190
v    298.595695 18.396392 4.112548
v    302.090917 19.585640 4.112548
v    299.313387 22.017967 4.112548
v    301.404305 21.603608 5.999272
v    297.909083 20.414360 5.999272
v    300.686613 17.982033 5.999272
v    300.283351 22.530987 5.431214
v    301.502715 23.695764 6.998193
v    303.453107 25.541283 8.839982
v    305.877197 27.893863 9.922741
v    307.340883 29.205687 10.550226
v    307.556337 29.401029 10.546915
v    302.471475 20.614812 5.431214
v    303.465187 21.977196 6.998193
v    305.037237 24.154035 8.839982
v    307.049416 26.867332 9.922741
v    308.156653 28.491305 10.550226
v    308.321861 28.730648 10.546915
v    301.718982 21.097521 5.999272
v    298.190028 20.939922 5.999272
v    300.090990 17.962557 5.999272
v    298.281018 18.902479 12.880915
v    301.809972 19.060078 12.880915
v    299.909010 22.037443 12.880915
v    299.368609 17.298179 12.138531
v    297.256824 16.200978 14.349967
v    294.295170 14.673231 16.593377
v    289.916762 12.354149 18.181508
v    288.089733 11.477434 18.828459
v    286.927334 10.911414 18.813740
v    286.574469 10.794279 18.809609
v    297.283352 20.564193 12.138531
v    295.399364 19.110208 14.349967
v    292.767172 17.066444 16.593377
v    288.820935 14.070478 18.181508
v    287.256789 12.782024 18.828459
v    286.254174 11.965745 18.813740
v    285.999426 11.694935 18.809609
v    298.420020 18.861621 12.880915
v    301.775855 19.200887 12.880915
v    299.804125 21.937492 12.880915
v    301.579980 21.138379 19.681199
v    298.224145 20.799113 19.681199
v    300.195875 18.062508 19.681199
v    300.092243 23.086321 18.730039
v    302.666816 24.613192 21.511549
v    306.397055 26.803963 24.437697
v    311.428052 29.841764 26.321471
v    314.116412 31.322770 27.301338
v    315.129271 31.888354 27.288131
v    316.470985 32.419020 27.272100
v    302.956810 19.110529 18.730039
v    305.220141 21.069379 21.511549
v    308.479056 23.914310 24.437697
v    312.953198 27.724983 26.321471
v    315.209041 29.806288 27.301338
v    316.066160 30.588027 27.288131
v    316.994254 31.692764 27.272100
v    301.554633 21.012481 19.681199
v    298.345849 20.840111 19.681199
v    300.099518 18.147408 19.681199
v    298.445367 18.987519 30.874713
v    301.654151 19.159889 30.874713
v    299.900482 21.852592 30.874713
v    300.237547 16.392992 29.679986
v    296.855121 14.596613 33.238878
v    292.114767 12.089704 36.849227
v    284.663001 8.056125 39.565234
v    282.186067 6.839888 40.446172
v    279.852229 5.677237 40.416487
v    277.230925 4.780710 40.385706
v    296.797064 21.675748 29.679986
v    293.786408 19.308527 33.238878
v    289.576823 15.986639 36.849227
v    282.874583 10.802185 39.565234
v    280.760663 9.028551 40.446172
v    278.753614 7.364127 40.416487
v    276.873727 5.329177 40.385706
v    298.458123 19.144816 30.874713
v    301.511550 19.092287 30.874713
v    300.030327 21.762897 30.874713
v    301.541877 20.855184 48.402209
v    298.488450 20.907713 48.402209
v    299.969673 18.237103 48.402209
v    299.442436 24.422468 46.931002
v    303.753793 26.334078 51.313482
v    307.696675 28.131645 54.233978
v    309.772015 29.041638 55.759327
v    322.359839 34.742696 60.188667
v    328.972945 37.486874 60.107135
v    331.393437 38.127348 60.079316
v    333.039079 38.555891 59.778086
v    303.456421 17.185350 46.931002
v    307.360896 19.830557 51.313482
v    310.973524 22.223567 54.233978
v    312.844359 23.502275 55.759327
v    324.345802 31.162052 60.188667
v    330.175314 35.319030 60.107135
v    332.000269 37.033245 60.079316
v    333.235162 38.202357 59.778086
v    301.593535 20.423890 48.402209
v    298.836133 21.168096 48.402209
v    299.570332 18.408014 48.402209
v    298.406465 19.576110 69.780616
v    301.163867 18.831904 69.780616
v    300.429668 21.591986 69.780616
v    299.831924 14.713834 68.004509
v    294.221355 13.745362 73.295234
v    288.200804 12.641474 77.420512
v    269.964984 9.367272 84.009750
v    260.358701 7.906780 83.899054
v    254.713999 7.852168 83.217652
v    297.227679 24.504002 68.004509
v    291.877449 22.556834 73.295234
v    286.104141 20.523483 77.420512
v    268.651681 14.304383 84.009750
v    259.589375 10.798915 83.899054
v    254.663580 8.041710 83.217652
v    298.788853 19.497240 69.780616
v    301.040976 19.202496 69.780616
v    300.170171 21.300264 69.780616
v    301.211147 20.502760 89.654928
v    298.959024 20.797504 89.654928
v    299.829829 18.699736 89.654928
v    298.914034 25.642513 87.552824
v    305.342791 27.662266 93.814640
v    307.785441 28.457710 95.545990
v    314.343248 30.488424 100.166993
v    329.665659 35.436040 105.328027
v    333.188337 36.420993 106.495763
v    338.807857 38.027074 106.429225
v    345.828505 39.057593 106.350385
v    303.229243 15.247184 87.552824
v    309.198464 18.373960 93.814640
v    311.486357 19.542213 95.545990
v    317.554451 22.752643 100.166993
v    331.876280 30.110658 105.328027
v    335.060907 31.909977 106.495763
v    340.165829 34.755722 106.429225
v    345.852375 39.000091 106.350385
v    300.774157 20.636995 89.654928
v    299.061268 20.351943 89.654928
v    300.164575 19.011063 89.654928
v    299.225843 19.363005 113.600779
v    300.938732 19.648057 113.600779
v    299.835425 20.988937 113.600779
v    303.566065 14.364056 111.161680
v    297.110459 9.952757 118.427347
v    293.749018 7.604099 121.191051
v    288.082262 3.765924 125.798064
v    271.683984 -7.631091 132.199069
v    269.195181 -9.218202 133.141418
v    262.358823 -13.633168 133.048768
v    255.143279 -17.037005 132.960126
v    254.784020 -17.204761 132.889891
v    295.156301 24.584677 111.161680
v    289.584362 19.099432 118.427347
v    286.632325 16.253214 121.191051
v    281.774699 11.431681 125.798064
v    267.433058 -2.464824 132.199069
v    265.396366 -4.601396 133.141418
v    259.747504 -10.459559 133.048768
v    255.017821 -16.884533 132.960126
v    254.784020 -17.204761 132.889891
v    299.500793 19.477691 113.600779
v    300.701937 19.828829 113.600779
v    299.797270 20.693481 113.600779
v    300.499207 20.522309 134.092227
v    299.298063 20.171171 134.092227
v    300.202730 19.306519 134.092227
v    295.013752 25.489348 131.317664
v    301.706601 31.347076 139.582621
v    303.944720 33.347444 141.605710
v    311.081723 39.542270 147.967077
v    326.628473 53.368152 154.635835
v    330.707544 56.715509 156.320405
v    336.280224 61.342343 156.237945
v    344.355985 66.408689 156.132022
v    305.709155 15.267013 131.317664
v    311.258322 22.217837 139.582621
v    313.155464 24.544101 141.605710
v    319.021305 31.953864 147.967077
v    332.130210 48.109762 154.635835
v    335.289737 52.335991 156.320405
v    339.659910 58.112144 156.237945
v    344.355985 66.408689 156.132022
v    300.330050 20.336378 134.092227
v    299.543663 20.117642 134.092227
v    300.126287 19.545979 134.092227
v    299.669950 19.663622 140.219000
v    300.456337 19.882358 140.219000
v    299.873713 20.454021 140.219000
v    303.373759 15.484510 134.083440
v    297.681278 11.176227 145.602549
v    295.830089 9.690909 148.365452
v    288.814842 4.697096 158.304401
v    280.187476 -0.192420 164.566692
v    295.421255 23.287398 134.083440
v    291.221853 17.514126 145.602549
v    289.771958 15.635064 148.365452
v    284.912270 8.526246 158.304401
v    280.187476 -0.192420 164.566692
v    302.464257 21.601951 1.088477
v    303.212390 21.882588 1.647213
v    303.977804 22.181375 1.910584
v    304.621748 22.403726 2.128071
v    305.178511 22.522623 2.121738
v    302.780428 20.952906 1.088477
v    303.462573 21.369005 1.647213
v    304.169662 21.787522 1.910584
v    304.741688 22.157510 2.128071
v    305.178511 22.522623 2.121738
v    296.988238 17.061502 2.567889
v    295.960097 16.366758 2.965627
v    295.262996 15.934976 3.227407
v    295.110324 15.839194 3.225355
v    294.403856 15.517190 3.216729
v    296.475002 17.702204 2.567889
v    295.572606 16.850486 2.965627
v    294.999085 16.264432 3.227407
v    294.872290 16.136345 3.225355
v    294.403856 15.517190 3.216729
v    304.791286 22.345434 4.020581
v    305.041840 22.420053 4.104378
v    306.374609 22.760026 4.543484
v    307.081355 22.838746 4.764507
v    307.411051 22.879459 4.760816
v    305.117956 21.504662 4.020581
v    305.353164 21.618779 4.104378
v    306.565854 22.267808 4.543484
v    307.140354 22.686897 4.764507
v    307.411051 22.879459 4.760816
v    292.168204 17.662392 7.112190
v    291.237223 17.558191 7.411259
v    290.866592 17.568338 7.526498
v    289.790759 17.584945 7.514543
v    291.950926 18.580896 7.112190
v    291.071931 18.256937 7.411259
v    290.745128 18.081808 7.526498
v    289.790759 17.584945 7.514543
v    307.556337 29.401029 10.546915
v    307.751165 29.577671 10.543921
v    309.357853 30.685946 10.522235
v    308.321861 28.730648 10.546915
v    308.471252 28.947079 10.543921
v    309.357853 30.685946 10.522235
v    286.574469 10.794279 18.809609
v    284.506402 10.107780 18.785398
v    285.999426 11.694935 18.809609
v    284.506402 10.107780 18.785398
v    316.470985 32.419020 27.272100
v    318.168387 33.090365 27.251819
v    316.994254 31.692764 27.272100
v    318.168387 33.090365 27.251819
v    277.230925 4.780710 40.385706
v    275.968038 4.348783 40.370877
v    276.873727 5.329177 40.385706
v    275.968038 4.348783 40.370877
v    333.039079 38.555891 59.778086
v    333.824677 38.760469 59.634285
v    333.235162 38.202357 59.778086
v    333.824677 38.760469 59.634285
v    254.713999 7.852168 83.217652
v    254.320166 7.848883 83.147886
v    254.663580 8.041710 83.217652
v    254.320166 7.848883 83.147886
v    345.828505 39.057593 106.350385
v    345.954118 39.076031 106.348974
v    345.852375 39.000091 106.350385
v    345.954118 39.076031 106.348974
mtllib usm_40_2.5D_2018-08-10_7.mtl
usemtl APPID_497880384_2676410518384 
o vid_3 
f 3 2 1
f 4 5 6
f 1 6 5
f 1 5 3
f 3 5 4
f 4 2 3
f 2 4 6
f 6 1 2
usemtl APPID_497880048_2676410516976 
o vid_4 
f 7 10 11
f 7 11 8
f 8 11 12
f 8 12 9
usemtl APPID_497880384_2676410518384 
o vid_5 
f 15 14 13
f 16 17 18
f 13 18 17
f 13 17 15
f 15 17 16
f 16 14 15
f 14 16 18
f 18 13 14
usemtl APPID_497880048_2676410516976 
o vid_6 
f 19 24 25
f 20 25 26
f 21 26 27
f 19 25 20
f 20 26 21
f 21 27 22
f 22 27 28
f 22 28 23
usemtl APPID_497880384_2676410518384 
o vid_7 
f 31 30 29
f 32 33 34
f 29 34 33
f 29 33 31
f 31 33 32
f 32 30 31
f 30 32 34
f 34 29 30
usemtl APPID_497880048_2676410516976 
o vid_8 
f 35 40 41
f 36 41 42
f 37 42 43
f 35 41 36
f 36 42 37
f 37 43 38
f 38 43 44
f 38 44 39
usemtl APPID_497880384_2676410518384 
o vid_9 
f 47 46 45
f 48 49 50
f 45 50 49
f 45 49 47
f 47 49 48
f 48 46 47
f 46 48 50
f 50 45 46
usemtl APPID_497880048_2676410516976 
o vid_10 
f 51 57 58
f 52 58 59
f 53 59 60
f 54 60 61
f 51 58 52
f 52 59 53
f 53 60 54
f 54 61 55
f 55 61 62
f 55 62 56
usemtl APPID_497880384_2676410518384 
o vid_11 
f 65 64 63
f 66 67 68
f 63 68 67
f 63 67 65
f 65 67 66
f 66 64 65
f 64 66 68
f 68 63 64
usemtl APPID_497880048_2676410516976 
o vid_12 
f 69 75 76
f 70 76 77
f 71 77 78
f 72 78 79
f 69 76 70
f 70 77 71
f 71 78 72
f 72 79 73
f 73 79 80
f 73 80 74
usemtl APPID_497880384_2676410518384 
o vid_13 
f 83 82 81
f 84 85 86
f 81 86 85
f 81 85 83
f 83 85 84
f 84 82 83
f 82 84 86
f 86 81 82
usemtl APPID_497880048_2676410516976 
o vid_14 
f 87 94 95
f 88 95 96
f 89 96 97
f 90 97 98
f 91 98 99
f 87 95 88
f 88 96 89
f 89 97 90
f 90 98 91
f 91 99 92
f 92 99 100
f 92 100 93
usemtl APPID_497880384_2676410518384 
o vid_15 
f 103 102 101
f 104 105 106
f 101 106 105
f 101 105 103
f 103 105 104
f 104 102 103
f 102 104 106
f 106 101 102
usemtl APPID_497880048_2676410516976 
o vid_16 
f 107 114 115
f 108 115 116
f 109 116 117
f 110 117 118
f 111 118 119
f 107 115 108
f 108 116 109
f 109 117 110
f 110 118 111
f 111 119 112
f 112 119 120
f 112 120 113
usemtl APPID_497880384_2676410518384 
o vid_17 
f 123 122 121
f 124 125 126
f 121 126 125
f 121 125 123
f 123 125 124
f 124 122 123
f 122 124 126
f 126 121 122
usemtl APPID_497880048_2676410516976 
o vid_18 
f 127 134 135
f 128 135 136
f 129 136 137
f 130 137 138
f 131 138 139
f 127 135 128
f 128 136 129
f 129 137 130
f 130 138 131
f 131 139 132
f 132 139 140
f 132 140 133
usemtl APPID_497880384_2676410518384 
o vid_19 
f 143 142 141
f 144 145 146
f 141 146 145
f 141 145 143
f 143 145 144
f 144 142 143
f 142 144 146
f 146 141 142
usemtl APPID_497880048_2676410516976 
o vid_20 
f 147 155 156
f 148 156 157
f 149 157 158
f 150 158 159
f 151 159 160
f 152 160 161
f 147 156 148
f 148 157 149
f 149 158 150
f 150 159 151
f 151 160 152
f 152 161 153
f 153 161 162
f 153 162 154
usemtl APPID_497880384_2676410518384 
o vid_21 
f 165 164 163
f 166 167 168
f 163 168 167
f 163 167 165
f 165 167 166
f 166 164 165
f 164 166 168
f 168 163 164
usemtl APPID_497880048_2676410516976 
o vid_22 
f 169 175 176
f 170 176 177
f 171 177 178
f 172 178 179
f 169 176 170
f 170 177 171
f 171 178 172
f 172 179 173
f 173 179 180
f 173 180 174
usemtl APPID_497880384_2676410518384 
o vid_23 
f 183 182 181
f 184 185 186
f 181 186 185
f 181 185 183
f 183 185 184
f 184 182 183
f 182 184 186
f 186 181 182
usemtl APPID_497880048_2676410516976 
o vid_24 
f 187 195 196
f 188 196 197
f 189 197 198
f 190 198 199
f 191 199 200
f 192 200 201
f 187 196 188
f 188 197 189
f 189 198 190
f 190 199 191
f 191 200 192
f 192 201 193
f 193 201 202
f 193 202 194
usemtl APPID_497880384_2676410518384 
o vid_25 
f 205 204 203
f 206 207 208
f 203 208 207
f 203 207 205
f 205 207 206
f 206 204 205
f 204 206 208
f 208 203 204
usemtl APPID_497880048_2676410516976 
o vid_26 
f 209 218 219
f 210 219 220
f 211 220 221
f 212 221 222
f 213 222 223
f 214 223 224
f 215 224 225
f 209 219 210
f 210 220 211
f 211 221 212
f 212 222 213
f 213 223 214
f 214 224 215
f 215 225 216
f 216 225 226
usemtl APPID_497880384_2676410518384 
o vid_27 
f 229 228 227
f 230 231 232
f 227 232 231
f 227 231 229
f 229 231 230
f 230 228 229
f 228 230 232
f 232 227 228
usemtl APPID_497880048_2676410516976 
o vid_28 
f 233 241 242
f 234 242 243
f 235 243 244
f 236 244 245
f 237 245 246
f 238 246 247
f 233 242 234
f 234 243 235
f 235 244 236
f 236 245 237
f 237 246 238
f 238 247 239
f 239 247 248
usemtl APPID_497880384_2676410518384 
o vid_29 
f 251 250 249
f 252 253 254
f 249 254 253
f 249 253 251
f 251 253 252
f 252 250 251
f 250 252 254
f 254 249 250
usemtl APPID_497880048_2676410516976 
o vid_30 
f 255 260 261
f 256 261 262
f 257 262 263
f 255 261 256
f 256 262 257
f 257 263 258
f 258 263 264
usemtl APPID_497887552_2676410518000 
o vid_10000004 
f 265 270 271
f 266 271 272
f 267 272 273
f 265 271 266
f 266 272 267
f 267 273 268
f 268 273 274
usemtl APPID_497887552_2676410518000 
o vid_10000006 
f 275 280 281
f 276 281 282
f 277 282 283
f 275 281 276
f 276 282 277
f 277 283 278
f 278 283 284
usemtl APPID_497887552_2676410518000 
o vid_10000008 
f 285 290 291
f 286 291 292
f 287 292 293
f 285 291 286
f 286 292 287
f 287 293 288
f 288 293 294
usemtl APPID_497887552_2676410518000 
o vid_10000010 
f 295 299 300
f 296 300 301
f 295 300 296
f 296 301 297
f 297 301 302
usemtl APPID_497887552_2676410518000 
o vid_10000012 
f 303 306 307
f 303 307 304
f 304 307 308
usemtl APPID_497887552_2676410518000 
o vid_10000014 
f 309 311 312
f 309 312 310
f 309 311 312
usemtl APPID_497887552_2676410518000 
o vid_10000016 
f 313 315 316
f 313 316 314
f 313 315 316
usemtl APPID_497887552_2676410518000 
o vid_10000018 
f 317 319 320
f 317 320 318
f 317 319 320
usemtl APPID_497887552_2676410518000 
o vid_10000020 
f 321 323 324
f 321 324 322
f 321 323 324
usemtl APPID_497887552_2676410518000 
o vid_10000022 
f 325 327 328
f 325 328 326
f 325 327 328
usemtl APPID_497887552_2676410518000 
o vid_10000024 
f 329 331 332
f 329 332 330
f 329 331 332
