# File generated by PlantGL - Fri Sep  4 14:43:31 2026
v    297.752484 18.905161 0.000000
v    302.071916 18.601013 0.000000
v    300.175600 22.493825 0.000000
v    302.247516 21.094839 0.848509
v    297.928084 21.398987 0.848509
v    299.824400 17.506175 0.848509
v    302.077324 21.422976 0.719073
v    302.449303 21.564796 1.089005
v    302.400985 20.758555 0.719073
v    302.741954 20.964035 1.089005
v    301.879284 21.505407 0.848509
v    297.756638 20.874804 0.848509
v    300.364078 17.619789 0.848509
v    298.120716 18.494593 1.417165
v    302.243362 19.125196 1.417165
v    299.635922 22.380211 1.417165
v    298.469594 18.080604 1.229801
v    298.180607 17.888645 1.552187
v    297.792854 18.925417 1.229801
v    297.542448 18.685295 1.552187
v    297.841416 19.161313 1.417165
v    301.805616 18.549955 1.417165
v    300.352968 22.288732 1.417165
v    302.158584 20.838687 2.253766
v    298.194384 21.450045 2.253766
v    299.647032 17.711268 2.253766
v    301.888743 21.480508 1.988221
v    302.276963 21.592785 2.363759
v    302.392853 20.183046 1.988221
v    302.755039 20.362328 2.363759
v    302.163962 20.511898 2.253766
v    298.474702 21.618097 2.253766
v    299.361335 17.870005 2.253766
v    297.836038 19.488102 4.112548
v    301.525298 18.381903 4.112548
v    300.638665 22.129995 4.112548
v    298.088534 18.535735 3.744070
v    297.067197 18.388438 4.702968
v    297.635074 20.452660 3.744070
v    296.655990 20.126745 4.702968
v    298.595695 18.396392 4.112548
v    302.090917 19.585640 4.112548
v    299.313387 22.017967 4.112548
v    301.404305 21.603608 5.999272
v    297.909083 20.414360 5.999272
v    300.686613 17.982033 5.999272
v    300.333970 22.493100 5.498656
v    300.681964 22.825516 5.945856
v    302.427241 20.659990 5.498656
v    302.710836 21.048800 5.945856
v    301.718982 21.097521 5.999272
v    298.190028 20.939922 5.999272
v    300.090990 17.962557 5.999272
v    298.281018 18.902479 11.505015
v    301.809972 19.060078 11.505015
v    299.909010 22.037443 11.505015
v    299.254353 17.466921 10.839099
v    297.360086 16.482733 12.822753
v    297.281316 16.440761 12.882908
v    297.388345 20.389538 10.839099
v    295.698411 19.085315 12.822753
v    295.627189 19.031522 12.882908
v    298.420020 18.861621 11.505015
v    301.775855 19.200887 11.505015
v    299.804125 21.937492 11.505015
v    301.579980 21.138379 19.658889
v    298.224145 20.799113 19.658889
v    300.195875 18.062508 19.658889
v    300.086845 23.104125 18.791616
v    302.478104 24.522280 21.375078
v    304.971313 26.036192 23.340932
v    305.810257 26.529084 23.995894
v    308.186093 27.963654 24.885487
v    302.971990 19.099773 18.791616
v    305.074168 20.919149 21.375078
v    307.299451 22.804922 23.340932
v    308.032562 23.444700 23.995894
v    310.145429 25.244251 24.885487
v    301.554633 21.012481 19.658889
v    298.345849 20.840111 19.658889
v    300.099518 18.147408 19.658889
v    298.445367 18.987519 30.873903
v    301.654151 19.159889 30.873903
v    299.900482 21.852592 30.873903
v    300.190556 16.453448 29.768009
v    297.059630 14.790638 33.062281
v    294.585095 13.443229 34.961238
v    292.687754 12.445545 36.404182
v    286.502452 9.097493 38.658591
v    296.833357 21.608325 29.768009
v    294.046558 19.417118 33.062281
v    291.813637 17.698718 34.961238
v    290.133964 16.366812 36.404182
v    284.570803 12.063481 38.658591
v    298.458123 19.144816 30.873903
v    301.511550 19.092287 30.873903
v    300.030327 21.762897 30.873903
v    301.541877 20.855184 48.397837
v    298.488450 20.907713 48.397837
v    299.969673 18.237103 48.397837
v    299.488106 24.353538 47.017161
v    303.529955 26.155100 51.129963
v    309.162819 28.723132 55.302229
v    320.974783 34.075644 59.459006
v    323.827722 35.381093 59.423157
v    324.193525 35.532021 59.418652
v    303.422128 17.260590 47.017161
v    307.090546 19.735439 51.129963
v    312.251602 23.154131 55.302229
v    323.046555 30.340287 59.459006
v    325.664595 32.069253 59.423157
v    325.986320 32.299655 59.418652
v    301.614895 20.429572 48.397837
v    298.820532 21.183754 48.397837
v    299.564573 18.386674 48.397837
v    298.385105 19.570428 69.759043
v    301.179468 18.816246 69.759043
v    300.435427 21.613326 69.759043
v    299.781188 14.793869 68.071359
v    294.455234 13.853705 73.098687
v    287.012123 12.488986 78.198703
v    271.415159 9.660863 83.279785
v    267.225393 8.886639 83.231101
v    263.168104 8.294572 83.184420
v    297.223415 24.409337 68.071359
v    292.134248 22.579014 73.098687
v    284.996800 20.065215 78.198703
v    270.056065 14.770122 83.279785
v    266.035368 13.360312 83.231101
v    262.220146 11.858242 83.184420
v    298.541706 19.394647 69.759043
v    301.253398 19.039757 69.759043
v    300.204896 21.565597 69.759043
v    301.458294 20.605353 89.605866
v    298.746602 20.960243 89.605866
v    299.795104 18.434403 89.605866
v    299.259274 25.524225 87.586050
v    305.436372 27.464914 93.602742
v    307.525504 28.145236 95.083519
v    314.086015 30.176786 99.706427
v    328.511962 34.834934 104.565506
v    332.198174 35.865612 105.787452
v    335.529984 36.817856 105.748001
v    303.389221 15.575192 87.586050
v    309.124771 18.579568 93.602742
v    311.081544 19.578743 95.083519
v    317.152140 22.790496 99.706427
v    330.636047 29.718018 104.565506
v    333.968514 31.600867 105.787452
v    336.995219 33.288108 105.748001
v    301.148136 20.944713 89.605866
v    298.607786 20.521958 89.605866
v    300.244078 18.533328 89.605866
v    298.851864 19.055287 113.493644
v    301.392214 19.478042 113.493644
v    299.755922 21.466672 113.493644
v    302.801945 14.522306 111.126888
v    297.455100 10.868655 117.144663
v    287.728870 4.297478 125.329160
v    276.759312 -3.326506 129.611084
v    269.249113 -8.115764 132.454711
v    268.112237 -8.849965 132.439304
v    295.164435 23.804384 111.126888
v    290.549487 19.261240 117.144663
v    282.228247 10.982538 125.329160
v    272.634468 1.686531 129.611084
v    266.488554 -4.760780 132.454711
v    265.549158 -5.734983 132.439304
v    299.036323 18.991726 113.493644
v    301.355030 19.669568 113.493644
v    299.608648 21.338706 113.493644
v    300.963677 21.008274 130.390976
v    298.644970 20.330432 130.390976
v    300.391352 18.661294 130.390976
v    295.922893 25.556203 127.675686
v    300.592640 29.643267 133.442327
v    302.502578 31.260296 135.764080
v    311.708388 39.250821 143.969420
v    321.970854 48.377335 148.371491
v    331.106447 55.874160 152.144297
v    332.685065 56.880761 152.123457
v    305.734841 16.178247 127.675686
v    309.606616 21.027989 133.442327
v    311.135646 23.009077 135.764080
v    318.701823 32.566713 143.969420
v    327.355059 43.231279 148.371491
v    334.431215 52.696450 152.144297
v    335.365421 54.318961 152.123457
v    300.912312 20.929805 130.390976
v    298.738610 20.325183 130.390976
v    300.349079 18.745013 130.390976
v    299.087688 19.070195 146.690035
v    301.261390 19.674817 146.690035
v    299.650921 21.254987 146.690035
v    304.816646 13.756064 143.640033
v    297.901574 7.862205 152.083219
v    286.909980 -1.417258 161.942284
v    273.168578 -13.318560 167.769179
v    264.956237 -19.879411 171.124874
v    259.051057 -23.944265 171.044224
v    293.665718 24.697201 143.640033
v    287.904245 17.671447 152.083219
v    278.835194 6.505611 161.942284
v    267.196998 -7.459328 167.769179
v    260.793289 -15.794784 171.124874
v    256.841311 -21.776093 171.044224
v    299.188946 19.101354 146.690035
v    301.183778 19.746930 146.690035
v    299.627277 21.151717 146.690035
v    300.811054 20.898646 158.145639
v    298.816222 20.253070 158.145639
v    300.372723 18.848283 158.145639
v    294.342371 26.412137 154.791314
v    300.892941 32.484490 163.091522
v    313.336090 43.894004 174.919727
v    326.885530 56.655338 180.885770
v    336.654020 65.150001 185.018536
v    344.058279 70.391920 184.917085
v    306.956755 15.027291 154.791314
v    312.327868 22.164137 163.091522
v    322.405998 35.708150 174.919727
v    333.715811 50.490811 180.885770
v    341.167692 61.076281 185.018536
v    345.625476 68.977479 184.917085
v    300.935834 20.182182 158.145639
v    299.374309 20.719365 158.145639
v    299.689857 19.098453 158.145639
v    299.064166 19.817818 164.569994
v    300.625691 19.280635 164.569994
v    300.310143 20.901547 164.569994
v    300.941980 11.530052 160.958131
v    289.395901 10.488147 171.717265
v    273.260432 8.883825 182.631960
v    262.859038 7.723075 185.986648
v    247.047534 6.591499 191.047327
v    239.154540 7.124210 193.506135
v    236.548005 7.268898 193.477130
v    297.695862 28.204773 160.958131
v    286.602116 24.839316 171.717265
v    271.043153 20.273588 182.631960
v    260.965916 17.447703 185.986648
v    245.884600 12.565282 191.047327
v    238.767848 9.110579 193.506135
v    236.405938 7.998669 193.477130
v    299.448826 19.545299 164.569994
v    300.669369 19.750020 164.569994
v    299.881804 20.704681 164.569994
v    300.551174 20.454701 168.413582
v    299.330631 20.249980 168.413582
v    300.118196 19.295319 168.413582
v    294.946456 26.818591 164.605744
v    305.144144 33.562805 175.948655
v    319.285712 43.167467 187.455569
v    323.090645 45.819161 188.942131
v    337.169930 54.822849 194.277396
v    348.526755 60.033024 198.160955
v    305.733760 13.742565 164.605744
v    314.293311 22.472476 175.948655
v    326.410783 34.530683 187.455569
v    329.737344 37.762244 188.942131
v    341.252959 49.873531 194.277396
v    348.526755 60.033024 198.160955
v    300.403364 20.302898 168.413582
v    299.536000 20.197874 168.413582
v    300.060636 19.499227 168.413582
v    299.596636 19.697102 171.288785
v    300.464000 19.802126 171.288785
v    299.939364 20.500773 171.288785
v    305.191384 12.717030 167.358294
v    294.358282 6.243562 179.066568
v    279.323673 -2.993499 190.944127
v    273.267697 -6.815342 193.239497
v    258.325640 -15.435653 198.746614
v    246.369628 -20.272682 202.755265
v    294.453579 27.016362 167.358294
v    285.216011 18.418152 179.066568
v    272.152856 6.555744 190.944127
v    266.793864 1.805740 193.239497
v    254.348801 -10.139772 198.746614
v    246.369628 -20.272682 202.755265
v    299.735341 19.814632 171.288785
v    300.292863 19.863482 171.288785
v    299.971796 20.321885 171.288785
v    300.264659 20.185368 172.335000
v    299.707137 20.136518 172.335000
v    300.028204 19.678115 172.335000
v    296.415130 25.811100 164.396547
v    305.872415 30.795760 178.122014
v    318.118366 36.775954 190.831018
v    320.280914 37.389098 192.835442
v    329.295653 40.518757 197.536784
v    304.235953 14.644921 164.396547
v    312.152702 21.829082 178.122014
v    321.958128 31.293734 190.831018
v    323.273452 33.116502 192.835442
v    329.295653 40.518757 197.536784
v    302.449303 21.564796 1.089005
v    302.884762 21.735842 1.408614
v    303.005958 21.781479 1.495786
v    304.138488 22.223574 1.885477
v    304.810628 22.464714 1.877342
v    305.241600 22.553355 1.821596
v    302.741954 20.964035 1.089005
v    303.145065 21.201484 1.408614
v    303.255709 21.268783 1.495786
v    304.301940 21.888035 1.885477
v    304.906141 22.268643 1.877342
v    305.241600 22.553355 1.821596
v    298.180607 17.888645 1.552187
v    297.969290 17.748277 1.787927
v    297.362798 17.336253 2.282085
v    295.815243 16.292079 2.918217
v    295.594112 16.141403 2.915160
v    294.862945 15.682692 2.905333
v    294.368704 15.459353 2.824831
v    294.285900 15.422701 2.797899
v    297.542448 18.685295 1.552187
v    297.359343 18.509709 1.787927
v    296.824879 18.007767 2.282085
v    295.468111 16.725424 2.918217
v    295.272804 16.542510 2.915160
v    294.665568 15.929089 2.905333
v    294.339741 15.495509 2.824831
v    294.285900 15.422701 2.797899
v    302.276963 21.592785 2.363759
v    302.706470 21.717004 2.779235
v    303.852312 22.045326 3.581686
v    305.592308 22.563525 4.163621
v    306.252573 22.731950 4.381158
v    306.744145 22.860354 4.375374
v    307.649680 22.972175 4.365236
v    302.755039 20.362328 2.363759
v    303.155745 20.560677 2.779235
v    304.222676 21.092097 3.581686
v    305.856098 21.884592 4.163621
v    306.456875 22.206126 4.381158
v    306.906189 22.443290 4.375374
v    307.649680 22.972175 4.365236
v    297.067197 18.388438 4.702968
v    296.494092 18.301260 5.131781
v    295.282618 18.131624 5.955206
v    292.514996 17.710073 6.852552
v    291.854983 17.636200 7.064575
v    290.861461 17.519219 7.053186
v    289.595522 17.538761 7.039119
v    296.655990 20.126745 4.702968
v    296.104567 19.947910 5.131781
v    294.945490 19.556779 5.955206
v    292.282326 18.693646 6.852552
v    291.659168 18.463977 7.064575
v    290.718534 18.123422 7.053186
v    289.595522 17.538761 7.039119
v    300.681964 22.825516 5.945856
v    301.494405 23.601587 6.989908
v    302.397015 24.481938 7.839670
v    303.112094 25.159405 8.502721
v    306.399149 28.349493 9.970938
v    308.103669 29.893958 9.985121
v    309.023296 30.528307 9.972708
v    309.513346 30.863507 9.867536
v    302.710836 21.048800 5.945856
v    303.372930 21.956533 6.989908
v    304.126494 22.967406 7.839670
v    304.703691 23.765618 8.502721
v    307.432197 27.444837 9.970938
v    308.738265 29.338233 9.985121
v    309.245732 30.333516 9.972708
v    309.513346 30.863507 9.867536
v    297.281316 16.440761 12.882908
v    294.703073 15.112995 14.835088
v    290.829271 13.061185 16.240189
v    289.135501 12.248415 16.839953
v    288.150327 11.768693 16.827478
v    285.978755 11.047835 16.802055
v    295.627189 19.031522 12.882908
v    293.337753 17.251413 14.835088
v    289.846316 14.600729 16.240189
v    288.396255 13.406252 16.839953
v    287.546504 12.714427 16.827478
v    285.978755 11.047835 16.802055
v    308.186093 27.963654 24.885487
v    312.783683 30.739757 26.606980
v    313.349806 31.084592 26.599405
v    316.838137 33.032488 26.553919
v    317.792423 33.409921 26.542518
v    319.584244 34.110493 26.201718
v    310.145429 25.244251 24.885487
v    314.234135 28.726644 26.606980
v    314.740443 29.154498 26.599405
v    317.692397 31.846843 26.553919
v    318.352499 32.632580 26.542518
v    319.584244 34.110493 26.201718
v    286.502452 9.097493 38.658591
v    283.756388 7.611071 39.659472
v    279.206036 5.345708 39.678455
v    276.908839 4.560030 39.651480
v    275.628769 4.127829 39.412153
v    284.570803 12.063481 38.658591
v    282.100948 10.152949 39.659472
v    278.189109 6.907169 39.678455
v    276.541657 5.123828 39.651480
v    275.628769 4.127829 39.412153
v    324.193525 35.532021 59.418652
v    329.249465 37.618071 59.356385
v    329.700401 37.803131 59.267843
v    332.415511 38.510175 58.770850
v    334.176387 38.955541 58.230634
v    325.986320 32.299655 59.418652
v    330.433026 35.484139 59.356385
v    330.828782 35.768687 59.267843
v    332.866207 37.697581 58.770850
v    334.176387 38.955541 58.230634
v    263.168104 8.294572 83.184420
v    260.553970 7.913100 83.154344
v    259.548192 7.768265 82.969760
v    256.549804 7.743255 82.438609
v    253.910018 7.739781 81.653476
v    262.220146 11.858242 83.184420
v    259.761977 10.890451 83.154344
v    258.817166 10.516417 82.969760
v    256.202639 9.048357 82.438609
v    253.910018 7.739781 81.653476
v    335.529984 36.817856 105.748001
v    337.281827 37.318540 105.727259
v    344.148342 38.326435 105.650150
v    336.995219 33.288108 105.748001
v    338.586640 34.175248 105.727259
v    344.148342 38.326435 105.650150
v    268.112237 -8.849965 132.439304
v    260.589177 -12.428143 132.346671
v    265.549158 -5.734983 132.439304
v    260.589177 -12.428143 132.346671
v    332.685065 56.880761 152.123457
v    339.089776 60.898771 152.039453
v    335.365421 54.318961 152.123457
v    339.089776 60.898771 152.039453
v    259.051057 -23.944265 171.044224
v    253.659832 -27.228720 170.974083
v    256.841311 -21.776093 171.044224
v    253.659832 -27.228720 170.974083
v    344.058279 70.391920 184.917085
v    347.638147 72.782959 184.869254
v    345.625476 68.977479 184.917085
v    347.638147 72.782959 184.869254
v    236.548005 7.268898 193.477130
v    235.034256 7.352926 193.460286
v    236.405938 7.998669 193.477130
v    235.034256 7.352926 193.460286
mtllib usm_32_2.5D_2018-08-24_7.mtl
usemtl APPID_3629274512_2121046509024 
o vid_3 
f 3 2 1
f 4 5 6
f 1 6 5
f 1 5 3
f 3 5 4
f 4 2 3
f 2 4 6
f 6 1 2
usemtl APPID_3629271936_2121046511968 
o vid_4 
f 7 9 10
f 7 10 8
f 7 9 10
f 7 10 8
usemtl APPID_3629274512_2121046509024 
o vid_5 
f 13 12 11
f 14 15 16
f 11 16 15
f 11 15 13
f 13 15 14
f 14 12 13
f 12 14 16
f 16 11 12
usemtl APPID_3629271936_2121046511968 
o vid_6 
f 17 19 20
f 17 20 18
f 17 19 20
f 17 20 18
usemtl APPID_3629274512_2121046509024 
o vid_7 
f 23 22 21
f 24 25 26
f 21 26 25
f 21 25 23
f 23 25 24
f 24 22 23
f 22 24 26
f 26 21 22
usemtl APPID_3629271936_2121046511968 
o vid_8 
f 27 29 30
f 27 30 28
f 27 29 30
f 27 30 28
usemtl APPID_3629274512_2121046509024 
o vid_9 
f 33 32 31
f 34 35 36
f 31 36 35
f 31 35 33
f 33 35 34
f 34 32 33
f 32 34 36
f 36 31 32
usemtl APPID_3629271936_2121046511968 
o vid_10 
f 37 39 40
f 37 40 38
f 37 39 40
f 37 40 38
usemtl APPID_3629274512_2121046509024 
o vid_11 
f 43 42 41
f 44 45 46
f 41 46 45
f 41 45 43
f 43 45 44
f 44 42 43
f 42 44 46
f 46 41 42
usemtl APPID_3629271936_2121046511968 
o vid_12 
f 47 49 50
f 47 50 48
f 47 49 50
f 47 50 48
usemtl APPID_3629274512_2121046509024 
o vid_13 
f 53 52 51
f 54 55 56
f 51 56 55
f 51 55 53
f 53 55 54
f 54 52 53
f 52 54 56
f 56 51 52
usemtl APPID_3629271936_2121046511968 
o vid_14 
f 57 60 61
f 57 61 58
f 58 61 62
f 58 62 59
usemtl APPID_3629274512_2121046509024 
o vid_15 
f 65 64 63
f 66 67 68
f 63 68 67
f 63 67 65
f 65 67 66
f 66 64 65
f 64 66 68
f 68 63 64
usemtl APPID_3629271936_2121046511968 
o vid_16 
f 69 74 75
f 70 75 76
f 71 76 77
f 69 75 70
f 70 76 71
f 71 77 72
f 72 77 78
f 72 78 73
usemtl APPID_3629274512_2121046509024 
o vid_17 
f 81 80 79
f 82 83 84
f 79 84 83
f 79 83 81
f 81 83 82
f 82 80 81
f 80 82 84
f 84 79 80
usemtl APPID_3629271936_2121046511968 
o vid_18 
f 85 90 91
f 86 91 92
f 87 92 93
f 85 91 86
f 86 92 87
f 87 93 88
f 88 93 94
f 88 94 89
usemtl APPID_3629274512_2121046509024 
o vid_19 
f 97 96 95
f 98 99 100
f 95 100 99
f 95 99 97
f 97 99 98
f 98 96 97
f 96 98 100
f 100 95 96
usemtl APPID_3629271936_2121046511968 
o vid_20 
f 101 107 108
f 102 108 109
f 103 109 110
f 104 110 111
f 101 108 102
f 102 109 103
f 103 110 104
f 104 111 105
f 105 111 112
f 105 112 106
usemtl APPID_3629274512_2121046509024 
o vid_21 
f 115 114 113
f 116 117 118
f 113 118 117
f 113 117 115
f 115 117 116
f 116 114 115
f 114 116 118
f 118 113 114
usemtl APPID_3629271936_2121046511968 
o vid_22 
f 119 125 126
f 120 126 127
f 121 127 128
f 122 128 129
f 119 126 120
f 120 127 121
f 121 128 122
f 122 129 123
f 123 129 130
f 123 130 124
usemtl APPID_3629274512_2121046509024 
o vid_23 
f 133 132 131
f 134 135 136
f 131 136 135
f 131 135 133
f 133 135 134
f 134 132 133
f 132 134 136
f 136 131 132
usemtl APPID_3629271936_2121046511968 
o vid_24 
f 137 144 145
f 138 145 146
f 139 146 147
f 140 147 148
f 141 148 149
f 137 145 138
f 138 146 139
f 139 147 140
f 140 148 141
f 141 149 142
f 142 149 150
f 142 150 143
usemtl APPID_3629274512_2121046509024 
o vid_25 
f 153 152 151
f 154 155 156
f 151 156 155
f 151 155 153
f 153 155 154
f 154 152 153
f 152 154 156
f 156 151 152
usemtl APPID_3629271936_2121046511968 
o vid_26 
f 157 163 164
f 158 164 165
f 159 165 166
f 160 166 167
f 157 164 158
f 158 165 159
f 159 166 160
f 160 167 161
f 161 167 168
f 161 168 162
usemtl APPID_3629274512_2121046509024 
o vid_27 
f 171 170 169
f 172 173 174
f 169 174 173
f 169 173 171
f 171 173 172
f 172 170 171
f 170 172 174
f 174 169 170
usemtl APPID_3629271936_2121046511968 
o vid_28 
f 175 182 183
f 176 183 184
f 177 184 185
f 178 185 186
f 179 186 187
f 175 183 176
f 176 184 177
f 177 185 178
f 178 186 179
f 179 187 180
f 180 187 188
f 180 188 181
usemtl APPID_3629274512_2121046509024 
o vid_29 
f 191 190 189
f 192 193 194
f 189 194 193
f 189 193 191
f 191 193 192
f 192 190 191
f 190 192 194
f 194 189 190
usemtl APPID_3629271936_2121046511968 
o vid_30 
f 195 201 202
f 196 202 203
f 197 203 204
f 198 204 205
f 195 202 196
f 196 203 197
f 197 204 198
f 198 205 199
f 199 205 206
f 199 206 200
usemtl APPID_3629274512_2121046509024 
o vid_31 
f 209 208 207
f 210 211 212
f 207 212 211
f 207 211 209
f 209 211 210
f 210 208 209
f 208 210 212
f 212 207 208
usemtl APPID_3629271936_2121046511968 
o vid_32 
f 213 219 220
f 214 220 221
f 215 221 222
f 216 222 223
f 213 220 214
f 214 221 215
f 215 222 216
f 216 223 217
f 217 223 224
f 217 224 218
usemtl APPID_3629274512_2121046509024 
o vid_33 
f 227 226 225
f 228 229 230
f 225 230 229
f 225 229 227
f 227 229 228
f 228 226 227
f 226 228 230
f 230 225 226
usemtl APPID_3629271936_2121046511968 
o vid_34 
f 231 238 239
f 232 239 240
f 233 240 241
f 234 241 242
f 235 242 243
f 231 239 232
f 232 240 233
f 233 241 234
f 234 242 235
f 235 243 236
f 236 243 244
f 236 244 237
usemtl APPID_3629274512_2121046509024 
o vid_35 
f 247 246 245
f 248 249 250
f 245 250 249
f 245 249 247
f 247 249 248
f 248 246 247
f 246 248 250
f 250 245 246
usemtl APPID_3629271936_2121046511968 
o vid_36 
f 251 257 258
f 252 258 259
f 253 259 260
f 254 260 261
f 251 258 252
f 252 259 253
f 253 260 254
f 254 261 255
f 255 261 262
usemtl APPID_3629274512_2121046509024 
o vid_37 
f 265 264 263
f 266 267 268
f 263 268 267
f 263 267 265
f 265 267 266
f 266 264 265
f 264 266 268
f 268 263 264
usemtl APPID_3629271936_2121046511968 
o vid_38 
f 269 275 276
f 270 276 277
f 271 277 278
f 272 278 279
f 269 276 270
f 270 277 271
f 271 278 272
f 272 279 273
f 273 279 280
usemtl APPID_3629274512_2121046509024 
o vid_39 
f 283 282 281
f 284 285 286
f 281 286 285
f 281 285 283
f 283 285 284
f 284 282 283
f 282 284 286
f 286 281 282
usemtl APPID_3629271936_2121046511968 
o vid_40 
f 287 292 293
f 288 293 294
f 289 294 295
f 287 293 288
f 288 294 289
f 289 295 290
f 290 295 296
usemtl APPID_3629246848_2121046515680 
o vid_10000004 
f 297 303 304
f 298 304 305
f 299 305 306
f 300 306 307
f 297 304 298
f 298 305 299
f 299 306 300
f 300 307 301
f 301 307 308
usemtl APPID_3629246848_2121046515680 
o vid_10000006 
f 309 317 318
f 310 318 319
f 311 319 320
f 312 320 321
f 313 321 322
f 314 322 323
f 309 318 310
f 310 319 311
f 311 320 312
f 312 321 313
f 313 322 314
f 314 323 315
f 315 323 324
usemtl APPID_3629246848_2121046515680 
o vid_10000008 
f 325 332 333
f 326 333 334
f 327 334 335
f 328 335 336
f 329 336 337
f 325 333 326
f 326 334 327
f 327 335 328
f 328 336 329
f 329 337 330
f 330 337 338
usemtl APPID_3629246848_2121046515680 
o vid_10000010 
f 339 346 347
f 340 347 348
f 341 348 349
f 342 349 350
f 343 350 351
f 339 347 340
f 340 348 341
f 341 349 342
f 342 350 343
f 343 351 344
f 344 351 352
usemtl APPID_3629246848_2121046515680 
o vid_10000012 
f 353 361 362
f 354 362 363
f 355 363 364
f 356 364 365
f 357 365 366
f 358 366 367
f 353 362 354
f 354 363 355
f 355 364 356
f 356 365 357
f 357 366 358
f 358 367 359
f 359 367 368
usemtl APPID_3629246848_2121046515680 
o vid_10000014 
f 369 375 376
f 370 376 377
f 371 377 378
f 372 378 379
f 369 376 370
f 370 377 371
f 371 378 372
f 372 379 373
f 373 379 380
usemtl APPID_3629246848_2121046515680 
o vid_10000016 
f 381 387 388
f 382 388 389
f 383 389 390
f 384 390 391
f 381 388 382
f 382 389 383
f 383 390 384
f 384 391 385
f 385 391 392
usemtl APPID_3629246848_2121046515680 
o vid_10000018 
f 393 398 399
f 394 399 400
f 395 400 401
f 393 399 394
f 394 400 395
f 395 401 396
f 396 401 402
usemtl APPID_3629246848_2121046515680 
o vid_10000020 
f 403 408 409
f 404 409 410
f 405 410 411
f 403 409 404
f 404 410 405
f 405 411 406
f 406 411 412
usemtl APPID_3629246848_2121046515680 
o vid_10000022 
f 413 418 419
f 414 419 420
f 415 420 421
f 413 419 414
f 414 420 415
f 415 421 416
f 416 421 422
usemtl APPID_3629246848_2121046515680 
o vid_10000024 
f 423 426 427
f 423 427 424
f 424 427 428
usemtl APPID_3629246848_2121046515680 
o vid_10000026 
f 429 431 432
f 429 432 430
f 429 431 432
usemtl APPID_3629246848_2121046515680 
o vid_10000028 
f 433 435 436
f 433 436 434
f 433 435 436
usemtl APPID_3629246848_2121046515680 
o vid_10000030 
f 437 439 440
f 437 440 438
f 437 439 440
usemtl APPID_3629246848_2121046515680 
o vid_10000032 
f 441 443 444
f 441 444 442
f 441 443 444
usemtl APPID_3629246848_2121046515680 
o vid_10000034 
f 445 447 448
f 445 448 446
f 445 447 448
