# File generated by PlantGL - Fri Sep  4 14:43:40 2026
v    17.752484 418.905161 0.000000
v    22.071916 418.601013 0.000000
v    20.175600 422.493825 0.000000
v    22.247516 421.094839 0.848018
v    17.928084 421.398987 0.848018
v    19.824400 417.506175 0.848018
v    22.062184 421.449156 0.688716
v    22.418649 421.585061 1.043219
v    22.463190 421.601210 1.087175
v    22.412266 420.730496 0.688716
v    22.739014 420.927406 1.043219
v    22.779187 420.952523 1.087175
v    21.879284 421.505407 0.848018
v    17.756638 420.874804 0.848018
v    20.364078 417.619789 0.848018
v    18.120716 418.494593 1.416666
v    22.243362 419.125196 1.416666
v    19.635922 422.380211 1.416666
v    18.493117 418.055620 1.191176
v    18.179227 417.847118 1.541345
v    17.773606 418.953827 1.191176
v    17.501621 418.693011 1.541345
v    17.841416 419.161313 1.416666
v    21.805616 418.549955 1.416666
v    20.352968 422.288732 1.416666
v    22.158584 420.838687 2.253758
v    18.194384 421.450045 2.253758
v    19.647032 417.711268 2.253758
v    21.871433 421.515662 1.940857
v    22.050431 421.567430 2.114007
v    22.260965 421.624591 2.316404
v    22.403819 420.145427 1.940857
v    22.570813 420.228089 2.114007
v    22.764712 420.328065 2.316404
v    22.163962 420.511898 2.253758
v    18.474702 421.618097 2.253758
v    19.361335 417.870005 2.253758
v    17.836038 419.488102 4.113040
v    21.525298 418.381903 4.113040
v    20.638665 422.129995 4.113040
v    18.105016 418.483911 3.687377
v    17.417344 418.384736 4.333007
v    17.076636 418.341295 4.651663
v    17.626590 420.506376 3.687377
v    16.967368 420.286935 4.333007
v    16.643307 420.173121 4.651663
v    18.595695 418.396392 4.113040
v    22.090917 419.585640 4.113040
v    19.313387 422.017967 4.113040
v    21.404305 421.603608 6.000766
v    17.909083 420.414360 6.000766
v    20.686613 417.982033 6.000766
v    20.283419 422.530963 5.433090
v    20.584405 422.818475 5.819880
v    22.471442 420.614877 5.433090
v    22.716728 420.951165 5.819880
v    21.718982 421.097521 6.000766
v    18.190028 420.939922 6.000766
v    20.090990 417.962557 6.000766
v    18.281018 418.902479 12.885860
v    21.809972 419.060078 12.885860
v    19.909010 422.037443 12.885860
v    19.368598 417.298169 12.143674
v    17.698014 416.430199 13.893090
v    17.283338 420.564188 12.143674
v    15.792959 419.413974 13.893090
v    18.420020 418.861621 12.885860
v    21.775855 419.200887 12.885860
v    19.804125 421.937492 12.885860
v    21.579980 421.138379 19.685705
v    18.224145 420.799113 19.685705
v    20.195875 418.062508 19.685705
v    20.091978 423.086676 18.734440
v    21.403597 423.864542 20.151484
v    22.957063 419.110166 18.734440
v    24.110119 420.108104 20.151484
v    21.554633 421.012481 19.685705
v    18.345849 420.840111 19.685705
v    20.099518 418.147408 19.685705
v    18.445367 418.987519 30.882667
v    21.654151 419.159889 30.882667
v    19.900482 421.852592 30.882667
v    20.238006 416.392358 29.687393
v    18.519913 415.479893 31.495122
v    16.796670 421.676425 29.687393
v    15.267416 420.474002 31.495122
v    18.458123 419.144816 30.882667
v    21.511550 419.092287 30.882667
v    20.030327 421.762897 30.882667
v    21.541877 420.855184 48.444344
v    18.488450 420.907713 48.444344
v    19.969673 418.237103 48.444344
v    19.440360 424.426043 46.971997
v    19.881707 424.621732 47.420625
v    23.458354 417.181695 46.971997
v    23.858049 417.452481 47.420625
v    21.614895 420.429572 48.444344
v    18.820532 421.183754 48.444344
v    19.564573 418.386674 48.444344
v    18.385105 419.570428 69.931697
v    21.179468 418.816246 69.931697
v    20.435427 421.613326 69.931697
v    19.815054 414.691801 68.153705
v    18.501518 414.465064 69.392360
v    17.202091 424.514741 68.153705
v    15.949506 424.058874 69.392360
v    18.541706 419.394647 69.931697
v    21.253398 419.039757 69.931697
v    20.204896 421.565597 69.931697
v    21.458294 420.605353 94.018022
v    18.746602 420.960243 94.018022
v    19.795104 418.434403 94.018022
v    19.030282 426.059924 91.913148
v    19.692232 426.267892 92.557908
v    23.606922 415.034807 91.913148
v    24.221555 415.356761 92.557908
v    21.148136 420.944713 94.018022
v    18.607786 420.521958 94.018022
v    20.244078 418.533328 94.018022
v    18.851864 419.055287 114.176685
v    21.392214 419.478042 114.176685
v    19.755922 421.466672 114.176685
v    23.051995 414.227020 111.733819
v    20.650087 412.585728 114.437123
v    14.922831 424.106620 111.733819
v    12.849704 422.065749 114.437123
v    19.036323 418.991726 114.176685
v    21.355030 419.669568 114.176685
v    19.608648 421.338706 114.176685
v    20.963677 421.008274 134.519744
v    18.644970 420.330432 134.519744
v    20.391352 418.661294 134.519744
v    15.476253 425.976715 131.740352
v    15.635049 426.115696 131.936447
v    26.175115 415.751075 131.740352
v    26.306775 415.915991 131.936447
v    20.912312 420.929805 134.519744
v    18.738610 420.325183 134.519744
v    20.349079 418.745013 134.519744
v    19.087688 419.070195 147.351462
v    21.261390 419.674817 147.351462
v    19.650921 421.254987 147.351462
v    24.684149 413.891112 144.251353
v    22.423474 411.964293 147.011598
v    13.803259 424.567292 144.251353
v    11.919719 422.270433 147.011598
v    19.188946 419.101354 147.351462
v    21.183778 419.746930 147.351462
v    19.627277 421.151717 147.351462
v    20.811054 420.898646 158.601298
v    18.816222 420.253070 158.601298
v    20.372723 418.848283 158.601298
v    14.309818 426.438078 155.211445
v    16.397580 428.373426 157.856842
v    26.985887 414.997560 155.211445
v    28.697739 417.272177 157.856842
v    21.097812 420.213714 158.601298
v    19.266012 420.843876 158.601298
v    19.636176 418.942409 158.601298
v    18.902188 419.786286 164.915530
v    20.733988 419.156124 164.915530
v    20.363824 421.057591 164.915530
v    20.785955 411.476186 161.281724
v    18.845689 411.275210 163.094363
v    16.956994 411.110862 164.853245
v    17.531025 428.196175 161.281724
v    15.657059 427.654624 163.094363
v    13.844640 427.098465 164.853245
v    19.208315 419.346885 164.915530
v    20.961457 419.640938 164.915530
v    19.830228 421.012177 164.915530
v    20.791685 420.653115 168.662929
v    19.038543 420.359062 168.662929
v    20.169772 418.987823 168.662929
v    15.190966 427.010927 164.844194
v    17.577980 428.589572 167.499274
v    25.969064 413.946061 164.844194
v    27.972632 415.989506 167.499274
v    20.747035 420.560971 168.662929
v    19.140667 420.366465 168.662929
v    20.112298 419.072563 168.662929
v    19.252965 419.439029 171.451323
v    20.859333 419.633535 171.451323
v    19.887702 420.927437 171.451323
v    24.828275 412.485284 167.517143
v    14.670081 406.415116 178.495986
v    14.129771 426.732281 167.517143
v    5.467707 418.669744 178.495986
v    19.310251 419.516898 171.451323
v    20.763253 419.644211 171.451323
v    19.926496 420.838891 171.451323
v    20.689749 420.483102 172.895503
v    19.236747 420.355789 172.895503
v    20.073504 419.161109 172.895503
v    15.733216 427.062098 168.922070
v    23.834437 431.546121 177.512585
v    25.178559 413.576511 168.922070
v    32.161350 419.657373 177.512585
v    20.610549 420.435580 172.895503
v    19.317502 420.310961 172.895503
v    20.071949 419.253459 172.895503
v    19.389451 419.564420 174.047000
v    20.682498 419.689039 174.047000
v    19.928051 420.746541 174.047000
v    24.766015 412.514899 170.112819
v    13.767777 406.302028 181.832084
v    7.000874 402.368818 187.100575
v    14.473157 426.942308 170.112819
v    5.019548 418.564343 181.832084
v    -0.901576 413.445612 187.100575
v    22.463190 421.601210 1.087175
v    23.209568 421.881186 1.644646
v    23.981245 422.182418 1.910172
v    24.615108 422.401288 2.124254
v    25.179233 422.522974 2.117831
v    22.779187 420.952523 1.087175
v    23.459730 421.367647 1.644646
v    24.172605 421.789589 1.910172
v    24.735676 422.153785 2.124254
v    25.179233 422.522974 2.117831
v    18.179227 417.847118 1.541345
v    17.952793 417.696709 1.793949
v    17.044720 417.099981 2.544278
v    15.956020 416.364314 2.965444
v    15.269751 415.939242 3.223156
v    14.402572 415.516162 3.212368
v    17.501621 418.693011 1.541345
v    17.305418 418.504865 1.793949
v    16.524880 417.748926 2.544278
v    15.569331 416.847040 2.965444
v    15.004722 416.270092 3.223156
v    14.402572 415.516162 3.212368
v    22.260965 421.624591 2.316404
v    22.839874 421.781768 2.872938
v    24.190898 422.166488 3.818495
v    25.048301 422.421837 4.105250
v    26.378970 422.761274 4.543665
v    27.072461 422.838518 4.760542
v    27.414333 422.880734 4.756715
v    22.764712 420.328065 2.316404
v    23.297879 420.602969 2.872938
v    24.554247 421.231314 3.818495
v    25.359135 421.621825 4.105250
v    26.569913 422.269831 4.543665
v    27.133638 422.681061 4.760542
v    27.414333 422.880734 4.756715
v    17.076636 418.341295 4.651663
v    16.751926 418.299895 4.955355
v    14.859426 418.034898 6.241667
v    13.088664 417.765184 6.815801
v    11.232084 417.557384 7.412209
v    9.786597 417.583960 7.511107
v    16.643307 420.173121 4.651663
v    16.334463 420.064650 4.955355
v    14.523813 419.453645 6.241667
v    12.819885 418.901401 6.815801
v    11.066975 418.255356 7.412209
v    9.786597 417.583960 7.511107
v    20.584405 422.818475 5.819880
v    21.509369 423.702032 7.008533
v    23.450917 425.539346 8.839565
v    25.882939 427.899625 9.925868
v    27.335678 429.201637 10.548660
v    29.361695 430.690334 10.520527
v    22.716728 420.951165 5.819880
v    23.470522 421.984620 7.008533
v    25.035606 424.151609 8.839565
v    27.054370 426.873785 9.925868
v    28.153326 428.485610 10.548660
v    29.361695 430.690334 10.520527
v    17.698014 416.430199 13.893090
v    14.296559 414.673837 16.597336
v    9.912626 412.351829 18.187472
v    8.092933 411.478634 18.831824
v    6.923672 410.909272 18.817018
v    4.503383 410.105852 18.788684
v    15.792959 419.413974 13.893090
v    12.768306 417.067448 16.597336
v    8.817090 414.067702 18.187472
v    7.259225 412.784422 18.831824
v    6.250691 411.963324 18.817018
v    4.503383 410.105852 18.788684
v    21.403597 423.864542 20.151484
v    22.668485 424.614693 21.518040
v    26.397472 426.804756 24.442732
v    31.431162 429.844184 26.327515
v    34.117629 431.324147 27.306692
v    35.132895 431.891074 27.293453
v    38.172348 433.093219 27.257137
v    24.110119 420.108104 20.151484
v    25.222094 421.070487 21.518040
v    28.479941 423.914455 24.442732
v    32.956478 427.727168 26.327515
v    35.210732 429.807007 27.306692
v    36.069887 430.590603 27.293453
v    38.172348 433.093219 27.257137
v    18.519913 415.479893 31.495122
v    16.854032 414.595156 33.247915
v    12.111439 412.087202 36.859917
v    4.664774 408.056384 39.574065
v    2.177981 406.835306 40.458509
v    -0.147794 405.676672 40.428927
v    -4.033764 404.347610 40.383296
v    15.267416 420.474002 31.495122
v    13.784636 419.308120 33.247915
v    9.573189 415.984607 36.859917
v    2.875538 410.803702 39.574065
v    0.753203 409.023008 40.458509
v    -1.246912 407.364334 40.428927
v    -4.033764 404.347610 40.383296
v    19.881707 424.621732 47.420625
v    23.755056 426.339135 51.357873
v    27.711742 428.142994 54.288593
v    29.777858 429.048943 55.807162
v    42.375434 434.754418 60.239933
v    49.006627 437.506653 60.158175
v    51.414821 438.143873 60.130498
v    53.861915 438.781123 59.682564
v    23.858049 417.452481 47.420625
v    27.365855 419.828951 51.357873
v    30.991129 422.230338 54.288593
v    32.853650 423.503363 55.807162
v    44.364003 431.169075 60.239933
v    50.209928 435.337130 60.158175
v    52.025610 437.042635 60.130498
v    53.861915 438.781123 59.682564
v    18.501518 414.465064 69.392360
v    14.198529 413.722301 73.450046
v    8.026623 412.590662 77.679033
v    -10.083036 409.337487 84.175934
v    -19.874425 407.843123 84.063089
v    -25.868603 407.786306 83.289747
v    -25.915311 407.786245 83.275855
v    15.949506 424.058874 69.392360
v    11.846182 422.565506 73.450046
v    5.927734 420.481037 77.679033
v    -11.404790 414.306373 84.175934
v    -20.644567 410.738329 84.063089
v    -25.874746 407.809398 83.289747
v    -25.915311 407.786245 83.275855
v    19.692232 426.267892 92.557908
v    25.467512 428.082340 98.183217
v    31.949989 430.193345 102.777995
v    34.456098 430.969395 104.543942
v    53.270121 437.044455 110.881053
v    63.822414 440.111196 110.755885
v    66.607963 440.520070 110.724604
v    70.913813 441.134852 109.954133
v    24.221555 415.356761 92.557908
v    29.584011 418.165703 98.183217
v    35.655782 421.266097 102.777995
v    37.974745 422.492984 104.543942
v    55.560177 431.527716 110.881053
v    65.182176 436.835533 110.755885
v    67.438399 438.519551 110.724604
v    70.913813 441.134852 109.954133
v    20.650087 412.585728 114.437123
v    16.586419 409.808908 119.010707
v    7.517033 403.645632 126.392808
v    -6.131221 394.159919 131.720352
v    -11.485057 390.745775 133.747503
v    -15.339757 388.256384 133.695262
v    -22.931165 384.675238 133.602003
v    12.849704 422.065749 114.437123
v    9.342287 418.612903 119.010707
v    1.547807 410.900199 126.392808
v    -10.388711 399.334165 131.720352
v    -14.769982 394.738036 133.747503
v    -17.955109 391.434894 133.695262
v    -22.931165 384.675238 133.602003
v    15.635049 426.115696 131.936447
v    22.180752 431.844639 140.019695
v    24.323264 433.759556 141.956362
v    31.573601 440.052755 148.418746
v    47.032795 453.800772 155.049947
v    51.238018 457.251651 156.786615
v    56.696026 461.783277 156.705852
v    64.785846 466.858442 156.599745
v    26.306775 415.915991 131.936447
v    31.733941 422.713998 140.019695
v    33.550041 424.940889 141.956362
v    39.509031 432.468317 148.418746
v    52.544110 448.533229 155.049947
v    55.801349 452.890160 156.786615
v    60.081596 458.547455 156.705852
v    64.785846 466.858442 156.599745
v    22.423474 411.964293 147.011598
v    20.372298 410.216033 149.516050
v    17.070476 407.494116 153.486058
v    6.441243 398.509785 162.854283
v    -4.015097 389.453646 167.288182
v    -14.645237 380.961211 171.631828
v    -23.681037 375.481398 172.090186
v    11.919719 422.270433 147.011598
v    10.210727 420.186426 149.516050
v    7.552005 416.833508 153.486058
v    -1.228848 406.035572 162.854283
v    -10.084780 395.409136 167.288182
v    -18.373809 384.619635 171.631828
v    -23.681037 375.481398 172.090186
v    16.397580 428.373426 157.856842
v    20.530305 432.204445 163.093405
v    33.511392 444.099088 175.553056
v    46.688444 456.509694 181.355131
v    57.097333 465.561247 185.758831
v    67.637033 472.781725 185.616471
v    28.697739 417.272177 157.856842
v    32.086350 421.774780 163.093405
v    42.592093 435.903493 175.553056
v    53.591072 450.279873 181.355131
v    61.531480 461.559301 185.758831
v    67.637033 472.781725 185.616471
v    16.956994 411.110862 164.853245
v    9.168715 410.433152 172.106225
v    -7.064786 408.819083 183.087233
v    -17.114341 407.697597 186.328445
v    -33.021909 406.559145 191.419871
v    -41.392551 407.124094 194.027474
v    -45.087595 407.329205 193.986357
v    13.844640 427.098465 164.853245
v    6.370891 424.805071 172.106225
v    -9.282601 420.211604 183.087233
v    -19.018965 417.481307 186.328445
v    -34.191908 412.569223 191.419871
v    -41.739334 408.905456 194.027474
v    -45.087595 407.329205 193.986357
v    17.577980 428.589572 167.499274
v    25.417840 433.774442 176.219568
v    39.599880 443.406592 187.759413
v    43.096914 445.843708 189.125681
v    57.216493 454.873164 194.476215
v    68.605820 460.098251 198.370889
v    27.972632 415.989506 167.499274
v    34.553112 422.700956 176.219568
v    46.705263 434.793673 187.759413
v    49.762635 437.763733 189.125681
v    61.311207 449.909682 194.476215
v    68.605820 460.098251 198.370889
v    14.670081 406.415116 178.495986
v    -1.063717 396.760008 191.125115
v    -6.696328 393.205345 193.260019
v    -21.652410 384.576942 198.772306
v    -33.619645 379.735374 202.784720
v    5.467707 418.669744 178.495986
v    -8.191886 406.252457 191.125115
v    -13.176238 401.834520 193.260019
v    -25.632982 389.877795 198.772306
v    -33.619645 379.735374 202.784720
v    23.834437 431.546121 177.512585
v    26.895247 433.240278 180.758260
v    40.341244 440.900257 191.174704
v    42.457032 441.981323 192.765583
v    55.439245 448.908764 197.463254
v    67.681084 453.395964 201.515700
v    32.161350 419.657373 177.512585
v    34.799593 421.954848 180.758260
v    46.593796 431.973176 191.174704
v    48.332884 433.592075 192.765583
v    59.280152 443.424909 197.463254
v    67.681084 453.395964 201.515700
v    7.000874 402.368818 187.100575
v    -1.502197 397.426473 193.720792
v    -6.721895 394.307937 195.669742
v    -21.884185 386.047264 201.182029
v    -33.966061 381.499323 205.194443
v    -0.901576 413.445612 187.100575
v    -8.341868 407.013580 193.720792
v    -12.989190 403.092748 195.669742
v    -25.734148 391.443724 201.182029
v    -33.966061 381.499323 205.194443
mtllib usm_10_Beer_2018-09-27_10.mtl
usemtl APPID_3007531568_1759648517216 
o vid_3 
f 3 2 1
f 4 5 6
f 1 6 5
f 1 5 3
f 3 5 4
f 4 2 3
f 2 4 6
f 6 1 2
usemtl APPID_3007529888_1759648516960 
o vid_4 
f 7 10 11
f 7 11 8
f 8 11 12
f 8 12 9
usemtl APPID_3007531568_1759648517216 
o vid_5 
f 15 14 13
f 16 17 18
f 13 18 17
f 13 17 15
f 15 17 16
f 16 14 15
f 14 16 18
f 18 13 14
usemtl APPID_3007529888_1759648516960 
o vid_6 
f 19 21 22
f 19 22 20
f 19 21 22
f 19 22 20
usemtl APPID_3007531568_1759648517216 
o vid_7 
f 25 24 23
f 26 27 28
f 23 28 27
f 23 27 25
f 25 27 26
f 26 24 25
f 24 26 28
f 28 23 24
usemtl APPID_3007529888_1759648516960 
o vid_8 
f 29 32 33
f 29 33 30
f 30 33 34
f 30 34 31
usemtl APPID_3007531568_1759648517216 
o vid_9 
f 37 36 35
f 38 39 40
f 35 40 39
f 35 39 37
f 37 39 38
f 38 36 37
f 36 38 40
f 40 35 36
usemtl APPID_3007529888_1759648516960 
o vid_10 
f 41 44 45
f 41 45 42
f 42 45 46
f 42 46 43
usemtl APPID_3007531568_1759648517216 
o vid_11 
f 49 48 47
f 50 51 52
f 47 52 51
f 47 51 49
f 49 51 50
f 50 48 49
f 48 50 52
f 52 47 48
usemtl APPID_3007529888_1759648516960 
o vid_12 
f 53 55 56
f 53 56 54
f 53 55 56
f 53 56 54
usemtl APPID_3007531568_1759648517216 
o vid_13 
f 59 58 57
f 60 61 62
f 57 62 61
f 57 61 59
f 59 61 60
f 60 58 59
f 58 60 62
f 62 57 58
usemtl APPID_3007529888_1759648516960 
o vid_14 
f 63 65 66
f 63 66 64
f 63 65 66
f 63 66 64
usemtl APPID_3007531568_1759648517216 
o vid_15 
f 69 68 67
f 70 71 72
f 67 72 71
f 67 71 69
f 69 71 70
f 70 68 69
f 68 70 72
f 72 67 68
usemtl APPID_3007529888_1759648516960 
o vid_16 
f 73 75 76
f 73 76 74
f 73 75 76
f 73 76 74
usemtl APPID_3007531568_1759648517216 
o vid_17 
f 79 78 77
f 80 81 82
f 77 82 81
f 77 81 79
f 79 81 80
f 80 78 79
f 78 80 82
f 82 77 78
usemtl APPID_3007529888_1759648516960 
o vid_18 
f 83 85 86
f 83 86 84
f 83 85 86
f 83 86 84
usemtl APPID_3007531568_1759648517216 
o vid_19 
f 89 88 87
f 90 91 92
f 87 92 91
f 87 91 89
f 89 91 90
f 90 88 89
f 88 90 92
f 92 87 88
usemtl APPID_3007529888_1759648516960 
o vid_20 
f 93 95 96
f 93 96 94
f 93 95 96
f 93 96 94
usemtl APPID_3007531568_1759648517216 
o vid_21 
f 99 98 97
f 100 101 102
f 97 102 101
f 97 101 99
f 99 101 100
f 100 98 99
f 98 100 102
f 102 97 98
usemtl APPID_3007529888_1759648516960 
o vid_22 
f 103 105 106
f 103 106 104
f 103 105 106
f 103 106 104
usemtl APPID_3007531568_1759648517216 
o vid_23 
f 109 108 107
f 110 111 112
f 107 112 111
f 107 111 109
f 109 111 110
f 110 108 109
f 108 110 112
f 112 107 108
usemtl APPID_3007529888_1759648516960 
o vid_24 
f 113 115 116
f 113 116 114
f 113 115 116
f 113 116 114
usemtl APPID_3007531568_1759648517216 
o vid_25 
f 119 118 117
f 120 121 122
f 117 122 121
f 117 121 119
f 119 121 120
f 120 118 119
f 118 120 122
f 122 117 118
usemtl APPID_3007529888_1759648516960 
o vid_26 
f 123 125 126
f 123 126 124
f 123 125 126
f 123 126 124
usemtl APPID_3007531568_1759648517216 
o vid_27 
f 129 128 127
f 130 131 132
f 127 132 131
f 127 131 129
f 129 131 130
f 130 128 129
f 128 130 132
f 132 127 128
usemtl APPID_3007529888_1759648516960 
o vid_28 
f 133 135 136
f 133 136 134
f 133 135 136
f 133 136 134
usemtl APPID_3007531568_1759648517216 
o vid_29 
f 139 138 137
f 140 141 142
f 137 142 141
f 137 141 139
f 139 141 140
f 140 138 139
f 138 140 142
f 142 137 138
usemtl APPID_3007529888_1759648516960 
o vid_30 
f 143 145 146
f 143 146 144
f 143 145 146
f 143 146 144
usemtl APPID_3007531568_1759648517216 
o vid_31 
f 149 148 147
f 150 151 152
f 147 152 151
f 147 151 149
f 149 151 150
f 150 148 149
f 148 150 152
f 152 147 148
usemtl APPID_3007529888_1759648516960 
o vid_32 
f 153 155 156
f 153 156 154
f 153 155 156
f 153 156 154
usemtl APPID_3007531568_1759648517216 
o vid_33 
f 159 158 157
f 160 161 162
f 157 162 161
f 157 161 159
f 159 161 160
f 160 158 159
f 158 160 162
f 162 157 158
usemtl APPID_3007529888_1759648516960 
o vid_34 
f 163 166 167
f 163 167 164
f 164 167 168
f 164 168 165
usemtl APPID_3007531568_1759648517216 
o vid_35 
f 171 170 169
f 172 173 174
f 169 174 173
f 169 173 171
f 171 173 172
f 172 170 171
f 170 172 174
f 174 169 170
usemtl APPID_3007529888_1759648516960 
o vid_36 
f 175 177 178
f 175 178 176
f 175 177 178
f 175 178 176
usemtl APPID_3007531568_1759648517216 
o vid_37 
f 181 180 179
f 182 183 184
f 179 184 183
f 179 183 181
f 181 183 182
f 182 180 181
f 180 182 184
f 184 179 180
usemtl APPID_3007529888_1759648516960 
o vid_38 
f 185 187 188
f 185 188 186
f 185 187 188
f 185 188 186
usemtl APPID_3007531568_1759648517216 
o vid_39 
f 191 190 189
f 192 193 194
f 189 194 193
f 189 193 191
f 191 193 192
f 192 190 191
f 190 192 194
f 194 189 190
usemtl APPID_3007529888_1759648516960 
o vid_40 
f 195 197 198
f 195 198 196
f 195 197 198
f 195 198 196
usemtl APPID_3007531568_1759648517216 
o vid_41 
f 201 200 199
f 202 203 204
f 199 204 203
f 199 203 201
f 201 203 202
f 202 200 201
f 200 202 204
f 204 199 200
usemtl APPID_3007529888_1759648516960 
o vid_42 
f 205 208 209
f 205 209 206
f 206 209 210
f 206 210 207
usemtl APPID_3007521712_1759648511968 
o vid_10000004 
f 211 216 217
f 212 217 218
f 213 218 219
f 211 217 212
f 212 218 213
f 213 219 214
f 214 219 220
usemtl APPID_3007521712_1759648511968 
o vid_10000006 
f 221 227 228
f 222 228 229
f 223 229 230
f 224 230 231
f 221 228 222
f 222 229 223
f 223 230 224
f 224 231 225
f 225 231 232
usemtl APPID_3007521712_1759648511968 
o vid_10000008 
f 233 240 241
f 234 241 242
f 235 242 243
f 236 243 244
f 237 244 245
f 233 241 234
f 234 242 235
f 235 243 236
f 236 244 237
f 237 245 238
f 238 245 246
usemtl APPID_3007521712_1759648511968 
o vid_10000010 
f 247 253 254
f 248 254 255
f 249 255 256
f 250 256 257
f 247 254 248
f 248 255 249
f 249 256 250
f 250 257 251
f 251 257 258
usemtl APPID_3007521712_1759648511968 
o vid_10000012 
f 259 265 266
f 260 266 267
f 261 267 268
f 262 268 269
f 259 266 260
f 260 267 261
f 261 268 262
f 262 269 263
f 263 269 270
usemtl APPID_3007521712_1759648511968 
o vid_10000014 
f 271 277 278
f 272 278 279
f 273 279 280
f 274 280 281
f 271 278 272
f 272 279 273
f 273 280 274
f 274 281 275
f 275 281 282
usemtl APPID_3007521712_1759648511968 
o vid_10000016 
f 283 290 291
f 284 291 292
f 285 292 293
f 286 293 294
f 287 294 295
f 283 291 284
f 284 292 285
f 285 293 286
f 286 294 287
f 287 295 288
f 288 295 296
usemtl APPID_3007521712_1759648511968 
o vid_10000018 
f 297 304 305
f 298 305 306
f 299 306 307
f 300 307 308
f 301 308 309
f 297 305 298
f 298 306 299
f 299 307 300
f 300 308 301
f 301 309 302
f 302 309 310
usemtl APPID_3007521712_1759648511968 
o vid_10000020 
f 311 319 320
f 312 320 321
f 313 321 322
f 314 322 323
f 315 323 324
f 316 324 325
f 311 320 312
f 312 321 313
f 313 322 314
f 314 323 315
f 315 324 316
f 316 325 317
f 317 325 326
usemtl APPID_3007521712_1759648511968 
o vid_10000022 
f 327 334 335
f 328 335 336
f 329 336 337
f 330 337 338
f 331 338 339
f 327 335 328
f 328 336 329
f 329 337 330
f 330 338 331
f 331 339 332
f 332 339 340
usemtl APPID_3007521712_1759648511968 
o vid_10000024 
f 341 349 350
f 342 350 351
f 343 351 352
f 344 352 353
f 345 353 354
f 346 354 355
f 341 350 342
f 342 351 343
f 343 352 344
f 344 353 345
f 345 354 346
f 346 355 347
f 347 355 356
usemtl APPID_3007521712_1759648511968 
o vid_10000026 
f 357 364 365
f 358 365 366
f 359 366 367
f 360 367 368
f 361 368 369
f 357 365 358
f 358 366 359
f 359 367 360
f 360 368 361
f 361 369 362
f 362 369 370
usemtl APPID_3007521712_1759648511968 
o vid_10000028 
f 371 379 380
f 372 380 381
f 373 381 382
f 374 382 383
f 375 383 384
f 376 384 385
f 371 380 372
f 372 381 373
f 373 382 374
f 374 383 375
f 375 384 376
f 376 385 377
f 377 385 386
usemtl APPID_3007521712_1759648511968 
o vid_10000030 
f 387 394 395
f 388 395 396
f 389 396 397
f 390 397 398
f 391 398 399
f 387 395 388
f 388 396 389
f 389 397 390
f 390 398 391
f 391 399 392
f 392 399 400
usemtl APPID_3007521712_1759648511968 
o vid_10000032 
f 401 407 408
f 402 408 409
f 403 409 410
f 404 410 411
f 401 408 402
f 402 409 403
f 403 410 404
f 404 411 405
f 405 411 412
usemtl APPID_3007521712_1759648511968 
o vid_10000034 
f 413 420 421
f 414 421 422
f 415 422 423
f 416 423 424
f 417 424 425
f 413 421 414
f 414 422 415
f 415 423 416
f 416 424 417
f 417 425 418
f 418 425 426
usemtl APPID_3007521712_1759648511968 
o vid_10000036 
f 427 433 434
f 428 434 435
f 429 435 436
f 430 436 437
f 427 434 428
f 428 435 429
f 429 436 430
f 430 437 431
f 431 437 438
usemtl APPID_3007521712_1759648511968 
o vid_10000038 
f 439 444 445
f 440 445 446
f 441 446 447
f 439 445 440
f 440 446 441
f 441 447 442
f 442 447 448
usemtl APPID_3007521712_1759648511968 
o vid_10000040 
f 449 455 456
f 450 456 457
f 451 457 458
f 452 458 459
f 449 456 450
f 450 457 451
f 451 458 452
f 452 459 453
f 453 459 460
usemtl APPID_3007521712_1759648511968 
o vid_10000042 
f 461 466 467
f 462 467 468
f 463 468 469
f 461 467 462
f 462 468 463
f 463 469 464
f 464 469 470
