# File generated by PlantGL - Fri Sep  4 14:43:54 2026
v    178.201987 19.124129 0.000000
v    181.657533 18.880811 0.000000
v    180.140480 21.995060 0.000000
v    181.798013 20.875871 0.331061
v    178.342467 21.119189 0.331061
v    179.859520 18.004940 0.331061
v    180.738657 21.084245 -2.645962
v    182.886403 21.406062 -0.674875
v    181.309076 19.913273 -2.645962
v    182.886403 21.406062 -0.674875
v    181.503548 21.204422 0.331061
v    178.205166 20.699900 0.331061
v    180.291286 18.095678 0.331061
v    178.496452 18.795578 0.771522
v    181.794834 19.300100 0.771522
v    179.708714 21.904322 0.771522
v    180.071009 18.207319 -2.205501
v    175.584528 16.462971 2.163443
v    178.266037 20.460567 -2.205501
v    175.584528 16.462971 2.163443
v    178.272844 19.328938 0.771522
v    181.444735 18.839770 0.771522
v    180.282421 21.831292 0.771522
v    181.727156 20.671062 1.487405
v    178.555265 21.160230 1.487405
v    179.717579 18.168708 1.487405
v    180.130761 22.402094 -1.489618
v    187.423312 22.884223 5.143659
v    181.718236 18.316307 -1.489618
v    187.423312 22.884223 5.143659
v    181.731622 20.409625 1.487405
v    178.779443 21.294816 1.487405
v    179.488935 18.295559 1.487405
v    178.268378 19.590375 2.987040
v    181.220557 18.705184 2.987040
v    180.511065 21.704441 2.987040
v    179.793965 16.881891 0.010017
v    174.482173 16.440805 5.024542
v    170.463407 16.731798 8.681583
v    166.675048 16.847906 10.986857
v    178.418765 22.695319 0.010017
v    173.472327 20.709762 5.024542
v    170.009872 18.649043 8.681583
v    166.675048 16.847906 10.986857
v    179.012260 18.872077 2.987040
v    181.470681 19.708553 2.987040
v    179.517060 21.419370 2.987040
v    180.987740 21.127923 4.897980
v    178.529319 20.291447 4.897980
v    180.482940 18.580630 4.897980
v    177.671973 22.886967 1.920956
v    180.617199 25.559077 5.679561
v    184.604141 28.931736 10.592522
v    185.936082 30.107866 11.702559
v    192.954917 34.793517 16.835505
v    183.168888 18.073231 1.920956
v    185.429045 21.345268 5.679561
v    188.246182 25.742342 10.592522
v    189.236295 27.217817 11.702559
v    192.954917 34.793517 16.835505
v    180.994234 20.634790 4.897980
v    178.953139 20.543637 4.897980
v    180.052627 18.821573 4.897980
v    179.005766 19.365210 12.075822
v    181.046861 19.456363 12.075822
v    179.947373 21.178427 12.075822
v    182.220926 15.929663 9.098798
v    180.180176 14.872549 11.276493
v    174.003862 11.862472 17.770364
v    170.063846 9.861749 20.540265
v    164.321936 7.158419 24.504938
v    162.770553 6.397162 24.939855
v    153.721133 3.221693 27.304364
v    177.242195 23.727555 9.098798
v    175.424464 22.321138 11.276493
v    170.094812 17.984985 17.770364
v    166.621854 15.252736 20.540265
v    161.753270 11.181568 24.504938
v    160.409857 10.094581 24.939855
v    153.721133 3.221693 27.304364
v    179.283667 19.483880 12.075822
v    180.805139 19.637697 12.075822
v    179.911194 20.878422 12.075822
v    180.716333 20.516120 22.185723
v    179.194861 20.362303 22.185723
v    180.088806 19.121578 22.185723
v    176.797901 24.481528 19.208699
v    184.675227 29.140173 27.880265
v    187.594238 30.917787 30.026542
v    193.924623 34.592852 34.614840
v    198.944338 37.591122 36.090197
v    206.775703 41.995367 38.351454
v    209.236121 43.017117 39.008297
v    215.682500 45.709325 37.564229
v    183.237451 15.543944 19.208699
v    190.150088 21.541501 27.880265
v    192.760300 23.747705 30.026542
v    198.250253 28.589222 34.614840
v    202.683324 32.401706 36.090197
v    209.340093 38.436197 38.351454
v    211.088143 40.446657 39.008297
v    215.682500 45.709325 37.564229
v    180.510465 20.332449 22.185723
v    179.456859 20.275851 22.185723
v    180.032677 19.391700 22.185723
v    179.489535 19.667551 33.325237
v    180.543141 19.724149 33.325237
v    179.967323 20.608300 33.325237
v    183.786374 16.051789 27.345364
v    175.932918 11.921778 36.301788
v    166.600857 7.060550 43.372250
v    163.214371 5.251602 44.471235
v    155.248269 1.262485 47.014675
v    150.874163 -0.307470 48.313969
v    146.199001 -2.013465 47.444702
v    177.919959 25.059488 27.345364
v    170.967099 19.546639 36.301788
v    162.747594 12.977117 43.372250
v    159.723802 10.611264 44.471235
v    152.854256 4.938418 47.014675
v    149.649706 1.572646 48.313969
v    146.199001 -2.013465 47.444702
v    179.686553 19.826150 33.325237
v    180.307282 19.815472 33.325237
v    180.006165 20.358378 33.325237
v    180.313447 20.173850 35.257000
v    179.692718 20.184528 35.257000
v    179.993835 19.641622 35.257000
v    179.693231 22.634886 29.575019
v    179.858494 22.429684 31.954575
v    181.081574 20.599883 41.583823
v    182.072782 18.344613 29.575019
v    181.986212 18.593461 31.954575
v    181.081574 20.599883 41.583823
mtllib usm_31_2.5D_2018-08-20_4.mtl
usemtl APPID_2654936800_1733526536816 
o vid_3 
f 3 2 1
f 4 5 6
f 1 6 5
f 1 5 3
f 3 5 4
f 4 2 3
f 2 4 6
f 6 1 2
usemtl APPID_2654934336_1733526538608 
o vid_4 
f 7 9 10
f 7 10 8
f 7 9 10
usemtl APPID_2654936800_1733526536816 
o vid_5 
f 13 12 11
f 14 15 16
f 11 16 15
f 11 15 13
f 13 15 14
f 14 12 13
f 12 14 16
f 16 11 12
usemtl APPID_2654934336_1733526538608 
o vid_6 
f 17 19 20
f 17 20 18
f 17 19 20
usemtl APPID_2654936800_1733526536816 
o vid_7 
f 23 22 21
f 24 25 26
f 21 26 25
f 21 25 23
f 23 25 24
f 24 22 23
f 22 24 26
f 26 21 22
usemtl APPID_2654934336_1733526538608 
o vid_8 
f 27 29 30
f 27 30 28
f 27 29 30
usemtl APPID_2654936800_1733526536816 
o vid_9 
f 33 32 31
f 34 35 36
f 31 36 35
f 31 35 33
f 33 35 34
f 34 32 33
f 32 34 36
f 36 31 32
usemtl APPID_2654934336_1733526538608 
o vid_10 
f 37 41 42
f 38 42 43
f 37 42 38
f 38 43 39
f 39 43 44
usemtl APPID_2654936800_1733526536816 
o vid_11 
f 47 46 45
f 48 49 50
f 45 50 49
f 45 49 47
f 47 49 48
f 48 46 47
f 46 48 50
f 50 45 46
usemtl APPID_2654934336_1733526538608 
o vid_12 
f 51 56 57
f 52 57 58
f 53 58 59
f 51 57 52
f 52 58 53
f 53 59 54
f 54 59 60
usemtl APPID_2654936800_1733526536816 
o vid_13 
f 63 62 61
f 64 65 66
f 61 66 65
f 61 65 63
f 63 65 64
f 64 62 63
f 62 64 66
f 66 61 62
usemtl APPID_2654934336_1733526538608 
o vid_14 
f 67 74 75
f 68 75 76
f 69 76 77
f 70 77 78
f 71 78 79
f 67 75 68
f 68 76 69
f 69 77 70
f 70 78 71
f 71 79 72
f 72 79 80
usemtl APPID_2654936800_1733526536816 
o vid_15 
f 83 82 81
f 84 85 86
f 81 86 85
f 81 85 83
f 83 85 84
f 84 82 83
f 82 84 86
f 86 81 82
usemtl APPID_2654934336_1733526538608 
o vid_16 
f 87 95 96
f 88 96 97
f 89 97 98
f 90 98 99
f 91 99 100
f 92 100 101
f 87 96 88
f 88 97 89
f 89 98 90
f 90 99 91
f 91 100 92
f 92 101 93
f 93 101 102
usemtl APPID_2654936800_1733526536816 
o vid_17 
f 105 104 103
f 106 107 108
f 103 108 107
f 103 107 105
f 105 107 106
f 106 104 105
f 104 106 108
f 108 103 104
usemtl APPID_2654934336_1733526538608 
o vid_18 
f 109 116 117
f 110 117 118
f 111 118 119
f 112 119 120
f 113 120 121
f 109 117 110
f 110 118 111
f 111 119 112
f 112 120 113
f 113 121 114
f 114 121 122
usemtl APPID_2654936800_1733526536816 
o vid_19 
f 125 124 123
f 126 127 128
f 123 128 127
f 123 127 125
f 125 127 126
f 126 124 125
f 124 126 128
f 128 123 124
usemtl APPID_2654934336_1733526538608 
o vid_20 
f 129 132 133
f 129 133 130
f 130 133 134
