# File generated by PlantGL - Fri Sep  4 14:44:33 2026
v    337.752484 18.905161 0.000000
v    342.071916 18.601013 0.000000
v    340.175600 22.493825 0.000000
v    342.247516 21.094839 0.848509
v    337.928084 21.398987 0.848509
v    339.824400 17.506175 0.848509
v    342.074098 21.428499 0.712378
v    342.462343 21.576521 1.098486
v    342.403346 20.752611 0.712378
v    342.759224 20.967076 1.098486
v    341.879284 21.505407 0.848509
v    337.756638 20.874804 0.848509
v    340.364078 17.619789 0.848509
v    338.120716 18.494593 1.417165
v    342.243362 19.125196 1.417165
v    339.635922 22.380211 1.417165
v    338.474543 18.075426 1.221103
v    338.175184 17.876576 1.555060
v    337.788880 18.931377 1.221103
v    337.529487 18.682637 1.555060
v    337.841416 19.161313 1.417165
v    341.805616 18.549955 1.417165
v    340.352968 22.288732 1.417165
v    342.158584 20.838687 2.253766
v    338.194384 21.450045 2.253766
v    339.647032 17.711268 2.253766
v    341.884400 21.489501 1.977215
v    342.277281 21.603127 2.357262
v    342.395722 20.173480 1.977215
v    342.762257 20.354914 2.357262
v    342.163962 20.511898 2.253766
v    338.474702 21.618097 2.253766
v    339.361335 17.870005 2.253766
v    337.836038 19.488102 4.112548
v    341.525298 18.381903 4.112548
v    340.638665 22.129995 4.112548
v    338.092525 18.523095 3.730513
v    337.052607 18.373119 4.706855
v    337.632979 20.465749 3.730513
v    336.636083 20.133904 4.706855
v    338.595695 18.396392 4.112548
v    342.090917 19.585640 4.112548
v    339.313387 22.017967 4.112548
v    341.404305 21.603608 5.999272
v    337.909083 20.414360 5.999272
v    340.686613 17.982033 5.999272
v    340.322463 22.501625 5.482407
v    340.689557 22.852286 5.954152
v    342.437210 20.649708 5.482407
v    342.736371 21.059859 5.954152
v    341.718982 21.097521 5.999272
v    338.190028 20.939922 5.999272
v    340.090990 17.962557 5.999272
v    338.281018 18.902479 11.505015
v    341.809972 19.060078 11.505015
v    339.909010 22.037443 11.505015
v    339.264580 17.453431 10.820160
v    337.486951 16.529844 12.681673
v    337.314734 16.443927 12.860229
v    337.293379 16.432943 12.876394
v    337.380412 20.404492 10.820160
v    335.794534 19.180576 12.681673
v    335.644124 19.060505 12.860229
v    335.625173 19.045754 12.876394
v    338.420020 18.861621 11.505015
v    341.775855 19.200887 11.505015
v    339.804125 21.937492 11.505015
v    341.579980 21.138379 19.658889
v    338.224145 20.799113 19.658889
v    340.195875 18.062508 19.658889
v    340.075104 23.117784 18.770166
v    340.346590 23.278791 19.063474
v    342.981230 19.084312 18.770166
v    343.219896 19.290871 19.063474
v    341.554633 21.012481 19.658889
v    338.345849 20.840111 19.658889
v    340.099518 18.147408 19.658889
v    338.445367 18.987519 30.873903
v    341.654151 19.159889 30.873903
v    339.900482 21.852592 30.873903
v    340.203042 16.437382 29.744416
v    338.033505 15.285158 32.027142
v    336.823711 21.626242 29.744416
v    334.892632 20.107871 32.027142
v    338.458123 19.144816 30.873903
v    341.511550 19.092287 30.873903
v    340.030327 21.762897 30.873903
v    341.541877 20.855184 48.397355
v    338.488450 20.907713 48.397355
v    339.969673 18.237103 48.397355
v    339.472595 24.377774 46.991496
v    339.692135 24.475115 47.214657
v    343.434475 17.234599 46.991496
v    343.633296 17.369297 47.214657
v    341.614895 20.429572 48.397355
v    338.820532 21.183754 48.397355
v    339.564573 18.386674 48.397355
v    338.385105 19.570428 69.758548
v    341.179468 18.816246 69.758548
v    340.435427 21.613326 69.758548
v    339.793283 14.755691 68.044790
v    339.145446 14.643758 68.655720
v    337.214942 24.448478 68.044790
v    336.597113 24.223737 68.655720
v    338.541706 19.394647 69.758548
v    341.253398 19.039757 69.758548
v    340.204896 21.565597 69.758548
v    341.458294 20.605353 89.607729
v    338.746602 20.960243 89.607729
v    339.795104 18.434403 89.607729
v    339.234096 25.579971 87.561738
v    341.650514 26.339149 89.915406
v    343.410924 15.518004 87.561738
v    345.654612 16.693285 89.915406
v    341.148136 20.944713 89.607729
v    338.607786 20.521958 89.607729
v    340.244078 18.533328 89.607729
v    338.851864 19.055287 113.503741
v    341.392214 19.478042 113.503741
v    339.755922 21.466672 113.503741
v    342.904487 14.400566 111.111502
v    340.998443 13.098112 113.256720
v    335.064721 23.928451 111.111502
v    333.419583 22.308910 113.256720
v    339.036323 18.991726 113.503741
v    341.355030 19.669568 113.503741
v    339.608648 21.338706 113.503741
v    340.963677 21.008274 130.408667
v    338.644970 20.330432 130.408667
v    340.391352 18.661294 130.408667
v    335.861722 25.612274 127.669290
v    340.765476 29.904146 133.724906
v    342.496721 31.369887 135.829436
v    344.470651 33.083232 137.588842
v    345.793620 16.119674 127.669290
v    349.859415 21.212442 133.724906
v    351.245390 23.008181 135.829436
v    352.867746 25.057550 137.588842
v    340.912312 20.929805 130.408667
v    338.738610 20.325183 130.408667
v    340.349079 18.745013 130.408667
v    339.087688 19.070195 146.720499
v    341.261390 19.674817 146.720499
v    339.650921 21.254987 146.720499
v    344.876092 13.699968 143.648326
v    337.697352 7.581381 152.413446
v    326.842561 -1.586893 162.083621
v    325.827408 -2.466108 162.514086
v    333.608504 24.755570 143.648326
v    327.627349 17.461928 152.413446
v    318.666869 6.434982 162.083621
v    317.807092 5.403315 162.514086
v    339.188946 19.101354 146.720499
v    341.183778 19.746930 146.720499
v    339.627277 21.151717 146.720499
v    340.811054 20.898646 158.181550
v    338.816222 20.253070 158.181550
v    340.372723 18.848283 158.181550
v    334.317413 26.432727 154.807231
v    340.755967 32.401242 162.965503
v    342.275103 33.763798 164.858761
v    353.426872 44.016520 175.055622
v    358.361774 48.664383 177.228542
v    346.979788 15.004568 154.807231
v    352.259054 22.019373 162.965503
v    353.459227 23.669804 164.858761
v    362.518595 35.810977 175.055622
v    366.637793 41.195037 177.228542
v    341.097812 20.213714 158.181550
v    339.266012 20.843876 158.181550
v    339.636176 18.942409 158.181550
v    338.902188 19.786286 164.602053
v    340.733988 19.156124 164.602053
v    340.363824 21.057591 164.602053
v    340.785879 11.475041 160.972333
v    338.728261 11.261909 162.894605
v    329.182083 10.431233 171.784661
v    312.966839 8.818980 182.753319
v    309.392277 8.420074 183.906197
v    337.530525 28.197208 160.972333
v    335.543218 27.622902 162.894605
v    326.382563 24.811864 171.784661
v    310.746675 20.223563 182.753319
v    307.283513 19.252414 183.906197
v    339.208315 19.346885 164.602053
v    340.961457 19.640938 164.602053
v    339.830228 21.012177 164.602053
v    340.791685 20.653115 168.440627
v    339.038543 20.359062 168.440627
v    340.169772 18.987823 168.440627
v    335.177351 27.026848 164.616725
v    345.418059 33.799512 176.007488
v    359.619283 43.444693 187.562943
v    361.831750 44.986581 188.427339
v    345.982107 13.929667 164.616725
v    354.577767 22.696406 176.007488
v    366.746357 34.805481 187.562943
v    368.680663 36.684547 188.427339
v    340.747035 20.560971 168.440627
v    339.140667 20.366465 168.440627
v    340.112298 19.072563 168.440627
v    339.252965 19.439029 171.309825
v    340.859333 19.633535 171.309825
v    339.887702 20.927437 171.309825
v    344.859709 12.444761 167.364463
v    333.985621 5.946800 179.117035
v    318.894129 -3.325208 191.039532
v    312.974613 -7.060933 193.283180
v    311.128440 -8.126020 193.963615
v    334.099621 26.773768 167.364463
v    324.827102 18.143028 179.117035
v    311.714523 6.235738 191.039532
v    306.476286 1.592766 193.283180
v    304.938631 0.116833 193.963615
v    339.310251 19.516898 171.309825
v    340.763253 19.644211 171.309825
v    339.926496 20.838891 171.309825
v    340.689749 20.483102 172.803360
v    339.236747 20.355789 172.803360
v    340.073504 19.161109 172.803360
v    335.690136 27.121943 168.816660
v    346.889438 33.320752 180.692372
v    360.812243 41.252362 191.478194
v    362.490100 42.109666 192.739789
v    366.445228 44.220163 194.170969
v    345.220076 13.515572 168.816660
v    354.873236 21.921885 180.692372
v    367.085674 32.295472 191.478194
v    368.464801 33.579288 192.739789
v    371.799968 36.574934 194.170969
v    340.610549 20.435580 172.803360
v    339.317502 20.310961 172.803360
v    340.071949 19.253459 172.803360
v    339.389451 19.564420 174.000000
v    340.682498 19.689039 174.000000
v    339.928051 20.746541 174.000000
v    344.920865 12.299231 170.054638
v    333.898702 6.058422 181.807210
v    318.585329 -2.842359 193.729707
v    310.671481 -7.570528 196.684609
v    302.286154 -12.138996 199.733115
v    334.319615 27.158909 170.054638
v    324.831804 18.767413 181.807210
v    311.432412 7.183822 193.729707
v    304.386374 1.239251 196.684609
v    297.337924 -5.203106 199.733115
v    342.462343 21.576521 1.098486
v    342.772440 21.698226 1.328332
v    343.051800 21.803421 1.529266
v    344.179329 22.243563 1.917236
v    344.767847 22.450148 1.932793
v    345.102439 22.519919 1.928995
v    345.223961 22.544762 1.907024
v    342.759224 20.967076 1.098486
v    343.046208 21.136228 1.328332
v    343.301244 21.291355 1.529266
v    344.342855 21.907872 1.917236
v    344.868300 22.243935 1.932793
v    345.129490 22.464389 1.928995
v    345.223961 22.544762 1.907024
v    338.175184 17.876576 1.555060
v    337.951015 17.727672 1.805138
v    337.505755 17.425182 2.167927
v    337.220743 17.237546 2.397618
v    335.694888 16.206481 2.987897
v    334.926733 15.724400 2.977572
v    334.578851 15.565838 2.973325
v    334.317319 15.447870 2.922502
v    337.529487 18.682637 1.555060
v    337.335245 18.496372 1.805138
v    336.942866 18.127868 2.167927
v    336.697547 17.890680 2.397618
v    335.358308 16.626652 2.987897
v    334.720193 15.982236 2.977572
v    334.489525 15.677349 2.973325
v    334.317319 15.447870 2.922502
v    342.277281 21.603127 2.357262
v    342.650804 21.711154 2.718583
v    343.930619 22.074460 3.636722
v    345.477892 22.535263 4.154201
v    346.434359 22.779246 4.469328
v    347.607600 22.955825 4.456062
v    342.762257 20.354914 2.357262
v    343.110732 20.527409 2.718583
v    344.300111 21.123474 3.636722
v    345.752614 21.828191 4.154201
v    346.622906 22.293970 4.469328
v    347.607600 22.955825 4.456062
v    337.052607 18.373119 4.706855
v    335.182391 18.108273 6.023001
v    332.645833 17.721917 6.845429
v    331.625547 17.607720 7.173186
v    330.947912 17.527933 7.165418
v    329.635397 17.548193 7.150833
v    336.636083 20.133904 4.706855
v    334.845423 19.532748 6.023001
v    332.404602 18.741677 6.845429
v    331.441288 18.386642 7.173186
v    330.799726 18.154366 7.165418
v    329.635397 17.548193 7.150833
v    340.689557 22.852286 5.954152
v    341.520563 23.646092 7.022062
v    342.171065 24.280551 7.634477
v    343.195072 25.250697 8.583978
v    346.264601 28.229677 9.955034
v    346.696282 28.616569 10.140096
v    348.009504 29.807208 10.119915
v    349.360593 30.739174 10.101679
v    349.470001 30.814011 10.078198
v    342.736371 21.059859 5.954152
v    343.413594 21.988335 7.022062
v    343.956680 22.716860 7.634477
v    344.783237 23.859916 8.583978
v    347.331180 27.295657 9.955034
v    347.657734 27.774610 10.140096
v    348.664698 29.233445 10.119915
v    349.410254 30.695685 10.101679
v    349.470001 30.814011 10.078198
v    337.293379 16.432943 12.876394
v    334.580624 15.037635 14.929794
v    331.015953 13.149559 16.222767
v    328.844507 12.107573 16.991676
v    328.280898 11.833129 16.984539
v    326.047567 11.091770 16.958394
v    335.625173 19.045754 12.876394
v    333.217863 17.172047 14.929794
v    330.005043 14.732888 16.222767
v    328.146037 13.201545 16.991676
v    327.659902 12.805758 16.984539
v    326.047567 11.091770 16.958394
v    340.346590 23.278791 19.063474
v    342.525504 24.571013 21.417524
v    344.611603 25.837723 23.062378
v    345.944745 26.620962 24.103159
v    353.090641 30.935776 26.778823
v    356.680099 32.940895 26.732014
v    358.290963 33.578014 26.712767
v    359.502826 34.051832 26.482273
v    343.219896 19.290871 19.063474
v    345.135400 20.948686 21.417524
v    346.997322 22.526535 23.062378
v    348.162288 23.543188 24.103159
v    354.517241 28.955768 26.778823
v    357.555488 31.725926 26.732014
v    358.669760 33.052273 26.712767
v    359.502826 34.051832 26.482273
v    338.033505 15.285158 32.027142
v    337.005322 14.739098 33.108967
v    334.984853 13.638932 34.659474
v    332.535585 12.351027 36.522164
v    323.997023 7.729174 39.634285
v    319.377500 5.433656 39.874248
v    316.353533 4.399412 39.838739
v    315.714458 4.183635 39.719255
v    334.892632 20.107871 32.027142
v    333.977459 19.388288 33.108967
v    332.154269 17.985207 34.659474
v    329.985988 16.265855 36.522164
v    322.306266 10.325280 39.634285
v    318.338877 7.028429 39.874248
v    316.170218 4.680888 39.838739
v    315.714458 4.183635 39.719255
v    339.692135 24.475115 47.214657
v    343.592451 26.204475 51.179317
v    348.866734 28.609030 55.085982
v    361.360350 34.260715 59.660286
v    363.509837 35.244278 59.633276
v    369.496759 37.714445 59.559543
v    373.080276 38.649001 58.959577
v    374.079248 38.901664 58.653104
v    343.633296 17.369297 47.214657
v    347.165523 19.762312 51.179317
v    351.998032 22.963374 55.085982
v    363.407709 30.569376 59.660286
v    365.380216 31.872029 59.633276
v    370.645722 35.642892 59.559543
v    373.335963 38.188004 58.959577
v    374.079248 38.901664 58.653104
v    339.145446 14.643758 68.655720
v    334.379693 13.821114 73.149789
v    326.973824 12.463224 78.224287
v    310.980901 9.573837 83.488184
v    307.597535 8.948627 83.448870
v    299.943239 7.831661 83.360805
v    295.846030 7.776404 82.634012
v    294.038756 7.774026 82.096487
v    336.597113 24.223737 68.655720
v    332.052498 22.569765 73.149789
v    324.950762 20.068543 78.224287
v    309.635961 14.629883 83.488184
v    306.389125 13.491418 83.448870
v    299.191500 10.657682 83.360805
v    295.608350 8.669915 82.634012
v    294.038756 7.774026 82.096487
v    341.650514 26.339149 89.915406
v    345.491246 27.545810 93.656403
v    347.502622 28.200811 95.082066
v    354.253600 30.291342 99.839188
v    368.745915 34.970920 104.720622
v    372.602426 36.049214 105.999020
v    377.623558 37.484273 105.939567
v    384.579059 38.505230 105.861459
v    345.654612 16.693285 89.915406
v    349.220804 18.561314 93.656403
v    351.104746 19.523301 95.082066
v    357.351587 22.828299 99.839188
v    370.897527 29.787692 104.720622
v    374.383950 31.757526 105.999020
v    378.945280 34.300246 105.939567
v    384.579059 38.505230 105.861459
v    340.998443 13.098112 113.256720
v    336.623257 10.108423 118.180911
v    327.680256 4.052110 125.466691
v    315.457998 -4.442518 130.237603
v    309.036617 -8.537435 132.668964
v    306.494272 -10.179299 132.634509
v    299.060191 -13.686228 132.543183
v    333.419583 22.308910 113.256720
v    329.643290 18.591372 118.180911
v    321.978109 10.982087 125.466691
v    311.288741 0.624495 130.237603
v    306.033853 -4.888093 132.668964
v    303.933121 -7.066662 132.634509
v    299.060191 -13.686228 132.543183
v    344.470651 33.083232 137.588842
v    351.784196 39.431295 144.107565
v    362.386518 48.860047 148.655417
v    371.344711 56.211295 152.354961
v    379.668852 61.504644 152.245191
v    352.867746 25.057550 137.588842
v    358.878686 32.650601 144.107565
v    367.818486 43.668341 148.655417
v    374.757234 52.949712 152.354961
v    379.668852 61.504644 152.245191
v    325.827408 -2.466108 162.514086
v    312.725502 -13.813547 168.069809
v    304.739639 -20.193465 171.332961
v    302.076922 -22.345876 171.293981
v    293.062115 -27.837898 171.176697
v    317.807092 5.403315 162.514086
v    306.710514 -7.911724 168.069809
v    300.483404 -16.017306 171.332961
v    298.381949 -18.720420 171.293981
v    293.062115 -27.837898 171.176697
v    358.361774 48.664383 177.228542
v    366.861982 56.670175 180.971325
v    376.891744 65.392039 185.214628
v    387.729284 72.883940 185.067671
v    366.637793 41.195037 177.228542
v    373.732977 50.468904 180.971325
v    381.384169 61.337497 185.214628
v    387.729284 72.883940 185.067671
v    309.392277 8.420074 183.906197
v    302.773197 7.681413 186.041003
v    286.883519 6.544242 191.126702
v    278.683170 7.097697 193.681257
v    274.823698 7.311936 193.638309
v    307.283513 19.252414 183.906197
v    300.870715 17.454120 186.041003
v    285.714836 12.547560 191.126702
v    278.320955 8.958330 193.681257
v    274.823698 7.311936 193.638309
v    361.831750 44.986581 188.427339
v    363.217120 45.952059 188.968594
v    377.355799 54.993730 194.326367
v    388.760533 60.225884 198.226309
v    368.680663 36.684547 188.427339
v    369.891859 37.861154 188.968594
v    381.456053 50.023533 194.326367
v    388.760533 60.225884 198.226309
v    311.128440 -8.126020 193.963615
v    297.976022 -15.713860 198.811134
v    285.974775 -20.569189 202.834952
v    304.938631 0.116833 193.963615
v    293.984137 -10.397941 198.811134
v    285.974775 -20.569189 202.834952
v    366.445228 44.220163 194.170969
v    376.021109 49.329951 197.636044
v    388.303825 53.832133 201.702022
v    371.799968 36.574934 194.170969
v    379.874842 43.827785 197.636044
v    388.303825 53.832133 201.702022
v    302.286154 -12.138996 199.733115
v    295.466098 -15.854679 202.212563
v    285.242190 -19.703231 205.607943
v    283.269756 -20.472712 205.584419
v    297.337924 -5.203106 199.733115
v    291.605192 -10.442882 202.212563
v    284.639195 -18.858019 205.607943
v    283.269756 -20.472712 205.584419
mtllib usm_28_2.5D_2018-09-16_8.mtl
usemtl APPID_3780786256_1876378753008 
o vid_3 
f 3 2 1
f 4 5 6
f 1 6 5
f 1 5 3
f 3 5 4
f 4 2 3
f 2 4 6
f 6 1 2
usemtl APPID_3780785248_1876378758896 
o vid_4 
f 7 9 10
f 7 10 8
f 7 9 10
f 7 10 8
usemtl APPID_3780786256_1876378753008 
o vid_5 
f 13 12 11
f 14 15 16
f 11 16 15
f 11 15 13
f 13 15 14
f 14 12 13
f 12 14 16
f 16 11 12
usemtl APPID_3780785248_1876378758896 
o vid_6 
f 17 19 20
f 17 20 18
f 17 19 20
f 17 20 18
usemtl APPID_3780786256_1876378753008 
o vid_7 
f 23 22 21
f 24 25 26
f 21 26 25
f 21 25 23
f 23 25 24
f 24 22 23
f 22 24 26
f 26 21 22
usemtl APPID_3780785248_1876378758896 
o vid_8 
f 27 29 30
f 27 30 28
f 27 29 30
f 27 30 28
usemtl APPID_3780786256_1876378753008 
o vid_9 
f 33 32 31
f 34 35 36
f 31 36 35
f 31 35 33
f 33 35 34
f 34 32 33
f 32 34 36
f 36 31 32
usemtl APPID_3780785248_1876378758896 
o vid_10 
f 37 39 40
f 37 40 38
f 37 39 40
f 37 40 38
usemtl APPID_3780786256_1876378753008 
o vid_11 
f 43 42 41
f 44 45 46
f 41 46 45
f 41 45 43
f 43 45 44
f 44 42 43
f 42 44 46
f 46 41 42
usemtl APPID_3780785248_1876378758896 
o vid_12 
f 47 49 50
f 47 50 48
f 47 49 50
f 47 50 48
usemtl APPID_3780786256_1876378753008 
o vid_13 
f 53 52 51
f 54 55 56
f 51 56 55
f 51 55 53
f 53 55 54
f 54 52 53
f 52 54 56
f 56 51 52
usemtl APPID_3780785248_1876378758896 
o vid_14 
f 57 61 62
f 58 62 63
f 57 62 58
f 58 63 59
f 59 63 64
f 59 64 60
usemtl APPID_3780786256_1876378753008 
o vid_15 
f 67 66 65
f 68 69 70
f 65 70 69
f 65 69 67
f 67 69 68
f 68 66 67
f 66 68 70
f 70 65 66
usemtl APPID_3780785248_1876378758896 
o vid_16 
f 71 73 74
f 71 74 72
f 71 73 74
f 71 74 72
usemtl APPID_3780786256_1876378753008 
o vid_17 
f 77 76 75
f 78 79 80
f 75 80 79
f 75 79 77
f 77 79 78
f 78 76 77
f 76 78 80
f 80 75 76
usemtl APPID_3780785248_1876378758896 
o vid_18 
f 81 83 84
f 81 84 82
f 81 83 84
f 81 84 82
usemtl APPID_3780786256_1876378753008 
o vid_19 
f 87 86 85
f 88 89 90
f 85 90 89
f 85 89 87
f 87 89 88
f 88 86 87
f 86 88 90
f 90 85 86
usemtl APPID_3780785248_1876378758896 
o vid_20 
f 91 93 94
f 91 94 92
f 91 93 94
f 91 94 92
usemtl APPID_3780786256_1876378753008 
o vid_21 
f 97 96 95
f 98 99 100
f 95 100 99
f 95 99 97
f 97 99 98
f 98 96 97
f 96 98 100
f 100 95 96
usemtl APPID_3780785248_1876378758896 
o vid_22 
f 101 103 104
f 101 104 102
f 101 103 104
f 101 104 102
usemtl APPID_3780786256_1876378753008 
o vid_23 
f 107 106 105
f 108 109 110
f 105 110 109
f 105 109 107
f 107 109 108
f 108 106 107
f 106 108 110
f 110 105 106
usemtl APPID_3780785248_1876378758896 
o vid_24 
f 111 113 114
f 111 114 112
f 111 113 114
f 111 114 112
usemtl APPID_3780786256_1876378753008 
o vid_25 
f 117 116 115
f 118 119 120
f 115 120 119
f 115 119 117
f 117 119 118
f 118 116 117
f 116 118 120
f 120 115 116
usemtl APPID_3780785248_1876378758896 
o vid_26 
f 121 123 124
f 121 124 122
f 121 123 124
f 121 124 122
usemtl APPID_3780786256_1876378753008 
o vid_27 
f 127 126 125
f 128 129 130
f 125 130 129
f 125 129 127
f 127 129 128
f 128 126 127
f 126 128 130
f 130 125 126
usemtl APPID_3780785248_1876378758896 
o vid_28 
f 131 135 136
f 132 136 137
f 131 136 132
f 132 137 133
f 133 137 138
f 133 138 134
usemtl APPID_3780786256_1876378753008 
o vid_29 
f 141 140 139
f 142 143 144
f 139 144 143
f 139 143 141
f 141 143 142
f 142 140 141
f 140 142 144
f 144 139 140
usemtl APPID_3780785248_1876378758896 
o vid_30 
f 145 149 150
f 146 150 151
f 145 150 146
f 146 151 147
f 147 151 152
f 147 152 148
usemtl APPID_3780786256_1876378753008 
o vid_31 
f 155 154 153
f 156 157 158
f 153 158 157
f 153 157 155
f 155 157 156
f 156 154 155
f 154 156 158
f 158 153 154
usemtl APPID_3780785248_1876378758896 
o vid_32 
f 159 164 165
f 160 165 166
f 161 166 167
f 159 165 160
f 160 166 161
f 161 167 162
f 162 167 168
f 162 168 163
usemtl APPID_3780786256_1876378753008 
o vid_33 
f 171 170 169
f 172 173 174
f 169 174 173
f 169 173 171
f 171 173 172
f 172 170 171
f 170 172 174
f 174 169 170
usemtl APPID_3780785248_1876378758896 
o vid_34 
f 175 180 181
f 176 181 182
f 177 182 183
f 175 181 176
f 176 182 177
f 177 183 178
f 178 183 184
f 178 184 179
usemtl APPID_3780786256_1876378753008 
o vid_35 
f 187 186 185
f 188 189 190
f 185 190 189
f 185 189 187
f 187 189 188
f 188 186 187
f 186 188 190
f 190 185 186
usemtl APPID_3780785248_1876378758896 
o vid_36 
f 191 195 196
f 192 196 197
f 191 196 192
f 192 197 193
f 193 197 198
f 193 198 194
usemtl APPID_3780786256_1876378753008 
o vid_37 
f 201 200 199
f 202 203 204
f 199 204 203
f 199 203 201
f 201 203 202
f 202 200 201
f 200 202 204
f 204 199 200
usemtl APPID_3780785248_1876378758896 
o vid_38 
f 205 210 211
f 206 211 212
f 207 212 213
f 205 211 206
f 206 212 207
f 207 213 208
f 208 213 214
f 208 214 209
usemtl APPID_3780786256_1876378753008 
o vid_39 
f 217 216 215
f 218 219 220
f 215 220 219
f 215 219 217
f 217 219 218
f 218 216 217
f 216 218 220
f 220 215 216
usemtl APPID_3780785248_1876378758896 
o vid_40 
f 221 226 227
f 222 227 228
f 223 228 229
f 221 227 222
f 222 228 223
f 223 229 224
f 224 229 230
f 224 230 225
usemtl APPID_3780786256_1876378753008 
o vid_41 
f 233 232 231
f 234 235 236
f 231 236 235
f 231 235 233
f 233 235 234
f 234 232 233
f 232 234 236
f 236 231 232
usemtl APPID_3780785248_1876378758896 
o vid_42 
f 237 242 243
f 238 243 244
f 239 244 245
f 237 243 238
f 238 244 239
f 239 245 240
f 240 245 246
f 240 246 241
usemtl APPID_3780799920_1876378751728 
o vid_10000004 
f 247 254 255
f 248 255 256
f 249 256 257
f 250 257 258
f 251 258 259
f 247 255 248
f 248 256 249
f 249 257 250
f 250 258 251
f 251 259 252
f 252 259 260
usemtl APPID_3780799920_1876378751728 
o vid_10000006 
f 261 269 270
f 262 270 271
f 263 271 272
f 264 272 273
f 265 273 274
f 266 274 275
f 261 270 262
f 262 271 263
f 263 272 264
f 264 273 265
f 265 274 266
f 266 275 267
f 267 275 276
usemtl APPID_3780799920_1876378751728 
o vid_10000008 
f 277 283 284
f 278 284 285
f 279 285 286
f 280 286 287
f 277 284 278
f 278 285 279
f 279 286 280
f 280 287 281
f 281 287 288
usemtl APPID_3780799920_1876378751728 
o vid_10000010 
f 289 295 296
f 290 296 297
f 291 297 298
f 292 298 299
f 289 296 290
f 290 297 291
f 291 298 292
f 292 299 293
f 293 299 300
usemtl APPID_3780799920_1876378751728 
o vid_10000012 
f 301 310 311
f 302 311 312
f 303 312 313
f 304 313 314
f 305 314 315
f 306 315 316
f 307 316 317
f 301 311 302
f 302 312 303
f 303 313 304
f 304 314 305
f 305 315 306
f 306 316 307
f 307 317 308
f 308 317 318
usemtl APPID_3780799920_1876378751728 
o vid_10000014 
f 319 325 326
f 320 326 327
f 321 327 328
f 322 328 329
f 319 326 320
f 320 327 321
f 321 328 322
f 322 329 323
f 323 329 330
usemtl APPID_3780799920_1876378751728 
o vid_10000016 
f 331 339 340
f 332 340 341
f 333 341 342
f 334 342 343
f 335 343 344
f 336 344 345
f 331 340 332
f 332 341 333
f 333 342 334
f 334 343 335
f 335 344 336
f 336 345 337
f 337 345 346
usemtl APPID_3780799920_1876378751728 
o vid_10000018 
f 347 355 356
f 348 356 357
f 349 357 358
f 350 358 359
f 351 359 360
f 352 360 361
f 347 356 348
f 348 357 349
f 349 358 350
f 350 359 351
f 351 360 352
f 352 361 353
f 353 361 362
usemtl APPID_3780799920_1876378751728 
o vid_10000020 
f 363 371 372
f 364 372 373
f 365 373 374
f 366 374 375
f 367 375 376
f 368 376 377
f 363 372 364
f 364 373 365
f 365 374 366
f 366 375 367
f 367 376 368
f 368 377 369
f 369 377 378
usemtl APPID_3780799920_1876378751728 
o vid_10000022 
f 379 387 388
f 380 388 389
f 381 389 390
f 382 390 391
f 383 391 392
f 384 392 393
f 379 388 380
f 380 389 381
f 381 390 382
f 382 391 383
f 383 392 384
f 384 393 385
f 385 393 394
usemtl APPID_3780799920_1876378751728 
o vid_10000024 
f 395 403 404
f 396 404 405
f 397 405 406
f 398 406 407
f 399 407 408
f 400 408 409
f 395 404 396
f 396 405 397
f 397 406 398
f 398 407 399
f 399 408 400
f 400 409 401
f 401 409 410
usemtl APPID_3780799920_1876378751728 
o vid_10000026 
f 411 418 419
f 412 419 420
f 413 420 421
f 414 421 422
f 415 422 423
f 411 419 412
f 412 420 413
f 413 421 414
f 414 422 415
f 415 423 416
f 416 423 424
usemtl APPID_3780799920_1876378751728 
o vid_10000028 
f 425 430 431
f 426 431 432
f 427 432 433
f 425 431 426
f 426 432 427
f 427 433 428
f 428 433 434
usemtl APPID_3780799920_1876378751728 
o vid_10000030 
f 435 440 441
f 436 441 442
f 437 442 443
f 435 441 436
f 436 442 437
f 437 443 438
f 438 443 444
usemtl APPID_3780799920_1876378751728 
o vid_10000032 
f 445 449 450
f 446 450 451
f 445 450 446
f 446 451 447
f 447 451 452
usemtl APPID_3780799920_1876378751728 
o vid_10000034 
f 453 458 459
f 454 459 460
f 455 460 461
f 453 459 454
f 454 460 455
f 455 461 456
f 456 461 462
usemtl APPID_3780799920_1876378751728 
o vid_10000036 
f 463 467 468
f 464 468 469
f 463 468 464
f 464 469 465
f 465 469 470
usemtl APPID_3780799920_1876378751728 
o vid_10000038 
f 471 474 475
f 471 475 472
f 472 475 476
usemtl APPID_3780799920_1876378751728 
o vid_10000040 
f 477 480 481
f 477 481 478
f 478 481 482
usemtl APPID_3780799920_1876378751728 
o vid_10000042 
f 483 487 488
f 484 488 489
f 483 488 484
f 484 489 485
f 485 489 490
