# File generated by PlantGL - Wed Jul 15 17:36:48 2026
v    20.701807 99.124129 0.000000
v    24.157353 98.880811 0.000000
v    22.640300 101.995060 0.000000
v    24.297833 100.875871 3.802806
v    20.842287 101.119189 3.802806
v    22.359340 98.004940 3.802806
v    23.893806 101.519368 3.538888
v    24.797314 101.866393 4.388787
v    25.748476 102.244200 4.982798
v    26.165882 102.403414 5.241793
v    27.538046 102.941490 5.636025
v    28.906345 103.446304 5.624849
v    29.576317 103.660904 5.418750
v    30.226733 103.764032 5.232305
v    24.555479 100.161067 3.538888
v    25.385676 100.658587 4.388787
v    26.269487 101.174655 4.982798
v    26.652153 101.405182 5.241793
v    27.921678 102.153960 5.636025
v    29.162629 102.920197 5.624849
v    29.744595 103.315457 5.418750
v    30.226733 103.764032 5.232305
v    23.995716 101.198293 3.802806
v    20.714120 100.696338 3.802806
v    22.789624 98.105369 3.802806
v    21.003924 98.801707 8.831485
v    24.285520 99.303662 8.831485
v    22.210016 101.894631 8.831485
v    21.810954 97.989564 8.435627
v    20.603689 97.183339 9.710414
v    19.278761 96.276562 10.642256
v    18.779375 95.944733 10.989861
v    16.949542 94.704150 11.581180
v    15.115646 93.511924 11.564416
v    14.140330 92.934367 11.232224
v    13.222784 92.568600 10.952569
v    20.387503 99.766539 8.435627
v    19.337218 98.764346 9.710414
v    18.163124 97.669274 10.642256
v    17.730300 97.254353 10.989861
v    16.120248 95.739405 11.581180
v    14.556500 94.209937 11.564416
v    13.779996 93.384193 11.232224
v    13.222784 92.568600 10.952569
v    20.790941 99.336039 8.831485
v    23.929266 98.852048 8.831485
v    22.779253 101.811913 8.831485
v    24.208699 100.663961 19.751381
v    21.070374 101.147952 19.751381
v    22.220387 98.188087 19.751381
v    23.422731 102.198634 19.178191
v    25.440576 102.787615 21.024043
v    28.494274 103.716796 22.876644
v    31.560666 104.635470 23.732856
v    32.882687 105.035309 23.722251
v    34.602478 105.509215 23.708583
v    35.768061 105.824984 23.353146
v    37.154841 106.141662 22.936584
v    38.581122 106.248162 22.531653
v    24.665043 99.001216 19.178191
v    26.551216 99.929087 21.024043
v    29.431205 101.305356 22.876644
v    32.313463 102.697946 23.732856
v    33.558643 103.295556 23.722251
v    35.147256 104.107084 23.708583
v    36.220275 104.661092 23.353146
v    37.457079 105.363771 22.936584
v    38.581122 106.248162 22.531653
v    24.202820 100.402854 19.751381
v    21.299438 101.273414 19.751381
v    21.997202 98.323732 19.751381
v    20.796820 99.597146 37.004736
v    23.700202 98.726586 37.004736
v    23.002438 101.676268 37.004736
v    21.577703 97.369734 36.203522
v    18.670567 96.943150 38.783679
v    14.892735 96.344797 41.003667
v    9.839313 95.573118 42.570094
v    8.694204 95.393722 42.561194
v    5.455224 94.968328 42.536165
v    4.516565 94.849178 42.257669
v    2.535591 94.677981 41.675392
v    0.540429 94.805379 41.109374
v    20.496971 101.938348 36.203522
v    17.706825 101.017208 38.783679
v    14.061306 99.859524 41.003667
v    9.197735 98.285280 42.570094
v    8.093616 97.932609 42.561194
v    5.007331 96.861724 42.536165
v    4.114772 96.547690 42.257669
v    2.267051 95.813187 41.675392
v    0.540429 94.805379 41.109374
v    21.437447 98.786851 37.004736
v    24.081624 99.686532 37.004736
v    21.980389 101.526617 37.004736
v    23.562193 101.213149 60.162058
v    20.918016 100.313468 60.162058
v    23.019251 98.473383 60.162058
v    20.754995 103.228144 59.080905
v    21.868505 104.357255 60.476229
v    23.560180 106.022129 62.562554
v    27.855730 110.240688 66.056931
v    30.807977 113.186101 67.173390
v    32.143476 114.486205 67.671919
v    36.404537 118.656852 67.626135
v    41.080031 123.004647 65.746222
v    45.188006 125.908159 63.375149
v    25.929955 98.696349 59.080905
v    26.902278 99.949100 60.476229
v    28.329398 101.845649 62.562554
v    31.944323 106.660243 66.056931
v    34.474467 109.975298 67.173390
v    35.587000 111.470657 67.671919
v    39.158982 116.244741 67.626135
v    42.851883 121.453008 65.746222
v    45.188006 125.908159 63.375149
v    23.582503 100.691262 60.162058
v    21.359828 100.592000 60.162058
v    22.557129 98.716738 60.162058
v    21.417137 99.308738 120.617660
v    23.639812 99.408000 120.617660
v    22.442511 101.283262 120.617660
v    24.223983 95.719851 119.209295
v    20.794674 93.806041 122.664751
v    12.803032 89.513453 128.296625
v    6.986403 86.328965 130.071945
v    -0.946015 82.087987 130.340751
v    -3.009811 80.992317 129.651346
v    -9.429309 77.794143 127.540372
v    -15.536878 75.714654 124.203331
v    19.342640 103.365209 119.209295
v    16.163438 101.059672 122.664751
v    8.906447 95.616444 128.296625
v    3.569938 91.679971 130.071945
v    -3.615312 86.268750 130.340751
v    -5.477717 84.857652 129.651346
v    -11.080335 80.380048 127.540372
v    -15.536878 75.714654 124.203331
v    21.702630 99.425623 120.617660
v    23.395841 99.596802 120.617660
v    22.400990 100.977576 120.617660
v    23.297010 100.574377 169.869379
v    21.603799 100.403198 169.869379
v    22.598650 99.022424 169.869379
v    19.652966 104.697447 168.098320
v    25.204162 108.061795 173.801683
v    33.616593 113.209649 179.525897
v    36.482817 114.994798 180.429897
v    42.051375 118.368907 182.171444
v    48.616952 122.371462 182.112399
v    56.520408 126.889540 180.029840
v    60.422433 128.912425 178.742734
v    64.391459 130.183024 176.861408
v    26.054539 95.812571 168.098320
v    31.003103 100.013326 173.801683
v    38.549178 106.363613 179.525897
v    41.149828 108.517359 180.429897
v    46.113146 112.731491 182.171444
v    51.988199 117.692439 182.112399
v    58.775768 123.759280 180.029840
v    61.929809 126.820306 178.742734
v    64.391459 130.183024 176.861408
v    23.091936 100.385626 169.869379
v    21.869800 100.319975 169.869379
v    22.537723 99.294399 169.869379
v    21.907704 99.614374 205.446952
v    23.129840 99.680025 205.446952
v    22.461917 100.705601 205.446952
v    25.607807 95.148268 203.296941
v    18.653417 91.432831 210.220644
v    15.924704 89.934822 212.027350
v    8.091675 85.773201 217.169660
v    1.925346 82.423124 219.046703
v    -2.529174 80.149164 220.381271
v    -8.073820 77.293726 220.333487
v    -13.110669 74.940242 220.291090
v    -18.268619 73.448873 218.803292
v    19.319109 104.804369 203.296941
v    13.108957 99.946178 210.220644
v    10.635521 98.056201 212.027350
v    3.662011 92.574816 217.169660
v    -1.895331 88.289657 219.046703
v    -5.776284 85.135001 220.381271
v    -10.629849 81.218429 220.333487
v    -14.818998 77.563329 220.291090
v    -18.268619 73.448873 218.803292
v    22.100420 99.778478 205.446952
v    22.891364 99.764871 205.446952
v    22.507676 100.456651 205.446952
v    22.899220 100.221522 216.211000
v    22.108276 100.235129 216.211000
v    22.491964 99.543349 216.211000
v    20.040774 104.196901 211.062612
v    24.327961 105.704980 219.860874
v    25.398129 106.018753 221.997404
v    31.834850 108.315856 230.572378
v    35.050441 109.247520 234.723009
v    41.243038 110.395711 239.164675
v    24.758070 95.691730 211.062612
v    28.307426 98.530099 219.860874
v    29.140250 99.271799 221.997404
v    34.497107 103.515870 230.572378
v    36.990081 105.750395 234.723009
v    41.243038 110.395711 239.164675
mtllib usm_10_2.5D_2018-08-28_2.mtl
usemtl APPID_1693015472_2419758995808 
o vid_3 
f 3 2 1
f 4 5 6
f 1 6 5
f 1 5 3
f 3 5 4
f 4 2 3
f 2 4 6
f 6 1 2
usemtl APPID_1693009760_2419758995296 
o vid_4 
f 7 15 16
f 8 16 17
f 9 17 18
f 10 18 19
f 11 19 20
f 12 20 21
f 7 16 8
f 8 17 9
f 9 18 10
f 10 19 11
f 11 20 12
f 12 21 13
f 13 21 22
usemtl APPID_1693015472_2419758995808 
o vid_5 
f 25 24 23
f 26 27 28
f 23 28 27
f 23 27 25
f 25 27 26
f 26 24 25
f 24 26 28
f 28 23 24
usemtl APPID_1693009760_2419758995296 
o vid_6 
f 29 37 38
f 30 38 39
f 31 39 40
f 32 40 41
f 33 41 42
f 34 42 43
f 29 38 30
f 30 39 31
f 31 40 32
f 32 41 33
f 33 42 34
f 34 43 35
f 35 43 44
usemtl APPID_1693015472_2419758995808 
o vid_7 
f 47 46 45
f 48 49 50
f 45 50 49
f 45 49 47
f 47 49 48
f 48 46 47
f 46 48 50
f 50 45 46
usemtl APPID_1693009760_2419758995296 
o vid_8 
f 51 60 61
f 52 61 62
f 53 62 63
f 54 63 64
f 55 64 65
f 56 65 66
f 57 66 67
f 51 61 52
f 52 62 53
f 53 63 54
f 54 64 55
f 55 65 56
f 56 66 57
f 57 67 58
f 58 67 68
usemtl APPID_1693015472_2419758995808 
o vid_9 
f 71 70 69
f 72 73 74
f 69 74 73
f 69 73 71
f 71 73 72
f 72 70 71
f 70 72 74
f 74 69 70
usemtl APPID_1693009760_2419758995296 
o vid_10 
f 75 84 85
f 76 85 86
f 77 86 87
f 78 87 88
f 79 88 89
f 80 89 90
f 81 90 91
f 75 85 76
f 76 86 77
f 77 87 78
f 78 88 79
f 79 89 80
f 80 90 81
f 81 91 82
f 82 91 92
usemtl APPID_1693015472_2419758995808 
o vid_11 
f 95 94 93
f 96 97 98
f 93 98 97
f 93 97 95
f 95 97 96
f 96 94 95
f 94 96 98
f 98 93 94
usemtl APPID_1693009760_2419758995296 
o vid_12 
f 99 108 109
f 100 109 110
f 101 110 111
f 102 111 112
f 103 112 113
f 104 113 114
f 105 114 115
f 99 109 100
f 100 110 101
f 101 111 102
f 102 112 103
f 103 113 104
f 104 114 105
f 105 115 106
f 106 115 116
usemtl APPID_1693015472_2419758995808 
o vid_13 
f 119 118 117
f 120 121 122
f 117 122 121
f 117 121 119
f 119 121 120
f 120 118 119
f 118 120 122
f 122 117 118
usemtl APPID_1693009760_2419758995296 
o vid_14 
f 123 131 132
f 124 132 133
f 125 133 134
f 126 134 135
f 127 135 136
f 128 136 137
f 123 132 124
f 124 133 125
f 125 134 126
f 126 135 127
f 127 136 128
f 128 137 129
f 129 137 138
usemtl APPID_1693015472_2419758995808 
o vid_15 
f 141 140 139
f 142 143 144
f 139 144 143
f 139 143 141
f 141 143 142
f 142 140 141
f 140 142 144
f 144 139 140
usemtl APPID_1693009760_2419758995296 
o vid_16 
f 145 154 155
f 146 155 156
f 147 156 157
f 148 157 158
f 149 158 159
f 150 159 160
f 151 160 161
f 145 155 146
f 146 156 147
f 147 157 148
f 148 158 149
f 149 159 150
f 150 160 151
f 151 161 152
f 152 161 162
usemtl APPID_1693015472_2419758995808 
o vid_17 
f 165 164 163
f 166 167 168
f 163 168 167
f 163 167 165
f 165 167 166
f 166 164 165
f 164 166 168
f 168 163 164
usemtl APPID_1693009760_2419758995296 
o vid_18 
f 169 178 179
f 170 179 180
f 171 180 181
f 172 181 182
f 173 182 183
f 174 183 184
f 175 184 185
f 169 179 170
f 170 180 171
f 171 181 172
f 172 182 173
f 173 183 174
f 174 184 175
f 175 185 176
f 176 185 186
usemtl APPID_1693015472_2419758995808 
o vid_19 
f 189 188 187
f 190 191 192
f 187 192 191
f 187 191 189
f 189 191 190
f 190 188 189
f 188 190 192
f 192 187 188
usemtl APPID_1693009760_2419758995296 
o vid_20 
f 193 199 200
f 194 200 201
f 195 201 202
f 196 202 203
f 193 200 194
f 194 201 195
f 195 202 196
f 196 203 197
f 197 203 204
