# File generated by PlantGL - Fri Sep  4 14:41:45 2026
v    18.201987 9.124129 0.000000
v    21.657533 8.880811 0.000000
v    20.140480 11.995060 0.000000
v    21.798013 10.875871 0.231333
v    18.342467 11.119189 0.231333
v    19.859520 8.004940 0.231333
v    21.519742 11.246769 -0.071993
v    22.400882 11.558495 0.811542
v    22.628323 11.642793 0.963587
v    23.387006 11.898509 1.463738
v    24.332995 12.110744 1.722983
v    21.918530 10.428126 -0.071993
v    22.707144 10.929792 0.811542
v    22.913722 11.056919 0.963587
v    23.582747 11.496686 1.463738
v    24.332995 12.110744 1.722983
v    21.503548 11.204422 0.231333
v    18.205166 10.699900 0.231333
v    20.291286 8.095678 0.231333
v    18.496452 8.795578 0.322458
v    21.794834 9.300100 0.322458
v    19.708714 11.904322 0.322458
v    18.971350 8.397947 -0.099472
v    17.870070 7.706521 1.129538
v    16.875415 7.098733 1.857853
v    16.534752 6.949674 2.084022
v    15.689163 6.546790 2.314956
v    18.212058 9.345813 -0.099472
v    17.296938 8.421995 1.129538
v    16.486710 7.583975 1.857853
v    16.266891 7.284059 2.084022
v    15.689163 6.546790 2.314956
v    18.272844 9.328938 0.322458
v    21.444735 8.839770 0.322458
v    20.282421 11.831292 0.322458
v    21.727156 10.671062 0.466406
v    18.555265 11.160230 0.466406
v    19.717579 8.168708 0.466406
v    21.310981 11.285654 -0.105211
v    22.236549 11.527757 0.799016
v    23.025527 11.705139 1.559814
v    23.576064 11.841253 1.914094
v    25.110664 12.007109 2.852919
v    25.197161 12.019283 2.874455
v    21.835094 9.936709 -0.105211
v    22.681323 10.383013 0.799016
v    23.383096 10.784841 1.559814
v    23.881113 11.056128 1.914094
v    25.125134 11.969866 2.852919
v    25.197161 12.019283 2.874455
v    21.731622 10.409625 0.466406
v    18.779443 11.294816 0.466406
v    19.488935 8.295559 0.466406
v    18.268378 9.590375 0.678272
v    21.220557 8.705184 0.678272
v    20.511065 11.704441 0.678272
v    18.694300 8.737565 -0.075959
v    17.673158 8.616983 0.895874
v    16.375417 8.509220 2.120989
v    15.903563 8.459931 2.417363
v    13.766500 8.525429 3.717799
v    18.267065 10.543629 -0.075959
v    17.300125 10.193918 0.895874
v    16.091645 9.708820 2.120989
v    15.647718 9.541475 2.417363
v    13.766500 8.525429 3.717799
v    18.910354 8.755708 0.678272
v    21.622411 9.678485 0.678272
v    19.467235 11.565807 0.678272
v    21.089646 11.244292 0.902327
v    18.377589 10.321515 0.902327
v    20.532765 8.434193 0.902327
v    20.012835 11.814607 -0.066925
v    20.948271 12.663298 1.126849
v    22.270629 13.781916 2.756342
v    22.676498 14.140306 3.094593
v    24.961673 15.665849 4.765764
v    21.797050 10.252142 -0.066925
v    22.514900 11.291377 1.126849
v    23.449266 12.749764 2.756342
v    23.750974 13.199371 3.094593
v    24.961673 15.665849 4.765764
v    21.118988 10.714442 0.902327
v    18.821781 10.611851 0.902327
v    20.059231 8.673707 0.902327
v    18.881012 9.285558 1.430323
v    21.178219 9.388149 1.430323
v    19.940769 11.326293 1.430323
v    19.957505 8.251567 0.217207
v    18.798434 7.686684 1.435873
v    16.550469 6.686061 3.750809
v    12.965938 5.508952 6.052812
v    18.396030 10.697213 0.217207
v    17.395846 9.883473 1.435873
v    15.542164 8.265310 3.750809
v    12.965938 5.508952 6.052812
v    19.168987 9.401253 1.430323
v    20.934037 9.579695 1.430323
v    19.896977 11.019052 1.430323
v    20.831013 10.598747 1.970317
v    19.065963 10.420305 1.970317
v    20.103023 8.980948 1.970317
v    19.521369 11.684717 0.491544
v    19.964439 11.932324 0.971265
v    22.945441 13.465058 4.124785
v    23.650580 13.698566 4.798959
v    26.770045 14.877833 6.827360
v    21.446572 9.012687 0.491544
v    21.821700 9.354593 0.971265
v    24.219247 11.697116 4.124785
v    24.663958 12.292079 4.798959
v    26.770045 14.877833 6.827360
v    20.623320 10.405948 1.970317
v    19.336779 10.336837 1.970317
v    20.039901 9.257215 1.970317
v    19.376680 9.594052 2.918424
v    20.663221 9.663163 2.918424
v    19.960099 10.742785 2.918424
v    20.951713 8.106168 1.162790
v    19.229314 7.247395 2.981832
v    16.042812 5.794365 6.276654
v    15.542048 5.553050 6.623913
v    10.809102 4.014274 9.650955
v    18.652715 11.636209 1.162790
v    17.170827 10.408137 2.981832
v    14.553422 8.081276 6.276654
v    14.130232 7.720850 6.623913
v    10.809102 4.014274 9.650955
v    19.574607 9.764060 2.918424
v    20.417026 9.749568 2.918424
v    20.008367 10.486371 2.918424
v    20.425393 10.235940 3.256000
v    19.582974 10.250432 3.256000
v    19.991633 9.513629 3.256000
v    19.261061 11.424879 -0.882229
v    19.700874 11.544402 0.011642
v    22.974662 11.649862 5.897030
v    20.817484 8.618685 -0.882229
v    21.151755 8.928499 0.011642
v    22.974662 11.649862 5.897030
mtllib usm_6_2.5D_2018-07-31_0.mtl
usemtl APPID_2824955600_2481027132928 
o vid_3 
f 3 2 1
f 4 5 6
f 1 6 5
f 1 5 3
f 3 5 4
f 4 2 3
f 2 4 6
f 6 1 2
usemtl APPID_2824952464_2481027131392 
o vid_4 
f 7 12 13
f 8 13 14
f 9 14 15
f 7 13 8
f 8 14 9
f 9 15 10
f 10 15 16
usemtl APPID_2824955600_2481027132928 
o vid_5 
f 19 18 17
f 20 21 22
f 17 22 21
f 17 21 19
f 19 21 20
f 20 18 19
f 18 20 22
f 22 17 18
usemtl APPID_2824952464_2481027131392 
o vid_6 
f 23 28 29
f 24 29 30
f 25 30 31
f 23 29 24
f 24 30 25
f 25 31 26
f 26 31 32
usemtl APPID_2824955600_2481027132928 
o vid_7 
f 35 34 33
f 36 37 38
f 33 38 37
f 33 37 35
f 35 37 36
f 36 34 35
f 34 36 38
f 38 33 34
usemtl APPID_2824952464_2481027131392 
o vid_8 
f 39 45 46
f 40 46 47
f 41 47 48
f 42 48 49
f 39 46 40
f 40 47 41
f 41 48 42
f 42 49 43
f 43 49 50
usemtl APPID_2824955600_2481027132928 
o vid_9 
f 53 52 51
f 54 55 56
f 51 56 55
f 51 55 53
f 53 55 54
f 54 52 53
f 52 54 56
f 56 51 52
usemtl APPID_2824952464_2481027131392 
o vid_10 
f 57 62 63
f 58 63 64
f 59 64 65
f 57 63 58
f 58 64 59
f 59 65 60
f 60 65 66
usemtl APPID_2824955600_2481027132928 
o vid_11 
f 69 68 67
f 70 71 72
f 67 72 71
f 67 71 69
f 69 71 70
f 70 68 69
f 68 70 72
f 72 67 68
usemtl APPID_2824952464_2481027131392 
o vid_12 
f 73 78 79
f 74 79 80
f 75 80 81
f 73 79 74
f 74 80 75
f 75 81 76
f 76 81 82
usemtl APPID_2824955600_2481027132928 
o vid_13 
f 85 84 83
f 86 87 88
f 83 88 87
f 83 87 85
f 85 87 86
f 86 84 85
f 84 86 88
f 88 83 84
usemtl APPID_2824952464_2481027131392 
o vid_14 
f 89 93 94
f 90 94 95
f 89 94 90
f 90 95 91
f 91 95 96
usemtl APPID_2824955600_2481027132928 
o vid_15 
f 99 98 97
f 100 101 102
f 97 102 101
f 97 101 99
f 99 101 100
f 100 98 99
f 98 100 102
f 102 97 98
usemtl APPID_2824952464_2481027131392 
o vid_16 
f 103 108 109
f 104 109 110
f 105 110 111
f 103 109 104
f 104 110 105
f 105 111 106
f 106 111 112
usemtl APPID_2824955600_2481027132928 
o vid_17 
f 115 114 113
f 116 117 118
f 113 118 117
f 113 117 115
f 115 117 116
f 116 114 115
f 114 116 118
f 118 113 114
usemtl APPID_2824952464_2481027131392 
o vid_18 
f 119 124 125
f 120 125 126
f 121 126 127
f 119 125 120
f 120 126 121
f 121 127 122
f 122 127 128
usemtl APPID_2824955600_2481027132928 
o vid_19 
f 131 130 129
f 132 133 134
f 129 134 133
f 129 133 131
f 131 133 132
f 132 130 131
f 130 132 134
f 134 129 130
usemtl APPID_2824952464_2481027131392 
o vid_20 
f 135 138 139
f 135 139 136
f 136 139 140
