# File generated by PlantGL - Fri Sep  4 14:42:43 2026
v    17.752484 98.905161 0.000000
v    22.071916 98.601013 0.000000
v    20.175600 102.493825 0.000000
v    22.247516 101.094839 0.848509
v    17.928084 101.398987 0.848509
v    19.824400 97.506175 0.848509
v    22.062176 101.449172 0.689211
v    22.418914 101.585181 1.043985
v    22.540258 101.629177 1.163735
v    23.209532 101.881197 1.645119
v    23.981556 102.182564 1.910764
v    24.615034 102.401301 2.124717
v    25.179534 102.523121 2.118289
v    22.412274 100.730480 0.689211
v    22.739272 100.927540 1.043985
v    22.848714 100.995968 1.163735
v    23.459716 101.367612 1.645119
v    24.172911 101.789744 1.910764
v    24.735640 102.153718 2.124717
v    25.179534 102.523121 2.118289
v    21.709393 101.369315 0.848509
v    17.959442 100.795720 0.848509
v    20.331165 97.834965 0.848509
v    18.290607 98.630685 1.417165
v    22.040558 99.204280 1.417165
v    19.668835 102.165035 1.417165
v    18.662980 98.191742 1.191725
v    18.121981 97.832383 1.795251
v    17.214909 97.236299 2.544531
v    16.125420 96.500099 2.966002
v    15.440359 96.075775 3.223260
v    14.572263 95.652094 3.212460
v    17.943521 99.089884 1.191725
v    17.474747 98.640361 1.795251
v    16.695057 97.885259 2.544531
v    15.738815 96.982719 2.966002
v    15.175200 96.406788 3.223260
v    14.572263 95.652094 3.212460
v    18.373835 99.368177 1.417165
v    21.360257 98.907612 1.417165
v    20.265907 101.724211 1.417165
v    21.626165 100.631823 2.253766
v    18.639743 101.092388 2.253766
v    19.734093 98.275789 2.253766
v    21.339051 101.308727 1.940991
v    22.307087 101.574763 2.872696
v    23.657567 101.959329 3.817872
v    24.517663 102.215479 4.105528
v    25.847795 102.554780 4.543766
v    26.537757 102.631630 4.759540
v    26.882889 102.674249 4.755676
v    21.871379 99.938640 1.940991
v    22.765094 100.395961 2.872696
v    24.020955 101.024052 3.817872
v    24.828371 101.415790 4.105528
v    26.038661 102.063535 4.543766
v    26.599518 102.472672 4.759540
v    26.882889 102.674249 4.755676
v    21.292097 100.305653 2.253766
v    19.089248 100.966162 2.253766
v    19.618655 98.728185 2.253766
v    18.707903 99.694347 4.112548
v    20.910752 99.033838 4.112548
v    20.381345 101.271815 4.112548
v    18.976783 98.690492 3.687130
v    18.286735 98.590974 4.334992
v    17.624484 98.506537 4.954378
v    15.733074 98.241693 6.239948
v    13.959730 97.971586 6.814920
v    12.104220 97.763905 7.410984
v    10.659388 97.790424 7.508613
v    18.498519 100.712276 3.687130
v    17.837018 100.492077 4.334992
v    17.207125 100.270850 4.954378
v    15.397519 99.660197 6.239948
v    13.691106 99.107148 6.814920
v    11.939206 98.461475 7.410984
v    10.659388 97.790424 7.508613
v    19.380915 99.293053 4.112548
v    20.921776 99.817330 4.112548
v    19.697308 100.889617 4.112548
v    20.619085 100.706947 5.612772
v    19.078224 100.182670 5.612772
v    20.302692 99.110383 5.612772
v    19.632486 101.516745 5.045515
v    20.969978 102.753017 6.735279
v    22.818683 104.504484 8.449475
v    23.430482 105.098235 8.722745
v    25.284451 106.759849 9.517545
v    26.829175 107.798391 10.096082
v    21.551975 99.835818 5.045515
v    22.600971 101.324730 6.735279
v    24.093207 103.388362 8.449475
v    24.601048 104.073153 8.722745
v    26.003522 106.130146 9.517545
v    26.829175 107.798391 10.096082
v    20.489219 100.312352 5.612772
v    19.484886 100.267500 5.612772
v    20.025896 99.420148 5.612772
v    19.510781 99.687648 6.559000
v    20.515114 99.732500 6.559000
v    19.974104 100.579852 6.559000
v    19.787624 98.598160 5.194844
v    19.667828 98.581321 5.834938
v    19.137191 98.597505 8.386073
v    18.869472 98.536985 9.148667
v    17.865522 98.637197 11.488446
v    18.638953 100.397255 5.194844
v    18.573266 100.295668 5.834938
v    18.364649 99.807491 8.386073
v    18.197089 99.590098 9.148667
v    17.865522 98.637197 11.488446
mtllib usm_24_2.5D_2018-07-17_2.mtl
usemtl APPID_2736913664_2060026028272 
o vid_3 
f 3 2 1
f 4 5 6
f 1 6 5
f 1 5 3
f 3 5 4
f 4 2 3
f 2 4 6
f 6 1 2
usemtl APPID_2736911760_2060026032240 
o vid_4 
f 7 14 15
f 8 15 16
f 9 16 17
f 10 17 18
f 11 18 19
f 7 15 8
f 8 16 9
f 9 17 10
f 10 18 11
f 11 19 12
f 12 19 20
usemtl APPID_2736913664_2060026028272 
o vid_5 
f 23 22 21
f 24 25 26
f 21 26 25
f 21 25 23
f 23 25 24
f 24 22 23
f 22 24 26
f 26 21 22
usemtl APPID_2736911760_2060026032240 
o vid_6 
f 27 33 34
f 28 34 35
f 29 35 36
f 30 36 37
f 27 34 28
f 28 35 29
f 29 36 30
f 30 37 31
f 31 37 38
usemtl APPID_2736913664_2060026028272 
o vid_7 
f 41 40 39
f 42 43 44
f 39 44 43
f 39 43 41
f 41 43 42
f 42 40 41
f 40 42 44
f 44 39 40
usemtl APPID_2736911760_2060026032240 
o vid_8 
f 45 52 53
f 46 53 54
f 47 54 55
f 48 55 56
f 49 56 57
f 45 53 46
f 46 54 47
f 47 55 48
f 48 56 49
f 49 57 50
f 50 57 58
usemtl APPID_2736913664_2060026028272 
o vid_9 
f 61 60 59
f 62 63 64
f 59 64 63
f 59 63 61
f 61 63 62
f 62 60 61
f 60 62 64
f 64 59 60
usemtl APPID_2736911760_2060026032240 
o vid_10 
f 65 72 73
f 66 73 74
f 67 74 75
f 68 75 76
f 69 76 77
f 65 73 66
f 66 74 67
f 67 75 68
f 68 76 69
f 69 77 70
f 70 77 78
usemtl APPID_2736913664_2060026028272 
o vid_11 
f 81 80 79
f 82 83 84
f 79 84 83
f 79 83 81
f 81 83 82
f 82 80 81
f 80 82 84
f 84 79 80
usemtl APPID_2736911760_2060026032240 
o vid_12 
f 85 91 92
f 86 92 93
f 87 93 94
f 88 94 95
f 85 92 86
f 86 93 87
f 87 94 88
f 88 95 89
f 89 95 96
usemtl APPID_2736913664_2060026028272 
o vid_13 
f 99 98 97
f 100 101 102
f 97 102 101
f 97 101 99
f 99 101 100
f 100 98 99
f 98 100 102
f 102 97 98
usemtl APPID_2736911760_2060026032240 
o vid_14 
f 103 108 109
f 104 109 110
f 105 110 111
f 103 109 104
f 104 110 105
f 105 111 106
f 106 111 112
