# File generated by PlantGL - Fri Sep  4 14:43:55 2026
v    18.409829 339.225376 0.000000
v    21.465930 339.010184 0.000000
v    20.124241 341.764440 0.000000
v    21.590171 340.774624 0.362700
v    18.534070 340.989816 0.362700
v    19.875759 338.235560 0.362700
v    21.403038 341.131003 0.193435
v    21.546949 341.185870 0.336555
v    21.912846 341.318534 0.697645
v    22.623990 341.586321 1.209144
v    23.139306 341.787479 1.386459
v    23.841499 342.029943 1.623619
v    24.141835 342.088840 1.718745
v    24.397450 342.142142 1.715844
v    21.755435 340.407593 0.193435
v    21.887349 340.487089 0.336555
v    22.217358 340.693424 0.697645
v    22.866584 341.088318 1.209144
v    23.342632 341.370085 1.386459
v    23.966401 341.773540 1.623619
v    24.197911 341.973724 1.718745
v    24.397450 342.142142 1.715844
v    21.036000 340.829891 0.362700
v    18.763294 340.482257 0.362700
v    20.200707 338.687853 0.362700
v    18.964000 339.170109 0.589630
v    21.236706 339.517743 0.589630
v    19.799293 341.312147 0.589630
v    19.328817 338.741951 0.352424
v    19.163930 338.632424 0.536368
v    18.689620 338.328465 1.059022
v    17.800158 337.742895 1.775837
v    17.177108 337.321882 2.016865
v    16.292065 336.773689 2.349221
v    15.877733 336.590780 2.489990
v    15.567635 336.449439 2.486204
v    18.625789 339.619580 0.352424
v    18.482915 339.482574 0.536368
v    18.082761 339.086040 1.059022
v    17.317175 338.345829 1.775837
v    16.770326 337.829691 2.016865
v    16.042181 337.085633 2.349221
v    15.773250 336.721212 2.489990
v    15.567635 336.449439 2.486204
v    19.147308 339.668699 0.589630
v    20.713261 339.427198 0.589630
v    20.139430 340.904103 0.589630
v    20.852692 340.331301 0.860000
v    19.286739 340.572802 0.860000
v    19.860570 339.095897 0.860000
v    20.603865 340.938396 0.207213
v    21.512497 341.173189 1.283687
v    22.455401 341.433780 2.105073
v    22.821782 341.515894 2.418385
v    23.721467 341.740643 2.826631
v    24.746445 341.844164 3.267220
v    21.079018 339.715464 0.207213
v    21.907818 340.155726 1.283687
v    22.779317 340.600095 2.105073
v    23.105028 340.786884 2.418385
v    23.920447 341.228515 2.826631
v    24.746445 341.844164 3.267220
mtllib usm_11_2.5D_2018-07-28_8.mtl
usemtl APPID_2962644352_1982943033184 
o vid_3 
f 3 2 1
f 4 5 6
f 1 6 5
f 1 5 3
f 3 5 4
f 4 2 3
f 2 4 6
f 6 1 2
usemtl APPID_2962644464_1982943035488 
o vid_4 
f 7 15 16
f 8 16 17
f 9 17 18
f 10 18 19
f 11 19 20
f 12 20 21
f 7 16 8
f 8 17 9
f 9 18 10
f 10 19 11
f 11 20 12
f 12 21 13
f 13 21 22
usemtl APPID_2962644352_1982943033184 
o vid_5 
f 25 24 23
f 26 27 28
f 23 28 27
f 23 27 25
f 25 27 26
f 26 24 25
f 24 26 28
f 28 23 24
usemtl APPID_2962644464_1982943035488 
o vid_6 
f 29 37 38
f 30 38 39
f 31 39 40
f 32 40 41
f 33 41 42
f 34 42 43
f 29 38 30
f 30 39 31
f 31 40 32
f 32 41 33
f 33 42 34
f 34 43 35
f 35 43 44
usemtl APPID_2962644352_1982943033184 
o vid_7 
f 47 46 45
f 48 49 50
f 45 50 49
f 45 49 47
f 47 49 48
f 48 46 47
f 46 48 50
f 50 45 46
usemtl APPID_2962644464_1982943035488 
o vid_8 
f 51 57 58
f 52 58 59
f 53 59 60
f 54 60 61
f 51 58 52
f 52 59 53
f 53 60 54
f 54 61 55
f 55 61 62
