# File generated by PlantGL - Fri Sep  4 14:43:19 2026
v    58.328553 19.185783 0.000000
v    61.540856 18.959592 0.000000
v    60.130591 21.854624 0.000000
v    61.671447 20.814217 0.331061
v    58.459144 21.040408 0.331061
v    59.869409 18.145376 0.331061
v    61.263066 21.386935 -0.071093
v    62.266979 21.768274 0.946456
v    63.781404 22.326728 2.010061
v    64.965610 22.748493 2.326466
v    66.061763 22.996553 2.603556
v    66.230553 23.035107 2.567767
v    61.870677 20.139614 -0.071093
v    62.789786 20.695042 0.946456
v    64.163049 21.543275 2.010061
v    65.225127 22.215749 2.326466
v    66.096149 22.925964 2.603556
v    66.230553 23.035107 2.567767
v    61.162781 20.931450 0.331061
v    58.611950 20.541273 0.331061
v    60.225268 18.527277 0.331061
v    58.837219 19.068550 0.718770
v    61.388050 19.458727 0.718770
v    59.774732 21.472723 0.718770
v    59.615283 18.354285 0.163208
v    58.191503 17.411055 1.781465
v    57.492885 16.935128 2.312322
v    56.522302 16.303359 3.038247
v    55.417526 15.564514 3.373608
v    53.999890 14.669135 3.795596
v    52.373569 13.890822 3.537883
v    58.309993 19.983751 0.163208
v    57.078750 18.800166 1.781465
v    56.461818 18.222267 2.312322
v    55.633442 17.412973 3.038247
v    54.671282 16.496093 3.373608
v    53.488077 15.308060 3.795596
v    52.373569 13.890822 3.537883
v    58.934158 19.585882 0.718770
v    60.891558 19.284013 0.718770
v    60.174284 21.130105 0.718770
v    61.065842 20.414118 1.487000
v    59.108442 20.715987 1.487000
v    59.825716 18.869895 1.487000
v    60.340629 21.682162 0.737665
v    62.554285 22.319433 2.920351
v    64.099183 22.785883 3.933792
v    65.146657 23.078286 4.615484
v    67.388282 23.734205 5.204826
v    69.372400 24.258908 5.721343
v    71.986747 24.657281 5.173525
v    61.386988 18.989079 0.737665
v    63.450212 20.013529 2.920351
v    64.904775 20.712478 3.933792
v    65.874892 21.203980 4.615484
v    67.971337 22.233558 5.204826
v    69.789235 23.186074 5.721343
v    71.986747 24.657281 5.173525
v    60.798032 20.188779 1.487000
v    59.437496 20.596726 1.487000
v    59.764471 19.214494 1.487000
v    59.201968 19.811221 2.494924
v    60.562504 19.403274 2.494924
v    60.235529 20.785506 2.494924
v    59.892449 18.132244 1.508135
v    56.889456 17.702919 4.382484
v    56.190302 17.593726 4.826870
v    53.363540 17.212879 6.614782
v    51.928468 17.001325 6.980804
v    48.971774 16.644106 7.730339
v    47.589767 16.641982 8.071073
v    45.777384 16.635558 7.696434
v    59.067019 21.621612 1.508135
v    56.189947 20.659974 4.382484
v    55.515971 20.444345 4.826870
v    52.818174 19.518325 6.614782
v    51.440415 19.064488 6.980804
v    48.637042 18.059130 7.730339
v    47.400557 17.441834 8.071073
v    45.777384 16.635558 7.696434
v    59.657666 19.609080 2.494924
v    60.509713 19.898989 2.494924
v    59.832621 20.491930 2.494924
v    60.342334 20.390920 2.929000
v    59.490287 20.101011 2.929000
v    60.167379 19.508070 2.929000
v    59.158221 21.396868 0.384980
v    59.696196 21.721885 2.587662
v    60.481090 22.108394 5.558730
v    60.800028 22.332466 6.315646
v    62.713186 23.098249 9.986407
v    61.495720 19.349883 0.384980
v    61.746916 19.926037 2.587662
v    62.026487 20.755065 5.558730
v    62.206519 21.100780 6.315646
v    62.713186 23.098249 9.986407
mtllib usm_37_2.5D_2018-07-30_1.mtl
usemtl APPID_3043686384_2275079391728 
o vid_3 
f 3 2 1
f 4 5 6
f 1 6 5
f 1 5 3
f 3 5 4
f 4 2 3
f 2 4 6
f 6 1 2
usemtl APPID_3043685040_2275079391984 
o vid_4 
f 7 13 14
f 8 14 15
f 9 15 16
f 10 16 17
f 7 14 8
f 8 15 9
f 9 16 10
f 10 17 11
f 11 17 18
usemtl APPID_3043686384_2275079391728 
o vid_5 
f 21 20 19
f 22 23 24
f 19 24 23
f 19 23 21
f 21 23 22
f 22 20 21
f 20 22 24
f 24 19 20
usemtl APPID_3043685040_2275079391984 
o vid_6 
f 25 32 33
f 26 33 34
f 27 34 35
f 28 35 36
f 29 36 37
f 25 33 26
f 26 34 27
f 27 35 28
f 28 36 29
f 29 37 30
f 30 37 38
usemtl APPID_3043686384_2275079391728 
o vid_7 
f 41 40 39
f 42 43 44
f 39 44 43
f 39 43 41
f 41 43 42
f 42 40 41
f 40 42 44
f 44 39 40
usemtl APPID_3043685040_2275079391984 
o vid_8 
f 45 52 53
f 46 53 54
f 47 54 55
f 48 55 56
f 49 56 57
f 45 53 46
f 46 54 47
f 47 55 48
f 48 56 49
f 49 57 50
f 50 57 58
usemtl APPID_3043686384_2275079391728 
o vid_9 
f 61 60 59
f 62 63 64
f 59 64 63
f 59 63 61
f 61 63 62
f 62 60 61
f 60 62 64
f 64 59 60
usemtl APPID_3043685040_2275079391984 
o vid_10 
f 65 73 74
f 66 74 75
f 67 75 76
f 68 76 77
f 69 77 78
f 70 78 79
f 65 74 66
f 66 75 67
f 67 76 68
f 68 77 69
f 69 78 70
f 70 79 71
f 71 79 80
usemtl APPID_3043686384_2275079391728 
o vid_11 
f 83 82 81
f 84 85 86
f 81 86 85
f 81 85 83
f 83 85 84
f 84 82 83
f 82 84 86
f 86 81 82
usemtl APPID_3043685040_2275079391984 
o vid_12 
f 87 92 93
f 88 93 94
f 89 94 95
f 87 93 88
f 88 94 89
f 89 95 90
f 90 95 96
