# File generated by PlantGL - Wed Jul 15 17:35:57 2026
v    43.202167 59.124129 0.000000
v    46.657713 58.880811 0.000000
v    45.140660 61.995060 0.000000
v    46.798193 60.875871 3.802336
v    43.342647 61.119189 3.802336
v    44.859700 58.004940 3.802336
v    46.281721 61.647777 3.393010
v    47.693424 62.164644 4.711166
v    48.747152 62.566574 5.364995
v    49.840139 62.948012 6.034142
v    50.599247 63.223419 6.249622
v    51.574057 63.533807 6.521246
v    52.052073 63.610586 6.645578
v    52.605741 63.704918 6.641427
v    47.087636 59.993371 3.393010
v    48.364833 60.786356 4.711166
v    49.330863 61.368316 5.364995
v    50.304957 61.993821 6.034142
v    50.989749 62.421786 6.249622
v    51.835051 62.998033 6.521246
v    52.190168 63.327100 6.645578
v    52.605741 63.704918 6.641427
v    46.496076 61.198293 3.802336
v    43.214480 60.696338 3.802336
v    45.289984 58.105369 3.802336
v    43.504284 58.801707 8.830044
v    46.785880 59.303662 8.830044
v    44.710376 61.894631 8.830044
v    44.463843 57.879332 8.271688
v    43.874255 57.485599 8.894250
v    42.747758 56.758687 10.069768
v    40.754613 55.434292 11.457127
v    40.142136 55.052129 11.874422
v    38.409510 53.941284 12.423620
v    37.484018 53.398598 12.708475
v    35.858123 52.676726 12.695227
v    42.813578 59.939449 8.271688
v    42.300655 59.450013 8.894250
v    41.345400 58.509329 10.069768
v    39.617912 56.853300 11.457127
v    39.111284 56.339000 11.874422
v    37.649058 54.890598 12.423620
v    36.917459 54.105866 12.708475
v    35.858123 52.676726 12.695227
v    43.291301 59.336039 8.830044
v    46.429626 58.852048 8.830044
v    45.279613 61.811913 8.830044
v    46.709059 60.663961 19.748581
v    43.570734 61.147952 19.748581
v    44.720747 58.188087 19.748581
v    45.805290 62.358588 19.007223
v    48.415147 63.120368 21.394627
v    52.385264 64.269398 23.790759
v    53.565575 64.622894 24.120320
v    56.378625 65.387270 24.898174
v    57.264025 65.631251 24.891138
v    59.130381 66.069089 24.876519
v    60.443049 66.182310 24.866780
v    61.023557 66.225656 24.701970
v    47.186496 58.803689 19.007223
v    49.626051 60.003786 21.394627
v    53.330494 61.836598 23.790759
v    54.439849 62.372718 24.120320
v    57.031048 63.708088 24.898174
v    57.848913 64.125886 24.891138
v    59.521293 65.062974 24.876519
v    60.566063 65.865702 24.866780
v    61.023557 66.225656 24.701970
v    46.703180 60.402854 19.748581
v    43.799798 61.273414 19.748581
v    44.497562 58.323732 19.748581
v    43.297180 59.597146 37.029934
v    46.200562 58.726586 37.029934
v    45.502798 61.676268 37.029934
v    44.166364 57.206712 36.071815
v    40.689910 56.696587 39.157256
v    35.405874 55.922100 42.253978
v    32.922091 55.539866 42.926153
v    30.100502 55.179528 43.685182
v    27.976693 54.900596 43.668771
v    25.509667 54.672665 43.649877
v    23.096425 54.818540 43.161917
v    43.003232 62.123654 36.071815
v    39.666680 61.022123 39.157256
v    34.595679 59.347066 42.253978
v    32.203886 58.575955 42.926153
v    29.519902 57.633918 43.685182
v    27.496215 56.931736 43.668771
v    25.188538 56.030183 43.649877
v    23.096425 54.818540 43.161917
v    43.908173 58.753012 37.029934
v    46.626107 59.677788 37.029934
v    44.466260 61.569200 37.029934
v    46.092187 61.246988 60.258115
v    43.374253 60.322212 60.258115
v    45.534100 58.430800 60.258115
v    43.087450 63.384078 59.052842
v    46.272612 66.448091 62.934197
v    51.061308 71.150956 66.829741
v    55.874726 75.854604 68.630136
v    58.682708 78.603005 68.599964
v    60.675962 80.459405 68.579095
v    63.265664 82.850463 67.541649
v    65.542791 84.789897 66.665724
v    67.383766 85.932609 66.052266
v    68.051611 86.322957 65.646095
v    48.607039 58.550487 59.052842
v    51.224015 62.112069 62.934197
v    55.253947 67.479395 66.829741
v    59.281393 72.871332 68.630136
v    61.635281 76.017390 68.599964
v    63.212462 78.238151 68.579095
v    65.240932 81.120690 67.541649
v    66.862967 83.633798 66.665724
v    67.752791 85.609448 66.052266
v    68.051611 86.322957 65.646095
v    46.118880 60.714258 60.258115
v    43.822264 60.611694 60.258115
v    45.059396 58.674048 60.258115
v    43.881480 59.285742 121.181730
v    46.178096 59.388306 121.181730
v    44.940964 61.325952 121.181730
v    46.643391 55.805886 119.705936
v    41.846956 53.298806 124.458454
v    34.607422 49.409170 129.228348
v    27.330859 45.539128 131.432839
v    24.150147 43.837085 131.405138
v    20.093997 41.794372 131.370342
v    17.266806 40.385875 130.440655
v    13.925875 38.885289 129.368130
v    10.378961 37.895340 128.325554
v    41.886982 63.255569 119.705936
v    37.594292 59.959502 124.458454
v    31.019334 55.028979 129.228348
v    24.446569 50.056621 131.432839
v    21.564083 47.887484 131.405138
v    18.004164 45.067554 131.370342
v    15.536732 43.095587 130.440655
v    12.769575 40.696333 129.368130
v    10.378961 37.895340 128.325554
v    44.170144 59.401957 121.181730
v    45.933118 59.580189 121.181730
v    44.897278 61.017853 121.181730
v    45.830216 60.598043 170.738969
v    44.067242 60.419811 170.738969
v    45.103082 58.982147 170.738969
v    42.458617 64.349395 168.980069
v    47.998545 67.653386 174.644274
v    53.587848 71.073671 178.447499
v    56.379273 72.729735 180.329188
v    64.780273 77.820081 182.956571
v    73.198146 82.681326 182.882086
v    77.095512 84.702945 181.596317
v    81.249996 86.118078 180.353742
v    48.321385 56.212339 168.980069
v    53.209129 60.421510 174.644274
v    58.222816 64.640704 178.447499
v    60.677340 66.764359 180.329188
v    68.165247 73.122007 182.956571
v    75.441174 79.568182 182.882086
v    78.592539 82.625190 181.596317
v    81.249996 86.118078 180.353742
v    45.624335 60.406491 170.738969
v    44.336071 60.337288 170.738969
v    45.040134 59.256221 170.738969
v    44.376025 59.593509 206.334725
v    45.664289 59.662712 206.334725
v    44.960226 60.743779 206.334725
v    47.677106 55.678173 204.294252
v    42.747351 53.044414 209.202254
v    41.060670 52.177138 210.865210
v    31.014858 46.839884 217.460192
v    20.884509 41.641968 220.499117
v    16.105275 39.409039 220.468212
v    11.038898 37.882148 220.429098
v    42.129825 64.195853 204.294252
v    37.727638 60.752029 209.202254
v    36.252417 59.560063 210.865210
v    27.308932 52.530220 217.460192
v    18.458703 45.366718 220.499117
v    14.483981 41.898487 220.468212
v    11.038898 37.882148 220.429098
v    44.569312 59.761024 206.334725
v    45.422573 59.746345 206.334725
v    45.008655 60.492631 206.334725
v    45.431048 60.238976 220.996000
v    44.577787 60.253655 220.996000
v    44.991705 59.507369 220.996000
v    42.692756 63.416187 216.284967
v    45.170365 64.384074 220.069551
v    48.800850 65.626459 225.492698
v    52.575838 67.071545 229.350607
v    56.693991 68.403872 233.445078
v    59.274806 68.716446 235.766810
v    61.445559 69.121241 236.916816
v    46.676421 56.233735 216.284967
v    48.809368 57.823039 220.069551
v    51.785613 60.245002 225.492698
v    55.010327 62.682221 229.350607
v    58.321088 65.470254 233.445078
v    59.952770 67.494094 235.766810
v    61.445559 69.121241 236.916816
mtllib usm_3_2.5D_2018-08-29_3.mtl
usemtl APPID_475212864_1916051229200 
o vid_3 
f 3 2 1
f 4 5 6
f 1 6 5
f 1 5 3
f 3 5 4
f 4 2 3
f 2 4 6
f 6 1 2
usemtl APPID_475210512_1916051225488 
o vid_4 
f 7 15 16
f 8 16 17
f 9 17 18
f 10 18 19
f 11 19 20
f 12 20 21
f 7 16 8
f 8 17 9
f 9 18 10
f 10 19 11
f 11 20 12
f 12 21 13
f 13 21 22
usemtl APPID_475212864_1916051229200 
o vid_5 
f 25 24 23
f 26 27 28
f 23 28 27
f 23 27 25
f 25 27 26
f 26 24 25
f 24 26 28
f 28 23 24
usemtl APPID_475210512_1916051225488 
o vid_6 
f 29 37 38
f 30 38 39
f 31 39 40
f 32 40 41
f 33 41 42
f 34 42 43
f 29 38 30
f 30 39 31
f 31 40 32
f 32 41 33
f 33 42 34
f 34 43 35
f 35 43 44
usemtl APPID_475212864_1916051229200 
o vid_7 
f 47 46 45
f 48 49 50
f 45 50 49
f 45 49 47
f 47 49 48
f 48 46 47
f 46 48 50
f 50 45 46
usemtl APPID_475210512_1916051225488 
o vid_8 
f 51 60 61
f 52 61 62
f 53 62 63
f 54 63 64
f 55 64 65
f 56 65 66
f 57 66 67
f 51 61 52
f 52 62 53
f 53 63 54
f 54 64 55
f 55 65 56
f 56 66 57
f 57 67 58
f 58 67 68
usemtl APPID_475212864_1916051229200 
o vid_9 
f 71 70 69
f 72 73 74
f 69 74 73
f 69 73 71
f 71 73 72
f 72 70 71
f 70 72 74
f 74 69 70
usemtl APPID_475210512_1916051225488 
o vid_10 
f 75 83 84
f 76 84 85
f 77 85 86
f 78 86 87
f 79 87 88
f 80 88 89
f 75 84 76
f 76 85 77
f 77 86 78
f 78 87 79
f 79 88 80
f 80 89 81
f 81 89 90
usemtl APPID_475212864_1916051229200 
o vid_11 
f 93 92 91
f 94 95 96
f 91 96 95
f 91 95 93
f 93 95 94
f 94 92 93
f 92 94 96
f 96 91 92
usemtl APPID_475210512_1916051225488 
o vid_12 
f 97 107 108
f 98 108 109
f 99 109 110
f 100 110 111
f 101 111 112
f 102 112 113
f 103 113 114
f 104 114 115
f 97 108 98
f 98 109 99
f 99 110 100
f 100 111 101
f 101 112 102
f 102 113 103
f 103 114 104
f 104 115 105
f 105 115 116
usemtl APPID_475212864_1916051229200 
o vid_13 
f 119 118 117
f 120 121 122
f 117 122 121
f 117 121 119
f 119 121 120
f 120 118 119
f 118 120 122
f 122 117 118
usemtl APPID_475210512_1916051225488 
o vid_14 
f 123 132 133
f 124 133 134
f 125 134 135
f 126 135 136
f 127 136 137
f 128 137 138
f 129 138 139
f 123 133 124
f 124 134 125
f 125 135 126
f 126 136 127
f 127 137 128
f 128 138 129
f 129 139 130
f 130 139 140
usemtl APPID_475212864_1916051229200 
o vid_15 
f 143 142 141
f 144 145 146
f 141 146 145
f 141 145 143
f 143 145 144
f 144 142 143
f 142 144 146
f 146 141 142
usemtl APPID_475210512_1916051225488 
o vid_16 
f 147 155 156
f 148 156 157
f 149 157 158
f 150 158 159
f 151 159 160
f 152 160 161
f 147 156 148
f 148 157 149
f 149 158 150
f 150 159 151
f 151 160 152
f 152 161 153
f 153 161 162
usemtl APPID_475212864_1916051229200 
o vid_17 
f 165 164 163
f 166 167 168
f 163 168 167
f 163 167 165
f 165 167 166
f 166 164 165
f 164 166 168
f 168 163 164
usemtl APPID_475210512_1916051225488 
o vid_18 
f 169 176 177
f 170 177 178
f 171 178 179
f 172 179 180
f 173 180 181
f 169 177 170
f 170 178 171
f 171 179 172
f 172 180 173
f 173 181 174
f 174 181 182
usemtl APPID_475212864_1916051229200 
o vid_19 
f 185 184 183
f 186 187 188
f 183 188 187
f 183 187 185
f 185 187 186
f 186 184 185
f 184 186 188
f 188 183 184
usemtl APPID_475210512_1916051225488 
o vid_20 
f 189 196 197
f 190 197 198
f 191 198 199
f 192 199 200
f 193 200 201
f 189 197 190
f 190 198 191
f 191 199 192
f 192 200 193
f 193 201 194
f 194 201 202
