# File generated by PlantGL - Fri Sep  4 14:41:30 2026
v    177.752484 18.905161 0.000000
v    182.071916 18.601013 0.000000
v    180.175600 22.493825 0.000000
v    182.247516 21.094839 0.848018
v    177.928084 21.398987 0.848018
v    179.824400 17.506175 0.848018
v    182.062184 21.449156 0.688716
v    182.418649 21.585061 1.043219
v    182.540278 21.629160 1.163250
v    183.209568 21.881186 1.644646
v    183.981245 22.182418 1.910172
v    184.615108 22.401288 2.124254
v    185.179233 22.522974 2.117831
v    182.412266 20.730496 0.688716
v    182.739014 20.927406 1.043219
v    182.848714 20.995994 1.163250
v    183.459730 21.367647 1.644646
v    184.172605 21.789589 1.910172
v    184.735676 22.153785 2.124254
v    185.179233 22.522974 2.117831
v    181.879284 21.505407 0.848018
v    177.756638 20.874804 0.848018
v    180.364078 17.619789 0.848018
v    178.120716 18.494593 1.416666
v    182.243362 19.125196 1.416666
v    179.635922 22.380211 1.416666
v    178.493117 18.055620 1.191176
v    177.952793 17.696709 1.793949
v    177.044720 17.099981 2.544278
v    175.956020 16.364314 2.965444
v    175.269751 15.939242 3.223156
v    174.402572 15.516162 3.212368
v    177.773606 18.953827 1.191176
v    177.305418 18.504865 1.793949
v    176.524880 17.748926 2.544278
v    175.569331 16.847040 2.965444
v    175.004722 16.270092 3.223156
v    174.402572 15.516162 3.212368
v    178.160706 19.285368 1.416666
v    181.538536 18.764441 1.416666
v    180.300758 21.950191 1.416666
v    181.839294 20.714632 2.253758
v    178.461464 21.235559 2.253758
v    179.699242 18.049809 2.253758
v    181.552143 21.391606 1.940857
v    182.520583 21.657712 2.872938
v    183.871608 22.042433 3.818495
v    184.729011 22.297781 4.105250
v    186.059680 22.637218 4.543665
v    186.753171 22.714462 4.760542
v    187.095042 22.756678 4.756715
v    182.084529 20.021371 1.940857
v    182.978589 20.478913 2.872938
v    184.234957 21.107259 3.818495
v    185.039844 21.497769 4.105250
v    186.250623 22.145776 4.543665
v    186.814348 22.557005 4.760542
v    187.095042 22.756678 4.756715
v    181.505757 20.356196 2.253758
v    178.938647 21.125926 2.253758
v    179.555596 18.517878 2.253758
v    178.494243 19.643804 4.113040
v    181.061353 18.874074 4.113040
v    180.444404 21.482122 4.113040
v    178.763221 18.639613 3.687377
v    178.075549 18.540438 4.333007
v    177.410131 18.455597 4.955355
v    175.517631 18.190600 6.241667
v    173.746869 17.920887 6.815801
v    171.890289 17.713086 7.412209
v    170.444802 17.739663 7.511107
v    178.284795 20.662078 3.687377
v    177.625573 20.442638 4.333007
v    176.992668 20.220352 4.955355
v    175.182018 19.609348 6.241667
v    173.478090 19.057104 6.815801
v    171.725180 18.411058 7.412209
v    170.444802 17.739663 7.511107
v    179.242260 19.134720 4.113040
v    181.128224 19.776418 4.113040
v    179.629515 21.088862 4.113040
v    180.757740 20.865280 6.000766
v    178.871776 20.223582 6.000766
v    180.370485 18.911138 6.000766
v    179.636854 21.792635 5.433090
v    180.862804 22.963704 7.008533
v    182.804352 24.801019 8.839565
v    185.236374 27.161298 9.925868
v    186.689113 28.463310 10.548660
v    188.715130 29.952006 10.520527
v    181.824877 19.876549 5.433090
v    182.823957 21.246292 7.008533
v    184.389041 23.413281 8.839565
v    186.407805 26.135457 9.925868
v    187.506760 27.747283 10.548660
v    188.715130 29.952006 10.520527
v    180.658943 20.420717 6.000766
v    179.306177 20.360303 6.000766
v    180.034880 19.218980 6.000766
v    179.341057 19.579283 9.605000
v    180.693823 19.639697 9.605000
v    179.965120 20.781020 9.605000
v    180.117970 18.334135 8.121880
v    178.316678 17.481702 10.689990
v    176.638344 16.646008 12.456571
v    175.670366 16.224927 13.444387
v    174.079015 15.477755 14.341302
v    171.889448 14.821644 15.472408
v    178.538457 20.808033 8.121880
v    177.007169 19.532708 10.689990
v    175.542808 18.361881 12.456571
v    174.753489 17.660977 13.444387
v    173.406034 16.531806 14.341302
v    171.889448 14.821644 15.472408
mtllib usm_38_Beer_2018-07-19_4.mtl
usemtl APPID_306822368_1529319820800 
o vid_3 
f 3 2 1
f 4 5 6
f 1 6 5
f 1 5 3
f 3 5 4
f 4 2 3
f 2 4 6
f 6 1 2
usemtl APPID_306825168_1529319815680 
o vid_4 
f 7 14 15
f 8 15 16
f 9 16 17
f 10 17 18
f 11 18 19
f 7 15 8
f 8 16 9
f 9 17 10
f 10 18 11
f 11 19 12
f 12 19 20
usemtl APPID_306822368_1529319820800 
o vid_5 
f 23 22 21
f 24 25 26
f 21 26 25
f 21 25 23
f 23 25 24
f 24 22 23
f 22 24 26
f 26 21 22
usemtl APPID_306825168_1529319815680 
o vid_6 
f 27 33 34
f 28 34 35
f 29 35 36
f 30 36 37
f 27 34 28
f 28 35 29
f 29 36 30
f 30 37 31
f 31 37 38
usemtl APPID_306822368_1529319820800 
o vid_7 
f 41 40 39
f 42 43 44
f 39 44 43
f 39 43 41
f 41 43 42
f 42 40 41
f 40 42 44
f 44 39 40
usemtl APPID_306825168_1529319815680 
o vid_8 
f 45 52 53
f 46 53 54
f 47 54 55
f 48 55 56
f 49 56 57
f 45 53 46
f 46 54 47
f 47 55 48
f 48 56 49
f 49 57 50
f 50 57 58
usemtl APPID_306822368_1529319820800 
o vid_9 
f 61 60 59
f 62 63 64
f 59 64 63
f 59 63 61
f 61 63 62
f 62 60 61
f 60 62 64
f 64 59 60
usemtl APPID_306825168_1529319815680 
o vid_10 
f 65 72 73
f 66 73 74
f 67 74 75
f 68 75 76
f 69 76 77
f 65 73 66
f 66 74 67
f 67 75 68
f 68 76 69
f 69 77 70
f 70 77 78
usemtl APPID_306822368_1529319820800 
o vid_11 
f 81 80 79
f 82 83 84
f 79 84 83
f 79 83 81
f 81 83 82
f 82 80 81
f 80 82 84
f 84 79 80
usemtl APPID_306825168_1529319815680 
o vid_12 
f 85 91 92
f 86 92 93
f 87 93 94
f 88 94 95
f 85 92 86
f 86 93 87
f 87 94 88
f 88 95 89
f 89 95 96
usemtl APPID_306822368_1529319820800 
o vid_13 
f 99 98 97
f 100 101 102
f 97 102 101
f 97 101 99
f 99 101 100
f 100 98 99
f 98 100 102
f 102 97 98
usemtl APPID_306825168_1529319815680 
o vid_14 
f 103 109 110
f 104 110 111
f 105 111 112
f 106 112 113
f 103 110 104
f 104 111 105
f 105 112 106
f 106 113 107
f 107 113 114
