# File generated by PlantGL - Fri Sep  4 14:42:33 2026
v    179.175109 19.598169 0.000000
v    180.760442 19.486539 0.000000
v    180.064449 20.915292 0.000000
v    180.824891 20.401831 0.592000
v    179.239558 20.513461 0.592000
v    179.935551 19.084708 0.592000
v    180.716524 20.660222 0.280040
v    181.075242 20.775956 0.854869
v    181.169186 20.808977 0.964945
v    181.624476 20.940917 1.484727
v    182.097614 21.021816 1.770678
v    180.961551 20.157223 0.280040
v    181.273805 20.368341 0.854869
v    181.357715 20.421959 0.964945
v    181.742258 20.699130 1.484727
v    182.097614 21.021816 1.770678
mtllib usm_38_2.5D_2018-07-06_4.mtl
usemtl APPID_306837824_1529319793280 
o vid_3 
f 3 2 1
f 4 5 6
f 1 6 5
f 1 5 3
f 3 5 4
f 4 2 3
f 2 4 6
f 6 1 2
usemtl APPID_306838384_1529319793920 
o vid_4 
f 7 12 13
f 8 13 14
f 9 14 15
f 7 13 8
f 8 14 9
f 9 15 10
f 10 15 16
