# File generated by PlantGL - Fri Sep  4 14:43:53 2026
v    18.612127 139.323921 0.000000
v    21.279438 139.136106 0.000000
v    20.108435 141.539973 0.000000
v    21.387873 140.676079 0.331061
v    18.720562 140.863894 0.331061
v    19.891565 138.460027 0.331061
v    20.985802 141.244436 -0.058081
v    22.104118 141.669232 1.075425
v    23.420773 142.157692 1.955736
v    23.678157 142.256746 2.025325
v    24.784892 142.649796 2.320906
v    25.612168 142.837009 2.530028
v    26.010812 142.928064 2.445502
v    21.587559 140.009132 -0.058081
v    22.611407 140.627855 1.075425
v    23.807646 141.363508 1.955736
v    24.044301 141.505116 2.025325
v    25.036012 142.134289 2.320906
v    25.693380 142.670294 2.530028
v    26.010812 142.928064 2.445502
v    20.925649 140.741494 0.331061
v    18.895023 140.430888 0.331061
v    20.179328 138.827618 0.331061
v    19.074351 139.258506 0.718770
v    21.104977 139.569112 0.718770
v    19.820672 141.172382 0.718770
v    19.843440 138.548198 0.178873
v    18.459805 137.631564 1.751500
v    17.559163 137.018011 2.435869
v    16.841209 136.550683 2.972846
v    15.511912 135.661683 3.376362
v    14.190794 134.827265 3.769619
v    12.551608 134.033441 3.392763
v    18.549029 140.164084 0.178873
v    17.352503 139.013871 1.751500
v    16.557169 138.268857 2.435869
v    15.944407 137.670211 2.972846
v    14.786709 136.566995 3.376362
v    13.684061 135.459848 3.769619
v    12.551608 134.033441 3.392763
v    19.206557 139.691719 0.718770
v    20.663701 139.466999 0.718770
v    20.129742 140.841282 0.718770
v    20.793443 140.308281 1.261306
v    19.336299 140.533001 1.261306
v    19.870258 139.158718 1.261306
v    20.116083 141.467723 0.530202
v    22.275883 142.089489 2.659784
v    22.749907 142.232611 2.970740
v    24.813434 142.808646 4.313675
v    25.812869 143.101090 4.576435
v    27.946058 143.665215 5.131760
v    28.993814 143.812691 5.392630
v    30.289003 143.997647 5.122186
v    21.076566 138.995664 0.530202
v    23.089593 139.995191 2.659784
v    23.535900 140.209650 2.970740
v    25.447032 141.177912 4.313675
v    26.381738 141.636952 4.576435
v    28.336218 142.661033 5.131760
v    29.208695 143.259637 5.392630
v    30.289003 143.997647 5.122186
v    20.524929 140.124175 1.261306
v    19.629997 140.392514 1.261306
v    19.845074 139.483311 1.261306
v    19.475071 139.875825 1.413000
v    20.370003 139.607486 1.413000
v    20.154926 140.516689 1.413000
v    19.735730 138.821058 -0.522682
v    19.580475 138.834063 0.037686
v    18.762069 138.975565 2.928040
v    18.607228 139.059298 3.425272
v    17.349303 139.372962 5.769306
v    19.235526 140.935587 -0.522682
v    19.102553 140.854399 0.037686
v    18.434285 140.361216 2.928040
v    18.333371 140.216983 3.425272
v    17.349303 139.372962 5.769306
mtllib usm_11_2.5D_2018-07-24_3.mtl
usemtl APPID_2962620944_1982943010912 
o vid_3 
f 3 2 1
f 4 5 6
f 1 6 5
f 1 5 3
f 3 5 4
f 4 2 3
f 2 4 6
f 6 1 2
usemtl APPID_2962625536_1982943010784 
o vid_4 
f 7 14 15
f 8 15 16
f 9 16 17
f 10 17 18
f 11 18 19
f 7 15 8
f 8 16 9
f 9 17 10
f 10 18 11
f 11 19 12
f 12 19 20
usemtl APPID_2962620944_1982943010912 
o vid_5 
f 23 22 21
f 24 25 26
f 21 26 25
f 21 25 23
f 23 25 24
f 24 22 23
f 22 24 26
f 26 21 22
usemtl APPID_2962625536_1982943010784 
o vid_6 
f 27 34 35
f 28 35 36
f 29 36 37
f 30 37 38
f 31 38 39
f 27 35 28
f 28 36 29
f 29 37 30
f 30 38 31
f 31 39 32
f 32 39 40
usemtl APPID_2962620944_1982943010912 
o vid_7 
f 43 42 41
f 44 45 46
f 41 46 45
f 41 45 43
f 43 45 44
f 44 42 43
f 42 44 46
f 46 41 42
usemtl APPID_2962625536_1982943010784 
o vid_8 
f 47 55 56
f 48 56 57
f 49 57 58
f 50 58 59
f 51 59 60
f 52 60 61
f 47 56 48
f 48 57 49
f 49 58 50
f 50 59 51
f 51 60 52
f 52 61 53
f 53 61 62
usemtl APPID_2962620944_1982943010912 
o vid_9 
f 65 64 63
f 66 67 68
f 63 68 67
f 63 67 65
f 65 67 66
f 66 64 65
f 64 66 68
f 68 63 64
usemtl APPID_2962625536_1982943010784 
o vid_10 
f 69 74 75
f 70 75 76
f 71 76 77
f 69 75 70
f 70 76 71
f 71 77 72
f 72 77 78
