# File generated by PlantGL - Fri Sep  4 14:41:50 2026
v    97.752484 18.905161 0.000000
v    102.071916 18.601013 0.000000
v    100.175600 22.493825 0.000000
v    102.247516 21.094839 0.848018
v    97.928084 21.398987 0.848018
v    99.824400 17.506175 0.848018
v    102.062184 21.449156 0.688716
v    102.418649 21.585061 1.043219
v    102.463190 21.601210 1.087175
v    102.412266 20.730496 0.688716
v    102.739014 20.927406 1.043219
v    102.779187 20.952523 1.087175
v    101.879284 21.505407 0.848018
v    97.756638 20.874804 0.848018
v    100.364078 17.619789 0.848018
v    98.120716 18.494593 1.416666
v    102.243362 19.125196 1.416666
v    99.635922 22.380211 1.416666
v    98.493117 18.055620 1.191176
v    98.179227 17.847118 1.541345
v    97.773606 18.953827 1.191176
v    97.501621 18.693011 1.541345
v    97.841416 19.161313 1.416666
v    101.805616 18.549955 1.416666
v    100.352968 22.288732 1.416666
v    102.158584 20.838687 2.253758
v    98.194384 21.450045 2.253758
v    99.647032 17.711268 2.253758
v    101.871433 21.515662 1.940857
v    102.050431 21.567430 2.114007
v    102.260965 21.624591 2.316404
v    102.403819 20.145427 1.940857
v    102.570813 20.228089 2.114007
v    102.764712 20.328065 2.316404
v    102.163962 20.511898 2.253758
v    98.474702 21.618097 2.253758
v    99.361335 17.870005 2.253758
v    97.836038 19.488102 4.113040
v    101.525298 18.381903 4.113040
v    100.638665 22.129995 4.113040
v    98.105016 18.483911 3.687377
v    97.417344 18.384736 4.333007
v    97.076636 18.341295 4.651663
v    97.626590 20.506376 3.687377
v    96.967368 20.286935 4.333007
v    96.643307 20.173121 4.651663
v    98.595695 18.396392 4.113040
v    102.090917 19.585640 4.113040
v    99.313387 22.017967 4.113040
v    101.404305 21.603608 6.000766
v    97.909083 20.414360 6.000766
v    100.686613 17.982033 6.000766
v    100.283419 22.530963 5.433090
v    100.584405 22.818475 5.819880
v    102.471442 20.614877 5.433090
v    102.716728 20.951165 5.819880
v    101.718982 21.097521 6.000766
v    98.190028 20.939922 6.000766
v    100.090990 17.962557 6.000766
v    98.281018 18.902479 12.885860
v    101.809972 19.060078 12.885860
v    99.909010 22.037443 12.885860
v    99.368598 17.298169 12.143674
v    97.698014 16.430199 13.893090
v    97.283338 20.564188 12.143674
v    95.792959 19.413974 13.893090
v    98.420020 18.861621 12.885860
v    101.775855 19.200887 12.885860
v    99.804125 21.937492 12.885860
v    101.579980 21.138379 19.685705
v    98.224145 20.799113 19.685705
v    100.195875 18.062508 19.685705
v    100.091978 23.086676 18.734440
v    102.668485 24.614693 21.518040
v    106.397472 26.804756 24.442732
v    106.686221 26.979107 24.550849
v    102.957063 19.110166 18.734440
v    105.222094 21.070487 21.518040
v    108.479941 23.914455 24.442732
v    108.736729 24.133164 24.550849
v    101.554633 21.012481 19.685705
v    98.345849 20.840111 19.685705
v    100.099518 18.147408 19.685705
v    98.445367 18.987519 30.882667
v    101.654151 19.159889 30.882667
v    99.900482 21.852592 30.882667
v    100.238006 16.392358 29.687393
v    96.854032 14.595156 33.247915
v    96.096735 14.182800 33.829064
v    92.111439 12.087202 36.859917
v    86.845363 9.236718 38.779288
v    96.796670 21.676425 29.687393
v    93.784636 19.308120 33.247915
v    93.101282 18.782228 33.829064
v    89.573189 15.984607 36.859917
v    84.836794 12.320813 38.779288
v    98.458123 19.144816 30.882667
v    101.511550 19.092287 30.882667
v    100.030327 21.762897 30.882667
v    101.541877 20.855184 48.444344
v    98.488450 20.907713 48.444344
v    99.969673 18.237103 48.444344
v    99.440360 24.426043 46.971997
v    103.755056 26.339135 51.357873
v    107.711742 28.142994 54.288593
v    109.777858 29.048943 55.807162
v    122.375434 34.754418 60.239933
v    123.770569 35.346288 60.222661
v    103.458354 17.181695 46.971997
v    107.365855 19.828951 51.357873
v    110.991129 22.230338 54.288593
v    112.853650 23.503363 55.807162
v    124.364003 31.169075 60.239933
v    125.604808 32.039199 60.222661
v    101.614895 20.429572 48.444344
v    98.820532 21.183754 48.444344
v    99.564573 18.386674 48.444344
v    98.385105 19.570428 69.931697
v    101.179468 18.816246 69.931697
v    100.435427 21.613326 69.931697
v    99.815054 14.691801 68.153705
v    94.198529 13.722301 73.450046
v    88.026623 12.590662 77.679033
v    86.350775 12.308474 78.822963
v    69.916964 9.337487 84.175934
v    63.442847 8.327202 84.101255
v    97.202091 24.514741 68.153705
v    91.846182 22.565506 73.450046
v    85.927734 20.481037 77.679033
v    84.333171 19.893275 78.822963
v    68.595210 14.306373 84.175934
v    62.474789 11.966433 84.101255
v    98.541706 19.394647 69.931697
v    101.253398 19.039757 69.931697
v    100.204896 21.565597 69.931697
v    101.458294 20.605353 94.018022
v    98.746602 20.960243 94.018022
v    99.795104 18.434403 94.018022
v    99.030282 26.059924 91.913148
v    105.467512 28.082340 98.183217
v    111.949989 30.193345 102.777995
v    114.456098 30.969395 104.543942
v    133.270121 37.044455 110.881053
v    142.023939 39.597185 110.777180
v    103.606922 15.034807 91.913148
v    109.584011 18.165703 98.183217
v    115.655782 21.266097 102.777995
v    117.974745 22.492984 104.543942
v    135.560177 31.527716 110.881053
v    143.548393 35.924778 110.777180
v    101.148136 20.944713 94.018022
v    98.607786 20.521958 94.018022
v    100.244078 18.533328 94.018022
v    98.851864 19.055287 114.176685
v    101.392214 19.478042 114.176685
v    99.755922 21.466672 114.176685
v    103.051995 14.227020 111.733819
v    96.586419 9.808908 119.010707
v    87.517033 3.645632 126.392808
v    73.868779 -5.840081 131.720352
v    68.514943 -9.254225 133.747503
v    64.746169 -11.688125 133.696427
v    94.922831 24.106620 111.733819
v    89.342287 18.612903 119.010707
v    81.547807 10.900199 126.392808
v    69.611289 -0.665835 131.720352
v    65.230018 -5.261964 133.747503
v    62.115891 -8.491475 133.696427
v    99.036323 18.991726 114.176685
v    101.355030 19.669568 114.176685
v    99.608648 21.338706 114.176685
v    100.963677 21.008274 134.519744
v    98.644970 20.330432 134.519744
v    100.391352 18.661294 134.519744
v    95.476253 25.976715 131.740352
v    102.180752 31.844639 140.019695
v    104.323264 33.759556 141.956362
v    111.573601 40.052755 148.418746
v    127.032795 53.800772 155.049947
v    131.238018 57.251651 156.786615
v    136.696026 61.783277 156.705852
v    138.507009 62.919401 156.682099
v    106.175115 15.751075 131.740352
v    111.733941 22.713998 140.019695
v    113.550041 24.940889 141.956362
v    119.509031 32.468317 148.418746
v    132.544110 48.533229 155.049947
v    135.801349 52.890160 156.786615
v    140.081596 58.547455 156.705852
v    141.134687 60.407948 156.682099
v    100.912312 20.929805 134.519744
v    98.738610 20.325183 134.519744
v    100.349079 18.745013 134.519744
v    99.087688 19.070195 147.351462
v    101.261390 19.674817 147.351462
v    99.650921 21.254987 147.351462
v    104.684149 13.891112 144.251353
v    100.372298 10.216033 149.516050
v    97.070476 7.494116 153.486058
v    86.441243 -1.490215 162.854283
v    75.984903 -10.546354 167.288182
v    65.354763 -19.038789 171.631828
v    61.563844 -21.323303 172.158423
v    93.803259 24.567292 144.251353
v    90.210727 20.186426 149.516050
v    87.552005 16.833508 153.486058
v    78.771152 6.035572 162.854283
v    69.915220 -4.590864 167.288182
v    61.626191 -15.380365 171.631828
v    59.414081 -19.213985 172.158423
v    99.229585 19.146381 147.351462
v    101.124463 19.759610 147.351462
v    99.645952 21.094009 147.351462
v    100.770415 20.853619 158.601298
v    98.875537 20.240390 158.601298
v    100.354048 18.905991 158.601298
v    94.269179 26.393051 155.211445
v    100.489666 32.159417 163.093405
v    113.470753 44.054060 175.553056
v    126.647805 56.464667 181.355131
v    137.056694 65.516219 185.758831
v    144.511997 70.676590 185.657682
v    106.945248 14.952532 155.211445
v    112.045711 21.729752 163.093405
v    122.551454 35.858465 175.553056
v    133.550433 50.234846 181.355131
v    141.490841 61.514273 185.758831
v    145.862287 69.457914 185.657682
v    100.871272 20.169613 158.601298
v    99.417475 20.669737 158.601298
v    99.711253 19.160650 158.601298
v    99.128728 19.830387 164.915530
v    100.582525 19.330263 164.915530
v    100.288747 20.839350 164.915530
v    101.012495 11.520288 161.281724
v    89.395255 10.477253 172.106225
v    73.161755 8.863185 183.087233
v    63.112199 7.741698 186.328445
v    47.204632 6.603247 191.419871
v    38.833989 7.168195 194.027474
v    35.138946 7.373306 193.986357
v    97.757566 28.240276 161.281724
v    86.597431 24.849172 172.106225
v    70.943939 20.255705 183.087233
v    61.207576 17.525408 186.328445
v    46.034632 12.613324 191.419871
v    38.487206 8.949558 194.027474
v    35.138946 7.373306 193.986357
v    99.495385 19.583709 164.915530
v    100.612827 19.771136 164.915530
v    99.891789 20.645155 164.915530
v    100.504615 20.416291 168.662929
v    99.387173 20.228864 168.662929
v    100.108211 19.354845 168.662929
v    94.903897 26.774103 164.844194
v    105.130770 33.537618 176.219568
v    119.312810 43.169769 187.759413
v    122.809844 45.606885 189.125681
v    136.929423 54.636341 194.476215
v    148.318750 59.861427 198.370889
v    105.681994 13.709238 164.844194
v    114.266042 22.464133 176.219568
v    126.418193 34.556850 187.759413
v    129.475565 37.526910 189.125681
v    141.024137 49.672859 194.476215
v    148.318750 59.861427 198.370889
v    100.359431 20.269908 168.662929
v    99.586537 20.176323 168.662929
v    100.054031 19.553770 168.662929
v    99.640569 19.730092 171.186999
v    100.413463 19.823677 171.186999
v    99.945969 20.446230 171.186999
v    104.812826 13.313085 167.252819
v    93.969556 6.833540 178.972083
v    80.124592 -1.672618 189.909805
v    65.336248 -10.175062 195.853246
v    53.369013 -15.016630 199.865660
v    94.920427 26.486606 167.252819
v    85.674187 17.880326 178.972083
v    73.644681 6.956556 189.909805
v    61.355676 -4.874209 195.853246
v    53.369013 -15.016630 199.865660
v    99.775905 19.843043 171.186999
v    100.247976 19.884406 171.186999
v    99.976119 20.272551 171.186999
v    100.224095 20.156957 171.928000
v    99.752024 20.115594 171.928000
v    100.023881 19.727449 171.928000
v    97.717488 25.812652 164.254814
v    100.440711 26.961869 171.738450
v    103.811739 28.006524 180.440819
v    108.033240 29.713523 188.105373
v    115.022233 30.723595 198.994961
v    115.504517 30.859407 199.446913
v    104.682524 15.868323 164.254814
v    106.693264 18.034787 171.738450
v    108.827142 20.845783 180.440819
v    111.874148 24.229667 188.105373
v    115.212051 30.452582 198.994961
v    115.504517 30.859407 199.446913
v    102.463190 21.601210 1.087175
v    103.209568 21.881186 1.644646
v    103.981245 22.182418 1.910172
v    104.615108 22.401288 2.124254
v    105.179233 22.522974 2.117831
v    102.779187 20.952523 1.087175
v    103.459730 21.367647 1.644646
v    104.172605 21.789589 1.910172
v    104.735676 22.153785 2.124254
v    105.179233 22.522974 2.117831
v    98.179227 17.847118 1.541345
v    97.952793 17.696709 1.793949
v    97.044720 17.099981 2.544278
v    95.956020 16.364314 2.965444
v    95.269751 15.939242 3.223156
v    94.402572 15.516162 3.212368
v    97.501621 18.693011 1.541345
v    97.305418 18.504865 1.793949
v    96.524880 17.748926 2.544278
v    95.569331 16.847040 2.965444
v    95.004722 16.270092 3.223156
v    94.402572 15.516162 3.212368
v    102.260965 21.624591 2.316404
v    102.839874 21.781768 2.872938
v    104.190898 22.166488 3.818495
v    105.048301 22.421837 4.105250
v    106.378970 22.761274 4.543665
v    107.072461 22.838518 4.760542
v    107.414333 22.880734 4.756715
v    102.764712 20.328065 2.316404
v    103.297879 20.602969 2.872938
v    104.554247 21.231314 3.818495
v    105.359135 21.621825 4.105250
v    106.569913 22.269831 4.543665
v    107.133638 22.681061 4.760542
v    107.414333 22.880734 4.756715
v    97.076636 18.341295 4.651663
v    96.751926 18.299895 4.955355
v    94.859426 18.034898 6.241667
v    93.088664 17.765184 6.815801
v    91.232084 17.557384 7.412209
v    89.786597 17.583960 7.511107
v    96.643307 20.173121 4.651663
v    96.334463 20.064650 4.955355
v    94.523813 19.453645 6.241667
v    92.819885 18.901401 6.815801
v    91.066975 18.255356 7.412209
v    89.786597 17.583960 7.511107
v    100.584405 22.818475 5.819880
v    101.509369 23.702032 7.008533
v    103.450917 25.539346 8.839565
v    105.882939 27.899625 9.925868
v    107.335678 29.201637 10.548660
v    109.361695 30.690334 10.520527
v    102.716728 20.951165 5.819880
v    103.470522 21.984620 7.008533
v    105.035606 24.151609 8.839565
v    107.054370 26.873785 9.925868
v    108.153326 28.485610 10.548660
v    109.361695 30.690334 10.520527
v    97.698014 16.430199 13.893090
v    94.296559 14.673837 16.597336
v    89.912626 12.351829 18.187472
v    88.092933 11.478634 18.831824
v    86.923672 10.909272 18.817018
v    84.503383 10.105852 18.788684
v    95.792959 19.413974 13.893090
v    92.768306 17.067448 16.597336
v    88.817090 14.067702 18.187472
v    87.259225 12.784422 18.831824
v    86.250691 11.963324 18.817018
v    84.503383 10.105852 18.788684
v    106.686221 26.979107 24.550849
v    111.431162 29.844184 26.327515
v    114.117629 31.324147 27.306692
v    115.132895 31.891074 27.293453
v    118.172348 33.093219 27.257137
v    108.736729 24.133164 24.550849
v    112.956478 27.727168 26.327515
v    115.210732 29.807007 27.306692
v    116.069887 30.590603 27.293453
v    118.172348 33.093219 27.257137
v    86.845363 9.236718 38.779288
v    84.664774 8.056384 39.574065
v    82.177981 6.835306 40.458509
v    79.852206 5.676672 40.428927
v    75.966236 4.347610 40.383296
v    84.836794 12.320813 38.779288
v    82.875538 10.803702 39.574065
v    80.753203 9.023008 40.458509
v    78.753088 7.364334 40.428927
v    75.966236 4.347610 40.383296
v    123.770569 35.346288 60.222661
v    129.006627 37.506653 60.158175
v    131.414821 38.143873 60.130498
v    133.861915 38.781123 59.682564
v    125.604808 32.039199 60.222661
v    130.209928 35.337130 60.158175
v    132.025610 37.042635 60.130498
v    133.861915 38.781123 59.682564
v    63.442847 8.327202 84.101255
v    60.125575 7.843123 84.063089
v    58.387978 7.821811 84.043781
v    54.131397 7.786306 83.289747
v    54.084689 7.786245 83.275855
v    62.474789 11.966433 84.101255
v    59.355433 10.738329 84.063089
v    57.836899 9.893490 84.043781
v    54.125254 7.809398 83.289747
v    54.084689 7.786245 83.275855
v    142.023939 39.597185 110.777180
v    143.822414 40.111196 110.755885
v    146.607963 40.520070 110.724604
v    150.913813 41.134852 109.954133
v    143.548393 35.924778 110.777180
v    145.182176 36.835533 110.755885
v    147.438399 38.519551 110.724604
v    150.913813 41.134852 109.954133
v    64.746169 -11.688125 133.696427
v    57.068835 -15.324762 133.602003
v    62.115891 -8.491475 133.696427
v    57.068835 -15.324762 133.602003
v    138.507009 62.919401 156.682099
v    144.785846 66.858442 156.599745
v    141.134687 60.407948 156.682099
v    144.785846 66.858442 156.599745
v    61.563844 -21.323303 172.158423
v    56.318963 -24.518602 172.090186
v    59.414081 -19.213985 172.158423
v    56.318963 -24.518602 172.090186
v    144.511997 70.676590 185.657682
v    147.596394 72.736698 185.616471
v    145.862287 69.457914 185.657682
v    147.596394 72.736698 185.616471
mtllib usm_44_Beer_2018-08-23_2.mtl
usemtl APPID_3790429952_2353137130528 
o vid_3 
f 3 2 1
f 4 5 6
f 1 6 5
f 1 5 3
f 3 5 4
f 4 2 3
f 2 4 6
f 6 1 2
usemtl APPID_3790428944_2353137131680 
o vid_4 
f 7 10 11
f 7 11 8
f 8 11 12
f 8 12 9
usemtl APPID_3790429952_2353137130528 
o vid_5 
f 15 14 13
f 16 17 18
f 13 18 17
f 13 17 15
f 15 17 16
f 16 14 15
f 14 16 18
f 18 13 14
usemtl APPID_3790428944_2353137131680 
o vid_6 
f 19 21 22
f 19 22 20
f 19 21 22
f 19 22 20
usemtl APPID_3790429952_2353137130528 
o vid_7 
f 25 24 23
f 26 27 28
f 23 28 27
f 23 27 25
f 25 27 26
f 26 24 25
f 24 26 28
f 28 23 24
usemtl APPID_3790428944_2353137131680 
o vid_8 
f 29 32 33
f 29 33 30
f 30 33 34
f 30 34 31
usemtl APPID_3790429952_2353137130528 
o vid_9 
f 37 36 35
f 38 39 40
f 35 40 39
f 35 39 37
f 37 39 38
f 38 36 37
f 36 38 40
f 40 35 36
usemtl APPID_3790428944_2353137131680 
o vid_10 
f 41 44 45
f 41 45 42
f 42 45 46
f 42 46 43
usemtl APPID_3790429952_2353137130528 
o vid_11 
f 49 48 47
f 50 51 52
f 47 52 51
f 47 51 49
f 49 51 50
f 50 48 49
f 48 50 52
f 52 47 48
usemtl APPID_3790428944_2353137131680 
o vid_12 
f 53 55 56
f 53 56 54
f 53 55 56
f 53 56 54
usemtl APPID_3790429952_2353137130528 
o vid_13 
f 59 58 57
f 60 61 62
f 57 62 61
f 57 61 59
f 59 61 60
f 60 58 59
f 58 60 62
f 62 57 58
usemtl APPID_3790428944_2353137131680 
o vid_14 
f 63 65 66
f 63 66 64
f 63 65 66
f 63 66 64
usemtl APPID_3790429952_2353137130528 
o vid_15 
f 69 68 67
f 70 71 72
f 67 72 71
f 67 71 69
f 69 71 70
f 70 68 69
f 68 70 72
f 72 67 68
usemtl APPID_3790428944_2353137131680 
o vid_16 
f 73 77 78
f 74 78 79
f 73 78 74
f 74 79 75
f 75 79 80
f 75 80 76
usemtl APPID_3790429952_2353137130528 
o vid_17 
f 83 82 81
f 84 85 86
f 81 86 85
f 81 85 83
f 83 85 84
f 84 82 83
f 82 84 86
f 86 81 82
usemtl APPID_3790428944_2353137131680 
o vid_18 
f 87 92 93
f 88 93 94
f 89 94 95
f 87 93 88
f 88 94 89
f 89 95 90
f 90 95 96
f 90 96 91
usemtl APPID_3790429952_2353137130528 
o vid_19 
f 99 98 97
f 100 101 102
f 97 102 101
f 97 101 99
f 99 101 100
f 100 98 99
f 98 100 102
f 102 97 98
usemtl APPID_3790428944_2353137131680 
o vid_20 
f 103 109 110
f 104 110 111
f 105 111 112
f 106 112 113
f 103 110 104
f 104 111 105
f 105 112 106
f 106 113 107
f 107 113 114
f 107 114 108
usemtl APPID_3790429952_2353137130528 
o vid_21 
f 117 116 115
f 118 119 120
f 115 120 119
f 115 119 117
f 117 119 118
f 118 116 117
f 116 118 120
f 120 115 116
usemtl APPID_3790428944_2353137131680 
o vid_22 
f 121 127 128
f 122 128 129
f 123 129 130
f 124 130 131
f 121 128 122
f 122 129 123
f 123 130 124
f 124 131 125
f 125 131 132
f 125 132 126
usemtl APPID_3790429952_2353137130528 
o vid_23 
f 135 134 133
f 136 137 138
f 133 138 137
f 133 137 135
f 135 137 136
f 136 134 135
f 134 136 138
f 138 133 134
usemtl APPID_3790428944_2353137131680 
o vid_24 
f 139 145 146
f 140 146 147
f 141 147 148
f 142 148 149
f 139 146 140
f 140 147 141
f 141 148 142
f 142 149 143
f 143 149 150
f 143 150 144
usemtl APPID_3790429952_2353137130528 
o vid_25 
f 153 152 151
f 154 155 156
f 151 156 155
f 151 155 153
f 153 155 154
f 154 152 153
f 152 154 156
f 156 151 152
usemtl APPID_3790428944_2353137131680 
o vid_26 
f 157 163 164
f 158 164 165
f 159 165 166
f 160 166 167
f 157 164 158
f 158 165 159
f 159 166 160
f 160 167 161
f 161 167 168
f 161 168 162
usemtl APPID_3790429952_2353137130528 
o vid_27 
f 171 170 169
f 172 173 174
f 169 174 173
f 169 173 171
f 171 173 172
f 172 170 171
f 170 172 174
f 174 169 170
usemtl APPID_3790428944_2353137131680 
o vid_28 
f 175 183 184
f 176 184 185
f 177 185 186
f 178 186 187
f 179 187 188
f 180 188 189
f 175 184 176
f 176 185 177
f 177 186 178
f 178 187 179
f 179 188 180
f 180 189 181
f 181 189 190
f 181 190 182
usemtl APPID_3790429952_2353137130528 
o vid_29 
f 193 192 191
f 194 195 196
f 191 196 195
f 191 195 193
f 193 195 194
f 194 192 193
f 192 194 196
f 196 191 192
usemtl APPID_3790428944_2353137131680 
o vid_30 
f 197 204 205
f 198 205 206
f 199 206 207
f 200 207 208
f 201 208 209
f 197 205 198
f 198 206 199
f 199 207 200
f 200 208 201
f 201 209 202
f 202 209 210
f 202 210 203
usemtl APPID_3790429952_2353137130528 
o vid_31 
f 213 212 211
f 214 215 216
f 211 216 215
f 211 215 213
f 213 215 214
f 214 212 213
f 212 214 216
f 216 211 212
usemtl APPID_3790428944_2353137131680 
o vid_32 
f 217 223 224
f 218 224 225
f 219 225 226
f 220 226 227
f 217 224 218
f 218 225 219
f 219 226 220
f 220 227 221
f 221 227 228
f 221 228 222
usemtl APPID_3790429952_2353137130528 
o vid_33 
f 231 230 229
f 232 233 234
f 229 234 233
f 229 233 231
f 231 233 232
f 232 230 231
f 230 232 234
f 234 229 230
usemtl APPID_3790428944_2353137131680 
o vid_34 
f 235 242 243
f 236 243 244
f 237 244 245
f 238 245 246
f 239 246 247
f 235 243 236
f 236 244 237
f 237 245 238
f 238 246 239
f 239 247 240
f 240 247 248
usemtl APPID_3790429952_2353137130528 
o vid_35 
f 251 250 249
f 252 253 254
f 249 254 253
f 249 253 251
f 251 253 252
f 252 250 251
f 250 252 254
f 254 249 250
usemtl APPID_3790428944_2353137131680 
o vid_36 
f 255 261 262
f 256 262 263
f 257 263 264
f 258 264 265
f 255 262 256
f 256 263 257
f 257 264 258
f 258 265 259
f 259 265 266
usemtl APPID_3790429952_2353137130528 
o vid_37 
f 269 268 267
f 270 271 272
f 267 272 271
f 267 271 269
f 269 271 270
f 270 268 269
f 268 270 272
f 272 267 268
usemtl APPID_3790428944_2353137131680 
o vid_38 
f 273 278 279
f 274 279 280
f 275 280 281
f 273 279 274
f 274 280 275
f 275 281 276
f 276 281 282
usemtl APPID_3790429952_2353137130528 
o vid_39 
f 285 284 283
f 286 287 288
f 283 288 287
f 283 287 285
f 285 287 286
f 286 284 285
f 284 286 288
f 288 283 284
usemtl APPID_3790428944_2353137131680 
o vid_40 
f 289 295 296
f 290 296 297
f 291 297 298
f 292 298 299
f 289 296 290
f 290 297 291
f 291 298 292
f 292 299 293
f 293 299 300
usemtl APPID_3790438016_2353137131040 
o vid_10000004 
f 301 306 307
f 302 307 308
f 303 308 309
f 301 307 302
f 302 308 303
f 303 309 304
f 304 309 310
usemtl APPID_3790438016_2353137131040 
o vid_10000006 
f 311 317 318
f 312 318 319
f 313 319 320
f 314 320 321
f 311 318 312
f 312 319 313
f 313 320 314
f 314 321 315
f 315 321 322
usemtl APPID_3790438016_2353137131040 
o vid_10000008 
f 323 330 331
f 324 331 332
f 325 332 333
f 326 333 334
f 327 334 335
f 323 331 324
f 324 332 325
f 325 333 326
f 326 334 327
f 327 335 328
f 328 335 336
usemtl APPID_3790438016_2353137131040 
o vid_10000010 
f 337 343 344
f 338 344 345
f 339 345 346
f 340 346 347
f 337 344 338
f 338 345 339
f 339 346 340
f 340 347 341
f 341 347 348
usemtl APPID_3790438016_2353137131040 
o vid_10000012 
f 349 355 356
f 350 356 357
f 351 357 358
f 352 358 359
f 349 356 350
f 350 357 351
f 351 358 352
f 352 359 353
f 353 359 360
usemtl APPID_3790438016_2353137131040 
o vid_10000014 
f 361 367 368
f 362 368 369
f 363 369 370
f 364 370 371
f 361 368 362
f 362 369 363
f 363 370 364
f 364 371 365
f 365 371 372
usemtl APPID_3790438016_2353137131040 
o vid_10000016 
f 373 378 379
f 374 379 380
f 375 380 381
f 373 379 374
f 374 380 375
f 375 381 376
f 376 381 382
usemtl APPID_3790438016_2353137131040 
o vid_10000018 
f 383 388 389
f 384 389 390
f 385 390 391
f 383 389 384
f 384 390 385
f 385 391 386
f 386 391 392
usemtl APPID_3790438016_2353137131040 
o vid_10000020 
f 393 397 398
f 394 398 399
f 393 398 394
f 394 399 395
f 395 399 400
usemtl APPID_3790438016_2353137131040 
o vid_10000022 
f 401 406 407
f 402 407 408
f 403 408 409
f 401 407 402
f 402 408 403
f 403 409 404
f 404 409 410
usemtl APPID_3790438016_2353137131040 
o vid_10000024 
f 411 415 416
f 412 416 417
f 411 416 412
f 412 417 413
f 413 417 418
usemtl APPID_3790438016_2353137131040 
o vid_10000026 
f 419 421 422
f 419 422 420
f 419 421 422
usemtl APPID_3790438016_2353137131040 
o vid_10000028 
f 423 425 426
f 423 426 424
f 423 425 426
usemtl APPID_3790438016_2353137131040 
o vid_10000030 
f 427 429 430
f 427 430 428
f 427 429 430
usemtl APPID_3790438016_2353137131040 
o vid_10000032 
f 431 433 434
f 431 434 432
f 431 433 434
