# File generated by PlantGL - Fri Sep  4 14:44:29 2026
v    457.752484 18.905161 0.000000
v    462.071916 18.601013 0.000000
v    460.175600 22.493825 0.000000
v    462.247516 21.094839 0.848509
v    457.928084 21.398987 0.848509
v    459.824400 17.506175 0.848509
v    462.074098 21.428499 0.712378
v    462.462343 21.576521 1.098486
v    462.403346 20.752611 0.712378
v    462.759224 20.967076 1.098486
v    461.879284 21.505407 0.848509
v    457.756638 20.874804 0.848509
v    460.364078 17.619789 0.848509
v    458.120716 18.494593 1.417165
v    462.243362 19.125196 1.417165
v    459.635922 22.380211 1.417165
v    458.474543 18.075426 1.221103
v    458.175184 17.876576 1.555060
v    457.788880 18.931377 1.221103
v    457.529487 18.682637 1.555060
v    457.841416 19.161313 1.417165
v    461.805616 18.549955 1.417165
v    460.352968 22.288732 1.417165
v    462.158584 20.838687 2.253766
v    458.194384 21.450045 2.253766
v    459.647032 17.711268 2.253766
v    461.884400 21.489501 1.977215
v    462.277281 21.603127 2.357262
v    462.395722 20.173480 1.977215
v    462.762257 20.354914 2.357262
v    462.163962 20.511898 2.253766
v    458.474702 21.618097 2.253766
v    459.361335 17.870005 2.253766
v    457.836038 19.488102 4.112548
v    461.525298 18.381903 4.112548
v    460.638665 22.129995 4.112548
v    458.092525 18.523095 3.730513
v    457.052607 18.373119 4.706855
v    457.632979 20.465749 3.730513
v    456.636083 20.133904 4.706855
v    458.595695 18.396392 4.112548
v    462.090917 19.585640 4.112548
v    459.313387 22.017967 4.112548
v    461.404305 21.603608 5.999272
v    457.909083 20.414360 5.999272
v    460.686613 17.982033 5.999272
v    460.322463 22.501625 5.482407
v    460.689557 22.852286 5.954152
v    462.437210 20.649708 5.482407
v    462.736371 21.059859 5.954152
v    461.718982 21.097521 5.999272
v    458.190028 20.939922 5.999272
v    460.090990 17.962557 5.999272
v    458.281018 18.902479 11.505015
v    461.809972 19.060078 11.505015
v    459.909010 22.037443 11.505015
v    459.264580 17.453431 10.820160
v    457.486951 16.529844 12.681673
v    457.314734 16.443927 12.860229
v    457.293379 16.432943 12.876394
v    457.380412 20.404492 10.820160
v    455.794534 19.180576 12.681673
v    455.644124 19.060505 12.860229
v    455.625173 19.045754 12.876394
v    458.420020 18.861621 11.505015
v    461.775855 19.200887 11.505015
v    459.804125 21.937492 11.505015
v    461.579980 21.138379 19.658889
v    458.224145 20.799113 19.658889
v    460.195875 18.062508 19.658889
v    460.075104 23.117784 18.770166
v    460.346590 23.278791 19.063474
v    462.981230 19.084312 18.770166
v    463.219896 19.290871 19.063474
v    461.554633 21.012481 19.658889
v    458.345849 20.840111 19.658889
v    460.099518 18.147408 19.658889
v    458.445367 18.987519 30.873903
v    461.654151 19.159889 30.873903
v    459.900482 21.852592 30.873903
v    460.203042 16.437382 29.744416
v    458.033505 15.285158 32.027142
v    456.823711 21.626242 29.744416
v    454.892632 20.107871 32.027142
v    458.458123 19.144816 30.873903
v    461.511550 19.092287 30.873903
v    460.030327 21.762897 30.873903
v    461.541877 20.855184 48.397355
v    458.488450 20.907713 48.397355
v    459.969673 18.237103 48.397355
v    459.472595 24.377774 46.991496
v    459.692135 24.475115 47.214657
v    463.434475 17.234599 46.991496
v    463.633296 17.369297 47.214657
v    461.614895 20.429572 48.397355
v    458.820532 21.183754 48.397355
v    459.564573 18.386674 48.397355
v    458.385105 19.570428 69.758548
v    461.179468 18.816246 69.758548
v    460.435427 21.613326 69.758548
v    459.793283 14.755691 68.044790
v    459.145446 14.643758 68.655720
v    457.214942 24.448478 68.044790
v    456.597113 24.223737 68.655720
v    458.541706 19.394647 69.758548
v    461.253398 19.039757 69.758548
v    460.204896 21.565597 69.758548
v    461.458294 20.605353 89.607729
v    458.746602 20.960243 89.607729
v    459.795104 18.434403 89.607729
v    459.234096 25.579971 87.561738
v    461.650514 26.339149 89.915406
v    463.410924 15.518004 87.561738
v    465.654612 16.693285 89.915406
v    461.148136 20.944713 89.607729
v    458.607786 20.521958 89.607729
v    460.244078 18.533328 89.607729
v    458.851864 19.055287 113.503741
v    461.392214 19.478042 113.503741
v    459.755922 21.466672 113.503741
v    462.904487 14.400566 111.111502
v    456.623257 10.108423 118.180911
v    453.282605 7.846660 120.912041
v    455.064721 23.928451 111.111502
v    449.643290 18.591372 118.180911
v    446.780524 15.748819 120.912041
v    459.036323 18.991726 113.503741
v    461.355030 19.669568 113.503741
v    459.608648 21.338706 113.503741
v    460.963677 21.008274 130.408667
v    458.644970 20.330432 130.408667
v    460.391352 18.661294 130.408667
v    455.861722 25.612274 127.669290
v    460.765476 29.904146 133.724906
v    462.496721 31.369887 135.829436
v    470.762922 38.544842 143.197280
v    465.793620 16.119674 127.669290
v    469.859415 21.212442 133.724906
v    471.245390 23.008181 135.829436
v    478.039309 31.590296 143.197280
v    460.912312 20.929805 130.408667
v    458.738610 20.325183 130.408667
v    460.349079 18.745013 130.408667
v    459.087688 19.070195 146.720499
v    461.261390 19.674817 146.720499
v    459.650921 21.254987 146.720499
v    464.876092 13.699968 143.648326
v    457.697352 7.581381 152.413446
v    446.842561 -1.586893 162.083621
v    440.157745 -7.376551 164.918246
v    453.608504 24.755570 143.648326
v    447.627349 17.461928 152.413446
v    438.666869 6.434982 162.083621
v    433.005206 -0.358578 164.918246
v    459.188946 19.101354 146.720499
v    461.183778 19.746930 146.720499
v    459.627277 21.151717 146.720499
v    460.811054 20.898646 158.181550
v    458.816222 20.253070 158.181550
v    460.372723 18.848283 158.181550
v    454.317413 26.432727 154.807231
v    460.755967 32.401242 162.965503
v    462.275103 33.763798 164.858761
v    473.426872 44.016520 175.055622
v    483.189967 53.211743 179.354475
v    466.979788 15.004568 154.807231
v    472.259054 22.019373 162.965503
v    473.459227 23.669804 164.858761
v    482.518595 35.810977 175.055622
v    490.667920 46.462675 179.354475
v    461.097812 20.213714 158.181550
v    459.266012 20.843876 158.181550
v    459.636176 18.942409 158.181550
v    458.902188 19.786286 164.602053
v    460.733988 19.156124 164.602053
v    460.363824 21.057591 164.602053
v    460.785879 11.475041 160.972333
v    458.728261 11.261909 162.894605
v    449.182083 10.431233 171.784661
v    432.966839 8.818980 182.753319
v    423.178652 7.726660 185.910234
v    457.530525 28.197208 160.972333
v    455.543218 27.622902 162.894605
v    446.382563 24.811864 171.784661
v    430.746675 20.223563 182.753319
v    421.263534 17.564276 185.910234
v    459.208315 19.346885 164.602053
v    460.961457 19.640938 164.602053
v    459.830228 21.012177 164.602053
v    460.791685 20.653115 168.440627
v    459.038543 20.359062 168.440627
v    460.169772 18.987823 168.440627
v    455.177351 27.026848 164.616725
v    465.418059 33.799512 176.007488
v    479.619283 43.444693 187.562943
v    483.217120 45.952059 188.968594
v    486.777877 48.229159 190.317923
v    465.982107 13.929667 164.616725
v    474.577767 22.696406 176.007488
v    486.746357 34.805481 187.562943
v    489.891859 37.861154 188.968594
v    492.804244 40.924189 190.317923
v    460.747035 20.560971 168.440627
v    459.140667 20.366465 168.440627
v    460.112298 19.072563 168.440627
v    459.252965 19.439029 171.309825
v    460.859333 19.633535 171.309825
v    459.887702 20.927437 171.309825
v    464.859709 12.444761 167.364463
v    453.985621 5.946800 179.117035
v    438.894129 -3.325208 191.039532
v    432.974613 -7.060933 193.283180
v    425.416876 -11.421112 196.068697
v    454.099621 26.773768 167.364463
v    444.827102 18.143028 179.117035
v    431.714523 6.235738 191.039532
v    426.476286 1.592766 193.283180
v    420.181536 -4.449309 196.068697
v    459.310251 19.516898 171.309825
v    460.763253 19.644211 171.309825
v    459.926496 20.838891 171.309825
v    460.689749 20.483102 172.803360
v    459.236747 20.355789 172.803360
v    460.073504 19.161109 172.803360
v    455.690136 27.121943 168.816660
v    466.889438 33.320752 180.692372
v    480.812243 41.252362 191.478194
v    492.366448 47.379786 196.313589
v    465.220076 13.515572 168.816660
v    474.873236 21.921885 180.692372
v    487.085674 32.295472 191.478194
v    496.793044 41.059714 196.313589
v    460.610549 20.435580 172.803360
v    459.317502 20.310961 172.803360
v    460.071949 19.253459 172.803360
v    459.389451 19.564420 174.000000
v    460.682498 19.689039 174.000000
v    459.928051 20.746541 174.000000
v    464.920865 12.299231 170.054638
v    453.898702 6.058422 181.807210
v    438.585329 -2.842359 193.729707
v    430.671481 -7.570528 196.684609
v    416.725735 -15.168407 201.754619
v    454.319615 27.158909 170.054638
v    444.831804 18.767413 181.807210
v    431.432412 7.183822 193.729707
v    424.386374 1.239251 196.684609
v    412.664005 -9.475116 201.754619
v    462.462343 21.576521 1.098486
v    462.772440 21.698226 1.328332
v    463.051800 21.803421 1.529266
v    464.179329 22.243563 1.917236
v    464.767847 22.450148 1.932793
v    465.102439 22.519919 1.928995
v    465.223961 22.544762 1.907024
v    462.759224 20.967076 1.098486
v    463.046208 21.136228 1.328332
v    463.301244 21.291355 1.529266
v    464.342855 21.907872 1.917236
v    464.868300 22.243935 1.932793
v    465.129490 22.464389 1.928995
v    465.223961 22.544762 1.907024
v    458.175184 17.876576 1.555060
v    457.951015 17.727672 1.805138
v    457.505755 17.425182 2.167927
v    457.220743 17.237546 2.397618
v    455.694888 16.206481 2.987897
v    454.926733 15.724400 2.977572
v    454.578851 15.565838 2.973325
v    454.317319 15.447870 2.922502
v    457.529487 18.682637 1.555060
v    457.335245 18.496372 1.805138
v    456.942866 18.127868 2.167927
v    456.697547 17.890680 2.397618
v    455.358308 16.626652 2.987897
v    454.720193 15.982236 2.977572
v    454.489525 15.677349 2.973325
v    454.317319 15.447870 2.922502
v    462.277281 21.603127 2.357262
v    462.650804 21.711154 2.718583
v    463.930619 22.074460 3.636722
v    465.477892 22.535263 4.154201
v    466.434359 22.779246 4.469328
v    467.607600 22.955825 4.456062
v    462.762257 20.354914 2.357262
v    463.110732 20.527409 2.718583
v    464.300111 21.123474 3.636722
v    465.752614 21.828191 4.154201
v    466.622906 22.293970 4.469328
v    467.607600 22.955825 4.456062
v    457.052607 18.373119 4.706855
v    455.182391 18.108273 6.023001
v    452.645833 17.721917 6.845429
v    451.625547 17.607720 7.173186
v    450.947912 17.527933 7.165418
v    449.635397 17.548193 7.150833
v    456.636083 20.133904 4.706855
v    454.845423 19.532748 6.023001
v    452.404602 18.741677 6.845429
v    451.441288 18.386642 7.173186
v    450.799726 18.154366 7.165418
v    449.635397 17.548193 7.150833
v    460.689557 22.852286 5.954152
v    461.520563 23.646092 7.022062
v    462.171065 24.280551 7.634477
v    463.195072 25.250697 8.583978
v    466.264601 28.229677 9.955034
v    466.696282 28.616569 10.140096
v    468.009504 29.807208 10.119915
v    469.360593 30.739174 10.101679
v    469.470001 30.814011 10.078198
v    462.736371 21.059859 5.954152
v    463.413594 21.988335 7.022062
v    463.956680 22.716860 7.634477
v    464.783237 23.859916 8.583978
v    467.331180 27.295657 9.955034
v    467.657734 27.774610 10.140096
v    468.664698 29.233445 10.119915
v    469.410254 30.695685 10.101679
v    469.470001 30.814011 10.078198
v    457.293379 16.432943 12.876394
v    454.580624 15.037635 14.929794
v    451.015953 13.149559 16.222767
v    448.844507 12.107573 16.991676
v    448.280898 11.833129 16.984539
v    446.047567 11.091770 16.958394
v    455.625173 19.045754 12.876394
v    453.217863 17.172047 14.929794
v    450.005043 14.732888 16.222767
v    448.146037 13.201545 16.991676
v    447.659902 12.805758 16.984539
v    446.047567 11.091770 16.958394
v    460.346590 23.278791 19.063474
v    462.525504 24.571013 21.417524
v    464.611603 25.837723 23.062378
v    465.944745 26.620962 24.103159
v    473.090641 30.935776 26.778823
v    476.680099 32.940895 26.732014
v    478.290963 33.578014 26.712767
v    479.502826 34.051832 26.482273
v    463.219896 19.290871 19.063474
v    465.135400 20.948686 21.417524
v    466.997322 22.526535 23.062378
v    468.162288 23.543188 24.103159
v    474.517241 28.955768 26.778823
v    477.555488 31.725926 26.732014
v    478.669760 33.052273 26.712767
v    479.502826 34.051832 26.482273
v    458.033505 15.285158 32.027142
v    457.005322 14.739098 33.108967
v    454.984853 13.638932 34.659474
v    452.535585 12.351027 36.522164
v    443.997023 7.729174 39.634285
v    439.377500 5.433656 39.874248
v    436.353533 4.399412 39.838739
v    435.714458 4.183635 39.719255
v    454.892632 20.107871 32.027142
v    453.977459 19.388288 33.108967
v    452.154269 17.985207 34.659474
v    449.985988 16.265855 36.522164
v    442.306266 10.325280 39.634285
v    438.338877 7.028429 39.874248
v    436.170218 4.680888 39.838739
v    435.714458 4.183635 39.719255
v    459.692135 24.475115 47.214657
v    463.592451 26.204475 51.179317
v    468.866734 28.609030 55.085982
v    481.360350 34.260715 59.660286
v    483.509837 35.244278 59.633276
v    489.496759 37.714445 59.559543
v    493.080276 38.649001 58.959577
v    494.079248 38.901664 58.653104
v    463.633296 17.369297 47.214657
v    467.165523 19.762312 51.179317
v    471.998032 22.963374 55.085982
v    483.407709 30.569376 59.660286
v    485.380216 31.872029 59.633276
v    490.645722 35.642892 59.559543
v    493.335963 38.188004 58.959577
v    494.079248 38.901664 58.653104
v    459.145446 14.643758 68.655720
v    454.379693 13.821114 73.149789
v    446.973824 12.463224 78.224287
v    430.980901 9.573837 83.488184
v    427.597535 8.948627 83.448870
v    419.943239 7.831661 83.360805
v    415.846030 7.776404 82.634012
v    414.038756 7.774026 82.096487
v    456.597113 24.223737 68.655720
v    452.052498 22.569765 73.149789
v    444.950762 20.068543 78.224287
v    429.635961 14.629883 83.488184
v    426.389125 13.491418 83.448870
v    419.191500 10.657682 83.360805
v    415.608350 8.669915 82.634012
v    414.038756 7.774026 82.096487
v    461.650514 26.339149 89.915406
v    465.491246 27.545810 93.656403
v    467.502622 28.200811 95.082066
v    474.253600 30.291342 99.839188
v    488.745915 34.970920 104.720622
v    492.602426 36.049214 105.999020
v    497.623558 37.484273 105.939567
v    504.579059 38.505230 105.861459
v    465.654612 16.693285 89.915406
v    469.220804 18.561314 93.656403
v    471.104746 19.523301 95.082066
v    477.351587 22.828299 99.839188
v    490.897527 29.787692 104.720622
v    494.383950 31.757526 105.999020
v    498.945280 34.300246 105.939567
v    504.579059 38.505230 105.861459
v    453.282605 7.846660 120.912041
v    447.680256 4.052110 125.466691
v    435.457998 -4.442518 130.237603
v    429.036617 -8.537435 132.668964
v    426.494272 -10.179299 132.634509
v    419.060191 -13.686228 132.543183
v    446.780524 15.748819 120.912041
v    441.978109 10.982087 125.466691
v    431.288741 0.624495 130.237603
v    426.033853 -4.888093 132.668964
v    423.933121 -7.066662 132.634509
v    419.060191 -13.686228 132.543183
v    470.762922 38.544842 143.197280
v    482.386518 48.860047 148.655417
v    491.344711 56.211295 152.354961
v    499.668852 61.504644 152.245191
v    478.039309 31.590296 143.197280
v    487.818486 43.668341 148.655417
v    494.757234 52.949712 152.354961
v    499.668852 61.504644 152.245191
v    440.157745 -7.376551 164.918246
v    432.725502 -13.813547 168.069809
v    424.739639 -20.193465 171.332961
v    422.076922 -22.345876 171.293981
v    413.062115 -27.837898 171.176697
v    433.005206 -0.358578 164.918246
v    426.710514 -7.911724 168.069809
v    420.483404 -16.017306 171.332961
v    418.381949 -18.720420 171.293981
v    413.062115 -27.837898 171.176697
v    483.189967 53.211743 179.354475
v    486.861982 56.670175 180.971325
v    496.891744 65.392039 185.214628
v    498.087901 66.444337 185.196490
v    507.729284 72.883940 185.067671
v    490.667920 46.462675 179.354475
v    493.732977 50.468904 180.971325
v    501.384169 61.337497 185.214628
v    502.308714 62.634932 185.196490
v    507.729284 72.883940 185.067671
v    423.178652 7.726660 185.910234
v    406.883519 6.544242 191.126702
v    398.683170 7.097697 193.681257
v    394.823698 7.311936 193.638309
v    421.263534 17.564276 185.910234
v    405.714836 12.547560 191.126702
v    398.320955 8.958330 193.681257
v    394.823698 7.311936 193.638309
v    486.777877 48.229159 190.317923
v    497.355799 54.993730 194.326367
v    508.760533 60.225884 198.226309
v    492.804244 40.924189 190.317923
v    501.456053 50.023533 194.326367
v    508.760533 60.225884 198.226309
v    425.416876 -11.421112 196.068697
v    417.976022 -15.713860 198.811134
v    405.974775 -20.569189 202.834952
v    420.181536 -4.449309 196.068697
v    413.984137 -10.397941 198.811134
v    405.974775 -20.569189 202.834952
v    492.366448 47.379786 196.313589
v    496.021109 49.329951 197.636044
v    508.303825 53.832133 201.702022
v    496.793044 41.059714 196.313589
v    499.874842 43.827785 197.636044
v    508.303825 53.832133 201.702022
v    416.725735 -15.168407 201.754619
v    415.466098 -15.854679 202.212563
v    405.242190 -19.703231 205.607943
v    403.269756 -20.472712 205.584419
v    412.664005 -9.475116 201.754619
v    411.605192 -10.442882 202.212563
v    404.639195 -18.858019 205.607943
v    403.269756 -20.472712 205.584419
mtllib usm_28_2.5D_2018-09-10_11.mtl
usemtl APPID_3780873888_1876378712560 
o vid_3 
f 3 2 1
f 4 5 6
f 1 6 5
f 1 5 3
f 3 5 4
f 4 2 3
f 2 4 6
f 6 1 2
usemtl APPID_3780870304_1876378710640 
o vid_4 
f 7 9 10
f 7 10 8
f 7 9 10
f 7 10 8
usemtl APPID_3780873888_1876378712560 
o vid_5 
f 13 12 11
f 14 15 16
f 11 16 15
f 11 15 13
f 13 15 14
f 14 12 13
f 12 14 16
f 16 11 12
usemtl APPID_3780870304_1876378710640 
o vid_6 
f 17 19 20
f 17 20 18
f 17 19 20
f 17 20 18
usemtl APPID_3780873888_1876378712560 
o vid_7 
f 23 22 21
f 24 25 26
f 21 26 25
f 21 25 23
f 23 25 24
f 24 22 23
f 22 24 26
f 26 21 22
usemtl APPID_3780870304_1876378710640 
o vid_8 
f 27 29 30
f 27 30 28
f 27 29 30
f 27 30 28
usemtl APPID_3780873888_1876378712560 
o vid_9 
f 33 32 31
f 34 35 36
f 31 36 35
f 31 35 33
f 33 35 34
f 34 32 33
f 32 34 36
f 36 31 32
usemtl APPID_3780870304_1876378710640 
o vid_10 
f 37 39 40
f 37 40 38
f 37 39 40
f 37 40 38
usemtl APPID_3780873888_1876378712560 
o vid_11 
f 43 42 41
f 44 45 46
f 41 46 45
f 41 45 43
f 43 45 44
f 44 42 43
f 42 44 46
f 46 41 42
usemtl APPID_3780870304_1876378710640 
o vid_12 
f 47 49 50
f 47 50 48
f 47 49 50
f 47 50 48
usemtl APPID_3780873888_1876378712560 
o vid_13 
f 53 52 51
f 54 55 56
f 51 56 55
f 51 55 53
f 53 55 54
f 54 52 53
f 52 54 56
f 56 51 52
usemtl APPID_3780870304_1876378710640 
o vid_14 
f 57 61 62
f 58 62 63
f 57 62 58
f 58 63 59
f 59 63 64
f 59 64 60
usemtl APPID_3780873888_1876378712560 
o vid_15 
f 67 66 65
f 68 69 70
f 65 70 69
f 65 69 67
f 67 69 68
f 68 66 67
f 66 68 70
f 70 65 66
usemtl APPID_3780870304_1876378710640 
o vid_16 
f 71 73 74
f 71 74 72
f 71 73 74
f 71 74 72
usemtl APPID_3780873888_1876378712560 
o vid_17 
f 77 76 75
f 78 79 80
f 75 80 79
f 75 79 77
f 77 79 78
f 78 76 77
f 76 78 80
f 80 75 76
usemtl APPID_3780870304_1876378710640 
o vid_18 
f 81 83 84
f 81 84 82
f 81 83 84
f 81 84 82
usemtl APPID_3780873888_1876378712560 
o vid_19 
f 87 86 85
f 88 89 90
f 85 90 89
f 85 89 87
f 87 89 88
f 88 86 87
f 86 88 90
f 90 85 86
usemtl APPID_3780870304_1876378710640 
o vid_20 
f 91 93 94
f 91 94 92
f 91 93 94
f 91 94 92
usemtl APPID_3780873888_1876378712560 
o vid_21 
f 97 96 95
f 98 99 100
f 95 100 99
f 95 99 97
f 97 99 98
f 98 96 97
f 96 98 100
f 100 95 96
usemtl APPID_3780870304_1876378710640 
o vid_22 
f 101 103 104
f 101 104 102
f 101 103 104
f 101 104 102
usemtl APPID_3780873888_1876378712560 
o vid_23 
f 107 106 105
f 108 109 110
f 105 110 109
f 105 109 107
f 107 109 108
f 108 106 107
f 106 108 110
f 110 105 106
usemtl APPID_3780870304_1876378710640 
o vid_24 
f 111 113 114
f 111 114 112
f 111 113 114
f 111 114 112
usemtl APPID_3780873888_1876378712560 
o vid_25 
f 117 116 115
f 118 119 120
f 115 120 119
f 115 119 117
f 117 119 118
f 118 116 117
f 116 118 120
f 120 115 116
usemtl APPID_3780870304_1876378710640 
o vid_26 
f 121 124 125
f 121 125 122
f 122 125 126
f 122 126 123
usemtl APPID_3780873888_1876378712560 
o vid_27 
f 129 128 127
f 130 131 132
f 127 132 131
f 127 131 129
f 129 131 130
f 130 128 129
f 128 130 132
f 132 127 128
usemtl APPID_3780870304_1876378710640 
o vid_28 
f 133 137 138
f 134 138 139
f 133 138 134
f 134 139 135
f 135 139 140
f 135 140 136
usemtl APPID_3780873888_1876378712560 
o vid_29 
f 143 142 141
f 144 145 146
f 141 146 145
f 141 145 143
f 143 145 144
f 144 142 143
f 142 144 146
f 146 141 142
usemtl APPID_3780870304_1876378710640 
o vid_30 
f 147 151 152
f 148 152 153
f 147 152 148
f 148 153 149
f 149 153 154
f 149 154 150
usemtl APPID_3780873888_1876378712560 
o vid_31 
f 157 156 155
f 158 159 160
f 155 160 159
f 155 159 157
f 157 159 158
f 158 156 157
f 156 158 160
f 160 155 156
usemtl APPID_3780870304_1876378710640 
o vid_32 
f 161 166 167
f 162 167 168
f 163 168 169
f 161 167 162
f 162 168 163
f 163 169 164
f 164 169 170
f 164 170 165
usemtl APPID_3780873888_1876378712560 
o vid_33 
f 173 172 171
f 174 175 176
f 171 176 175
f 171 175 173
f 173 175 174
f 174 172 173
f 172 174 176
f 176 171 172
usemtl APPID_3780870304_1876378710640 
o vid_34 
f 177 182 183
f 178 183 184
f 179 184 185
f 177 183 178
f 178 184 179
f 179 185 180
f 180 185 186
f 180 186 181
usemtl APPID_3780873888_1876378712560 
o vid_35 
f 189 188 187
f 190 191 192
f 187 192 191
f 187 191 189
f 189 191 190
f 190 188 189
f 188 190 192
f 192 187 188
usemtl APPID_3780870304_1876378710640 
o vid_36 
f 193 198 199
f 194 199 200
f 195 200 201
f 193 199 194
f 194 200 195
f 195 201 196
f 196 201 202
f 196 202 197
usemtl APPID_3780873888_1876378712560 
o vid_37 
f 205 204 203
f 206 207 208
f 203 208 207
f 203 207 205
f 205 207 206
f 206 204 205
f 204 206 208
f 208 203 204
usemtl APPID_3780870304_1876378710640 
o vid_38 
f 209 214 215
f 210 215 216
f 211 216 217
f 209 215 210
f 210 216 211
f 211 217 212
f 212 217 218
f 212 218 213
usemtl APPID_3780873888_1876378712560 
o vid_39 
f 221 220 219
f 222 223 224
f 219 224 223
f 219 223 221
f 221 223 222
f 222 220 221
f 220 222 224
f 224 219 220
usemtl APPID_3780870304_1876378710640 
o vid_40 
f 225 229 230
f 226 230 231
f 225 230 226
f 226 231 227
f 227 231 232
f 227 232 228
usemtl APPID_3780873888_1876378712560 
o vid_41 
f 235 234 233
f 236 237 238
f 233 238 237
f 233 237 235
f 235 237 236
f 236 234 235
f 234 236 238
f 238 233 234
usemtl APPID_3780870304_1876378710640 
o vid_42 
f 239 244 245
f 240 245 246
f 241 246 247
f 239 245 240
f 240 246 241
f 241 247 242
f 242 247 248
f 242 248 243
usemtl APPID_3780846448_1876378712688 
o vid_10000004 
f 249 256 257
f 250 257 258
f 251 258 259
f 252 259 260
f 253 260 261
f 249 257 250
f 250 258 251
f 251 259 252
f 252 260 253
f 253 261 254
f 254 261 262
usemtl APPID_3780846448_1876378712688 
o vid_10000006 
f 263 271 272
f 264 272 273
f 265 273 274
f 266 274 275
f 267 275 276
f 268 276 277
f 263 272 264
f 264 273 265
f 265 274 266
f 266 275 267
f 267 276 268
f 268 277 269
f 269 277 278
usemtl APPID_3780846448_1876378712688 
o vid_10000008 
f 279 285 286
f 280 286 287
f 281 287 288
f 282 288 289
f 279 286 280
f 280 287 281
f 281 288 282
f 282 289 283
f 283 289 290
usemtl APPID_3780846448_1876378712688 
o vid_10000010 
f 291 297 298
f 292 298 299
f 293 299 300
f 294 300 301
f 291 298 292
f 292 299 293
f 293 300 294
f 294 301 295
f 295 301 302
usemtl APPID_3780846448_1876378712688 
o vid_10000012 
f 303 312 313
f 304 313 314
f 305 314 315
f 306 315 316
f 307 316 317
f 308 317 318
f 309 318 319
f 303 313 304
f 304 314 305
f 305 315 306
f 306 316 307
f 307 317 308
f 308 318 309
f 309 319 310
f 310 319 320
usemtl APPID_3780846448_1876378712688 
o vid_10000014 
f 321 327 328
f 322 328 329
f 323 329 330
f 324 330 331
f 321 328 322
f 322 329 323
f 323 330 324
f 324 331 325
f 325 331 332
usemtl APPID_3780846448_1876378712688 
o vid_10000016 
f 333 341 342
f 334 342 343
f 335 343 344
f 336 344 345
f 337 345 346
f 338 346 347
f 333 342 334
f 334 343 335
f 335 344 336
f 336 345 337
f 337 346 338
f 338 347 339
f 339 347 348
usemtl APPID_3780846448_1876378712688 
o vid_10000018 
f 349 357 358
f 350 358 359
f 351 359 360
f 352 360 361
f 353 361 362
f 354 362 363
f 349 358 350
f 350 359 351
f 351 360 352
f 352 361 353
f 353 362 354
f 354 363 355
f 355 363 364
usemtl APPID_3780846448_1876378712688 
o vid_10000020 
f 365 373 374
f 366 374 375
f 367 375 376
f 368 376 377
f 369 377 378
f 370 378 379
f 365 374 366
f 366 375 367
f 367 376 368
f 368 377 369
f 369 378 370
f 370 379 371
f 371 379 380
usemtl APPID_3780846448_1876378712688 
o vid_10000022 
f 381 389 390
f 382 390 391
f 383 391 392
f 384 392 393
f 385 393 394
f 386 394 395
f 381 390 382
f 382 391 383
f 383 392 384
f 384 393 385
f 385 394 386
f 386 395 387
f 387 395 396
usemtl APPID_3780846448_1876378712688 
o vid_10000024 
f 397 405 406
f 398 406 407
f 399 407 408
f 400 408 409
f 401 409 410
f 402 410 411
f 397 406 398
f 398 407 399
f 399 408 400
f 400 409 401
f 401 410 402
f 402 411 403
f 403 411 412
usemtl APPID_3780846448_1876378712688 
o vid_10000026 
f 413 419 420
f 414 420 421
f 415 421 422
f 416 422 423
f 413 420 414
f 414 421 415
f 415 422 416
f 416 423 417
f 417 423 424
usemtl APPID_3780846448_1876378712688 
o vid_10000028 
f 425 429 430
f 426 430 431
f 425 430 426
f 426 431 427
f 427 431 432
usemtl APPID_3780846448_1876378712688 
o vid_10000030 
f 433 438 439
f 434 439 440
f 435 440 441
f 433 439 434
f 434 440 435
f 435 441 436
f 436 441 442
usemtl APPID_3780846448_1876378712688 
o vid_10000032 
f 443 448 449
f 444 449 450
f 445 450 451
f 443 449 444
f 444 450 445
f 445 451 446
f 446 451 452
usemtl APPID_3780846448_1876378712688 
o vid_10000034 
f 453 457 458
f 454 458 459
f 453 458 454
f 454 459 455
f 455 459 460
usemtl APPID_3780846448_1876378712688 
o vid_10000036 
f 461 464 465
f 461 465 462
f 462 465 466
usemtl APPID_3780846448_1876378712688 
o vid_10000038 
f 467 470 471
f 467 471 468
f 468 471 472
usemtl APPID_3780846448_1876378712688 
o vid_10000040 
f 473 476 477
f 473 477 474
f 474 477 478
usemtl APPID_3780846448_1876378712688 
o vid_10000042 
f 479 483 484
f 480 484 485
f 479 484 480
f 480 485 481
f 481 485 486
