# File generated by PlantGL - Fri Sep  4 14:43:17 2026
v    58.201987 19.124129 0.000000
v    61.657533 18.880811 0.000000
v    60.140480 21.995060 0.000000
v    61.798013 20.875871 0.331061
v    58.342467 21.119189 0.331061
v    59.859520 18.004940 0.331061
v    61.382963 21.452807 -0.085431
v    62.235815 21.776765 0.779005
v    62.583846 21.899311 1.127740
v    63.810978 22.354128 1.948078
v    64.970165 22.762462 2.330150
v    66.278792 23.058605 2.660950
v    61.996453 20.193417 -0.085431
v    62.777261 20.665268 0.779005
v    63.088291 20.863772 1.127740
v    64.202855 21.549672 1.948078
v    65.238934 22.210725 2.330150
v    66.278792 23.058605 2.660950
v    61.503548 21.204422 0.331061
v    58.205166 20.699900 0.331061
v    60.291286 18.095678 0.331061
v    58.496452 18.795578 0.718770
v    61.794834 19.300100 0.718770
v    59.708714 21.904322 0.718770
v    59.284579 18.077173 0.145004
v    57.814145 17.103036 1.816286
v    57.356610 16.791345 2.163953
v    56.086034 15.964305 3.114250
v    55.249451 15.404821 3.368200
v    53.785363 14.480102 3.804015
v    53.210520 14.206216 3.961007
v    52.108342 13.678361 3.708395
v    57.967383 19.721502 0.145004
v    56.695796 18.499134 1.816286
v    56.291758 18.120659 2.163953
v    55.207343 17.061226 3.114250
v    54.478754 16.366925 3.368200
v    53.256779 15.139963 3.804015
v    52.864032 14.638758 3.961007
v    52.108342 13.678361 3.708395
v    58.272844 19.328938 0.718770
v    61.444735 18.839770 0.718770
v    60.282421 21.831292 0.718770
v    61.727156 20.671062 1.487000
v    58.555265 21.160230 1.487000
v    59.717579 18.168708 1.487000
v    60.991235 21.948649 0.715108
v    63.271528 22.605103 2.963498
v    64.482466 22.970721 3.757864
v    65.944975 23.378981 4.709659
v    67.816774 23.926686 5.201771
v    70.068973 24.522283 5.788077
v    72.549817 24.876054 5.381723
v    62.046846 19.231755 0.715108
v    64.172178 20.287044 2.963498
v    65.312309 20.834901 3.757864
v    66.666809 21.521149 4.709659
v    68.417381 22.380866 5.201771
v    70.480900 23.462079 5.788077
v    72.549817 24.876054 5.381723
v    61.731622 20.409625 1.487000
v    58.779443 21.294816 1.487000
v    59.488935 18.295559 1.487000
v    58.268378 19.590375 2.857581
v    61.220557 18.705184 2.857581
v    60.511065 21.704441 2.857581
v    59.005751 17.747463 1.843500
v    55.919704 17.306264 4.797346
v    53.657566 16.952967 6.235172
v    52.303862 16.770584 7.091382
v    49.057052 16.291948 7.919498
v    46.420204 15.973372 8.587951
v    42.720051 15.912328 7.820747
v    58.101902 21.568335 1.843500
v    55.145259 20.580101 4.797346
v    52.964585 19.882426 6.235172
v    51.672641 19.438966 7.091382
v    48.555500 18.412172 7.919498
v    46.055388 17.515570 8.587951
v    42.720051 15.912328 7.820747
v    58.876148 18.716648 2.857581
v    61.673341 19.668392 2.857581
v    59.450510 21.614960 2.857581
v    61.123852 21.283352 4.464214
v    58.326659 20.331608 4.464214
v    60.549490 18.385040 4.464214
v    58.815942 22.804201 3.163197
v    59.646509 23.596021 4.250535
v    61.711195 25.563436 6.952838
v    65.062004 28.840041 9.895977
v    65.950158 29.725727 10.212918
v    70.431460 34.033338 11.781368
v    73.354958 36.705308 11.009619
v    76.788543 39.171222 10.135791
v    62.935911 19.196279 3.163197
v    63.611223 20.124058 4.250535
v    65.289024 22.430274 6.952838
v    68.094879 26.184104 9.895977
v    68.855639 27.181352 10.212918
v    72.534329 32.191822 11.781368
v    74.797214 35.442301 11.009619
v    76.788543 39.171222 10.135791
v    61.375838 20.878433 4.464214
v    58.551335 20.752294 4.464214
v    60.072827 18.369272 4.464214
v    58.624162 19.121567 10.752587
v    61.448665 19.247706 10.752587
v    59.927173 21.630728 10.752587
v    60.969354 16.324565 9.122588
v    57.827847 14.696297 12.475396
v    56.520475 14.019074 13.870500
v    51.342120 11.251216 17.557858
v    47.502097 9.150045 18.663933
v    42.939678 6.761415 19.963392
v    40.582603 5.525066 19.400536
v    36.128725 3.334029 18.353553
v    32.956426 2.213701 17.658116
v    31.324787 1.691695 16.679759
v    57.073753 22.426014 9.122588
v    54.274689 20.261398 12.475396
v    53.110190 19.360401 13.870500
v    48.420220 15.827615 17.557858
v    44.898219 13.228345 18.663933
v    40.811458 10.094720 19.963392
v    38.698021 8.476774 19.400536
v    34.836181 5.358463 18.353553
v    32.484937 2.952167 17.658116
v    31.324787 1.691695 16.679759
v    58.735263 19.088754 10.752587
v    61.421531 19.360328 10.752587
v    59.843206 21.550918 10.752587
v    61.264737 20.911246 22.165711
v    58.578469 20.639672 22.165711
v    60.156794 18.449082 22.165711
v    58.036498 24.404995 20.171430
v    59.754001 25.647294 22.188112
v    62.879298 27.687342 25.735164
v    68.060531 30.840163 29.626788
v    79.125116 37.712088 33.434997
v    82.049049 39.534697 32.705375
v    88.068610 43.136473 31.221955
v    90.299152 44.471107 30.672275
v    94.460556 46.740169 27.997153
v    99.701396 48.604949 23.173786
v    63.556930 16.743073 20.171430
v    65.279018 17.979008 22.188112
v    68.203468 20.297817 25.735164
v    72.834271 24.214591 29.626788
v    82.855295 32.534897 33.434997
v    85.509746 34.731526 32.705375
v    90.831787 39.301402 31.221955
v    92.803864 40.994765 30.672275
v    96.273530 44.223906 27.997153
v    99.701396 48.604949 23.173786
v    61.244614 20.810576 22.165711
v    58.675713 20.672580 22.165711
v    60.079672 18.516844 22.165711
v    58.755386 19.189424 39.904430
v    61.324287 19.327420 39.904430
v    59.920328 21.483156 39.904430
v    62.370337 14.901698 37.521675
v    60.033217 13.528507 40.097887
v    55.963240 11.372122 44.462237
v    53.676326 10.122439 46.098864
v    48.430619 7.257334 49.852466
v    37.731553 1.276788 52.949653
v    27.620295 -4.142461 51.294310
v    22.134862 -6.902807 49.999025
v    17.008142 -8.731066 46.871803
v    14.998536 -9.307955 45.067135
v    56.295508 24.229412 37.521675
v    54.094571 22.647116 40.097887
v    50.476642 19.796625 44.462237
v    48.408967 18.210309 46.098864
v    43.667434 14.571058 49.852466
v    33.871449 7.203859 52.949653
v    24.826508 0.147314 51.294310
v    20.083857 -3.753552 49.999025
v    16.338742 -7.703223 46.871803
v    14.998536 -9.307955 45.067135
v    58.948921 19.417031 39.904430
v    61.030405 19.381223 39.904430
v    60.020674 21.201745 39.904430
v    61.051079 20.582969 66.592971
v    58.969595 20.618777 66.592971
v    59.979326 18.798255 66.592971
v    57.687064 24.990239 63.812830
v    65.504296 28.444838 71.910908
v    72.432704 31.614294 76.695546
v    74.635898 32.566726 78.200096
v    84.254207 36.867477 80.858638
v    89.552722 39.072424 82.302995
v    92.021817 40.102826 81.738656
v    100.709200 42.578891 79.871373
v    63.008614 15.395611 63.812830
v    70.078363 20.197905 71.910908
v    76.435595 24.397177 76.695546
v    78.410131 25.761875 78.200096
v    87.151338 31.644020 80.858638
v    91.827348 34.971328 82.302995
v    94.008819 36.520309 81.738656
v    100.709200 42.578891 79.871373
v    60.898962 20.239130 66.592971
v    59.343427 20.658959 66.592971
v    59.757611 19.101911 66.592971
v    59.101038 19.760870 106.256849
v    60.656573 19.341041 106.256849
v    60.242389 20.898089 106.256849
v    61.504555 14.289653 103.089119
v    51.906392 12.644994 112.316183
v    47.764387 11.880030 114.961319
v    40.646147 10.719440 119.482173
v    33.868874 9.527708 121.218507
v    24.412871 8.118548 123.624620
v    14.143641 7.801926 122.479729
v    58.468488 25.703176 103.089119
v    49.321724 22.361569 112.316183
v    45.347076 20.967454 114.961319
v    38.592985 18.437918 119.482173
v    32.119322 16.104819 121.218507
v    23.212938 12.629471 123.624620
v    14.143641 7.801926 122.479729
v    59.370574 19.738719 106.256849
v    60.540989 19.585542 106.256849
v    60.088437 20.675740 106.256849
v    60.629426 20.261281 147.748111
v    59.459011 20.414458 147.748111
v    59.911563 19.324260 147.748111
v    57.027868 26.278164 144.223395
v    67.369150 29.513187 154.490297
v    76.339886 32.447271 160.417525
v    79.463327 33.396724 162.463853
v    91.952841 37.363630 165.770453
v    99.186752 39.454843 167.665589
v    102.198164 40.328665 167.004189
v    113.495804 42.206663 164.636811
v    62.347726 13.462639 144.223395
v    71.939921 18.502208 154.490297
v    80.351358 22.783645 160.417525
v    83.228973 24.325293 162.463853
v    94.856182 30.369488 165.770453
v    101.444467 34.016013 167.665589
v    104.189426 35.531720 167.004189
v    113.495804 42.206663 164.636811
v    60.351936 20.289581 147.748111
v    59.573248 20.159995 147.748111
v    60.074817 19.550424 147.748111
v    59.648064 19.710419 170.034000
v    60.426752 19.840005 170.034000
v    59.925183 20.449576 170.034000
v    64.970938 15.711221 162.243872
v    58.913112 11.744050 171.817312
v    56.737483 10.408810 175.179886
v    47.544493 4.423266 184.890422
v    38.561025 -1.294742 190.088977
v    28.007136 -6.324473 195.068883
v    56.748798 25.703817 162.243872
v    51.689277 20.523377 171.817312
v    49.960051 18.645612 175.179886
v    42.316173 10.777388 184.890422
v    34.975173 3.063244 190.088977
v    28.007136 -6.324473 195.068883
mtllib usm_39_2.5D_2018-09-08_1.mtl
usemtl APPID_2856256736_2442503481824 
o vid_3 
f 3 2 1
f 4 5 6
f 1 6 5
f 1 5 3
f 3 5 4
f 4 2 3
f 2 4 6
f 6 1 2
usemtl APPID_2856254160_2442503482464 
o vid_4 
f 7 13 14
f 8 14 15
f 9 15 16
f 10 16 17
f 7 14 8
f 8 15 9
f 9 16 10
f 10 17 11
f 11 17 18
usemtl APPID_2856256736_2442503481824 
o vid_5 
f 21 20 19
f 22 23 24
f 19 24 23
f 19 23 21
f 21 23 22
f 22 20 21
f 20 22 24
f 24 19 20
usemtl APPID_2856254160_2442503482464 
o vid_6 
f 25 33 34
f 26 34 35
f 27 35 36
f 28 36 37
f 29 37 38
f 30 38 39
f 25 34 26
f 26 35 27
f 27 36 28
f 28 37 29
f 29 38 30
f 30 39 31
f 31 39 40
usemtl APPID_2856256736_2442503481824 
o vid_7 
f 43 42 41
f 44 45 46
f 41 46 45
f 41 45 43
f 43 45 44
f 44 42 43
f 42 44 46
f 46 41 42
usemtl APPID_2856254160_2442503482464 
o vid_8 
f 47 54 55
f 48 55 56
f 49 56 57
f 50 57 58
f 51 58 59
f 47 55 48
f 48 56 49
f 49 57 50
f 50 58 51
f 51 59 52
f 52 59 60
usemtl APPID_2856256736_2442503481824 
o vid_9 
f 63 62 61
f 64 65 66
f 61 66 65
f 61 65 63
f 63 65 64
f 64 62 63
f 62 64 66
f 66 61 62
usemtl APPID_2856254160_2442503482464 
o vid_10 
f 67 74 75
f 68 75 76
f 69 76 77
f 70 77 78
f 71 78 79
f 67 75 68
f 68 76 69
f 69 77 70
f 70 78 71
f 71 79 72
f 72 79 80
usemtl APPID_2856256736_2442503481824 
o vid_11 
f 83 82 81
f 84 85 86
f 81 86 85
f 81 85 83
f 83 85 84
f 84 82 83
f 82 84 86
f 86 81 82
usemtl APPID_2856254160_2442503482464 
o vid_12 
f 87 95 96
f 88 96 97
f 89 97 98
f 90 98 99
f 91 99 100
f 92 100 101
f 87 96 88
f 88 97 89
f 89 98 90
f 90 99 91
f 91 100 92
f 92 101 93
f 93 101 102
usemtl APPID_2856256736_2442503481824 
o vid_13 
f 105 104 103
f 106 107 108
f 103 108 107
f 103 107 105
f 105 107 106
f 106 104 105
f 104 106 108
f 108 103 104
usemtl APPID_2856254160_2442503482464 
o vid_14 
f 109 119 120
f 110 120 121
f 111 121 122
f 112 122 123
f 113 123 124
f 114 124 125
f 115 125 126
f 116 126 127
f 109 120 110
f 110 121 111
f 111 122 112
f 112 123 113
f 113 124 114
f 114 125 115
f 115 126 116
f 116 127 117
f 117 127 128
usemtl APPID_2856256736_2442503481824 
o vid_15 
f 131 130 129
f 132 133 134
f 129 134 133
f 129 133 131
f 131 133 132
f 132 130 131
f 130 132 134
f 134 129 130
usemtl APPID_2856254160_2442503482464 
o vid_16 
f 135 145 146
f 136 146 147
f 137 147 148
f 138 148 149
f 139 149 150
f 140 150 151
f 141 151 152
f 142 152 153
f 135 146 136
f 136 147 137
f 137 148 138
f 138 149 139
f 139 150 140
f 140 151 141
f 141 152 142
f 142 153 143
f 143 153 154
usemtl APPID_2856256736_2442503481824 
o vid_17 
f 157 156 155
f 158 159 160
f 155 160 159
f 155 159 157
f 157 159 158
f 158 156 157
f 156 158 160
f 160 155 156
usemtl APPID_2856254160_2442503482464 
o vid_18 
f 161 171 172
f 162 172 173
f 163 173 174
f 164 174 175
f 165 175 176
f 166 176 177
f 167 177 178
f 168 178 179
f 161 172 162
f 162 173 163
f 163 174 164
f 164 175 165
f 165 176 166
f 166 177 167
f 167 178 168
f 168 179 169
f 169 179 180
usemtl APPID_2856256736_2442503481824 
o vid_19 
f 183 182 181
f 184 185 186
f 181 186 185
f 181 185 183
f 183 185 184
f 184 182 183
f 182 184 186
f 186 181 182
usemtl APPID_2856254160_2442503482464 
o vid_20 
f 187 195 196
f 188 196 197
f 189 197 198
f 190 198 199
f 191 199 200
f 192 200 201
f 187 196 188
f 188 197 189
f 189 198 190
f 190 199 191
f 191 200 192
f 192 201 193
f 193 201 202
usemtl APPID_2856256736_2442503481824 
o vid_21 
f 205 204 203
f 206 207 208
f 203 208 207
f 203 207 205
f 205 207 206
f 206 204 205
f 204 206 208
f 208 203 204
usemtl APPID_2856254160_2442503482464 
o vid_22 
f 209 216 217
f 210 217 218
f 211 218 219
f 212 219 220
f 213 220 221
f 209 217 210
f 210 218 211
f 211 219 212
f 212 220 213
f 213 221 214
f 214 221 222
usemtl APPID_2856256736_2442503481824 
o vid_23 
f 225 224 223
f 226 227 228
f 223 228 227
f 223 227 225
f 225 227 226
f 226 224 225
f 224 226 228
f 228 223 224
usemtl APPID_2856254160_2442503482464 
o vid_24 
f 229 237 238
f 230 238 239
f 231 239 240
f 232 240 241
f 233 241 242
f 234 242 243
f 229 238 230
f 230 239 231
f 231 240 232
f 232 241 233
f 233 242 234
f 234 243 235
f 235 243 244
usemtl APPID_2856256736_2442503481824 
o vid_25 
f 247 246 245
f 248 249 250
f 245 250 249
f 245 249 247
f 247 249 248
f 248 246 247
f 246 248 250
f 250 245 246
usemtl APPID_2856254160_2442503482464 
o vid_26 
f 251 257 258
f 252 258 259
f 253 259 260
f 254 260 261
f 251 258 252
f 252 259 253
f 253 260 254
f 254 261 255
f 255 261 262
