# File generated by PlantGL - Fri Sep  4 14:43:47 2026
v    17.752484 178.905161 0.000000
v    22.071916 178.601013 0.000000
v    20.175600 182.493825 0.000000
v    22.247516 181.094839 0.848509
v    17.928084 181.398987 0.848509
v    19.824400 177.506175 0.848509
v    22.063318 181.447212 0.691549
v    22.452716 181.595674 1.078805
v    22.473575 181.603237 1.099390
v    22.411435 180.732586 0.691549
v    22.768371 180.947689 1.078805
v    22.787184 180.959451 1.099390
v    21.879284 181.505407 0.848509
v    17.756638 180.874804 0.848509
v    20.364078 177.619789 0.848509
v    18.120716 178.494593 1.417165
v    22.243362 179.125196 1.417165
v    19.635922 182.380211 1.417165
v    18.491111 178.057764 1.194819
v    18.158230 177.836648 1.566173
v    17.775261 178.951400 1.194819
v    17.486821 178.674806 1.566173
v    17.841416 179.161313 1.417165
v    21.805616 178.549955 1.417165
v    20.352968 182.288732 1.417165
v    22.158584 180.838687 2.253766
v    18.194384 181.450045 2.253766
v    19.647032 177.711268 2.253766
v    21.872752 181.513089 1.945001
v    22.123264 181.585540 2.187329
v    22.283090 181.628934 2.340978
v    22.403054 180.148215 1.945001
v    22.636768 180.263903 2.187329
v    22.783965 180.339799 2.340978
v    22.163962 180.511898 2.253766
v    18.474702 181.618097 2.253766
v    19.361335 177.870005 2.253766
v    17.836038 179.488102 4.112548
v    21.525298 178.381903 4.112548
v    20.638665 182.129995 4.112548
v    18.103570 178.488359 3.692223
v    17.331373 178.376994 4.417211
v    17.064440 178.342960 4.666866
v    17.627290 180.501751 3.692223
v    16.887040 180.255338 4.417211
v    16.633149 180.166168 4.666866
v    18.595695 178.396392 4.112548
v    22.090917 179.585640 4.112548
v    19.313387 182.017967 4.112548
v    21.404305 181.603608 5.999272
v    17.909083 180.414360 5.999272
v    20.686613 177.982033 5.999272
v    20.288755 182.526936 5.438355
v    20.589121 182.813857 5.824349
v    22.466747 180.619634 5.438355
v    22.711529 180.955231 5.824349
v    21.718982 181.097521 5.999272
v    18.190028 180.939922 5.999272
v    20.090990 177.962557 5.999272
v    18.281018 178.902479 11.505015
v    21.809972 179.060078 11.505015
v    19.909010 182.037443 11.505015
v    19.289581 177.420808 10.771227
v    18.224379 176.867370 11.886694
v    17.445912 176.479002 12.693816
v    17.361338 180.440900 10.771227
v    16.411039 179.707498 11.886694
v    15.731144 179.164743 12.693816
v    18.420020 178.861621 11.505015
v    21.775855 179.200887 11.505015
v    19.804125 181.937492 11.505015
v    21.579980 181.138379 19.658889
v    18.224145 180.799113 19.658889
v    20.195875 178.062508 19.658889
v    20.044619 183.153665 18.717867
v    22.392742 184.546238 21.254726
v    23.005616 179.044037 18.717867
v    25.069873 180.830593 21.254726
v    21.554633 181.012481 19.658889
v    18.345849 180.840111 19.658889
v    20.099518 178.147408 19.658889
v    18.445367 178.987519 30.873903
v    21.654151 179.159889 30.873903
v    19.900482 181.852592 30.873903
v    20.233710 176.397340 29.690896
v    16.884467 174.618584 33.214874
v    15.846080 174.053172 34.011732
v    13.468178 172.802793 35.820147
v    16.799489 181.670481 29.690896
v    13.818369 179.326483 33.214874
v    12.881371 178.605392 34.011732
v    10.776268 176.936139 35.820147
v    18.458123 179.144816 30.873903
v    21.511550 179.092287 30.873903
v    20.030327 181.762897 30.873903
v    21.541877 180.855184 48.399763
v    18.488450 180.907713 48.399763
v    19.969673 178.237103 48.399763
v    19.448415 184.413658 46.941849
v    23.720814 186.307995 51.284729
v    27.938293 188.230751 54.408619
v    29.682244 188.995437 55.690401
v    37.324942 192.456835 58.379675
v    23.452113 177.195086 46.941849
v    27.321308 179.816391 51.284729
v    31.185531 182.376058 54.408619
v    32.757633 183.450583 55.690401
v    39.740736 188.101218 58.379675
v    21.614895 180.429572 48.399763
v    18.820532 181.183754 48.399763
v    19.564573 178.386674 48.399763
v    18.385105 179.570428 69.768155
v    21.179468 178.816246 69.768155
v    20.435427 181.613326 69.768155
v    19.806314 174.719993 68.006851
v    14.242508 173.759593 73.253478
v    7.900520 172.596769 77.599005
v    6.469284 172.355770 78.575964
v    -9.280198 169.508499 83.706029
v    17.208514 184.485932 68.006851
v    11.902877 182.554994 73.253478
v    5.821332 180.413082 77.599005
v    4.459517 179.911112 78.575964
v    -10.623092 174.556856 83.706029
v    18.541706 179.394647 69.768155
v    21.253398 179.039757 69.768155
v    20.204896 181.565597 69.768155
v    21.458294 180.605353 89.627216
v    18.746602 180.960243 89.627216
v    19.795104 178.434403 89.627216
v    19.187633 185.684422 87.541313
v    25.566842 187.688609 93.754869
v    27.714549 188.388005 95.277163
v    34.499554 190.489073 100.058263
v    49.386260 195.296000 105.072539
v    51.095042 195.773782 105.638984
v    23.452090 175.411354 87.541313
v    29.375305 178.514031 93.754869
v    31.386941 179.541222 95.277163
v    37.665267 182.862878 100.058263
v    51.579844 190.011662 105.072539
v    53.124643 190.884476 105.638984
v    21.148136 180.944713 89.627216
v    18.607786 180.521958 89.627216
v    20.244078 178.533328 89.627216
v    18.851864 179.055287 113.545098
v    21.392214 179.478042 113.545098
v    19.755922 181.466672 113.545098
v    23.047228 174.230414 111.123446
v    16.637799 169.850669 118.337142
v    7.653057 163.733763 125.655136
v    -6.476140 153.913788 131.170414
v    -11.165478 150.923396 132.945963
v    -11.714498 150.568835 132.938522
v    14.925244 184.101288 111.123446
v    9.393161 178.655279 118.337142
v    1.660484 171.016704 125.655136
v    -10.696659 159.043101 131.170414
v    -14.534142 155.017427 132.945963
v    -14.987796 154.546965 132.938522
v    19.036323 178.991726 113.545098
v    21.355030 179.669568 113.545098
v    19.608648 181.338706 113.545098
v    20.963677 181.008274 134.012573
v    18.644970 180.330432 134.012573
v    20.391352 178.661294 134.012573
v    15.504278 185.952251 131.256524
v    22.152469 191.770893 139.466333
v    24.514098 193.881650 141.601065
v    31.463079 199.913276 147.794844
v    47.065567 213.788726 154.487511
v    50.951781 216.977821 156.092435
v    54.830464 220.198179 156.035041
v    26.149409 175.777965 131.256524
v    31.661549 182.682409 139.466333
v    33.663383 185.137047 141.601065
v    39.374691 192.351602 147.794844
v    52.530594 208.565422 154.487511
v    55.540740 212.591837 156.092435
v    58.582457 216.612141 156.035041
v    20.912312 180.929805 134.012573
v    18.738610 180.325183 134.012573
v    20.349079 178.745013 134.012573
v    19.087688 179.070195 146.906041
v    21.261390 179.674817 146.906041
v    19.650921 181.254987 146.906041
v    24.651128 173.920967 143.831219
v    20.223046 170.146821 149.237832
v    17.101903 167.573850 152.990597
v    6.559371 158.662804 162.282406
v    -4.007326 149.511084 166.763101
v    -14.301555 141.287010 170.969489
v    13.833734 184.534843 143.831219
v    10.144362 180.035886 149.237832
v    7.631128 176.866443 152.990597
v    -1.078101 166.156586 162.282406
v    -10.027500 155.417996 166.763101
v    -18.054596 144.969442 170.969489
v    19.188946 179.101354 146.906041
v    21.183778 179.746930 146.906041
v    19.627277 181.151717 146.906041
v    20.811054 180.898646 158.249126
v    18.816222 180.253070 158.249126
v    20.372723 178.848283 158.249126
v    14.352997 186.401720 154.886253
v    20.619121 192.210392 162.826041
v    33.400152 203.923597 175.065962
v    46.595206 216.351159 180.875963
v    56.793359 225.219455 185.190508
v    59.140045 226.994568 185.157386
v    26.945306 175.036797 154.886253
v    32.083190 181.863739 162.826041
v    42.428889 195.774900 175.065962
v    53.442895 210.170922 180.875963
v    61.222543 221.221989 185.190508
v    62.748539 223.737798 185.157386
v    21.097812 180.213714 158.249126
v    19.266012 180.843876 158.249126
v    19.636176 178.942409 158.249126
v    18.902188 179.786286 164.656247
v    20.733988 179.156124 164.656247
v    20.363824 181.057591 164.656247
v    20.775349 171.520004 161.050804
v    9.249546 170.481204 171.790816
v    -6.857246 168.879734 182.686113
v    -17.140095 167.732213 186.002568
v    -32.923499 166.602647 191.054253
v    -37.858314 166.935706 192.591535
v    17.537631 188.151579 161.050804
v    6.463845 184.790850 171.790816
v    -9.067466 180.233236 182.686113
v    -19.029853 177.439557 186.002568
v    -34.084366 172.565814 191.054253
v    -38.533864 170.405883 192.591535
v    19.316314 179.435981 164.656247
v    20.830298 179.689920 164.656247
v    19.853388 180.874099 164.656247
v    20.683686 180.564019 168.481744
v    19.169702 180.310080 168.481744
v    20.146612 179.125901 168.481744
v    15.106562 186.896548 164.692395
v    25.254735 193.608015 175.980230
v    39.327638 203.166041 187.431270
v    43.108046 205.800643 188.908251
v    57.118968 214.760613 194.217610
v    66.283110 218.964850 197.351364
v    25.840727 173.884936 164.692395
v    34.358717 182.572458 175.980230
v    46.417352 194.572116 187.431270
v    49.722471 197.782848 188.908251
v    61.182171 209.835328 194.217610
v    67.051602 218.033309 197.351364
v    20.528403 180.396794 168.481744
v    19.392165 180.259213 168.481744
v    20.079432 179.343993 168.481744
v    19.471597 179.603206 171.337909
v    20.607835 179.740787 171.337909
v    19.920568 180.656007 171.337909
v    25.024860 172.675228 167.433744
v    14.264320 166.245119 179.063596
v    -0.669588 157.069929 190.861598
v    -6.615303 153.317670 193.115177
v    -21.457277 144.755098 198.585408
v    -33.333207 139.950468 202.567209
v    14.367000 186.868101 167.433744
v    5.191305 178.327482 179.063596
v    -7.784353 166.544529 190.861598
v    -13.045774 161.881008 193.115177
v    -25.407479 150.015507 198.585408
v    -33.333207 139.950468 202.567209
v    19.619891 179.733770 171.337909
v    20.420616 179.803931 171.337909
v    19.959493 180.462299 171.337909
v    20.380109 180.266230 172.822387
v    19.579384 180.196069 172.822387
v    20.040507 179.537701 172.822387
v    15.443548 186.820497 168.879183
v    26.520663 192.951676 180.625328
v    40.153107 200.717871 191.186211
v    55.176662 208.693758 197.325508
v    67.325370 213.146821 201.347125
v    24.852505 173.386860 168.879183
v    34.400347 181.701458 180.625328
v    46.358093 191.858703 191.186211
v    58.988349 203.251622 197.325508
v    67.325370 213.146821 201.347125
v    20.241065 180.171982 172.822387
v    19.730527 180.122778 172.822387
v    20.028408 179.705241 172.822387
v    19.758935 179.828018 173.583000
v    20.269473 179.877222 173.583000
v    19.971592 180.294759 173.583000
v    23.856533 174.326973 165.767098
v    14.015834 168.927454 178.666510
v    12.432596 168.023778 180.200069
v    0.125916 161.780860 191.736832
v    -11.357689 157.628676 197.219929
v    15.890659 185.492668 165.767098
v    7.582805 177.944575 178.666510
v    6.213118 176.741565 180.200069
v    -3.694674 167.136147 191.736832
v    -11.357689 157.628676 197.219929
v    22.473575 181.603237 1.099390
v    23.193535 181.873497 1.633424
v    24.003383 182.189629 1.912084
v    24.577479 182.387862 2.105980
v    25.186155 182.526346 2.099014
v    22.787184 180.959451 1.099390
v    23.443792 181.359763 1.633424
v    24.191930 181.802576 1.912084
v    24.701907 182.132431 2.105980
v    25.186155 182.526346 2.099014
v    18.158230 177.836648 1.566173
v    17.910613 177.672168 1.842408
v    17.063494 177.114708 2.529059
v    15.928231 176.347578 2.968238
v    15.315130 175.967825 3.198473
v    15.088695 175.825767 3.195430
v    14.393518 175.508910 3.186942
v    17.486821 178.674806 1.566173
v    17.272262 178.469058 1.842408
v    16.543350 177.764034 2.529059
v    15.546932 176.823574 2.968238
v    15.042520 176.308139 3.198473
v    14.854465 176.118169 3.195430
v    14.393518 175.508910 3.186942
v    22.283090 181.628934 2.340978
v    22.827931 181.776861 2.864761
v    24.161097 182.156496 3.797819
v    25.103068 182.437030 4.112858
v    26.416146 182.771980 4.545477
v    26.997911 182.836779 4.727414
v    27.442506 182.891680 4.722437
v    22.783965 180.339799 2.340978
v    23.285756 180.598526 2.864761
v    24.525517 181.218565 3.797819
v    25.409792 181.647593 4.112858
v    26.604566 182.287033 4.545477
v    27.077471 182.632011 4.727414
v    27.442506 182.891680 4.722437
v    17.064440 178.342960 4.666866
v    16.767806 178.305139 4.944300
v    14.899039 178.043466 6.214480
v    13.029433 177.758696 6.820662
v    11.196136 177.553502 7.409591
v    9.762795 177.578330 7.466532
v    16.633149 180.166168 4.666866
v    16.351009 180.067077 4.944300
v    14.563067 179.463735 6.214480
v    12.764025 178.880664 6.820662
v    11.033098 178.242721 7.409591
v    9.762795 177.578330 7.466532
v    20.589121 182.813857 5.824349
v    21.586681 183.766760 7.106294
v    23.417052 185.500803 8.804272
v    25.931901 187.941464 9.927570
v    27.250875 189.123591 10.493017
v    27.787898 189.610486 10.484764
v    29.374389 190.704829 10.463350
v    22.711529 180.955231 5.824349
v    23.524484 182.069796 7.106294
v    25.001868 184.112954 8.804272
v    27.089384 186.927838 9.927570
v    28.087151 188.391252 10.493017
v    28.498934 188.987821 10.484764
v    29.374389 190.704829 10.463350
v    17.445912 176.479002 12.693816
v    14.262552 174.845563 15.174495
v    11.530828 173.398669 16.165343
v    8.627321 172.005398 17.193474
v    8.044198 171.819526 17.383699
v    6.259530 171.227102 17.362806
v    15.731144 179.164743 12.693816
v    12.909777 176.964334 15.174495
v    10.447688 175.095127 16.165343
v    7.961954 173.047522 17.193474
v    7.547956 172.596760 17.383699
v    6.259530 171.227102 17.362806
v    22.392742 184.546238 21.254726
v    23.767257 185.377375 22.410454
v    26.270454 186.848038 24.364694
v    32.607764 190.674614 26.737596
v    33.870420 191.370205 27.197815
v    36.334244 192.746013 27.165688
v    39.340969 193.935214 27.129764
v    25.069873 180.830593 21.254726
v    26.293370 181.871331 22.410454
v    28.480790 183.780268 24.364694
v    34.116655 188.580393 26.737596
v    35.176168 189.557930 27.197815
v    37.261148 191.459545 27.165688
v    39.340969 193.935214 27.129764
v    13.468178 172.802793 35.820147
v    12.193168 172.132352 36.789804
v    4.490480 167.962950 39.597267
v    2.369909 166.921697 40.351461
v    -0.288598 165.597306 40.317647
v    -4.134683 164.281884 40.272485
v    10.776268 176.936139 35.820147
v    9.647530 176.041100 36.789804
v    2.719607 170.682071 39.597267
v    0.909823 169.163615 40.351461
v    -1.376435 167.267646 40.317647
v    -4.134683 164.281884 40.272485
v    37.324942 192.456835 58.379675
v    42.156324 194.644980 60.079717
v    49.083837 197.535572 59.994221
v    51.073372 198.062012 59.971355
v    53.885898 198.794425 59.456530
v    39.740736 188.101218 58.379675
v    44.155149 191.041147 60.079717
v    50.275342 195.387317 59.994221
v    51.775372 196.796323 59.971355
v    53.885898 198.794425 59.456530
v    -9.280198 169.508499 83.706029
v    -11.755961 169.053127 83.856081
v    -19.784868 167.881495 83.763707
v    -21.218458 167.863912 83.747777
v    -25.435086 167.828740 83.000820
v    -25.757151 167.828316 82.905031
v    -10.623092 174.556856 83.706029
v    -12.997896 173.721948 83.856081
v    -20.547782 170.749525 83.763707
v    -21.800635 170.052498 83.747777
v    -25.477442 167.987968 83.000820
v    -25.757151 167.828316 82.905031
v    51.095042 195.773782 105.638984
v    53.204515 196.363598 106.338256
v    58.442523 197.860641 106.276235
v    65.533706 198.901514 106.196603
v    53.124643 190.884476 105.638984
v    55.031682 191.961956 106.338256
v    59.790028 194.614502 106.276235
v    65.533706 198.901514 106.196603
v    -11.714498 150.568835 132.938522
v    -15.633011 148.038233 132.885417
v    -23.158495 144.488185 132.792967
v    -14.987796 154.546965 132.938522
v    -18.225651 151.189141 132.885417
v    -23.158495 144.488185 132.792967
v    54.830464 220.198179 156.035041
v    56.660320 221.717455 156.007964
v    64.682196 226.749996 155.902749
v    58.582457 216.612141 156.035041
v    60.017455 218.508809 156.007964
v    64.682196 226.749996 155.902749
v    -14.301555 141.287010 170.969489
v    -15.847031 140.319267 171.539720
v    -23.521954 135.643532 171.439868
v    -18.054596 144.969442 170.969489
v    -18.992815 143.405867 171.539720
v    -23.521954 135.643532 171.439868
v    59.140045 226.994568 185.157386
v    67.382740 232.499969 185.047255
v    62.748539 223.737798 185.157386
v    67.382740 232.499969 185.047255
v    -37.858314 166.935706 192.591535
v    -40.906058 167.141403 193.540962
v    -44.910465 167.363687 193.496402
v    -38.533864 170.405883 192.591535
v    -41.281876 169.071909 193.540962
v    -44.910465 167.363687 193.496402
v    66.283110 218.964850 197.351364
v    68.420649 219.945490 198.082313
v    67.051602 218.033309 197.351364
v    68.420649 219.945490 198.082313
mtllib usm_18_2.5D_2018-08-27_4.mtl
usemtl APPID_2970082944_2459690659552 
o vid_3 
f 3 2 1
f 4 5 6
f 1 6 5
f 1 5 3
f 3 5 4
f 4 2 3
f 2 4 6
f 6 1 2
usemtl APPID_2970080144_2459690659936 
o vid_4 
f 7 10 11
f 7 11 8
f 8 11 12
f 8 12 9
usemtl APPID_2970082944_2459690659552 
o vid_5 
f 15 14 13
f 16 17 18
f 13 18 17
f 13 17 15
f 15 17 16
f 16 14 15
f 14 16 18
f 18 13 14
usemtl APPID_2970080144_2459690659936 
o vid_6 
f 19 21 22
f 19 22 20
f 19 21 22
f 19 22 20
usemtl APPID_2970082944_2459690659552 
o vid_7 
f 25 24 23
f 26 27 28
f 23 28 27
f 23 27 25
f 25 27 26
f 26 24 25
f 24 26 28
f 28 23 24
usemtl APPID_2970080144_2459690659936 
o vid_8 
f 29 32 33
f 29 33 30
f 30 33 34
f 30 34 31
usemtl APPID_2970082944_2459690659552 
o vid_9 
f 37 36 35
f 38 39 40
f 35 40 39
f 35 39 37
f 37 39 38
f 38 36 37
f 36 38 40
f 40 35 36
usemtl APPID_2970080144_2459690659936 
o vid_10 
f 41 44 45
f 41 45 42
f 42 45 46
f 42 46 43
usemtl APPID_2970082944_2459690659552 
o vid_11 
f 49 48 47
f 50 51 52
f 47 52 51
f 47 51 49
f 49 51 50
f 50 48 49
f 48 50 52
f 52 47 48
usemtl APPID_2970080144_2459690659936 
o vid_12 
f 53 55 56
f 53 56 54
f 53 55 56
f 53 56 54
usemtl APPID_2970082944_2459690659552 
o vid_13 
f 59 58 57
f 60 61 62
f 57 62 61
f 57 61 59
f 59 61 60
f 60 58 59
f 58 60 62
f 62 57 58
usemtl APPID_2970080144_2459690659936 
o vid_14 
f 63 66 67
f 63 67 64
f 64 67 68
f 64 68 65
usemtl APPID_2970082944_2459690659552 
o vid_15 
f 71 70 69
f 72 73 74
f 69 74 73
f 69 73 71
f 71 73 72
f 72 70 71
f 70 72 74
f 74 69 70
usemtl APPID_2970080144_2459690659936 
o vid_16 
f 75 77 78
f 75 78 76
f 75 77 78
f 75 78 76
usemtl APPID_2970082944_2459690659552 
o vid_17 
f 81 80 79
f 82 83 84
f 79 84 83
f 79 83 81
f 81 83 82
f 82 80 81
f 80 82 84
f 84 79 80
usemtl APPID_2970080144_2459690659936 
o vid_18 
f 85 89 90
f 86 90 91
f 85 90 86
f 86 91 87
f 87 91 92
f 87 92 88
usemtl APPID_2970082944_2459690659552 
o vid_19 
f 95 94 93
f 96 97 98
f 93 98 97
f 93 97 95
f 95 97 96
f 96 94 95
f 94 96 98
f 98 93 94
usemtl APPID_2970080144_2459690659936 
o vid_20 
f 99 104 105
f 100 105 106
f 101 106 107
f 99 105 100
f 100 106 101
f 101 107 102
f 102 107 108
f 102 108 103
usemtl APPID_2970082944_2459690659552 
o vid_21 
f 111 110 109
f 112 113 114
f 109 114 113
f 109 113 111
f 111 113 112
f 112 110 111
f 110 112 114
f 114 109 110
usemtl APPID_2970080144_2459690659936 
o vid_22 
f 115 120 121
f 116 121 122
f 117 122 123
f 115 121 116
f 116 122 117
f 117 123 118
f 118 123 124
f 118 124 119
usemtl APPID_2970082944_2459690659552 
o vid_23 
f 127 126 125
f 128 129 130
f 125 130 129
f 125 129 127
f 127 129 128
f 128 126 127
f 126 128 130
f 130 125 126
usemtl APPID_2970080144_2459690659936 
o vid_24 
f 131 137 138
f 132 138 139
f 133 139 140
f 134 140 141
f 131 138 132
f 132 139 133
f 133 140 134
f 134 141 135
f 135 141 142
f 135 142 136
usemtl APPID_2970082944_2459690659552 
o vid_25 
f 145 144 143
f 146 147 148
f 143 148 147
f 143 147 145
f 145 147 146
f 146 144 145
f 144 146 148
f 148 143 144
usemtl APPID_2970080144_2459690659936 
o vid_26 
f 149 155 156
f 150 156 157
f 151 157 158
f 152 158 159
f 149 156 150
f 150 157 151
f 151 158 152
f 152 159 153
f 153 159 160
f 153 160 154
usemtl APPID_2970082944_2459690659552 
o vid_27 
f 163 162 161
f 164 165 166
f 161 166 165
f 161 165 163
f 163 165 164
f 164 162 163
f 162 164 166
f 166 161 162
usemtl APPID_2970080144_2459690659936 
o vid_28 
f 167 174 175
f 168 175 176
f 169 176 177
f 170 177 178
f 171 178 179
f 167 175 168
f 168 176 169
f 169 177 170
f 170 178 171
f 171 179 172
f 172 179 180
f 172 180 173
usemtl APPID_2970082944_2459690659552 
o vid_29 
f 183 182 181
f 184 185 186
f 181 186 185
f 181 185 183
f 183 185 184
f 184 182 183
f 182 184 186
f 186 181 182
usemtl APPID_2970080144_2459690659936 
o vid_30 
f 187 193 194
f 188 194 195
f 189 195 196
f 190 196 197
f 187 194 188
f 188 195 189
f 189 196 190
f 190 197 191
f 191 197 198
f 191 198 192
usemtl APPID_2970082944_2459690659552 
o vid_31 
f 201 200 199
f 202 203 204
f 199 204 203
f 199 203 201
f 201 203 202
f 202 200 201
f 200 202 204
f 204 199 200
usemtl APPID_2970080144_2459690659936 
o vid_32 
f 205 211 212
f 206 212 213
f 207 213 214
f 208 214 215
f 205 212 206
f 206 213 207
f 207 214 208
f 208 215 209
f 209 215 216
f 209 216 210
usemtl APPID_2970082944_2459690659552 
o vid_33 
f 219 218 217
f 220 221 222
f 217 222 221
f 217 221 219
f 219 221 220
f 220 218 219
f 218 220 222
f 222 217 218
usemtl APPID_2970080144_2459690659936 
o vid_34 
f 223 229 230
f 224 230 231
f 225 231 232
f 226 232 233
f 223 230 224
f 224 231 225
f 225 232 226
f 226 233 227
f 227 233 234
f 227 234 228
usemtl APPID_2970082944_2459690659552 
o vid_35 
f 237 236 235
f 238 239 240
f 235 240 239
f 235 239 237
f 237 239 238
f 238 236 237
f 236 238 240
f 240 235 236
usemtl APPID_2970080144_2459690659936 
o vid_36 
f 241 247 248
f 242 248 249
f 243 249 250
f 244 250 251
f 241 248 242
f 242 249 243
f 243 250 244
f 244 251 245
f 245 251 252
f 245 252 246
usemtl APPID_2970082944_2459690659552 
o vid_37 
f 255 254 253
f 256 257 258
f 253 258 257
f 253 257 255
f 255 257 256
f 256 254 255
f 254 256 258
f 258 253 254
usemtl APPID_2970080144_2459690659936 
o vid_38 
f 259 265 266
f 260 266 267
f 261 267 268
f 262 268 269
f 259 266 260
f 260 267 261
f 261 268 262
f 262 269 263
f 263 269 270
usemtl APPID_2970082944_2459690659552 
o vid_39 
f 273 272 271
f 274 275 276
f 271 276 275
f 271 275 273
f 273 275 274
f 274 272 273
f 272 274 276
f 276 271 272
usemtl APPID_2970080144_2459690659936 
o vid_40 
f 277 282 283
f 278 283 284
f 279 284 285
f 277 283 278
f 278 284 279
f 279 285 280
f 280 285 286
usemtl APPID_2970082944_2459690659552 
o vid_41 
f 289 288 287
f 290 291 292
f 287 292 291
f 287 291 289
f 289 291 290
f 290 288 289
f 288 290 292
f 292 287 288
usemtl APPID_2970080144_2459690659936 
o vid_42 
f 293 298 299
f 294 299 300
f 295 300 301
f 293 299 294
f 294 300 295
f 295 301 296
f 296 301 302
usemtl APPID_2970077344_2459690654176 
o vid_10000004 
f 303 308 309
f 304 309 310
f 305 310 311
f 303 309 304
f 304 310 305
f 305 311 306
f 306 311 312
usemtl APPID_2970077344_2459690654176 
o vid_10000006 
f 313 320 321
f 314 321 322
f 315 322 323
f 316 323 324
f 317 324 325
f 313 321 314
f 314 322 315
f 315 323 316
f 316 324 317
f 317 325 318
f 318 325 326
usemtl APPID_2970077344_2459690654176 
o vid_10000008 
f 327 334 335
f 328 335 336
f 329 336 337
f 330 337 338
f 331 338 339
f 327 335 328
f 328 336 329
f 329 337 330
f 330 338 331
f 331 339 332
f 332 339 340
usemtl APPID_2970077344_2459690654176 
o vid_10000010 
f 341 347 348
f 342 348 349
f 343 349 350
f 344 350 351
f 341 348 342
f 342 349 343
f 343 350 344
f 344 351 345
f 345 351 352
usemtl APPID_2970077344_2459690654176 
o vid_10000012 
f 353 360 361
f 354 361 362
f 355 362 363
f 356 363 364
f 357 364 365
f 353 361 354
f 354 362 355
f 355 363 356
f 356 364 357
f 357 365 358
f 358 365 366
usemtl APPID_2970077344_2459690654176 
o vid_10000014 
f 367 373 374
f 368 374 375
f 369 375 376
f 370 376 377
f 367 374 368
f 368 375 369
f 369 376 370
f 370 377 371
f 371 377 378
usemtl APPID_2970077344_2459690654176 
o vid_10000016 
f 379 386 387
f 380 387 388
f 381 388 389
f 382 389 390
f 383 390 391
f 379 387 380
f 380 388 381
f 381 389 382
f 382 390 383
f 383 391 384
f 384 391 392
usemtl APPID_2970077344_2459690654176 
o vid_10000018 
f 393 399 400
f 394 400 401
f 395 401 402
f 396 402 403
f 393 400 394
f 394 401 395
f 395 402 396
f 396 403 397
f 397 403 404
usemtl APPID_2970077344_2459690654176 
o vid_10000020 
f 405 410 411
f 406 411 412
f 407 412 413
f 405 411 406
f 406 412 407
f 407 413 408
f 408 413 414
usemtl APPID_2970077344_2459690654176 
o vid_10000022 
f 415 421 422
f 416 422 423
f 417 423 424
f 418 424 425
f 415 422 416
f 416 423 417
f 417 424 418
f 418 425 419
f 419 425 426
usemtl APPID_2970077344_2459690654176 
o vid_10000024 
f 427 431 432
f 428 432 433
f 427 432 428
f 428 433 429
f 429 433 434
usemtl APPID_2970077344_2459690654176 
o vid_10000026 
f 435 438 439
f 435 439 436
f 436 439 440
usemtl APPID_2970077344_2459690654176 
o vid_10000028 
f 441 444 445
f 441 445 442
f 442 445 446
usemtl APPID_2970077344_2459690654176 
o vid_10000030 
f 447 450 451
f 447 451 448
f 448 451 452
usemtl APPID_2970077344_2459690654176 
o vid_10000032 
f 453 455 456
f 453 456 454
f 453 455 456
usemtl APPID_2970077344_2459690654176 
o vid_10000034 
f 457 460 461
f 457 461 458
f 458 461 462
usemtl APPID_2970077344_2459690654176 
o vid_10000036 
f 463 465 466
f 463 466 464
f 463 465 466
