# File generated by PlantGL - Fri Sep  4 14:43:22 2026
v    17.752484 298.905161 0.000000
v    22.071916 298.601013 0.000000
v    20.175600 302.493825 0.000000
v    22.247516 301.094839 0.362700
v    17.928084 301.398987 0.362700
v    19.824400 297.506175 0.362700
v    22.064206 301.444186 0.198415
v    22.244229 301.512821 0.377447
v    22.558706 301.626842 0.687792
v    23.248930 301.886751 1.184245
v    23.801418 302.102420 1.374350
v    24.482956 302.337752 1.604534
v    24.717605 302.383767 1.678855
v    25.025088 302.447885 1.675365
v    22.409600 300.735152 0.198415
v    22.574615 300.834596 0.377447
v    22.858248 301.011934 0.687792
v    23.488375 301.395211 1.184245
v    23.998764 301.697304 1.374350
v    24.604184 302.088891 1.604534
v    24.785060 302.245293 1.678855
v    25.025088 302.447885 1.675365
v    21.879284 301.505407 0.362700
v    17.756638 300.874804 0.362700
v    20.364078 297.619789 0.362700
v    18.120716 298.494593 0.589630
v    22.243362 299.125196 0.589630
v    19.635922 302.380211 0.589630
v    18.486451 298.065410 0.351375
v    18.331241 297.962311 0.524524
v    17.844299 297.650257 1.061097
v    16.950906 297.062099 1.781079
v    16.338570 296.648326 2.017963
v    15.449615 296.097710 2.351788
v    15.018117 295.907223 2.498389
v    14.722620 295.772538 2.494781
v    17.781705 298.945184 0.351375
v    17.647216 298.816218 0.524524
v    17.236405 298.409125 1.061097
v    16.467436 297.665642 1.781079
v    15.929990 297.158379 2.017963
v    15.198627 296.411033 2.351788
v    14.918554 296.031514 2.498389
v    14.722620 295.772538 2.494781
v    17.841416 299.161313 0.589630
v    21.805616 298.549955 0.589630
v    20.352968 302.288732 0.589630
v    22.158584 300.838687 1.053978
v    18.194384 301.450045 1.053978
v    19.647032 297.711268 1.053978
v    21.853561 301.556811 0.716636
v    22.898491 301.841526 1.721521
v    24.355043 302.256296 2.740935
v    25.103002 302.479051 2.991087
v    26.537607 302.845001 3.463745
v    27.473929 302.949292 3.756564
v    27.645228 302.970445 3.754646
v    22.418417 300.103006 0.716636
v    23.381466 300.598463 1.721521
v    24.735967 301.275887 2.740935
v    25.438114 301.616551 2.991087
v    26.743465 302.315172 3.463745
v    27.504583 302.870397 3.756564
v    27.645228 302.970445 3.754646
v    22.163962 300.511898 1.053978
v    18.474702 301.618097 1.053978
v    19.361335 297.870005 1.053978
v    17.836038 299.488102 1.829186
v    21.525298 298.381903 1.829186
v    20.638665 302.129995 1.829186
v    18.117622 298.443310 1.362867
v    16.632868 298.251984 2.751952
v    14.559613 297.961677 4.161121
v    13.441726 297.791406 4.523574
v    11.407821 297.563758 5.176945
v    10.159576 297.597934 5.565059
v    9.864896 297.602482 5.561784
v    17.619670 300.548322 1.362867
v    16.206558 300.054141 2.751952
v    14.222970 299.384778 4.161121
v    13.147275 299.036145 4.523574
v    11.226942 298.328394 5.176945
v    10.126306 297.738578 5.565059
v    9.864896 297.602482 5.561784
v    18.595695 298.396392 1.829186
v    22.090917 299.585640 1.829186
v    19.313387 302.017967 1.829186
v    21.404305 301.603608 2.769464
v    17.909083 300.414360 2.769464
v    20.686613 297.982033 2.769464
v    20.271948 302.535120 2.140132
v    21.752925 303.909192 4.014805
v    23.803932 305.852320 5.916584
v    24.961367 306.975611 6.433571
v    27.018213 308.819053 7.315344
v    28.342445 309.709355 7.811302
v    28.747029 309.988432 7.805841
v    22.477076 300.604054 2.140132
v    23.643736 302.253379 4.014805
v    25.299267 304.542832 5.916584
v    26.260026 305.838354 6.433571
v    27.815972 308.120443 7.315344
v    28.523772 309.550564 7.811302
v    28.747029 309.988432 7.805841
v    21.474801 300.941618 2.769464
v    18.447134 300.806406 2.769464
v    20.078065 298.251976 2.769464
v    18.525199 299.058382 5.235228
v    21.552866 299.193594 5.235228
v    19.921935 301.748024 5.235228
v    19.553060 297.559227 4.406026
v    17.170698 296.370694 6.876081
v    13.860317 294.667996 9.381850
v    10.002757 292.788201 10.752780
v    7.410347 291.961866 11.598472
v    17.597780 300.621666 4.406026
v    15.517079 298.960660 6.876081
v    12.579432 296.674170 9.381850
v    9.250873 293.965833 10.752780
v    7.410347 291.961866 11.598472
v    18.891328 299.201199 5.235228
v    21.246118 299.439262 5.235228
v    19.862554 301.359538 5.235228
v    21.108672 300.798801 9.070287
v    18.753882 300.560738 9.070287
v    20.137446 298.640462 9.070287
v    19.534246 302.852862 8.003627
v    20.866856 303.643177 9.443349
v    22.493300 304.572008 11.181028
v    26.622097 306.997734 14.404370
v    30.250935 309.188888 15.763130
v    34.351315 311.447769 17.257656
v    35.427658 311.858689 17.615745
v    37.713967 312.762955 17.588428
v    22.558724 298.655128 8.003627
v    23.730234 299.669037 9.443349
v    25.126149 300.917823 11.181028
v    28.734100 304.066442 14.404370
v    31.961280 306.815065 15.763130
v    35.401970 309.989543 17.257656
v    36.132474 310.880460 17.615745
v    37.713967 312.762955 17.588428
v    20.847975 300.552258 9.070287
v    19.097744 300.458239 9.070287
v    20.054282 298.989504 9.070287
v    19.152025 299.447742 15.537192
v    20.902256 299.541761 15.537192
v    19.945718 301.010496 15.537192
v    21.098903 296.634757 14.197591
v    17.684509 294.821398 17.790120
v    11.979521 291.827492 22.236183
v    5.100468 288.103918 24.743449
v    0.810233 285.997305 26.269299
v    -4.578237 283.993013 26.205015
v    17.366470 302.365793 14.197591
v    14.327360 299.976198 17.790120
v    9.282317 295.968967 22.236183
v    3.095184 291.182969 24.743449
v    -0.566283 288.110903 26.269299
v    -4.578237 283.993013 26.205015
v    19.399901 299.667162 15.537192
v    20.588295 299.646718 15.537192
v    20.011803 300.686119 15.537192
v    20.600099 300.332838 19.657000
v    19.411705 300.353282 19.657000
v    19.988197 299.313881 19.657000
v    18.953781 303.272930 16.371044
v    23.190985 304.988177 21.925828
v    28.194190 307.120778 26.763351
v    29.330525 307.538878 27.833316
v    34.325620 309.527941 30.385094
v    39.313171 310.711829 32.746848
v    22.222511 297.379487 16.371044
v    25.921146 300.065762 21.925828
v    30.379420 303.180862 26.763351
v    31.335780 303.923452 27.833316
v    35.667994 307.107673 30.385094
v    39.313171 310.711829 32.746848
mtllib usm_15_2.5D_2018-08-14_7.mtl
usemtl APPID_1699854208_2630218007424 
o vid_3 
f 3 2 1
f 4 5 6
f 1 6 5
f 1 5 3
f 3 5 4
f 4 2 3
f 2 4 6
f 6 1 2
usemtl APPID_1699854544_2630218007168 
o vid_4 
f 7 15 16
f 8 16 17
f 9 17 18
f 10 18 19
f 11 19 20
f 12 20 21
f 7 16 8
f 8 17 9
f 9 18 10
f 10 19 11
f 11 20 12
f 12 21 13
f 13 21 22
usemtl APPID_1699854208_2630218007424 
o vid_5 
f 25 24 23
f 26 27 28
f 23 28 27
f 23 27 25
f 25 27 26
f 26 24 25
f 24 26 28
f 28 23 24
usemtl APPID_1699854544_2630218007168 
o vid_6 
f 29 37 38
f 30 38 39
f 31 39 40
f 32 40 41
f 33 41 42
f 34 42 43
f 29 38 30
f 30 39 31
f 31 40 32
f 32 41 33
f 33 42 34
f 34 43 35
f 35 43 44
usemtl APPID_1699854208_2630218007424 
o vid_7 
f 47 46 45
f 48 49 50
f 45 50 49
f 45 49 47
f 47 49 48
f 48 46 47
f 46 48 50
f 50 45 46
usemtl APPID_1699854544_2630218007168 
o vid_8 
f 51 58 59
f 52 59 60
f 53 60 61
f 54 61 62
f 55 62 63
f 51 59 52
f 52 60 53
f 53 61 54
f 54 62 55
f 55 63 56
f 56 63 64
usemtl APPID_1699854208_2630218007424 
o vid_9 
f 67 66 65
f 68 69 70
f 65 70 69
f 65 69 67
f 67 69 68
f 68 66 67
f 66 68 70
f 70 65 66
usemtl APPID_1699854544_2630218007168 
o vid_10 
f 71 78 79
f 72 79 80
f 73 80 81
f 74 81 82
f 75 82 83
f 71 79 72
f 72 80 73
f 73 81 74
f 74 82 75
f 75 83 76
f 76 83 84
usemtl APPID_1699854208_2630218007424 
o vid_11 
f 87 86 85
f 88 89 90
f 85 90 89
f 85 89 87
f 87 89 88
f 88 86 87
f 86 88 90
f 90 85 86
usemtl APPID_1699854544_2630218007168 
o vid_12 
f 91 98 99
f 92 99 100
f 93 100 101
f 94 101 102
f 95 102 103
f 91 99 92
f 92 100 93
f 93 101 94
f 94 102 95
f 95 103 96
f 96 103 104
usemtl APPID_1699854208_2630218007424 
o vid_13 
f 107 106 105
f 108 109 110
f 105 110 109
f 105 109 107
f 107 109 108
f 108 106 107
f 106 108 110
f 110 105 106
usemtl APPID_1699854544_2630218007168 
o vid_14 
f 111 116 117
f 112 117 118
f 113 118 119
f 111 117 112
f 112 118 113
f 113 119 114
f 114 119 120
usemtl APPID_1699854208_2630218007424 
o vid_15 
f 123 122 121
f 124 125 126
f 121 126 125
f 121 125 123
f 123 125 124
f 124 122 123
f 122 124 126
f 126 121 122
usemtl APPID_1699854544_2630218007168 
o vid_16 
f 127 135 136
f 128 136 137
f 129 137 138
f 130 138 139
f 131 139 140
f 132 140 141
f 127 136 128
f 128 137 129
f 129 138 130
f 130 139 131
f 131 140 132
f 132 141 133
f 133 141 142
usemtl APPID_1699854208_2630218007424 
o vid_17 
f 145 144 143
f 146 147 148
f 143 148 147
f 143 147 145
f 145 147 146
f 146 144 145
f 144 146 148
f 148 143 144
usemtl APPID_1699854544_2630218007168 
o vid_18 
f 149 155 156
f 150 156 157
f 151 157 158
f 152 158 159
f 149 156 150
f 150 157 151
f 151 158 152
f 152 159 153
f 153 159 160
usemtl APPID_1699854208_2630218007424 
o vid_19 
f 163 162 161
f 164 165 166
f 161 166 165
f 161 165 163
f 163 165 164
f 164 162 163
f 162 164 166
f 166 161 162
usemtl APPID_1699854544_2630218007168 
o vid_20 
f 167 173 174
f 168 174 175
f 169 175 176
f 170 176 177
f 167 174 168
f 168 175 169
f 169 176 170
f 170 177 171
f 171 177 178
