# File generated by PlantGL - Fri Sep  4 14:41:52 2026
v    17.752484 58.905161 0.000000
v    22.071916 58.601013 0.000000
v    20.175600 62.493825 0.000000
v    22.247516 61.094839 0.848509
v    17.928084 61.398987 0.848509
v    19.824400 57.506175 0.848509
v    22.062057 61.449375 0.688958
v    22.415164 61.584001 1.040121
v    22.463452 61.601509 1.087776
v    22.412361 60.730260 0.688958
v    22.736031 60.925315 1.040121
v    22.779583 60.952546 1.087776
v    21.879284 61.505407 0.848509
v    17.756638 60.874804 0.848509
v    20.364078 57.619789 0.848509
v    18.120716 58.494593 1.417165
v    22.243362 59.125196 1.417165
v    19.635922 62.380211 1.417165
v    18.493309 58.055416 1.191377
v    18.172827 57.842535 1.548899
v    17.773449 58.954058 1.191377
v    17.495752 58.687766 1.548899
v    17.841416 59.161313 1.417165
v    21.805616 58.549955 1.417165
v    20.352968 62.288732 1.417165
v    22.158584 60.838687 2.253766
v    18.194384 61.450045 2.253766
v    19.647032 57.711268 2.253766
v    21.871324 61.515875 1.940522
v    22.044409 61.565933 2.107953
v    22.267980 61.626634 2.322883
v    22.403882 60.145196 1.940522
v    22.565361 60.225127 2.107953
v    22.771266 60.331294 2.322883
v    22.163962 60.511898 2.253766
v    18.474702 61.618097 2.253766
v    19.361335 57.870005 2.253766
v    17.836038 59.488102 4.112548
v    21.525298 58.381903 4.112548
v    20.638665 62.129995 4.112548
v    18.105079 58.483764 3.686511
v    17.425205 58.385713 4.324820
v    17.073134 58.340824 4.654102
v    17.626580 60.506535 3.686511
v    16.974833 60.289584 4.324820
v    16.639965 60.171973 4.654102
v    18.595695 58.396392 4.112548
v    22.090917 59.585640 4.112548
v    19.313387 62.017967 4.112548
v    21.404305 61.603608 5.999272
v    17.909083 60.414360 5.999272
v    20.686613 57.982033 5.999272
v    20.283364 62.530975 5.431211
v    20.582906 62.817108 5.816147
v    22.471462 60.614823 5.431211
v    22.715572 60.949499 5.816147
v    21.718982 61.097521 5.999272
v    18.190028 60.939922 5.999272
v    20.090990 57.962557 5.999272
v    18.281018 58.902479 12.880915
v    21.809972 59.060078 12.880915
v    19.909010 62.037443 12.880915
v    19.368683 57.298084 12.138365
v    17.697190 56.429642 13.888733
v    17.283297 60.564301 12.138365
v    15.792107 59.413461 13.888733
v    18.420020 58.861621 12.880915
v    21.775855 59.200887 12.880915
v    19.804125 61.937492 12.880915
v    21.579980 61.138379 19.681199
v    18.224145 60.799113 19.681199
v    20.195875 58.062508 19.681199
v    20.092004 63.086604 18.729632
v    21.402510 63.863810 20.145474
v    22.957003 59.110212 18.729632
v    24.109081 60.107304 20.145474
v    21.554633 61.012481 19.681199
v    18.345849 60.840111 19.681199
v    20.099518 58.147408 19.681199
v    18.445367 58.987519 30.874713
v    21.654151 59.159889 30.874713
v    19.900482 61.852592 30.874713
v    20.237927 56.392504 29.679252
v    16.853424 54.595021 33.240330
v    16.103361 54.186604 33.815929
v    13.522176 52.829333 35.778942
v    16.796771 61.676294 29.679252
v    13.784267 59.307619 33.240330
v    13.107440 58.786750 33.815929
v    10.822375 56.974795 35.778942
v    18.458123 59.144816 30.874713
v    21.511550 59.092287 30.874713
v    20.030327 61.762897 30.874713
v    21.541877 60.855184 48.413764
v    18.488450 60.907713 48.413764
v    19.969673 58.237103 48.413764
v    19.441379 64.424202 46.941401
v    23.756121 66.337314 51.327323
v    27.687981 68.129856 54.239654
v    29.779178 69.046802 55.776658
v    37.315308 72.459934 58.428433
v    23.457333 57.183535 46.941401
v    27.364874 59.830818 51.327323
v    30.967402 62.217138 54.239654
v    32.852532 63.505617 55.776658
v    39.738263 68.091404 58.428433
v    21.614895 60.429572 48.413764
v    18.820532 61.183754 48.413764
v    19.564573 58.386674 48.413764
v    18.385105 59.570428 69.838136
v    21.179468 58.816246 69.838136
v    20.435427 61.613326 69.838136
v    19.812573 54.701067 68.060360
v    14.196731 53.731685 73.356057
v    8.137937 52.620785 77.507539
v    6.349501 52.319640 78.728322
v    -9.354004 49.480680 83.843411
v    17.204542 64.505467 68.060360
v    11.849284 62.556469 73.356057
v    6.039303 60.510202 77.507539
v    4.337613 59.882952 78.728322
v    -10.700965 54.544328 83.843411
v    18.541706 59.394647 69.838136
v    21.253398 59.039757 69.838136
v    20.204896 61.565597 69.838136
v    21.458294 60.605353 93.831547
v    18.746602 60.960243 93.831547
v    19.795104 58.434403 93.831547
v    19.035208 66.048152 91.727176
v    25.470897 68.070083 97.995744
v    31.814671 70.135920 102.492210
v    34.458137 70.954505 104.354946
v    53.267655 77.028110 110.690540
v    56.669935 78.044490 110.650062
v    23.602063 55.046607 91.727176
v    29.577720 58.176754 97.995744
v    35.519577 61.210810 102.492210
v    37.965639 62.504941 104.354946
v    55.546860 71.537509 110.690540
v    58.668739 73.229375 110.650062
v    21.148136 60.944713 93.831547
v    18.607786 60.521958 93.831547
v    20.244078 58.533328 93.831547
v    18.851864 59.055287 113.938636
v    21.392214 59.478042 113.938636
v    19.755922 61.466672 113.938636
v    23.046399 54.233726 111.496609
v    16.583044 49.817132 118.770997
v    7.516003 43.656910 126.150562
v    -6.049042 34.229028 131.445625
v    -11.400352 30.816496 133.471820
v    14.928334 64.099837 111.496609
v    9.349707 58.608008 118.770997
v    1.558676 50.897016 126.150562
v    -10.305070 39.401497 131.445625
v    -14.684273 34.807537 133.471820
v    19.036323 58.991726 113.938636
v    21.355030 59.669568 113.938636
v    19.608648 61.338706 113.938636
v    20.963677 61.008274 134.296155
v    18.644970 60.330432 134.296155
v    20.391352 58.661294 134.296155
v    15.478077 65.975092 131.517968
v    22.179668 71.840470 139.793721
v    24.328552 73.761082 141.736147
v    31.568340 80.045125 148.189128
v    47.029238 93.794658 154.821061
v    51.223902 97.236871 156.553368
v    54.920765 100.306269 156.498665
v    26.173411 55.752824 131.517968
v    31.729826 62.712726 139.793721
v    33.551326 64.946240 141.736147
v    39.501646 72.462716 148.189128
v    52.538162 88.529399 154.821061
v    55.787223 92.875391 156.553368
v    58.686354 96.707235 156.498665
v    20.912312 60.929805 134.296155
v    18.738610 60.325183 134.296155
v    20.349079 58.745013 134.296155
v    19.087688 59.070195 147.170152
v    21.261390 59.674817 147.170152
v    19.650921 61.254987 147.170152
v    24.681012 53.894031 144.071625
v    20.374742 50.223708 149.329508
v    17.071170 47.500349 153.301619
v    6.447359 38.520600 162.665066
v    -3.999278 29.472864 167.094851
v    -14.432628 21.137646 171.358085
v    13.806236 64.564211 144.071625
v    10.218354 60.189015 149.329508
v    7.558223 56.834321 153.301619
v    -1.218151 46.041893 162.665066
v    -10.065866 35.425316 167.094851
v    -18.201444 24.835556 171.358085
v    19.188946 59.101354 147.170152
v    21.183778 59.746930 147.170152
v    19.627277 61.151717 147.170152
v    20.811054 60.898646 158.474312
v    18.816222 60.253070 158.474312
v    20.372723 58.848283 158.474312
v    14.319290 66.429717 155.086399
v    20.472343 72.133573 162.882914
v    22.314243 73.785626 165.178424
v    33.510939 84.079653 175.416365
v    46.597956 96.405462 181.178796
v    57.086739 105.526490 185.616298
v    59.294072 107.162578 185.585429
v    26.976601 55.006128 155.086399
v    32.021772 61.709879 162.882914
v    33.476940 63.710970 165.178424
v    42.572806 75.901055 175.416365
v    53.496632 90.179207 181.178796
v    61.497987 101.545211 185.616298
v    62.899928 103.908189 185.585429
v    21.097812 60.213714 158.474312
v    19.266012 60.843876 158.474312
v    19.636176 58.942409 158.474312
v    18.902188 59.786286 164.830479
v    20.733988 59.156124 164.830479
v    20.363824 61.057591 164.830479
v    20.784960 51.480452 161.198929
v    9.174967 50.437899 172.016708
v    -7.048452 48.824833 182.990896
v    -17.105022 47.702564 186.234370
v    -33.002710 46.564820 191.322634
v    -38.011758 46.902889 192.883041
v    17.531703 68.191847 161.198929
v    6.378467 64.803015 172.016708
v    -9.265304 60.212400 182.990896
v    -19.008463 57.480198 186.234370
v    -34.171983 52.571164 191.322634
v    -38.688413 50.378742 192.883041
v    19.316389 59.436043 164.830479
v    20.830206 59.689954 164.830479
v    19.853404 60.874003 164.830479
v    20.683611 60.563957 168.608165
v    19.169794 60.310046 168.608165
v    20.146596 59.125997 168.608165
v    15.083399 66.921437 164.791933
v    25.303566 73.680517 176.159848
v    39.476307 83.306351 187.692127
v    43.021406 85.776964 189.077173
v    57.131726 94.800500 194.424199
v    66.222067 98.970879 197.532716
v    25.860760 53.857464 164.791933
v    34.439179 62.606618 176.159848
v    46.583362 74.691406 187.692127
v    49.682756 77.702288 189.077173
v    61.223755 89.840272 194.424199
v    67.045918 97.972233 197.532716
v    20.528331 60.396740 168.608165
v    19.392247 60.259178 168.608165
v    20.079421 59.344081 168.608165
v    19.471669 59.603260 171.421177
v    20.607753 59.740822 171.421177
v    19.920579 60.655919 171.421177
v    25.047244 52.648842 167.489658
v    14.211310 46.173681 179.200994
v    -0.827231 36.934205 191.081658
v    -6.526198 33.337666 193.241713
v    -21.472162 24.715100 198.750271
v    -33.431300 19.876807 202.759970
v    14.347902 66.896954 167.489658
v    5.107918 58.296496 179.200994
v    -7.958653 46.430986 191.081658
v    -13.001724 41.961002 193.241713
v    -25.450041 30.012367 198.750271
v    -33.431300 19.876807 202.759970
v    19.619956 59.733816 171.421177
v    20.420543 59.803964 171.421177
v    19.959500 60.462219 171.421177
v    20.380044 60.266184 172.877968
v    19.579457 60.196036 172.877968
v    20.040500 59.537781 172.877968
v    15.423028 66.846209 168.907252
v    26.577429 73.020166 180.735351
v    40.077248 80.710806 191.193491
v    55.173749 88.720017 197.455611
v    67.407221 93.204149 201.505288
v    24.869656 53.358787 168.907252
v    34.484114 61.731398 180.735351
v    46.325527 71.789826 191.193491
v    59.012031 83.239910 197.455611
v    67.407221 93.204149 201.505288
v    20.241007 60.171940 172.877968
v    19.730592 60.122748 172.877968
v    20.028401 59.705312 172.877968
v    19.758993 59.828060 173.623000
v    20.269408 59.877252 173.623000
v    19.971599 60.294688 173.623000
v    23.873450 54.301905 165.752402
v    13.968759 48.868091 178.747453
v    0.139935 41.762552 191.767929
v    -11.393882 37.602855 197.350043
v    15.872460 65.516821 165.752402
v    7.511354 57.919379 178.747453
v    -3.707424 47.155360 191.767929
v    -11.393882 37.602855 197.350043
v    22.463452 61.601509 1.087776
v    23.211268 61.882021 1.646385
v    23.979074 62.181742 1.910579
v    24.619106 62.402742 2.126745
v    25.178692 62.522711 2.120377
v    22.779583 60.952546 1.087776
v    23.461435 61.368472 1.646385
v    24.170734 61.788297 1.910579
v    24.739284 62.156037 2.126745
v    25.178692 62.522711 2.120377
v    18.172827 57.842535 1.548899
v    17.956783 57.699028 1.789912
v    17.042939 57.098582 2.546270
v    15.958640 56.365889 2.965733
v    15.265445 55.936527 3.226045
v    14.403413 55.516836 3.215328
v    17.495752 58.687766 1.548899
v    17.308551 58.508253 1.789912
v    16.523126 57.747494 2.546270
v    15.571439 56.849253 2.965733
v    15.001133 56.266483 3.226045
v    14.403413 55.516836 3.215328
v    22.267980 61.626634 2.322883
v    22.840862 61.782175 2.873623
v    24.193364 62.167316 3.820214
v    25.043776 62.420582 4.104631
v    26.375900 62.760391 4.543526
v    27.078629 62.838663 4.763292
v    27.412008 62.879831 4.759560
v    22.771266 60.331294 2.322883
v    23.298883 60.603336 2.873623
v    24.556625 61.232369 3.820214
v    25.354949 61.619695 4.104631
v    26.567052 62.268410 4.543526
v    27.138287 62.685118 4.763292
v    27.412008 62.879831 4.759560
v    17.073134 58.340824 4.654102
v    16.750768 58.299722 4.955603
v    14.856605 58.034493 6.243045
v    13.095207 57.766205 6.814143
v    11.236996 57.558222 7.411074
v    10.868318 57.568316 7.525706
v    9.790779 57.584950 7.513733
v    16.639965 60.171973 4.654102
v    16.333350 60.064286 4.955603
v    14.521109 59.452744 6.243045
v    12.826192 58.903420 6.814143
v    11.071742 58.256807 7.411074
v    10.746662 58.082601 7.525706
v    9.790779 57.584950 7.513733
v    20.582906 62.817108 5.816147
v    21.502545 63.695578 6.997957
v    23.453136 65.541281 8.839993
v    25.876994 67.893636 9.922649
v    27.340938 69.205691 10.550244
v    29.357652 70.685717 10.522257
v    22.715572 60.949499 5.816147
v    23.465025 61.977003 6.997957
v    25.037231 64.154064 8.839993
v    27.049217 66.867101 9.922649
v    28.156650 68.491359 10.550244
v    29.357652 70.685717 10.522257
v    17.697190 56.429642 13.888733
v    14.294078 54.672598 16.594208
v    9.918743 52.355143 18.181224
v    8.087155 51.476241 18.829789
v    6.928841 50.912209 18.815122
v    4.507367 50.108396 18.786774
v    15.792107 59.413461 13.888733
v    12.766138 57.065720 16.594208
v    8.822671 54.071856 18.181224
v    7.254622 52.780187 18.829789
v    6.255530 51.966776 18.815122
v    4.507367 50.108396 18.786774
v    21.402510 63.863810 20.145474
v    22.661131 64.610245 21.505261
v    26.399581 66.805731 24.439728
v    31.424253 69.839714 26.321134
v    34.122466 71.326147 27.304592
v    35.126649 71.886887 27.291498
v    38.167062 73.089411 27.255171
v    24.109081 60.107304 20.145474
v    25.215547 61.064920 21.505261
v    28.481533 63.916147 24.439728
v    32.950050 67.722028 26.321134
v    35.214161 69.810961 27.304592
v    36.063938 70.586005 27.291498
v    38.167062 73.089411 27.255171
v    13.522176 52.829333 35.778942
v    12.110025 52.086778 36.852896
v    4.670658 48.059910 39.564384
v    2.174805 46.834384 40.452051
v    -0.142257 45.680091 40.422579
v    -4.028834 44.350821 40.376941
v    10.822375 56.974795 35.778942
v    9.572229 55.983484 36.852896
v    2.881142 50.807657 39.564384
v    0.751076 49.020476 40.452051
v    -1.241547 47.368016 40.422579
v    -4.028834 44.350821 40.376941
v    37.315308 72.459934 58.428433
v    42.376885 74.752336 60.209476
v    48.978155 77.490876 60.128094
v    51.419166 78.136779 60.100039
v    53.833962 78.765619 59.658018
v    39.738263 68.091404 58.428433
v    44.363005 71.171409 60.209476
v    50.181469 75.321331 60.128094
v    52.021893 77.050076 60.100039
v    53.833962 78.765619 59.658018
v    -9.354004 49.480680 83.843411
v    -10.082313 49.349013 84.080642
v    -11.632940 49.062474 84.062624
v    -19.736939 47.879884 83.969386
v    -21.616100 47.856835 83.948505
v    -25.780523 47.822099 83.210796
v    -10.700965 54.544328 83.843411
v    -11.398436 54.296729 84.080642
v    -12.886490 53.774960 84.062624
v    -20.506988 50.774737 83.969386
v    -22.149238 49.861069 83.948505
v    -25.780523 47.822099 83.210796
v    56.669935 78.044490 110.650062
v    63.651973 80.039985 110.567391
v    66.613981 80.474760 110.534128
v    70.744280 81.064477 109.795070
v    58.668739 73.229375 110.650062
v    65.011410 76.765106 110.567391
v    67.410560 78.555803 110.534128
v    70.744280 81.064477 109.795070
v    -11.400352 30.816496 133.471820
v    -15.250708 28.330571 133.451655
v    -22.839508 24.750656 133.358428
v    -14.684273 34.807537 133.471820
v    -17.865161 31.507990 133.451655
v    -22.839508 24.750656 133.358428
v    54.920765 100.306269 156.498665
v    56.688669 101.774109 156.472505
v    64.774979 106.847073 156.366444
v    58.686354 96.707235 156.498665
v    60.072770 98.539690 156.472505
v    64.774979 106.847073 156.366444
v    -14.432628 21.137646 171.358085
v    -16.166756 20.069947 171.993751
v    -23.654985 15.507950 171.896328
v    -18.201444 24.835556 171.358085
v    -19.236018 23.081464 171.993751
v    -23.654985 15.507950 171.896328
v    59.294072 107.162578 185.585429
v    67.530741 112.663954 185.475379
v    62.899928 103.908189 185.585429
v    67.530741 112.663954 185.475379
v    -38.011758 46.902889 192.883041
v    -41.354430 47.128491 193.924343
v    -45.061560 47.334273 193.883091
v    -38.688413 50.378742 192.883041
v    -41.702348 48.915680 193.924343
v    -45.061560 47.334273 193.883091
v    66.222067 98.970879 197.532716
v    68.513585 100.022160 198.316319
v    67.045918 97.972233 197.532716
v    68.513585 100.022160 198.316319
mtllib usm_5_2.5D_2018-08-27_1.mtl
usemtl APPID_3209474800_2296721771520 
o vid_3 
f 3 2 1
f 4 5 6
f 1 6 5
f 1 5 3
f 3 5 4
f 4 2 3
f 2 4 6
f 6 1 2
usemtl APPID_3209473904_2296721770752 
o vid_4 
f 7 10 11
f 7 11 8
f 8 11 12
f 8 12 9
usemtl APPID_3209474800_2296721771520 
o vid_5 
f 15 14 13
f 16 17 18
f 13 18 17
f 13 17 15
f 15 17 16
f 16 14 15
f 14 16 18
f 18 13 14
usemtl APPID_3209473904_2296721770752 
o vid_6 
f 19 21 22
f 19 22 20
f 19 21 22
f 19 22 20
usemtl APPID_3209474800_2296721771520 
o vid_7 
f 25 24 23
f 26 27 28
f 23 28 27
f 23 27 25
f 25 27 26
f 26 24 25
f 24 26 28
f 28 23 24
usemtl APPID_3209473904_2296721770752 
o vid_8 
f 29 32 33
f 29 33 30
f 30 33 34
f 30 34 31
usemtl APPID_3209474800_2296721771520 
o vid_9 
f 37 36 35
f 38 39 40
f 35 40 39
f 35 39 37
f 37 39 38
f 38 36 37
f 36 38 40
f 40 35 36
usemtl APPID_3209473904_2296721770752 
o vid_10 
f 41 44 45
f 41 45 42
f 42 45 46
f 42 46 43
usemtl APPID_3209474800_2296721771520 
o vid_11 
f 49 48 47
f 50 51 52
f 47 52 51
f 47 51 49
f 49 51 50
f 50 48 49
f 48 50 52
f 52 47 48
usemtl APPID_3209473904_2296721770752 
o vid_12 
f 53 55 56
f 53 56 54
f 53 55 56
f 53 56 54
usemtl APPID_3209474800_2296721771520 
o vid_13 
f 59 58 57
f 60 61 62
f 57 62 61
f 57 61 59
f 59 61 60
f 60 58 59
f 58 60 62
f 62 57 58
usemtl APPID_3209473904_2296721770752 
o vid_14 
f 63 65 66
f 63 66 64
f 63 65 66
f 63 66 64
usemtl APPID_3209474800_2296721771520 
o vid_15 
f 69 68 67
f 70 71 72
f 67 72 71
f 67 71 69
f 69 71 70
f 70 68 69
f 68 70 72
f 72 67 68
usemtl APPID_3209473904_2296721770752 
o vid_16 
f 73 75 76
f 73 76 74
f 73 75 76
f 73 76 74
usemtl APPID_3209474800_2296721771520 
o vid_17 
f 79 78 77
f 80 81 82
f 77 82 81
f 77 81 79
f 79 81 80
f 80 78 79
f 78 80 82
f 82 77 78
usemtl APPID_3209473904_2296721770752 
o vid_18 
f 83 87 88
f 84 88 89
f 83 88 84
f 84 89 85
f 85 89 90
f 85 90 86
usemtl APPID_3209474800_2296721771520 
o vid_19 
f 93 92 91
f 94 95 96
f 91 96 95
f 91 95 93
f 93 95 94
f 94 92 93
f 92 94 96
f 96 91 92
usemtl APPID_3209473904_2296721770752 
o vid_20 
f 97 102 103
f 98 103 104
f 99 104 105
f 97 103 98
f 98 104 99
f 99 105 100
f 100 105 106
f 100 106 101
usemtl APPID_3209474800_2296721771520 
o vid_21 
f 109 108 107
f 110 111 112
f 107 112 111
f 107 111 109
f 109 111 110
f 110 108 109
f 108 110 112
f 112 107 108
usemtl APPID_3209473904_2296721770752 
o vid_22 
f 113 118 119
f 114 119 120
f 115 120 121
f 113 119 114
f 114 120 115
f 115 121 116
f 116 121 122
f 116 122 117
usemtl APPID_3209474800_2296721771520 
o vid_23 
f 125 124 123
f 126 127 128
f 123 128 127
f 123 127 125
f 125 127 126
f 126 124 125
f 124 126 128
f 128 123 124
usemtl APPID_3209473904_2296721770752 
o vid_24 
f 129 135 136
f 130 136 137
f 131 137 138
f 132 138 139
f 129 136 130
f 130 137 131
f 131 138 132
f 132 139 133
f 133 139 140
f 133 140 134
usemtl APPID_3209474800_2296721771520 
o vid_25 
f 143 142 141
f 144 145 146
f 141 146 145
f 141 145 143
f 143 145 144
f 144 142 143
f 142 144 146
f 146 141 142
usemtl APPID_3209473904_2296721770752 
o vid_26 
f 147 152 153
f 148 153 154
f 149 154 155
f 147 153 148
f 148 154 149
f 149 155 150
f 150 155 156
f 150 156 151
usemtl APPID_3209474800_2296721771520 
o vid_27 
f 159 158 157
f 160 161 162
f 157 162 161
f 157 161 159
f 159 161 160
f 160 158 159
f 158 160 162
f 162 157 158
usemtl APPID_3209473904_2296721770752 
o vid_28 
f 163 170 171
f 164 171 172
f 165 172 173
f 166 173 174
f 167 174 175
f 163 171 164
f 164 172 165
f 165 173 166
f 166 174 167
f 167 175 168
f 168 175 176
f 168 176 169
usemtl APPID_3209474800_2296721771520 
o vid_29 
f 179 178 177
f 180 181 182
f 177 182 181
f 177 181 179
f 179 181 180
f 180 178 179
f 178 180 182
f 182 177 178
usemtl APPID_3209473904_2296721770752 
o vid_30 
f 183 189 190
f 184 190 191
f 185 191 192
f 186 192 193
f 183 190 184
f 184 191 185
f 185 192 186
f 186 193 187
f 187 193 194
f 187 194 188
usemtl APPID_3209474800_2296721771520 
o vid_31 
f 197 196 195
f 198 199 200
f 195 200 199
f 195 199 197
f 197 199 198
f 198 196 197
f 196 198 200
f 200 195 196
usemtl APPID_3209473904_2296721770752 
o vid_32 
f 201 208 209
f 202 209 210
f 203 210 211
f 204 211 212
f 205 212 213
f 201 209 202
f 202 210 203
f 203 211 204
f 204 212 205
f 205 213 206
f 206 213 214
f 206 214 207
usemtl APPID_3209474800_2296721771520 
o vid_33 
f 217 216 215
f 218 219 220
f 215 220 219
f 215 219 217
f 217 219 218
f 218 216 217
f 216 218 220
f 220 215 216
usemtl APPID_3209473904_2296721770752 
o vid_34 
f 221 227 228
f 222 228 229
f 223 229 230
f 224 230 231
f 221 228 222
f 222 229 223
f 223 230 224
f 224 231 225
f 225 231 232
f 225 232 226
usemtl APPID_3209474800_2296721771520 
o vid_35 
f 235 234 233
f 236 237 238
f 233 238 237
f 233 237 235
f 235 237 236
f 236 234 235
f 234 236 238
f 238 233 234
usemtl APPID_3209473904_2296721770752 
o vid_36 
f 239 245 246
f 240 246 247
f 241 247 248
f 242 248 249
f 239 246 240
f 240 247 241
f 241 248 242
f 242 249 243
f 243 249 250
f 243 250 244
usemtl APPID_3209474800_2296721771520 
o vid_37 
f 253 252 251
f 254 255 256
f 251 256 255
f 251 255 253
f 253 255 254
f 254 252 253
f 252 254 256
f 256 251 252
usemtl APPID_3209473904_2296721770752 
o vid_38 
f 257 263 264
f 258 264 265
f 259 265 266
f 260 266 267
f 257 264 258
f 258 265 259
f 259 266 260
f 260 267 261
f 261 267 268
usemtl APPID_3209474800_2296721771520 
o vid_39 
f 271 270 269
f 272 273 274
f 269 274 273
f 269 273 271
f 271 273 272
f 272 270 271
f 270 272 274
f 274 269 270
usemtl APPID_3209473904_2296721770752 
o vid_40 
f 275 280 281
f 276 281 282
f 277 282 283
f 275 281 276
f 276 282 277
f 277 283 278
f 278 283 284
usemtl APPID_3209474800_2296721771520 
o vid_41 
f 287 286 285
f 288 289 290
f 285 290 289
f 285 289 287
f 287 289 288
f 288 286 287
f 286 288 290
f 290 285 286
usemtl APPID_3209473904_2296721770752 
o vid_42 
f 291 295 296
f 292 296 297
f 291 296 292
f 292 297 293
f 293 297 298
usemtl APPID_3209482080_2296721771648 
o vid_10000004 
f 299 304 305
f 300 305 306
f 301 306 307
f 299 305 300
f 300 306 301
f 301 307 302
f 302 307 308
usemtl APPID_3209482080_2296721771648 
o vid_10000006 
f 309 315 316
f 310 316 317
f 311 317 318
f 312 318 319
f 309 316 310
f 310 317 311
f 311 318 312
f 312 319 313
f 313 319 320
usemtl APPID_3209482080_2296721771648 
o vid_10000008 
f 321 328 329
f 322 329 330
f 323 330 331
f 324 331 332
f 325 332 333
f 321 329 322
f 322 330 323
f 323 331 324
f 324 332 325
f 325 333 326
f 326 333 334
usemtl APPID_3209482080_2296721771648 
o vid_10000010 
f 335 342 343
f 336 343 344
f 337 344 345
f 338 345 346
f 339 346 347
f 335 343 336
f 336 344 337
f 337 345 338
f 338 346 339
f 339 347 340
f 340 347 348
usemtl APPID_3209482080_2296721771648 
o vid_10000012 
f 349 355 356
f 350 356 357
f 351 357 358
f 352 358 359
f 349 356 350
f 350 357 351
f 351 358 352
f 352 359 353
f 353 359 360
usemtl APPID_3209482080_2296721771648 
o vid_10000014 
f 361 367 368
f 362 368 369
f 363 369 370
f 364 370 371
f 361 368 362
f 362 369 363
f 363 370 364
f 364 371 365
f 365 371 372
usemtl APPID_3209482080_2296721771648 
o vid_10000016 
f 373 380 381
f 374 381 382
f 375 382 383
f 376 383 384
f 377 384 385
f 373 381 374
f 374 382 375
f 375 383 376
f 376 384 377
f 377 385 378
f 378 385 386
usemtl APPID_3209482080_2296721771648 
o vid_10000018 
f 387 393 394
f 388 394 395
f 389 395 396
f 390 396 397
f 387 394 388
f 388 395 389
f 389 396 390
f 390 397 391
f 391 397 398
usemtl APPID_3209482080_2296721771648 
o vid_10000020 
f 399 404 405
f 400 405 406
f 401 406 407
f 399 405 400
f 400 406 401
f 401 407 402
f 402 407 408
usemtl APPID_3209482080_2296721771648 
o vid_10000022 
f 409 415 416
f 410 416 417
f 411 417 418
f 412 418 419
f 409 416 410
f 410 417 411
f 411 418 412
f 412 419 413
f 413 419 420
usemtl APPID_3209482080_2296721771648 
o vid_10000024 
f 421 425 426
f 422 426 427
f 421 426 422
f 422 427 423
f 423 427 428
usemtl APPID_3209482080_2296721771648 
o vid_10000026 
f 429 432 433
f 429 433 430
f 430 433 434
usemtl APPID_3209482080_2296721771648 
o vid_10000028 
f 435 438 439
f 435 439 436
f 436 439 440
usemtl APPID_3209482080_2296721771648 
o vid_10000030 
f 441 444 445
f 441 445 442
f 442 445 446
usemtl APPID_3209482080_2296721771648 
o vid_10000032 
f 447 449 450
f 447 450 448
f 447 449 450
usemtl APPID_3209482080_2296721771648 
o vid_10000034 
f 451 454 455
f 451 455 452
f 452 455 456
usemtl APPID_3209482080_2296721771648 
o vid_10000036 
f 457 459 460
f 457 460 458
f 457 459 460
