# File generated by PlantGL - Fri Sep  4 14:43:44 2026
v    19.432952 139.723772 0.000000
v    20.522744 139.647036 0.000000
v    20.044304 140.629192 0.000000
v    20.567048 140.276228 0.188000
v    19.477256 140.352964 0.188000
v    19.955696 139.370808 0.188000
v    20.377469 140.602008 -0.597262
v    20.646261 140.633733 0.179470
v    20.961009 140.577610 0.964842
v    21.195872 140.582548 1.340658
v    20.706711 139.926132 -0.597262
v    20.897382 140.118226 0.179470
v    21.047208 140.400659 0.964842
v    21.195872 140.582548 1.340658
mtllib usm_11_2.5D_2018-07-08_3.mtl
usemtl APPID_2962610976_1982942918112 
o vid_3 
f 3 2 1
f 4 5 6
f 1 6 5
f 1 5 3
f 3 5 4
f 4 2 3
f 2 4 6
f 6 1 2
usemtl APPID_2962608288_1982942919008 
o vid_4 
f 7 11 12
f 8 12 13
f 7 12 8
f 8 13 9
f 9 13 14
