# File generated by PlantGL - Fri Sep  4 14:43:27 2026
v    99.211524 19.615908 0.000000
v    100.726872 19.509206 0.000000
v    100.061604 20.874886 0.000000
v    100.788476 20.384092 0.281304
v    99.273128 20.490794 0.281304
v    99.938396 19.125114 0.281304
v    99.812947 20.420383 -2.695720
v    101.329438 20.647613 -1.303965
v    100.215711 19.593578 -2.695720
v    101.329438 20.647613 -1.303965
v    100.424416 20.339980 0.281304
v    99.493361 20.197565 0.281304
v    100.082223 19.462455 0.281304
v    99.575584 19.660020 0.322000
v    100.506639 19.802435 0.322000
v    99.917777 20.537545 0.322000
v    99.471377 19.366592 -5.542331
v    99.281175 19.424183 -4.831672
v    99.266486 19.622369 -5.542331
v    99.281175 19.424183 -4.831672
mtllib usm_31_2.5D_2018-07-12_2.mtl
usemtl APPID_2655969152_1733526600432 
o vid_3 
f 3 2 1
f 4 5 6
f 1 6 5
f 1 5 3
f 3 5 4
f 4 2 3
f 2 4 6
f 6 1 2
usemtl APPID_2655970832_1733526600560 
o vid_4 
f 7 9 10
f 7 10 8
f 7 9 10
usemtl APPID_2655969152_1733526600432 
o vid_5 
f 13 12 11
f 14 15 16
f 11 16 15
f 11 15 13
f 13 15 14
f 14 12 13
f 12 14 16
f 16 11 12
usemtl APPID_2655970832_1733526600560 
o vid_6 
f 17 19 20
f 17 20 18
f 17 19 20
