# File generated by PlantGL - Fri Sep  4 14:42:07 2026
v    17.752484 298.905161 0.000000
v    22.071916 298.601013 0.000000
v    20.175600 302.493825 0.000000
v    22.247516 301.094839 0.848018
v    17.928084 301.398987 0.848018
v    19.824400 297.506175 0.848018
v    22.062184 301.449156 0.688716
v    22.418649 301.585061 1.043219
v    22.463190 301.601210 1.087175
v    22.412266 300.730496 0.688716
v    22.739014 300.927406 1.043219
v    22.779187 300.952523 1.087175
v    21.879284 301.505407 0.848018
v    17.756638 300.874804 0.848018
v    20.364078 297.619789 0.848018
v    18.120716 298.494593 1.416666
v    22.243362 299.125196 1.416666
v    19.635922 302.380211 1.416666
v    18.493117 298.055620 1.191176
v    18.179227 297.847118 1.541345
v    17.773606 298.953827 1.191176
v    17.501621 298.693011 1.541345
v    17.841416 299.161313 1.416666
v    21.805616 298.549955 1.416666
v    20.352968 302.288732 1.416666
v    22.158584 300.838687 2.253758
v    18.194384 301.450045 2.253758
v    19.647032 297.711268 2.253758
v    21.871433 301.515662 1.940857
v    22.050431 301.567430 2.114007
v    22.260965 301.624591 2.316404
v    22.403819 300.145427 1.940857
v    22.570813 300.228089 2.114007
v    22.764712 300.328065 2.316404
v    22.163962 300.511898 2.253758
v    18.474702 301.618097 2.253758
v    19.361335 297.870005 2.253758
v    17.836038 299.488102 4.113040
v    21.525298 298.381903 4.113040
v    20.638665 302.129995 4.113040
v    18.105016 298.483911 3.687377
v    17.417344 298.384736 4.333007
v    17.076636 298.341295 4.651663
v    17.626590 300.506376 3.687377
v    16.967368 300.286935 4.333007
v    16.643307 300.173121 4.651663
v    18.595695 298.396392 4.113040
v    22.090917 299.585640 4.113040
v    19.313387 302.017967 4.113040
v    21.404305 301.603608 6.000766
v    17.909083 300.414360 6.000766
v    20.686613 297.982033 6.000766
v    20.283419 302.530963 5.433090
v    20.584405 302.818475 5.819880
v    22.471442 300.614877 5.433090
v    22.716728 300.951165 5.819880
v    21.718982 301.097521 6.000766
v    18.190028 300.939922 6.000766
v    20.090990 297.962557 6.000766
v    18.281018 298.902479 12.885860
v    21.809972 299.060078 12.885860
v    19.909010 302.037443 12.885860
v    19.368598 297.298169 12.143674
v    17.698014 296.430199 13.893090
v    17.283338 300.564188 12.143674
v    15.792959 299.413974 13.893090
v    18.420020 298.861621 12.885860
v    21.775855 299.200887 12.885860
v    19.804125 301.937492 12.885860
v    21.579980 301.138379 19.685705
v    18.224145 300.799113 19.685705
v    20.195875 298.062508 19.685705
v    20.091978 303.086676 18.734440
v    22.668485 304.614693 21.518040
v    26.397472 306.804756 24.442732
v    26.686221 306.979107 24.550849
v    22.957063 299.110166 18.734440
v    25.222094 301.070487 21.518040
v    28.479941 303.914455 24.442732
v    28.736729 304.133164 24.550849
v    21.554633 301.012481 19.685705
v    18.345849 300.840111 19.685705
v    20.099518 298.147408 19.685705
v    18.445367 298.987519 30.882667
v    21.654151 299.159889 30.882667
v    19.900482 301.852592 30.882667
v    20.238006 296.392358 29.687393
v    16.854032 294.595156 33.247915
v    16.096735 294.182800 33.829064
v    12.111439 292.087202 36.859917
v    6.845363 289.236718 38.779288
v    16.796670 301.676425 29.687393
v    13.784636 299.308120 33.247915
v    13.101282 298.782228 33.829064
v    9.573189 295.984607 36.859917
v    4.836794 292.320813 38.779288
v    18.458123 299.144816 30.882667
v    21.511550 299.092287 30.882667
v    20.030327 301.762897 30.882667
v    21.541877 300.855184 48.444344
v    18.488450 300.907713 48.444344
v    19.969673 298.237103 48.444344
v    19.440360 304.426043 46.971997
v    23.755056 306.339135 51.357873
v    27.711742 308.142994 54.288593
v    29.777858 309.048943 55.807162
v    42.375434 314.754418 60.239933
v    43.770569 315.346288 60.222661
v    23.458354 297.181695 46.971997
v    27.365855 299.828951 51.357873
v    30.991129 302.230338 54.288593
v    32.853650 303.503363 55.807162
v    44.364003 311.169075 60.239933
v    45.604808 312.039199 60.222661
v    21.614895 300.429572 48.444344
v    18.820532 301.183754 48.444344
v    19.564573 298.386674 48.444344
v    18.385105 299.570428 69.931697
v    21.179468 298.816246 69.931697
v    20.435427 301.613326 69.931697
v    19.815054 294.691801 68.153705
v    14.198529 293.722301 73.450046
v    8.026623 292.590662 77.679033
v    6.350775 292.308474 78.822963
v    -10.083036 289.337487 84.175934
v    -16.557153 288.327202 84.101255
v    17.202091 304.514741 68.153705
v    11.846182 302.565506 73.450046
v    5.927734 300.481037 77.679033
v    4.333171 299.893275 78.822963
v    -11.404790 294.306373 84.175934
v    -17.525211 291.966433 84.101255
v    18.541706 299.394647 69.931697
v    21.253398 299.039757 69.931697
v    20.204896 301.565597 69.931697
v    21.458294 300.605353 94.018022
v    18.746602 300.960243 94.018022
v    19.795104 298.434403 94.018022
v    19.030282 306.059924 91.913148
v    25.467512 308.082340 98.183217
v    31.949989 310.193345 102.777995
v    34.456098 310.969395 104.543942
v    53.270121 317.044455 110.881053
v    62.023939 319.597185 110.777180
v    23.606922 295.034807 91.913148
v    29.584011 298.165703 98.183217
v    35.655782 301.266097 102.777995
v    37.974745 302.492984 104.543942
v    55.560177 311.527716 110.881053
v    63.548393 315.924778 110.777180
v    21.148136 300.944713 94.018022
v    18.607786 300.521958 94.018022
v    20.244078 298.533328 94.018022
v    18.851864 299.055287 114.176685
v    21.392214 299.478042 114.176685
v    19.755922 301.466672 114.176685
v    23.051995 294.227020 111.733819
v    16.586419 289.808908 119.010707
v    7.517033 283.645632 126.392808
v    -6.131221 274.159919 131.720352
v    -11.485057 270.745775 133.747503
v    -15.253831 268.311875 133.696427
v    14.922831 304.106620 111.733819
v    9.342287 298.612903 119.010707
v    1.547807 290.900199 126.392808
v    -10.388711 279.334165 131.720352
v    -14.769982 274.738036 133.747503
v    -17.884109 271.508525 133.696427
v    19.036323 298.991726 114.176685
v    21.355030 299.669568 114.176685
v    19.608648 301.338706 114.176685
v    20.963677 301.008274 134.519744
v    18.644970 300.330432 134.519744
v    20.391352 298.661294 134.519744
v    15.476253 305.976715 131.740352
v    22.180752 311.844639 140.019695
v    24.323264 313.759556 141.956362
v    31.573601 320.052755 148.418746
v    47.032795 333.800772 155.049947
v    51.238018 337.251651 156.786615
v    56.696026 341.783277 156.705852
v    58.507009 342.919401 156.682099
v    26.175115 295.751075 131.740352
v    31.733941 302.713998 140.019695
v    33.550041 304.940889 141.956362
v    39.509031 312.468317 148.418746
v    52.544110 328.533229 155.049947
v    55.801349 332.890160 156.786615
v    60.081596 338.547455 156.705852
v    61.134687 340.407948 156.682099
v    20.912312 300.929805 134.519744
v    18.738610 300.325183 134.519744
v    20.349079 298.745013 134.519744
v    19.087688 299.070195 147.351462
v    21.261390 299.674817 147.351462
v    19.650921 301.254987 147.351462
v    24.684149 293.891112 144.251353
v    20.372298 290.216033 149.516050
v    17.070476 287.494116 153.486058
v    6.441243 278.509785 162.854283
v    -4.015097 269.453646 167.288182
v    -14.645237 260.961211 171.631828
v    -18.436156 258.676697 172.158423
v    13.803259 304.567292 144.251353
v    10.210727 300.186426 149.516050
v    7.552005 296.833508 153.486058
v    -1.228848 286.035572 162.854283
v    -10.084780 275.409136 167.288182
v    -18.373809 264.619635 171.631828
v    -20.585919 260.786015 172.158423
v    19.229585 299.146381 147.351462
v    21.124463 299.759610 147.351462
v    19.645952 301.094009 147.351462
v    20.770415 300.853619 158.601298
v    18.875537 300.240390 158.601298
v    20.354048 298.905991 158.601298
v    14.269179 306.393051 155.211445
v    20.489666 312.159417 163.093405
v    33.470753 324.054060 175.553056
v    46.647805 336.464667 181.355131
v    57.056694 345.516219 185.758831
v    64.511997 350.676590 185.657682
v    26.945248 294.952532 155.211445
v    32.045711 301.729752 163.093405
v    42.551454 315.858465 175.553056
v    53.550433 330.234846 181.355131
v    61.490841 341.514273 185.758831
v    65.862287 349.457914 185.657682
v    20.871272 300.169613 158.601298
v    19.417475 300.669737 158.601298
v    19.711253 299.160650 158.601298
v    19.128728 299.830387 164.915530
v    20.582525 299.330263 164.915530
v    20.288747 300.839350 164.915530
v    21.012495 291.520288 161.281724
v    9.395255 290.477253 172.106225
v    -6.838245 288.863185 183.087233
v    -16.887801 287.741698 186.328445
v    -32.795368 286.603247 191.419871
v    -41.166011 287.168195 194.027474
v    -44.861054 287.373306 193.986357
v    17.757566 308.240276 161.281724
v    6.597431 304.849172 172.106225
v    -9.056061 300.255705 183.087233
v    -18.792424 297.525408 186.328445
v    -33.965368 292.613324 191.419871
v    -41.512794 288.949558 194.027474
v    -44.861054 287.373306 193.986357
v    19.495385 299.583709 164.915530
v    20.612827 299.771136 164.915530
v    19.891789 300.645155 164.915530
v    20.504615 300.416291 168.662929
v    19.387173 300.228864 168.662929
v    20.108211 299.354845 168.662929
v    14.903897 306.774103 164.844194
v    25.130770 313.537618 176.219568
v    39.312810 323.169769 187.759413
v    42.809844 325.606885 189.125681
v    56.929423 334.636341 194.476215
v    68.318750 339.861427 198.370889
v    25.681994 293.709238 164.844194
v    34.266042 302.464133 176.219568
v    46.418193 314.556850 187.759413
v    49.475565 317.526910 189.125681
v    61.024137 329.672859 194.476215
v    68.318750 339.861427 198.370889
v    20.359431 300.269908 168.662929
v    19.586537 300.176323 168.662929
v    20.054031 299.553770 168.662929
v    19.640569 299.730092 171.186999
v    20.413463 299.823677 171.186999
v    19.945969 300.446230 171.186999
v    24.812826 293.313085 167.252819
v    13.969556 286.833540 178.972083
v    0.124592 278.327382 189.909805
v    -14.663752 269.824938 195.853246
v    -26.630987 264.983370 199.865660
v    14.920427 306.486606 167.252819
v    5.674187 297.880326 178.972083
v    -6.355319 286.956556 189.909805
v    -18.644324 275.125791 195.853246
v    -26.630987 264.983370 199.865660
v    19.775905 299.843043 171.186999
v    20.247976 299.884406 171.186999
v    19.976119 300.272551 171.186999
v    20.224095 300.156957 171.928000
v    19.752024 300.115594 171.928000
v    20.023881 299.727449 171.928000
v    17.717488 305.812652 164.254814
v    20.440711 306.961869 171.738450
v    23.811739 308.006524 180.440819
v    28.033240 309.713523 188.105373
v    35.022233 310.723595 198.994961
v    35.504517 310.859407 199.446913
v    24.682524 295.868323 164.254814
v    26.693264 298.034787 171.738450
v    28.827142 300.845783 180.440819
v    31.874148 304.229667 188.105373
v    35.212051 310.452582 198.994961
v    35.504517 310.859407 199.446913
v    22.463190 301.601210 1.087175
v    23.209568 301.881186 1.644646
v    23.981245 302.182418 1.910172
v    24.615108 302.401288 2.124254
v    25.179233 302.522974 2.117831
v    22.779187 300.952523 1.087175
v    23.459730 301.367647 1.644646
v    24.172605 301.789589 1.910172
v    24.735676 302.153785 2.124254
v    25.179233 302.522974 2.117831
v    18.179227 297.847118 1.541345
v    17.952793 297.696709 1.793949
v    17.044720 297.099981 2.544278
v    15.956020 296.364314 2.965444
v    15.269751 295.939242 3.223156
v    14.402572 295.516162 3.212368
v    17.501621 298.693011 1.541345
v    17.305418 298.504865 1.793949
v    16.524880 297.748926 2.544278
v    15.569331 296.847040 2.965444
v    15.004722 296.270092 3.223156
v    14.402572 295.516162 3.212368
v    22.260965 301.624591 2.316404
v    22.839874 301.781768 2.872938
v    24.190898 302.166488 3.818495
v    25.048301 302.421837 4.105250
v    26.378970 302.761274 4.543665
v    27.072461 302.838518 4.760542
v    27.414333 302.880734 4.756715
v    22.764712 300.328065 2.316404
v    23.297879 300.602969 2.872938
v    24.554247 301.231314 3.818495
v    25.359135 301.621825 4.105250
v    26.569913 302.269831 4.543665
v    27.133638 302.681061 4.760542
v    27.414333 302.880734 4.756715
v    17.076636 298.341295 4.651663
v    16.751926 298.299895 4.955355
v    14.859426 298.034898 6.241667
v    13.088664 297.765184 6.815801
v    11.232084 297.557384 7.412209
v    9.786597 297.583960 7.511107
v    16.643307 300.173121 4.651663
v    16.334463 300.064650 4.955355
v    14.523813 299.453645 6.241667
v    12.819885 298.901401 6.815801
v    11.066975 298.255356 7.412209
v    9.786597 297.583960 7.511107
v    20.584405 302.818475 5.819880
v    21.509369 303.702032 7.008533
v    23.450917 305.539346 8.839565
v    25.882939 307.899625 9.925868
v    27.335678 309.201637 10.548660
v    29.361695 310.690334 10.520527
v    22.716728 300.951165 5.819880
v    23.470522 301.984620 7.008533
v    25.035606 304.151609 8.839565
v    27.054370 306.873785 9.925868
v    28.153326 308.485610 10.548660
v    29.361695 310.690334 10.520527
v    17.698014 296.430199 13.893090
v    14.296559 294.673837 16.597336
v    9.912626 292.351829 18.187472
v    8.092933 291.478634 18.831824
v    6.923672 290.909272 18.817018
v    4.503383 290.105852 18.788684
v    15.792959 299.413974 13.893090
v    12.768306 297.067448 16.597336
v    8.817090 294.067702 18.187472
v    7.259225 292.784422 18.831824
v    6.250691 291.963324 18.817018
v    4.503383 290.105852 18.788684
v    26.686221 306.979107 24.550849
v    31.431162 309.844184 26.327515
v    34.117629 311.324147 27.306692
v    35.132895 311.891074 27.293453
v    38.172348 313.093219 27.257137
v    28.736729 304.133164 24.550849
v    32.956478 307.727168 26.327515
v    35.210732 309.807007 27.306692
v    36.069887 310.590603 27.293453
v    38.172348 313.093219 27.257137
v    6.845363 289.236718 38.779288
v    4.664774 288.056384 39.574065
v    2.177981 286.835306 40.458509
v    -0.147794 285.676672 40.428927
v    -4.033764 284.347610 40.383296
v    4.836794 292.320813 38.779288
v    2.875538 290.803702 39.574065
v    0.753203 289.023008 40.458509
v    -1.246912 287.364334 40.428927
v    -4.033764 284.347610 40.383296
v    43.770569 315.346288 60.222661
v    49.006627 317.506653 60.158175
v    51.414821 318.143873 60.130498
v    53.861915 318.781123 59.682564
v    45.604808 312.039199 60.222661
v    50.209928 315.337130 60.158175
v    52.025610 317.042635 60.130498
v    53.861915 318.781123 59.682564
v    -16.557153 288.327202 84.101255
v    -19.874425 287.843123 84.063089
v    -21.612022 287.821811 84.043781
v    -25.868603 287.786306 83.289747
v    -25.915311 287.786245 83.275855
v    -17.525211 291.966433 84.101255
v    -20.644567 290.738329 84.063089
v    -22.163101 289.893490 84.043781
v    -25.874746 287.809398 83.289747
v    -25.915311 287.786245 83.275855
v    62.023939 319.597185 110.777180
v    63.822414 320.111196 110.755885
v    66.607963 320.520070 110.724604
v    70.913813 321.134852 109.954133
v    63.548393 315.924778 110.777180
v    65.182176 316.835533 110.755885
v    67.438399 318.519551 110.724604
v    70.913813 321.134852 109.954133
v    -15.253831 268.311875 133.696427
v    -22.931165 264.675238 133.602003
v    -17.884109 271.508525 133.696427
v    -22.931165 264.675238 133.602003
v    58.507009 342.919401 156.682099
v    64.785846 346.858442 156.599745
v    61.134687 340.407948 156.682099
v    64.785846 346.858442 156.599745
v    -18.436156 258.676697 172.158423
v    -23.681037 255.481398 172.090186
v    -20.585919 260.786015 172.158423
v    -23.681037 255.481398 172.090186
v    64.511997 350.676590 185.657682
v    67.596394 352.736698 185.616471
v    65.862287 349.457914 185.657682
v    67.596394 352.736698 185.616471
mtllib usm_18_Beer_2018-08-23_7.mtl
usemtl APPID_2969676704_2459690813664 
o vid_3 
f 3 2 1
f 4 5 6
f 1 6 5
f 1 5 3
f 3 5 4
f 4 2 3
f 2 4 6
f 6 1 2
usemtl APPID_2969681968_2459690813024 
o vid_4 
f 7 10 11
f 7 11 8
f 8 11 12
f 8 12 9
usemtl APPID_2969676704_2459690813664 
o vid_5 
f 15 14 13
f 16 17 18
f 13 18 17
f 13 17 15
f 15 17 16
f 16 14 15
f 14 16 18
f 18 13 14
usemtl APPID_2969681968_2459690813024 
o vid_6 
f 19 21 22
f 19 22 20
f 19 21 22
f 19 22 20
usemtl APPID_2969676704_2459690813664 
o vid_7 
f 25 24 23
f 26 27 28
f 23 28 27
f 23 27 25
f 25 27 26
f 26 24 25
f 24 26 28
f 28 23 24
usemtl APPID_2969681968_2459690813024 
o vid_8 
f 29 32 33
f 29 33 30
f 30 33 34
f 30 34 31
usemtl APPID_2969676704_2459690813664 
o vid_9 
f 37 36 35
f 38 39 40
f 35 40 39
f 35 39 37
f 37 39 38
f 38 36 37
f 36 38 40
f 40 35 36
usemtl APPID_2969681968_2459690813024 
o vid_10 
f 41 44 45
f 41 45 42
f 42 45 46
f 42 46 43
usemtl APPID_2969676704_2459690813664 
o vid_11 
f 49 48 47
f 50 51 52
f 47 52 51
f 47 51 49
f 49 51 50
f 50 48 49
f 48 50 52
f 52 47 48
usemtl APPID_2969681968_2459690813024 
o vid_12 
f 53 55 56
f 53 56 54
f 53 55 56
f 53 56 54
usemtl APPID_2969676704_2459690813664 
o vid_13 
f 59 58 57
f 60 61 62
f 57 62 61
f 57 61 59
f 59 61 60
f 60 58 59
f 58 60 62
f 62 57 58
usemtl APPID_2969681968_2459690813024 
o vid_14 
f 63 65 66
f 63 66 64
f 63 65 66
f 63 66 64
usemtl APPID_2969676704_2459690813664 
o vid_15 
f 69 68 67
f 70 71 72
f 67 72 71
f 67 71 69
f 69 71 70
f 70 68 69
f 68 70 72
f 72 67 68
usemtl APPID_2969681968_2459690813024 
o vid_16 
f 73 77 78
f 74 78 79
f 73 78 74
f 74 79 75
f 75 79 80
f 75 80 76
usemtl APPID_2969676704_2459690813664 
o vid_17 
f 83 82 81
f 84 85 86
f 81 86 85
f 81 85 83
f 83 85 84
f 84 82 83
f 82 84 86
f 86 81 82
usemtl APPID_2969681968_2459690813024 
o vid_18 
f 87 92 93
f 88 93 94
f 89 94 95
f 87 93 88
f 88 94 89
f 89 95 90
f 90 95 96
f 90 96 91
usemtl APPID_2969676704_2459690813664 
o vid_19 
f 99 98 97
f 100 101 102
f 97 102 101
f 97 101 99
f 99 101 100
f 100 98 99
f 98 100 102
f 102 97 98
usemtl APPID_2969681968_2459690813024 
o vid_20 
f 103 109 110
f 104 110 111
f 105 111 112
f 106 112 113
f 103 110 104
f 104 111 105
f 105 112 106
f 106 113 107
f 107 113 114
f 107 114 108
usemtl APPID_2969676704_2459690813664 
o vid_21 
f 117 116 115
f 118 119 120
f 115 120 119
f 115 119 117
f 117 119 118
f 118 116 117
f 116 118 120
f 120 115 116
usemtl APPID_2969681968_2459690813024 
o vid_22 
f 121 127 128
f 122 128 129
f 123 129 130
f 124 130 131
f 121 128 122
f 122 129 123
f 123 130 124
f 124 131 125
f 125 131 132
f 125 132 126
usemtl APPID_2969676704_2459690813664 
o vid_23 
f 135 134 133
f 136 137 138
f 133 138 137
f 133 137 135
f 135 137 136
f 136 134 135
f 134 136 138
f 138 133 134
usemtl APPID_2969681968_2459690813024 
o vid_24 
f 139 145 146
f 140 146 147
f 141 147 148
f 142 148 149
f 139 146 140
f 140 147 141
f 141 148 142
f 142 149 143
f 143 149 150
f 143 150 144
usemtl APPID_2969676704_2459690813664 
o vid_25 
f 153 152 151
f 154 155 156
f 151 156 155
f 151 155 153
f 153 155 154
f 154 152 153
f 152 154 156
f 156 151 152
usemtl APPID_2969681968_2459690813024 
o vid_26 
f 157 163 164
f 158 164 165
f 159 165 166
f 160 166 167
f 157 164 158
f 158 165 159
f 159 166 160
f 160 167 161
f 161 167 168
f 161 168 162
usemtl APPID_2969676704_2459690813664 
o vid_27 
f 171 170 169
f 172 173 174
f 169 174 173
f 169 173 171
f 171 173 172
f 172 170 171
f 170 172 174
f 174 169 170
usemtl APPID_2969681968_2459690813024 
o vid_28 
f 175 183 184
f 176 184 185
f 177 185 186
f 178 186 187
f 179 187 188
f 180 188 189
f 175 184 176
f 176 185 177
f 177 186 178
f 178 187 179
f 179 188 180
f 180 189 181
f 181 189 190
f 181 190 182
usemtl APPID_2969676704_2459690813664 
o vid_29 
f 193 192 191
f 194 195 196
f 191 196 195
f 191 195 193
f 193 195 194
f 194 192 193
f 192 194 196
f 196 191 192
usemtl APPID_2969681968_2459690813024 
o vid_30 
f 197 204 205
f 198 205 206
f 199 206 207
f 200 207 208
f 201 208 209
f 197 205 198
f 198 206 199
f 199 207 200
f 200 208 201
f 201 209 202
f 202 209 210
f 202 210 203
usemtl APPID_2969676704_2459690813664 
o vid_31 
f 213 212 211
f 214 215 216
f 211 216 215
f 211 215 213
f 213 215 214
f 214 212 213
f 212 214 216
f 216 211 212
usemtl APPID_2969681968_2459690813024 
o vid_32 
f 217 223 224
f 218 224 225
f 219 225 226
f 220 226 227
f 217 224 218
f 218 225 219
f 219 226 220
f 220 227 221
f 221 227 228
f 221 228 222
usemtl APPID_2969676704_2459690813664 
o vid_33 
f 231 230 229
f 232 233 234
f 229 234 233
f 229 233 231
f 231 233 232
f 232 230 231
f 230 232 234
f 234 229 230
usemtl APPID_2969681968_2459690813024 
o vid_34 
f 235 242 243
f 236 243 244
f 237 244 245
f 238 245 246
f 239 246 247
f 235 243 236
f 236 244 237
f 237 245 238
f 238 246 239
f 239 247 240
f 240 247 248
usemtl APPID_2969676704_2459690813664 
o vid_35 
f 251 250 249
f 252 253 254
f 249 254 253
f 249 253 251
f 251 253 252
f 252 250 251
f 250 252 254
f 254 249 250
usemtl APPID_2969681968_2459690813024 
o vid_36 
f 255 261 262
f 256 262 263
f 257 263 264
f 258 264 265
f 255 262 256
f 256 263 257
f 257 264 258
f 258 265 259
f 259 265 266
usemtl APPID_2969676704_2459690813664 
o vid_37 
f 269 268 267
f 270 271 272
f 267 272 271
f 267 271 269
f 269 271 270
f 270 268 269
f 268 270 272
f 272 267 268
usemtl APPID_2969681968_2459690813024 
o vid_38 
f 273 278 279
f 274 279 280
f 275 280 281
f 273 279 274
f 274 280 275
f 275 281 276
f 276 281 282
usemtl APPID_2969676704_2459690813664 
o vid_39 
f 285 284 283
f 286 287 288
f 283 288 287
f 283 287 285
f 285 287 286
f 286 284 285
f 284 286 288
f 288 283 284
usemtl APPID_2969681968_2459690813024 
o vid_40 
f 289 295 296
f 290 296 297
f 291 297 298
f 292 298 299
f 289 296 290
f 290 297 291
f 291 298 292
f 292 299 293
f 293 299 300
usemtl APPID_2969677712_2459690813792 
o vid_10000004 
f 301 306 307
f 302 307 308
f 303 308 309
f 301 307 302
f 302 308 303
f 303 309 304
f 304 309 310
usemtl APPID_2969677712_2459690813792 
o vid_10000006 
f 311 317 318
f 312 318 319
f 313 319 320
f 314 320 321
f 311 318 312
f 312 319 313
f 313 320 314
f 314 321 315
f 315 321 322
usemtl APPID_2969677712_2459690813792 
o vid_10000008 
f 323 330 331
f 324 331 332
f 325 332 333
f 326 333 334
f 327 334 335
f 323 331 324
f 324 332 325
f 325 333 326
f 326 334 327
f 327 335 328
f 328 335 336
usemtl APPID_2969677712_2459690813792 
o vid_10000010 
f 337 343 344
f 338 344 345
f 339 345 346
f 340 346 347
f 337 344 338
f 338 345 339
f 339 346 340
f 340 347 341
f 341 347 348
usemtl APPID_2969677712_2459690813792 
o vid_10000012 
f 349 355 356
f 350 356 357
f 351 357 358
f 352 358 359
f 349 356 350
f 350 357 351
f 351 358 352
f 352 359 353
f 353 359 360
usemtl APPID_2969677712_2459690813792 
o vid_10000014 
f 361 367 368
f 362 368 369
f 363 369 370
f 364 370 371
f 361 368 362
f 362 369 363
f 363 370 364
f 364 371 365
f 365 371 372
usemtl APPID_2969677712_2459690813792 
o vid_10000016 
f 373 378 379
f 374 379 380
f 375 380 381
f 373 379 374
f 374 380 375
f 375 381 376
f 376 381 382
usemtl APPID_2969677712_2459690813792 
o vid_10000018 
f 383 388 389
f 384 389 390
f 385 390 391
f 383 389 384
f 384 390 385
f 385 391 386
f 386 391 392
usemtl APPID_2969677712_2459690813792 
o vid_10000020 
f 393 397 398
f 394 398 399
f 393 398 394
f 394 399 395
f 395 399 400
usemtl APPID_2969677712_2459690813792 
o vid_10000022 
f 401 406 407
f 402 407 408
f 403 408 409
f 401 407 402
f 402 408 403
f 403 409 404
f 404 409 410
usemtl APPID_2969677712_2459690813792 
o vid_10000024 
f 411 415 416
f 412 416 417
f 411 416 412
f 412 417 413
f 413 417 418
usemtl APPID_2969677712_2459690813792 
o vid_10000026 
f 419 421 422
f 419 422 420
f 419 421 422
usemtl APPID_2969677712_2459690813792 
o vid_10000028 
f 423 425 426
f 423 426 424
f 423 425 426
usemtl APPID_2969677712_2459690813792 
o vid_10000030 
f 427 429 430
f 427 430 428
f 427 429 430
usemtl APPID_2969677712_2459690813792 
o vid_10000032 
f 431 433 434
f 431 434 432
f 431 433 434
