# File generated by PlantGL - Fri Sep  4 14:43:22 2026
v    18.201987 179.124129 0.000000
v    21.657533 178.880811 0.000000
v    20.140480 181.995060 0.000000
v    21.798013 180.875871 0.331061
v    18.342467 181.119189 0.331061
v    19.859520 178.004940 0.331061
v    21.368330 181.462214 -0.116670
v    21.894568 181.662107 0.416717
v    22.663788 181.932960 1.187494
v    23.525063 182.252177 1.763257
v    24.188082 182.475650 2.200343
v    24.707552 182.660136 2.339081
v    26.114331 182.978491 2.694692
v    21.994840 180.176096 -0.116670
v    22.476625 180.467244 0.416717
v    23.164064 180.905978 1.187494
v    23.946332 181.387384 1.763257
v    24.530999 181.771700 2.200343
v    24.996480 182.067016 2.339081
v    26.114331 182.978491 2.694692
v    21.503548 181.204422 0.331061
v    18.205166 180.699900 0.331061
v    20.291286 178.095678 0.331061
v    18.496452 178.795578 0.771522
v    21.794834 179.300100 0.771522
v    19.708714 181.904322 0.771522
v    19.330129 178.037269 0.161104
v    17.765761 177.000902 1.939150
v    17.361053 176.725198 2.246675
v    15.925945 175.791063 3.320030
v    15.130539 175.259116 3.561480
v    13.572923 174.275325 4.025136
v    12.856188 173.933834 4.220879
v    11.789575 173.423012 3.976419
v    17.938383 179.774664 0.161104
v    16.585564 178.474209 1.939150
v    16.228176 178.139432 2.246675
v    15.003336 176.942808 3.320030
v    14.310609 176.282681 3.561480
v    13.010572 174.977339 4.025136
v    12.520880 174.352418 4.220879
v    11.789575 173.423012 3.976419
v    18.272844 179.328938 0.771522
v    21.444735 178.839770 0.771522
v    20.282421 181.831292 0.771522
v    21.727156 180.671062 1.487405
v    18.555265 181.160230 1.487405
v    19.717579 178.168708 1.487405
v    20.982541 181.937926 0.674073
v    23.385256 182.629623 3.043171
v    26.210645 183.423389 4.883077
v    26.971456 183.646008 5.083101
v    29.344567 184.273581 5.700883
v    30.880834 184.489817 6.083383
v    31.947936 184.642202 5.860565
v    22.033193 179.233795 0.674073
v    24.272627 180.345739 3.043171
v    26.892771 181.667758 4.883077
v    27.604307 182.017198 5.083101
v    29.778609 183.156459 5.700883
v    31.057874 184.034157 6.083383
v    31.947936 184.642202 5.860565
v    21.533289 180.362708 1.487405
v    18.919241 181.146513 1.487405
v    19.547470 178.490779 1.487405
v    18.466711 179.637292 2.987040
v    21.080759 178.853487 2.987040
v    20.452530 181.509221 2.987040
v    19.239286 177.702137 1.927942
v    16.016239 177.241352 5.012917
v    13.516647 176.850969 6.601670
v    12.240554 176.679043 7.408793
v    8.692301 176.155969 8.313793
v    6.096664 175.842372 8.971798
v    2.072579 175.759165 8.136607
v    18.290377 181.713490 1.927942
v    15.202479 180.681385 5.012917
v    12.792903 179.910476 6.601670
v    11.575028 179.492440 7.408793
v    8.168484 178.370316 8.313793
v    5.707446 177.487728 8.971798
v    2.072579 175.759165 8.136607
v    19.180471 179.064162 2.987040
v    21.220224 179.758187 2.987040
v    19.599304 181.177652 2.987040
v    20.819529 180.935838 4.897980
v    18.779776 180.241813 4.897980
v    20.400696 178.822348 4.897980
v    18.434818 182.505946 3.550154
v    19.228542 183.262641 4.589258
v    21.434257 185.364440 7.476143
v    24.905626 188.758936 10.525174
v    30.381081 194.052136 12.447286
v    33.409028 196.819401 11.705196
v    36.966151 199.374037 10.799927
v    22.690548 178.779136 3.550154
v    23.335904 179.665759 4.589258
v    25.128307 182.129502 7.476143
v    28.035115 186.018392 10.525174
v    32.559610 192.144364 12.447286
v    34.903175 195.510952 11.705196
v    36.966151 199.374037 10.799927
v    20.788306 180.503311 4.897980
v    19.169967 180.431038 4.897980
v    20.041727 179.065652 4.897980
v    19.211694 179.496689 12.075822
v    20.830033 179.568962 12.075822
v    19.958273 180.934348 12.075822
v    21.696624 176.505729 10.399489
v    17.137135 174.109878 15.282362
v    11.811625 171.263277 19.074534
v    5.713941 167.926766 20.830904
v    3.194637 166.607798 21.548447
v    -1.420975 164.186786 20.446265
v    -6.001456 161.933467 19.369521
v    -9.775509 160.696957 17.439488
v    -10.675555 160.414534 16.861410
v    17.544139 183.009520 10.399489
v    13.452060 179.881592 15.282362
v    8.628734 176.248450 19.074534
v    3.036047 172.120993 20.830904
v    0.779395 170.390649 21.548447
v    -3.359127 167.222397 20.446265
v    -7.330740 164.015447 19.369521
v    -10.040605 161.112161 17.439488
v    -10.675555 160.414534 16.861410
v    19.472966 179.620271 12.075822
v    20.592372 179.733440 12.075822
v    19.934662 180.646289 12.075822
v    20.527034 180.379729 17.953724
v    19.407628 180.266560 17.953724
v    20.065338 179.353711 17.953724
v    17.559246 183.490565 15.916141
v    18.822595 184.238120 17.307097
v    22.950565 186.679399 21.851275
v    29.219491 190.497039 26.460662
v    38.871514 196.294800 29.302342
v    44.271862 199.338245 28.298756
v    50.381096 201.889651 26.930212
v    22.538450 176.579825 15.916141
v    23.647475 177.541571 17.307097
v    27.269917 180.684482 21.851275
v    32.875659 185.422569 26.460662
v    41.430612 192.742976 29.302342
v    46.027024 196.902220 28.298756
v    50.381096 201.889651 26.930212
v    20.324177 180.211126 17.953724
v    19.655071 180.175183 17.953724
v    20.020752 179.613691 17.953724
v    19.675823 179.788874 19.033000
v    20.344929 179.824817 19.033000
v    19.979248 180.386309 19.033000
v    20.759207 177.285008 14.375089
v    20.665001 177.330109 15.442036
v    19.900121 177.806765 22.920862
v    19.621104 178.079410 24.590470
v    17.582500 178.425562 30.558796
v    17.823838 181.792176 14.375089
v    17.826996 181.687779 15.442036
v    17.953670 180.795481 22.920862
v    18.090212 180.430046 24.590470
v    17.582500 178.425562 30.558796
mtllib usm_15_2.5D_2018-08-15_4.mtl
usemtl APPID_1699832256_2630218016000 
o vid_3 
f 3 2 1
f 4 5 6
f 1 6 5
f 1 5 3
f 3 5 4
f 4 2 3
f 2 4 6
f 6 1 2
usemtl APPID_1699833152_2630218014464 
o vid_4 
f 7 14 15
f 8 15 16
f 9 16 17
f 10 17 18
f 11 18 19
f 7 15 8
f 8 16 9
f 9 17 10
f 10 18 11
f 11 19 12
f 12 19 20
usemtl APPID_1699832256_2630218016000 
o vid_5 
f 23 22 21
f 24 25 26
f 21 26 25
f 21 25 23
f 23 25 24
f 24 22 23
f 22 24 26
f 26 21 22
usemtl APPID_1699833152_2630218014464 
o vid_6 
f 27 35 36
f 28 36 37
f 29 37 38
f 30 38 39
f 31 39 40
f 32 40 41
f 27 36 28
f 28 37 29
f 29 38 30
f 30 39 31
f 31 40 32
f 32 41 33
f 33 41 42
usemtl APPID_1699832256_2630218016000 
o vid_7 
f 45 44 43
f 46 47 48
f 43 48 47
f 43 47 45
f 45 47 46
f 46 44 45
f 44 46 48
f 48 43 44
usemtl APPID_1699833152_2630218014464 
o vid_8 
f 49 56 57
f 50 57 58
f 51 58 59
f 52 59 60
f 53 60 61
f 49 57 50
f 50 58 51
f 51 59 52
f 52 60 53
f 53 61 54
f 54 61 62
usemtl APPID_1699832256_2630218016000 
o vid_9 
f 65 64 63
f 66 67 68
f 63 68 67
f 63 67 65
f 65 67 66
f 66 64 65
f 64 66 68
f 68 63 64
usemtl APPID_1699833152_2630218014464 
o vid_10 
f 69 76 77
f 70 77 78
f 71 78 79
f 72 79 80
f 73 80 81
f 69 77 70
f 70 78 71
f 71 79 72
f 72 80 73
f 73 81 74
f 74 81 82
usemtl APPID_1699832256_2630218016000 
o vid_11 
f 85 84 83
f 86 87 88
f 83 88 87
f 83 87 85
f 85 87 86
f 86 84 85
f 84 86 88
f 88 83 84
usemtl APPID_1699833152_2630218014464 
o vid_12 
f 89 96 97
f 90 97 98
f 91 98 99
f 92 99 100
f 93 100 101
f 89 97 90
f 90 98 91
f 91 99 92
f 92 100 93
f 93 101 94
f 94 101 102
usemtl APPID_1699832256_2630218016000 
o vid_13 
f 105 104 103
f 106 107 108
f 103 108 107
f 103 107 105
f 105 107 106
f 106 104 105
f 104 106 108
f 108 103 104
usemtl APPID_1699833152_2630218014464 
o vid_14 
f 109 118 119
f 110 119 120
f 111 120 121
f 112 121 122
f 113 122 123
f 114 123 124
f 115 124 125
f 109 119 110
f 110 120 111
f 111 121 112
f 112 122 113
f 113 123 114
f 114 124 115
f 115 125 116
f 116 125 126
usemtl APPID_1699832256_2630218016000 
o vid_15 
f 129 128 127
f 130 131 132
f 127 132 131
f 127 131 129
f 129 131 130
f 130 128 129
f 128 130 132
f 132 127 128
usemtl APPID_1699833152_2630218014464 
o vid_16 
f 133 140 141
f 134 141 142
f 135 142 143
f 136 143 144
f 137 144 145
f 133 141 134
f 134 142 135
f 135 143 136
f 136 144 137
f 137 145 138
f 138 145 146
usemtl APPID_1699832256_2630218016000 
o vid_17 
f 149 148 147
f 150 151 152
f 147 152 151
f 147 151 149
f 149 151 150
f 150 148 149
f 148 150 152
f 152 147 148
usemtl APPID_1699833152_2630218014464 
o vid_18 
f 153 158 159
f 154 159 160
f 155 160 161
f 153 159 154
f 154 160 155
f 155 161 156
f 156 161 162
